<?xml version="1.0" encoding="utf-8" standalone="no"?>
<!DOCTYPE svg PUBLIC "-//W3C//DTD SVG 1.1//EN"
  "http://www.w3.org/Graphics/SVG/1.1/DTD/svg11.dtd">
<svg xmlns:xlink="http://www.w3.org/1999/xlink" width="504pt" height="360pt" viewBox="0 0 504 360" xmlns="http://www.w3.org/2000/svg" version="1.1">
 <metadata>
  <rdf:RDF xmlns:dc="http://purl.org/dc/elements/1.1/" xmlns:cc="http://creativecommons.org/ns#" xmlns:rdf="http://www.w3.org/1999/02/22-rdf-syntax-ns#">
   <cc:Work>
    <dc:type rdf:resource="http://purl.org/dc/dcmitype/StillImage"/>
    <dc:date>2024-03-07T13:18:07.145327</dc:date>
    <dc:format>image/svg+xml</dc:format>
    <dc:creator>
     <cc:Agent>
      <dc:title>Matplotlib v3.5.1, https://matplotlib.org/</dc:title>
     </cc:Agent>
    </dc:creator>
   </cc:Work>
  </rdf:RDF>
 </metadata>
 <defs>
  <style type="text/css">*{stroke-linejoin: round; stroke-linecap: butt}</style>
 </defs>
 <g id="figure_1">
  <g id="patch_1">
   <path d="M 0 360 
L 504 360 
L 504 0 
L 0 0 
z
" style="fill: #ffffff"/>
  </g>
  <g id="axes_1">
   <g id="patch_2">
    <path d="M 43.385756 163.029873 
L 249.153466 163.029873 
L 249.153466 46.528955 
L 43.385756 46.528955 
z
" style="fill: #ffffff"/>
   </g>
   <g id="matplotlib.axis_1">
    <g id="xtick_1">
     <g id="line2d_1">
      <defs>
       <path id="macde24e228" d="M 0 0 
L 0 3.5 
" style="stroke: #000000; stroke-width: 0.8"/>
      </defs>
      <g>
       <use xlink:href="#macde24e228" x="71.444989" y="163.029873" style="stroke: #000000; stroke-width: 0.8"/>
      </g>
     </g>
     <g id="text_1">
      <!-- $\mathdefault{−4}$ -->
      <g transform="translate(65.079949 176.948371)scale(0.1 -0.1)">
       <defs>
        <path id="CMSY10-0" d="M 4218 1472 
C 4326 1472 4442 1472 4442 1600 
C 4442 1728 4326 1728 4218 1728 
L 755 1728 
C 646 1728 531 1728 531 1600 
C 531 1472 646 1472 755 1472 
L 4218 1472 
z
" transform="scale(0.015625)"/>
        <path id="CMR17-34" d="M 2150 4122 
C 2150 4256 2144 4256 2029 4256 
L 128 1254 
L 128 1088 
L 1779 1088 
L 1779 457 
C 1779 224 1766 160 1318 160 
L 1197 160 
L 1197 0 
C 1402 0 1747 0 1965 0 
C 2182 0 2528 0 2733 0 
L 2733 160 
L 2611 160 
C 2163 160 2150 224 2150 457 
L 2150 1088 
L 2803 1088 
L 2803 1254 
L 2150 1254 
L 2150 4122 
z
M 1798 3703 
L 1798 1254 
L 256 1254 
L 1798 3703 
z
" transform="scale(0.015625)"/>
       </defs>
       <use xlink:href="#CMSY10-0" transform="scale(0.996264)"/>
       <use xlink:href="#CMR17-34" transform="translate(77.487468 0)scale(0.996264)"/>
      </g>
     </g>
    </g>
    <g id="xtick_2">
     <g id="line2d_2">
      <g>
       <use xlink:href="#macde24e228" x="108.8573" y="163.029873" style="stroke: #000000; stroke-width: 0.8"/>
      </g>
     </g>
     <g id="text_2">
      <!-- $\mathdefault{−2}$ -->
      <g transform="translate(102.492261 176.948371)scale(0.1 -0.1)">
       <defs>
        <path id="CMR17-32" d="M 2669 989 
L 2554 989 
C 2490 536 2438 459 2413 420 
C 2381 369 1920 369 1830 369 
L 602 369 
C 832 619 1280 1072 1824 1597 
C 2214 1967 2669 2402 2669 3035 
C 2669 3790 2067 4224 1395 4224 
C 691 4224 262 3604 262 3030 
C 262 2780 448 2748 525 2748 
C 589 2748 781 2787 781 3010 
C 781 3207 614 3264 525 3264 
C 486 3264 448 3258 422 3245 
C 544 3790 915 4058 1306 4058 
C 1862 4058 2227 3617 2227 3035 
C 2227 2479 1901 2000 1536 1584 
L 262 146 
L 262 0 
L 2515 0 
L 2669 989 
z
" transform="scale(0.015625)"/>
       </defs>
       <use xlink:href="#CMSY10-0" transform="scale(0.996264)"/>
       <use xlink:href="#CMR17-32" transform="translate(77.487468 0)scale(0.996264)"/>
      </g>
     </g>
    </g>
    <g id="xtick_3">
     <g id="line2d_3">
      <g>
       <use xlink:href="#macde24e228" x="146.269611" y="163.029873" style="stroke: #000000; stroke-width: 0.8"/>
      </g>
     </g>
     <g id="text_3">
      <!-- $\mathdefault{0}$ -->
      <g transform="translate(143.778943 176.948371)scale(0.1 -0.1)">
       <defs>
        <path id="CMR17-30" d="M 2688 2025 
C 2688 2416 2682 3080 2413 3591 
C 2176 4039 1798 4198 1466 4198 
C 1158 4198 768 4058 525 3597 
C 269 3118 243 2524 243 2025 
C 243 1661 250 1106 448 619 
C 723 -39 1216 -128 1466 -128 
C 1760 -128 2208 -7 2470 600 
C 2662 1042 2688 1559 2688 2025 
z
M 1466 -26 
C 1056 -26 813 325 723 812 
C 653 1188 653 1738 653 2096 
C 653 2588 653 2997 736 3387 
C 858 3929 1216 4096 1466 4096 
C 1728 4096 2067 3923 2189 3400 
C 2272 3036 2278 2607 2278 2096 
C 2278 1680 2278 1169 2202 792 
C 2067 95 1690 -26 1466 -26 
z
" transform="scale(0.015625)"/>
       </defs>
       <use xlink:href="#CMR17-30" transform="scale(0.996264)"/>
      </g>
     </g>
    </g>
    <g id="xtick_4">
     <g id="line2d_4">
      <g>
       <use xlink:href="#macde24e228" x="183.681922" y="163.029873" style="stroke: #000000; stroke-width: 0.8"/>
      </g>
     </g>
     <g id="text_4">
      <!-- $\mathdefault{2}$ -->
      <g transform="translate(181.191255 176.948371)scale(0.1 -0.1)">
       <use xlink:href="#CMR17-32" transform="scale(0.996264)"/>
      </g>
     </g>
    </g>
    <g id="xtick_5">
     <g id="line2d_5">
      <g>
       <use xlink:href="#macde24e228" x="221.094233" y="163.029873" style="stroke: #000000; stroke-width: 0.8"/>
      </g>
     </g>
     <g id="text_5">
      <!-- $\mathdefault{4}$ -->
      <g transform="translate(218.603566 176.948371)scale(0.1 -0.1)">
       <use xlink:href="#CMR17-34" transform="scale(0.996264)"/>
      </g>
     </g>
    </g>
   </g>
   <g id="matplotlib.axis_2">
    <g id="ytick_1">
     <g id="line2d_6">
      <defs>
       <path id="m1c0dc12ab0" d="M 0 0 
L -3.5 0 
" style="stroke: #000000; stroke-width: 0.8"/>
      </defs>
      <g>
       <use xlink:href="#m1c0dc12ab0" x="43.385756" y="158.452833" style="stroke: #000000; stroke-width: 0.8"/>
      </g>
     </g>
     <g id="text_6">
      <!-- $\mathdefault{0.00}$ -->
      <g transform="translate(18.674341 161.912082)scale(0.1 -0.1)">
       <defs>
        <path id="CMMI12-3a" d="M 1178 307 
C 1178 492 1024 619 870 619 
C 685 619 557 466 557 313 
C 557 128 710 0 864 0 
C 1050 0 1178 153 1178 307 
z
" transform="scale(0.015625)"/>
       </defs>
       <use xlink:href="#CMR17-30" transform="scale(0.996264)"/>
       <use xlink:href="#CMMI12-3a" transform="translate(45.690477 0)scale(0.996264)"/>
       <use xlink:href="#CMR17-30" transform="translate(72.787654 0)scale(0.996264)"/>
       <use xlink:href="#CMR17-30" transform="translate(118.478131 0)scale(0.996264)"/>
      </g>
     </g>
    </g>
    <g id="ytick_2">
     <g id="line2d_7">
      <g>
       <use xlink:href="#m1c0dc12ab0" x="43.385756" y="131.616123" style="stroke: #000000; stroke-width: 0.8"/>
      </g>
     </g>
     <g id="text_7">
      <!-- $\mathdefault{0.25}$ -->
      <g transform="translate(18.674341 135.075373)scale(0.1 -0.1)">
       <defs>
        <path id="CMR17-35" d="M 730 3692 
C 794 3666 1056 3584 1325 3584 
C 1920 3584 2246 3911 2432 4100 
C 2432 4157 2432 4192 2394 4192 
C 2387 4192 2374 4192 2323 4163 
C 2099 4058 1837 3973 1517 3973 
C 1325 3973 1037 3999 723 4139 
C 653 4171 640 4171 634 4171 
C 602 4171 595 4164 595 4037 
L 595 2203 
C 595 2089 595 2057 659 2057 
C 691 2057 704 2070 736 2114 
C 941 2401 1222 2522 1542 2522 
C 1766 2522 2246 2382 2246 1289 
C 2246 1085 2246 715 2054 421 
C 1894 159 1645 25 1370 25 
C 947 25 518 320 403 814 
C 429 807 480 795 506 795 
C 589 795 749 840 749 1038 
C 749 1210 627 1280 506 1280 
C 358 1280 262 1190 262 1011 
C 262 454 704 -128 1382 -128 
C 2042 -128 2669 440 2669 1264 
C 2669 2030 2170 2624 1549 2624 
C 1222 2624 947 2503 730 2274 
L 730 3692 
z
" transform="scale(0.015625)"/>
       </defs>
       <use xlink:href="#CMR17-30" transform="scale(0.996264)"/>
       <use xlink:href="#CMMI12-3a" transform="translate(45.690477 0)scale(0.996264)"/>
       <use xlink:href="#CMR17-32" transform="translate(72.787654 0)scale(0.996264)"/>
       <use xlink:href="#CMR17-35" transform="translate(118.478131 0)scale(0.996264)"/>
      </g>
     </g>
    </g>
    <g id="ytick_3">
     <g id="line2d_8">
      <g>
       <use xlink:href="#m1c0dc12ab0" x="43.385756" y="104.779414" style="stroke: #000000; stroke-width: 0.8"/>
      </g>
     </g>
     <g id="text_8">
      <!-- $\mathdefault{0.50}$ -->
      <g transform="translate(18.674341 108.238663)scale(0.1 -0.1)">
       <use xlink:href="#CMR17-30" transform="scale(0.996264)"/>
       <use xlink:href="#CMMI12-3a" transform="translate(45.690477 0)scale(0.996264)"/>
       <use xlink:href="#CMR17-35" transform="translate(72.787654 0)scale(0.996264)"/>
       <use xlink:href="#CMR17-30" transform="translate(118.478131 0)scale(0.996264)"/>
      </g>
     </g>
    </g>
    <g id="ytick_4">
     <g id="line2d_9">
      <g>
       <use xlink:href="#m1c0dc12ab0" x="43.385756" y="77.942705" style="stroke: #000000; stroke-width: 0.8"/>
      </g>
     </g>
     <g id="text_9">
      <!-- $\mathdefault{0.75}$ -->
      <g transform="translate(18.674341 81.401954)scale(0.1 -0.1)">
       <defs>
        <path id="CMR17-37" d="M 2886 3941 
L 2886 4081 
L 1382 4081 
C 634 4081 621 4165 595 4288 
L 480 4288 
L 294 3094 
L 410 3094 
C 429 3215 474 3540 550 3661 
C 589 3712 1062 3712 1171 3712 
L 2579 3712 
L 1869 2661 
C 1395 1954 1069 999 1069 165 
C 1069 89 1069 -128 1299 -128 
C 1530 -128 1530 89 1530 171 
L 1530 465 
C 1530 1508 1709 2196 2003 2636 
L 2886 3941 
z
" transform="scale(0.015625)"/>
       </defs>
       <use xlink:href="#CMR17-30" transform="scale(0.996264)"/>
       <use xlink:href="#CMMI12-3a" transform="translate(45.690477 0)scale(0.996264)"/>
       <use xlink:href="#CMR17-37" transform="translate(72.787654 0)scale(0.996264)"/>
       <use xlink:href="#CMR17-35" transform="translate(118.478131 0)scale(0.996264)"/>
      </g>
     </g>
    </g>
    <g id="ytick_5">
     <g id="line2d_10">
      <g>
       <use xlink:href="#m1c0dc12ab0" x="43.385756" y="51.105995" style="stroke: #000000; stroke-width: 0.8"/>
      </g>
     </g>
     <g id="text_10">
      <!-- $\mathdefault{1.00}$ -->
      <g transform="translate(18.674341 54.565244)scale(0.1 -0.1)">
       <defs>
        <path id="CMR17-31" d="M 1702 4058 
C 1702 4192 1696 4192 1606 4192 
C 1357 3916 979 3827 621 3827 
C 602 3827 570 3827 563 3808 
C 557 3795 557 3782 557 3648 
C 755 3648 1088 3686 1344 3839 
L 1344 461 
C 1344 236 1331 160 781 160 
L 589 160 
L 589 0 
C 896 0 1216 0 1523 0 
C 1830 0 2150 0 2458 0 
L 2458 160 
L 2266 160 
C 1715 160 1702 230 1702 458 
L 1702 4058 
z
" transform="scale(0.015625)"/>
       </defs>
       <use xlink:href="#CMR17-31" transform="scale(0.996264)"/>
       <use xlink:href="#CMMI12-3a" transform="translate(45.690477 0)scale(0.996264)"/>
       <use xlink:href="#CMR17-30" transform="translate(72.787654 0)scale(0.996264)"/>
       <use xlink:href="#CMR17-30" transform="translate(118.478131 0)scale(0.996264)"/>
      </g>
     </g>
    </g>
    <g id="text_11">
     <!-- activation function output -->
     <g transform="translate(12.737163 159.18657)rotate(-90)scale(0.1 -0.1)">
      <defs>
       <path id="CMSS17-61" d="M 2406 1791 
C 2406 2392 1978 2808 1402 2808 
C 1120 2808 813 2757 461 2553 
L 499 2135 
C 659 2248 934 2432 1395 2432 
C 1722 2432 1920 2180 1920 1782 
L 1920 1536 
C 896 1536 256 1238 256 726 
C 256 461 416 -64 947 -64 
C 1043 -64 1562 -64 1933 217 
L 1933 -19 
L 2406 -19 
L 2406 1791 
z
M 1920 816 
C 1920 701 1920 548 1728 434 
C 1562 325 1350 325 1261 325 
C 941 325 723 511 723 744 
C 723 1211 1722 1211 1920 1211 
L 1920 816 
z
" transform="scale(0.015625)"/>
       <path id="CMSS17-63" d="M 2464 2541 
C 2464 2585 2170 2714 2093 2739 
C 1882 2816 1613 2816 1542 2816 
C 710 2816 211 2093 211 1363 
C 211 595 768 -64 1517 -64 
C 1946 -64 2253 76 2502 242 
L 2464 664 
C 2189 453 1869 337 1523 337 
C 1024 337 698 774 698 1369 
C 698 1831 909 2414 1549 2414 
C 1901 2414 2099 2343 2394 2145 
L 2464 2541 
z
" transform="scale(0.015625)"/>
       <path id="CMSS17-74" d="M 1069 2368 
L 1901 2368 
L 1901 2737 
L 1069 2737 
L 1069 3520 
L 614 3520 
L 614 2737 
L 109 2737 
L 109 2368 
L 602 2368 
L 602 749 
C 602 384 685 -64 1107 -64 
C 1427 -64 1722 25 2003 172 
L 1901 548 
C 1747 414 1562 337 1363 337 
C 1082 337 1069 696 1069 856 
L 1069 2368 
z
" transform="scale(0.015625)"/>
       <path id="CMSS17-69" d="M 979 4183 
L 442 4183 
L 442 3648 
L 979 3648 
L 979 4183 
z
M 947 2739 
L 474 2739 
L 474 0 
L 947 0 
L 947 2739 
z
" transform="scale(0.015625)"/>
       <path id="CMSS17-76" d="M 2675 2752 
L 2176 2752 
L 1747 1556 
C 1613 1165 1421 627 1389 352 
L 1382 352 
C 1370 468 1318 634 1286 749 
C 1248 890 1197 1056 1158 1172 
L 595 2752 
L 83 2752 
L 1094 0 
L 1664 0 
L 2675 2752 
z
" transform="scale(0.015625)"/>
       <path id="CMSS17-6f" d="M 2829 1356 
C 2829 2176 2221 2816 1504 2816 
C 768 2816 173 2157 173 1356 
C 173 544 787 -64 1498 -64 
C 2227 -64 2829 563 2829 1356 
z
M 1504 337 
C 1050 337 659 709 659 1408 
C 659 2151 1114 2427 1498 2427 
C 1914 2427 2342 2126 2342 1408 
C 2342 683 1926 337 1504 337 
z
" transform="scale(0.015625)"/>
       <path id="CMSS17-6e" d="M 2618 1877 
C 2618 2283 2522 2816 1798 2816 
C 1389 2816 1120 2606 941 2389 
L 941 2758 
L 474 2758 
L 474 0 
L 960 0 
L 960 1559 
C 960 1964 1114 2428 1549 2428 
C 2112 2428 2131 2048 2131 1829 
L 2131 0 
L 2618 0 
L 2618 1877 
z
" transform="scale(0.015625)"/>
       <path id="CMSS17-66" d="M 1075 2368 
L 1722 2368 
L 1722 2737 
L 1062 2737 
L 1062 3559 
C 1062 4014 1408 4092 1606 4092 
C 1670 4092 1850 4092 2080 4009 
L 2080 4429 
C 1933 4461 1754 4480 1613 4480 
C 1018 4480 602 3993 602 3359 
L 602 2737 
L 160 2737 
L 160 2368 
L 602 2368 
L 602 0 
L 1075 0 
L 1075 2368 
z
" transform="scale(0.015625)"/>
       <path id="CMSS17-75" d="M 2618 2739 
L 2131 2739 
L 2131 972 
C 2131 498 1786 306 1421 306 
C 998 306 960 447 960 709 
L 960 2739 
L 474 2739 
L 474 678 
C 474 179 646 -64 1088 -64 
C 1306 -64 1798 -13 2144 306 
L 2144 0 
L 2618 0 
L 2618 2739 
z
" transform="scale(0.015625)"/>
       <path id="CMSS17-70" d="M 966 333 
C 1178 129 1466 -5 1773 -5 
C 2368 -5 2880 603 2880 1412 
C 2880 2159 2496 2816 1946 2816 
C 1626 2816 1242 2702 954 2472 
L 954 2765 
L 480 2765 
L 480 -1216 
L 966 -1216 
L 966 333 
z
M 966 2100 
C 1018 2176 1235 2415 1587 2415 
C 2035 2415 2394 1960 2394 1412 
C 2394 787 1958 384 1530 384 
C 1402 384 1267 415 1139 523 
C 966 674 966 768 966 857 
L 966 2100 
z
" transform="scale(0.015625)"/>
      </defs>
      <use xlink:href="#CMSS17-61" transform="scale(0.996264)"/>
      <use xlink:href="#CMSS17-63" transform="translate(44.921921 0)scale(0.996264)"/>
      <use xlink:href="#CMSS17-74" transform="translate(86.560743 0)scale(0.996264)"/>
      <use xlink:href="#CMSS17-69" transform="translate(120.392309 0)scale(0.996264)"/>
      <use xlink:href="#CMSS17-76" transform="translate(142.573032 0)scale(0.996264)"/>
      <use xlink:href="#CMSS17-61" transform="translate(185.573174 0)scale(0.996264)"/>
      <use xlink:href="#CMSS17-74" transform="translate(230.495095 0)scale(0.996264)"/>
      <use xlink:href="#CMSS17-69" transform="translate(264.326661 0)scale(0.996264)"/>
      <use xlink:href="#CMSS17-6f" transform="translate(286.507384 0)scale(0.996264)"/>
      <use xlink:href="#CMSS17-6e" transform="translate(333.351008 0)scale(0.996264)"/>
      <use xlink:href="#CMSS17-66" transform="translate(412.785064 0)scale(0.996264)"/>
      <use xlink:href="#CMSS17-75" transform="translate(441.411723 0)scale(0.996264)"/>
      <use xlink:href="#CMSS17-6e" transform="translate(489.616666 0)scale(0.996264)"/>
      <use xlink:href="#CMSS17-63" transform="translate(537.821609 0)scale(0.996264)"/>
      <use xlink:href="#CMSS17-74" transform="translate(579.460431 0)scale(0.996264)"/>
      <use xlink:href="#CMSS17-69" transform="translate(613.291998 0)scale(0.996264)"/>
      <use xlink:href="#CMSS17-6f" transform="translate(635.472721 0)scale(0.996264)"/>
      <use xlink:href="#CMSS17-6e" transform="translate(682.316344 0)scale(0.996264)"/>
      <use xlink:href="#CMSS17-6f" transform="translate(761.7504 0)scale(0.996264)"/>
      <use xlink:href="#CMSS17-75" transform="translate(808.594024 0)scale(0.996264)"/>
      <use xlink:href="#CMSS17-74" transform="translate(856.798967 0)scale(0.996264)"/>
      <use xlink:href="#CMSS17-70" transform="translate(890.630533 0)scale(0.996264)"/>
      <use xlink:href="#CMSS17-75" transform="translate(938.835477 0)scale(0.996264)"/>
      <use xlink:href="#CMSS17-74" transform="translate(987.04042 0)scale(0.996264)"/>
     </g>
    </g>
   </g>
   <g id="line2d_11">
    <path d="M 52.738833 157.734376 
L 54.628344 157.658578 
L 56.517855 157.574849 
L 58.407365 157.482374 
L 60.296876 157.380257 
L 62.186387 157.267514 
L 64.075897 157.143066 
L 65.965408 157.00573 
L 67.854919 156.854211 
L 69.744429 156.687092 
L 71.63394 156.502825 
L 73.523451 156.29972 
L 75.412961 156.075937 
L 77.302472 155.829476 
L 79.191983 155.558164 
L 81.081493 155.259648 
L 82.971004 154.931385 
L 84.860515 154.570634 
L 86.750025 154.17445 
L 88.639536 153.739675 
L 90.529047 153.262944 
L 92.418557 152.740675 
L 94.308068 152.169081 
L 96.197579 151.544179 
L 98.087089 150.8618 
L 99.9766 150.117614 
L 101.866111 149.307161 
L 103.755621 148.425886 
L 105.645132 147.46919 
L 107.534643 146.432487 
L 109.424153 145.311279 
L 111.313664 144.101233 
L 113.203175 142.798284 
L 115.092685 141.398737 
L 116.982196 139.899385 
L 118.871707 138.297639 
L 120.761217 136.591657 
L 122.650728 134.78048 
L 124.540239 132.864165 
L 126.429749 130.843908 
L 128.31926 128.72215 
L 130.20877 126.502669 
L 132.098281 124.190639 
L 133.987792 121.792652 
L 135.877302 119.316705 
L 137.766813 116.77214 
L 139.656324 114.169539 
L 141.545834 111.520576 
L 143.435345 108.837821 
L 145.324856 106.134515 
L 147.214366 103.424313 
L 149.103877 100.721007 
L 150.993388 98.038252 
L 152.882898 95.389289 
L 154.772409 92.786689 
L 156.66192 90.242123 
L 158.55143 87.766176 
L 160.440941 85.368189 
L 162.330452 83.056159 
L 164.219962 80.836679 
L 166.109473 78.714921 
L 167.998984 76.694663 
L 169.888494 74.778348 
L 171.778005 72.967172 
L 173.667516 71.261189 
L 175.557026 69.659443 
L 177.446537 68.160091 
L 179.336048 66.760544 
L 181.225558 65.457595 
L 183.115069 64.24755 
L 185.00458 63.126341 
L 186.89409 62.089638 
L 188.783601 61.132942 
L 190.673112 60.251667 
L 192.562622 59.441214 
L 194.452133 58.697028 
L 196.341644 58.014649 
L 198.231154 57.389747 
L 200.120665 56.818153 
L 202.010176 56.295885 
L 203.899686 55.819153 
L 205.789197 55.384378 
L 207.678708 54.988194 
L 209.568218 54.627443 
L 211.457729 54.29918 
L 213.347239 54.000664 
L 215.23675 53.729352 
L 217.126261 53.482891 
L 219.015771 53.259108 
L 220.905282 53.056003 
L 222.794793 52.871736 
L 224.684303 52.704617 
L 226.573814 52.553098 
L 228.463325 52.415762 
L 230.352835 52.291315 
L 232.242346 52.178572 
L 234.131857 52.076454 
L 236.021367 51.983979 
L 237.910878 51.90025 
L 239.800389 51.824452 
" clip-path="url(#p494bcfce90)" style="fill: none; stroke: #1f77b4; stroke-width: 1.5; stroke-linecap: square"/>
   </g>
   <g id="patch_3">
    <path d="M 43.385756 163.029873 
L 43.385756 46.528955 
" style="fill: none; stroke: #000000; stroke-width: 0.8; stroke-linejoin: miter; stroke-linecap: square"/>
   </g>
   <g id="patch_4">
    <path d="M 249.153466 163.029873 
L 249.153466 46.528955 
" style="fill: none; stroke: #000000; stroke-width: 0.8; stroke-linejoin: miter; stroke-linecap: square"/>
   </g>
   <g id="patch_5">
    <path d="M 43.385756 163.029873 
L 249.153466 163.029873 
" style="fill: none; stroke: #000000; stroke-width: 0.8; stroke-linejoin: miter; stroke-linecap: square"/>
   </g>
   <g id="patch_6">
    <path d="M 43.385756 46.528955 
L 249.153466 46.528955 
" style="fill: none; stroke: #000000; stroke-width: 0.8; stroke-linejoin: miter; stroke-linecap: square"/>
   </g>
   <g id="text_12">
    <!-- Sigmoid -->
    <g transform="translate(126.78044 40.528955)scale(0.12 -0.12)">
     <defs>
      <path id="CMSS17-53" d="M 2797 4169 
C 2515 4334 2208 4480 1690 4480 
C 864 4480 333 3879 333 3266 
C 333 3025 403 2753 653 2475 
C 902 2196 1184 2121 1542 2033 
C 1690 1994 1939 1924 1984 1906 
C 2342 1767 2515 1444 2515 1140 
C 2515 742 2202 318 1645 318 
C 1453 318 890 318 358 819 
L 269 318 
C 794 -64 1363 -128 1651 -128 
C 2438 -128 3002 488 3002 1186 
C 3002 1440 2925 1763 2656 2061 
C 2394 2347 2163 2410 1638 2549 
C 1338 2626 1146 2677 986 2873 
C 877 3013 819 3146 819 3317 
C 819 3673 1126 4060 1690 4060 
C 1971 4060 2336 4002 2707 3660 
L 2797 4169 
z
" transform="scale(0.015625)"/>
      <path id="CMSS17-67" d="M 2848 2808 
C 2483 2808 2170 2738 1914 2617 
C 1702 2777 1485 2808 1338 2808 
C 781 2808 358 2349 358 1814 
C 358 1468 550 1207 563 1195 
C 448 1035 384 863 384 672 
C 384 448 474 289 544 200 
C 211 -3 166 -314 166 -435 
C 166 -898 749 -1280 1498 -1280 
C 2253 -1280 2835 -898 2835 -428 
C 2835 448 1856 448 1587 448 
L 1069 448 
C 973 448 717 448 717 791 
C 717 921 774 1004 781 1010 
C 877 940 1075 832 1338 832 
C 1869 832 2310 1278 2310 1827 
C 2310 2132 2170 2355 2112 2432 
L 2131 2432 
C 2150 2432 2419 2432 2515 2432 
C 2720 2432 2739 2429 2918 2419 
L 2848 2808 
z
M 1338 1182 
C 1120 1182 813 1315 813 1823 
C 813 2375 1165 2464 1331 2464 
C 1549 2464 1856 2331 1856 1823 
C 1856 1271 1504 1182 1338 1182 
z
M 1581 -10 
C 1734 -10 2381 -10 2381 -442 
C 2381 -714 1984 -929 1504 -929 
C 1018 -929 621 -720 621 -435 
C 621 -403 621 -10 1062 -10 
L 1581 -10 
z
" transform="scale(0.015625)"/>
      <path id="CMSS17-6d" d="M 4288 1877 
C 4288 2308 4179 2816 3462 2816 
C 2982 2816 2694 2516 2566 2331 
C 2451 2670 2182 2816 1798 2816 
C 1363 2816 1088 2568 941 2389 
L 941 2758 
L 474 2758 
L 474 0 
L 960 0 
L 960 1559 
C 960 1939 1101 2428 1555 2428 
C 2138 2428 2138 2016 2138 1829 
L 2138 0 
L 2624 0 
L 2624 1559 
C 2624 1939 2765 2428 3219 2428 
C 3802 2428 3802 2016 3802 1829 
L 3802 0 
L 4288 0 
L 4288 1877 
z
" transform="scale(0.015625)"/>
      <path id="CMSS17-64" d="M 2611 4416 
L 2138 4416 
L 2138 2438 
C 1939 2603 1613 2756 1254 2756 
C 672 2756 211 2131 211 1347 
C 211 562 666 -64 1235 -64 
C 1677 -64 1971 172 2125 306 
L 2125 -13 
L 2611 -13 
L 2611 4416 
z
M 2125 836 
C 2125 747 2125 653 1926 482 
C 1798 375 1645 325 1498 325 
C 1152 325 698 576 698 1340 
C 698 2134 1210 2368 1562 2368 
C 1798 2368 1990 2254 2125 2065 
L 2125 836 
z
" transform="scale(0.015625)"/>
     </defs>
     <use xlink:href="#CMSS17-53" transform="scale(0.996264)"/>
     <use xlink:href="#CMSS17-69" transform="translate(52.048516 0)scale(0.996264)"/>
     <use xlink:href="#CMSS17-67" transform="translate(74.229239 0)scale(0.996264)"/>
     <use xlink:href="#CMSS17-6d" transform="translate(121.072863 0)scale(0.996264)"/>
     <use xlink:href="#CMSS17-6f" transform="translate(195.302117 0)scale(0.996264)"/>
     <use xlink:href="#CMSS17-69" transform="translate(242.145741 0)scale(0.996264)"/>
     <use xlink:href="#CMSS17-64" transform="translate(264.326464 0)scale(0.996264)"/>
    </g>
   </g>
   <g id="legend_1">
    <g id="patch_7">
     <path d="M 50.385756 72.211559 
L 140.062914 72.211559 
Q 142.062914 72.211559 142.062914 70.211559 
L 142.062914 53.528955 
Q 142.062914 51.528955 140.062914 51.528955 
L 50.385756 51.528955 
Q 48.385756 51.528955 48.385756 53.528955 
L 48.385756 70.211559 
Q 48.385756 72.211559 50.385756 72.211559 
z
" style="fill: #ffffff; opacity: 0.8; stroke: #cccccc; stroke-linejoin: miter"/>
    </g>
    <g id="line2d_12">
     <path d="M 52.385756 60.445817 
L 62.385756 60.445817 
L 72.385756 60.445817 
" style="fill: none; stroke: #1f77b4; stroke-width: 1.5; stroke-linecap: square"/>
    </g>
    <g id="text_13">
     <!-- $\sigma(x) = \frac{1}{1 + e^{-x}}$ -->
     <g transform="translate(80.385756 63.945817)scale(0.1 -0.1)">
      <defs>
       <path id="CMMI12-1b" d="M 3251 2408 
C 3334 2408 3546 2408 3546 2612 
C 3546 2752 3424 2752 3309 2752 
L 1894 2752 
C 934 2752 243 1686 243 932 
C 243 390 595 -64 1171 -64 
C 1926 -64 2752 747 2752 1705 
C 2752 1954 2694 2196 2541 2408 
L 3251 2408 
z
M 1178 64 
C 851 64 614 313 614 754 
C 614 1137 845 2408 1786 2408 
C 2061 2408 2368 2274 2368 1781 
C 2368 1558 2266 1021 2042 652 
C 1811 275 1466 64 1178 64 
z
" transform="scale(0.015625)"/>
       <path id="CMR17-28" d="M 1958 -1561 
C 1958 -1555 1958 -1542 1939 -1523 
C 1645 -1224 858 -407 858 1581 
C 858 3569 1632 4379 1946 4697 
C 1946 4704 1958 4717 1958 4736 
C 1958 4755 1939 4768 1914 4768 
C 1843 4768 1299 4296 986 3594 
C 666 2887 576 2199 576 1588 
C 576 1128 621 351 1005 -471 
C 1312 -1135 1837 -1600 1914 -1600 
C 1946 -1600 1958 -1587 1958 -1561 
z
" transform="scale(0.015625)"/>
       <path id="CMMI12-78" d="M 3034 2606 
C 2829 2567 2752 2414 2752 2293 
C 2752 2139 2874 2088 2963 2088 
C 3155 2088 3290 2254 3290 2427 
C 3290 2695 2982 2816 2714 2816 
C 2323 2816 2106 2433 2048 2312 
C 1901 2816 1504 2816 1389 2816 
C 736 2816 390 1980 390 1839 
C 390 1814 416 1782 461 1782 
C 512 1782 525 1820 538 1846 
C 755 2555 1184 2689 1370 2689 
C 1658 2689 1715 2420 1715 2267 
C 1715 2127 1677 1980 1600 1673 
L 1382 798 
C 1286 415 1101 64 762 64 
C 730 64 570 64 435 147 
C 666 192 717 383 717 460 
C 717 588 621 664 499 664 
C 346 664 179 530 179 326 
C 179 57 480 -64 755 -64 
C 1062 -64 1280 179 1414 441 
C 1517 64 1837 -64 2074 -64 
C 2726 -64 3072 773 3072 913 
C 3072 945 3046 971 3008 971 
C 2950 971 2944 939 2925 888 
C 2752 326 2381 64 2093 64 
C 1869 64 1747 230 1747 492 
C 1747 632 1773 734 1875 1156 
L 2099 2024 
C 2195 2408 2413 2689 2707 2689 
C 2720 2689 2899 2689 3034 2606 
z
" transform="scale(0.015625)"/>
       <path id="CMR17-29" d="M 1683 1581 
C 1683 2040 1638 2817 1254 3639 
C 947 4303 422 4768 346 4768 
C 326 4768 301 4761 301 4729 
C 301 4717 307 4710 314 4697 
C 621 4378 1402 3568 1402 1584 
C 1402 -407 627 -1217 314 -1537 
C 307 -1549 301 -1556 301 -1568 
C 301 -1600 326 -1600 346 -1600 
C 416 -1600 960 -1128 1274 -426 
C 1594 281 1683 969 1683 1581 
z
" transform="scale(0.015625)"/>
       <path id="CMR17-3d" d="M 4115 2017 
C 4211 2017 4307 2017 4307 2125 
C 4307 2240 4198 2240 4090 2240 
L 512 2240 
C 403 2240 294 2240 294 2125 
C 294 2017 390 2017 486 2017 
L 4115 2017 
z
M 4090 896 
C 4198 896 4307 896 4307 1011 
C 4307 1119 4211 1119 4115 1119 
L 486 1119 
C 390 1119 294 1119 294 1011 
C 294 896 403 896 512 896 
L 4090 896 
z
" transform="scale(0.015625)"/>
       <path id="CMR17-2b" d="M 2413 1472 
L 4109 1472 
C 4198 1472 4307 1472 4307 1580 
C 4307 1695 4205 1695 4109 1695 
L 2413 1695 
L 2413 3386 
C 2413 3475 2413 3584 2304 3584 
C 2189 3584 2189 3482 2189 3386 
L 2189 1695 
L 493 1695 
C 403 1695 294 1695 294 1587 
C 294 1472 397 1472 493 1472 
L 2189 1472 
L 2189 -218 
C 2189 -307 2189 -416 2298 -416 
C 2413 -416 2413 -314 2413 -218 
L 2413 1472 
z
" transform="scale(0.015625)"/>
       <path id="CMMI12-65" d="M 1146 1479 
C 1318 1479 1754 1479 2061 1595 
C 2547 1783 2592 2158 2592 2274 
C 2592 2558 2349 2816 1926 2816 
C 1254 2816 288 2210 288 1073 
C 288 402 672 -64 1254 -64 
C 2125 -64 2675 609 2675 692 
C 2675 730 2637 762 2611 762 
C 2592 762 2586 756 2528 699 
C 2118 159 1510 64 1267 64 
C 902 64 710 350 710 822 
C 710 911 710 1071 806 1479 
L 1146 1479 
z
M 838 1600 
C 1114 2592 1722 2689 1926 2689 
C 2208 2689 2400 2522 2400 2277 
C 2400 1600 1376 1600 1107 1600 
L 838 1600 
z
" transform="scale(0.015625)"/>
      </defs>
      <use xlink:href="#CMMI12-1b" transform="scale(0.996264)"/>
      <use xlink:href="#CMR17-28" transform="translate(59.020054 0)scale(0.996264)"/>
      <use xlink:href="#CMMI12-78" transform="translate(94.300821 0)scale(0.996264)"/>
      <use xlink:href="#CMR17-29" transform="translate(149.734881 0)scale(0.996264)"/>
      <use xlink:href="#CMR17-3d" transform="translate(212.689657 0)scale(0.996264)"/>
      <use xlink:href="#CMR17-31" transform="translate(387.677618 39.226102)scale(0.697382)"/>
      <use xlink:href="#CMR17-31" transform="translate(313.273968 -34.355253)scale(0.697382)"/>
      <use xlink:href="#CMR17-2b" transform="translate(345.25715 -34.355253)scale(0.697382)"/>
      <use xlink:href="#CMMI12-65" transform="translate(395.457282 -34.355253)scale(0.697382)"/>
      <use xlink:href="#CMSY10-0" transform="translate(427.105538 -14.20868)scale(0.498132)"/>
      <use xlink:href="#CMMI12-78" transform="translate(465.849272 -14.20868)scale(0.498132)"/>
      <path d="M 313.273968 22.914133 
L 494.064434 22.914133 
L 494.064434 26.899083 
L 313.273968 26.899083 
L 313.273968 22.914133 
z
"/>
     </g>
    </g>
   </g>
  </g>
  <g id="axes_2">
   <g id="patch_8">
    <path d="M 287.432289 163.029873 
L 493.2 163.029873 
L 493.2 46.528955 
L 287.432289 46.528955 
z
" style="fill: #ffffff"/>
   </g>
   <g id="matplotlib.axis_3">
    <g id="xtick_6">
     <g id="line2d_13">
      <g>
       <use xlink:href="#macde24e228" x="315.491522" y="163.029873" style="stroke: #000000; stroke-width: 0.8"/>
      </g>
     </g>
     <g id="text_14">
      <!-- $\mathdefault{−4}$ -->
      <g transform="translate(309.126483 176.948371)scale(0.1 -0.1)">
       <use xlink:href="#CMSY10-0" transform="scale(0.996264)"/>
       <use xlink:href="#CMR17-34" transform="translate(77.487468 0)scale(0.996264)"/>
      </g>
     </g>
    </g>
    <g id="xtick_7">
     <g id="line2d_14">
      <g>
       <use xlink:href="#macde24e228" x="352.903834" y="163.029873" style="stroke: #000000; stroke-width: 0.8"/>
      </g>
     </g>
     <g id="text_15">
      <!-- $\mathdefault{−2}$ -->
      <g transform="translate(346.538794 176.948371)scale(0.1 -0.1)">
       <use xlink:href="#CMSY10-0" transform="scale(0.996264)"/>
       <use xlink:href="#CMR17-32" transform="translate(77.487468 0)scale(0.996264)"/>
      </g>
     </g>
    </g>
    <g id="xtick_8">
     <g id="line2d_15">
      <g>
       <use xlink:href="#macde24e228" x="390.316145" y="163.029873" style="stroke: #000000; stroke-width: 0.8"/>
      </g>
     </g>
     <g id="text_16">
      <!-- $\mathdefault{0}$ -->
      <g transform="translate(387.825477 176.948371)scale(0.1 -0.1)">
       <use xlink:href="#CMR17-30" transform="scale(0.996264)"/>
      </g>
     </g>
    </g>
    <g id="xtick_9">
     <g id="line2d_16">
      <g>
       <use xlink:href="#macde24e228" x="427.728456" y="163.029873" style="stroke: #000000; stroke-width: 0.8"/>
      </g>
     </g>
     <g id="text_17">
      <!-- $\mathdefault{2}$ -->
      <g transform="translate(425.237788 176.948371)scale(0.1 -0.1)">
       <use xlink:href="#CMR17-32" transform="scale(0.996264)"/>
      </g>
     </g>
    </g>
    <g id="xtick_10">
     <g id="line2d_17">
      <g>
       <use xlink:href="#macde24e228" x="465.140767" y="163.029873" style="stroke: #000000; stroke-width: 0.8"/>
      </g>
     </g>
     <g id="text_18">
      <!-- $\mathdefault{4}$ -->
      <g transform="translate(462.650099 176.948371)scale(0.1 -0.1)">
       <use xlink:href="#CMR17-34" transform="scale(0.996264)"/>
      </g>
     </g>
    </g>
   </g>
   <g id="matplotlib.axis_4">
    <g id="ytick_6">
     <g id="line2d_18">
      <g>
       <use xlink:href="#m1c0dc12ab0" x="287.432289" y="157.739185" style="stroke: #000000; stroke-width: 0.8"/>
      </g>
     </g>
     <g id="text_19">
      <!-- $\mathdefault{−1.0}$ -->
      <g transform="translate(259.953466 161.198434)scale(0.1 -0.1)">
       <use xlink:href="#CMSY10-0" transform="scale(0.996264)"/>
       <use xlink:href="#CMR17-31" transform="translate(77.487468 0)scale(0.996264)"/>
       <use xlink:href="#CMMI12-3a" transform="translate(123.177945 0)scale(0.996264)"/>
       <use xlink:href="#CMR17-30" transform="translate(150.275122 0)scale(0.996264)"/>
      </g>
     </g>
    </g>
    <g id="ytick_7">
     <g id="line2d_19">
      <g>
       <use xlink:href="#m1c0dc12ab0" x="287.432289" y="131.2593" style="stroke: #000000; stroke-width: 0.8"/>
      </g>
     </g>
     <g id="text_20">
      <!-- $\mathdefault{−0.5}$ -->
      <g transform="translate(259.953466 134.718549)scale(0.1 -0.1)">
       <use xlink:href="#CMSY10-0" transform="scale(0.996264)"/>
       <use xlink:href="#CMR17-30" transform="translate(77.487468 0)scale(0.996264)"/>
       <use xlink:href="#CMMI12-3a" transform="translate(123.177945 0)scale(0.996264)"/>
       <use xlink:href="#CMR17-35" transform="translate(150.275122 0)scale(0.996264)"/>
      </g>
     </g>
    </g>
    <g id="ytick_8">
     <g id="line2d_20">
      <g>
       <use xlink:href="#m1c0dc12ab0" x="287.432289" y="104.779414" style="stroke: #000000; stroke-width: 0.8"/>
      </g>
     </g>
     <g id="text_21">
      <!-- $\mathdefault{0.0}$ -->
      <g transform="translate(267.70221 108.238663)scale(0.1 -0.1)">
       <use xlink:href="#CMR17-30" transform="scale(0.996264)"/>
       <use xlink:href="#CMMI12-3a" transform="translate(45.690477 0)scale(0.996264)"/>
       <use xlink:href="#CMR17-30" transform="translate(72.787654 0)scale(0.996264)"/>
      </g>
     </g>
    </g>
    <g id="ytick_9">
     <g id="line2d_21">
      <g>
       <use xlink:href="#m1c0dc12ab0" x="287.432289" y="78.299529" style="stroke: #000000; stroke-width: 0.8"/>
      </g>
     </g>
     <g id="text_22">
      <!-- $\mathdefault{0.5}$ -->
      <g transform="translate(267.70221 81.758778)scale(0.1 -0.1)">
       <use xlink:href="#CMR17-30" transform="scale(0.996264)"/>
       <use xlink:href="#CMMI12-3a" transform="translate(45.690477 0)scale(0.996264)"/>
       <use xlink:href="#CMR17-35" transform="translate(72.787654 0)scale(0.996264)"/>
      </g>
     </g>
    </g>
    <g id="ytick_10">
     <g id="line2d_22">
      <g>
       <use xlink:href="#m1c0dc12ab0" x="287.432289" y="51.819643" style="stroke: #000000; stroke-width: 0.8"/>
      </g>
     </g>
     <g id="text_23">
      <!-- $\mathdefault{1.0}$ -->
      <g transform="translate(267.70221 55.278892)scale(0.1 -0.1)">
       <use xlink:href="#CMR17-31" transform="scale(0.996264)"/>
       <use xlink:href="#CMMI12-3a" transform="translate(45.690477 0)scale(0.996264)"/>
       <use xlink:href="#CMR17-30" transform="translate(72.787654 0)scale(0.996264)"/>
      </g>
     </g>
    </g>
   </g>
   <g id="line2d_23">
    <path d="M 296.785367 157.734376 
L 298.674878 157.7333 
L 300.564388 157.731983 
L 302.453899 157.73037 
L 304.34341 157.728397 
L 306.23292 157.725982 
L 308.122431 157.723027 
L 310.011942 157.719411 
L 311.901452 157.714985 
L 313.790963 157.709568 
L 315.680474 157.70294 
L 317.569984 157.694829 
L 319.459495 157.684905 
L 321.349006 157.67276 
L 323.238516 157.657901 
L 325.128027 157.639721 
L 327.017538 157.617479 
L 328.907048 157.590271 
L 330.796559 157.55699 
L 332.686069 157.516287 
L 334.57558 157.466515 
L 336.465091 157.405664 
L 338.354601 157.331285 
L 340.244112 157.240398 
L 342.133623 157.129376 
L 344.023133 156.993817 
L 345.912644 156.828384 
L 347.802155 156.626623 
L 349.691665 156.380745 
L 351.581176 156.081387 
L 353.470687 155.717335 
L 355.360197 155.275228 
L 357.249708 154.739238 
L 359.139219 154.090766 
L 361.028729 153.308153 
L 362.91824 152.366484 
L 364.807751 151.237514 
L 366.697261 149.889833 
L 368.586772 148.289355 
L 370.476283 146.400271 
L 372.365793 144.186599 
L 374.255304 141.614436 
L 376.144815 138.654963 
L 378.034325 135.288126 
L 379.923836 131.506749 
L 381.813347 127.320586 
L 383.702857 122.759634 
L 385.592368 117.875887 
L 387.481879 112.742777 
L 389.371389 107.451878 
L 391.2609 102.10695 
L 393.150411 96.816051 
L 395.039921 91.682941 
L 396.929432 86.799194 
L 398.818943 82.238242 
L 400.708453 78.052079 
L 402.597964 74.270702 
L 404.487475 70.903865 
L 406.376985 67.944392 
L 408.266496 65.372229 
L 410.156007 63.158557 
L 412.045517 61.269473 
L 413.935028 59.668995 
L 415.824538 58.321314 
L 417.714049 57.192344 
L 419.60356 56.250675 
L 421.49307 55.468062 
L 423.382581 54.81959 
L 425.272092 54.2836 
L 427.161602 53.841493 
L 429.051113 53.477441 
L 430.940624 53.178083 
L 432.830134 52.932206 
L 434.719645 52.730444 
L 436.609156 52.565011 
L 438.498666 52.429452 
L 440.388177 52.31843 
L 442.277688 52.227543 
L 444.167198 52.153164 
L 446.056709 52.092313 
L 447.94622 52.042541 
L 449.83573 52.001838 
L 451.725241 51.968557 
L 453.614752 51.941349 
L 455.504262 51.919107 
L 457.393773 51.900927 
L 459.283284 51.886068 
L 461.172794 51.873924 
L 463.062305 51.863999 
L 464.951816 51.855888 
L 466.841326 51.84926 
L 468.730837 51.843843 
L 470.620348 51.839418 
L 472.509858 51.835801 
L 474.399369 51.832846 
L 476.28888 51.830431 
L 478.17839 51.828458 
L 480.067901 51.826845 
L 481.957412 51.825528 
L 483.846922 51.824452 
" clip-path="url(#p83a32dda7e)" style="fill: none; stroke: #1f77b4; stroke-width: 1.5; stroke-linecap: square"/>
   </g>
   <g id="patch_9">
    <path d="M 287.432289 163.029873 
L 287.432289 46.528955 
" style="fill: none; stroke: #000000; stroke-width: 0.8; stroke-linejoin: miter; stroke-linecap: square"/>
   </g>
   <g id="patch_10">
    <path d="M 493.2 163.029873 
L 493.2 46.528955 
" style="fill: none; stroke: #000000; stroke-width: 0.8; stroke-linejoin: miter; stroke-linecap: square"/>
   </g>
   <g id="patch_11">
    <path d="M 287.432289 163.029873 
L 493.2 163.029873 
" style="fill: none; stroke: #000000; stroke-width: 0.8; stroke-linejoin: miter; stroke-linecap: square"/>
   </g>
   <g id="patch_12">
    <path d="M 287.432289 46.528955 
L 493.2 46.528955 
" style="fill: none; stroke: #000000; stroke-width: 0.8; stroke-linejoin: miter; stroke-linecap: square"/>
   </g>
   <g id="text_24">
    <!-- Tanh -->
    <g transform="translate(378.004829 40.528955)scale(0.12 -0.12)">
     <defs>
      <path id="CMSS17-54" d="M 2317 3968 
L 2848 3968 
C 2925 3968 3002 3968 3078 3968 
L 3878 3968 
L 3878 4376 
L 218 4376 
L 218 3968 
L 1018 3968 
C 1094 3968 1171 3968 1248 3968 
L 1779 3968 
L 1779 -32 
L 2317 -32 
L 2317 3968 
z
" transform="scale(0.015625)"/>
      <path id="CMSS17-68" d="M 2618 1891 
C 2618 2292 2522 2820 1798 2820 
C 1395 2820 1133 2623 947 2407 
L 947 4448 
L 474 4448 
L 474 32 
L 960 32 
L 960 1573 
C 960 1973 1114 2432 1549 2432 
C 2112 2432 2131 2056 2131 1839 
L 2131 32 
L 2618 32 
L 2618 1891 
z
" transform="scale(0.015625)"/>
     </defs>
     <use xlink:href="#CMSS17-54" transform="scale(0.996264)"/>
     <use xlink:href="#CMSS17-61" transform="translate(56.012199 0)scale(0.996264)"/>
     <use xlink:href="#CMSS17-6e" transform="translate(100.934119 0)scale(0.996264)"/>
     <use xlink:href="#CMSS17-68" transform="translate(149.139062 0)scale(0.996264)"/>
    </g>
   </g>
   <g id="legend_2">
    <g id="patch_13">
     <path d="M 294.432289 69.491595 
L 359.800293 69.491595 
Q 361.800293 69.491595 361.800293 67.491595 
L 361.800293 53.528955 
Q 361.800293 51.528955 359.800293 51.528955 
L 294.432289 51.528955 
Q 292.432289 51.528955 292.432289 53.528955 
L 292.432289 67.491595 
Q 292.432289 69.491595 294.432289 69.491595 
z
" style="fill: #ffffff; opacity: 0.8; stroke: #cccccc; stroke-linejoin: miter"/>
    </g>
    <g id="line2d_24">
     <path d="M 296.432289 59.500935 
L 306.432289 59.500935 
L 316.432289 59.500935 
" style="fill: none; stroke: #1f77b4; stroke-width: 1.5; stroke-linecap: square"/>
    </g>
    <g id="text_25">
     <!-- $\tanh(x)$ -->
     <g transform="translate(324.432289 63.000935)scale(0.1 -0.1)">
      <defs>
       <path id="CMR17-74" d="M 966 2560 
L 1862 2560 
L 1862 2725 
L 966 2725 
L 966 3904 
L 851 3904 
C 838 3245 614 2668 70 2668 
L 70 2560 
L 627 2560 
L 627 771 
C 627 650 627 -64 1370 -64 
C 1747 -64 1965 306 1965 777 
L 1965 1140 
L 1850 1140 
L 1850 783 
C 1850 344 1677 51 1408 51 
C 1222 51 966 178 966 758 
L 966 2560 
z
" transform="scale(0.015625)"/>
       <path id="CMR17-61" d="M 2304 1653 
C 2304 2072 2304 2294 2035 2543 
C 1798 2752 1523 2816 1306 2816 
C 800 2816 435 2407 435 1971 
C 435 1728 627 1728 666 1728 
C 749 1728 896 1778 896 1954 
C 896 2112 774 2181 666 2181 
C 640 2181 608 2174 589 2168 
C 723 2592 1069 2714 1293 2714 
C 1613 2714 1965 2429 1965 1885 
L 1965 1600 
C 1587 1600 1133 1549 774 1357 
C 371 1133 256 813 256 570 
C 256 77 832 -64 1171 -64 
C 1523 -64 1850 139 1990 511 
C 2003 233 2182 -18 2464 -18 
C 2598 -18 2938 70 2938 567 
L 2938 920 
L 2822 920 
L 2822 562 
C 2822 178 2650 128 2566 128 
C 2304 128 2304 458 2304 738 
L 2304 1653 
z
M 1965 870 
C 1965 317 1568 38 1216 38 
C 896 38 646 275 646 570 
C 646 761 730 1100 1101 1305 
C 1408 1478 1760 1504 1965 1504 
L 1965 870 
z
" transform="scale(0.015625)"/>
       <path id="CMR17-6e" d="M 2656 1933 
C 2656 2259 2592 2790 1837 2790 
C 1331 2790 1069 2400 973 2144 
L 966 2144 
L 966 2790 
L 211 2720 
L 211 2554 
C 589 2554 646 2515 646 2208 
L 646 428 
C 646 184 621 153 211 153 
L 211 -13 
C 365 0 646 0 813 0 
C 979 0 1267 0 1421 -13 
L 1421 153 
C 1011 153 986 178 986 428 
L 986 1658 
C 986 2247 1344 2688 1792 2688 
C 2266 2688 2317 2266 2317 1958 
L 2317 428 
C 2317 184 2291 153 1882 153 
L 1882 -13 
C 2035 0 2317 0 2483 0 
C 2650 0 2938 0 3091 -13 
L 3091 153 
C 2682 153 2656 178 2656 428 
L 2656 1933 
z
" transform="scale(0.015625)"/>
       <path id="CMR17-68" d="M 2656 1933 
C 2656 2259 2592 2790 1837 2790 
C 1312 2790 1056 2368 979 2157 
L 973 2157 
L 973 4396 
L 211 4326 
L 211 4160 
C 589 4160 646 4122 646 3817 
L 646 426 
C 646 184 621 153 211 153 
L 211 -13 
C 365 0 646 0 813 0 
C 979 0 1267 0 1421 -13 
L 1421 153 
C 1011 153 986 178 986 428 
L 986 1658 
C 986 2247 1344 2688 1792 2688 
C 2266 2688 2317 2266 2317 1958 
L 2317 428 
C 2317 184 2291 153 1882 153 
L 1882 -13 
C 2035 0 2317 0 2483 0 
C 2650 0 2938 0 3091 -13 
L 3091 153 
C 2682 153 2656 178 2656 428 
L 2656 1933 
z
" transform="scale(0.015625)"/>
      </defs>
      <use xlink:href="#CMR17-74" transform="scale(0.996264)"/>
      <use xlink:href="#CMR17-61" transform="translate(35.280768 0)scale(0.996264)"/>
      <use xlink:href="#CMR17-6e" transform="translate(80.971245 0)scale(0.996264)"/>
      <use xlink:href="#CMR17-68" transform="translate(131.866615 0)scale(0.996264)"/>
      <use xlink:href="#CMR17-28" transform="translate(182.761984 0)scale(0.996264)"/>
      <use xlink:href="#CMMI12-78" transform="translate(218.042752 0)scale(0.996264)"/>
      <use xlink:href="#CMR17-29" transform="translate(273.476812 0)scale(0.996264)"/>
     </g>
    </g>
   </g>
  </g>
  <g id="axes_3">
   <g id="patch_14">
    <path d="M 43.385756 320.488647 
L 249.153466 320.488647 
L 249.153466 203.987729 
L 43.385756 203.987729 
z
" style="fill: #ffffff"/>
   </g>
   <g id="matplotlib.axis_5">
    <g id="xtick_11">
     <g id="line2d_25">
      <g>
       <use xlink:href="#macde24e228" x="71.444989" y="320.488647" style="stroke: #000000; stroke-width: 0.8"/>
      </g>
     </g>
     <g id="text_26">
      <!-- $\mathdefault{−4}$ -->
      <g transform="translate(65.079949 334.407145)scale(0.1 -0.1)">
       <use xlink:href="#CMSY10-0" transform="scale(0.996264)"/>
       <use xlink:href="#CMR17-34" transform="translate(77.487468 0)scale(0.996264)"/>
      </g>
     </g>
    </g>
    <g id="xtick_12">
     <g id="line2d_26">
      <g>
       <use xlink:href="#macde24e228" x="108.8573" y="320.488647" style="stroke: #000000; stroke-width: 0.8"/>
      </g>
     </g>
     <g id="text_27">
      <!-- $\mathdefault{−2}$ -->
      <g transform="translate(102.492261 334.407145)scale(0.1 -0.1)">
       <use xlink:href="#CMSY10-0" transform="scale(0.996264)"/>
       <use xlink:href="#CMR17-32" transform="translate(77.487468 0)scale(0.996264)"/>
      </g>
     </g>
    </g>
    <g id="xtick_13">
     <g id="line2d_27">
      <g>
       <use xlink:href="#macde24e228" x="146.269611" y="320.488647" style="stroke: #000000; stroke-width: 0.8"/>
      </g>
     </g>
     <g id="text_28">
      <!-- $\mathdefault{0}$ -->
      <g transform="translate(143.778943 334.407145)scale(0.1 -0.1)">
       <use xlink:href="#CMR17-30" transform="scale(0.996264)"/>
      </g>
     </g>
    </g>
    <g id="xtick_14">
     <g id="line2d_28">
      <g>
       <use xlink:href="#macde24e228" x="183.681922" y="320.488647" style="stroke: #000000; stroke-width: 0.8"/>
      </g>
     </g>
     <g id="text_29">
      <!-- $\mathdefault{2}$ -->
      <g transform="translate(181.191255 334.407145)scale(0.1 -0.1)">
       <use xlink:href="#CMR17-32" transform="scale(0.996264)"/>
      </g>
     </g>
    </g>
    <g id="xtick_15">
     <g id="line2d_29">
      <g>
       <use xlink:href="#macde24e228" x="221.094233" y="320.488647" style="stroke: #000000; stroke-width: 0.8"/>
      </g>
     </g>
     <g id="text_30">
      <!-- $\mathdefault{4}$ -->
      <g transform="translate(218.603566 334.407145)scale(0.1 -0.1)">
       <use xlink:href="#CMR17-34" transform="scale(0.996264)"/>
      </g>
     </g>
    </g>
    <g id="text_31">
     <!-- activation function input -->
     <g transform="translate(94.961954 347.262822)scale(0.1 -0.1)">
      <use xlink:href="#CMSS17-61" transform="scale(0.996264)"/>
      <use xlink:href="#CMSS17-63" transform="translate(44.921921 0)scale(0.996264)"/>
      <use xlink:href="#CMSS17-74" transform="translate(86.560743 0)scale(0.996264)"/>
      <use xlink:href="#CMSS17-69" transform="translate(120.392309 0)scale(0.996264)"/>
      <use xlink:href="#CMSS17-76" transform="translate(142.573032 0)scale(0.996264)"/>
      <use xlink:href="#CMSS17-61" transform="translate(185.573174 0)scale(0.996264)"/>
      <use xlink:href="#CMSS17-74" transform="translate(230.495095 0)scale(0.996264)"/>
      <use xlink:href="#CMSS17-69" transform="translate(264.326661 0)scale(0.996264)"/>
      <use xlink:href="#CMSS17-6f" transform="translate(286.507384 0)scale(0.996264)"/>
      <use xlink:href="#CMSS17-6e" transform="translate(333.351008 0)scale(0.996264)"/>
      <use xlink:href="#CMSS17-66" transform="translate(412.785064 0)scale(0.996264)"/>
      <use xlink:href="#CMSS17-75" transform="translate(441.411723 0)scale(0.996264)"/>
      <use xlink:href="#CMSS17-6e" transform="translate(489.616666 0)scale(0.996264)"/>
      <use xlink:href="#CMSS17-63" transform="translate(537.821609 0)scale(0.996264)"/>
      <use xlink:href="#CMSS17-74" transform="translate(579.460431 0)scale(0.996264)"/>
      <use xlink:href="#CMSS17-69" transform="translate(613.291998 0)scale(0.996264)"/>
      <use xlink:href="#CMSS17-6f" transform="translate(635.472721 0)scale(0.996264)"/>
      <use xlink:href="#CMSS17-6e" transform="translate(682.316344 0)scale(0.996264)"/>
      <use xlink:href="#CMSS17-69" transform="translate(761.7504 0)scale(0.996264)"/>
      <use xlink:href="#CMSS17-6e" transform="translate(783.931123 0)scale(0.996264)"/>
      <use xlink:href="#CMSS17-70" transform="translate(832.136066 0)scale(0.996264)"/>
      <use xlink:href="#CMSS17-75" transform="translate(880.341009 0)scale(0.996264)"/>
      <use xlink:href="#CMSS17-74" transform="translate(928.545953 0)scale(0.996264)"/>
     </g>
    </g>
   </g>
   <g id="matplotlib.axis_6">
    <g id="ytick_11">
     <g id="line2d_30">
      <g>
       <use xlink:href="#m1c0dc12ab0" x="43.385756" y="315.19315" style="stroke: #000000; stroke-width: 0.8"/>
      </g>
     </g>
     <g id="text_32">
      <!-- $\mathdefault{0}$ -->
      <g transform="translate(31.40442 318.6524)scale(0.1 -0.1)">
       <use xlink:href="#CMR17-30" transform="scale(0.996264)"/>
      </g>
     </g>
    </g>
    <g id="ytick_12">
     <g id="line2d_31">
      <g>
       <use xlink:href="#m1c0dc12ab0" x="43.385756" y="272.82918" style="stroke: #000000; stroke-width: 0.8"/>
      </g>
     </g>
     <g id="text_33">
      <!-- $\mathdefault{2}$ -->
      <g transform="translate(31.40442 276.28843)scale(0.1 -0.1)">
       <use xlink:href="#CMR17-32" transform="scale(0.996264)"/>
      </g>
     </g>
    </g>
    <g id="ytick_13">
     <g id="line2d_32">
      <g>
       <use xlink:href="#m1c0dc12ab0" x="43.385756" y="230.46521" style="stroke: #000000; stroke-width: 0.8"/>
      </g>
     </g>
     <g id="text_34">
      <!-- $\mathdefault{4}$ -->
      <g transform="translate(31.40442 233.92446)scale(0.1 -0.1)">
       <use xlink:href="#CMR17-34" transform="scale(0.996264)"/>
      </g>
     </g>
    </g>
    <g id="text_35">
     <!-- activation function output -->
     <g transform="translate(25.467242 316.645344)rotate(-90)scale(0.1 -0.1)">
      <use xlink:href="#CMSS17-61" transform="scale(0.996264)"/>
      <use xlink:href="#CMSS17-63" transform="translate(44.921921 0)scale(0.996264)"/>
      <use xlink:href="#CMSS17-74" transform="translate(86.560743 0)scale(0.996264)"/>
      <use xlink:href="#CMSS17-69" transform="translate(120.392309 0)scale(0.996264)"/>
      <use xlink:href="#CMSS17-76" transform="translate(142.573032 0)scale(0.996264)"/>
      <use xlink:href="#CMSS17-61" transform="translate(185.573174 0)scale(0.996264)"/>
      <use xlink:href="#CMSS17-74" transform="translate(230.495095 0)scale(0.996264)"/>
      <use xlink:href="#CMSS17-69" transform="translate(264.326661 0)scale(0.996264)"/>
      <use xlink:href="#CMSS17-6f" transform="translate(286.507384 0)scale(0.996264)"/>
      <use xlink:href="#CMSS17-6e" transform="translate(333.351008 0)scale(0.996264)"/>
      <use xlink:href="#CMSS17-66" transform="translate(412.785064 0)scale(0.996264)"/>
      <use xlink:href="#CMSS17-75" transform="translate(441.411723 0)scale(0.996264)"/>
      <use xlink:href="#CMSS17-6e" transform="translate(489.616666 0)scale(0.996264)"/>
      <use xlink:href="#CMSS17-63" transform="translate(537.821609 0)scale(0.996264)"/>
      <use xlink:href="#CMSS17-74" transform="translate(579.460431 0)scale(0.996264)"/>
      <use xlink:href="#CMSS17-69" transform="translate(613.291998 0)scale(0.996264)"/>
      <use xlink:href="#CMSS17-6f" transform="translate(635.472721 0)scale(0.996264)"/>
      <use xlink:href="#CMSS17-6e" transform="translate(682.316344 0)scale(0.996264)"/>
      <use xlink:href="#CMSS17-6f" transform="translate(761.7504 0)scale(0.996264)"/>
      <use xlink:href="#CMSS17-75" transform="translate(808.594024 0)scale(0.996264)"/>
      <use xlink:href="#CMSS17-74" transform="translate(856.798967 0)scale(0.996264)"/>
      <use xlink:href="#CMSS17-70" transform="translate(890.630533 0)scale(0.996264)"/>
      <use xlink:href="#CMSS17-75" transform="translate(938.835477 0)scale(0.996264)"/>
      <use xlink:href="#CMSS17-74" transform="translate(987.04042 0)scale(0.996264)"/>
     </g>
    </g>
   </g>
   <g id="line2d_33">
    <path d="M 52.738833 315.19315 
L 54.628344 315.19315 
L 56.517855 315.19315 
L 58.407365 315.19315 
L 60.296876 315.19315 
L 62.186387 315.19315 
L 64.075897 315.19315 
L 65.965408 315.19315 
L 67.854919 315.19315 
L 69.744429 315.19315 
L 71.63394 315.19315 
L 73.523451 315.19315 
L 75.412961 315.19315 
L 77.302472 315.19315 
L 79.191983 315.19315 
L 81.081493 315.19315 
L 82.971004 315.19315 
L 84.860515 315.19315 
L 86.750025 315.19315 
L 88.639536 315.19315 
L 90.529047 315.19315 
L 92.418557 315.19315 
L 94.308068 315.19315 
L 96.197579 315.19315 
L 98.087089 315.19315 
L 99.9766 315.19315 
L 101.866111 315.19315 
L 103.755621 315.19315 
L 105.645132 315.19315 
L 107.534643 315.19315 
L 109.424153 315.19315 
L 111.313664 315.19315 
L 113.203175 315.19315 
L 115.092685 315.19315 
L 116.982196 315.19315 
L 118.871707 315.19315 
L 120.761217 315.19315 
L 122.650728 315.19315 
L 124.540239 315.19315 
L 126.429749 315.19315 
L 128.31926 315.19315 
L 130.20877 315.19315 
L 132.098281 315.19315 
L 133.987792 315.19315 
L 135.877302 315.19315 
L 137.766813 315.19315 
L 139.656324 315.19315 
L 141.545834 315.19315 
L 143.435345 315.19315 
L 145.324856 315.19315 
L 147.214366 314.123353 
L 149.103877 311.983759 
L 150.993388 309.844164 
L 152.882898 307.70457 
L 154.772409 305.564975 
L 156.66192 303.425381 
L 158.55143 301.285786 
L 160.440941 299.146192 
L 162.330452 297.006598 
L 164.219962 294.867003 
L 166.109473 292.727409 
L 167.998984 290.587814 
L 169.888494 288.44822 
L 171.778005 286.308625 
L 173.667516 284.169031 
L 175.557026 282.029436 
L 177.446537 279.889842 
L 179.336048 277.750248 
L 181.225558 275.610653 
L 183.115069 273.471059 
L 185.00458 271.331464 
L 186.89409 269.19187 
L 188.783601 267.052275 
L 190.673112 264.912681 
L 192.562622 262.773087 
L 194.452133 260.633492 
L 196.341644 258.493898 
L 198.231154 256.354303 
L 200.120665 254.214709 
L 202.010176 252.075114 
L 203.899686 249.93552 
L 205.789197 247.795925 
L 207.678708 245.656331 
L 209.568218 243.516737 
L 211.457729 241.377142 
L 213.347239 239.237548 
L 215.23675 237.097953 
L 217.126261 234.958359 
L 219.015771 232.818764 
L 220.905282 230.67917 
L 222.794793 228.539575 
L 224.684303 226.399981 
L 226.573814 224.260387 
L 228.463325 222.120792 
L 230.352835 219.981198 
L 232.242346 217.841603 
L 234.131857 215.702009 
L 236.021367 213.562414 
L 237.910878 211.42282 
L 239.800389 209.283225 
" clip-path="url(#pc217c6aa26)" style="fill: none; stroke: #1f77b4; stroke-width: 1.5; stroke-linecap: square"/>
   </g>
   <g id="patch_15">
    <path d="M 43.385756 320.488647 
L 43.385756 203.987729 
" style="fill: none; stroke: #000000; stroke-width: 0.8; stroke-linejoin: miter; stroke-linecap: square"/>
   </g>
   <g id="patch_16">
    <path d="M 249.153466 320.488647 
L 249.153466 203.987729 
" style="fill: none; stroke: #000000; stroke-width: 0.8; stroke-linejoin: miter; stroke-linecap: square"/>
   </g>
   <g id="patch_17">
    <path d="M 43.385756 320.488647 
L 249.153466 320.488647 
" style="fill: none; stroke: #000000; stroke-width: 0.8; stroke-linejoin: miter; stroke-linecap: square"/>
   </g>
   <g id="patch_18">
    <path d="M 43.385756 203.987729 
L 249.153466 203.987729 
" style="fill: none; stroke: #000000; stroke-width: 0.8; stroke-linejoin: miter; stroke-linecap: square"/>
   </g>
   <g id="text_36">
    <!-- ReLU -->
    <g transform="translate(132.754497 197.987729)scale(0.12 -0.12)">
     <defs>
      <path id="CMSS17-52" d="M 2522 2109 
L 2534 2115 
C 3533 2459 3539 3147 3539 3268 
C 3539 3873 2925 4453 2003 4453 
L 570 4453 
L 570 32 
L 1094 32 
L 1094 2048 
L 2035 2048 
L 3168 32 
L 3706 32 
L 2522 2109 
z
M 1094 2437 
L 1094 4096 
L 1933 4096 
C 2746 4096 3034 3637 3034 3267 
C 3034 2922 2778 2437 1933 2437 
L 1094 2437 
z
" transform="scale(0.015625)"/>
      <path id="CMSS17-65" d="M 2502 1377 
C 2502 1590 2490 2003 2285 2345 
C 2061 2713 1696 2816 1421 2816 
C 755 2816 192 2188 192 1375 
C 192 582 774 -64 1510 -64 
C 1798 -64 2150 19 2470 248 
C 2470 274 2458 414 2451 420 
C 2451 433 2432 630 2432 656 
C 2125 407 1773 325 1517 325 
C 1107 325 666 667 646 1377 
L 2502 1377 
z
M 698 1728 
C 781 2084 1062 2421 1421 2421 
C 1517 2421 1965 2421 2080 1728 
L 698 1728 
z
" transform="scale(0.015625)"/>
      <path id="CMSS17-4c" d="M 1670 414 
C 1594 414 1517 414 1440 414 
L 1101 414 
L 1101 4416 
L 563 4416 
L 563 0 
L 3002 0 
L 3002 414 
L 1670 414 
z
" transform="scale(0.015625)"/>
      <path id="CMSS17-55" d="M 3552 4384 
L 3066 4384 
L 3066 1449 
C 3066 604 2547 229 2074 229 
C 1587 229 1101 623 1101 1443 
L 1101 4384 
L 563 4384 
L 563 1454 
C 563 539 1274 -128 2067 -128 
C 2861 -128 3552 539 3552 1454 
L 3552 4384 
z
" transform="scale(0.015625)"/>
     </defs>
     <use xlink:href="#CMSS17-52" transform="scale(0.996264)"/>
     <use xlink:href="#CMSS17-65" transform="translate(60.416155 0)scale(0.996264)"/>
     <use xlink:href="#CMSS17-4c" transform="translate(102.054977 0)scale(0.996264)"/>
     <use xlink:href="#CMSS17-55" transform="translate(152.742082 0)scale(0.996264)"/>
    </g>
   </g>
   <g id="legend_3">
    <g id="patch_19">
     <path d="M 50.385756 226.950369 
L 173.613157 226.950369 
Q 175.613157 226.950369 175.613157 224.950369 
L 175.613157 210.987729 
Q 175.613157 208.987729 173.613157 208.987729 
L 50.385756 208.987729 
Q 48.385756 208.987729 48.385756 210.987729 
L 48.385756 224.950369 
Q 48.385756 226.950369 50.385756 226.950369 
z
" style="fill: #ffffff; opacity: 0.8; stroke: #cccccc; stroke-linejoin: miter"/>
    </g>
    <g id="line2d_34">
     <path d="M 52.385756 216.959709 
L 62.385756 216.959709 
L 72.385756 216.959709 
" style="fill: none; stroke: #1f77b4; stroke-width: 1.5; stroke-linecap: square"/>
    </g>
    <g id="text_37">
     <!-- ReLU$(x) = \max(0, x)$ -->
     <g transform="translate(80.385756 220.459709)scale(0.1 -0.1)">
      <defs>
       <path id="CMR17-6d" d="M 4326 1933 
C 4326 2252 4269 2790 3507 2790 
C 3072 2790 2771 2496 2656 2151 
L 2650 2151 
C 2573 2676 2195 2790 1837 2790 
C 1331 2790 1069 2400 973 2144 
L 966 2144 
L 966 2790 
L 211 2720 
L 211 2554 
C 589 2554 646 2515 646 2208 
L 646 428 
C 646 184 621 153 211 153 
L 211 -13 
C 365 0 646 0 813 0 
C 979 0 1267 0 1421 -13 
L 1421 153 
C 1011 153 986 178 986 428 
L 986 1658 
C 986 2247 1344 2688 1792 2688 
C 2266 2688 2317 2266 2317 1958 
L 2317 428 
C 2317 184 2291 153 1882 153 
L 1882 -13 
C 2035 0 2317 0 2483 0 
C 2650 0 2938 0 3091 -13 
L 3091 153 
C 2682 153 2656 178 2656 428 
L 2656 1658 
C 2656 2247 3014 2688 3462 2688 
C 3936 2688 3987 2266 3987 1958 
L 3987 428 
C 3987 184 3962 153 3552 153 
L 3552 -13 
C 3706 0 3987 0 4154 0 
C 4320 0 4608 0 4762 -13 
L 4762 153 
C 4352 153 4326 178 4326 428 
L 4326 1933 
z
" transform="scale(0.015625)"/>
       <path id="CMR17-78" d="M 1664 1477 
C 1856 1726 2074 2006 2253 2216 
C 2464 2458 2707 2560 2989 2560 
L 2989 2726 
C 2880 2726 2656 2726 2541 2726 
C 2368 2726 2170 2726 2022 2732 
L 2022 2566 
C 2112 2553 2163 2489 2163 2400 
C 2163 2285 2099 2215 2067 2171 
L 1594 1573 
L 1030 2306 
C 973 2376 973 2388 973 2420 
C 973 2497 1037 2560 1146 2560 
L 1146 2732 
C 992 2726 717 2726 557 2726 
C 384 2726 179 2726 38 2732 
L 38 2560 
C 384 2560 461 2534 614 2343 
L 1350 1395 
C 1363 1382 1395 1344 1395 1325 
C 1395 1299 838 619 768 530 
C 480 185 179 160 6 160 
L 6 0 
C 115 0 339 0 454 0 
C 582 0 864 0 979 -6 
L 979 160 
C 941 166 838 179 838 325 
C 838 440 890 510 947 586 
L 1478 1236 
L 2035 512 
C 2086 442 2163 346 2163 301 
C 2163 211 2086 160 1984 160 
L 1984 -6 
C 2138 0 2413 0 2573 0 
C 2746 0 2950 0 3091 -6 
L 3091 160 
C 2771 160 2675 172 2522 370 
L 1664 1477 
z
" transform="scale(0.015625)"/>
       <path id="CMMI12-3b" d="M 1248 -31 
C 1248 343 1126 619 864 619 
C 659 619 557 453 557 313 
C 557 172 653 0 870 0 
C 954 0 1024 26 1082 83 
C 1094 96 1101 96 1107 96 
C 1120 96 1120 5 1120 -27 
C 1120 -240 1082 -659 710 -1080 
C 640 -1157 640 -1170 640 -1183 
C 640 -1216 672 -1248 704 -1248 
C 755 -1248 1248 -771 1248 -31 
z
" transform="scale(0.015625)"/>
      </defs>
      <use xlink:href="#CMSS17-52" transform="scale(0.996264)"/>
      <use xlink:href="#CMSS17-65" transform="translate(60.416155 0)scale(0.996264)"/>
      <use xlink:href="#CMSS17-4c" transform="translate(102.054977 0)scale(0.996264)"/>
      <use xlink:href="#CMSS17-55" transform="translate(152.742082 0)scale(0.996264)"/>
      <use xlink:href="#CMR17-28" transform="translate(216.881823 0)scale(0.996264)"/>
      <use xlink:href="#CMMI12-78" transform="translate(252.16259 0)scale(0.996264)"/>
      <use xlink:href="#CMR17-29" transform="translate(307.59665 0)scale(0.996264)"/>
      <use xlink:href="#CMR17-3d" transform="translate(370.551426 0)scale(0.996264)"/>
      <use xlink:href="#CMR17-6d" transform="translate(469.940224 0)scale(0.996264)"/>
      <use xlink:href="#CMR17-61" transform="translate(546.859813 0)scale(0.996264)"/>
      <use xlink:href="#CMR17-78" transform="translate(592.550291 0)scale(0.996264)"/>
      <use xlink:href="#CMR17-28" transform="translate(640.843206 0)scale(0.996264)"/>
      <use xlink:href="#CMR17-30" transform="translate(676.123974 0)scale(0.996264)"/>
      <use xlink:href="#CMMI12-3b" transform="translate(721.814451 0)scale(0.996264)"/>
      <use xlink:href="#CMMI12-78" transform="translate(765.516034 0)scale(0.996264)"/>
      <use xlink:href="#CMR17-29" transform="translate(820.950093 0)scale(0.996264)"/>
     </g>
    </g>
   </g>
  </g>
  <g id="axes_4">
   <g id="patch_20">
    <path d="M 287.432289 320.488647 
L 493.2 320.488647 
L 493.2 203.987729 
L 287.432289 203.987729 
z
" style="fill: #ffffff"/>
   </g>
   <g id="matplotlib.axis_7">
    <g id="xtick_16">
     <g id="line2d_35">
      <g>
       <use xlink:href="#macde24e228" x="315.491522" y="320.488647" style="stroke: #000000; stroke-width: 0.8"/>
      </g>
     </g>
     <g id="text_38">
      <!-- $\mathdefault{−4}$ -->
      <g transform="translate(309.126483 334.407145)scale(0.1 -0.1)">
       <use xlink:href="#CMSY10-0" transform="scale(0.996264)"/>
       <use xlink:href="#CMR17-34" transform="translate(77.487468 0)scale(0.996264)"/>
      </g>
     </g>
    </g>
    <g id="xtick_17">
     <g id="line2d_36">
      <g>
       <use xlink:href="#macde24e228" x="352.903834" y="320.488647" style="stroke: #000000; stroke-width: 0.8"/>
      </g>
     </g>
     <g id="text_39">
      <!-- $\mathdefault{−2}$ -->
      <g transform="translate(346.538794 334.407145)scale(0.1 -0.1)">
       <use xlink:href="#CMSY10-0" transform="scale(0.996264)"/>
       <use xlink:href="#CMR17-32" transform="translate(77.487468 0)scale(0.996264)"/>
      </g>
     </g>
    </g>
    <g id="xtick_18">
     <g id="line2d_37">
      <g>
       <use xlink:href="#macde24e228" x="390.316145" y="320.488647" style="stroke: #000000; stroke-width: 0.8"/>
      </g>
     </g>
     <g id="text_40">
      <!-- $\mathdefault{0}$ -->
      <g transform="translate(387.825477 334.407145)scale(0.1 -0.1)">
       <use xlink:href="#CMR17-30" transform="scale(0.996264)"/>
      </g>
     </g>
    </g>
    <g id="xtick_19">
     <g id="line2d_38">
      <g>
       <use xlink:href="#macde24e228" x="427.728456" y="320.488647" style="stroke: #000000; stroke-width: 0.8"/>
      </g>
     </g>
     <g id="text_41">
      <!-- $\mathdefault{2}$ -->
      <g transform="translate(425.237788 334.407145)scale(0.1 -0.1)">
       <use xlink:href="#CMR17-32" transform="scale(0.996264)"/>
      </g>
     </g>
    </g>
    <g id="xtick_20">
     <g id="line2d_39">
      <g>
       <use xlink:href="#macde24e228" x="465.140767" y="320.488647" style="stroke: #000000; stroke-width: 0.8"/>
      </g>
     </g>
     <g id="text_42">
      <!-- $\mathdefault{4}$ -->
      <g transform="translate(462.650099 334.407145)scale(0.1 -0.1)">
       <use xlink:href="#CMR17-34" transform="scale(0.996264)"/>
      </g>
     </g>
    </g>
    <g id="text_43">
     <!-- activation function input -->
     <g transform="translate(339.008487 347.262822)scale(0.1 -0.1)">
      <use xlink:href="#CMSS17-61" transform="scale(0.996264)"/>
      <use xlink:href="#CMSS17-63" transform="translate(44.921921 0)scale(0.996264)"/>
      <use xlink:href="#CMSS17-74" transform="translate(86.560743 0)scale(0.996264)"/>
      <use xlink:href="#CMSS17-69" transform="translate(120.392309 0)scale(0.996264)"/>
      <use xlink:href="#CMSS17-76" transform="translate(142.573032 0)scale(0.996264)"/>
      <use xlink:href="#CMSS17-61" transform="translate(185.573174 0)scale(0.996264)"/>
      <use xlink:href="#CMSS17-74" transform="translate(230.495095 0)scale(0.996264)"/>
      <use xlink:href="#CMSS17-69" transform="translate(264.326661 0)scale(0.996264)"/>
      <use xlink:href="#CMSS17-6f" transform="translate(286.507384 0)scale(0.996264)"/>
      <use xlink:href="#CMSS17-6e" transform="translate(333.351008 0)scale(0.996264)"/>
      <use xlink:href="#CMSS17-66" transform="translate(412.785064 0)scale(0.996264)"/>
      <use xlink:href="#CMSS17-75" transform="translate(441.411723 0)scale(0.996264)"/>
      <use xlink:href="#CMSS17-6e" transform="translate(489.616666 0)scale(0.996264)"/>
      <use xlink:href="#CMSS17-63" transform="translate(537.821609 0)scale(0.996264)"/>
      <use xlink:href="#CMSS17-74" transform="translate(579.460431 0)scale(0.996264)"/>
      <use xlink:href="#CMSS17-69" transform="translate(613.291998 0)scale(0.996264)"/>
      <use xlink:href="#CMSS17-6f" transform="translate(635.472721 0)scale(0.996264)"/>
      <use xlink:href="#CMSS17-6e" transform="translate(682.316344 0)scale(0.996264)"/>
      <use xlink:href="#CMSS17-69" transform="translate(761.7504 0)scale(0.996264)"/>
      <use xlink:href="#CMSS17-6e" transform="translate(783.931123 0)scale(0.996264)"/>
      <use xlink:href="#CMSS17-70" transform="translate(832.136066 0)scale(0.996264)"/>
      <use xlink:href="#CMSS17-75" transform="translate(880.341009 0)scale(0.996264)"/>
      <use xlink:href="#CMSS17-74" transform="translate(928.545953 0)scale(0.996264)"/>
     </g>
    </g>
   </g>
   <g id="matplotlib.axis_8">
    <g id="ytick_14">
     <g id="line2d_40">
      <g>
       <use xlink:href="#m1c0dc12ab0" x="287.432289" y="305.564975" style="stroke: #000000; stroke-width: 0.8"/>
      </g>
     </g>
     <g id="text_44">
      <!-- $\mathdefault{0}$ -->
      <g transform="translate(275.450954 309.024225)scale(0.1 -0.1)">
       <use xlink:href="#CMR17-30" transform="scale(0.996264)"/>
      </g>
     </g>
    </g>
    <g id="ytick_15">
     <g id="line2d_41">
      <g>
       <use xlink:href="#m1c0dc12ab0" x="287.432289" y="267.052275" style="stroke: #000000; stroke-width: 0.8"/>
      </g>
     </g>
     <g id="text_45">
      <!-- $\mathdefault{2}$ -->
      <g transform="translate(275.450954 270.511525)scale(0.1 -0.1)">
       <use xlink:href="#CMR17-32" transform="scale(0.996264)"/>
      </g>
     </g>
    </g>
    <g id="ytick_16">
     <g id="line2d_42">
      <g>
       <use xlink:href="#m1c0dc12ab0" x="287.432289" y="228.539575" style="stroke: #000000; stroke-width: 0.8"/>
      </g>
     </g>
     <g id="text_46">
      <!-- $\mathdefault{4}$ -->
      <g transform="translate(275.450954 231.998825)scale(0.1 -0.1)">
       <use xlink:href="#CMR17-34" transform="scale(0.996264)"/>
      </g>
     </g>
    </g>
   </g>
   <g id="line2d_43">
    <path d="M 296.785367 315.19315 
L 298.674878 314.998642 
L 300.564388 314.804133 
L 302.453899 314.609625 
L 304.34341 314.415116 
L 306.23292 314.220607 
L 308.122431 314.026099 
L 310.011942 313.83159 
L 311.901452 313.637082 
L 313.790963 313.442573 
L 315.680474 313.248064 
L 317.569984 313.053556 
L 319.459495 312.859047 
L 321.349006 312.664539 
L 323.238516 312.47003 
L 325.128027 312.275522 
L 327.017538 312.081013 
L 328.907048 311.886504 
L 330.796559 311.691996 
L 332.686069 311.497487 
L 334.57558 311.302979 
L 336.465091 311.10847 
L 338.354601 310.913961 
L 340.244112 310.719453 
L 342.133623 310.524944 
L 344.023133 310.330436 
L 345.912644 310.135927 
L 347.802155 309.941419 
L 349.691665 309.74691 
L 351.581176 309.552401 
L 353.470687 309.357893 
L 355.360197 309.163384 
L 357.249708 308.968876 
L 359.139219 308.774367 
L 361.028729 308.579858 
L 362.91824 308.38535 
L 364.807751 308.190841 
L 366.697261 307.996333 
L 368.586772 307.801824 
L 370.476283 307.607315 
L 372.365793 307.412807 
L 374.255304 307.218298 
L 376.144815 307.02379 
L 378.034325 306.829281 
L 379.923836 306.634773 
L 381.813347 306.440264 
L 383.702857 306.245755 
L 385.592368 306.051247 
L 387.481879 305.856738 
L 389.371389 305.66223 
L 391.2609 304.592432 
L 393.150411 302.647347 
L 395.039921 300.702261 
L 396.929432 298.757175 
L 398.818943 296.812089 
L 400.708453 294.867003 
L 402.597964 292.921917 
L 404.487475 290.976831 
L 406.376985 289.031746 
L 408.266496 287.08666 
L 410.156007 285.141574 
L 412.045517 283.196488 
L 413.935028 281.251402 
L 415.824538 279.306316 
L 417.714049 277.36123 
L 419.60356 275.416145 
L 421.49307 273.471059 
L 423.382581 271.525973 
L 425.272092 269.580887 
L 427.161602 267.635801 
L 429.051113 265.690715 
L 430.940624 263.745629 
L 432.830134 261.800544 
L 434.719645 259.855458 
L 436.609156 257.910372 
L 438.498666 255.965286 
L 440.388177 254.0202 
L 442.277688 252.075114 
L 444.167198 250.130028 
L 446.056709 248.184943 
L 447.94622 246.239857 
L 449.83573 244.294771 
L 451.725241 242.349685 
L 453.614752 240.404599 
L 455.504262 238.459513 
L 457.393773 236.514427 
L 459.283284 234.569342 
L 461.172794 232.624256 
L 463.062305 230.67917 
L 464.951816 228.734084 
L 466.841326 226.788998 
L 468.730837 224.843912 
L 470.620348 222.898826 
L 472.509858 220.953741 
L 474.399369 219.008655 
L 476.28888 217.063569 
L 478.17839 215.118483 
L 480.067901 213.173397 
L 481.957412 211.228311 
L 483.846922 209.283225 
" clip-path="url(#p3283483d2a)" style="fill: none; stroke: #1f77b4; stroke-width: 1.5; stroke-linecap: square"/>
   </g>
   <g id="patch_21">
    <path d="M 287.432289 320.488647 
L 287.432289 203.987729 
" style="fill: none; stroke: #000000; stroke-width: 0.8; stroke-linejoin: miter; stroke-linecap: square"/>
   </g>
   <g id="patch_22">
    <path d="M 493.2 320.488647 
L 493.2 203.987729 
" style="fill: none; stroke: #000000; stroke-width: 0.8; stroke-linejoin: miter; stroke-linecap: square"/>
   </g>
   <g id="patch_23">
    <path d="M 287.432289 320.488647 
L 493.2 320.488647 
" style="fill: none; stroke: #000000; stroke-width: 0.8; stroke-linejoin: miter; stroke-linecap: square"/>
   </g>
   <g id="patch_24">
    <path d="M 287.432289 203.987729 
L 493.2 203.987729 
" style="fill: none; stroke: #000000; stroke-width: 0.8; stroke-linejoin: miter; stroke-linecap: square"/>
   </g>
   <g id="text_47">
    <!-- Leaky ReLU -->
    <g transform="translate(360.767612 197.987729)scale(0.12 -0.12)">
     <defs>
      <path id="CMSS17-6b" d="M 1696 1688 
L 2688 2739 
L 2074 2739 
L 954 1554 
L 954 4416 
L 480 4416 
L 480 0 
L 947 0 
L 947 892 
L 1376 1344 
L 2278 0 
L 2822 0 
L 1696 1688 
z
" transform="scale(0.015625)"/>
      <path id="CMSS17-79" d="M 2675 2752 
L 2176 2752 
C 1632 1294 1446 702 1434 383 
L 1427 383 
C 1408 696 1126 1460 902 2007 
L 602 2752 
L 83 2752 
L 1216 13 
C 1146 -178 1043 -465 1011 -529 
C 870 -885 774 -885 672 -885 
C 646 -885 442 -885 211 -809 
L 250 -1229 
C 410 -1261 570 -1280 685 -1280 
C 845 -1280 1165 -1280 1459 -497 
L 2675 2752 
z
" transform="scale(0.015625)"/>
     </defs>
     <use xlink:href="#CMSS17-4c" transform="scale(0.996264)"/>
     <use xlink:href="#CMSS17-65" transform="translate(50.687105 0)scale(0.996264)"/>
     <use xlink:href="#CMSS17-61" transform="translate(92.325927 0)scale(0.996264)"/>
     <use xlink:href="#CMSS17-6b" transform="translate(137.247848 0)scale(0.996264)"/>
     <use xlink:href="#CMSS17-79" transform="translate(182.850337 0)scale(0.996264)"/>
     <use xlink:href="#CMSS17-52" transform="translate(257.079592 0)scale(0.996264)"/>
     <use xlink:href="#CMSS17-65" transform="translate(317.495747 0)scale(0.996264)"/>
     <use xlink:href="#CMSS17-4c" transform="translate(359.134569 0)scale(0.996264)"/>
     <use xlink:href="#CMSS17-55" transform="translate(409.821674 0)scale(0.996264)"/>
    </g>
   </g>
   <g id="legend_4">
    <g id="patch_25">
     <path d="M 294.432289 226.950369 
L 458.499689 226.950369 
Q 460.499689 226.950369 460.499689 224.950369 
L 460.499689 210.987729 
Q 460.499689 208.987729 458.499689 208.987729 
L 294.432289 208.987729 
Q 292.432289 208.987729 292.432289 210.987729 
L 292.432289 224.950369 
Q 292.432289 226.950369 294.432289 226.950369 
z
" style="fill: #ffffff; opacity: 0.8; stroke: #cccccc; stroke-linejoin: miter"/>
    </g>
    <g id="line2d_44">
     <path d="M 296.432289 216.959709 
L 306.432289 216.959709 
L 316.432289 216.959709 
" style="fill: none; stroke: #1f77b4; stroke-width: 1.5; stroke-linecap: square"/>
    </g>
    <g id="text_48">
     <!-- Leaky ReLU$(x) = \max(0.1x, x)$ -->
     <g transform="translate(324.432289 220.459709)scale(0.1 -0.1)">
      <use xlink:href="#CMSS17-4c" transform="scale(0.996264)"/>
      <use xlink:href="#CMSS17-65" transform="translate(50.687105 0)scale(0.996264)"/>
      <use xlink:href="#CMSS17-61" transform="translate(92.325927 0)scale(0.996264)"/>
      <use xlink:href="#CMSS17-6b" transform="translate(137.247848 0)scale(0.996264)"/>
      <use xlink:href="#CMSS17-79" transform="translate(182.850337 0)scale(0.996264)"/>
      <use xlink:href="#CMSS17-52" transform="translate(257.079592 0)scale(0.996264)"/>
      <use xlink:href="#CMSS17-65" transform="translate(317.495747 0)scale(0.996264)"/>
      <use xlink:href="#CMSS17-4c" transform="translate(359.134569 0)scale(0.996264)"/>
      <use xlink:href="#CMSS17-55" transform="translate(409.821674 0)scale(0.996264)"/>
      <use xlink:href="#CMR17-28" transform="translate(473.961414 0)scale(0.996264)"/>
      <use xlink:href="#CMMI12-78" transform="translate(509.242182 0)scale(0.996264)"/>
      <use xlink:href="#CMR17-29" transform="translate(564.676242 0)scale(0.996264)"/>
      <use xlink:href="#CMR17-3d" transform="translate(627.631018 0)scale(0.996264)"/>
      <use xlink:href="#CMR17-6d" transform="translate(727.019815 0)scale(0.996264)"/>
      <use xlink:href="#CMR17-61" transform="translate(803.939405 0)scale(0.996264)"/>
      <use xlink:href="#CMR17-78" transform="translate(849.629882 0)scale(0.996264)"/>
      <use xlink:href="#CMR17-28" transform="translate(897.922798 0)scale(0.996264)"/>
      <use xlink:href="#CMR17-30" transform="translate(933.203566 0)scale(0.996264)"/>
      <use xlink:href="#CMMI12-3a" transform="translate(978.894043 0)scale(0.996264)"/>
      <use xlink:href="#CMR17-31" transform="translate(1005.99122 0)scale(0.996264)"/>
      <use xlink:href="#CMMI12-78" transform="translate(1051.681697 0)scale(0.996264)"/>
      <use xlink:href="#CMMI12-3b" transform="translate(1107.115757 0)scale(0.996264)"/>
      <use xlink:href="#CMMI12-78" transform="translate(1150.817339 0)scale(0.996264)"/>
      <use xlink:href="#CMR17-29" transform="translate(1206.251399 0)scale(0.996264)"/>
     </g>
    </g>
   </g>
  </g>
  <g id="text_49">
   <!-- Examples of activation functions for neurons in the hidden layers -->
   <g transform="translate(94.296786 15.50218)scale(0.12 -0.12)">
    <defs>
     <path id="CMSS17-45" d="M 1958 433 
C 1446 433 1216 433 1101 433 
L 1101 2107 
L 3085 2107 
L 3085 2496 
L 1101 2496 
L 1101 4009 
L 1926 4009 
C 2003 4009 2080 4009 2157 4009 
L 3251 4009 
L 3251 4416 
L 563 4416 
L 563 0 
L 3334 0 
L 3334 433 
L 1958 433 
z
" transform="scale(0.015625)"/>
     <path id="CMSS17-78" d="M 1587 1414 
L 2656 2739 
L 2099 2739 
L 1363 1777 
L 602 2739 
L 32 2739 
L 1139 1414 
L 0 0 
L 563 0 
L 1363 1121 
L 2195 0 
L 2758 0 
L 1587 1414 
z
" transform="scale(0.015625)"/>
     <path id="CMSS17-6c" d="M 947 4416 
L 474 4416 
L 474 0 
L 947 0 
L 947 4416 
z
" transform="scale(0.015625)"/>
     <path id="CMSS17-73" d="M 2061 2627 
C 1683 2807 1389 2807 1197 2807 
C 742 2807 198 2648 198 2003 
C 198 1359 902 1218 1094 1179 
C 1389 1122 1715 1058 1715 740 
C 1715 337 1254 337 1171 337 
C 915 337 563 407 243 638 
L 166 210 
C 531 0 883 -64 1178 -64 
C 1965 -64 2163 416 2163 781 
C 2163 1094 1984 1305 1862 1401 
C 1651 1568 1574 1587 1050 1696 
C 960 1709 646 1779 646 2066 
C 646 2432 1050 2432 1139 2432 
C 1555 2432 1811 2303 1984 2208 
L 2061 2627 
z
" transform="scale(0.015625)"/>
     <path id="CMSS17-72" d="M 954 1363 
C 954 1965 1395 2368 1958 2368 
L 1958 2789 
C 1549 2789 1165 2585 934 2253 
L 934 2758 
L 480 2758 
L 480 0 
L 954 0 
L 954 1363 
z
" transform="scale(0.015625)"/>
    </defs>
    <use xlink:href="#CMSS17-45" transform="scale(0.996264)"/>
    <use xlink:href="#CMSS17-78" transform="translate(55.892013 0)scale(0.996264)"/>
    <use xlink:href="#CMSS17-61" transform="translate(98.892155 0)scale(0.996264)"/>
    <use xlink:href="#CMSS17-6d" transform="translate(143.814076 0)scale(0.996264)"/>
    <use xlink:href="#CMSS17-70" transform="translate(218.04333 0)scale(0.996264)"/>
    <use xlink:href="#CMSS17-6c" transform="translate(266.248273 0)scale(0.996264)"/>
    <use xlink:href="#CMSS17-65" transform="translate(288.428996 0)scale(0.996264)"/>
    <use xlink:href="#CMSS17-73" transform="translate(330.067818 0)scale(0.996264)"/>
    <use xlink:href="#CMSS17-6f" transform="translate(397.210473 0)scale(0.996264)"/>
    <use xlink:href="#CMSS17-66" transform="translate(444.054096 0)scale(0.996264)"/>
    <use xlink:href="#CMSS17-61" transform="translate(503.909868 0)scale(0.996264)"/>
    <use xlink:href="#CMSS17-63" transform="translate(548.831789 0)scale(0.996264)"/>
    <use xlink:href="#CMSS17-74" transform="translate(590.470611 0)scale(0.996264)"/>
    <use xlink:href="#CMSS17-69" transform="translate(624.302177 0)scale(0.996264)"/>
    <use xlink:href="#CMSS17-76" transform="translate(646.4829 0)scale(0.996264)"/>
    <use xlink:href="#CMSS17-61" transform="translate(689.483042 0)scale(0.996264)"/>
    <use xlink:href="#CMSS17-74" transform="translate(734.404963 0)scale(0.996264)"/>
    <use xlink:href="#CMSS17-69" transform="translate(768.236529 0)scale(0.996264)"/>
    <use xlink:href="#CMSS17-6f" transform="translate(790.417252 0)scale(0.996264)"/>
    <use xlink:href="#CMSS17-6e" transform="translate(837.260876 0)scale(0.996264)"/>
    <use xlink:href="#CMSS17-66" transform="translate(916.694932 0)scale(0.996264)"/>
    <use xlink:href="#CMSS17-75" transform="translate(945.321591 0)scale(0.996264)"/>
    <use xlink:href="#CMSS17-6e" transform="translate(993.526534 0)scale(0.996264)"/>
    <use xlink:href="#CMSS17-63" transform="translate(1041.731477 0)scale(0.996264)"/>
    <use xlink:href="#CMSS17-74" transform="translate(1083.370299 0)scale(0.996264)"/>
    <use xlink:href="#CMSS17-69" transform="translate(1117.201866 0)scale(0.996264)"/>
    <use xlink:href="#CMSS17-6f" transform="translate(1139.382589 0)scale(0.996264)"/>
    <use xlink:href="#CMSS17-6e" transform="translate(1186.226212 0)scale(0.996264)"/>
    <use xlink:href="#CMSS17-73" transform="translate(1234.431155 0)scale(0.996264)"/>
    <use xlink:href="#CMSS17-66" transform="translate(1301.57381 0)scale(0.996264)"/>
    <use xlink:href="#CMSS17-6f" transform="translate(1330.200469 0)scale(0.996264)"/>
    <use xlink:href="#CMSS17-72" transform="translate(1374.441639 0)scale(0.996264)"/>
    <use xlink:href="#CMSS17-6e" transform="translate(1437.580524 0)scale(0.996264)"/>
    <use xlink:href="#CMSS17-65" transform="translate(1485.785467 0)scale(0.996264)"/>
    <use xlink:href="#CMSS17-75" transform="translate(1527.424289 0)scale(0.996264)"/>
    <use xlink:href="#CMSS17-72" transform="translate(1575.629232 0)scale(0.996264)"/>
    <use xlink:href="#CMSS17-6f" transform="translate(1607.539005 0)scale(0.996264)"/>
    <use xlink:href="#CMSS17-6e" transform="translate(1654.382628 0)scale(0.996264)"/>
    <use xlink:href="#CMSS17-73" transform="translate(1702.587571 0)scale(0.996264)"/>
    <use xlink:href="#CMSS17-69" transform="translate(1769.730226 0)scale(0.996264)"/>
    <use xlink:href="#CMSS17-6e" transform="translate(1791.910949 0)scale(0.996264)"/>
    <use xlink:href="#CMSS17-74" transform="translate(1871.345005 0)scale(0.996264)"/>
    <use xlink:href="#CMSS17-68" transform="translate(1905.176572 0)scale(0.996264)"/>
    <use xlink:href="#CMSS17-65" transform="translate(1953.381515 0)scale(0.996264)"/>
    <use xlink:href="#CMSS17-68" transform="translate(2026.24945 0)scale(0.996264)"/>
    <use xlink:href="#CMSS17-69" transform="translate(2074.454393 0)scale(0.996264)"/>
    <use xlink:href="#CMSS17-64" transform="translate(2096.635116 0)scale(0.996264)"/>
    <use xlink:href="#CMSS17-64" transform="translate(2144.840059 0)scale(0.996264)"/>
    <use xlink:href="#CMSS17-65" transform="translate(2193.045002 0)scale(0.996264)"/>
    <use xlink:href="#CMSS17-6e" transform="translate(2234.683824 0)scale(0.996264)"/>
    <use xlink:href="#CMSS17-6c" transform="translate(2314.11788 0)scale(0.996264)"/>
    <use xlink:href="#CMSS17-61" transform="translate(2336.298603 0)scale(0.996264)"/>
    <use xlink:href="#CMSS17-79" transform="translate(2378.61807 0)scale(0.996264)"/>
    <use xlink:href="#CMSS17-65" transform="translate(2419.015758 0)scale(0.996264)"/>
    <use xlink:href="#CMSS17-72" transform="translate(2460.65458 0)scale(0.996264)"/>
    <use xlink:href="#CMSS17-73" transform="translate(2492.564352 0)scale(0.996264)"/>
   </g>
  </g>
 </g>
 <defs>
  <clipPath id="p494bcfce90">
   <rect x="43.385756" y="46.528955" width="205.767711" height="116.500917"/>
  </clipPath>
  <clipPath id="p83a32dda7e">
   <rect x="287.432289" y="46.528955" width="205.767711" height="116.500917"/>
  </clipPath>
  <clipPath id="pc217c6aa26">
   <rect x="43.385756" y="203.987729" width="205.767711" height="116.500917"/>
  </clipPath>
  <clipPath id="p3283483d2a">
   <rect x="287.432289" y="203.987729" width="205.767711" height="116.500917"/>
  </clipPath>
 </defs>
</svg>
