<?xml version="1.0" encoding="utf-8" standalone="no"?>
<!DOCTYPE svg PUBLIC "-//W3C//DTD SVG 1.1//EN"
  "http://www.w3.org/Graphics/SVG/1.1/DTD/svg11.dtd">
<svg xmlns:xlink="http://www.w3.org/1999/xlink" width="460.8pt" height="345.6pt" viewBox="0 0 460.8 345.6" xmlns="http://www.w3.org/2000/svg" version="1.1">
 <metadata>
  <rdf:RDF xmlns:dc="http://purl.org/dc/elements/1.1/" xmlns:cc="http://creativecommons.org/ns#" xmlns:rdf="http://www.w3.org/1999/02/22-rdf-syntax-ns#">
   <cc:Work>
    <dc:type rdf:resource="http://purl.org/dc/dcmitype/StillImage"/>
    <dc:date>2024-01-15T12:28:39.356930</dc:date>
    <dc:format>image/svg+xml</dc:format>
    <dc:creator>
     <cc:Agent>
      <dc:title>Matplotlib v3.5.1, https://matplotlib.org/</dc:title>
     </cc:Agent>
    </dc:creator>
   </cc:Work>
  </rdf:RDF>
 </metadata>
 <defs>
  <style type="text/css">*{stroke-linejoin: round; stroke-linecap: butt}</style>
 </defs>
 <g id="figure_1">
  <g id="patch_1">
   <path d="M 0 345.6 
L 460.8 345.6 
L 460.8 0 
L 0 0 
z
" style="fill: #ffffff"/>
  </g>
  <g id="axes_1">
   <g id="patch_2">
    <path d="M 57.6 307.584 
L 414.72 307.584 
L 414.72 41.472 
L 57.6 41.472 
z
" style="fill: #ffffff"/>
   </g>
   <g id="matplotlib.axis_1">
    <g id="xtick_1">
     <g id="line2d_1">
      <defs>
       <path id="m4cdbd6befc" d="M 0 0 
L 0 3.5 
" style="stroke: #000000; stroke-width: 0.8"/>
      </defs>
      <g>
       <use xlink:href="#m4cdbd6befc" x="73.832727" y="307.584" style="stroke: #000000; stroke-width: 0.8"/>
      </g>
     </g>
     <g id="text_1">
      <!-- 0 -->
      <g transform="translate(70.651477 322.182437)scale(0.1 -0.1)">
       <defs>
        <path id="DejaVuSans-30" d="M 2034 4250 
Q 1547 4250 1301 3770 
Q 1056 3291 1056 2328 
Q 1056 1369 1301 889 
Q 1547 409 2034 409 
Q 2525 409 2770 889 
Q 3016 1369 3016 2328 
Q 3016 3291 2770 3770 
Q 2525 4250 2034 4250 
z
M 2034 4750 
Q 2819 4750 3233 4129 
Q 3647 3509 3647 2328 
Q 3647 1150 3233 529 
Q 2819 -91 2034 -91 
Q 1250 -91 836 529 
Q 422 1150 422 2328 
Q 422 3509 836 4129 
Q 1250 4750 2034 4750 
z
" transform="scale(0.015625)"/>
       </defs>
       <use xlink:href="#DejaVuSans-30"/>
      </g>
     </g>
    </g>
    <g id="xtick_2">
     <g id="line2d_2">
      <g>
       <use xlink:href="#m4cdbd6befc" x="124.86219" y="307.584" style="stroke: #000000; stroke-width: 0.8"/>
      </g>
     </g>
     <g id="text_2">
      <!-- 1 -->
      <g transform="translate(121.68094 322.182437)scale(0.1 -0.1)">
       <defs>
        <path id="DejaVuSans-31" d="M 794 531 
L 1825 531 
L 1825 4091 
L 703 3866 
L 703 4441 
L 1819 4666 
L 2450 4666 
L 2450 531 
L 3481 531 
L 3481 0 
L 794 0 
L 794 531 
z
" transform="scale(0.015625)"/>
       </defs>
       <use xlink:href="#DejaVuSans-31"/>
      </g>
     </g>
    </g>
    <g id="xtick_3">
     <g id="line2d_3">
      <g>
       <use xlink:href="#m4cdbd6befc" x="175.891653" y="307.584" style="stroke: #000000; stroke-width: 0.8"/>
      </g>
     </g>
     <g id="text_3">
      <!-- 2 -->
      <g transform="translate(172.710403 322.182437)scale(0.1 -0.1)">
       <defs>
        <path id="DejaVuSans-32" d="M 1228 531 
L 3431 531 
L 3431 0 
L 469 0 
L 469 531 
Q 828 903 1448 1529 
Q 2069 2156 2228 2338 
Q 2531 2678 2651 2914 
Q 2772 3150 2772 3378 
Q 2772 3750 2511 3984 
Q 2250 4219 1831 4219 
Q 1534 4219 1204 4116 
Q 875 4013 500 3803 
L 500 4441 
Q 881 4594 1212 4672 
Q 1544 4750 1819 4750 
Q 2544 4750 2975 4387 
Q 3406 4025 3406 3419 
Q 3406 3131 3298 2873 
Q 3191 2616 2906 2266 
Q 2828 2175 2409 1742 
Q 1991 1309 1228 531 
z
" transform="scale(0.015625)"/>
       </defs>
       <use xlink:href="#DejaVuSans-32"/>
      </g>
     </g>
    </g>
    <g id="xtick_4">
     <g id="line2d_4">
      <g>
       <use xlink:href="#m4cdbd6befc" x="226.921116" y="307.584" style="stroke: #000000; stroke-width: 0.8"/>
      </g>
     </g>
     <g id="text_4">
      <!-- 3 -->
      <g transform="translate(223.739866 322.182437)scale(0.1 -0.1)">
       <defs>
        <path id="DejaVuSans-33" d="M 2597 2516 
Q 3050 2419 3304 2112 
Q 3559 1806 3559 1356 
Q 3559 666 3084 287 
Q 2609 -91 1734 -91 
Q 1441 -91 1130 -33 
Q 819 25 488 141 
L 488 750 
Q 750 597 1062 519 
Q 1375 441 1716 441 
Q 2309 441 2620 675 
Q 2931 909 2931 1356 
Q 2931 1769 2642 2001 
Q 2353 2234 1838 2234 
L 1294 2234 
L 1294 2753 
L 1863 2753 
Q 2328 2753 2575 2939 
Q 2822 3125 2822 3475 
Q 2822 3834 2567 4026 
Q 2313 4219 1838 4219 
Q 1578 4219 1281 4162 
Q 984 4106 628 3988 
L 628 4550 
Q 988 4650 1302 4700 
Q 1616 4750 1894 4750 
Q 2613 4750 3031 4423 
Q 3450 4097 3450 3541 
Q 3450 3153 3228 2886 
Q 3006 2619 2597 2516 
z
" transform="scale(0.015625)"/>
       </defs>
       <use xlink:href="#DejaVuSans-33"/>
      </g>
     </g>
    </g>
    <g id="xtick_5">
     <g id="line2d_5">
      <g>
       <use xlink:href="#m4cdbd6befc" x="277.950579" y="307.584" style="stroke: #000000; stroke-width: 0.8"/>
      </g>
     </g>
     <g id="text_5">
      <!-- 4 -->
      <g transform="translate(274.769329 322.182437)scale(0.1 -0.1)">
       <defs>
        <path id="DejaVuSans-34" d="M 2419 4116 
L 825 1625 
L 2419 1625 
L 2419 4116 
z
M 2253 4666 
L 3047 4666 
L 3047 1625 
L 3713 1625 
L 3713 1100 
L 3047 1100 
L 3047 0 
L 2419 0 
L 2419 1100 
L 313 1100 
L 313 1709 
L 2253 4666 
z
" transform="scale(0.015625)"/>
       </defs>
       <use xlink:href="#DejaVuSans-34"/>
      </g>
     </g>
    </g>
    <g id="xtick_6">
     <g id="line2d_6">
      <g>
       <use xlink:href="#m4cdbd6befc" x="328.980041" y="307.584" style="stroke: #000000; stroke-width: 0.8"/>
      </g>
     </g>
     <g id="text_6">
      <!-- 5 -->
      <g transform="translate(325.798791 322.182437)scale(0.1 -0.1)">
       <defs>
        <path id="DejaVuSans-35" d="M 691 4666 
L 3169 4666 
L 3169 4134 
L 1269 4134 
L 1269 2991 
Q 1406 3038 1543 3061 
Q 1681 3084 1819 3084 
Q 2600 3084 3056 2656 
Q 3513 2228 3513 1497 
Q 3513 744 3044 326 
Q 2575 -91 1722 -91 
Q 1428 -91 1123 -41 
Q 819 9 494 109 
L 494 744 
Q 775 591 1075 516 
Q 1375 441 1709 441 
Q 2250 441 2565 725 
Q 2881 1009 2881 1497 
Q 2881 1984 2565 2268 
Q 2250 2553 1709 2553 
Q 1456 2553 1204 2497 
Q 953 2441 691 2322 
L 691 4666 
z
" transform="scale(0.015625)"/>
       </defs>
       <use xlink:href="#DejaVuSans-35"/>
      </g>
     </g>
    </g>
    <g id="xtick_7">
     <g id="line2d_7">
      <g>
       <use xlink:href="#m4cdbd6befc" x="380.009504" y="307.584" style="stroke: #000000; stroke-width: 0.8"/>
      </g>
     </g>
     <g id="text_7">
      <!-- 6 -->
      <g transform="translate(376.828254 322.182437)scale(0.1 -0.1)">
       <defs>
        <path id="DejaVuSans-36" d="M 2113 2584 
Q 1688 2584 1439 2293 
Q 1191 2003 1191 1497 
Q 1191 994 1439 701 
Q 1688 409 2113 409 
Q 2538 409 2786 701 
Q 3034 994 3034 1497 
Q 3034 2003 2786 2293 
Q 2538 2584 2113 2584 
z
M 3366 4563 
L 3366 3988 
Q 3128 4100 2886 4159 
Q 2644 4219 2406 4219 
Q 1781 4219 1451 3797 
Q 1122 3375 1075 2522 
Q 1259 2794 1537 2939 
Q 1816 3084 2150 3084 
Q 2853 3084 3261 2657 
Q 3669 2231 3669 1497 
Q 3669 778 3244 343 
Q 2819 -91 2113 -91 
Q 1303 -91 875 529 
Q 447 1150 447 2328 
Q 447 3434 972 4092 
Q 1497 4750 2381 4750 
Q 2619 4750 2861 4703 
Q 3103 4656 3366 4563 
z
" transform="scale(0.015625)"/>
       </defs>
       <use xlink:href="#DejaVuSans-36"/>
      </g>
     </g>
    </g>
    <g id="text_8">
     <!-- time in s -->
     <g transform="translate(214.523281 335.860562)scale(0.1 -0.1)">
      <defs>
       <path id="DejaVuSans-74" d="M 1172 4494 
L 1172 3500 
L 2356 3500 
L 2356 3053 
L 1172 3053 
L 1172 1153 
Q 1172 725 1289 603 
Q 1406 481 1766 481 
L 2356 481 
L 2356 0 
L 1766 0 
Q 1100 0 847 248 
Q 594 497 594 1153 
L 594 3053 
L 172 3053 
L 172 3500 
L 594 3500 
L 594 4494 
L 1172 4494 
z
" transform="scale(0.015625)"/>
       <path id="DejaVuSans-69" d="M 603 3500 
L 1178 3500 
L 1178 0 
L 603 0 
L 603 3500 
z
M 603 4863 
L 1178 4863 
L 1178 4134 
L 603 4134 
L 603 4863 
z
" transform="scale(0.015625)"/>
       <path id="DejaVuSans-6d" d="M 3328 2828 
Q 3544 3216 3844 3400 
Q 4144 3584 4550 3584 
Q 5097 3584 5394 3201 
Q 5691 2819 5691 2113 
L 5691 0 
L 5113 0 
L 5113 2094 
Q 5113 2597 4934 2840 
Q 4756 3084 4391 3084 
Q 3944 3084 3684 2787 
Q 3425 2491 3425 1978 
L 3425 0 
L 2847 0 
L 2847 2094 
Q 2847 2600 2669 2842 
Q 2491 3084 2119 3084 
Q 1678 3084 1418 2786 
Q 1159 2488 1159 1978 
L 1159 0 
L 581 0 
L 581 3500 
L 1159 3500 
L 1159 2956 
Q 1356 3278 1631 3431 
Q 1906 3584 2284 3584 
Q 2666 3584 2933 3390 
Q 3200 3197 3328 2828 
z
" transform="scale(0.015625)"/>
       <path id="DejaVuSans-65" d="M 3597 1894 
L 3597 1613 
L 953 1613 
Q 991 1019 1311 708 
Q 1631 397 2203 397 
Q 2534 397 2845 478 
Q 3156 559 3463 722 
L 3463 178 
Q 3153 47 2828 -22 
Q 2503 -91 2169 -91 
Q 1331 -91 842 396 
Q 353 884 353 1716 
Q 353 2575 817 3079 
Q 1281 3584 2069 3584 
Q 2775 3584 3186 3129 
Q 3597 2675 3597 1894 
z
M 3022 2063 
Q 3016 2534 2758 2815 
Q 2500 3097 2075 3097 
Q 1594 3097 1305 2825 
Q 1016 2553 972 2059 
L 3022 2063 
z
" transform="scale(0.015625)"/>
       <path id="DejaVuSans-20" transform="scale(0.015625)"/>
       <path id="DejaVuSans-6e" d="M 3513 2113 
L 3513 0 
L 2938 0 
L 2938 2094 
Q 2938 2591 2744 2837 
Q 2550 3084 2163 3084 
Q 1697 3084 1428 2787 
Q 1159 2491 1159 1978 
L 1159 0 
L 581 0 
L 581 3500 
L 1159 3500 
L 1159 2956 
Q 1366 3272 1645 3428 
Q 1925 3584 2291 3584 
Q 2894 3584 3203 3211 
Q 3513 2838 3513 2113 
z
" transform="scale(0.015625)"/>
       <path id="DejaVuSans-73" d="M 2834 3397 
L 2834 2853 
Q 2591 2978 2328 3040 
Q 2066 3103 1784 3103 
Q 1356 3103 1142 2972 
Q 928 2841 928 2578 
Q 928 2378 1081 2264 
Q 1234 2150 1697 2047 
L 1894 2003 
Q 2506 1872 2764 1633 
Q 3022 1394 3022 966 
Q 3022 478 2636 193 
Q 2250 -91 1575 -91 
Q 1294 -91 989 -36 
Q 684 19 347 128 
L 347 722 
Q 666 556 975 473 
Q 1284 391 1588 391 
Q 1994 391 2212 530 
Q 2431 669 2431 922 
Q 2431 1156 2273 1281 
Q 2116 1406 1581 1522 
L 1381 1569 
Q 847 1681 609 1914 
Q 372 2147 372 2553 
Q 372 3047 722 3315 
Q 1072 3584 1716 3584 
Q 2034 3584 2315 3537 
Q 2597 3491 2834 3397 
z
" transform="scale(0.015625)"/>
      </defs>
      <use xlink:href="#DejaVuSans-74"/>
      <use xlink:href="#DejaVuSans-69" x="39.208984"/>
      <use xlink:href="#DejaVuSans-6d" x="66.992188"/>
      <use xlink:href="#DejaVuSans-65" x="164.404297"/>
      <use xlink:href="#DejaVuSans-20" x="225.927734"/>
      <use xlink:href="#DejaVuSans-69" x="257.714844"/>
      <use xlink:href="#DejaVuSans-6e" x="285.498047"/>
      <use xlink:href="#DejaVuSans-20" x="348.876953"/>
      <use xlink:href="#DejaVuSans-73" x="380.664062"/>
     </g>
    </g>
    <g id="text_9">
     <!-- 1e14 -->
     <g transform="translate(389.479375 334.860562)scale(0.1 -0.1)">
      <use xlink:href="#DejaVuSans-31"/>
      <use xlink:href="#DejaVuSans-65" x="63.623047"/>
      <use xlink:href="#DejaVuSans-31" x="125.146484"/>
      <use xlink:href="#DejaVuSans-34" x="188.769531"/>
     </g>
    </g>
   </g>
   <g id="matplotlib.axis_2">
    <g id="ytick_1">
     <g id="line2d_8">
      <defs>
       <path id="m6319e881d0" d="M 0 0 
L -3.5 0 
" style="stroke: #000000; stroke-width: 0.8"/>
      </defs>
      <g>
       <use xlink:href="#m6319e881d0" x="57.6" y="277.739348" style="stroke: #000000; stroke-width: 0.8"/>
      </g>
     </g>
     <g id="text_10">
      <!-- $\mathdefault{10^{4}}$ -->
      <g transform="translate(33 281.538567)scale(0.1 -0.1)">
       <use xlink:href="#DejaVuSans-31" transform="translate(0 0.684375)"/>
       <use xlink:href="#DejaVuSans-30" transform="translate(63.623047 0.684375)"/>
       <use xlink:href="#DejaVuSans-34" transform="translate(128.203125 38.965625)scale(0.7)"/>
      </g>
     </g>
    </g>
    <g id="ytick_2">
     <g id="line2d_9">
      <g>
       <use xlink:href="#m6319e881d0" x="57.6" y="203.015566" style="stroke: #000000; stroke-width: 0.8"/>
      </g>
     </g>
     <g id="text_11">
      <!-- $\mathdefault{10^{5}}$ -->
      <g transform="translate(33 206.814784)scale(0.1 -0.1)">
       <use xlink:href="#DejaVuSans-31" transform="translate(0 0.684375)"/>
       <use xlink:href="#DejaVuSans-30" transform="translate(63.623047 0.684375)"/>
       <use xlink:href="#DejaVuSans-35" transform="translate(128.203125 38.965625)scale(0.7)"/>
      </g>
     </g>
    </g>
    <g id="ytick_3">
     <g id="line2d_10">
      <g>
       <use xlink:href="#m6319e881d0" x="57.6" y="128.291783" style="stroke: #000000; stroke-width: 0.8"/>
      </g>
     </g>
     <g id="text_12">
      <!-- $\mathdefault{10^{6}}$ -->
      <g transform="translate(33 132.091002)scale(0.1 -0.1)">
       <use xlink:href="#DejaVuSans-31" transform="translate(0 0.765625)"/>
       <use xlink:href="#DejaVuSans-30" transform="translate(63.623047 0.765625)"/>
       <use xlink:href="#DejaVuSans-36" transform="translate(128.203125 39.046875)scale(0.7)"/>
      </g>
     </g>
    </g>
    <g id="ytick_4">
     <g id="line2d_11">
      <g>
       <use xlink:href="#m6319e881d0" x="57.6" y="53.568" style="stroke: #000000; stroke-width: 0.8"/>
      </g>
     </g>
     <g id="text_13">
      <!-- $\mathdefault{10^{7}}$ -->
      <g transform="translate(33 57.367219)scale(0.1 -0.1)">
       <defs>
        <path id="DejaVuSans-37" d="M 525 4666 
L 3525 4666 
L 3525 4397 
L 1831 0 
L 1172 0 
L 2766 4134 
L 525 4134 
L 525 4666 
z
" transform="scale(0.015625)"/>
       </defs>
       <use xlink:href="#DejaVuSans-31" transform="translate(0 0.684375)"/>
       <use xlink:href="#DejaVuSans-30" transform="translate(63.623047 0.684375)"/>
       <use xlink:href="#DejaVuSans-37" transform="translate(128.203125 38.965625)scale(0.7)"/>
      </g>
     </g>
    </g>
    <g id="ytick_5">
     <g id="line2d_12">
      <defs>
       <path id="m7cfd074bbf" d="M 0 0 
L -2 0 
" style="stroke: #000000; stroke-width: 0.6"/>
      </defs>
      <g>
       <use xlink:href="#m7cfd074bbf" x="57.6" y="307.474931" style="stroke: #000000; stroke-width: 0.6"/>
      </g>
     </g>
    </g>
    <g id="ytick_6">
     <g id="line2d_13">
      <g>
       <use xlink:href="#m7cfd074bbf" x="57.6" y="300.233448" style="stroke: #000000; stroke-width: 0.6"/>
      </g>
     </g>
    </g>
    <g id="ytick_7">
     <g id="line2d_14">
      <g>
       <use xlink:href="#m7cfd074bbf" x="57.6" y="294.316726" style="stroke: #000000; stroke-width: 0.6"/>
      </g>
     </g>
    </g>
    <g id="ytick_8">
     <g id="line2d_15">
      <g>
       <use xlink:href="#m7cfd074bbf" x="57.6" y="289.314209" style="stroke: #000000; stroke-width: 0.6"/>
      </g>
     </g>
    </g>
    <g id="ytick_9">
     <g id="line2d_16">
      <g>
       <use xlink:href="#m7cfd074bbf" x="57.6" y="284.980831" style="stroke: #000000; stroke-width: 0.6"/>
      </g>
     </g>
    </g>
    <g id="ytick_10">
     <g id="line2d_17">
      <g>
       <use xlink:href="#m7cfd074bbf" x="57.6" y="281.158521" style="stroke: #000000; stroke-width: 0.6"/>
      </g>
     </g>
    </g>
    <g id="ytick_11">
     <g id="line2d_18">
      <g>
       <use xlink:href="#m7cfd074bbf" x="57.6" y="255.245248" style="stroke: #000000; stroke-width: 0.6"/>
      </g>
     </g>
    </g>
    <g id="ytick_12">
     <g id="line2d_19">
      <g>
       <use xlink:href="#m7cfd074bbf" x="57.6" y="242.087043" style="stroke: #000000; stroke-width: 0.6"/>
      </g>
     </g>
    </g>
    <g id="ytick_13">
     <g id="line2d_20">
      <g>
       <use xlink:href="#m7cfd074bbf" x="57.6" y="232.751148" style="stroke: #000000; stroke-width: 0.6"/>
      </g>
     </g>
    </g>
    <g id="ytick_14">
     <g id="line2d_21">
      <g>
       <use xlink:href="#m7cfd074bbf" x="57.6" y="225.509666" style="stroke: #000000; stroke-width: 0.6"/>
      </g>
     </g>
    </g>
    <g id="ytick_15">
     <g id="line2d_22">
      <g>
       <use xlink:href="#m7cfd074bbf" x="57.6" y="219.592943" style="stroke: #000000; stroke-width: 0.6"/>
      </g>
     </g>
    </g>
    <g id="ytick_16">
     <g id="line2d_23">
      <g>
       <use xlink:href="#m7cfd074bbf" x="57.6" y="214.590426" style="stroke: #000000; stroke-width: 0.6"/>
      </g>
     </g>
    </g>
    <g id="ytick_17">
     <g id="line2d_24">
      <g>
       <use xlink:href="#m7cfd074bbf" x="57.6" y="210.257048" style="stroke: #000000; stroke-width: 0.6"/>
      </g>
     </g>
    </g>
    <g id="ytick_18">
     <g id="line2d_25">
      <g>
       <use xlink:href="#m7cfd074bbf" x="57.6" y="206.434738" style="stroke: #000000; stroke-width: 0.6"/>
      </g>
     </g>
    </g>
    <g id="ytick_19">
     <g id="line2d_26">
      <g>
       <use xlink:href="#m7cfd074bbf" x="57.6" y="180.521466" style="stroke: #000000; stroke-width: 0.6"/>
      </g>
     </g>
    </g>
    <g id="ytick_20">
     <g id="line2d_27">
      <g>
       <use xlink:href="#m7cfd074bbf" x="57.6" y="167.363261" style="stroke: #000000; stroke-width: 0.6"/>
      </g>
     </g>
    </g>
    <g id="ytick_21">
     <g id="line2d_28">
      <g>
       <use xlink:href="#m7cfd074bbf" x="57.6" y="158.027366" style="stroke: #000000; stroke-width: 0.6"/>
      </g>
     </g>
    </g>
    <g id="ytick_22">
     <g id="line2d_29">
      <g>
       <use xlink:href="#m7cfd074bbf" x="57.6" y="150.785883" style="stroke: #000000; stroke-width: 0.6"/>
      </g>
     </g>
    </g>
    <g id="ytick_23">
     <g id="line2d_30">
      <g>
       <use xlink:href="#m7cfd074bbf" x="57.6" y="144.869161" style="stroke: #000000; stroke-width: 0.6"/>
      </g>
     </g>
    </g>
    <g id="ytick_24">
     <g id="line2d_31">
      <g>
       <use xlink:href="#m7cfd074bbf" x="57.6" y="139.866643" style="stroke: #000000; stroke-width: 0.6"/>
      </g>
     </g>
    </g>
    <g id="ytick_25">
     <g id="line2d_32">
      <g>
       <use xlink:href="#m7cfd074bbf" x="57.6" y="135.533266" style="stroke: #000000; stroke-width: 0.6"/>
      </g>
     </g>
    </g>
    <g id="ytick_26">
     <g id="line2d_33">
      <g>
       <use xlink:href="#m7cfd074bbf" x="57.6" y="131.710956" style="stroke: #000000; stroke-width: 0.6"/>
      </g>
     </g>
    </g>
    <g id="ytick_27">
     <g id="line2d_34">
      <g>
       <use xlink:href="#m7cfd074bbf" x="57.6" y="105.797683" style="stroke: #000000; stroke-width: 0.6"/>
      </g>
     </g>
    </g>
    <g id="ytick_28">
     <g id="line2d_35">
      <g>
       <use xlink:href="#m7cfd074bbf" x="57.6" y="92.639478" style="stroke: #000000; stroke-width: 0.6"/>
      </g>
     </g>
    </g>
    <g id="ytick_29">
     <g id="line2d_36">
      <g>
       <use xlink:href="#m7cfd074bbf" x="57.6" y="83.303583" style="stroke: #000000; stroke-width: 0.6"/>
      </g>
     </g>
    </g>
    <g id="ytick_30">
     <g id="line2d_37">
      <g>
       <use xlink:href="#m7cfd074bbf" x="57.6" y="76.0621" style="stroke: #000000; stroke-width: 0.6"/>
      </g>
     </g>
    </g>
    <g id="ytick_31">
     <g id="line2d_38">
      <g>
       <use xlink:href="#m7cfd074bbf" x="57.6" y="70.145378" style="stroke: #000000; stroke-width: 0.6"/>
      </g>
     </g>
    </g>
    <g id="ytick_32">
     <g id="line2d_39">
      <g>
       <use xlink:href="#m7cfd074bbf" x="57.6" y="65.14286" style="stroke: #000000; stroke-width: 0.6"/>
      </g>
     </g>
    </g>
    <g id="ytick_33">
     <g id="line2d_40">
      <g>
       <use xlink:href="#m7cfd074bbf" x="57.6" y="60.809483" style="stroke: #000000; stroke-width: 0.6"/>
      </g>
     </g>
    </g>
    <g id="ytick_34">
     <g id="line2d_41">
      <g>
       <use xlink:href="#m7cfd074bbf" x="57.6" y="56.987173" style="stroke: #000000; stroke-width: 0.6"/>
      </g>
     </g>
    </g>
    <g id="text_14">
     <!-- T in K -->
     <g transform="translate(26.920313 188.59675)rotate(-90)scale(0.1 -0.1)">
      <defs>
       <path id="DejaVuSans-54" d="M -19 4666 
L 3928 4666 
L 3928 4134 
L 2272 4134 
L 2272 0 
L 1638 0 
L 1638 4134 
L -19 4134 
L -19 4666 
z
" transform="scale(0.015625)"/>
       <path id="DejaVuSans-4b" d="M 628 4666 
L 1259 4666 
L 1259 2694 
L 3353 4666 
L 4166 4666 
L 1850 2491 
L 4331 0 
L 3500 0 
L 1259 2247 
L 1259 0 
L 628 0 
L 628 4666 
z
" transform="scale(0.015625)"/>
      </defs>
      <use xlink:href="#DejaVuSans-54"/>
      <use xlink:href="#DejaVuSans-20" x="61.083984"/>
      <use xlink:href="#DejaVuSans-69" x="92.871094"/>
      <use xlink:href="#DejaVuSans-6e" x="120.654297"/>
      <use xlink:href="#DejaVuSans-20" x="184.033203"/>
      <use xlink:href="#DejaVuSans-4b" x="215.820312"/>
     </g>
    </g>
   </g>
   <g id="line2d_42">
    <path d="M 73.832727 53.568 
L 89.325272 55.808709 
L 103.307345 58.051749 
L 115.932034 60.29847 
L 127.326913 62.548407 
L 137.614453 64.802535 
L 146.906918 67.062516 
L 155.301265 69.329215 
L 162.884243 71.60338 
L 169.742603 73.888793 
L 175.942682 76.185639 
L 181.555923 78.498855 
L 186.638458 80.830712 
L 191.241315 83.18397 
L 195.415525 85.564794 
L 199.201912 87.977382 
L 202.641297 90.429603 
L 205.769403 92.930313 
L 208.616847 95.488935 
L 211.214247 98.120207 
L 213.582014 100.834137 
L 215.74056 103.645088 
L 217.715401 106.581972 
L 219.516741 109.660126 
L 221.159889 112.909816 
L 222.655053 116.361774 
L 224.012436 120.057996 
L 225.242246 124.057894 
L 226.349586 128.426766 
L 227.334454 133.228011 
L 228.207058 138.607611 
L 228.967397 144.715915 
L 229.615471 151.764765 
L 230.156384 160.155211 
L 230.590134 170.49421 
L 230.916723 183.87745 
L 231.136149 202.407176 
L 231.25862 232.944592 
L 231.43212 270.251001 
L 231.697473 273.913648 
L 232.080194 276.265888 
L 232.585386 278.033178 
L 233.223254 279.46916 
L 234.009108 280.694529 
L 234.978668 281.791203 
L 236.172757 282.800401 
L 237.652612 283.753501 
L 239.499878 284.671533 
L 241.821719 285.568746 
L 244.745707 286.451575 
L 248.44024 287.325882 
L 253.114539 288.194578 
L 259.033957 289.059608 
L 266.540391 289.92281 
L 276.057386 290.784422 
L 288.130956 291.645257 
L 303.450001 292.505589 
L 322.892226 293.365731 
L 347.564972 294.22565 
L 350.539989 294.316741 
L 350.539989 294.316741 
" clip-path="url(#p92845c25ed)" style="fill: none; stroke: #1f77b4; stroke-width: 1.5; stroke-linecap: square"/>
   </g>
   <g id="line2d_43">
    <path d="M 73.832727 53.568 
L 73.83783 53.568701 
L 73.848036 53.570103 
L 73.868448 53.572908 
L 73.909271 53.578519 
L 73.990919 53.589745 
L 74.154213 53.612215 
L 74.480801 53.657225 
L 75.133979 53.747527 
L 76.440333 53.929268 
L 79.053041 54.297397 
L 84.278458 55.052998 
L 94.729292 56.648314 
L 115.63096 60.242339 
L 126.081794 62.291181 
L 136.532628 64.554553 
L 146.983462 67.082697 
L 157.434296 69.945873 
L 167.88513 73.246652 
L 178.335964 77.143378 
L 188.786798 81.899764 
L 194.012215 84.737729 
L 199.237632 88.005029 
L 204.463049 91.855147 
L 209.688466 96.542181 
L 214.913883 102.534147 
L 217.526592 106.294462 
L 220.1393 110.848917 
L 222.752009 116.625385 
L 225.364717 124.530504 
L 226.017894 127.057618 
L 226.671071 129.919471 
L 227.977426 137.1141 
L 229.28378 147.972198 
L 230.590134 170.833348 
L 230.753428 176.609866 
L 230.916723 184.515079 
L 231.080017 197.106536 
L 231.161664 207.969966 
L 231.243311 230.856541 
L 231.263723 244.581407 
L 231.273929 255.58074 
L 231.27648 258.039826 
L 231.279032 259.498021 
L 231.284135 261.333023 
L 231.294341 263.444188 
L 231.314753 265.729937 
L 231.355576 268.115945 
L 231.437223 270.556364 
L 231.600517 273.025406 
L 231.927106 275.509255 
L 232.580283 278.0007 
L 233.886637 280.496023 
L 236.499346 282.993322 
L 241.724763 285.491626 
L 252.175597 287.990442 
L 273.077265 290.489517 
L 314.880601 292.988725 
L 398.487273 295.488 
" clip-path="url(#p92845c25ed)" style="fill: none; stroke: #ff7f0e; stroke-width: 1.5; stroke-linecap: square"/>
    <defs>
     <path id="m0c01fc0ee5" d="M 0 3 
C 0.795609 3 1.55874 2.683901 2.12132 2.12132 
C 2.683901 1.55874 3 0.795609 3 0 
C 3 -0.795609 2.683901 -1.55874 2.12132 -2.12132 
C 1.55874 -2.683901 0.795609 -3 0 -3 
C -0.795609 -3 -1.55874 -2.683901 -2.12132 -2.12132 
C -2.683901 -1.55874 -3 -0.795609 -3 0 
C -3 0.795609 -2.683901 1.55874 -2.12132 2.12132 
C -1.55874 2.683901 -0.795609 3 0 3 
z
" style="stroke: #ff7f0e"/>
    </defs>
    <g clip-path="url(#p92845c25ed)">
     <use xlink:href="#m0c01fc0ee5" x="73.832727" y="53.568" style="fill: #ff7f0e; stroke: #ff7f0e"/>
     <use xlink:href="#m0c01fc0ee5" x="73.83783" y="53.568701" style="fill: #ff7f0e; stroke: #ff7f0e"/>
     <use xlink:href="#m0c01fc0ee5" x="73.848036" y="53.570103" style="fill: #ff7f0e; stroke: #ff7f0e"/>
     <use xlink:href="#m0c01fc0ee5" x="73.868448" y="53.572908" style="fill: #ff7f0e; stroke: #ff7f0e"/>
     <use xlink:href="#m0c01fc0ee5" x="73.909271" y="53.578519" style="fill: #ff7f0e; stroke: #ff7f0e"/>
     <use xlink:href="#m0c01fc0ee5" x="73.990919" y="53.589745" style="fill: #ff7f0e; stroke: #ff7f0e"/>
     <use xlink:href="#m0c01fc0ee5" x="74.154213" y="53.612215" style="fill: #ff7f0e; stroke: #ff7f0e"/>
     <use xlink:href="#m0c01fc0ee5" x="74.480801" y="53.657225" style="fill: #ff7f0e; stroke: #ff7f0e"/>
     <use xlink:href="#m0c01fc0ee5" x="75.133979" y="53.747527" style="fill: #ff7f0e; stroke: #ff7f0e"/>
     <use xlink:href="#m0c01fc0ee5" x="76.440333" y="53.929268" style="fill: #ff7f0e; stroke: #ff7f0e"/>
     <use xlink:href="#m0c01fc0ee5" x="79.053041" y="54.297397" style="fill: #ff7f0e; stroke: #ff7f0e"/>
     <use xlink:href="#m0c01fc0ee5" x="84.278458" y="55.052998" style="fill: #ff7f0e; stroke: #ff7f0e"/>
     <use xlink:href="#m0c01fc0ee5" x="94.729292" y="56.648314" style="fill: #ff7f0e; stroke: #ff7f0e"/>
     <use xlink:href="#m0c01fc0ee5" x="115.63096" y="60.242339" style="fill: #ff7f0e; stroke: #ff7f0e"/>
     <use xlink:href="#m0c01fc0ee5" x="126.081794" y="62.291181" style="fill: #ff7f0e; stroke: #ff7f0e"/>
     <use xlink:href="#m0c01fc0ee5" x="136.532628" y="64.554553" style="fill: #ff7f0e; stroke: #ff7f0e"/>
     <use xlink:href="#m0c01fc0ee5" x="146.983462" y="67.082697" style="fill: #ff7f0e; stroke: #ff7f0e"/>
     <use xlink:href="#m0c01fc0ee5" x="157.434296" y="69.945873" style="fill: #ff7f0e; stroke: #ff7f0e"/>
     <use xlink:href="#m0c01fc0ee5" x="167.88513" y="73.246652" style="fill: #ff7f0e; stroke: #ff7f0e"/>
     <use xlink:href="#m0c01fc0ee5" x="178.335964" y="77.143378" style="fill: #ff7f0e; stroke: #ff7f0e"/>
     <use xlink:href="#m0c01fc0ee5" x="188.786798" y="81.899764" style="fill: #ff7f0e; stroke: #ff7f0e"/>
     <use xlink:href="#m0c01fc0ee5" x="194.012215" y="84.737729" style="fill: #ff7f0e; stroke: #ff7f0e"/>
     <use xlink:href="#m0c01fc0ee5" x="199.237632" y="88.005029" style="fill: #ff7f0e; stroke: #ff7f0e"/>
     <use xlink:href="#m0c01fc0ee5" x="204.463049" y="91.855147" style="fill: #ff7f0e; stroke: #ff7f0e"/>
     <use xlink:href="#m0c01fc0ee5" x="209.688466" y="96.542181" style="fill: #ff7f0e; stroke: #ff7f0e"/>
     <use xlink:href="#m0c01fc0ee5" x="214.913883" y="102.534147" style="fill: #ff7f0e; stroke: #ff7f0e"/>
     <use xlink:href="#m0c01fc0ee5" x="217.526592" y="106.294462" style="fill: #ff7f0e; stroke: #ff7f0e"/>
     <use xlink:href="#m0c01fc0ee5" x="220.1393" y="110.848917" style="fill: #ff7f0e; stroke: #ff7f0e"/>
     <use xlink:href="#m0c01fc0ee5" x="222.752009" y="116.625385" style="fill: #ff7f0e; stroke: #ff7f0e"/>
     <use xlink:href="#m0c01fc0ee5" x="225.364717" y="124.530504" style="fill: #ff7f0e; stroke: #ff7f0e"/>
     <use xlink:href="#m0c01fc0ee5" x="226.017894" y="127.057618" style="fill: #ff7f0e; stroke: #ff7f0e"/>
     <use xlink:href="#m0c01fc0ee5" x="226.671071" y="129.919471" style="fill: #ff7f0e; stroke: #ff7f0e"/>
     <use xlink:href="#m0c01fc0ee5" x="227.977426" y="137.1141" style="fill: #ff7f0e; stroke: #ff7f0e"/>
     <use xlink:href="#m0c01fc0ee5" x="229.28378" y="147.972198" style="fill: #ff7f0e; stroke: #ff7f0e"/>
     <use xlink:href="#m0c01fc0ee5" x="230.590134" y="170.833348" style="fill: #ff7f0e; stroke: #ff7f0e"/>
     <use xlink:href="#m0c01fc0ee5" x="230.753428" y="176.609866" style="fill: #ff7f0e; stroke: #ff7f0e"/>
     <use xlink:href="#m0c01fc0ee5" x="230.916723" y="184.515079" style="fill: #ff7f0e; stroke: #ff7f0e"/>
     <use xlink:href="#m0c01fc0ee5" x="231.080017" y="197.106536" style="fill: #ff7f0e; stroke: #ff7f0e"/>
     <use xlink:href="#m0c01fc0ee5" x="231.161664" y="207.969966" style="fill: #ff7f0e; stroke: #ff7f0e"/>
     <use xlink:href="#m0c01fc0ee5" x="231.243311" y="230.856541" style="fill: #ff7f0e; stroke: #ff7f0e"/>
     <use xlink:href="#m0c01fc0ee5" x="231.263723" y="244.581407" style="fill: #ff7f0e; stroke: #ff7f0e"/>
     <use xlink:href="#m0c01fc0ee5" x="231.273929" y="255.58074" style="fill: #ff7f0e; stroke: #ff7f0e"/>
     <use xlink:href="#m0c01fc0ee5" x="231.27648" y="258.039826" style="fill: #ff7f0e; stroke: #ff7f0e"/>
     <use xlink:href="#m0c01fc0ee5" x="231.279032" y="259.498021" style="fill: #ff7f0e; stroke: #ff7f0e"/>
     <use xlink:href="#m0c01fc0ee5" x="231.284135" y="261.333023" style="fill: #ff7f0e; stroke: #ff7f0e"/>
     <use xlink:href="#m0c01fc0ee5" x="231.294341" y="263.444188" style="fill: #ff7f0e; stroke: #ff7f0e"/>
     <use xlink:href="#m0c01fc0ee5" x="231.314753" y="265.729937" style="fill: #ff7f0e; stroke: #ff7f0e"/>
     <use xlink:href="#m0c01fc0ee5" x="231.355576" y="268.115945" style="fill: #ff7f0e; stroke: #ff7f0e"/>
     <use xlink:href="#m0c01fc0ee5" x="231.437223" y="270.556364" style="fill: #ff7f0e; stroke: #ff7f0e"/>
     <use xlink:href="#m0c01fc0ee5" x="231.600517" y="273.025406" style="fill: #ff7f0e; stroke: #ff7f0e"/>
     <use xlink:href="#m0c01fc0ee5" x="231.927106" y="275.509255" style="fill: #ff7f0e; stroke: #ff7f0e"/>
     <use xlink:href="#m0c01fc0ee5" x="232.580283" y="278.0007" style="fill: #ff7f0e; stroke: #ff7f0e"/>
     <use xlink:href="#m0c01fc0ee5" x="233.886637" y="280.496023" style="fill: #ff7f0e; stroke: #ff7f0e"/>
     <use xlink:href="#m0c01fc0ee5" x="236.499346" y="282.993322" style="fill: #ff7f0e; stroke: #ff7f0e"/>
     <use xlink:href="#m0c01fc0ee5" x="241.724763" y="285.491626" style="fill: #ff7f0e; stroke: #ff7f0e"/>
     <use xlink:href="#m0c01fc0ee5" x="252.175597" y="287.990442" style="fill: #ff7f0e; stroke: #ff7f0e"/>
     <use xlink:href="#m0c01fc0ee5" x="273.077265" y="290.489517" style="fill: #ff7f0e; stroke: #ff7f0e"/>
     <use xlink:href="#m0c01fc0ee5" x="314.880601" y="292.988725" style="fill: #ff7f0e; stroke: #ff7f0e"/>
     <use xlink:href="#m0c01fc0ee5" x="398.487273" y="295.488" style="fill: #ff7f0e; stroke: #ff7f0e"/>
    </g>
   </g>
   <g id="line2d_44">
    <path d="M 57.6 294.316726 
L 414.72 294.316726 
" clip-path="url(#p92845c25ed)" style="fill: none; stroke-dasharray: 7.4,3.2; stroke-dashoffset: 0; stroke: #000080; stroke-width: 2"/>
   </g>
   <g id="patch_3">
    <path d="M 57.6 307.584 
L 57.6 41.472 
" style="fill: none; stroke: #000000; stroke-width: 0.8; stroke-linejoin: miter; stroke-linecap: square"/>
   </g>
   <g id="patch_4">
    <path d="M 414.72 307.584 
L 414.72 41.472 
" style="fill: none; stroke: #000000; stroke-width: 0.8; stroke-linejoin: miter; stroke-linecap: square"/>
   </g>
   <g id="patch_5">
    <path d="M 57.6 307.584 
L 414.72 307.584 
" style="fill: none; stroke: #000000; stroke-width: 0.8; stroke-linejoin: miter; stroke-linecap: square"/>
   </g>
   <g id="patch_6">
    <path d="M 57.6 41.472 
L 414.72 41.472 
" style="fill: none; stroke: #000000; stroke-width: 0.8; stroke-linejoin: miter; stroke-linecap: square"/>
   </g>
   <g id="text_15">
    <g id="patch_7">
     <path d="M 145.4522 305.62532 
L 206.331106 305.62532 
L 206.331106 283.008132 
L 145.4522 283.008132 
z
" style="fill: #ffffff; stroke: #ffffff; stroke-linejoin: miter"/>
    </g>
    <!-- 6000 K -->
    <g transform="translate(149.5022 298.455789)scale(0.15 -0.15)">
     <use xlink:href="#DejaVuSans-36"/>
     <use xlink:href="#DejaVuSans-30" x="63.623047"/>
     <use xlink:href="#DejaVuSans-30" x="127.246094"/>
     <use xlink:href="#DejaVuSans-30" x="190.869141"/>
     <use xlink:href="#DejaVuSans-20" x="254.492188"/>
     <use xlink:href="#DejaVuSans-4b" x="286.279297"/>
    </g>
   </g>
   <g id="text_16">
    <!-- Adaptive RK2 based on step halving and doubling -->
    <g transform="translate(86.4675 22.034625)scale(0.12 -0.12)">
     <defs>
      <path id="DejaVuSans-41" d="M 2188 4044 
L 1331 1722 
L 3047 1722 
L 2188 4044 
z
M 1831 4666 
L 2547 4666 
L 4325 0 
L 3669 0 
L 3244 1197 
L 1141 1197 
L 716 0 
L 50 0 
L 1831 4666 
z
" transform="scale(0.015625)"/>
      <path id="DejaVuSans-64" d="M 2906 2969 
L 2906 4863 
L 3481 4863 
L 3481 0 
L 2906 0 
L 2906 525 
Q 2725 213 2448 61 
Q 2172 -91 1784 -91 
Q 1150 -91 751 415 
Q 353 922 353 1747 
Q 353 2572 751 3078 
Q 1150 3584 1784 3584 
Q 2172 3584 2448 3432 
Q 2725 3281 2906 2969 
z
M 947 1747 
Q 947 1113 1208 752 
Q 1469 391 1925 391 
Q 2381 391 2643 752 
Q 2906 1113 2906 1747 
Q 2906 2381 2643 2742 
Q 2381 3103 1925 3103 
Q 1469 3103 1208 2742 
Q 947 2381 947 1747 
z
" transform="scale(0.015625)"/>
      <path id="DejaVuSans-61" d="M 2194 1759 
Q 1497 1759 1228 1600 
Q 959 1441 959 1056 
Q 959 750 1161 570 
Q 1363 391 1709 391 
Q 2188 391 2477 730 
Q 2766 1069 2766 1631 
L 2766 1759 
L 2194 1759 
z
M 3341 1997 
L 3341 0 
L 2766 0 
L 2766 531 
Q 2569 213 2275 61 
Q 1981 -91 1556 -91 
Q 1019 -91 701 211 
Q 384 513 384 1019 
Q 384 1609 779 1909 
Q 1175 2209 1959 2209 
L 2766 2209 
L 2766 2266 
Q 2766 2663 2505 2880 
Q 2244 3097 1772 3097 
Q 1472 3097 1187 3025 
Q 903 2953 641 2809 
L 641 3341 
Q 956 3463 1253 3523 
Q 1550 3584 1831 3584 
Q 2591 3584 2966 3190 
Q 3341 2797 3341 1997 
z
" transform="scale(0.015625)"/>
      <path id="DejaVuSans-70" d="M 1159 525 
L 1159 -1331 
L 581 -1331 
L 581 3500 
L 1159 3500 
L 1159 2969 
Q 1341 3281 1617 3432 
Q 1894 3584 2278 3584 
Q 2916 3584 3314 3078 
Q 3713 2572 3713 1747 
Q 3713 922 3314 415 
Q 2916 -91 2278 -91 
Q 1894 -91 1617 61 
Q 1341 213 1159 525 
z
M 3116 1747 
Q 3116 2381 2855 2742 
Q 2594 3103 2138 3103 
Q 1681 3103 1420 2742 
Q 1159 2381 1159 1747 
Q 1159 1113 1420 752 
Q 1681 391 2138 391 
Q 2594 391 2855 752 
Q 3116 1113 3116 1747 
z
" transform="scale(0.015625)"/>
      <path id="DejaVuSans-76" d="M 191 3500 
L 800 3500 
L 1894 563 
L 2988 3500 
L 3597 3500 
L 2284 0 
L 1503 0 
L 191 3500 
z
" transform="scale(0.015625)"/>
      <path id="DejaVuSans-52" d="M 2841 2188 
Q 3044 2119 3236 1894 
Q 3428 1669 3622 1275 
L 4263 0 
L 3584 0 
L 2988 1197 
Q 2756 1666 2539 1819 
Q 2322 1972 1947 1972 
L 1259 1972 
L 1259 0 
L 628 0 
L 628 4666 
L 2053 4666 
Q 2853 4666 3247 4331 
Q 3641 3997 3641 3322 
Q 3641 2881 3436 2590 
Q 3231 2300 2841 2188 
z
M 1259 4147 
L 1259 2491 
L 2053 2491 
Q 2509 2491 2742 2702 
Q 2975 2913 2975 3322 
Q 2975 3731 2742 3939 
Q 2509 4147 2053 4147 
L 1259 4147 
z
" transform="scale(0.015625)"/>
      <path id="DejaVuSans-62" d="M 3116 1747 
Q 3116 2381 2855 2742 
Q 2594 3103 2138 3103 
Q 1681 3103 1420 2742 
Q 1159 2381 1159 1747 
Q 1159 1113 1420 752 
Q 1681 391 2138 391 
Q 2594 391 2855 752 
Q 3116 1113 3116 1747 
z
M 1159 2969 
Q 1341 3281 1617 3432 
Q 1894 3584 2278 3584 
Q 2916 3584 3314 3078 
Q 3713 2572 3713 1747 
Q 3713 922 3314 415 
Q 2916 -91 2278 -91 
Q 1894 -91 1617 61 
Q 1341 213 1159 525 
L 1159 0 
L 581 0 
L 581 4863 
L 1159 4863 
L 1159 2969 
z
" transform="scale(0.015625)"/>
      <path id="DejaVuSans-6f" d="M 1959 3097 
Q 1497 3097 1228 2736 
Q 959 2375 959 1747 
Q 959 1119 1226 758 
Q 1494 397 1959 397 
Q 2419 397 2687 759 
Q 2956 1122 2956 1747 
Q 2956 2369 2687 2733 
Q 2419 3097 1959 3097 
z
M 1959 3584 
Q 2709 3584 3137 3096 
Q 3566 2609 3566 1747 
Q 3566 888 3137 398 
Q 2709 -91 1959 -91 
Q 1206 -91 779 398 
Q 353 888 353 1747 
Q 353 2609 779 3096 
Q 1206 3584 1959 3584 
z
" transform="scale(0.015625)"/>
      <path id="DejaVuSans-68" d="M 3513 2113 
L 3513 0 
L 2938 0 
L 2938 2094 
Q 2938 2591 2744 2837 
Q 2550 3084 2163 3084 
Q 1697 3084 1428 2787 
Q 1159 2491 1159 1978 
L 1159 0 
L 581 0 
L 581 4863 
L 1159 4863 
L 1159 2956 
Q 1366 3272 1645 3428 
Q 1925 3584 2291 3584 
Q 2894 3584 3203 3211 
Q 3513 2838 3513 2113 
z
" transform="scale(0.015625)"/>
      <path id="DejaVuSans-6c" d="M 603 4863 
L 1178 4863 
L 1178 0 
L 603 0 
L 603 4863 
z
" transform="scale(0.015625)"/>
      <path id="DejaVuSans-67" d="M 2906 1791 
Q 2906 2416 2648 2759 
Q 2391 3103 1925 3103 
Q 1463 3103 1205 2759 
Q 947 2416 947 1791 
Q 947 1169 1205 825 
Q 1463 481 1925 481 
Q 2391 481 2648 825 
Q 2906 1169 2906 1791 
z
M 3481 434 
Q 3481 -459 3084 -895 
Q 2688 -1331 1869 -1331 
Q 1566 -1331 1297 -1286 
Q 1028 -1241 775 -1147 
L 775 -588 
Q 1028 -725 1275 -790 
Q 1522 -856 1778 -856 
Q 2344 -856 2625 -561 
Q 2906 -266 2906 331 
L 2906 616 
Q 2728 306 2450 153 
Q 2172 0 1784 0 
Q 1141 0 747 490 
Q 353 981 353 1791 
Q 353 2603 747 3093 
Q 1141 3584 1784 3584 
Q 2172 3584 2450 3431 
Q 2728 3278 2906 2969 
L 2906 3500 
L 3481 3500 
L 3481 434 
z
" transform="scale(0.015625)"/>
      <path id="DejaVuSans-75" d="M 544 1381 
L 544 3500 
L 1119 3500 
L 1119 1403 
Q 1119 906 1312 657 
Q 1506 409 1894 409 
Q 2359 409 2629 706 
Q 2900 1003 2900 1516 
L 2900 3500 
L 3475 3500 
L 3475 0 
L 2900 0 
L 2900 538 
Q 2691 219 2414 64 
Q 2138 -91 1772 -91 
Q 1169 -91 856 284 
Q 544 659 544 1381 
z
M 1991 3584 
L 1991 3584 
z
" transform="scale(0.015625)"/>
     </defs>
     <use xlink:href="#DejaVuSans-41"/>
     <use xlink:href="#DejaVuSans-64" x="66.658203"/>
     <use xlink:href="#DejaVuSans-61" x="130.134766"/>
     <use xlink:href="#DejaVuSans-70" x="191.414062"/>
     <use xlink:href="#DejaVuSans-74" x="254.890625"/>
     <use xlink:href="#DejaVuSans-69" x="294.099609"/>
     <use xlink:href="#DejaVuSans-76" x="321.882812"/>
     <use xlink:href="#DejaVuSans-65" x="381.0625"/>
     <use xlink:href="#DejaVuSans-20" x="442.585938"/>
     <use xlink:href="#DejaVuSans-52" x="474.373047"/>
     <use xlink:href="#DejaVuSans-4b" x="543.855469"/>
     <use xlink:href="#DejaVuSans-32" x="609.431641"/>
     <use xlink:href="#DejaVuSans-20" x="673.054688"/>
     <use xlink:href="#DejaVuSans-62" x="704.841797"/>
     <use xlink:href="#DejaVuSans-61" x="768.318359"/>
     <use xlink:href="#DejaVuSans-73" x="829.597656"/>
     <use xlink:href="#DejaVuSans-65" x="881.697266"/>
     <use xlink:href="#DejaVuSans-64" x="943.220703"/>
     <use xlink:href="#DejaVuSans-20" x="1006.697266"/>
     <use xlink:href="#DejaVuSans-6f" x="1038.484375"/>
     <use xlink:href="#DejaVuSans-6e" x="1099.666016"/>
     <use xlink:href="#DejaVuSans-20" x="1163.044922"/>
     <use xlink:href="#DejaVuSans-73" x="1194.832031"/>
     <use xlink:href="#DejaVuSans-74" x="1246.931641"/>
     <use xlink:href="#DejaVuSans-65" x="1286.140625"/>
     <use xlink:href="#DejaVuSans-70" x="1347.664062"/>
     <use xlink:href="#DejaVuSans-20" x="1411.140625"/>
     <use xlink:href="#DejaVuSans-68" x="1442.927734"/>
     <use xlink:href="#DejaVuSans-61" x="1506.306641"/>
     <use xlink:href="#DejaVuSans-6c" x="1567.585938"/>
     <use xlink:href="#DejaVuSans-76" x="1595.369141"/>
     <use xlink:href="#DejaVuSans-69" x="1654.548828"/>
     <use xlink:href="#DejaVuSans-6e" x="1682.332031"/>
     <use xlink:href="#DejaVuSans-67" x="1745.710938"/>
     <use xlink:href="#DejaVuSans-20" x="1809.1875"/>
     <use xlink:href="#DejaVuSans-61" x="1840.974609"/>
     <use xlink:href="#DejaVuSans-6e" x="1902.253906"/>
     <use xlink:href="#DejaVuSans-64" x="1965.632812"/>
     <use xlink:href="#DejaVuSans-20" x="2029.109375"/>
     <use xlink:href="#DejaVuSans-64" x="2060.896484"/>
     <use xlink:href="#DejaVuSans-6f" x="2124.373047"/>
     <use xlink:href="#DejaVuSans-75" x="2185.554688"/>
     <use xlink:href="#DejaVuSans-62" x="2248.933594"/>
     <use xlink:href="#DejaVuSans-6c" x="2312.410156"/>
     <use xlink:href="#DejaVuSans-69" x="2340.193359"/>
     <use xlink:href="#DejaVuSans-6e" x="2367.976562"/>
     <use xlink:href="#DejaVuSans-67" x="2431.355469"/>
    </g>
    <!-- max error = 200 K -->
    <g transform="translate(180.522188 35.472)scale(0.12 -0.12)">
     <defs>
      <path id="DejaVuSans-78" d="M 3513 3500 
L 2247 1797 
L 3578 0 
L 2900 0 
L 1881 1375 
L 863 0 
L 184 0 
L 1544 1831 
L 300 3500 
L 978 3500 
L 1906 2253 
L 2834 3500 
L 3513 3500 
z
" transform="scale(0.015625)"/>
      <path id="DejaVuSans-72" d="M 2631 2963 
Q 2534 3019 2420 3045 
Q 2306 3072 2169 3072 
Q 1681 3072 1420 2755 
Q 1159 2438 1159 1844 
L 1159 0 
L 581 0 
L 581 3500 
L 1159 3500 
L 1159 2956 
Q 1341 3275 1631 3429 
Q 1922 3584 2338 3584 
Q 2397 3584 2469 3576 
Q 2541 3569 2628 3553 
L 2631 2963 
z
" transform="scale(0.015625)"/>
      <path id="DejaVuSans-3d" d="M 678 2906 
L 4684 2906 
L 4684 2381 
L 678 2381 
L 678 2906 
z
M 678 1631 
L 4684 1631 
L 4684 1100 
L 678 1100 
L 678 1631 
z
" transform="scale(0.015625)"/>
     </defs>
     <use xlink:href="#DejaVuSans-6d"/>
     <use xlink:href="#DejaVuSans-61" x="97.412109"/>
     <use xlink:href="#DejaVuSans-78" x="158.691406"/>
     <use xlink:href="#DejaVuSans-20" x="217.871094"/>
     <use xlink:href="#DejaVuSans-65" x="249.658203"/>
     <use xlink:href="#DejaVuSans-72" x="311.181641"/>
     <use xlink:href="#DejaVuSans-72" x="350.544922"/>
     <use xlink:href="#DejaVuSans-6f" x="389.408203"/>
     <use xlink:href="#DejaVuSans-72" x="450.589844"/>
     <use xlink:href="#DejaVuSans-20" x="491.703125"/>
     <use xlink:href="#DejaVuSans-3d" x="523.490234"/>
     <use xlink:href="#DejaVuSans-20" x="607.279297"/>
     <use xlink:href="#DejaVuSans-32" x="639.066406"/>
     <use xlink:href="#DejaVuSans-30" x="702.689453"/>
     <use xlink:href="#DejaVuSans-30" x="766.3125"/>
     <use xlink:href="#DejaVuSans-20" x="829.935547"/>
     <use xlink:href="#DejaVuSans-4b" x="861.722656"/>
    </g>
   </g>
   <g id="legend_1">
    <g id="patch_8">
     <path d="M 247.3075 101.223875 
L 407.72 101.223875 
Q 409.72 101.223875 409.72 99.223875 
L 409.72 48.472 
Q 409.72 46.472 407.72 46.472 
L 247.3075 46.472 
Q 245.3075 46.472 245.3075 48.472 
L 245.3075 99.223875 
Q 245.3075 101.223875 247.3075 101.223875 
z
" style="fill: #ffffff; opacity: 0.8; stroke: #cccccc; stroke-linejoin: miter"/>
    </g>
    <g id="line2d_45">
     <path d="M 249.3075 61.209187 
L 259.3075 61.209187 
L 269.3075 61.209187 
" style="fill: none; stroke: #1f77b4; stroke-width: 1.5; stroke-linecap: square"/>
    </g>
    <g id="text_17">
     <!-- step size = 1E+10 s, -->
     <g transform="translate(277.3075 58.070437)scale(0.1 -0.1)">
      <defs>
       <path id="DejaVuSans-7a" d="M 353 3500 
L 3084 3500 
L 3084 2975 
L 922 459 
L 3084 459 
L 3084 0 
L 275 0 
L 275 525 
L 2438 3041 
L 353 3041 
L 353 3500 
z
" transform="scale(0.015625)"/>
       <path id="DejaVuSans-45" d="M 628 4666 
L 3578 4666 
L 3578 4134 
L 1259 4134 
L 1259 2753 
L 3481 2753 
L 3481 2222 
L 1259 2222 
L 1259 531 
L 3634 531 
L 3634 0 
L 628 0 
L 628 4666 
z
" transform="scale(0.015625)"/>
       <path id="DejaVuSans-2b" d="M 2944 4013 
L 2944 2272 
L 4684 2272 
L 4684 1741 
L 2944 1741 
L 2944 0 
L 2419 0 
L 2419 1741 
L 678 1741 
L 678 2272 
L 2419 2272 
L 2419 4013 
L 2944 4013 
z
" transform="scale(0.015625)"/>
       <path id="DejaVuSans-2c" d="M 750 794 
L 1409 794 
L 1409 256 
L 897 -744 
L 494 -744 
L 750 256 
L 750 794 
z
" transform="scale(0.015625)"/>
      </defs>
      <use xlink:href="#DejaVuSans-73"/>
      <use xlink:href="#DejaVuSans-74" x="52.099609"/>
      <use xlink:href="#DejaVuSans-65" x="91.308594"/>
      <use xlink:href="#DejaVuSans-70" x="152.832031"/>
      <use xlink:href="#DejaVuSans-20" x="216.308594"/>
      <use xlink:href="#DejaVuSans-73" x="248.095703"/>
      <use xlink:href="#DejaVuSans-69" x="300.195312"/>
      <use xlink:href="#DejaVuSans-7a" x="327.978516"/>
      <use xlink:href="#DejaVuSans-65" x="380.46875"/>
      <use xlink:href="#DejaVuSans-20" x="441.992188"/>
      <use xlink:href="#DejaVuSans-3d" x="473.779297"/>
      <use xlink:href="#DejaVuSans-20" x="557.568359"/>
      <use xlink:href="#DejaVuSans-31" x="589.355469"/>
      <use xlink:href="#DejaVuSans-45" x="652.978516"/>
      <use xlink:href="#DejaVuSans-2b" x="716.162109"/>
      <use xlink:href="#DejaVuSans-31" x="799.951172"/>
      <use xlink:href="#DejaVuSans-30" x="863.574219"/>
      <use xlink:href="#DejaVuSans-20" x="927.197266"/>
      <use xlink:href="#DejaVuSans-73" x="958.984375"/>
      <use xlink:href="#DejaVuSans-2c" x="1011.083984"/>
     </g>
     <!-- number of steps = 54225 -->
     <g transform="translate(277.3075 69.26825)scale(0.1 -0.1)">
      <defs>
       <path id="DejaVuSans-66" d="M 2375 4863 
L 2375 4384 
L 1825 4384 
Q 1516 4384 1395 4259 
Q 1275 4134 1275 3809 
L 1275 3500 
L 2222 3500 
L 2222 3053 
L 1275 3053 
L 1275 0 
L 697 0 
L 697 3053 
L 147 3053 
L 147 3500 
L 697 3500 
L 697 3744 
Q 697 4328 969 4595 
Q 1241 4863 1831 4863 
L 2375 4863 
z
" transform="scale(0.015625)"/>
      </defs>
      <use xlink:href="#DejaVuSans-6e"/>
      <use xlink:href="#DejaVuSans-75" x="63.378906"/>
      <use xlink:href="#DejaVuSans-6d" x="126.757812"/>
      <use xlink:href="#DejaVuSans-62" x="224.169922"/>
      <use xlink:href="#DejaVuSans-65" x="287.646484"/>
      <use xlink:href="#DejaVuSans-72" x="349.169922"/>
      <use xlink:href="#DejaVuSans-20" x="390.283203"/>
      <use xlink:href="#DejaVuSans-6f" x="422.070312"/>
      <use xlink:href="#DejaVuSans-66" x="483.251953"/>
      <use xlink:href="#DejaVuSans-20" x="518.457031"/>
      <use xlink:href="#DejaVuSans-73" x="550.244141"/>
      <use xlink:href="#DejaVuSans-74" x="602.34375"/>
      <use xlink:href="#DejaVuSans-65" x="641.552734"/>
      <use xlink:href="#DejaVuSans-70" x="703.076172"/>
      <use xlink:href="#DejaVuSans-73" x="766.552734"/>
      <use xlink:href="#DejaVuSans-20" x="818.652344"/>
      <use xlink:href="#DejaVuSans-3d" x="850.439453"/>
      <use xlink:href="#DejaVuSans-20" x="934.228516"/>
      <use xlink:href="#DejaVuSans-35" x="966.015625"/>
      <use xlink:href="#DejaVuSans-34" x="1029.638672"/>
      <use xlink:href="#DejaVuSans-32" x="1093.261719"/>
      <use xlink:href="#DejaVuSans-32" x="1156.884766"/>
      <use xlink:href="#DejaVuSans-35" x="1220.507812"/>
     </g>
    </g>
    <g id="line2d_46">
     <path d="M 249.3075 87.085125 
L 259.3075 87.085125 
L 269.3075 87.085125 
" style="fill: none; stroke: #ff7f0e; stroke-width: 1.5; stroke-linecap: square"/>
     <g>
      <use xlink:href="#m0c01fc0ee5" x="259.3075" y="87.085125" style="fill: #ff7f0e; stroke: #ff7f0e"/>
     </g>
    </g>
    <g id="text_18">
     <!-- adaptive step size, -->
     <g transform="translate(277.3075 83.946375)scale(0.1 -0.1)">
      <use xlink:href="#DejaVuSans-61"/>
      <use xlink:href="#DejaVuSans-64" x="61.279297"/>
      <use xlink:href="#DejaVuSans-61" x="124.755859"/>
      <use xlink:href="#DejaVuSans-70" x="186.035156"/>
      <use xlink:href="#DejaVuSans-74" x="249.511719"/>
      <use xlink:href="#DejaVuSans-69" x="288.720703"/>
      <use xlink:href="#DejaVuSans-76" x="316.503906"/>
      <use xlink:href="#DejaVuSans-65" x="375.683594"/>
      <use xlink:href="#DejaVuSans-20" x="437.207031"/>
      <use xlink:href="#DejaVuSans-73" x="468.994141"/>
      <use xlink:href="#DejaVuSans-74" x="521.09375"/>
      <use xlink:href="#DejaVuSans-65" x="560.302734"/>
      <use xlink:href="#DejaVuSans-70" x="621.826172"/>
      <use xlink:href="#DejaVuSans-20" x="685.302734"/>
      <use xlink:href="#DejaVuSans-73" x="717.089844"/>
      <use xlink:href="#DejaVuSans-69" x="769.189453"/>
      <use xlink:href="#DejaVuSans-7a" x="796.972656"/>
      <use xlink:href="#DejaVuSans-65" x="849.462891"/>
      <use xlink:href="#DejaVuSans-2c" x="910.986328"/>
     </g>
     <!-- number of steps = 58 -->
     <g transform="translate(277.3075 95.144187)scale(0.1 -0.1)">
      <defs>
       <path id="DejaVuSans-38" d="M 2034 2216 
Q 1584 2216 1326 1975 
Q 1069 1734 1069 1313 
Q 1069 891 1326 650 
Q 1584 409 2034 409 
Q 2484 409 2743 651 
Q 3003 894 3003 1313 
Q 3003 1734 2745 1975 
Q 2488 2216 2034 2216 
z
M 1403 2484 
Q 997 2584 770 2862 
Q 544 3141 544 3541 
Q 544 4100 942 4425 
Q 1341 4750 2034 4750 
Q 2731 4750 3128 4425 
Q 3525 4100 3525 3541 
Q 3525 3141 3298 2862 
Q 3072 2584 2669 2484 
Q 3125 2378 3379 2068 
Q 3634 1759 3634 1313 
Q 3634 634 3220 271 
Q 2806 -91 2034 -91 
Q 1263 -91 848 271 
Q 434 634 434 1313 
Q 434 1759 690 2068 
Q 947 2378 1403 2484 
z
M 1172 3481 
Q 1172 3119 1398 2916 
Q 1625 2713 2034 2713 
Q 2441 2713 2670 2916 
Q 2900 3119 2900 3481 
Q 2900 3844 2670 4047 
Q 2441 4250 2034 4250 
Q 1625 4250 1398 4047 
Q 1172 3844 1172 3481 
z
" transform="scale(0.015625)"/>
      </defs>
      <use xlink:href="#DejaVuSans-6e"/>
      <use xlink:href="#DejaVuSans-75" x="63.378906"/>
      <use xlink:href="#DejaVuSans-6d" x="126.757812"/>
      <use xlink:href="#DejaVuSans-62" x="224.169922"/>
      <use xlink:href="#DejaVuSans-65" x="287.646484"/>
      <use xlink:href="#DejaVuSans-72" x="349.169922"/>
      <use xlink:href="#DejaVuSans-20" x="390.283203"/>
      <use xlink:href="#DejaVuSans-6f" x="422.070312"/>
      <use xlink:href="#DejaVuSans-66" x="483.251953"/>
      <use xlink:href="#DejaVuSans-20" x="518.457031"/>
      <use xlink:href="#DejaVuSans-73" x="550.244141"/>
      <use xlink:href="#DejaVuSans-74" x="602.34375"/>
      <use xlink:href="#DejaVuSans-65" x="641.552734"/>
      <use xlink:href="#DejaVuSans-70" x="703.076172"/>
      <use xlink:href="#DejaVuSans-73" x="766.552734"/>
      <use xlink:href="#DejaVuSans-20" x="818.652344"/>
      <use xlink:href="#DejaVuSans-3d" x="850.439453"/>
      <use xlink:href="#DejaVuSans-20" x="934.228516"/>
      <use xlink:href="#DejaVuSans-35" x="966.015625"/>
      <use xlink:href="#DejaVuSans-38" x="1029.638672"/>
     </g>
    </g>
   </g>
  </g>
 </g>
 <defs>
  <clipPath id="p92845c25ed">
   <rect x="57.6" y="41.472" width="357.12" height="266.112"/>
  </clipPath>
 </defs>
</svg>
