<svg width="383" height="221" xmlns="http://www.w3.org/2000/svg" xmlns:xlink="http://www.w3.org/1999/xlink" xml:space="preserve" overflow="hidden"><g><path d="M490.545 156.724 662.519 156.724" stroke="#000000" stroke-width="5.2414" stroke-linecap="round" stroke-linejoin="round" stroke-miterlimit="1.5" fill="none" fill-rule="evenodd" transform="matrix(1.00017 0 0 1 -435.744 16.4416)"/><path d="M875.121 207.016 854.171 186.066" stroke="#000000" stroke-width="5.24142" stroke-linecap="round" stroke-linejoin="round" stroke-miterlimit="1.5" fill="none" fill-rule="evenodd" transform="matrix(1.00017 0 0 1 -648.381 -33.851)"/><path d="M875.121 207.016 852.211 229.926" stroke="#000000" stroke-width="5.24142" stroke-linecap="round" stroke-linejoin="round" stroke-miterlimit="1.5" fill="none" fill-rule="evenodd" transform="matrix(1.00017 0 0 1 -648.381 -33.851)"/><path d="M745.838 200.157 745.838 215.833" stroke="#000000" stroke-width="5.24142" stroke-linecap="round" stroke-linejoin="round" stroke-miterlimit="1.5" fill="none" fill-rule="evenodd" transform="matrix(1.00017 0 0 1 -648.381 -33.851)"/><path d="M1429.84 459.106 1421.58 448.502 1425.95 448.502 1432.28 457.015 1438.31 448.502 1442.3 448.502 1434.37 459.106 1443.91 471.268 1439.52 471.268 1431.89 461.296 1424.55 471.268 1420.46 471.268 1429.84 459.106Z" stroke="#000000" stroke-width="0.393586" stroke-linejoin="round" stroke-miterlimit="2" transform="matrix(1.00017 0 0 1 -1343.06 -258.543)"/><path d="M981.543 314.888C980.973 314.888 980.531 315.039 980.201 315.341 979.875 315.644 979.631 316.019 979.463 316.467 979.301 316.916 979.194 317.393 979.148 317.9 979.107 318.407 979.087 318.865 979.087 319.274 979.087 319.684 979.107 320.142 979.148 320.649 979.194 321.155 979.301 321.633 979.463 322.081 979.631 322.53 979.875 322.905 980.201 323.207 980.531 323.509 980.973 323.66 981.543 323.66 982.107 323.66 982.555 323.509 982.88 323.207 983.205 322.905 983.449 322.53 983.617 322.081 983.785 321.633 983.887 321.155 983.932 320.649 983.973 320.142 983.998 319.684 983.998 319.274 983.998 318.865 983.973 318.407 983.932 317.9 983.887 317.393 983.785 316.916 983.617 316.467 983.449 316.019 983.205 315.644 982.88 315.341 982.555 315.039 982.107 314.888 981.543 314.888ZM981.543 313.923C982.28 313.923 982.88 314.094 983.338 314.435 983.795 314.776 984.151 315.21 984.405 315.736 984.659 316.262 984.832 316.84 984.919 317.468 985.005 318.097 985.051 318.699 985.051 319.274 985.051 319.849 985.005 320.451 984.919 321.08 984.832 321.709 984.659 322.286 984.405 322.812 984.151 323.339 983.795 323.772 983.338 324.113 982.88 324.455 982.28 324.625 981.543 324.625 980.8 324.625 980.201 324.455 979.743 324.113 979.285 323.772 978.93 323.339 978.675 322.812 978.421 322.286 978.253 321.709 978.162 321.08 978.075 320.451 978.03 319.849 978.03 319.274 978.03 318.699 978.075 318.097 978.162 317.468 978.253 316.84 978.421 316.262 978.675 315.736 978.93 315.21 979.285 314.776 979.743 314.435 980.201 314.094 980.8 313.923 981.543 313.923Z" stroke="#000000" stroke-width="0.391484" stroke-linejoin="round" stroke-miterlimit="2" transform="matrix(1.00017 0 0 1 -873.599 -104.016)"/><path d="M603.114 167.892 686.394 49.8372" stroke="#69BE73" stroke-width="5.24216" stroke-linecap="round" stroke-linejoin="round" stroke-miterlimit="1.5" fill="none" fill-rule="evenodd" transform="matrix(1.00017 0 0 1 -505.336 5.96266)"/><path d="M813.174 42.8846C812.955 42.4563 812.658 42.1167 812.29 41.8656 811.919 41.6145 811.469 41.4889 810.937 41.4889 810.687 41.4889 810.432 41.5187 810.174 41.5777 809.916 41.6368 809.681 41.7291 809.474 41.8547 809.271 41.9802 809.103 42.139 808.977 42.3307 808.852 42.5227 808.79 42.759 808.79 43.0395 808.79 43.5268 808.958 43.8812 809.298 44.103 809.638 44.3244 810.147 44.5164 810.827 44.6788L812.31 45.0331C813.034 45.1955 813.636 45.524 814.117 46.0189 814.598 46.5137 814.837 47.1301 814.837 47.8686 814.837 48.4295 814.723 48.9134 814.493 49.3194 814.266 49.7254 813.961 50.0575 813.585 50.316 813.21 50.5746 812.775 50.7627 812.29 50.8809 811.801 50.999 811.309 51.058 810.804 51.058 810.006 51.058 809.267 50.9067 808.578 50.6039 807.894 50.3012 807.303 49.7809 806.818 49.0424L808.082 48.1784C808.375 48.6513 808.751 49.0276 809.2 49.3084 809.65 49.5889 810.186 49.7289 810.804 49.7289 811.101 49.7289 811.395 49.6961 811.692 49.6296 811.985 49.5631 812.247 49.4598 812.478 49.3194 812.705 49.179 812.889 48.9982 813.03 48.7765 813.17 48.5551 813.241 48.2965 813.241 48.0012 813.241 47.4845 813.049 47.1117 812.666 46.8829 812.283 46.6537 811.817 46.473 811.27 46.34L809.854 46.0079C809.674 45.9637 809.435 45.8898 809.134 45.7865 808.829 45.6828 808.535 45.528 808.246 45.321 807.96 45.1145 807.71 44.845 807.503 44.5125 807.299 44.1804 807.194 43.7705 807.194 43.2831 807.194 42.7516 807.299 42.2865 807.514 41.8879 807.73 41.4889 808.019 41.1643 808.379 40.9132 808.743 40.662 809.149 40.4739 809.607 40.3483 810.065 40.2228 810.538 40.1602 811.027 40.1602 811.751 40.1602 812.423 40.3002 813.041 40.5811 813.663 40.8615 814.141 41.3415 814.481 42.0209L813.174 42.8846Z" stroke="#51C46E" stroke-width="0.39115" stroke-linejoin="round" stroke-miterlimit="2" fill="#4DBF57" transform="matrix(1.00017 0 0 1 -725.848 -33.851)"/><path d="M819.245 36.4388C819.245 36.749 819.132 37.0036 818.913 37.2031 818.69 37.4022 818.447 37.5019 818.181 37.5019 817.915 37.5019 817.673 37.4022 817.45 37.2031 817.227 37.0036 817.117 36.749 817.117 36.4388 817.117 36.1286 817.227 35.874 817.45 35.6745 817.673 35.4754 817.915 35.3756 818.181 35.3756 818.447 35.3756 818.69 35.4754 818.913 35.6745 819.132 35.874 819.245 36.1286 819.245 36.4388ZM818.913 50.7924 817.45 50.7924 817.45 40.4258 818.913 40.4258 818.913 50.7924Z" stroke="#51C46E" stroke-width="0.39115" stroke-linejoin="round" stroke-miterlimit="2" fill="#4DBF57" transform="matrix(1.00017 0 0 1 -725.848 -33.851)"/><path d="M822.433 42.7297C822.433 42.3456 822.421 41.9618 822.402 41.5777 822.378 41.1936 822.351 40.8099 822.323 40.4258L823.896 40.4258 823.896 41.9986 823.939 41.9986C824.295 41.3931 824.784 40.9355 825.413 40.6253 826.039 40.3151 826.665 40.1602 827.283 40.1602 827.565 40.1602 827.866 40.1895 828.183 40.2486 828.5 40.3077 828.805 40.4148 829.102 40.5697 829.395 40.725 829.673 40.9429 829.931 41.2233 830.189 41.5038 830.409 41.8656 830.584 42.3088 830.882 41.6442 831.347 41.1201 831.993 40.736 832.634 40.3519 833.303 40.1602 833.995 40.1602 835.325 40.1602 836.307 40.5107 836.941 41.2124 837.578 41.9137 837.895 42.9143 837.895 44.2137L837.895 50.7924 836.432 50.7924 836.432 44.7453C836.432 43.6966 836.248 42.892 835.881 42.3307 835.509 41.7698 834.825 41.4889 833.819 41.4889 833.272 41.4889 832.814 41.5961 832.446 41.8105 832.075 42.0244 831.778 42.3088 831.551 42.6632 831.32 43.0176 831.152 43.42 831.05 43.8703 830.948 44.3209 830.893 44.7895 830.893 45.2768L830.893 50.7924 829.435 50.7924 829.435 44.7453C829.435 43.6966 829.251 42.892 828.879 42.3307 828.511 41.7698 827.823 41.4889 826.818 41.4889 826.732 41.4889 826.528 41.5187 826.211 41.5777 825.895 41.6368 825.566 41.7991 825.226 42.0651 824.885 42.3307 824.58 42.7297 824.307 43.2612 824.033 43.7928 823.896 44.5313 823.896 45.4763L823.896 50.7924 822.433 50.7924 822.433 42.7297Z" stroke="#51C46E" stroke-width="0.39115" stroke-linejoin="round" stroke-miterlimit="2" fill="#4DBF57" transform="matrix(1.00017 0 0 1 -725.848 -33.851)"/><path d="M850.764 45.6089C850.764 45.0331 850.674 44.4941 850.486 43.9923 850.302 43.4901 850.04 43.0543 849.7 42.6851 849.36 42.3162 848.953 42.0244 848.472 41.8105 847.991 41.5961 847.447 41.4889 846.845 41.4889 846.238 41.4889 845.683 41.5961 845.182 41.8105 844.682 42.0244 844.244 42.3162 843.876 42.6851 843.504 43.0543 843.219 43.4901 843.011 43.9923 842.804 44.4941 842.702 45.0331 842.702 45.6089 842.702 46.1851 842.804 46.7241 843.011 47.2259 843.219 47.7282 843.504 48.1639 843.876 48.5332 844.244 48.902 844.682 49.1938 845.182 49.4078 845.683 49.6221 846.238 49.7289 846.845 49.7289 847.447 49.7289 847.991 49.6221 848.472 49.4078 848.953 49.1938 849.36 48.902 849.7 48.5332 850.04 48.1639 850.302 47.7282 850.486 47.2259 850.674 46.7241 850.764 46.1851 850.764 45.6089ZM841.306 40.4258 842.769 40.4258 842.769 42.1535 842.812 42.1535C843.047 41.7991 843.328 41.4964 843.653 41.2456 843.977 40.9945 844.318 40.7876 844.674 40.6253 845.026 40.4629 845.393 40.3448 845.769 40.2709 846.144 40.197 846.504 40.1602 846.845 40.1602 847.654 40.1602 848.397 40.2967 849.07 40.5697 849.743 40.8431 850.322 41.2233 850.807 41.7107 851.296 42.1981 851.675 42.7739 851.949 43.4384 852.223 44.103 852.36 44.8266 852.36 45.6089 852.36 46.3916 852.223 47.1152 851.949 47.7798 851.675 48.4444 851.296 49.0201 850.807 49.5075 850.322 49.9949 849.743 50.3751 849.07 50.6485 848.397 50.9215 847.654 51.058 846.845 51.058 846.504 51.058 846.144 51.0213 845.769 50.9473 845.393 50.8734 845.026 50.7553 844.674 50.593 844.318 50.4306 843.977 50.2237 843.653 49.9726 843.328 49.7219 843.047 49.4191 842.812 49.0647L842.769 49.0647 842.769 57.1717 841.306 57.1717 841.306 40.4258Z" stroke="#51C46E" stroke-width="0.39115" stroke-linejoin="round" stroke-miterlimit="2" fill="#4DBF57" transform="matrix(1.00017 0 0 1 -725.848 -33.851)"/><path d="M855.172 34.0465 856.634 34.0465 856.634 50.7924 855.172 50.7924Z" stroke="#51C46E" stroke-width="0.39115" stroke-linejoin="round" stroke-miterlimit="2" fill="#4DBF57" transform="matrix(1.00017 0 0 1 -725.848 -33.851)"/><path d="M868.217 44.8118C868.217 43.8221 867.924 43.0211 867.333 42.4085 866.742 41.7956 865.913 41.4889 864.853 41.4889 864.38 41.4889 863.922 41.5812 863.48 41.7659 863.034 41.9505 862.647 42.1981 862.315 42.5079 861.982 42.8181 861.716 43.1724 861.517 43.5714 861.317 43.97 861.219 44.3834 861.219 44.8118L868.217 44.8118ZM861.176 46.0079C861.219 46.5246 861.345 47.012 861.552 47.4696 861.759 47.9277 862.033 48.3227 862.369 48.6548 862.71 48.9869 863.101 49.2494 863.547 49.441 863.989 49.6331 864.47 49.7289 864.986 49.7289 865.768 49.7289 866.445 49.5482 867.012 49.1864 867.58 48.8246 868.014 48.4076 868.307 47.9351L869.438 48.8653C868.815 49.6479 868.135 50.2089 867.388 50.5488 866.641 50.8883 865.843 51.058 864.986 51.058 864.216 51.058 863.504 50.9215 862.847 50.6485 862.189 50.3751 861.626 49.9949 861.153 49.5075 860.68 49.0201 860.308 48.4444 860.034 47.7798 859.76 47.1152 859.623 46.3916 859.623 45.6089 859.623 44.8266 859.757 44.103 860.022 43.4384 860.288 42.7739 860.66 42.1981 861.129 41.7107 861.603 41.2233 862.158 40.8431 862.792 40.5697 863.425 40.2967 864.114 40.1602 864.853 40.1602 865.635 40.1602 866.336 40.3002 866.958 40.5811 867.576 40.8615 868.096 41.2343 868.518 41.6994 868.937 42.1648 869.261 42.7109 869.48 43.3387 869.703 43.9661 869.813 44.6346 869.813 45.3433L869.813 46.0079 861.176 46.0079Z" stroke="#51C46E" stroke-width="0.39115" stroke-linejoin="round" stroke-miterlimit="2" fill="#4DBF57" transform="matrix(1.00017 0 0 1 -725.848 -33.851)"/><path d="M884.52 45.6312C884.153 45.6312 883.691 45.6496 883.136 45.6868 882.584 45.7235 882.052 45.8123 881.544 45.9524 881.031 46.0928 880.597 46.3106 880.237 46.606 879.873 46.9013 879.693 47.3073 879.693 47.824 879.693 48.1639 879.764 48.4553 879.905 48.699 880.045 48.9427 880.233 49.1422 880.468 49.2971 880.703 49.4524 880.965 49.5631 881.254 49.6296 881.544 49.6961 881.833 49.7289 882.13 49.7289 882.662 49.7289 883.124 49.6405 883.515 49.4633 883.906 49.2861 884.235 49.046 884.501 48.7436 884.767 48.4409 884.962 48.0865 885.087 47.6801 885.213 47.2741 885.275 46.8422 885.275 46.3842L885.275 45.6312 884.52 45.6312ZM885.275 44.4351 885.275 44.1695C885.275 42.3823 884.387 41.4889 882.615 41.4889 881.407 41.4889 880.351 41.8953 879.451 42.7074L878.563 41.6661C879.537 40.662 881 40.1602 882.948 40.1602 883.452 40.1602 883.934 40.2337 884.399 40.3816 884.864 40.5294 885.267 40.7544 885.608 41.0571 885.948 41.3599 886.222 41.7401 886.425 42.1981 886.632 42.6557 886.738 43.2022 886.738 43.837L886.738 48.4667C886.738 48.8653 886.754 49.2822 886.793 49.718 886.828 50.1537 886.871 50.5116 886.914 50.7924L885.498 50.7924C885.451 50.5413 885.42 50.2679 885.396 49.9726 885.373 49.6773 885.365 49.3894 885.365 49.1089L885.318 49.1089C884.892 49.8028 884.383 50.3012 883.801 50.6039 883.218 50.9067 882.506 51.058 881.665 51.058 881.207 51.058 880.761 50.9955 880.335 50.8699 879.909 50.7443 879.525 50.5523 879.193 50.2941 878.864 50.0356 878.594 49.718 878.399 49.3413 878.199 48.965 878.098 48.5257 878.098 48.0235 878.098 47.1817 878.317 46.5211 878.751 46.0411 879.189 45.5612 879.733 45.2029 880.39 44.9667 881.047 44.7304 881.747 44.5829 882.494 44.5239 883.241 44.4648 883.922 44.4351 884.544 44.4351L885.275 44.4351Z" stroke="#51C46E" stroke-width="0.39115" stroke-linejoin="round" stroke-miterlimit="2" fill="#4DBF57" transform="matrix(1.00017 0 0 1 -725.848 -33.851)"/><path d="M891.013 45.6089C891.013 46.1851 891.103 46.7241 891.287 47.2259 891.475 47.7282 891.737 48.1639 892.073 48.5332 892.414 48.902 892.824 49.1938 893.305 49.4078 893.783 49.6221 894.326 49.7289 894.933 49.7289 895.523 49.7289 896.075 49.6221 896.583 49.4078 897.092 49.1938 897.53 48.902 897.901 48.5332 898.269 48.1639 898.559 47.7282 898.766 47.2259 898.969 46.7241 899.075 46.1851 899.075 45.6089 899.075 45.0331 898.969 44.4941 898.766 43.9923 898.559 43.4901 898.269 43.0543 897.901 42.6851 897.53 42.3162 897.092 42.0244 896.583 41.8105 896.075 41.5961 895.523 41.4889 894.933 41.4889 894.326 41.4889 893.783 41.5961 893.305 41.8105 892.824 42.0244 892.414 42.3162 892.073 42.6851 891.737 43.0543 891.475 43.4901 891.287 43.9923 891.103 44.4941 891.013 45.0331 891.013 45.6089ZM900.471 50.7924 899.008 50.7924 899.008 49.0647 898.965 49.0647C898.727 49.4191 898.445 49.7219 898.121 49.9726 897.796 50.2237 897.459 50.4306 897.104 50.593 896.748 50.7553 896.384 50.8734 896.008 50.9473 895.629 51.0213 895.273 51.058 894.933 51.058 894.119 51.058 893.38 50.9215 892.707 50.6485 892.034 50.3751 891.455 49.9949 890.966 49.5075 890.481 49.0201 890.098 48.4444 889.828 47.7798 889.554 47.1152 889.417 46.3916 889.417 45.6089 889.417 44.8266 889.554 44.103 889.828 43.4384 890.098 42.7739 890.481 42.1981 890.966 41.7107 891.455 41.2233 892.034 40.8431 892.707 40.5697 893.38 40.2967 894.119 40.1602 894.933 40.1602 895.273 40.1602 895.629 40.197 896.008 40.2709 896.384 40.3448 896.748 40.4629 897.104 40.6253 897.459 40.7876 897.796 40.9945 898.121 41.2456 898.445 41.4964 898.727 41.7991 898.965 42.1535L899.008 42.1535 899.008 34.0465 900.471 34.0465 900.471 50.7924Z" stroke="#51C46E" stroke-width="0.39115" stroke-linejoin="round" stroke-miterlimit="2" fill="#4DBF57" transform="matrix(1.00017 0 0 1 -725.848 -33.851)"/><path d="M908.224 50.7924 906.585 50.7924 902.376 40.4258 904.125 40.4258 907.426 49.1531 907.469 49.1531 910.77 40.4258 912.433 40.4258 908.224 50.7924Z" stroke="#51C46E" stroke-width="0.39115" stroke-linejoin="round" stroke-miterlimit="2" fill="#4DBF57" transform="matrix(1.00017 0 0 1 -725.848 -33.851)"/><path d="M922.399 44.8118C922.399 43.8221 922.102 43.0211 921.511 42.4085 920.921 41.7956 920.095 41.4889 919.031 41.4889 918.558 41.4889 918.1 41.5812 917.659 41.7659 917.216 41.9505 916.829 42.1981 916.497 42.5079 916.164 42.8181 915.898 43.1724 915.699 43.5714 915.499 43.97 915.398 44.3834 915.398 44.8118L922.399 44.8118ZM915.355 46.0079C915.398 46.5246 915.527 47.012 915.73 47.4696 915.937 47.9277 916.211 48.3227 916.552 48.6548 916.892 48.9869 917.283 49.2494 917.725 49.441 918.167 49.6331 918.648 49.7289 919.164 49.7289 919.947 49.7289 920.623 49.5482 921.191 49.1864 921.762 48.8246 922.192 48.4076 922.489 47.9351L923.616 48.8653C922.998 49.6479 922.313 50.2089 921.57 50.5488 920.823 50.8883 920.021 51.058 919.164 51.058 918.398 51.058 917.686 50.9215 917.029 50.6485 916.372 50.3751 915.804 49.9949 915.335 49.5075 914.862 49.0201 914.486 48.4444 914.212 47.7798 913.943 47.1152 913.806 46.3916 913.806 45.6089 913.806 44.8266 913.939 44.103 914.205 43.4384 914.471 42.7739 914.838 42.1981 915.312 41.7107 915.785 41.2233 916.336 40.8431 916.974 40.5697 917.608 40.2967 918.292 40.1602 919.031 40.1602 919.814 40.1602 920.518 40.3002 921.136 40.5811 921.758 40.8615 922.278 41.2343 922.696 41.6994 923.119 42.1648 923.44 42.7109 923.663 43.3387 923.882 43.9661 923.995 44.6346 923.995 45.3433L923.995 46.0079 915.355 46.0079Z" stroke="#51C46E" stroke-width="0.39115" stroke-linejoin="round" stroke-miterlimit="2" fill="#4DBF57" transform="matrix(1.00017 0 0 1 -725.848 -33.851)"/><path d="M934.204 42.8623C933.954 42.4785 933.602 42.1535 933.152 41.8879 932.702 41.6219 932.19 41.4889 931.615 41.4889 931.008 41.4745 930.465 41.5703 929.988 41.7772 929.506 41.9837 929.096 42.2716 928.755 42.6409 928.415 43.0101 928.157 43.4494 927.981 43.9591 927.805 44.4683 927.715 45.0183 927.715 45.6089 927.715 46.2 927.805 46.7499 927.981 47.2592 928.157 47.7689 928.415 48.2081 928.755 48.5774 929.096 48.9466 929.506 49.2345 929.988 49.441 930.465 49.6479 931.008 49.7438 931.615 49.7289 932.19 49.7289 932.702 49.5963 933.152 49.3303 933.602 49.0647 933.954 48.7397 934.204 48.3556L935.401 49.2638C934.885 49.8693 934.302 50.316 933.653 50.6039 933.003 50.8922 932.323 51.0432 931.615 51.058 930.774 51.0729 930.011 50.9438 929.33 50.6704 928.654 50.3974 928.075 50.0172 927.594 49.5298 927.113 49.0424 926.749 48.4628 926.498 47.7908 926.244 47.1192 926.119 46.3916 926.119 45.6089 926.119 44.8266 926.244 44.0991 926.498 43.4275 926.749 42.7555 927.113 42.1758 927.594 41.6884 928.075 41.201 928.654 40.8209 929.33 40.5478 930.011 40.2744 930.774 40.1453 931.615 40.1602 932.323 40.1747 933.003 40.326 933.653 40.6143 934.302 40.9022 934.885 41.3489 935.401 41.9544L934.204 42.8623Z" stroke="#51C46E" stroke-width="0.39115" stroke-linejoin="round" stroke-miterlimit="2" fill="#4DBF57" transform="matrix(1.00017 0 0 1 -725.848 -33.851)"/><path d="M942.688 41.7549 939.7 41.7549 939.7 47.8686C939.7 48.2523 939.735 48.566 939.809 48.8097 939.884 49.0534 939.985 49.2419 940.118 49.3745 940.251 49.5075 940.412 49.5998 940.596 49.6515 940.779 49.7031 940.983 49.7289 941.206 49.7289 941.456 49.7289 941.714 49.6921 941.98 49.6182 942.246 49.5447 942.489 49.4485 942.712 49.3303L942.778 50.6818C942.231 50.9325 941.573 51.058 940.807 51.058 940.525 51.058 940.232 51.0213 939.931 50.9473 939.629 50.8734 939.352 50.7334 939.101 50.5265 938.851 50.3199 938.644 50.0391 938.479 49.6847 938.319 49.3303 938.237 48.8653 938.237 48.2895L938.237 41.7549 936.043 41.7549 936.043 40.4258 938.237 40.4258 938.237 37.5019 939.7 37.5019 939.7 40.4258 942.688 40.4258 942.688 41.7549Z" stroke="#51C46E" stroke-width="0.39115" stroke-linejoin="round" stroke-miterlimit="2" fill="#4DBF57" transform="matrix(1.00017 0 0 1 -725.848 -33.851)"/><path d="M946.811 36.4388C946.811 36.749 946.698 37.0036 946.475 37.2031 946.255 37.4022 946.013 37.5019 945.747 37.5019 945.481 37.5019 945.235 37.4022 945.016 37.2031 944.793 37.0036 944.683 36.749 944.683 36.4388 944.683 36.1286 944.793 35.874 945.016 35.6745 945.235 35.4754 945.481 35.3756 945.747 35.3756 946.013 35.3756 946.255 35.4754 946.475 35.6745 946.698 35.874 946.811 36.1286 946.811 36.4388ZM946.475 50.7924 945.016 50.7924 945.016 40.4258 946.475 40.4258 946.475 50.7924Z" stroke="#51C46E" stroke-width="0.39115" stroke-linejoin="round" stroke-miterlimit="2" fill="#4DBF57" transform="matrix(1.00017 0 0 1 -725.848 -33.851)"/><path d="M958.882 45.6089C958.882 45.0331 958.788 44.4941 958.604 43.9923 958.42 43.4901 958.158 43.0543 957.818 42.6851 957.478 42.3162 957.067 42.0244 956.59 41.8105 956.109 41.5961 955.565 41.4889 954.959 41.4889 954.356 41.4889 953.812 41.5961 953.331 41.8105 952.854 42.0244 952.447 42.3162 952.115 42.6851 951.782 43.0543 951.524 43.4901 951.34 43.9923 951.153 44.4941 951.063 45.0331 951.063 45.6089 951.063 46.1851 951.153 46.7241 951.34 47.2259 951.524 47.7282 951.782 48.1639 952.115 48.5332 952.447 48.902 952.854 49.1938 953.331 49.4078 953.812 49.6221 954.356 49.7289 954.959 49.7289 955.565 49.7289 956.109 49.6221 956.59 49.4078 957.067 49.1938 957.478 48.902 957.818 48.5332 958.158 48.1639 958.42 47.7282 958.604 47.2259 958.788 46.7241 958.882 46.1851 958.882 45.6089ZM960.474 45.6089C960.474 46.3916 960.341 47.1152 960.067 47.7798 959.793 48.4444 959.414 49.0201 958.925 49.5075 958.436 49.9949 957.857 50.3751 957.188 50.6485 956.515 50.9215 955.772 51.058 954.959 51.058 954.165 51.058 953.429 50.9215 952.756 50.6485 952.084 50.3751 951.505 49.9949 951.016 49.5075 950.531 49.0201 950.151 48.4444 949.878 47.7798 949.604 47.1152 949.467 46.3916 949.467 45.6089 949.467 44.8266 949.604 44.103 949.878 43.4384 950.151 42.7739 950.531 42.1981 951.016 41.7107 951.505 41.2233 952.084 40.8431 952.756 40.5697 953.429 40.2967 954.165 40.1602 954.959 40.1602 955.772 40.1602 956.515 40.2967 957.188 40.5697 957.857 40.8431 958.436 41.2233 958.925 41.7107 959.414 42.1981 959.793 42.7739 960.067 43.4384 960.341 44.103 960.474 44.8266 960.474 45.6089Z" stroke="#51C46E" stroke-width="0.39115" stroke-linejoin="round" stroke-miterlimit="2" fill="#4DBF57" transform="matrix(1.00017 0 0 1 -725.848 -33.851)"/><path d="M964.53 40.4258C964.557 40.7066 964.577 40.9832 964.585 41.2566 964.593 41.5296 964.597 41.8065 964.597 42.087L964.64 42.087C964.804 41.8065 965.011 41.548 965.262 41.3117 965.512 41.0755 965.794 40.8725 966.102 40.7027 966.411 40.533 966.74 40.4 967.088 40.3041 967.436 40.2079 967.777 40.1602 968.117 40.1602 969.447 40.1602 970.429 40.5107 971.062 41.2124 971.7 41.9137 972.017 42.9143 972.017 44.2137L972.017 50.7924 970.554 50.7924 970.554 45.0554C970.554 43.9035 970.354 43.0211 969.955 42.4085 969.556 41.7956 968.821 41.4889 967.741 41.4889 967.667 41.4889 967.46 41.5187 967.119 41.5777 966.783 41.6368 966.423 41.7991 966.048 42.0651 965.668 42.3307 965.332 42.7297 965.039 43.2612 964.745 43.7928 964.597 44.5313 964.597 45.4763L964.597 50.7924 963.134 50.7924 963.134 42.7074C963.134 42.4269 963.122 42.0725 963.098 41.6442 963.079 41.2159 963.052 40.8099 963.024 40.4258L964.53 40.4258Z" stroke="#51C46E" stroke-width="0.39115" stroke-linejoin="round" stroke-miterlimit="2" fill="#4DBF57" transform="matrix(1.00017 0 0 1 -725.848 -33.851)"/><path d="M989.161 42.8623C988.91 42.4785 988.558 42.1535 988.109 41.8879 987.659 41.6219 987.146 41.4889 986.567 41.4889 985.965 41.4745 985.421 41.5703 984.94 41.7772 984.463 41.9837 984.052 42.2716 983.712 42.6409 983.372 43.0101 983.114 43.4494 982.938 43.9591 982.758 44.4683 982.672 45.0183 982.672 45.6089 982.672 46.2 982.758 46.7499 982.938 47.2592 983.114 47.7689 983.372 48.2081 983.712 48.5774 984.052 48.9466 984.463 49.2345 984.94 49.441 985.421 49.6479 985.965 49.7438 986.567 49.7289 987.146 49.7289 987.659 49.5963 988.109 49.3303 988.558 49.0647 988.91 48.7397 989.161 48.3556L990.358 49.2638C989.841 49.8693 989.259 50.316 988.605 50.6039 987.956 50.8922 987.279 51.0432 986.567 51.058 985.727 51.0729 984.968 50.9438 984.287 50.6704 983.606 50.3974 983.028 50.0172 982.55 49.5298 982.069 49.0424 981.702 48.4628 981.451 47.7908 981.201 47.1192 981.076 46.3916 981.076 45.6089 981.076 44.8266 981.201 44.0991 981.451 43.4275 981.702 42.7555 982.069 42.1758 982.55 41.6884 983.028 41.201 983.606 40.8209 984.287 40.5478 984.968 40.2744 985.727 40.1453 986.567 40.1602 987.279 40.1747 987.956 40.326 988.605 40.6143 989.259 40.9022 989.841 41.3489 990.358 41.9544L989.161 42.8623Z" stroke="#51C46E" stroke-width="0.39115" stroke-linejoin="round" stroke-miterlimit="2" fill="#4DBF57" transform="matrix(1.00017 0 0 1 -725.848 -33.851)"/><path d="M998.177 45.6312C997.805 45.6312 997.344 45.6496 996.792 45.6868 996.237 45.7235 995.705 45.8123 995.196 45.9524 994.688 46.0928 994.254 46.3106 993.89 46.606 993.526 46.9013 993.346 47.3073 993.346 47.824 993.346 48.1639 993.417 48.4553 993.557 48.699 993.698 48.9427 993.886 49.1422 994.121 49.2971 994.359 49.4524 994.621 49.5631 994.911 49.6296 995.196 49.6961 995.49 49.7289 995.783 49.7289 996.315 49.7289 996.777 49.6405 997.168 49.4633 997.559 49.2861 997.887 49.046 998.153 48.7436 998.419 48.4409 998.615 48.0865 998.74 47.6801 998.865 47.2741 998.928 46.8422 998.928 46.3842L998.928 45.6312 998.177 45.6312ZM998.928 44.4351 998.928 44.1695C998.928 42.3823 998.044 41.4889 996.272 41.4889 995.059 41.4889 994.003 41.8953 993.104 42.7074L992.216 41.6661C993.194 40.662 994.653 40.1602 996.604 40.1602 997.105 40.1602 997.59 40.2337 998.056 40.3816 998.521 40.5294 998.92 40.7544 999.26 41.0571 999.601 41.3599 999.874 41.7401 1000.08 42.1981 1000.29 42.6557 1000.39 43.2022 1000.39 43.837L1000.39 48.4667C1000.39 48.8653 1000.41 49.2822 1000.45 49.718 1000.48 50.1537 1000.52 50.5116 1000.57 50.7924L999.151 50.7924C999.108 50.5413 999.073 50.2679 999.049 49.9726 999.03 49.6773 999.018 49.3894 999.018 49.1089L998.975 49.1089C998.545 49.8028 998.04 50.3012 997.457 50.6039 996.874 50.9067 996.159 51.058 995.318 51.058 994.86 51.058 994.418 50.9955 993.992 50.8699 993.561 50.7443 993.182 50.5523 992.849 50.2941 992.517 50.0356 992.251 49.718 992.051 49.3413 991.852 48.965 991.75 48.5257 991.75 48.0235 991.75 47.1817 991.969 46.5211 992.407 46.0411 992.842 45.5612 993.389 45.2029 994.046 44.9667 994.703 44.7304 995.404 44.5829 996.151 44.5239 996.894 44.4648 997.578 44.4351 998.196 44.4351L998.928 44.4351Z" stroke="#51C46E" stroke-width="0.39115" stroke-linejoin="round" stroke-miterlimit="2" fill="#4DBF57" transform="matrix(1.00017 0 0 1 -725.848 -33.851)"/><path d="M1009.27 42.8846C1009.05 42.4563 1008.76 42.1167 1008.39 41.8656 1008.02 41.6145 1007.57 41.4889 1007.04 41.4889 1006.79 41.4889 1006.53 41.5187 1006.27 41.5777 1006.01 41.6368 1005.78 41.7291 1005.57 41.8547 1005.37 41.9802 1005.2 42.139 1005.08 42.3307 1004.95 42.5227 1004.89 42.759 1004.89 43.0395 1004.89 43.5268 1005.06 43.8812 1005.4 44.103 1005.74 44.3244 1006.25 44.5164 1006.93 44.6788L1008.41 45.0331C1009.13 45.1955 1009.74 45.524 1010.22 46.0189 1010.69 46.5137 1010.94 47.1301 1010.94 47.8686 1010.94 48.4295 1010.82 48.9134 1010.59 49.3194 1010.36 49.7254 1010.06 50.0575 1009.68 50.316 1009.31 50.5746 1008.87 50.7627 1008.39 50.8809 1007.9 50.999 1007.4 51.058 1006.9 51.058 1006.11 51.058 1005.36 50.9067 1004.68 50.6039 1003.99 50.3012 1003.4 49.7809 1002.92 49.0424L1004.18 48.1784C1004.47 48.6513 1004.85 49.0276 1005.3 49.3084 1005.75 49.5889 1006.28 49.7289 1006.9 49.7289 1007.2 49.7289 1007.49 49.6961 1007.79 49.6296 1008.08 49.5631 1008.35 49.4598 1008.58 49.3194 1008.8 49.179 1008.99 48.9982 1009.13 48.7765 1009.27 48.5551 1009.34 48.2965 1009.34 48.0012 1009.34 47.4845 1009.15 47.1117 1008.77 46.8829 1008.38 46.6537 1007.92 46.473 1007.37 46.34L1005.95 46.0079C1005.77 45.9637 1005.53 45.8898 1005.23 45.7865 1004.93 45.6828 1004.63 45.528 1004.35 45.321 1004.06 45.1145 1003.81 44.845 1003.6 44.5125 1003.39 44.1804 1003.29 43.7705 1003.29 43.2831 1003.29 42.7516 1003.4 42.2865 1003.61 41.8879 1003.83 41.4889 1004.11 41.1643 1004.48 40.9132 1004.84 40.662 1005.25 40.4739 1005.71 40.3483 1006.16 40.2228 1006.64 40.1602 1007.13 40.1602 1007.85 40.1602 1008.52 40.3002 1009.14 40.5811 1009.76 40.8615 1010.24 41.3415 1010.58 42.0209L1009.27 42.8846Z" stroke="#51C46E" stroke-width="0.39115" stroke-linejoin="round" stroke-miterlimit="2" fill="#4DBF57" transform="matrix(1.00017 0 0 1 -725.848 -33.851)"/><path d="M1021.28 44.8118C1021.28 43.8221 1020.98 43.0211 1020.39 42.4085 1019.8 41.7956 1018.97 41.4889 1017.91 41.4889 1017.44 41.4889 1016.98 41.5812 1016.54 41.7659 1016.1 41.9505 1015.71 42.1981 1015.38 42.5079 1015.04 42.8181 1014.78 43.1724 1014.58 43.5714 1014.38 43.97 1014.28 44.3834 1014.28 44.8118L1021.28 44.8118ZM1014.23 46.0079C1014.28 46.5246 1014.41 47.012 1014.61 47.4696 1014.82 47.9277 1015.09 48.3227 1015.43 48.6548 1015.77 48.9869 1016.16 49.2494 1016.6 49.441 1017.05 49.6331 1017.53 49.7289 1018.04 49.7289 1018.83 49.7289 1019.5 49.5482 1020.07 49.1864 1020.64 48.8246 1021.07 48.4076 1021.37 47.9351L1022.5 48.8653C1021.88 49.6479 1021.19 50.2089 1020.45 50.5488 1019.7 50.8883 1018.9 51.058 1018.04 51.058 1017.28 51.058 1016.56 50.9215 1015.91 50.6485 1015.25 50.3751 1014.69 49.9949 1014.21 49.5075 1013.74 49.0201 1013.37 48.4444 1013.1 47.7798 1012.82 47.1152 1012.68 46.3916 1012.68 45.6089 1012.68 44.8266 1012.82 44.103 1013.08 43.4384 1013.35 42.7739 1013.72 42.1981 1014.19 41.7107 1014.66 41.2233 1015.22 40.8431 1015.85 40.5697 1016.49 40.2967 1017.17 40.1602 1017.91 40.1602 1018.7 40.1602 1019.4 40.3002 1020.01 40.5811 1020.64 40.8615 1021.16 41.2343 1021.58 41.6994 1022 42.1648 1022.32 42.7109 1022.54 43.3387 1022.76 43.9661 1022.87 44.6346 1022.87 45.3433L1022.87 46.0079 1014.23 46.0079Z" stroke="#51C46E" stroke-width="0.39115" stroke-linejoin="round" stroke-miterlimit="2" fill="#4DBF57" transform="matrix(1.00017 0 0 1 -725.848 -33.851)"/><path d="M813.174 65.035C812.955 64.6067 812.658 64.2672 812.29 64.0161 811.919 63.7653 811.469 63.6398 810.937 63.6398 810.687 63.6398 810.432 63.6691 810.174 63.7282 809.916 63.7873 809.681 63.8796 809.474 64.0051 809.271 64.1307 809.103 64.2895 808.977 64.4815 808.852 64.6732 808.79 64.9095 808.79 65.1903 808.79 65.6773 808.958 66.0321 809.298 66.2534 809.638 66.4748 810.147 66.6669 810.827 66.8292L812.31 67.1836C813.034 67.3463 813.636 67.6749 814.117 68.1693 814.598 68.6641 814.837 69.2806 814.837 70.0191 814.837 70.58 814.723 71.0638 814.493 71.4698 814.266 71.8759 813.961 72.2083 813.585 72.4665 813.21 72.725 812.775 72.9132 812.29 73.0313 811.801 73.1494 811.309 73.2085 810.804 73.2085 810.006 73.2085 809.267 73.0571 808.578 72.7548 807.894 72.452 807.303 71.9314 806.818 71.1929L808.082 70.3292C808.375 70.8018 808.751 71.178 809.2 71.4589 809.65 71.7393 810.186 71.8798 810.804 71.8798 811.101 71.8798 811.395 71.8465 811.692 71.78 811.985 71.7135 812.247 71.6103 812.478 71.4698 812.705 71.3294 812.889 71.1487 813.03 70.9273 813.17 70.7055 813.241 70.4474 813.241 70.1521 813.241 69.6349 813.049 69.2622 812.666 69.0334 812.283 68.8045 811.817 68.6234 811.27 68.4904L809.854 68.1584C809.674 68.1142 809.435 68.0402 809.134 67.937 808.829 67.8333 808.535 67.6784 808.246 67.4715 807.96 67.265 807.71 66.9955 807.503 66.663 807.299 66.3309 807.194 65.921 807.194 65.434 807.194 64.902 807.299 64.437 807.514 64.0384 807.73 63.6398 808.019 63.3147 808.379 63.0636 808.743 62.8125 809.149 62.6244 809.607 62.4988 810.065 62.3732 810.538 62.3107 811.027 62.3107 811.751 62.3107 812.423 62.4511 813.041 62.7315 813.663 63.012 814.141 63.4919 814.481 64.1714L813.174 65.035Z" stroke="#51C46E" stroke-width="0.39115" stroke-linejoin="round" stroke-miterlimit="2" fill="#4DBF57" transform="matrix(1.00017 0 0 1 -725.848 -33.851)"/><path d="M840.864 67.2282 840.864 68.5569 829.568 68.5569 829.568 67.2282 840.864 67.2282ZM840.864 63.9054 840.864 65.2345 829.568 65.2345 829.568 63.9054 840.864 63.9054Z" stroke="#51C46E" stroke-width="0.39115" stroke-linejoin="round" stroke-miterlimit="2" fill="#4DBF57" transform="matrix(1.00017 0 0 1 -725.848 -33.851)"/><path d="M855.837 65.035C855.614 64.6067 855.321 64.2672 854.949 64.0161 854.582 63.7653 854.132 63.6398 853.6 63.6398 853.349 63.6398 853.095 63.6691 852.833 63.7282 852.575 63.7873 852.344 63.8796 852.137 64.0051 851.93 64.1307 851.765 64.2895 851.64 64.4815 851.515 64.6732 851.452 64.9095 851.452 65.1903 851.452 65.6773 851.621 66.0321 851.961 66.2534 852.301 66.4748 852.81 66.6669 853.49 66.8292L854.973 67.1836C855.696 67.3463 856.299 67.6749 856.78 68.1693 857.257 68.6641 857.5 69.2806 857.5 70.0191 857.5 70.58 857.382 71.0638 857.155 71.4698 856.925 71.8759 856.623 72.2083 856.248 72.4665 855.868 72.725 855.438 72.9132 854.949 73.0313 854.464 73.1494 853.967 73.2085 853.467 73.2085 852.669 73.2085 851.926 73.0571 851.241 72.7548 850.553 72.452 849.966 71.9314 849.481 71.1929L850.74 70.3292C851.038 70.8018 851.409 71.178 851.859 71.4589 852.313 71.7393 852.845 71.8798 853.467 71.8798 853.76 71.8798 854.057 71.8465 854.351 71.78 854.648 71.7135 854.91 71.6103 855.141 71.4698 855.368 71.3294 855.552 71.1487 855.692 70.9273 855.833 70.7055 855.904 70.4474 855.904 70.1521 855.904 69.6349 855.712 69.2622 855.329 69.0334 854.945 68.8045 854.48 68.6234 853.932 68.4904L852.512 68.1584C852.336 68.1142 852.098 68.0402 851.793 67.937 851.491 67.8333 851.198 67.6784 850.909 67.4715 850.619 67.265 850.373 66.9955 850.165 66.663 849.958 66.3309 849.856 65.921 849.856 65.434 849.856 64.902 849.962 64.437 850.177 64.0384 850.392 63.6398 850.678 63.3147 851.042 63.0636 851.401 62.8125 851.812 62.6244 852.27 62.4988 852.728 62.3732 853.201 62.3107 853.69 62.3107 854.413 62.3107 855.082 62.4511 855.704 62.7315 856.322 63.012 856.803 63.4919 857.144 64.1714L855.837 65.035Z" stroke="#51C46E" stroke-width="0.39115" stroke-linejoin="round" stroke-miterlimit="2" fill="#4DBF57" transform="matrix(1.00017 0 0 1 -725.848 -33.851)"/><path d="M883.523 67.2282 883.523 68.5569 872.226 68.5569 872.226 67.2282 883.523 67.2282ZM883.523 63.9054 883.523 65.2345 872.226 65.2345 872.226 63.9054 883.523 63.9054Z" stroke="#51C46E" stroke-width="0.39115" stroke-linejoin="round" stroke-miterlimit="2" fill="#4DBF57" transform="matrix(1.00017 0 0 1 -725.848 -33.851)"/><path d="M898.5 65.035C898.277 64.6067 897.98 64.2672 897.612 64.0161 897.244 63.7653 896.794 63.6398 896.263 63.6398 896.008 63.6398 895.754 63.6691 895.496 63.7282 895.238 63.7873 895.007 63.8796 894.8 64.0051 894.592 64.1307 894.428 64.2895 894.303 64.4815 894.174 64.6732 894.111 64.9095 894.111 65.1903 894.111 65.6773 894.283 66.0321 894.624 66.2534 894.964 66.4748 895.472 66.6669 896.149 66.8292L897.636 67.1836C898.359 67.3463 898.961 67.6749 899.439 68.1693 899.92 68.6641 900.158 69.2806 900.158 70.0191 900.158 70.58 900.045 71.0638 899.818 71.4698 899.587 71.8759 899.286 72.2083 898.907 72.4665 898.531 72.725 898.101 72.9132 897.612 73.0313 897.123 73.1494 896.63 73.2085 896.13 73.2085 895.332 73.2085 894.589 73.0571 893.904 72.7548 893.216 72.452 892.629 71.9314 892.14 71.1929L893.403 70.3292C893.701 70.8018 894.072 71.178 894.522 71.4589 894.972 71.7393 895.508 71.8798 896.13 71.8798 896.423 71.8798 896.72 71.8465 897.014 71.78 897.311 71.7135 897.573 71.6103 897.8 71.4698 898.031 71.3294 898.214 71.1487 898.355 70.9273 898.496 70.7055 898.566 70.4474 898.566 70.1521 898.566 69.6349 898.371 69.2622 897.988 69.0334 897.604 68.8045 897.139 68.6234 896.595 68.4904L895.175 68.1584C894.999 68.1142 894.761 68.0402 894.455 67.937 894.154 67.8333 893.857 67.6784 893.571 67.4715 893.282 67.265 893.036 66.9955 892.828 66.663 892.621 66.3309 892.519 65.921 892.519 65.434 892.519 64.902 892.625 64.437 892.84 64.0384 893.051 63.6398 893.341 63.3147 893.704 63.0636 894.064 62.8125 894.475 62.6244 894.933 62.4988 895.39 62.3732 895.864 62.3107 896.349 62.3107 897.072 62.3107 897.745 62.4511 898.367 62.7315 898.985 63.012 899.466 63.4919 899.806 64.1714L898.5 65.035Z" stroke="#51C46E" stroke-width="0.39115" stroke-linejoin="round" stroke-miterlimit="2" fill="#4DBF57" transform="matrix(1.00017 0 0 1 -725.848 -33.851)"/><path d="M527.421 54.1981C527.204 54.1981 526.931 54.209 526.602 54.2307 526.273 54.2527 525.961 54.305 525.658 54.3881 525.357 54.4712 525.1 54.5998 524.885 54.7746 524.672 54.9493 524.563 55.1898 524.563 55.4955 524.563 55.6964 524.605 55.869 524.688 56.0132 524.771 56.1574 524.882 56.2752 525.024 56.3671 525.162 56.4587 525.318 56.5242 525.489 56.5636 525.658 56.6029 525.831 56.6226 526.005 56.6226 526.32 56.6226 526.593 56.5703 526.824 56.4654 527.056 56.3606 527.25 56.2185 527.407 56.0394 527.565 55.8602 527.68 55.6506 527.755 55.4103 527.828 55.1701 527.868 54.9144 527.868 54.6436L527.868 54.1981 527.421 54.1981ZM527.868 53.4903 527.868 53.333C527.868 52.2758 527.343 51.7472 526.294 51.7472 525.577 51.7472 524.952 51.9874 524.419 52.4681L523.896 51.852C524.473 51.2579 525.336 50.9608 526.491 50.9608 526.787 50.9608 527.074 51.0045 527.349 51.092 527.625 51.1792 527.863 51.3125 528.062 51.4917 528.264 51.6708 528.426 51.8958 528.548 52.1665 528.671 52.4376 528.731 52.7606 528.731 53.1365L528.731 55.8755C528.731 56.1116 528.743 56.3583 528.764 56.6161 528.787 56.8739 528.81 57.0857 528.835 57.2516L527.997 57.2516C527.972 57.1033 527.951 56.9415 527.94 56.7668 527.926 56.592 527.919 56.4217 527.919 56.2558L527.893 56.2558C527.639 56.6663 527.34 56.9612 526.995 57.1403 526.651 57.3194 526.229 57.409 525.729 57.409 525.459 57.409 525.197 57.3717 524.945 57.2977 524.69 57.2234 524.466 57.1098 524.269 56.9568 524.072 56.8038 523.915 56.6161 523.797 56.3932 523.679 56.1704 523.621 55.9105 523.621 55.6135 523.621 55.1155 523.748 54.7244 524.008 54.4404 524.264 54.1564 524.588 53.9447 524.977 53.8049 525.366 53.6651 525.78 53.5776 526.222 53.5427 526.662 53.5077 527.067 53.4903 527.435 53.4903L527.868 53.4903Z" stroke="#C451A3" stroke-width="0.391125" stroke-linejoin="round" stroke-miterlimit="2" fill="#CC37C8" transform="matrix(1.00017 0 0 1 -304.037 -12.0969)"/><path d="M531.261 54.1849C531.261 54.5256 531.316 54.8445 531.425 55.1416 531.534 55.4388 531.689 55.6964 531.89 55.9149 532.092 56.1333 532.335 56.306 532.617 56.4326 532.902 56.5592 533.223 56.6226 533.58 56.6226 533.931 56.6226 534.255 56.5592 534.556 56.4326 534.86 56.306 535.119 56.1333 535.336 55.9149 535.556 55.6964 535.725 55.4388 535.848 55.1416 535.97 54.8445 536.031 54.5256 536.031 54.1849 536.031 53.8442 535.97 53.5253 535.848 53.2281 535.725 52.9312 535.556 52.6734 535.336 52.4549 535.119 52.2364 534.86 52.064 534.556 51.9372 534.255 51.8106 533.931 51.7472 533.58 51.7472 533.223 51.7472 532.902 51.8106 532.617 51.9372 532.335 52.064 532.092 52.2364 531.89 52.4549 531.689 52.6734 531.534 52.9312 531.425 53.2281 531.316 53.5253 531.261 53.8442 531.261 54.1849ZM536.857 57.2516 535.991 57.2516 535.991 56.2294 535.966 56.2294C535.827 56.4391 535.66 56.6182 535.468 56.7668 535.276 56.9154 535.075 57.0375 534.866 57.1338 534.656 57.2299 534.438 57.2998 534.216 57.3435 533.994 57.387 533.781 57.409 533.58 57.409 533.101 57.409 532.661 57.3282 532.263 57.1665 531.867 57.0049 531.522 56.78 531.235 56.4916 530.946 56.2032 530.721 55.8626 530.559 55.4693 530.397 55.0761 530.316 54.648 530.316 54.1849 530.316 53.7218 530.397 53.2936 530.559 52.9004 530.721 52.5074 530.946 52.1665 531.235 51.8782 531.522 51.59 531.867 51.3649 532.263 51.2033 532.661 51.0418 533.101 50.9608 533.58 50.9608 533.781 50.9608 533.994 50.9828 534.216 51.0263 534.438 51.07 534.656 51.1399 534.866 51.2362 535.075 51.3322 535.276 51.4544 535.468 51.603 535.66 51.7516 535.827 51.9307 535.966 52.1404L535.991 52.1404 535.991 47.3437 536.857 47.3437 536.857 57.2516Z" stroke="#C451A3" stroke-width="0.391125" stroke-linejoin="round" stroke-miterlimit="2" fill="#CC37C8" transform="matrix(1.00017 0 0 1 -304.037 -12.0969)"/><path d="M541.444 57.2516 540.474 57.2516 537.984 51.1181 539.021 51.1181 540.972 56.2819 541 56.2819 542.953 51.1181 543.934 51.1181 541.444 57.2516Z" stroke="#C451A3" stroke-width="0.391125" stroke-linejoin="round" stroke-miterlimit="2" fill="#CC37C8" transform="matrix(1.00017 0 0 1 -304.037 -12.0969)"/><path d="M549.833 53.713C549.833 53.1277 549.657 52.6537 549.308 52.2911 548.958 51.9284 548.47 51.7472 547.841 51.7472 547.561 51.7472 547.29 51.8018 547.028 51.911 546.765 52.0203 546.535 52.1665 546.339 52.3501 546.142 52.5336 545.987 52.7433 545.867 52.9791 545.751 53.2152 545.691 53.4598 545.691 53.713L549.833 53.713ZM545.665 54.4207C545.691 54.7267 545.765 55.015 545.887 55.2858 546.01 55.5566 546.172 55.7903 546.371 55.9871 546.572 56.1836 546.804 56.3386 547.068 56.4523 547.329 56.5659 547.614 56.6226 547.919 56.6226 548.382 56.6226 548.783 56.5157 549.118 56.3016 549.454 56.0875 549.711 55.8406 549.884 55.561L550.553 56.1116C550.185 56.5744 549.782 56.9066 549.34 57.1074 548.898 57.3086 548.426 57.409 547.919 57.409 547.463 57.409 547.042 57.3282 546.653 57.1665 546.265 57.0049 545.931 56.78 545.651 56.4916 545.371 56.2032 545.151 55.8626 544.989 55.4693 544.827 55.0761 544.746 54.648 544.746 54.1849 544.746 53.7218 544.825 53.2936 544.982 52.9004 545.14 52.5074 545.36 52.1665 545.637 51.8782 545.917 51.59 546.246 51.3649 546.621 51.2033 546.996 51.0418 547.403 50.9608 547.841 50.9608 548.304 50.9608 548.718 51.0439 549.086 51.2098 549.451 51.376 549.759 51.5965 550.009 51.8717 550.259 52.1469 550.449 52.4702 550.579 52.8416 550.711 53.2129 550.775 53.6082 550.775 54.0277L550.775 54.4207 545.665 54.4207Z" stroke="#C451A3" stroke-width="0.391125" stroke-linejoin="round" stroke-miterlimit="2" fill="#CC37C8" transform="matrix(1.00017 0 0 1 -304.037 -12.0969)"/><path d="M556.818 52.5597C556.67 52.3327 556.462 52.1404 556.195 51.983 555.929 51.8259 555.624 51.7472 555.284 51.7472 554.925 51.7384 554.606 51.7953 554.321 51.9175 554.036 52.0399 553.795 52.2103 553.594 52.4288 553.393 52.6472 553.24 52.9071 553.136 53.2085 553.029 53.51 552.979 53.8354 552.979 54.1849 552.979 54.5344 553.029 54.86 553.136 55.1613 553.24 55.4626 553.393 55.7228 553.594 55.941 553.795 56.1595 554.036 56.3298 554.321 56.4523 554.606 56.5744 554.925 56.6314 555.284 56.6226 555.624 56.6226 555.929 56.5439 556.195 56.3868 556.462 56.2294 556.67 56.0373 556.818 55.81L557.526 56.3474C557.221 56.7057 556.874 56.97 556.489 57.1403 556.105 57.3106 555.703 57.4002 555.284 57.409 554.786 57.4178 554.337 57.3412 553.934 57.1796 553.532 57.0179 553.189 56.7929 552.904 56.5046 552.622 56.2164 552.405 55.8734 552.256 55.4758 552.108 55.0782 552.034 54.648 552.034 54.1849 552.034 53.7218 552.108 53.2915 552.256 52.8939 552.405 52.4963 552.622 52.1536 552.904 51.8652 553.189 51.5768 553.532 51.3519 553.934 51.1901 554.337 51.0286 554.786 50.9522 555.284 50.9608 555.703 50.9696 556.105 51.0591 556.489 51.2295 556.874 51.3998 557.221 51.6641 557.526 52.0224L556.818 52.5597Z" stroke="#C451A3" stroke-width="0.391125" stroke-linejoin="round" stroke-miterlimit="2" fill="#CC37C8" transform="matrix(1.00017 0 0 1 -304.037 -12.0969)"/><path d="M561.838 51.9046 560.067 51.9046 560.067 55.5216C560.067 55.7489 560.091 55.9345 560.135 56.0787 560.176 56.2229 560.239 56.3342 560.317 56.4129 560.396 56.4916 560.489 56.5462 560.6 56.5768 560.708 56.6073 560.829 56.6226 560.958 56.6226 561.107 56.6226 561.262 56.6008 561.419 56.5571 561.574 56.5133 561.72 56.4566 561.849 56.3868L561.889 57.1861C561.567 57.3347 561.178 57.409 560.722 57.409 560.558 57.409 560.384 57.387 560.206 57.3435 560.026 57.2998 559.864 57.2167 559.713 57.0945 559.565 56.9721 559.443 56.8061 559.348 56.5964 559.25 56.3868 559.202 56.1116 559.202 55.7707L559.202 51.9046 557.906 51.9046 557.906 51.1181 559.202 51.1181 559.202 49.3882 560.067 49.3882 560.067 51.1181 561.838 51.1181 561.838 51.9046Z" stroke="#C451A3" stroke-width="0.391125" stroke-linejoin="round" stroke-miterlimit="2" fill="#CC37C8" transform="matrix(1.00017 0 0 1 -304.037 -12.0969)"/><path d="M564.275 48.7591C564.275 48.9424 564.21 49.0933 564.078 49.2111 563.946 49.3292 563.803 49.3882 563.645 49.3882 563.488 49.3882 563.344 49.3292 563.213 49.2111 563.083 49.0933 563.016 48.9424 563.016 48.7591 563.016 48.5756 563.083 48.4249 563.213 48.3069 563.344 48.1889 563.488 48.1299 563.645 48.1299 563.803 48.1299 563.946 48.1889 564.078 48.3069 564.21 48.4249 564.275 48.5756 564.275 48.7591ZM564.078 57.2516 563.213 57.2516 563.213 51.1181 564.078 51.1181 564.078 57.2516Z" stroke="#C451A3" stroke-width="0.391125" stroke-linejoin="round" stroke-miterlimit="2" fill="#CC37C8" transform="matrix(1.00017 0 0 1 -304.037 -12.0969)"/><path d="M571.417 54.1849C571.417 53.8442 571.364 53.5253 571.255 53.2281 571.144 52.9312 570.989 52.6734 570.787 52.4549 570.588 52.2364 570.345 52.064 570.061 51.9372 569.776 51.8106 569.457 51.7472 569.098 51.7472 568.739 51.7472 568.42 51.8106 568.135 51.9372 567.851 52.064 567.61 52.2364 567.413 52.4549 567.216 52.6734 567.064 52.9312 566.955 53.2281 566.846 53.5253 566.791 53.8442 566.791 54.1849 566.791 54.5256 566.846 54.8445 566.955 55.1416 567.064 55.4388 567.216 55.6964 567.413 55.9149 567.61 56.1333 567.851 56.306 568.135 56.4326 568.42 56.5592 568.739 56.6226 569.098 56.6226 569.457 56.6226 569.776 56.5592 570.061 56.4326 570.345 56.306 570.588 56.1333 570.787 55.9149 570.989 55.6964 571.144 55.4388 571.255 55.1416 571.364 54.8445 571.417 54.5256 571.417 54.1849ZM572.361 54.1849C572.361 54.648 572.28 55.0761 572.118 55.4693 571.959 55.8626 571.732 56.2032 571.445 56.4916 571.155 56.78 570.813 57.0049 570.415 57.1665 570.017 57.3282 569.579 57.409 569.098 57.409 568.626 57.409 568.191 57.3282 567.795 57.1665 567.397 57.0049 567.054 56.78 566.765 56.4916 566.476 56.2032 566.251 55.8626 566.089 55.4693 565.927 55.0761 565.849 54.648 565.849 54.1849 565.849 53.7218 565.927 53.2936 566.089 52.9004 566.251 52.5074 566.476 52.1665 566.765 51.8782 567.054 51.59 567.397 51.3649 567.795 51.2033 568.191 51.0418 568.626 50.9608 569.098 50.9608 569.579 50.9608 570.017 51.0418 570.415 51.2033 570.813 51.3649 571.155 51.59 571.445 51.8782 571.732 52.1665 571.959 52.5074 572.118 52.9004 572.28 53.2936 572.361 53.7218 572.361 54.1849Z" stroke="#C451A3" stroke-width="0.391125" stroke-linejoin="round" stroke-miterlimit="2" fill="#CC37C8" transform="matrix(1.00017 0 0 1 -304.037 -12.0969)"/><path d="M574.759 51.1181C574.777 51.2841 574.789 51.4479 574.794 51.6095 574.796 51.7713 574.798 51.9351 574.798 52.101L574.826 52.101C574.921 51.9351 575.044 51.7821 575.192 51.6423 575.34 51.5026 575.506 51.3824 575.692 51.282 575.874 51.1816 576.069 51.1029 576.275 51.0459 576.478 50.9892 576.682 50.9608 576.883 50.9608 577.67 50.9608 578.251 51.1684 578.626 51.5833 579.001 51.9983 579.191 52.5903 579.191 53.3591L579.191 57.2516 578.325 57.2516 578.325 53.8572C578.325 53.1758 578.207 52.6537 577.971 52.2911 577.735 51.9284 577.298 51.7472 576.661 51.7472 576.617 51.7472 576.495 51.7648 576.293 51.7997 576.092 51.8347 575.881 51.9307 575.657 52.0879 575.435 52.2452 575.236 52.4811 575.062 52.7956 574.886 53.1103 574.798 53.5471 574.798 54.1062L574.798 57.2516 573.935 57.2516 573.935 52.4681C573.935 52.3019 573.928 52.0923 573.914 51.8388 573.903 51.5856 573.886 51.3452 573.868 51.1181L574.759 51.1181Z" stroke="#C451A3" stroke-width="0.391125" stroke-linejoin="round" stroke-miterlimit="2" fill="#CC37C8" transform="matrix(1.00017 0 0 1 -304.037 -12.0969)"/><path d="M584.944 55.8362 591.628 55.8362 591.628 56.6226 584.944 56.6226 584.944 55.8362ZM584.944 51.9175 587.893 51.9175 587.893 49.873 588.677 49.873 588.677 51.9175 591.628 51.9175 591.628 52.7039 588.677 52.7039 588.677 54.6829 587.893 54.6829 587.893 52.7039 584.944 52.7039 584.944 51.9175Z" stroke="#C451A3" stroke-width="0.391125" stroke-linejoin="round" stroke-miterlimit="2" fill="#CC37C8" transform="matrix(1.00017 0 0 1 -304.037 -12.0969)"/><path d="M600.487 52.5729C600.356 52.3195 600.182 52.1186 599.962 51.9701 599.745 51.8215 599.478 51.7472 599.164 51.7472 599.016 51.7472 598.863 51.7648 598.71 51.7997 598.557 51.8347 598.421 51.8893 598.298 51.9633 598.175 52.0376 598.078 52.1316 598.004 52.2452 597.93 52.3589 597.891 52.4986 597.891 52.6646 597.891 52.953 597.993 53.1626 598.194 53.2936 598.395 53.4249 598.696 53.5383 599.097 53.6345L599.976 53.8442C600.404 53.9403 600.761 54.1347 601.043 54.4274 601.328 54.72 601.469 55.0849 601.469 55.5216 601.469 55.8538 601.402 56.1398 601.267 56.38 601.131 56.6205 600.953 56.817 600.73 56.97 600.506 57.1227 600.251 57.2343 599.962 57.3042 599.675 57.3741 599.381 57.409 599.085 57.409 598.613 57.409 598.173 57.3194 597.768 57.1403 597.361 56.9612 597.014 56.6531 596.724 56.2164L597.472 55.7052C597.648 55.9848 597.868 56.2076 598.134 56.3736 598.4 56.5395 598.717 56.6226 599.085 56.6226 599.259 56.6226 599.434 56.6029 599.608 56.5636 599.784 56.5242 599.939 56.4631 600.073 56.38 600.21 56.2972 600.318 56.19 600.402 56.059 600.485 55.9281 600.527 55.7751 600.527 55.6003 600.527 55.2946 600.413 55.0738 600.184 54.9384 599.958 54.803 599.682 54.6961 599.36 54.6174L598.52 54.4207C598.416 54.3946 598.275 54.3508 598.094 54.2897 597.916 54.2286 597.74 54.1367 597.571 54.0145 597.4 53.8921 597.254 53.7327 597.132 53.5362 597.009 53.3397 596.949 53.0971 596.949 52.8088 596.949 52.4943 597.011 52.2191 597.139 51.983 597.266 51.7472 597.435 51.5551 597.65 51.4065 597.863 51.2579 598.106 51.1466 598.377 51.0723 598.648 50.998 598.928 50.9608 599.215 50.9608 599.643 50.9608 600.041 51.0439 600.409 51.2098 600.774 51.376 601.059 51.6599 601.26 52.0617L600.487 52.5729Z" stroke="#C451A3" stroke-width="0.391125" stroke-linejoin="round" stroke-miterlimit="2" fill="#CC37C8" transform="matrix(1.00017 0 0 1 -304.037 -12.0969)"/><path d="M608.416 54.1849C608.416 53.8442 608.361 53.5253 608.252 53.2281 608.143 52.9312 607.988 52.6734 607.787 52.4549 607.586 52.2364 607.343 52.064 607.06 51.9372 606.776 51.8106 606.454 51.7472 606.095 51.7472 605.739 51.7472 605.41 51.8106 605.114 51.9372 604.815 52.064 604.558 52.2364 604.341 52.4549 604.121 52.6734 603.952 52.9312 603.829 53.2281 603.707 53.5253 603.647 53.8442 603.647 54.1849 603.647 54.5256 603.707 54.8445 603.829 55.1416 603.952 55.4388 604.121 55.6964 604.341 55.9149 604.558 56.1333 604.815 56.306 605.114 56.4326 605.41 56.5592 605.739 56.6226 606.095 56.6226 606.454 56.6226 606.776 56.5592 607.06 56.4326 607.343 56.306 607.586 56.1333 607.787 55.9149 607.988 55.6964 608.143 55.4388 608.252 55.1416 608.361 54.8445 608.416 54.5256 608.416 54.1849ZM602.82 51.1181 603.684 51.1181 603.684 52.1404 603.711 52.1404C603.85 51.9307 604.017 51.7516 604.209 51.603 604.401 51.4544 604.602 51.3322 604.813 51.2362 605.021 51.1399 605.239 51.07 605.461 51.0263 605.683 50.9828 605.896 50.9608 606.095 50.9608 606.576 50.9608 607.016 51.0418 607.412 51.2033 607.81 51.3649 608.155 51.59 608.442 51.8782 608.731 52.1665 608.956 52.5074 609.118 52.9004 609.28 53.2936 609.361 53.7218 609.361 54.1849 609.361 54.648 609.28 55.0761 609.118 55.4693 608.956 55.8626 608.731 56.2032 608.442 56.4916 608.155 56.78 607.81 57.0049 607.412 57.1665 607.016 57.3282 606.576 57.409 606.095 57.409 605.896 57.409 605.683 57.387 605.461 57.3435 605.239 57.2998 605.021 57.2299 604.813 57.1338 604.602 57.0375 604.401 56.9154 604.209 56.7668 604.017 56.6182 603.85 56.4391 603.711 56.2294L603.684 56.2294 603.684 61.0263 602.82 61.0263 602.82 51.1181Z" stroke="#C451A3" stroke-width="0.391125" stroke-linejoin="round" stroke-miterlimit="2" fill="#CC37C8" transform="matrix(1.00017 0 0 1 -304.037 -12.0969)"/><path d="M615.598 53.713C615.598 53.1277 615.422 52.6537 615.075 52.2911 614.723 51.9284 614.235 51.7472 613.605 51.7472 613.328 51.7472 613.054 51.8018 612.793 51.911 612.531 52.0203 612.302 52.1665 612.106 52.3501 611.909 52.5336 611.751 52.7433 611.633 52.9791 611.515 53.2152 611.457 53.4598 611.457 53.713L615.598 53.713ZM611.43 54.4207C611.457 54.7267 611.532 55.015 611.654 55.2858 611.775 55.5566 611.937 55.7903 612.138 55.9871 612.339 56.1836 612.571 56.3386 612.832 56.4523 613.094 56.5659 613.378 56.6226 613.684 56.6226 614.147 56.6226 614.547 56.5157 614.883 56.3016 615.221 56.0875 615.475 55.8406 615.651 55.561L616.318 56.1116C615.952 56.5744 615.547 56.9066 615.107 57.1074 614.665 57.3086 614.191 57.409 613.684 57.409 613.23 57.409 612.809 57.3282 612.42 57.1665 612.031 57.0049 611.696 56.78 611.418 56.4916 611.138 56.2032 610.916 55.8626 610.756 55.4693 610.594 55.0761 610.513 54.648 610.513 54.1849 610.513 53.7218 610.592 53.2936 610.749 52.9004 610.907 52.5074 611.124 52.1665 611.404 51.8782 611.684 51.59 612.011 51.3649 612.388 51.2033 612.763 51.0418 613.17 50.9608 613.605 50.9608 614.068 50.9608 614.485 51.0439 614.85 51.2098 615.218 51.376 615.526 51.5965 615.774 51.8717 616.024 52.1469 616.213 52.4702 616.345 52.8416 616.475 53.2129 616.542 53.6082 616.542 54.0277L616.542 54.4207 611.43 54.4207Z" stroke="#C451A3" stroke-width="0.391125" stroke-linejoin="round" stroke-miterlimit="2" fill="#CC37C8" transform="matrix(1.00017 0 0 1 -304.037 -12.0969)"/><path d="M622.886 53.713C622.886 53.1277 622.71 52.6537 622.36 52.2911 622.011 51.9284 621.523 51.7472 620.893 51.7472 620.613 51.7472 620.342 51.8018 620.081 51.911 619.819 52.0203 619.588 52.1665 619.391 52.3501 619.197 52.5336 619.037 52.7433 618.921 52.9791 618.803 53.2152 618.743 53.4598 618.743 53.713L622.886 53.713ZM618.718 54.4207C618.743 54.7267 618.817 55.015 618.94 55.2858 619.062 55.5566 619.224 55.7903 619.426 55.9871 619.625 56.1836 619.859 56.3386 620.12 56.4523 620.382 56.5659 620.666 56.6226 620.972 56.6226 621.435 56.6226 621.835 56.5157 622.171 56.3016 622.506 56.0875 622.763 55.8406 622.937 55.561L623.605 56.1116C623.237 56.5744 622.835 56.9066 622.393 57.1074 621.953 57.3086 621.479 57.409 620.972 57.409 620.518 57.409 620.095 57.3282 619.706 57.1665 619.317 57.0049 618.984 56.78 618.704 56.4916 618.424 56.2032 618.204 55.8626 618.042 55.4693 617.88 55.0761 617.799 54.648 617.799 54.1849 617.799 53.7218 617.877 53.2936 618.035 52.9004 618.192 52.5074 618.412 52.1665 618.69 51.8782 618.97 51.59 619.298 51.3649 619.673 51.2033 620.051 51.0418 620.456 50.9608 620.893 50.9608 621.356 50.9608 621.77 51.0439 622.138 51.2098 622.504 51.376 622.814 51.5965 623.062 51.8717 623.312 52.1469 623.501 52.4702 623.631 52.8416 623.763 53.2129 623.828 53.6082 623.828 54.0277L623.828 54.4207 618.718 54.4207Z" stroke="#C451A3" stroke-width="0.391125" stroke-linejoin="round" stroke-miterlimit="2" fill="#CC37C8" transform="matrix(1.00017 0 0 1 -304.037 -12.0969)"/><path d="M625.924 54.1849C625.924 54.5256 625.98 54.8445 626.089 55.1416 626.198 55.4388 626.353 55.6964 626.554 55.9149 626.755 56.1333 626.998 56.306 627.283 56.4326 627.565 56.5592 627.887 56.6226 628.246 56.6226 628.595 56.6226 628.919 56.5592 629.222 56.4326 629.523 56.306 629.782 56.1333 630.002 55.9149 630.22 55.6964 630.391 55.4388 630.512 55.1416 630.634 54.8445 630.697 54.5256 630.697 54.1849 630.697 53.8442 630.634 53.5253 630.512 53.2281 630.391 52.9312 630.22 52.6734 630.002 52.4549 629.782 52.2364 629.523 52.064 629.222 51.9372 628.919 51.8106 628.595 51.7472 628.246 51.7472 627.887 51.7472 627.565 51.8106 627.283 51.9372 626.998 52.064 626.755 52.2364 626.554 52.4549 626.353 52.6734 626.198 52.9312 626.089 53.2281 625.98 53.5253 625.924 53.8442 625.924 54.1849ZM631.521 57.2516 630.657 57.2516 630.657 56.2294 630.63 56.2294C630.491 56.4391 630.324 56.6182 630.132 56.7668 629.94 56.9154 629.739 57.0375 629.53 57.1338 629.32 57.2299 629.104 57.2998 628.88 57.3435 628.658 57.387 628.447 57.409 628.246 57.409 627.764 57.409 627.325 57.3282 626.929 57.1665 626.531 57.0049 626.188 56.78 625.899 56.4916 625.61 56.2032 625.385 55.8626 625.223 55.4693 625.064 55.0761 624.982 54.648 624.982 54.1849 624.982 53.7218 625.064 53.2936 625.223 52.9004 625.385 52.5074 625.61 52.1665 625.899 51.8782 626.188 51.59 626.531 51.3649 626.929 51.2033 627.325 51.0418 627.764 50.9608 628.246 50.9608 628.447 50.9608 628.658 50.9828 628.88 51.0263 629.104 51.07 629.32 51.1399 629.53 51.2362 629.739 51.3322 629.94 51.4544 630.132 51.603 630.324 51.7516 630.491 51.9307 630.63 52.1404L630.657 52.1404 630.657 47.3437 631.521 47.3437 631.521 57.2516Z" stroke="#C451A3" stroke-width="0.391125" stroke-linejoin="round" stroke-miterlimit="2" fill="#CC37C8" transform="matrix(1.00017 0 0 1 -304.037 -12.0969)"/><path d="M642.308 54.1849C642.308 53.8442 642.255 53.5253 642.143 53.2281 642.035 52.9312 641.88 52.6734 641.678 52.4549 641.477 52.2364 641.236 52.064 640.951 51.9372 640.667 51.8106 640.347 51.7472 639.989 51.7472 639.63 51.7472 639.308 51.8106 639.024 51.9372 638.741 52.064 638.501 52.2364 638.304 52.4549 638.107 52.6734 637.954 52.9312 637.846 53.2281 637.737 53.5253 637.681 53.8442 637.681 54.1849 637.681 54.5256 637.737 54.8445 637.846 55.1416 637.954 55.4388 638.107 55.6964 638.304 55.9149 638.501 56.1333 638.741 56.306 639.024 56.4326 639.308 56.5592 639.63 56.6226 639.989 56.6226 640.347 56.6226 640.667 56.5592 640.951 56.4326 641.236 56.306 641.477 56.1333 641.678 55.9149 641.88 55.6964 642.035 55.4388 642.143 55.1416 642.255 54.8445 642.308 54.5256 642.308 54.1849ZM643.252 54.1849C643.252 54.648 643.171 55.0761 643.009 55.4693 642.847 55.8626 642.622 56.2032 642.333 56.4916 642.046 56.78 641.704 57.0049 641.306 57.1665 640.908 57.3282 640.468 57.409 639.989 57.409 639.517 57.409 639.081 57.3282 638.683 57.1665 638.285 57.0049 637.943 56.78 637.656 56.4916 637.367 56.2032 637.142 55.8626 636.98 55.4693 636.818 55.0761 636.737 54.648 636.737 54.1849 636.737 53.7218 636.818 53.2936 636.98 52.9004 637.142 52.5074 637.367 52.1665 637.656 51.8782 637.943 51.59 638.285 51.3649 638.683 51.2033 639.081 51.0418 639.517 50.9608 639.989 50.9608 640.468 50.9608 640.908 51.0418 641.306 51.2033 641.704 51.3649 642.046 51.59 642.333 51.8782 642.622 52.1665 642.847 52.5074 643.009 52.9004 643.171 53.2936 643.252 53.7218 643.252 54.1849Z" stroke="#C451A3" stroke-width="0.391125" stroke-linejoin="round" stroke-miterlimit="2" fill="#CC37C8" transform="matrix(1.00017 0 0 1 -304.037 -12.0969)"/><path d="M647.682 51.9046 646.226 51.9046 646.226 57.2516 645.363 57.2516 645.363 51.9046 644.064 51.9046 644.064 51.1181 645.363 51.1181 645.363 49.4405C645.363 48.6279 645.55 48.0491 645.925 47.704 646.3 47.359 646.8 47.1863 647.42 47.1863 647.54 47.1863 647.665 47.1951 647.793 47.2124 647.92 47.23 648.045 47.2518 648.165 47.2782L648.008 48.0644C647.904 48.0382 647.795 48.0165 647.682 47.9989 647.568 47.9815 647.455 47.9727 647.341 47.9727 647.105 47.9727 646.913 48.0121 646.763 48.0907 646.615 48.1692 646.501 48.2808 646.423 48.4249 646.344 48.5691 646.293 48.7371 646.265 48.9295 646.24 49.1216 646.226 49.3271 646.226 49.5453L646.226 51.1181 647.682 51.1181 647.682 51.9046Z" stroke="#C451A3" stroke-width="0.391125" stroke-linejoin="round" stroke-miterlimit="2" fill="#CC37C8" transform="matrix(1.00017 0 0 1 -304.037 -12.0969)"/><path d="M655.597 52.5729C655.467 52.3195 655.291 52.1186 655.074 51.9701 654.854 51.8215 654.588 51.7472 654.273 51.7472 654.125 51.7472 653.974 51.7648 653.822 51.7997 653.669 51.8347 653.53 51.8893 653.41 51.9633 653.287 52.0376 653.188 52.1316 653.113 52.2452 653.039 52.3589 653.002 52.4986 653.002 52.6646 653.002 52.953 653.102 53.1626 653.303 53.2936 653.505 53.4249 653.805 53.5383 654.208 53.6345L655.085 53.8442C655.513 53.9403 655.87 54.1347 656.154 54.4274 656.439 54.72 656.58 55.0849 656.58 55.5216 656.58 55.8538 656.513 56.1398 656.377 56.38 656.242 56.6205 656.062 56.817 655.84 56.97 655.618 57.1227 655.361 57.2343 655.074 57.3042 654.784 57.3741 654.493 57.409 654.194 57.409 653.722 57.409 653.285 57.3194 652.877 57.1403 652.472 56.9612 652.125 56.6531 651.836 56.2164L652.583 55.7052C652.757 55.9848 652.979 56.2076 653.245 56.3736 653.511 56.5395 653.829 56.6226 654.194 56.6226 654.37 56.6226 654.544 56.6029 654.72 56.5636 654.893 56.5242 655.048 56.4631 655.185 56.38 655.319 56.2972 655.43 56.19 655.511 56.059 655.594 55.9281 655.636 55.7751 655.636 55.6003 655.636 55.2946 655.523 55.0738 655.296 54.9384 655.069 54.803 654.794 54.6961 654.47 54.6174L653.632 54.4207C653.525 54.3946 653.384 54.3508 653.206 54.2897 653.025 54.2286 652.852 54.1367 652.681 54.0145 652.512 53.8921 652.364 53.7327 652.243 53.5362 652.121 53.3397 652.058 53.0971 652.058 52.8088 652.058 52.4943 652.123 52.2191 652.248 51.983 652.375 51.7472 652.546 51.5551 652.759 51.4065 652.975 51.2579 653.218 51.1466 653.488 51.0723 653.759 50.998 654.037 50.9608 654.326 50.9608 654.754 50.9608 655.152 51.0439 655.518 51.2098 655.886 51.376 656.168 51.6599 656.37 52.0617L655.597 52.5729Z" stroke="#C451A3" stroke-width="0.391125" stroke-linejoin="round" stroke-miterlimit="2" fill="#CC37C8" transform="matrix(1.00017 0 0 1 -304.037 -12.0969)"/><path d="M663.185 54.1849C663.185 53.8442 663.13 53.5253 663.021 53.2281 662.912 52.9312 662.757 52.6734 662.556 52.4549 662.355 52.2364 662.114 52.064 661.829 51.9372 661.545 51.8106 661.225 51.7472 660.866 51.7472 660.508 51.7472 660.186 51.8106 659.904 51.9372 659.619 52.064 659.378 52.2364 659.182 52.4549 658.985 52.6734 658.832 52.9312 658.723 53.2281 658.615 53.5253 658.559 53.8442 658.559 54.1849 658.559 54.5256 658.615 54.8445 658.723 55.1416 658.832 55.4388 658.985 55.6964 659.182 55.9149 659.378 56.1333 659.619 56.306 659.904 56.4326 660.186 56.5592 660.508 56.6226 660.866 56.6226 661.225 56.6226 661.545 56.5592 661.829 56.4326 662.114 56.306 662.355 56.1333 662.556 55.9149 662.757 55.6964 662.912 55.4388 663.021 55.1416 663.13 54.8445 663.185 54.5256 663.185 54.1849ZM664.13 54.1849C664.13 54.648 664.049 55.0761 663.887 55.4693 663.725 55.8626 663.5 56.2032 663.211 56.4916 662.924 56.78 662.581 57.0049 662.183 57.1665 661.785 57.3282 661.346 57.409 660.866 57.409 660.394 57.409 659.959 57.3282 659.561 57.1665 659.163 57.0049 658.821 56.78 658.534 56.4916 658.244 56.2032 658.02 55.8626 657.858 55.4693 657.696 55.0761 657.615 54.648 657.615 54.1849 657.615 53.7218 657.696 53.2936 657.858 52.9004 658.02 52.5074 658.244 52.1665 658.534 51.8782 658.821 51.59 659.163 51.3649 659.561 51.2033 659.959 51.0418 660.394 50.9608 660.866 50.9608 661.346 50.9608 661.785 51.0418 662.183 51.2033 662.581 51.3649 662.924 51.59 663.211 51.8782 663.5 52.1665 663.725 52.5074 663.887 52.9004 664.049 53.2936 664.13 53.7218 664.13 54.1849Z" stroke="#C451A3" stroke-width="0.391125" stroke-linejoin="round" stroke-miterlimit="2" fill="#CC37C8" transform="matrix(1.00017 0 0 1 -304.037 -12.0969)"/><path d="M670.131 57.2516C670.115 57.0857 670.103 56.9218 670.098 56.7603 670.094 56.5985 670.091 56.4347 670.091 56.2687L670.066 56.2687C669.971 56.4347 669.848 56.5876 669.698 56.7274 669.55 56.8672 669.386 56.9873 669.2 57.0878 669.018 57.1884 668.823 57.2669 668.617 57.3238 668.414 57.3805 668.21 57.409 668.008 57.409 667.222 57.409 666.641 57.2014 666.266 56.7864 665.889 56.3715 665.701 55.7795 665.701 55.0106L665.701 51.1181 666.567 51.1181 666.567 54.5126C666.567 54.8533 666.592 55.1548 666.645 55.4168 666.699 55.679 666.787 55.8996 666.914 56.0787 667.041 56.2578 667.21 56.3932 667.425 56.4851 667.638 56.5768 667.909 56.6226 668.231 56.6226 668.275 56.6226 668.397 56.6052 668.599 56.5703 668.8 56.5353 669.011 56.4391 669.235 56.2819 669.457 56.1245 669.656 55.8887 669.83 55.5742 670.006 55.2597 670.091 54.8227 670.091 54.2636L670.091 51.1181 670.957 51.1181 670.957 55.9019C670.957 56.0678 670.964 56.2775 670.978 56.5309 670.989 56.7844 671.006 57.0246 671.024 57.2516L670.131 57.2516Z" stroke="#C451A3" stroke-width="0.391125" stroke-linejoin="round" stroke-miterlimit="2" fill="#CC37C8" transform="matrix(1.00017 0 0 1 -304.037 -12.0969)"/><path d="M673.815 51.1181C673.831 51.2841 673.843 51.4479 673.848 51.6095 673.852 51.7713 673.855 51.9351 673.855 52.101L673.88 52.101C673.975 51.9351 674.098 51.7821 674.248 51.6423 674.396 51.5026 674.563 51.3824 674.746 51.282 674.928 51.1816 675.123 51.1029 675.329 51.0459 675.532 50.9892 675.736 50.9608 675.937 50.9608 676.724 50.9608 677.305 51.1684 677.68 51.5833 678.057 51.9983 678.245 52.5903 678.245 53.3591L678.245 57.2516 677.379 57.2516 677.379 53.8572C677.379 53.1758 677.261 52.6537 677.025 52.2911 676.789 51.9284 676.352 51.7472 675.715 51.7472 675.671 51.7472 675.549 51.7648 675.347 51.7997 675.146 51.8347 674.935 51.9307 674.713 52.0879 674.489 52.2452 674.292 52.4811 674.116 52.7956 673.94 53.1103 673.855 53.5471 673.855 54.1062L673.855 57.2516 672.989 57.2516 672.989 52.4681C672.989 52.3019 672.982 52.0923 672.968 51.8388 672.957 51.5856 672.94 51.3452 672.924 51.1181L673.815 51.1181Z" stroke="#C451A3" stroke-width="0.391125" stroke-linejoin="round" stroke-miterlimit="2" fill="#CC37C8" transform="matrix(1.00017 0 0 1 -304.037 -12.0969)"/><path d="M680.8 54.1849C680.8 54.5256 680.855 54.8445 680.964 55.1416 681.073 55.4388 681.228 55.6964 681.429 55.9149 681.631 56.1333 681.871 56.306 682.156 56.4326 682.441 56.5592 682.762 56.6226 683.119 56.6226 683.468 56.6226 683.795 56.5592 684.096 56.4326 684.399 56.306 684.658 56.1333 684.875 55.9149 685.095 55.6964 685.264 55.4388 685.387 55.1416 685.51 54.8445 685.57 54.5256 685.57 54.1849 685.57 53.8442 685.51 53.5253 685.387 53.2281 685.264 52.9312 685.095 52.6734 684.875 52.4549 684.658 52.2364 684.399 52.064 684.096 51.9372 683.795 51.8106 683.468 51.7472 683.119 51.7472 682.762 51.7472 682.441 51.8106 682.156 51.9372 681.871 52.064 681.631 52.2364 681.429 52.4549 681.228 52.6734 681.073 52.9312 680.964 53.2281 680.855 53.5253 680.8 53.8442 680.8 54.1849ZM686.396 57.2516 685.53 57.2516 685.53 56.2294 685.505 56.2294C685.366 56.4391 685.199 56.6182 685.007 56.7668 684.815 56.9154 684.614 57.0375 684.403 57.1338 684.195 57.2299 683.978 57.2998 683.755 57.3435 683.533 57.387 683.32 57.409 683.119 57.409 682.64 57.409 682.2 57.3282 681.802 57.1665 681.404 57.0049 681.061 56.78 680.774 56.4916 680.485 56.2032 680.261 55.8626 680.099 55.4693 679.937 55.0761 679.856 54.648 679.856 54.1849 679.856 53.7218 679.937 53.2936 680.099 52.9004 680.261 52.5074 680.485 52.1665 680.774 51.8782 681.061 51.59 681.404 51.3649 681.802 51.2033 682.2 51.0418 682.64 50.9608 683.119 50.9608 683.32 50.9608 683.533 50.9828 683.755 51.0263 683.978 51.07 684.195 51.1399 684.403 51.2362 684.614 51.3322 684.815 51.4544 685.007 51.603 685.199 51.7516 685.366 51.9307 685.505 52.1404L685.53 52.1404 685.53 47.3437 686.396 47.3437 686.396 57.2516Z" stroke="#C451A3" stroke-width="0.391125" stroke-linejoin="round" stroke-miterlimit="2" fill="#CC37C8" transform="matrix(1.00017 0 0 1 -304.037 -12.0969)"/><path d="M1078.34 111.035 1082.96 111.035 1082.96 111.959 1077.33 111.959 1077.33 102.044 1078.34 102.044 1078.34 111.035Z" stroke="#51C46E" stroke-width="0.391986" stroke-linejoin="round" stroke-miterlimit="2" fill="#4DBF57" transform="matrix(1.00017 0 0 1 -984.801 -66.8043)"/><path d="M1078.34 106.428 1080.13 106.428C1080.58 106.428 1080.96 106.381 1081.27 106.287 1081.59 106.194 1081.83 106.07 1082.03 105.917 1082.21 105.762 1082.35 105.58 1082.43 105.37 1082.52 105.16 1082.56 104.934 1082.56 104.691 1082.56 104.458 1082.52 104.236 1082.43 104.026 1082.35 103.816 1082.21 103.631 1082.03 103.473 1081.83 103.314 1081.59 103.19 1081.27 103.102 1080.96 103.013 1080.58 102.969 1080.13 102.969L1078.34 102.969 1078.34 106.428ZM1078.34 111.959 1077.33 111.959 1077.33 102.044 1080.39 102.044C1081.39 102.044 1082.19 102.263 1082.77 102.702 1083.36 103.141 1083.65 103.804 1083.65 104.691 1083.65 105.382 1083.43 105.963 1083 106.435 1082.56 106.906 1081.93 107.179 1081.11 107.254L1083.97 111.959 1082.74 111.959 1080.02 107.352 1078.34 107.352 1078.34 111.959Z" stroke="#51C46E" stroke-width="0.391986" stroke-linejoin="round" stroke-miterlimit="2" fill="#4DBF57" transform="matrix(1.00017 0 0 1 -941.88 -66.8043)"/><path d="M1080.72 108.696C1080.49 108.696 1080.19 108.708 1079.84 108.731 1079.49 108.754 1079.16 108.811 1078.84 108.899 1078.51 108.988 1078.24 109.126 1078.01 109.312 1077.78 109.499 1077.67 109.756 1077.67 110.083 1077.67 110.298 1077.71 110.482 1077.8 110.636 1077.89 110.79 1078.01 110.916 1078.16 111.014 1078.31 111.112 1078.47 111.182 1078.66 111.224 1078.84 111.266 1079.02 111.287 1079.21 111.287 1079.54 111.287 1079.84 111.231 1080.09 111.119 1080.33 111.007 1080.54 110.855 1080.71 110.664 1080.88 110.472 1081 110.249 1081.08 109.992 1081.16 109.735 1081.2 109.462 1081.2 109.172L1081.2 108.696 1080.72 108.696ZM1081.2 107.94 1081.2 107.772C1081.2 106.642 1080.64 106.078 1079.52 106.078 1078.75 106.078 1078.09 106.334 1077.51 106.848L1076.96 106.19C1077.57 105.555 1078.49 105.237 1079.73 105.237 1080.05 105.237 1080.35 105.284 1080.64 105.377 1080.94 105.471 1081.19 105.613 1081.41 105.804 1081.62 105.996 1081.79 106.236 1081.93 106.526 1082.06 106.815 1082.12 107.161 1082.12 107.562L1082.12 110.489C1082.12 110.741 1082.13 111.005 1082.15 111.28 1082.18 111.556 1082.21 111.782 1082.23 111.959L1081.34 111.959C1081.31 111.801 1081.29 111.628 1081.27 111.441 1081.26 111.254 1081.25 111.072 1081.25 110.895L1081.23 110.895C1080.95 111.334 1080.63 111.649 1080.27 111.84 1079.9 112.032 1079.45 112.127 1078.92 112.127 1078.63 112.127 1078.34 112.088 1078.07 112.008 1077.8 111.929 1077.56 111.808 1077.35 111.644 1077.14 111.481 1076.98 111.28 1076.85 111.042 1076.72 110.804 1076.66 110.526 1076.66 110.209 1076.66 109.677 1076.8 109.259 1077.07 108.956 1077.35 108.652 1077.69 108.425 1078.11 108.276 1078.52 108.127 1078.97 108.033 1079.44 107.996 1079.91 107.959 1080.34 107.94 1080.74 107.94L1081.2 107.94Z" stroke="#51C46E" stroke-width="0.391986" stroke-linejoin="round" stroke-miterlimit="2" fill="#4DBF57" transform="matrix(1.00017 0 0 1 -899.848 -66.8043)"/><path d="M1084.83 108.682C1084.83 109.046 1084.88 109.387 1085 109.704 1085.12 110.022 1085.28 110.298 1085.5 110.531 1085.71 110.764 1085.97 110.949 1086.28 111.084 1086.57 111.219 1086.92 111.287 1087.3 111.287 1087.68 111.287 1088.02 111.219 1088.35 111.084 1088.67 110.949 1088.95 110.764 1089.18 110.531 1089.41 110.298 1089.6 110.022 1089.73 109.704 1089.85 109.387 1089.92 109.046 1089.92 108.682 1089.92 108.318 1089.85 107.977 1089.73 107.66 1089.6 107.343 1089.41 107.067 1089.18 106.834 1088.95 106.6 1088.67 106.416 1088.35 106.281 1088.02 106.145 1087.68 106.078 1087.3 106.078 1086.92 106.078 1086.57 106.145 1086.28 106.281 1085.97 106.416 1085.71 106.6 1085.5 106.834 1085.28 107.067 1085.12 107.343 1085 107.66 1084.88 107.977 1084.83 108.318 1084.83 108.682ZM1090.8 111.959 1089.88 111.959 1089.88 110.867 1089.85 110.867C1089.7 111.091 1089.52 111.282 1089.32 111.441 1089.11 111.6 1088.9 111.73 1088.67 111.833 1088.45 111.936 1088.22 112.01 1087.98 112.057 1087.75 112.104 1087.52 112.127 1087.3 112.127 1086.79 112.127 1086.32 112.041 1085.89 111.868 1085.47 111.695 1085.1 111.455 1084.8 111.147 1084.49 110.839 1084.25 110.475 1084.07 110.055 1083.9 109.634 1083.82 109.177 1083.82 108.682 1083.82 108.188 1083.9 107.73 1084.07 107.31 1084.25 106.89 1084.49 106.526 1084.8 106.217 1085.1 105.909 1085.47 105.669 1085.89 105.496 1086.32 105.324 1086.79 105.237 1087.3 105.237 1087.52 105.237 1087.75 105.261 1087.98 105.307 1088.22 105.354 1088.45 105.429 1088.67 105.531 1088.9 105.634 1089.11 105.765 1089.32 105.923 1089.52 106.082 1089.7 106.274 1089.85 106.497L1089.88 106.497 1089.88 101.372 1090.8 101.372 1090.8 111.959Z" stroke="#51C46E" stroke-width="0.391986" stroke-linejoin="round" stroke-miterlimit="2" fill="#4DBF57" transform="matrix(1.00017 0 0 1 -899.848 -66.8043)"/><path d="M1095.7 111.959 1094.67 111.959 1092.01 105.406 1093.11 105.406 1095.2 110.923 1095.23 110.923 1097.32 105.406 1098.37 105.406 1095.7 111.959Z" stroke="#51C46E" stroke-width="0.391986" stroke-linejoin="round" stroke-miterlimit="2" fill="#4DBF57" transform="matrix(1.00017 0 0 1 -899.848 -66.8043)"/><path d="M622.794 205.466 622.794 59.8683" stroke="#000000" stroke-width="5.24142" stroke-linecap="round" stroke-linejoin="round" stroke-miterlimit="1.5" fill="none" fill-rule="evenodd" transform="matrix(1.00017 0 0 1 -587.67 -33.851)"/><path d="M622.794 59.8683 611.454 71.2082" stroke="#000000" stroke-width="5.24142" stroke-linecap="round" stroke-linejoin="round" stroke-miterlimit="1.5" fill="none" fill-rule="evenodd" transform="matrix(1.00017 0 0 1 -587.67 -33.851)"/><path d="M622.794 59.8683 633.785 70.8577" stroke="#000000" stroke-width="5.24142" stroke-linecap="round" stroke-linejoin="round" stroke-miterlimit="1.5" fill="none" fill-rule="evenodd" transform="matrix(1.00017 0 0 1 -587.67 -33.851)"/><path d="M1121.25 214.876 1113.84 214.876 1113.84 230.004C1113.84 230.954 1113.94 231.731 1114.12 232.334 1114.3 232.937 1114.56 233.402 1114.89 233.731 1115.22 234.06 1115.61 234.288 1116.07 234.416 1116.52 234.544 1117.03 234.608 1117.58 234.608 1118.19 234.608 1118.83 234.517 1119.49 234.334 1120.15 234.152 1120.75 233.914 1121.3 233.621L1121.46 236.966C1120.11 237.587 1118.49 237.897 1116.59 237.897 1115.89 237.897 1115.17 237.806 1114.42 237.623 1113.67 237.44 1112.99 237.094 1112.36 236.581 1111.75 236.07 1111.23 235.376 1110.83 234.499 1110.43 233.621 1110.23 232.47 1110.23 231.045L1110.23 214.876 1104.8 214.876 1104.8 211.586 1110.23 211.586 1110.23 204.351 1113.84 204.351 1113.84 211.586 1121.25 211.586 1121.25 214.876Z" stroke="#000000" stroke-width="0.394054" stroke-linejoin="round" stroke-miterlimit="2" transform="matrix(1.00017 0 0 1 -1104.79 -139.437)"/><path d="M746.143 207.855 861.959 89.4999" stroke="#C649AD" stroke-width="5.24142" stroke-linecap="round" stroke-linejoin="round" stroke-miterlimit="1.5" fill="none" fill-rule="evenodd" transform="matrix(1.00017 0 0 1 -648.381 -33.851)"/><path d="M745.544 206.292 802.68 88.7325" stroke="#C649AD" stroke-width="5.24142" stroke-linecap="round" stroke-linejoin="round" stroke-miterlimit="1.5" stroke-dasharray="5.24142 10.4828 0 0" fill="none" fill-rule="evenodd" transform="matrix(1.00017 0 0 1 -648.381 -33.851)"/><path d="M745.544 206.292 962.692 89.1017" stroke="#C649AD" stroke-width="5.24142" stroke-linecap="round" stroke-linejoin="round" stroke-miterlimit="1.5" stroke-dasharray="5.24142 10.4828 0 0" fill="none" fill-rule="evenodd" transform="matrix(1.00017 0 0 1 -648.381 -33.851)"/><path d="M807.35 76.9209C809.013 82.9126 810.612 88.3214 816.265 91.5175" stroke="#4DB94B" stroke-width="5.24142" stroke-linecap="round" stroke-linejoin="round" stroke-miterlimit="1.5" fill="#3EAE3D" fill-rule="evenodd" transform="matrix(1.00017 0 0 1 -648.381 -33.851)"/><path d="M816.265 91.5175 809.713 94.588" stroke="#4DB94B" stroke-width="5.24142" stroke-linecap="round" stroke-linejoin="round" stroke-miterlimit="1.5" fill="none" fill-rule="evenodd" transform="matrix(1.00017 0 0 1 -648.381 -33.851)"/><path d="M816.265 91.5175 817.508 83.9436" stroke="#4DB94B" stroke-width="5.24142" stroke-linecap="round" stroke-linejoin="round" stroke-miterlimit="1.5" fill="none" fill-rule="evenodd" transform="matrix(1.00017 0 0 1 -648.381 -33.851)"/></g></svg>