<?xml version="1.0" encoding="utf-8" standalone="no"?>
<!DOCTYPE svg PUBLIC "-//W3C//DTD SVG 1.1//EN"
  "http://www.w3.org/Graphics/SVG/1.1/DTD/svg11.dtd">
<svg xmlns:xlink="http://www.w3.org/1999/xlink" width="460.8pt" height="345.6pt" viewBox="0 0 460.8 345.6" xmlns="http://www.w3.org/2000/svg" version="1.1">
 <metadata>
  <rdf:RDF xmlns:dc="http://purl.org/dc/elements/1.1/" xmlns:cc="http://creativecommons.org/ns#" xmlns:rdf="http://www.w3.org/1999/02/22-rdf-syntax-ns#">
   <cc:Work>
    <dc:type rdf:resource="http://purl.org/dc/dcmitype/StillImage"/>
    <dc:date>2024-02-01T14:59:18.639169</dc:date>
    <dc:format>image/svg+xml</dc:format>
    <dc:creator>
     <cc:Agent>
      <dc:title>Matplotlib v3.5.1, https://matplotlib.org/</dc:title>
     </cc:Agent>
    </dc:creator>
   </cc:Work>
  </rdf:RDF>
 </metadata>
 <defs>
  <style type="text/css">*{stroke-linejoin: round; stroke-linecap: butt}</style>
 </defs>
 <g id="figure_1">
  <g id="patch_1">
   <path d="M 0 345.6 
L 460.8 345.6 
L 460.8 0 
L 0 0 
z
" style="fill: #ffffff"/>
  </g>
  <g id="axes_1">
   <g id="patch_2">
    <path d="M 57.6 307.584 
L 414.72 307.584 
L 414.72 41.472 
L 57.6 41.472 
z
" style="fill: #ffffff"/>
   </g>
   <g id="matplotlib.axis_1">
    <g id="xtick_1">
     <g id="line2d_1">
      <defs>
       <path id="m51e1bc2687" d="M 0 0 
L 0 3.5 
" style="stroke: #000000; stroke-width: 0.8"/>
      </defs>
      <g>
       <use xlink:href="#m51e1bc2687" x="73.832727" y="307.584" style="stroke: #000000; stroke-width: 0.8"/>
      </g>
     </g>
     <g id="text_1">
      <!-- 0.0 -->
      <g transform="translate(65.881165 322.182437)scale(0.1 -0.1)">
       <defs>
        <path id="DejaVuSans-30" d="M 2034 4250 
Q 1547 4250 1301 3770 
Q 1056 3291 1056 2328 
Q 1056 1369 1301 889 
Q 1547 409 2034 409 
Q 2525 409 2770 889 
Q 3016 1369 3016 2328 
Q 3016 3291 2770 3770 
Q 2525 4250 2034 4250 
z
M 2034 4750 
Q 2819 4750 3233 4129 
Q 3647 3509 3647 2328 
Q 3647 1150 3233 529 
Q 2819 -91 2034 -91 
Q 1250 -91 836 529 
Q 422 1150 422 2328 
Q 422 3509 836 4129 
Q 1250 4750 2034 4750 
z
" transform="scale(0.015625)"/>
        <path id="DejaVuSans-2e" d="M 684 794 
L 1344 794 
L 1344 0 
L 684 0 
L 684 794 
z
" transform="scale(0.015625)"/>
       </defs>
       <use xlink:href="#DejaVuSans-30"/>
       <use xlink:href="#DejaVuSans-2e" x="63.623047"/>
       <use xlink:href="#DejaVuSans-30" x="95.410156"/>
      </g>
     </g>
    </g>
    <g id="xtick_2">
     <g id="line2d_2">
      <g>
       <use xlink:href="#m51e1bc2687" x="120.211948" y="307.584" style="stroke: #000000; stroke-width: 0.8"/>
      </g>
     </g>
     <g id="text_2">
      <!-- 2.5 -->
      <g transform="translate(112.260386 322.182437)scale(0.1 -0.1)">
       <defs>
        <path id="DejaVuSans-32" d="M 1228 531 
L 3431 531 
L 3431 0 
L 469 0 
L 469 531 
Q 828 903 1448 1529 
Q 2069 2156 2228 2338 
Q 2531 2678 2651 2914 
Q 2772 3150 2772 3378 
Q 2772 3750 2511 3984 
Q 2250 4219 1831 4219 
Q 1534 4219 1204 4116 
Q 875 4013 500 3803 
L 500 4441 
Q 881 4594 1212 4672 
Q 1544 4750 1819 4750 
Q 2544 4750 2975 4387 
Q 3406 4025 3406 3419 
Q 3406 3131 3298 2873 
Q 3191 2616 2906 2266 
Q 2828 2175 2409 1742 
Q 1991 1309 1228 531 
z
" transform="scale(0.015625)"/>
        <path id="DejaVuSans-35" d="M 691 4666 
L 3169 4666 
L 3169 4134 
L 1269 4134 
L 1269 2991 
Q 1406 3038 1543 3061 
Q 1681 3084 1819 3084 
Q 2600 3084 3056 2656 
Q 3513 2228 3513 1497 
Q 3513 744 3044 326 
Q 2575 -91 1722 -91 
Q 1428 -91 1123 -41 
Q 819 9 494 109 
L 494 744 
Q 775 591 1075 516 
Q 1375 441 1709 441 
Q 2250 441 2565 725 
Q 2881 1009 2881 1497 
Q 2881 1984 2565 2268 
Q 2250 2553 1709 2553 
Q 1456 2553 1204 2497 
Q 953 2441 691 2322 
L 691 4666 
z
" transform="scale(0.015625)"/>
       </defs>
       <use xlink:href="#DejaVuSans-32"/>
       <use xlink:href="#DejaVuSans-2e" x="63.623047"/>
       <use xlink:href="#DejaVuSans-35" x="95.410156"/>
      </g>
     </g>
    </g>
    <g id="xtick_3">
     <g id="line2d_3">
      <g>
       <use xlink:href="#m51e1bc2687" x="166.591169" y="307.584" style="stroke: #000000; stroke-width: 0.8"/>
      </g>
     </g>
     <g id="text_3">
      <!-- 5.0 -->
      <g transform="translate(158.639606 322.182437)scale(0.1 -0.1)">
       <use xlink:href="#DejaVuSans-35"/>
       <use xlink:href="#DejaVuSans-2e" x="63.623047"/>
       <use xlink:href="#DejaVuSans-30" x="95.410156"/>
      </g>
     </g>
    </g>
    <g id="xtick_4">
     <g id="line2d_4">
      <g>
       <use xlink:href="#m51e1bc2687" x="212.97039" y="307.584" style="stroke: #000000; stroke-width: 0.8"/>
      </g>
     </g>
     <g id="text_4">
      <!-- 7.5 -->
      <g transform="translate(205.018827 322.182437)scale(0.1 -0.1)">
       <defs>
        <path id="DejaVuSans-37" d="M 525 4666 
L 3525 4666 
L 3525 4397 
L 1831 0 
L 1172 0 
L 2766 4134 
L 525 4134 
L 525 4666 
z
" transform="scale(0.015625)"/>
       </defs>
       <use xlink:href="#DejaVuSans-37"/>
       <use xlink:href="#DejaVuSans-2e" x="63.623047"/>
       <use xlink:href="#DejaVuSans-35" x="95.410156"/>
      </g>
     </g>
    </g>
    <g id="xtick_5">
     <g id="line2d_5">
      <g>
       <use xlink:href="#m51e1bc2687" x="259.34961" y="307.584" style="stroke: #000000; stroke-width: 0.8"/>
      </g>
     </g>
     <g id="text_5">
      <!-- 10.0 -->
      <g transform="translate(248.216798 322.182437)scale(0.1 -0.1)">
       <defs>
        <path id="DejaVuSans-31" d="M 794 531 
L 1825 531 
L 1825 4091 
L 703 3866 
L 703 4441 
L 1819 4666 
L 2450 4666 
L 2450 531 
L 3481 531 
L 3481 0 
L 794 0 
L 794 531 
z
" transform="scale(0.015625)"/>
       </defs>
       <use xlink:href="#DejaVuSans-31"/>
       <use xlink:href="#DejaVuSans-30" x="63.623047"/>
       <use xlink:href="#DejaVuSans-2e" x="127.246094"/>
       <use xlink:href="#DejaVuSans-30" x="159.033203"/>
      </g>
     </g>
    </g>
    <g id="xtick_6">
     <g id="line2d_6">
      <g>
       <use xlink:href="#m51e1bc2687" x="305.728831" y="307.584" style="stroke: #000000; stroke-width: 0.8"/>
      </g>
     </g>
     <g id="text_6">
      <!-- 12.5 -->
      <g transform="translate(294.596019 322.182437)scale(0.1 -0.1)">
       <use xlink:href="#DejaVuSans-31"/>
       <use xlink:href="#DejaVuSans-32" x="63.623047"/>
       <use xlink:href="#DejaVuSans-2e" x="127.246094"/>
       <use xlink:href="#DejaVuSans-35" x="159.033203"/>
      </g>
     </g>
    </g>
    <g id="xtick_7">
     <g id="line2d_7">
      <g>
       <use xlink:href="#m51e1bc2687" x="352.108052" y="307.584" style="stroke: #000000; stroke-width: 0.8"/>
      </g>
     </g>
     <g id="text_7">
      <!-- 15.0 -->
      <g transform="translate(340.975239 322.182437)scale(0.1 -0.1)">
       <use xlink:href="#DejaVuSans-31"/>
       <use xlink:href="#DejaVuSans-35" x="63.623047"/>
       <use xlink:href="#DejaVuSans-2e" x="127.246094"/>
       <use xlink:href="#DejaVuSans-30" x="159.033203"/>
      </g>
     </g>
    </g>
    <g id="xtick_8">
     <g id="line2d_8">
      <g>
       <use xlink:href="#m51e1bc2687" x="398.487273" y="307.584" style="stroke: #000000; stroke-width: 0.8"/>
      </g>
     </g>
     <g id="text_8">
      <!-- 17.5 -->
      <g transform="translate(387.35446 322.182437)scale(0.1 -0.1)">
       <use xlink:href="#DejaVuSans-31"/>
       <use xlink:href="#DejaVuSans-37" x="63.623047"/>
       <use xlink:href="#DejaVuSans-2e" x="127.246094"/>
       <use xlink:href="#DejaVuSans-35" x="159.033203"/>
      </g>
     </g>
    </g>
    <g id="text_9">
     <!-- x -->
     <g transform="translate(233.200625 335.860562)scale(0.1 -0.1)">
      <defs>
       <path id="DejaVuSans-78" d="M 3513 3500 
L 2247 1797 
L 3578 0 
L 2900 0 
L 1881 1375 
L 863 0 
L 184 0 
L 1544 1831 
L 300 3500 
L 978 3500 
L 1906 2253 
L 2834 3500 
L 3513 3500 
z
" transform="scale(0.015625)"/>
      </defs>
      <use xlink:href="#DejaVuSans-78"/>
     </g>
    </g>
   </g>
   <g id="matplotlib.axis_2">
    <g id="ytick_1">
     <g id="line2d_9">
      <defs>
       <path id="m288cdb232a" d="M 0 0 
L -3.5 0 
" style="stroke: #000000; stroke-width: 0.8"/>
      </defs>
      <g>
       <use xlink:href="#m288cdb232a" x="57.6" y="295.488" style="stroke: #000000; stroke-width: 0.8"/>
      </g>
     </g>
     <g id="text_10">
      <!-- −1.00 -->
      <g transform="translate(19.954687 299.287219)scale(0.1 -0.1)">
       <defs>
        <path id="DejaVuSans-2212" d="M 678 2272 
L 4684 2272 
L 4684 1741 
L 678 1741 
L 678 2272 
z
" transform="scale(0.015625)"/>
       </defs>
       <use xlink:href="#DejaVuSans-2212"/>
       <use xlink:href="#DejaVuSans-31" x="83.789062"/>
       <use xlink:href="#DejaVuSans-2e" x="147.412109"/>
       <use xlink:href="#DejaVuSans-30" x="179.199219"/>
       <use xlink:href="#DejaVuSans-30" x="242.822266"/>
      </g>
     </g>
    </g>
    <g id="ytick_2">
     <g id="line2d_10">
      <g>
       <use xlink:href="#m288cdb232a" x="57.6" y="265.248" style="stroke: #000000; stroke-width: 0.8"/>
      </g>
     </g>
     <g id="text_11">
      <!-- −0.75 -->
      <g transform="translate(19.954687 269.047219)scale(0.1 -0.1)">
       <use xlink:href="#DejaVuSans-2212"/>
       <use xlink:href="#DejaVuSans-30" x="83.789062"/>
       <use xlink:href="#DejaVuSans-2e" x="147.412109"/>
       <use xlink:href="#DejaVuSans-37" x="179.199219"/>
       <use xlink:href="#DejaVuSans-35" x="242.822266"/>
      </g>
     </g>
    </g>
    <g id="ytick_3">
     <g id="line2d_11">
      <g>
       <use xlink:href="#m288cdb232a" x="57.6" y="235.008" style="stroke: #000000; stroke-width: 0.8"/>
      </g>
     </g>
     <g id="text_12">
      <!-- −0.50 -->
      <g transform="translate(19.954687 238.807219)scale(0.1 -0.1)">
       <use xlink:href="#DejaVuSans-2212"/>
       <use xlink:href="#DejaVuSans-30" x="83.789062"/>
       <use xlink:href="#DejaVuSans-2e" x="147.412109"/>
       <use xlink:href="#DejaVuSans-35" x="179.199219"/>
       <use xlink:href="#DejaVuSans-30" x="242.822266"/>
      </g>
     </g>
    </g>
    <g id="ytick_4">
     <g id="line2d_12">
      <g>
       <use xlink:href="#m288cdb232a" x="57.6" y="204.768" style="stroke: #000000; stroke-width: 0.8"/>
      </g>
     </g>
     <g id="text_13">
      <!-- −0.25 -->
      <g transform="translate(19.954687 208.567219)scale(0.1 -0.1)">
       <use xlink:href="#DejaVuSans-2212"/>
       <use xlink:href="#DejaVuSans-30" x="83.789062"/>
       <use xlink:href="#DejaVuSans-2e" x="147.412109"/>
       <use xlink:href="#DejaVuSans-32" x="179.199219"/>
       <use xlink:href="#DejaVuSans-35" x="242.822266"/>
      </g>
     </g>
    </g>
    <g id="ytick_5">
     <g id="line2d_13">
      <g>
       <use xlink:href="#m288cdb232a" x="57.6" y="174.528" style="stroke: #000000; stroke-width: 0.8"/>
      </g>
     </g>
     <g id="text_14">
      <!-- 0.00 -->
      <g transform="translate(28.334375 178.327219)scale(0.1 -0.1)">
       <use xlink:href="#DejaVuSans-30"/>
       <use xlink:href="#DejaVuSans-2e" x="63.623047"/>
       <use xlink:href="#DejaVuSans-30" x="95.410156"/>
       <use xlink:href="#DejaVuSans-30" x="159.033203"/>
      </g>
     </g>
    </g>
    <g id="ytick_6">
     <g id="line2d_14">
      <g>
       <use xlink:href="#m288cdb232a" x="57.6" y="144.288" style="stroke: #000000; stroke-width: 0.8"/>
      </g>
     </g>
     <g id="text_15">
      <!-- 0.25 -->
      <g transform="translate(28.334375 148.087219)scale(0.1 -0.1)">
       <use xlink:href="#DejaVuSans-30"/>
       <use xlink:href="#DejaVuSans-2e" x="63.623047"/>
       <use xlink:href="#DejaVuSans-32" x="95.410156"/>
       <use xlink:href="#DejaVuSans-35" x="159.033203"/>
      </g>
     </g>
    </g>
    <g id="ytick_7">
     <g id="line2d_15">
      <g>
       <use xlink:href="#m288cdb232a" x="57.6" y="114.048" style="stroke: #000000; stroke-width: 0.8"/>
      </g>
     </g>
     <g id="text_16">
      <!-- 0.50 -->
      <g transform="translate(28.334375 117.847219)scale(0.1 -0.1)">
       <use xlink:href="#DejaVuSans-30"/>
       <use xlink:href="#DejaVuSans-2e" x="63.623047"/>
       <use xlink:href="#DejaVuSans-35" x="95.410156"/>
       <use xlink:href="#DejaVuSans-30" x="159.033203"/>
      </g>
     </g>
    </g>
    <g id="ytick_8">
     <g id="line2d_16">
      <g>
       <use xlink:href="#m288cdb232a" x="57.6" y="83.808" style="stroke: #000000; stroke-width: 0.8"/>
      </g>
     </g>
     <g id="text_17">
      <!-- 0.75 -->
      <g transform="translate(28.334375 87.607219)scale(0.1 -0.1)">
       <use xlink:href="#DejaVuSans-30"/>
       <use xlink:href="#DejaVuSans-2e" x="63.623047"/>
       <use xlink:href="#DejaVuSans-37" x="95.410156"/>
       <use xlink:href="#DejaVuSans-35" x="159.033203"/>
      </g>
     </g>
    </g>
    <g id="ytick_9">
     <g id="line2d_17">
      <g>
       <use xlink:href="#m288cdb232a" x="57.6" y="53.568" style="stroke: #000000; stroke-width: 0.8"/>
      </g>
     </g>
     <g id="text_18">
      <!-- 1.00 -->
      <g transform="translate(28.334375 57.367219)scale(0.1 -0.1)">
       <use xlink:href="#DejaVuSans-31"/>
       <use xlink:href="#DejaVuSans-2e" x="63.623047"/>
       <use xlink:href="#DejaVuSans-30" x="95.410156"/>
       <use xlink:href="#DejaVuSans-30" x="159.033203"/>
      </g>
     </g>
    </g>
    <g id="text_19">
     <!-- amplitude -->
     <g transform="translate(13.875 199.794406)rotate(-90)scale(0.1 -0.1)">
      <defs>
       <path id="DejaVuSans-61" d="M 2194 1759 
Q 1497 1759 1228 1600 
Q 959 1441 959 1056 
Q 959 750 1161 570 
Q 1363 391 1709 391 
Q 2188 391 2477 730 
Q 2766 1069 2766 1631 
L 2766 1759 
L 2194 1759 
z
M 3341 1997 
L 3341 0 
L 2766 0 
L 2766 531 
Q 2569 213 2275 61 
Q 1981 -91 1556 -91 
Q 1019 -91 701 211 
Q 384 513 384 1019 
Q 384 1609 779 1909 
Q 1175 2209 1959 2209 
L 2766 2209 
L 2766 2266 
Q 2766 2663 2505 2880 
Q 2244 3097 1772 3097 
Q 1472 3097 1187 3025 
Q 903 2953 641 2809 
L 641 3341 
Q 956 3463 1253 3523 
Q 1550 3584 1831 3584 
Q 2591 3584 2966 3190 
Q 3341 2797 3341 1997 
z
" transform="scale(0.015625)"/>
       <path id="DejaVuSans-6d" d="M 3328 2828 
Q 3544 3216 3844 3400 
Q 4144 3584 4550 3584 
Q 5097 3584 5394 3201 
Q 5691 2819 5691 2113 
L 5691 0 
L 5113 0 
L 5113 2094 
Q 5113 2597 4934 2840 
Q 4756 3084 4391 3084 
Q 3944 3084 3684 2787 
Q 3425 2491 3425 1978 
L 3425 0 
L 2847 0 
L 2847 2094 
Q 2847 2600 2669 2842 
Q 2491 3084 2119 3084 
Q 1678 3084 1418 2786 
Q 1159 2488 1159 1978 
L 1159 0 
L 581 0 
L 581 3500 
L 1159 3500 
L 1159 2956 
Q 1356 3278 1631 3431 
Q 1906 3584 2284 3584 
Q 2666 3584 2933 3390 
Q 3200 3197 3328 2828 
z
" transform="scale(0.015625)"/>
       <path id="DejaVuSans-70" d="M 1159 525 
L 1159 -1331 
L 581 -1331 
L 581 3500 
L 1159 3500 
L 1159 2969 
Q 1341 3281 1617 3432 
Q 1894 3584 2278 3584 
Q 2916 3584 3314 3078 
Q 3713 2572 3713 1747 
Q 3713 922 3314 415 
Q 2916 -91 2278 -91 
Q 1894 -91 1617 61 
Q 1341 213 1159 525 
z
M 3116 1747 
Q 3116 2381 2855 2742 
Q 2594 3103 2138 3103 
Q 1681 3103 1420 2742 
Q 1159 2381 1159 1747 
Q 1159 1113 1420 752 
Q 1681 391 2138 391 
Q 2594 391 2855 752 
Q 3116 1113 3116 1747 
z
" transform="scale(0.015625)"/>
       <path id="DejaVuSans-6c" d="M 603 4863 
L 1178 4863 
L 1178 0 
L 603 0 
L 603 4863 
z
" transform="scale(0.015625)"/>
       <path id="DejaVuSans-69" d="M 603 3500 
L 1178 3500 
L 1178 0 
L 603 0 
L 603 3500 
z
M 603 4863 
L 1178 4863 
L 1178 4134 
L 603 4134 
L 603 4863 
z
" transform="scale(0.015625)"/>
       <path id="DejaVuSans-74" d="M 1172 4494 
L 1172 3500 
L 2356 3500 
L 2356 3053 
L 1172 3053 
L 1172 1153 
Q 1172 725 1289 603 
Q 1406 481 1766 481 
L 2356 481 
L 2356 0 
L 1766 0 
Q 1100 0 847 248 
Q 594 497 594 1153 
L 594 3053 
L 172 3053 
L 172 3500 
L 594 3500 
L 594 4494 
L 1172 4494 
z
" transform="scale(0.015625)"/>
       <path id="DejaVuSans-75" d="M 544 1381 
L 544 3500 
L 1119 3500 
L 1119 1403 
Q 1119 906 1312 657 
Q 1506 409 1894 409 
Q 2359 409 2629 706 
Q 2900 1003 2900 1516 
L 2900 3500 
L 3475 3500 
L 3475 0 
L 2900 0 
L 2900 538 
Q 2691 219 2414 64 
Q 2138 -91 1772 -91 
Q 1169 -91 856 284 
Q 544 659 544 1381 
z
M 1991 3584 
L 1991 3584 
z
" transform="scale(0.015625)"/>
       <path id="DejaVuSans-64" d="M 2906 2969 
L 2906 4863 
L 3481 4863 
L 3481 0 
L 2906 0 
L 2906 525 
Q 2725 213 2448 61 
Q 2172 -91 1784 -91 
Q 1150 -91 751 415 
Q 353 922 353 1747 
Q 353 2572 751 3078 
Q 1150 3584 1784 3584 
Q 2172 3584 2448 3432 
Q 2725 3281 2906 2969 
z
M 947 1747 
Q 947 1113 1208 752 
Q 1469 391 1925 391 
Q 2381 391 2643 752 
Q 2906 1113 2906 1747 
Q 2906 2381 2643 2742 
Q 2381 3103 1925 3103 
Q 1469 3103 1208 2742 
Q 947 2381 947 1747 
z
" transform="scale(0.015625)"/>
       <path id="DejaVuSans-65" d="M 3597 1894 
L 3597 1613 
L 953 1613 
Q 991 1019 1311 708 
Q 1631 397 2203 397 
Q 2534 397 2845 478 
Q 3156 559 3463 722 
L 3463 178 
Q 3153 47 2828 -22 
Q 2503 -91 2169 -91 
Q 1331 -91 842 396 
Q 353 884 353 1716 
Q 353 2575 817 3079 
Q 1281 3584 2069 3584 
Q 2775 3584 3186 3129 
Q 3597 2675 3597 1894 
z
M 3022 2063 
Q 3016 2534 2758 2815 
Q 2500 3097 2075 3097 
Q 1594 3097 1305 2825 
Q 1016 2553 972 2059 
L 3022 2063 
z
" transform="scale(0.015625)"/>
      </defs>
      <use xlink:href="#DejaVuSans-61"/>
      <use xlink:href="#DejaVuSans-6d" x="61.279297"/>
      <use xlink:href="#DejaVuSans-70" x="158.691406"/>
      <use xlink:href="#DejaVuSans-6c" x="222.167969"/>
      <use xlink:href="#DejaVuSans-69" x="249.951172"/>
      <use xlink:href="#DejaVuSans-74" x="277.734375"/>
      <use xlink:href="#DejaVuSans-75" x="316.943359"/>
      <use xlink:href="#DejaVuSans-64" x="380.322266"/>
      <use xlink:href="#DejaVuSans-65" x="443.798828"/>
     </g>
    </g>
   </g>
   <g id="line2d_18">
    <path d="M 73.832727 174.528 
L 76.432563 122.977556 
L 78.057461 95.185455 
L 79.357379 77.163532 
L 80.332318 66.691474 
L 80.982277 61.325007 
L 81.632236 57.328552 
L 82.282195 54.750474 
L 82.607174 54.00376 
L 82.932154 53.621975 
L 83.257133 53.606277 
L 83.582113 53.956712 
L 83.907093 54.67222 
L 84.557052 57.188688 
L 85.207011 61.125227 
L 85.85697 66.434196 
L 86.831908 76.826052 
L 87.806847 89.874983 
L 89.106765 110.784194 
L 90.731663 141.113782 
L 95.931335 242.891516 
L 97.231253 263.031447 
L 98.206192 275.37908 
L 99.18113 284.983994 
L 99.831089 289.731245 
L 100.481048 293.084277 
L 101.131007 295.002511 
L 101.455987 295.415636 
L 101.780966 295.462731 
L 102.105946 295.143653 
L 102.430925 294.459367 
L 103.080885 292.004564 
L 103.730844 288.128029 
L 104.380803 282.876677 
L 105.355741 272.565255 
L 106.33068 259.587638 
L 107.630598 238.756018 
L 109.255495 208.490223 
L 114.780147 101.232182 
L 116.080066 81.989633 
L 117.055004 70.445577 
L 118.029943 61.732118 
L 118.679902 57.616098 
L 119.329861 54.914977 
L 119.65484 54.105899 
L 119.97982 53.661443 
L 120.304799 53.582952 
L 120.629779 53.870667 
L 120.954758 54.523714 
L 121.604717 56.916798 
L 122.254676 60.733243 
L 122.904636 65.926861 
L 123.879574 76.15762 
L 124.854513 89.063634 
L 126.154431 109.817199 
L 127.779328 140.018527 
L 133.30398 247.369106 
L 134.603898 266.69789 
L 135.578837 278.318554 
L 136.553776 287.116559 
L 137.203735 291.292224 
L 137.853694 294.054779 
L 138.178673 294.895011 
L 138.503653 295.37079 
L 138.828632 295.480673 
L 139.153612 295.22433 
L 139.478591 294.602535 
L 139.803571 293.617172 
L 140.45353 290.568766 
L 141.103489 286.116005 
L 141.753448 280.312778 
L 142.728387 269.233708 
L 143.703325 255.579047 
L 145.003243 234.017048 
L 146.628141 203.163007 
L 151.502834 107.583422 
L 152.802752 87.200191 
L 153.77769 74.632098 
L 154.752629 64.780746 
L 155.402588 59.858058 
L 156.052547 56.323134 
L 156.702506 54.218757 
L 157.027486 53.711667 
L 157.352465 53.570392 
L 157.677445 53.79536 
L 158.002424 54.385888 
L 158.327404 55.34019 
L 158.977363 58.327461 
L 159.627322 62.721021 
L 160.277281 68.467699 
L 161.252219 79.468398 
L 162.227158 93.054312 
L 163.527076 114.542809 
L 165.151974 145.338951 
L 170.026667 240.996606 
L 171.326585 261.460032 
L 172.301523 274.101055 
L 173.276462 284.034116 
L 173.926421 289.015066 
L 174.57638 292.610465 
L 175.226339 294.776798 
L 175.551319 295.315188 
L 175.876298 295.48785 
L 176.201278 295.294264 
L 176.526257 294.735015 
L 176.851237 293.811797 
L 177.501196 290.885726 
L 178.151155 286.551464 
L 178.801114 280.861465 
L 179.776052 269.939381 
L 180.750991 256.422515 
L 182.050909 235.008 
L 183.675807 204.270441 
L 188.5505 108.536845 
L 189.850418 87.99368 
L 190.825356 75.280009 
L 191.800295 65.265458 
L 192.450254 60.226357 
L 193.100213 56.570564 
L 193.750172 54.342322 
L 194.075152 53.772645 
L 194.400131 53.568598 
L 194.725111 53.730799 
L 195.05009 54.258756 
L 195.37507 55.150871 
L 196.025029 58.015676 
L 196.674988 62.290543 
L 197.324947 67.923737 
L 198.299885 78.766963 
L 199.274824 92.214479 
L 200.574742 113.554537 
L 202.19964 144.232828 
L 207.074333 240.040235 
L 208.374251 260.662683 
L 209.349189 273.44872 
L 210.324128 283.544536 
L 210.974087 288.641676 
L 211.624046 292.357783 
L 212.274005 294.647883 
L 212.598984 295.248835 
L 212.923964 295.484262 
L 213.248943 295.35345 
L 213.573923 294.856797 
L 213.898903 293.995805 
L 214.548862 291.192329 
L 215.198821 286.976952 
L 215.84878 281.400689 
L 216.823718 270.636563 
L 217.798657 257.258695 
L 219.098575 235.993569 
L 220.723473 205.375228 
L 225.598165 109.496142 
L 226.898084 88.794871 
L 227.873022 75.936753 
L 228.847961 65.759895 
L 229.49792 60.60483 
L 230.147879 56.828492 
L 230.797838 54.476584 
L 231.122817 53.844371 
L 231.447797 53.57757 
L 231.772776 53.676989 
L 232.097756 54.142328 
L 232.422735 54.972177 
L 233.072695 57.714261 
L 233.722654 61.870055 
L 234.372613 67.389264 
L 235.347551 78.07405 
L 236.32249 91.381972 
L 237.622408 112.571692 
L 239.247305 143.129401 
L 244.446978 244.607152 
L 245.746896 264.444247 
L 246.721835 276.519074 
L 247.696773 285.820179 
L 248.346732 290.35172 
L 248.996691 293.481532 
L 249.64665 295.171738 
L 249.97163 295.469908 
L 250.296609 295.401882 
L 250.621589 294.967869 
L 250.946568 294.16918 
L 251.596527 291.488549 
L 252.246486 287.392432 
L 252.896446 281.9304 
L 253.871384 271.32519 
L 254.846323 258.087511 
L 256.146241 236.973668 
L 257.771138 206.47727 
L 262.970811 104.914691 
L 264.270729 84.994412 
L 265.245667 72.844822 
L 266.220606 63.46058 
L 266.870565 58.870072 
L 267.520524 55.679286 
L 268.170483 53.926838 
L 268.495463 53.597306 
L 268.820442 53.633936 
L 269.145422 54.036615 
L 269.470401 54.804125 
L 270.12036 57.423243 
L 270.770319 61.459593 
L 271.420278 66.864326 
L 272.395217 77.389723 
L 273.370156 90.556866 
L 274.670074 111.594361 
L 276.294971 142.02877 
L 281.494644 243.673917 
L 282.794562 263.676937 
L 283.7695 275.90102 
L 284.744439 285.36819 
L 285.394398 290.017563 
L 286.044357 293.269252 
L 286.694316 295.083903 
L 287.019296 295.444789 
L 287.344275 295.439556 
L 287.669255 295.068221 
L 287.994234 294.331907 
L 288.644193 291.774359 
L 289.294152 287.797866 
L 289.944111 282.450552 
L 290.91905 272.005203 
L 291.893989 258.90889 
L 293.193907 237.948209 
L 294.818804 207.576468 
L 300.018477 105.851014 
L 301.318395 85.765698 
L 302.293333 73.467394 
L 303.268272 63.917507 
L 303.918231 59.209372 
L 304.56819 55.896853 
L 305.218149 54.020038 
L 305.543129 53.627806 
L 305.868108 53.601642 
L 306.193088 53.941626 
L 306.518067 54.646728 
L 307.168026 57.142647 
L 307.817985 61.059195 
L 308.467944 66.348971 
L 309.442883 76.714041 
L 310.417821 89.739233 
L 311.71774 110.622632 
L 313.342637 140.93103 
L 318.54231 242.734527 
L 319.842228 262.901692 
L 320.817166 275.273943 
L 321.792105 284.906335 
L 322.442064 289.673127 
L 323.092023 293.046403 
L 323.741982 294.985339 
L 324.066962 295.408909 
L 324.391941 295.466469 
L 324.716921 295.157844 
L 325.0419 294.48397 
L 325.691859 292.049734 
L 326.341818 288.193219 
L 326.991777 282.961099 
L 327.966716 272.676539 
L 328.941654 259.722758 
L 330.241572 238.917105 
L 331.86647 208.672724 
L 337.391122 101.383572 
L 338.69104 82.11223 
L 339.665979 70.54261 
L 340.640917 61.800947 
L 341.290876 57.665035 
L 341.940835 54.943429 
L 342.265815 54.123965 
L 342.590794 53.669066 
L 342.915774 53.580112 
L 343.240753 53.857369 
L 343.565733 54.500001 
L 344.215692 56.8725 
L 344.865651 60.668896 
L 345.51561 65.843244 
L 346.490549 76.047065 
L 347.465487 88.929147 
L 348.765405 109.65659 
L 350.390303 139.836281 
L 355.914955 247.217174 
L 357.214873 266.574608 
L 358.189812 278.220751 
L 359.16475 287.046895 
L 359.814709 291.242421 
L 360.464668 294.02544 
L 360.789648 294.876053 
L 361.114627 295.362269 
L 361.439607 295.482617 
L 361.764586 295.236732 
L 362.089566 294.625357 
L 362.414545 293.650346 
L 363.064505 290.622311 
L 363.714464 286.189272 
L 364.364423 280.404881 
L 365.339361 269.351907 
L 366.3143 255.720128 
L 367.614218 234.182576 
L 369.239115 203.347759 
L 374.113808 107.741914 
L 375.413726 87.331901 
L 376.388665 74.739467 
L 377.363604 64.860854 
L 378.013563 59.918733 
L 378.663522 56.363643 
L 379.313481 54.238608 
L 379.63846 53.721084 
L 379.96344 53.569346 
L 380.288419 53.783853 
L 380.613399 54.363957 
L 380.938378 55.307899 
L 381.588337 58.274778 
L 382.238296 62.648583 
L 382.888256 68.376381 
L 383.863194 79.350903 
L 384.838133 92.913834 
L 386.138051 114.377724 
L 387.762948 145.154414 
L 392.637641 240.837619 
L 393.937559 261.327676 
L 394.912498 273.992946 
L 395.887437 283.953195 
L 396.537396 288.953541 
L 397.187355 292.56908 
L 397.837314 294.756055 
L 398.162293 295.304875 
L 398.487273 295.488 
L 398.487273 295.488 
" clip-path="url(#pba89b073e6)" style="fill: none; stroke: #1f77b4; stroke-width: 1.5; stroke-linecap: square"/>
   </g>
   <g id="line2d_19">
    <path d="M 73.832727 174.528 
L 81.957215 141.66253 
L 86.506929 124.185051 
L 90.081704 111.269825 
L 93.331499 100.32766 
L 96.256314 91.243939 
L 98.856151 83.852446 
L 101.455987 77.163532 
L 103.730844 71.92795 
L 105.680721 67.923737 
L 107.630598 64.384279 
L 109.580475 61.325007 
L 111.205373 59.152108 
L 112.83027 57.328552 
L 114.455168 55.859858 
L 115.755086 54.943429 
L 117.055004 54.258756 
L 118.354922 53.807165 
L 119.65484 53.589531 
L 120.954758 53.606277 
L 122.254676 53.857369 
L 123.554595 54.342322 
L 124.854513 55.060195 
L 126.154431 56.009597 
L 127.779328 57.519092 
L 129.404226 59.382873 
L 131.029124 61.595297 
L 132.654021 64.149665 
L 134.603898 67.655311 
L 136.553776 71.626883 
L 138.828632 76.826052 
L 141.103489 82.604902 
L 143.703325 89.874983 
L 146.303161 97.800978 
L 149.227977 107.425095 
L 152.477772 118.885875 
L 156.377527 133.514895 
L 161.252219 152.77472 
L 178.801114 223.135412 
L 182.700868 237.299137 
L 185.950663 248.276899 
L 188.875479 257.397344 
L 191.475315 264.824905 
L 194.075152 271.552821 
L 196.350008 276.8247 
L 198.624865 281.489636 
L 200.574742 284.983994 
L 202.524619 287.996805 
L 204.149517 290.130092 
L 205.774414 291.913353 
L 207.399312 293.341187 
L 208.69923 294.224606 
L 209.999148 294.876053 
L 211.299066 295.294264 
L 212.598984 295.47843 
L 213.898903 295.428194 
L 215.198821 295.143653 
L 216.498739 294.625357 
L 217.798657 293.874313 
L 219.098575 292.891975 
L 220.723473 291.341739 
L 222.34837 289.437807 
L 223.973268 287.185945 
L 225.598165 284.592971 
L 227.548043 281.04226 
L 229.49792 277.027187 
L 231.772776 271.779493 
L 234.047633 265.95479 
L 236.647469 258.635927 
L 239.247305 250.665374 
L 242.172121 240.996606 
L 245.421916 229.493524 
L 249.321671 214.82459 
L 254.196364 195.532484 
L 271.095299 127.668142 
L 274.995053 113.39035 
L 278.244848 102.295697 
L 281.169664 93.054312 
L 283.7695 85.507722 
L 286.369337 78.650884 
L 288.644193 73.258868 
L 290.91905 68.467699 
L 292.868927 64.860854 
L 294.818804 61.732118 
L 296.443702 59.499964 
L 298.0686 57.616098 
L 299.693497 56.086225 
L 300.993415 55.12035 
L 302.293333 54.385888 
L 303.593251 53.884262 
L 304.89317 53.616444 
L 306.193088 53.582952 
L 307.493006 53.783853 
L 308.792924 54.218757 
L 310.092842 54.88682 
L 311.39276 55.786748 
L 312.692678 56.916798 
L 314.317576 58.649589 
L 315.942473 60.733243 
L 317.567371 63.161451 
L 319.517248 66.519688 
L 321.467125 70.348802 
L 323.417002 74.632098 
L 325.691859 80.178294 
L 327.966716 86.284282 
L 330.566552 93.901397 
L 333.491368 103.21425 
L 336.741163 114.377724 
L 340.315938 127.492858 
L 344.540672 143.864715 
L 350.390303 167.494801 
L 360.789648 209.583954 
L 365.014382 225.734076 
L 368.589156 238.594772 
L 371.838952 249.477066 
L 374.763767 258.499134 
L 377.363604 265.830148 
L 379.63846 271.666277 
L 381.913317 276.92607 
L 383.863194 280.951994 
L 385.813071 284.51395 
L 387.762948 287.596407 
L 389.387846 289.789079 
L 391.012744 291.632757 
L 392.637641 293.121859 
L 393.937559 294.054779 
L 395.237477 294.756055 
L 396.537396 295.22433 
L 397.837314 295.458694 
L 398.487273 295.488 
L 398.487273 295.488 
" clip-path="url(#pba89b073e6)" style="fill: none; stroke: #ff7f0e; stroke-width: 1.5; stroke-linecap: square"/>
   </g>
   <g id="LineCollection_1">
    <path d="M 73.832727 295.488 
L 73.832727 53.568 
" clip-path="url(#pba89b073e6)" style="fill: none; stroke-dasharray: 5.55,2.4; stroke-dashoffset: 0; stroke: #000000; stroke-opacity: 0.2; stroke-width: 1.5"/>
    <path d="M 120.211948 295.488 
L 120.211948 53.568 
" clip-path="url(#pba89b073e6)" style="fill: none; stroke-dasharray: 5.55,2.4; stroke-dashoffset: 0; stroke: #000000; stroke-opacity: 0.2; stroke-width: 1.5"/>
    <path d="M 166.591169 295.488 
L 166.591169 53.568 
" clip-path="url(#pba89b073e6)" style="fill: none; stroke-dasharray: 5.55,2.4; stroke-dashoffset: 0; stroke: #000000; stroke-opacity: 0.2; stroke-width: 1.5"/>
    <path d="M 212.97039 295.488 
L 212.97039 53.568 
" clip-path="url(#pba89b073e6)" style="fill: none; stroke-dasharray: 5.55,2.4; stroke-dashoffset: 0; stroke: #000000; stroke-opacity: 0.2; stroke-width: 1.5"/>
    <path d="M 259.34961 295.488 
L 259.34961 53.568 
" clip-path="url(#pba89b073e6)" style="fill: none; stroke-dasharray: 5.55,2.4; stroke-dashoffset: 0; stroke: #000000; stroke-opacity: 0.2; stroke-width: 1.5"/>
    <path d="M 305.728831 295.488 
L 305.728831 53.568 
" clip-path="url(#pba89b073e6)" style="fill: none; stroke-dasharray: 5.55,2.4; stroke-dashoffset: 0; stroke: #000000; stroke-opacity: 0.2; stroke-width: 1.5"/>
    <path d="M 352.108052 295.488 
L 352.108052 53.568 
" clip-path="url(#pba89b073e6)" style="fill: none; stroke-dasharray: 5.55,2.4; stroke-dashoffset: 0; stroke: #000000; stroke-opacity: 0.2; stroke-width: 1.5"/>
    <path d="M 398.487273 295.488 
L 398.487273 53.568 
" clip-path="url(#pba89b073e6)" style="fill: none; stroke-dasharray: 5.55,2.4; stroke-dashoffset: 0; stroke: #000000; stroke-opacity: 0.2; stroke-width: 1.5"/>
   </g>
   <g id="line2d_20">
    <defs>
     <path id="m86a77cd6a2" d="M 0 3 
C 0.795609 3 1.55874 2.683901 2.12132 2.12132 
C 2.683901 1.55874 3 0.795609 3 0 
C 3 -0.795609 2.683901 -1.55874 2.12132 -2.12132 
C 1.55874 -2.683901 0.795609 -3 0 -3 
C -0.795609 -3 -1.55874 -2.683901 -2.12132 -2.12132 
C -2.683901 -1.55874 -3 -0.795609 -3 0 
C -3 0.795609 -2.683901 1.55874 -2.12132 2.12132 
C -1.55874 2.683901 -0.795609 3 0 3 
z
" style="stroke: #000000"/>
    </defs>
    <g clip-path="url(#pba89b073e6)">
     <use xlink:href="#m86a77cd6a2" x="73.832727" y="174.528" style="stroke: #000000"/>
     <use xlink:href="#m86a77cd6a2" x="120.211948" y="53.568" style="stroke: #000000"/>
     <use xlink:href="#m86a77cd6a2" x="166.591169" y="174.528" style="stroke: #000000"/>
     <use xlink:href="#m86a77cd6a2" x="212.97039" y="295.488" style="stroke: #000000"/>
     <use xlink:href="#m86a77cd6a2" x="259.34961" y="174.528" style="stroke: #000000"/>
     <use xlink:href="#m86a77cd6a2" x="305.728831" y="53.568" style="stroke: #000000"/>
     <use xlink:href="#m86a77cd6a2" x="352.108052" y="174.528" style="stroke: #000000"/>
     <use xlink:href="#m86a77cd6a2" x="398.487273" y="295.488" style="stroke: #000000"/>
    </g>
   </g>
   <g id="LineCollection_2">
    <path d="M 73.832727 295.488 
L 73.832727 53.568 
" clip-path="url(#pba89b073e6)" style="fill: none; stroke: #000000; stroke-width: 1.5"/>
    <path d="M 259.34961 295.488 
L 259.34961 53.568 
" clip-path="url(#pba89b073e6)" style="fill: none; stroke: #000000; stroke-width: 1.5"/>
   </g>
   <g id="patch_3">
    <path d="M 57.6 307.584 
L 57.6 41.472 
" style="fill: none; stroke: #000000; stroke-width: 0.8; stroke-linejoin: miter; stroke-linecap: square"/>
   </g>
   <g id="patch_4">
    <path d="M 414.72 307.584 
L 414.72 41.472 
" style="fill: none; stroke: #000000; stroke-width: 0.8; stroke-linejoin: miter; stroke-linecap: square"/>
   </g>
   <g id="patch_5">
    <path d="M 57.6 307.584 
L 414.72 307.584 
" style="fill: none; stroke: #000000; stroke-width: 0.8; stroke-linejoin: miter; stroke-linecap: square"/>
   </g>
   <g id="patch_6">
    <path d="M 57.6 41.472 
L 414.72 41.472 
" style="fill: none; stroke: #000000; stroke-width: 0.8; stroke-linejoin: miter; stroke-linecap: square"/>
   </g>
   <g id="text_20">
    <!-- Aliasing Effect, $L = 10$, $N = 4$ -->
    <g transform="translate(151.68 22.008)scale(0.12 -0.12)">
     <defs>
      <path id="DejaVuSans-41" d="M 2188 4044 
L 1331 1722 
L 3047 1722 
L 2188 4044 
z
M 1831 4666 
L 2547 4666 
L 4325 0 
L 3669 0 
L 3244 1197 
L 1141 1197 
L 716 0 
L 50 0 
L 1831 4666 
z
" transform="scale(0.015625)"/>
      <path id="DejaVuSans-73" d="M 2834 3397 
L 2834 2853 
Q 2591 2978 2328 3040 
Q 2066 3103 1784 3103 
Q 1356 3103 1142 2972 
Q 928 2841 928 2578 
Q 928 2378 1081 2264 
Q 1234 2150 1697 2047 
L 1894 2003 
Q 2506 1872 2764 1633 
Q 3022 1394 3022 966 
Q 3022 478 2636 193 
Q 2250 -91 1575 -91 
Q 1294 -91 989 -36 
Q 684 19 347 128 
L 347 722 
Q 666 556 975 473 
Q 1284 391 1588 391 
Q 1994 391 2212 530 
Q 2431 669 2431 922 
Q 2431 1156 2273 1281 
Q 2116 1406 1581 1522 
L 1381 1569 
Q 847 1681 609 1914 
Q 372 2147 372 2553 
Q 372 3047 722 3315 
Q 1072 3584 1716 3584 
Q 2034 3584 2315 3537 
Q 2597 3491 2834 3397 
z
" transform="scale(0.015625)"/>
      <path id="DejaVuSans-6e" d="M 3513 2113 
L 3513 0 
L 2938 0 
L 2938 2094 
Q 2938 2591 2744 2837 
Q 2550 3084 2163 3084 
Q 1697 3084 1428 2787 
Q 1159 2491 1159 1978 
L 1159 0 
L 581 0 
L 581 3500 
L 1159 3500 
L 1159 2956 
Q 1366 3272 1645 3428 
Q 1925 3584 2291 3584 
Q 2894 3584 3203 3211 
Q 3513 2838 3513 2113 
z
" transform="scale(0.015625)"/>
      <path id="DejaVuSans-67" d="M 2906 1791 
Q 2906 2416 2648 2759 
Q 2391 3103 1925 3103 
Q 1463 3103 1205 2759 
Q 947 2416 947 1791 
Q 947 1169 1205 825 
Q 1463 481 1925 481 
Q 2391 481 2648 825 
Q 2906 1169 2906 1791 
z
M 3481 434 
Q 3481 -459 3084 -895 
Q 2688 -1331 1869 -1331 
Q 1566 -1331 1297 -1286 
Q 1028 -1241 775 -1147 
L 775 -588 
Q 1028 -725 1275 -790 
Q 1522 -856 1778 -856 
Q 2344 -856 2625 -561 
Q 2906 -266 2906 331 
L 2906 616 
Q 2728 306 2450 153 
Q 2172 0 1784 0 
Q 1141 0 747 490 
Q 353 981 353 1791 
Q 353 2603 747 3093 
Q 1141 3584 1784 3584 
Q 2172 3584 2450 3431 
Q 2728 3278 2906 2969 
L 2906 3500 
L 3481 3500 
L 3481 434 
z
" transform="scale(0.015625)"/>
      <path id="DejaVuSans-20" transform="scale(0.015625)"/>
      <path id="DejaVuSans-45" d="M 628 4666 
L 3578 4666 
L 3578 4134 
L 1259 4134 
L 1259 2753 
L 3481 2753 
L 3481 2222 
L 1259 2222 
L 1259 531 
L 3634 531 
L 3634 0 
L 628 0 
L 628 4666 
z
" transform="scale(0.015625)"/>
      <path id="DejaVuSans-66" d="M 2375 4863 
L 2375 4384 
L 1825 4384 
Q 1516 4384 1395 4259 
Q 1275 4134 1275 3809 
L 1275 3500 
L 2222 3500 
L 2222 3053 
L 1275 3053 
L 1275 0 
L 697 0 
L 697 3053 
L 147 3053 
L 147 3500 
L 697 3500 
L 697 3744 
Q 697 4328 969 4595 
Q 1241 4863 1831 4863 
L 2375 4863 
z
" transform="scale(0.015625)"/>
      <path id="DejaVuSans-63" d="M 3122 3366 
L 3122 2828 
Q 2878 2963 2633 3030 
Q 2388 3097 2138 3097 
Q 1578 3097 1268 2742 
Q 959 2388 959 1747 
Q 959 1106 1268 751 
Q 1578 397 2138 397 
Q 2388 397 2633 464 
Q 2878 531 3122 666 
L 3122 134 
Q 2881 22 2623 -34 
Q 2366 -91 2075 -91 
Q 1284 -91 818 406 
Q 353 903 353 1747 
Q 353 2603 823 3093 
Q 1294 3584 2113 3584 
Q 2378 3584 2631 3529 
Q 2884 3475 3122 3366 
z
" transform="scale(0.015625)"/>
      <path id="DejaVuSans-2c" d="M 750 794 
L 1409 794 
L 1409 256 
L 897 -744 
L 494 -744 
L 750 256 
L 750 794 
z
" transform="scale(0.015625)"/>
      <path id="DejaVuSans-Oblique-4c" d="M 1075 4666 
L 1709 4666 
L 909 525 
L 3181 525 
L 3078 0 
L 172 0 
L 1075 4666 
z
" transform="scale(0.015625)"/>
      <path id="DejaVuSans-3d" d="M 678 2906 
L 4684 2906 
L 4684 2381 
L 678 2381 
L 678 2906 
z
M 678 1631 
L 4684 1631 
L 4684 1100 
L 678 1100 
L 678 1631 
z
" transform="scale(0.015625)"/>
      <path id="DejaVuSans-Oblique-4e" d="M 1081 4666 
L 1931 4666 
L 3219 666 
L 4000 4666 
L 4616 4666 
L 3706 0 
L 2853 0 
L 1569 4025 
L 788 0 
L 172 0 
L 1081 4666 
z
" transform="scale(0.015625)"/>
      <path id="DejaVuSans-34" d="M 2419 4116 
L 825 1625 
L 2419 1625 
L 2419 4116 
z
M 2253 4666 
L 3047 4666 
L 3047 1625 
L 3713 1625 
L 3713 1100 
L 3047 1100 
L 3047 0 
L 2419 0 
L 2419 1100 
L 313 1100 
L 313 1709 
L 2253 4666 
z
" transform="scale(0.015625)"/>
     </defs>
     <use xlink:href="#DejaVuSans-41" transform="translate(0 0.015625)"/>
     <use xlink:href="#DejaVuSans-6c" transform="translate(68.408203 0.015625)"/>
     <use xlink:href="#DejaVuSans-69" transform="translate(96.191406 0.015625)"/>
     <use xlink:href="#DejaVuSans-61" transform="translate(123.974609 0.015625)"/>
     <use xlink:href="#DejaVuSans-73" transform="translate(185.253906 0.015625)"/>
     <use xlink:href="#DejaVuSans-69" transform="translate(237.353516 0.015625)"/>
     <use xlink:href="#DejaVuSans-6e" transform="translate(265.136719 0.015625)"/>
     <use xlink:href="#DejaVuSans-67" transform="translate(328.515625 0.015625)"/>
     <use xlink:href="#DejaVuSans-20" transform="translate(391.992188 0.015625)"/>
     <use xlink:href="#DejaVuSans-45" transform="translate(423.779297 0.015625)"/>
     <use xlink:href="#DejaVuSans-66" transform="translate(486.962891 0.015625)"/>
     <use xlink:href="#DejaVuSans-66" transform="translate(522.167969 0.015625)"/>
     <use xlink:href="#DejaVuSans-65" transform="translate(557.373047 0.015625)"/>
     <use xlink:href="#DejaVuSans-63" transform="translate(618.896484 0.015625)"/>
     <use xlink:href="#DejaVuSans-74" transform="translate(673.876953 0.015625)"/>
     <use xlink:href="#DejaVuSans-2c" transform="translate(713.085938 0.015625)"/>
     <use xlink:href="#DejaVuSans-20" transform="translate(744.873047 0.015625)"/>
     <use xlink:href="#DejaVuSans-Oblique-4c" transform="translate(776.660156 0.015625)"/>
     <use xlink:href="#DejaVuSans-3d" transform="translate(851.855469 0.015625)"/>
     <use xlink:href="#DejaVuSans-31" transform="translate(955.126953 0.015625)"/>
     <use xlink:href="#DejaVuSans-30" transform="translate(1018.75 0.015625)"/>
     <use xlink:href="#DejaVuSans-2c" transform="translate(1082.373047 0.015625)"/>
     <use xlink:href="#DejaVuSans-20" transform="translate(1114.160156 0.015625)"/>
     <use xlink:href="#DejaVuSans-Oblique-4e" transform="translate(1145.947266 0.015625)"/>
     <use xlink:href="#DejaVuSans-3d" transform="translate(1240.234375 0.015625)"/>
     <use xlink:href="#DejaVuSans-34" transform="translate(1343.505859 0.015625)"/>
    </g>
    <!-- frequencies &gt; Nyquist frequency are aliased down by $2\pi N /L$ -->
    <g transform="translate(55.68 35.472)scale(0.12 -0.12)">
     <defs>
      <path id="DejaVuSans-72" d="M 2631 2963 
Q 2534 3019 2420 3045 
Q 2306 3072 2169 3072 
Q 1681 3072 1420 2755 
Q 1159 2438 1159 1844 
L 1159 0 
L 581 0 
L 581 3500 
L 1159 3500 
L 1159 2956 
Q 1341 3275 1631 3429 
Q 1922 3584 2338 3584 
Q 2397 3584 2469 3576 
Q 2541 3569 2628 3553 
L 2631 2963 
z
" transform="scale(0.015625)"/>
      <path id="DejaVuSans-71" d="M 947 1747 
Q 947 1113 1208 752 
Q 1469 391 1925 391 
Q 2381 391 2643 752 
Q 2906 1113 2906 1747 
Q 2906 2381 2643 2742 
Q 2381 3103 1925 3103 
Q 1469 3103 1208 2742 
Q 947 2381 947 1747 
z
M 2906 525 
Q 2725 213 2448 61 
Q 2172 -91 1784 -91 
Q 1150 -91 751 415 
Q 353 922 353 1747 
Q 353 2572 751 3078 
Q 1150 3584 1784 3584 
Q 2172 3584 2448 3432 
Q 2725 3281 2906 2969 
L 2906 3500 
L 3481 3500 
L 3481 -1331 
L 2906 -1331 
L 2906 525 
z
" transform="scale(0.015625)"/>
      <path id="DejaVuSans-3e" d="M 678 3150 
L 678 3719 
L 4684 2266 
L 4684 1747 
L 678 294 
L 678 863 
L 3897 2003 
L 678 3150 
z
" transform="scale(0.015625)"/>
      <path id="DejaVuSans-4e" d="M 628 4666 
L 1478 4666 
L 3547 763 
L 3547 4666 
L 4159 4666 
L 4159 0 
L 3309 0 
L 1241 3903 
L 1241 0 
L 628 0 
L 628 4666 
z
" transform="scale(0.015625)"/>
      <path id="DejaVuSans-79" d="M 2059 -325 
Q 1816 -950 1584 -1140 
Q 1353 -1331 966 -1331 
L 506 -1331 
L 506 -850 
L 844 -850 
Q 1081 -850 1212 -737 
Q 1344 -625 1503 -206 
L 1606 56 
L 191 3500 
L 800 3500 
L 1894 763 
L 2988 3500 
L 3597 3500 
L 2059 -325 
z
" transform="scale(0.015625)"/>
      <path id="DejaVuSans-6f" d="M 1959 3097 
Q 1497 3097 1228 2736 
Q 959 2375 959 1747 
Q 959 1119 1226 758 
Q 1494 397 1959 397 
Q 2419 397 2687 759 
Q 2956 1122 2956 1747 
Q 2956 2369 2687 2733 
Q 2419 3097 1959 3097 
z
M 1959 3584 
Q 2709 3584 3137 3096 
Q 3566 2609 3566 1747 
Q 3566 888 3137 398 
Q 2709 -91 1959 -91 
Q 1206 -91 779 398 
Q 353 888 353 1747 
Q 353 2609 779 3096 
Q 1206 3584 1959 3584 
z
" transform="scale(0.015625)"/>
      <path id="DejaVuSans-77" d="M 269 3500 
L 844 3500 
L 1563 769 
L 2278 3500 
L 2956 3500 
L 3675 769 
L 4391 3500 
L 4966 3500 
L 4050 0 
L 3372 0 
L 2619 2869 
L 1863 0 
L 1184 0 
L 269 3500 
z
" transform="scale(0.015625)"/>
      <path id="DejaVuSans-62" d="M 3116 1747 
Q 3116 2381 2855 2742 
Q 2594 3103 2138 3103 
Q 1681 3103 1420 2742 
Q 1159 2381 1159 1747 
Q 1159 1113 1420 752 
Q 1681 391 2138 391 
Q 2594 391 2855 752 
Q 3116 1113 3116 1747 
z
M 1159 2969 
Q 1341 3281 1617 3432 
Q 1894 3584 2278 3584 
Q 2916 3584 3314 3078 
Q 3713 2572 3713 1747 
Q 3713 922 3314 415 
Q 2916 -91 2278 -91 
Q 1894 -91 1617 61 
Q 1341 213 1159 525 
L 1159 0 
L 581 0 
L 581 4863 
L 1159 4863 
L 1159 2969 
z
" transform="scale(0.015625)"/>
      <path id="DejaVuSans-Oblique-3c0" d="M 584 3500 
L 3938 3500 
L 3825 2925 
L 3384 2925 
L 2966 775 
Q 2922 550 2981 450 
Q 3038 353 3209 353 
Q 3256 353 3325 363 
Q 3397 369 3419 372 
L 3338 -44 
Q 3222 -84 3103 -103 
Q 2981 -122 2866 -122 
Q 2491 -122 2388 81 
Q 2284 288 2391 838 
L 2797 2925 
L 1506 2925 
L 938 0 
L 350 0 
L 919 2925 
L 472 2925 
L 584 3500 
z
" transform="scale(0.015625)"/>
      <path id="DejaVuSans-2f" d="M 1625 4666 
L 2156 4666 
L 531 -594 
L 0 -594 
L 1625 4666 
z
" transform="scale(0.015625)"/>
     </defs>
     <use xlink:href="#DejaVuSans-66" transform="translate(0 0.015625)"/>
     <use xlink:href="#DejaVuSans-72" transform="translate(35.205078 0.015625)"/>
     <use xlink:href="#DejaVuSans-65" transform="translate(76.318359 0.015625)"/>
     <use xlink:href="#DejaVuSans-71" transform="translate(137.841797 0.015625)"/>
     <use xlink:href="#DejaVuSans-75" transform="translate(201.318359 0.015625)"/>
     <use xlink:href="#DejaVuSans-65" transform="translate(264.697266 0.015625)"/>
     <use xlink:href="#DejaVuSans-6e" transform="translate(326.220703 0.015625)"/>
     <use xlink:href="#DejaVuSans-63" transform="translate(389.599609 0.015625)"/>
     <use xlink:href="#DejaVuSans-69" transform="translate(444.580078 0.015625)"/>
     <use xlink:href="#DejaVuSans-65" transform="translate(472.363281 0.015625)"/>
     <use xlink:href="#DejaVuSans-73" transform="translate(533.886719 0.015625)"/>
     <use xlink:href="#DejaVuSans-20" transform="translate(585.986328 0.015625)"/>
     <use xlink:href="#DejaVuSans-3e" transform="translate(617.773438 0.015625)"/>
     <use xlink:href="#DejaVuSans-20" transform="translate(701.5625 0.015625)"/>
     <use xlink:href="#DejaVuSans-4e" transform="translate(733.349609 0.015625)"/>
     <use xlink:href="#DejaVuSans-79" transform="translate(808.154297 0.015625)"/>
     <use xlink:href="#DejaVuSans-71" transform="translate(867.333984 0.015625)"/>
     <use xlink:href="#DejaVuSans-75" transform="translate(930.810547 0.015625)"/>
     <use xlink:href="#DejaVuSans-69" transform="translate(994.189453 0.015625)"/>
     <use xlink:href="#DejaVuSans-73" transform="translate(1021.972656 0.015625)"/>
     <use xlink:href="#DejaVuSans-74" transform="translate(1074.072266 0.015625)"/>
     <use xlink:href="#DejaVuSans-20" transform="translate(1113.28125 0.015625)"/>
     <use xlink:href="#DejaVuSans-66" transform="translate(1145.068359 0.015625)"/>
     <use xlink:href="#DejaVuSans-72" transform="translate(1180.273438 0.015625)"/>
     <use xlink:href="#DejaVuSans-65" transform="translate(1221.386719 0.015625)"/>
     <use xlink:href="#DejaVuSans-71" transform="translate(1282.910156 0.015625)"/>
     <use xlink:href="#DejaVuSans-75" transform="translate(1346.386719 0.015625)"/>
     <use xlink:href="#DejaVuSans-65" transform="translate(1409.765625 0.015625)"/>
     <use xlink:href="#DejaVuSans-6e" transform="translate(1471.289062 0.015625)"/>
     <use xlink:href="#DejaVuSans-63" transform="translate(1534.667969 0.015625)"/>
     <use xlink:href="#DejaVuSans-79" transform="translate(1589.648438 0.015625)"/>
     <use xlink:href="#DejaVuSans-20" transform="translate(1648.828125 0.015625)"/>
     <use xlink:href="#DejaVuSans-61" transform="translate(1680.615234 0.015625)"/>
     <use xlink:href="#DejaVuSans-72" transform="translate(1741.894531 0.015625)"/>
     <use xlink:href="#DejaVuSans-65" transform="translate(1783.007812 0.015625)"/>
     <use xlink:href="#DejaVuSans-20" transform="translate(1844.53125 0.015625)"/>
     <use xlink:href="#DejaVuSans-61" transform="translate(1876.318359 0.015625)"/>
     <use xlink:href="#DejaVuSans-6c" transform="translate(1937.597656 0.015625)"/>
     <use xlink:href="#DejaVuSans-69" transform="translate(1965.380859 0.015625)"/>
     <use xlink:href="#DejaVuSans-61" transform="translate(1993.164062 0.015625)"/>
     <use xlink:href="#DejaVuSans-73" transform="translate(2054.443359 0.015625)"/>
     <use xlink:href="#DejaVuSans-65" transform="translate(2106.542969 0.015625)"/>
     <use xlink:href="#DejaVuSans-64" transform="translate(2168.066406 0.015625)"/>
     <use xlink:href="#DejaVuSans-20" transform="translate(2231.542969 0.015625)"/>
     <use xlink:href="#DejaVuSans-64" transform="translate(2263.330078 0.015625)"/>
     <use xlink:href="#DejaVuSans-6f" transform="translate(2326.806641 0.015625)"/>
     <use xlink:href="#DejaVuSans-77" transform="translate(2387.988281 0.015625)"/>
     <use xlink:href="#DejaVuSans-6e" transform="translate(2469.775391 0.015625)"/>
     <use xlink:href="#DejaVuSans-20" transform="translate(2533.154297 0.015625)"/>
     <use xlink:href="#DejaVuSans-62" transform="translate(2564.941406 0.015625)"/>
     <use xlink:href="#DejaVuSans-79" transform="translate(2628.417969 0.015625)"/>
     <use xlink:href="#DejaVuSans-20" transform="translate(2687.597656 0.015625)"/>
     <use xlink:href="#DejaVuSans-32" transform="translate(2719.384766 0.015625)"/>
     <use xlink:href="#DejaVuSans-Oblique-3c0" transform="translate(2783.007812 0.015625)"/>
     <use xlink:href="#DejaVuSans-Oblique-4e" transform="translate(2843.212891 0.015625)"/>
     <use xlink:href="#DejaVuSans-2f" transform="translate(2918.017578 0.015625)"/>
     <use xlink:href="#DejaVuSans-Oblique-4c" transform="translate(2951.708984 0.015625)"/>
    </g>
   </g>
   <g id="legend_1">
    <g id="patch_7">
     <path d="M 64.6 302.584 
L 166.359375 302.584 
Q 168.359375 302.584 168.359375 300.584 
L 168.359375 272.22775 
Q 168.359375 270.22775 166.359375 270.22775 
L 64.6 270.22775 
Q 62.6 270.22775 62.6 272.22775 
L 62.6 300.584 
Q 62.6 302.584 64.6 302.584 
z
" style="fill: #ffffff; opacity: 0.8; stroke: #cccccc; stroke-linejoin: miter"/>
    </g>
    <g id="line2d_21">
     <path d="M 66.6 278.326187 
L 76.6 278.326187 
L 86.6 278.326187 
" style="fill: none; stroke: #1f77b4; stroke-width: 1.5; stroke-linecap: square"/>
    </g>
    <g id="text_21">
     <!-- Original Wave -->
     <g transform="translate(94.6 281.826187)scale(0.1 -0.1)">
      <defs>
       <path id="DejaVuSans-4f" d="M 2522 4238 
Q 1834 4238 1429 3725 
Q 1025 3213 1025 2328 
Q 1025 1447 1429 934 
Q 1834 422 2522 422 
Q 3209 422 3611 934 
Q 4013 1447 4013 2328 
Q 4013 3213 3611 3725 
Q 3209 4238 2522 4238 
z
M 2522 4750 
Q 3503 4750 4090 4092 
Q 4678 3434 4678 2328 
Q 4678 1225 4090 567 
Q 3503 -91 2522 -91 
Q 1538 -91 948 565 
Q 359 1222 359 2328 
Q 359 3434 948 4092 
Q 1538 4750 2522 4750 
z
" transform="scale(0.015625)"/>
       <path id="DejaVuSans-57" d="M 213 4666 
L 850 4666 
L 1831 722 
L 2809 4666 
L 3519 4666 
L 4500 722 
L 5478 4666 
L 6119 4666 
L 4947 0 
L 4153 0 
L 3169 4050 
L 2175 0 
L 1381 0 
L 213 4666 
z
" transform="scale(0.015625)"/>
       <path id="DejaVuSans-76" d="M 191 3500 
L 800 3500 
L 1894 563 
L 2988 3500 
L 3597 3500 
L 2284 0 
L 1503 0 
L 191 3500 
z
" transform="scale(0.015625)"/>
      </defs>
      <use xlink:href="#DejaVuSans-4f"/>
      <use xlink:href="#DejaVuSans-72" x="78.710938"/>
      <use xlink:href="#DejaVuSans-69" x="119.824219"/>
      <use xlink:href="#DejaVuSans-67" x="147.607422"/>
      <use xlink:href="#DejaVuSans-69" x="211.083984"/>
      <use xlink:href="#DejaVuSans-6e" x="238.867188"/>
      <use xlink:href="#DejaVuSans-61" x="302.246094"/>
      <use xlink:href="#DejaVuSans-6c" x="363.525391"/>
      <use xlink:href="#DejaVuSans-20" x="391.308594"/>
      <use xlink:href="#DejaVuSans-57" x="423.095703"/>
      <use xlink:href="#DejaVuSans-61" x="515.597656"/>
      <use xlink:href="#DejaVuSans-76" x="576.876953"/>
      <use xlink:href="#DejaVuSans-65" x="636.056641"/>
     </g>
    </g>
    <g id="line2d_22">
     <path d="M 66.6 293.004312 
L 76.6 293.004312 
L 86.6 293.004312 
" style="fill: none; stroke: #ff7f0e; stroke-width: 1.5; stroke-linecap: square"/>
    </g>
    <g id="text_22">
     <!-- Aliased Wave -->
     <g transform="translate(94.6 296.504312)scale(0.1 -0.1)">
      <use xlink:href="#DejaVuSans-41"/>
      <use xlink:href="#DejaVuSans-6c" x="68.408203"/>
      <use xlink:href="#DejaVuSans-69" x="96.191406"/>
      <use xlink:href="#DejaVuSans-61" x="123.974609"/>
      <use xlink:href="#DejaVuSans-73" x="185.253906"/>
      <use xlink:href="#DejaVuSans-65" x="237.353516"/>
      <use xlink:href="#DejaVuSans-64" x="298.876953"/>
      <use xlink:href="#DejaVuSans-20" x="362.353516"/>
      <use xlink:href="#DejaVuSans-57" x="394.140625"/>
      <use xlink:href="#DejaVuSans-61" x="486.642578"/>
      <use xlink:href="#DejaVuSans-76" x="547.921875"/>
      <use xlink:href="#DejaVuSans-65" x="607.101562"/>
     </g>
    </g>
   </g>
  </g>
 </g>
 <defs>
  <clipPath id="pba89b073e6">
   <rect x="57.6" y="41.472" width="357.12" height="266.112"/>
  </clipPath>
 </defs>
</svg>
