<?xml version="1.0" encoding="UTF-8" standalone="no"?>
<!DOCTYPE svg PUBLIC "-//W3C//DTD SVG 1.1//EN" "http://www.w3.org/Graphics/SVG/1.1/DTD/svg11.dtd">
<svg width="100%" height="100%" viewBox="0 0 2329 1540" version="1.1" xmlns="http://www.w3.org/2000/svg" xmlns:xlink="http://www.w3.org/1999/xlink" xml:space="preserve" xmlns:serif="http://www.serif.com/" style="fill-rule:evenodd;clip-rule:evenodd;stroke-linecap:round;stroke-linejoin:round;stroke-miterlimit:1.5;">
    <circle cx="641.071" cy="319.801" r="40.948"/>
    <circle cx="1762.99" cy="319.801" r="40.948"/>
    <circle cx="641.071" cy="523.931" r="40.948"/>
    <circle cx="1482.51" cy="523.931" r="40.948"/>
    <circle cx="1762.99" cy="523.931" r="40.948"/>
    <circle cx="641.071" cy="728.061" r="40.948"/>
    <circle cx="921.551" cy="728.061" r="40.948"/>
    <circle cx="1202.03" cy="728.061" r="40.948"/>
    <circle cx="1482.51" cy="728.061" r="40.948"/>
    <circle cx="1762.99" cy="728.061" r="40.948"/>
    <circle cx="641.071" cy="932.191" r="40.948"/>
    <circle cx="921.551" cy="932.191" r="40.948"/>
    <circle cx="1202.03" cy="932.191" r="40.948"/>
    <circle cx="1482.51" cy="932.191" r="40.948"/>
    <circle cx="1762.99" cy="932.191" r="40.948"/>
    <circle cx="641.071" cy="1136.32" r="40.948"/>
    <circle cx="921.551" cy="1136.32" r="40.948"/>
    <circle cx="1482.51" cy="1136.32" r="40.948"/>
    <circle cx="1762.99" cy="1136.32" r="40.948"/>
    <circle cx="641.071" cy="1340.45" r="40.948"/>
    <circle cx="1762.99" cy="1340.45" r="40.948"/>
    <path d="M2212.16,771.404c31.956,-25.302 51.348,25.484 98.084,0" style="fill:none;stroke:black;stroke-width:12.66px;"/>
    <g transform="matrix(0.668551,0,0,0.668551,316.855,269.624)">
        <g transform="matrix(125.124,0,0,125.124,933.182,1728.32)">
            <rect x="0.075" y="-0.756" width="0.09" height="0.756" style="fill:rgb(85,173,183);fill-rule:nonzero;stroke:rgb(85,173,183);stroke-width:0.01px;stroke-linecap:butt;stroke-miterlimit:2;"/>
        </g>
        <g transform="matrix(125.124,0,0,125.124,963.211,1728.32)">
            <path d="M0.07,-0.416c0.025,-0.023 0.055,-0.041 0.088,-0.052c0.033,-0.012 0.067,-0.018 0.1,-0.018c0.035,0 0.065,0.004 0.09,0.013c0.025,0.009 0.045,0.02 0.061,0.035c0.016,0.015 0.028,0.032 0.036,0.051c0.007,0.019 0.011,0.038 0.011,0.059l0,0.242c0,0.017 0,0.032 0.001,0.046c0.001,0.014 0.002,0.027 0.003,0.04l-0.08,0c-0.002,-0.024 -0.003,-0.048 -0.003,-0.072l-0.002,0c-0.02,0.031 -0.044,0.052 -0.071,0.065c-0.027,0.013 -0.059,0.019 -0.095,0.019c-0.022,0 -0.043,-0.003 -0.063,-0.009c-0.02,-0.006 -0.037,-0.015 -0.052,-0.027c-0.015,-0.012 -0.027,-0.027 -0.036,-0.044c-0.009,-0.018 -0.013,-0.039 -0.013,-0.062c0,-0.031 0.007,-0.056 0.021,-0.077c0.013,-0.021 0.032,-0.037 0.056,-0.05c0.023,-0.013 0.051,-0.023 0.083,-0.028c0.031,-0.006 0.065,-0.009 0.101,-0.009l0.066,0l0,-0.02c0,-0.012 -0.002,-0.024 -0.007,-0.036c-0.005,-0.012 -0.012,-0.023 -0.021,-0.032c-0.009,-0.01 -0.021,-0.018 -0.035,-0.023c-0.014,-0.006 -0.031,-0.009 -0.05,-0.009c-0.017,0 -0.032,0.002 -0.045,0.005c-0.013,0.003 -0.025,0.008 -0.036,0.013c-0.011,0.005 -0.02,0.01 -0.029,0.017c-0.009,0.007 -0.017,0.013 -0.025,0.019l-0.054,-0.056Zm0.254,0.188c-0.021,0 -0.043,0.001 -0.065,0.004c-0.023,0.002 -0.043,0.006 -0.061,0.013c-0.019,0.007 -0.034,0.016 -0.045,0.028c-0.012,0.012 -0.018,0.027 -0.018,0.046c0,0.027 0.009,0.047 0.028,0.059c0.018,0.012 0.043,0.018 0.074,0.018c0.025,0 0.046,-0.004 0.063,-0.012c0.017,-0.009 0.031,-0.02 0.042,-0.033c0.011,-0.013 0.018,-0.028 0.023,-0.044c0.005,-0.017 0.007,-0.033 0.007,-0.049l0,-0.03l-0.048,0Z" style="fill:rgb(85,173,183);fill-rule:nonzero;stroke:rgb(85,173,183);stroke-width:0.01px;stroke-linecap:butt;stroke-miterlimit:2;"/>
        </g>
        <g transform="matrix(125.124,0,0,125.124,1028.15,1728.32)">
            <path d="M0.322,-0.396l-0.129,0l0,0.215c-0,0.013 0,0.027 0.001,0.04c0.001,0.013 0.003,0.024 0.008,0.035c0.004,0.01 0.011,0.018 0.019,0.025c0.01,0.006 0.023,0.009 0.04,0.009c0.011,0 0.022,-0.001 0.033,-0.003c0.011,-0.002 0.022,-0.006 0.031,-0.011l-0,0.082c-0.011,0.006 -0.025,0.01 -0.042,0.013c-0.017,0.002 -0.03,0.003 -0.039,0.003c-0.035,0 -0.062,-0.005 -0.081,-0.014c-0.019,-0.01 -0.033,-0.023 -0.042,-0.038c-0.009,-0.015 -0.014,-0.032 -0.016,-0.051c-0.001,-0.02 -0.002,-0.039 -0.002,-0.058l-0,-0.247l-0.104,0l-0,-0.078l0.104,0l-0,-0.133l0.09,0l-0,0.133l0.129,-0l-0,0.078Z" style="fill:rgb(85,173,183);fill-rule:nonzero;stroke:rgb(85,173,183);stroke-width:0.01px;stroke-linecap:butt;stroke-miterlimit:2;"/>
        </g>
        <g transform="matrix(125.124,0,0,125.124,1074.45,1728.32)">
            <path d="M0.136,-0.204c0,0.021 0.004,0.04 0.013,0.057c0.009,0.017 0.021,0.031 0.036,0.043c0.015,0.012 0.032,0.021 0.051,0.028c0.019,0.007 0.039,0.01 0.06,0.01c0.028,0 0.052,-0.006 0.073,-0.019c0.021,-0.013 0.04,-0.031 0.057,-0.052l0.068,0.052c-0.05,0.065 -0.12,0.097 -0.21,0.097c-0.037,0 -0.071,-0.006 -0.102,-0.019c-0.03,-0.013 -0.056,-0.03 -0.077,-0.053c-0.021,-0.022 -0.037,-0.048 -0.048,-0.079c-0.011,-0.03 -0.017,-0.063 -0.017,-0.098c-0,-0.035 0.006,-0.068 0.018,-0.099c0.013,-0.03 0.03,-0.056 0.051,-0.079c0.022,-0.022 0.048,-0.039 0.078,-0.052c0.03,-0.013 0.063,-0.019 0.098,-0.019c0.042,0 0.078,0.007 0.106,0.022c0.03,0.015 0.053,0.034 0.072,0.057c0.019,0.024 0.032,0.051 0.041,0.081c0.008,0.029 0.012,0.059 0.012,0.09l0,0.032l-0.38,0Zm0.284,-0.072c-0.001,-0.02 -0.004,-0.038 -0.01,-0.055c-0.005,-0.017 -0.014,-0.031 -0.025,-0.043c-0.011,-0.013 -0.026,-0.023 -0.042,-0.03c-0.018,-0.007 -0.037,-0.01 -0.06,-0.01c-0.022,0 -0.042,0.004 -0.061,0.013c-0.018,0.008 -0.033,0.019 -0.046,0.032c-0.013,0.013 -0.023,0.028 -0.03,0.044c-0.007,0.017 -0.01,0.033 -0.01,0.049l0.284,0Z" style="fill:rgb(85,173,183);fill-rule:nonzero;stroke:rgb(85,173,183);stroke-width:0.01px;stroke-linecap:butt;stroke-miterlimit:2;"/>
        </g>
        <g transform="matrix(125.124,0,0,125.124,1144.02,1728.32)">
            <path d="M0.068,-0.474l0.09,0l0,0.073l0.002,0c0.011,-0.025 0.031,-0.046 0.059,-0.062c0.028,-0.015 0.06,-0.023 0.097,-0.023c0.023,0 0.045,0.004 0.066,0.011c0.021,0.007 0.039,0.017 0.054,0.032c0.016,0.015 0.029,0.034 0.038,0.057c0.009,0.023 0.014,0.05 0.014,0.081l0,0.305l-0.09,0l0,-0.28c-0,-0.022 -0.003,-0.041 -0.009,-0.056c-0.006,-0.016 -0.014,-0.029 -0.024,-0.038c-0.01,-0.01 -0.022,-0.017 -0.034,-0.021c-0.013,-0.005 -0.027,-0.007 -0.041,-0.007c-0.019,0 -0.036,0.003 -0.052,0.009c-0.016,0.006 -0.03,0.016 -0.042,0.029c-0.012,0.013 -0.021,0.029 -0.028,0.049c-0.007,0.02 -0.01,0.044 -0.01,0.071l0,0.244l-0.09,0l0,-0.474Z" style="fill:rgb(85,173,183);fill-rule:nonzero;stroke:rgb(85,173,183);stroke-width:0.01px;stroke-linecap:butt;stroke-miterlimit:2;"/>
        </g>
        <g transform="matrix(125.124,0,0,125.124,1213.58,1728.32)">
            <path d="M0.322,-0.396l-0.129,0l0,0.215c-0,0.013 0,0.027 0.001,0.04c0.001,0.013 0.003,0.024 0.008,0.035c0.004,0.01 0.011,0.018 0.019,0.025c0.01,0.006 0.023,0.009 0.04,0.009c0.011,0 0.022,-0.001 0.033,-0.003c0.011,-0.002 0.022,-0.006 0.031,-0.011l-0,0.082c-0.011,0.006 -0.025,0.01 -0.042,0.013c-0.017,0.002 -0.03,0.003 -0.039,0.003c-0.035,0 -0.062,-0.005 -0.081,-0.014c-0.019,-0.01 -0.033,-0.023 -0.042,-0.038c-0.009,-0.015 -0.014,-0.032 -0.016,-0.051c-0.001,-0.02 -0.002,-0.039 -0.002,-0.058l-0,-0.247l-0.104,0l-0,-0.078l0.104,0l-0,-0.133l0.09,0l-0,0.133l0.129,-0l-0,0.078Z" style="fill:rgb(85,173,183);fill-rule:nonzero;stroke:rgb(85,173,183);stroke-width:0.01px;stroke-linecap:butt;stroke-miterlimit:2;"/>
        </g>
        <g transform="matrix(125.124,0,0,125.124,933.182,1853.44)">
            <path d="M0.068,-0.474l0.09,0l0,0.073l0.002,0c0.006,-0.013 0.014,-0.024 0.024,-0.034c0.01,-0.011 0.021,-0.02 0.034,-0.027c0.012,-0.007 0.025,-0.013 0.04,-0.017c0.015,-0.005 0.029,-0.007 0.044,-0.007c0.015,0 0.028,0.002 0.04,0.006l-0.004,0.097c-0.007,-0.002 -0.015,-0.004 -0.022,-0.005c-0.007,-0.001 -0.015,-0.002 -0.022,-0.002c-0.044,0 -0.078,0.012 -0.101,0.037c-0.023,0.025 -0.035,0.063 -0.035,0.115l0,0.238l-0.09,0l0,-0.474Z" style="fill:rgb(85,173,183);fill-rule:nonzero;stroke:rgb(85,173,183);stroke-width:0.01px;stroke-linecap:butt;stroke-miterlimit:2;"/>
        </g>
        <g transform="matrix(125.124,0,0,125.124,977.225,1853.44)">
            <path d="M0.136,-0.204c0,0.021 0.004,0.04 0.013,0.057c0.009,0.017 0.021,0.031 0.036,0.043c0.015,0.012 0.032,0.021 0.051,0.028c0.019,0.007 0.039,0.01 0.06,0.01c0.028,0 0.052,-0.006 0.073,-0.019c0.021,-0.013 0.04,-0.031 0.057,-0.052l0.068,0.052c-0.05,0.065 -0.12,0.097 -0.21,0.097c-0.037,0 -0.071,-0.006 -0.102,-0.019c-0.03,-0.013 -0.056,-0.03 -0.077,-0.053c-0.021,-0.022 -0.037,-0.048 -0.048,-0.079c-0.011,-0.03 -0.017,-0.063 -0.017,-0.098c-0,-0.035 0.006,-0.068 0.018,-0.099c0.013,-0.03 0.03,-0.056 0.051,-0.079c0.022,-0.022 0.048,-0.039 0.078,-0.052c0.03,-0.013 0.063,-0.019 0.098,-0.019c0.042,0 0.078,0.007 0.106,0.022c0.03,0.015 0.053,0.034 0.072,0.057c0.019,0.024 0.032,0.051 0.041,0.081c0.008,0.029 0.012,0.059 0.012,0.09l0,0.032l-0.38,0Zm0.284,-0.072c-0.001,-0.02 -0.004,-0.038 -0.01,-0.055c-0.005,-0.017 -0.014,-0.031 -0.025,-0.043c-0.011,-0.013 -0.026,-0.023 -0.042,-0.03c-0.018,-0.007 -0.037,-0.01 -0.06,-0.01c-0.022,0 -0.042,0.004 -0.061,0.013c-0.018,0.008 -0.033,0.019 -0.046,0.032c-0.013,0.013 -0.023,0.028 -0.03,0.044c-0.007,0.017 -0.01,0.033 -0.01,0.049l0.284,0Z" style="fill:rgb(85,173,183);fill-rule:nonzero;stroke:rgb(85,173,183);stroke-width:0.01px;stroke-linecap:butt;stroke-miterlimit:2;"/>
        </g>
        <g transform="matrix(125.124,0,0,125.124,1046.79,1853.44)">
            <path d="M0.068,-0.474l0.09,0l0,0.068l0.002,0c0.017,-0.025 0.041,-0.045 0.072,-0.059c0.03,-0.014 0.061,-0.021 0.093,-0.021c0.037,0 0.07,0.006 0.099,0.019c0.03,0.013 0.055,0.03 0.077,0.053c0.021,0.023 0.037,0.049 0.048,0.08c0.011,0.03 0.017,0.062 0.017,0.097c0,0.035 -0.006,0.068 -0.017,0.099c-0.011,0.03 -0.027,0.056 -0.048,0.079c-0.021,0.022 -0.047,0.039 -0.077,0.052c-0.029,0.013 -0.062,0.019 -0.099,0.019c-0.034,0 -0.066,-0.007 -0.096,-0.021c-0.03,-0.015 -0.053,-0.034 -0.069,-0.059l-0.002,0l0,0.35l-0.09,0l0,-0.756Zm0.246,0.072c-0.024,0 -0.046,0.004 -0.065,0.012c-0.019,0.009 -0.036,0.02 -0.049,0.034c-0.013,0.015 -0.024,0.032 -0.031,0.052c-0.007,0.021 -0.011,0.043 -0.011,0.067c0,0.024 0.004,0.046 0.011,0.066c0.007,0.021 0.018,0.038 0.031,0.052c0.013,0.015 0.03,0.026 0.049,0.034c0.019,0.009 0.041,0.013 0.065,0.013c0.024,-0 0.046,-0.004 0.065,-0.013c0.019,-0.008 0.036,-0.019 0.049,-0.034c0.013,-0.014 0.024,-0.031 0.031,-0.052c0.007,-0.02 0.011,-0.042 0.011,-0.066c0,-0.024 -0.004,-0.046 -0.011,-0.067c-0.007,-0.02 -0.018,-0.037 -0.031,-0.051c-0.013,-0.015 -0.03,-0.026 -0.049,-0.035c-0.019,-0.008 -0.041,-0.012 -0.065,-0.012Z" style="fill:rgb(85,173,183);fill-rule:nonzero;stroke:rgb(85,173,183);stroke-width:0.01px;stroke-linecap:butt;stroke-miterlimit:2;"/>
        </g>
        <g transform="matrix(125.124,0,0,125.124,1123.25,1853.44)">
            <path d="M0.068,-0.474l0.09,0l0,0.073l0.002,0c0.006,-0.013 0.014,-0.024 0.024,-0.034c0.01,-0.011 0.021,-0.02 0.034,-0.027c0.012,-0.007 0.025,-0.013 0.04,-0.017c0.015,-0.005 0.029,-0.007 0.044,-0.007c0.015,0 0.028,0.002 0.04,0.006l-0.004,0.097c-0.007,-0.002 -0.015,-0.004 -0.022,-0.005c-0.007,-0.001 -0.015,-0.002 -0.022,-0.002c-0.044,0 -0.078,0.012 -0.101,0.037c-0.023,0.025 -0.035,0.063 -0.035,0.115l0,0.238l-0.09,0l0,-0.474Z" style="fill:rgb(85,173,183);fill-rule:nonzero;stroke:rgb(85,173,183);stroke-width:0.01px;stroke-linecap:butt;stroke-miterlimit:2;"/>
        </g>
        <g transform="matrix(125.124,0,0,125.124,1167.29,1853.44)">
            <path d="M0.136,-0.204c0,0.021 0.004,0.04 0.013,0.057c0.009,0.017 0.021,0.031 0.036,0.043c0.015,0.012 0.032,0.021 0.051,0.028c0.019,0.007 0.039,0.01 0.06,0.01c0.028,0 0.052,-0.006 0.073,-0.019c0.021,-0.013 0.04,-0.031 0.057,-0.052l0.068,0.052c-0.05,0.065 -0.12,0.097 -0.21,0.097c-0.037,0 -0.071,-0.006 -0.102,-0.019c-0.03,-0.013 -0.056,-0.03 -0.077,-0.053c-0.021,-0.022 -0.037,-0.048 -0.048,-0.079c-0.011,-0.03 -0.017,-0.063 -0.017,-0.098c-0,-0.035 0.006,-0.068 0.018,-0.099c0.013,-0.03 0.03,-0.056 0.051,-0.079c0.022,-0.022 0.048,-0.039 0.078,-0.052c0.03,-0.013 0.063,-0.019 0.098,-0.019c0.042,0 0.078,0.007 0.106,0.022c0.03,0.015 0.053,0.034 0.072,0.057c0.019,0.024 0.032,0.051 0.041,0.081c0.008,0.029 0.012,0.059 0.012,0.09l0,0.032l-0.38,0Zm0.284,-0.072c-0.001,-0.02 -0.004,-0.038 -0.01,-0.055c-0.005,-0.017 -0.014,-0.031 -0.025,-0.043c-0.011,-0.013 -0.026,-0.023 -0.042,-0.03c-0.018,-0.007 -0.037,-0.01 -0.06,-0.01c-0.022,0 -0.042,0.004 -0.061,0.013c-0.018,0.008 -0.033,0.019 -0.046,0.032c-0.013,0.013 -0.023,0.028 -0.03,0.044c-0.007,0.017 -0.01,0.033 -0.01,0.049l0.284,0Z" style="fill:rgb(85,173,183);fill-rule:nonzero;stroke:rgb(85,173,183);stroke-width:0.01px;stroke-linecap:butt;stroke-miterlimit:2;"/>
        </g>
        <g transform="matrix(125.124,0,0,125.124,1236.86,1853.44)">
            <path d="M0.32,-0.355c-0.011,-0.013 -0.024,-0.025 -0.039,-0.034c-0.016,-0.009 -0.035,-0.013 -0.058,-0.013c-0.021,0 -0.04,0.005 -0.056,0.014c-0.015,0.009 -0.023,0.022 -0.023,0.039c-0,0.014 0.004,0.025 0.013,0.034c0.009,0.009 0.02,0.016 0.032,0.021c0.013,0.005 0.026,0.009 0.04,0.012c0.014,0.003 0.026,0.005 0.036,0.007c0.019,0.005 0.037,0.01 0.054,0.017c0.017,0.007 0.032,0.015 0.044,0.026c0.013,0.011 0.022,0.024 0.029,0.039c0.007,0.015 0.011,0.034 0.011,0.056c-0,0.027 -0.006,0.05 -0.017,0.069c-0.011,0.018 -0.026,0.034 -0.044,0.046c-0.018,0.012 -0.039,0.021 -0.062,0.026c-0.023,0.005 -0.046,0.008 -0.069,0.008c-0.039,0 -0.074,-0.006 -0.104,-0.018c-0.029,-0.012 -0.056,-0.034 -0.079,-0.066l0.068,-0.056c0.015,0.015 0.031,0.028 0.049,0.039c0.018,0.011 0.04,0.017 0.066,0.017c0.011,-0 0.023,-0.001 0.034,-0.004c0.012,-0.002 0.022,-0.006 0.031,-0.011c0.009,-0.005 0.017,-0.011 0.022,-0.019c0.006,-0.007 0.009,-0.016 0.009,-0.026c-0,-0.013 -0.004,-0.024 -0.013,-0.033c-0.008,-0.009 -0.018,-0.015 -0.03,-0.02c-0.011,-0.006 -0.024,-0.01 -0.037,-0.013c-0.013,-0.003 -0.024,-0.005 -0.034,-0.007c-0.019,-0.005 -0.038,-0.01 -0.055,-0.016c-0.017,-0.006 -0.033,-0.014 -0.046,-0.024c-0.013,-0.01 -0.024,-0.023 -0.032,-0.038c-0.008,-0.015 -0.012,-0.034 -0.012,-0.057c-0,-0.025 0.005,-0.046 0.015,-0.065c0.011,-0.018 0.024,-0.033 0.041,-0.045c0.017,-0.012 0.037,-0.021 0.058,-0.027c0.022,-0.006 0.044,-0.009 0.066,-0.009c0.032,0 0.063,0.006 0.092,0.018c0.029,0.012 0.053,0.032 0.07,0.06l-0.07,0.053Z" style="fill:rgb(85,173,183);fill-rule:nonzero;stroke:rgb(85,173,183);stroke-width:0.01px;stroke-linecap:butt;stroke-miterlimit:2;"/>
        </g>
        <g transform="matrix(125.124,0,0,125.124,1292.41,1853.44)">
            <path d="M0.136,-0.204c0,0.021 0.004,0.04 0.013,0.057c0.009,0.017 0.021,0.031 0.036,0.043c0.015,0.012 0.032,0.021 0.051,0.028c0.019,0.007 0.039,0.01 0.06,0.01c0.028,0 0.052,-0.006 0.073,-0.019c0.021,-0.013 0.04,-0.031 0.057,-0.052l0.068,0.052c-0.05,0.065 -0.12,0.097 -0.21,0.097c-0.037,0 -0.071,-0.006 -0.102,-0.019c-0.03,-0.013 -0.056,-0.03 -0.077,-0.053c-0.021,-0.022 -0.037,-0.048 -0.048,-0.079c-0.011,-0.03 -0.017,-0.063 -0.017,-0.098c-0,-0.035 0.006,-0.068 0.018,-0.099c0.013,-0.03 0.03,-0.056 0.051,-0.079c0.022,-0.022 0.048,-0.039 0.078,-0.052c0.03,-0.013 0.063,-0.019 0.098,-0.019c0.042,0 0.078,0.007 0.106,0.022c0.03,0.015 0.053,0.034 0.072,0.057c0.019,0.024 0.032,0.051 0.041,0.081c0.008,0.029 0.012,0.059 0.012,0.09l0,0.032l-0.38,0Zm0.284,-0.072c-0.001,-0.02 -0.004,-0.038 -0.01,-0.055c-0.005,-0.017 -0.014,-0.031 -0.025,-0.043c-0.011,-0.013 -0.026,-0.023 -0.042,-0.03c-0.018,-0.007 -0.037,-0.01 -0.06,-0.01c-0.022,0 -0.042,0.004 -0.061,0.013c-0.018,0.008 -0.033,0.019 -0.046,0.032c-0.013,0.013 -0.023,0.028 -0.03,0.044c-0.007,0.017 -0.01,0.033 -0.01,0.049l0.284,0Z" style="fill:rgb(85,173,183);fill-rule:nonzero;stroke:rgb(85,173,183);stroke-width:0.01px;stroke-linecap:butt;stroke-miterlimit:2;"/>
        </g>
        <g transform="matrix(125.124,0,0,125.124,1361.98,1853.44)">
            <path d="M0.068,-0.474l0.09,0l0,0.073l0.002,0c0.011,-0.025 0.031,-0.046 0.059,-0.062c0.028,-0.015 0.06,-0.023 0.097,-0.023c0.023,0 0.045,0.004 0.066,0.011c0.021,0.007 0.039,0.017 0.054,0.032c0.016,0.015 0.029,0.034 0.038,0.057c0.009,0.023 0.014,0.05 0.014,0.081l0,0.305l-0.09,0l0,-0.28c-0,-0.022 -0.003,-0.041 -0.009,-0.056c-0.006,-0.016 -0.014,-0.029 -0.024,-0.038c-0.01,-0.01 -0.022,-0.017 -0.034,-0.021c-0.013,-0.005 -0.027,-0.007 -0.041,-0.007c-0.019,0 -0.036,0.003 -0.052,0.009c-0.016,0.006 -0.03,0.016 -0.042,0.029c-0.012,0.013 -0.021,0.029 -0.028,0.049c-0.007,0.02 -0.01,0.044 -0.01,0.071l0,0.244l-0.09,0l0,-0.474Z" style="fill:rgb(85,173,183);fill-rule:nonzero;stroke:rgb(85,173,183);stroke-width:0.01px;stroke-linecap:butt;stroke-miterlimit:2;"/>
        </g>
        <g transform="matrix(125.124,0,0,125.124,1431.55,1853.44)">
            <path d="M0.322,-0.396l-0.129,0l0,0.215c-0,0.013 0,0.027 0.001,0.04c0.001,0.013 0.003,0.024 0.008,0.035c0.004,0.01 0.011,0.018 0.019,0.025c0.01,0.006 0.023,0.009 0.04,0.009c0.011,0 0.022,-0.001 0.033,-0.003c0.011,-0.002 0.022,-0.006 0.031,-0.011l-0,0.082c-0.011,0.006 -0.025,0.01 -0.042,0.013c-0.017,0.002 -0.03,0.003 -0.039,0.003c-0.035,0 -0.062,-0.005 -0.081,-0.014c-0.019,-0.01 -0.033,-0.023 -0.042,-0.038c-0.009,-0.015 -0.014,-0.032 -0.016,-0.051c-0.001,-0.02 -0.002,-0.039 -0.002,-0.058l-0,-0.247l-0.104,0l-0,-0.078l0.104,0l-0,-0.133l0.09,0l-0,0.133l0.129,-0l-0,0.078Z" style="fill:rgb(85,173,183);fill-rule:nonzero;stroke:rgb(85,173,183);stroke-width:0.01px;stroke-linecap:butt;stroke-miterlimit:2;"/>
        </g>
        <g transform="matrix(125.124,0,0,125.124,1477.85,1853.44)">
            <path d="M0.07,-0.416c0.025,-0.023 0.055,-0.041 0.088,-0.052c0.033,-0.012 0.067,-0.018 0.1,-0.018c0.035,0 0.065,0.004 0.09,0.013c0.025,0.009 0.045,0.02 0.061,0.035c0.016,0.015 0.028,0.032 0.036,0.051c0.007,0.019 0.011,0.038 0.011,0.059l0,0.242c0,0.017 0,0.032 0.001,0.046c0.001,0.014 0.002,0.027 0.003,0.04l-0.08,0c-0.002,-0.024 -0.003,-0.048 -0.003,-0.072l-0.002,0c-0.02,0.031 -0.044,0.052 -0.071,0.065c-0.027,0.013 -0.059,0.019 -0.095,0.019c-0.022,0 -0.043,-0.003 -0.063,-0.009c-0.02,-0.006 -0.037,-0.015 -0.052,-0.027c-0.015,-0.012 -0.027,-0.027 -0.036,-0.044c-0.009,-0.018 -0.013,-0.039 -0.013,-0.062c0,-0.031 0.007,-0.056 0.021,-0.077c0.013,-0.021 0.032,-0.037 0.056,-0.05c0.023,-0.013 0.051,-0.023 0.083,-0.028c0.031,-0.006 0.065,-0.009 0.101,-0.009l0.066,0l0,-0.02c0,-0.012 -0.002,-0.024 -0.007,-0.036c-0.005,-0.012 -0.012,-0.023 -0.021,-0.032c-0.009,-0.01 -0.021,-0.018 -0.035,-0.023c-0.014,-0.006 -0.031,-0.009 -0.05,-0.009c-0.017,0 -0.032,0.002 -0.045,0.005c-0.013,0.003 -0.025,0.008 -0.036,0.013c-0.011,0.005 -0.02,0.01 -0.029,0.017c-0.009,0.007 -0.017,0.013 -0.025,0.019l-0.054,-0.056Zm0.254,0.188c-0.021,0 -0.043,0.001 -0.065,0.004c-0.023,0.002 -0.043,0.006 -0.061,0.013c-0.019,0.007 -0.034,0.016 -0.045,0.028c-0.012,0.012 -0.018,0.027 -0.018,0.046c0,0.027 0.009,0.047 0.028,0.059c0.018,0.012 0.043,0.018 0.074,0.018c0.025,0 0.046,-0.004 0.063,-0.012c0.017,-0.009 0.031,-0.02 0.042,-0.033c0.011,-0.013 0.018,-0.028 0.023,-0.044c0.005,-0.017 0.007,-0.033 0.007,-0.049l0,-0.03l-0.048,0Z" style="fill:rgb(85,173,183);fill-rule:nonzero;stroke:rgb(85,173,183);stroke-width:0.01px;stroke-linecap:butt;stroke-miterlimit:2;"/>
        </g>
        <g transform="matrix(125.124,0,0,125.124,1542.79,1853.44)">
            <path d="M0.322,-0.396l-0.129,0l0,0.215c-0,0.013 0,0.027 0.001,0.04c0.001,0.013 0.003,0.024 0.008,0.035c0.004,0.01 0.011,0.018 0.019,0.025c0.01,0.006 0.023,0.009 0.04,0.009c0.011,0 0.022,-0.001 0.033,-0.003c0.011,-0.002 0.022,-0.006 0.031,-0.011l-0,0.082c-0.011,0.006 -0.025,0.01 -0.042,0.013c-0.017,0.002 -0.03,0.003 -0.039,0.003c-0.035,0 -0.062,-0.005 -0.081,-0.014c-0.019,-0.01 -0.033,-0.023 -0.042,-0.038c-0.009,-0.015 -0.014,-0.032 -0.016,-0.051c-0.001,-0.02 -0.002,-0.039 -0.002,-0.058l-0,-0.247l-0.104,0l-0,-0.078l0.104,0l-0,-0.133l0.09,0l-0,0.133l0.129,-0l-0,0.078Z" style="fill:rgb(85,173,183);fill-rule:nonzero;stroke:rgb(85,173,183);stroke-width:0.01px;stroke-linecap:butt;stroke-miterlimit:2;"/>
        </g>
        <g transform="matrix(125.124,0,0,125.124,1589.08,1853.44)">
            <path d="M0.075,-0.474l0.09,0l0,0.474l-0.09,-0l0,-0.474Zm-0.021,-0.17c0,-0.018 0.007,-0.034 0.02,-0.046c0.013,-0.013 0.028,-0.02 0.046,-0.02c0.018,0 0.034,0.007 0.047,0.02c0.013,0.012 0.019,0.028 0.019,0.046c0,0.018 -0.006,0.033 -0.019,0.046c-0.013,0.014 -0.029,0.02 -0.047,0.02c-0.018,0 -0.033,-0.006 -0.046,-0.02c-0.013,-0.013 -0.02,-0.028 -0.02,-0.046Z" style="fill:rgb(85,173,183);fill-rule:nonzero;stroke:rgb(85,173,183);stroke-width:0.01px;stroke-linecap:butt;stroke-miterlimit:2;"/>
        </g>
        <g transform="matrix(125.124,0,0,125.124,1619.11,1853.44)">
            <path d="M0.141,-0.237c0,0.024 0.004,0.046 0.011,0.067c0.007,0.02 0.018,0.037 0.031,0.052c0.013,0.014 0.03,0.025 0.049,0.034c0.019,0.008 0.041,0.012 0.065,0.012c0.024,0 0.046,-0.004 0.065,-0.012c0.019,-0.009 0.036,-0.02 0.049,-0.035c0.013,-0.014 0.024,-0.031 0.031,-0.052c0.007,-0.02 0.011,-0.042 0.011,-0.066c-0,-0.024 -0.004,-0.046 -0.011,-0.066c-0.007,-0.021 -0.018,-0.038 -0.031,-0.052c-0.013,-0.015 -0.03,-0.026 -0.049,-0.034c-0.019,-0.009 -0.041,-0.013 -0.065,-0.013c-0.024,0 -0.046,0.004 -0.065,0.013c-0.019,0.008 -0.036,0.019 -0.049,0.034c-0.013,0.014 -0.024,0.031 -0.031,0.051c-0.007,0.021 -0.011,0.043 -0.011,0.067Zm-0.096,-0c-0,-0.035 0.006,-0.067 0.019,-0.097c0.013,-0.03 0.031,-0.056 0.054,-0.079c0.023,-0.023 0.049,-0.041 0.08,-0.054c0.031,-0.013 0.064,-0.019 0.099,-0.019c0.035,0 0.068,0.007 0.099,0.019c0.031,0.013 0.057,0.031 0.08,0.054c0.023,0.023 0.041,0.049 0.053,0.079c0.013,0.03 0.02,0.062 0.02,0.097c0,0.035 -0.007,0.067 -0.02,0.097c-0.012,0.031 -0.03,0.057 -0.053,0.079c-0.023,0.023 -0.049,0.04 -0.08,0.053c-0.031,0.013 -0.064,0.02 -0.099,0.02c-0.035,-0 -0.068,-0.007 -0.099,-0.02c-0.031,-0.013 -0.057,-0.03 -0.08,-0.053c-0.023,-0.022 -0.041,-0.048 -0.054,-0.079c-0.013,-0.03 -0.019,-0.062 -0.019,-0.097Z" style="fill:rgb(85,173,183);fill-rule:nonzero;stroke:rgb(85,173,183);stroke-width:0.01px;stroke-linecap:butt;stroke-miterlimit:2;"/>
        </g>
        <g transform="matrix(125.124,0,0,125.124,1693.44,1853.44)">
            <path d="M0.068,-0.474l0.09,0l0,0.073l0.002,0c0.011,-0.025 0.031,-0.046 0.059,-0.062c0.028,-0.015 0.06,-0.023 0.097,-0.023c0.023,0 0.045,0.004 0.066,0.011c0.021,0.007 0.039,0.017 0.054,0.032c0.016,0.015 0.029,0.034 0.038,0.057c0.009,0.023 0.014,0.05 0.014,0.081l0,0.305l-0.09,0l0,-0.28c-0,-0.022 -0.003,-0.041 -0.009,-0.056c-0.006,-0.016 -0.014,-0.029 -0.024,-0.038c-0.01,-0.01 -0.022,-0.017 -0.034,-0.021c-0.013,-0.005 -0.027,-0.007 -0.041,-0.007c-0.019,0 -0.036,0.003 -0.052,0.009c-0.016,0.006 -0.03,0.016 -0.042,0.029c-0.012,0.013 -0.021,0.029 -0.028,0.049c-0.007,0.02 -0.01,0.044 -0.01,0.071l0,0.244l-0.09,0l0,-0.474Z" style="fill:rgb(85,173,183);fill-rule:nonzero;stroke:rgb(85,173,183);stroke-width:0.01px;stroke-linecap:butt;stroke-miterlimit:2;"/>
        </g>
    </g>
    <path d="M1178.33,1135.14l33.658,-39.414l-32.532,-0l0,-9.76l46.296,-0l-0,10.01l-33.909,39.539l35.661,-0l-0,9.76l-49.174,-0l-0,-10.135Z" style="fill:rgb(85,173,183);fill-rule:nonzero;stroke:rgb(85,173,183);stroke-width:1px;stroke-linecap:butt;stroke-miterlimit:2;"/>
    <path d="M1179.96,1159.95l45.507,-0" style="fill:none;stroke:rgb(85,173,183);stroke-width:12.66px;"/>
    <rect x="1117.27" y="642.885" width="167.508" height="375.95" style="fill-opacity:0;stroke:rgb(85,173,183);stroke-width:15.96px;"/>
    <path d="M1112.29,1340.7c31.285,-28.304 71.412,-102.121 74.375,-146.818" style="fill:rgb(85,173,183);fill-opacity:0;stroke:rgb(85,173,183);stroke-width:12.66px;"/>
    <path d="M1186.66,1193.88l19.169,26.386" style="fill:none;stroke:rgb(85,173,183);stroke-width:12.66px;"/>
    <path d="M1186.66,1193.88l-25.066,23.848" style="fill:none;stroke:rgb(85,173,183);stroke-width:12.66px;"/>
    <path d="M536.674,1529.24l0,-1376.91l477.6,344.229l-0,688.457l-477.6,344.229Z" style="fill:rgb(86,174,184);fill-opacity:0;stroke:rgb(85,92,183);stroke-width:12.66px;"/>
    <path d="M1859.33,152.329l-0,1376.91l-477.6,-344.229l0,-688.457l477.6,-344.229Z" style="fill:rgb(85,173,183);fill-opacity:0;stroke:rgb(85,183,111);stroke-width:12.66px;"/>
    <path d="M543.066,66.086c-0,2.456 0.534,4.694 1.604,6.714c1.069,2.019 2.475,3.742 4.218,5.168c1.742,1.426 3.762,2.535 6.059,3.327c2.297,0.792 4.674,1.188 7.129,1.188c3.327,0 6.218,-0.772 8.674,-2.317c2.455,-1.545 4.713,-3.584 6.772,-6.119l8.08,6.179c-5.941,7.683 -14.258,11.525 -24.952,11.525c-4.435,-0 -8.455,-0.753 -12.059,-2.258c-3.604,-1.505 -6.654,-3.584 -9.149,-6.238c-2.495,-2.653 -4.416,-5.782 -5.763,-9.386c-1.346,-3.604 -2.02,-7.505 -2.02,-11.704c0,-4.198 0.733,-8.099 2.198,-11.703c1.466,-3.604 3.486,-6.733 6.06,-9.386c2.574,-2.654 5.644,-4.733 9.208,-6.238c3.565,-1.505 7.446,-2.258 11.644,-2.258c4.991,0 9.209,0.872 12.654,2.614c3.446,1.743 6.278,4.02 8.496,6.832c2.217,2.812 3.821,5.981 4.812,9.505c0.99,3.525 1.485,7.11 1.485,10.753l-0,3.802l-45.15,0Zm33.743,-8.554c-0.079,-2.377 -0.455,-4.555 -1.128,-6.535c-0.674,-1.98 -1.684,-3.703 -3.03,-5.169c-1.347,-1.465 -3.03,-2.614 -5.05,-3.445c-2.02,-0.832 -4.376,-1.248 -7.069,-1.248c-2.614,0 -5.01,0.495 -7.189,1.485c-2.178,0.99 -4.02,2.278 -5.525,3.862c-1.505,1.584 -2.673,3.346 -3.505,5.287c-0.831,1.941 -1.247,3.862 -1.247,5.763l33.743,-0Z" style="fill:rgb(85,92,183);fill-rule:nonzero;stroke:rgb(85,92,183);stroke-width:1px;stroke-linecap:butt;stroke-miterlimit:2;"/>
    <path d="M601.048,34.006l10.693,0l0,8.674l0.238,-0c1.347,-3.01 3.683,-5.446 7.01,-7.308c3.327,-1.861 7.169,-2.792 11.525,-2.792c2.693,0 5.288,0.416 7.783,1.248c2.495,0.832 4.673,2.119 6.535,3.861c1.861,1.743 3.346,3.981 4.455,6.713c1.109,2.733 1.664,5.961 1.664,9.684l-0,36.239l-10.694,-0l0,-33.269c0,-2.614 -0.356,-4.851 -1.069,-6.713c-0.713,-1.861 -1.664,-3.366 -2.852,-4.515c-1.188,-1.148 -2.554,-1.98 -4.099,-2.495c-1.545,-0.515 -3.149,-0.772 -4.812,-0.772c-2.218,-0 -4.277,0.356 -6.178,1.069c-1.901,0.713 -3.565,1.842 -4.991,3.386c-1.425,1.545 -2.534,3.506 -3.327,5.882c-0.792,2.376 -1.188,5.188 -1.188,8.436l0,28.991l-10.693,-0l-0,-56.319Z" style="fill:rgb(85,92,183);fill-rule:nonzero;stroke:rgb(85,92,183);stroke-width:1px;stroke-linecap:butt;stroke-miterlimit:2;"/>
    <path d="M707.388,48.977c-1.98,-2.06 -4.059,-3.624 -6.238,-4.693c-2.178,-1.07 -4.772,-1.604 -7.782,-1.604c-2.931,-0 -5.485,0.534 -7.664,1.604c-2.178,1.069 -4,2.534 -5.465,4.396c-1.466,1.861 -2.575,4 -3.327,6.416c-0.753,2.416 -1.129,4.931 -1.129,7.545c0,2.614 0.436,5.089 1.307,7.426c0.871,2.336 2.099,4.376 3.683,6.119c1.585,1.742 3.486,3.109 5.704,4.099c2.217,0.99 4.713,1.485 7.485,1.485c3.01,0 5.584,-0.535 7.723,-1.604c2.139,-1.069 4.119,-2.634 5.941,-4.693l7.604,7.604c-2.772,3.089 -6,5.307 -9.683,6.654c-3.684,1.346 -7.585,2.02 -11.704,2.02c-4.356,-0 -8.337,-0.713 -11.941,-2.139c-3.604,-1.426 -6.713,-3.426 -9.327,-6c-2.614,-2.575 -4.634,-5.664 -6.06,-9.268c-1.425,-3.604 -2.138,-7.584 -2.138,-11.941c-0,-4.356 0.713,-8.357 2.138,-12c1.426,-3.644 3.426,-6.773 6.001,-9.387c2.574,-2.614 5.663,-4.653 9.267,-6.119c3.604,-1.465 7.624,-2.198 12.06,-2.198c4.119,0 8.06,0.733 11.822,2.198c3.763,1.466 7.03,3.703 9.803,6.713l-8.08,7.367Z" style="fill:rgb(85,92,183);fill-rule:nonzero;stroke:rgb(85,92,183);stroke-width:1px;stroke-linecap:butt;stroke-miterlimit:2;"/>
    <path d="M733.052,62.165c0,2.852 0.436,5.486 1.307,7.902c0.872,2.416 2.099,4.475 3.684,6.178c1.584,1.703 3.525,3.05 5.822,4.04c2.297,0.99 4.871,1.485 7.723,1.485c2.851,0 5.426,-0.495 7.723,-1.485c2.297,-0.99 4.238,-2.337 5.822,-4.04c1.584,-1.703 2.812,-3.762 3.683,-6.178c0.871,-2.416 1.307,-5.05 1.307,-7.902c-0,-2.851 -0.436,-5.485 -1.307,-7.901c-0.871,-2.416 -2.099,-4.475 -3.683,-6.178c-1.584,-1.703 -3.525,-3.05 -5.822,-4.04c-2.297,-0.99 -4.872,-1.485 -7.723,-1.485c-2.852,-0 -5.426,0.495 -7.723,1.485c-2.297,0.99 -4.238,2.337 -5.822,4.04c-1.585,1.703 -2.812,3.762 -3.684,6.178c-0.871,2.416 -1.307,5.05 -1.307,7.901Zm-11.406,0c0,-4.118 0.772,-7.96 2.317,-11.525c1.545,-3.564 3.663,-6.693 6.357,-9.386c2.693,-2.693 5.861,-4.812 9.505,-6.357c3.644,-1.544 7.565,-2.317 11.763,-2.317c4.198,0 8.119,0.773 11.762,2.317c3.644,1.545 6.813,3.664 9.506,6.357c2.693,2.693 4.812,5.822 6.356,9.386c1.545,3.565 2.317,7.407 2.317,11.525c0,4.119 -0.772,7.981 -2.317,11.585c-1.544,3.604 -3.663,6.733 -6.356,9.387c-2.693,2.653 -5.862,4.752 -9.506,6.297c-3.643,1.544 -7.564,2.317 -11.762,2.317c-4.198,-0 -8.119,-0.773 -11.763,-2.317c-3.644,-1.545 -6.812,-3.644 -9.505,-6.297c-2.694,-2.654 -4.812,-5.783 -6.357,-9.387c-1.545,-3.604 -2.317,-7.466 -2.317,-11.585Z" style="fill:rgb(85,92,183);fill-rule:nonzero;stroke:rgb(85,92,183);stroke-width:1px;stroke-linecap:butt;stroke-miterlimit:2;"/>
    <path d="M851.393,90.325l-10.693,-0l-0,-8.08l-0.238,0c-2.059,3.01 -4.891,5.347 -8.495,7.011c-3.604,1.663 -7.307,2.495 -11.11,2.495c-4.356,-0 -8.297,-0.753 -11.822,-2.258c-3.525,-1.505 -6.535,-3.604 -9.03,-6.297c-2.495,-2.693 -4.416,-5.822 -5.762,-9.387c-1.347,-3.564 -2.02,-7.445 -2.02,-11.644c-0,-4.198 0.673,-8.099 2.02,-11.703c1.346,-3.604 3.267,-6.733 5.762,-9.386c2.495,-2.654 5.505,-4.733 9.03,-6.238c3.525,-1.505 7.466,-2.258 11.822,-2.258c4.04,0 7.842,0.852 11.407,2.555c3.564,1.703 6.297,4.02 8.198,6.951l0.238,-0l-0,-41.586l10.693,-0l0,89.825Zm-29.229,-8.555c2.852,0 5.426,-0.495 7.723,-1.485c2.298,-0.99 4.238,-2.337 5.822,-4.04c1.585,-1.703 2.812,-3.762 3.684,-6.178c0.871,-2.416 1.307,-5.05 1.307,-7.902c-0,-2.851 -0.436,-5.485 -1.307,-7.901c-0.872,-2.416 -2.099,-4.475 -3.684,-6.178c-1.584,-1.703 -3.524,-3.05 -5.822,-4.04c-2.297,-0.99 -4.871,-1.485 -7.723,-1.485c-2.851,-0 -5.426,0.495 -7.723,1.485c-2.297,0.99 -4.237,2.337 -5.822,4.04c-1.584,1.703 -2.812,3.762 -3.683,6.178c-0.871,2.416 -1.307,5.05 -1.307,7.901c0,2.852 0.436,5.486 1.307,7.902c0.871,2.416 2.099,4.475 3.683,6.178c1.585,1.703 3.525,3.05 5.822,4.04c2.297,0.99 4.872,1.485 7.723,1.485Z" style="fill:rgb(85,92,183);fill-rule:nonzero;stroke:rgb(85,92,183);stroke-width:1px;stroke-linecap:butt;stroke-miterlimit:2;"/>
    <path d="M875.632,66.086c-0,2.456 0.534,4.694 1.604,6.714c1.069,2.019 2.475,3.742 4.218,5.168c1.742,1.426 3.762,2.535 6.059,3.327c2.297,0.792 4.674,1.188 7.129,1.188c3.327,0 6.218,-0.772 8.674,-2.317c2.455,-1.545 4.713,-3.584 6.772,-6.119l8.08,6.179c-5.941,7.683 -14.258,11.525 -24.952,11.525c-4.435,-0 -8.455,-0.753 -12.059,-2.258c-3.605,-1.505 -6.654,-3.584 -9.149,-6.238c-2.495,-2.653 -4.416,-5.782 -5.763,-9.386c-1.346,-3.604 -2.02,-7.505 -2.02,-11.704c0,-4.198 0.733,-8.099 2.198,-11.703c1.466,-3.604 3.486,-6.733 6.06,-9.386c2.574,-2.654 5.644,-4.733 9.208,-6.238c3.565,-1.505 7.446,-2.258 11.644,-2.258c4.99,0 9.208,0.872 12.654,2.614c3.446,1.743 6.277,4.02 8.495,6.832c2.218,2.812 3.822,5.981 4.812,9.505c0.991,3.525 1.486,7.11 1.486,10.753l-0,3.802l-45.15,0Zm33.743,-8.554c-0.079,-2.377 -0.455,-4.555 -1.128,-6.535c-0.674,-1.98 -1.684,-3.703 -3.03,-5.169c-1.347,-1.465 -3.03,-2.614 -5.05,-3.445c-2.02,-0.832 -4.376,-1.248 -7.069,-1.248c-2.614,0 -5.011,0.495 -7.189,1.485c-2.178,0.99 -4.02,2.278 -5.525,3.862c-1.505,1.584 -2.673,3.346 -3.505,5.287c-0.832,1.941 -1.247,3.862 -1.247,5.763l33.743,-0Z" style="fill:rgb(85,92,183);fill-rule:nonzero;stroke:rgb(85,92,183);stroke-width:1px;stroke-linecap:butt;stroke-miterlimit:2;"/>
    <path d="M933.614,34.006l10.693,0l0,8.674l0.238,-0c0.713,-1.505 1.663,-2.872 2.851,-4.099c1.189,-1.228 2.515,-2.278 3.981,-3.149c1.465,-0.871 3.069,-1.565 4.812,-2.079c1.742,-0.515 3.485,-0.773 5.228,-0.773c1.742,0 3.327,0.238 4.752,0.713l-0.475,11.525c-0.871,-0.237 -1.743,-0.435 -2.614,-0.594c-0.871,-0.158 -1.743,-0.237 -2.614,-0.237c-5.228,-0 -9.228,1.465 -12,4.396c-2.773,2.931 -4.159,7.485 -4.159,13.664l0,28.278l-10.693,-0l-0,-56.319Z" style="fill:rgb(85,92,183);fill-rule:nonzero;stroke:rgb(85,92,183);stroke-width:1px;stroke-linecap:butt;stroke-miterlimit:2;"/>
    <path d="M1447.99,90.325l-10.693,-0l-0,-8.08l-0.238,0c-2.059,3.01 -4.891,5.347 -8.495,7.011c-3.604,1.663 -7.308,2.495 -11.11,2.495c-4.356,-0 -8.297,-0.753 -11.822,-2.258c-3.525,-1.505 -6.535,-3.604 -9.03,-6.297c-2.495,-2.693 -4.416,-5.822 -5.762,-9.387c-1.347,-3.564 -2.02,-7.445 -2.02,-11.644c-0,-4.198 0.673,-8.099 2.02,-11.703c1.346,-3.604 3.267,-6.733 5.762,-9.386c2.495,-2.654 5.505,-4.733 9.03,-6.238c3.525,-1.505 7.466,-2.258 11.822,-2.258c4.04,0 7.842,0.852 11.407,2.555c3.564,1.703 6.297,4.02 8.198,6.951l0.238,-0l-0,-41.586l10.693,-0l0,89.825Zm-29.229,-8.555c2.852,0 5.426,-0.495 7.723,-1.485c2.297,-0.99 4.238,-2.337 5.822,-4.04c1.585,-1.703 2.812,-3.762 3.684,-6.178c0.871,-2.416 1.307,-5.05 1.307,-7.902c-0,-2.851 -0.436,-5.485 -1.307,-7.901c-0.872,-2.416 -2.099,-4.475 -3.684,-6.178c-1.584,-1.703 -3.525,-3.05 -5.822,-4.04c-2.297,-0.99 -4.871,-1.485 -7.723,-1.485c-2.851,-0 -5.426,0.495 -7.723,1.485c-2.297,0.99 -4.237,2.337 -5.822,4.04c-1.584,1.703 -2.812,3.762 -3.683,6.178c-0.871,2.416 -1.307,5.05 -1.307,7.901c0,2.852 0.436,5.486 1.307,7.902c0.871,2.416 2.099,4.475 3.683,6.178c1.585,1.703 3.525,3.05 5.822,4.04c2.297,0.99 4.872,1.485 7.723,1.485Z" style="fill:rgb(91,185,116);fill-rule:nonzero;stroke:rgb(91,185,116);stroke-width:1px;stroke-linecap:butt;stroke-miterlimit:2;"/>
    <path d="M1472.23,66.086c-0,2.456 0.534,4.694 1.604,6.714c1.069,2.019 2.475,3.742 4.218,5.168c1.742,1.426 3.762,2.535 6.059,3.327c2.297,0.792 4.674,1.188 7.129,1.188c3.327,0 6.218,-0.772 8.674,-2.317c2.455,-1.545 4.713,-3.584 6.772,-6.119l8.08,6.179c-5.941,7.683 -14.258,11.525 -24.952,11.525c-4.436,-0 -8.455,-0.753 -12.06,-2.258c-3.604,-1.505 -6.653,-3.584 -9.148,-6.238c-2.495,-2.653 -4.416,-5.782 -5.763,-9.386c-1.347,-3.604 -2.02,-7.505 -2.02,-11.704c0,-4.198 0.733,-8.099 2.198,-11.703c1.466,-3.604 3.486,-6.733 6.06,-9.386c2.574,-2.654 5.644,-4.733 9.208,-6.238c3.565,-1.505 7.446,-2.258 11.644,-2.258c4.99,0 9.208,0.872 12.654,2.614c3.446,1.743 6.277,4.02 8.495,6.832c2.218,2.812 3.822,5.981 4.812,9.505c0.991,3.525 1.486,7.11 1.486,10.753l-0,3.802l-45.15,0Zm33.743,-8.554c-0.079,-2.377 -0.455,-4.555 -1.128,-6.535c-0.674,-1.98 -1.684,-3.703 -3.03,-5.169c-1.347,-1.465 -3.03,-2.614 -5.05,-3.445c-2.02,-0.832 -4.376,-1.248 -7.07,-1.248c-2.613,0 -5.01,0.495 -7.188,1.485c-2.178,0.99 -4.02,2.278 -5.525,3.862c-1.505,1.584 -2.673,3.346 -3.505,5.287c-0.832,1.941 -1.247,3.862 -1.247,5.763l33.743,-0Z" style="fill:rgb(91,185,116);fill-rule:nonzero;stroke:rgb(91,185,116);stroke-width:1px;stroke-linecap:butt;stroke-miterlimit:2;"/>
    <path d="M1570.49,48.977c-1.98,-2.06 -4.059,-3.624 -6.238,-4.693c-2.178,-1.07 -4.772,-1.604 -7.782,-1.604c-2.931,-0 -5.485,0.534 -7.664,1.604c-2.178,1.069 -4,2.534 -5.465,4.396c-1.466,1.861 -2.574,4 -3.327,6.416c-0.752,2.416 -1.129,4.931 -1.129,7.545c0,2.614 0.436,5.089 1.307,7.426c0.872,2.336 2.099,4.376 3.684,6.119c1.584,1.742 3.485,3.109 5.703,4.099c2.218,0.99 4.713,1.485 7.485,1.485c3.01,0 5.584,-0.535 7.723,-1.604c2.139,-1.069 4.119,-2.634 5.941,-4.693l7.604,7.604c-2.772,3.089 -6,5.307 -9.683,6.654c-3.684,1.346 -7.585,2.02 -11.704,2.02c-4.356,-0 -8.337,-0.713 -11.941,-2.139c-3.604,-1.426 -6.713,-3.426 -9.327,-6c-2.614,-2.575 -4.634,-5.664 -6.059,-9.268c-1.426,-3.604 -2.139,-7.584 -2.139,-11.941c-0,-4.356 0.713,-8.357 2.139,-12c1.425,-3.644 3.426,-6.773 6,-9.387c2.574,-2.614 5.663,-4.653 9.267,-6.119c3.605,-1.465 7.625,-2.198 12.06,-2.198c4.119,0 8.06,0.733 11.823,2.198c3.762,1.466 7.029,3.703 9.802,6.713l-8.08,7.367Z" style="fill:rgb(91,185,116);fill-rule:nonzero;stroke:rgb(91,185,116);stroke-width:1px;stroke-linecap:butt;stroke-miterlimit:2;"/>
    <path d="M1596.15,62.165c-0,2.852 0.435,5.486 1.307,7.902c0.871,2.416 2.099,4.475 3.683,6.178c1.584,1.703 3.525,3.05 5.822,4.04c2.297,0.99 4.871,1.485 7.723,1.485c2.851,0 5.426,-0.495 7.723,-1.485c2.297,-0.99 4.238,-2.337 5.822,-4.04c1.584,-1.703 2.812,-3.762 3.683,-6.178c0.872,-2.416 1.307,-5.05 1.307,-7.902c0,-2.851 -0.435,-5.485 -1.307,-7.901c-0.871,-2.416 -2.099,-4.475 -3.683,-6.178c-1.584,-1.703 -3.525,-3.05 -5.822,-4.04c-2.297,-0.99 -4.872,-1.485 -7.723,-1.485c-2.852,-0 -5.426,0.495 -7.723,1.485c-2.297,0.99 -4.238,2.337 -5.822,4.04c-1.584,1.703 -2.812,3.762 -3.683,6.178c-0.872,2.416 -1.307,5.05 -1.307,7.901Zm-11.407,0c0,-4.118 0.773,-7.96 2.317,-11.525c1.545,-3.564 3.664,-6.693 6.357,-9.386c2.693,-2.693 5.861,-4.812 9.505,-6.357c3.644,-1.544 7.565,-2.317 11.763,-2.317c4.198,0 8.119,0.773 11.763,2.317c3.643,1.545 6.812,3.664 9.505,6.357c2.693,2.693 4.812,5.822 6.357,9.386c1.544,3.565 2.316,7.407 2.316,11.525c0,4.119 -0.772,7.981 -2.316,11.585c-1.545,3.604 -3.664,6.733 -6.357,9.387c-2.693,2.653 -5.862,4.752 -9.505,6.297c-3.644,1.544 -7.565,2.317 -11.763,2.317c-4.198,-0 -8.119,-0.773 -11.763,-2.317c-3.644,-1.545 -6.812,-3.644 -9.505,-6.297c-2.693,-2.654 -4.812,-5.783 -6.357,-9.387c-1.544,-3.604 -2.317,-7.466 -2.317,-11.585Z" style="fill:rgb(91,185,116);fill-rule:nonzero;stroke:rgb(91,185,116);stroke-width:1px;stroke-linecap:butt;stroke-miterlimit:2;"/>
    <path d="M1714.49,90.325l-10.693,-0l-0,-8.08l-0.238,0c-2.059,3.01 -4.891,5.347 -8.495,7.011c-3.604,1.663 -7.307,2.495 -11.109,2.495c-4.357,-0 -8.298,-0.753 -11.823,-2.258c-3.524,-1.505 -6.534,-3.604 -9.03,-6.297c-2.495,-2.693 -4.416,-5.822 -5.762,-9.387c-1.347,-3.564 -2.02,-7.445 -2.02,-11.644c-0,-4.198 0.673,-8.099 2.02,-11.703c1.346,-3.604 3.267,-6.733 5.762,-9.386c2.496,-2.654 5.506,-4.733 9.03,-6.238c3.525,-1.505 7.466,-2.258 11.823,-2.258c4.039,0 7.841,0.852 11.406,2.555c3.564,1.703 6.297,4.02 8.198,6.951l0.238,-0l-0,-41.586l10.693,-0l0,89.825Zm-29.228,-8.555c2.851,0 5.425,-0.495 7.723,-1.485c2.297,-0.99 4.237,-2.337 5.822,-4.04c1.584,-1.703 2.812,-3.762 3.683,-6.178c0.871,-2.416 1.307,-5.05 1.307,-7.902c-0,-2.851 -0.436,-5.485 -1.307,-7.901c-0.871,-2.416 -2.099,-4.475 -3.683,-6.178c-1.585,-1.703 -3.525,-3.05 -5.822,-4.04c-2.298,-0.99 -4.872,-1.485 -7.723,-1.485c-2.852,-0 -5.426,0.495 -7.723,1.485c-2.298,0.99 -4.238,2.337 -5.822,4.04c-1.585,1.703 -2.812,3.762 -3.684,6.178c-0.871,2.416 -1.307,5.05 -1.307,7.901c0,2.852 0.436,5.486 1.307,7.902c0.872,2.416 2.099,4.475 3.684,6.178c1.584,1.703 3.524,3.05 5.822,4.04c2.297,0.99 4.871,1.485 7.723,1.485Z" style="fill:rgb(91,185,116);fill-rule:nonzero;stroke:rgb(91,185,116);stroke-width:1px;stroke-linecap:butt;stroke-miterlimit:2;"/>
    <path d="M1738.73,66.086c-0,2.456 0.534,4.694 1.604,6.714c1.069,2.019 2.475,3.742 4.218,5.168c1.742,1.426 3.762,2.535 6.059,3.327c2.297,0.792 4.674,1.188 7.129,1.188c3.327,0 6.218,-0.772 8.674,-2.317c2.455,-1.545 4.713,-3.584 6.772,-6.119l8.08,6.179c-5.941,7.683 -14.258,11.525 -24.951,11.525c-4.436,-0 -8.456,-0.753 -12.06,-2.258c-3.604,-1.505 -6.654,-3.584 -9.149,-6.238c-2.495,-2.653 -4.416,-5.782 -5.763,-9.386c-1.346,-3.604 -2.02,-7.505 -2.02,-11.704c0,-4.198 0.733,-8.099 2.199,-11.703c1.465,-3.604 3.485,-6.733 6.059,-9.386c2.574,-2.654 5.644,-4.733 9.208,-6.238c3.565,-1.505 7.446,-2.258 11.644,-2.258c4.991,0 9.209,0.872 12.654,2.614c3.446,1.743 6.278,4.02 8.496,6.832c2.217,2.812 3.821,5.981 4.812,9.505c0.99,3.525 1.485,7.11 1.485,10.753l-0,3.802l-45.15,0Zm33.743,-8.554c-0.079,-2.377 -0.455,-4.555 -1.128,-6.535c-0.674,-1.98 -1.684,-3.703 -3.03,-5.169c-1.347,-1.465 -3.03,-2.614 -5.05,-3.445c-2.02,-0.832 -4.376,-1.248 -7.069,-1.248c-2.614,0 -5.01,0.495 -7.189,1.485c-2.178,0.99 -4.02,2.278 -5.525,3.862c-1.505,1.584 -2.673,3.346 -3.505,5.287c-0.831,1.941 -1.247,3.862 -1.247,5.763l33.743,-0Z" style="fill:rgb(91,185,116);fill-rule:nonzero;stroke:rgb(91,185,116);stroke-width:1px;stroke-linecap:butt;stroke-miterlimit:2;"/>
    <path d="M1796.71,34.006l10.693,0l0,8.674l0.238,-0c0.713,-1.505 1.663,-2.872 2.852,-4.099c1.188,-1.228 2.515,-2.278 3.98,-3.149c1.465,-0.871 3.069,-1.565 4.812,-2.079c1.743,-0.515 3.485,-0.773 5.228,-0.773c1.742,0 3.327,0.238 4.753,0.713l-0.476,11.525c-0.871,-0.237 -1.742,-0.435 -2.614,-0.594c-0.871,-0.158 -1.742,-0.237 -2.614,-0.237c-5.228,-0 -9.228,1.465 -12,4.396c-2.772,2.931 -4.159,7.485 -4.159,13.664l0,28.278l-10.693,-0l-0,-56.319Z" style="fill:rgb(91,185,116);fill-rule:nonzero;stroke:rgb(91,185,116);stroke-width:1px;stroke-linecap:butt;stroke-miterlimit:2;"/>
    <path d="M45.576,811.561l-39.17,-51.527l27.046,0l26.813,39.17l26.346,-39.17l25.414,0l-37.771,51.527l44.766,58.988l-27.046,0l-32.642,-46.398l-32.641,46.398l-25.88,0l44.765,-58.988Z" style="fill-rule:nonzero;stroke:black;stroke-width:1px;stroke-linecap:butt;stroke-miterlimit:2;"/>
    <path d="M2250.78,846.495l-39.17,-51.527l27.046,0l26.812,39.17l26.347,-39.17l25.414,0l-37.771,51.527l44.765,58.988l-27.046,0l-32.641,-46.397l-32.642,46.397l-25.88,0l44.766,-58.988Z" style="fill-rule:nonzero;stroke:black;stroke-width:1px;stroke-linecap:butt;stroke-miterlimit:2;"/>
    <path d="M6.329,890.974l110.817,0" style="fill:none;stroke:black;stroke-width:12.66px;"/>
    <path d="M2211.53,925.908l110.818,0" style="fill:none;stroke:black;stroke-width:12.66px;"/>
    <path d="M430.896,170.953c-156.309,105.749 8.984,457.103 -74.904,646.926c93.075,209.217 -69.633,636.167 74.904,715.3" style="fill:none;stroke:black;stroke-width:12.66px;"/>
    <path d="M1897.53,1502.3c156.309,-105.748 -8.985,-457.103 74.903,-646.926c-93.075,-209.217 69.633,-636.167 -74.903,-715.3" style="fill:none;stroke:black;stroke-width:12.66px;"/>
    <path d="M171.167,815.829l129.933,0" style="fill:none;stroke:black;stroke-width:12.66px;"/>
    <path d="M2027.32,854.137l129.932,0" style="fill:none;stroke:black;stroke-width:12.66px;"/>
    <path d="M301.1,815.829l-34.23,-34.229" style="fill:none;stroke:black;stroke-width:12.66px;"/>
    <path d="M2157.26,854.137l-34.229,-34.229" style="fill:none;stroke:black;stroke-width:12.66px;"/>
    <path d="M301.1,815.829l-37.519,37.518" style="fill:none;stroke:black;stroke-width:12.66px;"/>
    <path d="M2157.26,854.137l-37.518,37.519" style="fill:none;stroke:black;stroke-width:12.66px;"/>
    <path d="M642.359,320.451l267.873,200.848" style="fill:none;stroke:black;stroke-width:12.66px;"/>
    <path d="M637.44,517.54l272.792,3.759" style="fill:none;stroke:black;stroke-width:12.66px;"/>
    <path d="M637.44,517.54l279.732,205.042" style="fill:none;stroke:black;stroke-width:12.66px;"/>
    <path d="M637.44,517.54l282.046,413.264" style="fill:none;stroke:black;stroke-width:12.66px;"/>
    <path d="M637.44,517.54l278.576,615.703" style="fill:none;stroke:black;stroke-width:12.66px;"/>
    <path d="M636.862,726.92l282.624,-207.934" style="fill:none;stroke:black;stroke-width:12.66px;"/>
    <path d="M636.862,726.92l279.154,-3.182" style="fill:none;stroke:black;stroke-width:12.66px;"/>
    <path d="M636.862,726.92l282.624,198.1" style="fill:none;stroke:black;stroke-width:12.66px;"/>
    <path d="M636.862,726.92l286.094,405.166" style="fill:none;stroke:black;stroke-width:12.66px;"/>
    <path d="M639.61,936.625l278.719,-416.482" style="fill:none;stroke:black;stroke-width:12.66px;"/>
    <path d="M639.61,936.625l279.876,-210.573" style="fill:none;stroke:black;stroke-width:12.66px;"/>
    <path d="M639.61,936.625l278.719,-5.821" style="fill:none;stroke:black;stroke-width:12.66px;"/>
    <path d="M639.61,936.625l279.876,197.775" style="fill:none;stroke:black;stroke-width:12.66px;"/>
    <path d="M636.862,1134.65l283.781,-614.51" style="fill:none;stroke:black;stroke-width:12.66px;"/>
    <path d="M636.862,1134.65l286.094,-410.915" style="fill:none;stroke:black;stroke-width:12.66px;"/>
    <path d="M636.862,1134.65l277.997,-206.162" style="fill:none;stroke:black;stroke-width:12.66px;"/>
    <path d="M636.862,1134.65l281.467,-0.253" style="fill:none;stroke:black;stroke-width:12.66px;"/>
    <path d="M641.925,1339.59l268.307,-822.914" style="fill:none;stroke:black;stroke-width:12.66px;"/>
    <path d="M910.232,516.672l287.238,213.936" style="fill:none;stroke:black;stroke-width:12.66px;"/>
    <path d="M910.232,516.672l288.077,412.788" style="fill:none;stroke:black;stroke-width:12.66px;"/>
    <path d="M916.531,724.761l277.583,0.813" style="fill:none;stroke:black;stroke-width:12.66px;"/>
    <path d="M916.531,724.761l285.973,206.377" style="fill:none;stroke:black;stroke-width:12.66px;"/>
    <path d="M921.078,927.625l278.909,-197.856" style="fill:none;stroke:black;stroke-width:12.66px;"/>
    <path d="M921.078,927.625l278.07,11.903" style="fill:none;stroke:black;stroke-width:12.66px;"/>
    <path d="M909.081,1137.28l288.389,-419.257" style="fill:none;stroke:black;stroke-width:12.66px;"/>
    <path d="M909.081,1137.28l288.389,-207.819" style="fill:none;stroke:black;stroke-width:12.66px;"/>
    <path d="M641.925,1339.59l277.561,-618.161" style="fill:none;stroke:black;stroke-width:12.66px;"/>
    <path d="M641.925,1339.59l274.091,-408.782" style="fill:none;stroke:black;stroke-width:12.66px;"/>
    <path d="M641.925,1339.59l278.718,-207.5" style="fill:none;stroke:black;stroke-width:12.66px;"/>
    <path d="M643.131,322.729l271.728,402.166" style="fill:none;stroke:black;stroke-width:12.66px;"/>
    <path d="M643.131,322.729l270.571,608.075" style="fill:none;stroke:black;stroke-width:12.66px;"/>
    <path d="M643.131,322.729l275.198,813.985" style="fill:none;stroke:black;stroke-width:12.66px;"/>
    <path d="M1194.7,722.673l285.335,-199.024" style="fill:none;stroke:black;stroke-width:12.66px;"/>
    <path d="M1194.7,722.673l287.871,3.924" style="fill:none;stroke:black;stroke-width:12.66px;"/>
    <path d="M1194.7,722.673l287.871,217.019" style="fill:none;stroke:black;stroke-width:12.66px;"/>
    <path d="M1194.7,722.673l292.945,413.625" style="fill:none;stroke:black;stroke-width:12.66px;"/>
    <path d="M1194.7,932.399l277.724,-411.287" style="fill:none;stroke:black;stroke-width:12.66px;"/>
    <path d="M1194.7,932.399l282.798,-210.876" style="fill:none;stroke:black;stroke-width:12.66px;"/>
    <path d="M1194.7,932.399l284.066,-5.391" style="fill:none;stroke:black;stroke-width:12.66px;"/>
    <path d="M1194.7,932.399l289.14,198.825" style="fill:none;stroke:black;stroke-width:12.66px;"/>
    <path d="M1476.05,519.17l286.836,-199.737" style="fill:none;stroke:black;stroke-width:12.66px;"/>
    <path d="M1476.05,519.17l284.299,1.942" style="fill:none;stroke:black;stroke-width:12.66px;"/>
    <path d="M1476.05,519.17l285.568,208.695" style="fill:none;stroke:black;stroke-width:12.66px;"/>
    <path d="M1476.05,519.17l286.836,409.106" style="fill:none;stroke:black;stroke-width:12.66px;"/>
    <path d="M1476.05,519.17l284.299,604.443" style="fill:none;stroke:black;stroke-width:12.66px;"/>
    <path d="M1476.05,519.17l285.568,822.612" style="fill:none;stroke:black;stroke-width:12.66px;"/>
    <path d="M1475.05,727.033l286.573,-417.747" style="fill:none;stroke:black;stroke-width:12.66px;"/>
    <path d="M1475.05,727.033l292.915,-203.384" style="fill:none;stroke:black;stroke-width:12.66px;"/>
    <path d="M1475.05,727.033l289.11,-6.778" style="fill:none;stroke:black;stroke-width:12.66px;"/>
    <path d="M1475.05,727.033l287.841,203.78" style="fill:none;stroke:black;stroke-width:12.66px;"/>
    <path d="M1475.05,727.033l281.499,409.265" style="fill:none;stroke:black;stroke-width:12.66px;"/>
    <path d="M1475.05,727.033l287.841,614.749" style="fill:none;stroke:black;stroke-width:12.66px;"/>
    <path d="M1480.92,925.66l279.434,-603.69" style="fill:none;stroke:black;stroke-width:12.66px;"/>
    <path d="M1480.92,925.66l279.434,-400.742" style="fill:none;stroke:black;stroke-width:12.66px;"/>
    <path d="M1480.92,925.66l278.166,-205.405" style="fill:none;stroke:black;stroke-width:12.66px;"/>
    <path d="M1480.92,925.66l281.971,7.69" style="fill:none;stroke:black;stroke-width:12.66px;"/>
    <path d="M1480.92,925.66l270.555,220.785" style="fill:none;stroke:black;stroke-width:12.66px;"/>
    <path d="M1480.92,925.66l279.434,413.586" style="fill:none;stroke:black;stroke-width:12.66px;"/>
    <path d="M1480.6,1134.55l278.484,-815.121" style="fill:none;stroke:black;stroke-width:12.66px;"/>
    <path d="M1480.6,1134.55l281.021,-622.321" style="fill:none;stroke:black;stroke-width:12.66px;"/>
    <path d="M1480.6,1134.55l282.289,-414.299" style="fill:none;stroke:black;stroke-width:12.66px;"/>
    <path d="M1480.6,1134.55l278.484,-203.741" style="fill:none;stroke:black;stroke-width:12.66px;"/>
    <path d="M1480.6,1134.55l273.41,-0.793" style="fill:none;stroke:black;stroke-width:12.66px;"/>
    <path d="M1480.6,1134.55l273.41,195.813" style="fill:none;stroke:black;stroke-width:12.66px;"/>
    <circle cx="921.551" cy="523.931" r="40.948" style="fill:rgb(255,40,0);stroke:rgb(255,16,0);stroke-width:1px;"/>
    <path d="M940.743,471.422l-7.055,-27.391" style="fill:none;stroke:rgb(255,16,0);stroke-width:12.66px;"/>
    <path d="M940.743,471.422l24.071,-6.225" style="fill:none;stroke:rgb(255,16,0);stroke-width:12.66px;"/>
    <path d="M1004.93,346.618l-64.185,124.804" style="fill:none;stroke:rgb(255,16,0);stroke-width:12.66px;"/>
    <circle cx="935.19" cy="268.704" r="54.257" style="fill:rgb(255,16,0);fill-opacity:0;stroke:rgb(255,16,0);stroke-width:12.66px;"/>
    <path d="M989.398,266.374l44.69,-0" style="fill:none;stroke:rgb(255,16,0);stroke-width:12.66px;"/>
    <path d="M1178.79,266.374l44.69,-0" style="fill:none;stroke:rgb(255,16,0);stroke-width:12.66px;"/>
    <rect x="1042.08" y="213.3" width="130.713" height="108.873" style="fill:white;fill-opacity:0;stroke:rgb(255,16,0);stroke-width:12.66px;"/>
    <path d="M1043.83,302.944c13.928,-2.005 28.353,-4.563 40.851,-11.593c15.324,-8.618 27.102,-22.2 41.092,-32.717c13.206,-9.928 28.528,-15.794 44.088,-20.361" style="fill:none;stroke:rgb(255,16,0);stroke-width:12.66px;"/>
    <g transform="matrix(0.445321,0,0,0.445321,289.504,2.71494)">
        <rect x="1407.53" y="506.55" width="78.25" height="170.75" style="fill:rgb(254,254,254);"/>
        <g transform="matrix(125,0,0,125,1407.53,631.55)">
            <path d="M0.025,0.214l0,-0.072l0.316,-0.433l-0.303,-0.422l-0,-0.073l0.551,0l-0,0.083l-0.432,0l0.292,0.412l-0.311,0.423l0.463,0l-0,0.082l-0.576,0Z" style="fill:rgb(255,16,0);fill-rule:nonzero;"/>
        </g>
    </g>
    <path d="M889.741,234.934l-45.765,-34.492" style="fill:none;stroke:rgb(255,16,0);stroke-width:12.66px;"/>
    <path d="M879.017,253.284l-48.711,-10.307" style="fill:none;stroke:rgb(255,16,0);stroke-width:12.66px;"/>
    <path d="M902.851,222.109l-33.821,-39.993" style="fill:none;stroke:rgb(255,16,0);stroke-width:12.66px;"/>
    <path d="M875.388,271.426l-48.492,2.566" style="fill:none;stroke:rgb(255,16,0);stroke-width:12.66px;"/>
    <path d="M881.272,292.282l-46.45,18.098" style="fill:none;stroke:rgb(255,16,0);stroke-width:12.66px;"/>
    <path d="M896.444,312.42l-36.419,28.4" style="fill:none;stroke:rgb(255,16,0);stroke-width:12.66px;"/>
    <path d="M936.091,206.729l0,-53.278" style="fill:none;stroke:rgb(255,16,0);stroke-width:12.66px;"/>
    <circle cx="935.913" cy="151.335" r="5.766" style="fill:white;fill-opacity:0;stroke:rgb(255,16,0);stroke-width:12.66px;"/>
    <path d="M961.9,125.623l3.412,0l0,13.27l0.076,-0c0.607,-0.936 1.479,-1.675 2.616,-2.218c1.137,-0.544 2.351,-0.815 3.64,-0.815c1.39,-0 2.647,0.24 3.772,0.72c1.125,0.48 2.085,1.144 2.881,1.99c0.796,0.847 1.409,1.845 1.839,2.995c0.43,1.15 0.644,2.395 0.644,3.735c0,1.339 -0.214,2.578 -0.644,3.715c-0.43,1.137 -1.043,2.136 -1.839,2.995c-0.796,0.86 -1.756,1.529 -2.881,2.01c-1.125,0.48 -2.382,0.72 -3.772,0.72c-1.214,-0 -2.395,-0.266 -3.545,-0.796c-1.15,-0.531 -2.054,-1.277 -2.711,-2.237l-0.076,-0l0,2.578l-3.412,-0l0,-28.662Zm9.327,25.932c0.909,0 1.731,-0.158 2.464,-0.474c0.733,-0.316 1.352,-0.745 1.858,-1.289c0.505,-0.543 0.897,-1.2 1.175,-1.971c0.278,-0.771 0.417,-1.611 0.417,-2.521c-0,-0.91 -0.139,-1.751 -0.417,-2.521c-0.278,-0.771 -0.67,-1.428 -1.175,-1.972c-0.506,-0.543 -1.125,-0.973 -1.858,-1.289c-0.733,-0.316 -1.555,-0.474 -2.464,-0.474c-0.91,0 -1.732,0.158 -2.465,0.474c-0.733,0.316 -1.352,0.746 -1.857,1.289c-0.506,0.544 -0.898,1.201 -1.176,1.972c-0.278,0.77 -0.417,1.611 -0.417,2.521c0,0.91 0.139,1.75 0.417,2.521c0.278,0.771 0.67,1.428 1.176,1.971c0.505,0.544 1.124,0.973 1.857,1.289c0.733,0.316 1.555,0.474 2.465,0.474Z" style="fill:rgb(255,20,4);fill-rule:nonzero;stroke:rgb(255,16,0);stroke-width:1px;stroke-linecap:butt;stroke-miterlimit:2;"/>
    <g transform="matrix(1,0,0,1,-499.88,-327.951)">
        <rect x="1390.45" y="491.106" width="17.437" height="31.381" style="fill:rgb(254,254,254);"/>
        <g transform="matrix(22.9732,0,0,22.9732,1390.45,514.079)">
            <path d="M0.011,-0.474l0.101,0l0.107,0.354l0.002,0l0.113,-0.354l0.095,0l0.12,0.354l0.002,0l0.102,-0.354l0.095,0l-0.153,0.474l-0.091,-0l-0.125,-0.354l-0.002,0l-0.113,0.354l-0.097,-0l-0.156,-0.474Z" style="fill:rgb(255,16,0);fill-rule:nonzero;"/>
        </g>
    </g>
    <g transform="matrix(1,0,0,1,-503.234,-162.396)">
        <rect x="1390.45" y="491.106" width="17.437" height="31.381" style="fill:rgb(254,254,254);"/>
        <g transform="matrix(22.9732,0,0,22.9732,1390.45,514.079)">
            <path d="M0.011,-0.474l0.101,0l0.107,0.354l0.002,0l0.113,-0.354l0.095,0l0.12,0.354l0.002,0l0.102,-0.354l0.095,0l-0.153,0.474l-0.091,-0l-0.125,-0.354l-0.002,0l-0.113,0.354l-0.097,-0l-0.156,-0.474Z" style="fill:rgb(255,16,0);fill-rule:nonzero;"/>
        </g>
    </g>
    <g transform="matrix(1,0,0,1,-517.787,-335.396)">
        <rect x="1425.21" y="517.624" width="6.002" height="14.746" style="fill:rgb(254,254,254);"/>
        <g transform="matrix(10.7953,0,0,10.7953,1425.21,528.419)">
            <path d="M0.27,-0.598l-0.13,0.12l-0.056,-0.067l0.197,-0.163l0.085,0l-0,0.708l-0.096,-0l0,-0.598Z" style="fill:rgb(255,16,0);fill-rule:nonzero;"/>
        </g>
    </g>
    <g transform="matrix(1,0,0,1,-521.141,-169.841)">
        <rect x="1425.21" y="517.624" width="6.002" height="14.746" style="fill:rgb(254,254,254);"/>
        <g transform="matrix(10.7953,0,0,10.7953,1425.21,528.419)">
            <path d="M0.22,-0.434l0.004,0c0.022,-0.011 0.048,-0.016 0.078,-0.016c0.025,0 0.051,0.004 0.077,0.013c0.026,0.009 0.049,0.022 0.071,0.04c0.02,0.019 0.038,0.042 0.051,0.071c0.013,0.028 0.02,0.061 0.02,0.1c0,0.039 -0.006,0.074 -0.019,0.104c-0.014,0.029 -0.031,0.054 -0.053,0.074c-0.022,0.02 -0.048,0.035 -0.077,0.045c-0.029,0.01 -0.061,0.015 -0.094,0.015c-0.033,0 -0.065,-0.005 -0.094,-0.016c-0.029,-0.011 -0.055,-0.026 -0.077,-0.046c-0.022,-0.02 -0.04,-0.044 -0.053,-0.072c-0.013,-0.028 -0.019,-0.059 -0.019,-0.094c-0,-0.022 0.002,-0.042 0.005,-0.06c0.003,-0.018 0.008,-0.035 0.014,-0.051c0.007,-0.017 0.014,-0.033 0.023,-0.048c0.009,-0.016 0.018,-0.033 0.029,-0.05l0.179,-0.283l0.113,0l-0.178,0.274Zm-0.089,0.215c-0,0.021 0.003,0.041 0.01,0.059c0.007,0.018 0.017,0.033 0.03,0.046c0.013,0.013 0.029,0.024 0.047,0.031c0.018,0.007 0.038,0.011 0.06,0.011c0.022,-0 0.042,-0.004 0.06,-0.011c0.018,-0.007 0.033,-0.018 0.046,-0.031c0.014,-0.013 0.024,-0.028 0.031,-0.046c0.006,-0.018 0.01,-0.038 0.01,-0.059c-0,-0.021 -0.004,-0.041 -0.011,-0.059c-0.007,-0.018 -0.017,-0.034 -0.03,-0.047c-0.013,-0.013 -0.028,-0.023 -0.046,-0.03c-0.018,-0.007 -0.038,-0.011 -0.06,-0.011c-0.022,0 -0.042,0.004 -0.06,0.011c-0.018,0.007 -0.034,0.017 -0.047,0.03c-0.013,0.013 -0.023,0.029 -0.03,0.047c-0.007,0.018 -0.01,0.038 -0.01,0.059Z" style="fill:rgb(255,16,0);fill-rule:nonzero;"/>
        </g>
    </g>
</svg>
