<?xml version="1.0" encoding="utf-8" standalone="no"?>
<!DOCTYPE svg PUBLIC "-//W3C//DTD SVG 1.1//EN"
  "http://www.w3.org/Graphics/SVG/1.1/DTD/svg11.dtd">
<svg xmlns:xlink="http://www.w3.org/1999/xlink" width="460.8pt" height="345.6pt" viewBox="0 0 460.8 345.6" xmlns="http://www.w3.org/2000/svg" version="1.1">
 <metadata>
  <rdf:RDF xmlns:dc="http://purl.org/dc/elements/1.1/" xmlns:cc="http://creativecommons.org/ns#" xmlns:rdf="http://www.w3.org/1999/02/22-rdf-syntax-ns#">
   <cc:Work>
    <dc:type rdf:resource="http://purl.org/dc/dcmitype/StillImage"/>
    <dc:date>2024-02-10T19:11:37.909617</dc:date>
    <dc:format>image/svg+xml</dc:format>
    <dc:creator>
     <cc:Agent>
      <dc:title>Matplotlib v3.5.1, https://matplotlib.org/</dc:title>
     </cc:Agent>
    </dc:creator>
   </cc:Work>
  </rdf:RDF>
 </metadata>
 <defs>
  <style type="text/css">*{stroke-linejoin: round; stroke-linecap: butt}</style>
 </defs>
 <g id="figure_1">
  <g id="patch_1">
   <path d="M 0 345.6 
L 460.8 345.6 
L 460.8 0 
L 0 0 
z
" style="fill: #ffffff"/>
  </g>
  <g id="axes_1">
   <g id="patch_2">
    <path d="M 39.94 291.976 
L 450 291.976 
L 450 26.88 
L 39.94 26.88 
z
" style="fill: #ffffff"/>
   </g>
   <g id="patch_3">
    <path d="M 58.579091 291.976 
L 61.567322 291.976 
L 61.567322 291.976 
L 58.579091 291.976 
z
" clip-path="url(#p0c7acf91ca)" style="fill: #1f77b4; opacity: 0.5"/>
   </g>
   <g id="patch_4">
    <path d="M 62.31438 291.976 
L 65.302611 291.976 
L 65.302611 291.976 
L 62.31438 291.976 
z
" clip-path="url(#p0c7acf91ca)" style="fill: #1f77b4; opacity: 0.5"/>
   </g>
   <g id="patch_5">
    <path d="M 66.049668 291.976 
L 69.037899 291.976 
L 69.037899 291.976 
L 66.049668 291.976 
z
" clip-path="url(#p0c7acf91ca)" style="fill: #1f77b4; opacity: 0.5"/>
   </g>
   <g id="patch_6">
    <path d="M 69.784957 291.976 
L 72.773188 291.976 
L 72.773188 291.976 
L 69.784957 291.976 
z
" clip-path="url(#p0c7acf91ca)" style="fill: #1f77b4; opacity: 0.5"/>
   </g>
   <g id="patch_7">
    <path d="M 73.520246 291.976 
L 76.508477 291.976 
L 76.508477 291.976 
L 73.520246 291.976 
z
" clip-path="url(#p0c7acf91ca)" style="fill: #1f77b4; opacity: 0.5"/>
   </g>
   <g id="patch_8">
    <path d="M 77.255535 291.976 
L 80.243766 291.976 
L 80.243766 291.976 
L 77.255535 291.976 
z
" clip-path="url(#p0c7acf91ca)" style="fill: #1f77b4; opacity: 0.5"/>
   </g>
   <g id="patch_9">
    <path d="M 80.990823 291.976 
L 83.979054 291.976 
L 83.979054 291.976 
L 80.990823 291.976 
z
" clip-path="url(#p0c7acf91ca)" style="fill: #1f77b4; opacity: 0.5"/>
   </g>
   <g id="patch_10">
    <path d="M 84.726112 291.976 
L 87.714343 291.976 
L 87.714343 291.976 
L 84.726112 291.976 
z
" clip-path="url(#p0c7acf91ca)" style="fill: #1f77b4; opacity: 0.5"/>
   </g>
   <g id="patch_11">
    <path d="M 88.461401 291.976 
L 91.449632 291.976 
L 91.449632 291.976 
L 88.461401 291.976 
z
" clip-path="url(#p0c7acf91ca)" style="fill: #1f77b4; opacity: 0.5"/>
   </g>
   <g id="patch_12">
    <path d="M 92.19669 291.976 
L 95.184921 291.976 
L 95.184921 291.976 
L 92.19669 291.976 
z
" clip-path="url(#p0c7acf91ca)" style="fill: #1f77b4; opacity: 0.5"/>
   </g>
   <g id="patch_13">
    <path d="M 95.931979 291.976 
L 98.92021 291.976 
L 98.92021 291.976 
L 95.931979 291.976 
z
" clip-path="url(#p0c7acf91ca)" style="fill: #1f77b4; opacity: 0.5"/>
   </g>
   <g id="patch_14">
    <path d="M 99.667267 291.976 
L 102.655498 291.976 
L 102.655498 291.976 
L 99.667267 291.976 
z
" clip-path="url(#p0c7acf91ca)" style="fill: #1f77b4; opacity: 0.5"/>
   </g>
   <g id="patch_15">
    <path d="M 103.402556 291.976 
L 106.390787 291.976 
L 106.390787 291.976 
L 103.402556 291.976 
z
" clip-path="url(#p0c7acf91ca)" style="fill: #1f77b4; opacity: 0.5"/>
   </g>
   <g id="patch_16">
    <path d="M 107.137845 291.976 
L 110.126076 291.976 
L 110.126076 291.976 
L 107.137845 291.976 
z
" clip-path="url(#p0c7acf91ca)" style="fill: #1f77b4; opacity: 0.5"/>
   </g>
   <g id="patch_17">
    <path d="M 110.873134 291.976 
L 113.861365 291.976 
L 113.861365 291.976 
L 110.873134 291.976 
z
" clip-path="url(#p0c7acf91ca)" style="fill: #1f77b4; opacity: 0.5"/>
   </g>
   <g id="patch_18">
    <path d="M 114.608422 291.976 
L 117.596653 291.976 
L 117.596653 291.976 
L 114.608422 291.976 
z
" clip-path="url(#p0c7acf91ca)" style="fill: #1f77b4; opacity: 0.5"/>
   </g>
   <g id="patch_19">
    <path d="M 118.343711 291.976 
L 121.331942 291.976 
L 121.331942 291.976 
L 118.343711 291.976 
z
" clip-path="url(#p0c7acf91ca)" style="fill: #1f77b4; opacity: 0.5"/>
   </g>
   <g id="patch_20">
    <path d="M 122.079 291.976 
L 125.067231 291.976 
L 125.067231 291.976 
L 122.079 291.976 
z
" clip-path="url(#p0c7acf91ca)" style="fill: #1f77b4; opacity: 0.5"/>
   </g>
   <g id="patch_21">
    <path d="M 125.814289 291.976 
L 128.80252 291.976 
L 128.80252 291.976 
L 125.814289 291.976 
z
" clip-path="url(#p0c7acf91ca)" style="fill: #1f77b4; opacity: 0.5"/>
   </g>
   <g id="patch_22">
    <path d="M 129.549577 291.976 
L 132.537808 291.976 
L 132.537808 291.976 
L 129.549577 291.976 
z
" clip-path="url(#p0c7acf91ca)" style="fill: #1f77b4; opacity: 0.5"/>
   </g>
   <g id="patch_23">
    <path d="M 133.284866 291.976 
L 136.273097 291.976 
L 136.273097 291.976 
L 133.284866 291.976 
z
" clip-path="url(#p0c7acf91ca)" style="fill: #1f77b4; opacity: 0.5"/>
   </g>
   <g id="patch_24">
    <path d="M 137.020155 291.976 
L 140.008386 291.976 
L 140.008386 291.975999 
L 137.020155 291.975999 
z
" clip-path="url(#p0c7acf91ca)" style="fill: #1f77b4; opacity: 0.5"/>
   </g>
   <g id="patch_25">
    <path d="M 140.755444 291.976 
L 143.743675 291.976 
L 143.743675 291.975997 
L 140.755444 291.975997 
z
" clip-path="url(#p0c7acf91ca)" style="fill: #1f77b4; opacity: 0.5"/>
   </g>
   <g id="patch_26">
    <path d="M 144.490732 291.976 
L 147.478963 291.976 
L 147.478963 291.975988 
L 144.490732 291.975988 
z
" clip-path="url(#p0c7acf91ca)" style="fill: #1f77b4; opacity: 0.5"/>
   </g>
   <g id="patch_27">
    <path d="M 148.226021 291.976 
L 151.214252 291.976 
L 151.214252 291.975956 
L 148.226021 291.975956 
z
" clip-path="url(#p0c7acf91ca)" style="fill: #1f77b4; opacity: 0.5"/>
   </g>
   <g id="patch_28">
    <path d="M 151.96131 291.976 
L 154.949541 291.976 
L 154.949541 291.975849 
L 151.96131 291.975849 
z
" clip-path="url(#p0c7acf91ca)" style="fill: #1f77b4; opacity: 0.5"/>
   </g>
   <g id="patch_29">
    <path d="M 155.696599 291.976 
L 158.68483 291.976 
L 158.68483 291.975513 
L 155.696599 291.975513 
z
" clip-path="url(#p0c7acf91ca)" style="fill: #1f77b4; opacity: 0.5"/>
   </g>
   <g id="patch_30">
    <path d="M 159.431887 291.976 
L 162.420118 291.976 
L 162.420118 291.974518 
L 159.431887 291.974518 
z
" clip-path="url(#p0c7acf91ca)" style="fill: #1f77b4; opacity: 0.5"/>
   </g>
   <g id="patch_31">
    <path d="M 163.167176 291.976 
L 166.155407 291.976 
L 166.155407 291.97173 
L 163.167176 291.97173 
z
" clip-path="url(#p0c7acf91ca)" style="fill: #1f77b4; opacity: 0.5"/>
   </g>
   <g id="patch_32">
    <path d="M 166.902465 291.976 
L 169.890696 291.976 
L 169.890696 291.964335 
L 166.902465 291.964335 
z
" clip-path="url(#p0c7acf91ca)" style="fill: #1f77b4; opacity: 0.5"/>
   </g>
   <g id="patch_33">
    <path d="M 170.637754 291.976 
L 173.625985 291.976 
L 173.625985 291.945761 
L 170.637754 291.945761 
z
" clip-path="url(#p0c7acf91ca)" style="fill: #1f77b4; opacity: 0.5"/>
   </g>
   <g id="patch_34">
    <path d="M 174.373042 291.976 
L 177.361273 291.976 
L 177.361273 291.901541 
L 174.373042 291.901541 
z
" clip-path="url(#p0c7acf91ca)" style="fill: #1f77b4; opacity: 0.5"/>
   </g>
   <g id="patch_35">
    <path d="M 178.108331 291.976 
L 181.096562 291.976 
L 181.096562 291.801697 
L 178.108331 291.801697 
z
" clip-path="url(#p0c7acf91ca)" style="fill: #1f77b4; opacity: 0.5"/>
   </g>
   <g id="patch_36">
    <path d="M 181.84362 291.976 
L 184.831851 291.976 
L 184.831851 291.587797 
L 181.84362 291.587797 
z
" clip-path="url(#p0c7acf91ca)" style="fill: #1f77b4; opacity: 0.5"/>
   </g>
   <g id="patch_37">
    <path d="M 185.578909 291.976 
L 188.56714 291.976 
L 188.56714 291.152844 
L 185.578909 291.152844 
z
" clip-path="url(#p0c7acf91ca)" style="fill: #1f77b4; opacity: 0.5"/>
   </g>
   <g id="patch_38">
    <path d="M 189.314197 291.976 
L 192.302428 291.976 
L 192.302428 290.313145 
L 189.314197 290.313145 
z
" clip-path="url(#p0c7acf91ca)" style="fill: #1f77b4; opacity: 0.5"/>
   </g>
   <g id="patch_39">
    <path d="M 193.049486 291.976 
L 196.037717 291.976 
L 196.037717 288.773923 
L 193.049486 288.773923 
z
" clip-path="url(#p0c7acf91ca)" style="fill: #1f77b4; opacity: 0.5"/>
   </g>
   <g id="patch_40">
    <path d="M 196.784775 291.976 
L 199.773006 291.976 
L 199.773006 286.095062 
L 196.784775 286.095062 
z
" clip-path="url(#p0c7acf91ca)" style="fill: #1f77b4; opacity: 0.5"/>
   </g>
   <g id="patch_41">
    <path d="M 200.520064 291.976 
L 203.508295 291.976 
L 203.508295 281.669519 
L 200.520064 281.669519 
z
" clip-path="url(#p0c7acf91ca)" style="fill: #1f77b4; opacity: 0.5"/>
   </g>
   <g id="patch_42">
    <path d="M 204.255353 291.976 
L 207.243584 291.976 
L 207.243584 274.732915 
L 204.255353 274.732915 
z
" clip-path="url(#p0c7acf91ca)" style="fill: #1f77b4; opacity: 0.5"/>
   </g>
   <g id="patch_43">
    <path d="M 207.990641 291.976 
L 210.978872 291.976 
L 210.978872 264.425274 
L 207.990641 264.425274 
z
" clip-path="url(#p0c7acf91ca)" style="fill: #1f77b4; opacity: 0.5"/>
   </g>
   <g id="patch_44">
    <path d="M 211.72593 291.976 
L 214.714161 291.976 
L 214.714161 249.920801 
L 211.72593 249.920801 
z
" clip-path="url(#p0c7acf91ca)" style="fill: #1f77b4; opacity: 0.5"/>
   </g>
   <g id="patch_45">
    <path d="M 215.461219 291.976 
L 218.44945 291.976 
L 218.44945 230.626246 
L 215.461219 230.626246 
z
" clip-path="url(#p0c7acf91ca)" style="fill: #1f77b4; opacity: 0.5"/>
   </g>
   <g id="patch_46">
    <path d="M 219.196508 291.976 
L 222.184739 291.976 
L 222.184739 206.423222 
L 219.196508 206.423222 
z
" clip-path="url(#p0c7acf91ca)" style="fill: #1f77b4; opacity: 0.5"/>
   </g>
   <g id="patch_47">
    <path d="M 222.931796 291.976 
L 225.920027 291.976 
L 225.920027 177.90125 
L 222.931796 177.90125 
z
" clip-path="url(#p0c7acf91ca)" style="fill: #1f77b4; opacity: 0.5"/>
   </g>
   <g id="patch_48">
    <path d="M 226.667085 291.976 
L 229.655316 291.976 
L 229.655316 146.507195 
L 226.667085 146.507195 
z
" clip-path="url(#p0c7acf91ca)" style="fill: #1f77b4; opacity: 0.5"/>
   </g>
   <g id="patch_49">
    <path d="M 230.402374 291.976 
L 233.390605 291.976 
L 233.390605 114.536107 
L 230.402374 114.536107 
z
" clip-path="url(#p0c7acf91ca)" style="fill: #1f77b4; opacity: 0.5"/>
   </g>
   <g id="patch_50">
    <path d="M 234.137663 291.976 
L 237.125894 291.976 
L 237.125894 84.916339 
L 234.137663 84.916339 
z
" clip-path="url(#p0c7acf91ca)" style="fill: #1f77b4; opacity: 0.5"/>
   </g>
   <g id="patch_51">
    <path d="M 237.872951 291.976 
L 240.861182 291.976 
L 240.861182 60.795969 
L 237.872951 60.795969 
z
" clip-path="url(#p0c7acf91ca)" style="fill: #1f77b4; opacity: 0.5"/>
   </g>
   <g id="patch_52">
    <path d="M 241.60824 291.976 
L 244.596471 291.976 
L 244.596471 45.002887 
L 241.60824 45.002887 
z
" clip-path="url(#p0c7acf91ca)" style="fill: #1f77b4; opacity: 0.5"/>
   </g>
   <g id="patch_53">
    <path d="M 245.343529 291.976 
L 248.33176 291.976 
L 248.33176 39.503619 
L 245.343529 39.503619 
z
" clip-path="url(#p0c7acf91ca)" style="fill: #1f77b4; opacity: 0.5"/>
   </g>
   <g id="patch_54">
    <path d="M 249.078818 291.976 
L 252.067049 291.976 
L 252.067049 45.002887 
L 249.078818 45.002887 
z
" clip-path="url(#p0c7acf91ca)" style="fill: #1f77b4; opacity: 0.5"/>
   </g>
   <g id="patch_55">
    <path d="M 252.814106 291.976 
L 255.802337 291.976 
L 255.802337 60.795969 
L 252.814106 60.795969 
z
" clip-path="url(#p0c7acf91ca)" style="fill: #1f77b4; opacity: 0.5"/>
   </g>
   <g id="patch_56">
    <path d="M 256.549395 291.976 
L 259.537626 291.976 
L 259.537626 84.916339 
L 256.549395 84.916339 
z
" clip-path="url(#p0c7acf91ca)" style="fill: #1f77b4; opacity: 0.5"/>
   </g>
   <g id="patch_57">
    <path d="M 260.284684 291.976 
L 263.272915 291.976 
L 263.272915 114.536107 
L 260.284684 114.536107 
z
" clip-path="url(#p0c7acf91ca)" style="fill: #1f77b4; opacity: 0.5"/>
   </g>
   <g id="patch_58">
    <path d="M 264.019973 291.976 
L 267.008204 291.976 
L 267.008204 146.507195 
L 264.019973 146.507195 
z
" clip-path="url(#p0c7acf91ca)" style="fill: #1f77b4; opacity: 0.5"/>
   </g>
   <g id="patch_59">
    <path d="M 267.755261 291.976 
L 270.743492 291.976 
L 270.743492 177.90125 
L 267.755261 177.90125 
z
" clip-path="url(#p0c7acf91ca)" style="fill: #1f77b4; opacity: 0.5"/>
   </g>
   <g id="patch_60">
    <path d="M 271.49055 291.976 
L 274.478781 291.976 
L 274.478781 206.423222 
L 271.49055 206.423222 
z
" clip-path="url(#p0c7acf91ca)" style="fill: #1f77b4; opacity: 0.5"/>
   </g>
   <g id="patch_61">
    <path d="M 275.225839 291.976 
L 278.21407 291.976 
L 278.21407 230.626246 
L 275.225839 230.626246 
z
" clip-path="url(#p0c7acf91ca)" style="fill: #1f77b4; opacity: 0.5"/>
   </g>
   <g id="patch_62">
    <path d="M 278.961128 291.976 
L 281.949359 291.976 
L 281.949359 249.920801 
L 278.961128 249.920801 
z
" clip-path="url(#p0c7acf91ca)" style="fill: #1f77b4; opacity: 0.5"/>
   </g>
   <g id="patch_63">
    <path d="M 282.696416 291.976 
L 285.684647 291.976 
L 285.684647 264.425274 
L 282.696416 264.425274 
z
" clip-path="url(#p0c7acf91ca)" style="fill: #1f77b4; opacity: 0.5"/>
   </g>
   <g id="patch_64">
    <path d="M 286.431705 291.976 
L 289.419936 291.976 
L 289.419936 274.732915 
L 286.431705 274.732915 
z
" clip-path="url(#p0c7acf91ca)" style="fill: #1f77b4; opacity: 0.5"/>
   </g>
   <g id="patch_65">
    <path d="M 290.166994 291.976 
L 293.155225 291.976 
L 293.155225 281.669519 
L 290.166994 281.669519 
z
" clip-path="url(#p0c7acf91ca)" style="fill: #1f77b4; opacity: 0.5"/>
   </g>
   <g id="patch_66">
    <path d="M 293.902283 291.976 
L 296.890514 291.976 
L 296.890514 286.095062 
L 293.902283 286.095062 
z
" clip-path="url(#p0c7acf91ca)" style="fill: #1f77b4; opacity: 0.5"/>
   </g>
   <g id="patch_67">
    <path d="M 297.637572 291.976 
L 300.625803 291.976 
L 300.625803 288.773923 
L 297.637572 288.773923 
z
" clip-path="url(#p0c7acf91ca)" style="fill: #1f77b4; opacity: 0.5"/>
   </g>
   <g id="patch_68">
    <path d="M 301.37286 291.976 
L 304.361091 291.976 
L 304.361091 290.313145 
L 301.37286 290.313145 
z
" clip-path="url(#p0c7acf91ca)" style="fill: #1f77b4; opacity: 0.5"/>
   </g>
   <g id="patch_69">
    <path d="M 305.108149 291.976 
L 308.09638 291.976 
L 308.09638 291.152844 
L 305.108149 291.152844 
z
" clip-path="url(#p0c7acf91ca)" style="fill: #1f77b4; opacity: 0.5"/>
   </g>
   <g id="patch_70">
    <path d="M 308.843438 291.976 
L 311.831669 291.976 
L 311.831669 291.587797 
L 308.843438 291.587797 
z
" clip-path="url(#p0c7acf91ca)" style="fill: #1f77b4; opacity: 0.5"/>
   </g>
   <g id="patch_71">
    <path d="M 312.578727 291.976 
L 315.566958 291.976 
L 315.566958 291.801697 
L 312.578727 291.801697 
z
" clip-path="url(#p0c7acf91ca)" style="fill: #1f77b4; opacity: 0.5"/>
   </g>
   <g id="patch_72">
    <path d="M 316.314015 291.976 
L 319.302246 291.976 
L 319.302246 291.901541 
L 316.314015 291.901541 
z
" clip-path="url(#p0c7acf91ca)" style="fill: #1f77b4; opacity: 0.5"/>
   </g>
   <g id="patch_73">
    <path d="M 320.049304 291.976 
L 323.037535 291.976 
L 323.037535 291.945761 
L 320.049304 291.945761 
z
" clip-path="url(#p0c7acf91ca)" style="fill: #1f77b4; opacity: 0.5"/>
   </g>
   <g id="patch_74">
    <path d="M 323.784593 291.976 
L 326.772824 291.976 
L 326.772824 291.964335 
L 323.784593 291.964335 
z
" clip-path="url(#p0c7acf91ca)" style="fill: #1f77b4; opacity: 0.5"/>
   </g>
   <g id="patch_75">
    <path d="M 327.519882 291.976 
L 330.508113 291.976 
L 330.508113 291.97173 
L 327.519882 291.97173 
z
" clip-path="url(#p0c7acf91ca)" style="fill: #1f77b4; opacity: 0.5"/>
   </g>
   <g id="patch_76">
    <path d="M 331.25517 291.976 
L 334.243401 291.976 
L 334.243401 291.974518 
L 331.25517 291.974518 
z
" clip-path="url(#p0c7acf91ca)" style="fill: #1f77b4; opacity: 0.5"/>
   </g>
   <g id="patch_77">
    <path d="M 334.990459 291.976 
L 337.97869 291.976 
L 337.97869 291.975513 
L 334.990459 291.975513 
z
" clip-path="url(#p0c7acf91ca)" style="fill: #1f77b4; opacity: 0.5"/>
   </g>
   <g id="patch_78">
    <path d="M 338.725748 291.976 
L 341.713979 291.976 
L 341.713979 291.975849 
L 338.725748 291.975849 
z
" clip-path="url(#p0c7acf91ca)" style="fill: #1f77b4; opacity: 0.5"/>
   </g>
   <g id="patch_79">
    <path d="M 342.461037 291.976 
L 345.449268 291.976 
L 345.449268 291.975956 
L 342.461037 291.975956 
z
" clip-path="url(#p0c7acf91ca)" style="fill: #1f77b4; opacity: 0.5"/>
   </g>
   <g id="patch_80">
    <path d="M 346.196325 291.976 
L 349.184556 291.976 
L 349.184556 291.975988 
L 346.196325 291.975988 
z
" clip-path="url(#p0c7acf91ca)" style="fill: #1f77b4; opacity: 0.5"/>
   </g>
   <g id="patch_81">
    <path d="M 349.931614 291.976 
L 352.919845 291.976 
L 352.919845 291.975997 
L 349.931614 291.975997 
z
" clip-path="url(#p0c7acf91ca)" style="fill: #1f77b4; opacity: 0.5"/>
   </g>
   <g id="patch_82">
    <path d="M 353.666903 291.976 
L 356.655134 291.976 
L 356.655134 291.975999 
L 353.666903 291.975999 
z
" clip-path="url(#p0c7acf91ca)" style="fill: #1f77b4; opacity: 0.5"/>
   </g>
   <g id="patch_83">
    <path d="M 357.402192 291.976 
L 360.390423 291.976 
L 360.390423 291.976 
L 357.402192 291.976 
z
" clip-path="url(#p0c7acf91ca)" style="fill: #1f77b4; opacity: 0.5"/>
   </g>
   <g id="patch_84">
    <path d="M 361.13748 291.976 
L 364.125711 291.976 
L 364.125711 291.976 
L 361.13748 291.976 
z
" clip-path="url(#p0c7acf91ca)" style="fill: #1f77b4; opacity: 0.5"/>
   </g>
   <g id="patch_85">
    <path d="M 364.872769 291.976 
L 367.861 291.976 
L 367.861 291.976 
L 364.872769 291.976 
z
" clip-path="url(#p0c7acf91ca)" style="fill: #1f77b4; opacity: 0.5"/>
   </g>
   <g id="patch_86">
    <path d="M 368.608058 291.976 
L 371.596289 291.976 
L 371.596289 291.976 
L 368.608058 291.976 
z
" clip-path="url(#p0c7acf91ca)" style="fill: #1f77b4; opacity: 0.5"/>
   </g>
   <g id="patch_87">
    <path d="M 372.343347 291.976 
L 375.331578 291.976 
L 375.331578 291.976 
L 372.343347 291.976 
z
" clip-path="url(#p0c7acf91ca)" style="fill: #1f77b4; opacity: 0.5"/>
   </g>
   <g id="patch_88">
    <path d="M 376.078635 291.976 
L 379.066866 291.976 
L 379.066866 291.976 
L 376.078635 291.976 
z
" clip-path="url(#p0c7acf91ca)" style="fill: #1f77b4; opacity: 0.5"/>
   </g>
   <g id="patch_89">
    <path d="M 379.813924 291.976 
L 382.802155 291.976 
L 382.802155 291.976 
L 379.813924 291.976 
z
" clip-path="url(#p0c7acf91ca)" style="fill: #1f77b4; opacity: 0.5"/>
   </g>
   <g id="patch_90">
    <path d="M 383.549213 291.976 
L 386.537444 291.976 
L 386.537444 291.976 
L 383.549213 291.976 
z
" clip-path="url(#p0c7acf91ca)" style="fill: #1f77b4; opacity: 0.5"/>
   </g>
   <g id="patch_91">
    <path d="M 387.284502 291.976 
L 390.272733 291.976 
L 390.272733 291.976 
L 387.284502 291.976 
z
" clip-path="url(#p0c7acf91ca)" style="fill: #1f77b4; opacity: 0.5"/>
   </g>
   <g id="patch_92">
    <path d="M 391.01979 291.976 
L 394.008021 291.976 
L 394.008021 291.976 
L 391.01979 291.976 
z
" clip-path="url(#p0c7acf91ca)" style="fill: #1f77b4; opacity: 0.5"/>
   </g>
   <g id="patch_93">
    <path d="M 394.755079 291.976 
L 397.74331 291.976 
L 397.74331 291.976 
L 394.755079 291.976 
z
" clip-path="url(#p0c7acf91ca)" style="fill: #1f77b4; opacity: 0.5"/>
   </g>
   <g id="patch_94">
    <path d="M 398.490368 291.976 
L 401.478599 291.976 
L 401.478599 291.976 
L 398.490368 291.976 
z
" clip-path="url(#p0c7acf91ca)" style="fill: #1f77b4; opacity: 0.5"/>
   </g>
   <g id="patch_95">
    <path d="M 402.225657 291.976 
L 405.213888 291.976 
L 405.213888 291.976 
L 402.225657 291.976 
z
" clip-path="url(#p0c7acf91ca)" style="fill: #1f77b4; opacity: 0.5"/>
   </g>
   <g id="patch_96">
    <path d="M 405.960946 291.976 
L 408.949177 291.976 
L 408.949177 291.976 
L 405.960946 291.976 
z
" clip-path="url(#p0c7acf91ca)" style="fill: #1f77b4; opacity: 0.5"/>
   </g>
   <g id="patch_97">
    <path d="M 409.696234 291.976 
L 412.684465 291.976 
L 412.684465 291.976 
L 409.696234 291.976 
z
" clip-path="url(#p0c7acf91ca)" style="fill: #1f77b4; opacity: 0.5"/>
   </g>
   <g id="patch_98">
    <path d="M 413.431523 291.976 
L 416.419754 291.976 
L 416.419754 291.976 
L 413.431523 291.976 
z
" clip-path="url(#p0c7acf91ca)" style="fill: #1f77b4; opacity: 0.5"/>
   </g>
   <g id="patch_99">
    <path d="M 417.166812 291.976 
L 420.155043 291.976 
L 420.155043 291.976 
L 417.166812 291.976 
z
" clip-path="url(#p0c7acf91ca)" style="fill: #1f77b4; opacity: 0.5"/>
   </g>
   <g id="patch_100">
    <path d="M 420.902101 291.976 
L 423.890332 291.976 
L 423.890332 291.976 
L 420.902101 291.976 
z
" clip-path="url(#p0c7acf91ca)" style="fill: #1f77b4; opacity: 0.5"/>
   </g>
   <g id="patch_101">
    <path d="M 424.637389 291.976 
L 427.62562 291.976 
L 427.62562 291.976 
L 424.637389 291.976 
z
" clip-path="url(#p0c7acf91ca)" style="fill: #1f77b4; opacity: 0.5"/>
   </g>
   <g id="patch_102">
    <path d="M 428.372678 291.976 
L 431.360909 291.976 
L 431.360909 291.976 
L 428.372678 291.976 
z
" clip-path="url(#p0c7acf91ca)" style="fill: #1f77b4; opacity: 0.5"/>
   </g>
   <g id="patch_103">
    <path d="M 58.579091 291.976 
L 61.567322 291.976 
L 61.567322 291.976 
L 58.579091 291.976 
z
" clip-path="url(#p0c7acf91ca)" style="fill: #ff7f0e; opacity: 0.5"/>
   </g>
   <g id="patch_104">
    <path d="M 62.31438 291.976 
L 65.302611 291.976 
L 65.302611 291.976 
L 62.31438 291.976 
z
" clip-path="url(#p0c7acf91ca)" style="fill: #ff7f0e; opacity: 0.5"/>
   </g>
   <g id="patch_105">
    <path d="M 66.049668 291.976 
L 69.037899 291.976 
L 69.037899 291.976 
L 66.049668 291.976 
z
" clip-path="url(#p0c7acf91ca)" style="fill: #ff7f0e; opacity: 0.5"/>
   </g>
   <g id="patch_106">
    <path d="M 69.784957 291.976 
L 72.773188 291.976 
L 72.773188 291.976 
L 69.784957 291.976 
z
" clip-path="url(#p0c7acf91ca)" style="fill: #ff7f0e; opacity: 0.5"/>
   </g>
   <g id="patch_107">
    <path d="M 73.520246 291.976 
L 76.508477 291.976 
L 76.508477 291.976 
L 73.520246 291.976 
z
" clip-path="url(#p0c7acf91ca)" style="fill: #ff7f0e; opacity: 0.5"/>
   </g>
   <g id="patch_108">
    <path d="M 77.255535 291.976 
L 80.243766 291.976 
L 80.243766 291.976 
L 77.255535 291.976 
z
" clip-path="url(#p0c7acf91ca)" style="fill: #ff7f0e; opacity: 0.5"/>
   </g>
   <g id="patch_109">
    <path d="M 80.990823 291.976 
L 83.979054 291.976 
L 83.979054 291.976 
L 80.990823 291.976 
z
" clip-path="url(#p0c7acf91ca)" style="fill: #ff7f0e; opacity: 0.5"/>
   </g>
   <g id="patch_110">
    <path d="M 84.726112 291.976 
L 87.714343 291.976 
L 87.714343 291.976 
L 84.726112 291.976 
z
" clip-path="url(#p0c7acf91ca)" style="fill: #ff7f0e; opacity: 0.5"/>
   </g>
   <g id="patch_111">
    <path d="M 88.461401 291.976 
L 91.449632 291.976 
L 91.449632 291.976 
L 88.461401 291.976 
z
" clip-path="url(#p0c7acf91ca)" style="fill: #ff7f0e; opacity: 0.5"/>
   </g>
   <g id="patch_112">
    <path d="M 92.19669 291.976 
L 95.184921 291.976 
L 95.184921 291.976 
L 92.19669 291.976 
z
" clip-path="url(#p0c7acf91ca)" style="fill: #ff7f0e; opacity: 0.5"/>
   </g>
   <g id="patch_113">
    <path d="M 95.931979 291.976 
L 98.92021 291.976 
L 98.92021 291.976 
L 95.931979 291.976 
z
" clip-path="url(#p0c7acf91ca)" style="fill: #ff7f0e; opacity: 0.5"/>
   </g>
   <g id="patch_114">
    <path d="M 99.667267 291.976 
L 102.655498 291.976 
L 102.655498 291.976 
L 99.667267 291.976 
z
" clip-path="url(#p0c7acf91ca)" style="fill: #ff7f0e; opacity: 0.5"/>
   </g>
   <g id="patch_115">
    <path d="M 103.402556 291.976 
L 106.390787 291.976 
L 106.390787 291.976 
L 103.402556 291.976 
z
" clip-path="url(#p0c7acf91ca)" style="fill: #ff7f0e; opacity: 0.5"/>
   </g>
   <g id="patch_116">
    <path d="M 107.137845 291.976 
L 110.126076 291.976 
L 110.126076 291.976 
L 107.137845 291.976 
z
" clip-path="url(#p0c7acf91ca)" style="fill: #ff7f0e; opacity: 0.5"/>
   </g>
   <g id="patch_117">
    <path d="M 110.873134 291.976 
L 113.861365 291.976 
L 113.861365 291.976 
L 110.873134 291.976 
z
" clip-path="url(#p0c7acf91ca)" style="fill: #ff7f0e; opacity: 0.5"/>
   </g>
   <g id="patch_118">
    <path d="M 114.608422 291.976 
L 117.596653 291.976 
L 117.596653 291.976 
L 114.608422 291.976 
z
" clip-path="url(#p0c7acf91ca)" style="fill: #ff7f0e; opacity: 0.5"/>
   </g>
   <g id="patch_119">
    <path d="M 118.343711 291.976 
L 121.331942 291.976 
L 121.331942 291.976 
L 118.343711 291.976 
z
" clip-path="url(#p0c7acf91ca)" style="fill: #ff7f0e; opacity: 0.5"/>
   </g>
   <g id="patch_120">
    <path d="M 122.079 291.976 
L 125.067231 291.976 
L 125.067231 291.976 
L 122.079 291.976 
z
" clip-path="url(#p0c7acf91ca)" style="fill: #ff7f0e; opacity: 0.5"/>
   </g>
   <g id="patch_121">
    <path d="M 125.814289 291.976 
L 128.80252 291.976 
L 128.80252 291.976 
L 125.814289 291.976 
z
" clip-path="url(#p0c7acf91ca)" style="fill: #ff7f0e; opacity: 0.5"/>
   </g>
   <g id="patch_122">
    <path d="M 129.549577 291.976 
L 132.537808 291.976 
L 132.537808 291.976 
L 129.549577 291.976 
z
" clip-path="url(#p0c7acf91ca)" style="fill: #ff7f0e; opacity: 0.5"/>
   </g>
   <g id="patch_123">
    <path d="M 133.284866 291.976 
L 136.273097 291.976 
L 136.273097 291.975999 
L 133.284866 291.975999 
z
" clip-path="url(#p0c7acf91ca)" style="fill: #ff7f0e; opacity: 0.5"/>
   </g>
   <g id="patch_124">
    <path d="M 137.020155 291.976 
L 140.008386 291.976 
L 140.008386 291.975995 
L 137.020155 291.975995 
z
" clip-path="url(#p0c7acf91ca)" style="fill: #ff7f0e; opacity: 0.5"/>
   </g>
   <g id="patch_125">
    <path d="M 140.755444 291.976 
L 143.743675 291.976 
L 143.743675 291.975983 
L 140.755444 291.975983 
z
" clip-path="url(#p0c7acf91ca)" style="fill: #ff7f0e; opacity: 0.5"/>
   </g>
   <g id="patch_126">
    <path d="M 144.490732 291.976 
L 147.478963 291.976 
L 147.478963 291.975941 
L 144.490732 291.975941 
z
" clip-path="url(#p0c7acf91ca)" style="fill: #ff7f0e; opacity: 0.5"/>
   </g>
   <g id="patch_127">
    <path d="M 148.226021 291.976 
L 151.214252 291.976 
L 151.214252 291.975811 
L 148.226021 291.975811 
z
" clip-path="url(#p0c7acf91ca)" style="fill: #ff7f0e; opacity: 0.5"/>
   </g>
   <g id="patch_128">
    <path d="M 151.96131 291.976 
L 154.949541 291.976 
L 154.949541 291.975424 
L 151.96131 291.975424 
z
" clip-path="url(#p0c7acf91ca)" style="fill: #ff7f0e; opacity: 0.5"/>
   </g>
   <g id="patch_129">
    <path d="M 155.696599 291.976 
L 158.68483 291.976 
L 158.68483 291.974339 
L 155.696599 291.974339 
z
" clip-path="url(#p0c7acf91ca)" style="fill: #ff7f0e; opacity: 0.5"/>
   </g>
   <g id="patch_130">
    <path d="M 159.431887 291.976 
L 162.420118 291.976 
L 162.420118 291.971448 
L 159.431887 291.971448 
z
" clip-path="url(#p0c7acf91ca)" style="fill: #ff7f0e; opacity: 0.5"/>
   </g>
   <g id="patch_131">
    <path d="M 163.167176 291.976 
L 166.155407 291.976 
L 166.155407 291.964132 
L 163.167176 291.964132 
z
" clip-path="url(#p0c7acf91ca)" style="fill: #ff7f0e; opacity: 0.5"/>
   </g>
   <g id="patch_132">
    <path d="M 166.902465 291.976 
L 169.890696 291.976 
L 169.890696 291.946536 
L 166.902465 291.946536 
z
" clip-path="url(#p0c7acf91ca)" style="fill: #ff7f0e; opacity: 0.5"/>
   </g>
   <g id="patch_133">
    <path d="M 170.637754 291.976 
L 173.625985 291.976 
L 173.625985 291.906268 
L 170.637754 291.906268 
z
" clip-path="url(#p0c7acf91ca)" style="fill: #ff7f0e; opacity: 0.5"/>
   </g>
   <g id="patch_134">
    <path d="M 174.373042 291.976 
L 177.361273 291.976 
L 177.361273 291.818541 
L 174.373042 291.818541 
z
" clip-path="url(#p0c7acf91ca)" style="fill: #ff7f0e; opacity: 0.5"/>
   </g>
   <g id="patch_135">
    <path d="M 178.108331 291.976 
L 181.096562 291.976 
L 181.096562 291.636478 
L 178.108331 291.636478 
z
" clip-path="url(#p0c7acf91ca)" style="fill: #ff7f0e; opacity: 0.5"/>
   </g>
   <g id="patch_136">
    <path d="M 181.84362 291.976 
L 184.831851 291.976 
L 184.831851 291.27638 
L 181.84362 291.27638 
z
" clip-path="url(#p0c7acf91ca)" style="fill: #ff7f0e; opacity: 0.5"/>
   </g>
   <g id="patch_137">
    <path d="M 185.578909 291.976 
L 188.56714 291.976 
L 188.56714 290.597337 
L 185.578909 290.597337 
z
" clip-path="url(#p0c7acf91ca)" style="fill: #ff7f0e; opacity: 0.5"/>
   </g>
   <g id="patch_138">
    <path d="M 189.314197 291.976 
L 192.302428 291.976 
L 192.302428 289.376235 
L 189.314197 289.376235 
z
" clip-path="url(#p0c7acf91ca)" style="fill: #ff7f0e; opacity: 0.5"/>
   </g>
   <g id="patch_139">
    <path d="M 193.049486 291.976 
L 196.037717 291.976 
L 196.037717 287.28198 
L 193.049486 287.28198 
z
" clip-path="url(#p0c7acf91ca)" style="fill: #ff7f0e; opacity: 0.5"/>
   </g>
   <g id="patch_140">
    <path d="M 196.784775 291.976 
L 199.773006 291.976 
L 199.773006 283.856615 
L 196.784775 283.856615 
z
" clip-path="url(#p0c7acf91ca)" style="fill: #ff7f0e; opacity: 0.5"/>
   </g>
   <g id="patch_141">
    <path d="M 200.520064 291.976 
L 203.508295 291.976 
L 203.508295 278.514914 
L 200.520064 278.514914 
z
" clip-path="url(#p0c7acf91ca)" style="fill: #ff7f0e; opacity: 0.5"/>
   </g>
   <g id="patch_142">
    <path d="M 204.255353 291.976 
L 207.243584 291.976 
L 207.243584 270.576325 
L 204.255353 270.576325 
z
" clip-path="url(#p0c7acf91ca)" style="fill: #ff7f0e; opacity: 0.5"/>
   </g>
   <g id="patch_143">
    <path d="M 207.990641 291.976 
L 210.978872 291.976 
L 210.978872 259.341496 
L 207.990641 259.341496 
z
" clip-path="url(#p0c7acf91ca)" style="fill: #ff7f0e; opacity: 0.5"/>
   </g>
   <g id="patch_144">
    <path d="M 211.72593 291.976 
L 214.714161 291.976 
L 214.714161 244.218189 
L 211.72593 244.218189 
z
" clip-path="url(#p0c7acf91ca)" style="fill: #ff7f0e; opacity: 0.5"/>
   </g>
   <g id="patch_145">
    <path d="M 215.461219 291.976 
L 218.44945 291.976 
L 218.44945 224.887646 
L 215.461219 224.887646 
z
" clip-path="url(#p0c7acf91ca)" style="fill: #ff7f0e; opacity: 0.5"/>
   </g>
   <g id="patch_146">
    <path d="M 219.196508 291.976 
L 222.184739 291.976 
L 222.184739 201.484732 
L 219.196508 201.484732 
z
" clip-path="url(#p0c7acf91ca)" style="fill: #ff7f0e; opacity: 0.5"/>
   </g>
   <g id="patch_147">
    <path d="M 222.931796 291.976 
L 225.920027 291.976 
L 225.920027 174.748675 
L 222.931796 174.748675 
z
" clip-path="url(#p0c7acf91ca)" style="fill: #ff7f0e; opacity: 0.5"/>
   </g>
   <g id="patch_148">
    <path d="M 226.667085 291.976 
L 229.655316 291.976 
L 229.655316 146.093107 
L 226.667085 146.093107 
z
" clip-path="url(#p0c7acf91ca)" style="fill: #ff7f0e; opacity: 0.5"/>
   </g>
   <g id="patch_149">
    <path d="M 230.402374 291.976 
L 233.390605 291.976 
L 233.390605 117.550802 
L 230.402374 117.550802 
z
" clip-path="url(#p0c7acf91ca)" style="fill: #ff7f0e; opacity: 0.5"/>
   </g>
   <g id="patch_150">
    <path d="M 234.137663 291.976 
L 237.125894 291.976 
L 237.125894 91.572581 
L 234.137663 91.572581 
z
" clip-path="url(#p0c7acf91ca)" style="fill: #ff7f0e; opacity: 0.5"/>
   </g>
   <g id="patch_151">
    <path d="M 237.872951 291.976 
L 240.861182 291.976 
L 240.861182 70.697225 
L 237.872951 70.697225 
z
" clip-path="url(#p0c7acf91ca)" style="fill: #ff7f0e; opacity: 0.5"/>
   </g>
   <g id="patch_152">
    <path d="M 241.60824 291.976 
L 244.596471 291.976 
L 244.596471 57.149545 
L 241.60824 57.149545 
z
" clip-path="url(#p0c7acf91ca)" style="fill: #ff7f0e; opacity: 0.5"/>
   </g>
   <g id="patch_153">
    <path d="M 245.343529 291.976 
L 248.33176 291.976 
L 248.33176 52.453016 
L 245.343529 52.453016 
z
" clip-path="url(#p0c7acf91ca)" style="fill: #ff7f0e; opacity: 0.5"/>
   </g>
   <g id="patch_154">
    <path d="M 249.078818 291.976 
L 252.067049 291.976 
L 252.067049 57.149545 
L 249.078818 57.149545 
z
" clip-path="url(#p0c7acf91ca)" style="fill: #ff7f0e; opacity: 0.5"/>
   </g>
   <g id="patch_155">
    <path d="M 252.814106 291.976 
L 255.802337 291.976 
L 255.802337 70.697225 
L 252.814106 70.697225 
z
" clip-path="url(#p0c7acf91ca)" style="fill: #ff7f0e; opacity: 0.5"/>
   </g>
   <g id="patch_156">
    <path d="M 256.549395 291.976 
L 259.537626 291.976 
L 259.537626 91.572581 
L 256.549395 91.572581 
z
" clip-path="url(#p0c7acf91ca)" style="fill: #ff7f0e; opacity: 0.5"/>
   </g>
   <g id="patch_157">
    <path d="M 260.284684 291.976 
L 263.272915 291.976 
L 263.272915 117.550802 
L 260.284684 117.550802 
z
" clip-path="url(#p0c7acf91ca)" style="fill: #ff7f0e; opacity: 0.5"/>
   </g>
   <g id="patch_158">
    <path d="M 264.019973 291.976 
L 267.008204 291.976 
L 267.008204 146.093107 
L 264.019973 146.093107 
z
" clip-path="url(#p0c7acf91ca)" style="fill: #ff7f0e; opacity: 0.5"/>
   </g>
   <g id="patch_159">
    <path d="M 267.755261 291.976 
L 270.743492 291.976 
L 270.743492 174.748675 
L 267.755261 174.748675 
z
" clip-path="url(#p0c7acf91ca)" style="fill: #ff7f0e; opacity: 0.5"/>
   </g>
   <g id="patch_160">
    <path d="M 271.49055 291.976 
L 274.478781 291.976 
L 274.478781 201.484732 
L 271.49055 201.484732 
z
" clip-path="url(#p0c7acf91ca)" style="fill: #ff7f0e; opacity: 0.5"/>
   </g>
   <g id="patch_161">
    <path d="M 275.225839 291.976 
L 278.21407 291.976 
L 278.21407 224.887646 
L 275.225839 224.887646 
z
" clip-path="url(#p0c7acf91ca)" style="fill: #ff7f0e; opacity: 0.5"/>
   </g>
   <g id="patch_162">
    <path d="M 278.961128 291.976 
L 281.949359 291.976 
L 281.949359 244.218189 
L 278.961128 244.218189 
z
" clip-path="url(#p0c7acf91ca)" style="fill: #ff7f0e; opacity: 0.5"/>
   </g>
   <g id="patch_163">
    <path d="M 282.696416 291.976 
L 285.684647 291.976 
L 285.684647 259.341496 
L 282.696416 259.341496 
z
" clip-path="url(#p0c7acf91ca)" style="fill: #ff7f0e; opacity: 0.5"/>
   </g>
   <g id="patch_164">
    <path d="M 286.431705 291.976 
L 289.419936 291.976 
L 289.419936 270.576325 
L 286.431705 270.576325 
z
" clip-path="url(#p0c7acf91ca)" style="fill: #ff7f0e; opacity: 0.5"/>
   </g>
   <g id="patch_165">
    <path d="M 290.166994 291.976 
L 293.155225 291.976 
L 293.155225 278.514914 
L 290.166994 278.514914 
z
" clip-path="url(#p0c7acf91ca)" style="fill: #ff7f0e; opacity: 0.5"/>
   </g>
   <g id="patch_166">
    <path d="M 293.902283 291.976 
L 296.890514 291.976 
L 296.890514 283.856615 
L 293.902283 283.856615 
z
" clip-path="url(#p0c7acf91ca)" style="fill: #ff7f0e; opacity: 0.5"/>
   </g>
   <g id="patch_167">
    <path d="M 297.637572 291.976 
L 300.625803 291.976 
L 300.625803 287.28198 
L 297.637572 287.28198 
z
" clip-path="url(#p0c7acf91ca)" style="fill: #ff7f0e; opacity: 0.5"/>
   </g>
   <g id="patch_168">
    <path d="M 301.37286 291.976 
L 304.361091 291.976 
L 304.361091 289.376235 
L 301.37286 289.376235 
z
" clip-path="url(#p0c7acf91ca)" style="fill: #ff7f0e; opacity: 0.5"/>
   </g>
   <g id="patch_169">
    <path d="M 305.108149 291.976 
L 308.09638 291.976 
L 308.09638 290.597337 
L 305.108149 290.597337 
z
" clip-path="url(#p0c7acf91ca)" style="fill: #ff7f0e; opacity: 0.5"/>
   </g>
   <g id="patch_170">
    <path d="M 308.843438 291.976 
L 311.831669 291.976 
L 311.831669 291.27638 
L 308.843438 291.27638 
z
" clip-path="url(#p0c7acf91ca)" style="fill: #ff7f0e; opacity: 0.5"/>
   </g>
   <g id="patch_171">
    <path d="M 312.578727 291.976 
L 315.566958 291.976 
L 315.566958 291.636478 
L 312.578727 291.636478 
z
" clip-path="url(#p0c7acf91ca)" style="fill: #ff7f0e; opacity: 0.5"/>
   </g>
   <g id="patch_172">
    <path d="M 316.314015 291.976 
L 319.302246 291.976 
L 319.302246 291.818541 
L 316.314015 291.818541 
z
" clip-path="url(#p0c7acf91ca)" style="fill: #ff7f0e; opacity: 0.5"/>
   </g>
   <g id="patch_173">
    <path d="M 320.049304 291.976 
L 323.037535 291.976 
L 323.037535 291.906268 
L 320.049304 291.906268 
z
" clip-path="url(#p0c7acf91ca)" style="fill: #ff7f0e; opacity: 0.5"/>
   </g>
   <g id="patch_174">
    <path d="M 323.784593 291.976 
L 326.772824 291.976 
L 326.772824 291.946536 
L 323.784593 291.946536 
z
" clip-path="url(#p0c7acf91ca)" style="fill: #ff7f0e; opacity: 0.5"/>
   </g>
   <g id="patch_175">
    <path d="M 327.519882 291.976 
L 330.508113 291.976 
L 330.508113 291.964132 
L 327.519882 291.964132 
z
" clip-path="url(#p0c7acf91ca)" style="fill: #ff7f0e; opacity: 0.5"/>
   </g>
   <g id="patch_176">
    <path d="M 331.25517 291.976 
L 334.243401 291.976 
L 334.243401 291.971448 
L 331.25517 291.971448 
z
" clip-path="url(#p0c7acf91ca)" style="fill: #ff7f0e; opacity: 0.5"/>
   </g>
   <g id="patch_177">
    <path d="M 334.990459 291.976 
L 337.97869 291.976 
L 337.97869 291.974339 
L 334.990459 291.974339 
z
" clip-path="url(#p0c7acf91ca)" style="fill: #ff7f0e; opacity: 0.5"/>
   </g>
   <g id="patch_178">
    <path d="M 338.725748 291.976 
L 341.713979 291.976 
L 341.713979 291.975424 
L 338.725748 291.975424 
z
" clip-path="url(#p0c7acf91ca)" style="fill: #ff7f0e; opacity: 0.5"/>
   </g>
   <g id="patch_179">
    <path d="M 342.461037 291.976 
L 345.449268 291.976 
L 345.449268 291.975811 
L 342.461037 291.975811 
z
" clip-path="url(#p0c7acf91ca)" style="fill: #ff7f0e; opacity: 0.5"/>
   </g>
   <g id="patch_180">
    <path d="M 346.196325 291.976 
L 349.184556 291.976 
L 349.184556 291.975941 
L 346.196325 291.975941 
z
" clip-path="url(#p0c7acf91ca)" style="fill: #ff7f0e; opacity: 0.5"/>
   </g>
   <g id="patch_181">
    <path d="M 349.931614 291.976 
L 352.919845 291.976 
L 352.919845 291.975983 
L 349.931614 291.975983 
z
" clip-path="url(#p0c7acf91ca)" style="fill: #ff7f0e; opacity: 0.5"/>
   </g>
   <g id="patch_182">
    <path d="M 353.666903 291.976 
L 356.655134 291.976 
L 356.655134 291.975995 
L 353.666903 291.975995 
z
" clip-path="url(#p0c7acf91ca)" style="fill: #ff7f0e; opacity: 0.5"/>
   </g>
   <g id="patch_183">
    <path d="M 357.402192 291.976 
L 360.390423 291.976 
L 360.390423 291.975999 
L 357.402192 291.975999 
z
" clip-path="url(#p0c7acf91ca)" style="fill: #ff7f0e; opacity: 0.5"/>
   </g>
   <g id="patch_184">
    <path d="M 361.13748 291.976 
L 364.125711 291.976 
L 364.125711 291.976 
L 361.13748 291.976 
z
" clip-path="url(#p0c7acf91ca)" style="fill: #ff7f0e; opacity: 0.5"/>
   </g>
   <g id="patch_185">
    <path d="M 364.872769 291.976 
L 367.861 291.976 
L 367.861 291.976 
L 364.872769 291.976 
z
" clip-path="url(#p0c7acf91ca)" style="fill: #ff7f0e; opacity: 0.5"/>
   </g>
   <g id="patch_186">
    <path d="M 368.608058 291.976 
L 371.596289 291.976 
L 371.596289 291.976 
L 368.608058 291.976 
z
" clip-path="url(#p0c7acf91ca)" style="fill: #ff7f0e; opacity: 0.5"/>
   </g>
   <g id="patch_187">
    <path d="M 372.343347 291.976 
L 375.331578 291.976 
L 375.331578 291.976 
L 372.343347 291.976 
z
" clip-path="url(#p0c7acf91ca)" style="fill: #ff7f0e; opacity: 0.5"/>
   </g>
   <g id="patch_188">
    <path d="M 376.078635 291.976 
L 379.066866 291.976 
L 379.066866 291.976 
L 376.078635 291.976 
z
" clip-path="url(#p0c7acf91ca)" style="fill: #ff7f0e; opacity: 0.5"/>
   </g>
   <g id="patch_189">
    <path d="M 379.813924 291.976 
L 382.802155 291.976 
L 382.802155 291.976 
L 379.813924 291.976 
z
" clip-path="url(#p0c7acf91ca)" style="fill: #ff7f0e; opacity: 0.5"/>
   </g>
   <g id="patch_190">
    <path d="M 383.549213 291.976 
L 386.537444 291.976 
L 386.537444 291.976 
L 383.549213 291.976 
z
" clip-path="url(#p0c7acf91ca)" style="fill: #ff7f0e; opacity: 0.5"/>
   </g>
   <g id="patch_191">
    <path d="M 387.284502 291.976 
L 390.272733 291.976 
L 390.272733 291.976 
L 387.284502 291.976 
z
" clip-path="url(#p0c7acf91ca)" style="fill: #ff7f0e; opacity: 0.5"/>
   </g>
   <g id="patch_192">
    <path d="M 391.01979 291.976 
L 394.008021 291.976 
L 394.008021 291.976 
L 391.01979 291.976 
z
" clip-path="url(#p0c7acf91ca)" style="fill: #ff7f0e; opacity: 0.5"/>
   </g>
   <g id="patch_193">
    <path d="M 394.755079 291.976 
L 397.74331 291.976 
L 397.74331 291.976 
L 394.755079 291.976 
z
" clip-path="url(#p0c7acf91ca)" style="fill: #ff7f0e; opacity: 0.5"/>
   </g>
   <g id="patch_194">
    <path d="M 398.490368 291.976 
L 401.478599 291.976 
L 401.478599 291.976 
L 398.490368 291.976 
z
" clip-path="url(#p0c7acf91ca)" style="fill: #ff7f0e; opacity: 0.5"/>
   </g>
   <g id="patch_195">
    <path d="M 402.225657 291.976 
L 405.213888 291.976 
L 405.213888 291.976 
L 402.225657 291.976 
z
" clip-path="url(#p0c7acf91ca)" style="fill: #ff7f0e; opacity: 0.5"/>
   </g>
   <g id="patch_196">
    <path d="M 405.960946 291.976 
L 408.949177 291.976 
L 408.949177 291.976 
L 405.960946 291.976 
z
" clip-path="url(#p0c7acf91ca)" style="fill: #ff7f0e; opacity: 0.5"/>
   </g>
   <g id="patch_197">
    <path d="M 409.696234 291.976 
L 412.684465 291.976 
L 412.684465 291.976 
L 409.696234 291.976 
z
" clip-path="url(#p0c7acf91ca)" style="fill: #ff7f0e; opacity: 0.5"/>
   </g>
   <g id="patch_198">
    <path d="M 413.431523 291.976 
L 416.419754 291.976 
L 416.419754 291.976 
L 413.431523 291.976 
z
" clip-path="url(#p0c7acf91ca)" style="fill: #ff7f0e; opacity: 0.5"/>
   </g>
   <g id="patch_199">
    <path d="M 417.166812 291.976 
L 420.155043 291.976 
L 420.155043 291.976 
L 417.166812 291.976 
z
" clip-path="url(#p0c7acf91ca)" style="fill: #ff7f0e; opacity: 0.5"/>
   </g>
   <g id="patch_200">
    <path d="M 420.902101 291.976 
L 423.890332 291.976 
L 423.890332 291.976 
L 420.902101 291.976 
z
" clip-path="url(#p0c7acf91ca)" style="fill: #ff7f0e; opacity: 0.5"/>
   </g>
   <g id="patch_201">
    <path d="M 424.637389 291.976 
L 427.62562 291.976 
L 427.62562 291.976 
L 424.637389 291.976 
z
" clip-path="url(#p0c7acf91ca)" style="fill: #ff7f0e; opacity: 0.5"/>
   </g>
   <g id="patch_202">
    <path d="M 428.372678 291.976 
L 431.360909 291.976 
L 431.360909 291.976 
L 428.372678 291.976 
z
" clip-path="url(#p0c7acf91ca)" style="fill: #ff7f0e; opacity: 0.5"/>
   </g>
   <g id="matplotlib.axis_1">
    <g id="xtick_1">
     <g id="line2d_1">
      <defs>
       <path id="m2066462bca" d="M 0 0 
L 0 3.5 
" style="stroke: #000000; stroke-width: 0.8"/>
      </defs>
      <g>
       <use xlink:href="#m2066462bca" x="60.073206" y="291.976" style="stroke: #000000; stroke-width: 0.8"/>
      </g>
     </g>
     <g id="text_1">
      <!-- 0 -->
      <g transform="translate(56.891956 306.574437)scale(0.1 -0.1)">
       <defs>
        <path id="DejaVuSans-30" d="M 2034 4250 
Q 1547 4250 1301 3770 
Q 1056 3291 1056 2328 
Q 1056 1369 1301 889 
Q 1547 409 2034 409 
Q 2525 409 2770 889 
Q 3016 1369 3016 2328 
Q 3016 3291 2770 3770 
Q 2525 4250 2034 4250 
z
M 2034 4750 
Q 2819 4750 3233 4129 
Q 3647 3509 3647 2328 
Q 3647 1150 3233 529 
Q 2819 -91 2034 -91 
Q 1250 -91 836 529 
Q 422 1150 422 2328 
Q 422 3509 836 4129 
Q 1250 4750 2034 4750 
z
" transform="scale(0.015625)"/>
       </defs>
       <use xlink:href="#DejaVuSans-30"/>
      </g>
     </g>
    </g>
    <g id="xtick_2">
     <g id="line2d_2">
      <g>
       <use xlink:href="#m2066462bca" x="134.778982" y="291.976" style="stroke: #000000; stroke-width: 0.8"/>
      </g>
     </g>
     <g id="text_2">
      <!-- 20 -->
      <g transform="translate(128.416482 306.574437)scale(0.1 -0.1)">
       <defs>
        <path id="DejaVuSans-32" d="M 1228 531 
L 3431 531 
L 3431 0 
L 469 0 
L 469 531 
Q 828 903 1448 1529 
Q 2069 2156 2228 2338 
Q 2531 2678 2651 2914 
Q 2772 3150 2772 3378 
Q 2772 3750 2511 3984 
Q 2250 4219 1831 4219 
Q 1534 4219 1204 4116 
Q 875 4013 500 3803 
L 500 4441 
Q 881 4594 1212 4672 
Q 1544 4750 1819 4750 
Q 2544 4750 2975 4387 
Q 3406 4025 3406 3419 
Q 3406 3131 3298 2873 
Q 3191 2616 2906 2266 
Q 2828 2175 2409 1742 
Q 1991 1309 1228 531 
z
" transform="scale(0.015625)"/>
       </defs>
       <use xlink:href="#DejaVuSans-32"/>
       <use xlink:href="#DejaVuSans-30" x="63.623047"/>
      </g>
     </g>
    </g>
    <g id="xtick_3">
     <g id="line2d_3">
      <g>
       <use xlink:href="#m2066462bca" x="209.484757" y="291.976" style="stroke: #000000; stroke-width: 0.8"/>
      </g>
     </g>
     <g id="text_3">
      <!-- 40 -->
      <g transform="translate(203.122257 306.574437)scale(0.1 -0.1)">
       <defs>
        <path id="DejaVuSans-34" d="M 2419 4116 
L 825 1625 
L 2419 1625 
L 2419 4116 
z
M 2253 4666 
L 3047 4666 
L 3047 1625 
L 3713 1625 
L 3713 1100 
L 3047 1100 
L 3047 0 
L 2419 0 
L 2419 1100 
L 313 1100 
L 313 1709 
L 2253 4666 
z
" transform="scale(0.015625)"/>
       </defs>
       <use xlink:href="#DejaVuSans-34"/>
       <use xlink:href="#DejaVuSans-30" x="63.623047"/>
      </g>
     </g>
    </g>
    <g id="xtick_4">
     <g id="line2d_4">
      <g>
       <use xlink:href="#m2066462bca" x="284.190532" y="291.976" style="stroke: #000000; stroke-width: 0.8"/>
      </g>
     </g>
     <g id="text_4">
      <!-- 60 -->
      <g transform="translate(277.828032 306.574437)scale(0.1 -0.1)">
       <defs>
        <path id="DejaVuSans-36" d="M 2113 2584 
Q 1688 2584 1439 2293 
Q 1191 2003 1191 1497 
Q 1191 994 1439 701 
Q 1688 409 2113 409 
Q 2538 409 2786 701 
Q 3034 994 3034 1497 
Q 3034 2003 2786 2293 
Q 2538 2584 2113 2584 
z
M 3366 4563 
L 3366 3988 
Q 3128 4100 2886 4159 
Q 2644 4219 2406 4219 
Q 1781 4219 1451 3797 
Q 1122 3375 1075 2522 
Q 1259 2794 1537 2939 
Q 1816 3084 2150 3084 
Q 2853 3084 3261 2657 
Q 3669 2231 3669 1497 
Q 3669 778 3244 343 
Q 2819 -91 2113 -91 
Q 1303 -91 875 529 
Q 447 1150 447 2328 
Q 447 3434 972 4092 
Q 1497 4750 2381 4750 
Q 2619 4750 2861 4703 
Q 3103 4656 3366 4563 
z
" transform="scale(0.015625)"/>
       </defs>
       <use xlink:href="#DejaVuSans-36"/>
       <use xlink:href="#DejaVuSans-30" x="63.623047"/>
      </g>
     </g>
    </g>
    <g id="xtick_5">
     <g id="line2d_5">
      <g>
       <use xlink:href="#m2066462bca" x="358.896307" y="291.976" style="stroke: #000000; stroke-width: 0.8"/>
      </g>
     </g>
     <g id="text_5">
      <!-- 80 -->
      <g transform="translate(352.533807 306.574437)scale(0.1 -0.1)">
       <defs>
        <path id="DejaVuSans-38" d="M 2034 2216 
Q 1584 2216 1326 1975 
Q 1069 1734 1069 1313 
Q 1069 891 1326 650 
Q 1584 409 2034 409 
Q 2484 409 2743 651 
Q 3003 894 3003 1313 
Q 3003 1734 2745 1975 
Q 2488 2216 2034 2216 
z
M 1403 2484 
Q 997 2584 770 2862 
Q 544 3141 544 3541 
Q 544 4100 942 4425 
Q 1341 4750 2034 4750 
Q 2731 4750 3128 4425 
Q 3525 4100 3525 3541 
Q 3525 3141 3298 2862 
Q 3072 2584 2669 2484 
Q 3125 2378 3379 2068 
Q 3634 1759 3634 1313 
Q 3634 634 3220 271 
Q 2806 -91 2034 -91 
Q 1263 -91 848 271 
Q 434 634 434 1313 
Q 434 1759 690 2068 
Q 947 2378 1403 2484 
z
M 1172 3481 
Q 1172 3119 1398 2916 
Q 1625 2713 2034 2713 
Q 2441 2713 2670 2916 
Q 2900 3119 2900 3481 
Q 2900 3844 2670 4047 
Q 2441 4250 2034 4250 
Q 1625 4250 1398 4047 
Q 1172 3844 1172 3481 
z
" transform="scale(0.015625)"/>
       </defs>
       <use xlink:href="#DejaVuSans-38"/>
       <use xlink:href="#DejaVuSans-30" x="63.623047"/>
      </g>
     </g>
    </g>
    <g id="xtick_6">
     <g id="line2d_6">
      <g>
       <use xlink:href="#m2066462bca" x="433.602082" y="291.976" style="stroke: #000000; stroke-width: 0.8"/>
      </g>
     </g>
     <g id="text_6">
      <!-- 100 -->
      <g transform="translate(424.058332 306.574437)scale(0.1 -0.1)">
       <defs>
        <path id="DejaVuSans-31" d="M 794 531 
L 1825 531 
L 1825 4091 
L 703 3866 
L 703 4441 
L 1819 4666 
L 2450 4666 
L 2450 531 
L 3481 531 
L 3481 0 
L 794 0 
L 794 531 
z
" transform="scale(0.015625)"/>
       </defs>
       <use xlink:href="#DejaVuSans-31"/>
       <use xlink:href="#DejaVuSans-30" x="63.623047"/>
       <use xlink:href="#DejaVuSans-30" x="127.246094"/>
      </g>
     </g>
    </g>
    <g id="text_7">
     <!-- k, for hyperg: number of blue balls drawn -->
     <g transform="translate(140.966875 320.252562)scale(0.1 -0.1)">
      <defs>
       <path id="DejaVuSans-6b" d="M 581 4863 
L 1159 4863 
L 1159 1991 
L 2875 3500 
L 3609 3500 
L 1753 1863 
L 3688 0 
L 2938 0 
L 1159 1709 
L 1159 0 
L 581 0 
L 581 4863 
z
" transform="scale(0.015625)"/>
       <path id="DejaVuSans-2c" d="M 750 794 
L 1409 794 
L 1409 256 
L 897 -744 
L 494 -744 
L 750 256 
L 750 794 
z
" transform="scale(0.015625)"/>
       <path id="DejaVuSans-20" transform="scale(0.015625)"/>
       <path id="DejaVuSans-66" d="M 2375 4863 
L 2375 4384 
L 1825 4384 
Q 1516 4384 1395 4259 
Q 1275 4134 1275 3809 
L 1275 3500 
L 2222 3500 
L 2222 3053 
L 1275 3053 
L 1275 0 
L 697 0 
L 697 3053 
L 147 3053 
L 147 3500 
L 697 3500 
L 697 3744 
Q 697 4328 969 4595 
Q 1241 4863 1831 4863 
L 2375 4863 
z
" transform="scale(0.015625)"/>
       <path id="DejaVuSans-6f" d="M 1959 3097 
Q 1497 3097 1228 2736 
Q 959 2375 959 1747 
Q 959 1119 1226 758 
Q 1494 397 1959 397 
Q 2419 397 2687 759 
Q 2956 1122 2956 1747 
Q 2956 2369 2687 2733 
Q 2419 3097 1959 3097 
z
M 1959 3584 
Q 2709 3584 3137 3096 
Q 3566 2609 3566 1747 
Q 3566 888 3137 398 
Q 2709 -91 1959 -91 
Q 1206 -91 779 398 
Q 353 888 353 1747 
Q 353 2609 779 3096 
Q 1206 3584 1959 3584 
z
" transform="scale(0.015625)"/>
       <path id="DejaVuSans-72" d="M 2631 2963 
Q 2534 3019 2420 3045 
Q 2306 3072 2169 3072 
Q 1681 3072 1420 2755 
Q 1159 2438 1159 1844 
L 1159 0 
L 581 0 
L 581 3500 
L 1159 3500 
L 1159 2956 
Q 1341 3275 1631 3429 
Q 1922 3584 2338 3584 
Q 2397 3584 2469 3576 
Q 2541 3569 2628 3553 
L 2631 2963 
z
" transform="scale(0.015625)"/>
       <path id="DejaVuSans-68" d="M 3513 2113 
L 3513 0 
L 2938 0 
L 2938 2094 
Q 2938 2591 2744 2837 
Q 2550 3084 2163 3084 
Q 1697 3084 1428 2787 
Q 1159 2491 1159 1978 
L 1159 0 
L 581 0 
L 581 4863 
L 1159 4863 
L 1159 2956 
Q 1366 3272 1645 3428 
Q 1925 3584 2291 3584 
Q 2894 3584 3203 3211 
Q 3513 2838 3513 2113 
z
" transform="scale(0.015625)"/>
       <path id="DejaVuSans-79" d="M 2059 -325 
Q 1816 -950 1584 -1140 
Q 1353 -1331 966 -1331 
L 506 -1331 
L 506 -850 
L 844 -850 
Q 1081 -850 1212 -737 
Q 1344 -625 1503 -206 
L 1606 56 
L 191 3500 
L 800 3500 
L 1894 763 
L 2988 3500 
L 3597 3500 
L 2059 -325 
z
" transform="scale(0.015625)"/>
       <path id="DejaVuSans-70" d="M 1159 525 
L 1159 -1331 
L 581 -1331 
L 581 3500 
L 1159 3500 
L 1159 2969 
Q 1341 3281 1617 3432 
Q 1894 3584 2278 3584 
Q 2916 3584 3314 3078 
Q 3713 2572 3713 1747 
Q 3713 922 3314 415 
Q 2916 -91 2278 -91 
Q 1894 -91 1617 61 
Q 1341 213 1159 525 
z
M 3116 1747 
Q 3116 2381 2855 2742 
Q 2594 3103 2138 3103 
Q 1681 3103 1420 2742 
Q 1159 2381 1159 1747 
Q 1159 1113 1420 752 
Q 1681 391 2138 391 
Q 2594 391 2855 752 
Q 3116 1113 3116 1747 
z
" transform="scale(0.015625)"/>
       <path id="DejaVuSans-65" d="M 3597 1894 
L 3597 1613 
L 953 1613 
Q 991 1019 1311 708 
Q 1631 397 2203 397 
Q 2534 397 2845 478 
Q 3156 559 3463 722 
L 3463 178 
Q 3153 47 2828 -22 
Q 2503 -91 2169 -91 
Q 1331 -91 842 396 
Q 353 884 353 1716 
Q 353 2575 817 3079 
Q 1281 3584 2069 3584 
Q 2775 3584 3186 3129 
Q 3597 2675 3597 1894 
z
M 3022 2063 
Q 3016 2534 2758 2815 
Q 2500 3097 2075 3097 
Q 1594 3097 1305 2825 
Q 1016 2553 972 2059 
L 3022 2063 
z
" transform="scale(0.015625)"/>
       <path id="DejaVuSans-67" d="M 2906 1791 
Q 2906 2416 2648 2759 
Q 2391 3103 1925 3103 
Q 1463 3103 1205 2759 
Q 947 2416 947 1791 
Q 947 1169 1205 825 
Q 1463 481 1925 481 
Q 2391 481 2648 825 
Q 2906 1169 2906 1791 
z
M 3481 434 
Q 3481 -459 3084 -895 
Q 2688 -1331 1869 -1331 
Q 1566 -1331 1297 -1286 
Q 1028 -1241 775 -1147 
L 775 -588 
Q 1028 -725 1275 -790 
Q 1522 -856 1778 -856 
Q 2344 -856 2625 -561 
Q 2906 -266 2906 331 
L 2906 616 
Q 2728 306 2450 153 
Q 2172 0 1784 0 
Q 1141 0 747 490 
Q 353 981 353 1791 
Q 353 2603 747 3093 
Q 1141 3584 1784 3584 
Q 2172 3584 2450 3431 
Q 2728 3278 2906 2969 
L 2906 3500 
L 3481 3500 
L 3481 434 
z
" transform="scale(0.015625)"/>
       <path id="DejaVuSans-3a" d="M 750 794 
L 1409 794 
L 1409 0 
L 750 0 
L 750 794 
z
M 750 3309 
L 1409 3309 
L 1409 2516 
L 750 2516 
L 750 3309 
z
" transform="scale(0.015625)"/>
       <path id="DejaVuSans-6e" d="M 3513 2113 
L 3513 0 
L 2938 0 
L 2938 2094 
Q 2938 2591 2744 2837 
Q 2550 3084 2163 3084 
Q 1697 3084 1428 2787 
Q 1159 2491 1159 1978 
L 1159 0 
L 581 0 
L 581 3500 
L 1159 3500 
L 1159 2956 
Q 1366 3272 1645 3428 
Q 1925 3584 2291 3584 
Q 2894 3584 3203 3211 
Q 3513 2838 3513 2113 
z
" transform="scale(0.015625)"/>
       <path id="DejaVuSans-75" d="M 544 1381 
L 544 3500 
L 1119 3500 
L 1119 1403 
Q 1119 906 1312 657 
Q 1506 409 1894 409 
Q 2359 409 2629 706 
Q 2900 1003 2900 1516 
L 2900 3500 
L 3475 3500 
L 3475 0 
L 2900 0 
L 2900 538 
Q 2691 219 2414 64 
Q 2138 -91 1772 -91 
Q 1169 -91 856 284 
Q 544 659 544 1381 
z
M 1991 3584 
L 1991 3584 
z
" transform="scale(0.015625)"/>
       <path id="DejaVuSans-6d" d="M 3328 2828 
Q 3544 3216 3844 3400 
Q 4144 3584 4550 3584 
Q 5097 3584 5394 3201 
Q 5691 2819 5691 2113 
L 5691 0 
L 5113 0 
L 5113 2094 
Q 5113 2597 4934 2840 
Q 4756 3084 4391 3084 
Q 3944 3084 3684 2787 
Q 3425 2491 3425 1978 
L 3425 0 
L 2847 0 
L 2847 2094 
Q 2847 2600 2669 2842 
Q 2491 3084 2119 3084 
Q 1678 3084 1418 2786 
Q 1159 2488 1159 1978 
L 1159 0 
L 581 0 
L 581 3500 
L 1159 3500 
L 1159 2956 
Q 1356 3278 1631 3431 
Q 1906 3584 2284 3584 
Q 2666 3584 2933 3390 
Q 3200 3197 3328 2828 
z
" transform="scale(0.015625)"/>
       <path id="DejaVuSans-62" d="M 3116 1747 
Q 3116 2381 2855 2742 
Q 2594 3103 2138 3103 
Q 1681 3103 1420 2742 
Q 1159 2381 1159 1747 
Q 1159 1113 1420 752 
Q 1681 391 2138 391 
Q 2594 391 2855 752 
Q 3116 1113 3116 1747 
z
M 1159 2969 
Q 1341 3281 1617 3432 
Q 1894 3584 2278 3584 
Q 2916 3584 3314 3078 
Q 3713 2572 3713 1747 
Q 3713 922 3314 415 
Q 2916 -91 2278 -91 
Q 1894 -91 1617 61 
Q 1341 213 1159 525 
L 1159 0 
L 581 0 
L 581 4863 
L 1159 4863 
L 1159 2969 
z
" transform="scale(0.015625)"/>
       <path id="DejaVuSans-6c" d="M 603 4863 
L 1178 4863 
L 1178 0 
L 603 0 
L 603 4863 
z
" transform="scale(0.015625)"/>
       <path id="DejaVuSans-61" d="M 2194 1759 
Q 1497 1759 1228 1600 
Q 959 1441 959 1056 
Q 959 750 1161 570 
Q 1363 391 1709 391 
Q 2188 391 2477 730 
Q 2766 1069 2766 1631 
L 2766 1759 
L 2194 1759 
z
M 3341 1997 
L 3341 0 
L 2766 0 
L 2766 531 
Q 2569 213 2275 61 
Q 1981 -91 1556 -91 
Q 1019 -91 701 211 
Q 384 513 384 1019 
Q 384 1609 779 1909 
Q 1175 2209 1959 2209 
L 2766 2209 
L 2766 2266 
Q 2766 2663 2505 2880 
Q 2244 3097 1772 3097 
Q 1472 3097 1187 3025 
Q 903 2953 641 2809 
L 641 3341 
Q 956 3463 1253 3523 
Q 1550 3584 1831 3584 
Q 2591 3584 2966 3190 
Q 3341 2797 3341 1997 
z
" transform="scale(0.015625)"/>
       <path id="DejaVuSans-73" d="M 2834 3397 
L 2834 2853 
Q 2591 2978 2328 3040 
Q 2066 3103 1784 3103 
Q 1356 3103 1142 2972 
Q 928 2841 928 2578 
Q 928 2378 1081 2264 
Q 1234 2150 1697 2047 
L 1894 2003 
Q 2506 1872 2764 1633 
Q 3022 1394 3022 966 
Q 3022 478 2636 193 
Q 2250 -91 1575 -91 
Q 1294 -91 989 -36 
Q 684 19 347 128 
L 347 722 
Q 666 556 975 473 
Q 1284 391 1588 391 
Q 1994 391 2212 530 
Q 2431 669 2431 922 
Q 2431 1156 2273 1281 
Q 2116 1406 1581 1522 
L 1381 1569 
Q 847 1681 609 1914 
Q 372 2147 372 2553 
Q 372 3047 722 3315 
Q 1072 3584 1716 3584 
Q 2034 3584 2315 3537 
Q 2597 3491 2834 3397 
z
" transform="scale(0.015625)"/>
       <path id="DejaVuSans-64" d="M 2906 2969 
L 2906 4863 
L 3481 4863 
L 3481 0 
L 2906 0 
L 2906 525 
Q 2725 213 2448 61 
Q 2172 -91 1784 -91 
Q 1150 -91 751 415 
Q 353 922 353 1747 
Q 353 2572 751 3078 
Q 1150 3584 1784 3584 
Q 2172 3584 2448 3432 
Q 2725 3281 2906 2969 
z
M 947 1747 
Q 947 1113 1208 752 
Q 1469 391 1925 391 
Q 2381 391 2643 752 
Q 2906 1113 2906 1747 
Q 2906 2381 2643 2742 
Q 2381 3103 1925 3103 
Q 1469 3103 1208 2742 
Q 947 2381 947 1747 
z
" transform="scale(0.015625)"/>
       <path id="DejaVuSans-77" d="M 269 3500 
L 844 3500 
L 1563 769 
L 2278 3500 
L 2956 3500 
L 3675 769 
L 4391 3500 
L 4966 3500 
L 4050 0 
L 3372 0 
L 2619 2869 
L 1863 0 
L 1184 0 
L 269 3500 
z
" transform="scale(0.015625)"/>
      </defs>
      <use xlink:href="#DejaVuSans-6b"/>
      <use xlink:href="#DejaVuSans-2c" x="57.910156"/>
      <use xlink:href="#DejaVuSans-20" x="89.697266"/>
      <use xlink:href="#DejaVuSans-66" x="121.484375"/>
      <use xlink:href="#DejaVuSans-6f" x="156.689453"/>
      <use xlink:href="#DejaVuSans-72" x="217.871094"/>
      <use xlink:href="#DejaVuSans-20" x="258.984375"/>
      <use xlink:href="#DejaVuSans-68" x="290.771484"/>
      <use xlink:href="#DejaVuSans-79" x="354.150391"/>
      <use xlink:href="#DejaVuSans-70" x="413.330078"/>
      <use xlink:href="#DejaVuSans-65" x="476.806641"/>
      <use xlink:href="#DejaVuSans-72" x="538.330078"/>
      <use xlink:href="#DejaVuSans-67" x="577.693359"/>
      <use xlink:href="#DejaVuSans-3a" x="641.169922"/>
      <use xlink:href="#DejaVuSans-20" x="674.861328"/>
      <use xlink:href="#DejaVuSans-6e" x="706.648438"/>
      <use xlink:href="#DejaVuSans-75" x="770.027344"/>
      <use xlink:href="#DejaVuSans-6d" x="833.40625"/>
      <use xlink:href="#DejaVuSans-62" x="930.818359"/>
      <use xlink:href="#DejaVuSans-65" x="994.294922"/>
      <use xlink:href="#DejaVuSans-72" x="1055.818359"/>
      <use xlink:href="#DejaVuSans-20" x="1096.931641"/>
      <use xlink:href="#DejaVuSans-6f" x="1128.71875"/>
      <use xlink:href="#DejaVuSans-66" x="1189.900391"/>
      <use xlink:href="#DejaVuSans-20" x="1225.105469"/>
      <use xlink:href="#DejaVuSans-62" x="1256.892578"/>
      <use xlink:href="#DejaVuSans-6c" x="1320.369141"/>
      <use xlink:href="#DejaVuSans-75" x="1348.152344"/>
      <use xlink:href="#DejaVuSans-65" x="1411.53125"/>
      <use xlink:href="#DejaVuSans-20" x="1473.054688"/>
      <use xlink:href="#DejaVuSans-62" x="1504.841797"/>
      <use xlink:href="#DejaVuSans-61" x="1568.318359"/>
      <use xlink:href="#DejaVuSans-6c" x="1629.597656"/>
      <use xlink:href="#DejaVuSans-6c" x="1657.380859"/>
      <use xlink:href="#DejaVuSans-73" x="1685.164062"/>
      <use xlink:href="#DejaVuSans-20" x="1737.263672"/>
      <use xlink:href="#DejaVuSans-64" x="1769.050781"/>
      <use xlink:href="#DejaVuSans-72" x="1832.527344"/>
      <use xlink:href="#DejaVuSans-61" x="1873.640625"/>
      <use xlink:href="#DejaVuSans-77" x="1934.919922"/>
      <use xlink:href="#DejaVuSans-6e" x="2016.707031"/>
     </g>
     <!-- for binom: number of successes -->
     <g transform="translate(164.82 331.450375)scale(0.1 -0.1)">
      <defs>
       <path id="DejaVuSans-69" d="M 603 3500 
L 1178 3500 
L 1178 0 
L 603 0 
L 603 3500 
z
M 603 4863 
L 1178 4863 
L 1178 4134 
L 603 4134 
L 603 4863 
z
" transform="scale(0.015625)"/>
       <path id="DejaVuSans-63" d="M 3122 3366 
L 3122 2828 
Q 2878 2963 2633 3030 
Q 2388 3097 2138 3097 
Q 1578 3097 1268 2742 
Q 959 2388 959 1747 
Q 959 1106 1268 751 
Q 1578 397 2138 397 
Q 2388 397 2633 464 
Q 2878 531 3122 666 
L 3122 134 
Q 2881 22 2623 -34 
Q 2366 -91 2075 -91 
Q 1284 -91 818 406 
Q 353 903 353 1747 
Q 353 2603 823 3093 
Q 1294 3584 2113 3584 
Q 2378 3584 2631 3529 
Q 2884 3475 3122 3366 
z
" transform="scale(0.015625)"/>
      </defs>
      <use xlink:href="#DejaVuSans-66"/>
      <use xlink:href="#DejaVuSans-6f" x="35.205078"/>
      <use xlink:href="#DejaVuSans-72" x="96.386719"/>
      <use xlink:href="#DejaVuSans-20" x="137.5"/>
      <use xlink:href="#DejaVuSans-62" x="169.287109"/>
      <use xlink:href="#DejaVuSans-69" x="232.763672"/>
      <use xlink:href="#DejaVuSans-6e" x="260.546875"/>
      <use xlink:href="#DejaVuSans-6f" x="323.925781"/>
      <use xlink:href="#DejaVuSans-6d" x="385.107422"/>
      <use xlink:href="#DejaVuSans-3a" x="482.519531"/>
      <use xlink:href="#DejaVuSans-20" x="516.210938"/>
      <use xlink:href="#DejaVuSans-6e" x="547.998047"/>
      <use xlink:href="#DejaVuSans-75" x="611.376953"/>
      <use xlink:href="#DejaVuSans-6d" x="674.755859"/>
      <use xlink:href="#DejaVuSans-62" x="772.167969"/>
      <use xlink:href="#DejaVuSans-65" x="835.644531"/>
      <use xlink:href="#DejaVuSans-72" x="897.167969"/>
      <use xlink:href="#DejaVuSans-20" x="938.28125"/>
      <use xlink:href="#DejaVuSans-6f" x="970.068359"/>
      <use xlink:href="#DejaVuSans-66" x="1031.25"/>
      <use xlink:href="#DejaVuSans-20" x="1066.455078"/>
      <use xlink:href="#DejaVuSans-73" x="1098.242188"/>
      <use xlink:href="#DejaVuSans-75" x="1150.341797"/>
      <use xlink:href="#DejaVuSans-63" x="1213.720703"/>
      <use xlink:href="#DejaVuSans-63" x="1268.701172"/>
      <use xlink:href="#DejaVuSans-65" x="1323.681641"/>
      <use xlink:href="#DejaVuSans-73" x="1385.205078"/>
      <use xlink:href="#DejaVuSans-73" x="1437.304688"/>
      <use xlink:href="#DejaVuSans-65" x="1489.404297"/>
      <use xlink:href="#DejaVuSans-73" x="1550.927734"/>
     </g>
    </g>
   </g>
   <g id="matplotlib.axis_2">
    <g id="ytick_1">
     <g id="line2d_7">
      <defs>
       <path id="ma8b3cf3532" d="M 0 0 
L -3.5 0 
" style="stroke: #000000; stroke-width: 0.8"/>
      </defs>
      <g>
       <use xlink:href="#ma8b3cf3532" x="39.94" y="291.976" style="stroke: #000000; stroke-width: 0.8"/>
      </g>
     </g>
     <g id="text_8">
      <!-- 0.00 -->
      <g transform="translate(10.674375 295.775219)scale(0.1 -0.1)">
       <defs>
        <path id="DejaVuSans-2e" d="M 684 794 
L 1344 794 
L 1344 0 
L 684 0 
L 684 794 
z
" transform="scale(0.015625)"/>
       </defs>
       <use xlink:href="#DejaVuSans-30"/>
       <use xlink:href="#DejaVuSans-2e" x="63.623047"/>
       <use xlink:href="#DejaVuSans-30" x="95.410156"/>
       <use xlink:href="#DejaVuSans-30" x="159.033203"/>
      </g>
     </g>
    </g>
    <g id="ytick_2">
     <g id="line2d_8">
      <g>
       <use xlink:href="#ma8b3cf3532" x="39.94" y="261.881104" style="stroke: #000000; stroke-width: 0.8"/>
      </g>
     </g>
     <g id="text_9">
      <!-- 0.01 -->
      <g transform="translate(10.674375 265.680322)scale(0.1 -0.1)">
       <use xlink:href="#DejaVuSans-30"/>
       <use xlink:href="#DejaVuSans-2e" x="63.623047"/>
       <use xlink:href="#DejaVuSans-30" x="95.410156"/>
       <use xlink:href="#DejaVuSans-31" x="159.033203"/>
      </g>
     </g>
    </g>
    <g id="ytick_3">
     <g id="line2d_9">
      <g>
       <use xlink:href="#ma8b3cf3532" x="39.94" y="231.786207" style="stroke: #000000; stroke-width: 0.8"/>
      </g>
     </g>
     <g id="text_10">
      <!-- 0.02 -->
      <g transform="translate(10.674375 235.585426)scale(0.1 -0.1)">
       <use xlink:href="#DejaVuSans-30"/>
       <use xlink:href="#DejaVuSans-2e" x="63.623047"/>
       <use xlink:href="#DejaVuSans-30" x="95.410156"/>
       <use xlink:href="#DejaVuSans-32" x="159.033203"/>
      </g>
     </g>
    </g>
    <g id="ytick_4">
     <g id="line2d_10">
      <g>
       <use xlink:href="#ma8b3cf3532" x="39.94" y="201.691311" style="stroke: #000000; stroke-width: 0.8"/>
      </g>
     </g>
     <g id="text_11">
      <!-- 0.03 -->
      <g transform="translate(10.674375 205.49053)scale(0.1 -0.1)">
       <defs>
        <path id="DejaVuSans-33" d="M 2597 2516 
Q 3050 2419 3304 2112 
Q 3559 1806 3559 1356 
Q 3559 666 3084 287 
Q 2609 -91 1734 -91 
Q 1441 -91 1130 -33 
Q 819 25 488 141 
L 488 750 
Q 750 597 1062 519 
Q 1375 441 1716 441 
Q 2309 441 2620 675 
Q 2931 909 2931 1356 
Q 2931 1769 2642 2001 
Q 2353 2234 1838 2234 
L 1294 2234 
L 1294 2753 
L 1863 2753 
Q 2328 2753 2575 2939 
Q 2822 3125 2822 3475 
Q 2822 3834 2567 4026 
Q 2313 4219 1838 4219 
Q 1578 4219 1281 4162 
Q 984 4106 628 3988 
L 628 4550 
Q 988 4650 1302 4700 
Q 1616 4750 1894 4750 
Q 2613 4750 3031 4423 
Q 3450 4097 3450 3541 
Q 3450 3153 3228 2886 
Q 3006 2619 2597 2516 
z
" transform="scale(0.015625)"/>
       </defs>
       <use xlink:href="#DejaVuSans-30"/>
       <use xlink:href="#DejaVuSans-2e" x="63.623047"/>
       <use xlink:href="#DejaVuSans-30" x="95.410156"/>
       <use xlink:href="#DejaVuSans-33" x="159.033203"/>
      </g>
     </g>
    </g>
    <g id="ytick_5">
     <g id="line2d_11">
      <g>
       <use xlink:href="#ma8b3cf3532" x="39.94" y="171.596415" style="stroke: #000000; stroke-width: 0.8"/>
      </g>
     </g>
     <g id="text_12">
      <!-- 0.04 -->
      <g transform="translate(10.674375 175.395634)scale(0.1 -0.1)">
       <use xlink:href="#DejaVuSans-30"/>
       <use xlink:href="#DejaVuSans-2e" x="63.623047"/>
       <use xlink:href="#DejaVuSans-30" x="95.410156"/>
       <use xlink:href="#DejaVuSans-34" x="159.033203"/>
      </g>
     </g>
    </g>
    <g id="ytick_6">
     <g id="line2d_12">
      <g>
       <use xlink:href="#ma8b3cf3532" x="39.94" y="141.501519" style="stroke: #000000; stroke-width: 0.8"/>
      </g>
     </g>
     <g id="text_13">
      <!-- 0.05 -->
      <g transform="translate(10.674375 145.300737)scale(0.1 -0.1)">
       <defs>
        <path id="DejaVuSans-35" d="M 691 4666 
L 3169 4666 
L 3169 4134 
L 1269 4134 
L 1269 2991 
Q 1406 3038 1543 3061 
Q 1681 3084 1819 3084 
Q 2600 3084 3056 2656 
Q 3513 2228 3513 1497 
Q 3513 744 3044 326 
Q 2575 -91 1722 -91 
Q 1428 -91 1123 -41 
Q 819 9 494 109 
L 494 744 
Q 775 591 1075 516 
Q 1375 441 1709 441 
Q 2250 441 2565 725 
Q 2881 1009 2881 1497 
Q 2881 1984 2565 2268 
Q 2250 2553 1709 2553 
Q 1456 2553 1204 2497 
Q 953 2441 691 2322 
L 691 4666 
z
" transform="scale(0.015625)"/>
       </defs>
       <use xlink:href="#DejaVuSans-30"/>
       <use xlink:href="#DejaVuSans-2e" x="63.623047"/>
       <use xlink:href="#DejaVuSans-30" x="95.410156"/>
       <use xlink:href="#DejaVuSans-35" x="159.033203"/>
      </g>
     </g>
    </g>
    <g id="ytick_7">
     <g id="line2d_13">
      <g>
       <use xlink:href="#ma8b3cf3532" x="39.94" y="111.406622" style="stroke: #000000; stroke-width: 0.8"/>
      </g>
     </g>
     <g id="text_14">
      <!-- 0.06 -->
      <g transform="translate(10.674375 115.205841)scale(0.1 -0.1)">
       <use xlink:href="#DejaVuSans-30"/>
       <use xlink:href="#DejaVuSans-2e" x="63.623047"/>
       <use xlink:href="#DejaVuSans-30" x="95.410156"/>
       <use xlink:href="#DejaVuSans-36" x="159.033203"/>
      </g>
     </g>
    </g>
    <g id="ytick_8">
     <g id="line2d_14">
      <g>
       <use xlink:href="#ma8b3cf3532" x="39.94" y="81.311726" style="stroke: #000000; stroke-width: 0.8"/>
      </g>
     </g>
     <g id="text_15">
      <!-- 0.07 -->
      <g transform="translate(10.674375 85.110945)scale(0.1 -0.1)">
       <defs>
        <path id="DejaVuSans-37" d="M 525 4666 
L 3525 4666 
L 3525 4397 
L 1831 0 
L 1172 0 
L 2766 4134 
L 525 4134 
L 525 4666 
z
" transform="scale(0.015625)"/>
       </defs>
       <use xlink:href="#DejaVuSans-30"/>
       <use xlink:href="#DejaVuSans-2e" x="63.623047"/>
       <use xlink:href="#DejaVuSans-30" x="95.410156"/>
       <use xlink:href="#DejaVuSans-37" x="159.033203"/>
      </g>
     </g>
    </g>
    <g id="ytick_9">
     <g id="line2d_15">
      <g>
       <use xlink:href="#ma8b3cf3532" x="39.94" y="51.21683" style="stroke: #000000; stroke-width: 0.8"/>
      </g>
     </g>
     <g id="text_16">
      <!-- 0.08 -->
      <g transform="translate(10.674375 55.016049)scale(0.1 -0.1)">
       <use xlink:href="#DejaVuSans-30"/>
       <use xlink:href="#DejaVuSans-2e" x="63.623047"/>
       <use xlink:href="#DejaVuSans-30" x="95.410156"/>
       <use xlink:href="#DejaVuSans-38" x="159.033203"/>
      </g>
     </g>
    </g>
   </g>
   <g id="line2d_16">
    <path d="M 60.073206 291.976 
L 63.808495 291.976 
L 67.543784 291.976 
L 71.279073 291.976 
L 75.014361 291.976 
L 78.74965 291.976 
L 82.484939 291.976 
L 86.220228 291.976 
L 89.955516 291.976 
L 93.690805 291.976 
L 97.426094 291.976 
L 101.161383 291.976 
L 104.896672 291.976 
L 108.63196 291.976 
L 112.367249 291.976 
L 116.102538 291.976 
L 119.837827 291.976 
L 123.573115 291.976 
L 127.308404 291.976 
L 131.043693 291.975999 
L 134.778982 291.975996 
L 138.51427 291.975988 
L 142.249559 291.975963 
L 145.984848 291.975888 
L 149.720137 291.975677 
L 153.455425 291.975105 
L 157.190714 291.973616 
L 160.926003 291.969896 
L 164.661292 291.960987 
L 168.39658 291.940522 
L 172.131869 291.895448 
L 175.867158 291.800278 
L 179.602447 291.607697 
L 183.337735 291.23433 
L 187.073024 290.541022 
L 190.808313 289.30848 
L 194.543602 287.211706 
L 198.278891 283.800439 
L 202.014179 278.496779 
L 205.749468 270.623916 
L 209.484757 259.478949 
L 213.220046 244.456064 
L 216.955334 225.21298 
L 220.690623 201.855349 
L 224.425912 175.095816 
L 228.161201 146.334323 
L 231.896489 117.611255 
L 235.631778 91.408803 
L 239.367067 70.314967 
L 243.102356 56.608214 
L 246.837644 51.853469 
L 250.572933 56.608214 
L 254.308222 70.314967 
L 258.043511 91.408803 
L 261.778799 117.611255 
L 265.514088 146.334323 
L 269.249377 175.095816 
L 272.984666 201.855349 
L 276.719954 225.21298 
L 280.455243 244.456064 
L 284.190532 259.478949 
L 287.925821 270.623916 
L 291.661109 278.496779 
L 295.396398 283.800439 
L 299.131687 287.211706 
L 302.866976 289.30848 
L 306.602265 290.541022 
L 310.337553 291.23433 
L 314.072842 291.607697 
L 317.808131 291.800278 
L 321.54342 291.895448 
L 325.278708 291.940522 
L 329.013997 291.960987 
L 332.749286 291.969896 
L 336.484575 291.973616 
L 340.219863 291.975105 
L 343.955152 291.975677 
L 347.690441 291.975888 
L 351.42573 291.975963 
L 355.161018 291.975988 
L 358.896307 291.975996 
L 362.631596 291.975999 
L 366.366885 291.976 
L 370.102173 291.976 
L 373.837462 291.976 
L 377.572751 291.976 
L 381.30804 291.976 
L 385.043328 291.976 
L 388.778617 291.976 
L 392.513906 291.976 
L 396.249195 291.976 
L 399.984484 291.976 
L 403.719772 291.976 
L 407.455061 291.976 
L 411.19035 291.976 
L 414.925639 291.976 
L 418.660927 291.976 
L 422.396216 291.976 
L 426.131505 291.976 
L 429.866794 291.976 
" clip-path="url(#p0c7acf91ca)" style="fill: none; stroke: #1f77b4; stroke-width: 1.5; stroke-linecap: square"/>
   </g>
   <g id="patch_203">
    <path d="M 39.94 291.976 
L 39.94 26.88 
" style="fill: none; stroke: #000000; stroke-width: 0.8; stroke-linejoin: miter; stroke-linecap: square"/>
   </g>
   <g id="patch_204">
    <path d="M 450 291.976 
L 450 26.88 
" style="fill: none; stroke: #000000; stroke-width: 0.8; stroke-linejoin: miter; stroke-linecap: square"/>
   </g>
   <g id="patch_205">
    <path d="M 39.94 291.976 
L 450 291.976 
" style="fill: none; stroke: #000000; stroke-width: 0.8; stroke-linejoin: miter; stroke-linecap: square"/>
   </g>
   <g id="patch_206">
    <path d="M 39.94 26.88 
L 450 26.88 
" style="fill: none; stroke: #000000; stroke-width: 0.8; stroke-linejoin: miter; stroke-linecap: square"/>
   </g>
   <g id="text_17">
    <!-- N = 1000, n = 500, r = 100 -->
    <g transform="translate(161.885 20.88)scale(0.12 -0.12)">
     <defs>
      <path id="DejaVuSans-4e" d="M 628 4666 
L 1478 4666 
L 3547 763 
L 3547 4666 
L 4159 4666 
L 4159 0 
L 3309 0 
L 1241 3903 
L 1241 0 
L 628 0 
L 628 4666 
z
" transform="scale(0.015625)"/>
      <path id="DejaVuSans-3d" d="M 678 2906 
L 4684 2906 
L 4684 2381 
L 678 2381 
L 678 2906 
z
M 678 1631 
L 4684 1631 
L 4684 1100 
L 678 1100 
L 678 1631 
z
" transform="scale(0.015625)"/>
     </defs>
     <use xlink:href="#DejaVuSans-4e"/>
     <use xlink:href="#DejaVuSans-20" x="74.804688"/>
     <use xlink:href="#DejaVuSans-3d" x="106.591797"/>
     <use xlink:href="#DejaVuSans-20" x="190.380859"/>
     <use xlink:href="#DejaVuSans-31" x="222.167969"/>
     <use xlink:href="#DejaVuSans-30" x="285.791016"/>
     <use xlink:href="#DejaVuSans-30" x="349.414062"/>
     <use xlink:href="#DejaVuSans-30" x="413.037109"/>
     <use xlink:href="#DejaVuSans-2c" x="476.660156"/>
     <use xlink:href="#DejaVuSans-20" x="508.447266"/>
     <use xlink:href="#DejaVuSans-6e" x="540.234375"/>
     <use xlink:href="#DejaVuSans-20" x="603.613281"/>
     <use xlink:href="#DejaVuSans-3d" x="635.400391"/>
     <use xlink:href="#DejaVuSans-20" x="719.189453"/>
     <use xlink:href="#DejaVuSans-35" x="750.976562"/>
     <use xlink:href="#DejaVuSans-30" x="814.599609"/>
     <use xlink:href="#DejaVuSans-30" x="878.222656"/>
     <use xlink:href="#DejaVuSans-2c" x="941.845703"/>
     <use xlink:href="#DejaVuSans-20" x="973.632812"/>
     <use xlink:href="#DejaVuSans-72" x="1005.419922"/>
     <use xlink:href="#DejaVuSans-20" x="1046.533203"/>
     <use xlink:href="#DejaVuSans-3d" x="1078.320312"/>
     <use xlink:href="#DejaVuSans-20" x="1162.109375"/>
     <use xlink:href="#DejaVuSans-31" x="1193.896484"/>
     <use xlink:href="#DejaVuSans-30" x="1257.519531"/>
     <use xlink:href="#DejaVuSans-30" x="1321.142578"/>
    </g>
   </g>
   <g id="legend_1">
    <g id="patch_207">
     <path d="M 295.989062 101.31 
L 443 101.31 
Q 445 101.31 445 99.31 
L 445 33.88 
Q 445 31.88 443 31.88 
L 295.989062 31.88 
Q 293.989062 31.88 293.989062 33.88 
L 293.989062 99.31 
Q 293.989062 101.31 295.989062 101.31 
z
" style="fill: #ffffff; opacity: 0.8; stroke: #cccccc; stroke-linejoin: miter"/>
    </g>
    <g id="line2d_17">
     <path d="M 297.989062 39.978437 
L 307.989062 39.978437 
L 317.989062 39.978437 
" style="fill: none; stroke: #1f77b4; stroke-width: 1.5; stroke-linecap: square"/>
    </g>
    <g id="text_18">
     <!-- normal -->
     <g transform="translate(325.989062 43.478437)scale(0.1 -0.1)">
      <use xlink:href="#DejaVuSans-6e"/>
      <use xlink:href="#DejaVuSans-6f" x="63.378906"/>
      <use xlink:href="#DejaVuSans-72" x="124.560547"/>
      <use xlink:href="#DejaVuSans-6d" x="163.923828"/>
      <use xlink:href="#DejaVuSans-61" x="261.335938"/>
      <use xlink:href="#DejaVuSans-6c" x="322.615234"/>
     </g>
    </g>
    <g id="patch_208">
     <path d="M 297.989062 64.795312 
L 317.989062 64.795312 
L 317.989062 57.795312 
L 297.989062 57.795312 
z
" style="fill: #1f77b4; opacity: 0.5"/>
    </g>
    <g id="text_19">
     <!-- hypergeometric -->
     <g transform="translate(325.989062 58.156562)scale(0.1 -0.1)">
      <defs>
       <path id="DejaVuSans-74" d="M 1172 4494 
L 1172 3500 
L 2356 3500 
L 2356 3053 
L 1172 3053 
L 1172 1153 
Q 1172 725 1289 603 
Q 1406 481 1766 481 
L 2356 481 
L 2356 0 
L 1766 0 
Q 1100 0 847 248 
Q 594 497 594 1153 
L 594 3053 
L 172 3053 
L 172 3500 
L 594 3500 
L 594 4494 
L 1172 4494 
z
" transform="scale(0.015625)"/>
      </defs>
      <use xlink:href="#DejaVuSans-68"/>
      <use xlink:href="#DejaVuSans-79" x="63.378906"/>
      <use xlink:href="#DejaVuSans-70" x="122.558594"/>
      <use xlink:href="#DejaVuSans-65" x="186.035156"/>
      <use xlink:href="#DejaVuSans-72" x="247.558594"/>
      <use xlink:href="#DejaVuSans-67" x="286.921875"/>
      <use xlink:href="#DejaVuSans-65" x="350.398438"/>
      <use xlink:href="#DejaVuSans-6f" x="411.921875"/>
      <use xlink:href="#DejaVuSans-6d" x="473.103516"/>
      <use xlink:href="#DejaVuSans-65" x="570.515625"/>
      <use xlink:href="#DejaVuSans-74" x="632.039062"/>
      <use xlink:href="#DejaVuSans-72" x="671.248047"/>
      <use xlink:href="#DejaVuSans-69" x="712.361328"/>
      <use xlink:href="#DejaVuSans-63" x="740.144531"/>
     </g>
     <!-- N balls, n blue, r draws -->
     <g transform="translate(325.989062 69.354375)scale(0.1 -0.1)">
      <use xlink:href="#DejaVuSans-4e"/>
      <use xlink:href="#DejaVuSans-20" x="74.804688"/>
      <use xlink:href="#DejaVuSans-62" x="106.591797"/>
      <use xlink:href="#DejaVuSans-61" x="170.068359"/>
      <use xlink:href="#DejaVuSans-6c" x="231.347656"/>
      <use xlink:href="#DejaVuSans-6c" x="259.130859"/>
      <use xlink:href="#DejaVuSans-73" x="286.914062"/>
      <use xlink:href="#DejaVuSans-2c" x="339.013672"/>
      <use xlink:href="#DejaVuSans-20" x="370.800781"/>
      <use xlink:href="#DejaVuSans-6e" x="402.587891"/>
      <use xlink:href="#DejaVuSans-20" x="465.966797"/>
      <use xlink:href="#DejaVuSans-62" x="497.753906"/>
      <use xlink:href="#DejaVuSans-6c" x="561.230469"/>
      <use xlink:href="#DejaVuSans-75" x="589.013672"/>
      <use xlink:href="#DejaVuSans-65" x="652.392578"/>
      <use xlink:href="#DejaVuSans-2c" x="713.916016"/>
      <use xlink:href="#DejaVuSans-20" x="745.703125"/>
      <use xlink:href="#DejaVuSans-72" x="777.490234"/>
      <use xlink:href="#DejaVuSans-20" x="818.603516"/>
      <use xlink:href="#DejaVuSans-64" x="850.390625"/>
      <use xlink:href="#DejaVuSans-72" x="913.867188"/>
      <use xlink:href="#DejaVuSans-61" x="954.980469"/>
      <use xlink:href="#DejaVuSans-77" x="1016.259766"/>
      <use xlink:href="#DejaVuSans-73" x="1098.046875"/>
     </g>
    </g>
    <g id="patch_209">
     <path d="M 297.989062 90.67125 
L 317.989062 90.67125 
L 317.989062 83.67125 
L 297.989062 83.67125 
z
" style="fill: #ff7f0e; opacity: 0.5"/>
    </g>
    <g id="text_20">
     <!-- binomial -->
     <g transform="translate(325.989062 84.0325)scale(0.1 -0.1)">
      <use xlink:href="#DejaVuSans-62"/>
      <use xlink:href="#DejaVuSans-69" x="63.476562"/>
      <use xlink:href="#DejaVuSans-6e" x="91.259766"/>
      <use xlink:href="#DejaVuSans-6f" x="154.638672"/>
      <use xlink:href="#DejaVuSans-6d" x="215.820312"/>
      <use xlink:href="#DejaVuSans-69" x="313.232422"/>
      <use xlink:href="#DejaVuSans-61" x="341.015625"/>
      <use xlink:href="#DejaVuSans-6c" x="402.294922"/>
     </g>
     <!-- r trials, p = n/N -->
     <g transform="translate(325.989062 95.230312)scale(0.1 -0.1)">
      <defs>
       <path id="DejaVuSans-2f" d="M 1625 4666 
L 2156 4666 
L 531 -594 
L 0 -594 
L 1625 4666 
z
" transform="scale(0.015625)"/>
      </defs>
      <use xlink:href="#DejaVuSans-72"/>
      <use xlink:href="#DejaVuSans-20" x="41.113281"/>
      <use xlink:href="#DejaVuSans-74" x="72.900391"/>
      <use xlink:href="#DejaVuSans-72" x="112.109375"/>
      <use xlink:href="#DejaVuSans-69" x="153.222656"/>
      <use xlink:href="#DejaVuSans-61" x="181.005859"/>
      <use xlink:href="#DejaVuSans-6c" x="242.285156"/>
      <use xlink:href="#DejaVuSans-73" x="270.068359"/>
      <use xlink:href="#DejaVuSans-2c" x="322.167969"/>
      <use xlink:href="#DejaVuSans-20" x="353.955078"/>
      <use xlink:href="#DejaVuSans-70" x="385.742188"/>
      <use xlink:href="#DejaVuSans-20" x="449.21875"/>
      <use xlink:href="#DejaVuSans-3d" x="481.005859"/>
      <use xlink:href="#DejaVuSans-20" x="564.794922"/>
      <use xlink:href="#DejaVuSans-6e" x="596.582031"/>
      <use xlink:href="#DejaVuSans-2f" x="659.960938"/>
      <use xlink:href="#DejaVuSans-4e" x="693.652344"/>
     </g>
    </g>
   </g>
  </g>
 </g>
 <defs>
  <clipPath id="p0c7acf91ca">
   <rect x="39.94" y="26.88" width="410.06" height="265.096"/>
  </clipPath>
 </defs>
</svg>
