<?xml version="1.0" encoding="utf-8" standalone="no"?>
<!DOCTYPE svg PUBLIC "-//W3C//DTD SVG 1.1//EN"
  "http://www.w3.org/Graphics/SVG/1.1/DTD/svg11.dtd">
<svg xmlns:xlink="http://www.w3.org/1999/xlink" width="504pt" height="360pt" viewBox="0 0 504 360" xmlns="http://www.w3.org/2000/svg" version="1.1">
 <metadata>
  <rdf:RDF xmlns:dc="http://purl.org/dc/elements/1.1/" xmlns:cc="http://creativecommons.org/ns#" xmlns:rdf="http://www.w3.org/1999/02/22-rdf-syntax-ns#">
   <cc:Work>
    <dc:type rdf:resource="http://purl.org/dc/dcmitype/StillImage"/>
    <dc:date>2024-02-10T17:47:08.119826</dc:date>
    <dc:format>image/svg+xml</dc:format>
    <dc:creator>
     <cc:Agent>
      <dc:title>Matplotlib v3.5.1, https://matplotlib.org/</dc:title>
     </cc:Agent>
    </dc:creator>
   </cc:Work>
  </rdf:RDF>
 </metadata>
 <defs>
  <style type="text/css">*{stroke-linejoin: round; stroke-linecap: butt}</style>
 </defs>
 <g id="figure_1">
  <g id="patch_1">
   <path d="M 0 360 
L 504 360 
L 504 0 
L 0 0 
z
" style="fill: #ffffff"/>
  </g>
  <g id="axes_1">
   <g id="patch_2">
    <path d="M 60.32 164.392 
L 248.965744 164.392 
L 248.965744 68.784 
L 60.32 68.784 
z
" style="fill: #ffffff"/>
   </g>
   <g id="patch_3">
    <path d="M 68.894807 164.392 
L 81.598224 164.392 
L 81.598224 82.442286 
L 68.894807 82.442286 
z
" clip-path="url(#pbc549e6ad9)" style="fill: #1f77b4"/>
   </g>
   <g id="patch_4">
    <path d="M 84.774078 164.392 
L 97.477495 164.392 
L 97.477495 73.336762 
L 84.774078 73.336762 
z
" clip-path="url(#pbc549e6ad9)" style="fill: #1f77b4"/>
   </g>
   <g id="patch_5">
    <path d="M 100.653349 164.392 
L 113.356766 164.392 
L 113.356766 118.864381 
L 100.653349 118.864381 
z
" clip-path="url(#pbc549e6ad9)" style="fill: #1f77b4"/>
   </g>
   <g id="patch_6">
    <path d="M 116.532621 164.392 
L 129.236038 164.392 
L 129.236038 150.902335 
L 116.532621 150.902335 
z
" clip-path="url(#pbc549e6ad9)" style="fill: #1f77b4"/>
   </g>
   <g id="patch_7">
    <path d="M 132.411892 164.392 
L 145.115309 164.392 
L 145.115309 161.76901 
L 132.411892 161.76901 
z
" clip-path="url(#pbc549e6ad9)" style="fill: #1f77b4"/>
   </g>
   <g id="patch_8">
    <path d="M 148.291163 164.392 
L 160.99458 164.392 
L 160.99458 164.042268 
L 148.291163 164.042268 
z
" clip-path="url(#pbc549e6ad9)" style="fill: #1f77b4"/>
   </g>
   <g id="patch_9">
    <path d="M 164.170435 164.392 
L 176.873852 164.392 
L 176.873852 164.359617 
L 164.170435 164.359617 
z
" clip-path="url(#pbc549e6ad9)" style="fill: #1f77b4"/>
   </g>
   <g id="patch_10">
    <path d="M 180.049706 164.392 
L 192.753123 164.392 
L 192.753123 164.389944 
L 180.049706 164.389944 
z
" clip-path="url(#pbc549e6ad9)" style="fill: #1f77b4"/>
   </g>
   <g id="patch_11">
    <path d="M 195.928977 164.392 
L 208.632395 164.392 
L 208.632395 164.391914 
L 195.928977 164.391914 
z
" clip-path="url(#pbc549e6ad9)" style="fill: #1f77b4"/>
   </g>
   <g id="patch_12">
    <path d="M 211.808249 164.392 
L 224.511666 164.392 
L 224.511666 164.391998 
L 211.808249 164.391998 
z
" clip-path="url(#pbc549e6ad9)" style="fill: #1f77b4"/>
   </g>
   <g id="patch_13">
    <path d="M 227.68752 164.392 
L 240.390937 164.392 
L 240.390937 164.392 
L 227.68752 164.392 
z
" clip-path="url(#pbc549e6ad9)" style="fill: #1f77b4"/>
   </g>
   <g id="matplotlib.axis_1">
    <g id="xtick_1">
     <g id="line2d_1">
      <defs>
       <path id="mad1380682f" d="M 0 0 
L 0 3.5 
" style="stroke: #000000; stroke-width: 0.8"/>
      </defs>
      <g>
       <use xlink:href="#mad1380682f" x="75.246515" y="164.392" style="stroke: #000000; stroke-width: 0.8"/>
      </g>
     </g>
     <g id="text_1">
      <!-- 0 -->
      <g transform="translate(72.065265 178.990437)scale(0.1 -0.1)">
       <defs>
        <path id="DejaVuSans-30" d="M 2034 4250 
Q 1547 4250 1301 3770 
Q 1056 3291 1056 2328 
Q 1056 1369 1301 889 
Q 1547 409 2034 409 
Q 2525 409 2770 889 
Q 3016 1369 3016 2328 
Q 3016 3291 2770 3770 
Q 2525 4250 2034 4250 
z
M 2034 4750 
Q 2819 4750 3233 4129 
Q 3647 3509 3647 2328 
Q 3647 1150 3233 529 
Q 2819 -91 2034 -91 
Q 1250 -91 836 529 
Q 422 1150 422 2328 
Q 422 3509 836 4129 
Q 1250 4750 2034 4750 
z
" transform="scale(0.015625)"/>
       </defs>
       <use xlink:href="#DejaVuSans-30"/>
      </g>
     </g>
    </g>
    <g id="xtick_2">
     <g id="line2d_2">
      <g>
       <use xlink:href="#mad1380682f" x="107.005058" y="164.392" style="stroke: #000000; stroke-width: 0.8"/>
      </g>
     </g>
     <g id="text_2">
      <!-- 2 -->
      <g transform="translate(103.823808 178.990437)scale(0.1 -0.1)">
       <defs>
        <path id="DejaVuSans-32" d="M 1228 531 
L 3431 531 
L 3431 0 
L 469 0 
L 469 531 
Q 828 903 1448 1529 
Q 2069 2156 2228 2338 
Q 2531 2678 2651 2914 
Q 2772 3150 2772 3378 
Q 2772 3750 2511 3984 
Q 2250 4219 1831 4219 
Q 1534 4219 1204 4116 
Q 875 4013 500 3803 
L 500 4441 
Q 881 4594 1212 4672 
Q 1544 4750 1819 4750 
Q 2544 4750 2975 4387 
Q 3406 4025 3406 3419 
Q 3406 3131 3298 2873 
Q 3191 2616 2906 2266 
Q 2828 2175 2409 1742 
Q 1991 1309 1228 531 
z
" transform="scale(0.015625)"/>
       </defs>
       <use xlink:href="#DejaVuSans-32"/>
      </g>
     </g>
    </g>
    <g id="xtick_3">
     <g id="line2d_3">
      <g>
       <use xlink:href="#mad1380682f" x="138.763601" y="164.392" style="stroke: #000000; stroke-width: 0.8"/>
      </g>
     </g>
     <g id="text_3">
      <!-- 4 -->
      <g transform="translate(135.582351 178.990437)scale(0.1 -0.1)">
       <defs>
        <path id="DejaVuSans-34" d="M 2419 4116 
L 825 1625 
L 2419 1625 
L 2419 4116 
z
M 2253 4666 
L 3047 4666 
L 3047 1625 
L 3713 1625 
L 3713 1100 
L 3047 1100 
L 3047 0 
L 2419 0 
L 2419 1100 
L 313 1100 
L 313 1709 
L 2253 4666 
z
" transform="scale(0.015625)"/>
       </defs>
       <use xlink:href="#DejaVuSans-34"/>
      </g>
     </g>
    </g>
    <g id="xtick_4">
     <g id="line2d_4">
      <g>
       <use xlink:href="#mad1380682f" x="170.522143" y="164.392" style="stroke: #000000; stroke-width: 0.8"/>
      </g>
     </g>
     <g id="text_4">
      <!-- 6 -->
      <g transform="translate(167.340893 178.990437)scale(0.1 -0.1)">
       <defs>
        <path id="DejaVuSans-36" d="M 2113 2584 
Q 1688 2584 1439 2293 
Q 1191 2003 1191 1497 
Q 1191 994 1439 701 
Q 1688 409 2113 409 
Q 2538 409 2786 701 
Q 3034 994 3034 1497 
Q 3034 2003 2786 2293 
Q 2538 2584 2113 2584 
z
M 3366 4563 
L 3366 3988 
Q 3128 4100 2886 4159 
Q 2644 4219 2406 4219 
Q 1781 4219 1451 3797 
Q 1122 3375 1075 2522 
Q 1259 2794 1537 2939 
Q 1816 3084 2150 3084 
Q 2853 3084 3261 2657 
Q 3669 2231 3669 1497 
Q 3669 778 3244 343 
Q 2819 -91 2113 -91 
Q 1303 -91 875 529 
Q 447 1150 447 2328 
Q 447 3434 972 4092 
Q 1497 4750 2381 4750 
Q 2619 4750 2861 4703 
Q 3103 4656 3366 4563 
z
" transform="scale(0.015625)"/>
       </defs>
       <use xlink:href="#DejaVuSans-36"/>
      </g>
     </g>
    </g>
    <g id="xtick_5">
     <g id="line2d_5">
      <g>
       <use xlink:href="#mad1380682f" x="202.280686" y="164.392" style="stroke: #000000; stroke-width: 0.8"/>
      </g>
     </g>
     <g id="text_5">
      <!-- 8 -->
      <g transform="translate(199.099436 178.990437)scale(0.1 -0.1)">
       <defs>
        <path id="DejaVuSans-38" d="M 2034 2216 
Q 1584 2216 1326 1975 
Q 1069 1734 1069 1313 
Q 1069 891 1326 650 
Q 1584 409 2034 409 
Q 2484 409 2743 651 
Q 3003 894 3003 1313 
Q 3003 1734 2745 1975 
Q 2488 2216 2034 2216 
z
M 1403 2484 
Q 997 2584 770 2862 
Q 544 3141 544 3541 
Q 544 4100 942 4425 
Q 1341 4750 2034 4750 
Q 2731 4750 3128 4425 
Q 3525 4100 3525 3541 
Q 3525 3141 3298 2862 
Q 3072 2584 2669 2484 
Q 3125 2378 3379 2068 
Q 3634 1759 3634 1313 
Q 3634 634 3220 271 
Q 2806 -91 2034 -91 
Q 1263 -91 848 271 
Q 434 634 434 1313 
Q 434 1759 690 2068 
Q 947 2378 1403 2484 
z
M 1172 3481 
Q 1172 3119 1398 2916 
Q 1625 2713 2034 2713 
Q 2441 2713 2670 2916 
Q 2900 3119 2900 3481 
Q 2900 3844 2670 4047 
Q 2441 4250 2034 4250 
Q 1625 4250 1398 4047 
Q 1172 3844 1172 3481 
z
" transform="scale(0.015625)"/>
       </defs>
       <use xlink:href="#DejaVuSans-38"/>
      </g>
     </g>
    </g>
    <g id="xtick_6">
     <g id="line2d_6">
      <g>
       <use xlink:href="#mad1380682f" x="234.039229" y="164.392" style="stroke: #000000; stroke-width: 0.8"/>
      </g>
     </g>
     <g id="text_6">
      <!-- 10 -->
      <g transform="translate(227.676729 178.990437)scale(0.1 -0.1)">
       <defs>
        <path id="DejaVuSans-31" d="M 794 531 
L 1825 531 
L 1825 4091 
L 703 3866 
L 703 4441 
L 1819 4666 
L 2450 4666 
L 2450 531 
L 3481 531 
L 3481 0 
L 794 0 
L 794 531 
z
" transform="scale(0.015625)"/>
       </defs>
       <use xlink:href="#DejaVuSans-31"/>
       <use xlink:href="#DejaVuSans-30" x="63.623047"/>
      </g>
     </g>
    </g>
    <g id="text_7">
     <!-- k -->
     <g transform="translate(151.747559 192.668562)scale(0.1 -0.1)">
      <defs>
       <path id="DejaVuSans-6b" d="M 581 4863 
L 1159 4863 
L 1159 1991 
L 2875 3500 
L 3609 3500 
L 1753 1863 
L 3688 0 
L 2938 0 
L 1159 1709 
L 1159 0 
L 581 0 
L 581 4863 
z
" transform="scale(0.015625)"/>
      </defs>
      <use xlink:href="#DejaVuSans-6b"/>
     </g>
    </g>
   </g>
   <g id="matplotlib.axis_2">
    <g id="ytick_1">
     <g id="line2d_7">
      <defs>
       <path id="m17a9d03860" d="M 0 0 
L -3.5 0 
" style="stroke: #000000; stroke-width: 0.8"/>
      </defs>
      <g>
       <use xlink:href="#m17a9d03860" x="60.32" y="164.392" style="stroke: #000000; stroke-width: 0.8"/>
      </g>
     </g>
     <g id="text_8">
      <!-- 0.0 -->
      <g transform="translate(37.416875 168.191219)scale(0.1 -0.1)">
       <defs>
        <path id="DejaVuSans-2e" d="M 684 794 
L 1344 794 
L 1344 0 
L 684 0 
L 684 794 
z
" transform="scale(0.015625)"/>
       </defs>
       <use xlink:href="#DejaVuSans-30"/>
       <use xlink:href="#DejaVuSans-2e" x="63.623047"/>
       <use xlink:href="#DejaVuSans-30" x="95.410156"/>
      </g>
     </g>
    </g>
    <g id="ytick_2">
     <g id="line2d_8">
      <g>
       <use xlink:href="#m17a9d03860" x="60.32" y="117.386103" style="stroke: #000000; stroke-width: 0.8"/>
      </g>
     </g>
     <g id="text_9">
      <!-- 0.2 -->
      <g transform="translate(37.416875 121.185322)scale(0.1 -0.1)">
       <use xlink:href="#DejaVuSans-30"/>
       <use xlink:href="#DejaVuSans-2e" x="63.623047"/>
       <use xlink:href="#DejaVuSans-32" x="95.410156"/>
      </g>
     </g>
    </g>
    <g id="ytick_3">
     <g id="line2d_9">
      <g>
       <use xlink:href="#m17a9d03860" x="60.32" y="70.380206" style="stroke: #000000; stroke-width: 0.8"/>
      </g>
     </g>
     <g id="text_10">
      <!-- 0.4 -->
      <g transform="translate(37.416875 74.179425)scale(0.1 -0.1)">
       <use xlink:href="#DejaVuSans-30"/>
       <use xlink:href="#DejaVuSans-2e" x="63.623047"/>
       <use xlink:href="#DejaVuSans-34" x="95.410156"/>
      </g>
     </g>
    </g>
    <g id="text_11">
     <!-- P(X=k) -->
     <g transform="translate(31.337188 134.014562)rotate(-90)scale(0.1 -0.1)">
      <defs>
       <path id="DejaVuSans-50" d="M 1259 4147 
L 1259 2394 
L 2053 2394 
Q 2494 2394 2734 2622 
Q 2975 2850 2975 3272 
Q 2975 3691 2734 3919 
Q 2494 4147 2053 4147 
L 1259 4147 
z
M 628 4666 
L 2053 4666 
Q 2838 4666 3239 4311 
Q 3641 3956 3641 3272 
Q 3641 2581 3239 2228 
Q 2838 1875 2053 1875 
L 1259 1875 
L 1259 0 
L 628 0 
L 628 4666 
z
" transform="scale(0.015625)"/>
       <path id="DejaVuSans-28" d="M 1984 4856 
Q 1566 4138 1362 3434 
Q 1159 2731 1159 2009 
Q 1159 1288 1364 580 
Q 1569 -128 1984 -844 
L 1484 -844 
Q 1016 -109 783 600 
Q 550 1309 550 2009 
Q 550 2706 781 3412 
Q 1013 4119 1484 4856 
L 1984 4856 
z
" transform="scale(0.015625)"/>
       <path id="DejaVuSans-58" d="M 403 4666 
L 1081 4666 
L 2241 2931 
L 3406 4666 
L 4084 4666 
L 2584 2425 
L 4184 0 
L 3506 0 
L 2194 1984 
L 872 0 
L 191 0 
L 1856 2491 
L 403 4666 
z
" transform="scale(0.015625)"/>
       <path id="DejaVuSans-3d" d="M 678 2906 
L 4684 2906 
L 4684 2381 
L 678 2381 
L 678 2906 
z
M 678 1631 
L 4684 1631 
L 4684 1100 
L 678 1100 
L 678 1631 
z
" transform="scale(0.015625)"/>
       <path id="DejaVuSans-29" d="M 513 4856 
L 1013 4856 
Q 1481 4119 1714 3412 
Q 1947 2706 1947 2009 
Q 1947 1309 1714 600 
Q 1481 -109 1013 -844 
L 513 -844 
Q 928 -128 1133 580 
Q 1338 1288 1338 2009 
Q 1338 2731 1133 3434 
Q 928 4138 513 4856 
z
" transform="scale(0.015625)"/>
      </defs>
      <use xlink:href="#DejaVuSans-50"/>
      <use xlink:href="#DejaVuSans-28" x="60.302734"/>
      <use xlink:href="#DejaVuSans-58" x="99.316406"/>
      <use xlink:href="#DejaVuSans-3d" x="167.822266"/>
      <use xlink:href="#DejaVuSans-6b" x="251.611328"/>
      <use xlink:href="#DejaVuSans-29" x="309.521484"/>
     </g>
    </g>
   </g>
   <g id="patch_14">
    <path d="M 60.32 164.392 
L 60.32 68.784 
" style="fill: none; stroke: #000000; stroke-width: 0.8; stroke-linejoin: miter; stroke-linecap: square"/>
   </g>
   <g id="patch_15">
    <path d="M 248.965744 164.392 
L 248.965744 68.784 
" style="fill: none; stroke: #000000; stroke-width: 0.8; stroke-linejoin: miter; stroke-linecap: square"/>
   </g>
   <g id="patch_16">
    <path d="M 60.32 164.392 
L 248.965744 164.392 
" style="fill: none; stroke: #000000; stroke-width: 0.8; stroke-linejoin: miter; stroke-linecap: square"/>
   </g>
   <g id="patch_17">
    <path d="M 60.32 68.784 
L 248.965744 68.784 
" style="fill: none; stroke: #000000; stroke-width: 0.8; stroke-linejoin: miter; stroke-linecap: square"/>
   </g>
   <g id="text_12">
    <!-- N=10, mu=0.1 -->
    <g transform="translate(109.460997 62.784)scale(0.12 -0.12)">
     <defs>
      <path id="DejaVuSans-4e" d="M 628 4666 
L 1478 4666 
L 3547 763 
L 3547 4666 
L 4159 4666 
L 4159 0 
L 3309 0 
L 1241 3903 
L 1241 0 
L 628 0 
L 628 4666 
z
" transform="scale(0.015625)"/>
      <path id="DejaVuSans-2c" d="M 750 794 
L 1409 794 
L 1409 256 
L 897 -744 
L 494 -744 
L 750 256 
L 750 794 
z
" transform="scale(0.015625)"/>
      <path id="DejaVuSans-20" transform="scale(0.015625)"/>
      <path id="DejaVuSans-6d" d="M 3328 2828 
Q 3544 3216 3844 3400 
Q 4144 3584 4550 3584 
Q 5097 3584 5394 3201 
Q 5691 2819 5691 2113 
L 5691 0 
L 5113 0 
L 5113 2094 
Q 5113 2597 4934 2840 
Q 4756 3084 4391 3084 
Q 3944 3084 3684 2787 
Q 3425 2491 3425 1978 
L 3425 0 
L 2847 0 
L 2847 2094 
Q 2847 2600 2669 2842 
Q 2491 3084 2119 3084 
Q 1678 3084 1418 2786 
Q 1159 2488 1159 1978 
L 1159 0 
L 581 0 
L 581 3500 
L 1159 3500 
L 1159 2956 
Q 1356 3278 1631 3431 
Q 1906 3584 2284 3584 
Q 2666 3584 2933 3390 
Q 3200 3197 3328 2828 
z
" transform="scale(0.015625)"/>
      <path id="DejaVuSans-75" d="M 544 1381 
L 544 3500 
L 1119 3500 
L 1119 1403 
Q 1119 906 1312 657 
Q 1506 409 1894 409 
Q 2359 409 2629 706 
Q 2900 1003 2900 1516 
L 2900 3500 
L 3475 3500 
L 3475 0 
L 2900 0 
L 2900 538 
Q 2691 219 2414 64 
Q 2138 -91 1772 -91 
Q 1169 -91 856 284 
Q 544 659 544 1381 
z
M 1991 3584 
L 1991 3584 
z
" transform="scale(0.015625)"/>
     </defs>
     <use xlink:href="#DejaVuSans-4e"/>
     <use xlink:href="#DejaVuSans-3d" x="74.804688"/>
     <use xlink:href="#DejaVuSans-31" x="158.59375"/>
     <use xlink:href="#DejaVuSans-30" x="222.216797"/>
     <use xlink:href="#DejaVuSans-2c" x="285.839844"/>
     <use xlink:href="#DejaVuSans-20" x="317.626953"/>
     <use xlink:href="#DejaVuSans-6d" x="349.414062"/>
     <use xlink:href="#DejaVuSans-75" x="446.826172"/>
     <use xlink:href="#DejaVuSans-3d" x="510.205078"/>
     <use xlink:href="#DejaVuSans-30" x="593.994141"/>
     <use xlink:href="#DejaVuSans-2e" x="657.617188"/>
     <use xlink:href="#DejaVuSans-31" x="689.404297"/>
    </g>
   </g>
  </g>
  <g id="axes_2">
   <g id="patch_18">
    <path d="M 303.77 164.392 
L 492.415744 164.392 
L 492.415744 68.784 
L 303.77 68.784 
z
" style="fill: #ffffff"/>
   </g>
   <g id="patch_19">
    <path d="M 312.344807 164.392 
L 325.048224 164.392 
L 325.048224 164.03067 
L 312.344807 164.03067 
z
" clip-path="url(#p921274c6f9)" style="fill: #1f77b4"/>
   </g>
   <g id="patch_20">
    <path d="M 328.224078 164.392 
L 340.927495 164.392 
L 340.927495 160.778697 
L 328.224078 160.778697 
z
" clip-path="url(#p921274c6f9)" style="fill: #1f77b4"/>
   </g>
   <g id="patch_21">
    <path d="M 344.103349 164.392 
L 356.806766 164.392 
L 356.806766 148.132136 
L 344.103349 148.132136 
z
" clip-path="url(#p921274c6f9)" style="fill: #1f77b4"/>
   </g>
   <g id="patch_22">
    <path d="M 359.982621 164.392 
L 372.686038 164.392 
L 372.686038 121.032363 
L 359.982621 121.032363 
z
" clip-path="url(#p921274c6f9)" style="fill: #1f77b4"/>
   </g>
   <g id="patch_23">
    <path d="M 375.861892 164.392 
L 388.565309 164.392 
L 388.565309 88.512635 
L 375.861892 88.512635 
z
" clip-path="url(#p921274c6f9)" style="fill: #1f77b4"/>
   </g>
   <g id="patch_24">
    <path d="M 391.741163 164.392 
L 404.44458 164.392 
L 404.44458 73.336762 
L 391.741163 73.336762 
z
" clip-path="url(#p921274c6f9)" style="fill: #1f77b4"/>
   </g>
   <g id="patch_25">
    <path d="M 407.620435 164.392 
L 420.323852 164.392 
L 420.323852 88.512635 
L 407.620435 88.512635 
z
" clip-path="url(#p921274c6f9)" style="fill: #1f77b4"/>
   </g>
   <g id="patch_26">
    <path d="M 423.499706 164.392 
L 436.203123 164.392 
L 436.203123 121.032363 
L 423.499706 121.032363 
z
" clip-path="url(#p921274c6f9)" style="fill: #1f77b4"/>
   </g>
   <g id="patch_27">
    <path d="M 439.378977 164.392 
L 452.082395 164.392 
L 452.082395 148.132136 
L 439.378977 148.132136 
z
" clip-path="url(#p921274c6f9)" style="fill: #1f77b4"/>
   </g>
   <g id="patch_28">
    <path d="M 455.258249 164.392 
L 467.961666 164.392 
L 467.961666 160.778697 
L 455.258249 160.778697 
z
" clip-path="url(#p921274c6f9)" style="fill: #1f77b4"/>
   </g>
   <g id="patch_29">
    <path d="M 471.13752 164.392 
L 483.840937 164.392 
L 483.840937 164.03067 
L 471.13752 164.03067 
z
" clip-path="url(#p921274c6f9)" style="fill: #1f77b4"/>
   </g>
   <g id="matplotlib.axis_3">
    <g id="xtick_7">
     <g id="line2d_10">
      <g>
       <use xlink:href="#mad1380682f" x="318.696515" y="164.392" style="stroke: #000000; stroke-width: 0.8"/>
      </g>
     </g>
     <g id="text_13">
      <!-- 0 -->
      <g transform="translate(315.515265 178.990437)scale(0.1 -0.1)">
       <use xlink:href="#DejaVuSans-30"/>
      </g>
     </g>
    </g>
    <g id="xtick_8">
     <g id="line2d_11">
      <g>
       <use xlink:href="#mad1380682f" x="350.455058" y="164.392" style="stroke: #000000; stroke-width: 0.8"/>
      </g>
     </g>
     <g id="text_14">
      <!-- 2 -->
      <g transform="translate(347.273808 178.990437)scale(0.1 -0.1)">
       <use xlink:href="#DejaVuSans-32"/>
      </g>
     </g>
    </g>
    <g id="xtick_9">
     <g id="line2d_12">
      <g>
       <use xlink:href="#mad1380682f" x="382.213601" y="164.392" style="stroke: #000000; stroke-width: 0.8"/>
      </g>
     </g>
     <g id="text_15">
      <!-- 4 -->
      <g transform="translate(379.032351 178.990437)scale(0.1 -0.1)">
       <use xlink:href="#DejaVuSans-34"/>
      </g>
     </g>
    </g>
    <g id="xtick_10">
     <g id="line2d_13">
      <g>
       <use xlink:href="#mad1380682f" x="413.972143" y="164.392" style="stroke: #000000; stroke-width: 0.8"/>
      </g>
     </g>
     <g id="text_16">
      <!-- 6 -->
      <g transform="translate(410.790893 178.990437)scale(0.1 -0.1)">
       <use xlink:href="#DejaVuSans-36"/>
      </g>
     </g>
    </g>
    <g id="xtick_11">
     <g id="line2d_14">
      <g>
       <use xlink:href="#mad1380682f" x="445.730686" y="164.392" style="stroke: #000000; stroke-width: 0.8"/>
      </g>
     </g>
     <g id="text_17">
      <!-- 8 -->
      <g transform="translate(442.549436 178.990437)scale(0.1 -0.1)">
       <use xlink:href="#DejaVuSans-38"/>
      </g>
     </g>
    </g>
    <g id="xtick_12">
     <g id="line2d_15">
      <g>
       <use xlink:href="#mad1380682f" x="477.489229" y="164.392" style="stroke: #000000; stroke-width: 0.8"/>
      </g>
     </g>
     <g id="text_18">
      <!-- 10 -->
      <g transform="translate(471.126729 178.990437)scale(0.1 -0.1)">
       <use xlink:href="#DejaVuSans-31"/>
       <use xlink:href="#DejaVuSans-30" x="63.623047"/>
      </g>
     </g>
    </g>
    <g id="text_19">
     <!-- k -->
     <g transform="translate(395.197559 192.668562)scale(0.1 -0.1)">
      <use xlink:href="#DejaVuSans-6b"/>
     </g>
    </g>
   </g>
   <g id="matplotlib.axis_4">
    <g id="ytick_4">
     <g id="line2d_16">
      <g>
       <use xlink:href="#m17a9d03860" x="303.77" y="164.392" style="stroke: #000000; stroke-width: 0.8"/>
      </g>
     </g>
     <g id="text_20">
      <!-- 0.0 -->
      <g transform="translate(280.866875 168.191219)scale(0.1 -0.1)">
       <use xlink:href="#DejaVuSans-30"/>
       <use xlink:href="#DejaVuSans-2e" x="63.623047"/>
       <use xlink:href="#DejaVuSans-30" x="95.410156"/>
      </g>
     </g>
    </g>
    <g id="ytick_5">
     <g id="line2d_17">
      <g>
       <use xlink:href="#m17a9d03860" x="303.77" y="127.391776" style="stroke: #000000; stroke-width: 0.8"/>
      </g>
     </g>
     <g id="text_21">
      <!-- 0.1 -->
      <g transform="translate(280.866875 131.190995)scale(0.1 -0.1)">
       <use xlink:href="#DejaVuSans-30"/>
       <use xlink:href="#DejaVuSans-2e" x="63.623047"/>
       <use xlink:href="#DejaVuSans-31" x="95.410156"/>
      </g>
     </g>
    </g>
    <g id="ytick_6">
     <g id="line2d_18">
      <g>
       <use xlink:href="#m17a9d03860" x="303.77" y="90.391553" style="stroke: #000000; stroke-width: 0.8"/>
      </g>
     </g>
     <g id="text_22">
      <!-- 0.2 -->
      <g transform="translate(280.866875 94.190771)scale(0.1 -0.1)">
       <use xlink:href="#DejaVuSans-30"/>
       <use xlink:href="#DejaVuSans-2e" x="63.623047"/>
       <use xlink:href="#DejaVuSans-32" x="95.410156"/>
      </g>
     </g>
    </g>
    <g id="text_23">
     <!-- P(X=k) -->
     <g transform="translate(274.787188 134.014562)rotate(-90)scale(0.1 -0.1)">
      <use xlink:href="#DejaVuSans-50"/>
      <use xlink:href="#DejaVuSans-28" x="60.302734"/>
      <use xlink:href="#DejaVuSans-58" x="99.316406"/>
      <use xlink:href="#DejaVuSans-3d" x="167.822266"/>
      <use xlink:href="#DejaVuSans-6b" x="251.611328"/>
      <use xlink:href="#DejaVuSans-29" x="309.521484"/>
     </g>
    </g>
   </g>
   <g id="patch_30">
    <path d="M 303.77 164.392 
L 303.77 68.784 
" style="fill: none; stroke: #000000; stroke-width: 0.8; stroke-linejoin: miter; stroke-linecap: square"/>
   </g>
   <g id="patch_31">
    <path d="M 492.415744 164.392 
L 492.415744 68.784 
" style="fill: none; stroke: #000000; stroke-width: 0.8; stroke-linejoin: miter; stroke-linecap: square"/>
   </g>
   <g id="patch_32">
    <path d="M 303.77 164.392 
L 492.415744 164.392 
" style="fill: none; stroke: #000000; stroke-width: 0.8; stroke-linejoin: miter; stroke-linecap: square"/>
   </g>
   <g id="patch_33">
    <path d="M 303.77 68.784 
L 492.415744 68.784 
" style="fill: none; stroke: #000000; stroke-width: 0.8; stroke-linejoin: miter; stroke-linecap: square"/>
   </g>
   <g id="text_24">
    <!-- N=10, mu=0.5 -->
    <g transform="translate(352.910997 62.784)scale(0.12 -0.12)">
     <defs>
      <path id="DejaVuSans-35" d="M 691 4666 
L 3169 4666 
L 3169 4134 
L 1269 4134 
L 1269 2991 
Q 1406 3038 1543 3061 
Q 1681 3084 1819 3084 
Q 2600 3084 3056 2656 
Q 3513 2228 3513 1497 
Q 3513 744 3044 326 
Q 2575 -91 1722 -91 
Q 1428 -91 1123 -41 
Q 819 9 494 109 
L 494 744 
Q 775 591 1075 516 
Q 1375 441 1709 441 
Q 2250 441 2565 725 
Q 2881 1009 2881 1497 
Q 2881 1984 2565 2268 
Q 2250 2553 1709 2553 
Q 1456 2553 1204 2497 
Q 953 2441 691 2322 
L 691 4666 
z
" transform="scale(0.015625)"/>
     </defs>
     <use xlink:href="#DejaVuSans-4e"/>
     <use xlink:href="#DejaVuSans-3d" x="74.804688"/>
     <use xlink:href="#DejaVuSans-31" x="158.59375"/>
     <use xlink:href="#DejaVuSans-30" x="222.216797"/>
     <use xlink:href="#DejaVuSans-2c" x="285.839844"/>
     <use xlink:href="#DejaVuSans-20" x="317.626953"/>
     <use xlink:href="#DejaVuSans-6d" x="349.414062"/>
     <use xlink:href="#DejaVuSans-75" x="446.826172"/>
     <use xlink:href="#DejaVuSans-3d" x="510.205078"/>
     <use xlink:href="#DejaVuSans-30" x="593.994141"/>
     <use xlink:href="#DejaVuSans-2e" x="657.617188"/>
     <use xlink:href="#DejaVuSans-35" x="689.404297"/>
    </g>
   </g>
  </g>
  <g id="axes_3">
   <g id="patch_34">
    <path d="M 60.32 318.04 
L 248.965744 318.04 
L 248.965744 222.432 
L 60.32 222.432 
z
" style="fill: #ffffff"/>
   </g>
   <g id="patch_35">
    <path d="M 68.894807 318.04 
L 70.255887 318.04 
L 70.255887 318.021659 
L 68.894807 318.021659 
z
" clip-path="url(#p7c8d744f93)" style="fill: #1f77b4"/>
   </g>
   <g id="patch_36">
    <path d="M 70.596157 318.04 
L 71.957237 318.04 
L 71.957237 317.83621 
L 70.596157 317.83621 
z
" clip-path="url(#p7c8d744f93)" style="fill: #1f77b4"/>
   </g>
   <g id="patch_37">
    <path d="M 72.297508 318.04 
L 73.658588 318.04 
L 73.658588 316.919155 
L 72.297508 316.919155 
z
" clip-path="url(#p7c8d744f93)" style="fill: #1f77b4"/>
   </g>
   <g id="patch_38">
    <path d="M 73.998858 318.04 
L 75.359938 318.04 
L 75.359938 313.971749 
L 73.998858 313.971749 
z
" clip-path="url(#p7c8d744f93)" style="fill: #1f77b4"/>
   </g>
   <g id="patch_39">
    <path d="M 75.700209 318.04 
L 77.061289 318.04 
L 77.061289 307.078325 
L 75.700209 307.078325 
z
" clip-path="url(#p7c8d744f93)" style="fill: #1f77b4"/>
   </g>
   <g id="patch_40">
    <path d="M 77.401559 318.04 
L 78.762639 318.04 
L 78.762639 294.655093 
L 77.401559 294.655093 
z
" clip-path="url(#p7c8d744f93)" style="fill: #1f77b4"/>
   </g>
   <g id="patch_41">
    <path d="M 79.10291 318.04 
L 80.46399 318.04 
L 80.46399 276.899886 
L 79.10291 276.899886 
z
" clip-path="url(#p7c8d744f93)" style="fill: #1f77b4"/>
   </g>
   <g id="patch_42">
    <path d="M 80.80426 318.04 
L 82.16534 318.04 
L 82.16534 256.656338 
L 80.80426 256.656338 
z
" clip-path="url(#p7c8d744f93)" style="fill: #1f77b4"/>
   </g>
   <g id="patch_43">
    <path d="M 82.505611 318.04 
L 83.866691 318.04 
L 83.866691 238.75277 
L 82.505611 238.75277 
z
" clip-path="url(#p7c8d744f93)" style="fill: #1f77b4"/>
   </g>
   <g id="patch_44">
    <path d="M 84.206961 318.04 
L 85.568041 318.04 
L 85.568041 227.985369 
L 84.206961 227.985369 
z
" clip-path="url(#p7c8d744f93)" style="fill: #1f77b4"/>
   </g>
   <g id="patch_45">
    <path d="M 85.908312 318.04 
L 87.269392 318.04 
L 87.269392 226.984762 
L 85.908312 226.984762 
z
" clip-path="url(#p7c8d744f93)" style="fill: #1f77b4"/>
   </g>
   <g id="patch_46">
    <path d="M 87.609662 318.04 
L 88.970742 318.04 
L 88.970742 235.262511 
L 87.609662 235.262511 
z
" clip-path="url(#p7c8d744f93)" style="fill: #1f77b4"/>
   </g>
   <g id="patch_47">
    <path d="M 89.311013 318.04 
L 90.672093 318.04 
L 90.672093 249.825217 
L 89.311013 249.825217 
z
" clip-path="url(#p7c8d744f93)" style="fill: #1f77b4"/>
   </g>
   <g id="patch_48">
    <path d="M 91.012363 318.04 
L 92.373443 318.04 
L 92.373443 266.733155 
L 91.012363 266.733155 
z
" clip-path="url(#p7c8d744f93)" style="fill: #1f77b4"/>
   </g>
   <g id="patch_49">
    <path d="M 92.713714 318.04 
L 94.074794 318.04 
L 94.074794 282.613845 
L 92.713714 282.613845 
z
" clip-path="url(#p7c8d744f93)" style="fill: #1f77b4"/>
   </g>
   <g id="patch_50">
    <path d="M 94.415064 318.04 
L 95.776144 318.04 
L 95.776144 295.472227 
L 94.415064 295.472227 
z
" clip-path="url(#p7c8d744f93)" style="fill: #1f77b4"/>
   </g>
   <g id="patch_51">
    <path d="M 96.116415 318.04 
L 97.477495 318.04 
L 97.477495 304.718745 
L 96.116415 304.718745 
z
" clip-path="url(#p7c8d744f93)" style="fill: #1f77b4"/>
   </g>
   <g id="patch_52">
    <path d="M 97.817765 318.04 
L 99.178845 318.04 
L 99.178845 310.72637 
L 97.817765 310.72637 
z
" clip-path="url(#p7c8d744f93)" style="fill: #1f77b4"/>
   </g>
   <g id="patch_53">
    <path d="M 99.519116 318.04 
L 100.880196 318.04 
L 100.880196 314.292893 
L 99.519116 314.292893 
z
" clip-path="url(#p7c8d744f93)" style="fill: #1f77b4"/>
   </g>
   <g id="patch_54">
    <path d="M 101.220466 318.04 
L 102.581547 318.04 
L 102.581547 316.243142 
L 101.220466 316.243142 
z
" clip-path="url(#p7c8d744f93)" style="fill: #1f77b4"/>
   </g>
   <g id="patch_55">
    <path d="M 102.921817 318.04 
L 104.282897 318.04 
L 104.282897 317.231414 
L 102.921817 317.231414 
z
" clip-path="url(#p7c8d744f93)" style="fill: #1f77b4"/>
   </g>
   <g id="patch_56">
    <path d="M 104.623167 318.04 
L 105.984248 318.04 
L 105.984248 317.697741 
L 104.623167 317.697741 
z
" clip-path="url(#p7c8d744f93)" style="fill: #1f77b4"/>
   </g>
   <g id="patch_57">
    <path d="M 106.324518 318.04 
L 107.685598 318.04 
L 107.685598 317.903442 
L 106.324518 317.903442 
z
" clip-path="url(#p7c8d744f93)" style="fill: #1f77b4"/>
   </g>
   <g id="patch_58">
    <path d="M 108.025868 318.04 
L 109.386949 318.04 
L 109.386949 317.988543 
L 108.025868 317.988543 
z
" clip-path="url(#p7c8d744f93)" style="fill: #1f77b4"/>
   </g>
   <g id="patch_59">
    <path d="M 109.727219 318.04 
L 111.088299 318.04 
L 111.088299 318.021657 
L 109.727219 318.021657 
z
" clip-path="url(#p7c8d744f93)" style="fill: #1f77b4"/>
   </g>
   <g id="patch_60">
    <path d="M 111.428569 318.04 
L 112.78965 318.04 
L 112.78965 318.033804 
L 111.428569 318.033804 
z
" clip-path="url(#p7c8d744f93)" style="fill: #1f77b4"/>
   </g>
   <g id="patch_61">
    <path d="M 113.12992 318.04 
L 114.491 318.04 
L 114.491 318.038014 
L 113.12992 318.038014 
z
" clip-path="url(#p7c8d744f93)" style="fill: #1f77b4"/>
   </g>
   <g id="patch_62">
    <path d="M 114.83127 318.04 
L 116.192351 318.04 
L 116.192351 318.039395 
L 114.83127 318.039395 
z
" clip-path="url(#p7c8d744f93)" style="fill: #1f77b4"/>
   </g>
   <g id="patch_63">
    <path d="M 116.532621 318.04 
L 117.893701 318.04 
L 117.893701 318.039825 
L 116.532621 318.039825 
z
" clip-path="url(#p7c8d744f93)" style="fill: #1f77b4"/>
   </g>
   <g id="patch_64">
    <path d="M 118.233971 318.04 
L 119.595052 318.04 
L 119.595052 318.039952 
L 118.233971 318.039952 
z
" clip-path="url(#p7c8d744f93)" style="fill: #1f77b4"/>
   </g>
   <g id="patch_65">
    <path d="M 119.935322 318.04 
L 121.296402 318.04 
L 121.296402 318.039987 
L 119.935322 318.039987 
z
" clip-path="url(#p7c8d744f93)" style="fill: #1f77b4"/>
   </g>
   <g id="patch_66">
    <path d="M 121.636672 318.04 
L 122.997753 318.04 
L 122.997753 318.039997 
L 121.636672 318.039997 
z
" clip-path="url(#p7c8d744f93)" style="fill: #1f77b4"/>
   </g>
   <g id="patch_67">
    <path d="M 123.338023 318.04 
L 124.699103 318.04 
L 124.699103 318.039999 
L 123.338023 318.039999 
z
" clip-path="url(#p7c8d744f93)" style="fill: #1f77b4"/>
   </g>
   <g id="patch_68">
    <path d="M 125.039373 318.04 
L 126.400454 318.04 
L 126.400454 318.04 
L 125.039373 318.04 
z
" clip-path="url(#p7c8d744f93)" style="fill: #1f77b4"/>
   </g>
   <g id="patch_69">
    <path d="M 126.740724 318.04 
L 128.101804 318.04 
L 128.101804 318.04 
L 126.740724 318.04 
z
" clip-path="url(#p7c8d744f93)" style="fill: #1f77b4"/>
   </g>
   <g id="patch_70">
    <path d="M 128.442074 318.04 
L 129.803155 318.04 
L 129.803155 318.04 
L 128.442074 318.04 
z
" clip-path="url(#p7c8d744f93)" style="fill: #1f77b4"/>
   </g>
   <g id="patch_71">
    <path d="M 130.143425 318.04 
L 131.504505 318.04 
L 131.504505 318.04 
L 130.143425 318.04 
z
" clip-path="url(#p7c8d744f93)" style="fill: #1f77b4"/>
   </g>
   <g id="patch_72">
    <path d="M 131.844775 318.04 
L 133.205856 318.04 
L 133.205856 318.04 
L 131.844775 318.04 
z
" clip-path="url(#p7c8d744f93)" style="fill: #1f77b4"/>
   </g>
   <g id="patch_73">
    <path d="M 133.546126 318.04 
L 134.907206 318.04 
L 134.907206 318.04 
L 133.546126 318.04 
z
" clip-path="url(#p7c8d744f93)" style="fill: #1f77b4"/>
   </g>
   <g id="patch_74">
    <path d="M 135.247476 318.04 
L 136.608557 318.04 
L 136.608557 318.04 
L 135.247476 318.04 
z
" clip-path="url(#p7c8d744f93)" style="fill: #1f77b4"/>
   </g>
   <g id="patch_75">
    <path d="M 136.948827 318.04 
L 138.309907 318.04 
L 138.309907 318.04 
L 136.948827 318.04 
z
" clip-path="url(#p7c8d744f93)" style="fill: #1f77b4"/>
   </g>
   <g id="patch_76">
    <path d="M 138.650177 318.04 
L 140.011258 318.04 
L 140.011258 318.04 
L 138.650177 318.04 
z
" clip-path="url(#p7c8d744f93)" style="fill: #1f77b4"/>
   </g>
   <g id="patch_77">
    <path d="M 140.351528 318.04 
L 141.712608 318.04 
L 141.712608 318.04 
L 140.351528 318.04 
z
" clip-path="url(#p7c8d744f93)" style="fill: #1f77b4"/>
   </g>
   <g id="patch_78">
    <path d="M 142.052878 318.04 
L 143.413959 318.04 
L 143.413959 318.04 
L 142.052878 318.04 
z
" clip-path="url(#p7c8d744f93)" style="fill: #1f77b4"/>
   </g>
   <g id="patch_79">
    <path d="M 143.754229 318.04 
L 145.115309 318.04 
L 145.115309 318.04 
L 143.754229 318.04 
z
" clip-path="url(#p7c8d744f93)" style="fill: #1f77b4"/>
   </g>
   <g id="patch_80">
    <path d="M 145.455579 318.04 
L 146.81666 318.04 
L 146.81666 318.04 
L 145.455579 318.04 
z
" clip-path="url(#p7c8d744f93)" style="fill: #1f77b4"/>
   </g>
   <g id="patch_81">
    <path d="M 147.15693 318.04 
L 148.51801 318.04 
L 148.51801 318.04 
L 147.15693 318.04 
z
" clip-path="url(#p7c8d744f93)" style="fill: #1f77b4"/>
   </g>
   <g id="patch_82">
    <path d="M 148.85828 318.04 
L 150.219361 318.04 
L 150.219361 318.04 
L 148.85828 318.04 
z
" clip-path="url(#p7c8d744f93)" style="fill: #1f77b4"/>
   </g>
   <g id="patch_83">
    <path d="M 150.559631 318.04 
L 151.920711 318.04 
L 151.920711 318.04 
L 150.559631 318.04 
z
" clip-path="url(#p7c8d744f93)" style="fill: #1f77b4"/>
   </g>
   <g id="patch_84">
    <path d="M 152.260981 318.04 
L 153.622062 318.04 
L 153.622062 318.04 
L 152.260981 318.04 
z
" clip-path="url(#p7c8d744f93)" style="fill: #1f77b4"/>
   </g>
   <g id="patch_85">
    <path d="M 153.962332 318.04 
L 155.323412 318.04 
L 155.323412 318.04 
L 153.962332 318.04 
z
" clip-path="url(#p7c8d744f93)" style="fill: #1f77b4"/>
   </g>
   <g id="patch_86">
    <path d="M 155.663682 318.04 
L 157.024763 318.04 
L 157.024763 318.04 
L 155.663682 318.04 
z
" clip-path="url(#p7c8d744f93)" style="fill: #1f77b4"/>
   </g>
   <g id="patch_87">
    <path d="M 157.365033 318.04 
L 158.726113 318.04 
L 158.726113 318.04 
L 157.365033 318.04 
z
" clip-path="url(#p7c8d744f93)" style="fill: #1f77b4"/>
   </g>
   <g id="patch_88">
    <path d="M 159.066383 318.04 
L 160.427464 318.04 
L 160.427464 318.04 
L 159.066383 318.04 
z
" clip-path="url(#p7c8d744f93)" style="fill: #1f77b4"/>
   </g>
   <g id="patch_89">
    <path d="M 160.767734 318.04 
L 162.128814 318.04 
L 162.128814 318.04 
L 160.767734 318.04 
z
" clip-path="url(#p7c8d744f93)" style="fill: #1f77b4"/>
   </g>
   <g id="patch_90">
    <path d="M 162.469084 318.04 
L 163.830165 318.04 
L 163.830165 318.04 
L 162.469084 318.04 
z
" clip-path="url(#p7c8d744f93)" style="fill: #1f77b4"/>
   </g>
   <g id="patch_91">
    <path d="M 164.170435 318.04 
L 165.531515 318.04 
L 165.531515 318.04 
L 164.170435 318.04 
z
" clip-path="url(#p7c8d744f93)" style="fill: #1f77b4"/>
   </g>
   <g id="patch_92">
    <path d="M 165.871785 318.04 
L 167.232866 318.04 
L 167.232866 318.04 
L 165.871785 318.04 
z
" clip-path="url(#p7c8d744f93)" style="fill: #1f77b4"/>
   </g>
   <g id="patch_93">
    <path d="M 167.573136 318.04 
L 168.934216 318.04 
L 168.934216 318.04 
L 167.573136 318.04 
z
" clip-path="url(#p7c8d744f93)" style="fill: #1f77b4"/>
   </g>
   <g id="patch_94">
    <path d="M 169.274486 318.04 
L 170.635567 318.04 
L 170.635567 318.04 
L 169.274486 318.04 
z
" clip-path="url(#p7c8d744f93)" style="fill: #1f77b4"/>
   </g>
   <g id="patch_95">
    <path d="M 170.975837 318.04 
L 172.336917 318.04 
L 172.336917 318.04 
L 170.975837 318.04 
z
" clip-path="url(#p7c8d744f93)" style="fill: #1f77b4"/>
   </g>
   <g id="patch_96">
    <path d="M 172.677187 318.04 
L 174.038268 318.04 
L 174.038268 318.04 
L 172.677187 318.04 
z
" clip-path="url(#p7c8d744f93)" style="fill: #1f77b4"/>
   </g>
   <g id="patch_97">
    <path d="M 174.378538 318.04 
L 175.739618 318.04 
L 175.739618 318.04 
L 174.378538 318.04 
z
" clip-path="url(#p7c8d744f93)" style="fill: #1f77b4"/>
   </g>
   <g id="patch_98">
    <path d="M 176.079888 318.04 
L 177.440969 318.04 
L 177.440969 318.04 
L 176.079888 318.04 
z
" clip-path="url(#p7c8d744f93)" style="fill: #1f77b4"/>
   </g>
   <g id="patch_99">
    <path d="M 177.781239 318.04 
L 179.142319 318.04 
L 179.142319 318.04 
L 177.781239 318.04 
z
" clip-path="url(#p7c8d744f93)" style="fill: #1f77b4"/>
   </g>
   <g id="patch_100">
    <path d="M 179.482589 318.04 
L 180.84367 318.04 
L 180.84367 318.04 
L 179.482589 318.04 
z
" clip-path="url(#p7c8d744f93)" style="fill: #1f77b4"/>
   </g>
   <g id="patch_101">
    <path d="M 181.18394 318.04 
L 182.54502 318.04 
L 182.54502 318.04 
L 181.18394 318.04 
z
" clip-path="url(#p7c8d744f93)" style="fill: #1f77b4"/>
   </g>
   <g id="patch_102">
    <path d="M 182.88529 318.04 
L 184.246371 318.04 
L 184.246371 318.04 
L 182.88529 318.04 
z
" clip-path="url(#p7c8d744f93)" style="fill: #1f77b4"/>
   </g>
   <g id="patch_103">
    <path d="M 184.586641 318.04 
L 185.947721 318.04 
L 185.947721 318.04 
L 184.586641 318.04 
z
" clip-path="url(#p7c8d744f93)" style="fill: #1f77b4"/>
   </g>
   <g id="patch_104">
    <path d="M 186.287991 318.04 
L 187.649072 318.04 
L 187.649072 318.04 
L 186.287991 318.04 
z
" clip-path="url(#p7c8d744f93)" style="fill: #1f77b4"/>
   </g>
   <g id="patch_105">
    <path d="M 187.989342 318.04 
L 189.350422 318.04 
L 189.350422 318.04 
L 187.989342 318.04 
z
" clip-path="url(#p7c8d744f93)" style="fill: #1f77b4"/>
   </g>
   <g id="patch_106">
    <path d="M 189.690692 318.04 
L 191.051773 318.04 
L 191.051773 318.04 
L 189.690692 318.04 
z
" clip-path="url(#p7c8d744f93)" style="fill: #1f77b4"/>
   </g>
   <g id="patch_107">
    <path d="M 191.392043 318.04 
L 192.753123 318.04 
L 192.753123 318.04 
L 191.392043 318.04 
z
" clip-path="url(#p7c8d744f93)" style="fill: #1f77b4"/>
   </g>
   <g id="patch_108">
    <path d="M 193.093393 318.04 
L 194.454474 318.04 
L 194.454474 318.04 
L 193.093393 318.04 
z
" clip-path="url(#p7c8d744f93)" style="fill: #1f77b4"/>
   </g>
   <g id="patch_109">
    <path d="M 194.794744 318.04 
L 196.155824 318.04 
L 196.155824 318.04 
L 194.794744 318.04 
z
" clip-path="url(#p7c8d744f93)" style="fill: #1f77b4"/>
   </g>
   <g id="patch_110">
    <path d="M 196.496094 318.04 
L 197.857175 318.04 
L 197.857175 318.04 
L 196.496094 318.04 
z
" clip-path="url(#p7c8d744f93)" style="fill: #1f77b4"/>
   </g>
   <g id="patch_111">
    <path d="M 198.197445 318.04 
L 199.558525 318.04 
L 199.558525 318.04 
L 198.197445 318.04 
z
" clip-path="url(#p7c8d744f93)" style="fill: #1f77b4"/>
   </g>
   <g id="patch_112">
    <path d="M 199.898795 318.04 
L 201.259876 318.04 
L 201.259876 318.04 
L 199.898795 318.04 
z
" clip-path="url(#p7c8d744f93)" style="fill: #1f77b4"/>
   </g>
   <g id="patch_113">
    <path d="M 201.600146 318.04 
L 202.961226 318.04 
L 202.961226 318.04 
L 201.600146 318.04 
z
" clip-path="url(#p7c8d744f93)" style="fill: #1f77b4"/>
   </g>
   <g id="patch_114">
    <path d="M 203.301496 318.04 
L 204.662577 318.04 
L 204.662577 318.04 
L 203.301496 318.04 
z
" clip-path="url(#p7c8d744f93)" style="fill: #1f77b4"/>
   </g>
   <g id="patch_115">
    <path d="M 205.002847 318.04 
L 206.363927 318.04 
L 206.363927 318.04 
L 205.002847 318.04 
z
" clip-path="url(#p7c8d744f93)" style="fill: #1f77b4"/>
   </g>
   <g id="patch_116">
    <path d="M 206.704197 318.04 
L 208.065278 318.04 
L 208.065278 318.04 
L 206.704197 318.04 
z
" clip-path="url(#p7c8d744f93)" style="fill: #1f77b4"/>
   </g>
   <g id="patch_117">
    <path d="M 208.405548 318.04 
L 209.766628 318.04 
L 209.766628 318.04 
L 208.405548 318.04 
z
" clip-path="url(#p7c8d744f93)" style="fill: #1f77b4"/>
   </g>
   <g id="patch_118">
    <path d="M 210.106898 318.04 
L 211.467979 318.04 
L 211.467979 318.04 
L 210.106898 318.04 
z
" clip-path="url(#p7c8d744f93)" style="fill: #1f77b4"/>
   </g>
   <g id="patch_119">
    <path d="M 211.808249 318.04 
L 213.169329 318.04 
L 213.169329 318.04 
L 211.808249 318.04 
z
" clip-path="url(#p7c8d744f93)" style="fill: #1f77b4"/>
   </g>
   <g id="patch_120">
    <path d="M 213.509599 318.04 
L 214.87068 318.04 
L 214.87068 318.04 
L 213.509599 318.04 
z
" clip-path="url(#p7c8d744f93)" style="fill: #1f77b4"/>
   </g>
   <g id="patch_121">
    <path d="M 215.21095 318.04 
L 216.57203 318.04 
L 216.57203 318.04 
L 215.21095 318.04 
z
" clip-path="url(#p7c8d744f93)" style="fill: #1f77b4"/>
   </g>
   <g id="patch_122">
    <path d="M 216.9123 318.04 
L 218.273381 318.04 
L 218.273381 318.04 
L 216.9123 318.04 
z
" clip-path="url(#p7c8d744f93)" style="fill: #1f77b4"/>
   </g>
   <g id="patch_123">
    <path d="M 218.613651 318.04 
L 219.974731 318.04 
L 219.974731 318.04 
L 218.613651 318.04 
z
" clip-path="url(#p7c8d744f93)" style="fill: #1f77b4"/>
   </g>
   <g id="patch_124">
    <path d="M 220.315001 318.04 
L 221.676082 318.04 
L 221.676082 318.04 
L 220.315001 318.04 
z
" clip-path="url(#p7c8d744f93)" style="fill: #1f77b4"/>
   </g>
   <g id="patch_125">
    <path d="M 222.016352 318.04 
L 223.377432 318.04 
L 223.377432 318.04 
L 222.016352 318.04 
z
" clip-path="url(#p7c8d744f93)" style="fill: #1f77b4"/>
   </g>
   <g id="patch_126">
    <path d="M 223.717702 318.04 
L 225.078783 318.04 
L 225.078783 318.04 
L 223.717702 318.04 
z
" clip-path="url(#p7c8d744f93)" style="fill: #1f77b4"/>
   </g>
   <g id="patch_127">
    <path d="M 225.419053 318.04 
L 226.780133 318.04 
L 226.780133 318.04 
L 225.419053 318.04 
z
" clip-path="url(#p7c8d744f93)" style="fill: #1f77b4"/>
   </g>
   <g id="patch_128">
    <path d="M 227.120403 318.04 
L 228.481484 318.04 
L 228.481484 318.04 
L 227.120403 318.04 
z
" clip-path="url(#p7c8d744f93)" style="fill: #1f77b4"/>
   </g>
   <g id="patch_129">
    <path d="M 228.821754 318.04 
L 230.182834 318.04 
L 230.182834 318.04 
L 228.821754 318.04 
z
" clip-path="url(#p7c8d744f93)" style="fill: #1f77b4"/>
   </g>
   <g id="patch_130">
    <path d="M 230.523104 318.04 
L 231.884185 318.04 
L 231.884185 318.04 
L 230.523104 318.04 
z
" clip-path="url(#p7c8d744f93)" style="fill: #1f77b4"/>
   </g>
   <g id="patch_131">
    <path d="M 232.224455 318.04 
L 233.585535 318.04 
L 233.585535 318.04 
L 232.224455 318.04 
z
" clip-path="url(#p7c8d744f93)" style="fill: #1f77b4"/>
   </g>
   <g id="patch_132">
    <path d="M 233.925805 318.04 
L 235.286886 318.04 
L 235.286886 318.04 
L 233.925805 318.04 
z
" clip-path="url(#p7c8d744f93)" style="fill: #1f77b4"/>
   </g>
   <g id="patch_133">
    <path d="M 235.627156 318.04 
L 236.988236 318.04 
L 236.988236 318.04 
L 235.627156 318.04 
z
" clip-path="url(#p7c8d744f93)" style="fill: #1f77b4"/>
   </g>
   <g id="patch_134">
    <path d="M 237.328506 318.04 
L 238.689587 318.04 
L 238.689587 318.04 
L 237.328506 318.04 
z
" clip-path="url(#p7c8d744f93)" style="fill: #1f77b4"/>
   </g>
   <g id="patch_135">
    <path d="M 239.029857 318.04 
L 240.390937 318.04 
L 240.390937 318.04 
L 239.029857 318.04 
z
" clip-path="url(#p7c8d744f93)" style="fill: #1f77b4"/>
   </g>
   <g id="matplotlib.axis_5">
    <g id="xtick_13">
     <g id="line2d_19">
      <g>
       <use xlink:href="#mad1380682f" x="69.575347" y="318.04" style="stroke: #000000; stroke-width: 0.8"/>
      </g>
     </g>
     <g id="text_25">
      <!-- 0 -->
      <g transform="translate(66.394097 332.638438)scale(0.1 -0.1)">
       <use xlink:href="#DejaVuSans-30"/>
      </g>
     </g>
    </g>
    <g id="xtick_14">
     <g id="line2d_20">
      <g>
       <use xlink:href="#mad1380682f" x="103.602357" y="318.04" style="stroke: #000000; stroke-width: 0.8"/>
      </g>
     </g>
     <g id="text_26">
      <!-- 20 -->
      <g transform="translate(97.239857 332.638438)scale(0.1 -0.1)">
       <use xlink:href="#DejaVuSans-32"/>
       <use xlink:href="#DejaVuSans-30" x="63.623047"/>
      </g>
     </g>
    </g>
    <g id="xtick_15">
     <g id="line2d_21">
      <g>
       <use xlink:href="#mad1380682f" x="137.629367" y="318.04" style="stroke: #000000; stroke-width: 0.8"/>
      </g>
     </g>
     <g id="text_27">
      <!-- 40 -->
      <g transform="translate(131.266867 332.638438)scale(0.1 -0.1)">
       <use xlink:href="#DejaVuSans-34"/>
       <use xlink:href="#DejaVuSans-30" x="63.623047"/>
      </g>
     </g>
    </g>
    <g id="xtick_16">
     <g id="line2d_22">
      <g>
       <use xlink:href="#mad1380682f" x="171.656377" y="318.04" style="stroke: #000000; stroke-width: 0.8"/>
      </g>
     </g>
     <g id="text_28">
      <!-- 60 -->
      <g transform="translate(165.293877 332.638438)scale(0.1 -0.1)">
       <use xlink:href="#DejaVuSans-36"/>
       <use xlink:href="#DejaVuSans-30" x="63.623047"/>
      </g>
     </g>
    </g>
    <g id="xtick_17">
     <g id="line2d_23">
      <g>
       <use xlink:href="#mad1380682f" x="205.683387" y="318.04" style="stroke: #000000; stroke-width: 0.8"/>
      </g>
     </g>
     <g id="text_29">
      <!-- 80 -->
      <g transform="translate(199.320887 332.638438)scale(0.1 -0.1)">
       <use xlink:href="#DejaVuSans-38"/>
       <use xlink:href="#DejaVuSans-30" x="63.623047"/>
      </g>
     </g>
    </g>
    <g id="xtick_18">
     <g id="line2d_24">
      <g>
       <use xlink:href="#mad1380682f" x="239.710397" y="318.04" style="stroke: #000000; stroke-width: 0.8"/>
      </g>
     </g>
     <g id="text_30">
      <!-- 100 -->
      <g transform="translate(230.166647 332.638438)scale(0.1 -0.1)">
       <use xlink:href="#DejaVuSans-31"/>
       <use xlink:href="#DejaVuSans-30" x="63.623047"/>
       <use xlink:href="#DejaVuSans-30" x="127.246094"/>
      </g>
     </g>
    </g>
    <g id="text_31">
     <!-- k -->
     <g transform="translate(151.747559 346.316563)scale(0.1 -0.1)">
      <use xlink:href="#DejaVuSans-6b"/>
     </g>
    </g>
   </g>
   <g id="matplotlib.axis_6">
    <g id="ytick_7">
     <g id="line2d_25">
      <g>
       <use xlink:href="#m17a9d03860" x="60.32" y="318.04" style="stroke: #000000; stroke-width: 0.8"/>
      </g>
     </g>
     <g id="text_32">
      <!-- 0.00 -->
      <g transform="translate(31.054375 321.839219)scale(0.1 -0.1)">
       <use xlink:href="#DejaVuSans-30"/>
       <use xlink:href="#DejaVuSans-2e" x="63.623047"/>
       <use xlink:href="#DejaVuSans-30" x="95.410156"/>
       <use xlink:href="#DejaVuSans-30" x="159.033203"/>
      </g>
     </g>
    </g>
    <g id="ytick_8">
     <g id="line2d_26">
      <g>
       <use xlink:href="#m17a9d03860" x="60.32" y="283.51416" style="stroke: #000000; stroke-width: 0.8"/>
      </g>
     </g>
     <g id="text_33">
      <!-- 0.05 -->
      <g transform="translate(31.054375 287.313378)scale(0.1 -0.1)">
       <use xlink:href="#DejaVuSans-30"/>
       <use xlink:href="#DejaVuSans-2e" x="63.623047"/>
       <use xlink:href="#DejaVuSans-30" x="95.410156"/>
       <use xlink:href="#DejaVuSans-35" x="159.033203"/>
      </g>
     </g>
    </g>
    <g id="ytick_9">
     <g id="line2d_27">
      <g>
       <use xlink:href="#m17a9d03860" x="60.32" y="248.988319" style="stroke: #000000; stroke-width: 0.8"/>
      </g>
     </g>
     <g id="text_34">
      <!-- 0.10 -->
      <g transform="translate(31.054375 252.787538)scale(0.1 -0.1)">
       <use xlink:href="#DejaVuSans-30"/>
       <use xlink:href="#DejaVuSans-2e" x="63.623047"/>
       <use xlink:href="#DejaVuSans-31" x="95.410156"/>
       <use xlink:href="#DejaVuSans-30" x="159.033203"/>
      </g>
     </g>
    </g>
    <g id="text_35">
     <!-- P(X=k) -->
     <g transform="translate(24.974688 287.662562)rotate(-90)scale(0.1 -0.1)">
      <use xlink:href="#DejaVuSans-50"/>
      <use xlink:href="#DejaVuSans-28" x="60.302734"/>
      <use xlink:href="#DejaVuSans-58" x="99.316406"/>
      <use xlink:href="#DejaVuSans-3d" x="167.822266"/>
      <use xlink:href="#DejaVuSans-6b" x="251.611328"/>
      <use xlink:href="#DejaVuSans-29" x="309.521484"/>
     </g>
    </g>
   </g>
   <g id="patch_136">
    <path d="M 60.32 318.04 
L 60.32 222.432 
" style="fill: none; stroke: #000000; stroke-width: 0.8; stroke-linejoin: miter; stroke-linecap: square"/>
   </g>
   <g id="patch_137">
    <path d="M 248.965744 318.04 
L 248.965744 222.432 
" style="fill: none; stroke: #000000; stroke-width: 0.8; stroke-linejoin: miter; stroke-linecap: square"/>
   </g>
   <g id="patch_138">
    <path d="M 60.32 318.04 
L 248.965744 318.04 
" style="fill: none; stroke: #000000; stroke-width: 0.8; stroke-linejoin: miter; stroke-linecap: square"/>
   </g>
   <g id="patch_139">
    <path d="M 60.32 222.432 
L 248.965744 222.432 
" style="fill: none; stroke: #000000; stroke-width: 0.8; stroke-linejoin: miter; stroke-linecap: square"/>
   </g>
   <g id="text_36">
    <!-- N=100, mu=0.1 -->
    <g transform="translate(105.643497 216.432)scale(0.12 -0.12)">
     <use xlink:href="#DejaVuSans-4e"/>
     <use xlink:href="#DejaVuSans-3d" x="74.804688"/>
     <use xlink:href="#DejaVuSans-31" x="158.59375"/>
     <use xlink:href="#DejaVuSans-30" x="222.216797"/>
     <use xlink:href="#DejaVuSans-30" x="285.839844"/>
     <use xlink:href="#DejaVuSans-2c" x="349.462891"/>
     <use xlink:href="#DejaVuSans-20" x="381.25"/>
     <use xlink:href="#DejaVuSans-6d" x="413.037109"/>
     <use xlink:href="#DejaVuSans-75" x="510.449219"/>
     <use xlink:href="#DejaVuSans-3d" x="573.828125"/>
     <use xlink:href="#DejaVuSans-30" x="657.617188"/>
     <use xlink:href="#DejaVuSans-2e" x="721.240234"/>
     <use xlink:href="#DejaVuSans-31" x="753.027344"/>
    </g>
   </g>
  </g>
  <g id="axes_4">
   <g id="patch_140">
    <path d="M 303.77 318.04 
L 492.415744 318.04 
L 492.415744 222.432 
L 303.77 222.432 
z
" style="fill: #ffffff"/>
   </g>
   <g id="patch_141">
    <path d="M 312.344807 318.04 
L 313.705887 318.04 
L 313.705887 318.04 
L 312.344807 318.04 
z
" clip-path="url(#pe5f13c32ec)" style="fill: #1f77b4"/>
   </g>
   <g id="patch_142">
    <path d="M 314.046157 318.04 
L 315.407237 318.04 
L 315.407237 318.04 
L 314.046157 318.04 
z
" clip-path="url(#pe5f13c32ec)" style="fill: #1f77b4"/>
   </g>
   <g id="patch_143">
    <path d="M 315.747508 318.04 
L 317.108588 318.04 
L 317.108588 318.04 
L 315.747508 318.04 
z
" clip-path="url(#pe5f13c32ec)" style="fill: #1f77b4"/>
   </g>
   <g id="patch_144">
    <path d="M 317.448858 318.04 
L 318.809938 318.04 
L 318.809938 318.04 
L 317.448858 318.04 
z
" clip-path="url(#pe5f13c32ec)" style="fill: #1f77b4"/>
   </g>
   <g id="patch_145">
    <path d="M 319.150209 318.04 
L 320.511289 318.04 
L 320.511289 318.04 
L 319.150209 318.04 
z
" clip-path="url(#pe5f13c32ec)" style="fill: #1f77b4"/>
   </g>
   <g id="patch_146">
    <path d="M 320.851559 318.04 
L 322.212639 318.04 
L 322.212639 318.04 
L 320.851559 318.04 
z
" clip-path="url(#pe5f13c32ec)" style="fill: #1f77b4"/>
   </g>
   <g id="patch_147">
    <path d="M 322.55291 318.04 
L 323.91399 318.04 
L 323.91399 318.04 
L 322.55291 318.04 
z
" clip-path="url(#pe5f13c32ec)" style="fill: #1f77b4"/>
   </g>
   <g id="patch_148">
    <path d="M 324.25426 318.04 
L 325.61534 318.04 
L 325.61534 318.04 
L 324.25426 318.04 
z
" clip-path="url(#pe5f13c32ec)" style="fill: #1f77b4"/>
   </g>
   <g id="patch_149">
    <path d="M 325.955611 318.04 
L 327.316691 318.04 
L 327.316691 318.04 
L 325.955611 318.04 
z
" clip-path="url(#pe5f13c32ec)" style="fill: #1f77b4"/>
   </g>
   <g id="patch_150">
    <path d="M 327.656961 318.04 
L 329.018041 318.04 
L 329.018041 318.04 
L 327.656961 318.04 
z
" clip-path="url(#pe5f13c32ec)" style="fill: #1f77b4"/>
   </g>
   <g id="patch_151">
    <path d="M 329.358312 318.04 
L 330.719392 318.04 
L 330.719392 318.04 
L 329.358312 318.04 
z
" clip-path="url(#pe5f13c32ec)" style="fill: #1f77b4"/>
   </g>
   <g id="patch_152">
    <path d="M 331.059662 318.04 
L 332.420742 318.04 
L 332.420742 318.04 
L 331.059662 318.04 
z
" clip-path="url(#pe5f13c32ec)" style="fill: #1f77b4"/>
   </g>
   <g id="patch_153">
    <path d="M 332.761013 318.04 
L 334.122093 318.04 
L 334.122093 318.04 
L 332.761013 318.04 
z
" clip-path="url(#pe5f13c32ec)" style="fill: #1f77b4"/>
   </g>
   <g id="patch_154">
    <path d="M 334.462363 318.04 
L 335.823443 318.04 
L 335.823443 318.04 
L 334.462363 318.04 
z
" clip-path="url(#pe5f13c32ec)" style="fill: #1f77b4"/>
   </g>
   <g id="patch_155">
    <path d="M 336.163714 318.04 
L 337.524794 318.04 
L 337.524794 318.04 
L 336.163714 318.04 
z
" clip-path="url(#pe5f13c32ec)" style="fill: #1f77b4"/>
   </g>
   <g id="patch_156">
    <path d="M 337.865064 318.04 
L 339.226144 318.04 
L 339.226144 318.04 
L 337.865064 318.04 
z
" clip-path="url(#pe5f13c32ec)" style="fill: #1f77b4"/>
   </g>
   <g id="patch_157">
    <path d="M 339.566415 318.04 
L 340.927495 318.04 
L 340.927495 318.04 
L 339.566415 318.04 
z
" clip-path="url(#pe5f13c32ec)" style="fill: #1f77b4"/>
   </g>
   <g id="patch_158">
    <path d="M 341.267765 318.04 
L 342.628845 318.04 
L 342.628845 318.04 
L 341.267765 318.04 
z
" clip-path="url(#pe5f13c32ec)" style="fill: #1f77b4"/>
   </g>
   <g id="patch_159">
    <path d="M 342.969116 318.04 
L 344.330196 318.04 
L 344.330196 318.04 
L 342.969116 318.04 
z
" clip-path="url(#pe5f13c32ec)" style="fill: #1f77b4"/>
   </g>
   <g id="patch_160">
    <path d="M 344.670466 318.04 
L 346.031547 318.04 
L 346.031547 318.04 
L 344.670466 318.04 
z
" clip-path="url(#pe5f13c32ec)" style="fill: #1f77b4"/>
   </g>
   <g id="patch_161">
    <path d="M 346.371817 318.04 
L 347.732897 318.04 
L 347.732897 318.04 
L 346.371817 318.04 
z
" clip-path="url(#pe5f13c32ec)" style="fill: #1f77b4"/>
   </g>
   <g id="patch_162">
    <path d="M 348.073167 318.04 
L 349.434248 318.04 
L 349.434248 318.039998 
L 348.073167 318.039998 
z
" clip-path="url(#pe5f13c32ec)" style="fill: #1f77b4"/>
   </g>
   <g id="patch_163">
    <path d="M 349.774518 318.04 
L 351.135598 318.04 
L 351.135598 318.039993 
L 349.774518 318.039993 
z
" clip-path="url(#pe5f13c32ec)" style="fill: #1f77b4"/>
   </g>
   <g id="patch_164">
    <path d="M 351.475868 318.04 
L 352.836949 318.04 
L 352.836949 318.039978 
L 351.475868 318.039978 
z
" clip-path="url(#pe5f13c32ec)" style="fill: #1f77b4"/>
   </g>
   <g id="patch_165">
    <path d="M 353.177219 318.04 
L 354.538299 318.04 
L 354.538299 318.039928 
L 353.177219 318.039928 
z
" clip-path="url(#pe5f13c32ec)" style="fill: #1f77b4"/>
   </g>
   <g id="patch_166">
    <path d="M 354.878569 318.04 
L 356.23965 318.04 
L 356.23965 318.039781 
L 354.878569 318.039781 
z
" clip-path="url(#pe5f13c32ec)" style="fill: #1f77b4"/>
   </g>
   <g id="patch_167">
    <path d="M 356.57992 318.04 
L 357.941 318.04 
L 357.941 318.039369 
L 356.57992 318.039369 
z
" clip-path="url(#pe5f13c32ec)" style="fill: #1f77b4"/>
   </g>
   <g id="patch_168">
    <path d="M 358.28127 318.04 
L 359.642351 318.04 
L 359.642351 318.03827 
L 358.28127 318.03827 
z
" clip-path="url(#pe5f13c32ec)" style="fill: #1f77b4"/>
   </g>
   <g id="patch_169">
    <path d="M 359.982621 318.04 
L 361.343701 318.04 
L 361.343701 318.035489 
L 359.982621 318.035489 
z
" clip-path="url(#pe5f13c32ec)" style="fill: #1f77b4"/>
   </g>
   <g id="patch_170">
    <path d="M 361.683971 318.04 
L 363.045052 318.04 
L 363.045052 318.028799 
L 361.683971 318.028799 
z
" clip-path="url(#pe5f13c32ec)" style="fill: #1f77b4"/>
   </g>
   <g id="patch_171">
    <path d="M 363.385322 318.04 
L 364.746402 318.04 
L 364.746402 318.013491 
L 363.385322 318.013491 
z
" clip-path="url(#pe5f13c32ec)" style="fill: #1f77b4"/>
   </g>
   <g id="patch_172">
    <path d="M 365.086672 318.04 
L 366.447753 318.04 
L 366.447753 317.980141 
L 365.086672 317.980141 
z
" clip-path="url(#pe5f13c32ec)" style="fill: #1f77b4"/>
   </g>
   <g id="patch_173">
    <path d="M 366.788023 318.04 
L 368.149103 318.04 
L 368.149103 317.91093 
L 366.788023 317.91093 
z
" clip-path="url(#pe5f13c32ec)" style="fill: #1f77b4"/>
   </g>
   <g id="patch_174">
    <path d="M 368.489373 318.04 
L 369.850454 318.04 
L 369.850454 317.774038 
L 368.489373 317.774038 
z
" clip-path="url(#pe5f13c32ec)" style="fill: #1f77b4"/>
   </g>
   <g id="patch_175">
    <path d="M 370.190724 318.04 
L 371.551804 318.04 
L 371.551804 317.515898 
L 370.190724 317.515898 
z
" clip-path="url(#pe5f13c32ec)" style="fill: #1f77b4"/>
   </g>
   <g id="patch_176">
    <path d="M 371.892074 318.04 
L 373.253155 318.04 
L 373.253155 317.051693 
L 371.892074 317.051693 
z
" clip-path="url(#pe5f13c32ec)" style="fill: #1f77b4"/>
   </g>
   <g id="patch_177">
    <path d="M 373.593425 318.04 
L 374.954505 318.04 
L 374.954505 316.255557 
L 373.593425 316.255557 
z
" clip-path="url(#pe5f13c32ec)" style="fill: #1f77b4"/>
   </g>
   <g id="patch_178">
    <path d="M 375.294775 318.04 
L 376.655856 318.04 
L 376.655856 314.953396 
L 375.294775 314.953396 
z
" clip-path="url(#pe5f13c32ec)" style="fill: #1f77b4"/>
   </g>
   <g id="patch_179">
    <path d="M 376.996126 318.04 
L 378.357206 318.04 
L 378.357206 312.922736 
L 376.996126 312.922736 
z
" clip-path="url(#pe5f13c32ec)" style="fill: #1f77b4"/>
   </g>
   <g id="patch_180">
    <path d="M 378.697476 318.04 
L 380.058557 318.04 
L 380.058557 309.904862 
L 378.697476 309.904862 
z
" clip-path="url(#pe5f13c32ec)" style="fill: #1f77b4"/>
   </g>
   <g id="patch_181">
    <path d="M 380.398827 318.04 
L 381.759907 318.04 
L 381.759907 305.633915 
L 380.398827 305.633915 
z
" clip-path="url(#pe5f13c32ec)" style="fill: #1f77b4"/>
   </g>
   <g id="patch_182">
    <path d="M 382.100177 318.04 
L 383.461258 318.04 
L 383.461258 299.884753 
L 382.100177 299.884753 
z
" clip-path="url(#pe5f13c32ec)" style="fill: #1f77b4"/>
   </g>
   <g id="patch_183">
    <path d="M 383.801528 318.04 
L 385.162608 318.04 
L 385.162608 292.536201 
L 383.801528 292.536201 
z
" clip-path="url(#pe5f13c32ec)" style="fill: #1f77b4"/>
   </g>
   <g id="patch_184">
    <path d="M 385.502878 318.04 
L 386.863959 318.04 
L 386.863959 283.639527 
L 385.502878 283.639527 
z
" clip-path="url(#pe5f13c32ec)" style="fill: #1f77b4"/>
   </g>
   <g id="patch_185">
    <path d="M 387.204229 318.04 
L 388.565309 318.04 
L 388.565309 273.475751 
L 387.204229 273.475751 
z
" clip-path="url(#pe5f13c32ec)" style="fill: #1f77b4"/>
   </g>
   <g id="patch_186">
    <path d="M 388.905579 318.04 
L 390.26666 318.04 
L 390.26666 262.582268 
L 388.905579 262.582268 
z
" clip-path="url(#pe5f13c32ec)" style="fill: #1f77b4"/>
   </g>
   <g id="patch_187">
    <path d="M 390.60693 318.04 
L 391.96801 318.04 
L 391.96801 251.731842 
L 390.60693 251.731842 
z
" clip-path="url(#pe5f13c32ec)" style="fill: #1f77b4"/>
   </g>
   <g id="patch_188">
    <path d="M 392.30828 318.04 
L 393.669361 318.04 
L 393.669361 241.856159 
L 392.30828 241.856159 
z
" clip-path="url(#pe5f13c32ec)" style="fill: #1f77b4"/>
   </g>
   <g id="patch_189">
    <path d="M 394.009631 318.04 
L 395.370711 318.04 
L 395.370711 233.920342 
L 394.009631 233.920342 
z
" clip-path="url(#pe5f13c32ec)" style="fill: #1f77b4"/>
   </g>
   <g id="patch_190">
    <path d="M 395.710981 318.04 
L 397.072062 318.04 
L 397.072062 228.770159 
L 395.710981 228.770159 
z
" clip-path="url(#pe5f13c32ec)" style="fill: #1f77b4"/>
   </g>
   <g id="patch_191">
    <path d="M 397.412332 318.04 
L 398.773412 318.04 
L 398.773412 226.984762 
L 397.412332 226.984762 
z
" clip-path="url(#pe5f13c32ec)" style="fill: #1f77b4"/>
   </g>
   <g id="patch_192">
    <path d="M 399.113682 318.04 
L 400.474763 318.04 
L 400.474763 228.770159 
L 399.113682 228.770159 
z
" clip-path="url(#pe5f13c32ec)" style="fill: #1f77b4"/>
   </g>
   <g id="patch_193">
    <path d="M 400.815033 318.04 
L 402.176113 318.04 
L 402.176113 233.920342 
L 400.815033 233.920342 
z
" clip-path="url(#pe5f13c32ec)" style="fill: #1f77b4"/>
   </g>
   <g id="patch_194">
    <path d="M 402.516383 318.04 
L 403.877464 318.04 
L 403.877464 241.856159 
L 402.516383 241.856159 
z
" clip-path="url(#pe5f13c32ec)" style="fill: #1f77b4"/>
   </g>
   <g id="patch_195">
    <path d="M 404.217734 318.04 
L 405.578814 318.04 
L 405.578814 251.731842 
L 404.217734 251.731842 
z
" clip-path="url(#pe5f13c32ec)" style="fill: #1f77b4"/>
   </g>
   <g id="patch_196">
    <path d="M 405.919084 318.04 
L 407.280165 318.04 
L 407.280165 262.582268 
L 405.919084 262.582268 
z
" clip-path="url(#pe5f13c32ec)" style="fill: #1f77b4"/>
   </g>
   <g id="patch_197">
    <path d="M 407.620435 318.04 
L 408.981515 318.04 
L 408.981515 273.475751 
L 407.620435 273.475751 
z
" clip-path="url(#pe5f13c32ec)" style="fill: #1f77b4"/>
   </g>
   <g id="patch_198">
    <path d="M 409.321785 318.04 
L 410.682866 318.04 
L 410.682866 283.639527 
L 409.321785 283.639527 
z
" clip-path="url(#pe5f13c32ec)" style="fill: #1f77b4"/>
   </g>
   <g id="patch_199">
    <path d="M 411.023136 318.04 
L 412.384216 318.04 
L 412.384216 292.536201 
L 411.023136 292.536201 
z
" clip-path="url(#pe5f13c32ec)" style="fill: #1f77b4"/>
   </g>
   <g id="patch_200">
    <path d="M 412.724486 318.04 
L 414.085567 318.04 
L 414.085567 299.884753 
L 412.724486 299.884753 
z
" clip-path="url(#pe5f13c32ec)" style="fill: #1f77b4"/>
   </g>
   <g id="patch_201">
    <path d="M 414.425837 318.04 
L 415.786917 318.04 
L 415.786917 305.633915 
L 414.425837 305.633915 
z
" clip-path="url(#pe5f13c32ec)" style="fill: #1f77b4"/>
   </g>
   <g id="patch_202">
    <path d="M 416.127187 318.04 
L 417.488268 318.04 
L 417.488268 309.904862 
L 416.127187 309.904862 
z
" clip-path="url(#pe5f13c32ec)" style="fill: #1f77b4"/>
   </g>
   <g id="patch_203">
    <path d="M 417.828538 318.04 
L 419.189618 318.04 
L 419.189618 312.922736 
L 417.828538 312.922736 
z
" clip-path="url(#pe5f13c32ec)" style="fill: #1f77b4"/>
   </g>
   <g id="patch_204">
    <path d="M 419.529888 318.04 
L 420.890969 318.04 
L 420.890969 314.953396 
L 419.529888 314.953396 
z
" clip-path="url(#pe5f13c32ec)" style="fill: #1f77b4"/>
   </g>
   <g id="patch_205">
    <path d="M 421.231239 318.04 
L 422.592319 318.04 
L 422.592319 316.255557 
L 421.231239 316.255557 
z
" clip-path="url(#pe5f13c32ec)" style="fill: #1f77b4"/>
   </g>
   <g id="patch_206">
    <path d="M 422.932589 318.04 
L 424.29367 318.04 
L 424.29367 317.051693 
L 422.932589 317.051693 
z
" clip-path="url(#pe5f13c32ec)" style="fill: #1f77b4"/>
   </g>
   <g id="patch_207">
    <path d="M 424.63394 318.04 
L 425.99502 318.04 
L 425.99502 317.515898 
L 424.63394 317.515898 
z
" clip-path="url(#pe5f13c32ec)" style="fill: #1f77b4"/>
   </g>
   <g id="patch_208">
    <path d="M 426.33529 318.04 
L 427.696371 318.04 
L 427.696371 317.774038 
L 426.33529 317.774038 
z
" clip-path="url(#pe5f13c32ec)" style="fill: #1f77b4"/>
   </g>
   <g id="patch_209">
    <path d="M 428.036641 318.04 
L 429.397721 318.04 
L 429.397721 317.91093 
L 428.036641 317.91093 
z
" clip-path="url(#pe5f13c32ec)" style="fill: #1f77b4"/>
   </g>
   <g id="patch_210">
    <path d="M 429.737991 318.04 
L 431.099072 318.04 
L 431.099072 317.980141 
L 429.737991 317.980141 
z
" clip-path="url(#pe5f13c32ec)" style="fill: #1f77b4"/>
   </g>
   <g id="patch_211">
    <path d="M 431.439342 318.04 
L 432.800422 318.04 
L 432.800422 318.013491 
L 431.439342 318.013491 
z
" clip-path="url(#pe5f13c32ec)" style="fill: #1f77b4"/>
   </g>
   <g id="patch_212">
    <path d="M 433.140692 318.04 
L 434.501773 318.04 
L 434.501773 318.028799 
L 433.140692 318.028799 
z
" clip-path="url(#pe5f13c32ec)" style="fill: #1f77b4"/>
   </g>
   <g id="patch_213">
    <path d="M 434.842043 318.04 
L 436.203123 318.04 
L 436.203123 318.035489 
L 434.842043 318.035489 
z
" clip-path="url(#pe5f13c32ec)" style="fill: #1f77b4"/>
   </g>
   <g id="patch_214">
    <path d="M 436.543393 318.04 
L 437.904474 318.04 
L 437.904474 318.03827 
L 436.543393 318.03827 
z
" clip-path="url(#pe5f13c32ec)" style="fill: #1f77b4"/>
   </g>
   <g id="patch_215">
    <path d="M 438.244744 318.04 
L 439.605824 318.04 
L 439.605824 318.039369 
L 438.244744 318.039369 
z
" clip-path="url(#pe5f13c32ec)" style="fill: #1f77b4"/>
   </g>
   <g id="patch_216">
    <path d="M 439.946094 318.04 
L 441.307175 318.04 
L 441.307175 318.039781 
L 439.946094 318.039781 
z
" clip-path="url(#pe5f13c32ec)" style="fill: #1f77b4"/>
   </g>
   <g id="patch_217">
    <path d="M 441.647445 318.04 
L 443.008525 318.04 
L 443.008525 318.039928 
L 441.647445 318.039928 
z
" clip-path="url(#pe5f13c32ec)" style="fill: #1f77b4"/>
   </g>
   <g id="patch_218">
    <path d="M 443.348795 318.04 
L 444.709876 318.04 
L 444.709876 318.039978 
L 443.348795 318.039978 
z
" clip-path="url(#pe5f13c32ec)" style="fill: #1f77b4"/>
   </g>
   <g id="patch_219">
    <path d="M 445.050146 318.04 
L 446.411226 318.04 
L 446.411226 318.039993 
L 445.050146 318.039993 
z
" clip-path="url(#pe5f13c32ec)" style="fill: #1f77b4"/>
   </g>
   <g id="patch_220">
    <path d="M 446.751496 318.04 
L 448.112577 318.04 
L 448.112577 318.039998 
L 446.751496 318.039998 
z
" clip-path="url(#pe5f13c32ec)" style="fill: #1f77b4"/>
   </g>
   <g id="patch_221">
    <path d="M 448.452847 318.04 
L 449.813927 318.04 
L 449.813927 318.04 
L 448.452847 318.04 
z
" clip-path="url(#pe5f13c32ec)" style="fill: #1f77b4"/>
   </g>
   <g id="patch_222">
    <path d="M 450.154197 318.04 
L 451.515278 318.04 
L 451.515278 318.04 
L 450.154197 318.04 
z
" clip-path="url(#pe5f13c32ec)" style="fill: #1f77b4"/>
   </g>
   <g id="patch_223">
    <path d="M 451.855548 318.04 
L 453.216628 318.04 
L 453.216628 318.04 
L 451.855548 318.04 
z
" clip-path="url(#pe5f13c32ec)" style="fill: #1f77b4"/>
   </g>
   <g id="patch_224">
    <path d="M 453.556898 318.04 
L 454.917979 318.04 
L 454.917979 318.04 
L 453.556898 318.04 
z
" clip-path="url(#pe5f13c32ec)" style="fill: #1f77b4"/>
   </g>
   <g id="patch_225">
    <path d="M 455.258249 318.04 
L 456.619329 318.04 
L 456.619329 318.04 
L 455.258249 318.04 
z
" clip-path="url(#pe5f13c32ec)" style="fill: #1f77b4"/>
   </g>
   <g id="patch_226">
    <path d="M 456.959599 318.04 
L 458.32068 318.04 
L 458.32068 318.04 
L 456.959599 318.04 
z
" clip-path="url(#pe5f13c32ec)" style="fill: #1f77b4"/>
   </g>
   <g id="patch_227">
    <path d="M 458.66095 318.04 
L 460.02203 318.04 
L 460.02203 318.04 
L 458.66095 318.04 
z
" clip-path="url(#pe5f13c32ec)" style="fill: #1f77b4"/>
   </g>
   <g id="patch_228">
    <path d="M 460.3623 318.04 
L 461.723381 318.04 
L 461.723381 318.04 
L 460.3623 318.04 
z
" clip-path="url(#pe5f13c32ec)" style="fill: #1f77b4"/>
   </g>
   <g id="patch_229">
    <path d="M 462.063651 318.04 
L 463.424731 318.04 
L 463.424731 318.04 
L 462.063651 318.04 
z
" clip-path="url(#pe5f13c32ec)" style="fill: #1f77b4"/>
   </g>
   <g id="patch_230">
    <path d="M 463.765001 318.04 
L 465.126082 318.04 
L 465.126082 318.04 
L 463.765001 318.04 
z
" clip-path="url(#pe5f13c32ec)" style="fill: #1f77b4"/>
   </g>
   <g id="patch_231">
    <path d="M 465.466352 318.04 
L 466.827432 318.04 
L 466.827432 318.04 
L 465.466352 318.04 
z
" clip-path="url(#pe5f13c32ec)" style="fill: #1f77b4"/>
   </g>
   <g id="patch_232">
    <path d="M 467.167702 318.04 
L 468.528783 318.04 
L 468.528783 318.04 
L 467.167702 318.04 
z
" clip-path="url(#pe5f13c32ec)" style="fill: #1f77b4"/>
   </g>
   <g id="patch_233">
    <path d="M 468.869053 318.04 
L 470.230133 318.04 
L 470.230133 318.04 
L 468.869053 318.04 
z
" clip-path="url(#pe5f13c32ec)" style="fill: #1f77b4"/>
   </g>
   <g id="patch_234">
    <path d="M 470.570403 318.04 
L 471.931484 318.04 
L 471.931484 318.04 
L 470.570403 318.04 
z
" clip-path="url(#pe5f13c32ec)" style="fill: #1f77b4"/>
   </g>
   <g id="patch_235">
    <path d="M 472.271754 318.04 
L 473.632834 318.04 
L 473.632834 318.04 
L 472.271754 318.04 
z
" clip-path="url(#pe5f13c32ec)" style="fill: #1f77b4"/>
   </g>
   <g id="patch_236">
    <path d="M 473.973104 318.04 
L 475.334185 318.04 
L 475.334185 318.04 
L 473.973104 318.04 
z
" clip-path="url(#pe5f13c32ec)" style="fill: #1f77b4"/>
   </g>
   <g id="patch_237">
    <path d="M 475.674455 318.04 
L 477.035535 318.04 
L 477.035535 318.04 
L 475.674455 318.04 
z
" clip-path="url(#pe5f13c32ec)" style="fill: #1f77b4"/>
   </g>
   <g id="patch_238">
    <path d="M 477.375805 318.04 
L 478.736886 318.04 
L 478.736886 318.04 
L 477.375805 318.04 
z
" clip-path="url(#pe5f13c32ec)" style="fill: #1f77b4"/>
   </g>
   <g id="patch_239">
    <path d="M 479.077156 318.04 
L 480.438236 318.04 
L 480.438236 318.04 
L 479.077156 318.04 
z
" clip-path="url(#pe5f13c32ec)" style="fill: #1f77b4"/>
   </g>
   <g id="patch_240">
    <path d="M 480.778506 318.04 
L 482.139587 318.04 
L 482.139587 318.04 
L 480.778506 318.04 
z
" clip-path="url(#pe5f13c32ec)" style="fill: #1f77b4"/>
   </g>
   <g id="patch_241">
    <path d="M 482.479857 318.04 
L 483.840937 318.04 
L 483.840937 318.04 
L 482.479857 318.04 
z
" clip-path="url(#pe5f13c32ec)" style="fill: #1f77b4"/>
   </g>
   <g id="matplotlib.axis_7">
    <g id="xtick_19">
     <g id="line2d_28">
      <g>
       <use xlink:href="#mad1380682f" x="313.025347" y="318.04" style="stroke: #000000; stroke-width: 0.8"/>
      </g>
     </g>
     <g id="text_37">
      <!-- 0 -->
      <g transform="translate(309.844097 332.638438)scale(0.1 -0.1)">
       <use xlink:href="#DejaVuSans-30"/>
      </g>
     </g>
    </g>
    <g id="xtick_20">
     <g id="line2d_29">
      <g>
       <use xlink:href="#mad1380682f" x="347.052357" y="318.04" style="stroke: #000000; stroke-width: 0.8"/>
      </g>
     </g>
     <g id="text_38">
      <!-- 20 -->
      <g transform="translate(340.689857 332.638438)scale(0.1 -0.1)">
       <use xlink:href="#DejaVuSans-32"/>
       <use xlink:href="#DejaVuSans-30" x="63.623047"/>
      </g>
     </g>
    </g>
    <g id="xtick_21">
     <g id="line2d_30">
      <g>
       <use xlink:href="#mad1380682f" x="381.079367" y="318.04" style="stroke: #000000; stroke-width: 0.8"/>
      </g>
     </g>
     <g id="text_39">
      <!-- 40 -->
      <g transform="translate(374.716867 332.638438)scale(0.1 -0.1)">
       <use xlink:href="#DejaVuSans-34"/>
       <use xlink:href="#DejaVuSans-30" x="63.623047"/>
      </g>
     </g>
    </g>
    <g id="xtick_22">
     <g id="line2d_31">
      <g>
       <use xlink:href="#mad1380682f" x="415.106377" y="318.04" style="stroke: #000000; stroke-width: 0.8"/>
      </g>
     </g>
     <g id="text_40">
      <!-- 60 -->
      <g transform="translate(408.743877 332.638438)scale(0.1 -0.1)">
       <use xlink:href="#DejaVuSans-36"/>
       <use xlink:href="#DejaVuSans-30" x="63.623047"/>
      </g>
     </g>
    </g>
    <g id="xtick_23">
     <g id="line2d_32">
      <g>
       <use xlink:href="#mad1380682f" x="449.133387" y="318.04" style="stroke: #000000; stroke-width: 0.8"/>
      </g>
     </g>
     <g id="text_41">
      <!-- 80 -->
      <g transform="translate(442.770887 332.638438)scale(0.1 -0.1)">
       <use xlink:href="#DejaVuSans-38"/>
       <use xlink:href="#DejaVuSans-30" x="63.623047"/>
      </g>
     </g>
    </g>
    <g id="xtick_24">
     <g id="line2d_33">
      <g>
       <use xlink:href="#mad1380682f" x="483.160397" y="318.04" style="stroke: #000000; stroke-width: 0.8"/>
      </g>
     </g>
     <g id="text_42">
      <!-- 100 -->
      <g transform="translate(473.616647 332.638438)scale(0.1 -0.1)">
       <use xlink:href="#DejaVuSans-31"/>
       <use xlink:href="#DejaVuSans-30" x="63.623047"/>
       <use xlink:href="#DejaVuSans-30" x="127.246094"/>
      </g>
     </g>
    </g>
    <g id="text_43">
     <!-- k -->
     <g transform="translate(395.197559 346.316563)scale(0.1 -0.1)">
      <use xlink:href="#DejaVuSans-6b"/>
     </g>
    </g>
   </g>
   <g id="matplotlib.axis_8">
    <g id="ytick_10">
     <g id="line2d_34">
      <g>
       <use xlink:href="#m17a9d03860" x="303.77" y="318.04" style="stroke: #000000; stroke-width: 0.8"/>
      </g>
     </g>
     <g id="text_44">
      <!-- 0.000 -->
      <g transform="translate(268.141875 321.839219)scale(0.1 -0.1)">
       <use xlink:href="#DejaVuSans-30"/>
       <use xlink:href="#DejaVuSans-2e" x="63.623047"/>
       <use xlink:href="#DejaVuSans-30" x="95.410156"/>
       <use xlink:href="#DejaVuSans-30" x="159.033203"/>
       <use xlink:href="#DejaVuSans-30" x="222.65625"/>
      </g>
     </g>
    </g>
    <g id="ytick_11">
     <g id="line2d_35">
      <g>
       <use xlink:href="#m17a9d03860" x="303.77" y="289.438382" style="stroke: #000000; stroke-width: 0.8"/>
      </g>
     </g>
     <g id="text_45">
      <!-- 0.025 -->
      <g transform="translate(268.141875 293.237601)scale(0.1 -0.1)">
       <use xlink:href="#DejaVuSans-30"/>
       <use xlink:href="#DejaVuSans-2e" x="63.623047"/>
       <use xlink:href="#DejaVuSans-30" x="95.410156"/>
       <use xlink:href="#DejaVuSans-32" x="159.033203"/>
       <use xlink:href="#DejaVuSans-35" x="222.65625"/>
      </g>
     </g>
    </g>
    <g id="ytick_12">
     <g id="line2d_36">
      <g>
       <use xlink:href="#m17a9d03860" x="303.77" y="260.836764" style="stroke: #000000; stroke-width: 0.8"/>
      </g>
     </g>
     <g id="text_46">
      <!-- 0.050 -->
      <g transform="translate(268.141875 264.635983)scale(0.1 -0.1)">
       <use xlink:href="#DejaVuSans-30"/>
       <use xlink:href="#DejaVuSans-2e" x="63.623047"/>
       <use xlink:href="#DejaVuSans-30" x="95.410156"/>
       <use xlink:href="#DejaVuSans-35" x="159.033203"/>
       <use xlink:href="#DejaVuSans-30" x="222.65625"/>
      </g>
     </g>
    </g>
    <g id="ytick_13">
     <g id="line2d_37">
      <g>
       <use xlink:href="#m17a9d03860" x="303.77" y="232.235146" style="stroke: #000000; stroke-width: 0.8"/>
      </g>
     </g>
     <g id="text_47">
      <!-- 0.075 -->
      <g transform="translate(268.141875 236.034365)scale(0.1 -0.1)">
       <defs>
        <path id="DejaVuSans-37" d="M 525 4666 
L 3525 4666 
L 3525 4397 
L 1831 0 
L 1172 0 
L 2766 4134 
L 525 4134 
L 525 4666 
z
" transform="scale(0.015625)"/>
       </defs>
       <use xlink:href="#DejaVuSans-30"/>
       <use xlink:href="#DejaVuSans-2e" x="63.623047"/>
       <use xlink:href="#DejaVuSans-30" x="95.410156"/>
       <use xlink:href="#DejaVuSans-37" x="159.033203"/>
       <use xlink:href="#DejaVuSans-35" x="222.65625"/>
      </g>
     </g>
    </g>
    <g id="text_48">
     <!-- P(X=k) -->
     <g transform="translate(262.062187 287.662562)rotate(-90)scale(0.1 -0.1)">
      <use xlink:href="#DejaVuSans-50"/>
      <use xlink:href="#DejaVuSans-28" x="60.302734"/>
      <use xlink:href="#DejaVuSans-58" x="99.316406"/>
      <use xlink:href="#DejaVuSans-3d" x="167.822266"/>
      <use xlink:href="#DejaVuSans-6b" x="251.611328"/>
      <use xlink:href="#DejaVuSans-29" x="309.521484"/>
     </g>
    </g>
   </g>
   <g id="patch_242">
    <path d="M 303.77 318.04 
L 303.77 222.432 
" style="fill: none; stroke: #000000; stroke-width: 0.8; stroke-linejoin: miter; stroke-linecap: square"/>
   </g>
   <g id="patch_243">
    <path d="M 492.415744 318.04 
L 492.415744 222.432 
" style="fill: none; stroke: #000000; stroke-width: 0.8; stroke-linejoin: miter; stroke-linecap: square"/>
   </g>
   <g id="patch_244">
    <path d="M 303.77 318.04 
L 492.415744 318.04 
" style="fill: none; stroke: #000000; stroke-width: 0.8; stroke-linejoin: miter; stroke-linecap: square"/>
   </g>
   <g id="patch_245">
    <path d="M 303.77 222.432 
L 492.415744 222.432 
" style="fill: none; stroke: #000000; stroke-width: 0.8; stroke-linejoin: miter; stroke-linecap: square"/>
   </g>
   <g id="text_49">
    <!-- N=100, mu=0.5 -->
    <g transform="translate(349.093497 216.432)scale(0.12 -0.12)">
     <use xlink:href="#DejaVuSans-4e"/>
     <use xlink:href="#DejaVuSans-3d" x="74.804688"/>
     <use xlink:href="#DejaVuSans-31" x="158.59375"/>
     <use xlink:href="#DejaVuSans-30" x="222.216797"/>
     <use xlink:href="#DejaVuSans-30" x="285.839844"/>
     <use xlink:href="#DejaVuSans-2c" x="349.462891"/>
     <use xlink:href="#DejaVuSans-20" x="381.25"/>
     <use xlink:href="#DejaVuSans-6d" x="413.037109"/>
     <use xlink:href="#DejaVuSans-75" x="510.449219"/>
     <use xlink:href="#DejaVuSans-3d" x="573.828125"/>
     <use xlink:href="#DejaVuSans-30" x="657.617188"/>
     <use xlink:href="#DejaVuSans-2e" x="721.240234"/>
     <use xlink:href="#DejaVuSans-35" x="753.027344"/>
    </g>
   </g>
  </g>
  <g id="text_50">
   <!-- Binomial Distributions, probability of k successes in N trials  -->
   <g transform="translate(72.222188 16.318125)scale(0.12 -0.12)">
    <defs>
     <path id="DejaVuSans-42" d="M 1259 2228 
L 1259 519 
L 2272 519 
Q 2781 519 3026 730 
Q 3272 941 3272 1375 
Q 3272 1813 3026 2020 
Q 2781 2228 2272 2228 
L 1259 2228 
z
M 1259 4147 
L 1259 2741 
L 2194 2741 
Q 2656 2741 2882 2914 
Q 3109 3088 3109 3444 
Q 3109 3797 2882 3972 
Q 2656 4147 2194 4147 
L 1259 4147 
z
M 628 4666 
L 2241 4666 
Q 2963 4666 3353 4366 
Q 3744 4066 3744 3513 
Q 3744 3084 3544 2831 
Q 3344 2578 2956 2516 
Q 3422 2416 3680 2098 
Q 3938 1781 3938 1306 
Q 3938 681 3513 340 
Q 3088 0 2303 0 
L 628 0 
L 628 4666 
z
" transform="scale(0.015625)"/>
     <path id="DejaVuSans-69" d="M 603 3500 
L 1178 3500 
L 1178 0 
L 603 0 
L 603 3500 
z
M 603 4863 
L 1178 4863 
L 1178 4134 
L 603 4134 
L 603 4863 
z
" transform="scale(0.015625)"/>
     <path id="DejaVuSans-6e" d="M 3513 2113 
L 3513 0 
L 2938 0 
L 2938 2094 
Q 2938 2591 2744 2837 
Q 2550 3084 2163 3084 
Q 1697 3084 1428 2787 
Q 1159 2491 1159 1978 
L 1159 0 
L 581 0 
L 581 3500 
L 1159 3500 
L 1159 2956 
Q 1366 3272 1645 3428 
Q 1925 3584 2291 3584 
Q 2894 3584 3203 3211 
Q 3513 2838 3513 2113 
z
" transform="scale(0.015625)"/>
     <path id="DejaVuSans-6f" d="M 1959 3097 
Q 1497 3097 1228 2736 
Q 959 2375 959 1747 
Q 959 1119 1226 758 
Q 1494 397 1959 397 
Q 2419 397 2687 759 
Q 2956 1122 2956 1747 
Q 2956 2369 2687 2733 
Q 2419 3097 1959 3097 
z
M 1959 3584 
Q 2709 3584 3137 3096 
Q 3566 2609 3566 1747 
Q 3566 888 3137 398 
Q 2709 -91 1959 -91 
Q 1206 -91 779 398 
Q 353 888 353 1747 
Q 353 2609 779 3096 
Q 1206 3584 1959 3584 
z
" transform="scale(0.015625)"/>
     <path id="DejaVuSans-61" d="M 2194 1759 
Q 1497 1759 1228 1600 
Q 959 1441 959 1056 
Q 959 750 1161 570 
Q 1363 391 1709 391 
Q 2188 391 2477 730 
Q 2766 1069 2766 1631 
L 2766 1759 
L 2194 1759 
z
M 3341 1997 
L 3341 0 
L 2766 0 
L 2766 531 
Q 2569 213 2275 61 
Q 1981 -91 1556 -91 
Q 1019 -91 701 211 
Q 384 513 384 1019 
Q 384 1609 779 1909 
Q 1175 2209 1959 2209 
L 2766 2209 
L 2766 2266 
Q 2766 2663 2505 2880 
Q 2244 3097 1772 3097 
Q 1472 3097 1187 3025 
Q 903 2953 641 2809 
L 641 3341 
Q 956 3463 1253 3523 
Q 1550 3584 1831 3584 
Q 2591 3584 2966 3190 
Q 3341 2797 3341 1997 
z
" transform="scale(0.015625)"/>
     <path id="DejaVuSans-6c" d="M 603 4863 
L 1178 4863 
L 1178 0 
L 603 0 
L 603 4863 
z
" transform="scale(0.015625)"/>
     <path id="DejaVuSans-44" d="M 1259 4147 
L 1259 519 
L 2022 519 
Q 2988 519 3436 956 
Q 3884 1394 3884 2338 
Q 3884 3275 3436 3711 
Q 2988 4147 2022 4147 
L 1259 4147 
z
M 628 4666 
L 1925 4666 
Q 3281 4666 3915 4102 
Q 4550 3538 4550 2338 
Q 4550 1131 3912 565 
Q 3275 0 1925 0 
L 628 0 
L 628 4666 
z
" transform="scale(0.015625)"/>
     <path id="DejaVuSans-73" d="M 2834 3397 
L 2834 2853 
Q 2591 2978 2328 3040 
Q 2066 3103 1784 3103 
Q 1356 3103 1142 2972 
Q 928 2841 928 2578 
Q 928 2378 1081 2264 
Q 1234 2150 1697 2047 
L 1894 2003 
Q 2506 1872 2764 1633 
Q 3022 1394 3022 966 
Q 3022 478 2636 193 
Q 2250 -91 1575 -91 
Q 1294 -91 989 -36 
Q 684 19 347 128 
L 347 722 
Q 666 556 975 473 
Q 1284 391 1588 391 
Q 1994 391 2212 530 
Q 2431 669 2431 922 
Q 2431 1156 2273 1281 
Q 2116 1406 1581 1522 
L 1381 1569 
Q 847 1681 609 1914 
Q 372 2147 372 2553 
Q 372 3047 722 3315 
Q 1072 3584 1716 3584 
Q 2034 3584 2315 3537 
Q 2597 3491 2834 3397 
z
" transform="scale(0.015625)"/>
     <path id="DejaVuSans-74" d="M 1172 4494 
L 1172 3500 
L 2356 3500 
L 2356 3053 
L 1172 3053 
L 1172 1153 
Q 1172 725 1289 603 
Q 1406 481 1766 481 
L 2356 481 
L 2356 0 
L 1766 0 
Q 1100 0 847 248 
Q 594 497 594 1153 
L 594 3053 
L 172 3053 
L 172 3500 
L 594 3500 
L 594 4494 
L 1172 4494 
z
" transform="scale(0.015625)"/>
     <path id="DejaVuSans-72" d="M 2631 2963 
Q 2534 3019 2420 3045 
Q 2306 3072 2169 3072 
Q 1681 3072 1420 2755 
Q 1159 2438 1159 1844 
L 1159 0 
L 581 0 
L 581 3500 
L 1159 3500 
L 1159 2956 
Q 1341 3275 1631 3429 
Q 1922 3584 2338 3584 
Q 2397 3584 2469 3576 
Q 2541 3569 2628 3553 
L 2631 2963 
z
" transform="scale(0.015625)"/>
     <path id="DejaVuSans-62" d="M 3116 1747 
Q 3116 2381 2855 2742 
Q 2594 3103 2138 3103 
Q 1681 3103 1420 2742 
Q 1159 2381 1159 1747 
Q 1159 1113 1420 752 
Q 1681 391 2138 391 
Q 2594 391 2855 752 
Q 3116 1113 3116 1747 
z
M 1159 2969 
Q 1341 3281 1617 3432 
Q 1894 3584 2278 3584 
Q 2916 3584 3314 3078 
Q 3713 2572 3713 1747 
Q 3713 922 3314 415 
Q 2916 -91 2278 -91 
Q 1894 -91 1617 61 
Q 1341 213 1159 525 
L 1159 0 
L 581 0 
L 581 4863 
L 1159 4863 
L 1159 2969 
z
" transform="scale(0.015625)"/>
     <path id="DejaVuSans-70" d="M 1159 525 
L 1159 -1331 
L 581 -1331 
L 581 3500 
L 1159 3500 
L 1159 2969 
Q 1341 3281 1617 3432 
Q 1894 3584 2278 3584 
Q 2916 3584 3314 3078 
Q 3713 2572 3713 1747 
Q 3713 922 3314 415 
Q 2916 -91 2278 -91 
Q 1894 -91 1617 61 
Q 1341 213 1159 525 
z
M 3116 1747 
Q 3116 2381 2855 2742 
Q 2594 3103 2138 3103 
Q 1681 3103 1420 2742 
Q 1159 2381 1159 1747 
Q 1159 1113 1420 752 
Q 1681 391 2138 391 
Q 2594 391 2855 752 
Q 3116 1113 3116 1747 
z
" transform="scale(0.015625)"/>
     <path id="DejaVuSans-79" d="M 2059 -325 
Q 1816 -950 1584 -1140 
Q 1353 -1331 966 -1331 
L 506 -1331 
L 506 -850 
L 844 -850 
Q 1081 -850 1212 -737 
Q 1344 -625 1503 -206 
L 1606 56 
L 191 3500 
L 800 3500 
L 1894 763 
L 2988 3500 
L 3597 3500 
L 2059 -325 
z
" transform="scale(0.015625)"/>
     <path id="DejaVuSans-66" d="M 2375 4863 
L 2375 4384 
L 1825 4384 
Q 1516 4384 1395 4259 
Q 1275 4134 1275 3809 
L 1275 3500 
L 2222 3500 
L 2222 3053 
L 1275 3053 
L 1275 0 
L 697 0 
L 697 3053 
L 147 3053 
L 147 3500 
L 697 3500 
L 697 3744 
Q 697 4328 969 4595 
Q 1241 4863 1831 4863 
L 2375 4863 
z
" transform="scale(0.015625)"/>
     <path id="DejaVuSans-63" d="M 3122 3366 
L 3122 2828 
Q 2878 2963 2633 3030 
Q 2388 3097 2138 3097 
Q 1578 3097 1268 2742 
Q 959 2388 959 1747 
Q 959 1106 1268 751 
Q 1578 397 2138 397 
Q 2388 397 2633 464 
Q 2878 531 3122 666 
L 3122 134 
Q 2881 22 2623 -34 
Q 2366 -91 2075 -91 
Q 1284 -91 818 406 
Q 353 903 353 1747 
Q 353 2603 823 3093 
Q 1294 3584 2113 3584 
Q 2378 3584 2631 3529 
Q 2884 3475 3122 3366 
z
" transform="scale(0.015625)"/>
     <path id="DejaVuSans-65" d="M 3597 1894 
L 3597 1613 
L 953 1613 
Q 991 1019 1311 708 
Q 1631 397 2203 397 
Q 2534 397 2845 478 
Q 3156 559 3463 722 
L 3463 178 
Q 3153 47 2828 -22 
Q 2503 -91 2169 -91 
Q 1331 -91 842 396 
Q 353 884 353 1716 
Q 353 2575 817 3079 
Q 1281 3584 2069 3584 
Q 2775 3584 3186 3129 
Q 3597 2675 3597 1894 
z
M 3022 2063 
Q 3016 2534 2758 2815 
Q 2500 3097 2075 3097 
Q 1594 3097 1305 2825 
Q 1016 2553 972 2059 
L 3022 2063 
z
" transform="scale(0.015625)"/>
    </defs>
    <use xlink:href="#DejaVuSans-42"/>
    <use xlink:href="#DejaVuSans-69" x="68.603516"/>
    <use xlink:href="#DejaVuSans-6e" x="96.386719"/>
    <use xlink:href="#DejaVuSans-6f" x="159.765625"/>
    <use xlink:href="#DejaVuSans-6d" x="220.947266"/>
    <use xlink:href="#DejaVuSans-69" x="318.359375"/>
    <use xlink:href="#DejaVuSans-61" x="346.142578"/>
    <use xlink:href="#DejaVuSans-6c" x="407.421875"/>
    <use xlink:href="#DejaVuSans-20" x="435.205078"/>
    <use xlink:href="#DejaVuSans-44" x="466.992188"/>
    <use xlink:href="#DejaVuSans-69" x="543.994141"/>
    <use xlink:href="#DejaVuSans-73" x="571.777344"/>
    <use xlink:href="#DejaVuSans-74" x="623.876953"/>
    <use xlink:href="#DejaVuSans-72" x="663.085938"/>
    <use xlink:href="#DejaVuSans-69" x="704.199219"/>
    <use xlink:href="#DejaVuSans-62" x="731.982422"/>
    <use xlink:href="#DejaVuSans-75" x="795.458984"/>
    <use xlink:href="#DejaVuSans-74" x="858.837891"/>
    <use xlink:href="#DejaVuSans-69" x="898.046875"/>
    <use xlink:href="#DejaVuSans-6f" x="925.830078"/>
    <use xlink:href="#DejaVuSans-6e" x="987.011719"/>
    <use xlink:href="#DejaVuSans-73" x="1050.390625"/>
    <use xlink:href="#DejaVuSans-2c" x="1102.490234"/>
    <use xlink:href="#DejaVuSans-20" x="1134.277344"/>
    <use xlink:href="#DejaVuSans-70" x="1166.064453"/>
    <use xlink:href="#DejaVuSans-72" x="1229.541016"/>
    <use xlink:href="#DejaVuSans-6f" x="1268.404297"/>
    <use xlink:href="#DejaVuSans-62" x="1329.585938"/>
    <use xlink:href="#DejaVuSans-61" x="1393.0625"/>
    <use xlink:href="#DejaVuSans-62" x="1454.341797"/>
    <use xlink:href="#DejaVuSans-69" x="1517.818359"/>
    <use xlink:href="#DejaVuSans-6c" x="1545.601562"/>
    <use xlink:href="#DejaVuSans-69" x="1573.384766"/>
    <use xlink:href="#DejaVuSans-74" x="1601.167969"/>
    <use xlink:href="#DejaVuSans-79" x="1640.376953"/>
    <use xlink:href="#DejaVuSans-20" x="1699.556641"/>
    <use xlink:href="#DejaVuSans-6f" x="1731.34375"/>
    <use xlink:href="#DejaVuSans-66" x="1792.525391"/>
    <use xlink:href="#DejaVuSans-20" x="1827.730469"/>
    <use xlink:href="#DejaVuSans-6b" x="1859.517578"/>
    <use xlink:href="#DejaVuSans-20" x="1917.427734"/>
    <use xlink:href="#DejaVuSans-73" x="1949.214844"/>
    <use xlink:href="#DejaVuSans-75" x="2001.314453"/>
    <use xlink:href="#DejaVuSans-63" x="2064.693359"/>
    <use xlink:href="#DejaVuSans-63" x="2119.673828"/>
    <use xlink:href="#DejaVuSans-65" x="2174.654297"/>
    <use xlink:href="#DejaVuSans-73" x="2236.177734"/>
    <use xlink:href="#DejaVuSans-73" x="2288.277344"/>
    <use xlink:href="#DejaVuSans-65" x="2340.376953"/>
    <use xlink:href="#DejaVuSans-73" x="2401.900391"/>
    <use xlink:href="#DejaVuSans-20" x="2454"/>
    <use xlink:href="#DejaVuSans-69" x="2485.787109"/>
    <use xlink:href="#DejaVuSans-6e" x="2513.570312"/>
    <use xlink:href="#DejaVuSans-20" x="2576.949219"/>
    <use xlink:href="#DejaVuSans-4e" x="2608.736328"/>
    <use xlink:href="#DejaVuSans-20" x="2683.541016"/>
    <use xlink:href="#DejaVuSans-74" x="2715.328125"/>
    <use xlink:href="#DejaVuSans-72" x="2754.537109"/>
    <use xlink:href="#DejaVuSans-69" x="2795.650391"/>
    <use xlink:href="#DejaVuSans-61" x="2823.433594"/>
    <use xlink:href="#DejaVuSans-6c" x="2884.712891"/>
    <use xlink:href="#DejaVuSans-73" x="2912.496094"/>
    <use xlink:href="#DejaVuSans-20" x="2964.595703"/>
   </g>
   <!--  given probability of success $\mu$ and number of trials $N$ -->
   <g transform="translate(91.2 29.75775)scale(0.12 -0.12)">
    <defs>
     <path id="DejaVuSans-67" d="M 2906 1791 
Q 2906 2416 2648 2759 
Q 2391 3103 1925 3103 
Q 1463 3103 1205 2759 
Q 947 2416 947 1791 
Q 947 1169 1205 825 
Q 1463 481 1925 481 
Q 2391 481 2648 825 
Q 2906 1169 2906 1791 
z
M 3481 434 
Q 3481 -459 3084 -895 
Q 2688 -1331 1869 -1331 
Q 1566 -1331 1297 -1286 
Q 1028 -1241 775 -1147 
L 775 -588 
Q 1028 -725 1275 -790 
Q 1522 -856 1778 -856 
Q 2344 -856 2625 -561 
Q 2906 -266 2906 331 
L 2906 616 
Q 2728 306 2450 153 
Q 2172 0 1784 0 
Q 1141 0 747 490 
Q 353 981 353 1791 
Q 353 2603 747 3093 
Q 1141 3584 1784 3584 
Q 2172 3584 2450 3431 
Q 2728 3278 2906 2969 
L 2906 3500 
L 3481 3500 
L 3481 434 
z
" transform="scale(0.015625)"/>
     <path id="DejaVuSans-76" d="M 191 3500 
L 800 3500 
L 1894 563 
L 2988 3500 
L 3597 3500 
L 2284 0 
L 1503 0 
L 191 3500 
z
" transform="scale(0.015625)"/>
     <path id="DejaVuSans-Oblique-3bc" d="M -84 -1331 
L 856 3500 
L 1434 3500 
L 1009 1322 
Q 997 1256 987 1175 
Q 978 1094 978 1013 
Q 978 722 1161 565 
Q 1344 409 1684 409 
Q 2147 409 2431 671 
Q 2716 934 2816 1459 
L 3213 3500 
L 3788 3500 
L 3266 809 
Q 3253 750 3248 706 
Q 3244 663 3244 628 
Q 3244 531 3283 486 
Q 3322 441 3406 441 
Q 3438 441 3492 456 
Q 3547 472 3647 513 
L 3559 50 
Q 3422 -19 3297 -55 
Q 3172 -91 3053 -91 
Q 2847 -91 2730 40 
Q 2613 172 2613 403 
Q 2438 153 2195 31 
Q 1953 -91 1625 -91 
Q 1334 -91 1117 43 
Q 900 178 831 397 
L 494 -1331 
L -84 -1331 
z
" transform="scale(0.015625)"/>
     <path id="DejaVuSans-64" d="M 2906 2969 
L 2906 4863 
L 3481 4863 
L 3481 0 
L 2906 0 
L 2906 525 
Q 2725 213 2448 61 
Q 2172 -91 1784 -91 
Q 1150 -91 751 415 
Q 353 922 353 1747 
Q 353 2572 751 3078 
Q 1150 3584 1784 3584 
Q 2172 3584 2448 3432 
Q 2725 3281 2906 2969 
z
M 947 1747 
Q 947 1113 1208 752 
Q 1469 391 1925 391 
Q 2381 391 2643 752 
Q 2906 1113 2906 1747 
Q 2906 2381 2643 2742 
Q 2381 3103 1925 3103 
Q 1469 3103 1208 2742 
Q 947 2381 947 1747 
z
" transform="scale(0.015625)"/>
     <path id="DejaVuSans-Oblique-4e" d="M 1081 4666 
L 1931 4666 
L 3219 666 
L 4000 4666 
L 4616 4666 
L 3706 0 
L 2853 0 
L 1569 4025 
L 788 0 
L 172 0 
L 1081 4666 
z
" transform="scale(0.015625)"/>
    </defs>
    <use xlink:href="#DejaVuSans-20" transform="translate(0 0.015625)"/>
    <use xlink:href="#DejaVuSans-67" transform="translate(31.787109 0.015625)"/>
    <use xlink:href="#DejaVuSans-69" transform="translate(95.263672 0.015625)"/>
    <use xlink:href="#DejaVuSans-76" transform="translate(123.046875 0.015625)"/>
    <use xlink:href="#DejaVuSans-65" transform="translate(182.226562 0.015625)"/>
    <use xlink:href="#DejaVuSans-6e" transform="translate(243.75 0.015625)"/>
    <use xlink:href="#DejaVuSans-20" transform="translate(307.128906 0.015625)"/>
    <use xlink:href="#DejaVuSans-70" transform="translate(338.916016 0.015625)"/>
    <use xlink:href="#DejaVuSans-72" transform="translate(402.392578 0.015625)"/>
    <use xlink:href="#DejaVuSans-6f" transform="translate(443.505859 0.015625)"/>
    <use xlink:href="#DejaVuSans-62" transform="translate(504.6875 0.015625)"/>
    <use xlink:href="#DejaVuSans-61" transform="translate(568.164062 0.015625)"/>
    <use xlink:href="#DejaVuSans-62" transform="translate(629.443359 0.015625)"/>
    <use xlink:href="#DejaVuSans-69" transform="translate(692.919922 0.015625)"/>
    <use xlink:href="#DejaVuSans-6c" transform="translate(720.703125 0.015625)"/>
    <use xlink:href="#DejaVuSans-69" transform="translate(748.486328 0.015625)"/>
    <use xlink:href="#DejaVuSans-74" transform="translate(776.269531 0.015625)"/>
    <use xlink:href="#DejaVuSans-79" transform="translate(815.478516 0.015625)"/>
    <use xlink:href="#DejaVuSans-20" transform="translate(874.658203 0.015625)"/>
    <use xlink:href="#DejaVuSans-6f" transform="translate(906.445312 0.015625)"/>
    <use xlink:href="#DejaVuSans-66" transform="translate(967.626953 0.015625)"/>
    <use xlink:href="#DejaVuSans-20" transform="translate(1002.832031 0.015625)"/>
    <use xlink:href="#DejaVuSans-73" transform="translate(1034.619141 0.015625)"/>
    <use xlink:href="#DejaVuSans-75" transform="translate(1086.71875 0.015625)"/>
    <use xlink:href="#DejaVuSans-63" transform="translate(1150.097656 0.015625)"/>
    <use xlink:href="#DejaVuSans-63" transform="translate(1205.078125 0.015625)"/>
    <use xlink:href="#DejaVuSans-65" transform="translate(1260.058594 0.015625)"/>
    <use xlink:href="#DejaVuSans-73" transform="translate(1321.582031 0.015625)"/>
    <use xlink:href="#DejaVuSans-73" transform="translate(1373.681641 0.015625)"/>
    <use xlink:href="#DejaVuSans-20" transform="translate(1425.78125 0.015625)"/>
    <use xlink:href="#DejaVuSans-Oblique-3bc" transform="translate(1457.568359 0.015625)"/>
    <use xlink:href="#DejaVuSans-20" transform="translate(1521.191406 0.015625)"/>
    <use xlink:href="#DejaVuSans-61" transform="translate(1552.978516 0.015625)"/>
    <use xlink:href="#DejaVuSans-6e" transform="translate(1614.257812 0.015625)"/>
    <use xlink:href="#DejaVuSans-64" transform="translate(1677.636719 0.015625)"/>
    <use xlink:href="#DejaVuSans-20" transform="translate(1741.113281 0.015625)"/>
    <use xlink:href="#DejaVuSans-6e" transform="translate(1772.900391 0.015625)"/>
    <use xlink:href="#DejaVuSans-75" transform="translate(1836.279297 0.015625)"/>
    <use xlink:href="#DejaVuSans-6d" transform="translate(1899.658203 0.015625)"/>
    <use xlink:href="#DejaVuSans-62" transform="translate(1997.070312 0.015625)"/>
    <use xlink:href="#DejaVuSans-65" transform="translate(2060.546875 0.015625)"/>
    <use xlink:href="#DejaVuSans-72" transform="translate(2122.070312 0.015625)"/>
    <use xlink:href="#DejaVuSans-20" transform="translate(2163.183594 0.015625)"/>
    <use xlink:href="#DejaVuSans-6f" transform="translate(2194.970703 0.015625)"/>
    <use xlink:href="#DejaVuSans-66" transform="translate(2256.152344 0.015625)"/>
    <use xlink:href="#DejaVuSans-20" transform="translate(2291.357422 0.015625)"/>
    <use xlink:href="#DejaVuSans-74" transform="translate(2323.144531 0.015625)"/>
    <use xlink:href="#DejaVuSans-72" transform="translate(2362.353516 0.015625)"/>
    <use xlink:href="#DejaVuSans-69" transform="translate(2403.466797 0.015625)"/>
    <use xlink:href="#DejaVuSans-61" transform="translate(2431.25 0.015625)"/>
    <use xlink:href="#DejaVuSans-6c" transform="translate(2492.529297 0.015625)"/>
    <use xlink:href="#DejaVuSans-73" transform="translate(2520.3125 0.015625)"/>
    <use xlink:href="#DejaVuSans-20" transform="translate(2572.412109 0.015625)"/>
    <use xlink:href="#DejaVuSans-Oblique-4e" transform="translate(2604.199219 0.015625)"/>
   </g>
  </g>
 </g>
 <defs>
  <clipPath id="pbc549e6ad9">
   <rect x="60.32" y="68.784" width="188.645744" height="95.608"/>
  </clipPath>
  <clipPath id="p921274c6f9">
   <rect x="303.77" y="68.784" width="188.645744" height="95.608"/>
  </clipPath>
  <clipPath id="p7c8d744f93">
   <rect x="60.32" y="222.432" width="188.645744" height="95.608"/>
  </clipPath>
  <clipPath id="pe5f13c32ec">
   <rect x="303.77" y="222.432" width="188.645744" height="95.608"/>
  </clipPath>
 </defs>
</svg>
