<?xml version="1.0" encoding="utf-8" standalone="no"?>
<!DOCTYPE svg PUBLIC "-//W3C//DTD SVG 1.1//EN"
  "http://www.w3.org/Graphics/SVG/1.1/DTD/svg11.dtd">
<svg xmlns:xlink="http://www.w3.org/1999/xlink" width="432pt" height="288pt" viewBox="0 0 432 288" xmlns="http://www.w3.org/2000/svg" version="1.1">
 <metadata>
  <rdf:RDF xmlns:dc="http://purl.org/dc/elements/1.1/" xmlns:cc="http://creativecommons.org/ns#" xmlns:rdf="http://www.w3.org/1999/02/22-rdf-syntax-ns#">
   <cc:Work>
    <dc:type rdf:resource="http://purl.org/dc/dcmitype/StillImage"/>
    <dc:date>2023-11-17T13:50:03.702472</dc:date>
    <dc:format>image/svg+xml</dc:format>
    <dc:creator>
     <cc:Agent>
      <dc:title>Matplotlib v3.5.1, https://matplotlib.org/</dc:title>
     </cc:Agent>
    </dc:creator>
   </cc:Work>
  </rdf:RDF>
 </metadata>
 <defs>
  <style type="text/css">*{stroke-linejoin: round; stroke-linecap: butt}</style>
 </defs>
 <g id="figure_1">
  <g id="patch_1">
   <path d="M 0 288 
L 432 288 
L 432 0 
L 0 0 
z
" style="fill: #ffffff"/>
  </g>
  <g id="axes_1">
   <g id="patch_2">
    <path d="M 54 256.32 
L 388.8 256.32 
L 388.8 34.56 
L 54 34.56 
z
" style="fill: #ffffff"/>
   </g>
   <g id="patch_3">
    <path d="M 69.218182 256.32 
L 75.66938 256.32 
L 75.66938 254.851293 
L 69.218182 254.851293 
z
" clip-path="url(#pfde75bc1d4)" style="fill: #1f77b4; opacity: 0.5"/>
   </g>
   <g id="patch_4">
    <path d="M 75.66938 256.32 
L 82.120577 256.32 
L 82.120577 253.382587 
L 75.66938 253.382587 
z
" clip-path="url(#pfde75bc1d4)" style="fill: #1f77b4; opacity: 0.5"/>
   </g>
   <g id="patch_5">
    <path d="M 82.120577 256.32 
L 88.571775 256.32 
L 88.571775 251.620139 
L 82.120577 251.620139 
z
" clip-path="url(#pfde75bc1d4)" style="fill: #1f77b4; opacity: 0.5"/>
   </g>
   <g id="patch_6">
    <path d="M 88.571775 256.32 
L 95.022973 256.32 
L 95.022973 247.507761 
L 88.571775 247.507761 
z
" clip-path="url(#pfde75bc1d4)" style="fill: #1f77b4; opacity: 0.5"/>
   </g>
   <g id="patch_7">
    <path d="M 95.022973 256.32 
L 101.47417 256.32 
L 101.47417 244.570348 
L 95.022973 244.570348 
z
" clip-path="url(#pfde75bc1d4)" style="fill: #1f77b4; opacity: 0.5"/>
   </g>
   <g id="patch_8">
    <path d="M 101.47417 256.32 
L 107.925368 256.32 
L 107.925368 233.995661 
L 101.47417 233.995661 
z
" clip-path="url(#pfde75bc1d4)" style="fill: #1f77b4; opacity: 0.5"/>
   </g>
   <g id="patch_9">
    <path d="M 107.925368 256.32 
L 114.376566 256.32 
L 114.376566 223.714715 
L 107.925368 223.714715 
z
" clip-path="url(#pfde75bc1d4)" style="fill: #1f77b4; opacity: 0.5"/>
   </g>
   <g id="patch_10">
    <path d="M 114.376566 256.32 
L 120.827763 256.32 
L 120.827763 204.915271 
L 114.376566 204.915271 
z
" clip-path="url(#pfde75bc1d4)" style="fill: #1f77b4; opacity: 0.5"/>
   </g>
   <g id="patch_11">
    <path d="M 120.827763 256.32 
L 127.278961 256.32 
L 127.278961 190.521947 
L 120.827763 190.521947 
z
" clip-path="url(#pfde75bc1d4)" style="fill: #1f77b4; opacity: 0.5"/>
   </g>
   <g id="patch_12">
    <path d="M 127.278961 256.32 
L 133.730159 256.32 
L 133.730159 161.441558 
L 127.278961 161.441558 
z
" clip-path="url(#pfde75bc1d4)" style="fill: #1f77b4; opacity: 0.5"/>
   </g>
   <g id="patch_13">
    <path d="M 133.730159 256.32 
L 140.181356 256.32 
L 140.181356 140.292184 
L 133.730159 140.292184 
z
" clip-path="url(#pfde75bc1d4)" style="fill: #1f77b4; opacity: 0.5"/>
   </g>
   <g id="patch_14">
    <path d="M 140.181356 256.32 
L 146.632554 256.32 
L 146.632554 127.073825 
L 140.181356 127.073825 
z
" clip-path="url(#pfde75bc1d4)" style="fill: #1f77b4; opacity: 0.5"/>
   </g>
   <g id="patch_15">
    <path d="M 146.632554 256.32 
L 153.083752 256.32 
L 153.083752 88.299972 
L 146.632554 88.299972 
z
" clip-path="url(#pfde75bc1d4)" style="fill: #1f77b4; opacity: 0.5"/>
   </g>
   <g id="patch_16">
    <path d="M 153.083752 256.32 
L 159.534949 256.32 
L 159.534949 66.269374 
L 153.083752 66.269374 
z
" clip-path="url(#pfde75bc1d4)" style="fill: #1f77b4; opacity: 0.5"/>
   </g>
   <g id="patch_17">
    <path d="M 159.534949 256.32 
L 165.986147 256.32 
L 165.986147 62.744478 
L 159.534949 62.744478 
z
" clip-path="url(#pfde75bc1d4)" style="fill: #1f77b4; opacity: 0.5"/>
   </g>
   <g id="patch_18">
    <path d="M 165.986147 256.32 
L 172.437345 256.32 
L 172.437345 45.12 
L 165.986147 45.12 
z
" clip-path="url(#pfde75bc1d4)" style="fill: #1f77b4; opacity: 0.5"/>
   </g>
   <g id="patch_19">
    <path d="M 172.437345 256.32 
L 178.888542 256.32 
L 178.888542 47.763672 
L 172.437345 47.763672 
z
" clip-path="url(#pfde75bc1d4)" style="fill: #1f77b4; opacity: 0.5"/>
   </g>
   <g id="patch_20">
    <path d="M 178.888542 256.32 
L 185.33974 256.32 
L 185.33974 63.919444 
L 178.888542 63.919444 
z
" clip-path="url(#pfde75bc1d4)" style="fill: #1f77b4; opacity: 0.5"/>
   </g>
   <g id="patch_21">
    <path d="M 185.33974 256.32 
L 191.790938 256.32 
L 191.790938 59.513324 
L 185.33974 59.513324 
z
" clip-path="url(#pfde75bc1d4)" style="fill: #1f77b4; opacity: 0.5"/>
   </g>
   <g id="patch_22">
    <path d="M 191.790938 256.32 
L 198.242136 256.32 
L 198.242136 69.79427 
L 191.790938 69.79427 
z
" clip-path="url(#pfde75bc1d4)" style="fill: #1f77b4; opacity: 0.5"/>
   </g>
   <g id="patch_23">
    <path d="M 198.242136 256.32 
L 204.693333 256.32 
L 204.693333 98.287177 
L 198.242136 98.287177 
z
" clip-path="url(#pfde75bc1d4)" style="fill: #1f77b4; opacity: 0.5"/>
   </g>
   <g id="patch_24">
    <path d="M 204.693333 256.32 
L 211.144531 256.32 
L 211.144531 127.073825 
L 204.693333 127.073825 
z
" clip-path="url(#pfde75bc1d4)" style="fill: #1f77b4; opacity: 0.5"/>
   </g>
   <g id="patch_25">
    <path d="M 211.144531 256.32 
L 217.595729 256.32 
L 217.595729 127.955049 
L 211.144531 127.955049 
z
" clip-path="url(#pfde75bc1d4)" style="fill: #1f77b4; opacity: 0.5"/>
   </g>
   <g id="patch_26">
    <path d="M 217.595729 256.32 
L 224.046926 256.32 
L 224.046926 151.454353 
L 217.595729 151.454353 
z
" clip-path="url(#pfde75bc1d4)" style="fill: #1f77b4; opacity: 0.5"/>
   </g>
   <g id="patch_27">
    <path d="M 224.046926 256.32 
L 230.498124 256.32 
L 230.498124 173.778693 
L 224.046926 173.778693 
z
" clip-path="url(#pfde75bc1d4)" style="fill: #1f77b4; opacity: 0.5"/>
   </g>
   <g id="patch_28">
    <path d="M 230.498124 256.32 
L 236.949322 256.32 
L 236.949322 189.640723 
L 230.498124 189.640723 
z
" clip-path="url(#pfde75bc1d4)" style="fill: #1f77b4; opacity: 0.5"/>
   </g>
   <g id="patch_29">
    <path d="M 236.949322 256.32 
L 243.400519 256.32 
L 243.400519 209.615132 
L 236.949322 209.615132 
z
" clip-path="url(#pfde75bc1d4)" style="fill: #1f77b4; opacity: 0.5"/>
   </g>
   <g id="patch_30">
    <path d="M 243.400519 256.32 
L 249.851717 256.32 
L 249.851717 221.364784 
L 243.400519 221.364784 
z
" clip-path="url(#pfde75bc1d4)" style="fill: #1f77b4; opacity: 0.5"/>
   </g>
   <g id="patch_31">
    <path d="M 249.851717 256.32 
L 256.302915 256.32 
L 256.302915 222.833491 
L 249.851717 222.833491 
z
" clip-path="url(#pfde75bc1d4)" style="fill: #1f77b4; opacity: 0.5"/>
   </g>
   <g id="patch_32">
    <path d="M 256.302915 256.32 
L 262.754112 256.32 
L 262.754112 236.05185 
L 256.302915 236.05185 
z
" clip-path="url(#pfde75bc1d4)" style="fill: #1f77b4; opacity: 0.5"/>
   </g>
   <g id="patch_33">
    <path d="M 262.754112 256.32 
L 269.20531 256.32 
L 269.20531 242.8079 
L 262.754112 242.8079 
z
" clip-path="url(#pfde75bc1d4)" style="fill: #1f77b4; opacity: 0.5"/>
   </g>
   <g id="patch_34">
    <path d="M 269.20531 256.32 
L 275.656508 256.32 
L 275.656508 244.864089 
L 269.20531 244.864089 
z
" clip-path="url(#pfde75bc1d4)" style="fill: #1f77b4; opacity: 0.5"/>
   </g>
   <g id="patch_35">
    <path d="M 275.656508 256.32 
L 282.107705 256.32 
L 282.107705 249.857691 
L 275.656508 249.857691 
z
" clip-path="url(#pfde75bc1d4)" style="fill: #1f77b4; opacity: 0.5"/>
   </g>
   <g id="patch_36">
    <path d="M 282.107705 256.32 
L 288.558903 256.32 
L 288.558903 252.501363 
L 282.107705 252.501363 
z
" clip-path="url(#pfde75bc1d4)" style="fill: #1f77b4; opacity: 0.5"/>
   </g>
   <g id="patch_37">
    <path d="M 288.558903 256.32 
L 295.010101 256.32 
L 295.010101 253.382587 
L 288.558903 253.382587 
z
" clip-path="url(#pfde75bc1d4)" style="fill: #1f77b4; opacity: 0.5"/>
   </g>
   <g id="patch_38">
    <path d="M 295.010101 256.32 
L 301.461298 256.32 
L 301.461298 254.263811 
L 295.010101 254.263811 
z
" clip-path="url(#pfde75bc1d4)" style="fill: #1f77b4; opacity: 0.5"/>
   </g>
   <g id="patch_39">
    <path d="M 301.461298 256.32 
L 307.912496 256.32 
L 307.912496 255.145035 
L 301.461298 255.145035 
z
" clip-path="url(#pfde75bc1d4)" style="fill: #1f77b4; opacity: 0.5"/>
   </g>
   <g id="patch_40">
    <path d="M 307.912496 256.32 
L 314.363694 256.32 
L 314.363694 255.732517 
L 307.912496 255.732517 
z
" clip-path="url(#pfde75bc1d4)" style="fill: #1f77b4; opacity: 0.5"/>
   </g>
   <g id="patch_41">
    <path d="M 314.363694 256.32 
L 320.814892 256.32 
L 320.814892 256.026259 
L 314.363694 256.026259 
z
" clip-path="url(#pfde75bc1d4)" style="fill: #1f77b4; opacity: 0.5"/>
   </g>
   <g id="patch_42">
    <path d="M 320.814892 256.32 
L 327.266089 256.32 
L 327.266089 255.438776 
L 320.814892 255.438776 
z
" clip-path="url(#pfde75bc1d4)" style="fill: #1f77b4; opacity: 0.5"/>
   </g>
   <g id="patch_43">
    <path d="M 73.441732 256.32 
L 80.366288 256.32 
L 80.366288 254.678032 
L 73.441732 254.678032 
z
" clip-path="url(#pfde75bc1d4)" style="fill: #ff7f0e; opacity: 0.5"/>
   </g>
   <g id="patch_44">
    <path d="M 80.366288 256.32 
L 87.290843 256.32 
L 87.290843 253.036064 
L 80.366288 253.036064 
z
" clip-path="url(#pfde75bc1d4)" style="fill: #ff7f0e; opacity: 0.5"/>
   </g>
   <g id="patch_45">
    <path d="M 87.290843 256.32 
L 94.215399 256.32 
L 94.215399 251.394096 
L 87.290843 251.394096 
z
" clip-path="url(#pfde75bc1d4)" style="fill: #ff7f0e; opacity: 0.5"/>
   </g>
   <g id="patch_46">
    <path d="M 94.215399 256.32 
L 101.139954 256.32 
L 101.139954 249.478466 
L 94.215399 249.478466 
z
" clip-path="url(#pfde75bc1d4)" style="fill: #ff7f0e; opacity: 0.5"/>
   </g>
   <g id="patch_47">
    <path d="M 101.139954 256.32 
L 108.06451 256.32 
L 108.06451 244.005239 
L 101.139954 244.005239 
z
" clip-path="url(#pfde75bc1d4)" style="fill: #ff7f0e; opacity: 0.5"/>
   </g>
   <g id="patch_48">
    <path d="M 108.06451 256.32 
L 114.989065 256.32 
L 114.989065 234.974414 
L 108.06451 234.974414 
z
" clip-path="url(#pfde75bc1d4)" style="fill: #ff7f0e; opacity: 0.5"/>
   </g>
   <g id="patch_49">
    <path d="M 114.989065 256.32 
L 121.913621 256.32 
L 121.913621 224.575283 
L 114.989065 224.575283 
z
" clip-path="url(#pfde75bc1d4)" style="fill: #ff7f0e; opacity: 0.5"/>
   </g>
   <g id="patch_50">
    <path d="M 121.913621 256.32 
L 128.838177 256.32 
L 128.838177 208.976586 
L 121.913621 208.976586 
z
" clip-path="url(#pfde75bc1d4)" style="fill: #ff7f0e; opacity: 0.5"/>
   </g>
   <g id="patch_51">
    <path d="M 128.838177 256.32 
L 135.762732 256.32 
L 135.762732 192.830566 
L 128.838177 192.830566 
z
" clip-path="url(#pfde75bc1d4)" style="fill: #ff7f0e; opacity: 0.5"/>
   </g>
   <g id="patch_52">
    <path d="M 135.762732 256.32 
L 142.687288 256.32 
L 142.687288 166.832737 
L 135.762732 166.832737 
z
" clip-path="url(#pfde75bc1d4)" style="fill: #ff7f0e; opacity: 0.5"/>
   </g>
   <g id="patch_53">
    <path d="M 142.687288 256.32 
L 149.611843 256.32 
L 149.611843 148.771088 
L 142.687288 148.771088 
z
" clip-path="url(#pfde75bc1d4)" style="fill: #ff7f0e; opacity: 0.5"/>
   </g>
   <g id="patch_54">
    <path d="M 149.611843 256.32 
L 156.536399 256.32 
L 156.536399 134.267036 
L 149.611843 134.267036 
z
" clip-path="url(#pfde75bc1d4)" style="fill: #ff7f0e; opacity: 0.5"/>
   </g>
   <g id="patch_55">
    <path d="M 156.536399 256.32 
L 163.460954 256.32 
L 163.460954 97.322753 
L 156.536399 97.322753 
z
" clip-path="url(#pfde75bc1d4)" style="fill: #ff7f0e; opacity: 0.5"/>
   </g>
   <g id="patch_56">
    <path d="M 163.460954 256.32 
L 170.38551 256.32 
L 170.38551 76.798152 
L 163.460954 76.798152 
z
" clip-path="url(#pfde75bc1d4)" style="fill: #ff7f0e; opacity: 0.5"/>
   </g>
   <g id="patch_57">
    <path d="M 170.38551 256.32 
L 177.310065 256.32 
L 177.310065 86.923622 
L 170.38551 86.923622 
z
" clip-path="url(#pfde75bc1d4)" style="fill: #ff7f0e; opacity: 0.5"/>
   </g>
   <g id="patch_58">
    <path d="M 177.310065 256.32 
L 184.234621 256.32 
L 184.234621 62.020439 
L 177.310065 62.020439 
z
" clip-path="url(#pfde75bc1d4)" style="fill: #ff7f0e; opacity: 0.5"/>
   </g>
   <g id="patch_59">
    <path d="M 184.234621 256.32 
L 191.159176 256.32 
L 191.159176 61.746777 
L 184.234621 61.746777 
z
" clip-path="url(#pfde75bc1d4)" style="fill: #ff7f0e; opacity: 0.5"/>
   </g>
   <g id="patch_60">
    <path d="M 191.159176 256.32 
L 198.083732 256.32 
L 198.083732 67.220005 
L 191.159176 67.220005 
z
" clip-path="url(#pfde75bc1d4)" style="fill: #ff7f0e; opacity: 0.5"/>
   </g>
   <g id="patch_61">
    <path d="M 198.083732 256.32 
L 205.008287 256.32 
L 205.008287 77.345475 
L 198.083732 77.345475 
z
" clip-path="url(#pfde75bc1d4)" style="fill: #ff7f0e; opacity: 0.5"/>
   </g>
   <g id="patch_62">
    <path d="M 205.008287 256.32 
L 211.932843 256.32 
L 211.932843 85.007993 
L 205.008287 85.007993 
z
" clip-path="url(#pfde75bc1d4)" style="fill: #ff7f0e; opacity: 0.5"/>
   </g>
   <g id="patch_63">
    <path d="M 211.932843 256.32 
L 218.857399 256.32 
L 218.857399 111.279483 
L 211.932843 111.279483 
z
" clip-path="url(#pfde75bc1d4)" style="fill: #ff7f0e; opacity: 0.5"/>
   </g>
   <g id="patch_64">
    <path d="M 218.857399 256.32 
L 225.781954 256.32 
L 225.781954 134.267036 
L 218.857399 134.267036 
z
" clip-path="url(#pfde75bc1d4)" style="fill: #ff7f0e; opacity: 0.5"/>
   </g>
   <g id="patch_65">
    <path d="M 225.781954 256.32 
L 232.70651 256.32 
L 232.70651 137.00365 
L 225.781954 137.00365 
z
" clip-path="url(#pfde75bc1d4)" style="fill: #ff7f0e; opacity: 0.5"/>
   </g>
   <g id="patch_66">
    <path d="M 232.70651 256.32 
L 239.631065 256.32 
L 239.631065 162.454156 
L 232.70651 162.454156 
z
" clip-path="url(#pfde75bc1d4)" style="fill: #ff7f0e; opacity: 0.5"/>
   </g>
   <g id="patch_67">
    <path d="M 239.631065 256.32 
L 246.555621 256.32 
L 246.555621 179.968482 
L 239.631065 179.968482 
z
" clip-path="url(#pfde75bc1d4)" style="fill: #ff7f0e; opacity: 0.5"/>
   </g>
   <g id="patch_68">
    <path d="M 246.555621 256.32 
L 253.480176 256.32 
L 253.480176 190.641275 
L 246.555621 190.641275 
z
" clip-path="url(#pfde75bc1d4)" style="fill: #ff7f0e; opacity: 0.5"/>
   </g>
   <g id="patch_69">
    <path d="M 253.480176 256.32 
L 260.404732 256.32 
L 260.404732 213.90249 
L 253.480176 213.90249 
z
" clip-path="url(#pfde75bc1d4)" style="fill: #ff7f0e; opacity: 0.5"/>
   </g>
   <g id="patch_70">
    <path d="M 260.404732 256.32 
L 267.329287 256.32 
L 267.329287 219.92304 
L 260.404732 219.92304 
z
" clip-path="url(#pfde75bc1d4)" style="fill: #ff7f0e; opacity: 0.5"/>
   </g>
   <g id="patch_71">
    <path d="M 267.329287 256.32 
L 274.253843 256.32 
L 274.253843 230.595833 
L 267.329287 230.595833 
z
" clip-path="url(#pfde75bc1d4)" style="fill: #ff7f0e; opacity: 0.5"/>
   </g>
   <g id="patch_72">
    <path d="M 274.253843 256.32 
L 281.178398 256.32 
L 281.178398 236.890044 
L 274.253843 236.890044 
z
" clip-path="url(#pfde75bc1d4)" style="fill: #ff7f0e; opacity: 0.5"/>
   </g>
   <g id="patch_73">
    <path d="M 281.178398 256.32 
L 288.102954 256.32 
L 288.102954 241.815948 
L 281.178398 241.815948 
z
" clip-path="url(#pfde75bc1d4)" style="fill: #ff7f0e; opacity: 0.5"/>
   </g>
   <g id="patch_74">
    <path d="M 288.102954 256.32 
L 295.027509 256.32 
L 295.027509 244.2789 
L 288.102954 244.2789 
z
" clip-path="url(#pfde75bc1d4)" style="fill: #ff7f0e; opacity: 0.5"/>
   </g>
   <g id="patch_75">
    <path d="M 295.027509 256.32 
L 301.952065 256.32 
L 301.952065 251.120434 
L 295.027509 251.120434 
z
" clip-path="url(#pfde75bc1d4)" style="fill: #ff7f0e; opacity: 0.5"/>
   </g>
   <g id="patch_76">
    <path d="M 301.952065 256.32 
L 308.87662 256.32 
L 308.87662 253.309725 
L 301.952065 253.309725 
z
" clip-path="url(#pfde75bc1d4)" style="fill: #ff7f0e; opacity: 0.5"/>
   </g>
   <g id="patch_77">
    <path d="M 308.87662 256.32 
L 315.801176 256.32 
L 315.801176 253.583386 
L 308.87662 253.583386 
z
" clip-path="url(#pfde75bc1d4)" style="fill: #ff7f0e; opacity: 0.5"/>
   </g>
   <g id="patch_78">
    <path d="M 315.801176 256.32 
L 322.725732 256.32 
L 322.725732 254.678032 
L 315.801176 254.678032 
z
" clip-path="url(#pfde75bc1d4)" style="fill: #ff7f0e; opacity: 0.5"/>
   </g>
   <g id="patch_79">
    <path d="M 322.725732 256.32 
L 329.650287 256.32 
L 329.650287 254.951693 
L 322.725732 254.951693 
z
" clip-path="url(#pfde75bc1d4)" style="fill: #ff7f0e; opacity: 0.5"/>
   </g>
   <g id="patch_80">
    <path d="M 329.650287 256.32 
L 336.574843 256.32 
L 336.574843 255.772677 
L 329.650287 255.772677 
z
" clip-path="url(#pfde75bc1d4)" style="fill: #ff7f0e; opacity: 0.5"/>
   </g>
   <g id="patch_81">
    <path d="M 336.574843 256.32 
L 343.499398 256.32 
L 343.499398 256.046339 
L 336.574843 256.046339 
z
" clip-path="url(#pfde75bc1d4)" style="fill: #ff7f0e; opacity: 0.5"/>
   </g>
   <g id="patch_82">
    <path d="M 343.499398 256.32 
L 350.423954 256.32 
L 350.423954 255.499016 
L 343.499398 255.499016 
z
" clip-path="url(#pfde75bc1d4)" style="fill: #ff7f0e; opacity: 0.5"/>
   </g>
   <g id="patch_83">
    <path d="M 77.586064 256.32 
L 84.985958 256.32 
L 84.985958 254.527423 
L 77.586064 254.527423 
z
" clip-path="url(#pfde75bc1d4)" style="fill: #2ca02c; opacity: 0.5"/>
   </g>
   <g id="patch_84">
    <path d="M 84.985958 256.32 
L 92.385852 256.32 
L 92.385852 253.24701 
L 84.985958 253.24701 
z
" clip-path="url(#pfde75bc1d4)" style="fill: #2ca02c; opacity: 0.5"/>
   </g>
   <g id="patch_85">
    <path d="M 92.385852 256.32 
L 99.785746 256.32 
L 99.785746 251.710515 
L 92.385852 251.710515 
z
" clip-path="url(#pfde75bc1d4)" style="fill: #2ca02c; opacity: 0.5"/>
   </g>
   <g id="patch_86">
    <path d="M 99.785746 256.32 
L 107.185639 256.32 
L 107.185639 249.405773 
L 99.785746 249.405773 
z
" clip-path="url(#pfde75bc1d4)" style="fill: #2ca02c; opacity: 0.5"/>
   </g>
   <g id="patch_87">
    <path d="M 107.185639 256.32 
L 114.585533 256.32 
L 114.585533 244.02804 
L 107.185639 244.02804 
z
" clip-path="url(#pfde75bc1d4)" style="fill: #2ca02c; opacity: 0.5"/>
   </g>
   <g id="patch_88">
    <path d="M 114.585533 256.32 
L 121.985427 256.32 
L 121.985427 236.089483 
L 114.585533 236.089483 
z
" clip-path="url(#pfde75bc1d4)" style="fill: #2ca02c; opacity: 0.5"/>
   </g>
   <g id="patch_89">
    <path d="M 121.985427 256.32 
L 129.385321 256.32 
L 129.385321 224.565771 
L 121.985427 224.565771 
z
" clip-path="url(#pfde75bc1d4)" style="fill: #2ca02c; opacity: 0.5"/>
   </g>
   <g id="patch_90">
    <path d="M 129.385321 256.32 
L 136.785215 256.32 
L 136.785215 212.785977 
L 129.385321 212.785977 
z
" clip-path="url(#pfde75bc1d4)" style="fill: #2ca02c; opacity: 0.5"/>
   </g>
   <g id="patch_91">
    <path d="M 136.785215 256.32 
L 144.185109 256.32 
L 144.185109 193.067625 
L 136.785215 193.067625 
z
" clip-path="url(#pfde75bc1d4)" style="fill: #2ca02c; opacity: 0.5"/>
   </g>
   <g id="patch_92">
    <path d="M 144.185109 256.32 
L 151.585002 256.32 
L 151.585002 171.556696 
L 144.185109 171.556696 
z
" clip-path="url(#pfde75bc1d4)" style="fill: #2ca02c; opacity: 0.5"/>
   </g>
   <g id="patch_93">
    <path d="M 151.585002 256.32 
L 158.984896 256.32 
L 158.984896 159.776901 
L 151.585002 159.776901 
z
" clip-path="url(#pfde75bc1d4)" style="fill: #2ca02c; opacity: 0.5"/>
   </g>
   <g id="patch_94">
    <path d="M 158.984896 256.32 
L 166.38479 256.32 
L 166.38479 140.05855 
L 158.984896 140.05855 
z
" clip-path="url(#pfde75bc1d4)" style="fill: #2ca02c; opacity: 0.5"/>
   </g>
   <g id="patch_95">
    <path d="M 166.38479 256.32 
L 173.784684 256.32 
L 173.784684 105.487414 
L 166.38479 105.487414 
z
" clip-path="url(#pfde75bc1d4)" style="fill: #2ca02c; opacity: 0.5"/>
   </g>
   <g id="patch_96">
    <path d="M 173.784684 256.32 
L 181.184578 256.32 
L 181.184578 93.451537 
L 173.784684 93.451537 
z
" clip-path="url(#pfde75bc1d4)" style="fill: #2ca02c; opacity: 0.5"/>
   </g>
   <g id="patch_97">
    <path d="M 181.184578 256.32 
L 188.584472 256.32 
L 188.584472 93.963702 
L 181.184578 93.963702 
z
" clip-path="url(#pfde75bc1d4)" style="fill: #2ca02c; opacity: 0.5"/>
   </g>
   <g id="patch_98">
    <path d="M 188.584472 256.32 
L 195.984366 256.32 
L 195.984366 76.806175 
L 188.584472 76.806175 
z
" clip-path="url(#pfde75bc1d4)" style="fill: #2ca02c; opacity: 0.5"/>
   </g>
   <g id="patch_99">
    <path d="M 195.984366 256.32 
L 203.384259 256.32 
L 203.384259 73.477102 
L 195.984366 73.477102 
z
" clip-path="url(#pfde75bc1d4)" style="fill: #2ca02c; opacity: 0.5"/>
   </g>
   <g id="patch_100">
    <path d="M 203.384259 256.32 
L 210.784153 256.32 
L 210.784153 79.623082 
L 203.384259 79.623082 
z
" clip-path="url(#pfde75bc1d4)" style="fill: #2ca02c; opacity: 0.5"/>
   </g>
   <g id="patch_101">
    <path d="M 210.784153 256.32 
L 218.184047 256.32 
L 218.184047 90.634629 
L 210.784153 90.634629 
z
" clip-path="url(#pfde75bc1d4)" style="fill: #2ca02c; opacity: 0.5"/>
   </g>
   <g id="patch_102">
    <path d="M 218.184047 256.32 
L 225.583941 256.32 
L 225.583941 100.621846 
L 218.184047 100.621846 
z
" clip-path="url(#pfde75bc1d4)" style="fill: #2ca02c; opacity: 0.5"/>
   </g>
   <g id="patch_103">
    <path d="M 225.583941 256.32 
L 232.983835 256.32 
L 232.983835 118.803703 
L 225.583941 118.803703 
z
" clip-path="url(#pfde75bc1d4)" style="fill: #2ca02c; opacity: 0.5"/>
   </g>
   <g id="patch_104">
    <path d="M 232.983835 256.32 
L 240.383729 256.32 
L 240.383729 142.619375 
L 232.983835 142.619375 
z
" clip-path="url(#pfde75bc1d4)" style="fill: #2ca02c; opacity: 0.5"/>
   </g>
   <g id="patch_105">
    <path d="M 240.383729 256.32 
L 247.783623 256.32 
L 247.783623 146.460612 
L 240.383729 146.460612 
z
" clip-path="url(#pfde75bc1d4)" style="fill: #2ca02c; opacity: 0.5"/>
   </g>
   <g id="patch_106">
    <path d="M 247.783623 256.32 
L 255.183516 256.32 
L 255.183516 170.788448 
L 247.783623 170.788448 
z
" clip-path="url(#pfde75bc1d4)" style="fill: #2ca02c; opacity: 0.5"/>
   </g>
   <g id="patch_107">
    <path d="M 255.183516 256.32 
L 262.58341 256.32 
L 262.58341 181.799996 
L 255.183516 181.799996 
z
" clip-path="url(#pfde75bc1d4)" style="fill: #2ca02c; opacity: 0.5"/>
   </g>
   <g id="patch_108">
    <path d="M 262.58341 256.32 
L 269.983304 256.32 
L 269.983304 197.67711 
L 262.58341 197.67711 
z
" clip-path="url(#pfde75bc1d4)" style="fill: #2ca02c; opacity: 0.5"/>
   </g>
   <g id="patch_109">
    <path d="M 269.983304 256.32 
L 277.383198 256.32 
L 277.383198 216.883297 
L 269.983304 216.883297 
z
" clip-path="url(#pfde75bc1d4)" style="fill: #2ca02c; opacity: 0.5"/>
   </g>
   <g id="patch_110">
    <path d="M 277.383198 256.32 
L 284.783092 256.32 
L 284.783092 219.444121 
L 277.383198 219.444121 
z
" clip-path="url(#pfde75bc1d4)" style="fill: #2ca02c; opacity: 0.5"/>
   </g>
   <g id="patch_111">
    <path d="M 284.783092 256.32 
L 292.182986 256.32 
L 292.182986 233.016493 
L 284.783092 233.016493 
z
" clip-path="url(#pfde75bc1d4)" style="fill: #2ca02c; opacity: 0.5"/>
   </g>
   <g id="patch_112">
    <path d="M 292.182986 256.32 
L 299.58288 256.32 
L 299.58288 238.394226 
L 292.182986 238.394226 
z
" clip-path="url(#pfde75bc1d4)" style="fill: #2ca02c; opacity: 0.5"/>
   </g>
   <g id="patch_113">
    <path d="M 299.58288 256.32 
L 306.982773 256.32 
L 306.982773 242.235463 
L 299.58288 242.235463 
z
" clip-path="url(#pfde75bc1d4)" style="fill: #2ca02c; opacity: 0.5"/>
   </g>
   <g id="patch_114">
    <path d="M 306.982773 256.32 
L 314.382667 256.32 
L 314.382667 244.284123 
L 306.982773 244.284123 
z
" clip-path="url(#pfde75bc1d4)" style="fill: #2ca02c; opacity: 0.5"/>
   </g>
   <g id="patch_115">
    <path d="M 314.382667 256.32 
L 321.782561 256.32 
L 321.782561 250.686185 
L 314.382667 250.686185 
z
" clip-path="url(#pfde75bc1d4)" style="fill: #2ca02c; opacity: 0.5"/>
   </g>
   <g id="patch_116">
    <path d="M 321.782561 256.32 
L 329.182455 256.32 
L 329.182455 252.990928 
L 321.782561 252.990928 
z
" clip-path="url(#pfde75bc1d4)" style="fill: #2ca02c; opacity: 0.5"/>
   </g>
   <g id="patch_117">
    <path d="M 329.182455 256.32 
L 336.582349 256.32 
L 336.582349 254.27134 
L 329.182455 254.27134 
z
" clip-path="url(#pfde75bc1d4)" style="fill: #2ca02c; opacity: 0.5"/>
   </g>
   <g id="patch_118">
    <path d="M 336.582349 256.32 
L 343.982243 256.32 
L 343.982243 254.27134 
L 336.582349 254.27134 
z
" clip-path="url(#pfde75bc1d4)" style="fill: #2ca02c; opacity: 0.5"/>
   </g>
   <g id="patch_119">
    <path d="M 343.982243 256.32 
L 351.382137 256.32 
L 351.382137 254.783505 
L 343.982243 254.783505 
z
" clip-path="url(#pfde75bc1d4)" style="fill: #2ca02c; opacity: 0.5"/>
   </g>
   <g id="patch_120">
    <path d="M 351.382137 256.32 
L 358.78203 256.32 
L 358.78203 256.32 
L 351.382137 256.32 
z
" clip-path="url(#pfde75bc1d4)" style="fill: #2ca02c; opacity: 0.5"/>
   </g>
   <g id="patch_121">
    <path d="M 358.78203 256.32 
L 366.181924 256.32 
L 366.181924 256.063918 
L 358.78203 256.063918 
z
" clip-path="url(#pfde75bc1d4)" style="fill: #2ca02c; opacity: 0.5"/>
   </g>
   <g id="patch_122">
    <path d="M 366.181924 256.32 
L 373.581818 256.32 
L 373.581818 255.29567 
L 366.181924 255.29567 
z
" clip-path="url(#pfde75bc1d4)" style="fill: #2ca02c; opacity: 0.5"/>
   </g>
   <g id="matplotlib.axis_1">
    <g id="xtick_1">
     <g id="line2d_1">
      <defs>
       <path id="m3e74d280e3" d="M 0 0 
L 0 3.5 
" style="stroke: #000000; stroke-width: 0.8"/>
      </defs>
      <g>
       <use xlink:href="#m3e74d280e3" x="71.37946" y="256.32" style="stroke: #000000; stroke-width: 0.8"/>
      </g>
     </g>
     <g id="text_1">
      <!-- 0.5 -->
      <g transform="translate(63.427898 270.918437)scale(0.1 -0.1)">
       <defs>
        <path id="DejaVuSans-30" d="M 2034 4250 
Q 1547 4250 1301 3770 
Q 1056 3291 1056 2328 
Q 1056 1369 1301 889 
Q 1547 409 2034 409 
Q 2525 409 2770 889 
Q 3016 1369 3016 2328 
Q 3016 3291 2770 3770 
Q 2525 4250 2034 4250 
z
M 2034 4750 
Q 2819 4750 3233 4129 
Q 3647 3509 3647 2328 
Q 3647 1150 3233 529 
Q 2819 -91 2034 -91 
Q 1250 -91 836 529 
Q 422 1150 422 2328 
Q 422 3509 836 4129 
Q 1250 4750 2034 4750 
z
" transform="scale(0.015625)"/>
        <path id="DejaVuSans-2e" d="M 684 794 
L 1344 794 
L 1344 0 
L 684 0 
L 684 794 
z
" transform="scale(0.015625)"/>
        <path id="DejaVuSans-35" d="M 691 4666 
L 3169 4666 
L 3169 4134 
L 1269 4134 
L 1269 2991 
Q 1406 3038 1543 3061 
Q 1681 3084 1819 3084 
Q 2600 3084 3056 2656 
Q 3513 2228 3513 1497 
Q 3513 744 3044 326 
Q 2575 -91 1722 -91 
Q 1428 -91 1123 -41 
Q 819 9 494 109 
L 494 744 
Q 775 591 1075 516 
Q 1375 441 1709 441 
Q 2250 441 2565 725 
Q 2881 1009 2881 1497 
Q 2881 1984 2565 2268 
Q 2250 2553 1709 2553 
Q 1456 2553 1204 2497 
Q 953 2441 691 2322 
L 691 4666 
z
" transform="scale(0.015625)"/>
       </defs>
       <use xlink:href="#DejaVuSans-30"/>
       <use xlink:href="#DejaVuSans-2e" x="63.623047"/>
       <use xlink:href="#DejaVuSans-35" x="95.410156"/>
      </g>
     </g>
    </g>
    <g id="xtick_2">
     <g id="line2d_2">
      <g>
       <use xlink:href="#m3e74d280e3" x="115.843415" y="256.32" style="stroke: #000000; stroke-width: 0.8"/>
      </g>
     </g>
     <g id="text_2">
      <!-- 1.0 -->
      <g transform="translate(107.891852 270.918437)scale(0.1 -0.1)">
       <defs>
        <path id="DejaVuSans-31" d="M 794 531 
L 1825 531 
L 1825 4091 
L 703 3866 
L 703 4441 
L 1819 4666 
L 2450 4666 
L 2450 531 
L 3481 531 
L 3481 0 
L 794 0 
L 794 531 
z
" transform="scale(0.015625)"/>
       </defs>
       <use xlink:href="#DejaVuSans-31"/>
       <use xlink:href="#DejaVuSans-2e" x="63.623047"/>
       <use xlink:href="#DejaVuSans-30" x="95.410156"/>
      </g>
     </g>
    </g>
    <g id="xtick_3">
     <g id="line2d_3">
      <g>
       <use xlink:href="#m3e74d280e3" x="160.307369" y="256.32" style="stroke: #000000; stroke-width: 0.8"/>
      </g>
     </g>
     <g id="text_3">
      <!-- 1.5 -->
      <g transform="translate(152.355807 270.918437)scale(0.1 -0.1)">
       <use xlink:href="#DejaVuSans-31"/>
       <use xlink:href="#DejaVuSans-2e" x="63.623047"/>
       <use xlink:href="#DejaVuSans-35" x="95.410156"/>
      </g>
     </g>
    </g>
    <g id="xtick_4">
     <g id="line2d_4">
      <g>
       <use xlink:href="#m3e74d280e3" x="204.771324" y="256.32" style="stroke: #000000; stroke-width: 0.8"/>
      </g>
     </g>
     <g id="text_4">
      <!-- 2.0 -->
      <g transform="translate(196.819761 270.918437)scale(0.1 -0.1)">
       <defs>
        <path id="DejaVuSans-32" d="M 1228 531 
L 3431 531 
L 3431 0 
L 469 0 
L 469 531 
Q 828 903 1448 1529 
Q 2069 2156 2228 2338 
Q 2531 2678 2651 2914 
Q 2772 3150 2772 3378 
Q 2772 3750 2511 3984 
Q 2250 4219 1831 4219 
Q 1534 4219 1204 4116 
Q 875 4013 500 3803 
L 500 4441 
Q 881 4594 1212 4672 
Q 1544 4750 1819 4750 
Q 2544 4750 2975 4387 
Q 3406 4025 3406 3419 
Q 3406 3131 3298 2873 
Q 3191 2616 2906 2266 
Q 2828 2175 2409 1742 
Q 1991 1309 1228 531 
z
" transform="scale(0.015625)"/>
       </defs>
       <use xlink:href="#DejaVuSans-32"/>
       <use xlink:href="#DejaVuSans-2e" x="63.623047"/>
       <use xlink:href="#DejaVuSans-30" x="95.410156"/>
      </g>
     </g>
    </g>
    <g id="xtick_5">
     <g id="line2d_5">
      <g>
       <use xlink:href="#m3e74d280e3" x="249.235278" y="256.32" style="stroke: #000000; stroke-width: 0.8"/>
      </g>
     </g>
     <g id="text_5">
      <!-- 2.5 -->
      <g transform="translate(241.283716 270.918437)scale(0.1 -0.1)">
       <use xlink:href="#DejaVuSans-32"/>
       <use xlink:href="#DejaVuSans-2e" x="63.623047"/>
       <use xlink:href="#DejaVuSans-35" x="95.410156"/>
      </g>
     </g>
    </g>
    <g id="xtick_6">
     <g id="line2d_6">
      <g>
       <use xlink:href="#m3e74d280e3" x="293.699233" y="256.32" style="stroke: #000000; stroke-width: 0.8"/>
      </g>
     </g>
     <g id="text_6">
      <!-- 3.0 -->
      <g transform="translate(285.747671 270.918437)scale(0.1 -0.1)">
       <defs>
        <path id="DejaVuSans-33" d="M 2597 2516 
Q 3050 2419 3304 2112 
Q 3559 1806 3559 1356 
Q 3559 666 3084 287 
Q 2609 -91 1734 -91 
Q 1441 -91 1130 -33 
Q 819 25 488 141 
L 488 750 
Q 750 597 1062 519 
Q 1375 441 1716 441 
Q 2309 441 2620 675 
Q 2931 909 2931 1356 
Q 2931 1769 2642 2001 
Q 2353 2234 1838 2234 
L 1294 2234 
L 1294 2753 
L 1863 2753 
Q 2328 2753 2575 2939 
Q 2822 3125 2822 3475 
Q 2822 3834 2567 4026 
Q 2313 4219 1838 4219 
Q 1578 4219 1281 4162 
Q 984 4106 628 3988 
L 628 4550 
Q 988 4650 1302 4700 
Q 1616 4750 1894 4750 
Q 2613 4750 3031 4423 
Q 3450 4097 3450 3541 
Q 3450 3153 3228 2886 
Q 3006 2619 2597 2516 
z
" transform="scale(0.015625)"/>
       </defs>
       <use xlink:href="#DejaVuSans-33"/>
       <use xlink:href="#DejaVuSans-2e" x="63.623047"/>
       <use xlink:href="#DejaVuSans-30" x="95.410156"/>
      </g>
     </g>
    </g>
    <g id="xtick_7">
     <g id="line2d_7">
      <g>
       <use xlink:href="#m3e74d280e3" x="338.163188" y="256.32" style="stroke: #000000; stroke-width: 0.8"/>
      </g>
     </g>
     <g id="text_7">
      <!-- 3.5 -->
      <g transform="translate(330.211625 270.918437)scale(0.1 -0.1)">
       <use xlink:href="#DejaVuSans-33"/>
       <use xlink:href="#DejaVuSans-2e" x="63.623047"/>
       <use xlink:href="#DejaVuSans-35" x="95.410156"/>
      </g>
     </g>
    </g>
    <g id="xtick_8">
     <g id="line2d_8">
      <g>
       <use xlink:href="#m3e74d280e3" x="382.627142" y="256.32" style="stroke: #000000; stroke-width: 0.8"/>
      </g>
     </g>
     <g id="text_8">
      <!-- 4.0 -->
      <g transform="translate(374.67558 270.918437)scale(0.1 -0.1)">
       <defs>
        <path id="DejaVuSans-34" d="M 2419 4116 
L 825 1625 
L 2419 1625 
L 2419 4116 
z
M 2253 4666 
L 3047 4666 
L 3047 1625 
L 3713 1625 
L 3713 1100 
L 3047 1100 
L 3047 0 
L 2419 0 
L 2419 1100 
L 313 1100 
L 313 1709 
L 2253 4666 
z
" transform="scale(0.015625)"/>
       </defs>
       <use xlink:href="#DejaVuSans-34"/>
       <use xlink:href="#DejaVuSans-2e" x="63.623047"/>
       <use xlink:href="#DejaVuSans-30" x="95.410156"/>
      </g>
     </g>
    </g>
    <g id="text_9">
     <!-- Standard Deviation -->
     <g transform="translate(173.146875 284.596563)scale(0.1 -0.1)">
      <defs>
       <path id="DejaVuSans-53" d="M 3425 4513 
L 3425 3897 
Q 3066 4069 2747 4153 
Q 2428 4238 2131 4238 
Q 1616 4238 1336 4038 
Q 1056 3838 1056 3469 
Q 1056 3159 1242 3001 
Q 1428 2844 1947 2747 
L 2328 2669 
Q 3034 2534 3370 2195 
Q 3706 1856 3706 1288 
Q 3706 609 3251 259 
Q 2797 -91 1919 -91 
Q 1588 -91 1214 -16 
Q 841 59 441 206 
L 441 856 
Q 825 641 1194 531 
Q 1563 422 1919 422 
Q 2459 422 2753 634 
Q 3047 847 3047 1241 
Q 3047 1584 2836 1778 
Q 2625 1972 2144 2069 
L 1759 2144 
Q 1053 2284 737 2584 
Q 422 2884 422 3419 
Q 422 4038 858 4394 
Q 1294 4750 2059 4750 
Q 2388 4750 2728 4690 
Q 3069 4631 3425 4513 
z
" transform="scale(0.015625)"/>
       <path id="DejaVuSans-74" d="M 1172 4494 
L 1172 3500 
L 2356 3500 
L 2356 3053 
L 1172 3053 
L 1172 1153 
Q 1172 725 1289 603 
Q 1406 481 1766 481 
L 2356 481 
L 2356 0 
L 1766 0 
Q 1100 0 847 248 
Q 594 497 594 1153 
L 594 3053 
L 172 3053 
L 172 3500 
L 594 3500 
L 594 4494 
L 1172 4494 
z
" transform="scale(0.015625)"/>
       <path id="DejaVuSans-61" d="M 2194 1759 
Q 1497 1759 1228 1600 
Q 959 1441 959 1056 
Q 959 750 1161 570 
Q 1363 391 1709 391 
Q 2188 391 2477 730 
Q 2766 1069 2766 1631 
L 2766 1759 
L 2194 1759 
z
M 3341 1997 
L 3341 0 
L 2766 0 
L 2766 531 
Q 2569 213 2275 61 
Q 1981 -91 1556 -91 
Q 1019 -91 701 211 
Q 384 513 384 1019 
Q 384 1609 779 1909 
Q 1175 2209 1959 2209 
L 2766 2209 
L 2766 2266 
Q 2766 2663 2505 2880 
Q 2244 3097 1772 3097 
Q 1472 3097 1187 3025 
Q 903 2953 641 2809 
L 641 3341 
Q 956 3463 1253 3523 
Q 1550 3584 1831 3584 
Q 2591 3584 2966 3190 
Q 3341 2797 3341 1997 
z
" transform="scale(0.015625)"/>
       <path id="DejaVuSans-6e" d="M 3513 2113 
L 3513 0 
L 2938 0 
L 2938 2094 
Q 2938 2591 2744 2837 
Q 2550 3084 2163 3084 
Q 1697 3084 1428 2787 
Q 1159 2491 1159 1978 
L 1159 0 
L 581 0 
L 581 3500 
L 1159 3500 
L 1159 2956 
Q 1366 3272 1645 3428 
Q 1925 3584 2291 3584 
Q 2894 3584 3203 3211 
Q 3513 2838 3513 2113 
z
" transform="scale(0.015625)"/>
       <path id="DejaVuSans-64" d="M 2906 2969 
L 2906 4863 
L 3481 4863 
L 3481 0 
L 2906 0 
L 2906 525 
Q 2725 213 2448 61 
Q 2172 -91 1784 -91 
Q 1150 -91 751 415 
Q 353 922 353 1747 
Q 353 2572 751 3078 
Q 1150 3584 1784 3584 
Q 2172 3584 2448 3432 
Q 2725 3281 2906 2969 
z
M 947 1747 
Q 947 1113 1208 752 
Q 1469 391 1925 391 
Q 2381 391 2643 752 
Q 2906 1113 2906 1747 
Q 2906 2381 2643 2742 
Q 2381 3103 1925 3103 
Q 1469 3103 1208 2742 
Q 947 2381 947 1747 
z
" transform="scale(0.015625)"/>
       <path id="DejaVuSans-72" d="M 2631 2963 
Q 2534 3019 2420 3045 
Q 2306 3072 2169 3072 
Q 1681 3072 1420 2755 
Q 1159 2438 1159 1844 
L 1159 0 
L 581 0 
L 581 3500 
L 1159 3500 
L 1159 2956 
Q 1341 3275 1631 3429 
Q 1922 3584 2338 3584 
Q 2397 3584 2469 3576 
Q 2541 3569 2628 3553 
L 2631 2963 
z
" transform="scale(0.015625)"/>
       <path id="DejaVuSans-20" transform="scale(0.015625)"/>
       <path id="DejaVuSans-44" d="M 1259 4147 
L 1259 519 
L 2022 519 
Q 2988 519 3436 956 
Q 3884 1394 3884 2338 
Q 3884 3275 3436 3711 
Q 2988 4147 2022 4147 
L 1259 4147 
z
M 628 4666 
L 1925 4666 
Q 3281 4666 3915 4102 
Q 4550 3538 4550 2338 
Q 4550 1131 3912 565 
Q 3275 0 1925 0 
L 628 0 
L 628 4666 
z
" transform="scale(0.015625)"/>
       <path id="DejaVuSans-65" d="M 3597 1894 
L 3597 1613 
L 953 1613 
Q 991 1019 1311 708 
Q 1631 397 2203 397 
Q 2534 397 2845 478 
Q 3156 559 3463 722 
L 3463 178 
Q 3153 47 2828 -22 
Q 2503 -91 2169 -91 
Q 1331 -91 842 396 
Q 353 884 353 1716 
Q 353 2575 817 3079 
Q 1281 3584 2069 3584 
Q 2775 3584 3186 3129 
Q 3597 2675 3597 1894 
z
M 3022 2063 
Q 3016 2534 2758 2815 
Q 2500 3097 2075 3097 
Q 1594 3097 1305 2825 
Q 1016 2553 972 2059 
L 3022 2063 
z
" transform="scale(0.015625)"/>
       <path id="DejaVuSans-76" d="M 191 3500 
L 800 3500 
L 1894 563 
L 2988 3500 
L 3597 3500 
L 2284 0 
L 1503 0 
L 191 3500 
z
" transform="scale(0.015625)"/>
       <path id="DejaVuSans-69" d="M 603 3500 
L 1178 3500 
L 1178 0 
L 603 0 
L 603 3500 
z
M 603 4863 
L 1178 4863 
L 1178 4134 
L 603 4134 
L 603 4863 
z
" transform="scale(0.015625)"/>
       <path id="DejaVuSans-6f" d="M 1959 3097 
Q 1497 3097 1228 2736 
Q 959 2375 959 1747 
Q 959 1119 1226 758 
Q 1494 397 1959 397 
Q 2419 397 2687 759 
Q 2956 1122 2956 1747 
Q 2956 2369 2687 2733 
Q 2419 3097 1959 3097 
z
M 1959 3584 
Q 2709 3584 3137 3096 
Q 3566 2609 3566 1747 
Q 3566 888 3137 398 
Q 2709 -91 1959 -91 
Q 1206 -91 779 398 
Q 353 888 353 1747 
Q 353 2609 779 3096 
Q 1206 3584 1959 3584 
z
" transform="scale(0.015625)"/>
      </defs>
      <use xlink:href="#DejaVuSans-53"/>
      <use xlink:href="#DejaVuSans-74" x="63.476562"/>
      <use xlink:href="#DejaVuSans-61" x="102.685547"/>
      <use xlink:href="#DejaVuSans-6e" x="163.964844"/>
      <use xlink:href="#DejaVuSans-64" x="227.34375"/>
      <use xlink:href="#DejaVuSans-61" x="290.820312"/>
      <use xlink:href="#DejaVuSans-72" x="352.099609"/>
      <use xlink:href="#DejaVuSans-64" x="391.462891"/>
      <use xlink:href="#DejaVuSans-20" x="454.939453"/>
      <use xlink:href="#DejaVuSans-44" x="486.726562"/>
      <use xlink:href="#DejaVuSans-65" x="563.728516"/>
      <use xlink:href="#DejaVuSans-76" x="625.251953"/>
      <use xlink:href="#DejaVuSans-69" x="684.431641"/>
      <use xlink:href="#DejaVuSans-61" x="712.214844"/>
      <use xlink:href="#DejaVuSans-74" x="773.494141"/>
      <use xlink:href="#DejaVuSans-69" x="812.703125"/>
      <use xlink:href="#DejaVuSans-6f" x="840.486328"/>
      <use xlink:href="#DejaVuSans-6e" x="901.667969"/>
     </g>
    </g>
   </g>
   <g id="matplotlib.axis_2">
    <g id="ytick_1">
     <g id="line2d_9">
      <defs>
       <path id="m7ec72398fe" d="M 0 0 
L -3.5 0 
" style="stroke: #000000; stroke-width: 0.8"/>
      </defs>
      <g>
       <use xlink:href="#m7ec72398fe" x="54" y="256.32" style="stroke: #000000; stroke-width: 0.8"/>
      </g>
     </g>
     <g id="text_10">
      <!-- 0.0 -->
      <g transform="translate(31.096875 260.119219)scale(0.1 -0.1)">
       <use xlink:href="#DejaVuSans-30"/>
       <use xlink:href="#DejaVuSans-2e" x="63.623047"/>
       <use xlink:href="#DejaVuSans-30" x="95.410156"/>
      </g>
     </g>
    </g>
    <g id="ytick_2">
     <g id="line2d_10">
      <g>
       <use xlink:href="#m7ec72398fe" x="54" y="213.701586" style="stroke: #000000; stroke-width: 0.8"/>
      </g>
     </g>
     <g id="text_11">
      <!-- 0.2 -->
      <g transform="translate(31.096875 217.500804)scale(0.1 -0.1)">
       <use xlink:href="#DejaVuSans-30"/>
       <use xlink:href="#DejaVuSans-2e" x="63.623047"/>
       <use xlink:href="#DejaVuSans-32" x="95.410156"/>
      </g>
     </g>
    </g>
    <g id="ytick_3">
     <g id="line2d_11">
      <g>
       <use xlink:href="#m7ec72398fe" x="54" y="171.083171" style="stroke: #000000; stroke-width: 0.8"/>
      </g>
     </g>
     <g id="text_12">
      <!-- 0.4 -->
      <g transform="translate(31.096875 174.88239)scale(0.1 -0.1)">
       <use xlink:href="#DejaVuSans-30"/>
       <use xlink:href="#DejaVuSans-2e" x="63.623047"/>
       <use xlink:href="#DejaVuSans-34" x="95.410156"/>
      </g>
     </g>
    </g>
    <g id="ytick_4">
     <g id="line2d_12">
      <g>
       <use xlink:href="#m7ec72398fe" x="54" y="128.464757" style="stroke: #000000; stroke-width: 0.8"/>
      </g>
     </g>
     <g id="text_13">
      <!-- 0.6 -->
      <g transform="translate(31.096875 132.263976)scale(0.1 -0.1)">
       <defs>
        <path id="DejaVuSans-36" d="M 2113 2584 
Q 1688 2584 1439 2293 
Q 1191 2003 1191 1497 
Q 1191 994 1439 701 
Q 1688 409 2113 409 
Q 2538 409 2786 701 
Q 3034 994 3034 1497 
Q 3034 2003 2786 2293 
Q 2538 2584 2113 2584 
z
M 3366 4563 
L 3366 3988 
Q 3128 4100 2886 4159 
Q 2644 4219 2406 4219 
Q 1781 4219 1451 3797 
Q 1122 3375 1075 2522 
Q 1259 2794 1537 2939 
Q 1816 3084 2150 3084 
Q 2853 3084 3261 2657 
Q 3669 2231 3669 1497 
Q 3669 778 3244 343 
Q 2819 -91 2113 -91 
Q 1303 -91 875 529 
Q 447 1150 447 2328 
Q 447 3434 972 4092 
Q 1497 4750 2381 4750 
Q 2619 4750 2861 4703 
Q 3103 4656 3366 4563 
z
" transform="scale(0.015625)"/>
       </defs>
       <use xlink:href="#DejaVuSans-30"/>
       <use xlink:href="#DejaVuSans-2e" x="63.623047"/>
       <use xlink:href="#DejaVuSans-36" x="95.410156"/>
      </g>
     </g>
    </g>
    <g id="ytick_5">
     <g id="line2d_13">
      <g>
       <use xlink:href="#m7ec72398fe" x="54" y="85.846342" style="stroke: #000000; stroke-width: 0.8"/>
      </g>
     </g>
     <g id="text_14">
      <!-- 0.8 -->
      <g transform="translate(31.096875 89.645561)scale(0.1 -0.1)">
       <defs>
        <path id="DejaVuSans-38" d="M 2034 2216 
Q 1584 2216 1326 1975 
Q 1069 1734 1069 1313 
Q 1069 891 1326 650 
Q 1584 409 2034 409 
Q 2484 409 2743 651 
Q 3003 894 3003 1313 
Q 3003 1734 2745 1975 
Q 2488 2216 2034 2216 
z
M 1403 2484 
Q 997 2584 770 2862 
Q 544 3141 544 3541 
Q 544 4100 942 4425 
Q 1341 4750 2034 4750 
Q 2731 4750 3128 4425 
Q 3525 4100 3525 3541 
Q 3525 3141 3298 2862 
Q 3072 2584 2669 2484 
Q 3125 2378 3379 2068 
Q 3634 1759 3634 1313 
Q 3634 634 3220 271 
Q 2806 -91 2034 -91 
Q 1263 -91 848 271 
Q 434 634 434 1313 
Q 434 1759 690 2068 
Q 947 2378 1403 2484 
z
M 1172 3481 
Q 1172 3119 1398 2916 
Q 1625 2713 2034 2713 
Q 2441 2713 2670 2916 
Q 2900 3119 2900 3481 
Q 2900 3844 2670 4047 
Q 2441 4250 2034 4250 
Q 1625 4250 1398 4047 
Q 1172 3844 1172 3481 
z
" transform="scale(0.015625)"/>
       </defs>
       <use xlink:href="#DejaVuSans-30"/>
       <use xlink:href="#DejaVuSans-2e" x="63.623047"/>
       <use xlink:href="#DejaVuSans-38" x="95.410156"/>
      </g>
     </g>
    </g>
    <g id="ytick_6">
     <g id="line2d_14">
      <g>
       <use xlink:href="#m7ec72398fe" x="54" y="43.227928" style="stroke: #000000; stroke-width: 0.8"/>
      </g>
     </g>
     <g id="text_15">
      <!-- 1.0 -->
      <g transform="translate(31.096875 47.027147)scale(0.1 -0.1)">
       <use xlink:href="#DejaVuSans-31"/>
       <use xlink:href="#DejaVuSans-2e" x="63.623047"/>
       <use xlink:href="#DejaVuSans-30" x="95.410156"/>
      </g>
     </g>
    </g>
    <g id="text_16">
     <!-- Density -->
     <g transform="translate(25.017187 164.448594)rotate(-90)scale(0.1 -0.1)">
      <defs>
       <path id="DejaVuSans-73" d="M 2834 3397 
L 2834 2853 
Q 2591 2978 2328 3040 
Q 2066 3103 1784 3103 
Q 1356 3103 1142 2972 
Q 928 2841 928 2578 
Q 928 2378 1081 2264 
Q 1234 2150 1697 2047 
L 1894 2003 
Q 2506 1872 2764 1633 
Q 3022 1394 3022 966 
Q 3022 478 2636 193 
Q 2250 -91 1575 -91 
Q 1294 -91 989 -36 
Q 684 19 347 128 
L 347 722 
Q 666 556 975 473 
Q 1284 391 1588 391 
Q 1994 391 2212 530 
Q 2431 669 2431 922 
Q 2431 1156 2273 1281 
Q 2116 1406 1581 1522 
L 1381 1569 
Q 847 1681 609 1914 
Q 372 2147 372 2553 
Q 372 3047 722 3315 
Q 1072 3584 1716 3584 
Q 2034 3584 2315 3537 
Q 2597 3491 2834 3397 
z
" transform="scale(0.015625)"/>
       <path id="DejaVuSans-79" d="M 2059 -325 
Q 1816 -950 1584 -1140 
Q 1353 -1331 966 -1331 
L 506 -1331 
L 506 -850 
L 844 -850 
Q 1081 -850 1212 -737 
Q 1344 -625 1503 -206 
L 1606 56 
L 191 3500 
L 800 3500 
L 1894 763 
L 2988 3500 
L 3597 3500 
L 2059 -325 
z
" transform="scale(0.015625)"/>
      </defs>
      <use xlink:href="#DejaVuSans-44"/>
      <use xlink:href="#DejaVuSans-65" x="77.001953"/>
      <use xlink:href="#DejaVuSans-6e" x="138.525391"/>
      <use xlink:href="#DejaVuSans-73" x="201.904297"/>
      <use xlink:href="#DejaVuSans-69" x="254.003906"/>
      <use xlink:href="#DejaVuSans-74" x="281.787109"/>
      <use xlink:href="#DejaVuSans-79" x="320.996094"/>
     </g>
    </g>
   </g>
   <g id="line2d_15">
    <path d="M 204.771324 256.32 
L 204.771324 34.56 
" clip-path="url(#pfde75bc1d4)" style="fill: none; stroke-dasharray: 5.55,2.4; stroke-dashoffset: 0; stroke: #ff0000; stroke-width: 1.5"/>
   </g>
   <g id="patch_123">
    <path d="M 54 256.32 
L 54 34.56 
" style="fill: none; stroke: #000000; stroke-width: 0.8; stroke-linejoin: miter; stroke-linecap: square"/>
   </g>
   <g id="patch_124">
    <path d="M 388.8 256.32 
L 388.8 34.56 
" style="fill: none; stroke: #000000; stroke-width: 0.8; stroke-linejoin: miter; stroke-linecap: square"/>
   </g>
   <g id="patch_125">
    <path d="M 54 256.32 
L 388.8 256.32 
" style="fill: none; stroke: #000000; stroke-width: 0.8; stroke-linejoin: miter; stroke-linecap: square"/>
   </g>
   <g id="patch_126">
    <path d="M 54 34.56 
L 388.8 34.56 
" style="fill: none; stroke: #000000; stroke-width: 0.8; stroke-linejoin: miter; stroke-linecap: square"/>
   </g>
   <g id="text_17">
    <!-- Bootstrap Estimates of the Standard Deviation -->
    <g transform="translate(81.370313 14.544375)scale(0.12 -0.12)">
     <defs>
      <path id="DejaVuSans-42" d="M 1259 2228 
L 1259 519 
L 2272 519 
Q 2781 519 3026 730 
Q 3272 941 3272 1375 
Q 3272 1813 3026 2020 
Q 2781 2228 2272 2228 
L 1259 2228 
z
M 1259 4147 
L 1259 2741 
L 2194 2741 
Q 2656 2741 2882 2914 
Q 3109 3088 3109 3444 
Q 3109 3797 2882 3972 
Q 2656 4147 2194 4147 
L 1259 4147 
z
M 628 4666 
L 2241 4666 
Q 2963 4666 3353 4366 
Q 3744 4066 3744 3513 
Q 3744 3084 3544 2831 
Q 3344 2578 2956 2516 
Q 3422 2416 3680 2098 
Q 3938 1781 3938 1306 
Q 3938 681 3513 340 
Q 3088 0 2303 0 
L 628 0 
L 628 4666 
z
" transform="scale(0.015625)"/>
      <path id="DejaVuSans-70" d="M 1159 525 
L 1159 -1331 
L 581 -1331 
L 581 3500 
L 1159 3500 
L 1159 2969 
Q 1341 3281 1617 3432 
Q 1894 3584 2278 3584 
Q 2916 3584 3314 3078 
Q 3713 2572 3713 1747 
Q 3713 922 3314 415 
Q 2916 -91 2278 -91 
Q 1894 -91 1617 61 
Q 1341 213 1159 525 
z
M 3116 1747 
Q 3116 2381 2855 2742 
Q 2594 3103 2138 3103 
Q 1681 3103 1420 2742 
Q 1159 2381 1159 1747 
Q 1159 1113 1420 752 
Q 1681 391 2138 391 
Q 2594 391 2855 752 
Q 3116 1113 3116 1747 
z
" transform="scale(0.015625)"/>
      <path id="DejaVuSans-45" d="M 628 4666 
L 3578 4666 
L 3578 4134 
L 1259 4134 
L 1259 2753 
L 3481 2753 
L 3481 2222 
L 1259 2222 
L 1259 531 
L 3634 531 
L 3634 0 
L 628 0 
L 628 4666 
z
" transform="scale(0.015625)"/>
      <path id="DejaVuSans-6d" d="M 3328 2828 
Q 3544 3216 3844 3400 
Q 4144 3584 4550 3584 
Q 5097 3584 5394 3201 
Q 5691 2819 5691 2113 
L 5691 0 
L 5113 0 
L 5113 2094 
Q 5113 2597 4934 2840 
Q 4756 3084 4391 3084 
Q 3944 3084 3684 2787 
Q 3425 2491 3425 1978 
L 3425 0 
L 2847 0 
L 2847 2094 
Q 2847 2600 2669 2842 
Q 2491 3084 2119 3084 
Q 1678 3084 1418 2786 
Q 1159 2488 1159 1978 
L 1159 0 
L 581 0 
L 581 3500 
L 1159 3500 
L 1159 2956 
Q 1356 3278 1631 3431 
Q 1906 3584 2284 3584 
Q 2666 3584 2933 3390 
Q 3200 3197 3328 2828 
z
" transform="scale(0.015625)"/>
      <path id="DejaVuSans-66" d="M 2375 4863 
L 2375 4384 
L 1825 4384 
Q 1516 4384 1395 4259 
Q 1275 4134 1275 3809 
L 1275 3500 
L 2222 3500 
L 2222 3053 
L 1275 3053 
L 1275 0 
L 697 0 
L 697 3053 
L 147 3053 
L 147 3500 
L 697 3500 
L 697 3744 
Q 697 4328 969 4595 
Q 1241 4863 1831 4863 
L 2375 4863 
z
" transform="scale(0.015625)"/>
      <path id="DejaVuSans-68" d="M 3513 2113 
L 3513 0 
L 2938 0 
L 2938 2094 
Q 2938 2591 2744 2837 
Q 2550 3084 2163 3084 
Q 1697 3084 1428 2787 
Q 1159 2491 1159 1978 
L 1159 0 
L 581 0 
L 581 4863 
L 1159 4863 
L 1159 2956 
Q 1366 3272 1645 3428 
Q 1925 3584 2291 3584 
Q 2894 3584 3203 3211 
Q 3513 2838 3513 2113 
z
" transform="scale(0.015625)"/>
     </defs>
     <use xlink:href="#DejaVuSans-42"/>
     <use xlink:href="#DejaVuSans-6f" x="68.603516"/>
     <use xlink:href="#DejaVuSans-6f" x="129.785156"/>
     <use xlink:href="#DejaVuSans-74" x="190.966797"/>
     <use xlink:href="#DejaVuSans-73" x="230.175781"/>
     <use xlink:href="#DejaVuSans-74" x="282.275391"/>
     <use xlink:href="#DejaVuSans-72" x="321.484375"/>
     <use xlink:href="#DejaVuSans-61" x="362.597656"/>
     <use xlink:href="#DejaVuSans-70" x="423.876953"/>
     <use xlink:href="#DejaVuSans-20" x="487.353516"/>
     <use xlink:href="#DejaVuSans-45" x="519.140625"/>
     <use xlink:href="#DejaVuSans-73" x="582.324219"/>
     <use xlink:href="#DejaVuSans-74" x="634.423828"/>
     <use xlink:href="#DejaVuSans-69" x="673.632812"/>
     <use xlink:href="#DejaVuSans-6d" x="701.416016"/>
     <use xlink:href="#DejaVuSans-61" x="798.828125"/>
     <use xlink:href="#DejaVuSans-74" x="860.107422"/>
     <use xlink:href="#DejaVuSans-65" x="899.316406"/>
     <use xlink:href="#DejaVuSans-73" x="960.839844"/>
     <use xlink:href="#DejaVuSans-20" x="1012.939453"/>
     <use xlink:href="#DejaVuSans-6f" x="1044.726562"/>
     <use xlink:href="#DejaVuSans-66" x="1105.908203"/>
     <use xlink:href="#DejaVuSans-20" x="1141.113281"/>
     <use xlink:href="#DejaVuSans-74" x="1172.900391"/>
     <use xlink:href="#DejaVuSans-68" x="1212.109375"/>
     <use xlink:href="#DejaVuSans-65" x="1275.488281"/>
     <use xlink:href="#DejaVuSans-20" x="1337.011719"/>
     <use xlink:href="#DejaVuSans-53" x="1368.798828"/>
     <use xlink:href="#DejaVuSans-74" x="1432.275391"/>
     <use xlink:href="#DejaVuSans-61" x="1471.484375"/>
     <use xlink:href="#DejaVuSans-6e" x="1532.763672"/>
     <use xlink:href="#DejaVuSans-64" x="1596.142578"/>
     <use xlink:href="#DejaVuSans-61" x="1659.619141"/>
     <use xlink:href="#DejaVuSans-72" x="1720.898438"/>
     <use xlink:href="#DejaVuSans-64" x="1760.261719"/>
     <use xlink:href="#DejaVuSans-20" x="1823.738281"/>
     <use xlink:href="#DejaVuSans-44" x="1855.525391"/>
     <use xlink:href="#DejaVuSans-65" x="1932.527344"/>
     <use xlink:href="#DejaVuSans-76" x="1994.050781"/>
     <use xlink:href="#DejaVuSans-69" x="2053.230469"/>
     <use xlink:href="#DejaVuSans-61" x="2081.013672"/>
     <use xlink:href="#DejaVuSans-74" x="2142.292969"/>
     <use xlink:href="#DejaVuSans-69" x="2181.501953"/>
     <use xlink:href="#DejaVuSans-6f" x="2209.285156"/>
     <use xlink:href="#DejaVuSans-6e" x="2270.466797"/>
    </g>
    <!-- $\mathcal{N}(5, 4)$ with 10 Samples -->
    <g transform="translate(148.5 28.56)scale(0.12 -0.12)">
     <defs>
      <path id="STIXNonUnicode-Italic-e23a" d="M 4294 800 
L 4301 800 
Q 5293 4070 5408 4378 
Q 5472 4538 5523 4614 
Q 5830 5088 6253 5088 
Q 6490 5088 6650 4931 
Q 6810 4774 6810 4550 
Q 6810 4378 6720 4272 
Q 6630 4166 6470 4166 
Q 6368 4166 6297 4224 
Q 6227 4282 6198 4349 
Q 6170 4416 6118 4473 
Q 6067 4531 6003 4531 
Q 5939 4531 5881 4508 
Q 5824 4486 5785 4457 
Q 5747 4429 5705 4371 
Q 5664 4314 5638 4275 
Q 5613 4237 5584 4163 
Q 5555 4090 5545 4058 
Q 5536 4026 5510 3952 
Q 5485 3878 5485 3866 
L 4262 -154 
L 4134 -154 
Q 3078 1280 2483 2893 
L 2470 2893 
Q 2406 2579 2358 2361 
Q 2310 2144 2214 1792 
Q 2118 1440 2028 1190 
Q 1939 941 1804 653 
Q 1670 365 1529 185 
Q 1389 6 1203 -115 
Q 1018 -237 813 -237 
Q 576 -237 416 -80 
Q 256 77 256 301 
Q 256 474 345 579 
Q 435 685 595 685 
Q 698 685 768 627 
Q 838 570 867 502 
Q 896 435 947 377 
Q 998 320 1062 320 
Q 1222 320 1369 480 
Q 1517 640 1638 928 
Q 1760 1216 1862 1542 
Q 1965 1869 2057 2288 
Q 2150 2707 2214 3033 
Q 2278 3360 2348 3741 
Q 2419 4122 2458 4294 
L 2630 4294 
Q 2682 4166 2874 3680 
Q 3066 3194 3142 3008 
Q 3219 2822 3392 2422 
Q 3565 2022 3683 1798 
Q 3802 1574 3968 1292 
Q 4134 1011 4294 800 
z
" transform="scale(0.015625)"/>
      <path id="DejaVuSans-28" d="M 1984 4856 
Q 1566 4138 1362 3434 
Q 1159 2731 1159 2009 
Q 1159 1288 1364 580 
Q 1569 -128 1984 -844 
L 1484 -844 
Q 1016 -109 783 600 
Q 550 1309 550 2009 
Q 550 2706 781 3412 
Q 1013 4119 1484 4856 
L 1984 4856 
z
" transform="scale(0.015625)"/>
      <path id="DejaVuSans-2c" d="M 750 794 
L 1409 794 
L 1409 256 
L 897 -744 
L 494 -744 
L 750 256 
L 750 794 
z
" transform="scale(0.015625)"/>
      <path id="DejaVuSans-29" d="M 513 4856 
L 1013 4856 
Q 1481 4119 1714 3412 
Q 1947 2706 1947 2009 
Q 1947 1309 1714 600 
Q 1481 -109 1013 -844 
L 513 -844 
Q 928 -128 1133 580 
Q 1338 1288 1338 2009 
Q 1338 2731 1133 3434 
Q 928 4138 513 4856 
z
" transform="scale(0.015625)"/>
      <path id="DejaVuSans-77" d="M 269 3500 
L 844 3500 
L 1563 769 
L 2278 3500 
L 2956 3500 
L 3675 769 
L 4391 3500 
L 4966 3500 
L 4050 0 
L 3372 0 
L 2619 2869 
L 1863 0 
L 1184 0 
L 269 3500 
z
" transform="scale(0.015625)"/>
      <path id="DejaVuSans-6c" d="M 603 4863 
L 1178 4863 
L 1178 0 
L 603 0 
L 603 4863 
z
" transform="scale(0.015625)"/>
     </defs>
     <use xlink:href="#STIXNonUnicode-Italic-e23a" transform="translate(0 0.5)"/>
     <use xlink:href="#DejaVuSans-28" transform="translate(95.699982 0.5)"/>
     <use xlink:href="#DejaVuSans-35" transform="translate(134.713654 0.5)"/>
     <use xlink:href="#DejaVuSans-2c" transform="translate(198.3367 0.5)"/>
     <use xlink:href="#DejaVuSans-34" transform="translate(249.606232 0.5)"/>
     <use xlink:href="#DejaVuSans-29" transform="translate(313.229279 0.5)"/>
     <use xlink:href="#DejaVuSans-20" transform="translate(352.24295 0.5)"/>
     <use xlink:href="#DejaVuSans-77" transform="translate(384.03006 0.5)"/>
     <use xlink:href="#DejaVuSans-69" transform="translate(465.817169 0.5)"/>
     <use xlink:href="#DejaVuSans-74" transform="translate(493.600372 0.5)"/>
     <use xlink:href="#DejaVuSans-68" transform="translate(532.809357 0.5)"/>
     <use xlink:href="#DejaVuSans-20" transform="translate(596.188263 0.5)"/>
     <use xlink:href="#DejaVuSans-31" transform="translate(627.975372 0.5)"/>
     <use xlink:href="#DejaVuSans-30" transform="translate(691.598419 0.5)"/>
     <use xlink:href="#DejaVuSans-20" transform="translate(755.221466 0.5)"/>
     <use xlink:href="#DejaVuSans-53" transform="translate(787.008575 0.5)"/>
     <use xlink:href="#DejaVuSans-61" transform="translate(850.485138 0.5)"/>
     <use xlink:href="#DejaVuSans-6d" transform="translate(911.764435 0.5)"/>
     <use xlink:href="#DejaVuSans-70" transform="translate(1009.176544 0.5)"/>
     <use xlink:href="#DejaVuSans-6c" transform="translate(1072.653107 0.5)"/>
     <use xlink:href="#DejaVuSans-65" transform="translate(1100.43631 0.5)"/>
     <use xlink:href="#DejaVuSans-73" transform="translate(1161.959747 0.5)"/>
    </g>
   </g>
   <g id="legend_1">
    <g id="patch_127">
     <path d="M 228.88125 101.2725 
L 381.8 101.2725 
Q 383.8 101.2725 383.8 99.2725 
L 383.8 41.56 
Q 383.8 39.56 381.8 39.56 
L 228.88125 39.56 
Q 226.88125 39.56 226.88125 41.56 
L 226.88125 99.2725 
Q 226.88125 101.2725 228.88125 101.2725 
z
" style="fill: #ffffff; opacity: 0.8; stroke: #cccccc; stroke-linejoin: miter"/>
    </g>
    <g id="patch_128">
     <path d="M 230.88125 51.158438 
L 250.88125 51.158438 
L 250.88125 44.158438 
L 230.88125 44.158438 
z
" style="fill: #1f77b4; opacity: 0.5"/>
    </g>
    <g id="text_18">
     <!-- Bootstrap Estimates -->
     <g transform="translate(258.88125 51.158438)scale(0.1 -0.1)">
      <use xlink:href="#DejaVuSans-42"/>
      <use xlink:href="#DejaVuSans-6f" x="68.603516"/>
      <use xlink:href="#DejaVuSans-6f" x="129.785156"/>
      <use xlink:href="#DejaVuSans-74" x="190.966797"/>
      <use xlink:href="#DejaVuSans-73" x="230.175781"/>
      <use xlink:href="#DejaVuSans-74" x="282.275391"/>
      <use xlink:href="#DejaVuSans-72" x="321.484375"/>
      <use xlink:href="#DejaVuSans-61" x="362.597656"/>
      <use xlink:href="#DejaVuSans-70" x="423.876953"/>
      <use xlink:href="#DejaVuSans-20" x="487.353516"/>
      <use xlink:href="#DejaVuSans-45" x="519.140625"/>
      <use xlink:href="#DejaVuSans-73" x="582.324219"/>
      <use xlink:href="#DejaVuSans-74" x="634.423828"/>
      <use xlink:href="#DejaVuSans-69" x="673.632812"/>
      <use xlink:href="#DejaVuSans-6d" x="701.416016"/>
      <use xlink:href="#DejaVuSans-61" x="798.828125"/>
      <use xlink:href="#DejaVuSans-74" x="860.107422"/>
      <use xlink:href="#DejaVuSans-65" x="899.316406"/>
      <use xlink:href="#DejaVuSans-73" x="960.839844"/>
     </g>
    </g>
    <g id="patch_129">
     <path d="M 230.88125 65.836563 
L 250.88125 65.836563 
L 250.88125 58.836563 
L 230.88125 58.836563 
z
" style="fill: #ff7f0e; opacity: 0.5"/>
    </g>
    <g id="text_19">
     <!-- Sample Estimates -->
     <g transform="translate(258.88125 65.836563)scale(0.1 -0.1)">
      <use xlink:href="#DejaVuSans-53"/>
      <use xlink:href="#DejaVuSans-61" x="63.476562"/>
      <use xlink:href="#DejaVuSans-6d" x="124.755859"/>
      <use xlink:href="#DejaVuSans-70" x="222.167969"/>
      <use xlink:href="#DejaVuSans-6c" x="285.644531"/>
      <use xlink:href="#DejaVuSans-65" x="313.427734"/>
      <use xlink:href="#DejaVuSans-20" x="374.951172"/>
      <use xlink:href="#DejaVuSans-45" x="406.738281"/>
      <use xlink:href="#DejaVuSans-73" x="469.921875"/>
      <use xlink:href="#DejaVuSans-74" x="522.021484"/>
      <use xlink:href="#DejaVuSans-69" x="561.230469"/>
      <use xlink:href="#DejaVuSans-6d" x="589.013672"/>
      <use xlink:href="#DejaVuSans-61" x="686.425781"/>
      <use xlink:href="#DejaVuSans-74" x="747.705078"/>
      <use xlink:href="#DejaVuSans-65" x="786.914062"/>
      <use xlink:href="#DejaVuSans-73" x="848.4375"/>
     </g>
    </g>
    <g id="patch_130">
     <path d="M 230.88125 80.514688 
L 250.88125 80.514688 
L 250.88125 73.514688 
L 230.88125 73.514688 
z
" style="fill: #2ca02c; opacity: 0.5"/>
    </g>
    <g id="text_20">
     <!-- Corrected Estimates -->
     <g transform="translate(258.88125 80.514688)scale(0.1 -0.1)">
      <defs>
       <path id="DejaVuSans-43" d="M 4122 4306 
L 4122 3641 
Q 3803 3938 3442 4084 
Q 3081 4231 2675 4231 
Q 1875 4231 1450 3742 
Q 1025 3253 1025 2328 
Q 1025 1406 1450 917 
Q 1875 428 2675 428 
Q 3081 428 3442 575 
Q 3803 722 4122 1019 
L 4122 359 
Q 3791 134 3420 21 
Q 3050 -91 2638 -91 
Q 1578 -91 968 557 
Q 359 1206 359 2328 
Q 359 3453 968 4101 
Q 1578 4750 2638 4750 
Q 3056 4750 3426 4639 
Q 3797 4528 4122 4306 
z
" transform="scale(0.015625)"/>
       <path id="DejaVuSans-63" d="M 3122 3366 
L 3122 2828 
Q 2878 2963 2633 3030 
Q 2388 3097 2138 3097 
Q 1578 3097 1268 2742 
Q 959 2388 959 1747 
Q 959 1106 1268 751 
Q 1578 397 2138 397 
Q 2388 397 2633 464 
Q 2878 531 3122 666 
L 3122 134 
Q 2881 22 2623 -34 
Q 2366 -91 2075 -91 
Q 1284 -91 818 406 
Q 353 903 353 1747 
Q 353 2603 823 3093 
Q 1294 3584 2113 3584 
Q 2378 3584 2631 3529 
Q 2884 3475 3122 3366 
z
" transform="scale(0.015625)"/>
      </defs>
      <use xlink:href="#DejaVuSans-43"/>
      <use xlink:href="#DejaVuSans-6f" x="69.824219"/>
      <use xlink:href="#DejaVuSans-72" x="131.005859"/>
      <use xlink:href="#DejaVuSans-72" x="170.369141"/>
      <use xlink:href="#DejaVuSans-65" x="209.232422"/>
      <use xlink:href="#DejaVuSans-63" x="270.755859"/>
      <use xlink:href="#DejaVuSans-74" x="325.736328"/>
      <use xlink:href="#DejaVuSans-65" x="364.945312"/>
      <use xlink:href="#DejaVuSans-64" x="426.46875"/>
      <use xlink:href="#DejaVuSans-20" x="489.945312"/>
      <use xlink:href="#DejaVuSans-45" x="521.732422"/>
      <use xlink:href="#DejaVuSans-73" x="584.916016"/>
      <use xlink:href="#DejaVuSans-74" x="637.015625"/>
      <use xlink:href="#DejaVuSans-69" x="676.224609"/>
      <use xlink:href="#DejaVuSans-6d" x="704.007812"/>
      <use xlink:href="#DejaVuSans-61" x="801.419922"/>
      <use xlink:href="#DejaVuSans-74" x="862.699219"/>
      <use xlink:href="#DejaVuSans-65" x="901.908203"/>
      <use xlink:href="#DejaVuSans-73" x="963.431641"/>
     </g>
    </g>
    <g id="line2d_16">
     <path d="M 230.88125 91.692813 
L 240.88125 91.692813 
L 250.88125 91.692813 
" style="fill: none; stroke-dasharray: 5.55,2.4; stroke-dashoffset: 0; stroke: #ff0000; stroke-width: 1.5"/>
    </g>
    <g id="text_21">
     <!-- True Standard Deviation -->
     <g transform="translate(258.88125 95.192813)scale(0.1 -0.1)">
      <defs>
       <path id="DejaVuSans-54" d="M -19 4666 
L 3928 4666 
L 3928 4134 
L 2272 4134 
L 2272 0 
L 1638 0 
L 1638 4134 
L -19 4134 
L -19 4666 
z
" transform="scale(0.015625)"/>
       <path id="DejaVuSans-75" d="M 544 1381 
L 544 3500 
L 1119 3500 
L 1119 1403 
Q 1119 906 1312 657 
Q 1506 409 1894 409 
Q 2359 409 2629 706 
Q 2900 1003 2900 1516 
L 2900 3500 
L 3475 3500 
L 3475 0 
L 2900 0 
L 2900 538 
Q 2691 219 2414 64 
Q 2138 -91 1772 -91 
Q 1169 -91 856 284 
Q 544 659 544 1381 
z
M 1991 3584 
L 1991 3584 
z
" transform="scale(0.015625)"/>
      </defs>
      <use xlink:href="#DejaVuSans-54"/>
      <use xlink:href="#DejaVuSans-72" x="46.333984"/>
      <use xlink:href="#DejaVuSans-75" x="87.447266"/>
      <use xlink:href="#DejaVuSans-65" x="150.826172"/>
      <use xlink:href="#DejaVuSans-20" x="212.349609"/>
      <use xlink:href="#DejaVuSans-53" x="244.136719"/>
      <use xlink:href="#DejaVuSans-74" x="307.613281"/>
      <use xlink:href="#DejaVuSans-61" x="346.822266"/>
      <use xlink:href="#DejaVuSans-6e" x="408.101562"/>
      <use xlink:href="#DejaVuSans-64" x="471.480469"/>
      <use xlink:href="#DejaVuSans-61" x="534.957031"/>
      <use xlink:href="#DejaVuSans-72" x="596.236328"/>
      <use xlink:href="#DejaVuSans-64" x="635.599609"/>
      <use xlink:href="#DejaVuSans-20" x="699.076172"/>
      <use xlink:href="#DejaVuSans-44" x="730.863281"/>
      <use xlink:href="#DejaVuSans-65" x="807.865234"/>
      <use xlink:href="#DejaVuSans-76" x="869.388672"/>
      <use xlink:href="#DejaVuSans-69" x="928.568359"/>
      <use xlink:href="#DejaVuSans-61" x="956.351562"/>
      <use xlink:href="#DejaVuSans-74" x="1017.630859"/>
      <use xlink:href="#DejaVuSans-69" x="1056.839844"/>
      <use xlink:href="#DejaVuSans-6f" x="1084.623047"/>
      <use xlink:href="#DejaVuSans-6e" x="1145.804688"/>
     </g>
    </g>
   </g>
  </g>
 </g>
 <defs>
  <clipPath id="pfde75bc1d4">
   <rect x="54" y="34.56" width="334.8" height="221.76"/>
  </clipPath>
 </defs>
</svg>
