<?xml version="1.0" encoding="UTF-8" standalone="no"?>
<!DOCTYPE svg PUBLIC "-//W3C//DTD SVG 1.1//EN" "http://www.w3.org/Graphics/SVG/1.1/DTD/svg11.dtd">
<svg width="100%" height="100%" viewBox="0 0 1440 1013" version="1.1" xmlns="http://www.w3.org/2000/svg" xmlns:xlink="http://www.w3.org/1999/xlink" xml:space="preserve" xmlns:serif="http://www.serif.com/" style="fill-rule:evenodd;clip-rule:evenodd;">
    <g transform="matrix(1,0,0,1,-898.252,-655.739)">
        <g transform="matrix(1,0,0,1,-135.181,247.706)">
            <g transform="matrix(85.5633,0,0,85.5633,2052.12,1014.81)">
                <rect x="0.075" y="-0.756" width="0.09" height="0.756" style="fill-rule:nonzero;"/>
            </g>
            <g transform="matrix(85.5633,0,0,85.5633,2072.65,1014.81)">
                <path d="M0.075,-0.474L0.165,-0.474L0.165,-0L0.075,-0L0.075,-0.474ZM0.054,-0.644C0.054,-0.662 0.061,-0.678 0.074,-0.691C0.087,-0.704 0.102,-0.71 0.12,-0.71C0.138,-0.71 0.154,-0.704 0.167,-0.691C0.18,-0.678 0.186,-0.662 0.186,-0.644C0.186,-0.626 0.18,-0.611 0.167,-0.598C0.154,-0.584 0.138,-0.578 0.12,-0.578C0.102,-0.578 0.087,-0.584 0.074,-0.598C0.061,-0.611 0.054,-0.626 0.054,-0.644Z" style="fill-rule:nonzero;"/>
            </g>
            <g transform="matrix(85.5633,0,0,85.5633,2093.19,1014.81)">
                <path d="M0.068,-0.474L0.152,-0.474L0.152,-0.4L0.154,-0.4C0.156,-0.407 0.161,-0.415 0.17,-0.425C0.178,-0.435 0.189,-0.444 0.202,-0.454C0.215,-0.463 0.23,-0.47 0.248,-0.477C0.265,-0.483 0.285,-0.486 0.306,-0.486C0.341,-0.486 0.371,-0.479 0.395,-0.464C0.419,-0.449 0.439,-0.427 0.454,-0.398C0.469,-0.427 0.491,-0.449 0.519,-0.464C0.547,-0.479 0.575,-0.486 0.604,-0.486C0.641,-0.486 0.671,-0.48 0.694,-0.468C0.717,-0.456 0.736,-0.44 0.749,-0.421C0.762,-0.401 0.772,-0.379 0.777,-0.354C0.782,-0.329 0.784,-0.303 0.784,-0.276L0.784,-0L0.694,-0L0.694,-0.264C0.694,-0.282 0.693,-0.299 0.691,-0.316C0.688,-0.333 0.683,-0.347 0.676,-0.36C0.669,-0.373 0.658,-0.383 0.645,-0.391C0.632,-0.398 0.614,-0.402 0.592,-0.402C0.549,-0.402 0.518,-0.389 0.499,-0.362C0.48,-0.335 0.471,-0.301 0.471,-0.259L0.471,-0L0.381,-0L0.381,-0.248C0.381,-0.271 0.38,-0.291 0.378,-0.31C0.375,-0.329 0.371,-0.345 0.364,-0.359C0.357,-0.372 0.346,-0.383 0.334,-0.391C0.321,-0.398 0.303,-0.402 0.281,-0.402C0.265,-0.402 0.25,-0.399 0.235,-0.393C0.22,-0.386 0.206,-0.377 0.195,-0.364C0.184,-0.351 0.175,-0.335 0.168,-0.316C0.161,-0.296 0.158,-0.273 0.158,-0.246L0.158,-0L0.068,-0L0.068,-0.474Z" style="fill-rule:nonzero;"/>
            </g>
            <g transform="matrix(85.5633,0,0,85.5633,2189.87,1014.81)">
                <path d="M0.091,-0.708L0.536,-0.708L0.536,-0.618L0.187,-0.618L0.187,-0.396L0.512,-0.396L0.512,-0.306L0.187,-0.306L0.187,-0L0.091,-0L0.091,-0.708Z" style="fill-rule:nonzero;"/>
            </g>
            <g transform="matrix(85.5633,0,0,85.5633,2238.99,1014.81)">
                <path d="M0.254,-0.69C0.233,-0.656 0.214,-0.623 0.198,-0.592C0.182,-0.561 0.169,-0.529 0.158,-0.497C0.147,-0.464 0.139,-0.431 0.134,-0.396C0.129,-0.361 0.126,-0.324 0.126,-0.284C0.126,-0.211 0.137,-0.14 0.158,-0.071C0.179,-0.002 0.211,0.061 0.254,0.12L0.194,0.16C0.148,0.097 0.112,0.028 0.087,-0.047C0.061,-0.122 0.048,-0.201 0.048,-0.284C0.048,-0.361 0.06,-0.437 0.085,-0.514C0.11,-0.591 0.146,-0.662 0.194,-0.728L0.254,-0.69Z" style="fill-rule:nonzero;"/>
            </g>
            <g transform="matrix(85.5633,0,0,85.5633,2262.77,1014.81)">
                <path d="M0.068,-0.756L0.158,-0.756L0.158,-0.401L0.16,-0.401C0.171,-0.426 0.191,-0.447 0.219,-0.463C0.247,-0.478 0.279,-0.486 0.316,-0.486C0.339,-0.486 0.361,-0.483 0.382,-0.476C0.403,-0.468 0.421,-0.458 0.437,-0.443C0.452,-0.428 0.465,-0.409 0.474,-0.387C0.483,-0.364 0.488,-0.336 0.488,-0.305L0.488,-0L0.398,-0L0.398,-0.28C0.398,-0.302 0.395,-0.321 0.389,-0.337C0.383,-0.352 0.375,-0.365 0.365,-0.375C0.355,-0.384 0.343,-0.391 0.331,-0.396C0.318,-0.4 0.304,-0.402 0.29,-0.402C0.271,-0.402 0.254,-0.399 0.238,-0.393C0.222,-0.387 0.208,-0.378 0.196,-0.365C0.184,-0.352 0.175,-0.335 0.168,-0.315C0.161,-0.295 0.158,-0.271 0.158,-0.244L0.158,-0L0.068,-0L0.068,-0.756Z" style="fill-rule:nonzero;"/>
            </g>
            <g transform="matrix(85.5633,0,0,85.5633,2310.35,1014.81)">
                <path d="M0.024,0.122C0.045,0.088 0.064,0.055 0.08,0.024C0.096,-0.007 0.109,-0.039 0.12,-0.072C0.131,-0.104 0.139,-0.137 0.144,-0.172C0.149,-0.207 0.152,-0.244 0.152,-0.284C0.152,-0.357 0.141,-0.428 0.12,-0.497C0.099,-0.566 0.067,-0.629 0.024,-0.688L0.084,-0.728C0.13,-0.665 0.166,-0.596 0.192,-0.521C0.217,-0.446 0.23,-0.367 0.23,-0.284C0.23,-0.207 0.218,-0.131 0.193,-0.054C0.168,0.023 0.132,0.094 0.084,0.16L0.024,0.122Z" style="fill-rule:nonzero;"/>
            </g>
        </g>
        <g transform="matrix(0.693078,0,0,0.693078,557.307,569.923)">
            <g transform="matrix(52.5039,0,0,52.5039,1973.15,1061.37)">
                <path d="M0.068,-0.756L0.158,-0.756L0.158,-0.401L0.16,-0.401C0.171,-0.426 0.191,-0.447 0.219,-0.463C0.247,-0.478 0.279,-0.486 0.316,-0.486C0.339,-0.486 0.361,-0.483 0.382,-0.476C0.403,-0.468 0.421,-0.458 0.437,-0.443C0.452,-0.428 0.465,-0.409 0.474,-0.387C0.483,-0.364 0.488,-0.336 0.488,-0.305L0.488,-0L0.398,-0L0.398,-0.28C0.398,-0.302 0.395,-0.321 0.389,-0.337C0.383,-0.352 0.375,-0.365 0.365,-0.375C0.355,-0.384 0.343,-0.391 0.331,-0.396C0.318,-0.4 0.304,-0.402 0.29,-0.402C0.271,-0.402 0.254,-0.399 0.238,-0.393C0.222,-0.387 0.208,-0.378 0.196,-0.365C0.184,-0.352 0.175,-0.335 0.168,-0.315C0.161,-0.295 0.158,-0.271 0.158,-0.244L0.158,-0L0.068,-0L0.068,-0.756Z" style="fill-rule:nonzero;"/>
            </g>
            <g transform="matrix(52.5039,0,0,52.5039,2016.94,1061.37)">
                <path d="M0.738,-0.583L0.695,-0.537L0.816,-0.401L0.022,-0.401L0.022,-0.319L0.816,-0.319L0.695,-0.183L0.738,-0.137L0.978,-0.36L0.738,-0.583Z" style="fill-rule:nonzero;"/>
            </g>
            <g transform="matrix(52.5039,0,0,52.5039,2084.04,1061.37)">
                <path d="M0.034,-0.354C0.034,-0.38 0.035,-0.407 0.038,-0.435C0.041,-0.463 0.046,-0.491 0.053,-0.518C0.059,-0.545 0.069,-0.57 0.081,-0.595C0.092,-0.62 0.107,-0.641 0.126,-0.66C0.144,-0.678 0.166,-0.693 0.191,-0.704C0.216,-0.715 0.245,-0.72 0.278,-0.72C0.311,-0.72 0.341,-0.715 0.366,-0.704C0.391,-0.693 0.412,-0.678 0.431,-0.66C0.449,-0.641 0.464,-0.62 0.476,-0.595C0.487,-0.57 0.497,-0.545 0.504,-0.518C0.511,-0.491 0.515,-0.463 0.518,-0.435C0.521,-0.407 0.522,-0.38 0.522,-0.354C0.522,-0.317 0.519,-0.277 0.512,-0.234C0.505,-0.191 0.493,-0.152 0.475,-0.115C0.457,-0.078 0.432,-0.048 0.401,-0.024C0.369,0 0.328,0.012 0.278,0.012C0.228,0.012 0.187,0 0.156,-0.024C0.124,-0.048 0.099,-0.078 0.081,-0.115C0.063,-0.152 0.051,-0.191 0.044,-0.234C0.037,-0.277 0.034,-0.317 0.034,-0.354ZM0.13,-0.354C0.13,-0.331 0.132,-0.303 0.135,-0.271C0.138,-0.239 0.144,-0.208 0.154,-0.179C0.164,-0.149 0.179,-0.124 0.199,-0.103C0.218,-0.082 0.245,-0.072 0.278,-0.072C0.311,-0.072 0.338,-0.082 0.358,-0.103C0.377,-0.124 0.392,-0.149 0.402,-0.179C0.412,-0.208 0.419,-0.239 0.422,-0.271C0.424,-0.303 0.426,-0.331 0.426,-0.354C0.426,-0.37 0.426,-0.388 0.425,-0.409C0.424,-0.429 0.421,-0.45 0.418,-0.471C0.414,-0.492 0.409,-0.512 0.402,-0.532C0.395,-0.551 0.387,-0.569 0.376,-0.585C0.365,-0.6 0.351,-0.613 0.335,-0.622C0.319,-0.631 0.3,-0.636 0.278,-0.636C0.256,-0.636 0.237,-0.631 0.221,-0.622C0.205,-0.613 0.192,-0.6 0.181,-0.585C0.169,-0.569 0.161,-0.551 0.154,-0.532C0.147,-0.512 0.142,-0.492 0.139,-0.471C0.135,-0.45 0.133,-0.429 0.132,-0.409C0.131,-0.388 0.13,-0.37 0.13,-0.354Z" style="fill-rule:nonzero;"/>
            </g>
        </g>
        <g id="Numerical-Recipies.svg" serif:id="Numerical Recipies.svg" transform="matrix(5.82719,0,0,5.82719,1730.19,2411.84)">
            <g transform="matrix(1,0,0,1,-262.8,-349.2)">
                <clipPath id="_clip1">
                    <rect x="0" y="0" width="525.6" height="698.4"/>
                </clipPath>
                <g clip-path="url(#_clip1)">
                    <g>
                        <g id="font_2_21" transform="matrix(9.3645,0,0,-9.3645,244.048,141.257)">
                            <path d="M0.446,0.684C0.204,0.676 0.034,0.494 0.034,0.291C0.034,0.081 0.136,-0.014 0.254,-0.014C0.432,-0.014 0.468,0.145 0.468,0.218C0.468,0.352 0.39,0.428 0.284,0.428C0.228,0.428 0.207,0.416 0.152,0.383C0.171,0.505 0.27,0.64 0.448,0.668L0.446,0.684M0.242,0.382C0.348,0.382 0.378,0.282 0.378,0.179C0.378,0.066 0.332,0.014 0.269,0.014C0.194,0.014 0.127,0.088 0.127,0.256C0.127,0.316 0.137,0.34 0.147,0.35C0.172,0.374 0.208,0.382 0.242,0.382Z" style="fill-rule:nonzero;"/>
                        </g>
                        <g id="font_2_77" transform="matrix(9.3645,0,0,-9.3645,251.071,141.257)">
                            <path d="M0.315,0.314L0.311,0.451L0.3,0.451C0.297,0.447 0.292,0.44 0.283,0.44C0.266,0.44 0.235,0.46 0.191,0.46C0.094,0.46 0.051,0.394 0.051,0.338C0.051,0.264 0.106,0.227 0.168,0.192L0.226,0.159C0.258,0.141 0.278,0.117 0.278,0.085C0.278,0.028 0.231,0.012 0.197,0.012C0.099,0.012 0.08,0.099 0.068,0.152L0.052,0.152L0.052,-0.004L0.065,-0.004C0.071,0.005 0.075,0.008 0.087,0.008L0.089,0.008C0.117,0.008 0.159,-0.01 0.203,-0.01C0.267,-0.01 0.348,0.032 0.348,0.119C0.348,0.179 0.313,0.207 0.264,0.237L0.156,0.301C0.119,0.323 0.113,0.352 0.113,0.372C0.113,0.398 0.134,0.437 0.189,0.437C0.233,0.437 0.278,0.416 0.3,0.314L0.315,0.314Z" style="fill-rule:nonzero;"/>
                        </g>
                        <g id="font_2_78" transform="matrix(9.3645,0,0,-9.3645,254.714,141.257)">
                            <path d="M0.255,0.45L0.154,0.45L0.154,0.566C0.154,0.574 0.154,0.579 0.147,0.579C0.11,0.526 0.095,0.504 0.057,0.465C0.035,0.443 0.013,0.437 0.013,0.425C0.013,0.422 0.015,0.419 0.017,0.418L0.07,0.418L0.07,0.117C0.07,0.017 0.111,-0.01 0.162,-0.01C0.208,-0.01 0.255,0.023 0.279,0.066L0.266,0.077C0.255,0.064 0.237,0.042 0.205,0.042C0.154,0.042 0.154,0.101 0.154,0.132L0.154,0.418L0.255,0.418L0.255,0.45Z" style="fill-rule:nonzero;"/>
                        </g>
                        <g id="font_2_63" transform="matrix(9.3645,0,0,-9.3645,257.317,141.257)">
                            <path d="M0.408,0.164C0.385,0.127 0.342,0.059 0.253,0.059C0.187,0.059 0.106,0.1 0.094,0.277L0.405,0.277C0.394,0.408 0.323,0.46 0.229,0.46C0.149,0.46 0.025,0.399 0.025,0.214C0.025,0.072 0.101,-0.01 0.212,-0.01C0.356,-0.01 0.414,0.126 0.424,0.157L0.408,0.164M0.097,0.309C0.113,0.397 0.152,0.424 0.207,0.424C0.286,0.424 0.296,0.357 0.303,0.309L0.097,0.309Z" style="fill-rule:nonzero;"/>
                        </g>
                        <g id="font_2_74" transform="matrix(9.3645,0,0,-9.3645,261.475,141.257)">
                            <path d="M0.075,-0.131C0.075,-0.174 0.071,-0.195 0.005,-0.2L0.005,-0.217L0.247,-0.217L0.247,-0.199C0.175,-0.199 0.159,-0.188 0.159,-0.124L0.159,0.033C0.192,0.001 0.22,-0.01 0.26,-0.01C0.399,-0.01 0.47,0.13 0.47,0.245C0.47,0.378 0.394,0.46 0.305,0.46C0.228,0.46 0.182,0.411 0.161,0.383L0.159,0.385L0.159,0.458L0.153,0.46C0.105,0.441 0.057,0.424 0.009,0.409L0.009,0.393C0.018,0.394 0.028,0.394 0.037,0.394C0.072,0.394 0.075,0.377 0.075,0.337L0.075,-0.131M0.159,0.334C0.165,0.372 0.221,0.4 0.257,0.4C0.379,0.4 0.384,0.238 0.384,0.215C0.384,0.041 0.294,0.022 0.261,0.022C0.206,0.022 0.159,0.065 0.159,0.088L0.159,0.334Z" style="fill-rule:nonzero;"/>
                        </g>
                        <g id="font_2_771" serif:id="font_2_77" transform="matrix(9.3645,0,0,-9.3645,266.157,141.257)">
                            <path d="M0.315,0.314L0.311,0.451L0.3,0.451C0.297,0.447 0.292,0.44 0.283,0.44C0.266,0.44 0.235,0.46 0.191,0.46C0.094,0.46 0.051,0.394 0.051,0.338C0.051,0.264 0.106,0.227 0.168,0.192L0.226,0.159C0.258,0.141 0.278,0.117 0.278,0.085C0.278,0.028 0.231,0.012 0.197,0.012C0.099,0.012 0.08,0.099 0.068,0.152L0.052,0.152L0.052,-0.004L0.065,-0.004C0.071,0.005 0.075,0.008 0.087,0.008L0.089,0.008C0.117,0.008 0.159,-0.01 0.203,-0.01C0.267,-0.01 0.348,0.032 0.348,0.119C0.348,0.179 0.313,0.207 0.264,0.237L0.156,0.301C0.119,0.323 0.113,0.352 0.113,0.372C0.113,0.398 0.134,0.437 0.189,0.437C0.233,0.437 0.278,0.416 0.3,0.314L0.315,0.314Z" style="fill-rule:nonzero;"/>
                        </g>
                        <g transform="matrix(1,0,0,-1,0,698.4)">
                            <path d="M228.207,571.186L228.162,571.174C228.29,570.26 228.373,569.318 228.228,568.399L227.999,568.391C227.852,569.594 227.675,570.798 227.438,571.992L227.75,572.268C228.89,571.874 230.065,571.551 231.24,571.243L231.211,571.024C230.284,571.036 229.365,571.196 228.482,571.456L228.464,571.413L228.207,571.186" style="fill-rule:nonzero;"/>
                        </g>
                        <g transform="matrix(1,0,0,-1,-80.64,734.4)">
                            <path d="M308.96,607.328C310.424,605.004 316.434,599.329 322.957,596.94M212.025,680.839L212.025,532.039L440.092,532.039M250.045,535.636L250.045,528.35M288.064,535.636L288.064,528.35M326.083,535.636L326.083,528.35M364.103,535.636L364.103,528.35M402.122,535.636L402.122,528.35M440.142,535.636L440.142,528.35" style="fill:none;fill-rule:nonzero;stroke:black;stroke-width:0.52px;"/>
                        </g>
                        <g transform="matrix(1,0,0,-1,-80.64,734.4)">
                            <path d="M212.025,548.099L327.394,656.585L439.109,675.595M439.765,653.308L403.106,648.719L366.397,637.248L326.739,622.171L289.047,598.901L250.7,571.697L213.008,548.427M212.517,547.935L266.596,589.396L326.739,630.365L393.765,653.635L439.601,660.027" style="fill:none;fill-rule:nonzero;stroke:black;stroke-width:1.04px;"/>
                        </g>
                        <g transform="matrix(1,0,0,-1,-80.64,734.4)">
                            <path d="M304.528,638.404C301.016,641.526 291.912,644.907 287.49,645.428" style="fill:none;fill-rule:nonzero;stroke:black;stroke-width:0.52px;"/>
                        </g>
                        <g transform="matrix(1,0,0,-1,0,698.4)">
                            <path d="M223.4,602.954L223.441,602.976C223.122,603.842 222.842,604.744 222.788,605.673L223.01,605.73C223.409,604.586 223.838,603.446 224.322,602.33L224.076,601.994C222.878,602.137 221.662,602.203 220.449,602.254L220.43,602.475C221.339,602.659 222.271,602.698 223.189,602.632L223.197,602.677L223.4,602.954" style="fill-rule:nonzero;"/>
                        </g>
                        <g id="font_2_17" transform="matrix(9.3645,0,0,-9.3645,179.537,90.7931)">
                            <path d="M0.475,0.137L0.462,0.142C0.423,0.079 0.404,0.076 0.367,0.076L0.128,0.076L0.296,0.252C0.34,0.299 0.424,0.39 0.424,0.496C0.424,0.608 0.334,0.676 0.243,0.676C0.155,0.676 0.061,0.628 0.031,0.477L0.052,0.472C0.074,0.526 0.104,0.602 0.195,0.602C0.313,0.602 0.338,0.51 0.338,0.459C0.338,0.384 0.295,0.294 0.208,0.201L0.03,0.012L0.03,0L0.42,0L0.475,0.137Z" style="fill-rule:nonzero;"/>
                        </g>
                        <g id="font_2_772" serif:id="font_2_77" transform="matrix(9.3645,0,0,-9.3645,186.56,90.7931)">
                            <path d="M0.315,0.314L0.311,0.451L0.3,0.451C0.297,0.447 0.292,0.44 0.283,0.44C0.266,0.44 0.235,0.46 0.191,0.46C0.094,0.46 0.051,0.394 0.051,0.338C0.051,0.264 0.106,0.227 0.168,0.192L0.226,0.159C0.258,0.141 0.278,0.117 0.278,0.085C0.278,0.028 0.231,0.012 0.197,0.012C0.099,0.012 0.08,0.099 0.068,0.152L0.052,0.152L0.052,-0.004L0.065,-0.004C0.071,0.005 0.075,0.008 0.087,0.008L0.089,0.008C0.117,0.008 0.159,-0.01 0.203,-0.01C0.267,-0.01 0.348,0.032 0.348,0.119C0.348,0.179 0.313,0.207 0.264,0.237L0.156,0.301C0.119,0.323 0.113,0.352 0.113,0.372C0.113,0.398 0.134,0.437 0.189,0.437C0.233,0.437 0.278,0.416 0.3,0.314L0.315,0.314Z" style="fill-rule:nonzero;"/>
                        </g>
                        <g id="font_2_781" serif:id="font_2_78" transform="matrix(9.3645,0,0,-9.3645,190.203,90.7931)">
                            <path d="M0.255,0.45L0.154,0.45L0.154,0.566C0.154,0.574 0.154,0.579 0.147,0.579C0.11,0.526 0.095,0.504 0.057,0.465C0.035,0.443 0.013,0.437 0.013,0.425C0.013,0.422 0.015,0.419 0.017,0.418L0.07,0.418L0.07,0.117C0.07,0.017 0.111,-0.01 0.162,-0.01C0.208,-0.01 0.255,0.023 0.279,0.066L0.266,0.077C0.255,0.064 0.237,0.042 0.205,0.042C0.154,0.042 0.154,0.101 0.154,0.132L0.154,0.418L0.255,0.418L0.255,0.45Z" style="fill-rule:nonzero;"/>
                        </g>
                        <g id="font_2_631" serif:id="font_2_63" transform="matrix(9.3645,0,0,-9.3645,192.806,90.7931)">
                            <path d="M0.408,0.164C0.385,0.127 0.342,0.059 0.253,0.059C0.187,0.059 0.106,0.1 0.094,0.277L0.405,0.277C0.394,0.408 0.323,0.46 0.229,0.46C0.149,0.46 0.025,0.399 0.025,0.214C0.025,0.072 0.101,-0.01 0.212,-0.01C0.356,-0.01 0.414,0.126 0.424,0.157L0.408,0.164M0.097,0.309C0.113,0.397 0.152,0.424 0.207,0.424C0.286,0.424 0.296,0.357 0.303,0.309L0.097,0.309Z" style="fill-rule:nonzero;"/>
                        </g>
                        <g id="font_2_741" serif:id="font_2_74" transform="matrix(9.3645,0,0,-9.3645,196.964,90.7931)">
                            <path d="M0.075,-0.131C0.075,-0.174 0.071,-0.195 0.005,-0.2L0.005,-0.217L0.247,-0.217L0.247,-0.199C0.175,-0.199 0.159,-0.188 0.159,-0.124L0.159,0.033C0.192,0.001 0.22,-0.01 0.26,-0.01C0.399,-0.01 0.47,0.13 0.47,0.245C0.47,0.378 0.394,0.46 0.305,0.46C0.228,0.46 0.182,0.411 0.161,0.383L0.159,0.385L0.159,0.458L0.153,0.46C0.105,0.441 0.057,0.424 0.009,0.409L0.009,0.393C0.018,0.394 0.028,0.394 0.037,0.394C0.072,0.394 0.075,0.377 0.075,0.337L0.075,-0.131M0.159,0.334C0.165,0.372 0.221,0.4 0.257,0.4C0.379,0.4 0.384,0.238 0.384,0.215C0.384,0.041 0.294,0.022 0.261,0.022C0.206,0.022 0.159,0.065 0.159,0.088L0.159,0.334Z" style="fill-rule:nonzero;"/>
                        </g>
                        <g id="font_2_773" serif:id="font_2_77" transform="matrix(9.3645,0,0,-9.3645,201.646,90.7931)">
                            <path d="M0.315,0.314L0.311,0.451L0.3,0.451C0.297,0.447 0.292,0.44 0.283,0.44C0.266,0.44 0.235,0.46 0.191,0.46C0.094,0.46 0.051,0.394 0.051,0.338C0.051,0.264 0.106,0.227 0.168,0.192L0.226,0.159C0.258,0.141 0.278,0.117 0.278,0.085C0.278,0.028 0.231,0.012 0.197,0.012C0.099,0.012 0.08,0.099 0.068,0.152L0.052,0.152L0.052,-0.004L0.065,-0.004C0.071,0.005 0.075,0.008 0.087,0.008L0.089,0.008C0.117,0.008 0.159,-0.01 0.203,-0.01C0.267,-0.01 0.348,0.032 0.348,0.119C0.348,0.179 0.313,0.207 0.264,0.237L0.156,0.301C0.119,0.323 0.113,0.352 0.113,0.372C0.113,0.398 0.134,0.437 0.189,0.437C0.233,0.437 0.278,0.416 0.3,0.314L0.315,0.314Z" style="fill-rule:nonzero;"/>
                        </g>
                        <g transform="matrix(1,0,0,-1,-80.64,734.4)">
                            <path d="M367.088,647.379C361.625,651.541 354.732,649.2 350.96,645.428" style="fill:none;fill-rule:nonzero;stroke:black;stroke-width:0.52px;"/>
                        </g>
                        <g transform="matrix(1,0,0,-1,0,698.4)">
                            <path d="M285.96,611.928L286.001,611.95C285.682,612.816 285.402,613.718 285.348,614.648L285.57,614.704C285.969,613.56 286.398,612.42 286.882,611.304L286.636,610.968C285.438,611.111 284.222,611.177 283.009,611.228L282.99,611.449C283.899,611.634 284.831,611.673 285.749,611.606L285.757,611.652L285.96,611.928" style="fill-rule:nonzero;"/>
                        </g>
                        <g id="font_2_19" transform="matrix(9.3645,0,0,-9.3645,243.787,93.6545)">
                            <path d="M0.472,0.231L0.37,0.231L0.37,0.676L0.326,0.676L0.012,0.231L0.012,0.167L0.293,0.167L0.293,0L0.37,0L0.37,0.167L0.472,0.167L0.472,0.231M0.292,0.231L0.052,0.231L0.29,0.571L0.292,0.571L0.292,0.231Z" style="fill-rule:nonzero;"/>
                        </g>
                        <g id="font_2_774" serif:id="font_2_77" transform="matrix(9.3645,0,0,-9.3645,250.811,93.6545)">
                            <path d="M0.315,0.314L0.311,0.451L0.3,0.451C0.297,0.447 0.292,0.44 0.283,0.44C0.266,0.44 0.235,0.46 0.191,0.46C0.094,0.46 0.051,0.394 0.051,0.338C0.051,0.264 0.106,0.227 0.168,0.192L0.226,0.159C0.258,0.141 0.278,0.117 0.278,0.085C0.278,0.028 0.231,0.012 0.197,0.012C0.099,0.012 0.08,0.099 0.068,0.152L0.052,0.152L0.052,-0.004L0.065,-0.004C0.071,0.005 0.075,0.008 0.087,0.008L0.089,0.008C0.117,0.008 0.159,-0.01 0.203,-0.01C0.267,-0.01 0.348,0.032 0.348,0.119C0.348,0.179 0.313,0.207 0.264,0.237L0.156,0.301C0.119,0.323 0.113,0.352 0.113,0.372C0.113,0.398 0.134,0.437 0.189,0.437C0.233,0.437 0.278,0.416 0.3,0.314L0.315,0.314Z" style="fill-rule:nonzero;"/>
                        </g>
                        <g id="font_2_782" serif:id="font_2_78" transform="matrix(9.3645,0,0,-9.3645,254.454,93.6545)">
                            <path d="M0.255,0.45L0.154,0.45L0.154,0.566C0.154,0.574 0.154,0.579 0.147,0.579C0.11,0.526 0.095,0.504 0.057,0.465C0.035,0.443 0.013,0.437 0.013,0.425C0.013,0.422 0.015,0.419 0.017,0.418L0.07,0.418L0.07,0.117C0.07,0.017 0.111,-0.01 0.162,-0.01C0.208,-0.01 0.255,0.023 0.279,0.066L0.266,0.077C0.255,0.064 0.237,0.042 0.205,0.042C0.154,0.042 0.154,0.101 0.154,0.132L0.154,0.418L0.255,0.418L0.255,0.45Z" style="fill-rule:nonzero;"/>
                        </g>
                        <g id="font_2_632" serif:id="font_2_63" transform="matrix(9.3645,0,0,-9.3645,257.057,93.6545)">
                            <path d="M0.408,0.164C0.385,0.127 0.342,0.059 0.253,0.059C0.187,0.059 0.106,0.1 0.094,0.277L0.405,0.277C0.394,0.408 0.323,0.46 0.229,0.46C0.149,0.46 0.025,0.399 0.025,0.214C0.025,0.072 0.101,-0.01 0.212,-0.01C0.356,-0.01 0.414,0.126 0.424,0.157L0.408,0.164M0.097,0.309C0.113,0.397 0.152,0.424 0.207,0.424C0.286,0.424 0.296,0.357 0.303,0.309L0.097,0.309Z" style="fill-rule:nonzero;"/>
                        </g>
                        <g id="font_2_742" serif:id="font_2_74" transform="matrix(9.3645,0,0,-9.3645,261.215,93.6545)">
                            <path d="M0.075,-0.131C0.075,-0.174 0.071,-0.195 0.005,-0.2L0.005,-0.217L0.247,-0.217L0.247,-0.199C0.175,-0.199 0.159,-0.188 0.159,-0.124L0.159,0.033C0.192,0.001 0.22,-0.01 0.26,-0.01C0.399,-0.01 0.47,0.13 0.47,0.245C0.47,0.378 0.394,0.46 0.305,0.46C0.228,0.46 0.182,0.411 0.161,0.383L0.159,0.385L0.159,0.458L0.153,0.46C0.105,0.441 0.057,0.424 0.009,0.409L0.009,0.393C0.018,0.394 0.028,0.394 0.037,0.394C0.072,0.394 0.075,0.377 0.075,0.337L0.075,-0.131M0.159,0.334C0.165,0.372 0.221,0.4 0.257,0.4C0.379,0.4 0.384,0.238 0.384,0.215C0.384,0.041 0.294,0.022 0.261,0.022C0.206,0.022 0.159,0.065 0.159,0.088L0.159,0.334Z" style="fill-rule:nonzero;"/>
                        </g>
                        <g id="font_2_775" serif:id="font_2_77" transform="matrix(9.3645,0,0,-9.3645,265.897,93.6545)">
                            <path d="M0.315,0.314L0.311,0.451L0.3,0.451C0.297,0.447 0.292,0.44 0.283,0.44C0.266,0.44 0.235,0.46 0.191,0.46C0.094,0.46 0.051,0.394 0.051,0.338C0.051,0.264 0.106,0.227 0.168,0.192L0.226,0.159C0.258,0.141 0.278,0.117 0.278,0.085C0.278,0.028 0.231,0.012 0.197,0.012C0.099,0.012 0.08,0.099 0.068,0.152L0.052,0.152L0.052,-0.004L0.065,-0.004C0.071,0.005 0.075,0.008 0.087,0.008L0.089,0.008C0.117,0.008 0.159,-0.01 0.203,-0.01C0.267,-0.01 0.348,0.032 0.348,0.119C0.348,0.179 0.313,0.207 0.264,0.237L0.156,0.301C0.119,0.323 0.113,0.352 0.113,0.372C0.113,0.398 0.134,0.437 0.189,0.437C0.233,0.437 0.278,0.416 0.3,0.314L0.315,0.314Z" style="fill-rule:nonzero;"/>
                        </g>
                        <g id="font_5_30" transform="matrix(8.324,0,0,-8.324,356.539,91.5735)">
                            <path d="M0.193,0.484L0.349,0.328L0.193,0.172L0.232,0.133L0.388,0.29L0.544,0.134L0.583,0.172L0.427,0.328L0.583,0.484L0.544,0.522L0.388,0.366L0.232,0.523L0.193,0.484M0.043,0.328C0.043,0.137 0.197,-0.017 0.388,-0.017C0.579,-0.017 0.733,0.137 0.733,0.328C0.733,0.519 0.579,0.673 0.388,0.673C0.197,0.673 0.043,0.519 0.043,0.328M0.096,0.328C0.096,0.489 0.227,0.62 0.388,0.62C0.549,0.62 0.68,0.489 0.68,0.328C0.68,0.167 0.549,0.036 0.388,0.036C0.227,0.036 0.096,0.167 0.096,0.328Z" style="fill-rule:nonzero;"/>
                        </g>
                        <g transform="matrix(1,0,0,-1,0,698.4)">
                            <path d="M359.478,615.346C360.627,615.346 361.559,616.277 361.559,617.427C361.559,618.576 360.627,619.508 359.478,619.508C358.329,619.508 357.397,618.576 357.397,617.427C357.397,616.277 358.329,615.346 359.478,615.346" style="fill-rule:nonzero;"/>
                        </g>
                        <g transform="matrix(1,0,0,-1,0,698.4)">
                            <path d="M359.446,621.946C360.595,621.946 361.527,622.878 361.527,624.027C361.527,625.177 360.595,626.108 359.446,626.108C358.296,626.108 357.365,625.177 357.365,624.027C357.365,622.878 358.296,621.946 359.446,621.946" style="fill-rule:nonzero;"/>
                        </g>
                        <g transform="matrix(1,0,0,-1,0,698.4)">
                            <path d="M359.446,637.619C360.595,637.619 361.527,638.551 361.527,639.7C361.527,640.849 360.595,641.781 359.446,641.781C358.296,641.781 357.365,640.849 357.365,639.7C357.365,638.551 358.296,637.619 359.446,637.619" style="fill-rule:nonzero;"/>
                        </g>
                        <g transform="matrix(1,0,0,-1,0,698.4)">
                            <path d="M359.943,604.13L359.985,604.149C360.473,603.365 361.013,602.59 361.713,601.977L361.894,602.117C361.236,603.135 360.6,604.173 360.016,605.241L359.6,605.253C358.978,604.219 358.283,603.219 357.578,602.23L357.741,602.08C358.445,602.684 359.048,603.395 359.559,604.161L359.6,604.139L359.943,604.13" style="fill-rule:nonzero;"/>
                        </g>
                        <g transform="matrix(1,0,0,-1,-80.64,734.4)">
                            <path d="M440.433,640.234C440.79,630.106 432.829,616.237 427.087,611.507" style="fill:none;fill-rule:nonzero;stroke:black;stroke-width:0.52px;"/>
                        </g>
                        <g id="font_2_633" serif:id="font_2_63" transform="matrix(9.3645,0,0,-9.3645,295.032,126.43)">
                            <path d="M0.408,0.164C0.385,0.127 0.342,0.059 0.253,0.059C0.187,0.059 0.106,0.1 0.094,0.277L0.405,0.277C0.394,0.408 0.323,0.46 0.229,0.46C0.149,0.46 0.025,0.399 0.025,0.214C0.025,0.072 0.101,-0.01 0.212,-0.01C0.356,-0.01 0.414,0.126 0.424,0.157L0.408,0.164M0.097,0.309C0.113,0.397 0.152,0.424 0.207,0.424C0.286,0.424 0.296,0.357 0.303,0.309L0.097,0.309Z" style="fill-rule:nonzero;"/>
                        </g>
                        <g id="font_2_82" transform="matrix(9.3645,0,0,-9.3645,299.19,126.43)">
                            <path d="M0.302,0.073C0.306,0.068 0.318,0.056 0.318,0.041C0.318,0.02 0.309,0.016 0.278,0.015L0.278,0L0.479,0L0.479,0.015C0.462,0.016 0.435,0.017 0.397,0.075L0.269,0.271L0.352,0.391C0.36,0.404 0.39,0.434 0.433,0.435L0.433,0.45L0.275,0.45L0.275,0.435C0.292,0.434 0.315,0.433 0.315,0.412C0.315,0.401 0.309,0.392 0.248,0.304C0.229,0.333 0.188,0.394 0.188,0.412C0.188,0.433 0.213,0.435 0.231,0.435L0.231,0.45L0.024,0.45L0.024,0.435L0.034,0.435C0.06,0.435 0.074,0.429 0.11,0.375L0.204,0.231L0.09,0.066C0.058,0.02 0.044,0.018 0.017,0.015L0.017,0L0.162,0L0.162,0.015C0.145,0.015 0.124,0.015 0.122,0.033C0.122,0.044 0.136,0.065 0.142,0.074L0.221,0.197L0.302,0.073Z" style="fill-rule:nonzero;"/>
                        </g>
                        <g id="font_2_783" serif:id="font_2_78" transform="matrix(9.3645,0,0,-9.3645,303.872,126.43)">
                            <path d="M0.255,0.45L0.154,0.45L0.154,0.566C0.154,0.574 0.154,0.579 0.147,0.579C0.11,0.526 0.095,0.504 0.057,0.465C0.035,0.443 0.013,0.437 0.013,0.425C0.013,0.422 0.015,0.419 0.017,0.418L0.07,0.418L0.07,0.117C0.07,0.017 0.111,-0.01 0.162,-0.01C0.208,-0.01 0.255,0.023 0.279,0.066L0.266,0.077C0.255,0.064 0.237,0.042 0.205,0.042C0.154,0.042 0.154,0.101 0.154,0.132L0.154,0.418L0.255,0.418L0.255,0.45Z" style="fill-rule:nonzero;"/>
                        </g>
                        <g id="font_2_76" transform="matrix(9.3645,0,0,-9.3645,306.476,126.43)">
                            <path d="M0.076,0.084C0.076,0.028 0.06,0.025 0.005,0.015L0.005,0L0.245,0L0.245,0.015C0.194,0.017 0.16,0.021 0.16,0.09L0.16,0.315C0.16,0.347 0.204,0.397 0.228,0.397C0.252,0.397 0.262,0.362 0.297,0.362C0.321,0.362 0.335,0.381 0.335,0.406C0.335,0.439 0.315,0.46 0.281,0.46C0.243,0.46 0.209,0.44 0.162,0.369L0.16,0.369L0.16,0.458L0.155,0.46C0.106,0.44 0.056,0.422 0.007,0.406L0.007,0.39C0.016,0.392 0.027,0.394 0.041,0.394C0.057,0.394 0.076,0.393 0.076,0.334L0.076,0.084Z" style="fill-rule:nonzero;"/>
                        </g>
                        <g id="font_2_59" transform="matrix(9.3645,0,0,-9.3645,309.594,126.43)">
                            <path d="M0.287,0.123C0.287,0.093 0.284,0.081 0.253,0.066C0.244,0.061 0.213,0.048 0.191,0.048C0.154,0.048 0.125,0.079 0.125,0.126L0.125,0.128C0.125,0.162 0.136,0.218 0.287,0.268L0.287,0.123M0.442,0.066C0.431,0.057 0.418,0.047 0.397,0.047C0.368,0.047 0.368,0.076 0.368,0.105L0.368,0.3C0.368,0.36 0.368,0.46 0.219,0.46C0.103,0.46 0.056,0.389 0.056,0.349C0.056,0.333 0.068,0.305 0.099,0.305C0.125,0.305 0.144,0.327 0.144,0.348C0.144,0.357 0.139,0.372 0.139,0.387C0.139,0.418 0.177,0.436 0.21,0.436C0.24,0.436 0.287,0.425 0.287,0.353L0.287,0.292C0.124,0.228 0.037,0.194 0.037,0.094C0.037,0.027 0.089,-0.01 0.143,-0.01C0.198,-0.01 0.251,0.03 0.288,0.063C0.293,-0.009 0.335,-0.01 0.353,-0.01C0.369,-0.01 0.4,-0.009 0.442,0.04L0.442,0.066Z" style="fill-rule:nonzero;"/>
                        </g>
                        <g id="font_2_743" serif:id="font_2_74" transform="matrix(9.3645,0,0,-9.3645,313.752,126.43)">
                            <path d="M0.075,-0.131C0.075,-0.174 0.071,-0.195 0.005,-0.2L0.005,-0.217L0.247,-0.217L0.247,-0.199C0.175,-0.199 0.159,-0.188 0.159,-0.124L0.159,0.033C0.192,0.001 0.22,-0.01 0.26,-0.01C0.399,-0.01 0.47,0.13 0.47,0.245C0.47,0.378 0.394,0.46 0.305,0.46C0.228,0.46 0.182,0.411 0.161,0.383L0.159,0.385L0.159,0.458L0.153,0.46C0.105,0.441 0.057,0.424 0.009,0.409L0.009,0.393C0.018,0.394 0.028,0.394 0.037,0.394C0.072,0.394 0.075,0.377 0.075,0.337L0.075,-0.131M0.159,0.334C0.165,0.372 0.221,0.4 0.257,0.4C0.379,0.4 0.384,0.238 0.384,0.215C0.384,0.041 0.294,0.022 0.261,0.022C0.206,0.022 0.159,0.065 0.159,0.088L0.159,0.334Z" style="fill-rule:nonzero;"/>
                        </g>
                        <g id="font_2_73" transform="matrix(9.3645,0,0,-9.3645,318.434,126.43)">
                            <path d="M0.245,0.46C0.111,0.46 0.029,0.351 0.029,0.228C0.029,0.093 0.119,-0.01 0.248,-0.01C0.4,-0.01 0.47,0.129 0.47,0.228C0.47,0.373 0.376,0.46 0.245,0.46M0.262,0.018C0.142,0.018 0.119,0.202 0.119,0.276C0.119,0.38 0.174,0.432 0.237,0.432C0.329,0.432 0.38,0.323 0.38,0.199C0.38,0.056 0.313,0.018 0.262,0.018Z" style="fill-rule:nonzero;"/>
                        </g>
                        <g id="font_2_70" transform="matrix(9.3645,0,0,-9.3645,323.116,126.43)">
                            <path d="M0.021,0L0.257,0L0.257,0.015C0.199,0.018 0.182,0.026 0.182,0.084L0.182,0.681L0.178,0.683C0.125,0.666 0.072,0.652 0.019,0.639L0.019,0.623C0.031,0.624 0.04,0.625 0.053,0.625C0.092,0.625 0.098,0.609 0.098,0.564L0.098,0.087C0.098,0.032 0.08,0.019 0.021,0.015L0.021,0Z" style="fill-rule:nonzero;"/>
                        </g>
                        <g id="font_2_591" serif:id="font_2_59" transform="matrix(9.3645,0,0,-9.3645,325.72,126.43)">
                            <path d="M0.287,0.123C0.287,0.093 0.284,0.081 0.253,0.066C0.244,0.061 0.213,0.048 0.191,0.048C0.154,0.048 0.125,0.079 0.125,0.126L0.125,0.128C0.125,0.162 0.136,0.218 0.287,0.268L0.287,0.123M0.442,0.066C0.431,0.057 0.418,0.047 0.397,0.047C0.368,0.047 0.368,0.076 0.368,0.105L0.368,0.3C0.368,0.36 0.368,0.46 0.219,0.46C0.103,0.46 0.056,0.389 0.056,0.349C0.056,0.333 0.068,0.305 0.099,0.305C0.125,0.305 0.144,0.327 0.144,0.348C0.144,0.357 0.139,0.372 0.139,0.387C0.139,0.418 0.177,0.436 0.21,0.436C0.24,0.436 0.287,0.425 0.287,0.353L0.287,0.292C0.124,0.228 0.037,0.194 0.037,0.094C0.037,0.027 0.089,-0.01 0.143,-0.01C0.198,-0.01 0.251,0.03 0.288,0.063C0.293,-0.009 0.335,-0.01 0.353,-0.01C0.369,-0.01 0.4,-0.009 0.442,0.04L0.442,0.066Z" style="fill-rule:nonzero;"/>
                        </g>
                        <g id="font_2_784" serif:id="font_2_78" transform="matrix(9.3645,0,0,-9.3645,329.877,126.43)">
                            <path d="M0.255,0.45L0.154,0.45L0.154,0.566C0.154,0.574 0.154,0.579 0.147,0.579C0.11,0.526 0.095,0.504 0.057,0.465C0.035,0.443 0.013,0.437 0.013,0.425C0.013,0.422 0.015,0.419 0.017,0.418L0.07,0.418L0.07,0.117C0.07,0.017 0.111,-0.01 0.162,-0.01C0.208,-0.01 0.255,0.023 0.279,0.066L0.266,0.077C0.255,0.064 0.237,0.042 0.205,0.042C0.154,0.042 0.154,0.101 0.154,0.132L0.154,0.418L0.255,0.418L0.255,0.45Z" style="fill-rule:nonzero;"/>
                        </g>
                        <g id="font_2_67" transform="matrix(9.3645,0,0,-9.3645,332.481,126.43)">
                            <path d="M0.016,0L0.253,0L0.253,0.015C0.184,0.019 0.179,0.036 0.179,0.102L0.179,0.457L0.175,0.46C0.123,0.441 0.072,0.422 0.02,0.405L0.02,0.39C0.033,0.392 0.046,0.394 0.06,0.394C0.076,0.394 0.095,0.393 0.095,0.334L0.095,0.102C0.095,0.024 0.078,0.018 0.016,0.015L0.016,0M0.078,0.632C0.078,0.613 0.092,0.581 0.128,0.581C0.158,0.581 0.18,0.603 0.18,0.632C0.18,0.66 0.158,0.683 0.128,0.683C0.093,0.683 0.078,0.651 0.078,0.632Z" style="fill-rule:nonzero;"/>
                        </g>
                        <g id="font_2_731" serif:id="font_2_73" transform="matrix(9.3645,0,0,-9.3645,335.084,126.43)">
                            <path d="M0.245,0.46C0.111,0.46 0.029,0.351 0.029,0.228C0.029,0.093 0.119,-0.01 0.248,-0.01C0.4,-0.01 0.47,0.129 0.47,0.228C0.47,0.373 0.376,0.46 0.245,0.46M0.262,0.018C0.142,0.018 0.119,0.202 0.119,0.276C0.119,0.38 0.174,0.432 0.237,0.432C0.329,0.432 0.38,0.323 0.38,0.199C0.38,0.056 0.313,0.018 0.262,0.018Z" style="fill-rule:nonzero;"/>
                        </g>
                        <g id="font_2_72" transform="matrix(9.3645,0,0,-9.3645,339.766,126.43)">
                            <path d="M0.08,0.09C0.08,0.031 0.065,0.018 0.018,0.015L0.018,0L0.23,0L0.23,0.015C0.178,0.018 0.164,0.034 0.164,0.067L0.164,0.348C0.202,0.385 0.233,0.405 0.263,0.405C0.322,0.405 0.34,0.369 0.34,0.308L0.34,0.099C0.34,0.023 0.314,0.018 0.277,0.015L0.277,0L0.485,0L0.485,0.015C0.436,0.019 0.424,0.034 0.424,0.081L0.424,0.31C0.424,0.433 0.353,0.46 0.307,0.46C0.248,0.46 0.21,0.425 0.161,0.379L0.161,0.458L0.154,0.46C0.108,0.443 0.061,0.428 0.016,0.415L0.016,0.398C0.02,0.4 0.031,0.402 0.045,0.402C0.061,0.402 0.08,0.401 0.08,0.338L0.08,0.09Z" style="fill-rule:nonzero;"/>
                        </g>
                        <g id="font_2_785" serif:id="font_2_78" transform="matrix(9.3645,0,0,-9.3645,295.032,135.795)">
                            <path d="M0.255,0.45L0.154,0.45L0.154,0.566C0.154,0.574 0.154,0.579 0.147,0.579C0.11,0.526 0.095,0.504 0.057,0.465C0.035,0.443 0.013,0.437 0.013,0.425C0.013,0.422 0.015,0.419 0.017,0.418L0.07,0.418L0.07,0.117C0.07,0.017 0.111,-0.01 0.162,-0.01C0.208,-0.01 0.255,0.023 0.279,0.066L0.266,0.077C0.255,0.064 0.237,0.042 0.205,0.042C0.154,0.042 0.154,0.101 0.154,0.132L0.154,0.418L0.255,0.418L0.255,0.45Z" style="fill-rule:nonzero;"/>
                        </g>
                        <g id="font_2_732" serif:id="font_2_73" transform="matrix(9.3645,0,0,-9.3645,297.635,135.795)">
                            <path d="M0.245,0.46C0.111,0.46 0.029,0.351 0.029,0.228C0.029,0.093 0.119,-0.01 0.248,-0.01C0.4,-0.01 0.47,0.129 0.47,0.228C0.47,0.373 0.376,0.46 0.245,0.46M0.262,0.018C0.142,0.018 0.119,0.202 0.119,0.276C0.119,0.38 0.174,0.432 0.237,0.432C0.329,0.432 0.38,0.323 0.38,0.199C0.38,0.056 0.313,0.018 0.262,0.018Z" style="fill-rule:nonzero;"/>
                        </g>
                        <g id="font_5_24" transform="matrix(9.3645,0,0,-9.3645,304.659,135.795)">
                            <path d="M0.357,0.297C0.296,0.352 0.275,0.37 0.228,0.391C0.131,0.434 0.035,0.367 0.026,0.279C0.018,0.205 0.081,0.116 0.173,0.125C0.276,0.135 0.333,0.21 0.357,0.231C0.381,0.21 0.438,0.135 0.541,0.125C0.633,0.116 0.696,0.205 0.688,0.279C0.679,0.367 0.583,0.434 0.486,0.391C0.439,0.37 0.418,0.352 0.357,0.297M0.324,0.264C0.265,0.207 0.248,0.188 0.192,0.175C0.137,0.162 0.078,0.2 0.076,0.259C0.075,0.303 0.119,0.375 0.205,0.345C0.239,0.333 0.267,0.312 0.324,0.264M0.39,0.264C0.447,0.312 0.475,0.333 0.509,0.345C0.595,0.375 0.639,0.303 0.638,0.259C0.636,0.2 0.577,0.162 0.522,0.175C0.466,0.188 0.449,0.207 0.39,0.264Z" style="fill-rule:nonzero;"/>
                        </g>
                        <g id="font_2_776" serif:id="font_2_77" transform="matrix(9.3645,0,0,-9.3645,313.677,135.795)">
                            <path d="M0.315,0.314L0.311,0.451L0.3,0.451C0.297,0.447 0.292,0.44 0.283,0.44C0.266,0.44 0.235,0.46 0.191,0.46C0.094,0.46 0.051,0.394 0.051,0.338C0.051,0.264 0.106,0.227 0.168,0.192L0.226,0.159C0.258,0.141 0.278,0.117 0.278,0.085C0.278,0.028 0.231,0.012 0.197,0.012C0.099,0.012 0.08,0.099 0.068,0.152L0.052,0.152L0.052,-0.004L0.065,-0.004C0.071,0.005 0.075,0.008 0.087,0.008L0.089,0.008C0.117,0.008 0.159,-0.01 0.203,-0.01C0.267,-0.01 0.348,0.032 0.348,0.119C0.348,0.179 0.313,0.207 0.264,0.237L0.156,0.301C0.119,0.323 0.113,0.352 0.113,0.372C0.113,0.398 0.134,0.437 0.189,0.437C0.233,0.437 0.278,0.416 0.3,0.314L0.315,0.314Z" style="fill-rule:nonzero;"/>
                        </g>
                        <g id="font_2_786" serif:id="font_2_78" transform="matrix(9.3645,0,0,-9.3645,317.32,135.795)">
                            <path d="M0.255,0.45L0.154,0.45L0.154,0.566C0.154,0.574 0.154,0.579 0.147,0.579C0.11,0.526 0.095,0.504 0.057,0.465C0.035,0.443 0.013,0.437 0.013,0.425C0.013,0.422 0.015,0.419 0.017,0.418L0.07,0.418L0.07,0.117C0.07,0.017 0.111,-0.01 0.162,-0.01C0.208,-0.01 0.255,0.023 0.279,0.066L0.266,0.077C0.255,0.064 0.237,0.042 0.205,0.042C0.154,0.042 0.154,0.101 0.154,0.132L0.154,0.418L0.255,0.418L0.255,0.45Z" style="fill-rule:nonzero;"/>
                        </g>
                        <g id="font_2_634" serif:id="font_2_63" transform="matrix(9.3645,0,0,-9.3645,319.923,135.795)">
                            <path d="M0.408,0.164C0.385,0.127 0.342,0.059 0.253,0.059C0.187,0.059 0.106,0.1 0.094,0.277L0.405,0.277C0.394,0.408 0.323,0.46 0.229,0.46C0.149,0.46 0.025,0.399 0.025,0.214C0.025,0.072 0.101,-0.01 0.212,-0.01C0.356,-0.01 0.414,0.126 0.424,0.157L0.408,0.164M0.097,0.309C0.113,0.397 0.152,0.424 0.207,0.424C0.286,0.424 0.296,0.357 0.303,0.309L0.097,0.309Z" style="fill-rule:nonzero;"/>
                        </g>
                        <g id="font_2_744" serif:id="font_2_74" transform="matrix(9.3645,0,0,-9.3645,324.081,135.795)">
                            <path d="M0.075,-0.131C0.075,-0.174 0.071,-0.195 0.005,-0.2L0.005,-0.217L0.247,-0.217L0.247,-0.199C0.175,-0.199 0.159,-0.188 0.159,-0.124L0.159,0.033C0.192,0.001 0.22,-0.01 0.26,-0.01C0.399,-0.01 0.47,0.13 0.47,0.245C0.47,0.378 0.394,0.46 0.305,0.46C0.228,0.46 0.182,0.411 0.161,0.383L0.159,0.385L0.159,0.458L0.153,0.46C0.105,0.441 0.057,0.424 0.009,0.409L0.009,0.393C0.018,0.394 0.028,0.394 0.037,0.394C0.072,0.394 0.075,0.377 0.075,0.337L0.075,-0.131M0.159,0.334C0.165,0.372 0.221,0.4 0.257,0.4C0.379,0.4 0.384,0.238 0.384,0.215C0.384,0.041 0.294,0.022 0.261,0.022C0.206,0.022 0.159,0.065 0.159,0.088L0.159,0.334Z" style="fill-rule:nonzero;"/>
                        </g>
                        <g id="font_2_777" serif:id="font_2_77" transform="matrix(9.3645,0,0,-9.3645,328.763,135.795)">
                            <path d="M0.315,0.314L0.311,0.451L0.3,0.451C0.297,0.447 0.292,0.44 0.283,0.44C0.266,0.44 0.235,0.46 0.191,0.46C0.094,0.46 0.051,0.394 0.051,0.338C0.051,0.264 0.106,0.227 0.168,0.192L0.226,0.159C0.258,0.141 0.278,0.117 0.278,0.085C0.278,0.028 0.231,0.012 0.197,0.012C0.099,0.012 0.08,0.099 0.068,0.152L0.052,0.152L0.052,-0.004L0.065,-0.004C0.071,0.005 0.075,0.008 0.087,0.008L0.089,0.008C0.117,0.008 0.159,-0.01 0.203,-0.01C0.267,-0.01 0.348,0.032 0.348,0.119C0.348,0.179 0.313,0.207 0.264,0.237L0.156,0.301C0.119,0.323 0.113,0.352 0.113,0.372C0.113,0.398 0.134,0.437 0.189,0.437C0.233,0.437 0.278,0.416 0.3,0.314L0.315,0.314Z" style="fill-rule:nonzero;"/>
                        </g>
                        <g transform="matrix(1,0,0,-1,0,698.4)">
                            <path d="M322.605,610.598C323.755,610.598 324.686,611.53 324.686,612.679C324.686,613.829 323.755,614.76 322.605,614.76C321.456,614.76 320.524,613.829 320.524,612.679C320.524,611.53 321.456,610.598 322.605,610.598" style="fill-rule:nonzero;"/>
                        </g>
                        <g transform="matrix(1,0,0,-1,0,698.4)">
                            <path d="M285.798,599.153C286.947,599.153 287.879,600.085 287.879,601.234C287.879,602.383 286.947,603.315 285.798,603.315C284.648,603.315 283.717,602.383 283.717,601.234C283.717,600.085 284.648,599.153 285.798,599.153" style="fill-rule:nonzero;"/>
                        </g>
                        <g transform="matrix(1,0,0,-1,0,698.4)">
                            <path d="M246.259,584.131C247.408,584.131 248.34,585.062 248.34,586.212C248.34,587.361 247.408,588.293 246.259,588.293C245.109,588.293 244.178,587.361 244.178,586.212C244.178,585.062 245.109,584.131 246.259,584.131" style="fill-rule:nonzero;"/>
                        </g>
                        <g transform="matrix(1,0,0,-1,0,698.4)">
                            <path d="M246.129,592.195C247.278,592.195 248.21,593.126 248.21,594.275C248.21,595.425 247.278,596.357 246.129,596.357C244.979,596.357 244.048,595.425 244.048,594.275C244.048,593.126 244.979,592.195 246.129,592.195" style="fill-rule:nonzero;"/>
                        </g>
                        <g transform="matrix(1,0,0,-1,0,698.4)">
                            <path d="M208.476,560.849C209.625,560.849 210.557,561.781 210.557,562.93C210.557,564.08 209.625,565.011 208.476,565.011C207.326,565.011 206.395,564.08 206.395,562.93C206.395,561.781 207.326,560.849 208.476,560.849" style="fill-rule:nonzero;"/>
                        </g>
                        <g transform="matrix(1,0,0,-1,0,698.4)">
                            <path d="M169.977,533.536C171.126,533.536 172.058,534.468 172.058,535.617C172.058,536.767 171.126,537.698 169.977,537.698C168.828,537.698 167.896,536.767 167.896,535.617C167.896,534.468 168.828,533.536 169.977,533.536" style="fill-rule:nonzero;"/>
                        </g>
                        <g transform="matrix(1,0,0,-1,0,698.4)">
                            <path d="M185.845,551.225C186.994,551.225 187.926,552.157 187.926,553.306C187.926,554.455 186.994,555.387 185.845,555.387C184.695,555.387 183.764,554.455 183.764,553.306C183.764,552.157 184.695,551.225 185.845,551.225" style="fill-rule:nonzero;"/>
                        </g>
                        <g transform="matrix(1,0,0,-1,0,698.4)">
                            <path d="M246.909,618.532C248.058,618.532 248.99,619.464 248.99,620.613C248.99,621.762 248.058,622.694 246.909,622.694C245.76,622.694 244.828,621.762 244.828,620.613C244.828,619.464 245.76,618.532 246.909,618.532" style="fill-rule:nonzero;"/>
                        </g>
                        <g transform="matrix(1,0,0,-1,0,698.4)">
                            <path d="M131.479,509.995C132.628,509.995 133.56,510.927 133.56,512.076C133.56,513.225 132.628,514.157 131.479,514.157C130.329,514.157 129.398,513.225 129.398,512.076C129.398,510.927 130.329,509.995 131.479,509.995" style="fill-rule:nonzero;"/>
                        </g>
                        <g id="font_6_69" transform="matrix(9.3645,0,0,-9.3645,132.194,213.832)">
                            <path d="M0.402,0.111C0.375,0.081 0.355,0.044 0.334,0.044C0.314,0.044 0.307,0.069 0.303,0.085C0.297,0.11 0.263,0.246 0.263,0.264C0.263,0.264 0.331,0.385 0.36,0.385C0.382,0.385 0.389,0.368 0.413,0.368C0.437,0.368 0.447,0.387 0.447,0.405C0.447,0.429 0.425,0.441 0.406,0.441C0.354,0.441 0.307,0.38 0.255,0.298L0.244,0.353C0.226,0.441 0.211,0.441 0.189,0.441C0.157,0.441 0.091,0.417 0.064,0.408L0.068,0.393C0.1,0.401 0.114,0.404 0.123,0.404C0.15,0.404 0.154,0.39 0.163,0.359C0.164,0.354 0.198,0.221 0.198,0.212C0.108,0.081 0.082,0.047 0.065,0.047C0.047,0.047 0.029,0.066 0.007,0.066C-0.015,0.066 -0.027,0.048 -0.027,0.032C-0.027,0.008 -0.011,-0.011 0.022,-0.011C0.053,-0.011 0.065,0 0.082,0.019C0.116,0.056 0.158,0.11 0.206,0.176L0.236,0.056C0.249,0.003 0.264,-0.011 0.293,-0.011C0.316,-0.011 0.345,-0.011 0.416,0.103L0.402,0.111Z" style="fill-rule:nonzero;"/>
                        </g>
                        <g id="font_6_691" serif:id="font_6_69" transform="matrix(9.3645,0,0,-9.3645,341.075,214.873)">
                            <path d="M0.402,0.111C0.375,0.081 0.355,0.044 0.334,0.044C0.314,0.044 0.307,0.069 0.303,0.085C0.297,0.11 0.263,0.246 0.263,0.264C0.263,0.264 0.331,0.385 0.36,0.385C0.382,0.385 0.389,0.368 0.413,0.368C0.437,0.368 0.447,0.387 0.447,0.405C0.447,0.429 0.425,0.441 0.406,0.441C0.354,0.441 0.307,0.38 0.255,0.298L0.244,0.353C0.226,0.441 0.211,0.441 0.189,0.441C0.157,0.441 0.091,0.417 0.064,0.408L0.068,0.393C0.1,0.401 0.114,0.404 0.123,0.404C0.15,0.404 0.154,0.39 0.163,0.359C0.164,0.354 0.198,0.221 0.198,0.212C0.108,0.081 0.082,0.047 0.065,0.047C0.047,0.047 0.029,0.066 0.007,0.066C-0.015,0.066 -0.027,0.048 -0.027,0.032C-0.027,0.008 -0.011,-0.011 0.022,-0.011C0.053,-0.011 0.065,0 0.082,0.019C0.116,0.056 0.158,0.11 0.206,0.176L0.236,0.056C0.249,0.003 0.264,-0.011 0.293,-0.011C0.316,-0.011 0.345,-0.011 0.416,0.103L0.402,0.111Z" style="fill-rule:nonzero;"/>
                        </g>
                        <g id="font_7_3" transform="matrix(9.3645,0,0,-9.3645,347.574,214.873)">
                            <path d="M0.247,0.533L0.247,0.298L0.01,0.298L0.01,0.243L0.247,0.243L0.247,0L0.302,0L0.302,0.243L0.539,0.243L0.539,0.298L0.302,0.298L0.302,0.533L0.247,0.533Z" style="fill-rule:nonzero;"/>
                        </g>
                        <g id="font_6_27" transform="matrix(9.3645,0,0,-9.3645,355.056,214.873)">
                            <path d="M0.767,0.653L0.52,0.653L0.52,0.637C0.563,0.632 0.59,0.629 0.59,0.594C0.59,0.576 0.585,0.552 0.579,0.532L0.533,0.368L0.248,0.368L0.302,0.563C0.32,0.629 0.368,0.634 0.403,0.637L0.403,0.653L0.13,0.653L0.13,0.637C0.18,0.633 0.207,0.628 0.207,0.594C0.207,0.576 0.202,0.552 0.196,0.532L0.073,0.09C0.056,0.028 0.041,0.025 -0.008,0.016L-0.008,0L0.238,0L0.238,0.016C0.194,0.022 0.167,0.025 0.167,0.059C0.167,0.065 0.168,0.073 0.17,0.082L0.236,0.326L0.521,0.326L0.456,0.09C0.438,0.026 0.401,0.022 0.355,0.016L0.355,0L0.628,0L0.628,0.016C0.582,0.02 0.55,0.023 0.55,0.059C0.55,0.065 0.551,0.073 0.553,0.082L0.685,0.563C0.702,0.626 0.718,0.628 0.767,0.637L0.767,0.653Z" style="fill-rule:nonzero;"/>
                        </g>
                        <g id="font_6_70" transform="matrix(9.3645,0,0,-9.3645,123.09,125.91)">
                            <path d="M0.015,0.4C0.027,0.403 0.034,0.404 0.049,0.404C0.106,0.404 0.119,0.361 0.146,0.27C0.163,0.216 0.205,0.041 0.205,0.003C0.205,-0.024 0.163,-0.073 0.138,-0.102C0.104,-0.142 0.091,-0.151 0.075,-0.151C0.057,-0.151 0.044,-0.123 0.014,-0.123C-0.007,-0.123 -0.024,-0.14 -0.024,-0.161C-0.024,-0.203 0.019,-0.206 0.027,-0.206C0.146,-0.206 0.426,0.26 0.426,0.379C0.426,0.415 0.406,0.441 0.369,0.441C0.343,0.441 0.332,0.42 0.332,0.406C0.332,0.36 0.386,0.371 0.386,0.33C0.386,0.277 0.307,0.142 0.264,0.072L0.244,0.188C0.231,0.263 0.172,0.441 0.159,0.441C0.141,0.441 0.063,0.425 0.015,0.417L0.015,0.4Z" style="fill-rule:nonzero;"/>
                        </g>
                        <g transform="matrix(1,0,0,-1,0,698.4)">
                            <path d="M313.176,615.541C314.325,615.541 315.257,616.472 315.257,617.622C315.257,618.771 314.325,619.703 313.176,619.703C312.027,619.703 311.095,618.771 311.095,617.622C311.095,616.472 312.027,615.541 313.176,615.541" style="fill-rule:nonzero;"/>
                        </g>
                    </g>
                    <g transform="matrix(1,0,0,-1,0,698.4)">
                        <rect x="26.182" y="41.673" width="473.455" height="621.818" style="fill-opacity:0;fill-rule:nonzero;"/>
                    </g>
                    <g transform="matrix(0.545455,0,0,0.545455,0,0)">
                        <rect x="43" y="59" width="878" height="1150" style="fill:none;fill-rule:nonzero;stroke:black;stroke-opacity:0;stroke-width:10px;stroke-miterlimit:10;"/>
                    </g>
                </g>
            </g>
        </g>
        <g transform="matrix(0.966619,0,0,0.992992,29.9845,4.59573)">
            <rect x="898.252" y="655.739" width="1489.04" height="1020.03" style="fill:rgb(235,235,235);fill-opacity:0;"/>
        </g>
    </g>
</svg>
