<?xml version="1.0" encoding="UTF-8" standalone="no"?>
<!DOCTYPE svg PUBLIC "-//W3C//DTD SVG 1.1//EN" "http://www.w3.org/Graphics/SVG/1.1/DTD/svg11.dtd">
<svg width="100%" height="100%" viewBox="0 0 1755 1855" version="1.1" xmlns="http://www.w3.org/2000/svg" xmlns:xlink="http://www.w3.org/1999/xlink" xml:space="preserve" xmlns:serif="http://www.serif.com/" style="fill-rule:evenodd;clip-rule:evenodd;stroke-linecap:round;stroke-linejoin:round;stroke-miterlimit:1.5;">
    <g transform="matrix(1,0,0,1,-693.717,-240.66)">
        <g transform="matrix(1,0,0,1,195.042,-233.336)">
            <g transform="matrix(182.165,0,0,182.165,482.098,611.712)">
                <path d="M0.091,-0.708L0.337,-0.708C0.368,-0.708 0.396,-0.704 0.423,-0.697C0.449,-0.69 0.472,-0.679 0.491,-0.665C0.509,-0.65 0.525,-0.632 0.536,-0.61C0.547,-0.587 0.552,-0.561 0.552,-0.531C0.552,-0.49 0.541,-0.457 0.518,-0.432C0.495,-0.406 0.466,-0.387 0.43,-0.375L0.43,-0.373C0.451,-0.372 0.471,-0.366 0.49,-0.357C0.509,-0.347 0.525,-0.334 0.539,-0.319C0.552,-0.303 0.563,-0.285 0.571,-0.264C0.579,-0.243 0.583,-0.221 0.583,-0.197C0.583,-0.165 0.576,-0.137 0.564,-0.113C0.551,-0.088 0.533,-0.068 0.51,-0.051C0.487,-0.034 0.461,-0.022 0.431,-0.013C0.401,-0.004 0.369,-0 0.334,-0L0.091,-0L0.091,-0.708ZM0.187,-0.414L0.318,-0.414C0.336,-0.414 0.353,-0.416 0.369,-0.42C0.385,-0.423 0.399,-0.429 0.411,-0.438C0.423,-0.447 0.432,-0.458 0.44,-0.471C0.447,-0.484 0.45,-0.501 0.45,-0.52C0.45,-0.548 0.441,-0.572 0.423,-0.593C0.405,-0.614 0.377,-0.624 0.338,-0.624L0.187,-0.624L0.187,-0.414ZM0.187,-0.084L0.328,-0.084C0.343,-0.084 0.359,-0.086 0.377,-0.089C0.394,-0.091 0.411,-0.097 0.426,-0.107C0.441,-0.115 0.454,-0.128 0.465,-0.143C0.476,-0.158 0.481,-0.179 0.481,-0.204C0.481,-0.246 0.467,-0.278 0.44,-0.299C0.413,-0.32 0.376,-0.33 0.329,-0.33L0.187,-0.33L0.187,-0.084Z" style="fill-rule:nonzero;"/>
            </g>
            <g transform="matrix(182.165,0,0,182.165,596.862,611.712)">
                <path d="M0.488,-0L0.398,-0L0.398,-0.073L0.396,-0.073C0.385,-0.048 0.365,-0.027 0.337,-0.012C0.309,0.004 0.277,0.012 0.24,0.012C0.217,0.012 0.195,0.009 0.174,0.002C0.153,-0.006 0.135,-0.016 0.12,-0.031C0.104,-0.046 0.091,-0.065 0.082,-0.088C0.073,-0.111 0.068,-0.138 0.068,-0.169L0.068,-0.474L0.158,-0.474L0.158,-0.194C0.158,-0.172 0.161,-0.153 0.167,-0.138C0.173,-0.122 0.181,-0.109 0.191,-0.1C0.201,-0.09 0.213,-0.083 0.226,-0.079C0.239,-0.074 0.252,-0.072 0.266,-0.072C0.285,-0.072 0.302,-0.075 0.318,-0.081C0.334,-0.087 0.348,-0.096 0.36,-0.11C0.372,-0.123 0.381,-0.139 0.388,-0.159C0.395,-0.179 0.398,-0.203 0.398,-0.23L0.398,-0.474L0.488,-0.474L0.488,-0Z" style="fill-rule:nonzero;"/>
            </g>
            <g transform="matrix(182.165,0,0,182.165,698.145,611.712)">
                <path d="M0.322,-0.396L0.193,-0.396L0.193,-0.181C0.193,-0.168 0.193,-0.155 0.194,-0.142C0.195,-0.129 0.197,-0.117 0.202,-0.107C0.206,-0.096 0.213,-0.088 0.222,-0.082C0.231,-0.075 0.244,-0.072 0.261,-0.072C0.272,-0.072 0.283,-0.073 0.294,-0.075C0.305,-0.077 0.316,-0.081 0.325,-0.086L0.325,-0.004C0.314,0.002 0.301,0.006 0.284,0.009C0.267,0.011 0.253,0.012 0.244,0.012C0.209,0.012 0.183,0.007 0.164,-0.003C0.145,-0.012 0.131,-0.025 0.122,-0.04C0.113,-0.055 0.107,-0.073 0.106,-0.092C0.104,-0.111 0.103,-0.13 0.103,-0.149L0.103,-0.396L-0.001,-0.396L-0.001,-0.474L0.103,-0.474L0.103,-0.607L0.193,-0.607L0.193,-0.474L0.322,-0.474L0.322,-0.396Z" style="fill-rule:nonzero;"/>
            </g>
            <g transform="matrix(182.165,0,0,182.165,765.546,611.712)">
                <path d="M0.407,-0.348C0.39,-0.365 0.373,-0.379 0.355,-0.388C0.336,-0.397 0.314,-0.401 0.289,-0.401C0.264,-0.401 0.243,-0.397 0.225,-0.388C0.206,-0.379 0.191,-0.366 0.179,-0.351C0.166,-0.335 0.157,-0.317 0.151,-0.297C0.144,-0.276 0.141,-0.255 0.141,-0.233C0.141,-0.211 0.145,-0.19 0.152,-0.171C0.159,-0.151 0.17,-0.134 0.183,-0.119C0.196,-0.104 0.212,-0.093 0.231,-0.085C0.25,-0.076 0.271,-0.072 0.294,-0.072C0.319,-0.072 0.341,-0.077 0.359,-0.086C0.377,-0.095 0.394,-0.108 0.409,-0.125L0.473,-0.061C0.45,-0.035 0.423,-0.016 0.392,-0.005C0.361,0.006 0.328,0.012 0.293,0.012C0.256,0.012 0.223,0.006 0.193,-0.006C0.162,-0.018 0.136,-0.035 0.114,-0.057C0.092,-0.078 0.075,-0.104 0.063,-0.135C0.051,-0.165 0.045,-0.198 0.045,-0.235C0.045,-0.272 0.051,-0.305 0.063,-0.336C0.075,-0.367 0.092,-0.393 0.114,-0.415C0.135,-0.437 0.161,-0.454 0.192,-0.467C0.222,-0.479 0.256,-0.485 0.293,-0.485C0.328,-0.485 0.361,-0.479 0.393,-0.467C0.424,-0.454 0.452,-0.435 0.475,-0.41L0.407,-0.348Z" style="fill-rule:nonzero;"/>
            </g>
            <g transform="matrix(182.165,0,0,182.165,853.35,611.712)">
                <path d="M0.068,-0.756L0.158,-0.756L0.158,-0.401L0.16,-0.401C0.171,-0.426 0.191,-0.447 0.219,-0.463C0.247,-0.478 0.279,-0.486 0.316,-0.486C0.339,-0.486 0.361,-0.483 0.382,-0.476C0.403,-0.468 0.421,-0.458 0.437,-0.443C0.452,-0.428 0.465,-0.409 0.474,-0.387C0.483,-0.364 0.488,-0.336 0.488,-0.305L0.488,-0L0.398,-0L0.398,-0.28C0.398,-0.302 0.395,-0.321 0.389,-0.337C0.383,-0.352 0.375,-0.365 0.365,-0.375C0.355,-0.384 0.343,-0.391 0.331,-0.396C0.318,-0.4 0.304,-0.402 0.29,-0.402C0.271,-0.402 0.254,-0.399 0.238,-0.393C0.222,-0.387 0.208,-0.378 0.196,-0.365C0.184,-0.352 0.175,-0.335 0.168,-0.315C0.161,-0.295 0.158,-0.271 0.158,-0.244L0.158,-0L0.068,-0L0.068,-0.756Z" style="fill-rule:nonzero;"/>
            </g>
            <g transform="matrix(182.165,0,0,182.165,954.633,611.712)">
                <path d="M0.136,-0.204C0.136,-0.183 0.14,-0.165 0.15,-0.148C0.159,-0.13 0.17,-0.116 0.185,-0.104C0.2,-0.092 0.217,-0.083 0.236,-0.076C0.255,-0.069 0.275,-0.066 0.296,-0.066C0.324,-0.066 0.348,-0.073 0.369,-0.086C0.39,-0.098 0.409,-0.116 0.426,-0.137L0.494,-0.085C0.444,-0.02 0.374,0.012 0.284,0.012C0.247,0.012 0.213,0.006 0.183,-0.007C0.152,-0.02 0.127,-0.037 0.106,-0.06C0.085,-0.082 0.068,-0.108 0.057,-0.139C0.046,-0.169 0.04,-0.202 0.04,-0.237C0.04,-0.272 0.046,-0.305 0.059,-0.336C0.071,-0.366 0.088,-0.392 0.11,-0.415C0.131,-0.437 0.157,-0.454 0.187,-0.467C0.217,-0.48 0.25,-0.486 0.285,-0.486C0.327,-0.486 0.363,-0.479 0.392,-0.464C0.421,-0.449 0.444,-0.43 0.463,-0.407C0.482,-0.383 0.495,-0.356 0.504,-0.327C0.512,-0.297 0.516,-0.267 0.516,-0.236L0.516,-0.204L0.136,-0.204ZM0.42,-0.276C0.419,-0.296 0.416,-0.314 0.411,-0.331C0.405,-0.348 0.396,-0.362 0.385,-0.375C0.374,-0.387 0.36,-0.397 0.343,-0.404C0.326,-0.411 0.306,-0.414 0.283,-0.414C0.261,-0.414 0.241,-0.41 0.223,-0.402C0.204,-0.393 0.189,-0.382 0.176,-0.369C0.163,-0.356 0.154,-0.341 0.147,-0.325C0.139,-0.308 0.136,-0.292 0.136,-0.276L0.42,-0.276Z" style="fill-rule:nonzero;"/>
            </g>
            <g transform="matrix(182.165,0,0,182.165,1055.92,611.712)">
                <path d="M0.068,-0.474L0.158,-0.474L0.158,-0.401L0.16,-0.401C0.166,-0.414 0.174,-0.425 0.184,-0.436C0.194,-0.446 0.205,-0.455 0.218,-0.462C0.23,-0.469 0.243,-0.475 0.258,-0.48C0.273,-0.484 0.287,-0.486 0.302,-0.486C0.317,-0.486 0.33,-0.484 0.342,-0.48L0.338,-0.383C0.331,-0.385 0.323,-0.387 0.316,-0.388C0.309,-0.389 0.301,-0.39 0.294,-0.39C0.25,-0.39 0.216,-0.378 0.193,-0.353C0.17,-0.328 0.158,-0.29 0.158,-0.238L0.158,-0L0.068,-0L0.068,-0.474Z" style="fill-rule:nonzero;"/>
            </g>
            <g transform="matrix(182.165,0,0,182.165,1113.3,611.712)">
                <rect x="0.035" y="-0.284" width="0.246" height="0.084" style="fill-rule:nonzero;"/>
            </g>
            <g transform="matrix(182.165,0,0,182.165,1170.86,611.712)">
                <path d="M0.239,-0.618L0.011,-0.618L0.011,-0.708L0.563,-0.708L0.563,-0.618L0.335,-0.618L0.335,-0L0.239,-0L0.239,-0.618Z" style="fill-rule:nonzero;"/>
            </g>
            <g transform="matrix(182.165,0,0,182.165,1255.2,611.712)">
                <path d="M0.07,-0.416C0.095,-0.439 0.125,-0.457 0.158,-0.469C0.191,-0.48 0.225,-0.486 0.258,-0.486C0.293,-0.486 0.323,-0.482 0.348,-0.473C0.373,-0.464 0.393,-0.453 0.409,-0.438C0.425,-0.423 0.437,-0.407 0.445,-0.388C0.452,-0.369 0.456,-0.349 0.456,-0.328L0.456,-0.086C0.456,-0.069 0.456,-0.054 0.457,-0.04C0.458,-0.026 0.459,-0.013 0.46,-0L0.38,-0C0.378,-0.024 0.377,-0.048 0.377,-0.072L0.375,-0.072C0.355,-0.041 0.331,-0.02 0.304,-0.007C0.277,0.006 0.245,0.012 0.209,0.012C0.187,0.012 0.166,0.009 0.146,0.003C0.126,-0.003 0.109,-0.012 0.094,-0.024C0.079,-0.036 0.067,-0.051 0.058,-0.069C0.049,-0.086 0.045,-0.107 0.045,-0.13C0.045,-0.161 0.052,-0.186 0.066,-0.207C0.079,-0.228 0.098,-0.245 0.122,-0.258C0.145,-0.271 0.173,-0.28 0.205,-0.286C0.236,-0.291 0.27,-0.294 0.306,-0.294L0.372,-0.294L0.372,-0.314C0.372,-0.326 0.37,-0.338 0.365,-0.35C0.36,-0.362 0.353,-0.373 0.344,-0.383C0.335,-0.392 0.323,-0.4 0.309,-0.406C0.295,-0.411 0.278,-0.414 0.259,-0.414C0.242,-0.414 0.227,-0.412 0.214,-0.409C0.201,-0.406 0.189,-0.402 0.178,-0.397C0.167,-0.392 0.158,-0.386 0.149,-0.379C0.14,-0.372 0.132,-0.366 0.124,-0.36L0.07,-0.416ZM0.324,-0.228C0.303,-0.228 0.281,-0.227 0.259,-0.225C0.236,-0.222 0.216,-0.218 0.198,-0.211C0.179,-0.204 0.164,-0.195 0.153,-0.183C0.141,-0.171 0.135,-0.156 0.135,-0.137C0.135,-0.11 0.144,-0.09 0.163,-0.078C0.181,-0.066 0.206,-0.06 0.237,-0.06C0.262,-0.06 0.283,-0.064 0.3,-0.073C0.317,-0.081 0.331,-0.092 0.342,-0.105C0.353,-0.118 0.36,-0.133 0.365,-0.15C0.37,-0.166 0.372,-0.182 0.372,-0.198L0.372,-0.228L0.324,-0.228Z" style="fill-rule:nonzero;"/>
            </g>
            <g transform="matrix(182.165,0,0,182.165,1349.75,611.712)">
                <path d="M0.068,-0.756L0.158,-0.756L0.158,-0.406L0.16,-0.406C0.176,-0.431 0.199,-0.45 0.229,-0.465C0.259,-0.479 0.291,-0.486 0.325,-0.486C0.362,-0.486 0.395,-0.48 0.425,-0.467C0.454,-0.454 0.48,-0.437 0.501,-0.415C0.522,-0.392 0.538,-0.366 0.549,-0.336C0.56,-0.305 0.566,-0.272 0.566,-0.237C0.566,-0.202 0.56,-0.169 0.549,-0.139C0.538,-0.109 0.522,-0.083 0.501,-0.06C0.48,-0.037 0.454,-0.02 0.425,-0.007C0.395,0.006 0.362,0.012 0.325,0.012C0.293,0.012 0.262,0.005 0.232,-0.009C0.201,-0.023 0.177,-0.043 0.16,-0.068L0.158,-0.068L0.158,-0L0.068,-0L0.068,-0.756ZM0.314,-0.072C0.338,-0.072 0.36,-0.076 0.379,-0.085C0.398,-0.093 0.415,-0.104 0.428,-0.119C0.441,-0.133 0.452,-0.15 0.459,-0.171C0.466,-0.191 0.47,-0.213 0.47,-0.237C0.47,-0.261 0.466,-0.283 0.459,-0.304C0.452,-0.324 0.441,-0.341 0.428,-0.356C0.415,-0.37 0.398,-0.381 0.379,-0.39C0.36,-0.398 0.338,-0.402 0.314,-0.402C0.29,-0.402 0.268,-0.398 0.249,-0.39C0.23,-0.381 0.213,-0.37 0.2,-0.356C0.187,-0.341 0.176,-0.324 0.169,-0.304C0.162,-0.283 0.158,-0.261 0.158,-0.237C0.158,-0.213 0.162,-0.191 0.169,-0.171C0.176,-0.15 0.187,-0.133 0.2,-0.119C0.213,-0.104 0.23,-0.093 0.249,-0.085C0.268,-0.076 0.29,-0.072 0.314,-0.072Z" style="fill-rule:nonzero;"/>
            </g>
            <g transform="matrix(182.165,0,0,182.165,1461.05,611.712)">
                <rect x="0.075" y="-0.756" width="0.09" height="0.756" style="fill-rule:nonzero;"/>
            </g>
            <g transform="matrix(182.165,0,0,182.165,1504.77,611.712)">
                <path d="M0.136,-0.204C0.136,-0.183 0.14,-0.165 0.15,-0.148C0.159,-0.13 0.17,-0.116 0.185,-0.104C0.2,-0.092 0.217,-0.083 0.236,-0.076C0.255,-0.069 0.275,-0.066 0.296,-0.066C0.324,-0.066 0.348,-0.073 0.369,-0.086C0.39,-0.098 0.409,-0.116 0.426,-0.137L0.494,-0.085C0.444,-0.02 0.374,0.012 0.284,0.012C0.247,0.012 0.213,0.006 0.183,-0.007C0.152,-0.02 0.127,-0.037 0.106,-0.06C0.085,-0.082 0.068,-0.108 0.057,-0.139C0.046,-0.169 0.04,-0.202 0.04,-0.237C0.04,-0.272 0.046,-0.305 0.059,-0.336C0.071,-0.366 0.088,-0.392 0.11,-0.415C0.131,-0.437 0.157,-0.454 0.187,-0.467C0.217,-0.48 0.25,-0.486 0.285,-0.486C0.327,-0.486 0.363,-0.479 0.392,-0.464C0.421,-0.449 0.444,-0.43 0.463,-0.407C0.482,-0.383 0.495,-0.356 0.504,-0.327C0.512,-0.297 0.516,-0.267 0.516,-0.236L0.516,-0.204L0.136,-0.204ZM0.42,-0.276C0.419,-0.296 0.416,-0.314 0.411,-0.331C0.405,-0.348 0.396,-0.362 0.385,-0.375C0.374,-0.387 0.36,-0.397 0.343,-0.404C0.326,-0.411 0.306,-0.414 0.283,-0.414C0.261,-0.414 0.241,-0.41 0.223,-0.402C0.204,-0.393 0.189,-0.382 0.176,-0.369C0.163,-0.356 0.154,-0.341 0.147,-0.325C0.139,-0.308 0.136,-0.292 0.136,-0.276L0.42,-0.276Z" style="fill-rule:nonzero;"/>
            </g>
            <g transform="matrix(182.165,0,0,182.165,1606.05,611.712)">
                <path d="M0.07,-0.416C0.095,-0.439 0.125,-0.457 0.158,-0.469C0.191,-0.48 0.225,-0.486 0.258,-0.486C0.293,-0.486 0.323,-0.482 0.348,-0.473C0.373,-0.464 0.393,-0.453 0.409,-0.438C0.425,-0.423 0.437,-0.407 0.445,-0.388C0.452,-0.369 0.456,-0.349 0.456,-0.328L0.456,-0.086C0.456,-0.069 0.456,-0.054 0.457,-0.04C0.458,-0.026 0.459,-0.013 0.46,-0L0.38,-0C0.378,-0.024 0.377,-0.048 0.377,-0.072L0.375,-0.072C0.355,-0.041 0.331,-0.02 0.304,-0.007C0.277,0.006 0.245,0.012 0.209,0.012C0.187,0.012 0.166,0.009 0.146,0.003C0.126,-0.003 0.109,-0.012 0.094,-0.024C0.079,-0.036 0.067,-0.051 0.058,-0.069C0.049,-0.086 0.045,-0.107 0.045,-0.13C0.045,-0.161 0.052,-0.186 0.066,-0.207C0.079,-0.228 0.098,-0.245 0.122,-0.258C0.145,-0.271 0.173,-0.28 0.205,-0.286C0.236,-0.291 0.27,-0.294 0.306,-0.294L0.372,-0.294L0.372,-0.314C0.372,-0.326 0.37,-0.338 0.365,-0.35C0.36,-0.362 0.353,-0.373 0.344,-0.383C0.335,-0.392 0.323,-0.4 0.309,-0.406C0.295,-0.411 0.278,-0.414 0.259,-0.414C0.242,-0.414 0.227,-0.412 0.214,-0.409C0.201,-0.406 0.189,-0.402 0.178,-0.397C0.167,-0.392 0.158,-0.386 0.149,-0.379C0.14,-0.372 0.132,-0.366 0.124,-0.36L0.07,-0.416ZM0.324,-0.228C0.303,-0.228 0.281,-0.227 0.259,-0.225C0.236,-0.222 0.216,-0.218 0.198,-0.211C0.179,-0.204 0.164,-0.195 0.153,-0.183C0.141,-0.171 0.135,-0.156 0.135,-0.137C0.135,-0.11 0.144,-0.09 0.163,-0.078C0.181,-0.066 0.206,-0.06 0.237,-0.06C0.262,-0.06 0.283,-0.064 0.3,-0.073C0.317,-0.081 0.331,-0.092 0.342,-0.105C0.353,-0.118 0.36,-0.133 0.365,-0.15C0.37,-0.166 0.372,-0.182 0.372,-0.198L0.372,-0.228L0.324,-0.228Z" style="fill-rule:nonzero;"/>
            </g>
            <g transform="matrix(182.165,0,0,182.165,1700.6,611.712)">
                <path d="M0.488,-0L0.398,-0L0.398,-0.073L0.396,-0.073C0.385,-0.048 0.365,-0.027 0.337,-0.012C0.309,0.004 0.277,0.012 0.24,0.012C0.217,0.012 0.195,0.009 0.174,0.002C0.153,-0.006 0.135,-0.016 0.12,-0.031C0.104,-0.046 0.091,-0.065 0.082,-0.088C0.073,-0.111 0.068,-0.138 0.068,-0.169L0.068,-0.474L0.158,-0.474L0.158,-0.194C0.158,-0.172 0.161,-0.153 0.167,-0.138C0.173,-0.122 0.181,-0.109 0.191,-0.1C0.201,-0.09 0.213,-0.083 0.226,-0.079C0.239,-0.074 0.252,-0.072 0.266,-0.072C0.285,-0.072 0.302,-0.075 0.318,-0.081C0.334,-0.087 0.348,-0.096 0.36,-0.11C0.372,-0.123 0.381,-0.139 0.388,-0.159C0.395,-0.179 0.398,-0.203 0.398,-0.23L0.398,-0.474L0.488,-0.474L0.488,-0Z" style="fill-rule:nonzero;"/>
            </g>
        </g>
        <g transform="matrix(1,0,0,1,65.9655,-340.06)">
            <path d="M1225.18,1009.63C1187.66,943.548 1091.27,860.419 1012.68,916.057C998.738,925.927 986.613,939.692 976.81,953.596C966.363,968.412 960.962,984.761 956.974,1002.27" style="fill:none;stroke:rgb(174,23,236);stroke-width:10.21px;"/>
        </g>
        <g transform="matrix(1,0,0,1,65.9655,-340.06)">
            <path d="M956.974,1002.27L931.492,951.496" style="fill:none;stroke:rgb(174,23,236);stroke-width:10.21px;"/>
        </g>
        <g transform="matrix(1,0,0,1,65.9655,-340.06)">
            <path d="M956.974,1002.27L996.09,969.561" style="fill:none;stroke:rgb(174,23,236);stroke-width:10.21px;"/>
        </g>
        <g transform="matrix(1,0,0,1,65.9655,-340.06)">
            <g transform="matrix(90.7636,0,0,90.7636,1036.97,864.454)">
                <path d="M0.066,-0.342L0.294,-0.342L0.294,-0.57L0.372,-0.57L0.372,-0.342L0.6,-0.342L0.6,-0.264L0.372,-0.264L0.372,-0.036L0.294,-0.036L0.294,-0.264L0.066,-0.264L0.066,-0.342Z" style="fill:rgb(174,23,236);fill-rule:nonzero;"/>
            </g>
        </g>
        <g transform="matrix(1,0,0,1.03735,613.443,-0.38174)">
            <path d="M529.04,1565.42L529.04,685.156" style="fill:none;stroke:black;stroke-width:20.03px;"/>
        </g>
        <g transform="matrix(1.02266,0,0,1,574.873,25.2093)">
            <path d="M418.725,1454.12L1702.43,1454.12" style="fill:none;stroke:black;stroke-width:20.18px;"/>
        </g>
        <g transform="matrix(1.02266,0,0,1,574.873,54.9761)">
            <path d="M418.725,1454.12L1702.43,1454.12" style="fill:none;stroke:black;stroke-width:20.18px;"/>
        </g>
        <g transform="matrix(2.4434,0,0,2.4434,-429.02,-1086.16)">
            <g transform="matrix(91.6557,0,0,91.6557,673.106,800.459)">
                <path d="M0.374,-0.254L0.353,-0.367C0.338,-0.444 0.302,-0.483 0.244,-0.483C0.212,-0.483 0.186,-0.465 0.167,-0.429C0.141,-0.385 0.129,-0.333 0.129,-0.273C0.129,-0.201 0.141,-0.148 0.165,-0.114C0.19,-0.079 0.216,-0.062 0.244,-0.062C0.287,-0.062 0.321,-0.097 0.344,-0.166L0.374,-0.254ZM0.244,-0.559C0.345,-0.561 0.405,-0.509 0.424,-0.404L0.473,-0.547L0.553,-0.547L0.453,-0.25L0.472,-0.144C0.475,-0.128 0.482,-0.113 0.494,-0.1C0.507,-0.084 0.519,-0.076 0.529,-0.076L0.572,-0.076L0.572,-0L0.519,-0C0.488,-0 0.459,-0.014 0.432,-0.041C0.418,-0.055 0.409,-0.076 0.403,-0.104C0.388,-0.069 0.366,-0.037 0.336,-0.008C0.321,0.006 0.291,0.013 0.244,0.012C0.18,0.012 0.129,-0.013 0.092,-0.062C0.053,-0.113 0.034,-0.183 0.034,-0.273C0.034,-0.37 0.055,-0.44 0.096,-0.484C0.142,-0.533 0.192,-0.558 0.244,-0.559Z" style="fill-rule:nonzero;"/>
            </g>
        </g>
        <g transform="matrix(2.4434,0,0,2.4434,-702.484,-1086.16)">
            <g transform="matrix(91.6557,0,0,91.6557,673.106,800.459)">
                <path d="M0.107,-0.408C0.093,-0.449 0.07,-0.47 0.04,-0.47L0.016,-0.47L0.016,-0.547L0.05,-0.547C0.113,-0.547 0.155,-0.518 0.176,-0.461L0.301,-0.126L0.46,-0.547L0.553,-0.547L0.348,-0L0.348,0.208L0.255,0.208L0.255,-0L0.107,-0.408Z" style="fill-rule:nonzero;"/>
            </g>
        </g>
        <g transform="matrix(2.4434,0,0,2.4434,-702.484,-604.099)">
            <g transform="matrix(91.6557,0,0,91.6557,673.106,800.459)">
                <path d="M0.107,-0.408C0.093,-0.449 0.07,-0.47 0.04,-0.47L0.016,-0.47L0.016,-0.547L0.05,-0.547C0.113,-0.547 0.155,-0.518 0.176,-0.461L0.301,-0.126L0.46,-0.547L0.553,-0.547L0.348,-0L0.348,0.208L0.255,0.208L0.255,-0L0.107,-0.408Z" style="fill-rule:nonzero;"/>
            </g>
        </g>
        <g transform="matrix(3.39198e-17,-0.553952,0.553952,3.39198e-17,-144.429,1705.08)">
            <g transform="matrix(339.717,0,0,339.717,357.53,1825.89)">
                <path d="M0.091,-0.708L0.34,-0.708C0.385,-0.708 0.423,-0.702 0.452,-0.69C0.481,-0.677 0.505,-0.662 0.522,-0.643C0.539,-0.623 0.55,-0.602 0.557,-0.579C0.564,-0.555 0.567,-0.532 0.567,-0.51C0.567,-0.487 0.563,-0.466 0.555,-0.445C0.547,-0.424 0.536,-0.405 0.521,-0.388C0.505,-0.371 0.487,-0.356 0.466,-0.345C0.444,-0.333 0.42,-0.326 0.393,-0.323L0.594,-0L0.474,-0L0.294,-0.312L0.187,-0.312L0.187,-0L0.091,-0L0.091,-0.708ZM0.187,-0.396L0.313,-0.396C0.332,-0.396 0.35,-0.398 0.369,-0.401C0.387,-0.404 0.403,-0.409 0.418,-0.417C0.432,-0.425 0.443,-0.436 0.452,-0.452C0.461,-0.467 0.465,-0.486 0.465,-0.51C0.465,-0.534 0.461,-0.554 0.452,-0.569C0.443,-0.584 0.432,-0.595 0.418,-0.603C0.403,-0.611 0.387,-0.616 0.369,-0.62C0.35,-0.623 0.332,-0.624 0.313,-0.624L0.187,-0.624L0.187,-0.396Z" style="fill-rule:nonzero;"/>
            </g>
            <g transform="matrix(339.717,0,0,339.717,565.097,1825.89)">
                <path d="M0.091,-0.708L0.187,-0.708L0.187,-0.402L0.195,-0.402L0.508,-0.708L0.642,-0.708L0.3,-0.381L0.665,-0L0.525,-0L0.195,-0.354L0.187,-0.354L0.187,-0L0.091,-0L0.091,-0.708Z" style="fill-rule:nonzero;"/>
            </g>
            <g transform="matrix(339.717,0,0,339.717,785.234,1825.89)">
                <rect x="0.035" y="-0.284" width="0.246" height="0.084" style="fill-rule:nonzero;"/>
            </g>
            <g transform="matrix(339.717,0,0,339.717,892.584,1825.89)">
                <path d="M0.068,-0.474L0.158,-0.474L0.158,-0.401L0.16,-0.401C0.171,-0.426 0.191,-0.447 0.219,-0.463C0.247,-0.478 0.279,-0.486 0.316,-0.486C0.339,-0.486 0.361,-0.483 0.382,-0.476C0.403,-0.468 0.421,-0.458 0.437,-0.443C0.452,-0.428 0.465,-0.409 0.474,-0.387C0.483,-0.364 0.488,-0.336 0.488,-0.305L0.488,-0L0.398,-0L0.398,-0.28C0.398,-0.302 0.395,-0.321 0.389,-0.337C0.383,-0.352 0.375,-0.365 0.365,-0.375C0.355,-0.384 0.343,-0.391 0.331,-0.396C0.318,-0.4 0.304,-0.402 0.29,-0.402C0.271,-0.402 0.254,-0.399 0.238,-0.393C0.222,-0.387 0.208,-0.378 0.196,-0.365C0.184,-0.352 0.175,-0.335 0.168,-0.315C0.161,-0.295 0.158,-0.271 0.158,-0.244L0.158,-0L0.068,-0L0.068,-0.474Z" style="fill-rule:nonzero;"/>
            </g>
            <g transform="matrix(339.717,0,0,339.717,1081.47,1825.89)">
                <path d="M0.141,-0.237C0.141,-0.213 0.145,-0.191 0.152,-0.171C0.159,-0.15 0.17,-0.133 0.183,-0.119C0.196,-0.104 0.213,-0.093 0.232,-0.085C0.251,-0.076 0.273,-0.072 0.297,-0.072C0.321,-0.072 0.343,-0.076 0.362,-0.085C0.381,-0.093 0.398,-0.104 0.411,-0.119C0.424,-0.133 0.435,-0.15 0.442,-0.171C0.449,-0.191 0.453,-0.213 0.453,-0.237C0.453,-0.261 0.449,-0.283 0.442,-0.304C0.435,-0.324 0.424,-0.341 0.411,-0.356C0.398,-0.37 0.381,-0.381 0.362,-0.39C0.343,-0.398 0.321,-0.402 0.297,-0.402C0.273,-0.402 0.251,-0.398 0.232,-0.39C0.213,-0.381 0.196,-0.37 0.183,-0.356C0.17,-0.341 0.159,-0.324 0.152,-0.304C0.145,-0.283 0.141,-0.261 0.141,-0.237ZM0.045,-0.237C0.045,-0.272 0.051,-0.304 0.065,-0.334C0.078,-0.364 0.095,-0.39 0.118,-0.413C0.141,-0.436 0.167,-0.454 0.198,-0.467C0.229,-0.48 0.262,-0.486 0.297,-0.486C0.332,-0.486 0.365,-0.48 0.396,-0.467C0.427,-0.454 0.453,-0.436 0.476,-0.413C0.499,-0.39 0.517,-0.364 0.53,-0.334C0.543,-0.304 0.549,-0.272 0.549,-0.237C0.549,-0.202 0.543,-0.17 0.53,-0.14C0.517,-0.109 0.499,-0.083 0.476,-0.061C0.453,-0.038 0.427,-0.021 0.396,-0.008C0.365,0.006 0.332,0.012 0.297,0.012C0.262,0.012 0.229,0.006 0.198,-0.008C0.167,-0.021 0.141,-0.038 0.118,-0.061C0.095,-0.083 0.078,-0.109 0.065,-0.14C0.051,-0.17 0.045,-0.202 0.045,-0.237Z" style="fill-rule:nonzero;"/>
            </g>
            <g transform="matrix(339.717,0,0,339.717,1283.26,1825.89)">
                <path d="M0.543,-0L0.453,-0L0.453,-0.068L0.451,-0.068C0.434,-0.043 0.41,-0.023 0.38,-0.009C0.349,0.005 0.318,0.012 0.286,0.012C0.249,0.012 0.216,0.006 0.187,-0.007C0.157,-0.02 0.132,-0.037 0.111,-0.06C0.09,-0.083 0.073,-0.109 0.062,-0.139C0.051,-0.169 0.045,-0.202 0.045,-0.237C0.045,-0.272 0.051,-0.305 0.062,-0.336C0.073,-0.366 0.09,-0.392 0.111,-0.415C0.132,-0.437 0.157,-0.454 0.187,-0.467C0.216,-0.48 0.249,-0.486 0.286,-0.486C0.32,-0.486 0.352,-0.479 0.382,-0.465C0.412,-0.45 0.435,-0.431 0.451,-0.406L0.453,-0.406L0.453,-0.756L0.543,-0.756L0.543,-0ZM0.297,-0.072C0.321,-0.072 0.343,-0.076 0.362,-0.085C0.381,-0.093 0.398,-0.104 0.411,-0.119C0.424,-0.133 0.435,-0.15 0.442,-0.171C0.449,-0.191 0.453,-0.213 0.453,-0.237C0.453,-0.261 0.449,-0.283 0.442,-0.304C0.435,-0.324 0.424,-0.341 0.411,-0.356C0.398,-0.37 0.381,-0.381 0.362,-0.39C0.343,-0.398 0.321,-0.402 0.297,-0.402C0.273,-0.402 0.251,-0.398 0.232,-0.39C0.213,-0.381 0.196,-0.37 0.183,-0.356C0.17,-0.341 0.159,-0.324 0.152,-0.304C0.145,-0.283 0.141,-0.261 0.141,-0.237C0.141,-0.213 0.145,-0.191 0.152,-0.171C0.159,-0.15 0.17,-0.133 0.183,-0.119C0.196,-0.104 0.213,-0.093 0.232,-0.085C0.251,-0.076 0.273,-0.072 0.297,-0.072Z" style="fill-rule:nonzero;"/>
            </g>
            <g transform="matrix(339.717,0,0,339.717,1490.82,1825.89)">
                <path d="M0.136,-0.204C0.136,-0.183 0.14,-0.165 0.15,-0.148C0.159,-0.13 0.17,-0.116 0.185,-0.104C0.2,-0.092 0.217,-0.083 0.236,-0.076C0.255,-0.069 0.275,-0.066 0.296,-0.066C0.324,-0.066 0.348,-0.073 0.369,-0.086C0.39,-0.098 0.409,-0.116 0.426,-0.137L0.494,-0.085C0.444,-0.02 0.374,0.012 0.284,0.012C0.247,0.012 0.213,0.006 0.183,-0.007C0.152,-0.02 0.127,-0.037 0.106,-0.06C0.085,-0.082 0.068,-0.108 0.057,-0.139C0.046,-0.169 0.04,-0.202 0.04,-0.237C0.04,-0.272 0.046,-0.305 0.059,-0.336C0.071,-0.366 0.088,-0.392 0.11,-0.415C0.131,-0.437 0.157,-0.454 0.187,-0.467C0.217,-0.48 0.25,-0.486 0.285,-0.486C0.327,-0.486 0.363,-0.479 0.392,-0.464C0.421,-0.449 0.444,-0.43 0.463,-0.407C0.482,-0.383 0.495,-0.356 0.504,-0.327C0.512,-0.297 0.516,-0.267 0.516,-0.236L0.516,-0.204L0.136,-0.204ZM0.42,-0.276C0.419,-0.296 0.416,-0.314 0.411,-0.331C0.405,-0.348 0.396,-0.362 0.385,-0.375C0.374,-0.387 0.36,-0.397 0.343,-0.404C0.326,-0.411 0.306,-0.414 0.283,-0.414C0.261,-0.414 0.241,-0.41 0.223,-0.402C0.204,-0.393 0.189,-0.382 0.176,-0.369C0.163,-0.356 0.154,-0.341 0.147,-0.325C0.139,-0.308 0.136,-0.292 0.136,-0.276L0.42,-0.276Z" style="fill-rule:nonzero;"/>
            </g>
            <g transform="matrix(339.717,0,0,339.717,1679.71,1825.89)">
                <path d="M0.32,-0.355C0.309,-0.368 0.296,-0.38 0.281,-0.389C0.265,-0.398 0.246,-0.402 0.223,-0.402C0.202,-0.402 0.183,-0.398 0.168,-0.389C0.152,-0.38 0.144,-0.366 0.144,-0.349C0.144,-0.335 0.149,-0.324 0.158,-0.315C0.167,-0.306 0.177,-0.299 0.19,-0.294C0.202,-0.289 0.215,-0.285 0.229,-0.282C0.243,-0.279 0.255,-0.277 0.265,-0.275C0.284,-0.27 0.303,-0.265 0.32,-0.258C0.337,-0.251 0.351,-0.243 0.364,-0.232C0.376,-0.221 0.386,-0.208 0.393,-0.193C0.4,-0.178 0.403,-0.159 0.403,-0.137C0.403,-0.11 0.397,-0.088 0.386,-0.069C0.375,-0.05 0.36,-0.034 0.342,-0.022C0.324,-0.01 0.304,-0.001 0.281,0.004C0.258,0.009 0.234,0.012 0.211,0.012C0.172,0.012 0.137,0.006 0.108,-0.006C0.078,-0.018 0.051,-0.04 0.028,-0.072L0.096,-0.128C0.111,-0.113 0.127,-0.1 0.145,-0.089C0.163,-0.078 0.185,-0.072 0.211,-0.072C0.222,-0.072 0.234,-0.073 0.246,-0.076C0.257,-0.078 0.268,-0.082 0.277,-0.087C0.286,-0.092 0.293,-0.098 0.299,-0.106C0.304,-0.113 0.307,-0.122 0.307,-0.132C0.307,-0.145 0.303,-0.156 0.295,-0.165C0.286,-0.174 0.276,-0.181 0.265,-0.186C0.253,-0.191 0.241,-0.195 0.228,-0.198C0.215,-0.201 0.203,-0.203 0.193,-0.205C0.174,-0.21 0.155,-0.215 0.138,-0.221C0.121,-0.227 0.105,-0.235 0.092,-0.245C0.079,-0.255 0.068,-0.268 0.06,-0.283C0.052,-0.298 0.048,-0.317 0.048,-0.34C0.048,-0.365 0.053,-0.386 0.064,-0.405C0.074,-0.423 0.088,-0.438 0.105,-0.45C0.122,-0.462 0.141,-0.471 0.163,-0.477C0.184,-0.483 0.206,-0.486 0.228,-0.486C0.26,-0.486 0.291,-0.48 0.32,-0.468C0.349,-0.456 0.373,-0.436 0.39,-0.408L0.32,-0.355Z" style="fill-rule:nonzero;"/>
            </g>
        </g>
        <g transform="matrix(0.553952,0,0,0.553952,982.16,1038.52)">
            <g transform="matrix(339.717,0,0,339.717,357.53,1825.89)">
                <path d="M0.091,-0.708L0.34,-0.708C0.385,-0.708 0.423,-0.702 0.452,-0.69C0.481,-0.677 0.505,-0.662 0.522,-0.643C0.539,-0.623 0.55,-0.602 0.557,-0.579C0.564,-0.555 0.567,-0.532 0.567,-0.51C0.567,-0.487 0.563,-0.466 0.555,-0.445C0.547,-0.424 0.536,-0.405 0.521,-0.388C0.505,-0.371 0.487,-0.356 0.466,-0.345C0.444,-0.333 0.42,-0.326 0.393,-0.323L0.594,-0L0.474,-0L0.294,-0.312L0.187,-0.312L0.187,-0L0.091,-0L0.091,-0.708ZM0.187,-0.396L0.313,-0.396C0.332,-0.396 0.35,-0.398 0.369,-0.401C0.387,-0.404 0.403,-0.409 0.418,-0.417C0.432,-0.425 0.443,-0.436 0.452,-0.452C0.461,-0.467 0.465,-0.486 0.465,-0.51C0.465,-0.534 0.461,-0.554 0.452,-0.569C0.443,-0.584 0.432,-0.595 0.418,-0.603C0.403,-0.611 0.387,-0.616 0.369,-0.62C0.35,-0.623 0.332,-0.624 0.313,-0.624L0.187,-0.624L0.187,-0.396Z" style="fill-rule:nonzero;"/>
            </g>
            <g transform="matrix(339.717,0,0,339.717,565.097,1825.89)">
                <path d="M0.091,-0.708L0.187,-0.708L0.187,-0.402L0.195,-0.402L0.508,-0.708L0.642,-0.708L0.3,-0.381L0.665,-0L0.525,-0L0.195,-0.354L0.187,-0.354L0.187,-0L0.091,-0L0.091,-0.708Z" style="fill-rule:nonzero;"/>
            </g>
            <g transform="matrix(339.717,0,0,339.717,785.234,1825.89)">
                <rect x="0.035" y="-0.284" width="0.246" height="0.084" style="fill-rule:nonzero;"/>
            </g>
            <g transform="matrix(339.717,0,0,339.717,892.584,1825.89)">
                <path d="M0.011,-0.474L0.112,-0.474L0.219,-0.12L0.221,-0.12L0.334,-0.474L0.429,-0.474L0.549,-0.12L0.551,-0.12L0.653,-0.474L0.748,-0.474L0.595,-0L0.504,-0L0.379,-0.354L0.377,-0.354L0.264,-0L0.167,-0L0.011,-0.474Z" style="fill-rule:nonzero;"/>
            </g>
            <g transform="matrix(339.717,0,0,339.717,1150.43,1825.89)">
                <path d="M0.136,-0.204C0.136,-0.183 0.14,-0.165 0.15,-0.148C0.159,-0.13 0.17,-0.116 0.185,-0.104C0.2,-0.092 0.217,-0.083 0.236,-0.076C0.255,-0.069 0.275,-0.066 0.296,-0.066C0.324,-0.066 0.348,-0.073 0.369,-0.086C0.39,-0.098 0.409,-0.116 0.426,-0.137L0.494,-0.085C0.444,-0.02 0.374,0.012 0.284,0.012C0.247,0.012 0.213,0.006 0.183,-0.007C0.152,-0.02 0.127,-0.037 0.106,-0.06C0.085,-0.082 0.068,-0.108 0.057,-0.139C0.046,-0.169 0.04,-0.202 0.04,-0.237C0.04,-0.272 0.046,-0.305 0.059,-0.336C0.071,-0.366 0.088,-0.392 0.11,-0.415C0.131,-0.437 0.157,-0.454 0.187,-0.467C0.217,-0.48 0.25,-0.486 0.285,-0.486C0.327,-0.486 0.363,-0.479 0.392,-0.464C0.421,-0.449 0.444,-0.43 0.463,-0.407C0.482,-0.383 0.495,-0.356 0.504,-0.327C0.512,-0.297 0.516,-0.267 0.516,-0.236L0.516,-0.204L0.136,-0.204ZM0.42,-0.276C0.419,-0.296 0.416,-0.314 0.411,-0.331C0.405,-0.348 0.396,-0.362 0.385,-0.375C0.374,-0.387 0.36,-0.397 0.343,-0.404C0.326,-0.411 0.306,-0.414 0.283,-0.414C0.261,-0.414 0.241,-0.41 0.223,-0.402C0.204,-0.393 0.189,-0.382 0.176,-0.369C0.163,-0.356 0.154,-0.341 0.147,-0.325C0.139,-0.308 0.136,-0.292 0.136,-0.276L0.42,-0.276Z" style="fill-rule:nonzero;"/>
            </g>
            <g transform="matrix(339.717,0,0,339.717,1339.31,1825.89)">
                <path d="M0.075,-0.474L0.165,-0.474L0.165,-0L0.075,-0L0.075,-0.474ZM0.054,-0.644C0.054,-0.662 0.061,-0.678 0.074,-0.691C0.087,-0.704 0.102,-0.71 0.12,-0.71C0.138,-0.71 0.154,-0.704 0.167,-0.691C0.18,-0.678 0.186,-0.662 0.186,-0.644C0.186,-0.626 0.18,-0.611 0.167,-0.598C0.154,-0.584 0.138,-0.578 0.12,-0.578C0.102,-0.578 0.087,-0.584 0.074,-0.598C0.061,-0.611 0.054,-0.626 0.054,-0.644Z" style="fill-rule:nonzero;"/>
            </g>
            <g transform="matrix(339.717,0,0,339.717,1420.84,1825.89)">
                <path d="M0.543,-0.004C0.543,0.032 0.537,0.065 0.525,0.095C0.512,0.124 0.495,0.15 0.472,0.172C0.449,0.193 0.422,0.21 0.39,0.222C0.358,0.234 0.323,0.24 0.284,0.24C0.239,0.24 0.197,0.234 0.16,0.221C0.122,0.208 0.086,0.186 0.052,0.155L0.113,0.079C0.136,0.104 0.162,0.124 0.189,0.137C0.216,0.15 0.247,0.156 0.282,0.156C0.315,0.156 0.343,0.151 0.365,0.142C0.387,0.132 0.405,0.119 0.418,0.104C0.431,0.089 0.44,0.071 0.445,0.052C0.45,0.032 0.453,0.012 0.453,-0.008L0.453,-0.078L0.45,-0.078C0.433,-0.049 0.409,-0.028 0.38,-0.015C0.35,-0.001 0.319,0.006 0.286,0.006C0.251,0.006 0.219,-0 0.19,-0.013C0.16,-0.025 0.134,-0.042 0.113,-0.064C0.092,-0.085 0.075,-0.111 0.063,-0.141C0.051,-0.17 0.045,-0.202 0.045,-0.237C0.045,-0.272 0.051,-0.304 0.062,-0.335C0.073,-0.365 0.09,-0.391 0.111,-0.414C0.132,-0.437 0.157,-0.454 0.187,-0.467C0.216,-0.48 0.249,-0.486 0.286,-0.486C0.318,-0.486 0.349,-0.479 0.38,-0.465C0.41,-0.451 0.434,-0.431 0.451,-0.406L0.453,-0.406L0.453,-0.474L0.543,-0.474L0.543,-0.004ZM0.297,-0.402C0.273,-0.402 0.251,-0.398 0.232,-0.39C0.213,-0.381 0.196,-0.37 0.183,-0.356C0.17,-0.341 0.159,-0.324 0.152,-0.304C0.145,-0.283 0.141,-0.261 0.141,-0.237C0.141,-0.189 0.155,-0.151 0.183,-0.122C0.211,-0.092 0.249,-0.078 0.297,-0.078C0.345,-0.078 0.383,-0.092 0.411,-0.122C0.439,-0.151 0.453,-0.189 0.453,-0.237C0.453,-0.261 0.449,-0.283 0.442,-0.304C0.435,-0.324 0.424,-0.341 0.411,-0.356C0.398,-0.37 0.381,-0.381 0.362,-0.39C0.343,-0.398 0.321,-0.402 0.297,-0.402Z" style="fill-rule:nonzero;"/>
            </g>
            <g transform="matrix(339.717,0,0,339.717,1628.41,1825.89)">
                <path d="M0.068,-0.756L0.158,-0.756L0.158,-0.401L0.16,-0.401C0.171,-0.426 0.191,-0.447 0.219,-0.463C0.247,-0.478 0.279,-0.486 0.316,-0.486C0.339,-0.486 0.361,-0.483 0.382,-0.476C0.403,-0.468 0.421,-0.458 0.437,-0.443C0.452,-0.428 0.465,-0.409 0.474,-0.387C0.483,-0.364 0.488,-0.336 0.488,-0.305L0.488,-0L0.398,-0L0.398,-0.28C0.398,-0.302 0.395,-0.321 0.389,-0.337C0.383,-0.352 0.375,-0.365 0.365,-0.375C0.355,-0.384 0.343,-0.391 0.331,-0.396C0.318,-0.4 0.304,-0.402 0.29,-0.402C0.271,-0.402 0.254,-0.399 0.238,-0.393C0.222,-0.387 0.208,-0.378 0.196,-0.365C0.184,-0.352 0.175,-0.335 0.168,-0.315C0.161,-0.295 0.158,-0.271 0.158,-0.244L0.158,-0L0.068,-0L0.068,-0.756Z" style="fill-rule:nonzero;"/>
            </g>
            <g transform="matrix(339.717,0,0,339.717,1817.29,1825.89)">
                <path d="M0.322,-0.396L0.193,-0.396L0.193,-0.181C0.193,-0.168 0.193,-0.155 0.194,-0.142C0.195,-0.129 0.197,-0.117 0.202,-0.107C0.206,-0.096 0.213,-0.088 0.222,-0.082C0.231,-0.075 0.244,-0.072 0.261,-0.072C0.272,-0.072 0.283,-0.073 0.294,-0.075C0.305,-0.077 0.316,-0.081 0.325,-0.086L0.325,-0.004C0.314,0.002 0.301,0.006 0.284,0.009C0.267,0.011 0.253,0.012 0.244,0.012C0.209,0.012 0.183,0.007 0.164,-0.003C0.145,-0.012 0.131,-0.025 0.122,-0.04C0.113,-0.055 0.107,-0.073 0.106,-0.092C0.104,-0.111 0.103,-0.13 0.103,-0.149L0.103,-0.396L-0.001,-0.396L-0.001,-0.474L0.103,-0.474L0.103,-0.607L0.193,-0.607L0.193,-0.474L0.322,-0.474L0.322,-0.396Z" style="fill-rule:nonzero;"/>
            </g>
            <g transform="matrix(339.717,0,0,339.717,1942.99,1825.89)">
                <path d="M0.32,-0.355C0.309,-0.368 0.296,-0.38 0.281,-0.389C0.265,-0.398 0.246,-0.402 0.223,-0.402C0.202,-0.402 0.183,-0.398 0.168,-0.389C0.152,-0.38 0.144,-0.366 0.144,-0.349C0.144,-0.335 0.149,-0.324 0.158,-0.315C0.167,-0.306 0.177,-0.299 0.19,-0.294C0.202,-0.289 0.215,-0.285 0.229,-0.282C0.243,-0.279 0.255,-0.277 0.265,-0.275C0.284,-0.27 0.303,-0.265 0.32,-0.258C0.337,-0.251 0.351,-0.243 0.364,-0.232C0.376,-0.221 0.386,-0.208 0.393,-0.193C0.4,-0.178 0.403,-0.159 0.403,-0.137C0.403,-0.11 0.397,-0.088 0.386,-0.069C0.375,-0.05 0.36,-0.034 0.342,-0.022C0.324,-0.01 0.304,-0.001 0.281,0.004C0.258,0.009 0.234,0.012 0.211,0.012C0.172,0.012 0.137,0.006 0.108,-0.006C0.078,-0.018 0.051,-0.04 0.028,-0.072L0.096,-0.128C0.111,-0.113 0.127,-0.1 0.145,-0.089C0.163,-0.078 0.185,-0.072 0.211,-0.072C0.222,-0.072 0.234,-0.073 0.246,-0.076C0.257,-0.078 0.268,-0.082 0.277,-0.087C0.286,-0.092 0.293,-0.098 0.299,-0.106C0.304,-0.113 0.307,-0.122 0.307,-0.132C0.307,-0.145 0.303,-0.156 0.295,-0.165C0.286,-0.174 0.276,-0.181 0.265,-0.186C0.253,-0.191 0.241,-0.195 0.228,-0.198C0.215,-0.201 0.203,-0.203 0.193,-0.205C0.174,-0.21 0.155,-0.215 0.138,-0.221C0.121,-0.227 0.105,-0.235 0.092,-0.245C0.079,-0.255 0.068,-0.268 0.06,-0.283C0.052,-0.298 0.048,-0.317 0.048,-0.34C0.048,-0.365 0.053,-0.386 0.064,-0.405C0.074,-0.423 0.088,-0.438 0.105,-0.45C0.122,-0.462 0.141,-0.471 0.163,-0.477C0.184,-0.483 0.206,-0.486 0.228,-0.486C0.26,-0.486 0.291,-0.48 0.32,-0.468C0.349,-0.456 0.373,-0.436 0.39,-0.408L0.32,-0.355Z" style="fill-rule:nonzero;"/>
            </g>
        </g>
        <g transform="matrix(2.4434,0,0,2.4434,-429.02,-608.187)">
            <g transform="matrix(91.6557,0,0,91.6557,673.106,800.459)">
                <path d="M0.374,-0.254L0.353,-0.367C0.338,-0.444 0.302,-0.483 0.244,-0.483C0.212,-0.483 0.186,-0.465 0.167,-0.429C0.141,-0.385 0.129,-0.333 0.129,-0.273C0.129,-0.201 0.141,-0.148 0.165,-0.114C0.19,-0.079 0.216,-0.062 0.244,-0.062C0.287,-0.062 0.321,-0.097 0.344,-0.166L0.374,-0.254ZM0.244,-0.559C0.345,-0.561 0.405,-0.509 0.424,-0.404L0.473,-0.547L0.553,-0.547L0.453,-0.25L0.472,-0.144C0.475,-0.128 0.482,-0.113 0.494,-0.1C0.507,-0.084 0.519,-0.076 0.529,-0.076L0.572,-0.076L0.572,-0L0.519,-0C0.488,-0 0.459,-0.014 0.432,-0.041C0.418,-0.055 0.409,-0.076 0.403,-0.104C0.388,-0.069 0.366,-0.037 0.336,-0.008C0.321,0.006 0.291,0.013 0.244,0.012C0.18,0.012 0.129,-0.013 0.092,-0.062C0.053,-0.113 0.034,-0.183 0.034,-0.273C0.034,-0.37 0.055,-0.44 0.096,-0.484C0.142,-0.533 0.192,-0.558 0.244,-0.559Z" style="fill-rule:nonzero;"/>
            </g>
        </g>
        <g transform="matrix(2.4434,0,0,2.4434,-429.02,-216.834)">
            <g transform="matrix(91.6557,0,0,91.6557,673.106,800.459)">
                <path d="M0.165,-0.034L0.165,0.208L0.074,0.208L0.074,-0.543C0.074,-0.702 0.149,-0.776 0.299,-0.766C0.429,-0.757 0.494,-0.695 0.494,-0.578C0.494,-0.488 0.466,-0.427 0.41,-0.396C0.501,-0.378 0.546,-0.32 0.547,-0.221C0.548,-0.074 0.47,0.003 0.312,0.01C0.269,0.012 0.22,-0.002 0.165,-0.034ZM0.165,-0.167C0.191,-0.121 0.241,-0.095 0.315,-0.088C0.409,-0.08 0.456,-0.124 0.456,-0.22C0.456,-0.312 0.38,-0.354 0.229,-0.347L0.229,-0.43C0.347,-0.428 0.406,-0.476 0.406,-0.575C0.406,-0.637 0.368,-0.67 0.292,-0.674C0.207,-0.679 0.165,-0.634 0.165,-0.541L0.165,-0.167Z" style="fill-rule:nonzero;"/>
            </g>
        </g>
        <g transform="matrix(2.4434,0,0,2.4434,242.974,-216.834)">
            <g transform="matrix(91.6557,0,0,91.6557,673.106,800.459)">
                <path d="M0.165,-0.034L0.165,0.208L0.074,0.208L0.074,-0.543C0.074,-0.702 0.149,-0.776 0.299,-0.766C0.429,-0.757 0.494,-0.695 0.494,-0.578C0.494,-0.488 0.466,-0.427 0.41,-0.396C0.501,-0.378 0.546,-0.32 0.547,-0.221C0.548,-0.074 0.47,0.003 0.312,0.01C0.269,0.012 0.22,-0.002 0.165,-0.034ZM0.165,-0.167C0.191,-0.121 0.241,-0.095 0.315,-0.088C0.409,-0.08 0.456,-0.124 0.456,-0.22C0.456,-0.312 0.38,-0.354 0.229,-0.347L0.229,-0.43C0.347,-0.428 0.406,-0.476 0.406,-0.575C0.406,-0.637 0.368,-0.67 0.292,-0.674C0.207,-0.679 0.165,-0.634 0.165,-0.541L0.165,-0.167Z" style="fill-rule:nonzero;"/>
            </g>
        </g>
        <g transform="matrix(1.19841,0,0,1.19841,-263.952,-922.077)">
            <g transform="matrix(131.813,0,0,131.813,1323.61,2310.4)">
                <path d="M0.27,-0.598L0.14,-0.478L0.084,-0.545L0.281,-0.708L0.366,-0.708L0.366,-0L0.27,-0L0.27,-0.598Z" style="fill-rule:nonzero;"/>
            </g>
        </g>
        <g transform="matrix(1.19841,0,0,1.19841,408.042,-922.077)">
            <g transform="matrix(131.813,0,0,131.813,1323.61,2310.4)">
                <path d="M0.068,-0.474L0.152,-0.474L0.152,-0.4L0.154,-0.4C0.156,-0.407 0.161,-0.415 0.17,-0.425C0.178,-0.435 0.189,-0.444 0.202,-0.454C0.215,-0.463 0.23,-0.47 0.248,-0.477C0.265,-0.483 0.285,-0.486 0.306,-0.486C0.341,-0.486 0.371,-0.479 0.395,-0.464C0.419,-0.449 0.439,-0.427 0.454,-0.398C0.469,-0.427 0.491,-0.449 0.519,-0.464C0.547,-0.479 0.575,-0.486 0.604,-0.486C0.641,-0.486 0.671,-0.48 0.694,-0.468C0.717,-0.456 0.736,-0.44 0.749,-0.421C0.762,-0.401 0.772,-0.379 0.777,-0.354C0.782,-0.329 0.784,-0.303 0.784,-0.276L0.784,-0L0.694,-0L0.694,-0.264C0.694,-0.282 0.693,-0.299 0.691,-0.316C0.688,-0.333 0.683,-0.347 0.676,-0.36C0.669,-0.373 0.658,-0.383 0.645,-0.391C0.632,-0.398 0.614,-0.402 0.592,-0.402C0.549,-0.402 0.518,-0.389 0.499,-0.362C0.48,-0.335 0.471,-0.301 0.471,-0.259L0.471,-0L0.381,-0L0.381,-0.248C0.381,-0.271 0.38,-0.291 0.378,-0.31C0.375,-0.329 0.371,-0.345 0.364,-0.359C0.357,-0.372 0.346,-0.383 0.334,-0.391C0.321,-0.398 0.303,-0.402 0.281,-0.402C0.265,-0.402 0.25,-0.399 0.235,-0.393C0.22,-0.386 0.206,-0.377 0.195,-0.364C0.184,-0.351 0.175,-0.335 0.168,-0.316C0.161,-0.296 0.158,-0.273 0.158,-0.246L0.158,-0L0.068,-0L0.068,-0.474Z" style="fill-rule:nonzero;"/>
            </g>
        </g>
        <g transform="matrix(2.4434,0,0,2.4434,256.591,-1086.16)">
            <g transform="matrix(91.6557,0,0,91.6557,673.106,800.459)">
                <path d="M0.374,-0.254L0.353,-0.367C0.338,-0.444 0.302,-0.483 0.244,-0.483C0.212,-0.483 0.186,-0.465 0.167,-0.429C0.141,-0.385 0.129,-0.333 0.129,-0.273C0.129,-0.201 0.141,-0.148 0.165,-0.114C0.19,-0.079 0.216,-0.062 0.244,-0.062C0.287,-0.062 0.321,-0.097 0.344,-0.166L0.374,-0.254ZM0.244,-0.559C0.345,-0.561 0.405,-0.509 0.424,-0.404L0.473,-0.547L0.553,-0.547L0.453,-0.25L0.472,-0.144C0.475,-0.128 0.482,-0.113 0.494,-0.1C0.507,-0.084 0.519,-0.076 0.529,-0.076L0.572,-0.076L0.572,-0L0.519,-0C0.488,-0 0.459,-0.014 0.432,-0.041C0.418,-0.055 0.409,-0.076 0.403,-0.104C0.388,-0.069 0.366,-0.037 0.336,-0.008C0.321,0.006 0.291,0.013 0.244,0.012C0.18,0.012 0.129,-0.013 0.092,-0.062C0.053,-0.113 0.034,-0.183 0.034,-0.273C0.034,-0.37 0.055,-0.44 0.096,-0.484C0.142,-0.533 0.192,-0.558 0.244,-0.559Z" style="fill-rule:nonzero;"/>
            </g>
        </g>
        <g transform="matrix(2.4434,0,0,2.4434,256.591,-608.187)">
            <g transform="matrix(91.6557,0,0,91.6557,673.106,800.459)">
                <path d="M0.374,-0.254L0.353,-0.367C0.338,-0.444 0.302,-0.483 0.244,-0.483C0.212,-0.483 0.186,-0.465 0.167,-0.429C0.141,-0.385 0.129,-0.333 0.129,-0.273C0.129,-0.201 0.141,-0.148 0.165,-0.114C0.19,-0.079 0.216,-0.062 0.244,-0.062C0.287,-0.062 0.321,-0.097 0.344,-0.166L0.374,-0.254ZM0.244,-0.559C0.345,-0.561 0.405,-0.509 0.424,-0.404L0.473,-0.547L0.553,-0.547L0.453,-0.25L0.472,-0.144C0.475,-0.128 0.482,-0.113 0.494,-0.1C0.507,-0.084 0.519,-0.076 0.529,-0.076L0.572,-0.076L0.572,-0L0.519,-0C0.488,-0 0.459,-0.014 0.432,-0.041C0.418,-0.055 0.409,-0.076 0.403,-0.104C0.388,-0.069 0.366,-0.037 0.336,-0.008C0.321,0.006 0.291,0.013 0.244,0.012C0.18,0.012 0.129,-0.013 0.092,-0.062C0.053,-0.113 0.034,-0.183 0.034,-0.273C0.034,-0.37 0.055,-0.44 0.096,-0.484C0.142,-0.533 0.192,-0.558 0.244,-0.559Z" style="fill-rule:nonzero;"/>
            </g>
        </g>
        <g transform="matrix(2.4434,0,0,2.4434,-465.555,-1099.29)">
            <g transform="matrix(38.7963,0,0,38.7963,748.867,827.92)">
                <path d="M0.27,-0.598L0.14,-0.478L0.084,-0.545L0.281,-0.708L0.366,-0.708L0.366,-0L0.27,-0L0.27,-0.598Z" style="fill-rule:nonzero;"/>
            </g>
            <g transform="matrix(38.7963,0,0,38.7963,770.438,827.92)">
                <path d="M0.13,0.132L0.048,0.132L0.117,-0.114L0.214,-0.114L0.13,0.132Z" style="fill-rule:nonzero;"/>
            </g>
            <g transform="matrix(38.7963,0,0,38.7963,781.223,827.92)">
                <path d="M0.27,-0.598L0.14,-0.478L0.084,-0.545L0.281,-0.708L0.366,-0.708L0.366,-0L0.27,-0L0.27,-0.598Z" style="fill-rule:nonzero;"/>
            </g>
        </g>
        <g transform="matrix(2.4434,0,0,2.4434,-795.473,-1099.29)">
            <g transform="matrix(38.7963,0,0,38.7963,748.867,827.92)">
                <path d="M0.27,-0.598L0.14,-0.478L0.084,-0.545L0.281,-0.708L0.366,-0.708L0.366,-0L0.27,-0L0.27,-0.598Z" style="fill-rule:nonzero;"/>
            </g>
        </g>
        <g transform="matrix(2.4434,0,0,2.4434,-795.473,-617.234)">
            <g transform="matrix(38.7963,0,0,38.7963,748.867,827.92)">
                <path d="M0.27,-0.598L0.14,-0.478L0.084,-0.545L0.281,-0.708L0.366,-0.708L0.366,-0L0.27,-0L0.27,-0.598Z" style="fill-rule:nonzero;"/>
            </g>
        </g>
        <g transform="matrix(2.4434,0,0,2.4434,-465.555,-621.323)">
            <g transform="matrix(38.7963,0,0,38.7963,748.867,827.92)">
                <path d="M0.068,-0.474L0.152,-0.474L0.152,-0.4L0.154,-0.4C0.156,-0.407 0.161,-0.415 0.17,-0.425C0.178,-0.435 0.189,-0.444 0.202,-0.454C0.215,-0.463 0.23,-0.47 0.248,-0.477C0.265,-0.483 0.285,-0.486 0.306,-0.486C0.341,-0.486 0.371,-0.479 0.395,-0.464C0.419,-0.449 0.439,-0.427 0.454,-0.398C0.469,-0.427 0.491,-0.449 0.519,-0.464C0.547,-0.479 0.575,-0.486 0.604,-0.486C0.641,-0.486 0.671,-0.48 0.694,-0.468C0.717,-0.456 0.736,-0.44 0.749,-0.421C0.762,-0.401 0.772,-0.379 0.777,-0.354C0.782,-0.329 0.784,-0.303 0.784,-0.276L0.784,-0L0.694,-0L0.694,-0.264C0.694,-0.282 0.693,-0.299 0.691,-0.316C0.688,-0.333 0.683,-0.347 0.676,-0.36C0.669,-0.373 0.658,-0.383 0.645,-0.391C0.632,-0.398 0.614,-0.402 0.592,-0.402C0.549,-0.402 0.518,-0.389 0.499,-0.362C0.48,-0.335 0.471,-0.301 0.471,-0.259L0.471,-0L0.381,-0L0.381,-0.248C0.381,-0.271 0.38,-0.291 0.378,-0.31C0.375,-0.329 0.371,-0.345 0.364,-0.359C0.357,-0.372 0.346,-0.383 0.334,-0.391C0.321,-0.398 0.303,-0.402 0.281,-0.402C0.265,-0.402 0.25,-0.399 0.235,-0.393C0.22,-0.386 0.206,-0.377 0.195,-0.364C0.184,-0.351 0.175,-0.335 0.168,-0.316C0.161,-0.296 0.158,-0.273 0.158,-0.246L0.158,-0L0.068,-0L0.068,-0.474Z" style="fill-rule:nonzero;"/>
            </g>
            <g transform="matrix(38.7963,0,0,38.7963,781.921,827.92)">
                <path d="M0.13,0.132L0.048,0.132L0.117,-0.114L0.214,-0.114L0.13,0.132Z" style="fill-rule:nonzero;"/>
            </g>
            <g transform="matrix(38.7963,0,0,38.7963,792.707,827.92)">
                <path d="M0.27,-0.598L0.14,-0.478L0.084,-0.545L0.281,-0.708L0.366,-0.708L0.366,-0L0.27,-0L0.27,-0.598Z" style="fill-rule:nonzero;"/>
            </g>
        </g>
        <g transform="matrix(2.4434,0,0,2.4434,220.056,-1099.29)">
            <g transform="matrix(38.7963,0,0,38.7963,748.867,827.92)">
                <path d="M0.27,-0.598L0.14,-0.478L0.084,-0.545L0.281,-0.708L0.366,-0.708L0.366,-0L0.27,-0L0.27,-0.598Z" style="fill-rule:nonzero;"/>
            </g>
            <g transform="matrix(38.7963,0,0,38.7963,770.438,827.92)">
                <path d="M0.13,0.132L0.048,0.132L0.117,-0.114L0.214,-0.114L0.13,0.132Z" style="fill-rule:nonzero;"/>
            </g>
            <g transform="matrix(38.7963,0,0,38.7963,781.223,827.92)">
                <path d="M0.068,-0.474L0.152,-0.474L0.152,-0.4L0.154,-0.4C0.156,-0.407 0.161,-0.415 0.17,-0.425C0.178,-0.435 0.189,-0.444 0.202,-0.454C0.215,-0.463 0.23,-0.47 0.248,-0.477C0.265,-0.483 0.285,-0.486 0.306,-0.486C0.341,-0.486 0.371,-0.479 0.395,-0.464C0.419,-0.449 0.439,-0.427 0.454,-0.398C0.469,-0.427 0.491,-0.449 0.519,-0.464C0.547,-0.479 0.575,-0.486 0.604,-0.486C0.641,-0.486 0.671,-0.48 0.694,-0.468C0.717,-0.456 0.736,-0.44 0.749,-0.421C0.762,-0.401 0.772,-0.379 0.777,-0.354C0.782,-0.329 0.784,-0.303 0.784,-0.276L0.784,-0L0.694,-0L0.694,-0.264C0.694,-0.282 0.693,-0.299 0.691,-0.316C0.688,-0.333 0.683,-0.347 0.676,-0.36C0.669,-0.373 0.658,-0.383 0.645,-0.391C0.632,-0.398 0.614,-0.402 0.592,-0.402C0.549,-0.402 0.518,-0.389 0.499,-0.362C0.48,-0.335 0.471,-0.301 0.471,-0.259L0.471,-0L0.381,-0L0.381,-0.248C0.381,-0.271 0.38,-0.291 0.378,-0.31C0.375,-0.329 0.371,-0.345 0.364,-0.359C0.357,-0.372 0.346,-0.383 0.334,-0.391C0.321,-0.398 0.303,-0.402 0.281,-0.402C0.265,-0.402 0.25,-0.399 0.235,-0.393C0.22,-0.386 0.206,-0.377 0.195,-0.364C0.184,-0.351 0.175,-0.335 0.168,-0.316C0.161,-0.296 0.158,-0.273 0.158,-0.246L0.158,-0L0.068,-0L0.068,-0.474Z" style="fill-rule:nonzero;"/>
            </g>
        </g>
        <g transform="matrix(2.4434,0,0,2.4434,220.056,-621.323)">
            <g transform="matrix(38.7963,0,0,38.7963,748.867,827.92)">
                <path d="M0.068,-0.474L0.152,-0.474L0.152,-0.4L0.154,-0.4C0.156,-0.407 0.161,-0.415 0.17,-0.425C0.178,-0.435 0.189,-0.444 0.202,-0.454C0.215,-0.463 0.23,-0.47 0.248,-0.477C0.265,-0.483 0.285,-0.486 0.306,-0.486C0.341,-0.486 0.371,-0.479 0.395,-0.464C0.419,-0.449 0.439,-0.427 0.454,-0.398C0.469,-0.427 0.491,-0.449 0.519,-0.464C0.547,-0.479 0.575,-0.486 0.604,-0.486C0.641,-0.486 0.671,-0.48 0.694,-0.468C0.717,-0.456 0.736,-0.44 0.749,-0.421C0.762,-0.401 0.772,-0.379 0.777,-0.354C0.782,-0.329 0.784,-0.303 0.784,-0.276L0.784,-0L0.694,-0L0.694,-0.264C0.694,-0.282 0.693,-0.299 0.691,-0.316C0.688,-0.333 0.683,-0.347 0.676,-0.36C0.669,-0.373 0.658,-0.383 0.645,-0.391C0.632,-0.398 0.614,-0.402 0.592,-0.402C0.549,-0.402 0.518,-0.389 0.499,-0.362C0.48,-0.335 0.471,-0.301 0.471,-0.259L0.471,-0L0.381,-0L0.381,-0.248C0.381,-0.271 0.38,-0.291 0.378,-0.31C0.375,-0.329 0.371,-0.345 0.364,-0.359C0.357,-0.372 0.346,-0.383 0.334,-0.391C0.321,-0.398 0.303,-0.402 0.281,-0.402C0.265,-0.402 0.25,-0.399 0.235,-0.393C0.22,-0.386 0.206,-0.377 0.195,-0.364C0.184,-0.351 0.175,-0.335 0.168,-0.316C0.161,-0.296 0.158,-0.273 0.158,-0.246L0.158,-0L0.068,-0L0.068,-0.474Z" style="fill-rule:nonzero;"/>
            </g>
            <g transform="matrix(38.7963,0,0,38.7963,781.921,827.92)">
                <path d="M0.13,0.132L0.048,0.132L0.117,-0.114L0.214,-0.114L0.13,0.132Z" style="fill-rule:nonzero;"/>
            </g>
            <g transform="matrix(38.7963,0,0,38.7963,792.707,827.92)">
                <path d="M0.068,-0.474L0.152,-0.474L0.152,-0.4L0.154,-0.4C0.156,-0.407 0.161,-0.415 0.17,-0.425C0.178,-0.435 0.189,-0.444 0.202,-0.454C0.215,-0.463 0.23,-0.47 0.248,-0.477C0.265,-0.483 0.285,-0.486 0.306,-0.486C0.341,-0.486 0.371,-0.479 0.395,-0.464C0.419,-0.449 0.439,-0.427 0.454,-0.398C0.469,-0.427 0.491,-0.449 0.519,-0.464C0.547,-0.479 0.575,-0.486 0.604,-0.486C0.641,-0.486 0.671,-0.48 0.694,-0.468C0.717,-0.456 0.736,-0.44 0.749,-0.421C0.762,-0.401 0.772,-0.379 0.777,-0.354C0.782,-0.329 0.784,-0.303 0.784,-0.276L0.784,-0L0.694,-0L0.694,-0.264C0.694,-0.282 0.693,-0.299 0.691,-0.316C0.688,-0.333 0.683,-0.347 0.676,-0.36C0.669,-0.373 0.658,-0.383 0.645,-0.391C0.632,-0.398 0.614,-0.402 0.592,-0.402C0.549,-0.402 0.518,-0.389 0.499,-0.362C0.48,-0.335 0.471,-0.301 0.471,-0.259L0.471,-0L0.381,-0L0.381,-0.248C0.381,-0.271 0.38,-0.291 0.378,-0.31C0.375,-0.329 0.371,-0.345 0.364,-0.359C0.357,-0.372 0.346,-0.383 0.334,-0.391C0.321,-0.398 0.303,-0.402 0.281,-0.402C0.265,-0.402 0.25,-0.399 0.235,-0.393C0.22,-0.386 0.206,-0.377 0.195,-0.364C0.184,-0.351 0.175,-0.335 0.168,-0.316C0.161,-0.296 0.158,-0.273 0.158,-0.246L0.158,-0L0.068,-0L0.068,-0.474Z" style="fill-rule:nonzero;"/>
            </g>
        </g>
        <g transform="matrix(2.0627,0,0,2.0627,-549.299,-934.892)">
            <g transform="matrix(144.855,0,0,144.855,1015.56,860.238)">
                <path d="M0.167,0.006C0.149,0.006 0.134,-0 0.121,-0.014C0.108,-0.027 0.101,-0.042 0.101,-0.06C0.101,-0.078 0.108,-0.094 0.121,-0.107C0.134,-0.119 0.149,-0.126 0.167,-0.126C0.185,-0.126 0.201,-0.119 0.214,-0.107C0.227,-0.094 0.233,-0.078 0.233,-0.06C0.233,-0.042 0.227,-0.027 0.214,-0.014C0.201,-0 0.185,0.006 0.167,0.006ZM0.5,0.006C0.482,0.006 0.467,-0 0.454,-0.014C0.44,-0.027 0.434,-0.042 0.434,-0.06C0.434,-0.078 0.44,-0.094 0.454,-0.107C0.467,-0.119 0.482,-0.126 0.5,-0.126C0.518,-0.126 0.534,-0.119 0.547,-0.107C0.56,-0.094 0.566,-0.078 0.566,-0.06C0.566,-0.042 0.56,-0.027 0.547,-0.014C0.534,-0 0.518,0.006 0.5,0.006ZM0.833,0.006C0.815,0.006 0.8,-0 0.787,-0.014C0.774,-0.027 0.767,-0.042 0.767,-0.06C0.767,-0.078 0.774,-0.094 0.787,-0.107C0.8,-0.119 0.815,-0.126 0.833,-0.126C0.851,-0.126 0.866,-0.119 0.88,-0.107C0.893,-0.094 0.899,-0.078 0.899,-0.06C0.899,-0.042 0.893,-0.027 0.88,-0.014C0.866,-0 0.851,0.006 0.833,0.006Z" style="fill-rule:nonzero;"/>
            </g>
        </g>
        <g transform="matrix(2.0627,0,0,2.0627,-549.299,-467.771)">
            <g transform="matrix(144.855,0,0,144.855,1015.56,860.238)">
                <path d="M0.167,0.006C0.149,0.006 0.134,-0 0.121,-0.014C0.108,-0.027 0.101,-0.042 0.101,-0.06C0.101,-0.078 0.108,-0.094 0.121,-0.107C0.134,-0.119 0.149,-0.126 0.167,-0.126C0.185,-0.126 0.201,-0.119 0.214,-0.107C0.227,-0.094 0.233,-0.078 0.233,-0.06C0.233,-0.042 0.227,-0.027 0.214,-0.014C0.201,-0 0.185,0.006 0.167,0.006ZM0.5,0.006C0.482,0.006 0.467,-0 0.454,-0.014C0.44,-0.027 0.434,-0.042 0.434,-0.06C0.434,-0.078 0.44,-0.094 0.454,-0.107C0.467,-0.119 0.482,-0.126 0.5,-0.126C0.518,-0.126 0.534,-0.119 0.547,-0.107C0.56,-0.094 0.566,-0.078 0.566,-0.06C0.566,-0.042 0.56,-0.027 0.547,-0.014C0.534,-0 0.518,0.006 0.5,0.006ZM0.833,0.006C0.815,0.006 0.8,-0 0.787,-0.014C0.774,-0.027 0.767,-0.042 0.767,-0.06C0.767,-0.078 0.774,-0.094 0.787,-0.107C0.8,-0.119 0.815,-0.126 0.833,-0.126C0.851,-0.126 0.866,-0.119 0.88,-0.107C0.893,-0.094 0.899,-0.078 0.899,-0.06C0.899,-0.042 0.893,-0.027 0.88,-0.014C0.866,-0 0.851,0.006 0.833,0.006Z" style="fill-rule:nonzero;"/>
            </g>
        </g>
        <g transform="matrix(2.0627,0,0,2.0627,-549.299,-87.3767)">
            <g transform="matrix(144.855,0,0,144.855,1015.56,860.238)">
                <path d="M0.167,0.006C0.149,0.006 0.134,-0 0.121,-0.014C0.108,-0.027 0.101,-0.042 0.101,-0.06C0.101,-0.078 0.108,-0.094 0.121,-0.107C0.134,-0.119 0.149,-0.126 0.167,-0.126C0.185,-0.126 0.201,-0.119 0.214,-0.107C0.227,-0.094 0.233,-0.078 0.233,-0.06C0.233,-0.042 0.227,-0.027 0.214,-0.014C0.201,-0 0.185,0.006 0.167,0.006ZM0.5,0.006C0.482,0.006 0.467,-0 0.454,-0.014C0.44,-0.027 0.434,-0.042 0.434,-0.06C0.434,-0.078 0.44,-0.094 0.454,-0.107C0.467,-0.119 0.482,-0.126 0.5,-0.126C0.518,-0.126 0.534,-0.119 0.547,-0.107C0.56,-0.094 0.566,-0.078 0.566,-0.06C0.566,-0.042 0.56,-0.027 0.547,-0.014C0.534,-0 0.518,0.006 0.5,0.006ZM0.833,0.006C0.815,0.006 0.8,-0 0.787,-0.014C0.774,-0.027 0.767,-0.042 0.767,-0.06C0.767,-0.078 0.774,-0.094 0.787,-0.107C0.8,-0.119 0.815,-0.126 0.833,-0.126C0.851,-0.126 0.866,-0.119 0.88,-0.107C0.893,-0.094 0.899,-0.078 0.899,-0.06C0.899,-0.042 0.893,-0.027 0.88,-0.014C0.866,-0 0.851,0.006 0.833,0.006Z" style="fill-rule:nonzero;"/>
            </g>
        </g>
        <g transform="matrix(1.45855,1.45855,-1.45855,1.45855,1299.54,-1729.96)">
            <g transform="matrix(144.855,0,0,144.855,1015.56,860.238)">
                <path d="M0.167,0.006C0.149,0.006 0.134,-0 0.121,-0.014C0.108,-0.027 0.101,-0.042 0.101,-0.06C0.101,-0.078 0.108,-0.094 0.121,-0.107C0.134,-0.119 0.149,-0.126 0.167,-0.126C0.185,-0.126 0.201,-0.119 0.214,-0.107C0.227,-0.094 0.233,-0.078 0.233,-0.06C0.233,-0.042 0.227,-0.027 0.214,-0.014C0.201,-0 0.185,0.006 0.167,0.006ZM0.5,0.006C0.482,0.006 0.467,-0 0.454,-0.014C0.44,-0.027 0.434,-0.042 0.434,-0.06C0.434,-0.078 0.44,-0.094 0.454,-0.107C0.467,-0.119 0.482,-0.126 0.5,-0.126C0.518,-0.126 0.534,-0.119 0.547,-0.107C0.56,-0.094 0.566,-0.078 0.566,-0.06C0.566,-0.042 0.56,-0.027 0.547,-0.014C0.534,-0 0.518,0.006 0.5,0.006ZM0.833,0.006C0.815,0.006 0.8,-0 0.787,-0.014C0.774,-0.027 0.767,-0.042 0.767,-0.06C0.767,-0.078 0.774,-0.094 0.787,-0.107C0.8,-0.119 0.815,-0.126 0.833,-0.126C0.851,-0.126 0.866,-0.119 0.88,-0.107C0.893,-0.094 0.899,-0.078 0.899,-0.06C0.899,-0.042 0.893,-0.027 0.88,-0.014C0.866,-0 0.851,0.006 0.833,0.006Z" style="fill-rule:nonzero;"/>
            </g>
        </g>
        <g transform="matrix(1.26304e-16,-2.0627,2.0627,1.26304e-16,-480.401,3328.47)">
            <g transform="matrix(144.855,0,0,144.855,1015.56,860.238)">
                <path d="M0.167,0.006C0.149,0.006 0.134,-0 0.121,-0.014C0.108,-0.027 0.101,-0.042 0.101,-0.06C0.101,-0.078 0.108,-0.094 0.121,-0.107C0.134,-0.119 0.149,-0.126 0.167,-0.126C0.185,-0.126 0.201,-0.119 0.214,-0.107C0.227,-0.094 0.233,-0.078 0.233,-0.06C0.233,-0.042 0.227,-0.027 0.214,-0.014C0.201,-0 0.185,0.006 0.167,0.006ZM0.5,0.006C0.482,0.006 0.467,-0 0.454,-0.014C0.44,-0.027 0.434,-0.042 0.434,-0.06C0.434,-0.078 0.44,-0.094 0.454,-0.107C0.467,-0.119 0.482,-0.126 0.5,-0.126C0.518,-0.126 0.534,-0.119 0.547,-0.107C0.56,-0.094 0.566,-0.078 0.566,-0.06C0.566,-0.042 0.56,-0.027 0.547,-0.014C0.534,-0 0.518,0.006 0.5,0.006ZM0.833,0.006C0.815,0.006 0.8,-0 0.787,-0.014C0.774,-0.027 0.767,-0.042 0.767,-0.06C0.767,-0.078 0.774,-0.094 0.787,-0.107C0.8,-0.119 0.815,-0.126 0.833,-0.126C0.851,-0.126 0.866,-0.119 0.88,-0.107C0.893,-0.094 0.899,-0.078 0.899,-0.06C0.899,-0.042 0.893,-0.027 0.88,-0.014C0.866,-0 0.851,0.006 0.833,0.006Z" style="fill-rule:nonzero;"/>
            </g>
        </g>
        <g transform="matrix(1.26304e-16,-2.0627,2.0627,1.26304e-16,-736.98,3328.47)">
            <g transform="matrix(144.855,0,0,144.855,1015.56,860.238)">
                <path d="M0.167,0.006C0.149,0.006 0.134,-0 0.121,-0.014C0.108,-0.027 0.101,-0.042 0.101,-0.06C0.101,-0.078 0.108,-0.094 0.121,-0.107C0.134,-0.119 0.149,-0.126 0.167,-0.126C0.185,-0.126 0.201,-0.119 0.214,-0.107C0.227,-0.094 0.233,-0.078 0.233,-0.06C0.233,-0.042 0.227,-0.027 0.214,-0.014C0.201,-0 0.185,0.006 0.167,0.006ZM0.5,0.006C0.482,0.006 0.467,-0 0.454,-0.014C0.44,-0.027 0.434,-0.042 0.434,-0.06C0.434,-0.078 0.44,-0.094 0.454,-0.107C0.467,-0.119 0.482,-0.126 0.5,-0.126C0.518,-0.126 0.534,-0.119 0.547,-0.107C0.56,-0.094 0.566,-0.078 0.566,-0.06C0.566,-0.042 0.56,-0.027 0.547,-0.014C0.534,-0 0.518,0.006 0.5,0.006ZM0.833,0.006C0.815,0.006 0.8,-0 0.787,-0.014C0.774,-0.027 0.767,-0.042 0.767,-0.06C0.767,-0.078 0.774,-0.094 0.787,-0.107C0.8,-0.119 0.815,-0.126 0.833,-0.126C0.851,-0.126 0.866,-0.119 0.88,-0.107C0.893,-0.094 0.899,-0.078 0.899,-0.06C0.899,-0.042 0.893,-0.027 0.88,-0.014C0.866,-0 0.851,0.006 0.833,0.006Z" style="fill-rule:nonzero;"/>
            </g>
        </g>
        <g transform="matrix(1.26304e-16,-2.0627,2.0627,1.26304e-16,207.717,3322.31)">
            <g transform="matrix(144.855,0,0,144.855,1015.56,860.238)">
                <path d="M0.167,0.006C0.149,0.006 0.134,-0 0.121,-0.014C0.108,-0.027 0.101,-0.042 0.101,-0.06C0.101,-0.078 0.108,-0.094 0.121,-0.107C0.134,-0.119 0.149,-0.126 0.167,-0.126C0.185,-0.126 0.201,-0.119 0.214,-0.107C0.227,-0.094 0.233,-0.078 0.233,-0.06C0.233,-0.042 0.227,-0.027 0.214,-0.014C0.201,-0 0.185,0.006 0.167,0.006ZM0.5,0.006C0.482,0.006 0.467,-0 0.454,-0.014C0.44,-0.027 0.434,-0.042 0.434,-0.06C0.434,-0.078 0.44,-0.094 0.454,-0.107C0.467,-0.119 0.482,-0.126 0.5,-0.126C0.518,-0.126 0.534,-0.119 0.547,-0.107C0.56,-0.094 0.566,-0.078 0.566,-0.06C0.566,-0.042 0.56,-0.027 0.547,-0.014C0.534,-0 0.518,0.006 0.5,0.006ZM0.833,0.006C0.815,0.006 0.8,-0 0.787,-0.014C0.774,-0.027 0.767,-0.042 0.767,-0.06C0.767,-0.078 0.774,-0.094 0.787,-0.107C0.8,-0.119 0.815,-0.126 0.833,-0.126C0.851,-0.126 0.866,-0.119 0.88,-0.107C0.893,-0.094 0.899,-0.078 0.899,-0.06C0.899,-0.042 0.893,-0.027 0.88,-0.014C0.866,-0 0.851,0.006 0.833,0.006Z" style="fill-rule:nonzero;"/>
            </g>
        </g>
        <g transform="matrix(2.57587,0,0,0.310489,-2217.47,495.156)">
            <rect x="1325.31" y="709.692" width="416.245" height="737.656" style="fill:rgb(224,0,255);fill-opacity:0;stroke:rgb(174,23,236);stroke-width:5.57px;"/>
        </g>
        <g transform="matrix(1,0,0,1,-1.79903,-93.0725)">
            <g transform="matrix(97.1666,0,0,97.1666,1322.27,656.74)">
                <path d="M0.011,-0.474L0.112,-0.474L0.219,-0.12L0.221,-0.12L0.334,-0.474L0.429,-0.474L0.549,-0.12L0.551,-0.12L0.653,-0.474L0.748,-0.474L0.595,-0L0.504,-0L0.379,-0.354L0.377,-0.354L0.264,-0L0.167,-0L0.011,-0.474Z" style="fill:rgb(174,23,236);fill-rule:nonzero;"/>
            </g>
            <g transform="matrix(97.1666,0,0,97.1666,1396.02,656.74)">
                <path d="M0.136,-0.204C0.136,-0.183 0.14,-0.165 0.15,-0.148C0.159,-0.13 0.17,-0.116 0.185,-0.104C0.2,-0.092 0.217,-0.083 0.236,-0.076C0.255,-0.069 0.275,-0.066 0.296,-0.066C0.324,-0.066 0.348,-0.073 0.369,-0.086C0.39,-0.098 0.409,-0.116 0.426,-0.137L0.494,-0.085C0.444,-0.02 0.374,0.012 0.284,0.012C0.247,0.012 0.213,0.006 0.183,-0.007C0.152,-0.02 0.127,-0.037 0.106,-0.06C0.085,-0.082 0.068,-0.108 0.057,-0.139C0.046,-0.169 0.04,-0.202 0.04,-0.237C0.04,-0.272 0.046,-0.305 0.059,-0.336C0.071,-0.366 0.088,-0.392 0.11,-0.415C0.131,-0.437 0.157,-0.454 0.187,-0.467C0.217,-0.48 0.25,-0.486 0.285,-0.486C0.327,-0.486 0.363,-0.479 0.392,-0.464C0.421,-0.449 0.444,-0.43 0.463,-0.407C0.482,-0.383 0.495,-0.356 0.504,-0.327C0.512,-0.297 0.516,-0.267 0.516,-0.236L0.516,-0.204L0.136,-0.204ZM0.42,-0.276C0.419,-0.296 0.416,-0.314 0.411,-0.331C0.405,-0.348 0.396,-0.362 0.385,-0.375C0.374,-0.387 0.36,-0.397 0.343,-0.404C0.326,-0.411 0.306,-0.414 0.283,-0.414C0.261,-0.414 0.241,-0.41 0.223,-0.402C0.204,-0.393 0.189,-0.382 0.176,-0.369C0.163,-0.356 0.154,-0.341 0.147,-0.325C0.139,-0.308 0.136,-0.292 0.136,-0.276L0.42,-0.276Z" style="fill:rgb(174,23,236);fill-rule:nonzero;"/>
            </g>
            <g transform="matrix(97.1666,0,0,97.1666,1450.04,656.74)">
                <path d="M0.075,-0.474L0.165,-0.474L0.165,-0L0.075,-0L0.075,-0.474ZM0.054,-0.644C0.054,-0.662 0.061,-0.678 0.074,-0.691C0.087,-0.704 0.102,-0.71 0.12,-0.71C0.138,-0.71 0.154,-0.704 0.167,-0.691C0.18,-0.678 0.186,-0.662 0.186,-0.644C0.186,-0.626 0.18,-0.611 0.167,-0.598C0.154,-0.584 0.138,-0.578 0.12,-0.578C0.102,-0.578 0.087,-0.584 0.074,-0.598C0.061,-0.611 0.054,-0.626 0.054,-0.644Z" style="fill:rgb(174,23,236);fill-rule:nonzero;"/>
            </g>
            <g transform="matrix(97.1666,0,0,97.1666,1473.36,656.74)">
                <path d="M0.543,-0.004C0.543,0.032 0.537,0.065 0.525,0.095C0.512,0.124 0.495,0.15 0.472,0.172C0.449,0.193 0.422,0.21 0.39,0.222C0.358,0.234 0.323,0.24 0.284,0.24C0.239,0.24 0.197,0.234 0.16,0.221C0.122,0.208 0.086,0.186 0.052,0.155L0.113,0.079C0.136,0.104 0.162,0.124 0.189,0.137C0.216,0.15 0.247,0.156 0.282,0.156C0.315,0.156 0.343,0.151 0.365,0.142C0.387,0.132 0.405,0.119 0.418,0.104C0.431,0.089 0.44,0.071 0.445,0.052C0.45,0.032 0.453,0.012 0.453,-0.008L0.453,-0.078L0.45,-0.078C0.433,-0.049 0.409,-0.028 0.38,-0.015C0.35,-0.001 0.319,0.006 0.286,0.006C0.251,0.006 0.219,-0 0.19,-0.013C0.16,-0.025 0.134,-0.042 0.113,-0.064C0.092,-0.085 0.075,-0.111 0.063,-0.141C0.051,-0.17 0.045,-0.202 0.045,-0.237C0.045,-0.272 0.051,-0.304 0.062,-0.335C0.073,-0.365 0.09,-0.391 0.111,-0.414C0.132,-0.437 0.157,-0.454 0.187,-0.467C0.216,-0.48 0.249,-0.486 0.286,-0.486C0.318,-0.486 0.349,-0.479 0.38,-0.465C0.41,-0.451 0.434,-0.431 0.451,-0.406L0.453,-0.406L0.453,-0.474L0.543,-0.474L0.543,-0.004ZM0.297,-0.402C0.273,-0.402 0.251,-0.398 0.232,-0.39C0.213,-0.381 0.196,-0.37 0.183,-0.356C0.17,-0.341 0.159,-0.324 0.152,-0.304C0.145,-0.283 0.141,-0.261 0.141,-0.237C0.141,-0.189 0.155,-0.151 0.183,-0.122C0.211,-0.092 0.249,-0.078 0.297,-0.078C0.345,-0.078 0.383,-0.092 0.411,-0.122C0.439,-0.151 0.453,-0.189 0.453,-0.237C0.453,-0.261 0.449,-0.283 0.442,-0.304C0.435,-0.324 0.424,-0.341 0.411,-0.356C0.398,-0.37 0.381,-0.381 0.362,-0.39C0.343,-0.398 0.321,-0.402 0.297,-0.402Z" style="fill:rgb(174,23,236);fill-rule:nonzero;"/>
            </g>
            <g transform="matrix(97.1666,0,0,97.1666,1532.73,656.74)">
                <path d="M0.068,-0.756L0.158,-0.756L0.158,-0.401L0.16,-0.401C0.171,-0.426 0.191,-0.447 0.219,-0.463C0.247,-0.478 0.279,-0.486 0.316,-0.486C0.339,-0.486 0.361,-0.483 0.382,-0.476C0.403,-0.468 0.421,-0.458 0.437,-0.443C0.452,-0.428 0.465,-0.409 0.474,-0.387C0.483,-0.364 0.488,-0.336 0.488,-0.305L0.488,-0L0.398,-0L0.398,-0.28C0.398,-0.302 0.395,-0.321 0.389,-0.337C0.383,-0.352 0.375,-0.365 0.365,-0.375C0.355,-0.384 0.343,-0.391 0.331,-0.396C0.318,-0.4 0.304,-0.402 0.29,-0.402C0.271,-0.402 0.254,-0.399 0.238,-0.393C0.222,-0.387 0.208,-0.378 0.196,-0.365C0.184,-0.352 0.175,-0.335 0.168,-0.315C0.161,-0.295 0.158,-0.271 0.158,-0.244L0.158,-0L0.068,-0L0.068,-0.756Z" style="fill:rgb(174,23,236);fill-rule:nonzero;"/>
            </g>
            <g transform="matrix(97.1666,0,0,97.1666,1586.75,656.74)">
                <path d="M0.322,-0.396L0.193,-0.396L0.193,-0.181C0.193,-0.168 0.193,-0.155 0.194,-0.142C0.195,-0.129 0.197,-0.117 0.202,-0.107C0.206,-0.096 0.213,-0.088 0.222,-0.082C0.231,-0.075 0.244,-0.072 0.261,-0.072C0.272,-0.072 0.283,-0.073 0.294,-0.075C0.305,-0.077 0.316,-0.081 0.325,-0.086L0.325,-0.004C0.314,0.002 0.301,0.006 0.284,0.009C0.267,0.011 0.253,0.012 0.244,0.012C0.209,0.012 0.183,0.007 0.164,-0.003C0.145,-0.012 0.131,-0.025 0.122,-0.04C0.113,-0.055 0.107,-0.073 0.106,-0.092C0.104,-0.111 0.103,-0.13 0.103,-0.149L0.103,-0.396L-0.001,-0.396L-0.001,-0.474L0.103,-0.474L0.103,-0.607L0.193,-0.607L0.193,-0.474L0.322,-0.474L0.322,-0.396Z" style="fill:rgb(174,23,236);fill-rule:nonzero;"/>
            </g>
            <g transform="matrix(97.1666,0,0,97.1666,1622.71,656.74)">
                <path d="M0.32,-0.355C0.309,-0.368 0.296,-0.38 0.281,-0.389C0.265,-0.398 0.246,-0.402 0.223,-0.402C0.202,-0.402 0.183,-0.398 0.168,-0.389C0.152,-0.38 0.144,-0.366 0.144,-0.349C0.144,-0.335 0.149,-0.324 0.158,-0.315C0.167,-0.306 0.177,-0.299 0.19,-0.294C0.202,-0.289 0.215,-0.285 0.229,-0.282C0.243,-0.279 0.255,-0.277 0.265,-0.275C0.284,-0.27 0.303,-0.265 0.32,-0.258C0.337,-0.251 0.351,-0.243 0.364,-0.232C0.376,-0.221 0.386,-0.208 0.393,-0.193C0.4,-0.178 0.403,-0.159 0.403,-0.137C0.403,-0.11 0.397,-0.088 0.386,-0.069C0.375,-0.05 0.36,-0.034 0.342,-0.022C0.324,-0.01 0.304,-0.001 0.281,0.004C0.258,0.009 0.234,0.012 0.211,0.012C0.172,0.012 0.137,0.006 0.108,-0.006C0.078,-0.018 0.051,-0.04 0.028,-0.072L0.096,-0.128C0.111,-0.113 0.127,-0.1 0.145,-0.089C0.163,-0.078 0.185,-0.072 0.211,-0.072C0.222,-0.072 0.234,-0.073 0.246,-0.076C0.257,-0.078 0.268,-0.082 0.277,-0.087C0.286,-0.092 0.293,-0.098 0.299,-0.106C0.304,-0.113 0.307,-0.122 0.307,-0.132C0.307,-0.145 0.303,-0.156 0.295,-0.165C0.286,-0.174 0.276,-0.181 0.265,-0.186C0.253,-0.191 0.241,-0.195 0.228,-0.198C0.215,-0.201 0.203,-0.203 0.193,-0.205C0.174,-0.21 0.155,-0.215 0.138,-0.221C0.121,-0.227 0.105,-0.235 0.092,-0.245C0.079,-0.255 0.068,-0.268 0.06,-0.283C0.052,-0.298 0.048,-0.317 0.048,-0.34C0.048,-0.365 0.053,-0.386 0.064,-0.405C0.074,-0.423 0.088,-0.438 0.105,-0.45C0.122,-0.462 0.141,-0.471 0.163,-0.477C0.184,-0.483 0.206,-0.486 0.228,-0.486C0.26,-0.486 0.291,-0.48 0.32,-0.468C0.349,-0.456 0.373,-0.436 0.39,-0.408L0.32,-0.355Z" style="fill:rgb(174,23,236);fill-rule:nonzero;"/>
            </g>
            <g transform="matrix(97.1666,0,0,97.1666,1692.86,656.74)">
                <path d="M0.488,-0L0.398,-0L0.398,-0.073L0.396,-0.073C0.385,-0.048 0.365,-0.027 0.337,-0.012C0.309,0.004 0.277,0.012 0.24,0.012C0.217,0.012 0.195,0.009 0.174,0.002C0.153,-0.006 0.135,-0.016 0.12,-0.031C0.104,-0.046 0.091,-0.065 0.082,-0.088C0.073,-0.111 0.068,-0.138 0.068,-0.169L0.068,-0.474L0.158,-0.474L0.158,-0.194C0.158,-0.172 0.161,-0.153 0.167,-0.138C0.173,-0.122 0.181,-0.109 0.191,-0.1C0.201,-0.09 0.213,-0.083 0.226,-0.079C0.239,-0.074 0.252,-0.072 0.266,-0.072C0.285,-0.072 0.302,-0.075 0.318,-0.081C0.334,-0.087 0.348,-0.096 0.36,-0.11C0.372,-0.123 0.381,-0.139 0.388,-0.159C0.395,-0.179 0.398,-0.203 0.398,-0.23L0.398,-0.474L0.488,-0.474L0.488,-0Z" style="fill:rgb(174,23,236);fill-rule:nonzero;"/>
            </g>
            <g transform="matrix(97.1666,0,0,97.1666,1746.89,656.74)">
                <path d="M0.32,-0.355C0.309,-0.368 0.296,-0.38 0.281,-0.389C0.265,-0.398 0.246,-0.402 0.223,-0.402C0.202,-0.402 0.183,-0.398 0.168,-0.389C0.152,-0.38 0.144,-0.366 0.144,-0.349C0.144,-0.335 0.149,-0.324 0.158,-0.315C0.167,-0.306 0.177,-0.299 0.19,-0.294C0.202,-0.289 0.215,-0.285 0.229,-0.282C0.243,-0.279 0.255,-0.277 0.265,-0.275C0.284,-0.27 0.303,-0.265 0.32,-0.258C0.337,-0.251 0.351,-0.243 0.364,-0.232C0.376,-0.221 0.386,-0.208 0.393,-0.193C0.4,-0.178 0.403,-0.159 0.403,-0.137C0.403,-0.11 0.397,-0.088 0.386,-0.069C0.375,-0.05 0.36,-0.034 0.342,-0.022C0.324,-0.01 0.304,-0.001 0.281,0.004C0.258,0.009 0.234,0.012 0.211,0.012C0.172,0.012 0.137,0.006 0.108,-0.006C0.078,-0.018 0.051,-0.04 0.028,-0.072L0.096,-0.128C0.111,-0.113 0.127,-0.1 0.145,-0.089C0.163,-0.078 0.185,-0.072 0.211,-0.072C0.222,-0.072 0.234,-0.073 0.246,-0.076C0.257,-0.078 0.268,-0.082 0.277,-0.087C0.286,-0.092 0.293,-0.098 0.299,-0.106C0.304,-0.113 0.307,-0.122 0.307,-0.132C0.307,-0.145 0.303,-0.156 0.295,-0.165C0.286,-0.174 0.276,-0.181 0.265,-0.186C0.253,-0.191 0.241,-0.195 0.228,-0.198C0.215,-0.201 0.203,-0.203 0.193,-0.205C0.174,-0.21 0.155,-0.215 0.138,-0.221C0.121,-0.227 0.105,-0.235 0.092,-0.245C0.079,-0.255 0.068,-0.268 0.06,-0.283C0.052,-0.298 0.048,-0.317 0.048,-0.34C0.048,-0.365 0.053,-0.386 0.064,-0.405C0.074,-0.423 0.088,-0.438 0.105,-0.45C0.122,-0.462 0.141,-0.471 0.163,-0.477C0.184,-0.483 0.206,-0.486 0.228,-0.486C0.26,-0.486 0.291,-0.48 0.32,-0.468C0.349,-0.456 0.373,-0.436 0.39,-0.408L0.32,-0.355Z" style="fill:rgb(174,23,236);fill-rule:nonzero;"/>
            </g>
            <g transform="matrix(97.1666,0,0,97.1666,1790.03,656.74)">
                <path d="M0.136,-0.204C0.136,-0.183 0.14,-0.165 0.15,-0.148C0.159,-0.13 0.17,-0.116 0.185,-0.104C0.2,-0.092 0.217,-0.083 0.236,-0.076C0.255,-0.069 0.275,-0.066 0.296,-0.066C0.324,-0.066 0.348,-0.073 0.369,-0.086C0.39,-0.098 0.409,-0.116 0.426,-0.137L0.494,-0.085C0.444,-0.02 0.374,0.012 0.284,0.012C0.247,0.012 0.213,0.006 0.183,-0.007C0.152,-0.02 0.127,-0.037 0.106,-0.06C0.085,-0.082 0.068,-0.108 0.057,-0.139C0.046,-0.169 0.04,-0.202 0.04,-0.237C0.04,-0.272 0.046,-0.305 0.059,-0.336C0.071,-0.366 0.088,-0.392 0.11,-0.415C0.131,-0.437 0.157,-0.454 0.187,-0.467C0.217,-0.48 0.25,-0.486 0.285,-0.486C0.327,-0.486 0.363,-0.479 0.392,-0.464C0.421,-0.449 0.444,-0.43 0.463,-0.407C0.482,-0.383 0.495,-0.356 0.504,-0.327C0.512,-0.297 0.516,-0.267 0.516,-0.236L0.516,-0.204L0.136,-0.204ZM0.42,-0.276C0.419,-0.296 0.416,-0.314 0.411,-0.331C0.405,-0.348 0.396,-0.362 0.385,-0.375C0.374,-0.387 0.36,-0.397 0.343,-0.404C0.326,-0.411 0.306,-0.414 0.283,-0.414C0.261,-0.414 0.241,-0.41 0.223,-0.402C0.204,-0.393 0.189,-0.382 0.176,-0.369C0.163,-0.356 0.154,-0.341 0.147,-0.325C0.139,-0.308 0.136,-0.292 0.136,-0.276L0.42,-0.276Z" style="fill:rgb(174,23,236);fill-rule:nonzero;"/>
            </g>
            <g transform="matrix(97.1666,0,0,97.1666,1844.05,656.74)">
                <path d="M0.543,-0L0.453,-0L0.453,-0.068L0.451,-0.068C0.434,-0.043 0.41,-0.023 0.38,-0.009C0.349,0.005 0.318,0.012 0.286,0.012C0.249,0.012 0.216,0.006 0.187,-0.007C0.157,-0.02 0.132,-0.037 0.111,-0.06C0.09,-0.083 0.073,-0.109 0.062,-0.139C0.051,-0.169 0.045,-0.202 0.045,-0.237C0.045,-0.272 0.051,-0.305 0.062,-0.336C0.073,-0.366 0.09,-0.392 0.111,-0.415C0.132,-0.437 0.157,-0.454 0.187,-0.467C0.216,-0.48 0.249,-0.486 0.286,-0.486C0.32,-0.486 0.352,-0.479 0.382,-0.465C0.412,-0.45 0.435,-0.431 0.451,-0.406L0.453,-0.406L0.453,-0.756L0.543,-0.756L0.543,-0ZM0.297,-0.072C0.321,-0.072 0.343,-0.076 0.362,-0.085C0.381,-0.093 0.398,-0.104 0.411,-0.119C0.424,-0.133 0.435,-0.15 0.442,-0.171C0.449,-0.191 0.453,-0.213 0.453,-0.237C0.453,-0.261 0.449,-0.283 0.442,-0.304C0.435,-0.324 0.424,-0.341 0.411,-0.356C0.398,-0.37 0.381,-0.381 0.362,-0.39C0.343,-0.398 0.321,-0.402 0.297,-0.402C0.273,-0.402 0.251,-0.398 0.232,-0.39C0.213,-0.381 0.196,-0.37 0.183,-0.356C0.17,-0.341 0.159,-0.324 0.152,-0.304C0.145,-0.283 0.141,-0.261 0.141,-0.237C0.141,-0.213 0.145,-0.191 0.152,-0.171C0.159,-0.15 0.17,-0.133 0.183,-0.119C0.196,-0.104 0.213,-0.093 0.232,-0.085C0.251,-0.076 0.273,-0.072 0.297,-0.072Z" style="fill:rgb(174,23,236);fill-rule:nonzero;"/>
            </g>
            <g transform="matrix(97.1666,0,0,97.1666,1930.43,656.74)">
                <path d="M0.322,-0.396L0.193,-0.396L0.193,-0.181C0.193,-0.168 0.193,-0.155 0.194,-0.142C0.195,-0.129 0.197,-0.117 0.202,-0.107C0.206,-0.096 0.213,-0.088 0.222,-0.082C0.231,-0.075 0.244,-0.072 0.261,-0.072C0.272,-0.072 0.283,-0.073 0.294,-0.075C0.305,-0.077 0.316,-0.081 0.325,-0.086L0.325,-0.004C0.314,0.002 0.301,0.006 0.284,0.009C0.267,0.011 0.253,0.012 0.244,0.012C0.209,0.012 0.183,0.007 0.164,-0.003C0.145,-0.012 0.131,-0.025 0.122,-0.04C0.113,-0.055 0.107,-0.073 0.106,-0.092C0.104,-0.111 0.103,-0.13 0.103,-0.149L0.103,-0.396L-0.001,-0.396L-0.001,-0.474L0.103,-0.474L0.103,-0.607L0.193,-0.607L0.193,-0.474L0.322,-0.474L0.322,-0.396Z" style="fill:rgb(174,23,236);fill-rule:nonzero;"/>
            </g>
            <g transform="matrix(97.1666,0,0,97.1666,1966.38,656.74)">
                <path d="M0.141,-0.237C0.141,-0.213 0.145,-0.191 0.152,-0.171C0.159,-0.15 0.17,-0.133 0.183,-0.119C0.196,-0.104 0.213,-0.093 0.232,-0.085C0.251,-0.076 0.273,-0.072 0.297,-0.072C0.321,-0.072 0.343,-0.076 0.362,-0.085C0.381,-0.093 0.398,-0.104 0.411,-0.119C0.424,-0.133 0.435,-0.15 0.442,-0.171C0.449,-0.191 0.453,-0.213 0.453,-0.237C0.453,-0.261 0.449,-0.283 0.442,-0.304C0.435,-0.324 0.424,-0.341 0.411,-0.356C0.398,-0.37 0.381,-0.381 0.362,-0.39C0.343,-0.398 0.321,-0.402 0.297,-0.402C0.273,-0.402 0.251,-0.398 0.232,-0.39C0.213,-0.381 0.196,-0.37 0.183,-0.356C0.17,-0.341 0.159,-0.324 0.152,-0.304C0.145,-0.283 0.141,-0.261 0.141,-0.237ZM0.045,-0.237C0.045,-0.272 0.051,-0.304 0.065,-0.334C0.078,-0.364 0.095,-0.39 0.118,-0.413C0.141,-0.436 0.167,-0.454 0.198,-0.467C0.229,-0.48 0.262,-0.486 0.297,-0.486C0.332,-0.486 0.365,-0.48 0.396,-0.467C0.427,-0.454 0.453,-0.436 0.476,-0.413C0.499,-0.39 0.517,-0.364 0.53,-0.334C0.543,-0.304 0.549,-0.272 0.549,-0.237C0.549,-0.202 0.543,-0.17 0.53,-0.14C0.517,-0.109 0.499,-0.083 0.476,-0.061C0.453,-0.038 0.427,-0.021 0.396,-0.008C0.365,0.006 0.332,0.012 0.297,0.012C0.262,0.012 0.229,0.006 0.198,-0.008C0.167,-0.021 0.141,-0.038 0.118,-0.061C0.095,-0.083 0.078,-0.109 0.065,-0.14C0.051,-0.17 0.045,-0.202 0.045,-0.237Z" style="fill:rgb(174,23,236);fill-rule:nonzero;"/>
            </g>
            <g transform="matrix(97.1666,0,0,97.1666,2051.11,656.74)">
                <path d="M0.075,-0.474L0.165,-0.474L0.165,-0L0.075,-0L0.075,-0.474ZM0.054,-0.644C0.054,-0.662 0.061,-0.678 0.074,-0.691C0.087,-0.704 0.102,-0.71 0.12,-0.71C0.138,-0.71 0.154,-0.704 0.167,-0.691C0.18,-0.678 0.186,-0.662 0.186,-0.644C0.186,-0.626 0.18,-0.611 0.167,-0.598C0.154,-0.584 0.138,-0.578 0.12,-0.578C0.102,-0.578 0.087,-0.584 0.074,-0.598C0.061,-0.611 0.054,-0.626 0.054,-0.644Z" style="fill:rgb(174,23,236);fill-rule:nonzero;"/>
            </g>
            <g transform="matrix(97.1666,0,0,97.1666,2074.43,656.74)">
                <path d="M0.068,-0.474L0.158,-0.474L0.158,-0.401L0.16,-0.401C0.171,-0.426 0.191,-0.447 0.219,-0.463C0.247,-0.478 0.279,-0.486 0.316,-0.486C0.339,-0.486 0.361,-0.483 0.382,-0.476C0.403,-0.468 0.421,-0.458 0.437,-0.443C0.452,-0.428 0.465,-0.409 0.474,-0.387C0.483,-0.364 0.488,-0.336 0.488,-0.305L0.488,-0L0.398,-0L0.398,-0.28C0.398,-0.302 0.395,-0.321 0.389,-0.337C0.383,-0.352 0.375,-0.365 0.365,-0.375C0.355,-0.384 0.343,-0.391 0.331,-0.396C0.318,-0.4 0.304,-0.402 0.29,-0.402C0.271,-0.402 0.254,-0.399 0.238,-0.393C0.222,-0.387 0.208,-0.378 0.196,-0.365C0.184,-0.352 0.175,-0.335 0.168,-0.315C0.161,-0.295 0.158,-0.271 0.158,-0.244L0.158,-0L0.068,-0L0.068,-0.474Z" style="fill:rgb(174,23,236);fill-rule:nonzero;"/>
            </g>
            <g transform="matrix(97.1666,0,0,97.1666,2128.46,656.74)">
                <path d="M0.322,-0.396L0.193,-0.396L0.193,-0.181C0.193,-0.168 0.193,-0.155 0.194,-0.142C0.195,-0.129 0.197,-0.117 0.202,-0.107C0.206,-0.096 0.213,-0.088 0.222,-0.082C0.231,-0.075 0.244,-0.072 0.261,-0.072C0.272,-0.072 0.283,-0.073 0.294,-0.075C0.305,-0.077 0.316,-0.081 0.325,-0.086L0.325,-0.004C0.314,0.002 0.301,0.006 0.284,0.009C0.267,0.011 0.253,0.012 0.244,0.012C0.209,0.012 0.183,0.007 0.164,-0.003C0.145,-0.012 0.131,-0.025 0.122,-0.04C0.113,-0.055 0.107,-0.073 0.106,-0.092C0.104,-0.111 0.103,-0.13 0.103,-0.149L0.103,-0.396L-0.001,-0.396L-0.001,-0.474L0.103,-0.474L0.103,-0.607L0.193,-0.607L0.193,-0.474L0.322,-0.474L0.322,-0.396Z" style="fill:rgb(174,23,236);fill-rule:nonzero;"/>
            </g>
            <g transform="matrix(97.1666,0,0,97.1666,2164.41,656.74)">
                <path d="M0.136,-0.204C0.136,-0.183 0.14,-0.165 0.15,-0.148C0.159,-0.13 0.17,-0.116 0.185,-0.104C0.2,-0.092 0.217,-0.083 0.236,-0.076C0.255,-0.069 0.275,-0.066 0.296,-0.066C0.324,-0.066 0.348,-0.073 0.369,-0.086C0.39,-0.098 0.409,-0.116 0.426,-0.137L0.494,-0.085C0.444,-0.02 0.374,0.012 0.284,0.012C0.247,0.012 0.213,0.006 0.183,-0.007C0.152,-0.02 0.127,-0.037 0.106,-0.06C0.085,-0.082 0.068,-0.108 0.057,-0.139C0.046,-0.169 0.04,-0.202 0.04,-0.237C0.04,-0.272 0.046,-0.305 0.059,-0.336C0.071,-0.366 0.088,-0.392 0.11,-0.415C0.131,-0.437 0.157,-0.454 0.187,-0.467C0.217,-0.48 0.25,-0.486 0.285,-0.486C0.327,-0.486 0.363,-0.479 0.392,-0.464C0.421,-0.449 0.444,-0.43 0.463,-0.407C0.482,-0.383 0.495,-0.356 0.504,-0.327C0.512,-0.297 0.516,-0.267 0.516,-0.236L0.516,-0.204L0.136,-0.204ZM0.42,-0.276C0.419,-0.296 0.416,-0.314 0.411,-0.331C0.405,-0.348 0.396,-0.362 0.385,-0.375C0.374,-0.387 0.36,-0.397 0.343,-0.404C0.326,-0.411 0.306,-0.414 0.283,-0.414C0.261,-0.414 0.241,-0.41 0.223,-0.402C0.204,-0.393 0.189,-0.382 0.176,-0.369C0.163,-0.356 0.154,-0.341 0.147,-0.325C0.139,-0.308 0.136,-0.292 0.136,-0.276L0.42,-0.276Z" style="fill:rgb(174,23,236);fill-rule:nonzero;"/>
            </g>
            <g transform="matrix(97.1666,0,0,97.1666,2218.43,656.74)">
                <path d="M0.543,-0.004C0.543,0.032 0.537,0.065 0.525,0.095C0.512,0.124 0.495,0.15 0.472,0.172C0.449,0.193 0.422,0.21 0.39,0.222C0.358,0.234 0.323,0.24 0.284,0.24C0.239,0.24 0.197,0.234 0.16,0.221C0.122,0.208 0.086,0.186 0.052,0.155L0.113,0.079C0.136,0.104 0.162,0.124 0.189,0.137C0.216,0.15 0.247,0.156 0.282,0.156C0.315,0.156 0.343,0.151 0.365,0.142C0.387,0.132 0.405,0.119 0.418,0.104C0.431,0.089 0.44,0.071 0.445,0.052C0.45,0.032 0.453,0.012 0.453,-0.008L0.453,-0.078L0.45,-0.078C0.433,-0.049 0.409,-0.028 0.38,-0.015C0.35,-0.001 0.319,0.006 0.286,0.006C0.251,0.006 0.219,-0 0.19,-0.013C0.16,-0.025 0.134,-0.042 0.113,-0.064C0.092,-0.085 0.075,-0.111 0.063,-0.141C0.051,-0.17 0.045,-0.202 0.045,-0.237C0.045,-0.272 0.051,-0.304 0.062,-0.335C0.073,-0.365 0.09,-0.391 0.111,-0.414C0.132,-0.437 0.157,-0.454 0.187,-0.467C0.216,-0.48 0.249,-0.486 0.286,-0.486C0.318,-0.486 0.349,-0.479 0.38,-0.465C0.41,-0.451 0.434,-0.431 0.451,-0.406L0.453,-0.406L0.453,-0.474L0.543,-0.474L0.543,-0.004ZM0.297,-0.402C0.273,-0.402 0.251,-0.398 0.232,-0.39C0.213,-0.381 0.196,-0.37 0.183,-0.356C0.17,-0.341 0.159,-0.324 0.152,-0.304C0.145,-0.283 0.141,-0.261 0.141,-0.237C0.141,-0.189 0.155,-0.151 0.183,-0.122C0.211,-0.092 0.249,-0.078 0.297,-0.078C0.345,-0.078 0.383,-0.092 0.411,-0.122C0.439,-0.151 0.453,-0.189 0.453,-0.237C0.453,-0.261 0.449,-0.283 0.442,-0.304C0.435,-0.324 0.424,-0.341 0.411,-0.356C0.398,-0.37 0.381,-0.381 0.362,-0.39C0.343,-0.398 0.321,-0.402 0.297,-0.402Z" style="fill:rgb(174,23,236);fill-rule:nonzero;"/>
            </g>
            <g transform="matrix(97.1666,0,0,97.1666,2277.8,656.74)">
                <path d="M0.068,-0.474L0.158,-0.474L0.158,-0.401L0.16,-0.401C0.166,-0.414 0.174,-0.425 0.184,-0.436C0.194,-0.446 0.205,-0.455 0.218,-0.462C0.23,-0.469 0.243,-0.475 0.258,-0.48C0.273,-0.484 0.287,-0.486 0.302,-0.486C0.317,-0.486 0.33,-0.484 0.342,-0.48L0.338,-0.383C0.331,-0.385 0.323,-0.387 0.316,-0.388C0.309,-0.389 0.301,-0.39 0.294,-0.39C0.25,-0.39 0.216,-0.378 0.193,-0.353C0.17,-0.328 0.158,-0.29 0.158,-0.238L0.158,-0L0.068,-0L0.068,-0.474Z" style="fill:rgb(174,23,236);fill-rule:nonzero;"/>
            </g>
            <g transform="matrix(97.1666,0,0,97.1666,2313.76,656.74)">
                <path d="M0.07,-0.416C0.095,-0.439 0.125,-0.457 0.158,-0.469C0.191,-0.48 0.225,-0.486 0.258,-0.486C0.293,-0.486 0.323,-0.482 0.348,-0.473C0.373,-0.464 0.393,-0.453 0.409,-0.438C0.425,-0.423 0.437,-0.407 0.445,-0.388C0.452,-0.369 0.456,-0.349 0.456,-0.328L0.456,-0.086C0.456,-0.069 0.456,-0.054 0.457,-0.04C0.458,-0.026 0.459,-0.013 0.46,-0L0.38,-0C0.378,-0.024 0.377,-0.048 0.377,-0.072L0.375,-0.072C0.355,-0.041 0.331,-0.02 0.304,-0.007C0.277,0.006 0.245,0.012 0.209,0.012C0.187,0.012 0.166,0.009 0.146,0.003C0.126,-0.003 0.109,-0.012 0.094,-0.024C0.079,-0.036 0.067,-0.051 0.058,-0.069C0.049,-0.086 0.045,-0.107 0.045,-0.13C0.045,-0.161 0.052,-0.186 0.066,-0.207C0.079,-0.228 0.098,-0.245 0.122,-0.258C0.145,-0.271 0.173,-0.28 0.205,-0.286C0.236,-0.291 0.27,-0.294 0.306,-0.294L0.372,-0.294L0.372,-0.314C0.372,-0.326 0.37,-0.338 0.365,-0.35C0.36,-0.362 0.353,-0.373 0.344,-0.383C0.335,-0.392 0.323,-0.4 0.309,-0.406C0.295,-0.411 0.278,-0.414 0.259,-0.414C0.242,-0.414 0.227,-0.412 0.214,-0.409C0.201,-0.406 0.189,-0.402 0.178,-0.397C0.167,-0.392 0.158,-0.386 0.149,-0.379C0.14,-0.372 0.132,-0.366 0.124,-0.36L0.07,-0.416ZM0.324,-0.228C0.303,-0.228 0.281,-0.227 0.259,-0.225C0.236,-0.222 0.216,-0.218 0.198,-0.211C0.179,-0.204 0.164,-0.195 0.153,-0.183C0.141,-0.171 0.135,-0.156 0.135,-0.137C0.135,-0.11 0.144,-0.09 0.163,-0.078C0.181,-0.066 0.206,-0.06 0.237,-0.06C0.262,-0.06 0.283,-0.064 0.3,-0.073C0.317,-0.081 0.331,-0.092 0.342,-0.105C0.353,-0.118 0.36,-0.133 0.365,-0.15C0.37,-0.166 0.372,-0.182 0.372,-0.198L0.372,-0.228L0.324,-0.228Z" style="fill:rgb(174,23,236);fill-rule:nonzero;"/>
            </g>
            <g transform="matrix(97.1666,0,0,97.1666,2364.18,656.74)">
                <path d="M0.322,-0.396L0.193,-0.396L0.193,-0.181C0.193,-0.168 0.193,-0.155 0.194,-0.142C0.195,-0.129 0.197,-0.117 0.202,-0.107C0.206,-0.096 0.213,-0.088 0.222,-0.082C0.231,-0.075 0.244,-0.072 0.261,-0.072C0.272,-0.072 0.283,-0.073 0.294,-0.075C0.305,-0.077 0.316,-0.081 0.325,-0.086L0.325,-0.004C0.314,0.002 0.301,0.006 0.284,0.009C0.267,0.011 0.253,0.012 0.244,0.012C0.209,0.012 0.183,0.007 0.164,-0.003C0.145,-0.012 0.131,-0.025 0.122,-0.04C0.113,-0.055 0.107,-0.073 0.106,-0.092C0.104,-0.111 0.103,-0.13 0.103,-0.149L0.103,-0.396L-0.001,-0.396L-0.001,-0.474L0.103,-0.474L0.103,-0.607L0.193,-0.607L0.193,-0.474L0.322,-0.474L0.322,-0.396Z" style="fill:rgb(174,23,236);fill-rule:nonzero;"/>
            </g>
            <g transform="matrix(97.1666,0,0,97.1666,2400.14,656.74)">
                <path d="M0.136,-0.204C0.136,-0.183 0.14,-0.165 0.15,-0.148C0.159,-0.13 0.17,-0.116 0.185,-0.104C0.2,-0.092 0.217,-0.083 0.236,-0.076C0.255,-0.069 0.275,-0.066 0.296,-0.066C0.324,-0.066 0.348,-0.073 0.369,-0.086C0.39,-0.098 0.409,-0.116 0.426,-0.137L0.494,-0.085C0.444,-0.02 0.374,0.012 0.284,0.012C0.247,0.012 0.213,0.006 0.183,-0.007C0.152,-0.02 0.127,-0.037 0.106,-0.06C0.085,-0.082 0.068,-0.108 0.057,-0.139C0.046,-0.169 0.04,-0.202 0.04,-0.237C0.04,-0.272 0.046,-0.305 0.059,-0.336C0.071,-0.366 0.088,-0.392 0.11,-0.415C0.131,-0.437 0.157,-0.454 0.187,-0.467C0.217,-0.48 0.25,-0.486 0.285,-0.486C0.327,-0.486 0.363,-0.479 0.392,-0.464C0.421,-0.449 0.444,-0.43 0.463,-0.407C0.482,-0.383 0.495,-0.356 0.504,-0.327C0.512,-0.297 0.516,-0.267 0.516,-0.236L0.516,-0.204L0.136,-0.204ZM0.42,-0.276C0.419,-0.296 0.416,-0.314 0.411,-0.331C0.405,-0.348 0.396,-0.362 0.385,-0.375C0.374,-0.387 0.36,-0.397 0.343,-0.404C0.326,-0.411 0.306,-0.414 0.283,-0.414C0.261,-0.414 0.241,-0.41 0.223,-0.402C0.204,-0.393 0.189,-0.382 0.176,-0.369C0.163,-0.356 0.154,-0.341 0.147,-0.325C0.139,-0.308 0.136,-0.292 0.136,-0.276L0.42,-0.276Z" style="fill:rgb(174,23,236);fill-rule:nonzero;"/>
            </g>
            <g transform="matrix(97.1666,0,0,97.1666,1322.27,753.907)">
                <path d="M0.488,-0L0.398,-0L0.398,-0.073L0.396,-0.073C0.385,-0.048 0.365,-0.027 0.337,-0.012C0.309,0.004 0.277,0.012 0.24,0.012C0.217,0.012 0.195,0.009 0.174,0.002C0.153,-0.006 0.135,-0.016 0.12,-0.031C0.104,-0.046 0.091,-0.065 0.082,-0.088C0.073,-0.111 0.068,-0.138 0.068,-0.169L0.068,-0.474L0.158,-0.474L0.158,-0.194C0.158,-0.172 0.161,-0.153 0.167,-0.138C0.173,-0.122 0.181,-0.109 0.191,-0.1C0.201,-0.09 0.213,-0.083 0.226,-0.079C0.239,-0.074 0.252,-0.072 0.266,-0.072C0.285,-0.072 0.302,-0.075 0.318,-0.081C0.334,-0.087 0.348,-0.096 0.36,-0.11C0.372,-0.123 0.381,-0.139 0.388,-0.159C0.395,-0.179 0.398,-0.203 0.398,-0.23L0.398,-0.474L0.488,-0.474L0.488,-0Z" style="fill:rgb(174,23,236);fill-rule:nonzero;"/>
            </g>
            <g transform="matrix(97.1666,0,0,97.1666,1376.29,753.907)">
                <path d="M0.068,-0.474L0.158,-0.474L0.158,-0.406L0.16,-0.406C0.177,-0.431 0.201,-0.451 0.232,-0.465C0.262,-0.479 0.293,-0.486 0.325,-0.486C0.362,-0.486 0.395,-0.48 0.425,-0.467C0.454,-0.454 0.48,-0.437 0.501,-0.414C0.522,-0.391 0.538,-0.365 0.549,-0.335C0.56,-0.304 0.566,-0.272 0.566,-0.237C0.566,-0.202 0.56,-0.169 0.549,-0.139C0.538,-0.108 0.522,-0.082 0.501,-0.06C0.48,-0.037 0.454,-0.02 0.425,-0.007C0.395,0.006 0.362,0.012 0.325,0.012C0.291,0.012 0.259,0.005 0.229,-0.01C0.199,-0.024 0.176,-0.043 0.16,-0.068L0.158,-0.068L0.158,0.282L0.068,0.282L0.068,-0.474ZM0.314,-0.402C0.29,-0.402 0.268,-0.398 0.249,-0.39C0.23,-0.381 0.213,-0.37 0.2,-0.356C0.187,-0.341 0.176,-0.324 0.169,-0.304C0.162,-0.283 0.158,-0.261 0.158,-0.237C0.158,-0.213 0.162,-0.191 0.169,-0.171C0.176,-0.15 0.187,-0.133 0.2,-0.119C0.213,-0.104 0.23,-0.093 0.249,-0.085C0.268,-0.076 0.29,-0.072 0.314,-0.072C0.338,-0.072 0.36,-0.076 0.379,-0.085C0.398,-0.093 0.415,-0.104 0.428,-0.119C0.441,-0.133 0.452,-0.15 0.459,-0.171C0.466,-0.191 0.47,-0.213 0.47,-0.237C0.47,-0.261 0.466,-0.283 0.459,-0.304C0.452,-0.324 0.441,-0.341 0.428,-0.356C0.415,-0.37 0.398,-0.381 0.379,-0.39C0.36,-0.398 0.338,-0.402 0.314,-0.402Z" style="fill:rgb(174,23,236);fill-rule:nonzero;"/>
            </g>
            <g transform="matrix(97.1666,0,0,97.1666,1462.67,753.907)">
                <path d="M0.322,-0.396L0.193,-0.396L0.193,-0.181C0.193,-0.168 0.193,-0.155 0.194,-0.142C0.195,-0.129 0.197,-0.117 0.202,-0.107C0.206,-0.096 0.213,-0.088 0.222,-0.082C0.231,-0.075 0.244,-0.072 0.261,-0.072C0.272,-0.072 0.283,-0.073 0.294,-0.075C0.305,-0.077 0.316,-0.081 0.325,-0.086L0.325,-0.004C0.314,0.002 0.301,0.006 0.284,0.009C0.267,0.011 0.253,0.012 0.244,0.012C0.209,0.012 0.183,0.007 0.164,-0.003C0.145,-0.012 0.131,-0.025 0.122,-0.04C0.113,-0.055 0.107,-0.073 0.106,-0.092C0.104,-0.111 0.103,-0.13 0.103,-0.149L0.103,-0.396L-0.001,-0.396L-0.001,-0.474L0.103,-0.474L0.103,-0.607L0.193,-0.607L0.193,-0.474L0.322,-0.474L0.322,-0.396Z" style="fill:rgb(174,23,236);fill-rule:nonzero;"/>
            </g>
            <g transform="matrix(97.1666,0,0,97.1666,1498.62,753.907)">
                <path d="M0.141,-0.237C0.141,-0.213 0.145,-0.191 0.152,-0.171C0.159,-0.15 0.17,-0.133 0.183,-0.119C0.196,-0.104 0.213,-0.093 0.232,-0.085C0.251,-0.076 0.273,-0.072 0.297,-0.072C0.321,-0.072 0.343,-0.076 0.362,-0.085C0.381,-0.093 0.398,-0.104 0.411,-0.119C0.424,-0.133 0.435,-0.15 0.442,-0.171C0.449,-0.191 0.453,-0.213 0.453,-0.237C0.453,-0.261 0.449,-0.283 0.442,-0.304C0.435,-0.324 0.424,-0.341 0.411,-0.356C0.398,-0.37 0.381,-0.381 0.362,-0.39C0.343,-0.398 0.321,-0.402 0.297,-0.402C0.273,-0.402 0.251,-0.398 0.232,-0.39C0.213,-0.381 0.196,-0.37 0.183,-0.356C0.17,-0.341 0.159,-0.324 0.152,-0.304C0.145,-0.283 0.141,-0.261 0.141,-0.237ZM0.045,-0.237C0.045,-0.272 0.051,-0.304 0.065,-0.334C0.078,-0.364 0.095,-0.39 0.118,-0.413C0.141,-0.436 0.167,-0.454 0.198,-0.467C0.229,-0.48 0.262,-0.486 0.297,-0.486C0.332,-0.486 0.365,-0.48 0.396,-0.467C0.427,-0.454 0.453,-0.436 0.476,-0.413C0.499,-0.39 0.517,-0.364 0.53,-0.334C0.543,-0.304 0.549,-0.272 0.549,-0.237C0.549,-0.202 0.543,-0.17 0.53,-0.14C0.517,-0.109 0.499,-0.083 0.476,-0.061C0.453,-0.038 0.427,-0.021 0.396,-0.008C0.365,0.006 0.332,0.012 0.297,0.012C0.262,0.012 0.229,0.006 0.198,-0.008C0.167,-0.021 0.141,-0.038 0.118,-0.061C0.095,-0.083 0.078,-0.109 0.065,-0.14C0.051,-0.17 0.045,-0.202 0.045,-0.237Z" style="fill:rgb(174,23,236);fill-rule:nonzero;"/>
            </g>
            <g transform="matrix(97.1666,0,0,97.1666,1583.35,753.907)">
                <path d="M0.011,-0.474L0.115,-0.474L0.256,-0.104L0.258,-0.104L0.392,-0.474L0.489,-0.474L0.264,0.102C0.256,0.123 0.248,0.141 0.239,0.159C0.23,0.175 0.22,0.19 0.208,0.202C0.196,0.214 0.182,0.223 0.165,0.23C0.148,0.237 0.127,0.24 0.102,0.24C0.089,0.24 0.075,0.239 0.062,0.238C0.048,0.236 0.035,0.232 0.022,0.227L0.033,0.145C0.051,0.152 0.069,0.156 0.087,0.156C0.101,0.156 0.113,0.154 0.123,0.151C0.132,0.147 0.14,0.141 0.148,0.135C0.155,0.128 0.16,0.119 0.165,0.11C0.17,0.101 0.174,0.09 0.179,0.078L0.208,0.003L0.011,-0.474Z" style="fill:rgb(174,23,236);fill-rule:nonzero;"/>
            </g>
            <g transform="matrix(97.1666,0,0,97.1666,1631.94,753.907)">
                <path d="M0.254,-0.69C0.233,-0.656 0.214,-0.623 0.198,-0.592C0.182,-0.561 0.169,-0.529 0.158,-0.497C0.147,-0.464 0.139,-0.431 0.134,-0.396C0.129,-0.361 0.126,-0.324 0.126,-0.284C0.126,-0.211 0.137,-0.14 0.158,-0.071C0.179,-0.002 0.211,0.061 0.254,0.12L0.194,0.16C0.148,0.097 0.112,0.028 0.087,-0.047C0.061,-0.122 0.048,-0.201 0.048,-0.284C0.048,-0.361 0.06,-0.437 0.085,-0.514C0.11,-0.591 0.146,-0.662 0.194,-0.728L0.254,-0.69Z" style="fill:rgb(174,23,236);fill-rule:nonzero;"/>
            </g>
            <g transform="matrix(97.1666,0,0,97.1666,1658.95,753.907)">
                <path d="M0.322,-0.396L0.193,-0.396L0.193,-0.181C0.193,-0.168 0.193,-0.155 0.194,-0.142C0.195,-0.129 0.197,-0.117 0.202,-0.107C0.206,-0.096 0.213,-0.088 0.222,-0.082C0.231,-0.075 0.244,-0.072 0.261,-0.072C0.272,-0.072 0.283,-0.073 0.294,-0.075C0.305,-0.077 0.316,-0.081 0.325,-0.086L0.325,-0.004C0.314,0.002 0.301,0.006 0.284,0.009C0.267,0.011 0.253,0.012 0.244,0.012C0.209,0.012 0.183,0.007 0.164,-0.003C0.145,-0.012 0.131,-0.025 0.122,-0.04C0.113,-0.055 0.107,-0.073 0.106,-0.092C0.104,-0.111 0.103,-0.13 0.103,-0.149L0.103,-0.396L-0.001,-0.396L-0.001,-0.474L0.103,-0.474L0.103,-0.607L0.193,-0.607L0.193,-0.474L0.322,-0.474L0.322,-0.396Z" style="fill:rgb(174,23,236);fill-rule:nonzero;"/>
            </g>
            <g transform="matrix(97.1666,0,0,97.1666,1721.91,753.907)">
                <path d="M0.066,-0.342L0.294,-0.342L0.294,-0.57L0.372,-0.57L0.372,-0.342L0.6,-0.342L0.6,-0.264L0.372,-0.264L0.372,-0.036L0.294,-0.036L0.294,-0.264L0.066,-0.264L0.066,-0.342Z" style="fill:rgb(174,23,236);fill-rule:nonzero;"/>
            </g>
            <g transform="matrix(97.1666,0,0,97.1666,1813.64,753.907)">
                <path d="M0.243,-0.035L0.091,-0.382C0.08,-0.409 0.072,-0.427 0.065,-0.438C0.058,-0.447 0.049,-0.452 0.038,-0.452C0.022,-0.451 0.012,-0.45 0.009,-0.449L0.009,-0.521C0.02,-0.526 0.034,-0.529 0.049,-0.53C0.083,-0.53 0.108,-0.522 0.123,-0.508C0.131,-0.501 0.138,-0.492 0.144,-0.481C0.15,-0.469 0.156,-0.455 0.162,-0.439L0.288,-0.137L0.442,-0.52L0.536,-0.52L0.333,-0.035L0.333,0.196L0.243,0.196L0.243,-0.035Z" style="fill:rgb(174,23,236);fill-rule:nonzero;"/>
            </g>
            <g transform="matrix(97.1666,0,0,97.1666,1894.69,753.907)">
                <path d="M0.068,-0.756L0.158,-0.756L0.158,-0.401L0.16,-0.401C0.171,-0.426 0.191,-0.447 0.219,-0.463C0.247,-0.478 0.279,-0.486 0.316,-0.486C0.339,-0.486 0.361,-0.483 0.382,-0.476C0.403,-0.468 0.421,-0.458 0.437,-0.443C0.452,-0.428 0.465,-0.409 0.474,-0.387C0.483,-0.364 0.488,-0.336 0.488,-0.305L0.488,-0L0.398,-0L0.398,-0.28C0.398,-0.302 0.395,-0.321 0.389,-0.337C0.383,-0.352 0.375,-0.365 0.365,-0.375C0.355,-0.384 0.343,-0.391 0.331,-0.396C0.318,-0.4 0.304,-0.402 0.29,-0.402C0.271,-0.402 0.254,-0.399 0.238,-0.393C0.222,-0.387 0.208,-0.378 0.196,-0.365C0.184,-0.352 0.175,-0.335 0.168,-0.315C0.161,-0.295 0.158,-0.271 0.158,-0.244L0.158,-0L0.068,-0L0.068,-0.756Z" style="fill:rgb(174,23,236);fill-rule:nonzero;"/>
            </g>
            <g transform="matrix(97.1666,0,0,97.1666,1948.72,753.907)">
                <path d="M0.024,0.122C0.045,0.088 0.064,0.055 0.08,0.024C0.096,-0.007 0.109,-0.039 0.12,-0.072C0.131,-0.104 0.139,-0.137 0.144,-0.172C0.149,-0.207 0.152,-0.244 0.152,-0.284C0.152,-0.357 0.141,-0.428 0.12,-0.497C0.099,-0.566 0.067,-0.629 0.024,-0.688L0.084,-0.728C0.13,-0.665 0.166,-0.596 0.192,-0.521C0.217,-0.446 0.23,-0.367 0.23,-0.284C0.23,-0.207 0.218,-0.131 0.193,-0.054C0.168,0.023 0.132,0.094 0.084,0.16L0.024,0.122Z" style="fill:rgb(174,23,236);fill-rule:nonzero;"/>
            </g>
            <g transform="matrix(97.1666,0,0,97.1666,2002.74,753.907)">
                <path d="M0.322,-0.396L0.193,-0.396L0.193,-0.181C0.193,-0.168 0.193,-0.155 0.194,-0.142C0.195,-0.129 0.197,-0.117 0.202,-0.107C0.206,-0.096 0.213,-0.088 0.222,-0.082C0.231,-0.075 0.244,-0.072 0.261,-0.072C0.272,-0.072 0.283,-0.073 0.294,-0.075C0.305,-0.077 0.316,-0.081 0.325,-0.086L0.325,-0.004C0.314,0.002 0.301,0.006 0.284,0.009C0.267,0.011 0.253,0.012 0.244,0.012C0.209,0.012 0.183,0.007 0.164,-0.003C0.145,-0.012 0.131,-0.025 0.122,-0.04C0.113,-0.055 0.107,-0.073 0.106,-0.092C0.104,-0.111 0.103,-0.13 0.103,-0.149L0.103,-0.396L-0.001,-0.396L-0.001,-0.474L0.103,-0.474L0.103,-0.607L0.193,-0.607L0.193,-0.474L0.322,-0.474L0.322,-0.396Z" style="fill:rgb(174,23,236);fill-rule:nonzero;"/>
            </g>
            <g transform="matrix(97.1666,0,0,97.1666,2038.69,753.907)">
                <path d="M0.141,-0.237C0.141,-0.213 0.145,-0.191 0.152,-0.171C0.159,-0.15 0.17,-0.133 0.183,-0.119C0.196,-0.104 0.213,-0.093 0.232,-0.085C0.251,-0.076 0.273,-0.072 0.297,-0.072C0.321,-0.072 0.343,-0.076 0.362,-0.085C0.381,-0.093 0.398,-0.104 0.411,-0.119C0.424,-0.133 0.435,-0.15 0.442,-0.171C0.449,-0.191 0.453,-0.213 0.453,-0.237C0.453,-0.261 0.449,-0.283 0.442,-0.304C0.435,-0.324 0.424,-0.341 0.411,-0.356C0.398,-0.37 0.381,-0.381 0.362,-0.39C0.343,-0.398 0.321,-0.402 0.297,-0.402C0.273,-0.402 0.251,-0.398 0.232,-0.39C0.213,-0.381 0.196,-0.37 0.183,-0.356C0.17,-0.341 0.159,-0.324 0.152,-0.304C0.145,-0.283 0.141,-0.261 0.141,-0.237ZM0.045,-0.237C0.045,-0.272 0.051,-0.304 0.065,-0.334C0.078,-0.364 0.095,-0.39 0.118,-0.413C0.141,-0.436 0.167,-0.454 0.198,-0.467C0.229,-0.48 0.262,-0.486 0.297,-0.486C0.332,-0.486 0.365,-0.48 0.396,-0.467C0.427,-0.454 0.453,-0.436 0.476,-0.413C0.499,-0.39 0.517,-0.364 0.53,-0.334C0.543,-0.304 0.549,-0.272 0.549,-0.237C0.549,-0.202 0.543,-0.17 0.53,-0.14C0.517,-0.109 0.499,-0.083 0.476,-0.061C0.453,-0.038 0.427,-0.021 0.396,-0.008C0.365,0.006 0.332,0.012 0.297,0.012C0.262,0.012 0.229,0.006 0.198,-0.008C0.167,-0.021 0.141,-0.038 0.118,-0.061C0.095,-0.083 0.078,-0.109 0.065,-0.14C0.051,-0.17 0.045,-0.202 0.045,-0.237Z" style="fill:rgb(174,23,236);fill-rule:nonzero;"/>
            </g>
            <g transform="matrix(97.1666,0,0,97.1666,2123.42,753.907)">
                <path d="M0.39,-0.474L0.48,-0.474L0.48,-0L0.39,-0L0.39,-0.474ZM0.37,-0.643C0.37,-0.661 0.377,-0.677 0.39,-0.69C0.403,-0.703 0.418,-0.709 0.436,-0.709C0.454,-0.709 0.47,-0.703 0.483,-0.69C0.496,-0.677 0.502,-0.661 0.502,-0.643C0.502,-0.625 0.496,-0.61 0.483,-0.597C0.47,-0.584 0.454,-0.577 0.436,-0.577C0.418,-0.577 0.403,-0.584 0.39,-0.597C0.377,-0.61 0.37,-0.625 0.37,-0.643ZM0.103,-0.396L0.001,-0.396L0.001,-0.474L0.103,-0.474L0.103,-0.58C0.103,-0.643 0.115,-0.691 0.14,-0.722C0.164,-0.753 0.206,-0.768 0.265,-0.768C0.275,-0.768 0.286,-0.768 0.297,-0.767C0.308,-0.766 0.319,-0.764 0.332,-0.761L0.322,-0.681C0.313,-0.684 0.305,-0.687 0.297,-0.688C0.289,-0.689 0.28,-0.69 0.271,-0.69C0.254,-0.69 0.241,-0.688 0.231,-0.683C0.221,-0.678 0.213,-0.67 0.208,-0.661C0.202,-0.652 0.198,-0.641 0.197,-0.628C0.195,-0.615 0.194,-0.6 0.194,-0.583L0.194,-0.474L0.301,-0.474L0.301,-0.396L0.193,-0.396L0.193,-0L0.103,-0L0.103,-0.396Z" style="fill:rgb(174,23,236);fill-rule:nonzero;"/>
            </g>
            <g transform="matrix(97.1666,0,0,97.1666,2177.45,753.907)">
                <path d="M0.068,-0.474L0.158,-0.474L0.158,-0.401L0.16,-0.401C0.171,-0.426 0.191,-0.447 0.219,-0.463C0.247,-0.478 0.279,-0.486 0.316,-0.486C0.339,-0.486 0.361,-0.483 0.382,-0.476C0.403,-0.468 0.421,-0.458 0.437,-0.443C0.452,-0.428 0.465,-0.409 0.474,-0.387C0.483,-0.364 0.488,-0.336 0.488,-0.305L0.488,-0L0.398,-0L0.398,-0.28C0.398,-0.302 0.395,-0.321 0.389,-0.337C0.383,-0.352 0.375,-0.365 0.365,-0.375C0.355,-0.384 0.343,-0.391 0.331,-0.396C0.318,-0.4 0.304,-0.402 0.29,-0.402C0.271,-0.402 0.254,-0.399 0.238,-0.393C0.222,-0.387 0.208,-0.378 0.196,-0.365C0.184,-0.352 0.175,-0.335 0.168,-0.315C0.161,-0.295 0.158,-0.271 0.158,-0.244L0.158,-0L0.068,-0L0.068,-0.474Z" style="fill:rgb(174,23,236);fill-rule:nonzero;"/>
            </g>
            <g transform="matrix(97.1666,0,0,97.1666,2231.47,753.907)">
                <path d="M0.543,-0L0.453,-0L0.453,-0.068L0.451,-0.068C0.434,-0.043 0.41,-0.023 0.38,-0.009C0.349,0.005 0.318,0.012 0.286,0.012C0.249,0.012 0.216,0.006 0.187,-0.007C0.157,-0.02 0.132,-0.037 0.111,-0.06C0.09,-0.083 0.073,-0.109 0.062,-0.139C0.051,-0.169 0.045,-0.202 0.045,-0.237C0.045,-0.272 0.051,-0.305 0.062,-0.336C0.073,-0.366 0.09,-0.392 0.111,-0.415C0.132,-0.437 0.157,-0.454 0.187,-0.467C0.216,-0.48 0.249,-0.486 0.286,-0.486C0.32,-0.486 0.352,-0.479 0.382,-0.465C0.412,-0.45 0.435,-0.431 0.451,-0.406L0.453,-0.406L0.453,-0.756L0.543,-0.756L0.543,-0ZM0.297,-0.072C0.321,-0.072 0.343,-0.076 0.362,-0.085C0.381,-0.093 0.398,-0.104 0.411,-0.119C0.424,-0.133 0.435,-0.15 0.442,-0.171C0.449,-0.191 0.453,-0.213 0.453,-0.237C0.453,-0.261 0.449,-0.283 0.442,-0.304C0.435,-0.324 0.424,-0.341 0.411,-0.356C0.398,-0.37 0.381,-0.381 0.362,-0.39C0.343,-0.398 0.321,-0.402 0.297,-0.402C0.273,-0.402 0.251,-0.398 0.232,-0.39C0.213,-0.381 0.196,-0.37 0.183,-0.356C0.17,-0.341 0.159,-0.324 0.152,-0.304C0.145,-0.283 0.141,-0.261 0.141,-0.237C0.141,-0.213 0.145,-0.191 0.152,-0.171C0.159,-0.15 0.17,-0.133 0.183,-0.119C0.196,-0.104 0.213,-0.093 0.232,-0.085C0.251,-0.076 0.273,-0.072 0.297,-0.072Z" style="fill:rgb(174,23,236);fill-rule:nonzero;"/>
            </g>
            <g transform="matrix(97.1666,0,0,97.1666,2317.85,753.907)">
                <path d="M0.068,-0.756L0.158,-0.756L0.158,-0.268L0.362,-0.473L0.487,-0.473L0.266,-0.258L0.506,-0L0.378,-0L0.158,-0.246L0.158,-0L0.068,-0L0.068,-0.756Z" style="fill:rgb(174,23,236);fill-rule:nonzero;"/>
            </g>
        </g>
        <g transform="matrix(1.36378,0,0,1.36378,182.973,-1863.05)">
            <g transform="matrix(47.8687,0,0,47.8687,1603.11,1873.06)">
                <path d="M0.27,-0.598L0.14,-0.478L0.084,-0.545L0.281,-0.708L0.366,-0.708L0.366,-0L0.27,-0L0.27,-0.598Z" style="fill:rgb(174,23,236);fill-rule:nonzero;"/>
            </g>
        </g>
        <g transform="matrix(1.36378,0,0,1.36378,-341.548,-1859.8)">
            <g transform="matrix(47.8687,0,0,47.8687,1603.11,1873.06)">
                <path d="M0.27,-0.598L0.14,-0.478L0.084,-0.545L0.281,-0.708L0.366,-0.708L0.366,-0L0.27,-0L0.27,-0.598Z" style="fill:rgb(174,23,236);fill-rule:nonzero;"/>
            </g>
        </g>
        <g transform="matrix(1,0,0,1,65.9655,-340.06)">
            <rect x="1120.95" y="1890.99" width="967.639" height="322.578" style="fill:rgb(62,161,59);fill-opacity:0;stroke:rgb(58,152,72);stroke-width:10.21px;"/>
        </g>
        <g transform="matrix(1,0,0,1,65.9655,-340.06)">
            <path d="M2132.89,1976.63C2153.83,1962.37 2176.46,1955.27 2201.57,1958.95" style="fill:none;stroke:rgb(58,152,72);stroke-width:10.21px;"/>
        </g>
        <g transform="matrix(1,0,0,1,65.9655,-340.06)">
            <path d="M2201.57,1958.95L2185.41,1939.34" style="fill:none;stroke:rgb(58,152,72);stroke-width:10.21px;"/>
        </g>
        <g transform="matrix(1,0,0,1,65.9655,-340.06)">
            <path d="M2201.57,1958.95L2186.88,1977.32" style="fill:none;stroke:rgb(58,152,72);stroke-width:10.21px;"/>
        </g>
        <g transform="matrix(1.29614,0,0,1.29614,-624.127,-932.412)">
            <g transform="matrix(102.745,0,0,102.745,2238.83,2004.98)">
                <path d="M0.27,-0.598L0.14,-0.478L0.084,-0.545L0.281,-0.708L0.366,-0.708L0.366,-0L0.27,-0L0.27,-0.598Z" style="fill:rgb(58,152,72);fill-rule:nonzero;stroke:rgb(58,152,72);stroke-width:0.01px;stroke-linecap:butt;stroke-miterlimit:2;"/>
            </g>
        </g>
        <g transform="matrix(1.49623,0,0,1.49623,-1016.11,-1277.96)">
            <g transform="matrix(47.5311,0,0,47.5311,2143.6,1927.6)">
                <path d="M0.066,-0.342L0.294,-0.342L0.294,-0.57L0.372,-0.57L0.372,-0.342L0.6,-0.342L0.6,-0.264L0.372,-0.264L0.372,-0.036L0.294,-0.036L0.294,-0.264L0.066,-0.264L0.066,-0.342Z" style="fill:rgb(58,152,72);fill-rule:nonzero;stroke:rgb(58,152,72);stroke-width:0.01px;stroke-linecap:butt;stroke-miterlimit:2;"/>
            </g>
        </g>
        <g transform="matrix(1,0,0,1,171.32,-340.06)">
            <path d="M2156.84,1012.5L2194.82,1012.5" style="fill:none;stroke:rgb(174,23,236);stroke-width:10.21px;"/>
        </g>
        <g transform="matrix(1,0,0,1,-568.911,-317.597)">
            <path d="M2156.84,1012.5L2194.82,1012.5" style="fill:none;stroke:rgb(174,23,236);stroke-width:10.21px;"/>
        </g>
    </g>
</svg>
