<?xml version="1.0" encoding="UTF-8" standalone="no"?>
<!DOCTYPE svg PUBLIC "-//W3C//DTD SVG 1.1//EN" "http://www.w3.org/Graphics/SVG/1.1/DTD/svg11.dtd">
<svg width="100%" height="100%" viewBox="0 0 864 739" version="1.1" xmlns="http://www.w3.org/2000/svg" xmlns:xlink="http://www.w3.org/1999/xlink" xml:space="preserve" xmlns:serif="http://www.serif.com/" style="fill-rule:evenodd;clip-rule:evenodd;stroke-linecap:round;stroke-linejoin:round;stroke-miterlimit:1.5;">
    <path d="M59.866,697.344l-0,-569.312" style="fill:none;stroke:black;stroke-width:20.41px;"/>
    <path d="M21.529,655.307l804.221,-0" style="fill:none;stroke:black;stroke-width:20.41px;"/>
    <path d="M59.866,120.528l-32.703,32.703" style="fill:none;stroke:black;stroke-width:20.41px;"/>
    <path d="M835.208,655.307l-32.702,-32.703" style="fill:none;stroke:black;stroke-width:20.41px;"/>
    <path d="M59.866,120.528l33.378,33.378" style="fill:none;stroke:black;stroke-width:20.41px;"/>
    <path d="M835.208,655.307l-33.378,33.378" style="fill:none;stroke:black;stroke-width:20.41px;"/>
    <path d="M12.606,431.026c-2.682,0 -4.853,0.801 -6.513,2.401c-1.661,1.601 -2.491,3.842 -2.491,6.723c-0,1.281 0.25,2.521 0.75,3.722c0.5,1.2 1.17,2.251 2.011,3.151c0.84,0.901 1.801,1.621 2.881,2.161c1.081,0.54 2.201,0.811 3.362,0.811l-0,-18.969Zm3.241,19.089c1.401,-0.12 2.721,-0.461 3.962,-1.021c1.24,-0.56 2.311,-1.3 3.211,-2.221c0.901,-0.92 1.611,-1.981 2.131,-3.181c0.52,-1.201 0.78,-2.501 0.78,-3.902c0,-2.121 -0.49,-3.952 -1.47,-5.492c-0.981,-1.541 -2.111,-2.712 -3.392,-3.512l2.521,-3.061c2.121,1.681 3.642,3.531 4.562,5.552c0.921,2.021 1.381,4.192 1.381,6.513c-0,2.081 -0.37,4.012 -1.111,5.793c-0.74,1.78 -1.77,3.311 -3.091,4.592c-1.32,1.28 -2.881,2.291 -4.682,3.031c-1.801,0.74 -3.762,1.11 -5.883,1.11c-2.12,0 -4.081,-0.36 -5.882,-1.08c-1.801,-0.72 -3.362,-1.721 -4.682,-3.001c-1.321,-1.281 -2.351,-2.782 -3.092,-4.502c-0.74,-1.721 -1.11,-3.582 -1.11,-5.583c0,-2.121 0.38,-4.022 1.141,-5.702c0.76,-1.681 1.77,-3.092 3.031,-4.232c1.26,-1.141 2.741,-2.011 4.442,-2.611c1.701,-0.601 3.511,-0.901 5.432,-0.901l1.801,0l-0,23.411Z" style="fill-rule:nonzero;"/>
    <path d="M9.484,419.081c-1.24,-0 -2.501,0.03 -3.781,0.09c-1.281,0.06 -2.942,0.11 -4.983,0.15l0,-3.902l5.223,0l-0,-0.12c-0.761,-0.28 -1.491,-0.68 -2.191,-1.2c-0.701,-0.52 -1.331,-1.151 -1.891,-1.891c-0.56,-0.74 -1.011,-1.601 -1.351,-2.581c-0.34,-0.981 -0.51,-2.091 -0.51,-3.332c0,-1.12 0.12,-2.101 0.36,-2.941l3.902,0.78c-0.2,0.521 -0.3,1.281 -0.3,2.281c-0,1.521 0.29,2.822 0.87,3.902c0.58,1.081 1.321,1.981 2.221,2.701c0.9,0.721 1.871,1.251 2.911,1.591c1.041,0.34 2.041,0.51 3.002,0.51l15.847,0l-0,3.962l-19.329,-0Z" style="fill-rule:nonzero;"/>
    <path d="M9.484,399.152c-1.24,0 -2.501,0.03 -3.781,0.09c-1.281,0.06 -2.942,0.11 -4.983,0.15l0,-3.901l5.223,-0l-0,-0.12c-0.761,-0.281 -1.491,-0.681 -2.191,-1.201c-0.701,-0.52 -1.331,-1.15 -1.891,-1.891c-0.56,-0.74 -1.011,-1.601 -1.351,-2.581c-0.34,-0.98 -0.51,-2.091 -0.51,-3.331c0,-1.121 0.12,-2.101 0.36,-2.942l3.902,0.781c-0.2,0.52 -0.3,1.28 -0.3,2.281c-0,1.52 0.29,2.821 0.87,3.901c0.58,1.081 1.321,1.981 2.221,2.702c0.9,0.72 1.871,1.25 2.911,1.59c1.041,0.34 2.041,0.51 3.002,0.51l15.847,0l-0,3.962l-19.329,0Z" style="fill-rule:nonzero;"/>
    <path d="M14.766,356.654c-1.56,-0 -3.021,0.25 -4.381,0.75c-1.361,0.5 -2.542,1.21 -3.542,2.131c-1,0.92 -1.791,2.031 -2.371,3.331c-0.58,1.301 -0.87,2.771 -0.87,4.412c-0,1.641 0.29,3.112 0.87,4.412c0.58,1.301 1.371,2.401 2.371,3.302c1,0.9 2.181,1.6 3.542,2.1c1.36,0.501 2.821,0.751 4.381,0.751c1.561,-0 3.022,-0.25 4.382,-0.751c1.361,-0.5 2.542,-1.2 3.542,-2.1c1,-0.901 1.791,-2.001 2.371,-3.302c0.58,-1.3 0.87,-2.771 0.87,-4.412c0,-1.641 -0.29,-3.111 -0.87,-4.412c-0.58,-1.3 -1.371,-2.411 -2.371,-3.331c-1,-0.921 -2.181,-1.631 -3.542,-2.131c-1.36,-0.5 -2.821,-0.75 -4.382,-0.75Zm0,-4.322c2.121,-0 4.082,0.37 5.883,1.11c1.801,0.74 3.362,1.771 4.682,3.091c1.321,1.321 2.351,2.892 3.091,4.713c0.741,1.82 1.111,3.831 1.111,6.032c-0,2.161 -0.37,4.152 -1.111,5.973c-0.74,1.821 -1.77,3.391 -3.091,4.712c-1.32,1.32 -2.881,2.351 -4.682,3.091c-1.801,0.741 -3.762,1.111 -5.883,1.111c-2.12,-0 -4.081,-0.37 -5.882,-1.111c-1.801,-0.74 -3.362,-1.771 -4.682,-3.091c-1.321,-1.321 -2.351,-2.891 -3.092,-4.712c-0.74,-1.821 -1.11,-3.812 -1.11,-5.973c0,-2.201 0.37,-4.212 1.11,-6.032c0.741,-1.821 1.771,-3.392 3.092,-4.713c1.32,-1.32 2.881,-2.351 4.682,-3.091c1.801,-0.74 3.762,-1.11 5.882,-1.11Z" style="fill-rule:nonzero;"/>
    <path d="M9.484,344.708c-1.24,0 -2.501,0.03 -3.781,0.09c-1.281,0.06 -2.942,0.11 -4.983,0.15l0,-3.901l5.223,-0l-0,-0.12c-0.761,-0.281 -1.491,-0.681 -2.191,-1.201c-0.701,-0.52 -1.331,-1.15 -1.891,-1.891c-0.56,-0.74 -1.011,-1.6 -1.351,-2.581c-0.34,-0.98 -0.51,-2.091 -0.51,-3.331c0,-1.121 0.12,-2.101 0.36,-2.942l3.902,0.781c-0.2,0.52 -0.3,1.28 -0.3,2.281c-0,1.52 0.29,2.821 0.87,3.901c0.58,1.081 1.321,1.981 2.221,2.702c0.9,0.72 1.871,1.25 2.911,1.59c1.041,0.34 2.041,0.511 3.002,0.511l15.847,-0l-0,3.961l-19.329,0Z" style="fill-rule:nonzero;"/>
    <path d="M209.683,699.704c-0,-1.041 -0.03,-2.081 -0.09,-3.122c-0.06,-1.04 -0.13,-2.08 -0.21,-3.121l4.262,0l-0,4.262l0.12,-0c0.96,-1.641 2.291,-2.881 3.992,-3.722c1.7,-0.84 3.391,-1.26 5.072,-1.26c0.76,-0 1.57,0.08 2.431,0.24c0.86,0.16 1.691,0.45 2.491,0.87c0.8,0.42 1.551,1.011 2.251,1.771c0.7,0.76 1.29,1.741 1.771,2.941c0.8,-1.8 2.071,-3.221 3.811,-4.262c1.741,-1.04 3.552,-1.56 5.433,-1.56c3.601,-0 6.263,0.95 7.983,2.851c1.721,1.901 2.581,4.612 2.581,8.134l0,17.827l-3.961,0l-0,-16.387c-0,-2.841 -0.501,-5.022 -1.501,-6.543c-1,-1.52 -2.861,-2.281 -5.582,-2.281c-1.481,0 -2.722,0.291 -3.722,0.871c-1.001,0.58 -1.811,1.35 -2.431,2.311c-0.62,0.96 -1.071,2.051 -1.351,3.271c-0.28,1.221 -0.42,2.491 -0.42,3.812l0,14.946l-3.962,0l0,-16.387c0,-2.841 -0.5,-5.022 -1.5,-6.543c-1.001,-1.52 -2.862,-2.281 -5.583,-2.281c-0.24,0 -0.79,0.08 -1.651,0.24c-0.86,0.161 -1.75,0.601 -2.671,1.321c-0.92,0.72 -1.75,1.801 -2.491,3.242c-0.74,1.44 -1.11,3.441 -1.11,6.002l-0,14.406l-3.962,0l-0,-21.849Z" style="fill-rule:nonzero;"/>
    <path d="M284.896,707.507c0,-1.56 -0.25,-3.021 -0.75,-4.382c-0.5,-1.36 -1.211,-2.541 -2.131,-3.541c-0.921,-1.001 -2.031,-1.791 -3.332,-2.371c-1.3,-0.58 -2.771,-0.871 -4.412,-0.871c-1.64,0 -3.111,0.291 -4.412,0.871c-1.3,0.58 -2.401,1.37 -3.301,2.371c-0.9,1 -1.601,2.181 -2.101,3.541c-0.5,1.361 -0.75,2.822 -0.75,4.382c-0,1.561 0.25,3.022 0.75,4.382c0.5,1.361 1.201,2.541 2.101,3.542c0.9,1 2.001,1.791 3.301,2.371c1.301,0.58 2.772,0.87 4.412,0.87c1.641,0 3.112,-0.29 4.412,-0.87c1.301,-0.58 2.411,-1.371 3.332,-2.371c0.92,-1.001 1.631,-2.181 2.131,-3.542c0.5,-1.36 0.75,-2.821 0.75,-4.382Zm4.322,0c-0,2.121 -0.37,4.082 -1.111,5.883c-0.74,1.801 -1.77,3.361 -3.091,4.682c-1.32,1.321 -2.891,2.351 -4.712,3.091c-1.821,0.741 -3.832,1.111 -6.033,1.111c-2.161,-0 -4.151,-0.37 -5.972,-1.111c-1.821,-0.74 -3.392,-1.77 -4.712,-3.091c-1.321,-1.321 -2.351,-2.881 -3.092,-4.682c-0.74,-1.801 -1.11,-3.762 -1.11,-5.883c-0,-2.121 0.37,-4.081 1.11,-5.882c0.741,-1.801 1.771,-3.362 3.092,-4.682c1.32,-1.321 2.891,-2.351 4.712,-3.092c1.821,-0.74 3.811,-1.11 5.972,-1.11c2.201,-0 4.212,0.37 6.033,1.11c1.821,0.741 3.392,1.771 4.712,3.092c1.321,1.32 2.351,2.881 3.091,4.682c0.741,1.801 1.111,3.761 1.111,5.882Z" style="fill-rule:nonzero;"/>
    <path d="M298.822,707.507c0,1.561 0.25,3.022 0.751,4.382c0.5,1.361 1.21,2.541 2.13,3.542c0.921,1 2.031,1.791 3.332,2.371c1.3,0.58 2.771,0.87 4.412,0.87c1.601,0 3.091,-0.29 4.472,-0.87c1.38,-0.58 2.571,-1.371 3.571,-2.371c1.001,-1.001 1.781,-2.181 2.341,-3.542c0.561,-1.36 0.841,-2.821 0.841,-4.382c-0,-1.56 -0.28,-3.021 -0.841,-4.382c-0.56,-1.36 -1.34,-2.541 -2.341,-3.541c-1,-1.001 -2.191,-1.791 -3.571,-2.371c-1.381,-0.58 -2.871,-0.871 -4.472,-0.871c-1.641,0 -3.112,0.291 -4.412,0.871c-1.301,0.58 -2.411,1.37 -3.332,2.371c-0.92,1 -1.63,2.181 -2.13,3.541c-0.501,1.361 -0.751,2.822 -0.751,4.382Zm25.631,14.046l-3.961,0l-0,-4.682l-0.12,0c-0.641,0.961 -1.401,1.781 -2.281,2.461c-0.881,0.681 -1.801,1.241 -2.762,1.681c-0.96,0.44 -1.95,0.761 -2.971,0.961c-1.02,0.2 -1.991,0.3 -2.911,0.3c-2.201,-0 -4.212,-0.37 -6.033,-1.111c-1.821,-0.74 -3.391,-1.77 -4.712,-3.091c-1.32,-1.321 -2.351,-2.881 -3.091,-4.682c-0.741,-1.801 -1.111,-3.762 -1.111,-5.883c0,-2.121 0.37,-4.081 1.111,-5.882c0.74,-1.801 1.771,-3.362 3.091,-4.682c1.321,-1.321 2.891,-2.351 4.712,-3.092c1.821,-0.74 3.832,-1.11 6.033,-1.11c0.92,-0 1.891,0.1 2.911,0.3c1.021,0.2 2.011,0.52 2.971,0.96c0.961,0.441 1.881,1.001 2.762,1.681c0.88,0.68 1.64,1.501 2.281,2.461l0.12,0l-0,-21.969l3.961,-0l0,45.379Z" style="fill-rule:nonzero;"/>
    <path d="M354.947,705.346c-0,-2.681 -0.8,-4.852 -2.401,-6.513c-1.601,-1.66 -3.842,-2.491 -6.723,-2.491c-1.281,0 -2.521,0.25 -3.722,0.751c-1.2,0.5 -2.251,1.17 -3.151,2.011c-0.901,0.84 -1.621,1.8 -2.161,2.881c-0.54,1.08 -0.81,2.201 -0.81,3.361l18.968,0Zm-19.089,3.242c0.121,1.4 0.461,2.721 1.021,3.962c0.56,1.24 1.3,2.311 2.221,3.211c0.92,0.9 1.981,1.611 3.181,2.131c1.201,0.52 2.501,0.78 3.902,0.78c2.121,0 3.952,-0.49 5.492,-1.47c1.541,-0.981 2.712,-2.111 3.512,-3.392l3.061,2.521c-1.68,2.121 -3.531,3.642 -5.552,4.562c-2.021,0.921 -4.192,1.381 -6.513,1.381c-2.081,-0 -4.012,-0.37 -5.793,-1.111c-1.78,-0.74 -3.311,-1.77 -4.592,-3.091c-1.28,-1.321 -2.291,-2.881 -3.031,-4.682c-0.74,-1.801 -1.11,-3.762 -1.11,-5.883c-0,-2.121 0.36,-4.081 1.08,-5.882c0.72,-1.801 1.721,-3.362 3.001,-4.682c1.281,-1.321 2.782,-2.351 4.502,-3.092c1.721,-0.74 3.582,-1.11 5.583,-1.11c2.121,-0 4.022,0.38 5.702,1.14c1.681,0.761 3.092,1.771 4.232,3.032c1.141,1.26 2.011,2.741 2.611,4.442c0.601,1.7 0.901,3.511 0.901,5.432l-0,1.801l-23.411,-0Z" style="fill-rule:nonzero;"/>
    <rect x="367.372" y="676.174" width="3.962" height="45.38" style="fill-rule:nonzero;"/>
    <path d="M418.035,700.064c-0.681,-1.04 -1.631,-1.921 -2.852,-2.641c-1.22,-0.72 -2.611,-1.081 -4.171,-1.081c-1.641,-0.04 -3.112,0.22 -4.412,0.781c-1.301,0.56 -2.411,1.34 -3.332,2.341c-0.92,1 -1.621,2.191 -2.101,3.571c-0.48,1.381 -0.72,2.872 -0.72,4.472c-0,1.601 0.24,3.092 0.72,4.472c0.48,1.381 1.181,2.571 2.101,3.572c0.921,1 2.031,1.781 3.332,2.341c1.3,0.56 2.771,0.82 4.412,0.78c1.56,0 2.951,-0.36 4.171,-1.08c1.221,-0.721 2.171,-1.601 2.852,-2.641l3.241,2.461c-1.401,1.64 -2.981,2.851 -4.742,3.631c-1.761,0.781 -3.602,1.191 -5.522,1.231c-2.281,0.04 -4.342,-0.31 -6.183,-1.051c-1.841,-0.74 -3.412,-1.77 -4.712,-3.091c-1.301,-1.321 -2.291,-2.891 -2.972,-4.712c-0.68,-1.821 -1.02,-3.792 -1.02,-5.913c-0,-2.121 0.34,-4.091 1.02,-5.912c0.681,-1.821 1.671,-3.392 2.972,-4.712c1.3,-1.321 2.871,-2.351 4.712,-3.092c1.841,-0.74 3.902,-1.09 6.183,-1.05c1.92,0.04 3.761,0.45 5.522,1.23c1.761,0.781 3.341,1.991 4.742,3.632l-3.241,2.461Z" style="fill-rule:nonzero;"/>
    <path d="M450.569,707.507c-0,-1.56 -0.25,-3.021 -0.75,-4.382c-0.501,-1.36 -1.211,-2.541 -2.131,-3.541c-0.921,-1.001 -2.031,-1.791 -3.332,-2.371c-1.3,-0.58 -2.771,-0.871 -4.412,-0.871c-1.64,0 -3.111,0.291 -4.412,0.871c-1.3,0.58 -2.401,1.37 -3.301,2.371c-0.901,1 -1.601,2.181 -2.101,3.541c-0.5,1.361 -0.75,2.822 -0.75,4.382c-0,1.561 0.25,3.022 0.75,4.382c0.5,1.361 1.2,2.541 2.101,3.542c0.9,1 2.001,1.791 3.301,2.371c1.301,0.58 2.772,0.87 4.412,0.87c1.641,0 3.112,-0.29 4.412,-0.87c1.301,-0.58 2.411,-1.371 3.332,-2.371c0.92,-1.001 1.63,-2.181 2.131,-3.542c0.5,-1.36 0.75,-2.821 0.75,-4.382Zm4.322,0c-0,2.121 -0.37,4.082 -1.111,5.883c-0.74,1.801 -1.77,3.361 -3.091,4.682c-1.321,1.321 -2.891,2.351 -4.712,3.091c-1.821,0.741 -3.832,1.111 -6.033,1.111c-2.161,-0 -4.152,-0.37 -5.972,-1.111c-1.821,-0.74 -3.392,-1.77 -4.712,-3.091c-1.321,-1.321 -2.351,-2.881 -3.092,-4.682c-0.74,-1.801 -1.11,-3.762 -1.11,-5.883c-0,-2.121 0.37,-4.081 1.11,-5.882c0.741,-1.801 1.771,-3.362 3.092,-4.682c1.32,-1.321 2.891,-2.351 4.712,-3.092c1.82,-0.74 3.811,-1.11 5.972,-1.11c2.201,-0 4.212,0.37 6.033,1.11c1.821,0.741 3.391,1.771 4.712,3.092c1.321,1.32 2.351,2.881 3.091,4.682c0.741,1.801 1.111,3.761 1.111,5.882Z" style="fill-rule:nonzero;"/>
    <path d="M462.094,699.704c-0,-1.041 -0.03,-2.081 -0.09,-3.122c-0.06,-1.04 -0.13,-2.08 -0.21,-3.121l4.262,0l-0,4.262l0.12,-0c0.96,-1.641 2.291,-2.881 3.992,-3.722c1.7,-0.84 3.391,-1.26 5.072,-1.26c0.76,-0 1.57,0.08 2.431,0.24c0.86,0.16 1.691,0.45 2.491,0.87c0.8,0.42 1.551,1.011 2.251,1.771c0.7,0.76 1.29,1.741 1.771,2.941c0.8,-1.8 2.071,-3.221 3.811,-4.262c1.741,-1.04 3.552,-1.56 5.433,-1.56c3.601,-0 6.263,0.95 7.983,2.851c1.721,1.901 2.581,4.612 2.581,8.134l0,17.827l-3.961,0l-0,-16.387c-0,-2.841 -0.501,-5.022 -1.501,-6.543c-1,-1.52 -2.861,-2.281 -5.582,-2.281c-1.481,0 -2.722,0.291 -3.722,0.871c-1.001,0.58 -1.811,1.35 -2.431,2.311c-0.62,0.96 -1.071,2.051 -1.351,3.271c-0.28,1.221 -0.42,2.491 -0.42,3.812l0,14.946l-3.962,0l0,-16.387c0,-2.841 -0.5,-5.022 -1.5,-6.543c-1.001,-1.52 -2.862,-2.281 -5.583,-2.281c-0.24,0 -0.79,0.08 -1.651,0.24c-0.86,0.161 -1.75,0.601 -2.671,1.321c-0.92,0.72 -1.75,1.801 -2.491,3.242c-0.74,1.44 -1.11,3.441 -1.11,6.002l-0,14.406l-3.962,0l-0,-21.849Z" style="fill-rule:nonzero;"/>
    <path d="M538.868,707.507c-0,-1.56 -0.25,-3.021 -0.751,-4.382c-0.5,-1.36 -1.21,-2.541 -2.131,-3.541c-0.92,-1.001 -2.03,-1.791 -3.331,-2.371c-1.301,-0.58 -2.771,-0.871 -4.412,-0.871c-1.641,0 -3.141,0.291 -4.502,0.871c-1.36,0.58 -2.541,1.37 -3.541,2.371c-1.001,1 -1.781,2.181 -2.341,3.541c-0.561,1.361 -0.841,2.822 -0.841,4.382c0,1.561 0.28,3.022 0.841,4.382c0.56,1.361 1.34,2.541 2.341,3.542c1,1 2.181,1.791 3.541,2.371c1.361,0.58 2.861,0.87 4.502,0.87c1.641,0 3.111,-0.29 4.412,-0.87c1.301,-0.58 2.411,-1.371 3.331,-2.371c0.921,-1.001 1.631,-2.181 2.131,-3.542c0.501,-1.36 0.751,-2.821 0.751,-4.382Zm-25.632,-14.046l3.962,0l0,4.682l0.12,0c0.641,-0.96 1.401,-1.781 2.281,-2.461c0.881,-0.68 1.801,-1.24 2.761,-1.681c0.961,-0.44 1.951,-0.76 2.972,-0.96c1.02,-0.2 1.991,-0.3 2.911,-0.3c2.201,-0 4.212,0.37 6.033,1.11c1.821,0.741 3.391,1.771 4.712,3.092c1.32,1.32 2.351,2.881 3.091,4.682c0.74,1.801 1.111,3.761 1.111,5.882c-0,2.121 -0.371,4.082 -1.111,5.883c-0.74,1.801 -1.771,3.361 -3.091,4.682c-1.321,1.321 -2.891,2.351 -4.712,3.091c-1.821,0.741 -3.832,1.111 -6.033,1.111c-0.92,-0 -1.891,-0.1 -2.911,-0.3c-1.021,-0.2 -2.011,-0.521 -2.972,-0.961c-0.96,-0.44 -1.88,-1 -2.761,-1.681c-0.88,-0.68 -1.64,-1.5 -2.281,-2.461l-0.12,0l0,21.97l-3.962,0l0,-45.38Z" style="fill-rule:nonzero;"/>
    <rect x="550.813" y="676.174" width="3.962" height="45.38" style="fill-rule:nonzero;"/>
    <path d="M586.169,705.346c-0,-2.681 -0.801,-4.852 -2.402,-6.513c-1.6,-1.66 -3.841,-2.491 -6.722,-2.491c-1.281,0 -2.522,0.25 -3.722,0.751c-1.201,0.5 -2.251,1.17 -3.151,2.011c-0.901,0.84 -1.621,1.8 -2.161,2.881c-0.541,1.08 -0.811,2.201 -0.811,3.361l18.969,0Zm-19.089,3.242c0.12,1.4 0.46,2.721 1.021,3.962c0.56,1.24 1.3,2.311 2.221,3.211c0.92,0.9 1.98,1.611 3.181,2.131c1.201,0.52 2.501,0.78 3.902,0.78c2.121,0 3.951,-0.49 5.492,-1.47c1.541,-0.981 2.711,-2.111 3.512,-3.392l3.061,2.521c-1.681,2.121 -3.532,3.642 -5.552,4.562c-2.021,0.921 -4.192,1.381 -6.513,1.381c-2.081,-0 -4.012,-0.37 -5.793,-1.111c-1.781,-0.74 -3.311,-1.77 -4.592,-3.091c-1.28,-1.321 -2.291,-2.881 -3.031,-4.682c-0.741,-1.801 -1.111,-3.762 -1.111,-5.883c0,-2.121 0.36,-4.081 1.081,-5.882c0.72,-1.801 1.721,-3.362 3.001,-4.682c1.281,-1.321 2.781,-2.351 4.502,-3.092c1.721,-0.74 3.582,-1.11 5.583,-1.11c2.12,-0 4.021,0.38 5.702,1.14c1.681,0.761 3.091,1.771 4.232,3.032c1.14,1.26 2.011,2.741 2.611,4.442c0.6,1.7 0.9,3.511 0.9,5.432l0,1.801l-23.41,-0Z" style="fill-rule:nonzero;"/>
    <path d="M604.957,706.547l-10.205,-13.086l5.403,0l7.803,10.505l7.443,-10.505l4.923,0l-9.785,13.086l11.765,15.006l-5.402,0l-9.424,-12.305l-9.064,12.305l-5.042,0l11.585,-15.006Z" style="fill-rule:nonzero;"/>
    <path d="M632.389,682.656c-0,0.841 -0.3,1.531 -0.901,2.071c-0.6,0.541 -1.26,0.811 -1.98,0.811c-0.721,-0 -1.381,-0.27 -1.981,-0.811c-0.601,-0.54 -0.901,-1.23 -0.901,-2.071c0,-0.84 0.3,-1.53 0.901,-2.071c0.6,-0.54 1.26,-0.81 1.981,-0.81c0.72,0 1.38,0.27 1.98,0.81c0.601,0.541 0.901,1.231 0.901,2.071Zm-0.901,38.897l-3.961,0l-0,-28.092l3.961,0l0,28.092Z" style="fill-rule:nonzero;"/>
    <path d="M655.559,697.063l-8.103,-0l-0,16.567c-0,1.04 0.1,1.891 0.3,2.551c0.2,0.66 0.48,1.171 0.84,1.531c0.36,0.36 0.79,0.61 1.291,0.75c0.5,0.14 1.05,0.21 1.65,0.21c0.681,0 1.381,-0.1 2.101,-0.3c0.721,-0.2 1.381,-0.46 1.981,-0.78l0.18,3.661c-1.48,0.681 -3.261,1.021 -5.342,1.021c-0.761,-0 -1.551,-0.1 -2.371,-0.3c-0.821,-0.2 -1.571,-0.581 -2.251,-1.141c-0.681,-0.56 -1.241,-1.32 -1.681,-2.281c-0.44,-0.96 -0.66,-2.221 -0.66,-3.782l-0,-17.707l-5.943,-0l0,-3.602l5.943,0l-0,-7.923l3.962,-0l-0,7.923l8.103,0l0,3.602Z" style="fill-rule:nonzero;"/>
    <path d="M671.406,716.691l8.584,-23.23l4.802,0l-14.046,35.416c-0.841,2.161 -1.911,3.881 -3.212,5.162c-1.3,1.281 -3.171,1.921 -5.612,1.921c-0.6,-0 -1.211,-0.02 -1.831,-0.06c-0.62,-0.04 -1.23,-0.16 -1.831,-0.36l0.42,-3.842c0.841,0.44 1.841,0.66 3.002,0.66c1.4,0 2.501,-0.44 3.301,-1.32c0.801,-0.881 1.501,-2.121 2.101,-3.722l2.041,-5.402l-11.525,-28.453l4.982,0l8.824,23.23Z" style="fill-rule:nonzero;"/>
    <path d="M123.819,150.613c24.01,366.53 282.867,453.732 611.764,457.627" style="fill:none;stroke:rgb(68,174,222);stroke-width:20.41px;"/>
    <path d="M142.645,551.169c-0,-1.759 -0.283,-3.406 -0.847,-4.941c-0.564,-1.534 -1.365,-2.865 -2.402,-3.993c-1.038,-1.128 -2.29,-2.019 -3.757,-2.674c-1.466,-0.654 -3.125,-0.981 -4.975,-0.981c-1.85,0 -3.542,0.327 -5.076,0.981c-1.534,0.655 -2.865,1.546 -3.993,2.674c-1.129,1.128 -2.008,2.459 -2.64,3.993c-0.632,1.535 -0.948,3.182 -0.948,4.941c0,1.76 0.316,3.407 0.948,4.941c0.632,1.535 1.511,2.866 2.64,3.994c1.128,1.128 2.459,2.019 3.993,2.673c1.534,0.655 3.226,0.982 5.076,0.982c1.85,-0 3.509,-0.327 4.975,-0.982c1.467,-0.654 2.719,-1.545 3.757,-2.673c1.037,-1.128 1.838,-2.459 2.402,-3.994c0.564,-1.534 0.847,-3.181 0.847,-4.941Zm-28.902,-35.331l4.467,-0l0,24.773l0.136,-0c0.722,-1.083 1.579,-2.008 2.572,-2.775c0.992,-0.768 2.03,-1.399 3.113,-1.896c1.083,-0.496 2.2,-0.857 3.351,-1.083c1.15,-0.225 2.244,-0.338 3.282,-0.338c2.482,-0 4.75,0.417 6.803,1.252c2.053,0.835 3.824,1.997 5.313,3.486c1.489,1.489 2.651,3.249 3.486,5.279c0.834,2.031 1.252,4.242 1.252,6.633c-0,2.392 -0.418,4.603 -1.252,6.634c-0.835,2.03 -1.997,3.79 -3.486,5.279c-1.489,1.489 -3.26,2.651 -5.313,3.486c-2.053,0.835 -4.321,1.252 -6.803,1.252c-1.038,-0 -2.132,-0.113 -3.282,-0.339c-1.151,-0.225 -2.268,-0.586 -3.351,-1.082c-1.083,-0.497 -2.121,-1.129 -3.113,-1.896c-0.993,-0.767 -1.85,-1.692 -2.572,-2.775l-0.136,0l0,5.28l-4.467,-0l0,-51.17Z" style="fill:rgb(68,174,222);fill-rule:nonzero;stroke:rgb(68,174,222);stroke-width:1px;stroke-linecap:butt;stroke-miterlimit:2;"/>
    <path d="M161.596,523.148c0,0.947 -0.338,1.726 -1.015,2.335c-0.677,0.609 -1.421,0.914 -2.234,0.914c-0.812,-0 -1.556,-0.305 -2.233,-0.914c-0.677,-0.609 -1.015,-1.388 -1.015,-2.335c-0,-0.948 0.338,-1.726 1.015,-2.335c0.677,-0.609 1.421,-0.914 2.233,-0.914c0.813,0 1.557,0.305 2.234,0.914c0.677,0.609 1.015,1.387 1.015,2.335Zm-1.015,43.86l-4.467,-0l-0,-31.677l4.467,0l-0,31.677Z" style="fill:rgb(68,174,222);fill-rule:nonzero;stroke:rgb(68,174,222);stroke-width:1px;stroke-linecap:butt;stroke-miterlimit:2;"/>
    <path d="M189.347,551.237c-1.128,0 -2.538,0.057 -4.23,0.169c-1.692,0.113 -3.317,0.384 -4.874,0.813c-1.556,0.428 -2.887,1.094 -3.993,1.996c-1.105,0.903 -1.658,2.144 -1.658,3.723c-0,1.038 0.214,1.929 0.643,2.673c0.428,0.745 1.004,1.354 1.726,1.828c0.722,0.474 1.523,0.812 2.403,1.015c0.879,0.203 1.771,0.305 2.673,0.305c1.625,-0 3.035,-0.271 4.23,-0.812c1.196,-0.542 2.2,-1.275 3.012,-2.2c0.813,-0.925 1.41,-2.008 1.794,-3.249c0.384,-1.241 0.575,-2.561 0.575,-3.96l0,-2.301l-2.301,0Zm2.301,-3.655l0,-0.812c0,-5.46 -2.707,-8.19 -8.122,-8.19c-3.7,0 -6.926,1.241 -9.679,3.723l-2.707,-3.181c2.978,-3.069 7.445,-4.603 13.401,-4.603c1.535,-0 3.012,0.226 4.434,0.677c1.421,0.451 2.651,1.139 3.689,2.064c1.037,0.925 1.872,2.087 2.504,3.486c0.632,1.399 0.948,3.068 0.948,5.009l-0,14.146c-0,1.218 0.056,2.493 0.169,3.824c0.113,1.331 0.237,2.425 0.372,3.283l-4.332,-0c-0.135,-0.767 -0.237,-1.602 -0.304,-2.505c-0.068,-0.902 -0.102,-1.782 -0.102,-2.639l-0.135,-0c-1.309,2.12 -2.854,3.643 -4.637,4.568c-1.782,0.925 -3.959,1.388 -6.531,1.388c-1.399,-0 -2.753,-0.192 -4.061,-0.575c-1.309,-0.384 -2.471,-0.971 -3.486,-1.76c-1.015,-0.79 -1.828,-1.76 -2.437,-2.911c-0.609,-1.15 -0.914,-2.493 -0.914,-4.027c0,-2.572 0.666,-4.591 1.997,-6.058c1.331,-1.466 3.001,-2.56 5.009,-3.282c2.008,-0.722 4.151,-1.174 6.43,-1.354c2.279,-0.181 4.366,-0.271 6.261,-0.271l2.233,0Z" style="fill:rgb(68,174,222);fill-rule:nonzero;stroke:rgb(68,174,222);stroke-width:1px;stroke-linecap:butt;stroke-miterlimit:2;"/>
    <path d="M223.257,542.844c-0.677,-1.308 -1.579,-2.346 -2.707,-3.113c-1.128,-0.767 -2.505,-1.151 -4.129,-1.151c-0.767,0 -1.545,0.09 -2.335,0.271c-0.79,0.18 -1.5,0.462 -2.132,0.846c-0.632,0.383 -1.14,0.868 -1.523,1.455c-0.384,0.587 -0.575,1.309 -0.575,2.166c-0,1.489 0.519,2.572 1.556,3.249c1.038,0.677 2.595,1.263 4.671,1.76l4.534,1.083c2.212,0.496 4.05,1.5 5.517,3.012c1.466,1.511 2.2,3.395 2.2,5.651c-0,1.715 -0.35,3.193 -1.05,4.434c-0.699,1.241 -1.624,2.256 -2.775,3.045c-1.15,0.79 -2.47,1.365 -3.959,1.726c-1.489,0.361 -3.001,0.542 -4.535,0.542c-2.437,-0 -4.704,-0.463 -6.802,-1.388c-2.099,-0.925 -3.892,-2.515 -5.381,-4.771l3.858,-2.64c0.902,1.444 2.042,2.594 3.418,3.452c1.376,0.857 3.012,1.286 4.907,1.286c0.902,-0 1.805,-0.102 2.707,-0.305c0.903,-0.203 1.704,-0.519 2.403,-0.947c0.7,-0.429 1.264,-0.982 1.692,-1.659c0.429,-0.676 0.643,-1.466 0.643,-2.369c0,-1.579 -0.586,-2.718 -1.76,-3.418c-1.173,-0.699 -2.594,-1.252 -4.264,-1.658l-4.332,-1.015c-0.541,-0.136 -1.274,-0.361 -2.199,-0.677c-0.925,-0.316 -1.828,-0.79 -2.708,-1.421c-0.88,-0.632 -1.635,-1.456 -2.267,-2.471c-0.632,-1.015 -0.948,-2.267 -0.948,-3.756c0,-1.625 0.327,-3.046 0.982,-4.265c0.654,-1.218 1.534,-2.211 2.639,-2.978c1.106,-0.767 2.358,-1.342 3.757,-1.726c1.399,-0.383 2.843,-0.575 4.332,-0.575c2.211,-0 4.264,0.429 6.159,1.286c1.895,0.857 3.362,2.324 4.4,4.399l-3.994,2.64Z" style="fill:rgb(68,174,222);fill-rule:nonzero;stroke:rgb(68,174,222);stroke-width:1px;stroke-linecap:butt;stroke-miterlimit:2;"/>
    <path d="M262.895,537.281l-28.28,0l0,-5.216l17.722,-18.036c0.67,-0.67 1.341,-1.382 2.011,-2.136c0.67,-0.754 1.278,-1.55 1.822,-2.388c0.545,-0.838 0.985,-1.718 1.32,-2.64c0.335,-0.921 0.503,-1.885 0.503,-2.89c-0,-1.215 -0.22,-2.305 -0.66,-3.268c-0.44,-0.964 -1.058,-1.781 -1.854,-2.451c-0.796,-0.67 -1.718,-1.184 -2.765,-1.54c-1.047,-0.356 -2.158,-0.534 -3.331,-0.534c-2.262,0 -4.189,0.629 -5.781,1.885c-1.592,1.257 -2.619,2.954 -3.079,5.091l-4.776,-0.503c0.628,-3.31 2.147,-5.907 4.556,-7.793c2.409,-1.885 5.331,-2.827 8.766,-2.827c1.802,-0 3.509,0.24 5.122,0.722c1.613,0.482 3.037,1.205 4.273,2.168c1.236,0.964 2.221,2.168 2.954,3.614c0.733,1.445 1.1,3.131 1.1,5.059c-0,1.717 -0.262,3.288 -0.786,4.713c-0.524,1.424 -1.204,2.765 -2.042,4.022c-0.838,1.257 -1.791,2.451 -2.86,3.582c-1.068,1.131 -2.168,2.241 -3.299,3.33l-14.014,13.889l23.378,-0l-0,4.147Z" style="fill:rgb(68,174,222);fill-rule:nonzero;stroke:rgb(68,174,222);stroke-width:1px;stroke-linecap:butt;stroke-miterlimit:2;"/>
    <path d="M117.613,612.334c348.947,15.547 588.441,-104.388 661.574,-454.751" style="fill:rgb(42,255,0);fill-opacity:0;stroke:rgb(95,222,68);stroke-width:20.41px;"/>
    <path d="M760.616,419.493l-2.24,5.156l-38.354,-0.926l2.39,-5.504l31.959,1.543l0.06,-0.139l-22.94,-22.304l2.27,-5.225l26.855,27.399Z" style="fill:rgb(95,222,68);fill-rule:nonzero;stroke:rgb(95,222,68);stroke-width:1px;stroke-linecap:butt;stroke-miterlimit:2;"/>
    <path d="M760.785,374.682c-0.505,1.161 -1.077,2.638 -1.717,4.43c-0.641,1.792 -1.088,3.585 -1.343,5.379c-0.255,1.794 -0.165,3.462 0.27,5.003c0.434,1.542 1.464,2.666 3.09,3.372c1.068,0.464 2.081,0.641 3.039,0.533c0.958,-0.108 1.842,-0.428 2.653,-0.959c0.81,-0.532 1.517,-1.205 2.119,-2.02c0.603,-0.815 1.106,-1.686 1.509,-2.615c0.726,-1.672 1.078,-3.245 1.055,-4.718c-0.022,-1.473 -0.328,-2.834 -0.917,-4.084c-0.589,-1.249 -1.436,-2.349 -2.542,-3.298c-1.106,-0.95 -2.379,-1.737 -3.819,-2.363l-2.368,-1.029l-1.029,2.369Zm-2.733,-4.003l-0.836,-0.363c-5.62,-2.441 -9.641,-0.875 -12.062,4.699c-1.654,3.808 -1.819,7.684 -0.495,11.626l-4.485,1.365c-1.827,-4.437 -1.409,-9.721 1.254,-15.852c0.686,-1.579 1.579,-3 2.679,-4.261c1.1,-1.261 2.358,-2.219 3.774,-2.874c1.416,-0.655 2.985,-0.994 4.708,-1.019c1.722,-0.025 3.582,0.396 5.579,1.264l14.56,6.325c1.255,0.544 2.592,1.056 4.012,1.535c1.421,0.479 2.603,0.841 3.546,1.085l-1.937,4.459c-0.85,-0.204 -1.755,-0.473 -2.714,-0.807c-0.959,-0.333 -1.88,-0.692 -2.762,-1.075l-0.061,0.139c1.598,2.295 2.475,4.567 2.63,6.815c0.155,2.248 -0.342,4.696 -1.492,7.343c-0.626,1.44 -1.428,2.748 -2.408,3.923c-0.98,1.176 -2.103,2.109 -3.37,2.801c-1.267,0.692 -2.628,1.095 -4.085,1.207c-1.457,0.113 -2.975,-0.174 -4.554,-0.86c-2.647,-1.15 -4.428,-2.738 -5.343,-4.764c-0.914,-2.025 -1.294,-4.233 -1.139,-6.623c0.155,-2.389 0.648,-4.797 1.481,-7.223c0.833,-2.427 1.674,-4.615 2.521,-6.566l0.999,-2.299Z" style="fill:rgb(95,222,68);fill-rule:nonzero;stroke:rgb(95,222,68);stroke-width:1px;stroke-linecap:butt;stroke-miterlimit:2;"/>
    <path d="M762.452,353.875c-1.439,-0.626 -2.918,-1.226 -4.434,-1.802c-1.517,-0.576 -3.469,-1.355 -5.858,-2.338l1.967,-4.528l6.061,2.633l0.06,-0.14c-0.741,-0.708 -1.387,-1.541 -1.937,-2.498c-0.551,-0.956 -0.965,-2.006 -1.242,-3.147c-0.277,-1.142 -0.365,-2.368 -0.266,-3.677c0.1,-1.309 0.462,-2.684 1.087,-4.124c0.565,-1.3 1.199,-2.378 1.901,-3.232l4.135,2.873c-0.494,0.503 -0.994,1.335 -1.498,2.496c-0.767,1.765 -1.086,3.42 -0.957,4.967c0.129,1.547 0.534,2.965 1.216,4.255c0.682,1.29 1.541,2.394 2.577,3.314c1.036,0.919 2.112,1.621 3.226,2.105l18.393,7.989l-1.997,4.598l-22.434,-9.744Z" style="fill:rgb(95,222,68);fill-rule:nonzero;stroke:rgb(95,222,68);stroke-width:1px;stroke-linecap:butt;stroke-miterlimit:2;"/>
    <path d="M752.481,314.679c0.975,0.424 1.625,1.12 1.949,2.089c0.325,0.969 0.305,1.872 -0.058,2.708c-0.363,0.836 -1.009,1.466 -1.939,1.89c-0.93,0.425 -1.882,0.425 -2.857,0.001c-0.976,-0.423 -1.626,-1.12 -1.95,-2.089c-0.325,-0.969 -0.305,-1.871 0.058,-2.707c0.363,-0.836 1.01,-1.467 1.939,-1.891c0.93,-0.424 1.882,-0.425 2.858,-0.001Zm44.691,20.655l-1.997,4.598l-32.605,-14.163l1.997,-4.598l32.605,14.163Z" style="fill:rgb(95,222,68);fill-rule:nonzero;stroke:rgb(95,222,68);stroke-width:1px;stroke-linecap:butt;stroke-miterlimit:2;"/>
    <path d="M793.8,298.674c-0.504,1.161 -1.076,2.638 -1.717,4.43c-0.64,1.792 -1.088,3.585 -1.343,5.379c-0.254,1.794 -0.165,3.462 0.27,5.003c0.435,1.541 1.465,2.665 3.09,3.371c1.069,0.464 2.082,0.642 3.04,0.534c0.958,-0.109 1.842,-0.428 2.653,-0.96c0.81,-0.531 1.517,-1.204 2.119,-2.019c0.602,-0.815 1.105,-1.687 1.509,-2.616c0.726,-1.672 1.078,-3.244 1.055,-4.717c-0.023,-1.473 -0.328,-2.834 -0.917,-4.084c-0.589,-1.249 -1.437,-2.349 -2.543,-3.299c-1.105,-0.949 -2.378,-1.737 -3.818,-2.362l-2.369,-1.029l-1.029,2.369Zm-2.733,-4.003l-0.836,-0.363c-5.62,-2.441 -9.64,-0.875 -12.061,4.698c-1.654,3.809 -1.82,7.684 -0.496,11.627l-4.485,1.365c-1.826,-4.438 -1.408,-9.722 1.255,-15.852c0.686,-1.58 1.579,-3 2.679,-4.261c1.099,-1.261 2.358,-2.219 3.774,-2.874c1.416,-0.655 2.985,-0.995 4.707,-1.019c1.723,-0.025 3.582,0.396 5.579,1.264l14.561,6.324c1.254,0.545 2.591,1.057 4.012,1.536c1.421,0.479 2.602,0.841 3.545,1.085l-1.936,4.458c-0.85,-0.203 -1.755,-0.472 -2.714,-0.806c-0.959,-0.334 -1.88,-0.692 -2.763,-1.076l-0.06,0.14c1.598,2.295 2.474,4.567 2.629,6.815c0.156,2.248 -0.342,4.696 -1.492,7.343c-0.625,1.44 -1.428,2.748 -2.408,3.923c-0.979,1.175 -2.103,2.109 -3.369,2.801c-1.267,0.692 -2.629,1.094 -4.086,1.207c-1.456,0.112 -2.974,-0.174 -4.553,-0.86c-2.648,-1.15 -4.429,-2.738 -5.343,-4.764c-0.914,-2.026 -1.294,-4.233 -1.139,-6.623c0.154,-2.39 0.648,-4.798 1.481,-7.224c0.833,-2.426 1.673,-4.614 2.521,-6.565l0.998,-2.299Z" style="fill:rgb(95,222,68);fill-rule:nonzero;stroke:rgb(95,222,68);stroke-width:1px;stroke-linecap:butt;stroke-miterlimit:2;"/>
    <path d="M786.991,269.547c0.923,0.29 1.819,0.611 2.688,0.961c0.87,0.35 1.745,0.716 2.628,1.1l0.06,-0.14c-0.66,-0.894 -1.19,-1.897 -1.591,-3.01c-0.4,-1.112 -0.655,-2.272 -0.766,-3.479c-0.11,-1.208 -0.079,-2.423 0.093,-3.645c0.172,-1.223 0.49,-2.368 0.954,-3.436c1.816,-4.181 4.261,-6.79 7.334,-7.829c3.074,-1.039 6.655,-0.671 10.742,1.105l20.691,8.988l-1.997,4.598l-18.044,-7.838c-3.623,-1.574 -6.67,-2.152 -9.143,-1.735c-2.472,0.416 -4.444,2.32 -5.917,5.711c-0.101,0.232 -0.29,0.922 -0.569,2.071c-0.278,1.149 -0.256,2.498 0.065,4.045c0.322,1.548 1.117,3.149 2.386,4.804c1.268,1.655 3.389,3.128 6.361,4.42l16.721,7.262l-1.998,4.599l-25.429,-11.046c-0.882,-0.383 -2.012,-0.833 -3.389,-1.348c-1.377,-0.515 -2.69,-0.989 -3.938,-1.421l2.058,-4.737Z" style="fill:rgb(95,222,68);fill-rule:nonzero;stroke:rgb(95,222,68);stroke-width:1px;stroke-linecap:butt;stroke-miterlimit:2;"/>
    <path d="M819.893,214.772c-1.551,0.265 -3.052,0.925 -4.503,1.978c-1.451,1.053 -2.57,2.486 -3.357,4.297c-0.874,1.884 -1.313,3.722 -1.319,5.514c-0.005,1.792 0.341,3.474 1.038,5.047c0.697,1.573 1.726,2.986 3.086,4.239c1.36,1.253 2.969,2.284 4.827,3.091c1.858,0.807 3.709,1.279 5.554,1.418c1.844,0.139 3.579,-0.074 5.204,-0.638c1.625,-0.564 3.091,-1.459 4.397,-2.686c1.305,-1.227 2.349,-2.803 3.129,-4.727c0.787,-1.812 1.07,-3.607 0.85,-5.387c-0.221,-1.78 -0.764,-3.327 -1.628,-4.641l4.49,-2.521c1.198,2.453 1.806,4.897 1.824,7.335c0.018,2.437 -0.433,4.78 -1.355,7.029c-1.104,2.668 -2.549,4.883 -4.337,6.647c-1.787,1.763 -3.775,3.066 -5.963,3.91c-2.188,0.844 -4.511,1.202 -6.967,1.073c-2.456,-0.128 -4.915,-0.727 -7.377,-1.796c-2.461,-1.07 -4.577,-2.458 -6.348,-4.165c-1.77,-1.708 -3.094,-3.649 -3.971,-5.825c-0.877,-2.175 -1.281,-4.517 -1.212,-7.027c0.069,-2.51 0.701,-5.078 1.898,-7.705c1.015,-2.21 2.419,-4.139 4.212,-5.79c1.793,-1.65 3.995,-2.874 6.606,-3.673l1.222,5.003Z" style="fill:rgb(95,222,68);fill-rule:nonzero;stroke:rgb(95,222,68);stroke-width:1px;stroke-linecap:butt;stroke-miterlimit:2;"/>
    <path d="M841.306,182.253c-3.112,-1.352 -6.035,-1.517 -8.77,-0.497c-2.734,1.021 -4.828,3.203 -6.28,6.547c-0.646,1.486 -0.981,3.052 -1.005,4.698c-0.025,1.645 0.223,3.202 0.745,4.671c0.521,1.469 1.273,2.789 2.254,3.961c0.982,1.172 2.146,2.05 3.493,2.635l9.563,-22.015Zm-5.861,23.788c1.686,0.567 3.39,0.838 5.112,0.813c1.723,-0.024 3.338,-0.344 4.847,-0.958c1.509,-0.615 2.868,-1.487 4.077,-2.618c1.209,-1.132 2.167,-2.51 2.873,-4.136c1.069,-2.461 1.423,-4.833 1.062,-7.116c-0.361,-2.282 -1.083,-4.21 -2.166,-5.785l4.47,-2.282c1.614,3.02 2.446,5.935 2.495,8.744c0.05,2.81 -0.511,5.561 -1.681,8.255c-1.049,2.415 -2.452,4.47 -4.209,6.163c-1.757,1.694 -3.725,2.951 -5.903,3.772c-2.178,0.82 -4.499,1.206 -6.962,1.157c-2.464,-0.048 -4.926,-0.607 -7.388,-1.676c-2.461,-1.07 -4.555,-2.476 -6.282,-4.22c-1.727,-1.744 -3.034,-3.692 -3.921,-5.844c-0.888,-2.152 -1.327,-4.413 -1.319,-6.784c0.009,-2.37 0.517,-4.716 1.526,-7.039c1.069,-2.461 2.469,-4.476 4.198,-6.043c1.73,-1.568 3.614,-2.695 5.652,-3.384c2.038,-0.688 4.195,-0.951 6.472,-0.791c2.276,0.161 4.529,0.726 6.759,1.694l2.09,0.908l-11.802,27.17Z" style="fill:rgb(95,222,68);fill-rule:nonzero;stroke:rgb(95,222,68);stroke-width:1px;stroke-linecap:butt;stroke-miterlimit:2;"/>
    <path d="M145.009,134.492c87.081,523.402 551.321,394.945 603.615,-0.846" style="fill:rgb(222,68,111);fill-opacity:0;stroke:rgb(222,68,111);stroke-width:20.41px;"/>
    <path d="M423.574,653.819l-0,-522.401" style="fill:none;stroke:black;stroke-width:20.41px;"/>
    <g transform="matrix(0.509554,0,0,0.509554,-448.816,-210.735)">
        <g transform="matrix(104.712,0,0,104.712,1374.16,493.712)">
            <path d="M0.473,-0.234c0,-0.026 -0.004,-0.05 -0.013,-0.073c-0.008,-0.023 -0.02,-0.042 -0.035,-0.059c-0.015,-0.017 -0.034,-0.03 -0.056,-0.04c-0.021,-0.009 -0.046,-0.014 -0.073,-0.014c-0.027,0 -0.052,0.005 -0.074,0.014c-0.021,0.01 -0.04,0.023 -0.055,0.04c-0.015,0.017 -0.026,0.036 -0.035,0.059c-0.008,0.023 -0.012,0.047 -0.012,0.073c-0,0.026 0.004,0.05 0.012,0.073c0.009,0.023 0.02,0.042 0.035,0.059c0.015,0.017 0.034,0.03 0.055,0.039c0.022,0.01 0.047,0.015 0.074,0.015c0.027,-0 0.052,-0.005 0.073,-0.015c0.022,-0.009 0.041,-0.022 0.056,-0.039c0.015,-0.017 0.027,-0.036 0.035,-0.059c0.009,-0.023 0.013,-0.047 0.013,-0.073Zm0.072,-0c-0,0.035 -0.006,0.068 -0.019,0.098c-0.012,0.03 -0.029,0.056 -0.051,0.078c-0.022,0.022 -0.048,0.039 -0.079,0.051c-0.03,0.013 -0.063,0.019 -0.1,0.019c-0.036,-0 -0.069,-0.006 -0.1,-0.019c-0.03,-0.012 -0.056,-0.029 -0.078,-0.051c-0.022,-0.022 -0.039,-0.048 -0.052,-0.078c-0.012,-0.03 -0.018,-0.063 -0.018,-0.098c-0,-0.035 0.006,-0.068 0.018,-0.098c0.013,-0.03 0.03,-0.056 0.052,-0.078c0.022,-0.022 0.048,-0.039 0.078,-0.052c0.031,-0.012 0.064,-0.018 0.1,-0.018c0.037,0 0.07,0.006 0.1,0.018c0.031,0.013 0.057,0.03 0.079,0.052c0.022,0.022 0.039,0.048 0.051,0.078c0.013,0.03 0.019,0.063 0.019,0.098Z" style="fill-rule:nonzero;stroke:black;stroke-width:0.02px;stroke-linecap:butt;stroke-miterlimit:2;"/>
        </g>
        <g transform="matrix(104.712,0,0,104.712,1436.26,493.712)">
            <path d="M0.499,-0.234c-0,-0.026 -0.004,-0.05 -0.013,-0.073c-0.008,-0.023 -0.02,-0.042 -0.035,-0.059c-0.015,-0.017 -0.034,-0.03 -0.055,-0.04c-0.022,-0.009 -0.047,-0.014 -0.074,-0.014c-0.027,0 -0.052,0.005 -0.075,0.014c-0.023,0.01 -0.042,0.023 -0.059,0.04c-0.017,0.017 -0.03,0.036 -0.039,0.059c-0.009,0.023 -0.014,0.047 -0.014,0.073c0,0.026 0.005,0.05 0.014,0.073c0.009,0.023 0.022,0.042 0.039,0.059c0.017,0.017 0.036,0.03 0.059,0.039c0.023,0.01 0.048,0.015 0.075,0.015c0.027,-0 0.052,-0.005 0.074,-0.015c0.021,-0.009 0.04,-0.022 0.055,-0.039c0.015,-0.017 0.027,-0.036 0.036,-0.059c0.008,-0.023 0.012,-0.047 0.012,-0.073Zm-0.427,-0.234l0.066,-0l0,0.078l0.002,-0c0.011,-0.016 0.023,-0.03 0.038,-0.041c0.015,-0.011 0.03,-0.021 0.046,-0.028c0.016,-0.007 0.032,-0.013 0.049,-0.016c0.017,-0.003 0.034,-0.005 0.049,-0.005c0.037,0 0.07,0.006 0.1,0.018c0.031,0.013 0.057,0.03 0.079,0.052c0.022,0.022 0.039,0.048 0.051,0.078c0.013,0.03 0.019,0.063 0.019,0.098c0,0.035 -0.006,0.068 -0.019,0.098c-0.012,0.03 -0.029,0.056 -0.051,0.078c-0.022,0.022 -0.048,0.039 -0.079,0.051c-0.03,0.013 -0.063,0.019 -0.1,0.019c-0.015,-0 -0.031,-0.002 -0.048,-0.005c-0.017,-0.003 -0.034,-0.009 -0.05,-0.016c-0.016,-0.007 -0.031,-0.017 -0.046,-0.028c-0.015,-0.011 -0.027,-0.025 -0.038,-0.041l-0.002,-0l0,0.366l-0.066,0l0,-0.756Z" style="fill-rule:nonzero;stroke:black;stroke-width:0.02px;stroke-linecap:butt;stroke-miterlimit:2;"/>
        </g>
        <g transform="matrix(104.712,0,0,104.712,1500.23,493.712)">
            <path d="M0.314,-0.408l-0.135,0l0,0.276c-0,0.017 0.002,0.032 0.005,0.043c0.003,0.01 0.008,0.019 0.014,0.025c0.006,0.006 0.013,0.01 0.021,0.012c0.009,0.003 0.018,0.004 0.028,0.004c0.011,-0 0.023,-0.002 0.035,-0.005c0.012,-0.003 0.023,-0.008 0.033,-0.013l0.003,0.061c-0.025,0.011 -0.054,0.017 -0.089,0.017c-0.013,0 -0.026,-0.002 -0.04,-0.005c-0.013,-0.003 -0.026,-0.01 -0.037,-0.019c-0.011,-0.009 -0.021,-0.022 -0.028,-0.038c-0.007,-0.016 -0.011,-0.037 -0.011,-0.063l-0,-0.295l-0.099,-0l-0,-0.06l0.099,-0l-0,-0.132l0.066,0l-0,0.132l0.135,-0l-0,0.06Z" style="fill-rule:nonzero;stroke:black;stroke-width:0.02px;stroke-linecap:butt;stroke-miterlimit:2;"/>
        </g>
        <g transform="matrix(104.712,0,0,104.712,1535,493.712)">
            <path d="M0.168,-0.648c0,0.014 -0.005,0.025 -0.015,0.034c-0.01,0.01 -0.021,0.014 -0.033,0.014c-0.012,0 -0.023,-0.004 -0.033,-0.014c-0.01,-0.009 -0.015,-0.02 -0.015,-0.034c-0,-0.014 0.005,-0.026 0.015,-0.034c0.01,-0.009 0.021,-0.014 0.033,-0.014c0.012,0 0.023,0.005 0.033,0.014c0.01,0.008 0.015,0.02 0.015,0.034Zm-0.015,0.648l-0.066,-0l-0,-0.468l0.066,0l-0,0.468Z" style="fill-rule:nonzero;stroke:black;stroke-width:0.02px;stroke-linecap:butt;stroke-miterlimit:2;"/>
        </g>
        <g transform="matrix(104.712,0,0,104.712,1560.13,493.712)">
            <path d="M0.072,-0.364c0,-0.017 -0.001,-0.035 -0.002,-0.052c-0.001,-0.017 -0.002,-0.035 -0.003,-0.052l0.071,-0l0,0.071l0.002,-0c0.016,-0.027 0.038,-0.048 0.067,-0.062c0.028,-0.014 0.056,-0.021 0.084,-0.021c0.013,0 0.026,0.001 0.04,0.004c0.015,0.003 0.029,0.008 0.042,0.014c0.013,0.007 0.026,0.017 0.038,0.03c0.011,0.013 0.021,0.029 0.029,0.049c0.013,-0.03 0.035,-0.054 0.064,-0.071c0.029,-0.017 0.059,-0.026 0.09,-0.026c0.06,0 0.104,0.016 0.133,0.047c0.029,0.032 0.043,0.077 0.043,0.136l0,0.297l-0.066,-0l0,-0.273c0,-0.047 -0.008,-0.084 -0.025,-0.109c-0.017,-0.025 -0.048,-0.038 -0.093,-0.038c-0.025,0 -0.045,0.005 -0.062,0.014c-0.017,0.01 -0.03,0.023 -0.041,0.039c-0.01,0.016 -0.017,0.034 -0.022,0.054c-0.005,0.021 -0.007,0.042 -0.007,0.064l0,0.249l-0.066,-0l0,-0.273c0,-0.047 -0.008,-0.084 -0.025,-0.109c-0.017,-0.025 -0.048,-0.038 -0.093,-0.038c-0.004,0 -0.013,0.001 -0.028,0.004c-0.014,0.003 -0.029,0.01 -0.044,0.022c-0.015,0.012 -0.029,0.03 -0.042,0.054c-0.012,0.024 -0.018,0.057 -0.018,0.1l0,0.24l-0.066,-0l0,-0.364Z" style="fill-rule:nonzero;stroke:black;stroke-width:0.02px;stroke-linecap:butt;stroke-miterlimit:2;"/>
        </g>
        <g transform="matrix(104.712,0,0,104.712,1649.34,493.712)">
            <path d="M0.338,-0.233c-0.017,0 -0.038,0.001 -0.063,0.003c-0.025,0.001 -0.049,0.005 -0.072,0.012c-0.022,0.006 -0.042,0.016 -0.059,0.029c-0.016,0.013 -0.024,0.032 -0.024,0.055c-0,0.015 0.003,0.029 0.009,0.04c0.007,0.01 0.015,0.02 0.026,0.026c0.011,0.008 0.022,0.013 0.035,0.016c0.013,0.003 0.027,0.004 0.04,0.004c0.024,-0 0.045,-0.004 0.062,-0.012c0.018,-0.008 0.033,-0.019 0.045,-0.033c0.012,-0.013 0.021,-0.029 0.026,-0.048c0.006,-0.018 0.009,-0.037 0.009,-0.058l-0,-0.034l-0.034,0Zm0.034,-0.054l-0,-0.012c-0,-0.081 -0.04,-0.121 -0.12,-0.121c-0.055,0 -0.102,0.018 -0.143,0.055l-0.04,-0.047c0.044,-0.045 0.11,-0.068 0.198,-0.068c0.023,0 0.044,0.003 0.065,0.01c0.021,0.007 0.04,0.017 0.055,0.031c0.015,0.013 0.028,0.03 0.037,0.051c0.009,0.021 0.014,0.045 0.014,0.074l-0,0.209c-0,0.018 0.001,0.037 0.002,0.057c0.002,0.019 0.004,0.035 0.006,0.048l-0.064,0c-0.002,-0.011 -0.004,-0.024 -0.005,-0.037c-0.001,-0.013 -0.001,-0.026 -0.001,-0.039l-0.002,0c-0.019,0.031 -0.042,0.054 -0.069,0.068c-0.026,0.013 -0.058,0.02 -0.096,0.02c-0.021,0 -0.041,-0.003 -0.06,-0.008c-0.019,-0.006 -0.037,-0.015 -0.052,-0.026c-0.015,-0.012 -0.027,-0.026 -0.036,-0.043c-0.009,-0.017 -0.013,-0.037 -0.013,-0.06c-0,-0.038 0.01,-0.068 0.029,-0.089c0.02,-0.022 0.045,-0.038 0.074,-0.049c0.03,-0.011 0.062,-0.017 0.095,-0.02c0.034,-0.003 0.065,-0.004 0.093,-0.004l0.033,0Z" style="fill-rule:nonzero;stroke:black;stroke-width:0.02px;stroke-linecap:butt;stroke-miterlimit:2;"/>
        </g>
        <g transform="matrix(104.712,0,0,104.712,1703.69,493.712)">
            <rect x="0.087" y="-0.756" width="0.066" height="0.756" style="fill-rule:nonzero;stroke:black;stroke-width:0.02px;stroke-linecap:butt;stroke-miterlimit:2;"/>
        </g>
        <g transform="matrix(104.712,0,0,104.712,1757.93,493.712)">
            <path d="M0.072,-0.364c0,-0.017 -0.001,-0.035 -0.002,-0.052c-0.001,-0.017 -0.002,-0.035 -0.003,-0.052l0.071,-0l0,0.071l0.002,-0c0.016,-0.027 0.038,-0.048 0.067,-0.062c0.028,-0.014 0.056,-0.021 0.084,-0.021c0.013,0 0.026,0.001 0.04,0.004c0.015,0.003 0.029,0.008 0.042,0.014c0.013,0.007 0.026,0.017 0.038,0.03c0.011,0.013 0.021,0.029 0.029,0.049c0.013,-0.03 0.035,-0.054 0.064,-0.071c0.029,-0.017 0.059,-0.026 0.09,-0.026c0.06,0 0.104,0.016 0.133,0.047c0.029,0.032 0.043,0.077 0.043,0.136l0,0.297l-0.066,-0l0,-0.273c0,-0.047 -0.008,-0.084 -0.025,-0.109c-0.017,-0.025 -0.048,-0.038 -0.093,-0.038c-0.025,0 -0.045,0.005 -0.062,0.014c-0.017,0.01 -0.03,0.023 -0.041,0.039c-0.01,0.016 -0.017,0.034 -0.022,0.054c-0.005,0.021 -0.007,0.042 -0.007,0.064l0,0.249l-0.066,-0l0,-0.273c0,-0.047 -0.008,-0.084 -0.025,-0.109c-0.017,-0.025 -0.048,-0.038 -0.093,-0.038c-0.004,0 -0.013,0.001 -0.028,0.004c-0.014,0.003 -0.029,0.01 -0.044,0.022c-0.015,0.012 -0.029,0.03 -0.042,0.054c-0.012,0.024 -0.018,0.057 -0.018,0.1l0,0.24l-0.066,-0l0,-0.364Z" style="fill-rule:nonzero;stroke:black;stroke-width:0.02px;stroke-linecap:butt;stroke-miterlimit:2;"/>
        </g>
        <g transform="matrix(104.712,0,0,104.712,1847.15,493.712)">
            <path d="M0.473,-0.234c0,-0.026 -0.004,-0.05 -0.013,-0.073c-0.008,-0.023 -0.02,-0.042 -0.035,-0.059c-0.015,-0.017 -0.034,-0.03 -0.056,-0.04c-0.021,-0.009 -0.046,-0.014 -0.073,-0.014c-0.027,0 -0.052,0.005 -0.074,0.014c-0.021,0.01 -0.04,0.023 -0.055,0.04c-0.015,0.017 -0.026,0.036 -0.035,0.059c-0.008,0.023 -0.012,0.047 -0.012,0.073c-0,0.026 0.004,0.05 0.012,0.073c0.009,0.023 0.02,0.042 0.035,0.059c0.015,0.017 0.034,0.03 0.055,0.039c0.022,0.01 0.047,0.015 0.074,0.015c0.027,-0 0.052,-0.005 0.073,-0.015c0.022,-0.009 0.041,-0.022 0.056,-0.039c0.015,-0.017 0.027,-0.036 0.035,-0.059c0.009,-0.023 0.013,-0.047 0.013,-0.073Zm0.072,-0c-0,0.035 -0.006,0.068 -0.019,0.098c-0.012,0.03 -0.029,0.056 -0.051,0.078c-0.022,0.022 -0.048,0.039 -0.079,0.051c-0.03,0.013 -0.063,0.019 -0.1,0.019c-0.036,-0 -0.069,-0.006 -0.1,-0.019c-0.03,-0.012 -0.056,-0.029 -0.078,-0.051c-0.022,-0.022 -0.039,-0.048 -0.052,-0.078c-0.012,-0.03 -0.018,-0.063 -0.018,-0.098c-0,-0.035 0.006,-0.068 0.018,-0.098c0.013,-0.03 0.03,-0.056 0.052,-0.078c0.022,-0.022 0.048,-0.039 0.078,-0.052c0.031,-0.012 0.064,-0.018 0.1,-0.018c0.037,0 0.07,0.006 0.1,0.018c0.031,0.013 0.057,0.03 0.079,0.052c0.022,0.022 0.039,0.048 0.051,0.078c0.013,0.03 0.019,0.063 0.019,0.098Z" style="fill-rule:nonzero;stroke:black;stroke-width:0.02px;stroke-linecap:butt;stroke-miterlimit:2;"/>
        </g>
        <g transform="matrix(104.712,0,0,104.712,1909.24,493.712)">
            <path d="M0.112,-0.234c0,0.026 0.004,0.05 0.012,0.073c0.009,0.023 0.021,0.042 0.036,0.059c0.015,0.017 0.034,0.03 0.055,0.04c0.022,0.009 0.047,0.014 0.074,0.014c0.027,0 0.052,-0.005 0.075,-0.014c0.023,-0.01 0.042,-0.023 0.059,-0.04c0.017,-0.017 0.03,-0.036 0.039,-0.059c0.009,-0.023 0.014,-0.047 0.014,-0.073c0,-0.026 -0.005,-0.05 -0.014,-0.073c-0.009,-0.023 -0.022,-0.042 -0.039,-0.059c-0.017,-0.017 -0.036,-0.03 -0.059,-0.039c-0.023,-0.01 -0.048,-0.015 -0.075,-0.015c-0.027,0 -0.052,0.005 -0.073,0.015c-0.022,0.009 -0.041,0.022 -0.056,0.039c-0.015,0.017 -0.027,0.036 -0.035,0.059c-0.009,0.023 -0.013,0.047 -0.013,0.073Zm0.427,0.234l-0.066,0l0,-0.078l-0.002,0c-0.011,0.016 -0.023,0.03 -0.038,0.041c-0.015,0.011 -0.03,0.021 -0.046,0.028c-0.016,0.007 -0.032,0.013 -0.049,0.016c-0.017,0.003 -0.034,0.005 -0.049,0.005c-0.037,0 -0.07,-0.006 -0.1,-0.018c-0.031,-0.013 -0.057,-0.03 -0.079,-0.052c-0.022,-0.022 -0.039,-0.048 -0.051,-0.078c-0.013,-0.03 -0.019,-0.063 -0.019,-0.098c0,-0.035 0.006,-0.068 0.019,-0.098c0.012,-0.03 0.029,-0.056 0.051,-0.078c0.022,-0.022 0.048,-0.039 0.079,-0.051c0.03,-0.013 0.063,-0.019 0.1,-0.019c0.015,0 0.032,0.002 0.049,0.005c0.017,0.003 0.033,0.009 0.049,0.016c0.016,0.007 0.031,0.017 0.046,0.028c0.015,0.011 0.027,0.025 0.038,0.041l0.002,0l0,-0.366l0.066,0l0,0.756Z" style="fill-rule:nonzero;stroke:black;stroke-width:0.02px;stroke-linecap:butt;stroke-miterlimit:2;"/>
        </g>
        <g transform="matrix(104.712,0,0,104.712,1973.22,493.712)">
            <path d="M0.436,-0.27c0,-0.045 -0.013,-0.081 -0.04,-0.108c-0.027,-0.028 -0.064,-0.042 -0.112,-0.042c-0.021,0 -0.042,0.004 -0.062,0.012c-0.02,0.009 -0.038,0.02 -0.053,0.034c-0.015,0.014 -0.027,0.03 -0.036,0.048c-0.009,0.018 -0.013,0.037 -0.013,0.056l0.316,0Zm-0.318,0.054c0.002,0.023 0.008,0.045 0.017,0.066c0.009,0.021 0.022,0.039 0.037,0.054c0.015,0.015 0.033,0.026 0.053,0.035c0.02,0.009 0.042,0.013 0.065,0.013c0.035,0 0.066,-0.008 0.091,-0.024c0.026,-0.017 0.046,-0.036 0.059,-0.057l0.051,0.042c-0.028,0.035 -0.059,0.061 -0.092,0.076c-0.034,0.015 -0.07,0.023 -0.109,0.023c-0.035,0 -0.067,-0.006 -0.097,-0.018c-0.029,-0.013 -0.055,-0.03 -0.076,-0.052c-0.021,-0.022 -0.038,-0.048 -0.051,-0.078c-0.012,-0.03 -0.018,-0.063 -0.018,-0.098c-0,-0.035 0.006,-0.068 0.018,-0.098c0.012,-0.03 0.029,-0.056 0.05,-0.078c0.021,-0.022 0.046,-0.039 0.075,-0.051c0.029,-0.013 0.06,-0.019 0.093,-0.019c0.035,0 0.067,0.006 0.095,0.019c0.028,0.013 0.052,0.03 0.071,0.051c0.018,0.021 0.033,0.045 0.043,0.074c0.01,0.028 0.015,0.058 0.015,0.09l0,0.03l-0.39,0Z" style="fill-rule:nonzero;stroke:black;stroke-width:0.02px;stroke-linecap:butt;stroke-miterlimit:2;"/>
        </g>
        <g transform="matrix(104.712,0,0,104.712,2031.44,493.712)">
            <rect x="0.087" y="-0.756" width="0.066" height="0.756" style="fill-rule:nonzero;stroke:black;stroke-width:0.02px;stroke-linecap:butt;stroke-miterlimit:2;"/>
        </g>
        <g transform="matrix(104.712,0,0,104.712,1374.16,598.424)">
            <path d="M0.413,-0.358c-0.011,-0.017 -0.027,-0.032 -0.048,-0.044c-0.02,-0.012 -0.043,-0.018 -0.069,-0.018c-0.027,-0.001 -0.052,0.004 -0.074,0.013c-0.021,0.009 -0.04,0.022 -0.055,0.039c-0.015,0.017 -0.027,0.036 -0.035,0.059c-0.008,0.023 -0.012,0.048 -0.012,0.075c-0,0.027 0.004,0.051 0.012,0.074c0.008,0.023 0.02,0.043 0.035,0.06c0.015,0.017 0.034,0.03 0.055,0.039c0.022,0.009 0.047,0.014 0.074,0.013c0.026,-0 0.049,-0.006 0.069,-0.018c0.021,-0.012 0.037,-0.027 0.048,-0.044l0.054,0.041c-0.023,0.027 -0.05,0.047 -0.079,0.06c-0.029,0.013 -0.06,0.02 -0.092,0.021c-0.038,0.001 -0.072,-0.005 -0.103,-0.018c-0.031,-0.012 -0.057,-0.029 -0.079,-0.051c-0.021,-0.022 -0.038,-0.048 -0.049,-0.079c-0.011,-0.03 -0.017,-0.063 -0.017,-0.098c-0,-0.035 0.006,-0.068 0.017,-0.099c0.011,-0.03 0.028,-0.056 0.049,-0.078c0.022,-0.022 0.048,-0.039 0.079,-0.052c0.031,-0.012 0.065,-0.018 0.103,-0.017c0.032,0.001 0.063,0.008 0.092,0.02c0.029,0.013 0.056,0.034 0.079,0.061l-0.054,0.041Z" style="fill-rule:nonzero;stroke:black;stroke-width:0.02px;stroke-linecap:butt;stroke-miterlimit:2;"/>
        </g>
        <g transform="matrix(104.712,0,0,104.712,1424.63,598.424)">
            <path d="M0.473,-0.234c0,-0.026 -0.004,-0.05 -0.013,-0.073c-0.008,-0.023 -0.02,-0.042 -0.035,-0.059c-0.015,-0.017 -0.034,-0.03 -0.056,-0.04c-0.021,-0.009 -0.046,-0.014 -0.073,-0.014c-0.027,0 -0.052,0.005 -0.074,0.014c-0.021,0.01 -0.04,0.023 -0.055,0.04c-0.015,0.017 -0.026,0.036 -0.035,0.059c-0.008,0.023 -0.012,0.047 -0.012,0.073c-0,0.026 0.004,0.05 0.012,0.073c0.009,0.023 0.02,0.042 0.035,0.059c0.015,0.017 0.034,0.03 0.055,0.039c0.022,0.01 0.047,0.015 0.074,0.015c0.027,-0 0.052,-0.005 0.073,-0.015c0.022,-0.009 0.041,-0.022 0.056,-0.039c0.015,-0.017 0.027,-0.036 0.035,-0.059c0.009,-0.023 0.013,-0.047 0.013,-0.073Zm0.072,-0c-0,0.035 -0.006,0.068 -0.019,0.098c-0.012,0.03 -0.029,0.056 -0.051,0.078c-0.022,0.022 -0.048,0.039 -0.079,0.051c-0.03,0.013 -0.063,0.019 -0.1,0.019c-0.036,-0 -0.069,-0.006 -0.1,-0.019c-0.03,-0.012 -0.056,-0.029 -0.078,-0.051c-0.022,-0.022 -0.039,-0.048 -0.052,-0.078c-0.012,-0.03 -0.018,-0.063 -0.018,-0.098c-0,-0.035 0.006,-0.068 0.018,-0.098c0.013,-0.03 0.03,-0.056 0.052,-0.078c0.022,-0.022 0.048,-0.039 0.078,-0.052c0.031,-0.012 0.064,-0.018 0.1,-0.018c0.037,0 0.07,0.006 0.1,0.018c0.031,0.013 0.057,0.03 0.079,0.052c0.022,0.022 0.039,0.048 0.051,0.078c0.013,0.03 0.019,0.063 0.019,0.098Z" style="fill-rule:nonzero;stroke:black;stroke-width:0.02px;stroke-linecap:butt;stroke-miterlimit:2;"/>
        </g>
        <g transform="matrix(104.712,0,0,104.712,1486.73,598.424)">
            <path d="M0.072,-0.364c0,-0.017 -0.001,-0.035 -0.002,-0.052c-0.001,-0.017 -0.002,-0.035 -0.003,-0.052l0.071,-0l0,0.071l0.002,-0c0.016,-0.027 0.038,-0.048 0.067,-0.062c0.028,-0.014 0.056,-0.021 0.084,-0.021c0.013,0 0.026,0.001 0.04,0.004c0.015,0.003 0.029,0.008 0.042,0.014c0.013,0.007 0.026,0.017 0.038,0.03c0.011,0.013 0.021,0.029 0.029,0.049c0.013,-0.03 0.035,-0.054 0.064,-0.071c0.029,-0.017 0.059,-0.026 0.09,-0.026c0.06,0 0.104,0.016 0.133,0.047c0.029,0.032 0.043,0.077 0.043,0.136l0,0.297l-0.066,-0l0,-0.273c0,-0.047 -0.008,-0.084 -0.025,-0.109c-0.017,-0.025 -0.048,-0.038 -0.093,-0.038c-0.025,0 -0.045,0.005 -0.062,0.014c-0.017,0.01 -0.03,0.023 -0.041,0.039c-0.01,0.016 -0.017,0.034 -0.022,0.054c-0.005,0.021 -0.007,0.042 -0.007,0.064l0,0.249l-0.066,-0l0,-0.273c0,-0.047 -0.008,-0.084 -0.025,-0.109c-0.017,-0.025 -0.048,-0.038 -0.093,-0.038c-0.004,0 -0.013,0.001 -0.028,0.004c-0.014,0.003 -0.029,0.01 -0.044,0.022c-0.015,0.012 -0.029,0.03 -0.042,0.054c-0.012,0.024 -0.018,0.057 -0.018,0.1l0,0.24l-0.066,-0l0,-0.364Z" style="fill-rule:nonzero;stroke:black;stroke-width:0.02px;stroke-linecap:butt;stroke-miterlimit:2;"/>
        </g>
        <g transform="matrix(104.712,0,0,104.712,1575.94,598.424)">
            <path d="M0.499,-0.234c-0,-0.026 -0.004,-0.05 -0.013,-0.073c-0.008,-0.023 -0.02,-0.042 -0.035,-0.059c-0.015,-0.017 -0.034,-0.03 -0.055,-0.04c-0.022,-0.009 -0.047,-0.014 -0.074,-0.014c-0.027,0 -0.052,0.005 -0.075,0.014c-0.023,0.01 -0.042,0.023 -0.059,0.04c-0.017,0.017 -0.03,0.036 -0.039,0.059c-0.009,0.023 -0.014,0.047 -0.014,0.073c0,0.026 0.005,0.05 0.014,0.073c0.009,0.023 0.022,0.042 0.039,0.059c0.017,0.017 0.036,0.03 0.059,0.039c0.023,0.01 0.048,0.015 0.075,0.015c0.027,-0 0.052,-0.005 0.074,-0.015c0.021,-0.009 0.04,-0.022 0.055,-0.039c0.015,-0.017 0.027,-0.036 0.036,-0.059c0.008,-0.023 0.012,-0.047 0.012,-0.073Zm-0.427,-0.234l0.066,-0l0,0.078l0.002,-0c0.011,-0.016 0.023,-0.03 0.038,-0.041c0.015,-0.011 0.03,-0.021 0.046,-0.028c0.016,-0.007 0.032,-0.013 0.049,-0.016c0.017,-0.003 0.034,-0.005 0.049,-0.005c0.037,0 0.07,0.006 0.1,0.018c0.031,0.013 0.057,0.03 0.079,0.052c0.022,0.022 0.039,0.048 0.051,0.078c0.013,0.03 0.019,0.063 0.019,0.098c0,0.035 -0.006,0.068 -0.019,0.098c-0.012,0.03 -0.029,0.056 -0.051,0.078c-0.022,0.022 -0.048,0.039 -0.079,0.051c-0.03,0.013 -0.063,0.019 -0.1,0.019c-0.015,-0 -0.031,-0.002 -0.048,-0.005c-0.017,-0.003 -0.034,-0.009 -0.05,-0.016c-0.016,-0.007 -0.031,-0.017 -0.046,-0.028c-0.015,-0.011 -0.027,-0.025 -0.038,-0.041l-0.002,-0l0,0.366l-0.066,0l0,-0.756Z" style="fill-rule:nonzero;stroke:black;stroke-width:0.02px;stroke-linecap:butt;stroke-miterlimit:2;"/>
        </g>
        <g transform="matrix(104.712,0,0,104.712,1639.92,598.424)">
            <rect x="0.087" y="-0.756" width="0.066" height="0.756" style="fill-rule:nonzero;stroke:black;stroke-width:0.02px;stroke-linecap:butt;stroke-miterlimit:2;"/>
        </g>
        <g transform="matrix(104.712,0,0,104.712,1665.05,598.424)">
            <path d="M0.436,-0.27c0,-0.045 -0.013,-0.081 -0.04,-0.108c-0.027,-0.028 -0.064,-0.042 -0.112,-0.042c-0.021,0 -0.042,0.004 -0.062,0.012c-0.02,0.009 -0.038,0.02 -0.053,0.034c-0.015,0.014 -0.027,0.03 -0.036,0.048c-0.009,0.018 -0.013,0.037 -0.013,0.056l0.316,0Zm-0.318,0.054c0.002,0.023 0.008,0.045 0.017,0.066c0.009,0.021 0.022,0.039 0.037,0.054c0.015,0.015 0.033,0.026 0.053,0.035c0.02,0.009 0.042,0.013 0.065,0.013c0.035,0 0.066,-0.008 0.091,-0.024c0.026,-0.017 0.046,-0.036 0.059,-0.057l0.051,0.042c-0.028,0.035 -0.059,0.061 -0.092,0.076c-0.034,0.015 -0.07,0.023 -0.109,0.023c-0.035,0 -0.067,-0.006 -0.097,-0.018c-0.029,-0.013 -0.055,-0.03 -0.076,-0.052c-0.021,-0.022 -0.038,-0.048 -0.051,-0.078c-0.012,-0.03 -0.018,-0.063 -0.018,-0.098c-0,-0.035 0.006,-0.068 0.018,-0.098c0.012,-0.03 0.029,-0.056 0.05,-0.078c0.021,-0.022 0.046,-0.039 0.075,-0.051c0.029,-0.013 0.06,-0.019 0.093,-0.019c0.035,0 0.067,0.006 0.095,0.019c0.028,0.013 0.052,0.03 0.071,0.051c0.018,0.021 0.033,0.045 0.043,0.074c0.01,0.028 0.015,0.058 0.015,0.09l0,0.03l-0.39,0Z" style="fill-rule:nonzero;stroke:black;stroke-width:0.02px;stroke-linecap:butt;stroke-miterlimit:2;"/>
        </g>
        <g transform="matrix(104.712,0,0,104.712,1723.27,598.424)">
            <path d="M0.193,-0.25l-0.17,-0.218l0.09,-0l0.13,0.175l0.124,-0.175l0.082,-0l-0.163,0.218l0.196,0.25l-0.09,-0l-0.157,-0.205l-0.151,0.205l-0.084,-0l0.193,-0.25Z" style="fill-rule:nonzero;stroke:black;stroke-width:0.02px;stroke-linecap:butt;stroke-miterlimit:2;"/>
        </g>
        <g transform="matrix(104.712,0,0,104.712,1773.74,598.424)">
            <path d="M0.168,-0.648c0,0.014 -0.005,0.025 -0.015,0.034c-0.01,0.01 -0.021,0.014 -0.033,0.014c-0.012,0 -0.023,-0.004 -0.033,-0.014c-0.01,-0.009 -0.015,-0.02 -0.015,-0.034c-0,-0.014 0.005,-0.026 0.015,-0.034c0.01,-0.009 0.021,-0.014 0.033,-0.014c0.012,0 0.023,0.005 0.033,0.014c0.01,0.008 0.015,0.02 0.015,0.034Zm-0.015,0.648l-0.066,-0l-0,-0.468l0.066,0l-0,0.468Z" style="fill-rule:nonzero;stroke:black;stroke-width:0.02px;stroke-linecap:butt;stroke-miterlimit:2;"/>
        </g>
        <g transform="matrix(104.712,0,0,104.712,1798.87,598.424)">
            <path d="M0.314,-0.408l-0.135,0l0,0.276c-0,0.017 0.002,0.032 0.005,0.043c0.003,0.01 0.008,0.019 0.014,0.025c0.006,0.006 0.013,0.01 0.021,0.012c0.009,0.003 0.018,0.004 0.028,0.004c0.011,-0 0.023,-0.002 0.035,-0.005c0.012,-0.003 0.023,-0.008 0.033,-0.013l0.003,0.061c-0.025,0.011 -0.054,0.017 -0.089,0.017c-0.013,0 -0.026,-0.002 -0.04,-0.005c-0.013,-0.003 -0.026,-0.01 -0.037,-0.019c-0.011,-0.009 -0.021,-0.022 -0.028,-0.038c-0.007,-0.016 -0.011,-0.037 -0.011,-0.063l-0,-0.295l-0.099,-0l-0,-0.06l0.099,-0l-0,-0.132l0.066,0l-0,0.132l0.135,-0l-0,0.06Z" style="fill-rule:nonzero;stroke:black;stroke-width:0.02px;stroke-linecap:butt;stroke-miterlimit:2;"/>
        </g>
        <g transform="matrix(104.712,0,0,104.712,1833.64,598.424)">
            <path d="M0.246,-0.081l0.143,-0.387l0.08,0l-0.234,0.59c-0.014,0.036 -0.032,0.065 -0.054,0.086c-0.021,0.021 -0.052,0.032 -0.093,0.032c-0.01,0 -0.02,-0 -0.031,-0.001c-0.01,-0.001 -0.02,-0.003 -0.03,-0.006l0.007,-0.064c0.014,0.007 0.031,0.011 0.05,0.011c0.023,0 0.042,-0.007 0.055,-0.022c0.013,-0.015 0.025,-0.035 0.035,-0.062l0.034,-0.09l-0.192,-0.474l0.083,0l0.147,0.387Z" style="fill-rule:nonzero;stroke:black;stroke-width:0.02px;stroke-linecap:butt;stroke-miterlimit:2;"/>
        </g>
    </g>
    <path d="M565.567,382.458c-1.24,-0.623 -2.5,-1.006 -3.781,-1.152c-1.28,-0.145 -2.501,-0.052 -3.663,0.281c-1.162,0.332 -2.232,0.899 -3.212,1.7c-0.98,0.802 -1.797,1.855 -2.451,3.158c-0.655,1.303 -1.023,2.611 -1.104,3.923c-0.082,1.313 0.075,2.566 0.471,3.759c0.395,1.194 1.022,2.285 1.879,3.273c0.858,0.987 1.906,1.792 3.146,2.415c1.24,0.622 2.512,0.982 3.816,1.08c1.304,0.098 2.553,-0.052 3.747,-0.447c1.194,-0.396 2.293,-1.018 3.296,-1.868c1.004,-0.849 1.833,-1.926 2.487,-3.229c0.655,-1.303 1.011,-2.587 1.068,-3.852c0.058,-1.265 -0.127,-2.462 -0.554,-3.592c-0.428,-1.13 -1.082,-2.165 -1.964,-3.105c-0.881,-0.94 -1.942,-1.722 -3.181,-2.344Zm-21.381,14.759l1.58,-3.147l3.719,1.867l0.048,-0.095c-0.508,-0.892 -0.856,-1.823 -1.045,-2.794c-0.189,-0.971 -0.267,-1.925 -0.234,-2.864c0.033,-0.938 0.174,-1.853 0.422,-2.743c0.248,-0.891 0.556,-1.701 0.923,-2.433c0.878,-1.748 1.974,-3.198 3.288,-4.349c1.314,-1.151 2.759,-1.988 4.335,-2.51c1.576,-0.522 3.227,-0.718 4.952,-0.588c1.726,0.13 3.431,0.618 5.116,1.464c1.685,0.846 3.095,1.922 4.23,3.228c1.136,1.306 1.964,2.747 2.487,4.323c0.522,1.576 0.714,3.235 0.576,4.976c-0.138,1.742 -0.646,3.487 -1.524,5.235c-0.367,0.732 -0.833,1.463 -1.399,2.193c-0.566,0.731 -1.216,1.39 -1.948,1.978c-0.733,0.587 -1.545,1.095 -2.437,1.523c-0.891,0.428 -1.846,0.705 -2.865,0.83l-0.048,0.096l17.453,8.762l-1.58,3.147l-36.049,-18.099Z" style="fill:rgb(222,68,111);fill-rule:nonzero;stroke:rgb(222,68,111);stroke-width:1px;stroke-linecap:butt;stroke-miterlimit:2;"/>
    <path d="M565.943,371.244c-0.985,-0.495 -1.999,-0.974 -3.04,-1.437c-1.041,-0.463 -2.38,-1.086 -4.017,-1.868l1.556,-3.1l4.148,2.083l0.048,-0.095c-0.492,-0.526 -0.913,-1.135 -1.262,-1.828c-0.348,-0.692 -0.598,-1.444 -0.747,-2.256c-0.15,-0.811 -0.165,-1.674 -0.044,-2.589c0.121,-0.914 0.429,-1.864 0.923,-2.85c0.447,-0.89 0.934,-1.621 1.46,-2.193l2.788,2.176c-0.367,0.334 -0.749,0.898 -1.148,1.693c-0.607,1.208 -0.895,2.357 -0.865,3.446c0.03,1.09 0.259,2.101 0.687,3.032c0.428,0.931 0.987,1.739 1.678,2.425c0.691,0.685 1.418,1.219 2.181,1.602l12.588,6.32l-1.58,3.148l-15.354,-7.709Z" style="fill:rgb(222,68,111);fill-rule:nonzero;stroke:rgb(222,68,111);stroke-width:1px;stroke-linecap:butt;stroke-miterlimit:2;"/>
    <path d="M584.487,340.493c-2.13,-1.07 -4.174,-1.3 -6.131,-0.691c-1.958,0.61 -3.511,2.059 -4.661,4.347c-0.51,1.018 -0.806,2.103 -0.888,3.256c-0.081,1.153 0.032,2.255 0.341,3.306c0.308,1.05 0.784,2.005 1.427,2.865c0.642,0.86 1.425,1.522 2.347,1.985l7.565,-15.068Zm-5.038,16.456c1.16,0.463 2.345,0.72 3.554,0.769c1.209,0.05 2.354,-0.111 3.437,-0.483c1.082,-0.372 2.069,-0.931 2.961,-1.677c0.892,-0.747 1.618,-1.676 2.176,-2.789c0.846,-1.684 1.187,-3.334 1.023,-4.949c-0.165,-1.615 -0.596,-2.996 -1.294,-4.142l3.224,-1.427c1.014,2.181 1.484,4.258 1.409,6.231c-0.075,1.972 -0.575,3.88 -1.501,5.724c-0.829,1.653 -1.894,3.039 -3.192,4.158c-1.298,1.12 -2.727,1.925 -4.287,2.415c-1.56,0.491 -3.203,0.671 -4.929,0.541c-1.725,-0.13 -3.431,-0.618 -5.115,-1.464c-1.685,-0.846 -3.099,-1.914 -4.243,-3.205c-1.143,-1.29 -1.983,-2.707 -2.522,-4.251c-0.538,-1.544 -0.758,-3.147 -0.66,-4.809c0.098,-1.663 0.546,-3.289 1.344,-4.878c0.846,-1.685 1.906,-3.043 3.181,-4.075c1.274,-1.032 2.639,-1.75 4.096,-2.153c1.456,-0.403 2.979,-0.504 4.57,-0.302c1.59,0.201 3.148,0.685 4.674,1.451l1.431,0.718l-9.337,18.597Z" style="fill:rgb(222,68,111);fill-rule:nonzero;stroke:rgb(222,68,111);stroke-width:1px;stroke-linecap:butt;stroke-miterlimit:2;"/>
    <path d="M591.758,330.292c1.24,0.622 2.5,1.006 3.78,1.152c1.28,0.145 2.502,0.051 3.663,-0.281c1.162,-0.332 2.233,-0.899 3.213,-1.7c0.979,-0.802 1.796,-1.855 2.451,-3.158c0.638,-1.272 1.002,-2.571 1.092,-3.9c0.09,-1.328 -0.063,-2.589 -0.459,-3.782c-0.396,-1.194 -1.022,-2.285 -1.88,-3.273c-0.857,-0.987 -1.906,-1.792 -3.146,-2.415c-1.239,-0.622 -2.511,-0.982 -3.816,-1.08c-1.304,-0.098 -2.553,0.051 -3.747,0.447c-1.193,0.396 -2.296,1.026 -3.308,1.892c-1.011,0.865 -1.836,1.933 -2.475,3.205c-0.654,1.303 -1.01,2.587 -1.068,3.852c-0.058,1.264 0.127,2.462 0.555,3.592c0.428,1.13 1.082,2.165 1.963,3.105c0.882,0.94 1.942,1.721 3.182,2.344Zm21.381,-14.759l-1.58,3.147l-3.72,-1.867l-0.048,0.095c0.508,0.892 0.856,1.823 1.046,2.794c0.189,0.971 0.267,1.925 0.234,2.864c-0.034,0.938 -0.175,1.853 -0.423,2.743c-0.248,0.89 -0.555,1.701 -0.922,2.432c-0.878,1.749 -1.974,3.199 -3.289,4.35c-1.314,1.151 -2.759,1.988 -4.335,2.51c-1.575,0.522 -3.226,0.718 -4.952,0.588c-1.726,-0.13 -3.431,-0.618 -5.116,-1.464c-1.685,-0.846 -3.095,-1.922 -4.23,-3.228c-1.135,-1.307 -1.964,-2.748 -2.486,-4.323c-0.523,-1.576 -0.715,-3.235 -0.577,-4.976c0.139,-1.742 0.646,-3.487 1.524,-5.236c0.367,-0.731 0.834,-1.462 1.4,-2.192c0.566,-0.731 1.215,-1.39 1.948,-1.978c0.733,-0.587 1.545,-1.095 2.436,-1.523c0.892,-0.428 1.847,-0.705 2.865,-0.83l0.048,-0.096l-17.452,-8.762l1.58,-3.147l36.049,18.099Z" style="fill:rgb(222,68,111);fill-rule:nonzero;stroke:rgb(222,68,111);stroke-width:1px;stroke-linecap:butt;stroke-miterlimit:2;"/>
    <path d="M587.986,288.575c0.667,0.336 1.096,0.849 1.286,1.542c0.189,0.692 0.14,1.324 -0.147,1.896c-0.287,0.573 -0.765,0.989 -1.434,1.251c-0.668,0.261 -1.336,0.224 -2.004,-0.111c-0.667,-0.335 -1.096,-0.849 -1.286,-1.541c-0.19,-0.693 -0.141,-1.325 0.147,-1.897c0.287,-0.572 0.765,-0.989 1.433,-1.25c0.669,-0.262 1.337,-0.225 2.005,0.11Zm30.539,16.229l-1.58,3.147l-22.316,-11.204l1.58,-3.147l22.316,11.204Z" style="fill:rgb(222,68,111);fill-rule:nonzero;stroke:rgb(222,68,111);stroke-width:1px;stroke-linecap:butt;stroke-miterlimit:2;"/>
    <path d="M613.425,272.392c-1.098,0.125 -2.176,0.529 -3.235,1.211c-1.059,0.682 -1.9,1.644 -2.522,2.883c-0.686,1.288 -1.066,2.56 -1.14,3.816c-0.074,1.257 0.103,2.45 0.531,3.58c0.428,1.131 1.094,2.162 1.999,3.094c0.905,0.932 1.994,1.717 3.265,2.356c1.272,0.638 2.552,1.042 3.84,1.211c1.288,0.169 2.513,0.088 3.675,-0.244c1.162,-0.333 2.225,-0.903 3.189,-1.713c0.963,-0.81 1.756,-1.874 2.379,-3.194c0.623,-1.239 0.891,-2.488 0.806,-3.745c-0.086,-1.256 -0.406,-2.363 -0.961,-3.318l3.248,-1.593c0.744,1.767 1.076,3.505 0.993,5.215c-0.082,1.71 -0.491,3.336 -1.225,4.878c-0.878,1.828 -1.978,3.325 -3.3,4.492c-1.323,1.167 -2.768,2.004 -4.335,2.51c-1.568,0.507 -3.211,0.667 -4.929,0.481c-1.717,-0.185 -3.419,-0.701 -5.103,-1.547c-1.685,-0.846 -3.115,-1.902 -4.29,-3.169c-1.175,-1.267 -2.028,-2.68 -2.558,-4.24c-0.531,-1.559 -0.723,-3.218 -0.577,-4.976c0.146,-1.757 0.69,-3.534 1.632,-5.33c0.798,-1.51 1.858,-2.809 3.18,-3.896c1.322,-1.088 2.914,-1.861 4.776,-2.319l0.662,3.557Z" style="fill:rgb(222,68,111);fill-rule:nonzero;stroke:rgb(222,68,111);stroke-width:1px;stroke-linecap:butt;stroke-miterlimit:2;"/>
    <path d="M620.21,252.932l-3.232,6.437l13.161,6.608c0.827,0.415 1.542,0.674 2.146,0.779c0.605,0.104 1.122,0.085 1.551,-0.057c0.43,-0.143 0.8,-0.385 1.111,-0.726c0.311,-0.342 0.586,-0.751 0.825,-1.228c0.272,-0.54 0.472,-1.136 0.6,-1.788c0.128,-0.652 0.185,-1.281 0.17,-1.885l2.981,1.317c-0.05,1.448 -0.49,2.998 -1.32,4.651c-0.304,0.604 -0.698,1.192 -1.185,1.764c-0.486,0.572 -1.087,1.016 -1.803,1.333c-0.717,0.317 -1.544,0.459 -2.483,0.426c-0.938,-0.034 -2.027,-0.362 -3.267,-0.984l-14.067,-7.063l-2.37,4.721l-2.861,-1.437l2.37,-4.72l-6.294,-3.161l1.58,-3.147l6.294,3.161l3.232,-6.438l2.861,1.437Z" style="fill:rgb(222,68,111);fill-rule:nonzero;stroke:rgb(222,68,111);stroke-width:1px;stroke-linecap:butt;stroke-miterlimit:2;"/>
    <path d="M613.219,238.317c0.668,0.335 1.097,0.849 1.286,1.541c0.19,0.692 0.141,1.325 -0.146,1.897c-0.287,0.572 -0.765,0.989 -1.434,1.25c-0.668,0.261 -1.336,0.225 -2.004,-0.111c-0.668,-0.335 -1.096,-0.849 -1.286,-1.541c-0.19,-0.692 -0.141,-1.324 0.146,-1.897c0.288,-0.572 0.766,-0.989 1.434,-1.25c0.669,-0.261 1.337,-0.224 2.004,0.111Zm30.54,16.229l-1.58,3.147l-22.316,-11.205l1.58,-3.147l22.316,11.205Z" style="fill:rgb(222,68,111);fill-rule:nonzero;stroke:rgb(222,68,111);stroke-width:1px;stroke-linecap:butt;stroke-miterlimit:2;"/>
    <path d="M646.008,222.241c-1.24,-0.623 -2.5,-1.007 -3.78,-1.152c-1.28,-0.145 -2.501,-0.052 -3.663,0.28c-1.162,0.332 -2.233,0.899 -3.212,1.701c-0.98,0.802 -1.797,1.854 -2.451,3.158c-0.655,1.303 -1.011,2.587 -1.069,3.852c-0.058,1.264 0.131,2.454 0.567,3.568c0.436,1.114 1.094,2.141 1.975,3.081c0.882,0.94 1.942,1.722 3.182,2.344c1.24,0.622 2.5,1.006 3.78,1.152c1.281,0.145 2.498,0.059 3.652,-0.257c1.153,-0.316 2.22,-0.875 3.2,-1.677c0.979,-0.801 1.796,-1.854 2.451,-3.157c0.654,-1.304 1.01,-2.588 1.068,-3.852c0.058,-1.265 -0.127,-2.462 -0.555,-3.592c-0.427,-1.13 -1.082,-2.166 -1.963,-3.106c-0.881,-0.94 -1.942,-1.721 -3.182,-2.343Zm1.724,-3.434c1.685,0.846 3.095,1.922 4.23,3.229c1.135,1.306 1.964,2.747 2.486,4.323c0.523,1.576 0.715,3.234 0.577,4.976c-0.138,1.742 -0.646,3.487 -1.524,5.235c-0.862,1.717 -1.95,3.151 -3.264,4.302c-1.315,1.151 -2.76,1.988 -4.335,2.51c-1.576,0.522 -3.227,0.718 -4.953,0.588c-1.726,-0.13 -3.431,-0.618 -5.116,-1.464c-1.685,-0.846 -3.095,-1.922 -4.23,-3.228c-1.135,-1.306 -1.964,-2.747 -2.486,-4.323c-0.522,-1.576 -0.715,-3.235 -0.576,-4.976c0.138,-1.742 0.638,-3.471 1.499,-5.188c0.878,-1.748 1.974,-3.198 3.289,-4.349c1.314,-1.151 2.759,-1.988 4.335,-2.51c1.576,-0.523 3.226,-0.719 4.952,-0.589c1.726,0.131 3.431,0.619 5.116,1.464Z" style="fill:rgb(222,68,111);fill-rule:nonzero;stroke:rgb(222,68,111);stroke-width:1px;stroke-linecap:butt;stroke-miterlimit:2;"/>
    <path d="M640.955,204.479c0.636,0.24 1.252,0.499 1.848,0.779c0.596,0.279 1.196,0.57 1.8,0.874l0.048,-0.096c-0.428,-0.653 -0.761,-1.377 -0.998,-2.173c-0.238,-0.796 -0.372,-1.619 -0.402,-2.47c-0.03,-0.851 0.039,-1.702 0.207,-2.553c0.169,-0.851 0.436,-1.642 0.803,-2.373c1.437,-2.861 3.253,-4.596 5.45,-5.205c2.196,-0.608 4.693,-0.211 7.49,1.194l14.162,7.11l-1.58,3.148l-12.35,-6.201c-2.48,-1.245 -4.594,-1.77 -6.345,-1.574c-1.75,0.196 -3.207,1.455 -4.373,3.775c-0.079,0.159 -0.239,0.636 -0.479,1.431c-0.24,0.795 -0.277,1.742 -0.112,2.839c0.165,1.098 0.66,2.252 1.485,3.463c0.826,1.21 2.255,2.326 4.29,3.348l11.444,5.745l-1.58,3.148l-17.405,-8.739c-0.604,-0.303 -1.379,-0.662 -2.324,-1.078c-0.946,-0.415 -1.848,-0.798 -2.707,-1.149l1.628,-3.243Z" style="fill:rgb(222,68,111);fill-rule:nonzero;stroke:rgb(222,68,111);stroke-width:1px;stroke-linecap:butt;stroke-miterlimit:2;"/>
    <path d="M677.57,155.098c-2.13,-1.069 -4.174,-1.299 -6.132,-0.69c-1.957,0.609 -3.511,2.058 -4.66,4.347c-0.511,1.017 -0.807,2.103 -0.888,3.256c-0.082,1.153 0.032,2.255 0.34,3.305c0.309,1.051 0.784,2.006 1.427,2.866c0.643,0.86 1.425,1.522 2.347,1.984l7.566,-15.068Zm-5.039,16.457c1.161,0.463 2.345,0.719 3.554,0.769c1.209,0.05 2.355,-0.111 3.437,-0.483c1.083,-0.372 2.07,-0.931 2.962,-1.678c0.892,-0.746 1.617,-1.675 2.176,-2.788c0.846,-1.685 1.187,-3.335 1.022,-4.949c-0.164,-1.615 -0.595,-2.996 -1.293,-4.143l3.223,-1.426c1.015,2.181 1.485,4.258 1.41,6.23c-0.075,1.973 -0.575,3.881 -1.501,5.725c-0.83,1.653 -1.894,3.039 -3.192,4.158c-1.299,1.12 -2.728,1.924 -4.288,2.415c-1.559,0.491 -3.202,0.671 -4.928,0.541c-1.726,-0.13 -3.431,-0.618 -5.116,-1.464c-1.685,-0.846 -3.099,-1.914 -4.242,-3.205c-1.143,-1.29 -1.984,-2.708 -2.522,-4.252c-0.539,-1.543 -0.759,-3.147 -0.66,-4.809c0.098,-1.662 0.546,-3.288 1.344,-4.877c0.846,-1.685 1.906,-3.043 3.18,-4.075c1.275,-1.032 2.64,-1.75 4.096,-2.153c1.456,-0.403 2.98,-0.504 4.57,-0.303c1.591,0.202 3.149,0.686 4.675,1.452l1.43,0.718l-9.337,18.597Z" style="fill:rgb(222,68,111);fill-rule:nonzero;stroke:rgb(222,68,111);stroke-width:1px;stroke-linecap:butt;stroke-miterlimit:2;"/>
    <path d="M679.854,144.364c-0.985,-0.494 -1.999,-0.973 -3.04,-1.436c-1.041,-0.463 -2.38,-1.086 -4.017,-1.868l1.556,-3.1l4.148,2.083l0.048,-0.095c-0.492,-0.526 -0.913,-1.135 -1.261,-1.828c-0.349,-0.692 -0.599,-1.444 -0.748,-2.256c-0.15,-0.811 -0.165,-1.674 -0.044,-2.589c0.121,-0.914 0.429,-1.864 0.924,-2.85c0.447,-0.89 0.933,-1.621 1.459,-2.193l2.788,2.176c-0.366,0.334 -0.749,0.898 -1.148,1.693c-0.607,1.208 -0.895,2.356 -0.865,3.446c0.03,1.09 0.259,2.1 0.687,3.032c0.428,0.931 0.988,1.739 1.678,2.425c0.691,0.685 1.418,1.219 2.181,1.602l12.589,6.32l-1.581,3.147l-15.354,-7.709Z" style="fill:rgb(222,68,111);fill-rule:nonzero;stroke:rgb(222,68,111);stroke-width:1px;stroke-linecap:butt;stroke-miterlimit:2;"/>
    <path d="M687.803,128.533c-0.986,-0.494 -1.999,-0.973 -3.04,-1.436c-1.041,-0.463 -2.381,-1.086 -4.018,-1.868l1.556,-3.1l4.149,2.083l0.048,-0.095c-0.493,-0.526 -0.913,-1.135 -1.262,-1.828c-0.349,-0.692 -0.598,-1.444 -0.748,-2.256c-0.15,-0.811 -0.164,-1.674 -0.043,-2.589c0.121,-0.914 0.428,-1.864 0.923,-2.85c0.447,-0.89 0.933,-1.621 1.459,-2.193l2.789,2.176c-0.367,0.334 -0.75,0.898 -1.149,1.693c-0.606,1.208 -0.894,2.356 -0.864,3.446c0.03,1.09 0.259,2.1 0.687,3.032c0.428,0.931 0.987,1.739 1.678,2.425c0.691,0.685 1.418,1.219 2.18,1.602l12.589,6.32l-1.58,3.147l-15.354,-7.709Z" style="fill:rgb(222,68,111);fill-rule:nonzero;stroke:rgb(222,68,111);stroke-width:1px;stroke-linecap:butt;stroke-miterlimit:2;"/>
    <path d="M708.949,96.88c-1.24,-0.622 -2.5,-1.006 -3.78,-1.151c-1.28,-0.146 -2.502,-0.052 -3.663,0.28c-1.162,0.332 -2.233,0.899 -3.213,1.701c-0.979,0.801 -1.796,1.854 -2.451,3.157c-0.654,1.304 -1.01,2.588 -1.068,3.852c-0.058,1.265 0.131,2.454 0.567,3.568c0.435,1.115 1.094,2.142 1.975,3.082c0.882,0.94 1.942,1.721 3.182,2.344c1.24,0.622 2.5,1.006 3.78,1.151c1.28,0.146 2.498,0.06 3.651,-0.256c1.154,-0.316 2.221,-0.875 3.201,-1.677c0.979,-0.802 1.796,-1.854 2.451,-3.158c0.654,-1.303 1.01,-2.587 1.068,-3.852c0.058,-1.264 -0.127,-2.462 -0.555,-3.592c-0.427,-1.13 -1.082,-2.165 -1.963,-3.105c-0.882,-0.94 -1.942,-1.721 -3.182,-2.344Zm1.724,-3.433c1.685,0.846 3.095,1.922 4.23,3.228c1.135,1.307 1.964,2.748 2.486,4.323c0.523,1.576 0.715,3.235 0.577,4.977c-0.138,1.741 -0.646,3.486 -1.524,5.235c-0.862,1.716 -1.95,3.15 -3.265,4.301c-1.314,1.151 -2.759,1.988 -4.335,2.511c-1.575,0.522 -3.226,0.718 -4.952,0.588c-1.726,-0.13 -3.431,-0.618 -5.116,-1.464c-1.685,-0.846 -3.095,-1.922 -4.23,-3.229c-1.135,-1.306 -1.964,-2.747 -2.486,-4.323c-0.523,-1.575 -0.715,-3.234 -0.577,-4.976c0.138,-1.741 0.638,-3.471 1.5,-5.187c0.878,-1.749 1.974,-3.198 3.289,-4.35c1.314,-1.151 2.759,-1.987 4.335,-2.51c1.575,-0.522 3.226,-0.718 4.952,-0.588c1.726,0.13 3.431,0.618 5.116,1.464Z" style="fill:rgb(222,68,111);fill-rule:nonzero;stroke:rgb(222,68,111);stroke-width:1px;stroke-linecap:butt;stroke-miterlimit:2;"/>
    <path d="M709.517,85.284c-0.985,-0.494 -1.999,-0.973 -3.04,-1.436c-1.041,-0.463 -2.38,-1.086 -4.017,-1.868l1.556,-3.1l4.148,2.083l0.048,-0.095c-0.492,-0.526 -0.913,-1.135 -1.262,-1.828c-0.348,-0.692 -0.598,-1.444 -0.747,-2.256c-0.15,-0.811 -0.165,-1.675 -0.044,-2.589c0.121,-0.915 0.429,-1.864 0.924,-2.85c0.446,-0.89 0.933,-1.621 1.459,-2.193l2.788,2.176c-0.366,0.334 -0.749,0.898 -1.148,1.693c-0.607,1.207 -0.895,2.356 -0.865,3.446c0.03,1.09 0.259,2.1 0.687,3.032c0.428,0.931 0.987,1.739 1.678,2.424c0.691,0.686 1.418,1.22 2.181,1.603l12.588,6.32l-1.58,3.147l-15.354,-7.709Z" style="fill:rgb(222,68,111);fill-rule:nonzero;stroke:rgb(222,68,111);stroke-width:1px;stroke-linecap:butt;stroke-miterlimit:2;"/>
</svg>
