<?xml version="1.0" encoding="UTF-8" standalone="no"?>
<!DOCTYPE svg PUBLIC "-//W3C//DTD SVG 1.1//EN" "http://www.w3.org/Graphics/SVG/1.1/DTD/svg11.dtd">
<svg width="100%" height="100%" viewBox="0 0 1217 783" version="1.1" xmlns="http://www.w3.org/2000/svg" xmlns:xlink="http://www.w3.org/1999/xlink" xml:space="preserve" xmlns:serif="http://www.serif.com/" style="fill-rule:evenodd;clip-rule:evenodd;stroke-linecap:round;stroke-linejoin:round;stroke-miterlimit:1.5;">
    <rect x="294.618" y="233.11" width="216.299" height="122.41" style="fill:rgb(135,187,213);stroke:rgb(135,187,213);stroke-opacity:0;stroke-width:9.28px;"/>
    <path d="M52.595,354.037l1155.22,0" style="fill:none;stroke:black;stroke-width:17.35px;"/>
    <path d="M1207.82,354.037l-49.635,-49.634" style="fill:none;stroke:black;stroke-width:17.35px;"/>
    <path d="M1207.82,354.037l-49.875,49.875" style="fill:none;stroke:black;stroke-width:17.35px;"/>
    <path d="M1137.29,475.642l-27.361,-35.993l18.892,-0l18.729,27.361l18.404,-27.361l17.752,-0l-26.384,35.993l31.27,41.204l-18.892,0l-22.801,-32.41l-22.801,32.41l-18.078,0l31.27,-41.204Z" style="fill-rule:nonzero;"/>
    <path d="M1017.65,582.325l67.392,-48.988" style="fill:none;stroke:black;stroke-width:9.28px;"/>
    <path d="M1085.04,533.337l-32.25,-4.66" style="fill:none;stroke:black;stroke-width:9.28px;"/>
    <path d="M1085.04,533.337l-4.969,34.397" style="fill:none;stroke:black;stroke-width:9.28px;"/>
    <path d="M706.839,562.441l-7.214,6.617l-3.087,-3.716l10.928,-8.986l4.703,0.015l-0.12,39.174l-5.312,-0.017l0.102,-33.087Z" style="fill-rule:nonzero;"/>
    <path d="M726.832,556.416l13.666,0.042c2.767,0.008 5.191,0.329 7.273,0.963c2.083,0.633 3.887,1.478 5.415,2.534c1.528,1.056 2.797,2.268 3.807,3.636c1.01,1.368 1.808,2.772 2.394,4.212c0.586,1.441 1.005,2.88 1.259,4.32c0.254,1.439 0.379,2.768 0.375,3.985c-0.008,2.508 -0.476,4.932 -1.405,7.272c-0.93,2.339 -2.301,4.419 -4.114,6.239c-1.813,1.821 -4.059,3.28 -6.736,4.378c-2.678,1.099 -5.769,1.643 -9.273,1.632l-12.782,-0.039l0.121,-39.174Zm5.206,34.21l6.695,0.021c2.251,0.007 4.382,-0.291 6.394,-0.894c2.012,-0.602 3.776,-1.51 5.292,-2.722c1.517,-1.213 2.72,-2.731 3.611,-4.554c0.891,-1.823 1.34,-3.952 1.347,-6.387c0.004,-1.254 -0.194,-2.721 -0.595,-4.4c-0.4,-1.68 -1.161,-3.277 -2.281,-4.793c-1.121,-1.516 -2.675,-2.803 -4.664,-3.86c-1.988,-1.058 -4.569,-1.591 -7.741,-1.601l-7.968,-0.024l-0.09,29.214Z" style="fill-rule:nonzero;"/>
    <path d="M786.503,584.486c-0.003,1.143 0.242,2.186 0.737,3.128c0.496,0.942 1.148,1.747 1.957,2.413c0.81,0.666 1.749,1.186 2.817,1.558c1.069,0.372 2.175,0.56 3.319,0.563c1.549,0.005 2.896,-0.35 4.042,-1.066c1.146,-0.716 2.2,-1.663 3.163,-2.84l3.753,2.889c-2.777,3.569 -6.656,5.346 -11.636,5.331c-2.065,-0.006 -3.936,-0.362 -5.612,-1.068c-1.677,-0.706 -3.094,-1.679 -4.252,-2.918c-1.158,-1.24 -2.048,-2.699 -2.67,-4.38c-0.622,-1.68 -0.93,-3.498 -0.924,-5.453c0.006,-1.955 0.353,-3.77 1.04,-5.446c0.688,-1.677 1.633,-3.131 2.836,-4.363c1.202,-1.232 2.635,-2.196 4.297,-2.892c1.662,-0.695 3.47,-1.04 5.425,-1.034c2.324,0.007 4.287,0.419 5.889,1.235c1.602,0.817 2.918,1.881 3.947,3.194c1.028,1.312 1.771,2.79 2.227,4.433c0.456,1.643 0.681,3.313 0.676,5.01l-0.005,1.77l-21.026,-0.064Zm15.726,-3.936c-0.033,-1.107 -0.205,-2.122 -0.516,-3.045c-0.311,-0.923 -0.779,-1.727 -1.404,-2.411c-0.625,-0.684 -1.407,-1.222 -2.346,-1.612c-0.94,-0.39 -2.036,-0.587 -3.291,-0.591c-1.217,-0.004 -2.333,0.224 -3.349,0.682c-1.016,0.458 -1.876,1.054 -2.579,1.79c-0.703,0.735 -1.249,1.555 -1.639,2.457c-0.391,0.903 -0.587,1.797 -0.59,2.682l15.714,0.048Z" style="fill-rule:nonzero;"/>
    <path d="M820.706,581.879l-9.258,-12.256l6.418,0.02l6.335,9.315l6.28,-9.277l6.031,0.019l-9.001,12.2l10.581,14.032l-6.418,-0.02l-7.713,-11.035l-7.78,10.987l-6.142,-0.019l10.667,-13.966Z" style="fill-rule:nonzero;"/>
    <path d="M842.368,572.927c1.405,-1.287 3.031,-2.25 4.878,-2.89c1.846,-0.64 3.691,-0.957 5.536,-0.951c1.918,0.006 3.568,0.25 4.95,0.734c1.381,0.484 2.514,1.133 3.396,1.947c0.883,0.814 1.535,1.748 1.956,2.8c0.421,1.053 0.63,2.151 0.626,3.295l-0.041,13.39c-0.003,0.922 0.013,1.77 0.048,2.545c0.034,0.775 0.087,1.513 0.159,2.214l-4.427,-0.014c-0.106,-1.328 -0.157,-2.656 -0.153,-3.984l-0.111,-0.001c-1.112,1.694 -2.425,2.889 -3.939,3.585c-1.515,0.696 -3.268,1.041 -5.26,1.035c-1.217,-0.004 -2.379,-0.173 -3.484,-0.509c-1.106,-0.335 -2.073,-0.836 -2.901,-1.503c-0.828,-0.666 -1.48,-1.489 -1.956,-2.468c-0.477,-0.979 -0.713,-2.114 -0.709,-3.405c0.005,-1.697 0.387,-3.116 1.147,-4.257c0.76,-1.141 1.796,-2.069 3.107,-2.784c1.312,-0.716 2.844,-1.227 4.597,-1.536c1.754,-0.308 3.626,-0.459 5.618,-0.453l3.652,0.012l0.003,-1.107c0.002,-0.664 -0.125,-1.328 -0.381,-1.993c-0.256,-0.665 -0.642,-1.266 -1.157,-1.802c-0.514,-0.536 -1.159,-0.963 -1.932,-1.279c-0.774,-0.315 -1.696,-0.475 -2.765,-0.478c-0.959,-0.003 -1.799,0.086 -2.519,0.269c-0.72,0.182 -1.375,0.41 -1.966,0.685c-0.591,0.275 -1.127,0.596 -1.608,0.964c-0.48,0.367 -0.942,0.716 -1.386,1.047l-2.978,-3.108Zm14.022,10.445c-1.181,-0.003 -2.389,0.057 -3.625,0.183c-1.236,0.125 -2.362,0.371 -3.378,0.736c-1.015,0.366 -1.847,0.88 -2.494,1.542c-0.648,0.662 -0.973,1.509 -0.976,2.542c-0.005,1.513 0.499,2.602 1.511,3.269c1.013,0.667 2.386,1.004 4.119,1.009c1.365,0.004 2.528,-0.223 3.488,-0.681c0.961,-0.458 1.737,-1.055 2.33,-1.791c0.592,-0.736 1.019,-1.555 1.28,-2.458c0.261,-0.903 0.393,-1.797 0.395,-2.683l0.006,-1.66l-2.656,-0.008Z" style="fill-rule:nonzero;"/>
    <path d="M870.983,569.806l4.648,0.014l-0.012,4.094l0.11,0.001c0.112,-0.369 0.399,-0.829 0.862,-1.381c0.463,-0.552 1.055,-1.076 1.775,-1.572c0.721,-0.495 1.571,-0.917 2.55,-1.264c0.978,-0.348 2.058,-0.52 3.238,-0.516c1.955,0.006 3.595,0.417 4.921,1.232c1.325,0.816 2.41,2.037 3.253,3.662c0.853,-1.62 2.056,-2.834 3.608,-3.641c1.551,-0.806 3.12,-1.207 4.707,-1.202c2.028,0.006 3.687,0.343 4.976,1.011c1.289,0.668 2.301,1.547 3.035,2.637c0.735,1.091 1.238,2.328 1.511,3.712c0.272,1.384 0.406,2.814 0.401,4.29l-0.046,15.271l-4.98,-0.016l0.045,-14.607c0.003,-0.996 -0.059,-1.955 -0.185,-2.878c-0.126,-0.922 -0.391,-1.734 -0.795,-2.437c-0.404,-0.702 -0.974,-1.266 -1.71,-1.692c-0.737,-0.427 -1.713,-0.642 -2.931,-0.646c-2.397,-0.007 -4.115,0.725 -5.152,2.198c-1.038,1.472 -1.56,3.37 -1.567,5.694l-0.044,14.331l-4.98,-0.016l0.042,-13.722c0.004,-1.254 -0.057,-2.397 -0.183,-3.431c-0.126,-1.033 -0.381,-1.928 -0.766,-2.686c-0.385,-0.757 -0.937,-1.349 -1.655,-1.775c-0.718,-0.427 -1.685,-0.642 -2.902,-0.646c-0.886,-0.002 -1.744,0.17 -2.575,0.518c-0.831,0.348 -1.561,0.872 -2.19,1.57c-0.63,0.699 -1.13,1.592 -1.503,2.679c-0.372,1.087 -0.56,2.369 -0.565,3.844l-0.041,13.611l-4.98,-0.015l0.08,-26.226Z" style="fill-rule:nonzero;"/>
    <path d="M918.125,569.95l4.98,0.015l-0.012,3.763l0.111,0c0.963,-1.398 2.285,-2.483 3.966,-3.252c1.681,-0.77 3.406,-1.152 5.177,-1.146c2.029,0.006 3.863,0.362 5.502,1.068c1.639,0.706 3.038,1.688 4.196,2.945c1.158,1.258 2.048,2.727 2.67,4.407c0.622,1.681 0.93,3.48 0.924,5.398c-0.006,1.955 -0.325,3.771 -0.957,5.447c-0.632,1.677 -1.531,3.131 -2.697,4.363c-1.166,1.232 -2.57,2.196 -4.214,2.892c-1.644,0.696 -3.48,1.041 -5.509,1.034c-1.881,-0.005 -3.65,-0.407 -5.308,-1.205c-1.657,-0.799 -2.926,-1.881 -3.808,-3.249l-0.11,-0l-0.06,19.365l-4.979,-0.015l0.128,-41.83Zm13.599,4.026c-1.328,-0.004 -2.527,0.223 -3.599,0.68c-1.071,0.458 -1.976,1.082 -2.717,1.873c-0.74,0.791 -1.314,1.748 -1.724,2.872c-0.409,1.124 -0.615,2.35 -0.62,3.678c-0.004,1.328 0.196,2.555 0.598,3.681c0.402,1.126 0.971,2.087 1.706,2.883c0.736,0.795 1.637,1.425 2.706,1.889c1.068,0.465 2.266,0.699 3.594,0.703c1.328,0.004 2.527,-0.223 3.599,-0.681c1.071,-0.458 1.976,-1.082 2.717,-1.873c0.74,-0.79 1.314,-1.748 1.724,-2.872c0.409,-1.123 0.616,-2.349 0.62,-3.677c0.004,-1.328 -0.195,-2.555 -0.598,-3.682c-0.402,-1.126 -0.971,-2.087 -1.706,-2.882c-0.735,-0.795 -1.637,-1.425 -2.706,-1.89c-1.068,-0.464 -2.266,-0.698 -3.594,-0.702Z" style="fill-rule:nonzero;"/>
    <path d="M952.367,554.452l4.98,0.015l-0.128,41.83l-4.98,-0.015l0.128,-41.83Z" style="fill-rule:nonzero;"/>
    <path d="M968.928,585.045c-0.004,1.144 0.242,2.187 0.737,3.129c0.495,0.942 1.148,1.746 1.957,2.413c0.81,0.666 1.749,1.186 2.817,1.558c1.069,0.372 2.175,0.56 3.318,0.563c1.55,0.005 2.897,-0.35 4.043,-1.066c1.145,-0.716 2.2,-1.663 3.162,-2.84l3.754,2.889c-2.777,3.569 -6.656,5.346 -11.636,5.331c-2.066,-0.006 -3.936,-0.362 -5.613,-1.068c-1.676,-0.707 -3.093,-1.679 -4.251,-2.918c-1.158,-1.24 -2.048,-2.699 -2.67,-4.38c-0.622,-1.68 -0.93,-3.498 -0.924,-5.453c0.006,-1.955 0.353,-3.77 1.04,-5.447c0.688,-1.676 1.633,-3.13 2.835,-4.362c1.203,-1.232 2.635,-2.196 4.297,-2.892c1.662,-0.696 3.471,-1.04 5.426,-1.034c2.324,0.007 4.287,0.418 5.889,1.235c1.602,0.816 2.918,1.881 3.946,3.194c1.029,1.312 1.772,2.79 2.228,4.433c0.456,1.643 0.681,3.313 0.676,5.009l-0.006,1.771l-21.025,-0.065Zm15.726,-3.935c-0.034,-1.107 -0.206,-2.122 -0.516,-3.045c-0.311,-0.923 -0.779,-1.727 -1.404,-2.411c-0.625,-0.684 -1.407,-1.222 -2.346,-1.612c-0.94,-0.39 -2.037,-0.587 -3.291,-0.591c-1.217,-0.004 -2.334,0.223 -3.349,0.681c-1.016,0.458 -1.876,1.055 -2.579,1.791c-0.703,0.735 -1.25,1.554 -1.64,2.457c-0.39,0.902 -0.586,1.796 -0.589,2.682l15.714,0.048Z" style="fill-rule:nonzero;"/>
    <path d="M472.238,331.908l0,44.607" style="fill:none;stroke:black;stroke-width:17.35px;"/>
    <path d="M233.95,331.467l-0,44.607" style="fill:none;stroke:black;stroke-width:17.35px;"/>
    <path d="M925.812,330.41l0,44.607" style="fill:none;stroke:black;stroke-width:17.35px;"/>
    <path d="M689.213,330.38l-0,44.607" style="fill:none;stroke:black;stroke-width:17.35px;"/>
    <path d="M466.534,432.283l-16.169,-21.269l11.164,0l11.068,16.169l10.875,-16.169l10.49,0l-15.591,21.269l18.478,24.349l-11.164,0l-13.473,-19.152l-13.474,19.152l-10.682,0l18.478,-24.349Z" style="fill-rule:nonzero;"/>
    <path d="M227.402,431.646l-16.168,-21.269l11.163,0l11.068,16.168l10.875,-16.168l10.49,0l-15.591,21.269l18.478,24.349l-11.164,-0l-13.473,-19.152l-13.474,19.152l-10.682,-0l18.478,-24.349Z" style="fill-rule:nonzero;"/>
    <path d="M918.925,430l-16.169,-21.269l11.164,0l11.068,16.169l10.875,-16.169l10.49,0l-15.591,21.269l18.478,24.349l-11.164,-0l-13.473,-19.152l-13.474,19.152l-10.682,-0l18.478,-24.349Z" style="fill-rule:nonzero;"/>
    <path d="M683.177,432.522l-16.168,-21.269l11.164,0l11.068,16.169l10.875,-16.169l10.49,0l-15.591,21.269l18.478,24.349l-11.164,-0l-13.473,-19.152l-13.474,19.152l-10.683,-0l18.478,-24.349Z" style="fill-rule:nonzero;"/>
    <path d="M507.572,459.282l5.538,0l0,4.185l0.123,-0c1.067,-1.559 2.534,-2.769 4.4,-3.631c1.867,-0.861 3.785,-1.292 5.754,-1.292c2.256,-0 4.297,0.39 6.123,1.169c1.825,0.78 3.384,1.867 4.676,3.262c1.293,1.394 2.288,3.025 2.985,4.892c0.697,1.866 1.046,3.866 1.046,5.999c0,2.175 -0.349,4.195 -1.046,6.062c-0.697,1.866 -1.692,3.487 -2.985,4.861c-1.292,1.375 -2.851,2.451 -4.676,3.231c-1.826,0.779 -3.867,1.169 -6.123,1.169c-2.092,0 -4.062,-0.441 -5.908,-1.323c-1.846,-0.882 -3.261,-2.082 -4.246,-3.6l-0.123,0l0,21.538l-5.538,-0l-0,-46.522Zm15.138,4.431c-1.477,-0 -2.81,0.256 -4,0.769c-1.19,0.513 -2.195,1.21 -3.015,2.092c-0.821,0.882 -1.457,1.949 -1.908,3.2c-0.451,1.252 -0.677,2.616 -0.677,4.092c0,1.477 0.226,2.841 0.677,4.093c0.451,1.251 1.087,2.318 1.908,3.2c0.82,0.882 1.825,1.579 3.015,2.092c1.19,0.513 2.523,0.769 4,0.769c1.477,-0 2.81,-0.256 4,-0.769c1.19,-0.513 2.195,-1.21 3.015,-2.092c0.821,-0.882 1.456,-1.949 1.908,-3.2c0.451,-1.252 0.677,-2.616 0.677,-4.093c-0,-1.476 -0.226,-2.84 -0.677,-4.092c-0.452,-1.251 -1.087,-2.318 -1.908,-3.2c-0.82,-0.882 -1.825,-1.579 -3.015,-2.092c-1.19,-0.513 -2.523,-0.769 -4,-0.769Z" style="fill-rule:nonzero;"/>
    <path d="M268.44,458.645l5.539,0l-0,4.185l0.123,-0c1.066,-1.559 2.533,-2.77 4.399,-3.631c1.867,-0.862 3.785,-1.292 5.754,-1.292c2.256,-0 4.297,0.389 6.123,1.169c1.826,0.779 3.384,1.866 4.677,3.261c1.292,1.395 2.287,3.026 2.984,4.892c0.698,1.867 1.046,3.867 1.046,6c0,2.174 -0.348,4.195 -1.046,6.062c-0.697,1.866 -1.692,3.487 -2.984,4.861c-1.293,1.374 -2.851,2.451 -4.677,3.231c-1.826,0.779 -3.867,1.169 -6.123,1.169c-2.092,-0 -4.061,-0.441 -5.907,-1.323c-1.846,-0.882 -3.262,-2.082 -4.246,-3.6l-0.123,-0l-0,21.538l-5.539,-0l0,-46.522Zm15.138,4.431c-1.477,-0 -2.81,0.256 -4,0.769c-1.189,0.513 -2.194,1.21 -3.015,2.092c-0.82,0.882 -1.456,1.949 -1.908,3.2c-0.451,1.251 -0.676,2.615 -0.676,4.092c-0,1.477 0.225,2.841 0.676,4.092c0.452,1.252 1.088,2.318 1.908,3.2c0.821,0.882 1.826,1.58 3.015,2.093c1.19,0.512 2.523,0.769 4,0.769c1.477,-0 2.81,-0.257 4,-0.769c1.19,-0.513 2.195,-1.211 3.015,-2.093c0.821,-0.882 1.457,-1.948 1.908,-3.2c0.451,-1.251 0.677,-2.615 0.677,-4.092c-0,-1.477 -0.226,-2.841 -0.677,-4.092c-0.451,-1.251 -1.087,-2.318 -1.908,-3.2c-0.82,-0.882 -1.825,-1.579 -3.015,-2.092c-1.19,-0.513 -2.523,-0.769 -4,-0.769Z" style="fill-rule:nonzero;"/>
    <rect x="304.008" y="470.337" width="15.138" height="5.169" style="fill-rule:nonzero;"/>
    <path d="M337.915,451.015l-8,7.384l-3.446,-4.123l12.123,-10.03l5.23,-0l0,43.567l-5.907,0l-0,-36.798Z" style="fill-rule:nonzero;"/>
    <path d="M977.07,456.999l5.539,0l-0,4.185l0.123,-0c1.066,-1.559 2.533,-2.769 4.399,-3.631c1.867,-0.862 3.785,-1.292 5.754,-1.292c2.256,-0 4.297,0.389 6.123,1.169c1.826,0.779 3.385,1.867 4.677,3.261c1.292,1.395 2.287,3.026 2.984,4.893c0.698,1.866 1.046,3.866 1.046,5.999c0,2.175 -0.348,4.195 -1.046,6.062c-0.697,1.866 -1.692,3.487 -2.984,4.861c-1.292,1.374 -2.851,2.451 -4.677,3.231c-1.826,0.779 -3.867,1.169 -6.123,1.169c-2.092,-0 -4.061,-0.441 -5.907,-1.323c-1.846,-0.882 -3.262,-2.082 -4.246,-3.6l-0.123,-0l-0,21.538l-5.539,-0l0,-46.522Zm15.138,4.431c-1.477,-0 -2.81,0.256 -4,0.769c-1.189,0.513 -2.194,1.21 -3.015,2.092c-0.82,0.882 -1.456,1.949 -1.908,3.2c-0.451,1.251 -0.676,2.615 -0.676,4.092c-0,1.477 0.225,2.841 0.676,4.092c0.452,1.252 1.088,2.318 1.908,3.2c0.821,0.882 1.826,1.58 3.015,2.093c1.19,0.512 2.523,0.769 4,0.769c1.477,-0 2.81,-0.257 4,-0.769c1.19,-0.513 2.195,-1.211 3.015,-2.093c0.821,-0.882 1.457,-1.948 1.908,-3.2c0.451,-1.251 0.677,-2.615 0.677,-4.092c-0,-1.477 -0.226,-2.841 -0.677,-4.092c-0.451,-1.251 -1.087,-2.318 -1.908,-3.2c-0.82,-0.882 -1.825,-1.579 -3.015,-2.092c-1.19,-0.513 -2.523,-0.769 -4,-0.769Z" style="fill-rule:nonzero;"/>
    <path d="M1014.55,465.122l14.03,-0l0,-14.03l4.8,-0l0,14.03l14.03,-0l0,4.8l-14.03,-0l0,14.03l-4.8,0l0,-14.03l-14.03,-0l-0,-4.8Z" style="fill-rule:nonzero;"/>
    <path d="M1054.3,479.891l17.476,-17.354c0.615,-0.574 1.21,-1.199 1.784,-1.876c0.575,-0.677 1.088,-1.385 1.539,-2.123c0.451,-0.739 0.81,-1.518 1.077,-2.339c0.266,-0.82 0.4,-1.682 0.4,-2.584c-0,-1.067 -0.195,-2.031 -0.585,-2.893c-0.39,-0.861 -0.923,-1.589 -1.6,-2.184c-0.677,-0.595 -1.477,-1.056 -2.4,-1.385c-0.923,-0.328 -1.897,-0.492 -2.923,-0.492c-2.133,0 -3.897,0.595 -5.292,1.785c-1.395,1.189 -2.277,2.83 -2.646,4.923l-6.4,-0.554c0.287,-1.928 0.852,-3.6 1.693,-5.016c0.841,-1.415 1.887,-2.594 3.138,-3.538c1.251,-0.943 2.687,-1.641 4.307,-2.092c1.621,-0.451 3.375,-0.677 5.262,-0.677c1.887,-0 3.661,0.256 5.323,0.769c1.661,0.513 3.118,1.272 4.369,2.277c1.251,1.005 2.236,2.256 2.954,3.754c0.717,1.497 1.076,3.251 1.076,5.261c0,1.436 -0.215,2.78 -0.646,4.031c-0.43,1.251 -0.995,2.43 -1.692,3.538c-0.697,1.108 -1.497,2.154 -2.4,3.138c-0.902,0.985 -1.846,1.949 -2.831,2.893l-14.338,13.845l21.907,0l0,5.169l-28.552,0l-0,-6.276Z" style="fill-rule:nonzero;"/>
    <path d="M724.216,459.521l5.538,0l0,4.185l0.123,-0c1.067,-1.559 2.533,-2.769 4.4,-3.631c1.867,-0.861 3.785,-1.292 5.754,-1.292c2.256,-0 4.297,0.39 6.123,1.169c1.825,0.779 3.384,1.867 4.676,3.261c1.293,1.395 2.287,3.026 2.985,4.893c0.697,1.866 1.046,3.866 1.046,5.999c-0,2.175 -0.349,4.195 -1.046,6.062c-0.698,1.866 -1.692,3.487 -2.985,4.861c-1.292,1.374 -2.851,2.451 -4.676,3.231c-1.826,0.779 -3.867,1.169 -6.123,1.169c-2.093,-0 -4.062,-0.441 -5.908,-1.323c-1.846,-0.882 -3.261,-2.082 -4.246,-3.6l-0.123,0l0,21.538l-5.538,-0l-0,-46.522Zm15.138,4.431c-1.477,-0 -2.81,0.256 -4,0.769c-1.19,0.513 -2.195,1.21 -3.015,2.092c-0.821,0.882 -1.457,1.949 -1.908,3.2c-0.451,1.251 -0.677,2.616 -0.677,4.092c0,1.477 0.226,2.841 0.677,4.093c0.451,1.251 1.087,2.317 1.908,3.199c0.82,0.882 1.825,1.58 3.015,2.093c1.19,0.512 2.523,0.769 4,0.769c1.477,-0 2.81,-0.257 4,-0.769c1.189,-0.513 2.194,-1.211 3.015,-2.093c0.82,-0.882 1.456,-1.948 1.908,-3.199c0.451,-1.252 0.677,-2.616 0.677,-4.093c-0,-1.476 -0.226,-2.841 -0.677,-4.092c-0.452,-1.251 -1.088,-2.318 -1.908,-3.2c-0.821,-0.882 -1.826,-1.579 -3.015,-2.092c-1.19,-0.513 -2.523,-0.769 -4,-0.769Z" style="fill-rule:nonzero;"/>
    <path d="M761.692,467.644l14.03,0l-0,-14.03l4.8,-0l-0,14.03l14.03,0l0,4.8l-14.03,-0l-0,14.03l-4.8,0l-0,-14.03l-14.03,-0l-0,-4.8Z" style="fill-rule:nonzero;"/>
    <path d="M815.228,451.891l-7.999,7.384l-3.447,-4.123l12.123,-10.03l5.231,-0l-0,43.568l-5.908,-0l0,-36.799Z" style="fill-rule:nonzero;"/>
    <path d="M127.251,425.174c0,4.789 -3.888,8.677 -8.677,8.677c-4.789,0 -8.677,-3.888 -8.677,-8.677l0,-10.17c0,-4.789 3.888,-8.677 8.677,-8.677c4.789,0 8.677,3.888 8.677,8.677l0,10.17Zm0,-53.391c0,4.788 -3.888,8.676 -8.677,8.676c-4.789,0 -8.677,-3.888 -8.677,-8.676l0,-20.34c0,-4.789 3.888,-8.677 8.677,-8.677c4.789,-0 8.677,3.888 8.677,8.677l0,20.34Zm0,-63.561c0,4.788 -3.888,8.676 -8.677,8.676c-4.789,0 -8.677,-3.888 -8.677,-8.676l0,-20.34c0,-4.789 3.888,-8.677 8.677,-8.677c4.789,-0 8.677,3.888 8.677,8.677l0,20.34Zm0,-63.562c0,4.789 -3.888,8.677 -8.677,8.677c-4.789,0 -8.677,-3.888 -8.677,-8.677l0,-20.339c0,-4.789 3.888,-8.677 8.677,-8.677c4.789,-0 8.677,3.888 8.677,8.677l0,20.339Zm0,-63.561c0,4.789 -3.888,8.677 -8.677,8.677c-4.789,-0 -8.677,-3.888 -8.677,-8.677l0,-10.17c0,-4.789 3.888,-8.677 8.677,-8.677c4.789,0 8.677,3.888 8.677,8.677l0,10.17Z" style="fill:rgb(94,133,194);fill-opacity:0.65;"/>
    <path d="M359.026,426.407c0,4.789 -3.888,8.677 -8.677,8.677c-4.789,-0 -8.677,-3.888 -8.677,-8.677l0,-10.17c0,-4.789 3.888,-8.677 8.677,-8.677c4.789,0 8.677,3.888 8.677,8.677l0,10.17Zm0,-53.392c0,4.789 -3.888,8.677 -8.677,8.677c-4.789,0 -8.677,-3.888 -8.677,-8.677l0,-20.339c0,-4.789 3.888,-8.677 8.677,-8.677c4.789,-0 8.677,3.888 8.677,8.677l0,20.339Zm0,-63.561c0,4.789 -3.888,8.677 -8.677,8.677c-4.789,0 -8.677,-3.888 -8.677,-8.677l0,-20.339c0,-4.789 3.888,-8.677 8.677,-8.677c4.789,-0 8.677,3.888 8.677,8.677l0,20.339Zm0,-63.561c0,4.789 -3.888,8.677 -8.677,8.677c-4.789,0 -8.677,-3.888 -8.677,-8.677l0,-20.34c0,-4.788 3.888,-8.676 8.677,-8.676c4.789,-0 8.677,3.888 8.677,8.676l0,20.34Zm0,-63.561c0,4.789 -3.888,8.677 -8.677,8.677c-4.789,-0 -8.677,-3.888 -8.677,-8.677l0,-10.17c0,-4.789 3.888,-8.677 8.677,-8.677c4.789,-0 8.677,3.888 8.677,8.677l0,10.17Z" style="fill:rgb(94,133,194);fill-opacity:0.65;"/>
    <path d="M590.21,425.526c-0,4.789 -3.888,8.677 -8.677,8.677c-4.789,0 -8.677,-3.888 -8.677,-8.677l-0,-10.17c-0,-4.789 3.888,-8.677 8.677,-8.677c4.789,0 8.677,3.888 8.677,8.677l-0,10.17Zm-0,-53.391c-0,4.789 -3.888,8.677 -8.677,8.677c-4.789,-0 -8.677,-3.888 -8.677,-8.677l-0,-20.34c-0,-4.789 3.888,-8.677 8.677,-8.677c4.789,0 8.677,3.888 8.677,8.677l-0,20.34Zm-0,-63.561c-0,4.789 -3.888,8.677 -8.677,8.677c-4.789,-0 -8.677,-3.888 -8.677,-8.677l-0,-20.34c-0,-4.789 3.888,-8.677 8.677,-8.677c4.789,0 8.677,3.888 8.677,8.677l-0,20.34Zm-0,-63.561c-0,4.789 -3.888,8.677 -8.677,8.677c-4.789,-0 -8.677,-3.888 -8.677,-8.677l-0,-20.34c-0,-4.789 3.888,-8.677 8.677,-8.677c4.789,-0 8.677,3.888 8.677,8.677l-0,20.34Zm-0,-63.562c-0,4.789 -3.888,8.677 -8.677,8.677c-4.789,0 -8.677,-3.888 -8.677,-8.677l-0,-10.17c-0,-4.789 3.888,-8.677 8.677,-8.677c4.789,0 8.677,3.888 8.677,8.677l-0,10.17Z" style="fill:rgb(94,133,194);fill-opacity:0.65;"/>
    <path d="M816.638,429.137c-0,4.789 -3.888,8.677 -8.677,8.677c-4.789,-0 -8.677,-3.888 -8.677,-8.677l0,-10.17c0,-4.789 3.888,-8.677 8.677,-8.677c4.789,-0 8.677,3.888 8.677,8.677l-0,10.17Zm-0,-53.392c-0,4.789 -3.888,8.677 -8.677,8.677c-4.789,0 -8.677,-3.888 -8.677,-8.677l0,-20.34c0,-4.789 3.888,-8.677 8.677,-8.677c4.789,0 8.677,3.888 8.677,8.677l-0,20.34Zm-0,-63.561c-0,4.789 -3.888,8.677 -8.677,8.677c-4.789,0 -8.677,-3.888 -8.677,-8.677l0,-20.34c0,-4.788 3.888,-8.676 8.677,-8.676c4.789,-0 8.677,3.888 8.677,8.676l-0,20.34Zm-0,-63.561c-0,4.789 -3.888,8.677 -8.677,8.677c-4.789,-0 -8.677,-3.888 -8.677,-8.677l0,-20.34c0,-4.789 3.888,-8.677 8.677,-8.677c4.789,0 8.677,3.888 8.677,8.677l-0,20.34Zm-0,-63.561c-0,4.789 -3.888,8.677 -8.677,8.677c-4.789,-0 -8.677,-3.888 -8.677,-8.677l0,-10.17c0,-4.789 3.888,-8.677 8.677,-8.677c4.789,-0 8.677,3.888 8.677,8.677l-0,10.17Z" style="fill:rgb(94,133,194);fill-opacity:0.65;"/>
    <path d="M1042.49,424.185c-0,4.789 -3.888,8.677 -8.677,8.677c-4.789,-0 -8.677,-3.888 -8.677,-8.677l0,-10.17c0,-4.789 3.888,-8.677 8.677,-8.677c4.789,0 8.677,3.888 8.677,8.677l-0,10.17Zm-0,-53.392c-0,4.789 -3.888,8.677 -8.677,8.677c-4.789,0 -8.677,-3.888 -8.677,-8.677l0,-20.339c0,-4.789 3.888,-8.677 8.677,-8.677c4.789,-0 8.677,3.888 8.677,8.677l-0,20.339Zm-0,-63.561c-0,4.789 -3.888,8.677 -8.677,8.677c-4.789,0 -8.677,-3.888 -8.677,-8.677l0,-20.339c0,-4.789 3.888,-8.677 8.677,-8.677c4.789,-0 8.677,3.888 8.677,8.677l-0,20.339Zm-0,-63.561c-0,4.789 -3.888,8.677 -8.677,8.677c-4.789,0 -8.677,-3.888 -8.677,-8.677l0,-20.339c0,-4.789 3.888,-8.677 8.677,-8.677c4.789,-0 8.677,3.888 8.677,8.677l-0,20.339Zm-0,-63.561c-0,4.789 -3.888,8.677 -8.677,8.677c-4.789,-0 -8.677,-3.888 -8.677,-8.677l0,-10.17c0,-4.789 3.888,-8.677 8.677,-8.677c4.789,0 8.677,3.888 8.677,8.677l-0,10.17Z" style="fill:rgb(94,133,194);fill-opacity:0.65;"/>
    <path d="M411.575,110.578c-1.018,-1.058 -2.086,-1.862 -3.205,-2.411c-1.119,-0.55 -2.452,-0.824 -3.998,-0.824c-1.506,-0 -2.818,0.274 -3.937,0.824c-1.119,0.549 -2.055,1.302 -2.808,2.258c-0.753,0.956 -1.322,2.055 -1.709,3.296c-0.387,1.241 -0.58,2.533 -0.58,3.876c0,1.343 0.224,2.615 0.671,3.815c0.448,1.201 1.079,2.249 1.893,3.144c0.814,0.895 1.79,1.597 2.93,2.106c1.139,0.509 2.421,0.763 3.845,0.763c1.547,-0 2.869,-0.275 3.968,-0.824c1.099,-0.55 2.116,-1.353 3.052,-2.411l3.906,3.906c-1.424,1.587 -3.082,2.727 -4.974,3.419c-1.893,0.691 -3.897,1.037 -6.013,1.037c-2.238,0 -4.283,-0.366 -6.134,-1.098c-1.852,-0.733 -3.449,-1.76 -4.792,-3.083c-1.343,-1.323 -2.381,-2.91 -3.113,-4.761c-0.733,-1.852 -1.099,-3.897 -1.099,-6.135c0,-2.238 0.366,-4.293 1.099,-6.165c0.732,-1.872 1.76,-3.479 3.082,-4.822c1.323,-1.343 2.91,-2.391 4.762,-3.144c1.851,-0.752 3.916,-1.129 6.195,-1.129c2.116,0 4.141,0.377 6.074,1.129c1.933,0.753 3.611,1.903 5.036,3.449l-4.151,3.785Z" style="fill-rule:nonzero;"/>
    <path d="M424.454,119.368c0,1.261 0.275,2.411 0.824,3.448c0.55,1.038 1.272,1.923 2.167,2.656c0.896,0.732 1.933,1.302 3.113,1.709c1.181,0.407 2.401,0.61 3.663,0.61c1.709,0 3.194,-0.397 4.456,-1.19c1.261,-0.794 2.421,-1.842 3.479,-3.144l4.151,3.174c-3.052,3.948 -7.325,5.921 -12.819,5.921c-2.278,0 -4.344,-0.386 -6.195,-1.159c-1.852,-0.774 -3.419,-1.842 -4.7,-3.205c-1.282,-1.363 -2.269,-2.971 -2.961,-4.822c-0.692,-1.852 -1.038,-3.856 -1.038,-6.013c0,-2.157 0.377,-4.161 1.13,-6.012c0.753,-1.852 1.79,-3.459 3.113,-4.823c1.322,-1.363 2.899,-2.431 4.73,-3.204c1.832,-0.773 3.826,-1.16 5.982,-1.16c2.564,0 4.731,0.448 6.501,1.343c1.77,0.895 3.225,2.065 4.365,3.51c1.139,1.444 1.963,3.072 2.472,4.883c0.508,1.811 0.763,3.652 0.763,5.524l-0,1.954l-23.196,-0Zm17.336,-4.395c-0.041,-1.221 -0.234,-2.34 -0.58,-3.358c-0.346,-1.017 -0.865,-1.902 -1.557,-2.655c-0.691,-0.753 -1.556,-1.343 -2.594,-1.77c-1.037,-0.427 -2.248,-0.641 -3.632,-0.641c-1.343,0 -2.574,0.254 -3.693,0.763c-1.119,0.509 -2.065,1.17 -2.838,1.984c-0.773,0.814 -1.373,1.719 -1.801,2.716c-0.427,0.997 -0.641,1.984 -0.641,2.961l17.336,-0Z" style="fill-rule:nonzero;"/>
    <rect x="454.669" y="85.673" width="5.494" height="46.147" style="fill-rule:nonzero;"/>
    <rect x="469.319" y="85.673" width="5.494" height="46.147" style="fill-rule:nonzero;"/>
    <path d="M500.511,102.887l5.494,-0l-0,4.15l0.122,0c1.058,-1.546 2.512,-2.746 4.364,-3.601c1.852,-0.855 3.754,-1.282 5.707,-1.282c2.238,0 4.263,0.387 6.074,1.16c1.811,0.773 3.357,1.851 4.639,3.235c1.282,1.384 2.269,3.001 2.96,4.853c0.692,1.851 1.038,3.835 1.038,5.951c0,2.157 -0.346,4.161 -1.038,6.013c-0.691,1.851 -1.678,3.459 -2.96,4.822c-1.282,1.363 -2.828,2.431 -4.639,3.205c-1.811,0.773 -3.836,1.159 -6.074,1.159c-2.075,0 -4.028,-0.437 -5.86,-1.312c-1.831,-0.875 -3.235,-2.065 -4.211,-3.571l-0.122,0l-0,21.364l-5.494,0l-0,-46.146Zm15.016,4.394c-1.465,0 -2.788,0.255 -3.968,0.763c-1.18,0.509 -2.177,1.201 -2.991,2.076c-0.814,0.875 -1.444,1.933 -1.892,3.174c-0.448,1.241 -0.671,2.594 -0.671,4.059c-0,1.465 0.223,2.818 0.671,4.059c0.448,1.242 1.078,2.3 1.892,3.174c0.814,0.875 1.811,1.567 2.991,2.076c1.18,0.509 2.503,0.763 3.968,0.763c1.465,-0 2.787,-0.254 3.967,-0.763c1.181,-0.509 2.178,-1.201 2.991,-2.076c0.814,-0.874 1.445,-1.932 1.893,-3.174c0.447,-1.241 0.671,-2.594 0.671,-4.059c0,-1.465 -0.224,-2.818 -0.671,-4.059c-0.448,-1.241 -1.079,-2.299 -1.893,-3.174c-0.813,-0.875 -1.81,-1.567 -2.991,-2.076c-1.18,-0.508 -2.502,-0.763 -3.967,-0.763Z" style="fill-rule:nonzero;"/>
    <path d="M93.043,26.023c-0.447,-0.65 -1.076,-1.188 -1.889,-1.615c-0.813,-0.427 -1.686,-0.64 -2.621,-0.64c-2.315,0 -4.113,0.691 -5.393,2.072c-1.28,1.382 -1.92,3.19 -1.92,5.424c0,2.235 0.64,4.043 1.92,5.424c1.28,1.381 3.078,2.072 5.393,2.072c1.016,0 1.89,-0.223 2.621,-0.67c0.731,-0.447 1.361,-0.975 1.889,-1.585l6.034,6.338c-1.422,1.463 -3.098,2.489 -5.028,3.078c-1.93,0.589 -3.768,0.884 -5.516,0.884c-2.275,-0 -4.418,-0.366 -6.429,-1.097c-2.011,-0.732 -3.758,-1.778 -5.241,-3.139c-1.483,-1.361 -2.651,-2.996 -3.504,-4.906c-0.854,-1.909 -1.28,-4.042 -1.28,-6.399c-0,-2.356 0.426,-4.489 1.28,-6.399c0.853,-1.91 2.021,-3.545 3.504,-4.906c1.483,-1.361 3.23,-2.407 5.241,-3.139c2.011,-0.731 4.154,-1.097 6.429,-1.097c1.748,0 3.586,0.295 5.516,0.884c1.93,0.589 3.606,1.615 5.028,3.078l-6.034,6.338Z" style="fill-rule:nonzero;"/>
    <rect x="102.49" y="0" width="9.142" height="46.073" style="fill-rule:nonzero;"/>
    <path d="M117.116,31.264c0,-2.356 0.427,-4.489 1.28,-6.399c0.853,-1.91 2.021,-3.545 3.504,-4.906c1.483,-1.361 3.23,-2.407 5.241,-3.139c2.011,-0.731 4.155,-1.097 6.43,-1.097c2.275,0 4.418,0.366 6.429,1.097c2.012,0.732 3.759,1.778 5.242,3.139c1.483,1.361 2.651,2.996 3.504,4.906c0.853,1.91 1.28,4.043 1.28,6.399c-0,2.357 -0.427,4.49 -1.28,6.399c-0.853,1.91 -2.021,3.545 -3.504,4.906c-1.483,1.361 -3.23,2.407 -5.242,3.139c-2.011,0.731 -4.154,1.097 -6.429,1.097c-2.275,-0 -4.419,-0.366 -6.43,-1.097c-2.011,-0.732 -3.758,-1.778 -5.241,-3.139c-1.483,-1.361 -2.651,-2.996 -3.504,-4.906c-0.853,-1.909 -1.28,-4.042 -1.28,-6.399Zm9.142,0c-0,2.235 0.64,4.043 1.919,5.424c1.28,1.381 3.078,2.072 5.394,2.072c2.316,0 4.114,-0.691 5.393,-2.072c1.28,-1.381 1.92,-3.189 1.92,-5.424c0,-2.234 -0.64,-4.042 -1.92,-5.424c-1.279,-1.381 -3.077,-2.072 -5.393,-2.072c-2.316,0 -4.114,0.691 -5.394,2.072c-1.279,1.382 -1.919,3.19 -1.919,5.424Z" style="fill-rule:nonzero;"/>
    <path d="M183.91,46.073l-8.776,0l0,-4.022l-0.121,0c-0.325,0.569 -0.742,1.138 -1.25,1.707c-0.508,0.568 -1.127,1.076 -1.859,1.523c-0.731,0.447 -1.564,0.813 -2.498,1.097c-0.935,0.285 -1.95,0.427 -3.047,0.427c-2.316,-0 -4.195,-0.356 -5.638,-1.067c-1.442,-0.711 -2.559,-1.696 -3.352,-2.956c-0.792,-1.259 -1.32,-2.742 -1.584,-4.448c-0.264,-1.707 -0.396,-3.555 -0.396,-5.546l-0,-16.333l9.141,-0l0,14.504c0,0.854 0.031,1.737 0.092,2.651c0.061,0.915 0.243,1.758 0.548,2.53c0.305,0.772 0.772,1.401 1.402,1.889c0.63,0.487 1.534,0.731 2.712,0.731c1.178,0 2.133,-0.213 2.864,-0.64c0.732,-0.426 1.29,-0.995 1.676,-1.706c0.386,-0.711 0.64,-1.514 0.762,-2.407c0.122,-0.894 0.183,-1.829 0.183,-2.804l-0,-14.748l9.141,-0l0,29.618Z" style="fill-rule:nonzero;"/>
    <path d="M221.452,46.073l-8.411,0l0,-3.9l-0.121,0c-0.366,0.528 -0.844,1.067 -1.433,1.615c-0.589,0.549 -1.279,1.046 -2.072,1.493c-0.792,0.447 -1.666,0.813 -2.62,1.097c-0.955,0.285 -1.94,0.427 -2.956,0.427c-2.194,-0 -4.185,-0.376 -5.973,-1.128c-1.787,-0.751 -3.321,-1.808 -4.601,-3.169c-1.28,-1.361 -2.265,-2.976 -2.956,-4.845c-0.69,-1.869 -1.036,-3.921 -1.036,-6.155c0,-2.072 0.315,-4.053 0.945,-5.942c0.63,-1.889 1.524,-3.565 2.682,-5.028c1.157,-1.463 2.569,-2.631 4.235,-3.504c1.666,-0.874 3.555,-1.311 5.668,-1.311c1.909,0 3.687,0.295 5.332,0.884c1.646,0.589 2.997,1.595 4.053,3.017l0.122,-0l0,-19.624l9.142,-0l-0,46.073Zm-8.411,-14.809c0,-2.234 -0.639,-4.042 -1.919,-5.424c-1.28,-1.381 -3.078,-2.072 -5.394,-2.072c-2.316,0 -4.114,0.691 -5.393,2.072c-1.28,1.382 -1.92,3.19 -1.92,5.424c-0,2.235 0.64,4.043 1.92,5.424c1.279,1.381 3.077,2.072 5.393,2.072c2.316,0 4.114,-0.691 5.394,-2.072c1.28,-1.381 1.919,-3.189 1.919,-5.424Z" style="fill-rule:nonzero;"/>
    <path d="M246.926,16.455l9.142,-0l-0,29.618l-9.142,0l0,-29.618Zm-0.731,-9.325c-0,-1.462 0.518,-2.712 1.554,-3.748c1.036,-1.036 2.285,-1.554 3.748,-1.554c1.463,0 2.712,0.518 3.748,1.554c1.036,1.036 1.554,2.286 1.554,3.748c-0,1.463 -0.518,2.712 -1.554,3.748c-1.036,1.036 -2.285,1.555 -3.748,1.555c-1.463,-0 -2.712,-0.519 -3.748,-1.555c-1.036,-1.036 -1.554,-2.285 -1.554,-3.748Z" style="fill-rule:nonzero;"/>
    <path d="M262.65,16.455l8.775,-0l0,4.022l0.122,0c0.285,-0.569 0.691,-1.138 1.219,-1.706c0.528,-0.569 1.158,-1.077 1.889,-1.524c0.732,-0.447 1.565,-0.813 2.499,-1.097c0.935,-0.284 1.95,-0.427 3.047,-0.427c2.316,0 4.185,0.356 5.607,1.067c1.422,0.711 2.529,1.696 3.322,2.956c0.792,1.259 1.33,2.742 1.615,4.449c0.284,1.706 0.426,3.555 0.426,5.546l0,16.332l-9.141,0l-0,-14.504c-0,-0.853 -0.031,-1.737 -0.092,-2.651c-0.061,-0.914 -0.244,-1.757 -0.548,-2.529c-0.305,-0.772 -0.772,-1.402 -1.402,-1.89c-0.63,-0.487 -1.534,-0.731 -2.712,-0.731c-1.178,0 -2.133,0.213 -2.864,0.64c-0.732,0.427 -1.29,0.995 -1.676,1.706c-0.386,0.711 -0.64,1.514 -0.762,2.408c-0.122,0.893 -0.183,1.828 -0.183,2.803l0,14.748l-9.141,0l-0,-29.618Z" style="fill-rule:nonzero;"/>
    <path d="M335.721,26.023c-0.447,-0.65 -1.077,-1.188 -1.889,-1.615c-0.813,-0.427 -1.686,-0.64 -2.621,-0.64c-2.316,0 -4.114,0.691 -5.393,2.072c-1.28,1.382 -1.92,3.19 -1.92,5.424c-0,2.235 0.64,4.043 1.92,5.424c1.279,1.381 3.077,2.072 5.393,2.072c1.016,0 1.889,-0.223 2.621,-0.67c0.731,-0.447 1.361,-0.975 1.889,-1.585l6.033,6.338c-1.422,1.463 -3.098,2.489 -5.027,3.078c-1.93,0.589 -3.769,0.884 -5.516,0.884c-2.275,-0 -4.418,-0.366 -6.429,-1.097c-2.012,-0.732 -3.759,-1.778 -5.242,-3.139c-1.482,-1.361 -2.651,-2.996 -3.504,-4.906c-0.853,-1.909 -1.28,-4.042 -1.28,-6.399c0,-2.356 0.427,-4.489 1.28,-6.399c0.853,-1.91 2.022,-3.545 3.504,-4.906c1.483,-1.361 3.23,-2.407 5.242,-3.139c2.011,-0.731 4.154,-1.097 6.429,-1.097c1.747,0 3.586,0.295 5.516,0.884c1.929,0.589 3.605,1.615 5.027,3.078l-6.033,6.338Z" style="fill-rule:nonzero;"/>
    <path d="M373.08,40.954c-1.463,1.869 -3.312,3.311 -5.546,4.327c-2.235,1.016 -4.551,1.524 -6.948,1.524c-2.275,-0 -4.418,-0.366 -6.43,-1.097c-2.011,-0.732 -3.758,-1.778 -5.241,-3.139c-1.483,-1.361 -2.651,-2.996 -3.504,-4.906c-0.853,-1.909 -1.28,-4.042 -1.28,-6.399c0,-2.356 0.427,-4.489 1.28,-6.399c0.853,-1.91 2.021,-3.545 3.504,-4.906c1.483,-1.361 3.23,-2.407 5.241,-3.139c2.012,-0.731 4.155,-1.097 6.43,-1.097c2.113,0 4.032,0.366 5.759,1.097c1.727,0.732 3.19,1.778 4.388,3.139c1.199,1.361 2.123,2.996 2.773,4.906c0.65,1.91 0.975,4.043 0.975,6.399l0,2.864l-21.208,0c0.365,1.748 1.158,3.139 2.377,4.175c1.218,1.036 2.722,1.554 4.509,1.554c1.504,0 2.773,-0.335 3.809,-1.005c1.036,-0.671 1.94,-1.534 2.712,-2.591l6.4,4.693Zm-7.74,-13.042c0.04,-1.544 -0.468,-2.864 -1.524,-3.961c-1.056,-1.097 -2.417,-1.646 -4.083,-1.646c-1.016,0 -1.91,0.163 -2.682,0.488c-0.772,0.325 -1.432,0.741 -1.98,1.249c-0.549,0.508 -0.975,1.097 -1.28,1.768c-0.305,0.67 -0.478,1.371 -0.518,2.102l12.067,0Z" style="fill-rule:nonzero;"/>
    <rect x="380.149" y="0" width="9.142" height="46.073" style="fill-rule:nonzero;"/>
    <rect x="395.994" y="0" width="9.142" height="46.073" style="fill-rule:nonzero;"/>
    <path d="M448.345,42.356l-0.122,-0c-1.016,1.584 -2.367,2.722 -4.053,3.413c-1.686,0.69 -3.463,1.036 -5.332,1.036c-1.382,-0 -2.712,-0.193 -3.992,-0.579c-1.28,-0.386 -2.407,-0.965 -3.382,-1.737c-0.976,-0.772 -1.748,-1.727 -2.316,-2.864c-0.569,-1.138 -0.854,-2.459 -0.854,-3.962c0,-1.706 0.315,-3.149 0.945,-4.327c0.63,-1.178 1.483,-2.153 2.56,-2.925c1.076,-0.772 2.305,-1.371 3.687,-1.798c1.381,-0.427 2.813,-0.741 4.296,-0.945c1.483,-0.203 2.966,-0.325 4.449,-0.365c1.483,-0.041 2.854,-0.061 4.114,-0.061c-0,-1.625 -0.579,-2.915 -1.737,-3.87c-1.158,-0.955 -2.529,-1.432 -4.114,-1.432c-1.503,-0 -2.874,0.315 -4.113,0.944c-1.24,0.63 -2.347,1.493 -3.322,2.59l-4.875,-4.997c1.706,-1.584 3.697,-2.773 5.972,-3.565c2.275,-0.792 4.632,-1.189 7.07,-1.189c2.681,0 4.885,0.336 6.612,1.006c1.727,0.67 3.108,1.656 4.144,2.956c1.036,1.3 1.757,2.895 2.164,4.784c0.406,1.889 0.609,4.073 0.609,6.551l0,15.053l-8.41,0l-0,-3.717Zm-2.255,-9.264c-0.691,0 -1.554,0.031 -2.59,0.092c-1.036,0.061 -2.032,0.233 -2.986,0.518c-0.955,0.284 -1.768,0.711 -2.438,1.28c-0.67,0.568 -1.006,1.361 -1.006,2.376c0,1.097 0.468,1.91 1.402,2.438c0.935,0.528 1.91,0.792 2.925,0.792c0.894,0 1.758,-0.121 2.59,-0.365c0.833,-0.244 1.575,-0.589 2.225,-1.036c0.65,-0.447 1.168,-1.016 1.554,-1.707c0.386,-0.69 0.579,-1.503 0.579,-2.437l-0,-1.951l-2.255,0Z" style="fill-rule:nonzero;"/>
    <path d="M479.243,25.17c-1.34,-1.666 -3.108,-2.499 -5.302,-2.499c-0.772,0 -1.523,0.183 -2.255,0.549c-0.731,0.365 -1.097,0.995 -1.097,1.889c0,0.731 0.376,1.269 1.128,1.615c0.751,0.345 1.706,0.65 2.864,0.914c1.158,0.264 2.397,0.548 3.718,0.853c1.32,0.305 2.559,0.782 3.717,1.432c1.158,0.65 2.113,1.534 2.865,2.651c0.751,1.118 1.127,2.611 1.127,4.48c0,1.909 -0.416,3.484 -1.249,4.723c-0.833,1.239 -1.9,2.234 -3.2,2.986c-1.3,0.752 -2.763,1.28 -4.388,1.585c-1.625,0.304 -3.23,0.457 -4.814,0.457c-2.072,-0 -4.165,-0.295 -6.277,-0.884c-2.113,-0.589 -3.901,-1.635 -5.363,-3.139l5.545,-6.155c0.854,1.057 1.798,1.859 2.834,2.407c1.036,0.549 2.245,0.823 3.626,0.823c1.057,0 2.012,-0.152 2.865,-0.457c0.853,-0.305 1.28,-0.863 1.28,-1.676c-0,-0.772 -0.376,-1.351 -1.128,-1.737c-0.752,-0.386 -1.706,-0.711 -2.864,-0.975c-1.158,-0.264 -2.397,-0.548 -3.718,-0.853c-1.32,-0.305 -2.559,-0.762 -3.717,-1.371c-1.158,-0.61 -2.113,-1.473 -2.865,-2.59c-0.751,-1.118 -1.127,-2.611 -1.127,-4.48c-0,-1.747 0.355,-3.25 1.066,-4.51c0.711,-1.259 1.646,-2.295 2.804,-3.108c1.158,-0.812 2.488,-1.412 3.992,-1.798c1.503,-0.386 3.026,-0.579 4.57,-0.579c1.951,0 3.921,0.285 5.912,0.854c1.991,0.568 3.677,1.584 5.058,3.047l-5.607,5.546Z" style="fill-rule:nonzero;"/>
    <path d="M507.46,25.17c-1.34,-1.666 -3.108,-2.499 -5.302,-2.499c-0.772,0 -1.523,0.183 -2.255,0.549c-0.731,0.365 -1.097,0.995 -1.097,1.889c0,0.731 0.376,1.269 1.128,1.615c0.751,0.345 1.706,0.65 2.864,0.914c1.158,0.264 2.397,0.548 3.718,0.853c1.32,0.305 2.559,0.782 3.717,1.432c1.158,0.65 2.113,1.534 2.865,2.651c0.751,1.118 1.127,2.611 1.127,4.48c0,1.909 -0.416,3.484 -1.249,4.723c-0.833,1.239 -1.9,2.234 -3.2,2.986c-1.3,0.752 -2.763,1.28 -4.388,1.585c-1.625,0.304 -3.23,0.457 -4.814,0.457c-2.072,-0 -4.165,-0.295 -6.278,-0.884c-2.112,-0.589 -3.9,-1.635 -5.363,-3.139l5.546,-6.155c0.854,1.057 1.798,1.859 2.834,2.407c1.036,0.549 2.245,0.823 3.626,0.823c1.057,0 2.011,-0.152 2.865,-0.457c0.853,-0.305 1.28,-0.863 1.28,-1.676c-0,-0.772 -0.376,-1.351 -1.128,-1.737c-0.752,-0.386 -1.706,-0.711 -2.864,-0.975c-1.158,-0.264 -2.397,-0.548 -3.718,-0.853c-1.32,-0.305 -2.56,-0.762 -3.717,-1.371c-1.158,-0.61 -2.113,-1.473 -2.865,-2.59c-0.751,-1.118 -1.127,-2.611 -1.127,-4.48c-0,-1.747 0.355,-3.25 1.066,-4.51c0.711,-1.259 1.646,-2.295 2.804,-3.108c1.158,-0.812 2.488,-1.412 3.991,-1.798c1.504,-0.386 3.027,-0.579 4.571,-0.579c1.95,0 3.921,0.285 5.912,0.854c1.991,0.568 3.677,1.584 5.058,3.047l-5.607,5.546Z" style="fill-rule:nonzero;"/>
    <path d="M519.04,16.455l9.141,-0l0,29.618l-9.141,0l-0,-29.618Zm-0.732,-9.325c0,-1.462 0.518,-2.712 1.554,-3.748c1.036,-1.036 2.286,-1.554 3.748,-1.554c1.463,0 2.712,0.518 3.748,1.554c1.036,1.036 1.554,2.286 1.554,3.748c0,1.463 -0.518,2.712 -1.554,3.748c-1.036,1.036 -2.285,1.555 -3.748,1.555c-1.462,-0 -2.712,-0.519 -3.748,-1.555c-1.036,-1.036 -1.554,-2.285 -1.554,-3.748Z" style="fill-rule:nonzero;"/>
    <path d="M565.844,43.575c0,5.607 -1.412,9.862 -4.235,12.767c-2.824,2.905 -7.12,4.358 -12.89,4.358c-2.641,-0 -5.241,-0.295 -7.801,-0.884c-2.559,-0.589 -4.916,-1.737 -7.069,-3.443l5.058,-7.557c1.422,1.178 2.915,2.113 4.48,2.803c1.564,0.691 3.28,1.036 5.149,1.036c2.804,0 4.866,-0.68 6.186,-2.041c1.321,-1.361 1.981,-3.098 1.981,-5.211l-0,-2.864l-0.122,-0c-1.056,1.422 -2.367,2.427 -3.931,3.016c-1.564,0.59 -3.037,0.884 -4.418,0.884c-2.194,0 -4.185,-0.376 -5.973,-1.127c-1.788,-0.752 -3.321,-1.808 -4.601,-3.169c-1.28,-1.362 -2.265,-2.977 -2.956,-4.845c-0.691,-1.869 -1.036,-3.921 -1.036,-6.156c0,-1.95 0.315,-3.86 0.945,-5.728c0.629,-1.869 1.523,-3.515 2.681,-4.937c1.158,-1.422 2.57,-2.57 4.236,-3.443c1.666,-0.874 3.555,-1.311 5.668,-1.311c1.3,0 2.488,0.143 3.565,0.427c1.076,0.284 2.041,0.65 2.895,1.097c0.853,0.447 1.584,0.945 2.194,1.493c0.609,0.549 1.097,1.087 1.462,1.615l0.122,0l0,-3.9l8.41,-0l0,27.12Zm-23.036,-12.494c-0,0.975 0.182,1.9 0.548,2.773c0.366,0.874 0.884,1.646 1.554,2.316c0.671,0.67 1.443,1.209 2.316,1.615c0.874,0.406 1.839,0.61 2.895,0.61c1.016,-0 1.97,-0.204 2.864,-0.61c0.894,-0.406 1.676,-0.945 2.347,-1.615c0.67,-0.67 1.188,-1.442 1.554,-2.316c0.365,-0.873 0.548,-1.798 0.548,-2.773c0,-0.975 -0.183,-1.899 -0.548,-2.773c-0.366,-0.873 -0.884,-1.645 -1.554,-2.316c-0.671,-0.67 -1.453,-1.208 -2.347,-1.615c-0.894,-0.406 -1.848,-0.609 -2.864,-0.609c-1.056,0 -2.021,0.203 -2.895,0.609c-0.873,0.407 -1.645,0.945 -2.316,1.615c-0.67,0.671 -1.188,1.443 -1.554,2.316c-0.366,0.874 -0.548,1.798 -0.548,2.773Z" style="fill-rule:nonzero;"/>
    <path d="M573.158,16.455l8.775,-0l0,4.022l0.122,0c0.285,-0.569 0.691,-1.138 1.219,-1.706c0.528,-0.569 1.158,-1.077 1.889,-1.524c0.732,-0.447 1.565,-0.813 2.499,-1.097c0.935,-0.284 1.95,-0.427 3.047,-0.427c2.316,0 4.185,0.356 5.607,1.067c1.422,0.711 2.529,1.696 3.322,2.956c0.792,1.259 1.33,2.742 1.615,4.449c0.284,1.706 0.426,3.555 0.426,5.546l0,16.332l-9.141,0l-0,-14.504c-0,-0.853 -0.031,-1.737 -0.092,-2.651c-0.061,-0.914 -0.244,-1.757 -0.548,-2.529c-0.305,-0.772 -0.772,-1.402 -1.402,-1.89c-0.63,-0.487 -1.534,-0.731 -2.712,-0.731c-1.178,0 -2.133,0.213 -2.864,0.64c-0.732,0.427 -1.29,0.995 -1.676,1.706c-0.386,0.711 -0.64,1.514 -0.762,2.408c-0.122,0.893 -0.183,1.828 -0.183,2.803l0,14.748l-9.141,0l-0,-29.618Z" style="fill-rule:nonzero;"/>
    <path d="M608.139,16.455l8.776,-0l0,4.022l0.122,0c0.284,-0.569 0.691,-1.138 1.219,-1.706c0.528,-0.569 1.158,-1.077 1.889,-1.524c0.731,-0.447 1.564,-0.813 2.499,-1.097c0.934,-0.284 1.95,-0.427 3.047,-0.427c2.072,0 3.911,0.427 5.515,1.28c1.605,0.853 2.814,2.194 3.627,4.023c1.056,-1.91 2.336,-3.271 3.839,-4.084c1.503,-0.812 3.352,-1.219 5.546,-1.219c1.991,0 3.667,0.336 5.028,1.006c1.361,0.67 2.438,1.585 3.23,2.743c0.792,1.157 1.361,2.519 1.706,4.083c0.346,1.564 0.518,3.24 0.518,5.028l0,17.49l-9.141,0l-0,-17.247c-0,-1.381 -0.295,-2.569 -0.884,-3.565c-0.589,-0.995 -1.635,-1.493 -3.139,-1.493c-1.056,0 -1.94,0.173 -2.651,0.518c-0.711,0.345 -1.279,0.823 -1.706,1.432c-0.427,0.61 -0.731,1.321 -0.914,2.133c-0.183,0.813 -0.274,1.666 -0.274,2.56l-0,15.662l-9.142,0l-0,-15.662c-0,-0.528 -0.02,-1.178 -0.061,-1.95c-0.041,-0.772 -0.183,-1.504 -0.427,-2.194c-0.243,-0.691 -0.639,-1.28 -1.188,-1.768c-0.548,-0.487 -1.351,-0.731 -2.407,-0.731c-1.179,0 -2.133,0.213 -2.865,0.64c-0.731,0.427 -1.29,0.995 -1.676,1.706c-0.386,0.711 -0.639,1.514 -0.761,2.408c-0.122,0.893 -0.183,1.828 -0.183,2.803l-0,14.748l-9.142,0l0,-29.618Z" style="fill-rule:nonzero;"/>
    <path d="M689.194,40.954c-1.462,1.869 -3.311,3.311 -5.546,4.327c-2.234,1.016 -4.55,1.524 -6.947,1.524c-2.275,-0 -4.419,-0.366 -6.43,-1.097c-2.011,-0.732 -3.758,-1.778 -5.241,-3.139c-1.483,-1.361 -2.651,-2.996 -3.504,-4.906c-0.853,-1.909 -1.28,-4.042 -1.28,-6.399c0,-2.356 0.427,-4.489 1.28,-6.399c0.853,-1.91 2.021,-3.545 3.504,-4.906c1.483,-1.361 3.23,-2.407 5.241,-3.139c2.011,-0.731 4.155,-1.097 6.43,-1.097c2.113,0 4.032,0.366 5.759,1.097c1.727,0.732 3.189,1.778 4.388,3.139c1.199,1.361 2.123,2.996 2.773,4.906c0.65,1.91 0.975,4.043 0.975,6.399l0,2.864l-21.208,0c0.365,1.748 1.158,3.139 2.376,4.175c1.219,1.036 2.723,1.554 4.51,1.554c1.504,0 2.773,-0.335 3.809,-1.005c1.036,-0.671 1.94,-1.534 2.712,-2.591l6.399,4.693Zm-7.74,-13.042c0.041,-1.544 -0.467,-2.864 -1.523,-3.961c-1.056,-1.097 -2.418,-1.646 -4.083,-1.646c-1.016,0 -1.91,0.163 -2.682,0.488c-0.772,0.325 -1.432,0.741 -1.981,1.249c-0.548,0.508 -0.975,1.097 -1.279,1.768c-0.305,0.67 -0.478,1.371 -0.518,2.102l12.066,0Z" style="fill-rule:nonzero;"/>
    <path d="M696.142,16.455l8.776,-0l-0,4.022l0.122,0c0.284,-0.569 0.69,-1.138 1.219,-1.706c0.528,-0.569 1.158,-1.077 1.889,-1.524c0.731,-0.447 1.564,-0.813 2.499,-1.097c0.934,-0.284 1.95,-0.427 3.047,-0.427c2.316,0 4.185,0.356 5.607,1.067c1.422,0.711 2.529,1.696 3.321,2.956c0.792,1.259 1.331,2.742 1.615,4.449c0.284,1.706 0.427,3.555 0.427,5.546l-0,16.332l-9.142,0l0,-14.504c0,-0.853 -0.03,-1.737 -0.091,-2.651c-0.061,-0.914 -0.244,-1.757 -0.549,-2.529c-0.305,-0.772 -0.772,-1.402 -1.402,-1.89c-0.629,-0.487 -1.533,-0.731 -2.712,-0.731c-1.178,0 -2.133,0.213 -2.864,0.64c-0.731,0.427 -1.29,0.995 -1.676,1.706c-0.386,0.711 -0.64,1.514 -0.762,2.408c-0.122,0.893 -0.183,1.828 -0.183,2.803l0,14.748l-9.141,0l-0,-29.618Z" style="fill-rule:nonzero;"/>
    <path d="M751.296,23.768l-8.045,0l0,9.873c0,0.812 0.041,1.554 0.122,2.224c0.082,0.671 0.264,1.25 0.549,1.737c0.284,0.488 0.721,0.864 1.31,1.128c0.589,0.264 1.371,0.396 2.346,0.396c0.488,-0 1.128,-0.051 1.92,-0.153c0.792,-0.101 1.392,-0.335 1.798,-0.7l-0,7.618c-1.016,0.365 -2.072,0.609 -3.169,0.731c-1.097,0.122 -2.174,0.183 -3.23,0.183c-1.544,-0 -2.966,-0.163 -4.266,-0.488c-1.3,-0.325 -2.438,-0.843 -3.413,-1.554c-0.975,-0.711 -1.737,-1.635 -2.285,-2.773c-0.549,-1.137 -0.823,-2.519 -0.823,-4.144l-0,-14.078l-5.851,0l0,-7.313l5.851,-0l-0,-8.776l9.141,-0l0,8.776l8.045,-0l-0,7.313Z" style="fill-rule:nonzero;"/>
    <path d="M589.724,142.803l211.621,0" style="fill:none;stroke:black;stroke-width:4.09px;"/>
    <path d="M298.93,218.307l211.622,-0" style="fill:none;stroke:black;stroke-width:4.09px;"/>
    <path d="M801.345,142.803l-12.263,-12.263" style="fill:none;stroke:black;stroke-width:4.09px;"/>
    <path d="M510.552,218.307l-12.264,-12.263" style="fill:none;stroke:black;stroke-width:4.09px;"/>
    <path d="M801.345,142.803l-13.533,13.533" style="fill:none;stroke:black;stroke-width:4.09px;"/>
    <path d="M510.552,218.307l-13.533,13.533" style="fill:none;stroke:black;stroke-width:4.09px;"/>
    <path d="M586.023,142.692l11.987,-11.987" style="fill:none;stroke:black;stroke-width:4.09px;"/>
    <path d="M295.23,218.195l11.986,-11.986" style="fill:none;stroke:black;stroke-width:4.09px;"/>
    <path d="M586.023,142.692l11.245,11.245" style="fill:none;stroke:black;stroke-width:4.09px;"/>
    <path d="M295.23,218.195l11.244,11.245" style="fill:none;stroke:black;stroke-width:4.09px;"/>
    <path d="M682.456,161.764l5.528,-0l0,21.804l0.123,0c0.696,-1.556 1.904,-2.815 3.624,-3.777c1.72,-0.962 3.706,-1.444 5.958,-1.444c1.392,0 2.733,0.215 4.023,0.645c1.29,0.43 2.416,1.096 3.378,1.997c0.962,0.9 1.73,2.057 2.303,3.47c0.573,1.412 0.86,3.081 0.86,5.006l-0,18.733l-5.528,-0l0,-17.198c0,-1.351 -0.184,-2.508 -0.553,-3.47c-0.368,-0.962 -0.86,-1.74 -1.474,-2.334c-0.614,-0.594 -1.32,-1.024 -2.119,-1.29c-0.798,-0.266 -1.627,-0.399 -2.487,-0.399c-1.147,-0 -2.211,0.184 -3.194,0.553c-0.983,0.368 -1.843,0.952 -2.58,1.75c-0.737,0.798 -1.31,1.812 -1.72,3.04c-0.409,1.229 -0.614,2.682 -0.614,4.361l0,14.987l-5.528,-0l0,-46.434Z" style="fill-rule:nonzero;"/>
    <path d="M389.684,164.782l5.528,0l-0,21.804l0.122,0c0.696,-1.556 1.904,-2.815 3.624,-3.777c1.72,-0.962 3.706,-1.443 5.958,-1.443c1.392,-0 2.733,0.215 4.023,0.645c1.29,0.43 2.416,1.095 3.378,1.996c0.962,0.901 1.73,2.057 2.303,3.47c0.574,1.413 0.86,3.081 0.86,5.006l0,18.733l-5.528,0l0,-17.198c0,-1.351 -0.184,-2.508 -0.552,-3.47c-0.369,-0.962 -0.86,-1.74 -1.474,-2.334c-0.615,-0.594 -1.321,-1.024 -2.119,-1.29c-0.799,-0.266 -1.628,-0.399 -2.488,-0.399c-1.147,0 -2.211,0.184 -3.194,0.553c-0.983,0.368 -1.842,0.952 -2.579,1.75c-0.738,0.799 -1.311,1.812 -1.72,3.041c-0.41,1.228 -0.614,2.682 -0.614,4.36l-0,14.987l-5.528,0l-0,-46.434Z" style="fill-rule:nonzero;"/>
    <circle cx="404.06" cy="353.376" r="18.058" style="fill:rgb(0,32,255);stroke:rgb(0,33,255);stroke-width:4.09px;"/>
    <g transform="matrix(1,0,0,1,-1485.29,-1009.84)">
        <g transform="matrix(49.2317,0,0,49.2317,1621.8,1202.76)">
            <path d="M0.314,-0.408l-0.135,0l0,0.276c-0,0.017 0.002,0.032 0.005,0.043c0.003,0.01 0.008,0.019 0.014,0.025c0.006,0.006 0.013,0.01 0.021,0.012c0.009,0.003 0.018,0.004 0.028,0.004c0.011,-0 0.023,-0.002 0.035,-0.005c0.012,-0.003 0.023,-0.008 0.033,-0.013l0.003,0.061c-0.025,0.011 -0.054,0.017 -0.089,0.017c-0.013,0 -0.026,-0.002 -0.04,-0.005c-0.013,-0.003 -0.026,-0.01 -0.037,-0.019c-0.011,-0.009 -0.021,-0.022 -0.028,-0.038c-0.007,-0.016 -0.011,-0.037 -0.011,-0.063l-0,-0.295l-0.099,-0l-0,-0.06l0.099,-0l-0,-0.132l0.066,0l-0,0.132l0.135,-0l-0,0.06Z" style="fill:rgb(135,187,213);fill-rule:nonzero;stroke:rgb(135,187,213);stroke-width:0.02px;stroke-linecap:butt;stroke-miterlimit:2;"/>
        </g>
        <g transform="matrix(49.2317,0,0,49.2317,1638.15,1202.76)">
            <path d="M0.473,-0.234c0,-0.026 -0.004,-0.05 -0.013,-0.073c-0.008,-0.023 -0.02,-0.042 -0.035,-0.059c-0.015,-0.017 -0.034,-0.03 -0.056,-0.04c-0.021,-0.009 -0.046,-0.014 -0.073,-0.014c-0.027,0 -0.052,0.005 -0.074,0.014c-0.021,0.01 -0.04,0.023 -0.055,0.04c-0.015,0.017 -0.026,0.036 -0.035,0.059c-0.008,0.023 -0.012,0.047 -0.012,0.073c-0,0.026 0.004,0.05 0.012,0.073c0.009,0.023 0.02,0.042 0.035,0.059c0.015,0.017 0.034,0.03 0.055,0.039c0.022,0.01 0.047,0.015 0.074,0.015c0.027,-0 0.052,-0.005 0.073,-0.015c0.022,-0.009 0.041,-0.022 0.056,-0.039c0.015,-0.017 0.027,-0.036 0.035,-0.059c0.009,-0.023 0.013,-0.047 0.013,-0.073Zm0.072,-0c-0,0.035 -0.006,0.068 -0.019,0.098c-0.012,0.03 -0.029,0.056 -0.051,0.078c-0.022,0.022 -0.048,0.039 -0.079,0.051c-0.03,0.013 -0.063,0.019 -0.1,0.019c-0.036,-0 -0.069,-0.006 -0.1,-0.019c-0.03,-0.012 -0.056,-0.029 -0.078,-0.051c-0.022,-0.022 -0.039,-0.048 -0.052,-0.078c-0.012,-0.03 -0.018,-0.063 -0.018,-0.098c-0,-0.035 0.006,-0.068 0.018,-0.098c0.013,-0.03 0.03,-0.056 0.052,-0.078c0.022,-0.022 0.048,-0.039 0.078,-0.052c0.031,-0.012 0.064,-0.018 0.1,-0.018c0.037,0 0.07,0.006 0.1,0.018c0.031,0.013 0.057,0.03 0.079,0.052c0.022,0.022 0.039,0.048 0.051,0.078c0.013,0.03 0.019,0.063 0.019,0.098Z" style="fill:rgb(135,187,213);fill-rule:nonzero;stroke:rgb(135,187,213);stroke-width:0.02px;stroke-linecap:butt;stroke-miterlimit:2;"/>
        </g>
        <g transform="matrix(49.2317,0,0,49.2317,1667.34,1202.76)">
            <path d="M0.499,-0.234c-0,-0.026 -0.004,-0.05 -0.013,-0.073c-0.008,-0.023 -0.02,-0.042 -0.035,-0.059c-0.015,-0.017 -0.034,-0.03 -0.055,-0.04c-0.022,-0.009 -0.047,-0.014 -0.074,-0.014c-0.027,0 -0.052,0.005 -0.075,0.014c-0.023,0.01 -0.042,0.023 -0.059,0.04c-0.017,0.017 -0.03,0.036 -0.039,0.059c-0.009,0.023 -0.014,0.047 -0.014,0.073c0,0.026 0.005,0.05 0.014,0.073c0.009,0.023 0.022,0.042 0.039,0.059c0.017,0.017 0.036,0.03 0.059,0.039c0.023,0.01 0.048,0.015 0.075,0.015c0.027,-0 0.052,-0.005 0.074,-0.015c0.021,-0.009 0.04,-0.022 0.055,-0.039c0.015,-0.017 0.027,-0.036 0.036,-0.059c0.008,-0.023 0.012,-0.047 0.012,-0.073Zm-0.427,-0.234l0.066,-0l0,0.078l0.002,-0c0.011,-0.016 0.023,-0.03 0.038,-0.041c0.015,-0.011 0.03,-0.021 0.046,-0.028c0.016,-0.007 0.032,-0.013 0.049,-0.016c0.017,-0.003 0.034,-0.005 0.049,-0.005c0.037,0 0.07,0.006 0.1,0.018c0.031,0.013 0.057,0.03 0.079,0.052c0.022,0.022 0.039,0.048 0.051,0.078c0.013,0.03 0.019,0.063 0.019,0.098c0,0.035 -0.006,0.068 -0.019,0.098c-0.012,0.03 -0.029,0.056 -0.051,0.078c-0.022,0.022 -0.048,0.039 -0.079,0.051c-0.03,0.013 -0.063,0.019 -0.1,0.019c-0.015,-0 -0.031,-0.002 -0.048,-0.005c-0.017,-0.003 -0.034,-0.009 -0.05,-0.016c-0.016,-0.007 -0.031,-0.017 -0.046,-0.028c-0.015,-0.011 -0.027,-0.025 -0.038,-0.041l-0.002,-0l0,0.366l-0.066,0l0,-0.756Z" style="fill:rgb(135,187,213);fill-rule:nonzero;stroke:rgb(135,187,213);stroke-width:0.02px;stroke-linecap:butt;stroke-miterlimit:2;"/>
        </g>
        <g transform="matrix(49.2317,0,0,49.2317,1697.42,1202.76)">
            <rect x="0.038" y="-0.273" width="0.257" height="0.066" style="fill:rgb(135,187,213);fill-rule:nonzero;stroke:rgb(135,187,213);stroke-width:0.02px;stroke-linecap:butt;stroke-miterlimit:2;"/>
        </g>
        <g transform="matrix(49.2317,0,0,49.2317,1713.82,1202.76)">
            <path d="M0.072,-0.756l0.066,0l0,0.363l0.002,0c0.007,-0.013 0.017,-0.024 0.028,-0.035c0.011,-0.011 0.024,-0.02 0.038,-0.027c0.014,-0.008 0.029,-0.014 0.044,-0.018c0.016,-0.005 0.032,-0.007 0.047,-0.007c0.06,0 0.104,0.016 0.133,0.048c0.029,0.031 0.043,0.076 0.043,0.135l0,0.297l-0.066,0l0,-0.259c0,-0.052 -0.009,-0.092 -0.027,-0.119c-0.018,-0.028 -0.051,-0.042 -0.1,-0.042c-0.003,0 -0.013,0.001 -0.028,0.004c-0.015,0.003 -0.031,0.01 -0.048,0.022c-0.017,0.012 -0.033,0.03 -0.046,0.054c-0.013,0.024 -0.02,0.057 -0.02,0.1l0,0.24l-0.066,0l0,-0.756Z" style="fill:rgb(135,187,213);fill-rule:nonzero;stroke:rgb(135,187,213);stroke-width:0.02px;stroke-linecap:butt;stroke-miterlimit:2;"/>
        </g>
        <g transform="matrix(49.2317,0,0,49.2317,1741.19,1202.76)">
            <path d="M0.338,-0.233c-0.017,0 -0.038,0.001 -0.063,0.003c-0.025,0.001 -0.049,0.005 -0.072,0.012c-0.022,0.006 -0.042,0.016 -0.059,0.029c-0.016,0.013 -0.024,0.032 -0.024,0.055c-0,0.015 0.003,0.029 0.009,0.04c0.007,0.01 0.015,0.02 0.026,0.026c0.011,0.008 0.022,0.013 0.035,0.016c0.013,0.003 0.027,0.004 0.04,0.004c0.024,-0 0.045,-0.004 0.062,-0.012c0.018,-0.008 0.033,-0.019 0.045,-0.033c0.012,-0.013 0.021,-0.029 0.026,-0.048c0.006,-0.018 0.009,-0.037 0.009,-0.058l-0,-0.034l-0.034,0Zm0.034,-0.054l-0,-0.012c-0,-0.081 -0.04,-0.121 -0.12,-0.121c-0.055,0 -0.102,0.018 -0.143,0.055l-0.04,-0.047c0.044,-0.045 0.11,-0.068 0.198,-0.068c0.023,0 0.044,0.003 0.065,0.01c0.021,0.007 0.04,0.017 0.055,0.031c0.015,0.013 0.028,0.03 0.037,0.051c0.009,0.021 0.014,0.045 0.014,0.074l-0,0.209c-0,0.018 0.001,0.037 0.002,0.057c0.002,0.019 0.004,0.035 0.006,0.048l-0.064,0c-0.002,-0.011 -0.004,-0.024 -0.005,-0.037c-0.001,-0.013 -0.001,-0.026 -0.001,-0.039l-0.002,0c-0.019,0.031 -0.042,0.054 -0.069,0.068c-0.026,0.013 -0.058,0.02 -0.096,0.02c-0.021,0 -0.041,-0.003 -0.06,-0.008c-0.019,-0.006 -0.037,-0.015 -0.052,-0.026c-0.015,-0.012 -0.027,-0.026 -0.036,-0.043c-0.009,-0.017 -0.013,-0.037 -0.013,-0.06c-0,-0.038 0.01,-0.068 0.029,-0.089c0.02,-0.022 0.045,-0.038 0.074,-0.049c0.03,-0.011 0.062,-0.017 0.095,-0.02c0.034,-0.003 0.065,-0.004 0.093,-0.004l0.033,0Z" style="fill:rgb(135,187,213);fill-rule:nonzero;stroke:rgb(135,187,213);stroke-width:0.02px;stroke-linecap:butt;stroke-miterlimit:2;"/>
        </g>
        <g transform="matrix(49.2317,0,0,49.2317,1766.74,1202.76)">
            <path d="M0.314,-0.408l-0.135,0l0,0.276c-0,0.017 0.002,0.032 0.005,0.043c0.003,0.01 0.008,0.019 0.014,0.025c0.006,0.006 0.013,0.01 0.021,0.012c0.009,0.003 0.018,0.004 0.028,0.004c0.011,-0 0.023,-0.002 0.035,-0.005c0.012,-0.003 0.023,-0.008 0.033,-0.013l0.003,0.061c-0.025,0.011 -0.054,0.017 -0.089,0.017c-0.013,0 -0.026,-0.002 -0.04,-0.005c-0.013,-0.003 -0.026,-0.01 -0.037,-0.019c-0.011,-0.009 -0.021,-0.022 -0.028,-0.038c-0.007,-0.016 -0.011,-0.037 -0.011,-0.063l-0,-0.295l-0.099,-0l-0,-0.06l0.099,-0l-0,-0.132l0.066,0l-0,0.132l0.135,-0l-0,0.06Z" style="fill:rgb(135,187,213);fill-rule:nonzero;stroke:rgb(135,187,213);stroke-width:0.02px;stroke-linecap:butt;stroke-miterlimit:2;"/>
        </g>
        <g transform="matrix(49.2317,0,0,49.2317,1621.8,1251.99)">
            <path d="M0.32,-0.357c-0.01,-0.019 -0.023,-0.035 -0.04,-0.046c-0.017,-0.011 -0.037,-0.017 -0.061,-0.017c-0.011,0 -0.023,0.001 -0.035,0.004c-0.011,0.003 -0.022,0.007 -0.031,0.012c-0.009,0.006 -0.017,0.013 -0.023,0.022c-0.005,0.009 -0.008,0.019 -0.008,0.032c-0,0.022 0.008,0.038 0.023,0.048c0.015,0.01 0.038,0.019 0.069,0.026l0.067,0.016c0.033,0.007 0.06,0.022 0.081,0.044c0.022,0.023 0.033,0.051 0.033,0.084c0,0.025 -0.005,0.047 -0.016,0.065c-0.01,0.019 -0.024,0.034 -0.04,0.045c-0.018,0.012 -0.037,0.021 -0.059,0.026c-0.022,0.005 -0.044,0.008 -0.067,0.008c-0.036,-0 -0.07,-0.007 -0.101,-0.021c-0.031,-0.013 -0.057,-0.037 -0.079,-0.07l0.057,-0.039c0.013,0.021 0.03,0.038 0.05,0.051c0.021,0.013 0.045,0.019 0.073,0.019c0.013,-0 0.027,-0.002 0.04,-0.005c0.013,-0.003 0.025,-0.007 0.035,-0.014c0.011,-0.006 0.019,-0.014 0.025,-0.024c0.007,-0.01 0.01,-0.022 0.01,-0.035c-0,-0.023 -0.009,-0.04 -0.026,-0.051c-0.017,-0.01 -0.038,-0.018 -0.063,-0.024l-0.064,-0.015c-0.008,-0.002 -0.019,-0.005 -0.033,-0.01c-0.013,-0.005 -0.027,-0.012 -0.04,-0.021c-0.013,-0.009 -0.024,-0.022 -0.033,-0.037c-0.009,-0.015 -0.014,-0.033 -0.014,-0.055c-0,-0.024 0.005,-0.045 0.014,-0.063c0.01,-0.018 0.023,-0.033 0.039,-0.044c0.017,-0.011 0.035,-0.02 0.056,-0.026c0.021,-0.005 0.042,-0.008 0.064,-0.008c0.033,0 0.063,0.006 0.091,0.019c0.028,0.013 0.05,0.034 0.065,0.065l-0.059,0.039Z" style="fill:rgb(135,187,213);fill-rule:nonzero;stroke:rgb(135,187,213);stroke-width:0.02px;stroke-linecap:butt;stroke-miterlimit:2;"/>
        </g>
        <g transform="matrix(49.2317,0,0,49.2317,1642.78,1251.99)">
            <path d="M0.072,-0.756l0.066,0l0,0.363l0.002,0c0.007,-0.013 0.017,-0.024 0.028,-0.035c0.011,-0.011 0.024,-0.02 0.038,-0.027c0.014,-0.008 0.029,-0.014 0.044,-0.018c0.016,-0.005 0.032,-0.007 0.047,-0.007c0.06,0 0.104,0.016 0.133,0.048c0.029,0.031 0.043,0.076 0.043,0.135l0,0.297l-0.066,0l0,-0.259c0,-0.052 -0.009,-0.092 -0.027,-0.119c-0.018,-0.028 -0.051,-0.042 -0.1,-0.042c-0.003,0 -0.013,0.001 -0.028,0.004c-0.015,0.003 -0.031,0.01 -0.048,0.022c-0.017,0.012 -0.033,0.03 -0.046,0.054c-0.013,0.024 -0.02,0.057 -0.02,0.1l0,0.24l-0.066,0l0,-0.756Z" style="fill:rgb(135,187,213);fill-rule:nonzero;stroke:rgb(135,187,213);stroke-width:0.02px;stroke-linecap:butt;stroke-miterlimit:2;"/>
        </g>
        <g transform="matrix(49.2317,0,0,49.2317,1670.15,1251.99)">
            <path d="M0.338,-0.233c-0.017,0 -0.038,0.001 -0.063,0.003c-0.025,0.001 -0.049,0.005 -0.072,0.012c-0.022,0.006 -0.042,0.016 -0.059,0.029c-0.016,0.013 -0.024,0.032 -0.024,0.055c-0,0.015 0.003,0.029 0.009,0.04c0.007,0.01 0.015,0.02 0.026,0.026c0.011,0.008 0.022,0.013 0.035,0.016c0.013,0.003 0.027,0.004 0.04,0.004c0.024,-0 0.045,-0.004 0.062,-0.012c0.018,-0.008 0.033,-0.019 0.045,-0.033c0.012,-0.013 0.021,-0.029 0.026,-0.048c0.006,-0.018 0.009,-0.037 0.009,-0.058l-0,-0.034l-0.034,0Zm0.034,-0.054l-0,-0.012c-0,-0.081 -0.04,-0.121 -0.12,-0.121c-0.055,0 -0.102,0.018 -0.143,0.055l-0.04,-0.047c0.044,-0.045 0.11,-0.068 0.198,-0.068c0.023,0 0.044,0.003 0.065,0.01c0.021,0.007 0.04,0.017 0.055,0.031c0.015,0.013 0.028,0.03 0.037,0.051c0.009,0.021 0.014,0.045 0.014,0.074l-0,0.209c-0,0.018 0.001,0.037 0.002,0.057c0.002,0.019 0.004,0.035 0.006,0.048l-0.064,0c-0.002,-0.011 -0.004,-0.024 -0.005,-0.037c-0.001,-0.013 -0.001,-0.026 -0.001,-0.039l-0.002,0c-0.019,0.031 -0.042,0.054 -0.069,0.068c-0.026,0.013 -0.058,0.02 -0.096,0.02c-0.021,0 -0.041,-0.003 -0.06,-0.008c-0.019,-0.006 -0.037,-0.015 -0.052,-0.026c-0.015,-0.012 -0.027,-0.026 -0.036,-0.043c-0.009,-0.017 -0.013,-0.037 -0.013,-0.06c-0,-0.038 0.01,-0.068 0.029,-0.089c0.02,-0.022 0.045,-0.038 0.074,-0.049c0.03,-0.011 0.062,-0.017 0.095,-0.02c0.034,-0.003 0.065,-0.004 0.093,-0.004l0.033,0Z" style="fill:rgb(135,187,213);fill-rule:nonzero;stroke:rgb(135,187,213);stroke-width:0.02px;stroke-linecap:butt;stroke-miterlimit:2;"/>
        </g>
        <g transform="matrix(49.2317,0,0,49.2317,1695.7,1251.99)">
            <path d="M0.499,-0.234c-0,-0.026 -0.004,-0.05 -0.013,-0.073c-0.008,-0.023 -0.02,-0.042 -0.035,-0.059c-0.015,-0.017 -0.034,-0.03 -0.055,-0.04c-0.022,-0.009 -0.047,-0.014 -0.074,-0.014c-0.027,0 -0.052,0.005 -0.075,0.014c-0.023,0.01 -0.042,0.023 -0.059,0.04c-0.017,0.017 -0.03,0.036 -0.039,0.059c-0.009,0.023 -0.014,0.047 -0.014,0.073c0,0.026 0.005,0.05 0.014,0.073c0.009,0.023 0.022,0.042 0.039,0.059c0.017,0.017 0.036,0.03 0.059,0.039c0.023,0.01 0.048,0.015 0.075,0.015c0.027,-0 0.052,-0.005 0.074,-0.015c0.021,-0.009 0.04,-0.022 0.055,-0.039c0.015,-0.017 0.027,-0.036 0.036,-0.059c0.008,-0.023 0.012,-0.047 0.012,-0.073Zm-0.427,-0.234l0.066,-0l0,0.078l0.002,-0c0.011,-0.016 0.023,-0.03 0.038,-0.041c0.015,-0.011 0.03,-0.021 0.046,-0.028c0.016,-0.007 0.032,-0.013 0.049,-0.016c0.017,-0.003 0.034,-0.005 0.049,-0.005c0.037,0 0.07,0.006 0.1,0.018c0.031,0.013 0.057,0.03 0.079,0.052c0.022,0.022 0.039,0.048 0.051,0.078c0.013,0.03 0.019,0.063 0.019,0.098c0,0.035 -0.006,0.068 -0.019,0.098c-0.012,0.03 -0.029,0.056 -0.051,0.078c-0.022,0.022 -0.048,0.039 -0.079,0.051c-0.03,0.013 -0.063,0.019 -0.1,0.019c-0.015,-0 -0.031,-0.002 -0.048,-0.005c-0.017,-0.003 -0.034,-0.009 -0.05,-0.016c-0.016,-0.007 -0.031,-0.017 -0.046,-0.028c-0.015,-0.011 -0.027,-0.025 -0.038,-0.041l-0.002,-0l0,0.366l-0.066,0l0,-0.756Z" style="fill:rgb(135,187,213);fill-rule:nonzero;stroke:rgb(135,187,213);stroke-width:0.02px;stroke-linecap:butt;stroke-miterlimit:2;"/>
        </g>
        <g transform="matrix(49.2317,0,0,49.2317,1725.78,1251.99)">
            <path d="M0.436,-0.27c0,-0.045 -0.013,-0.081 -0.04,-0.108c-0.027,-0.028 -0.064,-0.042 -0.112,-0.042c-0.021,0 -0.042,0.004 -0.062,0.012c-0.02,0.009 -0.038,0.02 -0.053,0.034c-0.015,0.014 -0.027,0.03 -0.036,0.048c-0.009,0.018 -0.013,0.037 -0.013,0.056l0.316,0Zm-0.318,0.054c0.002,0.023 0.008,0.045 0.017,0.066c0.009,0.021 0.022,0.039 0.037,0.054c0.015,0.015 0.033,0.026 0.053,0.035c0.02,0.009 0.042,0.013 0.065,0.013c0.035,0 0.066,-0.008 0.091,-0.024c0.026,-0.017 0.046,-0.036 0.059,-0.057l0.051,0.042c-0.028,0.035 -0.059,0.061 -0.092,0.076c-0.034,0.015 -0.07,0.023 -0.109,0.023c-0.035,0 -0.067,-0.006 -0.097,-0.018c-0.029,-0.013 -0.055,-0.03 -0.076,-0.052c-0.021,-0.022 -0.038,-0.048 -0.051,-0.078c-0.012,-0.03 -0.018,-0.063 -0.018,-0.098c-0,-0.035 0.006,-0.068 0.018,-0.098c0.012,-0.03 0.029,-0.056 0.05,-0.078c0.021,-0.022 0.046,-0.039 0.075,-0.051c0.029,-0.013 0.06,-0.019 0.093,-0.019c0.035,0 0.067,0.006 0.095,0.019c0.028,0.013 0.052,0.03 0.071,0.051c0.018,0.021 0.033,0.045 0.043,0.074c0.01,0.028 0.015,0.058 0.015,0.09l0,0.03l-0.39,0Z" style="fill:rgb(135,187,213);fill-rule:nonzero;stroke:rgb(135,187,213);stroke-width:0.02px;stroke-linecap:butt;stroke-miterlimit:2;"/>
        </g>
    </g>
    <path d="M237.222,266.782c9.772,22.315 24.485,31.19 42.389,31.386" style="fill:none;stroke:rgb(135,187,213);stroke-opacity:0.98;stroke-width:9.28px;"/>
    <path d="M279.611,298.168l-9.39,-10.701" style="fill:none;stroke:rgb(135,187,213);stroke-opacity:0.98;stroke-width:9.28px;"/>
    <path d="M279.611,298.168l-9.605,8.088" style="fill:none;stroke:rgb(135,187,213);stroke-opacity:0.98;stroke-width:9.28px;"/>
    <path d="M179.543,556.624c0,-2.053 -0.329,-3.974 -0.987,-5.764c-0.658,-1.789 -1.592,-3.342 -2.803,-4.658c-1.21,-1.316 -2.671,-2.356 -4.382,-3.119c-1.711,-0.763 -3.645,-1.145 -5.803,-1.145c-2.159,-0 -4.133,0.382 -5.922,1.145c-1.79,0.763 -3.343,1.803 -4.659,3.119c-1.316,1.316 -2.342,2.869 -3.079,4.658c-0.737,1.79 -1.106,3.711 -1.106,5.764c0,2.053 0.369,3.975 1.106,5.764c0.737,1.79 1.763,3.343 3.079,4.659c1.316,1.316 2.869,2.356 4.659,3.119c1.789,0.763 3.763,1.145 5.922,1.145c2.158,-0 4.092,-0.382 5.803,-1.145c1.711,-0.763 3.172,-1.803 4.382,-3.119c1.211,-1.316 2.145,-2.869 2.803,-4.659c0.658,-1.789 0.987,-3.711 0.987,-5.764Zm-33.715,-18.476l5.211,-0l0,6.159l0.158,-0c0.842,-1.264 1.842,-2.343 3,-3.238c1.158,-0.895 2.369,-1.631 3.633,-2.211c1.263,-0.579 2.566,-1 3.908,-1.263c1.342,-0.263 2.619,-0.395 3.83,-0.395c2.895,0 5.54,0.487 7.935,1.461c2.395,0.974 4.461,2.329 6.198,4.066c1.737,1.738 3.093,3.791 4.067,6.159c0.973,2.369 1.46,4.948 1.46,7.738c0,2.79 -0.487,5.37 -1.46,7.738c-0.974,2.369 -2.33,4.422 -4.067,6.159c-1.737,1.737 -3.803,3.093 -6.198,4.067c-2.395,0.973 -5.04,1.46 -7.935,1.46c-1.211,0 -2.488,-0.131 -3.83,-0.394c-1.342,-0.264 -2.645,-0.685 -3.908,-1.264c-1.264,-0.579 -2.475,-1.316 -3.633,-2.211c-1.158,-0.895 -2.158,-1.974 -3,-3.237l-0.158,-0l0,28.899l-5.211,0l-0,-59.693Z" style="fill:rgb(0,32,255);fill-rule:nonzero;stroke:rgb(0,32,255);stroke-width:1px;stroke-linecap:butt;stroke-miterlimit:2;"/>
    <path d="M215.075,556.703c-1.316,0 -2.961,0.066 -4.935,0.198c-1.974,0.131 -3.869,0.447 -5.685,0.947c-1.816,0.5 -3.369,1.277 -4.659,2.329c-1.289,1.053 -1.934,2.501 -1.934,4.343c-0,1.211 0.25,2.251 0.75,3.119c0.5,0.869 1.171,1.579 2.013,2.132c0.843,0.553 1.777,0.948 2.804,1.184c1.026,0.237 2.066,0.356 3.118,0.356c1.895,-0 3.54,-0.316 4.935,-0.948c1.395,-0.631 2.567,-1.487 3.514,-2.566c0.948,-1.079 1.645,-2.342 2.092,-3.79c0.448,-1.448 0.672,-2.987 0.672,-4.619l-0,-2.685l-2.685,0Zm2.685,-4.264l-0,-0.947c-0,-6.369 -3.159,-9.554 -9.476,-9.554c-4.316,-0 -8.08,1.447 -11.291,4.343l-3.158,-3.711c3.474,-3.58 8.685,-5.37 15.634,-5.37c1.79,0 3.514,0.264 5.172,0.79c1.658,0.526 3.092,1.329 4.303,2.408c1.211,1.079 2.185,2.435 2.921,4.067c0.737,1.631 1.106,3.579 1.106,5.843l-0,16.502c-0,1.421 0.066,2.908 0.197,4.461c0.132,1.553 0.277,2.83 0.435,3.83l-5.054,-0c-0.158,-0.895 -0.276,-1.869 -0.355,-2.922c-0.079,-1.052 -0.119,-2.079 -0.119,-3.079l-0.157,-0c-1.527,2.474 -3.33,4.251 -5.409,5.33c-2.079,1.079 -4.619,1.618 -7.62,1.618c-1.632,0 -3.211,-0.223 -4.737,-0.671c-1.527,-0.447 -2.882,-1.132 -4.067,-2.053c-1.184,-0.921 -2.132,-2.053 -2.842,-3.395c-0.711,-1.342 -1.066,-2.908 -1.066,-4.698c-0,-3.001 0.776,-5.356 2.329,-7.067c1.553,-1.711 3.501,-2.987 5.843,-3.829c2.343,-0.843 4.843,-1.369 7.501,-1.58c2.659,-0.21 5.093,-0.316 7.304,-0.316l2.606,0Z" style="fill:rgb(0,32,255);fill-rule:nonzero;stroke:rgb(0,32,255);stroke-width:1px;stroke-linecap:butt;stroke-miterlimit:2;"/>
    <path d="M235.604,549.676c0,-1.632 -0.039,-3.29 -0.118,-4.975c-0.079,-1.684 -0.145,-3.869 -0.197,-6.553l5.132,-0l-0,6.869l0.158,0c0.368,-1 0.895,-1.961 1.579,-2.882c0.684,-0.921 1.513,-1.75 2.487,-2.487c0.974,-0.737 2.106,-1.329 3.395,-1.776c1.29,-0.448 2.751,-0.672 4.383,-0.672c1.474,0 2.763,0.158 3.869,0.474l-1.027,5.132c-0.684,-0.263 -1.684,-0.394 -3,-0.394c-2,-0 -3.711,0.381 -5.133,1.145c-1.421,0.763 -2.605,1.737 -3.553,2.921c-0.947,1.184 -1.645,2.461 -2.092,3.83c-0.448,1.368 -0.671,2.684 -0.671,3.948l-0,20.845l-5.212,-0l0,-25.425Z" style="fill:rgb(0,32,255);fill-rule:nonzero;stroke:rgb(0,32,255);stroke-width:1px;stroke-linecap:butt;stroke-miterlimit:2;"/>
    <path d="M280.374,542.885l-10.659,0l-0,21.793c-0,1.369 0.131,2.487 0.395,3.356c0.263,0.868 0.631,1.54 1.105,2.013c0.474,0.474 1.04,0.803 1.698,0.987c0.658,0.185 1.381,0.277 2.171,0.277c0.895,-0 1.816,-0.132 2.764,-0.395c0.947,-0.263 1.816,-0.605 2.605,-1.027l0.237,4.817c-1.948,0.895 -4.29,1.342 -7.027,1.342c-1,0 -2.04,-0.131 -3.119,-0.394c-1.079,-0.264 -2.066,-0.764 -2.961,-1.501c-0.895,-0.737 -1.632,-1.737 -2.211,-3c-0.579,-1.264 -0.868,-2.922 -0.868,-4.975l-0,-23.293l-7.817,0l-0,-4.737l7.817,-0l-0,-10.423l5.211,0l-0,10.423l10.659,-0l0,4.737Z" style="fill:rgb(0,32,255);fill-rule:nonzero;stroke:rgb(0,32,255);stroke-width:1px;stroke-linecap:butt;stroke-miterlimit:2;"/>
    <path d="M295.061,523.935c-0,1.106 -0.395,2.014 -1.185,2.724c-0.789,0.711 -1.658,1.066 -2.605,1.066c-0.948,0 -1.816,-0.355 -2.606,-1.066c-0.79,-0.71 -1.184,-1.618 -1.184,-2.724c-0,-1.105 0.394,-2.013 1.184,-2.724c0.79,-0.711 1.658,-1.066 2.606,-1.066c0.947,0 1.816,0.355 2.605,1.066c0.79,0.711 1.185,1.619 1.185,2.724Zm-1.185,51.166l-5.211,-0l0,-36.953l5.211,-0l0,36.953Z" style="fill:rgb(0,32,255);fill-rule:nonzero;stroke:rgb(0,32,255);stroke-width:1px;stroke-linecap:butt;stroke-miterlimit:2;"/>
    <path d="M333.356,546.833c-0.895,-1.368 -2.145,-2.526 -3.751,-3.474c-1.605,-0.947 -3.434,-1.421 -5.487,-1.421c-2.158,-0.053 -4.093,0.289 -5.804,1.026c-1.711,0.737 -3.171,1.764 -4.382,3.08c-1.211,1.316 -2.132,2.882 -2.764,4.698c-0.631,1.816 -0.947,3.777 -0.947,5.882c-0,2.106 0.316,4.067 0.947,5.883c0.632,1.816 1.553,3.382 2.764,4.698c1.211,1.316 2.671,2.342 4.382,3.079c1.711,0.737 3.646,1.079 5.804,1.027c2.053,-0 3.882,-0.474 5.487,-1.422c1.606,-0.947 2.856,-2.105 3.751,-3.474l4.264,3.238c-1.843,2.158 -3.922,3.75 -6.238,4.777c-2.316,1.026 -4.738,1.566 -7.264,1.618c-3.001,0.053 -5.712,-0.408 -8.133,-1.381c-2.421,-0.974 -4.488,-2.33 -6.198,-4.067c-1.711,-1.737 -3.014,-3.803 -3.909,-6.198c-0.895,-2.395 -1.342,-4.988 -1.342,-7.778c-0,-2.79 0.447,-5.382 1.342,-7.777c0.895,-2.395 2.198,-4.461 3.909,-6.198c1.71,-1.738 3.777,-3.093 6.198,-4.067c2.421,-0.974 5.132,-1.434 8.133,-1.382c2.526,0.053 4.948,0.593 7.264,1.619c2.316,1.026 4.395,2.619 6.238,4.777l-4.264,3.237Z" style="fill:rgb(0,32,255);fill-rule:nonzero;stroke:rgb(0,32,255);stroke-width:1px;stroke-linecap:butt;stroke-miterlimit:2;"/>
    <rect x="345.674" y="515.408" width="5.211" height="59.693" style="fill:rgb(0,32,255);fill-rule:nonzero;stroke:rgb(0,32,255);stroke-width:1px;stroke-linecap:butt;stroke-miterlimit:2;"/>
    <path d="M392.181,553.782c-0,-3.527 -1.053,-6.383 -3.159,-8.567c-2.105,-2.185 -5.053,-3.277 -8.843,-3.277c-1.685,-0 -3.316,0.329 -4.896,0.987c-1.579,0.658 -2.961,1.54 -4.145,2.645c-1.184,1.105 -2.132,2.369 -2.843,3.79c-0.71,1.421 -1.065,2.895 -1.065,4.422l24.951,-0Zm-25.109,4.264c0.158,1.842 0.605,3.579 1.342,5.211c0.737,1.632 1.711,3.04 2.921,4.224c1.211,1.185 2.606,2.119 4.185,2.803c1.579,0.685 3.29,1.027 5.133,1.027c2.79,-0 5.198,-0.645 7.224,-1.935c2.027,-1.289 3.567,-2.776 4.62,-4.461l4.026,3.316c-2.21,2.79 -4.645,4.791 -7.303,6.001c-2.659,1.211 -5.514,1.816 -8.567,1.816c-2.738,0 -5.277,-0.487 -7.62,-1.46c-2.342,-0.974 -4.356,-2.33 -6.04,-4.067c-1.685,-1.737 -3.014,-3.79 -3.988,-6.159c-0.974,-2.368 -1.461,-4.948 -1.461,-7.738c0,-2.79 0.474,-5.369 1.422,-7.738c0.947,-2.368 2.263,-4.421 3.948,-6.159c1.684,-1.737 3.658,-3.092 5.922,-4.066c2.263,-0.974 4.711,-1.461 7.343,-1.461c2.79,0 5.29,0.5 7.501,1.501c2.211,1 4.066,2.329 5.567,3.987c1.5,1.658 2.645,3.606 3.434,5.843c0.79,2.237 1.185,4.619 1.185,7.146l-0,2.369l-30.794,-0Z" style="fill:rgb(0,32,255);fill-rule:nonzero;stroke:rgb(0,32,255);stroke-width:1px;stroke-linecap:butt;stroke-miterlimit:2;"/>
    <path d="M436.872,523.935c-0,1.106 -0.395,2.014 -1.185,2.724c-0.789,0.711 -1.658,1.066 -2.605,1.066c-0.948,0 -1.816,-0.355 -2.606,-1.066c-0.79,-0.71 -1.184,-1.618 -1.184,-2.724c-0,-1.105 0.394,-2.013 1.184,-2.724c0.79,-0.711 1.658,-1.066 2.606,-1.066c0.947,0 1.816,0.355 2.605,1.066c0.79,0.711 1.185,1.619 1.185,2.724Zm-1.185,51.166l-5.211,-0l-0,-36.953l5.211,-0l0,36.953Z" style="fill:rgb(0,32,255);fill-rule:nonzero;stroke:rgb(0,32,255);stroke-width:1px;stroke-linecap:butt;stroke-miterlimit:2;"/>
    <path d="M377.792,496.855l18.759,-101.563" style="fill:none;stroke:rgb(0,32,255);stroke-width:9.28px;"/>
    <path d="M396.551,395.292l-16.54,9.623" style="fill:none;stroke:rgb(0,32,255);stroke-width:9.28px;"/>
    <path d="M396.551,395.292l12.631,13.533" style="fill:none;stroke:rgb(0,32,255);stroke-width:9.28px;"/>
    <path d="M529.758,275.468l0,-2.237l19.199,-0l-3.48,-3.945l1.678,-1.398l4.598,5.591l-0,1.989l-21.995,-0Z" style="fill-rule:nonzero;stroke:black;stroke-width:1px;stroke-linecap:butt;stroke-miterlimit:2;"/>
    <path d="M529.199,283.886l0.59,-1.801l22.523,9.412l-0.622,1.771l-22.491,-9.382Z" style="fill-rule:nonzero;stroke:black;stroke-width:1px;stroke-linecap:butt;stroke-miterlimit:2;"/>
    <path d="M553.244,295.66l-0,2.05l-11.277,0l0,0.063c0.394,0.227 0.756,0.517 1.087,0.869c0.332,0.352 0.616,0.746 0.855,1.181c0.238,0.435 0.424,0.896 0.559,1.382c0.134,0.487 0.202,0.968 0.202,1.445c-0,1.864 -0.492,3.241 -1.476,4.131c-0.984,0.891 -2.387,1.336 -4.209,1.336l-9.227,0l0,-2.05l8.046,-0c1.616,-0 2.853,-0.28 3.713,-0.839c0.859,-0.559 1.289,-1.594 1.289,-3.106c-0,-0.104 -0.042,-0.394 -0.124,-0.87c-0.083,-0.476 -0.311,-0.979 -0.684,-1.507c-0.373,-0.528 -0.932,-0.999 -1.677,-1.413c-0.746,-0.415 -1.782,-0.622 -3.107,-0.622l-7.456,0l0,-2.05l23.486,0Z" style="fill-rule:nonzero;stroke:black;stroke-width:1px;stroke-linecap:butt;stroke-miterlimit:2;"/>
    <path d="M520.456,343.587l0,-107.517" style="fill:none;stroke:black;stroke-opacity:0.98;stroke-width:4.25px;"/>
    <path d="M520.456,236.07l-12.82,12.82" style="fill:none;stroke:black;stroke-opacity:0.98;stroke-width:4.25px;"/>
    <path d="M520.456,236.07l14.22,14.22" style="fill:none;stroke:black;stroke-opacity:0.98;stroke-width:4.25px;"/>
    <path d="M519.756,343.926l-12.656,-12.656" style="fill:none;stroke:black;stroke-opacity:0.98;stroke-width:4.25px;"/>
    <path d="M519.756,343.926l12.393,-12.393" style="fill:none;stroke:black;stroke-opacity:0.98;stroke-width:4.25px;"/>
    <path d="M694.2,88.104c0,-0.803 -0.128,-1.556 -0.386,-2.256c-0.258,-0.701 -0.623,-1.309 -1.098,-1.824c-0.474,-0.516 -1.045,-0.923 -1.715,-1.221c-0.67,-0.299 -1.427,-0.449 -2.272,-0.449c-0.845,0 -1.603,0.15 -2.273,0.449c-0.669,0.298 -1.236,0.705 -1.7,1.221c-0.464,0.515 -0.824,1.123 -1.082,1.824c-0.258,0.7 -0.386,1.453 -0.386,2.256c-0,0.804 0.128,1.556 0.386,2.257c0.258,0.701 0.618,1.309 1.082,1.824c0.464,0.515 1.031,0.922 1.7,1.221c0.67,0.299 1.428,0.448 2.273,0.448c0.845,0 1.602,-0.149 2.272,-0.448c0.67,-0.299 1.241,-0.706 1.715,-1.221c0.475,-0.515 0.84,-1.123 1.098,-1.824c0.258,-0.701 0.386,-1.453 0.386,-2.257Zm2.226,0c0,1.093 -0.19,2.102 -0.572,3.03c-0.381,0.927 -0.912,1.731 -1.592,2.411c-0.68,0.68 -1.489,1.211 -2.427,1.592c-0.937,0.382 -1.973,0.572 -3.106,0.572c-1.113,0 -2.139,-0.19 -3.076,-0.572c-0.938,-0.381 -1.747,-0.912 -2.427,-1.592c-0.68,-0.68 -1.211,-1.484 -1.592,-2.411c-0.382,-0.928 -0.572,-1.937 -0.572,-3.03c-0,-1.092 0.19,-2.102 0.572,-3.029c0.381,-0.928 0.912,-1.731 1.592,-2.412c0.68,-0.68 1.489,-1.21 2.427,-1.592c0.937,-0.381 1.963,-0.572 3.076,-0.572c1.133,0 2.169,0.191 3.106,0.572c0.938,0.382 1.747,0.912 2.427,1.592c0.68,0.681 1.211,1.484 1.592,2.412c0.382,0.927 0.572,1.937 0.572,3.029Z" style="fill-rule:nonzero;stroke:black;stroke-width:1px;stroke-linecap:butt;stroke-miterlimit:2;"/>
    <path d="M706.504,95.338l-2.287,0l-5.874,-14.468l2.442,0l4.606,12.181l0.062,-0l4.606,-12.181l2.319,0l-5.874,14.468Z" style="fill-rule:nonzero;stroke:black;stroke-width:1px;stroke-linecap:butt;stroke-miterlimit:2;"/>
    <path d="M726.289,86.991c0,-1.38 -0.412,-2.499 -1.236,-3.354c-0.825,-0.855 -1.979,-1.283 -3.463,-1.283c-0.659,0 -1.298,0.129 -1.916,0.387c-0.619,0.257 -1.16,0.603 -1.623,1.035c-0.464,0.433 -0.835,0.928 -1.113,1.484c-0.278,0.557 -0.418,1.134 -0.418,1.731l9.769,0Zm-9.83,1.67c0.061,0.721 0.237,1.401 0.525,2.04c0.289,0.639 0.67,1.19 1.144,1.654c0.474,0.464 1.02,0.83 1.638,1.097c0.619,0.268 1.289,0.402 2.01,0.402c1.092,0 2.035,-0.252 2.829,-0.757c0.793,-0.505 1.396,-1.087 1.808,-1.747l1.577,1.299c-0.866,1.092 -1.819,1.875 -2.86,2.349c-1.041,0.474 -2.159,0.711 -3.354,0.711c-1.072,0 -2.066,-0.19 -2.983,-0.572c-0.917,-0.381 -1.706,-0.912 -2.365,-1.592c-0.66,-0.68 -1.18,-1.484 -1.561,-2.411c-0.382,-0.928 -0.572,-1.937 -0.572,-3.03c-0,-1.092 0.185,-2.102 0.556,-3.029c0.371,-0.928 0.886,-1.731 1.546,-2.412c0.659,-0.68 1.432,-1.21 2.318,-1.592c0.887,-0.381 1.845,-0.572 2.875,-0.572c1.093,0 2.072,0.196 2.937,0.588c0.866,0.391 1.592,0.912 2.18,1.561c0.587,0.649 1.035,1.412 1.344,2.288c0.31,0.875 0.464,1.808 0.464,2.797l0,0.928l-12.056,-0Z" style="fill-rule:nonzero;stroke:black;stroke-width:1px;stroke-linecap:butt;stroke-miterlimit:2;"/>
    <path d="M732.441,85.384c0,-0.639 -0.015,-1.288 -0.046,-1.948c-0.031,-0.659 -0.057,-1.515 -0.077,-2.566l2.009,0l0,2.69l0.062,-0c0.144,-0.392 0.35,-0.768 0.618,-1.128c0.268,-0.361 0.593,-0.686 0.974,-0.974c0.381,-0.289 0.824,-0.521 1.329,-0.696c0.505,-0.175 1.077,-0.263 1.716,-0.263c0.577,0 1.082,0.062 1.515,0.186l-0.402,2.009c-0.268,-0.103 -0.66,-0.154 -1.175,-0.154c-0.783,-0 -1.453,0.149 -2.009,0.448c-0.557,0.299 -1.02,0.68 -1.391,1.144c-0.371,0.464 -0.644,0.963 -0.82,1.499c-0.175,0.536 -0.262,1.051 -0.262,1.546l-0,8.161l-2.041,0l0,-9.954Z" style="fill-rule:nonzero;stroke:black;stroke-width:1px;stroke-linecap:butt;stroke-miterlimit:2;"/>
    <rect x="742.952" y="71.967" width="2.04" height="23.371" style="fill-rule:nonzero;stroke:black;stroke-width:1px;stroke-linecap:butt;stroke-miterlimit:2;"/>
    <path d="M758.131,88.135c-0.515,0 -1.159,0.026 -1.932,0.077c-0.773,0.052 -1.515,0.176 -2.226,0.371c-0.711,0.196 -1.319,0.5 -1.824,0.912c-0.505,0.413 -0.757,0.979 -0.757,1.701c-0,0.474 0.098,0.881 0.293,1.221c0.196,0.34 0.459,0.618 0.789,0.835c0.329,0.216 0.695,0.37 1.097,0.463c0.402,0.093 0.809,0.139 1.221,0.139c0.742,0 1.386,-0.123 1.932,-0.371c0.547,-0.247 1.005,-0.582 1.376,-1.004c0.371,-0.423 0.644,-0.917 0.819,-1.484c0.175,-0.567 0.263,-1.17 0.263,-1.809l0,-1.051l-1.051,0Zm1.051,-1.669l0,-0.371c0,-2.494 -1.236,-3.741 -3.71,-3.741c-1.69,0 -3.163,0.567 -4.42,1.701l-1.237,-1.453c1.36,-1.402 3.401,-2.103 6.121,-2.103c0.701,0 1.376,0.103 2.025,0.31c0.649,0.206 1.211,0.52 1.685,0.942c0.474,0.423 0.855,0.954 1.144,1.593c0.288,0.638 0.432,1.401 0.432,2.287l0,6.461c0,0.557 0.026,1.139 0.078,1.747c0.051,0.608 0.108,1.108 0.17,1.499l-1.979,0c-0.062,-0.35 -0.108,-0.731 -0.139,-1.144c-0.031,-0.412 -0.046,-0.814 -0.046,-1.205l-0.062,-0c-0.598,0.968 -1.304,1.664 -2.118,2.086c-0.814,0.423 -1.808,0.634 -2.983,0.634c-0.639,0 -1.257,-0.087 -1.855,-0.263c-0.597,-0.175 -1.128,-0.443 -1.592,-0.803c-0.464,-0.361 -0.835,-0.804 -1.113,-1.33c-0.278,-0.525 -0.417,-1.138 -0.417,-1.839c-0,-1.175 0.304,-2.097 0.912,-2.767c0.608,-0.67 1.37,-1.169 2.287,-1.499c0.918,-0.33 1.897,-0.536 2.937,-0.619c1.041,-0.082 1.994,-0.123 2.86,-0.123l1.02,-0Z" style="fill-rule:nonzero;stroke:black;stroke-width:1px;stroke-linecap:butt;stroke-miterlimit:2;"/>
    <path d="M779.153,88.104c-0,-0.803 -0.129,-1.556 -0.387,-2.256c-0.257,-0.701 -0.623,-1.309 -1.097,-1.824c-0.474,-0.516 -1.046,-0.923 -1.716,-1.221c-0.67,-0.299 -1.427,-0.449 -2.272,-0.449c-0.845,0 -1.618,0.15 -2.319,0.449c-0.7,0.298 -1.308,0.705 -1.824,1.221c-0.515,0.515 -0.917,1.123 -1.205,1.824c-0.289,0.7 -0.433,1.453 -0.433,2.256c-0,0.804 0.144,1.556 0.433,2.257c0.288,0.701 0.69,1.309 1.205,1.824c0.516,0.515 1.124,0.922 1.824,1.221c0.701,0.299 1.474,0.448 2.319,0.448c0.845,0 1.602,-0.149 2.272,-0.448c0.67,-0.299 1.242,-0.706 1.716,-1.221c0.474,-0.515 0.84,-1.123 1.097,-1.824c0.258,-0.701 0.387,-1.453 0.387,-2.257Zm-13.201,-7.234l2.041,0l-0,2.412l0.061,-0c0.33,-0.495 0.722,-0.917 1.175,-1.268c0.454,-0.35 0.928,-0.639 1.422,-0.865c0.495,-0.227 1.005,-0.392 1.531,-0.495c0.525,-0.103 1.025,-0.155 1.499,-0.155c1.133,0 2.169,0.191 3.107,0.572c0.937,0.382 1.746,0.912 2.427,1.592c0.68,0.681 1.21,1.484 1.592,2.412c0.381,0.927 0.572,1.937 0.572,3.029c-0,1.093 -0.191,2.102 -0.572,3.03c-0.382,0.927 -0.912,1.731 -1.592,2.411c-0.681,0.68 -1.49,1.211 -2.427,1.592c-0.938,0.382 -1.974,0.572 -3.107,0.572c-0.474,0 -0.974,-0.051 -1.499,-0.154c-0.526,-0.103 -1.036,-0.268 -1.531,-0.495c-0.494,-0.227 -0.968,-0.515 -1.422,-0.866c-0.453,-0.35 -0.845,-0.772 -1.175,-1.267l-0.061,-0l-0,11.315l-2.041,-0l0,-23.372Z" style="fill-rule:nonzero;stroke:black;stroke-width:1px;stroke-linecap:butt;stroke-miterlimit:2;"/>
    <path d="M805.832,88.104c-0,-0.803 -0.129,-1.556 -0.387,-2.256c-0.257,-0.701 -0.623,-1.309 -1.097,-1.824c-0.474,-0.516 -1.046,-0.923 -1.716,-1.221c-0.67,-0.299 -1.427,-0.449 -2.272,-0.449c-0.845,0 -1.603,0.15 -2.272,0.449c-0.67,0.298 -1.237,0.705 -1.701,1.221c-0.463,0.515 -0.824,1.123 -1.082,1.824c-0.257,0.7 -0.386,1.453 -0.386,2.256c-0,0.804 0.129,1.556 0.386,2.257c0.258,0.701 0.619,1.309 1.082,1.824c0.464,0.515 1.031,0.922 1.701,1.221c0.669,0.299 1.427,0.448 2.272,0.448c0.845,0 1.602,-0.149 2.272,-0.448c0.67,-0.299 1.242,-0.706 1.716,-1.221c0.474,-0.515 0.84,-1.123 1.097,-1.824c0.258,-0.701 0.387,-1.453 0.387,-2.257Zm2.225,0c0,1.093 -0.19,2.102 -0.571,3.03c-0.382,0.927 -0.912,1.731 -1.593,2.411c-0.68,0.68 -1.489,1.211 -2.426,1.592c-0.938,0.382 -1.974,0.572 -3.107,0.572c-1.113,0 -2.138,-0.19 -3.076,-0.572c-0.938,-0.381 -1.747,-0.912 -2.427,-1.592c-0.68,-0.68 -1.211,-1.484 -1.592,-2.411c-0.381,-0.928 -0.572,-1.937 -0.572,-3.03c0,-1.092 0.191,-2.102 0.572,-3.029c0.381,-0.928 0.912,-1.731 1.592,-2.412c0.68,-0.68 1.489,-1.21 2.427,-1.592c0.938,-0.381 1.963,-0.572 3.076,-0.572c1.133,0 2.169,0.191 3.107,0.572c0.937,0.382 1.746,0.912 2.426,1.592c0.681,0.681 1.211,1.484 1.593,2.412c0.381,0.927 0.571,1.937 0.571,3.029Z" style="fill-rule:nonzero;stroke:black;stroke-width:1px;stroke-linecap:butt;stroke-miterlimit:2;"/>
    <path d="M818.506,82.725l-3.431,0l0,12.613l-2.04,0l-0,-12.613l-3.061,0l0,-1.855l3.061,0l-0,-3.957c-0,-1.916 0.443,-3.282 1.329,-4.096c0.886,-0.814 2.061,-1.221 3.524,-1.221c0.289,0 0.582,0.021 0.881,0.062c0.299,0.041 0.593,0.093 0.881,0.154l-0.371,1.855c-0.247,-0.061 -0.505,-0.113 -0.773,-0.154c-0.267,-0.041 -0.535,-0.062 -0.803,-0.062c-0.557,-0 -1.01,0.093 -1.361,0.278c-0.35,0.186 -0.618,0.448 -0.803,0.788c-0.186,0.341 -0.309,0.737 -0.371,1.191c-0.062,0.453 -0.093,0.937 -0.093,1.453l0,3.709l3.431,0l0,1.855Z" style="fill-rule:nonzero;stroke:black;stroke-width:1px;stroke-linecap:butt;stroke-miterlimit:2;"/>
    <path d="M836.993,82.725l-4.173,0l-0,8.533c-0,0.535 0.051,0.973 0.154,1.313c0.103,0.34 0.248,0.603 0.433,0.789c0.186,0.185 0.407,0.314 0.665,0.386c0.257,0.072 0.541,0.108 0.85,0.108c0.35,0 0.711,-0.051 1.082,-0.154c0.371,-0.103 0.711,-0.237 1.02,-0.402l0.093,1.886c-0.763,0.35 -1.68,0.525 -2.752,0.525c-0.391,0 -0.798,-0.051 -1.221,-0.154c-0.422,-0.103 -0.809,-0.299 -1.159,-0.588c-0.35,-0.288 -0.639,-0.68 -0.866,-1.174c-0.226,-0.495 -0.34,-1.144 -0.34,-1.948l0,-9.12l-3.06,0l-0,-1.855l3.06,0l0,-4.08l2.041,-0l-0,4.08l4.173,0l0,1.855Z" style="fill-rule:nonzero;stroke:black;stroke-width:1px;stroke-linecap:butt;stroke-miterlimit:2;"/>
    <path d="M852.172,88.104c0,-0.803 -0.129,-1.556 -0.386,-2.256c-0.258,-0.701 -0.624,-1.309 -1.098,-1.824c-0.474,-0.516 -1.046,-0.923 -1.716,-1.221c-0.669,-0.299 -1.427,-0.449 -2.272,-0.449c-0.845,0 -1.602,0.15 -2.272,0.449c-0.67,0.298 -1.236,0.705 -1.7,1.221c-0.464,0.515 -0.825,1.123 -1.082,1.824c-0.258,0.7 -0.387,1.453 -0.387,2.256c0,0.804 0.129,1.556 0.387,2.257c0.257,0.701 0.618,1.309 1.082,1.824c0.464,0.515 1.03,0.922 1.7,1.221c0.67,0.299 1.427,0.448 2.272,0.448c0.845,0 1.603,-0.149 2.272,-0.448c0.67,-0.299 1.242,-0.706 1.716,-1.221c0.474,-0.515 0.84,-1.123 1.098,-1.824c0.257,-0.701 0.386,-1.453 0.386,-2.257Zm2.226,0c-0,1.093 -0.191,2.102 -0.572,3.03c-0.381,0.927 -0.912,1.731 -1.592,2.411c-0.68,0.68 -1.489,1.211 -2.427,1.592c-0.938,0.382 -1.973,0.572 -3.107,0.572c-1.113,0 -2.138,-0.19 -3.076,-0.572c-0.937,-0.381 -1.746,-0.912 -2.426,-1.592c-0.681,-0.68 -1.211,-1.484 -1.593,-2.411c-0.381,-0.928 -0.571,-1.937 -0.571,-3.03c-0,-1.092 0.19,-2.102 0.571,-3.029c0.382,-0.928 0.912,-1.731 1.593,-2.412c0.68,-0.68 1.489,-1.21 2.426,-1.592c0.938,-0.381 1.963,-0.572 3.076,-0.572c1.134,0 2.169,0.191 3.107,0.572c0.938,0.382 1.747,0.912 2.427,1.592c0.68,0.681 1.211,1.484 1.592,2.412c0.381,0.927 0.572,1.937 0.572,3.029Z" style="fill-rule:nonzero;stroke:black;stroke-width:1px;stroke-linecap:butt;stroke-miterlimit:2;"/>
    <path d="M871.308,88.104c-0,-0.803 -0.129,-1.556 -0.386,-2.256c-0.258,-0.701 -0.624,-1.309 -1.098,-1.824c-0.474,-0.516 -1.046,-0.923 -1.716,-1.221c-0.669,-0.299 -1.427,-0.449 -2.272,-0.449c-0.845,0 -1.618,0.15 -2.318,0.449c-0.701,0.298 -1.309,0.705 -1.824,1.221c-0.516,0.515 -0.917,1.123 -1.206,1.824c-0.289,0.7 -0.433,1.453 -0.433,2.256c0,0.804 0.144,1.556 0.433,2.257c0.289,0.701 0.69,1.309 1.206,1.824c0.515,0.515 1.123,0.922 1.824,1.221c0.7,0.299 1.473,0.448 2.318,0.448c0.845,0 1.603,-0.149 2.272,-0.448c0.67,-0.299 1.242,-0.706 1.716,-1.221c0.474,-0.515 0.84,-1.123 1.098,-1.824c0.257,-0.701 0.386,-1.453 0.386,-2.257Zm-13.2,-7.234l2.04,0l-0,2.412l0.062,-0c0.33,-0.495 0.721,-0.917 1.175,-1.268c0.453,-0.35 0.927,-0.639 1.422,-0.865c0.494,-0.227 1.004,-0.392 1.53,-0.495c0.525,-0.103 1.025,-0.155 1.499,-0.155c1.134,0 2.169,0.191 3.107,0.572c0.938,0.382 1.747,0.912 2.427,1.592c0.68,0.681 1.211,1.484 1.592,2.412c0.381,0.927 0.572,1.937 0.572,3.029c-0,1.093 -0.191,2.102 -0.572,3.03c-0.381,0.927 -0.912,1.731 -1.592,2.411c-0.68,0.68 -1.489,1.211 -2.427,1.592c-0.938,0.382 -1.973,0.572 -3.107,0.572c-0.474,0 -0.974,-0.051 -1.499,-0.154c-0.526,-0.103 -1.036,-0.268 -1.53,-0.495c-0.495,-0.227 -0.969,-0.515 -1.422,-0.866c-0.454,-0.35 -0.845,-0.772 -1.175,-1.267l-0.062,-0l-0,11.315l-2.04,-0l-0,-23.372Z" style="fill-rule:nonzero;stroke:black;stroke-width:1px;stroke-linecap:butt;stroke-miterlimit:2;"/>
    <rect x="875.945" y="86.899" width="7.945" height="2.04" style="fill-rule:nonzero;stroke:black;stroke-width:1px;stroke-linecap:butt;stroke-miterlimit:2;"/>
    <path d="M887.291,71.967l2.04,0l-0,11.222l0.062,-0c0.227,-0.392 0.515,-0.752 0.865,-1.082c0.351,-0.33 0.742,-0.613 1.175,-0.85c0.433,-0.237 0.892,-0.423 1.376,-0.557c0.484,-0.134 0.963,-0.201 1.437,-0.201c1.855,0 3.226,0.49 4.112,1.469c0.886,0.979 1.329,2.375 1.329,4.189l0,9.181l-2.04,0l-0,-8.007c-0,-1.607 -0.278,-2.839 -0.835,-3.694c-0.556,-0.855 -1.587,-1.283 -3.091,-1.283c-0.103,0 -0.392,0.041 -0.866,0.124c-0.474,0.082 -0.974,0.309 -1.499,0.68c-0.526,0.371 -0.995,0.927 -1.407,1.669c-0.412,0.742 -0.618,1.773 -0.618,3.092l-0,7.419l-2.04,0l-0,-23.371Z" style="fill-rule:nonzero;stroke:black;stroke-width:1px;stroke-linecap:butt;stroke-miterlimit:2;"/>
    <path d="M912.702,88.135c-0.515,0 -1.159,0.026 -1.932,0.077c-0.773,0.052 -1.515,0.176 -2.226,0.371c-0.711,0.196 -1.319,0.5 -1.824,0.912c-0.505,0.413 -0.757,0.979 -0.757,1.701c-0,0.474 0.098,0.881 0.294,1.221c0.195,0.34 0.458,0.618 0.788,0.835c0.33,0.216 0.695,0.37 1.097,0.463c0.402,0.093 0.809,0.139 1.221,0.139c0.742,0 1.386,-0.123 1.933,-0.371c0.546,-0.247 1.004,-0.582 1.375,-1.004c0.371,-0.423 0.644,-0.917 0.819,-1.484c0.176,-0.567 0.263,-1.17 0.263,-1.809l0,-1.051l-1.051,0Zm1.051,-1.669l0,-0.371c0,-2.494 -1.236,-3.741 -3.709,-3.741c-1.69,0 -3.164,0.567 -4.421,1.701l-1.237,-1.453c1.36,-1.402 3.401,-2.103 6.121,-2.103c0.701,0 1.376,0.103 2.025,0.31c0.649,0.206 1.211,0.52 1.685,0.942c0.474,0.423 0.855,0.954 1.144,1.593c0.288,0.638 0.433,1.401 0.433,2.287l-0,6.461c-0,0.557 0.025,1.139 0.077,1.747c0.051,0.608 0.108,1.108 0.17,1.499l-1.979,0c-0.061,-0.35 -0.108,-0.731 -0.139,-1.144c-0.031,-0.412 -0.046,-0.814 -0.046,-1.205l-0.062,-0c-0.598,0.968 -1.303,1.664 -2.118,2.086c-0.814,0.423 -1.808,0.634 -2.983,0.634c-0.639,0 -1.257,-0.087 -1.855,-0.263c-0.597,-0.175 -1.128,-0.443 -1.592,-0.803c-0.463,-0.361 -0.834,-0.804 -1.113,-1.33c-0.278,-0.525 -0.417,-1.138 -0.417,-1.839c0,-1.175 0.304,-2.097 0.912,-2.767c0.608,-0.67 1.371,-1.169 2.288,-1.499c0.917,-0.33 1.896,-0.536 2.937,-0.619c1.04,-0.082 1.993,-0.123 2.859,-0.123l1.02,-0Z" style="fill-rule:nonzero;stroke:black;stroke-width:1px;stroke-linecap:butt;stroke-miterlimit:2;"/>
    <path d="M928.005,82.725l-4.174,0l0,8.533c0,0.535 0.052,0.973 0.155,1.313c0.103,0.34 0.247,0.603 0.433,0.789c0.185,0.185 0.407,0.314 0.664,0.386c0.258,0.072 0.541,0.108 0.85,0.108c0.351,0 0.711,-0.051 1.082,-0.154c0.371,-0.103 0.711,-0.237 1.021,-0.402l0.092,1.886c-0.762,0.35 -1.679,0.525 -2.751,0.525c-0.392,0 -0.799,-0.051 -1.221,-0.154c-0.423,-0.103 -0.809,-0.299 -1.159,-0.588c-0.351,-0.288 -0.639,-0.68 -0.866,-1.174c-0.227,-0.495 -0.34,-1.144 -0.34,-1.948l-0,-9.12l-3.061,0l0,-1.855l3.061,0l-0,-4.08l2.04,-0l0,4.08l4.174,0l-0,1.855Z" style="fill-rule:nonzero;stroke:black;stroke-width:1px;stroke-linecap:butt;stroke-miterlimit:2;"/>
    <path d="M947.604,88.135c-0.515,0 -1.159,0.026 -1.932,0.077c-0.773,0.052 -1.515,0.176 -2.226,0.371c-0.711,0.196 -1.319,0.5 -1.824,0.912c-0.505,0.413 -0.757,0.979 -0.757,1.701c0,0.474 0.098,0.881 0.294,1.221c0.195,0.34 0.458,0.618 0.788,0.835c0.33,0.216 0.696,0.37 1.097,0.463c0.402,0.093 0.809,0.139 1.222,0.139c0.742,0 1.386,-0.123 1.932,-0.371c0.546,-0.247 1.004,-0.582 1.375,-1.004c0.371,-0.423 0.644,-0.917 0.82,-1.484c0.175,-0.567 0.262,-1.17 0.262,-1.809l0,-1.051l-1.051,0Zm1.051,-1.669l0,-0.371c0,-2.494 -1.236,-3.741 -3.709,-3.741c-1.69,0 -3.164,0.567 -4.421,1.701l-1.237,-1.453c1.361,-1.402 3.401,-2.103 6.121,-2.103c0.701,0 1.376,0.103 2.025,0.31c0.649,0.206 1.211,0.52 1.685,0.942c0.474,0.423 0.855,0.954 1.144,1.593c0.288,0.638 0.433,1.401 0.433,2.287l-0,6.461c-0,0.557 0.026,1.139 0.077,1.747c0.052,0.608 0.108,1.108 0.17,1.499l-1.978,0c-0.062,-0.35 -0.109,-0.731 -0.14,-1.144c-0.03,-0.412 -0.046,-0.814 -0.046,-1.205l-0.062,-0c-0.597,0.968 -1.303,1.664 -2.117,2.086c-0.814,0.423 -1.809,0.634 -2.984,0.634c-0.639,0 -1.257,-0.087 -1.854,-0.263c-0.598,-0.175 -1.129,-0.443 -1.593,-0.803c-0.463,-0.361 -0.834,-0.804 -1.112,-1.33c-0.279,-0.525 -0.418,-1.138 -0.418,-1.839c0,-1.175 0.304,-2.097 0.912,-2.767c0.608,-0.67 1.371,-1.169 2.288,-1.499c0.917,-0.33 1.896,-0.536 2.937,-0.619c1.04,-0.082 1.994,-0.123 2.859,-0.123l1.02,-0Z" style="fill-rule:nonzero;stroke:black;stroke-width:1px;stroke-linecap:butt;stroke-miterlimit:2;"/>
    <path d="M957.373,80.87c0.041,0.392 0.067,0.778 0.078,1.16c0.01,0.381 0.015,0.767 0.015,1.159l0.062,-0c0.226,-0.392 0.515,-0.752 0.865,-1.082c0.351,-0.33 0.742,-0.613 1.175,-0.85c0.433,-0.237 0.891,-0.423 1.376,-0.557c0.484,-0.134 0.963,-0.201 1.437,-0.201c1.855,0 3.226,0.49 4.112,1.469c0.886,0.979 1.329,2.375 1.329,4.189l0,9.181l-2.04,0l-0,-8.007c-0,-1.607 -0.278,-2.839 -0.835,-3.694c-0.556,-0.855 -1.587,-1.283 -3.091,-1.283c-0.103,0 -0.392,0.041 -0.866,0.124c-0.474,0.082 -0.974,0.309 -1.499,0.68c-0.526,0.371 -0.995,0.927 -1.407,1.669c-0.412,0.742 -0.618,1.773 -0.618,3.092l-0,7.419l-2.04,0l-0,-11.283c-0,-0.392 -0.016,-0.887 -0.047,-1.484c-0.031,-0.598 -0.067,-1.165 -0.108,-1.701l2.102,0Z" style="fill-rule:nonzero;stroke:black;stroke-width:1px;stroke-linecap:butt;stroke-miterlimit:2;"/>
    <path d="M973.851,88.104c-0,0.804 0.128,1.556 0.386,2.257c0.258,0.701 0.623,1.309 1.097,1.824c0.474,0.515 1.046,0.922 1.716,1.221c0.67,0.299 1.427,0.448 2.272,0.448c0.825,0 1.592,-0.149 2.303,-0.448c0.711,-0.299 1.325,-0.706 1.84,-1.221c0.515,-0.515 0.917,-1.123 1.205,-1.824c0.289,-0.701 0.433,-1.453 0.433,-2.257c0,-0.803 -0.144,-1.556 -0.433,-2.256c-0.288,-0.701 -0.69,-1.309 -1.205,-1.824c-0.515,-0.516 -1.129,-0.923 -1.84,-1.221c-0.711,-0.299 -1.478,-0.449 -2.303,-0.449c-0.845,0 -1.602,0.15 -2.272,0.449c-0.67,0.298 -1.242,0.705 -1.716,1.221c-0.474,0.515 -0.839,1.123 -1.097,1.824c-0.258,0.7 -0.386,1.453 -0.386,2.256Zm13.2,7.234l-2.04,0l-0,-2.411l-0.062,-0c-0.33,0.495 -0.722,0.917 -1.175,1.267c-0.453,0.351 -0.927,0.639 -1.422,0.866c-0.495,0.227 -1.005,0.392 -1.53,0.495c-0.526,0.103 -1.026,0.154 -1.5,0.154c-1.133,0 -2.169,-0.19 -3.107,-0.572c-0.937,-0.381 -1.746,-0.912 -2.426,-1.592c-0.68,-0.68 -1.211,-1.484 -1.592,-2.411c-0.382,-0.928 -0.572,-1.937 -0.572,-3.03c-0,-1.092 0.19,-2.102 0.572,-3.029c0.381,-0.928 0.912,-1.731 1.592,-2.412c0.68,-0.68 1.489,-1.21 2.426,-1.592c0.938,-0.381 1.974,-0.572 3.107,-0.572c0.474,0 0.974,0.052 1.5,0.155c0.525,0.103 1.035,0.268 1.53,0.495c0.495,0.226 0.969,0.515 1.422,0.865c0.453,0.351 0.845,0.773 1.175,1.268l0.062,-0l-0,-11.315l2.04,0l-0,23.371Z" style="fill-rule:nonzero;stroke:black;stroke-width:1px;stroke-linecap:butt;stroke-miterlimit:2;"/>
    <path d="M1010.64,84.271c-0.35,-0.536 -0.839,-0.989 -1.468,-1.36c-0.629,-0.371 -1.345,-0.557 -2.149,-0.557c-0.845,-0.02 -1.602,0.114 -2.272,0.402c-0.67,0.289 -1.241,0.691 -1.715,1.206c-0.474,0.515 -0.835,1.128 -1.082,1.839c-0.248,0.711 -0.371,1.479 -0.371,2.303c-0,0.825 0.123,1.592 0.371,2.303c0.247,0.711 0.608,1.325 1.082,1.84c0.474,0.515 1.045,0.917 1.715,1.205c0.67,0.289 1.427,0.423 2.272,0.402c0.804,0 1.52,-0.185 2.149,-0.556c0.629,-0.371 1.118,-0.824 1.468,-1.36l1.67,1.267c-0.722,0.845 -1.536,1.469 -2.442,1.87c-0.907,0.402 -1.855,0.614 -2.845,0.634c-1.174,0.021 -2.236,-0.16 -3.184,-0.541c-0.948,-0.381 -1.757,-0.912 -2.426,-1.592c-0.67,-0.68 -1.18,-1.489 -1.531,-2.427c-0.35,-0.937 -0.525,-1.952 -0.525,-3.045c-0,-1.092 0.175,-2.107 0.525,-3.045c0.351,-0.937 0.861,-1.746 1.531,-2.427c0.669,-0.68 1.478,-1.21 2.426,-1.592c0.948,-0.381 2.01,-0.561 3.184,-0.541c0.99,0.021 1.938,0.232 2.845,0.634c0.906,0.402 1.72,1.025 2.442,1.87l-1.67,1.268Z" style="fill-rule:nonzero;stroke:black;stroke-width:1px;stroke-linecap:butt;stroke-miterlimit:2;"/>
    <path d="M1026.25,86.991c0,-1.38 -0.412,-2.499 -1.236,-3.354c-0.825,-0.855 -1.979,-1.283 -3.463,-1.283c-0.659,0 -1.298,0.129 -1.917,0.387c-0.618,0.257 -1.159,0.603 -1.623,1.035c-0.463,0.433 -0.834,0.928 -1.112,1.484c-0.279,0.557 -0.418,1.134 -0.418,1.731l9.769,0Zm-9.831,1.67c0.062,0.721 0.237,1.401 0.526,2.04c0.288,0.639 0.67,1.19 1.144,1.654c0.474,0.464 1.02,0.83 1.638,1.097c0.619,0.268 1.288,0.402 2.01,0.402c1.092,0 2.035,-0.252 2.828,-0.757c0.794,-0.505 1.397,-1.087 1.809,-1.747l1.576,1.299c-0.865,1.092 -1.818,1.875 -2.859,2.349c-1.041,0.474 -2.159,0.711 -3.354,0.711c-1.072,0 -2.066,-0.19 -2.984,-0.572c-0.917,-0.381 -1.705,-0.912 -2.365,-1.592c-0.659,-0.68 -1.179,-1.484 -1.561,-2.411c-0.381,-0.928 -0.572,-1.937 -0.572,-3.03c0,-1.092 0.186,-2.102 0.557,-3.029c0.371,-0.928 0.886,-1.731 1.546,-2.412c0.659,-0.68 1.432,-1.21 2.318,-1.592c0.886,-0.381 1.845,-0.572 2.875,-0.572c1.092,0 2.071,0.196 2.937,0.588c0.866,0.391 1.592,0.912 2.179,1.561c0.588,0.649 1.036,1.412 1.345,2.288c0.309,0.875 0.464,1.808 0.464,2.797l-0,0.928l-12.057,-0Z" style="fill-rule:nonzero;stroke:black;stroke-width:1px;stroke-linecap:butt;stroke-miterlimit:2;"/>
    <rect x="1032.65" y="71.967" width="2.04" height="23.371" style="fill-rule:nonzero;stroke:black;stroke-width:1px;stroke-linecap:butt;stroke-miterlimit:2;"/>
    <rect x="1040.07" y="71.967" width="2.04" height="23.371" style="fill-rule:nonzero;stroke:black;stroke-width:1px;stroke-linecap:butt;stroke-miterlimit:2;"/>
    <path d="M662.144,87.357c-10.615,-2.092 -16.984,-7.648 -23.724,-15.351" style="fill:none;stroke:black;stroke-opacity:0.98;stroke-width:4.25px;"/>
    <path d="M638.42,72.006l-0.89,9.269" style="fill:none;stroke:black;stroke-opacity:0.98;stroke-width:4.25px;"/>
    <path d="M638.42,72.006l9.328,-0.948" style="fill:none;stroke:black;stroke-opacity:0.98;stroke-width:4.25px;"/>
    <path d="M17.618,622.772c-2.758,0 -4.933,0.737 -6.526,2.211c-1.593,1.474 -2.794,3.305 -3.602,5.492c-0.809,2.187 -1.32,4.517 -1.534,6.99c-0.214,2.473 -0.321,4.707 -0.321,6.704c0,1.998 0.107,4.232 0.321,6.705c0.214,2.473 0.725,4.802 1.534,6.99c0.808,2.187 2.009,4.018 3.602,5.492c1.593,1.474 3.768,2.211 6.526,2.211c2.758,-0 4.933,-0.737 6.526,-2.211c1.593,-1.474 2.794,-3.305 3.602,-5.492c0.808,-2.188 1.32,-4.517 1.534,-6.99c0.213,-2.473 0.32,-4.707 0.32,-6.705c0,-1.997 -0.107,-4.231 -0.32,-6.704c-0.214,-2.473 -0.726,-4.803 -1.534,-6.99c-0.808,-2.187 -2.009,-4.018 -3.602,-5.492c-1.593,-1.474 -3.768,-2.211 -6.526,-2.211Zm-0,-4.707c3.614,-0 6.538,0.832 8.773,2.496c2.235,1.664 3.97,3.78 5.207,6.348c1.236,2.568 2.068,5.385 2.496,8.452c0.428,3.067 0.642,6.003 0.642,8.808c-0,2.806 -0.214,5.742 -0.642,8.809c-0.428,3.067 -1.26,5.884 -2.496,8.452c-1.237,2.568 -2.972,4.684 -5.207,6.348c-2.235,1.664 -5.159,2.496 -8.773,2.496c-3.614,0 -6.538,-0.832 -8.773,-2.496c-2.235,-1.664 -3.97,-3.78 -5.207,-6.348c-1.236,-2.568 -2.068,-5.385 -2.496,-8.452c-0.428,-3.067 -0.642,-6.003 -0.642,-8.809c-0,-2.805 0.214,-5.741 0.642,-8.808c0.428,-3.067 1.26,-5.884 2.496,-8.452c1.237,-2.568 2.972,-4.684 5.207,-6.348c2.235,-1.664 5.159,-2.496 8.773,-2.496Z" style="fill-rule:nonzero;stroke:black;stroke-width:1px;stroke-linecap:butt;stroke-miterlimit:2;"/>
    <path d="M51.379,646.28l51.365,0" style="fill:none;stroke:black;stroke-opacity:0.98;stroke-width:4.25px;stroke-dasharray:4.25,5.79,0,0,0,0;"/>
    <path d="M102.744,646.28l358.253,0" style="fill:none;stroke:black;stroke-opacity:0.98;stroke-width:4.25px;"/>
    <path d="M16.012,711.019l441.62,-0" style="fill:none;stroke:black;stroke-opacity:0.98;stroke-width:4.25px;"/>
    <path d="M15.279,711.019l18.088,-24.362" style="fill:none;stroke:black;stroke-opacity:0.98;stroke-width:3.77px;"/>
    <path d="M15.279,711.019l19.194,22.982" style="fill:none;stroke:black;stroke-opacity:0.98;stroke-width:3.77px;"/>
    <path d="M457.632,711.019l-17.723,-17.723" style="fill:none;stroke:black;stroke-opacity:0.98;stroke-width:4.25px;"/>
    <path d="M457.632,711.019l-17.992,17.992" style="fill:none;stroke:black;stroke-opacity:0.98;stroke-width:4.25px;"/>
    <path d="M112.09,729.881l3.295,-0l0,18.125l0.1,-0c0.366,-0.633 0.832,-1.215 1.398,-1.748c0.566,-0.533 1.198,-0.99 1.897,-1.373c0.699,-0.383 1.44,-0.683 2.222,-0.899c0.783,-0.216 1.556,-0.324 2.322,-0.324c2.996,-0 5.21,0.79 6.641,2.371c1.431,1.581 2.147,3.837 2.147,6.766l-0,14.829l-3.296,0l0,-12.932c0,-2.596 -0.449,-4.585 -1.348,-5.966c-0.898,-1.382 -2.563,-2.073 -4.993,-2.073c-0.166,0 -0.632,0.067 -1.398,0.2c-0.765,0.133 -1.573,0.499 -2.421,1.099c-0.849,0.599 -1.606,1.498 -2.272,2.696c-0.666,1.198 -0.999,2.863 -0.999,4.993l0,11.983l-3.295,0l-0,-37.747Z" style="fill-rule:nonzero;stroke:black;stroke-width:1px;stroke-linecap:butt;stroke-miterlimit:2;"/>
    <path d="M159.773,751.95c0,0.699 -0.249,1.323 -0.749,1.872c-0.499,0.55 -1.148,0.824 -1.947,0.824c-0.799,0 -1.448,-0.274 -1.947,-0.824c-0.5,-0.549 -0.749,-1.173 -0.749,-1.872c-0,-0.699 0.249,-1.323 0.749,-1.872c0.499,-0.55 1.148,-0.824 1.947,-0.824c0.799,-0 1.448,0.274 1.947,0.824c0.5,0.549 0.749,1.173 0.749,1.872Z" style="fill-rule:nonzero;stroke:black;stroke-width:1px;stroke-linecap:butt;stroke-miterlimit:2;"/>
    <path d="M190.481,732.577c-1.066,1.698 -2.006,3.345 -2.822,4.943c-0.815,1.598 -1.506,3.221 -2.072,4.868c-0.566,1.648 -0.99,3.354 -1.273,5.118c-0.283,1.764 -0.424,3.678 -0.424,5.742c-0,2.064 0.141,3.961 0.424,5.692c0.283,1.731 0.691,3.396 1.223,4.993c0.533,1.598 1.199,3.179 1.998,4.744c0.799,1.564 1.714,3.212 2.746,4.943l-2.647,1.997c-2.23,-3.129 -3.961,-6.624 -5.192,-10.485c-1.232,-3.862 -1.848,-7.823 -1.848,-11.884c0,-3.861 0.608,-7.739 1.823,-11.634c1.215,-3.894 3.021,-7.472 5.417,-10.735l2.647,1.698Z" style="fill-rule:nonzero;stroke:black;stroke-width:1px;stroke-linecap:butt;stroke-miterlimit:2;"/>
    <path d="M215.795,755.944c0,-1.298 -0.208,-2.513 -0.624,-3.644c-0.416,-1.132 -1.007,-2.114 -1.772,-2.946c-0.766,-0.833 -1.69,-1.49 -2.772,-1.973c-1.081,-0.482 -2.305,-0.724 -3.669,-0.724c-1.365,0 -2.613,0.242 -3.745,0.724c-1.132,0.483 -2.114,1.14 -2.946,1.973c-0.832,0.832 -1.481,1.814 -1.947,2.946c-0.466,1.131 -0.699,2.346 -0.699,3.644c-0,1.299 0.233,2.514 0.699,3.645c0.466,1.132 1.115,2.114 1.947,2.946c0.832,0.832 1.814,1.49 2.946,1.973c1.132,0.482 2.38,0.724 3.745,0.724c1.364,-0 2.588,-0.242 3.669,-0.724c1.082,-0.483 2.006,-1.141 2.772,-1.973c0.765,-0.832 1.356,-1.814 1.772,-2.946c0.416,-1.131 0.624,-2.346 0.624,-3.645Zm-21.32,-11.683l3.295,-0l0,3.894l0.1,0c0.533,-0.799 1.165,-1.481 1.898,-2.047c0.732,-0.566 1.497,-1.032 2.296,-1.398c0.799,-0.366 1.623,-0.632 2.472,-0.799c0.849,-0.166 1.656,-0.249 2.422,-0.249c1.83,-0 3.503,0.307 5.018,0.923c1.514,0.616 2.821,1.473 3.919,2.572c1.099,1.098 1.956,2.396 2.572,3.894c0.615,1.498 0.923,3.129 0.923,4.893c0,1.765 -0.308,3.396 -0.923,4.894c-0.616,1.498 -1.473,2.796 -2.572,3.894c-1.098,1.099 -2.405,1.956 -3.919,2.572c-1.515,0.615 -3.188,0.923 -5.018,0.923c-0.766,0 -1.573,-0.083 -2.422,-0.249c-0.849,-0.167 -1.673,-0.433 -2.472,-0.799c-0.799,-0.366 -1.564,-0.832 -2.296,-1.398c-0.733,-0.566 -1.365,-1.249 -1.898,-2.047l-0.1,-0l0,18.274l-3.295,0l-0,-37.747Z" style="fill-rule:nonzero;stroke:black;stroke-width:1px;stroke-linecap:butt;stroke-miterlimit:2;"/>
    <path d="M253.393,751.001l11.234,0l0,2.996l-11.234,0l-0,11.235l-2.996,-0l0,-11.235l-11.234,0l-0,-2.996l11.234,0l0,-11.234l2.996,0l-0,11.234Z" style="fill-rule:nonzero;stroke:black;stroke-width:1px;stroke-linecap:butt;stroke-miterlimit:2;"/>
    <path d="M299.778,767.628l-3.595,0l0,-30.857l-6.341,5.592l-2.247,-2.696l8.988,-7.39l3.195,0l0,35.351Z" style="fill-rule:nonzero;stroke:black;stroke-width:1px;stroke-linecap:butt;stroke-miterlimit:2;"/>
    <path d="M313.309,768.527l-2.896,-0.949l15.129,-36.199l2.846,0.998l-15.079,36.15Z" style="fill-rule:nonzero;stroke:black;stroke-width:1px;stroke-linecap:butt;stroke-miterlimit:2;"/>
    <path d="M353.503,767.628l-22.468,0l-0,-4.144l14.08,-14.33c0.533,-0.533 1.065,-1.099 1.598,-1.698c0.532,-0.599 1.015,-1.231 1.448,-1.897c0.433,-0.666 0.782,-1.365 1.048,-2.097c0.267,-0.732 0.4,-1.498 0.4,-2.297c-0,-0.965 -0.175,-1.831 -0.525,-2.596c-0.349,-0.766 -0.84,-1.415 -1.472,-1.948c-0.633,-0.532 -1.365,-0.94 -2.197,-1.223c-0.833,-0.283 -1.715,-0.424 -2.647,-0.424c-1.797,-0 -3.328,0.499 -4.593,1.498c-1.265,0.998 -2.081,2.346 -2.447,4.044l-3.795,-0.399c0.5,-2.63 1.706,-4.694 3.62,-6.192c1.914,-1.498 4.236,-2.247 6.966,-2.247c1.431,0 2.787,0.192 4.069,0.574c1.282,0.383 2.413,0.957 3.395,1.723c0.982,0.766 1.764,1.723 2.347,2.871c0.582,1.148 0.874,2.488 0.874,4.019c-0,1.365 -0.208,2.614 -0.624,3.745c-0.416,1.132 -0.957,2.197 -1.623,3.196c-0.666,0.998 -1.423,1.947 -2.272,2.846c-0.849,0.899 -1.723,1.781 -2.621,2.646l-11.135,11.035l18.574,-0l0,3.295Z" style="fill-rule:nonzero;stroke:black;stroke-width:1px;stroke-linecap:butt;stroke-miterlimit:2;"/>
    <path d="M356.799,773.919c1.065,-1.697 2.005,-3.345 2.821,-4.943c0.815,-1.597 1.506,-3.22 2.072,-4.868c0.566,-1.648 0.99,-3.354 1.273,-5.118c0.283,-1.764 0.425,-3.678 0.425,-5.742c-0,-2.064 -0.142,-3.961 -0.425,-5.692c-0.283,-1.731 -0.691,-3.395 -1.223,-4.993c-0.533,-1.598 -1.198,-3.179 -1.997,-4.743c-0.799,-1.565 -1.715,-3.212 -2.747,-4.943l2.647,-1.998c2.23,3.129 3.961,6.624 5.193,10.486c1.231,3.861 1.847,7.822 1.847,11.883c-0,3.862 -0.608,7.739 -1.823,11.634c-1.214,3.895 -3.02,7.473 -5.417,10.735l-2.646,-1.698Z" style="fill-rule:nonzero;stroke:black;stroke-width:1px;stroke-linecap:butt;stroke-miterlimit:2;"/>
</svg>
