<?xml version="1.0" encoding="UTF-8" standalone="no"?>
<!DOCTYPE svg PUBLIC "-//W3C//DTD SVG 1.1//EN" "http://www.w3.org/Graphics/SVG/1.1/DTD/svg11.dtd">
<svg width="100%" height="100%" viewBox="0 0 1452 1005" version="1.1" xmlns="http://www.w3.org/2000/svg" xmlns:xlink="http://www.w3.org/1999/xlink" xml:space="preserve" xmlns:serif="http://www.serif.com/" style="fill-rule:evenodd;clip-rule:evenodd;stroke-linecap:round;stroke-linejoin:round;stroke-miterlimit:1.5;">
    <g transform="matrix(1,0,0,1,-436.029,-487.36)">
        <path d="M711.264,1482.19L711.264,500" style="fill:none;stroke:black;stroke-width:18.89px;"/>
        <path d="M711.264,500L675.132,536.132" style="fill:none;stroke:black;stroke-width:18.89px;"/>
        <path d="M711.264,500L749.132,537.868" style="fill:none;stroke:black;stroke-width:18.89px;"/>
        <path d="M580.7,1244.91L1878,1244.91" style="fill:none;stroke:black;stroke-width:18.89px;"/>
        <path d="M1878,1244.91L1844.05,1210.95" style="fill:none;stroke:black;stroke-width:18.89px;"/>
        <path d="M1878,1244.91L1843.95,1278.95" style="fill:none;stroke:black;stroke-width:18.89px;"/>
        <g transform="matrix(0.747958,0,0,0.747958,83.9342,179.382)">
            <g transform="matrix(131.01,0,0,131.01,913.362,1662)">
                <path d="M0.066,0.199L0.066,-0.519L0.146,-0.519L0.146,-0.451C0.165,-0.478 0.186,-0.497 0.21,-0.51C0.234,-0.524 0.263,-0.53 0.296,-0.53C0.341,-0.53 0.38,-0.519 0.414,-0.496C0.447,-0.473 0.473,-0.441 0.49,-0.4C0.507,-0.358 0.516,-0.313 0.516,-0.263C0.516,-0.21 0.507,-0.162 0.488,-0.12C0.469,-0.077 0.441,-0.045 0.405,-0.022C0.368,0 0.33,0.012 0.29,0.012C0.261,0.012 0.234,0.006 0.211,-0.007C0.188,-0.019 0.169,-0.035 0.154,-0.054L0.154,0.199L0.066,0.199ZM0.146,-0.256C0.146,-0.19 0.159,-0.14 0.186,-0.108C0.213,-0.076 0.246,-0.061 0.284,-0.061C0.323,-0.061 0.357,-0.077 0.385,-0.11C0.412,-0.143 0.426,-0.194 0.426,-0.264C0.426,-0.33 0.413,-0.379 0.385,-0.412C0.358,-0.445 0.326,-0.461 0.288,-0.461C0.251,-0.461 0.218,-0.444 0.189,-0.409C0.16,-0.374 0.146,-0.323 0.146,-0.256Z" style="fill-rule:nonzero;"/>
            </g>
            <g transform="matrix(131.01,0,0,131.01,986.224,1662)">
                <path d="M0.404,-0.064C0.372,-0.036 0.34,-0.017 0.31,-0.005C0.28,0.006 0.248,0.012 0.213,0.012C0.156,0.012 0.113,-0.002 0.082,-0.03C0.051,-0.058 0.036,-0.093 0.036,-0.137C0.036,-0.162 0.042,-0.185 0.053,-0.206C0.065,-0.227 0.08,-0.244 0.099,-0.257C0.118,-0.27 0.139,-0.279 0.162,-0.286C0.179,-0.29 0.205,-0.295 0.24,-0.299C0.311,-0.307 0.363,-0.317 0.397,-0.329C0.397,-0.341 0.397,-0.349 0.397,-0.352C0.397,-0.388 0.389,-0.413 0.373,-0.428C0.35,-0.448 0.317,-0.458 0.272,-0.458C0.231,-0.458 0.201,-0.45 0.181,-0.436C0.161,-0.421 0.147,-0.396 0.137,-0.359L0.051,-0.371C0.059,-0.407 0.072,-0.437 0.09,-0.46C0.108,-0.482 0.134,-0.5 0.167,-0.512C0.201,-0.524 0.241,-0.53 0.285,-0.53C0.329,-0.53 0.365,-0.525 0.393,-0.515C0.421,-0.504 0.441,-0.491 0.454,-0.475C0.467,-0.46 0.476,-0.44 0.481,-0.416C0.484,-0.401 0.486,-0.374 0.486,-0.334L0.486,-0.217C0.486,-0.136 0.488,-0.084 0.491,-0.062C0.495,-0.041 0.503,-0.02 0.514,-0L0.422,-0C0.413,-0.018 0.407,-0.04 0.404,-0.064ZM0.397,-0.26C0.365,-0.247 0.317,-0.236 0.253,-0.227C0.217,-0.222 0.192,-0.216 0.177,-0.209C0.162,-0.203 0.15,-0.193 0.142,-0.181C0.134,-0.168 0.13,-0.154 0.13,-0.139C0.13,-0.116 0.139,-0.096 0.156,-0.081C0.174,-0.065 0.2,-0.057 0.234,-0.057C0.268,-0.057 0.298,-0.065 0.325,-0.079C0.351,-0.094 0.37,-0.114 0.383,-0.14C0.392,-0.16 0.397,-0.189 0.397,-0.228L0.397,-0.26Z" style="fill-rule:nonzero;"/>
            </g>
            <g transform="matrix(131.01,0,0,131.01,1059.09,1662)">
                <path d="M0.065,-0L0.065,-0.519L0.144,-0.519L0.144,-0.44C0.164,-0.477 0.183,-0.501 0.2,-0.513C0.217,-0.524 0.236,-0.53 0.256,-0.53C0.286,-0.53 0.316,-0.521 0.347,-0.502L0.316,-0.42C0.295,-0.433 0.273,-0.439 0.252,-0.439C0.233,-0.439 0.215,-0.434 0.2,-0.422C0.185,-0.411 0.174,-0.395 0.167,-0.374C0.158,-0.343 0.153,-0.309 0.153,-0.271L0.153,-0L0.065,-0Z" style="fill-rule:nonzero;"/>
            </g>
            <g transform="matrix(131.01,0,0,131.01,1102.71,1662)">
                <path d="M0.404,-0.19L0.491,-0.179C0.481,-0.119 0.457,-0.073 0.418,-0.039C0.379,-0.005 0.332,0.012 0.275,0.012C0.204,0.012 0.147,-0.011 0.104,-0.058C0.061,-0.104 0.039,-0.171 0.039,-0.257C0.039,-0.313 0.048,-0.362 0.067,-0.404C0.085,-0.446 0.114,-0.478 0.152,-0.499C0.19,-0.52 0.231,-0.53 0.275,-0.53C0.332,-0.53 0.378,-0.516 0.414,-0.488C0.449,-0.459 0.472,-0.419 0.482,-0.366L0.397,-0.353C0.389,-0.388 0.374,-0.414 0.354,-0.432C0.333,-0.449 0.308,-0.458 0.279,-0.458C0.235,-0.458 0.199,-0.442 0.171,-0.41C0.143,-0.379 0.129,-0.328 0.129,-0.26C0.129,-0.19 0.143,-0.139 0.169,-0.108C0.196,-0.076 0.231,-0.061 0.274,-0.061C0.308,-0.061 0.337,-0.071 0.36,-0.092C0.383,-0.113 0.398,-0.146 0.404,-0.19Z" style="fill-rule:nonzero;"/>
            </g>
            <g transform="matrix(131.01,0,0,131.01,1168.22,1662)">
                <path d="M0.421,-0.167L0.512,-0.156C0.497,-0.103 0.471,-0.062 0.432,-0.032C0.393,-0.003 0.344,0.012 0.284,0.012C0.208,0.012 0.148,-0.012 0.103,-0.058C0.059,-0.105 0.037,-0.171 0.037,-0.255C0.037,-0.342 0.059,-0.41 0.104,-0.458C0.149,-0.506 0.207,-0.53 0.279,-0.53C0.348,-0.53 0.405,-0.507 0.449,-0.459C0.493,-0.412 0.515,-0.346 0.515,-0.26C0.515,-0.255 0.514,-0.247 0.514,-0.237L0.127,-0.237C0.131,-0.18 0.147,-0.136 0.176,-0.106C0.205,-0.076 0.241,-0.061 0.284,-0.061C0.316,-0.061 0.344,-0.069 0.367,-0.086C0.389,-0.103 0.408,-0.13 0.421,-0.167ZM0.132,-0.309L0.422,-0.309C0.418,-0.353 0.407,-0.385 0.389,-0.407C0.361,-0.441 0.324,-0.458 0.28,-0.458C0.239,-0.458 0.205,-0.444 0.178,-0.417C0.15,-0.39 0.135,-0.354 0.132,-0.309Z" style="fill-rule:nonzero;"/>
            </g>
            <g transform="matrix(131.01,0,0,131.01,1241.08,1662)">
                <rect x="0.064" y="-0.716" width="0.088" height="0.716" style="fill-rule:nonzero;"/>
            </g>
            <g transform="matrix(131.01,0,0,131.01,1306.59,1662)">
                <path d="M0.031,-0.155L0.118,-0.168C0.123,-0.134 0.136,-0.107 0.158,-0.088C0.181,-0.07 0.212,-0.061 0.252,-0.061C0.292,-0.061 0.322,-0.069 0.342,-0.085C0.361,-0.102 0.371,-0.121 0.371,-0.143C0.371,-0.163 0.362,-0.179 0.345,-0.19C0.333,-0.198 0.303,-0.208 0.255,-0.22C0.191,-0.236 0.146,-0.25 0.121,-0.262C0.096,-0.274 0.078,-0.29 0.065,-0.311C0.052,-0.332 0.045,-0.355 0.045,-0.381C0.045,-0.404 0.051,-0.425 0.061,-0.445C0.072,-0.465 0.086,-0.481 0.104,-0.494C0.118,-0.504 0.137,-0.513 0.16,-0.52C0.184,-0.527 0.209,-0.53 0.236,-0.53C0.277,-0.53 0.313,-0.524 0.344,-0.513C0.374,-0.501 0.397,-0.485 0.412,-0.465C0.426,-0.445 0.436,-0.418 0.442,-0.385L0.356,-0.373C0.352,-0.4 0.341,-0.421 0.322,-0.436C0.303,-0.451 0.277,-0.458 0.243,-0.458C0.202,-0.458 0.174,-0.451 0.156,-0.438C0.139,-0.425 0.13,-0.409 0.13,-0.391C0.13,-0.38 0.134,-0.369 0.141,-0.36C0.148,-0.351 0.16,-0.343 0.175,-0.337C0.184,-0.334 0.209,-0.326 0.252,-0.314C0.315,-0.298 0.358,-0.284 0.383,-0.274C0.407,-0.263 0.426,-0.248 0.44,-0.228C0.454,-0.207 0.461,-0.182 0.461,-0.152C0.461,-0.123 0.453,-0.095 0.436,-0.07C0.419,-0.044 0.394,-0.024 0.362,-0.01C0.33,0.005 0.293,0.012 0.252,0.012C0.185,0.012 0.134,-0.002 0.098,-0.03C0.063,-0.058 0.041,-0.1 0.031,-0.155Z" style="fill-rule:nonzero;"/>
            </g>
            <g transform="matrix(131.01,0,0,131.01,1372.09,1662)">
                <path d="M0.066,-0.615L0.066,-0.716L0.154,-0.716L0.154,-0.615L0.066,-0.615ZM0.066,-0L0.066,-0.519L0.154,-0.519L0.154,-0L0.066,-0Z" style="fill-rule:nonzero;"/>
            </g>
            <g transform="matrix(131.01,0,0,131.01,1401.2,1662)">
                <path d="M0.02,-0L0.02,-0.071L0.35,-0.45C0.312,-0.448 0.279,-0.447 0.25,-0.447L0.039,-0.447L0.039,-0.519L0.463,-0.519L0.463,-0.46L0.182,-0.131L0.128,-0.071C0.167,-0.074 0.204,-0.076 0.239,-0.076L0.479,-0.076L0.479,-0L0.02,-0Z" style="fill-rule:nonzero;"/>
            </g>
            <g transform="matrix(131.01,0,0,131.01,1466.7,1662)">
                <path d="M0.421,-0.167L0.512,-0.156C0.497,-0.103 0.471,-0.062 0.432,-0.032C0.393,-0.003 0.344,0.012 0.284,0.012C0.208,0.012 0.148,-0.012 0.103,-0.058C0.059,-0.105 0.037,-0.171 0.037,-0.255C0.037,-0.342 0.059,-0.41 0.104,-0.458C0.149,-0.506 0.207,-0.53 0.279,-0.53C0.348,-0.53 0.405,-0.507 0.449,-0.459C0.493,-0.412 0.515,-0.346 0.515,-0.26C0.515,-0.255 0.514,-0.247 0.514,-0.237L0.127,-0.237C0.131,-0.18 0.147,-0.136 0.176,-0.106C0.205,-0.076 0.241,-0.061 0.284,-0.061C0.316,-0.061 0.344,-0.069 0.367,-0.086C0.389,-0.103 0.408,-0.13 0.421,-0.167ZM0.132,-0.309L0.422,-0.309C0.418,-0.353 0.407,-0.385 0.389,-0.407C0.361,-0.441 0.324,-0.458 0.28,-0.458C0.239,-0.458 0.205,-0.444 0.178,-0.417C0.15,-0.39 0.135,-0.354 0.132,-0.309Z" style="fill-rule:nonzero;"/>
            </g>
            <g transform="matrix(131.01,0,0,131.01,1539.56,1662)">
                <path d="M0.089,-0L0.089,-0.1L0.189,-0.1L0.189,-0C0.189,0.037 0.182,0.066 0.169,0.089C0.156,0.112 0.136,0.129 0.107,0.142L0.083,0.104C0.102,0.096 0.115,0.084 0.124,0.068C0.133,0.052 0.138,0.03 0.139,-0L0.089,-0Z" style="fill-rule:nonzero;"/>
            </g>
            <g transform="matrix(131.01,0,0,131.01,1612.36,1662)">
                <path d="M0.421,-0.167L0.512,-0.156C0.497,-0.103 0.471,-0.062 0.432,-0.032C0.393,-0.003 0.344,0.012 0.284,0.012C0.208,0.012 0.148,-0.012 0.103,-0.058C0.059,-0.105 0.037,-0.171 0.037,-0.255C0.037,-0.342 0.059,-0.41 0.104,-0.458C0.149,-0.506 0.207,-0.53 0.279,-0.53C0.348,-0.53 0.405,-0.507 0.449,-0.459C0.493,-0.412 0.515,-0.346 0.515,-0.26C0.515,-0.255 0.514,-0.247 0.514,-0.237L0.127,-0.237C0.131,-0.18 0.147,-0.136 0.176,-0.106C0.205,-0.076 0.241,-0.061 0.284,-0.061C0.316,-0.061 0.344,-0.069 0.367,-0.086C0.389,-0.103 0.408,-0.13 0.421,-0.167ZM0.132,-0.309L0.422,-0.309C0.418,-0.353 0.407,-0.385 0.389,-0.407C0.361,-0.441 0.324,-0.458 0.28,-0.458C0.239,-0.458 0.205,-0.444 0.178,-0.417C0.15,-0.39 0.135,-0.354 0.132,-0.309Z" style="fill-rule:nonzero;"/>
            </g>
            <g transform="matrix(131.01,0,0,131.01,1685.22,1662)">
                <rect x="0.091" y="-0.1" width="0.1" height="0.1" style="fill-rule:nonzero;"/>
            </g>
            <g transform="matrix(131.01,0,0,131.01,1758.02,1662)">
                <path d="M0.05,0.043L0.135,0.056C0.139,0.082 0.149,0.101 0.165,0.113C0.187,0.13 0.217,0.138 0.254,0.138C0.295,0.138 0.326,0.13 0.349,0.113C0.371,0.097 0.386,0.074 0.394,0.045C0.398,0.027 0.4,-0.011 0.4,-0.068C0.361,-0.023 0.314,-0 0.256,-0C0.185,-0 0.13,-0.026 0.091,-0.077C0.052,-0.129 0.032,-0.19 0.032,-0.262C0.032,-0.312 0.041,-0.357 0.059,-0.399C0.077,-0.441 0.103,-0.473 0.137,-0.496C0.171,-0.519 0.211,-0.53 0.257,-0.53C0.318,-0.53 0.368,-0.506 0.408,-0.456L0.408,-0.519L0.489,-0.519L0.489,-0.07C0.489,0.01 0.481,0.068 0.465,0.101C0.448,0.135 0.422,0.162 0.386,0.181C0.351,0.201 0.307,0.21 0.255,0.21C0.193,0.21 0.143,0.197 0.105,0.169C0.067,0.141 0.049,0.099 0.05,0.043ZM0.123,-0.269C0.123,-0.201 0.136,-0.151 0.163,-0.12C0.19,-0.088 0.224,-0.073 0.265,-0.073C0.305,-0.073 0.339,-0.088 0.366,-0.119C0.394,-0.15 0.407,-0.199 0.407,-0.266C0.407,-0.329 0.393,-0.377 0.365,-0.409C0.337,-0.441 0.303,-0.458 0.263,-0.458C0.224,-0.458 0.191,-0.442 0.164,-0.41C0.136,-0.378 0.123,-0.331 0.123,-0.269Z" style="fill-rule:nonzero;"/>
            </g>
            <g transform="matrix(131.01,0,0,131.01,1830.88,1662)">
                <rect x="0.091" y="-0.1" width="0.1" height="0.1" style="fill-rule:nonzero;"/>
            </g>
            <g transform="matrix(131.01,0,0,131.01,1903.68,1662)">
                <path d="M0.065,-0L0.065,-0.519L0.144,-0.519L0.144,-0.44C0.164,-0.477 0.183,-0.501 0.2,-0.513C0.217,-0.524 0.236,-0.53 0.256,-0.53C0.286,-0.53 0.316,-0.521 0.347,-0.502L0.316,-0.42C0.295,-0.433 0.273,-0.439 0.252,-0.439C0.233,-0.439 0.215,-0.434 0.2,-0.422C0.185,-0.411 0.174,-0.395 0.167,-0.374C0.158,-0.343 0.153,-0.309 0.153,-0.271L0.153,-0L0.065,-0Z" style="fill-rule:nonzero;"/>
            </g>
            <g transform="matrix(131.01,0,0,131.01,1947.31,1662)">
                <path d="M0.404,-0.064C0.372,-0.036 0.34,-0.017 0.31,-0.005C0.28,0.006 0.248,0.012 0.213,0.012C0.156,0.012 0.113,-0.002 0.082,-0.03C0.051,-0.058 0.036,-0.093 0.036,-0.137C0.036,-0.162 0.042,-0.185 0.053,-0.206C0.065,-0.227 0.08,-0.244 0.099,-0.257C0.118,-0.27 0.139,-0.279 0.162,-0.286C0.179,-0.29 0.205,-0.295 0.24,-0.299C0.311,-0.307 0.363,-0.317 0.397,-0.329C0.397,-0.341 0.397,-0.349 0.397,-0.352C0.397,-0.388 0.389,-0.413 0.373,-0.428C0.35,-0.448 0.317,-0.458 0.272,-0.458C0.231,-0.458 0.201,-0.45 0.181,-0.436C0.161,-0.421 0.147,-0.396 0.137,-0.359L0.051,-0.371C0.059,-0.407 0.072,-0.437 0.09,-0.46C0.108,-0.482 0.134,-0.5 0.167,-0.512C0.201,-0.524 0.241,-0.53 0.285,-0.53C0.329,-0.53 0.365,-0.525 0.393,-0.515C0.421,-0.504 0.441,-0.491 0.454,-0.475C0.467,-0.46 0.476,-0.44 0.481,-0.416C0.484,-0.401 0.486,-0.374 0.486,-0.334L0.486,-0.217C0.486,-0.136 0.488,-0.084 0.491,-0.062C0.495,-0.041 0.503,-0.02 0.514,-0L0.422,-0C0.413,-0.018 0.407,-0.04 0.404,-0.064ZM0.397,-0.26C0.365,-0.247 0.317,-0.236 0.253,-0.227C0.217,-0.222 0.192,-0.216 0.177,-0.209C0.162,-0.203 0.15,-0.193 0.142,-0.181C0.134,-0.168 0.13,-0.154 0.13,-0.139C0.13,-0.116 0.139,-0.096 0.156,-0.081C0.174,-0.065 0.2,-0.057 0.234,-0.057C0.268,-0.057 0.298,-0.065 0.325,-0.079C0.351,-0.094 0.37,-0.114 0.383,-0.14C0.392,-0.16 0.397,-0.189 0.397,-0.228L0.397,-0.26Z" style="fill-rule:nonzero;"/>
            </g>
            <g transform="matrix(131.01,0,0,131.01,2020.17,1662)">
                <path d="M0.402,-0L0.402,-0.065C0.369,-0.014 0.321,0.012 0.257,0.012C0.216,0.012 0.178,0 0.143,-0.022C0.109,-0.045 0.082,-0.077 0.063,-0.118C0.044,-0.159 0.034,-0.206 0.034,-0.259C0.034,-0.311 0.043,-0.358 0.06,-0.4C0.077,-0.442 0.103,-0.474 0.138,-0.497C0.172,-0.519 0.211,-0.53 0.253,-0.53C0.285,-0.53 0.313,-0.524 0.337,-0.51C0.361,-0.497 0.381,-0.48 0.396,-0.459L0.396,-0.716L0.484,-0.716L0.484,-0L0.402,-0ZM0.125,-0.259C0.125,-0.192 0.139,-0.143 0.167,-0.11C0.194,-0.077 0.228,-0.061 0.266,-0.061C0.304,-0.061 0.337,-0.076 0.364,-0.108C0.39,-0.139 0.404,-0.187 0.404,-0.251C0.404,-0.322 0.39,-0.375 0.363,-0.408C0.335,-0.441 0.302,-0.458 0.262,-0.458C0.223,-0.458 0.19,-0.442 0.164,-0.41C0.138,-0.378 0.125,-0.327 0.125,-0.259Z" style="fill-rule:nonzero;"/>
            </g>
            <g transform="matrix(131.01,0,0,131.01,2093.03,1662)">
                <path d="M0.066,-0.615L0.066,-0.716L0.154,-0.716L0.154,-0.615L0.066,-0.615ZM0.066,-0L0.066,-0.519L0.154,-0.519L0.154,-0L0.066,-0Z" style="fill-rule:nonzero;"/>
            </g>
            <g transform="matrix(131.01,0,0,131.01,2122.14,1662)">
                <path d="M0.406,-0L0.406,-0.076C0.365,-0.018 0.311,0.012 0.241,0.012C0.211,0.012 0.182,0.006 0.156,-0.006C0.129,-0.018 0.109,-0.032 0.096,-0.05C0.084,-0.068 0.075,-0.09 0.069,-0.115C0.066,-0.132 0.064,-0.16 0.064,-0.197L0.064,-0.519L0.152,-0.519L0.152,-0.231C0.152,-0.185 0.154,-0.154 0.157,-0.138C0.163,-0.115 0.174,-0.097 0.192,-0.084C0.21,-0.071 0.232,-0.064 0.259,-0.064C0.285,-0.064 0.31,-0.071 0.333,-0.084C0.356,-0.098 0.372,-0.116 0.382,-0.139C0.392,-0.163 0.396,-0.196 0.396,-0.241L0.396,-0.519L0.484,-0.519L0.484,-0L0.406,-0Z" style="fill-rule:nonzero;"/>
            </g>
            <g transform="matrix(131.01,0,0,131.01,2195,1662)">
                <path d="M0.031,-0.155L0.118,-0.168C0.123,-0.134 0.136,-0.107 0.158,-0.088C0.181,-0.07 0.212,-0.061 0.252,-0.061C0.292,-0.061 0.322,-0.069 0.342,-0.085C0.361,-0.102 0.371,-0.121 0.371,-0.143C0.371,-0.163 0.362,-0.179 0.345,-0.19C0.333,-0.198 0.303,-0.208 0.255,-0.22C0.191,-0.236 0.146,-0.25 0.121,-0.262C0.096,-0.274 0.078,-0.29 0.065,-0.311C0.052,-0.332 0.045,-0.355 0.045,-0.381C0.045,-0.404 0.051,-0.425 0.061,-0.445C0.072,-0.465 0.086,-0.481 0.104,-0.494C0.118,-0.504 0.137,-0.513 0.16,-0.52C0.184,-0.527 0.209,-0.53 0.236,-0.53C0.277,-0.53 0.313,-0.524 0.344,-0.513C0.374,-0.501 0.397,-0.485 0.412,-0.465C0.426,-0.445 0.436,-0.418 0.442,-0.385L0.356,-0.373C0.352,-0.4 0.341,-0.421 0.322,-0.436C0.303,-0.451 0.277,-0.458 0.243,-0.458C0.202,-0.458 0.174,-0.451 0.156,-0.438C0.139,-0.425 0.13,-0.409 0.13,-0.391C0.13,-0.38 0.134,-0.369 0.141,-0.36C0.148,-0.351 0.16,-0.343 0.175,-0.337C0.184,-0.334 0.209,-0.326 0.252,-0.314C0.315,-0.298 0.358,-0.284 0.383,-0.274C0.407,-0.263 0.426,-0.248 0.44,-0.228C0.454,-0.207 0.461,-0.182 0.461,-0.152C0.461,-0.123 0.453,-0.095 0.436,-0.07C0.419,-0.044 0.394,-0.024 0.362,-0.01C0.33,0.005 0.293,0.012 0.252,0.012C0.185,0.012 0.134,-0.002 0.098,-0.03C0.063,-0.058 0.041,-0.1 0.031,-0.155Z" style="fill-rule:nonzero;"/>
            </g>
            <g transform="matrix(131.01,0,0,131.01,2296.9,1662)">
                <path d="M0.065,-0L0.065,-0.519L0.144,-0.519L0.144,-0.44C0.164,-0.477 0.183,-0.501 0.2,-0.513C0.217,-0.524 0.236,-0.53 0.256,-0.53C0.286,-0.53 0.316,-0.521 0.347,-0.502L0.316,-0.42C0.295,-0.433 0.273,-0.439 0.252,-0.439C0.233,-0.439 0.215,-0.434 0.2,-0.422C0.185,-0.411 0.174,-0.395 0.167,-0.374C0.158,-0.343 0.153,-0.309 0.153,-0.271L0.153,-0L0.065,-0Z" style="fill-rule:nonzero;"/>
            </g>
        </g>
        <g transform="matrix(5.01099e-17,-0.818356,0.818356,5.01099e-17,-298.58,1388.66)">
            <g transform="matrix(97.985,0,0,97.985,296.228,969)">
                <path d="M0.089,-0L0.089,-0.451L0.011,-0.451L0.011,-0.519L0.089,-0.519L0.089,-0.569C0.089,-0.62 0.1,-0.66 0.123,-0.687C0.145,-0.714 0.18,-0.728 0.228,-0.728C0.26,-0.728 0.29,-0.724 0.317,-0.717L0.303,-0.643C0.286,-0.646 0.27,-0.647 0.256,-0.647C0.226,-0.647 0.205,-0.641 0.194,-0.629C0.183,-0.617 0.177,-0.591 0.177,-0.552L0.177,-0.519L0.278,-0.519L0.278,-0.451L0.177,-0.451L0.177,-0L0.089,-0ZM0.343,-0L0.343,-0.716L0.431,-0.716L0.431,-0L0.343,-0Z" style="fill-rule:nonzero;"/>
            </g>
            <g transform="matrix(97.985,0,0,97.985,345.22,969)">
                <path d="M0.406,-0L0.406,-0.076C0.365,-0.018 0.311,0.012 0.241,0.012C0.211,0.012 0.182,0.006 0.156,-0.006C0.129,-0.018 0.109,-0.032 0.096,-0.05C0.084,-0.068 0.075,-0.09 0.069,-0.115C0.066,-0.132 0.064,-0.16 0.064,-0.197L0.064,-0.519L0.152,-0.519L0.152,-0.231C0.152,-0.185 0.154,-0.154 0.157,-0.138C0.163,-0.115 0.174,-0.097 0.192,-0.084C0.21,-0.071 0.232,-0.064 0.259,-0.064C0.285,-0.064 0.31,-0.071 0.333,-0.084C0.356,-0.098 0.372,-0.116 0.382,-0.139C0.392,-0.163 0.396,-0.196 0.396,-0.241L0.396,-0.519L0.484,-0.519L0.484,-0L0.406,-0Z" style="fill-rule:nonzero;"/>
            </g>
            <g transform="matrix(97.985,0,0,97.985,399.715,969)">
                <path d="M0.066,-0.615L0.066,-0.716L0.154,-0.716L0.154,-0.615L0.066,-0.615ZM0.066,-0L0.066,-0.519L0.154,-0.519L0.154,-0L0.066,-0Z" style="fill-rule:nonzero;"/>
            </g>
            <g transform="matrix(97.985,0,0,97.985,421.484,969)">
                <path d="M0.402,-0L0.402,-0.065C0.369,-0.014 0.321,0.012 0.257,0.012C0.216,0.012 0.178,0 0.143,-0.022C0.109,-0.045 0.082,-0.077 0.063,-0.118C0.044,-0.159 0.034,-0.206 0.034,-0.259C0.034,-0.311 0.043,-0.358 0.06,-0.4C0.077,-0.442 0.103,-0.474 0.138,-0.497C0.172,-0.519 0.211,-0.53 0.253,-0.53C0.285,-0.53 0.313,-0.524 0.337,-0.51C0.361,-0.497 0.381,-0.48 0.396,-0.459L0.396,-0.716L0.484,-0.716L0.484,-0L0.402,-0ZM0.125,-0.259C0.125,-0.192 0.139,-0.143 0.167,-0.11C0.194,-0.077 0.228,-0.061 0.266,-0.061C0.304,-0.061 0.337,-0.076 0.364,-0.108C0.39,-0.139 0.404,-0.187 0.404,-0.251C0.404,-0.322 0.39,-0.375 0.363,-0.408C0.335,-0.441 0.302,-0.458 0.262,-0.458C0.223,-0.458 0.19,-0.442 0.164,-0.41C0.138,-0.378 0.125,-0.327 0.125,-0.259Z" style="fill-rule:nonzero;"/>
            </g>
            <g transform="matrix(97.985,0,0,97.985,503.202,969)">
                <path d="M0.21,-0L0.013,-0.519L0.105,-0.519L0.217,-0.208C0.229,-0.174 0.24,-0.14 0.25,-0.104C0.258,-0.131 0.269,-0.164 0.283,-0.202L0.398,-0.519L0.488,-0.519L0.292,-0L0.21,-0Z" style="fill-rule:nonzero;"/>
            </g>
            <g transform="matrix(97.985,0,0,97.985,552.195,969)">
                <path d="M0.404,-0.064C0.372,-0.036 0.34,-0.017 0.31,-0.005C0.28,0.006 0.248,0.012 0.213,0.012C0.156,0.012 0.113,-0.002 0.082,-0.03C0.051,-0.058 0.036,-0.093 0.036,-0.137C0.036,-0.162 0.042,-0.185 0.053,-0.206C0.065,-0.227 0.08,-0.244 0.099,-0.257C0.118,-0.27 0.139,-0.279 0.162,-0.286C0.179,-0.29 0.205,-0.295 0.24,-0.299C0.311,-0.307 0.363,-0.317 0.397,-0.329C0.397,-0.341 0.397,-0.349 0.397,-0.352C0.397,-0.388 0.389,-0.413 0.373,-0.428C0.35,-0.448 0.317,-0.458 0.272,-0.458C0.231,-0.458 0.201,-0.45 0.181,-0.436C0.161,-0.421 0.147,-0.396 0.137,-0.359L0.051,-0.371C0.059,-0.407 0.072,-0.437 0.09,-0.46C0.108,-0.482 0.134,-0.5 0.167,-0.512C0.201,-0.524 0.241,-0.53 0.285,-0.53C0.329,-0.53 0.365,-0.525 0.393,-0.515C0.421,-0.504 0.441,-0.491 0.454,-0.475C0.467,-0.46 0.476,-0.44 0.481,-0.416C0.484,-0.401 0.486,-0.374 0.486,-0.334L0.486,-0.217C0.486,-0.136 0.488,-0.084 0.491,-0.062C0.495,-0.041 0.503,-0.02 0.514,-0L0.422,-0C0.413,-0.018 0.407,-0.04 0.404,-0.064ZM0.397,-0.26C0.365,-0.247 0.317,-0.236 0.253,-0.227C0.217,-0.222 0.192,-0.216 0.177,-0.209C0.162,-0.203 0.15,-0.193 0.142,-0.181C0.134,-0.168 0.13,-0.154 0.13,-0.139C0.13,-0.116 0.139,-0.096 0.156,-0.081C0.174,-0.065 0.2,-0.057 0.234,-0.057C0.268,-0.057 0.298,-0.065 0.325,-0.079C0.351,-0.094 0.37,-0.114 0.383,-0.14C0.392,-0.16 0.397,-0.189 0.397,-0.228L0.397,-0.26Z" style="fill-rule:nonzero;"/>
            </g>
            <g transform="matrix(97.985,0,0,97.985,606.689,969)">
                <path d="M0.065,-0L0.065,-0.519L0.144,-0.519L0.144,-0.44C0.164,-0.477 0.183,-0.501 0.2,-0.513C0.217,-0.524 0.236,-0.53 0.256,-0.53C0.286,-0.53 0.316,-0.521 0.347,-0.502L0.316,-0.42C0.295,-0.433 0.273,-0.439 0.252,-0.439C0.233,-0.439 0.215,-0.434 0.2,-0.422C0.185,-0.411 0.174,-0.395 0.167,-0.374C0.158,-0.343 0.153,-0.309 0.153,-0.271L0.153,-0L0.065,-0Z" style="fill-rule:nonzero;"/>
            </g>
            <g transform="matrix(97.985,0,0,97.985,639.319,969)">
                <path d="M0.066,-0.615L0.066,-0.716L0.154,-0.716L0.154,-0.615L0.066,-0.615ZM0.066,-0L0.066,-0.519L0.154,-0.519L0.154,-0L0.066,-0Z" style="fill-rule:nonzero;"/>
            </g>
            <g transform="matrix(97.985,0,0,97.985,661.088,969)">
                <path d="M0.404,-0.064C0.372,-0.036 0.34,-0.017 0.31,-0.005C0.28,0.006 0.248,0.012 0.213,0.012C0.156,0.012 0.113,-0.002 0.082,-0.03C0.051,-0.058 0.036,-0.093 0.036,-0.137C0.036,-0.162 0.042,-0.185 0.053,-0.206C0.065,-0.227 0.08,-0.244 0.099,-0.257C0.118,-0.27 0.139,-0.279 0.162,-0.286C0.179,-0.29 0.205,-0.295 0.24,-0.299C0.311,-0.307 0.363,-0.317 0.397,-0.329C0.397,-0.341 0.397,-0.349 0.397,-0.352C0.397,-0.388 0.389,-0.413 0.373,-0.428C0.35,-0.448 0.317,-0.458 0.272,-0.458C0.231,-0.458 0.201,-0.45 0.181,-0.436C0.161,-0.421 0.147,-0.396 0.137,-0.359L0.051,-0.371C0.059,-0.407 0.072,-0.437 0.09,-0.46C0.108,-0.482 0.134,-0.5 0.167,-0.512C0.201,-0.524 0.241,-0.53 0.285,-0.53C0.329,-0.53 0.365,-0.525 0.393,-0.515C0.421,-0.504 0.441,-0.491 0.454,-0.475C0.467,-0.46 0.476,-0.44 0.481,-0.416C0.484,-0.401 0.486,-0.374 0.486,-0.334L0.486,-0.217C0.486,-0.136 0.488,-0.084 0.491,-0.062C0.495,-0.041 0.503,-0.02 0.514,-0L0.422,-0C0.413,-0.018 0.407,-0.04 0.404,-0.064ZM0.397,-0.26C0.365,-0.247 0.317,-0.236 0.253,-0.227C0.217,-0.222 0.192,-0.216 0.177,-0.209C0.162,-0.203 0.15,-0.193 0.142,-0.181C0.134,-0.168 0.13,-0.154 0.13,-0.139C0.13,-0.116 0.139,-0.096 0.156,-0.081C0.174,-0.065 0.2,-0.057 0.234,-0.057C0.268,-0.057 0.298,-0.065 0.325,-0.079C0.351,-0.094 0.37,-0.114 0.383,-0.14C0.392,-0.16 0.397,-0.189 0.397,-0.228L0.397,-0.26Z" style="fill-rule:nonzero;"/>
            </g>
            <g transform="matrix(97.985,0,0,97.985,715.583,969)">
                <path d="M0.147,-0L0.065,-0L0.065,-0.716L0.153,-0.716L0.153,-0.46C0.19,-0.507 0.238,-0.53 0.295,-0.53C0.327,-0.53 0.358,-0.524 0.386,-0.511C0.414,-0.498 0.438,-0.48 0.456,-0.457C0.475,-0.434 0.489,-0.405 0.5,-0.373C0.51,-0.34 0.515,-0.305 0.515,-0.267C0.515,-0.178 0.493,-0.11 0.449,-0.061C0.405,-0.013 0.353,0.012 0.291,0.012C0.23,0.012 0.182,-0.014 0.147,-0.065L0.147,-0ZM0.146,-0.263C0.146,-0.201 0.154,-0.156 0.171,-0.128C0.199,-0.083 0.236,-0.061 0.284,-0.061C0.322,-0.061 0.355,-0.077 0.383,-0.111C0.411,-0.144 0.425,-0.194 0.425,-0.26C0.425,-0.327 0.412,-0.377 0.385,-0.41C0.358,-0.442 0.326,-0.458 0.288,-0.458C0.249,-0.458 0.216,-0.441 0.188,-0.408C0.16,-0.375 0.146,-0.326 0.146,-0.263Z" style="fill-rule:nonzero;"/>
            </g>
            <g transform="matrix(97.985,0,0,97.985,770.077,969)">
                <rect x="0.064" y="-0.716" width="0.088" height="0.716" style="fill-rule:nonzero;"/>
            </g>
            <g transform="matrix(97.985,0,0,97.985,791.846,969)">
                <path d="M0.421,-0.167L0.512,-0.156C0.497,-0.103 0.471,-0.062 0.432,-0.032C0.393,-0.003 0.344,0.012 0.284,0.012C0.208,0.012 0.148,-0.012 0.103,-0.058C0.059,-0.105 0.037,-0.171 0.037,-0.255C0.037,-0.342 0.059,-0.41 0.104,-0.458C0.149,-0.506 0.207,-0.53 0.279,-0.53C0.348,-0.53 0.405,-0.507 0.449,-0.459C0.493,-0.412 0.515,-0.346 0.515,-0.26C0.515,-0.255 0.514,-0.247 0.514,-0.237L0.127,-0.237C0.131,-0.18 0.147,-0.136 0.176,-0.106C0.205,-0.076 0.241,-0.061 0.284,-0.061C0.316,-0.061 0.344,-0.069 0.367,-0.086C0.389,-0.103 0.408,-0.13 0.421,-0.167ZM0.132,-0.309L0.422,-0.309C0.418,-0.353 0.407,-0.385 0.389,-0.407C0.361,-0.441 0.324,-0.458 0.28,-0.458C0.239,-0.458 0.205,-0.444 0.178,-0.417C0.15,-0.39 0.135,-0.354 0.132,-0.309Z" style="fill-rule:nonzero;"/>
            </g>
            <g transform="matrix(97.985,0,0,97.985,873.564,969)">
                <rect x="0.064" y="-0.716" width="0.088" height="0.716" style="fill-rule:nonzero;"/>
            </g>
            <g transform="matrix(97.985,0,0,97.985,895.333,969)">
                <path d="M0.066,-0.615L0.066,-0.716L0.154,-0.716L0.154,-0.615L0.066,-0.615ZM0.066,-0L0.066,-0.519L0.154,-0.519L0.154,-0L0.066,-0Z" style="fill-rule:nonzero;"/>
            </g>
            <g transform="matrix(97.985,0,0,97.985,917.103,969)">
                <path d="M0.066,-0L0.066,-0.716L0.154,-0.716L0.154,-0.308L0.362,-0.519L0.476,-0.519L0.278,-0.326L0.496,-0L0.388,-0L0.216,-0.265L0.154,-0.206L0.154,-0L0.066,-0Z" style="fill-rule:nonzero;"/>
            </g>
            <g transform="matrix(97.985,0,0,97.985,966.095,969)">
                <path d="M0.421,-0.167L0.512,-0.156C0.497,-0.103 0.471,-0.062 0.432,-0.032C0.393,-0.003 0.344,0.012 0.284,0.012C0.208,0.012 0.148,-0.012 0.103,-0.058C0.059,-0.105 0.037,-0.171 0.037,-0.255C0.037,-0.342 0.059,-0.41 0.104,-0.458C0.149,-0.506 0.207,-0.53 0.279,-0.53C0.348,-0.53 0.405,-0.507 0.449,-0.459C0.493,-0.412 0.515,-0.346 0.515,-0.26C0.515,-0.255 0.514,-0.247 0.514,-0.237L0.127,-0.237C0.131,-0.18 0.147,-0.136 0.176,-0.106C0.205,-0.076 0.241,-0.061 0.284,-0.061C0.316,-0.061 0.344,-0.069 0.367,-0.086C0.389,-0.103 0.408,-0.13 0.421,-0.167ZM0.132,-0.309L0.422,-0.309C0.418,-0.353 0.407,-0.385 0.389,-0.407C0.361,-0.441 0.324,-0.458 0.28,-0.458C0.239,-0.458 0.205,-0.444 0.178,-0.417C0.15,-0.39 0.135,-0.354 0.132,-0.309Z" style="fill-rule:nonzero;"/>
            </g>
            <g transform="matrix(97.985,0,0,97.985,323.451,1070.19)">
                <path d="M0.21,-0L0.013,-0.519L0.105,-0.519L0.217,-0.208C0.229,-0.174 0.24,-0.14 0.25,-0.104C0.258,-0.131 0.269,-0.164 0.283,-0.202L0.398,-0.519L0.488,-0.519L0.292,-0L0.21,-0Z" style="fill-rule:nonzero;"/>
            </g>
            <g transform="matrix(97.985,0,0,97.985,372.444,1070.19)">
                <path d="M0.421,-0.167L0.512,-0.156C0.497,-0.103 0.471,-0.062 0.432,-0.032C0.393,-0.003 0.344,0.012 0.284,0.012C0.208,0.012 0.148,-0.012 0.103,-0.058C0.059,-0.105 0.037,-0.171 0.037,-0.255C0.037,-0.342 0.059,-0.41 0.104,-0.458C0.149,-0.506 0.207,-0.53 0.279,-0.53C0.348,-0.53 0.405,-0.507 0.449,-0.459C0.493,-0.412 0.515,-0.346 0.515,-0.26C0.515,-0.255 0.514,-0.247 0.514,-0.237L0.127,-0.237C0.131,-0.18 0.147,-0.136 0.176,-0.106C0.205,-0.076 0.241,-0.061 0.284,-0.061C0.316,-0.061 0.344,-0.069 0.367,-0.086C0.389,-0.103 0.408,-0.13 0.421,-0.167ZM0.132,-0.309L0.422,-0.309C0.418,-0.353 0.407,-0.385 0.389,-0.407C0.361,-0.441 0.324,-0.458 0.28,-0.458C0.239,-0.458 0.205,-0.444 0.178,-0.417C0.15,-0.39 0.135,-0.354 0.132,-0.309Z" style="fill-rule:nonzero;"/>
            </g>
            <g transform="matrix(97.985,0,0,97.985,426.938,1070.19)">
                <rect x="0.064" y="-0.716" width="0.088" height="0.716" style="fill-rule:nonzero;"/>
            </g>
            <g transform="matrix(97.985,0,0,97.985,448.707,1070.19)">
                <path d="M0.033,-0.259C0.033,-0.355 0.06,-0.426 0.113,-0.473C0.158,-0.511 0.212,-0.53 0.276,-0.53C0.348,-0.53 0.406,-0.507 0.451,-0.46C0.496,-0.413 0.519,-0.349 0.519,-0.267C0.519,-0.2 0.509,-0.147 0.489,-0.109C0.469,-0.071 0.44,-0.041 0.402,-0.02C0.363,0.001 0.322,0.012 0.276,0.012C0.204,0.012 0.145,-0.012 0.1,-0.058C0.056,-0.105 0.033,-0.172 0.033,-0.259ZM0.124,-0.259C0.124,-0.193 0.138,-0.143 0.167,-0.11C0.196,-0.077 0.232,-0.061 0.276,-0.061C0.32,-0.061 0.356,-0.077 0.385,-0.11C0.414,-0.144 0.429,-0.194 0.429,-0.262C0.429,-0.326 0.414,-0.375 0.385,-0.408C0.356,-0.441 0.32,-0.458 0.276,-0.458C0.232,-0.458 0.196,-0.441 0.167,-0.408C0.138,-0.375 0.124,-0.326 0.124,-0.259Z" style="fill-rule:nonzero;"/>
            </g>
            <g transform="matrix(97.985,0,0,97.985,503.202,1070.19)">
                <path d="M0.404,-0.19L0.491,-0.179C0.481,-0.119 0.457,-0.073 0.418,-0.039C0.379,-0.005 0.332,0.012 0.275,0.012C0.204,0.012 0.147,-0.011 0.104,-0.058C0.061,-0.104 0.039,-0.171 0.039,-0.257C0.039,-0.313 0.048,-0.362 0.067,-0.404C0.085,-0.446 0.114,-0.478 0.152,-0.499C0.19,-0.52 0.231,-0.53 0.275,-0.53C0.332,-0.53 0.378,-0.516 0.414,-0.488C0.449,-0.459 0.472,-0.419 0.482,-0.366L0.397,-0.353C0.389,-0.388 0.374,-0.414 0.354,-0.432C0.333,-0.449 0.308,-0.458 0.279,-0.458C0.235,-0.458 0.199,-0.442 0.171,-0.41C0.143,-0.379 0.129,-0.328 0.129,-0.26C0.129,-0.19 0.143,-0.139 0.169,-0.108C0.196,-0.076 0.231,-0.061 0.274,-0.061C0.308,-0.061 0.337,-0.071 0.36,-0.092C0.383,-0.113 0.398,-0.146 0.404,-0.19Z" style="fill-rule:nonzero;"/>
            </g>
            <g transform="matrix(97.985,0,0,97.985,552.195,1070.19)">
                <path d="M0.066,-0.615L0.066,-0.716L0.154,-0.716L0.154,-0.615L0.066,-0.615ZM0.066,-0L0.066,-0.519L0.154,-0.519L0.154,-0L0.066,-0Z" style="fill-rule:nonzero;"/>
            </g>
            <g transform="matrix(97.985,0,0,97.985,573.964,1070.19)">
                <path d="M0.258,-0.079L0.271,-0.001C0.246,0.004 0.224,0.007 0.204,0.007C0.172,0.007 0.147,0.002 0.13,-0.008C0.112,-0.018 0.1,-0.032 0.093,-0.048C0.086,-0.065 0.082,-0.099 0.082,-0.152L0.082,-0.45L0.018,-0.45L0.018,-0.519L0.082,-0.519L0.082,-0.647L0.169,-0.7L0.169,-0.519L0.258,-0.519L0.258,-0.45L0.169,-0.45L0.169,-0.147C0.169,-0.122 0.171,-0.106 0.174,-0.099C0.177,-0.091 0.182,-0.086 0.189,-0.082C0.196,-0.077 0.206,-0.075 0.219,-0.075C0.229,-0.075 0.242,-0.076 0.258,-0.079Z" style="fill-rule:nonzero;"/>
            </g>
            <g transform="matrix(97.985,0,0,97.985,601.187,1070.19)">
                <path d="M0.062,0.2L0.052,0.117C0.071,0.122 0.088,0.125 0.103,0.125C0.122,0.125 0.138,0.122 0.149,0.115C0.161,0.109 0.171,0.1 0.178,0.088C0.184,0.079 0.193,0.057 0.205,0.022C0.207,0.018 0.209,0.01 0.213,0.001L0.016,-0.519L0.111,-0.519L0.219,-0.218C0.233,-0.18 0.245,-0.14 0.256,-0.098C0.266,-0.139 0.278,-0.178 0.292,-0.216L0.403,-0.519L0.491,-0.519L0.294,0.009C0.273,0.066 0.256,0.105 0.245,0.126C0.229,0.155 0.211,0.177 0.191,0.19C0.171,0.204 0.147,0.21 0.119,0.21C0.102,0.21 0.083,0.207 0.062,0.2Z" style="fill-rule:nonzero;"/>
            </g>
            <g transform="matrix(97.985,0,0,97.985,677.403,1070.19)">
                <path d="M0.033,-0.259C0.033,-0.355 0.06,-0.426 0.113,-0.473C0.158,-0.511 0.212,-0.53 0.276,-0.53C0.348,-0.53 0.406,-0.507 0.451,-0.46C0.496,-0.413 0.519,-0.349 0.519,-0.267C0.519,-0.2 0.509,-0.147 0.489,-0.109C0.469,-0.071 0.44,-0.041 0.402,-0.02C0.363,0.001 0.322,0.012 0.276,0.012C0.204,0.012 0.145,-0.012 0.1,-0.058C0.056,-0.105 0.033,-0.172 0.033,-0.259ZM0.124,-0.259C0.124,-0.193 0.138,-0.143 0.167,-0.11C0.196,-0.077 0.232,-0.061 0.276,-0.061C0.32,-0.061 0.356,-0.077 0.385,-0.11C0.414,-0.144 0.429,-0.194 0.429,-0.262C0.429,-0.326 0.414,-0.375 0.385,-0.408C0.356,-0.441 0.32,-0.458 0.276,-0.458C0.232,-0.458 0.196,-0.441 0.167,-0.408C0.138,-0.375 0.124,-0.326 0.124,-0.259Z" style="fill-rule:nonzero;"/>
            </g>
            <g transform="matrix(97.985,0,0,97.985,731.898,1070.19)">
                <path d="M0.065,-0L0.065,-0.519L0.144,-0.519L0.144,-0.44C0.164,-0.477 0.183,-0.501 0.2,-0.513C0.217,-0.524 0.236,-0.53 0.256,-0.53C0.286,-0.53 0.316,-0.521 0.347,-0.502L0.316,-0.42C0.295,-0.433 0.273,-0.439 0.252,-0.439C0.233,-0.439 0.215,-0.434 0.2,-0.422C0.185,-0.411 0.174,-0.395 0.167,-0.374C0.158,-0.343 0.153,-0.309 0.153,-0.271L0.153,-0L0.065,-0Z" style="fill-rule:nonzero;"/>
            </g>
            <g transform="matrix(97.985,0,0,97.985,791.751,1070.19)">
                <path d="M0.402,-0L0.402,-0.065C0.369,-0.014 0.321,0.012 0.257,0.012C0.216,0.012 0.178,0 0.143,-0.022C0.109,-0.045 0.082,-0.077 0.063,-0.118C0.044,-0.159 0.034,-0.206 0.034,-0.259C0.034,-0.311 0.043,-0.358 0.06,-0.4C0.077,-0.442 0.103,-0.474 0.138,-0.497C0.172,-0.519 0.211,-0.53 0.253,-0.53C0.285,-0.53 0.313,-0.524 0.337,-0.51C0.361,-0.497 0.381,-0.48 0.396,-0.459L0.396,-0.716L0.484,-0.716L0.484,-0L0.402,-0ZM0.125,-0.259C0.125,-0.192 0.139,-0.143 0.167,-0.11C0.194,-0.077 0.228,-0.061 0.266,-0.061C0.304,-0.061 0.337,-0.076 0.364,-0.108C0.39,-0.139 0.404,-0.187 0.404,-0.251C0.404,-0.322 0.39,-0.375 0.363,-0.408C0.335,-0.441 0.302,-0.458 0.262,-0.458C0.223,-0.458 0.19,-0.442 0.164,-0.41C0.138,-0.378 0.125,-0.327 0.125,-0.259Z" style="fill-rule:nonzero;"/>
            </g>
            <g transform="matrix(97.985,0,0,97.985,846.245,1070.19)">
                <path d="M0.421,-0.167L0.512,-0.156C0.497,-0.103 0.471,-0.062 0.432,-0.032C0.393,-0.003 0.344,0.012 0.284,0.012C0.208,0.012 0.148,-0.012 0.103,-0.058C0.059,-0.105 0.037,-0.171 0.037,-0.255C0.037,-0.342 0.059,-0.41 0.104,-0.458C0.149,-0.506 0.207,-0.53 0.279,-0.53C0.348,-0.53 0.405,-0.507 0.449,-0.459C0.493,-0.412 0.515,-0.346 0.515,-0.26C0.515,-0.255 0.514,-0.247 0.514,-0.237L0.127,-0.237C0.131,-0.18 0.147,-0.136 0.176,-0.106C0.205,-0.076 0.241,-0.061 0.284,-0.061C0.316,-0.061 0.344,-0.069 0.367,-0.086C0.389,-0.103 0.408,-0.13 0.421,-0.167ZM0.132,-0.309L0.422,-0.309C0.418,-0.353 0.407,-0.385 0.389,-0.407C0.361,-0.441 0.324,-0.458 0.28,-0.458C0.239,-0.458 0.205,-0.444 0.178,-0.417C0.15,-0.39 0.135,-0.354 0.132,-0.309Z" style="fill-rule:nonzero;"/>
            </g>
            <g transform="matrix(97.985,0,0,97.985,900.74,1070.19)">
                <path d="M0.066,-0L0.066,-0.519L0.145,-0.519L0.145,-0.445C0.183,-0.502 0.238,-0.53 0.31,-0.53C0.341,-0.53 0.37,-0.525 0.396,-0.513C0.422,-0.502 0.442,-0.487 0.455,-0.469C0.468,-0.451 0.477,-0.429 0.482,-0.404C0.486,-0.388 0.487,-0.36 0.487,-0.319L0.487,-0L0.399,-0L0.399,-0.315C0.399,-0.351 0.396,-0.378 0.389,-0.396C0.382,-0.413 0.37,-0.428 0.353,-0.438C0.335,-0.449 0.315,-0.454 0.292,-0.454C0.254,-0.454 0.222,-0.442 0.195,-0.418C0.167,-0.395 0.154,-0.35 0.154,-0.283L0.154,-0L0.066,-0Z" style="fill-rule:nonzero;"/>
            </g>
            <g transform="matrix(97.985,0,0,97.985,955.234,1070.19)">
                <path d="M0.031,-0.155L0.118,-0.168C0.123,-0.134 0.136,-0.107 0.158,-0.088C0.181,-0.07 0.212,-0.061 0.252,-0.061C0.292,-0.061 0.322,-0.069 0.342,-0.085C0.361,-0.102 0.371,-0.121 0.371,-0.143C0.371,-0.163 0.362,-0.179 0.345,-0.19C0.333,-0.198 0.303,-0.208 0.255,-0.22C0.191,-0.236 0.146,-0.25 0.121,-0.262C0.096,-0.274 0.078,-0.29 0.065,-0.311C0.052,-0.332 0.045,-0.355 0.045,-0.381C0.045,-0.404 0.051,-0.425 0.061,-0.445C0.072,-0.465 0.086,-0.481 0.104,-0.494C0.118,-0.504 0.137,-0.513 0.16,-0.52C0.184,-0.527 0.209,-0.53 0.236,-0.53C0.277,-0.53 0.313,-0.524 0.344,-0.513C0.374,-0.501 0.397,-0.485 0.412,-0.465C0.426,-0.445 0.436,-0.418 0.442,-0.385L0.356,-0.373C0.352,-0.4 0.341,-0.421 0.322,-0.436C0.303,-0.451 0.277,-0.458 0.243,-0.458C0.202,-0.458 0.174,-0.451 0.156,-0.438C0.139,-0.425 0.13,-0.409 0.13,-0.391C0.13,-0.38 0.134,-0.369 0.141,-0.36C0.148,-0.351 0.16,-0.343 0.175,-0.337C0.184,-0.334 0.209,-0.326 0.252,-0.314C0.315,-0.298 0.358,-0.284 0.383,-0.274C0.407,-0.263 0.426,-0.248 0.44,-0.228C0.454,-0.207 0.461,-0.182 0.461,-0.152C0.461,-0.123 0.453,-0.095 0.436,-0.07C0.419,-0.044 0.394,-0.024 0.362,-0.01C0.33,0.005 0.293,0.012 0.252,0.012C0.185,0.012 0.134,-0.002 0.098,-0.03C0.063,-0.058 0.041,-0.1 0.031,-0.155Z" style="fill-rule:nonzero;"/>
            </g>
            <g transform="matrix(97.985,0,0,97.985,1004.23,1070.19)">
                <path d="M0.066,-0.615L0.066,-0.716L0.154,-0.716L0.154,-0.615L0.066,-0.615ZM0.066,-0L0.066,-0.519L0.154,-0.519L0.154,-0L0.066,-0Z" style="fill-rule:nonzero;"/>
            </g>
            <g transform="matrix(97.985,0,0,97.985,1026,1070.19)">
                <path d="M0.258,-0.079L0.271,-0.001C0.246,0.004 0.224,0.007 0.204,0.007C0.172,0.007 0.147,0.002 0.13,-0.008C0.112,-0.018 0.1,-0.032 0.093,-0.048C0.086,-0.065 0.082,-0.099 0.082,-0.152L0.082,-0.45L0.018,-0.45L0.018,-0.519L0.082,-0.519L0.082,-0.647L0.169,-0.7L0.169,-0.519L0.258,-0.519L0.258,-0.45L0.169,-0.45L0.169,-0.147C0.169,-0.122 0.171,-0.106 0.174,-0.099C0.177,-0.091 0.182,-0.086 0.189,-0.082C0.196,-0.077 0.206,-0.075 0.219,-0.075C0.229,-0.075 0.242,-0.076 0.258,-0.079Z" style="fill-rule:nonzero;"/>
            </g>
            <g transform="matrix(97.985,0,0,97.985,1053.22,1070.19)">
                <path d="M0.062,0.2L0.052,0.117C0.071,0.122 0.088,0.125 0.103,0.125C0.122,0.125 0.138,0.122 0.149,0.115C0.161,0.109 0.171,0.1 0.178,0.088C0.184,0.079 0.193,0.057 0.205,0.022C0.207,0.018 0.209,0.01 0.213,0.001L0.016,-0.519L0.111,-0.519L0.219,-0.218C0.233,-0.18 0.245,-0.14 0.256,-0.098C0.266,-0.139 0.278,-0.178 0.292,-0.216L0.403,-0.519L0.491,-0.519L0.294,0.009C0.273,0.066 0.256,0.105 0.245,0.126C0.229,0.155 0.211,0.177 0.191,0.19C0.171,0.204 0.147,0.21 0.119,0.21C0.102,0.21 0.083,0.207 0.062,0.2Z" style="fill-rule:nonzero;"/>
            </g>
        </g>
        <path d="M771.911,809.735C771.928,825.995 773.593,842.01 773.593,858.301C773.593,895.548 771.021,932.84 770.228,970.096C770.116,975.351 769.776,981.973 769.334,988.882C762.046,970.224 753.776,951.934 747.035,933.06C739.121,910.901 737.624,888.52 732.109,866.463C731.203,862.837 727.852,859.67 724.664,858.714C720.435,857.446 715.971,859.85 714.703,864.079C713.776,867.17 714.81,870.386 717.086,872.386C722.333,894.288 724.117,916.459 731.967,938.441C740.19,961.464 750.687,983.617 758.906,1006.63C761.495,1013.88 763.708,1020.94 765.366,1028.4C765.657,1029.72 766.156,1032.36 766.156,1032.36C766.896,1036.28 770.408,1039.06 774.39,1038.87C778.373,1038.68 781.61,1035.59 781.982,1031.62C781.982,1031.62 785.789,990.877 786.224,970.436C786.797,943.512 788.294,916.568 789.081,889.635C793.503,914.617 798.243,939.542 805.034,963.989C805.208,964.617 809.587,983.504 813.23,991.045C814.508,993.69 815.987,995.468 817.135,996.398C819.066,997.962 821.059,998.47 822.844,998.47C824.705,998.47 826.498,997.923 828.146,996.643C829.5,995.592 831.523,992.957 832.273,988.507C833.706,980.009 832.717,958.359 832.717,954.292C832.717,943.085 828.562,909.617 825.255,878.59C829.518,895.202 833.552,911.863 837.826,928.483C838.11,929.59 847.313,958.024 849.799,962.601C852.395,967.381 856.562,967.429 857.797,967.352C860.206,967.2 862.552,966.217 864.219,963.438C867.112,958.617 868.703,949.732 868.778,938.48C868.896,920.748 865.927,896.27 863.754,875.287C875.438,914.313 886.19,946.382 888.935,952.85C891.404,958.669 896.287,958.904 896.926,958.904C900.565,958.904 902.646,957.496 904.036,956.092C905.345,954.77 906.197,953.148 906.559,951.239C906.791,950.013 906.682,948.448 906.594,947.037C905.357,927.236 902.443,907.554 900.315,887.821C904.268,897.514 907.488,906.361 908.11,907.792C911.588,915.79 914.527,924.02 918.393,931.752C918.833,932.63 920.039,934.288 920.847,935.007C922.293,936.293 923.79,936.783 924.832,936.977C927.141,937.409 929.118,936.876 930.791,935.76C932.194,934.823 933.924,933.248 934.329,930.008C935.294,922.29 931.227,894.222 930.89,876.107C933.779,883.112 935.781,890.868 936.535,892.982C936.686,893.402 942.008,904.853 943.247,906.581C946.749,911.463 951.485,910.069 952.761,909.588C954.65,908.877 956.581,907.518 957.552,904.607C958.772,900.945 958.844,894.138 957.856,886.06L957.643,884.393C959.948,888.046 962.647,890.845 965.747,892.395C968.119,893.581 970.399,893.568 972.576,892.725C974.203,892.094 977.524,889.665 978.687,884.185C979.482,880.441 980.017,873.658 980.58,867.336C982.064,869.533 983.285,871.47 984.03,872.439C985.24,874.012 986.813,877.801 988.064,879.542C989.458,881.481 991.037,882.549 992.186,883.063C994.603,884.143 996.874,884.025 998.953,883.141C1000.57,882.453 1002.71,881.102 1003.85,877.668C1004.46,875.839 1004.64,873.053 1004.35,869.843C1004.19,868.134 1003.93,866.209 1003.86,864.36C1004.72,864.538 1005.73,864.792 1006.67,865.131C1010.82,866.63 1015.41,864.475 1016.91,860.323C1018.41,856.17 1016.25,851.581 1012.1,850.081C1001.97,846.423 996.204,848.386 993.01,850.959C992.023,851.754 991.18,852.707 990.48,853.792C988.928,851.743 987.251,849.762 985.599,848.312C981.235,844.481 976.506,843.546 972.688,844.818C970.962,845.394 967.433,847.757 966.201,853.385C965.82,855.126 965.507,857.571 965.228,860.327C962.456,851.507 959.356,842.911 954.777,838.333C953.052,836.607 950.079,834.188 947.778,833.503C944.25,832.454 941.057,833.163 938.413,835.807C937.359,836.861 936.256,838.498 935.756,840.963C935.414,842.648 935.342,845.393 935.696,848.894C935.89,850.82 936.205,853.071 936.598,855.544C931.918,851.431 926.615,850.857 921.433,853.966C919.931,854.867 918.493,856.26 917.388,858.334C916.298,860.379 915.418,863.642 915.081,867.854C914.775,871.68 914.871,876.621 915.182,882.043C911.36,872.665 906.792,862.252 903.135,856.531C900.995,853.183 898.788,851.028 897.133,850.037C894.686,848.569 892.348,848.367 890.316,848.771C886.656,849.498 884.351,851.673 883.044,854.675C881.914,857.272 882.121,861.293 882.201,862.91C882.615,871.18 883.349,879.429 884.231,887.669C881.564,879.008 878.781,869.782 875.978,860.253C875.929,860.086 871.733,847.294 867.998,838.485C865.872,833.471 863.526,829.613 862.111,828.277C860.074,826.353 857.965,825.828 856.344,825.759C854.032,825.66 851.88,826.369 850.019,828.23C848.413,829.836 846.808,832.71 846.122,837.017C845.277,842.329 845.516,851.17 846.402,861.858C847.794,878.66 850.675,900.456 852.035,919.448C846.303,896.938 840.926,874.369 834.767,851.97C831.277,839.279 826.857,824.611 824.058,818.315C822.606,815.049 820.941,813.137 819.979,812.383C817.889,810.745 815.807,810.431 814.075,810.568C811.821,810.745 809.523,811.666 807.769,814.297C807.012,815.433 806.185,817.3 805.763,819.97C805.284,822.994 805.163,827.923 805.407,834.201C806.45,861.108 813.801,915.889 816.058,942.688C807.444,906.854 802.369,870.199 795.339,834.044C795.085,832.737 790.718,804.774 787.881,799.183C785.588,794.664 781.927,793.897 779.91,793.897C775.514,793.897 773.108,796.047 771.701,799.036C771.107,800.3 770.707,801.944 770.802,803.897C770.877,805.44 771.794,809.252 771.911,809.735Z"/>
        <path d="M1009.66,859.088C1055.1,866.614 1098.84,870.364 1136.6,870.8C1249.42,872.103 1342.49,904.015 1482.58,833.432C1669.48,739.268 1730.93,696.924 1796.32,648.277" style="fill:none;stroke:black;stroke-width:18.89px;"/>
        <g transform="matrix(1,0,0,1,-16.0022,-2.82434)">
            <g transform="matrix(64.8443,0,0,64.8443,756.825,694.162)">
                <path d="M0.072,-0.364C0.072,-0.381 0.072,-0.399 0.071,-0.416C0.07,-0.433 0.068,-0.451 0.067,-0.468L0.138,-0.468L0.138,-0.397L0.14,-0.397C0.156,-0.424 0.178,-0.445 0.207,-0.459C0.235,-0.473 0.263,-0.48 0.291,-0.48C0.304,-0.48 0.317,-0.479 0.332,-0.476C0.346,-0.473 0.36,-0.468 0.373,-0.462C0.386,-0.455 0.399,-0.445 0.411,-0.432C0.422,-0.419 0.432,-0.403 0.44,-0.383C0.453,-0.413 0.475,-0.437 0.504,-0.454C0.533,-0.471 0.563,-0.48 0.594,-0.48C0.654,-0.48 0.698,-0.464 0.727,-0.433C0.756,-0.401 0.77,-0.356 0.77,-0.297L0.77,-0L0.704,-0L0.704,-0.273C0.704,-0.32 0.696,-0.357 0.679,-0.382C0.662,-0.407 0.631,-0.42 0.586,-0.42C0.561,-0.42 0.541,-0.415 0.524,-0.406C0.507,-0.396 0.494,-0.383 0.484,-0.367C0.473,-0.351 0.466,-0.333 0.461,-0.313C0.456,-0.292 0.454,-0.271 0.454,-0.249L0.454,-0L0.388,-0L0.388,-0.273C0.388,-0.32 0.38,-0.357 0.363,-0.382C0.346,-0.407 0.315,-0.42 0.27,-0.42C0.266,-0.42 0.257,-0.419 0.243,-0.416C0.228,-0.413 0.213,-0.406 0.198,-0.394C0.183,-0.382 0.169,-0.364 0.157,-0.34C0.144,-0.316 0.138,-0.283 0.138,-0.24L0.138,-0L0.072,-0L0.072,-0.364Z" style="fill-rule:nonzero;"/>
            </g>
            <g transform="matrix(64.8443,0,0,64.8443,812.072,694.162)">
                <path d="M0.473,-0.234C0.473,-0.26 0.469,-0.284 0.461,-0.307C0.452,-0.33 0.44,-0.349 0.425,-0.366C0.41,-0.383 0.391,-0.396 0.37,-0.406C0.348,-0.415 0.323,-0.42 0.296,-0.42C0.269,-0.42 0.244,-0.415 0.223,-0.406C0.201,-0.396 0.183,-0.383 0.168,-0.366C0.153,-0.349 0.141,-0.33 0.133,-0.307C0.124,-0.284 0.12,-0.26 0.12,-0.234C0.12,-0.208 0.124,-0.184 0.133,-0.161C0.141,-0.138 0.153,-0.119 0.168,-0.102C0.183,-0.085 0.201,-0.072 0.223,-0.063C0.244,-0.053 0.269,-0.048 0.296,-0.048C0.323,-0.048 0.348,-0.053 0.37,-0.063C0.391,-0.072 0.41,-0.085 0.425,-0.102C0.44,-0.119 0.452,-0.138 0.461,-0.161C0.469,-0.184 0.473,-0.208 0.473,-0.234ZM0.545,-0.234C0.545,-0.199 0.539,-0.166 0.527,-0.136C0.514,-0.106 0.497,-0.08 0.475,-0.058C0.453,-0.036 0.427,-0.019 0.397,-0.007C0.366,0.006 0.333,0.012 0.296,0.012C0.26,0.012 0.227,0.006 0.197,-0.007C0.166,-0.019 0.14,-0.036 0.118,-0.058C0.096,-0.08 0.079,-0.106 0.067,-0.136C0.054,-0.166 0.048,-0.199 0.048,-0.234C0.048,-0.269 0.054,-0.302 0.067,-0.332C0.079,-0.362 0.096,-0.388 0.118,-0.41C0.14,-0.432 0.166,-0.449 0.197,-0.462C0.227,-0.474 0.26,-0.48 0.296,-0.48C0.333,-0.48 0.366,-0.474 0.397,-0.462C0.427,-0.449 0.453,-0.432 0.475,-0.41C0.497,-0.388 0.514,-0.362 0.527,-0.332C0.539,-0.302 0.545,-0.269 0.545,-0.234Z" style="fill-rule:nonzero;"/>
            </g>
            <g transform="matrix(64.8443,0,0,64.8443,850.525,694.162)">
                <rect x="0.087" y="-0.756" width="0.066" height="0.756" style="fill-rule:nonzero;"/>
            </g>
            <g transform="matrix(64.8443,0,0,64.8443,866.087,694.162)">
                <path d="M0.436,-0.27C0.436,-0.315 0.423,-0.351 0.396,-0.379C0.369,-0.406 0.332,-0.42 0.284,-0.42C0.263,-0.42 0.242,-0.416 0.222,-0.408C0.202,-0.399 0.185,-0.388 0.17,-0.374C0.155,-0.36 0.142,-0.344 0.134,-0.326C0.125,-0.308 0.12,-0.289 0.12,-0.27L0.436,-0.27ZM0.118,-0.216C0.12,-0.193 0.126,-0.171 0.135,-0.15C0.144,-0.129 0.157,-0.112 0.172,-0.097C0.187,-0.082 0.205,-0.07 0.225,-0.061C0.245,-0.052 0.267,-0.048 0.29,-0.048C0.325,-0.048 0.356,-0.056 0.382,-0.073C0.407,-0.089 0.427,-0.108 0.44,-0.129L0.491,-0.087C0.463,-0.052 0.432,-0.026 0.399,-0.011C0.365,0.004 0.329,0.012 0.29,0.012C0.255,0.012 0.223,0.006 0.194,-0.007C0.164,-0.019 0.138,-0.036 0.117,-0.058C0.096,-0.08 0.079,-0.106 0.067,-0.136C0.054,-0.166 0.048,-0.199 0.048,-0.234C0.048,-0.269 0.054,-0.302 0.066,-0.332C0.078,-0.362 0.095,-0.388 0.116,-0.41C0.137,-0.432 0.162,-0.449 0.191,-0.462C0.22,-0.474 0.251,-0.48 0.284,-0.48C0.319,-0.48 0.351,-0.474 0.379,-0.461C0.407,-0.448 0.431,-0.432 0.45,-0.411C0.468,-0.39 0.483,-0.365 0.493,-0.337C0.503,-0.308 0.508,-0.278 0.508,-0.246L0.508,-0.216L0.118,-0.216Z" style="fill-rule:nonzero;"/>
            </g>
            <g transform="matrix(64.8443,0,0,64.8443,902.141,694.162)">
                <path d="M0.413,-0.358C0.402,-0.375 0.386,-0.39 0.366,-0.402C0.345,-0.414 0.322,-0.42 0.296,-0.42C0.269,-0.421 0.244,-0.416 0.223,-0.407C0.201,-0.398 0.182,-0.385 0.167,-0.368C0.152,-0.351 0.14,-0.332 0.132,-0.309C0.124,-0.286 0.12,-0.261 0.12,-0.234C0.12,-0.207 0.124,-0.183 0.132,-0.16C0.14,-0.136 0.152,-0.117 0.167,-0.1C0.182,-0.083 0.201,-0.07 0.223,-0.061C0.244,-0.052 0.269,-0.047 0.296,-0.048C0.322,-0.048 0.345,-0.054 0.366,-0.066C0.386,-0.078 0.402,-0.093 0.413,-0.11L0.467,-0.069C0.444,-0.042 0.417,-0.022 0.388,-0.009C0.359,0.005 0.328,0.011 0.296,0.012C0.258,0.013 0.224,0.007 0.193,-0.006C0.162,-0.018 0.136,-0.035 0.115,-0.057C0.093,-0.079 0.076,-0.105 0.065,-0.136C0.054,-0.166 0.048,-0.199 0.048,-0.234C0.048,-0.269 0.054,-0.302 0.065,-0.333C0.076,-0.363 0.093,-0.389 0.115,-0.411C0.136,-0.433 0.162,-0.45 0.193,-0.463C0.224,-0.475 0.258,-0.481 0.296,-0.48C0.328,-0.479 0.359,-0.472 0.388,-0.46C0.417,-0.447 0.444,-0.426 0.467,-0.399L0.413,-0.358Z" style="fill-rule:nonzero;"/>
            </g>
            <g transform="matrix(64.8443,0,0,64.8443,933.396,694.162)">
                <path d="M0.41,-0C0.409,-0.013 0.408,-0.025 0.408,-0.038C0.407,-0.05 0.407,-0.062 0.407,-0.075L0.405,-0.075C0.398,-0.062 0.388,-0.051 0.377,-0.04C0.366,-0.029 0.353,-0.02 0.339,-0.013C0.325,-0.005 0.31,0.001 0.295,0.006C0.279,0.01 0.263,0.012 0.248,0.012C0.188,0.012 0.144,-0.004 0.115,-0.036C0.086,-0.067 0.072,-0.112 0.072,-0.171L0.072,-0.468L0.138,-0.468L0.138,-0.209C0.138,-0.183 0.14,-0.16 0.144,-0.14C0.148,-0.12 0.155,-0.103 0.165,-0.09C0.174,-0.076 0.187,-0.066 0.204,-0.059C0.22,-0.051 0.24,-0.048 0.265,-0.048C0.268,-0.048 0.278,-0.049 0.293,-0.052C0.308,-0.055 0.325,-0.062 0.342,-0.074C0.359,-0.086 0.374,-0.104 0.387,-0.128C0.4,-0.152 0.407,-0.185 0.407,-0.228L0.407,-0.468L0.473,-0.468L0.473,-0.103C0.473,-0.09 0.474,-0.074 0.475,-0.055C0.476,-0.036 0.477,-0.017 0.478,-0L0.41,-0Z" style="fill-rule:nonzero;"/>
            </g>
            <g transform="matrix(64.8443,0,0,64.8443,969.449,694.162)">
                <rect x="0.087" y="-0.756" width="0.066" height="0.756" style="fill-rule:nonzero;"/>
            </g>
            <g transform="matrix(64.8443,0,0,64.8443,985.012,694.162)">
                <path d="M0.338,-0.233C0.321,-0.233 0.301,-0.232 0.276,-0.231C0.251,-0.229 0.227,-0.225 0.204,-0.219C0.181,-0.212 0.161,-0.202 0.145,-0.189C0.128,-0.176 0.12,-0.157 0.12,-0.134C0.12,-0.119 0.123,-0.106 0.13,-0.095C0.136,-0.084 0.144,-0.075 0.155,-0.068C0.166,-0.061 0.178,-0.056 0.191,-0.053C0.204,-0.049 0.217,-0.048 0.23,-0.048C0.254,-0.048 0.275,-0.052 0.293,-0.06C0.31,-0.068 0.325,-0.079 0.337,-0.093C0.349,-0.106 0.358,-0.122 0.364,-0.141C0.369,-0.159 0.372,-0.178 0.372,-0.199L0.372,-0.233L0.338,-0.233ZM0.372,-0.287L0.372,-0.299C0.372,-0.38 0.332,-0.42 0.252,-0.42C0.197,-0.42 0.15,-0.402 0.109,-0.365L0.069,-0.412C0.113,-0.457 0.179,-0.48 0.267,-0.48C0.29,-0.48 0.312,-0.477 0.333,-0.47C0.354,-0.463 0.372,-0.453 0.387,-0.44C0.402,-0.426 0.415,-0.409 0.424,-0.388C0.433,-0.367 0.438,-0.343 0.438,-0.314L0.438,-0.105C0.438,-0.087 0.439,-0.068 0.441,-0.049C0.442,-0.029 0.444,-0.013 0.446,-0L0.382,-0C0.38,-0.011 0.379,-0.024 0.378,-0.037C0.377,-0.05 0.376,-0.063 0.376,-0.076L0.374,-0.076C0.355,-0.045 0.332,-0.022 0.306,-0.009C0.279,0.005 0.247,0.012 0.209,0.012C0.188,0.012 0.168,0.009 0.149,0.004C0.13,-0.002 0.113,-0.011 0.098,-0.023C0.083,-0.034 0.07,-0.049 0.062,-0.066C0.053,-0.083 0.048,-0.102 0.048,-0.125C0.048,-0.163 0.058,-0.193 0.078,-0.215C0.097,-0.236 0.122,-0.252 0.152,-0.263C0.181,-0.274 0.213,-0.28 0.247,-0.283C0.28,-0.286 0.311,-0.287 0.339,-0.287L0.372,-0.287Z" style="fill-rule:nonzero;"/>
            </g>
            <g transform="matrix(64.8443,0,0,64.8443,1018.67,694.162)">
                <path d="M0.079,-0.322C0.079,-0.343 0.079,-0.364 0.078,-0.385C0.077,-0.406 0.076,-0.434 0.075,-0.468L0.14,-0.468L0.14,-0.381L0.142,-0.381C0.147,-0.394 0.153,-0.406 0.162,-0.418C0.171,-0.429 0.181,-0.44 0.194,-0.449C0.206,-0.458 0.22,-0.466 0.237,-0.472C0.253,-0.477 0.271,-0.48 0.292,-0.48C0.311,-0.48 0.327,-0.478 0.341,-0.474L0.328,-0.409C0.319,-0.412 0.307,-0.414 0.29,-0.414C0.265,-0.414 0.243,-0.409 0.225,-0.4C0.207,-0.39 0.192,-0.378 0.18,-0.363C0.168,-0.347 0.159,-0.331 0.154,-0.314C0.148,-0.297 0.145,-0.28 0.145,-0.264L0.145,-0L0.079,-0L0.079,-0.322Z" style="fill-rule:nonzero;"/>
            </g>
            <g transform="matrix(64.8443,0,0,64.8443,756.825,759.006)">
                <path d="M0.32,-0.357C0.31,-0.376 0.297,-0.392 0.28,-0.403C0.263,-0.414 0.243,-0.42 0.219,-0.42C0.208,-0.42 0.196,-0.419 0.185,-0.416C0.173,-0.413 0.162,-0.409 0.153,-0.404C0.144,-0.398 0.136,-0.391 0.131,-0.382C0.125,-0.373 0.122,-0.363 0.122,-0.35C0.122,-0.328 0.13,-0.312 0.145,-0.302C0.16,-0.292 0.183,-0.283 0.214,-0.276L0.281,-0.26C0.314,-0.253 0.341,-0.238 0.363,-0.216C0.384,-0.193 0.395,-0.165 0.395,-0.132C0.395,-0.107 0.39,-0.085 0.38,-0.067C0.369,-0.048 0.356,-0.033 0.339,-0.022C0.322,-0.01 0.302,-0.001 0.28,0.004C0.258,0.009 0.236,0.012 0.213,0.012C0.177,0.012 0.143,0.005 0.113,-0.009C0.082,-0.022 0.055,-0.046 0.033,-0.079L0.09,-0.118C0.103,-0.097 0.12,-0.08 0.141,-0.067C0.161,-0.054 0.185,-0.048 0.213,-0.048C0.226,-0.048 0.24,-0.049 0.253,-0.053C0.266,-0.056 0.278,-0.06 0.289,-0.067C0.299,-0.073 0.307,-0.081 0.314,-0.091C0.32,-0.101 0.323,-0.113 0.323,-0.126C0.323,-0.149 0.314,-0.166 0.297,-0.177C0.28,-0.187 0.259,-0.195 0.234,-0.201L0.17,-0.216C0.162,-0.218 0.151,-0.221 0.138,-0.226C0.124,-0.231 0.111,-0.238 0.098,-0.247C0.085,-0.256 0.073,-0.269 0.064,-0.284C0.055,-0.299 0.05,-0.317 0.05,-0.339C0.05,-0.363 0.055,-0.384 0.065,-0.402C0.074,-0.42 0.087,-0.435 0.104,-0.446C0.12,-0.457 0.138,-0.466 0.159,-0.472C0.18,-0.477 0.201,-0.48 0.223,-0.48C0.256,-0.48 0.286,-0.474 0.314,-0.461C0.342,-0.448 0.364,-0.427 0.379,-0.396L0.32,-0.357Z" style="fill-rule:nonzero;"/>
            </g>
            <g transform="matrix(64.8443,0,0,64.8443,784.448,759.006)">
                <path d="M0.413,-0.358C0.402,-0.375 0.386,-0.39 0.366,-0.402C0.345,-0.414 0.322,-0.42 0.296,-0.42C0.269,-0.421 0.244,-0.416 0.223,-0.407C0.201,-0.398 0.182,-0.385 0.167,-0.368C0.152,-0.351 0.14,-0.332 0.132,-0.309C0.124,-0.286 0.12,-0.261 0.12,-0.234C0.12,-0.207 0.124,-0.183 0.132,-0.16C0.14,-0.136 0.152,-0.117 0.167,-0.1C0.182,-0.083 0.201,-0.07 0.223,-0.061C0.244,-0.052 0.269,-0.047 0.296,-0.048C0.322,-0.048 0.345,-0.054 0.366,-0.066C0.386,-0.078 0.402,-0.093 0.413,-0.11L0.467,-0.069C0.444,-0.042 0.417,-0.022 0.388,-0.009C0.359,0.005 0.328,0.011 0.296,0.012C0.258,0.013 0.224,0.007 0.193,-0.006C0.162,-0.018 0.136,-0.035 0.115,-0.057C0.093,-0.079 0.076,-0.105 0.065,-0.136C0.054,-0.166 0.048,-0.199 0.048,-0.234C0.048,-0.269 0.054,-0.302 0.065,-0.333C0.076,-0.363 0.093,-0.389 0.115,-0.411C0.136,-0.433 0.162,-0.45 0.193,-0.463C0.224,-0.475 0.258,-0.481 0.296,-0.48C0.328,-0.479 0.359,-0.472 0.388,-0.46C0.417,-0.447 0.444,-0.426 0.467,-0.399L0.413,-0.358Z" style="fill-rule:nonzero;"/>
            </g>
            <g transform="matrix(64.8443,0,0,64.8443,815.703,759.006)">
                <path d="M0.338,-0.233C0.321,-0.233 0.301,-0.232 0.276,-0.231C0.251,-0.229 0.227,-0.225 0.204,-0.219C0.181,-0.212 0.161,-0.202 0.145,-0.189C0.128,-0.176 0.12,-0.157 0.12,-0.134C0.12,-0.119 0.123,-0.106 0.13,-0.095C0.136,-0.084 0.144,-0.075 0.155,-0.068C0.166,-0.061 0.178,-0.056 0.191,-0.053C0.204,-0.049 0.217,-0.048 0.23,-0.048C0.254,-0.048 0.275,-0.052 0.293,-0.06C0.31,-0.068 0.325,-0.079 0.337,-0.093C0.349,-0.106 0.358,-0.122 0.364,-0.141C0.369,-0.159 0.372,-0.178 0.372,-0.199L0.372,-0.233L0.338,-0.233ZM0.372,-0.287L0.372,-0.299C0.372,-0.38 0.332,-0.42 0.252,-0.42C0.197,-0.42 0.15,-0.402 0.109,-0.365L0.069,-0.412C0.113,-0.457 0.179,-0.48 0.267,-0.48C0.29,-0.48 0.312,-0.477 0.333,-0.47C0.354,-0.463 0.372,-0.453 0.387,-0.44C0.402,-0.426 0.415,-0.409 0.424,-0.388C0.433,-0.367 0.438,-0.343 0.438,-0.314L0.438,-0.105C0.438,-0.087 0.439,-0.068 0.441,-0.049C0.442,-0.029 0.444,-0.013 0.446,-0L0.382,-0C0.38,-0.011 0.379,-0.024 0.378,-0.037C0.377,-0.05 0.376,-0.063 0.376,-0.076L0.374,-0.076C0.355,-0.045 0.332,-0.022 0.306,-0.009C0.279,0.005 0.247,0.012 0.209,0.012C0.188,0.012 0.168,0.009 0.149,0.004C0.13,-0.002 0.113,-0.011 0.098,-0.023C0.083,-0.034 0.07,-0.049 0.062,-0.066C0.053,-0.083 0.048,-0.102 0.048,-0.125C0.048,-0.163 0.058,-0.193 0.078,-0.215C0.097,-0.236 0.122,-0.252 0.152,-0.263C0.181,-0.274 0.213,-0.28 0.247,-0.283C0.28,-0.286 0.311,-0.287 0.339,-0.287L0.372,-0.287Z" style="fill-rule:nonzero;"/>
            </g>
            <g transform="matrix(64.8443,0,0,64.8443,849.358,759.006)">
                <rect x="0.087" y="-0.756" width="0.066" height="0.756" style="fill-rule:nonzero;"/>
            </g>
            <g transform="matrix(64.8443,0,0,64.8443,864.92,759.006)">
                <path d="M0.436,-0.27C0.436,-0.315 0.423,-0.351 0.396,-0.379C0.369,-0.406 0.332,-0.42 0.284,-0.42C0.263,-0.42 0.242,-0.416 0.222,-0.408C0.202,-0.399 0.185,-0.388 0.17,-0.374C0.155,-0.36 0.142,-0.344 0.134,-0.326C0.125,-0.308 0.12,-0.289 0.12,-0.27L0.436,-0.27ZM0.118,-0.216C0.12,-0.193 0.126,-0.171 0.135,-0.15C0.144,-0.129 0.157,-0.112 0.172,-0.097C0.187,-0.082 0.205,-0.07 0.225,-0.061C0.245,-0.052 0.267,-0.048 0.29,-0.048C0.325,-0.048 0.356,-0.056 0.382,-0.073C0.407,-0.089 0.427,-0.108 0.44,-0.129L0.491,-0.087C0.463,-0.052 0.432,-0.026 0.399,-0.011C0.365,0.004 0.329,0.012 0.29,0.012C0.255,0.012 0.223,0.006 0.194,-0.007C0.164,-0.019 0.138,-0.036 0.117,-0.058C0.096,-0.08 0.079,-0.106 0.067,-0.136C0.054,-0.166 0.048,-0.199 0.048,-0.234C0.048,-0.269 0.054,-0.302 0.066,-0.332C0.078,-0.362 0.095,-0.388 0.116,-0.41C0.137,-0.432 0.162,-0.449 0.191,-0.462C0.22,-0.474 0.251,-0.48 0.284,-0.48C0.319,-0.48 0.351,-0.474 0.379,-0.461C0.407,-0.448 0.431,-0.432 0.45,-0.411C0.468,-0.39 0.483,-0.365 0.493,-0.337C0.503,-0.308 0.508,-0.278 0.508,-0.246L0.508,-0.216L0.118,-0.216Z" style="fill-rule:nonzero;"/>
            </g>
        </g>
        <g transform="matrix(1,0,0,1,-16.8422,1.79609)">
            <circle cx="1075.2" cy="864.185" r="15.434" style="fill:rgb(203,37,37);stroke:rgb(203,37,37);stroke-width:18.89px;"/>
        </g>
        <g transform="matrix(1,0,0,1,-70.069,-4.9231)">
            <g transform="matrix(92.3497,0,0,92.3497,1037.13,989.254)">
                <path d="M0.168,-0.395L0.296,-0.395C0.328,-0.395 0.355,-0.398 0.378,-0.405C0.4,-0.412 0.418,-0.421 0.431,-0.432C0.444,-0.443 0.454,-0.456 0.46,-0.471C0.466,-0.486 0.469,-0.502 0.469,-0.519C0.469,-0.536 0.466,-0.552 0.46,-0.567C0.454,-0.582 0.444,-0.595 0.431,-0.606C0.418,-0.617 0.4,-0.626 0.378,-0.633C0.355,-0.639 0.328,-0.642 0.296,-0.642L0.168,-0.642L0.168,-0.395ZM0.168,-0L0.096,-0L0.096,-0.708L0.314,-0.708C0.386,-0.708 0.443,-0.692 0.485,-0.661C0.526,-0.63 0.547,-0.582 0.547,-0.519C0.547,-0.47 0.532,-0.428 0.501,-0.395C0.47,-0.361 0.425,-0.341 0.366,-0.336L0.57,-0L0.482,-0L0.288,-0.329L0.168,-0.329L0.168,-0Z" style="fill:rgb(203,37,37);fill-rule:nonzero;"/>
            </g>
            <g transform="matrix(92.3497,0,0,92.3497,1091.89,989.254)">
                <path d="M0.168,-0.066L0.547,-0.066L0.547,-0L0.096,-0L0.096,-0.708L0.535,-0.708L0.535,-0.642L0.168,-0.642L0.168,-0.401L0.511,-0.401L0.511,-0.335L0.168,-0.335L0.168,-0.066Z" style="fill:rgb(203,37,37);fill-rule:nonzero;"/>
            </g>
            <g transform="matrix(92.3497,0,0,92.3497,1146.65,989.254)">
                <path d="M0.302,-0.108L0.304,-0.108L0.536,-0.708L0.614,-0.708L0.338,-0L0.266,-0L-0.003,-0.708L0.077,-0.708L0.302,-0.108Z" style="fill:rgb(203,37,37);fill-rule:nonzero;"/>
            </g>
        </g>
        <g transform="matrix(1,0,0,1,-70.4731,-33.4708)">
            <path d="M1406.87,618.994C1406.23,617.747 1405.37,616.758 1404.29,616.027C1403.22,615.297 1401.91,614.931 1400.36,614.931C1399.63,614.931 1398.89,615.017 1398.13,615.189C1397.38,615.361 1396.7,615.63 1396.1,615.995C1395.5,616.36 1395.02,616.823 1394.65,617.381C1394.29,617.94 1394.1,618.628 1394.1,619.445C1394.1,620.864 1394.6,621.895 1395.59,622.54C1396.58,623.185 1398.06,623.744 1400.04,624.217L1404.36,625.248C1406.46,625.721 1408.21,626.678 1409.61,628.118C1411.01,629.558 1411.71,631.353 1411.71,633.502C1411.71,635.136 1411.38,636.544 1410.71,637.726C1410.04,638.908 1409.16,639.875 1408.07,640.628C1406.97,641.38 1405.71,641.928 1404.29,642.272C1402.87,642.616 1401.43,642.788 1399.97,642.788C1397.65,642.788 1395.49,642.347 1393.49,641.466C1391.49,640.585 1389.78,639.069 1388.37,636.92L1392.04,634.405C1392.9,635.781 1393.99,636.877 1395.3,637.694C1396.61,638.51 1398.17,638.919 1399.97,638.919C1400.83,638.919 1401.69,638.822 1402.55,638.629C1403.41,638.435 1404.17,638.134 1404.84,637.726C1405.51,637.317 1406.04,636.791 1406.45,636.146C1406.86,635.501 1407.07,634.749 1407.07,633.889C1407.07,632.385 1406.51,631.299 1405.39,630.633C1404.27,629.966 1402.92,629.44 1401.33,629.053L1397.2,628.086C1396.68,627.957 1395.99,627.742 1395.1,627.441C1394.22,627.14 1393.36,626.689 1392.52,626.087C1391.69,625.485 1390.97,624.7 1390.36,623.733C1389.76,622.766 1389.46,621.573 1389.46,620.154C1389.46,618.607 1389.77,617.253 1390.4,616.092C1391.02,614.931 1391.86,613.985 1392.91,613.255C1393.96,612.524 1395.16,611.976 1396.49,611.61C1397.82,611.245 1399.2,611.062 1400.62,611.062C1402.72,611.062 1404.68,611.471 1406.49,612.287C1408.29,613.104 1409.69,614.501 1410.68,616.479L1406.87,618.994Z" style="fill-rule:nonzero;stroke:black;stroke-width:1px;stroke-linecap:butt;stroke-miterlimit:2;"/>
            <path d="M1445.88,626.925C1445.88,625.248 1445.62,623.679 1445.08,622.218C1444.54,620.756 1443.78,619.488 1442.79,618.413C1441.8,617.338 1440.61,616.489 1439.21,615.866C1437.81,615.243 1436.23,614.931 1434.47,614.931C1432.71,614.931 1431.1,615.243 1429.63,615.866C1428.17,616.489 1426.9,617.338 1425.83,618.413C1424.76,619.488 1423.92,620.756 1423.32,622.218C1422.71,623.679 1422.41,625.248 1422.41,626.925C1422.41,628.602 1422.71,630.171 1423.32,631.632C1423.92,633.094 1424.76,634.362 1425.83,635.437C1426.9,636.511 1428.17,637.36 1429.63,637.984C1431.1,638.607 1432.71,638.919 1434.47,638.919C1436.23,638.919 1437.81,638.607 1439.21,637.984C1440.61,637.36 1441.8,636.511 1442.79,635.437C1443.78,634.362 1444.54,633.094 1445.08,631.632C1445.62,630.171 1445.88,628.602 1445.88,626.925ZM1418.35,611.836L1422.61,611.836L1422.61,616.866L1422.73,616.866C1423.42,615.834 1424.24,614.953 1425.18,614.222C1426.13,613.491 1427.12,612.889 1428.15,612.416C1429.18,611.943 1430.25,611.599 1431.34,611.385C1432.44,611.17 1433.48,611.062 1434.47,611.062C1436.84,611.062 1439,611.46 1440.95,612.255C1442.91,613.05 1444.59,614.157 1446.01,615.576C1447.43,616.995 1448.54,618.671 1449.33,620.606C1450.13,622.54 1450.53,624.647 1450.53,626.925C1450.53,629.203 1450.13,631.31 1449.33,633.244C1448.54,635.179 1447.43,636.855 1446.01,638.274C1444.59,639.693 1442.91,640.8 1440.95,641.595C1439,642.39 1436.84,642.788 1434.47,642.788C1433.48,642.788 1432.44,642.68 1431.34,642.465C1430.25,642.25 1429.18,641.907 1428.15,641.434C1427.12,640.961 1426.13,640.359 1425.18,639.628C1424.24,638.897 1423.42,638.016 1422.73,636.984L1422.61,636.984L1422.61,660.585L1418.35,660.585L1418.35,611.836Z" style="fill-rule:nonzero;stroke:black;stroke-width:1px;stroke-linecap:butt;stroke-miterlimit:2;"/>
            <path d="M1474.9,626.989C1473.83,626.989 1472.48,627.043 1470.87,627.151C1469.26,627.258 1467.71,627.516 1466.23,627.924C1464.75,628.333 1463.48,628.967 1462.42,629.827C1461.37,630.686 1460.84,631.869 1460.84,633.373C1460.84,634.362 1461.05,635.211 1461.46,635.92C1461.87,636.63 1462.41,637.21 1463.1,637.661C1463.79,638.113 1464.55,638.435 1465.39,638.629C1466.23,638.822 1467.08,638.919 1467.94,638.919C1469.49,638.919 1470.83,638.661 1471.97,638.145C1473.11,637.629 1474.06,636.931 1474.84,636.049C1475.61,635.168 1476.18,634.136 1476.55,632.954C1476.91,631.772 1477.09,630.515 1477.09,629.182L1477.09,626.989L1474.9,626.989ZM1477.09,623.507L1477.09,622.734C1477.09,617.532 1474.51,614.931 1469.36,614.931C1465.83,614.931 1462.76,616.113 1460.13,618.478L1457.56,615.447C1460.39,612.524 1464.65,611.062 1470.32,611.062C1471.79,611.062 1473.19,611.277 1474.55,611.707C1475.9,612.137 1477.07,612.792 1478.06,613.674C1479.05,614.555 1479.85,615.662 1480.45,616.995C1481.05,618.327 1481.35,619.918 1481.35,621.766L1481.35,635.243C1481.35,636.404 1481.4,637.618 1481.51,638.887C1481.62,640.155 1481.74,641.197 1481.87,642.014L1477.74,642.014C1477.61,641.283 1477.51,640.488 1477.45,639.628C1477.38,638.768 1477.35,637.93 1477.35,637.113L1477.22,637.113C1475.98,639.134 1474.5,640.585 1472.81,641.466C1471.11,642.347 1469.03,642.788 1466.58,642.788C1465.25,642.788 1463.96,642.605 1462.71,642.24C1461.47,641.874 1460.36,641.315 1459.39,640.563C1458.43,639.811 1457.65,638.887 1457.07,637.79C1456.49,636.694 1456.2,635.415 1456.2,633.954C1456.2,631.503 1456.84,629.58 1458.1,628.182C1459.37,626.785 1460.96,625.743 1462.88,625.055C1464.79,624.367 1466.83,623.937 1469,623.765C1471.17,623.593 1473.16,623.507 1474.97,623.507L1477.09,623.507Z" style="fill-rule:nonzero;stroke:black;stroke-width:1px;stroke-linecap:butt;stroke-miterlimit:2;"/>
            <path d="M1506.82,615.705L1498.12,615.705L1498.12,633.502C1498.12,634.62 1498.22,635.533 1498.44,636.243C1498.65,636.952 1498.95,637.5 1499.34,637.887C1499.73,638.274 1500.19,638.543 1500.73,638.693C1501.26,638.844 1501.86,638.919 1502.5,638.919C1503.23,638.919 1503.98,638.811 1504.76,638.596C1505.53,638.381 1506.24,638.102 1506.88,637.758L1507.08,641.692C1505.49,642.422 1503.58,642.788 1501.34,642.788C1500.52,642.788 1499.67,642.68 1498.79,642.465C1497.91,642.25 1497.11,641.842 1496.37,641.24C1495.64,640.638 1495.04,639.822 1494.57,638.79C1494.1,637.758 1493.86,636.404 1493.86,634.727L1493.86,615.705L1487.48,615.705L1487.48,611.836L1493.86,611.836L1493.86,603.324L1498.12,603.324L1498.12,611.836L1506.82,611.836L1506.82,615.705Z" style="fill-rule:nonzero;stroke:black;stroke-width:1px;stroke-linecap:butt;stroke-miterlimit:2;"/>
            <path d="M1518.81,600.229C1518.81,601.132 1518.49,601.873 1517.85,602.454C1517.2,603.034 1516.49,603.324 1515.72,603.324C1514.94,603.324 1514.24,603.034 1513.59,602.454C1512.95,601.873 1512.62,601.132 1512.62,600.229C1512.62,599.326 1512.95,598.585 1513.59,598.004C1514.24,597.424 1514.94,597.134 1515.72,597.134C1516.49,597.134 1517.2,597.424 1517.85,598.004C1518.49,598.585 1518.81,599.326 1518.81,600.229ZM1517.85,642.014L1513.59,642.014L1513.59,611.836L1517.85,611.836L1517.85,642.014Z" style="fill-rule:nonzero;stroke:black;stroke-width:1px;stroke-linecap:butt;stroke-miterlimit:2;"/>
            <path d="M1545.25,626.989C1544.18,626.989 1542.83,627.043 1541.22,627.151C1539.61,627.258 1538.06,627.516 1536.58,627.924C1535.1,628.333 1533.83,628.967 1532.78,629.827C1531.72,630.686 1531.19,631.869 1531.19,633.373C1531.19,634.362 1531.4,635.211 1531.81,635.92C1532.22,636.63 1532.76,637.21 1533.45,637.661C1534.14,638.113 1534.9,638.435 1535.74,638.629C1536.58,638.822 1537.43,638.919 1538.29,638.919C1539.84,638.919 1541.18,638.661 1542.32,638.145C1543.46,637.629 1544.41,636.931 1545.19,636.049C1545.96,635.168 1546.53,634.136 1546.9,632.954C1547.26,631.772 1547.44,630.515 1547.44,629.182L1547.44,626.989L1545.25,626.989ZM1547.44,623.507L1547.44,622.734C1547.44,617.532 1544.87,614.931 1539.71,614.931C1536.18,614.931 1533.11,616.113 1530.49,618.478L1527.91,615.447C1530.74,612.524 1535,611.062 1540.67,611.062C1542.14,611.062 1543.54,611.277 1544.9,611.707C1546.25,612.137 1547.42,612.792 1548.41,613.674C1549.4,614.555 1550.2,615.662 1550.8,616.995C1551.4,618.327 1551.7,619.918 1551.7,621.766L1551.7,635.243C1551.7,636.404 1551.75,637.618 1551.86,638.887C1551.97,640.155 1552.09,641.197 1552.22,642.014L1548.09,642.014C1547.96,641.283 1547.86,640.488 1547.8,639.628C1547.74,638.768 1547.7,637.93 1547.7,637.113L1547.57,637.113C1546.33,639.134 1544.86,640.585 1543.16,641.466C1541.46,642.347 1539.38,642.788 1536.93,642.788C1535.6,642.788 1534.31,642.605 1533.07,642.24C1531.82,641.874 1530.71,641.315 1529.74,640.563C1528.78,639.811 1528,638.887 1527.42,637.79C1526.84,636.694 1526.55,635.415 1526.55,633.954C1526.55,631.503 1527.19,629.58 1528.45,628.182C1529.72,626.785 1531.31,625.743 1533.23,625.055C1535.14,624.367 1537.18,623.937 1539.35,623.765C1541.52,623.593 1543.51,623.507 1545.32,623.507L1547.44,623.507Z" style="fill-rule:nonzero;stroke:black;stroke-width:1px;stroke-linecap:butt;stroke-miterlimit:2;"/>
            <rect x="1562.53" y="593.265" width="4.256" height="48.749" style="fill-rule:nonzero;stroke:black;stroke-width:1px;stroke-linecap:butt;stroke-miterlimit:2;"/>
            <path d="M1393.46,691.408C1393.46,693.085 1393.73,694.654 1394.27,696.115C1394.8,697.577 1395.57,698.845 1396.55,699.92C1397.54,700.995 1398.74,701.844 1400.13,702.467C1401.53,703.09 1403.11,703.402 1404.87,703.402C1406.59,703.402 1408.19,703.09 1409.68,702.467C1411.16,701.844 1412.44,700.995 1413.51,699.92C1414.59,698.845 1415.43,697.577 1416.03,696.115C1416.63,694.654 1416.93,693.085 1416.93,691.408C1416.93,689.731 1416.63,688.162 1416.03,686.701C1415.43,685.239 1414.59,683.971 1413.51,682.896C1412.44,681.822 1411.16,680.973 1409.68,680.349C1408.19,679.726 1406.59,679.414 1404.87,679.414C1403.11,679.414 1401.53,679.726 1400.13,680.349C1398.74,680.973 1397.54,681.822 1396.55,682.896C1395.57,683.971 1394.8,685.239 1394.27,686.701C1393.73,688.162 1393.46,689.731 1393.46,691.408ZM1420.99,706.497L1416.74,706.497L1416.74,701.467L1416.61,701.467C1415.92,702.499 1415.1,703.38 1414.16,704.111C1413.21,704.842 1412.22,705.444 1411.19,705.917C1410.16,706.39 1409.1,706.734 1408,706.948C1406.9,707.163 1405.86,707.271 1404.87,707.271C1402.51,707.271 1400.35,706.873 1398.39,706.078C1396.44,705.283 1394.75,704.176 1393.33,702.757C1391.91,701.338 1390.81,699.662 1390.01,697.727C1389.21,695.793 1388.82,693.686 1388.82,691.408C1388.82,689.13 1389.21,687.023 1390.01,685.089C1390.81,683.154 1391.91,681.478 1393.33,680.059C1394.75,678.64 1396.44,677.533 1398.39,676.738C1400.35,675.943 1402.51,675.545 1404.87,675.545C1405.86,675.545 1406.9,675.653 1408,675.868C1409.1,676.083 1410.16,676.426 1411.19,676.899C1412.22,677.372 1413.21,677.974 1414.16,678.705C1415.1,679.436 1415.92,680.317 1416.61,681.349L1416.74,681.349L1416.74,657.748L1420.99,657.748L1420.99,706.497Z" style="fill-rule:nonzero;stroke:black;stroke-width:1px;stroke-linecap:butt;stroke-miterlimit:2;"/>
            <path d="M1453.75,689.087C1453.75,686.206 1452.89,683.874 1451.17,682.09C1449.45,680.306 1447.05,679.414 1443.95,679.414C1442.57,679.414 1441.24,679.683 1439.95,680.22C1438.66,680.758 1437.53,681.478 1436.57,682.38C1435.6,683.283 1434.83,684.315 1434.25,685.476C1433.66,686.636 1433.37,687.84 1433.37,689.087L1453.75,689.087ZM1433.25,692.569C1433.37,694.073 1433.74,695.492 1434.34,696.825C1434.94,698.157 1435.74,699.307 1436.73,700.274C1437.72,701.242 1438.86,702.005 1440.14,702.564C1441.43,703.122 1442.83,703.402 1444.34,703.402C1446.62,703.402 1448.58,702.875 1450.24,701.822C1451.89,700.769 1453.15,699.554 1454.01,698.179L1457.3,700.887C1455.49,703.165 1453.5,704.799 1451.33,705.788C1449.16,706.776 1446.83,707.271 1444.34,707.271C1442.1,707.271 1440.03,706.873 1438.11,706.078C1436.2,705.283 1434.56,704.176 1433.18,702.757C1431.81,701.338 1430.72,699.662 1429.92,697.727C1429.13,695.793 1428.73,693.686 1428.73,691.408C1428.73,689.13 1429.12,687.023 1429.89,685.089C1430.67,683.154 1431.74,681.478 1433.12,680.059C1434.49,678.64 1436.1,677.533 1437.95,676.738C1439.8,675.943 1441.8,675.545 1443.95,675.545C1446.23,675.545 1448.27,675.954 1450.08,676.77C1451.88,677.587 1453.4,678.673 1454.62,680.027C1455.85,681.381 1456.78,682.971 1457.43,684.799C1458.07,686.626 1458.39,688.571 1458.39,690.634L1458.39,692.569L1433.25,692.569Z" style="fill-rule:nonzero;stroke:black;stroke-width:1px;stroke-linecap:butt;stroke-miterlimit:2;"/>
            <path d="M1493.67,691.408C1493.67,689.731 1493.4,688.162 1492.86,686.701C1492.32,685.239 1491.56,683.971 1490.57,682.896C1489.58,681.822 1488.39,680.973 1486.99,680.349C1485.6,679.726 1484.02,679.414 1482.25,679.414C1480.49,679.414 1478.88,679.726 1477.42,680.349C1475.95,680.973 1474.69,681.822 1473.61,682.896C1472.54,683.971 1471.7,685.239 1471.1,686.701C1470.5,688.162 1470.19,689.731 1470.19,691.408C1470.19,693.085 1470.5,694.654 1471.1,696.115C1471.7,697.577 1472.54,698.845 1473.61,699.92C1474.69,700.995 1475.95,701.844 1477.42,702.467C1478.88,703.09 1480.49,703.402 1482.25,703.402C1484.02,703.402 1485.6,703.09 1486.99,702.467C1488.39,701.844 1489.58,700.995 1490.57,699.92C1491.56,698.845 1492.32,697.577 1492.86,696.115C1493.4,694.654 1493.67,693.085 1493.67,691.408ZM1466.13,676.319L1470.39,676.319L1470.39,681.349L1470.52,681.349C1471.2,680.317 1472.02,679.436 1472.97,678.705C1473.91,677.974 1474.9,677.372 1475.93,676.899C1476.96,676.426 1478.03,676.083 1479.12,675.868C1480.22,675.653 1481.26,675.545 1482.25,675.545C1484.62,675.545 1486.78,675.943 1488.73,676.738C1490.69,677.533 1492.38,678.64 1493.8,680.059C1495.21,681.478 1496.32,683.154 1497.12,685.089C1497.91,687.023 1498.31,689.13 1498.31,691.408C1498.31,693.686 1497.91,695.793 1497.12,697.727C1496.32,699.662 1495.21,701.338 1493.8,702.757C1492.38,704.176 1490.69,705.283 1488.73,706.078C1486.78,706.873 1484.62,707.271 1482.25,707.271C1481.26,707.271 1480.22,707.163 1479.12,706.948C1478.03,706.734 1476.96,706.39 1475.93,705.917C1474.9,705.444 1473.91,704.842 1472.97,704.111C1472.02,703.38 1471.2,702.499 1470.52,701.467L1470.39,701.467L1470.39,725.068L1466.13,725.068L1466.13,676.319Z" style="fill-rule:nonzero;stroke:black;stroke-width:1px;stroke-linecap:butt;stroke-miterlimit:2;"/>
            <path d="M1529,689.087C1529,686.206 1528.14,683.874 1526.42,682.09C1524.7,680.306 1522.3,679.414 1519.2,679.414C1517.83,679.414 1516.49,679.683 1515.2,680.22C1513.91,680.758 1512.79,681.478 1511.82,682.38C1510.85,683.283 1510.08,684.315 1509.5,685.476C1508.92,686.636 1508.63,687.84 1508.63,689.087L1529,689.087ZM1508.5,692.569C1508.63,694.073 1508.99,695.492 1509.59,696.825C1510.19,698.157 1510.99,699.307 1511.98,700.274C1512.97,701.242 1514.11,702.005 1515.4,702.564C1516.69,703.122 1518.08,703.402 1519.59,703.402C1521.87,703.402 1523.83,702.875 1525.49,701.822C1527.14,700.769 1528.4,699.554 1529.26,698.179L1532.55,700.887C1530.74,703.165 1528.76,704.799 1526.58,705.788C1524.41,706.776 1522.08,707.271 1519.59,707.271C1517.35,707.271 1515.28,706.873 1513.37,706.078C1511.45,705.283 1509.81,704.176 1508.43,702.757C1507.06,701.338 1505.97,699.662 1505.18,697.727C1504.38,695.793 1503.98,693.686 1503.98,691.408C1503.98,689.13 1504.37,687.023 1505.14,685.089C1505.92,683.154 1506.99,681.478 1508.37,680.059C1509.74,678.64 1511.36,677.533 1513.2,676.738C1515.05,675.943 1517.05,675.545 1519.2,675.545C1521.48,675.545 1523.52,675.954 1525.33,676.77C1527.13,677.587 1528.65,678.673 1529.87,680.027C1531.1,681.381 1532.03,682.971 1532.68,684.799C1533.32,686.626 1533.64,688.571 1533.64,690.634L1533.64,692.569L1508.5,692.569Z" style="fill-rule:nonzero;stroke:black;stroke-width:1px;stroke-linecap:butt;stroke-miterlimit:2;"/>
            <path d="M1545.45,676.319C1545.53,677.136 1545.59,677.942 1545.61,678.737C1545.63,679.532 1545.64,680.338 1545.64,681.155L1545.77,681.155C1546.24,680.338 1546.84,679.586 1547.57,678.898C1548.31,678.21 1549.12,677.619 1550.02,677.125C1550.93,676.631 1551.88,676.244 1552.89,675.964C1553.9,675.685 1554.9,675.545 1555.89,675.545C1559.76,675.545 1562.62,676.566 1564.47,678.608C1566.32,680.65 1567.24,683.563 1567.24,687.346L1567.24,706.497L1562.99,706.497L1562.99,689.796C1562.99,686.443 1562.4,683.874 1561.24,682.09C1560.08,680.306 1557.93,679.414 1554.8,679.414C1554.58,679.414 1553.98,679.5 1552.99,679.672C1552,679.844 1550.96,680.317 1549.86,681.091C1548.77,681.865 1547.79,683.025 1546.93,684.573C1546.07,686.12 1545.64,688.27 1545.64,691.021L1545.64,706.497L1541.38,706.497L1541.38,682.961C1541.38,682.144 1541.35,681.112 1541.29,679.866C1541.22,678.619 1541.15,677.437 1541.06,676.319L1545.45,676.319Z" style="fill-rule:nonzero;stroke:black;stroke-width:1px;stroke-linecap:butt;stroke-miterlimit:2;"/>
            <path d="M1579.82,691.408C1579.82,693.085 1580.08,694.654 1580.62,696.115C1581.16,697.577 1581.92,698.845 1582.91,699.92C1583.9,700.995 1585.09,701.844 1586.49,702.467C1587.89,703.09 1589.47,703.402 1591.23,703.402C1592.95,703.402 1594.55,703.09 1596.03,702.467C1597.52,701.844 1598.8,700.995 1599.87,699.92C1600.94,698.845 1601.78,697.577 1602.38,696.115C1602.99,694.654 1603.29,693.085 1603.29,691.408C1603.29,689.731 1602.99,688.162 1602.38,686.701C1601.78,685.239 1600.94,683.971 1599.87,682.896C1598.8,681.822 1597.52,680.973 1596.03,680.349C1594.55,679.726 1592.95,679.414 1591.23,679.414C1589.47,679.414 1587.89,679.726 1586.49,680.349C1585.09,680.973 1583.9,681.822 1582.91,682.896C1581.92,683.971 1581.16,685.239 1580.62,686.701C1580.08,688.162 1579.82,689.731 1579.82,691.408ZM1607.35,706.497L1603.09,706.497L1603.09,701.467L1602.97,701.467C1602.28,702.499 1601.46,703.38 1600.51,704.111C1599.57,704.842 1598.58,705.444 1597.55,705.917C1596.52,706.39 1595.45,706.734 1594.36,706.948C1593.26,707.163 1592.22,707.271 1591.23,707.271C1588.86,707.271 1586.7,706.873 1584.75,706.078C1582.79,705.283 1581.11,704.176 1579.69,702.757C1578.27,701.338 1577.16,699.662 1576.37,697.727C1575.57,695.793 1575.17,693.686 1575.17,691.408C1575.17,689.13 1575.57,687.023 1576.37,685.089C1577.16,683.154 1578.27,681.478 1579.69,680.059C1581.11,678.64 1582.79,677.533 1584.75,676.738C1586.7,675.943 1588.86,675.545 1591.23,675.545C1592.22,675.545 1593.26,675.653 1594.36,675.868C1595.45,676.083 1596.52,676.426 1597.55,676.899C1598.58,677.372 1599.57,677.974 1600.51,678.705C1601.46,679.436 1602.28,680.317 1602.97,681.349L1603.09,681.349L1603.09,657.748L1607.35,657.748L1607.35,706.497Z" style="fill-rule:nonzero;stroke:black;stroke-width:1px;stroke-linecap:butt;stroke-miterlimit:2;"/>
            <path d="M1640.11,689.087C1640.11,686.206 1639.25,683.874 1637.53,682.09C1635.81,680.306 1633.4,679.414 1630.31,679.414C1628.93,679.414 1627.6,679.683 1626.31,680.22C1625.02,680.758 1623.89,681.478 1622.92,682.38C1621.95,683.283 1621.18,684.315 1620.6,685.476C1620.02,686.636 1619.73,687.84 1619.73,689.087L1640.11,689.087ZM1619.6,692.569C1619.73,694.073 1620.1,695.492 1620.7,696.825C1621.3,698.157 1622.1,699.307 1623.08,700.274C1624.07,701.242 1625.21,702.005 1626.5,702.564C1627.79,703.122 1629.19,703.402 1630.69,703.402C1632.97,703.402 1634.94,702.875 1636.59,701.822C1638.25,700.769 1639.51,699.554 1640.37,698.179L1643.65,700.887C1641.85,703.165 1639.86,704.799 1637.69,705.788C1635.52,706.776 1633.19,707.271 1630.69,707.271C1628.46,707.271 1626.38,706.873 1624.47,706.078C1622.56,705.283 1620.91,704.176 1619.54,702.757C1618.16,701.338 1617.08,699.662 1616.28,697.727C1615.49,695.793 1615.09,693.686 1615.09,691.408C1615.09,689.13 1615.47,687.023 1616.25,685.089C1617.02,683.154 1618.1,681.478 1619.47,680.059C1620.85,678.64 1622.46,677.533 1624.31,676.738C1626.16,675.943 1628.16,675.545 1630.31,675.545C1632.58,675.545 1634.63,675.954 1636.43,676.77C1638.24,677.587 1639.75,678.673 1640.98,680.027C1642.2,681.381 1643.14,682.971 1643.78,684.799C1644.43,686.626 1644.75,688.571 1644.75,690.634L1644.75,692.569L1619.6,692.569Z" style="fill-rule:nonzero;stroke:black;stroke-width:1px;stroke-linecap:butt;stroke-miterlimit:2;"/>
            <path d="M1656.55,676.319C1656.64,677.136 1656.69,677.942 1656.71,678.737C1656.73,679.532 1656.74,680.338 1656.74,681.155L1656.87,681.155C1657.35,680.338 1657.95,679.586 1658.68,678.898C1659.41,678.21 1660.23,677.619 1661.13,677.125C1662.03,676.631 1662.99,676.244 1664,675.964C1665.01,675.685 1666.01,675.545 1667,675.545C1670.87,675.545 1673.72,676.566 1675.57,678.608C1677.42,680.65 1678.35,683.563 1678.35,687.346L1678.35,706.497L1674.09,706.497L1674.09,689.796C1674.09,686.443 1673.51,683.874 1672.35,682.09C1671.19,680.306 1669.04,679.414 1665.9,679.414C1665.68,679.414 1665.08,679.5 1664.1,679.672C1663.11,679.844 1662.06,680.317 1660.97,681.091C1659.87,681.865 1658.89,683.025 1658.03,684.573C1657.17,686.12 1656.74,688.27 1656.74,691.021L1656.74,706.497L1652.49,706.497L1652.49,682.961C1652.49,682.144 1652.45,681.112 1652.39,679.866C1652.33,678.619 1652.25,677.437 1652.16,676.319L1656.55,676.319Z" style="fill-rule:nonzero;stroke:black;stroke-width:1px;stroke-linecap:butt;stroke-miterlimit:2;"/>
            <path d="M1710.33,683.412C1709.6,682.294 1708.58,681.349 1707.27,680.575C1705.95,679.801 1704.46,679.414 1702.78,679.414C1701.02,679.371 1699.44,679.651 1698.05,680.252C1696.65,680.854 1695.45,681.693 1694.47,682.767C1693.48,683.842 1692.73,685.121 1692.21,686.604C1691.69,688.087 1691.43,689.688 1691.43,691.408C1691.43,693.128 1691.69,694.729 1692.21,696.212C1692.73,697.695 1693.48,698.974 1694.47,700.049C1695.45,701.123 1696.65,701.962 1698.05,702.564C1699.44,703.165 1701.02,703.445 1702.78,703.402C1704.46,703.402 1705.95,703.015 1707.27,702.241C1708.58,701.467 1709.6,700.522 1710.33,699.404L1713.81,702.048C1712.31,703.81 1710.61,705.111 1708.72,705.949C1706.83,706.787 1704.85,707.228 1702.78,707.271C1700.33,707.314 1698.12,706.938 1696.14,706.142C1694.16,705.347 1692.48,704.24 1691.08,702.822C1689.68,701.403 1688.62,699.716 1687.89,697.76C1687.16,695.804 1686.79,693.686 1686.79,691.408C1686.79,689.13 1687.16,687.012 1687.89,685.056C1688.62,683.1 1689.68,681.413 1691.08,679.995C1692.48,678.576 1694.16,677.469 1696.14,676.674C1698.12,675.878 1700.33,675.502 1702.78,675.545C1704.85,675.588 1706.83,676.029 1708.72,676.867C1710.61,677.705 1712.31,679.006 1713.81,680.768L1710.33,683.412Z" style="fill-rule:nonzero;stroke:black;stroke-width:1px;stroke-linecap:butt;stroke-miterlimit:2;"/>
            <path d="M1742.89,689.087C1742.89,686.206 1742.03,683.874 1740.31,682.09C1738.59,680.306 1736.19,679.414 1733.09,679.414C1731.72,679.414 1730.38,679.683 1729.09,680.22C1727.8,680.758 1726.67,681.478 1725.71,682.38C1724.74,683.283 1723.97,684.315 1723.39,685.476C1722.81,686.636 1722.52,687.84 1722.52,689.087L1742.89,689.087ZM1722.39,692.569C1722.52,694.073 1722.88,695.492 1723.48,696.825C1724.09,698.157 1724.88,699.307 1725.87,700.274C1726.86,701.242 1728,702.005 1729.29,702.564C1730.58,703.122 1731.97,703.402 1733.48,703.402C1735.76,703.402 1737.72,702.875 1739.38,701.822C1741.03,700.769 1742.29,699.554 1743.15,698.179L1746.44,700.887C1744.63,703.165 1742.65,704.799 1740.48,705.788C1738.3,706.776 1735.97,707.271 1733.48,707.271C1731.24,707.271 1729.17,706.873 1727.26,706.078C1725.34,705.283 1723.7,704.176 1722.32,702.757C1720.95,701.338 1719.86,699.662 1719.07,697.727C1718.27,695.793 1717.87,693.686 1717.87,691.408C1717.87,689.13 1718.26,687.023 1719.03,685.089C1719.81,683.154 1720.88,681.478 1722.26,680.059C1723.63,678.64 1725.25,677.533 1727.1,676.738C1728.94,675.943 1730.94,675.545 1733.09,675.545C1735.37,675.545 1737.41,675.954 1739.22,676.77C1741.02,677.587 1742.54,678.673 1743.76,680.027C1744.99,681.381 1745.92,682.971 1746.57,684.799C1747.21,686.626 1747.54,688.571 1747.54,690.634L1747.54,692.569L1722.39,692.569Z" style="fill-rule:nonzero;stroke:black;stroke-width:1px;stroke-linecap:butt;stroke-miterlimit:2;"/>
        </g>
    </g>
</svg>
