<svg width="257" height="183" xmlns="http://www.w3.org/2000/svg" xmlns:xlink="http://www.w3.org/1999/xlink" xml:space="preserve" overflow="hidden"><g transform="translate(-482 -95)"><path d="M517.479 433.554C517.479 473.445 462.191 505.783 393.989 505.783 325.787 505.783 270.499 473.445 270.499 433.554 270.499 393.664 325.787 361.326 393.989 361.326 462.191 361.326 517.479 393.664 517.479 433.554Z" stroke="#3D4AAB" stroke-width="3.65768" stroke-linecap="round" stroke-linejoin="round" stroke-miterlimit="2.12209" fill="none" fill-rule="evenodd" transform="matrix(1.0024 0 0 1 218.391 -264.497)"/><path d="M8.39319 0C8.37272-0.266126 8.35225-0.51178 8.35225-0.777906 8.33178-1.02356 8.33178-1.26921 8.33178-1.53534L8.29084-1.53534C8.14754-1.26921 7.94283-1.04403 7.71765-0.818848 7.49246-0.593665 7.22634-0.409424 6.93974-0.266126 6.65314-0.102356 6.34607 0.0204712 6.03901 0.122827 5.71147 0.204712 5.38393 0.245654 5.07686 0.245654 3.84859 0.245654 2.94785-0.0818848 2.35419-0.736963 1.76052-1.37157 1.47393-2.29278 1.47393-3.50058L1.47393-9.58052 2.82503-9.58052 2.82503-4.27848C2.82503-3.74623 2.86597-3.27539 2.94785-2.86597 3.02974-2.45654 3.17304-2.10853 3.37775-1.84241 3.56199-1.55581 3.82812-1.3511 4.17613-1.2078 4.50367-1.04403 4.91309-0.982618 5.42487-0.982618 5.48628-0.982618 5.691-1.00309 5.99806-1.0645 6.30513-1.12592 6.65314-1.26921 7.00115-1.51487 7.34916-1.76052 7.65623-2.12901 7.92236-2.62031 8.18848-3.11162 8.33178-3.78717 8.33178-4.66744L8.33178-9.58052 9.68288-9.58052 9.68288-2.10853C9.68288-1.84241 9.70335-1.51487 9.72382-1.12592 9.74429-0.736963 9.76477-0.348011 9.78524 0L8.39319 0Z" stroke="#311FFF" stroke-width="0.204712" stroke-linejoin="round" stroke-miterlimit="2" fill="#1F2BFF" transform="matrix(1.0024 0 0 1 509.243 158.442)"/><path d="M2.76361-9.58052C2.78408-9.3144 2.80456-9.06874 2.82503-8.82309 2.82503-8.55696 2.82503-8.31131 2.82503-8.04518L2.86597-8.04518C3.00927-8.31131 3.21398-8.53649 3.43916-8.76168 3.66435-8.98686 3.93047-9.1711 4.21707-9.33487 4.50367-9.47817 4.81073-9.601 5.13827-9.70335 5.44534-9.78524 5.77288-9.82618 6.07995-9.82618 7.30822-9.82618 8.20895-9.49864 8.80262-8.86403 9.39628-8.20895 9.68288-7.28775 9.68288-6.07995L9.68288 0 8.33178 0 8.33178-5.30204C8.33178-6.36655 8.14754-7.18539 7.77906-7.75859 7.41058-8.31131 6.73503-8.59791 5.73194-8.59791 5.67052-8.59791 5.46581-8.57744 5.15874-8.51602 4.85168-8.45461 4.52414-8.31131 4.17613-8.06566 3.82812-7.82 3.50058-7.45152 3.23445-6.96021 2.96832-6.4689 2.82503-5.79335 2.82503-4.91309L2.82503 0 1.47393 0 1.47393-7.47199C1.47393-7.73812 1.47393-8.06566 1.45346-8.45461 1.43298-8.84356 1.39204-9.23251 1.37157-9.58052L2.76361-9.58052Z" stroke="#311FFF" stroke-width="0.204712" stroke-linejoin="round" stroke-miterlimit="2" fill="#1F2BFF" transform="matrix(1.0024 0 0 1 520.653 158.442)"/><path d="M2.29278-4.79026C2.29278-4.25801 2.37466-3.7667 2.5589-3.29586 2.72267-2.82503 2.96832-2.43607 3.27539-2.08806 3.58246-1.74005 3.97141-1.47393 4.42178-1.28969 4.85168-1.08497 5.36346-0.982618 5.91618-0.982618 6.4689-0.982618 6.98068-1.08497 7.45152-1.28969 7.92236-1.47393 8.31131-1.74005 8.65932-2.08806 9.00733-2.43607 9.27346-2.82503 9.4577-3.29586 9.64194-3.7667 9.74429-4.25801 9.74429-4.79026 9.74429-5.32251 9.64194-5.81382 9.4577-6.28466 9.27346-6.7555 9.00733-7.14445 8.65932-7.49246 8.31131-7.84047 7.92236-8.1066 7.45152-8.31131 6.98068-8.49555 6.4689-8.59791 5.91618-8.59791 5.36346-8.59791 4.85168-8.49555 4.42178-8.31131 3.97141-8.1066 3.58246-7.84047 3.27539-7.49246 2.96832-7.14445 2.72267-6.7555 2.5589-6.28466 2.37466-5.81382 2.29278-5.32251 2.29278-4.79026ZM11.034 0 9.68288 0 9.68288-1.59675 9.64194-1.59675C9.41676-1.26921 9.1711-0.982618 8.86403-0.757435 8.55696-0.532251 8.2499-0.327539 7.92236-0.184241 7.59482-0.0409424 7.26728 0.0818848 6.91927 0.143298 6.57126 0.204712 6.22325 0.245654 5.91618 0.245654 5.15874 0.245654 4.48319 0.122827 3.86906-0.143298 3.23445-0.388953 2.7022-0.736963 2.25183-1.18733 1.80147-1.6377 1.45346-2.16995 1.2078-2.78408 0.941675-3.39822 0.818848-4.07377 0.818848-4.79026 0.818848-5.50675 0.941675-6.1823 1.2078-6.79644 1.45346-7.41058 1.80147-7.94283 2.25183-8.39319 2.7022-8.84356 3.23445-9.19157 3.86906-9.4577 4.48319-9.70335 5.15874-9.82618 5.91618-9.82618 6.22325-9.82618 6.57126-9.78524 6.91927-9.72382 7.26728-9.66241 7.59482-9.53958 7.92236-9.39628 8.2499-9.25299 8.55696-9.04827 8.86403-8.82309 9.1711-8.59791 9.41676-8.31131 9.64194-7.98377L9.68288-7.98377 9.68288-15.4762 11.034-15.4762 11.034 0Z" stroke="#311FFF" stroke-width="0.204712" stroke-linejoin="round" stroke-miterlimit="2" fill="#1F2BFF" transform="matrix(1.0024 0 0 1 532.062 158.442)"/><path d="M8.92545-5.52723C8.92545-6.44843 8.65932-7.18539 8.1066-7.75859 7.55387-8.31131 6.79644-8.59791 5.81382-8.59791 5.38393-8.59791 4.95403-8.51602 4.54461-8.35225 4.13518-8.16801 3.78717-7.94283 3.48011-7.65623 3.17304-7.36963 2.90691-7.0421 2.74314-6.67361 2.5589-6.30513 2.45654-5.91618 2.45654-5.52723L8.92545-5.52723ZM2.4156-4.42178C2.45654-3.95094 2.57937-3.50058 2.76361-3.07068 2.94785-2.64079 3.21398-2.29278 3.52105-1.98571 3.82812-1.67864 4.1966-1.43298 4.60602-1.24874 5.01545-1.0645 5.46581-0.982618 5.93665-0.982618 6.65314-0.982618 7.28775-1.14639 7.82-1.4944 8.33178-1.82194 8.74121-2.21089 9.00733-2.64079L10.0514-1.78099C9.47817-1.0645 8.84356-0.532251 8.16801-0.225183 7.47199 0.0818848 6.73503 0.245654 5.93665 0.245654 5.22016 0.245654 4.56508 0.122827 3.97141-0.143298 3.35728-0.388953 2.82503-0.736963 2.39513-1.18733 1.96524-1.6377 1.61723-2.16995 1.37157-2.78408 1.10545-3.39822 0.982618-4.07377 0.982618-4.79026 0.982618-5.50675 1.10545-6.1823 1.3511-6.79644 1.59675-7.41058 1.94476-7.94283 2.37466-8.39319 2.80456-8.84356 3.31634-9.19157 3.91-9.4577 4.50367-9.70335 5.13827-9.82618 5.81382-9.82618 6.53031-9.82618 7.18539-9.70335 7.75859-9.43723 8.33178-9.1711 8.82309-8.84356 9.21204-8.41367 9.58052-7.98377 9.88759-7.47199 10.0923-6.8988 10.297-6.30513 10.3994-5.691 10.3994-5.03592L10.3994-4.42178 2.4156-4.42178Z" stroke="#311FFF" stroke-width="0.204712" stroke-linejoin="round" stroke-miterlimit="2" fill="#1F2BFF" transform="matrix(1.0024 0 0 1 544.6 158.442)"/><path d="M1.61723-6.59173C1.61723-7.02162 1.61723-7.45152 1.59675-7.88141 1.57628-8.31131 1.55581-8.8845 1.53534-9.58052L2.86597-9.58052 2.86597-7.79953 2.90691-7.79953C3.00927-8.06566 3.13209-8.31131 3.31634-8.55696 3.50058-8.78215 3.70529-9.00733 3.97141-9.19157 4.21707-9.37581 4.50367-9.53958 4.85168-9.66241 5.17921-9.76477 5.5477-9.82618 5.97759-9.82618 6.36655-9.82618 6.69408-9.78524 6.98068-9.70335L6.71456-8.37272C6.53031-8.43414 6.28466-8.47508 5.93665-8.47508 5.42487-8.47508 4.9745-8.37272 4.60602-8.18848 4.23754-7.98377 3.93047-7.73812 3.68482-7.43105 3.43916-7.10351 3.25492-6.77597 3.15257-6.42796 3.02974-6.07995 2.96832-5.73194 2.96832-5.4044L2.96832 0 1.61723 0 1.61723-6.59173Z" stroke="#311FFF" stroke-width="0.204712" stroke-linejoin="round" stroke-miterlimit="2" fill="#1F2BFF" transform="matrix(1.0024 0 0 1 556.009 158.442)"/><path d="M1.78099-15.4762 3.13209-15.4762 3.13209 3.61173e-07 1.78099 3.61173e-07Z" stroke="#311FFF" stroke-width="0.204712" stroke-linejoin="round" stroke-miterlimit="2" fill="#1F2BFF" transform="matrix(1.0024 0 0 1 562.823 158.442)"/><path d="M5.03592-1.65817 7.9633-9.58052 9.601-9.58052 4.81073 2.49749C4.52414 3.23445 4.15565 3.82812 3.72576 4.25801 3.27539 4.68791 2.64079 4.91309 1.80147 4.91309 1.59675 4.91309 1.39204 4.91309 1.18733 4.89262 0.962147 4.87215 0.757435 4.8312 0.552723 4.76979L0.696021 3.45963C0.982618 3.60293 1.33063 3.68482 1.71958 3.68482 2.19042 3.68482 2.57937 3.54152 2.8455 3.23445 3.11162 2.92738 3.35728 2.51796 3.56199 1.96524L4.25801 0.122827 0.327539-9.58052 2.02665-9.58052 5.03592-1.65817Z" stroke="#311FFF" stroke-width="0.204712" stroke-linejoin="round" stroke-miterlimit="2" fill="#1F2BFF" transform="matrix(1.0024 0 0 1 567.747 158.442)"/><path d="M3.43916-13.2653C3.43916-12.9787 3.33681-12.7536 3.13209-12.5693 2.92738-12.3646 2.7022-12.2827 2.45654-12.2827 2.21089-12.2827 1.98571-12.3646 1.78099-12.5693 1.57628-12.7536 1.47393-12.9787 1.47393-13.2653 1.47393-13.5519 1.57628-13.7976 1.78099-13.9818 1.98571-14.1661 2.21089-14.248 2.45654-14.248 2.7022-14.248 2.92738-14.1661 3.13209-13.9818 3.33681-13.7976 3.43916-13.5519 3.43916-13.2653ZM3.13209 0 1.78099 0 1.78099-9.58052 3.13209-9.58052 3.13209 0Z" stroke="#311FFF" stroke-width="0.204712" stroke-linejoin="round" stroke-miterlimit="2" fill="#1F2BFF" transform="matrix(1.0024 0 0 1 577.639 158.442)"/><path d="M2.76361-9.58052C2.78408-9.3144 2.80456-9.06874 2.82503-8.82309 2.82503-8.55696 2.82503-8.31131 2.82503-8.04518L2.86597-8.04518C3.00927-8.31131 3.21398-8.53649 3.43916-8.76168 3.66435-8.98686 3.93047-9.1711 4.21707-9.33487 4.50367-9.47817 4.81073-9.601 5.13827-9.70335 5.44534-9.78524 5.77288-9.82618 6.07995-9.82618 7.30822-9.82618 8.20895-9.49864 8.80262-8.86403 9.39628-8.20895 9.68288-7.28775 9.68288-6.07995L9.68288 0 8.33178 0 8.33178-5.30204C8.33178-6.36655 8.14754-7.18539 7.77906-7.75859 7.41058-8.31131 6.73503-8.59791 5.73194-8.59791 5.67052-8.59791 5.46581-8.57744 5.15874-8.51602 4.85168-8.45461 4.52414-8.31131 4.17613-8.06566 3.82812-7.82 3.50058-7.45152 3.23445-6.96021 2.96832-6.4689 2.82503-5.79335 2.82503-4.91309L2.82503 0 1.47393 0 1.47393-7.47199C1.47393-7.73812 1.47393-8.06566 1.45346-8.45461 1.43298-8.84356 1.39204-9.23251 1.37157-9.58052L2.76361-9.58052Z" stroke="#311FFF" stroke-width="0.204712" stroke-linejoin="round" stroke-miterlimit="2" fill="#1F2BFF" transform="matrix(1.0024 0 0 1 582.563 158.442)"/><path d="M2.45654-4.91309C2.45654-4.40131 2.5589-3.93047 2.74314-3.50058 2.90691-3.05021 3.17304-2.66126 3.50058-2.33372 3.80764-1.98571 4.1966-1.71958 4.62649-1.53534 5.05639-1.33063 5.50675-1.22827 6.01853-1.22827 6.50984-1.22827 6.98068-1.31016 7.43105-1.4944 7.86094-1.67864 8.2499-1.92429 8.59791-2.25183 8.94592-2.5589 9.21204-2.94785 9.39628-3.39822 9.58052-3.84859 9.66241-4.36037 9.64194-4.91309 9.64194-5.42487 9.56005-5.89571 9.39628-6.34607 9.23251-6.77597 8.98686-7.16492 8.67979-7.51293 8.37272-7.84047 7.98377-8.1066 7.5334-8.31131 7.08304-8.49555 6.57126-8.59791 6.01853-8.59791 5.50675-8.59791 5.05639-8.49555 4.62649-8.31131 4.1966-8.1066 3.80764-7.84047 3.50058-7.51293 3.17304-7.16492 2.90691-6.77597 2.74314-6.34607 2.5589-5.89571 2.45654-5.42487 2.45654-4.91309ZM2.21089 1.92429C2.59984 2.45654 3.13209 2.88644 3.7667 3.21398 4.40131 3.52105 5.09733 3.68482 5.87524 3.68482 6.55079 3.68482 7.14445 3.58246 7.61529 3.39822 8.08613 3.19351 8.47508 2.92738 8.78215 2.57937 9.06874 2.23136 9.27346 1.84241 9.41676 1.39204 9.53958 0.921204 9.601 0.429895 9.601-0.0818848L9.601-1.80147 9.56005-1.80147C9.13016-1.14639 8.59791-0.67555 7.9633-0.409424 7.32869-0.143298 6.67361 0 5.97759 0 5.28157 0 4.62649-0.122827 4.03283-0.368482 3.41869-0.614136 2.88644-0.962147 2.43607-1.39204 1.98571-1.82194 1.6377-2.33372 1.37157-2.92738 1.10545-3.52105 0.982618-4.17613 0.982618-4.87215 0.982618-5.56817 1.10545-6.22325 1.3511-6.81691 1.59675-7.41058 1.94476-7.94283 2.37466-8.39319 2.78408-8.84356 3.31634-9.19157 3.91-9.4577 4.50367-9.70335 5.13827-9.82618 5.85477-9.82618 6.14136-9.82618 6.44843-9.80571 6.77597-9.74429 7.08304-9.68288 7.41058-9.601 7.73812-9.4577 8.04518-9.3144 8.37272-9.13016 8.67979-8.90497 8.98686-8.65932 9.29393-8.35225 9.56005-7.98377L9.601-7.98377 9.601-9.58052 10.9521-9.58052 10.9521-0.0818848C10.9521 0.429895 10.8907 0.982618 10.7679 1.57628 10.6246 2.16995 10.3789 2.7022 10.0104 3.19351 9.62147 3.68482 9.10969 4.09424 8.43414 4.42178 7.75859 4.74932 6.8988 4.91309 5.81382 4.91309 4.85168 4.91309 4.01236 4.74932 3.25492 4.44225 2.49749 4.13518 1.82194 3.64387 1.2078 2.9888L2.21089 1.92429Z" stroke="#311FFF" stroke-width="0.204712" stroke-linejoin="round" stroke-miterlimit="2" fill="#1F2BFF" transform="matrix(1.0024 0 0 1 593.973 158.442)"/><path d="M10.2151-4.79026C10.2151-5.32251 10.1332-5.81382 9.96948-6.28466 9.78524-6.7555 9.53958-7.14445 9.23251-7.49246 8.92545-7.84047 8.53649-8.1066 8.1066-8.31131 7.65623-8.49555 7.14445-8.59791 6.59173-8.59791 6.03901-8.59791 5.52723-8.49555 5.05639-8.31131 4.58555-8.1066 4.1966-7.84047 3.84859-7.49246 3.50058-7.14445 3.23445-6.7555 3.05021-6.28466 2.86597-5.81382 2.76361-5.32251 2.76361-4.79026 2.76361-4.25801 2.86597-3.7667 3.05021-3.29586 3.23445-2.82503 3.50058-2.43607 3.84859-2.08806 4.1966-1.74005 4.58555-1.47393 5.05639-1.28969 5.52723-1.08497 6.03901-0.982618 6.59173-0.982618 7.14445-0.982618 7.65623-1.08497 8.1066-1.28969 8.53649-1.47393 8.92545-1.74005 9.23251-2.08806 9.53958-2.43607 9.78524-2.82503 9.96948-3.29586 10.1332-3.7667 10.2151-4.25801 10.2151-4.79026ZM1.47393-9.58052 2.82503-9.58052 2.82503-7.98377 2.86597-7.98377C3.09115-8.31131 3.33681-8.59791 3.64387-8.82309 3.95094-9.04827 4.25801-9.25299 4.58555-9.39628 4.91309-9.53958 5.2611-9.66241 5.60911-9.72382 5.95712-9.78524 6.28466-9.82618 6.59173-9.82618 7.34916-9.82618 8.02471-9.70335 8.65932-9.4577 9.27346-9.19157 9.80571-8.84356 10.2561-8.39319 10.7064-7.94283 11.0545-7.41058 11.3206-6.79644 11.5662-6.1823 11.6891-5.50675 11.6891-4.79026 11.6891-4.07377 11.5662-3.39822 11.3206-2.78408 11.0545-2.16995 10.7064-1.6377 10.2561-1.18733 9.80571-0.736963 9.27346-0.388953 8.65932-0.143298 8.02471 0.122827 7.34916 0.245654 6.59173 0.245654 6.28466 0.245654 5.95712 0.204712 5.60911 0.143298 5.2611 0.0818848 4.91309-0.0409424 4.58555-0.184241 4.25801-0.327539 3.95094-0.532251 3.64387-0.757435 3.33681-0.982618 3.09115-1.26921 2.86597-1.59675L2.82503-1.59675 2.82503 5.89571 1.47393 5.89571 1.47393-9.58052Z" stroke="#311FFF" stroke-width="0.204712" stroke-linejoin="round" stroke-miterlimit="2" fill="#1F2BFF" transform="matrix(1.0024 0 0 1 612.216 158.442)"/><path d="M1.61723-6.59173C1.61723-7.02162 1.61723-7.45152 1.59675-7.88141 1.57628-8.31131 1.55581-8.8845 1.53534-9.58052L2.86597-9.58052 2.86597-7.79953 2.90691-7.79953C3.00927-8.06566 3.13209-8.31131 3.31634-8.55696 3.50058-8.78215 3.70529-9.00733 3.97141-9.19157 4.21707-9.37581 4.50367-9.53958 4.85168-9.66241 5.17921-9.76477 5.5477-9.82618 5.97759-9.82618 6.36655-9.82618 6.69408-9.78524 6.98068-9.70335L6.71456-8.37272C6.53031-8.43414 6.28466-8.47508 5.93665-8.47508 5.42487-8.47508 4.9745-8.37272 4.60602-8.18848 4.23754-7.98377 3.93047-7.73812 3.68482-7.43105 3.43916-7.10351 3.25492-6.77597 3.15257-6.42796 3.02974-6.07995 2.96832-5.73194 2.96832-5.4044L2.96832 0 1.61723 0 1.61723-6.59173Z" stroke="#311FFF" stroke-width="0.204712" stroke-linejoin="round" stroke-miterlimit="2" fill="#1F2BFF" transform="matrix(1.0024 0 0 1 624.754 158.442)"/><path d="M3.43916-13.2653C3.43916-12.9787 3.33681-12.7536 3.13209-12.5693 2.92738-12.3646 2.7022-12.2827 2.45654-12.2827 2.21089-12.2827 1.98571-12.3646 1.78099-12.5693 1.57628-12.7536 1.47393-12.9787 1.47393-13.2653 1.47393-13.5519 1.57628-13.7976 1.78099-13.9818 1.98571-14.1661 2.21089-14.248 2.45654-14.248 2.7022-14.248 2.92738-14.1661 3.13209-13.9818 3.33681-13.7976 3.43916-13.5519 3.43916-13.2653ZM3.13209 0 1.78099 0 1.78099-9.58052 3.13209-9.58052 3.13209 0Z" stroke="#311FFF" stroke-width="0.204712" stroke-linejoin="round" stroke-miterlimit="2" fill="#1F2BFF" transform="matrix(1.0024 0 0 1 631.565 158.442)"/><path d="M2.76361-9.58052C2.78408-9.3144 2.80456-9.06874 2.82503-8.82309 2.82503-8.55696 2.82503-8.31131 2.82503-8.04518L2.86597-8.04518C3.00927-8.31131 3.21398-8.53649 3.43916-8.76168 3.66435-8.98686 3.93047-9.1711 4.21707-9.33487 4.50367-9.47817 4.81073-9.601 5.13827-9.70335 5.44534-9.78524 5.77288-9.82618 6.07995-9.82618 7.30822-9.82618 8.20895-9.49864 8.80262-8.86403 9.39628-8.20895 9.68288-7.28775 9.68288-6.07995L9.68288 0 8.33178 0 8.33178-5.30204C8.33178-6.36655 8.14754-7.18539 7.77906-7.75859 7.41058-8.31131 6.73503-8.59791 5.73194-8.59791 5.67052-8.59791 5.46581-8.57744 5.15874-8.51602 4.85168-8.45461 4.52414-8.31131 4.17613-8.06566 3.82812-7.82 3.50058-7.45152 3.23445-6.96021 2.96832-6.4689 2.82503-5.79335 2.82503-4.91309L2.82503 0 1.47393 0 1.47393-7.47199C1.47393-7.73812 1.47393-8.06566 1.45346-8.45461 1.43298-8.84356 1.39204-9.23251 1.37157-9.58052L2.76361-9.58052Z" stroke="#311FFF" stroke-width="0.204712" stroke-linejoin="round" stroke-miterlimit="2" fill="#1F2BFF" transform="matrix(1.0024 0 0 1 636.489 158.442)"/><path d="M8.45461-7.32869C8.22943-7.6767 7.90189-7.98377 7.49246-8.22943 7.06257-8.47508 6.59173-8.59791 6.05948-8.59791 5.50675-8.61838 4.99497-8.51602 4.56508-8.33178 4.11471-8.14754 3.72576-7.88141 3.41869-7.5334 3.11162-7.18539 2.86597-6.79644 2.7022-6.3256 2.53843-5.85477 2.45654-5.34299 2.45654-4.79026 2.45654-4.23754 2.53843-3.74623 2.7022-3.27539 2.86597-2.78408 3.11162-2.39513 3.41869-2.04712 3.72576-1.69911 4.11471-1.43298 4.56508-1.24874 4.99497-1.0645 5.50675-0.962147 6.05948-0.982618 6.59173-0.982618 7.06257-1.10545 7.49246-1.3511 7.90189-1.59675 8.22943-1.90382 8.45461-2.25183L9.56005-1.41251C9.08922-0.859791 8.53649-0.450367 7.94283-0.184241 7.34916 0.102356 6.71456 0.225183 6.05948 0.245654 5.28157 0.266126 4.58555 0.143298 3.95094-0.122827 3.31634-0.368482 2.78408-0.716492 2.35419-1.16686 1.90382-1.61723 1.55581-2.14948 1.33063-2.78408 1.10545-3.39822 0.982618-4.07377 0.982618-4.79026 0.982618-5.50675 1.10545-6.1823 1.33063-6.81691 1.55581-7.43105 1.90382-7.9633 2.35419-8.41367 2.78408-8.86403 3.31634-9.21204 3.95094-9.47817 4.58555-9.72382 5.28157-9.84665 6.05948-9.82618 6.71456-9.80571 7.34916-9.66241 7.94283-9.41676 8.53649-9.15063 9.08922-8.72073 9.56005-8.16801L8.45461-7.32869Z" stroke="#311FFF" stroke-width="0.204712" stroke-linejoin="round" stroke-miterlimit="2" fill="#1F2BFF" transform="matrix(1.0024 0 0 1 647.901 158.442)"/><path d="M3.43916-13.2653C3.43916-12.9787 3.33681-12.7536 3.13209-12.5693 2.92738-12.3646 2.7022-12.2827 2.45654-12.2827 2.21089-12.2827 1.98571-12.3646 1.78099-12.5693 1.57628-12.7536 1.47393-12.9787 1.47393-13.2653 1.47393-13.5519 1.57628-13.7976 1.78099-13.9818 1.98571-14.1661 2.21089-14.248 2.45654-14.248 2.7022-14.248 2.92738-14.1661 3.13209-13.9818 3.33681-13.7976 3.43916-13.5519 3.43916-13.2653ZM3.13209 0 1.78099 0 1.78099-9.58052 3.13209-9.58052 3.13209 0Z" stroke="#311FFF" stroke-width="0.204712" stroke-linejoin="round" stroke-miterlimit="2" fill="#1F2BFF" transform="matrix(1.0024 0 0 1 657.791 158.442)"/><path d="M10.2151-4.79026C10.2151-5.32251 10.1332-5.81382 9.96948-6.28466 9.78524-6.7555 9.53958-7.14445 9.23251-7.49246 8.92545-7.84047 8.53649-8.1066 8.1066-8.31131 7.65623-8.49555 7.14445-8.59791 6.59173-8.59791 6.03901-8.59791 5.52723-8.49555 5.05639-8.31131 4.58555-8.1066 4.1966-7.84047 3.84859-7.49246 3.50058-7.14445 3.23445-6.7555 3.05021-6.28466 2.86597-5.81382 2.76361-5.32251 2.76361-4.79026 2.76361-4.25801 2.86597-3.7667 3.05021-3.29586 3.23445-2.82503 3.50058-2.43607 3.84859-2.08806 4.1966-1.74005 4.58555-1.47393 5.05639-1.28969 5.52723-1.08497 6.03901-0.982618 6.59173-0.982618 7.14445-0.982618 7.65623-1.08497 8.1066-1.28969 8.53649-1.47393 8.92545-1.74005 9.23251-2.08806 9.53958-2.43607 9.78524-2.82503 9.96948-3.29586 10.1332-3.7667 10.2151-4.25801 10.2151-4.79026ZM1.47393-9.58052 2.82503-9.58052 2.82503-7.98377 2.86597-7.98377C3.09115-8.31131 3.33681-8.59791 3.64387-8.82309 3.95094-9.04827 4.25801-9.25299 4.58555-9.39628 4.91309-9.53958 5.2611-9.66241 5.60911-9.72382 5.95712-9.78524 6.28466-9.82618 6.59173-9.82618 7.34916-9.82618 8.02471-9.70335 8.65932-9.4577 9.27346-9.19157 9.80571-8.84356 10.2561-8.39319 10.7064-7.94283 11.0545-7.41058 11.3206-6.79644 11.5662-6.1823 11.6891-5.50675 11.6891-4.79026 11.6891-4.07377 11.5662-3.39822 11.3206-2.78408 11.0545-2.16995 10.7064-1.6377 10.2561-1.18733 9.80571-0.736963 9.27346-0.388953 8.65932-0.143298 8.02471 0.122827 7.34916 0.245654 6.59173 0.245654 6.28466 0.245654 5.95712 0.204712 5.60911 0.143298 5.2611 0.0818848 4.91309-0.0409424 4.58555-0.184241 4.25801-0.327539 3.95094-0.532251 3.64387-0.757435 3.33681-0.982618 3.09115-1.26921 2.86597-1.59675L2.82503-1.59675 2.82503 5.89571 1.47393 5.89571 1.47393-9.58052Z" stroke="#311FFF" stroke-width="0.204712" stroke-linejoin="round" stroke-miterlimit="2" fill="#1F2BFF" transform="matrix(1.0024 0 0 1 662.715 158.442)"/><path d="M1.78099-15.4762 3.13209-15.4762 3.13209 3.61173e-07 1.78099 3.61173e-07Z" stroke="#311FFF" stroke-width="0.204712" stroke-linejoin="round" stroke-miterlimit="2" fill="#1F2BFF" transform="matrix(1.0024 0 0 1 675.253 158.442)"/><path d="M8.92545-5.52723C8.92545-6.44843 8.65932-7.18539 8.1066-7.75859 7.55387-8.31131 6.79644-8.59791 5.81382-8.59791 5.38393-8.59791 4.95403-8.51602 4.54461-8.35225 4.13518-8.16801 3.78717-7.94283 3.48011-7.65623 3.17304-7.36963 2.90691-7.0421 2.74314-6.67361 2.5589-6.30513 2.45654-5.91618 2.45654-5.52723L8.92545-5.52723ZM2.4156-4.42178C2.45654-3.95094 2.57937-3.50058 2.76361-3.07068 2.94785-2.64079 3.21398-2.29278 3.52105-1.98571 3.82812-1.67864 4.1966-1.43298 4.60602-1.24874 5.01545-1.0645 5.46581-0.982618 5.93665-0.982618 6.65314-0.982618 7.28775-1.14639 7.82-1.4944 8.33178-1.82194 8.74121-2.21089 9.00733-2.64079L10.0514-1.78099C9.47817-1.0645 8.84356-0.532251 8.16801-0.225183 7.47199 0.0818848 6.73503 0.245654 5.93665 0.245654 5.22016 0.245654 4.56508 0.122827 3.97141-0.143298 3.35728-0.388953 2.82503-0.736963 2.39513-1.18733 1.96524-1.6377 1.61723-2.16995 1.37157-2.78408 1.10545-3.39822 0.982618-4.07377 0.982618-4.79026 0.982618-5.50675 1.10545-6.1823 1.3511-6.79644 1.59675-7.41058 1.94476-7.94283 2.37466-8.39319 2.80456-8.84356 3.31634-9.19157 3.91-9.4577 4.50367-9.70335 5.13827-9.82618 5.81382-9.82618 6.53031-9.82618 7.18539-9.70335 7.75859-9.43723 8.33178-9.1711 8.82309-8.84356 9.21204-8.41367 9.58052-7.98377 9.88759-7.47199 10.0923-6.8988 10.297-6.30513 10.3994-5.691 10.3994-5.03592L10.3994-4.42178 2.4156-4.42178Z" stroke="#311FFF" stroke-width="0.204712" stroke-linejoin="round" stroke-miterlimit="2" fill="#1F2BFF" transform="matrix(1.0024 0 0 1 680.179 158.442)"/><path d="M3.43916 0 1.96524 0 1.96524-14.4936 10.7064-14.4936 10.7064-13.1425 3.43916-13.1425 3.43916-8.20895 10.1947-8.20895 10.1947-6.85785 3.43916-6.85785 3.43916 0Z" stroke="#311FFF" stroke-width="0.204712" stroke-linejoin="round" stroke-miterlimit="2" fill="#1F2BFF" transform="matrix(1.0024 0 0 1 697.293 158.442)"/><path d="M7.13962-6.40325C7.13962-7.57184 6.97954-8.53233 6.67539-9.28471 6.33922-10.0371 5.74692-10.4213 4.89849-10.4373 4.05005-10.4213 3.45775-10.0371 3.13759-9.28471 2.80142-8.53233 2.64134-7.57184 2.65735-6.40325L7.13962-6.40325ZM1.12057-5.7149C1.12057-6.4993 1.1846-7.23567 1.31267-7.92402 1.42472-8.61237 1.61682-9.23669 1.90497-9.79697 2.19311-10.3573 2.57731-10.7895 3.07356-11.1096 3.5538-11.4138 4.17812-11.5739 4.89849-11.5899 5.63486-11.5739 6.24317-11.4138 6.73942-11.1096 7.21966-10.7895 7.61987-10.3573 7.892-9.79697 8.18015-9.23669 8.38826-8.61237 8.51632-7.92402 8.62838-7.23567 8.6764-6.4993 8.6764-5.7149 8.6764-5.02655 8.64439-4.35421 8.58035-3.66586 8.50031-2.97751 8.32422-2.35319 8.06809-1.7769 7.82797-1.21662 7.44378-0.752382 6.93152-0.400203 6.41926-0.0320162 5.74692 0.144073 4.89849 0.160081 4.05005 0.144073 3.37771-0.0320162 2.88146-0.400203 2.38521-0.752382 2.00102-1.21662 1.74489-1.7769 1.48876-2.35319 1.32867-2.97751 1.24863-3.66586 1.16859-4.35421 1.12057-5.02655 1.12057-5.7149ZM2.65735-5.25066C2.64134-3.97001 2.80142-2.94549 3.10558-2.1771 3.40973-1.39271 4.00203-1.00851 4.89849-0.992504 5.79494-1.00851 6.40325-1.39271 6.7074-2.1771 7.01156-2.94549 7.13962-3.97001 7.13962-5.25066L2.65735-5.25066Z" stroke="#311FFF" stroke-width="0.160081" stroke-linejoin="round" stroke-miterlimit="2" fill="#1F2BFF" transform="matrix(1.0024 0 0 1 703.154 167.546)"/><path d="M489.808 458.71C489.808 466.692 480.57 473.163 469.174 473.163 457.779 473.163 448.541 466.692 448.541 458.71 448.541 450.728 457.779 444.257 469.174 444.257 480.57 444.257 489.808 450.728 489.808 458.71Z" stroke="#AB3D4A" stroke-width="3.65768" stroke-linecap="round" stroke-linejoin="round" stroke-miterlimit="2.12209" fill="none" fill-rule="evenodd" transform="matrix(1.0024 0 0 1 218.391 -264.497)"/><path d="M668.309 625.878C668.309 636.769 655.704 645.597 640.156 645.597 624.607 645.597 612.002 636.769 612.002 625.878 612.002 614.987 624.607 606.158 640.156 606.158 655.704 606.158 668.309 614.987 668.309 625.878Z" stroke="#FAB11D" stroke-width="3.65664" stroke-linecap="round" stroke-linejoin="round" stroke-miterlimit="2.12209" fill="none" fill-rule="evenodd" transform="matrix(1.0024 0 0 1 -88.5051 -432.619)"/><path d="M2.97648-3.32063C2.88346-3.49736 2.76254-3.64619 2.60442-3.7485 2.44629-3.85082 2.26026-3.90663 2.03703-3.90663 1.93471-3.90663 1.82309-3.89733 1.72078-3.86942 1.60916-3.84152 1.50684-3.80431 1.42313-3.7578 1.33942-3.702 1.265-3.63689 1.2185-3.55317 1.16269-3.46946 1.13478-3.37644 1.13478-3.25552 1.13478-3.05089 1.20919-2.90207 1.34872-2.80905 1.48824-2.71604 1.70217-2.63232 1.99052-2.56721L2.61372-2.41839C2.92067-2.35328 3.17181-2.21376 3.37644-2.00912 3.57177-1.79519 3.67409-1.53475 3.67409-1.2278 3.67409-0.99526 3.62758-0.790627 3.53457-0.6232 3.43225-0.446472 3.31133-0.306949 3.15321-0.204633 2.99508-0.093015 2.80905-0.0093015 2.60442 0.037206 2.39979 0.0837135 2.19515 0.111618 1.98122 0.111618 1.64636 0.111618 1.33011 0.0465075 1.05107-0.0837135 0.762723-0.204633 0.511582-0.427869 0.306949-0.734818L0.837135-1.09758C0.958054-0.902245 1.11618-0.74412 1.31151-0.6232 1.49754-0.502281 1.72078-0.446472 1.98122-0.446472 2.10214-0.446472 2.23236-0.455773 2.35328-0.492979 2.4742-0.520884 2.58582-0.55809 2.68813-0.6232 2.78115-0.679009 2.85556-0.753421 2.92067-0.846436 2.97648-0.939451 3.00438-1.05107 3.00438-1.17199 3.00438-1.38592 2.92067-1.54405 2.76254-1.64636 2.60442-1.73938 2.40909-1.81379 2.17655-1.8696L1.58125-2.00912C1.50684-2.02773 1.40453-2.05563 1.28361-2.10214 1.15339-2.14865 1.03247-2.21376 0.911547-2.29747 0.790627-2.38118 0.679009-2.5021 0.595296-2.64163 0.511582-2.78115 0.465075-2.94857 0.465075-3.15321 0.465075-3.37644 0.511582-3.57177 0.604597-3.7392 0.688311-3.90663 0.80923-4.04615 0.967356-4.14847 1.11618-4.25078 1.28361-4.3345 1.47894-4.39031 1.67427-4.43681 1.8696-4.46472 2.07423-4.46472 2.38118-4.46472 2.66023-4.40891 2.92067-4.28799 3.18111-4.16707 3.38574-3.97174 3.52527-3.68339L2.97648-3.32063Z" stroke="#AB3D4A" stroke-width="0.18603" stroke-linejoin="round" stroke-miterlimit="2" fill="#AB3D4A" transform="matrix(1.0024 0 0 1 673.727 196.593)"/><path d="M3.14391-2.16725C2.98578-2.16725 2.79975-2.15795 2.56721-2.14865 2.33468-2.13004 2.11144-2.09284 1.89751-2.03703 1.68357-1.97192 1.49754-1.8789 1.34872-1.75798 1.19059-1.63706 1.11618-1.46034 1.11618-1.2464 1.11618-1.10688 1.14408-0.985959 1.20919-0.883642 1.265-0.781326 1.33942-0.697612 1.44173-0.632502 1.54405-0.567391 1.65567-0.520884 1.77659-0.492979 1.89751-0.455773 2.01842-0.446472 2.13934-0.446472 2.36258-0.446472 2.55791-0.483678 2.72534-0.55809 2.88346-0.632502 3.02299-0.734818 3.1346-0.865039 3.24622-0.985959 3.32994-1.13478 3.38574-1.31151 3.43225-1.47894 3.46016-1.65567 3.46016-1.851L3.46016-2.16725 3.14391-2.16725ZM3.46016-2.66953 3.46016-2.78115C3.46016-3.53457 3.0881-3.90663 2.34398-3.90663 1.83239-3.90663 1.39522-3.7392 1.01386-3.39505L0.641803-3.83222C1.05107-4.25078 1.66497-4.46472 2.4835-4.46472 2.69743-4.46472 2.90207-4.43681 3.0974-4.3717 3.29273-4.30659 3.46016-4.21358 3.59968-4.09266 3.7392-3.96244 3.86012-3.80431 3.94383-3.60898 4.02755-3.41365 4.07406-3.19041 4.07406-2.92067L4.07406-0.976657C4.07406-0.80923 4.08336-0.632502 4.10196-0.455773 4.11126-0.269743 4.12986-0.120919 4.14847 0L3.55317 0C3.53457-0.102316 3.52527-0.223236 3.51597-0.344155 3.50666-0.465075 3.49736-0.585994 3.49736-0.706914L3.47876-0.706914C3.30203-0.418567 3.0881-0.204633 2.84626-0.0837135 2.59512 0.0465075 2.29747 0.111618 1.94401 0.111618 1.74868 0.111618 1.56265 0.0837135 1.38592 0.037206 1.20919-0.018603 1.05107-0.102316 0.911547-0.213934 0.772024-0.316251 0.651105-0.455773 0.576693-0.613899 0.492979-0.772024 0.446472-0.948753 0.446472-1.16269 0.446472-1.51614 0.539487-1.79519 0.725517-1.99982 0.902245-2.19515 1.13478-2.34398 1.41383-2.44629 1.68357-2.54861 1.98122-2.60442 2.29747-2.63232 2.60442-2.66023 2.89277-2.66953 3.15321-2.66953L3.46016-2.66953Z" stroke="#AB3D4A" stroke-width="0.18603" stroke-linejoin="round" stroke-miterlimit="2" fill="#AB3D4A" transform="matrix(1.0024 0 0 1 677.699 196.593)"/><path d="M0.669708-3.38574C0.669708-3.54387 0.669708-3.7113 0.660406-3.86942 0.651105-4.02755 0.632502-4.19497 0.6232-4.3531L1.28361-4.3531 1.28361-3.69269 1.30221-3.69269C1.45103-3.94383 1.65567-4.13917 1.92541-4.26939 2.18585-4.39961 2.44629-4.46472 2.70674-4.46472 2.82765-4.46472 2.94857-4.45542 3.0881-4.42751 3.21832-4.39961 3.34854-4.3531 3.46946-4.29729 3.59038-4.23218 3.7113-4.13917 3.82292-4.01825 3.92523-3.89733 4.01825-3.7485 4.09266-3.56247 4.21358-3.84152 4.41821-4.06475 4.68795-4.22288 4.9577-4.381 5.23674-4.46472 5.52509-4.46472 6.08318-4.46472 6.49244-4.31589 6.76219-4.02755 7.03193-3.7299 7.16215-3.31133 7.16215-2.76254L7.16215 0 6.54825 0 6.54825-2.53931C6.54825-2.97648 6.47384-3.32063 6.31572-3.55317 6.15759-3.78571 5.86924-3.90663 5.45068-3.90663 5.21814-3.90663 5.03211-3.86012 4.87398-3.77641 4.71586-3.68339 4.59494-3.56247 4.50192-3.41365 4.39961-3.26483 4.3345-3.0974 4.28799-2.91137 4.24148-2.71604 4.22288-2.52071 4.22288-2.31607L4.22288 0 3.60898 0 3.60898-2.53931C3.60898-2.97648 3.53457-3.32063 3.37644-3.55317 3.21832-3.78571 2.92997-3.90663 2.5114-3.90663 2.4742-3.90663 2.39048-3.89733 2.26026-3.86942 2.12074-3.84152 1.98122-3.77641 1.8417-3.66479 1.70217-3.55317 1.57195-3.38574 1.46034-3.16251 1.33942-2.93927 1.28361-2.63232 1.28361-2.23236L1.28361 0 0.669708 0 0.669708-3.38574Z" stroke="#AB3D4A" stroke-width="0.18603" stroke-linejoin="round" stroke-miterlimit="2" fill="#AB3D4A" transform="matrix(1.0024 0 0 1 682.538 196.593)"/><path d="M4.64145-2.17655C4.64145-2.41839 4.60424-2.64163 4.52983-2.85556 4.44612-3.06949 4.3345-3.24622 4.19497-3.40435 4.05545-3.56247 3.87872-3.68339 3.68339-3.77641 3.47876-3.86012 3.24622-3.90663 2.99508-3.90663 2.74394-3.90663 2.5114-3.86012 2.29747-3.77641 2.08354-3.68339 1.90681-3.56247 1.74868-3.40435 1.59056-3.24622 1.46964-3.06949 1.38592-2.85556 1.30221-2.64163 1.2557-2.41839 1.2557-2.17655 1.2557-1.93471 1.30221-1.71148 1.38592-1.49754 1.46964-1.28361 1.59056-1.10688 1.74868-0.948753 1.90681-0.790627 2.08354-0.669708 2.29747-0.585994 2.5114-0.492979 2.74394-0.446472 2.99508-0.446472 3.24622-0.446472 3.47876-0.492979 3.68339-0.585994 3.87872-0.669708 4.05545-0.790627 4.19497-0.948753 4.3345-1.10688 4.44612-1.28361 4.52983-1.49754 4.60424-1.71148 4.64145-1.93471 4.64145-2.17655ZM0.669708-4.3531 1.28361-4.3531 1.28361-3.62758 1.30221-3.62758C1.40453-3.77641 1.51614-3.90663 1.65567-4.00894 1.79519-4.11126 1.93471-4.20428 2.08354-4.26939 2.23236-4.3345 2.39048-4.39031 2.54861-4.41821 2.70674-4.44612 2.85556-4.46472 2.99508-4.46472 3.33924-4.46472 3.64619-4.40891 3.93453-4.29729 4.21358-4.17637 4.45542-4.01825 4.66005-3.81361 4.86468-3.60898 5.02281-3.36714 5.14373-3.0881 5.25535-2.80905 5.31115-2.5021 5.31115-2.17655 5.31115-1.851 5.25535-1.54405 5.14373-1.265 5.02281-0.985959 4.86468-0.74412 4.66005-0.539487 4.45542-0.334854 4.21358-0.176728 3.93453-0.0651105 3.64619 0.055809 3.33924 0.111618 2.99508 0.111618 2.85556 0.111618 2.70674 0.093015 2.54861 0.0651105 2.39048 0.037206 2.23236-0.018603 2.08354-0.0837135 1.93471-0.148824 1.79519-0.241839 1.65567-0.344155 1.51614-0.446472 1.40453-0.576693 1.30221-0.725517L1.28361-0.725517 1.28361 2.67883 0.669708 2.67883 0.669708-4.3531Z" stroke="#AB3D4A" stroke-width="0.18603" stroke-linejoin="round" stroke-miterlimit="2" fill="#AB3D4A" transform="matrix(1.0024 0 0 1 690.482 196.593)"/><path d="M0.80923-7.03193 1.42313-7.03193 1.42313 1.64106e-07 0.80923 1.64106e-07Z" stroke="#AB3D4A" stroke-width="0.18603" stroke-linejoin="round" stroke-miterlimit="2" fill="#AB3D4A" transform="matrix(1.0024 0 0 1 696.179 196.593)"/><path d="M4.05545-2.5114C4.05545-2.92997 3.93453-3.26483 3.68339-3.52527 3.43225-3.77641 3.0881-3.90663 2.64163-3.90663 2.44629-3.90663 2.25096-3.86942 2.06493-3.79501 1.8789-3.7113 1.72078-3.60898 1.58125-3.47876 1.44173-3.34854 1.32081-3.19971 1.2464-3.03229 1.16269-2.86486 1.11618-2.68813 1.11618-2.5114L4.05545-2.5114ZM1.09758-2.00912C1.11618-1.79519 1.17199-1.59056 1.2557-1.39522 1.33942-1.19989 1.46034-1.04177 1.59986-0.902245 1.73938-0.762723 1.90681-0.651105 2.09284-0.567391 2.27887-0.483678 2.4835-0.446472 2.69743-0.446472 3.02299-0.446472 3.31133-0.520884 3.55317-0.679009 3.78571-0.827833 3.97174-1.00456 4.09266-1.19989L4.56703-0.80923C4.30659-0.483678 4.01825-0.241839 3.7113-0.102316 3.39505 0.037206 3.06019 0.111618 2.69743 0.111618 2.37188 0.111618 2.07423 0.055809 1.80449-0.0651105 1.52545-0.176728 1.28361-0.334854 1.08828-0.539487 0.892944-0.74412 0.734818-0.985959 0.6232-1.265 0.502281-1.54405 0.446472-1.851 0.446472-2.17655 0.446472-2.5021 0.502281-2.80905 0.613899-3.0881 0.725517-3.36714 0.883642-3.60898 1.07897-3.81361 1.2743-4.01825 1.50684-4.17637 1.77659-4.29729 2.04633-4.40891 2.33468-4.46472 2.64163-4.46472 2.96718-4.46472 3.26483-4.40891 3.52527-4.28799 3.78571-4.16707 4.00894-4.01825 4.18567-3.82292 4.3531-3.62758 4.49262-3.39505 4.58564-3.1346 4.67865-2.86486 4.72516-2.58582 4.72516-2.28817L4.72516-2.00912 1.09758-2.00912Z" stroke="#AB3D4A" stroke-width="0.18603" stroke-linejoin="round" stroke-miterlimit="2" fill="#AB3D4A" transform="matrix(1.0024 0 0 1 698.417 196.593)"/><path d="M3.79774-4.23686C3.67906-4.46235 3.52478-4.65224 3.32303-4.78278 3.12127-4.91333 2.88391-4.98454 2.59908-4.98454 2.46853-4.98454 2.32612-4.97267 2.19557-4.93707 2.05315-4.90146 1.92261-4.85399 1.8158-4.79465 1.70898-4.72344 1.61404-4.64037 1.5547-4.53356 1.48349-4.42674 1.44789-4.30806 1.44789-4.15378 1.44789-3.89269 1.54283-3.7028 1.72085-3.58412 1.89887-3.46544 2.17183-3.35863 2.53974-3.27555L3.33489-3.08567C3.72654-3.00259 4.04697-2.82457 4.30806-2.56348 4.55729-2.29051 4.68784-1.95821 4.68784-1.56657 4.68784-1.26987 4.6285-1.00878 4.50982-0.795152 4.37927-0.569661 4.22499-0.391642 4.02323-0.261095 3.82148-0.118679 3.58412-0.0118679 3.32303 0.0474718 3.06193 0.106812 2.80084 0.142415 2.52787 0.142415 2.10063 0.142415 1.69712 0.0593397 1.34108-0.106812 0.973172-0.261095 0.652737-0.545926 0.391642-0.937568L1.06812-1.40042C1.2224-1.15119 1.42415-0.949436 1.67338-0.795152 1.91074-0.640869 2.19557-0.569661 2.52787-0.569661 2.68216-0.569661 2.84831-0.581529 3.00259-0.629001 3.15687-0.664605 3.29929-0.712077 3.42984-0.795152 3.54852-0.86636 3.64346-0.961304 3.72654-1.07998 3.79774-1.19866 3.83335-1.34108 3.83335-1.49536 3.83335-1.76832 3.72654-1.97008 3.52478-2.10063 3.32303-2.21931 3.0738-2.31425 2.7771-2.38546L2.01755-2.56348C1.92261-2.58721 1.79206-2.62282 1.63778-2.68216 1.47163-2.7415 1.31734-2.82457 1.16306-2.93138 1.00878-3.03819 0.86636-3.19248 0.759549-3.3705 0.652737-3.54852 0.593397-3.76214 0.593397-4.02323 0.593397-4.30806 0.652737-4.55729 0.771417-4.77092 0.878228-4.98454 1.03251-5.16256 1.23427-5.2931 1.42415-5.42365 1.63778-5.53046 1.887-5.60167 2.13623-5.66101 2.38546-5.69661 2.64655-5.69661 3.03819-5.69661 3.39423-5.62541 3.72654-5.47112 4.05884-5.31684 4.31993-5.06761 4.49795-4.69971L3.79774-4.23686Z" stroke="#FAB11D" stroke-width="0.237359" stroke-linejoin="round" stroke-miterlimit="2" fill="#FAB11D" transform="matrix(1.0024 0 0 1 533.744 196.506)"/><path d="M4.01137-2.76523C3.80961-2.76523 3.57225-2.75336 3.27555-2.7415 2.97885-2.71776 2.69402-2.67029 2.42106-2.59908 2.1481-2.516 1.91074-2.39733 1.72085-2.24304 1.5191-2.08876 1.42415-1.86327 1.42415-1.5903 1.42415-1.41229 1.45976-1.258 1.54283-1.12745 1.61404-0.996908 1.70898-0.890096 1.83953-0.80702 1.97008-0.723945 2.11249-0.664605 2.26678-0.629001 2.42106-0.581529 2.57534-0.569661 2.72963-0.569661 3.01446-0.569661 3.26369-0.617133 3.47731-0.712077 3.67906-0.80702 3.85708-0.937568 3.9995-1.10372 4.14191-1.258 4.24873-1.44789 4.31993-1.67338 4.37927-1.887 4.41488-2.11249 4.41488-2.36172L4.41488-2.76523 4.01137-2.76523ZM4.41488-3.4061 4.41488-3.54852C4.41488-4.50982 3.94016-4.98454 2.99072-4.98454 2.33799-4.98454 1.78019-4.77092 1.29361-4.3318L0.818888-4.88959C1.34108-5.42365 2.12436-5.69661 3.16874-5.69661 3.4417-5.69661 3.7028-5.66101 3.95203-5.57794 4.20125-5.49486 4.41488-5.37618 4.5929-5.2219 4.77092-5.05575 4.9252-4.85399 5.03201-4.60476 5.13882-4.35554 5.19816-4.07071 5.19816-3.72654L5.19816-1.24613C5.19816-1.03251 5.21003-0.80702 5.23377-0.581529 5.24563-0.34417 5.26937-0.154283 5.2931 0L4.53356 0C4.50982-0.130547 4.49795-0.284831 4.48608-0.439114 4.47422-0.593397 4.46235-0.747681 4.46235-0.901964L4.43861-0.901964C4.21312-0.534058 3.94016-0.261095 3.63159-0.106812 3.31116 0.0593397 2.93138 0.142415 2.4804 0.142415 2.23117 0.142415 1.99382 0.106812 1.76832 0.0474718 1.54283-0.0237359 1.34108-0.130547 1.16306-0.272963 0.98504-0.40351 0.830756-0.581529 0.735813-0.783285 0.629001-0.98504 0.569661-1.21053 0.569661-1.48349 0.569661-1.93448 0.688341-2.29051 0.9257-2.55161 1.15119-2.80084 1.44789-2.99072 1.80393-3.12127 2.1481-3.25182 2.52787-3.32303 2.93138-3.35863 3.32303-3.39423 3.69093-3.4061 4.02323-3.4061L4.41488-3.4061Z" stroke="#FAB11D" stroke-width="0.237359" stroke-linejoin="round" stroke-miterlimit="2" fill="#FAB11D" transform="matrix(1.0024 0 0 1 538.812 196.506)"/><path d="M0.854492-4.31993C0.854492-4.52169 0.854492-4.73531 0.842624-4.93707 0.830756-5.13882 0.80702-5.35244 0.795152-5.5542L1.63778-5.5542 1.63778-4.71158 1.66151-4.71158C1.8514-5.03201 2.11249-5.28124 2.45667-5.44739 2.78897-5.61354 3.12127-5.69661 3.45357-5.69661 3.60786-5.69661 3.76214-5.68475 3.94016-5.64914 4.10631-5.61354 4.27246-5.5542 4.42674-5.48299 4.58103-5.39992 4.73531-5.28124 4.87773-5.12695 5.00827-4.97267 5.12695-4.78278 5.2219-4.54542 5.37618-4.90146 5.63728-5.18629 5.98145-5.38805 6.32562-5.5898 6.68165-5.69661 7.04956-5.69661 7.76164-5.69661 8.28383-5.50673 8.628-5.13882 8.97217-4.75905 9.13832-4.22499 9.13832-3.52478L9.13832 0 8.35503 0 8.35503-3.23995C8.35503-3.79774 8.26009-4.23686 8.05834-4.53356 7.85658-4.83025 7.48867-4.98454 6.95462-4.98454 6.65792-4.98454 6.42056-4.9252 6.2188-4.81839 6.01705-4.69971 5.86277-4.54542 5.74409-4.35554 5.61354-4.16565 5.53046-3.95203 5.47112-3.71467 5.41178-3.46544 5.38805-3.21621 5.38805-2.95512L5.38805 0 4.60476 0 4.60476-3.23995C4.60476-3.79774 4.50982-4.23686 4.30806-4.53356 4.10631-4.83025 3.7384-4.98454 3.20435-4.98454 3.15687-4.98454 3.05006-4.97267 2.88391-4.93707 2.70589-4.90146 2.52787-4.81839 2.34985-4.67597 2.17183-4.53356 2.00568-4.31993 1.86327-4.0351 1.70898-3.75027 1.63778-3.35863 1.63778-2.84831L1.63778 0 0.854492 0 0.854492-4.31993Z" stroke="#FAB11D" stroke-width="0.237359" stroke-linejoin="round" stroke-miterlimit="2" fill="#FAB11D" transform="matrix(1.0024 0 0 1 544.987 196.506)"/><path d="M5.92211-2.7771C5.92211-3.08567 5.87463-3.3705 5.77969-3.64346 5.67288-3.91642 5.53046-4.14191 5.35244-4.34367 5.17443-4.54542 4.94893-4.69971 4.69971-4.81839 4.43861-4.9252 4.14191-4.98454 3.82148-4.98454 3.50104-4.98454 3.20435-4.9252 2.93138-4.81839 2.65842-4.69971 2.43293-4.54542 2.23117-4.34367 2.02942-4.14191 1.87514-3.91642 1.76832-3.64346 1.66151-3.3705 1.60217-3.08567 1.60217-2.7771 1.60217-2.46853 1.66151-2.1837 1.76832-1.91074 1.87514-1.63778 2.02942-1.41229 2.23117-1.21053 2.43293-1.00878 2.65842-0.854492 2.93138-0.747681 3.20435-0.629001 3.50104-0.569661 3.82148-0.569661 4.14191-0.569661 4.43861-0.629001 4.69971-0.747681 4.94893-0.854492 5.17443-1.00878 5.35244-1.21053 5.53046-1.41229 5.67288-1.63778 5.77969-1.91074 5.87463-2.1837 5.92211-2.46853 5.92211-2.7771ZM0.854492-5.5542 1.63778-5.5542 1.63778-4.6285 1.66151-4.6285C1.79206-4.81839 1.93448-4.98454 2.11249-5.11509 2.29051-5.24563 2.46853-5.36431 2.65842-5.44739 2.84831-5.53046 3.05006-5.60167 3.25182-5.63728 3.45357-5.67288 3.64346-5.69661 3.82148-5.69661 4.26059-5.69661 4.65224-5.62541 5.02014-5.48299 5.37618-5.32871 5.68475-5.12695 5.94584-4.86586 6.20694-4.60476 6.40869-4.2962 6.56297-3.94016 6.70539-3.58412 6.7766-3.19248 6.7766-2.7771 6.7766-2.36172 6.70539-1.97008 6.56297-1.61404 6.40869-1.258 6.20694-0.949436 5.94584-0.688341 5.68475-0.427246 5.37618-0.225491 5.02014-0.0830756 4.65224 0.0712077 4.26059 0.142415 3.82148 0.142415 3.64346 0.142415 3.45357 0.118679 3.25182 0.0830756 3.05006 0.0474718 2.84831-0.0237359 2.65842-0.106812 2.46853-0.189887 2.29051-0.308567 2.11249-0.439114 1.93448-0.569661 1.79206-0.735813 1.66151-0.9257L1.63778-0.9257 1.63778 3.41797 0.854492 3.41797 0.854492-5.5542Z" stroke="#FAB11D" stroke-width="0.237359" stroke-linejoin="round" stroke-miterlimit="2" fill="#FAB11D" transform="matrix(1.0024 0 0 1 555.122 196.506)"/><path d="M1.03251-8.97217 1.8158-8.97217 1.8158 2.09386e-07 1.03251 2.09386e-07Z" stroke="#FAB11D" stroke-width="0.237359" stroke-linejoin="round" stroke-miterlimit="2" fill="#FAB11D" transform="matrix(1.0024 0 0 1 562.391 196.506)"/><path d="M5.17443-3.20435C5.17443-3.7384 5.02014-4.16565 4.69971-4.49795 4.37927-4.81839 3.94016-4.98454 3.3705-4.98454 3.12127-4.98454 2.87204-4.93707 2.63468-4.84212 2.39733-4.73531 2.19557-4.60476 2.01755-4.43861 1.83953-4.27246 1.68525-4.08257 1.5903-3.86895 1.48349-3.65533 1.42415-3.42984 1.42415-3.20435L5.17443-3.20435ZM1.40042-2.56348C1.42415-2.29051 1.49536-2.02942 1.60217-1.78019 1.70898-1.53097 1.86327-1.32921 2.04129-1.15119 2.21931-0.973172 2.43293-0.830756 2.67029-0.723945 2.90765-0.617133 3.16874-0.569661 3.4417-0.569661 3.85708-0.569661 4.22499-0.664605 4.53356-0.86636 4.83025-1.05625 5.06761-1.28174 5.2219-1.53097L5.82716-1.03251C5.49486-0.617133 5.12695-0.308567 4.73531-0.130547 4.3318 0.0474718 3.90455 0.142415 3.4417 0.142415 3.02633 0.142415 2.64655 0.0712077 2.30238-0.0830756 1.94634-0.225491 1.63778-0.427246 1.38855-0.688341 1.13932-0.949436 0.937568-1.258 0.795152-1.61404 0.640869-1.97008 0.569661-2.36172 0.569661-2.7771 0.569661-3.19248 0.640869-3.58412 0.783285-3.94016 0.9257-4.2962 1.12745-4.60476 1.37668-4.86586 1.62591-5.12695 1.92261-5.32871 2.26678-5.48299 2.61095-5.62541 2.97885-5.69661 3.3705-5.69661 3.78588-5.69661 4.16565-5.62541 4.49795-5.47112 4.83025-5.31684 5.11509-5.12695 5.34058-4.87773 5.5542-4.6285 5.73222-4.3318 5.8509-3.9995 5.96958-3.65533 6.02892-3.29929 6.02892-2.91952L6.02892-2.56348 1.40042-2.56348Z" stroke="#FAB11D" stroke-width="0.237359" stroke-linejoin="round" stroke-miterlimit="2" fill="#FAB11D" transform="matrix(1.0024 0 0 1 565.246 196.506)"/><path d="M423.979 427.505 346.838 472.704" stroke="#FA641D" stroke-width="3.65712" stroke-linecap="round" stroke-linejoin="round" stroke-miterlimit="2.12209" fill="none" fill-rule="evenodd" transform="matrix(1.0024 9.00704e-18 -1.86504e-17 1 251.119 -219.999)"/><path d="M233.126 235.064 198.279 237.983" stroke="#FAB11D" stroke-width="3.24681" stroke-linecap="round" stroke-linejoin="round" stroke-miterlimit="2.12209" fill="none" fill-rule="evenodd" transform="matrix(0.905388 -0.424586 0.618427 0.900763 179.492 96.0265)"/><path d="M379.488 517.203 379.488 509.683" stroke="#FA641D" stroke-width="3.65768" stroke-linecap="round" stroke-linejoin="round" stroke-miterlimit="2.12209" fill="none" fill-rule="evenodd" transform="matrix(1.0024 0 0 1 218.391 -264.497)"/><path d="M379.423 517.114 379.423 509.595" stroke="#FAB11D" stroke-width="3.65705" stroke-linecap="round" stroke-linejoin="round" stroke-miterlimit="2.12209" fill="none" fill-rule="evenodd" transform="matrix(0.974188 0.236286 -0.23678 0.971564 256.189 -364.526)"/><path d="M379.488 517.203 388.208 519.458" stroke="#FA641D" stroke-width="3.65768" stroke-linecap="round" stroke-linejoin="round" stroke-miterlimit="2.12209" fill="none" fill-rule="evenodd" transform="matrix(1.0024 0 0 1 218.391 -264.497)"/><path d="M379.423 517.114 387.222 517.987" stroke="#FAB11D" stroke-width="3.65705" stroke-linecap="round" stroke-linejoin="round" stroke-miterlimit="2.12209" fill="none" fill-rule="evenodd" transform="matrix(0.974188 0.236286 -0.23678 0.971564 256.189 -364.526)"/><path d="M14.5943-13.089C14.5943-15.4778 14.267-17.4411 13.6453-18.9791 12.9581-20.517 11.7474-21.3024 10.0131-21.3351 8.2788-21.3024 7.06807-20.517 6.41362-18.9791 5.72644-17.4411 5.39922-15.4778 5.43194-13.089L14.5943-13.089ZM2.29058-11.6819C2.29058-13.2853 2.42147-14.7906 2.68325-16.1977 2.91231-17.6047 3.30498-18.8809 3.89398-20.0262 4.48299-21.1715 5.26833-22.055 6.28273-22.7094 7.2644-23.3312 8.54058-23.6584 10.0131-23.6911 11.5183-23.6584 12.7618-23.3312 13.7762-22.7094 14.7579-22.055 15.5759-21.1715 16.1322-20.0262 16.7212-18.8809 17.1466-17.6047 17.4084-16.1977 17.6374-14.7906 17.7356-13.2853 17.7356-11.6819 17.7356-10.2749 17.6702-8.90053 17.5393-7.49346 17.3757-6.08639 17.0157-4.81021 16.4922-3.6322 16.0013-2.48691 15.216-1.53796 14.1689-0.818063 13.1217-0.0654451 11.7474 0.294503 10.0131 0.327225 8.2788 0.294503 6.90445-0.0654451 5.89006-0.818063 4.87566-1.53796 4.09032-2.48691 3.56676-3.6322 3.0432-4.81021 2.71597-6.08639 2.55236-7.49346 2.38875-8.90053 2.29058-10.2749 2.29058-11.6819ZM5.43194-10.733C5.39922-8.11519 5.72644-6.02095 6.34817-4.45026 6.9699-2.84686 8.18063-2.06152 10.0131-2.0288 11.8456-2.06152 13.089-2.84686 13.7107-4.45026 14.3325-6.02095 14.5943-8.11519 14.5943-10.733L5.43194-10.733Z" stroke="#FA641D" stroke-width="0.327225" stroke-linejoin="round" stroke-miterlimit="2" fill="#FF4D00" transform="matrix(1.0024 0 0 1 574.777 277.479)"/><path d="M14.5943-13.089C14.5943-15.4778 14.267-17.4411 13.6453-18.9791 12.9581-20.517 11.7474-21.3024 10.0131-21.3351 8.2788-21.3024 7.06807-20.517 6.41362-18.9791 5.72644-17.4411 5.39922-15.4778 5.43194-13.089L14.5943-13.089ZM2.29058-11.6819C2.29058-13.2853 2.42147-14.7906 2.68325-16.1977 2.91231-17.6047 3.30498-18.8809 3.89398-20.0262 4.48299-21.1715 5.26833-22.055 6.28273-22.7094 7.2644-23.3312 8.54058-23.6584 10.0131-23.6911 11.5183-23.6584 12.7618-23.3312 13.7762-22.7094 14.7579-22.055 15.5759-21.1715 16.1322-20.0262 16.7212-18.8809 17.1466-17.6047 17.4084-16.1977 17.6374-14.7906 17.7356-13.2853 17.7356-11.6819 17.7356-10.2749 17.6702-8.90053 17.5393-7.49346 17.3757-6.08639 17.0157-4.81021 16.4922-3.6322 16.0013-2.48691 15.216-1.53796 14.1689-0.818063 13.1217-0.0654451 11.7474 0.294503 10.0131 0.327225 8.2788 0.294503 6.90445-0.0654451 5.89006-0.818063 4.87566-1.53796 4.09032-2.48691 3.56676-3.6322 3.0432-4.81021 2.71597-6.08639 2.55236-7.49346 2.38875-8.90053 2.29058-10.2749 2.29058-11.6819ZM5.43194-10.733C5.39922-8.11519 5.72644-6.02095 6.34817-4.45026 6.9699-2.84686 8.18063-2.06152 10.0131-2.0288 11.8456-2.06152 13.089-2.84686 13.7107-4.45026 14.3325-6.02095 14.5943-8.11519 14.5943-10.733L5.43194-10.733Z" stroke="#FAB11D" stroke-width="0.327225" stroke-linejoin="round" stroke-miterlimit="2" fill="#FAB11D" transform="matrix(1.0024 0 0 1 479.827 241.564)"/><path d="M1153.01 1342.42 1159.49 1335.94" stroke="#FA641D" stroke-width="1.33315" stroke-linecap="round" stroke-linejoin="round" stroke-miterlimit="2.12209" fill="none" fill-rule="evenodd" transform="matrix(1.0024 0 0 1 -577.641 -1090.7)"/><path d="M1153.01 1342.42 1159.49 1335.94" stroke="#FAB11D" stroke-width="1.33315" stroke-linecap="round" stroke-linejoin="round" stroke-miterlimit="2.12209" fill="none" fill-rule="evenodd" transform="matrix(1.0024 0 0 1 -672.591 -1126.62)"/><path d="M1159.49 1335.94 1166.23 1342.68" stroke="#FA641D" stroke-width="1.33315" stroke-linecap="round" stroke-linejoin="round" stroke-miterlimit="2.12209" fill="none" fill-rule="evenodd" transform="matrix(1.0024 0 0 1 -577.641 -1090.7)"/><path d="M1159.49 1335.94 1166.23 1342.68" stroke="#FAB11D" stroke-width="1.33315" stroke-linecap="round" stroke-linejoin="round" stroke-miterlimit="2.12209" fill="none" fill-rule="evenodd" transform="matrix(1.0024 0 0 1 -672.591 -1126.62)"/><path d="M2.17712-2.42885C2.10909-2.55812 2.02064-2.66698 1.90498-2.74181 1.78932-2.81665 1.65325-2.85747 1.48997-2.85747 1.41513-2.85747 1.33349-2.85067 1.25865-2.83026 1.17701-2.80985 1.10217-2.78263 1.04094-2.74862 0.979705-2.7078 0.925277-2.66017 0.89126-2.59894 0.850439-2.53771 0.830028-2.46967 0.830028-2.38123 0.830028-2.23155 0.884456-2.12269 0.986509-2.05466 1.08856-1.98662 1.24504-1.92539 1.45595-1.87777L1.91179-1.76891C2.1363-1.72129 2.32-1.61924 2.46967-1.46956 2.61255-1.31308 2.68739-1.12258 2.68739-0.898063 2.68739-0.727975 2.65337-0.578298 2.58533-0.455835 2.51049-0.326568 2.42205-0.224516 2.30639-0.149677 2.19073-0.0680351 2.05466-0.00680351 1.90498 0.027214 1.75531 0.0612316 1.60563 0.0816421 1.44915 0.0816421 1.20422 0.0816421 0.972902 0.0340175 0.768796-0.0612316 0.557888-0.149677 0.374193-0.312961 0.224516-0.537477L0.612316-0.802814C0.700761-0.65994 0.816421-0.544281 0.959295-0.455835 1.09536-0.367389 1.25865-0.326568 1.44915-0.326568 1.53759-0.326568 1.63284-0.333372 1.72129-0.360586 1.80973-0.380996 1.89138-0.40821 1.96621-0.455835 2.03425-0.496656 2.08868-0.551084 2.1363-0.619119 2.17712-0.687154 2.19753-0.768796 2.19753-0.857242 2.19753-1.01372 2.1363-1.12938 2.02064-1.20422 1.90498-1.27226 1.76211-1.32668 1.59202-1.36751L1.1566-1.46956C1.10217-1.48316 1.02733-1.50358 0.938884-1.53759 0.843635-1.57161 0.755189-1.61924 0.666744-1.68047 0.578298-1.7417 0.496656-1.83014 0.435425-1.9322 0.374193-2.03425 0.340175-2.15671 0.340175-2.30639 0.340175-2.46967 0.374193-2.61255 0.442228-2.73501 0.50346-2.85747 0.591905-2.95953 0.707565-3.03436 0.816421-3.1092 0.938884-3.17043 1.08176-3.21126 1.22463-3.24527 1.36751-3.26568 1.51718-3.26568 1.7417-3.26568 1.9458-3.22486 2.1363-3.13642 2.3268-3.04797 2.47648-2.9051 2.57853-2.69419L2.17712-2.42885Z" stroke="#FA641D" stroke-width="0.204105" stroke-linejoin="round" stroke-miterlimit="2" fill="#FF4D00" transform="matrix(0.860926 -0.510976 0.5122 0.858869 618.732 237.139)"/><path d="M2.1363-2.77583 1.21783-2.77583 1.21783-0.898063C1.21783-0.782403 1.23143-0.680351 1.25185-0.612316 1.27226-0.537477 1.30627-0.476246 1.34709-0.435425 1.38792-0.394603 1.43554-0.367389 1.49677-0.353782 1.5512-0.333372 1.61243-0.326568 1.68047-0.326568 1.75531-0.326568 1.83695-0.340175 1.91859-0.360586 2.00023-0.380996 2.07507-0.415014 2.14311-0.449032L2.16352-0.0340175C1.99343 0.040821 1.79613 0.0816421 1.558 0.0816421 1.46956 0.0816421 1.38111 0.0680351 1.29267 0.0476246 1.19742 0.027214 1.10897-0.0204105 1.03413-0.0816421 0.959295-0.142874 0.89126-0.231319 0.843635-0.340175 0.79601-0.449032 0.768796-0.591905 0.768796-0.768796L0.768796-2.77583 0.0952491-2.77583 0.0952491-3.18404 0.768796-3.18404 0.768796-4.08211 1.21783-4.08211 1.21783-3.18404 2.1363-3.18404 2.1363-2.77583Z" stroke="#FA641D" stroke-width="0.204105" stroke-linejoin="round" stroke-miterlimit="2" fill="#FF4D00" transform="matrix(0.860926 -0.510976 0.5122 0.858869 621.227 235.658)"/><path d="M2.29959-1.58522C2.18393-1.58522 2.04786-1.57841 1.87777-1.57161 1.70768-1.558 1.5444-1.53079 1.38792-1.48997 1.23143-1.44234 1.09536-1.37431 0.986509-1.28586 0.870849-1.19742 0.816421-1.06815 0.816421-0.91167 0.816421-0.809618 0.836832-0.721172 0.884456-0.646333 0.925277-0.571495 0.979705-0.510263 1.05454-0.462639 1.12938-0.415014 1.21102-0.380996 1.29947-0.360586 1.38792-0.333372 1.47636-0.326568 1.56481-0.326568 1.72809-0.326568 1.87096-0.353782 1.99343-0.40821 2.10909-0.462639 2.21114-0.537477 2.29278-0.632726 2.37442-0.721172 2.43566-0.830028 2.47648-0.959295 2.51049-1.08176 2.53091-1.21102 2.53091-1.3539L2.53091-1.58522 2.29959-1.58522ZM2.53091-1.95261 2.53091-2.03425C2.53091-2.58533 2.25876-2.85747 1.71448-2.85747 1.34029-2.85747 1.02053-2.73501 0.741582-2.48328L0.469442-2.80305C0.768796-3.1092 1.21783-3.26568 1.81654-3.26568 1.97302-3.26568 2.12269-3.24527 2.26557-3.19765 2.40844-3.15002 2.53091-3.08199 2.63296-2.99354 2.73501-2.89829 2.82346-2.78263 2.88469-2.63976 2.94592-2.49689 2.97994-2.3336 2.97994-2.1363L2.97994-0.714368C2.97994-0.591905 2.98674-0.462639 3.00035-0.333372 3.00715-0.197302 3.02076-0.0884456 3.03436 0L2.59894 0C2.58533-0.0748386 2.57853-0.163284 2.57173-0.25173 2.56492-0.340175 2.55812-0.428621 2.55812-0.517067L2.54451-0.517067C2.41525-0.306158 2.25876-0.149677 2.08187-0.0612316 1.89818 0.0340175 1.68047 0.0816421 1.42193 0.0816421 1.27906 0.0816421 1.14299 0.0612316 1.01372 0.027214 0.884456-0.013607 0.768796-0.0748386 0.666744-0.156481 0.564691-0.231319 0.476246-0.333372 0.421818-0.449032 0.360586-0.564691 0.326568-0.693958 0.326568-0.850439 0.326568-1.10897 0.394603-1.31308 0.530674-1.46275 0.65994-1.60563 0.830028-1.71448 1.03413-1.78932 1.23143-1.86416 1.44915-1.90498 1.68047-1.92539 1.90498-1.9458 2.11589-1.95261 2.30639-1.95261L2.53091-1.95261Z" stroke="#FA641D" stroke-width="0.204105" stroke-linejoin="round" stroke-miterlimit="2" fill="#FF4D00" transform="matrix(0.860926 -0.510976 0.5122 0.858869 623.171 234.504)"/><path d="M2.1363-2.77583 1.21783-2.77583 1.21783-0.898063C1.21783-0.782403 1.23143-0.680351 1.25185-0.612316 1.27226-0.537477 1.30627-0.476246 1.34709-0.435425 1.38792-0.394603 1.43554-0.367389 1.49677-0.353782 1.5512-0.333372 1.61243-0.326568 1.68047-0.326568 1.75531-0.326568 1.83695-0.340175 1.91859-0.360586 2.00023-0.380996 2.07507-0.415014 2.14311-0.449032L2.16352-0.0340175C1.99343 0.040821 1.79613 0.0816421 1.558 0.0816421 1.46956 0.0816421 1.38111 0.0680351 1.29267 0.0476246 1.19742 0.027214 1.10897-0.0204105 1.03413-0.0816421 0.959295-0.142874 0.89126-0.231319 0.843635-0.340175 0.79601-0.449032 0.768796-0.591905 0.768796-0.768796L0.768796-2.77583 0.0952491-2.77583 0.0952491-3.18404 0.768796-3.18404 0.768796-4.08211 1.21783-4.08211 1.21783-3.18404 2.1363-3.18404 2.1363-2.77583Z" stroke="#FA641D" stroke-width="0.204105" stroke-linejoin="round" stroke-miterlimit="2" fill="#FF4D00" transform="matrix(0.860926 -0.510976 0.5122 0.858869 626.212 232.699)"/><path d="M1.14299-4.40867C1.14299-4.31342 1.10897-4.23859 1.04094-4.17735 0.972902-4.10932 0.898063-4.08211 0.816421-4.08211 0.734779-4.08211 0.65994-4.10932 0.591905-4.17735 0.52387-4.23859 0.489853-4.31342 0.489853-4.40867 0.489853-4.50392 0.52387-4.58556 0.591905-4.6468 0.65994-4.70803 0.734779-4.73524 0.816421-4.73524 0.898063-4.73524 0.972902-4.70803 1.04094-4.6468 1.10897-4.58556 1.14299-4.50392 1.14299-4.40867ZM1.04094 0 0.591905 0 0.591905-3.18404 1.04094-3.18404 1.04094 0Z" stroke="#FA641D" stroke-width="0.204105" stroke-linejoin="round" stroke-miterlimit="2" fill="#FF4D00" transform="matrix(0.860926 -0.510976 0.5122 0.858869 628.157 231.545)"/><path d="M2.17712-2.42885C2.10909-2.55812 2.02064-2.66698 1.90498-2.74181 1.78932-2.81665 1.65325-2.85747 1.48997-2.85747 1.41513-2.85747 1.33349-2.85067 1.25865-2.83026 1.17701-2.80985 1.10217-2.78263 1.04094-2.74862 0.979705-2.7078 0.925277-2.66017 0.89126-2.59894 0.850439-2.53771 0.830028-2.46967 0.830028-2.38123 0.830028-2.23155 0.884456-2.12269 0.986509-2.05466 1.08856-1.98662 1.24504-1.92539 1.45595-1.87777L1.91179-1.76891C2.1363-1.72129 2.32-1.61924 2.46967-1.46956 2.61255-1.31308 2.68739-1.12258 2.68739-0.898063 2.68739-0.727975 2.65337-0.578298 2.58533-0.455835 2.51049-0.326568 2.42205-0.224516 2.30639-0.149677 2.19073-0.0680351 2.05466-0.00680351 1.90498 0.027214 1.75531 0.0612316 1.60563 0.0816421 1.44915 0.0816421 1.20422 0.0816421 0.972902 0.0340175 0.768796-0.0612316 0.557888-0.149677 0.374193-0.312961 0.224516-0.537477L0.612316-0.802814C0.700761-0.65994 0.816421-0.544281 0.959295-0.455835 1.09536-0.367389 1.25865-0.326568 1.44915-0.326568 1.53759-0.326568 1.63284-0.333372 1.72129-0.360586 1.80973-0.380996 1.89138-0.40821 1.96621-0.455835 2.03425-0.496656 2.08868-0.551084 2.1363-0.619119 2.17712-0.687154 2.19753-0.768796 2.19753-0.857242 2.19753-1.01372 2.1363-1.12938 2.02064-1.20422 1.90498-1.27226 1.76211-1.32668 1.59202-1.36751L1.1566-1.46956C1.10217-1.48316 1.02733-1.50358 0.938884-1.53759 0.843635-1.57161 0.755189-1.61924 0.666744-1.68047 0.578298-1.7417 0.496656-1.83014 0.435425-1.9322 0.374193-2.03425 0.340175-2.15671 0.340175-2.30639 0.340175-2.46967 0.374193-2.61255 0.442228-2.73501 0.50346-2.85747 0.591905-2.95953 0.707565-3.03436 0.816421-3.1092 0.938884-3.17043 1.08176-3.21126 1.22463-3.24527 1.36751-3.26568 1.51718-3.26568 1.7417-3.26568 1.9458-3.22486 2.1363-3.13642 2.3268-3.04797 2.47648-2.9051 2.57853-2.69419L2.17712-2.42885Z" stroke="#FA641D" stroke-width="0.204105" stroke-linejoin="round" stroke-miterlimit="2" fill="#FF4D00" transform="matrix(0.860926 -0.510976 0.5122 0.858869 629.563 230.711)"/><path d="M2.1363-2.77583 1.21783-2.77583 1.21783-0.898063C1.21783-0.782403 1.23143-0.680351 1.25185-0.612316 1.27226-0.537477 1.30627-0.476246 1.34709-0.435425 1.38792-0.394603 1.43554-0.367389 1.49677-0.353782 1.5512-0.333372 1.61243-0.326568 1.68047-0.326568 1.75531-0.326568 1.83695-0.340175 1.91859-0.360586 2.00023-0.380996 2.07507-0.415014 2.14311-0.449032L2.16352-0.0340175C1.99343 0.040821 1.79613 0.0816421 1.558 0.0816421 1.46956 0.0816421 1.38111 0.0680351 1.29267 0.0476246 1.19742 0.027214 1.10897-0.0204105 1.03413-0.0816421 0.959295-0.142874 0.89126-0.231319 0.843635-0.340175 0.79601-0.449032 0.768796-0.591905 0.768796-0.768796L0.768796-2.77583 0.0952491-2.77583 0.0952491-3.18404 0.768796-3.18404 0.768796-4.08211 1.21783-4.08211 1.21783-3.18404 2.1363-3.18404 2.1363-2.77583Z" stroke="#FA641D" stroke-width="0.204105" stroke-linejoin="round" stroke-miterlimit="2" fill="#FF4D00" transform="matrix(0.860926 -0.510976 0.5122 0.858869 632.058 229.23)"/><path d="M1.14299-4.40867C1.14299-4.31342 1.10897-4.23859 1.04094-4.17735 0.972902-4.10932 0.898063-4.08211 0.816421-4.08211 0.734779-4.08211 0.65994-4.10932 0.591905-4.17735 0.52387-4.23859 0.489853-4.31342 0.489853-4.40867 0.489853-4.50392 0.52387-4.58556 0.591905-4.6468 0.65994-4.70803 0.734779-4.73524 0.816421-4.73524 0.898063-4.73524 0.972902-4.70803 1.04094-4.6468 1.10897-4.58556 1.14299-4.50392 1.14299-4.40867ZM1.04094 0 0.591905 0 0.591905-3.18404 1.04094-3.18404 1.04094 0Z" stroke="#FA641D" stroke-width="0.204105" stroke-linejoin="round" stroke-miterlimit="2" fill="#FF4D00" transform="matrix(0.860926 -0.510976 0.5122 0.858869 634.003 228.076)"/><path d="M2.80985-2.43566C2.73501-2.55132 2.62615-2.65337 2.49008-2.73501 2.34721-2.81665 2.19073-2.85747 2.01384-2.85747 1.83014-2.86428 1.66006-2.83026 1.51718-2.76903 1.36751-2.7078 1.23824-2.61935 1.13619-2.50369 1.03413-2.38803 0.952491-2.25876 0.898063-2.10228 0.843635-1.9458 0.816421-1.77572 0.816421-1.59202 0.816421-1.40833 0.843635-1.24504 0.898063-1.08856 0.952491-0.925277 1.03413-0.79601 1.13619-0.680351 1.23824-0.564691 1.36751-0.476246 1.51718-0.415014 1.66006-0.353782 1.83014-0.319765 2.01384-0.326568 2.19073-0.326568 2.34721-0.367389 2.49008-0.449032 2.62615-0.530674 2.73501-0.632726 2.80985-0.748386L3.17724-0.469442C3.02076-0.285747 2.83706-0.149677 2.63976-0.0612316 2.44246 0.0340175 2.23155 0.0748386 2.01384 0.0816421 1.75531 0.0884456 1.52399 0.0476246 1.31308-0.040821 1.10217-0.122463 0.925277-0.238123 0.782403-0.3878 0.632726-0.537477 0.517067-0.714368 0.442228-0.925277 0.367389-1.12938 0.326568-1.3539 0.326568-1.59202 0.326568-1.83014 0.367389-2.05466 0.442228-2.26557 0.517067-2.46967 0.632726-2.64656 0.782403-2.79624 0.925277-2.94592 1.10217-3.06158 1.31308-3.15002 1.52399-3.23167 1.75531-3.27249 2.01384-3.26568 2.23155-3.25888 2.44246-3.21126 2.63976-3.12961 2.83706-3.04117 3.02076-2.89829 3.17724-2.7146L2.80985-2.43566Z" stroke="#FA641D" stroke-width="0.204105" stroke-linejoin="round" stroke-miterlimit="2" fill="#FF4D00" transform="matrix(0.860926 -0.510976 0.5122 0.858869 635.407 227.242)"/><path d="M2.29959-1.58522C2.18393-1.58522 2.04786-1.57841 1.87777-1.57161 1.70768-1.558 1.5444-1.53079 1.38792-1.48997 1.23143-1.44234 1.09536-1.37431 0.986509-1.28586 0.870849-1.19742 0.816421-1.06815 0.816421-0.91167 0.816421-0.809618 0.836832-0.721172 0.884456-0.646333 0.925277-0.571495 0.979705-0.510263 1.05454-0.462639 1.12938-0.415014 1.21102-0.380996 1.29947-0.360586 1.38792-0.333372 1.47636-0.326568 1.56481-0.326568 1.72809-0.326568 1.87096-0.353782 1.99343-0.40821 2.10909-0.462639 2.21114-0.537477 2.29278-0.632726 2.37442-0.721172 2.43566-0.830028 2.47648-0.959295 2.51049-1.08176 2.53091-1.21102 2.53091-1.3539L2.53091-1.58522 2.29959-1.58522ZM2.53091-1.95261 2.53091-2.03425C2.53091-2.58533 2.25876-2.85747 1.71448-2.85747 1.34029-2.85747 1.02053-2.73501 0.741582-2.48328L0.469442-2.80305C0.768796-3.1092 1.21783-3.26568 1.81654-3.26568 1.97302-3.26568 2.12269-3.24527 2.26557-3.19765 2.40844-3.15002 2.53091-3.08199 2.63296-2.99354 2.73501-2.89829 2.82346-2.78263 2.88469-2.63976 2.94592-2.49689 2.97994-2.3336 2.97994-2.1363L2.97994-0.714368C2.97994-0.591905 2.98674-0.462639 3.00035-0.333372 3.00715-0.197302 3.02076-0.0884456 3.03436 0L2.59894 0C2.58533-0.0748386 2.57853-0.163284 2.57173-0.25173 2.56492-0.340175 2.55812-0.428621 2.55812-0.517067L2.54451-0.517067C2.41525-0.306158 2.25876-0.149677 2.08187-0.0612316 1.89818 0.0340175 1.68047 0.0816421 1.42193 0.0816421 1.27906 0.0816421 1.14299 0.0612316 1.01372 0.027214 0.884456-0.013607 0.768796-0.0748386 0.666744-0.156481 0.564691-0.231319 0.476246-0.333372 0.421818-0.449032 0.360586-0.564691 0.326568-0.693958 0.326568-0.850439 0.326568-1.10897 0.394603-1.31308 0.530674-1.46275 0.65994-1.60563 0.830028-1.71448 1.03413-1.78932 1.23143-1.86416 1.44915-1.90498 1.68047-1.92539 1.90498-1.9458 2.11589-1.95261 2.30639-1.95261L2.53091-1.95261Z" stroke="#FA641D" stroke-width="0.204105" stroke-linejoin="round" stroke-miterlimit="2" fill="#FF4D00" transform="matrix(0.860926 -0.510976 0.5122 0.858869 638.232 225.566)"/><path d="M0.591905-5.14345 1.04094-5.14345 1.04094 1.20034e-07 0.591905 1.20034e-07Z" stroke="#FA641D" stroke-width="0.204105" stroke-linejoin="round" stroke-miterlimit="2" fill="#FF4D00" transform="matrix(0.860926 -0.510976 0.5122 0.858869 641.271 223.762)"/><path d="M1.14299-4.40867C1.14299-4.31342 1.10897-4.23859 1.04094-4.17735 0.972902-4.10932 0.898063-4.08211 0.816421-4.08211 0.734779-4.08211 0.65994-4.10932 0.591905-4.17735 0.52387-4.23859 0.489853-4.31342 0.489853-4.40867 0.489853-4.50392 0.52387-4.58556 0.591905-4.6468 0.65994-4.70803 0.734779-4.73524 0.816421-4.73524 0.898063-4.73524 0.972902-4.70803 1.04094-4.6468 1.10897-4.58556 1.14299-4.50392 1.14299-4.40867ZM1.04094 0 0.591905 0 0.591905-3.18404 1.04094-3.18404 1.04094 0Z" stroke="#FA641D" stroke-width="0.204105" stroke-linejoin="round" stroke-miterlimit="2" fill="#FF4D00" transform="matrix(0.860926 -0.510976 0.5122 0.858869 644.306 221.961)"/><path d="M0.918474-3.18404C0.925277-3.0956 0.932081-3.01395 0.938884-2.93231 0.938884-2.84387 0.938884-2.76222 0.938884-2.67378L0.952491-2.67378C1.00012-2.76222 1.06815-2.83706 1.14299-2.9119 1.21783-2.98674 1.30627-3.04797 1.40152-3.1024 1.49677-3.15002 1.59882-3.19085 1.70768-3.22486 1.80973-3.25208 1.91859-3.26568 2.02064-3.26568 2.42885-3.26568 2.72821-3.15683 2.92551-2.94592 3.12281-2.72821 3.21806-2.42205 3.21806-2.02064L3.21806 0 2.76903 0 2.76903-1.76211C2.76903-2.11589 2.7078-2.38803 2.58533-2.57853 2.46287-2.76222 2.23835-2.85747 1.90498-2.85747 1.88457-2.85747 1.81654-2.85067 1.71448-2.83026 1.61243-2.80985 1.50358-2.76222 1.38792-2.68058 1.27226-2.59894 1.1634-2.47648 1.07495-2.31319 0.986509-2.14991 0.938884-1.92539 0.938884-1.63284L0.938884 0 0.489853 0 0.489853-2.48328C0.489853-2.57173 0.489853-2.68058 0.483049-2.80985 0.476246-2.93912 0.462639-3.06838 0.455835-3.18404L0.918474-3.18404Z" stroke="#FA641D" stroke-width="0.204105" stroke-linejoin="round" stroke-miterlimit="2" fill="#FF4D00" transform="matrix(0.860926 -0.510976 0.5122 0.858869 645.71 221.127)"/><path d="M1.97302-2.77583 1.21783-2.77583 1.21783 0 0.768796 0 0.768796-2.77583 0.0952491-2.77583 0.0952491-3.18404 0.768796-3.18404 0.768796-4.05489C0.768796-4.47671 0.864046-4.77606 1.06135-4.95976 1.25865-5.13665 1.51718-5.22509 1.83695-5.22509 1.89818-5.22509 1.96621-5.21829 2.03425-5.21149 2.09548-5.20468 2.16352-5.19108 2.22475-5.17747L2.14311-4.76926C2.08868-4.78287 2.03425-4.79647 1.97302-4.80328 1.91179-4.81008 1.85736-4.81688 1.79613-4.81688 1.67366-4.81688 1.57161-4.79647 1.49677-4.75565 1.42193-4.71483 1.3607-4.6604 1.31988-4.58556 1.27906-4.51073 1.25185-4.42228 1.23824-4.32023 1.22463-4.21817 1.21783-4.11612 1.21783-4.00046L1.21783-3.18404 1.97302-3.18404 1.97302-2.77583Z" stroke="#FA641D" stroke-width="0.204105" stroke-linejoin="round" stroke-miterlimit="2" fill="#FF4D00" transform="matrix(0.860926 -0.510976 0.5122 0.858869 648.967 219.194)"/><path d="M2.96633-1.83695C2.96633-2.14311 2.87788-2.38803 2.69419-2.57853 2.51049-2.76222 2.25876-2.85747 1.9322-2.85747 1.78932-2.85747 1.64645-2.83026 1.51038-2.77583 1.37431-2.7146 1.25865-2.63976 1.1566-2.54451 1.05454-2.44926 0.966098-2.34041 0.91167-2.21794 0.850439-2.09548 0.816421-1.96621 0.816421-1.83695L2.96633-1.83695ZM0.802814-1.46956C0.816421-1.31308 0.857242-1.1634 0.918474-1.02053 0.979705-0.877653 1.06815-0.761993 1.1702-0.65994 1.27226-0.557888 1.39472-0.476246 1.53079-0.415014 1.66686-0.353782 1.81654-0.326568 1.97302-0.326568 2.21114-0.326568 2.42205-0.380996 2.59894-0.496656 2.76903-0.605512 2.9051-0.734779 2.99354-0.877653L3.34052-0.591905C3.15002-0.353782 2.93912-0.176891 2.7146-0.0748386 2.48328 0.027214 2.23835 0.0816421 1.97302 0.0816421 1.73489 0.0816421 1.51718 0.040821 1.31988-0.0476246 1.11578-0.129267 0.938884-0.244926 0.79601-0.394603 0.653137-0.544281 0.537477-0.721172 0.455835-0.925277 0.367389-1.12938 0.326568-1.3539 0.326568-1.59202 0.326568-1.83014 0.367389-2.05466 0.449032-2.25876 0.530674-2.46287 0.646333-2.63976 0.789207-2.78944 0.932081-2.93912 1.10217-3.05478 1.29947-3.14322 1.49677-3.22486 1.70768-3.26568 1.9322-3.26568 2.17032-3.26568 2.38803-3.22486 2.57853-3.13642 2.76903-3.04797 2.93231-2.93912 3.06158-2.79624 3.18404-2.65337 3.28609-2.48328 3.35413-2.29278 3.42216-2.09548 3.45618-1.89138 3.45618-1.67366L3.45618-1.46956 0.802814-1.46956Z" stroke="#FA641D" stroke-width="0.204105" stroke-linejoin="round" stroke-miterlimit="2" fill="#FF4D00" transform="matrix(0.860926 -0.510976 0.5122 0.858869 650.702 218.164)"/><path d="M0.537477-2.19073C0.537477-2.3336 0.537477-2.47648 0.530674-2.61935 0.52387-2.76222 0.517067-2.95272 0.510263-3.18404L0.952491-3.18404 0.952491-2.59214 0.966098-2.59214C1.00012-2.68058 1.04094-2.76222 1.10217-2.84387 1.1634-2.9187 1.23143-2.99354 1.31988-3.05478 1.40152-3.11601 1.49677-3.17043 1.61243-3.21126 1.72129-3.24527 1.84375-3.26568 1.98662-3.26568 2.11589-3.26568 2.22475-3.25208 2.32-3.22486L2.23155-2.78263C2.17032-2.80305 2.08868-2.81665 1.97302-2.81665 1.80293-2.81665 1.65325-2.78263 1.53079-2.7214 1.40833-2.65337 1.30627-2.57173 1.22463-2.46967 1.14299-2.36082 1.08176-2.25196 1.04774-2.1363 1.00692-2.02064 0.986509-1.90498 0.986509-1.79613L0.986509 0 0.537477 0 0.537477-2.19073Z" stroke="#FA641D" stroke-width="0.204105" stroke-linejoin="round" stroke-miterlimit="2" fill="#FF4D00" transform="matrix(0.860926 -0.510976 0.5122 0.858869 653.959 216.231)"/><path d="M2.96633-1.83695C2.96633-2.14311 2.87788-2.38803 2.69419-2.57853 2.51049-2.76222 2.25876-2.85747 1.9322-2.85747 1.78932-2.85747 1.64645-2.83026 1.51038-2.77583 1.37431-2.7146 1.25865-2.63976 1.1566-2.54451 1.05454-2.44926 0.966098-2.34041 0.91167-2.21794 0.850439-2.09548 0.816421-1.96621 0.816421-1.83695L2.96633-1.83695ZM0.802814-1.46956C0.816421-1.31308 0.857242-1.1634 0.918474-1.02053 0.979705-0.877653 1.06815-0.761993 1.1702-0.65994 1.27226-0.557888 1.39472-0.476246 1.53079-0.415014 1.66686-0.353782 1.81654-0.326568 1.97302-0.326568 2.21114-0.326568 2.42205-0.380996 2.59894-0.496656 2.76903-0.605512 2.9051-0.734779 2.99354-0.877653L3.34052-0.591905C3.15002-0.353782 2.93912-0.176891 2.7146-0.0748386 2.48328 0.027214 2.23835 0.0816421 1.97302 0.0816421 1.73489 0.0816421 1.51718 0.040821 1.31988-0.0476246 1.11578-0.129267 0.938884-0.244926 0.79601-0.394603 0.653137-0.544281 0.537477-0.721172 0.455835-0.925277 0.367389-1.12938 0.326568-1.3539 0.326568-1.59202 0.326568-1.83014 0.367389-2.05466 0.449032-2.25876 0.530674-2.46287 0.646333-2.63976 0.789207-2.78944 0.932081-2.93912 1.10217-3.05478 1.29947-3.14322 1.49677-3.22486 1.70768-3.26568 1.9322-3.26568 2.17032-3.26568 2.38803-3.22486 2.57853-3.13642 2.76903-3.04797 2.93231-2.93912 3.06158-2.79624 3.18404-2.65337 3.28609-2.48328 3.35413-2.29278 3.42216-2.09548 3.45618-1.89138 3.45618-1.67366L3.45618-1.46956 0.802814-1.46956Z" stroke="#FA641D" stroke-width="0.204105" stroke-linejoin="round" stroke-miterlimit="2" fill="#FF4D00" transform="matrix(0.860926 -0.510976 0.5122 0.858869 655.797 215.14)"/><path d="M0.918474-3.18404C0.925277-3.0956 0.932081-3.01395 0.938884-2.93231 0.938884-2.84387 0.938884-2.76222 0.938884-2.67378L0.952491-2.67378C1.00012-2.76222 1.06815-2.83706 1.14299-2.9119 1.21783-2.98674 1.30627-3.04797 1.40152-3.1024 1.49677-3.15002 1.59882-3.19085 1.70768-3.22486 1.80973-3.25208 1.91859-3.26568 2.02064-3.26568 2.42885-3.26568 2.72821-3.15683 2.92551-2.94592 3.12281-2.72821 3.21806-2.42205 3.21806-2.02064L3.21806 0 2.76903 0 2.76903-1.76211C2.76903-2.11589 2.7078-2.38803 2.58533-2.57853 2.46287-2.76222 2.23835-2.85747 1.90498-2.85747 1.88457-2.85747 1.81654-2.85067 1.71448-2.83026 1.61243-2.80985 1.50358-2.76222 1.38792-2.68058 1.27226-2.59894 1.1634-2.47648 1.07495-2.31319 0.986509-2.14991 0.938884-1.92539 0.938884-1.63284L0.938884 0 0.489853 0 0.489853-2.48328C0.489853-2.57173 0.489853-2.68058 0.483049-2.80985 0.476246-2.93912 0.462639-3.06838 0.455835-3.18404L0.918474-3.18404Z" stroke="#FA641D" stroke-width="0.204105" stroke-linejoin="round" stroke-miterlimit="2" fill="#FF4D00" transform="matrix(0.860926 -0.510976 0.5122 0.858869 659.054 213.207)"/><path d="M2.80985-2.43566C2.73501-2.55132 2.62615-2.65337 2.49008-2.73501 2.34721-2.81665 2.19073-2.85747 2.01384-2.85747 1.83014-2.86428 1.66006-2.83026 1.51718-2.76903 1.36751-2.7078 1.23824-2.61935 1.13619-2.50369 1.03413-2.38803 0.952491-2.25876 0.898063-2.10228 0.843635-1.9458 0.816421-1.77572 0.816421-1.59202 0.816421-1.40833 0.843635-1.24504 0.898063-1.08856 0.952491-0.925277 1.03413-0.79601 1.13619-0.680351 1.23824-0.564691 1.36751-0.476246 1.51718-0.415014 1.66006-0.353782 1.83014-0.319765 2.01384-0.326568 2.19073-0.326568 2.34721-0.367389 2.49008-0.449032 2.62615-0.530674 2.73501-0.632726 2.80985-0.748386L3.17724-0.469442C3.02076-0.285747 2.83706-0.149677 2.63976-0.0612316 2.44246 0.0340175 2.23155 0.0748386 2.01384 0.0816421 1.75531 0.0884456 1.52399 0.0476246 1.31308-0.040821 1.10217-0.122463 0.925277-0.238123 0.782403-0.3878 0.632726-0.537477 0.517067-0.714368 0.442228-0.925277 0.367389-1.12938 0.326568-1.3539 0.326568-1.59202 0.326568-1.83014 0.367389-2.05466 0.442228-2.26557 0.517067-2.46967 0.632726-2.64656 0.782403-2.79624 0.925277-2.94592 1.10217-3.06158 1.31308-3.15002 1.52399-3.23167 1.75531-3.27249 2.01384-3.26568 2.23155-3.25888 2.44246-3.21126 2.63976-3.12961 2.83706-3.04117 3.02076-2.89829 3.17724-2.7146L2.80985-2.43566Z" stroke="#FA641D" stroke-width="0.204105" stroke-linejoin="round" stroke-miterlimit="2" fill="#FF4D00" transform="matrix(0.860926 -0.510976 0.5122 0.858869 662.311 211.274)"/><path d="M2.96633-1.83695C2.96633-2.14311 2.87788-2.38803 2.69419-2.57853 2.51049-2.76222 2.25876-2.85747 1.9322-2.85747 1.78932-2.85747 1.64645-2.83026 1.51038-2.77583 1.37431-2.7146 1.25865-2.63976 1.1566-2.54451 1.05454-2.44926 0.966098-2.34041 0.91167-2.21794 0.850439-2.09548 0.816421-1.96621 0.816421-1.83695L2.96633-1.83695ZM0.802814-1.46956C0.816421-1.31308 0.857242-1.1634 0.918474-1.02053 0.979705-0.877653 1.06815-0.761993 1.1702-0.65994 1.27226-0.557888 1.39472-0.476246 1.53079-0.415014 1.66686-0.353782 1.81654-0.326568 1.97302-0.326568 2.21114-0.326568 2.42205-0.380996 2.59894-0.496656 2.76903-0.605512 2.9051-0.734779 2.99354-0.877653L3.34052-0.591905C3.15002-0.353782 2.93912-0.176891 2.7146-0.0748386 2.48328 0.027214 2.23835 0.0816421 1.97302 0.0816421 1.73489 0.0816421 1.51718 0.040821 1.31988-0.0476246 1.11578-0.129267 0.938884-0.244926 0.79601-0.394603 0.653137-0.544281 0.537477-0.721172 0.455835-0.925277 0.367389-1.12938 0.326568-1.3539 0.326568-1.59202 0.326568-1.83014 0.367389-2.05466 0.449032-2.25876 0.530674-2.46287 0.646333-2.63976 0.789207-2.78944 0.932081-2.93912 1.10217-3.05478 1.29947-3.14322 1.49677-3.22486 1.70768-3.26568 1.9322-3.26568 2.17032-3.26568 2.38803-3.22486 2.57853-3.13642 2.76903-3.04797 2.93231-2.93912 3.06158-2.79624 3.18404-2.65337 3.28609-2.48328 3.35413-2.29278 3.42216-2.09548 3.45618-1.89138 3.45618-1.67366L3.45618-1.46956 0.802814-1.46956Z" stroke="#FA641D" stroke-width="0.204105" stroke-linejoin="round" stroke-miterlimit="2" fill="#FF4D00" transform="matrix(0.860926 -0.510976 0.5122 0.858869 665.134 209.599)"/><path d="M1.04119-5.29651 2.26347-0.995925 2.2861-0.995925 3.70077-5.29651 4.47035-5.29651 5.88501-0.995925 5.90765-0.995925 7.12992-5.29651 8.01267-5.29651 6.33771 0 5.50022 0 4.09687-4.34586 4.07424-4.34586 2.67089 0 1.83341 0 0.158443-5.29651 1.04119-5.29651Z" stroke="#000000" stroke-width="0.226347" stroke-linejoin="round" stroke-miterlimit="2" transform="matrix(0.928487 0.375968 -0.376869 0.926268 512.614 239.963)"/><path d="M1.90131-7.33363C1.90131-7.17519 1.84473-7.0507 1.73155-6.94884 1.61838-6.83567 1.49389-6.7904 1.35808-6.7904 1.22227-6.7904 1.09778-6.83567 0.984608-6.94884 0.871435-7.0507 0.814848-7.17519 0.814848-7.33363 0.814848-7.49207 0.871435-7.62788 0.984608-7.72974 1.09778-7.83159 1.22227-7.87686 1.35808-7.87686 1.49389-7.87686 1.61838-7.83159 1.73155-7.72974 1.84473-7.62788 1.90131-7.49207 1.90131-7.33363ZM1.73155 0 0.984608 0 0.984608-5.29651 1.73155-5.29651 1.73155 0Z" stroke="#000000" stroke-width="0.226347" stroke-linejoin="round" stroke-miterlimit="2" transform="matrix(0.928487 0.375968 -0.376869 0.926268 520.2 243.035)"/><path d="M0.984608-8.5559 1.73155-8.5559 1.73155 1.99671e-07 0.984608 1.99671e-07Z" stroke="#000000" stroke-width="0.226347" stroke-linejoin="round" stroke-miterlimit="2" transform="matrix(0.928487 0.375968 -0.376869 0.926268 522.724 244.057)"/><path d="M0.984608-8.5559 1.73155-8.5559 1.73155 1.99671e-07 0.984608 1.99671e-07Z" stroke="#000000" stroke-width="0.226347" stroke-linejoin="round" stroke-miterlimit="2" transform="matrix(0.928487 0.375968 -0.376869 0.926268 525.245 245.078)"/><path d="M0.814848-4.11951C0.814848-4.3119 0.814848-4.51561 0.803531-4.70801 0.792213-4.9004 0.769579-5.10412 0.758261-5.29651L1.56179-5.29651 1.56179-4.49298 1.58443-4.49298C1.7655-4.79855 2.01449-5.03621 2.34269-5.19465 2.65957-5.3531 2.97646-5.43232 3.29334-5.43232 3.44047-5.43232 3.58759-5.421 3.75735-5.38705 3.9158-5.3531 4.07424-5.29651 4.22136-5.22861 4.36849-5.14939 4.51561-5.03621 4.65142-4.88909 4.77591-4.74196 4.88909-4.56088 4.97963-4.33454 5.12675-4.67406 5.37573-4.94567 5.70394-5.13807 6.03214-5.33046 6.37166-5.43232 6.72249-5.43232 7.40153-5.43232 7.8995-5.25124 8.2277-4.9004 8.5559-4.53825 8.71434-4.02897 8.71434-3.36125L8.71434 0 7.9674 0 7.9674-3.08963C7.9674-3.62155 7.87686-4.04029 7.68447-4.32322 7.49207-4.60615 7.14124-4.75328 6.63196-4.75328 6.34902-4.75328 6.12268-4.69669 5.93028-4.59484 5.73789-4.48166 5.59076-4.33454 5.47759-4.15346 5.3531-3.97238 5.27388-3.76867 5.21729-3.54232 5.1607-3.30466 5.13807-3.067 5.13807-2.81802L5.13807 0 4.39112 0 4.39112-3.08963C4.39112-3.62155 4.30059-4.04029 4.10819-4.32322 3.9158-4.60615 3.56496-4.75328 3.05568-4.75328 3.01041-4.75328 2.90855-4.74196 2.75011-4.70801 2.58035-4.67406 2.41059-4.59484 2.24083-4.45903 2.07107-4.32322 1.91263-4.11951 1.77682-3.84789 1.6297-3.57628 1.56179-3.2028 1.56179-2.71616L1.56179 0 0.814848 0 0.814848-4.11951Z" stroke="#000000" stroke-width="0.226347" stroke-linejoin="round" stroke-miterlimit="2" transform="matrix(0.928487 0.375968 -0.376869 0.926268 530.687 247.281)"/><path d="M5.3531-2.64826C5.3531-2.94251 5.30783-3.21412 5.21729-3.47442 5.11543-3.73472 4.97963-3.94975 4.80987-4.14214 4.64011-4.33454 4.42508-4.48166 4.18741-4.59484 3.93843-4.69669 3.6555-4.75328 3.34993-4.75328 3.04436-4.75328 2.76143-4.69669 2.52376-4.59484 2.27478-4.48166 2.07107-4.33454 1.90131-4.14214 1.73155-3.94975 1.59574-3.73472 1.50521-3.47442 1.40335-3.21412 1.35808-2.94251 1.35808-2.64826 1.35808-2.354 1.40335-2.08239 1.50521-1.82209 1.59574-1.56179 1.73155-1.34676 1.90131-1.15437 2.07107-0.961973 2.27478-0.814848 2.52376-0.712992 2.76143-0.599819 3.04436-0.543232 3.34993-0.543232 3.6555-0.543232 3.93843-0.599819 4.18741-0.712992 4.42508-0.814848 4.64011-0.961973 4.80987-1.15437 4.97963-1.34676 5.11543-1.56179 5.21729-1.82209 5.30783-2.08239 5.3531-2.354 5.3531-2.64826ZM6.16795-2.64826C6.16795-2.25215 6.10004-1.87868 5.96423-1.53916 5.81711-1.19964 5.62471-0.905387 5.37573-0.656405 5.12675-0.407424 4.8325-0.215029 4.49298-0.0792213 4.14214 0.067904 3.76867 0.135808 3.34993 0.135808 2.94251 0.135808 2.56903 0.067904 2.22951-0.0792213 1.87868-0.215029 1.58443-0.407424 1.33545-0.656405 1.08646-0.905387 0.894069-1.19964 0.758261-1.53916 0.611136-1.87868 0.543232-2.25215 0.543232-2.64826 0.543232-3.04436 0.611136-3.41783 0.758261-3.75735 0.894069-4.09687 1.08646-4.39112 1.33545-4.64011 1.58443-4.88909 1.87868-5.08148 2.22951-5.22861 2.56903-5.36442 2.94251-5.43232 3.34993-5.43232 3.76867-5.43232 4.14214-5.36442 4.49298-5.22861 4.8325-5.08148 5.12675-4.88909 5.37573-4.64011 5.62471-4.39112 5.81711-4.09687 5.96423-3.75735 6.10004-3.41783 6.16795-3.04436 6.16795-2.64826Z" stroke="#000000" stroke-width="0.226347" stroke-linejoin="round" stroke-miterlimit="2" transform="matrix(0.928487 0.375968 -0.376869 0.926268 539.641 250.907)"/><path d="M3.62155-4.04029C3.50837-4.25532 3.36125-4.43639 3.16885-4.56088 2.97646-4.68538 2.75011-4.75328 2.4785-4.75328 2.354-4.75328 2.2182-4.74196 2.09371-4.70801 1.9579-4.67406 1.83341-4.62879 1.73155-4.5722 1.6297-4.5043 1.53916-4.42508 1.48257-4.32322 1.41467-4.22136 1.38071-4.10819 1.38071-3.96107 1.38071-3.71208 1.47125-3.53101 1.64101-3.41783 1.81077-3.30466 2.07107-3.2028 2.42191-3.12358L3.18017-2.94251C3.55364-2.86328 3.85921-2.69352 4.10819-2.44454 4.34586-2.18424 4.47035-1.86736 4.47035-1.49389 4.47035-1.21095 4.41376-0.961973 4.30059-0.758261 4.1761-0.543232 4.02897-0.373472 3.83658-0.248981 3.64418-0.113173 3.41783-0.0113173 3.16885 0.0452693 2.91987 0.101856 2.67089 0.135808 2.41059 0.135808 2.00317 0.135808 1.61838 0.0565867 1.27886-0.101856 0.928021-0.248981 0.622453-0.520597 0.373472-0.894069L1.01856-1.33545C1.16569-1.09778 1.35808-0.905387 1.59574-0.758261 1.82209-0.611136 2.09371-0.543232 2.41059-0.543232 2.55772-0.543232 2.71616-0.554549 2.86328-0.599819 3.01041-0.633771 3.14622-0.67904 3.27071-0.758261 3.38388-0.826165 3.47442-0.916704 3.55364-1.02988 3.62155-1.14305 3.6555-1.27886 3.6555-1.42598 3.6555-1.68628 3.55364-1.87868 3.36125-2.00317 3.16885-2.11634 2.93119-2.20688 2.64826-2.27478L1.92395-2.44454C1.83341-2.46718 1.70892-2.50113 1.56179-2.55772 1.40335-2.6143 1.25622-2.69352 1.1091-2.79538 0.961973-2.89724 0.826165-3.04436 0.724309-3.21412 0.622453-3.38388 0.565867-3.58759 0.565867-3.83658 0.565867-4.10819 0.622453-4.34586 0.735627-4.54957 0.837483-4.75328 0.984608-4.92304 1.177-5.04753 1.35808-5.17202 1.56179-5.27388 1.79946-5.34178 2.03712-5.39837 2.27478-5.43232 2.52376-5.43232 2.89724-5.43232 3.23676-5.36442 3.55364-5.21729 3.87053-5.07016 4.11951-4.8325 4.28927-4.48166L3.62155-4.04029Z" stroke="#000000" stroke-width="0.226347" stroke-linejoin="round" stroke-miterlimit="2" transform="matrix(0.928487 0.375968 -0.376869 0.926268 545.872 253.43)"/><path d="M3.55364-4.61747 2.0258-4.61747 2.0258-1.49389C2.0258-1.30149 2.04844-1.13173 2.08239-1.01856 2.11634-0.894069 2.17293-0.792213 2.24083-0.724309 2.30874-0.656405 2.38796-0.611136 2.48981-0.588501 2.58035-0.554549 2.68221-0.543232 2.79538-0.543232 2.91987-0.543232 3.05568-0.565867 3.19149-0.599819 3.3273-0.633771 3.45179-0.690357 3.56496-0.746944L3.59891-0.0565867C3.31598 0.067904 2.98778 0.135808 2.59167 0.135808 2.44454 0.135808 2.29742 0.113173 2.15029 0.0792213 1.99185 0.0452693 1.84473-0.033952 1.72023-0.135808 1.59574-0.237664 1.48257-0.384789 1.40335-0.565867 1.32413-0.746944 1.27886-0.984608 1.27886-1.27886L1.27886-4.61747 0.158443-4.61747 0.158443-5.29651 1.27886-5.29651 1.27886-6.7904 2.0258-6.7904 2.0258-5.29651 3.55364-5.29651 3.55364-4.61747Z" stroke="#000000" stroke-width="0.226347" stroke-linejoin="round" stroke-miterlimit="2" transform="matrix(0.928487 0.375968 -0.376869 0.926268 550.348 255.242)"/><path d="M0.984608-8.5559 1.73155-8.5559 1.73155 1.99671e-07 0.984608 1.99671e-07Z" stroke="#000000" stroke-width="0.226347" stroke-linejoin="round" stroke-miterlimit="2" transform="matrix(0.928487 0.375968 -0.376869 0.926268 508.348 250.447)"/><path d="M1.90131-7.33363C1.90131-7.17519 1.84473-7.0507 1.73155-6.94884 1.61838-6.83567 1.49389-6.7904 1.35808-6.7904 1.22227-6.7904 1.09778-6.83567 0.984608-6.94884 0.871435-7.0507 0.814848-7.17519 0.814848-7.33363 0.814848-7.49207 0.871435-7.62788 0.984608-7.72974 1.09778-7.83159 1.22227-7.87686 1.35808-7.87686 1.49389-7.87686 1.61838-7.83159 1.73155-7.72974 1.84473-7.62788 1.90131-7.49207 1.90131-7.33363ZM1.73155 0 0.984608 0 0.984608-5.29651 1.73155-5.29651 1.73155 0Z" stroke="#000000" stroke-width="0.226347" stroke-linejoin="round" stroke-miterlimit="2" transform="matrix(0.928487 0.375968 -0.376869 0.926268 510.87 251.468)"/><path d="M1.56179-2.90855 4.06292-5.29651 5.18334-5.29651 2.5464-2.8746 5.46627 0 4.3119 0 1.56179-2.78406 1.56179 0 0.814848 0 0.814848-8.5559 1.56179-8.5559 1.56179-2.90855Z" stroke="#000000" stroke-width="0.226347" stroke-linejoin="round" stroke-miterlimit="2" transform="matrix(0.928487 0.375968 -0.376869 0.926268 513.391 252.489)"/><path d="M4.93436-3.05568C4.93436-3.56496 4.78723-3.97238 4.48166-4.28927 4.1761-4.59484 3.75735-4.75328 3.21412-4.75328 2.97646-4.75328 2.73879-4.70801 2.51245-4.61747 2.2861-4.51561 2.09371-4.39112 1.92395-4.23268 1.75419-4.07424 1.60706-3.89316 1.51652-3.68945 1.41467-3.48574 1.35808-3.27071 1.35808-3.05568L4.93436-3.05568ZM1.33545-2.44454C1.35808-2.18424 1.42598-1.93526 1.52784-1.6976 1.6297-1.45994 1.77682-1.26754 1.94658-1.09778 2.11634-0.928021 2.32005-0.792213 2.5464-0.690357 2.77275-0.588501 3.02173-0.543232 3.28203-0.543232 3.67813-0.543232 4.02897-0.633771 4.32322-0.826165 4.60615-1.00724 4.8325-1.22227 4.97963-1.45994L5.55681-0.984608C5.23992-0.588501 4.88909-0.294251 4.51561-0.124491 4.13083 0.0452693 3.7234 0.135808 3.28203 0.135808 2.88592 0.135808 2.52376 0.067904 2.19556-0.0792213 1.85604-0.215029 1.56179-0.407424 1.32413-0.656405 1.08646-0.905387 0.894069-1.19964 0.758261-1.53916 0.611136-1.87868 0.543232-2.25215 0.543232-2.64826 0.543232-3.04436 0.611136-3.41783 0.746944-3.75735 0.882752-4.09687 1.07515-4.39112 1.31281-4.64011 1.55047-4.88909 1.83341-5.08148 2.16161-5.22861 2.48981-5.36442 2.84065-5.43232 3.21412-5.43232 3.61023-5.43232 3.97238-5.36442 4.28927-5.21729 4.60615-5.07016 4.87777-4.88909 5.0928-4.65142 5.29651-4.41376 5.46627-4.13083 5.57944-3.81394 5.69262-3.48574 5.7492-3.14622 5.7492-2.78406L5.7492-2.44454 1.33545-2.44454Z" stroke="#000000" stroke-width="0.226347" stroke-linejoin="round" stroke-miterlimit="2" transform="matrix(0.928487 0.375968 -0.376869 0.926268 518.458 254.54)"/><path d="M0.984608-8.5559 1.73155-8.5559 1.73155 1.99671e-07 0.984608 1.99671e-07Z" stroke="#000000" stroke-width="0.226347" stroke-linejoin="round" stroke-miterlimit="2" transform="matrix(0.928487 0.375968 -0.376869 0.926268 524.299 256.905)"/><path d="M2.78406-0.916704 4.40244-5.29651 5.30783-5.29651 2.65957 1.38071C2.50113 1.78814 2.29742 2.11634 2.05975 2.354 1.81077 2.59167 1.45994 2.71616 0.995925 2.71616 0.882752 2.71616 0.769579 2.71616 0.656405 2.70484 0.531915 2.69352 0.418741 2.67089 0.305568 2.63694L0.384789 1.91263C0.543232 1.99185 0.735627 2.03712 0.950656 2.03712 1.21095 2.03712 1.42598 1.9579 1.57311 1.78814 1.72023 1.61838 1.85604 1.39203 1.96922 1.08646L2.354 0.067904 0.181077-5.29651 1.12042-5.29651 2.78406-0.916704Z" stroke="#000000" stroke-width="0.226347" stroke-linejoin="round" stroke-miterlimit="2" transform="matrix(0.928487 0.375968 -0.376869 0.926268 526.821 257.927)"/><path d="M1.26754-2.64826C1.26754-2.354 1.31281-2.08239 1.41467-1.82209 1.50521-1.56179 1.64101-1.34676 1.81077-1.15437 1.98053-0.961973 2.19556-0.814848 2.44454-0.712992 2.68221-0.599819 2.96514-0.543232 3.27071-0.543232 3.57628-0.543232 3.85921-0.599819 4.11951-0.712992 4.37981-0.814848 4.59484-0.961973 4.78723-1.15437 4.97963-1.34676 5.12675-1.56179 5.22861-1.82209 5.33046-2.08239 5.38705-2.354 5.38705-2.64826 5.38705-2.94251 5.33046-3.21412 5.22861-3.47442 5.12675-3.73472 4.97963-3.94975 4.78723-4.14214 4.59484-4.33454 4.37981-4.48166 4.11951-4.59484 3.85921-4.69669 3.57628-4.75328 3.27071-4.75328 2.96514-4.75328 2.68221-4.69669 2.44454-4.59484 2.19556-4.48166 1.98053-4.33454 1.81077-4.14214 1.64101-3.94975 1.50521-3.73472 1.41467-3.47442 1.31281-3.21412 1.26754-2.94251 1.26754-2.64826ZM6.10004 0 5.3531 0 5.3531-0.882752 5.33046-0.882752C5.20597-0.701675 5.07016-0.543232 4.9004-0.418741 4.73064-0.294251 4.56088-0.181077 4.37981-0.101856 4.19873-0.0226347 4.01765 0.0452693 3.82526 0.0792213 3.63286 0.113173 3.44047 0.135808 3.27071 0.135808 2.85197 0.135808 2.4785 0.067904 2.13898-0.0792213 1.78814-0.215029 1.49389-0.407424 1.24491-0.656405 0.995925-0.905387 0.803531-1.19964 0.667723-1.53916 0.520597-1.87868 0.452693-2.25215 0.452693-2.64826 0.452693-3.04436 0.520597-3.41783 0.667723-3.75735 0.803531-4.09687 0.995925-4.39112 1.24491-4.64011 1.49389-4.88909 1.78814-5.08148 2.13898-5.22861 2.4785-5.36442 2.85197-5.43232 3.27071-5.43232 3.44047-5.43232 3.63286-5.40968 3.82526-5.37573 4.01765-5.34178 4.19873-5.27388 4.37981-5.19465 4.56088-5.11543 4.73064-5.00226 4.9004-4.87777 5.07016-4.75328 5.20597-4.59484 5.33046-4.41376L5.3531-4.41376 5.3531-8.5559 6.10004-8.5559 6.10004 0Z" stroke="#000000" stroke-width="0.226347" stroke-linejoin="round" stroke-miterlimit="2" transform="matrix(0.928487 0.375968 -0.376869 0.926268 534.808 261.161)"/><path d="M1.90131-7.33363C1.90131-7.17519 1.84473-7.0507 1.73155-6.94884 1.61838-6.83567 1.49389-6.7904 1.35808-6.7904 1.22227-6.7904 1.09778-6.83567 0.984608-6.94884 0.871435-7.0507 0.814848-7.17519 0.814848-7.33363 0.814848-7.49207 0.871435-7.62788 0.984608-7.72974 1.09778-7.83159 1.22227-7.87686 1.35808-7.87686 1.49389-7.87686 1.61838-7.83159 1.73155-7.72974 1.84473-7.62788 1.90131-7.49207 1.90131-7.33363ZM1.73155 0 0.984608 0 0.984608-5.29651 1.73155-5.29651 1.73155 0Z" stroke="#000000" stroke-width="0.226347" stroke-linejoin="round" stroke-miterlimit="2" transform="matrix(0.928487 0.375968 -0.376869 0.926268 541.227 263.76)"/><path d="M3.28203-4.61747 2.0258-4.61747 2.0258 0 1.27886 0 1.27886-4.61747 0.158443-4.61747 0.158443-5.29651 1.27886-5.29651 1.27886-6.74513C1.27886-7.4468 1.4373-7.94477 1.7655-8.25033 2.09371-8.54459 2.52376-8.69171 3.05568-8.69171 3.15754-8.69171 3.27071-8.68039 3.38388-8.66908 3.48574-8.65776 3.59891-8.63512 3.70077-8.61249L3.56496-7.93345C3.47442-7.95608 3.38388-7.97872 3.28203-7.99004 3.18017-8.00135 3.08963-8.01267 2.98778-8.01267 2.78406-8.01267 2.6143-7.97872 2.48981-7.91081 2.36532-7.84291 2.26347-7.75237 2.19556-7.62788 2.12766-7.50339 2.08239-7.35627 2.05975-7.18651 2.03712-7.01675 2.0258-6.84699 2.0258-6.65459L2.0258-5.29651 3.28203-5.29651 3.28203-4.61747Z" stroke="#000000" stroke-width="0.226347" stroke-linejoin="round" stroke-miterlimit="2" transform="matrix(0.928487 0.375968 -0.376869 0.926268 543.749 264.781)"/><path d="M3.28203-4.61747 2.0258-4.61747 2.0258 0 1.27886 0 1.27886-4.61747 0.158443-4.61747 0.158443-5.29651 1.27886-5.29651 1.27886-6.74513C1.27886-7.4468 1.4373-7.94477 1.7655-8.25033 2.09371-8.54459 2.52376-8.69171 3.05568-8.69171 3.15754-8.69171 3.27071-8.68039 3.38388-8.66908 3.48574-8.65776 3.59891-8.63512 3.70077-8.61249L3.56496-7.93345C3.47442-7.95608 3.38388-7.97872 3.28203-7.99004 3.18017-8.00135 3.08963-8.01267 2.98778-8.01267 2.78406-8.01267 2.6143-7.97872 2.48981-7.91081 2.36532-7.84291 2.26347-7.75237 2.19556-7.62788 2.12766-7.50339 2.08239-7.35627 2.05975-7.18651 2.03712-7.01675 2.0258-6.84699 2.0258-6.65459L2.0258-5.29651 3.28203-5.29651 3.28203-4.61747Z" stroke="#000000" stroke-width="0.226347" stroke-linejoin="round" stroke-miterlimit="2" transform="matrix(0.928487 0.375968 -0.376869 0.926268 546.671 265.965)"/><path d="M4.93436-3.05568C4.93436-3.56496 4.78723-3.97238 4.48166-4.28927 4.1761-4.59484 3.75735-4.75328 3.21412-4.75328 2.97646-4.75328 2.73879-4.70801 2.51245-4.61747 2.2861-4.51561 2.09371-4.39112 1.92395-4.23268 1.75419-4.07424 1.60706-3.89316 1.51652-3.68945 1.41467-3.48574 1.35808-3.27071 1.35808-3.05568L4.93436-3.05568ZM1.33545-2.44454C1.35808-2.18424 1.42598-1.93526 1.52784-1.6976 1.6297-1.45994 1.77682-1.26754 1.94658-1.09778 2.11634-0.928021 2.32005-0.792213 2.5464-0.690357 2.77275-0.588501 3.02173-0.543232 3.28203-0.543232 3.67813-0.543232 4.02897-0.633771 4.32322-0.826165 4.60615-1.00724 4.8325-1.22227 4.97963-1.45994L5.55681-0.984608C5.23992-0.588501 4.88909-0.294251 4.51561-0.124491 4.13083 0.0452693 3.7234 0.135808 3.28203 0.135808 2.88592 0.135808 2.52376 0.067904 2.19556-0.0792213 1.85604-0.215029 1.56179-0.407424 1.32413-0.656405 1.08646-0.905387 0.894069-1.19964 0.758261-1.53916 0.611136-1.87868 0.543232-2.25215 0.543232-2.64826 0.543232-3.04436 0.611136-3.41783 0.746944-3.75735 0.882752-4.09687 1.07515-4.39112 1.31281-4.64011 1.55047-4.88909 1.83341-5.08148 2.16161-5.22861 2.48981-5.36442 2.84065-5.43232 3.21412-5.43232 3.61023-5.43232 3.97238-5.36442 4.28927-5.21729 4.60615-5.07016 4.87777-4.88909 5.0928-4.65142 5.29651-4.41376 5.46627-4.13083 5.57944-3.81394 5.69262-3.48574 5.7492-3.14622 5.7492-2.78406L5.7492-2.44454 1.33545-2.44454Z" stroke="#000000" stroke-width="0.226347" stroke-linejoin="round" stroke-miterlimit="2" transform="matrix(0.928487 0.375968 -0.376869 0.926268 549.782 267.224)"/><path d="M0.894069-3.64418C0.894069-3.88184 0.894069-4.11951 0.882752-4.35717 0.871435-4.59484 0.860117-4.91172 0.8488-5.29651L1.58443-5.29651 1.58443-4.3119 1.60706-4.3119C1.66365-4.45903 1.73155-4.59484 1.83341-4.73064 1.93526-4.85513 2.04844-4.97963 2.19556-5.08148 2.33137-5.18334 2.48981-5.27388 2.68221-5.34178 2.86328-5.39837 3.067-5.43232 3.30466-5.43232 3.51969-5.43232 3.70077-5.40968 3.85921-5.36442L3.71208-4.62879C3.61023-4.66274 3.47442-4.68538 3.28203-4.68538 2.99909-4.68538 2.75011-4.62879 2.5464-4.52693 2.34269-4.41376 2.17293-4.27795 2.03712-4.10819 1.90131-3.92711 1.79946-3.74604 1.74287-3.55364 1.67497-3.36125 1.64101-3.16885 1.64101-2.98778L1.64101 0 0.894069 0 0.894069-3.64418Z" stroke="#000000" stroke-width="0.226347" stroke-linejoin="round" stroke-miterlimit="2" transform="matrix(0.928487 0.375968 -0.376869 0.926268 555.623 269.589)"/></g></svg>