<svg width="276" height="155" xmlns="http://www.w3.org/2000/svg" xmlns:xlink="http://www.w3.org/1999/xlink" xml:space="preserve" overflow="hidden"><g transform="translate(-437 -879)"><path d="M143.714 110.229C143.714 114.014 140.646 117.082 136.861 117.082 133.076 117.082 130.008 114.014 130.008 110.229 130.008 106.444 133.076 103.376 136.861 103.376 140.646 103.376 143.714 106.444 143.714 110.229Z" stroke="#3E25D0" stroke-width="0.287872" stroke-linecap="round" stroke-linejoin="round" stroke-miterlimit="1.5" fill="#4729DA" fill-rule="evenodd" transform="matrix(1.00231 0 0 1 390.754 817.063)"/><path d="M143.714 110.229C143.714 114.014 140.646 117.082 136.861 117.082 133.076 117.082 130.008 114.014 130.008 110.229 130.008 106.444 133.076 103.376 136.861 103.376 140.646 103.376 143.714 106.444 143.714 110.229Z" stroke="#3E25D0" stroke-width="0.287872" stroke-linecap="round" stroke-linejoin="round" stroke-miterlimit="1.5" fill="#4729DA" fill-rule="evenodd" transform="matrix(1.00231 0 0 1 448.622 817.063)"/><path d="M143.714 110.229C143.714 114.014 140.646 117.082 136.861 117.082 133.076 117.082 130.008 114.014 130.008 110.229 130.008 106.444 133.076 103.376 136.861 103.376 140.646 103.376 143.714 106.444 143.714 110.229Z" stroke="#3E25D0" stroke-width="0.287872" stroke-linecap="round" stroke-linejoin="round" stroke-miterlimit="1.5" fill="#4729DA" fill-rule="evenodd" transform="matrix(1.00231 0 0 1 506.185 817.063)"/><path d="M143.714 110.229C143.714 114.014 140.646 117.082 136.861 117.082 133.076 117.082 130.008 114.014 130.008 110.229 130.008 106.444 133.076 103.376 136.861 103.376 140.646 103.376 143.714 106.444 143.714 110.229Z" stroke="#3E25D0" stroke-width="0.287872" stroke-linecap="round" stroke-linejoin="round" stroke-miterlimit="1.5" fill="#2964DA" fill-rule="evenodd" transform="matrix(1.00231 0 0 1 390.754 859.316)"/><path d="M143.714 110.229C143.714 114.014 140.646 117.082 136.861 117.082 133.076 117.082 130.008 114.014 130.008 110.229 130.008 106.444 133.076 103.376 136.861 103.376 140.646 103.376 143.714 106.444 143.714 110.229Z" stroke="#3E25D0" stroke-width="0.287872" stroke-linecap="round" stroke-linejoin="round" stroke-miterlimit="1.5" fill="#2964DA" fill-rule="evenodd" transform="matrix(1.00231 0 0 1 448.622 859.316)"/><path d="M143.714 110.229C143.714 114.014 140.646 117.082 136.861 117.082 133.076 117.082 130.008 114.014 130.008 110.229 130.008 106.444 133.076 103.376 136.861 103.376 140.646 103.376 143.714 106.444 143.714 110.229Z" stroke="#3E25D0" stroke-width="0.287872" stroke-linecap="round" stroke-linejoin="round" stroke-miterlimit="1.5" fill="#2964DA" fill-rule="evenodd" transform="matrix(1.00231 0 0 1 506.185 859.316)"/><path d="M193.514 91.5647 251.149 91.5647" stroke="#6EC784" stroke-width="4.27762" stroke-linecap="round" stroke-linejoin="round" stroke-miterlimit="1.5" fill="none" fill-rule="evenodd" transform="matrix(1.00231 0 0 1 390.754 817.063)"/><path d="M212.625 76.2472 221.307 54.2527 223.592 54.2527 232.459 76.2472 212.625 76.2472ZM222.419 56.3222 215.437 74.3319 229.493 74.3319 222.419 56.3222Z" stroke="#21B73B" stroke-width="0.287872" stroke-linejoin="round" stroke-miterlimit="2" fill="#47A752" transform="matrix(1.00231 0 0 1 382.824 824.892)"/><path d="M238.822 68.5244 233.57 61.7901 236.351 61.7901 240.367 67.196 244.196 61.7901 246.73 61.7901 241.694 68.5244 247.749 76.2472 244.97 76.2472 240.119 69.9144 235.454 76.2472 232.86 76.2472 238.822 68.5244Z" stroke="#21B73B" stroke-width="0.287872" stroke-linejoin="round" stroke-miterlimit="2" fill="#47A752" transform="matrix(1.00231 0 0 1 382.824 824.892)"/><path d="M212.625 76.2472 221.307 54.2527 223.592 54.2527 232.459 76.2472 212.625 76.2472ZM222.419 56.3222 215.437 74.3319 229.493 74.3319 222.419 56.3222Z" stroke="#B72198" stroke-width="0.287872" stroke-linejoin="round" stroke-miterlimit="2" fill="#9E47A7" transform="matrix(1.00231 0 0 1 469.333 881.24)"/><path d="M242.559 63.6435 238.389 63.6435 238.389 72.1695C238.389 72.7049 238.44 73.1426 238.545 73.4823 238.647 73.8222 238.791 74.0847 238.976 74.2702 239.162 74.4555 239.383 74.5842 239.64 74.6562 239.898 74.7283 240.182 74.7644 240.49 74.7644 240.84 74.7644 241.201 74.7129 241.571 74.6099 241.942 74.507 242.282 74.373 242.59 74.2084L242.684 76.0926C241.921 76.4427 241.005 76.6178 239.934 76.6178 239.542 76.6178 239.136 76.5663 238.714 76.4634 238.291 76.3604 237.905 76.1648 237.555 75.8765 237.205 75.5882 236.917 75.1968 236.69 74.7026 236.464 74.2084 236.351 73.5597 236.351 72.7564L236.351 63.6435 233.293 63.6435 233.293 61.7901 236.351 61.7901 236.351 57.7124 238.389 57.7124 238.389 61.7901 242.559 61.7901 242.559 63.6435Z" stroke="#B72198" stroke-width="0.287872" stroke-linejoin="round" stroke-miterlimit="2" fill="#9E47A7" transform="matrix(1.00231 0 0 1 469.333 881.24)"/><path d="M107.386 166.923C107.386 167.386 107.221 167.767 106.889 168.065 106.558 168.363 106.194 168.512 105.797 168.512 105.4 168.512 105.035 168.363 104.704 168.065 104.373 167.767 104.207 167.386 104.207 166.923 104.207 166.459 104.373 166.078 104.704 165.78 105.035 165.482 105.4 165.333 105.797 165.333 106.194 165.333 106.558 165.482 106.889 165.78 107.221 166.078 107.386 166.459 107.386 166.923ZM101.095 194.106 101.194 194.139C101.371 194.183 101.564 194.228 101.774 194.272 101.983 194.316 102.177 194.338 102.353 194.338 102.883 194.338 103.308 194.239 103.628 194.04 103.948 193.842 104.185 193.582 104.34 193.262 104.494 192.942 104.594 192.594 104.638 192.219 104.682 191.844 104.704 191.468 104.704 191.093L104.704 172.882 106.889 172.882 106.889 191.458C106.889 191.678 106.878 192.059 106.856 192.6 106.834 193.141 106.696 193.687 106.442 194.239 106.188 194.79 105.758 195.276 105.151 195.696 104.544 196.115 103.667 196.325 102.519 196.325 101.901 196.325 101.327 196.214 100.797 195.994L101.095 194.106Z" stroke="#000000" stroke-width="0.289774" stroke-linejoin="round" stroke-miterlimit="2" transform="matrix(1.00231 0 0 1 336.115 747.244)"/><path d="M130.994 177.352 138.444 177.352 138.444 179.339 130.994 179.339 130.994 186.789 129.007 186.789 129.007 179.339 121.557 179.339 121.557 177.352 129.007 177.352 129.007 169.902 130.994 169.902 130.994 177.352Z" stroke="#000000" stroke-width="0.289774" stroke-linejoin="round" stroke-miterlimit="2" transform="matrix(1.00231 0 0 1 336.115 747.244)"/><path d="M161.753 188.378 159.37 188.378 159.37 167.916 155.165 171.624 153.675 169.836 159.634 164.936 161.753 164.936 161.753 188.378Z" stroke="#000000" stroke-width="0.289774" stroke-linejoin="round" stroke-miterlimit="2" transform="matrix(1.00231 0 0 1 336.115 747.244)"/><path d="M100.188 155.734C100.188 156.167 100.034 156.522 99.7251 156.8 99.4162 157.078 99.0763 157.217 98.7056 157.217 98.3351 157.217 97.9951 157.078 97.6862 156.8 97.3773 156.522 97.2229 156.167 97.2229 155.734 97.2229 155.302 97.3773 154.947 97.6862 154.669 97.9951 154.391 98.3351 154.252 98.7056 154.252 99.0763 154.252 99.4162 154.391 99.7251 154.669 100.034 154.947 100.188 155.302 100.188 155.734ZM94.319 181.096 94.4117 181.127C94.5765 181.168 94.7568 181.21 94.9524 181.251 95.148 181.292 95.3283 181.313 95.4929 181.313 95.9872 181.313 96.3836 181.22 96.6822 181.034 96.9809 180.849 97.2022 180.607 97.3465 180.308 97.4906 180.01 97.5833 179.685 97.6244 179.335 97.6655 178.985 97.6862 178.635 97.6862 178.285L97.6862 161.295 99.7251 161.295 99.7251 178.625C99.7251 178.831 99.7148 179.186 99.6941 179.691 99.6737 180.195 99.5448 180.705 99.3081 181.22 99.0711 181.734 98.6696 182.188 98.1033 182.579 97.5369 182.97 96.7184 183.166 95.6473 183.166 95.0709 183.166 94.5353 183.063 94.0412 182.857L94.319 181.096Z" stroke="#000000" stroke-width="0.289159" stroke-linejoin="round" stroke-miterlimit="2" transform="matrix(1.00231 0 0 1 366.299 806.78)"/><path d="M131.878 186.924 128.402 182.466 130.242 182.466 132.9 186.045 135.436 182.466 137.113 182.466 133.78 186.924 137.787 192.035 135.947 192.035 132.737 187.843 129.649 192.035 127.932 192.035 131.878 186.924Z" stroke="#000000" stroke-width="0.287872" stroke-linejoin="round" stroke-miterlimit="2" transform="matrix(1.00231 0 0 1 389.799 806.403)"/><path d="M175.595 237.028C175.595 237.149 175.552 237.246 175.467 237.324 175.381 237.4 175.287 237.439 175.185 237.439 175.082 237.439 174.988 237.4 174.903 237.324 174.817 237.246 174.774 237.149 174.774 237.028 174.774 236.908 174.817 236.811 174.903 236.734 174.988 236.656 175.082 236.618 175.185 236.618 175.287 236.618 175.381 236.656 175.467 236.734 175.552 236.811 175.595 236.908 175.595 237.028ZM175.467 242.568 174.903 242.568 174.903 238.567 175.467 238.567 175.467 242.568Z" stroke="#000000" stroke-width="0.288223" stroke-linejoin="round" stroke-miterlimit="2" transform="matrix(1.00231 0 0 1 355.091 761.063)"/><path d="M178.912 240.235 181.109 240.235 181.109 240.799 178.912 240.799Z" stroke="#000000" stroke-width="0.288223" stroke-linejoin="round" stroke-miterlimit="2" transform="matrix(1.00231 0 0 1 355.091 761.063)"/><path d="M186.785 242.568 186.17 242.568 186.17 237.284 185.084 238.242 184.699 237.78 186.238 236.515 186.785 236.515 186.785 242.568Z" stroke="#000000" stroke-width="0.288223" stroke-linejoin="round" stroke-miterlimit="2" transform="matrix(1.00231 0 0 1 355.091 761.063)"/><path d="M131.878 186.924 128.402 182.466 130.242 182.466 132.9 186.045 135.436 182.466 137.113 182.466 133.78 186.924 137.787 192.035 135.947 192.035 132.737 187.843 129.649 192.035 127.932 192.035 131.878 186.924Z" stroke="#000000" stroke-width="0.287872" stroke-linejoin="round" stroke-miterlimit="2" transform="matrix(1.00231 0 0 1 450.832 806.403)"/><path d="M175.595 237.028C175.595 237.149 175.552 237.246 175.467 237.324 175.381 237.4 175.287 237.439 175.185 237.439 175.082 237.439 174.988 237.4 174.903 237.324 174.817 237.246 174.774 237.149 174.774 237.028 174.774 236.908 174.817 236.811 174.903 236.734 174.988 236.656 175.082 236.618 175.185 236.618 175.287 236.618 175.381 236.656 175.467 236.734 175.552 236.811 175.595 236.908 175.595 237.028ZM175.467 242.568 174.903 242.568 174.903 238.567 175.467 238.567 175.467 242.568Z" stroke="#000000" stroke-width="0.288223" stroke-linejoin="round" stroke-miterlimit="2" transform="matrix(1.00231 0 0 1 416.124 761.063)"/><path d="M131.878 186.924 128.402 182.466 130.242 182.466 132.9 186.045 135.436 182.466 137.113 182.466 133.78 186.924 137.787 192.035 135.947 192.035 132.737 187.843 129.649 192.035 127.932 192.035 131.878 186.924Z" stroke="#000000" stroke-width="0.287872" stroke-linejoin="round" stroke-miterlimit="2" transform="matrix(1.00231 0 0 1 506.012 806.403)"/><path d="M175.595 237.028C175.595 237.149 175.552 237.246 175.467 237.324 175.381 237.4 175.287 237.439 175.185 237.439 175.082 237.439 174.988 237.4 174.903 237.324 174.817 237.246 174.774 237.149 174.774 237.028 174.774 236.908 174.817 236.811 174.903 236.734 174.988 236.656 175.082 236.618 175.185 236.618 175.287 236.618 175.381 236.656 175.467 236.734 175.552 236.811 175.595 236.908 175.595 237.028ZM175.467 242.568 174.903 242.568 174.903 238.567 175.467 238.567 175.467 242.568Z" stroke="#000000" stroke-width="0.288223" stroke-linejoin="round" stroke-miterlimit="2" transform="matrix(1.00231 0 0 1 471.303 761.063)"/><path d="M181.69 239.722 183.614 239.722 183.614 240.235 181.69 240.235 181.69 242.157 181.177 242.157 181.177 240.235 179.254 240.235 179.254 239.722 181.177 239.722 181.177 237.797 181.69 237.797 181.69 239.722Z" stroke="#000000" stroke-width="0.288223" stroke-linejoin="round" stroke-miterlimit="2" transform="matrix(1.00231 0 0 1 471.303 761.063)"/><path d="M189.632 242.568 189.016 242.568 189.016 237.284 187.931 238.242 187.546 237.78 189.085 236.515 189.632 236.515 189.632 242.568Z" stroke="#000000" stroke-width="0.288223" stroke-linejoin="round" stroke-miterlimit="2" transform="matrix(1.00231 0 0 1 471.303 761.063)"/><path d="M750.078 303.658 750.078 345.998" stroke="#C649AD" stroke-width="3.79862" stroke-linecap="round" stroke-linejoin="round" stroke-miterlimit="1.5" fill="none" fill-rule="evenodd" transform="matrix(1 0 0 1.03928 -78.0264 610.831)"/><path d="M151.739 69.9038 151.739 89.1812" stroke="#000000" stroke-width="1.5672" stroke-linecap="round" stroke-linejoin="round" stroke-miterlimit="1.5" fill="none" fill-rule="evenodd" transform="matrix(1.00231 0 0 1 405.758 848.544)"/><path d="M154.874 71.3484 154.874 91.024" stroke="#000000" stroke-width="1.56709" stroke-linecap="round" stroke-linejoin="round" stroke-miterlimit="1.5" fill="none" fill-rule="evenodd" transform="matrix(1.00231 0 0 1 459.682 847.099)"/><path d="M151.739 69.9038 151.739 89.1812" stroke="#000000" stroke-width="1.5672" stroke-linecap="round" stroke-linejoin="round" stroke-miterlimit="1.5" fill="none" fill-rule="evenodd" transform="matrix(1.00231 0 0 1 405.758 889.907)"/><path d="M154.874 71.3484 154.874 91.024" stroke="#000000" stroke-width="1.56709" stroke-linecap="round" stroke-linejoin="round" stroke-miterlimit="1.5" fill="none" fill-rule="evenodd" transform="matrix(1.00231 0 0 1 459.682 888.463)"/><path d="M584.74 328.99 622.419 301.139" stroke="#FF1900" stroke-width="1.56732" stroke-linecap="round" stroke-linejoin="round" stroke-miterlimit="1.5" fill="none" fill-rule="evenodd" transform="matrix(1.00231 0 0 1 -48.8786 633.323)"/><path d="M622.419 301.139 616.008 301.139" stroke="#FF1900" stroke-width="1.56732" stroke-linecap="round" stroke-linejoin="round" stroke-miterlimit="1.5" fill="none" fill-rule="evenodd" transform="matrix(1.00231 0 0 1 -48.8786 633.323)"/><path d="M622.419 301.139 622.419 307.102" stroke="#FF1900" stroke-width="1.56732" stroke-linecap="round" stroke-linejoin="round" stroke-miterlimit="1.5" fill="none" fill-rule="evenodd" transform="matrix(1.00231 0 0 1 -48.8786 633.323)"/><path d="M633.679 326.239 633.679 305.012" stroke="#FF1900" stroke-width="1.56732" stroke-linecap="round" stroke-linejoin="round" stroke-miterlimit="1.5" fill="none" fill-rule="evenodd" transform="matrix(1.00231 0 0 1 -48.8786 633.323)"/><path d="M633.679 305.012 629.615 309.079" stroke="#FF1900" stroke-width="1.56732" stroke-linecap="round" stroke-linejoin="round" stroke-miterlimit="1.5" fill="none" fill-rule="evenodd" transform="matrix(1.00231 0 0 1 -48.8786 633.323)"/><path d="M633.679 305.012 638.337 309.671" stroke="#FF1900" stroke-width="1.56732" stroke-linecap="round" stroke-linejoin="round" stroke-miterlimit="1.5" fill="none" fill-rule="evenodd" transform="matrix(1.00231 0 0 1 -48.8786 633.323)"/><path d="M683.276 327.111 644.332 302.478" stroke="#FF1900" stroke-width="1.56732" stroke-linecap="round" stroke-linejoin="round" stroke-miterlimit="1.5" fill="none" fill-rule="evenodd" transform="matrix(1.00231 0 0 1 -48.8786 633.323)"/><path d="M644.332 302.478 644.332 307.847" stroke="#FF1900" stroke-width="1.56732" stroke-linecap="round" stroke-linejoin="round" stroke-miterlimit="1.5" fill="none" fill-rule="evenodd" transform="matrix(1.00231 0 0 1 -48.8786 633.323)"/><path d="M644.332 302.478 650.893 302.478" stroke="#FF1900" stroke-width="1.56732" stroke-linecap="round" stroke-linejoin="round" stroke-miterlimit="1.5" fill="none" fill-rule="evenodd" transform="matrix(1.00231 0 0 1 -48.8786 633.323)"/><path d="M839.6 602.091C839.6 604.753 837.442 606.911 834.78 606.911 832.118 606.911 829.961 604.753 829.961 602.091 829.961 599.429 832.118 597.272 834.78 597.272 837.442 597.272 839.6 599.429 839.6 602.091Z" stroke="#FF1900" stroke-width="1.56891" stroke-linecap="round" stroke-linejoin="round" stroke-miterlimit="1.5" fill="#F13D29" fill-rule="evenodd" transform="matrix(1.00231 0 0 1 -344.598 426.092)"/><path d="M859.027 599.422C859.027 599.644 858.947 599.827 858.791 599.97 858.631 600.112 858.457 600.184 858.265 600.184 858.073 600.184 857.9 600.112 857.739 599.97 857.583 599.827 857.503 599.644 857.503 599.422 857.503 599.199 857.583 599.016 857.739 598.873 857.9 598.731 858.073 598.659 858.265 598.659 858.457 598.659 858.631 598.731 858.791 598.873 858.947 599.016 859.027 599.199 859.027 599.422ZM858.791 609.727 857.739 609.727 857.739 602.283 858.791 602.283 858.791 609.727Z" stroke="#B72121" stroke-width="0.289713" stroke-linejoin="round" stroke-miterlimit="2" fill="#BF2134" transform="matrix(1.00231 0 0 1 -350.465 421.376)"/><path d="M862.321 602.283C862.343 602.484 862.357 602.684 862.361 602.88 862.366 603.077 862.37 603.273 862.37 603.478L862.401 603.478C862.517 603.273 862.664 603.09 862.847 602.92 863.025 602.751 863.226 602.604 863.449 602.484 863.672 602.359 863.908 602.265 864.157 602.194 864.407 602.127 864.652 602.091 864.897 602.091 865.851 602.091 866.555 602.346 867.01 602.849 867.465 603.353 867.696 604.07 867.696 605.002L867.696 609.727 866.644 609.727 866.644 605.608C866.644 604.779 866.502 604.146 866.217 603.705 865.931 603.268 865.401 603.045 864.625 603.045 864.572 603.045 864.425 603.068 864.18 603.112 863.935 603.152 863.68 603.268 863.409 603.46 863.141 603.651 862.896 603.937 862.687 604.32 862.473 604.699 862.37 605.229 862.37 605.907L862.37 609.727 861.318 609.727 861.318 603.919C861.318 603.718 861.309 603.464 861.296 603.157 861.278 602.849 861.26 602.559 861.238 602.283L862.321 602.283Z" stroke="#B72121" stroke-width="0.289713" stroke-linejoin="round" stroke-miterlimit="2" fill="#BF2134" transform="matrix(1.00231 0 0 1 -350.465 421.376)"/><path d="M873.624 603.237 871.859 603.237 871.859 609.727 870.812 609.727 870.812 603.237 869.238 603.237 869.238 602.283 870.812 602.283 870.812 600.246C870.812 599.261 871.039 598.561 871.494 598.142 871.948 597.724 872.555 597.514 873.308 597.514 873.455 597.514 873.607 597.523 873.762 597.545 873.914 597.567 874.066 597.594 874.213 597.625L874.021 598.579C873.896 598.548 873.762 598.521 873.624 598.499 873.486 598.477 873.348 598.468 873.21 598.468 872.925 598.468 872.693 598.517 872.514 598.61 872.332 598.704 872.194 598.842 872.1 599.016 872.002 599.19 871.94 599.395 871.908 599.627 871.877 599.863 871.859 600.108 871.859 600.375L871.859 602.283 873.624 602.283 873.624 603.237Z" stroke="#B72121" stroke-width="0.289713" stroke-linejoin="round" stroke-miterlimit="2" fill="#BF2134" transform="matrix(1.00231 0 0 1 -350.465 421.376)"/><path d="M881.242 606.005C881.242 605.59 881.175 605.203 881.041 604.842 880.912 604.485 880.724 604.169 880.479 603.906 880.234 603.643 879.94 603.433 879.597 603.277 879.249 603.121 878.861 603.045 878.429 603.045 877.992 603.045 877.604 603.121 877.257 603.277 876.914 603.433 876.624 603.643 876.383 603.906 876.147 604.169 875.96 604.485 875.826 604.842 875.697 605.203 875.63 605.59 875.63 606.005 875.63 606.419 875.697 606.803 875.826 607.164 875.96 607.525 876.147 607.837 876.383 608.104 876.624 608.367 876.914 608.577 877.257 608.733 877.604 608.884 877.992 608.96 878.429 608.96 878.861 608.96 879.249 608.884 879.597 608.733 879.94 608.577 880.234 608.367 880.479 608.104 880.724 607.837 880.912 607.525 881.041 607.164 881.175 606.803 881.242 606.419 881.242 606.005ZM882.387 606.005C882.387 606.566 882.289 607.083 882.093 607.56 881.897 608.037 881.625 608.452 881.273 608.804 880.925 609.152 880.506 609.423 880.025 609.62 879.543 609.816 879.009 609.914 878.429 609.914 877.854 609.914 877.328 609.816 876.847 609.62 876.361 609.423 875.946 609.152 875.599 608.804 875.247 608.452 874.975 608.037 874.779 607.56 874.583 607.083 874.485 606.566 874.485 606.005 874.485 605.443 874.583 604.922 874.779 604.445 874.975 603.968 875.247 603.553 875.599 603.206 875.946 602.858 876.361 602.582 876.847 602.386 877.328 602.19 877.854 602.091 878.429 602.091 879.009 602.091 879.543 602.19 880.025 602.386 880.506 602.582 880.925 602.858 881.273 603.206 881.625 603.553 881.897 603.968 882.093 604.445 882.289 604.922 882.387 605.443 882.387 606.005Z" stroke="#B72121" stroke-width="0.289713" stroke-linejoin="round" stroke-miterlimit="2" fill="#BF2134" transform="matrix(1.00231 0 0 1 -350.465 421.376)"/><path d="M884.406 604.605C884.406 604.275 884.397 603.941 884.384 603.602 884.366 603.264 884.353 602.822 884.344 602.283L885.373 602.283 885.373 603.665 885.409 603.665C885.48 603.464 885.587 603.273 885.725 603.085 885.864 602.903 886.029 602.733 886.225 602.586 886.421 602.435 886.653 602.319 886.911 602.23 887.169 602.136 887.464 602.091 887.794 602.091 888.088 602.091 888.351 602.123 888.573 602.19L888.364 603.219C888.226 603.17 888.025 603.143 887.762 603.143 887.357 603.143 887.013 603.219 886.728 603.371 886.443 603.527 886.202 603.723 886.011 603.959 885.819 604.2 885.681 604.458 885.592 604.73 885.503 605.006 885.453 605.274 885.453 605.528L885.453 609.727 884.406 609.727 884.406 604.605Z" stroke="#B72121" stroke-width="0.289713" stroke-linejoin="round" stroke-miterlimit="2" fill="#BF2134" transform="matrix(1.00231 0 0 1 -350.465 421.376)"/><path d="M889.862 603.937C889.862 603.66 889.853 603.384 889.835 603.112 889.822 602.836 889.804 602.559 889.781 602.283L890.909 602.283 890.909 603.411 890.94 603.411C891.194 602.978 891.546 602.649 891.997 602.426 892.447 602.203 892.897 602.091 893.343 602.091 893.543 602.091 893.757 602.114 893.984 602.158 894.212 602.198 894.435 602.274 894.644 602.386 894.858 602.497 895.054 602.653 895.241 602.858 895.429 603.059 895.585 603.317 895.709 603.634 895.923 603.157 896.258 602.782 896.721 602.506 897.18 602.23 897.662 602.091 898.161 602.091 899.115 602.091 899.819 602.346 900.273 602.849 900.733 603.353 900.96 604.07 900.96 605.002L900.96 609.727 899.908 609.727 899.908 605.385C899.908 604.632 899.774 604.053 899.511 603.651 899.248 603.246 898.754 603.045 898.032 603.045 897.639 603.045 897.314 603.121 897.047 603.277 896.784 603.433 896.565 603.634 896.4 603.888 896.24 604.142 896.119 604.431 896.044 604.757 895.972 605.078 895.932 605.417 895.932 605.764L895.932 609.727 894.885 609.727 894.885 605.385C894.885 604.632 894.751 604.053 894.488 603.651 894.221 603.246 893.73 603.045 893.008 603.045 892.946 603.045 892.799 603.068 892.572 603.112 892.344 603.152 892.108 603.268 891.863 603.46 891.618 603.651 891.399 603.937 891.203 604.32 891.007 604.699 890.909 605.229 890.909 605.907L890.909 609.727 889.862 609.727 889.862 603.937Z" stroke="#B72121" stroke-width="0.289713" stroke-linejoin="round" stroke-miterlimit="2" fill="#BF2134" transform="matrix(1.00231 0 0 1 -350.465 421.376)"/><path d="M907.637 606.018C907.374 606.018 907.039 606.032 906.643 606.058 906.246 606.085 905.863 606.147 905.497 606.25 905.132 606.352 904.82 606.508 904.561 606.718 904.298 606.932 904.169 607.222 904.169 607.596 904.169 607.837 904.222 608.046 904.321 608.224 904.423 608.398 904.557 608.541 904.726 608.652 904.896 608.764 905.083 608.844 905.292 608.889 905.497 608.938 905.707 608.96 905.921 608.96 906.299 608.96 906.634 608.898 906.915 608.773 907.195 608.643 907.432 608.47 907.619 608.256 907.81 608.037 907.953 607.783 908.042 607.489 908.131 607.199 908.176 606.887 908.176 606.562L908.176 606.018 907.637 606.018ZM908.176 605.162 908.176 604.971C908.176 603.687 907.539 603.045 906.268 603.045 905.399 603.045 904.641 603.339 903.995 603.919L903.358 603.175C904.058 602.453 905.109 602.091 906.509 602.091 906.866 602.091 907.213 602.145 907.548 602.252 907.882 602.359 908.172 602.519 908.417 602.738 908.657 602.956 908.853 603.228 909.005 603.553 909.152 603.883 909.228 604.275 909.228 604.73L909.228 608.055C909.228 608.34 909.241 608.639 909.268 608.955 909.295 609.267 909.321 609.521 909.353 609.727L908.336 609.727C908.305 609.544 908.279 609.348 908.265 609.138 908.247 608.924 908.243 608.719 908.243 608.519L908.207 608.519C907.9 609.013 907.539 609.37 907.12 609.588 906.701 609.807 906.188 609.914 905.586 609.914 905.257 609.914 904.94 609.869 904.633 609.78 904.325 609.691 904.053 609.553 903.812 609.366 903.576 609.183 903.385 608.955 903.242 608.684 903.095 608.412 903.024 608.1 903.024 607.739 903.024 607.133 903.184 606.66 903.496 606.312 903.808 605.969 904.2 605.711 904.673 605.541 905.141 605.372 905.644 605.269 906.184 605.225 906.719 605.185 907.209 605.162 907.65 605.162L908.176 605.162Z" stroke="#B72121" stroke-width="0.289713" stroke-linejoin="round" stroke-miterlimit="2" fill="#BF2134" transform="matrix(1.00231 0 0 1 -350.465 421.376)"/><path d="M915.508 603.237 913.36 603.237 913.36 607.627C913.36 607.904 913.386 608.126 913.44 608.3 913.493 608.479 913.569 608.612 913.663 608.706 913.756 608.804 913.872 608.871 914.006 608.906 914.135 608.942 914.282 608.96 914.443 608.96 914.621 608.96 914.808 608.933 915 608.884 915.192 608.831 915.365 608.759 915.521 608.675L915.57 609.646C915.178 609.825 914.706 609.914 914.157 609.914 913.952 609.914 913.743 609.891 913.529 609.838 913.311 609.784 913.11 609.682 912.932 609.535 912.753 609.383 912.602 609.183 912.486 608.929 912.37 608.675 912.312 608.34 912.312 607.926L912.312 603.237 910.739 603.237 910.739 602.283 912.312 602.283 912.312 600.184 913.36 600.184 913.36 602.283 915.508 602.283 915.508 603.237Z" stroke="#B72121" stroke-width="0.289713" stroke-linejoin="round" stroke-miterlimit="2" fill="#BF2134" transform="matrix(1.00231 0 0 1 -350.465 421.376)"/><path d="M918.463 599.422C918.463 599.644 918.387 599.827 918.227 599.97 918.066 600.112 917.892 600.184 917.701 600.184 917.509 600.184 917.335 600.112 917.175 599.97 917.019 599.827 916.939 599.644 916.939 599.422 916.939 599.199 917.019 599.016 917.175 598.873 917.335 598.731 917.509 598.659 917.701 598.659 917.892 598.659 918.066 598.731 918.227 598.873 918.387 599.016 918.463 599.199 918.463 599.422ZM918.227 609.727 917.175 609.727 917.175 602.283 918.227 602.283 918.227 609.727Z" stroke="#B72121" stroke-width="0.289713" stroke-linejoin="round" stroke-miterlimit="2" fill="#BF2134" transform="matrix(1.00231 0 0 1 -350.465 421.376)"/><path d="M927.132 606.005C927.132 605.59 927.065 605.203 926.932 604.842 926.798 604.485 926.611 604.169 926.365 603.906 926.125 603.643 925.831 603.433 925.483 603.277 925.14 603.121 924.752 603.045 924.315 603.045 923.883 603.045 923.491 603.121 923.147 603.277 922.804 603.433 922.51 603.643 922.274 603.906 922.033 604.169 921.85 604.485 921.717 604.842 921.583 605.203 921.516 605.59 921.516 606.005 921.516 606.419 921.583 606.803 921.717 607.164 921.85 607.525 922.033 607.837 922.274 608.104 922.51 608.367 922.804 608.577 923.147 608.733 923.491 608.884 923.883 608.96 924.315 608.96 924.752 608.96 925.14 608.884 925.483 608.733 925.831 608.577 926.125 608.367 926.365 608.104 926.611 607.837 926.798 607.525 926.932 607.164 927.065 606.803 927.132 606.419 927.132 606.005ZM928.278 606.005C928.278 606.566 928.175 607.083 927.979 607.56 927.783 608.037 927.511 608.452 927.163 608.804 926.811 609.152 926.397 609.423 925.915 609.62 925.434 609.816 924.899 609.914 924.315 609.914 923.745 609.914 923.214 609.816 922.733 609.62 922.252 609.423 921.837 609.152 921.485 608.804 921.137 608.452 920.861 608.037 920.665 607.56 920.469 607.083 920.371 606.566 920.371 606.005 920.371 605.443 920.469 604.922 920.665 604.445 920.861 603.968 921.137 603.553 921.485 603.206 921.837 602.858 922.252 602.582 922.733 602.386 923.214 602.19 923.745 602.091 924.315 602.091 924.899 602.091 925.434 602.19 925.915 602.386 926.397 602.582 926.811 602.858 927.163 603.206 927.511 603.553 927.783 603.968 927.979 604.445 928.175 604.922 928.278 605.443 928.278 606.005Z" stroke="#B72121" stroke-width="0.289713" stroke-linejoin="round" stroke-miterlimit="2" fill="#BF2134" transform="matrix(1.00231 0 0 1 -350.465 421.376)"/><path d="M931.184 602.283C931.206 602.484 931.219 602.684 931.224 602.88 931.228 603.077 931.233 603.273 931.233 603.478L931.264 603.478C931.38 603.273 931.531 603.09 931.71 602.92 931.888 602.751 932.093 602.604 932.316 602.484 932.539 602.359 932.77 602.265 933.02 602.194 933.27 602.127 933.515 602.091 933.76 602.091 934.714 602.091 935.418 602.346 935.877 602.849 936.332 603.353 936.559 604.07 936.559 605.002L936.559 609.727 935.512 609.727 935.512 605.608C935.512 604.779 935.369 604.146 935.079 603.705 934.794 603.268 934.264 603.045 933.492 603.045 933.439 603.045 933.287 603.068 933.047 603.112 932.802 603.152 932.543 603.268 932.276 603.46 932.004 603.651 931.763 603.937 931.549 604.32 931.34 604.699 931.233 605.229 931.233 605.907L931.233 609.727 930.185 609.727 930.185 603.919C930.185 603.718 930.176 603.464 930.159 603.157 930.145 602.849 930.123 602.559 930.105 602.283L931.184 602.283Z" stroke="#B72121" stroke-width="0.289713" stroke-linejoin="round" stroke-miterlimit="2" fill="#BF2134" transform="matrix(1.00231 0 0 1 -350.465 421.376)"/></g></svg>