<svg width="279" height="127" xmlns="http://www.w3.org/2000/svg" xmlns:xlink="http://www.w3.org/1999/xlink" xml:space="preserve" overflow="hidden"><g transform="translate(-402 -468)"><path d="M145.612 111.685C145.612 115.52 142.503 118.629 138.668 118.629 134.834 118.629 131.725 115.52 131.725 111.685 131.725 107.85 134.834 104.742 138.668 104.742 142.503 104.742 145.612 107.85 145.612 111.685Z" stroke="#3E25D0" stroke-width="0.291674" stroke-linecap="round" stroke-linejoin="round" stroke-miterlimit="1.5" fill="#4729DA" fill-rule="evenodd" transform="matrix(1 0 0 1.00291 355.251 405.062)"/><path d="M145.612 111.685C145.612 115.52 142.503 118.629 138.668 118.629 134.834 118.629 131.725 115.52 131.725 111.685 131.725 107.85 134.834 104.742 138.668 104.742 142.503 104.742 145.612 107.85 145.612 111.685Z" stroke="#3E25D0" stroke-width="0.291674" stroke-linecap="round" stroke-linejoin="round" stroke-miterlimit="1.5" fill="#4729DA" fill-rule="evenodd" transform="matrix(1 0 0 1.00291 413.748 405.062)"/><path d="M145.612 111.685C145.612 115.52 142.503 118.629 138.668 118.629 134.834 118.629 131.725 115.52 131.725 111.685 131.725 107.85 134.834 104.742 138.668 104.742 142.503 104.742 145.612 107.85 145.612 111.685Z" stroke="#3E25D0" stroke-width="0.291674" stroke-linecap="round" stroke-linejoin="round" stroke-miterlimit="1.5" fill="#4729DA" fill-rule="evenodd" transform="matrix(1 0 0 1.00291 471.937 405.062)"/><path d="M145.612 111.685C145.612 115.52 142.503 118.629 138.668 118.629 134.834 118.629 131.725 115.52 131.725 111.685 131.725 107.85 134.834 104.742 138.668 104.742 142.503 104.742 145.612 107.85 145.612 111.685Z" stroke="#3E25D0" stroke-width="0.291674" stroke-linecap="round" stroke-linejoin="round" stroke-miterlimit="1.5" fill="#2964DA" fill-rule="evenodd" transform="matrix(1 0 0 1.00291 355.251 447.999)"/><path d="M145.612 111.685C145.612 115.52 142.503 118.629 138.668 118.629 134.834 118.629 131.725 115.52 131.725 111.685 131.725 107.85 134.834 104.742 138.668 104.742 142.503 104.742 145.612 107.85 145.612 111.685Z" stroke="#3E25D0" stroke-width="0.291674" stroke-linecap="round" stroke-linejoin="round" stroke-miterlimit="1.5" fill="#2964DA" fill-rule="evenodd" transform="matrix(1 0 0 1.00291 413.748 447.999)"/><path d="M145.612 111.685C145.612 115.52 142.503 118.629 138.668 118.629 134.834 118.629 131.725 115.52 131.725 111.685 131.725 107.85 134.834 104.742 138.668 104.742 142.503 104.742 145.612 107.85 145.612 111.685Z" stroke="#3E25D0" stroke-width="0.291674" stroke-linecap="round" stroke-linejoin="round" stroke-miterlimit="1.5" fill="#2964DA" fill-rule="evenodd" transform="matrix(1 0 0 1.00291 471.937 447.999)"/><path d="M196.07 92.7741 254.466 92.7741" stroke="#6EC784" stroke-width="4.33412" stroke-linecap="round" stroke-linejoin="round" stroke-miterlimit="1.5" fill="none" fill-rule="evenodd" transform="matrix(1 0 0 1.00291 355.251 405.062)"/><path d="M215.434 77.2542 224.23 54.9692 226.546 54.9692 235.529 77.2542 215.434 77.2542ZM225.357 57.0661 218.283 75.3137 232.524 75.3137 225.357 57.0661Z" stroke="#21B73B" stroke-width="0.291674" stroke-linejoin="round" stroke-miterlimit="2" fill="#47A752" transform="matrix(1 0 0 1.00291 347.235 413.018)"/><path d="M241.976 69.4294 236.655 62.6062 239.472 62.6062 243.541 68.0835 247.422 62.6062 249.988 62.6062 244.886 69.4294 251.021 77.2542 248.205 77.2542 243.291 70.8378 238.564 77.2542 235.936 77.2542 241.976 69.4294Z" stroke="#21B73B" stroke-width="0.291674" stroke-linejoin="round" stroke-miterlimit="2" fill="#47A752" transform="matrix(1 0 0 1.00291 347.235 413.018)"/><path d="M215.434 77.2542 224.23 54.9692 226.546 54.9692 235.529 77.2542 215.434 77.2542ZM225.357 57.0661 218.283 75.3137 232.524 75.3137 225.357 57.0661Z" stroke="#B72198" stroke-width="0.291674" stroke-linejoin="round" stroke-miterlimit="2" fill="#9E47A7" transform="matrix(1 0 0 1.00291 434.685 470.276)"/><path d="M245.763 64.4841 241.538 64.4841 241.538 73.1227C241.538 73.6652 241.59 74.1087 241.695 74.4529 241.799 74.7972 241.944 75.0632 242.132 75.2511 242.321 75.4389 242.545 75.5693 242.805 75.6423 243.067 75.7153 243.354 75.7518 243.666 75.7518 244.021 75.7518 244.387 75.6997 244.762 75.5953 245.137 75.4911 245.482 75.3553 245.794 75.1885L245.889 77.0976C245.117 77.4524 244.188 77.6297 243.103 77.6297 242.706 77.6297 242.294 77.5776 241.867 77.4733 241.438 77.369 241.047 77.1708 240.693 76.8786 240.338 76.5865 240.046 76.19 239.816 75.6892 239.587 75.1885 239.472 74.5312 239.472 73.7174L239.472 64.4841 236.374 64.4841 236.374 62.6062 239.472 62.6062 239.472 58.4746 241.538 58.4746 241.538 62.6062 245.763 62.6062 245.763 64.4841Z" stroke="#B72198" stroke-width="0.291674" stroke-linejoin="round" stroke-miterlimit="2" fill="#9E47A7" transform="matrix(1 0 0 1.00291 434.685 470.276)"/><path d="M108.804 169.127C108.804 169.597 108.637 169.983 108.301 170.284 107.966 170.586 107.597 170.737 107.194 170.737 106.792 170.737 106.422 170.586 106.087 170.284 105.751 169.983 105.584 169.597 105.584 169.127 105.584 168.657 105.751 168.272 106.087 167.97 106.422 167.668 106.792 167.517 107.194 167.517 107.597 167.517 107.966 167.668 108.301 167.97 108.637 168.272 108.804 168.657 108.804 169.127ZM102.43 196.67 102.531 196.703C102.71 196.748 102.906 196.793 103.118 196.838 103.33 196.882 103.526 196.905 103.705 196.905 104.242 196.905 104.672 196.804 104.997 196.603 105.321 196.402 105.561 196.139 105.718 195.814 105.875 195.49 105.975 195.138 106.02 194.758 106.064 194.378 106.087 193.997 106.087 193.617L106.087 175.166 108.301 175.166 108.301 193.986C108.301 194.21 108.29 194.596 108.268 195.144 108.245 195.691 108.105 196.245 107.848 196.804 107.591 197.363 107.155 197.855 106.54 198.28 105.925 198.705 105.036 198.918 103.873 198.918 103.247 198.918 102.665 198.806 102.128 198.582L102.43 196.67Z" stroke="#000000" stroke-width="0.293601" stroke-linejoin="round" stroke-miterlimit="2" transform="matrix(1 0 0 1.00291 300.019 334.116)"/><path d="M132.724 179.695 140.272 179.695 140.272 181.708 132.724 181.708 132.724 189.256 130.711 189.256 130.711 181.708 123.163 181.708 123.163 179.695 130.711 179.695 130.711 172.146 132.724 172.146 132.724 179.695Z" stroke="#000000" stroke-width="0.293601" stroke-linejoin="round" stroke-miterlimit="2" transform="matrix(1 0 0 1.00291 300.019 334.116)"/><path d="M163.89 190.866 161.474 190.866 161.474 170.134 157.214 173.891 155.704 172.079 161.743 167.114 163.89 167.114 163.89 190.866Z" stroke="#000000" stroke-width="0.293601" stroke-linejoin="round" stroke-miterlimit="2" transform="matrix(1 0 0 1.00291 300.019 334.116)"/><path d="M101.512 157.791C101.512 158.23 101.355 158.589 101.042 158.871 100.729 159.153 100.385 159.294 100.009 159.294 99.6338 159.294 99.2894 159.153 98.9764 158.871 98.6634 158.589 98.5069 158.23 98.5069 157.791 98.5069 157.353 98.6634 156.993 98.9764 156.712 99.2894 156.43 99.6338 156.289 100.009 156.289 100.385 156.289 100.729 156.43 101.042 156.712 101.355 156.993 101.512 157.353 101.512 157.791ZM95.5648 183.488 95.6586 183.519C95.8256 183.561 96.0083 183.603 96.2065 183.645 96.4046 183.686 96.5873 183.707 96.7541 183.707 97.255 183.707 97.6566 183.613 97.9591 183.425 98.2618 183.238 98.486 182.992 98.6322 182.69 98.7782 182.387 98.8721 182.059 98.9138 181.704 98.9555 181.349 98.9764 180.994 98.9764 180.64L98.9764 163.425 101.042 163.425 101.042 180.984C101.042 181.193 101.032 181.553 101.011 182.064 100.99 182.575 100.86 183.091 100.62 183.613 100.38 184.135 99.9728 184.594 99.399 184.99 98.8252 185.387 97.9958 185.585 96.9106 185.585 96.3265 185.585 95.7839 185.481 95.2832 185.272L95.5648 183.488Z" stroke="#000000" stroke-width="0.292978" stroke-linejoin="round" stroke-miterlimit="2" transform="matrix(1 0 0 1.00291 330.53 394.614)"/><path d="M133.62 189.393 130.098 184.876 131.963 184.876 134.656 188.502 137.225 184.876 138.924 184.876 135.547 189.393 139.607 194.572 137.743 194.572 134.49 190.324 131.362 194.572 129.622 194.572 133.62 189.393Z" stroke="#000000" stroke-width="0.291674" stroke-linejoin="round" stroke-miterlimit="2" transform="matrix(1 0 0 1.00291 354.286 394.231)"/><path d="M177.914 240.159C177.914 240.281 177.871 240.379 177.784 240.459 177.698 240.536 177.602 240.575 177.498 240.575 177.394 240.575 177.299 240.536 177.213 240.459 177.126 240.379 177.083 240.281 177.083 240.159 177.083 240.037 177.126 239.938 177.213 239.861 177.299 239.782 177.394 239.743 177.498 239.743 177.602 239.743 177.698 239.782 177.784 239.861 177.871 239.938 177.914 240.037 177.914 240.159ZM177.784 245.771 177.213 245.771 177.213 241.718 177.784 241.718 177.784 245.771Z" stroke="#000000" stroke-width="0.29203" stroke-linejoin="round" stroke-miterlimit="2" transform="matrix(1 0 0 1.00291 319.201 348.158)"/><path d="M181.275 243.408 183.501 243.408 183.501 243.98 181.275 243.98Z" stroke="#000000" stroke-width="0.29203" stroke-linejoin="round" stroke-miterlimit="2" transform="matrix(1 0 0 1.00291 319.201 348.158)"/><path d="M189.252 245.771 188.629 245.771 188.629 240.418 187.528 241.389 187.139 240.921 188.698 239.639 189.252 239.639 189.252 245.771Z" stroke="#000000" stroke-width="0.29203" stroke-linejoin="round" stroke-miterlimit="2" transform="matrix(1 0 0 1.00291 319.201 348.158)"/><path d="M133.62 189.393 130.098 184.876 131.963 184.876 134.656 188.502 137.225 184.876 138.924 184.876 135.547 189.393 139.607 194.572 137.743 194.572 134.49 190.324 131.362 194.572 129.622 194.572 133.62 189.393Z" stroke="#000000" stroke-width="0.291674" stroke-linejoin="round" stroke-miterlimit="2" transform="matrix(1 0 0 1.00291 415.982 394.231)"/><path d="M177.914 240.159C177.914 240.281 177.871 240.379 177.784 240.459 177.698 240.536 177.602 240.575 177.498 240.575 177.394 240.575 177.299 240.536 177.213 240.459 177.126 240.379 177.083 240.281 177.083 240.159 177.083 240.037 177.126 239.938 177.213 239.861 177.299 239.782 177.394 239.743 177.498 239.743 177.602 239.743 177.698 239.782 177.784 239.861 177.871 239.938 177.914 240.037 177.914 240.159ZM177.784 245.771 177.213 245.771 177.213 241.718 177.784 241.718 177.784 245.771Z" stroke="#000000" stroke-width="0.29203" stroke-linejoin="round" stroke-miterlimit="2" transform="matrix(1 0 0 1.00291 380.897 348.158)"/><path d="M133.62 189.393 130.098 184.876 131.963 184.876 134.656 188.502 137.225 184.876 138.924 184.876 135.547 189.393 139.607 194.572 137.743 194.572 134.49 190.324 131.362 194.572 129.622 194.572 133.62 189.393Z" stroke="#000000" stroke-width="0.291674" stroke-linejoin="round" stroke-miterlimit="2" transform="matrix(1 0 0 1.00291 471.762 394.231)"/><path d="M177.914 240.159C177.914 240.281 177.871 240.379 177.784 240.459 177.698 240.536 177.602 240.575 177.498 240.575 177.394 240.575 177.299 240.536 177.213 240.459 177.126 240.379 177.083 240.281 177.083 240.159 177.083 240.037 177.126 239.938 177.213 239.861 177.299 239.782 177.394 239.743 177.498 239.743 177.602 239.743 177.698 239.782 177.784 239.861 177.871 239.938 177.914 240.037 177.914 240.159ZM177.784 245.771 177.213 245.771 177.213 241.718 177.784 241.718 177.784 245.771Z" stroke="#000000" stroke-width="0.29203" stroke-linejoin="round" stroke-miterlimit="2" transform="matrix(1 0 0 1.00291 436.676 348.158)"/><path d="M184.09 242.888 186.039 242.888 186.039 243.408 184.09 243.408 184.09 245.355 183.57 245.355 183.57 243.408 181.621 243.408 181.621 242.888 183.57 242.888 183.57 240.938 184.09 240.938 184.09 242.888Z" stroke="#000000" stroke-width="0.29203" stroke-linejoin="round" stroke-miterlimit="2" transform="matrix(1 0 0 1.00291 436.676 348.158)"/><path d="M192.136 245.771 191.513 245.771 191.513 240.418 190.413 241.389 190.023 240.921 191.582 239.639 192.136 239.639 192.136 245.771Z" stroke="#000000" stroke-width="0.29203" stroke-linejoin="round" stroke-miterlimit="2" transform="matrix(1 0 0 1.00291 436.676 348.158)"/><path d="M758.231 306.958 758.231 349.759" stroke="#C649AD" stroke-width="3.83991" stroke-linecap="round" stroke-linejoin="round" stroke-miterlimit="1.5" fill="none" fill-rule="evenodd" transform="matrix(1 0 0 1.04471 -118.625 195.499)"/><path d="M153.743 70.8271 153.743 90.359" stroke="#000000" stroke-width="1.5879" stroke-linecap="round" stroke-linejoin="round" stroke-miterlimit="1.5" fill="none" fill-rule="evenodd" transform="matrix(1 0 0 1.00291 370.418 437.052)"/><path d="M156.92 72.2907 156.92 92.2262" stroke="#000000" stroke-width="1.58779" stroke-linecap="round" stroke-linejoin="round" stroke-miterlimit="1.5" fill="none" fill-rule="evenodd" transform="matrix(1 0 0 1.00291 424.928 435.584)"/><path d="M153.743 70.8271 153.743 90.359" stroke="#000000" stroke-width="1.5879" stroke-linecap="round" stroke-linejoin="round" stroke-miterlimit="1.5" fill="none" fill-rule="evenodd" transform="matrix(1 0 0 1.00291 370.418 479.083)"/><path d="M156.92 72.2907 156.92 92.2262" stroke="#000000" stroke-width="1.58779" stroke-linecap="round" stroke-linejoin="round" stroke-miterlimit="1.5" fill="none" fill-rule="evenodd" transform="matrix(1 0 0 1.00291 424.928 477.616)"/></g></svg>