<?xml version="1.0" encoding="UTF-8" standalone="no"?>
<!DOCTYPE svg PUBLIC "-//W3C//DTD SVG 1.1//EN" "http://www.w3.org/Graphics/SVG/1.1/DTD/svg11.dtd">
<svg width="100%" height="100%" viewBox="0 0 1084 1064" version="1.1" xmlns="http://www.w3.org/2000/svg" xmlns:xlink="http://www.w3.org/1999/xlink" xml:space="preserve" xmlns:serif="http://www.serif.com/" style="fill-rule:evenodd;clip-rule:evenodd;stroke-linecap:round;stroke-linejoin:round;stroke-miterlimit:1.5;">
    <path d="M430.589,1062.95l0,-743.955" style="fill:none;stroke:black;stroke-width:1px;"/>
    <path d="M339.486,970.174l743.954,0" style="fill:none;stroke:black;stroke-width:1px;"/>
    <path d="M430.589,318.992l-55.019,55.02" style="fill:none;stroke:black;stroke-width:1px;"/>
    <path d="M1083.44,970.174l-55.019,-55.019" style="fill:none;stroke:black;stroke-width:1px;"/>
    <path d="M430.589,318.992l56.689,56.689" style="fill:none;stroke:black;stroke-width:1px;"/>
    <path d="M1083.44,970.174l-56.688,56.689" style="fill:none;stroke:black;stroke-width:1px;"/>
    <path d="M974.353,383.053c11.68,5.412 16.768,19.288 11.356,30.967c-5.411,11.68 -19.287,16.768 -30.967,11.356c-11.679,-5.412 -16.768,-19.288 -11.356,-30.967c5.412,-11.68 19.288,-16.768 30.967,-11.356Z"/>
    <path d="M515.253,550.309c11.68,5.412 16.769,19.288 11.357,30.967c-5.412,11.68 -19.288,16.768 -30.968,11.357c-11.679,-5.412 -16.768,-19.288 -11.356,-30.968c5.412,-11.679 19.288,-16.768 30.967,-11.356Z"/>
    <path d="M693.107,545.062c11.68,5.412 16.768,19.288 11.356,30.967c-5.412,11.68 -19.288,16.768 -30.967,11.356c-11.68,-5.411 -16.768,-19.287 -11.356,-30.967c5.411,-11.679 19.287,-16.768 30.967,-11.356Z"/>
    <path d="M272.68,812.962c11.68,5.412 16.768,19.288 11.356,30.968c-5.411,11.679 -19.287,16.768 -30.967,11.356c-11.679,-5.412 -16.768,-19.288 -11.356,-30.968c5.412,-11.679 19.288,-16.768 30.967,-11.356Z"/>
    <path d="M870.731,399.007c11.679,5.411 16.768,19.287 11.356,30.967c-5.412,11.679 -19.288,16.768 -30.967,11.356c-11.68,-5.412 -16.768,-19.288 -11.356,-30.967c5.411,-11.68 19.287,-16.768 30.967,-11.356Z"/>
    <path d="M379.288,666.339c11.679,5.412 16.768,19.288 11.356,30.968c-5.412,11.679 -19.288,16.768 -30.967,11.356c-11.68,-5.412 -16.769,-19.288 -11.357,-30.968c5.412,-11.679 19.288,-16.768 30.968,-11.356Z"/>
    <path d="M593.144,557.365c11.68,5.412 16.768,19.288 11.357,30.968c-5.412,11.679 -19.288,16.768 -30.968,11.356c-11.679,-5.412 -16.768,-19.288 -11.356,-30.967c5.412,-11.68 19.288,-16.769 30.967,-11.357Z"/>
    <path d="M195.346,779.439c11.68,5.412 16.768,19.288 11.356,30.967c-5.411,11.68 -19.287,16.768 -30.967,11.356c-11.679,-5.411 -16.768,-19.287 -11.356,-30.967c5.412,-11.679 19.288,-16.768 30.967,-11.356Z"/>
    <path d="M784.384,484.469c11.679,5.411 16.768,19.287 11.356,30.967c-5.412,11.68 -19.288,16.768 -30.967,11.356c-11.68,-5.412 -16.768,-19.288 -11.357,-30.967c5.412,-11.68 19.288,-16.768 30.968,-11.356Z"/>
    <path d="M489.038,692.069c11.68,5.412 16.768,19.288 11.356,30.967c-5.411,11.68 -19.287,16.768 -30.967,11.356c-11.679,-5.411 -16.768,-19.287 -11.356,-30.967c5.412,-11.679 19.288,-16.768 30.967,-11.356Z"/>
    <path d="M1014.04,298.485c11.679,5.411 16.768,19.287 11.356,30.967c-5.412,11.679 -19.288,16.768 -30.967,11.356c-11.68,-5.412 -16.769,-19.288 -11.357,-30.967c5.412,-11.68 19.288,-16.768 30.968,-11.356Z"/>
    <path d="M58.224,883.774c11.68,5.412 16.769,19.288 11.357,30.968c-5.412,11.679 -19.288,16.768 -30.968,11.356c-11.679,-5.412 -16.768,-19.288 -11.356,-30.967c5.412,-11.68 19.288,-16.768 30.967,-11.357Z"/>
    <path d="M707.191,443.644c11.679,5.411 16.768,19.287 11.356,30.967c-5.412,11.679 -19.288,16.768 -30.968,11.356c-11.679,-5.412 -16.768,-19.288 -11.356,-30.967c5.412,-11.68 19.288,-16.768 30.968,-11.356Z"/>
    <path d="M325.622,734.11c11.68,5.412 16.768,19.288 11.356,30.968c-5.412,11.679 -19.288,16.768 -30.967,11.356c-11.68,-5.412 -16.768,-19.288 -11.356,-30.967c5.412,-11.68 19.288,-16.768 30.967,-11.357Z"/>
    <path d="M520.959,624.734c11.679,5.411 16.768,19.287 11.356,30.967c-5.412,11.679 -19.288,16.768 -30.967,11.356c-11.68,-5.412 -16.769,-19.288 -11.357,-30.967c5.412,-11.68 19.288,-16.768 30.968,-11.356Z"/>
    <path d="M142.098,851.702c11.679,5.412 16.768,19.288 11.356,30.968c-5.412,11.679 -19.288,16.768 -30.967,11.356c-11.68,-5.412 -16.769,-19.288 -11.357,-30.967c5.412,-11.68 19.288,-16.768 30.968,-11.357Z"/>
    <g transform="matrix(0.751436,0,0,0.751436,-271.676,-243.634)">
        <g transform="matrix(114.857,0,0,114.857,358.038,411.056)">
            <path d="M0.046,-0.102l0.284,-0.282c0.01,-0.009 0.02,-0.02 0.029,-0.031c0.009,-0.01 0.018,-0.022 0.025,-0.034c0.007,-0.012 0.013,-0.025 0.017,-0.038c0.005,-0.013 0.007,-0.027 0.007,-0.042c0,-0.017 -0.003,-0.033 -0.01,-0.047c-0.006,-0.014 -0.015,-0.026 -0.026,-0.035c-0.011,-0.01 -0.024,-0.018 -0.039,-0.023c-0.015,-0.005 -0.03,-0.008 -0.047,-0.008c-0.035,0 -0.063,0.01 -0.086,0.029c-0.023,0.019 -0.037,0.046 -0.043,0.08l-0.104,-0.009c0.005,-0.031 0.014,-0.058 0.027,-0.081c0.014,-0.023 0.031,-0.043 0.051,-0.058c0.021,-0.015 0.044,-0.027 0.07,-0.034c0.027,-0.007 0.055,-0.011 0.086,-0.011c0.031,0 0.059,0.004 0.086,0.013c0.027,0.008 0.051,0.02 0.071,0.037c0.021,0.016 0.037,0.036 0.048,0.061c0.012,0.024 0.018,0.052 0.018,0.085c-0,0.023 -0.004,0.045 -0.011,0.066c-0.007,0.02 -0.016,0.039 -0.027,0.057c-0.011,0.018 -0.024,0.035 -0.039,0.051c-0.015,0.016 -0.03,0.032 -0.046,0.047l-0.233,0.225l0.356,0l-0,0.084l-0.464,0l-0,-0.102Z" style="fill-rule:nonzero;"/>
        </g>
        <g transform="matrix(114.857,0,0,114.857,421.899,411.056)">
            <path d="M0.543,-0l-0.09,-0l-0,-0.068l-0.002,0c-0.017,0.025 -0.041,0.045 -0.072,0.059c-0.03,0.014 -0.061,0.021 -0.093,0.021c-0.037,0 -0.07,-0.006 -0.1,-0.019c-0.029,-0.013 -0.055,-0.03 -0.076,-0.053c-0.021,-0.023 -0.037,-0.049 -0.048,-0.079c-0.011,-0.03 -0.017,-0.063 -0.017,-0.098c-0,-0.035 0.006,-0.068 0.017,-0.099c0.011,-0.03 0.027,-0.056 0.048,-0.079c0.021,-0.022 0.047,-0.039 0.076,-0.052c0.03,-0.013 0.063,-0.019 0.1,-0.019c0.034,0 0.066,0.007 0.096,0.022c0.03,0.014 0.053,0.033 0.069,0.058l0.002,0l0,-0.35l0.09,0l0,0.756Zm-0.246,-0.072c0.024,0 0.046,-0.004 0.065,-0.012c0.019,-0.009 0.036,-0.02 0.049,-0.035c0.013,-0.014 0.024,-0.031 0.031,-0.052c0.007,-0.02 0.011,-0.042 0.011,-0.066c-0,-0.024 -0.004,-0.046 -0.011,-0.066c-0.007,-0.021 -0.018,-0.038 -0.031,-0.052c-0.013,-0.015 -0.03,-0.026 -0.049,-0.034c-0.019,-0.009 -0.041,-0.013 -0.065,-0.013c-0.024,0 -0.046,0.004 -0.065,0.013c-0.019,0.008 -0.036,0.019 -0.049,0.034c-0.013,0.014 -0.024,0.031 -0.031,0.051c-0.007,0.021 -0.011,0.043 -0.011,0.067c-0,0.024 0.004,0.046 0.011,0.066c0.007,0.021 0.018,0.038 0.031,0.052c0.013,0.015 0.03,0.026 0.049,0.034c0.019,0.009 0.041,0.013 0.065,0.013Z" style="fill-rule:nonzero;"/>
        </g>
        <g transform="matrix(114.857,0,0,114.857,524.007,411.056)">
            <path d="M0.068,-0.474l0.084,0l-0,0.074l0.002,0c0.002,-0.007 0.007,-0.015 0.015,-0.025c0.009,-0.01 0.019,-0.019 0.032,-0.028c0.013,-0.01 0.029,-0.017 0.046,-0.023c0.018,-0.007 0.038,-0.01 0.059,-0.01c0.035,0 0.065,0.007 0.089,0.022c0.024,0.015 0.044,0.037 0.059,0.066c0.015,-0.029 0.037,-0.051 0.065,-0.066c0.028,-0.015 0.056,-0.022 0.085,-0.022c0.037,0 0.067,0.006 0.09,0.018c0.023,0.012 0.042,0.028 0.055,0.048c0.013,0.019 0.022,0.042 0.027,0.067c0.005,0.025 0.008,0.05 0.008,0.077l0,0.276l-0.09,0l0,-0.264c0,-0.018 -0.001,-0.035 -0.004,-0.052c-0.002,-0.017 -0.007,-0.031 -0.014,-0.044c-0.007,-0.013 -0.018,-0.023 -0.031,-0.03c-0.013,-0.008 -0.031,-0.012 -0.053,-0.012c-0.043,0 -0.074,0.013 -0.093,0.04c-0.019,0.027 -0.028,0.061 -0.028,0.103l0,0.259l-0.09,-0l0,-0.248c0,-0.023 -0.001,-0.043 -0.004,-0.062c-0.002,-0.019 -0.007,-0.035 -0.014,-0.048c-0.007,-0.014 -0.017,-0.025 -0.029,-0.033c-0.013,-0.007 -0.031,-0.011 -0.053,-0.011c-0.016,0 -0.031,0.003 -0.046,0.01c-0.015,0.006 -0.029,0.015 -0.04,0.028c-0.011,0.013 -0.02,0.029 -0.027,0.048c-0.007,0.02 -0.01,0.043 -0.01,0.07l0,0.246l-0.09,-0l0,-0.474Z" style="fill-rule:nonzero;"/>
        </g>
        <g transform="matrix(114.857,0,0,114.857,621.866,411.056)">
            <path d="M0.136,-0.204c0,0.021 0.004,0.04 0.013,0.057c0.009,0.017 0.021,0.031 0.036,0.043c0.015,0.012 0.032,0.021 0.051,0.028c0.019,0.007 0.039,0.01 0.06,0.01c0.028,0 0.052,-0.006 0.073,-0.019c0.021,-0.013 0.04,-0.031 0.057,-0.052l0.068,0.052c-0.05,0.065 -0.12,0.097 -0.21,0.097c-0.037,0 -0.071,-0.006 -0.102,-0.019c-0.03,-0.013 -0.056,-0.03 -0.077,-0.053c-0.021,-0.022 -0.037,-0.048 -0.048,-0.079c-0.011,-0.03 -0.017,-0.063 -0.017,-0.098c-0,-0.035 0.006,-0.068 0.018,-0.099c0.013,-0.03 0.03,-0.056 0.051,-0.079c0.022,-0.022 0.048,-0.039 0.078,-0.052c0.03,-0.013 0.063,-0.019 0.098,-0.019c0.042,0 0.078,0.007 0.106,0.022c0.03,0.015 0.053,0.034 0.072,0.057c0.019,0.024 0.032,0.051 0.041,0.081c0.008,0.029 0.012,0.059 0.012,0.09l0,0.032l-0.38,0Zm0.284,-0.072c-0.001,-0.02 -0.004,-0.038 -0.01,-0.055c-0.005,-0.017 -0.014,-0.031 -0.025,-0.043c-0.011,-0.013 -0.026,-0.023 -0.042,-0.03c-0.018,-0.007 -0.037,-0.01 -0.06,-0.01c-0.022,0 -0.042,0.004 -0.061,0.013c-0.018,0.008 -0.033,0.019 -0.046,0.032c-0.013,0.013 -0.023,0.028 -0.03,0.044c-0.007,0.017 -0.01,0.033 -0.01,0.049l0.284,0Z" style="fill-rule:nonzero;"/>
        </g>
        <g transform="matrix(114.857,0,0,114.857,685.726,411.056)">
            <path d="M0.07,-0.416c0.025,-0.023 0.055,-0.041 0.088,-0.052c0.033,-0.012 0.067,-0.018 0.1,-0.018c0.035,0 0.065,0.004 0.09,0.013c0.025,0.009 0.045,0.02 0.061,0.035c0.016,0.015 0.028,0.032 0.036,0.051c0.007,0.019 0.011,0.038 0.011,0.059l0,0.242c0,0.017 0,0.032 0.001,0.046c0.001,0.014 0.002,0.027 0.003,0.04l-0.08,0c-0.002,-0.024 -0.003,-0.048 -0.003,-0.072l-0.002,0c-0.02,0.031 -0.044,0.052 -0.071,0.065c-0.027,0.013 -0.059,0.019 -0.095,0.019c-0.022,0 -0.043,-0.003 -0.063,-0.009c-0.02,-0.006 -0.037,-0.015 -0.052,-0.027c-0.015,-0.012 -0.027,-0.027 -0.036,-0.044c-0.009,-0.018 -0.013,-0.039 -0.013,-0.062c0,-0.031 0.007,-0.056 0.021,-0.077c0.013,-0.021 0.032,-0.037 0.056,-0.05c0.023,-0.013 0.051,-0.023 0.083,-0.028c0.031,-0.006 0.065,-0.009 0.101,-0.009l0.066,0l0,-0.02c0,-0.012 -0.002,-0.024 -0.007,-0.036c-0.005,-0.012 -0.012,-0.023 -0.021,-0.032c-0.009,-0.01 -0.021,-0.018 -0.035,-0.023c-0.014,-0.006 -0.031,-0.009 -0.05,-0.009c-0.017,0 -0.032,0.002 -0.045,0.005c-0.013,0.003 -0.025,0.008 -0.036,0.013c-0.011,0.005 -0.02,0.01 -0.029,0.017c-0.009,0.007 -0.017,0.013 -0.025,0.019l-0.054,-0.056Zm0.254,0.188c-0.021,0 -0.043,0.001 -0.065,0.004c-0.023,0.002 -0.043,0.006 -0.061,0.013c-0.019,0.007 -0.034,0.016 -0.045,0.028c-0.012,0.012 -0.018,0.027 -0.018,0.046c0,0.027 0.009,0.047 0.028,0.059c0.018,0.012 0.043,0.018 0.074,0.018c0.025,0 0.046,-0.004 0.063,-0.012c0.017,-0.009 0.031,-0.02 0.042,-0.033c0.011,-0.013 0.018,-0.028 0.023,-0.044c0.005,-0.017 0.007,-0.033 0.007,-0.049l0,-0.03l-0.048,0Z" style="fill-rule:nonzero;"/>
        </g>
        <g transform="matrix(114.857,0,0,114.857,745.337,411.056)">
            <path d="M0.32,-0.355c-0.011,-0.013 -0.024,-0.025 -0.039,-0.034c-0.016,-0.009 -0.035,-0.013 -0.058,-0.013c-0.021,0 -0.04,0.005 -0.056,0.014c-0.015,0.009 -0.023,0.022 -0.023,0.039c-0,0.014 0.004,0.025 0.013,0.034c0.009,0.009 0.02,0.016 0.032,0.021c0.013,0.005 0.026,0.009 0.04,0.012c0.014,0.003 0.026,0.005 0.036,0.007c0.019,0.005 0.037,0.01 0.054,0.017c0.017,0.007 0.032,0.015 0.044,0.026c0.013,0.011 0.022,0.024 0.029,0.039c0.007,0.015 0.011,0.034 0.011,0.056c-0,0.027 -0.006,0.05 -0.017,0.069c-0.011,0.018 -0.026,0.034 -0.044,0.046c-0.018,0.012 -0.039,0.021 -0.062,0.026c-0.023,0.005 -0.046,0.008 -0.069,0.008c-0.039,0 -0.074,-0.006 -0.104,-0.018c-0.029,-0.012 -0.056,-0.034 -0.079,-0.066l0.068,-0.056c0.015,0.015 0.031,0.028 0.049,0.039c0.018,0.011 0.04,0.017 0.066,0.017c0.011,-0 0.023,-0.001 0.034,-0.004c0.012,-0.002 0.022,-0.006 0.031,-0.011c0.009,-0.005 0.017,-0.011 0.022,-0.019c0.006,-0.007 0.009,-0.016 0.009,-0.026c-0,-0.013 -0.004,-0.024 -0.013,-0.033c-0.008,-0.009 -0.018,-0.015 -0.03,-0.02c-0.011,-0.006 -0.024,-0.01 -0.037,-0.013c-0.013,-0.003 -0.024,-0.005 -0.034,-0.007c-0.019,-0.005 -0.038,-0.01 -0.055,-0.016c-0.017,-0.006 -0.033,-0.014 -0.046,-0.024c-0.013,-0.01 -0.024,-0.023 -0.032,-0.038c-0.008,-0.015 -0.012,-0.034 -0.012,-0.057c-0,-0.025 0.005,-0.046 0.015,-0.065c0.011,-0.018 0.024,-0.033 0.041,-0.045c0.017,-0.012 0.037,-0.021 0.058,-0.027c0.022,-0.006 0.044,-0.009 0.066,-0.009c0.032,0 0.063,0.006 0.092,0.018c0.029,0.012 0.053,0.032 0.07,0.06l-0.07,0.053Z" style="fill-rule:nonzero;"/>
        </g>
        <g transform="matrix(114.857,0,0,114.857,796.334,411.056)">
            <path d="M0.488,-0l-0.09,-0l0,-0.073l-0.002,0c-0.011,0.025 -0.031,0.046 -0.059,0.062c-0.028,0.015 -0.06,0.023 -0.097,0.023c-0.023,-0 -0.045,-0.004 -0.066,-0.011c-0.021,-0.007 -0.039,-0.017 -0.055,-0.032c-0.015,-0.015 -0.028,-0.034 -0.037,-0.057c-0.009,-0.023 -0.014,-0.05 -0.014,-0.081l-0,-0.305l0.09,-0l-0,0.28c-0,0.022 0.003,0.041 0.009,0.056c0.006,0.016 0.014,0.029 0.024,0.038c0.01,0.01 0.021,0.017 0.034,0.021c0.013,0.005 0.027,0.007 0.041,0.007c0.019,-0 0.036,-0.003 0.052,-0.009c0.016,-0.006 0.03,-0.016 0.042,-0.029c0.012,-0.013 0.021,-0.029 0.028,-0.049c0.007,-0.02 0.01,-0.044 0.01,-0.071l0,-0.244l0.09,-0l0,0.474Z" style="fill-rule:nonzero;"/>
        </g>
        <g transform="matrix(114.857,0,0,114.857,860.195,411.056)">
            <path d="M0.068,-0.474l0.09,0l0,0.073l0.002,0c0.006,-0.013 0.014,-0.024 0.024,-0.034c0.01,-0.011 0.021,-0.02 0.034,-0.027c0.012,-0.007 0.025,-0.013 0.04,-0.017c0.015,-0.005 0.029,-0.007 0.044,-0.007c0.015,0 0.028,0.002 0.04,0.006l-0.004,0.097c-0.007,-0.002 -0.015,-0.004 -0.022,-0.005c-0.007,-0.001 -0.015,-0.002 -0.022,-0.002c-0.044,0 -0.078,0.012 -0.101,0.037c-0.023,0.025 -0.035,0.063 -0.035,0.115l0,0.238l-0.09,0l0,-0.474Z" style="fill-rule:nonzero;"/>
        </g>
        <g transform="matrix(114.857,0,0,114.857,900.624,411.056)">
            <path d="M0.136,-0.204c0,0.021 0.004,0.04 0.013,0.057c0.009,0.017 0.021,0.031 0.036,0.043c0.015,0.012 0.032,0.021 0.051,0.028c0.019,0.007 0.039,0.01 0.06,0.01c0.028,0 0.052,-0.006 0.073,-0.019c0.021,-0.013 0.04,-0.031 0.057,-0.052l0.068,0.052c-0.05,0.065 -0.12,0.097 -0.21,0.097c-0.037,0 -0.071,-0.006 -0.102,-0.019c-0.03,-0.013 -0.056,-0.03 -0.077,-0.053c-0.021,-0.022 -0.037,-0.048 -0.048,-0.079c-0.011,-0.03 -0.017,-0.063 -0.017,-0.098c-0,-0.035 0.006,-0.068 0.018,-0.099c0.013,-0.03 0.03,-0.056 0.051,-0.079c0.022,-0.022 0.048,-0.039 0.078,-0.052c0.03,-0.013 0.063,-0.019 0.098,-0.019c0.042,0 0.078,0.007 0.106,0.022c0.03,0.015 0.053,0.034 0.072,0.057c0.019,0.024 0.032,0.051 0.041,0.081c0.008,0.029 0.012,0.059 0.012,0.09l0,0.032l-0.38,0Zm0.284,-0.072c-0.001,-0.02 -0.004,-0.038 -0.01,-0.055c-0.005,-0.017 -0.014,-0.031 -0.025,-0.043c-0.011,-0.013 -0.026,-0.023 -0.042,-0.03c-0.018,-0.007 -0.037,-0.01 -0.06,-0.01c-0.022,0 -0.042,0.004 -0.061,0.013c-0.018,0.008 -0.033,0.019 -0.046,0.032c-0.013,0.013 -0.023,0.028 -0.03,0.044c-0.007,0.017 -0.01,0.033 -0.01,0.049l0.284,0Z" style="fill-rule:nonzero;"/>
        </g>
        <g transform="matrix(114.857,0,0,114.857,964.485,411.056)">
            <path d="M0.068,-0.474l0.084,0l-0,0.074l0.002,0c0.002,-0.007 0.007,-0.015 0.015,-0.025c0.009,-0.01 0.019,-0.019 0.032,-0.028c0.013,-0.01 0.029,-0.017 0.046,-0.023c0.018,-0.007 0.038,-0.01 0.059,-0.01c0.035,0 0.065,0.007 0.089,0.022c0.024,0.015 0.044,0.037 0.059,0.066c0.015,-0.029 0.037,-0.051 0.065,-0.066c0.028,-0.015 0.056,-0.022 0.085,-0.022c0.037,0 0.067,0.006 0.09,0.018c0.023,0.012 0.042,0.028 0.055,0.048c0.013,0.019 0.022,0.042 0.027,0.067c0.005,0.025 0.008,0.05 0.008,0.077l0,0.276l-0.09,0l0,-0.264c0,-0.018 -0.001,-0.035 -0.004,-0.052c-0.002,-0.017 -0.007,-0.031 -0.014,-0.044c-0.007,-0.013 -0.018,-0.023 -0.031,-0.03c-0.013,-0.008 -0.031,-0.012 -0.053,-0.012c-0.043,0 -0.074,0.013 -0.093,0.04c-0.019,0.027 -0.028,0.061 -0.028,0.103l0,0.259l-0.09,-0l0,-0.248c0,-0.023 -0.001,-0.043 -0.004,-0.062c-0.002,-0.019 -0.007,-0.035 -0.014,-0.048c-0.007,-0.014 -0.017,-0.025 -0.029,-0.033c-0.013,-0.007 -0.031,-0.011 -0.053,-0.011c-0.016,0 -0.031,0.003 -0.046,0.01c-0.015,0.006 -0.029,0.015 -0.04,0.028c-0.011,0.013 -0.02,0.029 -0.027,0.048c-0.007,0.02 -0.01,0.043 -0.01,0.07l0,0.246l-0.09,-0l0,-0.474Z" style="fill-rule:nonzero;"/>
        </g>
        <g transform="matrix(114.857,0,0,114.857,1062.34,411.056)">
            <path d="M0.136,-0.204c0,0.021 0.004,0.04 0.013,0.057c0.009,0.017 0.021,0.031 0.036,0.043c0.015,0.012 0.032,0.021 0.051,0.028c0.019,0.007 0.039,0.01 0.06,0.01c0.028,0 0.052,-0.006 0.073,-0.019c0.021,-0.013 0.04,-0.031 0.057,-0.052l0.068,0.052c-0.05,0.065 -0.12,0.097 -0.21,0.097c-0.037,0 -0.071,-0.006 -0.102,-0.019c-0.03,-0.013 -0.056,-0.03 -0.077,-0.053c-0.021,-0.022 -0.037,-0.048 -0.048,-0.079c-0.011,-0.03 -0.017,-0.063 -0.017,-0.098c-0,-0.035 0.006,-0.068 0.018,-0.099c0.013,-0.03 0.03,-0.056 0.051,-0.079c0.022,-0.022 0.048,-0.039 0.078,-0.052c0.03,-0.013 0.063,-0.019 0.098,-0.019c0.042,0 0.078,0.007 0.106,0.022c0.03,0.015 0.053,0.034 0.072,0.057c0.019,0.024 0.032,0.051 0.041,0.081c0.008,0.029 0.012,0.059 0.012,0.09l0,0.032l-0.38,0Zm0.284,-0.072c-0.001,-0.02 -0.004,-0.038 -0.01,-0.055c-0.005,-0.017 -0.014,-0.031 -0.025,-0.043c-0.011,-0.013 -0.026,-0.023 -0.042,-0.03c-0.018,-0.007 -0.037,-0.01 -0.06,-0.01c-0.022,0 -0.042,0.004 -0.061,0.013c-0.018,0.008 -0.033,0.019 -0.046,0.032c-0.013,0.013 -0.023,0.028 -0.03,0.044c-0.007,0.017 -0.01,0.033 -0.01,0.049l0.284,0Z" style="fill-rule:nonzero;"/>
        </g>
        <g transform="matrix(114.857,0,0,114.857,1126.2,411.056)">
            <path d="M0.068,-0.474l0.09,0l0,0.073l0.002,0c0.011,-0.025 0.031,-0.046 0.059,-0.062c0.028,-0.015 0.06,-0.023 0.097,-0.023c0.023,0 0.045,0.004 0.066,0.011c0.021,0.007 0.039,0.017 0.054,0.032c0.016,0.015 0.029,0.034 0.038,0.057c0.009,0.023 0.014,0.05 0.014,0.081l0,0.305l-0.09,0l0,-0.28c-0,-0.022 -0.003,-0.041 -0.009,-0.056c-0.006,-0.016 -0.014,-0.029 -0.024,-0.038c-0.01,-0.01 -0.022,-0.017 -0.034,-0.021c-0.013,-0.005 -0.027,-0.007 -0.041,-0.007c-0.019,0 -0.036,0.003 -0.052,0.009c-0.016,0.006 -0.03,0.016 -0.042,0.029c-0.012,0.013 -0.021,0.029 -0.028,0.049c-0.007,0.02 -0.01,0.044 -0.01,0.071l0,0.244l-0.09,0l0,-0.474Z" style="fill-rule:nonzero;"/>
        </g>
        <g transform="matrix(114.857,0,0,114.857,1190.06,411.056)">
            <path d="M0.322,-0.396l-0.129,0l0,0.215c-0,0.013 0,0.027 0.001,0.04c0.001,0.013 0.003,0.024 0.008,0.035c0.004,0.01 0.011,0.018 0.019,0.025c0.01,0.006 0.023,0.009 0.04,0.009c0.011,0 0.022,-0.001 0.033,-0.003c0.011,-0.002 0.022,-0.006 0.031,-0.011l-0,0.082c-0.011,0.006 -0.025,0.01 -0.042,0.013c-0.017,0.002 -0.03,0.003 -0.039,0.003c-0.035,0 -0.062,-0.005 -0.081,-0.014c-0.019,-0.01 -0.033,-0.023 -0.042,-0.038c-0.009,-0.015 -0.014,-0.032 -0.016,-0.051c-0.001,-0.02 -0.002,-0.039 -0.002,-0.058l-0,-0.247l-0.104,0l-0,-0.078l0.104,0l-0,-0.133l0.09,0l-0,0.133l0.129,-0l-0,0.078Z" style="fill-rule:nonzero;"/>
        </g>
        <g transform="matrix(114.857,0,0,114.857,358.038,525.914)">
            <path d="M0.141,-0.237c0,0.024 0.004,0.046 0.011,0.067c0.007,0.02 0.018,0.037 0.031,0.052c0.013,0.014 0.03,0.025 0.049,0.034c0.019,0.008 0.041,0.012 0.065,0.012c0.024,0 0.046,-0.004 0.065,-0.012c0.019,-0.009 0.036,-0.02 0.049,-0.035c0.013,-0.014 0.024,-0.031 0.031,-0.052c0.007,-0.02 0.011,-0.042 0.011,-0.066c-0,-0.024 -0.004,-0.046 -0.011,-0.066c-0.007,-0.021 -0.018,-0.038 -0.031,-0.052c-0.013,-0.015 -0.03,-0.026 -0.049,-0.034c-0.019,-0.009 -0.041,-0.013 -0.065,-0.013c-0.024,0 -0.046,0.004 -0.065,0.013c-0.019,0.008 -0.036,0.019 -0.049,0.034c-0.013,0.014 -0.024,0.031 -0.031,0.051c-0.007,0.021 -0.011,0.043 -0.011,0.067Zm-0.096,-0c-0,-0.035 0.006,-0.067 0.019,-0.097c0.013,-0.03 0.031,-0.056 0.054,-0.079c0.023,-0.023 0.049,-0.041 0.08,-0.054c0.031,-0.013 0.064,-0.019 0.099,-0.019c0.035,0 0.068,0.007 0.099,0.019c0.031,0.013 0.057,0.031 0.08,0.054c0.023,0.023 0.041,0.049 0.053,0.079c0.013,0.03 0.02,0.062 0.02,0.097c0,0.035 -0.007,0.067 -0.02,0.097c-0.012,0.031 -0.03,0.057 -0.053,0.079c-0.023,0.023 -0.049,0.04 -0.08,0.053c-0.031,0.013 -0.064,0.02 -0.099,0.02c-0.035,-0 -0.068,-0.007 -0.099,-0.02c-0.031,-0.013 -0.057,-0.03 -0.08,-0.053c-0.023,-0.022 -0.041,-0.048 -0.054,-0.079c-0.013,-0.03 -0.019,-0.062 -0.019,-0.097Z" style="fill-rule:nonzero;"/>
        </g>
        <g transform="matrix(114.857,0,0,114.857,426.264,525.914)">
            <path d="M0.068,-0.474l0.09,0l0,0.073l0.002,0c0.011,-0.025 0.031,-0.046 0.059,-0.062c0.028,-0.015 0.06,-0.023 0.097,-0.023c0.023,0 0.045,0.004 0.066,0.011c0.021,0.007 0.039,0.017 0.054,0.032c0.016,0.015 0.029,0.034 0.038,0.057c0.009,0.023 0.014,0.05 0.014,0.081l0,0.305l-0.09,0l0,-0.28c-0,-0.022 -0.003,-0.041 -0.009,-0.056c-0.006,-0.016 -0.014,-0.029 -0.024,-0.038c-0.01,-0.01 -0.022,-0.017 -0.034,-0.021c-0.013,-0.005 -0.027,-0.007 -0.041,-0.007c-0.019,0 -0.036,0.003 -0.052,0.009c-0.016,0.006 -0.03,0.016 -0.042,0.029c-0.012,0.013 -0.021,0.029 -0.028,0.049c-0.007,0.02 -0.01,0.044 -0.01,0.071l0,0.244l-0.09,0l0,-0.474Z" style="fill-rule:nonzero;"/>
        </g>
        <g transform="matrix(114.857,0,0,114.857,490.124,525.914)">
            <rect x="0.075" y="-0.756" width="0.09" height="0.756" style="fill-rule:nonzero;"/>
        </g>
        <g transform="matrix(114.857,0,0,114.857,517.69,525.914)">
            <path d="M0.011,-0.474l0.104,0l0.141,0.37l0.002,0l0.134,-0.37l0.097,0l-0.225,0.576c-0.008,0.021 -0.016,0.039 -0.025,0.056c-0.009,0.017 -0.019,0.032 -0.031,0.044c-0.012,0.012 -0.027,0.021 -0.044,0.028c-0.017,0.007 -0.037,0.01 -0.062,0.01c-0.013,-0 -0.027,-0.001 -0.041,-0.003c-0.013,-0.001 -0.026,-0.005 -0.039,-0.01l0.011,-0.082c0.018,0.007 0.036,0.011 0.054,0.011c0.014,-0 0.026,-0.002 0.035,-0.006c0.01,-0.003 0.018,-0.009 0.025,-0.016c0.007,-0.007 0.013,-0.015 0.018,-0.024c0.005,-0.009 0.009,-0.02 0.014,-0.032l0.029,-0.075l-0.197,-0.477Z" style="fill-rule:nonzero;"/>
        </g>
        <g transform="matrix(114.857,0,0,114.857,607.049,525.914)">
            <path d="M0.27,-0.598l-0.13,0.12l-0.056,-0.067l0.197,-0.163l0.085,0l-0,0.708l-0.096,-0l0,-0.598Z" style="fill-rule:nonzero;"/>
        </g>
        <g transform="matrix(114.857,0,0,114.857,702.84,525.914)">
            <path d="M0.075,-0.474l0.09,0l0,0.474l-0.09,-0l0,-0.474Zm-0.021,-0.17c0,-0.018 0.007,-0.034 0.02,-0.046c0.013,-0.013 0.028,-0.02 0.046,-0.02c0.018,0 0.034,0.007 0.047,0.02c0.013,0.012 0.019,0.028 0.019,0.046c0,0.018 -0.006,0.033 -0.019,0.046c-0.013,0.014 -0.029,0.02 -0.047,0.02c-0.018,0 -0.033,-0.006 -0.046,-0.02c-0.013,-0.013 -0.02,-0.028 -0.02,-0.046Z" style="fill-rule:nonzero;"/>
        </g>
        <g transform="matrix(114.857,0,0,114.857,730.406,525.914)">
            <path d="M0.068,-0.474l0.09,0l0,0.073l0.002,0c0.011,-0.025 0.031,-0.046 0.059,-0.062c0.028,-0.015 0.06,-0.023 0.097,-0.023c0.023,0 0.045,0.004 0.066,0.011c0.021,0.007 0.039,0.017 0.054,0.032c0.016,0.015 0.029,0.034 0.038,0.057c0.009,0.023 0.014,0.05 0.014,0.081l0,0.305l-0.09,0l0,-0.28c-0,-0.022 -0.003,-0.041 -0.009,-0.056c-0.006,-0.016 -0.014,-0.029 -0.024,-0.038c-0.01,-0.01 -0.022,-0.017 -0.034,-0.021c-0.013,-0.005 -0.027,-0.007 -0.041,-0.007c-0.019,0 -0.036,0.003 -0.052,0.009c-0.016,0.006 -0.03,0.016 -0.042,0.029c-0.012,0.013 -0.021,0.029 -0.028,0.049c-0.007,0.02 -0.01,0.044 -0.01,0.071l0,0.244l-0.09,0l0,-0.474Z" style="fill-rule:nonzero;"/>
        </g>
        <g transform="matrix(114.857,0,0,114.857,794.267,525.914)">
            <path d="M0.322,-0.396l-0.129,0l0,0.215c-0,0.013 0,0.027 0.001,0.04c0.001,0.013 0.003,0.024 0.008,0.035c0.004,0.01 0.011,0.018 0.019,0.025c0.01,0.006 0.023,0.009 0.04,0.009c0.011,0 0.022,-0.001 0.033,-0.003c0.011,-0.002 0.022,-0.006 0.031,-0.011l-0,0.082c-0.011,0.006 -0.025,0.01 -0.042,0.013c-0.017,0.002 -0.03,0.003 -0.039,0.003c-0.035,0 -0.062,-0.005 -0.081,-0.014c-0.019,-0.01 -0.033,-0.023 -0.042,-0.038c-0.009,-0.015 -0.014,-0.032 -0.016,-0.051c-0.001,-0.02 -0.002,-0.039 -0.002,-0.058l-0,-0.247l-0.104,0l-0,-0.078l0.104,0l-0,-0.133l0.09,0l-0,0.133l0.129,-0l-0,0.078Z" style="fill-rule:nonzero;"/>
        </g>
        <g transform="matrix(114.857,0,0,114.857,836.764,525.914)">
            <path d="M0.068,-0.474l0.09,0l0,0.073l0.002,0c0.006,-0.013 0.014,-0.024 0.024,-0.034c0.01,-0.011 0.021,-0.02 0.034,-0.027c0.012,-0.007 0.025,-0.013 0.04,-0.017c0.015,-0.005 0.029,-0.007 0.044,-0.007c0.015,0 0.028,0.002 0.04,0.006l-0.004,0.097c-0.007,-0.002 -0.015,-0.004 -0.022,-0.005c-0.007,-0.001 -0.015,-0.002 -0.022,-0.002c-0.044,0 -0.078,0.012 -0.101,0.037c-0.023,0.025 -0.035,0.063 -0.035,0.115l0,0.238l-0.09,0l0,-0.474Z" style="fill-rule:nonzero;"/>
        </g>
        <g transform="matrix(114.857,0,0,114.857,879.261,525.914)">
            <path d="M0.075,-0.474l0.09,0l0,0.474l-0.09,-0l0,-0.474Zm-0.021,-0.17c0,-0.018 0.007,-0.034 0.02,-0.046c0.013,-0.013 0.028,-0.02 0.046,-0.02c0.018,0 0.034,0.007 0.047,0.02c0.013,0.012 0.019,0.028 0.019,0.046c0,0.018 -0.006,0.033 -0.019,0.046c-0.013,0.014 -0.029,0.02 -0.047,0.02c-0.018,0 -0.033,-0.006 -0.046,-0.02c-0.013,-0.013 -0.02,-0.028 -0.02,-0.046Z" style="fill-rule:nonzero;"/>
        </g>
        <g transform="matrix(114.857,0,0,114.857,906.827,525.914)">
            <path d="M0.068,-0.474l0.09,0l0,0.073l0.002,0c0.011,-0.025 0.031,-0.046 0.059,-0.062c0.028,-0.015 0.06,-0.023 0.097,-0.023c0.023,0 0.045,0.004 0.066,0.011c0.021,0.007 0.039,0.017 0.054,0.032c0.016,0.015 0.029,0.034 0.038,0.057c0.009,0.023 0.014,0.05 0.014,0.081l0,0.305l-0.09,0l0,-0.28c-0,-0.022 -0.003,-0.041 -0.009,-0.056c-0.006,-0.016 -0.014,-0.029 -0.024,-0.038c-0.01,-0.01 -0.022,-0.017 -0.034,-0.021c-0.013,-0.005 -0.027,-0.007 -0.041,-0.007c-0.019,0 -0.036,0.003 -0.052,0.009c-0.016,0.006 -0.03,0.016 -0.042,0.029c-0.012,0.013 -0.021,0.029 -0.028,0.049c-0.007,0.02 -0.01,0.044 -0.01,0.071l0,0.244l-0.09,0l0,-0.474Z" style="fill-rule:nonzero;"/>
        </g>
        <g transform="matrix(114.857,0,0,114.857,970.687,525.914)">
            <path d="M0.32,-0.355c-0.011,-0.013 -0.024,-0.025 -0.039,-0.034c-0.016,-0.009 -0.035,-0.013 -0.058,-0.013c-0.021,0 -0.04,0.005 -0.056,0.014c-0.015,0.009 -0.023,0.022 -0.023,0.039c-0,0.014 0.004,0.025 0.013,0.034c0.009,0.009 0.02,0.016 0.032,0.021c0.013,0.005 0.026,0.009 0.04,0.012c0.014,0.003 0.026,0.005 0.036,0.007c0.019,0.005 0.037,0.01 0.054,0.017c0.017,0.007 0.032,0.015 0.044,0.026c0.013,0.011 0.022,0.024 0.029,0.039c0.007,0.015 0.011,0.034 0.011,0.056c-0,0.027 -0.006,0.05 -0.017,0.069c-0.011,0.018 -0.026,0.034 -0.044,0.046c-0.018,0.012 -0.039,0.021 -0.062,0.026c-0.023,0.005 -0.046,0.008 -0.069,0.008c-0.039,0 -0.074,-0.006 -0.104,-0.018c-0.029,-0.012 -0.056,-0.034 -0.079,-0.066l0.068,-0.056c0.015,0.015 0.031,0.028 0.049,0.039c0.018,0.011 0.04,0.017 0.066,0.017c0.011,-0 0.023,-0.001 0.034,-0.004c0.012,-0.002 0.022,-0.006 0.031,-0.011c0.009,-0.005 0.017,-0.011 0.022,-0.019c0.006,-0.007 0.009,-0.016 0.009,-0.026c-0,-0.013 -0.004,-0.024 -0.013,-0.033c-0.008,-0.009 -0.018,-0.015 -0.03,-0.02c-0.011,-0.006 -0.024,-0.01 -0.037,-0.013c-0.013,-0.003 -0.024,-0.005 -0.034,-0.007c-0.019,-0.005 -0.038,-0.01 -0.055,-0.016c-0.017,-0.006 -0.033,-0.014 -0.046,-0.024c-0.013,-0.01 -0.024,-0.023 -0.032,-0.038c-0.008,-0.015 -0.012,-0.034 -0.012,-0.057c-0,-0.025 0.005,-0.046 0.015,-0.065c0.011,-0.018 0.024,-0.033 0.041,-0.045c0.017,-0.012 0.037,-0.021 0.058,-0.027c0.022,-0.006 0.044,-0.009 0.066,-0.009c0.032,0 0.063,0.006 0.092,0.018c0.029,0.012 0.053,0.032 0.07,0.06l-0.07,0.053Z" style="fill-rule:nonzero;"/>
        </g>
        <g transform="matrix(114.857,0,0,114.857,1021.68,525.914)">
            <path d="M0.075,-0.474l0.09,0l0,0.474l-0.09,-0l0,-0.474Zm-0.021,-0.17c0,-0.018 0.007,-0.034 0.02,-0.046c0.013,-0.013 0.028,-0.02 0.046,-0.02c0.018,0 0.034,0.007 0.047,0.02c0.013,0.012 0.019,0.028 0.019,0.046c0,0.018 -0.006,0.033 -0.019,0.046c-0.013,0.014 -0.029,0.02 -0.047,0.02c-0.018,0 -0.033,-0.006 -0.046,-0.02c-0.013,-0.013 -0.02,-0.028 -0.02,-0.046Z" style="fill-rule:nonzero;"/>
        </g>
        <g transform="matrix(114.857,0,0,114.857,1049.25,525.914)">
            <path d="M0.407,-0.348c-0.017,-0.017 -0.034,-0.03 -0.053,-0.039c-0.018,-0.01 -0.04,-0.014 -0.065,-0.014c-0.025,0 -0.046,0.005 -0.065,0.014c-0.018,0.009 -0.033,0.021 -0.046,0.036c-0.012,0.016 -0.021,0.034 -0.028,0.054c-0.006,0.021 -0.009,0.042 -0.009,0.064c-0,0.022 0.004,0.043 0.011,0.062c0.007,0.02 0.018,0.037 0.031,0.052c0.013,0.015 0.029,0.026 0.048,0.034c0.019,0.009 0.04,0.013 0.063,0.013c0.025,-0 0.047,-0.005 0.065,-0.014c0.018,-0.009 0.035,-0.022 0.05,-0.039l0.064,0.064c-0.023,0.026 -0.05,0.045 -0.082,0.056c-0.03,0.011 -0.063,0.017 -0.098,0.017c-0.037,-0 -0.07,-0.006 -0.101,-0.018c-0.03,-0.012 -0.056,-0.029 -0.078,-0.051c-0.022,-0.021 -0.039,-0.047 -0.051,-0.078c-0.012,-0.03 -0.018,-0.063 -0.018,-0.1c-0,-0.037 0.006,-0.07 0.018,-0.101c0.012,-0.031 0.029,-0.057 0.05,-0.079c0.022,-0.022 0.048,-0.039 0.078,-0.052c0.031,-0.012 0.065,-0.018 0.102,-0.018c0.035,-0 0.068,0.006 0.099,0.018c0.032,0.013 0.06,0.032 0.083,0.057l-0.068,0.062Z" style="fill-rule:nonzero;"/>
        </g>
        <g transform="matrix(114.857,0,0,114.857,1136.54,525.914)">
            <path d="M0.543,-0l-0.09,-0l-0,-0.068l-0.002,0c-0.017,0.025 -0.041,0.045 -0.072,0.059c-0.03,0.014 -0.061,0.021 -0.093,0.021c-0.037,0 -0.07,-0.006 -0.1,-0.019c-0.029,-0.013 -0.055,-0.03 -0.076,-0.053c-0.021,-0.023 -0.037,-0.049 -0.048,-0.079c-0.011,-0.03 -0.017,-0.063 -0.017,-0.098c-0,-0.035 0.006,-0.068 0.017,-0.099c0.011,-0.03 0.027,-0.056 0.048,-0.079c0.021,-0.022 0.047,-0.039 0.076,-0.052c0.03,-0.013 0.063,-0.019 0.1,-0.019c0.034,0 0.066,0.007 0.096,0.022c0.03,0.014 0.053,0.033 0.069,0.058l0.002,0l0,-0.35l0.09,0l0,0.756Zm-0.246,-0.072c0.024,0 0.046,-0.004 0.065,-0.012c0.019,-0.009 0.036,-0.02 0.049,-0.035c0.013,-0.014 0.024,-0.031 0.031,-0.052c0.007,-0.02 0.011,-0.042 0.011,-0.066c-0,-0.024 -0.004,-0.046 -0.011,-0.066c-0.007,-0.021 -0.018,-0.038 -0.031,-0.052c-0.013,-0.015 -0.03,-0.026 -0.049,-0.034c-0.019,-0.009 -0.041,-0.013 -0.065,-0.013c-0.024,0 -0.046,0.004 -0.065,0.013c-0.019,0.008 -0.036,0.019 -0.049,0.034c-0.013,0.014 -0.024,0.031 -0.031,0.051c-0.007,0.021 -0.011,0.043 -0.011,0.067c-0,0.024 0.004,0.046 0.011,0.066c0.007,0.021 0.018,0.038 0.031,0.052c0.013,0.015 0.03,0.026 0.049,0.034c0.019,0.009 0.041,0.013 0.065,0.013Z" style="fill-rule:nonzero;"/>
        </g>
        <g transform="matrix(114.857,0,0,114.857,1206.72,525.914)">
            <path d="M0.075,-0.474l0.09,0l0,0.474l-0.09,-0l0,-0.474Zm-0.021,-0.17c0,-0.018 0.007,-0.034 0.02,-0.046c0.013,-0.013 0.028,-0.02 0.046,-0.02c0.018,0 0.034,0.007 0.047,0.02c0.013,0.012 0.019,0.028 0.019,0.046c0,0.018 -0.006,0.033 -0.019,0.046c-0.013,0.014 -0.029,0.02 -0.047,0.02c-0.018,0 -0.033,-0.006 -0.046,-0.02c-0.013,-0.013 -0.02,-0.028 -0.02,-0.046Z" style="fill-rule:nonzero;"/>
        </g>
        <g transform="matrix(114.857,0,0,114.857,1234.28,525.914)">
            <path d="M0.068,-0.474l0.084,0l-0,0.074l0.002,0c0.002,-0.007 0.007,-0.015 0.015,-0.025c0.009,-0.01 0.019,-0.019 0.032,-0.028c0.013,-0.01 0.029,-0.017 0.046,-0.023c0.018,-0.007 0.038,-0.01 0.059,-0.01c0.035,0 0.065,0.007 0.089,0.022c0.024,0.015 0.044,0.037 0.059,0.066c0.015,-0.029 0.037,-0.051 0.065,-0.066c0.028,-0.015 0.056,-0.022 0.085,-0.022c0.037,0 0.067,0.006 0.09,0.018c0.023,0.012 0.042,0.028 0.055,0.048c0.013,0.019 0.022,0.042 0.027,0.067c0.005,0.025 0.008,0.05 0.008,0.077l0,0.276l-0.09,0l0,-0.264c0,-0.018 -0.001,-0.035 -0.004,-0.052c-0.002,-0.017 -0.007,-0.031 -0.014,-0.044c-0.007,-0.013 -0.018,-0.023 -0.031,-0.03c-0.013,-0.008 -0.031,-0.012 -0.053,-0.012c-0.043,0 -0.074,0.013 -0.093,0.04c-0.019,0.027 -0.028,0.061 -0.028,0.103l0,0.259l-0.09,-0l0,-0.248c0,-0.023 -0.001,-0.043 -0.004,-0.062c-0.002,-0.019 -0.007,-0.035 -0.014,-0.048c-0.007,-0.014 -0.017,-0.025 -0.029,-0.033c-0.013,-0.007 -0.031,-0.011 -0.053,-0.011c-0.016,0 -0.031,0.003 -0.046,0.01c-0.015,0.006 -0.029,0.015 -0.04,0.028c-0.011,0.013 -0.02,0.029 -0.027,0.048c-0.007,0.02 -0.01,0.043 -0.01,0.07l0,0.246l-0.09,-0l0,-0.474Z" style="fill-rule:nonzero;"/>
        </g>
        <g transform="matrix(114.857,0,0,114.857,1332.14,525.914)">
            <path d="M0.136,-0.204c0,0.021 0.004,0.04 0.013,0.057c0.009,0.017 0.021,0.031 0.036,0.043c0.015,0.012 0.032,0.021 0.051,0.028c0.019,0.007 0.039,0.01 0.06,0.01c0.028,0 0.052,-0.006 0.073,-0.019c0.021,-0.013 0.04,-0.031 0.057,-0.052l0.068,0.052c-0.05,0.065 -0.12,0.097 -0.21,0.097c-0.037,0 -0.071,-0.006 -0.102,-0.019c-0.03,-0.013 -0.056,-0.03 -0.077,-0.053c-0.021,-0.022 -0.037,-0.048 -0.048,-0.079c-0.011,-0.03 -0.017,-0.063 -0.017,-0.098c-0,-0.035 0.006,-0.068 0.018,-0.099c0.013,-0.03 0.03,-0.056 0.051,-0.079c0.022,-0.022 0.048,-0.039 0.078,-0.052c0.03,-0.013 0.063,-0.019 0.098,-0.019c0.042,0 0.078,0.007 0.106,0.022c0.03,0.015 0.053,0.034 0.072,0.057c0.019,0.024 0.032,0.051 0.041,0.081c0.008,0.029 0.012,0.059 0.012,0.09l0,0.032l-0.38,0Zm0.284,-0.072c-0.001,-0.02 -0.004,-0.038 -0.01,-0.055c-0.005,-0.017 -0.014,-0.031 -0.025,-0.043c-0.011,-0.013 -0.026,-0.023 -0.042,-0.03c-0.018,-0.007 -0.037,-0.01 -0.06,-0.01c-0.022,0 -0.042,0.004 -0.061,0.013c-0.018,0.008 -0.033,0.019 -0.046,0.032c-0.013,0.013 -0.023,0.028 -0.03,0.044c-0.007,0.017 -0.01,0.033 -0.01,0.049l0.284,0Z" style="fill-rule:nonzero;"/>
        </g>
        <g transform="matrix(114.857,0,0,114.857,1396,525.914)">
            <path d="M0.068,-0.474l0.09,0l0,0.073l0.002,0c0.011,-0.025 0.031,-0.046 0.059,-0.062c0.028,-0.015 0.06,-0.023 0.097,-0.023c0.023,0 0.045,0.004 0.066,0.011c0.021,0.007 0.039,0.017 0.054,0.032c0.016,0.015 0.029,0.034 0.038,0.057c0.009,0.023 0.014,0.05 0.014,0.081l0,0.305l-0.09,0l0,-0.28c-0,-0.022 -0.003,-0.041 -0.009,-0.056c-0.006,-0.016 -0.014,-0.029 -0.024,-0.038c-0.01,-0.01 -0.022,-0.017 -0.034,-0.021c-0.013,-0.005 -0.027,-0.007 -0.041,-0.007c-0.019,0 -0.036,0.003 -0.052,0.009c-0.016,0.006 -0.03,0.016 -0.042,0.029c-0.012,0.013 -0.021,0.029 -0.028,0.049c-0.007,0.02 -0.01,0.044 -0.01,0.071l0,0.244l-0.09,0l0,-0.474Z" style="fill-rule:nonzero;"/>
        </g>
        <g transform="matrix(114.857,0,0,114.857,1459.86,525.914)">
            <path d="M0.32,-0.355c-0.011,-0.013 -0.024,-0.025 -0.039,-0.034c-0.016,-0.009 -0.035,-0.013 -0.058,-0.013c-0.021,0 -0.04,0.005 -0.056,0.014c-0.015,0.009 -0.023,0.022 -0.023,0.039c-0,0.014 0.004,0.025 0.013,0.034c0.009,0.009 0.02,0.016 0.032,0.021c0.013,0.005 0.026,0.009 0.04,0.012c0.014,0.003 0.026,0.005 0.036,0.007c0.019,0.005 0.037,0.01 0.054,0.017c0.017,0.007 0.032,0.015 0.044,0.026c0.013,0.011 0.022,0.024 0.029,0.039c0.007,0.015 0.011,0.034 0.011,0.056c-0,0.027 -0.006,0.05 -0.017,0.069c-0.011,0.018 -0.026,0.034 -0.044,0.046c-0.018,0.012 -0.039,0.021 -0.062,0.026c-0.023,0.005 -0.046,0.008 -0.069,0.008c-0.039,0 -0.074,-0.006 -0.104,-0.018c-0.029,-0.012 -0.056,-0.034 -0.079,-0.066l0.068,-0.056c0.015,0.015 0.031,0.028 0.049,0.039c0.018,0.011 0.04,0.017 0.066,0.017c0.011,-0 0.023,-0.001 0.034,-0.004c0.012,-0.002 0.022,-0.006 0.031,-0.011c0.009,-0.005 0.017,-0.011 0.022,-0.019c0.006,-0.007 0.009,-0.016 0.009,-0.026c-0,-0.013 -0.004,-0.024 -0.013,-0.033c-0.008,-0.009 -0.018,-0.015 -0.03,-0.02c-0.011,-0.006 -0.024,-0.01 -0.037,-0.013c-0.013,-0.003 -0.024,-0.005 -0.034,-0.007c-0.019,-0.005 -0.038,-0.01 -0.055,-0.016c-0.017,-0.006 -0.033,-0.014 -0.046,-0.024c-0.013,-0.01 -0.024,-0.023 -0.032,-0.038c-0.008,-0.015 -0.012,-0.034 -0.012,-0.057c-0,-0.025 0.005,-0.046 0.015,-0.065c0.011,-0.018 0.024,-0.033 0.041,-0.045c0.017,-0.012 0.037,-0.021 0.058,-0.027c0.022,-0.006 0.044,-0.009 0.066,-0.009c0.032,0 0.063,0.006 0.092,0.018c0.029,0.012 0.053,0.032 0.07,0.06l-0.07,0.053Z" style="fill-rule:nonzero;"/>
        </g>
        <g transform="matrix(114.857,0,0,114.857,1510.86,525.914)">
            <path d="M0.075,-0.474l0.09,0l0,0.474l-0.09,-0l0,-0.474Zm-0.021,-0.17c0,-0.018 0.007,-0.034 0.02,-0.046c0.013,-0.013 0.028,-0.02 0.046,-0.02c0.018,0 0.034,0.007 0.047,0.02c0.013,0.012 0.019,0.028 0.019,0.046c0,0.018 -0.006,0.033 -0.019,0.046c-0.013,0.014 -0.029,0.02 -0.047,0.02c-0.018,0 -0.033,-0.006 -0.046,-0.02c-0.013,-0.013 -0.02,-0.028 -0.02,-0.046Z" style="fill-rule:nonzero;"/>
        </g>
        <g transform="matrix(114.857,0,0,114.857,1538.43,525.914)">
            <path d="M0.141,-0.237c0,0.024 0.004,0.046 0.011,0.067c0.007,0.02 0.018,0.037 0.031,0.052c0.013,0.014 0.03,0.025 0.049,0.034c0.019,0.008 0.041,0.012 0.065,0.012c0.024,0 0.046,-0.004 0.065,-0.012c0.019,-0.009 0.036,-0.02 0.049,-0.035c0.013,-0.014 0.024,-0.031 0.031,-0.052c0.007,-0.02 0.011,-0.042 0.011,-0.066c-0,-0.024 -0.004,-0.046 -0.011,-0.066c-0.007,-0.021 -0.018,-0.038 -0.031,-0.052c-0.013,-0.015 -0.03,-0.026 -0.049,-0.034c-0.019,-0.009 -0.041,-0.013 -0.065,-0.013c-0.024,0 -0.046,0.004 -0.065,0.013c-0.019,0.008 -0.036,0.019 -0.049,0.034c-0.013,0.014 -0.024,0.031 -0.031,0.051c-0.007,0.021 -0.011,0.043 -0.011,0.067Zm-0.096,-0c-0,-0.035 0.006,-0.067 0.019,-0.097c0.013,-0.03 0.031,-0.056 0.054,-0.079c0.023,-0.023 0.049,-0.041 0.08,-0.054c0.031,-0.013 0.064,-0.019 0.099,-0.019c0.035,0 0.068,0.007 0.099,0.019c0.031,0.013 0.057,0.031 0.08,0.054c0.023,0.023 0.041,0.049 0.053,0.079c0.013,0.03 0.02,0.062 0.02,0.097c0,0.035 -0.007,0.067 -0.02,0.097c-0.012,0.031 -0.03,0.057 -0.053,0.079c-0.023,0.023 -0.049,0.04 -0.08,0.053c-0.031,0.013 -0.064,0.02 -0.099,0.02c-0.035,-0 -0.068,-0.007 -0.099,-0.02c-0.031,-0.013 -0.057,-0.03 -0.08,-0.053c-0.023,-0.022 -0.041,-0.048 -0.054,-0.079c-0.013,-0.03 -0.019,-0.062 -0.019,-0.097Z" style="fill-rule:nonzero;"/>
        </g>
        <g transform="matrix(114.857,0,0,114.857,1606.65,525.914)">
            <path d="M0.068,-0.474l0.09,0l0,0.073l0.002,0c0.011,-0.025 0.031,-0.046 0.059,-0.062c0.028,-0.015 0.06,-0.023 0.097,-0.023c0.023,0 0.045,0.004 0.066,0.011c0.021,0.007 0.039,0.017 0.054,0.032c0.016,0.015 0.029,0.034 0.038,0.057c0.009,0.023 0.014,0.05 0.014,0.081l0,0.305l-0.09,0l0,-0.28c-0,-0.022 -0.003,-0.041 -0.009,-0.056c-0.006,-0.016 -0.014,-0.029 -0.024,-0.038c-0.01,-0.01 -0.022,-0.017 -0.034,-0.021c-0.013,-0.005 -0.027,-0.007 -0.041,-0.007c-0.019,0 -0.036,0.003 -0.052,0.009c-0.016,0.006 -0.03,0.016 -0.042,0.029c-0.012,0.013 -0.021,0.029 -0.028,0.049c-0.007,0.02 -0.01,0.044 -0.01,0.071l0,0.244l-0.09,0l0,-0.474Z" style="fill-rule:nonzero;"/>
        </g>
    </g>
    <path d="M5.014,216.411c0,1.079 0.235,2.063 0.705,2.951c0.471,0.888 1.089,1.645 1.855,2.272c0.766,0.627 1.654,1.115 2.664,1.463c1.009,0.348 2.054,0.522 3.134,0.522c1.462,0 2.733,-0.339 3.813,-1.018c1.079,-0.679 2.071,-1.576 2.977,-2.69l3.552,2.716c-2.612,3.377 -6.268,5.066 -10.969,5.066c-1.95,0 -3.717,-0.331 -5.302,-0.992c-1.584,-0.662 -2.925,-1.576 -4.022,-2.742c-1.097,-1.167 -1.941,-2.542 -2.533,-4.127c-0.592,-1.584 -0.888,-3.299 -0.888,-5.145c0,-1.845 0.322,-3.56 0.966,-5.145c0.645,-1.584 1.532,-2.959 2.664,-4.126c1.132,-1.167 2.481,-2.081 4.048,-2.742c1.567,-0.662 3.273,-0.993 5.119,-0.993c2.194,0 4.048,0.383 5.563,1.149c1.515,0.767 2.759,1.768 3.734,3.004c0.975,1.236 1.681,2.629 2.116,4.178c0.435,1.55 0.653,3.126 0.653,4.728l-0,1.671l-19.849,-0Zm14.834,-3.761c-0.034,-1.044 -0.2,-2.002 -0.496,-2.873c-0.296,-0.87 -0.74,-1.627 -1.332,-2.272c-0.592,-0.644 -1.332,-1.149 -2.22,-1.514c-0.888,-0.366 -1.924,-0.549 -3.107,-0.549c-1.15,0 -2.203,0.218 -3.161,0.653c-0.957,0.435 -1.767,1.001 -2.428,1.698c-0.662,0.696 -1.176,1.471 -1.541,2.324c-0.366,0.853 -0.549,1.697 -0.549,2.533l14.834,0Z" style="fill-rule:nonzero;"/>
    <path d="M34.212,227.38c-0.94,-0 -1.749,-0.34 -2.428,-1.019c-0.679,-0.679 -1.019,-1.488 -1.019,-2.429c0,-0.94 0.34,-1.749 1.019,-2.428c0.679,-0.679 1.488,-1.019 2.428,-1.019c0.941,0 1.75,0.34 2.429,1.019c0.679,0.679 1.019,1.488 1.019,2.428c-0,0.941 -0.34,1.75 -1.019,2.429c-0.679,0.679 -1.488,1.019 -2.429,1.019Z" style="fill-rule:nonzero;"/>
    <path d="M69.835,226.857c0,1.881 -0.322,3.596 -0.966,5.145c-0.644,1.55 -1.559,2.891 -2.743,4.022c-1.183,1.132 -2.611,2.011 -4.283,2.638c-1.671,0.627 -3.517,0.94 -5.536,0.94c-2.368,0 -4.536,-0.331 -6.503,-0.992c-1.968,-0.662 -3.839,-1.811 -5.615,-3.448l3.186,-3.969c1.219,1.323 2.542,2.324 3.97,3.003c1.427,0.679 3.047,1.019 4.857,1.019c1.741,-0 3.186,-0.253 4.336,-0.758c1.149,-0.505 2.063,-1.157 2.742,-1.958c0.679,-0.801 1.158,-1.715 1.436,-2.743c0.279,-1.027 0.418,-2.063 0.418,-3.107l0,-3.657l-0.157,0c-0.905,1.498 -2.132,2.603 -3.682,3.317c-1.55,0.714 -3.178,1.071 -4.884,1.071c-1.811,-0 -3.491,-0.322 -5.04,-0.966c-1.55,-0.645 -2.882,-1.533 -3.996,-2.664c-1.114,-1.132 -1.985,-2.473 -2.612,-4.022c-0.626,-1.55 -0.94,-3.23 -0.94,-5.041c0,-1.81 0.296,-3.508 0.888,-5.092c0.592,-1.585 1.437,-2.969 2.533,-4.153c1.097,-1.184 2.421,-2.107 3.97,-2.768c1.55,-0.662 3.282,-0.993 5.197,-0.993c1.672,0 3.3,0.366 4.884,1.097c1.584,0.732 2.829,1.759 3.735,3.082l0.104,-0l0,-3.552l4.701,0l0,24.549Zm-12.849,-20.788c-1.254,-0 -2.386,0.218 -3.395,0.653c-1.01,0.435 -1.863,1.027 -2.56,1.776c-0.696,0.748 -1.236,1.654 -1.619,2.716c-0.383,1.062 -0.575,2.22 -0.575,3.473c0,2.507 0.732,4.518 2.194,6.033c1.463,1.515 3.448,2.272 5.955,2.272c2.507,0 4.492,-0.757 5.954,-2.272c1.463,-1.515 2.194,-3.526 2.194,-6.033c0,-1.253 -0.191,-2.411 -0.574,-3.473c-0.384,-1.062 -0.923,-1.968 -1.62,-2.716c-0.696,-0.749 -1.549,-1.341 -2.559,-1.776c-1.01,-0.435 -2.142,-0.653 -3.395,-0.653Z" style="fill-rule:nonzero;"/>
    <path d="M80.647,227.38c-0.94,-0 -1.75,-0.34 -2.429,-1.019c-0.679,-0.679 -1.018,-1.488 -1.018,-2.429c-0,-0.94 0.339,-1.749 1.018,-2.428c0.679,-0.679 1.489,-1.019 2.429,-1.019c0.94,0 1.75,0.34 2.429,1.019c0.679,0.679 1.019,1.488 1.019,2.428c-0,0.941 -0.34,1.75 -1.019,2.429c-0.679,0.679 -1.489,1.019 -2.429,1.019Z" style="fill-rule:nonzero;"/>
    <path d="M116.531,195.831l-6.79,6.268l-2.925,-3.499l10.29,-8.514l4.439,-0l0,36.98l-5.014,0l-0,-31.235Z" style="fill-rule:nonzero;"/>
    <path d="M159.832,227.066l-4.701,0l-0,-3.551l-0.105,-0c-0.905,1.323 -2.15,2.35 -3.734,3.081c-1.585,0.732 -3.213,1.097 -4.884,1.097c-1.915,0 -3.648,-0.331 -5.197,-0.992c-1.55,-0.662 -2.873,-1.585 -3.97,-2.769c-1.097,-1.183 -1.941,-2.559 -2.533,-4.126c-0.592,-1.567 -0.888,-3.273 -0.888,-5.119c-0,-1.845 0.296,-3.56 0.888,-5.145c0.592,-1.584 1.436,-2.959 2.533,-4.126c1.097,-1.167 2.42,-2.081 3.97,-2.742c1.549,-0.662 3.282,-0.993 5.197,-0.993c1.776,0 3.447,0.375 5.014,1.123c1.567,0.749 2.769,1.768 3.604,3.056l0.105,-0l-0,-18.281l4.701,-0l-0,39.487Zm-12.849,-3.76c1.253,-0 2.385,-0.218 3.395,-0.653c1.01,-0.436 1.863,-1.027 2.559,-1.776c0.697,-0.749 1.236,-1.654 1.619,-2.716c0.383,-1.062 0.575,-2.22 0.575,-3.474c-0,-1.253 -0.192,-2.411 -0.575,-3.473c-0.383,-1.062 -0.922,-1.968 -1.619,-2.716c-0.696,-0.749 -1.549,-1.341 -2.559,-1.776c-1.01,-0.435 -2.142,-0.653 -3.395,-0.653c-1.254,-0 -2.386,0.218 -3.396,0.653c-1.009,0.435 -1.862,1.027 -2.559,1.776c-0.696,0.748 -1.236,1.654 -1.619,2.716c-0.383,1.062 -0.575,2.22 -0.575,3.473c0,1.254 0.192,2.412 0.575,3.474c0.383,1.062 0.923,1.967 1.619,2.716c0.697,0.749 1.55,1.34 2.559,1.776c1.01,0.435 2.142,0.653 3.396,0.653Z" style="fill-rule:nonzero;"/>
    <rect x="165.212" y="212.232" width="12.849" height="4.388" style="fill-rule:nonzero;"/>
    <path d="M183.441,202.308l4.387,0l0,3.865l0.105,0c0.104,-0.348 0.374,-0.783 0.81,-1.305c0.435,-0.523 0.992,-1.019 1.671,-1.489c0.679,-0.47 1.48,-0.871 2.403,-1.201c0.922,-0.331 1.941,-0.497 3.055,-0.497c1.846,0 3.395,0.383 4.649,1.149c1.254,0.767 2.281,1.916 3.082,3.448c0.801,-1.532 1.932,-2.681 3.395,-3.448c1.462,-0.766 2.942,-1.149 4.44,-1.149c1.915,0 3.482,0.314 4.701,0.941c1.218,0.626 2.176,1.453 2.872,2.481c0.697,1.027 1.176,2.193 1.437,3.499c0.261,1.306 0.392,2.655 0.392,4.048l-0,14.416l-4.701,0l-0,-13.789c-0,-0.94 -0.061,-1.846 -0.183,-2.716c-0.122,-0.871 -0.375,-1.637 -0.758,-2.298c-0.383,-0.662 -0.922,-1.193 -1.619,-1.593c-0.696,-0.401 -1.619,-0.601 -2.768,-0.601c-2.264,-0 -3.883,0.696 -4.858,2.089c-0.975,1.393 -1.462,3.186 -1.462,5.38l-0,13.528l-4.701,0l-0,-12.953c-0,-1.184 -0.061,-2.264 -0.183,-3.239c-0.122,-0.975 -0.366,-1.819 -0.731,-2.533c-0.366,-0.714 -0.888,-1.271 -1.567,-1.671c-0.679,-0.401 -1.593,-0.601 -2.743,-0.601c-0.835,-0 -1.645,0.165 -2.428,0.496c-0.784,0.331 -1.472,0.827 -2.064,1.489c-0.591,0.661 -1.062,1.506 -1.41,2.533c-0.348,1.027 -0.522,2.237 -0.522,3.63l-0,12.849l-4.701,0l-0,-24.758Z" style="fill-rule:nonzero;"/>
    <path d="M231.756,214.687c0,1.254 0.192,2.412 0.575,3.474c0.383,1.062 0.922,1.967 1.619,2.716c0.696,0.749 1.549,1.34 2.559,1.776c1.01,0.435 2.142,0.653 3.395,0.653c1.254,-0 2.386,-0.218 3.396,-0.653c1.009,-0.436 1.862,-1.027 2.559,-1.776c0.696,-0.749 1.236,-1.654 1.619,-2.716c0.383,-1.062 0.575,-2.22 0.575,-3.474c-0,-1.253 -0.192,-2.411 -0.575,-3.473c-0.383,-1.062 -0.923,-1.968 -1.619,-2.716c-0.697,-0.749 -1.55,-1.341 -2.559,-1.776c-1.01,-0.435 -2.142,-0.653 -3.396,-0.653c-1.253,-0 -2.385,0.218 -3.395,0.653c-1.01,0.435 -1.863,1.027 -2.559,1.776c-0.697,0.748 -1.236,1.654 -1.619,2.716c-0.383,1.062 -0.575,2.22 -0.575,3.473Zm-5.014,0c-0,-1.81 0.339,-3.499 1.018,-5.066c0.679,-1.567 1.611,-2.943 2.795,-4.127c1.184,-1.184 2.577,-2.115 4.178,-2.794c1.602,-0.679 3.326,-1.019 5.171,-1.019c1.846,0 3.57,0.34 5.171,1.019c1.602,0.679 2.995,1.61 4.179,2.794c1.184,1.184 2.115,2.56 2.794,4.127c0.68,1.567 1.019,3.256 1.019,5.066c0,1.811 -0.339,3.509 -1.019,5.093c-0.679,1.584 -1.61,2.96 -2.794,4.126c-1.184,1.167 -2.577,2.09 -4.179,2.769c-1.601,0.679 -3.325,1.018 -5.171,1.018c-1.845,0 -3.569,-0.339 -5.171,-1.018c-1.601,-0.679 -2.994,-1.602 -4.178,-2.769c-1.184,-1.166 -2.116,-2.542 -2.795,-4.126c-0.679,-1.584 -1.018,-3.282 -1.018,-5.093Z" style="fill-rule:nonzero;"/>
    <path d="M255.992,202.308l5.432,0l7.417,18.961l7.104,-18.961l5.014,0l-9.715,24.758l-5.171,0l-10.081,-24.758Z" style="fill-rule:nonzero;"/>
    <path d="M288.637,216.411c0,1.079 0.235,2.063 0.706,2.951c0.47,0.888 1.088,1.645 1.854,2.272c0.766,0.627 1.654,1.115 2.664,1.463c1.01,0.348 2.054,0.522 3.134,0.522c1.462,0 2.733,-0.339 3.813,-1.018c1.079,-0.679 2.072,-1.576 2.977,-2.69l3.552,2.716c-2.612,3.377 -6.268,5.066 -10.969,5.066c-1.95,0 -3.717,-0.331 -5.302,-0.992c-1.584,-0.662 -2.925,-1.576 -4.022,-2.742c-1.097,-1.167 -1.941,-2.542 -2.533,-4.127c-0.592,-1.584 -0.888,-3.299 -0.888,-5.145c0,-1.845 0.322,-3.56 0.966,-5.145c0.645,-1.584 1.533,-2.959 2.664,-4.126c1.132,-1.167 2.481,-2.081 4.048,-2.742c1.567,-0.662 3.274,-0.993 5.119,-0.993c2.194,0 4.048,0.383 5.563,1.149c1.515,0.767 2.759,1.768 3.735,3.004c0.975,1.236 1.68,2.629 2.115,4.178c0.435,1.55 0.653,3.126 0.653,4.728l-0,1.671l-19.849,-0Zm14.835,-3.761c-0.035,-1.044 -0.201,-2.002 -0.497,-2.873c-0.296,-0.87 -0.74,-1.627 -1.332,-2.272c-0.592,-0.644 -1.332,-1.149 -2.22,-1.514c-0.887,-0.366 -1.923,-0.549 -3.107,-0.549c-1.149,0 -2.203,0.218 -3.16,0.653c-0.958,0.435 -1.768,1.001 -2.429,1.698c-0.662,0.696 -1.175,1.471 -1.541,2.324c-0.366,0.853 -0.549,1.697 -0.549,2.533l14.835,0Z" style="fill-rule:nonzero;"/>
    <path d="M314.127,202.308l4.387,0l0,3.865l0.105,0c0.104,-0.348 0.374,-0.783 0.81,-1.305c0.435,-0.523 0.992,-1.019 1.671,-1.489c0.679,-0.47 1.48,-0.871 2.403,-1.201c0.922,-0.331 1.941,-0.497 3.055,-0.497c1.846,0 3.395,0.383 4.649,1.149c1.254,0.767 2.281,1.916 3.082,3.448c0.801,-1.532 1.932,-2.681 3.395,-3.448c1.462,-0.766 2.942,-1.149 4.44,-1.149c1.915,0 3.482,0.314 4.701,0.941c1.218,0.626 2.176,1.453 2.872,2.481c0.697,1.027 1.176,2.193 1.437,3.499c0.261,1.306 0.392,2.655 0.392,4.048l-0,14.416l-4.701,0l-0,-13.789c-0,-0.94 -0.061,-1.846 -0.183,-2.716c-0.122,-0.871 -0.375,-1.637 -0.758,-2.298c-0.383,-0.662 -0.922,-1.193 -1.619,-1.593c-0.696,-0.401 -1.619,-0.601 -2.768,-0.601c-2.264,-0 -3.883,0.696 -4.858,2.089c-0.975,1.393 -1.462,3.186 -1.462,5.38l-0,13.528l-4.701,0l-0,-12.953c-0,-1.184 -0.061,-2.264 -0.183,-3.239c-0.122,-0.975 -0.366,-1.819 -0.731,-2.533c-0.366,-0.714 -0.888,-1.271 -1.567,-1.671c-0.679,-0.401 -1.593,-0.601 -2.742,-0.601c-0.836,-0 -1.646,0.165 -2.429,0.496c-0.784,0.331 -1.472,0.827 -2.063,1.489c-0.592,0.661 -1.063,1.506 -1.411,2.533c-0.348,1.027 -0.522,2.237 -0.522,3.63l-0,12.849l-4.701,0l-0,-24.758Z" style="fill-rule:nonzero;"/>
    <path d="M362.181,216.411c-0,1.079 0.235,2.063 0.705,2.951c0.47,0.888 1.088,1.645 1.854,2.272c0.766,0.627 1.654,1.115 2.664,1.463c1.01,0.348 2.055,0.522 3.134,0.522c1.463,0 2.734,-0.339 3.813,-1.018c1.08,-0.679 2.072,-1.576 2.977,-2.69l3.552,2.716c-2.611,3.377 -6.268,5.066 -10.969,5.066c-1.95,0 -3.717,-0.331 -5.301,-0.992c-1.585,-0.662 -2.925,-1.576 -4.022,-2.742c-1.097,-1.167 -1.941,-2.542 -2.533,-4.127c-0.592,-1.584 -0.888,-3.299 -0.888,-5.145c-0,-1.845 0.322,-3.56 0.966,-5.145c0.644,-1.584 1.532,-2.959 2.664,-4.126c1.132,-1.167 2.481,-2.081 4.048,-2.742c1.567,-0.662 3.273,-0.993 5.119,-0.993c2.193,0 4.048,0.383 5.562,1.149c1.515,0.767 2.76,1.768 3.735,3.004c0.975,1.236 1.68,2.629 2.115,4.178c0.436,1.55 0.653,3.126 0.653,4.728l0,1.671l-19.848,-0Zm14.834,-3.761c-0.035,-1.044 -0.2,-2.002 -0.496,-2.873c-0.296,-0.87 -0.74,-1.627 -1.332,-2.272c-0.592,-0.644 -1.332,-1.149 -2.22,-1.514c-0.888,-0.366 -1.924,-0.549 -3.108,-0.549c-1.149,0 -2.202,0.218 -3.16,0.653c-0.958,0.435 -1.767,1.001 -2.429,1.698c-0.661,0.696 -1.175,1.471 -1.541,2.324c-0.365,0.853 -0.548,1.697 -0.548,2.533l14.834,0Z" style="fill-rule:nonzero;"/>
    <path d="M387.67,202.308l4.701,0l0,3.813l0.105,0c0.592,-1.323 1.619,-2.394 3.082,-3.212c1.462,-0.818 3.151,-1.228 5.066,-1.228c1.184,0 2.325,0.183 3.421,0.549c1.097,0.365 2.055,0.931 2.873,1.697c0.819,0.766 1.471,1.75 1.959,2.952c0.487,1.201 0.731,2.62 0.731,4.256l0,15.931l-4.701,0l0,-14.625c0,-1.149 -0.156,-2.133 -0.47,-2.951c-0.313,-0.818 -0.731,-1.48 -1.253,-1.985c-0.523,-0.505 -1.123,-0.87 -1.802,-1.097c-0.679,-0.226 -1.385,-0.339 -2.116,-0.339c-0.975,-0 -1.88,0.157 -2.716,0.47c-0.836,0.313 -1.567,0.81 -2.194,1.489c-0.627,0.679 -1.114,1.54 -1.462,2.585c-0.348,1.045 -0.523,2.281 -0.523,3.709l0,12.744l-4.701,0l0,-24.758Z" style="fill-rule:nonzero;"/>
    <path d="M429.979,206.382l-6.738,0l-0,11.23c-0,0.697 0.017,1.384 0.052,2.063c0.035,0.68 0.166,1.289 0.392,1.829c0.226,0.539 0.574,0.975 1.045,1.305c0.47,0.331 1.157,0.497 2.063,0.497c0.557,-0 1.131,-0.053 1.723,-0.157c0.592,-0.104 1.132,-0.296 1.62,-0.575l-0,4.283c-0.558,0.314 -1.28,0.532 -2.168,0.653c-0.888,0.122 -1.576,0.183 -2.063,0.183c-1.811,0 -3.213,-0.252 -4.205,-0.757c-0.992,-0.505 -1.724,-1.158 -2.194,-1.959c-0.47,-0.801 -0.748,-1.697 -0.835,-2.69c-0.088,-0.992 -0.131,-1.993 -0.131,-3.003l-0,-12.902l-5.432,0l-0,-4.074l5.432,0l-0,-6.947l4.701,0l-0,6.947l6.738,0l-0,4.074Z" style="fill-rule:nonzero;"/>
    <path d="M467.377,202.308l4.701,0l0,24.758l-4.701,0l0,-24.758Zm-1.044,-8.827c-0,-0.94 0.339,-1.75 1.018,-2.429c0.679,-0.679 1.489,-1.019 2.429,-1.019c0.94,0 1.75,0.34 2.429,1.019c0.679,0.679 1.019,1.489 1.019,2.429c-0,0.94 -0.34,1.75 -1.019,2.429c-0.679,0.679 -1.489,1.018 -2.429,1.018c-0.94,0 -1.75,-0.339 -2.429,-1.018c-0.679,-0.679 -1.018,-1.489 -1.018,-2.429Zm-13.946,12.901l-5.328,0l-0,-4.074l5.328,0l-0,-5.537c-0,-3.308 0.635,-5.771 1.906,-7.39c1.271,-1.62 3.456,-2.429 6.555,-2.429c0.523,-0 1.071,0.017 1.646,0.052c0.574,0.035 1.192,0.139 1.854,0.313l-0.522,4.179c-0.453,-0.174 -0.888,-0.296 -1.306,-0.366c-0.418,-0.069 -0.871,-0.104 -1.358,-0.104c-0.871,-0 -1.567,0.13 -2.09,0.392c-0.522,0.261 -0.931,0.635 -1.227,1.123c-0.296,0.487 -0.488,1.07 -0.575,1.749c-0.087,0.679 -0.13,1.454 -0.13,2.325l-0,5.693l5.589,0l-0,4.074l-5.641,0l-0,20.684l-4.701,0l-0,-20.684Z" style="fill-rule:nonzero;"/>
    <rect x="479.966" y="187.579" width="4.701" height="39.488" style="fill-rule:nonzero;"/>
    <path d="M492.136,202.308l4.387,0l0,3.865l0.105,0c0.104,-0.348 0.374,-0.783 0.809,-1.305c0.436,-0.523 0.993,-1.019 1.672,-1.489c0.679,-0.47 1.48,-0.871 2.402,-1.201c0.923,-0.331 1.942,-0.497 3.056,-0.497c1.846,0 3.395,0.383 4.649,1.149c1.253,0.767 2.281,1.916 3.082,3.448c0.8,-1.532 1.932,-2.681 3.395,-3.448c1.462,-0.766 2.942,-1.149 4.439,-1.149c1.916,0 3.483,0.314 4.701,0.941c1.219,0.626 2.177,1.453 2.873,2.481c0.697,1.027 1.175,2.193 1.437,3.499c0.261,1.306 0.391,2.655 0.391,4.048l0,14.416l-4.701,0l0,-13.789c0,-0.94 -0.061,-1.846 -0.182,-2.716c-0.122,-0.871 -0.375,-1.637 -0.758,-2.298c-0.383,-0.662 -0.923,-1.193 -1.619,-1.593c-0.696,-0.401 -1.619,-0.601 -2.768,-0.601c-2.264,-0 -3.883,0.696 -4.858,2.089c-0.975,1.393 -1.463,3.186 -1.463,5.38l0,13.528l-4.7,0l-0,-12.953c-0,-1.184 -0.061,-2.264 -0.183,-3.239c-0.122,-0.975 -0.366,-1.819 -0.732,-2.533c-0.365,-0.714 -0.887,-1.271 -1.567,-1.671c-0.679,-0.401 -1.593,-0.601 -2.742,-0.601c-0.835,-0 -1.645,0.165 -2.429,0.496c-0.783,0.331 -1.471,0.827 -2.063,1.489c-0.592,0.661 -1.062,1.506 -1.41,2.533c-0.348,1.027 -0.522,2.237 -0.522,3.63l-0,12.849l-4.701,0l-0,-24.758Z" style="fill-rule:nonzero;"/>
    <path d="M540.19,216.411c-0,1.079 0.235,2.063 0.705,2.951c0.47,0.888 1.088,1.645 1.854,2.272c0.766,0.627 1.654,1.115 2.664,1.463c1.01,0.348 2.054,0.522 3.134,0.522c1.462,0 2.733,-0.339 3.813,-1.018c1.079,-0.679 2.072,-1.576 2.977,-2.69l3.552,2.716c-2.612,3.377 -6.268,5.066 -10.969,5.066c-1.95,0 -3.717,-0.331 -5.301,-0.992c-1.585,-0.662 -2.925,-1.576 -4.022,-2.742c-1.097,-1.167 -1.942,-2.542 -2.534,-4.127c-0.592,-1.584 -0.888,-3.299 -0.888,-5.145c0,-1.845 0.322,-3.56 0.967,-5.145c0.644,-1.584 1.532,-2.959 2.664,-4.126c1.131,-1.167 2.481,-2.081 4.048,-2.742c1.567,-0.662 3.273,-0.993 5.118,-0.993c2.194,0 4.048,0.383 5.563,1.149c1.515,0.767 2.76,1.768 3.735,3.004c0.975,1.236 1.68,2.629 2.115,4.178c0.435,1.55 0.653,3.126 0.653,4.728l0,1.671l-19.848,-0Zm14.834,-3.761c-0.035,-1.044 -0.2,-2.002 -0.496,-2.873c-0.296,-0.87 -0.74,-1.627 -1.332,-2.272c-0.592,-0.644 -1.332,-1.149 -2.22,-1.514c-0.888,-0.366 -1.924,-0.549 -3.108,-0.549c-1.149,0 -2.203,0.218 -3.16,0.653c-0.958,0.435 -1.767,1.001 -2.429,1.698c-0.662,0.696 -1.175,1.471 -1.541,2.324c-0.365,0.853 -0.548,1.697 -0.548,2.533l14.834,0Z" style="fill-rule:nonzero;"/>
    <path d="M590.49,227.066l-4.701,0l-0,-3.551l-0.105,-0c-0.905,1.323 -2.15,2.35 -3.734,3.081c-1.585,0.732 -3.213,1.097 -4.884,1.097c-1.915,0 -3.648,-0.331 -5.197,-0.992c-1.55,-0.662 -2.873,-1.585 -3.97,-2.769c-1.097,-1.183 -1.941,-2.559 -2.533,-4.126c-0.592,-1.567 -0.888,-3.273 -0.888,-5.119c-0,-1.845 0.296,-3.56 0.888,-5.145c0.592,-1.584 1.436,-2.959 2.533,-4.126c1.097,-1.167 2.42,-2.081 3.97,-2.742c1.549,-0.662 3.282,-0.993 5.197,-0.993c1.776,0 3.447,0.375 5.014,1.123c1.567,0.749 2.769,1.768 3.604,3.056l0.105,-0l-0,-18.281l4.701,-0l-0,39.487Zm-12.849,-3.76c1.253,-0 2.385,-0.218 3.395,-0.653c1.009,-0.436 1.863,-1.027 2.559,-1.776c0.696,-0.749 1.236,-1.654 1.619,-2.716c0.383,-1.062 0.575,-2.22 0.575,-3.474c-0,-1.253 -0.192,-2.411 -0.575,-3.473c-0.383,-1.062 -0.923,-1.968 -1.619,-2.716c-0.696,-0.749 -1.55,-1.341 -2.559,-1.776c-1.01,-0.435 -2.142,-0.653 -3.395,-0.653c-1.254,-0 -2.386,0.218 -3.396,0.653c-1.009,0.435 -1.863,1.027 -2.559,1.776c-0.696,0.748 -1.236,1.654 -1.619,2.716c-0.383,1.062 -0.575,2.22 -0.575,3.473c0,1.254 0.192,2.412 0.575,3.474c0.383,1.062 0.923,1.967 1.619,2.716c0.696,0.749 1.55,1.34 2.559,1.776c1.01,0.435 2.142,0.653 3.396,0.653Z" style="fill-rule:nonzero;"/>
    <path d="M612.114,187.579l4.701,-0l-0,18.281l0.104,-0c0.836,-1.288 2.038,-2.307 3.604,-3.056c1.567,-0.748 3.239,-1.123 5.015,-1.123c1.915,0 3.647,0.331 5.197,0.993c1.55,0.661 2.873,1.575 3.97,2.742c1.097,1.167 1.941,2.542 2.533,4.126c0.592,1.585 0.888,3.3 0.888,5.145c-0,1.846 -0.296,3.552 -0.888,5.119c-0.592,1.567 -1.436,2.943 -2.533,4.126c-1.097,1.184 -2.42,2.107 -3.97,2.769c-1.55,0.661 -3.282,0.992 -5.197,0.992c-1.672,0 -3.3,-0.365 -4.884,-1.097c-1.584,-0.731 -2.829,-1.758 -3.735,-3.081l-0.104,-0l-0,3.551l-4.701,0l0,-39.487Zm12.849,35.727c1.254,-0 2.386,-0.218 3.395,-0.653c1.01,-0.436 1.863,-1.027 2.56,-1.776c0.696,-0.749 1.236,-1.654 1.619,-2.716c0.383,-1.062 0.575,-2.22 0.575,-3.474c-0,-1.253 -0.192,-2.411 -0.575,-3.473c-0.383,-1.062 -0.923,-1.968 -1.619,-2.716c-0.697,-0.749 -1.55,-1.341 -2.56,-1.776c-1.009,-0.435 -2.141,-0.653 -3.395,-0.653c-1.253,-0 -2.385,0.218 -3.395,0.653c-1.01,0.435 -1.863,1.027 -2.559,1.776c-0.697,0.748 -1.236,1.654 -1.619,2.716c-0.384,1.062 -0.575,2.22 -0.575,3.473c-0,1.254 0.191,2.412 0.575,3.474c0.383,1.062 0.922,1.967 1.619,2.716c0.696,0.749 1.549,1.34 2.559,1.776c1.01,0.435 2.142,0.653 3.395,0.653Z" style="fill-rule:nonzero;"/>
    <path d="M641.051,202.308l5.432,0l7.365,19.326l0.104,0l7,-19.326l5.066,0l-11.752,30.086c-0.418,1.08 -0.853,2.063 -1.306,2.951c-0.453,0.888 -0.992,1.646 -1.619,2.272c-0.627,0.627 -1.384,1.115 -2.272,1.463c-0.888,0.348 -1.977,0.522 -3.265,0.522c-0.696,0 -1.401,-0.043 -2.115,-0.13c-0.714,-0.087 -1.402,-0.27 -2.064,-0.549l0.575,-4.283c0.94,0.383 1.88,0.575 2.821,0.575c0.731,-0 1.349,-0.096 1.854,-0.288c0.505,-0.191 0.94,-0.47 1.306,-0.835c0.365,-0.366 0.67,-0.792 0.914,-1.28c0.243,-0.488 0.487,-1.045 0.731,-1.671l1.515,-3.918l-10.29,-24.915Z" style="fill-rule:nonzero;"/>
    <path d="M697.932,206.382l-6.738,0l0,11.23c0,0.697 0.018,1.384 0.052,2.063c0.035,0.68 0.166,1.289 0.392,1.829c0.227,0.539 0.575,0.975 1.045,1.305c0.47,0.331 1.158,0.497 2.063,0.497c0.557,-0 1.132,-0.053 1.724,-0.157c0.592,-0.104 1.131,-0.296 1.619,-0.575l-0,4.283c-0.557,0.314 -1.28,0.532 -2.168,0.653c-0.888,0.122 -1.575,0.183 -2.063,0.183c-1.811,0 -3.212,-0.252 -4.205,-0.757c-0.992,-0.505 -1.723,-1.158 -2.193,-1.959c-0.471,-0.801 -0.749,-1.697 -0.836,-2.69c-0.087,-0.992 -0.131,-1.993 -0.131,-3.003l0,-12.902l-5.432,0l0,-4.074l5.432,0l0,-6.947l4.701,0l0,6.947l6.738,0l0,4.074Z" style="fill-rule:nonzero;"/>
    <path d="M701.014,202.308l5.275,0l5.589,18.491l0.105,-0l5.902,-18.491l4.962,0l6.268,18.491l0.105,-0l5.327,-18.491l4.962,0l-7.991,24.758l-4.753,0l-6.529,-18.49l-0.105,0l-5.902,18.49l-5.067,0l-8.148,-24.758Z" style="fill-rule:nonzero;"/>
    <path d="M747.449,214.687c-0,1.254 0.191,2.412 0.574,3.474c0.383,1.062 0.923,1.967 1.62,2.716c0.696,0.749 1.549,1.34 2.559,1.776c1.01,0.435 2.141,0.653 3.395,0.653c1.254,-0 2.385,-0.218 3.395,-0.653c1.01,-0.436 1.863,-1.027 2.56,-1.776c0.696,-0.749 1.236,-1.654 1.619,-2.716c0.383,-1.062 0.574,-2.22 0.574,-3.474c0,-1.253 -0.191,-2.411 -0.574,-3.473c-0.383,-1.062 -0.923,-1.968 -1.619,-2.716c-0.697,-0.749 -1.55,-1.341 -2.56,-1.776c-1.01,-0.435 -2.141,-0.653 -3.395,-0.653c-1.254,-0 -2.385,0.218 -3.395,0.653c-1.01,0.435 -1.863,1.027 -2.559,1.776c-0.697,0.748 -1.237,1.654 -1.62,2.716c-0.383,1.062 -0.574,2.22 -0.574,3.473Zm-5.015,0c0,-1.81 0.34,-3.499 1.019,-5.066c0.679,-1.567 1.61,-2.943 2.794,-4.127c1.184,-1.184 2.577,-2.115 4.179,-2.794c1.602,-0.679 3.325,-1.019 5.171,-1.019c1.846,0 3.569,0.34 5.171,1.019c1.602,0.679 2.995,1.61 4.179,2.794c1.184,1.184 2.115,2.56 2.794,4.127c0.679,1.567 1.019,3.256 1.019,5.066c-0,1.811 -0.34,3.509 -1.019,5.093c-0.679,1.584 -1.61,2.96 -2.794,4.126c-1.184,1.167 -2.577,2.09 -4.179,2.769c-1.602,0.679 -3.325,1.018 -5.171,1.018c-1.846,0 -3.569,-0.339 -5.171,-1.018c-1.602,-0.679 -2.995,-1.602 -4.179,-2.769c-1.184,-1.166 -2.115,-2.542 -2.794,-4.126c-0.679,-1.584 -1.019,-3.282 -1.019,-5.093Z" style="fill-rule:nonzero;"/>
    <path d="M802.345,208.524c-0.557,-0.697 -1.245,-1.28 -2.063,-1.75c-0.818,-0.47 -1.819,-0.705 -3.003,-0.705c-1.115,-0 -2.081,0.235 -2.899,0.705c-0.819,0.47 -1.228,1.158 -1.228,2.063c0,0.731 0.235,1.323 0.705,1.776c0.471,0.453 1.028,0.818 1.672,1.097c0.644,0.279 1.332,0.488 2.063,0.627c0.731,0.139 1.358,0.261 1.88,0.365c1.01,0.244 1.959,0.54 2.847,0.888c0.888,0.349 1.654,0.801 2.298,1.358c0.645,0.558 1.149,1.237 1.515,2.038c0.366,0.8 0.549,1.775 0.549,2.925c-0,1.392 -0.296,2.585 -0.888,3.577c-0.592,0.993 -1.358,1.803 -2.299,2.429c-0.94,0.627 -2.011,1.08 -3.212,1.358c-1.201,0.279 -2.411,0.418 -3.63,0.418c-2.055,0 -3.857,-0.313 -5.406,-0.94c-1.55,-0.627 -2.934,-1.776 -4.153,-3.447l3.552,-2.925c0.766,0.766 1.619,1.445 2.56,2.037c0.94,0.592 2.089,0.888 3.447,0.888c0.592,-0 1.193,-0.061 1.802,-0.183c0.609,-0.122 1.149,-0.314 1.619,-0.575c0.47,-0.261 0.853,-0.592 1.149,-0.992c0.296,-0.401 0.444,-0.862 0.444,-1.384c0,-0.697 -0.217,-1.271 -0.653,-1.724c-0.435,-0.453 -0.957,-0.81 -1.567,-1.071c-0.609,-0.261 -1.253,-0.47 -1.932,-0.627c-0.679,-0.156 -1.28,-0.287 -1.802,-0.391c-1.01,-0.244 -1.968,-0.523 -2.873,-0.836c-0.905,-0.313 -1.706,-0.731 -2.403,-1.254c-0.696,-0.522 -1.253,-1.184 -1.671,-1.984c-0.418,-0.801 -0.627,-1.794 -0.627,-2.978c-0,-1.288 0.27,-2.411 0.81,-3.369c0.539,-0.957 1.253,-1.749 2.141,-2.376c0.888,-0.627 1.898,-1.097 3.03,-1.411c1.131,-0.313 2.272,-0.47 3.421,-0.47c1.671,0 3.273,0.314 4.805,0.941c1.532,0.626 2.751,1.671 3.657,3.134l-3.657,2.768Z" style="fill-rule:nonzero;"/>
    <path d="M815.926,216.411c-0,1.079 0.235,2.063 0.705,2.951c0.47,0.888 1.088,1.645 1.854,2.272c0.766,0.627 1.654,1.115 2.664,1.463c1.01,0.348 2.054,0.522 3.134,0.522c1.462,0 2.733,-0.339 3.813,-1.018c1.079,-0.679 2.072,-1.576 2.977,-2.69l3.552,2.716c-2.612,3.377 -6.268,5.066 -10.969,5.066c-1.95,0 -3.717,-0.331 -5.301,-0.992c-1.585,-0.662 -2.925,-1.576 -4.022,-2.742c-1.097,-1.167 -1.942,-2.542 -2.534,-4.127c-0.592,-1.584 -0.888,-3.299 -0.888,-5.145c0,-1.845 0.322,-3.56 0.967,-5.145c0.644,-1.584 1.532,-2.959 2.664,-4.126c1.131,-1.167 2.481,-2.081 4.048,-2.742c1.567,-0.662 3.273,-0.993 5.118,-0.993c2.194,0 4.048,0.383 5.563,1.149c1.515,0.767 2.76,1.768 3.735,3.004c0.975,1.236 1.68,2.629 2.115,4.178c0.435,1.55 0.653,3.126 0.653,4.728l0,1.671l-19.848,-0Zm14.834,-3.761c-0.035,-1.044 -0.2,-2.002 -0.496,-2.873c-0.296,-0.87 -0.74,-1.627 -1.332,-2.272c-0.592,-0.644 -1.332,-1.149 -2.22,-1.514c-0.888,-0.366 -1.924,-0.549 -3.108,-0.549c-1.149,0 -2.203,0.218 -3.16,0.653c-0.958,0.435 -1.767,1.001 -2.429,1.698c-0.662,0.696 -1.175,1.471 -1.541,2.324c-0.365,0.853 -0.548,1.697 -0.548,2.533l14.834,0Z" style="fill-rule:nonzero;"/>
    <path d="M841.415,202.308l4.701,0l0,3.813l0.105,0c0.592,-1.323 1.619,-2.394 3.081,-3.212c1.463,-0.818 3.152,-1.228 5.067,-1.228c1.184,0 2.324,0.183 3.421,0.549c1.097,0.365 2.055,0.931 2.873,1.697c0.818,0.766 1.471,1.75 1.959,2.952c0.487,1.201 0.731,2.62 0.731,4.256l-0,15.931l-4.701,0l-0,-14.625c-0,-1.149 -0.157,-2.133 -0.47,-2.951c-0.313,-0.818 -0.731,-1.48 -1.254,-1.985c-0.522,-0.505 -1.123,-0.87 -1.802,-1.097c-0.679,-0.226 -1.384,-0.339 -2.115,-0.339c-0.975,-0 -1.881,0.157 -2.716,0.47c-0.836,0.313 -1.567,0.81 -2.194,1.489c-0.627,0.679 -1.114,1.54 -1.463,2.585c-0.348,1.045 -0.522,2.281 -0.522,3.709l0,12.744l-4.701,0l0,-24.758Z" style="fill-rule:nonzero;"/>
    <path d="M883.619,208.524c-0.557,-0.697 -1.245,-1.28 -2.063,-1.75c-0.818,-0.47 -1.819,-0.705 -3.003,-0.705c-1.115,-0 -2.081,0.235 -2.899,0.705c-0.819,0.47 -1.228,1.158 -1.228,2.063c0,0.731 0.235,1.323 0.705,1.776c0.47,0.453 1.028,0.818 1.672,1.097c0.644,0.279 1.332,0.488 2.063,0.627c0.731,0.139 1.358,0.261 1.88,0.365c1.01,0.244 1.959,0.54 2.847,0.888c0.888,0.349 1.654,0.801 2.298,1.358c0.645,0.558 1.149,1.237 1.515,2.038c0.366,0.8 0.548,1.775 0.548,2.925c0,1.392 -0.295,2.585 -0.887,3.577c-0.592,0.993 -1.359,1.803 -2.299,2.429c-0.94,0.627 -2.011,1.08 -3.212,1.358c-1.201,0.279 -2.411,0.418 -3.63,0.418c-2.055,0 -3.857,-0.313 -5.406,-0.94c-1.55,-0.627 -2.934,-1.776 -4.153,-3.447l3.552,-2.925c0.766,0.766 1.619,1.445 2.559,2.037c0.941,0.592 2.09,0.888 3.448,0.888c0.592,-0 1.192,-0.061 1.802,-0.183c0.609,-0.122 1.149,-0.314 1.619,-0.575c0.47,-0.261 0.853,-0.592 1.149,-0.992c0.296,-0.401 0.444,-0.862 0.444,-1.384c0,-0.697 -0.217,-1.271 -0.653,-1.724c-0.435,-0.453 -0.957,-0.81 -1.567,-1.071c-0.609,-0.261 -1.253,-0.47 -1.932,-0.627c-0.679,-0.156 -1.28,-0.287 -1.802,-0.391c-1.01,-0.244 -1.968,-0.523 -2.873,-0.836c-0.906,-0.313 -1.706,-0.731 -2.403,-1.254c-0.696,-0.522 -1.253,-1.184 -1.671,-1.984c-0.418,-0.801 -0.627,-1.794 -0.627,-2.978c-0,-1.288 0.27,-2.411 0.81,-3.369c0.539,-0.957 1.253,-1.749 2.141,-2.376c0.888,-0.627 1.898,-1.097 3.03,-1.411c1.131,-0.313 2.272,-0.47 3.421,-0.47c1.671,0 3.273,0.314 4.805,0.941c1.532,0.626 2.751,1.671 3.656,3.134l-3.656,2.768Z" style="fill-rule:nonzero;"/>
    <path d="M897.461,214.687c-0,1.254 0.191,2.412 0.574,3.474c0.383,1.062 0.923,1.967 1.62,2.716c0.696,0.749 1.549,1.34 2.559,1.776c1.01,0.435 2.142,0.653 3.395,0.653c1.254,-0 2.385,-0.218 3.395,-0.653c1.01,-0.436 1.863,-1.027 2.56,-1.776c0.696,-0.749 1.236,-1.654 1.619,-2.716c0.383,-1.062 0.574,-2.22 0.574,-3.474c0,-1.253 -0.191,-2.411 -0.574,-3.473c-0.383,-1.062 -0.923,-1.968 -1.619,-2.716c-0.697,-0.749 -1.55,-1.341 -2.56,-1.776c-1.01,-0.435 -2.141,-0.653 -3.395,-0.653c-1.253,-0 -2.385,0.218 -3.395,0.653c-1.01,0.435 -1.863,1.027 -2.559,1.776c-0.697,0.748 -1.237,1.654 -1.62,2.716c-0.383,1.062 -0.574,2.22 -0.574,3.473Zm-5.015,0c0,-1.81 0.34,-3.499 1.019,-5.066c0.679,-1.567 1.611,-2.943 2.794,-4.127c1.184,-1.184 2.577,-2.115 4.179,-2.794c1.602,-0.679 3.326,-1.019 5.171,-1.019c1.846,0 3.569,0.34 5.171,1.019c1.602,0.679 2.995,1.61 4.179,2.794c1.184,1.184 2.115,2.56 2.794,4.127c0.679,1.567 1.019,3.256 1.019,5.066c-0,1.811 -0.34,3.509 -1.019,5.093c-0.679,1.584 -1.61,2.96 -2.794,4.126c-1.184,1.167 -2.577,2.09 -4.179,2.769c-1.602,0.679 -3.325,1.018 -5.171,1.018c-1.845,0 -3.569,-0.339 -5.171,-1.018c-1.602,-0.679 -2.995,-1.602 -4.179,-2.769c-1.183,-1.166 -2.115,-2.542 -2.794,-4.126c-0.679,-1.584 -1.019,-3.282 -1.019,-5.093Z" style="fill-rule:nonzero;"/>
    <path d="M924.674,202.308l4.701,0l-0,3.813l0.104,0c0.314,-0.661 0.732,-1.262 1.254,-1.802c0.522,-0.54 1.106,-1.001 1.75,-1.384c0.644,-0.383 1.349,-0.688 2.115,-0.914c0.766,-0.226 1.532,-0.34 2.298,-0.34c0.767,0 1.463,0.105 2.09,0.314l-0.209,5.066c-0.383,-0.104 -0.766,-0.191 -1.149,-0.261c-0.383,-0.069 -0.766,-0.104 -1.149,-0.104c-2.299,-0 -4.057,0.644 -5.276,1.932c-1.219,1.289 -1.828,3.291 -1.828,6.007l-0,12.431l-4.701,0l0,-24.758Z" style="fill-rule:nonzero;"/>
    <path d="M957.163,208.524c-0.557,-0.697 -1.245,-1.28 -2.063,-1.75c-0.819,-0.47 -1.82,-0.705 -3.004,-0.705c-1.114,-0 -2.08,0.235 -2.899,0.705c-0.818,0.47 -1.227,1.158 -1.227,2.063c-0,0.731 0.235,1.323 0.705,1.776c0.47,0.453 1.027,0.818 1.671,1.097c0.645,0.279 1.332,0.488 2.064,0.627c0.731,0.139 1.358,0.261 1.88,0.365c1.01,0.244 1.959,0.54 2.847,0.888c0.888,0.349 1.654,0.801 2.298,1.358c0.644,0.558 1.149,1.237 1.515,2.038c0.365,0.8 0.548,1.775 0.548,2.925c0,1.392 -0.296,2.585 -0.888,3.577c-0.592,0.993 -1.358,1.803 -2.298,2.429c-0.94,0.627 -2.011,1.08 -3.212,1.358c-1.202,0.279 -2.412,0.418 -3.631,0.418c-2.054,0 -3.856,-0.313 -5.406,-0.94c-1.549,-0.627 -2.933,-1.776 -4.152,-3.447l3.552,-2.925c0.766,0.766 1.619,1.445 2.559,2.037c0.94,0.592 2.089,0.888 3.447,0.888c0.592,-0 1.193,-0.061 1.802,-0.183c0.61,-0.122 1.149,-0.314 1.62,-0.575c0.47,-0.261 0.853,-0.592 1.149,-0.992c0.296,-0.401 0.444,-0.862 0.444,-1.384c-0,-0.697 -0.218,-1.271 -0.653,-1.724c-0.435,-0.453 -0.958,-0.81 -1.567,-1.071c-0.61,-0.261 -1.254,-0.47 -1.933,-0.627c-0.679,-0.156 -1.28,-0.287 -1.802,-0.391c-1.01,-0.244 -1.967,-0.523 -2.873,-0.836c-0.905,-0.313 -1.706,-0.731 -2.402,-1.254c-0.697,-0.522 -1.254,-1.184 -1.672,-1.984c-0.418,-0.801 -0.627,-1.794 -0.627,-2.978c0,-1.288 0.27,-2.411 0.81,-3.369c0.54,-0.957 1.254,-1.749 2.142,-2.376c0.888,-0.627 1.897,-1.097 3.029,-1.411c1.132,-0.313 2.272,-0.47 3.421,-0.47c1.672,0 3.274,0.314 4.806,0.941c1.532,0.626 2.751,1.671 3.656,3.134l-3.656,2.768Z" style="fill-rule:nonzero;"/>
    <path d="M76.972,299.289c-18.772,147.581 91.929,272.554 198.152,358.265" style="fill:none;stroke:black;stroke-width:9.89px;"/>
    <path d="M275.124,657.554l-10.598,-42.352" style="fill:none;stroke:black;stroke-width:9.89px;"/>
    <path d="M275.124,657.554l-39.373,-0.036" style="fill:none;stroke:black;stroke-width:9.89px;"/>
</svg>
