<?xml version="1.0" encoding="UTF-8" standalone="no"?>
<!DOCTYPE svg PUBLIC "-//W3C//DTD SVG 1.1//EN" "http://www.w3.org/Graphics/SVG/1.1/DTD/svg11.dtd">
<svg width="100%" height="100%" viewBox="0 0 1352 1196" version="1.1" xmlns="http://www.w3.org/2000/svg" xmlns:xlink="http://www.w3.org/1999/xlink" xml:space="preserve" xmlns:serif="http://www.serif.com/" style="fill-rule:evenodd;clip-rule:evenodd;stroke-linecap:round;stroke-linejoin:round;stroke-miterlimit:1.5;">
    <path d="M266.91,1187.78l-0,-1180.03" style="fill:none;stroke:black;stroke-width:15.52px;"/>
    <path d="M266.91,7.758l-54.47,54.47" style="fill:none;stroke:black;stroke-width:15.52px;"/>
    <path d="M266.91,7.758l57.3,57.3" style="fill:none;stroke:black;stroke-width:15.52px;"/>
    <path d="M7.758,917.264l1332.66,-0" style="fill:none;stroke:black;stroke-width:15.52px;"/>
    <path d="M1343.98,915.818l-50.178,-50.178" style="fill:none;stroke:black;stroke-width:15.52px;"/>
    <path d="M1343.98,915.818l-48.998,48.998" style="fill:none;stroke:black;stroke-width:15.52px;"/>
    <path d="M1260.07,1174.16l-1205.3,-991.51" style="fill:none;stroke:rgb(46,56,169);stroke-width:15.52px;"/>
    <path d="M269.581,911.342l603.395,-722.961" style="fill:none;stroke:rgb(46,169,75);stroke-width:15.52px;"/>
    <path d="M298.645,936.792l519.43,-622.358" style="fill:none;stroke:rgb(226,209,14);stroke-width:8.7px;"/>
    <path d="M298.645,936.792l-0.703,-20.311" style="fill:none;stroke:rgb(226,209,14);stroke-width:8.7px;"/>
    <path d="M298.645,936.792l18.666,-4.374" style="fill:none;stroke:rgb(226,209,14);stroke-width:8.7px;"/>
    <path d="M818.075,314.434l-15.272,0.964" style="fill:none;stroke:rgb(226,209,14);stroke-width:8.7px;"/>
    <path d="M818.075,314.434l3.919,15.492" style="fill:none;stroke:rgb(226,209,14);stroke-width:8.7px;"/>
    <path d="M874.926,187.393l-54.721,-0.869" style="fill:none;stroke:rgb(46,169,75);stroke-width:15.52px;"/>
    <path d="M874.926,187.393l9.555,55.589" style="fill:none;stroke:rgb(46,169,75);stroke-width:15.52px;"/>
    <path d="M364.579,73.241l7.515,-0l-0,5.678l0.167,-0c1.447,-2.116 3.437,-3.758 5.97,-4.927c2.533,-1.169 5.135,-1.753 7.807,-1.753c3.061,-0 5.831,0.529 8.308,1.586c2.477,1.058 4.592,2.533 6.346,4.426c1.753,1.892 3.103,4.105 4.049,6.638c0.946,2.532 1.42,5.246 1.42,8.141c-0,2.95 -0.474,5.691 -1.42,8.224c-0.946,2.533 -2.296,4.732 -4.049,6.596c-1.754,1.865 -3.869,3.326 -6.346,4.384c-2.477,1.058 -5.247,1.586 -8.308,1.586c-2.839,0 -5.511,-0.598 -8.016,-1.795c-2.505,-1.197 -4.425,-2.825 -5.761,-4.884l-0.167,-0l-0,29.224l-7.515,-0l0,-63.124Zm20.54,6.012c-2.004,-0 -3.813,0.348 -5.427,1.043c-1.614,0.696 -2.978,1.642 -4.091,2.839c-1.114,1.197 -1.976,2.644 -2.589,4.342c-0.612,1.698 -0.918,3.549 -0.918,5.553c-0,2.004 0.306,3.854 0.918,5.552c0.613,1.698 1.475,3.145 2.589,4.342c1.113,1.197 2.477,2.143 4.091,2.839c1.614,0.696 3.423,1.044 5.427,1.044c2.004,-0 3.813,-0.348 5.428,-1.044c1.614,-0.696 2.978,-1.642 4.091,-2.839c1.113,-1.197 1.976,-2.644 2.588,-4.342c0.613,-1.698 0.919,-3.548 0.919,-5.552c-0,-2.004 -0.306,-3.855 -0.919,-5.553c-0.612,-1.698 -1.475,-3.145 -2.588,-4.342c-1.113,-1.197 -2.477,-2.143 -4.091,-2.839c-1.615,-0.695 -3.424,-1.043 -5.428,-1.043Z" style="fill-rule:nonzero;"/>
    <path d="M421.691,93.03c0,2.004 0.306,3.854 0.919,5.552c0.612,1.698 1.475,3.145 2.588,4.342c1.113,1.197 2.477,2.143 4.091,2.839c1.615,0.696 3.424,1.044 5.428,1.044c2.004,-0 3.813,-0.348 5.427,-1.044c1.614,-0.696 2.978,-1.642 4.091,-2.839c1.114,-1.197 1.976,-2.644 2.589,-4.342c0.612,-1.698 0.918,-3.548 0.918,-5.552c0,-2.004 -0.306,-3.855 -0.918,-5.553c-0.613,-1.698 -1.475,-3.145 -2.589,-4.342c-1.113,-1.197 -2.477,-2.143 -4.091,-2.839c-1.614,-0.695 -3.423,-1.043 -5.427,-1.043c-2.004,-0 -3.813,0.348 -5.428,1.043c-1.614,0.696 -2.978,1.642 -4.091,2.839c-1.113,1.197 -1.976,2.644 -2.588,4.342c-0.613,1.698 -0.919,3.549 -0.919,5.553Zm-8.016,-0c0,-2.895 0.543,-5.595 1.629,-8.1c1.085,-2.504 2.574,-4.703 4.467,-6.596c1.892,-1.892 4.119,-3.381 6.679,-4.467c2.561,-1.085 5.316,-1.628 8.267,-1.628c2.95,-0 5.705,0.543 8.266,1.628c2.56,1.086 4.787,2.575 6.68,4.467c1.892,1.893 3.381,4.092 4.467,6.596c1.085,2.505 1.628,5.205 1.628,8.1c-0,2.894 -0.543,5.608 -1.628,8.141c-1.086,2.532 -2.575,4.731 -4.467,6.596c-1.893,1.865 -4.12,3.34 -6.68,4.425c-2.561,1.086 -5.316,1.628 -8.266,1.628c-2.951,0 -5.706,-0.542 -8.267,-1.628c-2.56,-1.085 -4.787,-2.56 -6.679,-4.425c-1.893,-1.865 -3.382,-4.064 -4.467,-6.596c-1.086,-2.533 -1.629,-5.247 -1.629,-8.141Z" style="fill-rule:nonzero;"/>
    <path d="M465.778,73.241l7.514,-0l0,39.578l-7.514,-0l-0,-39.578Zm-1.754,-14.195c0,-1.503 0.543,-2.797 1.628,-3.882c1.086,-1.086 2.38,-1.629 3.883,-1.629c1.503,0 2.797,0.543 3.883,1.629c1.085,1.085 1.628,2.379 1.628,3.882c-0,1.503 -0.543,2.797 -1.628,3.883c-1.086,1.085 -2.38,1.628 -3.883,1.628c-1.503,0 -2.797,-0.543 -3.883,-1.628c-1.085,-1.086 -1.628,-2.38 -1.628,-3.883Z" style="fill-rule:nonzero;"/>
    <path d="M485.233,73.241l7.514,-0l0,6.095l0.167,0c0.947,-2.115 2.589,-3.827 4.927,-5.135c2.338,-1.308 5.037,-1.962 8.099,-1.962c1.892,-0 3.715,0.292 5.469,0.877c1.753,0.584 3.284,1.489 4.592,2.713c1.308,1.225 2.352,2.797 3.131,4.718c0.78,1.92 1.169,4.189 1.169,6.805l0,25.467l-7.514,-0l-0,-23.38c-0,-1.837 -0.251,-3.409 -0.752,-4.717c-0.501,-1.308 -1.169,-2.366 -2.004,-3.173c-0.835,-0.807 -1.795,-1.392 -2.88,-1.754c-1.086,-0.361 -2.213,-0.542 -3.382,-0.542c-1.559,-0 -3.006,0.25 -4.342,0.751c-1.336,0.501 -2.505,1.294 -3.507,2.38c-1.002,1.085 -1.781,2.463 -2.338,4.133c-0.556,1.67 -0.835,3.646 -0.835,5.928l0,20.374l-7.514,-0l-0,-39.578Z" style="fill-rule:nonzero;"/>
    <path d="M552.865,79.754l-10.771,-0l0,17.952c0,1.113 0.028,2.212 0.084,3.298c0.055,1.085 0.264,2.059 0.626,2.922c0.362,0.863 0.918,1.559 1.67,2.087c0.751,0.529 1.851,0.794 3.298,0.794c0.891,-0 1.809,-0.084 2.755,-0.251c0.947,-0.167 1.809,-0.473 2.589,-0.918l-0,6.847c-0.891,0.501 -2.046,0.848 -3.465,1.043c-1.42,0.195 -2.519,0.292 -3.299,0.292c-2.894,0 -5.135,-0.403 -6.721,-1.21c-1.587,-0.807 -2.755,-1.851 -3.507,-3.131c-0.751,-1.281 -1.197,-2.714 -1.336,-4.3c-0.139,-1.587 -0.209,-3.187 -0.209,-4.802l0,-20.623l-8.683,-0l-0,-6.513l8.683,-0l0,-11.105l7.515,-0l0,11.105l10.771,-0l0,6.513Z" style="fill-rule:nonzero;"/>
    <rect x="559.796" y="89.105" width="20.54" height="7.014" style="fill-rule:nonzero;"/>
    <path d="M588.936,49.695l7.515,-0l-0,29.641l0.167,0c0.946,-2.115 2.588,-3.827 4.926,-5.135c2.338,-1.308 5.038,-1.962 8.099,-1.962c1.893,-0 3.716,0.292 5.469,0.877c1.754,0.584 3.285,1.489 4.593,2.713c1.308,1.225 2.352,2.797 3.131,4.718c0.779,1.92 1.169,4.189 1.169,6.805l-0,25.467l-7.515,-0l0,-23.38c0,-1.837 -0.25,-3.409 -0.751,-4.717c-0.501,-1.308 -1.169,-2.366 -2.004,-3.173c-0.835,-0.807 -1.795,-1.392 -2.881,-1.754c-1.085,-0.361 -2.213,-0.542 -3.382,-0.542c-1.558,-0 -3.005,0.25 -4.341,0.751c-1.336,0.501 -2.505,1.294 -3.507,2.38c-1.002,1.085 -1.782,2.463 -2.338,4.133c-0.557,1.67 -0.835,3.646 -0.835,5.928l-0,20.374l-7.515,-0l0,-63.124Z" style="fill-rule:nonzero;"/>
    <path d="M630.601,73.241l8.684,-0l11.773,30.894l0.167,-0l11.189,-30.894l8.099,-0l-18.787,48.094c-0.668,1.726 -1.364,3.298 -2.087,4.718c-0.724,1.419 -1.587,2.63 -2.589,3.632c-1.002,1.002 -2.213,1.781 -3.632,2.338c-1.419,0.557 -3.159,0.835 -5.219,0.835c-1.113,-0 -2.24,-0.07 -3.381,-0.209c-1.141,-0.139 -2.241,-0.431 -3.298,-0.877l0.918,-6.846c1.503,0.612 3.006,0.918 4.509,0.918c1.169,0 2.157,-0.153 2.964,-0.459c0.807,-0.306 1.503,-0.752 2.088,-1.336c0.584,-0.585 1.071,-1.266 1.461,-2.046c0.389,-0.779 0.779,-1.67 1.169,-2.672l2.421,-6.262l-16.449,-39.828Z" style="fill-rule:nonzero;"/>
    <path d="M677.109,73.241l7.515,-0l-0,5.678l0.167,-0c1.447,-2.116 3.437,-3.758 5.97,-4.927c2.533,-1.169 5.135,-1.753 7.807,-1.753c3.061,-0 5.831,0.529 8.308,1.586c2.477,1.058 4.592,2.533 6.346,4.426c1.753,1.892 3.103,4.105 4.049,6.638c0.947,2.532 1.42,5.246 1.42,8.141c-0,2.95 -0.473,5.691 -1.42,8.224c-0.946,2.533 -2.296,4.732 -4.049,6.596c-1.754,1.865 -3.869,3.326 -6.346,4.384c-2.477,1.058 -5.247,1.586 -8.308,1.586c-2.839,0 -5.511,-0.598 -8.016,-1.795c-2.505,-1.197 -4.425,-2.825 -5.761,-4.884l-0.167,-0l-0,29.224l-7.515,-0l0,-63.124Zm20.54,6.012c-2.003,-0 -3.813,0.348 -5.427,1.043c-1.614,0.696 -2.978,1.642 -4.091,2.839c-1.114,1.197 -1.976,2.644 -2.589,4.342c-0.612,1.698 -0.918,3.549 -0.918,5.553c-0,2.004 0.306,3.854 0.918,5.552c0.613,1.698 1.475,3.145 2.589,4.342c1.113,1.197 2.477,2.143 4.091,2.839c1.614,0.696 3.424,1.044 5.427,1.044c2.004,-0 3.813,-0.348 5.428,-1.044c1.614,-0.696 2.978,-1.642 4.091,-2.839c1.113,-1.197 1.976,-2.644 2.589,-4.342c0.612,-1.698 0.918,-3.548 0.918,-5.552c0,-2.004 -0.306,-3.855 -0.918,-5.553c-0.613,-1.698 -1.476,-3.145 -2.589,-4.342c-1.113,-1.197 -2.477,-2.143 -4.091,-2.839c-1.615,-0.695 -3.424,-1.043 -5.428,-1.043Z" style="fill-rule:nonzero;"/>
    <path d="M733.804,95.785c-0,1.726 0.375,3.298 1.127,4.718c0.751,1.419 1.739,2.63 2.964,3.632c1.225,1.002 2.644,1.781 4.258,2.338c1.615,0.556 3.285,0.835 5.01,0.835c2.338,-0 4.37,-0.543 6.096,-1.629c1.725,-1.085 3.312,-2.518 4.759,-4.3l5.678,4.342c-4.175,5.4 -10.02,8.099 -17.535,8.099c-3.117,0 -5.942,-0.528 -8.475,-1.586c-2.532,-1.058 -4.675,-2.519 -6.429,-4.384c-1.753,-1.864 -3.103,-4.063 -4.05,-6.596c-0.946,-2.533 -1.419,-5.274 -1.419,-8.224c0,-2.951 0.515,-5.692 1.545,-8.225c1.03,-2.533 2.449,-4.731 4.258,-6.596c1.809,-1.865 3.966,-3.326 6.471,-4.384c2.505,-1.057 5.233,-1.586 8.183,-1.586c3.507,-0 6.471,0.612 8.892,1.837c2.422,1.224 4.412,2.825 5.97,4.801c1.559,1.976 2.686,4.203 3.382,6.68c0.696,2.477 1.044,4.996 1.044,7.556l-0,2.672l-31.729,0Zm23.713,-6.012c-0.056,-1.67 -0.32,-3.2 -0.793,-4.592c-0.473,-1.392 -1.183,-2.602 -2.129,-3.632c-0.947,-1.03 -2.13,-1.837 -3.549,-2.422c-1.42,-0.584 -3.076,-0.876 -4.968,-0.876c-1.837,-0 -3.521,0.348 -5.052,1.043c-1.531,0.696 -2.825,1.601 -3.882,2.714c-1.058,1.113 -1.879,2.352 -2.464,3.716c-0.584,1.363 -0.876,2.713 -0.876,4.049l23.713,0Z" style="fill-rule:nonzero;"/>
    <path d="M774.55,73.241l7.515,-0l0,6.095l0.167,0c0.501,-1.058 1.169,-2.018 2.004,-2.881c0.835,-0.862 1.767,-1.6 2.797,-2.212c1.03,-0.613 2.157,-1.1 3.382,-1.461c1.224,-0.362 2.449,-0.543 3.674,-0.543c1.224,-0 2.338,0.167 3.34,0.501l-0.334,8.099c-0.613,-0.167 -1.225,-0.306 -1.837,-0.417c-0.613,-0.112 -1.225,-0.167 -1.837,-0.167c-3.674,-0 -6.485,1.029 -8.433,3.089c-1.949,2.06 -2.923,5.26 -2.923,9.602l0,19.873l-7.515,-0l0,-39.578Z" style="fill-rule:nonzero;"/>
    <path d="M805.444,73.241l7.515,-0l0,5.678l0.167,-0c1.447,-2.116 3.437,-3.758 5.97,-4.927c2.533,-1.169 5.135,-1.753 7.807,-1.753c3.062,-0 5.831,0.529 8.308,1.586c2.477,1.058 4.592,2.533 6.346,4.426c1.753,1.892 3.103,4.105 4.05,6.638c0.946,2.532 1.419,5.246 1.419,8.141c-0,2.95 -0.473,5.691 -1.419,8.224c-0.947,2.533 -2.297,4.732 -4.05,6.596c-1.754,1.865 -3.869,3.326 -6.346,4.384c-2.477,1.058 -5.246,1.586 -8.308,1.586c-2.839,0 -5.511,-0.598 -8.016,-1.795c-2.504,-1.197 -4.425,-2.825 -5.761,-4.884l-0.167,-0l0,29.224l-7.515,-0l0,-63.124Zm20.541,6.012c-2.004,-0 -3.813,0.348 -5.428,1.043c-1.614,0.696 -2.978,1.642 -4.091,2.839c-1.113,1.197 -1.976,2.644 -2.588,4.342c-0.613,1.698 -0.919,3.549 -0.919,5.553c0,2.004 0.306,3.854 0.919,5.552c0.612,1.698 1.475,3.145 2.588,4.342c1.113,1.197 2.477,2.143 4.091,2.839c1.615,0.696 3.424,1.044 5.428,1.044c2.004,-0 3.813,-0.348 5.427,-1.044c1.614,-0.696 2.978,-1.642 4.091,-2.839c1.114,-1.197 1.976,-2.644 2.589,-4.342c0.612,-1.698 0.918,-3.548 0.918,-5.552c0,-2.004 -0.306,-3.855 -0.918,-5.553c-0.613,-1.698 -1.475,-3.145 -2.589,-4.342c-1.113,-1.197 -2.477,-2.143 -4.091,-2.839c-1.614,-0.695 -3.423,-1.043 -5.427,-1.043Z" style="fill-rule:nonzero;"/>
    <rect x="857.046" y="49.695" width="7.515" height="63.124" style="fill-rule:nonzero;"/>
    <path d="M876.668,78.084c2.115,-1.949 4.564,-3.41 7.347,-4.384c2.783,-0.974 5.567,-1.461 8.35,-1.461c2.895,-0 5.386,0.362 7.473,1.085c2.087,0.724 3.799,1.698 5.135,2.923c1.336,1.224 2.324,2.63 2.964,4.216c0.64,1.587 0.96,3.243 0.96,4.968l0,20.207c0,1.391 0.028,2.672 0.084,3.841c0.056,1.169 0.139,2.282 0.25,3.34l-6.679,-0c-0.167,-2.004 -0.251,-4.008 -0.251,-6.012l-0.167,-0c-1.67,2.56 -3.646,4.369 -5.928,5.427c-2.282,1.058 -4.926,1.586 -7.932,1.586c-1.837,0 -3.591,-0.25 -5.261,-0.751c-1.67,-0.501 -3.131,-1.252 -4.383,-2.254c-1.253,-1.002 -2.241,-2.241 -2.964,-3.716c-0.724,-1.475 -1.086,-3.187 -1.086,-5.135c0,-2.561 0.571,-4.704 1.712,-6.429c1.141,-1.726 2.7,-3.132 4.676,-4.217c1.976,-1.085 4.286,-1.865 6.93,-2.338c2.644,-0.473 5.469,-0.71 8.475,-0.71l5.511,0l-0,-1.67c-0,-1.002 -0.195,-2.004 -0.585,-3.006c-0.389,-1.001 -0.974,-1.906 -1.753,-2.713c-0.78,-0.807 -1.754,-1.447 -2.923,-1.921c-1.169,-0.473 -2.56,-0.709 -4.175,-0.709c-1.447,-0 -2.713,0.139 -3.799,0.417c-1.085,0.278 -2.073,0.626 -2.964,1.044c-0.89,0.417 -1.698,0.904 -2.421,1.461c-0.724,0.557 -1.42,1.086 -2.088,1.587l-4.508,-4.676Zm21.208,15.697c-1.781,0 -3.605,0.098 -5.469,0.292c-1.865,0.195 -3.563,0.571 -5.094,1.128c-1.53,0.556 -2.783,1.336 -3.757,2.338c-0.974,1.001 -1.461,2.282 -1.461,3.84c-0,2.283 0.765,3.925 2.296,4.927c1.531,1.002 3.604,1.503 6.221,1.503c2.059,-0 3.813,-0.348 5.26,-1.044c1.447,-0.696 2.616,-1.6 3.507,-2.714c0.89,-1.113 1.531,-2.352 1.92,-3.715c0.39,-1.364 0.585,-2.714 0.585,-4.05l-0,-2.505l-4.008,0Z" style="fill-rule:nonzero;"/>
    <path d="M919.836,73.241l7.514,-0l0,6.095l0.167,0c0.947,-2.115 2.589,-3.827 4.927,-5.135c2.338,-1.308 5.037,-1.962 8.099,-1.962c1.892,-0 3.716,0.292 5.469,0.877c1.753,0.584 3.284,1.489 4.592,2.713c1.308,1.225 2.352,2.797 3.131,4.718c0.78,1.92 1.169,4.189 1.169,6.805l0,25.467l-7.514,-0l-0,-23.38c-0,-1.837 -0.251,-3.409 -0.752,-4.717c-0.501,-1.308 -1.169,-2.366 -2.004,-3.173c-0.835,-0.807 -1.795,-1.392 -2.88,-1.754c-1.086,-0.361 -2.213,-0.542 -3.382,-0.542c-1.559,-0 -3.006,0.25 -4.342,0.751c-1.336,0.501 -2.505,1.294 -3.507,2.38c-1.002,1.085 -1.781,2.463 -2.338,4.133c-0.556,1.67 -0.835,3.646 -0.835,5.928l0,20.374l-7.514,-0l-0,-39.578Z" style="fill-rule:nonzero;"/>
    <path d="M971.938,95.785c-0,1.726 0.376,3.298 1.127,4.718c0.752,1.419 1.74,2.63 2.964,3.632c1.225,1.002 2.644,1.781 4.259,2.338c1.614,0.556 3.284,0.835 5.009,0.835c2.338,-0 4.37,-0.543 6.096,-1.629c1.725,-1.085 3.312,-2.518 4.759,-4.3l5.678,4.342c-4.175,5.4 -10.02,8.099 -17.535,8.099c-3.117,0 -5.942,-0.528 -8.475,-1.586c-2.532,-1.058 -4.675,-2.519 -6.429,-4.384c-1.753,-1.864 -3.103,-4.063 -4.049,-6.596c-0.947,-2.533 -1.42,-5.274 -1.42,-8.224c0,-2.951 0.515,-5.692 1.545,-8.225c1.03,-2.533 2.449,-4.731 4.258,-6.596c1.809,-1.865 3.966,-3.326 6.471,-4.384c2.505,-1.057 5.233,-1.586 8.183,-1.586c3.507,-0 6.471,0.612 8.892,1.837c2.422,1.224 4.412,2.825 5.97,4.801c1.559,1.976 2.686,4.203 3.382,6.68c0.696,2.477 1.044,4.996 1.044,7.556l-0,2.672l-31.729,0Zm23.713,-6.012c-0.056,-1.67 -0.32,-3.2 -0.793,-4.592c-0.473,-1.392 -1.183,-2.602 -2.129,-3.632c-0.947,-1.03 -2.13,-1.837 -3.549,-2.422c-1.419,-0.584 -3.075,-0.876 -4.968,-0.876c-1.837,-0 -3.521,0.348 -5.052,1.043c-1.53,0.696 -2.825,1.601 -3.882,2.714c-1.058,1.113 -1.879,2.352 -2.463,3.716c-0.585,1.363 -0.877,2.713 -0.877,4.049l23.713,0Z" style="fill-rule:nonzero;"/>
    <path d="M1075.56,112.819l-7.515,-0l0,-5.678l-0.167,-0c-1.447,2.115 -3.437,3.757 -5.97,4.926c-2.533,1.169 -5.135,1.753 -7.807,1.753c-3.061,0 -5.831,-0.528 -8.308,-1.586c-2.477,-1.058 -4.592,-2.533 -6.346,-4.425c-1.753,-1.893 -3.103,-4.092 -4.049,-6.597c-0.947,-2.505 -1.42,-5.232 -1.42,-8.182c0,-2.951 0.473,-5.692 1.42,-8.225c0.946,-2.533 2.296,-4.731 4.049,-6.596c1.754,-1.865 3.869,-3.326 6.346,-4.384c2.477,-1.057 5.247,-1.586 8.308,-1.586c2.839,-0 5.511,0.598 8.016,1.795c2.505,1.197 4.425,2.825 5.761,4.885l0.167,-0l0,-29.224l7.515,-0l-0,63.124Zm-20.54,-6.012c2.004,-0 3.813,-0.348 5.427,-1.044c1.614,-0.696 2.978,-1.642 4.091,-2.839c1.114,-1.197 1.976,-2.644 2.589,-4.342c0.612,-1.698 0.918,-3.548 0.918,-5.552c0,-2.004 -0.306,-3.855 -0.918,-5.553c-0.613,-1.698 -1.475,-3.145 -2.589,-4.342c-1.113,-1.197 -2.477,-2.143 -4.091,-2.839c-1.614,-0.695 -3.423,-1.043 -5.427,-1.043c-2.004,-0 -3.813,0.348 -5.428,1.043c-1.614,0.696 -2.978,1.642 -4.091,2.839c-1.113,1.197 -1.976,2.644 -2.589,4.342c-0.612,1.698 -0.918,3.549 -0.918,5.553c0,2.004 0.306,3.854 0.918,5.552c0.613,1.698 1.476,3.145 2.589,4.342c1.113,1.197 2.477,2.143 4.091,2.839c1.615,0.696 3.424,1.044 5.428,1.044Z" style="fill-rule:nonzero;"/>
    <path d="M1087.5,73.241l7.515,-0l-0,39.578l-7.515,-0l-0,-39.578Zm-1.753,-14.195c-0,-1.503 0.542,-2.797 1.628,-3.882c1.085,-1.086 2.379,-1.629 3.882,-1.629c1.503,0 2.798,0.543 3.883,1.629c1.085,1.085 1.628,2.379 1.628,3.882c0,1.503 -0.543,2.797 -1.628,3.883c-1.085,1.085 -2.38,1.628 -3.883,1.628c-1.503,0 -2.797,-0.543 -3.882,-1.628c-1.086,-1.086 -1.628,-2.38 -1.628,-3.883Z" style="fill-rule:nonzero;"/>
    <path d="M1127.99,83.177c-0.89,-1.113 -1.99,-2.046 -3.298,-2.797c-1.308,-0.752 -2.908,-1.127 -4.801,-1.127c-1.781,-0 -3.326,0.375 -4.634,1.127c-1.308,0.751 -1.962,1.851 -1.962,3.298c-0,1.169 0.375,2.115 1.127,2.839c0.751,0.724 1.642,1.308 2.672,1.753c1.03,0.446 2.129,0.78 3.298,1.002c1.169,0.223 2.171,0.418 3.006,0.585c1.614,0.389 3.131,0.863 4.55,1.419c1.42,0.557 2.644,1.281 3.674,2.171c1.03,0.891 1.837,1.976 2.422,3.257c0.584,1.28 0.876,2.838 0.876,4.675c0,2.227 -0.473,4.134 -1.419,5.72c-0.946,1.586 -2.171,2.881 -3.674,3.883c-1.503,1.002 -3.215,1.725 -5.135,2.17c-1.92,0.446 -3.855,0.668 -5.803,0.668c-3.284,0 -6.165,-0.501 -8.642,-1.502c-2.477,-1.002 -4.69,-2.839 -6.638,-5.511l5.678,-4.676c1.224,1.224 2.588,2.31 4.091,3.256c1.503,0.947 3.34,1.42 5.511,1.42c0.946,-0 1.906,-0.098 2.881,-0.293c0.974,-0.194 1.837,-0.501 2.588,-0.918c0.751,-0.417 1.364,-0.946 1.837,-1.586c0.473,-0.641 0.71,-1.378 0.71,-2.213c-0,-1.113 -0.348,-2.032 -1.044,-2.756c-0.696,-0.723 -1.531,-1.294 -2.505,-1.711c-0.974,-0.418 -2.004,-0.752 -3.089,-1.002c-1.086,-0.251 -2.046,-0.459 -2.881,-0.626c-1.614,-0.39 -3.145,-0.835 -4.592,-1.336c-1.448,-0.501 -2.728,-1.169 -3.841,-2.004c-1.114,-0.835 -2.004,-1.893 -2.672,-3.173c-0.668,-1.28 -1.002,-2.867 -1.002,-4.76c-0,-2.059 0.431,-3.854 1.294,-5.385c0.863,-1.531 2.004,-2.797 3.424,-3.799c1.419,-1.002 3.033,-1.754 4.842,-2.255c1.809,-0.501 3.632,-0.751 5.469,-0.751c2.672,-0 5.233,0.501 7.682,1.503c2.449,1.002 4.398,2.672 5.845,5.01l-5.845,4.425Z" style="fill-rule:nonzero;"/>
    <path d="M1165.23,79.754l-10.771,-0l-0,17.952c-0,1.113 0.028,2.212 0.083,3.298c0.056,1.085 0.265,2.059 0.627,2.922c0.361,0.863 0.918,1.559 1.669,2.087c0.752,0.529 1.851,0.794 3.299,0.794c0.89,-0 1.809,-0.084 2.755,-0.251c0.946,-0.167 1.809,-0.473 2.588,-0.918l0,6.847c-0.89,0.501 -2.045,0.848 -3.465,1.043c-1.419,0.195 -2.519,0.292 -3.298,0.292c-2.894,0 -5.135,-0.403 -6.721,-1.21c-1.587,-0.807 -2.756,-1.851 -3.507,-3.131c-0.752,-1.281 -1.197,-2.714 -1.336,-4.3c-0.139,-1.587 -0.209,-3.187 -0.209,-4.802l0,-20.623l-8.684,-0l0,-6.513l8.684,-0l0,-11.105l7.515,-0l-0,11.105l10.771,-0l-0,6.513Z" style="fill-rule:nonzero;"/>
    <path d="M1175.09,78.084c2.115,-1.949 4.564,-3.41 7.347,-4.384c2.784,-0.974 5.567,-1.461 8.35,-1.461c2.895,-0 5.386,0.362 7.473,1.085c2.087,0.724 3.799,1.698 5.135,2.923c1.336,1.224 2.324,2.63 2.964,4.216c0.64,1.587 0.961,3.243 0.961,4.968l-0,20.207c-0,1.391 0.027,2.672 0.083,3.841c0.056,1.169 0.139,2.282 0.251,3.34l-6.68,-0c-0.167,-2.004 -0.251,-4.008 -0.251,-6.012l-0.167,-0c-1.67,2.56 -3.646,4.369 -5.928,5.427c-2.282,1.058 -4.926,1.586 -7.932,1.586c-1.837,0 -3.591,-0.25 -5.261,-0.751c-1.67,-0.501 -3.131,-1.252 -4.383,-2.254c-1.253,-1.002 -2.241,-2.241 -2.964,-3.716c-0.724,-1.475 -1.086,-3.187 -1.086,-5.135c0,-2.561 0.571,-4.704 1.712,-6.429c1.141,-1.726 2.7,-3.132 4.676,-4.217c1.976,-1.085 4.286,-1.865 6.93,-2.338c2.644,-0.473 5.469,-0.71 8.475,-0.71l5.511,0l-0,-1.67c-0,-1.002 -0.195,-2.004 -0.585,-3.006c-0.389,-1.001 -0.974,-1.906 -1.753,-2.713c-0.779,-0.807 -1.754,-1.447 -2.923,-1.921c-1.169,-0.473 -2.56,-0.709 -4.174,-0.709c-1.448,-0 -2.714,0.139 -3.8,0.417c-1.085,0.278 -2.073,0.626 -2.964,1.044c-0.89,0.417 -1.697,0.904 -2.421,1.461c-0.724,0.557 -1.42,1.086 -2.088,1.587l-4.508,-4.676Zm21.208,15.697c-1.781,0 -3.604,0.098 -5.469,0.292c-1.865,0.195 -3.563,0.571 -5.094,1.128c-1.53,0.556 -2.783,1.336 -3.757,2.338c-0.974,1.001 -1.461,2.282 -1.461,3.84c-0,2.283 0.765,3.925 2.296,4.927c1.531,1.002 3.604,1.503 6.221,1.503c2.059,-0 3.813,-0.348 5.26,-1.044c1.447,-0.696 2.616,-1.6 3.507,-2.714c0.89,-1.113 1.531,-2.352 1.92,-3.715c0.39,-1.364 0.585,-2.714 0.585,-4.05l-0,-2.505l-4.008,0Z" style="fill-rule:nonzero;"/>
    <path d="M1218.26,73.241l7.514,-0l0,6.095l0.167,0c0.947,-2.115 2.589,-3.827 4.927,-5.135c2.338,-1.308 5.037,-1.962 8.099,-1.962c1.893,-0 3.716,0.292 5.469,0.877c1.753,0.584 3.284,1.489 4.592,2.713c1.309,1.225 2.352,2.797 3.132,4.718c0.779,1.92 1.168,4.189 1.168,6.805l0,25.467l-7.514,-0l-0,-23.38c-0,-1.837 -0.251,-3.409 -0.752,-4.717c-0.501,-1.308 -1.169,-2.366 -2.004,-3.173c-0.835,-0.807 -1.795,-1.392 -2.88,-1.754c-1.086,-0.361 -2.213,-0.542 -3.382,-0.542c-1.559,-0 -3.006,0.25 -4.342,0.751c-1.336,0.501 -2.505,1.294 -3.507,2.38c-1.002,1.085 -1.781,2.463 -2.338,4.133c-0.556,1.67 -0.835,3.646 -0.835,5.928l0,20.374l-7.514,-0l-0,-39.578Z" style="fill-rule:nonzero;"/>
    <path d="M1292.99,83.761c-1.392,-1.447 -2.853,-2.546 -4.384,-3.298c-1.531,-0.751 -3.354,-1.127 -5.469,-1.127c-2.06,0 -3.855,0.376 -5.386,1.127c-1.53,0.752 -2.811,1.782 -3.84,3.09c-1.03,1.308 -1.81,2.811 -2.338,4.509c-0.529,1.697 -0.794,3.465 -0.794,5.302c0,1.837 0.307,3.576 0.919,5.218c0.612,1.642 1.475,3.076 2.588,4.3c1.114,1.225 2.45,2.185 4.008,2.881c1.559,0.696 3.312,1.044 5.26,1.044c2.116,-0 3.925,-0.376 5.428,-1.128c1.503,-0.751 2.894,-1.85 4.175,-3.298l5.343,5.344c-1.948,2.171 -4.216,3.73 -6.805,4.676c-2.588,0.946 -5.329,1.419 -8.224,1.419c-3.062,0 -5.859,-0.501 -8.391,-1.502c-2.533,-1.002 -4.718,-2.408 -6.555,-4.217c-1.837,-1.809 -3.256,-3.98 -4.258,-6.513c-1.002,-2.533 -1.503,-5.33 -1.503,-8.391c-0,-3.062 0.501,-5.873 1.503,-8.434c1.002,-2.56 2.407,-4.759 4.216,-6.596c1.809,-1.837 3.98,-3.27 6.513,-4.3c2.533,-1.03 5.358,-1.545 8.475,-1.545c2.895,0 5.664,0.515 8.308,1.545c2.644,1.03 4.94,2.602 6.888,4.718l-5.677,5.176Z" style="fill-rule:nonzero;"/>
    <path d="M1310.6,95.785c-0,1.726 0.375,3.298 1.127,4.718c0.751,1.419 1.739,2.63 2.964,3.632c1.225,1.002 2.644,1.781 4.258,2.338c1.615,0.556 3.285,0.835 5.01,0.835c2.338,-0 4.37,-0.543 6.095,-1.629c1.726,-1.085 3.312,-2.518 4.76,-4.3l5.678,4.342c-4.175,5.4 -10.02,8.099 -17.535,8.099c-3.117,0 -5.942,-0.528 -8.475,-1.586c-2.533,-1.058 -4.676,-2.519 -6.429,-4.384c-1.754,-1.864 -3.103,-4.063 -4.05,-6.596c-0.946,-2.533 -1.419,-5.274 -1.419,-8.224c-0,-2.951 0.515,-5.692 1.545,-8.225c1.029,-2.533 2.449,-4.731 4.258,-6.596c1.809,-1.865 3.966,-3.326 6.471,-4.384c2.505,-1.057 5.232,-1.586 8.183,-1.586c3.507,-0 6.471,0.612 8.892,1.837c2.422,1.224 4.412,2.825 5.97,4.801c1.559,1.976 2.686,4.203 3.382,6.68c0.696,2.477 1.044,4.996 1.044,7.556l-0,2.672l-31.729,0Zm23.713,-6.012c-0.056,-1.67 -0.32,-3.2 -0.793,-4.592c-0.474,-1.392 -1.183,-2.602 -2.13,-3.632c-0.946,-1.03 -2.129,-1.837 -3.548,-2.422c-1.42,-0.584 -3.076,-0.876 -4.968,-0.876c-1.837,-0 -3.521,0.348 -5.052,1.043c-1.531,0.696 -2.825,1.601 -3.883,2.714c-1.057,1.113 -1.878,2.352 -2.463,3.716c-0.584,1.363 -0.876,2.713 -0.876,4.049l23.713,0Z" style="fill-rule:nonzero;"/>
    <path d="M1117.02,517.556l4.995,15.373l9.626,-4.75l-1.543,10.622l16.164,0l-13.077,9.502l7.492,7.686l-10.579,1.815l4.995,15.373l-13.078,-9.501l-4.995,9.501l-4.995,-9.501l-13.077,9.501l4.995,-15.373l-10.58,-1.815l7.493,-7.686l-13.078,-9.502l16.165,0l-1.544,-10.622l9.626,4.75l4.995,-15.373Z" style="fill:rgb(203,52,52);stroke:rgb(197,48,45);stroke-width:1.06px;"/>
    <path d="M267.055,912.76l846.658,-362.961" style="fill:none;stroke:rgb(197,48,45);stroke-width:9.89px;"/>
    <path d="M1113.71,549.799l-32.357,-10.789" style="fill:none;stroke:rgb(197,48,45);stroke-width:9.89px;"/>
    <path d="M1113.71,549.799l-11.824,28.977" style="fill:none;stroke:rgb(197,48,45);stroke-width:9.89px;"/>
    <path d="M397.703,1159.38c-0,3.552 -0.609,6.793 -1.826,9.72c-1.217,2.928 -2.944,5.461 -5.181,7.599c-2.237,2.138 -4.934,3.8 -8.092,4.984c-3.158,1.184 -6.645,1.776 -10.461,1.776c-4.474,0 -8.57,-0.625 -12.287,-1.875c-3.717,-1.25 -7.253,-3.421 -10.609,-6.513l6.02,-7.5c2.303,2.5 4.803,4.391 7.501,5.674c2.697,1.283 5.756,1.925 9.177,1.925c3.29,-0 6.02,-0.477 8.192,-1.431c2.171,-0.954 3.898,-2.188 5.181,-3.701c1.283,-1.513 2.187,-3.24 2.714,-5.181c0.526,-1.941 0.789,-3.898 0.789,-5.872l0,-6.908l-0.296,-0c-1.711,2.829 -4.03,4.918 -6.958,6.266c-2.927,1.349 -6.003,2.023 -9.227,2.023c-3.421,0 -6.595,-0.608 -9.523,-1.825c-2.928,-1.217 -5.444,-2.895 -7.55,-5.033c-2.105,-2.139 -3.75,-4.672 -4.934,-7.599c-1.184,-2.928 -1.776,-6.102 -1.776,-9.524c-0,-3.421 0.559,-6.628 1.677,-9.622c1.119,-2.993 2.714,-5.608 4.787,-7.845c2.072,-2.237 4.572,-3.981 7.5,-5.231c2.928,-1.25 6.201,-1.875 9.819,-1.875c3.158,0 6.234,0.691 9.227,2.073c2.994,1.381 5.346,3.322 7.057,5.822l0.197,0l0,-6.711l8.882,0l-0,46.384Zm-24.277,-39.278c-2.369,-0 -4.507,0.411 -6.415,1.234c-1.908,0.822 -3.52,1.94 -4.836,3.355c-1.315,1.414 -2.335,3.125 -3.059,5.132c-0.724,2.006 -1.085,4.194 -1.085,6.562c-0,4.737 1.381,8.537 4.144,11.399c2.764,2.862 6.514,4.293 11.251,4.293c4.737,-0 8.487,-1.431 11.25,-4.293c2.763,-2.862 4.145,-6.662 4.145,-11.399c0,-2.368 -0.362,-4.556 -1.086,-6.562c-0.723,-2.007 -1.743,-3.718 -3.059,-5.132c-1.316,-1.415 -2.928,-2.533 -4.836,-3.355c-1.907,-0.823 -4.046,-1.234 -6.414,-1.234Z" style="fill:rgb(46,56,169);fill-rule:nonzero;stroke:rgb(46,56,169);stroke-width:1px;stroke-linecap:butt;stroke-miterlimit:2;"/>
    <path d="M429.48,1091.68c-2.105,3.355 -3.947,6.579 -5.526,9.671c-1.579,3.093 -2.895,6.234 -3.948,9.425c-1.052,3.191 -1.842,6.497 -2.368,9.918c-0.527,3.421 -0.79,7.106 -0.79,11.053c0,7.237 1.053,14.244 3.158,21.021c2.106,6.776 5.264,13.059 9.474,18.849l-5.921,3.947c-4.54,-6.184 -8.076,-12.993 -10.609,-20.428c-2.533,-7.434 -3.799,-15.231 -3.799,-23.389c-0,-7.566 1.217,-15.132 3.651,-22.698c2.434,-7.566 6.02,-14.606 10.757,-21.119l5.921,3.75Z" style="fill:rgb(46,56,169);fill-rule:nonzero;stroke:rgb(46,56,169);stroke-width:1px;stroke-linecap:butt;stroke-miterlimit:2;"/>
    <path d="M451.389,1134.81l-16.58,-21.81l11.448,0l11.349,16.58l11.152,-16.58l10.757,0l-15.988,21.81l18.948,24.968l-11.447,0l-13.817,-19.638l-13.816,19.638l-10.954,0l18.948,-24.968Z" style="fill:rgb(46,56,169);fill-rule:nonzero;stroke:rgb(46,56,169);stroke-width:1px;stroke-linecap:butt;stroke-miterlimit:2;"/>
    <path d="M485.436,1171.82c2.105,-3.355 3.948,-6.579 5.527,-9.671c1.579,-3.092 2.894,-6.234 3.947,-9.425c1.053,-3.191 1.842,-6.497 2.369,-9.918c0.526,-3.421 0.789,-7.105 0.789,-11.053c0,-7.237 -1.053,-14.244 -3.158,-21.02c-2.105,-6.777 -5.263,-13.06 -9.474,-18.85l5.921,-3.947c4.54,6.184 8.076,12.994 10.609,20.428c2.533,7.435 3.8,15.231 3.8,23.389c-0,7.566 -1.217,15.132 -3.652,22.698c-2.434,7.566 -6.02,14.606 -10.757,21.119l-5.921,-3.75Z" style="fill:rgb(46,56,169);fill-rule:nonzero;stroke:rgb(46,56,169);stroke-width:1px;stroke-linecap:butt;stroke-miterlimit:2;"/>
    <path d="M597.15,1118.33l0,7.697l-52.699,0l0,-7.697l52.699,-0Zm0,15.494l0,7.697l-52.699,0l0,-7.697l52.699,-0Z" style="fill:rgb(46,56,169);fill-rule:nonzero;stroke:rgb(46,56,169);stroke-width:1px;stroke-linecap:butt;stroke-miterlimit:2;"/>
    <path d="M632.184,1113l9.968,0l10.559,34.936l0.198,-0l11.151,-34.936l9.376,0l11.842,34.936l0.198,-0l10.066,-34.936l9.375,0l-15.099,46.778l-8.981,0l-12.336,-34.935l-0.197,-0l-11.152,34.935l-9.572,0l-15.396,-46.778Z" style="fill:rgb(46,56,169);fill-rule:nonzero;stroke:rgb(46,56,169);stroke-width:1px;stroke-linecap:butt;stroke-miterlimit:2;"/>
    <path d="M752.978,1134.81l-16.58,-21.81l11.448,0l11.349,16.58l11.152,-16.58l10.757,0l-15.988,21.81l18.948,24.968l-11.447,0l-13.817,-19.638l-13.816,19.638l-10.954,0l18.948,-24.968Z" style="fill:rgb(46,56,169);fill-rule:nonzero;stroke:rgb(46,56,169);stroke-width:1px;stroke-linecap:butt;stroke-miterlimit:2;"/>
    <rect x="815.546" y="1131.75" width="24.277" height="8.29" style="fill:rgb(46,56,169);fill-rule:nonzero;stroke:rgb(46,56,169);stroke-width:1px;stroke-linecap:butt;stroke-miterlimit:2;"/>
    <path d="M877.423,1085.17l8.882,-0l-0,34.54l0.197,0c1.579,-2.434 3.849,-4.358 6.81,-5.773c2.96,-1.415 6.118,-2.122 9.474,-2.122c3.618,0 6.891,0.625 9.819,1.875c2.928,1.25 5.428,2.977 7.5,5.181c2.073,2.204 3.668,4.803 4.787,7.797c1.118,2.993 1.677,6.233 1.677,9.72c0,3.487 -0.559,6.711 -1.677,9.672c-1.119,2.96 -2.714,5.559 -4.787,7.796c-2.072,2.237 -4.572,3.981 -7.5,5.231c-2.928,1.25 -6.201,1.875 -9.819,1.875c-3.158,-0 -6.234,-0.691 -9.228,-2.073c-2.993,-1.381 -5.345,-3.322 -7.056,-5.822l-0.197,-0l-0,6.71l-8.882,0l-0,-74.607Zm24.277,67.502c2.368,-0 4.507,-0.411 6.415,-1.234c1.908,-0.822 3.519,-1.941 4.835,-3.355c1.316,-1.415 2.336,-3.125 3.06,-5.132c0.723,-2.007 1.085,-4.194 1.085,-6.563c0,-2.368 -0.362,-4.556 -1.085,-6.562c-0.724,-2.007 -1.744,-3.718 -3.06,-5.132c-1.316,-1.415 -2.927,-2.533 -4.835,-3.355c-1.908,-0.823 -4.047,-1.234 -6.415,-1.234c-2.369,-0 -4.507,0.411 -6.415,1.234c-1.908,0.822 -3.52,1.94 -4.835,3.355c-1.316,1.414 -2.336,3.125 -3.06,5.132c-0.723,2.006 -1.085,4.194 -1.085,6.562c-0,2.369 0.362,4.556 1.085,6.563c0.724,2.007 1.744,3.717 3.06,5.132c1.315,1.414 2.927,2.533 4.835,3.355c1.908,0.823 4.046,1.234 6.415,1.234Z" style="fill:rgb(46,56,169);fill-rule:nonzero;stroke:rgb(46,56,169);stroke-width:1px;stroke-linecap:butt;stroke-miterlimit:2;"/>
    <path d="M1017.66,1118.33l-0,7.697l-52.699,0l-0,-7.697l52.699,-0Zm-0,15.494l-0,7.697l-52.699,0l-0,-7.697l52.699,-0Z" style="fill:rgb(46,56,169);fill-rule:nonzero;stroke:rgb(46,56,169);stroke-width:1px;stroke-linecap:butt;stroke-miterlimit:2;"/>
    <path d="M1054.96,1124.84c-0,-2.566 0.131,-5.23 0.394,-7.994c0.264,-2.763 0.741,-5.477 1.431,-8.141c0.691,-2.665 1.612,-5.214 2.764,-7.649c1.151,-2.434 2.631,-4.556 4.441,-6.365c1.809,-1.809 3.947,-3.257 6.414,-4.342c2.467,-1.086 5.346,-1.629 8.635,-1.629c3.29,0 6.168,0.543 8.636,1.629c2.467,1.085 4.605,2.533 6.414,4.342c1.809,1.809 3.29,3.931 4.441,6.365c1.152,2.435 2.073,4.984 2.763,7.649c0.691,2.664 1.168,5.378 1.431,8.141c0.264,2.764 0.395,5.428 0.395,7.994c0,3.684 -0.329,7.632 -0.987,11.842c-0.658,4.211 -1.875,8.126 -3.651,11.744c-1.777,3.619 -4.227,6.612 -7.352,8.981c-3.126,2.368 -7.155,3.553 -12.09,3.553c-4.934,-0 -8.964,-1.185 -12.089,-3.553c-3.125,-2.369 -5.576,-5.362 -7.352,-8.981c-1.776,-3.618 -2.994,-7.533 -3.651,-11.744c-0.658,-4.21 -0.987,-8.158 -0.987,-11.842Zm9.474,-0c-0,2.303 0.148,5.033 0.444,8.191c0.296,3.158 0.937,6.201 1.924,9.129c0.987,2.927 2.451,5.411 4.392,7.451c1.941,2.039 4.556,3.059 7.845,3.059c3.29,-0 5.905,-1.02 7.846,-3.059c1.941,-2.04 3.405,-4.524 4.392,-7.451c0.987,-2.928 1.628,-5.971 1.924,-9.129c0.296,-3.158 0.444,-5.888 0.444,-8.191c0,-1.579 -0.049,-3.372 -0.148,-5.378c-0.099,-2.007 -0.329,-4.047 -0.691,-6.119c-0.362,-2.073 -0.871,-4.079 -1.529,-6.02c-0.658,-1.941 -1.53,-3.684 -2.616,-5.23c-1.085,-1.547 -2.417,-2.78 -3.996,-3.701c-1.579,-0.921 -3.454,-1.382 -5.626,-1.382c-2.171,0 -4.046,0.461 -5.625,1.382c-1.579,0.921 -2.911,2.154 -3.997,3.701c-1.085,1.546 -1.957,3.289 -2.615,5.23c-0.658,1.941 -1.168,3.947 -1.53,6.02c-0.361,2.072 -0.592,4.112 -0.69,6.119c-0.099,2.006 -0.148,3.799 -0.148,5.378Z" style="fill:rgb(46,56,169);fill-rule:nonzero;stroke:rgb(46,56,169);stroke-width:1px;stroke-linecap:butt;stroke-miterlimit:2;"/>
    <path d="M717.749,460.7l9.968,0l10.559,34.935l0.197,0l11.152,-34.935l9.375,0l11.843,34.935l0.197,0l10.066,-34.935l9.376,0l-15.099,46.778l-8.981,-0l-12.336,-34.935l-0.197,-0l-11.152,34.935l-9.573,-0l-15.395,-46.778Z" style="fill:rgb(226,209,14);fill-rule:nonzero;stroke:rgb(226,209,14);stroke-width:1px;stroke-linecap:butt;stroke-miterlimit:2;"/>
    <path d="M838.543,482.51l-16.58,-21.81l11.448,0l11.349,16.58l11.152,-16.58l10.757,0l-15.988,21.81l18.948,24.968l-11.448,-0l-13.816,-19.639l-13.816,19.639l-10.954,-0l18.948,-24.968Z" style="fill:rgb(226,209,14);fill-rule:nonzero;stroke:rgb(226,209,14);stroke-width:1px;stroke-linecap:butt;stroke-miterlimit:2;"/>
    <path d="M715.005,1078.59l-12.504,0l-0,-4.936l30.274,0l-0,4.936l-12.505,0l0,33.894l-5.265,0l0,-33.894Z" style="fill:rgb(46,56,169);fill-rule:nonzero;stroke:rgb(46,56,169);stroke-width:1px;stroke-linecap:butt;stroke-miterlimit:2;"/>
    <path d="M796.473,426.273l-12.504,-0l-0,-4.936l30.274,-0l-0,4.936l-12.505,-0l0,33.893l-5.265,0l0,-33.893Z" style="fill:rgb(226,209,14);fill-rule:nonzero;stroke:rgb(226,209,14);stroke-width:1px;stroke-linecap:butt;stroke-miterlimit:2;"/>
    <path d="M644.636,1172.34l50.202,0" style="fill:none;stroke:rgb(46,56,169);stroke-width:9.89px;"/>
    <path d="M731.209,520.929l50.201,-0" style="fill:none;stroke:rgb(226,209,14);stroke-width:9.89px;"/>
    <path d="M438.857,1173.42l35.264,0" style="fill:none;stroke:rgb(46,56,169);stroke-width:9.89px;"/>
    <path d="M734.106,1172.57l49.988,-0" style="fill:none;stroke:rgb(46,56,169);stroke-width:9.89px;"/>
    <path d="M821.006,520.981l49.989,-0" style="fill:none;stroke:rgb(226,209,14);stroke-width:9.89px;"/>
    <path d="M253.296,897.861l269.5,-326.315" style="fill:none;stroke:rgb(72,193,215);stroke-width:9.89px;"/>
    <path d="M864.3,846.503l247.572,-296.536" style="fill:none;stroke:rgb(215,72,204);stroke-width:8.7px;"/>
    <path d="M543.882,582.696l247.572,-296.536" style="fill:none;stroke:rgb(215,72,204);stroke-width:8.7px;"/>
    <path d="M865.792,846.303l-0.871,-29.475" style="fill:none;stroke:rgb(215,72,204);stroke-width:8.7px;"/>
    <path d="M543.148,583.5l-0.871,-29.474" style="fill:none;stroke:rgb(215,72,204);stroke-width:8.7px;"/>
    <path d="M865.792,846.303l28.731,-3.071" style="fill:none;stroke:rgb(215,72,204);stroke-width:8.7px;"/>
    <path d="M543.148,583.5l28.731,-3.07" style="fill:none;stroke:rgb(215,72,204);stroke-width:8.7px;"/>
    <path d="M1112.44,547.502l4.744,23.678" style="fill:none;stroke:rgb(215,72,204);stroke-width:8.7px;"/>
    <path d="M791.478,286.752l4.743,23.679" style="fill:none;stroke:rgb(215,72,204);stroke-width:8.7px;"/>
    <path d="M1112.44,547.502l-25.046,2.122" style="fill:none;stroke:rgb(215,72,204);stroke-width:8.7px;"/>
    <path d="M790.486,285.083l-25.047,2.122" style="fill:none;stroke:rgb(215,72,204);stroke-width:8.7px;"/>
    <path d="M522.796,571.546l-23.57,0.303" style="fill:none;stroke:rgb(72,193,215);stroke-width:9.89px;"/>
    <path d="M522.796,571.546l2.116,19.945" style="fill:none;stroke:rgb(72,193,215);stroke-width:9.89px;"/>
    <path d="M251.57,898.815l0.467,-29.615" style="fill:none;stroke:rgb(72,193,215);stroke-width:9.89px;"/>
    <path d="M251.57,898.815l25.246,-1.511" style="fill:none;stroke:rgb(72,193,215);stroke-width:9.89px;"/>
    <path d="M335.354,502.354l8.28,-0l0,32.201l0.184,0c1.472,-2.269 3.588,-4.063 6.348,-5.382c2.761,-1.319 5.705,-1.978 8.833,-1.978c3.373,-0 6.425,0.583 9.154,1.748c2.73,1.165 5.06,2.775 6.992,4.83c1.933,2.055 3.42,4.478 4.463,7.268c1.042,2.791 1.564,5.812 1.564,9.063c-0,3.251 -0.522,6.256 -1.564,9.016c-1.043,2.76 -2.53,5.183 -4.463,7.268c-1.932,2.086 -4.262,3.711 -6.992,4.877c-2.729,1.165 -5.781,1.748 -9.154,1.748c-2.944,-0 -5.812,-0.644 -8.603,-1.932c-2.79,-1.288 -4.983,-3.098 -6.578,-5.429l-0.184,0l0,6.257l-8.28,-0l-0,-69.555Zm22.633,62.93c2.208,0 4.201,-0.383 5.98,-1.15c1.779,-0.766 3.281,-1.809 4.508,-3.128c1.227,-1.319 2.178,-2.913 2.852,-4.784c0.675,-1.871 1.012,-3.91 1.012,-6.118c0,-2.208 -0.337,-4.248 -1.012,-6.119c-0.674,-1.87 -1.625,-3.465 -2.852,-4.784c-1.227,-1.318 -2.729,-2.361 -4.508,-3.128c-1.779,-0.767 -3.772,-1.15 -5.98,-1.15c-2.208,0 -4.202,0.383 -5.98,1.15c-1.779,0.767 -3.282,1.81 -4.509,3.128c-1.226,1.319 -2.177,2.914 -2.852,4.784c-0.674,1.871 -1.012,3.911 -1.012,6.119c0,2.208 0.338,4.247 1.012,6.118c0.675,1.871 1.626,3.465 2.852,4.784c1.227,1.319 2.73,2.362 4.509,3.128c1.778,0.767 3.772,1.15 5.98,1.15Z" style="fill:rgb(72,193,215);fill-rule:nonzero;stroke:rgb(72,193,215);stroke-width:1px;stroke-linecap:butt;stroke-miterlimit:2;"/>
    <path d="M322.395,588.387l68.318,-0" style="fill:none;stroke:rgb(72,193,215);stroke-width:9.89px;"/>
    <rect x="304.296" y="610.505" width="5.574" height="55.311" style="fill:rgb(72,193,215);fill-rule:nonzero;stroke:rgb(72,193,215);stroke-width:1px;stroke-linecap:butt;stroke-miterlimit:2;"/>
    <rect x="320.161" y="610.505" width="5.574" height="55.311" style="fill:rgb(72,193,215);fill-rule:nonzero;stroke:rgb(72,193,215);stroke-width:1px;stroke-linecap:butt;stroke-miterlimit:2;"/>
    <path d="M331.666,630.657l7.218,0l7.646,25.297l0.143,0l8.075,-25.297l6.789,0l8.575,25.297l0.143,0l7.289,-25.297l6.789,0l-10.933,33.873l-6.503,-0l-8.933,-25.298l-0.143,0l-8.075,25.298l-6.932,-0l-11.148,-33.873Z" style="fill:rgb(72,193,215);fill-rule:nonzero;stroke:rgb(72,193,215);stroke-width:1px;stroke-linecap:butt;stroke-miterlimit:2;"/>
    <rect x="390.265" y="610.505" width="5.574" height="55.311" style="fill:rgb(72,193,215);fill-rule:nonzero;stroke:rgb(72,193,215);stroke-width:1px;stroke-linecap:butt;stroke-miterlimit:2;"/>
    <rect x="406.129" y="610.505" width="5.574" height="55.311" style="fill:rgb(72,193,215);fill-rule:nonzero;stroke:rgb(72,193,215);stroke-width:1px;stroke-linecap:butt;stroke-miterlimit:2;"/>
    <rect x="744.071" y="559.567" width="5.574" height="55.311" style="fill:rgb(226,209,14);fill-rule:nonzero;stroke:rgb(226,209,14);stroke-width:1px;stroke-linecap:butt;stroke-miterlimit:2;"/>
    <rect x="759.935" y="559.567" width="5.574" height="55.311" style="fill:rgb(226,209,14);fill-rule:nonzero;stroke:rgb(226,209,14);stroke-width:1px;stroke-linecap:butt;stroke-miterlimit:2;"/>
    <path d="M771.44,579.719l7.218,-0l7.646,25.297l0.143,0l8.075,-25.297l6.789,-0l8.576,25.297l0.143,0l7.289,-25.297l6.788,-0l-10.933,33.872l-6.503,0l-8.933,-25.297l-0.143,0l-8.075,25.297l-6.932,0l-11.148,-33.872Z" style="fill:rgb(226,209,14);fill-rule:nonzero;stroke:rgb(226,209,14);stroke-width:1px;stroke-linecap:butt;stroke-miterlimit:2;"/>
    <rect x="830.039" y="559.567" width="5.574" height="55.311" style="fill:rgb(226,209,14);fill-rule:nonzero;stroke:rgb(226,209,14);stroke-width:1px;stroke-linecap:butt;stroke-miterlimit:2;"/>
    <rect x="845.903" y="559.567" width="5.574" height="55.311" style="fill:rgb(226,209,14);fill-rule:nonzero;stroke:rgb(226,209,14);stroke-width:1px;stroke-linecap:butt;stroke-miterlimit:2;"/>
    <path d="M336.903,674.095l43.379,-0" style="fill:none;stroke:rgb(72,193,215);stroke-width:5.34px;"/>
    <path d="M776.677,623.156l43.379,0" style="fill:none;stroke:rgb(226,209,14);stroke-width:5.34px;"/>
    <path d="M1016.38,736.75c-0,1.051 0.16,2.021 0.481,2.912c0.321,0.89 0.774,1.649 1.357,2.276c0.584,0.628 1.299,1.124 2.145,1.489c0.847,0.364 1.795,0.547 2.846,0.547c1.051,-0 1.999,-0.183 2.846,-0.547c0.846,-0.365 1.561,-0.861 2.145,-1.489c0.584,-0.627 1.036,-1.386 1.357,-2.276c0.321,-0.891 0.481,-1.861 0.481,-2.912c0,-1.05 -0.16,-2.021 -0.481,-2.911c-0.321,-0.89 -0.773,-1.649 -1.357,-2.276c-0.584,-0.628 -1.299,-1.124 -2.145,-1.489c-0.847,-0.365 -1.795,-0.547 -2.846,-0.547c-1.051,-0 -1.999,0.182 -2.846,0.547c-0.846,0.365 -1.561,0.861 -2.145,1.489c-0.583,0.627 -1.036,1.386 -1.357,2.276c-0.321,0.89 -0.481,1.861 -0.481,2.911Zm-4.203,0c-0,-1.517 0.284,-2.933 0.854,-4.246c0.569,-1.314 1.349,-2.466 2.342,-3.459c0.992,-0.992 2.159,-1.773 3.502,-2.342c1.343,-0.569 2.787,-0.853 4.334,-0.853c1.547,-0 2.992,0.284 4.334,0.853c1.343,0.569 2.51,1.35 3.502,2.342c0.993,0.993 1.773,2.145 2.343,3.459c0.569,1.313 0.853,2.729 0.853,4.246c0,1.518 -0.284,2.941 -0.853,4.269c-0.57,1.328 -1.35,2.48 -2.343,3.458c-0.992,0.978 -2.159,1.751 -3.502,2.32c-1.342,0.57 -2.787,0.854 -4.334,0.854c-1.547,0 -2.991,-0.284 -4.334,-0.854c-1.343,-0.569 -2.51,-1.342 -3.502,-2.32c-0.993,-0.978 -1.773,-2.13 -2.342,-3.458c-0.57,-1.328 -0.854,-2.751 -0.854,-4.269Z" style="fill:rgb(215,72,166);fill-rule:nonzero;stroke:rgb(215,72,196);stroke-width:1px;stroke-linecap:butt;stroke-miterlimit:2;"/>
    <path d="M1040.71,729.79l-4.465,-0l0,-3.415l4.465,-0l0,-4.641c0,-2.772 0.533,-4.837 1.598,-6.194c1.066,-1.357 2.897,-2.036 5.495,-2.036c0.437,0 0.897,0.015 1.379,0.044c0.481,0.029 0.999,0.117 1.554,0.262l-0.438,3.503c-0.38,-0.146 -0.744,-0.248 -1.095,-0.307c-0.35,-0.058 -0.729,-0.087 -1.138,-0.087c-0.729,-0 -1.313,0.109 -1.751,0.328c-0.438,0.219 -0.781,0.533 -1.029,0.941c-0.248,0.409 -0.408,0.898 -0.481,1.467c-0.073,0.569 -0.11,1.218 -0.11,1.948l0,4.772l4.685,-0l-0,3.415l-4.729,-0l0,17.336l-3.94,-0l0,-17.336Z" style="fill:rgb(215,72,166);fill-rule:nonzero;stroke:rgb(215,72,196);stroke-width:1px;stroke-linecap:butt;stroke-miterlimit:2;"/>
    <path d="M1066.24,726.375l3.94,-0l0,20.751l-3.94,-0l0,-20.751Zm-0.919,-7.442c-0,-0.788 0.284,-1.467 0.854,-2.036c0.569,-0.569 1.247,-0.854 2.035,-0.854c0.788,0 1.467,0.285 2.036,0.854c0.569,0.569 0.854,1.248 0.854,2.036c-0,0.788 -0.285,1.466 -0.854,2.035c-0.569,0.569 -1.248,0.854 -2.036,0.854c-0.788,-0 -1.466,-0.285 -2.035,-0.854c-0.57,-0.569 -0.854,-1.247 -0.854,-2.035Z" style="fill:rgb(215,72,166);fill-rule:nonzero;stroke:rgb(215,72,196);stroke-width:1px;stroke-linecap:butt;stroke-miterlimit:2;"/>
    <path d="M1076.44,726.375l3.94,-0l-0,3.196l0.087,-0c0.496,-1.109 1.357,-2.007 2.583,-2.693c1.226,-0.686 2.641,-1.028 4.247,-1.028c0.992,-0 1.948,0.153 2.867,0.459c0.919,0.307 1.722,0.781 2.408,1.423c0.686,0.642 1.233,1.467 1.642,2.473c0.408,1.007 0.612,2.197 0.612,3.568l0,13.353l-3.94,-0l0,-12.258c0,-0.963 -0.131,-1.788 -0.394,-2.474c-0.262,-0.685 -0.612,-1.24 -1.05,-1.663c-0.438,-0.423 -0.942,-0.73 -1.511,-0.92c-0.569,-0.189 -1.16,-0.284 -1.773,-0.284c-0.817,-0 -1.576,0.131 -2.276,0.394c-0.701,0.263 -1.313,0.678 -1.839,1.248c-0.525,0.569 -0.934,1.291 -1.226,2.167c-0.291,0.875 -0.437,1.911 -0.437,3.108l-0,10.682l-3.94,-0l-0,-20.751Z" style="fill:rgb(215,72,166);fill-rule:nonzero;stroke:rgb(215,72,196);stroke-width:1px;stroke-linecap:butt;stroke-miterlimit:2;"/>
    <path d="M1111.9,729.79l-5.647,-0l-0,9.412c-0,0.584 0.014,1.16 0.043,1.729c0.03,0.569 0.139,1.08 0.329,1.532c0.189,0.453 0.481,0.818 0.875,1.095c0.394,0.277 0.971,0.416 1.73,0.416c0.467,-0 0.948,-0.044 1.444,-0.132c0.496,-0.087 0.949,-0.248 1.357,-0.481l0,3.59c-0.467,0.262 -1.072,0.445 -1.816,0.547c-0.745,0.102 -1.321,0.153 -1.73,0.153c-1.517,0 -2.692,-0.211 -3.524,-0.635c-0.832,-0.423 -1.445,-0.97 -1.839,-1.641c-0.394,-0.672 -0.627,-1.423 -0.7,-2.255c-0.073,-0.832 -0.109,-1.671 -0.109,-2.517l-0,-10.813l-4.553,-0l-0,-3.415l4.553,-0l-0,-5.823l3.94,0l-0,5.823l5.647,-0l0,3.415Z" style="fill:rgb(215,72,166);fill-rule:nonzero;stroke:rgb(215,72,196);stroke-width:1px;stroke-linecap:butt;stroke-miterlimit:2;"/>
    <path d="M1119.95,738.195c0,0.905 0.197,1.729 0.591,2.473c0.394,0.745 0.912,1.38 1.554,1.905c0.642,0.525 1.387,0.934 2.233,1.226c0.846,0.291 1.722,0.437 2.627,0.437c1.226,0 2.291,-0.284 3.196,-0.853c0.904,-0.569 1.736,-1.321 2.495,-2.255l2.977,2.277c-2.189,2.831 -5.254,4.246 -9.194,4.246c-1.634,0 -3.115,-0.277 -4.443,-0.832c-1.328,-0.554 -2.452,-1.32 -3.371,-2.298c-0.919,-0.978 -1.627,-2.131 -2.123,-3.459c-0.496,-1.327 -0.744,-2.765 -0.744,-4.312c-0,-1.547 0.269,-2.984 0.809,-4.312c0.54,-1.328 1.285,-2.481 2.233,-3.458c0.949,-0.978 2.08,-1.744 3.393,-2.299c1.313,-0.554 2.743,-0.831 4.29,-0.831c1.839,-0 3.393,0.321 4.663,0.963c1.269,0.642 2.313,1.481 3.13,2.517c0.817,1.036 1.408,2.203 1.773,3.502c0.365,1.299 0.547,2.62 0.547,3.962l0,1.401l-16.636,0Zm12.433,-3.152c-0.029,-0.876 -0.168,-1.678 -0.416,-2.408c-0.248,-0.729 -0.62,-1.364 -1.116,-1.904c-0.496,-0.54 -1.116,-0.963 -1.861,-1.27c-0.744,-0.306 -1.612,-0.459 -2.604,-0.459c-0.963,-0 -1.846,0.182 -2.649,0.547c-0.803,0.365 -1.481,0.839 -2.036,1.423c-0.554,0.583 -0.985,1.233 -1.291,1.948c-0.307,0.715 -0.46,1.423 -0.46,2.123l12.433,-0Z" style="fill:rgb(215,72,166);fill-rule:nonzero;stroke:rgb(215,72,196);stroke-width:1px;stroke-linecap:butt;stroke-miterlimit:2;"/>
    <path d="M1141.32,726.375l3.94,-0l0,3.196l0.088,-0c0.262,-0.555 0.613,-1.058 1.05,-1.511c0.438,-0.452 0.927,-0.839 1.467,-1.16c0.54,-0.321 1.131,-0.576 1.773,-0.766c0.642,-0.19 1.284,-0.284 1.926,-0.284c0.642,-0 1.226,0.087 1.751,0.262l-0.175,4.247c-0.321,-0.088 -0.642,-0.161 -0.963,-0.219c-0.321,-0.059 -0.642,-0.088 -0.963,-0.088c-1.926,0 -3.4,0.54 -4.422,1.62c-1.021,1.08 -1.532,2.758 -1.532,5.035l0,10.419l-3.94,-0l0,-20.751Z" style="fill:rgb(215,72,166);fill-rule:nonzero;stroke:rgb(215,72,196);stroke-width:1px;stroke-linecap:butt;stroke-miterlimit:2;"/>
    <path d="M1159.7,738.195c-0,0.905 0.197,1.729 0.591,2.473c0.394,0.745 0.912,1.38 1.554,1.905c0.642,0.525 1.386,0.934 2.233,1.226c0.846,0.291 1.722,0.437 2.627,0.437c1.225,0 2.291,-0.284 3.195,-0.853c0.905,-0.569 1.737,-1.321 2.496,-2.255l2.977,2.277c-2.189,2.831 -5.254,4.246 -9.194,4.246c-1.634,0 -3.115,-0.277 -4.443,-0.832c-1.328,-0.554 -2.452,-1.32 -3.371,-2.298c-0.92,-0.978 -1.627,-2.131 -2.124,-3.459c-0.496,-1.327 -0.744,-2.765 -0.744,-4.312c0,-1.547 0.27,-2.984 0.81,-4.312c0.54,-1.328 1.284,-2.481 2.233,-3.458c0.948,-0.978 2.079,-1.744 3.393,-2.299c1.313,-0.554 2.743,-0.831 4.29,-0.831c1.839,-0 3.393,0.321 4.662,0.963c1.27,0.642 2.313,1.481 3.131,2.517c0.817,1.036 1.408,2.203 1.773,3.502c0.364,1.299 0.547,2.62 0.547,3.962l-0,1.401l-16.636,0Zm12.433,-3.152c-0.029,-0.876 -0.168,-1.678 -0.416,-2.408c-0.248,-0.729 -0.62,-1.364 -1.116,-1.904c-0.496,-0.54 -1.117,-0.963 -1.861,-1.27c-0.744,-0.306 -1.612,-0.459 -2.605,-0.459c-0.963,-0 -1.846,0.182 -2.648,0.547c-0.803,0.365 -1.481,0.839 -2.036,1.423c-0.554,0.583 -0.985,1.233 -1.291,1.948c-0.307,0.715 -0.46,1.423 -0.46,2.123l12.433,-0Z" style="fill:rgb(215,72,166);fill-rule:nonzero;stroke:rgb(215,72,196);stroke-width:1px;stroke-linecap:butt;stroke-miterlimit:2;"/>
    <path d="M1192.1,731.584c-0.467,-0.583 -1.043,-1.072 -1.729,-1.466c-0.686,-0.394 -1.525,-0.591 -2.518,-0.591c-0.933,-0 -1.743,0.197 -2.429,0.591c-0.686,0.394 -1.029,0.97 -1.029,1.729c-0,0.613 0.197,1.109 0.591,1.489c0.394,0.379 0.861,0.685 1.401,0.919c0.54,0.233 1.116,0.409 1.729,0.525c0.613,0.117 1.138,0.219 1.576,0.307c0.847,0.204 1.642,0.452 2.386,0.744c0.744,0.292 1.386,0.671 1.926,1.138c0.54,0.467 0.963,1.036 1.27,1.708c0.306,0.671 0.46,1.488 0.46,2.451c-0,1.168 -0.249,2.167 -0.745,2.999c-0.496,0.832 -1.138,1.51 -1.926,2.036c-0.788,0.525 -1.685,0.904 -2.692,1.138c-1.007,0.233 -2.021,0.35 -3.043,0.35c-1.722,0 -3.232,-0.263 -4.531,-0.788c-1.299,-0.525 -2.459,-1.488 -3.48,-2.889l2.977,-2.452c0.642,0.642 1.357,1.211 2.145,1.708c0.788,0.496 1.751,0.744 2.889,0.744c0.496,-0 1,-0.051 1.51,-0.153c0.511,-0.103 0.964,-0.263 1.358,-0.482c0.394,-0.219 0.715,-0.496 0.963,-0.832c0.248,-0.335 0.372,-0.722 0.372,-1.16c-0,-0.584 -0.183,-1.065 -0.547,-1.445c-0.365,-0.379 -0.803,-0.678 -1.314,-0.897c-0.51,-0.219 -1.05,-0.394 -1.62,-0.525c-0.569,-0.132 -1.072,-0.241 -1.51,-0.329c-0.846,-0.204 -1.649,-0.438 -2.408,-0.7c-0.759,-0.263 -1.43,-0.613 -2.013,-1.051c-0.584,-0.438 -1.051,-0.992 -1.401,-1.663c-0.351,-0.672 -0.526,-1.504 -0.526,-2.496c0,-1.08 0.226,-2.021 0.679,-2.824c0.452,-0.802 1.051,-1.466 1.795,-1.991c0.744,-0.526 1.59,-0.92 2.539,-1.182c0.948,-0.263 1.904,-0.394 2.867,-0.394c1.401,-0 2.744,0.262 4.028,0.788c1.284,0.525 2.306,1.4 3.064,2.626l-3.064,2.32Z" style="fill:rgb(215,72,166);fill-rule:nonzero;stroke:rgb(215,72,196);stroke-width:1px;stroke-linecap:butt;stroke-miterlimit:2;"/>
    <path d="M1211.63,729.79l-5.647,-0l-0,9.412c-0,0.584 0.014,1.16 0.043,1.729c0.03,0.569 0.139,1.08 0.329,1.532c0.19,0.453 0.481,0.818 0.875,1.095c0.394,0.277 0.971,0.416 1.73,0.416c0.467,-0 0.948,-0.044 1.444,-0.132c0.496,-0.087 0.949,-0.248 1.357,-0.481l0,3.59c-0.467,0.262 -1.072,0.445 -1.816,0.547c-0.745,0.102 -1.321,0.153 -1.73,0.153c-1.517,0 -2.692,-0.211 -3.524,-0.635c-0.832,-0.423 -1.444,-0.97 -1.838,-1.641c-0.394,-0.672 -0.628,-1.423 -0.701,-2.255c-0.073,-0.832 -0.109,-1.671 -0.109,-2.517l-0,-10.813l-4.553,-0l-0,-3.415l4.553,-0l-0,-5.823l3.94,0l-0,5.823l5.647,-0l0,3.415Z" style="fill:rgb(215,72,166);fill-rule:nonzero;stroke:rgb(215,72,196);stroke-width:1px;stroke-linecap:butt;stroke-miterlimit:2;"/>
    <path d="M1004.3,527.267l-12.991,-17.09l8.97,0l8.893,12.991l8.738,-12.991l8.429,0l-12.527,17.09l14.847,19.564l-8.97,-0l-10.826,-15.389l-10.826,15.389l-8.584,-0l14.847,-19.564Z" style="fill:rgb(215,72,80);fill-rule:nonzero;stroke:rgb(215,72,79);stroke-width:1px;stroke-linecap:butt;stroke-miterlimit:2;"/>
    <path d="M1036.92,503.076l3.54,-1.197l0.535,1.707l-3.54,1.146l2.241,3.031l-1.4,1.044l-2.318,-3.107l-2.267,3.056l-1.401,-1.044l2.267,-2.98l-3.617,-1.223l0.535,-1.655l3.591,1.222l0,-3.744l1.834,0l0,3.744Z" style="fill:rgb(215,72,80);fill-rule:nonzero;stroke:rgb(215,72,79);stroke-width:1px;stroke-linecap:butt;stroke-miterlimit:2;"/>
    <path d="M988.828,555.051l40.238,0" style="fill:none;stroke:rgb(215,72,79);stroke-width:8.7px;"/>
    <path d="M694.543,538.201l209.26,0" style="fill:none;stroke:rgb(226,209,14);stroke-width:8.7px;"/>
</svg>
