<?xml version="1.0" encoding="UTF-8" standalone="no"?>
<!DOCTYPE svg PUBLIC "-//W3C//DTD SVG 1.1//EN" "http://www.w3.org/Graphics/SVG/1.1/DTD/svg11.dtd">
<svg width="100%" height="100%" viewBox="0 0 775 922" version="1.1" xmlns="http://www.w3.org/2000/svg" xmlns:xlink="http://www.w3.org/1999/xlink" xml:space="preserve" xmlns:serif="http://www.serif.com/" style="fill-rule:evenodd;clip-rule:evenodd;stroke-linecap:round;stroke-linejoin:round;stroke-miterlimit:1.5;">
    <g transform="matrix(1,0,0,1,-161.772,-162.733)">
        <g transform="matrix(0.732812,0,0,0.732812,-483.116,-130.263)">
            <path d="M1030.29,1537.78L1030.29,653" style="fill:none;stroke:black;stroke-width:23.36px;"/>
        </g>
        <g transform="matrix(0.732812,0,0,0.732812,-483.116,-130.263)">
            <path d="M1030.29,653L985.147,698.147" style="fill:none;stroke:black;stroke-width:23.36px;"/>
        </g>
        <g transform="matrix(0.732812,0,0,0.732812,-483.116,-130.263)">
            <path d="M1030.29,653L1079.65,702.353" style="fill:none;stroke:black;stroke-width:23.36px;"/>
        </g>
        <g transform="matrix(4.90373e-17,0.80084,-0.80084,4.90373e-17,1435.11,100.691)">
            <path d="M1030.29,1537.78L1030.29,653" style="fill:none;stroke:black;stroke-width:21.38px;"/>
        </g>
        <g transform="matrix(4.48718e-17,0.732812,-0.732812,4.48718e-17,1399.64,170.78)">
            <path d="M1030.29,653L985.147,698.147" style="fill:none;stroke:black;stroke-width:23.36px;"/>
        </g>
        <g transform="matrix(4.48718e-17,0.732812,-0.732812,4.48718e-17,1399.64,170.78)">
            <path d="M1030.29,653L1079.65,702.353" style="fill:none;stroke:black;stroke-width:23.36px;"/>
        </g>
        <g transform="matrix(0.732812,0,0,0.732812,-1019.44,-126.379)">
            <g transform="matrix(179.562,0,0,179.562,1669.77,1629.56)">
                <path d="M0.314,-0.408L0.179,-0.408L0.179,-0.132C0.179,-0.115 0.181,-0.1 0.184,-0.09C0.187,-0.079 0.192,-0.07 0.198,-0.064C0.204,-0.058 0.211,-0.054 0.22,-0.052C0.228,-0.049 0.237,-0.048 0.247,-0.048C0.258,-0.048 0.27,-0.05 0.282,-0.053C0.294,-0.056 0.305,-0.061 0.315,-0.066L0.318,-0.005C0.293,0.006 0.264,0.012 0.229,0.012C0.216,0.012 0.203,0.01 0.19,0.007C0.176,0.004 0.163,-0.003 0.152,-0.012C0.141,-0.021 0.131,-0.034 0.124,-0.05C0.117,-0.066 0.113,-0.087 0.113,-0.113L0.113,-0.408L0.014,-0.408L0.014,-0.468L0.113,-0.468L0.113,-0.6L0.179,-0.6L0.179,-0.468L0.314,-0.468L0.314,-0.408Z" style="fill-rule:nonzero;"/>
            </g>
        </g>
        <g transform="matrix(0.732812,0,0,0.732812,-480.572,-111.896)">
            <g transform="matrix(179.562,0,0,179.562,1669.77,1629.56)">
                <path d="M0.314,-0.408L0.179,-0.408L0.179,-0.132C0.179,-0.115 0.181,-0.1 0.184,-0.09C0.187,-0.079 0.192,-0.07 0.198,-0.064C0.204,-0.058 0.211,-0.054 0.22,-0.052C0.228,-0.049 0.237,-0.048 0.247,-0.048C0.258,-0.048 0.27,-0.05 0.282,-0.053C0.294,-0.056 0.305,-0.061 0.315,-0.066L0.318,-0.005C0.293,0.006 0.264,0.012 0.229,0.012C0.216,0.012 0.203,0.01 0.19,0.007C0.176,0.004 0.163,-0.003 0.152,-0.012C0.141,-0.021 0.131,-0.034 0.124,-0.05C0.117,-0.066 0.113,-0.087 0.113,-0.113L0.113,-0.408L0.014,-0.408L0.014,-0.468L0.113,-0.468L0.113,-0.6L0.179,-0.6L0.179,-0.468L0.314,-0.468L0.314,-0.408Z" style="fill-rule:nonzero;"/>
            </g>
            <g transform="matrix(179.562,0,0,179.562,1729.38,1629.56)">
                <path d="M0.363,-0.333L0.588,-0.333L0.588,-0.273L0.363,-0.273L0.363,-0.048L0.303,-0.048L0.303,-0.273L0.078,-0.273L0.078,-0.333L0.303,-0.333L0.303,-0.558L0.363,-0.558L0.363,-0.333Z" style="fill-rule:nonzero;"/>
            </g>
            <g transform="matrix(179.562,0,0,179.562,1848.97,1629.56)">
                <path d="M0.072,-0.756L0.138,-0.756L0.138,-0.393L0.14,-0.393C0.147,-0.406 0.157,-0.417 0.168,-0.428C0.179,-0.439 0.192,-0.448 0.206,-0.456C0.22,-0.463 0.235,-0.469 0.251,-0.474C0.266,-0.478 0.282,-0.48 0.297,-0.48C0.357,-0.48 0.401,-0.464 0.43,-0.433C0.459,-0.401 0.473,-0.356 0.473,-0.297L0.473,-0L0.407,-0L0.407,-0.259C0.407,-0.311 0.398,-0.351 0.38,-0.379C0.362,-0.406 0.329,-0.42 0.28,-0.42C0.277,-0.42 0.267,-0.419 0.252,-0.416C0.237,-0.413 0.221,-0.406 0.204,-0.394C0.187,-0.382 0.171,-0.364 0.158,-0.34C0.145,-0.316 0.138,-0.283 0.138,-0.24L0.138,-0L0.072,-0L0.072,-0.756Z" style="fill-rule:nonzero;"/>
            </g>
        </g>
        <g transform="matrix(0.732812,0,0,0.732812,-495.475,-160.856)">
            <g transform="matrix(130.397,0,0,130.397,894.797,835.373)">
                <path d="M0.246,-0.081L0.389,-0.468L0.469,-0.468L0.235,0.122C0.221,0.158 0.203,0.187 0.182,0.208C0.16,0.229 0.129,0.24 0.088,0.24C0.078,0.24 0.068,0.24 0.058,0.239C0.047,0.238 0.037,0.236 0.027,0.233L0.034,0.169C0.048,0.176 0.065,0.18 0.084,0.18C0.107,0.18 0.126,0.173 0.139,0.158C0.152,0.143 0.164,0.123 0.174,0.096L0.208,0.006L0.016,-0.468L0.099,-0.468L0.246,-0.081Z" style="fill-rule:nonzero;"/>
            </g>
        </g>
        <g transform="matrix(0.732812,0,0,0.732812,-483.116,-130.263)">
            <path d="M1031.24,1439.95C1062.77,1391.88 1101.1,1351.3 1141.97,1311.02C1190.07,1263.62 1240.45,1218.14 1296.93,1180.85C1437.58,1087.98 1608.23,1032.61 1772.91,1001.61" style="fill:none;stroke:rgb(57,186,38);stroke-width:23.36px;"/>
        </g>
        <g transform="matrix(1.07971,-1.11022e-16,1.11022e-16,1.07971,-21.616,-73.7402)">
            <path d="M271.166,925.051L796.907,285.289" style="fill:none;stroke:rgb(38,53,186);stroke-width:15.86px;"/>
        </g>
        <path d="M838.816,234.29L784.393,253.605" style="fill:none;stroke:rgb(43,54,213);stroke-width:16.82px;"/>
        <path d="M838.816,234.29L848.748,290.699" style="fill:none;stroke:rgb(43,54,213);stroke-width:16.82px;"/>
        <g transform="matrix(1.01498,0,0,1.01498,-25.9779,-13.5731)">
            <path d="M841.35,906.375L841.35,949.199" style="fill:none;stroke:black;stroke-width:16.87px;"/>
        </g>
        <g transform="matrix(1,0,0,1,-45.177,-229.245)">
            <g transform="matrix(90.1968,0,0,90.1968,473.459,460.167)">
                <path d="M0.168,-0.066L0.547,-0.066L0.547,-0L0.096,-0L0.096,-0.708L0.535,-0.708L0.535,-0.642L0.168,-0.642L0.168,-0.401L0.511,-0.401L0.511,-0.335L0.168,-0.335L0.168,-0.066Z" style="fill:rgb(0,11,255);fill-rule:nonzero;"/>
            </g>
            <g transform="matrix(90.1968,0,0,90.1968,526.946,460.167)">
                <path d="M0.41,-0C0.409,-0.013 0.408,-0.025 0.408,-0.038C0.407,-0.05 0.407,-0.062 0.407,-0.075L0.405,-0.075C0.398,-0.062 0.388,-0.051 0.377,-0.04C0.366,-0.029 0.353,-0.02 0.339,-0.013C0.325,-0.005 0.31,0.001 0.295,0.006C0.279,0.01 0.263,0.012 0.248,0.012C0.188,0.012 0.144,-0.004 0.115,-0.036C0.086,-0.067 0.072,-0.112 0.072,-0.171L0.072,-0.468L0.138,-0.468L0.138,-0.209C0.138,-0.183 0.14,-0.16 0.144,-0.14C0.148,-0.12 0.155,-0.103 0.165,-0.09C0.174,-0.076 0.187,-0.066 0.204,-0.059C0.22,-0.051 0.24,-0.048 0.265,-0.048C0.268,-0.048 0.278,-0.049 0.293,-0.052C0.308,-0.055 0.325,-0.062 0.342,-0.074C0.359,-0.086 0.374,-0.104 0.387,-0.128C0.4,-0.152 0.407,-0.185 0.407,-0.228L0.407,-0.468L0.473,-0.468L0.473,-0.103C0.473,-0.09 0.474,-0.074 0.475,-0.055C0.476,-0.036 0.477,-0.017 0.478,-0L0.41,-0Z" style="fill:rgb(0,11,255);fill-rule:nonzero;"/>
            </g>
            <g transform="matrix(90.1968,0,0,90.1968,577.095,460.167)">
                <rect x="0.087" y="-0.756" width="0.066" height="0.756" style="fill:rgb(0,11,255);fill-rule:nonzero;"/>
            </g>
            <g transform="matrix(90.1968,0,0,90.1968,598.743,460.167)">
                <path d="M0.436,-0.27C0.436,-0.315 0.423,-0.351 0.396,-0.379C0.369,-0.406 0.332,-0.42 0.284,-0.42C0.263,-0.42 0.242,-0.416 0.222,-0.408C0.202,-0.399 0.185,-0.388 0.17,-0.374C0.155,-0.36 0.142,-0.344 0.134,-0.326C0.125,-0.308 0.12,-0.289 0.12,-0.27L0.436,-0.27ZM0.118,-0.216C0.12,-0.193 0.126,-0.171 0.135,-0.15C0.144,-0.129 0.157,-0.112 0.172,-0.097C0.187,-0.082 0.205,-0.07 0.225,-0.061C0.245,-0.052 0.267,-0.048 0.29,-0.048C0.325,-0.048 0.356,-0.056 0.382,-0.073C0.407,-0.089 0.427,-0.108 0.44,-0.129L0.491,-0.087C0.463,-0.052 0.432,-0.026 0.399,-0.011C0.365,0.004 0.329,0.012 0.29,0.012C0.255,0.012 0.223,0.006 0.194,-0.007C0.164,-0.019 0.138,-0.036 0.117,-0.058C0.096,-0.08 0.079,-0.106 0.067,-0.136C0.054,-0.166 0.048,-0.199 0.048,-0.234C0.048,-0.269 0.054,-0.302 0.066,-0.332C0.078,-0.362 0.095,-0.388 0.116,-0.41C0.137,-0.432 0.162,-0.449 0.191,-0.462C0.22,-0.474 0.251,-0.48 0.284,-0.48C0.319,-0.48 0.351,-0.474 0.379,-0.461C0.407,-0.448 0.431,-0.432 0.45,-0.411C0.468,-0.39 0.483,-0.365 0.493,-0.337C0.503,-0.308 0.508,-0.278 0.508,-0.246L0.508,-0.216L0.118,-0.216Z" style="fill:rgb(0,11,255);fill-rule:nonzero;"/>
            </g>
            <g transform="matrix(90.1968,0,0,90.1968,648.892,460.167)">
                <path d="M0.079,-0.322C0.079,-0.343 0.079,-0.364 0.078,-0.385C0.077,-0.406 0.076,-0.434 0.075,-0.468L0.14,-0.468L0.14,-0.381L0.142,-0.381C0.147,-0.394 0.153,-0.406 0.162,-0.418C0.171,-0.429 0.181,-0.44 0.194,-0.449C0.206,-0.458 0.22,-0.466 0.237,-0.472C0.253,-0.477 0.271,-0.48 0.292,-0.48C0.311,-0.48 0.327,-0.478 0.341,-0.474L0.328,-0.409C0.319,-0.412 0.307,-0.414 0.29,-0.414C0.265,-0.414 0.243,-0.409 0.225,-0.4C0.207,-0.39 0.192,-0.378 0.18,-0.363C0.168,-0.347 0.159,-0.331 0.154,-0.314C0.148,-0.297 0.145,-0.28 0.145,-0.264L0.145,-0L0.079,-0L0.079,-0.322Z" style="fill:rgb(0,11,255);fill-rule:nonzero;"/>
            </g>
        </g>
        <path d="M838.628,228.379L269.69,314.681" style="fill:none;stroke:rgb(86,43,213);stroke-width:16.82px;"/>
        <path d="M269.69,314.681L304.181,280.19" style="fill:none;stroke:rgb(86,43,213);stroke-width:16.82px;"/>
        <path d="M269.69,314.681L315.584,342.093" style="fill:none;stroke:rgb(86,43,213);stroke-width:16.82px;"/>
        <g transform="matrix(1,0,0,1,-1.33095,47.3206)">
            <path d="M321.29,559.491L406.921,559.491" style="fill:none;stroke:rgb(213,43,58);stroke-width:16.82px;"/>
        </g>
        <g transform="matrix(1,0,0,1,-1.33095,17.5231)">
            <path d="M321.29,559.491L406.921,559.491" style="fill:none;stroke:rgb(213,43,58);stroke-width:16.82px;"/>
        </g>
        <g transform="matrix(1,0,0,1,-1.33095,47.3206)">
            <path d="M390.18,499.378L335.534,591.288" style="fill:none;stroke:rgb(213,43,58);stroke-width:16.82px;"/>
        </g>
        <ellipse cx="272.366" cy="923.313" rx="7.718" ry="9.152" style="fill:rgb(0,30,255);fill-opacity:0;stroke:rgb(213,43,58);stroke-width:16.82px;"/>
        <ellipse cx="269.944" cy="316.571" rx="7.815" ry="8.661" style="fill:rgb(0,30,255);fill-opacity:0;stroke:rgb(213,43,58);stroke-width:16.82px;"/>
    </g>
</svg>
