<?xml version="1.0" encoding="utf-8" standalone="no"?>
<!DOCTYPE svg PUBLIC "-//W3C//DTD SVG 1.1//EN"
  "http://www.w3.org/Graphics/SVG/1.1/DTD/svg11.dtd">
<svg xmlns:xlink="http://www.w3.org/1999/xlink" width="720pt" height="432pt" viewBox="0 0 720 432" xmlns="http://www.w3.org/2000/svg" version="1.1">
 <metadata>
  <rdf:RDF xmlns:dc="http://purl.org/dc/elements/1.1/" xmlns:cc="http://creativecommons.org/ns#" xmlns:rdf="http://www.w3.org/1999/02/22-rdf-syntax-ns#">
   <cc:Work>
    <dc:type rdf:resource="http://purl.org/dc/dcmitype/StillImage"/>
    <dc:date>2023-10-20T16:32:42.494811</dc:date>
    <dc:format>image/svg+xml</dc:format>
    <dc:creator>
     <cc:Agent>
      <dc:title>Matplotlib v3.5.1, https://matplotlib.org/</dc:title>
     </cc:Agent>
    </dc:creator>
   </cc:Work>
  </rdf:RDF>
 </metadata>
 <defs>
  <style type="text/css">*{stroke-linejoin: round; stroke-linecap: butt}</style>
 </defs>
 <g id="figure_1">
  <g id="patch_1">
   <path d="M 0 432 
L 720 432 
L 720 0 
L 0 0 
z
" style="fill: #ffffff"/>
  </g>
  <g id="axes_1">
   <g id="patch_2">
    <path d="M 65.36 376.36 
L 702.72 376.36 
L 702.72 34.8 
L 65.36 34.8 
z
" style="fill: #ffffff"/>
   </g>
   <g id="patch_3">
    <path d="M 141.790142 373.011373 
L 163.465585 373.011373 
L 163.465585 372.448713 
L 141.790142 372.448713 
z
" clip-path="url(#p439d3d40a7)" style="fill: #1f77b4; opacity: 0.5"/>
   </g>
   <g id="patch_4">
    <path d="M 163.465585 373.011373 
L 185.141027 373.011373 
L 185.141027 372.636266 
L 163.465585 372.636266 
z
" clip-path="url(#p439d3d40a7)" style="fill: #1f77b4; opacity: 0.5"/>
   </g>
   <g id="patch_5">
    <path d="M 185.141027 373.011373 
L 206.81647 373.011373 
L 206.81647 369.447863 
L 185.141027 369.447863 
z
" clip-path="url(#p439d3d40a7)" style="fill: #1f77b4; opacity: 0.5"/>
   </g>
   <g id="patch_6">
    <path d="M 206.81647 373.011373 
L 228.491912 373.011373 
L 228.491912 366.259459 
L 206.81647 366.259459 
z
" clip-path="url(#p439d3d40a7)" style="fill: #1f77b4; opacity: 0.5"/>
   </g>
   <g id="patch_7">
    <path d="M 228.491912 373.011373 
L 250.167355 373.011373 
L 250.167355 360.632865 
L 228.491912 360.632865 
z
" clip-path="url(#p439d3d40a7)" style="fill: #1f77b4; opacity: 0.5"/>
   </g>
   <g id="patch_8">
    <path d="M 250.167355 373.011373 
L 271.842798 373.011373 
L 271.842798 346.566379 
L 250.167355 346.566379 
z
" clip-path="url(#p439d3d40a7)" style="fill: #1f77b4; opacity: 0.5"/>
   </g>
   <g id="patch_9">
    <path d="M 271.842798 373.011373 
L 293.51824 373.011373 
L 293.51824 319.371172 
L 271.842798 319.371172 
z
" clip-path="url(#p439d3d40a7)" style="fill: #1f77b4; opacity: 0.5"/>
   </g>
   <g id="patch_10">
    <path d="M 293.51824 373.011373 
L 315.193683 373.011373 
L 315.193683 294.80171 
L 293.51824 294.80171 
z
" clip-path="url(#p439d3d40a7)" style="fill: #1f77b4; opacity: 0.5"/>
   </g>
   <g id="patch_11">
    <path d="M 315.193683 373.011373 
L 336.869125 373.011373 
L 336.869125 272.482885 
L 315.193683 272.482885 
z
" clip-path="url(#p439d3d40a7)" style="fill: #1f77b4; opacity: 0.5"/>
   </g>
   <g id="patch_12">
    <path d="M 336.869125 373.011373 
L 358.544568 373.011373 
L 358.544568 253.72757 
L 336.869125 253.72757 
z
" clip-path="url(#p439d3d40a7)" style="fill: #1f77b4; opacity: 0.5"/>
   </g>
   <g id="patch_13">
    <path d="M 358.544568 373.011373 
L 380.220011 373.011373 
L 380.220011 238.348212 
L 358.544568 238.348212 
z
" clip-path="url(#p439d3d40a7)" style="fill: #1f77b4; opacity: 0.5"/>
   </g>
   <g id="patch_14">
    <path d="M 380.220011 373.011373 
L 401.895453 373.011373 
L 401.895453 239.285977 
L 380.220011 239.285977 
z
" clip-path="url(#p439d3d40a7)" style="fill: #1f77b4; opacity: 0.5"/>
   </g>
   <g id="patch_15">
    <path d="M 401.895453 373.011373 
L 423.570896 373.011373 
L 423.570896 275.858841 
L 401.895453 275.858841 
z
" clip-path="url(#p439d3d40a7)" style="fill: #1f77b4; opacity: 0.5"/>
   </g>
   <g id="patch_16">
    <path d="M 423.570896 373.011373 
L 445.246338 373.011373 
L 445.246338 299.678091 
L 423.570896 299.678091 
z
" clip-path="url(#p439d3d40a7)" style="fill: #1f77b4; opacity: 0.5"/>
   </g>
   <g id="patch_17">
    <path d="M 445.246338 373.011373 
L 466.921781 373.011373 
L 466.921781 326.873298 
L 445.246338 326.873298 
z
" clip-path="url(#p439d3d40a7)" style="fill: #1f77b4; opacity: 0.5"/>
   </g>
   <g id="patch_18">
    <path d="M 466.921781 373.011373 
L 488.597224 373.011373 
L 488.597224 344.503294 
L 466.921781 344.503294 
z
" clip-path="url(#p439d3d40a7)" style="fill: #1f77b4; opacity: 0.5"/>
   </g>
   <g id="patch_19">
    <path d="M 488.597224 373.011373 
L 510.272666 373.011373 
L 510.272666 359.13244 
L 488.597224 359.13244 
z
" clip-path="url(#p439d3d40a7)" style="fill: #1f77b4; opacity: 0.5"/>
   </g>
   <g id="patch_20">
    <path d="M 510.272666 373.011373 
L 531.948109 373.011373 
L 531.948109 367.384778 
L 510.272666 367.384778 
z
" clip-path="url(#p439d3d40a7)" style="fill: #1f77b4; opacity: 0.5"/>
   </g>
   <g id="patch_21">
    <path d="M 531.948109 373.011373 
L 553.623551 373.011373 
L 553.623551 370.760735 
L 531.948109 370.760735 
z
" clip-path="url(#p439d3d40a7)" style="fill: #1f77b4; opacity: 0.5"/>
   </g>
   <g id="patch_22">
    <path d="M 553.623551 373.011373 
L 575.298994 373.011373 
L 575.298994 372.26116 
L 553.623551 372.26116 
z
" clip-path="url(#p439d3d40a7)" style="fill: #1f77b4; opacity: 0.5"/>
   </g>
   <g id="patch_23">
    <path d="M 65.36 380.953591 
L 124.629472 380.953591 
L 124.629472 365.007746 
L 65.36 365.007746 
z
" clip-path="url(#p439d3d40a7)" style="fill: #ffa500; opacity: 0.5"/>
   </g>
   <g id="patch_24">
    <path d="M 65.36 364.217613 
L 127.787272 364.217613 
L 127.787272 348.271768 
L 65.36 348.271768 
z
" clip-path="url(#p439d3d40a7)" style="fill: #ffa500; opacity: 0.5"/>
   </g>
   <g id="patch_25">
    <path d="M 65.36 347.481635 
L 132.15961 347.481635 
L 132.15961 331.53579 
L 65.36 331.53579 
z
" clip-path="url(#p439d3d40a7)" style="fill: #ffa500; opacity: 0.5"/>
   </g>
   <g id="patch_26">
    <path d="M 65.36 330.745657 
L 124.629472 330.745657 
L 124.629472 314.799812 
L 65.36 314.799812 
z
" clip-path="url(#p439d3d40a7)" style="fill: #ffa500; opacity: 0.5"/>
   </g>
   <g id="patch_27">
    <path d="M 65.36 314.009679 
L 126.815641 314.009679 
L 126.815641 298.063834 
L 65.36 298.063834 
z
" clip-path="url(#p439d3d40a7)" style="fill: #ffa500; opacity: 0.5"/>
   </g>
   <g id="patch_28">
    <path d="M 65.36 297.273701 
L 123.657842 297.273701 
L 123.657842 281.327856 
L 65.36 281.327856 
z
" clip-path="url(#p439d3d40a7)" style="fill: #ffa500; opacity: 0.5"/>
   </g>
   <g id="patch_29">
    <path d="M 65.36 280.537723 
L 124.386565 280.537723 
L 124.386565 264.591878 
L 65.36 264.591878 
z
" clip-path="url(#p439d3d40a7)" style="fill: #ffa500; opacity: 0.5"/>
   </g>
   <g id="patch_30">
    <path d="M 65.36 263.801744 
L 120.74295 263.801744 
L 120.74295 247.855899 
L 65.36 247.855899 
z
" clip-path="url(#p439d3d40a7)" style="fill: #ffa500; opacity: 0.5"/>
   </g>
   <g id="patch_31">
    <path d="M 65.36 247.065766 
L 124.143657 247.065766 
L 124.143657 231.119921 
L 65.36 231.119921 
z
" clip-path="url(#p439d3d40a7)" style="fill: #ffa500; opacity: 0.5"/>
   </g>
   <g id="patch_32">
    <path d="M 65.36 230.329788 
L 126.815641 230.329788 
L 126.815641 214.383943 
L 65.36 214.383943 
z
" clip-path="url(#p439d3d40a7)" style="fill: #ffa500; opacity: 0.5"/>
   </g>
   <g id="patch_33">
    <path d="M 65.36 213.59381 
L 129.973441 213.59381 
L 129.973441 197.647965 
L 65.36 197.647965 
z
" clip-path="url(#p439d3d40a7)" style="fill: #ffa500; opacity: 0.5"/>
   </g>
   <g id="patch_34">
    <path d="M 65.36 196.857832 
L 128.515995 196.857832 
L 128.515995 180.911987 
L 65.36 180.911987 
z
" clip-path="url(#p439d3d40a7)" style="fill: #ffa500; opacity: 0.5"/>
   </g>
   <g id="patch_35">
    <path d="M 65.36 180.121854 
L 132.402518 180.121854 
L 132.402518 164.176009 
L 65.36 164.176009 
z
" clip-path="url(#p439d3d40a7)" style="fill: #ffa500; opacity: 0.5"/>
   </g>
   <g id="patch_36">
    <path d="M 65.36 163.385876 
L 127.301457 163.385876 
L 127.301457 147.440031 
L 65.36 147.440031 
z
" clip-path="url(#p439d3d40a7)" style="fill: #ffa500; opacity: 0.5"/>
   </g>
   <g id="patch_37">
    <path d="M 65.36 146.649898 
L 123.172026 146.649898 
L 123.172026 130.704053 
L 65.36 130.704053 
z
" clip-path="url(#p439d3d40a7)" style="fill: #ffa500; opacity: 0.5"/>
   </g>
   <g id="patch_38">
    <path d="M 65.36 129.913919 
L 124.629472 129.913919 
L 124.629472 113.968074 
L 65.36 113.968074 
z
" clip-path="url(#p439d3d40a7)" style="fill: #ffa500; opacity: 0.5"/>
   </g>
   <g id="patch_39">
    <path d="M 65.36 113.177941 
L 124.143657 113.177941 
L 124.143657 97.232096 
L 65.36 97.232096 
z
" clip-path="url(#p439d3d40a7)" style="fill: #ffa500; opacity: 0.5"/>
   </g>
   <g id="patch_40">
    <path d="M 65.36 96.441963 
L 122.686211 96.441963 
L 122.686211 80.496118 
L 65.36 80.496118 
z
" clip-path="url(#p439d3d40a7)" style="fill: #ffa500; opacity: 0.5"/>
   </g>
   <g id="patch_41">
    <path d="M 65.36 79.705985 
L 127.787272 79.705985 
L 127.787272 63.76014 
L 65.36 63.76014 
z
" clip-path="url(#p439d3d40a7)" style="fill: #ffa500; opacity: 0.5"/>
   </g>
   <g id="patch_42">
    <path d="M 65.36 62.970007 
L 125.358195 62.970007 
L 125.358195 47.024162 
L 65.36 47.024162 
z
" clip-path="url(#p439d3d40a7)" style="fill: #ffa500; opacity: 0.5"/>
   </g>
   <g id="matplotlib.axis_1">
    <g id="xtick_1">
     <g id="line2d_1">
      <defs>
       <path id="m5d477a6be2" d="M 0 0 
L 0 3.5 
" style="stroke: #000000; stroke-width: 0.8"/>
      </defs>
      <g>
       <use xlink:href="#m5d477a6be2" x="126.060952" y="376.36" style="stroke: #000000; stroke-width: 0.8"/>
      </g>
     </g>
     <g id="text_1">
      <!-- −4 -->
      <g transform="translate(116.478531 393.237969)scale(0.13 -0.13)">
       <defs>
        <path id="DejaVuSans-2212" d="M 678 2272 
L 4684 2272 
L 4684 1741 
L 678 1741 
L 678 2272 
z
" transform="scale(0.015625)"/>
        <path id="DejaVuSans-34" d="M 2419 4116 
L 825 1625 
L 2419 1625 
L 2419 4116 
z
M 2253 4666 
L 3047 4666 
L 3047 1625 
L 3713 1625 
L 3713 1100 
L 3047 1100 
L 3047 0 
L 2419 0 
L 2419 1100 
L 313 1100 
L 313 1709 
L 2253 4666 
z
" transform="scale(0.015625)"/>
       </defs>
       <use xlink:href="#DejaVuSans-2212"/>
       <use xlink:href="#DejaVuSans-34" x="83.789062"/>
      </g>
     </g>
    </g>
    <g id="xtick_2">
     <g id="line2d_2">
      <g>
       <use xlink:href="#m5d477a6be2" x="247.462857" y="376.36" style="stroke: #000000; stroke-width: 0.8"/>
      </g>
     </g>
     <g id="text_2">
      <!-- −2 -->
      <g transform="translate(237.880435 393.237969)scale(0.13 -0.13)">
       <defs>
        <path id="DejaVuSans-32" d="M 1228 531 
L 3431 531 
L 3431 0 
L 469 0 
L 469 531 
Q 828 903 1448 1529 
Q 2069 2156 2228 2338 
Q 2531 2678 2651 2914 
Q 2772 3150 2772 3378 
Q 2772 3750 2511 3984 
Q 2250 4219 1831 4219 
Q 1534 4219 1204 4116 
Q 875 4013 500 3803 
L 500 4441 
Q 881 4594 1212 4672 
Q 1544 4750 1819 4750 
Q 2544 4750 2975 4387 
Q 3406 4025 3406 3419 
Q 3406 3131 3298 2873 
Q 3191 2616 2906 2266 
Q 2828 2175 2409 1742 
Q 1991 1309 1228 531 
z
" transform="scale(0.015625)"/>
       </defs>
       <use xlink:href="#DejaVuSans-2212"/>
       <use xlink:href="#DejaVuSans-32" x="83.789062"/>
      </g>
     </g>
    </g>
    <g id="xtick_3">
     <g id="line2d_3">
      <g>
       <use xlink:href="#m5d477a6be2" x="368.864762" y="376.36" style="stroke: #000000; stroke-width: 0.8"/>
      </g>
     </g>
     <g id="text_3">
      <!-- 0 -->
      <g transform="translate(364.729137 393.237969)scale(0.13 -0.13)">
       <defs>
        <path id="DejaVuSans-30" d="M 2034 4250 
Q 1547 4250 1301 3770 
Q 1056 3291 1056 2328 
Q 1056 1369 1301 889 
Q 1547 409 2034 409 
Q 2525 409 2770 889 
Q 3016 1369 3016 2328 
Q 3016 3291 2770 3770 
Q 2525 4250 2034 4250 
z
M 2034 4750 
Q 2819 4750 3233 4129 
Q 3647 3509 3647 2328 
Q 3647 1150 3233 529 
Q 2819 -91 2034 -91 
Q 1250 -91 836 529 
Q 422 1150 422 2328 
Q 422 3509 836 4129 
Q 1250 4750 2034 4750 
z
" transform="scale(0.015625)"/>
       </defs>
       <use xlink:href="#DejaVuSans-30"/>
      </g>
     </g>
    </g>
    <g id="xtick_4">
     <g id="line2d_4">
      <g>
       <use xlink:href="#m5d477a6be2" x="490.266667" y="376.36" style="stroke: #000000; stroke-width: 0.8"/>
      </g>
     </g>
     <g id="text_4">
      <!-- 2 -->
      <g transform="translate(486.131042 393.237969)scale(0.13 -0.13)">
       <use xlink:href="#DejaVuSans-32"/>
      </g>
     </g>
    </g>
    <g id="xtick_5">
     <g id="line2d_5">
      <g>
       <use xlink:href="#m5d477a6be2" x="611.668571" y="376.36" style="stroke: #000000; stroke-width: 0.8"/>
      </g>
     </g>
     <g id="text_5">
      <!-- 4 -->
      <g transform="translate(607.532946 393.237969)scale(0.13 -0.13)">
       <use xlink:href="#DejaVuSans-34"/>
      </g>
     </g>
    </g>
    <g id="text_6">
     <!-- $x$ -->
     <g transform="translate(379.24 412.099063)scale(0.16 -0.16)">
      <defs>
       <path id="DejaVuSans-Oblique-78" d="M 3841 3500 
L 2234 1784 
L 3219 0 
L 2559 0 
L 1819 1388 
L 531 0 
L -166 0 
L 1556 1844 
L 641 3500 
L 1300 3500 
L 1972 2234 
L 3144 3500 
L 3841 3500 
z
" transform="scale(0.015625)"/>
      </defs>
      <use xlink:href="#DejaVuSans-Oblique-78" transform="translate(0 0.3125)"/>
     </g>
    </g>
   </g>
   <g id="matplotlib.axis_2">
    <g id="ytick_1">
     <g id="line2d_6">
      <defs>
       <path id="m514adf4a53" d="M 0 0 
L -3.5 0 
" style="stroke: #000000; stroke-width: 0.8"/>
      </defs>
      <g>
       <use xlink:href="#m514adf4a53" x="65.36" y="373.011373" style="stroke: #000000; stroke-width: 0.8"/>
      </g>
     </g>
     <g id="text_7">
      <!-- 0.0 -->
      <g transform="translate(37.685938 377.950357)scale(0.13 -0.13)">
       <defs>
        <path id="DejaVuSans-2e" d="M 684 794 
L 1344 794 
L 1344 0 
L 684 0 
L 684 794 
z
" transform="scale(0.015625)"/>
       </defs>
       <use xlink:href="#DejaVuSans-30"/>
       <use xlink:href="#DejaVuSans-2e" x="63.623047"/>
       <use xlink:href="#DejaVuSans-30" x="95.410156"/>
      </g>
     </g>
    </g>
    <g id="ytick_2">
     <g id="line2d_7">
      <g>
       <use xlink:href="#m514adf4a53" x="65.36" y="306.038824" style="stroke: #000000; stroke-width: 0.8"/>
      </g>
     </g>
     <g id="text_8">
      <!-- 0.2 -->
      <g transform="translate(37.685938 310.977808)scale(0.13 -0.13)">
       <use xlink:href="#DejaVuSans-30"/>
       <use xlink:href="#DejaVuSans-2e" x="63.623047"/>
       <use xlink:href="#DejaVuSans-32" x="95.410156"/>
      </g>
     </g>
    </g>
    <g id="ytick_3">
     <g id="line2d_8">
      <g>
       <use xlink:href="#m514adf4a53" x="65.36" y="239.066275" style="stroke: #000000; stroke-width: 0.8"/>
      </g>
     </g>
     <g id="text_9">
      <!-- 0.4 -->
      <g transform="translate(37.685938 244.005259)scale(0.13 -0.13)">
       <use xlink:href="#DejaVuSans-30"/>
       <use xlink:href="#DejaVuSans-2e" x="63.623047"/>
       <use xlink:href="#DejaVuSans-34" x="95.410156"/>
      </g>
     </g>
    </g>
    <g id="ytick_4">
     <g id="line2d_9">
      <g>
       <use xlink:href="#m514adf4a53" x="65.36" y="172.093725" style="stroke: #000000; stroke-width: 0.8"/>
      </g>
     </g>
     <g id="text_10">
      <!-- 0.6 -->
      <g transform="translate(37.685938 177.03271)scale(0.13 -0.13)">
       <defs>
        <path id="DejaVuSans-36" d="M 2113 2584 
Q 1688 2584 1439 2293 
Q 1191 2003 1191 1497 
Q 1191 994 1439 701 
Q 1688 409 2113 409 
Q 2538 409 2786 701 
Q 3034 994 3034 1497 
Q 3034 2003 2786 2293 
Q 2538 2584 2113 2584 
z
M 3366 4563 
L 3366 3988 
Q 3128 4100 2886 4159 
Q 2644 4219 2406 4219 
Q 1781 4219 1451 3797 
Q 1122 3375 1075 2522 
Q 1259 2794 1537 2939 
Q 1816 3084 2150 3084 
Q 2853 3084 3261 2657 
Q 3669 2231 3669 1497 
Q 3669 778 3244 343 
Q 2819 -91 2113 -91 
Q 1303 -91 875 529 
Q 447 1150 447 2328 
Q 447 3434 972 4092 
Q 1497 4750 2381 4750 
Q 2619 4750 2861 4703 
Q 3103 4656 3366 4563 
z
" transform="scale(0.015625)"/>
       </defs>
       <use xlink:href="#DejaVuSans-30"/>
       <use xlink:href="#DejaVuSans-2e" x="63.623047"/>
       <use xlink:href="#DejaVuSans-36" x="95.410156"/>
      </g>
     </g>
    </g>
    <g id="ytick_5">
     <g id="line2d_10">
      <g>
       <use xlink:href="#m514adf4a53" x="65.36" y="105.121176" style="stroke: #000000; stroke-width: 0.8"/>
      </g>
     </g>
     <g id="text_11">
      <!-- 0.8 -->
      <g transform="translate(37.685938 110.060161)scale(0.13 -0.13)">
       <defs>
        <path id="DejaVuSans-38" d="M 2034 2216 
Q 1584 2216 1326 1975 
Q 1069 1734 1069 1313 
Q 1069 891 1326 650 
Q 1584 409 2034 409 
Q 2484 409 2743 651 
Q 3003 894 3003 1313 
Q 3003 1734 2745 1975 
Q 2488 2216 2034 2216 
z
M 1403 2484 
Q 997 2584 770 2862 
Q 544 3141 544 3541 
Q 544 4100 942 4425 
Q 1341 4750 2034 4750 
Q 2731 4750 3128 4425 
Q 3525 4100 3525 3541 
Q 3525 3141 3298 2862 
Q 3072 2584 2669 2484 
Q 3125 2378 3379 2068 
Q 3634 1759 3634 1313 
Q 3634 634 3220 271 
Q 2806 -91 2034 -91 
Q 1263 -91 848 271 
Q 434 634 434 1313 
Q 434 1759 690 2068 
Q 947 2378 1403 2484 
z
M 1172 3481 
Q 1172 3119 1398 2916 
Q 1625 2713 2034 2713 
Q 2441 2713 2670 2916 
Q 2900 3119 2900 3481 
Q 2900 3844 2670 4047 
Q 2441 4250 2034 4250 
Q 1625 4250 1398 4047 
Q 1172 3844 1172 3481 
z
" transform="scale(0.015625)"/>
       </defs>
       <use xlink:href="#DejaVuSans-30"/>
       <use xlink:href="#DejaVuSans-2e" x="63.623047"/>
       <use xlink:href="#DejaVuSans-38" x="95.410156"/>
      </g>
     </g>
    </g>
    <g id="ytick_6">
     <g id="line2d_11">
      <g>
       <use xlink:href="#m514adf4a53" x="65.36" y="38.148627" style="stroke: #000000; stroke-width: 0.8"/>
      </g>
     </g>
     <g id="text_12">
      <!-- 1.0 -->
      <g transform="translate(37.685938 43.087612)scale(0.13 -0.13)">
       <defs>
        <path id="DejaVuSans-31" d="M 794 531 
L 1825 531 
L 1825 4091 
L 703 3866 
L 703 4441 
L 1819 4666 
L 2450 4666 
L 2450 531 
L 3481 531 
L 3481 0 
L 794 0 
L 794 531 
z
" transform="scale(0.015625)"/>
       </defs>
       <use xlink:href="#DejaVuSans-31"/>
       <use xlink:href="#DejaVuSans-2e" x="63.623047"/>
       <use xlink:href="#DejaVuSans-30" x="95.410156"/>
      </g>
     </g>
    </g>
    <g id="text_13">
     <!-- $\Phi(x)$ -->
     <g transform="translate(30.358438 222.86)rotate(-90)scale(0.16 -0.16)">
      <defs>
       <path id="DejaVuSans-3a6" d="M 2206 3644 
Q 1738 3578 1431 3306 
Q 1025 2947 1025 2328 
Q 1025 1713 1431 1353 
Q 1738 1081 2206 1016 
L 2206 3644 
z
M 2838 1016 
Q 3306 1081 3613 1353 
Q 4013 1713 4013 2328 
Q 4013 2947 3613 3306 
Q 3306 3578 2838 3644 
L 2838 1016 
z
M 2206 494 
Q 1444 563 950 981 
Q 359 1481 359 2328 
Q 359 3175 950 3678 
Q 1441 4100 2206 4169 
L 2206 4666 
L 2838 4666 
L 2838 4169 
Q 3600 4097 4091 3678 
Q 4678 3175 4678 2328 
Q 4678 1484 4091 981 
Q 3600 563 2838 491 
L 2838 0 
L 2206 0 
L 2206 494 
z
" transform="scale(0.015625)"/>
       <path id="DejaVuSans-28" d="M 1984 4856 
Q 1566 4138 1362 3434 
Q 1159 2731 1159 2009 
Q 1159 1288 1364 580 
Q 1569 -128 1984 -844 
L 1484 -844 
Q 1016 -109 783 600 
Q 550 1309 550 2009 
Q 550 2706 781 3412 
Q 1013 4119 1484 4856 
L 1984 4856 
z
" transform="scale(0.015625)"/>
       <path id="DejaVuSans-29" d="M 513 4856 
L 1013 4856 
Q 1481 4119 1714 3412 
Q 1947 2706 1947 2009 
Q 1947 1309 1714 600 
Q 1481 -109 1013 -844 
L 513 -844 
Q 928 -128 1133 580 
Q 1338 1288 1338 2009 
Q 1338 2731 1133 3434 
Q 928 4138 513 4856 
z
" transform="scale(0.015625)"/>
      </defs>
      <use xlink:href="#DejaVuSans-3a6" transform="translate(0 0.125)"/>
      <use xlink:href="#DejaVuSans-28" transform="translate(78.710938 0.125)"/>
      <use xlink:href="#DejaVuSans-Oblique-78" transform="translate(117.724609 0.125)"/>
      <use xlink:href="#DejaVuSans-29" transform="translate(176.904297 0.125)"/>
     </g>
    </g>
   </g>
   <g id="line2d_12">
    <path d="M 65.36 373.011277 
L 162.309116 372.899714 
L 182.524555 372.652739 
L 195.940807 372.276574 
L 206.321708 371.770462 
L 214.942105 371.132698 
L 222.348362 370.367687 
L 228.965427 369.464896 
L 234.975422 368.423155 
L 240.499762 367.242601 
L 245.659859 365.914502 
L 250.51642 364.436796 
L 255.130154 362.802491 
L 259.561767 360.997616 
L 263.811258 359.029163 
L 267.939336 356.874461 
L 272.006707 354.499353 
L 275.952663 351.93927 
L 279.89862 349.111448 
L 283.783869 346.051116 
L 287.669119 342.70364 
L 291.554368 339.057042 
L 295.439617 335.100829 
L 299.324867 330.826256 
L 303.270823 326.152104 
L 307.277487 321.058114 
L 311.344858 315.526189 
L 315.533642 309.450274 
L 319.843841 302.802046 
L 324.33616 295.455687 
L 329.010601 287.376883 
L 333.92787 278.427 
L 339.209381 268.339787 
L 344.915841 256.950824 
L 351.350786 243.596641 
L 359.121285 226.931756 
L 371.991174 198.702421 
L 383.404094 173.885128 
L 390.749644 158.439078 
L 396.94176 145.922467 
L 402.526806 135.124672 
L 407.686903 125.624173 
L 412.543465 117.140837 
L 417.157199 109.520679 
L 421.588811 102.621953 
L 425.89901 96.318619 
L 430.087795 90.582457 
L 434.155165 85.381487 
L 438.161829 80.61164 
L 442.107785 76.252369 
L 446.053742 72.221853 
L 449.938991 68.56573 
L 453.824241 65.20908 
L 457.770197 62.094227 
L 461.716154 59.262168 
L 465.722817 56.660647 
L 469.790188 54.285539 
L 473.918265 52.130837 
L 478.167757 50.162384 
L 482.538663 48.380624 
L 487.091689 46.763222 
L 491.887544 45.296746 
L 496.926227 43.989179 
L 502.329152 42.819602 
L 508.157026 41.790031 
L 514.470557 40.903141 
L 521.512571 40.143008 
L 529.465191 39.513302 
L 538.753366 39.007485 
L 550.044872 38.623739 
L 564.796679 38.357475 
L 586.833328 38.203811 
L 633.941978 38.150737 
L 672.369524 38.148723 
L 672.369524 38.148723 
" clip-path="url(#p439d3d40a7)" style="fill: none; stroke: #ffa500; stroke-width: 4; stroke-linecap: square"/>
   </g>
   <g id="line2d_13">
    <path d="M 442.593441 389.754404 
L 442.593441 75.738729 
" clip-path="url(#p439d3d40a7)" style="fill: none; stroke: #0000ff; stroke-width: 0.5; stroke-linecap: square"/>
   </g>
   <g id="line2d_14">
    <path d="M 35.009524 75.738729 
L 442.593441 75.738729 
" clip-path="url(#p439d3d40a7)" style="fill: none; stroke: #0000ff; stroke-width: 0.5; stroke-linecap: square"/>
   </g>
   <g id="line2d_15">
    <path d="M 391.478128 389.754404 
L 391.478128 156.939994 
" clip-path="url(#p439d3d40a7)" style="fill: none; stroke: #0000ff; stroke-width: 0.5; stroke-linecap: square"/>
   </g>
   <g id="line2d_16">
    <path d="M 35.009524 156.939994 
L 391.478128 156.939994 
" clip-path="url(#p439d3d40a7)" style="fill: none; stroke: #0000ff; stroke-width: 0.5; stroke-linecap: square"/>
   </g>
   <g id="line2d_17">
    <path d="M 359.728355 389.754404 
L 359.728355 225.611778 
" clip-path="url(#p439d3d40a7)" style="fill: none; stroke: #0000ff; stroke-width: 0.5; stroke-linecap: square"/>
   </g>
   <g id="line2d_18">
    <path d="M 35.009524 225.611778 
L 359.728355 225.611778 
" clip-path="url(#p439d3d40a7)" style="fill: none; stroke: #0000ff; stroke-width: 0.5; stroke-linecap: square"/>
   </g>
   <g id="line2d_19">
    <path d="M 391.174593 389.754404 
L 391.174593 157.56381 
" clip-path="url(#p439d3d40a7)" style="fill: none; stroke: #0000ff; stroke-width: 0.5; stroke-linecap: square"/>
   </g>
   <g id="line2d_20">
    <path d="M 35.009524 157.56381 
L 391.174593 157.56381 
" clip-path="url(#p439d3d40a7)" style="fill: none; stroke: #0000ff; stroke-width: 0.5; stroke-linecap: square"/>
   </g>
   <g id="line2d_21">
    <path d="M 332.774437 389.754404 
L 332.774437 280.566151 
" clip-path="url(#p439d3d40a7)" style="fill: none; stroke: #0000ff; stroke-width: 0.5; stroke-linecap: square"/>
   </g>
   <g id="line2d_22">
    <path d="M 35.009524 280.566151 
L 332.774437 280.566151 
" clip-path="url(#p439d3d40a7)" style="fill: none; stroke: #0000ff; stroke-width: 0.5; stroke-linecap: square"/>
   </g>
   <g id="line2d_23">
    <path d="M 343.458873 389.754404 
L 343.458873 259.902943 
" clip-path="url(#p439d3d40a7)" style="fill: none; stroke: #0000ff; stroke-width: 0.5; stroke-linecap: square"/>
   </g>
   <g id="line2d_24">
    <path d="M 35.009524 259.902943 
L 343.458873 259.902943 
" clip-path="url(#p439d3d40a7)" style="fill: none; stroke: #0000ff; stroke-width: 0.5; stroke-linecap: square"/>
   </g>
   <g id="line2d_25">
    <path d="M 374.965818 389.754404 
L 374.965818 192.175344 
" clip-path="url(#p439d3d40a7)" style="fill: none; stroke: #0000ff; stroke-width: 0.5; stroke-linecap: square"/>
   </g>
   <g id="line2d_26">
    <path d="M 35.009524 192.175344 
L 374.965818 192.175344 
" clip-path="url(#p439d3d40a7)" style="fill: none; stroke: #0000ff; stroke-width: 0.5; stroke-linecap: square"/>
   </g>
   <g id="line2d_27">
    <path d="M 439.497383 389.754404 
L 439.497383 79.098912 
" clip-path="url(#p439d3d40a7)" style="fill: none; stroke: #0000ff; stroke-width: 0.5; stroke-linecap: square"/>
   </g>
   <g id="line2d_28">
    <path d="M 35.009524 79.098912 
L 439.497383 79.098912 
" clip-path="url(#p439d3d40a7)" style="fill: none; stroke: #0000ff; stroke-width: 0.5; stroke-linecap: square"/>
   </g>
   <g id="line2d_29">
    <path d="M 449.635456 389.754404 
L 449.635456 68.840435 
" clip-path="url(#p439d3d40a7)" style="fill: none; stroke: #0000ff; stroke-width: 0.5; stroke-linecap: square"/>
   </g>
   <g id="line2d_30">
    <path d="M 35.009524 68.840435 
L 449.635456 68.840435 
" clip-path="url(#p439d3d40a7)" style="fill: none; stroke: #0000ff; stroke-width: 0.5; stroke-linecap: square"/>
   </g>
   <g id="line2d_31">
    <path d="M 360.760374 389.754404 
L 360.760374 223.36332 
" clip-path="url(#p439d3d40a7)" style="fill: none; stroke: #0000ff; stroke-width: 0.5; stroke-linecap: square"/>
   </g>
   <g id="line2d_32">
    <path d="M 35.009524 223.36332 
L 360.760374 223.36332 
" clip-path="url(#p439d3d40a7)" style="fill: none; stroke: #0000ff; stroke-width: 0.5; stroke-linecap: square"/>
   </g>
   <g id="line2d_33">
    <path d="M 387.835707 389.754404 
L 387.835707 164.498505 
" clip-path="url(#p439d3d40a7)" style="fill: none; stroke: #0000ff; stroke-width: 0.5; stroke-linecap: square"/>
   </g>
   <g id="line2d_34">
    <path d="M 35.009524 164.498505 
L 387.835707 164.498505 
" clip-path="url(#p439d3d40a7)" style="fill: none; stroke: #0000ff; stroke-width: 0.5; stroke-linecap: square"/>
   </g>
   <g id="line2d_35">
    <path d="M 444.414652 389.754404 
L 444.414652 73.856687 
" clip-path="url(#p439d3d40a7)" style="fill: none; stroke: #0000ff; stroke-width: 0.5; stroke-linecap: square"/>
   </g>
   <g id="line2d_36">
    <path d="M 35.009524 73.856687 
L 444.414652 73.856687 
" clip-path="url(#p439d3d40a7)" style="fill: none; stroke: #0000ff; stroke-width: 0.5; stroke-linecap: square"/>
   </g>
   <g id="line2d_37">
    <path d="M 295.075375 389.754404 
L 295.075375 335.485127 
" clip-path="url(#p439d3d40a7)" style="fill: none; stroke: #0000ff; stroke-width: 0.5; stroke-linecap: square"/>
   </g>
   <g id="line2d_38">
    <path d="M 35.009524 335.485127 
L 295.075375 335.485127 
" clip-path="url(#p439d3d40a7)" style="fill: none; stroke: #0000ff; stroke-width: 0.5; stroke-linecap: square"/>
   </g>
   <g id="line2d_39">
    <path d="M 293.011337 389.754404 
L 293.011337 337.610256 
" clip-path="url(#p439d3d40a7)" style="fill: none; stroke: #0000ff; stroke-width: 0.5; stroke-linecap: square"/>
   </g>
   <g id="line2d_40">
    <path d="M 35.009524 337.610256 
L 293.011337 337.610256 
" clip-path="url(#p439d3d40a7)" style="fill: none; stroke: #0000ff; stroke-width: 0.5; stroke-linecap: square"/>
   </g>
   <g id="line2d_41">
    <path d="M 353.961188 389.754404 
L 353.961188 238.053265 
" clip-path="url(#p439d3d40a7)" style="fill: none; stroke: #0000ff; stroke-width: 0.5; stroke-linecap: square"/>
   </g>
   <g id="line2d_42">
    <path d="M 35.009524 238.053265 
L 353.961188 238.053265 
" clip-path="url(#p439d3d40a7)" style="fill: none; stroke: #0000ff; stroke-width: 0.5; stroke-linecap: square"/>
   </g>
   <g id="line2d_43">
    <path d="M 395.241963 389.754404 
L 395.241963 149.305285 
" clip-path="url(#p439d3d40a7)" style="fill: none; stroke: #0000ff; stroke-width: 0.5; stroke-linecap: square"/>
   </g>
   <g id="line2d_44">
    <path d="M 35.009524 149.305285 
L 395.241963 149.305285 
" clip-path="url(#p439d3d40a7)" style="fill: none; stroke: #0000ff; stroke-width: 0.5; stroke-linecap: square"/>
   </g>
   <g id="line2d_45">
    <path d="M 331.924538 389.754404 
L 331.924538 282.127019 
" clip-path="url(#p439d3d40a7)" style="fill: none; stroke: #0000ff; stroke-width: 0.5; stroke-linecap: square"/>
   </g>
   <g id="line2d_46">
    <path d="M 35.009524 282.127019 
L 331.924538 282.127019 
" clip-path="url(#p439d3d40a7)" style="fill: none; stroke: #0000ff; stroke-width: 0.5; stroke-linecap: square"/>
   </g>
   <g id="line2d_47">
    <path d="M 385.103891 389.754404 
L 385.103891 170.262632 
" clip-path="url(#p439d3d40a7)" style="fill: none; stroke: #0000ff; stroke-width: 0.5; stroke-linecap: square"/>
   </g>
   <g id="line2d_48">
    <path d="M 35.009524 170.262632 
L 385.103891 170.262632 
" clip-path="url(#p439d3d40a7)" style="fill: none; stroke: #0000ff; stroke-width: 0.5; stroke-linecap: square"/>
   </g>
   <g id="line2d_49">
    <path d="M 454.734846 389.754404 
L 454.734846 64.464427 
" clip-path="url(#p439d3d40a7)" style="fill: none; stroke: #0000ff; stroke-width: 0.5; stroke-linecap: square"/>
   </g>
   <g id="line2d_50">
    <path d="M 35.009524 64.464427 
L 454.734846 64.464427 
" clip-path="url(#p439d3d40a7)" style="fill: none; stroke: #0000ff; stroke-width: 0.5; stroke-linecap: square"/>
   </g>
   <g id="line2d_51">
    <path d="M 326.339492 389.754404 
L 326.339492 292.046354 
" clip-path="url(#p439d3d40a7)" style="fill: none; stroke: #0000ff; stroke-width: 0.5; stroke-linecap: square"/>
   </g>
   <g id="line2d_52">
    <path d="M 35.009524 292.046354 
L 326.339492 292.046354 
" clip-path="url(#p439d3d40a7)" style="fill: none; stroke: #0000ff; stroke-width: 0.5; stroke-linecap: square"/>
   </g>
   <g id="line2d_53">
    <path d="M 332.349488 389.754404 
L 332.349488 281.348228 
" clip-path="url(#p439d3d40a7)" style="fill: none; stroke: #0000ff; stroke-width: 0.5; stroke-linecap: square"/>
   </g>
   <g id="line2d_54">
    <path d="M 35.009524 281.348228 
L 332.349488 281.348228 
" clip-path="url(#p439d3d40a7)" style="fill: none; stroke: #0000ff; stroke-width: 0.5; stroke-linecap: square"/>
   </g>
   <g id="line2d_55">
    <path d="M 360.699667 389.754404 
L 360.699667 223.49573 
" clip-path="url(#p439d3d40a7)" style="fill: none; stroke: #0000ff; stroke-width: 0.5; stroke-linecap: square"/>
   </g>
   <g id="line2d_56">
    <path d="M 35.009524 223.49573 
L 360.699667 223.49573 
" clip-path="url(#p439d3d40a7)" style="fill: none; stroke: #0000ff; stroke-width: 0.5; stroke-linecap: square"/>
   </g>
   <g id="line2d_57">
    <path d="M 361.610273 389.754404 
L 361.610273 221.507785 
" clip-path="url(#p439d3d40a7)" style="fill: none; stroke: #0000ff; stroke-width: 0.5; stroke-linecap: square"/>
   </g>
   <g id="line2d_58">
    <path d="M 35.009524 221.507785 
L 361.610273 221.507785 
" clip-path="url(#p439d3d40a7)" style="fill: none; stroke: #0000ff; stroke-width: 0.5; stroke-linecap: square"/>
   </g>
   <g id="line2d_59">
    <path d="M 384.618234 389.754404 
L 384.618234 171.294988 
" clip-path="url(#p439d3d40a7)" style="fill: none; stroke: #0000ff; stroke-width: 0.5; stroke-linecap: square"/>
   </g>
   <g id="line2d_60">
    <path d="M 35.009524 171.294988 
L 384.618234 171.294988 
" clip-path="url(#p439d3d40a7)" style="fill: none; stroke: #0000ff; stroke-width: 0.5; stroke-linecap: square"/>
   </g>
   <g id="line2d_61">
    <path d="M 415.518109 389.754404 
L 415.518109 112.177496 
" clip-path="url(#p439d3d40a7)" style="fill: none; stroke: #0000ff; stroke-width: 0.5; stroke-linecap: square"/>
   </g>
   <g id="line2d_62">
    <path d="M 35.009524 112.177496 
L 415.518109 112.177496 
" clip-path="url(#p439d3d40a7)" style="fill: none; stroke: #0000ff; stroke-width: 0.5; stroke-linecap: square"/>
   </g>
   <g id="line2d_63">
    <path d="M 318.568993 389.754404 
L 318.568993 304.809795 
" clip-path="url(#p439d3d40a7)" style="fill: none; stroke: #0000ff; stroke-width: 0.5; stroke-linecap: square"/>
   </g>
   <g id="line2d_64">
    <path d="M 35.009524 304.809795 
L 318.568993 304.809795 
" clip-path="url(#p439d3d40a7)" style="fill: none; stroke: #0000ff; stroke-width: 0.5; stroke-linecap: square"/>
   </g>
   <g id="line2d_65">
    <path d="M 490.855525 389.754404 
L 490.855525 45.593103 
" clip-path="url(#p439d3d40a7)" style="fill: none; stroke: #0000ff; stroke-width: 0.5; stroke-linecap: square"/>
   </g>
   <g id="line2d_66">
    <path d="M 35.009524 45.593103 
L 490.855525 45.593103 
" clip-path="url(#p439d3d40a7)" style="fill: none; stroke: #0000ff; stroke-width: 0.5; stroke-linecap: square"/>
   </g>
   <g id="line2d_67">
    <path d="M 460.198478 389.754404 
L 460.198478 60.318879 
" clip-path="url(#p439d3d40a7)" style="fill: none; stroke: #0000ff; stroke-width: 0.5; stroke-linecap: square"/>
   </g>
   <g id="line2d_68">
    <path d="M 35.009524 60.318879 
L 460.198478 60.318879 
" clip-path="url(#p439d3d40a7)" style="fill: none; stroke: #0000ff; stroke-width: 0.5; stroke-linecap: square"/>
   </g>
   <g id="line2d_69">
    <path d="M 394.877721 389.754404 
L 394.877721 150.035637 
" clip-path="url(#p439d3d40a7)" style="fill: none; stroke: #0000ff; stroke-width: 0.5; stroke-linecap: square"/>
   </g>
   <g id="line2d_70">
    <path d="M 35.009524 150.035637 
L 394.877721 150.035637 
" clip-path="url(#p439d3d40a7)" style="fill: none; stroke: #0000ff; stroke-width: 0.5; stroke-linecap: square"/>
   </g>
   <g id="line2d_71">
    <path d="M 445.810914 389.754404 
L 445.810914 72.460551 
" clip-path="url(#p439d3d40a7)" style="fill: none; stroke: #0000ff; stroke-width: 0.5; stroke-linecap: square"/>
   </g>
   <g id="line2d_72">
    <path d="M 35.009524 72.460551 
L 445.810914 72.460551 
" clip-path="url(#p439d3d40a7)" style="fill: none; stroke: #0000ff; stroke-width: 0.5; stroke-linecap: square"/>
   </g>
   <g id="line2d_73">
    <path d="M 235.157544 389.754404 
L 235.157544 368.387844 
" clip-path="url(#p439d3d40a7)" style="fill: none; stroke: #0000ff; stroke-width: 0.5; stroke-linecap: square"/>
   </g>
   <g id="line2d_74">
    <path d="M 35.009524 368.387844 
L 235.157544 368.387844 
" clip-path="url(#p439d3d40a7)" style="fill: none; stroke: #0000ff; stroke-width: 0.5; stroke-linecap: square"/>
   </g>
   <g id="line2d_75">
    <path d="M 376.5442 389.754404 
L 376.5442 188.724037 
" clip-path="url(#p439d3d40a7)" style="fill: none; stroke: #0000ff; stroke-width: 0.5; stroke-linecap: square"/>
   </g>
   <g id="line2d_76">
    <path d="M 35.009524 188.724037 
L 376.5442 188.724037 
" clip-path="url(#p439d3d40a7)" style="fill: none; stroke: #0000ff; stroke-width: 0.5; stroke-linecap: square"/>
   </g>
   <g id="line2d_77">
    <path d="M 357.421488 389.754404 
L 357.421488 230.616023 
" clip-path="url(#p439d3d40a7)" style="fill: none; stroke: #0000ff; stroke-width: 0.5; stroke-linecap: square"/>
   </g>
   <g id="line2d_78">
    <path d="M 35.009524 230.616023 
L 357.421488 230.616023 
" clip-path="url(#p439d3d40a7)" style="fill: none; stroke: #0000ff; stroke-width: 0.5; stroke-linecap: square"/>
   </g>
   <g id="line2d_79">
    <path d="M 386.925101 389.754404 
L 386.925101 166.411456 
" clip-path="url(#p439d3d40a7)" style="fill: none; stroke: #0000ff; stroke-width: 0.5; stroke-linecap: square"/>
   </g>
   <g id="line2d_80">
    <path d="M 35.009524 166.411456 
L 386.925101 166.411456 
" clip-path="url(#p439d3d40a7)" style="fill: none; stroke: #0000ff; stroke-width: 0.5; stroke-linecap: square"/>
   </g>
   <g id="line2d_81">
    <path d="M 385.771668 389.754404 
L 385.771668 168.84676 
" clip-path="url(#p439d3d40a7)" style="fill: none; stroke: #0000ff; stroke-width: 0.5; stroke-linecap: square"/>
   </g>
   <g id="line2d_82">
    <path d="M 35.009524 168.84676 
L 385.771668 168.84676 
" clip-path="url(#p439d3d40a7)" style="fill: none; stroke: #0000ff; stroke-width: 0.5; stroke-linecap: square"/>
   </g>
   <g id="line2d_83">
    <path d="M 394.149237 389.754404 
L 394.149237 151.501959 
" clip-path="url(#p439d3d40a7)" style="fill: none; stroke: #0000ff; stroke-width: 0.5; stroke-linecap: square"/>
   </g>
   <g id="line2d_84">
    <path d="M 35.009524 151.501959 
L 394.149237 151.501959 
" clip-path="url(#p439d3d40a7)" style="fill: none; stroke: #0000ff; stroke-width: 0.5; stroke-linecap: square"/>
   </g>
   <g id="line2d_85">
    <path d="M 289.733157 389.754404 
L 289.733157 340.804333 
" clip-path="url(#p439d3d40a7)" style="fill: none; stroke: #0000ff; stroke-width: 0.5; stroke-linecap: square"/>
   </g>
   <g id="line2d_86">
    <path d="M 35.009524 340.804333 
L 289.733157 340.804333 
" clip-path="url(#p439d3d40a7)" style="fill: none; stroke: #0000ff; stroke-width: 0.5; stroke-linecap: square"/>
   </g>
   <g id="line2d_87">
    <path d="M 426.081131 389.754404 
L 426.081131 96.06121 
" clip-path="url(#p439d3d40a7)" style="fill: none; stroke: #0000ff; stroke-width: 0.5; stroke-linecap: square"/>
   </g>
   <g id="line2d_88">
    <path d="M 35.009524 96.06121 
L 426.081131 96.06121 
" clip-path="url(#p439d3d40a7)" style="fill: none; stroke: #0000ff; stroke-width: 0.5; stroke-linecap: square"/>
   </g>
   <g id="line2d_89">
    <path d="M 365.009866 389.754404 
L 365.009866 214.058172 
" clip-path="url(#p439d3d40a7)" style="fill: none; stroke: #0000ff; stroke-width: 0.5; stroke-linecap: square"/>
   </g>
   <g id="line2d_90">
    <path d="M 35.009524 214.058172 
L 365.009866 214.058172 
" clip-path="url(#p439d3d40a7)" style="fill: none; stroke: #0000ff; stroke-width: 0.5; stroke-linecap: square"/>
   </g>
   <g id="line2d_91">
    <path d="M 331.621003 389.754404 
L 331.621003 282.681272 
" clip-path="url(#p439d3d40a7)" style="fill: none; stroke: #0000ff; stroke-width: 0.5; stroke-linecap: square"/>
   </g>
   <g id="line2d_92">
    <path d="M 35.009524 282.681272 
L 331.621003 282.681272 
" clip-path="url(#p439d3d40a7)" style="fill: none; stroke: #0000ff; stroke-width: 0.5; stroke-linecap: square"/>
   </g>
   <g id="line2d_93">
    <path d="M 353.779067 389.754404 
L 353.779067 238.442033 
" clip-path="url(#p439d3d40a7)" style="fill: none; stroke: #0000ff; stroke-width: 0.5; stroke-linecap: square"/>
   </g>
   <g id="line2d_94">
    <path d="M 35.009524 238.442033 
L 353.779067 238.442033 
" clip-path="url(#p439d3d40a7)" style="fill: none; stroke: #0000ff; stroke-width: 0.5; stroke-linecap: square"/>
   </g>
   <g id="line2d_95">
    <path d="M 547.313056 389.754404 
L 547.313056 38.698523 
" clip-path="url(#p439d3d40a7)" style="fill: none; stroke: #0000ff; stroke-width: 0.5; stroke-linecap: square"/>
   </g>
   <g id="line2d_96">
    <path d="M 35.009524 38.698523 
L 547.313056 38.698523 
" clip-path="url(#p439d3d40a7)" style="fill: none; stroke: #0000ff; stroke-width: 0.5; stroke-linecap: square"/>
   </g>
   <g id="line2d_97">
    <path d="M 361.913808 389.754404 
L 361.913808 220.844322 
" clip-path="url(#p439d3d40a7)" style="fill: none; stroke: #0000ff; stroke-width: 0.5; stroke-linecap: square"/>
   </g>
   <g id="line2d_98">
    <path d="M 35.009524 220.844322 
L 361.913808 220.844322 
" clip-path="url(#p439d3d40a7)" style="fill: none; stroke: #0000ff; stroke-width: 0.5; stroke-linecap: square"/>
   </g>
   <g id="line2d_99">
    <path d="M 289.611743 389.754404 
L 289.611743 340.918425 
" clip-path="url(#p439d3d40a7)" style="fill: none; stroke: #0000ff; stroke-width: 0.5; stroke-linecap: square"/>
   </g>
   <g id="line2d_100">
    <path d="M 35.009524 340.918425 
L 289.611743 340.918425 
" clip-path="url(#p439d3d40a7)" style="fill: none; stroke: #0000ff; stroke-width: 0.5; stroke-linecap: square"/>
   </g>
   <g id="line2d_101">
    <path d="M 392.752975 389.754404 
L 392.752975 154.3328 
" clip-path="url(#p439d3d40a7)" style="fill: none; stroke: #0000ff; stroke-width: 0.5; stroke-linecap: square"/>
   </g>
   <g id="line2d_102">
    <path d="M 35.009524 154.3328 
L 392.752975 154.3328 
" clip-path="url(#p439d3d40a7)" style="fill: none; stroke: #0000ff; stroke-width: 0.5; stroke-linecap: square"/>
   </g>
   <g id="line2d_103">
    <path d="M 384.739648 389.754404 
L 384.739648 171.036695 
" clip-path="url(#p439d3d40a7)" style="fill: none; stroke: #0000ff; stroke-width: 0.5; stroke-linecap: square"/>
   </g>
   <g id="line2d_104">
    <path d="M 35.009524 171.036695 
L 384.739648 171.036695 
" clip-path="url(#p439d3d40a7)" style="fill: none; stroke: #0000ff; stroke-width: 0.5; stroke-linecap: square"/>
   </g>
   <g id="line2d_105">
    <path d="M 369.320065 389.754404 
L 369.320065 204.577977 
" clip-path="url(#p439d3d40a7)" style="fill: none; stroke: #0000ff; stroke-width: 0.5; stroke-linecap: square"/>
   </g>
   <g id="line2d_106">
    <path d="M 35.009524 204.577977 
L 369.320065 204.577977 
" clip-path="url(#p439d3d40a7)" style="fill: none; stroke: #0000ff; stroke-width: 0.5; stroke-linecap: square"/>
   </g>
   <g id="line2d_107">
    <path d="M 383.525508 389.754404 
L 383.525508 173.625538 
" clip-path="url(#p439d3d40a7)" style="fill: none; stroke: #0000ff; stroke-width: 0.5; stroke-linecap: square"/>
   </g>
   <g id="line2d_108">
    <path d="M 35.009524 173.625538 
L 383.525508 173.625538 
" clip-path="url(#p439d3d40a7)" style="fill: none; stroke: #0000ff; stroke-width: 0.5; stroke-linecap: square"/>
   </g>
   <g id="line2d_109">
    <path d="M 365.73835 389.754404 
L 365.73835 212.457579 
" clip-path="url(#p439d3d40a7)" style="fill: none; stroke: #0000ff; stroke-width: 0.5; stroke-linecap: square"/>
   </g>
   <g id="line2d_110">
    <path d="M 35.009524 212.457579 
L 365.73835 212.457579 
" clip-path="url(#p439d3d40a7)" style="fill: none; stroke: #0000ff; stroke-width: 0.5; stroke-linecap: square"/>
   </g>
   <g id="line2d_111">
    <path d="M 361.913808 389.754404 
L 361.913808 220.844322 
" clip-path="url(#p439d3d40a7)" style="fill: none; stroke: #0000ff; stroke-width: 0.5; stroke-linecap: square"/>
   </g>
   <g id="line2d_112">
    <path d="M 35.009524 220.844322 
L 361.913808 220.844322 
" clip-path="url(#p439d3d40a7)" style="fill: none; stroke: #0000ff; stroke-width: 0.5; stroke-linecap: square"/>
   </g>
   <g id="patch_43">
    <path d="M 65.36 376.36 
L 65.36 34.8 
" style="fill: none; stroke: #000000; stroke-width: 0.8; stroke-linejoin: miter; stroke-linecap: square"/>
   </g>
   <g id="patch_44">
    <path d="M 702.72 376.36 
L 702.72 34.8 
" style="fill: none; stroke: #000000; stroke-width: 0.8; stroke-linejoin: miter; stroke-linecap: square"/>
   </g>
   <g id="patch_45">
    <path d="M 65.36 376.36 
L 702.72 376.36 
" style="fill: none; stroke: #000000; stroke-width: 0.8; stroke-linejoin: miter; stroke-linecap: square"/>
   </g>
   <g id="patch_46">
    <path d="M 65.36 34.8 
L 702.72 34.8 
" style="fill: none; stroke: #000000; stroke-width: 0.8; stroke-linejoin: miter; stroke-linecap: square"/>
   </g>
   <g id="text_14">
    <!-- Exact inversion of a Gaussian, blue lines only exemplary -->
    <g transform="translate(157.99 28.8)scale(0.16 -0.16)">
     <defs>
      <path id="DejaVuSans-45" d="M 628 4666 
L 3578 4666 
L 3578 4134 
L 1259 4134 
L 1259 2753 
L 3481 2753 
L 3481 2222 
L 1259 2222 
L 1259 531 
L 3634 531 
L 3634 0 
L 628 0 
L 628 4666 
z
" transform="scale(0.015625)"/>
      <path id="DejaVuSans-78" d="M 3513 3500 
L 2247 1797 
L 3578 0 
L 2900 0 
L 1881 1375 
L 863 0 
L 184 0 
L 1544 1831 
L 300 3500 
L 978 3500 
L 1906 2253 
L 2834 3500 
L 3513 3500 
z
" transform="scale(0.015625)"/>
      <path id="DejaVuSans-61" d="M 2194 1759 
Q 1497 1759 1228 1600 
Q 959 1441 959 1056 
Q 959 750 1161 570 
Q 1363 391 1709 391 
Q 2188 391 2477 730 
Q 2766 1069 2766 1631 
L 2766 1759 
L 2194 1759 
z
M 3341 1997 
L 3341 0 
L 2766 0 
L 2766 531 
Q 2569 213 2275 61 
Q 1981 -91 1556 -91 
Q 1019 -91 701 211 
Q 384 513 384 1019 
Q 384 1609 779 1909 
Q 1175 2209 1959 2209 
L 2766 2209 
L 2766 2266 
Q 2766 2663 2505 2880 
Q 2244 3097 1772 3097 
Q 1472 3097 1187 3025 
Q 903 2953 641 2809 
L 641 3341 
Q 956 3463 1253 3523 
Q 1550 3584 1831 3584 
Q 2591 3584 2966 3190 
Q 3341 2797 3341 1997 
z
" transform="scale(0.015625)"/>
      <path id="DejaVuSans-63" d="M 3122 3366 
L 3122 2828 
Q 2878 2963 2633 3030 
Q 2388 3097 2138 3097 
Q 1578 3097 1268 2742 
Q 959 2388 959 1747 
Q 959 1106 1268 751 
Q 1578 397 2138 397 
Q 2388 397 2633 464 
Q 2878 531 3122 666 
L 3122 134 
Q 2881 22 2623 -34 
Q 2366 -91 2075 -91 
Q 1284 -91 818 406 
Q 353 903 353 1747 
Q 353 2603 823 3093 
Q 1294 3584 2113 3584 
Q 2378 3584 2631 3529 
Q 2884 3475 3122 3366 
z
" transform="scale(0.015625)"/>
      <path id="DejaVuSans-74" d="M 1172 4494 
L 1172 3500 
L 2356 3500 
L 2356 3053 
L 1172 3053 
L 1172 1153 
Q 1172 725 1289 603 
Q 1406 481 1766 481 
L 2356 481 
L 2356 0 
L 1766 0 
Q 1100 0 847 248 
Q 594 497 594 1153 
L 594 3053 
L 172 3053 
L 172 3500 
L 594 3500 
L 594 4494 
L 1172 4494 
z
" transform="scale(0.015625)"/>
      <path id="DejaVuSans-20" transform="scale(0.015625)"/>
      <path id="DejaVuSans-69" d="M 603 3500 
L 1178 3500 
L 1178 0 
L 603 0 
L 603 3500 
z
M 603 4863 
L 1178 4863 
L 1178 4134 
L 603 4134 
L 603 4863 
z
" transform="scale(0.015625)"/>
      <path id="DejaVuSans-6e" d="M 3513 2113 
L 3513 0 
L 2938 0 
L 2938 2094 
Q 2938 2591 2744 2837 
Q 2550 3084 2163 3084 
Q 1697 3084 1428 2787 
Q 1159 2491 1159 1978 
L 1159 0 
L 581 0 
L 581 3500 
L 1159 3500 
L 1159 2956 
Q 1366 3272 1645 3428 
Q 1925 3584 2291 3584 
Q 2894 3584 3203 3211 
Q 3513 2838 3513 2113 
z
" transform="scale(0.015625)"/>
      <path id="DejaVuSans-76" d="M 191 3500 
L 800 3500 
L 1894 563 
L 2988 3500 
L 3597 3500 
L 2284 0 
L 1503 0 
L 191 3500 
z
" transform="scale(0.015625)"/>
      <path id="DejaVuSans-65" d="M 3597 1894 
L 3597 1613 
L 953 1613 
Q 991 1019 1311 708 
Q 1631 397 2203 397 
Q 2534 397 2845 478 
Q 3156 559 3463 722 
L 3463 178 
Q 3153 47 2828 -22 
Q 2503 -91 2169 -91 
Q 1331 -91 842 396 
Q 353 884 353 1716 
Q 353 2575 817 3079 
Q 1281 3584 2069 3584 
Q 2775 3584 3186 3129 
Q 3597 2675 3597 1894 
z
M 3022 2063 
Q 3016 2534 2758 2815 
Q 2500 3097 2075 3097 
Q 1594 3097 1305 2825 
Q 1016 2553 972 2059 
L 3022 2063 
z
" transform="scale(0.015625)"/>
      <path id="DejaVuSans-72" d="M 2631 2963 
Q 2534 3019 2420 3045 
Q 2306 3072 2169 3072 
Q 1681 3072 1420 2755 
Q 1159 2438 1159 1844 
L 1159 0 
L 581 0 
L 581 3500 
L 1159 3500 
L 1159 2956 
Q 1341 3275 1631 3429 
Q 1922 3584 2338 3584 
Q 2397 3584 2469 3576 
Q 2541 3569 2628 3553 
L 2631 2963 
z
" transform="scale(0.015625)"/>
      <path id="DejaVuSans-73" d="M 2834 3397 
L 2834 2853 
Q 2591 2978 2328 3040 
Q 2066 3103 1784 3103 
Q 1356 3103 1142 2972 
Q 928 2841 928 2578 
Q 928 2378 1081 2264 
Q 1234 2150 1697 2047 
L 1894 2003 
Q 2506 1872 2764 1633 
Q 3022 1394 3022 966 
Q 3022 478 2636 193 
Q 2250 -91 1575 -91 
Q 1294 -91 989 -36 
Q 684 19 347 128 
L 347 722 
Q 666 556 975 473 
Q 1284 391 1588 391 
Q 1994 391 2212 530 
Q 2431 669 2431 922 
Q 2431 1156 2273 1281 
Q 2116 1406 1581 1522 
L 1381 1569 
Q 847 1681 609 1914 
Q 372 2147 372 2553 
Q 372 3047 722 3315 
Q 1072 3584 1716 3584 
Q 2034 3584 2315 3537 
Q 2597 3491 2834 3397 
z
" transform="scale(0.015625)"/>
      <path id="DejaVuSans-6f" d="M 1959 3097 
Q 1497 3097 1228 2736 
Q 959 2375 959 1747 
Q 959 1119 1226 758 
Q 1494 397 1959 397 
Q 2419 397 2687 759 
Q 2956 1122 2956 1747 
Q 2956 2369 2687 2733 
Q 2419 3097 1959 3097 
z
M 1959 3584 
Q 2709 3584 3137 3096 
Q 3566 2609 3566 1747 
Q 3566 888 3137 398 
Q 2709 -91 1959 -91 
Q 1206 -91 779 398 
Q 353 888 353 1747 
Q 353 2609 779 3096 
Q 1206 3584 1959 3584 
z
" transform="scale(0.015625)"/>
      <path id="DejaVuSans-66" d="M 2375 4863 
L 2375 4384 
L 1825 4384 
Q 1516 4384 1395 4259 
Q 1275 4134 1275 3809 
L 1275 3500 
L 2222 3500 
L 2222 3053 
L 1275 3053 
L 1275 0 
L 697 0 
L 697 3053 
L 147 3053 
L 147 3500 
L 697 3500 
L 697 3744 
Q 697 4328 969 4595 
Q 1241 4863 1831 4863 
L 2375 4863 
z
" transform="scale(0.015625)"/>
      <path id="DejaVuSans-47" d="M 3809 666 
L 3809 1919 
L 2778 1919 
L 2778 2438 
L 4434 2438 
L 4434 434 
Q 4069 175 3628 42 
Q 3188 -91 2688 -91 
Q 1594 -91 976 548 
Q 359 1188 359 2328 
Q 359 3472 976 4111 
Q 1594 4750 2688 4750 
Q 3144 4750 3555 4637 
Q 3966 4525 4313 4306 
L 4313 3634 
Q 3963 3931 3569 4081 
Q 3175 4231 2741 4231 
Q 1884 4231 1454 3753 
Q 1025 3275 1025 2328 
Q 1025 1384 1454 906 
Q 1884 428 2741 428 
Q 3075 428 3337 486 
Q 3600 544 3809 666 
z
" transform="scale(0.015625)"/>
      <path id="DejaVuSans-75" d="M 544 1381 
L 544 3500 
L 1119 3500 
L 1119 1403 
Q 1119 906 1312 657 
Q 1506 409 1894 409 
Q 2359 409 2629 706 
Q 2900 1003 2900 1516 
L 2900 3500 
L 3475 3500 
L 3475 0 
L 2900 0 
L 2900 538 
Q 2691 219 2414 64 
Q 2138 -91 1772 -91 
Q 1169 -91 856 284 
Q 544 659 544 1381 
z
M 1991 3584 
L 1991 3584 
z
" transform="scale(0.015625)"/>
      <path id="DejaVuSans-2c" d="M 750 794 
L 1409 794 
L 1409 256 
L 897 -744 
L 494 -744 
L 750 256 
L 750 794 
z
" transform="scale(0.015625)"/>
      <path id="DejaVuSans-62" d="M 3116 1747 
Q 3116 2381 2855 2742 
Q 2594 3103 2138 3103 
Q 1681 3103 1420 2742 
Q 1159 2381 1159 1747 
Q 1159 1113 1420 752 
Q 1681 391 2138 391 
Q 2594 391 2855 752 
Q 3116 1113 3116 1747 
z
M 1159 2969 
Q 1341 3281 1617 3432 
Q 1894 3584 2278 3584 
Q 2916 3584 3314 3078 
Q 3713 2572 3713 1747 
Q 3713 922 3314 415 
Q 2916 -91 2278 -91 
Q 1894 -91 1617 61 
Q 1341 213 1159 525 
L 1159 0 
L 581 0 
L 581 4863 
L 1159 4863 
L 1159 2969 
z
" transform="scale(0.015625)"/>
      <path id="DejaVuSans-6c" d="M 603 4863 
L 1178 4863 
L 1178 0 
L 603 0 
L 603 4863 
z
" transform="scale(0.015625)"/>
      <path id="DejaVuSans-79" d="M 2059 -325 
Q 1816 -950 1584 -1140 
Q 1353 -1331 966 -1331 
L 506 -1331 
L 506 -850 
L 844 -850 
Q 1081 -850 1212 -737 
Q 1344 -625 1503 -206 
L 1606 56 
L 191 3500 
L 800 3500 
L 1894 763 
L 2988 3500 
L 3597 3500 
L 2059 -325 
z
" transform="scale(0.015625)"/>
      <path id="DejaVuSans-6d" d="M 3328 2828 
Q 3544 3216 3844 3400 
Q 4144 3584 4550 3584 
Q 5097 3584 5394 3201 
Q 5691 2819 5691 2113 
L 5691 0 
L 5113 0 
L 5113 2094 
Q 5113 2597 4934 2840 
Q 4756 3084 4391 3084 
Q 3944 3084 3684 2787 
Q 3425 2491 3425 1978 
L 3425 0 
L 2847 0 
L 2847 2094 
Q 2847 2600 2669 2842 
Q 2491 3084 2119 3084 
Q 1678 3084 1418 2786 
Q 1159 2488 1159 1978 
L 1159 0 
L 581 0 
L 581 3500 
L 1159 3500 
L 1159 2956 
Q 1356 3278 1631 3431 
Q 1906 3584 2284 3584 
Q 2666 3584 2933 3390 
Q 3200 3197 3328 2828 
z
" transform="scale(0.015625)"/>
      <path id="DejaVuSans-70" d="M 1159 525 
L 1159 -1331 
L 581 -1331 
L 581 3500 
L 1159 3500 
L 1159 2969 
Q 1341 3281 1617 3432 
Q 1894 3584 2278 3584 
Q 2916 3584 3314 3078 
Q 3713 2572 3713 1747 
Q 3713 922 3314 415 
Q 2916 -91 2278 -91 
Q 1894 -91 1617 61 
Q 1341 213 1159 525 
z
M 3116 1747 
Q 3116 2381 2855 2742 
Q 2594 3103 2138 3103 
Q 1681 3103 1420 2742 
Q 1159 2381 1159 1747 
Q 1159 1113 1420 752 
Q 1681 391 2138 391 
Q 2594 391 2855 752 
Q 3116 1113 3116 1747 
z
" transform="scale(0.015625)"/>
     </defs>
     <use xlink:href="#DejaVuSans-45"/>
     <use xlink:href="#DejaVuSans-78" x="63.183594"/>
     <use xlink:href="#DejaVuSans-61" x="122.363281"/>
     <use xlink:href="#DejaVuSans-63" x="183.642578"/>
     <use xlink:href="#DejaVuSans-74" x="238.623047"/>
     <use xlink:href="#DejaVuSans-20" x="277.832031"/>
     <use xlink:href="#DejaVuSans-69" x="309.619141"/>
     <use xlink:href="#DejaVuSans-6e" x="337.402344"/>
     <use xlink:href="#DejaVuSans-76" x="400.78125"/>
     <use xlink:href="#DejaVuSans-65" x="459.960938"/>
     <use xlink:href="#DejaVuSans-72" x="521.484375"/>
     <use xlink:href="#DejaVuSans-73" x="562.597656"/>
     <use xlink:href="#DejaVuSans-69" x="614.697266"/>
     <use xlink:href="#DejaVuSans-6f" x="642.480469"/>
     <use xlink:href="#DejaVuSans-6e" x="703.662109"/>
     <use xlink:href="#DejaVuSans-20" x="767.041016"/>
     <use xlink:href="#DejaVuSans-6f" x="798.828125"/>
     <use xlink:href="#DejaVuSans-66" x="860.009766"/>
     <use xlink:href="#DejaVuSans-20" x="895.214844"/>
     <use xlink:href="#DejaVuSans-61" x="927.001953"/>
     <use xlink:href="#DejaVuSans-20" x="988.28125"/>
     <use xlink:href="#DejaVuSans-47" x="1020.068359"/>
     <use xlink:href="#DejaVuSans-61" x="1097.558594"/>
     <use xlink:href="#DejaVuSans-75" x="1158.837891"/>
     <use xlink:href="#DejaVuSans-73" x="1222.216797"/>
     <use xlink:href="#DejaVuSans-73" x="1274.316406"/>
     <use xlink:href="#DejaVuSans-69" x="1326.416016"/>
     <use xlink:href="#DejaVuSans-61" x="1354.199219"/>
     <use xlink:href="#DejaVuSans-6e" x="1415.478516"/>
     <use xlink:href="#DejaVuSans-2c" x="1478.857422"/>
     <use xlink:href="#DejaVuSans-20" x="1510.644531"/>
     <use xlink:href="#DejaVuSans-62" x="1542.431641"/>
     <use xlink:href="#DejaVuSans-6c" x="1605.908203"/>
     <use xlink:href="#DejaVuSans-75" x="1633.691406"/>
     <use xlink:href="#DejaVuSans-65" x="1697.070312"/>
     <use xlink:href="#DejaVuSans-20" x="1758.59375"/>
     <use xlink:href="#DejaVuSans-6c" x="1790.380859"/>
     <use xlink:href="#DejaVuSans-69" x="1818.164062"/>
     <use xlink:href="#DejaVuSans-6e" x="1845.947266"/>
     <use xlink:href="#DejaVuSans-65" x="1909.326172"/>
     <use xlink:href="#DejaVuSans-73" x="1970.849609"/>
     <use xlink:href="#DejaVuSans-20" x="2022.949219"/>
     <use xlink:href="#DejaVuSans-6f" x="2054.736328"/>
     <use xlink:href="#DejaVuSans-6e" x="2115.917969"/>
     <use xlink:href="#DejaVuSans-6c" x="2179.296875"/>
     <use xlink:href="#DejaVuSans-79" x="2207.080078"/>
     <use xlink:href="#DejaVuSans-20" x="2266.259766"/>
     <use xlink:href="#DejaVuSans-65" x="2298.046875"/>
     <use xlink:href="#DejaVuSans-78" x="2357.820312"/>
     <use xlink:href="#DejaVuSans-65" x="2413.875"/>
     <use xlink:href="#DejaVuSans-6d" x="2475.398438"/>
     <use xlink:href="#DejaVuSans-70" x="2572.810547"/>
     <use xlink:href="#DejaVuSans-6c" x="2636.287109"/>
     <use xlink:href="#DejaVuSans-61" x="2664.070312"/>
     <use xlink:href="#DejaVuSans-72" x="2725.349609"/>
     <use xlink:href="#DejaVuSans-79" x="2766.462891"/>
    </g>
   </g>
   <g id="legend_1">
    <g id="patch_47">
     <path d="M 317.53 369.86 
L 693.62 369.86 
Q 696.22 369.86 696.22 367.26 
L 696.22 311.315313 
Q 696.22 308.715312 693.62 308.715312 
L 317.53 308.715312 
Q 314.93 308.715312 314.93 311.315313 
L 314.93 367.26 
Q 314.93 369.86 317.53 369.86 
z
" style="fill: #ffffff; opacity: 0.8; stroke: #cccccc; stroke-linejoin: miter"/>
    </g>
    <g id="line2d_113">
     <path d="M 320.13 319.243281 
L 333.13 319.243281 
L 346.13 319.243281 
" style="fill: none; stroke: #ffa500; stroke-width: 4; stroke-linecap: square"/>
    </g>
    <g id="text_15">
     <!-- Cumulative distributian function of a Gaussian $\Phi(x)$ -->
     <g transform="translate(356.53 323.793281)scale(0.13 -0.13)">
      <defs>
       <path id="DejaVuSans-43" d="M 4122 4306 
L 4122 3641 
Q 3803 3938 3442 4084 
Q 3081 4231 2675 4231 
Q 1875 4231 1450 3742 
Q 1025 3253 1025 2328 
Q 1025 1406 1450 917 
Q 1875 428 2675 428 
Q 3081 428 3442 575 
Q 3803 722 4122 1019 
L 4122 359 
Q 3791 134 3420 21 
Q 3050 -91 2638 -91 
Q 1578 -91 968 557 
Q 359 1206 359 2328 
Q 359 3453 968 4101 
Q 1578 4750 2638 4750 
Q 3056 4750 3426 4639 
Q 3797 4528 4122 4306 
z
" transform="scale(0.015625)"/>
       <path id="DejaVuSans-64" d="M 2906 2969 
L 2906 4863 
L 3481 4863 
L 3481 0 
L 2906 0 
L 2906 525 
Q 2725 213 2448 61 
Q 2172 -91 1784 -91 
Q 1150 -91 751 415 
Q 353 922 353 1747 
Q 353 2572 751 3078 
Q 1150 3584 1784 3584 
Q 2172 3584 2448 3432 
Q 2725 3281 2906 2969 
z
M 947 1747 
Q 947 1113 1208 752 
Q 1469 391 1925 391 
Q 2381 391 2643 752 
Q 2906 1113 2906 1747 
Q 2906 2381 2643 2742 
Q 2381 3103 1925 3103 
Q 1469 3103 1208 2742 
Q 947 2381 947 1747 
z
" transform="scale(0.015625)"/>
      </defs>
      <use xlink:href="#DejaVuSans-43" transform="translate(0 0.015625)"/>
      <use xlink:href="#DejaVuSans-75" transform="translate(69.824219 0.015625)"/>
      <use xlink:href="#DejaVuSans-6d" transform="translate(133.203125 0.015625)"/>
      <use xlink:href="#DejaVuSans-75" transform="translate(230.615234 0.015625)"/>
      <use xlink:href="#DejaVuSans-6c" transform="translate(293.994141 0.015625)"/>
      <use xlink:href="#DejaVuSans-61" transform="translate(321.777344 0.015625)"/>
      <use xlink:href="#DejaVuSans-74" transform="translate(383.056641 0.015625)"/>
      <use xlink:href="#DejaVuSans-69" transform="translate(422.265625 0.015625)"/>
      <use xlink:href="#DejaVuSans-76" transform="translate(450.048828 0.015625)"/>
      <use xlink:href="#DejaVuSans-65" transform="translate(509.228516 0.015625)"/>
      <use xlink:href="#DejaVuSans-20" transform="translate(570.751953 0.015625)"/>
      <use xlink:href="#DejaVuSans-64" transform="translate(602.539062 0.015625)"/>
      <use xlink:href="#DejaVuSans-69" transform="translate(666.015625 0.015625)"/>
      <use xlink:href="#DejaVuSans-73" transform="translate(693.798828 0.015625)"/>
      <use xlink:href="#DejaVuSans-74" transform="translate(745.898438 0.015625)"/>
      <use xlink:href="#DejaVuSans-72" transform="translate(785.107422 0.015625)"/>
      <use xlink:href="#DejaVuSans-69" transform="translate(826.220703 0.015625)"/>
      <use xlink:href="#DejaVuSans-62" transform="translate(854.003906 0.015625)"/>
      <use xlink:href="#DejaVuSans-75" transform="translate(917.480469 0.015625)"/>
      <use xlink:href="#DejaVuSans-74" transform="translate(980.859375 0.015625)"/>
      <use xlink:href="#DejaVuSans-69" transform="translate(1020.068359 0.015625)"/>
      <use xlink:href="#DejaVuSans-61" transform="translate(1047.851562 0.015625)"/>
      <use xlink:href="#DejaVuSans-6e" transform="translate(1109.130859 0.015625)"/>
      <use xlink:href="#DejaVuSans-20" transform="translate(1172.509766 0.015625)"/>
      <use xlink:href="#DejaVuSans-66" transform="translate(1204.296875 0.015625)"/>
      <use xlink:href="#DejaVuSans-75" transform="translate(1239.501953 0.015625)"/>
      <use xlink:href="#DejaVuSans-6e" transform="translate(1302.880859 0.015625)"/>
      <use xlink:href="#DejaVuSans-63" transform="translate(1366.259766 0.015625)"/>
      <use xlink:href="#DejaVuSans-74" transform="translate(1421.240234 0.015625)"/>
      <use xlink:href="#DejaVuSans-69" transform="translate(1460.449219 0.015625)"/>
      <use xlink:href="#DejaVuSans-6f" transform="translate(1488.232422 0.015625)"/>
      <use xlink:href="#DejaVuSans-6e" transform="translate(1549.414062 0.015625)"/>
      <use xlink:href="#DejaVuSans-20" transform="translate(1612.792969 0.015625)"/>
      <use xlink:href="#DejaVuSans-6f" transform="translate(1644.580078 0.015625)"/>
      <use xlink:href="#DejaVuSans-66" transform="translate(1705.761719 0.015625)"/>
      <use xlink:href="#DejaVuSans-20" transform="translate(1740.966797 0.015625)"/>
      <use xlink:href="#DejaVuSans-61" transform="translate(1772.753906 0.015625)"/>
      <use xlink:href="#DejaVuSans-20" transform="translate(1834.033203 0.015625)"/>
      <use xlink:href="#DejaVuSans-47" transform="translate(1865.820312 0.015625)"/>
      <use xlink:href="#DejaVuSans-61" transform="translate(1943.310547 0.015625)"/>
      <use xlink:href="#DejaVuSans-75" transform="translate(2004.589844 0.015625)"/>
      <use xlink:href="#DejaVuSans-73" transform="translate(2067.96875 0.015625)"/>
      <use xlink:href="#DejaVuSans-73" transform="translate(2120.068359 0.015625)"/>
      <use xlink:href="#DejaVuSans-69" transform="translate(2172.167969 0.015625)"/>
      <use xlink:href="#DejaVuSans-61" transform="translate(2199.951172 0.015625)"/>
      <use xlink:href="#DejaVuSans-6e" transform="translate(2261.230469 0.015625)"/>
      <use xlink:href="#DejaVuSans-20" transform="translate(2324.609375 0.015625)"/>
      <use xlink:href="#DejaVuSans-3a6" transform="translate(2356.396484 0.015625)"/>
      <use xlink:href="#DejaVuSans-28" transform="translate(2435.107422 0.015625)"/>
      <use xlink:href="#DejaVuSans-Oblique-78" transform="translate(2474.121094 0.015625)"/>
      <use xlink:href="#DejaVuSans-29" transform="translate(2533.300781 0.015625)"/>
     </g>
    </g>
    <g id="patch_48">
     <path d="M 320.13 342.874844 
L 346.13 342.874844 
L 346.13 333.774844 
L 320.13 333.774844 
z
" style="fill: #1f77b4; opacity: 0.5"/>
    </g>
    <g id="text_16">
     <!-- the x values follow a Gaussian distribution -->
     <g transform="translate(356.53 342.874844)scale(0.13 -0.13)">
      <defs>
       <path id="DejaVuSans-68" d="M 3513 2113 
L 3513 0 
L 2938 0 
L 2938 2094 
Q 2938 2591 2744 2837 
Q 2550 3084 2163 3084 
Q 1697 3084 1428 2787 
Q 1159 2491 1159 1978 
L 1159 0 
L 581 0 
L 581 4863 
L 1159 4863 
L 1159 2956 
Q 1366 3272 1645 3428 
Q 1925 3584 2291 3584 
Q 2894 3584 3203 3211 
Q 3513 2838 3513 2113 
z
" transform="scale(0.015625)"/>
       <path id="DejaVuSans-77" d="M 269 3500 
L 844 3500 
L 1563 769 
L 2278 3500 
L 2956 3500 
L 3675 769 
L 4391 3500 
L 4966 3500 
L 4050 0 
L 3372 0 
L 2619 2869 
L 1863 0 
L 1184 0 
L 269 3500 
z
" transform="scale(0.015625)"/>
      </defs>
      <use xlink:href="#DejaVuSans-74"/>
      <use xlink:href="#DejaVuSans-68" x="39.208984"/>
      <use xlink:href="#DejaVuSans-65" x="102.587891"/>
      <use xlink:href="#DejaVuSans-20" x="164.111328"/>
      <use xlink:href="#DejaVuSans-78" x="195.898438"/>
      <use xlink:href="#DejaVuSans-20" x="255.078125"/>
      <use xlink:href="#DejaVuSans-76" x="286.865234"/>
      <use xlink:href="#DejaVuSans-61" x="346.044922"/>
      <use xlink:href="#DejaVuSans-6c" x="407.324219"/>
      <use xlink:href="#DejaVuSans-75" x="435.107422"/>
      <use xlink:href="#DejaVuSans-65" x="498.486328"/>
      <use xlink:href="#DejaVuSans-73" x="560.009766"/>
      <use xlink:href="#DejaVuSans-20" x="612.109375"/>
      <use xlink:href="#DejaVuSans-66" x="643.896484"/>
      <use xlink:href="#DejaVuSans-6f" x="679.101562"/>
      <use xlink:href="#DejaVuSans-6c" x="740.283203"/>
      <use xlink:href="#DejaVuSans-6c" x="768.066406"/>
      <use xlink:href="#DejaVuSans-6f" x="795.849609"/>
      <use xlink:href="#DejaVuSans-77" x="857.03125"/>
      <use xlink:href="#DejaVuSans-20" x="938.818359"/>
      <use xlink:href="#DejaVuSans-61" x="970.605469"/>
      <use xlink:href="#DejaVuSans-20" x="1031.884766"/>
      <use xlink:href="#DejaVuSans-47" x="1063.671875"/>
      <use xlink:href="#DejaVuSans-61" x="1141.162109"/>
      <use xlink:href="#DejaVuSans-75" x="1202.441406"/>
      <use xlink:href="#DejaVuSans-73" x="1265.820312"/>
      <use xlink:href="#DejaVuSans-73" x="1317.919922"/>
      <use xlink:href="#DejaVuSans-69" x="1370.019531"/>
      <use xlink:href="#DejaVuSans-61" x="1397.802734"/>
      <use xlink:href="#DejaVuSans-6e" x="1459.082031"/>
      <use xlink:href="#DejaVuSans-20" x="1522.460938"/>
      <use xlink:href="#DejaVuSans-64" x="1554.248047"/>
      <use xlink:href="#DejaVuSans-69" x="1617.724609"/>
      <use xlink:href="#DejaVuSans-73" x="1645.507812"/>
      <use xlink:href="#DejaVuSans-74" x="1697.607422"/>
      <use xlink:href="#DejaVuSans-72" x="1736.816406"/>
      <use xlink:href="#DejaVuSans-69" x="1777.929688"/>
      <use xlink:href="#DejaVuSans-62" x="1805.712891"/>
      <use xlink:href="#DejaVuSans-75" x="1869.189453"/>
      <use xlink:href="#DejaVuSans-74" x="1932.568359"/>
      <use xlink:href="#DejaVuSans-69" x="1971.777344"/>
      <use xlink:href="#DejaVuSans-6f" x="1999.560547"/>
      <use xlink:href="#DejaVuSans-6e" x="2060.742188"/>
     </g>
    </g>
    <g id="patch_49">
     <path d="M 320.13 361.956406 
L 346.13 361.956406 
L 346.13 352.856406 
L 320.13 352.856406 
z
" style="fill: #ffa500; opacity: 0.5"/>
    </g>
    <g id="text_17">
     <!-- the cdf values follow a uniform distribution -->
     <g transform="translate(356.53 361.956406)scale(0.13 -0.13)">
      <use xlink:href="#DejaVuSans-74"/>
      <use xlink:href="#DejaVuSans-68" x="39.208984"/>
      <use xlink:href="#DejaVuSans-65" x="102.587891"/>
      <use xlink:href="#DejaVuSans-20" x="164.111328"/>
      <use xlink:href="#DejaVuSans-63" x="195.898438"/>
      <use xlink:href="#DejaVuSans-64" x="250.878906"/>
      <use xlink:href="#DejaVuSans-66" x="314.355469"/>
      <use xlink:href="#DejaVuSans-20" x="349.560547"/>
      <use xlink:href="#DejaVuSans-76" x="381.347656"/>
      <use xlink:href="#DejaVuSans-61" x="440.527344"/>
      <use xlink:href="#DejaVuSans-6c" x="501.806641"/>
      <use xlink:href="#DejaVuSans-75" x="529.589844"/>
      <use xlink:href="#DejaVuSans-65" x="592.96875"/>
      <use xlink:href="#DejaVuSans-73" x="654.492188"/>
      <use xlink:href="#DejaVuSans-20" x="706.591797"/>
      <use xlink:href="#DejaVuSans-66" x="738.378906"/>
      <use xlink:href="#DejaVuSans-6f" x="773.583984"/>
      <use xlink:href="#DejaVuSans-6c" x="834.765625"/>
      <use xlink:href="#DejaVuSans-6c" x="862.548828"/>
      <use xlink:href="#DejaVuSans-6f" x="890.332031"/>
      <use xlink:href="#DejaVuSans-77" x="951.513672"/>
      <use xlink:href="#DejaVuSans-20" x="1033.300781"/>
      <use xlink:href="#DejaVuSans-61" x="1065.087891"/>
      <use xlink:href="#DejaVuSans-20" x="1126.367188"/>
      <use xlink:href="#DejaVuSans-75" x="1158.154297"/>
      <use xlink:href="#DejaVuSans-6e" x="1221.533203"/>
      <use xlink:href="#DejaVuSans-69" x="1284.912109"/>
      <use xlink:href="#DejaVuSans-66" x="1312.695312"/>
      <use xlink:href="#DejaVuSans-6f" x="1347.900391"/>
      <use xlink:href="#DejaVuSans-72" x="1409.082031"/>
      <use xlink:href="#DejaVuSans-6d" x="1448.445312"/>
      <use xlink:href="#DejaVuSans-20" x="1545.857422"/>
      <use xlink:href="#DejaVuSans-64" x="1577.644531"/>
      <use xlink:href="#DejaVuSans-69" x="1641.121094"/>
      <use xlink:href="#DejaVuSans-73" x="1668.904297"/>
      <use xlink:href="#DejaVuSans-74" x="1721.003906"/>
      <use xlink:href="#DejaVuSans-72" x="1760.212891"/>
      <use xlink:href="#DejaVuSans-69" x="1801.326172"/>
      <use xlink:href="#DejaVuSans-62" x="1829.109375"/>
      <use xlink:href="#DejaVuSans-75" x="1892.585938"/>
      <use xlink:href="#DejaVuSans-74" x="1955.964844"/>
      <use xlink:href="#DejaVuSans-69" x="1995.173828"/>
      <use xlink:href="#DejaVuSans-6f" x="2022.957031"/>
      <use xlink:href="#DejaVuSans-6e" x="2084.138672"/>
     </g>
    </g>
   </g>
  </g>
 </g>
 <defs>
  <clipPath id="p439d3d40a7">
   <rect x="65.36" y="34.8" width="637.36" height="341.56"/>
  </clipPath>
 </defs>
</svg>
