<?xml version="1.0" encoding="UTF-8" standalone="no"?>
<!DOCTYPE svg PUBLIC "-//W3C//DTD SVG 1.1//EN" "http://www.w3.org/Graphics/SVG/1.1/DTD/svg11.dtd">
<svg width="100%" height="100%" viewBox="0 0 679 742" version="1.1" xmlns="http://www.w3.org/2000/svg" xmlns:xlink="http://www.w3.org/1999/xlink" xml:space="preserve" xmlns:serif="http://www.serif.com/" style="fill-rule:evenodd;clip-rule:evenodd;stroke-linecap:round;stroke-linejoin:round;stroke-miterlimit:1.5;">
    <g transform="matrix(1,0,0,1,-383.303,-1239.54)">
        <g transform="matrix(0.624955,0,0,0.624955,-166.668,937.202)">
            <path d="M1030.29,1537.78L1030.29,653" style="fill:none;stroke:black;stroke-width:27.4px;"/>
        </g>
        <g transform="matrix(0.624955,0,0,0.624955,-166.668,937.202)">
            <path d="M1030.29,653L985.147,698.147" style="fill:none;stroke:black;stroke-width:27.4px;"/>
        </g>
        <g transform="matrix(0.624955,0,0,0.624955,-166.668,937.202)">
            <path d="M1030.29,653L1079.65,702.353" style="fill:none;stroke:black;stroke-width:27.4px;"/>
        </g>
        <g transform="matrix(4.18199e-17,0.682971,-0.682971,4.18199e-17,1469.23,1134.16)">
            <path d="M1030.29,1537.78L1030.29,653" style="fill:none;stroke:black;stroke-width:25.07px;"/>
        </g>
        <g transform="matrix(3.82675e-17,0.624955,-0.624955,3.82675e-17,1438.98,1193.94)">
            <path d="M1030.29,653L985.147,698.147" style="fill:none;stroke:black;stroke-width:27.4px;"/>
        </g>
        <g transform="matrix(3.82675e-17,0.624955,-0.624955,3.82675e-17,1438.98,1193.94)">
            <path d="M1030.29,653L1079.65,702.353" style="fill:none;stroke:black;stroke-width:27.4px;"/>
        </g>
        <g transform="matrix(0.624955,0,0,0.624955,-624.056,940.515)">
            <g transform="matrix(179.562,0,0,179.562,1669.77,1629.56)">
                <path d="M0.314,-0.408L0.179,-0.408L0.179,-0.132C0.179,-0.115 0.181,-0.1 0.184,-0.09C0.187,-0.079 0.192,-0.07 0.198,-0.064C0.204,-0.058 0.211,-0.054 0.22,-0.052C0.228,-0.049 0.237,-0.048 0.247,-0.048C0.258,-0.048 0.27,-0.05 0.282,-0.053C0.294,-0.056 0.305,-0.061 0.315,-0.066L0.318,-0.005C0.293,0.006 0.264,0.012 0.229,0.012C0.216,0.012 0.203,0.01 0.19,0.007C0.176,0.004 0.163,-0.003 0.152,-0.012C0.141,-0.021 0.131,-0.034 0.124,-0.05C0.117,-0.066 0.113,-0.087 0.113,-0.113L0.113,-0.408L0.014,-0.408L0.014,-0.468L0.113,-0.468L0.113,-0.6L0.179,-0.6L0.179,-0.468L0.314,-0.468L0.314,-0.408Z" style="fill-rule:nonzero;"/>
            </g>
        </g>
        <g transform="matrix(0.624955,0,0,0.624955,-204.692,961.355)">
            <g transform="matrix(179.562,0,0,179.562,1669.77,1629.56)">
                <path d="M0.314,-0.408L0.179,-0.408L0.179,-0.132C0.179,-0.115 0.181,-0.1 0.184,-0.09C0.187,-0.079 0.192,-0.07 0.198,-0.064C0.204,-0.058 0.211,-0.054 0.22,-0.052C0.228,-0.049 0.237,-0.048 0.247,-0.048C0.258,-0.048 0.27,-0.05 0.282,-0.053C0.294,-0.056 0.305,-0.061 0.315,-0.066L0.318,-0.005C0.293,0.006 0.264,0.012 0.229,0.012C0.216,0.012 0.203,0.01 0.19,0.007C0.176,0.004 0.163,-0.003 0.152,-0.012C0.141,-0.021 0.131,-0.034 0.124,-0.05C0.117,-0.066 0.113,-0.087 0.113,-0.113L0.113,-0.408L0.014,-0.408L0.014,-0.468L0.113,-0.468L0.113,-0.6L0.179,-0.6L0.179,-0.468L0.314,-0.468L0.314,-0.408Z" style="fill-rule:nonzero;"/>
            </g>
            <g transform="matrix(179.562,0,0,179.562,1729.38,1629.56)">
                <path d="M0.363,-0.333L0.588,-0.333L0.588,-0.273L0.363,-0.273L0.363,-0.048L0.303,-0.048L0.303,-0.273L0.078,-0.273L0.078,-0.333L0.303,-0.333L0.303,-0.558L0.363,-0.558L0.363,-0.333Z" style="fill-rule:nonzero;"/>
            </g>
            <g transform="matrix(179.562,0,0,179.562,1848.97,1629.56)">
                <path d="M0.015,-0L0.296,-0.712L0.37,-0.712L0.657,-0L0.015,-0ZM0.332,-0.645L0.106,-0.062L0.561,-0.062L0.332,-0.645Z" style="fill-rule:nonzero;"/>
            </g>
            <g transform="matrix(179.562,0,0,179.562,1969.28,1629.56)">
                <path d="M0.314,-0.408L0.179,-0.408L0.179,-0.132C0.179,-0.115 0.181,-0.1 0.184,-0.09C0.187,-0.079 0.192,-0.07 0.198,-0.064C0.204,-0.058 0.211,-0.054 0.22,-0.052C0.228,-0.049 0.237,-0.048 0.247,-0.048C0.258,-0.048 0.27,-0.05 0.282,-0.053C0.294,-0.056 0.305,-0.061 0.315,-0.066L0.318,-0.005C0.293,0.006 0.264,0.012 0.229,0.012C0.216,0.012 0.203,0.01 0.19,0.007C0.176,0.004 0.163,-0.003 0.152,-0.012C0.141,-0.021 0.131,-0.034 0.124,-0.05C0.117,-0.066 0.113,-0.087 0.113,-0.113L0.113,-0.408L0.014,-0.408L0.014,-0.468L0.113,-0.468L0.113,-0.6L0.179,-0.6L0.179,-0.468L0.314,-0.468L0.314,-0.408Z" style="fill-rule:nonzero;"/>
            </g>
        </g>
        <g transform="matrix(0.624955,0,0,0.624955,-177.209,911.112)">
            <g transform="matrix(130.397,0,0,130.397,894.797,835.373)">
                <path d="M0.246,-0.081L0.389,-0.468L0.469,-0.468L0.235,0.122C0.221,0.158 0.203,0.187 0.182,0.208C0.16,0.229 0.129,0.24 0.088,0.24C0.078,0.24 0.068,0.24 0.058,0.239C0.047,0.238 0.037,0.236 0.027,0.233L0.034,0.169C0.048,0.176 0.065,0.18 0.084,0.18C0.107,0.18 0.126,0.173 0.139,0.158C0.152,0.143 0.164,0.123 0.174,0.096L0.208,0.006L0.016,-0.468L0.099,-0.468L0.246,-0.081Z" style="fill-rule:nonzero;"/>
            </g>
        </g>
        <g transform="matrix(0.624955,0,0,0.624955,-166.668,937.202)">
            <path d="M1031.24,1439.95C1062.77,1391.88 1101.1,1351.3 1141.97,1311.02C1190.07,1263.62 1240.45,1218.14 1296.93,1180.85C1437.58,1087.98 1608.23,1032.61 1772.91,1001.61" style="fill:none;stroke:rgb(57,186,38);stroke-width:27.4px;"/>
        </g>
        <g transform="matrix(0.9208,-9.46818e-17,9.46818e-17,0.9208,226.907,985.406)">
            <path d="M271.166,925.051L796.907,285.289" style="fill:none;stroke:rgb(38,53,186);stroke-width:18.59px;"/>
        </g>
        <g transform="matrix(0.852818,0,0,0.852818,245.341,1048.29)">
            <path d="M838.816,234.29L782.825,240.667" style="fill:none;stroke:rgb(43,54,213);stroke-width:19.73px;"/>
        </g>
        <g transform="matrix(0.852818,0,0,0.852818,245.341,1048.29)">
            <path d="M838.816,234.29L848.748,290.699" style="fill:none;stroke:rgb(43,54,213);stroke-width:19.73px;"/>
        </g>
        <g transform="matrix(0.865589,0,0,0.865589,223.187,1036.72)">
            <path d="M841.35,906.375L841.35,949.199" style="fill:none;stroke:black;stroke-width:19.78px;"/>
        </g>
        <g transform="matrix(0.524933,-0.672119,0.672119,0.524933,30.3934,1701.78)">
            <g transform="matrix(90.1968,0,0,90.1968,473.459,460.167)">
                <path d="M0.436,-0.27C0.436,-0.315 0.423,-0.351 0.396,-0.379C0.369,-0.406 0.332,-0.42 0.284,-0.42C0.263,-0.42 0.242,-0.416 0.222,-0.408C0.202,-0.399 0.185,-0.388 0.17,-0.374C0.155,-0.36 0.142,-0.344 0.134,-0.326C0.125,-0.308 0.12,-0.289 0.12,-0.27L0.436,-0.27ZM0.118,-0.216C0.12,-0.193 0.126,-0.171 0.135,-0.15C0.144,-0.129 0.157,-0.112 0.172,-0.097C0.187,-0.082 0.205,-0.07 0.225,-0.061C0.245,-0.052 0.267,-0.048 0.29,-0.048C0.325,-0.048 0.356,-0.056 0.382,-0.073C0.407,-0.089 0.427,-0.108 0.44,-0.129L0.491,-0.087C0.463,-0.052 0.432,-0.026 0.399,-0.011C0.365,0.004 0.329,0.012 0.29,0.012C0.255,0.012 0.223,0.006 0.194,-0.007C0.164,-0.019 0.138,-0.036 0.117,-0.058C0.096,-0.08 0.079,-0.106 0.067,-0.136C0.054,-0.166 0.048,-0.199 0.048,-0.234C0.048,-0.269 0.054,-0.302 0.066,-0.332C0.078,-0.362 0.095,-0.388 0.116,-0.41C0.137,-0.432 0.162,-0.449 0.191,-0.462C0.22,-0.474 0.251,-0.48 0.284,-0.48C0.319,-0.48 0.351,-0.474 0.379,-0.461C0.407,-0.448 0.431,-0.432 0.45,-0.411C0.468,-0.39 0.483,-0.365 0.493,-0.337C0.503,-0.308 0.508,-0.278 0.508,-0.246L0.508,-0.216L0.118,-0.216Z" style="fill:rgb(0,11,255);fill-rule:nonzero;"/>
            </g>
            <g transform="matrix(90.1968,0,0,90.1968,523.609,460.167)">
                <path d="M0.193,-0.25L0.023,-0.468L0.113,-0.468L0.243,-0.293L0.367,-0.468L0.449,-0.468L0.286,-0.25L0.482,-0L0.392,-0L0.235,-0.205L0.084,-0L0,-0L0.193,-0.25Z" style="fill:rgb(0,11,255);fill-rule:nonzero;"/>
            </g>
            <g transform="matrix(90.1968,0,0,90.1968,567.083,460.167)">
                <path d="M0.499,-0.234C0.499,-0.26 0.495,-0.284 0.487,-0.307C0.478,-0.33 0.466,-0.349 0.451,-0.366C0.436,-0.383 0.417,-0.396 0.396,-0.406C0.374,-0.415 0.349,-0.42 0.322,-0.42C0.295,-0.42 0.27,-0.415 0.247,-0.406C0.224,-0.396 0.205,-0.383 0.188,-0.366C0.171,-0.349 0.158,-0.33 0.149,-0.307C0.14,-0.284 0.135,-0.26 0.135,-0.234C0.135,-0.208 0.14,-0.184 0.149,-0.161C0.158,-0.138 0.171,-0.119 0.188,-0.102C0.205,-0.085 0.224,-0.072 0.247,-0.063C0.27,-0.053 0.295,-0.048 0.322,-0.048C0.349,-0.048 0.374,-0.053 0.396,-0.063C0.417,-0.072 0.436,-0.085 0.451,-0.102C0.466,-0.119 0.478,-0.138 0.487,-0.161C0.495,-0.184 0.499,-0.208 0.499,-0.234ZM0.072,-0.468L0.138,-0.468L0.138,-0.39L0.14,-0.39C0.151,-0.406 0.163,-0.42 0.178,-0.431C0.193,-0.442 0.208,-0.452 0.224,-0.459C0.24,-0.466 0.257,-0.472 0.274,-0.475C0.291,-0.478 0.307,-0.48 0.322,-0.48C0.359,-0.48 0.392,-0.474 0.423,-0.462C0.453,-0.449 0.479,-0.432 0.501,-0.41C0.523,-0.388 0.54,-0.362 0.553,-0.332C0.565,-0.302 0.571,-0.269 0.571,-0.234C0.571,-0.199 0.565,-0.166 0.553,-0.136C0.54,-0.106 0.523,-0.08 0.501,-0.058C0.479,-0.036 0.453,-0.019 0.423,-0.007C0.392,0.006 0.359,0.012 0.322,0.012C0.307,0.012 0.291,0.01 0.274,0.007C0.257,0.004 0.24,-0.002 0.224,-0.009C0.208,-0.016 0.193,-0.026 0.178,-0.037C0.163,-0.048 0.151,-0.062 0.14,-0.078L0.138,-0.078L0.138,0.288L0.072,0.288L0.072,-0.468Z" style="fill:rgb(0,11,255);fill-rule:nonzero;"/>
            </g>
            <g transform="matrix(90.1968,0,0,90.1968,622.194,460.167)">
                <rect x="0.087" y="-0.756" width="0.066" height="0.756" style="fill:rgb(0,11,255);fill-rule:nonzero;"/>
            </g>
            <g transform="matrix(90.1968,0,0,90.1968,643.841,460.167)">
                <path d="M0.168,-0.648C0.168,-0.634 0.163,-0.623 0.153,-0.614C0.143,-0.604 0.132,-0.6 0.12,-0.6C0.108,-0.6 0.097,-0.604 0.087,-0.614C0.077,-0.623 0.072,-0.634 0.072,-0.648C0.072,-0.662 0.077,-0.674 0.087,-0.683C0.097,-0.692 0.108,-0.696 0.12,-0.696C0.132,-0.696 0.143,-0.692 0.153,-0.683C0.163,-0.674 0.168,-0.662 0.168,-0.648ZM0.153,-0L0.087,-0L0.087,-0.468L0.153,-0.468L0.153,-0Z" style="fill:rgb(0,11,255);fill-rule:nonzero;"/>
            </g>
            <g transform="matrix(90.1968,0,0,90.1968,665.488,460.167)">
                <path d="M0.413,-0.358C0.402,-0.375 0.386,-0.39 0.366,-0.402C0.345,-0.414 0.322,-0.42 0.296,-0.42C0.269,-0.421 0.244,-0.416 0.223,-0.407C0.201,-0.398 0.182,-0.385 0.167,-0.368C0.152,-0.351 0.14,-0.332 0.132,-0.309C0.124,-0.286 0.12,-0.261 0.12,-0.234C0.12,-0.207 0.124,-0.183 0.132,-0.16C0.14,-0.136 0.152,-0.117 0.167,-0.1C0.182,-0.083 0.201,-0.07 0.223,-0.061C0.244,-0.052 0.269,-0.047 0.296,-0.048C0.322,-0.048 0.345,-0.054 0.366,-0.066C0.386,-0.078 0.402,-0.093 0.413,-0.11L0.467,-0.069C0.444,-0.042 0.417,-0.022 0.388,-0.009C0.359,0.005 0.328,0.011 0.296,0.012C0.258,0.013 0.224,0.007 0.193,-0.006C0.162,-0.018 0.136,-0.035 0.115,-0.057C0.093,-0.079 0.076,-0.105 0.065,-0.136C0.054,-0.166 0.048,-0.199 0.048,-0.234C0.048,-0.269 0.054,-0.302 0.065,-0.333C0.076,-0.363 0.093,-0.389 0.115,-0.411C0.136,-0.433 0.162,-0.45 0.193,-0.463C0.224,-0.475 0.258,-0.481 0.296,-0.48C0.328,-0.479 0.359,-0.472 0.388,-0.46C0.417,-0.447 0.444,-0.426 0.467,-0.399L0.413,-0.358Z" style="fill:rgb(0,11,255);fill-rule:nonzero;"/>
            </g>
            <g transform="matrix(90.1968,0,0,90.1968,708.963,460.167)">
                <path d="M0.168,-0.648C0.168,-0.634 0.163,-0.623 0.153,-0.614C0.143,-0.604 0.132,-0.6 0.12,-0.6C0.108,-0.6 0.097,-0.604 0.087,-0.614C0.077,-0.623 0.072,-0.634 0.072,-0.648C0.072,-0.662 0.077,-0.674 0.087,-0.683C0.097,-0.692 0.108,-0.696 0.12,-0.696C0.132,-0.696 0.143,-0.692 0.153,-0.683C0.163,-0.674 0.168,-0.662 0.168,-0.648ZM0.153,-0L0.087,-0L0.087,-0.468L0.153,-0.468L0.153,-0Z" style="fill:rgb(0,11,255);fill-rule:nonzero;"/>
            </g>
            <g transform="matrix(90.1968,0,0,90.1968,730.61,460.167)">
                <path d="M0.314,-0.408L0.179,-0.408L0.179,-0.132C0.179,-0.115 0.181,-0.1 0.184,-0.09C0.187,-0.079 0.192,-0.07 0.198,-0.064C0.204,-0.058 0.211,-0.054 0.22,-0.052C0.228,-0.049 0.237,-0.048 0.247,-0.048C0.258,-0.048 0.27,-0.05 0.282,-0.053C0.294,-0.056 0.305,-0.061 0.315,-0.066L0.318,-0.005C0.293,0.006 0.264,0.012 0.229,0.012C0.216,0.012 0.203,0.01 0.19,0.007C0.176,0.004 0.163,-0.003 0.152,-0.012C0.141,-0.021 0.131,-0.034 0.124,-0.05C0.117,-0.066 0.113,-0.087 0.113,-0.113L0.113,-0.408L0.014,-0.408L0.014,-0.468L0.113,-0.468L0.113,-0.6L0.179,-0.6L0.179,-0.468L0.314,-0.468L0.314,-0.408Z" style="fill:rgb(0,11,255);fill-rule:nonzero;"/>
            </g>
            <g transform="matrix(90.1968,0,0,90.1968,785.63,460.167)">
                <path d="M0.168,-0.066L0.547,-0.066L0.547,-0L0.096,-0L0.096,-0.708L0.535,-0.708L0.535,-0.642L0.168,-0.642L0.168,-0.401L0.511,-0.401L0.511,-0.335L0.168,-0.335L0.168,-0.066Z" style="fill:rgb(0,11,255);fill-rule:nonzero;"/>
            </g>
            <g transform="matrix(90.1968,0,0,90.1968,839.117,460.167)">
                <path d="M0.41,-0C0.409,-0.013 0.408,-0.025 0.408,-0.038C0.407,-0.05 0.407,-0.062 0.407,-0.075L0.405,-0.075C0.398,-0.062 0.388,-0.051 0.377,-0.04C0.366,-0.029 0.353,-0.02 0.339,-0.013C0.325,-0.005 0.31,0.001 0.295,0.006C0.279,0.01 0.263,0.012 0.248,0.012C0.188,0.012 0.144,-0.004 0.115,-0.036C0.086,-0.067 0.072,-0.112 0.072,-0.171L0.072,-0.468L0.138,-0.468L0.138,-0.209C0.138,-0.183 0.14,-0.16 0.144,-0.14C0.148,-0.12 0.155,-0.103 0.165,-0.09C0.174,-0.076 0.187,-0.066 0.204,-0.059C0.22,-0.051 0.24,-0.048 0.265,-0.048C0.268,-0.048 0.278,-0.049 0.293,-0.052C0.308,-0.055 0.325,-0.062 0.342,-0.074C0.359,-0.086 0.374,-0.104 0.387,-0.128C0.4,-0.152 0.407,-0.185 0.407,-0.228L0.407,-0.468L0.473,-0.468L0.473,-0.103C0.473,-0.09 0.474,-0.074 0.475,-0.055C0.476,-0.036 0.477,-0.017 0.478,-0L0.41,-0Z" style="fill:rgb(0,11,255);fill-rule:nonzero;"/>
            </g>
            <g transform="matrix(90.1968,0,0,90.1968,889.266,460.167)">
                <rect x="0.087" y="-0.756" width="0.066" height="0.756" style="fill:rgb(0,11,255);fill-rule:nonzero;"/>
            </g>
            <g transform="matrix(90.1968,0,0,90.1968,910.914,460.167)">
                <path d="M0.436,-0.27C0.436,-0.315 0.423,-0.351 0.396,-0.379C0.369,-0.406 0.332,-0.42 0.284,-0.42C0.263,-0.42 0.242,-0.416 0.222,-0.408C0.202,-0.399 0.185,-0.388 0.17,-0.374C0.155,-0.36 0.142,-0.344 0.134,-0.326C0.125,-0.308 0.12,-0.289 0.12,-0.27L0.436,-0.27ZM0.118,-0.216C0.12,-0.193 0.126,-0.171 0.135,-0.15C0.144,-0.129 0.157,-0.112 0.172,-0.097C0.187,-0.082 0.205,-0.07 0.225,-0.061C0.245,-0.052 0.267,-0.048 0.29,-0.048C0.325,-0.048 0.356,-0.056 0.382,-0.073C0.407,-0.089 0.427,-0.108 0.44,-0.129L0.491,-0.087C0.463,-0.052 0.432,-0.026 0.399,-0.011C0.365,0.004 0.329,0.012 0.29,0.012C0.255,0.012 0.223,0.006 0.194,-0.007C0.164,-0.019 0.138,-0.036 0.117,-0.058C0.096,-0.08 0.079,-0.106 0.067,-0.136C0.054,-0.166 0.048,-0.199 0.048,-0.234C0.048,-0.269 0.054,-0.302 0.066,-0.332C0.078,-0.362 0.095,-0.388 0.116,-0.41C0.137,-0.432 0.162,-0.449 0.191,-0.462C0.22,-0.474 0.251,-0.48 0.284,-0.48C0.319,-0.48 0.351,-0.474 0.379,-0.461C0.407,-0.448 0.431,-0.432 0.45,-0.411C0.468,-0.39 0.483,-0.365 0.493,-0.337C0.503,-0.308 0.508,-0.278 0.508,-0.246L0.508,-0.216L0.118,-0.216Z" style="fill:rgb(0,11,255);fill-rule:nonzero;"/>
            </g>
            <g transform="matrix(90.1968,0,0,90.1968,961.063,460.167)">
                <path d="M0.079,-0.322C0.079,-0.343 0.079,-0.364 0.078,-0.385C0.077,-0.406 0.076,-0.434 0.075,-0.468L0.14,-0.468L0.14,-0.381L0.142,-0.381C0.147,-0.394 0.153,-0.406 0.162,-0.418C0.171,-0.429 0.181,-0.44 0.194,-0.449C0.206,-0.458 0.22,-0.466 0.237,-0.472C0.253,-0.477 0.271,-0.48 0.292,-0.48C0.311,-0.48 0.327,-0.478 0.341,-0.474L0.328,-0.409C0.319,-0.412 0.307,-0.414 0.29,-0.414C0.265,-0.414 0.243,-0.409 0.225,-0.4C0.207,-0.39 0.192,-0.378 0.18,-0.363C0.168,-0.347 0.159,-0.331 0.154,-0.314C0.148,-0.297 0.145,-0.28 0.145,-0.264L0.145,-0L0.079,-0L0.079,-0.322Z" style="fill:rgb(0,11,255);fill-rule:nonzero;"/>
            </g>
        </g>
        <g transform="matrix(1.38003,0,0,1.38003,-349.885,-547.023)">
            <path d="M766.033,1629.7L760.273,1629.7L760.273,1641.47C760.273,1642.21 760.344,1642.82 760.486,1643.29C760.628,1643.75 760.828,1644.12 761.084,1644.37C761.34,1644.63 761.645,1644.81 762.001,1644.91C762.356,1645.01 762.748,1645.06 763.174,1645.06C763.658,1645.06 764.155,1644.98 764.667,1644.84C765.179,1644.7 765.649,1644.52 766.075,1644.29L766.203,1646.89C765.151,1647.37 763.885,1647.62 762.406,1647.62C761.866,1647.62 761.304,1647.54 760.721,1647.4C760.138,1647.26 759.605,1646.99 759.121,1646.59C758.637,1646.19 758.239,1645.65 757.926,1644.97C757.613,1644.29 757.457,1643.39 757.457,1642.28L757.457,1629.7L753.233,1629.7L753.233,1627.14L757.457,1627.14L757.457,1621.5L760.273,1621.5L760.273,1627.14L766.033,1627.14L766.033,1629.7Z" style="fill:rgb(57,186,38);fill-rule:nonzero;stroke:rgb(57,186,38);stroke-width:0.72px;stroke-linecap:butt;stroke-miterlimit:2;"/>
            <path d="M770.171,1633.37C770.171,1632.48 770.15,1631.59 770.107,1630.68C770.065,1629.77 770.029,1628.59 770.001,1627.14L772.774,1627.14L772.774,1630.85L772.859,1630.85C773.058,1630.31 773.343,1629.79 773.712,1629.29C774.082,1628.79 774.53,1628.35 775.056,1627.95C775.583,1627.55 776.194,1627.23 776.891,1626.99C777.588,1626.75 778.377,1626.62 779.259,1626.62C780.055,1626.62 780.752,1626.71 781.349,1626.88L780.795,1629.65C780.425,1629.51 779.885,1629.44 779.174,1629.44C778.093,1629.44 777.168,1629.65 776.4,1630.06C775.632,1630.47 774.992,1631 774.48,1631.64C773.968,1632.28 773.592,1632.97 773.35,1633.71C773.108,1634.45 772.987,1635.16 772.987,1635.84L772.987,1647.1L770.171,1647.1L770.171,1633.37Z" style="fill:rgb(57,186,38);fill-rule:nonzero;stroke:rgb(57,186,38);stroke-width:0.72px;stroke-linecap:butt;stroke-miterlimit:2;"/>
            <path d="M798.458,1647.1C798.401,1646.56 798.366,1646.03 798.352,1645.5C798.337,1644.98 798.33,1644.44 798.33,1643.9L798.245,1643.9C797.932,1644.44 797.534,1644.94 797.05,1645.4C796.567,1645.85 796.026,1646.24 795.429,1646.57C794.832,1646.9 794.199,1647.15 793.53,1647.34C792.862,1647.52 792.201,1647.62 791.546,1647.62C788.987,1647.62 787.095,1646.94 785.872,1645.59C784.649,1644.24 784.037,1642.31 784.037,1639.81L784.037,1627.14L786.853,1627.14L786.853,1638.19C786.853,1639.3 786.939,1640.28 787.109,1641.13C787.28,1641.98 787.571,1642.7 787.984,1643.29C788.396,1643.87 788.951,1644.31 789.648,1644.61C790.345,1644.91 791.219,1645.06 792.272,1645.06C792.414,1645.06 792.812,1645 793.466,1644.88C794.121,1644.77 794.81,1644.46 795.536,1643.95C796.261,1643.43 796.908,1642.67 797.477,1641.64C798.046,1640.62 798.33,1639.2 798.33,1637.38L798.33,1627.14L801.146,1627.14L801.146,1642.71C801.146,1643.25 801.167,1643.93 801.21,1644.76C801.253,1645.58 801.303,1646.36 801.359,1647.1L798.458,1647.1Z" style="fill:rgb(57,186,38);fill-rule:nonzero;stroke:rgb(57,186,38);stroke-width:0.72px;stroke-linecap:butt;stroke-miterlimit:2;"/>
            <path d="M823.289,1635.58C823.289,1633.68 822.72,1632.13 821.583,1630.95C820.445,1629.77 818.852,1629.18 816.804,1629.18C815.894,1629.18 815.012,1629.36 814.159,1629.72C813.306,1630.07 812.559,1630.55 811.919,1631.15C811.279,1631.74 810.767,1632.43 810.383,1633.19C809.999,1633.96 809.807,1634.76 809.807,1635.58L823.289,1635.58ZM809.722,1637.89C809.807,1638.88 810.049,1639.82 810.447,1640.7C810.845,1641.59 811.371,1642.35 812.026,1642.99C812.68,1643.63 813.434,1644.13 814.287,1644.5C815.14,1644.87 816.065,1645.06 817.06,1645.06C818.568,1645.06 819.869,1644.71 820.964,1644.01C822.059,1643.31 822.891,1642.51 823.46,1641.6L825.636,1643.39C824.441,1644.9 823.126,1645.98 821.689,1646.63C820.253,1647.29 818.71,1647.62 817.06,1647.62C815.581,1647.62 814.209,1647.35 812.943,1646.83C811.677,1646.3 810.589,1645.57 809.679,1644.63C808.769,1643.69 808.051,1642.58 807.525,1641.3C806.998,1640.02 806.735,1638.63 806.735,1637.12C806.735,1635.61 806.991,1634.22 807.503,1632.94C808.015,1631.66 808.726,1630.55 809.636,1629.61C810.547,1628.67 811.613,1627.94 812.836,1627.41C814.059,1626.89 815.382,1626.62 816.804,1626.62C818.312,1626.62 819.663,1626.89 820.857,1627.43C822.052,1627.98 823.055,1628.69 823.865,1629.59C824.676,1630.49 825.295,1631.54 825.721,1632.75C826.148,1633.95 826.361,1635.24 826.361,1636.61L826.361,1637.89L809.722,1637.89Z" style="fill:rgb(57,186,38);fill-rule:nonzero;stroke:rgb(57,186,38);stroke-width:0.72px;stroke-linecap:butt;stroke-miterlimit:2;"/>
            <path d="M853.923,1631.87C853.496,1631.05 852.927,1630.39 852.216,1629.91C851.505,1629.43 850.638,1629.18 849.614,1629.18C849.13,1629.18 848.639,1629.24 848.142,1629.35C847.644,1629.47 847.196,1629.65 846.798,1629.89C846.4,1630.13 846.08,1630.43 845.838,1630.81C845.596,1631.17 845.475,1631.63 845.475,1632.17C845.475,1633.11 845.802,1633.79 846.456,1634.22C847.111,1634.64 848.092,1635.02 849.4,1635.33L852.259,1636.01C853.653,1636.32 854.812,1636.96 855.736,1637.91C856.66,1638.86 857.123,1640.05 857.123,1641.47C857.123,1642.55 856.902,1643.48 856.461,1644.27C856.021,1645.05 855.437,1645.69 854.712,1646.19C853.987,1646.68 853.155,1647.05 852.216,1647.27C851.278,1647.5 850.325,1647.62 849.358,1647.62C847.822,1647.62 846.392,1647.32 845.07,1646.74C843.747,1646.16 842.617,1645.15 841.678,1643.73L844.11,1642.07C844.679,1642.98 845.397,1643.7 846.264,1644.25C847.132,1644.79 848.163,1645.06 849.358,1645.06C849.927,1645.06 850.495,1644.99 851.064,1644.86C851.633,1644.74 852.138,1644.54 852.579,1644.27C853.02,1644 853.375,1643.65 853.645,1643.22C853.916,1642.79 854.051,1642.3 854.051,1641.73C854.051,1640.73 853.681,1640.01 852.942,1639.57C852.202,1639.13 851.306,1638.78 850.254,1638.53L847.523,1637.89C847.182,1637.8 846.72,1637.66 846.136,1637.46C845.553,1637.26 844.984,1636.96 844.43,1636.57C843.875,1636.17 843.399,1635.65 843.001,1635.01C842.602,1634.37 842.403,1633.58 842.403,1632.64C842.403,1631.62 842.609,1630.72 843.022,1629.95C843.434,1629.18 843.989,1628.56 844.686,1628.07C845.383,1627.59 846.172,1627.23 847.054,1626.99C847.935,1626.75 848.846,1626.62 849.784,1626.62C851.178,1626.62 852.472,1626.89 853.667,1627.43C854.861,1627.98 855.786,1628.9 856.44,1630.21L853.923,1631.87Z" style="fill:rgb(57,186,38);fill-rule:nonzero;stroke:rgb(57,186,38);stroke-width:0.72px;stroke-linecap:butt;stroke-miterlimit:2;"/>
            <path d="M878.626,1637.12C878.626,1636.01 878.448,1634.97 878.093,1634.01C877.737,1633.04 877.232,1632.2 876.578,1631.49C875.924,1630.78 875.134,1630.22 874.21,1629.8C873.286,1629.39 872.24,1629.18 871.074,1629.18C869.908,1629.18 868.863,1629.39 867.938,1629.8C867.014,1630.22 866.232,1630.78 865.592,1631.49C864.952,1632.2 864.454,1633.04 864.098,1634.01C863.743,1634.97 863.565,1636.01 863.565,1637.12C863.565,1638.23 863.743,1639.27 864.098,1640.23C864.454,1641.2 864.952,1642.04 865.592,1642.75C866.232,1643.46 867.014,1644.02 867.938,1644.44C868.863,1644.85 869.908,1645.06 871.074,1645.06C872.24,1645.06 873.286,1644.85 874.21,1644.44C875.134,1644.02 875.924,1643.46 876.578,1642.75C877.232,1642.04 877.737,1641.2 878.093,1640.23C878.448,1639.27 878.626,1638.23 878.626,1637.12ZM881.698,1637.12C881.698,1638.63 881.435,1640.02 880.908,1641.3C880.382,1642.58 879.65,1643.69 878.711,1644.63C877.773,1645.57 876.656,1646.3 875.362,1646.83C874.068,1647.35 872.639,1647.62 871.074,1647.62C869.538,1647.62 868.123,1647.35 866.829,1646.83C865.535,1646.3 864.418,1645.57 863.48,1644.63C862.541,1643.69 861.809,1642.58 861.283,1641.3C860.756,1640.02 860.493,1638.63 860.493,1637.12C860.493,1635.61 860.756,1634.22 861.283,1632.94C861.809,1631.66 862.541,1630.55 863.48,1629.61C864.418,1628.67 865.535,1627.94 866.829,1627.41C868.123,1626.89 869.538,1626.62 871.074,1626.62C872.639,1626.62 874.068,1626.89 875.362,1627.41C876.656,1627.94 877.773,1628.67 878.711,1629.61C879.65,1630.55 880.382,1631.66 880.908,1632.94C881.435,1634.22 881.698,1635.61 881.698,1637.12Z" style="fill:rgb(57,186,38);fill-rule:nonzero;stroke:rgb(57,186,38);stroke-width:0.72px;stroke-linecap:butt;stroke-miterlimit:2;"/>
            <rect x="887.458" y="1614.85" width="2.816" height="32.255" style="fill:rgb(57,186,38);fill-rule:nonzero;stroke:rgb(57,186,38);stroke-width:0.72px;stroke-linecap:butt;stroke-miterlimit:2;"/>
            <path d="M911.478,1647.1C911.421,1646.56 911.386,1646.03 911.371,1645.5C911.357,1644.98 911.35,1644.44 911.35,1643.9L911.265,1643.9C910.952,1644.44 910.554,1644.94 910.07,1645.4C909.587,1645.85 909.046,1646.24 908.449,1646.57C907.851,1646.9 907.219,1647.15 906.55,1647.34C905.882,1647.52 905.22,1647.62 904.566,1647.62C902.006,1647.62 900.115,1646.94 898.892,1645.59C897.669,1644.24 897.057,1642.31 897.057,1639.81L897.057,1627.14L899.873,1627.14L899.873,1638.19C899.873,1639.3 899.958,1640.28 900.129,1641.13C900.3,1641.98 900.591,1642.7 901.004,1643.29C901.416,1643.87 901.971,1644.31 902.668,1644.61C903.365,1644.91 904.239,1645.06 905.292,1645.06C905.434,1645.06 905.832,1645 906.486,1644.88C907.14,1644.77 907.83,1644.46 908.555,1643.95C909.281,1643.43 909.928,1642.67 910.497,1641.64C911.066,1640.62 911.35,1639.2 911.35,1637.38L911.35,1627.14L914.166,1627.14L914.166,1642.71C914.166,1643.25 914.187,1643.93 914.23,1644.76C914.273,1645.58 914.322,1646.36 914.379,1647.1L911.478,1647.1Z" style="fill:rgb(57,186,38);fill-rule:nonzero;stroke:rgb(57,186,38);stroke-width:0.72px;stroke-linecap:butt;stroke-miterlimit:2;"/>
            <path d="M931.104,1629.7L925.344,1629.7L925.344,1641.47C925.344,1642.21 925.415,1642.82 925.557,1643.29C925.7,1643.75 925.899,1644.12 926.155,1644.37C926.411,1644.63 926.717,1644.81 927.072,1644.91C927.428,1645.01 927.819,1645.06 928.245,1645.06C928.729,1645.06 929.227,1644.98 929.739,1644.84C930.251,1644.7 930.72,1644.52 931.147,1644.29L931.275,1646.89C930.222,1647.37 928.956,1647.62 927.477,1647.62C926.937,1647.62 926.375,1647.54 925.792,1647.4C925.209,1647.26 924.676,1646.99 924.192,1646.59C923.709,1646.19 923.31,1645.65 922.998,1644.97C922.685,1644.29 922.528,1643.39 922.528,1642.28L922.528,1629.7L918.304,1629.7L918.304,1627.14L922.528,1627.14L922.528,1621.5L925.344,1621.5L925.344,1627.14L931.104,1627.14L931.104,1629.7Z" style="fill:rgb(57,186,38);fill-rule:nonzero;stroke:rgb(57,186,38);stroke-width:0.72px;stroke-linecap:butt;stroke-miterlimit:2;"/>
            <path d="M939.04,1619.46C939.04,1620.05 938.826,1620.54 938.4,1620.93C937.973,1621.31 937.504,1621.5 936.992,1621.5C936.48,1621.5 936.01,1621.31 935.584,1620.93C935.157,1620.54 934.944,1620.05 934.944,1619.46C934.944,1618.86 935.157,1618.37 935.584,1617.98C936.01,1617.6 936.48,1617.41 936.992,1617.41C937.504,1617.41 937.973,1617.6 938.4,1617.98C938.826,1618.37 939.04,1618.86 939.04,1619.46ZM938.4,1647.1L935.584,1647.1L935.584,1627.14L938.4,1627.14L938.4,1647.1Z" style="fill:rgb(57,186,38);fill-rule:nonzero;stroke:rgb(57,186,38);stroke-width:0.72px;stroke-linecap:butt;stroke-miterlimit:2;"/>
            <path d="M962.292,1637.12C962.292,1636.01 962.114,1634.97 961.759,1634.01C961.403,1633.04 960.898,1632.2 960.244,1631.49C959.59,1630.78 958.801,1630.22 957.876,1629.8C956.952,1629.39 955.907,1629.18 954.74,1629.18C953.574,1629.18 952.529,1629.39 951.605,1629.8C950.68,1630.22 949.898,1630.78 949.258,1631.49C948.618,1632.2 948.12,1633.04 947.765,1634.01C947.409,1634.97 947.231,1636.01 947.231,1637.12C947.231,1638.23 947.409,1639.27 947.765,1640.23C948.12,1641.2 948.618,1642.04 949.258,1642.75C949.898,1643.46 950.68,1644.02 951.605,1644.44C952.529,1644.85 953.574,1645.06 954.74,1645.06C955.907,1645.06 956.952,1644.85 957.876,1644.44C958.801,1644.02 959.59,1643.46 960.244,1642.75C960.898,1642.04 961.403,1641.2 961.759,1640.23C962.114,1639.27 962.292,1638.23 962.292,1637.12ZM965.364,1637.12C965.364,1638.63 965.101,1640.02 964.575,1641.3C964.049,1642.58 963.316,1643.69 962.377,1644.63C961.439,1645.57 960.322,1646.3 959.028,1646.83C957.734,1647.35 956.305,1647.62 954.74,1647.62C953.204,1647.62 951.789,1647.35 950.495,1646.83C949.201,1646.3 948.085,1645.57 947.146,1644.63C946.207,1643.69 945.475,1642.58 944.949,1641.3C944.423,1640.02 944.159,1638.63 944.159,1637.12C944.159,1635.61 944.423,1634.22 944.949,1632.94C945.475,1631.66 946.207,1630.55 947.146,1629.61C948.085,1628.67 949.201,1627.94 950.495,1627.41C951.789,1626.89 953.204,1626.62 954.74,1626.62C956.305,1626.62 957.734,1626.89 959.028,1627.41C960.322,1627.94 961.439,1628.67 962.377,1629.61C963.316,1630.55 964.049,1631.66 964.575,1632.94C965.101,1634.22 965.364,1635.61 965.364,1637.12Z" style="fill:rgb(57,186,38);fill-rule:nonzero;stroke:rgb(57,186,38);stroke-width:0.72px;stroke-linecap:butt;stroke-miterlimit:2;"/>
            <path d="M973.172,1627.14C973.229,1627.68 973.264,1628.21 973.278,1628.74C973.293,1629.26 973.3,1629.8 973.3,1630.34L973.385,1630.34C973.698,1629.8 974.096,1629.3 974.58,1628.84C975.063,1628.39 975.604,1628 976.201,1627.67C976.798,1627.34 977.431,1627.09 978.1,1626.9C978.768,1626.72 979.429,1626.62 980.083,1626.62C982.643,1626.62 984.535,1627.3 985.758,1628.65C986.981,1630 987.593,1631.93 987.593,1634.43L987.593,1647.1L984.777,1647.1L984.777,1636.05C984.777,1633.83 984.393,1632.13 983.625,1630.95C982.857,1629.77 981.435,1629.18 979.358,1629.18C979.216,1629.18 978.818,1629.24 978.164,1629.35C977.509,1629.47 976.82,1629.78 976.094,1630.29C975.369,1630.81 974.722,1631.57 974.153,1632.6C973.584,1633.62 973.3,1635.04 973.3,1636.86L973.3,1647.1L970.484,1647.1L970.484,1631.53C970.484,1630.99 970.463,1630.31 970.42,1629.48C970.377,1628.66 970.327,1627.88 970.271,1627.14L973.172,1627.14Z" style="fill:rgb(57,186,38);fill-rule:nonzero;stroke:rgb(57,186,38);stroke-width:0.72px;stroke-linecap:butt;stroke-miterlimit:2;"/>
        </g>
    </g>
</svg>
