<?xml version="1.0" encoding="utf-8" standalone="no"?>
<!DOCTYPE svg PUBLIC "-//W3C//DTD SVG 1.1//EN"
  "http://www.w3.org/Graphics/SVG/1.1/DTD/svg11.dtd">
<svg xmlns:xlink="http://www.w3.org/1999/xlink" width="432pt" height="432pt" viewBox="0 0 432 432" xmlns="http://www.w3.org/2000/svg" version="1.1">
 <metadata>
  <rdf:RDF xmlns:dc="http://purl.org/dc/elements/1.1/" xmlns:cc="http://creativecommons.org/ns#" xmlns:rdf="http://www.w3.org/1999/02/22-rdf-syntax-ns#">
   <cc:Work>
    <dc:type rdf:resource="http://purl.org/dc/dcmitype/StillImage"/>
    <dc:date>2024-02-11T12:56:45.427854</dc:date>
    <dc:format>image/svg+xml</dc:format>
    <dc:creator>
     <cc:Agent>
      <dc:title>Matplotlib v3.5.1, https://matplotlib.org/</dc:title>
     </cc:Agent>
    </dc:creator>
   </cc:Work>
  </rdf:RDF>
 </metadata>
 <defs>
  <style type="text/css">*{stroke-linejoin: round; stroke-linecap: butt}</style>
 </defs>
 <g id="figure_1">
  <g id="patch_1">
   <path d="M 0 432 
L 432 432 
L 432 0 
L 0 0 
z
" style="fill: #ffffff"/>
  </g>
  <g id="axes_1">
   <g id="patch_2">
    <path d="M 33.64 205.4 
L 421.2 205.4 
L 421.2 50.64 
L 33.64 50.64 
z
" style="fill: #ffffff"/>
   </g>
   <g id="matplotlib.axis_1">
    <g id="xtick_1">
     <g id="line2d_1">
      <defs>
       <path id="m88effd9622" d="M 0 0 
L 0 3.5 
" style="stroke: #000000; stroke-width: 0.8"/>
      </defs>
      <g>
       <use xlink:href="#m88effd9622" x="51.256364" y="205.4" style="stroke: #000000; stroke-width: 0.8"/>
      </g>
     </g>
     <g id="text_1">
      <!-- 0 -->
      <g transform="translate(48.075114 219.998437)scale(0.1 -0.1)">
       <defs>
        <path id="DejaVuSans-30" d="M 2034 4250 
Q 1547 4250 1301 3770 
Q 1056 3291 1056 2328 
Q 1056 1369 1301 889 
Q 1547 409 2034 409 
Q 2525 409 2770 889 
Q 3016 1369 3016 2328 
Q 3016 3291 2770 3770 
Q 2525 4250 2034 4250 
z
M 2034 4750 
Q 2819 4750 3233 4129 
Q 3647 3509 3647 2328 
Q 3647 1150 3233 529 
Q 2819 -91 2034 -91 
Q 1250 -91 836 529 
Q 422 1150 422 2328 
Q 422 3509 836 4129 
Q 1250 4750 2034 4750 
z
" transform="scale(0.015625)"/>
       </defs>
       <use xlink:href="#DejaVuSans-30"/>
      </g>
     </g>
    </g>
    <g id="xtick_2">
     <g id="line2d_2">
      <g>
       <use xlink:href="#m88effd9622" x="121.721818" y="205.4" style="stroke: #000000; stroke-width: 0.8"/>
      </g>
     </g>
     <g id="text_2">
      <!-- 2 -->
      <g transform="translate(118.540568 219.998437)scale(0.1 -0.1)">
       <defs>
        <path id="DejaVuSans-32" d="M 1228 531 
L 3431 531 
L 3431 0 
L 469 0 
L 469 531 
Q 828 903 1448 1529 
Q 2069 2156 2228 2338 
Q 2531 2678 2651 2914 
Q 2772 3150 2772 3378 
Q 2772 3750 2511 3984 
Q 2250 4219 1831 4219 
Q 1534 4219 1204 4116 
Q 875 4013 500 3803 
L 500 4441 
Q 881 4594 1212 4672 
Q 1544 4750 1819 4750 
Q 2544 4750 2975 4387 
Q 3406 4025 3406 3419 
Q 3406 3131 3298 2873 
Q 3191 2616 2906 2266 
Q 2828 2175 2409 1742 
Q 1991 1309 1228 531 
z
" transform="scale(0.015625)"/>
       </defs>
       <use xlink:href="#DejaVuSans-32"/>
      </g>
     </g>
    </g>
    <g id="xtick_3">
     <g id="line2d_3">
      <g>
       <use xlink:href="#m88effd9622" x="192.187273" y="205.4" style="stroke: #000000; stroke-width: 0.8"/>
      </g>
     </g>
     <g id="text_3">
      <!-- 4 -->
      <g transform="translate(189.006023 219.998437)scale(0.1 -0.1)">
       <defs>
        <path id="DejaVuSans-34" d="M 2419 4116 
L 825 1625 
L 2419 1625 
L 2419 4116 
z
M 2253 4666 
L 3047 4666 
L 3047 1625 
L 3713 1625 
L 3713 1100 
L 3047 1100 
L 3047 0 
L 2419 0 
L 2419 1100 
L 313 1100 
L 313 1709 
L 2253 4666 
z
" transform="scale(0.015625)"/>
       </defs>
       <use xlink:href="#DejaVuSans-34"/>
      </g>
     </g>
    </g>
    <g id="xtick_4">
     <g id="line2d_4">
      <g>
       <use xlink:href="#m88effd9622" x="262.652727" y="205.4" style="stroke: #000000; stroke-width: 0.8"/>
      </g>
     </g>
     <g id="text_4">
      <!-- 6 -->
      <g transform="translate(259.471477 219.998437)scale(0.1 -0.1)">
       <defs>
        <path id="DejaVuSans-36" d="M 2113 2584 
Q 1688 2584 1439 2293 
Q 1191 2003 1191 1497 
Q 1191 994 1439 701 
Q 1688 409 2113 409 
Q 2538 409 2786 701 
Q 3034 994 3034 1497 
Q 3034 2003 2786 2293 
Q 2538 2584 2113 2584 
z
M 3366 4563 
L 3366 3988 
Q 3128 4100 2886 4159 
Q 2644 4219 2406 4219 
Q 1781 4219 1451 3797 
Q 1122 3375 1075 2522 
Q 1259 2794 1537 2939 
Q 1816 3084 2150 3084 
Q 2853 3084 3261 2657 
Q 3669 2231 3669 1497 
Q 3669 778 3244 343 
Q 2819 -91 2113 -91 
Q 1303 -91 875 529 
Q 447 1150 447 2328 
Q 447 3434 972 4092 
Q 1497 4750 2381 4750 
Q 2619 4750 2861 4703 
Q 3103 4656 3366 4563 
z
" transform="scale(0.015625)"/>
       </defs>
       <use xlink:href="#DejaVuSans-36"/>
      </g>
     </g>
    </g>
    <g id="xtick_5">
     <g id="line2d_5">
      <g>
       <use xlink:href="#m88effd9622" x="333.118182" y="205.4" style="stroke: #000000; stroke-width: 0.8"/>
      </g>
     </g>
     <g id="text_5">
      <!-- 8 -->
      <g transform="translate(329.936932 219.998437)scale(0.1 -0.1)">
       <defs>
        <path id="DejaVuSans-38" d="M 2034 2216 
Q 1584 2216 1326 1975 
Q 1069 1734 1069 1313 
Q 1069 891 1326 650 
Q 1584 409 2034 409 
Q 2484 409 2743 651 
Q 3003 894 3003 1313 
Q 3003 1734 2745 1975 
Q 2488 2216 2034 2216 
z
M 1403 2484 
Q 997 2584 770 2862 
Q 544 3141 544 3541 
Q 544 4100 942 4425 
Q 1341 4750 2034 4750 
Q 2731 4750 3128 4425 
Q 3525 4100 3525 3541 
Q 3525 3141 3298 2862 
Q 3072 2584 2669 2484 
Q 3125 2378 3379 2068 
Q 3634 1759 3634 1313 
Q 3634 634 3220 271 
Q 2806 -91 2034 -91 
Q 1263 -91 848 271 
Q 434 634 434 1313 
Q 434 1759 690 2068 
Q 947 2378 1403 2484 
z
M 1172 3481 
Q 1172 3119 1398 2916 
Q 1625 2713 2034 2713 
Q 2441 2713 2670 2916 
Q 2900 3119 2900 3481 
Q 2900 3844 2670 4047 
Q 2441 4250 2034 4250 
Q 1625 4250 1398 4047 
Q 1172 3844 1172 3481 
z
" transform="scale(0.015625)"/>
       </defs>
       <use xlink:href="#DejaVuSans-38"/>
      </g>
     </g>
    </g>
    <g id="xtick_6">
     <g id="line2d_6">
      <g>
       <use xlink:href="#m88effd9622" x="403.583636" y="205.4" style="stroke: #000000; stroke-width: 0.8"/>
      </g>
     </g>
     <g id="text_6">
      <!-- 10 -->
      <g transform="translate(397.221136 219.998437)scale(0.1 -0.1)">
       <defs>
        <path id="DejaVuSans-31" d="M 794 531 
L 1825 531 
L 1825 4091 
L 703 3866 
L 703 4441 
L 1819 4666 
L 2450 4666 
L 2450 531 
L 3481 531 
L 3481 0 
L 794 0 
L 794 531 
z
" transform="scale(0.015625)"/>
       </defs>
       <use xlink:href="#DejaVuSans-31"/>
       <use xlink:href="#DejaVuSans-30" x="63.623047"/>
      </g>
     </g>
    </g>
   </g>
   <g id="matplotlib.axis_2">
    <g id="ytick_1">
     <g id="line2d_7">
      <defs>
       <path id="mdac74b0814" d="M 0 0 
L -3.5 0 
" style="stroke: #000000; stroke-width: 0.8"/>
      </defs>
      <g>
       <use xlink:href="#mdac74b0814" x="33.64" y="198.365455" style="stroke: #000000; stroke-width: 0.8"/>
      </g>
     </g>
     <g id="text_7">
      <!-- 0.0 -->
      <g transform="translate(10.736875 202.164673)scale(0.1 -0.1)">
       <defs>
        <path id="DejaVuSans-2e" d="M 684 794 
L 1344 794 
L 1344 0 
L 684 0 
L 684 794 
z
" transform="scale(0.015625)"/>
       </defs>
       <use xlink:href="#DejaVuSans-30"/>
       <use xlink:href="#DejaVuSans-2e" x="63.623047"/>
       <use xlink:href="#DejaVuSans-30" x="95.410156"/>
      </g>
     </g>
    </g>
    <g id="ytick_2">
     <g id="line2d_8">
      <g>
       <use xlink:href="#mdac74b0814" x="33.64" y="170.227273" style="stroke: #000000; stroke-width: 0.8"/>
      </g>
     </g>
     <g id="text_8">
      <!-- 0.2 -->
      <g transform="translate(10.736875 174.026491)scale(0.1 -0.1)">
       <use xlink:href="#DejaVuSans-30"/>
       <use xlink:href="#DejaVuSans-2e" x="63.623047"/>
       <use xlink:href="#DejaVuSans-32" x="95.410156"/>
      </g>
     </g>
    </g>
    <g id="ytick_3">
     <g id="line2d_9">
      <g>
       <use xlink:href="#mdac74b0814" x="33.64" y="142.089091" style="stroke: #000000; stroke-width: 0.8"/>
      </g>
     </g>
     <g id="text_9">
      <!-- 0.4 -->
      <g transform="translate(10.736875 145.88831)scale(0.1 -0.1)">
       <use xlink:href="#DejaVuSans-30"/>
       <use xlink:href="#DejaVuSans-2e" x="63.623047"/>
       <use xlink:href="#DejaVuSans-34" x="95.410156"/>
      </g>
     </g>
    </g>
    <g id="ytick_4">
     <g id="line2d_10">
      <g>
       <use xlink:href="#mdac74b0814" x="33.64" y="113.950909" style="stroke: #000000; stroke-width: 0.8"/>
      </g>
     </g>
     <g id="text_10">
      <!-- 0.6 -->
      <g transform="translate(10.736875 117.750128)scale(0.1 -0.1)">
       <use xlink:href="#DejaVuSans-30"/>
       <use xlink:href="#DejaVuSans-2e" x="63.623047"/>
       <use xlink:href="#DejaVuSans-36" x="95.410156"/>
      </g>
     </g>
    </g>
    <g id="ytick_5">
     <g id="line2d_11">
      <g>
       <use xlink:href="#mdac74b0814" x="33.64" y="85.812727" style="stroke: #000000; stroke-width: 0.8"/>
      </g>
     </g>
     <g id="text_11">
      <!-- 0.8 -->
      <g transform="translate(10.736875 89.611946)scale(0.1 -0.1)">
       <use xlink:href="#DejaVuSans-30"/>
       <use xlink:href="#DejaVuSans-2e" x="63.623047"/>
       <use xlink:href="#DejaVuSans-38" x="95.410156"/>
      </g>
     </g>
    </g>
    <g id="ytick_6">
     <g id="line2d_12">
      <g>
       <use xlink:href="#mdac74b0814" x="33.64" y="57.674545" style="stroke: #000000; stroke-width: 0.8"/>
      </g>
     </g>
     <g id="text_12">
      <!-- 1.0 -->
      <g transform="translate(10.736875 61.473764)scale(0.1 -0.1)">
       <use xlink:href="#DejaVuSans-31"/>
       <use xlink:href="#DejaVuSans-2e" x="63.623047"/>
       <use xlink:href="#DejaVuSans-30" x="95.410156"/>
      </g>
     </g>
    </g>
   </g>
   <g id="line2d_13">
    <path d="M 51.256364 57.674545 
L 54.077803 68.501776 
L 56.899243 78.49577 
L 59.720683 87.72065 
L 62.542122 96.235606 
L 65.363562 104.095271 
L 68.185001 111.350076 
L 71.006441 118.046568 
L 73.827881 124.227715 
L 76.64932 129.933175 
L 79.82344 135.828695 
L 82.997559 141.216308 
L 86.171679 146.139773 
L 89.345799 150.639075 
L 92.519918 154.750758 
L 95.694038 158.508214 
L 98.868157 161.941961 
L 102.394957 165.411413 
L 105.921756 168.55039 
L 109.448556 171.390369 
L 112.975355 173.959831 
L 116.854835 176.504471 
L 120.734314 178.783795 
L 124.966474 181.000167 
L 129.198633 182.965676 
L 133.783473 184.844739 
L 138.720992 186.612756 
L 143.658511 188.149581 
L 148.948711 189.573891 
L 154.94427 190.949584 
L 161.292509 192.172315 
L 168.346108 193.295955 
L 176.105067 194.297982 
L 184.569386 195.166636 
L 194.444424 195.948517 
L 205.730183 196.61096 
L 219.132021 197.16608 
L 235.355299 197.608657 
L 256.516096 197.950365 
L 285.788532 198.184605 
L 333.753006 198.319101 
L 403.583636 198.359067 
L 403.583636 198.359067 
" clip-path="url(#p134d6068dd)" style="fill: none; stroke: #1f77b4; stroke-width: 1.5; stroke-linecap: square"/>
   </g>
   <g id="line2d_14">
    <path d="M 51.256364 198.365455 
L 53.372443 190.408112 
L 55.488523 183.378469 
L 57.604603 177.195409 
L 59.720683 171.78412 
L 61.836762 167.075636 
L 63.600162 163.642764 
L 65.363562 160.619635 
L 67.126962 157.974426 
L 68.890361 155.677441 
L 70.653761 153.700986 
L 72.417161 152.01924 
L 74.180561 150.608138 
L 75.94396 149.445264 
L 77.70736 148.509745 
L 79.82344 147.659974 
L 81.93952 147.07868 
L 84.055599 146.737451 
L 86.171679 146.610275 
L 88.640439 146.70081 
L 91.109198 147.016101 
L 93.930638 147.612238 
L 97.104757 148.534876 
L 100.631557 149.813392 
L 104.511036 151.458592 
L 109.448556 153.812009 
L 116.149475 157.286761 
L 138.368312 169.014897 
L 145.421911 172.394685 
L 152.12283 175.364755 
L 158.823749 178.085065 
L 165.171988 180.429367 
L 171.872907 182.663535 
L 178.573827 184.661835 
L 185.627426 186.526667 
L 192.681025 188.16591 
L 200.087304 189.666727 
L 208.198943 191.079012 
L 216.663261 192.32606 
L 225.83294 193.451896 
L 236.060659 194.474548 
L 247.346417 195.368495 
L 260.042896 196.139966 
L 274.502774 196.786868 
L 291.431411 197.315086 
L 312.239529 197.733136 
L 339.395885 198.042468 
L 378.19068 198.2436 
L 403.583636 198.301581 
L 403.583636 198.301581 
" clip-path="url(#p134d6068dd)" style="fill: none; stroke: #ff7f0e; stroke-width: 1.5; stroke-linecap: square"/>
   </g>
   <g id="line2d_15">
    <path d="M 51.256364 198.365455 
L 52.667083 198.257103 
L 54.077803 197.949058 
L 55.841203 197.319586 
L 57.604603 196.458243 
L 59.720683 195.172501 
L 62.189442 193.398818 
L 65.363562 190.808734 
L 69.948401 186.717482 
L 79.82344 177.809179 
L 84.055599 174.334402 
L 87.935079 171.446799 
L 91.461878 169.102143 
L 94.988678 167.04095 
L 98.162797 165.433425 
L 101.336917 164.059756 
L 104.511036 162.915323 
L 107.685156 161.992524 
L 110.859276 161.281494 
L 114.386075 160.725782 
L 117.912875 160.399837 
L 121.439674 160.285179 
L 125.319154 160.380439 
L 129.551313 160.720033 
L 134.136153 161.329193 
L 139.073672 162.222136 
L 144.716551 163.486424 
L 151.06479 165.145865 
L 159.176429 167.513937 
L 172.225587 171.600155 
L 189.154225 176.85412 
L 199.734624 179.895779 
L 209.256982 182.403935 
L 218.426661 184.591924 
L 227.59634 186.551399 
L 236.766019 188.286838 
L 246.288377 189.863813 
L 256.163416 191.274893 
L 266.743815 192.557917 
L 278.029573 193.696516 
L 290.020692 194.68276 
L 303.42253 195.557415 
L 318.235088 196.298187 
L 335.163726 196.919593 
L 355.266483 197.428424 
L 379.95408 197.821878 
L 403.583636 198.046087 
L 403.583636 198.046087 
" clip-path="url(#p134d6068dd)" style="fill: none; stroke: #2ca02c; stroke-width: 1.5; stroke-linecap: square"/>
   </g>
   <g id="patch_3">
    <path d="M 33.64 205.4 
L 33.64 50.64 
" style="fill: none; stroke: #000000; stroke-width: 0.8; stroke-linejoin: miter; stroke-linecap: square"/>
   </g>
   <g id="patch_4">
    <path d="M 421.2 205.4 
L 421.2 50.64 
" style="fill: none; stroke: #000000; stroke-width: 0.8; stroke-linejoin: miter; stroke-linecap: square"/>
   </g>
   <g id="patch_5">
    <path d="M 33.64 205.4 
L 421.2 205.4 
" style="fill: none; stroke: #000000; stroke-width: 0.8; stroke-linejoin: miter; stroke-linecap: square"/>
   </g>
   <g id="patch_6">
    <path d="M 33.64 50.64 
L 421.2 50.64 
" style="fill: none; stroke: #000000; stroke-width: 0.8; stroke-linejoin: miter; stroke-linecap: square"/>
   </g>
   <g id="text_13">
    <!-- Varying Shape Parameter Alpha; Beta = 1 -->
    <g transform="translate(101.598125 44.64)scale(0.12 -0.12)">
     <defs>
      <path id="DejaVuSans-56" d="M 1831 0 
L 50 4666 
L 709 4666 
L 2188 738 
L 3669 4666 
L 4325 4666 
L 2547 0 
L 1831 0 
z
" transform="scale(0.015625)"/>
      <path id="DejaVuSans-61" d="M 2194 1759 
Q 1497 1759 1228 1600 
Q 959 1441 959 1056 
Q 959 750 1161 570 
Q 1363 391 1709 391 
Q 2188 391 2477 730 
Q 2766 1069 2766 1631 
L 2766 1759 
L 2194 1759 
z
M 3341 1997 
L 3341 0 
L 2766 0 
L 2766 531 
Q 2569 213 2275 61 
Q 1981 -91 1556 -91 
Q 1019 -91 701 211 
Q 384 513 384 1019 
Q 384 1609 779 1909 
Q 1175 2209 1959 2209 
L 2766 2209 
L 2766 2266 
Q 2766 2663 2505 2880 
Q 2244 3097 1772 3097 
Q 1472 3097 1187 3025 
Q 903 2953 641 2809 
L 641 3341 
Q 956 3463 1253 3523 
Q 1550 3584 1831 3584 
Q 2591 3584 2966 3190 
Q 3341 2797 3341 1997 
z
" transform="scale(0.015625)"/>
      <path id="DejaVuSans-72" d="M 2631 2963 
Q 2534 3019 2420 3045 
Q 2306 3072 2169 3072 
Q 1681 3072 1420 2755 
Q 1159 2438 1159 1844 
L 1159 0 
L 581 0 
L 581 3500 
L 1159 3500 
L 1159 2956 
Q 1341 3275 1631 3429 
Q 1922 3584 2338 3584 
Q 2397 3584 2469 3576 
Q 2541 3569 2628 3553 
L 2631 2963 
z
" transform="scale(0.015625)"/>
      <path id="DejaVuSans-79" d="M 2059 -325 
Q 1816 -950 1584 -1140 
Q 1353 -1331 966 -1331 
L 506 -1331 
L 506 -850 
L 844 -850 
Q 1081 -850 1212 -737 
Q 1344 -625 1503 -206 
L 1606 56 
L 191 3500 
L 800 3500 
L 1894 763 
L 2988 3500 
L 3597 3500 
L 2059 -325 
z
" transform="scale(0.015625)"/>
      <path id="DejaVuSans-69" d="M 603 3500 
L 1178 3500 
L 1178 0 
L 603 0 
L 603 3500 
z
M 603 4863 
L 1178 4863 
L 1178 4134 
L 603 4134 
L 603 4863 
z
" transform="scale(0.015625)"/>
      <path id="DejaVuSans-6e" d="M 3513 2113 
L 3513 0 
L 2938 0 
L 2938 2094 
Q 2938 2591 2744 2837 
Q 2550 3084 2163 3084 
Q 1697 3084 1428 2787 
Q 1159 2491 1159 1978 
L 1159 0 
L 581 0 
L 581 3500 
L 1159 3500 
L 1159 2956 
Q 1366 3272 1645 3428 
Q 1925 3584 2291 3584 
Q 2894 3584 3203 3211 
Q 3513 2838 3513 2113 
z
" transform="scale(0.015625)"/>
      <path id="DejaVuSans-67" d="M 2906 1791 
Q 2906 2416 2648 2759 
Q 2391 3103 1925 3103 
Q 1463 3103 1205 2759 
Q 947 2416 947 1791 
Q 947 1169 1205 825 
Q 1463 481 1925 481 
Q 2391 481 2648 825 
Q 2906 1169 2906 1791 
z
M 3481 434 
Q 3481 -459 3084 -895 
Q 2688 -1331 1869 -1331 
Q 1566 -1331 1297 -1286 
Q 1028 -1241 775 -1147 
L 775 -588 
Q 1028 -725 1275 -790 
Q 1522 -856 1778 -856 
Q 2344 -856 2625 -561 
Q 2906 -266 2906 331 
L 2906 616 
Q 2728 306 2450 153 
Q 2172 0 1784 0 
Q 1141 0 747 490 
Q 353 981 353 1791 
Q 353 2603 747 3093 
Q 1141 3584 1784 3584 
Q 2172 3584 2450 3431 
Q 2728 3278 2906 2969 
L 2906 3500 
L 3481 3500 
L 3481 434 
z
" transform="scale(0.015625)"/>
      <path id="DejaVuSans-20" transform="scale(0.015625)"/>
      <path id="DejaVuSans-53" d="M 3425 4513 
L 3425 3897 
Q 3066 4069 2747 4153 
Q 2428 4238 2131 4238 
Q 1616 4238 1336 4038 
Q 1056 3838 1056 3469 
Q 1056 3159 1242 3001 
Q 1428 2844 1947 2747 
L 2328 2669 
Q 3034 2534 3370 2195 
Q 3706 1856 3706 1288 
Q 3706 609 3251 259 
Q 2797 -91 1919 -91 
Q 1588 -91 1214 -16 
Q 841 59 441 206 
L 441 856 
Q 825 641 1194 531 
Q 1563 422 1919 422 
Q 2459 422 2753 634 
Q 3047 847 3047 1241 
Q 3047 1584 2836 1778 
Q 2625 1972 2144 2069 
L 1759 2144 
Q 1053 2284 737 2584 
Q 422 2884 422 3419 
Q 422 4038 858 4394 
Q 1294 4750 2059 4750 
Q 2388 4750 2728 4690 
Q 3069 4631 3425 4513 
z
" transform="scale(0.015625)"/>
      <path id="DejaVuSans-68" d="M 3513 2113 
L 3513 0 
L 2938 0 
L 2938 2094 
Q 2938 2591 2744 2837 
Q 2550 3084 2163 3084 
Q 1697 3084 1428 2787 
Q 1159 2491 1159 1978 
L 1159 0 
L 581 0 
L 581 4863 
L 1159 4863 
L 1159 2956 
Q 1366 3272 1645 3428 
Q 1925 3584 2291 3584 
Q 2894 3584 3203 3211 
Q 3513 2838 3513 2113 
z
" transform="scale(0.015625)"/>
      <path id="DejaVuSans-70" d="M 1159 525 
L 1159 -1331 
L 581 -1331 
L 581 3500 
L 1159 3500 
L 1159 2969 
Q 1341 3281 1617 3432 
Q 1894 3584 2278 3584 
Q 2916 3584 3314 3078 
Q 3713 2572 3713 1747 
Q 3713 922 3314 415 
Q 2916 -91 2278 -91 
Q 1894 -91 1617 61 
Q 1341 213 1159 525 
z
M 3116 1747 
Q 3116 2381 2855 2742 
Q 2594 3103 2138 3103 
Q 1681 3103 1420 2742 
Q 1159 2381 1159 1747 
Q 1159 1113 1420 752 
Q 1681 391 2138 391 
Q 2594 391 2855 752 
Q 3116 1113 3116 1747 
z
" transform="scale(0.015625)"/>
      <path id="DejaVuSans-65" d="M 3597 1894 
L 3597 1613 
L 953 1613 
Q 991 1019 1311 708 
Q 1631 397 2203 397 
Q 2534 397 2845 478 
Q 3156 559 3463 722 
L 3463 178 
Q 3153 47 2828 -22 
Q 2503 -91 2169 -91 
Q 1331 -91 842 396 
Q 353 884 353 1716 
Q 353 2575 817 3079 
Q 1281 3584 2069 3584 
Q 2775 3584 3186 3129 
Q 3597 2675 3597 1894 
z
M 3022 2063 
Q 3016 2534 2758 2815 
Q 2500 3097 2075 3097 
Q 1594 3097 1305 2825 
Q 1016 2553 972 2059 
L 3022 2063 
z
" transform="scale(0.015625)"/>
      <path id="DejaVuSans-50" d="M 1259 4147 
L 1259 2394 
L 2053 2394 
Q 2494 2394 2734 2622 
Q 2975 2850 2975 3272 
Q 2975 3691 2734 3919 
Q 2494 4147 2053 4147 
L 1259 4147 
z
M 628 4666 
L 2053 4666 
Q 2838 4666 3239 4311 
Q 3641 3956 3641 3272 
Q 3641 2581 3239 2228 
Q 2838 1875 2053 1875 
L 1259 1875 
L 1259 0 
L 628 0 
L 628 4666 
z
" transform="scale(0.015625)"/>
      <path id="DejaVuSans-6d" d="M 3328 2828 
Q 3544 3216 3844 3400 
Q 4144 3584 4550 3584 
Q 5097 3584 5394 3201 
Q 5691 2819 5691 2113 
L 5691 0 
L 5113 0 
L 5113 2094 
Q 5113 2597 4934 2840 
Q 4756 3084 4391 3084 
Q 3944 3084 3684 2787 
Q 3425 2491 3425 1978 
L 3425 0 
L 2847 0 
L 2847 2094 
Q 2847 2600 2669 2842 
Q 2491 3084 2119 3084 
Q 1678 3084 1418 2786 
Q 1159 2488 1159 1978 
L 1159 0 
L 581 0 
L 581 3500 
L 1159 3500 
L 1159 2956 
Q 1356 3278 1631 3431 
Q 1906 3584 2284 3584 
Q 2666 3584 2933 3390 
Q 3200 3197 3328 2828 
z
" transform="scale(0.015625)"/>
      <path id="DejaVuSans-74" d="M 1172 4494 
L 1172 3500 
L 2356 3500 
L 2356 3053 
L 1172 3053 
L 1172 1153 
Q 1172 725 1289 603 
Q 1406 481 1766 481 
L 2356 481 
L 2356 0 
L 1766 0 
Q 1100 0 847 248 
Q 594 497 594 1153 
L 594 3053 
L 172 3053 
L 172 3500 
L 594 3500 
L 594 4494 
L 1172 4494 
z
" transform="scale(0.015625)"/>
      <path id="DejaVuSans-41" d="M 2188 4044 
L 1331 1722 
L 3047 1722 
L 2188 4044 
z
M 1831 4666 
L 2547 4666 
L 4325 0 
L 3669 0 
L 3244 1197 
L 1141 1197 
L 716 0 
L 50 0 
L 1831 4666 
z
" transform="scale(0.015625)"/>
      <path id="DejaVuSans-6c" d="M 603 4863 
L 1178 4863 
L 1178 0 
L 603 0 
L 603 4863 
z
" transform="scale(0.015625)"/>
      <path id="DejaVuSans-3b" d="M 750 3309 
L 1409 3309 
L 1409 2516 
L 750 2516 
L 750 3309 
z
M 750 794 
L 1409 794 
L 1409 256 
L 897 -744 
L 494 -744 
L 750 256 
L 750 794 
z
" transform="scale(0.015625)"/>
      <path id="DejaVuSans-42" d="M 1259 2228 
L 1259 519 
L 2272 519 
Q 2781 519 3026 730 
Q 3272 941 3272 1375 
Q 3272 1813 3026 2020 
Q 2781 2228 2272 2228 
L 1259 2228 
z
M 1259 4147 
L 1259 2741 
L 2194 2741 
Q 2656 2741 2882 2914 
Q 3109 3088 3109 3444 
Q 3109 3797 2882 3972 
Q 2656 4147 2194 4147 
L 1259 4147 
z
M 628 4666 
L 2241 4666 
Q 2963 4666 3353 4366 
Q 3744 4066 3744 3513 
Q 3744 3084 3544 2831 
Q 3344 2578 2956 2516 
Q 3422 2416 3680 2098 
Q 3938 1781 3938 1306 
Q 3938 681 3513 340 
Q 3088 0 2303 0 
L 628 0 
L 628 4666 
z
" transform="scale(0.015625)"/>
      <path id="DejaVuSans-3d" d="M 678 2906 
L 4684 2906 
L 4684 2381 
L 678 2381 
L 678 2906 
z
M 678 1631 
L 4684 1631 
L 4684 1100 
L 678 1100 
L 678 1631 
z
" transform="scale(0.015625)"/>
     </defs>
     <use xlink:href="#DejaVuSans-56"/>
     <use xlink:href="#DejaVuSans-61" x="60.658203"/>
     <use xlink:href="#DejaVuSans-72" x="121.9375"/>
     <use xlink:href="#DejaVuSans-79" x="163.050781"/>
     <use xlink:href="#DejaVuSans-69" x="222.230469"/>
     <use xlink:href="#DejaVuSans-6e" x="250.013672"/>
     <use xlink:href="#DejaVuSans-67" x="313.392578"/>
     <use xlink:href="#DejaVuSans-20" x="376.869141"/>
     <use xlink:href="#DejaVuSans-53" x="408.65625"/>
     <use xlink:href="#DejaVuSans-68" x="472.132812"/>
     <use xlink:href="#DejaVuSans-61" x="535.511719"/>
     <use xlink:href="#DejaVuSans-70" x="596.791016"/>
     <use xlink:href="#DejaVuSans-65" x="660.267578"/>
     <use xlink:href="#DejaVuSans-20" x="721.791016"/>
     <use xlink:href="#DejaVuSans-50" x="753.578125"/>
     <use xlink:href="#DejaVuSans-61" x="809.380859"/>
     <use xlink:href="#DejaVuSans-72" x="870.660156"/>
     <use xlink:href="#DejaVuSans-61" x="911.773438"/>
     <use xlink:href="#DejaVuSans-6d" x="973.052734"/>
     <use xlink:href="#DejaVuSans-65" x="1070.464844"/>
     <use xlink:href="#DejaVuSans-74" x="1131.988281"/>
     <use xlink:href="#DejaVuSans-65" x="1171.197266"/>
     <use xlink:href="#DejaVuSans-72" x="1232.720703"/>
     <use xlink:href="#DejaVuSans-20" x="1273.833984"/>
     <use xlink:href="#DejaVuSans-41" x="1305.621094"/>
     <use xlink:href="#DejaVuSans-6c" x="1374.029297"/>
     <use xlink:href="#DejaVuSans-70" x="1401.8125"/>
     <use xlink:href="#DejaVuSans-68" x="1465.289062"/>
     <use xlink:href="#DejaVuSans-61" x="1528.667969"/>
     <use xlink:href="#DejaVuSans-3b" x="1589.947266"/>
     <use xlink:href="#DejaVuSans-20" x="1623.638672"/>
     <use xlink:href="#DejaVuSans-42" x="1655.425781"/>
     <use xlink:href="#DejaVuSans-65" x="1724.029297"/>
     <use xlink:href="#DejaVuSans-74" x="1785.552734"/>
     <use xlink:href="#DejaVuSans-61" x="1824.761719"/>
     <use xlink:href="#DejaVuSans-20" x="1886.041016"/>
     <use xlink:href="#DejaVuSans-3d" x="1917.828125"/>
     <use xlink:href="#DejaVuSans-20" x="2001.617188"/>
     <use xlink:href="#DejaVuSans-31" x="2033.404297"/>
    </g>
   </g>
   <g id="legend_1">
    <g id="patch_7">
     <path d="M 332.66875 102.674375 
L 414.2 102.674375 
Q 416.2 102.674375 416.2 100.674375 
L 416.2 57.64 
Q 416.2 55.64 414.2 55.64 
L 332.66875 55.64 
Q 330.66875 55.64 330.66875 57.64 
L 330.66875 100.674375 
Q 330.66875 102.674375 332.66875 102.674375 
z
" style="fill: #ffffff; opacity: 0.8; stroke: #cccccc; stroke-linejoin: miter"/>
    </g>
    <g id="line2d_16">
     <path d="M 334.66875 63.738437 
L 344.66875 63.738437 
L 354.66875 63.738437 
" style="fill: none; stroke: #1f77b4; stroke-width: 1.5; stroke-linecap: square"/>
    </g>
    <g id="text_14">
     <!-- Alpha = 1 -->
     <g transform="translate(362.66875 67.238437)scale(0.1 -0.1)">
      <use xlink:href="#DejaVuSans-41"/>
      <use xlink:href="#DejaVuSans-6c" x="68.408203"/>
      <use xlink:href="#DejaVuSans-70" x="96.191406"/>
      <use xlink:href="#DejaVuSans-68" x="159.667969"/>
      <use xlink:href="#DejaVuSans-61" x="223.046875"/>
      <use xlink:href="#DejaVuSans-20" x="284.326172"/>
      <use xlink:href="#DejaVuSans-3d" x="316.113281"/>
      <use xlink:href="#DejaVuSans-20" x="399.902344"/>
      <use xlink:href="#DejaVuSans-31" x="431.689453"/>
     </g>
    </g>
    <g id="line2d_17">
     <path d="M 334.66875 78.416562 
L 344.66875 78.416562 
L 354.66875 78.416562 
" style="fill: none; stroke: #ff7f0e; stroke-width: 1.5; stroke-linecap: square"/>
    </g>
    <g id="text_15">
     <!-- Alpha = 2 -->
     <g transform="translate(362.66875 81.916562)scale(0.1 -0.1)">
      <use xlink:href="#DejaVuSans-41"/>
      <use xlink:href="#DejaVuSans-6c" x="68.408203"/>
      <use xlink:href="#DejaVuSans-70" x="96.191406"/>
      <use xlink:href="#DejaVuSans-68" x="159.667969"/>
      <use xlink:href="#DejaVuSans-61" x="223.046875"/>
      <use xlink:href="#DejaVuSans-20" x="284.326172"/>
      <use xlink:href="#DejaVuSans-3d" x="316.113281"/>
      <use xlink:href="#DejaVuSans-20" x="399.902344"/>
      <use xlink:href="#DejaVuSans-32" x="431.689453"/>
     </g>
    </g>
    <g id="line2d_18">
     <path d="M 334.66875 93.094687 
L 344.66875 93.094687 
L 354.66875 93.094687 
" style="fill: none; stroke: #2ca02c; stroke-width: 1.5; stroke-linecap: square"/>
    </g>
    <g id="text_16">
     <!-- Alpha = 3 -->
     <g transform="translate(362.66875 96.594687)scale(0.1 -0.1)">
      <defs>
       <path id="DejaVuSans-33" d="M 2597 2516 
Q 3050 2419 3304 2112 
Q 3559 1806 3559 1356 
Q 3559 666 3084 287 
Q 2609 -91 1734 -91 
Q 1441 -91 1130 -33 
Q 819 25 488 141 
L 488 750 
Q 750 597 1062 519 
Q 1375 441 1716 441 
Q 2309 441 2620 675 
Q 2931 909 2931 1356 
Q 2931 1769 2642 2001 
Q 2353 2234 1838 2234 
L 1294 2234 
L 1294 2753 
L 1863 2753 
Q 2328 2753 2575 2939 
Q 2822 3125 2822 3475 
Q 2822 3834 2567 4026 
Q 2313 4219 1838 4219 
Q 1578 4219 1281 4162 
Q 984 4106 628 3988 
L 628 4550 
Q 988 4650 1302 4700 
Q 1616 4750 1894 4750 
Q 2613 4750 3031 4423 
Q 3450 4097 3450 3541 
Q 3450 3153 3228 2886 
Q 3006 2619 2597 2516 
z
" transform="scale(0.015625)"/>
      </defs>
      <use xlink:href="#DejaVuSans-41"/>
      <use xlink:href="#DejaVuSans-6c" x="68.408203"/>
      <use xlink:href="#DejaVuSans-70" x="96.191406"/>
      <use xlink:href="#DejaVuSans-68" x="159.667969"/>
      <use xlink:href="#DejaVuSans-61" x="223.046875"/>
      <use xlink:href="#DejaVuSans-20" x="284.326172"/>
      <use xlink:href="#DejaVuSans-3d" x="316.113281"/>
      <use xlink:href="#DejaVuSans-20" x="399.902344"/>
      <use xlink:href="#DejaVuSans-33" x="431.689453"/>
     </g>
    </g>
   </g>
  </g>
  <g id="axes_2">
   <g id="patch_8">
    <path d="M 33.64 404.12 
L 421.2 404.12 
L 421.2 249.36 
L 33.64 249.36 
z
" style="fill: #ffffff"/>
   </g>
   <g id="matplotlib.axis_3">
    <g id="xtick_7">
     <g id="line2d_19">
      <g>
       <use xlink:href="#m88effd9622" x="51.256364" y="404.12" style="stroke: #000000; stroke-width: 0.8"/>
      </g>
     </g>
     <g id="text_17">
      <!-- 0 -->
      <g transform="translate(48.075114 418.718438)scale(0.1 -0.1)">
       <use xlink:href="#DejaVuSans-30"/>
      </g>
     </g>
    </g>
    <g id="xtick_8">
     <g id="line2d_20">
      <g>
       <use xlink:href="#m88effd9622" x="121.721818" y="404.12" style="stroke: #000000; stroke-width: 0.8"/>
      </g>
     </g>
     <g id="text_18">
      <!-- 2 -->
      <g transform="translate(118.540568 418.718438)scale(0.1 -0.1)">
       <use xlink:href="#DejaVuSans-32"/>
      </g>
     </g>
    </g>
    <g id="xtick_9">
     <g id="line2d_21">
      <g>
       <use xlink:href="#m88effd9622" x="192.187273" y="404.12" style="stroke: #000000; stroke-width: 0.8"/>
      </g>
     </g>
     <g id="text_19">
      <!-- 4 -->
      <g transform="translate(189.006023 418.718438)scale(0.1 -0.1)">
       <use xlink:href="#DejaVuSans-34"/>
      </g>
     </g>
    </g>
    <g id="xtick_10">
     <g id="line2d_22">
      <g>
       <use xlink:href="#m88effd9622" x="262.652727" y="404.12" style="stroke: #000000; stroke-width: 0.8"/>
      </g>
     </g>
     <g id="text_20">
      <!-- 6 -->
      <g transform="translate(259.471477 418.718438)scale(0.1 -0.1)">
       <use xlink:href="#DejaVuSans-36"/>
      </g>
     </g>
    </g>
    <g id="xtick_11">
     <g id="line2d_23">
      <g>
       <use xlink:href="#m88effd9622" x="333.118182" y="404.12" style="stroke: #000000; stroke-width: 0.8"/>
      </g>
     </g>
     <g id="text_21">
      <!-- 8 -->
      <g transform="translate(329.936932 418.718438)scale(0.1 -0.1)">
       <use xlink:href="#DejaVuSans-38"/>
      </g>
     </g>
    </g>
    <g id="xtick_12">
     <g id="line2d_24">
      <g>
       <use xlink:href="#m88effd9622" x="403.583636" y="404.12" style="stroke: #000000; stroke-width: 0.8"/>
      </g>
     </g>
     <g id="text_22">
      <!-- 10 -->
      <g transform="translate(397.221136 418.718438)scale(0.1 -0.1)">
       <use xlink:href="#DejaVuSans-31"/>
       <use xlink:href="#DejaVuSans-30" x="63.623047"/>
      </g>
     </g>
    </g>
   </g>
   <g id="matplotlib.axis_4">
    <g id="ytick_7">
     <g id="line2d_25">
      <g>
       <use xlink:href="#mdac74b0814" x="33.64" y="397.085455" style="stroke: #000000; stroke-width: 0.8"/>
      </g>
     </g>
     <g id="text_23">
      <!-- 0.0 -->
      <g transform="translate(10.736875 400.884673)scale(0.1 -0.1)">
       <use xlink:href="#DejaVuSans-30"/>
       <use xlink:href="#DejaVuSans-2e" x="63.623047"/>
       <use xlink:href="#DejaVuSans-30" x="95.410156"/>
      </g>
     </g>
    </g>
    <g id="ytick_8">
     <g id="line2d_26">
      <g>
       <use xlink:href="#mdac74b0814" x="33.64" y="371.588578" style="stroke: #000000; stroke-width: 0.8"/>
      </g>
     </g>
     <g id="text_24">
      <!-- 0.2 -->
      <g transform="translate(10.736875 375.387796)scale(0.1 -0.1)">
       <use xlink:href="#DejaVuSans-30"/>
       <use xlink:href="#DejaVuSans-2e" x="63.623047"/>
       <use xlink:href="#DejaVuSans-32" x="95.410156"/>
      </g>
     </g>
    </g>
    <g id="ytick_9">
     <g id="line2d_27">
      <g>
       <use xlink:href="#mdac74b0814" x="33.64" y="346.0917" style="stroke: #000000; stroke-width: 0.8"/>
      </g>
     </g>
     <g id="text_25">
      <!-- 0.4 -->
      <g transform="translate(10.736875 349.890919)scale(0.1 -0.1)">
       <use xlink:href="#DejaVuSans-30"/>
       <use xlink:href="#DejaVuSans-2e" x="63.623047"/>
       <use xlink:href="#DejaVuSans-34" x="95.410156"/>
      </g>
     </g>
    </g>
    <g id="ytick_10">
     <g id="line2d_28">
      <g>
       <use xlink:href="#mdac74b0814" x="33.64" y="320.594823" style="stroke: #000000; stroke-width: 0.8"/>
      </g>
     </g>
     <g id="text_26">
      <!-- 0.6 -->
      <g transform="translate(10.736875 324.394042)scale(0.1 -0.1)">
       <use xlink:href="#DejaVuSans-30"/>
       <use xlink:href="#DejaVuSans-2e" x="63.623047"/>
       <use xlink:href="#DejaVuSans-36" x="95.410156"/>
      </g>
     </g>
    </g>
    <g id="ytick_11">
     <g id="line2d_29">
      <g>
       <use xlink:href="#mdac74b0814" x="33.64" y="295.097946" style="stroke: #000000; stroke-width: 0.8"/>
      </g>
     </g>
     <g id="text_27">
      <!-- 0.8 -->
      <g transform="translate(10.736875 298.897165)scale(0.1 -0.1)">
       <use xlink:href="#DejaVuSans-30"/>
       <use xlink:href="#DejaVuSans-2e" x="63.623047"/>
       <use xlink:href="#DejaVuSans-38" x="95.410156"/>
      </g>
     </g>
    </g>
    <g id="ytick_12">
     <g id="line2d_30">
      <g>
       <use xlink:href="#mdac74b0814" x="33.64" y="269.601069" style="stroke: #000000; stroke-width: 0.8"/>
      </g>
     </g>
     <g id="text_28">
      <!-- 1.0 -->
      <g transform="translate(10.736875 273.400288)scale(0.1 -0.1)">
       <use xlink:href="#DejaVuSans-31"/>
       <use xlink:href="#DejaVuSans-2e" x="63.623047"/>
       <use xlink:href="#DejaVuSans-30" x="95.410156"/>
      </g>
     </g>
    </g>
   </g>
   <g id="line2d_31">
    <path d="M 51.256364 397.085455 
L 53.372443 389.87506 
L 55.488523 383.505283 
L 57.604603 377.902621 
L 59.720683 372.999285 
L 61.836762 368.732782 
L 63.952842 365.04553 
L 65.716242 362.376911 
L 67.479641 360.045205 
L 69.243041 358.023877 
L 71.006441 356.288178 
L 72.769841 354.815039 
L 74.88592 353.363684 
L 77.002 352.225168 
L 79.11808 351.36795 
L 81.23416 350.763103 
L 83.350239 350.384117 
L 85.818999 350.195161 
L 88.287759 350.245644 
L 90.756518 350.504025 
L 93.577958 351.017631 
L 96.752078 351.828999 
L 100.278877 352.965739 
L 104.511036 354.581695 
L 109.448556 356.714199 
L 116.502155 360.033238 
L 138.015632 370.331206 
L 145.421911 373.552537 
L 152.47551 376.379247 
L 159.176429 378.832148 
L 165.877348 381.05651 
L 172.930947 383.15726 
L 179.984546 385.023359 
L 187.390825 386.747751 
L 195.149784 388.318344 
L 203.261423 389.728707 
L 211.725742 390.977652 
L 220.895421 392.108209 
L 231.12314 393.137768 
L 242.408898 394.039955 
L 255.105376 394.82037 
L 269.565254 395.476261 
L 286.493892 396.013013 
L 307.302009 396.438768 
L 334.105686 396.751615 
L 372.547801 396.958096 
L 403.583636 397.027577 
L 403.583636 397.027577 
" clip-path="url(#pf400e3f2ac)" style="fill: none; stroke: #1f77b4; stroke-width: 1.5; stroke-linecap: square"/>
   </g>
   <g id="line2d_32">
    <path d="M 51.256364 397.085455 
L 52.667083 378.238849 
L 54.077803 362.293021 
L 55.488523 348.913116 
L 56.899243 337.798638 
L 58.309963 328.680146 
L 59.720683 321.316252 
L 60.778722 316.813934 
L 61.836762 313.093976 
L 62.894802 310.080465 
L 63.952842 307.703681 
L 65.010882 305.899632 
L 66.068922 304.609622 
L 67.126962 303.779852 
L 67.832321 303.457853 
L 68.537681 303.304867 
L 69.595721 303.364552 
L 70.653761 303.735942 
L 71.711801 304.382494 
L 72.769841 305.270866 
L 74.180561 306.779398 
L 75.59128 308.599513 
L 77.35468 311.226819 
L 79.47076 314.771257 
L 82.292199 319.939926 
L 87.582399 330.21311 
L 93.225278 341.000944 
L 97.104757 347.926923 
L 100.631557 353.75056 
L 103.805677 358.569141 
L 106.979796 362.976824 
L 110.153916 366.978113 
L 113.328035 370.587195 
L 116.502155 373.824628 
L 119.676274 376.714851 
L 122.850394 379.284351 
L 126.024514 381.560315 
L 129.198633 383.569689 
L 132.725433 385.521283 
L 136.252232 387.209621 
L 140.131712 388.799991 
L 144.011191 390.147498 
L 148.243351 391.38022 
L 152.82819 392.479669 
L 157.765709 393.436285 
L 163.408589 394.296119 
L 169.756828 395.029988 
L 177.163107 395.651111 
L 185.980106 396.155025 
L 196.913184 396.544653 
L 211.373062 396.823837 
L 233.239219 396.999514 
L 275.913493 397.076043 
L 403.583636 397.085444 
L 403.583636 397.085444 
" clip-path="url(#pf400e3f2ac)" style="fill: none; stroke: #ff7f0e; stroke-width: 1.5; stroke-linecap: square"/>
   </g>
   <g id="line2d_33">
    <path d="M 51.256364 397.085455 
L 52.314403 365.598574 
L 53.372443 339.536955 
L 54.430483 318.199509 
L 55.488523 300.96568 
L 56.546563 287.286772 
L 57.604603 276.678174 
L 58.662643 268.712391 
L 59.368003 264.682189 
L 60.073362 261.558052 
L 60.778722 259.24804 
L 61.484082 257.667856 
L 62.189442 256.740261 
L 62.542122 256.498847 
L 62.894802 256.394545 
L 63.247482 256.419455 
L 63.952842 256.827026 
L 64.658202 257.665059 
L 65.363562 258.881983 
L 66.421602 261.316089 
L 67.479641 264.356542 
L 68.890361 269.144319 
L 70.653761 275.971689 
L 73.475201 287.982539 
L 79.82344 315.384515 
L 82.644879 326.486702 
L 85.113639 335.371252 
L 87.582399 343.424551 
L 90.051158 350.64245 
L 92.167238 356.184415 
L 94.283318 361.161434 
L 96.399398 365.609145 
L 98.515477 369.566788 
L 100.631557 373.075056 
L 102.747637 376.174545 
L 104.863716 378.904679 
L 106.979796 381.302997 
L 109.095876 383.404697 
L 111.564636 385.52515 
L 114.033395 387.333312 
L 116.502155 388.87138 
L 119.323595 390.346241 
L 122.145034 391.565787 
L 125.319154 392.684374 
L 128.845953 393.670823 
L 132.725433 394.508703 
L 136.957592 395.195008 
L 141.895111 395.772333 
L 147.890671 396.245201 
L 155.64963 396.616608 
L 166.230028 396.875706 
L 182.805986 397.026946 
L 219.837381 397.082252 
L 403.583636 397.085455 
L 403.583636 397.085455 
" clip-path="url(#pf400e3f2ac)" style="fill: none; stroke: #2ca02c; stroke-width: 1.5; stroke-linecap: square"/>
   </g>
   <g id="patch_9">
    <path d="M 33.64 404.12 
L 33.64 249.36 
" style="fill: none; stroke: #000000; stroke-width: 0.8; stroke-linejoin: miter; stroke-linecap: square"/>
   </g>
   <g id="patch_10">
    <path d="M 421.2 404.12 
L 421.2 249.36 
" style="fill: none; stroke: #000000; stroke-width: 0.8; stroke-linejoin: miter; stroke-linecap: square"/>
   </g>
   <g id="patch_11">
    <path d="M 33.64 404.12 
L 421.2 404.12 
" style="fill: none; stroke: #000000; stroke-width: 0.8; stroke-linejoin: miter; stroke-linecap: square"/>
   </g>
   <g id="patch_12">
    <path d="M 33.64 249.36 
L 421.2 249.36 
" style="fill: none; stroke: #000000; stroke-width: 0.8; stroke-linejoin: miter; stroke-linecap: square"/>
   </g>
   <g id="text_29">
    <!-- Varying Scale Parameter Beta; Alpha = 2 -->
    <g transform="translate(104.24375 243.36)scale(0.12 -0.12)">
     <defs>
      <path id="DejaVuSans-63" d="M 3122 3366 
L 3122 2828 
Q 2878 2963 2633 3030 
Q 2388 3097 2138 3097 
Q 1578 3097 1268 2742 
Q 959 2388 959 1747 
Q 959 1106 1268 751 
Q 1578 397 2138 397 
Q 2388 397 2633 464 
Q 2878 531 3122 666 
L 3122 134 
Q 2881 22 2623 -34 
Q 2366 -91 2075 -91 
Q 1284 -91 818 406 
Q 353 903 353 1747 
Q 353 2603 823 3093 
Q 1294 3584 2113 3584 
Q 2378 3584 2631 3529 
Q 2884 3475 3122 3366 
z
" transform="scale(0.015625)"/>
     </defs>
     <use xlink:href="#DejaVuSans-56"/>
     <use xlink:href="#DejaVuSans-61" x="60.658203"/>
     <use xlink:href="#DejaVuSans-72" x="121.9375"/>
     <use xlink:href="#DejaVuSans-79" x="163.050781"/>
     <use xlink:href="#DejaVuSans-69" x="222.230469"/>
     <use xlink:href="#DejaVuSans-6e" x="250.013672"/>
     <use xlink:href="#DejaVuSans-67" x="313.392578"/>
     <use xlink:href="#DejaVuSans-20" x="376.869141"/>
     <use xlink:href="#DejaVuSans-53" x="408.65625"/>
     <use xlink:href="#DejaVuSans-63" x="472.132812"/>
     <use xlink:href="#DejaVuSans-61" x="527.113281"/>
     <use xlink:href="#DejaVuSans-6c" x="588.392578"/>
     <use xlink:href="#DejaVuSans-65" x="616.175781"/>
     <use xlink:href="#DejaVuSans-20" x="677.699219"/>
     <use xlink:href="#DejaVuSans-50" x="709.486328"/>
     <use xlink:href="#DejaVuSans-61" x="765.289062"/>
     <use xlink:href="#DejaVuSans-72" x="826.568359"/>
     <use xlink:href="#DejaVuSans-61" x="867.681641"/>
     <use xlink:href="#DejaVuSans-6d" x="928.960938"/>
     <use xlink:href="#DejaVuSans-65" x="1026.373047"/>
     <use xlink:href="#DejaVuSans-74" x="1087.896484"/>
     <use xlink:href="#DejaVuSans-65" x="1127.105469"/>
     <use xlink:href="#DejaVuSans-72" x="1188.628906"/>
     <use xlink:href="#DejaVuSans-20" x="1229.742188"/>
     <use xlink:href="#DejaVuSans-42" x="1261.529297"/>
     <use xlink:href="#DejaVuSans-65" x="1330.132812"/>
     <use xlink:href="#DejaVuSans-74" x="1391.65625"/>
     <use xlink:href="#DejaVuSans-61" x="1430.865234"/>
     <use xlink:href="#DejaVuSans-3b" x="1492.144531"/>
     <use xlink:href="#DejaVuSans-20" x="1525.835938"/>
     <use xlink:href="#DejaVuSans-41" x="1557.623047"/>
     <use xlink:href="#DejaVuSans-6c" x="1626.03125"/>
     <use xlink:href="#DejaVuSans-70" x="1653.814453"/>
     <use xlink:href="#DejaVuSans-68" x="1717.291016"/>
     <use xlink:href="#DejaVuSans-61" x="1780.669922"/>
     <use xlink:href="#DejaVuSans-20" x="1841.949219"/>
     <use xlink:href="#DejaVuSans-3d" x="1873.736328"/>
     <use xlink:href="#DejaVuSans-20" x="1957.525391"/>
     <use xlink:href="#DejaVuSans-32" x="1989.3125"/>
    </g>
   </g>
   <g id="legend_2">
    <g id="patch_13">
     <path d="M 338.039062 301.394375 
L 414.2 301.394375 
Q 416.2 301.394375 416.2 299.394375 
L 416.2 256.36 
Q 416.2 254.36 414.2 254.36 
L 338.039062 254.36 
Q 336.039062 254.36 336.039062 256.36 
L 336.039062 299.394375 
Q 336.039062 301.394375 338.039062 301.394375 
z
" style="fill: #ffffff; opacity: 0.8; stroke: #cccccc; stroke-linejoin: miter"/>
    </g>
    <g id="line2d_34">
     <path d="M 340.039062 262.458438 
L 350.039062 262.458438 
L 360.039062 262.458438 
" style="fill: none; stroke: #1f77b4; stroke-width: 1.5; stroke-linecap: square"/>
    </g>
    <g id="text_30">
     <!-- Beta = 1 -->
     <g transform="translate(368.039062 265.958438)scale(0.1 -0.1)">
      <use xlink:href="#DejaVuSans-42"/>
      <use xlink:href="#DejaVuSans-65" x="68.603516"/>
      <use xlink:href="#DejaVuSans-74" x="130.126953"/>
      <use xlink:href="#DejaVuSans-61" x="169.335938"/>
      <use xlink:href="#DejaVuSans-20" x="230.615234"/>
      <use xlink:href="#DejaVuSans-3d" x="262.402344"/>
      <use xlink:href="#DejaVuSans-20" x="346.191406"/>
      <use xlink:href="#DejaVuSans-31" x="377.978516"/>
     </g>
    </g>
    <g id="line2d_35">
     <path d="M 340.039062 277.136563 
L 350.039062 277.136563 
L 360.039062 277.136563 
" style="fill: none; stroke: #ff7f0e; stroke-width: 1.5; stroke-linecap: square"/>
    </g>
    <g id="text_31">
     <!-- Beta = 2 -->
     <g transform="translate(368.039062 280.636563)scale(0.1 -0.1)">
      <use xlink:href="#DejaVuSans-42"/>
      <use xlink:href="#DejaVuSans-65" x="68.603516"/>
      <use xlink:href="#DejaVuSans-74" x="130.126953"/>
      <use xlink:href="#DejaVuSans-61" x="169.335938"/>
      <use xlink:href="#DejaVuSans-20" x="230.615234"/>
      <use xlink:href="#DejaVuSans-3d" x="262.402344"/>
      <use xlink:href="#DejaVuSans-20" x="346.191406"/>
      <use xlink:href="#DejaVuSans-32" x="377.978516"/>
     </g>
    </g>
    <g id="line2d_36">
     <path d="M 340.039062 291.814688 
L 350.039062 291.814688 
L 360.039062 291.814688 
" style="fill: none; stroke: #2ca02c; stroke-width: 1.5; stroke-linecap: square"/>
    </g>
    <g id="text_32">
     <!-- Beta = 3 -->
     <g transform="translate(368.039062 295.314688)scale(0.1 -0.1)">
      <use xlink:href="#DejaVuSans-42"/>
      <use xlink:href="#DejaVuSans-65" x="68.603516"/>
      <use xlink:href="#DejaVuSans-74" x="130.126953"/>
      <use xlink:href="#DejaVuSans-61" x="169.335938"/>
      <use xlink:href="#DejaVuSans-20" x="230.615234"/>
      <use xlink:href="#DejaVuSans-3d" x="262.402344"/>
      <use xlink:href="#DejaVuSans-20" x="346.191406"/>
      <use xlink:href="#DejaVuSans-33" x="377.978516"/>
     </g>
    </g>
   </g>
  </g>
  <g id="text_33">
   <!-- Gamma Distributions -->
   <g transform="translate(152.273438 17.758125)scale(0.12 -0.12)">
    <defs>
     <path id="DejaVuSans-47" d="M 3809 666 
L 3809 1919 
L 2778 1919 
L 2778 2438 
L 4434 2438 
L 4434 434 
Q 4069 175 3628 42 
Q 3188 -91 2688 -91 
Q 1594 -91 976 548 
Q 359 1188 359 2328 
Q 359 3472 976 4111 
Q 1594 4750 2688 4750 
Q 3144 4750 3555 4637 
Q 3966 4525 4313 4306 
L 4313 3634 
Q 3963 3931 3569 4081 
Q 3175 4231 2741 4231 
Q 1884 4231 1454 3753 
Q 1025 3275 1025 2328 
Q 1025 1384 1454 906 
Q 1884 428 2741 428 
Q 3075 428 3337 486 
Q 3600 544 3809 666 
z
" transform="scale(0.015625)"/>
     <path id="DejaVuSans-44" d="M 1259 4147 
L 1259 519 
L 2022 519 
Q 2988 519 3436 956 
Q 3884 1394 3884 2338 
Q 3884 3275 3436 3711 
Q 2988 4147 2022 4147 
L 1259 4147 
z
M 628 4666 
L 1925 4666 
Q 3281 4666 3915 4102 
Q 4550 3538 4550 2338 
Q 4550 1131 3912 565 
Q 3275 0 1925 0 
L 628 0 
L 628 4666 
z
" transform="scale(0.015625)"/>
     <path id="DejaVuSans-73" d="M 2834 3397 
L 2834 2853 
Q 2591 2978 2328 3040 
Q 2066 3103 1784 3103 
Q 1356 3103 1142 2972 
Q 928 2841 928 2578 
Q 928 2378 1081 2264 
Q 1234 2150 1697 2047 
L 1894 2003 
Q 2506 1872 2764 1633 
Q 3022 1394 3022 966 
Q 3022 478 2636 193 
Q 2250 -91 1575 -91 
Q 1294 -91 989 -36 
Q 684 19 347 128 
L 347 722 
Q 666 556 975 473 
Q 1284 391 1588 391 
Q 1994 391 2212 530 
Q 2431 669 2431 922 
Q 2431 1156 2273 1281 
Q 2116 1406 1581 1522 
L 1381 1569 
Q 847 1681 609 1914 
Q 372 2147 372 2553 
Q 372 3047 722 3315 
Q 1072 3584 1716 3584 
Q 2034 3584 2315 3537 
Q 2597 3491 2834 3397 
z
" transform="scale(0.015625)"/>
     <path id="DejaVuSans-62" d="M 3116 1747 
Q 3116 2381 2855 2742 
Q 2594 3103 2138 3103 
Q 1681 3103 1420 2742 
Q 1159 2381 1159 1747 
Q 1159 1113 1420 752 
Q 1681 391 2138 391 
Q 2594 391 2855 752 
Q 3116 1113 3116 1747 
z
M 1159 2969 
Q 1341 3281 1617 3432 
Q 1894 3584 2278 3584 
Q 2916 3584 3314 3078 
Q 3713 2572 3713 1747 
Q 3713 922 3314 415 
Q 2916 -91 2278 -91 
Q 1894 -91 1617 61 
Q 1341 213 1159 525 
L 1159 0 
L 581 0 
L 581 4863 
L 1159 4863 
L 1159 2969 
z
" transform="scale(0.015625)"/>
     <path id="DejaVuSans-75" d="M 544 1381 
L 544 3500 
L 1119 3500 
L 1119 1403 
Q 1119 906 1312 657 
Q 1506 409 1894 409 
Q 2359 409 2629 706 
Q 2900 1003 2900 1516 
L 2900 3500 
L 3475 3500 
L 3475 0 
L 2900 0 
L 2900 538 
Q 2691 219 2414 64 
Q 2138 -91 1772 -91 
Q 1169 -91 856 284 
Q 544 659 544 1381 
z
M 1991 3584 
L 1991 3584 
z
" transform="scale(0.015625)"/>
     <path id="DejaVuSans-6f" d="M 1959 3097 
Q 1497 3097 1228 2736 
Q 959 2375 959 1747 
Q 959 1119 1226 758 
Q 1494 397 1959 397 
Q 2419 397 2687 759 
Q 2956 1122 2956 1747 
Q 2956 2369 2687 2733 
Q 2419 3097 1959 3097 
z
M 1959 3584 
Q 2709 3584 3137 3096 
Q 3566 2609 3566 1747 
Q 3566 888 3137 398 
Q 2709 -91 1959 -91 
Q 1206 -91 779 398 
Q 353 888 353 1747 
Q 353 2609 779 3096 
Q 1206 3584 1959 3584 
z
" transform="scale(0.015625)"/>
    </defs>
    <use xlink:href="#DejaVuSans-47"/>
    <use xlink:href="#DejaVuSans-61" x="77.490234"/>
    <use xlink:href="#DejaVuSans-6d" x="138.769531"/>
    <use xlink:href="#DejaVuSans-6d" x="236.181641"/>
    <use xlink:href="#DejaVuSans-61" x="333.59375"/>
    <use xlink:href="#DejaVuSans-20" x="394.873047"/>
    <use xlink:href="#DejaVuSans-44" x="426.660156"/>
    <use xlink:href="#DejaVuSans-69" x="503.662109"/>
    <use xlink:href="#DejaVuSans-73" x="531.445312"/>
    <use xlink:href="#DejaVuSans-74" x="583.544922"/>
    <use xlink:href="#DejaVuSans-72" x="622.753906"/>
    <use xlink:href="#DejaVuSans-69" x="663.867188"/>
    <use xlink:href="#DejaVuSans-62" x="691.650391"/>
    <use xlink:href="#DejaVuSans-75" x="755.126953"/>
    <use xlink:href="#DejaVuSans-74" x="818.505859"/>
    <use xlink:href="#DejaVuSans-69" x="857.714844"/>
    <use xlink:href="#DejaVuSans-6f" x="885.498047"/>
    <use xlink:href="#DejaVuSans-6e" x="946.679688"/>
    <use xlink:href="#DejaVuSans-73" x="1010.058594"/>
   </g>
  </g>
 </g>
 <defs>
  <clipPath id="p134d6068dd">
   <rect x="33.64" y="50.64" width="387.56" height="154.76"/>
  </clipPath>
  <clipPath id="pf400e3f2ac">
   <rect x="33.64" y="249.36" width="387.56" height="154.76"/>
  </clipPath>
 </defs>
</svg>
