<svg width="605" height="443" xmlns="http://www.w3.org/2000/svg" xmlns:xlink="http://www.w3.org/1999/xlink" xml:space="preserve" overflow="hidden"><defs><clipPath id="clip0"><rect x="0" y="0" width="605" height="443"/></clipPath></defs><g clip-path="url(#clip0)"><path d="M262.767 499.508 262.767 181.315" stroke="#000000" stroke-width="11.1642" stroke-linecap="round" stroke-linejoin="round" stroke-miterlimit="1.5" fill="none" fill-rule="evenodd" transform="matrix(1 0 0 1.0003 -149.464 -97.341)"/><path d="M262.767 181.315 242.104 201.978" stroke="#000000" stroke-width="11.1642" stroke-linecap="round" stroke-linejoin="round" stroke-miterlimit="1.5" fill="none" fill-rule="evenodd" transform="matrix(1 0 0 1.0003 -149.464 -97.341)"/><path d="M262.767 181.315 283.713 202.261" stroke="#000000" stroke-width="11.1642" stroke-linecap="round" stroke-linejoin="round" stroke-miterlimit="1.5" fill="none" fill-rule="evenodd" transform="matrix(1 0 0 1.0003 -149.464 -97.341)"/><path d="M226.255 446.017 630.246 446.017" stroke="#000000" stroke-width="11.1642" stroke-linecap="round" stroke-linejoin="round" stroke-miterlimit="1.5" fill="none" fill-rule="evenodd" transform="matrix(1 0 0 1.0003 -149.464 -97.341)"/><path d="M630.246 446.017 610.498 426.268" stroke="#000000" stroke-width="11.1642" stroke-linecap="round" stroke-linejoin="round" stroke-miterlimit="1.5" fill="none" fill-rule="evenodd" transform="matrix(1 0 0 1.0003 -149.464 -97.341)"/><path d="M630.246 446.017 610.725 465.538" stroke="#000000" stroke-width="11.1642" stroke-linecap="round" stroke-linejoin="round" stroke-miterlimit="1.5" fill="none" fill-rule="evenodd" transform="matrix(1 0 0 1.0003 -149.464 -97.341)"/><path d="M16.325-21.1463 1.94546-39.586 9.55815-39.586 20.5542-24.7835 31.0428-39.586 37.9788-39.586 24.1914-21.1463 40.7702 0 33.1575 0 19.8776-17.34 7.10517 0 0 0 16.325-21.1463Z" transform="matrix(1 0 0 1.0003 395.765 415.87)"/><path d="M16.325-21.1463 1.94546-39.586 9.55815-39.586 20.5542-24.7835 31.0428-39.586 37.9788-39.586 24.1914-21.1463 40.7702 0 33.1575 0 19.8776-17.34 7.10517 0 0 0 16.325-21.1463Z" transform="matrix(1 0 0 1.0003 -0.000440834 125.447)"/><path d="M17.2934 0 13.7154 0 13.7154-30.7106 7.40434-25.1449 5.16813-27.8284 14.113-35.183 17.2934-35.183 17.2934 0Z" transform="matrix(1 0 0 1.0003 437.663 442.742)"/><path d="M24.7474 0 2.38529 0 2.38529-4.12457 16.3989-18.3866C16.9455-18.9332 17.4424-19.4799 17.9891-20.0762 18.5357-20.6725 18.9829-21.3185 19.4302-21.9646 19.8774-22.6106 20.2253-23.3063 20.4737-24.0517 20.7222-24.7971 20.8713-25.5425 20.8713-26.3376 20.8713-27.2818 20.7222-28.1763 20.3744-28.9217 20.0265-29.6671 19.5296-30.3131 18.8836-30.8597 18.2375-31.4063 17.5418-31.8039 16.697-32.102 15.8522-32.3505 15.0075-32.4996 14.0633-32.4996 12.2743-32.4996 10.7338-32.0027 9.49147-31.0088 8.24913-30.0149 7.40434-28.6732 7.05649-26.9836L3.27978-27.3812C3.77671-30.0149 4.96936-32.0523 6.90741-33.5432 8.79576-35.034 11.0817-35.7794 13.8148-35.7794 15.2559-35.7794 16.5977-35.5806 17.8897-35.2327 19.132-34.8352 20.275-34.2389 21.2688-33.4935 22.213-32.7481 23.0081-31.8039 23.6044-30.6609 24.1511-29.518 24.4492-28.1763 24.4492-26.6358 24.4492-25.294 24.2505-24.0517 23.8529-22.9087 23.4057-21.7658 22.859-20.7222 22.213-19.7283 21.567-18.7345 20.8216-17.7903 19.9768-16.8958 19.132-16.0013 18.2375-15.1068 17.3431-14.2621L6.26139-3.27978 24.7474-3.27978 24.7474 0Z" transform="matrix(1 0 0 1.0003 41.8975 152.32)"/><path d="M456.677 322.02C456.677 335.266 433.51 346.004 404.932 346.004 376.353 346.004 353.186 335.266 353.186 322.02 353.186 308.774 376.353 298.036 404.932 298.036 433.51 298.036 456.677 308.774 456.677 322.02Z" stroke="#D44343" stroke-width="5.48513" stroke-linecap="round" stroke-linejoin="round" stroke-miterlimit="1.5" fill="none" fill-rule="evenodd" transform="matrix(0.838816 -0.544415 0.544249 0.839072 -226.96 169.825)"/><path d="M621.76 438.425C621.76 456.46 590.218 471.08 551.308 471.08 512.399 471.08 480.857 456.46 480.857 438.425 480.857 420.391 512.399 405.771 551.308 405.771 590.218 405.771 621.76 420.391 621.76 438.425Z" stroke="#D47B43" stroke-width="5.48592" stroke-linecap="round" stroke-linejoin="round" stroke-miterlimit="1.5" fill="none" fill-rule="evenodd" transform="matrix(0.838817 -0.544413 0.544248 0.839072 -415.174 152.834)"/><path d="M866.802 611.214C866.802 636.356 822.829 656.738 768.585 656.738 714.342 656.738 670.369 636.356 670.369 611.214 670.369 586.072 714.342 565.69 768.585 565.69 822.829 565.69 866.802 586.072 866.802 611.214Z" stroke="#457028" stroke-width="5.48311" stroke-linecap="round" stroke-linejoin="round" stroke-miterlimit="1.5" fill="none" fill-rule="evenodd" transform="matrix(0.838817 -0.544414 0.544248 0.839072 -689.426 124.866)"/><path d="M1180.14 832.159C1180.14 866.39 1120.27 894.14 1046.42 894.14 972.566 894.14 912.698 866.39 912.698 832.159 912.698 797.928 972.566 770.179 1046.42 770.179 1120.27 770.179 1180.14 797.928 1180.14 832.159Z" stroke="#5743D4" stroke-width="5.48342" stroke-linecap="round" stroke-linejoin="round" stroke-miterlimit="1.5" fill="none" fill-rule="evenodd" transform="matrix(0.838816 -0.544416 0.54425 0.839071 -1044.41 93.3122)"/><path d="M439.756 314.348C439.756 315.8 438.579 316.977 437.127 316.977 435.675 316.977 434.499 315.8 434.499 314.348 434.499 312.896 435.675 311.72 437.127 311.72 438.579 311.72 439.756 312.896 439.756 314.348Z" stroke="#D44343" stroke-width="5.48464" stroke-linecap="round" stroke-linejoin="round" stroke-miterlimit="1.5" fill="none" fill-rule="evenodd" transform="matrix(1 0 0 1.0003 -149.573 -94.6745)"/><path d="M432.67 314.2C432.67 312.788 433.817 311.641 435.229 311.641 436.641 311.641 437.787 312.788 437.787 314.2L437.787 319.673C437.787 321.085 436.641 322.232 435.229 322.232 433.817 322.232 432.67 321.085 432.67 319.673L432.67 314.2ZM432.67 330.3C432.67 328.888 433.817 327.741 435.229 327.741 436.641 327.741 437.787 328.888 437.787 330.3L437.787 341.247C437.787 342.659 436.641 343.806 435.229 343.806 433.817 343.806 432.67 342.659 432.67 341.247L432.67 330.3ZM432.67 351.875C432.67 350.461 433.817 349.317 435.229 349.317 436.641 349.317 437.787 350.461 437.787 351.875L437.787 362.82C437.787 364.235 436.641 365.378 435.229 365.378 433.817 365.378 432.67 364.235 432.67 362.82L432.67 351.875ZM432.67 373.448C432.67 372.036 433.817 370.889 435.229 370.889 436.641 370.889 437.787 372.036 437.787 373.448L437.787 384.396C437.787 385.807 436.641 386.954 435.229 386.954 433.817 386.954 432.67 385.807 432.67 384.396L432.67 373.448ZM432.67 395.02C432.67 393.609 433.817 392.462 435.229 392.462 436.641 392.462 437.787 393.609 437.787 395.02L437.787 405.971C437.787 407.383 436.641 408.527 435.229 408.527 433.817 408.527 432.67 407.383 432.67 405.971L432.67 395.02ZM432.67 416.596C432.67 415.184 433.817 414.038 435.229 414.038 436.641 414.038 437.787 415.184 437.787 416.596L437.787 427.544C437.787 428.955 436.641 430.102 435.229 430.102 433.817 430.102 432.67 428.955 432.67 427.544L432.67 416.596ZM432.67 438.169C432.67 436.757 433.817 435.61 435.229 435.61 436.641 435.61 437.787 436.757 437.787 438.169L437.787 443.644C437.787 445.056 436.641 446.202 435.229 446.202 433.817 446.202 432.67 445.056 432.67 443.644L432.67 438.169Z" fill-rule="evenodd" transform="matrix(1 0 0 1.0003 -146.929 -94.7558)"/><path d="M439.716 314.881C441.126 314.881 442.275 316.027 442.275 317.439 442.275 318.851 441.126 319.997 439.716 319.997L434.152 319.997C432.742 319.997 431.593 318.851 431.593 317.439 431.593 316.027 432.742 314.881 434.152 314.881L439.716 314.881ZM423.352 314.881C424.765 314.881 425.911 316.027 425.911 317.439 425.911 318.851 424.765 319.997 423.352 319.997L412.226 319.997C410.813 319.997 409.668 318.851 409.668 317.439 409.668 316.027 410.813 314.881 412.226 314.881L423.352 314.881ZM401.427 314.881C402.837 314.881 403.982 316.027 403.982 317.439 403.982 318.851 402.837 319.997 401.427 319.997L390.298 319.997C388.888 319.997 387.739 318.851 387.739 317.439 387.739 316.027 388.888 314.881 390.298 314.881L401.427 314.881ZM379.498 314.881C380.911 314.881 382.057 316.027 382.057 317.439 382.057 318.851 380.911 319.997 379.498 319.997L368.372 319.997C366.959 319.997 365.813 318.851 365.813 317.439 365.813 316.027 366.959 314.881 368.372 314.881L379.498 314.881ZM357.573 314.881C358.983 314.881 360.128 316.027 360.128 317.439 360.128 318.851 358.983 319.997 357.573 319.997L346.444 319.997C345.03 319.997 343.885 318.851 343.885 317.439 343.885 316.027 345.03 314.881 346.444 314.881L357.573 314.881ZM335.644 314.881C337.057 314.881 338.203 316.027 338.203 317.439 338.203 318.851 337.057 319.997 335.644 319.997L324.517 319.997C323.105 319.997 321.959 318.851 321.959 317.439 321.959 316.027 323.105 314.881 324.517 314.881L335.644 314.881ZM313.717 314.881C315.128 314.881 316.275 316.027 316.275 317.439 316.275 318.851 315.128 319.997 313.717 319.997L302.589 319.997C301.177 319.997 300.031 318.851 300.031 317.439 300.031 316.027 301.177 314.881 302.589 314.881L313.717 314.881ZM291.789 314.881C293.201 314.881 294.348 316.027 294.348 317.439 294.348 318.851 293.201 319.997 291.789 319.997L280.662 319.997C279.25 319.997 278.104 318.851 278.104 317.439 278.104 316.027 279.25 314.881 280.662 314.881L291.789 314.881ZM269.862 314.881C271.274 314.881 272.421 316.027 272.421 317.439 272.421 318.851 271.274 319.997 269.862 319.997L264.299 319.997C262.887 319.997 261.74 318.851 261.74 317.439 261.74 316.027 262.887 314.881 264.299 314.881L269.862 314.881Z" fill-rule="evenodd" transform="matrix(1 0 0 1.0003 -150.638 -98.7509)"/><path d="M5.19594-33.7736 9.95888-33.7736 9.95888-15.0827C9.95888-10.9692 10.6084-8.0104 11.9795-6.20626 13.2785-4.40211 15.66-3.46396 19.1239-3.46396 20.5672-3.46396 21.9384-3.75262 23.1652-4.32995 24.392-4.90727 25.4745-5.77326 26.4127-6.85575 27.3508-7.93824 28.0725-9.30939 28.5777-10.9692 29.0828-12.5568 29.3715-14.361 29.3715-16.4538L29.3715-33.7736 34.1344-33.7736 34.1344-7.43308C34.1344-6.20626 34.2066-4.97944 34.2787-3.75262 34.3509-2.5258 34.4231-1.22682 34.4952 0L29.3715 0 29.3715-5.4846 29.2271-5.4846C28.722-4.61861 28.0003-3.82479 27.2065-3.03096 26.4127-2.23714 25.4745-1.58765 24.4642-1.01032 23.4539-0.432995 22.3714 0 21.2889 0.360829 20.1343 0.721658 18.9796 0.865989 17.8971 0.865989 14.5775 0.865989 11.9074 0.144332 9.95888-1.22682L9.95888 16.4538 5.19594 16.4538 5.19594-33.7736Z" transform="matrix(1 0 0 1.0003 262.352 402.476)"/><path d="M5.19594-33.7736 9.95888-33.7736 9.95888-15.0827C9.95888-10.9692 10.6084-8.0104 11.9795-6.20626 13.2785-4.40211 15.66-3.46396 19.1239-3.46396 20.5672-3.46396 21.9384-3.75262 23.1652-4.32995 24.392-4.90727 25.4745-5.77326 26.4127-6.85575 27.3508-7.93824 28.0725-9.30939 28.5777-10.9692 29.0828-12.5568 29.3715-14.361 29.3715-16.4538L29.3715-33.7736 34.1344-33.7736 34.1344-7.43308C34.1344-6.20626 34.2066-4.97944 34.2787-3.75262 34.3509-2.5258 34.4231-1.22682 34.4952 0L29.3715 0 29.3715-5.4846 29.2271-5.4846C28.722-4.61861 28.0003-3.82479 27.2065-3.03096 26.4127-2.23714 25.4745-1.58765 24.4642-1.01032 23.4539-0.432995 22.3714 0 21.2889 0.360829 20.1343 0.721658 18.9796 0.865989 17.8971 0.865989 14.5775 0.865989 11.9074 0.144332 9.95888-1.22682L9.95888 16.4538 5.19594 16.4538 5.19594-33.7736Z" transform="matrix(1 0 0 1.0003 38.5411 229.937)"/><path d="M15.0475 0 11.9343 0 11.9343-26.7224 6.44277-21.8795 4.49697-24.2144 12.2802-30.614 15.0475-30.614 15.0475 0Z" transform="matrix(1 0 0 1.0003 296.685 429.757)"/><path d="M21.5336 0 2.07552 0 2.07552-3.58893 14.2692-15.9988C14.7449-16.4745 15.1773-16.9501 15.6529-17.469 16.1285-17.9879 16.5177-18.55 16.9069-19.1121 17.296-19.6742 17.5987-20.2796 17.8149-20.9282 18.0311-21.5768 18.1608-22.2254 18.1608-22.9172 18.1608-23.7388 18.0311-24.5171 17.7284-25.1657 17.4258-25.8143 16.9934-26.3764 16.4312-26.8521 15.8691-27.3277 15.2637-27.6737 14.5287-27.9331 13.7936-28.1493 13.0585-28.279 12.2369-28.279 10.6803-28.279 9.33986-27.8466 8.25886-26.9818 7.17785-26.117 6.44277-24.9495 6.14009-23.4794L2.85385-23.8253C3.28625-26.117 4.32401-27.8899 6.01037-29.1871 7.65349-30.4843 9.64254-31.1329 12.0207-31.1329 13.2747-31.1329 14.4422-30.9599 15.5664-30.6572 16.6474-30.3113 17.642-29.7924 18.5068-29.1438 19.3283-28.4952 20.0202-27.6737 20.539-26.6791 21.0147-25.6846 21.2741-24.5171 21.2741-23.1767 21.2741-22.0092 21.1012-20.9282 20.7552-19.9337 20.3661-18.9392 19.8904-18.0311 19.3283-17.1663 18.7662-16.3015 18.1176-15.4799 17.3825-14.7016 16.6474-13.9233 15.8691-13.145 15.0908-12.4099L5.44825-2.85385 21.5336-2.85385 21.5336 0Z" transform="matrix(1 0 0 1.0003 72.8721 257.216)"/><path d="M384.809 189.341 503.999 189.341" stroke="#D44343" stroke-width="5.11748" stroke-linecap="round" stroke-linejoin="round" stroke-miterlimit="2.12209" fill="none" fill-rule="evenodd" transform="matrix(1 0 0 1.0003 -154.907 -92.6224)"/><path d="M194.583 95.7424 254.853 95.7424" stroke="#D44343" stroke-width="5.11628" stroke-linecap="round" stroke-linejoin="round" stroke-miterlimit="2.12209" fill="none" fill-rule="evenodd" transform="matrix(6.12324e-17 -1.0003 1 6.1251e-17 331.51 443.588)"/><path d="M505.805 187.532C506.806 188.53 506.806 190.151 505.805 191.149 504.808 192.148 503.186 192.148 502.189 191.149L487.662 176.622C486.664 175.624 486.664 174.003 487.662 173.004 488.659 172.006 490.281 172.006 491.278 173.004L505.805 187.532Z" fill="#D44343" fill-rule="evenodd" transform="matrix(1 0 0 1.0003 -154.907 -92.6224)"/><path d="M505.805 187.532C506.806 188.53 506.806 190.151 505.805 191.149 504.808 192.148 503.186 192.148 502.189 191.149L487.662 176.622C486.664 175.624 486.664 174.003 487.662 173.004 488.659 172.006 490.281 172.006 491.278 173.004L505.805 187.532Z" fill="#D44343" fill-rule="evenodd" transform="matrix(6.12323e-17 -1.0003 1 6.12509e-17 237.913 692.809)"/><path d="M502.189 187.532C503.186 186.533 504.808 186.533 505.805 187.532 506.806 188.53 506.806 190.151 505.805 191.149L491.782 205.174C490.784 206.173 489.163 206.173 488.165 205.174 487.165 204.176 487.165 202.555 488.165 201.557L502.189 187.532Z" fill="#D44343" fill-rule="evenodd" transform="matrix(1 0 0 1.0003 -154.907 -92.6224)"/><path d="M502.189 187.532C503.186 186.533 504.808 186.533 505.805 187.532 506.806 188.53 506.806 190.151 505.805 191.149L491.782 205.174C490.784 206.173 489.163 206.173 488.165 205.174 487.165 204.176 487.165 202.555 488.165 201.557L502.189 187.532Z" fill="#D44343" fill-rule="evenodd" transform="matrix(6.12323e-17 -1.0003 1 6.12509e-17 237.913 692.809)"/><path d="M382.999 191.149C382.001 190.151 382.001 188.53 382.999 187.532 383.996 186.533 385.618 186.533 386.615 187.532L399.943 200.859C400.944 201.858 400.944 203.479 399.943 204.477 398.946 205.475 397.324 205.475 396.327 204.477L382.999 191.149Z" fill="#D44343" fill-rule="evenodd" transform="matrix(1 0 0 1.0003 -154.907 -92.6224)"/><path d="M382.999 191.149C382.001 190.151 382.001 188.53 382.999 187.532 383.996 186.533 385.618 186.533 386.615 187.532L399.943 200.859C400.944 201.858 400.944 203.479 399.943 204.477 398.946 205.475 397.324 205.475 396.327 204.477L382.999 191.149Z" fill="#D44343" fill-rule="evenodd" transform="matrix(6.12323e-17 -1.0003 1 6.12509e-17 237.913 640.721)"/><path d="M386.615 191.149C385.618 192.148 383.996 192.148 382.999 191.149 382.001 190.151 382.001 188.53 382.999 187.532L396.275 174.256C397.273 173.258 398.894 173.258 399.891 174.256 400.892 175.254 400.892 176.875 399.891 177.874L386.615 191.149Z" fill="#D44343" fill-rule="evenodd" transform="matrix(1 0 0 1.0003 -154.907 -92.6224)"/><path d="M386.615 191.149C385.618 192.148 383.996 192.148 382.999 191.149 382.001 190.151 382.001 188.53 382.999 187.532L396.275 174.256C397.273 173.258 398.894 173.258 399.891 174.256 400.892 175.254 400.892 176.875 399.891 177.874L386.615 191.149Z" fill="#D44343" fill-rule="evenodd" transform="matrix(6.12323e-17 -1.0003 1 6.12509e-17 237.913 640.721)"/><path d="M42.7839-31.6291 34.7355-31.6291C37.7713-28.5226 39.2539-24.3572 39.3245-19.0622 39.3245-13.2023 37.8419-8.54267 34.8767-4.94204 31.8409-1.27081 27.4636 0.564805 21.5332 0.706006 15.6027 0.564805 11.2255-1.34141 8.26027-5.08324 5.29504-8.75447 3.81243-13.4141 3.81243-19.0622 3.88303-24.4984 5.50684-28.9462 8.68387-32.2645 11.8609-35.6533 16.0969-37.3477 21.5332-37.4183 23.863-37.3477 25.628-37.1359 26.9694-36.7123L42.7839-36.7123 42.7839-31.6291ZM32.5469-18.2855C32.5469-21.745 31.7703-24.8514 30.1464-27.746 28.452-30.7112 25.5574-32.2645 21.5332-32.3351 17.5795-32.2645 14.6849-30.7818 13.0611-27.9578 11.3667-25.1338 10.5195-21.8862 10.5901-18.2855 10.5901-14.3319 11.5785-11.0843 13.5553-8.47207 15.4615-5.78925 18.0737-4.44784 21.5332-4.37724 25.3456-4.44784 28.099-5.85985 29.9346-8.68387 31.6997-11.4373 32.5469-14.6143 32.5469-18.2855Z" fill="#D44343" transform="matrix(1 0 0 1.0003 253.896 71.8237)"/><path d="M24.0123-17.7516 19.4951-17.7516C21.1989-16.0082 22.0311-13.6703 22.0707-10.6985 22.0707-7.40972 21.2386-4.79453 19.5744-2.77369 17.8705-0.713235 15.4138 0.316994 12.0854 0.396242 8.75695 0.316994 6.30025-0.75286 4.63603-2.85294 2.97181-4.9134 2.13971-7.5286 2.13971-10.6985 2.17933-13.7496 3.09069-16.2459 4.87378-18.1083 6.65686-20.0102 9.03432-20.9612 12.0854-21.0008 13.393-20.9612 14.3836-20.8423 15.1364-20.6046L24.0123-20.6046 24.0123-17.7516ZM18.2668-10.2627C18.2668-12.2043 17.8309-13.9477 16.9195-15.5723 15.9686-17.2365 14.344-18.1083 12.0854-18.1479 9.86642-18.1083 8.24183-17.2761 7.33048-15.6912 6.3795-14.1062 5.90401-12.2835 5.94363-10.2627 5.94363-8.04371 6.49837-6.221 7.60785-4.7549 8.6777-3.24918 10.1438-2.49632 12.0854-2.4567 14.2251-2.49632 15.7704-3.28881 16.8007-4.87378 17.7913-6.41912 18.2668-8.20221 18.2668-10.2627Z" stroke="#1FF3FF" stroke-width="0.396242" stroke-linejoin="round" stroke-miterlimit="2" fill="#1FF3FF" transform="matrix(0.467318 0.884283 -0.884014 0.467461 390.058 71.542)"/><path d="M23.299-10.223 23.299-7.84559 3.09069-7.84559 3.09069-10.223 23.299-10.223ZM23.299-16.1667 23.299-13.7892 3.09069-13.7892 3.09069-16.1667 23.299-16.1667Z" stroke="#1FF3FF" stroke-width="0.396242" stroke-linejoin="round" stroke-miterlimit="2" fill="#1FF3FF" transform="matrix(0.467318 0.884283 -0.884014 0.467461 411.665 112.429)"/><path d="M24.0123-17.7516 19.4951-17.7516C21.1989-16.0082 22.0311-13.6703 22.0707-10.6985 22.0707-7.40972 21.2386-4.79453 19.5744-2.77369 17.8705-0.713235 15.4138 0.316994 12.0854 0.396242 8.75695 0.316994 6.30025-0.75286 4.63603-2.85294 2.97181-4.9134 2.13971-7.5286 2.13971-10.6985 2.17933-13.7496 3.09069-16.2459 4.87378-18.1083 6.65686-20.0102 9.03432-20.9612 12.0854-21.0008 13.393-20.9612 14.3836-20.8423 15.1364-20.6046L24.0123-20.6046 24.0123-17.7516ZM18.2668-10.2627C18.2668-12.2043 17.8309-13.9477 16.9195-15.5723 15.9686-17.2365 14.344-18.1083 12.0854-18.1479 9.86642-18.1083 8.24183-17.2761 7.33048-15.6912 6.3795-14.1062 5.90401-12.2835 5.94363-10.2627 5.94363-8.04371 6.49837-6.221 7.60785-4.7549 8.6777-3.24918 10.1438-2.49632 12.0854-2.4567 14.2251-2.49632 15.7704-3.28881 16.8007-4.87378 17.7913-6.41912 18.2668-8.20221 18.2668-10.2627Z" stroke="#1FF3FF" stroke-width="0.396242" stroke-linejoin="round" stroke-miterlimit="2" fill="#1FF3FF" transform="matrix(0.467318 0.884283 -0.884014 0.467461 429.145 145.505)"/><path d="M42.7839-31.6291 34.7355-31.6291C37.7713-28.5226 39.2539-24.3572 39.3245-19.0622 39.3245-13.2023 37.8419-8.54267 34.8767-4.94204 31.8409-1.27081 27.4636 0.564805 21.5332 0.706006 15.6027 0.564805 11.2255-1.34141 8.26027-5.08324 5.29504-8.75447 3.81243-13.4141 3.81243-19.0622 3.88303-24.4984 5.50684-28.9462 8.68387-32.2645 11.8609-35.6533 16.0969-37.3477 21.5332-37.4183 23.863-37.3477 25.628-37.1359 26.9694-36.7123L42.7839-36.7123 42.7839-31.6291ZM32.5469-18.2855C32.5469-21.745 31.7703-24.8514 30.1464-27.746 28.452-30.7112 25.5574-32.2645 21.5332-32.3351 17.5795-32.2645 14.6849-30.7818 13.0611-27.9578 11.3667-25.1338 10.5195-21.8862 10.5901-18.2855 10.5901-14.3319 11.5785-11.0843 13.5553-8.47207 15.4615-5.78925 18.0737-4.44784 21.5332-4.37724 25.3456-4.44784 28.099-5.85985 29.9346-8.68387 31.6997-11.4373 32.5469-14.6143 32.5469-18.2855Z" fill="#D44343" transform="matrix(1 0 0 1.0003 452.168 237.212)"/><path d="M9.71817 0 7.70752 0 7.70752-17.2581 4.16094-14.1304 2.90428-15.6384 7.93092-19.7715 9.71817-19.7715 9.71817 0Z" stroke="#D44343" stroke-width="0.279258" stroke-linejoin="round" stroke-miterlimit="2" fill="#D44343" transform="matrix(1 0 0 1.0003 291.949 83.213)"/><path d="M9.71817 0 7.70752 0 7.70752-17.2581 4.16094-14.1304 2.90428-15.6384 7.93092-19.7715 9.71817-19.7715 9.71817 0Z" stroke="#D44343" stroke-width="0.279258" stroke-linejoin="round" stroke-miterlimit="2" fill="#D44343" transform="matrix(1 0 0 1.0003 307.48 83.213)"/><path d="M5.87446 0 4.65905 0 4.65905-10.4322 2.51521-8.5416 1.75559-9.45315 4.7941-11.9515 5.87446-11.9515 5.87446 0Z" stroke="#1FF3FF" stroke-width="0.337613" stroke-linejoin="round" stroke-miterlimit="2" fill="#1FF3FF" transform="matrix(0.467318 0.884283 -0.884014 0.46746 394.536 97.3281)"/><path d="M8.40655 0 0.81027 0 0.81027-1.40109 5.57061-6.24583C5.75629-6.43152 5.9251-6.61721 6.11079-6.81978 6.29647-7.02234 6.4484-7.24179 6.60033-7.46124 6.75225-7.68069 6.87042-7.91702 6.95482-8.17023 7.03922-8.42344 7.08986-8.67664 7.08986-8.94673 7.08986-9.26747 7.03922-9.57132 6.92106-9.82453 6.80289-10.0777 6.63409-10.2972 6.41464-10.4829 6.19519-10.6686 5.95886-10.8036 5.67189-10.9049 5.38492-10.9893 5.09795-11.0399 4.77722-11.0399 4.16952-11.0399 3.64622-10.8711 3.2242-10.5335 2.80218-10.1959 2.51521-9.74012 2.39705-9.16618L1.11412-9.30123C1.28293-10.1959 1.68806-10.888 2.34641-11.3944 2.98787-11.9008 3.76438-12.1541 4.69282-12.1541 5.18235-12.1541 5.63813-12.0865 6.07703-11.9684 6.49904-11.8333 6.8873-11.6308 7.22491-11.3775 7.54564-11.1243 7.81573-10.8036 8.0183-10.4153 8.20399-10.0271 8.30527-9.57132 8.30527-9.04802 8.30527-8.59224 8.23775-8.17023 8.1027-7.78197 7.95078-7.39372 7.76509-7.03922 7.54564-6.70161 7.32619-6.364 7.07298-6.04327 6.78601-5.73941 6.49904-5.43556 6.19519-5.13171 5.89134-4.84474L2.12696-1.11412 8.40655-1.11412 8.40655 0Z" stroke="#1FF3FF" stroke-width="0.337613" stroke-linejoin="round" stroke-miterlimit="2" fill="#1FF3FF" transform="matrix(0.467318 0.884283 -0.884014 0.46746 398.923 105.63)"/><path d="M8.40655 0 0.81027 0 0.81027-1.40109 5.57061-6.24583C5.75629-6.43152 5.9251-6.61721 6.11079-6.81978 6.29647-7.02234 6.4484-7.24179 6.60033-7.46124 6.75225-7.68069 6.87042-7.91702 6.95482-8.17023 7.03922-8.42344 7.08986-8.67664 7.08986-8.94673 7.08986-9.26747 7.03922-9.57132 6.92106-9.82453 6.80289-10.0777 6.63409-10.2972 6.41464-10.4829 6.19519-10.6686 5.95886-10.8036 5.67189-10.9049 5.38492-10.9893 5.09795-11.0399 4.77722-11.0399 4.16952-11.0399 3.64622-10.8711 3.2242-10.5335 2.80218-10.1959 2.51521-9.74012 2.39705-9.16618L1.11412-9.30123C1.28293-10.1959 1.68806-10.888 2.34641-11.3944 2.98787-11.9008 3.76438-12.1541 4.69282-12.1541 5.18235-12.1541 5.63813-12.0865 6.07703-11.9684 6.49904-11.8333 6.8873-11.6308 7.22491-11.3775 7.54564-11.1243 7.81573-10.8036 8.0183-10.4153 8.20399-10.0271 8.30527-9.57132 8.30527-9.04802 8.30527-8.59224 8.23775-8.17023 8.1027-7.78197 7.95078-7.39372 7.76509-7.03922 7.54564-6.70161 7.32619-6.364 7.07298-6.04327 6.78601-5.73941 6.49904-5.43556 6.19519-5.13171 5.89134-4.84474L2.12696-1.11412 8.40655-1.11412 8.40655 0Z" stroke="#1FF3FF" stroke-width="0.337613" stroke-linejoin="round" stroke-miterlimit="2" fill="#1FF3FF" transform="matrix(0.467318 0.884283 -0.884014 0.46746 433.503 171.064)"/><path d="M5.87446 0 4.65905 0 4.65905-10.4322 2.51521-8.5416 1.75559-9.45315 4.7941-11.9515 5.87446-11.9515 5.87446 0Z" stroke="#1FF3FF" stroke-width="0.337613" stroke-linejoin="round" stroke-miterlimit="2" fill="#1FF3FF" transform="matrix(0.467318 0.884283 -0.884014 0.46746 437.891 179.365)"/><path d="M13.907 0 1.34044 0 1.34044-2.31784 9.21551-10.3325C9.52269-10.6397 9.80195-10.9469 10.1091-11.282 10.4163-11.6171 10.6677-11.9802 10.919-12.3432 11.1703-12.7062 11.3658-13.0972 11.5054-13.5161 11.6451-13.935 11.7288-14.3539 11.7288-14.8007 11.7288-15.3313 11.6451-15.8339 11.4496-16.2528 11.2541-16.6717 10.9748-17.0347 10.6118-17.3419 10.2488-17.6491 9.8578-17.8725 9.38306-18.0401 8.90833-18.1797 8.43359-18.2635 7.903-18.2635 6.89767-18.2635 6.03197-17.9842 5.33383-17.4257 4.63568-16.8672 4.16094-16.1132 3.96546-15.1637L1.8431-15.3871C2.12236-16.8672 2.79258-18.0121 3.88168-18.8499 4.94286-19.6877 6.22745-20.1066 7.76337-20.1066 8.57322-20.1066 9.32721-19.9949 10.0533-19.7994 10.7514-19.576 11.3937-19.2409 11.9522-18.822 12.4828-18.4031 12.9296-17.8725 13.2647-17.2302 13.5719-16.5879 13.7395-15.8339 13.7395-14.9682 13.7395-14.2142 13.6278-13.5161 13.4044-12.8738 13.153-12.2315 12.8459-11.6451 12.4828-11.0865 12.1198-10.528 11.7009-9.99743 11.2262-9.49477 10.7514-8.9921 10.2488-8.48944 9.7461-8.0147L3.51865-1.8431 13.907-1.8431 13.907 0Z" stroke="#D44343" stroke-width="0.279258" stroke-linejoin="round" stroke-miterlimit="2" fill="#D44343" transform="matrix(1 0 0 1.0003 490.221 248.601)"/><path d="M13.907 0 1.34044 0 1.34044-2.31784 9.21551-10.3325C9.52269-10.6397 9.80195-10.9469 10.1091-11.282 10.4163-11.6171 10.6677-11.9802 10.919-12.3432 11.1703-12.7062 11.3658-13.0972 11.5054-13.5161 11.6451-13.935 11.7288-14.3539 11.7288-14.8007 11.7288-15.3313 11.6451-15.8339 11.4496-16.2528 11.2541-16.6717 10.9748-17.0347 10.6118-17.3419 10.2488-17.6491 9.8578-17.8725 9.38306-18.0401 8.90833-18.1797 8.43359-18.2635 7.903-18.2635 6.89767-18.2635 6.03197-17.9842 5.33383-17.4257 4.63568-16.8672 4.16094-16.1132 3.96546-15.1637L1.8431-15.3871C2.12236-16.8672 2.79258-18.0121 3.88168-18.8499 4.94286-19.6877 6.22745-20.1066 7.76337-20.1066 8.57322-20.1066 9.32721-19.9949 10.0533-19.7994 10.7514-19.576 11.3937-19.2409 11.9522-18.822 12.4828-18.4031 12.9296-17.8725 13.2647-17.2302 13.5719-16.5879 13.7395-15.8339 13.7395-14.9682 13.7395-14.2142 13.6278-13.5161 13.4044-12.8738 13.153-12.2315 12.8459-11.6451 12.4828-11.0865 12.1198-10.528 11.7009-9.99743 11.2262-9.49477 10.7514-8.9921 10.2488-8.48944 9.7461-8.0147L3.51865-1.8431 13.907-1.8431 13.907 0Z" stroke="#D44343" stroke-width="0.279258" stroke-linejoin="round" stroke-miterlimit="2" fill="#D44343" transform="matrix(1 0 0 1.0003 505.752 248.601)"/><path d="M6.97123-6.04286C6.78556-6.32981 6.51549-6.583 6.1779-6.78556 5.82343-6.98811 5.4352-7.08939 4.99633-7.08939 4.54059-7.10627 4.1186-7.02187 3.76413-6.86996 3.39278-6.71804 3.07207-6.49861 2.81888-6.21166 2.56568-5.9247 2.36313-5.60399 2.22809-5.21576 2.09306-4.82754 2.02554-4.40555 2.02554-3.9498 2.02554-3.49406 2.09306-3.08895 2.22809-2.70072 2.36313-2.29561 2.56568-1.9749 2.81888-1.68795 3.07207-1.401 3.39278-1.18156 3.76413-1.02965 4.1186-0.877734 4.54059-0.793336 4.99633-0.810216 5.4352-0.810216 5.82343-0.911493 6.1779-1.11405 6.51549-1.3166 6.78556-1.56979 6.97123-1.85674L7.88273-1.16469C7.4945-0.708939 7.03875-0.371349 6.54925-0.151915 6.05974 0.0843975 5.53648 0.185674 4.99633 0.202554 4.35491 0.219434 3.78101 0.118157 3.25774-0.101277 2.73448-0.303831 2.29561-0.590782 1.94114-0.962131 1.56979-1.33348 1.28284-1.77235 1.09717-2.29561 0.911493-2.802 0.810216-3.35902 0.810216-3.9498 0.810216-4.54059 0.911493-5.09761 1.09717-5.62087 1.28284-6.12726 1.56979-6.56613 1.94114-6.93747 2.29561-7.30882 2.73448-7.59577 3.25774-7.81521 3.78101-8.01776 4.35491-8.11904 4.99633-8.10216 5.53648-8.08528 6.05974-7.96712 6.54925-7.76457 7.03875-7.54514 7.4945-7.19067 7.88273-6.73492L6.97123-6.04286Z" stroke="#1FF3FF" stroke-width="0.33759" stroke-linejoin="round" stroke-miterlimit="2" fill="#1FF3FF" transform="matrix(1 0 0 1.0003 473.029 99.5858)"/><path d="M7.984-3.9498C7.984-4.38867 7.91649-4.79378 7.78145-5.18201 7.62953-5.57024 7.42698-5.89095 7.17379-6.1779 6.92059-6.46485 6.59988-6.68428 6.24541-6.85308 5.87407-7.00499 5.45208-7.08939 4.99633-7.08939 4.54059-7.08939 4.1186-7.00499 3.76413-6.85308 3.39278-6.68428 3.08895-6.46485 2.83576-6.1779 2.58256-5.89095 2.38001-5.57024 2.24497-5.18201 2.09306-4.79378 2.02554-4.38867 2.02554-3.9498 2.02554-3.51094 2.09306-3.10583 2.24497-2.7176 2.38001-2.32937 2.58256-2.00866 2.83576-1.72171 3.08895-1.43476 3.39278-1.21532 3.76413-1.06341 4.1186-0.894613 4.54059-0.810216 4.99633-0.810216 5.45208-0.810216 5.87407-0.894613 6.24541-1.06341 6.59988-1.21532 6.92059-1.43476 7.17379-1.72171 7.42698-2.00866 7.62953-2.32937 7.78145-2.7176 7.91649-3.10583 7.984-3.51094 7.984-3.9498ZM9.19933-3.9498C9.19933-3.35902 9.09805-2.802 8.8955-2.29561 8.67606-1.78923 8.38911-1.35036 8.01776-0.979011 7.64641-0.607662 7.20755-0.32071 6.70116-0.118157 6.1779 0.101277 5.62087 0.202554 4.99633 0.202554 4.38867 0.202554 3.83165 0.101277 3.32526-0.118157 2.802-0.32071 2.36313-0.607662 1.99178-0.979011 1.62043-1.35036 1.33348-1.78923 1.13093-2.29561 0.911493-2.802 0.810216-3.35902 0.810216-3.9498 0.810216-4.54059 0.911493-5.09761 1.13093-5.60399 1.33348-6.11038 1.62043-6.54925 1.99178-6.92059 2.36313-7.29194 2.802-7.5789 3.32526-7.79833 3.83165-8.00088 4.38867-8.10216 4.99633-8.10216 5.62087-8.10216 6.1779-8.00088 6.70116-7.79833 7.20755-7.5789 7.64641-7.29194 8.01776-6.92059 8.38911-6.54925 8.67606-6.11038 8.8955-5.60399 9.09805-5.09761 9.19933-4.54059 9.19933-3.9498Z" stroke="#1FF3FF" stroke-width="0.33759" stroke-linejoin="round" stroke-miterlimit="2" fill="#1FF3FF" transform="matrix(1 0 0 1.0003 481.165 99.5858)"/><path d="M4.6925 0 3.44342 0 0.236313-7.89961 1.56979-7.89961 4.08484-1.24908 4.1186-1.24908 6.63364-7.89961 7.89961-7.89961 4.6925 0Z" stroke="#1FF3FF" stroke-width="0.33759" stroke-linejoin="round" stroke-miterlimit="2" fill="#1FF3FF" transform="matrix(1 0 0 1.0003 491.174 99.5858)"/><path d="M5.70527-3.93292C5.41832-3.93292 5.08073-3.91604 4.65874-3.89916 4.23675-3.86541 3.83165-3.79789 3.44342-3.69661 3.05519-3.57845 2.7176-3.40966 2.44753-3.19023 2.16058-2.97079 2.02554-2.65008 2.02554-2.26185 2.02554-2.00866 2.07618-1.78923 2.19433-1.60355 2.29561-1.41788 2.43065-1.26596 2.61632-1.14781 2.802-1.02965 3.00455-0.945252 3.22398-0.894613 3.44342-0.827095 3.66285-0.810216 3.88228-0.810216 4.28739-0.810216 4.64186-0.877734 4.94569-1.01277 5.23265-1.14781 5.48584-1.33348 5.68839-1.56979 5.89095-1.78923 6.04286-2.0593 6.14414-2.38001 6.22854-2.68384 6.27917-3.00455 6.27917-3.35902L6.27917-3.93292 5.70527-3.93292ZM6.27917-4.84442 6.27917-5.04697C6.27917-6.41421 5.60399-7.08939 4.25363-7.08939 3.32526-7.08939 2.53192-6.78556 1.83987-6.16102L1.16469-6.95435C1.90738-7.71393 3.02143-8.10216 4.50683-8.10216 4.89505-8.10216 5.2664-8.05152 5.62087-7.93336 5.97534-7.81521 6.27917-7.64641 6.53237-7.42698 6.78556-7.19067 7.00499-6.90372 7.15691-6.54925 7.30882-6.19478 7.39322-5.78967 7.39322-5.30016L7.39322-1.77235C7.39322-1.46852 7.4101-1.14781 7.44386-0.827095 7.46074-0.489505 7.4945-0.219434 7.52826 0L6.44797 0C6.41421-0.185674 6.39733-0.405108 6.38045-0.624541 6.36357-0.843975 6.34669-1.06341 6.34669-1.28284L6.31293-1.28284C5.99222-0.759578 5.60399-0.371349 5.16513-0.151915 4.70938 0.0843975 4.16924 0.202554 3.52782 0.202554 3.17335 0.202554 2.83576 0.151915 2.51505 0.067518 2.19433-0.033759 1.90738-0.185674 1.65419-0.388228 1.401-0.573903 1.18156-0.827095 1.04653-1.11405 0.894613-1.401 0.810216-1.72171 0.810216-2.10994 0.810216-2.75136 0.979011-3.25774 1.3166-3.62909 1.63731-3.98356 2.0593-4.25363 2.56568-4.43931 3.05519-4.62498 3.59533-4.72626 4.16924-4.7769 4.72626-4.82754 5.24952-4.84442 5.72215-4.84442L6.27917-4.84442Z" stroke="#1FF3FF" stroke-width="0.33759" stroke-linejoin="round" stroke-miterlimit="2" fill="#1FF3FF" transform="matrix(1 0 0 1.0003 499.31 99.5858)"/><path d="M1.33348-5.4352C1.33348-5.78967 1.33348-6.14414 1.3166-6.49861 1.29972-6.85308 1.28284-7.3257 1.26596-7.89961L2.36313-7.89961 2.36313-6.43109 2.39689-6.43109C2.48129-6.65052 2.58256-6.85308 2.73448-7.05563 2.88639-7.2413 3.05519-7.42698 3.27462-7.5789 3.47718-7.73081 3.71349-7.86585 4.00044-7.96712 4.27051-8.05152 4.57434-8.10216 4.92881-8.10216 5.24952-8.10216 5.5196-8.0684 5.75591-8.00088L5.53648-6.90372C5.38456-6.95435 5.18201-6.98811 4.89505-6.98811 4.47307-6.98811 4.10172-6.90372 3.79789-6.7518 3.49406-6.583 3.24086-6.38045 3.03831-6.12726 2.83576-5.85719 2.68384-5.58711 2.59944-5.30016 2.49817-5.01321 2.44753-4.72626 2.44753-4.45619L2.44753 0 1.33348 0 1.33348-5.4352Z" stroke="#1FF3FF" stroke-width="0.33759" stroke-linejoin="round" stroke-miterlimit="2" fill="#1FF3FF" transform="matrix(1 0 0 1.0003 508.071 99.5858)"/><path d="M2.83576-10.9379C2.83576-10.7016 2.75136-10.5159 2.58256-10.364 2.41377-10.1952 2.22809-10.1277 2.02554-10.1277 1.82299-10.1277 1.63731-10.1952 1.46852-10.364 1.29972-10.5159 1.21532-10.7016 1.21532-10.9379 1.21532-11.1742 1.29972-11.3768 1.46852-11.5287 1.63731-11.6806 1.82299-11.7481 2.02554-11.7481 2.22809-11.7481 2.41377-11.6806 2.58256-11.5287 2.75136-11.3768 2.83576-11.1742 2.83576-10.9379ZM2.58256 0 1.46852 0 1.46852-7.89961 2.58256-7.89961 2.58256 0Z" stroke="#1FF3FF" stroke-width="0.33759" stroke-linejoin="round" stroke-miterlimit="2" fill="#1FF3FF" transform="matrix(1 0 0 1.0003 513.675 99.5858)"/><path d="M5.70527-3.93292C5.41832-3.93292 5.08073-3.91604 4.65874-3.89916 4.23675-3.86541 3.83165-3.79789 3.44342-3.69661 3.05519-3.57845 2.7176-3.40966 2.44753-3.19023 2.16058-2.97079 2.02554-2.65008 2.02554-2.26185 2.02554-2.00866 2.07618-1.78923 2.19433-1.60355 2.29561-1.41788 2.43065-1.26596 2.61632-1.14781 2.802-1.02965 3.00455-0.945252 3.22398-0.894613 3.44342-0.827095 3.66285-0.810216 3.88228-0.810216 4.28739-0.810216 4.64186-0.877734 4.94569-1.01277 5.23265-1.14781 5.48584-1.33348 5.68839-1.56979 5.89095-1.78923 6.04286-2.0593 6.14414-2.38001 6.22854-2.68384 6.27917-3.00455 6.27917-3.35902L6.27917-3.93292 5.70527-3.93292ZM6.27917-4.84442 6.27917-5.04697C6.27917-6.41421 5.60399-7.08939 4.25363-7.08939 3.32526-7.08939 2.53192-6.78556 1.83987-6.16102L1.16469-6.95435C1.90738-7.71393 3.02143-8.10216 4.50683-8.10216 4.89505-8.10216 5.2664-8.05152 5.62087-7.93336 5.97534-7.81521 6.27917-7.64641 6.53237-7.42698 6.78556-7.19067 7.00499-6.90372 7.15691-6.54925 7.30882-6.19478 7.39322-5.78967 7.39322-5.30016L7.39322-1.77235C7.39322-1.46852 7.4101-1.14781 7.44386-0.827095 7.46074-0.489505 7.4945-0.219434 7.52826 0L6.44797 0C6.41421-0.185674 6.39733-0.405108 6.38045-0.624541 6.36357-0.843975 6.34669-1.06341 6.34669-1.28284L6.31293-1.28284C5.99222-0.759578 5.60399-0.371349 5.16513-0.151915 4.70938 0.0843975 4.16924 0.202554 3.52782 0.202554 3.17335 0.202554 2.83576 0.151915 2.51505 0.067518 2.19433-0.033759 1.90738-0.185674 1.65419-0.388228 1.401-0.573903 1.18156-0.827095 1.04653-1.11405 0.894613-1.401 0.810216-1.72171 0.810216-2.10994 0.810216-2.75136 0.979011-3.25774 1.3166-3.62909 1.63731-3.98356 2.0593-4.25363 2.56568-4.43931 3.05519-4.62498 3.59533-4.72626 4.16924-4.7769 4.72626-4.82754 5.24952-4.84442 5.72215-4.84442L6.27917-4.84442Z" stroke="#1FF3FF" stroke-width="0.33759" stroke-linejoin="round" stroke-miterlimit="2" fill="#1FF3FF" transform="matrix(1 0 0 1.0003 517.726 99.5858)"/><path d="M2.27873-7.89961C2.29561-7.68017 2.31249-7.47762 2.32937-7.27506 2.32937-7.05563 2.32937-6.85308 2.32937-6.63364L2.36313-6.63364C2.48129-6.85308 2.65008-7.03875 2.83576-7.22443 3.02143-7.4101 3.24086-7.56202 3.47718-7.69705 3.71349-7.81521 3.96668-7.91649 4.23675-8.00088 4.48995-8.0684 4.76002-8.10216 5.01321-8.10216 6.02598-8.10216 6.76868-7.83209 7.25818-7.30882 7.74769-6.76868 7.984-6.0091 7.984-5.01321L7.984 0 6.86996 0 6.86996-4.37179C6.86996-5.24952 6.71804-5.9247 6.41421-6.39733 6.11038-6.85308 5.55336-7.08939 4.72626-7.08939 4.67562-7.08939 4.50683-7.07251 4.25363-7.02187 4.00044-6.97123 3.73037-6.85308 3.44342-6.65052 3.15647-6.44797 2.88639-6.14414 2.66696-5.73903 2.44753-5.33392 2.32937-4.7769 2.32937-4.05108L2.32937 0 1.21532 0 1.21532-6.16102C1.21532-6.38045 1.21532-6.65052 1.19844-6.97123 1.18156-7.29194 1.14781-7.61265 1.13093-7.89961L2.27873-7.89961Z" stroke="#1FF3FF" stroke-width="0.33759" stroke-linejoin="round" stroke-miterlimit="2" fill="#1FF3FF" transform="matrix(1 0 0 1.0003 526.486 99.5858)"/><path d="M6.97123-6.04286C6.78556-6.32981 6.51549-6.583 6.1779-6.78556 5.82343-6.98811 5.4352-7.08939 4.99633-7.08939 4.54059-7.10627 4.1186-7.02187 3.76413-6.86996 3.39278-6.71804 3.07207-6.49861 2.81888-6.21166 2.56568-5.9247 2.36313-5.60399 2.22809-5.21576 2.09306-4.82754 2.02554-4.40555 2.02554-3.9498 2.02554-3.49406 2.09306-3.08895 2.22809-2.70072 2.36313-2.29561 2.56568-1.9749 2.81888-1.68795 3.07207-1.401 3.39278-1.18156 3.76413-1.02965 4.1186-0.877734 4.54059-0.793336 4.99633-0.810216 5.4352-0.810216 5.82343-0.911493 6.1779-1.11405 6.51549-1.3166 6.78556-1.56979 6.97123-1.85674L7.88273-1.16469C7.4945-0.708939 7.03875-0.371349 6.54925-0.151915 6.05974 0.0843975 5.53648 0.185674 4.99633 0.202554 4.35491 0.219434 3.78101 0.118157 3.25774-0.101277 2.73448-0.303831 2.29561-0.590782 1.94114-0.962131 1.56979-1.33348 1.28284-1.77235 1.09717-2.29561 0.911493-2.802 0.810216-3.35902 0.810216-3.9498 0.810216-4.54059 0.911493-5.09761 1.09717-5.62087 1.28284-6.12726 1.56979-6.56613 1.94114-6.93747 2.29561-7.30882 2.73448-7.59577 3.25774-7.81521 3.78101-8.01776 4.35491-8.11904 4.99633-8.10216 5.53648-8.08528 6.05974-7.96712 6.54925-7.76457 7.03875-7.54514 7.4945-7.19067 7.88273-6.73492L6.97123-6.04286Z" stroke="#1FF3FF" stroke-width="0.33759" stroke-linejoin="round" stroke-miterlimit="2" fill="#1FF3FF" transform="matrix(1 0 0 1.0003 535.871 99.5858)"/><path d="M7.35946-4.55747C7.35946-5.31704 7.14003-5.9247 6.68428-6.39733 6.22854-6.85308 5.60399-7.08939 4.79378-7.08939 4.43931-7.08939 4.08484-7.02187 3.74725-6.88684 3.40966-6.73492 3.12271-6.54925 2.86951-6.31293 2.61632-6.07662 2.39689-5.80655 2.26185-5.50272 2.10994-5.19889 2.02554-4.87818 2.02554-4.55747L7.35946-4.55747ZM1.99178-3.64597C2.02554-3.25774 2.12682-2.88639 2.27873-2.53192 2.43065-2.17746 2.65008-1.8905 2.90327-1.63731 3.15647-1.38412 3.4603-1.18156 3.79789-1.02965 4.13548-0.877734 4.50683-0.810216 4.89505-0.810216 5.48584-0.810216 6.0091-0.945252 6.44797-1.2322 6.86996-1.50228 7.20755-1.82299 7.42698-2.17746L8.28783-1.46852C7.81521-0.877734 7.29194-0.438867 6.73492-0.185674 6.16102 0.067518 5.55336 0.202554 4.89505 0.202554 4.30427 0.202554 3.76413 0.101277 3.27462-0.118157 2.76824-0.32071 2.32937-0.607662 1.9749-0.979011 1.62043-1.35036 1.33348-1.78923 1.13093-2.29561 0.911493-2.802 0.810216-3.35902 0.810216-3.9498 0.810216-4.54059 0.911493-5.09761 1.11405-5.60399 1.3166-6.11038 1.60355-6.54925 1.95802-6.92059 2.31249-7.29194 2.73448-7.5789 3.22398-7.79833 3.71349-8.00088 4.23675-8.10216 4.79378-8.10216 5.38456-8.10216 5.9247-8.00088 6.39733-7.78145 6.86996-7.56202 7.27506-7.29194 7.59577-6.93747 7.89961-6.583 8.1528-6.16102 8.32159-5.68839 8.49039-5.19889 8.57479-4.6925 8.57479-4.15236L8.57479-3.64597 1.99178-3.64597Z" stroke="#1FF3FF" stroke-width="0.33759" stroke-linejoin="round" stroke-miterlimit="2" fill="#1FF3FF" transform="matrix(1 0 0 1.0003 544.007 99.5858)"/><path d="M1.21532-6.14414C1.21532-6.43109 1.21532-6.73492 1.19844-7.02187 1.18156-7.30882 1.14781-7.61265 1.13093-7.89961L2.32937-7.89961 2.32937-6.70116 2.36313-6.70116C2.6332-7.15691 3.00455-7.51138 3.49406-7.74769 3.96668-7.984 4.43931-8.10216 4.91193-8.10216 5.13137-8.10216 5.3508-8.08528 5.60399-8.03464 5.84031-7.984 6.07662-7.89961 6.29605-7.79833 6.51549-7.68017 6.73492-7.51138 6.93747-7.29194 7.12315-7.07251 7.29194-6.80244 7.42698-6.46485 7.64641-6.97123 8.01776-7.37634 8.50727-7.66329 8.99677-7.95024 9.50316-8.10216 10.0264-8.10216 11.0392-8.10216 11.7819-7.83209 12.2714-7.30882 12.7609-6.76868 12.9972-6.0091 12.9972-5.01321L12.9972 0 11.8832 0 11.8832-4.6081C11.8832-5.40144 11.7481-6.02598 11.4612-6.44797 11.1742-6.86996 10.651-7.08939 9.89139-7.08939 9.4694-7.08939 9.13181-7.00499 8.84486-6.85308 8.55791-6.68428 8.33847-6.46485 8.16968-6.19478 7.984-5.9247 7.86585-5.62087 7.78145-5.28328 7.69705-4.92881 7.66329-4.57434 7.66329-4.203L7.66329 0 6.54925 0 6.54925-4.6081C6.54925-5.40144 6.41421-6.02598 6.12726-6.44797 5.84031-6.86996 5.31704-7.08939 4.55747-7.08939 4.48995-7.08939 4.33803-7.07251 4.10172-7.02187 3.84853-6.97123 3.59533-6.85308 3.34214-6.65052 3.08895-6.44797 2.85264-6.14414 2.65008-5.73903 2.43065-5.33392 2.32937-4.7769 2.32937-4.05108L2.32937 0 1.21532 0 1.21532-6.14414Z" stroke="#1FF3FF" stroke-width="0.33759" stroke-linejoin="round" stroke-miterlimit="2" fill="#1FF3FF" transform="matrix(1 0 0 1.0003 558.085 99.5858)"/><path d="M5.70527-3.93292C5.41832-3.93292 5.08073-3.91604 4.65874-3.89916 4.23675-3.86541 3.83165-3.79789 3.44342-3.69661 3.05519-3.57845 2.7176-3.40966 2.44753-3.19023 2.16058-2.97079 2.02554-2.65008 2.02554-2.26185 2.02554-2.00866 2.07618-1.78923 2.19433-1.60355 2.29561-1.41788 2.43065-1.26596 2.61632-1.14781 2.802-1.02965 3.00455-0.945252 3.22398-0.894613 3.44342-0.827095 3.66285-0.810216 3.88228-0.810216 4.28739-0.810216 4.64186-0.877734 4.94569-1.01277 5.23265-1.14781 5.48584-1.33348 5.68839-1.56979 5.89095-1.78923 6.04286-2.0593 6.14414-2.38001 6.22854-2.68384 6.27917-3.00455 6.27917-3.35902L6.27917-3.93292 5.70527-3.93292ZM6.27917-4.84442 6.27917-5.04697C6.27917-6.41421 5.60399-7.08939 4.25363-7.08939 3.32526-7.08939 2.53192-6.78556 1.83987-6.16102L1.16469-6.95435C1.90738-7.71393 3.02143-8.10216 4.50683-8.10216 4.89505-8.10216 5.2664-8.05152 5.62087-7.93336 5.97534-7.81521 6.27917-7.64641 6.53237-7.42698 6.78556-7.19067 7.00499-6.90372 7.15691-6.54925 7.30882-6.19478 7.39322-5.78967 7.39322-5.30016L7.39322-1.77235C7.39322-1.46852 7.4101-1.14781 7.44386-0.827095 7.46074-0.489505 7.4945-0.219434 7.52826 0L6.44797 0C6.41421-0.185674 6.39733-0.405108 6.38045-0.624541 6.36357-0.843975 6.34669-1.06341 6.34669-1.28284L6.31293-1.28284C5.99222-0.759578 5.60399-0.371349 5.16513-0.151915 4.70938 0.0843975 4.16924 0.202554 3.52782 0.202554 3.17335 0.202554 2.83576 0.151915 2.51505 0.067518 2.19433-0.033759 1.90738-0.185674 1.65419-0.388228 1.401-0.573903 1.18156-0.827095 1.04653-1.11405 0.894613-1.401 0.810216-1.72171 0.810216-2.10994 0.810216-2.75136 0.979011-3.25774 1.3166-3.62909 1.63731-3.98356 2.0593-4.25363 2.56568-4.43931 3.05519-4.62498 3.59533-4.72626 4.16924-4.7769 4.72626-4.82754 5.24952-4.84442 5.72215-4.84442L6.27917-4.84442Z" stroke="#1FF3FF" stroke-width="0.33759" stroke-linejoin="round" stroke-miterlimit="2" fill="#1FF3FF" transform="matrix(1 0 0 1.0003 572.466 99.5858)"/><path d="M5.30016-6.88684 3.02143-6.88684 3.02143-2.22809C3.02143-1.94114 3.05519-1.68795 3.10583-1.51916 3.15647-1.33348 3.24086-1.18156 3.34214-1.08029 3.44342-0.979011 3.56157-0.911493 3.71349-0.877734 3.84853-0.827095 4.00044-0.810216 4.16924-0.810216 4.35491-0.810216 4.55747-0.843975 4.76002-0.894613 4.96257-0.945252 5.14825-1.02965 5.31704-1.11405L5.36768-0.0843975C4.94569 0.101277 4.45619 0.202554 3.86541 0.202554 3.64597 0.202554 3.42654 0.168795 3.2071 0.118157 2.97079 0.067518 2.75136-0.0506385 2.56568-0.202554 2.38001-0.354469 2.21121-0.573903 2.09306-0.843975 1.9749-1.11405 1.90738-1.46852 1.90738-1.90738L1.90738-6.88684 0.236313-6.88684 0.236313-7.89961 1.90738-7.89961 1.90738-10.1277 3.02143-10.1277 3.02143-7.89961 5.30016-7.89961 5.30016-6.88684Z" stroke="#1FF3FF" stroke-width="0.33759" stroke-linejoin="round" stroke-miterlimit="2" fill="#1FF3FF" transform="matrix(1 0 0 1.0003 581.225 99.5858)"/><path d="M1.33348-5.4352C1.33348-5.78967 1.33348-6.14414 1.3166-6.49861 1.29972-6.85308 1.28284-7.3257 1.26596-7.89961L2.36313-7.89961 2.36313-6.43109 2.39689-6.43109C2.48129-6.65052 2.58256-6.85308 2.73448-7.05563 2.88639-7.2413 3.05519-7.42698 3.27462-7.5789 3.47718-7.73081 3.71349-7.86585 4.00044-7.96712 4.27051-8.05152 4.57434-8.10216 4.92881-8.10216 5.24952-8.10216 5.5196-8.0684 5.75591-8.00088L5.53648-6.90372C5.38456-6.95435 5.18201-6.98811 4.89505-6.98811 4.47307-6.98811 4.10172-6.90372 3.79789-6.7518 3.49406-6.583 3.24086-6.38045 3.03831-6.12726 2.83576-5.85719 2.68384-5.58711 2.59944-5.30016 2.49817-5.01321 2.44753-4.72626 2.44753-4.45619L2.44753 0 1.33348 0 1.33348-5.4352Z" stroke="#1FF3FF" stroke-width="0.33759" stroke-linejoin="round" stroke-miterlimit="2" fill="#1FF3FF" transform="matrix(1 0 0 1.0003 586.83 99.5858)"/><path d="M2.83576-10.9379C2.83576-10.7016 2.75136-10.5159 2.58256-10.364 2.41377-10.1952 2.22809-10.1277 2.02554-10.1277 1.82299-10.1277 1.63731-10.1952 1.46852-10.364 1.29972-10.5159 1.21532-10.7016 1.21532-10.9379 1.21532-11.1742 1.29972-11.3768 1.46852-11.5287 1.63731-11.6806 1.82299-11.7481 2.02554-11.7481 2.22809-11.7481 2.41377-11.6806 2.58256-11.5287 2.75136-11.3768 2.83576-11.1742 2.83576-10.9379ZM2.58256 0 1.46852 0 1.46852-7.89961 2.58256-7.89961 2.58256 0Z" stroke="#1FF3FF" stroke-width="0.33759" stroke-linejoin="round" stroke-miterlimit="2" fill="#1FF3FF" transform="matrix(1 0 0 1.0003 592.435 99.5858)"/><path d="M3.25774-4.21987 0.388228-7.89961 1.90738-7.89961 4.10172-4.94569 6.19478-7.89961 7.5789-7.89961 4.82754-4.21987 8.13592 0 6.61676 0 3.96668-3.4603 1.41788 0 0 0 3.25774-4.21987Z" stroke="#1FF3FF" stroke-width="0.33759" stroke-linejoin="round" stroke-miterlimit="2" fill="#1FF3FF" transform="matrix(1 0 0 1.0003 596.487 99.5858)"/><path d="M5.40144-6.02598C5.23265-6.34669 5.01321-6.61676 4.72626-6.80244 4.43931-6.98811 4.10172-7.08939 3.69661-7.08939 3.51094-7.08939 3.30838-7.07251 3.12271-7.02187 2.92015-6.97123 2.73448-6.90372 2.58256-6.81932 2.43065-6.71804 2.29561-6.59988 2.21121-6.44797 2.10994-6.29605 2.0593-6.12726 2.0593-5.90782 2.0593-5.53648 2.19433-5.2664 2.44753-5.09761 2.70072-4.92881 3.08895-4.7769 3.61221-4.65874L4.74314-4.38867C5.30016-4.27051 5.75591-4.01732 6.12726-3.64597 6.48173-3.25774 6.6674-2.78512 6.6674-2.22809 6.6674-1.80611 6.583-1.43476 6.41421-1.13093 6.22854-0.810216 6.0091-0.557023 5.72215-0.371349 5.4352-0.168795 5.09761-0.0168795 4.72626 0.067518 4.35491 0.151915 3.98356 0.202554 3.59533 0.202554 2.98767 0.202554 2.41377 0.0843975 1.90738-0.151915 1.38412-0.371349 0.928372-0.776457 0.557023-1.33348L1.51916-1.99178C1.73859-1.63731 2.02554-1.35036 2.38001-1.13093 2.7176-0.911493 3.12271-0.810216 3.59533-0.810216 3.81477-0.810216 4.05108-0.827095 4.27051-0.894613 4.48995-0.945252 4.6925-1.01277 4.87818-1.13093 5.04697-1.2322 5.18201-1.36724 5.30016-1.53603 5.40144-1.70483 5.45208-1.90738 5.45208-2.12682 5.45208-2.51505 5.30016-2.802 5.01321-2.98767 4.72626-3.15647 4.37179-3.2915 3.9498-3.39278L2.86951-3.64597C2.73448-3.67973 2.5488-3.73037 2.32937-3.81477 2.09306-3.89916 1.87362-4.01732 1.65419-4.16924 1.43476-4.32115 1.2322-4.54059 1.08029-4.79378 0.928372-5.04697 0.843975-5.3508 0.843975-5.72215 0.843975-6.12726 0.928372-6.48173 1.09717-6.78556 1.24908-7.08939 1.46852-7.34258 1.75547-7.52826 2.02554-7.71393 2.32937-7.86585 2.68384-7.96712 3.03831-8.05152 3.39278-8.10216 3.76413-8.10216 4.32115-8.10216 4.82754-8.00088 5.30016-7.78145 5.77279-7.56202 6.14414-7.20755 6.39733-6.68428L5.40144-6.02598Z" stroke="#1FF3FF" stroke-width="0.33759" stroke-linejoin="round" stroke-miterlimit="2" fill="#1FF3FF" transform="matrix(1 0 0 1.0003 473.029 116.47)"/><path d="M4.15236-1.36724 6.56613-7.89961 7.91649-7.89961 3.96668 2.0593C3.73037 2.66696 3.42654 3.15647 3.07207 3.51094 2.70072 3.86541 2.17746 4.05108 1.4854 4.05108 1.3166 4.05108 1.14781 4.05108 0.979011 4.0342 0.793336 4.01732 0.624541 3.98356 0.455747 3.93292L0.573903 2.85264C0.810216 2.97079 1.09717 3.03831 1.41788 3.03831 1.80611 3.03831 2.12682 2.92015 2.34625 2.66696 2.56568 2.41377 2.76824 2.07618 2.93703 1.62043L3.51094 0.101277 0.270072-7.89961 1.67107-7.89961 4.15236-1.36724Z" stroke="#1FF3FF" stroke-width="0.33759" stroke-linejoin="round" stroke-miterlimit="2" fill="#1FF3FF" transform="matrix(1 0 0 1.0003 480.22 116.47)"/><path d="M1.21532-6.14414C1.21532-6.43109 1.21532-6.73492 1.19844-7.02187 1.18156-7.30882 1.14781-7.61265 1.13093-7.89961L2.32937-7.89961 2.32937-6.70116 2.36313-6.70116C2.6332-7.15691 3.00455-7.51138 3.49406-7.74769 3.96668-7.984 4.43931-8.10216 4.91193-8.10216 5.13137-8.10216 5.3508-8.08528 5.60399-8.03464 5.84031-7.984 6.07662-7.89961 6.29605-7.79833 6.51549-7.68017 6.73492-7.51138 6.93747-7.29194 7.12315-7.07251 7.29194-6.80244 7.42698-6.46485 7.64641-6.97123 8.01776-7.37634 8.50727-7.66329 8.99677-7.95024 9.50316-8.10216 10.0264-8.10216 11.0392-8.10216 11.7819-7.83209 12.2714-7.30882 12.7609-6.76868 12.9972-6.0091 12.9972-5.01321L12.9972 0 11.8832 0 11.8832-4.6081C11.8832-5.40144 11.7481-6.02598 11.4612-6.44797 11.1742-6.86996 10.651-7.08939 9.89139-7.08939 9.4694-7.08939 9.13181-7.00499 8.84486-6.85308 8.55791-6.68428 8.33847-6.46485 8.16968-6.19478 7.984-5.9247 7.86585-5.62087 7.78145-5.28328 7.69705-4.92881 7.66329-4.57434 7.66329-4.203L7.66329 0 6.54925 0 6.54925-4.6081C6.54925-5.40144 6.41421-6.02598 6.12726-6.44797 5.84031-6.86996 5.31704-7.08939 4.55747-7.08939 4.48995-7.08939 4.33803-7.07251 4.10172-7.02187 3.84853-6.97123 3.59533-6.85308 3.34214-6.65052 3.08895-6.44797 2.85264-6.14414 2.65008-5.73903 2.43065-5.33392 2.32937-4.7769 2.32937-4.05108L2.32937 0 1.21532 0 1.21532-6.14414Z" stroke="#1FF3FF" stroke-width="0.33759" stroke-linejoin="round" stroke-miterlimit="2" fill="#1FF3FF" transform="matrix(1 0 0 1.0003 488.355 116.47)"/><path d="M1.21532-6.14414C1.21532-6.43109 1.21532-6.73492 1.19844-7.02187 1.18156-7.30882 1.14781-7.61265 1.13093-7.89961L2.32937-7.89961 2.32937-6.70116 2.36313-6.70116C2.6332-7.15691 3.00455-7.51138 3.49406-7.74769 3.96668-7.984 4.43931-8.10216 4.91193-8.10216 5.13137-8.10216 5.3508-8.08528 5.60399-8.03464 5.84031-7.984 6.07662-7.89961 6.29605-7.79833 6.51549-7.68017 6.73492-7.51138 6.93747-7.29194 7.12315-7.07251 7.29194-6.80244 7.42698-6.46485 7.64641-6.97123 8.01776-7.37634 8.50727-7.66329 8.99677-7.95024 9.50316-8.10216 10.0264-8.10216 11.0392-8.10216 11.7819-7.83209 12.2714-7.30882 12.7609-6.76868 12.9972-6.0091 12.9972-5.01321L12.9972 0 11.8832 0 11.8832-4.6081C11.8832-5.40144 11.7481-6.02598 11.4612-6.44797 11.1742-6.86996 10.651-7.08939 9.89139-7.08939 9.4694-7.08939 9.13181-7.00499 8.84486-6.85308 8.55791-6.68428 8.33847-6.46485 8.16968-6.19478 7.984-5.9247 7.86585-5.62087 7.78145-5.28328 7.69705-4.92881 7.66329-4.57434 7.66329-4.203L7.66329 0 6.54925 0 6.54925-4.6081C6.54925-5.40144 6.41421-6.02598 6.12726-6.44797 5.84031-6.86996 5.31704-7.08939 4.55747-7.08939 4.48995-7.08939 4.33803-7.07251 4.10172-7.02187 3.84853-6.97123 3.59533-6.85308 3.34214-6.65052 3.08895-6.44797 2.85264-6.14414 2.65008-5.73903 2.43065-5.33392 2.32937-4.7769 2.32937-4.05108L2.32937 0 1.21532 0 1.21532-6.14414Z" stroke="#1FF3FF" stroke-width="0.33759" stroke-linejoin="round" stroke-miterlimit="2" fill="#1FF3FF" transform="matrix(1 0 0 1.0003 502.737 116.47)"/><path d="M7.35946-4.55747C7.35946-5.31704 7.14003-5.9247 6.68428-6.39733 6.22854-6.85308 5.60399-7.08939 4.79378-7.08939 4.43931-7.08939 4.08484-7.02187 3.74725-6.88684 3.40966-6.73492 3.12271-6.54925 2.86951-6.31293 2.61632-6.07662 2.39689-5.80655 2.26185-5.50272 2.10994-5.19889 2.02554-4.87818 2.02554-4.55747L7.35946-4.55747ZM1.99178-3.64597C2.02554-3.25774 2.12682-2.88639 2.27873-2.53192 2.43065-2.17746 2.65008-1.8905 2.90327-1.63731 3.15647-1.38412 3.4603-1.18156 3.79789-1.02965 4.13548-0.877734 4.50683-0.810216 4.89505-0.810216 5.48584-0.810216 6.0091-0.945252 6.44797-1.2322 6.86996-1.50228 7.20755-1.82299 7.42698-2.17746L8.28783-1.46852C7.81521-0.877734 7.29194-0.438867 6.73492-0.185674 6.16102 0.067518 5.55336 0.202554 4.89505 0.202554 4.30427 0.202554 3.76413 0.101277 3.27462-0.118157 2.76824-0.32071 2.32937-0.607662 1.9749-0.979011 1.62043-1.35036 1.33348-1.78923 1.13093-2.29561 0.911493-2.802 0.810216-3.35902 0.810216-3.9498 0.810216-4.54059 0.911493-5.09761 1.11405-5.60399 1.3166-6.11038 1.60355-6.54925 1.95802-6.92059 2.31249-7.29194 2.73448-7.5789 3.22398-7.79833 3.71349-8.00088 4.23675-8.10216 4.79378-8.10216 5.38456-8.10216 5.9247-8.00088 6.39733-7.78145 6.86996-7.56202 7.27506-7.29194 7.59577-6.93747 7.89961-6.583 8.1528-6.16102 8.32159-5.68839 8.49039-5.19889 8.57479-4.6925 8.57479-4.15236L8.57479-3.64597 1.99178-3.64597Z" stroke="#1FF3FF" stroke-width="0.33759" stroke-linejoin="round" stroke-miterlimit="2" fill="#1FF3FF" transform="matrix(1 0 0 1.0003 517.118 116.47)"/><path d="M5.30016-6.88684 3.02143-6.88684 3.02143-2.22809C3.02143-1.94114 3.05519-1.68795 3.10583-1.51916 3.15647-1.33348 3.24086-1.18156 3.34214-1.08029 3.44342-0.979011 3.56157-0.911493 3.71349-0.877734 3.84853-0.827095 4.00044-0.810216 4.16924-0.810216 4.35491-0.810216 4.55747-0.843975 4.76002-0.894613 4.96257-0.945252 5.14825-1.02965 5.31704-1.11405L5.36768-0.0843975C4.94569 0.101277 4.45619 0.202554 3.86541 0.202554 3.64597 0.202554 3.42654 0.168795 3.2071 0.118157 2.97079 0.067518 2.75136-0.0506385 2.56568-0.202554 2.38001-0.354469 2.21121-0.573903 2.09306-0.843975 1.9749-1.11405 1.90738-1.46852 1.90738-1.90738L1.90738-6.88684 0.236313-6.88684 0.236313-7.89961 1.90738-7.89961 1.90738-10.1277 3.02143-10.1277 3.02143-7.89961 5.30016-7.89961 5.30016-6.88684Z" stroke="#1FF3FF" stroke-width="0.33759" stroke-linejoin="round" stroke-miterlimit="2" fill="#1FF3FF" transform="matrix(1 0 0 1.0003 526.503 116.47)"/><path d="M1.33348-5.4352C1.33348-5.78967 1.33348-6.14414 1.3166-6.49861 1.29972-6.85308 1.28284-7.3257 1.26596-7.89961L2.36313-7.89961 2.36313-6.43109 2.39689-6.43109C2.48129-6.65052 2.58256-6.85308 2.73448-7.05563 2.88639-7.2413 3.05519-7.42698 3.27462-7.5789 3.47718-7.73081 3.71349-7.86585 4.00044-7.96712 4.27051-8.05152 4.57434-8.10216 4.92881-8.10216 5.24952-8.10216 5.5196-8.0684 5.75591-8.00088L5.53648-6.90372C5.38456-6.95435 5.18201-6.98811 4.89505-6.98811 4.47307-6.98811 4.10172-6.90372 3.79789-6.7518 3.49406-6.583 3.24086-6.38045 3.03831-6.12726 2.83576-5.85719 2.68384-5.58711 2.59944-5.30016 2.49817-5.01321 2.44753-4.72626 2.44753-4.45619L2.44753 0 1.33348 0 1.33348-5.4352Z" stroke="#1FF3FF" stroke-width="0.33759" stroke-linejoin="round" stroke-miterlimit="2" fill="#1FF3FF" transform="matrix(1 0 0 1.0003 532.107 116.47)"/><path d="M2.83576-10.9379C2.83576-10.7016 2.75136-10.5159 2.58256-10.364 2.41377-10.1952 2.22809-10.1277 2.02554-10.1277 1.82299-10.1277 1.63731-10.1952 1.46852-10.364 1.29972-10.5159 1.21532-10.7016 1.21532-10.9379 1.21532-11.1742 1.29972-11.3768 1.46852-11.5287 1.63731-11.6806 1.82299-11.7481 2.02554-11.7481 2.22809-11.7481 2.41377-11.6806 2.58256-11.5287 2.75136-11.3768 2.83576-11.1742 2.83576-10.9379ZM2.58256 0 1.46852 0 1.46852-7.89961 2.58256-7.89961 2.58256 0Z" stroke="#1FF3FF" stroke-width="0.33759" stroke-linejoin="round" stroke-miterlimit="2" fill="#1FF3FF" transform="matrix(1 0 0 1.0003 537.711 116.47)"/><path d="M6.97123-6.04286C6.78556-6.32981 6.51549-6.583 6.1779-6.78556 5.82343-6.98811 5.4352-7.08939 4.99633-7.08939 4.54059-7.10627 4.1186-7.02187 3.76413-6.86996 3.39278-6.71804 3.07207-6.49861 2.81888-6.21166 2.56568-5.9247 2.36313-5.60399 2.22809-5.21576 2.09306-4.82754 2.02554-4.40555 2.02554-3.9498 2.02554-3.49406 2.09306-3.08895 2.22809-2.70072 2.36313-2.29561 2.56568-1.9749 2.81888-1.68795 3.07207-1.401 3.39278-1.18156 3.76413-1.02965 4.1186-0.877734 4.54059-0.793336 4.99633-0.810216 5.4352-0.810216 5.82343-0.911493 6.1779-1.11405 6.51549-1.3166 6.78556-1.56979 6.97123-1.85674L7.88273-1.16469C7.4945-0.708939 7.03875-0.371349 6.54925-0.151915 6.05974 0.0843975 5.53648 0.185674 4.99633 0.202554 4.35491 0.219434 3.78101 0.118157 3.25774-0.101277 2.73448-0.303831 2.29561-0.590782 1.94114-0.962131 1.56979-1.33348 1.28284-1.77235 1.09717-2.29561 0.911493-2.802 0.810216-3.35902 0.810216-3.9498 0.810216-4.54059 0.911493-5.09761 1.09717-5.62087 1.28284-6.12726 1.56979-6.56613 1.94114-6.93747 2.29561-7.30882 2.73448-7.59577 3.25774-7.81521 3.78101-8.01776 4.35491-8.11904 4.99633-8.10216 5.53648-8.08528 6.05974-7.96712 6.54925-7.76457 7.03875-7.54514 7.4945-7.19067 7.88273-6.73492L6.97123-6.04286Z" stroke="#1FF3FF" stroke-width="0.33759" stroke-linejoin="round" stroke-miterlimit="2" fill="#1FF3FF" transform="matrix(1 0 0 1.0003 541.762 116.47)"/><path d="M5.40175-6.02633C5.23295-6.34706 5.0135-6.61715 4.72654-6.80283 4.43957-6.98852 4.10196-7.0898 3.69683-7.0898 3.51114-7.0898 3.30857-7.07292 3.12289-7.02228 2.92032-6.97164 2.73464-6.90412 2.58271-6.81972 2.43079-6.71843 2.29575-6.60027 2.21134-6.44834 2.11006-6.29642 2.05942-6.12762 2.05942-5.90817 2.05942-5.5368 2.19446-5.26671 2.44767-5.09791 2.70088-4.9291 3.08913-4.77718 3.61242-4.65901L4.74342-4.38893C5.30047-4.27076 5.75624-4.01756 6.12762-3.64618 6.48211-3.25793 6.66779-2.78528 6.66779-2.22822 6.66779-1.80621 6.58339-1.43484 6.41458-1.13099 6.2289-0.810263 6.00945-0.557056 5.72248-0.371371 5.43552-0.168805 5.09791-0.0168805 4.72654 0.0675219 4.35516 0.151924 3.98379 0.202566 3.59554 0.202566 2.98785 0.202566 2.41391 0.0844024 1.90749-0.151924 1.3842-0.371371 0.928427-0.776502 0.557056-1.33356L1.51924-1.9919C1.73869-1.63741 2.02566-1.35044 2.38015-1.13099 2.71776-0.911546 3.12289-0.810263 3.59554-0.810263 3.81499-0.810263 4.05132-0.827144 4.27076-0.894666 4.49021-0.945307 4.69277-1.01283 4.87846-1.13099 5.04726-1.23228 5.18231-1.36732 5.30047-1.53612 5.40175-1.70493 5.4524-1.90749 5.4524-2.12694 5.4524-2.51519 5.30047-2.80216 5.0135-2.98785 4.72654-3.15665 4.37205-3.29169 3.95003-3.39298L2.86968-3.64618C2.73464-3.67995 2.54895-3.73059 2.32951-3.81499 2.09318-3.89939 1.87373-4.01756 1.65429-4.16948 1.43484-4.3214 1.23228-4.54085 1.08035-4.79406 0.928427-5.04726 0.844024-5.35111 0.844024-5.72248 0.844024-6.12762 0.928427-6.48211 1.09723-6.78595 1.24916-7.0898 1.4686-7.34301 1.75557-7.5287 2.02566-7.71438 2.32951-7.86631 2.684-7.96759 3.03849-8.05199 3.39298-8.10263 3.76435-8.10263 4.3214-8.10263 4.82782-8.00135 5.30047-7.7819 5.77313-7.56246 6.1445-7.20797 6.3977-6.68467L5.40175-6.02633Z" stroke="#1FF3FF" stroke-width="0.33761" stroke-linejoin="round" stroke-miterlimit="2" fill="#1FF3FF" transform="matrix(0.437178 0.899584 -0.899311 0.437311 445.408 3.20427)"/><path d="M8.42336-3.95003C8.42336-4.38893 8.35584-4.79406 8.2208-5.18231 8.06887-5.57056 7.86631-5.89129 7.6131-6.17826 7.35989-6.46523 7.03916-6.68467 6.68467-6.85348 6.3133-7.0054 5.89129-7.0898 5.43552-7.0898 4.97974-7.0898 4.55773-7.0054 4.16948-6.85348 3.78123-6.68467 3.4605-6.46523 3.17353-6.17826 2.88656-5.89129 2.66712-5.57056 2.51519-5.18231 2.36327-4.79406 2.27887-4.38893 2.27887-3.95003 2.27887-3.51114 2.36327-3.10601 2.51519-2.71776 2.66712-2.32951 2.88656-2.00878 3.17353-1.72181 3.4605-1.43484 3.78123-1.21539 4.16948-1.06347 4.55773-0.894666 4.97974-0.810263 5.43552-0.810263 5.89129-0.810263 6.3133-0.894666 6.68467-1.06347 7.03916-1.21539 7.35989-1.43484 7.6131-1.72181 7.86631-2.00878 8.06887-2.32951 8.2208-2.71776 8.35584-3.10601 8.42336-3.51114 8.42336-3.95003ZM1.21539-7.90007 2.32951-7.90007 2.32951-6.58339 2.36327-6.58339C2.54895-6.85348 2.75152-7.0898 3.00473-7.27549 3.25793-7.46117 3.51114-7.62998 3.78123-7.74814 4.05132-7.86631 4.33828-7.96759 4.62525-8.01823 4.91222-8.06887 5.18231-8.10263 5.43552-8.10263 6.06009-8.10263 6.61715-8.00135 7.14044-7.79878 7.64686-7.57934 8.08575-7.29237 8.45712-6.921 8.82849-6.54963 9.11546-6.11073 9.33491-5.60432 9.53747-5.09791 9.63876-4.54085 9.63876-3.95003 9.63876-3.35922 9.53747-2.80216 9.33491-2.29575 9.11546-1.78933 8.82849-1.35044 8.45712-0.979068 8.08575-0.607697 7.64686-0.320729 7.14044-0.118163 6.61715 0.101283 6.06009 0.202566 5.43552 0.202566 5.18231 0.202566 4.91222 0.168805 4.62525 0.118163 4.33828 0.0675219 4.05132-0.033761 3.78123-0.151924 3.51114-0.270088 3.25793-0.438893 3.00473-0.624578 2.75152-0.810263 2.54895-1.04659 2.36327-1.31668L2.32951-1.31668 2.32951 4.86158 1.21539 4.86158 1.21539-7.90007Z" stroke="#1FF3FF" stroke-width="0.33761" stroke-linejoin="round" stroke-miterlimit="2" fill="#1FF3FF" transform="matrix(0.437178 0.899584 -0.899311 0.437311 448.552 9.67337)"/><path d="M7.35989-4.55773C7.35989-5.31735 7.14044-5.92505 6.68467-6.3977 6.2289-6.85348 5.60432-7.0898 4.79406-7.0898 4.43957-7.0898 4.08508-7.02228 3.74747-6.88724 3.40986-6.73531 3.12289-6.54963 2.86968-6.3133 2.61647-6.07697 2.39703-5.80689 2.26198-5.50304 2.11006-5.19919 2.02566-4.87846 2.02566-4.55773L7.35989-4.55773ZM1.9919-3.64618C2.02566-3.25793 2.12694-2.88656 2.27887-2.53207 2.43079-2.17758 2.65024-1.89061 2.90344-1.63741 3.15665-1.3842 3.4605-1.18163 3.79811-1.02971 4.13572-0.877785 4.50709-0.810263 4.89534-0.810263 5.48616-0.810263 6.00945-0.945307 6.44834-1.23228 6.87036-1.50236 7.20797-1.82309 7.42741-2.17758L8.28832-1.4686C7.81566-0.877785 7.29237-0.438893 6.73531-0.185685 6.16138 0.0675219 5.55368 0.202566 4.89534 0.202566 4.30452 0.202566 3.76435 0.101283 3.27481-0.118163 2.7684-0.320729 2.32951-0.607697 1.97502-0.979068 1.62053-1.35044 1.33356-1.78933 1.13099-2.29575 0.911546-2.80216 0.810263-3.35922 0.810263-3.95003 0.810263-4.54085 0.911546-5.09791 1.11411-5.60432 1.31668-6.11073 1.60365-6.54963 1.95814-6.921 2.31263-7.29237 2.73464-7.57934 3.22417-7.79878 3.71371-8.00135 4.237-8.10263 4.79406-8.10263 5.38487-8.10263 5.92505-8.00135 6.3977-7.7819 6.87036-7.56246 7.27549-7.29237 7.59622-6.93788 7.90007-6.58339 8.15327-6.16138 8.32208-5.68872 8.49088-5.19919 8.57529-4.69277 8.57529-4.1526L8.57529-3.64618 1.9919-3.64618Z" stroke="#1FF3FF" stroke-width="0.33761" stroke-linejoin="round" stroke-miterlimit="2" fill="#1FF3FF" transform="matrix(0.437178 0.899584 -0.899311 0.437311 453.061 18.9516)"/><path d="M6.97164-6.04321C6.78595-6.33018 6.51587-6.58339 6.17826-6.78595 5.82377-6.98852 5.43552-7.0898 4.99662-7.0898 4.54085-7.10668 4.11884-7.02228 3.76435-6.87036 3.39298-6.71843 3.07225-6.49899 2.81904-6.21202 2.56583-5.92505 2.36327-5.60432 2.22822-5.21607 2.09318-4.82782 2.02566-4.40581 2.02566-3.95003 2.02566-3.49426 2.09318-3.08913 2.22822-2.70088 2.36327-2.29575 2.56583-1.97502 2.81904-1.68805 3.07225-1.40108 3.39298-1.18163 3.76435-1.02971 4.11884-0.877785 4.54085-0.793383 4.99662-0.810263 5.43552-0.810263 5.82377-0.911546 6.17826-1.11411 6.51587-1.31668 6.78595-1.56989 6.97164-1.85685L7.88319-1.16475C7.49494-0.70898 7.03916-0.371371 6.54963-0.151924 6.06009 0.0844024 5.5368 0.185685 4.99662 0.202566 4.35516 0.219446 3.78123 0.118163 3.25793-0.101283 2.73464-0.303849 2.29575-0.590817 1.94126-0.962188 1.56989-1.33356 1.28292-1.77245 1.09723-2.29575 0.911546-2.80216 0.810263-3.35922 0.810263-3.95003 0.810263-4.54085 0.911546-5.09791 1.09723-5.6212 1.28292-6.12762 1.56989-6.56651 1.94126-6.93788 2.29575-7.30925 2.73464-7.59622 3.25793-7.81566 3.78123-8.01823 4.35516-8.11951 4.99662-8.10263 5.5368-8.08575 6.06009-7.96759 6.54963-7.76502 7.03916-7.54558 7.49494-7.19109 7.88319-6.73531L6.97164-6.04321Z" stroke="#1FF3FF" stroke-width="0.33761" stroke-linejoin="round" stroke-miterlimit="2" fill="#1FF3FF" transform="matrix(0.437178 0.899584 -0.899311 0.437311 457.164 27.3946)"/><path d="M2.83592-10.9386C2.83592-10.7022 2.75152-10.5165 2.58271-10.3646 2.41391-10.1958 2.22822-10.1283 2.02566-10.1283 1.82309-10.1283 1.63741-10.1958 1.4686-10.3646 1.2998-10.5165 1.21539-10.7022 1.21539-10.9386 1.21539-11.1749 1.2998-11.3774 1.4686-11.5294 1.63741-11.6813 1.82309-11.7488 2.02566-11.7488 2.22822-11.7488 2.41391-11.6813 2.58271-11.5294 2.75152-11.3774 2.83592-11.1749 2.83592-10.9386ZM2.58271 0 1.4686 0 1.4686-7.90007 2.58271-7.90007 2.58271 0Z" stroke="#1FF3FF" stroke-width="0.33761" stroke-linejoin="round" stroke-miterlimit="2" fill="#1FF3FF" transform="matrix(0.437178 0.899584 -0.899311 0.437311 460.721 34.7129)"/><path d="M7.84942-10.9386C7.84942-10.7022 7.76502-10.5165 7.59622-10.3646 7.42741-10.1958 7.24173-10.1283 7.03916-10.1283 6.8366-10.1283 6.65091-10.1958 6.48211-10.3646 6.3133-10.5165 6.2289-10.7022 6.2289-10.9386 6.2289-11.1749 6.3133-11.3774 6.48211-11.5294 6.65091-11.6813 6.8366-11.7488 7.03916-11.7488 7.24173-11.7488 7.42741-11.6813 7.59622-11.5294 7.76502-11.3774 7.84942-11.1749 7.84942-10.9386ZM7.59622 0 6.48211 0 6.48211-7.90007 7.59622-7.90007 7.59622 0ZM4.89534-6.88724 3.02161-6.88724 3.02161 0 1.90749 0 1.90749-6.88724 0.236327-6.88724 0.236327-7.90007 1.90749-7.90007 1.90749-10.0608C1.90749-11.1074 2.14382-11.8501 2.63336-12.3059 3.12289-12.7448 3.76435-12.9642 4.55773-12.9642 4.70966-12.9642 4.87846-12.9473 5.04726-12.9305 5.19919-12.9136 5.36799-12.8798 5.51992-12.846L5.31735-11.8332C5.18231-11.867 5.04726-11.9007 4.89534-11.9176 4.74342-11.9345 4.60837-11.9514 4.45645-11.9514 4.1526-11.9514 3.89939-11.9007 3.71371-11.7995 3.52802-11.6982 3.3761-11.5631 3.27481-11.3774 3.17353-11.1918 3.10601-10.9723 3.07225-10.7191 3.03849-10.4659 3.02161-10.2127 3.02161-9.92572L3.02161-7.90007 4.89534-7.90007 4.89534-6.88724Z" stroke="#1FF3FF" stroke-width="0.33761" stroke-linejoin="round" stroke-miterlimit="2" fill="#1FF3FF" transform="matrix(0.437178 0.899584 -0.899311 0.437311 462.492 38.358)"/><path d="M7.35989-4.55773C7.35989-5.31735 7.14044-5.92505 6.68467-6.3977 6.2289-6.85348 5.60432-7.0898 4.79406-7.0898 4.43957-7.0898 4.08508-7.02228 3.74747-6.88724 3.40986-6.73531 3.12289-6.54963 2.86968-6.3133 2.61647-6.07697 2.39703-5.80689 2.26198-5.50304 2.11006-5.19919 2.02566-4.87846 2.02566-4.55773L7.35989-4.55773ZM1.9919-3.64618C2.02566-3.25793 2.12694-2.88656 2.27887-2.53207 2.43079-2.17758 2.65024-1.89061 2.90344-1.63741 3.15665-1.3842 3.4605-1.18163 3.79811-1.02971 4.13572-0.877785 4.50709-0.810263 4.89534-0.810263 5.48616-0.810263 6.00945-0.945307 6.44834-1.23228 6.87036-1.50236 7.20797-1.82309 7.42741-2.17758L8.28832-1.4686C7.81566-0.877785 7.29237-0.438893 6.73531-0.185685 6.16138 0.0675219 5.55368 0.202566 4.89534 0.202566 4.30452 0.202566 3.76435 0.101283 3.27481-0.118163 2.7684-0.320729 2.32951-0.607697 1.97502-0.979068 1.62053-1.35044 1.33356-1.78933 1.13099-2.29575 0.911546-2.80216 0.810263-3.35922 0.810263-3.95003 0.810263-4.54085 0.911546-5.09791 1.11411-5.60432 1.31668-6.11073 1.60365-6.54963 1.95814-6.921 2.31263-7.29237 2.73464-7.57934 3.22417-7.79878 3.71371-8.00135 4.237-8.10263 4.79406-8.10263 5.38487-8.10263 5.92505-8.00135 6.3977-7.7819 6.87036-7.56246 7.27549-7.29237 7.59622-6.93788 7.90007-6.58339 8.15327-6.16138 8.32208-5.68872 8.49088-5.19919 8.57529-4.69277 8.57529-4.1526L8.57529-3.64618 1.9919-3.64618Z" stroke="#1FF3FF" stroke-width="0.33761" stroke-linejoin="round" stroke-miterlimit="2" fill="#1FF3FF" transform="matrix(0.437178 0.899584 -0.899311 0.437311 466.456 46.5134)"/><path d="M5.40175-6.02633C5.23295-6.34706 5.0135-6.61715 4.72654-6.80283 4.43957-6.98852 4.10196-7.0898 3.69683-7.0898 3.51114-7.0898 3.30857-7.07292 3.12289-7.02228 2.92032-6.97164 2.73464-6.90412 2.58271-6.81972 2.43079-6.71843 2.29575-6.60027 2.21134-6.44834 2.11006-6.29642 2.05942-6.12762 2.05942-5.90817 2.05942-5.5368 2.19446-5.26671 2.44767-5.09791 2.70088-4.9291 3.08913-4.77718 3.61242-4.65901L4.74342-4.38893C5.30047-4.27076 5.75624-4.01756 6.12762-3.64618 6.48211-3.25793 6.66779-2.78528 6.66779-2.22822 6.66779-1.80621 6.58339-1.43484 6.41458-1.13099 6.2289-0.810263 6.00945-0.557056 5.72248-0.371371 5.43552-0.168805 5.09791-0.0168805 4.72654 0.0675219 4.35516 0.151924 3.98379 0.202566 3.59554 0.202566 2.98785 0.202566 2.41391 0.0844024 1.90749-0.151924 1.3842-0.371371 0.928427-0.776502 0.557056-1.33356L1.51924-1.9919C1.73869-1.63741 2.02566-1.35044 2.38015-1.13099 2.71776-0.911546 3.12289-0.810263 3.59554-0.810263 3.81499-0.810263 4.05132-0.827144 4.27076-0.894666 4.49021-0.945307 4.69277-1.01283 4.87846-1.13099 5.04726-1.23228 5.18231-1.36732 5.30047-1.53612 5.40175-1.70493 5.4524-1.90749 5.4524-2.12694 5.4524-2.51519 5.30047-2.80216 5.0135-2.98785 4.72654-3.15665 4.37205-3.29169 3.95003-3.39298L2.86968-3.64618C2.73464-3.67995 2.54895-3.73059 2.32951-3.81499 2.09318-3.89939 1.87373-4.01756 1.65429-4.16948 1.43484-4.3214 1.23228-4.54085 1.08035-4.79406 0.928427-5.04726 0.844024-5.35111 0.844024-5.72248 0.844024-6.12762 0.928427-6.48211 1.09723-6.78595 1.24916-7.0898 1.4686-7.34301 1.75557-7.5287 2.02566-7.71438 2.32951-7.86631 2.684-7.96759 3.03849-8.05199 3.39298-8.10263 3.76435-8.10263 4.3214-8.10263 4.82782-8.00135 5.30047-7.7819 5.77313-7.56246 6.1445-7.20797 6.3977-6.68467L5.40175-6.02633Z" stroke="#1FF3FF" stroke-width="0.33761" stroke-linejoin="round" stroke-miterlimit="2" fill="#1FF3FF" transform="matrix(0.437178 0.899584 -0.899311 0.437311 470.558 54.9553)"/><path d="M6.97164-6.04321C6.78595-6.33018 6.51587-6.58339 6.17826-6.78595 5.82377-6.98852 5.43552-7.0898 4.99662-7.0898 4.54085-7.10668 4.11884-7.02228 3.76435-6.87036 3.39298-6.71843 3.07225-6.49899 2.81904-6.21202 2.56583-5.92505 2.36327-5.60432 2.22822-5.21607 2.09318-4.82782 2.02566-4.40581 2.02566-3.95003 2.02566-3.49426 2.09318-3.08913 2.22822-2.70088 2.36327-2.29575 2.56583-1.97502 2.81904-1.68805 3.07225-1.40108 3.39298-1.18163 3.76435-1.02971 4.11884-0.877785 4.54085-0.793383 4.99662-0.810263 5.43552-0.810263 5.82377-0.911546 6.17826-1.11411 6.51587-1.31668 6.78595-1.56989 6.97164-1.85685L7.88319-1.16475C7.49494-0.70898 7.03916-0.371371 6.54963-0.151924 6.06009 0.0844024 5.5368 0.185685 4.99662 0.202566 4.35516 0.219446 3.78123 0.118163 3.25793-0.101283 2.73464-0.303849 2.29575-0.590817 1.94126-0.962188 1.56989-1.33356 1.28292-1.77245 1.09723-2.29575 0.911546-2.80216 0.810263-3.35922 0.810263-3.95003 0.810263-4.54085 0.911546-5.09791 1.09723-5.6212 1.28292-6.12762 1.56989-6.56651 1.94126-6.93788 2.29575-7.30925 2.73464-7.59622 3.25793-7.81566 3.78123-8.01823 4.35516-8.11951 4.99662-8.10263 5.5368-8.08575 6.06009-7.96759 6.54963-7.76502 7.03916-7.54558 7.49494-7.19109 7.88319-6.73531L6.97164-6.04321Z" stroke="#1FF3FF" stroke-width="0.33761" stroke-linejoin="round" stroke-miterlimit="2" fill="#1FF3FF" transform="matrix(0.437178 0.899584 -0.899311 0.437311 430.228 10.5863)"/><path d="M7.98447-3.95003C7.98447-4.38893 7.91695-4.79406 7.7819-5.18231 7.62998-5.57056 7.42741-5.89129 7.17421-6.17826 6.921-6.46523 6.60027-6.68467 6.24578-6.85348 5.87441-7.0054 5.4524-7.0898 4.99662-7.0898 4.54085-7.0898 4.11884-7.0054 3.76435-6.85348 3.39298-6.68467 3.08913-6.46523 2.83592-6.17826 2.58271-5.89129 2.38015-5.57056 2.2451-5.18231 2.09318-4.79406 2.02566-4.38893 2.02566-3.95003 2.02566-3.51114 2.09318-3.10601 2.2451-2.71776 2.38015-2.32951 2.58271-2.00878 2.83592-1.72181 3.08913-1.43484 3.39298-1.21539 3.76435-1.06347 4.11884-0.894666 4.54085-0.810263 4.99662-0.810263 5.4524-0.810263 5.87441-0.894666 6.24578-1.06347 6.60027-1.21539 6.921-1.43484 7.17421-1.72181 7.42741-2.00878 7.62998-2.32951 7.7819-2.71776 7.91695-3.10601 7.98447-3.51114 7.98447-3.95003ZM9.19986-3.95003C9.19986-3.35922 9.09858-2.80216 8.89602-2.29575 8.67657-1.78933 8.3896-1.35044 8.01823-0.979068 7.64686-0.607697 7.20797-0.320729 6.70155-0.118163 6.17826 0.101283 5.6212 0.202566 4.99662 0.202566 4.38893 0.202566 3.83187 0.101283 3.32546-0.118163 2.80216-0.320729 2.36327-0.607697 1.9919-0.979068 1.62053-1.35044 1.33356-1.78933 1.13099-2.29575 0.911546-2.80216 0.810263-3.35922 0.810263-3.95003 0.810263-4.54085 0.911546-5.09791 1.13099-5.60432 1.33356-6.11073 1.62053-6.54963 1.9919-6.921 2.36327-7.29237 2.80216-7.57934 3.32546-7.79878 3.83187-8.00135 4.38893-8.10263 4.99662-8.10263 5.6212-8.10263 6.17826-8.00135 6.70155-7.79878 7.20797-7.57934 7.64686-7.29237 8.01823-6.921 8.3896-6.54963 8.67657-6.11073 8.89602-5.60432 9.09858-5.09791 9.19986-4.54085 9.19986-3.95003Z" stroke="#1FF3FF" stroke-width="0.33761" stroke-linejoin="round" stroke-miterlimit="2" fill="#1FF3FF" transform="matrix(0.437178 0.899584 -0.899311 0.437311 433.785 17.9057)"/><path d="M4.69277 0 3.44362 0 0.236327-7.90007 1.56989-7.90007 4.08508-1.24916 4.11884-1.24916 6.63403-7.90007 7.90007-7.90007 4.69277 0Z" stroke="#1FF3FF" stroke-width="0.33761" stroke-linejoin="round" stroke-miterlimit="2" fill="#1FF3FF" transform="matrix(0.437178 0.899584 -0.899311 0.437311 438.161 26.9106)"/><path d="M5.7056-3.93315C5.41864-3.93315 5.08103-3.91627 4.65901-3.89939 4.237-3.86563 3.83187-3.79811 3.44362-3.69683 3.05537-3.57866 2.71776-3.40986 2.44767-3.19041 2.1607-2.97097 2.02566-2.65024 2.02566-2.26198 2.02566-2.00878 2.0763-1.78933 2.19446-1.60365 2.29575-1.41796 2.43079-1.26604 2.61647-1.14787 2.80216-1.02971 3.00473-0.945307 3.22417-0.894666 3.44362-0.827144 3.66306-0.810263 3.88251-0.810263 4.28764-0.810263 4.64213-0.877785 4.94598-1.01283 5.23295-1.14787 5.48616-1.33356 5.68872-1.56989 5.89129-1.78933 6.04321-2.05942 6.1445-2.38015 6.2289-2.684 6.27954-3.00473 6.27954-3.35922L6.27954-3.93315 5.7056-3.93315ZM6.27954-4.8447 6.27954-5.04726C6.27954-6.41458 5.60432-7.0898 4.25388-7.0898 3.32546-7.0898 2.53207-6.78595 1.83997-6.16138L1.16475-6.95476C1.90749-7.71438 3.02161-8.10263 4.50709-8.10263 4.89534-8.10263 5.26671-8.05199 5.6212-7.93383 5.97569-7.81566 6.27954-7.64686 6.53275-7.42741 6.78595-7.19109 7.0054-6.90412 7.15732-6.54963 7.30925-6.19514 7.39365-5.79001 7.39365-5.30047L7.39365-1.77245C7.39365-1.4686 7.41053-1.14787 7.44429-0.827144 7.46117-0.489534 7.49494-0.219446 7.5287 0L6.44834 0C6.41458-0.185685 6.3977-0.405132 6.38082-0.624578 6.36394-0.844024 6.34706-1.06347 6.34706-1.28292L6.3133-1.28292C5.99257-0.759622 5.60432-0.371371 5.16543-0.151924 4.70966 0.0844024 4.16948 0.202566 3.52802 0.202566 3.17353 0.202566 2.83592 0.151924 2.51519 0.0675219 2.19446-0.033761 1.90749-0.185685 1.65429-0.388251 1.40108-0.573936 1.18163-0.827144 1.04659-1.11411 0.894666-1.40108 0.810263-1.72181 0.810263-2.11006 0.810263-2.75152 0.979068-3.25793 1.31668-3.6293 1.63741-3.98379 2.05942-4.25388 2.56583-4.43957 3.05537-4.62525 3.59554-4.72654 4.16948-4.77718 4.72654-4.82782 5.24983-4.8447 5.72248-4.8447L6.27954-4.8447Z" stroke="#1FF3FF" stroke-width="0.33761" stroke-linejoin="round" stroke-miterlimit="2" fill="#1FF3FF" transform="matrix(0.437178 0.899584 -0.899311 0.437311 441.718 34.2301)"/><path d="M1.33356-5.43552C1.33356-5.79001 1.33356-6.1445 1.31668-6.49899 1.2998-6.85348 1.28292-7.32613 1.26604-7.90007L2.36327-7.90007 2.36327-6.43146 2.39703-6.43146C2.48143-6.65091 2.58271-6.85348 2.73464-7.05604 2.88656-7.24173 3.05537-7.42741 3.27481-7.57934 3.47738-7.73126 3.71371-7.86631 4.00067-7.96759 4.27076-8.05199 4.57461-8.10263 4.9291-8.10263 5.24983-8.10263 5.51992-8.06887 5.75624-8.00135L5.5368-6.90412C5.38487-6.95476 5.18231-6.98852 4.89534-6.98852 4.47333-6.98852 4.10196-6.90412 3.79811-6.75219 3.49426-6.58339 3.24105-6.38082 3.03849-6.12762 2.83592-5.85753 2.684-5.58744 2.59959-5.30047 2.49831-5.0135 2.44767-4.72654 2.44767-4.45645L2.44767 0 1.33356 0 1.33356-5.43552Z" stroke="#1FF3FF" stroke-width="0.33761" stroke-linejoin="round" stroke-miterlimit="2" fill="#1FF3FF" transform="matrix(0.437178 0.899584 -0.899311 0.437311 445.549 42.1125)"/><path d="M2.83592-10.9386C2.83592-10.7022 2.75152-10.5165 2.58271-10.3646 2.41391-10.1958 2.22822-10.1283 2.02566-10.1283 1.82309-10.1283 1.63741-10.1958 1.4686-10.3646 1.2998-10.5165 1.21539-10.7022 1.21539-10.9386 1.21539-11.1749 1.2998-11.3774 1.4686-11.5294 1.63741-11.6813 1.82309-11.7488 2.02566-11.7488 2.22822-11.7488 2.41391-11.6813 2.58271-11.5294 2.75152-11.3774 2.83592-11.1749 2.83592-10.9386ZM2.58271 0 1.4686 0 1.4686-7.90007 2.58271-7.90007 2.58271 0Z" stroke="#1FF3FF" stroke-width="0.33761" stroke-linejoin="round" stroke-miterlimit="2" fill="#1FF3FF" transform="matrix(0.437178 0.899584 -0.899311 0.437311 447.998 47.1519)"/><path d="M5.7056-3.93315C5.41864-3.93315 5.08103-3.91627 4.65901-3.89939 4.237-3.86563 3.83187-3.79811 3.44362-3.69683 3.05537-3.57866 2.71776-3.40986 2.44767-3.19041 2.1607-2.97097 2.02566-2.65024 2.02566-2.26198 2.02566-2.00878 2.0763-1.78933 2.19446-1.60365 2.29575-1.41796 2.43079-1.26604 2.61647-1.14787 2.80216-1.02971 3.00473-0.945307 3.22417-0.894666 3.44362-0.827144 3.66306-0.810263 3.88251-0.810263 4.28764-0.810263 4.64213-0.877785 4.94598-1.01283 5.23295-1.14787 5.48616-1.33356 5.68872-1.56989 5.89129-1.78933 6.04321-2.05942 6.1445-2.38015 6.2289-2.684 6.27954-3.00473 6.27954-3.35922L6.27954-3.93315 5.7056-3.93315ZM6.27954-4.8447 6.27954-5.04726C6.27954-6.41458 5.60432-7.0898 4.25388-7.0898 3.32546-7.0898 2.53207-6.78595 1.83997-6.16138L1.16475-6.95476C1.90749-7.71438 3.02161-8.10263 4.50709-8.10263 4.89534-8.10263 5.26671-8.05199 5.6212-7.93383 5.97569-7.81566 6.27954-7.64686 6.53275-7.42741 6.78595-7.19109 7.0054-6.90412 7.15732-6.54963 7.30925-6.19514 7.39365-5.79001 7.39365-5.30047L7.39365-1.77245C7.39365-1.4686 7.41053-1.14787 7.44429-0.827144 7.46117-0.489534 7.49494-0.219446 7.5287 0L6.44834 0C6.41458-0.185685 6.3977-0.405132 6.38082-0.624578 6.36394-0.844024 6.34706-1.06347 6.34706-1.28292L6.3133-1.28292C5.99257-0.759622 5.60432-0.371371 5.16543-0.151924 4.70966 0.0844024 4.16948 0.202566 3.52802 0.202566 3.17353 0.202566 2.83592 0.151924 2.51519 0.0675219 2.19446-0.033761 1.90749-0.185685 1.65429-0.388251 1.40108-0.573936 1.18163-0.827144 1.04659-1.11411 0.894666-1.40108 0.810263-1.72181 0.810263-2.11006 0.810263-2.75152 0.979068-3.25793 1.31668-3.6293 1.63741-3.98379 2.05942-4.25388 2.56583-4.43957 3.05537-4.62525 3.59554-4.72654 4.16948-4.77718 4.72654-4.82782 5.24983-4.8447 5.72248-4.8447L6.27954-4.8447Z" stroke="#1FF3FF" stroke-width="0.33761" stroke-linejoin="round" stroke-miterlimit="2" fill="#1FF3FF" transform="matrix(0.437178 0.899584 -0.899311 0.437311 449.769 50.797)"/><path d="M2.27887-7.90007C2.29575-7.68062 2.31263-7.47805 2.32951-7.27549 2.32951-7.05604 2.32951-6.85348 2.32951-6.63403L2.36327-6.63403C2.48143-6.85348 2.65024-7.03916 2.83592-7.22485 3.02161-7.41053 3.24105-7.56246 3.47738-7.6975 3.71371-7.81566 3.96691-7.91695 4.237-8.00135 4.49021-8.06887 4.7603-8.10263 5.0135-8.10263 6.02633-8.10263 6.76907-7.83254 7.25861-7.30925 7.74814-6.76907 7.98447-6.00945 7.98447-5.0135L7.98447 0 6.87036 0 6.87036-4.37205C6.87036-5.24983 6.71843-5.92505 6.41458-6.3977 6.11073-6.85348 5.55368-7.0898 4.72654-7.0898 4.67589-7.0898 4.50709-7.07292 4.25388-7.02228 4.00067-6.97164 3.73059-6.85348 3.44362-6.65091 3.15665-6.44834 2.88656-6.1445 2.66712-5.73936 2.44767-5.33423 2.32951-4.77718 2.32951-4.05132L2.32951 0 1.21539 0 1.21539-6.16138C1.21539-6.38082 1.21539-6.65091 1.19851-6.97164 1.18163-7.29237 1.14787-7.6131 1.13099-7.90007L2.27887-7.90007Z" stroke="#1FF3FF" stroke-width="0.33761" stroke-linejoin="round" stroke-miterlimit="2" fill="#1FF3FF" transform="matrix(0.437178 0.899584 -0.899311 0.437311 453.599 58.6777)"/><path d="M6.97164-6.04321C6.78595-6.33018 6.51587-6.58339 6.17826-6.78595 5.82377-6.98852 5.43552-7.0898 4.99662-7.0898 4.54085-7.10668 4.11884-7.02228 3.76435-6.87036 3.39298-6.71843 3.07225-6.49899 2.81904-6.21202 2.56583-5.92505 2.36327-5.60432 2.22822-5.21607 2.09318-4.82782 2.02566-4.40581 2.02566-3.95003 2.02566-3.49426 2.09318-3.08913 2.22822-2.70088 2.36327-2.29575 2.56583-1.97502 2.81904-1.68805 3.07225-1.40108 3.39298-1.18163 3.76435-1.02971 4.11884-0.877785 4.54085-0.793383 4.99662-0.810263 5.43552-0.810263 5.82377-0.911546 6.17826-1.11411 6.51587-1.31668 6.78595-1.56989 6.97164-1.85685L7.88319-1.16475C7.49494-0.70898 7.03916-0.371371 6.54963-0.151924 6.06009 0.0844024 5.5368 0.185685 4.99662 0.202566 4.35516 0.219446 3.78123 0.118163 3.25793-0.101283 2.73464-0.303849 2.29575-0.590817 1.94126-0.962188 1.56989-1.33356 1.28292-1.77245 1.09723-2.29575 0.911546-2.80216 0.810263-3.35922 0.810263-3.95003 0.810263-4.54085 0.911546-5.09791 1.09723-5.6212 1.28292-6.12762 1.56989-6.56651 1.94126-6.93788 2.29575-7.30925 2.73464-7.59622 3.25793-7.81566 3.78123-8.01823 4.35516-8.11951 4.99662-8.10263 5.5368-8.08575 6.06009-7.96759 6.54963-7.76502 7.03916-7.54558 7.49494-7.19109 7.88319-6.73531L6.97164-6.04321Z" stroke="#1FF3FF" stroke-width="0.33761" stroke-linejoin="round" stroke-miterlimit="2" fill="#1FF3FF" transform="matrix(0.437178 0.899584 -0.899311 0.437311 457.703 67.1225)"/><path d="M7.35989-4.55773C7.35989-5.31735 7.14044-5.92505 6.68467-6.3977 6.2289-6.85348 5.60432-7.0898 4.79406-7.0898 4.43957-7.0898 4.08508-7.02228 3.74747-6.88724 3.40986-6.73531 3.12289-6.54963 2.86968-6.3133 2.61647-6.07697 2.39703-5.80689 2.26198-5.50304 2.11006-5.19919 2.02566-4.87846 2.02566-4.55773L7.35989-4.55773ZM1.9919-3.64618C2.02566-3.25793 2.12694-2.88656 2.27887-2.53207 2.43079-2.17758 2.65024-1.89061 2.90344-1.63741 3.15665-1.3842 3.4605-1.18163 3.79811-1.02971 4.13572-0.877785 4.50709-0.810263 4.89534-0.810263 5.48616-0.810263 6.00945-0.945307 6.44834-1.23228 6.87036-1.50236 7.20797-1.82309 7.42741-2.17758L8.28832-1.4686C7.81566-0.877785 7.29237-0.438893 6.73531-0.185685 6.16138 0.0675219 5.55368 0.202566 4.89534 0.202566 4.30452 0.202566 3.76435 0.101283 3.27481-0.118163 2.7684-0.320729 2.32951-0.607697 1.97502-0.979068 1.62053-1.35044 1.33356-1.78933 1.13099-2.29575 0.911546-2.80216 0.810263-3.35922 0.810263-3.95003 0.810263-4.54085 0.911546-5.09791 1.11411-5.60432 1.31668-6.11073 1.60365-6.54963 1.95814-6.921 2.31263-7.29237 2.73464-7.57934 3.22417-7.79878 3.71371-8.00135 4.237-8.10263 4.79406-8.10263 5.38487-8.10263 5.92505-8.00135 6.3977-7.7819 6.87036-7.56246 7.27549-7.29237 7.59622-6.93788 7.90007-6.58339 8.15327-6.16138 8.32208-5.68872 8.49088-5.19919 8.57529-4.69277 8.57529-4.1526L8.57529-3.64618 1.9919-3.64618Z" stroke="#1FF3FF" stroke-width="0.33761" stroke-linejoin="round" stroke-miterlimit="2" fill="#1FF3FF" transform="matrix(0.437178 0.899584 -0.899311 0.437311 461.26 74.4419)"/><path d="M313.914 294.566C317.584 295.662 321.538 295.717 325.126 294.162 327.703 293.045 329.906 291.323 332.216 289.761" stroke="#1FF3FF" stroke-width="5.11777" stroke-linecap="round" stroke-linejoin="round" stroke-miterlimit="2.12209" fill="none" fill-rule="evenodd" transform="matrix(-0.903829 0.427893 -0.427763 -0.904104 850.78 184.323)"/><path d="M332.216 289.761 324.532 287.285" stroke="#1FF3FF" stroke-width="5.11777" stroke-linecap="round" stroke-linejoin="round" stroke-miterlimit="2.12209" fill="none" fill-rule="evenodd" transform="matrix(-0.903829 0.427893 -0.427763 -0.904104 850.78 184.323)"/><path d="M332.216 289.761 331.472 297.804" stroke="#1FF3FF" stroke-width="5.11777" stroke-linecap="round" stroke-linejoin="round" stroke-miterlimit="2.12209" fill="none" fill-rule="evenodd" transform="matrix(-0.903829 0.427893 -0.427763 -0.904104 850.78 184.323)"/></g></svg>