<?xml version="1.0" encoding="utf-8" standalone="no"?>
<!DOCTYPE svg PUBLIC "-//W3C//DTD SVG 1.1//EN"
  "http://www.w3.org/Graphics/SVG/1.1/DTD/svg11.dtd">
<svg xmlns:xlink="http://www.w3.org/1999/xlink" width="504pt" height="288pt" viewBox="0 0 504 288" xmlns="http://www.w3.org/2000/svg" version="1.1">
 <metadata>
  <rdf:RDF xmlns:dc="http://purl.org/dc/elements/1.1/" xmlns:cc="http://creativecommons.org/ns#" xmlns:rdf="http://www.w3.org/1999/02/22-rdf-syntax-ns#">
   <cc:Work>
    <dc:type rdf:resource="http://purl.org/dc/dcmitype/StillImage"/>
    <dc:date>2024-02-10T18:05:10.846361</dc:date>
    <dc:format>image/svg+xml</dc:format>
    <dc:creator>
     <cc:Agent>
      <dc:title>Matplotlib v3.5.1, https://matplotlib.org/</dc:title>
     </cc:Agent>
    </dc:creator>
   </cc:Work>
  </rdf:RDF>
 </metadata>
 <defs>
  <style type="text/css">*{stroke-linejoin: round; stroke-linecap: butt}</style>
 </defs>
 <g id="figure_1">
  <g id="patch_1">
   <path d="M 0 288 
L 504 288 
L 504 0 
L 0 0 
z
" style="fill: #ffffff"/>
  </g>
  <g id="axes_1">
   <g id="patch_2">
    <path d="M 54.02 246.04 
L 249.75 246.04 
L 249.75 65.616 
L 54.02 65.616 
z
" style="fill: #ffffff"/>
   </g>
   <g id="patch_3">
    <path d="M 62.916818 246.04 
L 65.833808 246.04 
L 65.833808 74.207619 
L 62.916818 74.207619 
z
" clip-path="url(#pe3b23f86e0)" style="fill: #1f77b4"/>
   </g>
   <g id="patch_4">
    <path d="M 66.563055 246.04 
L 69.480045 246.04 
L 69.480045 91.390857 
L 66.563055 91.390857 
z
" clip-path="url(#pe3b23f86e0)" style="fill: #1f77b4"/>
   </g>
   <g id="patch_5">
    <path d="M 70.209292 246.04 
L 73.126282 246.04 
L 73.126282 106.855771 
L 70.209292 106.855771 
z
" clip-path="url(#pe3b23f86e0)" style="fill: #1f77b4"/>
   </g>
   <g id="patch_6">
    <path d="M 73.855529 246.04 
L 76.772519 246.04 
L 76.772519 120.774194 
L 73.855529 120.774194 
z
" clip-path="url(#pe3b23f86e0)" style="fill: #1f77b4"/>
   </g>
   <g id="patch_7">
    <path d="M 77.501766 246.04 
L 80.418756 246.04 
L 80.418756 133.300775 
L 77.501766 133.300775 
z
" clip-path="url(#pe3b23f86e0)" style="fill: #1f77b4"/>
   </g>
   <g id="patch_8">
    <path d="M 81.148003 246.04 
L 84.064993 246.04 
L 84.064993 144.574697 
L 81.148003 144.574697 
z
" clip-path="url(#pe3b23f86e0)" style="fill: #1f77b4"/>
   </g>
   <g id="patch_9">
    <path d="M 84.79424 246.04 
L 87.71123 246.04 
L 87.71123 154.721228 
L 84.79424 154.721228 
z
" clip-path="url(#pe3b23f86e0)" style="fill: #1f77b4"/>
   </g>
   <g id="patch_10">
    <path d="M 88.440477 246.04 
L 91.357466 246.04 
L 91.357466 163.853105 
L 88.440477 163.853105 
z
" clip-path="url(#pe3b23f86e0)" style="fill: #1f77b4"/>
   </g>
   <g id="patch_11">
    <path d="M 92.086714 246.04 
L 95.003703 246.04 
L 95.003703 172.071794 
L 92.086714 172.071794 
z
" clip-path="url(#pe3b23f86e0)" style="fill: #1f77b4"/>
   </g>
   <g id="patch_12">
    <path d="M 95.732951 246.04 
L 98.64994 246.04 
L 98.64994 179.468615 
L 95.732951 179.468615 
z
" clip-path="url(#pe3b23f86e0)" style="fill: #1f77b4"/>
   </g>
   <g id="patch_13">
    <path d="M 99.379188 246.04 
L 102.296177 246.04 
L 102.296177 186.125753 
L 99.379188 186.125753 
z
" clip-path="url(#pe3b23f86e0)" style="fill: #1f77b4"/>
   </g>
   <g id="patch_14">
    <path d="M 103.025425 246.04 
L 105.942414 246.04 
L 105.942414 192.117178 
L 103.025425 192.117178 
z
" clip-path="url(#pe3b23f86e0)" style="fill: #1f77b4"/>
   </g>
   <g id="patch_15">
    <path d="M 106.671662 246.04 
L 109.588651 246.04 
L 109.588651 197.50946 
L 106.671662 197.50946 
z
" clip-path="url(#pe3b23f86e0)" style="fill: #1f77b4"/>
   </g>
   <g id="patch_16">
    <path d="M 110.317899 246.04 
L 113.234888 246.04 
L 113.234888 202.362514 
L 110.317899 202.362514 
z
" clip-path="url(#pe3b23f86e0)" style="fill: #1f77b4"/>
   </g>
   <g id="patch_17">
    <path d="M 113.964136 246.04 
L 116.881125 246.04 
L 116.881125 206.730263 
L 113.964136 206.730263 
z
" clip-path="url(#pe3b23f86e0)" style="fill: #1f77b4"/>
   </g>
   <g id="patch_18">
    <path d="M 117.610373 246.04 
L 120.527362 246.04 
L 120.527362 210.661237 
L 117.610373 210.661237 
z
" clip-path="url(#pe3b23f86e0)" style="fill: #1f77b4"/>
   </g>
   <g id="patch_19">
    <path d="M 121.25661 246.04 
L 124.173599 246.04 
L 124.173599 214.199113 
L 121.25661 214.199113 
z
" clip-path="url(#pe3b23f86e0)" style="fill: #1f77b4"/>
   </g>
   <g id="patch_20">
    <path d="M 124.902846 246.04 
L 127.819836 246.04 
L 127.819836 217.383202 
L 124.902846 217.383202 
z
" clip-path="url(#pe3b23f86e0)" style="fill: #1f77b4"/>
   </g>
   <g id="patch_21">
    <path d="M 128.549083 246.04 
L 131.466073 246.04 
L 131.466073 220.248881 
L 128.549083 220.248881 
z
" clip-path="url(#pe3b23f86e0)" style="fill: #1f77b4"/>
   </g>
   <g id="patch_22">
    <path d="M 132.19532 246.04 
L 135.11231 246.04 
L 135.11231 222.827993 
L 132.19532 222.827993 
z
" clip-path="url(#pe3b23f86e0)" style="fill: #1f77b4"/>
   </g>
   <g id="patch_23">
    <path d="M 135.841557 246.04 
L 138.758547 246.04 
L 138.758547 225.149194 
L 135.841557 225.149194 
z
" clip-path="url(#pe3b23f86e0)" style="fill: #1f77b4"/>
   </g>
   <g id="patch_24">
    <path d="M 139.487794 246.04 
L 142.404784 246.04 
L 142.404784 227.238275 
L 139.487794 227.238275 
z
" clip-path="url(#pe3b23f86e0)" style="fill: #1f77b4"/>
   </g>
   <g id="patch_25">
    <path d="M 143.134031 246.04 
L 146.051021 246.04 
L 146.051021 229.118447 
L 143.134031 229.118447 
z
" clip-path="url(#pe3b23f86e0)" style="fill: #1f77b4"/>
   </g>
   <g id="patch_26">
    <path d="M 146.780268 246.04 
L 149.697258 246.04 
L 149.697258 230.810602 
L 146.780268 230.810602 
z
" clip-path="url(#pe3b23f86e0)" style="fill: #1f77b4"/>
   </g>
   <g id="patch_27">
    <path d="M 150.426505 246.04 
L 153.343495 246.04 
L 153.343495 232.333542 
L 150.426505 232.333542 
z
" clip-path="url(#pe3b23f86e0)" style="fill: #1f77b4"/>
   </g>
   <g id="patch_28">
    <path d="M 154.072742 246.04 
L 156.989732 246.04 
L 156.989732 233.704188 
L 154.072742 233.704188 
z
" clip-path="url(#pe3b23f86e0)" style="fill: #1f77b4"/>
   </g>
   <g id="patch_29">
    <path d="M 157.718979 246.04 
L 160.635969 246.04 
L 160.635969 234.937769 
L 157.718979 234.937769 
z
" clip-path="url(#pe3b23f86e0)" style="fill: #1f77b4"/>
   </g>
   <g id="patch_30">
    <path d="M 161.365216 246.04 
L 164.282206 246.04 
L 164.282206 236.047992 
L 161.365216 236.047992 
z
" clip-path="url(#pe3b23f86e0)" style="fill: #1f77b4"/>
   </g>
   <g id="patch_31">
    <path d="M 165.011453 246.04 
L 167.928443 246.04 
L 167.928443 237.047193 
L 165.011453 237.047193 
z
" clip-path="url(#pe3b23f86e0)" style="fill: #1f77b4"/>
   </g>
   <g id="patch_32">
    <path d="M 168.65769 246.04 
L 171.57468 246.04 
L 171.57468 237.946474 
L 168.65769 237.946474 
z
" clip-path="url(#pe3b23f86e0)" style="fill: #1f77b4"/>
   </g>
   <g id="patch_33">
    <path d="M 172.303927 246.04 
L 175.220917 246.04 
L 175.220917 238.755826 
L 172.303927 238.755826 
z
" clip-path="url(#pe3b23f86e0)" style="fill: #1f77b4"/>
   </g>
   <g id="patch_34">
    <path d="M 175.950164 246.04 
L 178.867154 246.04 
L 178.867154 239.484244 
L 175.950164 239.484244 
z
" clip-path="url(#pe3b23f86e0)" style="fill: #1f77b4"/>
   </g>
   <g id="patch_35">
    <path d="M 179.596401 246.04 
L 182.51339 246.04 
L 182.51339 240.139819 
L 179.596401 240.139819 
z
" clip-path="url(#pe3b23f86e0)" style="fill: #1f77b4"/>
   </g>
   <g id="patch_36">
    <path d="M 183.242638 246.04 
L 186.159627 246.04 
L 186.159627 240.729837 
L 183.242638 240.729837 
z
" clip-path="url(#pe3b23f86e0)" style="fill: #1f77b4"/>
   </g>
   <g id="patch_37">
    <path d="M 186.888875 246.04 
L 189.805864 246.04 
L 189.805864 241.260854 
L 186.888875 241.260854 
z
" clip-path="url(#pe3b23f86e0)" style="fill: #1f77b4"/>
   </g>
   <g id="patch_38">
    <path d="M 190.535112 246.04 
L 193.452101 246.04 
L 193.452101 241.738768 
L 190.535112 241.738768 
z
" clip-path="url(#pe3b23f86e0)" style="fill: #1f77b4"/>
   </g>
   <g id="patch_39">
    <path d="M 194.181349 246.04 
L 197.098338 246.04 
L 197.098338 242.168891 
L 194.181349 242.168891 
z
" clip-path="url(#pe3b23f86e0)" style="fill: #1f77b4"/>
   </g>
   <g id="patch_40">
    <path d="M 197.827586 246.04 
L 200.744575 246.04 
L 200.744575 242.556002 
L 197.827586 242.556002 
z
" clip-path="url(#pe3b23f86e0)" style="fill: #1f77b4"/>
   </g>
   <g id="patch_41">
    <path d="M 201.473823 246.04 
L 204.390812 246.04 
L 204.390812 242.904402 
L 201.473823 242.904402 
z
" clip-path="url(#pe3b23f86e0)" style="fill: #1f77b4"/>
   </g>
   <g id="patch_42">
    <path d="M 205.12006 246.04 
L 208.037049 246.04 
L 208.037049 243.217962 
L 205.12006 243.217962 
z
" clip-path="url(#pe3b23f86e0)" style="fill: #1f77b4"/>
   </g>
   <g id="patch_43">
    <path d="M 208.766297 246.04 
L 211.683286 246.04 
L 211.683286 243.500166 
L 208.766297 243.500166 
z
" clip-path="url(#pe3b23f86e0)" style="fill: #1f77b4"/>
   </g>
   <g id="patch_44">
    <path d="M 212.412534 246.04 
L 215.329523 246.04 
L 215.329523 243.754149 
L 212.412534 243.754149 
z
" clip-path="url(#pe3b23f86e0)" style="fill: #1f77b4"/>
   </g>
   <g id="patch_45">
    <path d="M 216.05877 246.04 
L 218.97576 246.04 
L 218.97576 243.982734 
L 216.05877 243.982734 
z
" clip-path="url(#pe3b23f86e0)" style="fill: #1f77b4"/>
   </g>
   <g id="patch_46">
    <path d="M 219.705007 246.04 
L 222.621997 246.04 
L 222.621997 244.188461 
L 219.705007 244.188461 
z
" clip-path="url(#pe3b23f86e0)" style="fill: #1f77b4"/>
   </g>
   <g id="patch_47">
    <path d="M 223.351244 246.04 
L 226.268234 246.04 
L 226.268234 244.373615 
L 223.351244 244.373615 
z
" clip-path="url(#pe3b23f86e0)" style="fill: #1f77b4"/>
   </g>
   <g id="patch_48">
    <path d="M 226.997481 246.04 
L 229.914471 246.04 
L 229.914471 244.540253 
L 226.997481 244.540253 
z
" clip-path="url(#pe3b23f86e0)" style="fill: #1f77b4"/>
   </g>
   <g id="patch_49">
    <path d="M 230.643718 246.04 
L 233.560708 246.04 
L 233.560708 244.690228 
L 230.643718 244.690228 
z
" clip-path="url(#pe3b23f86e0)" style="fill: #1f77b4"/>
   </g>
   <g id="patch_50">
    <path d="M 234.289955 246.04 
L 237.206945 246.04 
L 237.206945 244.825205 
L 234.289955 244.825205 
z
" clip-path="url(#pe3b23f86e0)" style="fill: #1f77b4"/>
   </g>
   <g id="patch_51">
    <path d="M 237.936192 246.04 
L 240.853182 246.04 
L 240.853182 244.946685 
L 237.936192 244.946685 
z
" clip-path="url(#pe3b23f86e0)" style="fill: #1f77b4"/>
   </g>
   <g id="matplotlib.axis_1">
    <g id="xtick_1">
     <g id="line2d_1">
      <defs>
       <path id="m93778c251a" d="M 0 0 
L 0 3.5 
" style="stroke: #000000; stroke-width: 0.8"/>
      </defs>
      <g>
       <use xlink:href="#m93778c251a" x="60.729076" y="246.04" style="stroke: #000000; stroke-width: 0.8"/>
      </g>
     </g>
     <g id="text_1">
      <!-- 0 -->
      <g transform="translate(57.547826 260.638438)scale(0.1 -0.1)">
       <defs>
        <path id="DejaVuSans-30" d="M 2034 4250 
Q 1547 4250 1301 3770 
Q 1056 3291 1056 2328 
Q 1056 1369 1301 889 
Q 1547 409 2034 409 
Q 2525 409 2770 889 
Q 3016 1369 3016 2328 
Q 3016 3291 2770 3770 
Q 2525 4250 2034 4250 
z
M 2034 4750 
Q 2819 4750 3233 4129 
Q 3647 3509 3647 2328 
Q 3647 1150 3233 529 
Q 2819 -91 2034 -91 
Q 1250 -91 836 529 
Q 422 1150 422 2328 
Q 422 3509 836 4129 
Q 1250 4750 2034 4750 
z
" transform="scale(0.015625)"/>
       </defs>
       <use xlink:href="#DejaVuSans-30"/>
      </g>
     </g>
    </g>
    <g id="xtick_2">
     <g id="line2d_2">
      <g>
       <use xlink:href="#m93778c251a" x="97.191446" y="246.04" style="stroke: #000000; stroke-width: 0.8"/>
      </g>
     </g>
     <g id="text_2">
      <!-- 10 -->
      <g transform="translate(90.828946 260.638438)scale(0.1 -0.1)">
       <defs>
        <path id="DejaVuSans-31" d="M 794 531 
L 1825 531 
L 1825 4091 
L 703 3866 
L 703 4441 
L 1819 4666 
L 2450 4666 
L 2450 531 
L 3481 531 
L 3481 0 
L 794 0 
L 794 531 
z
" transform="scale(0.015625)"/>
       </defs>
       <use xlink:href="#DejaVuSans-31"/>
       <use xlink:href="#DejaVuSans-30" x="63.623047"/>
      </g>
     </g>
    </g>
    <g id="xtick_3">
     <g id="line2d_3">
      <g>
       <use xlink:href="#m93778c251a" x="133.653815" y="246.04" style="stroke: #000000; stroke-width: 0.8"/>
      </g>
     </g>
     <g id="text_3">
      <!-- 20 -->
      <g transform="translate(127.291315 260.638438)scale(0.1 -0.1)">
       <defs>
        <path id="DejaVuSans-32" d="M 1228 531 
L 3431 531 
L 3431 0 
L 469 0 
L 469 531 
Q 828 903 1448 1529 
Q 2069 2156 2228 2338 
Q 2531 2678 2651 2914 
Q 2772 3150 2772 3378 
Q 2772 3750 2511 3984 
Q 2250 4219 1831 4219 
Q 1534 4219 1204 4116 
Q 875 4013 500 3803 
L 500 4441 
Q 881 4594 1212 4672 
Q 1544 4750 1819 4750 
Q 2544 4750 2975 4387 
Q 3406 4025 3406 3419 
Q 3406 3131 3298 2873 
Q 3191 2616 2906 2266 
Q 2828 2175 2409 1742 
Q 1991 1309 1228 531 
z
" transform="scale(0.015625)"/>
       </defs>
       <use xlink:href="#DejaVuSans-32"/>
       <use xlink:href="#DejaVuSans-30" x="63.623047"/>
      </g>
     </g>
    </g>
    <g id="xtick_4">
     <g id="line2d_4">
      <g>
       <use xlink:href="#m93778c251a" x="170.116185" y="246.04" style="stroke: #000000; stroke-width: 0.8"/>
      </g>
     </g>
     <g id="text_4">
      <!-- 30 -->
      <g transform="translate(163.753685 260.638438)scale(0.1 -0.1)">
       <defs>
        <path id="DejaVuSans-33" d="M 2597 2516 
Q 3050 2419 3304 2112 
Q 3559 1806 3559 1356 
Q 3559 666 3084 287 
Q 2609 -91 1734 -91 
Q 1441 -91 1130 -33 
Q 819 25 488 141 
L 488 750 
Q 750 597 1062 519 
Q 1375 441 1716 441 
Q 2309 441 2620 675 
Q 2931 909 2931 1356 
Q 2931 1769 2642 2001 
Q 2353 2234 1838 2234 
L 1294 2234 
L 1294 2753 
L 1863 2753 
Q 2328 2753 2575 2939 
Q 2822 3125 2822 3475 
Q 2822 3834 2567 4026 
Q 2313 4219 1838 4219 
Q 1578 4219 1281 4162 
Q 984 4106 628 3988 
L 628 4550 
Q 988 4650 1302 4700 
Q 1616 4750 1894 4750 
Q 2613 4750 3031 4423 
Q 3450 4097 3450 3541 
Q 3450 3153 3228 2886 
Q 3006 2619 2597 2516 
z
" transform="scale(0.015625)"/>
       </defs>
       <use xlink:href="#DejaVuSans-33"/>
       <use xlink:href="#DejaVuSans-30" x="63.623047"/>
      </g>
     </g>
    </g>
    <g id="xtick_5">
     <g id="line2d_5">
      <g>
       <use xlink:href="#m93778c251a" x="206.578554" y="246.04" style="stroke: #000000; stroke-width: 0.8"/>
      </g>
     </g>
     <g id="text_5">
      <!-- 40 -->
      <g transform="translate(200.216054 260.638438)scale(0.1 -0.1)">
       <defs>
        <path id="DejaVuSans-34" d="M 2419 4116 
L 825 1625 
L 2419 1625 
L 2419 4116 
z
M 2253 4666 
L 3047 4666 
L 3047 1625 
L 3713 1625 
L 3713 1100 
L 3047 1100 
L 3047 0 
L 2419 0 
L 2419 1100 
L 313 1100 
L 313 1709 
L 2253 4666 
z
" transform="scale(0.015625)"/>
       </defs>
       <use xlink:href="#DejaVuSans-34"/>
       <use xlink:href="#DejaVuSans-30" x="63.623047"/>
      </g>
     </g>
    </g>
    <g id="xtick_6">
     <g id="line2d_6">
      <g>
       <use xlink:href="#m93778c251a" x="243.040924" y="246.04" style="stroke: #000000; stroke-width: 0.8"/>
      </g>
     </g>
     <g id="text_6">
      <!-- 50 -->
      <g transform="translate(236.678424 260.638438)scale(0.1 -0.1)">
       <defs>
        <path id="DejaVuSans-35" d="M 691 4666 
L 3169 4666 
L 3169 4134 
L 1269 4134 
L 1269 2991 
Q 1406 3038 1543 3061 
Q 1681 3084 1819 3084 
Q 2600 3084 3056 2656 
Q 3513 2228 3513 1497 
Q 3513 744 3044 326 
Q 2575 -91 1722 -91 
Q 1428 -91 1123 -41 
Q 819 9 494 109 
L 494 744 
Q 775 591 1075 516 
Q 1375 441 1709 441 
Q 2250 441 2565 725 
Q 2881 1009 2881 1497 
Q 2881 1984 2565 2268 
Q 2250 2553 1709 2553 
Q 1456 2553 1204 2497 
Q 953 2441 691 2322 
L 691 4666 
z
" transform="scale(0.015625)"/>
       </defs>
       <use xlink:href="#DejaVuSans-35"/>
       <use xlink:href="#DejaVuSans-30" x="63.623047"/>
      </g>
     </g>
    </g>
    <g id="text_7">
     <!-- Number of Trials k -->
     <g transform="translate(106.498281 274.316562)scale(0.1 -0.1)">
      <defs>
       <path id="DejaVuSans-4e" d="M 628 4666 
L 1478 4666 
L 3547 763 
L 3547 4666 
L 4159 4666 
L 4159 0 
L 3309 0 
L 1241 3903 
L 1241 0 
L 628 0 
L 628 4666 
z
" transform="scale(0.015625)"/>
       <path id="DejaVuSans-75" d="M 544 1381 
L 544 3500 
L 1119 3500 
L 1119 1403 
Q 1119 906 1312 657 
Q 1506 409 1894 409 
Q 2359 409 2629 706 
Q 2900 1003 2900 1516 
L 2900 3500 
L 3475 3500 
L 3475 0 
L 2900 0 
L 2900 538 
Q 2691 219 2414 64 
Q 2138 -91 1772 -91 
Q 1169 -91 856 284 
Q 544 659 544 1381 
z
M 1991 3584 
L 1991 3584 
z
" transform="scale(0.015625)"/>
       <path id="DejaVuSans-6d" d="M 3328 2828 
Q 3544 3216 3844 3400 
Q 4144 3584 4550 3584 
Q 5097 3584 5394 3201 
Q 5691 2819 5691 2113 
L 5691 0 
L 5113 0 
L 5113 2094 
Q 5113 2597 4934 2840 
Q 4756 3084 4391 3084 
Q 3944 3084 3684 2787 
Q 3425 2491 3425 1978 
L 3425 0 
L 2847 0 
L 2847 2094 
Q 2847 2600 2669 2842 
Q 2491 3084 2119 3084 
Q 1678 3084 1418 2786 
Q 1159 2488 1159 1978 
L 1159 0 
L 581 0 
L 581 3500 
L 1159 3500 
L 1159 2956 
Q 1356 3278 1631 3431 
Q 1906 3584 2284 3584 
Q 2666 3584 2933 3390 
Q 3200 3197 3328 2828 
z
" transform="scale(0.015625)"/>
       <path id="DejaVuSans-62" d="M 3116 1747 
Q 3116 2381 2855 2742 
Q 2594 3103 2138 3103 
Q 1681 3103 1420 2742 
Q 1159 2381 1159 1747 
Q 1159 1113 1420 752 
Q 1681 391 2138 391 
Q 2594 391 2855 752 
Q 3116 1113 3116 1747 
z
M 1159 2969 
Q 1341 3281 1617 3432 
Q 1894 3584 2278 3584 
Q 2916 3584 3314 3078 
Q 3713 2572 3713 1747 
Q 3713 922 3314 415 
Q 2916 -91 2278 -91 
Q 1894 -91 1617 61 
Q 1341 213 1159 525 
L 1159 0 
L 581 0 
L 581 4863 
L 1159 4863 
L 1159 2969 
z
" transform="scale(0.015625)"/>
       <path id="DejaVuSans-65" d="M 3597 1894 
L 3597 1613 
L 953 1613 
Q 991 1019 1311 708 
Q 1631 397 2203 397 
Q 2534 397 2845 478 
Q 3156 559 3463 722 
L 3463 178 
Q 3153 47 2828 -22 
Q 2503 -91 2169 -91 
Q 1331 -91 842 396 
Q 353 884 353 1716 
Q 353 2575 817 3079 
Q 1281 3584 2069 3584 
Q 2775 3584 3186 3129 
Q 3597 2675 3597 1894 
z
M 3022 2063 
Q 3016 2534 2758 2815 
Q 2500 3097 2075 3097 
Q 1594 3097 1305 2825 
Q 1016 2553 972 2059 
L 3022 2063 
z
" transform="scale(0.015625)"/>
       <path id="DejaVuSans-72" d="M 2631 2963 
Q 2534 3019 2420 3045 
Q 2306 3072 2169 3072 
Q 1681 3072 1420 2755 
Q 1159 2438 1159 1844 
L 1159 0 
L 581 0 
L 581 3500 
L 1159 3500 
L 1159 2956 
Q 1341 3275 1631 3429 
Q 1922 3584 2338 3584 
Q 2397 3584 2469 3576 
Q 2541 3569 2628 3553 
L 2631 2963 
z
" transform="scale(0.015625)"/>
       <path id="DejaVuSans-20" transform="scale(0.015625)"/>
       <path id="DejaVuSans-6f" d="M 1959 3097 
Q 1497 3097 1228 2736 
Q 959 2375 959 1747 
Q 959 1119 1226 758 
Q 1494 397 1959 397 
Q 2419 397 2687 759 
Q 2956 1122 2956 1747 
Q 2956 2369 2687 2733 
Q 2419 3097 1959 3097 
z
M 1959 3584 
Q 2709 3584 3137 3096 
Q 3566 2609 3566 1747 
Q 3566 888 3137 398 
Q 2709 -91 1959 -91 
Q 1206 -91 779 398 
Q 353 888 353 1747 
Q 353 2609 779 3096 
Q 1206 3584 1959 3584 
z
" transform="scale(0.015625)"/>
       <path id="DejaVuSans-66" d="M 2375 4863 
L 2375 4384 
L 1825 4384 
Q 1516 4384 1395 4259 
Q 1275 4134 1275 3809 
L 1275 3500 
L 2222 3500 
L 2222 3053 
L 1275 3053 
L 1275 0 
L 697 0 
L 697 3053 
L 147 3053 
L 147 3500 
L 697 3500 
L 697 3744 
Q 697 4328 969 4595 
Q 1241 4863 1831 4863 
L 2375 4863 
z
" transform="scale(0.015625)"/>
       <path id="DejaVuSans-54" d="M -19 4666 
L 3928 4666 
L 3928 4134 
L 2272 4134 
L 2272 0 
L 1638 0 
L 1638 4134 
L -19 4134 
L -19 4666 
z
" transform="scale(0.015625)"/>
       <path id="DejaVuSans-69" d="M 603 3500 
L 1178 3500 
L 1178 0 
L 603 0 
L 603 3500 
z
M 603 4863 
L 1178 4863 
L 1178 4134 
L 603 4134 
L 603 4863 
z
" transform="scale(0.015625)"/>
       <path id="DejaVuSans-61" d="M 2194 1759 
Q 1497 1759 1228 1600 
Q 959 1441 959 1056 
Q 959 750 1161 570 
Q 1363 391 1709 391 
Q 2188 391 2477 730 
Q 2766 1069 2766 1631 
L 2766 1759 
L 2194 1759 
z
M 3341 1997 
L 3341 0 
L 2766 0 
L 2766 531 
Q 2569 213 2275 61 
Q 1981 -91 1556 -91 
Q 1019 -91 701 211 
Q 384 513 384 1019 
Q 384 1609 779 1909 
Q 1175 2209 1959 2209 
L 2766 2209 
L 2766 2266 
Q 2766 2663 2505 2880 
Q 2244 3097 1772 3097 
Q 1472 3097 1187 3025 
Q 903 2953 641 2809 
L 641 3341 
Q 956 3463 1253 3523 
Q 1550 3584 1831 3584 
Q 2591 3584 2966 3190 
Q 3341 2797 3341 1997 
z
" transform="scale(0.015625)"/>
       <path id="DejaVuSans-6c" d="M 603 4863 
L 1178 4863 
L 1178 0 
L 603 0 
L 603 4863 
z
" transform="scale(0.015625)"/>
       <path id="DejaVuSans-73" d="M 2834 3397 
L 2834 2853 
Q 2591 2978 2328 3040 
Q 2066 3103 1784 3103 
Q 1356 3103 1142 2972 
Q 928 2841 928 2578 
Q 928 2378 1081 2264 
Q 1234 2150 1697 2047 
L 1894 2003 
Q 2506 1872 2764 1633 
Q 3022 1394 3022 966 
Q 3022 478 2636 193 
Q 2250 -91 1575 -91 
Q 1294 -91 989 -36 
Q 684 19 347 128 
L 347 722 
Q 666 556 975 473 
Q 1284 391 1588 391 
Q 1994 391 2212 530 
Q 2431 669 2431 922 
Q 2431 1156 2273 1281 
Q 2116 1406 1581 1522 
L 1381 1569 
Q 847 1681 609 1914 
Q 372 2147 372 2553 
Q 372 3047 722 3315 
Q 1072 3584 1716 3584 
Q 2034 3584 2315 3537 
Q 2597 3491 2834 3397 
z
" transform="scale(0.015625)"/>
       <path id="DejaVuSans-6b" d="M 581 4863 
L 1159 4863 
L 1159 1991 
L 2875 3500 
L 3609 3500 
L 1753 1863 
L 3688 0 
L 2938 0 
L 1159 1709 
L 1159 0 
L 581 0 
L 581 4863 
z
" transform="scale(0.015625)"/>
      </defs>
      <use xlink:href="#DejaVuSans-4e"/>
      <use xlink:href="#DejaVuSans-75" x="74.804688"/>
      <use xlink:href="#DejaVuSans-6d" x="138.183594"/>
      <use xlink:href="#DejaVuSans-62" x="235.595703"/>
      <use xlink:href="#DejaVuSans-65" x="299.072266"/>
      <use xlink:href="#DejaVuSans-72" x="360.595703"/>
      <use xlink:href="#DejaVuSans-20" x="401.708984"/>
      <use xlink:href="#DejaVuSans-6f" x="433.496094"/>
      <use xlink:href="#DejaVuSans-66" x="494.677734"/>
      <use xlink:href="#DejaVuSans-20" x="529.882812"/>
      <use xlink:href="#DejaVuSans-54" x="561.669922"/>
      <use xlink:href="#DejaVuSans-72" x="608.003906"/>
      <use xlink:href="#DejaVuSans-69" x="649.117188"/>
      <use xlink:href="#DejaVuSans-61" x="676.900391"/>
      <use xlink:href="#DejaVuSans-6c" x="738.179688"/>
      <use xlink:href="#DejaVuSans-73" x="765.962891"/>
      <use xlink:href="#DejaVuSans-20" x="818.0625"/>
      <use xlink:href="#DejaVuSans-6b" x="849.849609"/>
     </g>
    </g>
   </g>
   <g id="matplotlib.axis_2">
    <g id="ytick_1">
     <g id="line2d_7">
      <defs>
       <path id="m575bfade7c" d="M 0 0 
L -3.5 0 
" style="stroke: #000000; stroke-width: 0.8"/>
      </defs>
      <g>
       <use xlink:href="#m575bfade7c" x="54.02" y="246.04" style="stroke: #000000; stroke-width: 0.8"/>
      </g>
     </g>
     <g id="text_8">
      <!-- 0.00 -->
      <g transform="translate(24.754375 249.839219)scale(0.1 -0.1)">
       <defs>
        <path id="DejaVuSans-2e" d="M 684 794 
L 1344 794 
L 1344 0 
L 684 0 
L 684 794 
z
" transform="scale(0.015625)"/>
       </defs>
       <use xlink:href="#DejaVuSans-30"/>
       <use xlink:href="#DejaVuSans-2e" x="63.623047"/>
       <use xlink:href="#DejaVuSans-30" x="95.410156"/>
       <use xlink:href="#DejaVuSans-30" x="159.033203"/>
      </g>
     </g>
    </g>
    <g id="ytick_2">
     <g id="line2d_8">
      <g>
       <use xlink:href="#m575bfade7c" x="54.02" y="211.673524" style="stroke: #000000; stroke-width: 0.8"/>
      </g>
     </g>
     <g id="text_9">
      <!-- 0.02 -->
      <g transform="translate(24.754375 215.472743)scale(0.1 -0.1)">
       <use xlink:href="#DejaVuSans-30"/>
       <use xlink:href="#DejaVuSans-2e" x="63.623047"/>
       <use xlink:href="#DejaVuSans-30" x="95.410156"/>
       <use xlink:href="#DejaVuSans-32" x="159.033203"/>
      </g>
     </g>
    </g>
    <g id="ytick_3">
     <g id="line2d_9">
      <g>
       <use xlink:href="#m575bfade7c" x="54.02" y="177.307048" style="stroke: #000000; stroke-width: 0.8"/>
      </g>
     </g>
     <g id="text_10">
      <!-- 0.04 -->
      <g transform="translate(24.754375 181.106266)scale(0.1 -0.1)">
       <use xlink:href="#DejaVuSans-30"/>
       <use xlink:href="#DejaVuSans-2e" x="63.623047"/>
       <use xlink:href="#DejaVuSans-30" x="95.410156"/>
       <use xlink:href="#DejaVuSans-34" x="159.033203"/>
      </g>
     </g>
    </g>
    <g id="ytick_4">
     <g id="line2d_10">
      <g>
       <use xlink:href="#m575bfade7c" x="54.02" y="142.940571" style="stroke: #000000; stroke-width: 0.8"/>
      </g>
     </g>
     <g id="text_11">
      <!-- 0.06 -->
      <g transform="translate(24.754375 146.73979)scale(0.1 -0.1)">
       <defs>
        <path id="DejaVuSans-36" d="M 2113 2584 
Q 1688 2584 1439 2293 
Q 1191 2003 1191 1497 
Q 1191 994 1439 701 
Q 1688 409 2113 409 
Q 2538 409 2786 701 
Q 3034 994 3034 1497 
Q 3034 2003 2786 2293 
Q 2538 2584 2113 2584 
z
M 3366 4563 
L 3366 3988 
Q 3128 4100 2886 4159 
Q 2644 4219 2406 4219 
Q 1781 4219 1451 3797 
Q 1122 3375 1075 2522 
Q 1259 2794 1537 2939 
Q 1816 3084 2150 3084 
Q 2853 3084 3261 2657 
Q 3669 2231 3669 1497 
Q 3669 778 3244 343 
Q 2819 -91 2113 -91 
Q 1303 -91 875 529 
Q 447 1150 447 2328 
Q 447 3434 972 4092 
Q 1497 4750 2381 4750 
Q 2619 4750 2861 4703 
Q 3103 4656 3366 4563 
z
" transform="scale(0.015625)"/>
       </defs>
       <use xlink:href="#DejaVuSans-30"/>
       <use xlink:href="#DejaVuSans-2e" x="63.623047"/>
       <use xlink:href="#DejaVuSans-30" x="95.410156"/>
       <use xlink:href="#DejaVuSans-36" x="159.033203"/>
      </g>
     </g>
    </g>
    <g id="ytick_5">
     <g id="line2d_11">
      <g>
       <use xlink:href="#m575bfade7c" x="54.02" y="108.574095" style="stroke: #000000; stroke-width: 0.8"/>
      </g>
     </g>
     <g id="text_12">
      <!-- 0.08 -->
      <g transform="translate(24.754375 112.373314)scale(0.1 -0.1)">
       <defs>
        <path id="DejaVuSans-38" d="M 2034 2216 
Q 1584 2216 1326 1975 
Q 1069 1734 1069 1313 
Q 1069 891 1326 650 
Q 1584 409 2034 409 
Q 2484 409 2743 651 
Q 3003 894 3003 1313 
Q 3003 1734 2745 1975 
Q 2488 2216 2034 2216 
z
M 1403 2484 
Q 997 2584 770 2862 
Q 544 3141 544 3541 
Q 544 4100 942 4425 
Q 1341 4750 2034 4750 
Q 2731 4750 3128 4425 
Q 3525 4100 3525 3541 
Q 3525 3141 3298 2862 
Q 3072 2584 2669 2484 
Q 3125 2378 3379 2068 
Q 3634 1759 3634 1313 
Q 3634 634 3220 271 
Q 2806 -91 2034 -91 
Q 1263 -91 848 271 
Q 434 634 434 1313 
Q 434 1759 690 2068 
Q 947 2378 1403 2484 
z
M 1172 3481 
Q 1172 3119 1398 2916 
Q 1625 2713 2034 2713 
Q 2441 2713 2670 2916 
Q 2900 3119 2900 3481 
Q 2900 3844 2670 4047 
Q 2441 4250 2034 4250 
Q 1625 4250 1398 4047 
Q 1172 3844 1172 3481 
z
" transform="scale(0.015625)"/>
       </defs>
       <use xlink:href="#DejaVuSans-30"/>
       <use xlink:href="#DejaVuSans-2e" x="63.623047"/>
       <use xlink:href="#DejaVuSans-30" x="95.410156"/>
       <use xlink:href="#DejaVuSans-38" x="159.033203"/>
      </g>
     </g>
    </g>
    <g id="ytick_6">
     <g id="line2d_12">
      <g>
       <use xlink:href="#m575bfade7c" x="54.02" y="74.207619" style="stroke: #000000; stroke-width: 0.8"/>
      </g>
     </g>
     <g id="text_13">
      <!-- 0.10 -->
      <g transform="translate(24.754375 78.006838)scale(0.1 -0.1)">
       <use xlink:href="#DejaVuSans-30"/>
       <use xlink:href="#DejaVuSans-2e" x="63.623047"/>
       <use xlink:href="#DejaVuSans-31" x="95.410156"/>
       <use xlink:href="#DejaVuSans-30" x="159.033203"/>
      </g>
     </g>
    </g>
    <g id="text_14">
     <!-- Probability of sucess at k-th trial -->
     <g transform="translate(18.674688 236.5405)rotate(-90)scale(0.1 -0.1)">
      <defs>
       <path id="DejaVuSans-50" d="M 1259 4147 
L 1259 2394 
L 2053 2394 
Q 2494 2394 2734 2622 
Q 2975 2850 2975 3272 
Q 2975 3691 2734 3919 
Q 2494 4147 2053 4147 
L 1259 4147 
z
M 628 4666 
L 2053 4666 
Q 2838 4666 3239 4311 
Q 3641 3956 3641 3272 
Q 3641 2581 3239 2228 
Q 2838 1875 2053 1875 
L 1259 1875 
L 1259 0 
L 628 0 
L 628 4666 
z
" transform="scale(0.015625)"/>
       <path id="DejaVuSans-74" d="M 1172 4494 
L 1172 3500 
L 2356 3500 
L 2356 3053 
L 1172 3053 
L 1172 1153 
Q 1172 725 1289 603 
Q 1406 481 1766 481 
L 2356 481 
L 2356 0 
L 1766 0 
Q 1100 0 847 248 
Q 594 497 594 1153 
L 594 3053 
L 172 3053 
L 172 3500 
L 594 3500 
L 594 4494 
L 1172 4494 
z
" transform="scale(0.015625)"/>
       <path id="DejaVuSans-79" d="M 2059 -325 
Q 1816 -950 1584 -1140 
Q 1353 -1331 966 -1331 
L 506 -1331 
L 506 -850 
L 844 -850 
Q 1081 -850 1212 -737 
Q 1344 -625 1503 -206 
L 1606 56 
L 191 3500 
L 800 3500 
L 1894 763 
L 2988 3500 
L 3597 3500 
L 2059 -325 
z
" transform="scale(0.015625)"/>
       <path id="DejaVuSans-63" d="M 3122 3366 
L 3122 2828 
Q 2878 2963 2633 3030 
Q 2388 3097 2138 3097 
Q 1578 3097 1268 2742 
Q 959 2388 959 1747 
Q 959 1106 1268 751 
Q 1578 397 2138 397 
Q 2388 397 2633 464 
Q 2878 531 3122 666 
L 3122 134 
Q 2881 22 2623 -34 
Q 2366 -91 2075 -91 
Q 1284 -91 818 406 
Q 353 903 353 1747 
Q 353 2603 823 3093 
Q 1294 3584 2113 3584 
Q 2378 3584 2631 3529 
Q 2884 3475 3122 3366 
z
" transform="scale(0.015625)"/>
       <path id="DejaVuSans-2d" d="M 313 2009 
L 1997 2009 
L 1997 1497 
L 313 1497 
L 313 2009 
z
" transform="scale(0.015625)"/>
       <path id="DejaVuSans-68" d="M 3513 2113 
L 3513 0 
L 2938 0 
L 2938 2094 
Q 2938 2591 2744 2837 
Q 2550 3084 2163 3084 
Q 1697 3084 1428 2787 
Q 1159 2491 1159 1978 
L 1159 0 
L 581 0 
L 581 4863 
L 1159 4863 
L 1159 2956 
Q 1366 3272 1645 3428 
Q 1925 3584 2291 3584 
Q 2894 3584 3203 3211 
Q 3513 2838 3513 2113 
z
" transform="scale(0.015625)"/>
      </defs>
      <use xlink:href="#DejaVuSans-50"/>
      <use xlink:href="#DejaVuSans-72" x="58.552734"/>
      <use xlink:href="#DejaVuSans-6f" x="97.416016"/>
      <use xlink:href="#DejaVuSans-62" x="158.597656"/>
      <use xlink:href="#DejaVuSans-61" x="222.074219"/>
      <use xlink:href="#DejaVuSans-62" x="283.353516"/>
      <use xlink:href="#DejaVuSans-69" x="346.830078"/>
      <use xlink:href="#DejaVuSans-6c" x="374.613281"/>
      <use xlink:href="#DejaVuSans-69" x="402.396484"/>
      <use xlink:href="#DejaVuSans-74" x="430.179688"/>
      <use xlink:href="#DejaVuSans-79" x="469.388672"/>
      <use xlink:href="#DejaVuSans-20" x="528.568359"/>
      <use xlink:href="#DejaVuSans-6f" x="560.355469"/>
      <use xlink:href="#DejaVuSans-66" x="621.537109"/>
      <use xlink:href="#DejaVuSans-20" x="656.742188"/>
      <use xlink:href="#DejaVuSans-73" x="688.529297"/>
      <use xlink:href="#DejaVuSans-75" x="740.628906"/>
      <use xlink:href="#DejaVuSans-63" x="804.007812"/>
      <use xlink:href="#DejaVuSans-65" x="858.988281"/>
      <use xlink:href="#DejaVuSans-73" x="920.511719"/>
      <use xlink:href="#DejaVuSans-73" x="972.611328"/>
      <use xlink:href="#DejaVuSans-20" x="1024.710938"/>
      <use xlink:href="#DejaVuSans-61" x="1056.498047"/>
      <use xlink:href="#DejaVuSans-74" x="1117.777344"/>
      <use xlink:href="#DejaVuSans-20" x="1156.986328"/>
      <use xlink:href="#DejaVuSans-6b" x="1188.773438"/>
      <use xlink:href="#DejaVuSans-2d" x="1246.683594"/>
      <use xlink:href="#DejaVuSans-74" x="1282.767578"/>
      <use xlink:href="#DejaVuSans-68" x="1321.976562"/>
      <use xlink:href="#DejaVuSans-20" x="1385.355469"/>
      <use xlink:href="#DejaVuSans-74" x="1417.142578"/>
      <use xlink:href="#DejaVuSans-72" x="1456.351562"/>
      <use xlink:href="#DejaVuSans-69" x="1497.464844"/>
      <use xlink:href="#DejaVuSans-61" x="1525.248047"/>
      <use xlink:href="#DejaVuSans-6c" x="1586.527344"/>
     </g>
    </g>
   </g>
   <g id="patch_52">
    <path d="M 54.02 246.04 
L 54.02 65.616 
" style="fill: none; stroke: #000000; stroke-width: 0.8; stroke-linejoin: miter; stroke-linecap: square"/>
   </g>
   <g id="patch_53">
    <path d="M 249.75 246.04 
L 249.75 65.616 
" style="fill: none; stroke: #000000; stroke-width: 0.8; stroke-linejoin: miter; stroke-linecap: square"/>
   </g>
   <g id="patch_54">
    <path d="M 54.02 246.04 
L 249.75 246.04 
" style="fill: none; stroke: #000000; stroke-width: 0.8; stroke-linejoin: miter; stroke-linecap: square"/>
   </g>
   <g id="patch_55">
    <path d="M 54.02 65.616 
L 249.75 65.616 
" style="fill: none; stroke: #000000; stroke-width: 0.8; stroke-linejoin: miter; stroke-linecap: square"/>
   </g>
   <g id="text_15">
    <!-- μ = 0.1 -->
    <g transform="translate(129.684062 59.616)scale(0.12 -0.12)">
     <defs>
      <path id="DejaVuSans-3bc" d="M 544 -1331 
L 544 3500 
L 1119 3500 
L 1119 1325 
Q 1119 872 1334 640 
Q 1550 409 1972 409 
Q 2434 409 2667 671 
Q 2900 934 2900 1459 
L 2900 3500 
L 3475 3500 
L 3475 806 
Q 3475 619 3529 530 
Q 3584 441 3700 441 
Q 3728 441 3778 458 
Q 3828 475 3916 513 
L 3916 50 
Q 3788 -22 3673 -56 
Q 3559 -91 3450 -91 
Q 3234 -91 3106 31 
Q 2978 153 2931 403 
Q 2775 156 2548 32 
Q 2322 -91 2016 -91 
Q 1697 -91 1473 31 
Q 1250 153 1119 397 
L 1119 -1331 
L 544 -1331 
z
" transform="scale(0.015625)"/>
      <path id="DejaVuSans-3d" d="M 678 2906 
L 4684 2906 
L 4684 2381 
L 678 2381 
L 678 2906 
z
M 678 1631 
L 4684 1631 
L 4684 1100 
L 678 1100 
L 678 1631 
z
" transform="scale(0.015625)"/>
     </defs>
     <use xlink:href="#DejaVuSans-3bc"/>
     <use xlink:href="#DejaVuSans-20" x="63.623047"/>
     <use xlink:href="#DejaVuSans-3d" x="95.410156"/>
     <use xlink:href="#DejaVuSans-20" x="179.199219"/>
     <use xlink:href="#DejaVuSans-30" x="210.986328"/>
     <use xlink:href="#DejaVuSans-2e" x="274.609375"/>
     <use xlink:href="#DejaVuSans-31" x="306.396484"/>
    </g>
   </g>
  </g>
  <g id="axes_2">
   <g id="patch_56">
    <path d="M 297.47 246.04 
L 493.2 246.04 
L 493.2 65.616 
L 297.47 65.616 
z
" style="fill: #ffffff"/>
   </g>
   <g id="patch_57">
    <path d="M 306.366818 246.04 
L 309.283808 246.04 
L 309.283808 74.207619 
L 306.366818 74.207619 
z
" clip-path="url(#p2462e74d73)" style="fill: #1f77b4"/>
   </g>
   <g id="patch_58">
    <path d="M 310.013055 246.04 
L 312.930045 246.04 
L 312.930045 160.12381 
L 310.013055 160.12381 
z
" clip-path="url(#p2462e74d73)" style="fill: #1f77b4"/>
   </g>
   <g id="patch_59">
    <path d="M 313.659292 246.04 
L 316.576282 246.04 
L 316.576282 203.081905 
L 313.659292 203.081905 
z
" clip-path="url(#p2462e74d73)" style="fill: #1f77b4"/>
   </g>
   <g id="patch_60">
    <path d="M 317.305529 246.04 
L 320.222519 246.04 
L 320.222519 224.560952 
L 317.305529 224.560952 
z
" clip-path="url(#p2462e74d73)" style="fill: #1f77b4"/>
   </g>
   <g id="patch_61">
    <path d="M 320.951766 246.04 
L 323.868756 246.04 
L 323.868756 235.300476 
L 320.951766 235.300476 
z
" clip-path="url(#p2462e74d73)" style="fill: #1f77b4"/>
   </g>
   <g id="patch_62">
    <path d="M 324.598003 246.04 
L 327.514993 246.04 
L 327.514993 240.670238 
L 324.598003 240.670238 
z
" clip-path="url(#p2462e74d73)" style="fill: #1f77b4"/>
   </g>
   <g id="patch_63">
    <path d="M 328.24424 246.04 
L 331.16123 246.04 
L 331.16123 243.355119 
L 328.24424 243.355119 
z
" clip-path="url(#p2462e74d73)" style="fill: #1f77b4"/>
   </g>
   <g id="patch_64">
    <path d="M 331.890477 246.04 
L 334.807466 246.04 
L 334.807466 244.69756 
L 331.890477 244.69756 
z
" clip-path="url(#p2462e74d73)" style="fill: #1f77b4"/>
   </g>
   <g id="patch_65">
    <path d="M 335.536714 246.04 
L 338.453703 246.04 
L 338.453703 245.36878 
L 335.536714 245.36878 
z
" clip-path="url(#p2462e74d73)" style="fill: #1f77b4"/>
   </g>
   <g id="patch_66">
    <path d="M 339.182951 246.04 
L 342.09994 246.04 
L 342.09994 245.70439 
L 339.182951 245.70439 
z
" clip-path="url(#p2462e74d73)" style="fill: #1f77b4"/>
   </g>
   <g id="patch_67">
    <path d="M 342.829188 246.04 
L 345.746177 246.04 
L 345.746177 245.872195 
L 342.829188 245.872195 
z
" clip-path="url(#p2462e74d73)" style="fill: #1f77b4"/>
   </g>
   <g id="patch_68">
    <path d="M 346.475425 246.04 
L 349.392414 246.04 
L 349.392414 245.956097 
L 346.475425 245.956097 
z
" clip-path="url(#p2462e74d73)" style="fill: #1f77b4"/>
   </g>
   <g id="patch_69">
    <path d="M 350.121662 246.04 
L 353.038651 246.04 
L 353.038651 245.998049 
L 350.121662 245.998049 
z
" clip-path="url(#p2462e74d73)" style="fill: #1f77b4"/>
   </g>
   <g id="patch_70">
    <path d="M 353.767899 246.04 
L 356.684888 246.04 
L 356.684888 246.019024 
L 353.767899 246.019024 
z
" clip-path="url(#p2462e74d73)" style="fill: #1f77b4"/>
   </g>
   <g id="patch_71">
    <path d="M 357.414136 246.04 
L 360.331125 246.04 
L 360.331125 246.029512 
L 357.414136 246.029512 
z
" clip-path="url(#p2462e74d73)" style="fill: #1f77b4"/>
   </g>
   <g id="patch_72">
    <path d="M 361.060373 246.04 
L 363.977362 246.04 
L 363.977362 246.034756 
L 361.060373 246.034756 
z
" clip-path="url(#p2462e74d73)" style="fill: #1f77b4"/>
   </g>
   <g id="patch_73">
    <path d="M 364.70661 246.04 
L 367.623599 246.04 
L 367.623599 246.037378 
L 364.70661 246.037378 
z
" clip-path="url(#p2462e74d73)" style="fill: #1f77b4"/>
   </g>
   <g id="patch_74">
    <path d="M 368.352846 246.04 
L 371.269836 246.04 
L 371.269836 246.038689 
L 368.352846 246.038689 
z
" clip-path="url(#p2462e74d73)" style="fill: #1f77b4"/>
   </g>
   <g id="patch_75">
    <path d="M 371.999083 246.04 
L 374.916073 246.04 
L 374.916073 246.039345 
L 371.999083 246.039345 
z
" clip-path="url(#p2462e74d73)" style="fill: #1f77b4"/>
   </g>
   <g id="patch_76">
    <path d="M 375.64532 246.04 
L 378.56231 246.04 
L 378.56231 246.039672 
L 375.64532 246.039672 
z
" clip-path="url(#p2462e74d73)" style="fill: #1f77b4"/>
   </g>
   <g id="patch_77">
    <path d="M 379.291557 246.04 
L 382.208547 246.04 
L 382.208547 246.039836 
L 379.291557 246.039836 
z
" clip-path="url(#p2462e74d73)" style="fill: #1f77b4"/>
   </g>
   <g id="patch_78">
    <path d="M 382.937794 246.04 
L 385.854784 246.04 
L 385.854784 246.039918 
L 382.937794 246.039918 
z
" clip-path="url(#p2462e74d73)" style="fill: #1f77b4"/>
   </g>
   <g id="patch_79">
    <path d="M 386.584031 246.04 
L 389.501021 246.04 
L 389.501021 246.039959 
L 386.584031 246.039959 
z
" clip-path="url(#p2462e74d73)" style="fill: #1f77b4"/>
   </g>
   <g id="patch_80">
    <path d="M 390.230268 246.04 
L 393.147258 246.04 
L 393.147258 246.03998 
L 390.230268 246.03998 
z
" clip-path="url(#p2462e74d73)" style="fill: #1f77b4"/>
   </g>
   <g id="patch_81">
    <path d="M 393.876505 246.04 
L 396.793495 246.04 
L 396.793495 246.03999 
L 393.876505 246.03999 
z
" clip-path="url(#p2462e74d73)" style="fill: #1f77b4"/>
   </g>
   <g id="patch_82">
    <path d="M 397.522742 246.04 
L 400.439732 246.04 
L 400.439732 246.039995 
L 397.522742 246.039995 
z
" clip-path="url(#p2462e74d73)" style="fill: #1f77b4"/>
   </g>
   <g id="patch_83">
    <path d="M 401.168979 246.04 
L 404.085969 246.04 
L 404.085969 246.039997 
L 401.168979 246.039997 
z
" clip-path="url(#p2462e74d73)" style="fill: #1f77b4"/>
   </g>
   <g id="patch_84">
    <path d="M 404.815216 246.04 
L 407.732206 246.04 
L 407.732206 246.039999 
L 404.815216 246.039999 
z
" clip-path="url(#p2462e74d73)" style="fill: #1f77b4"/>
   </g>
   <g id="patch_85">
    <path d="M 408.461453 246.04 
L 411.378443 246.04 
L 411.378443 246.039999 
L 408.461453 246.039999 
z
" clip-path="url(#p2462e74d73)" style="fill: #1f77b4"/>
   </g>
   <g id="patch_86">
    <path d="M 412.10769 246.04 
L 415.02468 246.04 
L 415.02468 246.04 
L 412.10769 246.04 
z
" clip-path="url(#p2462e74d73)" style="fill: #1f77b4"/>
   </g>
   <g id="patch_87">
    <path d="M 415.753927 246.04 
L 418.670917 246.04 
L 418.670917 246.04 
L 415.753927 246.04 
z
" clip-path="url(#p2462e74d73)" style="fill: #1f77b4"/>
   </g>
   <g id="patch_88">
    <path d="M 419.400164 246.04 
L 422.317154 246.04 
L 422.317154 246.04 
L 419.400164 246.04 
z
" clip-path="url(#p2462e74d73)" style="fill: #1f77b4"/>
   </g>
   <g id="patch_89">
    <path d="M 423.046401 246.04 
L 425.96339 246.04 
L 425.96339 246.04 
L 423.046401 246.04 
z
" clip-path="url(#p2462e74d73)" style="fill: #1f77b4"/>
   </g>
   <g id="patch_90">
    <path d="M 426.692638 246.04 
L 429.609627 246.04 
L 429.609627 246.04 
L 426.692638 246.04 
z
" clip-path="url(#p2462e74d73)" style="fill: #1f77b4"/>
   </g>
   <g id="patch_91">
    <path d="M 430.338875 246.04 
L 433.255864 246.04 
L 433.255864 246.04 
L 430.338875 246.04 
z
" clip-path="url(#p2462e74d73)" style="fill: #1f77b4"/>
   </g>
   <g id="patch_92">
    <path d="M 433.985112 246.04 
L 436.902101 246.04 
L 436.902101 246.04 
L 433.985112 246.04 
z
" clip-path="url(#p2462e74d73)" style="fill: #1f77b4"/>
   </g>
   <g id="patch_93">
    <path d="M 437.631349 246.04 
L 440.548338 246.04 
L 440.548338 246.04 
L 437.631349 246.04 
z
" clip-path="url(#p2462e74d73)" style="fill: #1f77b4"/>
   </g>
   <g id="patch_94">
    <path d="M 441.277586 246.04 
L 444.194575 246.04 
L 444.194575 246.04 
L 441.277586 246.04 
z
" clip-path="url(#p2462e74d73)" style="fill: #1f77b4"/>
   </g>
   <g id="patch_95">
    <path d="M 444.923823 246.04 
L 447.840812 246.04 
L 447.840812 246.04 
L 444.923823 246.04 
z
" clip-path="url(#p2462e74d73)" style="fill: #1f77b4"/>
   </g>
   <g id="patch_96">
    <path d="M 448.57006 246.04 
L 451.487049 246.04 
L 451.487049 246.04 
L 448.57006 246.04 
z
" clip-path="url(#p2462e74d73)" style="fill: #1f77b4"/>
   </g>
   <g id="patch_97">
    <path d="M 452.216297 246.04 
L 455.133286 246.04 
L 455.133286 246.04 
L 452.216297 246.04 
z
" clip-path="url(#p2462e74d73)" style="fill: #1f77b4"/>
   </g>
   <g id="patch_98">
    <path d="M 455.862534 246.04 
L 458.779523 246.04 
L 458.779523 246.04 
L 455.862534 246.04 
z
" clip-path="url(#p2462e74d73)" style="fill: #1f77b4"/>
   </g>
   <g id="patch_99">
    <path d="M 459.50877 246.04 
L 462.42576 246.04 
L 462.42576 246.04 
L 459.50877 246.04 
z
" clip-path="url(#p2462e74d73)" style="fill: #1f77b4"/>
   </g>
   <g id="patch_100">
    <path d="M 463.155007 246.04 
L 466.071997 246.04 
L 466.071997 246.04 
L 463.155007 246.04 
z
" clip-path="url(#p2462e74d73)" style="fill: #1f77b4"/>
   </g>
   <g id="patch_101">
    <path d="M 466.801244 246.04 
L 469.718234 246.04 
L 469.718234 246.04 
L 466.801244 246.04 
z
" clip-path="url(#p2462e74d73)" style="fill: #1f77b4"/>
   </g>
   <g id="patch_102">
    <path d="M 470.447481 246.04 
L 473.364471 246.04 
L 473.364471 246.04 
L 470.447481 246.04 
z
" clip-path="url(#p2462e74d73)" style="fill: #1f77b4"/>
   </g>
   <g id="patch_103">
    <path d="M 474.093718 246.04 
L 477.010708 246.04 
L 477.010708 246.04 
L 474.093718 246.04 
z
" clip-path="url(#p2462e74d73)" style="fill: #1f77b4"/>
   </g>
   <g id="patch_104">
    <path d="M 477.739955 246.04 
L 480.656945 246.04 
L 480.656945 246.04 
L 477.739955 246.04 
z
" clip-path="url(#p2462e74d73)" style="fill: #1f77b4"/>
   </g>
   <g id="patch_105">
    <path d="M 481.386192 246.04 
L 484.303182 246.04 
L 484.303182 246.04 
L 481.386192 246.04 
z
" clip-path="url(#p2462e74d73)" style="fill: #1f77b4"/>
   </g>
   <g id="matplotlib.axis_3">
    <g id="xtick_7">
     <g id="line2d_13">
      <g>
       <use xlink:href="#m93778c251a" x="304.179076" y="246.04" style="stroke: #000000; stroke-width: 0.8"/>
      </g>
     </g>
     <g id="text_16">
      <!-- 0 -->
      <g transform="translate(300.997826 260.638438)scale(0.1 -0.1)">
       <use xlink:href="#DejaVuSans-30"/>
      </g>
     </g>
    </g>
    <g id="xtick_8">
     <g id="line2d_14">
      <g>
       <use xlink:href="#m93778c251a" x="340.641446" y="246.04" style="stroke: #000000; stroke-width: 0.8"/>
      </g>
     </g>
     <g id="text_17">
      <!-- 10 -->
      <g transform="translate(334.278946 260.638438)scale(0.1 -0.1)">
       <use xlink:href="#DejaVuSans-31"/>
       <use xlink:href="#DejaVuSans-30" x="63.623047"/>
      </g>
     </g>
    </g>
    <g id="xtick_9">
     <g id="line2d_15">
      <g>
       <use xlink:href="#m93778c251a" x="377.103815" y="246.04" style="stroke: #000000; stroke-width: 0.8"/>
      </g>
     </g>
     <g id="text_18">
      <!-- 20 -->
      <g transform="translate(370.741315 260.638438)scale(0.1 -0.1)">
       <use xlink:href="#DejaVuSans-32"/>
       <use xlink:href="#DejaVuSans-30" x="63.623047"/>
      </g>
     </g>
    </g>
    <g id="xtick_10">
     <g id="line2d_16">
      <g>
       <use xlink:href="#m93778c251a" x="413.566185" y="246.04" style="stroke: #000000; stroke-width: 0.8"/>
      </g>
     </g>
     <g id="text_19">
      <!-- 30 -->
      <g transform="translate(407.203685 260.638438)scale(0.1 -0.1)">
       <use xlink:href="#DejaVuSans-33"/>
       <use xlink:href="#DejaVuSans-30" x="63.623047"/>
      </g>
     </g>
    </g>
    <g id="xtick_11">
     <g id="line2d_17">
      <g>
       <use xlink:href="#m93778c251a" x="450.028554" y="246.04" style="stroke: #000000; stroke-width: 0.8"/>
      </g>
     </g>
     <g id="text_20">
      <!-- 40 -->
      <g transform="translate(443.666054 260.638438)scale(0.1 -0.1)">
       <use xlink:href="#DejaVuSans-34"/>
       <use xlink:href="#DejaVuSans-30" x="63.623047"/>
      </g>
     </g>
    </g>
    <g id="xtick_12">
     <g id="line2d_18">
      <g>
       <use xlink:href="#m93778c251a" x="486.490924" y="246.04" style="stroke: #000000; stroke-width: 0.8"/>
      </g>
     </g>
     <g id="text_21">
      <!-- 50 -->
      <g transform="translate(480.128424 260.638438)scale(0.1 -0.1)">
       <use xlink:href="#DejaVuSans-35"/>
       <use xlink:href="#DejaVuSans-30" x="63.623047"/>
      </g>
     </g>
    </g>
    <g id="text_22">
     <!-- Number of Trials k -->
     <g transform="translate(349.948281 274.316562)scale(0.1 -0.1)">
      <use xlink:href="#DejaVuSans-4e"/>
      <use xlink:href="#DejaVuSans-75" x="74.804688"/>
      <use xlink:href="#DejaVuSans-6d" x="138.183594"/>
      <use xlink:href="#DejaVuSans-62" x="235.595703"/>
      <use xlink:href="#DejaVuSans-65" x="299.072266"/>
      <use xlink:href="#DejaVuSans-72" x="360.595703"/>
      <use xlink:href="#DejaVuSans-20" x="401.708984"/>
      <use xlink:href="#DejaVuSans-6f" x="433.496094"/>
      <use xlink:href="#DejaVuSans-66" x="494.677734"/>
      <use xlink:href="#DejaVuSans-20" x="529.882812"/>
      <use xlink:href="#DejaVuSans-54" x="561.669922"/>
      <use xlink:href="#DejaVuSans-72" x="608.003906"/>
      <use xlink:href="#DejaVuSans-69" x="649.117188"/>
      <use xlink:href="#DejaVuSans-61" x="676.900391"/>
      <use xlink:href="#DejaVuSans-6c" x="738.179688"/>
      <use xlink:href="#DejaVuSans-73" x="765.962891"/>
      <use xlink:href="#DejaVuSans-20" x="818.0625"/>
      <use xlink:href="#DejaVuSans-6b" x="849.849609"/>
     </g>
    </g>
   </g>
   <g id="matplotlib.axis_4">
    <g id="ytick_7">
     <g id="line2d_19">
      <g>
       <use xlink:href="#m575bfade7c" x="297.47" y="246.04" style="stroke: #000000; stroke-width: 0.8"/>
      </g>
     </g>
     <g id="text_23">
      <!-- 0.0 -->
      <g transform="translate(274.566875 249.839219)scale(0.1 -0.1)">
       <use xlink:href="#DejaVuSans-30"/>
       <use xlink:href="#DejaVuSans-2e" x="63.623047"/>
       <use xlink:href="#DejaVuSans-30" x="95.410156"/>
      </g>
     </g>
    </g>
    <g id="ytick_8">
     <g id="line2d_20">
      <g>
       <use xlink:href="#m575bfade7c" x="297.47" y="211.673524" style="stroke: #000000; stroke-width: 0.8"/>
      </g>
     </g>
     <g id="text_24">
      <!-- 0.1 -->
      <g transform="translate(274.566875 215.472743)scale(0.1 -0.1)">
       <use xlink:href="#DejaVuSans-30"/>
       <use xlink:href="#DejaVuSans-2e" x="63.623047"/>
       <use xlink:href="#DejaVuSans-31" x="95.410156"/>
      </g>
     </g>
    </g>
    <g id="ytick_9">
     <g id="line2d_21">
      <g>
       <use xlink:href="#m575bfade7c" x="297.47" y="177.307048" style="stroke: #000000; stroke-width: 0.8"/>
      </g>
     </g>
     <g id="text_25">
      <!-- 0.2 -->
      <g transform="translate(274.566875 181.106266)scale(0.1 -0.1)">
       <use xlink:href="#DejaVuSans-30"/>
       <use xlink:href="#DejaVuSans-2e" x="63.623047"/>
       <use xlink:href="#DejaVuSans-32" x="95.410156"/>
      </g>
     </g>
    </g>
    <g id="ytick_10">
     <g id="line2d_22">
      <g>
       <use xlink:href="#m575bfade7c" x="297.47" y="142.940571" style="stroke: #000000; stroke-width: 0.8"/>
      </g>
     </g>
     <g id="text_26">
      <!-- 0.3 -->
      <g transform="translate(274.566875 146.73979)scale(0.1 -0.1)">
       <use xlink:href="#DejaVuSans-30"/>
       <use xlink:href="#DejaVuSans-2e" x="63.623047"/>
       <use xlink:href="#DejaVuSans-33" x="95.410156"/>
      </g>
     </g>
    </g>
    <g id="ytick_11">
     <g id="line2d_23">
      <g>
       <use xlink:href="#m575bfade7c" x="297.47" y="108.574095" style="stroke: #000000; stroke-width: 0.8"/>
      </g>
     </g>
     <g id="text_27">
      <!-- 0.4 -->
      <g transform="translate(274.566875 112.373314)scale(0.1 -0.1)">
       <use xlink:href="#DejaVuSans-30"/>
       <use xlink:href="#DejaVuSans-2e" x="63.623047"/>
       <use xlink:href="#DejaVuSans-34" x="95.410156"/>
      </g>
     </g>
    </g>
    <g id="ytick_12">
     <g id="line2d_24">
      <g>
       <use xlink:href="#m575bfade7c" x="297.47" y="74.207619" style="stroke: #000000; stroke-width: 0.8"/>
      </g>
     </g>
     <g id="text_28">
      <!-- 0.5 -->
      <g transform="translate(274.566875 78.006838)scale(0.1 -0.1)">
       <use xlink:href="#DejaVuSans-30"/>
       <use xlink:href="#DejaVuSans-2e" x="63.623047"/>
       <use xlink:href="#DejaVuSans-35" x="95.410156"/>
      </g>
     </g>
    </g>
    <g id="text_29">
     <!-- Probability of sucess at k-th trial -->
     <g transform="translate(268.487188 236.5405)rotate(-90)scale(0.1 -0.1)">
      <use xlink:href="#DejaVuSans-50"/>
      <use xlink:href="#DejaVuSans-72" x="58.552734"/>
      <use xlink:href="#DejaVuSans-6f" x="97.416016"/>
      <use xlink:href="#DejaVuSans-62" x="158.597656"/>
      <use xlink:href="#DejaVuSans-61" x="222.074219"/>
      <use xlink:href="#DejaVuSans-62" x="283.353516"/>
      <use xlink:href="#DejaVuSans-69" x="346.830078"/>
      <use xlink:href="#DejaVuSans-6c" x="374.613281"/>
      <use xlink:href="#DejaVuSans-69" x="402.396484"/>
      <use xlink:href="#DejaVuSans-74" x="430.179688"/>
      <use xlink:href="#DejaVuSans-79" x="469.388672"/>
      <use xlink:href="#DejaVuSans-20" x="528.568359"/>
      <use xlink:href="#DejaVuSans-6f" x="560.355469"/>
      <use xlink:href="#DejaVuSans-66" x="621.537109"/>
      <use xlink:href="#DejaVuSans-20" x="656.742188"/>
      <use xlink:href="#DejaVuSans-73" x="688.529297"/>
      <use xlink:href="#DejaVuSans-75" x="740.628906"/>
      <use xlink:href="#DejaVuSans-63" x="804.007812"/>
      <use xlink:href="#DejaVuSans-65" x="858.988281"/>
      <use xlink:href="#DejaVuSans-73" x="920.511719"/>
      <use xlink:href="#DejaVuSans-73" x="972.611328"/>
      <use xlink:href="#DejaVuSans-20" x="1024.710938"/>
      <use xlink:href="#DejaVuSans-61" x="1056.498047"/>
      <use xlink:href="#DejaVuSans-74" x="1117.777344"/>
      <use xlink:href="#DejaVuSans-20" x="1156.986328"/>
      <use xlink:href="#DejaVuSans-6b" x="1188.773438"/>
      <use xlink:href="#DejaVuSans-2d" x="1246.683594"/>
      <use xlink:href="#DejaVuSans-74" x="1282.767578"/>
      <use xlink:href="#DejaVuSans-68" x="1321.976562"/>
      <use xlink:href="#DejaVuSans-20" x="1385.355469"/>
      <use xlink:href="#DejaVuSans-74" x="1417.142578"/>
      <use xlink:href="#DejaVuSans-72" x="1456.351562"/>
      <use xlink:href="#DejaVuSans-69" x="1497.464844"/>
      <use xlink:href="#DejaVuSans-61" x="1525.248047"/>
      <use xlink:href="#DejaVuSans-6c" x="1586.527344"/>
     </g>
    </g>
   </g>
   <g id="patch_106">
    <path d="M 297.47 246.04 
L 297.47 65.616 
" style="fill: none; stroke: #000000; stroke-width: 0.8; stroke-linejoin: miter; stroke-linecap: square"/>
   </g>
   <g id="patch_107">
    <path d="M 493.2 246.04 
L 493.2 65.616 
" style="fill: none; stroke: #000000; stroke-width: 0.8; stroke-linejoin: miter; stroke-linecap: square"/>
   </g>
   <g id="patch_108">
    <path d="M 297.47 246.04 
L 493.2 246.04 
" style="fill: none; stroke: #000000; stroke-width: 0.8; stroke-linejoin: miter; stroke-linecap: square"/>
   </g>
   <g id="patch_109">
    <path d="M 297.47 65.616 
L 493.2 65.616 
" style="fill: none; stroke: #000000; stroke-width: 0.8; stroke-linejoin: miter; stroke-linecap: square"/>
   </g>
   <g id="text_30">
    <!-- μ = 0.5 -->
    <g transform="translate(373.134062 59.616)scale(0.12 -0.12)">
     <use xlink:href="#DejaVuSans-3bc"/>
     <use xlink:href="#DejaVuSans-20" x="63.623047"/>
     <use xlink:href="#DejaVuSans-3d" x="95.410156"/>
     <use xlink:href="#DejaVuSans-20" x="179.199219"/>
     <use xlink:href="#DejaVuSans-30" x="210.986328"/>
     <use xlink:href="#DejaVuSans-2e" x="274.609375"/>
     <use xlink:href="#DejaVuSans-35" x="306.396484"/>
    </g>
   </g>
  </g>
  <g id="text_31">
   <!-- Geometric Distributions, probability of first success at k-th trial  -->
   <g transform="translate(60.830625 14.878125)scale(0.12 -0.12)">
    <defs>
     <path id="DejaVuSans-47" d="M 3809 666 
L 3809 1919 
L 2778 1919 
L 2778 2438 
L 4434 2438 
L 4434 434 
Q 4069 175 3628 42 
Q 3188 -91 2688 -91 
Q 1594 -91 976 548 
Q 359 1188 359 2328 
Q 359 3472 976 4111 
Q 1594 4750 2688 4750 
Q 3144 4750 3555 4637 
Q 3966 4525 4313 4306 
L 4313 3634 
Q 3963 3931 3569 4081 
Q 3175 4231 2741 4231 
Q 1884 4231 1454 3753 
Q 1025 3275 1025 2328 
Q 1025 1384 1454 906 
Q 1884 428 2741 428 
Q 3075 428 3337 486 
Q 3600 544 3809 666 
z
" transform="scale(0.015625)"/>
     <path id="DejaVuSans-44" d="M 1259 4147 
L 1259 519 
L 2022 519 
Q 2988 519 3436 956 
Q 3884 1394 3884 2338 
Q 3884 3275 3436 3711 
Q 2988 4147 2022 4147 
L 1259 4147 
z
M 628 4666 
L 1925 4666 
Q 3281 4666 3915 4102 
Q 4550 3538 4550 2338 
Q 4550 1131 3912 565 
Q 3275 0 1925 0 
L 628 0 
L 628 4666 
z
" transform="scale(0.015625)"/>
     <path id="DejaVuSans-6e" d="M 3513 2113 
L 3513 0 
L 2938 0 
L 2938 2094 
Q 2938 2591 2744 2837 
Q 2550 3084 2163 3084 
Q 1697 3084 1428 2787 
Q 1159 2491 1159 1978 
L 1159 0 
L 581 0 
L 581 3500 
L 1159 3500 
L 1159 2956 
Q 1366 3272 1645 3428 
Q 1925 3584 2291 3584 
Q 2894 3584 3203 3211 
Q 3513 2838 3513 2113 
z
" transform="scale(0.015625)"/>
     <path id="DejaVuSans-2c" d="M 750 794 
L 1409 794 
L 1409 256 
L 897 -744 
L 494 -744 
L 750 256 
L 750 794 
z
" transform="scale(0.015625)"/>
     <path id="DejaVuSans-70" d="M 1159 525 
L 1159 -1331 
L 581 -1331 
L 581 3500 
L 1159 3500 
L 1159 2969 
Q 1341 3281 1617 3432 
Q 1894 3584 2278 3584 
Q 2916 3584 3314 3078 
Q 3713 2572 3713 1747 
Q 3713 922 3314 415 
Q 2916 -91 2278 -91 
Q 1894 -91 1617 61 
Q 1341 213 1159 525 
z
M 3116 1747 
Q 3116 2381 2855 2742 
Q 2594 3103 2138 3103 
Q 1681 3103 1420 2742 
Q 1159 2381 1159 1747 
Q 1159 1113 1420 752 
Q 1681 391 2138 391 
Q 2594 391 2855 752 
Q 3116 1113 3116 1747 
z
" transform="scale(0.015625)"/>
    </defs>
    <use xlink:href="#DejaVuSans-47"/>
    <use xlink:href="#DejaVuSans-65" x="77.490234"/>
    <use xlink:href="#DejaVuSans-6f" x="139.013672"/>
    <use xlink:href="#DejaVuSans-6d" x="200.195312"/>
    <use xlink:href="#DejaVuSans-65" x="297.607422"/>
    <use xlink:href="#DejaVuSans-74" x="359.130859"/>
    <use xlink:href="#DejaVuSans-72" x="398.339844"/>
    <use xlink:href="#DejaVuSans-69" x="439.453125"/>
    <use xlink:href="#DejaVuSans-63" x="467.236328"/>
    <use xlink:href="#DejaVuSans-20" x="522.216797"/>
    <use xlink:href="#DejaVuSans-44" x="554.003906"/>
    <use xlink:href="#DejaVuSans-69" x="631.005859"/>
    <use xlink:href="#DejaVuSans-73" x="658.789062"/>
    <use xlink:href="#DejaVuSans-74" x="710.888672"/>
    <use xlink:href="#DejaVuSans-72" x="750.097656"/>
    <use xlink:href="#DejaVuSans-69" x="791.210938"/>
    <use xlink:href="#DejaVuSans-62" x="818.994141"/>
    <use xlink:href="#DejaVuSans-75" x="882.470703"/>
    <use xlink:href="#DejaVuSans-74" x="945.849609"/>
    <use xlink:href="#DejaVuSans-69" x="985.058594"/>
    <use xlink:href="#DejaVuSans-6f" x="1012.841797"/>
    <use xlink:href="#DejaVuSans-6e" x="1074.023438"/>
    <use xlink:href="#DejaVuSans-73" x="1137.402344"/>
    <use xlink:href="#DejaVuSans-2c" x="1189.501953"/>
    <use xlink:href="#DejaVuSans-20" x="1221.289062"/>
    <use xlink:href="#DejaVuSans-70" x="1253.076172"/>
    <use xlink:href="#DejaVuSans-72" x="1316.552734"/>
    <use xlink:href="#DejaVuSans-6f" x="1355.416016"/>
    <use xlink:href="#DejaVuSans-62" x="1416.597656"/>
    <use xlink:href="#DejaVuSans-61" x="1480.074219"/>
    <use xlink:href="#DejaVuSans-62" x="1541.353516"/>
    <use xlink:href="#DejaVuSans-69" x="1604.830078"/>
    <use xlink:href="#DejaVuSans-6c" x="1632.613281"/>
    <use xlink:href="#DejaVuSans-69" x="1660.396484"/>
    <use xlink:href="#DejaVuSans-74" x="1688.179688"/>
    <use xlink:href="#DejaVuSans-79" x="1727.388672"/>
    <use xlink:href="#DejaVuSans-20" x="1786.568359"/>
    <use xlink:href="#DejaVuSans-6f" x="1818.355469"/>
    <use xlink:href="#DejaVuSans-66" x="1879.537109"/>
    <use xlink:href="#DejaVuSans-20" x="1914.742188"/>
    <use xlink:href="#DejaVuSans-66" x="1946.529297"/>
    <use xlink:href="#DejaVuSans-69" x="1981.734375"/>
    <use xlink:href="#DejaVuSans-72" x="2009.517578"/>
    <use xlink:href="#DejaVuSans-73" x="2050.630859"/>
    <use xlink:href="#DejaVuSans-74" x="2102.730469"/>
    <use xlink:href="#DejaVuSans-20" x="2141.939453"/>
    <use xlink:href="#DejaVuSans-73" x="2173.726562"/>
    <use xlink:href="#DejaVuSans-75" x="2225.826172"/>
    <use xlink:href="#DejaVuSans-63" x="2289.205078"/>
    <use xlink:href="#DejaVuSans-63" x="2344.185547"/>
    <use xlink:href="#DejaVuSans-65" x="2399.166016"/>
    <use xlink:href="#DejaVuSans-73" x="2460.689453"/>
    <use xlink:href="#DejaVuSans-73" x="2512.789062"/>
    <use xlink:href="#DejaVuSans-20" x="2564.888672"/>
    <use xlink:href="#DejaVuSans-61" x="2596.675781"/>
    <use xlink:href="#DejaVuSans-74" x="2657.955078"/>
    <use xlink:href="#DejaVuSans-20" x="2697.164062"/>
    <use xlink:href="#DejaVuSans-6b" x="2728.951172"/>
    <use xlink:href="#DejaVuSans-2d" x="2786.861328"/>
    <use xlink:href="#DejaVuSans-74" x="2822.945312"/>
    <use xlink:href="#DejaVuSans-68" x="2862.154297"/>
    <use xlink:href="#DejaVuSans-20" x="2925.533203"/>
    <use xlink:href="#DejaVuSans-74" x="2957.320312"/>
    <use xlink:href="#DejaVuSans-72" x="2996.529297"/>
    <use xlink:href="#DejaVuSans-69" x="3037.642578"/>
    <use xlink:href="#DejaVuSans-61" x="3065.425781"/>
    <use xlink:href="#DejaVuSans-6c" x="3126.705078"/>
    <use xlink:href="#DejaVuSans-20" x="3154.488281"/>
   </g>
   <!--  given probability of success μ -->
   <g transform="translate(160.862813 28.3155)scale(0.12 -0.12)">
    <defs>
     <path id="DejaVuSans-67" d="M 2906 1791 
Q 2906 2416 2648 2759 
Q 2391 3103 1925 3103 
Q 1463 3103 1205 2759 
Q 947 2416 947 1791 
Q 947 1169 1205 825 
Q 1463 481 1925 481 
Q 2391 481 2648 825 
Q 2906 1169 2906 1791 
z
M 3481 434 
Q 3481 -459 3084 -895 
Q 2688 -1331 1869 -1331 
Q 1566 -1331 1297 -1286 
Q 1028 -1241 775 -1147 
L 775 -588 
Q 1028 -725 1275 -790 
Q 1522 -856 1778 -856 
Q 2344 -856 2625 -561 
Q 2906 -266 2906 331 
L 2906 616 
Q 2728 306 2450 153 
Q 2172 0 1784 0 
Q 1141 0 747 490 
Q 353 981 353 1791 
Q 353 2603 747 3093 
Q 1141 3584 1784 3584 
Q 2172 3584 2450 3431 
Q 2728 3278 2906 2969 
L 2906 3500 
L 3481 3500 
L 3481 434 
z
" transform="scale(0.015625)"/>
     <path id="DejaVuSans-76" d="M 191 3500 
L 800 3500 
L 1894 563 
L 2988 3500 
L 3597 3500 
L 2284 0 
L 1503 0 
L 191 3500 
z
" transform="scale(0.015625)"/>
    </defs>
    <use xlink:href="#DejaVuSans-20"/>
    <use xlink:href="#DejaVuSans-67" x="31.787109"/>
    <use xlink:href="#DejaVuSans-69" x="95.263672"/>
    <use xlink:href="#DejaVuSans-76" x="123.046875"/>
    <use xlink:href="#DejaVuSans-65" x="182.226562"/>
    <use xlink:href="#DejaVuSans-6e" x="243.75"/>
    <use xlink:href="#DejaVuSans-20" x="307.128906"/>
    <use xlink:href="#DejaVuSans-70" x="338.916016"/>
    <use xlink:href="#DejaVuSans-72" x="402.392578"/>
    <use xlink:href="#DejaVuSans-6f" x="441.255859"/>
    <use xlink:href="#DejaVuSans-62" x="502.4375"/>
    <use xlink:href="#DejaVuSans-61" x="565.914062"/>
    <use xlink:href="#DejaVuSans-62" x="627.193359"/>
    <use xlink:href="#DejaVuSans-69" x="690.669922"/>
    <use xlink:href="#DejaVuSans-6c" x="718.453125"/>
    <use xlink:href="#DejaVuSans-69" x="746.236328"/>
    <use xlink:href="#DejaVuSans-74" x="774.019531"/>
    <use xlink:href="#DejaVuSans-79" x="813.228516"/>
    <use xlink:href="#DejaVuSans-20" x="872.408203"/>
    <use xlink:href="#DejaVuSans-6f" x="904.195312"/>
    <use xlink:href="#DejaVuSans-66" x="965.376953"/>
    <use xlink:href="#DejaVuSans-20" x="1000.582031"/>
    <use xlink:href="#DejaVuSans-73" x="1032.369141"/>
    <use xlink:href="#DejaVuSans-75" x="1084.46875"/>
    <use xlink:href="#DejaVuSans-63" x="1147.847656"/>
    <use xlink:href="#DejaVuSans-63" x="1202.828125"/>
    <use xlink:href="#DejaVuSans-65" x="1257.808594"/>
    <use xlink:href="#DejaVuSans-73" x="1319.332031"/>
    <use xlink:href="#DejaVuSans-73" x="1371.431641"/>
    <use xlink:href="#DejaVuSans-20" x="1423.53125"/>
    <use xlink:href="#DejaVuSans-3bc" x="1455.318359"/>
   </g>
  </g>
 </g>
 <defs>
  <clipPath id="pe3b23f86e0">
   <rect x="54.02" y="65.616" width="195.73" height="180.424"/>
  </clipPath>
  <clipPath id="p2462e74d73">
   <rect x="297.47" y="65.616" width="195.73" height="180.424"/>
  </clipPath>
 </defs>
</svg>
