<?xml version="1.0" encoding="UTF-8" standalone="no"?>
<!DOCTYPE svg PUBLIC "-//W3C//DTD SVG 1.1//EN" "http://www.w3.org/Graphics/SVG/1.1/DTD/svg11.dtd">
<svg width="100%" height="100%" viewBox="0 0 982 701" version="1.1" xmlns="http://www.w3.org/2000/svg" xmlns:xlink="http://www.w3.org/1999/xlink" xml:space="preserve" xmlns:serif="http://www.serif.com/" style="fill-rule:evenodd;clip-rule:evenodd;stroke-linecap:round;stroke-linejoin:round;stroke-miterlimit:1.5;">
    <g transform="matrix(1,0,0,1,-377.711,-1161.56)">
        <path d="M455.073,1853.7L455.073,1173.29" style="fill:none;stroke:black;stroke-width:16.82px;"/>
        <path d="M386.122,1721.52L1350.96,1721.52" style="fill:none;stroke:black;stroke-width:16.82px;"/>
        <path d="M1350.96,1721.52L1301.36,1671.91" style="fill:none;stroke:black;stroke-width:16.82px;"/>
        <path d="M1350.96,1721.52L1297.3,1775.18" style="fill:none;stroke:black;stroke-width:16.82px;"/>
        <path d="M456.06,1169.97L400.996,1225.03" style="fill:none;stroke:black;stroke-width:16.82px;"/>
        <path d="M456.06,1169.97L511.669,1225.58" style="fill:none;stroke:black;stroke-width:16.82px;"/>
        <path d="M455.484,1307.36L455.484,1460.45" style="fill:none;stroke:rgb(203,46,193);stroke-width:16.82px;"/>
        <g transform="matrix(1,0,0,1,368.569,0)">
            <path d="M455.484,1307.36L455.484,1460.45" style="fill:none;stroke:rgb(203,46,193);stroke-width:16.82px;"/>
        </g>
        <g transform="matrix(1,0,0,1,725.321,0)">
            <path d="M455.484,1307.36L455.484,1460.45" style="fill:none;stroke:rgb(203,46,193);stroke-width:16.82px;"/>
        </g>
        <g transform="matrix(1,0,0,1,0,218.758)">
            <path d="M455.484,1307.36L455.484,1460.45" style="fill:none;stroke:rgb(61,46,203);stroke-width:16.82px;"/>
        </g>
        <g transform="matrix(1,0,0,1,368.569,218.758)">
            <path d="M455.484,1307.36L455.484,1460.45" style="fill:none;stroke:rgb(61,46,203);stroke-width:16.82px;"/>
        </g>
        <g transform="matrix(1,0,0,1,725.321,218.758)">
            <path d="M455.484,1307.36L455.484,1460.45" style="fill:none;stroke:rgb(61,46,203);stroke-width:16.82px;"/>
        </g>
        <path d="M455.484,1307.36L455.484,1460.45" style="fill:none;stroke:rgb(203,46,193);stroke-width:16.82px;"/>
        <g transform="matrix(1,0,0,1,368.569,0)">
            <path d="M455.484,1307.36L455.484,1460.45" style="fill:none;stroke:rgb(203,46,193);stroke-width:16.82px;"/>
        </g>
        <g transform="matrix(1,0,0,1,725.321,0)">
            <path d="M455.484,1307.36L455.484,1460.45" style="fill:none;stroke:rgb(203,46,193);stroke-width:16.82px;"/>
        </g>
        <g transform="matrix(1,0,0,1,168.876,221.426)">
            <path d="M455.484,1307.36L455.484,1460.45" style="fill:none;stroke:rgb(61,46,203);stroke-width:16.82px;"/>
        </g>
        <g transform="matrix(1,0,0,1,537.445,221.426)">
            <path d="M455.484,1307.36L455.484,1460.45" style="fill:none;stroke:rgb(61,46,203);stroke-width:16.82px;"/>
        </g>
        <g transform="matrix(1,0,0,1,894.196,221.426)">
            <path d="M455.484,1307.36L455.484,1460.45" style="fill:none;stroke:rgb(61,46,203);stroke-width:16.82px;"/>
        </g>
        <g transform="matrix(1.53738,0,0,1.53738,-341.087,-760.025)">
            <path d="M571.138,1391.15C570.53,1390.22 569.679,1389.43 568.588,1388.79C567.496,1388.15 566.252,1387.82 564.856,1387.82C563.388,1387.79 562.073,1388.02 560.909,1388.52C559.746,1389.02 558.752,1389.72 557.929,1390.62C557.106,1391.51 556.479,1392.58 556.05,1393.81C555.62,1395.05 555.405,1396.38 555.405,1397.81C555.405,1399.24 555.62,1400.58 556.05,1401.81C556.479,1403.05 557.106,1404.11 557.929,1405.01C558.752,1405.9 559.746,1406.6 560.909,1407.1C562.073,1407.6 563.388,1407.84 564.856,1407.8C566.252,1407.8 567.496,1407.48 568.588,1406.83C569.679,1406.19 570.53,1405.4 571.138,1404.47L574.038,1406.67C572.785,1408.14 571.371,1409.22 569.796,1409.92C568.221,1410.62 566.574,1410.99 564.856,1411.02C562.815,1411.06 560.972,1410.74 559.325,1410.08C557.678,1409.42 556.273,1408.5 555.11,1407.32C553.947,1406.13 553.061,1404.73 552.452,1403.1C551.844,1401.47 551.539,1399.71 551.539,1397.81C551.539,1395.91 551.844,1394.15 552.452,1392.52C553.061,1390.89 553.947,1389.49 555.11,1388.31C556.273,1387.13 557.678,1386.2 559.325,1385.54C560.972,1384.88 562.815,1384.57 564.856,1384.6C566.574,1384.64 568.221,1385.01 569.796,1385.7C571.371,1386.4 572.785,1387.48 574.038,1388.95L571.138,1391.15Z" style="fill:rgb(218,29,32);fill-rule:nonzero;stroke:rgb(255,0,163);stroke-width:0.65px;stroke-linecap:butt;stroke-miterlimit:2;"/>
            <path d="M600.241,1397.81C600.241,1396.42 600.017,1395.11 599.57,1393.89C599.122,1392.67 598.487,1391.62 597.664,1390.72C596.84,1389.83 595.847,1389.12 594.684,1388.6C593.52,1388.08 592.205,1387.82 590.737,1387.82C589.269,1387.82 587.954,1388.08 586.79,1388.6C585.627,1389.12 584.643,1389.83 583.837,1390.72C583.032,1391.62 582.405,1392.67 581.958,1393.89C581.51,1395.11 581.287,1396.42 581.287,1397.81C581.287,1399.21 581.51,1400.51 581.958,1401.73C582.405,1402.95 583.032,1404.01 583.837,1404.9C584.643,1405.79 585.627,1406.5 586.79,1407.02C587.954,1407.54 589.269,1407.8 590.737,1407.8C592.205,1407.8 593.52,1407.54 594.684,1407.02C595.847,1406.5 596.84,1405.79 597.664,1404.9C598.487,1404.01 599.122,1402.95 599.57,1401.73C600.017,1400.51 600.241,1399.21 600.241,1397.81ZM604.107,1397.81C604.107,1399.71 603.776,1401.46 603.114,1403.07C602.452,1404.68 601.53,1406.08 600.349,1407.26C599.167,1408.44 597.762,1409.37 596.133,1410.03C594.505,1410.69 592.706,1411.02 590.737,1411.02C588.804,1411.02 587.023,1410.69 585.394,1410.03C583.766,1409.37 582.361,1408.44 581.179,1407.26C579.998,1406.08 579.076,1404.68 578.414,1403.07C577.752,1401.46 577.421,1399.71 577.421,1397.81C577.421,1395.91 577.752,1394.16 578.414,1392.55C579.076,1390.94 579.998,1389.54 581.179,1388.36C582.361,1387.18 583.766,1386.26 585.394,1385.6C587.023,1384.93 588.804,1384.6 590.737,1384.6C592.706,1384.6 594.505,1384.93 596.133,1385.6C597.762,1386.26 599.167,1387.18 600.349,1388.36C601.53,1389.54 602.452,1390.94 603.114,1392.55C603.776,1394.16 604.107,1395.91 604.107,1397.81Z" style="fill:rgb(218,29,32);fill-rule:nonzero;stroke:rgb(255,0,163);stroke-width:0.65px;stroke-linecap:butt;stroke-miterlimit:2;"/>
            <path d="M624.834,1397.87C623.939,1397.87 622.82,1397.91 621.478,1398C620.135,1398.09 618.847,1398.3 617.612,1398.64C616.377,1398.98 615.321,1399.51 614.444,1400.23C613.567,1400.94 613.128,1401.93 613.128,1403.18C613.128,1404.01 613.298,1404.71 613.638,1405.3C613.978,1405.89 614.435,1406.38 615.007,1406.75C615.58,1407.13 616.216,1407.4 616.914,1407.56C617.612,1407.72 618.319,1407.8 619.035,1407.8C620.323,1407.8 621.442,1407.58 622.391,1407.15C623.339,1406.73 624.136,1406.14 624.78,1405.41C625.424,1404.68 625.899,1403.82 626.203,1402.83C626.507,1401.85 626.659,1400.8 626.659,1399.69L626.659,1397.87L624.834,1397.87ZM626.659,1394.97L626.659,1394.32C626.659,1389.99 624.512,1387.82 620.216,1387.82C617.281,1387.82 614.721,1388.81 612.537,1390.78L610.39,1388.25C612.752,1385.82 616.296,1384.6 621.021,1384.6C622.238,1384.6 623.411,1384.78 624.538,1385.14C625.666,1385.5 626.641,1386.04 627.465,1386.78C628.288,1387.51 628.95,1388.43 629.452,1389.54C629.953,1390.65 630.203,1391.98 630.203,1393.52L630.203,1404.74C630.203,1405.7 630.248,1406.72 630.338,1407.77C630.427,1408.83 630.525,1409.7 630.633,1410.38L627.196,1410.38C627.089,1409.77 627.008,1409.11 626.955,1408.39C626.901,1407.67 626.874,1406.98 626.874,1406.3L626.767,1406.3C625.729,1407.98 624.503,1409.19 623.089,1409.92C621.675,1410.65 619.947,1411.02 617.907,1411.02C616.797,1411.02 615.723,1410.87 614.685,1410.56C613.647,1410.26 612.725,1409.8 611.92,1409.17C611.114,1408.54 610.47,1407.77 609.987,1406.86C609.504,1405.95 609.262,1404.88 609.262,1403.66C609.262,1401.62 609.79,1400.02 610.846,1398.86C611.902,1397.69 613.227,1396.83 614.819,1396.26C616.412,1395.68 618.113,1395.32 619.921,1395.18C621.728,1395.04 623.384,1394.97 624.887,1394.97L626.659,1394.97Z" style="fill:rgb(218,29,32);fill-rule:nonzero;stroke:rgb(255,0,163);stroke-width:0.65px;stroke-linecap:butt;stroke-miterlimit:2;"/>
            <path d="M638.795,1393.09C638.795,1391.98 638.768,1390.85 638.714,1389.7C638.66,1388.56 638.616,1387.07 638.58,1385.25L642.07,1385.25L642.07,1389.92L642.177,1389.92C642.428,1389.24 642.786,1388.59 643.251,1387.96C643.717,1387.33 644.28,1386.77 644.943,1386.27C645.605,1385.77 646.375,1385.36 647.252,1385.06C648.129,1384.76 649.122,1384.6 650.232,1384.6C651.234,1384.6 652.111,1384.71 652.863,1384.92L652.165,1388.41C651.699,1388.24 651.019,1388.15 650.124,1388.15C648.764,1388.15 647.601,1388.41 646.634,1388.92C645.668,1389.44 644.862,1390.11 644.218,1390.91C643.573,1391.72 643.099,1392.59 642.795,1393.52C642.491,1394.45 642.338,1395.34 642.338,1396.2L642.338,1410.38L638.795,1410.38L638.795,1393.09Z" style="fill:rgb(218,29,32);fill-rule:nonzero;stroke:rgb(255,0,163);stroke-width:0.65px;stroke-linecap:butt;stroke-miterlimit:2;"/>
            <path d="M669.562,1391.21C669.025,1390.17 668.309,1389.35 667.414,1388.74C666.519,1388.13 665.428,1387.82 664.139,1387.82C663.53,1387.82 662.913,1387.9 662.286,1388.04C661.66,1388.18 661.096,1388.41 660.595,1388.71C660.094,1389.02 659.691,1389.4 659.387,1389.87C659.083,1390.33 658.93,1390.9 658.93,1391.58C658.93,1392.76 659.342,1393.62 660.165,1394.16C660.989,1394.7 662.224,1395.16 663.87,1395.56L667.468,1396.42C669.222,1396.81 670.681,1397.61 671.844,1398.81C673.008,1400 673.589,1401.5 673.589,1403.29C673.589,1404.65 673.312,1405.82 672.757,1406.81C672.202,1407.79 671.468,1408.6 670.555,1409.22C669.643,1409.85 668.596,1410.31 667.414,1410.59C666.233,1410.88 665.034,1411.02 663.817,1411.02C661.884,1411.02 660.085,1410.65 658.42,1409.92C656.756,1409.19 655.333,1407.92 654.151,1406.13L657.212,1404.04C657.928,1405.19 658.832,1406.1 659.924,1406.78C661.016,1407.46 662.313,1407.8 663.817,1407.8C664.533,1407.8 665.249,1407.72 665.965,1407.56C666.68,1407.4 667.316,1407.15 667.871,1406.81C668.426,1406.47 668.873,1406.03 669.213,1405.49C669.553,1404.95 669.723,1404.33 669.723,1403.61C669.723,1402.36 669.258,1401.45 668.327,1400.9C667.396,1400.34 666.269,1399.91 664.944,1399.58L661.508,1398.78C661.078,1398.67 660.497,1398.49 659.763,1398.24C659.029,1397.99 658.313,1397.62 657.615,1397.11C656.917,1396.61 656.317,1395.96 655.816,1395.15C655.315,1394.35 655.064,1393.36 655.064,1392.17C655.064,1390.88 655.324,1389.76 655.843,1388.79C656.362,1387.82 657.06,1387.04 657.937,1386.43C658.814,1385.82 659.807,1385.36 660.917,1385.06C662.027,1384.76 663.172,1384.6 664.354,1384.6C666.108,1384.6 667.736,1384.94 669.24,1385.62C670.743,1386.3 671.907,1387.47 672.73,1389.11L669.562,1391.21Z" style="fill:rgb(218,29,32);fill-rule:nonzero;stroke:rgb(255,0,163);stroke-width:0.65px;stroke-linecap:butt;stroke-miterlimit:2;"/>
            <path d="M698.665,1395.88C698.665,1393.48 697.949,1391.54 696.517,1390.05C695.085,1388.57 693.081,1387.82 690.503,1387.82C689.358,1387.82 688.248,1388.05 687.174,1388.5C686.1,1388.94 685.161,1389.54 684.355,1390.29C683.55,1391.05 682.905,1391.9 682.422,1392.87C681.939,1393.84 681.697,1394.84 681.697,1395.88L698.665,1395.88ZM681.59,1398.78C681.697,1400.03 682.002,1401.21 682.503,1402.32C683.004,1403.43 683.666,1404.39 684.489,1405.19C685.313,1406 686.261,1406.64 687.335,1407.1C688.409,1407.57 689.573,1407.8 690.826,1407.8C692.723,1407.8 694.361,1407.36 695.739,1406.48C697.117,1405.61 698.164,1404.6 698.88,1403.45L701.618,1405.7C700.115,1407.6 698.459,1408.96 696.652,1409.79C694.844,1410.61 692.902,1411.02 690.826,1411.02C688.964,1411.02 687.237,1410.69 685.644,1410.03C684.051,1409.37 682.682,1408.44 681.536,1407.26C680.391,1406.08 679.487,1404.68 678.825,1403.07C678.162,1401.46 677.831,1399.71 677.831,1397.81C677.831,1395.91 678.153,1394.16 678.798,1392.55C679.442,1390.94 680.337,1389.54 681.483,1388.36C682.628,1387.18 683.97,1386.26 685.51,1385.6C687.049,1384.93 688.714,1384.6 690.503,1384.6C692.401,1384.6 694.101,1384.94 695.604,1385.62C697.108,1386.3 698.37,1387.21 699.39,1388.33C700.41,1389.46 701.189,1390.79 701.726,1392.31C702.263,1393.83 702.531,1395.45 702.531,1397.17L702.531,1398.78L681.59,1398.78Z" style="fill:rgb(218,29,32);fill-rule:nonzero;stroke:rgb(255,0,163);stroke-width:0.65px;stroke-linecap:butt;stroke-miterlimit:2;"/>
            <path d="M709.351,1393.09C709.351,1391.98 709.324,1390.85 709.27,1389.7C709.216,1388.56 709.172,1387.07 709.136,1385.25L712.626,1385.25L712.626,1389.92L712.733,1389.92C712.984,1389.24 713.342,1388.59 713.807,1387.96C714.273,1387.33 714.836,1386.77 715.499,1386.27C716.161,1385.77 716.931,1385.36 717.808,1385.06C718.685,1384.76 719.678,1384.6 720.788,1384.6C721.79,1384.6 722.667,1384.71 723.419,1384.92L722.721,1388.41C722.255,1388.24 721.575,1388.15 720.68,1388.15C719.32,1388.15 718.157,1388.41 717.19,1388.92C716.224,1389.44 715.418,1390.11 714.774,1390.91C714.129,1391.72 713.655,1392.59 713.351,1393.52C713.047,1394.45 712.894,1395.34 712.894,1396.2L712.894,1410.38L709.351,1410.38L709.351,1393.09Z" style="fill:rgb(218,29,32);fill-rule:nonzero;stroke:rgb(255,0,163);stroke-width:0.65px;stroke-linecap:butt;stroke-miterlimit:2;"/>
        </g>
        <g transform="matrix(1,0,0,1,-16.8173,8.79815)">
            <path d="M1083.75,1578.51C1083.75,1579.26 1083.49,1579.88 1082.95,1580.36C1082.41,1580.85 1081.82,1581.09 1081.18,1581.09C1080.53,1581.09 1079.94,1580.85 1079.4,1580.36C1078.87,1579.88 1078.6,1579.26 1078.6,1578.51C1078.6,1577.76 1078.87,1577.14 1079.4,1576.66C1079.94,1576.17 1080.53,1575.93 1081.18,1575.93C1081.82,1575.93 1082.41,1576.17 1082.95,1576.66C1083.49,1577.14 1083.75,1577.76 1083.75,1578.51ZM1082.95,1613.3L1079.4,1613.3L1079.4,1588.17L1082.95,1588.17L1082.95,1613.3ZM1074.36,1591.4L1068.4,1591.4L1068.4,1613.3L1064.85,1613.3L1064.85,1591.4L1059.54,1591.4L1059.54,1588.17L1064.85,1588.17L1064.85,1581.3C1064.85,1577.97 1065.62,1575.6 1067.16,1574.19C1068.7,1572.77 1070.74,1572.07 1073.28,1572.07C1073.79,1572.07 1074.3,1572.1 1074.81,1572.17C1075.33,1572.24 1075.84,1572.33 1076.34,1572.44L1075.7,1575.66C1075.27,1575.56 1074.82,1575.47 1074.36,1575.39C1073.89,1575.32 1073.43,1575.29 1072.96,1575.29C1072,1575.29 1071.21,1575.45 1070.6,1575.77C1069.99,1576.09 1069.53,1576.55 1069.2,1577.14C1068.88,1577.73 1068.67,1578.42 1068.56,1579.21C1068.45,1579.99 1068.4,1580.84 1068.4,1581.73L1068.4,1588.17L1074.36,1588.17L1074.36,1591.4Z" style="fill:rgb(29,37,218);fill-rule:nonzero;stroke:rgb(45,0,255);stroke-width:1px;stroke-linecap:butt;stroke-miterlimit:2;"/>
            <path d="M1094.87,1588.17C1094.94,1588.85 1094.99,1589.53 1095,1590.19C1095.02,1590.85 1095.03,1591.52 1095.03,1592.2L1095.14,1592.2C1095.53,1591.52 1096.03,1590.89 1096.64,1590.32C1097.25,1589.75 1097.93,1589.26 1098.68,1588.85C1099.43,1588.43 1100.23,1588.11 1101.07,1587.88C1101.91,1587.65 1102.75,1587.53 1103.57,1587.53C1106.79,1587.53 1109.17,1588.38 1110.71,1590.08C1112.25,1591.78 1113.02,1594.21 1113.02,1597.36L1113.02,1613.3L1109.48,1613.3L1109.48,1599.4C1109.48,1596.6 1108.99,1594.47 1108.03,1592.98C1107.06,1591.49 1105.27,1590.75 1102.65,1590.75C1102.48,1590.75 1101.98,1590.82 1101.15,1590.97C1100.33,1591.11 1099.46,1591.5 1098.55,1592.15C1097.63,1592.79 1096.82,1593.76 1096.1,1595.05C1095.39,1596.34 1095.03,1598.13 1095.03,1600.42L1095.03,1613.3L1091.49,1613.3L1091.49,1593.7C1091.49,1593.02 1091.46,1592.16 1091.41,1591.13C1091.35,1590.09 1091.29,1589.11 1091.22,1588.17L1094.87,1588.17Z" style="fill:rgb(29,37,218);fill-rule:nonzero;stroke:rgb(45,0,255);stroke-width:1px;stroke-linecap:butt;stroke-miterlimit:2;"/>
            <path d="M1140.89,1598.81C1140.89,1596.41 1140.17,1594.47 1138.74,1592.98C1137.31,1591.49 1135.3,1590.75 1132.73,1590.75C1131.58,1590.75 1130.47,1590.98 1129.4,1591.42C1128.32,1591.87 1127.38,1592.47 1126.58,1593.22C1125.77,1593.97 1125.13,1594.83 1124.64,1595.8C1124.16,1596.77 1123.92,1597.77 1123.92,1598.81L1140.89,1598.81ZM1123.81,1601.7C1123.92,1602.96 1124.22,1604.14 1124.72,1605.25C1125.23,1606.36 1125.89,1607.32 1126.71,1608.12C1127.53,1608.93 1128.48,1609.56 1129.56,1610.03C1130.63,1610.49 1131.79,1610.73 1133.05,1610.73C1134.94,1610.73 1136.58,1610.29 1137.96,1609.41C1139.34,1608.53 1140.38,1607.52 1141.1,1606.38L1143.84,1608.63C1142.34,1610.53 1140.68,1611.89 1138.87,1612.71C1137.07,1613.54 1135.12,1613.95 1133.05,1613.95C1131.18,1613.95 1129.46,1613.62 1127.87,1612.95C1126.27,1612.29 1124.9,1611.37 1123.76,1610.19C1122.61,1609.01 1121.71,1607.61 1121.05,1606C1120.38,1604.39 1120.05,1602.64 1120.05,1600.74C1120.05,1598.84 1120.38,1597.09 1121.02,1595.48C1121.66,1593.87 1122.56,1592.47 1123.7,1591.29C1124.85,1590.11 1126.19,1589.18 1127.73,1588.52C1129.27,1587.86 1130.93,1587.53 1132.73,1587.53C1134.62,1587.53 1136.32,1587.87 1137.83,1588.55C1139.33,1589.23 1140.59,1590.13 1141.61,1591.26C1142.63,1592.39 1143.41,1593.71 1143.95,1595.24C1144.48,1596.76 1144.75,1598.38 1144.75,1600.09L1144.75,1601.7L1123.81,1601.7Z" style="fill:rgb(29,37,218);fill-rule:nonzero;stroke:rgb(45,0,255);stroke-width:1px;stroke-linecap:butt;stroke-miterlimit:2;"/>
            <path d="M1151.57,1596.01C1151.57,1594.9 1151.55,1593.78 1151.49,1592.63C1151.44,1591.49 1151.39,1590 1151.36,1588.17L1154.85,1588.17L1154.85,1592.85L1154.95,1592.85C1155.2,1592.16 1155.56,1591.51 1156.03,1590.89C1156.49,1590.26 1157.06,1589.69 1157.72,1589.19C1158.38,1588.69 1159.15,1588.29 1160.03,1587.99C1160.91,1587.68 1161.9,1587.53 1163.01,1587.53C1164.01,1587.53 1164.89,1587.64 1165.64,1587.85L1164.94,1591.34C1164.48,1591.16 1163.8,1591.07 1162.9,1591.07C1161.54,1591.07 1160.38,1591.33 1159.41,1591.85C1158.44,1592.37 1157.64,1593.03 1157,1593.84C1156.35,1594.64 1155.88,1595.51 1155.57,1596.44C1155.27,1597.37 1155.12,1598.27 1155.12,1599.13L1155.12,1613.3L1151.57,1613.3L1151.57,1596.01Z" style="fill:rgb(29,37,218);fill-rule:nonzero;stroke:rgb(45,0,255);stroke-width:1px;stroke-linecap:butt;stroke-miterlimit:2;"/>
        </g>
    </g>
</svg>
