<?xml version="1.0" encoding="utf-8" standalone="no"?>
<!DOCTYPE svg PUBLIC "-//W3C//DTD SVG 1.1//EN"
  "http://www.w3.org/Graphics/SVG/1.1/DTD/svg11.dtd">
<svg xmlns:xlink="http://www.w3.org/1999/xlink" width="576pt" height="432pt" viewBox="0 0 576 432" xmlns="http://www.w3.org/2000/svg" version="1.1">
 <metadata>
  <rdf:RDF xmlns:dc="http://purl.org/dc/elements/1.1/" xmlns:cc="http://creativecommons.org/ns#" xmlns:rdf="http://www.w3.org/1999/02/22-rdf-syntax-ns#">
   <cc:Work>
    <dc:type rdf:resource="http://purl.org/dc/dcmitype/StillImage"/>
    <dc:date>2024-02-10T18:46:44.119884</dc:date>
    <dc:format>image/svg+xml</dc:format>
    <dc:creator>
     <cc:Agent>
      <dc:title>Matplotlib v3.5.1, https://matplotlib.org/</dc:title>
     </cc:Agent>
    </dc:creator>
   </cc:Work>
  </rdf:RDF>
 </metadata>
 <defs>
  <style type="text/css">*{stroke-linejoin: round; stroke-linecap: butt}</style>
 </defs>
 <g id="figure_1">
  <g id="patch_1">
   <path d="M 0 432 
L 576 432 
L 576 0 
L 0 0 
z
" style="fill: #ffffff"/>
  </g>
  <g id="axes_1">
   <g id="patch_2">
    <path d="M 47.72 198.808 
L 282.6 198.808 
L 282.6 65.616 
L 47.72 65.616 
z
" style="fill: #ffffff"/>
   </g>
   <g id="patch_3">
    <path d="M 58.396364 198.808 
L 87.848401 198.808 
L 87.848401 142.99421 
L 58.396364 142.99421 
z
" clip-path="url(#pacf53c7a83)" style="fill: #1f77b4"/>
   </g>
   <g id="patch_4">
    <path d="M 95.211411 198.808 
L 124.663448 198.808 
L 124.663448 71.958476 
L 95.211411 71.958476 
z
" clip-path="url(#pacf53c7a83)" style="fill: #1f77b4"/>
   </g>
   <g id="patch_5">
    <path d="M 132.026458 198.808 
L 161.478495 198.808 
L 161.478495 114.241651 
L 132.026458 114.241651 
z
" clip-path="url(#pacf53c7a83)" style="fill: #1f77b4"/>
   </g>
   <g id="patch_6">
    <path d="M 168.841505 198.808 
L 198.293542 198.808 
L 198.293542 179.292689 
L 168.841505 179.292689 
z
" clip-path="url(#pacf53c7a83)" style="fill: #1f77b4"/>
   </g>
   <g id="patch_7">
    <path d="M 205.656552 198.808 
L 235.108589 198.808 
L 235.108589 197.414049 
L 205.656552 197.414049 
z
" clip-path="url(#pacf53c7a83)" style="fill: #1f77b4"/>
   </g>
   <g id="patch_8">
    <path d="M 242.471599 198.808 
L 271.923636 198.808 
L 271.923636 198.789414 
L 242.471599 198.789414 
z
" clip-path="url(#pacf53c7a83)" style="fill: #1f77b4"/>
   </g>
   <g id="matplotlib.axis_1">
    <g id="xtick_1">
     <g id="line2d_1">
      <defs>
       <path id="m1674827be2" d="M 0 0 
L 0 3.5 
" style="stroke: #000000; stroke-width: 0.8"/>
      </defs>
      <g>
       <use xlink:href="#m1674827be2" x="73.122382" y="198.808" style="stroke: #000000; stroke-width: 0.8"/>
      </g>
     </g>
     <g id="text_1">
      <!-- 0 -->
      <g transform="translate(69.941132 213.406437)scale(0.1 -0.1)">
       <defs>
        <path id="DejaVuSans-30" d="M 2034 4250 
Q 1547 4250 1301 3770 
Q 1056 3291 1056 2328 
Q 1056 1369 1301 889 
Q 1547 409 2034 409 
Q 2525 409 2770 889 
Q 3016 1369 3016 2328 
Q 3016 3291 2770 3770 
Q 2525 4250 2034 4250 
z
M 2034 4750 
Q 2819 4750 3233 4129 
Q 3647 3509 3647 2328 
Q 3647 1150 3233 529 
Q 2819 -91 2034 -91 
Q 1250 -91 836 529 
Q 422 1150 422 2328 
Q 422 3509 836 4129 
Q 1250 4750 2034 4750 
z
" transform="scale(0.015625)"/>
       </defs>
       <use xlink:href="#DejaVuSans-30"/>
      </g>
     </g>
    </g>
    <g id="xtick_2">
     <g id="line2d_2">
      <g>
       <use xlink:href="#m1674827be2" x="109.937429" y="198.808" style="stroke: #000000; stroke-width: 0.8"/>
      </g>
     </g>
     <g id="text_2">
      <!-- 1 -->
      <g transform="translate(106.756179 213.406437)scale(0.1 -0.1)">
       <defs>
        <path id="DejaVuSans-31" d="M 794 531 
L 1825 531 
L 1825 4091 
L 703 3866 
L 703 4441 
L 1819 4666 
L 2450 4666 
L 2450 531 
L 3481 531 
L 3481 0 
L 794 0 
L 794 531 
z
" transform="scale(0.015625)"/>
       </defs>
       <use xlink:href="#DejaVuSans-31"/>
      </g>
     </g>
    </g>
    <g id="xtick_3">
     <g id="line2d_3">
      <g>
       <use xlink:href="#m1674827be2" x="146.752476" y="198.808" style="stroke: #000000; stroke-width: 0.8"/>
      </g>
     </g>
     <g id="text_3">
      <!-- 2 -->
      <g transform="translate(143.571226 213.406437)scale(0.1 -0.1)">
       <defs>
        <path id="DejaVuSans-32" d="M 1228 531 
L 3431 531 
L 3431 0 
L 469 0 
L 469 531 
Q 828 903 1448 1529 
Q 2069 2156 2228 2338 
Q 2531 2678 2651 2914 
Q 2772 3150 2772 3378 
Q 2772 3750 2511 3984 
Q 2250 4219 1831 4219 
Q 1534 4219 1204 4116 
Q 875 4013 500 3803 
L 500 4441 
Q 881 4594 1212 4672 
Q 1544 4750 1819 4750 
Q 2544 4750 2975 4387 
Q 3406 4025 3406 3419 
Q 3406 3131 3298 2873 
Q 3191 2616 2906 2266 
Q 2828 2175 2409 1742 
Q 1991 1309 1228 531 
z
" transform="scale(0.015625)"/>
       </defs>
       <use xlink:href="#DejaVuSans-32"/>
      </g>
     </g>
    </g>
    <g id="xtick_4">
     <g id="line2d_4">
      <g>
       <use xlink:href="#m1674827be2" x="183.567524" y="198.808" style="stroke: #000000; stroke-width: 0.8"/>
      </g>
     </g>
     <g id="text_4">
      <!-- 3 -->
      <g transform="translate(180.386274 213.406437)scale(0.1 -0.1)">
       <defs>
        <path id="DejaVuSans-33" d="M 2597 2516 
Q 3050 2419 3304 2112 
Q 3559 1806 3559 1356 
Q 3559 666 3084 287 
Q 2609 -91 1734 -91 
Q 1441 -91 1130 -33 
Q 819 25 488 141 
L 488 750 
Q 750 597 1062 519 
Q 1375 441 1716 441 
Q 2309 441 2620 675 
Q 2931 909 2931 1356 
Q 2931 1769 2642 2001 
Q 2353 2234 1838 2234 
L 1294 2234 
L 1294 2753 
L 1863 2753 
Q 2328 2753 2575 2939 
Q 2822 3125 2822 3475 
Q 2822 3834 2567 4026 
Q 2313 4219 1838 4219 
Q 1578 4219 1281 4162 
Q 984 4106 628 3988 
L 628 4550 
Q 988 4650 1302 4700 
Q 1616 4750 1894 4750 
Q 2613 4750 3031 4423 
Q 3450 4097 3450 3541 
Q 3450 3153 3228 2886 
Q 3006 2619 2597 2516 
z
" transform="scale(0.015625)"/>
       </defs>
       <use xlink:href="#DejaVuSans-33"/>
      </g>
     </g>
    </g>
    <g id="xtick_5">
     <g id="line2d_5">
      <g>
       <use xlink:href="#m1674827be2" x="220.382571" y="198.808" style="stroke: #000000; stroke-width: 0.8"/>
      </g>
     </g>
     <g id="text_5">
      <!-- 4 -->
      <g transform="translate(217.201321 213.406437)scale(0.1 -0.1)">
       <defs>
        <path id="DejaVuSans-34" d="M 2419 4116 
L 825 1625 
L 2419 1625 
L 2419 4116 
z
M 2253 4666 
L 3047 4666 
L 3047 1625 
L 3713 1625 
L 3713 1100 
L 3047 1100 
L 3047 0 
L 2419 0 
L 2419 1100 
L 313 1100 
L 313 1709 
L 2253 4666 
z
" transform="scale(0.015625)"/>
       </defs>
       <use xlink:href="#DejaVuSans-34"/>
      </g>
     </g>
    </g>
    <g id="xtick_6">
     <g id="line2d_6">
      <g>
       <use xlink:href="#m1674827be2" x="257.197618" y="198.808" style="stroke: #000000; stroke-width: 0.8"/>
      </g>
     </g>
     <g id="text_6">
      <!-- 5 -->
      <g transform="translate(254.016368 213.406437)scale(0.1 -0.1)">
       <defs>
        <path id="DejaVuSans-35" d="M 691 4666 
L 3169 4666 
L 3169 4134 
L 1269 4134 
L 1269 2991 
Q 1406 3038 1543 3061 
Q 1681 3084 1819 3084 
Q 2600 3084 3056 2656 
Q 3513 2228 3513 1497 
Q 3513 744 3044 326 
Q 2575 -91 1722 -91 
Q 1428 -91 1123 -41 
Q 819 9 494 109 
L 494 744 
Q 775 591 1075 516 
Q 1375 441 1709 441 
Q 2250 441 2565 725 
Q 2881 1009 2881 1497 
Q 2881 1984 2565 2268 
Q 2250 2553 1709 2553 
Q 1456 2553 1204 2497 
Q 953 2441 691 2322 
L 691 4666 
z
" transform="scale(0.015625)"/>
       </defs>
       <use xlink:href="#DejaVuSans-35"/>
      </g>
     </g>
    </g>
    <g id="text_7">
     <!-- k -->
     <g transform="translate(162.264687 227.084562)scale(0.1 -0.1)">
      <defs>
       <path id="DejaVuSans-6b" d="M 581 4863 
L 1159 4863 
L 1159 1991 
L 2875 3500 
L 3609 3500 
L 1753 1863 
L 3688 0 
L 2938 0 
L 1159 1709 
L 1159 0 
L 581 0 
L 581 4863 
z
" transform="scale(0.015625)"/>
      </defs>
      <use xlink:href="#DejaVuSans-6b"/>
     </g>
    </g>
   </g>
   <g id="matplotlib.axis_2">
    <g id="ytick_1">
     <g id="line2d_7">
      <defs>
       <path id="mf357e3df4a" d="M 0 0 
L -3.5 0 
" style="stroke: #000000; stroke-width: 0.8"/>
      </defs>
      <g>
       <use xlink:href="#mf357e3df4a" x="47.72" y="198.808" style="stroke: #000000; stroke-width: 0.8"/>
      </g>
     </g>
     <g id="text_8">
      <!-- 0.0 -->
      <g transform="translate(24.816875 202.607219)scale(0.1 -0.1)">
       <defs>
        <path id="DejaVuSans-2e" d="M 684 794 
L 1344 794 
L 1344 0 
L 684 0 
L 684 794 
z
" transform="scale(0.015625)"/>
       </defs>
       <use xlink:href="#DejaVuSans-30"/>
       <use xlink:href="#DejaVuSans-2e" x="63.623047"/>
       <use xlink:href="#DejaVuSans-30" x="95.410156"/>
      </g>
     </g>
    </g>
    <g id="ytick_2">
     <g id="line2d_8">
      <g>
       <use xlink:href="#mf357e3df4a" x="47.72" y="169.992249" style="stroke: #000000; stroke-width: 0.8"/>
      </g>
     </g>
     <g id="text_9">
      <!-- 0.1 -->
      <g transform="translate(24.816875 173.791468)scale(0.1 -0.1)">
       <use xlink:href="#DejaVuSans-30"/>
       <use xlink:href="#DejaVuSans-2e" x="63.623047"/>
       <use xlink:href="#DejaVuSans-31" x="95.410156"/>
      </g>
     </g>
    </g>
    <g id="ytick_3">
     <g id="line2d_9">
      <g>
       <use xlink:href="#mf357e3df4a" x="47.72" y="141.176498" style="stroke: #000000; stroke-width: 0.8"/>
      </g>
     </g>
     <g id="text_10">
      <!-- 0.2 -->
      <g transform="translate(24.816875 144.975716)scale(0.1 -0.1)">
       <use xlink:href="#DejaVuSans-30"/>
       <use xlink:href="#DejaVuSans-2e" x="63.623047"/>
       <use xlink:href="#DejaVuSans-32" x="95.410156"/>
      </g>
     </g>
    </g>
    <g id="ytick_4">
     <g id="line2d_10">
      <g>
       <use xlink:href="#mf357e3df4a" x="47.72" y="112.360746" style="stroke: #000000; stroke-width: 0.8"/>
      </g>
     </g>
     <g id="text_11">
      <!-- 0.3 -->
      <g transform="translate(24.816875 116.159965)scale(0.1 -0.1)">
       <use xlink:href="#DejaVuSans-30"/>
       <use xlink:href="#DejaVuSans-2e" x="63.623047"/>
       <use xlink:href="#DejaVuSans-33" x="95.410156"/>
      </g>
     </g>
    </g>
    <g id="ytick_5">
     <g id="line2d_11">
      <g>
       <use xlink:href="#mf357e3df4a" x="47.72" y="83.544995" style="stroke: #000000; stroke-width: 0.8"/>
      </g>
     </g>
     <g id="text_12">
      <!-- 0.4 -->
      <g transform="translate(24.816875 87.344214)scale(0.1 -0.1)">
       <use xlink:href="#DejaVuSans-30"/>
       <use xlink:href="#DejaVuSans-2e" x="63.623047"/>
       <use xlink:href="#DejaVuSans-34" x="95.410156"/>
      </g>
     </g>
    </g>
    <g id="text_13">
     <!-- P(X=k) -->
     <g transform="translate(18.737187 149.638562)rotate(-90)scale(0.1 -0.1)">
      <defs>
       <path id="DejaVuSans-50" d="M 1259 4147 
L 1259 2394 
L 2053 2394 
Q 2494 2394 2734 2622 
Q 2975 2850 2975 3272 
Q 2975 3691 2734 3919 
Q 2494 4147 2053 4147 
L 1259 4147 
z
M 628 4666 
L 2053 4666 
Q 2838 4666 3239 4311 
Q 3641 3956 3641 3272 
Q 3641 2581 3239 2228 
Q 2838 1875 2053 1875 
L 1259 1875 
L 1259 0 
L 628 0 
L 628 4666 
z
" transform="scale(0.015625)"/>
       <path id="DejaVuSans-28" d="M 1984 4856 
Q 1566 4138 1362 3434 
Q 1159 2731 1159 2009 
Q 1159 1288 1364 580 
Q 1569 -128 1984 -844 
L 1484 -844 
Q 1016 -109 783 600 
Q 550 1309 550 2009 
Q 550 2706 781 3412 
Q 1013 4119 1484 4856 
L 1984 4856 
z
" transform="scale(0.015625)"/>
       <path id="DejaVuSans-58" d="M 403 4666 
L 1081 4666 
L 2241 2931 
L 3406 4666 
L 4084 4666 
L 2584 2425 
L 4184 0 
L 3506 0 
L 2194 1984 
L 872 0 
L 191 0 
L 1856 2491 
L 403 4666 
z
" transform="scale(0.015625)"/>
       <path id="DejaVuSans-3d" d="M 678 2906 
L 4684 2906 
L 4684 2381 
L 678 2381 
L 678 2906 
z
M 678 1631 
L 4684 1631 
L 4684 1100 
L 678 1100 
L 678 1631 
z
" transform="scale(0.015625)"/>
       <path id="DejaVuSans-29" d="M 513 4856 
L 1013 4856 
Q 1481 4119 1714 3412 
Q 1947 2706 1947 2009 
Q 1947 1309 1714 600 
Q 1481 -109 1013 -844 
L 513 -844 
Q 928 -128 1133 580 
Q 1338 1288 1338 2009 
Q 1338 2731 1133 3434 
Q 928 4138 513 4856 
z
" transform="scale(0.015625)"/>
      </defs>
      <use xlink:href="#DejaVuSans-50"/>
      <use xlink:href="#DejaVuSans-28" x="60.302734"/>
      <use xlink:href="#DejaVuSans-58" x="99.316406"/>
      <use xlink:href="#DejaVuSans-3d" x="167.822266"/>
      <use xlink:href="#DejaVuSans-6b" x="251.611328"/>
      <use xlink:href="#DejaVuSans-29" x="309.521484"/>
     </g>
    </g>
   </g>
   <g id="patch_9">
    <path d="M 47.72 198.808 
L 47.72 65.616 
" style="fill: none; stroke: #000000; stroke-width: 0.8; stroke-linejoin: miter; stroke-linecap: square"/>
   </g>
   <g id="patch_10">
    <path d="M 282.6 198.808 
L 282.6 65.616 
" style="fill: none; stroke: #000000; stroke-width: 0.8; stroke-linejoin: miter; stroke-linecap: square"/>
   </g>
   <g id="patch_11">
    <path d="M 47.72 198.808 
L 282.6 198.808 
" style="fill: none; stroke: #000000; stroke-width: 0.8; stroke-linejoin: miter; stroke-linecap: square"/>
   </g>
   <g id="patch_12">
    <path d="M 47.72 65.616 
L 282.6 65.616 
" style="fill: none; stroke: #000000; stroke-width: 0.8; stroke-linejoin: miter; stroke-linecap: square"/>
   </g>
   <g id="text_14">
    <!-- n=5, r=5 -->
    <g transform="translate(137.386562 59.616)scale(0.12 -0.12)">
     <defs>
      <path id="DejaVuSans-6e" d="M 3513 2113 
L 3513 0 
L 2938 0 
L 2938 2094 
Q 2938 2591 2744 2837 
Q 2550 3084 2163 3084 
Q 1697 3084 1428 2787 
Q 1159 2491 1159 1978 
L 1159 0 
L 581 0 
L 581 3500 
L 1159 3500 
L 1159 2956 
Q 1366 3272 1645 3428 
Q 1925 3584 2291 3584 
Q 2894 3584 3203 3211 
Q 3513 2838 3513 2113 
z
" transform="scale(0.015625)"/>
      <path id="DejaVuSans-2c" d="M 750 794 
L 1409 794 
L 1409 256 
L 897 -744 
L 494 -744 
L 750 256 
L 750 794 
z
" transform="scale(0.015625)"/>
      <path id="DejaVuSans-20" transform="scale(0.015625)"/>
      <path id="DejaVuSans-72" d="M 2631 2963 
Q 2534 3019 2420 3045 
Q 2306 3072 2169 3072 
Q 1681 3072 1420 2755 
Q 1159 2438 1159 1844 
L 1159 0 
L 581 0 
L 581 3500 
L 1159 3500 
L 1159 2956 
Q 1341 3275 1631 3429 
Q 1922 3584 2338 3584 
Q 2397 3584 2469 3576 
Q 2541 3569 2628 3553 
L 2631 2963 
z
" transform="scale(0.015625)"/>
     </defs>
     <use xlink:href="#DejaVuSans-6e"/>
     <use xlink:href="#DejaVuSans-3d" x="63.378906"/>
     <use xlink:href="#DejaVuSans-35" x="147.167969"/>
     <use xlink:href="#DejaVuSans-2c" x="210.791016"/>
     <use xlink:href="#DejaVuSans-20" x="242.578125"/>
     <use xlink:href="#DejaVuSans-72" x="274.365234"/>
     <use xlink:href="#DejaVuSans-3d" x="315.478516"/>
     <use xlink:href="#DejaVuSans-35" x="399.267578"/>
    </g>
   </g>
  </g>
  <g id="axes_2">
   <g id="patch_13">
    <path d="M 330.32 198.808 
L 565.2 198.808 
L 565.2 65.616 
L 330.32 65.616 
z
" style="fill: #ffffff"/>
   </g>
   <g id="patch_14">
    <path d="M 340.996364 198.808 
L 370.448401 198.808 
L 370.448401 192.888356 
L 340.996364 192.888356 
z
" clip-path="url(#pf59440da1e)" style="fill: #1f77b4"/>
   </g>
   <g id="patch_15">
    <path d="M 377.811411 198.808 
L 407.263448 198.808 
L 407.263448 149.47763 
L 377.811411 149.47763 
z
" clip-path="url(#pf59440da1e)" style="fill: #1f77b4"/>
   </g>
   <g id="patch_16">
    <path d="M 414.626458 198.808 
L 444.078495 198.808 
L 444.078495 71.958476 
L 414.626458 71.958476 
z
" clip-path="url(#pf59440da1e)" style="fill: #1f77b4"/>
   </g>
   <g id="patch_17">
    <path d="M 451.441505 198.808 
L 480.893542 198.808 
L 480.893542 71.958476 
L 451.441505 71.958476 
z
" clip-path="url(#pf59440da1e)" style="fill: #1f77b4"/>
   </g>
   <g id="patch_18">
    <path d="M 488.256552 198.808 
L 517.708589 198.808 
L 517.708589 149.47763 
L 488.256552 149.47763 
z
" clip-path="url(#pf59440da1e)" style="fill: #1f77b4"/>
   </g>
   <g id="patch_19">
    <path d="M 525.071599 198.808 
L 554.523636 198.808 
L 554.523636 192.888356 
L 525.071599 192.888356 
z
" clip-path="url(#pf59440da1e)" style="fill: #1f77b4"/>
   </g>
   <g id="matplotlib.axis_3">
    <g id="xtick_7">
     <g id="line2d_12">
      <g>
       <use xlink:href="#m1674827be2" x="355.722382" y="198.808" style="stroke: #000000; stroke-width: 0.8"/>
      </g>
     </g>
     <g id="text_15">
      <!-- 0 -->
      <g transform="translate(352.541132 213.406437)scale(0.1 -0.1)">
       <use xlink:href="#DejaVuSans-30"/>
      </g>
     </g>
    </g>
    <g id="xtick_8">
     <g id="line2d_13">
      <g>
       <use xlink:href="#m1674827be2" x="392.537429" y="198.808" style="stroke: #000000; stroke-width: 0.8"/>
      </g>
     </g>
     <g id="text_16">
      <!-- 1 -->
      <g transform="translate(389.356179 213.406437)scale(0.1 -0.1)">
       <use xlink:href="#DejaVuSans-31"/>
      </g>
     </g>
    </g>
    <g id="xtick_9">
     <g id="line2d_14">
      <g>
       <use xlink:href="#m1674827be2" x="429.352476" y="198.808" style="stroke: #000000; stroke-width: 0.8"/>
      </g>
     </g>
     <g id="text_17">
      <!-- 2 -->
      <g transform="translate(426.171226 213.406437)scale(0.1 -0.1)">
       <use xlink:href="#DejaVuSans-32"/>
      </g>
     </g>
    </g>
    <g id="xtick_10">
     <g id="line2d_15">
      <g>
       <use xlink:href="#m1674827be2" x="466.167524" y="198.808" style="stroke: #000000; stroke-width: 0.8"/>
      </g>
     </g>
     <g id="text_18">
      <!-- 3 -->
      <g transform="translate(462.986274 213.406437)scale(0.1 -0.1)">
       <use xlink:href="#DejaVuSans-33"/>
      </g>
     </g>
    </g>
    <g id="xtick_11">
     <g id="line2d_16">
      <g>
       <use xlink:href="#m1674827be2" x="502.982571" y="198.808" style="stroke: #000000; stroke-width: 0.8"/>
      </g>
     </g>
     <g id="text_19">
      <!-- 4 -->
      <g transform="translate(499.801321 213.406437)scale(0.1 -0.1)">
       <use xlink:href="#DejaVuSans-34"/>
      </g>
     </g>
    </g>
    <g id="xtick_12">
     <g id="line2d_17">
      <g>
       <use xlink:href="#m1674827be2" x="539.797618" y="198.808" style="stroke: #000000; stroke-width: 0.8"/>
      </g>
     </g>
     <g id="text_20">
      <!-- 5 -->
      <g transform="translate(536.616368 213.406437)scale(0.1 -0.1)">
       <use xlink:href="#DejaVuSans-35"/>
      </g>
     </g>
    </g>
    <g id="text_21">
     <!-- k -->
     <g transform="translate(444.864688 227.084562)scale(0.1 -0.1)">
      <use xlink:href="#DejaVuSans-6b"/>
     </g>
    </g>
   </g>
   <g id="matplotlib.axis_4">
    <g id="ytick_6">
     <g id="line2d_18">
      <g>
       <use xlink:href="#mf357e3df4a" x="330.32" y="198.808" style="stroke: #000000; stroke-width: 0.8"/>
      </g>
     </g>
     <g id="text_22">
      <!-- 0.0 -->
      <g transform="translate(307.416875 202.607219)scale(0.1 -0.1)">
       <use xlink:href="#DejaVuSans-30"/>
       <use xlink:href="#DejaVuSans-2e" x="63.623047"/>
       <use xlink:href="#DejaVuSans-30" x="95.410156"/>
      </g>
     </g>
    </g>
    <g id="ytick_7">
     <g id="line2d_19">
      <g>
       <use xlink:href="#mf357e3df4a" x="330.32" y="162.388092" style="stroke: #000000; stroke-width: 0.8"/>
      </g>
     </g>
     <g id="text_23">
      <!-- 0.1 -->
      <g transform="translate(307.416875 166.187311)scale(0.1 -0.1)">
       <use xlink:href="#DejaVuSans-30"/>
       <use xlink:href="#DejaVuSans-2e" x="63.623047"/>
       <use xlink:href="#DejaVuSans-31" x="95.410156"/>
      </g>
     </g>
    </g>
    <g id="ytick_8">
     <g id="line2d_20">
      <g>
       <use xlink:href="#mf357e3df4a" x="330.32" y="125.968185" style="stroke: #000000; stroke-width: 0.8"/>
      </g>
     </g>
     <g id="text_24">
      <!-- 0.2 -->
      <g transform="translate(307.416875 129.767403)scale(0.1 -0.1)">
       <use xlink:href="#DejaVuSans-30"/>
       <use xlink:href="#DejaVuSans-2e" x="63.623047"/>
       <use xlink:href="#DejaVuSans-32" x="95.410156"/>
      </g>
     </g>
    </g>
    <g id="ytick_9">
     <g id="line2d_21">
      <g>
       <use xlink:href="#mf357e3df4a" x="330.32" y="89.548277" style="stroke: #000000; stroke-width: 0.8"/>
      </g>
     </g>
     <g id="text_25">
      <!-- 0.3 -->
      <g transform="translate(307.416875 93.347496)scale(0.1 -0.1)">
       <use xlink:href="#DejaVuSans-30"/>
       <use xlink:href="#DejaVuSans-2e" x="63.623047"/>
       <use xlink:href="#DejaVuSans-33" x="95.410156"/>
      </g>
     </g>
    </g>
    <g id="text_26">
     <!-- P(X=k) -->
     <g transform="translate(301.337188 149.638562)rotate(-90)scale(0.1 -0.1)">
      <use xlink:href="#DejaVuSans-50"/>
      <use xlink:href="#DejaVuSans-28" x="60.302734"/>
      <use xlink:href="#DejaVuSans-58" x="99.316406"/>
      <use xlink:href="#DejaVuSans-3d" x="167.822266"/>
      <use xlink:href="#DejaVuSans-6b" x="251.611328"/>
      <use xlink:href="#DejaVuSans-29" x="309.521484"/>
     </g>
    </g>
   </g>
   <g id="patch_20">
    <path d="M 330.32 198.808 
L 330.32 65.616 
" style="fill: none; stroke: #000000; stroke-width: 0.8; stroke-linejoin: miter; stroke-linecap: square"/>
   </g>
   <g id="patch_21">
    <path d="M 565.2 198.808 
L 565.2 65.616 
" style="fill: none; stroke: #000000; stroke-width: 0.8; stroke-linejoin: miter; stroke-linecap: square"/>
   </g>
   <g id="patch_22">
    <path d="M 330.32 198.808 
L 565.2 198.808 
" style="fill: none; stroke: #000000; stroke-width: 0.8; stroke-linejoin: miter; stroke-linecap: square"/>
   </g>
   <g id="patch_23">
    <path d="M 330.32 65.616 
L 565.2 65.616 
" style="fill: none; stroke: #000000; stroke-width: 0.8; stroke-linejoin: miter; stroke-linecap: square"/>
   </g>
   <g id="text_27">
    <!-- n=5, r=10 -->
    <g transform="translate(416.169062 59.616)scale(0.12 -0.12)">
     <use xlink:href="#DejaVuSans-6e"/>
     <use xlink:href="#DejaVuSans-3d" x="63.378906"/>
     <use xlink:href="#DejaVuSans-35" x="147.167969"/>
     <use xlink:href="#DejaVuSans-2c" x="210.791016"/>
     <use xlink:href="#DejaVuSans-20" x="242.578125"/>
     <use xlink:href="#DejaVuSans-72" x="274.365234"/>
     <use xlink:href="#DejaVuSans-3d" x="315.478516"/>
     <use xlink:href="#DejaVuSans-31" x="399.267578"/>
     <use xlink:href="#DejaVuSans-30" x="462.890625"/>
    </g>
   </g>
  </g>
  <g id="axes_3">
   <g id="patch_24">
    <path d="M 47.72 390.04 
L 282.6 390.04 
L 282.6 256.848 
L 47.72 256.848 
z
" style="fill: #ffffff"/>
   </g>
   <g id="patch_25">
    <path d="M 58.396364 390.04 
L 87.848401 390.04 
L 87.848401 384.120356 
L 58.396364 384.120356 
z
" clip-path="url(#pff4869fe97)" style="fill: #1f77b4"/>
   </g>
   <g id="patch_26">
    <path d="M 95.211411 390.04 
L 124.663448 390.04 
L 124.663448 340.70963 
L 95.211411 340.70963 
z
" clip-path="url(#pff4869fe97)" style="fill: #1f77b4"/>
   </g>
   <g id="patch_27">
    <path d="M 132.026458 390.04 
L 161.478495 390.04 
L 161.478495 263.190476 
L 132.026458 263.190476 
z
" clip-path="url(#pff4869fe97)" style="fill: #1f77b4"/>
   </g>
   <g id="patch_28">
    <path d="M 168.841505 390.04 
L 198.293542 390.04 
L 198.293542 263.190476 
L 168.841505 263.190476 
z
" clip-path="url(#pff4869fe97)" style="fill: #1f77b4"/>
   </g>
   <g id="patch_29">
    <path d="M 205.656552 390.04 
L 235.108589 390.04 
L 235.108589 340.70963 
L 205.656552 340.70963 
z
" clip-path="url(#pff4869fe97)" style="fill: #1f77b4"/>
   </g>
   <g id="patch_30">
    <path d="M 242.471599 390.04 
L 271.923636 390.04 
L 271.923636 384.120356 
L 242.471599 384.120356 
z
" clip-path="url(#pff4869fe97)" style="fill: #1f77b4"/>
   </g>
   <g id="matplotlib.axis_5">
    <g id="xtick_13">
     <g id="line2d_22">
      <g>
       <use xlink:href="#m1674827be2" x="73.122382" y="390.04" style="stroke: #000000; stroke-width: 0.8"/>
      </g>
     </g>
     <g id="text_28">
      <!-- 0 -->
      <g transform="translate(69.941132 404.638438)scale(0.1 -0.1)">
       <use xlink:href="#DejaVuSans-30"/>
      </g>
     </g>
    </g>
    <g id="xtick_14">
     <g id="line2d_23">
      <g>
       <use xlink:href="#m1674827be2" x="109.937429" y="390.04" style="stroke: #000000; stroke-width: 0.8"/>
      </g>
     </g>
     <g id="text_29">
      <!-- 1 -->
      <g transform="translate(106.756179 404.638438)scale(0.1 -0.1)">
       <use xlink:href="#DejaVuSans-31"/>
      </g>
     </g>
    </g>
    <g id="xtick_15">
     <g id="line2d_24">
      <g>
       <use xlink:href="#m1674827be2" x="146.752476" y="390.04" style="stroke: #000000; stroke-width: 0.8"/>
      </g>
     </g>
     <g id="text_30">
      <!-- 2 -->
      <g transform="translate(143.571226 404.638438)scale(0.1 -0.1)">
       <use xlink:href="#DejaVuSans-32"/>
      </g>
     </g>
    </g>
    <g id="xtick_16">
     <g id="line2d_25">
      <g>
       <use xlink:href="#m1674827be2" x="183.567524" y="390.04" style="stroke: #000000; stroke-width: 0.8"/>
      </g>
     </g>
     <g id="text_31">
      <!-- 3 -->
      <g transform="translate(180.386274 404.638438)scale(0.1 -0.1)">
       <use xlink:href="#DejaVuSans-33"/>
      </g>
     </g>
    </g>
    <g id="xtick_17">
     <g id="line2d_26">
      <g>
       <use xlink:href="#m1674827be2" x="220.382571" y="390.04" style="stroke: #000000; stroke-width: 0.8"/>
      </g>
     </g>
     <g id="text_32">
      <!-- 4 -->
      <g transform="translate(217.201321 404.638438)scale(0.1 -0.1)">
       <use xlink:href="#DejaVuSans-34"/>
      </g>
     </g>
    </g>
    <g id="xtick_18">
     <g id="line2d_27">
      <g>
       <use xlink:href="#m1674827be2" x="257.197618" y="390.04" style="stroke: #000000; stroke-width: 0.8"/>
      </g>
     </g>
     <g id="text_33">
      <!-- 5 -->
      <g transform="translate(254.016368 404.638438)scale(0.1 -0.1)">
       <use xlink:href="#DejaVuSans-35"/>
      </g>
     </g>
    </g>
    <g id="text_34">
     <!-- k -->
     <g transform="translate(162.264687 418.316563)scale(0.1 -0.1)">
      <use xlink:href="#DejaVuSans-6b"/>
     </g>
    </g>
   </g>
   <g id="matplotlib.axis_6">
    <g id="ytick_10">
     <g id="line2d_28">
      <g>
       <use xlink:href="#mf357e3df4a" x="47.72" y="390.04" style="stroke: #000000; stroke-width: 0.8"/>
      </g>
     </g>
     <g id="text_35">
      <!-- 0.0 -->
      <g transform="translate(24.816875 393.839219)scale(0.1 -0.1)">
       <use xlink:href="#DejaVuSans-30"/>
       <use xlink:href="#DejaVuSans-2e" x="63.623047"/>
       <use xlink:href="#DejaVuSans-30" x="95.410156"/>
      </g>
     </g>
    </g>
    <g id="ytick_11">
     <g id="line2d_29">
      <g>
       <use xlink:href="#mf357e3df4a" x="47.72" y="353.620092" style="stroke: #000000; stroke-width: 0.8"/>
      </g>
     </g>
     <g id="text_36">
      <!-- 0.1 -->
      <g transform="translate(24.816875 357.419311)scale(0.1 -0.1)">
       <use xlink:href="#DejaVuSans-30"/>
       <use xlink:href="#DejaVuSans-2e" x="63.623047"/>
       <use xlink:href="#DejaVuSans-31" x="95.410156"/>
      </g>
     </g>
    </g>
    <g id="ytick_12">
     <g id="line2d_30">
      <g>
       <use xlink:href="#mf357e3df4a" x="47.72" y="317.200185" style="stroke: #000000; stroke-width: 0.8"/>
      </g>
     </g>
     <g id="text_37">
      <!-- 0.2 -->
      <g transform="translate(24.816875 320.999403)scale(0.1 -0.1)">
       <use xlink:href="#DejaVuSans-30"/>
       <use xlink:href="#DejaVuSans-2e" x="63.623047"/>
       <use xlink:href="#DejaVuSans-32" x="95.410156"/>
      </g>
     </g>
    </g>
    <g id="ytick_13">
     <g id="line2d_31">
      <g>
       <use xlink:href="#mf357e3df4a" x="47.72" y="280.780277" style="stroke: #000000; stroke-width: 0.8"/>
      </g>
     </g>
     <g id="text_38">
      <!-- 0.3 -->
      <g transform="translate(24.816875 284.579496)scale(0.1 -0.1)">
       <use xlink:href="#DejaVuSans-30"/>
       <use xlink:href="#DejaVuSans-2e" x="63.623047"/>
       <use xlink:href="#DejaVuSans-33" x="95.410156"/>
      </g>
     </g>
    </g>
    <g id="text_39">
     <!-- P(X=k) -->
     <g transform="translate(18.737187 340.870563)rotate(-90)scale(0.1 -0.1)">
      <use xlink:href="#DejaVuSans-50"/>
      <use xlink:href="#DejaVuSans-28" x="60.302734"/>
      <use xlink:href="#DejaVuSans-58" x="99.316406"/>
      <use xlink:href="#DejaVuSans-3d" x="167.822266"/>
      <use xlink:href="#DejaVuSans-6b" x="251.611328"/>
      <use xlink:href="#DejaVuSans-29" x="309.521484"/>
     </g>
    </g>
   </g>
   <g id="patch_31">
    <path d="M 47.72 390.04 
L 47.72 256.848 
" style="fill: none; stroke: #000000; stroke-width: 0.8; stroke-linejoin: miter; stroke-linecap: square"/>
   </g>
   <g id="patch_32">
    <path d="M 282.6 390.04 
L 282.6 256.848 
" style="fill: none; stroke: #000000; stroke-width: 0.8; stroke-linejoin: miter; stroke-linecap: square"/>
   </g>
   <g id="patch_33">
    <path d="M 47.72 390.04 
L 282.6 390.04 
" style="fill: none; stroke: #000000; stroke-width: 0.8; stroke-linejoin: miter; stroke-linecap: square"/>
   </g>
   <g id="patch_34">
    <path d="M 47.72 256.848 
L 282.6 256.848 
" style="fill: none; stroke: #000000; stroke-width: 0.8; stroke-linejoin: miter; stroke-linecap: square"/>
   </g>
   <g id="text_40">
    <!-- n=10, r=5 -->
    <g transform="translate(133.569062 250.848)scale(0.12 -0.12)">
     <use xlink:href="#DejaVuSans-6e"/>
     <use xlink:href="#DejaVuSans-3d" x="63.378906"/>
     <use xlink:href="#DejaVuSans-31" x="147.167969"/>
     <use xlink:href="#DejaVuSans-30" x="210.791016"/>
     <use xlink:href="#DejaVuSans-2c" x="274.414062"/>
     <use xlink:href="#DejaVuSans-20" x="306.201172"/>
     <use xlink:href="#DejaVuSans-72" x="337.988281"/>
     <use xlink:href="#DejaVuSans-3d" x="379.101562"/>
     <use xlink:href="#DejaVuSans-35" x="462.890625"/>
    </g>
   </g>
  </g>
  <g id="axes_4">
   <g id="patch_35">
    <path d="M 330.32 390.04 
L 565.2 390.04 
L 565.2 256.848 
L 330.32 256.848 
z
" style="fill: #ffffff"/>
   </g>
   <g id="patch_36">
    <path d="M 340.996364 390.04 
L 356.813199 390.04 
L 356.813199 390.038002 
L 340.996364 390.038002 
z
" clip-path="url(#p3c4ef01a64)" style="fill: #1f77b4"/>
   </g>
   <g id="patch_37">
    <path d="M 360.767407 390.04 
L 376.584242 390.04 
L 376.584242 389.84025 
L 360.767407 389.84025 
z
" clip-path="url(#p3c4ef01a64)" style="fill: #1f77b4"/>
   </g>
   <g id="patch_38">
    <path d="M 380.538451 390.04 
L 396.355286 390.04 
L 396.355286 385.995053 
L 380.538451 385.995053 
z
" clip-path="url(#p3c4ef01a64)" style="fill: #1f77b4"/>
   </g>
   <g id="patch_39">
    <path d="M 400.309495 390.04 
L 416.12633 390.04 
L 416.12633 361.275936 
L 400.309495 361.275936 
z
" clip-path="url(#p3c4ef01a64)" style="fill: #1f77b4"/>
   </g>
   <g id="patch_40">
    <path d="M 420.080539 390.04 
L 435.897374 390.04 
L 435.897374 301.950053 
L 420.080539 301.950053 
z
" clip-path="url(#p3c4ef01a64)" style="fill: #1f77b4"/>
   </g>
   <g id="patch_41">
    <path d="M 439.851582 390.04 
L 455.668418 390.04 
L 455.668418 263.190476 
L 439.851582 263.190476 
z
" clip-path="url(#p3c4ef01a64)" style="fill: #1f77b4"/>
   </g>
   <g id="patch_42">
    <path d="M 459.622626 390.04 
L 475.439461 390.04 
L 475.439461 301.950053 
L 459.622626 301.950053 
z
" clip-path="url(#p3c4ef01a64)" style="fill: #1f77b4"/>
   </g>
   <g id="patch_43">
    <path d="M 479.39367 390.04 
L 495.210505 390.04 
L 495.210505 361.275936 
L 479.39367 361.275936 
z
" clip-path="url(#p3c4ef01a64)" style="fill: #1f77b4"/>
   </g>
   <g id="patch_44">
    <path d="M 499.164714 390.04 
L 514.981549 390.04 
L 514.981549 385.995053 
L 499.164714 385.995053 
z
" clip-path="url(#p3c4ef01a64)" style="fill: #1f77b4"/>
   </g>
   <g id="patch_45">
    <path d="M 518.935758 390.04 
L 534.752593 390.04 
L 534.752593 389.84025 
L 518.935758 389.84025 
z
" clip-path="url(#p3c4ef01a64)" style="fill: #1f77b4"/>
   </g>
   <g id="patch_46">
    <path d="M 538.706801 390.04 
L 554.523636 390.04 
L 554.523636 390.038002 
L 538.706801 390.038002 
z
" clip-path="url(#p3c4ef01a64)" style="fill: #1f77b4"/>
   </g>
   <g id="matplotlib.axis_7">
    <g id="xtick_19">
     <g id="line2d_32">
      <g>
       <use xlink:href="#m1674827be2" x="348.904781" y="390.04" style="stroke: #000000; stroke-width: 0.8"/>
      </g>
     </g>
     <g id="text_41">
      <!-- 0 -->
      <g transform="translate(345.723531 404.638438)scale(0.1 -0.1)">
       <use xlink:href="#DejaVuSans-30"/>
      </g>
     </g>
    </g>
    <g id="xtick_20">
     <g id="line2d_33">
      <g>
       <use xlink:href="#m1674827be2" x="388.446869" y="390.04" style="stroke: #000000; stroke-width: 0.8"/>
      </g>
     </g>
     <g id="text_42">
      <!-- 2 -->
      <g transform="translate(385.265619 404.638438)scale(0.1 -0.1)">
       <use xlink:href="#DejaVuSans-32"/>
      </g>
     </g>
    </g>
    <g id="xtick_21">
     <g id="line2d_34">
      <g>
       <use xlink:href="#m1674827be2" x="427.988956" y="390.04" style="stroke: #000000; stroke-width: 0.8"/>
      </g>
     </g>
     <g id="text_43">
      <!-- 4 -->
      <g transform="translate(424.807706 404.638438)scale(0.1 -0.1)">
       <use xlink:href="#DejaVuSans-34"/>
      </g>
     </g>
    </g>
    <g id="xtick_22">
     <g id="line2d_35">
      <g>
       <use xlink:href="#m1674827be2" x="467.531044" y="390.04" style="stroke: #000000; stroke-width: 0.8"/>
      </g>
     </g>
     <g id="text_44">
      <!-- 6 -->
      <g transform="translate(464.349794 404.638438)scale(0.1 -0.1)">
       <defs>
        <path id="DejaVuSans-36" d="M 2113 2584 
Q 1688 2584 1439 2293 
Q 1191 2003 1191 1497 
Q 1191 994 1439 701 
Q 1688 409 2113 409 
Q 2538 409 2786 701 
Q 3034 994 3034 1497 
Q 3034 2003 2786 2293 
Q 2538 2584 2113 2584 
z
M 3366 4563 
L 3366 3988 
Q 3128 4100 2886 4159 
Q 2644 4219 2406 4219 
Q 1781 4219 1451 3797 
Q 1122 3375 1075 2522 
Q 1259 2794 1537 2939 
Q 1816 3084 2150 3084 
Q 2853 3084 3261 2657 
Q 3669 2231 3669 1497 
Q 3669 778 3244 343 
Q 2819 -91 2113 -91 
Q 1303 -91 875 529 
Q 447 1150 447 2328 
Q 447 3434 972 4092 
Q 1497 4750 2381 4750 
Q 2619 4750 2861 4703 
Q 3103 4656 3366 4563 
z
" transform="scale(0.015625)"/>
       </defs>
       <use xlink:href="#DejaVuSans-36"/>
      </g>
     </g>
    </g>
    <g id="xtick_23">
     <g id="line2d_36">
      <g>
       <use xlink:href="#m1674827be2" x="507.073131" y="390.04" style="stroke: #000000; stroke-width: 0.8"/>
      </g>
     </g>
     <g id="text_45">
      <!-- 8 -->
      <g transform="translate(503.891881 404.638438)scale(0.1 -0.1)">
       <defs>
        <path id="DejaVuSans-38" d="M 2034 2216 
Q 1584 2216 1326 1975 
Q 1069 1734 1069 1313 
Q 1069 891 1326 650 
Q 1584 409 2034 409 
Q 2484 409 2743 651 
Q 3003 894 3003 1313 
Q 3003 1734 2745 1975 
Q 2488 2216 2034 2216 
z
M 1403 2484 
Q 997 2584 770 2862 
Q 544 3141 544 3541 
Q 544 4100 942 4425 
Q 1341 4750 2034 4750 
Q 2731 4750 3128 4425 
Q 3525 4100 3525 3541 
Q 3525 3141 3298 2862 
Q 3072 2584 2669 2484 
Q 3125 2378 3379 2068 
Q 3634 1759 3634 1313 
Q 3634 634 3220 271 
Q 2806 -91 2034 -91 
Q 1263 -91 848 271 
Q 434 634 434 1313 
Q 434 1759 690 2068 
Q 947 2378 1403 2484 
z
M 1172 3481 
Q 1172 3119 1398 2916 
Q 1625 2713 2034 2713 
Q 2441 2713 2670 2916 
Q 2900 3119 2900 3481 
Q 2900 3844 2670 4047 
Q 2441 4250 2034 4250 
Q 1625 4250 1398 4047 
Q 1172 3844 1172 3481 
z
" transform="scale(0.015625)"/>
       </defs>
       <use xlink:href="#DejaVuSans-38"/>
      </g>
     </g>
    </g>
    <g id="xtick_24">
     <g id="line2d_37">
      <g>
       <use xlink:href="#m1674827be2" x="546.615219" y="390.04" style="stroke: #000000; stroke-width: 0.8"/>
      </g>
     </g>
     <g id="text_46">
      <!-- 10 -->
      <g transform="translate(540.252719 404.638438)scale(0.1 -0.1)">
       <use xlink:href="#DejaVuSans-31"/>
       <use xlink:href="#DejaVuSans-30" x="63.623047"/>
      </g>
     </g>
    </g>
    <g id="text_47">
     <!-- k -->
     <g transform="translate(444.864688 418.316563)scale(0.1 -0.1)">
      <use xlink:href="#DejaVuSans-6b"/>
     </g>
    </g>
   </g>
   <g id="matplotlib.axis_8">
    <g id="ytick_14">
     <g id="line2d_38">
      <g>
       <use xlink:href="#mf357e3df4a" x="330.32" y="390.04" style="stroke: #000000; stroke-width: 0.8"/>
      </g>
     </g>
     <g id="text_48">
      <!-- 0.0 -->
      <g transform="translate(307.416875 393.839219)scale(0.1 -0.1)">
       <use xlink:href="#DejaVuSans-30"/>
       <use xlink:href="#DejaVuSans-2e" x="63.623047"/>
       <use xlink:href="#DejaVuSans-30" x="95.410156"/>
      </g>
     </g>
    </g>
    <g id="ytick_15">
     <g id="line2d_39">
      <g>
       <use xlink:href="#mf357e3df4a" x="330.32" y="353.134906" style="stroke: #000000; stroke-width: 0.8"/>
      </g>
     </g>
     <g id="text_49">
      <!-- 0.1 -->
      <g transform="translate(307.416875 356.934125)scale(0.1 -0.1)">
       <use xlink:href="#DejaVuSans-30"/>
       <use xlink:href="#DejaVuSans-2e" x="63.623047"/>
       <use xlink:href="#DejaVuSans-31" x="95.410156"/>
      </g>
     </g>
    </g>
    <g id="ytick_16">
     <g id="line2d_40">
      <g>
       <use xlink:href="#mf357e3df4a" x="330.32" y="316.229813" style="stroke: #000000; stroke-width: 0.8"/>
      </g>
     </g>
     <g id="text_50">
      <!-- 0.2 -->
      <g transform="translate(307.416875 320.029032)scale(0.1 -0.1)">
       <use xlink:href="#DejaVuSans-30"/>
       <use xlink:href="#DejaVuSans-2e" x="63.623047"/>
       <use xlink:href="#DejaVuSans-32" x="95.410156"/>
      </g>
     </g>
    </g>
    <g id="ytick_17">
     <g id="line2d_41">
      <g>
       <use xlink:href="#mf357e3df4a" x="330.32" y="279.324719" style="stroke: #000000; stroke-width: 0.8"/>
      </g>
     </g>
     <g id="text_51">
      <!-- 0.3 -->
      <g transform="translate(307.416875 283.123938)scale(0.1 -0.1)">
       <use xlink:href="#DejaVuSans-30"/>
       <use xlink:href="#DejaVuSans-2e" x="63.623047"/>
       <use xlink:href="#DejaVuSans-33" x="95.410156"/>
      </g>
     </g>
    </g>
    <g id="text_52">
     <!-- P(X=k) -->
     <g transform="translate(301.337188 340.870563)rotate(-90)scale(0.1 -0.1)">
      <use xlink:href="#DejaVuSans-50"/>
      <use xlink:href="#DejaVuSans-28" x="60.302734"/>
      <use xlink:href="#DejaVuSans-58" x="99.316406"/>
      <use xlink:href="#DejaVuSans-3d" x="167.822266"/>
      <use xlink:href="#DejaVuSans-6b" x="251.611328"/>
      <use xlink:href="#DejaVuSans-29" x="309.521484"/>
     </g>
    </g>
   </g>
   <g id="patch_47">
    <path d="M 330.32 390.04 
L 330.32 256.848 
" style="fill: none; stroke: #000000; stroke-width: 0.8; stroke-linejoin: miter; stroke-linecap: square"/>
   </g>
   <g id="patch_48">
    <path d="M 565.2 390.04 
L 565.2 256.848 
" style="fill: none; stroke: #000000; stroke-width: 0.8; stroke-linejoin: miter; stroke-linecap: square"/>
   </g>
   <g id="patch_49">
    <path d="M 330.32 390.04 
L 565.2 390.04 
" style="fill: none; stroke: #000000; stroke-width: 0.8; stroke-linejoin: miter; stroke-linecap: square"/>
   </g>
   <g id="patch_50">
    <path d="M 330.32 256.848 
L 565.2 256.848 
" style="fill: none; stroke: #000000; stroke-width: 0.8; stroke-linejoin: miter; stroke-linecap: square"/>
   </g>
   <g id="text_53">
    <!-- n=10, r=10 -->
    <g transform="translate(412.351562 250.848)scale(0.12 -0.12)">
     <use xlink:href="#DejaVuSans-6e"/>
     <use xlink:href="#DejaVuSans-3d" x="63.378906"/>
     <use xlink:href="#DejaVuSans-31" x="147.167969"/>
     <use xlink:href="#DejaVuSans-30" x="210.791016"/>
     <use xlink:href="#DejaVuSans-2c" x="274.414062"/>
     <use xlink:href="#DejaVuSans-20" x="306.201172"/>
     <use xlink:href="#DejaVuSans-72" x="337.988281"/>
     <use xlink:href="#DejaVuSans-3d" x="379.101562"/>
     <use xlink:href="#DejaVuSans-31" x="462.890625"/>
     <use xlink:href="#DejaVuSans-30" x="526.513672"/>
    </g>
   </g>
  </g>
  <g id="text_54">
   <!-- Hypergeometric Distributions, probability of k blue balls in r draws  -->
   <g transform="translate(86.371875 17.758125)scale(0.12 -0.12)">
    <defs>
     <path id="DejaVuSans-48" d="M 628 4666 
L 1259 4666 
L 1259 2753 
L 3553 2753 
L 3553 4666 
L 4184 4666 
L 4184 0 
L 3553 0 
L 3553 2222 
L 1259 2222 
L 1259 0 
L 628 0 
L 628 4666 
z
" transform="scale(0.015625)"/>
     <path id="DejaVuSans-79" d="M 2059 -325 
Q 1816 -950 1584 -1140 
Q 1353 -1331 966 -1331 
L 506 -1331 
L 506 -850 
L 844 -850 
Q 1081 -850 1212 -737 
Q 1344 -625 1503 -206 
L 1606 56 
L 191 3500 
L 800 3500 
L 1894 763 
L 2988 3500 
L 3597 3500 
L 2059 -325 
z
" transform="scale(0.015625)"/>
     <path id="DejaVuSans-70" d="M 1159 525 
L 1159 -1331 
L 581 -1331 
L 581 3500 
L 1159 3500 
L 1159 2969 
Q 1341 3281 1617 3432 
Q 1894 3584 2278 3584 
Q 2916 3584 3314 3078 
Q 3713 2572 3713 1747 
Q 3713 922 3314 415 
Q 2916 -91 2278 -91 
Q 1894 -91 1617 61 
Q 1341 213 1159 525 
z
M 3116 1747 
Q 3116 2381 2855 2742 
Q 2594 3103 2138 3103 
Q 1681 3103 1420 2742 
Q 1159 2381 1159 1747 
Q 1159 1113 1420 752 
Q 1681 391 2138 391 
Q 2594 391 2855 752 
Q 3116 1113 3116 1747 
z
" transform="scale(0.015625)"/>
     <path id="DejaVuSans-65" d="M 3597 1894 
L 3597 1613 
L 953 1613 
Q 991 1019 1311 708 
Q 1631 397 2203 397 
Q 2534 397 2845 478 
Q 3156 559 3463 722 
L 3463 178 
Q 3153 47 2828 -22 
Q 2503 -91 2169 -91 
Q 1331 -91 842 396 
Q 353 884 353 1716 
Q 353 2575 817 3079 
Q 1281 3584 2069 3584 
Q 2775 3584 3186 3129 
Q 3597 2675 3597 1894 
z
M 3022 2063 
Q 3016 2534 2758 2815 
Q 2500 3097 2075 3097 
Q 1594 3097 1305 2825 
Q 1016 2553 972 2059 
L 3022 2063 
z
" transform="scale(0.015625)"/>
     <path id="DejaVuSans-67" d="M 2906 1791 
Q 2906 2416 2648 2759 
Q 2391 3103 1925 3103 
Q 1463 3103 1205 2759 
Q 947 2416 947 1791 
Q 947 1169 1205 825 
Q 1463 481 1925 481 
Q 2391 481 2648 825 
Q 2906 1169 2906 1791 
z
M 3481 434 
Q 3481 -459 3084 -895 
Q 2688 -1331 1869 -1331 
Q 1566 -1331 1297 -1286 
Q 1028 -1241 775 -1147 
L 775 -588 
Q 1028 -725 1275 -790 
Q 1522 -856 1778 -856 
Q 2344 -856 2625 -561 
Q 2906 -266 2906 331 
L 2906 616 
Q 2728 306 2450 153 
Q 2172 0 1784 0 
Q 1141 0 747 490 
Q 353 981 353 1791 
Q 353 2603 747 3093 
Q 1141 3584 1784 3584 
Q 2172 3584 2450 3431 
Q 2728 3278 2906 2969 
L 2906 3500 
L 3481 3500 
L 3481 434 
z
" transform="scale(0.015625)"/>
     <path id="DejaVuSans-6f" d="M 1959 3097 
Q 1497 3097 1228 2736 
Q 959 2375 959 1747 
Q 959 1119 1226 758 
Q 1494 397 1959 397 
Q 2419 397 2687 759 
Q 2956 1122 2956 1747 
Q 2956 2369 2687 2733 
Q 2419 3097 1959 3097 
z
M 1959 3584 
Q 2709 3584 3137 3096 
Q 3566 2609 3566 1747 
Q 3566 888 3137 398 
Q 2709 -91 1959 -91 
Q 1206 -91 779 398 
Q 353 888 353 1747 
Q 353 2609 779 3096 
Q 1206 3584 1959 3584 
z
" transform="scale(0.015625)"/>
     <path id="DejaVuSans-6d" d="M 3328 2828 
Q 3544 3216 3844 3400 
Q 4144 3584 4550 3584 
Q 5097 3584 5394 3201 
Q 5691 2819 5691 2113 
L 5691 0 
L 5113 0 
L 5113 2094 
Q 5113 2597 4934 2840 
Q 4756 3084 4391 3084 
Q 3944 3084 3684 2787 
Q 3425 2491 3425 1978 
L 3425 0 
L 2847 0 
L 2847 2094 
Q 2847 2600 2669 2842 
Q 2491 3084 2119 3084 
Q 1678 3084 1418 2786 
Q 1159 2488 1159 1978 
L 1159 0 
L 581 0 
L 581 3500 
L 1159 3500 
L 1159 2956 
Q 1356 3278 1631 3431 
Q 1906 3584 2284 3584 
Q 2666 3584 2933 3390 
Q 3200 3197 3328 2828 
z
" transform="scale(0.015625)"/>
     <path id="DejaVuSans-74" d="M 1172 4494 
L 1172 3500 
L 2356 3500 
L 2356 3053 
L 1172 3053 
L 1172 1153 
Q 1172 725 1289 603 
Q 1406 481 1766 481 
L 2356 481 
L 2356 0 
L 1766 0 
Q 1100 0 847 248 
Q 594 497 594 1153 
L 594 3053 
L 172 3053 
L 172 3500 
L 594 3500 
L 594 4494 
L 1172 4494 
z
" transform="scale(0.015625)"/>
     <path id="DejaVuSans-69" d="M 603 3500 
L 1178 3500 
L 1178 0 
L 603 0 
L 603 3500 
z
M 603 4863 
L 1178 4863 
L 1178 4134 
L 603 4134 
L 603 4863 
z
" transform="scale(0.015625)"/>
     <path id="DejaVuSans-63" d="M 3122 3366 
L 3122 2828 
Q 2878 2963 2633 3030 
Q 2388 3097 2138 3097 
Q 1578 3097 1268 2742 
Q 959 2388 959 1747 
Q 959 1106 1268 751 
Q 1578 397 2138 397 
Q 2388 397 2633 464 
Q 2878 531 3122 666 
L 3122 134 
Q 2881 22 2623 -34 
Q 2366 -91 2075 -91 
Q 1284 -91 818 406 
Q 353 903 353 1747 
Q 353 2603 823 3093 
Q 1294 3584 2113 3584 
Q 2378 3584 2631 3529 
Q 2884 3475 3122 3366 
z
" transform="scale(0.015625)"/>
     <path id="DejaVuSans-44" d="M 1259 4147 
L 1259 519 
L 2022 519 
Q 2988 519 3436 956 
Q 3884 1394 3884 2338 
Q 3884 3275 3436 3711 
Q 2988 4147 2022 4147 
L 1259 4147 
z
M 628 4666 
L 1925 4666 
Q 3281 4666 3915 4102 
Q 4550 3538 4550 2338 
Q 4550 1131 3912 565 
Q 3275 0 1925 0 
L 628 0 
L 628 4666 
z
" transform="scale(0.015625)"/>
     <path id="DejaVuSans-73" d="M 2834 3397 
L 2834 2853 
Q 2591 2978 2328 3040 
Q 2066 3103 1784 3103 
Q 1356 3103 1142 2972 
Q 928 2841 928 2578 
Q 928 2378 1081 2264 
Q 1234 2150 1697 2047 
L 1894 2003 
Q 2506 1872 2764 1633 
Q 3022 1394 3022 966 
Q 3022 478 2636 193 
Q 2250 -91 1575 -91 
Q 1294 -91 989 -36 
Q 684 19 347 128 
L 347 722 
Q 666 556 975 473 
Q 1284 391 1588 391 
Q 1994 391 2212 530 
Q 2431 669 2431 922 
Q 2431 1156 2273 1281 
Q 2116 1406 1581 1522 
L 1381 1569 
Q 847 1681 609 1914 
Q 372 2147 372 2553 
Q 372 3047 722 3315 
Q 1072 3584 1716 3584 
Q 2034 3584 2315 3537 
Q 2597 3491 2834 3397 
z
" transform="scale(0.015625)"/>
     <path id="DejaVuSans-62" d="M 3116 1747 
Q 3116 2381 2855 2742 
Q 2594 3103 2138 3103 
Q 1681 3103 1420 2742 
Q 1159 2381 1159 1747 
Q 1159 1113 1420 752 
Q 1681 391 2138 391 
Q 2594 391 2855 752 
Q 3116 1113 3116 1747 
z
M 1159 2969 
Q 1341 3281 1617 3432 
Q 1894 3584 2278 3584 
Q 2916 3584 3314 3078 
Q 3713 2572 3713 1747 
Q 3713 922 3314 415 
Q 2916 -91 2278 -91 
Q 1894 -91 1617 61 
Q 1341 213 1159 525 
L 1159 0 
L 581 0 
L 581 4863 
L 1159 4863 
L 1159 2969 
z
" transform="scale(0.015625)"/>
     <path id="DejaVuSans-75" d="M 544 1381 
L 544 3500 
L 1119 3500 
L 1119 1403 
Q 1119 906 1312 657 
Q 1506 409 1894 409 
Q 2359 409 2629 706 
Q 2900 1003 2900 1516 
L 2900 3500 
L 3475 3500 
L 3475 0 
L 2900 0 
L 2900 538 
Q 2691 219 2414 64 
Q 2138 -91 1772 -91 
Q 1169 -91 856 284 
Q 544 659 544 1381 
z
M 1991 3584 
L 1991 3584 
z
" transform="scale(0.015625)"/>
     <path id="DejaVuSans-61" d="M 2194 1759 
Q 1497 1759 1228 1600 
Q 959 1441 959 1056 
Q 959 750 1161 570 
Q 1363 391 1709 391 
Q 2188 391 2477 730 
Q 2766 1069 2766 1631 
L 2766 1759 
L 2194 1759 
z
M 3341 1997 
L 3341 0 
L 2766 0 
L 2766 531 
Q 2569 213 2275 61 
Q 1981 -91 1556 -91 
Q 1019 -91 701 211 
Q 384 513 384 1019 
Q 384 1609 779 1909 
Q 1175 2209 1959 2209 
L 2766 2209 
L 2766 2266 
Q 2766 2663 2505 2880 
Q 2244 3097 1772 3097 
Q 1472 3097 1187 3025 
Q 903 2953 641 2809 
L 641 3341 
Q 956 3463 1253 3523 
Q 1550 3584 1831 3584 
Q 2591 3584 2966 3190 
Q 3341 2797 3341 1997 
z
" transform="scale(0.015625)"/>
     <path id="DejaVuSans-6c" d="M 603 4863 
L 1178 4863 
L 1178 0 
L 603 0 
L 603 4863 
z
" transform="scale(0.015625)"/>
     <path id="DejaVuSans-66" d="M 2375 4863 
L 2375 4384 
L 1825 4384 
Q 1516 4384 1395 4259 
Q 1275 4134 1275 3809 
L 1275 3500 
L 2222 3500 
L 2222 3053 
L 1275 3053 
L 1275 0 
L 697 0 
L 697 3053 
L 147 3053 
L 147 3500 
L 697 3500 
L 697 3744 
Q 697 4328 969 4595 
Q 1241 4863 1831 4863 
L 2375 4863 
z
" transform="scale(0.015625)"/>
     <path id="DejaVuSans-64" d="M 2906 2969 
L 2906 4863 
L 3481 4863 
L 3481 0 
L 2906 0 
L 2906 525 
Q 2725 213 2448 61 
Q 2172 -91 1784 -91 
Q 1150 -91 751 415 
Q 353 922 353 1747 
Q 353 2572 751 3078 
Q 1150 3584 1784 3584 
Q 2172 3584 2448 3432 
Q 2725 3281 2906 2969 
z
M 947 1747 
Q 947 1113 1208 752 
Q 1469 391 1925 391 
Q 2381 391 2643 752 
Q 2906 1113 2906 1747 
Q 2906 2381 2643 2742 
Q 2381 3103 1925 3103 
Q 1469 3103 1208 2742 
Q 947 2381 947 1747 
z
" transform="scale(0.015625)"/>
     <path id="DejaVuSans-77" d="M 269 3500 
L 844 3500 
L 1563 769 
L 2278 3500 
L 2956 3500 
L 3675 769 
L 4391 3500 
L 4966 3500 
L 4050 0 
L 3372 0 
L 2619 2869 
L 1863 0 
L 1184 0 
L 269 3500 
z
" transform="scale(0.015625)"/>
    </defs>
    <use xlink:href="#DejaVuSans-48"/>
    <use xlink:href="#DejaVuSans-79" x="75.195312"/>
    <use xlink:href="#DejaVuSans-70" x="134.375"/>
    <use xlink:href="#DejaVuSans-65" x="197.851562"/>
    <use xlink:href="#DejaVuSans-72" x="259.375"/>
    <use xlink:href="#DejaVuSans-67" x="298.738281"/>
    <use xlink:href="#DejaVuSans-65" x="362.214844"/>
    <use xlink:href="#DejaVuSans-6f" x="423.738281"/>
    <use xlink:href="#DejaVuSans-6d" x="484.919922"/>
    <use xlink:href="#DejaVuSans-65" x="582.332031"/>
    <use xlink:href="#DejaVuSans-74" x="643.855469"/>
    <use xlink:href="#DejaVuSans-72" x="683.064453"/>
    <use xlink:href="#DejaVuSans-69" x="724.177734"/>
    <use xlink:href="#DejaVuSans-63" x="751.960938"/>
    <use xlink:href="#DejaVuSans-20" x="806.941406"/>
    <use xlink:href="#DejaVuSans-44" x="838.728516"/>
    <use xlink:href="#DejaVuSans-69" x="915.730469"/>
    <use xlink:href="#DejaVuSans-73" x="943.513672"/>
    <use xlink:href="#DejaVuSans-74" x="995.613281"/>
    <use xlink:href="#DejaVuSans-72" x="1034.822266"/>
    <use xlink:href="#DejaVuSans-69" x="1075.935547"/>
    <use xlink:href="#DejaVuSans-62" x="1103.71875"/>
    <use xlink:href="#DejaVuSans-75" x="1167.195312"/>
    <use xlink:href="#DejaVuSans-74" x="1230.574219"/>
    <use xlink:href="#DejaVuSans-69" x="1269.783203"/>
    <use xlink:href="#DejaVuSans-6f" x="1297.566406"/>
    <use xlink:href="#DejaVuSans-6e" x="1358.748047"/>
    <use xlink:href="#DejaVuSans-73" x="1422.126953"/>
    <use xlink:href="#DejaVuSans-2c" x="1474.226562"/>
    <use xlink:href="#DejaVuSans-20" x="1506.013672"/>
    <use xlink:href="#DejaVuSans-70" x="1537.800781"/>
    <use xlink:href="#DejaVuSans-72" x="1601.277344"/>
    <use xlink:href="#DejaVuSans-6f" x="1640.140625"/>
    <use xlink:href="#DejaVuSans-62" x="1701.322266"/>
    <use xlink:href="#DejaVuSans-61" x="1764.798828"/>
    <use xlink:href="#DejaVuSans-62" x="1826.078125"/>
    <use xlink:href="#DejaVuSans-69" x="1889.554688"/>
    <use xlink:href="#DejaVuSans-6c" x="1917.337891"/>
    <use xlink:href="#DejaVuSans-69" x="1945.121094"/>
    <use xlink:href="#DejaVuSans-74" x="1972.904297"/>
    <use xlink:href="#DejaVuSans-79" x="2012.113281"/>
    <use xlink:href="#DejaVuSans-20" x="2071.292969"/>
    <use xlink:href="#DejaVuSans-6f" x="2103.080078"/>
    <use xlink:href="#DejaVuSans-66" x="2164.261719"/>
    <use xlink:href="#DejaVuSans-20" x="2199.466797"/>
    <use xlink:href="#DejaVuSans-6b" x="2231.253906"/>
    <use xlink:href="#DejaVuSans-20" x="2289.164062"/>
    <use xlink:href="#DejaVuSans-62" x="2320.951172"/>
    <use xlink:href="#DejaVuSans-6c" x="2384.427734"/>
    <use xlink:href="#DejaVuSans-75" x="2412.210938"/>
    <use xlink:href="#DejaVuSans-65" x="2475.589844"/>
    <use xlink:href="#DejaVuSans-20" x="2537.113281"/>
    <use xlink:href="#DejaVuSans-62" x="2568.900391"/>
    <use xlink:href="#DejaVuSans-61" x="2632.376953"/>
    <use xlink:href="#DejaVuSans-6c" x="2693.65625"/>
    <use xlink:href="#DejaVuSans-6c" x="2721.439453"/>
    <use xlink:href="#DejaVuSans-73" x="2749.222656"/>
    <use xlink:href="#DejaVuSans-20" x="2801.322266"/>
    <use xlink:href="#DejaVuSans-69" x="2833.109375"/>
    <use xlink:href="#DejaVuSans-6e" x="2860.892578"/>
    <use xlink:href="#DejaVuSans-20" x="2924.271484"/>
    <use xlink:href="#DejaVuSans-72" x="2956.058594"/>
    <use xlink:href="#DejaVuSans-20" x="2997.171875"/>
    <use xlink:href="#DejaVuSans-64" x="3028.958984"/>
    <use xlink:href="#DejaVuSans-72" x="3092.435547"/>
    <use xlink:href="#DejaVuSans-61" x="3133.548828"/>
    <use xlink:href="#DejaVuSans-77" x="3194.828125"/>
    <use xlink:href="#DejaVuSans-73" x="3276.615234"/>
    <use xlink:href="#DejaVuSans-20" x="3328.714844"/>
   </g>
   <!--  given total number of balls in the urn N = 20, number of blue balls n, and number of draws r -->
   <g transform="translate(7.4625 31.1955)scale(0.12 -0.12)">
    <defs>
     <path id="DejaVuSans-76" d="M 191 3500 
L 800 3500 
L 1894 563 
L 2988 3500 
L 3597 3500 
L 2284 0 
L 1503 0 
L 191 3500 
z
" transform="scale(0.015625)"/>
     <path id="DejaVuSans-68" d="M 3513 2113 
L 3513 0 
L 2938 0 
L 2938 2094 
Q 2938 2591 2744 2837 
Q 2550 3084 2163 3084 
Q 1697 3084 1428 2787 
Q 1159 2491 1159 1978 
L 1159 0 
L 581 0 
L 581 4863 
L 1159 4863 
L 1159 2956 
Q 1366 3272 1645 3428 
Q 1925 3584 2291 3584 
Q 2894 3584 3203 3211 
Q 3513 2838 3513 2113 
z
" transform="scale(0.015625)"/>
     <path id="DejaVuSans-4e" d="M 628 4666 
L 1478 4666 
L 3547 763 
L 3547 4666 
L 4159 4666 
L 4159 0 
L 3309 0 
L 1241 3903 
L 1241 0 
L 628 0 
L 628 4666 
z
" transform="scale(0.015625)"/>
    </defs>
    <use xlink:href="#DejaVuSans-20"/>
    <use xlink:href="#DejaVuSans-67" x="31.787109"/>
    <use xlink:href="#DejaVuSans-69" x="95.263672"/>
    <use xlink:href="#DejaVuSans-76" x="123.046875"/>
    <use xlink:href="#DejaVuSans-65" x="182.226562"/>
    <use xlink:href="#DejaVuSans-6e" x="243.75"/>
    <use xlink:href="#DejaVuSans-20" x="307.128906"/>
    <use xlink:href="#DejaVuSans-74" x="338.916016"/>
    <use xlink:href="#DejaVuSans-6f" x="378.125"/>
    <use xlink:href="#DejaVuSans-74" x="439.306641"/>
    <use xlink:href="#DejaVuSans-61" x="478.515625"/>
    <use xlink:href="#DejaVuSans-6c" x="539.794922"/>
    <use xlink:href="#DejaVuSans-20" x="567.578125"/>
    <use xlink:href="#DejaVuSans-6e" x="599.365234"/>
    <use xlink:href="#DejaVuSans-75" x="662.744141"/>
    <use xlink:href="#DejaVuSans-6d" x="726.123047"/>
    <use xlink:href="#DejaVuSans-62" x="823.535156"/>
    <use xlink:href="#DejaVuSans-65" x="887.011719"/>
    <use xlink:href="#DejaVuSans-72" x="948.535156"/>
    <use xlink:href="#DejaVuSans-20" x="989.648438"/>
    <use xlink:href="#DejaVuSans-6f" x="1021.435547"/>
    <use xlink:href="#DejaVuSans-66" x="1082.617188"/>
    <use xlink:href="#DejaVuSans-20" x="1117.822266"/>
    <use xlink:href="#DejaVuSans-62" x="1149.609375"/>
    <use xlink:href="#DejaVuSans-61" x="1213.085938"/>
    <use xlink:href="#DejaVuSans-6c" x="1274.365234"/>
    <use xlink:href="#DejaVuSans-6c" x="1302.148438"/>
    <use xlink:href="#DejaVuSans-73" x="1329.931641"/>
    <use xlink:href="#DejaVuSans-20" x="1382.03125"/>
    <use xlink:href="#DejaVuSans-69" x="1413.818359"/>
    <use xlink:href="#DejaVuSans-6e" x="1441.601562"/>
    <use xlink:href="#DejaVuSans-20" x="1504.980469"/>
    <use xlink:href="#DejaVuSans-74" x="1536.767578"/>
    <use xlink:href="#DejaVuSans-68" x="1575.976562"/>
    <use xlink:href="#DejaVuSans-65" x="1639.355469"/>
    <use xlink:href="#DejaVuSans-20" x="1700.878906"/>
    <use xlink:href="#DejaVuSans-75" x="1732.666016"/>
    <use xlink:href="#DejaVuSans-72" x="1796.044922"/>
    <use xlink:href="#DejaVuSans-6e" x="1835.408203"/>
    <use xlink:href="#DejaVuSans-20" x="1898.787109"/>
    <use xlink:href="#DejaVuSans-4e" x="1930.574219"/>
    <use xlink:href="#DejaVuSans-20" x="2005.378906"/>
    <use xlink:href="#DejaVuSans-3d" x="2037.166016"/>
    <use xlink:href="#DejaVuSans-20" x="2120.955078"/>
    <use xlink:href="#DejaVuSans-32" x="2152.742188"/>
    <use xlink:href="#DejaVuSans-30" x="2216.365234"/>
    <use xlink:href="#DejaVuSans-2c" x="2279.988281"/>
    <use xlink:href="#DejaVuSans-20" x="2311.775391"/>
    <use xlink:href="#DejaVuSans-6e" x="2343.5625"/>
    <use xlink:href="#DejaVuSans-75" x="2406.941406"/>
    <use xlink:href="#DejaVuSans-6d" x="2470.320312"/>
    <use xlink:href="#DejaVuSans-62" x="2567.732422"/>
    <use xlink:href="#DejaVuSans-65" x="2631.208984"/>
    <use xlink:href="#DejaVuSans-72" x="2692.732422"/>
    <use xlink:href="#DejaVuSans-20" x="2733.845703"/>
    <use xlink:href="#DejaVuSans-6f" x="2765.632812"/>
    <use xlink:href="#DejaVuSans-66" x="2826.814453"/>
    <use xlink:href="#DejaVuSans-20" x="2862.019531"/>
    <use xlink:href="#DejaVuSans-62" x="2893.806641"/>
    <use xlink:href="#DejaVuSans-6c" x="2957.283203"/>
    <use xlink:href="#DejaVuSans-75" x="2985.066406"/>
    <use xlink:href="#DejaVuSans-65" x="3048.445312"/>
    <use xlink:href="#DejaVuSans-20" x="3109.96875"/>
    <use xlink:href="#DejaVuSans-62" x="3141.755859"/>
    <use xlink:href="#DejaVuSans-61" x="3205.232422"/>
    <use xlink:href="#DejaVuSans-6c" x="3266.511719"/>
    <use xlink:href="#DejaVuSans-6c" x="3294.294922"/>
    <use xlink:href="#DejaVuSans-73" x="3322.078125"/>
    <use xlink:href="#DejaVuSans-20" x="3374.177734"/>
    <use xlink:href="#DejaVuSans-6e" x="3405.964844"/>
    <use xlink:href="#DejaVuSans-2c" x="3469.34375"/>
    <use xlink:href="#DejaVuSans-20" x="3501.130859"/>
    <use xlink:href="#DejaVuSans-61" x="3532.917969"/>
    <use xlink:href="#DejaVuSans-6e" x="3594.197266"/>
    <use xlink:href="#DejaVuSans-64" x="3657.576172"/>
    <use xlink:href="#DejaVuSans-20" x="3721.052734"/>
    <use xlink:href="#DejaVuSans-6e" x="3752.839844"/>
    <use xlink:href="#DejaVuSans-75" x="3816.21875"/>
    <use xlink:href="#DejaVuSans-6d" x="3879.597656"/>
    <use xlink:href="#DejaVuSans-62" x="3977.009766"/>
    <use xlink:href="#DejaVuSans-65" x="4040.486328"/>
    <use xlink:href="#DejaVuSans-72" x="4102.009766"/>
    <use xlink:href="#DejaVuSans-20" x="4143.123047"/>
    <use xlink:href="#DejaVuSans-6f" x="4174.910156"/>
    <use xlink:href="#DejaVuSans-66" x="4236.091797"/>
    <use xlink:href="#DejaVuSans-20" x="4271.296875"/>
    <use xlink:href="#DejaVuSans-64" x="4303.083984"/>
    <use xlink:href="#DejaVuSans-72" x="4366.560547"/>
    <use xlink:href="#DejaVuSans-61" x="4407.673828"/>
    <use xlink:href="#DejaVuSans-77" x="4468.953125"/>
    <use xlink:href="#DejaVuSans-73" x="4550.740234"/>
    <use xlink:href="#DejaVuSans-20" x="4602.839844"/>
    <use xlink:href="#DejaVuSans-72" x="4634.626953"/>
   </g>
  </g>
 </g>
 <defs>
  <clipPath id="pacf53c7a83">
   <rect x="47.72" y="65.616" width="234.88" height="133.192"/>
  </clipPath>
  <clipPath id="pf59440da1e">
   <rect x="330.32" y="65.616" width="234.88" height="133.192"/>
  </clipPath>
  <clipPath id="pff4869fe97">
   <rect x="47.72" y="256.848" width="234.88" height="133.192"/>
  </clipPath>
  <clipPath id="p3c4ef01a64">
   <rect x="330.32" y="256.848" width="234.88" height="133.192"/>
  </clipPath>
 </defs>
</svg>
