<svg width="301" height="178" xmlns="http://www.w3.org/2000/svg" xmlns:xlink="http://www.w3.org/1999/xlink" xml:space="preserve" overflow="hidden"><g transform="translate(-422 -158)"><path d="M219.919 309.134C219.919 345.211 208.859 374.457 195.215 374.457 181.571 374.457 170.51 345.211 170.51 309.134 170.51 273.058 181.571 243.812 195.215 243.812 208.859 243.812 219.919 273.058 219.919 309.134Z" stroke="#000000" stroke-width="4.24822" stroke-linecap="round" stroke-linejoin="round" stroke-miterlimit="1.5" fill="none" fill-rule="evenodd" transform="matrix(1.00019 0 0 1 263.374 -40.7203)"/><path d="M142.028 199.645C142.028 222.944 134.885 241.831 126.073 241.831 117.262 241.831 110.119 222.944 110.119 199.645 110.119 176.346 117.262 157.458 126.073 157.458 134.885 157.458 142.028 176.346 142.028 199.645Z" stroke="#000000" stroke-width="3.81839" stroke-linecap="round" stroke-linejoin="round" stroke-miterlimit="1.5" fill="none" fill-rule="evenodd" transform="matrix(1 0 0 1.21467 331.783 25.8098)"/><path d="M142.028 199.645C142.028 222.944 134.885 241.831 126.073 241.831 117.262 241.831 110.119 222.944 110.119 199.645 110.119 176.346 117.262 157.458 126.073 157.458 134.885 157.458 142.028 176.346 142.028 199.645Z" stroke="#000000" stroke-width="3.81839" stroke-linecap="round" stroke-linejoin="round" stroke-miterlimit="1.5" fill="none" fill-rule="evenodd" transform="matrix(1 0 0 1.21467 570.375 25.8098)"/><path d="M219.919 309.134C219.919 345.211 208.859 374.457 195.215 374.457 181.571 374.457 170.51 345.211 170.51 309.134 170.51 273.058 181.571 243.812 195.215 243.812 208.859 243.812 219.919 273.058 219.919 309.134Z" stroke="#000000" stroke-width="4.24822" stroke-linecap="round" stroke-linejoin="round" stroke-miterlimit="1.5" fill="none" fill-rule="evenodd" transform="matrix(1.00019 0 0 1 500.603 -40.7203)"/><path d="M194.949 245.64 432.018 245.64" stroke="#000000" stroke-width="4.24822" stroke-linecap="round" stroke-linejoin="round" stroke-miterlimit="1.5" fill="none" fill-rule="evenodd" transform="matrix(1.00019 0 0 1 262.872 -42.3724)"/><path d="M194.949 245.64 432.018 245.64" stroke="#000000" stroke-width="4.24822" stroke-linecap="round" stroke-linejoin="round" stroke-miterlimit="1.5" fill="none" fill-rule="evenodd" transform="matrix(1.00019 0 0 1 262.872 88.0829)"/><path d="M193.624 310.94 193.624 243.945" stroke="#D83838" stroke-width="4.24822" stroke-linecap="round" stroke-linejoin="round" stroke-miterlimit="1.5" fill="none" fill-rule="evenodd" transform="matrix(1.00019 0 0 1 263.374 -40.7203)"/><path d="M191.695 287.955C191.695 287.388 191.605 286.857 191.423 286.363 191.241 285.869 190.983 285.44 190.649 285.077 190.315 284.714 189.912 284.427 189.44 284.216 188.967 284.005 188.433 283.9 187.837 283.9 187.242 283.9 186.697 284.005 186.203 284.216 185.708 284.427 185.28 284.714 184.917 285.077 184.553 285.44 184.27 285.869 184.066 286.363 183.863 286.857 183.761 287.388 183.761 287.955 183.761 288.521 183.863 289.052 184.066 289.546 184.27 290.04 184.553 290.468 184.917 290.832 185.28 291.195 185.708 291.482 186.203 291.693 186.697 291.903 187.242 292.009 187.837 292.009 188.433 292.009 188.967 291.903 189.44 291.693 189.912 291.482 190.315 291.195 190.649 290.832 190.983 290.468 191.241 290.04 191.423 289.546 191.605 289.052 191.695 288.521 191.695 287.955ZM182.388 276.576 183.827 276.576 183.827 284.554 183.87 284.554C184.103 284.205 184.379 283.908 184.699 283.66 185.018 283.413 185.352 283.21 185.701 283.05 186.05 282.89 186.409 282.774 186.78 282.701 187.151 282.629 187.503 282.592 187.837 282.592 188.637 282.592 189.367 282.727 190.028 282.996 190.689 283.264 191.26 283.638 191.739 284.118 192.219 284.598 192.593 285.164 192.862 285.818 193.13 286.472 193.265 287.184 193.265 287.955 193.265 288.725 193.13 289.437 192.862 290.091 192.593 290.744 192.219 291.311 191.739 291.791 191.26 292.27 190.689 292.645 190.028 292.913 189.367 293.182 188.637 293.316 187.837 293.316 187.503 293.316 187.151 293.28 186.78 293.208 186.409 293.135 186.05 293.019 185.701 292.859 185.352 292.699 185.018 292.496 184.699 292.248 184.379 292.002 184.103 291.704 183.87 291.355L183.827 291.355 183.827 293.055 182.388 293.055 182.388 276.576Z" stroke="#E03E3E" stroke-width="0.31283" stroke-linejoin="round" stroke-miterlimit="2" fill="#C33535" transform="matrix(1.00019 0 0 1 277.751 -33.9475)"/><path d="M194.605 360.101 194.605 372.314" stroke="#3B9F46" stroke-width="4.24822" stroke-linecap="round" stroke-linejoin="round" stroke-miterlimit="1.5" fill="none" fill-rule="evenodd" transform="matrix(1.00019 0 0 1 263.374 -40.7203)"/><path d="M152.781 368.726C152.781 369.201 152.857 369.646 153.01 370.062 153.162 370.475 153.379 370.834 153.659 371.141 153.94 371.448 154.279 371.688 154.675 371.864 155.072 372.042 155.52 372.13 156.021 372.13 156.509 372.13 156.963 372.042 157.385 371.864 157.806 371.688 158.168 371.448 158.474 371.141 158.779 370.834 159.017 370.475 159.188 370.062 159.358 369.646 159.444 369.201 159.444 368.726 159.444 368.247 159.358 367.803 159.188 367.387 159.017 366.974 158.779 366.614 158.474 366.308 158.168 366.004 157.806 365.763 157.385 365.585 156.963 365.41 156.509 365.319 156.021 365.319 155.52 365.319 155.072 365.41 154.675 365.585 154.279 365.763 153.94 366.004 153.659 366.308 153.379 366.614 153.162 366.974 153.01 367.387 152.857 367.803 152.781 368.247 152.781 368.726ZM160.597 373.009 159.389 373.009 159.389 371.579 159.352 371.579C159.157 371.873 158.925 372.123 158.657 372.33 158.388 372.539 158.107 372.708 157.815 372.843 157.522 372.977 157.22 373.074 156.909 373.137 156.597 373.196 156.302 373.228 156.021 373.228 155.35 373.228 154.736 373.115 154.181 372.89 153.626 372.664 153.147 372.348 152.744 371.948 152.341 371.544 152.027 371.069 151.801 370.518 151.576 369.968 151.463 369.37 151.463 368.726 151.463 368.078 151.576 367.481 151.801 366.93 152.027 366.383 152.341 365.904 152.744 365.504 153.147 365.1 153.626 364.787 154.181 364.559 154.736 364.334 155.35 364.221 156.021 364.221 156.302 364.221 156.597 364.252 156.909 364.312 157.22 364.374 157.522 364.471 157.815 364.606 158.107 364.74 158.388 364.913 158.657 365.119 158.925 365.325 159.157 365.576 159.352 365.87L159.389 365.87 159.389 359.169 160.597 359.169 160.597 373.009Z" stroke="#35CD59" stroke-width="0.31283" stroke-linejoin="round" stroke-miterlimit="2" fill="#329B35" transform="matrix(1.00019 0 0 1 270.664 -41.2206)"/><path d="M171.049 368.726C171.049 368.247 170.973 367.803 170.821 367.387 170.668 366.974 170.451 366.614 170.171 366.308 169.89 366.004 169.551 365.763 169.155 365.585 168.758 365.41 168.31 365.319 167.809 365.319 167.309 365.319 166.851 365.41 166.437 365.585 166.021 365.763 165.661 366.004 165.356 366.308 165.051 366.614 164.813 366.974 164.643 367.387 164.472 367.803 164.386 368.247 164.386 368.726 164.386 369.201 164.472 369.646 164.643 370.062 164.813 370.475 165.051 370.834 165.356 371.141 165.661 371.448 166.021 371.688 166.437 371.864 166.851 372.042 167.309 372.13 167.809 372.13 168.31 372.13 168.758 372.042 169.155 371.864 169.551 371.688 169.89 371.448 170.171 371.141 170.451 370.834 170.668 370.475 170.821 370.062 170.973 369.646 171.049 369.201 171.049 368.726ZM163.233 359.169 164.441 359.169 164.441 365.87 164.478 365.87C164.673 365.576 164.905 365.325 165.173 365.119 165.442 364.913 165.722 364.74 166.016 364.606 166.308 364.471 166.61 364.374 166.921 364.312 167.233 364.252 167.529 364.221 167.809 364.221 168.481 364.221 169.094 364.334 169.649 364.559 170.204 364.787 170.683 365.1 171.086 365.504 171.489 365.904 171.803 366.383 172.029 366.93 172.254 367.481 172.367 368.078 172.367 368.726 172.367 369.37 172.254 369.968 172.029 370.518 171.803 371.069 171.489 371.544 171.086 371.948 170.683 372.348 170.204 372.664 169.649 372.89 169.094 373.115 168.481 373.228 167.809 373.228 167.529 373.228 167.233 373.196 166.921 373.137 166.61 373.074 166.308 372.977 166.016 372.843 165.722 372.708 165.442 372.539 165.173 372.33 164.905 372.123 164.673 371.873 164.478 371.579L164.441 371.579 164.441 373.009 163.233 373.009 163.233 359.169Z" stroke="#35CD59" stroke-width="0.31283" stroke-linejoin="round" stroke-miterlimit="2" fill="#329B35" transform="matrix(1.00019 0 0 1 270.664 -41.2206)"/><path d="M304.458 267.813 300.609 267.813 290.725 243.468 294.835 243.468 302.586 263.964 302.69 263.964 310.441 243.468 314.342 243.468 304.458 267.813Z" stroke="#000000" stroke-width="0.311455" stroke-linejoin="round" stroke-miterlimit="2" transform="matrix(1.00019 0 0 1 264.46 -78.4456)"/><path d="M331.405 246.589 324.382 246.589 324.382 260.947C324.382 261.848 324.469 262.585 324.642 263.157 324.816 263.73 325.059 264.172 325.371 264.484 325.683 264.796 326.056 265.013 326.489 265.134 326.923 265.255 327.399 265.316 327.92 265.316 328.509 265.316 329.116 265.229 329.74 265.056 330.365 264.883 330.937 264.657 331.457 264.38L331.613 267.553C330.33 268.142 328.787 268.437 326.983 268.437 326.325 268.437 325.639 268.351 324.929 268.177 324.218 268.004 323.567 267.674 322.978 267.189 322.388 266.703 321.903 266.044 321.521 265.212 321.14 264.38 320.949 263.287 320.949 261.935L320.949 246.589 315.799 246.589 315.799 243.468 320.949 243.468 320.949 236.601 324.382 236.601 324.382 243.468 331.405 243.468 331.405 246.589Z" stroke="#000000" stroke-width="0.311455" stroke-linejoin="round" stroke-miterlimit="2" transform="matrix(1.00019 0 0 1 264.46 -78.4456)"/></g></svg>