<?xml version="1.0" encoding="UTF-8" standalone="no"?>
<!DOCTYPE svg PUBLIC "-//W3C//DTD SVG 1.1//EN" "http://www.w3.org/Graphics/SVG/1.1/DTD/svg11.dtd">
<svg width="100%" height="100%" viewBox="0 0 908 727" version="1.1" xmlns="http://www.w3.org/2000/svg" xmlns:xlink="http://www.w3.org/1999/xlink" xml:space="preserve" xmlns:serif="http://www.serif.com/" style="fill-rule:evenodd;clip-rule:evenodd;stroke-linecap:round;stroke-linejoin:round;stroke-miterlimit:1.5;">
    <path d="M137.899,721.454l0,-705.724" style="fill:none;stroke:black;stroke-width:10.87px;"/>
    <path d="M24.752,608.856l872.682,-0" style="fill:none;stroke:black;stroke-width:10.87px;"/>
    <path d="M137.899,5.436l-44.893,44.893" style="fill:none;stroke:black;stroke-width:10.87px;"/>
    <path d="M901.877,608.856l-44.893,-44.894" style="fill:none;stroke:black;stroke-width:10.87px;"/>
    <path d="M137.899,5.436l44.344,44.344" style="fill:none;stroke:black;stroke-width:10.87px;"/>
    <path d="M901.877,608.856l-44.344,44.344" style="fill:none;stroke:black;stroke-width:10.87px;"/>
    <path d="M743.518,584.481l-0,46.749" style="fill:none;stroke:black;stroke-width:10.87px;"/>
    <path d="M737.368,659.759l-16.776,-0l-0,-6.623l40.617,0l-0,6.623l-16.777,-0l0,45.473l-7.064,0l0,-45.473Z" style="fill-rule:nonzero;"/>
    <path d="M770.905,707.821c-0.756,-0.786 -1.549,-1.383 -2.38,-1.791c-0.831,-0.408 -1.821,-0.612 -2.97,-0.612c-1.118,0 -2.093,0.204 -2.924,0.612c-0.831,0.408 -1.527,0.967 -2.086,1.678c-0.559,0.71 -0.982,1.526 -1.269,2.448c-0.287,0.922 -0.431,1.881 -0.431,2.879c-0,0.997 0.166,1.942 0.499,2.834c0.332,0.891 0.801,1.67 1.405,2.335c0.605,0.664 1.33,1.186 2.176,1.564c0.847,0.378 1.799,0.566 2.857,0.566c1.148,0 2.131,-0.204 2.947,-0.612c0.816,-0.408 1.571,-1.005 2.267,-1.791l2.901,2.902c-1.058,1.179 -2.289,2.025 -3.695,2.539c-1.405,0.514 -2.894,0.771 -4.466,0.771c-1.662,-0 -3.181,-0.272 -4.556,-0.816c-1.375,-0.544 -2.562,-1.307 -3.559,-2.29c-0.998,-0.982 -1.768,-2.161 -2.312,-3.536c-0.545,-1.375 -0.817,-2.894 -0.817,-4.557c0,-1.662 0.272,-3.189 0.817,-4.579c0.544,-1.39 1.307,-2.584 2.289,-3.582c0.982,-0.997 2.161,-1.775 3.537,-2.335c1.375,-0.559 2.909,-0.838 4.601,-0.838c1.572,-0 3.076,0.279 4.512,0.838c1.435,0.56 2.682,1.413 3.74,2.562l-3.083,2.811Z" style="fill-rule:nonzero;"/>
    <path d="M416.702,666.918c-0.651,-0.846 -1.475,-1.496 -2.473,-1.952c-0.998,-0.456 -2.028,-0.683 -3.091,-0.683c-1.302,-0 -2.479,0.244 -3.531,0.732c-1.053,0.488 -1.953,1.155 -2.701,2.001c-0.749,0.846 -1.329,1.839 -1.741,2.978c-0.413,1.139 -0.619,2.359 -0.619,3.661c0,1.215 0.196,2.364 0.586,3.449c0.391,1.085 0.955,2.04 1.692,2.864c0.738,0.824 1.638,1.475 2.701,1.952c1.063,0.478 2.267,0.716 3.613,0.716c1.323,0 2.484,-0.271 3.482,-0.813c0.997,-0.543 1.844,-1.302 2.538,-2.278l2.636,1.985c-0.174,0.239 -0.478,0.58 -0.911,1.025c-0.434,0.445 -1.009,0.89 -1.725,1.334c-0.716,0.445 -1.578,0.835 -2.587,1.172c-1.009,0.336 -2.175,0.504 -3.499,0.504c-1.822,0 -3.465,-0.347 -4.93,-1.041c-1.464,-0.694 -2.712,-1.606 -3.742,-2.734c-1.031,-1.128 -1.817,-2.402 -2.359,-3.823c-0.543,-1.421 -0.814,-2.859 -0.814,-4.312c0,-1.779 0.293,-3.423 0.879,-4.93c0.585,-1.508 1.404,-2.81 2.457,-3.905c1.052,-1.096 2.316,-1.948 3.791,-2.555c1.475,-0.607 3.102,-0.911 4.881,-0.911c1.519,-0 3.01,0.293 4.475,0.878c1.464,0.586 2.663,1.487 3.596,2.701l-2.604,1.985Z" style="fill-rule:nonzero;"/>
    <path d="M436.488,684.979l-2.929,0l0,-2.375l-0.065,-0c-0.369,0.824 -1.009,1.491 -1.92,2.001c-0.911,0.51 -1.963,0.765 -3.157,0.765c-0.759,-0 -1.475,-0.114 -2.147,-0.342c-0.673,-0.228 -1.264,-0.58 -1.774,-1.057c-0.51,-0.478 -0.917,-1.091 -1.22,-1.839c-0.304,-0.748 -0.456,-1.633 -0.456,-2.652l0,-9.926l2.929,0l-0,9.112c-0,0.716 0.098,1.329 0.293,1.839c0.195,0.51 0.455,0.922 0.781,1.236c0.325,0.315 0.7,0.543 1.123,0.684c0.423,0.141 0.862,0.211 1.318,0.211c0.607,0 1.171,-0.097 1.692,-0.293c0.52,-0.195 0.976,-0.504 1.366,-0.927c0.391,-0.423 0.695,-0.96 0.912,-1.611c0.217,-0.651 0.325,-1.421 0.325,-2.31l0,-7.941l2.929,0l-0,15.425Z" style="fill-rule:nonzero;"/>
    <path d="M440.914,669.554l2.928,0l0,2.376l0.066,-0c0.195,-0.412 0.455,-0.786 0.781,-1.123c0.325,-0.336 0.688,-0.623 1.09,-0.862c0.401,-0.239 0.84,-0.429 1.318,-0.57c0.477,-0.141 0.954,-0.211 1.431,-0.211c0.478,-0 0.912,0.065 1.302,0.195l-0.13,3.157c-0.239,-0.065 -0.477,-0.12 -0.716,-0.163c-0.239,-0.043 -0.477,-0.065 -0.716,-0.065c-1.432,-0 -2.527,0.401 -3.287,1.204c-0.759,0.803 -1.139,2.05 -1.139,3.742l0,7.745l-2.928,0l-0,-15.425Z" style="fill-rule:nonzero;"/>
    <path d="M453.182,669.554l2.929,0l-0,15.425l-2.929,0l0,-15.425Zm-0.683,-5.532c-0,-0.586 0.211,-1.09 0.634,-1.513c0.423,-0.423 0.928,-0.635 1.513,-0.635c0.586,0 1.091,0.212 1.514,0.635c0.423,0.423 0.634,0.927 0.634,1.513c0,0.586 -0.211,1.09 -0.634,1.513c-0.423,0.424 -0.928,0.635 -1.514,0.635c-0.585,0 -1.09,-0.211 -1.513,-0.635c-0.423,-0.423 -0.634,-0.927 -0.634,-1.513Z" style="fill-rule:nonzero;"/>
    <path d="M462.977,678.341c0,0.672 0.147,1.285 0.44,1.838c0.292,0.554 0.678,1.026 1.155,1.416c0.477,0.391 1.03,0.694 1.659,0.911c0.63,0.217 1.28,0.326 1.953,0.326c0.911,-0 1.703,-0.212 2.376,-0.635c0.672,-0.423 1.29,-0.982 1.854,-1.676l2.213,1.692c-1.627,2.105 -3.905,3.157 -6.834,3.157c-1.214,-0 -2.315,-0.206 -3.303,-0.618c-0.987,-0.413 -1.822,-0.982 -2.505,-1.709c-0.684,-0.727 -1.21,-1.584 -1.579,-2.571c-0.368,-0.987 -0.553,-2.055 -0.553,-3.205c0,-1.15 0.201,-2.218 0.602,-3.205c0.402,-0.988 0.955,-1.845 1.66,-2.571c0.705,-0.727 1.546,-1.297 2.522,-1.709c0.976,-0.412 2.039,-0.618 3.189,-0.618c1.367,-0 2.522,0.239 3.466,0.716c0.943,0.477 1.719,1.101 2.327,1.871c0.607,0.77 1.046,1.638 1.317,2.603c0.272,0.966 0.407,1.947 0.407,2.945l0,1.042l-12.366,-0Zm9.242,-2.343c-0.021,-0.651 -0.125,-1.248 -0.309,-1.79c-0.184,-0.542 -0.461,-1.014 -0.83,-1.416c-0.369,-0.401 -0.83,-0.716 -1.383,-0.943c-0.553,-0.228 -1.198,-0.342 -1.936,-0.342c-0.716,-0 -1.372,0.136 -1.969,0.407c-0.596,0.271 -1.101,0.623 -1.513,1.057c-0.412,0.434 -0.732,0.917 -0.96,1.448c-0.228,0.532 -0.342,1.058 -0.342,1.579l9.242,-0Z" style="fill-rule:nonzero;"/>
    <path d="M496.17,672.093l-4.198,-0l0,6.996c0,0.434 0.011,0.863 0.033,1.286c0.022,0.423 0.103,0.802 0.244,1.139c0.141,0.336 0.358,0.607 0.651,0.813c0.293,0.206 0.721,0.309 1.285,0.309c0.347,0 0.705,-0.032 1.074,-0.097c0.369,-0.065 0.705,-0.185 1.009,-0.358l-0,2.668c-0.347,0.195 -0.797,0.331 -1.351,0.407c-0.553,0.076 -0.981,0.114 -1.285,0.114c-1.128,-0 -2.001,-0.157 -2.62,-0.472c-0.618,-0.315 -1.074,-0.721 -1.366,-1.22c-0.293,-0.499 -0.467,-1.058 -0.521,-1.676c-0.054,-0.618 -0.081,-1.242 -0.081,-1.871l-0,-8.038l-3.385,-0l0,-2.539l3.385,0l-0,-4.328l2.928,0l0,4.328l4.198,0l0,2.539Z" style="fill-rule:nonzero;"/>
    <path d="M502.158,678.341c0,0.672 0.146,1.285 0.439,1.838c0.293,0.554 0.678,1.026 1.156,1.416c0.477,0.391 1.03,0.694 1.659,0.911c0.629,0.217 1.28,0.326 1.953,0.326c0.911,-0 1.703,-0.212 2.375,-0.635c0.673,-0.423 1.291,-0.982 1.855,-1.676l2.213,1.692c-1.627,2.105 -3.905,3.157 -6.834,3.157c-1.215,-0 -2.316,-0.206 -3.303,-0.618c-0.987,-0.413 -1.822,-0.982 -2.506,-1.709c-0.683,-0.727 -1.209,-1.584 -1.578,-2.571c-0.369,-0.987 -0.553,-2.055 -0.553,-3.205c-0,-1.15 0.201,-2.218 0.602,-3.205c0.401,-0.988 0.955,-1.845 1.66,-2.571c0.705,-0.727 1.545,-1.297 2.522,-1.709c0.976,-0.412 2.039,-0.618 3.189,-0.618c1.367,-0 2.522,0.239 3.466,0.716c0.943,0.477 1.719,1.101 2.326,1.871c0.608,0.77 1.047,1.638 1.318,2.603c0.271,0.966 0.407,1.947 0.407,2.945l0,1.042l-12.366,-0Zm9.242,-2.343c-0.022,-0.651 -0.125,-1.248 -0.309,-1.79c-0.185,-0.542 -0.461,-1.014 -0.83,-1.416c-0.369,-0.401 -0.83,-0.716 -1.383,-0.943c-0.553,-0.228 -1.199,-0.342 -1.936,-0.342c-0.716,-0 -1.372,0.136 -1.969,0.407c-0.597,0.271 -1.101,0.623 -1.513,1.057c-0.412,0.434 -0.732,0.917 -0.96,1.448c-0.228,0.532 -0.342,1.058 -0.342,1.579l9.242,-0Z" style="fill-rule:nonzero;"/>
    <path d="M518.039,669.554l2.733,0l0,2.409l0.065,-0c0.065,-0.217 0.233,-0.489 0.505,-0.814c0.271,-0.325 0.618,-0.635 1.041,-0.927c0.423,-0.293 0.922,-0.543 1.497,-0.749c0.575,-0.206 1.209,-0.309 1.904,-0.309c1.149,-0 2.115,0.239 2.896,0.716c0.781,0.477 1.421,1.193 1.92,2.148c0.499,-0.955 1.204,-1.671 2.115,-2.148c0.911,-0.477 1.833,-0.716 2.766,-0.716c1.193,-0 2.17,0.195 2.929,0.586c0.759,0.39 1.356,0.905 1.79,1.545c0.434,0.64 0.732,1.367 0.895,2.181c0.162,0.813 0.244,1.654 0.244,2.522l-0,8.981l-2.929,0l0,-8.591c0,-0.585 -0.038,-1.15 -0.114,-1.692c-0.076,-0.542 -0.233,-1.02 -0.472,-1.432c-0.238,-0.412 -0.575,-0.743 -1.009,-0.992c-0.433,-0.25 -1.008,-0.375 -1.724,-0.375c-1.41,0 -2.419,0.434 -3.027,1.302c-0.607,0.868 -0.911,1.985 -0.911,3.352l0,8.428l-2.929,0l0,-8.07c0,-0.738 -0.038,-1.41 -0.114,-2.018c-0.076,-0.607 -0.227,-1.133 -0.455,-1.578c-0.228,-0.445 -0.553,-0.792 -0.976,-1.041c-0.423,-0.25 -0.993,-0.375 -1.709,-0.375c-0.521,0 -1.025,0.104 -1.513,0.31c-0.488,0.206 -0.917,0.515 -1.286,0.927c-0.368,0.412 -0.661,0.938 -0.878,1.578c-0.217,0.64 -0.326,1.394 -0.326,2.262l0,8.005l-2.928,0l-0,-15.425Z" style="fill-rule:nonzero;"/>
    <path d="M545.765,669.554l2.928,0l0,2.213l0.065,0c0.565,-0.824 1.34,-1.464 2.327,-1.92c0.987,-0.455 2.002,-0.683 3.043,-0.683c1.193,-0 2.272,0.206 3.238,0.618c0.965,0.412 1.79,0.987 2.473,1.725c0.683,0.738 1.21,1.6 1.578,2.587c0.369,0.987 0.554,2.045 0.554,3.173c-0,1.15 -0.185,2.218 -0.554,3.205c-0.368,0.987 -0.895,1.844 -1.578,2.571c-0.683,0.727 -1.508,1.296 -2.473,1.709c-0.966,0.412 -2.045,0.618 -3.238,0.618c-1.107,-0 -2.148,-0.233 -3.124,-0.7c-0.976,-0.466 -1.725,-1.101 -2.246,-1.903l-0.065,-0l0,11.389l-2.928,0l-0,-24.602Zm8.005,2.343c-0.781,0 -1.486,0.136 -2.115,0.407c-0.629,0.271 -1.161,0.64 -1.595,1.107c-0.434,0.466 -0.77,1.03 -1.009,1.692c-0.238,0.662 -0.358,1.383 -0.358,2.164c0,0.781 0.12,1.502 0.358,2.164c0.239,0.662 0.575,1.226 1.009,1.692c0.434,0.467 0.966,0.835 1.595,1.107c0.629,0.271 1.334,0.406 2.115,0.406c0.781,0 1.486,-0.135 2.115,-0.406c0.629,-0.272 1.161,-0.64 1.595,-1.107c0.434,-0.466 0.77,-1.03 1.009,-1.692c0.238,-0.662 0.358,-1.383 0.358,-2.164c-0,-0.781 -0.12,-1.502 -0.358,-2.164c-0.239,-0.662 -0.575,-1.226 -1.009,-1.692c-0.434,-0.467 -0.966,-0.836 -1.595,-1.107c-0.629,-0.271 -1.334,-0.407 -2.115,-0.407Z" style="fill-rule:nonzero;"/>
    <path d="M567.861,678.341c-0,0.672 0.146,1.285 0.439,1.838c0.293,0.554 0.678,1.026 1.155,1.416c0.478,0.391 1.031,0.694 1.66,0.911c0.629,0.217 1.28,0.326 1.952,0.326c0.912,-0 1.704,-0.212 2.376,-0.635c0.673,-0.423 1.291,-0.982 1.855,-1.676l2.213,1.692c-1.627,2.105 -3.905,3.157 -6.834,3.157c-1.215,-0 -2.316,-0.206 -3.303,-0.618c-0.987,-0.413 -1.822,-0.982 -2.506,-1.709c-0.683,-0.727 -1.209,-1.584 -1.578,-2.571c-0.369,-0.987 -0.553,-2.055 -0.553,-3.205c-0,-1.15 0.2,-2.218 0.602,-3.205c0.401,-0.988 0.954,-1.845 1.659,-2.571c0.705,-0.727 1.546,-1.297 2.522,-1.709c0.977,-0.412 2.04,-0.618 3.189,-0.618c1.367,-0 2.523,0.239 3.466,0.716c0.944,0.477 1.72,1.101 2.327,1.871c0.607,0.77 1.047,1.638 1.318,2.603c0.271,0.966 0.407,1.947 0.407,2.945l-0,1.042l-12.366,-0Zm9.242,-2.343c-0.022,-0.651 -0.125,-1.248 -0.309,-1.79c-0.185,-0.542 -0.461,-1.014 -0.83,-1.416c-0.369,-0.401 -0.83,-0.716 -1.383,-0.943c-0.554,-0.228 -1.199,-0.342 -1.937,-0.342c-0.716,-0 -1.372,0.136 -1.968,0.407c-0.597,0.271 -1.101,0.623 -1.514,1.057c-0.412,0.434 -0.732,0.917 -0.96,1.448c-0.227,0.532 -0.341,1.058 -0.341,1.579l9.242,-0Z" style="fill-rule:nonzero;"/>
    <path d="M583.741,669.554l2.929,0l0,2.376l0.065,-0c0.195,-0.412 0.456,-0.786 0.781,-1.123c0.326,-0.336 0.689,-0.623 1.09,-0.862c0.402,-0.239 0.841,-0.429 1.318,-0.57c0.478,-0.141 0.955,-0.211 1.432,-0.211c0.477,-0 0.911,0.065 1.302,0.195l-0.13,3.157c-0.239,-0.065 -0.478,-0.12 -0.716,-0.163c-0.239,-0.043 -0.478,-0.065 -0.716,-0.065c-1.432,-0 -2.528,0.401 -3.287,1.204c-0.759,0.803 -1.139,2.05 -1.139,3.742l0,7.745l-2.929,0l0,-15.425Z" style="fill-rule:nonzero;"/>
    <path d="M595.847,671.442c0.824,-0.759 1.779,-1.329 2.864,-1.709c1.084,-0.379 2.169,-0.569 3.254,-0.569c1.128,-0 2.099,0.141 2.912,0.423c0.814,0.282 1.481,0.662 2.002,1.139c0.52,0.477 0.906,1.025 1.155,1.643c0.25,0.619 0.374,1.264 0.374,1.937l0,7.875c0,0.542 0.011,1.041 0.033,1.497c0.022,0.455 0.054,0.889 0.097,1.301l-2.603,0c-0.065,-0.781 -0.098,-1.562 -0.098,-2.343l-0.065,0c-0.65,0.998 -1.421,1.703 -2.31,2.116c-0.89,0.412 -1.92,0.618 -3.092,0.618c-0.716,-0 -1.399,-0.098 -2.05,-0.293c-0.651,-0.195 -1.22,-0.488 -1.708,-0.879c-0.488,-0.39 -0.873,-0.873 -1.156,-1.448c-0.282,-0.575 -0.423,-1.242 -0.423,-2.001c0,-0.998 0.223,-1.833 0.668,-2.506c0.444,-0.672 1.052,-1.22 1.822,-1.643c0.77,-0.423 1.67,-0.727 2.701,-0.911c1.03,-0.185 2.131,-0.277 3.303,-0.277l2.148,0l-0,-0.651c-0,-0.39 -0.076,-0.781 -0.228,-1.171c-0.152,-0.391 -0.38,-0.743 -0.683,-1.058c-0.304,-0.315 -0.684,-0.564 -1.139,-0.748c-0.456,-0.185 -0.998,-0.277 -1.628,-0.277c-0.564,-0 -1.057,0.054 -1.48,0.163c-0.423,0.108 -0.808,0.244 -1.155,0.406c-0.348,0.163 -0.662,0.353 -0.944,0.57c-0.282,0.217 -0.553,0.423 -0.814,0.618l-1.757,-1.822Zm8.266,6.118c-0.695,-0 -1.405,0.038 -2.132,0.114c-0.727,0.076 -1.388,0.222 -1.985,0.439c-0.596,0.217 -1.085,0.521 -1.464,0.911c-0.38,0.391 -0.57,0.89 -0.57,1.497c0,0.89 0.299,1.53 0.895,1.92c0.597,0.391 1.405,0.586 2.425,0.586c0.802,-0 1.486,-0.136 2.05,-0.407c0.564,-0.271 1.019,-0.624 1.366,-1.058c0.348,-0.433 0.597,-0.916 0.749,-1.448c0.152,-0.531 0.228,-1.057 0.228,-1.578l-0,-0.976l-1.562,-0Z" style="fill-rule:nonzero;"/>
    <path d="M620.937,672.093l-4.198,-0l0,6.996c0,0.434 0.011,0.863 0.033,1.286c0.021,0.423 0.103,0.802 0.244,1.139c0.141,0.336 0.358,0.607 0.651,0.813c0.292,0.206 0.721,0.309 1.285,0.309c0.347,0 0.705,-0.032 1.074,-0.097c0.369,-0.065 0.705,-0.185 1.009,-0.358l-0,2.668c-0.347,0.195 -0.798,0.331 -1.351,0.407c-0.553,0.076 -0.982,0.114 -1.285,0.114c-1.128,-0 -2.002,-0.157 -2.62,-0.472c-0.618,-0.315 -1.074,-0.721 -1.367,-1.22c-0.293,-0.499 -0.466,-1.058 -0.52,-1.676c-0.055,-0.618 -0.082,-1.242 -0.082,-1.871l0,-8.038l-3.384,-0l-0,-2.539l3.384,0l0,-4.328l2.929,0l0,4.328l4.198,0l0,2.539Z" style="fill-rule:nonzero;"/>
    <path d="M638.38,684.979l-2.929,0l-0,-2.375l-0.065,-0c-0.369,0.824 -1.009,1.491 -1.92,2.001c-0.911,0.51 -1.964,0.765 -3.157,0.765c-0.759,-0 -1.475,-0.114 -2.148,-0.342c-0.672,-0.228 -1.263,-0.58 -1.773,-1.057c-0.51,-0.478 -0.917,-1.091 -1.22,-1.839c-0.304,-0.748 -0.456,-1.633 -0.456,-2.652l-0,-9.926l2.929,0l-0,9.112c-0,0.716 0.097,1.329 0.293,1.839c0.195,0.51 0.455,0.922 0.781,1.236c0.325,0.315 0.699,0.543 1.122,0.684c0.423,0.141 0.863,0.211 1.318,0.211c0.608,0 1.172,-0.097 1.692,-0.293c0.521,-0.195 0.977,-0.504 1.367,-0.927c0.391,-0.423 0.694,-0.96 0.911,-1.611c0.217,-0.651 0.326,-1.421 0.326,-2.31l-0,-7.941l2.929,0l-0,15.425Z" style="fill-rule:nonzero;"/>
    <path d="M642.805,669.554l2.929,0l0,2.376l0.065,-0c0.196,-0.412 0.456,-0.786 0.781,-1.123c0.326,-0.336 0.689,-0.623 1.09,-0.862c0.402,-0.239 0.841,-0.429 1.318,-0.57c0.478,-0.141 0.955,-0.211 1.432,-0.211c0.478,-0 0.911,0.065 1.302,0.195l-0.13,3.157c-0.239,-0.065 -0.478,-0.12 -0.716,-0.163c-0.239,-0.043 -0.477,-0.065 -0.716,-0.065c-1.432,-0 -2.528,0.401 -3.287,1.204c-0.759,0.803 -1.139,2.05 -1.139,3.742l0,7.745l-2.929,0l0,-15.425Z" style="fill-rule:nonzero;"/>
    <path d="M656.473,678.341c0,0.672 0.147,1.285 0.439,1.838c0.293,0.554 0.678,1.026 1.156,1.416c0.477,0.391 1.03,0.694 1.659,0.911c0.629,0.217 1.28,0.326 1.953,0.326c0.911,-0 1.703,-0.212 2.375,-0.635c0.673,-0.423 1.291,-0.982 1.855,-1.676l2.213,1.692c-1.627,2.105 -3.905,3.157 -6.834,3.157c-1.215,-0 -2.316,-0.206 -3.303,-0.618c-0.987,-0.413 -1.822,-0.982 -2.505,-1.709c-0.684,-0.727 -1.21,-1.584 -1.579,-2.571c-0.369,-0.987 -0.553,-2.055 -0.553,-3.205c0,-1.15 0.201,-2.218 0.602,-3.205c0.401,-0.988 0.955,-1.845 1.66,-2.571c0.705,-0.727 1.545,-1.297 2.522,-1.709c0.976,-0.412 2.039,-0.618 3.189,-0.618c1.367,-0 2.522,0.239 3.466,0.716c0.943,0.477 1.719,1.101 2.326,1.871c0.608,0.77 1.047,1.638 1.318,2.603c0.272,0.966 0.407,1.947 0.407,2.945l0,1.042l-12.366,-0Zm9.242,-2.343c-0.022,-0.651 -0.125,-1.248 -0.309,-1.79c-0.184,-0.542 -0.461,-1.014 -0.83,-1.416c-0.369,-0.401 -0.83,-0.716 -1.383,-0.943c-0.553,-0.228 -1.199,-0.342 -1.936,-0.342c-0.716,-0 -1.372,0.136 -1.969,0.407c-0.597,0.271 -1.101,0.623 -1.513,1.057c-0.412,0.434 -0.732,0.917 -0.96,1.448c-0.228,0.532 -0.342,1.058 -0.342,1.579l9.242,-0Z" style="fill-rule:nonzero;"/>
    <path d="M649.023,702.718c5.077,2.142 10.144,4.157 15.593,5.197c15.487,2.957 29.176,-3.325 41.126,-12.759" style="fill:none;stroke:black;stroke-width:10.87px;"/>
    <path d="M705.742,695.156l-11.329,-4.083" style="fill:none;stroke:black;stroke-width:10.87px;"/>
    <path d="M705.742,695.156l-1.456,13.961" style="fill:none;stroke:black;stroke-width:10.87px;"/>
    <path d="M12.174,562.445l0,-4.333l3.817,0l0,-0.103c-0.343,-0.103 -0.773,-0.37 -1.289,-0.799c-0.516,-0.43 -1.006,-0.981 -1.47,-1.651c-0.465,-0.671 -0.86,-1.462 -1.187,-2.373c-0.327,-0.911 -0.49,-1.917 -0.49,-3.018c0,-1.823 0.378,-3.353 1.135,-4.591c0.757,-1.238 1.891,-2.252 3.405,-3.043c-1.514,-0.791 -2.648,-1.909 -3.405,-3.354c-0.757,-1.444 -1.135,-2.905 -1.135,-4.384c0,-1.892 0.31,-3.439 0.929,-4.643c0.619,-1.204 1.435,-2.149 2.45,-2.837c1.014,-0.688 2.167,-1.161 3.456,-1.419c1.29,-0.258 2.622,-0.387 3.998,-0.387l14.238,0l-0,4.643l-13.619,0c-0.928,0 -1.823,0.06 -2.682,0.181c-0.86,0.12 -1.617,0.369 -2.27,0.748c-0.654,0.378 -1.178,0.911 -1.573,1.599c-0.396,0.688 -0.594,1.599 -0.594,2.734c0,2.235 0.688,3.834 2.064,4.797c1.375,0.963 3.146,1.445 5.313,1.445l13.361,-0l-0,4.642l-12.794,0c-1.169,0 -2.235,0.06 -3.198,0.181c-0.963,0.12 -1.797,0.361 -2.502,0.722c-0.705,0.361 -1.255,0.877 -1.65,1.548c-0.396,0.67 -0.594,1.573 -0.594,2.708c0,0.825 0.164,1.625 0.49,2.399c0.327,0.773 0.817,1.452 1.471,2.037c0.653,0.585 1.487,1.049 2.501,1.393c1.015,0.344 2.21,0.516 3.586,0.516l12.69,-0l-0,4.642l-24.452,0Z" style="fill-rule:nonzero;"/>
    <path d="M26.102,514.987c1.066,-0 2.038,-0.232 2.915,-0.696c0.877,-0.465 1.625,-1.075 2.244,-1.832c0.619,-0.756 1.1,-1.633 1.444,-2.631c0.344,-0.997 0.516,-2.029 0.516,-3.095c-0,-1.444 -0.335,-2.699 -1.006,-3.765c-0.671,-1.067 -1.556,-2.047 -2.657,-2.941l2.683,-3.508c3.336,2.58 5.004,6.191 5.004,10.833c-0,1.926 -0.327,3.671 -0.981,5.236c-0.653,1.565 -1.556,2.889 -2.708,3.972c-1.152,1.084 -2.51,1.918 -4.075,2.502c-1.565,0.585 -3.258,0.877 -5.081,0.877c-1.823,0 -3.517,-0.318 -5.081,-0.954c-1.565,-0.636 -2.923,-1.513 -4.076,-2.631c-1.152,-1.118 -2.054,-2.45 -2.708,-3.998c-0.653,-1.547 -0.98,-3.233 -0.98,-5.055c0,-2.167 0.378,-3.998 1.135,-5.494c0.757,-1.496 1.745,-2.726 2.966,-3.688c1.221,-0.963 2.597,-1.66 4.127,-2.09c1.53,-0.43 3.087,-0.644 4.668,-0.644l1.651,-0l0,19.602Zm-3.714,-14.65c-1.032,0.034 -1.977,0.197 -2.837,0.49c-0.86,0.292 -1.608,0.731 -2.244,1.315c-0.636,0.585 -1.135,1.316 -1.496,2.193c-0.361,0.877 -0.542,1.9 -0.542,3.069c0,1.135 0.215,2.175 0.645,3.121c0.43,0.946 0.989,1.745 1.677,2.399c0.687,0.653 1.453,1.16 2.295,1.521c0.843,0.361 1.677,0.542 2.502,0.542l0,-14.65Z" style="fill-rule:nonzero;"/>
    <path d="M15.166,489.71c-1.204,-1.307 -2.106,-2.82 -2.708,-4.539c-0.602,-1.72 -0.903,-3.439 -0.903,-5.159c0,-1.788 0.224,-3.327 0.671,-4.617c0.447,-1.289 1.049,-2.347 1.805,-3.172c0.757,-0.826 1.625,-1.436 2.605,-1.832c0.98,-0.395 2.004,-0.593 3.07,-0.593l12.483,0c0.86,0 1.651,-0.017 2.373,-0.051c0.722,-0.035 1.41,-0.086 2.064,-0.155l-0,4.127c-1.238,0.103 -2.476,0.154 -3.715,0.154l0,0.104c1.582,1.031 2.7,2.252 3.353,3.662c0.654,1.41 0.981,3.044 0.981,4.901c-0,1.135 -0.155,2.218 -0.465,3.25c-0.309,1.031 -0.773,1.934 -1.392,2.708c-0.619,0.774 -1.385,1.384 -2.296,1.831c-0.911,0.447 -1.969,0.671 -3.172,0.671c-1.582,-0 -2.906,-0.353 -3.973,-1.058c-1.066,-0.705 -1.934,-1.668 -2.605,-2.889c-0.67,-1.22 -1.152,-2.648 -1.444,-4.281c-0.292,-1.634 -0.438,-3.379 -0.438,-5.236l-0,-3.405l-1.032,0c-0.619,0 -1.238,0.121 -1.857,0.361c-0.619,0.241 -1.178,0.602 -1.677,1.084c-0.498,0.481 -0.894,1.083 -1.186,1.805c-0.293,0.722 -0.439,1.582 -0.439,2.579c0,0.895 0.086,1.677 0.258,2.348c0.172,0.67 0.387,1.281 0.645,1.831c0.258,0.55 0.559,1.049 0.903,1.496c0.344,0.447 0.67,0.877 0.98,1.29l-2.889,2.785Zm9.698,-13.103c0,1.101 0.06,2.227 0.181,3.379c0.12,1.152 0.352,2.201 0.696,3.147c0.344,0.946 0.825,1.72 1.444,2.321c0.62,0.602 1.41,0.903 2.373,0.903c1.41,0 2.425,-0.473 3.044,-1.419c0.619,-0.945 0.928,-2.226 0.928,-3.843c0,-1.272 -0.214,-2.355 -0.644,-3.249c-0.43,-0.895 -0.989,-1.617 -1.677,-2.167c-0.688,-0.55 -1.453,-0.946 -2.295,-1.187c-0.843,-0.24 -1.677,-0.361 -2.502,-0.361l-1.548,0l0,2.476Z" style="fill-rule:nonzero;"/>
    <path d="M12.174,463.041l0,-4.643l3.766,-0l-0,-0.103c-1.307,-0.585 -2.364,-1.599 -3.173,-3.044c-0.808,-1.444 -1.212,-3.112 -1.212,-5.004c0,-1.169 0.181,-2.295 0.542,-3.379c0.361,-1.083 0.92,-2.029 1.676,-2.837c0.757,-0.808 1.728,-1.453 2.915,-1.934c1.186,-0.482 2.588,-0.722 4.204,-0.722l15.734,-0l-0,4.642l-14.444,0c-1.135,0 -2.107,0.155 -2.915,0.465c-0.808,0.309 -1.461,0.722 -1.96,1.238c-0.499,0.516 -0.86,1.109 -1.083,1.779c-0.224,0.671 -0.336,1.367 -0.336,2.09c0,0.962 0.155,1.857 0.465,2.682c0.309,0.825 0.799,1.548 1.47,2.167c0.67,0.619 1.522,1.1 2.553,1.444c1.032,0.344 2.253,0.516 3.663,0.516l12.587,-0l-0,4.643l-24.452,-0Z" style="fill-rule:nonzero;"/>
    <path d="M12.174,420.018l0,-4.333l3.817,0l0,-0.103c-0.343,-0.103 -0.773,-0.37 -1.289,-0.8c-0.516,-0.429 -1.006,-0.98 -1.47,-1.65c-0.465,-0.671 -0.86,-1.462 -1.187,-2.373c-0.327,-0.912 -0.49,-1.918 -0.49,-3.018c0,-1.823 0.378,-3.353 1.135,-4.591c0.757,-1.238 1.891,-2.253 3.405,-3.044c-1.514,-0.791 -2.648,-1.908 -3.405,-3.353c-0.757,-1.444 -1.135,-2.906 -1.135,-4.384c0,-1.892 0.31,-3.439 0.929,-4.643c0.619,-1.204 1.435,-2.149 2.45,-2.837c1.014,-0.688 2.167,-1.161 3.456,-1.419c1.29,-0.258 2.622,-0.387 3.998,-0.387l14.238,0l-0,4.643l-13.619,-0c-0.928,-0 -1.823,0.06 -2.682,0.18c-0.86,0.121 -1.617,0.37 -2.27,0.748c-0.654,0.379 -1.178,0.912 -1.573,1.6c-0.396,0.687 -0.594,1.599 -0.594,2.734c0,2.235 0.688,3.834 2.064,4.797c1.375,0.963 3.146,1.444 5.313,1.444l13.361,0l-0,4.643l-12.794,0c-1.169,0 -2.235,0.06 -3.198,0.181c-0.963,0.12 -1.797,0.361 -2.502,0.722c-0.705,0.361 -1.255,0.877 -1.65,1.547c-0.396,0.671 -0.594,1.574 -0.594,2.709c0,0.825 0.164,1.625 0.49,2.398c0.327,0.774 0.817,1.453 1.471,2.038c0.653,0.585 1.487,1.049 2.501,1.393c1.015,0.344 2.21,0.516 3.586,0.516l12.69,-0l-0,4.642l-24.452,0Z" style="fill-rule:nonzero;"/>
    <path d="M15.166,375.964c-1.204,-1.306 -2.106,-2.82 -2.708,-4.539c-0.602,-1.72 -0.903,-3.439 -0.903,-5.159c0,-1.788 0.224,-3.327 0.671,-4.616c0.447,-1.29 1.049,-2.348 1.805,-3.173c0.757,-0.825 1.625,-1.436 2.605,-1.831c0.98,-0.396 2.004,-0.594 3.07,-0.594l12.483,0c0.86,0 1.651,-0.017 2.373,-0.051c0.722,-0.034 1.41,-0.086 2.064,-0.155l-0,4.127c-1.238,0.103 -2.476,0.155 -3.715,0.155l0,0.103c1.582,1.032 2.7,2.252 3.353,3.662c0.654,1.41 0.981,3.044 0.981,4.901c-0,1.135 -0.155,2.218 -0.465,3.25c-0.309,1.032 -0.773,1.934 -1.392,2.708c-0.619,0.774 -1.385,1.384 -2.296,1.831c-0.911,0.448 -1.969,0.671 -3.172,0.671c-1.582,0 -2.906,-0.352 -3.973,-1.057c-1.066,-0.705 -1.934,-1.668 -2.605,-2.889c-0.67,-1.221 -1.152,-2.648 -1.444,-4.282c-0.292,-1.633 -0.438,-3.379 -0.438,-5.236l-0,-3.404l-1.032,-0c-0.619,-0 -1.238,0.12 -1.857,0.361c-0.619,0.24 -1.178,0.602 -1.677,1.083c-0.498,0.482 -0.894,1.083 -1.186,1.806c-0.293,0.722 -0.439,1.581 -0.439,2.579c0,0.894 0.086,1.676 0.258,2.347c0.172,0.671 0.387,1.281 0.645,1.831c0.258,0.55 0.559,1.049 0.903,1.496c0.344,0.447 0.67,0.877 0.98,1.29l-2.889,2.785Zm9.698,-13.102c0,1.1 0.06,2.227 0.181,3.379c0.12,1.152 0.352,2.201 0.696,3.146c0.344,0.946 0.825,1.72 1.444,2.322c0.62,0.601 1.41,0.902 2.373,0.902c1.41,0 2.425,-0.472 3.044,-1.418c0.619,-0.946 0.928,-2.227 0.928,-3.843c0,-1.273 -0.214,-2.356 -0.644,-3.25c-0.43,-0.894 -0.989,-1.617 -1.677,-2.167c-0.688,-0.55 -1.453,-0.946 -2.295,-1.186c-0.843,-0.241 -1.677,-0.361 -2.502,-0.361l-1.548,-0l0,2.476Z" style="fill-rule:nonzero;"/>
    <path d="M36.419,324.792c1.857,-0 3.551,0.318 5.081,0.954c1.531,0.636 2.855,1.539 3.972,2.708c1.118,1.17 1.987,2.58 2.606,4.23c0.619,1.651 0.928,3.474 0.928,5.468c0,2.339 -0.327,4.48 -0.98,6.423c-0.653,1.943 -1.788,3.791 -3.405,5.545l-3.92,-3.147c1.307,-1.203 2.295,-2.51 2.966,-3.92c0.671,-1.41 1.006,-3.009 1.006,-4.797c-0,-1.72 -0.249,-3.147 -0.748,-4.282c-0.499,-1.135 -1.144,-2.038 -1.935,-2.708c-0.791,-0.671 -1.693,-1.144 -2.708,-1.419c-1.014,-0.275 -2.037,-0.413 -3.069,-0.413l-3.611,0l-0,0.155c1.479,0.894 2.571,2.107 3.276,3.637c0.705,1.53 1.057,3.138 1.057,4.823c0,1.788 -0.318,3.448 -0.954,4.978c-0.636,1.531 -1.513,2.846 -2.631,3.946c-1.118,1.101 -2.442,1.961 -3.972,2.58c-1.531,0.619 -3.19,0.928 -4.978,0.928c-1.788,0 -3.465,-0.292 -5.03,-0.877c-1.564,-0.584 -2.931,-1.418 -4.101,-2.502c-1.169,-1.083 -2.08,-2.39 -2.734,-3.92c-0.653,-1.53 -0.98,-3.241 -0.98,-5.133c0,-1.651 0.361,-3.258 1.083,-4.823c0.723,-1.565 1.737,-2.794 3.044,-3.688l-0,-0.104l-3.508,0l0,-4.642l24.245,-0Zm-20.531,12.69c0,1.238 0.215,2.355 0.645,3.353c0.43,0.997 1.015,1.84 1.754,2.527c0.739,0.688 1.634,1.221 2.682,1.6c1.049,0.378 2.193,0.567 3.431,0.567c2.476,0 4.462,-0.722 5.958,-2.167c1.496,-1.444 2.244,-3.404 2.244,-5.88c-0,-2.476 -0.748,-4.437 -2.244,-5.881c-1.496,-1.444 -3.482,-2.167 -5.958,-2.167c-1.238,0 -2.382,0.19 -3.431,0.568c-1.048,0.378 -1.943,0.911 -2.682,1.599c-0.739,0.688 -1.324,1.53 -1.754,2.528c-0.43,0.997 -0.645,2.115 -0.645,3.353Z" style="fill-rule:nonzero;"/>
    <path d="M12.174,317.776l0,-4.643l3.766,0l-0,-0.103c-1.307,-0.584 -2.364,-1.599 -3.173,-3.043c-0.808,-1.445 -1.212,-3.113 -1.212,-5.004c0,-1.169 0.181,-2.296 0.542,-3.379c0.361,-1.083 0.92,-2.029 1.676,-2.837c0.757,-0.808 1.728,-1.453 2.915,-1.934c1.186,-0.482 2.588,-0.723 4.204,-0.723l15.734,0l-0,4.643l-14.444,0c-1.135,0 -2.107,0.155 -2.915,0.464c-0.808,0.31 -1.461,0.722 -1.96,1.238c-0.499,0.516 -0.86,1.109 -1.083,1.78c-0.224,0.671 -0.336,1.367 -0.336,2.089c0,0.963 0.155,1.857 0.465,2.683c0.309,0.825 0.799,1.547 1.47,2.166c0.67,0.619 1.522,1.101 2.553,1.445c1.032,0.344 2.253,0.515 3.663,0.515l12.587,0l-0,4.643l-24.452,0Z" style="fill-rule:nonzero;"/>
    <path d="M26.102,285.587c1.066,-0 2.038,-0.232 2.915,-0.696c0.877,-0.465 1.625,-1.075 2.244,-1.832c0.619,-0.756 1.1,-1.633 1.444,-2.631c0.344,-0.997 0.516,-2.029 0.516,-3.095c-0,-1.444 -0.335,-2.699 -1.006,-3.765c-0.671,-1.067 -1.556,-2.047 -2.657,-2.941l2.683,-3.508c3.336,2.58 5.004,6.191 5.004,10.833c-0,1.926 -0.327,3.671 -0.981,5.236c-0.653,1.565 -1.556,2.889 -2.708,3.972c-1.152,1.084 -2.51,1.918 -4.075,2.502c-1.565,0.585 -3.258,0.877 -5.081,0.877c-1.823,0 -3.517,-0.318 -5.081,-0.954c-1.565,-0.636 -2.923,-1.513 -4.076,-2.631c-1.152,-1.118 -2.054,-2.45 -2.708,-3.998c-0.653,-1.548 -0.98,-3.233 -0.98,-5.055c0,-2.167 0.378,-3.998 1.135,-5.494c0.757,-1.496 1.745,-2.726 2.966,-3.689c1.221,-0.962 2.597,-1.659 4.127,-2.089c1.53,-0.43 3.087,-0.645 4.668,-0.645l1.651,0l0,19.603Zm-3.714,-14.65c-1.032,0.034 -1.977,0.197 -2.837,0.49c-0.86,0.292 -1.608,0.731 -2.244,1.315c-0.636,0.585 -1.135,1.316 -1.496,2.193c-0.361,0.876 -0.542,1.9 -0.542,3.069c0,1.135 0.215,2.175 0.645,3.121c0.43,0.946 0.989,1.745 1.677,2.398c0.687,0.654 1.453,1.161 2.295,1.522c0.843,0.361 1.677,0.542 2.502,0.542l0,-14.65Z" style="fill-rule:nonzero;"/>
    <path d="M16.198,247.311l-0,6.654l11.091,0c0.687,0 1.367,-0.017 2.037,-0.051c0.671,-0.035 1.273,-0.164 1.806,-0.387c0.533,-0.224 0.963,-0.568 1.289,-1.032c0.327,-0.464 0.49,-1.144 0.49,-2.038c0,-0.55 -0.051,-1.117 -0.154,-1.702c-0.103,-0.585 -0.293,-1.118 -0.568,-1.599l4.23,-0c0.31,0.55 0.525,1.264 0.645,2.141c0.12,0.877 0.181,1.556 0.181,2.037c-0,1.789 -0.25,3.173 -0.748,4.153c-0.499,0.98 -1.144,1.702 -1.935,2.166c-0.791,0.465 -1.676,0.74 -2.656,0.826c-0.981,0.086 -1.969,0.129 -2.967,0.129l-12.741,-0l-0,5.365l-4.024,-0l0,-5.365l-6.861,-0l0,-4.643l6.861,0l0,-6.654l4.024,-0Z" style="fill-rule:nonzero;"/>
    <path d="M12.174,240.966l0,-4.643l24.452,-0l-0,4.643l-24.452,-0Zm-8.769,1.083c-0.929,-0 -1.728,-0.335 -2.399,-1.006c-0.671,-0.671 -1.006,-1.47 -1.006,-2.399c0,-0.928 0.335,-1.728 1.006,-2.398c0.671,-0.671 1.47,-1.006 2.399,-1.006c0.928,-0 1.728,0.335 2.398,1.006c0.671,0.67 1.006,1.47 1.006,2.398c0,0.929 -0.335,1.728 -1.006,2.399c-0.67,0.671 -1.47,1.006 -2.398,1.006Z" style="fill-rule:nonzero;"/>
    <path d="M32.447,230.649l-16.249,-13.877l-0,13.412l-4.024,0l0,-19.086l4.127,-0l16.301,13.979l-0,-14.702l4.024,0l-0,20.274l-4.179,-0Z" style="fill-rule:nonzero;"/>
    <path d="M15.166,204.959c-1.204,-1.307 -2.106,-2.82 -2.708,-4.54c-0.602,-1.719 -0.903,-3.439 -0.903,-5.158c0,-1.788 0.224,-3.327 0.671,-4.617c0.447,-1.29 1.049,-2.347 1.805,-3.172c0.757,-0.826 1.625,-1.436 2.605,-1.832c0.98,-0.395 2.004,-0.593 3.07,-0.593l12.483,0c0.86,0 1.651,-0.017 2.373,-0.052c0.722,-0.034 1.41,-0.085 2.064,-0.154l-0,4.127c-1.238,0.103 -2.476,0.154 -3.715,0.154l0,0.103c1.582,1.032 2.7,2.253 3.353,3.663c0.654,1.41 0.981,3.044 0.981,4.901c-0,1.135 -0.155,2.218 -0.465,3.25c-0.309,1.031 -0.773,1.934 -1.392,2.708c-0.619,0.774 -1.385,1.384 -2.296,1.831c-0.911,0.447 -1.969,0.671 -3.172,0.671c-1.582,-0 -2.906,-0.353 -3.973,-1.058c-1.066,-0.705 -1.934,-1.668 -2.605,-2.889c-0.67,-1.22 -1.152,-2.648 -1.444,-4.281c-0.292,-1.634 -0.438,-3.379 -0.438,-5.236l-0,-3.405l-1.032,0c-0.619,0 -1.238,0.121 -1.857,0.361c-0.619,0.241 -1.178,0.602 -1.677,1.084c-0.498,0.481 -0.894,1.083 -1.186,1.805c-0.293,0.722 -0.439,1.582 -0.439,2.579c0,0.895 0.086,1.677 0.258,2.348c0.172,0.67 0.387,1.281 0.645,1.831c0.258,0.55 0.559,1.049 0.903,1.496c0.344,0.447 0.67,0.877 0.98,1.289l-2.889,2.786Zm9.698,-13.103c0,1.101 0.06,2.227 0.181,3.379c0.12,1.152 0.352,2.201 0.696,3.147c0.344,0.946 0.825,1.719 1.444,2.321c0.62,0.602 1.41,0.903 2.373,0.903c1.41,-0 2.425,-0.473 3.044,-1.419c0.619,-0.945 0.928,-2.226 0.928,-3.843c0,-1.272 -0.214,-2.355 -0.644,-3.25c-0.43,-0.894 -0.989,-1.616 -1.677,-2.166c-0.688,-0.55 -1.453,-0.946 -2.295,-1.187c-0.843,-0.24 -1.677,-0.361 -2.502,-0.361l-1.548,0l0,2.476Z" style="fill-rule:nonzero;"/>
    <path d="M16.198,165.187l-0,6.654l11.091,0c0.687,0 1.367,-0.017 2.037,-0.051c0.671,-0.035 1.273,-0.164 1.806,-0.387c0.533,-0.224 0.963,-0.568 1.289,-1.032c0.327,-0.464 0.49,-1.143 0.49,-2.038c0,-0.55 -0.051,-1.117 -0.154,-1.702c-0.103,-0.585 -0.293,-1.118 -0.568,-1.599l4.23,-0c0.31,0.55 0.525,1.264 0.645,2.141c0.12,0.877 0.181,1.556 0.181,2.037c-0,1.789 -0.25,3.173 -0.748,4.153c-0.499,0.98 -1.144,1.702 -1.935,2.167c-0.791,0.464 -1.676,0.739 -2.656,0.825c-0.981,0.086 -1.969,0.129 -2.967,0.129l-12.741,-0l-0,5.365l-4.024,-0l0,-5.365l-6.861,-0l0,-4.643l6.861,0l0,-6.654l4.024,-0Z" style="fill-rule:nonzero;"/>
    <path d="M12.174,158.842l0,-4.643l24.452,0l-0,4.643l-24.452,-0Zm-8.769,1.083c-0.929,0 -1.728,-0.335 -2.399,-1.006c-0.671,-0.671 -1.006,-1.47 -1.006,-2.399c0,-0.928 0.335,-1.728 1.006,-2.398c0.671,-0.671 1.47,-1.006 2.399,-1.006c0.928,-0 1.728,0.335 2.398,1.006c0.671,0.67 1.006,1.47 1.006,2.398c0,0.929 -0.335,1.728 -1.006,2.399c-0.67,0.671 -1.47,1.006 -2.398,1.006Z" style="fill-rule:nonzero;"/>
    <path d="M24.4,143.057c1.238,-0 2.381,-0.19 3.43,-0.568c1.049,-0.378 1.943,-0.911 2.683,-1.599c0.739,-0.688 1.324,-1.53 1.754,-2.528c0.43,-0.997 0.644,-2.115 0.644,-3.353c0,-1.238 -0.214,-2.355 -0.644,-3.353c-0.43,-0.997 -1.015,-1.84 -1.754,-2.527c-0.74,-0.688 -1.634,-1.221 -2.683,-1.6c-1.049,-0.378 -2.192,-0.567 -3.43,-0.567c-1.238,-0 -2.382,0.189 -3.431,0.567c-1.048,0.379 -1.943,0.912 -2.682,1.6c-0.739,0.687 -1.324,1.53 -1.754,2.527c-0.43,0.998 -0.645,2.115 -0.645,3.353c0,1.238 0.215,2.356 0.645,3.353c0.43,0.998 1.015,1.84 1.754,2.528c0.739,0.688 1.634,1.221 2.682,1.599c1.049,0.378 2.193,0.568 3.431,0.568Zm-0,4.952c-1.788,-0 -3.456,-0.336 -5.004,-1.006c-1.547,-0.671 -2.906,-1.591 -4.075,-2.76c-1.169,-1.169 -2.089,-2.545 -2.76,-4.127c-0.671,-1.582 -1.006,-3.284 -1.006,-5.107c0,-1.822 0.335,-3.525 1.006,-5.107c0.671,-1.582 1.591,-2.957 2.76,-4.126c1.169,-1.17 2.528,-2.09 4.075,-2.76c1.548,-0.671 3.216,-1.006 5.004,-1.006c1.788,-0 3.465,0.335 5.029,1.006c1.565,0.67 2.924,1.59 4.076,2.76c1.152,1.169 2.063,2.544 2.734,4.126c0.67,1.582 1.006,3.285 1.006,5.107c-0,1.823 -0.336,3.525 -1.006,5.107c-0.671,1.582 -1.582,2.958 -2.734,4.127c-1.152,1.169 -2.511,2.089 -4.076,2.76c-1.564,0.67 -3.241,1.006 -5.029,1.006Z" style="fill-rule:nonzero;"/>
    <path d="M12.174,116.181l0,-4.643l3.766,-0l-0,-0.103c-1.307,-0.585 -2.364,-1.599 -3.173,-3.044c-0.808,-1.444 -1.212,-3.112 -1.212,-5.004c0,-1.169 0.181,-2.295 0.542,-3.378c0.361,-1.084 0.92,-2.029 1.676,-2.838c0.757,-0.808 1.728,-1.453 2.915,-1.934c1.186,-0.481 2.588,-0.722 4.204,-0.722l15.734,-0l-0,4.642l-14.444,0c-1.135,0 -2.107,0.155 -2.915,0.465c-0.808,0.309 -1.461,0.722 -1.96,1.238c-0.499,0.516 -0.86,1.109 -1.083,1.779c-0.224,0.671 -0.336,1.367 -0.336,2.09c0,0.963 0.155,1.857 0.465,2.682c0.309,0.825 0.799,1.548 1.47,2.167c0.67,0.619 1.522,1.1 2.553,1.444c1.032,0.344 2.253,0.516 3.663,0.516l12.587,-0l-0,4.643l-24.452,-0Z" style="fill-rule:nonzero;"/>
    <path d="M0.103,72.333l0,-7.377l27.65,-11.606l-0,-0.207l-27.65,-11.503l0,-7.377l36.523,0l-0,4.952l-30.023,0l-0,0.103l30.023,12.329l-0,3.302l-30.023,12.329l-0,0.103l30.023,-0l-0,4.952l-36.523,0Z" style="fill-rule:nonzero;"/>
    <path d="M136.35,151.257c578.603,4.708 602.192,-69.23 606.37,457.556" style="fill:none;stroke:rgb(206,46,100);stroke-width:10.87px;"/>
</svg>
