<?xml version="1.0" encoding="utf-8" standalone="no"?>
<!DOCTYPE svg PUBLIC "-//W3C//DTD SVG 1.1//EN"
  "http://www.w3.org/Graphics/SVG/1.1/DTD/svg11.dtd">
<svg xmlns:xlink="http://www.w3.org/1999/xlink" width="460.8pt" height="345.6pt" viewBox="0 0 460.8 345.6" xmlns="http://www.w3.org/2000/svg" version="1.1">
 <metadata>
  <rdf:RDF xmlns:dc="http://purl.org/dc/elements/1.1/" xmlns:cc="http://creativecommons.org/ns#" xmlns:rdf="http://www.w3.org/1999/02/22-rdf-syntax-ns#">
   <cc:Work>
    <dc:type rdf:resource="http://purl.org/dc/dcmitype/StillImage"/>
    <dc:date>2024-04-05T23:01:12.473812</dc:date>
    <dc:format>image/svg+xml</dc:format>
    <dc:creator>
     <cc:Agent>
      <dc:title>Matplotlib v3.5.1, https://matplotlib.org/</dc:title>
     </cc:Agent>
    </dc:creator>
   </cc:Work>
  </rdf:RDF>
 </metadata>
 <defs>
  <style type="text/css">*{stroke-linejoin: round; stroke-linecap: butt}</style>
 </defs>
 <g id="figure_1">
  <g id="patch_1">
   <path d="M 0 345.6 
L 460.8 345.6 
L 460.8 0 
L 0 0 
z
" style="fill: #ffffff"/>
  </g>
  <g id="axes_1">
   <g id="patch_2">
    <path d="M 14.3 95.744323 
L 447.363453 95.744323 
L 447.363453 25.10218 
L 14.3 25.10218 
z
" style="fill: #ffffff"/>
   </g>
   <g id="matplotlib.axis_1">
    <g id="xtick_1">
     <g id="line2d_1">
      <defs>
       <path id="m5c6ed7d832" d="M 0 0 
L 0 3.5 
" style="stroke: #000000; stroke-width: 0.8"/>
      </defs>
      <g>
       <use xlink:href="#m5c6ed7d832" x="25.547678" y="95.744323" style="stroke: #000000; stroke-width: 0.8"/>
      </g>
     </g>
     <g id="text_1">
      <!-- $\mathdefault{0.0}$ -->
      <g transform="translate(19.182639 109.662822)scale(0.1 -0.1)">
       <defs>
        <path id="CMR17-30" d="M 2688 2025 
C 2688 2416 2682 3080 2413 3591 
C 2176 4039 1798 4198 1466 4198 
C 1158 4198 768 4058 525 3597 
C 269 3118 243 2524 243 2025 
C 243 1661 250 1106 448 619 
C 723 -39 1216 -128 1466 -128 
C 1760 -128 2208 -7 2470 600 
C 2662 1042 2688 1559 2688 2025 
z
M 1466 -26 
C 1056 -26 813 325 723 812 
C 653 1188 653 1738 653 2096 
C 653 2588 653 2997 736 3387 
C 858 3929 1216 4096 1466 4096 
C 1728 4096 2067 3923 2189 3400 
C 2272 3036 2278 2607 2278 2096 
C 2278 1680 2278 1169 2202 792 
C 2067 95 1690 -26 1466 -26 
z
" transform="scale(0.015625)"/>
        <path id="CMMI12-3a" d="M 1178 307 
C 1178 492 1024 619 870 619 
C 685 619 557 466 557 313 
C 557 128 710 0 864 0 
C 1050 0 1178 153 1178 307 
z
" transform="scale(0.015625)"/>
       </defs>
       <use xlink:href="#CMR17-30" transform="scale(0.996264)"/>
       <use xlink:href="#CMMI12-3a" transform="translate(45.690477 0)scale(0.996264)"/>
       <use xlink:href="#CMR17-30" transform="translate(72.787654 0)scale(0.996264)"/>
      </g>
     </g>
    </g>
    <g id="xtick_2">
     <g id="line2d_2">
      <g>
       <use xlink:href="#m5c6ed7d832" x="109.006558" y="95.744323" style="stroke: #000000; stroke-width: 0.8"/>
      </g>
     </g>
     <g id="text_2">
      <!-- $\mathdefault{0.2}$ -->
      <g transform="translate(102.641519 109.662822)scale(0.1 -0.1)">
       <defs>
        <path id="CMR17-32" d="M 2669 989 
L 2554 989 
C 2490 536 2438 459 2413 420 
C 2381 369 1920 369 1830 369 
L 602 369 
C 832 619 1280 1072 1824 1597 
C 2214 1967 2669 2402 2669 3035 
C 2669 3790 2067 4224 1395 4224 
C 691 4224 262 3604 262 3030 
C 262 2780 448 2748 525 2748 
C 589 2748 781 2787 781 3010 
C 781 3207 614 3264 525 3264 
C 486 3264 448 3258 422 3245 
C 544 3790 915 4058 1306 4058 
C 1862 4058 2227 3617 2227 3035 
C 2227 2479 1901 2000 1536 1584 
L 262 146 
L 262 0 
L 2515 0 
L 2669 989 
z
" transform="scale(0.015625)"/>
       </defs>
       <use xlink:href="#CMR17-30" transform="scale(0.996264)"/>
       <use xlink:href="#CMMI12-3a" transform="translate(45.690477 0)scale(0.996264)"/>
       <use xlink:href="#CMR17-32" transform="translate(72.787654 0)scale(0.996264)"/>
      </g>
     </g>
    </g>
    <g id="xtick_3">
     <g id="line2d_3">
      <g>
       <use xlink:href="#m5c6ed7d832" x="192.465438" y="95.744323" style="stroke: #000000; stroke-width: 0.8"/>
      </g>
     </g>
     <g id="text_3">
      <!-- $\mathdefault{0.4}$ -->
      <g transform="translate(186.100398 109.662822)scale(0.1 -0.1)">
       <defs>
        <path id="CMR17-34" d="M 2150 4122 
C 2150 4256 2144 4256 2029 4256 
L 128 1254 
L 128 1088 
L 1779 1088 
L 1779 457 
C 1779 224 1766 160 1318 160 
L 1197 160 
L 1197 0 
C 1402 0 1747 0 1965 0 
C 2182 0 2528 0 2733 0 
L 2733 160 
L 2611 160 
C 2163 160 2150 224 2150 457 
L 2150 1088 
L 2803 1088 
L 2803 1254 
L 2150 1254 
L 2150 4122 
z
M 1798 3703 
L 1798 1254 
L 256 1254 
L 1798 3703 
z
" transform="scale(0.015625)"/>
       </defs>
       <use xlink:href="#CMR17-30" transform="scale(0.996264)"/>
       <use xlink:href="#CMMI12-3a" transform="translate(45.690477 0)scale(0.996264)"/>
       <use xlink:href="#CMR17-34" transform="translate(72.787654 0)scale(0.996264)"/>
      </g>
     </g>
    </g>
    <g id="xtick_4">
     <g id="line2d_4">
      <g>
       <use xlink:href="#m5c6ed7d832" x="275.924318" y="95.744323" style="stroke: #000000; stroke-width: 0.8"/>
      </g>
     </g>
     <g id="text_4">
      <!-- $\mathdefault{0.6}$ -->
      <g transform="translate(269.559278 109.662822)scale(0.1 -0.1)">
       <defs>
        <path id="CMR17-36" d="M 678 2176 
C 678 3690 1395 4032 1811 4032 
C 1946 4032 2272 4009 2400 3776 
C 2298 3776 2106 3776 2106 3553 
C 2106 3381 2246 3323 2336 3323 
C 2394 3323 2566 3348 2566 3560 
C 2566 3954 2246 4179 1805 4179 
C 1043 4179 243 3390 243 1984 
C 243 253 966 -128 1478 -128 
C 2099 -128 2688 427 2688 1283 
C 2688 2081 2170 2662 1517 2662 
C 1126 2662 838 2407 678 1960 
L 678 2176 
z
M 1478 25 
C 691 25 691 1200 691 1436 
C 691 1896 909 2560 1504 2560 
C 1613 2560 1926 2560 2138 2120 
C 2253 1870 2253 1609 2253 1289 
C 2253 944 2253 690 2118 434 
C 1978 171 1773 25 1478 25 
z
" transform="scale(0.015625)"/>
       </defs>
       <use xlink:href="#CMR17-30" transform="scale(0.996264)"/>
       <use xlink:href="#CMMI12-3a" transform="translate(45.690477 0)scale(0.996264)"/>
       <use xlink:href="#CMR17-36" transform="translate(72.787654 0)scale(0.996264)"/>
      </g>
     </g>
    </g>
    <g id="xtick_5">
     <g id="line2d_5">
      <g>
       <use xlink:href="#m5c6ed7d832" x="359.383197" y="95.744323" style="stroke: #000000; stroke-width: 0.8"/>
      </g>
     </g>
     <g id="text_5">
      <!-- $\mathdefault{0.8}$ -->
      <g transform="translate(353.018158 109.662822)scale(0.1 -0.1)">
       <defs>
        <path id="CMR17-38" d="M 1741 2264 
C 2144 2467 2554 2773 2554 3263 
C 2554 3841 1990 4179 1472 4179 
C 890 4179 378 3759 378 3180 
C 378 3021 416 2747 666 2505 
C 730 2442 998 2251 1171 2130 
C 883 1983 211 1634 211 934 
C 211 279 838 -128 1459 -128 
C 2144 -128 2720 362 2720 1010 
C 2720 1590 2330 1857 2074 2029 
L 1741 2264 
z
M 902 2822 
C 851 2854 595 3051 595 3351 
C 595 3739 998 4032 1459 4032 
C 1965 4032 2336 3676 2336 3262 
C 2336 2669 1670 2331 1638 2331 
C 1632 2331 1626 2331 1574 2370 
L 902 2822 
z
M 2080 1519 
C 2176 1449 2483 1240 2483 851 
C 2483 381 2010 25 1472 25 
C 890 25 448 438 448 940 
C 448 1443 838 1862 1280 2060 
L 2080 1519 
z
" transform="scale(0.015625)"/>
       </defs>
       <use xlink:href="#CMR17-30" transform="scale(0.996264)"/>
       <use xlink:href="#CMMI12-3a" transform="translate(45.690477 0)scale(0.996264)"/>
       <use xlink:href="#CMR17-38" transform="translate(72.787654 0)scale(0.996264)"/>
      </g>
     </g>
    </g>
    <g id="xtick_6">
     <g id="line2d_6">
      <g>
       <use xlink:href="#m5c6ed7d832" x="442.842077" y="95.744323" style="stroke: #000000; stroke-width: 0.8"/>
      </g>
     </g>
     <g id="text_6">
      <!-- $\mathdefault{1.0}$ -->
      <g transform="translate(436.477037 109.662822)scale(0.1 -0.1)">
       <defs>
        <path id="CMR17-31" d="M 1702 4058 
C 1702 4192 1696 4192 1606 4192 
C 1357 3916 979 3827 621 3827 
C 602 3827 570 3827 563 3808 
C 557 3795 557 3782 557 3648 
C 755 3648 1088 3686 1344 3839 
L 1344 461 
C 1344 236 1331 160 781 160 
L 589 160 
L 589 0 
C 896 0 1216 0 1523 0 
C 1830 0 2150 0 2458 0 
L 2458 160 
L 2266 160 
C 1715 160 1702 230 1702 458 
L 1702 4058 
z
" transform="scale(0.015625)"/>
       </defs>
       <use xlink:href="#CMR17-31" transform="scale(0.996264)"/>
       <use xlink:href="#CMMI12-3a" transform="translate(45.690477 0)scale(0.996264)"/>
       <use xlink:href="#CMR17-30" transform="translate(72.787654 0)scale(0.996264)"/>
      </g>
     </g>
    </g>
   </g>
   <g id="line2d_7">
    <defs>
     <path id="m0232604999" d="M 0 3 
C 0.795609 3 1.55874 2.683901 2.12132 2.12132 
C 2.683901 1.55874 3 0.795609 3 0 
C 3 -0.795609 2.683901 -1.55874 2.12132 -2.12132 
C 1.55874 -2.683901 0.795609 -3 0 -3 
C -0.795609 -3 -1.55874 -2.683901 -2.12132 -2.12132 
C -2.683901 -1.55874 -3 -0.795609 -3 0 
C -3 0.795609 -2.683901 1.55874 -2.12132 2.12132 
C -1.55874 2.683901 -0.795609 3 0 3 
z
" style="stroke: #1f77b4"/>
    </defs>
    <g clip-path="url(#pd77a5f3e60)">
     <use xlink:href="#m0232604999" x="254.564479" y="60.423252" style="fill: #1f77b4; stroke: #1f77b4"/>
     <use xlink:href="#m0232604999" x="323.992195" y="60.423252" style="fill: #1f77b4; stroke: #1f77b4"/>
     <use xlink:href="#m0232604999" x="277.077459" y="60.423252" style="fill: #1f77b4; stroke: #1f77b4"/>
     <use xlink:href="#m0232604999" x="252.924379" y="60.423252" style="fill: #1f77b4; stroke: #1f77b4"/>
     <use xlink:href="#m0232604999" x="202.336453" y="60.423252" style="fill: #1f77b4; stroke: #1f77b4"/>
     <use xlink:href="#m0232604999" x="295.075674" y="60.423252" style="fill: #1f77b4; stroke: #1f77b4"/>
     <use xlink:href="#m0232604999" x="208.150371" y="60.423252" style="fill: #1f77b4; stroke: #1f77b4"/>
     <use xlink:href="#m0232604999" x="397.679556" y="60.423252" style="fill: #1f77b4; stroke: #1f77b4"/>
     <use xlink:href="#m0232604999" x="427.67875" y="60.423252" style="fill: #1f77b4; stroke: #1f77b4"/>
     <use xlink:href="#m0232604999" x="185.555676" y="60.423252" style="fill: #1f77b4; stroke: #1f77b4"/>
     <use xlink:href="#m0232604999" x="355.930102" y="60.423252" style="fill: #1f77b4; stroke: #1f77b4"/>
     <use xlink:href="#m0232604999" x="246.252566" y="60.423252" style="fill: #1f77b4; stroke: #1f77b4"/>
     <use xlink:href="#m0232604999" x="262.589492" y="60.423252" style="fill: #1f77b4; stroke: #1f77b4"/>
     <use xlink:href="#m0232604999" x="411.793971" y="60.423252" style="fill: #1f77b4; stroke: #1f77b4"/>
     <use xlink:href="#m0232604999" x="55.190628" y="60.423252" style="fill: #1f77b4; stroke: #1f77b4"/>
     <use xlink:href="#m0232604999" x="61.906247" y="60.423252" style="fill: #1f77b4; stroke: #1f77b4"/>
     <use xlink:href="#m0232604999" x="33.984702" y="60.423252" style="fill: #1f77b4; stroke: #1f77b4"/>
     <use xlink:href="#m0232604999" x="372.995276" y="60.423252" style="fill: #1f77b4; stroke: #1f77b4"/>
     <use xlink:href="#m0232604999" x="350.268132" y="60.423252" style="fill: #1f77b4; stroke: #1f77b4"/>
     <use xlink:href="#m0232604999" x="388.598875" y="60.423252" style="fill: #1f77b4; stroke: #1f77b4"/>
    </g>
   </g>
   <g id="line2d_8">
    <path d="M 268.227249 95.744323 
L 268.227249 25.10218 
" clip-path="url(#pd77a5f3e60)" style="fill: none; stroke: #ff0000; stroke-width: 1.5; stroke-linecap: square"/>
   </g>
   <g id="patch_3">
    <path d="M 14.3 95.744323 
L 14.3 25.10218 
" style="fill: none; stroke: #000000; stroke-width: 0.8; stroke-linejoin: miter; stroke-linecap: square"/>
   </g>
   <g id="patch_4">
    <path d="M 447.363453 95.744323 
L 447.363453 25.10218 
" style="fill: none; stroke: #000000; stroke-width: 0.8; stroke-linejoin: miter; stroke-linecap: square"/>
   </g>
   <g id="patch_5">
    <path d="M 14.3 95.744323 
L 447.363453 95.744323 
" style="fill: none; stroke: #000000; stroke-width: 0.8; stroke-linejoin: miter; stroke-linecap: square"/>
   </g>
   <g id="patch_6">
    <path d="M 14.3 25.10218 
L 447.363453 25.10218 
" style="fill: none; stroke: #000000; stroke-width: 0.8; stroke-linejoin: miter; stroke-linecap: square"/>
   </g>
   <g id="text_7">
    <!-- original data points -->
    <g transform="translate(183.76713 19.10218)scale(0.12 -0.12)">
     <defs>
      <path id="CMSS17-6f" d="M 2829 1356 
C 2829 2176 2221 2816 1504 2816 
C 768 2816 173 2157 173 1356 
C 173 544 787 -64 1498 -64 
C 2227 -64 2829 563 2829 1356 
z
M 1504 337 
C 1050 337 659 709 659 1408 
C 659 2151 1114 2427 1498 2427 
C 1914 2427 2342 2126 2342 1408 
C 2342 683 1926 337 1504 337 
z
" transform="scale(0.015625)"/>
      <path id="CMSS17-72" d="M 954 1363 
C 954 1965 1395 2368 1958 2368 
L 1958 2789 
C 1549 2789 1165 2585 934 2253 
L 934 2758 
L 480 2758 
L 480 0 
L 954 0 
L 954 1363 
z
" transform="scale(0.015625)"/>
      <path id="CMSS17-69" d="M 979 4183 
L 442 4183 
L 442 3648 
L 979 3648 
L 979 4183 
z
M 947 2739 
L 474 2739 
L 474 0 
L 947 0 
L 947 2739 
z
" transform="scale(0.015625)"/>
      <path id="CMSS17-67" d="M 2848 2808 
C 2483 2808 2170 2738 1914 2617 
C 1702 2777 1485 2808 1338 2808 
C 781 2808 358 2349 358 1814 
C 358 1468 550 1207 563 1195 
C 448 1035 384 863 384 672 
C 384 448 474 289 544 200 
C 211 -3 166 -314 166 -435 
C 166 -898 749 -1280 1498 -1280 
C 2253 -1280 2835 -898 2835 -428 
C 2835 448 1856 448 1587 448 
L 1069 448 
C 973 448 717 448 717 791 
C 717 921 774 1004 781 1010 
C 877 940 1075 832 1338 832 
C 1869 832 2310 1278 2310 1827 
C 2310 2132 2170 2355 2112 2432 
L 2131 2432 
C 2150 2432 2419 2432 2515 2432 
C 2720 2432 2739 2429 2918 2419 
L 2848 2808 
z
M 1338 1182 
C 1120 1182 813 1315 813 1823 
C 813 2375 1165 2464 1331 2464 
C 1549 2464 1856 2331 1856 1823 
C 1856 1271 1504 1182 1338 1182 
z
M 1581 -10 
C 1734 -10 2381 -10 2381 -442 
C 2381 -714 1984 -929 1504 -929 
C 1018 -929 621 -720 621 -435 
C 621 -403 621 -10 1062 -10 
L 1581 -10 
z
" transform="scale(0.015625)"/>
      <path id="CMSS17-6e" d="M 2618 1877 
C 2618 2283 2522 2816 1798 2816 
C 1389 2816 1120 2606 941 2389 
L 941 2758 
L 474 2758 
L 474 0 
L 960 0 
L 960 1559 
C 960 1964 1114 2428 1549 2428 
C 2112 2428 2131 2048 2131 1829 
L 2131 0 
L 2618 0 
L 2618 1877 
z
" transform="scale(0.015625)"/>
      <path id="CMSS17-61" d="M 2406 1791 
C 2406 2392 1978 2808 1402 2808 
C 1120 2808 813 2757 461 2553 
L 499 2135 
C 659 2248 934 2432 1395 2432 
C 1722 2432 1920 2180 1920 1782 
L 1920 1536 
C 896 1536 256 1238 256 726 
C 256 461 416 -64 947 -64 
C 1043 -64 1562 -64 1933 217 
L 1933 -19 
L 2406 -19 
L 2406 1791 
z
M 1920 816 
C 1920 701 1920 548 1728 434 
C 1562 325 1350 325 1261 325 
C 941 325 723 511 723 744 
C 723 1211 1722 1211 1920 1211 
L 1920 816 
z
" transform="scale(0.015625)"/>
      <path id="CMSS17-6c" d="M 947 4416 
L 474 4416 
L 474 0 
L 947 0 
L 947 4416 
z
" transform="scale(0.015625)"/>
      <path id="CMSS17-64" d="M 2611 4416 
L 2138 4416 
L 2138 2438 
C 1939 2603 1613 2756 1254 2756 
C 672 2756 211 2131 211 1347 
C 211 562 666 -64 1235 -64 
C 1677 -64 1971 172 2125 306 
L 2125 -13 
L 2611 -13 
L 2611 4416 
z
M 2125 836 
C 2125 747 2125 653 1926 482 
C 1798 375 1645 325 1498 325 
C 1152 325 698 576 698 1340 
C 698 2134 1210 2368 1562 2368 
C 1798 2368 1990 2254 2125 2065 
L 2125 836 
z
" transform="scale(0.015625)"/>
      <path id="CMSS17-74" d="M 1069 2368 
L 1901 2368 
L 1901 2737 
L 1069 2737 
L 1069 3520 
L 614 3520 
L 614 2737 
L 109 2737 
L 109 2368 
L 602 2368 
L 602 749 
C 602 384 685 -64 1107 -64 
C 1427 -64 1722 25 2003 172 
L 1901 548 
C 1747 414 1562 337 1363 337 
C 1082 337 1069 696 1069 856 
L 1069 2368 
z
" transform="scale(0.015625)"/>
      <path id="CMSS17-70" d="M 966 333 
C 1178 129 1466 -5 1773 -5 
C 2368 -5 2880 603 2880 1412 
C 2880 2159 2496 2816 1946 2816 
C 1626 2816 1242 2702 954 2472 
L 954 2765 
L 480 2765 
L 480 -1216 
L 966 -1216 
L 966 333 
z
M 966 2100 
C 1018 2176 1235 2415 1587 2415 
C 2035 2415 2394 1960 2394 1412 
C 2394 787 1958 384 1530 384 
C 1402 384 1267 415 1139 523 
C 966 674 966 768 966 857 
L 966 2100 
z
" transform="scale(0.015625)"/>
      <path id="CMSS17-73" d="M 2061 2627 
C 1683 2807 1389 2807 1197 2807 
C 742 2807 198 2648 198 2003 
C 198 1359 902 1218 1094 1179 
C 1389 1122 1715 1058 1715 740 
C 1715 337 1254 337 1171 337 
C 915 337 563 407 243 638 
L 166 210 
C 531 0 883 -64 1178 -64 
C 1965 -64 2163 416 2163 781 
C 2163 1094 1984 1305 1862 1401 
C 1651 1568 1574 1587 1050 1696 
C 960 1709 646 1779 646 2066 
C 646 2432 1050 2432 1139 2432 
C 1555 2432 1811 2303 1984 2208 
L 2061 2627 
z
" transform="scale(0.015625)"/>
     </defs>
     <use xlink:href="#CMSS17-6f" transform="scale(0.996264)"/>
     <use xlink:href="#CMSS17-72" transform="translate(44.24117 0)scale(0.996264)"/>
     <use xlink:href="#CMSS17-69" transform="translate(76.150942 0)scale(0.996264)"/>
     <use xlink:href="#CMSS17-67" transform="translate(98.331665 0)scale(0.996264)"/>
     <use xlink:href="#CMSS17-69" transform="translate(145.175289 0)scale(0.996264)"/>
     <use xlink:href="#CMSS17-6e" transform="translate(167.356012 0)scale(0.996264)"/>
     <use xlink:href="#CMSS17-61" transform="translate(215.560955 0)scale(0.996264)"/>
     <use xlink:href="#CMSS17-6c" transform="translate(260.482875 0)scale(0.996264)"/>
     <use xlink:href="#CMSS17-64" transform="translate(313.892711 0)scale(0.996264)"/>
     <use xlink:href="#CMSS17-61" transform="translate(362.097654 0)scale(0.996264)"/>
     <use xlink:href="#CMSS17-74" transform="translate(407.019575 0)scale(0.996264)"/>
     <use xlink:href="#CMSS17-61" transform="translate(440.851142 0)scale(0.996264)"/>
     <use xlink:href="#CMSS17-70" transform="translate(517.002175 0)scale(0.996264)"/>
     <use xlink:href="#CMSS17-6f" transform="translate(567.809557 0)scale(0.996264)"/>
     <use xlink:href="#CMSS17-69" transform="translate(614.65318 0)scale(0.996264)"/>
     <use xlink:href="#CMSS17-6e" transform="translate(636.833904 0)scale(0.996264)"/>
     <use xlink:href="#CMSS17-74" transform="translate(685.038847 0)scale(0.996264)"/>
     <use xlink:href="#CMSS17-73" transform="translate(718.870413 0)scale(0.996264)"/>
    </g>
   </g>
   <g id="legend_1">
    <g id="patch_7">
     <path d="M 21.3 60.976536 
L 125.162519 60.976536 
Q 127.162519 60.976536 127.162519 58.976536 
L 127.162519 32.10218 
Q 127.162519 30.10218 125.162519 30.10218 
L 21.3 30.10218 
Q 19.3 30.10218 19.3 32.10218 
L 19.3 58.976536 
Q 19.3 60.976536 21.3 60.976536 
z
" style="fill: #ffffff; opacity: 0.8; stroke: #cccccc; stroke-linejoin: miter"/>
    </g>
    <g id="line2d_9">
     <g>
      <use xlink:href="#m0232604999" x="33.3" y="37.60218" style="fill: #1f77b4; stroke: #1f77b4"/>
     </g>
    </g>
    <g id="text_8">
     <!-- data points $x_i$ -->
     <g transform="translate(51.3 41.10218)scale(0.1 -0.1)">
      <defs>
       <path id="CMMI12-78" d="M 3034 2606 
C 2829 2567 2752 2414 2752 2293 
C 2752 2139 2874 2088 2963 2088 
C 3155 2088 3290 2254 3290 2427 
C 3290 2695 2982 2816 2714 2816 
C 2323 2816 2106 2433 2048 2312 
C 1901 2816 1504 2816 1389 2816 
C 736 2816 390 1980 390 1839 
C 390 1814 416 1782 461 1782 
C 512 1782 525 1820 538 1846 
C 755 2555 1184 2689 1370 2689 
C 1658 2689 1715 2420 1715 2267 
C 1715 2127 1677 1980 1600 1673 
L 1382 798 
C 1286 415 1101 64 762 64 
C 730 64 570 64 435 147 
C 666 192 717 383 717 460 
C 717 588 621 664 499 664 
C 346 664 179 530 179 326 
C 179 57 480 -64 755 -64 
C 1062 -64 1280 179 1414 441 
C 1517 64 1837 -64 2074 -64 
C 2726 -64 3072 773 3072 913 
C 3072 945 3046 971 3008 971 
C 2950 971 2944 939 2925 888 
C 2752 326 2381 64 2093 64 
C 1869 64 1747 230 1747 492 
C 1747 632 1773 734 1875 1156 
L 2099 2024 
C 2195 2408 2413 2689 2707 2689 
C 2720 2689 2899 2689 3034 2606 
z
" transform="scale(0.015625)"/>
       <path id="CMMI12-69" d="M 1811 913 
C 1811 945 1786 971 1747 971 
C 1690 971 1683 952 1651 843 
C 1485 262 1222 64 1011 64 
C 934 64 845 83 845 275 
C 845 447 922 639 992 830 
L 1440 2018 
C 1459 2069 1504 2184 1504 2305 
C 1504 2574 1312 2816 998 2816 
C 410 2816 173 1890 173 1839 
C 173 1814 198 1782 243 1782 
C 301 1782 307 1807 333 1896 
C 486 2428 730 2682 979 2682 
C 1037 2682 1146 2682 1146 2478 
C 1146 2312 1062 2101 1011 1961 
L 563 773 
C 525 671 486 568 486 453 
C 486 166 685 -64 992 -64 
C 1581 -64 1811 869 1811 913 
z
M 1760 4013 
C 1760 4109 1683 4224 1542 4224 
C 1395 4224 1229 4083 1229 3917 
C 1229 3758 1363 3707 1440 3707 
C 1613 3707 1760 3873 1760 4013 
z
" transform="scale(0.015625)"/>
      </defs>
      <use xlink:href="#CMSS17-64" transform="scale(0.996264)"/>
      <use xlink:href="#CMSS17-61" transform="translate(48.204943 0)scale(0.996264)"/>
      <use xlink:href="#CMSS17-74" transform="translate(93.126864 0)scale(0.996264)"/>
      <use xlink:href="#CMSS17-61" transform="translate(126.95843 0)scale(0.996264)"/>
      <use xlink:href="#CMSS17-70" transform="translate(203.109464 0)scale(0.996264)"/>
      <use xlink:href="#CMSS17-6f" transform="translate(253.916846 0)scale(0.996264)"/>
      <use xlink:href="#CMSS17-69" transform="translate(300.760469 0)scale(0.996264)"/>
      <use xlink:href="#CMSS17-6e" transform="translate(322.941192 0)scale(0.996264)"/>
      <use xlink:href="#CMSS17-74" transform="translate(371.146135 0)scale(0.996264)"/>
      <use xlink:href="#CMSS17-73" transform="translate(404.977702 0)scale(0.996264)"/>
      <use xlink:href="#CMMI12-78" transform="translate(472.120357 0)scale(0.996264)"/>
      <use xlink:href="#CMMI12-69" transform="translate(527.554416 -14.943915)scale(0.697382)"/>
     </g>
    </g>
    <g id="line2d_10">
     <path d="M 23.3 51.539358 
L 33.3 51.539358 
L 43.3 51.539358 
" style="fill: none; stroke: #ff0000; stroke-width: 1.5; stroke-linecap: square"/>
    </g>
    <g id="text_9">
     <!-- empirical mean $\bar{x}$ -->
     <g transform="translate(51.3 55.039358)scale(0.1 -0.1)">
      <defs>
       <path id="CMSS17-65" d="M 2502 1377 
C 2502 1590 2490 2003 2285 2345 
C 2061 2713 1696 2816 1421 2816 
C 755 2816 192 2188 192 1375 
C 192 582 774 -64 1510 -64 
C 1798 -64 2150 19 2470 248 
C 2470 274 2458 414 2451 420 
C 2451 433 2432 630 2432 656 
C 2125 407 1773 325 1517 325 
C 1107 325 666 667 646 1377 
L 2502 1377 
z
M 698 1728 
C 781 2084 1062 2421 1421 2421 
C 1517 2421 1965 2421 2080 1728 
L 698 1728 
z
" transform="scale(0.015625)"/>
       <path id="CMSS17-6d" d="M 4288 1877 
C 4288 2308 4179 2816 3462 2816 
C 2982 2816 2694 2516 2566 2331 
C 2451 2670 2182 2816 1798 2816 
C 1363 2816 1088 2568 941 2389 
L 941 2758 
L 474 2758 
L 474 0 
L 960 0 
L 960 1559 
C 960 1939 1101 2428 1555 2428 
C 2138 2428 2138 2016 2138 1829 
L 2138 0 
L 2624 0 
L 2624 1559 
C 2624 1939 2765 2428 3219 2428 
C 3802 2428 3802 2016 3802 1829 
L 3802 0 
L 4288 0 
L 4288 1877 
z
" transform="scale(0.015625)"/>
       <path id="CMSS17-63" d="M 2464 2541 
C 2464 2585 2170 2714 2093 2739 
C 1882 2816 1613 2816 1542 2816 
C 710 2816 211 2093 211 1363 
C 211 595 768 -64 1517 -64 
C 1946 -64 2253 76 2502 242 
L 2464 664 
C 2189 453 1869 337 1523 337 
C 1024 337 698 774 698 1369 
C 698 1831 909 2414 1549 2414 
C 1901 2414 2099 2343 2394 2145 
L 2464 2541 
z
" transform="scale(0.015625)"/>
       <path id="CMR17-16" d="M 2554 3520 
L 2554 3666 
L 378 3666 
L 378 3520 
L 2554 3520 
z
" transform="scale(0.015625)"/>
      </defs>
      <use xlink:href="#CMSS17-65" transform="scale(0.996264)"/>
      <use xlink:href="#CMSS17-6d" transform="translate(41.638822 0)scale(0.996264)"/>
      <use xlink:href="#CMSS17-70" transform="translate(115.868077 0)scale(0.996264)"/>
      <use xlink:href="#CMSS17-69" transform="translate(164.07302 0)scale(0.996264)"/>
      <use xlink:href="#CMSS17-72" transform="translate(186.253743 0)scale(0.996264)"/>
      <use xlink:href="#CMSS17-69" transform="translate(218.163515 0)scale(0.996264)"/>
      <use xlink:href="#CMSS17-63" transform="translate(240.344238 0)scale(0.996264)"/>
      <use xlink:href="#CMSS17-61" transform="translate(281.98306 0)scale(0.996264)"/>
      <use xlink:href="#CMSS17-6c" transform="translate(326.904981 0)scale(0.996264)"/>
      <use xlink:href="#CMSS17-6d" transform="translate(380.314817 0)scale(0.996264)"/>
      <use xlink:href="#CMSS17-65" transform="translate(454.544071 0)scale(0.996264)"/>
      <use xlink:href="#CMSS17-61" transform="translate(496.182893 0)scale(0.996264)"/>
      <use xlink:href="#CMSS17-6e" transform="translate(541.104814 0)scale(0.996264)"/>
      <use xlink:href="#CMR17-16" transform="translate(628.120379 0.006461)scale(0.996264)"/>
      <use xlink:href="#CMMI12-78" transform="translate(620.53887 0)scale(0.996264)"/>
     </g>
    </g>
   </g>
  </g>
  <g id="axes_2">
   <g id="patch_8">
    <path d="M 14.3 207.344323 
L 447.363453 207.344323 
L 447.363453 136.70218 
L 14.3 136.70218 
z
" style="fill: #ffffff"/>
   </g>
   <g id="matplotlib.axis_2">
    <g id="xtick_7">
     <g id="line2d_11">
      <g>
       <use xlink:href="#m5c6ed7d832" x="33.811325" y="207.344323" style="stroke: #000000; stroke-width: 0.8"/>
      </g>
     </g>
     <g id="text_10">
      <!-- $\mathdefault{0.0}$ -->
      <g transform="translate(27.446285 221.262822)scale(0.1 -0.1)">
       <use xlink:href="#CMR17-30" transform="scale(0.996264)"/>
       <use xlink:href="#CMMI12-3a" transform="translate(45.690477 0)scale(0.996264)"/>
       <use xlink:href="#CMR17-30" transform="translate(72.787654 0)scale(0.996264)"/>
      </g>
     </g>
    </g>
    <g id="xtick_8">
     <g id="line2d_12">
      <g>
       <use xlink:href="#m5c6ed7d832" x="118.637504" y="207.344323" style="stroke: #000000; stroke-width: 0.8"/>
      </g>
     </g>
     <g id="text_11">
      <!-- $\mathdefault{0.2}$ -->
      <g transform="translate(112.272465 221.262822)scale(0.1 -0.1)">
       <use xlink:href="#CMR17-30" transform="scale(0.996264)"/>
       <use xlink:href="#CMMI12-3a" transform="translate(45.690477 0)scale(0.996264)"/>
       <use xlink:href="#CMR17-32" transform="translate(72.787654 0)scale(0.996264)"/>
      </g>
     </g>
    </g>
    <g id="xtick_9">
     <g id="line2d_13">
      <g>
       <use xlink:href="#m5c6ed7d832" x="203.463684" y="207.344323" style="stroke: #000000; stroke-width: 0.8"/>
      </g>
     </g>
     <g id="text_12">
      <!-- $\mathdefault{0.4}$ -->
      <g transform="translate(197.098644 221.262822)scale(0.1 -0.1)">
       <use xlink:href="#CMR17-30" transform="scale(0.996264)"/>
       <use xlink:href="#CMMI12-3a" transform="translate(45.690477 0)scale(0.996264)"/>
       <use xlink:href="#CMR17-34" transform="translate(72.787654 0)scale(0.996264)"/>
      </g>
     </g>
    </g>
    <g id="xtick_10">
     <g id="line2d_14">
      <g>
       <use xlink:href="#m5c6ed7d832" x="288.289863" y="207.344323" style="stroke: #000000; stroke-width: 0.8"/>
      </g>
     </g>
     <g id="text_13">
      <!-- $\mathdefault{0.6}$ -->
      <g transform="translate(281.924824 221.262822)scale(0.1 -0.1)">
       <use xlink:href="#CMR17-30" transform="scale(0.996264)"/>
       <use xlink:href="#CMMI12-3a" transform="translate(45.690477 0)scale(0.996264)"/>
       <use xlink:href="#CMR17-36" transform="translate(72.787654 0)scale(0.996264)"/>
      </g>
     </g>
    </g>
    <g id="xtick_11">
     <g id="line2d_15">
      <g>
       <use xlink:href="#m5c6ed7d832" x="373.116043" y="207.344323" style="stroke: #000000; stroke-width: 0.8"/>
      </g>
     </g>
     <g id="text_14">
      <!-- $\mathdefault{0.8}$ -->
      <g transform="translate(366.751003 221.262822)scale(0.1 -0.1)">
       <use xlink:href="#CMR17-30" transform="scale(0.996264)"/>
       <use xlink:href="#CMMI12-3a" transform="translate(45.690477 0)scale(0.996264)"/>
       <use xlink:href="#CMR17-38" transform="translate(72.787654 0)scale(0.996264)"/>
      </g>
     </g>
    </g>
   </g>
   <g id="line2d_16">
    <g clip-path="url(#pbd6cdedd9e)">
     <use xlink:href="#m0232604999" x="161.557966" y="172.023252" style="fill: #1f77b4; stroke: #1f77b4"/>
     <use xlink:href="#m0232604999" x="250.75251" y="172.023252" style="fill: #1f77b4; stroke: #1f77b4"/>
     <use xlink:href="#m0232604999" x="187.908126" y="172.023252" style="fill: #1f77b4; stroke: #1f77b4"/>
     <use xlink:href="#m0232604999" x="159.734805" y="172.023252" style="fill: #1f77b4; stroke: #1f77b4"/>
     <use xlink:href="#m0232604999" x="109.935776" y="172.023252" style="fill: #1f77b4; stroke: #1f77b4"/>
     <use xlink:href="#m0232604999" x="210.749915" y="172.023252" style="fill: #1f77b4; stroke: #1f77b4"/>
     <use xlink:href="#m0232604999" x="115.024998" y="172.023252" style="fill: #1f77b4; stroke: #1f77b4"/>
     <use xlink:href="#m0232604999" x="371.105274" y="172.023252" style="fill: #1f77b4; stroke: #1f77b4"/>
     <use xlink:href="#m0232604999" x="427.67875" y="172.023252" style="fill: #1f77b4; stroke: #1f77b4"/>
     <use xlink:href="#m0232604999" x="96.170187" y="172.023252" style="fill: #1f77b4; stroke: #1f77b4"/>
     <use xlink:href="#m0232604999" x="299.668674" y="172.023252" style="fill: #1f77b4; stroke: #1f77b4"/>
     <use xlink:href="#m0232604999" x="152.453391" y="172.023252" style="fill: #1f77b4; stroke: #1f77b4"/>
     <use xlink:href="#m0232604999" x="170.667602" y="172.023252" style="fill: #1f77b4; stroke: #1f77b4"/>
     <use xlink:href="#m0232604999" x="397.176622" y="172.023252" style="fill: #1f77b4; stroke: #1f77b4"/>
     <use xlink:href="#m0232604999" x="35.951541" y="172.023252" style="fill: #1f77b4; stroke: #1f77b4"/>
     <use xlink:href="#m0232604999" x="37.031121" y="172.023252" style="fill: #1f77b4; stroke: #1f77b4"/>
     <use xlink:href="#m0232604999" x="33.984702" y="172.023252" style="fill: #1f77b4; stroke: #1f77b4"/>
     <use xlink:href="#m0232604999" x="327.842532" y="172.023252" style="fill: #1f77b4; stroke: #1f77b4"/>
     <use xlink:href="#m0232604999" x="290.634429" y="172.023252" style="fill: #1f77b4; stroke: #1f77b4"/>
     <use xlink:href="#m0232604999" x="354.844966" y="172.023252" style="fill: #1f77b4; stroke: #1f77b4"/>
    </g>
   </g>
   <g id="line2d_17">
    <path d="M 209.543694 207.344323 
L 209.543694 136.70218 
" clip-path="url(#pbd6cdedd9e)" style="fill: none; stroke: #008000; stroke-width: 1.5; stroke-linecap: square"/>
   </g>
   <g id="line2d_18">
    <path d="M 177.254945 207.344323 
L 177.254945 136.70218 
" clip-path="url(#pbd6cdedd9e)" style="fill: none; stroke: #ff0000; stroke-width: 1.5; stroke-linecap: square"/>
   </g>
   <g id="patch_9">
    <path d="M 14.3 207.344323 
L 14.3 136.70218 
" style="fill: none; stroke: #000000; stroke-width: 0.8; stroke-linejoin: miter; stroke-linecap: square"/>
   </g>
   <g id="patch_10">
    <path d="M 447.363453 207.344323 
L 447.363453 136.70218 
" style="fill: none; stroke: #000000; stroke-width: 0.8; stroke-linejoin: miter; stroke-linecap: square"/>
   </g>
   <g id="patch_11">
    <path d="M 14.3 207.344323 
L 447.363453 207.344323 
" style="fill: none; stroke: #000000; stroke-width: 0.8; stroke-linejoin: miter; stroke-linecap: square"/>
   </g>
   <g id="patch_12">
    <path d="M 14.3 136.70218 
L 447.363453 136.70218 
" style="fill: none; stroke: #000000; stroke-width: 0.8; stroke-linejoin: miter; stroke-linecap: square"/>
   </g>
   <g id="text_15">
    <!-- transformed data points by convex function -->
    <g transform="translate(124.785537 130.70218)scale(0.12 -0.12)">
     <defs>
      <path id="CMSS17-66" d="M 1075 2368 
L 1722 2368 
L 1722 2737 
L 1062 2737 
L 1062 3559 
C 1062 4014 1408 4092 1606 4092 
C 1670 4092 1850 4092 2080 4009 
L 2080 4429 
C 1933 4461 1754 4480 1613 4480 
C 1018 4480 602 3993 602 3359 
L 602 2737 
L 160 2737 
L 160 2368 
L 602 2368 
L 602 0 
L 1075 0 
L 1075 2368 
z
" transform="scale(0.015625)"/>
      <path id="CMSS17-62" d="M 954 4416 
L 480 4416 
L 480 -13 
L 966 -13 
L 966 274 
C 1210 38 1504 -64 1766 -64 
C 2381 -64 2880 549 2880 1352 
C 2880 2086 2496 2756 1926 2756 
C 1523 2756 1165 2591 954 2419 
L 954 4416 
z
M 966 2046 
C 1107 2222 1306 2368 1587 2368 
C 1965 2368 2394 2097 2394 1352 
C 2394 558 1882 325 1530 325 
C 1402 325 1267 356 1139 464 
C 966 615 966 709 966 797 
L 966 2046 
z
" transform="scale(0.015625)"/>
      <path id="CMSS17-79" d="M 2675 2752 
L 2176 2752 
C 1632 1294 1446 702 1434 383 
L 1427 383 
C 1408 696 1126 1460 902 2007 
L 602 2752 
L 83 2752 
L 1216 13 
C 1146 -178 1043 -465 1011 -529 
C 870 -885 774 -885 672 -885 
C 646 -885 442 -885 211 -809 
L 250 -1229 
C 410 -1261 570 -1280 685 -1280 
C 845 -1280 1165 -1280 1459 -497 
L 2675 2752 
z
" transform="scale(0.015625)"/>
      <path id="CMSS17-76" d="M 2675 2752 
L 2176 2752 
L 1747 1556 
C 1613 1165 1421 627 1389 352 
L 1382 352 
C 1370 468 1318 634 1286 749 
C 1248 890 1197 1056 1158 1172 
L 595 2752 
L 83 2752 
L 1094 0 
L 1664 0 
L 2675 2752 
z
" transform="scale(0.015625)"/>
      <path id="CMSS17-78" d="M 1587 1414 
L 2656 2739 
L 2099 2739 
L 1363 1777 
L 602 2739 
L 32 2739 
L 1139 1414 
L 0 0 
L 563 0 
L 1363 1121 
L 2195 0 
L 2758 0 
L 1587 1414 
z
" transform="scale(0.015625)"/>
      <path id="CMSS17-75" d="M 2618 2739 
L 2131 2739 
L 2131 972 
C 2131 498 1786 306 1421 306 
C 998 306 960 447 960 709 
L 960 2739 
L 474 2739 
L 474 678 
C 474 179 646 -64 1088 -64 
C 1306 -64 1798 -13 2144 306 
L 2144 0 
L 2618 0 
L 2618 2739 
z
" transform="scale(0.015625)"/>
     </defs>
     <use xlink:href="#CMSS17-74" transform="scale(0.996264)"/>
     <use xlink:href="#CMSS17-72" transform="translate(33.831567 0)scale(0.996264)"/>
     <use xlink:href="#CMSS17-61" transform="translate(65.741339 0)scale(0.996264)"/>
     <use xlink:href="#CMSS17-6e" transform="translate(110.66326 0)scale(0.996264)"/>
     <use xlink:href="#CMSS17-73" transform="translate(158.868203 0)scale(0.996264)"/>
     <use xlink:href="#CMSS17-66" transform="translate(194.781745 0)scale(0.996264)"/>
     <use xlink:href="#CMSS17-6f" transform="translate(223.408404 0)scale(0.996264)"/>
     <use xlink:href="#CMSS17-72" transform="translate(267.649573 0)scale(0.996264)"/>
     <use xlink:href="#CMSS17-6d" transform="translate(299.559346 0)scale(0.996264)"/>
     <use xlink:href="#CMSS17-65" transform="translate(373.7886 0)scale(0.996264)"/>
     <use xlink:href="#CMSS17-64" transform="translate(415.427422 0)scale(0.996264)"/>
     <use xlink:href="#CMSS17-64" transform="translate(494.861478 0)scale(0.996264)"/>
     <use xlink:href="#CMSS17-61" transform="translate(543.066421 0)scale(0.996264)"/>
     <use xlink:href="#CMSS17-74" transform="translate(587.988342 0)scale(0.996264)"/>
     <use xlink:href="#CMSS17-61" transform="translate(621.819909 0)scale(0.996264)"/>
     <use xlink:href="#CMSS17-70" transform="translate(697.970942 0)scale(0.996264)"/>
     <use xlink:href="#CMSS17-6f" transform="translate(748.778324 0)scale(0.996264)"/>
     <use xlink:href="#CMSS17-69" transform="translate(795.621947 0)scale(0.996264)"/>
     <use xlink:href="#CMSS17-6e" transform="translate(817.802671 0)scale(0.996264)"/>
     <use xlink:href="#CMSS17-74" transform="translate(866.007614 0)scale(0.996264)"/>
     <use xlink:href="#CMSS17-73" transform="translate(899.83918 0)scale(0.996264)"/>
     <use xlink:href="#CMSS17-62" transform="translate(966.981835 0)scale(0.996264)"/>
     <use xlink:href="#CMSS17-79" transform="translate(1012.584324 0)scale(0.996264)"/>
     <use xlink:href="#CMSS17-63" transform="translate(1086.813579 0)scale(0.996264)"/>
     <use xlink:href="#CMSS17-6f" transform="translate(1128.452401 0)scale(0.996264)"/>
     <use xlink:href="#CMSS17-6e" transform="translate(1175.296024 0)scale(0.996264)"/>
     <use xlink:href="#CMSS17-76" transform="translate(1223.500967 0)scale(0.996264)"/>
     <use xlink:href="#CMSS17-65" transform="translate(1266.501109 0)scale(0.996264)"/>
     <use xlink:href="#CMSS17-78" transform="translate(1308.139931 0)scale(0.996264)"/>
     <use xlink:href="#CMSS17-66" transform="translate(1382.369186 0)scale(0.996264)"/>
     <use xlink:href="#CMSS17-75" transform="translate(1410.995844 0)scale(0.996264)"/>
     <use xlink:href="#CMSS17-6e" transform="translate(1459.200788 0)scale(0.996264)"/>
     <use xlink:href="#CMSS17-63" transform="translate(1507.405731 0)scale(0.996264)"/>
     <use xlink:href="#CMSS17-74" transform="translate(1549.044553 0)scale(0.996264)"/>
     <use xlink:href="#CMSS17-69" transform="translate(1582.876119 0)scale(0.996264)"/>
     <use xlink:href="#CMSS17-6f" transform="translate(1605.056843 0)scale(0.996264)"/>
     <use xlink:href="#CMSS17-6e" transform="translate(1651.900466 0)scale(0.996264)"/>
    </g>
   </g>
   <g id="legend_2">
    <g id="patch_13">
     <path d="M 295.667836 189.971558 
L 440.363453 189.971558 
Q 442.363453 189.971558 442.363453 187.971558 
L 442.363453 143.70218 
Q 442.363453 141.70218 440.363453 141.70218 
L 295.667836 141.70218 
Q 293.667836 141.70218 293.667836 143.70218 
L 293.667836 187.971558 
Q 293.667836 189.971558 295.667836 189.971558 
z
" style="fill: #ffffff; opacity: 0.8; stroke: #cccccc; stroke-linejoin: miter"/>
    </g>
    <g id="line2d_19">
     <g>
      <use xlink:href="#m0232604999" x="307.667836" y="150.311799" style="fill: #1f77b4; stroke: #1f77b4"/>
     </g>
    </g>
    <g id="text_16">
     <!-- transformed data points $x_i^2$ -->
     <g transform="translate(325.667836 153.811799)scale(0.1 -0.1)">
      <use xlink:href="#CMSS17-74" transform="scale(0.996264)"/>
      <use xlink:href="#CMSS17-72" transform="translate(33.831567 0)scale(0.996264)"/>
      <use xlink:href="#CMSS17-61" transform="translate(65.741339 0)scale(0.996264)"/>
      <use xlink:href="#CMSS17-6e" transform="translate(110.66326 0)scale(0.996264)"/>
      <use xlink:href="#CMSS17-73" transform="translate(158.868203 0)scale(0.996264)"/>
      <use xlink:href="#CMSS17-66" transform="translate(194.781745 0)scale(0.996264)"/>
      <use xlink:href="#CMSS17-6f" transform="translate(223.408404 0)scale(0.996264)"/>
      <use xlink:href="#CMSS17-72" transform="translate(267.649573 0)scale(0.996264)"/>
      <use xlink:href="#CMSS17-6d" transform="translate(299.559346 0)scale(0.996264)"/>
      <use xlink:href="#CMSS17-65" transform="translate(373.7886 0)scale(0.996264)"/>
      <use xlink:href="#CMSS17-64" transform="translate(415.427422 0)scale(0.996264)"/>
      <use xlink:href="#CMSS17-64" transform="translate(494.861478 0)scale(0.996264)"/>
      <use xlink:href="#CMSS17-61" transform="translate(543.066421 0)scale(0.996264)"/>
      <use xlink:href="#CMSS17-74" transform="translate(587.988342 0)scale(0.996264)"/>
      <use xlink:href="#CMSS17-61" transform="translate(621.819909 0)scale(0.996264)"/>
      <use xlink:href="#CMSS17-70" transform="translate(697.970942 0)scale(0.996264)"/>
      <use xlink:href="#CMSS17-6f" transform="translate(748.778324 0)scale(0.996264)"/>
      <use xlink:href="#CMSS17-69" transform="translate(795.621947 0)scale(0.996264)"/>
      <use xlink:href="#CMSS17-6e" transform="translate(817.802671 0)scale(0.996264)"/>
      <use xlink:href="#CMSS17-74" transform="translate(866.007614 0)scale(0.996264)"/>
      <use xlink:href="#CMSS17-73" transform="translate(899.83918 0)scale(0.996264)"/>
      <use xlink:href="#CMMI12-78" transform="translate(966.981835 0)scale(0.996264)"/>
      <use xlink:href="#CMR17-32" transform="translate(1022.415895 36.153639)scale(0.697382)"/>
      <use xlink:href="#CMMI12-69" transform="translate(1022.415895 -25.505809)scale(0.697382)"/>
     </g>
    </g>
    <g id="line2d_20">
     <path d="M 297.667836 164.934101 
L 307.667836 164.934101 
L 317.667836 164.934101 
" style="fill: none; stroke: #008000; stroke-width: 1.5; stroke-linecap: square"/>
    </g>
    <g id="text_17">
     <!-- $\overline{x^2}$ -->
     <g transform="translate(325.667836 168.434101)scale(0.1 -0.1)">
      <use xlink:href="#CMMI12-78" transform="scale(0.996264)"/>
      <use xlink:href="#CMR17-32" transform="translate(55.43406 28.780957)scale(0.697382)"/>
      <path d="M 0 85.689817 
L 87.915374 85.689817 
L 87.915374 89.674767 
L 0 89.674767 
L 0 85.689817 
z
"/>
     </g>
    </g>
    <g id="line2d_21">
     <path d="M 297.667836 179.980898 
L 307.667836 179.980898 
L 317.667836 179.980898 
" style="fill: none; stroke: #ff0000; stroke-width: 1.5; stroke-linecap: square"/>
    </g>
    <g id="text_18">
     <!-- $(\overline{x})^2$ -->
     <g transform="translate(325.667836 183.480898)scale(0.1 -0.1)">
      <defs>
       <path id="CMR17-28" d="M 1958 -1561 
C 1958 -1555 1958 -1542 1939 -1523 
C 1645 -1224 858 -407 858 1581 
C 858 3569 1632 4379 1946 4697 
C 1946 4704 1958 4717 1958 4736 
C 1958 4755 1939 4768 1914 4768 
C 1843 4768 1299 4296 986 3594 
C 666 2887 576 2199 576 1588 
C 576 1128 621 351 1005 -471 
C 1312 -1135 1837 -1600 1914 -1600 
C 1946 -1600 1958 -1587 1958 -1561 
z
" transform="scale(0.015625)"/>
       <path id="CMR17-29" d="M 1683 1581 
C 1683 2040 1638 2817 1254 3639 
C 947 4303 422 4768 346 4768 
C 326 4768 301 4761 301 4729 
C 301 4717 307 4710 314 4697 
C 621 4378 1402 3568 1402 1584 
C 1402 -407 627 -1217 314 -1537 
C 307 -1549 301 -1556 301 -1568 
C 301 -1600 326 -1600 346 -1600 
C 416 -1600 960 -1128 1274 -426 
C 1594 281 1683 969 1683 1581 
z
" transform="scale(0.015625)"/>
      </defs>
      <use xlink:href="#CMR17-28" transform="scale(0.996264)"/>
      <use xlink:href="#CMMI12-78" transform="translate(35.280768 0)scale(0.996264)"/>
      <use xlink:href="#CMR17-29" transform="translate(90.714827 0)scale(0.996264)"/>
      <use xlink:href="#CMR17-32" transform="translate(125.995595 36.153639)scale(0.697382)"/>
      <path d="M 35.280768 54.849612 
L 90.714827 54.849612 
L 90.714827 58.834561 
L 35.280768 58.834561 
L 35.280768 54.849612 
z
"/>
     </g>
    </g>
   </g>
  </g>
  <g id="axes_3">
   <g id="patch_14">
    <path d="M 14.3 318.944323 
L 447.363453 318.944323 
L 447.363453 248.30218 
L 14.3 248.30218 
z
" style="fill: #ffffff"/>
   </g>
   <g id="matplotlib.axis_3">
    <g id="xtick_12">
     <g id="line2d_22">
      <g>
       <use xlink:href="#m5c6ed7d832" x="23.914746" y="318.944323" style="stroke: #000000; stroke-width: 0.8"/>
      </g>
     </g>
     <g id="text_19">
      <!-- $\mathdefault{−4.0}$ -->
      <g transform="translate(13.675335 332.862822)scale(0.1 -0.1)">
       <defs>
        <path id="CMSY10-0" d="M 4218 1472 
C 4326 1472 4442 1472 4442 1600 
C 4442 1728 4326 1728 4218 1728 
L 755 1728 
C 646 1728 531 1728 531 1600 
C 531 1472 646 1472 755 1472 
L 4218 1472 
z
" transform="scale(0.015625)"/>
       </defs>
       <use xlink:href="#CMSY10-0" transform="scale(0.996264)"/>
       <use xlink:href="#CMR17-34" transform="translate(77.487468 0)scale(0.996264)"/>
       <use xlink:href="#CMMI12-3a" transform="translate(123.177945 0)scale(0.996264)"/>
       <use xlink:href="#CMR17-30" transform="translate(150.275122 0)scale(0.996264)"/>
      </g>
     </g>
    </g>
    <g id="xtick_13">
     <g id="line2d_23">
      <g>
       <use xlink:href="#m5c6ed7d832" x="74.856636" y="318.944323" style="stroke: #000000; stroke-width: 0.8"/>
      </g>
     </g>
     <g id="text_20">
      <!-- $\mathdefault{−3.5}$ -->
      <g transform="translate(64.617225 332.862822)scale(0.1 -0.1)">
       <defs>
        <path id="CMR17-33" d="M 1414 2157 
C 1984 2157 2234 1662 2234 1090 
C 2234 320 1824 25 1453 25 
C 1114 25 563 194 390 693 
C 422 680 454 680 486 680 
C 640 680 755 782 755 948 
C 755 1133 614 1216 486 1216 
C 378 1216 211 1165 211 926 
C 211 335 787 -128 1466 -128 
C 2176 -128 2720 430 2720 1085 
C 2720 1707 2208 2157 1600 2227 
C 2086 2328 2554 2756 2554 3329 
C 2554 3820 2048 4179 1472 4179 
C 890 4179 378 3829 378 3329 
C 378 3110 544 3072 627 3072 
C 762 3072 877 3155 877 3321 
C 877 3486 762 3569 627 3569 
C 602 3569 570 3569 544 3557 
C 730 3959 1235 4032 1459 4032 
C 1683 4032 2106 3925 2106 3320 
C 2106 3143 2080 2828 1862 2550 
C 1670 2304 1453 2304 1242 2284 
C 1210 2284 1062 2269 1037 2269 
C 992 2263 966 2257 966 2208 
C 966 2163 973 2157 1101 2157 
L 1414 2157 
z
" transform="scale(0.015625)"/>
        <path id="CMR17-35" d="M 730 3692 
C 794 3666 1056 3584 1325 3584 
C 1920 3584 2246 3911 2432 4100 
C 2432 4157 2432 4192 2394 4192 
C 2387 4192 2374 4192 2323 4163 
C 2099 4058 1837 3973 1517 3973 
C 1325 3973 1037 3999 723 4139 
C 653 4171 640 4171 634 4171 
C 602 4171 595 4164 595 4037 
L 595 2203 
C 595 2089 595 2057 659 2057 
C 691 2057 704 2070 736 2114 
C 941 2401 1222 2522 1542 2522 
C 1766 2522 2246 2382 2246 1289 
C 2246 1085 2246 715 2054 421 
C 1894 159 1645 25 1370 25 
C 947 25 518 320 403 814 
C 429 807 480 795 506 795 
C 589 795 749 840 749 1038 
C 749 1210 627 1280 506 1280 
C 358 1280 262 1190 262 1011 
C 262 454 704 -128 1382 -128 
C 2042 -128 2669 440 2669 1264 
C 2669 2030 2170 2624 1549 2624 
C 1222 2624 947 2503 730 2274 
L 730 3692 
z
" transform="scale(0.015625)"/>
       </defs>
       <use xlink:href="#CMSY10-0" transform="scale(0.996264)"/>
       <use xlink:href="#CMR17-33" transform="translate(77.487468 0)scale(0.996264)"/>
       <use xlink:href="#CMMI12-3a" transform="translate(123.177945 0)scale(0.996264)"/>
       <use xlink:href="#CMR17-35" transform="translate(150.275122 0)scale(0.996264)"/>
      </g>
     </g>
    </g>
    <g id="xtick_14">
     <g id="line2d_24">
      <g>
       <use xlink:href="#m5c6ed7d832" x="125.798526" y="318.944323" style="stroke: #000000; stroke-width: 0.8"/>
      </g>
     </g>
     <g id="text_21">
      <!-- $\mathdefault{−3.0}$ -->
      <g transform="translate(115.559115 332.862822)scale(0.1 -0.1)">
       <use xlink:href="#CMSY10-0" transform="scale(0.996264)"/>
       <use xlink:href="#CMR17-33" transform="translate(77.487468 0)scale(0.996264)"/>
       <use xlink:href="#CMMI12-3a" transform="translate(123.177945 0)scale(0.996264)"/>
       <use xlink:href="#CMR17-30" transform="translate(150.275122 0)scale(0.996264)"/>
      </g>
     </g>
    </g>
    <g id="xtick_15">
     <g id="line2d_25">
      <g>
       <use xlink:href="#m5c6ed7d832" x="176.740416" y="318.944323" style="stroke: #000000; stroke-width: 0.8"/>
      </g>
     </g>
     <g id="text_22">
      <!-- $\mathdefault{−2.5}$ -->
      <g transform="translate(166.501004 332.862822)scale(0.1 -0.1)">
       <use xlink:href="#CMSY10-0" transform="scale(0.996264)"/>
       <use xlink:href="#CMR17-32" transform="translate(77.487468 0)scale(0.996264)"/>
       <use xlink:href="#CMMI12-3a" transform="translate(123.177945 0)scale(0.996264)"/>
       <use xlink:href="#CMR17-35" transform="translate(150.275122 0)scale(0.996264)"/>
      </g>
     </g>
    </g>
    <g id="xtick_16">
     <g id="line2d_26">
      <g>
       <use xlink:href="#m5c6ed7d832" x="227.682305" y="318.944323" style="stroke: #000000; stroke-width: 0.8"/>
      </g>
     </g>
     <g id="text_23">
      <!-- $\mathdefault{−2.0}$ -->
      <g transform="translate(217.442894 332.862822)scale(0.1 -0.1)">
       <use xlink:href="#CMSY10-0" transform="scale(0.996264)"/>
       <use xlink:href="#CMR17-32" transform="translate(77.487468 0)scale(0.996264)"/>
       <use xlink:href="#CMMI12-3a" transform="translate(123.177945 0)scale(0.996264)"/>
       <use xlink:href="#CMR17-30" transform="translate(150.275122 0)scale(0.996264)"/>
      </g>
     </g>
    </g>
    <g id="xtick_17">
     <g id="line2d_27">
      <g>
       <use xlink:href="#m5c6ed7d832" x="278.624195" y="318.944323" style="stroke: #000000; stroke-width: 0.8"/>
      </g>
     </g>
     <g id="text_24">
      <!-- $\mathdefault{−1.5}$ -->
      <g transform="translate(268.384784 332.862822)scale(0.1 -0.1)">
       <use xlink:href="#CMSY10-0" transform="scale(0.996264)"/>
       <use xlink:href="#CMR17-31" transform="translate(77.487468 0)scale(0.996264)"/>
       <use xlink:href="#CMMI12-3a" transform="translate(123.177945 0)scale(0.996264)"/>
       <use xlink:href="#CMR17-35" transform="translate(150.275122 0)scale(0.996264)"/>
      </g>
     </g>
    </g>
    <g id="xtick_18">
     <g id="line2d_28">
      <g>
       <use xlink:href="#m5c6ed7d832" x="329.566085" y="318.944323" style="stroke: #000000; stroke-width: 0.8"/>
      </g>
     </g>
     <g id="text_25">
      <!-- $\mathdefault{−1.0}$ -->
      <g transform="translate(319.326674 332.862822)scale(0.1 -0.1)">
       <use xlink:href="#CMSY10-0" transform="scale(0.996264)"/>
       <use xlink:href="#CMR17-31" transform="translate(77.487468 0)scale(0.996264)"/>
       <use xlink:href="#CMMI12-3a" transform="translate(123.177945 0)scale(0.996264)"/>
       <use xlink:href="#CMR17-30" transform="translate(150.275122 0)scale(0.996264)"/>
      </g>
     </g>
    </g>
    <g id="xtick_19">
     <g id="line2d_29">
      <g>
       <use xlink:href="#m5c6ed7d832" x="380.507975" y="318.944323" style="stroke: #000000; stroke-width: 0.8"/>
      </g>
     </g>
     <g id="text_26">
      <!-- $\mathdefault{−0.5}$ -->
      <g transform="translate(370.268563 332.862822)scale(0.1 -0.1)">
       <use xlink:href="#CMSY10-0" transform="scale(0.996264)"/>
       <use xlink:href="#CMR17-30" transform="translate(77.487468 0)scale(0.996264)"/>
       <use xlink:href="#CMMI12-3a" transform="translate(123.177945 0)scale(0.996264)"/>
       <use xlink:href="#CMR17-35" transform="translate(150.275122 0)scale(0.996264)"/>
      </g>
     </g>
    </g>
    <g id="xtick_20">
     <g id="line2d_30">
      <g>
       <use xlink:href="#m5c6ed7d832" x="431.449864" y="318.944323" style="stroke: #000000; stroke-width: 0.8"/>
      </g>
     </g>
     <g id="text_27">
      <!-- $\mathdefault{0.0}$ -->
      <g transform="translate(425.084825 332.862822)scale(0.1 -0.1)">
       <use xlink:href="#CMR17-30" transform="scale(0.996264)"/>
       <use xlink:href="#CMMI12-3a" transform="translate(45.690477 0)scale(0.996264)"/>
       <use xlink:href="#CMR17-30" transform="translate(72.787654 0)scale(0.996264)"/>
      </g>
     </g>
    </g>
   </g>
   <g id="line2d_31">
    <g clip-path="url(#p4a8dbdab4c)">
     <use xlink:href="#m0232604999" x="370.319943" y="283.623252" style="fill: #1f77b4; stroke: #1f77b4"/>
     <use xlink:href="#m0232604999" x="397.297614" y="283.623252" style="fill: #1f77b4; stroke: #1f77b4"/>
     <use xlink:href="#m0232604999" x="379.873181" y="283.623252" style="fill: #1f77b4; stroke: #1f77b4"/>
     <use xlink:href="#m0232604999" x="369.587679" y="283.623252" style="fill: #1f77b4; stroke: #1f77b4"/>
     <use xlink:href="#m0232604999" x="343.948375" y="283.623252" style="fill: #1f77b4; stroke: #1f77b4"/>
     <use xlink:href="#m0232604999" x="386.914457" y="283.623252" style="fill: #1f77b4; stroke: #1f77b4"/>
     <use xlink:href="#m0232604999" x="347.245034" y="283.623252" style="fill: #1f77b4; stroke: #1f77b4"/>
     <use xlink:href="#m0232604999" x="419.779723" y="283.623252" style="fill: #1f77b4; stroke: #1f77b4"/>
     <use xlink:href="#m0232604999" x="427.67875" y="283.623252" style="fill: #1f77b4; stroke: #1f77b4"/>
     <use xlink:href="#m0232604999" x="333.787317" y="283.623252" style="fill: #1f77b4; stroke: #1f77b4"/>
     <use xlink:href="#m0232604999" x="407.655812" y="283.623252" style="fill: #1f77b4; stroke: #1f77b4"/>
     <use xlink:href="#m0232604999" x="366.553411" y="283.623252" style="fill: #1f77b4; stroke: #1f77b4"/>
     <use xlink:href="#m0232604999" x="373.828942" y="283.623252" style="fill: #1f77b4; stroke: #1f77b4"/>
     <use xlink:href="#m0232604999" x="423.572543" y="283.623252" style="fill: #1f77b4; stroke: #1f77b4"/>
     <use xlink:href="#m0232604999" x="162.011315" y="283.623252" style="fill: #1f77b4; stroke: #1f77b4"/>
     <use xlink:href="#m0232604999" x="182.816554" y="283.623252" style="fill: #1f77b4; stroke: #1f77b4"/>
     <use xlink:href="#m0232604999" x="33.984702" y="283.623252" style="fill: #1f77b4; stroke: #1f77b4"/>
     <use xlink:href="#m0232604999" x="412.786986" y="283.623252" style="fill: #1f77b4; stroke: #1f77b4"/>
     <use xlink:href="#m0232604999" x="405.894631" y="283.623252" style="fill: #1f77b4; stroke: #1f77b4"/>
     <use xlink:href="#m0232604999" x="417.262741" y="283.623252" style="fill: #1f77b4; stroke: #1f77b4"/>
    </g>
   </g>
   <g id="line2d_32">
    <path d="M 348.139986 318.944323 
L 348.139986 248.30218 
" clip-path="url(#p4a8dbdab4c)" style="fill: none; stroke: #008000; stroke-width: 1.5; stroke-linecap: square"/>
   </g>
   <g id="line2d_33">
    <path d="M 376.223759 318.944323 
L 376.223759 248.30218 
" clip-path="url(#p4a8dbdab4c)" style="fill: none; stroke: #ff0000; stroke-width: 1.5; stroke-linecap: square"/>
   </g>
   <g id="patch_15">
    <path d="M 14.3 318.944323 
L 14.3 248.30218 
" style="fill: none; stroke: #000000; stroke-width: 0.8; stroke-linejoin: miter; stroke-linecap: square"/>
   </g>
   <g id="patch_16">
    <path d="M 447.363453 318.944323 
L 447.363453 248.30218 
" style="fill: none; stroke: #000000; stroke-width: 0.8; stroke-linejoin: miter; stroke-linecap: square"/>
   </g>
   <g id="patch_17">
    <path d="M 14.3 318.944323 
L 447.363453 318.944323 
" style="fill: none; stroke: #000000; stroke-width: 0.8; stroke-linejoin: miter; stroke-linecap: square"/>
   </g>
   <g id="patch_18">
    <path d="M 14.3 248.30218 
L 447.363453 248.30218 
" style="fill: none; stroke: #000000; stroke-width: 0.8; stroke-linejoin: miter; stroke-linecap: square"/>
   </g>
   <g id="text_28">
    <!-- transformed data points by concave function -->
    <g transform="translate(122.059667 242.30218)scale(0.12 -0.12)">
     <use xlink:href="#CMSS17-74" transform="scale(0.996264)"/>
     <use xlink:href="#CMSS17-72" transform="translate(33.831567 0)scale(0.996264)"/>
     <use xlink:href="#CMSS17-61" transform="translate(65.741339 0)scale(0.996264)"/>
     <use xlink:href="#CMSS17-6e" transform="translate(110.66326 0)scale(0.996264)"/>
     <use xlink:href="#CMSS17-73" transform="translate(158.868203 0)scale(0.996264)"/>
     <use xlink:href="#CMSS17-66" transform="translate(194.781745 0)scale(0.996264)"/>
     <use xlink:href="#CMSS17-6f" transform="translate(223.408404 0)scale(0.996264)"/>
     <use xlink:href="#CMSS17-72" transform="translate(267.649573 0)scale(0.996264)"/>
     <use xlink:href="#CMSS17-6d" transform="translate(299.559346 0)scale(0.996264)"/>
     <use xlink:href="#CMSS17-65" transform="translate(373.7886 0)scale(0.996264)"/>
     <use xlink:href="#CMSS17-64" transform="translate(415.427422 0)scale(0.996264)"/>
     <use xlink:href="#CMSS17-64" transform="translate(494.861478 0)scale(0.996264)"/>
     <use xlink:href="#CMSS17-61" transform="translate(543.066421 0)scale(0.996264)"/>
     <use xlink:href="#CMSS17-74" transform="translate(587.988342 0)scale(0.996264)"/>
     <use xlink:href="#CMSS17-61" transform="translate(621.819909 0)scale(0.996264)"/>
     <use xlink:href="#CMSS17-70" transform="translate(697.970942 0)scale(0.996264)"/>
     <use xlink:href="#CMSS17-6f" transform="translate(748.778324 0)scale(0.996264)"/>
     <use xlink:href="#CMSS17-69" transform="translate(795.621947 0)scale(0.996264)"/>
     <use xlink:href="#CMSS17-6e" transform="translate(817.802671 0)scale(0.996264)"/>
     <use xlink:href="#CMSS17-74" transform="translate(866.007614 0)scale(0.996264)"/>
     <use xlink:href="#CMSS17-73" transform="translate(899.83918 0)scale(0.996264)"/>
     <use xlink:href="#CMSS17-62" transform="translate(966.981835 0)scale(0.996264)"/>
     <use xlink:href="#CMSS17-79" transform="translate(1012.584324 0)scale(0.996264)"/>
     <use xlink:href="#CMSS17-63" transform="translate(1086.813579 0)scale(0.996264)"/>
     <use xlink:href="#CMSS17-6f" transform="translate(1128.452401 0)scale(0.996264)"/>
     <use xlink:href="#CMSS17-6e" transform="translate(1175.296024 0)scale(0.996264)"/>
     <use xlink:href="#CMSS17-63" transform="translate(1223.500967 0)scale(0.996264)"/>
     <use xlink:href="#CMSS17-61" transform="translate(1265.13979 0)scale(0.996264)"/>
     <use xlink:href="#CMSS17-76" transform="translate(1310.06171 0)scale(0.996264)"/>
     <use xlink:href="#CMSS17-65" transform="translate(1353.061852 0)scale(0.996264)"/>
     <use xlink:href="#CMSS17-66" transform="translate(1425.929787 0)scale(0.996264)"/>
     <use xlink:href="#CMSS17-75" transform="translate(1454.556445 0)scale(0.996264)"/>
     <use xlink:href="#CMSS17-6e" transform="translate(1502.761389 0)scale(0.996264)"/>
     <use xlink:href="#CMSS17-63" transform="translate(1550.966332 0)scale(0.996264)"/>
     <use xlink:href="#CMSS17-74" transform="translate(1592.605154 0)scale(0.996264)"/>
     <use xlink:href="#CMSS17-69" transform="translate(1626.43672 0)scale(0.996264)"/>
     <use xlink:href="#CMSS17-6f" transform="translate(1648.617443 0)scale(0.996264)"/>
     <use xlink:href="#CMSS17-6e" transform="translate(1695.461067 0)scale(0.996264)"/>
    </g>
   </g>
   <g id="legend_3">
    <g id="patch_19">
     <path d="M 148.502527 313.944323 
L 313.160926 313.944323 
Q 315.160926 313.944323 315.160926 311.944323 
L 315.160926 266.462466 
Q 315.160926 264.462466 313.160926 264.462466 
L 148.502527 264.462466 
Q 146.502527 264.462466 146.502527 266.462466 
L 146.502527 311.944323 
Q 146.502527 313.944323 148.502527 313.944323 
z
" style="fill: #ffffff; opacity: 0.8; stroke: #cccccc; stroke-linejoin: miter"/>
    </g>
    <g id="line2d_34">
     <g>
      <use xlink:href="#m0232604999" x="160.502527" y="272.434446" style="fill: #1f77b4; stroke: #1f77b4"/>
     </g>
    </g>
    <g id="text_29">
     <!-- transformed data points $\log(x_i)$ -->
     <g transform="translate(178.502527 275.934446)scale(0.1 -0.1)">
      <defs>
       <path id="CMR17-6c" d="M 979 4396 
L 218 4326 
L 218 4160 
C 595 4160 653 4122 653 3817 
L 653 426 
C 653 184 627 153 218 153 
L 218 -13 
C 371 0 653 0 813 0 
C 979 0 1261 0 1414 -13 
L 1414 153 
C 1005 153 979 178 979 426 
L 979 4396 
z
" transform="scale(0.015625)"/>
       <path id="CMR17-6f" d="M 2758 1356 
C 2758 2176 2163 2816 1466 2816 
C 768 2816 173 2176 173 1356 
C 173 551 768 -64 1466 -64 
C 2163 -64 2758 551 2758 1356 
z
M 1466 51 
C 1165 51 909 230 762 480 
C 602 767 582 1126 582 1408 
C 582 1677 595 2010 762 2298 
C 890 2509 1139 2714 1466 2714 
C 1754 2714 1997 2554 2150 2330 
C 2349 2029 2349 1607 2349 1408 
C 2349 1158 2336 775 2163 467 
C 1984 173 1709 51 1466 51 
z
" transform="scale(0.015625)"/>
       <path id="CMR17-67" d="M 710 1164 
C 832 1068 1043 960 1299 960 
C 1805 960 2240 1357 2240 1888 
C 2240 2054 2189 2310 1997 2509 
C 2176 2692 2438 2752 2586 2752 
C 2611 2752 2650 2752 2682 2734 
C 2656 2728 2598 2703 2598 2605 
C 2598 2527 2656 2471 2739 2471 
C 2835 2471 2886 2533 2886 2614 
C 2886 2731 2790 2854 2586 2854 
C 2330 2854 2106 2738 1926 2580 
C 1734 2753 1504 2816 1299 2816 
C 794 2816 358 2419 358 1888 
C 358 1522 570 1292 634 1228 
C 442 1004 442 743 442 711 
C 442 545 506 302 723 168 
C 390 85 128 -169 128 -486 
C 128 -943 736 -1280 1466 -1280 
C 2170 -1280 2803 -956 2803 -479 
C 2803 384 1856 384 1363 384 
C 1216 384 954 384 922 391 
C 723 423 589 602 589 826 
C 589 883 589 1024 710 1164 
z
M 1299 1068 
C 736 1068 736 1760 736 1889 
C 736 2016 736 2708 1299 2708 
C 1862 2708 1862 2016 1862 1889 
C 1862 1760 1862 1068 1299 1068 
z
M 1466 -1171 
C 826 -1171 384 -835 384 -486 
C 384 -289 493 -105 634 -4 
C 794 104 858 104 1293 104 
C 1818 104 2547 104 2547 -486 
C 2547 -835 2106 -1171 1466 -1171 
z
" transform="scale(0.015625)"/>
      </defs>
      <use xlink:href="#CMSS17-74" transform="scale(0.996264)"/>
      <use xlink:href="#CMSS17-72" transform="translate(33.831567 0)scale(0.996264)"/>
      <use xlink:href="#CMSS17-61" transform="translate(65.741339 0)scale(0.996264)"/>
      <use xlink:href="#CMSS17-6e" transform="translate(110.66326 0)scale(0.996264)"/>
      <use xlink:href="#CMSS17-73" transform="translate(158.868203 0)scale(0.996264)"/>
      <use xlink:href="#CMSS17-66" transform="translate(194.781745 0)scale(0.996264)"/>
      <use xlink:href="#CMSS17-6f" transform="translate(223.408404 0)scale(0.996264)"/>
      <use xlink:href="#CMSS17-72" transform="translate(267.649573 0)scale(0.996264)"/>
      <use xlink:href="#CMSS17-6d" transform="translate(299.559346 0)scale(0.996264)"/>
      <use xlink:href="#CMSS17-65" transform="translate(373.7886 0)scale(0.996264)"/>
      <use xlink:href="#CMSS17-64" transform="translate(415.427422 0)scale(0.996264)"/>
      <use xlink:href="#CMSS17-64" transform="translate(494.861478 0)scale(0.996264)"/>
      <use xlink:href="#CMSS17-61" transform="translate(543.066421 0)scale(0.996264)"/>
      <use xlink:href="#CMSS17-74" transform="translate(587.988342 0)scale(0.996264)"/>
      <use xlink:href="#CMSS17-61" transform="translate(621.819909 0)scale(0.996264)"/>
      <use xlink:href="#CMSS17-70" transform="translate(697.970942 0)scale(0.996264)"/>
      <use xlink:href="#CMSS17-6f" transform="translate(748.778324 0)scale(0.996264)"/>
      <use xlink:href="#CMSS17-69" transform="translate(795.621947 0)scale(0.996264)"/>
      <use xlink:href="#CMSS17-6e" transform="translate(817.802671 0)scale(0.996264)"/>
      <use xlink:href="#CMSS17-74" transform="translate(866.007614 0)scale(0.996264)"/>
      <use xlink:href="#CMSS17-73" transform="translate(899.83918 0)scale(0.996264)"/>
      <use xlink:href="#CMR17-6c" transform="translate(966.981835 0)scale(0.996264)"/>
      <use xlink:href="#CMR17-6f" transform="translate(991.852894 0)scale(0.996264)"/>
      <use xlink:href="#CMR17-67" transform="translate(1037.543371 0)scale(0.996264)"/>
      <use xlink:href="#CMR17-28" transform="translate(1084.535014 0)scale(0.996264)"/>
      <use xlink:href="#CMMI12-78" transform="translate(1119.815782 0)scale(0.996264)"/>
      <use xlink:href="#CMMI12-69" transform="translate(1175.249841 -14.943915)scale(0.697382)"/>
      <use xlink:href="#CMR17-29" transform="translate(1199.042881 0)scale(0.996264)"/>
     </g>
    </g>
    <g id="line2d_35">
     <path d="M 150.502527 288.991023 
L 160.502527 288.991023 
L 170.502527 288.991023 
" style="fill: none; stroke: #008000; stroke-width: 1.5; stroke-linecap: square"/>
    </g>
    <g id="text_30">
     <!-- $\overline{\log(x)}$ -->
     <g transform="translate(178.502527 292.491023)scale(0.1 -0.1)">
      <use xlink:href="#CMR17-6c" transform="scale(0.996264)"/>
      <use xlink:href="#CMR17-6f" transform="translate(24.871058 0)scale(0.996264)"/>
      <use xlink:href="#CMR17-67" transform="translate(70.561536 0)scale(0.996264)"/>
      <use xlink:href="#CMR17-28" transform="translate(117.553179 0)scale(0.996264)"/>
      <use xlink:href="#CMMI12-78" transform="translate(152.833947 0)scale(0.996264)"/>
      <use xlink:href="#CMR17-29" transform="translate(208.268006 0)scale(0.996264)"/>
      <path d="M 0 86.584959 
L 243.548774 86.584959 
L 243.548774 90.569909 
L 0 90.569909 
L 0 86.584959 
z
"/>
     </g>
    </g>
    <g id="line2d_36">
     <path d="M 150.502527 303.953663 
L 160.502527 303.953663 
L 170.502527 303.953663 
" style="fill: none; stroke: #ff0000; stroke-width: 1.5; stroke-linecap: square"/>
    </g>
    <g id="text_31">
     <!-- $\log(\overline{x})$ -->
     <g transform="translate(178.502527 307.453663)scale(0.1 -0.1)">
      <use xlink:href="#CMR17-6c" transform="scale(0.996264)"/>
      <use xlink:href="#CMR17-6f" transform="translate(24.871058 0)scale(0.996264)"/>
      <use xlink:href="#CMR17-67" transform="translate(70.561536 0)scale(0.996264)"/>
      <use xlink:href="#CMR17-28" transform="translate(117.553179 0)scale(0.996264)"/>
      <use xlink:href="#CMMI12-78" transform="translate(152.833947 0)scale(0.996264)"/>
      <use xlink:href="#CMR17-29" transform="translate(208.268006 0)scale(0.996264)"/>
      <path d="M 152.833947 54.849612 
L 208.268006 54.849612 
L 208.268006 58.834561 
L 152.833947 58.834561 
L 152.833947 54.849612 
z
"/>
     </g>
    </g>
   </g>
  </g>
 </g>
 <defs>
  <clipPath id="pd77a5f3e60">
   <rect x="14.3" y="25.10218" width="433.063453" height="70.642143"/>
  </clipPath>
  <clipPath id="pbd6cdedd9e">
   <rect x="14.3" y="136.70218" width="433.063453" height="70.642143"/>
  </clipPath>
  <clipPath id="p4a8dbdab4c">
   <rect x="14.3" y="248.30218" width="433.063453" height="70.642143"/>
  </clipPath>
 </defs>
</svg>
