<?xml version="1.0" encoding="UTF-8" standalone="no"?>
<!DOCTYPE svg PUBLIC "-//W3C//DTD SVG 1.1//EN" "http://www.w3.org/Graphics/SVG/1.1/DTD/svg11.dtd">
<svg width="100%" height="100%" viewBox="0 0 957 621" version="1.1" xmlns="http://www.w3.org/2000/svg" xmlns:xlink="http://www.w3.org/1999/xlink" xml:space="preserve" xmlns:serif="http://www.serif.com/" style="fill-rule:evenodd;clip-rule:evenodd;stroke-linecap:round;stroke-linejoin:round;stroke-miterlimit:1.5;">
    <path d="M103.745,518.835l0,-503.953" style="fill:none;stroke:black;stroke-width:8.99px;"/>
    <path d="M4.493,421.016l806.389,-0" style="fill:none;stroke:black;stroke-width:8.99px;"/>
    <path d="M103.745,4.493l-38.594,38.594" style="fill:none;stroke:black;stroke-width:8.99px;"/>
    <path d="M810.882,421.016l-38.595,-38.595" style="fill:none;stroke:black;stroke-width:8.99px;"/>
    <path d="M103.745,4.493l37.161,37.161" style="fill:none;stroke:black;stroke-width:8.99px;"/>
    <path d="M810.882,421.016l-37.161,37.161" style="fill:none;stroke:black;stroke-width:8.99px;"/>
    <path d="M25.275,491.688c72.076,-224.619 424.961,-410.383 731.042,-309.726" style="fill:none;stroke:rgb(87,103,205);stroke-width:8.99px;"/>
    <path d="M174.985,172.824c-1.419,-0.955 -2.833,-1.607 -4.243,-1.958c-1.409,-0.35 -2.994,-0.335 -4.755,0.046c-1.715,0.37 -3.142,1.006 -4.281,1.907c-1.139,0.901 -2.02,1.988 -2.641,3.263c-0.622,1.274 -1.001,2.665 -1.136,4.174c-0.135,1.508 -0.037,3.027 0.294,4.556c0.33,1.529 0.898,2.922 1.703,4.179c0.805,1.257 1.781,2.295 2.928,3.114c1.147,0.82 2.432,1.379 3.855,1.678c1.422,0.298 2.945,0.273 4.567,-0.078c1.761,-0.38 3.199,-1.019 4.315,-1.914c1.116,-0.896 2.077,-2.062 2.882,-3.497l5.41,3.487c-1.231,2.158 -2.839,3.864 -4.824,5.117c-1.985,1.253 -4.182,2.14 -6.591,2.661c-2.549,0.551 -4.968,0.637 -7.256,0.258c-2.289,-0.378 -4.361,-1.155 -6.215,-2.331c-1.855,-1.176 -3.427,-2.727 -4.717,-4.656c-1.289,-1.928 -2.21,-4.166 -2.76,-6.715c-0.551,-2.549 -0.64,-4.979 -0.266,-7.291c0.374,-2.312 1.148,-4.395 2.324,-6.249c1.175,-1.855 2.725,-3.439 4.648,-4.752c1.923,-1.313 4.182,-2.249 6.777,-2.81c2.41,-0.521 4.808,-0.59 7.194,-0.209c2.387,0.382 4.581,1.278 6.583,2.689l-3.795,5.331Z" style="fill:rgb(87,103,205);fill-rule:nonzero;"/>
    <path d="M191.666,177.295c0.36,1.668 0.948,3.154 1.763,4.457c0.815,1.303 1.794,2.353 2.936,3.149c1.142,0.796 2.448,1.338 3.917,1.627c1.469,0.289 3.037,0.253 4.706,-0.107c1.668,-0.361 3.111,-0.976 4.33,-1.845c1.219,-0.87 2.184,-1.903 2.895,-3.099c0.712,-1.197 1.17,-2.557 1.374,-4.081c0.204,-1.523 0.126,-3.119 -0.234,-4.787c-0.361,-1.668 -0.948,-3.154 -1.764,-4.457c-0.815,-1.303 -1.793,-2.353 -2.935,-3.149c-1.142,-0.796 -2.448,-1.339 -3.917,-1.627c-1.469,-0.289 -3.038,-0.254 -4.706,0.107c-1.668,0.36 -3.111,0.975 -4.33,1.845c-1.219,0.87 -2.184,1.903 -2.895,3.099c-0.712,1.197 -1.17,2.557 -1.374,4.08c-0.205,1.524 -0.127,3.12 0.234,4.788Zm-6.673,1.442c-0.521,-2.41 -0.554,-4.755 -0.101,-7.036c0.453,-2.28 1.297,-4.378 2.532,-6.294c1.235,-1.916 2.821,-3.556 4.757,-4.921c1.936,-1.364 4.133,-2.311 6.589,-2.842c2.456,-0.531 4.847,-0.574 7.174,-0.131c2.327,0.443 4.448,1.282 6.364,2.517c1.916,1.235 3.551,2.798 4.905,4.688c1.355,1.89 2.292,4.039 2.813,6.449c0.52,2.41 0.557,4.766 0.109,7.07c-0.448,2.304 -1.293,4.402 -2.533,6.295c-1.24,1.893 -2.828,3.521 -4.764,4.885c-1.937,1.365 -4.133,2.312 -6.589,2.843c-2.456,0.53 -4.847,0.574 -7.174,0.131c-2.327,-0.443 -4.446,-1.27 -6.357,-2.482c-1.911,-1.212 -3.546,-2.775 -4.905,-4.688c-1.359,-1.913 -2.299,-4.075 -2.82,-6.484Z" style="fill:rgb(87,103,205);fill-rule:nonzero;"/>
    <path d="M224.321,152.996l6.255,-1.351l1.097,5.074l0.139,-0.03c0.407,-1.931 1.466,-3.652 3.177,-5.161c1.711,-1.51 3.841,-2.54 6.39,-3.091c1.575,-0.34 3.145,-0.425 4.71,-0.253c1.565,0.171 3.002,0.648 4.311,1.433c1.31,0.784 2.461,1.905 3.455,3.364c0.995,1.458 1.727,3.276 2.198,5.454l4.58,21.201l-6.255,1.351l-4.206,-19.462c-0.33,-1.529 -0.822,-2.793 -1.474,-3.792c-0.652,-0.999 -1.399,-1.76 -2.239,-2.281c-0.84,-0.522 -1.745,-0.836 -2.713,-0.942c-0.969,-0.106 -1.94,-0.054 -2.913,0.157c-1.298,0.28 -2.457,0.749 -3.479,1.406c-1.022,0.658 -1.853,1.528 -2.492,2.612c-0.638,1.084 -1.039,2.371 -1.202,3.861c-0.163,1.491 -0.04,3.186 0.371,5.086l3.664,16.96l-6.255,1.352l-7.119,-32.948Z" style="fill:rgb(87,103,205);fill-rule:nonzero;"/>
    <path d="M288.424,148.312c-1.419,-0.954 -2.833,-1.607 -4.243,-1.957c-1.409,-0.35 -2.995,-0.335 -4.755,0.046c-1.715,0.37 -3.142,1.006 -4.281,1.907c-1.139,0.901 -2.02,1.988 -2.642,3.262c-0.622,1.275 -1,2.666 -1.135,4.174c-0.135,1.509 -0.037,3.028 0.293,4.557c0.331,1.529 0.899,2.922 1.704,4.179c0.805,1.257 1.781,2.295 2.928,3.114c1.147,0.819 2.432,1.378 3.855,1.677c1.422,0.299 2.944,0.273 4.566,-0.077c1.761,-0.381 3.2,-1.019 4.316,-1.915c1.116,-0.896 2.076,-2.061 2.882,-3.496l5.41,3.487c-1.232,2.158 -2.84,3.863 -4.824,5.117c-1.985,1.253 -4.182,2.14 -6.592,2.661c-2.548,0.55 -4.967,0.637 -7.256,0.258c-2.288,-0.379 -4.36,-1.156 -6.214,-2.331c-1.855,-1.176 -3.427,-2.728 -4.717,-4.656c-1.29,-1.928 -2.21,-4.167 -2.761,-6.715c-0.55,-2.549 -0.639,-4.979 -0.265,-7.291c0.373,-2.312 1.148,-4.395 2.323,-6.25c1.176,-1.854 2.725,-3.438 4.649,-4.751c1.923,-1.313 4.182,-2.25 6.777,-2.81c2.41,-0.521 4.808,-0.59 7.194,-0.209c2.386,0.382 4.581,1.278 6.583,2.688l-3.795,5.331Z" style="fill:rgb(87,103,205);fill-rule:nonzero;"/>
    <path d="M297.481,141.408c1.411,-2.002 3.187,-3.659 5.328,-4.971c2.142,-1.312 4.371,-2.218 6.688,-2.718c2.41,-0.521 4.549,-0.668 6.417,-0.441c1.868,0.227 3.468,0.73 4.8,1.509c1.333,0.779 2.408,1.772 3.226,2.977c0.819,1.206 1.383,2.527 1.693,3.963l3.635,16.822c0.25,1.158 0.504,2.219 0.76,3.182c0.257,0.963 0.527,1.875 0.81,2.735l-5.561,1.202c-0.5,-1.638 -0.93,-3.292 -1.29,-4.96l-0.139,0.03c-0.93,2.432 -2.249,4.294 -3.959,5.585c-1.71,1.291 -3.816,2.206 -6.318,2.747c-1.529,0.331 -3.034,0.437 -4.514,0.321c-1.48,-0.117 -2.832,-0.48 -4.055,-1.088c-1.223,-0.609 -2.268,-1.463 -3.136,-2.56c-0.868,-1.098 -1.477,-2.458 -1.827,-4.08c-0.461,-2.132 -0.371,-4.018 0.268,-5.66c0.64,-1.642 1.685,-3.092 3.134,-4.351c1.45,-1.259 3.233,-2.324 5.349,-3.193c2.116,-0.87 4.425,-1.575 6.928,-2.115l4.587,-0.992l-0.3,-1.39c-0.18,-0.834 -0.523,-1.633 -1.027,-2.397c-0.505,-0.764 -1.154,-1.412 -1.948,-1.944c-0.794,-0.531 -1.72,-0.889 -2.779,-1.073c-1.058,-0.183 -2.259,-0.13 -3.603,0.16c-1.204,0.261 -2.234,0.604 -3.087,1.031c-0.854,0.427 -1.614,0.895 -2.28,1.402c-0.666,0.508 -1.251,1.059 -1.753,1.652c-0.502,0.594 -0.986,1.159 -1.452,1.696l-4.595,-3.081Zm20.479,9.253c-1.483,0.32 -2.983,0.729 -4.5,1.227c-1.518,0.497 -2.863,1.116 -4.038,1.854c-1.174,0.739 -2.076,1.613 -2.707,2.622c-0.631,1.01 -0.806,2.163 -0.525,3.461c0.41,1.9 1.343,3.129 2.797,3.688c1.455,0.558 3.271,0.603 5.449,0.132c1.714,-0.371 3.112,-0.976 4.191,-1.815c1.08,-0.84 1.89,-1.803 2.432,-2.89c0.541,-1.087 0.851,-2.233 0.93,-3.439c0.079,-1.205 -0.002,-2.364 -0.242,-3.476l-0.451,-2.085l-3.336,0.721Z" style="fill:rgb(87,103,205);fill-rule:nonzero;"/>
    <path d="M328.584,130.468l7.229,-1.562l15.322,23.099l4.002,-27.275l6.672,-1.442l-5.809,35.741l-6.882,1.487l-20.534,-30.048Z" style="fill:rgb(87,103,205);fill-rule:nonzero;"/>
    <path d="M376.082,139.848c0.311,1.437 0.906,2.678 1.787,3.725c0.881,1.046 1.922,1.876 3.121,2.49c1.2,0.614 2.522,1.007 3.966,1.18c1.444,0.173 2.884,0.105 4.321,-0.206c1.946,-0.42 3.54,-1.238 4.781,-2.452c1.241,-1.214 2.304,-2.692 3.188,-4.435l5.508,2.593c-2.504,5.246 -6.884,8.544 -13.14,9.896c-2.595,0.561 -5.042,0.629 -7.341,0.204c-2.298,-0.425 -4.345,-1.256 -6.14,-2.493c-1.795,-1.237 -3.315,-2.824 -4.558,-4.763c-1.243,-1.938 -2.13,-4.135 -2.661,-6.591c-0.531,-2.456 -0.595,-4.831 -0.194,-7.124c0.402,-2.294 1.188,-4.38 2.359,-6.258c1.171,-1.877 2.703,-3.482 4.598,-4.813c1.895,-1.331 4.071,-2.262 6.527,-2.792c2.919,-0.631 5.497,-0.655 7.733,-0.071c2.236,0.584 4.181,1.559 5.834,2.923c1.652,1.365 2.991,3.016 4.016,4.953c1.025,1.937 1.768,3.971 2.228,6.103l0.481,2.224l-26.414,5.707Zm18.66,-9.27c-0.347,-1.38 -0.843,-2.607 -1.487,-3.68c-0.644,-1.074 -1.453,-1.954 -2.426,-2.641c-0.973,-0.687 -2.102,-1.146 -3.389,-1.377c-1.287,-0.232 -2.718,-0.177 -4.294,0.163c-1.529,0.331 -2.868,0.923 -4.017,1.778c-1.149,0.855 -2.064,1.84 -2.744,2.957c-0.681,1.117 -1.141,2.296 -1.383,3.537c-0.241,1.24 -0.241,2.416 -0.001,3.528l19.741,-4.265Z" style="fill:rgb(87,103,205);fill-rule:nonzero;"/>
    <path d="M428.875,114.472l-7.089,1.532l-1.172,-5.422l7.09,-1.532l-1.592,-7.368c-0.951,-4.402 -0.814,-7.863 0.412,-10.383c1.226,-2.521 3.901,-4.226 8.025,-5.117c0.695,-0.151 1.43,-0.285 2.204,-0.404c0.775,-0.119 1.628,-0.158 2.558,-0.116l0.507,5.711c-0.653,-0.102 -1.267,-0.139 -1.843,-0.111c-0.576,0.027 -1.189,0.111 -1.838,0.251c-1.158,0.25 -2.047,0.625 -2.667,1.122c-0.62,0.498 -1.057,1.114 -1.311,1.848c-0.254,0.734 -0.341,1.565 -0.261,2.493c0.079,0.929 0.244,1.973 0.494,3.131l1.637,7.577l7.438,-1.607l1.171,5.421l-7.507,1.622l5.948,27.526l-6.256,1.352l-5.948,-27.526Z" style="fill:rgb(87,103,205);fill-rule:nonzero;"/>
    <path d="M484.731,131.214l-6.256,1.352l-1.097,-5.075l-0.139,0.03c-0.407,1.932 -1.466,3.652 -3.177,5.161c-1.711,1.51 -3.841,2.54 -6.389,3.091c-1.622,0.35 -3.204,0.437 -4.746,0.261c-1.541,-0.176 -2.967,-0.656 -4.276,-1.44c-1.309,-0.785 -2.461,-1.906 -3.455,-3.364c-0.994,-1.459 -1.727,-3.277 -2.197,-5.455l-4.581,-21.2l6.256,-1.352l4.205,19.462c0.33,1.53 0.822,2.794 1.474,3.793c0.652,0.998 1.399,1.759 2.239,2.28c0.84,0.522 1.745,0.836 2.713,0.942c0.969,0.106 1.94,0.054 2.913,-0.157c1.298,-0.28 2.457,-0.749 3.479,-1.406c1.022,-0.657 1.853,-1.528 2.492,-2.612c0.639,-1.084 1.04,-2.371 1.203,-3.861c0.163,-1.49 0.039,-3.186 -0.372,-5.085l-3.664,-16.961l6.255,-1.351l7.12,32.947Z" style="fill:rgb(87,103,205);fill-rule:nonzero;"/>
    <path d="M487.065,96.224l6.256,-1.352l1.096,5.074l0.139,-0.03c0.407,-1.931 1.466,-3.651 3.177,-5.161c1.711,-1.509 3.841,-2.539 6.39,-3.09c1.575,-0.34 3.145,-0.425 4.71,-0.254c1.565,0.171 3.002,0.649 4.311,1.433c1.31,0.784 2.461,1.906 3.456,3.364c0.994,1.459 1.726,3.277 2.197,5.455l4.581,21.2l-6.256,1.352l-4.206,-19.463c-0.33,-1.529 -0.821,-2.793 -1.474,-3.792c-0.652,-0.999 -1.398,-1.759 -2.239,-2.281c-0.84,-0.521 -1.744,-0.835 -2.713,-0.941c-0.969,-0.106 -1.94,-0.054 -2.913,0.156c-1.297,0.281 -2.457,0.75 -3.479,1.407c-1.022,0.657 -1.853,1.528 -2.492,2.612c-0.638,1.084 -1.039,2.371 -1.202,3.861c-0.163,1.49 -0.04,3.185 0.371,5.085l3.665,16.961l-6.256,1.351l-7.119,-32.947Z" style="fill:rgb(87,103,205);fill-rule:nonzero;"/>
    <path d="M551.168,91.54c-1.419,-0.954 -2.833,-1.607 -4.243,-1.957c-1.409,-0.35 -2.994,-0.335 -4.755,0.045c-1.715,0.371 -3.142,1.006 -4.281,1.907c-1.139,0.901 -2.02,1.989 -2.642,3.263c-0.622,1.274 -1,2.666 -1.135,4.174c-0.135,1.509 -0.037,3.027 0.293,4.557c0.331,1.529 0.899,2.922 1.704,4.179c0.805,1.257 1.781,2.295 2.928,3.114c1.147,0.819 2.432,1.378 3.855,1.677c1.422,0.299 2.945,0.273 4.566,-0.077c1.761,-0.381 3.2,-1.019 4.316,-1.915c1.116,-0.896 2.076,-2.061 2.882,-3.497l5.41,3.488c-1.232,2.158 -2.84,3.863 -4.824,5.116c-1.985,1.254 -4.182,2.141 -6.591,2.661c-2.549,0.551 -4.968,0.637 -7.256,0.259c-2.289,-0.379 -4.361,-1.156 -6.215,-2.331c-1.855,-1.176 -3.427,-2.728 -4.717,-4.656c-1.29,-1.928 -2.21,-4.167 -2.76,-6.716c-0.551,-2.548 -0.64,-4.978 -0.266,-7.29c0.373,-2.312 1.148,-4.395 2.324,-6.25c1.175,-1.855 2.725,-3.438 4.648,-4.751c1.923,-1.313 4.182,-2.25 6.777,-2.811c2.41,-0.52 4.808,-0.59 7.194,-0.208c2.386,0.382 4.581,1.278 6.583,2.688l-3.795,5.331Z" style="fill:rgb(87,103,205);fill-rule:nonzero;"/>
    <path d="M578.042,82.241l-8.967,1.937l3.229,14.945c0.201,0.927 0.421,1.837 0.663,2.73c0.242,0.894 0.591,1.667 1.047,2.321c0.456,0.653 1.045,1.132 1.766,1.437c0.72,0.305 1.683,0.327 2.888,0.067c0.741,-0.16 1.491,-0.395 2.249,-0.704c0.757,-0.309 1.421,-0.719 1.989,-1.23l1.232,5.699c-0.651,0.578 -1.55,1.075 -2.697,1.493c-1.147,0.417 -2.044,0.696 -2.693,0.836c-2.41,0.521 -4.347,0.588 -5.813,0.201c-1.466,-0.386 -2.627,-1.045 -3.483,-1.975c-0.856,-0.931 -1.484,-2.044 -1.886,-3.34c-0.401,-1.296 -0.747,-2.615 -1.037,-3.959l-3.71,-17.169l-7.229,1.562l-1.171,-5.422l7.229,-1.562l-1.998,-9.244l6.256,-1.352l1.998,9.245l8.966,-1.938l1.172,5.422Z" style="fill:rgb(87,103,205);fill-rule:nonzero;"/>
    <path d="M585.42,74.972l6.256,-1.352l7.119,32.947l-6.256,1.352l-7.119,-32.947Zm-4.013,-11.501c-0.27,-1.251 -0.051,-2.426 0.657,-3.525c0.708,-1.099 1.688,-1.784 2.939,-2.054c1.252,-0.27 2.427,-0.051 3.525,0.657c1.099,0.708 1.784,1.688 2.054,2.939c0.271,1.251 0.052,2.426 -0.657,3.525c-0.708,1.099 -1.688,1.784 -2.939,2.054c-1.251,0.27 -2.426,0.051 -3.525,-0.657c-1.099,-0.708 -1.784,-1.688 -2.054,-2.939Z" style="fill:rgb(87,103,205);fill-rule:nonzero;"/>
    <path d="M610.249,86.85c0.361,1.668 0.949,3.154 1.764,4.457c0.815,1.303 1.793,2.353 2.935,3.149c1.142,0.796 2.448,1.338 3.917,1.627c1.469,0.289 3.038,0.253 4.706,-0.107c1.668,-0.361 3.111,-0.976 4.33,-1.845c1.219,-0.87 2.184,-1.903 2.895,-3.1c0.712,-1.196 1.17,-2.556 1.374,-4.08c0.205,-1.523 0.127,-3.119 -0.234,-4.787c-0.36,-1.668 -0.948,-3.154 -1.763,-4.457c-0.815,-1.304 -1.794,-2.353 -2.936,-3.149c-1.142,-0.796 -2.448,-1.339 -3.917,-1.628c-1.469,-0.288 -3.037,-0.253 -4.705,0.108c-1.669,0.36 -3.112,0.975 -4.331,1.845c-1.219,0.869 -2.184,1.903 -2.895,3.099c-0.712,1.197 -1.17,2.557 -1.374,4.08c-0.204,1.524 -0.126,3.12 0.234,4.788Zm-6.673,1.442c-0.52,-2.41 -0.554,-4.755 -0.101,-7.036c0.453,-2.28 1.297,-4.378 2.532,-6.294c1.235,-1.916 2.821,-3.556 4.757,-4.921c1.937,-1.364 4.133,-2.311 6.589,-2.842c2.456,-0.531 4.847,-0.575 7.174,-0.131c2.327,0.443 4.448,1.282 6.364,2.517c1.916,1.235 3.551,2.797 4.906,4.687c1.354,1.89 2.291,4.04 2.812,6.45c0.521,2.41 0.557,4.766 0.109,7.07c-0.448,2.304 -1.292,4.402 -2.532,6.295c-1.24,1.892 -2.829,3.521 -4.765,4.885c-1.936,1.364 -4.133,2.312 -6.589,2.842c-2.456,0.531 -4.847,0.575 -7.174,0.132c-2.327,-0.443 -4.446,-1.271 -6.357,-2.482c-1.911,-1.212 -3.546,-2.775 -4.905,-4.688c-1.359,-1.913 -2.299,-4.075 -2.82,-6.484Z" style="fill:rgb(87,103,205);fill-rule:nonzero;"/>
    <path d="M642.904,62.551l6.256,-1.352l1.096,5.075l0.139,-0.03c0.407,-1.932 1.467,-3.652 3.178,-5.161c1.71,-1.51 3.84,-2.54 6.389,-3.091c1.575,-0.34 3.146,-0.425 4.71,-0.254c1.565,0.172 3.002,0.649 4.312,1.433c1.309,0.785 2.461,1.906 3.455,3.364c0.994,1.459 1.726,3.277 2.197,5.455l4.581,21.2l-6.256,1.352l-4.205,-19.462c-0.331,-1.53 -0.822,-2.794 -1.475,-3.793c-0.652,-0.998 -1.398,-1.759 -2.238,-2.28c-0.841,-0.522 -1.745,-0.836 -2.714,-0.942c-0.969,-0.106 -1.94,-0.054 -2.913,0.157c-1.297,0.28 -2.457,0.749 -3.479,1.406c-1.022,0.657 -1.852,1.528 -2.491,2.612c-0.639,1.084 -1.04,2.371 -1.203,3.861c-0.163,1.49 -0.039,3.186 0.371,5.085l3.665,16.961l-6.256,1.351l-7.119,-32.947Z" style="fill:rgb(87,103,205);fill-rule:nonzero;"/>
    <path d="M704.479,54.921l-7.09,1.532l-1.172,-5.422l7.09,-1.531l-1.592,-7.368c-0.951,-4.403 -0.814,-7.864 0.412,-10.384c1.226,-2.52 3.901,-4.226 8.025,-5.117c0.695,-0.15 1.43,-0.285 2.205,-0.404c0.774,-0.119 1.627,-0.157 2.557,-0.116l0.507,5.711c-0.653,-0.102 -1.267,-0.139 -1.843,-0.111c-0.576,0.027 -1.189,0.111 -1.837,0.251c-1.159,0.251 -2.048,0.625 -2.668,1.122c-0.62,0.498 -1.057,1.114 -1.311,1.848c-0.253,0.734 -0.34,1.565 -0.261,2.494c0.079,0.928 0.244,1.972 0.495,3.13l1.637,7.577l7.437,-1.607l1.172,5.421l-7.507,1.622l5.947,27.526l-6.256,1.352l-5.947,-27.526Z" style="fill:rgb(87,103,205);fill-rule:nonzero;"/>
    <path d="M196.964,279.156l482.866,-116.81" style="fill:none;stroke:rgb(205,87,90);stroke-width:8.99px;"/>
    <path d="M218.44,313.028c-0.817,-0.626 -1.749,-1.089 -2.795,-1.388c-1.047,-0.3 -2.233,-0.286 -3.559,0.042c-1.248,0.308 -2.266,0.839 -3.052,1.592c-0.786,0.753 -1.054,1.637 -0.803,2.651c0.202,0.819 0.629,1.417 1.281,1.794c0.652,0.376 1.377,0.632 2.176,0.765c0.799,0.134 1.627,0.177 2.485,0.131c0.857,-0.047 1.593,-0.084 2.207,-0.111c1.198,-0.007 2.343,0.062 3.434,0.206c1.091,0.144 2.074,0.439 2.95,0.884c0.876,0.446 1.629,1.066 2.261,1.862c0.631,0.796 1.106,1.837 1.424,3.124c0.386,1.56 0.385,2.978 -0.003,4.254c-0.389,1.275 -1.022,2.394 -1.902,3.356c-0.879,0.963 -1.953,1.766 -3.221,2.411c-1.269,0.645 -2.585,1.136 -3.951,1.473c-2.301,0.569 -4.406,0.717 -6.315,0.445c-1.909,-0.273 -3.777,-1.177 -5.605,-2.711l3.168,-4.26c1.07,0.646 2.213,1.17 3.43,1.573c1.217,0.402 2.586,0.415 4.107,0.039c0.663,-0.164 1.319,-0.398 1.968,-0.703c0.649,-0.306 1.2,-0.67 1.654,-1.092c0.455,-0.423 0.792,-0.9 1.013,-1.43c0.22,-0.531 0.258,-1.088 0.113,-1.673c-0.192,-0.78 -0.595,-1.364 -1.208,-1.75c-0.613,-0.387 -1.297,-0.642 -2.052,-0.765c-0.755,-0.124 -1.534,-0.18 -2.338,-0.167c-0.804,0.012 -1.513,0.033 -2.127,0.06c-1.198,0.007 -2.348,-0.04 -3.449,-0.14c-1.1,-0.1 -2.113,-0.347 -3.038,-0.739c-0.924,-0.392 -1.732,-0.979 -2.422,-1.76c-0.689,-0.781 -1.198,-1.835 -1.526,-3.161c-0.357,-1.443 -0.366,-2.775 -0.026,-3.997c0.339,-1.222 0.919,-2.307 1.74,-3.255c0.821,-0.948 1.822,-1.754 3.002,-2.419c1.181,-0.664 2.415,-1.156 3.702,-1.474c1.872,-0.463 3.753,-0.555 5.642,-0.278c1.89,0.278 3.544,1.111 4.963,2.498l-3.328,4.113Z" style="fill:rgb(205,89,92);fill-rule:nonzero;"/>
    <path d="M235.835,318.1c0.298,1.209 0.834,2.246 1.607,3.11c0.772,0.865 1.674,1.542 2.706,2.032c1.031,0.489 2.161,0.789 3.388,0.9c1.228,0.11 2.446,0.016 3.655,-0.283c1.638,-0.405 2.967,-1.137 3.988,-2.197c1.021,-1.059 1.884,-2.338 2.59,-3.837l4.73,2.058c-1.989,4.506 -5.617,7.411 -10.882,8.712c-2.184,0.541 -4.255,0.659 -6.212,0.357c-1.958,-0.302 -3.713,-0.954 -5.264,-1.957c-1.552,-1.003 -2.879,-2.309 -3.98,-3.92c-1.102,-1.611 -1.909,-3.449 -2.42,-5.516c-0.511,-2.067 -0.625,-4.077 -0.343,-6.03c0.283,-1.953 0.897,-3.74 1.841,-5.36c0.945,-1.62 2.203,-3.017 3.774,-4.192c1.572,-1.175 3.392,-2.018 5.459,-2.529c2.457,-0.608 4.64,-0.692 6.548,-0.254c1.909,0.439 3.58,1.215 5.015,2.33c1.434,1.114 2.61,2.479 3.526,4.094c0.917,1.615 1.597,3.319 2.041,5.113l0.463,1.872l-22.23,5.497Zm15.572,-8.32c-0.328,-1.16 -0.779,-2.187 -1.351,-3.08c-0.573,-0.893 -1.28,-1.618 -2.121,-2.176c-0.842,-0.558 -1.81,-0.918 -2.906,-1.082c-1.096,-0.163 -2.307,-0.081 -3.633,0.247c-1.287,0.318 -2.406,0.853 -3.358,1.606c-0.952,0.753 -1.702,1.611 -2.25,2.574c-0.548,0.963 -0.909,1.973 -1.082,3.03c-0.174,1.057 -0.144,2.053 0.087,2.989l16.614,-4.108Z" style="fill:rgb(205,89,92);fill-rule:nonzero;"/>
    <path d="M282.131,297.713c-1.225,-0.773 -2.44,-1.29 -3.642,-1.551c-1.203,-0.262 -2.545,-0.209 -4.027,0.157c-1.443,0.357 -2.636,0.931 -3.578,1.723c-0.943,0.792 -1.661,1.735 -2.156,2.83c-0.495,1.095 -0.781,2.283 -0.857,3.564c-0.076,1.281 0.045,2.565 0.363,3.852c0.318,1.287 0.834,2.453 1.547,3.498c0.714,1.044 1.567,1.899 2.559,2.564c0.992,0.665 2.094,1.106 3.307,1.324c1.213,0.217 2.501,0.157 3.866,-0.18c1.482,-0.367 2.685,-0.943 3.608,-1.73c0.922,-0.787 1.707,-1.799 2.353,-3.034l4.67,2.818c-0.989,1.858 -2.308,3.343 -3.958,4.455c-1.649,1.111 -3.488,1.918 -5.516,2.419c-2.145,0.531 -4.192,0.664 -6.14,0.401c-1.948,-0.263 -3.722,-0.869 -5.322,-1.819c-1.601,-0.949 -2.972,-2.224 -4.112,-3.825c-1.141,-1.601 -1.977,-3.474 -2.507,-5.619c-0.531,-2.145 -0.667,-4.201 -0.408,-6.169c0.258,-1.967 0.862,-3.751 1.811,-5.352c0.949,-1.6 2.222,-2.981 3.818,-4.141c1.596,-1.16 3.486,-2.01 5.67,-2.551c2.028,-0.501 4.058,-0.62 6.089,-0.357c2.031,0.264 3.912,0.968 5.643,2.112l-3.081,4.611Z" style="fill:rgb(205,89,92);fill-rule:nonzero;"/>
    <path d="M289.63,291.637c1.145,-1.731 2.608,-3.179 4.389,-4.344c1.781,-1.165 3.647,-1.988 5.597,-2.47c2.028,-0.502 3.836,-0.68 5.424,-0.535c1.587,0.146 2.955,0.532 4.104,1.158c1.148,0.627 2.084,1.44 2.807,2.441c0.723,1.001 1.234,2.105 1.533,3.314l3.501,14.158c0.241,0.975 0.483,1.867 0.724,2.676c0.242,0.81 0.493,1.575 0.754,2.297l-4.68,1.157c-0.464,-1.375 -0.87,-2.765 -1.217,-4.169l-0.117,0.029c-0.726,2.084 -1.797,3.694 -3.213,4.83c-1.416,1.136 -3.177,1.965 -5.283,2.486c-1.287,0.318 -2.559,0.446 -3.816,0.385c-1.256,-0.062 -2.41,-0.335 -3.461,-0.82c-1.051,-0.485 -1.958,-1.182 -2.721,-2.09c-0.762,-0.908 -1.312,-2.045 -1.65,-3.41c-0.444,-1.794 -0.415,-3.394 0.085,-4.801c0.501,-1.407 1.349,-2.661 2.546,-3.764c1.196,-1.103 2.68,-2.049 4.45,-2.839c1.771,-0.79 3.709,-1.445 5.815,-1.966l3.861,-0.954l-0.289,-1.17c-0.174,-0.702 -0.484,-1.371 -0.93,-2.005c-0.447,-0.635 -1.013,-1.167 -1.699,-1.598c-0.686,-0.43 -1.479,-0.71 -2.38,-0.839c-0.901,-0.129 -1.917,-0.053 -3.048,0.226c-1.014,0.251 -1.877,0.568 -2.59,0.951c-0.712,0.383 -1.344,0.798 -1.896,1.245c-0.551,0.447 -1.032,0.928 -1.443,1.443c-0.411,0.515 -0.806,1.006 -1.188,1.473l-3.969,-2.495Zm17.579,7.324c-1.248,0.309 -2.508,0.693 -3.781,1.152c-1.273,0.46 -2.397,1.017 -3.373,1.672c-0.977,0.656 -1.719,1.419 -2.228,2.289c-0.509,0.871 -0.628,1.853 -0.358,2.945c0.395,1.599 1.216,2.617 2.462,3.053c1.246,0.437 2.786,0.429 4.619,-0.024c1.443,-0.357 2.611,-0.905 3.504,-1.643c0.894,-0.738 1.556,-1.574 1.987,-2.509c0.431,-0.934 0.665,-1.913 0.702,-2.936c0.037,-1.023 -0.061,-2.002 -0.292,-2.938l-0.434,-1.755l-2.808,0.694Z" style="fill:rgb(205,89,92);fill-rule:nonzero;"/>
    <path d="M319.036,280.765l5.265,-1.302l1.056,4.271l0.117,-0.029c0.297,-1.646 1.15,-3.13 2.562,-4.451c1.411,-1.322 3.189,-2.248 5.334,-2.778c1.326,-0.328 2.654,-0.439 3.984,-0.333c1.33,0.105 2.559,0.474 3.688,1.105c1.128,0.632 2.132,1.552 3.011,2.763c0.879,1.21 1.545,2.732 1.998,4.565l4.412,17.843l-5.265,1.302l-4.05,-16.38c-0.319,-1.287 -0.767,-2.346 -1.344,-3.175c-0.578,-0.83 -1.229,-1.455 -1.954,-1.876c-0.725,-0.421 -1.499,-0.664 -2.322,-0.73c-0.823,-0.065 -1.644,0.003 -2.463,0.206c-1.092,0.27 -2.063,0.696 -2.912,1.279c-0.849,0.582 -1.531,1.34 -2.045,2.275c-0.514,0.934 -0.821,2.034 -0.922,3.3c-0.101,1.267 0.047,2.7 0.442,4.299l3.53,14.274l-5.265,1.302l-6.857,-27.73Z" style="fill:rgb(205,89,92);fill-rule:nonzero;"/>
    <path d="M367.55,273.611l-7.547,1.866l3.11,12.578c0.193,0.78 0.403,1.545 0.63,2.296c0.227,0.751 0.542,1.397 0.945,1.939c0.403,0.542 0.914,0.933 1.532,1.173c0.618,0.241 1.434,0.235 2.448,-0.015c0.624,-0.155 1.253,-0.372 1.887,-0.653c0.634,-0.281 1.186,-0.645 1.655,-1.092l1.186,4.797c-0.537,0.505 -1.286,0.949 -2.247,1.331c-0.961,0.383 -1.714,0.641 -2.26,0.777c-2.028,0.501 -3.668,0.606 -4.919,0.316c-1.252,-0.291 -2.251,-0.82 -3,-1.586c-0.748,-0.767 -1.308,-1.694 -1.681,-2.782c-0.372,-1.087 -0.698,-2.196 -0.978,-3.327l-3.573,-14.45l-6.084,1.504l-1.128,-4.563l6.084,-1.504l-1.924,-7.781l5.265,-1.302l1.924,7.781l7.546,-1.866l1.129,4.563Z" style="fill:rgb(205,89,92);fill-rule:nonzero;"/>
    <path d="M385.801,246.75l5.265,-1.302l10.936,44.226l-5.265,1.302l-10.936,-44.226Z" style="fill:rgb(205,89,92);fill-rule:nonzero;"/>
    <path d="M403.92,259.775l5.265,-1.302l6.857,27.73l-5.265,1.301l-6.857,-27.729Zm-3.688,-9.641c-0.26,-1.053 -0.104,-2.054 0.469,-3.002c0.572,-0.949 1.385,-1.553 2.438,-1.814c1.053,-0.26 2.053,-0.104 3.002,0.468c0.949,0.573 1.553,1.385 1.813,2.438c0.261,1.053 0.105,2.054 -0.468,3.003c-0.572,0.948 -1.385,1.553 -2.438,1.813c-1.053,0.261 -2.054,0.105 -3.002,-0.468c-0.949,-0.572 -1.553,-1.385 -1.814,-2.438Z" style="fill:rgb(205,89,92);fill-rule:nonzero;"/>
    <path d="M417.551,256.405l5.265,-1.302l1.056,4.27l0.117,-0.029c0.296,-1.646 1.15,-3.129 2.562,-4.451c1.411,-1.322 3.189,-2.247 5.334,-2.778c1.326,-0.328 2.654,-0.439 3.984,-0.333c1.33,0.106 2.559,0.474 3.688,1.105c1.128,0.632 2.132,1.553 3.011,2.763c0.878,1.211 1.544,2.733 1.998,4.566l4.412,17.842l-5.265,1.302l-4.051,-16.38c-0.318,-1.287 -0.766,-2.345 -1.344,-3.175c-0.577,-0.83 -1.228,-1.455 -1.953,-1.876c-0.725,-0.421 -1.499,-0.664 -2.322,-0.729c-0.823,-0.066 -1.645,0.003 -2.464,0.205c-1.092,0.27 -2.062,0.697 -2.911,1.279c-0.85,0.582 -1.531,1.341 -2.045,2.275c-0.514,0.934 -0.821,2.034 -0.922,3.301c-0.101,1.266 0.047,2.699 0.442,4.298l3.53,14.274l-5.265,1.302l-6.857,-27.729Z" style="fill:rgb(205,89,92);fill-rule:nonzero;"/>
    <path d="M457.961,263.173c0.299,1.209 0.835,2.246 1.607,3.11c0.772,0.864 1.674,1.541 2.706,2.031c1.032,0.49 2.161,0.79 3.389,0.9c1.227,0.111 2.445,0.016 3.654,-0.282c1.638,-0.406 2.968,-1.138 3.989,-2.197c1.021,-1.06 1.884,-2.339 2.589,-3.838l4.731,2.059c-1.99,4.506 -5.617,7.41 -10.882,8.712c-2.184,0.54 -4.255,0.659 -6.213,0.357c-1.958,-0.302 -3.712,-0.955 -5.264,-1.957c-1.552,-1.003 -2.878,-2.31 -3.98,-3.92c-1.102,-1.611 -1.908,-3.45 -2.42,-5.517c-0.511,-2.067 -0.625,-4.077 -0.342,-6.03c0.283,-1.953 0.896,-3.739 1.841,-5.359c0.944,-1.62 2.202,-3.017 3.774,-4.192c1.572,-1.175 3.391,-2.018 5.458,-2.53c2.457,-0.607 4.64,-0.692 6.549,-0.253c1.908,0.438 3.58,1.215 5.014,2.329c1.435,1.115 2.61,2.479 3.527,4.094c0.916,1.615 1.597,3.32 2.04,5.114l0.463,1.872l-22.23,5.497Zm15.572,-8.32c-0.328,-1.161 -0.778,-2.187 -1.351,-3.08c-0.573,-0.893 -1.28,-1.619 -2.121,-2.176c-0.841,-0.558 -1.81,-0.918 -2.906,-1.082c-1.095,-0.164 -2.306,-0.081 -3.632,0.246c-1.287,0.319 -2.407,0.854 -3.359,1.607c-0.952,0.753 -1.702,1.611 -2.25,2.574c-0.548,0.963 -0.909,1.973 -1.082,3.03c-0.173,1.057 -0.144,2.053 0.087,2.989l16.614,-4.108Z" style="fill:rgb(205,89,92);fill-rule:nonzero;"/>
    <path d="M190.476,406.668l-0,27.331" style="fill:none;stroke:rgb(78,168,99);stroke-width:8.99px;"/>
    <path d="M674.285,409.221l-0,24.223" style="fill:none;stroke:rgb(78,168,99);stroke-width:8.99px;"/>
    <path d="M177.661,468.355l-11.833,-15.567l8.17,0l8.1,11.834l7.96,-11.834l7.677,0l-11.41,15.567l13.523,17.82l-8.17,0l-9.861,-14.017l-9.861,14.017l-7.819,0l13.524,-17.82Z" style="fill:rgb(78,168,99);fill-rule:nonzero;"/>
    <path d="M662.142,469.156l-11.834,-15.567l8.171,0l8.1,11.834l7.96,-11.834l7.677,0l-11.411,15.567l13.524,17.82l-8.17,0l-9.861,-14.017l-9.862,14.017l-7.818,0l13.524,-17.82Z" style="fill:rgb(78,168,99);fill-rule:nonzero;"/>
    <path d="M210.335,484.34l-4.53,4.181l-1.951,-2.334l6.864,-5.68l2.962,0l-0,24.67l-3.345,0l-0,-20.837Z" style="fill:rgb(78,168,99);fill-rule:nonzero;"/>
    <path d="M687.011,502.424l9.895,-9.826c0.349,-0.325 0.686,-0.679 1.011,-1.063c0.325,-0.383 0.615,-0.784 0.871,-1.202c0.255,-0.418 0.459,-0.859 0.61,-1.324c0.151,-0.465 0.226,-0.952 0.226,-1.463c0,-0.604 -0.11,-1.15 -0.331,-1.638c-0.22,-0.488 -0.522,-0.9 -0.906,-1.237c-0.383,-0.337 -0.836,-0.598 -1.359,-0.784c-0.522,-0.186 -1.074,-0.279 -1.655,-0.279c-1.208,0 -2.207,0.337 -2.996,1.011c-0.79,0.673 -1.29,1.602 -1.499,2.787l-3.624,-0.313c0.163,-1.092 0.482,-2.039 0.959,-2.84c0.476,-0.802 1.068,-1.469 1.777,-2.004c0.708,-0.534 1.521,-0.929 2.439,-1.184c0.917,-0.256 1.91,-0.384 2.979,-0.384c1.069,0 2.073,0.145 3.014,0.436c0.941,0.29 1.766,0.72 2.474,1.289c0.709,0.569 1.266,1.278 1.673,2.126c0.406,0.847 0.609,1.84 0.609,2.979c0,0.813 -0.122,1.574 -0.366,2.282c-0.243,0.709 -0.563,1.376 -0.958,2.004c-0.395,0.627 -0.848,1.219 -1.359,1.777c-0.511,0.557 -1.045,1.103 -1.603,1.637l-8.118,7.84l12.404,0l0,2.927l-16.167,0l-0,-3.554Z" style="fill:rgb(78,168,99);fill-rule:nonzero;"/>
    <path d="M103.584,543.889l452.742,-0" style="fill:none;stroke:rgb(78,168,99);stroke-width:8.99px;"/>
    <path d="M101.621,543.889l15.106,-15.106" style="fill:none;stroke:rgb(78,168,99);stroke-width:8.99px;"/>
    <path d="M101.621,543.889l15.616,15.616" style="fill:none;stroke:rgb(78,168,99);stroke-width:8.99px;"/>
    <path d="M561.653,543.984l-14.344,-14.344" style="fill:none;stroke:rgb(78,168,99);stroke-width:8.99px;"/>
    <path d="M561.653,543.984l-15.2,15.199" style="fill:none;stroke:rgb(78,168,99);stroke-width:8.99px;"/>
    <g transform="matrix(1,0,0,1,-989.072,-917.148)">
        <g transform="matrix(47.2403,0,0,47.2403,1138.63,1522.73)">
            <path d="M0.523,-0.11c-0.001,0.029 0.008,0.043 0.028,0.042c0.012,0 0.021,-0.002 0.027,-0.006l0,0.077c-0.007,0.003 -0.017,0.004 -0.029,0.005c-0.013,0.001 -0.023,0.002 -0.032,0.002c-0.023,-0.001 -0.042,-0.01 -0.055,-0.026c-0.015,-0.016 -0.022,-0.035 -0.022,-0.058l-0.002,-0c-0.041,0.056 -0.096,0.084 -0.167,0.084c-0.076,-0.002 -0.132,-0.029 -0.17,-0.082c-0.038,-0.051 -0.057,-0.113 -0.057,-0.185c-0,-0.073 0.018,-0.137 0.055,-0.19c0.037,-0.054 0.094,-0.081 0.173,-0.083c0.07,0 0.125,0.029 0.165,0.085l0.002,0l-0,-0.075l0.084,-0l-0,0.41Zm-0.238,0.048c0.026,-0 0.048,-0.006 0.067,-0.018c0.018,-0.011 0.033,-0.027 0.045,-0.046c0.023,-0.039 0.035,-0.083 0.035,-0.13c0,-0.053 -0.011,-0.099 -0.032,-0.139c-0.022,-0.041 -0.062,-0.062 -0.119,-0.063c-0.051,0.001 -0.089,0.022 -0.112,0.062c-0.023,0.039 -0.035,0.083 -0.035,0.131c-0,0.051 0.012,0.096 0.035,0.137c0.023,0.043 0.062,0.065 0.116,0.066Z" style="fill:rgb(78,168,99);fill-rule:nonzero;"/>
        </g>
        <g transform="matrix(47.2403,0,0,47.2403,1180.61,1522.73)">
            <path d="M0.198,-0.253l-0.168,-0.221l0.116,-0l0.115,0.168l0.113,-0.168l0.109,-0l-0.162,0.221l0.192,0.253l-0.116,-0l-0.14,-0.199l-0.14,0.199l-0.111,-0l0.192,-0.253Z" style="fill:rgb(78,168,99);fill-rule:nonzero;"/>
        </g>
        <g transform="matrix(47.2403,0,0,47.2403,1218.27,1522.73)">
            <path d="M0.066,-0.342l0.228,0l-0,-0.228l0.078,0l-0,0.228l0.228,0l-0,0.078l-0.228,0l-0,0.228l-0.078,0l-0,-0.228l-0.228,0l-0,-0.078Z" style="fill:rgb(78,168,99);fill-rule:nonzero;"/>
        </g>
        <g transform="matrix(47.2403,0,0,47.2403,1262.86,1522.73)">
            <path d="M0.254,-0.69c-0.021,0.034 -0.04,0.067 -0.056,0.098c-0.016,0.031 -0.029,0.063 -0.04,0.096c-0.011,0.032 -0.019,0.065 -0.024,0.1c-0.005,0.035 -0.008,0.072 -0.008,0.112c0,0.073 0.011,0.144 0.032,0.213c0.021,0.069 0.053,0.132 0.096,0.191l-0.06,0.04c-0.046,-0.063 -0.082,-0.132 -0.108,-0.207c-0.025,-0.075 -0.038,-0.154 -0.038,-0.237c0,-0.077 0.012,-0.153 0.037,-0.23c0.025,-0.077 0.061,-0.148 0.109,-0.214l0.06,0.038Z" style="fill:rgb(78,168,99);fill-rule:nonzero;"/>
        </g>
        <g transform="matrix(47.2403,0,0,47.2403,1275.99,1522.73)">
            <path d="M0.27,-0.598l-0.13,0.12l-0.056,-0.067l0.197,-0.163l0.085,0l-0,0.708l-0.096,-0l0,-0.598Z" style="fill:rgb(78,168,99);fill-rule:nonzero;"/>
        </g>
        <g transform="matrix(47.2403,0,0,47.2403,1302.26,1522.73)">
            <rect x="0.035" y="-0.284" width="0.246" height="0.084" style="fill:rgb(78,168,99);fill-rule:nonzero;"/>
        </g>
        <g transform="matrix(47.2403,0,0,47.2403,1317.19,1522.73)">
            <path d="M0.523,-0.11c-0.001,0.029 0.008,0.043 0.028,0.042c0.012,0 0.021,-0.002 0.027,-0.006l0,0.077c-0.007,0.003 -0.017,0.004 -0.029,0.005c-0.013,0.001 -0.023,0.002 -0.032,0.002c-0.023,-0.001 -0.042,-0.01 -0.055,-0.026c-0.015,-0.016 -0.022,-0.035 -0.022,-0.058l-0.002,-0c-0.041,0.056 -0.096,0.084 -0.167,0.084c-0.076,-0.002 -0.132,-0.029 -0.17,-0.082c-0.038,-0.051 -0.057,-0.113 -0.057,-0.185c-0,-0.073 0.018,-0.137 0.055,-0.19c0.037,-0.054 0.094,-0.081 0.173,-0.083c0.07,0 0.125,0.029 0.165,0.085l0.002,0l-0,-0.075l0.084,-0l-0,0.41Zm-0.238,0.048c0.026,-0 0.048,-0.006 0.067,-0.018c0.018,-0.011 0.033,-0.027 0.045,-0.046c0.023,-0.039 0.035,-0.083 0.035,-0.13c0,-0.053 -0.011,-0.099 -0.032,-0.139c-0.022,-0.041 -0.062,-0.062 -0.119,-0.063c-0.051,0.001 -0.089,0.022 -0.112,0.062c-0.023,0.039 -0.035,0.083 -0.035,0.131c-0,0.051 0.012,0.096 0.035,0.137c0.023,0.043 0.062,0.065 0.116,0.066Z" style="fill:rgb(78,168,99);fill-rule:nonzero;"/>
        </g>
        <g transform="matrix(47.2403,0,0,47.2403,1346.04,1522.73)">
            <path d="M0.024,0.122c0.021,-0.034 0.04,-0.067 0.056,-0.098c0.016,-0.031 0.029,-0.063 0.04,-0.096c0.011,-0.032 0.019,-0.065 0.024,-0.1c0.005,-0.035 0.008,-0.072 0.008,-0.112c0,-0.073 -0.011,-0.144 -0.032,-0.213c-0.021,-0.069 -0.053,-0.132 -0.096,-0.191l0.06,-0.04c0.046,0.063 0.082,0.132 0.108,0.207c0.025,0.075 0.038,0.154 0.038,0.237c0,0.077 -0.012,0.153 -0.037,0.23c-0.025,0.077 -0.061,0.148 -0.109,0.214l-0.06,-0.038Z" style="fill:rgb(78,168,99);fill-rule:nonzero;"/>
        </g>
        <g transform="matrix(47.2403,0,0,47.2403,1372.31,1522.73)">
            <path d="M0.198,-0.253l-0.168,-0.221l0.116,-0l0.115,0.168l0.113,-0.168l0.109,-0l-0.162,0.221l0.192,0.253l-0.116,-0l-0.14,-0.199l-0.14,0.199l-0.111,-0l0.192,-0.253Z" style="fill:rgb(78,168,99);fill-rule:nonzero;"/>
        </g>
    </g>
    <g transform="matrix(1,0,0,1,-548.397,-1236.03)">
        <g transform="matrix(47.2403,0,0,47.2403,1138.63,1522.73)">
            <path d="M0.523,-0.11c-0.001,0.029 0.008,0.043 0.028,0.042c0.012,0 0.021,-0.002 0.027,-0.006l0,0.077c-0.007,0.003 -0.017,0.004 -0.029,0.005c-0.013,0.001 -0.023,0.002 -0.032,0.002c-0.023,-0.001 -0.042,-0.01 -0.055,-0.026c-0.015,-0.016 -0.022,-0.035 -0.022,-0.058l-0.002,-0c-0.041,0.056 -0.096,0.084 -0.167,0.084c-0.076,-0.002 -0.132,-0.029 -0.17,-0.082c-0.038,-0.051 -0.057,-0.113 -0.057,-0.185c-0,-0.073 0.018,-0.137 0.055,-0.19c0.037,-0.054 0.094,-0.081 0.173,-0.083c0.07,0 0.125,0.029 0.165,0.085l0.002,0l-0,-0.075l0.084,-0l-0,0.41Zm-0.238,0.048c0.026,-0 0.048,-0.006 0.067,-0.018c0.018,-0.011 0.033,-0.027 0.045,-0.046c0.023,-0.039 0.035,-0.083 0.035,-0.13c0,-0.053 -0.011,-0.099 -0.032,-0.139c-0.022,-0.041 -0.062,-0.062 -0.119,-0.063c-0.051,0.001 -0.089,0.022 -0.112,0.062c-0.023,0.039 -0.035,0.083 -0.035,0.131c-0,0.051 0.012,0.096 0.035,0.137c0.023,0.043 0.062,0.065 0.116,0.066Z" style="fill:rgb(174,148,45);fill-rule:nonzero;"/>
        </g>
        <g transform="matrix(47.2403,0,0,47.2403,1180.61,1522.73)">
            <path d="M0.103,-0.396l-0.102,0l-0,-0.078l0.102,0l0,-0.106c0,-0.063 0.012,-0.111 0.037,-0.141c0.024,-0.031 0.066,-0.047 0.125,-0.047c0.01,0 0.021,0 0.031,0.001c0.011,0.001 0.023,0.003 0.036,0.006l-0.01,0.08c-0.009,-0.003 -0.017,-0.006 -0.025,-0.007c-0.008,-0.001 -0.017,-0.002 -0.026,-0.002c-0.017,0 -0.03,0.003 -0.04,0.008c-0.01,0.005 -0.018,0.012 -0.023,0.021c-0.006,0.009 -0.01,0.021 -0.012,0.034c-0.001,0.013 -0.002,0.027 -0.002,0.044l0,0.109l0.107,0l0,0.078l-0.108,0l0,0.396l-0.09,0l0,-0.396Z" style="fill:rgb(174,148,45);fill-rule:nonzero;"/>
        </g>
        <g transform="matrix(47.2403,0,0,47.2403,1196.35,1522.73)">
            <path d="M0.254,-0.69c-0.021,0.034 -0.04,0.067 -0.056,0.098c-0.016,0.031 -0.029,0.063 -0.04,0.096c-0.011,0.032 -0.019,0.065 -0.024,0.1c-0.005,0.035 -0.008,0.072 -0.008,0.112c0,0.073 0.011,0.144 0.032,0.213c0.021,0.069 0.053,0.132 0.096,0.191l-0.06,0.04c-0.046,-0.063 -0.082,-0.132 -0.108,-0.207c-0.025,-0.075 -0.038,-0.154 -0.038,-0.237c0,-0.077 0.012,-0.153 0.037,-0.23c0.025,-0.077 0.061,-0.148 0.109,-0.214l0.06,0.038Z" style="fill:rgb(174,148,45);fill-rule:nonzero;"/>
        </g>
        <g transform="matrix(47.2403,0,0,47.2403,1209.48,1522.73)">
            <path d="M0.198,-0.253l-0.168,-0.221l0.116,-0l0.115,0.168l0.113,-0.168l0.109,-0l-0.162,0.221l0.192,0.253l-0.116,-0l-0.14,-0.199l-0.14,0.199l-0.111,-0l0.192,-0.253Z" style="fill:rgb(174,148,45);fill-rule:nonzero;"/>
        </g>
        <g transform="matrix(47.2403,0,0,47.2403,1247.13,1522.73)">
            <path d="M0.024,0.122c0.021,-0.034 0.04,-0.067 0.056,-0.098c0.016,-0.031 0.029,-0.063 0.04,-0.096c0.011,-0.032 0.019,-0.065 0.024,-0.1c0.005,-0.035 0.008,-0.072 0.008,-0.112c0,-0.073 -0.011,-0.144 -0.032,-0.213c-0.021,-0.069 -0.053,-0.132 -0.096,-0.191l0.06,-0.04c0.046,0.063 0.082,0.132 0.108,0.207c0.025,0.075 0.038,0.154 0.038,0.237c0,0.077 -0.012,0.153 -0.037,0.23c-0.025,0.077 -0.061,0.148 -0.109,0.214l-0.06,-0.038Z" style="fill:rgb(174,148,45);fill-rule:nonzero;"/>
        </g>
        <g transform="matrix(47.2403,0,0,47.2403,1273.39,1522.73)">
            <path d="M0.066,-0.342l0.228,0l-0,-0.228l0.078,0l-0,0.228l0.228,0l-0,0.078l-0.228,0l-0,0.228l-0.078,0l-0,-0.228l-0.228,0l-0,-0.078Z" style="fill:rgb(174,148,45);fill-rule:nonzero;"/>
        </g>
        <g transform="matrix(47.2403,0,0,47.2403,1317.99,1522.73)">
            <path d="M0.254,-0.69c-0.021,0.034 -0.04,0.067 -0.056,0.098c-0.016,0.031 -0.029,0.063 -0.04,0.096c-0.011,0.032 -0.019,0.065 -0.024,0.1c-0.005,0.035 -0.008,0.072 -0.008,0.112c0,0.073 0.011,0.144 0.032,0.213c0.021,0.069 0.053,0.132 0.096,0.191l-0.06,0.04c-0.046,-0.063 -0.082,-0.132 -0.108,-0.207c-0.025,-0.075 -0.038,-0.154 -0.038,-0.237c0,-0.077 0.012,-0.153 0.037,-0.23c0.025,-0.077 0.061,-0.148 0.109,-0.214l0.06,0.038Z" style="fill:rgb(174,148,45);fill-rule:nonzero;"/>
        </g>
        <g transform="matrix(47.2403,0,0,47.2403,1331.12,1522.73)">
            <path d="M0.27,-0.598l-0.13,0.12l-0.056,-0.067l0.197,-0.163l0.085,0l-0,0.708l-0.096,-0l0,-0.598Z" style="fill:rgb(174,148,45);fill-rule:nonzero;"/>
        </g>
        <g transform="matrix(47.2403,0,0,47.2403,1357.39,1522.73)">
            <rect x="0.035" y="-0.284" width="0.246" height="0.084" style="fill:rgb(174,148,45);fill-rule:nonzero;"/>
        </g>
        <g transform="matrix(47.2403,0,0,47.2403,1372.32,1522.73)">
            <path d="M0.523,-0.11c-0.001,0.029 0.008,0.043 0.028,0.042c0.012,0 0.021,-0.002 0.027,-0.006l0,0.077c-0.007,0.003 -0.017,0.004 -0.029,0.005c-0.013,0.001 -0.023,0.002 -0.032,0.002c-0.023,-0.001 -0.042,-0.01 -0.055,-0.026c-0.015,-0.016 -0.022,-0.035 -0.022,-0.058l-0.002,-0c-0.041,0.056 -0.096,0.084 -0.167,0.084c-0.076,-0.002 -0.132,-0.029 -0.17,-0.082c-0.038,-0.051 -0.057,-0.113 -0.057,-0.185c-0,-0.073 0.018,-0.137 0.055,-0.19c0.037,-0.054 0.094,-0.081 0.173,-0.083c0.07,0 0.125,0.029 0.165,0.085l0.002,0l-0,-0.075l0.084,-0l-0,0.41Zm-0.238,0.048c0.026,-0 0.048,-0.006 0.067,-0.018c0.018,-0.011 0.033,-0.027 0.045,-0.046c0.023,-0.039 0.035,-0.083 0.035,-0.13c0,-0.053 -0.011,-0.099 -0.032,-0.139c-0.022,-0.041 -0.062,-0.062 -0.119,-0.063c-0.051,0.001 -0.089,0.022 -0.112,0.062c-0.023,0.039 -0.035,0.083 -0.035,0.131c-0,0.051 0.012,0.096 0.035,0.137c0.023,0.043 0.062,0.065 0.116,0.066Z" style="fill:rgb(174,148,45);fill-rule:nonzero;"/>
        </g>
        <g transform="matrix(47.2403,0,0,47.2403,1401.17,1522.73)">
            <path d="M0.024,0.122c0.021,-0.034 0.04,-0.067 0.056,-0.098c0.016,-0.031 0.029,-0.063 0.04,-0.096c0.011,-0.032 0.019,-0.065 0.024,-0.1c0.005,-0.035 0.008,-0.072 0.008,-0.112c0,-0.073 -0.011,-0.144 -0.032,-0.213c-0.021,-0.069 -0.053,-0.132 -0.096,-0.191l0.06,-0.04c0.046,0.063 0.082,0.132 0.108,0.207c0.025,0.075 0.038,0.154 0.038,0.237c0,0.077 -0.012,0.153 -0.037,0.23c-0.025,0.077 -0.061,0.148 -0.109,0.214l-0.06,-0.038Z" style="fill:rgb(174,148,45);fill-rule:nonzero;"/>
        </g>
        <g transform="matrix(47.2403,0,0,47.2403,1427.44,1522.73)">
            <path d="M0.103,-0.396l-0.102,0l-0,-0.078l0.102,0l0,-0.106c0,-0.063 0.012,-0.111 0.037,-0.141c0.024,-0.031 0.066,-0.047 0.125,-0.047c0.01,0 0.021,0 0.031,0.001c0.011,0.001 0.023,0.003 0.036,0.006l-0.01,0.08c-0.009,-0.003 -0.017,-0.006 -0.025,-0.007c-0.008,-0.001 -0.017,-0.002 -0.026,-0.002c-0.017,0 -0.03,0.003 -0.04,0.008c-0.01,0.005 -0.018,0.012 -0.023,0.021c-0.006,0.009 -0.01,0.021 -0.012,0.034c-0.001,0.013 -0.002,0.027 -0.002,0.044l0,0.109l0.107,0l0,0.078l-0.108,0l0,0.396l-0.09,0l0,-0.396Z" style="fill:rgb(174,148,45);fill-rule:nonzero;"/>
        </g>
        <g transform="matrix(47.2403,0,0,47.2403,1443.17,1522.73)">
            <path d="M0.254,-0.69c-0.021,0.034 -0.04,0.067 -0.056,0.098c-0.016,0.031 -0.029,0.063 -0.04,0.096c-0.011,0.032 -0.019,0.065 -0.024,0.1c-0.005,0.035 -0.008,0.072 -0.008,0.112c0,0.073 0.011,0.144 0.032,0.213c0.021,0.069 0.053,0.132 0.096,0.191l-0.06,0.04c-0.046,-0.063 -0.082,-0.132 -0.108,-0.207c-0.025,-0.075 -0.038,-0.154 -0.038,-0.237c0,-0.077 0.012,-0.153 0.037,-0.23c0.025,-0.077 0.061,-0.148 0.109,-0.214l0.06,0.038Z" style="fill:rgb(174,148,45);fill-rule:nonzero;"/>
        </g>
        <g transform="matrix(47.2403,0,0,47.2403,1456.3,1522.73)">
            <path d="M0.198,-0.253l-0.168,-0.221l0.116,-0l0.115,0.168l0.113,-0.168l0.109,-0l-0.162,0.221l0.192,0.253l-0.116,-0l-0.14,-0.199l-0.14,0.199l-0.111,-0l0.192,-0.253Z" style="fill:rgb(174,148,45);fill-rule:nonzero;"/>
        </g>
        <g transform="matrix(47.2403,0,0,47.2403,1493.95,1522.73)">
            <path d="M0.024,0.122c0.021,-0.034 0.04,-0.067 0.056,-0.098c0.016,-0.031 0.029,-0.063 0.04,-0.096c0.011,-0.032 0.019,-0.065 0.024,-0.1c0.005,-0.035 0.008,-0.072 0.008,-0.112c0,-0.073 -0.011,-0.144 -0.032,-0.213c-0.021,-0.069 -0.053,-0.132 -0.096,-0.191l0.06,-0.04c0.046,0.063 0.082,0.132 0.108,0.207c0.025,0.075 0.038,0.154 0.038,0.237c0,0.077 -0.012,0.153 -0.037,0.23c-0.025,0.077 -0.061,0.148 -0.109,0.214l-0.06,-0.038Z" style="fill:rgb(174,148,45);fill-rule:nonzero;"/>
        </g>
    </g>
    <path d="M226.667,603.27l-3.795,3.503l-1.634,-1.956l5.75,-4.758l2.482,-0l-0,20.667l-2.803,0l0,-17.456Z" style="fill:rgb(78,168,99);fill-rule:nonzero;"/>
    <path d="M693.469,285.097l-2.918,2.693l-1.256,-1.504l4.421,-3.658l1.907,0l0,15.889l-2.154,-0l-0,-13.42Z" style="fill:rgb(174,148,45);fill-rule:nonzero;"/>
    <path d="M412.102,617.749l8.29,-8.232c0.292,-0.273 0.574,-0.57 0.847,-0.891c0.272,-0.321 0.515,-0.657 0.729,-1.007c0.215,-0.35 0.385,-0.72 0.511,-1.109c0.127,-0.389 0.19,-0.798 0.19,-1.226c0,-0.506 -0.092,-0.963 -0.277,-1.372c-0.185,-0.409 -0.438,-0.754 -0.759,-1.036c-0.321,-0.283 -0.701,-0.502 -1.139,-0.657c-0.438,-0.156 -0.9,-0.234 -1.386,-0.234c-1.012,0 -1.849,0.282 -2.511,0.847c-0.661,0.564 -1.08,1.343 -1.255,2.335l-3.036,-0.263c0.136,-0.914 0.404,-1.707 0.803,-2.379c0.399,-0.671 0.895,-1.231 1.489,-1.678c0.593,-0.448 1.274,-0.779 2.043,-0.993c0.769,-0.214 1.601,-0.321 2.496,-0.321c0.895,0 1.737,0.122 2.525,0.365c0.788,0.243 1.479,0.603 2.073,1.08c0.593,0.477 1.06,1.071 1.401,1.781c0.34,0.71 0.511,1.542 0.511,2.496c-0,0.681 -0.103,1.318 -0.307,1.912c-0.204,0.593 -0.472,1.153 -0.803,1.678c-0.331,0.526 -0.71,1.022 -1.138,1.489c-0.428,0.467 -0.876,0.924 -1.343,1.372l-6.802,6.568l10.393,0l-0,2.452l-13.545,0l-0,-2.977Z" style="fill:rgb(78,168,99);fill-rule:nonzero;"/>
    <path d="M934.618,296.605l6.479,-6.434c0.228,-0.213 0.449,-0.445 0.662,-0.696c0.213,-0.251 0.403,-0.513 0.57,-0.787c0.168,-0.274 0.301,-0.563 0.4,-0.867c0.098,-0.304 0.148,-0.624 0.148,-0.958c-0,-0.396 -0.072,-0.753 -0.217,-1.073c-0.144,-0.319 -0.342,-0.589 -0.593,-0.81c-0.251,-0.22 -0.548,-0.391 -0.89,-0.513c-0.342,-0.122 -0.703,-0.183 -1.084,-0.183c-0.791,0 -1.445,0.221 -1.962,0.662c-0.517,0.441 -0.844,1.05 -0.981,1.825l-2.372,-0.205c0.106,-0.715 0.315,-1.335 0.627,-1.859c0.312,-0.525 0.7,-0.962 1.163,-1.312c0.464,-0.35 0.997,-0.609 1.598,-0.776c0.6,-0.167 1.251,-0.251 1.95,-0.251c0.7,0 1.358,0.095 1.974,0.285c0.616,0.19 1.156,0.472 1.62,0.844c0.463,0.373 0.829,0.837 1.095,1.392c0.266,0.555 0.399,1.205 0.399,1.951c-0,0.532 -0.08,1.03 -0.24,1.494c-0.159,0.464 -0.368,0.901 -0.627,1.312c-0.259,0.411 -0.555,0.799 -0.89,1.164c-0.334,0.365 -0.684,0.722 -1.049,1.072l-5.316,5.133l8.122,0l-0,1.917l-10.586,-0l-0,-2.327Z" style="fill:rgb(174,148,45);fill-rule:nonzero;"/>
    <g transform="matrix(1,0,0,1,-498.895,-903.381)">
        <g transform="matrix(29.1913,0,0,29.1913,1136,1297.81)">
            <path d="M0.523,-0.11c-0.001,0.029 0.008,0.043 0.028,0.042c0.012,0 0.021,-0.002 0.027,-0.006l0,0.077c-0.007,0.003 -0.017,0.004 -0.029,0.005c-0.013,0.001 -0.023,0.002 -0.032,0.002c-0.023,-0.001 -0.042,-0.01 -0.055,-0.026c-0.015,-0.016 -0.022,-0.035 -0.022,-0.058l-0.002,-0c-0.041,0.056 -0.096,0.084 -0.167,0.084c-0.076,-0.002 -0.132,-0.029 -0.17,-0.082c-0.038,-0.051 -0.057,-0.113 -0.057,-0.185c-0,-0.073 0.018,-0.137 0.055,-0.19c0.037,-0.054 0.094,-0.081 0.173,-0.083c0.07,0 0.125,0.029 0.165,0.085l0.002,0l-0,-0.075l0.084,-0l-0,0.41Zm-0.238,0.048c0.026,-0 0.048,-0.006 0.067,-0.018c0.018,-0.011 0.033,-0.027 0.045,-0.046c0.023,-0.039 0.035,-0.083 0.035,-0.13c0,-0.053 -0.011,-0.099 -0.032,-0.139c-0.022,-0.041 -0.062,-0.062 -0.119,-0.063c-0.051,0.001 -0.089,0.022 -0.112,0.062c-0.023,0.039 -0.035,0.083 -0.035,0.131c-0,0.051 0.012,0.096 0.035,0.137c0.023,0.043 0.062,0.065 0.116,0.066Z" style="fill:rgb(78,168,99);fill-rule:nonzero;"/>
        </g>
        <g transform="matrix(29.1913,0,0,29.1913,1161.95,1297.81)">
            <path d="M0.6,-0.42l0,0.078l-0.534,-0l0,-0.078l0.534,0Zm0,0.157l0,0.078l-0.534,0l0,-0.078l0.534,0Z" style="fill:rgb(78,168,99);fill-rule:nonzero;"/>
        </g>
        <g transform="matrix(29.1913,0,0,29.1913,1189.51,1297.81)">
            <path d="M0.034,-0.354c0,-0.026 0.001,-0.053 0.004,-0.081c0.003,-0.028 0.008,-0.055 0.014,-0.082c0.007,-0.028 0.017,-0.053 0.028,-0.078c0.012,-0.025 0.027,-0.046 0.046,-0.065c0.018,-0.018 0.04,-0.033 0.065,-0.044c0.025,-0.011 0.054,-0.016 0.087,-0.016c0.033,-0 0.063,0.005 0.087,0.016c0.025,0.011 0.047,0.026 0.065,0.044c0.019,0.019 0.034,0.04 0.045,0.065c0.012,0.025 0.021,0.05 0.029,0.078c0.007,0.027 0.011,0.054 0.014,0.082c0.003,0.028 0.004,0.055 0.004,0.081c0,0.037 -0.003,0.077 -0.01,0.12c-0.007,0.043 -0.019,0.082 -0.037,0.119c-0.018,0.037 -0.043,0.067 -0.075,0.091c-0.031,0.024 -0.072,0.036 -0.122,0.036c-0.05,-0 -0.091,-0.012 -0.123,-0.036c-0.031,-0.024 -0.056,-0.054 -0.074,-0.091c-0.018,-0.037 -0.03,-0.076 -0.037,-0.119c-0.007,-0.043 -0.01,-0.083 -0.01,-0.12Zm0.096,0c-0,0.023 0.001,0.051 0.004,0.083c0.003,0.032 0.01,0.063 0.02,0.092c0.01,0.03 0.025,0.055 0.044,0.076c0.02,0.021 0.047,0.031 0.08,0.031c0.033,-0 0.06,-0.01 0.079,-0.031c0.02,-0.021 0.035,-0.046 0.045,-0.076c0.01,-0.029 0.017,-0.06 0.019,-0.092c0.003,-0.032 0.005,-0.06 0.005,-0.083c-0,-0.016 -0.001,-0.034 -0.002,-0.055c-0.001,-0.02 -0.003,-0.041 -0.007,-0.062c-0.003,-0.021 -0.008,-0.041 -0.015,-0.061c-0.007,-0.019 -0.016,-0.037 -0.027,-0.052c-0.011,-0.016 -0.024,-0.029 -0.04,-0.038c-0.016,-0.009 -0.035,-0.014 -0.057,-0.014c-0.022,0 -0.041,0.005 -0.057,0.014c-0.016,0.009 -0.03,0.022 -0.041,0.038c-0.011,0.015 -0.019,0.033 -0.026,0.053c-0.007,0.019 -0.012,0.04 -0.016,0.061c-0.003,0.021 -0.006,0.041 -0.007,0.062c-0.001,0.02 -0.001,0.038 -0.001,0.054Z" style="fill:rgb(78,168,99);fill-rule:nonzero;"/>
        </g>
    </g>
    <g transform="matrix(1,0,0,1,-982.416,-905.464)">
        <g transform="matrix(29.1913,0,0,29.1913,1136,1297.81)">
            <path d="M0.523,-0.11c-0.001,0.029 0.008,0.043 0.028,0.042c0.012,0 0.021,-0.002 0.027,-0.006l0,0.077c-0.007,0.003 -0.017,0.004 -0.029,0.005c-0.013,0.001 -0.023,0.002 -0.032,0.002c-0.023,-0.001 -0.042,-0.01 -0.055,-0.026c-0.015,-0.016 -0.022,-0.035 -0.022,-0.058l-0.002,-0c-0.041,0.056 -0.096,0.084 -0.167,0.084c-0.076,-0.002 -0.132,-0.029 -0.17,-0.082c-0.038,-0.051 -0.057,-0.113 -0.057,-0.185c-0,-0.073 0.018,-0.137 0.055,-0.19c0.037,-0.054 0.094,-0.081 0.173,-0.083c0.07,0 0.125,0.029 0.165,0.085l0.002,0l-0,-0.075l0.084,-0l-0,0.41Zm-0.238,0.048c0.026,-0 0.048,-0.006 0.067,-0.018c0.018,-0.011 0.033,-0.027 0.045,-0.046c0.023,-0.039 0.035,-0.083 0.035,-0.13c0,-0.053 -0.011,-0.099 -0.032,-0.139c-0.022,-0.041 -0.062,-0.062 -0.119,-0.063c-0.051,0.001 -0.089,0.022 -0.112,0.062c-0.023,0.039 -0.035,0.083 -0.035,0.131c-0,0.051 0.012,0.096 0.035,0.137c0.023,0.043 0.062,0.065 0.116,0.066Z" style="fill:rgb(78,168,99);fill-rule:nonzero;"/>
        </g>
        <g transform="matrix(29.1913,0,0,29.1913,1161.95,1297.81)">
            <path d="M0.6,-0.42l0,0.078l-0.534,-0l0,-0.078l0.534,0Zm0,0.157l0,0.078l-0.534,0l0,-0.078l0.534,0Z" style="fill:rgb(78,168,99);fill-rule:nonzero;"/>
        </g>
        <g transform="matrix(29.1913,0,0,29.1913,1189.51,1297.81)">
            <path d="M0.27,-0.598l-0.13,0.12l-0.056,-0.067l0.197,-0.163l0.085,0l-0,0.708l-0.096,-0l0,-0.598Z" style="fill:rgb(78,168,99);fill-rule:nonzero;"/>
        </g>
    </g>
    <path d="M561.609,421.988l-0,-230.555" style="fill:none;stroke:rgb(174,148,45);stroke-width:8.99px;"/>
    <path d="M561.609,191.433l-18.976,18.976" style="fill:none;stroke:rgb(174,148,45);stroke-width:8.99px;"/>
    <path d="M561.609,191.433l20.702,20.703" style="fill:none;stroke:rgb(174,148,45);stroke-width:8.99px;"/>
    <path d="M561.779,420.511l-18.942,-18.942" style="fill:none;stroke:rgb(174,148,45);stroke-width:8.99px;"/>
    <path d="M561.779,420.511l19.624,-19.624" style="fill:none;stroke:rgb(174,148,45);stroke-width:8.99px;"/>
</svg>
