<?xml version="1.0" encoding="UTF-8" standalone="no"?>
<!DOCTYPE svg PUBLIC "-//W3C//DTD SVG 1.1//EN" "http://www.w3.org/Graphics/SVG/1.1/DTD/svg11.dtd">
<svg width="100%" height="100%" viewBox="0 0 625 561" version="1.1" xmlns="http://www.w3.org/2000/svg" xmlns:xlink="http://www.w3.org/1999/xlink" xml:space="preserve" xmlns:serif="http://www.serif.com/" style="fill-rule:evenodd;clip-rule:evenodd;stroke-linejoin:round;">
    <clipPath id="_clip1">
        <rect id="lec2_nn_improve_decision_trees.svg" x="-973.241" y="-317.501" width="1650.34" height="1237.76"/>
    </clipPath>
    <g clip-path="url(#_clip1)">
        <g>
            <g>
                <rect x="-973.241" y="-317.501" width="1650.34" height="1237.76" style="fill:white;fill-rule:nonzero;"/>
                <rect x="16.964" y="19.443" width="586.788" height="522.608" style="fill:white;fill-rule:nonzero;"/>
                <rect x="16.964" y="19.443" width="586.788" height="522.608" style="fill:none;fill-rule:nonzero;stroke:black;stroke-width:4.58px;"/>
                <path d="M129.278,139.781c0,-9.495 7.697,-17.191 17.192,-17.191c9.494,-0 17.191,7.696 17.191,17.191c-0,9.494 -7.697,17.191 -17.191,17.191c-9.495,-0 -17.192,-7.697 -17.192,-17.191Z" style="fill:rgb(0,176,80);fill-rule:nonzero;"/>
                <path d="M129.278,139.781c0,-9.495 7.697,-17.191 17.192,-17.191c9.494,-0 17.191,7.696 17.191,17.191c-0,9.494 -7.697,17.191 -17.191,17.191c-9.495,-0 -17.192,-7.697 -17.192,-17.191Z" style="fill:none;fill-rule:nonzero;stroke:rgb(56,93,138);stroke-width:4.58px;"/>
                <path d="M117.818,279.601c-0,-9.494 7.696,-17.191 17.191,-17.191c9.494,0 17.191,7.697 17.191,17.191c-0,9.495 -7.697,17.191 -17.191,17.191c-9.495,0 -17.191,-7.696 -17.191,-17.191Z" style="fill:rgb(0,176,80);fill-rule:nonzero;"/>
                <path d="M117.818,279.601c-0,-9.494 7.696,-17.191 17.191,-17.191c9.494,0 17.191,7.697 17.191,17.191c-0,9.495 -7.697,17.191 -17.191,17.191c-9.495,0 -17.191,-7.696 -17.191,-17.191Z" style="fill:none;fill-rule:nonzero;stroke:rgb(56,93,138);stroke-width:4.58px;"/>
                <path d="M255.346,230.32c0,-10.127 7.697,-18.337 17.191,-18.337c9.495,0 17.191,8.21 17.191,18.337c0,10.128 -7.696,18.338 -17.191,18.338c-9.494,-0 -17.191,-8.21 -17.191,-18.338Z" style="fill:rgb(0,176,80);fill-rule:nonzero;"/>
                <path d="M255.346,230.32c0,-10.127 7.697,-18.337 17.191,-18.337c9.495,0 17.191,8.21 17.191,18.337c0,10.128 -7.696,18.338 -17.191,18.338c-9.494,-0 -17.191,-8.21 -17.191,-18.338Z" style="fill:none;fill-rule:nonzero;stroke:rgb(56,93,138);stroke-width:4.58px;"/>
                <path d="M349.324,300.231c0,-9.495 7.697,-17.191 17.191,-17.191c9.495,-0 17.191,7.696 17.191,17.191c0,9.494 -7.696,17.191 -17.191,17.191c-9.494,-0 -17.191,-7.697 -17.191,-17.191Z" style="fill:rgb(0,176,80);fill-rule:nonzero;"/>
                <path d="M349.324,300.231c0,-9.495 7.697,-17.191 17.191,-17.191c9.495,-0 17.191,7.696 17.191,17.191c0,9.494 -7.696,17.191 -17.191,17.191c-9.494,-0 -17.191,-7.697 -17.191,-17.191Z" style="fill:none;fill-rule:nonzero;stroke:rgb(56,93,138);stroke-width:4.58px;"/>
                <path d="M138.447,462.973c0,-9.495 8.21,-17.191 18.337,-17.191c10.128,-0 18.337,7.696 18.337,17.191c0,9.494 -8.209,17.191 -18.337,17.191c-10.127,-0 -18.337,-7.697 -18.337,-17.191Z" style="fill:rgb(0,176,80);fill-rule:nonzero;"/>
                <path d="M138.447,462.973c0,-9.495 8.21,-17.191 18.337,-17.191c10.128,-0 18.337,7.696 18.337,17.191c0,9.494 -8.209,17.191 -18.337,17.191c-10.127,-0 -18.337,-7.697 -18.337,-17.191Z" style="fill:none;fill-rule:nonzero;stroke:rgb(56,93,138);stroke-width:4.58px;"/>
                <path d="M452.47,425.152c0,-10.127 7.697,-18.337 17.191,-18.337c9.495,0 17.192,8.21 17.192,18.337c-0,10.128 -7.697,18.338 -17.192,18.338c-9.494,-0 -17.191,-8.21 -17.191,-18.338Z" style="fill:rgb(0,176,80);fill-rule:nonzero;"/>
                <path d="M452.47,425.152c0,-10.127 7.697,-18.337 17.191,-18.337c9.495,0 17.192,8.21 17.192,18.337c-0,10.128 -7.697,18.338 -17.192,18.338c-9.494,-0 -17.191,-8.21 -17.191,-18.338Z" style="fill:none;fill-rule:nonzero;stroke:rgb(56,93,138);stroke-width:4.58px;"/>
                <path d="M434.133,150.095c0,-10.127 7.697,-18.337 17.191,-18.337c9.495,0 17.191,8.21 17.191,18.337c0,10.128 -7.696,18.338 -17.191,18.338c-9.494,-0 -17.191,-8.21 -17.191,-18.338Z" style="fill:rgb(0,176,80);fill-rule:nonzero;"/>
                <path d="M434.133,150.095c0,-10.127 7.697,-18.337 17.191,-18.337c9.495,0 17.191,8.21 17.191,18.337c0,10.128 -7.696,18.338 -17.191,18.338c-9.494,-0 -17.191,-8.21 -17.191,-18.338Z" style="fill:none;fill-rule:nonzero;stroke:rgb(56,93,138);stroke-width:4.58px;"/>
                <path d="M243.886,122.59c-0,-10.128 7.696,-18.337 17.191,-18.337c9.494,-0 17.191,8.209 17.191,18.337c-0,10.127 -7.697,18.337 -17.191,18.337c-9.495,-0 -17.191,-8.21 -17.191,-18.337Z" style="fill:rgb(0,176,80);fill-rule:nonzero;"/>
                <path d="M243.886,122.59c-0,-10.128 7.696,-18.337 17.191,-18.337c9.494,-0 17.191,8.209 17.191,18.337c-0,10.127 -7.697,18.337 -17.191,18.337c-9.495,-0 -17.191,-8.21 -17.191,-18.337Z" style="fill:none;fill-rule:nonzero;stroke:rgb(56,93,138);stroke-width:4.58px;"/>
                <path d="M376.83,403.377c-0,-9.494 7.696,-17.191 17.191,-17.191c9.494,-0 17.191,7.697 17.191,17.191c-0,9.494 -7.697,17.191 -17.191,17.191c-9.495,0 -17.191,-7.697 -17.191,-17.191Z" style="fill:rgb(0,176,80);fill-rule:nonzero;"/>
                <path d="M376.83,403.377c-0,-9.494 7.696,-17.191 17.191,-17.191c9.494,-0 17.191,7.697 17.191,17.191c-0,9.494 -7.697,17.191 -17.191,17.191c-9.495,0 -17.191,-7.697 -17.191,-17.191Z" style="fill:none;fill-rule:nonzero;stroke:rgb(56,93,138);stroke-width:4.58px;"/>
                <path d="M216.38,357.534c-0,-9.494 7.696,-17.191 17.191,-17.191c9.494,0 17.191,7.697 17.191,17.191c-0,9.495 -7.697,17.191 -17.191,17.191c-9.495,0 -17.191,-7.696 -17.191,-17.191Z" style="fill:rgb(0,176,80);fill-rule:nonzero;"/>
                <path d="M216.38,357.534c-0,-9.494 7.697,-17.191 17.191,-17.191c9.494,0 17.191,7.697 17.191,17.191c-0,9.495 -7.697,17.191 -17.191,17.191c-9.494,0 -17.191,-7.696 -17.191,-17.191Z" style="fill:none;fill-rule:nonzero;stroke:rgb(56,93,138);stroke-width:4.58px;"/>
                <path d="M528.111,425.152c0,-10.127 7.697,-18.337 17.191,-18.337c9.495,0 17.191,8.21 17.191,18.337c0,10.128 -7.696,18.338 -17.191,18.338c-9.494,-0 -17.191,-8.21 -17.191,-18.338Z" style="fill:rgb(0,176,80);fill-rule:nonzero;"/>
                <path d="M528.111,425.152c0,-10.127 7.697,-18.337 17.191,-18.337c9.495,0 17.191,8.21 17.191,18.337c0,10.128 -7.696,18.338 -17.191,18.338c-9.494,-0 -17.191,-8.21 -17.191,-18.338Z" style="fill:none;fill-rule:nonzero;stroke:rgb(56,93,138);stroke-width:4.58px;"/>
                <path d="M470.808,120.298c-0,-10.128 7.696,-18.338 17.191,-18.338c9.494,0 17.191,8.21 17.191,18.338c-0,10.127 -7.697,18.337 -17.191,18.337c-9.495,-0 -17.191,-8.21 -17.191,-18.337Z" style="fill:rgb(0,176,80);fill-rule:nonzero;"/>
                <path d="M470.808,120.298c-0,-10.128 7.696,-18.338 17.191,-18.338c9.494,0 17.191,8.21 17.191,18.338c-0,10.127 -7.697,18.337 -17.191,18.337c-9.495,-0 -17.191,-8.21 -17.191,-18.337Z" style="fill:none;fill-rule:nonzero;stroke:rgb(56,93,138);stroke-width:4.58px;"/>
                <path d="M83.436,194.792c-0,-9.494 7.696,-17.191 17.191,-17.191c9.494,0 17.191,7.697 17.191,17.191c-0,9.494 -7.697,17.191 -17.191,17.191c-9.495,0 -17.191,-7.697 -17.191,-17.191Z" style="fill:rgb(0,176,80);fill-rule:nonzero;"/>
                <path d="M83.436,194.792c-0,-9.494 7.696,-17.191 17.191,-17.191c9.494,0 17.191,7.697 17.191,17.191c-0,9.495 -7.697,17.191 -17.191,17.191c-9.495,0 -17.191,-7.696 -17.191,-17.191Z" style="fill:none;fill-rule:nonzero;stroke:rgb(56,93,138);stroke-width:4.58px;"/>
                <path d="M255.346,492.771c0,-9.495 7.697,-17.191 17.191,-17.191c9.495,-0 17.191,7.696 17.191,17.191c0,9.494 -7.696,17.191 -17.191,17.191c-9.494,-0 -17.191,-7.697 -17.191,-17.191Z" style="fill:rgb(0,176,80);fill-rule:nonzero;"/>
                <path d="M255.346,492.771c0,-9.495 7.697,-17.191 17.191,-17.191c9.495,-0 17.191,7.696 17.191,17.191c0,9.494 -7.696,17.191 -17.191,17.191c-9.494,-0 -17.191,-7.697 -17.191,-17.191Z" style="fill:none;fill-rule:nonzero;stroke:rgb(56,93,138);stroke-width:4.58px;"/>
                <path d="M322.964,20.589l1.25,522.609" style="fill:none;fill-rule:nonzero;stroke:rgb(192,0,0);stroke-width:11.46px;stroke-dasharray:45.84,34.38;"/>
                <path d="M605.627,347.22l-283.809,-0" style="fill:none;fill-rule:nonzero;stroke:rgb(192,0,0);stroke-width:9.17px;stroke-dasharray:36.67,27.51;"/>
                <path d="M322.026,257.826l-305.063,2.501" style="fill:none;fill-rule:nonzero;stroke:rgb(192,0,0);stroke-width:9.17px;stroke-dasharray:36.67,27.51;"/>
                <path d="M434.134,542.264l-0.001,-195.045" style="fill:none;fill-rule:nonzero;stroke:rgb(192,0,0);stroke-width:4.58px;stroke-dasharray:18.34,13.75;"/>
                <path d="M472.057,354.512l-1.249,-335.069" style="fill:none;fill-rule:nonzero;stroke:rgb(192,0,0);stroke-width:4.58px;stroke-dasharray:18.34,13.75;"/>
                <path d="M184.915,249.067l-0.625,-231.916" style="fill:none;fill-rule:nonzero;stroke:rgb(192,0,0);stroke-width:4.58px;stroke-dasharray:18.34,13.75;"/>
                <path d="M209.503,542.68l0.626,-282.562" style="fill:none;fill-rule:nonzero;stroke:rgb(192,0,0);stroke-width:4.58px;stroke-dasharray:18.34,13.75;"/>
                <path d="M551.033,317.422c-0,-10.128 8.209,-18.337 18.337,-18.337c10.127,-0 18.337,8.209 18.337,18.337c-0,10.127 -8.21,18.337 -18.337,18.337c-10.128,-0 -18.337,-8.21 -18.337,-18.337Z" style="fill-rule:nonzero;"/>
                <path d="M551.033,317.422c-0,-10.128 8.209,-18.337 18.337,-18.337c10.127,-0 18.337,8.209 18.337,18.337c-0,10.127 -8.21,18.337 -18.337,18.337c-10.128,-0 -18.337,-8.21 -18.337,-18.337Z" style="fill:none;fill-rule:nonzero;stroke:rgb(56,93,138);stroke-width:4.58px;"/>
            </g>
        </g>
    </g>
    <rect x="4.493" y="4.493" width="615.668" height="551.937" style="fill:rgb(235,235,235);fill-opacity:0;stroke:rgb(71,87,211);stroke-opacity:0;stroke-width:8.99px;stroke-linecap:round;stroke-miterlimit:1.5;"/>
</svg>
