<?xml version="1.0" encoding="utf-8" standalone="no"?>
<!DOCTYPE svg PUBLIC "-//W3C//DTD SVG 1.1//EN"
  "http://www.w3.org/Graphics/SVG/1.1/DTD/svg11.dtd">
<svg xmlns:xlink="http://www.w3.org/1999/xlink" width="648pt" height="288pt" viewBox="0 0 648 288" xmlns="http://www.w3.org/2000/svg" version="1.1">
 <metadata>
  <rdf:RDF xmlns:dc="http://purl.org/dc/elements/1.1/" xmlns:cc="http://creativecommons.org/ns#" xmlns:rdf="http://www.w3.org/1999/02/22-rdf-syntax-ns#">
   <cc:Work>
    <dc:type rdf:resource="http://purl.org/dc/dcmitype/StillImage"/>
    <dc:date>2023-11-18T12:06:47.399111</dc:date>
    <dc:format>image/svg+xml</dc:format>
    <dc:creator>
     <cc:Agent>
      <dc:title>Matplotlib v3.5.1, https://matplotlib.org/</dc:title>
     </cc:Agent>
    </dc:creator>
   </cc:Work>
  </rdf:RDF>
 </metadata>
 <defs>
  <style type="text/css">*{stroke-linejoin: round; stroke-linecap: butt}</style>
 </defs>
 <g id="figure_1">
  <g id="patch_1">
   <path d="M 0 288 
L 648 288 
L 648 0 
L 0 0 
z
" style="fill: #ffffff"/>
  </g>
  <g id="axes_1">
   <g id="patch_2">
    <path d="M 66.62 246.04 
L 324.9 246.04 
L 324.9 26.88 
L 66.62 26.88 
z
" style="fill: #ffffff"/>
   </g>
   <g id="PathCollection_1">
    <defs>
     <path id="mff975edbc4" d="M 0 3.162278 
C 0.838646 3.162278 1.643056 2.82908 2.236068 2.236068 
C 2.82908 1.643056 3.162278 0.838646 3.162278 0 
C 3.162278 -0.838646 2.82908 -1.643056 2.236068 -2.236068 
C 1.643056 -2.82908 0.838646 -3.162278 0 -3.162278 
C -0.838646 -3.162278 -1.643056 -2.82908 -2.236068 -2.236068 
C -2.82908 -1.643056 -3.162278 -0.838646 -3.162278 0 
C -3.162278 0.838646 -2.82908 1.643056 -2.236068 2.236068 
C -1.643056 2.82908 -0.838646 3.162278 0 3.162278 
z
" style="stroke: #ff7f50"/>
    </defs>
    <g clip-path="url(#p55f54af05e)">
     <use xlink:href="#mff975edbc4" x="91.708493" y="236.078182" style="fill: #ff7f50; stroke: #ff7f50"/>
     <use xlink:href="#mff975edbc4" x="124.545787" y="236.078182" style="fill: #ff7f50; stroke: #ff7f50"/>
     <use xlink:href="#mff975edbc4" x="312.89303" y="236.078182" style="fill: #ff7f50; stroke: #ff7f50"/>
     <use xlink:href="#mff975edbc4" x="166.460057" y="236.078182" style="fill: #ff7f50; stroke: #ff7f50"/>
     <use xlink:href="#mff975edbc4" x="209.575691" y="236.078182" style="fill: #ff7f50; stroke: #ff7f50"/>
     <use xlink:href="#mff975edbc4" x="87.83743" y="236.078182" style="fill: #ff7f50; stroke: #ff7f50"/>
     <use xlink:href="#mff975edbc4" x="166.460057" y="236.078182" style="fill: #ff7f50; stroke: #ff7f50"/>
     <use xlink:href="#mff975edbc4" x="83.298943" y="236.078182" style="fill: #ff7f50; stroke: #ff7f50"/>
     <use xlink:href="#mff975edbc4" x="78.62697" y="236.078182" style="fill: #ff7f50; stroke: #ff7f50"/>
     <use xlink:href="#mff975edbc4" x="81.029699" y="236.078182" style="fill: #ff7f50; stroke: #ff7f50"/>
    </g>
   </g>
   <g id="PathCollection_2">
    <defs>
     <path id="m55a1bfccb7" d="M 0 3.162278 
C 0.838646 3.162278 1.643056 2.82908 2.236068 2.236068 
C 2.82908 1.643056 3.162278 0.838646 3.162278 0 
C 3.162278 -0.838646 2.82908 -1.643056 2.236068 -2.236068 
C 1.643056 -2.82908 0.838646 -3.162278 0 -3.162278 
C -0.838646 -3.162278 -1.643056 -2.82908 -2.236068 -2.236068 
C -2.82908 -1.643056 -3.162278 -0.838646 -3.162278 0 
C -3.162278 0.838646 -2.82908 1.643056 -2.236068 2.236068 
C -1.643056 2.82908 -0.838646 3.162278 0 3.162278 
z
" style="stroke: #000080"/>
    </defs>
    <g clip-path="url(#p55f54af05e)">
     <use xlink:href="#m55a1bfccb7" x="127.348971" y="236.078182" style="fill: #000080; stroke: #000080"/>
     <use xlink:href="#m55a1bfccb7" x="111.197294" y="236.078182" style="fill: #000080; stroke: #000080"/>
     <use xlink:href="#m55a1bfccb7" x="185.815372" y="236.078182" style="fill: #000080; stroke: #000080"/>
     <use xlink:href="#m55a1bfccb7" x="110.262899" y="236.078182" style="fill: #000080; stroke: #000080"/>
     <use xlink:href="#m55a1bfccb7" x="90.106674" y="236.078182" style="fill: #000080; stroke: #000080"/>
     <use xlink:href="#m55a1bfccb7" x="126.414576" y="236.078182" style="fill: #000080; stroke: #000080"/>
     <use xlink:href="#m55a1bfccb7" x="110.930324" y="236.078182" style="fill: #000080; stroke: #000080"/>
     <use xlink:href="#m55a1bfccb7" x="118.67245" y="236.078182" style="fill: #000080; stroke: #000080"/>
     <use xlink:href="#m55a1bfccb7" x="156.715657" y="236.078182" style="fill: #000080; stroke: #000080"/>
     <use xlink:href="#m55a1bfccb7" x="187.684161" y="236.078182" style="fill: #000080; stroke: #000080"/>
     <use xlink:href="#m55a1bfccb7" x="156.582172" y="236.078182" style="fill: #000080; stroke: #000080"/>
     <use xlink:href="#m55a1bfccb7" x="90.373644" y="236.078182" style="fill: #000080; stroke: #000080"/>
    </g>
   </g>
   <g id="matplotlib.axis_1">
    <g id="xtick_1">
     <g id="line2d_1">
      <defs>
       <path id="m313bff20f0" d="M 0 0 
L 0 3.5 
" style="stroke: #000000; stroke-width: 0.8"/>
      </defs>
      <g>
       <use xlink:href="#m313bff20f0" x="77.425605" y="246.04" style="stroke: #000000; stroke-width: 0.8"/>
      </g>
     </g>
     <g id="text_1">
      <!-- 0 -->
      <g transform="translate(74.244355 260.638438)scale(0.1 -0.1)">
       <defs>
        <path id="DejaVuSans-30" d="M 2034 4250 
Q 1547 4250 1301 3770 
Q 1056 3291 1056 2328 
Q 1056 1369 1301 889 
Q 1547 409 2034 409 
Q 2525 409 2770 889 
Q 3016 1369 3016 2328 
Q 3016 3291 2770 3770 
Q 2525 4250 2034 4250 
z
M 2034 4750 
Q 2819 4750 3233 4129 
Q 3647 3509 3647 2328 
Q 3647 1150 3233 529 
Q 2819 -91 2034 -91 
Q 1250 -91 836 529 
Q 422 1150 422 2328 
Q 422 3509 836 4129 
Q 1250 4750 2034 4750 
z
" transform="scale(0.015625)"/>
       </defs>
       <use xlink:href="#DejaVuSans-30"/>
      </g>
     </g>
    </g>
    <g id="xtick_2">
     <g id="line2d_2">
      <g>
       <use xlink:href="#m313bff20f0" x="110.796839" y="246.04" style="stroke: #000000; stroke-width: 0.8"/>
      </g>
     </g>
     <g id="text_2">
      <!-- 250 -->
      <g transform="translate(101.253089 260.638438)scale(0.1 -0.1)">
       <defs>
        <path id="DejaVuSans-32" d="M 1228 531 
L 3431 531 
L 3431 0 
L 469 0 
L 469 531 
Q 828 903 1448 1529 
Q 2069 2156 2228 2338 
Q 2531 2678 2651 2914 
Q 2772 3150 2772 3378 
Q 2772 3750 2511 3984 
Q 2250 4219 1831 4219 
Q 1534 4219 1204 4116 
Q 875 4013 500 3803 
L 500 4441 
Q 881 4594 1212 4672 
Q 1544 4750 1819 4750 
Q 2544 4750 2975 4387 
Q 3406 4025 3406 3419 
Q 3406 3131 3298 2873 
Q 3191 2616 2906 2266 
Q 2828 2175 2409 1742 
Q 1991 1309 1228 531 
z
" transform="scale(0.015625)"/>
        <path id="DejaVuSans-35" d="M 691 4666 
L 3169 4666 
L 3169 4134 
L 1269 4134 
L 1269 2991 
Q 1406 3038 1543 3061 
Q 1681 3084 1819 3084 
Q 2600 3084 3056 2656 
Q 3513 2228 3513 1497 
Q 3513 744 3044 326 
Q 2575 -91 1722 -91 
Q 1428 -91 1123 -41 
Q 819 9 494 109 
L 494 744 
Q 775 591 1075 516 
Q 1375 441 1709 441 
Q 2250 441 2565 725 
Q 2881 1009 2881 1497 
Q 2881 1984 2565 2268 
Q 2250 2553 1709 2553 
Q 1456 2553 1204 2497 
Q 953 2441 691 2322 
L 691 4666 
z
" transform="scale(0.015625)"/>
       </defs>
       <use xlink:href="#DejaVuSans-32"/>
       <use xlink:href="#DejaVuSans-35" x="63.623047"/>
       <use xlink:href="#DejaVuSans-30" x="127.246094"/>
      </g>
     </g>
    </g>
    <g id="xtick_3">
     <g id="line2d_3">
      <g>
       <use xlink:href="#m313bff20f0" x="144.168073" y="246.04" style="stroke: #000000; stroke-width: 0.8"/>
      </g>
     </g>
     <g id="text_3">
      <!-- 500 -->
      <g transform="translate(134.624323 260.638438)scale(0.1 -0.1)">
       <use xlink:href="#DejaVuSans-35"/>
       <use xlink:href="#DejaVuSans-30" x="63.623047"/>
       <use xlink:href="#DejaVuSans-30" x="127.246094"/>
      </g>
     </g>
    </g>
    <g id="xtick_4">
     <g id="line2d_4">
      <g>
       <use xlink:href="#m313bff20f0" x="177.539306" y="246.04" style="stroke: #000000; stroke-width: 0.8"/>
      </g>
     </g>
     <g id="text_4">
      <!-- 750 -->
      <g transform="translate(167.995556 260.638438)scale(0.1 -0.1)">
       <defs>
        <path id="DejaVuSans-37" d="M 525 4666 
L 3525 4666 
L 3525 4397 
L 1831 0 
L 1172 0 
L 2766 4134 
L 525 4134 
L 525 4666 
z
" transform="scale(0.015625)"/>
       </defs>
       <use xlink:href="#DejaVuSans-37"/>
       <use xlink:href="#DejaVuSans-35" x="63.623047"/>
       <use xlink:href="#DejaVuSans-30" x="127.246094"/>
      </g>
     </g>
    </g>
    <g id="xtick_5">
     <g id="line2d_5">
      <g>
       <use xlink:href="#m313bff20f0" x="210.91054" y="246.04" style="stroke: #000000; stroke-width: 0.8"/>
      </g>
     </g>
     <g id="text_5">
      <!-- 1000 -->
      <g transform="translate(198.18554 260.638438)scale(0.1 -0.1)">
       <defs>
        <path id="DejaVuSans-31" d="M 794 531 
L 1825 531 
L 1825 4091 
L 703 3866 
L 703 4441 
L 1819 4666 
L 2450 4666 
L 2450 531 
L 3481 531 
L 3481 0 
L 794 0 
L 794 531 
z
" transform="scale(0.015625)"/>
       </defs>
       <use xlink:href="#DejaVuSans-31"/>
       <use xlink:href="#DejaVuSans-30" x="63.623047"/>
       <use xlink:href="#DejaVuSans-30" x="127.246094"/>
       <use xlink:href="#DejaVuSans-30" x="190.869141"/>
      </g>
     </g>
    </g>
    <g id="xtick_6">
     <g id="line2d_6">
      <g>
       <use xlink:href="#m313bff20f0" x="244.281774" y="246.04" style="stroke: #000000; stroke-width: 0.8"/>
      </g>
     </g>
     <g id="text_6">
      <!-- 1250 -->
      <g transform="translate(231.556774 260.638438)scale(0.1 -0.1)">
       <use xlink:href="#DejaVuSans-31"/>
       <use xlink:href="#DejaVuSans-32" x="63.623047"/>
       <use xlink:href="#DejaVuSans-35" x="127.246094"/>
       <use xlink:href="#DejaVuSans-30" x="190.869141"/>
      </g>
     </g>
    </g>
    <g id="xtick_7">
     <g id="line2d_7">
      <g>
       <use xlink:href="#m313bff20f0" x="277.653007" y="246.04" style="stroke: #000000; stroke-width: 0.8"/>
      </g>
     </g>
     <g id="text_7">
      <!-- 1500 -->
      <g transform="translate(264.928007 260.638438)scale(0.1 -0.1)">
       <use xlink:href="#DejaVuSans-31"/>
       <use xlink:href="#DejaVuSans-35" x="63.623047"/>
       <use xlink:href="#DejaVuSans-30" x="127.246094"/>
       <use xlink:href="#DejaVuSans-30" x="190.869141"/>
      </g>
     </g>
    </g>
    <g id="xtick_8">
     <g id="line2d_8">
      <g>
       <use xlink:href="#m313bff20f0" x="311.024241" y="246.04" style="stroke: #000000; stroke-width: 0.8"/>
      </g>
     </g>
     <g id="text_8">
      <!-- 1750 -->
      <g transform="translate(298.299241 260.638438)scale(0.1 -0.1)">
       <use xlink:href="#DejaVuSans-31"/>
       <use xlink:href="#DejaVuSans-37" x="63.623047"/>
       <use xlink:href="#DejaVuSans-35" x="127.246094"/>
       <use xlink:href="#DejaVuSans-30" x="190.869141"/>
      </g>
     </g>
    </g>
    <g id="text_9">
     <!-- survival time in days -->
     <g transform="translate(143.746719 274.316562)scale(0.1 -0.1)">
      <defs>
       <path id="DejaVuSans-73" d="M 2834 3397 
L 2834 2853 
Q 2591 2978 2328 3040 
Q 2066 3103 1784 3103 
Q 1356 3103 1142 2972 
Q 928 2841 928 2578 
Q 928 2378 1081 2264 
Q 1234 2150 1697 2047 
L 1894 2003 
Q 2506 1872 2764 1633 
Q 3022 1394 3022 966 
Q 3022 478 2636 193 
Q 2250 -91 1575 -91 
Q 1294 -91 989 -36 
Q 684 19 347 128 
L 347 722 
Q 666 556 975 473 
Q 1284 391 1588 391 
Q 1994 391 2212 530 
Q 2431 669 2431 922 
Q 2431 1156 2273 1281 
Q 2116 1406 1581 1522 
L 1381 1569 
Q 847 1681 609 1914 
Q 372 2147 372 2553 
Q 372 3047 722 3315 
Q 1072 3584 1716 3584 
Q 2034 3584 2315 3537 
Q 2597 3491 2834 3397 
z
" transform="scale(0.015625)"/>
       <path id="DejaVuSans-75" d="M 544 1381 
L 544 3500 
L 1119 3500 
L 1119 1403 
Q 1119 906 1312 657 
Q 1506 409 1894 409 
Q 2359 409 2629 706 
Q 2900 1003 2900 1516 
L 2900 3500 
L 3475 3500 
L 3475 0 
L 2900 0 
L 2900 538 
Q 2691 219 2414 64 
Q 2138 -91 1772 -91 
Q 1169 -91 856 284 
Q 544 659 544 1381 
z
M 1991 3584 
L 1991 3584 
z
" transform="scale(0.015625)"/>
       <path id="DejaVuSans-72" d="M 2631 2963 
Q 2534 3019 2420 3045 
Q 2306 3072 2169 3072 
Q 1681 3072 1420 2755 
Q 1159 2438 1159 1844 
L 1159 0 
L 581 0 
L 581 3500 
L 1159 3500 
L 1159 2956 
Q 1341 3275 1631 3429 
Q 1922 3584 2338 3584 
Q 2397 3584 2469 3576 
Q 2541 3569 2628 3553 
L 2631 2963 
z
" transform="scale(0.015625)"/>
       <path id="DejaVuSans-76" d="M 191 3500 
L 800 3500 
L 1894 563 
L 2988 3500 
L 3597 3500 
L 2284 0 
L 1503 0 
L 191 3500 
z
" transform="scale(0.015625)"/>
       <path id="DejaVuSans-69" d="M 603 3500 
L 1178 3500 
L 1178 0 
L 603 0 
L 603 3500 
z
M 603 4863 
L 1178 4863 
L 1178 4134 
L 603 4134 
L 603 4863 
z
" transform="scale(0.015625)"/>
       <path id="DejaVuSans-61" d="M 2194 1759 
Q 1497 1759 1228 1600 
Q 959 1441 959 1056 
Q 959 750 1161 570 
Q 1363 391 1709 391 
Q 2188 391 2477 730 
Q 2766 1069 2766 1631 
L 2766 1759 
L 2194 1759 
z
M 3341 1997 
L 3341 0 
L 2766 0 
L 2766 531 
Q 2569 213 2275 61 
Q 1981 -91 1556 -91 
Q 1019 -91 701 211 
Q 384 513 384 1019 
Q 384 1609 779 1909 
Q 1175 2209 1959 2209 
L 2766 2209 
L 2766 2266 
Q 2766 2663 2505 2880 
Q 2244 3097 1772 3097 
Q 1472 3097 1187 3025 
Q 903 2953 641 2809 
L 641 3341 
Q 956 3463 1253 3523 
Q 1550 3584 1831 3584 
Q 2591 3584 2966 3190 
Q 3341 2797 3341 1997 
z
" transform="scale(0.015625)"/>
       <path id="DejaVuSans-6c" d="M 603 4863 
L 1178 4863 
L 1178 0 
L 603 0 
L 603 4863 
z
" transform="scale(0.015625)"/>
       <path id="DejaVuSans-20" transform="scale(0.015625)"/>
       <path id="DejaVuSans-74" d="M 1172 4494 
L 1172 3500 
L 2356 3500 
L 2356 3053 
L 1172 3053 
L 1172 1153 
Q 1172 725 1289 603 
Q 1406 481 1766 481 
L 2356 481 
L 2356 0 
L 1766 0 
Q 1100 0 847 248 
Q 594 497 594 1153 
L 594 3053 
L 172 3053 
L 172 3500 
L 594 3500 
L 594 4494 
L 1172 4494 
z
" transform="scale(0.015625)"/>
       <path id="DejaVuSans-6d" d="M 3328 2828 
Q 3544 3216 3844 3400 
Q 4144 3584 4550 3584 
Q 5097 3584 5394 3201 
Q 5691 2819 5691 2113 
L 5691 0 
L 5113 0 
L 5113 2094 
Q 5113 2597 4934 2840 
Q 4756 3084 4391 3084 
Q 3944 3084 3684 2787 
Q 3425 2491 3425 1978 
L 3425 0 
L 2847 0 
L 2847 2094 
Q 2847 2600 2669 2842 
Q 2491 3084 2119 3084 
Q 1678 3084 1418 2786 
Q 1159 2488 1159 1978 
L 1159 0 
L 581 0 
L 581 3500 
L 1159 3500 
L 1159 2956 
Q 1356 3278 1631 3431 
Q 1906 3584 2284 3584 
Q 2666 3584 2933 3390 
Q 3200 3197 3328 2828 
z
" transform="scale(0.015625)"/>
       <path id="DejaVuSans-65" d="M 3597 1894 
L 3597 1613 
L 953 1613 
Q 991 1019 1311 708 
Q 1631 397 2203 397 
Q 2534 397 2845 478 
Q 3156 559 3463 722 
L 3463 178 
Q 3153 47 2828 -22 
Q 2503 -91 2169 -91 
Q 1331 -91 842 396 
Q 353 884 353 1716 
Q 353 2575 817 3079 
Q 1281 3584 2069 3584 
Q 2775 3584 3186 3129 
Q 3597 2675 3597 1894 
z
M 3022 2063 
Q 3016 2534 2758 2815 
Q 2500 3097 2075 3097 
Q 1594 3097 1305 2825 
Q 1016 2553 972 2059 
L 3022 2063 
z
" transform="scale(0.015625)"/>
       <path id="DejaVuSans-6e" d="M 3513 2113 
L 3513 0 
L 2938 0 
L 2938 2094 
Q 2938 2591 2744 2837 
Q 2550 3084 2163 3084 
Q 1697 3084 1428 2787 
Q 1159 2491 1159 1978 
L 1159 0 
L 581 0 
L 581 3500 
L 1159 3500 
L 1159 2956 
Q 1366 3272 1645 3428 
Q 1925 3584 2291 3584 
Q 2894 3584 3203 3211 
Q 3513 2838 3513 2113 
z
" transform="scale(0.015625)"/>
       <path id="DejaVuSans-64" d="M 2906 2969 
L 2906 4863 
L 3481 4863 
L 3481 0 
L 2906 0 
L 2906 525 
Q 2725 213 2448 61 
Q 2172 -91 1784 -91 
Q 1150 -91 751 415 
Q 353 922 353 1747 
Q 353 2572 751 3078 
Q 1150 3584 1784 3584 
Q 2172 3584 2448 3432 
Q 2725 3281 2906 2969 
z
M 947 1747 
Q 947 1113 1208 752 
Q 1469 391 1925 391 
Q 2381 391 2643 752 
Q 2906 1113 2906 1747 
Q 2906 2381 2643 2742 
Q 2381 3103 1925 3103 
Q 1469 3103 1208 2742 
Q 947 2381 947 1747 
z
" transform="scale(0.015625)"/>
       <path id="DejaVuSans-79" d="M 2059 -325 
Q 1816 -950 1584 -1140 
Q 1353 -1331 966 -1331 
L 506 -1331 
L 506 -850 
L 844 -850 
Q 1081 -850 1212 -737 
Q 1344 -625 1503 -206 
L 1606 56 
L 191 3500 
L 800 3500 
L 1894 763 
L 2988 3500 
L 3597 3500 
L 2059 -325 
z
" transform="scale(0.015625)"/>
      </defs>
      <use xlink:href="#DejaVuSans-73"/>
      <use xlink:href="#DejaVuSans-75" x="52.099609"/>
      <use xlink:href="#DejaVuSans-72" x="115.478516"/>
      <use xlink:href="#DejaVuSans-76" x="156.591797"/>
      <use xlink:href="#DejaVuSans-69" x="215.771484"/>
      <use xlink:href="#DejaVuSans-76" x="243.554688"/>
      <use xlink:href="#DejaVuSans-61" x="302.734375"/>
      <use xlink:href="#DejaVuSans-6c" x="364.013672"/>
      <use xlink:href="#DejaVuSans-20" x="391.796875"/>
      <use xlink:href="#DejaVuSans-74" x="423.583984"/>
      <use xlink:href="#DejaVuSans-69" x="462.792969"/>
      <use xlink:href="#DejaVuSans-6d" x="490.576172"/>
      <use xlink:href="#DejaVuSans-65" x="587.988281"/>
      <use xlink:href="#DejaVuSans-20" x="649.511719"/>
      <use xlink:href="#DejaVuSans-69" x="681.298828"/>
      <use xlink:href="#DejaVuSans-6e" x="709.082031"/>
      <use xlink:href="#DejaVuSans-20" x="772.460938"/>
      <use xlink:href="#DejaVuSans-64" x="804.248047"/>
      <use xlink:href="#DejaVuSans-61" x="867.724609"/>
      <use xlink:href="#DejaVuSans-79" x="929.003906"/>
      <use xlink:href="#DejaVuSans-73" x="988.183594"/>
     </g>
    </g>
   </g>
   <g id="matplotlib.axis_2">
    <g id="ytick_1">
     <g id="line2d_9">
      <defs>
       <path id="m8ca4d3e4c8" d="M 0 0 
L -3.5 0 
" style="stroke: #000000; stroke-width: 0.8"/>
      </defs>
      <g>
       <use xlink:href="#m8ca4d3e4c8" x="66.62" y="236.078182" style="stroke: #000000; stroke-width: 0.8"/>
      </g>
     </g>
     <g id="text_10">
      <!-- 0.0000 -->
      <g transform="translate(24.629375 239.877401)scale(0.1 -0.1)">
       <defs>
        <path id="DejaVuSans-2e" d="M 684 794 
L 1344 794 
L 1344 0 
L 684 0 
L 684 794 
z
" transform="scale(0.015625)"/>
       </defs>
       <use xlink:href="#DejaVuSans-30"/>
       <use xlink:href="#DejaVuSans-2e" x="63.623047"/>
       <use xlink:href="#DejaVuSans-30" x="95.410156"/>
       <use xlink:href="#DejaVuSans-30" x="159.033203"/>
       <use xlink:href="#DejaVuSans-30" x="222.65625"/>
       <use xlink:href="#DejaVuSans-30" x="286.279297"/>
      </g>
     </g>
    </g>
    <g id="ytick_2">
     <g id="line2d_10">
      <g>
       <use xlink:href="#m8ca4d3e4c8" x="66.62" y="193.255571" style="stroke: #000000; stroke-width: 0.8"/>
      </g>
     </g>
     <g id="text_11">
      <!-- 0.0002 -->
      <g transform="translate(24.629375 197.05479)scale(0.1 -0.1)">
       <use xlink:href="#DejaVuSans-30"/>
       <use xlink:href="#DejaVuSans-2e" x="63.623047"/>
       <use xlink:href="#DejaVuSans-30" x="95.410156"/>
       <use xlink:href="#DejaVuSans-30" x="159.033203"/>
       <use xlink:href="#DejaVuSans-30" x="222.65625"/>
       <use xlink:href="#DejaVuSans-32" x="286.279297"/>
      </g>
     </g>
    </g>
    <g id="ytick_3">
     <g id="line2d_11">
      <g>
       <use xlink:href="#m8ca4d3e4c8" x="66.62" y="150.432961" style="stroke: #000000; stroke-width: 0.8"/>
      </g>
     </g>
     <g id="text_12">
      <!-- 0.0004 -->
      <g transform="translate(24.629375 154.23218)scale(0.1 -0.1)">
       <defs>
        <path id="DejaVuSans-34" d="M 2419 4116 
L 825 1625 
L 2419 1625 
L 2419 4116 
z
M 2253 4666 
L 3047 4666 
L 3047 1625 
L 3713 1625 
L 3713 1100 
L 3047 1100 
L 3047 0 
L 2419 0 
L 2419 1100 
L 313 1100 
L 313 1709 
L 2253 4666 
z
" transform="scale(0.015625)"/>
       </defs>
       <use xlink:href="#DejaVuSans-30"/>
       <use xlink:href="#DejaVuSans-2e" x="63.623047"/>
       <use xlink:href="#DejaVuSans-30" x="95.410156"/>
       <use xlink:href="#DejaVuSans-30" x="159.033203"/>
       <use xlink:href="#DejaVuSans-30" x="222.65625"/>
       <use xlink:href="#DejaVuSans-34" x="286.279297"/>
      </g>
     </g>
    </g>
    <g id="ytick_4">
     <g id="line2d_12">
      <g>
       <use xlink:href="#m8ca4d3e4c8" x="66.62" y="107.610351" style="stroke: #000000; stroke-width: 0.8"/>
      </g>
     </g>
     <g id="text_13">
      <!-- 0.0006 -->
      <g transform="translate(24.629375 111.409569)scale(0.1 -0.1)">
       <defs>
        <path id="DejaVuSans-36" d="M 2113 2584 
Q 1688 2584 1439 2293 
Q 1191 2003 1191 1497 
Q 1191 994 1439 701 
Q 1688 409 2113 409 
Q 2538 409 2786 701 
Q 3034 994 3034 1497 
Q 3034 2003 2786 2293 
Q 2538 2584 2113 2584 
z
M 3366 4563 
L 3366 3988 
Q 3128 4100 2886 4159 
Q 2644 4219 2406 4219 
Q 1781 4219 1451 3797 
Q 1122 3375 1075 2522 
Q 1259 2794 1537 2939 
Q 1816 3084 2150 3084 
Q 2853 3084 3261 2657 
Q 3669 2231 3669 1497 
Q 3669 778 3244 343 
Q 2819 -91 2113 -91 
Q 1303 -91 875 529 
Q 447 1150 447 2328 
Q 447 3434 972 4092 
Q 1497 4750 2381 4750 
Q 2619 4750 2861 4703 
Q 3103 4656 3366 4563 
z
" transform="scale(0.015625)"/>
       </defs>
       <use xlink:href="#DejaVuSans-30"/>
       <use xlink:href="#DejaVuSans-2e" x="63.623047"/>
       <use xlink:href="#DejaVuSans-30" x="95.410156"/>
       <use xlink:href="#DejaVuSans-30" x="159.033203"/>
       <use xlink:href="#DejaVuSans-30" x="222.65625"/>
       <use xlink:href="#DejaVuSans-36" x="286.279297"/>
      </g>
     </g>
    </g>
    <g id="ytick_5">
     <g id="line2d_13">
      <g>
       <use xlink:href="#m8ca4d3e4c8" x="66.62" y="64.78774" style="stroke: #000000; stroke-width: 0.8"/>
      </g>
     </g>
     <g id="text_14">
      <!-- 0.0008 -->
      <g transform="translate(24.629375 68.586959)scale(0.1 -0.1)">
       <defs>
        <path id="DejaVuSans-38" d="M 2034 2216 
Q 1584 2216 1326 1975 
Q 1069 1734 1069 1313 
Q 1069 891 1326 650 
Q 1584 409 2034 409 
Q 2484 409 2743 651 
Q 3003 894 3003 1313 
Q 3003 1734 2745 1975 
Q 2488 2216 2034 2216 
z
M 1403 2484 
Q 997 2584 770 2862 
Q 544 3141 544 3541 
Q 544 4100 942 4425 
Q 1341 4750 2034 4750 
Q 2731 4750 3128 4425 
Q 3525 4100 3525 3541 
Q 3525 3141 3298 2862 
Q 3072 2584 2669 2484 
Q 3125 2378 3379 2068 
Q 3634 1759 3634 1313 
Q 3634 634 3220 271 
Q 2806 -91 2034 -91 
Q 1263 -91 848 271 
Q 434 634 434 1313 
Q 434 1759 690 2068 
Q 947 2378 1403 2484 
z
M 1172 3481 
Q 1172 3119 1398 2916 
Q 1625 2713 2034 2713 
Q 2441 2713 2670 2916 
Q 2900 3119 2900 3481 
Q 2900 3844 2670 4047 
Q 2441 4250 2034 4250 
Q 1625 4250 1398 4047 
Q 1172 3844 1172 3481 
z
" transform="scale(0.015625)"/>
       </defs>
       <use xlink:href="#DejaVuSans-30"/>
       <use xlink:href="#DejaVuSans-2e" x="63.623047"/>
       <use xlink:href="#DejaVuSans-30" x="95.410156"/>
       <use xlink:href="#DejaVuSans-30" x="159.033203"/>
       <use xlink:href="#DejaVuSans-30" x="222.65625"/>
       <use xlink:href="#DejaVuSans-38" x="286.279297"/>
      </g>
     </g>
    </g>
    <g id="text_15">
     <!-- Density -->
     <g transform="translate(18.549688 155.468594)rotate(-90)scale(0.1 -0.1)">
      <defs>
       <path id="DejaVuSans-44" d="M 1259 4147 
L 1259 519 
L 2022 519 
Q 2988 519 3436 956 
Q 3884 1394 3884 2338 
Q 3884 3275 3436 3711 
Q 2988 4147 2022 4147 
L 1259 4147 
z
M 628 4666 
L 1925 4666 
Q 3281 4666 3915 4102 
Q 4550 3538 4550 2338 
Q 4550 1131 3912 565 
Q 3275 0 1925 0 
L 628 0 
L 628 4666 
z
" transform="scale(0.015625)"/>
      </defs>
      <use xlink:href="#DejaVuSans-44"/>
      <use xlink:href="#DejaVuSans-65" x="77.001953"/>
      <use xlink:href="#DejaVuSans-6e" x="138.525391"/>
      <use xlink:href="#DejaVuSans-73" x="201.904297"/>
      <use xlink:href="#DejaVuSans-69" x="254.003906"/>
      <use xlink:href="#DejaVuSans-74" x="281.787109"/>
      <use xlink:href="#DejaVuSans-79" x="320.996094"/>
     </g>
    </g>
   </g>
   <g id="line2d_14">
    <path d="M 78.36 92.007966 
L 81.18042 89.322855 
L 83.765806 87.169324 
L 86.351191 85.316601 
L 88.701542 83.896286 
L 91.051892 82.728114 
L 93.402242 81.810961 
L 95.752593 81.141968 
L 98.102943 80.716625 
L 100.453293 80.528868 
L 102.803644 80.571203 
L 105.153994 80.834842 
L 107.504344 81.309853 
L 110.08973 82.063452 
L 112.675115 83.043948 
L 115.495536 84.352891 
L 118.550991 86.02751 
L 121.841481 88.097029 
L 125.367007 90.580568 
L 129.362603 93.674814 
L 134.063303 97.618192 
L 139.704144 102.666736 
L 146.99023 109.507889 
L 160.152192 122.232169 
L 190.471712 151.537227 
L 204.338779 164.691398 
L 212.80004 172.420591 
L 219.381021 178.1411 
L 225.021862 182.761741 
L 230.192633 186.713399 
L 234.893333 190.032875 
L 239.358999 192.919725 
L 243.58963 195.398118 
L 247.82026 197.616398 
L 251.815856 199.468369 
L 255.811451 201.085219 
L 259.807047 202.472942 
L 264.037678 203.704703 
L 268.268308 204.710357 
L 272.969009 205.591655 
L 278.13978 206.319471 
L 284.015656 206.912411 
L 292.241882 207.495836 
L 306.108949 208.46705 
L 312.924965 209.19339 
L 313.16 209.222972 
L 313.16 209.222972 
" clip-path="url(#p55f54af05e)" style="fill: none; stroke: #ff7f50; stroke-width: 1.5; stroke-linecap: square"/>
   </g>
   <g id="line2d_15">
    <path d="M 78.36 98.264763 
L 83.765806 86.595356 
L 88.231471 77.483306 
L 91.992032 70.297306 
L 95.517558 64.043986 
L 98.573013 59.053259 
L 101.393433 54.834161 
L 104.213854 51.014522 
L 106.799239 47.883995 
L 109.14959 45.359255 
L 111.49994 43.150472 
L 113.85029 41.265524 
L 115.965606 39.850974 
L 118.080921 38.706755 
L 120.196236 37.83476 
L 122.076517 37.288771 
L 123.956797 36.958132 
L 125.837077 36.841818 
L 127.717357 36.938107 
L 129.597638 37.2446 
L 131.477918 37.758254 
L 133.593233 38.579159 
L 135.708549 39.651529 
L 137.823864 40.968427 
L 140.174214 42.709019 
L 142.524565 44.730323 
L 145.10995 47.262941 
L 147.695335 50.102093 
L 150.515756 53.526729 
L 153.571211 57.593323 
L 156.861702 62.349815 
L 160.387227 67.832384 
L 164.382823 74.463329 
L 168.848488 82.308013 
L 174.254294 92.271085 
L 181.54038 106.211301 
L 199.403043 140.595003 
L 205.513954 151.78469 
L 210.91976 161.234376 
L 215.855495 169.422328 
L 220.556196 176.782696 
L 225.021862 183.348323 
L 229.252492 189.165194 
L 233.248088 194.287559 
L 237.243684 199.043588 
L 241.004244 203.18417 
L 244.764805 207.001653 
L 248.525365 210.501439 
L 252.285926 213.691667 
L 256.046486 216.582912 
L 259.807047 219.187864 
L 263.567608 221.520974 
L 267.328168 223.598102 
L 271.323764 225.543485 
L 275.319359 227.240083 
L 279.54999 228.789234 
L 284.015656 230.176238 
L 288.716356 231.392571 
L 293.652092 232.436041 
L 299.057898 233.345607 
L 304.933774 234.105771 
L 311.514755 234.73229 
L 313.16 234.858411 
L 313.16 234.858411 
" clip-path="url(#p55f54af05e)" style="fill: none; stroke: #000080; stroke-width: 1.5; stroke-linecap: square"/>
   </g>
   <g id="line2d_16">
    <path d="M 140.243616 246.04 
L 140.243616 26.88 
" clip-path="url(#p55f54af05e)" style="fill: none; stroke-dasharray: 5.55,2.4; stroke-dashoffset: 0; stroke: #ff7f50; stroke-opacity: 0.4; stroke-width: 1.5"/>
   </g>
   <g id="line2d_17">
    <path d="M 121.060347 246.04 
L 121.060347 26.88 
" clip-path="url(#p55f54af05e)" style="fill: none; stroke-dasharray: 5.55,2.4; stroke-dashoffset: 0; stroke: #ff7f50; stroke-width: 1.5"/>
   </g>
   <g id="line2d_18">
    <path d="M 131.008683 246.04 
L 131.008683 26.88 
" clip-path="url(#p55f54af05e)" style="fill: none; stroke-dasharray: 5.55,2.4; stroke-dashoffset: 0; stroke: #000080; stroke-width: 1.5"/>
   </g>
   <g id="patch_3">
    <path d="M 66.62 246.04 
L 66.62 26.88 
" style="fill: none; stroke: #000000; stroke-width: 0.8; stroke-linejoin: miter; stroke-linecap: square"/>
   </g>
   <g id="patch_4">
    <path d="M 324.9 246.04 
L 324.9 26.88 
" style="fill: none; stroke: #000000; stroke-width: 0.8; stroke-linejoin: miter; stroke-linecap: square"/>
   </g>
   <g id="patch_5">
    <path d="M 66.62 246.04 
L 324.9 246.04 
" style="fill: none; stroke: #000000; stroke-width: 0.8; stroke-linejoin: miter; stroke-linecap: square"/>
   </g>
   <g id="patch_6">
    <path d="M 66.62 26.88 
L 324.9 26.88 
" style="fill: none; stroke: #000000; stroke-width: 0.8; stroke-linejoin: miter; stroke-linecap: square"/>
   </g>
   <g id="text_16">
    <!-- Kernel Density Estimates of the Data -->
    <g transform="translate(84.983125 20.88)scale(0.12 -0.12)">
     <defs>
      <path id="DejaVuSans-4b" d="M 628 4666 
L 1259 4666 
L 1259 2694 
L 3353 4666 
L 4166 4666 
L 1850 2491 
L 4331 0 
L 3500 0 
L 1259 2247 
L 1259 0 
L 628 0 
L 628 4666 
z
" transform="scale(0.015625)"/>
      <path id="DejaVuSans-45" d="M 628 4666 
L 3578 4666 
L 3578 4134 
L 1259 4134 
L 1259 2753 
L 3481 2753 
L 3481 2222 
L 1259 2222 
L 1259 531 
L 3634 531 
L 3634 0 
L 628 0 
L 628 4666 
z
" transform="scale(0.015625)"/>
      <path id="DejaVuSans-6f" d="M 1959 3097 
Q 1497 3097 1228 2736 
Q 959 2375 959 1747 
Q 959 1119 1226 758 
Q 1494 397 1959 397 
Q 2419 397 2687 759 
Q 2956 1122 2956 1747 
Q 2956 2369 2687 2733 
Q 2419 3097 1959 3097 
z
M 1959 3584 
Q 2709 3584 3137 3096 
Q 3566 2609 3566 1747 
Q 3566 888 3137 398 
Q 2709 -91 1959 -91 
Q 1206 -91 779 398 
Q 353 888 353 1747 
Q 353 2609 779 3096 
Q 1206 3584 1959 3584 
z
" transform="scale(0.015625)"/>
      <path id="DejaVuSans-66" d="M 2375 4863 
L 2375 4384 
L 1825 4384 
Q 1516 4384 1395 4259 
Q 1275 4134 1275 3809 
L 1275 3500 
L 2222 3500 
L 2222 3053 
L 1275 3053 
L 1275 0 
L 697 0 
L 697 3053 
L 147 3053 
L 147 3500 
L 697 3500 
L 697 3744 
Q 697 4328 969 4595 
Q 1241 4863 1831 4863 
L 2375 4863 
z
" transform="scale(0.015625)"/>
      <path id="DejaVuSans-68" d="M 3513 2113 
L 3513 0 
L 2938 0 
L 2938 2094 
Q 2938 2591 2744 2837 
Q 2550 3084 2163 3084 
Q 1697 3084 1428 2787 
Q 1159 2491 1159 1978 
L 1159 0 
L 581 0 
L 581 4863 
L 1159 4863 
L 1159 2956 
Q 1366 3272 1645 3428 
Q 1925 3584 2291 3584 
Q 2894 3584 3203 3211 
Q 3513 2838 3513 2113 
z
" transform="scale(0.015625)"/>
     </defs>
     <use xlink:href="#DejaVuSans-4b"/>
     <use xlink:href="#DejaVuSans-65" x="60.576172"/>
     <use xlink:href="#DejaVuSans-72" x="122.099609"/>
     <use xlink:href="#DejaVuSans-6e" x="161.462891"/>
     <use xlink:href="#DejaVuSans-65" x="224.841797"/>
     <use xlink:href="#DejaVuSans-6c" x="286.365234"/>
     <use xlink:href="#DejaVuSans-20" x="314.148438"/>
     <use xlink:href="#DejaVuSans-44" x="345.935547"/>
     <use xlink:href="#DejaVuSans-65" x="422.9375"/>
     <use xlink:href="#DejaVuSans-6e" x="484.460938"/>
     <use xlink:href="#DejaVuSans-73" x="547.839844"/>
     <use xlink:href="#DejaVuSans-69" x="599.939453"/>
     <use xlink:href="#DejaVuSans-74" x="627.722656"/>
     <use xlink:href="#DejaVuSans-79" x="666.931641"/>
     <use xlink:href="#DejaVuSans-20" x="726.111328"/>
     <use xlink:href="#DejaVuSans-45" x="757.898438"/>
     <use xlink:href="#DejaVuSans-73" x="821.082031"/>
     <use xlink:href="#DejaVuSans-74" x="873.181641"/>
     <use xlink:href="#DejaVuSans-69" x="912.390625"/>
     <use xlink:href="#DejaVuSans-6d" x="940.173828"/>
     <use xlink:href="#DejaVuSans-61" x="1037.585938"/>
     <use xlink:href="#DejaVuSans-74" x="1098.865234"/>
     <use xlink:href="#DejaVuSans-65" x="1138.074219"/>
     <use xlink:href="#DejaVuSans-73" x="1199.597656"/>
     <use xlink:href="#DejaVuSans-20" x="1251.697266"/>
     <use xlink:href="#DejaVuSans-6f" x="1283.484375"/>
     <use xlink:href="#DejaVuSans-66" x="1344.666016"/>
     <use xlink:href="#DejaVuSans-20" x="1379.871094"/>
     <use xlink:href="#DejaVuSans-74" x="1411.658203"/>
     <use xlink:href="#DejaVuSans-68" x="1450.867188"/>
     <use xlink:href="#DejaVuSans-65" x="1514.246094"/>
     <use xlink:href="#DejaVuSans-20" x="1575.769531"/>
     <use xlink:href="#DejaVuSans-44" x="1607.556641"/>
     <use xlink:href="#DejaVuSans-61" x="1684.558594"/>
     <use xlink:href="#DejaVuSans-74" x="1745.837891"/>
     <use xlink:href="#DejaVuSans-61" x="1785.046875"/>
    </g>
   </g>
   <g id="legend_1">
    <g id="patch_7">
     <path d="M 211.848437 148.824687 
L 317.9 148.824687 
Q 319.9 148.824687 319.9 146.824687 
L 319.9 33.88 
Q 319.9 31.88 317.9 31.88 
L 211.848437 31.88 
Q 209.848437 31.88 209.848437 33.88 
L 209.848437 146.824687 
Q 209.848437 148.824687 211.848437 148.824687 
z
" style="fill: #ffffff; opacity: 0.8; stroke: #cccccc; stroke-linejoin: miter"/>
    </g>
    <g id="PathCollection_3">
     <g>
      <use xlink:href="#mff975edbc4" x="223.848437" y="40.853437" style="fill: #ff7f50; stroke: #ff7f50"/>
     </g>
    </g>
    <g id="text_17">
     <!-- $D^{(1)}$ -->
     <g transform="translate(241.848437 43.478437)scale(0.1 -0.1)">
      <defs>
       <path id="DejaVuSans-Oblique-44" d="M 1081 4666 
L 2438 4666 
Q 3519 4666 4070 4208 
Q 4622 3750 4622 2847 
Q 4622 2250 4412 1698 
Q 4203 1147 3834 769 
Q 3463 381 2891 190 
Q 2319 0 1538 0 
L 172 0 
L 1081 4666 
z
M 1613 4147 
L 909 519 
L 1734 519 
Q 2794 519 3375 1128 
Q 3956 1738 3956 2847 
Q 3956 3519 3581 3833 
Q 3206 4147 2406 4147 
L 1613 4147 
z
" transform="scale(0.015625)"/>
       <path id="DejaVuSans-28" d="M 1984 4856 
Q 1566 4138 1362 3434 
Q 1159 2731 1159 2009 
Q 1159 1288 1364 580 
Q 1569 -128 1984 -844 
L 1484 -844 
Q 1016 -109 783 600 
Q 550 1309 550 2009 
Q 550 2706 781 3412 
Q 1013 4119 1484 4856 
L 1984 4856 
z
" transform="scale(0.015625)"/>
       <path id="DejaVuSans-29" d="M 513 4856 
L 1013 4856 
Q 1481 4119 1714 3412 
Q 1947 2706 1947 2009 
Q 1947 1309 1714 600 
Q 1481 -109 1013 -844 
L 513 -844 
Q 928 -128 1133 580 
Q 1338 1288 1338 2009 
Q 1338 2731 1133 3434 
Q 928 4138 513 4856 
z
" transform="scale(0.015625)"/>
      </defs>
      <use xlink:href="#DejaVuSans-Oblique-44" transform="translate(0 0.60625)"/>
      <use xlink:href="#DejaVuSans-28" transform="translate(84.018724 38.8875)scale(0.7)"/>
      <use xlink:href="#DejaVuSans-31" transform="translate(111.328294 38.8875)scale(0.7)"/>
      <use xlink:href="#DejaVuSans-29" transform="translate(155.864427 38.8875)scale(0.7)"/>
     </g>
    </g>
    <g id="PathCollection_4">
     <g>
      <use xlink:href="#m55a1bfccb7" x="223.848437" y="55.531563" style="fill: #000080; stroke: #000080"/>
     </g>
    </g>
    <g id="text_18">
     <!-- $D^{(2)}$ -->
     <g transform="translate(241.848437 58.156563)scale(0.1 -0.1)">
      <use xlink:href="#DejaVuSans-Oblique-44" transform="translate(0 0.60625)"/>
      <use xlink:href="#DejaVuSans-28" transform="translate(84.018724 38.8875)scale(0.7)"/>
      <use xlink:href="#DejaVuSans-32" transform="translate(111.328294 38.8875)scale(0.7)"/>
      <use xlink:href="#DejaVuSans-29" transform="translate(155.864427 38.8875)scale(0.7)"/>
     </g>
    </g>
    <g id="line2d_19">
     <path d="M 213.848437 69.334687 
L 223.848437 69.334687 
L 233.848437 69.334687 
" style="fill: none; stroke: #ff7f50; stroke-width: 1.5; stroke-linecap: square"/>
    </g>
    <g id="text_19">
     <!-- KDE of $D^{(1)}$ -->
     <g transform="translate(241.848437 72.834687)scale(0.1 -0.1)">
      <use xlink:href="#DejaVuSans-4b" transform="translate(0 0.60625)"/>
      <use xlink:href="#DejaVuSans-44" transform="translate(65.576172 0.60625)"/>
      <use xlink:href="#DejaVuSans-45" transform="translate(142.578125 0.60625)"/>
      <use xlink:href="#DejaVuSans-20" transform="translate(205.761719 0.60625)"/>
      <use xlink:href="#DejaVuSans-6f" transform="translate(237.548828 0.60625)"/>
      <use xlink:href="#DejaVuSans-66" transform="translate(298.730469 0.60625)"/>
      <use xlink:href="#DejaVuSans-20" transform="translate(333.935547 0.60625)"/>
      <use xlink:href="#DejaVuSans-Oblique-44" transform="translate(365.722656 0.60625)"/>
      <use xlink:href="#DejaVuSans-28" transform="translate(449.74138 38.8875)scale(0.7)"/>
      <use xlink:href="#DejaVuSans-31" transform="translate(477.050951 38.8875)scale(0.7)"/>
      <use xlink:href="#DejaVuSans-29" transform="translate(521.587083 38.8875)scale(0.7)"/>
     </g>
    </g>
    <g id="line2d_20">
     <path d="M 213.848437 84.012812 
L 223.848437 84.012812 
L 233.848437 84.012812 
" style="fill: none; stroke: #000080; stroke-width: 1.5; stroke-linecap: square"/>
    </g>
    <g id="text_20">
     <!-- KDE of $D^{(2)}$ -->
     <g transform="translate(241.848437 87.512812)scale(0.1 -0.1)">
      <use xlink:href="#DejaVuSans-4b" transform="translate(0 0.60625)"/>
      <use xlink:href="#DejaVuSans-44" transform="translate(65.576172 0.60625)"/>
      <use xlink:href="#DejaVuSans-45" transform="translate(142.578125 0.60625)"/>
      <use xlink:href="#DejaVuSans-20" transform="translate(205.761719 0.60625)"/>
      <use xlink:href="#DejaVuSans-6f" transform="translate(237.548828 0.60625)"/>
      <use xlink:href="#DejaVuSans-66" transform="translate(298.730469 0.60625)"/>
      <use xlink:href="#DejaVuSans-20" transform="translate(333.935547 0.60625)"/>
      <use xlink:href="#DejaVuSans-Oblique-44" transform="translate(365.722656 0.60625)"/>
      <use xlink:href="#DejaVuSans-28" transform="translate(449.74138 38.8875)scale(0.7)"/>
      <use xlink:href="#DejaVuSans-32" transform="translate(477.050951 38.8875)scale(0.7)"/>
      <use xlink:href="#DejaVuSans-29" transform="translate(521.587083 38.8875)scale(0.7)"/>
     </g>
    </g>
    <g id="line2d_21">
     <path d="M 213.848437 98.690937 
L 223.848437 98.690937 
L 233.848437 98.690937 
" style="fill: none; stroke-dasharray: 5.55,2.4; stroke-dashoffset: 0; stroke: #ff7f50; stroke-opacity: 0.4; stroke-width: 1.5"/>
    </g>
    <g id="text_21">
     <!-- $\bar{D}^{(1)}$ -->
     <g transform="translate(241.848437 102.190937)scale(0.1 -0.1)">
      <defs>
       <path id="DejaVuSans-304" d="M -2518 4769 
L -650 4769 
L -650 4306 
L -2518 4306 
L -2518 4769 
z
" transform="scale(0.015625)"/>
      </defs>
      <use xlink:href="#DejaVuSans-304" transform="translate(72.594238 18.484375)"/>
      <use xlink:href="#DejaVuSans-Oblique-44" transform="translate(0 0.359375)"/>
      <use xlink:href="#DejaVuSans-28" transform="translate(77.958984 38.640625)scale(0.7)"/>
      <use xlink:href="#DejaVuSans-31" transform="translate(105.268555 38.640625)scale(0.7)"/>
      <use xlink:href="#DejaVuSans-29" transform="translate(149.804688 38.640625)scale(0.7)"/>
     </g>
    </g>
    <g id="line2d_22">
     <path d="M 213.848437 120.007812 
L 223.848437 120.007812 
L 233.848437 120.007812 
" style="fill: none; stroke-dasharray: 5.55,2.4; stroke-dashoffset: 0; stroke: #ff7f50; stroke-width: 1.5"/>
    </g>
    <g id="text_22">
     <!-- $\bar{D}^{(1)}$ without -->
     <g transform="translate(241.848437 116.869063)scale(0.1 -0.1)">
      <defs>
       <path id="DejaVuSans-77" d="M 269 3500 
L 844 3500 
L 1563 769 
L 2278 3500 
L 2956 3500 
L 3675 769 
L 4391 3500 
L 4966 3500 
L 4050 0 
L 3372 0 
L 2619 2869 
L 1863 0 
L 1184 0 
L 269 3500 
z
" transform="scale(0.015625)"/>
      </defs>
      <use xlink:href="#DejaVuSans-304" transform="translate(72.594238 18.484375)"/>
      <use xlink:href="#DejaVuSans-Oblique-44" transform="translate(0 0.359375)"/>
      <use xlink:href="#DejaVuSans-28" transform="translate(77.958984 38.640625)scale(0.7)"/>
      <use xlink:href="#DejaVuSans-31" transform="translate(105.268555 38.640625)scale(0.7)"/>
      <use xlink:href="#DejaVuSans-29" transform="translate(149.804688 38.640625)scale(0.7)"/>
      <use xlink:href="#DejaVuSans-20" transform="translate(179.848633 0.359375)"/>
      <use xlink:href="#DejaVuSans-77" transform="translate(211.635742 0.359375)"/>
      <use xlink:href="#DejaVuSans-69" transform="translate(293.422852 0.359375)"/>
      <use xlink:href="#DejaVuSans-74" transform="translate(321.206055 0.359375)"/>
      <use xlink:href="#DejaVuSans-68" transform="translate(360.415039 0.359375)"/>
      <use xlink:href="#DejaVuSans-6f" transform="translate(423.793945 0.359375)"/>
      <use xlink:href="#DejaVuSans-75" transform="translate(484.975586 0.359375)"/>
      <use xlink:href="#DejaVuSans-74" transform="translate(548.354492 0.359375)"/>
     </g>
     <!-- outlier at 1764 -->
     <g transform="translate(241.848437 128.066875)scale(0.1 -0.1)">
      <use xlink:href="#DejaVuSans-6f"/>
      <use xlink:href="#DejaVuSans-75" x="61.181641"/>
      <use xlink:href="#DejaVuSans-74" x="124.560547"/>
      <use xlink:href="#DejaVuSans-6c" x="163.769531"/>
      <use xlink:href="#DejaVuSans-69" x="191.552734"/>
      <use xlink:href="#DejaVuSans-65" x="219.335938"/>
      <use xlink:href="#DejaVuSans-72" x="280.859375"/>
      <use xlink:href="#DejaVuSans-20" x="321.972656"/>
      <use xlink:href="#DejaVuSans-61" x="353.759766"/>
      <use xlink:href="#DejaVuSans-74" x="415.039062"/>
      <use xlink:href="#DejaVuSans-20" x="454.248047"/>
      <use xlink:href="#DejaVuSans-31" x="486.035156"/>
      <use xlink:href="#DejaVuSans-37" x="549.658203"/>
      <use xlink:href="#DejaVuSans-36" x="613.28125"/>
      <use xlink:href="#DejaVuSans-34" x="676.904297"/>
     </g>
    </g>
    <g id="line2d_23">
     <path d="M 213.848437 139.245 
L 223.848437 139.245 
L 233.848437 139.245 
" style="fill: none; stroke-dasharray: 5.55,2.4; stroke-dashoffset: 0; stroke: #000080; stroke-width: 1.5"/>
    </g>
    <g id="text_23">
     <!-- $\bar{D}^{(2)}$ -->
     <g transform="translate(241.848437 142.745)scale(0.1 -0.1)">
      <use xlink:href="#DejaVuSans-304" transform="translate(72.594238 18.484375)"/>
      <use xlink:href="#DejaVuSans-Oblique-44" transform="translate(0 0.359375)"/>
      <use xlink:href="#DejaVuSans-28" transform="translate(77.958984 38.640625)scale(0.7)"/>
      <use xlink:href="#DejaVuSans-32" transform="translate(105.268555 38.640625)scale(0.7)"/>
      <use xlink:href="#DejaVuSans-29" transform="translate(149.804688 38.640625)scale(0.7)"/>
     </g>
    </g>
   </g>
  </g>
  <g id="axes_2">
   <g id="patch_8">
    <path d="M 378.92 246.04 
L 637.2 246.04 
L 637.2 26.88 
L 378.92 26.88 
z
" style="fill: #ffffff"/>
   </g>
   <g id="PathCollection_5">
    <g clip-path="url(#pfe7e887580)">
     <use xlink:href="#mff975edbc4" x="503.923515" y="236.078182" style="fill: #ff7f50; stroke: #ff7f50"/>
     <use xlink:href="#mff975edbc4" x="534.130782" y="236.078182" style="fill: #ff7f50; stroke: #ff7f50"/>
     <use xlink:href="#mff975edbc4" x="574.846269" y="236.078182" style="fill: #ff7f50; stroke: #ff7f50"/>
     <use xlink:href="#mff975edbc4" x="550.234097" y="236.078182" style="fill: #ff7f50; stroke: #ff7f50"/>
     <use xlink:href="#mff975edbc4" x="560.228156" y="236.078182" style="fill: #ff7f50; stroke: #ff7f50"/>
     <use xlink:href="#mff975edbc4" x="495.923509" y="236.078182" style="fill: #ff7f50; stroke: #ff7f50"/>
     <use xlink:href="#mff975edbc4" x="550.234097" y="236.078182" style="fill: #ff7f50; stroke: #ff7f50"/>
     <use xlink:href="#mff975edbc4" x="481.434842" y="236.078182" style="fill: #ff7f50; stroke: #ff7f50"/>
     <use xlink:href="#mff975edbc4" x="441.273731" y="236.078182" style="fill: #ff7f50; stroke: #ff7f50"/>
     <use xlink:href="#mff975edbc4" x="469.076165" y="236.078182" style="fill: #ff7f50; stroke: #ff7f50"/>
    </g>
   </g>
   <g id="PathCollection_6">
    <g clip-path="url(#pfe7e887580)">
     <use xlink:href="#m55a1bfccb7" x="535.593209" y="236.078182" style="fill: #000080; stroke: #000080"/>
     <use xlink:href="#m55a1bfccb7" x="525.701608" y="236.078182" style="fill: #000080; stroke: #000080"/>
     <use xlink:href="#m55a1bfccb7" x="555.212218" y="236.078182" style="fill: #000080; stroke: #000080"/>
     <use xlink:href="#m55a1bfccb7" x="524.991549" y="236.078182" style="fill: #000080; stroke: #000080"/>
     <use xlink:href="#m55a1bfccb7" x="500.913214" y="236.078182" style="fill: #000080; stroke: #000080"/>
     <use xlink:href="#m55a1bfccb7" x="535.115062" y="236.078182" style="fill: #000080; stroke: #000080"/>
     <use xlink:href="#m55a1bfccb7" x="525.500759" y="236.078182" style="fill: #000080; stroke: #000080"/>
     <use xlink:href="#m55a1bfccb7" x="530.761761" y="236.078182" style="fill: #000080; stroke: #000080"/>
     <use xlink:href="#m55a1bfccb7" x="547.30076" y="236.078182" style="fill: #000080; stroke: #000080"/>
     <use xlink:href="#m55a1bfccb7" x="555.644825" y="236.078182" style="fill: #000080; stroke: #000080"/>
     <use xlink:href="#m55a1bfccb7" x="547.25812" y="236.078182" style="fill: #000080; stroke: #000080"/>
     <use xlink:href="#m55a1bfccb7" x="501.44046" y="236.078182" style="fill: #000080; stroke: #000080"/>
    </g>
   </g>
   <g id="matplotlib.axis_3">
    <g id="xtick_9">
     <g id="line2d_24">
      <g>
       <use xlink:href="#m313bff20f0" x="385.668864" y="246.04" style="stroke: #000000; stroke-width: 0.8"/>
      </g>
     </g>
     <g id="text_24">
      <!-- 0 -->
      <g transform="translate(382.487614 260.638438)scale(0.1 -0.1)">
       <use xlink:href="#DejaVuSans-30"/>
      </g>
     </g>
    </g>
    <g id="xtick_10">
     <g id="line2d_25">
      <g>
       <use xlink:href="#m313bff20f0" x="436.282595" y="246.04" style="stroke: #000000; stroke-width: 0.8"/>
      </g>
     </g>
     <g id="text_25">
      <!-- 2 -->
      <g transform="translate(433.101345 260.638438)scale(0.1 -0.1)">
       <use xlink:href="#DejaVuSans-32"/>
      </g>
     </g>
    </g>
    <g id="xtick_11">
     <g id="line2d_26">
      <g>
       <use xlink:href="#m313bff20f0" x="486.896326" y="246.04" style="stroke: #000000; stroke-width: 0.8"/>
      </g>
     </g>
     <g id="text_26">
      <!-- 4 -->
      <g transform="translate(483.715076 260.638438)scale(0.1 -0.1)">
       <use xlink:href="#DejaVuSans-34"/>
      </g>
     </g>
    </g>
    <g id="xtick_12">
     <g id="line2d_27">
      <g>
       <use xlink:href="#m313bff20f0" x="537.510057" y="246.04" style="stroke: #000000; stroke-width: 0.8"/>
      </g>
     </g>
     <g id="text_27">
      <!-- 6 -->
      <g transform="translate(534.328807 260.638438)scale(0.1 -0.1)">
       <use xlink:href="#DejaVuSans-36"/>
      </g>
     </g>
    </g>
    <g id="xtick_13">
     <g id="line2d_28">
      <g>
       <use xlink:href="#m313bff20f0" x="588.123788" y="246.04" style="stroke: #000000; stroke-width: 0.8"/>
      </g>
     </g>
     <g id="text_28">
      <!-- 8 -->
      <g transform="translate(584.942538 260.638438)scale(0.1 -0.1)">
       <use xlink:href="#DejaVuSans-38"/>
      </g>
     </g>
    </g>
    <g id="text_29">
     <!-- logged survival time -->
     <g transform="translate(456.948281 274.316562)scale(0.1 -0.1)">
      <defs>
       <path id="DejaVuSans-67" d="M 2906 1791 
Q 2906 2416 2648 2759 
Q 2391 3103 1925 3103 
Q 1463 3103 1205 2759 
Q 947 2416 947 1791 
Q 947 1169 1205 825 
Q 1463 481 1925 481 
Q 2391 481 2648 825 
Q 2906 1169 2906 1791 
z
M 3481 434 
Q 3481 -459 3084 -895 
Q 2688 -1331 1869 -1331 
Q 1566 -1331 1297 -1286 
Q 1028 -1241 775 -1147 
L 775 -588 
Q 1028 -725 1275 -790 
Q 1522 -856 1778 -856 
Q 2344 -856 2625 -561 
Q 2906 -266 2906 331 
L 2906 616 
Q 2728 306 2450 153 
Q 2172 0 1784 0 
Q 1141 0 747 490 
Q 353 981 353 1791 
Q 353 2603 747 3093 
Q 1141 3584 1784 3584 
Q 2172 3584 2450 3431 
Q 2728 3278 2906 2969 
L 2906 3500 
L 3481 3500 
L 3481 434 
z
" transform="scale(0.015625)"/>
      </defs>
      <use xlink:href="#DejaVuSans-6c"/>
      <use xlink:href="#DejaVuSans-6f" x="27.783203"/>
      <use xlink:href="#DejaVuSans-67" x="88.964844"/>
      <use xlink:href="#DejaVuSans-67" x="152.441406"/>
      <use xlink:href="#DejaVuSans-65" x="215.917969"/>
      <use xlink:href="#DejaVuSans-64" x="277.441406"/>
      <use xlink:href="#DejaVuSans-20" x="340.917969"/>
      <use xlink:href="#DejaVuSans-73" x="372.705078"/>
      <use xlink:href="#DejaVuSans-75" x="424.804688"/>
      <use xlink:href="#DejaVuSans-72" x="488.183594"/>
      <use xlink:href="#DejaVuSans-76" x="529.296875"/>
      <use xlink:href="#DejaVuSans-69" x="588.476562"/>
      <use xlink:href="#DejaVuSans-76" x="616.259766"/>
      <use xlink:href="#DejaVuSans-61" x="675.439453"/>
      <use xlink:href="#DejaVuSans-6c" x="736.71875"/>
      <use xlink:href="#DejaVuSans-20" x="764.501953"/>
      <use xlink:href="#DejaVuSans-74" x="796.289062"/>
      <use xlink:href="#DejaVuSans-69" x="835.498047"/>
      <use xlink:href="#DejaVuSans-6d" x="863.28125"/>
      <use xlink:href="#DejaVuSans-65" x="960.693359"/>
     </g>
    </g>
   </g>
   <g id="matplotlib.axis_4">
    <g id="ytick_6">
     <g id="line2d_29">
      <g>
       <use xlink:href="#m8ca4d3e4c8" x="378.92" y="236.078182" style="stroke: #000000; stroke-width: 0.8"/>
      </g>
     </g>
     <g id="text_30">
      <!-- 0.00 -->
      <g transform="translate(349.654375 239.877401)scale(0.1 -0.1)">
       <use xlink:href="#DejaVuSans-30"/>
       <use xlink:href="#DejaVuSans-2e" x="63.623047"/>
       <use xlink:href="#DejaVuSans-30" x="95.410156"/>
       <use xlink:href="#DejaVuSans-30" x="159.033203"/>
      </g>
     </g>
    </g>
    <g id="ytick_7">
     <g id="line2d_30">
      <g>
       <use xlink:href="#m8ca4d3e4c8" x="378.92" y="194.786132" style="stroke: #000000; stroke-width: 0.8"/>
      </g>
     </g>
     <g id="text_31">
      <!-- 0.05 -->
      <g transform="translate(349.654375 198.58535)scale(0.1 -0.1)">
       <use xlink:href="#DejaVuSans-30"/>
       <use xlink:href="#DejaVuSans-2e" x="63.623047"/>
       <use xlink:href="#DejaVuSans-30" x="95.410156"/>
       <use xlink:href="#DejaVuSans-35" x="159.033203"/>
      </g>
     </g>
    </g>
    <g id="ytick_8">
     <g id="line2d_31">
      <g>
       <use xlink:href="#m8ca4d3e4c8" x="378.92" y="153.494081" style="stroke: #000000; stroke-width: 0.8"/>
      </g>
     </g>
     <g id="text_32">
      <!-- 0.10 -->
      <g transform="translate(349.654375 157.2933)scale(0.1 -0.1)">
       <use xlink:href="#DejaVuSans-30"/>
       <use xlink:href="#DejaVuSans-2e" x="63.623047"/>
       <use xlink:href="#DejaVuSans-31" x="95.410156"/>
       <use xlink:href="#DejaVuSans-30" x="159.033203"/>
      </g>
     </g>
    </g>
    <g id="ytick_9">
     <g id="line2d_32">
      <g>
       <use xlink:href="#m8ca4d3e4c8" x="378.92" y="112.202031" style="stroke: #000000; stroke-width: 0.8"/>
      </g>
     </g>
     <g id="text_33">
      <!-- 0.15 -->
      <g transform="translate(349.654375 116.00125)scale(0.1 -0.1)">
       <use xlink:href="#DejaVuSans-30"/>
       <use xlink:href="#DejaVuSans-2e" x="63.623047"/>
       <use xlink:href="#DejaVuSans-31" x="95.410156"/>
       <use xlink:href="#DejaVuSans-35" x="159.033203"/>
      </g>
     </g>
    </g>
    <g id="ytick_10">
     <g id="line2d_33">
      <g>
       <use xlink:href="#m8ca4d3e4c8" x="378.92" y="70.909981" style="stroke: #000000; stroke-width: 0.8"/>
      </g>
     </g>
     <g id="text_34">
      <!-- 0.20 -->
      <g transform="translate(349.654375 74.7092)scale(0.1 -0.1)">
       <use xlink:href="#DejaVuSans-30"/>
       <use xlink:href="#DejaVuSans-2e" x="63.623047"/>
       <use xlink:href="#DejaVuSans-32" x="95.410156"/>
       <use xlink:href="#DejaVuSans-30" x="159.033203"/>
      </g>
     </g>
    </g>
    <g id="ytick_11">
     <g id="line2d_34">
      <g>
       <use xlink:href="#m8ca4d3e4c8" x="378.92" y="29.617931" style="stroke: #000000; stroke-width: 0.8"/>
      </g>
     </g>
     <g id="text_35">
      <!-- 0.25 -->
      <g transform="translate(349.654375 33.417149)scale(0.1 -0.1)">
       <use xlink:href="#DejaVuSans-30"/>
       <use xlink:href="#DejaVuSans-2e" x="63.623047"/>
       <use xlink:href="#DejaVuSans-32" x="95.410156"/>
       <use xlink:href="#DejaVuSans-35" x="159.033203"/>
      </g>
     </g>
    </g>
    <g id="text_36">
     <!-- Density -->
     <g transform="translate(343.574687 155.468594)rotate(-90)scale(0.1 -0.1)">
      <use xlink:href="#DejaVuSans-44"/>
      <use xlink:href="#DejaVuSans-65" x="77.001953"/>
      <use xlink:href="#DejaVuSans-6e" x="138.525391"/>
      <use xlink:href="#DejaVuSans-73" x="201.904297"/>
      <use xlink:href="#DejaVuSans-69" x="254.003906"/>
      <use xlink:href="#DejaVuSans-74" x="281.787109"/>
      <use xlink:href="#DejaVuSans-79" x="320.996094"/>
     </g>
    </g>
   </g>
   <g id="line2d_35">
    <path d="M 390.66 222.437891 
L 394.420561 220.06598 
L 398.181121 217.419344 
L 401.941682 214.491499 
L 405.702242 211.28012 
L 409.697838 207.56 
L 413.693433 203.531308 
L 417.924064 198.946611 
L 422.38973 193.780267 
L 427.325465 187.728602 
L 433.201341 180.150744 
L 441.192533 169.43466 
L 454.824565 151.125667 
L 460.70044 143.637902 
L 465.636176 137.687968 
L 470.101842 132.629611 
L 474.332472 128.155457 
L 478.563103 124.010694 
L 482.558699 120.407631 
L 486.554294 117.108456 
L 490.54989 114.108949 
L 494.545485 111.401333 
L 498.541081 108.976549 
L 502.301642 106.945675 
L 506.062202 105.154691 
L 509.822763 103.604505 
L 513.583323 102.301939 
L 517.108849 101.317702 
L 520.399339 100.62107 
L 523.68983 100.157123 
L 526.745285 99.953497 
L 529.565706 99.976978 
L 532.386126 100.220354 
L 535.206547 100.700588 
L 537.791932 101.363257 
L 540.377317 102.251484 
L 542.962703 103.376635 
L 545.548088 104.748612 
L 548.133473 106.375432 
L 550.718859 108.262832 
L 553.304244 110.413929 
L 556.124665 113.061496 
L 558.945085 116.019125 
L 562.000541 119.563076 
L 565.055996 123.443732 
L 568.346486 127.972547 
L 572.107047 133.545704 
L 576.337678 140.24225 
L 581.508448 148.885745 
L 589.734675 163.157437 
L 597.725866 176.879383 
L 602.896637 185.319596 
L 607.127267 191.825361 
L 611.122863 197.568931 
L 614.883423 202.578017 
L 618.408949 206.902026 
L 621.699439 210.602746 
L 624.98993 213.977419 
L 625.46 214.433027 
L 625.46 214.433027 
" clip-path="url(#pfe7e887580)" style="fill: none; stroke: #ff7f50; stroke-width: 1.5; stroke-linecap: square"/>
   </g>
   <g id="line2d_36">
    <path d="M 390.66 235.392579 
L 397.476016 234.90307 
L 403.116857 234.281999 
L 408.052593 233.515588 
L 412.283223 232.643599 
L 416.278819 231.593595 
L 419.804344 230.448119 
L 423.094835 229.162475 
L 426.385325 227.637171 
L 429.440781 225.978507 
L 432.496236 224.059354 
L 435.316657 222.033159 
L 438.137077 219.740392 
L 440.957497 217.159811 
L 443.777918 214.270849 
L 446.598338 211.054097 
L 449.418759 207.49183 
L 452.239179 203.56857 
L 455.0596 199.271684 
L 458.115055 194.184544 
L 461.170511 188.641959 
L 464.225966 182.644187 
L 467.516456 175.684905 
L 471.041982 167.675714 
L 474.802543 158.54676 
L 478.798138 148.261247 
L 483.498839 135.536818 
L 490.07982 117.019895 
L 499.246186 91.273054 
L 503.711852 79.430807 
L 507.237377 70.693767 
L 510.292833 63.691221 
L 513.113253 57.786711 
L 515.698639 52.910598 
L 518.048989 48.968636 
L 520.164304 45.85146 
L 522.044585 43.442985 
L 523.924865 41.39089 
L 525.57011 39.897731 
L 527.215355 38.694499 
L 528.860601 37.787206 
L 530.270811 37.248674 
L 531.681021 36.933225 
L 533.091231 36.842293 
L 534.501441 36.97656 
L 535.911652 37.335949 
L 537.321862 37.919623 
L 538.732072 38.725983 
L 540.377317 39.945013 
L 542.022563 41.45891 
L 543.667808 43.26133 
L 545.548088 45.66467 
L 547.428368 48.42144 
L 549.543684 51.926029 
L 551.894034 56.291593 
L 554.479419 61.623233 
L 557.29984 68.009099 
L 560.355295 75.510319 
L 563.880821 84.786352 
L 568.111451 96.5718 
L 574.457397 114.989939 
L 583.388729 140.839029 
L 588.089429 153.753312 
L 592.085025 164.10745 
L 595.610551 172.671474 
L 598.901041 180.128269 
L 602.191532 187.035616 
L 605.246987 192.942384 
L 608.302442 198.35624 
L 611.122863 202.919481 
L 613.943283 207.074626 
L 616.763704 210.83469 
L 619.584124 214.21636 
L 622.404545 217.239244 
L 625.224965 219.925149 
L 625.46 220.134487 
L 625.46 220.134487 
" clip-path="url(#pfe7e887580)" style="fill: none; stroke: #000080; stroke-width: 1.5; stroke-linecap: square"/>
   </g>
   <g id="line2d_37">
    <path d="M 516.130516 246.04 
L 516.130516 26.88 
" clip-path="url(#pfe7e887580)" style="fill: none; stroke-dasharray: 5.55,2.4; stroke-dashoffset: 0; stroke: #ff7f50; stroke-width: 1.5"/>
   </g>
   <g id="line2d_38">
    <path d="M 532.119462 246.04 
L 532.119462 26.88 
" clip-path="url(#pfe7e887580)" style="fill: none; stroke-dasharray: 5.55,2.4; stroke-dashoffset: 0; stroke: #000080; stroke-width: 1.5"/>
   </g>
   <g id="patch_9">
    <path d="M 378.92 246.04 
L 378.92 26.88 
" style="fill: none; stroke: #000000; stroke-width: 0.8; stroke-linejoin: miter; stroke-linecap: square"/>
   </g>
   <g id="patch_10">
    <path d="M 637.2 246.04 
L 637.2 26.88 
" style="fill: none; stroke: #000000; stroke-width: 0.8; stroke-linejoin: miter; stroke-linecap: square"/>
   </g>
   <g id="patch_11">
    <path d="M 378.92 246.04 
L 637.2 246.04 
" style="fill: none; stroke: #000000; stroke-width: 0.8; stroke-linejoin: miter; stroke-linecap: square"/>
   </g>
   <g id="patch_12">
    <path d="M 378.92 26.88 
L 637.2 26.88 
" style="fill: none; stroke: #000000; stroke-width: 0.8; stroke-linejoin: miter; stroke-linecap: square"/>
   </g>
   <g id="text_37">
    <!-- Kernel Density Estimates of the Log Data -->
    <g transform="translate(384.657812 20.88)scale(0.12 -0.12)">
     <defs>
      <path id="DejaVuSans-4c" d="M 628 4666 
L 1259 4666 
L 1259 531 
L 3531 531 
L 3531 0 
L 628 0 
L 628 4666 
z
" transform="scale(0.015625)"/>
     </defs>
     <use xlink:href="#DejaVuSans-4b"/>
     <use xlink:href="#DejaVuSans-65" x="60.576172"/>
     <use xlink:href="#DejaVuSans-72" x="122.099609"/>
     <use xlink:href="#DejaVuSans-6e" x="161.462891"/>
     <use xlink:href="#DejaVuSans-65" x="224.841797"/>
     <use xlink:href="#DejaVuSans-6c" x="286.365234"/>
     <use xlink:href="#DejaVuSans-20" x="314.148438"/>
     <use xlink:href="#DejaVuSans-44" x="345.935547"/>
     <use xlink:href="#DejaVuSans-65" x="422.9375"/>
     <use xlink:href="#DejaVuSans-6e" x="484.460938"/>
     <use xlink:href="#DejaVuSans-73" x="547.839844"/>
     <use xlink:href="#DejaVuSans-69" x="599.939453"/>
     <use xlink:href="#DejaVuSans-74" x="627.722656"/>
     <use xlink:href="#DejaVuSans-79" x="666.931641"/>
     <use xlink:href="#DejaVuSans-20" x="726.111328"/>
     <use xlink:href="#DejaVuSans-45" x="757.898438"/>
     <use xlink:href="#DejaVuSans-73" x="821.082031"/>
     <use xlink:href="#DejaVuSans-74" x="873.181641"/>
     <use xlink:href="#DejaVuSans-69" x="912.390625"/>
     <use xlink:href="#DejaVuSans-6d" x="940.173828"/>
     <use xlink:href="#DejaVuSans-61" x="1037.585938"/>
     <use xlink:href="#DejaVuSans-74" x="1098.865234"/>
     <use xlink:href="#DejaVuSans-65" x="1138.074219"/>
     <use xlink:href="#DejaVuSans-73" x="1199.597656"/>
     <use xlink:href="#DejaVuSans-20" x="1251.697266"/>
     <use xlink:href="#DejaVuSans-6f" x="1283.484375"/>
     <use xlink:href="#DejaVuSans-66" x="1344.666016"/>
     <use xlink:href="#DejaVuSans-20" x="1379.871094"/>
     <use xlink:href="#DejaVuSans-74" x="1411.658203"/>
     <use xlink:href="#DejaVuSans-68" x="1450.867188"/>
     <use xlink:href="#DejaVuSans-65" x="1514.246094"/>
     <use xlink:href="#DejaVuSans-20" x="1575.769531"/>
     <use xlink:href="#DejaVuSans-4c" x="1607.556641"/>
     <use xlink:href="#DejaVuSans-6f" x="1661.519531"/>
     <use xlink:href="#DejaVuSans-67" x="1722.701172"/>
     <use xlink:href="#DejaVuSans-20" x="1786.177734"/>
     <use xlink:href="#DejaVuSans-44" x="1817.964844"/>
     <use xlink:href="#DejaVuSans-61" x="1894.966797"/>
     <use xlink:href="#DejaVuSans-74" x="1956.246094"/>
     <use xlink:href="#DejaVuSans-61" x="1995.455078"/>
    </g>
   </g>
   <g id="legend_2">
    <g id="patch_13">
     <path d="M 385.92 126.1925 
L 489.62 126.1925 
Q 491.62 126.1925 491.62 124.1925 
L 491.62 33.88 
Q 491.62 31.88 489.62 31.88 
L 385.92 31.88 
Q 383.92 31.88 383.92 33.88 
L 383.92 124.1925 
Q 383.92 126.1925 385.92 126.1925 
z
" style="fill: #ffffff; opacity: 0.8; stroke: #cccccc; stroke-linejoin: miter"/>
    </g>
    <g id="PathCollection_7">
     <g>
      <use xlink:href="#mff975edbc4" x="397.92" y="42.455" style="fill: #ff7f50; stroke: #ff7f50"/>
     </g>
    </g>
    <g id="text_38">
     <!-- $X^{(1)} = \log(D^{(1)})$ -->
     <g transform="translate(415.92 45.08)scale(0.1 -0.1)">
      <defs>
       <path id="DejaVuSans-Oblique-58" d="M 878 4666 
L 1516 4666 
L 2316 2981 
L 3763 4666 
L 4500 4666 
L 2578 2438 
L 3738 0 
L 3103 0 
L 2163 1966 
L 459 0 
L -275 0 
L 1906 2509 
L 878 4666 
z
" transform="scale(0.015625)"/>
       <path id="DejaVuSans-3d" d="M 678 2906 
L 4684 2906 
L 4684 2381 
L 678 2381 
L 678 2906 
z
M 678 1631 
L 4684 1631 
L 4684 1100 
L 678 1100 
L 678 1631 
z
" transform="scale(0.015625)"/>
      </defs>
      <use xlink:href="#DejaVuSans-Oblique-58" transform="translate(0 0.60625)"/>
      <use xlink:href="#DejaVuSans-28" transform="translate(75.52263 38.8875)scale(0.7)"/>
      <use xlink:href="#DejaVuSans-31" transform="translate(102.832201 38.8875)scale(0.7)"/>
      <use xlink:href="#DejaVuSans-29" transform="translate(147.368333 38.8875)scale(0.7)"/>
      <use xlink:href="#DejaVuSans-3d" transform="translate(196.894701 0.60625)"/>
      <use xlink:href="#DejaVuSans-6c" transform="translate(300.166185 0.60625)"/>
      <use xlink:href="#DejaVuSans-6f" transform="translate(327.949388 0.60625)"/>
      <use xlink:href="#DejaVuSans-67" transform="translate(389.131029 0.60625)"/>
      <use xlink:href="#DejaVuSans-28" transform="translate(452.607591 0.60625)"/>
      <use xlink:href="#DejaVuSans-Oblique-44" transform="translate(491.621263 0.60625)"/>
      <use xlink:href="#DejaVuSans-28" transform="translate(575.639987 38.8875)scale(0.7)"/>
      <use xlink:href="#DejaVuSans-31" transform="translate(602.949557 38.8875)scale(0.7)"/>
      <use xlink:href="#DejaVuSans-29" transform="translate(647.48569 38.8875)scale(0.7)"/>
      <use xlink:href="#DejaVuSans-29" transform="translate(677.529635 0.60625)"/>
     </g>
    </g>
    <g id="PathCollection_8">
     <g>
      <use xlink:href="#m55a1bfccb7" x="397.92" y="58.755" style="fill: #000080; stroke: #000080"/>
     </g>
    </g>
    <g id="text_39">
     <!-- $X^{(2)} = \log(D^{(2)})$ -->
     <g transform="translate(415.92 61.38)scale(0.1 -0.1)">
      <use xlink:href="#DejaVuSans-Oblique-58" transform="translate(0 0.60625)"/>
      <use xlink:href="#DejaVuSans-28" transform="translate(75.52263 38.8875)scale(0.7)"/>
      <use xlink:href="#DejaVuSans-32" transform="translate(102.832201 38.8875)scale(0.7)"/>
      <use xlink:href="#DejaVuSans-29" transform="translate(147.368333 38.8875)scale(0.7)"/>
      <use xlink:href="#DejaVuSans-3d" transform="translate(196.894701 0.60625)"/>
      <use xlink:href="#DejaVuSans-6c" transform="translate(300.166185 0.60625)"/>
      <use xlink:href="#DejaVuSans-6f" transform="translate(327.949388 0.60625)"/>
      <use xlink:href="#DejaVuSans-67" transform="translate(389.131029 0.60625)"/>
      <use xlink:href="#DejaVuSans-28" transform="translate(452.607591 0.60625)"/>
      <use xlink:href="#DejaVuSans-Oblique-44" transform="translate(491.621263 0.60625)"/>
      <use xlink:href="#DejaVuSans-28" transform="translate(575.639987 38.8875)scale(0.7)"/>
      <use xlink:href="#DejaVuSans-32" transform="translate(602.949557 38.8875)scale(0.7)"/>
      <use xlink:href="#DejaVuSans-29" transform="translate(647.48569 38.8875)scale(0.7)"/>
      <use xlink:href="#DejaVuSans-29" transform="translate(677.529635 0.60625)"/>
     </g>
    </g>
    <g id="line2d_39">
     <path d="M 387.92 72.578437 
L 397.92 72.578437 
L 407.92 72.578437 
" style="fill: none; stroke: #ff7f50; stroke-width: 1.5; stroke-linecap: square"/>
    </g>
    <g id="text_40">
     <!-- KDE of $X^{(1)}$ -->
     <g transform="translate(415.92 76.078437)scale(0.1 -0.1)">
      <use xlink:href="#DejaVuSans-4b" transform="translate(0 0.60625)"/>
      <use xlink:href="#DejaVuSans-44" transform="translate(65.576172 0.60625)"/>
      <use xlink:href="#DejaVuSans-45" transform="translate(142.578125 0.60625)"/>
      <use xlink:href="#DejaVuSans-20" transform="translate(205.761719 0.60625)"/>
      <use xlink:href="#DejaVuSans-6f" transform="translate(237.548828 0.60625)"/>
      <use xlink:href="#DejaVuSans-66" transform="translate(298.730469 0.60625)"/>
      <use xlink:href="#DejaVuSans-20" transform="translate(333.935547 0.60625)"/>
      <use xlink:href="#DejaVuSans-Oblique-58" transform="translate(365.722656 0.60625)"/>
      <use xlink:href="#DejaVuSans-28" transform="translate(441.245286 38.8875)scale(0.7)"/>
      <use xlink:href="#DejaVuSans-31" transform="translate(468.554857 38.8875)scale(0.7)"/>
      <use xlink:href="#DejaVuSans-29" transform="translate(513.09099 38.8875)scale(0.7)"/>
     </g>
    </g>
    <g id="line2d_40">
     <path d="M 387.92 87.256562 
L 397.92 87.256562 
L 407.92 87.256562 
" style="fill: none; stroke: #000080; stroke-width: 1.5; stroke-linecap: square"/>
    </g>
    <g id="text_41">
     <!-- KDE of $X^{(2)}$ -->
     <g transform="translate(415.92 90.756562)scale(0.1 -0.1)">
      <use xlink:href="#DejaVuSans-4b" transform="translate(0 0.60625)"/>
      <use xlink:href="#DejaVuSans-44" transform="translate(65.576172 0.60625)"/>
      <use xlink:href="#DejaVuSans-45" transform="translate(142.578125 0.60625)"/>
      <use xlink:href="#DejaVuSans-20" transform="translate(205.761719 0.60625)"/>
      <use xlink:href="#DejaVuSans-6f" transform="translate(237.548828 0.60625)"/>
      <use xlink:href="#DejaVuSans-66" transform="translate(298.730469 0.60625)"/>
      <use xlink:href="#DejaVuSans-20" transform="translate(333.935547 0.60625)"/>
      <use xlink:href="#DejaVuSans-Oblique-58" transform="translate(365.722656 0.60625)"/>
      <use xlink:href="#DejaVuSans-28" transform="translate(441.245286 38.8875)scale(0.7)"/>
      <use xlink:href="#DejaVuSans-32" transform="translate(468.554857 38.8875)scale(0.7)"/>
      <use xlink:href="#DejaVuSans-29" transform="translate(513.09099 38.8875)scale(0.7)"/>
     </g>
    </g>
    <g id="line2d_41">
     <path d="M 387.92 101.934687 
L 397.92 101.934687 
L 407.92 101.934687 
" style="fill: none; stroke-dasharray: 5.55,2.4; stroke-dashoffset: 0; stroke: #ff7f50; stroke-width: 1.5"/>
    </g>
    <g id="text_42">
     <!-- $\bar{X}^{(1)}$ -->
     <g transform="translate(415.92 105.434687)scale(0.1 -0.1)">
      <use xlink:href="#DejaVuSans-304" transform="translate(67.470215 18.484375)"/>
      <use xlink:href="#DejaVuSans-Oblique-58" transform="translate(0 0.359375)"/>
      <use xlink:href="#DejaVuSans-28" transform="translate(69.462891 38.640625)scale(0.7)"/>
      <use xlink:href="#DejaVuSans-31" transform="translate(96.772461 38.640625)scale(0.7)"/>
      <use xlink:href="#DejaVuSans-29" transform="translate(141.308594 38.640625)scale(0.7)"/>
     </g>
    </g>
    <g id="line2d_42">
     <path d="M 387.92 116.612812 
L 397.92 116.612812 
L 407.92 116.612812 
" style="fill: none; stroke-dasharray: 5.55,2.4; stroke-dashoffset: 0; stroke: #000080; stroke-width: 1.5"/>
    </g>
    <g id="text_43">
     <!-- $\bar{X}^{(2)}$ -->
     <g transform="translate(415.92 120.112812)scale(0.1 -0.1)">
      <use xlink:href="#DejaVuSans-304" transform="translate(67.470215 18.484375)"/>
      <use xlink:href="#DejaVuSans-Oblique-58" transform="translate(0 0.359375)"/>
      <use xlink:href="#DejaVuSans-28" transform="translate(69.462891 38.640625)scale(0.7)"/>
      <use xlink:href="#DejaVuSans-32" transform="translate(96.772461 38.640625)scale(0.7)"/>
      <use xlink:href="#DejaVuSans-29" transform="translate(141.308594 38.640625)scale(0.7)"/>
     </g>
    </g>
   </g>
  </g>
 </g>
 <defs>
  <clipPath id="p55f54af05e">
   <rect x="66.62" y="26.88" width="258.28" height="219.16"/>
  </clipPath>
  <clipPath id="pfe7e887580">
   <rect x="378.92" y="26.88" width="258.28" height="219.16"/>
  </clipPath>
 </defs>
</svg>
