<?xml version="1.0" encoding="utf-8" standalone="no"?>
<!DOCTYPE svg PUBLIC "-//W3C//DTD SVG 1.1//EN"
  "http://www.w3.org/Graphics/SVG/1.1/DTD/svg11.dtd">
<svg xmlns:xlink="http://www.w3.org/1999/xlink" width="432pt" height="288pt" viewBox="0 0 432 288" xmlns="http://www.w3.org/2000/svg" version="1.1">
 <metadata>
  <rdf:RDF xmlns:dc="http://purl.org/dc/elements/1.1/" xmlns:cc="http://creativecommons.org/ns#" xmlns:rdf="http://www.w3.org/1999/02/22-rdf-syntax-ns#">
   <cc:Work>
    <dc:type rdf:resource="http://purl.org/dc/dcmitype/StillImage"/>
    <dc:date>2023-11-26T21:24:57.657724</dc:date>
    <dc:format>image/svg+xml</dc:format>
    <dc:creator>
     <cc:Agent>
      <dc:title>Matplotlib v3.5.1, https://matplotlib.org/</dc:title>
     </cc:Agent>
    </dc:creator>
   </cc:Work>
  </rdf:RDF>
 </metadata>
 <defs>
  <style type="text/css">*{stroke-linejoin: round; stroke-linecap: butt}</style>
 </defs>
 <g id="figure_1">
  <g id="patch_1">
   <path d="M 0 288 
L 432 288 
L 432 0 
L 0 0 
z
" style="fill: #ffffff"/>
  </g>
  <g id="axes_1">
   <g id="patch_2">
    <path d="M 47.72 246.04 
L 421.2 246.04 
L 421.2 10.8 
L 47.72 10.8 
z
" style="fill: #ffffff"/>
   </g>
   <g id="PathCollection_1">
    <defs>
     <path id="mac30d76787" d="M 0 3 
C 0.795609 3 1.55874 2.683901 2.12132 2.12132 
C 2.683901 1.55874 3 0.795609 3 0 
C 3 -0.795609 2.683901 -1.55874 2.12132 -2.12132 
C 1.55874 -2.683901 0.795609 -3 0 -3 
C -0.795609 -3 -1.55874 -2.683901 -2.12132 -2.12132 
C -2.683901 -1.55874 -3 -0.795609 -3 0 
C -3 0.795609 -2.683901 1.55874 -2.12132 2.12132 
C -1.55874 2.683901 -0.795609 3 0 3 
z
" style="stroke: #000000"/>
    </defs>
    <g clip-path="url(#p6fcbd6da12)">
     <use xlink:href="#mac30d76787" x="279.730303" y="235.347273" style="stroke: #000000"/>
     <use xlink:href="#mac30d76787" x="291.047879" y="235.347273" style="stroke: #000000"/>
     <use xlink:href="#mac30d76787" x="251.436364" y="235.347273" style="stroke: #000000"/>
     <use xlink:href="#mac30d76787" x="194.848485" y="235.347273" style="stroke: #000000"/>
     <use xlink:href="#mac30d76787" x="200.507273" y="235.347273" style="stroke: #000000"/>
     <use xlink:href="#mac30d76787" x="302.365455" y="235.347273" style="stroke: #000000"/>
     <use xlink:href="#mac30d76787" x="285.389091" y="235.347273" style="stroke: #000000"/>
     <use xlink:href="#mac30d76787" x="183.530909" y="235.347273" style="stroke: #000000"/>
     <use xlink:href="#mac30d76787" x="245.777576" y="235.347273" style="stroke: #000000"/>
     <use xlink:href="#mac30d76787" x="319.341818" y="235.347273" style="stroke: #000000"/>
     <use xlink:href="#mac30d76787" x="223.142424" y="235.347273" style="stroke: #000000"/>
     <use xlink:href="#mac30d76787" x="319.341818" y="235.347273" style="stroke: #000000"/>
     <use xlink:href="#mac30d76787" x="262.753939" y="235.347273" style="stroke: #000000"/>
     <use xlink:href="#mac30d76787" x="234.46" y="235.347273" style="stroke: #000000"/>
     <use xlink:href="#mac30d76787" x="279.730303" y="235.347273" style="stroke: #000000"/>
    </g>
   </g>
   <g id="matplotlib.axis_1">
    <g id="xtick_1">
     <g id="line2d_1">
      <defs>
       <path id="m6fcc66f79b" d="M 0 0 
L 0 3.5 
" style="stroke: #000000; stroke-width: 0.8"/>
      </defs>
      <g>
       <use xlink:href="#m6fcc66f79b" x="64.696364" y="246.04" style="stroke: #000000; stroke-width: 0.8"/>
      </g>
     </g>
     <g id="text_1">
      <!-- −1 -->
      <g transform="translate(57.32527 260.638438)scale(0.1 -0.1)">
       <defs>
        <path id="DejaVuSans-2212" d="M 678 2272 
L 4684 2272 
L 4684 1741 
L 678 1741 
L 678 2272 
z
" transform="scale(0.015625)"/>
        <path id="DejaVuSans-31" d="M 794 531 
L 1825 531 
L 1825 4091 
L 703 3866 
L 703 4441 
L 1819 4666 
L 2450 4666 
L 2450 531 
L 3481 531 
L 3481 0 
L 794 0 
L 794 531 
z
" transform="scale(0.015625)"/>
       </defs>
       <use xlink:href="#DejaVuSans-2212"/>
       <use xlink:href="#DejaVuSans-31" x="83.789062"/>
      </g>
     </g>
    </g>
    <g id="xtick_2">
     <g id="line2d_2">
      <g>
       <use xlink:href="#m6fcc66f79b" x="121.284242" y="246.04" style="stroke: #000000; stroke-width: 0.8"/>
      </g>
     </g>
     <g id="text_2">
      <!-- 0 -->
      <g transform="translate(118.102992 260.638438)scale(0.1 -0.1)">
       <defs>
        <path id="DejaVuSans-30" d="M 2034 4250 
Q 1547 4250 1301 3770 
Q 1056 3291 1056 2328 
Q 1056 1369 1301 889 
Q 1547 409 2034 409 
Q 2525 409 2770 889 
Q 3016 1369 3016 2328 
Q 3016 3291 2770 3770 
Q 2525 4250 2034 4250 
z
M 2034 4750 
Q 2819 4750 3233 4129 
Q 3647 3509 3647 2328 
Q 3647 1150 3233 529 
Q 2819 -91 2034 -91 
Q 1250 -91 836 529 
Q 422 1150 422 2328 
Q 422 3509 836 4129 
Q 1250 4750 2034 4750 
z
" transform="scale(0.015625)"/>
       </defs>
       <use xlink:href="#DejaVuSans-30"/>
      </g>
     </g>
    </g>
    <g id="xtick_3">
     <g id="line2d_3">
      <g>
       <use xlink:href="#m6fcc66f79b" x="177.872121" y="246.04" style="stroke: #000000; stroke-width: 0.8"/>
      </g>
     </g>
     <g id="text_3">
      <!-- 1 -->
      <g transform="translate(174.690871 260.638438)scale(0.1 -0.1)">
       <use xlink:href="#DejaVuSans-31"/>
      </g>
     </g>
    </g>
    <g id="xtick_4">
     <g id="line2d_4">
      <g>
       <use xlink:href="#m6fcc66f79b" x="234.46" y="246.04" style="stroke: #000000; stroke-width: 0.8"/>
      </g>
     </g>
     <g id="text_4">
      <!-- 2 -->
      <g transform="translate(231.27875 260.638438)scale(0.1 -0.1)">
       <defs>
        <path id="DejaVuSans-32" d="M 1228 531 
L 3431 531 
L 3431 0 
L 469 0 
L 469 531 
Q 828 903 1448 1529 
Q 2069 2156 2228 2338 
Q 2531 2678 2651 2914 
Q 2772 3150 2772 3378 
Q 2772 3750 2511 3984 
Q 2250 4219 1831 4219 
Q 1534 4219 1204 4116 
Q 875 4013 500 3803 
L 500 4441 
Q 881 4594 1212 4672 
Q 1544 4750 1819 4750 
Q 2544 4750 2975 4387 
Q 3406 4025 3406 3419 
Q 3406 3131 3298 2873 
Q 3191 2616 2906 2266 
Q 2828 2175 2409 1742 
Q 1991 1309 1228 531 
z
" transform="scale(0.015625)"/>
       </defs>
       <use xlink:href="#DejaVuSans-32"/>
      </g>
     </g>
    </g>
    <g id="xtick_5">
     <g id="line2d_5">
      <g>
       <use xlink:href="#m6fcc66f79b" x="291.047879" y="246.04" style="stroke: #000000; stroke-width: 0.8"/>
      </g>
     </g>
     <g id="text_5">
      <!-- 3 -->
      <g transform="translate(287.866629 260.638438)scale(0.1 -0.1)">
       <defs>
        <path id="DejaVuSans-33" d="M 2597 2516 
Q 3050 2419 3304 2112 
Q 3559 1806 3559 1356 
Q 3559 666 3084 287 
Q 2609 -91 1734 -91 
Q 1441 -91 1130 -33 
Q 819 25 488 141 
L 488 750 
Q 750 597 1062 519 
Q 1375 441 1716 441 
Q 2309 441 2620 675 
Q 2931 909 2931 1356 
Q 2931 1769 2642 2001 
Q 2353 2234 1838 2234 
L 1294 2234 
L 1294 2753 
L 1863 2753 
Q 2328 2753 2575 2939 
Q 2822 3125 2822 3475 
Q 2822 3834 2567 4026 
Q 2313 4219 1838 4219 
Q 1578 4219 1281 4162 
Q 984 4106 628 3988 
L 628 4550 
Q 988 4650 1302 4700 
Q 1616 4750 1894 4750 
Q 2613 4750 3031 4423 
Q 3450 4097 3450 3541 
Q 3450 3153 3228 2886 
Q 3006 2619 2597 2516 
z
" transform="scale(0.015625)"/>
       </defs>
       <use xlink:href="#DejaVuSans-33"/>
      </g>
     </g>
    </g>
    <g id="xtick_6">
     <g id="line2d_6">
      <g>
       <use xlink:href="#m6fcc66f79b" x="347.635758" y="246.04" style="stroke: #000000; stroke-width: 0.8"/>
      </g>
     </g>
     <g id="text_6">
      <!-- 4 -->
      <g transform="translate(344.454508 260.638438)scale(0.1 -0.1)">
       <defs>
        <path id="DejaVuSans-34" d="M 2419 4116 
L 825 1625 
L 2419 1625 
L 2419 4116 
z
M 2253 4666 
L 3047 4666 
L 3047 1625 
L 3713 1625 
L 3713 1100 
L 3047 1100 
L 3047 0 
L 2419 0 
L 2419 1100 
L 313 1100 
L 313 1709 
L 2253 4666 
z
" transform="scale(0.015625)"/>
       </defs>
       <use xlink:href="#DejaVuSans-34"/>
      </g>
     </g>
    </g>
    <g id="xtick_7">
     <g id="line2d_7">
      <g>
       <use xlink:href="#m6fcc66f79b" x="404.223636" y="246.04" style="stroke: #000000; stroke-width: 0.8"/>
      </g>
     </g>
     <g id="text_7">
      <!-- 5 -->
      <g transform="translate(401.042386 260.638438)scale(0.1 -0.1)">
       <defs>
        <path id="DejaVuSans-35" d="M 691 4666 
L 3169 4666 
L 3169 4134 
L 1269 4134 
L 1269 2991 
Q 1406 3038 1543 3061 
Q 1681 3084 1819 3084 
Q 2600 3084 3056 2656 
Q 3513 2228 3513 1497 
Q 3513 744 3044 326 
Q 2575 -91 1722 -91 
Q 1428 -91 1123 -41 
Q 819 9 494 109 
L 494 744 
Q 775 591 1075 516 
Q 1375 441 1709 441 
Q 2250 441 2565 725 
Q 2881 1009 2881 1497 
Q 2881 1984 2565 2268 
Q 2250 2553 1709 2553 
Q 1456 2553 1204 2497 
Q 953 2441 691 2322 
L 691 4666 
z
" transform="scale(0.015625)"/>
       </defs>
       <use xlink:href="#DejaVuSans-35"/>
      </g>
     </g>
    </g>
    <g id="text_8">
     <!-- x -->
     <g transform="translate(231.500625 274.316562)scale(0.1 -0.1)">
      <defs>
       <path id="DejaVuSans-78" d="M 3513 3500 
L 2247 1797 
L 3578 0 
L 2900 0 
L 1881 1375 
L 863 0 
L 184 0 
L 1544 1831 
L 300 3500 
L 978 3500 
L 1906 2253 
L 2834 3500 
L 3513 3500 
z
" transform="scale(0.015625)"/>
      </defs>
      <use xlink:href="#DejaVuSans-78"/>
     </g>
    </g>
   </g>
   <g id="matplotlib.axis_2">
    <g id="ytick_1">
     <g id="line2d_8">
      <defs>
       <path id="mbe5576b79d" d="M 0 0 
L -3.5 0 
" style="stroke: #000000; stroke-width: 0.8"/>
      </defs>
      <g>
       <use xlink:href="#mbe5576b79d" x="47.72" y="235.347273" style="stroke: #000000; stroke-width: 0.8"/>
      </g>
     </g>
     <g id="text_9">
      <!-- 0.0 -->
      <g transform="translate(24.816875 239.146491)scale(0.1 -0.1)">
       <defs>
        <path id="DejaVuSans-2e" d="M 684 794 
L 1344 794 
L 1344 0 
L 684 0 
L 684 794 
z
" transform="scale(0.015625)"/>
       </defs>
       <use xlink:href="#DejaVuSans-30"/>
       <use xlink:href="#DejaVuSans-2e" x="63.623047"/>
       <use xlink:href="#DejaVuSans-30" x="95.410156"/>
      </g>
     </g>
    </g>
    <g id="ytick_2">
     <g id="line2d_9">
      <g>
       <use xlink:href="#mbe5576b79d" x="47.72" y="193.647698" style="stroke: #000000; stroke-width: 0.8"/>
      </g>
     </g>
     <g id="text_10">
      <!-- 0.1 -->
      <g transform="translate(24.816875 197.446916)scale(0.1 -0.1)">
       <use xlink:href="#DejaVuSans-30"/>
       <use xlink:href="#DejaVuSans-2e" x="63.623047"/>
       <use xlink:href="#DejaVuSans-31" x="95.410156"/>
      </g>
     </g>
    </g>
    <g id="ytick_3">
     <g id="line2d_10">
      <g>
       <use xlink:href="#mbe5576b79d" x="47.72" y="151.948123" style="stroke: #000000; stroke-width: 0.8"/>
      </g>
     </g>
     <g id="text_11">
      <!-- 0.2 -->
      <g transform="translate(24.816875 155.747341)scale(0.1 -0.1)">
       <use xlink:href="#DejaVuSans-30"/>
       <use xlink:href="#DejaVuSans-2e" x="63.623047"/>
       <use xlink:href="#DejaVuSans-32" x="95.410156"/>
      </g>
     </g>
    </g>
    <g id="ytick_4">
     <g id="line2d_11">
      <g>
       <use xlink:href="#mbe5576b79d" x="47.72" y="110.248547" style="stroke: #000000; stroke-width: 0.8"/>
      </g>
     </g>
     <g id="text_12">
      <!-- 0.3 -->
      <g transform="translate(24.816875 114.047766)scale(0.1 -0.1)">
       <use xlink:href="#DejaVuSans-30"/>
       <use xlink:href="#DejaVuSans-2e" x="63.623047"/>
       <use xlink:href="#DejaVuSans-33" x="95.410156"/>
      </g>
     </g>
    </g>
    <g id="ytick_5">
     <g id="line2d_12">
      <g>
       <use xlink:href="#mbe5576b79d" x="47.72" y="68.548972" style="stroke: #000000; stroke-width: 0.8"/>
      </g>
     </g>
     <g id="text_13">
      <!-- 0.4 -->
      <g transform="translate(24.816875 72.348191)scale(0.1 -0.1)">
       <use xlink:href="#DejaVuSans-30"/>
       <use xlink:href="#DejaVuSans-2e" x="63.623047"/>
       <use xlink:href="#DejaVuSans-34" x="95.410156"/>
      </g>
     </g>
    </g>
    <g id="ytick_6">
     <g id="line2d_13">
      <g>
       <use xlink:href="#mbe5576b79d" x="47.72" y="26.849397" style="stroke: #000000; stroke-width: 0.8"/>
      </g>
     </g>
     <g id="text_14">
      <!-- 0.5 -->
      <g transform="translate(24.816875 30.648616)scale(0.1 -0.1)">
       <use xlink:href="#DejaVuSans-30"/>
       <use xlink:href="#DejaVuSans-2e" x="63.623047"/>
       <use xlink:href="#DejaVuSans-35" x="95.410156"/>
      </g>
     </g>
    </g>
    <g id="text_15">
     <!-- Density -->
     <g transform="translate(18.737188 147.428594)rotate(-90)scale(0.1 -0.1)">
      <defs>
       <path id="DejaVuSans-44" d="M 1259 4147 
L 1259 519 
L 2022 519 
Q 2988 519 3436 956 
Q 3884 1394 3884 2338 
Q 3884 3275 3436 3711 
Q 2988 4147 2022 4147 
L 1259 4147 
z
M 628 4666 
L 1925 4666 
Q 3281 4666 3915 4102 
Q 4550 3538 4550 2338 
Q 4550 1131 3912 565 
Q 3275 0 1925 0 
L 628 0 
L 628 4666 
z
" transform="scale(0.015625)"/>
       <path id="DejaVuSans-65" d="M 3597 1894 
L 3597 1613 
L 953 1613 
Q 991 1019 1311 708 
Q 1631 397 2203 397 
Q 2534 397 2845 478 
Q 3156 559 3463 722 
L 3463 178 
Q 3153 47 2828 -22 
Q 2503 -91 2169 -91 
Q 1331 -91 842 396 
Q 353 884 353 1716 
Q 353 2575 817 3079 
Q 1281 3584 2069 3584 
Q 2775 3584 3186 3129 
Q 3597 2675 3597 1894 
z
M 3022 2063 
Q 3016 2534 2758 2815 
Q 2500 3097 2075 3097 
Q 1594 3097 1305 2825 
Q 1016 2553 972 2059 
L 3022 2063 
z
" transform="scale(0.015625)"/>
       <path id="DejaVuSans-6e" d="M 3513 2113 
L 3513 0 
L 2938 0 
L 2938 2094 
Q 2938 2591 2744 2837 
Q 2550 3084 2163 3084 
Q 1697 3084 1428 2787 
Q 1159 2491 1159 1978 
L 1159 0 
L 581 0 
L 581 3500 
L 1159 3500 
L 1159 2956 
Q 1366 3272 1645 3428 
Q 1925 3584 2291 3584 
Q 2894 3584 3203 3211 
Q 3513 2838 3513 2113 
z
" transform="scale(0.015625)"/>
       <path id="DejaVuSans-73" d="M 2834 3397 
L 2834 2853 
Q 2591 2978 2328 3040 
Q 2066 3103 1784 3103 
Q 1356 3103 1142 2972 
Q 928 2841 928 2578 
Q 928 2378 1081 2264 
Q 1234 2150 1697 2047 
L 1894 2003 
Q 2506 1872 2764 1633 
Q 3022 1394 3022 966 
Q 3022 478 2636 193 
Q 2250 -91 1575 -91 
Q 1294 -91 989 -36 
Q 684 19 347 128 
L 347 722 
Q 666 556 975 473 
Q 1284 391 1588 391 
Q 1994 391 2212 530 
Q 2431 669 2431 922 
Q 2431 1156 2273 1281 
Q 2116 1406 1581 1522 
L 1381 1569 
Q 847 1681 609 1914 
Q 372 2147 372 2553 
Q 372 3047 722 3315 
Q 1072 3584 1716 3584 
Q 2034 3584 2315 3537 
Q 2597 3491 2834 3397 
z
" transform="scale(0.015625)"/>
       <path id="DejaVuSans-69" d="M 603 3500 
L 1178 3500 
L 1178 0 
L 603 0 
L 603 3500 
z
M 603 4863 
L 1178 4863 
L 1178 4134 
L 603 4134 
L 603 4863 
z
" transform="scale(0.015625)"/>
       <path id="DejaVuSans-74" d="M 1172 4494 
L 1172 3500 
L 2356 3500 
L 2356 3053 
L 1172 3053 
L 1172 1153 
Q 1172 725 1289 603 
Q 1406 481 1766 481 
L 2356 481 
L 2356 0 
L 1766 0 
Q 1100 0 847 248 
Q 594 497 594 1153 
L 594 3053 
L 172 3053 
L 172 3500 
L 594 3500 
L 594 4494 
L 1172 4494 
z
" transform="scale(0.015625)"/>
       <path id="DejaVuSans-79" d="M 2059 -325 
Q 1816 -950 1584 -1140 
Q 1353 -1331 966 -1331 
L 506 -1331 
L 506 -850 
L 844 -850 
Q 1081 -850 1212 -737 
Q 1344 -625 1503 -206 
L 1606 56 
L 191 3500 
L 800 3500 
L 1894 763 
L 2988 3500 
L 3597 3500 
L 2059 -325 
z
" transform="scale(0.015625)"/>
      </defs>
      <use xlink:href="#DejaVuSans-44"/>
      <use xlink:href="#DejaVuSans-65" x="77.001953"/>
      <use xlink:href="#DejaVuSans-6e" x="138.525391"/>
      <use xlink:href="#DejaVuSans-73" x="201.904297"/>
      <use xlink:href="#DejaVuSans-69" x="254.003906"/>
      <use xlink:href="#DejaVuSans-74" x="281.787109"/>
      <use xlink:href="#DejaVuSans-79" x="320.996094"/>
     </g>
    </g>
   </g>
   <g id="line2d_14">
    <path d="M 121.284242 228.606538 
L 124.142216 227.346581 
L 127.00019 225.910806 
L 129.858163 224.28679 
L 132.716137 222.463455 
L 135.574111 220.431489 
L 138.432084 218.183763 
L 141.290058 215.715722 
L 144.148032 213.025726 
L 147.006006 210.115326 
L 149.863979 206.989454 
L 152.721953 203.656516 
L 155.579927 200.12836 
L 158.4379 196.42014 
L 161.295874 192.550037 
L 164.153848 188.538877 
L 167.011821 184.409629 
L 169.869795 180.186819 
L 172.727769 175.895871 
L 175.585742 171.562404 
L 178.443716 167.211526 
L 181.30169 162.867139 
L 184.159663 158.551308 
L 187.017637 154.283704 
L 189.875611 150.081166 
L 192.733584 145.957382 
L 195.591558 141.922727 
L 198.449532 137.984246 
L 201.307505 134.145786 
L 204.165479 130.408276 
L 207.023453 126.77013 
L 209.881426 123.227759 
L 212.7394 119.776164 
L 215.597374 116.409577 
L 218.455347 113.122138 
L 221.313321 109.908557 
L 224.171295 106.764746 
L 227.029268 103.688405 
L 229.887242 100.679521 
L 232.745216 97.740784 
L 235.603189 94.877896 
L 238.461163 92.099772 
L 241.319137 89.418625 
L 244.17711 86.84994 
L 247.035084 84.412334 
L 249.893058 82.12731 
L 252.751032 80.018913 
L 255.609005 78.113294 
L 258.466979 76.438197 
L 261.324953 75.02237 
L 264.182926 73.894929 
L 267.0409 73.084672 
L 269.898874 72.61937 
L 272.756847 72.525048 
L 275.614821 72.825269 
L 278.472795 73.540453 
L 281.330768 74.687227 
L 284.188742 76.277847 
L 287.046716 78.319695 
L 289.904689 80.814877 
L 292.762663 83.759921 
L 295.620637 87.145606 
L 298.47861 90.956915 
L 301.336584 95.173115 
L 304.194558 99.767985 
L 307.052531 104.710157 
L 309.910505 109.963594 
L 312.768479 115.488167 
L 315.626452 121.240339 
L 318.484426 127.173925 
L 321.3424 133.240908 
L 324.200373 139.392298 
L 327.058347 145.579008 
L 329.916321 151.752713 
L 332.774294 157.866694 
L 335.632268 163.876609 
L 338.490242 169.741212 
L 341.348215 175.422968 
L 344.206189 180.888569 
L 347.064163 186.109329 
L 349.922137 191.061463 
L 352.78011 195.726233 
L 355.638084 200.089973 
L 358.496058 204.143989 
L 361.354031 207.884358 
L 364.212005 211.311617 
L 367.069979 214.430378 
L 369.927952 217.248872 
L 372.785926 219.778448 
L 375.6439 222.033046 
L 378.501873 224.028653 
L 381.359847 225.78277 
L 384.217821 227.313905 
L 387.075794 228.64109 
L 389.933768 229.783457 
L 392.791742 230.759861 
L 395.649715 231.588557 
L 398.507689 232.286943 
L 401.365663 232.871361 
L 404.223636 233.356956 
" clip-path="url(#p6fcbd6da12)" style="fill: none; stroke: #1f77b4; stroke-width: 1.5; stroke-linecap: square"/>
   </g>
   <g id="line2d_15">
    <path d="M 126.228566 232.970472 
L 128.895199 232.501778 
L 131.561833 231.95315 
L 134.228466 231.313586 
L 136.895099 230.571083 
L 139.561732 229.712637 
L 142.228365 228.724272 
L 144.894999 227.591079 
L 147.561632 226.297301 
L 150.228265 224.826428 
L 152.894898 223.161339 
L 155.561531 221.284473 
L 158.228165 219.178034 
L 160.894798 216.824238 
L 163.561431 214.205592 
L 166.228064 211.305212 
L 168.894697 208.107176 
L 171.56133 204.596899 
L 174.227964 200.761542 
L 176.894597 196.590438 
L 179.56123 192.075525 
L 182.227863 187.211785 
L 184.894496 181.99768 
L 187.56113 176.435562 
L 190.227763 170.532059 
L 192.894396 164.298419 
L 195.561029 157.750799 
L 198.227662 150.910487 
L 200.894296 143.80405 
L 203.560929 136.463393 
L 206.227562 128.92572 
L 208.894195 121.233391 
L 211.560828 113.43367 
L 214.227461 105.578366 
L 216.894095 97.723354 
L 219.560728 89.927992 
L 222.227361 82.254441 
L 224.893994 74.766879 
L 227.560627 67.530651 
L 230.227261 60.611338 
L 232.893894 54.073792 
L 235.560527 47.98113 
L 238.22716 42.393731 
L 240.893793 37.368245 
L 243.560427 32.956637 
L 246.22706 29.205295 
L 248.893693 26.15422 
L 251.560326 23.836315 
L 254.226959 22.276794 
L 256.893592 21.492727 
L 259.560226 21.492727 
L 262.226859 22.276794 
L 264.893492 23.836315 
L 267.560125 26.15422 
L 270.226758 29.205295 
L 272.893392 32.956637 
L 275.560025 37.368245 
L 278.226658 42.393731 
L 280.893291 47.98113 
L 283.559924 54.073792 
L 286.226558 60.611338 
L 288.893191 67.530651 
L 291.559824 74.766879 
L 294.226457 82.254441 
L 296.89309 89.927992 
L 299.559724 97.723354 
L 302.226357 105.578366 
L 304.89299 113.43367 
L 307.559623 121.233391 
L 310.226256 128.92572 
L 312.892889 136.463393 
L 315.559523 143.80405 
L 318.226156 150.910487 
L 320.892789 157.750799 
L 323.559422 164.298419 
L 326.226055 170.532059 
L 328.892689 176.435562 
L 331.559322 181.99768 
L 334.225955 187.211785 
L 336.892588 192.075525 
L 339.559221 196.590438 
L 342.225855 200.761542 
L 344.892488 204.596899 
L 347.559121 208.107176 
L 350.225754 211.305212 
L 352.892387 214.205592 
L 355.55902 216.824238 
L 358.225654 219.178034 
L 360.892287 221.284473 
L 363.55892 223.161339 
L 366.225553 224.826428 
L 368.892186 226.297301 
L 371.55882 227.591079 
L 374.225453 228.724272 
L 376.892086 229.712637 
L 379.558719 230.571083 
L 382.225352 231.313586 
L 384.891986 231.95315 
L 387.558619 232.501778 
L 390.225252 232.970472 
" clip-path="url(#p6fcbd6da12)" style="fill: none; stroke: #ff7f0e; stroke-width: 1.5; stroke-linecap: square"/>
   </g>
   <g id="line2d_16">
    <path d="M 64.696364 233.499211 
L 68.125932 233.134781 
L 71.5555 232.7082 
L 74.985069 232.210912 
L 78.414637 231.633585 
L 81.844206 230.966107 
L 85.273774 230.197612 
L 88.703343 229.316507 
L 92.132911 228.31054 
L 95.562479 227.166875 
L 98.992048 225.872198 
L 102.421616 224.412856 
L 105.851185 222.775012 
L 109.280753 220.944837 
L 112.710321 218.908729 
L 116.13989 216.653563 
L 119.569458 214.166956 
L 122.999027 211.437568 
L 126.428595 208.455418 
L 129.858163 205.21221 
L 133.287732 201.701675 
L 136.7173 197.919914 
L 140.146869 193.865729 
L 143.576437 189.540949 
L 147.006006 184.950728 
L 150.435574 180.103811 
L 153.865142 175.012762 
L 157.294711 169.694132 
L 160.724279 164.16858 
L 164.153848 158.460912 
L 167.583416 152.600055 
L 171.012984 146.618946 
L 174.442553 140.554337 
L 177.872121 134.446509 
L 181.30169 128.338907 
L 184.731258 122.277687 
L 188.160826 116.311179 
L 191.590395 110.489286 
L 195.019963 104.862815 
L 198.449532 99.48276 
L 201.8791 94.399544 
L 205.308669 89.662243 
L 208.738237 85.317807 
L 212.167805 81.410281 
L 215.597374 77.98007 
L 219.026942 75.063245 
L 222.456511 72.690906 
L 225.886079 70.888638 
L 229.315647 69.676045 
L 232.745216 69.0664 
L 236.174784 69.0664 
L 239.604353 69.676045 
L 243.033921 70.888638 
L 246.463489 72.690906 
L 249.893058 75.063245 
L 253.322626 77.98007 
L 256.752195 81.410281 
L 260.181763 85.317807 
L 263.611331 89.662243 
L 267.0409 94.399544 
L 270.470468 99.48276 
L 273.900037 104.862815 
L 277.329605 110.489286 
L 280.759174 116.311179 
L 284.188742 122.277687 
L 287.61831 128.338907 
L 291.047879 134.446509 
L 294.477447 140.554337 
L 297.907016 146.618946 
L 301.336584 152.600055 
L 304.766152 158.460912 
L 308.195721 164.16858 
L 311.625289 169.694132 
L 315.054858 175.012762 
L 318.484426 180.103811 
L 321.913994 184.950728 
L 325.343563 189.540949 
L 328.773131 193.865729 
L 332.2027 197.919914 
L 335.632268 201.701675 
L 339.061837 205.21221 
L 342.491405 208.455418 
L 345.920973 211.437568 
L 349.350542 214.166956 
L 352.78011 216.653563 
L 356.209679 218.908729 
L 359.639247 220.944837 
L 363.068815 222.775012 
L 366.498384 224.412856 
L 369.927952 225.872198 
L 373.357521 227.166875 
L 376.787089 228.31054 
L 380.216657 229.316507 
L 383.646226 230.197612 
L 387.075794 230.966107 
L 390.505363 231.633585 
L 393.934931 232.210912 
L 397.3645 232.7082 
L 400.794068 233.134781 
L 404.223636 233.499211 
" clip-path="url(#p6fcbd6da12)" style="fill: none; stroke: #2ca02c; stroke-width: 1.5; stroke-linecap: square"/>
   </g>
   <g id="patch_3">
    <path d="M 47.72 246.04 
L 47.72 10.8 
" style="fill: none; stroke: #000000; stroke-width: 0.8; stroke-linejoin: miter; stroke-linecap: square"/>
   </g>
   <g id="patch_4">
    <path d="M 421.2 246.04 
L 421.2 10.8 
" style="fill: none; stroke: #000000; stroke-width: 0.8; stroke-linejoin: miter; stroke-linecap: square"/>
   </g>
   <g id="patch_5">
    <path d="M 47.72 246.04 
L 421.2 246.04 
" style="fill: none; stroke: #000000; stroke-width: 0.8; stroke-linejoin: miter; stroke-linecap: square"/>
   </g>
   <g id="patch_6">
    <path d="M 47.72 10.8 
L 421.2 10.8 
" style="fill: none; stroke: #000000; stroke-width: 0.8; stroke-linejoin: miter; stroke-linecap: square"/>
   </g>
   <g id="legend_1">
    <g id="patch_7">
     <path d="M 54.72 77.5125 
L 204.505938 77.5125 
Q 206.505938 77.5125 206.505938 75.5125 
L 206.505938 17.8 
Q 206.505938 15.8 204.505938 15.8 
L 54.72 15.8 
Q 52.72 15.8 52.72 17.8 
L 52.72 75.5125 
Q 52.72 77.5125 54.72 77.5125 
z
" style="fill: #ffffff; opacity: 0.8; stroke: #cccccc; stroke-linejoin: miter"/>
    </g>
    <g id="PathCollection_2">
     <g>
      <use xlink:href="#mac30d76787" x="66.72" y="24.773438" style="stroke: #000000"/>
     </g>
    </g>
    <g id="text_16">
     <!-- data -->
     <g transform="translate(84.72 27.398438)scale(0.1 -0.1)">
      <defs>
       <path id="DejaVuSans-64" d="M 2906 2969 
L 2906 4863 
L 3481 4863 
L 3481 0 
L 2906 0 
L 2906 525 
Q 2725 213 2448 61 
Q 2172 -91 1784 -91 
Q 1150 -91 751 415 
Q 353 922 353 1747 
Q 353 2572 751 3078 
Q 1150 3584 1784 3584 
Q 2172 3584 2448 3432 
Q 2725 3281 2906 2969 
z
M 947 1747 
Q 947 1113 1208 752 
Q 1469 391 1925 391 
Q 2381 391 2643 752 
Q 2906 1113 2906 1747 
Q 2906 2381 2643 2742 
Q 2381 3103 1925 3103 
Q 1469 3103 1208 2742 
Q 947 2381 947 1747 
z
" transform="scale(0.015625)"/>
       <path id="DejaVuSans-61" d="M 2194 1759 
Q 1497 1759 1228 1600 
Q 959 1441 959 1056 
Q 959 750 1161 570 
Q 1363 391 1709 391 
Q 2188 391 2477 730 
Q 2766 1069 2766 1631 
L 2766 1759 
L 2194 1759 
z
M 3341 1997 
L 3341 0 
L 2766 0 
L 2766 531 
Q 2569 213 2275 61 
Q 1981 -91 1556 -91 
Q 1019 -91 701 211 
Q 384 513 384 1019 
Q 384 1609 779 1909 
Q 1175 2209 1959 2209 
L 2766 2209 
L 2766 2266 
Q 2766 2663 2505 2880 
Q 2244 3097 1772 3097 
Q 1472 3097 1187 3025 
Q 903 2953 641 2809 
L 641 3341 
Q 956 3463 1253 3523 
Q 1550 3584 1831 3584 
Q 2591 3584 2966 3190 
Q 3341 2797 3341 1997 
z
" transform="scale(0.015625)"/>
      </defs>
      <use xlink:href="#DejaVuSans-64"/>
      <use xlink:href="#DejaVuSans-61" x="63.476562"/>
      <use xlink:href="#DejaVuSans-74" x="124.755859"/>
      <use xlink:href="#DejaVuSans-61" x="163.964844"/>
     </g>
    </g>
    <g id="line2d_17">
     <path d="M 56.72 38.576562 
L 66.72 38.576562 
L 76.72 38.576562 
" style="fill: none; stroke: #1f77b4; stroke-width: 1.5; stroke-linecap: square"/>
    </g>
    <g id="text_17">
     <!-- KDE of data -->
     <g transform="translate(84.72 42.076562)scale(0.1 -0.1)">
      <defs>
       <path id="DejaVuSans-4b" d="M 628 4666 
L 1259 4666 
L 1259 2694 
L 3353 4666 
L 4166 4666 
L 1850 2491 
L 4331 0 
L 3500 0 
L 1259 2247 
L 1259 0 
L 628 0 
L 628 4666 
z
" transform="scale(0.015625)"/>
       <path id="DejaVuSans-45" d="M 628 4666 
L 3578 4666 
L 3578 4134 
L 1259 4134 
L 1259 2753 
L 3481 2753 
L 3481 2222 
L 1259 2222 
L 1259 531 
L 3634 531 
L 3634 0 
L 628 0 
L 628 4666 
z
" transform="scale(0.015625)"/>
       <path id="DejaVuSans-20" transform="scale(0.015625)"/>
       <path id="DejaVuSans-6f" d="M 1959 3097 
Q 1497 3097 1228 2736 
Q 959 2375 959 1747 
Q 959 1119 1226 758 
Q 1494 397 1959 397 
Q 2419 397 2687 759 
Q 2956 1122 2956 1747 
Q 2956 2369 2687 2733 
Q 2419 3097 1959 3097 
z
M 1959 3584 
Q 2709 3584 3137 3096 
Q 3566 2609 3566 1747 
Q 3566 888 3137 398 
Q 2709 -91 1959 -91 
Q 1206 -91 779 398 
Q 353 888 353 1747 
Q 353 2609 779 3096 
Q 1206 3584 1959 3584 
z
" transform="scale(0.015625)"/>
       <path id="DejaVuSans-66" d="M 2375 4863 
L 2375 4384 
L 1825 4384 
Q 1516 4384 1395 4259 
Q 1275 4134 1275 3809 
L 1275 3500 
L 2222 3500 
L 2222 3053 
L 1275 3053 
L 1275 0 
L 697 0 
L 697 3053 
L 147 3053 
L 147 3500 
L 697 3500 
L 697 3744 
Q 697 4328 969 4595 
Q 1241 4863 1831 4863 
L 2375 4863 
z
" transform="scale(0.015625)"/>
      </defs>
      <use xlink:href="#DejaVuSans-4b"/>
      <use xlink:href="#DejaVuSans-44" x="65.576172"/>
      <use xlink:href="#DejaVuSans-45" x="142.578125"/>
      <use xlink:href="#DejaVuSans-20" x="205.761719"/>
      <use xlink:href="#DejaVuSans-6f" x="237.548828"/>
      <use xlink:href="#DejaVuSans-66" x="298.730469"/>
      <use xlink:href="#DejaVuSans-20" x="333.935547"/>
      <use xlink:href="#DejaVuSans-64" x="365.722656"/>
      <use xlink:href="#DejaVuSans-61" x="429.199219"/>
      <use xlink:href="#DejaVuSans-74" x="490.478516"/>
      <use xlink:href="#DejaVuSans-61" x="529.6875"/>
     </g>
    </g>
    <g id="line2d_18">
     <path d="M 56.72 53.254687 
L 66.72 53.254687 
L 76.72 53.254687 
" style="fill: none; stroke: #ff7f0e; stroke-width: 1.5; stroke-linecap: square"/>
    </g>
    <g id="text_18">
     <!-- normal fit N(2.42, 0.78) -->
     <g transform="translate(84.72 56.754687)scale(0.1 -0.1)">
      <defs>
       <path id="DejaVuSans-72" d="M 2631 2963 
Q 2534 3019 2420 3045 
Q 2306 3072 2169 3072 
Q 1681 3072 1420 2755 
Q 1159 2438 1159 1844 
L 1159 0 
L 581 0 
L 581 3500 
L 1159 3500 
L 1159 2956 
Q 1341 3275 1631 3429 
Q 1922 3584 2338 3584 
Q 2397 3584 2469 3576 
Q 2541 3569 2628 3553 
L 2631 2963 
z
" transform="scale(0.015625)"/>
       <path id="DejaVuSans-6d" d="M 3328 2828 
Q 3544 3216 3844 3400 
Q 4144 3584 4550 3584 
Q 5097 3584 5394 3201 
Q 5691 2819 5691 2113 
L 5691 0 
L 5113 0 
L 5113 2094 
Q 5113 2597 4934 2840 
Q 4756 3084 4391 3084 
Q 3944 3084 3684 2787 
Q 3425 2491 3425 1978 
L 3425 0 
L 2847 0 
L 2847 2094 
Q 2847 2600 2669 2842 
Q 2491 3084 2119 3084 
Q 1678 3084 1418 2786 
Q 1159 2488 1159 1978 
L 1159 0 
L 581 0 
L 581 3500 
L 1159 3500 
L 1159 2956 
Q 1356 3278 1631 3431 
Q 1906 3584 2284 3584 
Q 2666 3584 2933 3390 
Q 3200 3197 3328 2828 
z
" transform="scale(0.015625)"/>
       <path id="DejaVuSans-6c" d="M 603 4863 
L 1178 4863 
L 1178 0 
L 603 0 
L 603 4863 
z
" transform="scale(0.015625)"/>
       <path id="DejaVuSans-4e" d="M 628 4666 
L 1478 4666 
L 3547 763 
L 3547 4666 
L 4159 4666 
L 4159 0 
L 3309 0 
L 1241 3903 
L 1241 0 
L 628 0 
L 628 4666 
z
" transform="scale(0.015625)"/>
       <path id="DejaVuSans-28" d="M 1984 4856 
Q 1566 4138 1362 3434 
Q 1159 2731 1159 2009 
Q 1159 1288 1364 580 
Q 1569 -128 1984 -844 
L 1484 -844 
Q 1016 -109 783 600 
Q 550 1309 550 2009 
Q 550 2706 781 3412 
Q 1013 4119 1484 4856 
L 1984 4856 
z
" transform="scale(0.015625)"/>
       <path id="DejaVuSans-2c" d="M 750 794 
L 1409 794 
L 1409 256 
L 897 -744 
L 494 -744 
L 750 256 
L 750 794 
z
" transform="scale(0.015625)"/>
       <path id="DejaVuSans-37" d="M 525 4666 
L 3525 4666 
L 3525 4397 
L 1831 0 
L 1172 0 
L 2766 4134 
L 525 4134 
L 525 4666 
z
" transform="scale(0.015625)"/>
       <path id="DejaVuSans-38" d="M 2034 2216 
Q 1584 2216 1326 1975 
Q 1069 1734 1069 1313 
Q 1069 891 1326 650 
Q 1584 409 2034 409 
Q 2484 409 2743 651 
Q 3003 894 3003 1313 
Q 3003 1734 2745 1975 
Q 2488 2216 2034 2216 
z
M 1403 2484 
Q 997 2584 770 2862 
Q 544 3141 544 3541 
Q 544 4100 942 4425 
Q 1341 4750 2034 4750 
Q 2731 4750 3128 4425 
Q 3525 4100 3525 3541 
Q 3525 3141 3298 2862 
Q 3072 2584 2669 2484 
Q 3125 2378 3379 2068 
Q 3634 1759 3634 1313 
Q 3634 634 3220 271 
Q 2806 -91 2034 -91 
Q 1263 -91 848 271 
Q 434 634 434 1313 
Q 434 1759 690 2068 
Q 947 2378 1403 2484 
z
M 1172 3481 
Q 1172 3119 1398 2916 
Q 1625 2713 2034 2713 
Q 2441 2713 2670 2916 
Q 2900 3119 2900 3481 
Q 2900 3844 2670 4047 
Q 2441 4250 2034 4250 
Q 1625 4250 1398 4047 
Q 1172 3844 1172 3481 
z
" transform="scale(0.015625)"/>
       <path id="DejaVuSans-29" d="M 513 4856 
L 1013 4856 
Q 1481 4119 1714 3412 
Q 1947 2706 1947 2009 
Q 1947 1309 1714 600 
Q 1481 -109 1013 -844 
L 513 -844 
Q 928 -128 1133 580 
Q 1338 1288 1338 2009 
Q 1338 2731 1133 3434 
Q 928 4138 513 4856 
z
" transform="scale(0.015625)"/>
      </defs>
      <use xlink:href="#DejaVuSans-6e"/>
      <use xlink:href="#DejaVuSans-6f" x="63.378906"/>
      <use xlink:href="#DejaVuSans-72" x="124.560547"/>
      <use xlink:href="#DejaVuSans-6d" x="163.923828"/>
      <use xlink:href="#DejaVuSans-61" x="261.335938"/>
      <use xlink:href="#DejaVuSans-6c" x="322.615234"/>
      <use xlink:href="#DejaVuSans-20" x="350.398438"/>
      <use xlink:href="#DejaVuSans-66" x="382.185547"/>
      <use xlink:href="#DejaVuSans-69" x="417.390625"/>
      <use xlink:href="#DejaVuSans-74" x="445.173828"/>
      <use xlink:href="#DejaVuSans-20" x="484.382812"/>
      <use xlink:href="#DejaVuSans-4e" x="516.169922"/>
      <use xlink:href="#DejaVuSans-28" x="590.974609"/>
      <use xlink:href="#DejaVuSans-32" x="629.988281"/>
      <use xlink:href="#DejaVuSans-2e" x="693.611328"/>
      <use xlink:href="#DejaVuSans-34" x="725.398438"/>
      <use xlink:href="#DejaVuSans-32" x="789.021484"/>
      <use xlink:href="#DejaVuSans-2c" x="852.644531"/>
      <use xlink:href="#DejaVuSans-20" x="884.431641"/>
      <use xlink:href="#DejaVuSans-30" x="916.21875"/>
      <use xlink:href="#DejaVuSans-2e" x="979.841797"/>
      <use xlink:href="#DejaVuSans-37" x="1011.628906"/>
      <use xlink:href="#DejaVuSans-38" x="1075.251953"/>
      <use xlink:href="#DejaVuSans-29" x="1138.875"/>
     </g>
    </g>
    <g id="line2d_19">
     <path d="M 56.72 67.932813 
L 66.72 67.932813 
L 76.72 67.932813 
" style="fill: none; stroke: #2ca02c; stroke-width: 1.5; stroke-linecap: square"/>
    </g>
    <g id="text_19">
     <!-- N(2, 1) -->
     <g transform="translate(84.72 71.432813)scale(0.1 -0.1)">
      <use xlink:href="#DejaVuSans-4e"/>
      <use xlink:href="#DejaVuSans-28" x="74.804688"/>
      <use xlink:href="#DejaVuSans-32" x="113.818359"/>
      <use xlink:href="#DejaVuSans-2c" x="177.441406"/>
      <use xlink:href="#DejaVuSans-20" x="209.228516"/>
      <use xlink:href="#DejaVuSans-31" x="241.015625"/>
      <use xlink:href="#DejaVuSans-29" x="304.638672"/>
     </g>
    </g>
   </g>
  </g>
 </g>
 <defs>
  <clipPath id="p6fcbd6da12">
   <rect x="47.72" y="10.8" width="373.48" height="235.24"/>
  </clipPath>
 </defs>
</svg>
