<?xml version="1.0" encoding="UTF-8" standalone="no"?>
<!DOCTYPE svg PUBLIC "-//W3C//DTD SVG 1.1//EN" "http://www.w3.org/Graphics/SVG/1.1/DTD/svg11.dtd">
<svg width="100%" height="100%" viewBox="0 0 2480 1821" version="1.1" xmlns="http://www.w3.org/2000/svg" xmlns:xlink="http://www.w3.org/1999/xlink" xml:space="preserve" xmlns:serif="http://www.serif.com/" style="fill-rule:evenodd;clip-rule:evenodd;stroke-linecap:round;stroke-linejoin:round;stroke-miterlimit:1.5;">
    <path d="M1144.29,1495.79l-0,-1353.97" style="fill:none;stroke:black;stroke-width:18.84px;"/>
    <path d="M1144.29,141.818l-70.509,70.509" style="fill:none;stroke:black;stroke-width:18.84px;"/>
    <path d="M1144.29,141.818l76.963,76.963" style="fill:none;stroke:black;stroke-width:18.84px;"/>
    <path d="M9.418,831.007l2372.24,-0" style="fill:none;stroke:black;stroke-width:18.84px;"/>
    <path d="M2381.65,831.007l-65.955,-65.955" style="fill:none;stroke:black;stroke-width:18.84px;"/>
    <path d="M2381.65,831.007l-63.732,63.731" style="fill:none;stroke:black;stroke-width:18.84px;"/>
    <path d="M112.105,1422.42l592.339,-592.339" style="fill:none;stroke:rgb(217,36,36);stroke-width:37.67px;"/>
    <path d="M1642.57,829.988l592.339,-592.339" style="fill:none;stroke:rgb(217,36,36);stroke-width:37.67px;"/>
    <path d="M704.444,830.083l938.121,-0.095" style="fill:none;stroke:rgb(217,36,36);stroke-width:37.67px;"/>
    <path d="M2112.55,1185.05l-21.612,0l-0,-166.717c-0,-37.286 18.326,-56.286 54.979,-56.998c14.408,-0 26.401,3.562 35.98,10.687c9.578,7.362 14.447,17.851 14.605,31.467c-0.158,21.375 -10.054,35.07 -29.686,41.086l-0,0.475c24.778,3.879 37.365,18.366 37.761,43.461c-0.158,14.803 -4.552,26.994 -13.181,36.573c-8.945,9.658 -21.018,14.566 -36.217,14.725c-9.262,-0 -17.06,-1.346 -23.393,-4.038c-6.491,-2.77 -12.903,-7.639 -19.236,-14.605l-0,63.884Zm0.356,-106.276c-0,5.699 0.554,11.162 1.662,16.386c1.108,4.988 2.969,9.579 5.581,13.775c2.771,4.116 6.65,7.283 11.637,9.5c4.908,2.612 11.162,3.918 18.762,3.918c10.212,0 18.168,-3.325 23.868,-9.974c5.462,-6.334 8.193,-14.527 8.193,-24.581c-0.158,-11.953 -3.879,-20.463 -11.162,-25.53c-7.283,-4.67 -16.347,-7.006 -27.193,-7.006c-4.116,0.159 -8.272,0.396 -12.468,0.713l0,-18.287c3.563,-0 6.967,-0.079 10.212,-0.238c9.104,-0.158 16.822,-2.651 23.156,-7.48c6.174,-4.75 9.341,-12.39 9.499,-22.918c-0.475,-18.762 -10.449,-28.143 -29.924,-28.143c-11.241,0.159 -19.355,3.483 -24.342,9.975c-4.988,6.65 -7.481,15.635 -7.481,26.955l-0,62.935Z" style="fill-rule:nonzero;stroke:black;stroke-width:1px;stroke-linecap:butt;stroke-miterlimit:2;"/>
    <path d="M664.56,305.332l-21.611,0l-0,-166.718c-0,-37.286 18.326,-56.285 54.978,-56.997c14.408,-0 26.401,3.562 35.98,10.687c9.579,7.362 14.447,17.851 14.606,31.467c-0.159,21.374 -10.054,35.069 -29.686,41.086l-0,0.475c24.778,3.879 37.365,18.366 37.76,43.46c-0.158,14.804 -4.551,26.995 -13.18,36.574c-8.946,9.658 -21.018,14.566 -36.217,14.724c-9.263,0 -17.06,-1.346 -23.393,-4.037c-6.492,-2.771 -12.904,-7.639 -19.237,-14.606l0,63.885Zm0.356,-106.277c0,5.7 0.555,11.162 1.663,16.387c1.108,4.987 2.968,9.579 5.581,13.775c2.771,4.116 6.65,7.283 11.637,9.499c4.908,2.613 11.162,3.919 18.762,3.919c10.212,-0 18.167,-3.325 23.867,-9.975c5.463,-6.333 8.194,-14.526 8.194,-24.58c-0.159,-11.954 -3.879,-20.464 -11.162,-25.53c-7.283,-4.671 -16.348,-7.006 -27.193,-7.006c-4.116,0.158 -8.273,0.396 -12.468,0.712l-0,-18.286c3.562,-0 6.966,-0.08 10.212,-0.238c9.104,-0.158 16.822,-2.652 23.155,-7.481c6.175,-4.75 9.341,-12.389 9.5,-22.918c-0.475,-18.761 -10.45,-28.142 -29.924,-28.142c-11.241,0.158 -19.355,3.483 -24.343,9.974c-4.987,6.65 -7.481,15.635 -7.481,26.956l0,62.934Z" style="fill-rule:nonzero;stroke:black;stroke-width:1px;stroke-linecap:butt;stroke-miterlimit:2;"/>
    <path d="M1623.19,1807.48l-15.757,-0l0,-121.554c0,-27.185 13.362,-41.037 40.085,-41.556c10.505,-0 19.249,2.597 26.233,7.792c6.984,5.367 10.533,13.015 10.649,22.942c-0.116,15.584 -7.33,25.569 -21.644,29.956l-0,0.346c18.065,2.828 27.242,13.391 27.531,31.687c-0.115,10.793 -3.319,19.682 -9.61,26.666c-6.522,7.041 -15.324,10.62 -26.406,10.735c-6.753,0 -12.438,-0.981 -17.055,-2.943c-4.733,-2.02 -9.408,-5.57 -14.026,-10.649l0,46.578Zm0.26,-77.486c-0,4.156 0.404,8.138 1.212,11.947c0.808,3.637 2.164,6.984 4.069,10.043c2.02,3.002 4.848,5.31 8.485,6.926c3.578,1.905 8.138,2.857 13.679,2.857c7.445,0 13.246,-2.424 17.402,-7.272c3.982,-4.617 5.973,-10.591 5.973,-17.921c-0.115,-8.716 -2.828,-14.92 -8.138,-18.614c-5.31,-3.406 -11.919,-5.108 -19.826,-5.108c-3.001,0.115 -6.031,0.288 -9.09,0.519l-0,-13.333c2.597,0 5.079,-0.057 7.445,-0.173c6.638,-0.115 12.265,-1.933 16.883,-5.454c4.502,-3.463 6.81,-9.033 6.926,-16.709c-0.347,-13.679 -7.619,-20.519 -21.818,-20.519c-8.195,0.115 -14.112,2.54 -17.748,7.272c-3.636,4.849 -5.454,11.4 -5.454,19.653l-0,45.886Z" style="fill-rule:nonzero;stroke:black;stroke-width:1px;stroke-linecap:butt;stroke-miterlimit:2;"/>
    <path d="M2088.96,940.907l52.982,-52.983" style="fill:none;stroke:black;stroke-width:16.42px;"/>
    <path d="M640.976,61.191l52.983,-52.983" style="fill:none;stroke:black;stroke-width:16.42px;"/>
    <path d="M1606,1629.47l38.63,-38.629" style="fill:none;stroke:black;stroke-width:12.66px;"/>
    <path d="M2141.94,887.924l53.582,53.582" style="fill:none;stroke:black;stroke-width:16.42px;"/>
    <path d="M693.959,8.208l53.581,53.581" style="fill:none;stroke:black;stroke-width:16.42px;"/>
    <path d="M1644.63,1590.85l39.066,39.066" style="fill:none;stroke:black;stroke-width:12.66px;"/>
    <path d="M2282.33,1187.17l25.084,-60.453l11.545,0l-0,74.307l-7.557,-0l0,-64.231l-0.21,-0l-26.867,64.231l-3.989,-0l-26.868,-64.231l-0.21,-0l0,64.231l-7.556,-0l-0,-74.307l11.545,0l25.083,60.453Z" style="fill-rule:nonzero;stroke:black;stroke-width:1px;stroke-linecap:butt;stroke-miterlimit:2;"/>
    <path d="M2346.67,1194.09l34.634,-0l0,6.927l-42.191,-0l-0,-74.307l7.557,0l-0,67.38Z" style="fill-rule:nonzero;stroke:black;stroke-width:1px;stroke-linecap:butt;stroke-miterlimit:2;"/>
    <path d="M2399.15,1194.09l39.777,-0l0,6.927l-47.334,-0l0,-74.307l46.075,0l-0,6.927l-38.518,-0l-0,25.294l35.999,-0l-0,6.926l-35.999,0l-0,28.233Z" style="fill-rule:nonzero;stroke:black;stroke-width:1px;stroke-linecap:butt;stroke-miterlimit:2;"/>
    <rect x="796.775" y="241.96" width="6.927" height="79.344" style="fill-rule:nonzero;stroke:black;stroke-width:1px;stroke-linecap:butt;stroke-miterlimit:2;"/>
    <path d="M848.307,296.85c-1.749,0 -3.936,0.088 -6.56,0.263c-2.624,0.175 -5.143,0.594 -7.556,1.259c-2.414,0.665 -4.478,1.697 -6.193,3.096c-1.714,1.4 -2.571,3.324 -2.571,5.773c0,1.609 0.332,2.991 0.997,4.145c0.665,1.155 1.557,2.099 2.676,2.834c1.12,0.735 2.362,1.259 3.726,1.574c1.365,0.315 2.746,0.473 4.146,0.473c2.519,-0 4.705,-0.42 6.559,-1.26c1.855,-0.839 3.411,-1.976 4.671,-3.411c1.259,-1.434 2.186,-3.113 2.781,-5.038c0.595,-1.924 0.892,-3.97 0.892,-6.139l0,-3.569l-3.568,0Zm3.568,-5.667l0,-1.26c0,-8.466 -4.198,-12.699 -12.594,-12.699c-5.738,0 -10.74,1.924 -15.008,5.773l-4.199,-4.933c4.618,-4.758 11.545,-7.137 20.781,-7.137c2.379,-0 4.67,0.35 6.875,1.05c2.204,0.699 4.11,1.766 5.719,3.201c1.61,1.434 2.904,3.236 3.884,5.405c0.979,2.169 1.469,4.758 1.469,7.766l0,21.935c0,1.889 0.087,3.866 0.262,5.93c0.175,2.064 0.368,3.761 0.578,5.09l-6.717,0c-0.21,-1.189 -0.368,-2.484 -0.473,-3.883c-0.105,-1.399 -0.157,-2.764 -0.157,-4.093l-0.21,-0c-2.029,3.288 -4.425,5.65 -7.189,7.084c-2.764,1.435 -6.14,2.152 -10.128,2.152c-2.169,-0 -4.268,-0.298 -6.297,-0.892c-2.029,-0.595 -3.831,-1.505 -5.405,-2.729c-1.575,-1.225 -2.834,-2.729 -3.779,-4.513c-0.944,-1.784 -1.417,-3.866 -1.417,-6.245c0,-3.988 1.032,-7.119 3.097,-9.393c2.064,-2.274 4.652,-3.971 7.766,-5.09c3.114,-1.12 6.437,-1.819 9.971,-2.099c3.533,-0.28 6.769,-0.42 9.708,-0.42l3.463,-0Z" style="fill-rule:nonzero;stroke:black;stroke-width:1px;stroke-linecap:butt;stroke-miterlimit:2;"/>
    <path d="M900.888,283.836c-1.049,-2.029 -2.449,-3.638 -4.198,-4.828c-1.749,-1.189 -3.883,-1.784 -6.402,-1.784c-1.19,0 -2.397,0.14 -3.621,0.42c-1.224,0.28 -2.326,0.717 -3.306,1.312c-0.98,0.595 -1.767,1.347 -2.361,2.256c-0.595,0.91 -0.893,2.029 -0.893,3.359c0,2.309 0.805,3.988 2.414,5.038c1.61,1.049 4.024,1.959 7.242,2.728l7.032,1.68c3.428,0.769 6.28,2.326 8.554,4.67c2.274,2.344 3.411,5.265 3.411,8.764c-0,2.658 -0.543,4.95 -1.627,6.874c-1.085,1.924 -2.519,3.498 -4.303,4.723c-1.784,1.224 -3.831,2.116 -6.14,2.676c-2.309,0.56 -4.653,0.84 -7.032,0.84c-3.778,-0 -7.294,-0.717 -10.548,-2.152c-3.253,-1.434 -6.034,-3.9 -8.343,-7.399l5.982,-4.093c1.399,2.239 3.166,4.023 5.3,5.353c2.134,1.329 4.671,1.994 7.609,1.994c1.4,-0 2.799,-0.158 4.198,-0.473c1.4,-0.315 2.642,-0.804 3.726,-1.469c1.085,-0.665 1.959,-1.522 2.624,-2.571c0.665,-1.05 0.997,-2.274 0.997,-3.674c0,-2.449 -0.91,-4.215 -2.729,-5.3c-1.819,-1.084 -4.023,-1.941 -6.612,-2.571l-6.717,-1.574c-0.839,-0.21 -1.976,-0.56 -3.411,-1.05c-1.434,-0.49 -2.833,-1.224 -4.198,-2.204c-1.364,-0.98 -2.536,-2.256 -3.516,-3.831c-0.979,-1.574 -1.469,-3.516 -1.469,-5.825c-0,-2.519 0.507,-4.723 1.522,-6.612c1.014,-1.889 2.379,-3.428 4.093,-4.618c1.714,-1.189 3.656,-2.081 5.825,-2.676c2.169,-0.595 4.408,-0.892 6.717,-0.892c3.428,-0 6.612,0.665 9.55,1.994c2.939,1.329 5.213,3.603 6.822,6.822l-6.192,4.093Z" style="fill-rule:nonzero;stroke:black;stroke-width:1px;stroke-linecap:butt;stroke-miterlimit:2;"/>
    <path d="M945.598,283.836c-1.049,-2.029 -2.449,-3.638 -4.198,-4.828c-1.749,-1.189 -3.883,-1.784 -6.402,-1.784c-1.19,0 -2.397,0.14 -3.621,0.42c-1.224,0.28 -2.326,0.717 -3.306,1.312c-0.98,0.595 -1.767,1.347 -2.361,2.256c-0.595,0.91 -0.893,2.029 -0.893,3.359c0,2.309 0.805,3.988 2.414,5.038c1.61,1.049 4.024,1.959 7.242,2.728l7.032,1.68c3.428,0.769 6.28,2.326 8.554,4.67c2.274,2.344 3.411,5.265 3.411,8.764c-0,2.658 -0.543,4.95 -1.627,6.874c-1.085,1.924 -2.519,3.498 -4.303,4.723c-1.784,1.224 -3.831,2.116 -6.14,2.676c-2.309,0.56 -4.653,0.84 -7.032,0.84c-3.778,-0 -7.294,-0.717 -10.548,-2.152c-3.253,-1.434 -6.034,-3.9 -8.343,-7.399l5.982,-4.093c1.399,2.239 3.166,4.023 5.3,5.353c2.134,1.329 4.67,1.994 7.609,1.994c1.4,-0 2.799,-0.158 4.198,-0.473c1.4,-0.315 2.642,-0.804 3.726,-1.469c1.085,-0.665 1.959,-1.522 2.624,-2.571c0.665,-1.05 0.997,-2.274 0.997,-3.674c-0,-2.449 -0.91,-4.215 -2.729,-5.3c-1.819,-1.084 -4.023,-1.941 -6.612,-2.571l-6.717,-1.574c-0.839,-0.21 -1.976,-0.56 -3.411,-1.05c-1.434,-0.49 -2.834,-1.224 -4.198,-2.204c-1.364,-0.98 -2.536,-2.256 -3.516,-3.831c-0.979,-1.574 -1.469,-3.516 -1.469,-5.825c-0,-2.519 0.507,-4.723 1.522,-6.612c1.014,-1.889 2.379,-3.428 4.093,-4.618c1.714,-1.189 3.656,-2.081 5.825,-2.676c2.169,-0.595 4.408,-0.892 6.717,-0.892c3.428,-0 6.612,0.665 9.55,1.994c2.939,1.329 5.213,3.603 6.822,6.822l-6.192,4.093Z" style="fill-rule:nonzero;stroke:black;stroke-width:1px;stroke-linecap:butt;stroke-miterlimit:2;"/>
    <path d="M1006.37,296.745c-0,-2.728 -0.437,-5.282 -1.312,-7.661c-0.875,-2.379 -2.117,-4.443 -3.726,-6.192c-1.609,-1.75 -3.551,-3.131 -5.825,-4.146c-2.274,-1.015 -4.845,-1.522 -7.714,-1.522c-2.869,0 -5.44,0.507 -7.714,1.522c-2.274,1.015 -4.198,2.396 -5.772,4.146c-1.575,1.749 -2.799,3.813 -3.674,6.192c-0.874,2.379 -1.312,4.933 -1.312,7.661c0,2.729 0.438,5.283 1.312,7.662c0.875,2.379 2.099,4.443 3.674,6.192c1.574,1.749 3.498,3.131 5.772,4.146c2.274,1.014 4.845,1.522 7.714,1.522c2.869,-0 5.44,-0.508 7.714,-1.522c2.274,-1.015 4.216,-2.397 5.825,-4.146c1.609,-1.749 2.851,-3.813 3.726,-6.192c0.875,-2.379 1.312,-4.933 1.312,-7.662Zm7.556,0c0,3.709 -0.647,7.137 -1.941,10.286c-1.295,3.148 -3.096,5.877 -5.405,8.186c-2.309,2.309 -5.056,4.111 -8.239,5.405c-3.184,1.295 -6.7,1.942 -10.548,1.942c-3.778,-0 -7.259,-0.647 -10.443,-1.942c-3.183,-1.294 -5.929,-3.096 -8.238,-5.405c-2.309,-2.309 -4.111,-5.038 -5.406,-8.186c-1.294,-3.149 -1.941,-6.577 -1.941,-10.286c-0,-3.708 0.647,-7.136 1.941,-10.285c1.295,-3.149 3.097,-5.877 5.406,-8.186c2.309,-2.309 5.055,-4.111 8.238,-5.405c3.184,-1.295 6.665,-1.942 10.443,-1.942c3.848,-0 7.364,0.647 10.548,1.942c3.183,1.294 5.93,3.096 8.239,5.405c2.309,2.309 4.11,5.037 5.405,8.186c1.294,3.149 1.941,6.577 1.941,10.285Z" style="fill-rule:nonzero;stroke:black;stroke-width:1px;stroke-linecap:butt;stroke-miterlimit:2;"/>
    <rect x="1719.59" y="1761.27" width="5.05" height="57.85" style="fill-rule:nonzero;stroke:black;stroke-width:1px;stroke-linecap:butt;stroke-miterlimit:2;"/>
    <path d="M1757.16,1801.29c-1.275,-0 -2.869,0.064 -4.782,0.191c-1.913,0.128 -3.75,0.434 -5.51,0.918c-1.76,0.485 -3.265,1.238 -4.514,2.258c-1.25,1.02 -1.875,2.423 -1.875,4.209c-0,1.173 0.242,2.18 0.727,3.022c0.484,0.842 1.135,1.53 1.951,2.066c0.816,0.536 1.722,0.918 2.716,1.148c0.995,0.23 2.003,0.344 3.023,0.344c1.837,0 3.431,-0.306 4.783,-0.918c1.351,-0.612 2.487,-1.441 3.405,-2.487c0.918,-1.046 1.594,-2.27 2.028,-3.673c0.433,-1.403 0.65,-2.895 0.65,-4.476l0,-2.602l-2.602,-0Zm2.602,-4.132l0,-0.918c0,-6.173 -3.061,-9.259 -9.182,-9.259c-4.184,-0 -7.831,1.402 -10.943,4.208l-3.061,-3.596c3.367,-3.469 8.417,-5.204 15.151,-5.204c1.735,0 3.406,0.255 5.012,0.765c1.607,0.511 2.998,1.289 4.171,2.334c1.173,1.046 2.117,2.36 2.831,3.941c0.714,1.582 1.071,3.469 1.071,5.663l0,15.993c0,1.377 0.064,2.818 0.192,4.323c0.127,1.505 0.268,2.742 0.421,3.711l-4.898,0c-0.153,-0.867 -0.268,-1.811 -0.344,-2.831c-0.077,-1.02 -0.115,-2.015 -0.115,-2.984l-0.153,-0c-1.479,2.397 -3.227,4.119 -5.242,5.165c-2.015,1.046 -4.476,1.569 -7.384,1.569c-1.581,-0 -3.112,-0.217 -4.591,-0.651c-1.48,-0.433 -2.793,-1.097 -3.941,-1.989c-1.148,-0.893 -2.066,-1.99 -2.755,-3.291c-0.688,-1.301 -1.033,-2.818 -1.033,-4.553c0,-2.908 0.753,-5.19 2.258,-6.848c1.505,-1.658 3.392,-2.895 5.662,-3.712c2.27,-0.816 4.693,-1.326 7.27,-1.53c2.576,-0.204 4.935,-0.306 7.078,-0.306l2.525,-0Z" style="fill-rule:nonzero;stroke:black;stroke-width:1px;stroke-linecap:butt;stroke-miterlimit:2;"/>
    <path d="M1795.5,1791.8c-0.765,-1.479 -1.785,-2.652 -3.061,-3.52c-1.275,-0.867 -2.831,-1.3 -4.667,-1.3c-0.868,-0 -1.748,0.102 -2.64,0.306c-0.893,0.204 -1.697,0.523 -2.411,0.956c-0.714,0.434 -1.288,0.982 -1.721,1.645c-0.434,0.664 -0.651,1.48 -0.651,2.449c0,1.683 0.587,2.908 1.76,3.673c1.173,0.765 2.933,1.428 5.28,1.99l5.127,1.224c2.5,0.561 4.578,1.696 6.236,3.405c1.658,1.709 2.487,3.839 2.487,6.39c0,1.938 -0.395,3.609 -1.186,5.012c-0.79,1.403 -1.836,2.55 -3.137,3.443c-1.301,0.893 -2.793,1.543 -4.477,1.951c-1.683,0.408 -3.392,0.613 -5.126,0.613c-2.755,-0 -5.319,-0.523 -7.691,-1.569c-2.372,-1.046 -4.4,-2.844 -6.083,-5.395l4.361,-2.984c1.021,1.632 2.309,2.933 3.865,3.902c1.556,0.97 3.405,1.454 5.548,1.454c1.02,0 2.04,-0.114 3.06,-0.344c1.021,-0.23 1.926,-0.587 2.717,-1.071c0.791,-0.485 1.428,-1.11 1.913,-1.875c0.485,-0.765 0.727,-1.658 0.727,-2.678c-0,-1.786 -0.663,-3.074 -1.99,-3.865c-1.326,-0.79 -2.933,-1.415 -4.821,-1.874l-4.897,-1.148c-0.612,-0.153 -1.441,-0.408 -2.487,-0.765c-1.046,-0.358 -2.066,-0.893 -3.061,-1.607c-0.994,-0.715 -1.849,-1.646 -2.563,-2.793c-0.714,-1.148 -1.071,-2.564 -1.071,-4.247c-0,-1.837 0.369,-3.444 1.109,-4.821c0.74,-1.377 1.735,-2.5 2.984,-3.367c1.25,-0.867 2.666,-1.518 4.247,-1.951c1.582,-0.434 3.214,-0.651 4.898,-0.651c2.499,0 4.821,0.485 6.963,1.454c2.143,0.969 3.801,2.627 4.974,4.974l-4.515,2.984Z" style="fill-rule:nonzero;stroke:black;stroke-width:1px;stroke-linecap:butt;stroke-miterlimit:2;"/>
    <path d="M1828.1,1791.8c-0.765,-1.479 -1.785,-2.652 -3.061,-3.52c-1.275,-0.867 -2.831,-1.3 -4.667,-1.3c-0.868,-0 -1.748,0.102 -2.64,0.306c-0.893,0.204 -1.697,0.523 -2.411,0.956c-0.714,0.434 -1.288,0.982 -1.722,1.645c-0.433,0.664 -0.65,1.48 -0.65,2.449c0,1.683 0.587,2.908 1.76,3.673c1.173,0.765 2.933,1.428 5.28,1.99l5.127,1.224c2.5,0.561 4.578,1.696 6.236,3.405c1.658,1.709 2.487,3.839 2.487,6.39c0,1.938 -0.395,3.609 -1.186,5.012c-0.791,1.403 -1.836,2.55 -3.137,3.443c-1.301,0.893 -2.793,1.543 -4.477,1.951c-1.683,0.408 -3.392,0.613 -5.127,0.613c-2.754,-0 -5.318,-0.523 -7.69,-1.569c-2.372,-1.046 -4.4,-2.844 -6.083,-5.395l4.361,-2.984c1.021,1.632 2.309,2.933 3.865,3.902c1.556,0.97 3.405,1.454 5.547,1.454c1.021,0 2.041,-0.114 3.061,-0.344c1.021,-0.23 1.926,-0.587 2.717,-1.071c0.79,-0.485 1.428,-1.11 1.913,-1.875c0.484,-0.765 0.727,-1.658 0.727,-2.678c-0,-1.786 -0.663,-3.074 -1.99,-3.865c-1.326,-0.79 -2.933,-1.415 -4.821,-1.874l-4.897,-1.148c-0.612,-0.153 -1.441,-0.408 -2.487,-0.765c-1.046,-0.358 -2.066,-0.893 -3.061,-1.607c-0.995,-0.715 -1.849,-1.646 -2.563,-2.793c-0.714,-1.148 -1.071,-2.564 -1.071,-4.247c-0,-1.837 0.369,-3.444 1.109,-4.821c0.74,-1.377 1.735,-2.5 2.984,-3.367c1.25,-0.867 2.666,-1.518 4.247,-1.951c1.582,-0.434 3.214,-0.651 4.898,-0.651c2.499,0 4.82,0.485 6.963,1.454c2.143,0.969 3.801,2.627 4.974,4.974l-4.515,2.984Z" style="fill-rule:nonzero;stroke:black;stroke-width:1px;stroke-linecap:butt;stroke-miterlimit:2;"/>
    <path d="M1872.4,1801.22c-0,-1.989 -0.319,-3.851 -0.957,-5.586c-0.637,-1.734 -1.543,-3.239 -2.716,-4.514c-1.174,-1.276 -2.589,-2.283 -4.247,-3.023c-1.658,-0.74 -3.533,-1.109 -5.624,-1.109c-2.092,-0 -3.967,0.369 -5.625,1.109c-1.658,0.74 -3.061,1.747 -4.208,3.023c-1.148,1.275 -2.041,2.78 -2.679,4.514c-0.637,1.735 -0.956,3.597 -0.956,5.586c-0,1.99 0.319,3.852 0.956,5.586c0.638,1.735 1.531,3.24 2.679,4.515c1.147,1.276 2.55,2.283 4.208,3.023c1.658,0.739 3.533,1.109 5.625,1.109c2.091,0 3.966,-0.37 5.624,-1.109c1.658,-0.74 3.073,-1.747 4.247,-3.023c1.173,-1.275 2.079,-2.78 2.716,-4.515c0.638,-1.734 0.957,-3.596 0.957,-5.586Zm5.509,0c0,2.704 -0.472,5.204 -1.415,7.499c-0.944,2.296 -2.258,4.286 -3.941,5.969c-1.684,1.684 -3.686,2.997 -6.007,3.941c-2.321,0.944 -4.885,1.416 -7.69,1.416c-2.755,-0 -5.293,-0.472 -7.614,-1.416c-2.321,-0.944 -4.324,-2.257 -6.007,-3.941c-1.684,-1.683 -2.997,-3.673 -3.941,-5.969c-0.944,-2.295 -1.416,-4.795 -1.416,-7.499c0,-2.703 0.472,-5.203 1.416,-7.499c0.944,-2.295 2.257,-4.285 3.941,-5.968c1.683,-1.684 3.686,-2.997 6.007,-3.941c2.321,-0.944 4.859,-1.416 7.614,-1.416c2.805,0 5.369,0.472 7.69,1.416c2.321,0.944 4.323,2.257 6.007,3.941c1.683,1.683 2.997,3.673 3.941,5.968c0.943,2.296 1.415,4.796 1.415,7.499Z" style="fill-rule:nonzero;stroke:black;stroke-width:1px;stroke-linecap:butt;stroke-miterlimit:2;"/>
    <path d="M1622.95,555.986c0,-10.395 8.44,-18.834 18.835,-18.834c10.394,0 18.834,8.439 18.834,18.834l-0,20.444c-0,10.394 -8.44,18.834 -18.834,18.834c-10.395,-0 -18.835,-8.44 -18.835,-18.834l0,-20.444Zm0,120.105c0,-10.395 8.44,-18.835 18.835,-18.835c10.394,0 18.834,8.44 18.834,18.835l-0,40.886c-0,10.394 -8.44,18.834 -18.834,18.834c-10.395,-0 -18.835,-8.44 -18.835,-18.834l0,-40.886Zm0,140.547c0,-10.395 8.44,-18.834 18.835,-18.834c10.394,-0 18.834,8.439 18.834,18.834l-0,40.886c-0,10.395 -8.44,18.834 -18.834,18.834c-10.395,0 -18.835,-8.439 -18.835,-18.834l0,-40.886Zm0,140.547c0,-10.395 8.44,-18.834 18.835,-18.834c10.394,-0 18.834,8.439 18.834,18.834l-0,40.886c-0,10.395 -8.44,18.834 -18.834,18.834c-10.395,0 -18.835,-8.439 -18.835,-18.834l0,-40.886Zm0,140.546c0,-10.395 8.44,-18.834 18.835,-18.834c10.394,-0 18.834,8.439 18.834,18.834l-0,20.443c-0,10.395 -8.44,18.835 -18.834,18.835c-10.395,-0 -18.835,-8.44 -18.835,-18.835l0,-20.443Z" style="fill:rgb(179,39,39);"/>
    <path d="M706.975,555.986l0,562.188" style="fill:none;"/>
    <path d="M688.141,555.986c0,-10.395 8.44,-18.834 18.834,-18.834c10.395,0 18.835,8.439 18.835,18.834l-0,20.444c-0,10.394 -8.44,18.834 -18.835,18.834c-10.394,-0 -18.834,-8.44 -18.834,-18.834l0,-20.444Zm0,120.105c0,-10.395 8.44,-18.835 18.834,-18.835c10.395,0 18.835,8.44 18.835,18.835l-0,40.886c-0,10.394 -8.44,18.834 -18.835,18.834c-10.394,-0 -18.834,-8.44 -18.834,-18.834l0,-40.886Zm0,140.547c0,-10.395 8.44,-18.834 18.834,-18.834c10.395,-0 18.835,8.439 18.835,18.834l-0,40.886c-0,10.395 -8.44,18.834 -18.835,18.834c-10.394,0 -18.834,-8.439 -18.834,-18.834l0,-40.886Zm0,140.547c0,-10.395 8.44,-18.834 18.834,-18.834c10.395,-0 18.835,8.439 18.835,18.834l-0,40.886c-0,10.395 -8.44,18.834 -18.835,18.834c-10.394,0 -18.834,-8.439 -18.834,-18.834l0,-40.886Zm0,140.546c0,-10.395 8.44,-18.834 18.834,-18.834c10.395,-0 18.835,8.439 18.835,18.834l-0,20.443c-0,10.395 -8.44,18.835 -18.835,18.835c-10.394,-0 -18.834,-8.44 -18.834,-18.835l0,-20.443Z" style="fill:rgb(209,78,41);"/>
    <path d="M692.279,1200.58c1.952,-0.524 4.38,-0.786 7.283,-0.786c4.951,0 8.665,1.286 11.14,3.856c2.428,2.619 4.713,6.856 6.855,12.711l29.492,72.837c0.714,1.428 1.547,2.785 2.5,4.07c0.999,1.286 2.285,1.928 3.856,1.928l3.642,0l-0,10.497l-7.498,0c-6.998,0 -11.807,-3.618 -14.425,-10.854l-17.852,-47.058l-22.065,57.912l-14.211,0l29.992,-73.551l-5.284,-14.067c-1.857,-4.761 -4.785,-7.046 -8.784,-6.855l-4.641,-0l-0,-10.64Z" style="fill:rgb(209,78,41);fill-rule:nonzero;stroke:rgb(209,78,41);stroke-width:1px;stroke-linecap:butt;stroke-miterlimit:2;"/>
    <path d="M1604.31,1200.58c1.952,-0.524 4.38,-0.786 7.284,-0.786c4.951,0 8.664,1.286 11.14,3.856c2.428,2.619 4.713,6.856 6.855,12.711l29.492,72.837c0.714,1.428 1.547,2.785 2.499,4.07c1,1.286 2.285,1.928 3.856,1.928l3.642,0l-0,10.497l-7.498,0c-6.998,0 -11.806,-3.618 -14.425,-10.854l-17.852,-47.058l-22.065,57.912l-14.21,0l29.991,-73.551l-5.284,-14.067c-1.857,-4.761 -4.784,-7.046 -8.783,-6.855l-4.642,-0l0,-10.64Z" style="fill:rgb(209,78,41);fill-rule:nonzero;stroke:rgb(209,78,41);stroke-width:1px;stroke-linecap:butt;stroke-miterlimit:2;"/>
    <path d="M826.822,1335.7l-204.958,0" style="fill:none;stroke:rgb(209,78,41);stroke-width:11.56px;"/>
    <path d="M1738.85,1335.7l-204.957,0" style="fill:none;stroke:rgb(209,78,41);stroke-width:11.56px;"/>
    <g transform="matrix(1,0,0,1,-487.624,-379.779)">
        <g transform="matrix(114.602,0,0,114.602,1093.86,1835.76)">
            <path d="M0.498,-0l-0.45,-0l0,-0.083l0.282,-0.287c0.011,-0.011 0.021,-0.022 0.032,-0.034c0.011,-0.012 0.02,-0.025 0.029,-0.038c0.009,-0.013 0.016,-0.027 0.021,-0.042c0.005,-0.015 0.008,-0.03 0.008,-0.046c-0,-0.019 -0.004,-0.037 -0.011,-0.052c-0.007,-0.015 -0.016,-0.028 -0.029,-0.039c-0.013,-0.011 -0.027,-0.019 -0.044,-0.024c-0.017,-0.006 -0.034,-0.009 -0.053,-0.009c-0.036,0 -0.067,0.01 -0.092,0.03c-0.025,0.02 -0.042,0.047 -0.049,0.081l-0.076,-0.008c0.01,-0.053 0.034,-0.094 0.073,-0.124c0.038,-0.03 0.084,-0.045 0.139,-0.045c0.029,0 0.056,0.004 0.081,0.012c0.026,0.007 0.049,0.019 0.068,0.034c0.02,0.015 0.036,0.035 0.047,0.058c0.012,0.023 0.018,0.049 0.018,0.08c-0,0.027 -0.004,0.052 -0.013,0.075c-0.008,0.023 -0.019,0.044 -0.032,0.064c-0.013,0.02 -0.029,0.039 -0.046,0.057c-0.017,0.018 -0.034,0.036 -0.052,0.053l-0.223,0.221l0.372,0l-0,0.066Z" style="fill:rgb(209,78,41);fill-rule:nonzero;stroke:rgb(209,78,41);stroke-width:0.01px;stroke-linecap:butt;stroke-miterlimit:2;"/>
        </g>
        <g transform="matrix(114.602,0,0,114.602,1189.44,1835.76)">
            <path d="M0.043,-0.084l0.279,-0.276l-0.267,-0.262l0,-0.084l0.5,-0l0,0.084l-0.38,-0l0.267,0.262l-0.279,0.276l0.405,0l-0,0.084l-0.525,0l-0,-0.084Z" style="fill:rgb(209,78,41);fill-rule:nonzero;stroke:rgb(209,78,41);stroke-width:0.01px;stroke-linecap:butt;stroke-miterlimit:2;"/>
        </g>
        <g transform="matrix(114.602,0,0,114.602,1259.44,1835.76)">
            <path d="M0.193,-0.25l-0.17,-0.218l0.09,-0l0.13,0.175l0.124,-0.175l0.082,-0l-0.163,0.218l0.196,0.25l-0.09,-0l-0.157,-0.205l-0.151,0.205l-0.084,-0l0.193,-0.25Z" style="fill:rgb(209,78,41);fill-rule:nonzero;stroke:rgb(209,78,41);stroke-width:0.01px;stroke-linecap:butt;stroke-miterlimit:2;"/>
        </g>
    </g>
    <g transform="matrix(1,0,0,1,424.404,-379.779)">
        <g transform="matrix(114.602,0,0,114.602,1093.86,1835.76)">
            <path d="M0.498,-0l-0.45,-0l0,-0.083l0.282,-0.287c0.011,-0.011 0.021,-0.022 0.032,-0.034c0.011,-0.012 0.02,-0.025 0.029,-0.038c0.009,-0.013 0.016,-0.027 0.021,-0.042c0.005,-0.015 0.008,-0.03 0.008,-0.046c-0,-0.019 -0.004,-0.037 -0.011,-0.052c-0.007,-0.015 -0.016,-0.028 -0.029,-0.039c-0.013,-0.011 -0.027,-0.019 -0.044,-0.024c-0.017,-0.006 -0.034,-0.009 -0.053,-0.009c-0.036,0 -0.067,0.01 -0.092,0.03c-0.025,0.02 -0.042,0.047 -0.049,0.081l-0.076,-0.008c0.01,-0.053 0.034,-0.094 0.073,-0.124c0.038,-0.03 0.084,-0.045 0.139,-0.045c0.029,0 0.056,0.004 0.081,0.012c0.026,0.007 0.049,0.019 0.068,0.034c0.02,0.015 0.036,0.035 0.047,0.058c0.012,0.023 0.018,0.049 0.018,0.08c-0,0.027 -0.004,0.052 -0.013,0.075c-0.008,0.023 -0.019,0.044 -0.032,0.064c-0.013,0.02 -0.029,0.039 -0.046,0.057c-0.017,0.018 -0.034,0.036 -0.052,0.053l-0.223,0.221l0.372,0l-0,0.066Z" style="fill:rgb(209,78,41);fill-rule:nonzero;stroke:rgb(209,78,41);stroke-width:0.01px;stroke-linecap:butt;stroke-miterlimit:2;"/>
        </g>
        <g transform="matrix(114.602,0,0,114.602,1189.44,1835.76)">
            <path d="M0.043,-0.084l0.279,-0.276l-0.267,-0.262l0,-0.084l0.5,-0l0,0.084l-0.38,-0l0.267,0.262l-0.279,0.276l0.405,0l-0,0.084l-0.525,0l-0,-0.084Z" style="fill:rgb(209,78,41);fill-rule:nonzero;stroke:rgb(209,78,41);stroke-width:0.01px;stroke-linecap:butt;stroke-miterlimit:2;"/>
        </g>
        <g transform="matrix(114.602,0,0,114.602,1259.44,1835.76)">
            <path d="M0.193,-0.25l-0.17,-0.218l0.09,-0l0.13,0.175l0.124,-0.175l0.082,-0l-0.163,0.218l0.196,0.25l-0.09,-0l-0.157,-0.205l-0.151,0.205l-0.084,-0l0.193,-0.25Z" style="fill:rgb(209,78,41);fill-rule:nonzero;stroke:rgb(209,78,41);stroke-width:0.01px;stroke-linecap:butt;stroke-miterlimit:2;"/>
        </g>
    </g>
    <path d="M841.733,1449.38c-0,0.82 -0.293,1.494 -0.879,2.022c-0.586,0.527 -1.23,0.79 -1.934,0.79c-0.703,0 -1.347,-0.263 -1.933,-0.79c-0.586,-0.528 -0.879,-1.202 -0.879,-2.022c0,-0.82 0.293,-1.494 0.879,-2.021c0.586,-0.528 1.23,-0.791 1.933,-0.791c0.704,-0 1.348,0.263 1.934,0.791c0.586,0.527 0.879,1.201 0.879,2.021Zm-0.879,37.967l-3.867,-0l-0,-27.421l3.867,0l-0,27.421Z" style="fill:rgb(209,78,41);fill-rule:nonzero;stroke:rgb(209,78,41);stroke-width:1px;stroke-linecap:butt;stroke-miterlimit:2;"/>
    <path d="M1753.76,1449.38c0,0.82 -0.293,1.494 -0.879,2.022c-0.586,0.527 -1.23,0.79 -1.933,0.79c-0.703,0 -1.348,-0.263 -1.934,-0.79c-0.585,-0.528 -0.878,-1.202 -0.878,-2.022c-0,-0.82 0.293,-1.494 0.878,-2.021c0.586,-0.528 1.231,-0.791 1.934,-0.791c0.703,-0 1.347,0.263 1.933,0.791c0.586,0.527 0.879,1.201 0.879,2.021Zm-0.879,37.967l-3.867,-0l0,-27.421l3.867,0l0,27.421Z" style="fill:rgb(209,78,41);fill-rule:nonzero;stroke:rgb(209,78,41);stroke-width:1px;stroke-linecap:butt;stroke-miterlimit:2;"/>
    <rect x="505.441" y="1328.91" width="58.79" height="15.098" style="fill:rgb(209,78,41);fill-rule:nonzero;stroke:rgb(209,78,41);stroke-width:1px;stroke-linecap:butt;stroke-miterlimit:2;"/>
    <path d="M75.668,1706.05c-2.153,-3.293 -5.161,-6.079 -9.024,-8.359c-3.863,-2.28 -8.264,-3.419 -13.203,-3.419c-5.192,-0.127 -9.847,0.696 -13.963,2.469c-4.116,1.773 -7.63,4.243 -10.543,7.409c-2.913,3.166 -5.129,6.934 -6.649,11.303c-1.52,4.37 -2.28,9.087 -2.28,14.153c0,5.066 0.76,9.784 2.28,14.153c1.52,4.369 3.736,8.137 6.649,11.303c2.913,3.166 6.427,5.636 10.543,7.409c4.116,1.773 8.771,2.596 13.963,2.47c4.939,-0 9.34,-1.14 13.203,-3.42c3.863,-2.28 6.871,-5.066 9.024,-8.359l10.258,7.789c-4.432,5.193 -9.435,9.024 -15.008,11.493c-5.572,2.47 -11.398,3.768 -17.477,3.895c-7.219,0.127 -13.741,-0.982 -19.567,-3.325c-5.826,-2.343 -10.796,-5.604 -14.912,-9.783c-4.117,-4.179 -7.251,-9.15 -9.404,-14.913c-2.153,-5.762 -3.23,-12 -3.23,-18.712c0,-6.712 1.077,-12.95 3.23,-18.712c2.153,-5.762 5.287,-10.733 9.404,-14.913c4.116,-4.179 9.086,-7.44 14.912,-9.783c5.826,-2.343 12.348,-3.451 19.567,-3.325c6.079,0.127 11.905,1.425 17.477,3.895c5.573,2.469 10.576,6.3 15.008,11.493l-10.258,7.789Z" style="fill-rule:nonzero;stroke:black;stroke-width:1px;stroke-linecap:butt;stroke-miterlimit:2;"/>
    <path d="M178.632,1729.6c-0,-4.939 -0.792,-9.562 -2.375,-13.868c-1.583,-4.306 -3.831,-8.042 -6.744,-11.208c-2.913,-3.166 -6.427,-5.668 -10.543,-7.504c-4.116,-1.836 -8.77,-2.754 -13.963,-2.754c-5.192,-0 -9.847,0.918 -13.963,2.754c-4.116,1.836 -7.599,4.338 -10.448,7.504c-2.85,3.166 -5.066,6.902 -6.649,11.208c-1.583,4.306 -2.375,8.929 -2.375,13.868c0,4.939 0.792,9.562 2.375,13.868c1.583,4.306 3.799,8.042 6.649,11.208c2.849,3.166 6.332,5.668 10.448,7.504c4.116,1.836 8.771,2.755 13.963,2.755c5.193,-0 9.847,-0.919 13.963,-2.755c4.116,-1.836 7.63,-4.338 10.543,-7.504c2.913,-3.166 5.161,-6.902 6.744,-11.208c1.583,-4.306 2.375,-8.929 2.375,-13.868Zm13.678,0c-0,6.712 -1.172,12.918 -3.515,18.617c-2.343,5.699 -5.604,10.639 -9.783,14.818c-4.18,4.179 -9.15,7.44 -14.913,9.783c-5.762,2.343 -12.126,3.515 -19.092,3.515c-6.839,-0 -13.14,-1.172 -18.902,-3.515c-5.762,-2.343 -10.733,-5.604 -14.913,-9.783c-4.179,-4.179 -7.44,-9.119 -9.783,-14.818c-2.343,-5.699 -3.515,-11.905 -3.515,-18.617c0,-6.712 1.172,-12.918 3.515,-18.617c2.343,-5.699 5.604,-10.638 9.783,-14.818c4.18,-4.179 9.151,-7.44 14.913,-9.783c5.762,-2.343 12.063,-3.515 18.902,-3.515c6.966,0 13.33,1.172 19.092,3.515c5.763,2.343 10.733,5.604 14.913,9.783c4.179,4.18 7.44,9.119 9.783,14.818c2.343,5.699 3.515,11.905 3.515,18.617Z" style="fill-rule:nonzero;stroke:black;stroke-width:1px;stroke-linecap:butt;stroke-miterlimit:2;"/>
    <path d="M227.074,1685.15c0.254,2.406 0.412,4.781 0.475,7.124c0.064,2.343 0.095,4.717 0.095,7.124l0.38,-0c1.393,-2.407 3.166,-4.623 5.319,-6.649c2.153,-2.027 4.56,-3.768 7.219,-5.224c2.66,-1.457 5.478,-2.597 8.454,-3.42c2.976,-0.823 5.921,-1.235 8.834,-1.235c11.398,0 19.82,3.008 25.266,9.024c5.446,6.016 8.168,14.596 8.168,25.741l0,56.421l-12.538,0l0,-49.202c0,-9.879 -1.709,-17.446 -5.129,-22.702c-3.419,-5.256 -9.752,-7.883 -18.997,-7.883c-0.633,-0 -2.406,0.253 -5.319,0.759c-2.913,0.507 -5.984,1.9 -9.214,4.18c-3.229,2.279 -6.11,5.699 -8.643,10.258c-2.533,4.559 -3.8,10.892 -3.8,18.997l0,45.593l-12.538,0l0,-69.339c0,-2.406 -0.095,-5.446 -0.285,-9.119c-0.19,-3.672 -0.411,-7.155 -0.665,-10.448l12.918,-0Z" style="fill-rule:nonzero;stroke:black;stroke-width:1px;stroke-linecap:butt;stroke-miterlimit:2;"/>
    <path d="M367.843,1706.24c-1.9,-3.673 -4.433,-6.586 -7.599,-8.739c-3.166,-2.153 -7.029,-3.229 -11.588,-3.229c-2.153,-0 -4.338,0.253 -6.554,0.759c-2.217,0.507 -4.211,1.299 -5.984,2.375c-1.774,1.077 -3.198,2.438 -4.275,4.084c-1.076,1.647 -1.615,3.673 -1.615,6.079c0,4.18 1.457,7.219 4.37,9.119c2.913,1.9 7.282,3.546 13.108,4.939l12.728,3.04c6.206,1.393 11.366,4.211 15.482,8.454c4.116,4.242 6.174,9.53 6.174,15.862c0,4.813 -0.981,8.96 -2.944,12.443c-1.963,3.483 -4.559,6.333 -7.789,8.549c-3.229,2.216 -6.934,3.831 -11.113,4.844c-4.18,1.013 -8.422,1.52 -12.728,1.52c-6.839,-0 -13.203,-1.298 -19.092,-3.895c-5.889,-2.596 -10.924,-7.06 -15.103,-13.392l10.828,-7.409c2.533,4.052 5.731,7.282 9.594,9.688c3.863,2.406 8.454,3.61 13.773,3.61c2.533,-0 5.066,-0.285 7.599,-0.855c2.533,-0.57 4.781,-1.457 6.744,-2.66c1.963,-1.203 3.546,-2.754 4.749,-4.654c1.203,-1.9 1.805,-4.116 1.805,-6.649c-0,-4.433 -1.647,-7.631 -4.94,-9.594c-3.293,-1.963 -7.282,-3.514 -11.968,-4.654l-12.158,-2.849c-1.52,-0.38 -3.578,-1.014 -6.174,-1.9c-2.596,-0.887 -5.129,-2.216 -7.599,-3.99c-2.469,-1.773 -4.591,-4.084 -6.364,-6.933c-1.773,-2.85 -2.659,-6.364 -2.659,-10.544c-0,-4.559 0.918,-8.549 2.754,-11.968c1.837,-3.419 4.306,-6.206 7.409,-8.359c3.103,-2.153 6.617,-3.767 10.543,-4.844c3.926,-1.076 7.979,-1.615 12.158,-1.615c6.206,0 11.969,1.203 17.288,3.61c5.319,2.406 9.435,6.522 12.348,12.348l-11.208,7.409Z" style="fill-rule:nonzero;stroke:black;stroke-width:1px;stroke-linecap:butt;stroke-miterlimit:2;"/>
    <path d="M419.895,1650.95c-0,2.66 -0.95,4.844 -2.85,6.554c-1.9,1.71 -3.989,2.565 -6.269,2.565c-2.28,-0 -4.369,-0.855 -6.269,-2.565c-1.9,-1.71 -2.85,-3.894 -2.85,-6.554c0,-2.659 0.95,-4.844 2.85,-6.554c1.9,-1.71 3.989,-2.564 6.269,-2.564c2.28,-0 4.369,0.854 6.269,2.564c1.9,1.71 2.85,3.895 2.85,6.554Zm-2.85,123.101l-12.538,0l-0,-88.906l12.538,-0l0,88.906Z" style="fill-rule:nonzero;stroke:black;stroke-width:1px;stroke-linecap:butt;stroke-miterlimit:2;"/>
    <path d="M494.363,1706.24c-1.9,-3.673 -4.433,-6.586 -7.599,-8.739c-3.166,-2.153 -7.029,-3.229 -11.588,-3.229c-2.153,-0 -4.338,0.253 -6.554,0.759c-2.216,0.507 -4.211,1.299 -5.984,2.375c-1.773,1.077 -3.198,2.438 -4.274,4.084c-1.077,1.647 -1.615,3.673 -1.615,6.079c-0,4.18 1.456,7.219 4.369,9.119c2.913,1.9 7.282,3.546 13.108,4.939l12.728,3.04c6.206,1.393 11.367,4.211 15.483,8.454c4.116,4.242 6.174,9.53 6.174,15.862c-0,4.813 -0.982,8.96 -2.945,12.443c-1.963,3.483 -4.559,6.333 -7.788,8.549c-3.23,2.216 -6.934,3.831 -11.114,4.844c-4.179,1.013 -8.422,1.52 -12.728,1.52c-6.839,-0 -13.203,-1.298 -19.092,-3.895c-5.889,-2.596 -10.923,-7.06 -15.102,-13.392l10.828,-7.409c2.533,4.052 5.731,7.282 9.593,9.688c3.863,2.406 8.454,3.61 13.773,3.61c2.533,-0 5.066,-0.285 7.599,-0.855c2.533,-0.57 4.781,-1.457 6.744,-2.66c1.963,-1.203 3.546,-2.754 4.749,-4.654c1.203,-1.9 1.805,-4.116 1.805,-6.649c0,-4.433 -1.646,-7.631 -4.939,-9.594c-3.293,-1.963 -7.282,-3.514 -11.968,-4.654l-12.158,-2.849c-1.52,-0.38 -3.578,-1.014 -6.175,-1.9c-2.596,-0.887 -5.129,-2.216 -7.598,-3.99c-2.47,-1.773 -4.591,-4.084 -6.364,-6.933c-1.773,-2.85 -2.66,-6.364 -2.66,-10.544c0,-4.559 0.918,-8.549 2.755,-11.968c1.836,-3.419 4.306,-6.206 7.408,-8.359c3.103,-2.153 6.618,-3.767 10.544,-4.844c3.926,-1.076 7.979,-1.615 12.158,-1.615c6.206,0 11.968,1.203 17.287,3.61c5.319,2.406 9.435,6.522 12.348,12.348l-11.208,7.409Z" style="fill-rule:nonzero;stroke:black;stroke-width:1px;stroke-linecap:butt;stroke-miterlimit:2;"/>
    <path d="M574.151,1696.55l-25.646,0l-0,52.432c-0,3.293 0.316,5.984 0.95,8.074c0.633,2.09 1.519,3.704 2.659,4.844c1.14,1.14 2.501,1.931 4.085,2.375c1.583,0.443 3.324,0.665 5.224,0.665c2.153,-0 4.369,-0.317 6.649,-0.95c2.279,-0.633 4.369,-1.457 6.269,-2.47l0.57,11.588c-4.686,2.153 -10.322,3.23 -16.908,3.23c-2.406,-0 -4.907,-0.317 -7.504,-0.95c-2.596,-0.633 -4.97,-1.836 -7.123,-3.609c-2.153,-1.773 -3.927,-4.18 -5.32,-7.219c-1.393,-3.04 -2.089,-7.029 -2.089,-11.968l-0,-56.042l-18.807,0l-0,-11.398l18.807,-0l-0,-25.076l12.538,-0l-0,25.076l25.646,-0l-0,11.398Z" style="fill-rule:nonzero;stroke:black;stroke-width:1px;stroke-linecap:butt;stroke-miterlimit:2;"/>
    <path d="M660.397,1722.76c0,-8.485 -2.532,-15.356 -7.598,-20.612c-5.066,-5.256 -12.158,-7.883 -21.277,-7.883c-4.053,-0 -7.979,0.791 -11.778,2.374c-3.8,1.583 -7.124,3.705 -9.974,6.364c-2.849,2.66 -5.129,5.699 -6.839,9.119c-1.709,3.419 -2.564,6.965 -2.564,10.638l60.03,0Zm-60.41,10.259c0.38,4.432 1.456,8.612 3.229,12.538c1.773,3.926 4.116,7.313 7.029,10.163c2.913,2.85 6.269,5.098 10.069,6.744c3.799,1.646 7.915,2.47 12.348,2.47c6.712,-0 12.506,-1.552 17.382,-4.655c4.876,-3.103 8.58,-6.68 11.113,-10.733l9.689,7.979c-5.319,6.712 -11.177,11.525 -17.572,14.438c-6.396,2.912 -13.267,4.369 -20.612,4.369c-6.586,-0 -12.697,-1.172 -18.332,-3.515c-5.636,-2.343 -10.48,-5.604 -14.533,-9.783c-4.053,-4.179 -7.251,-9.119 -9.594,-14.818c-2.343,-5.699 -3.514,-11.905 -3.514,-18.617c-0,-6.712 1.14,-12.918 3.419,-18.617c2.28,-5.699 5.446,-10.638 9.499,-14.818c4.053,-4.179 8.802,-7.44 14.248,-9.783c5.445,-2.343 11.335,-3.515 17.667,-3.515c6.712,0 12.728,1.203 18.047,3.61c5.319,2.406 9.784,5.604 13.393,9.593c3.61,3.99 6.364,8.676 8.264,14.058c1.9,5.383 2.849,11.113 2.849,17.192l0,5.7l-74.088,-0Z" style="fill-rule:nonzero;stroke:black;stroke-width:1px;stroke-linecap:butt;stroke-miterlimit:2;"/>
    <path d="M708.84,1685.15c0.253,2.406 0.412,4.781 0.475,7.124c0.063,2.343 0.095,4.717 0.095,7.124l0.38,-0c1.393,-2.407 3.166,-4.623 5.319,-6.649c2.153,-2.027 4.559,-3.768 7.219,-5.224c2.66,-1.457 5.477,-2.597 8.454,-3.42c2.976,-0.823 5.92,-1.235 8.833,-1.235c11.398,0 19.821,3.008 25.266,9.024c5.446,6.016 8.169,14.596 8.169,25.741l0,56.421l-12.538,0l0,-49.202c0,-9.879 -1.71,-17.446 -5.129,-22.702c-3.42,-5.256 -9.752,-7.883 -18.997,-7.883c-0.633,-0 -2.407,0.253 -5.319,0.759c-2.913,0.507 -5.985,1.9 -9.214,4.18c-3.23,2.279 -6.111,5.699 -8.644,10.258c-2.533,4.559 -3.799,10.892 -3.799,18.997l-0,45.593l-12.538,0l-0,-69.339c-0,-2.406 -0.095,-5.446 -0.285,-9.119c-0.19,-3.672 -0.412,-7.155 -0.665,-10.448l12.918,-0Z" style="fill-rule:nonzero;stroke:black;stroke-width:1px;stroke-linecap:butt;stroke-miterlimit:2;"/>
    <path d="M867.276,1706.05c-2.153,-3.293 -5.161,-6.079 -9.024,-8.359c-3.863,-2.28 -8.264,-3.419 -13.203,-3.419c-5.193,-0.127 -9.847,0.696 -13.963,2.469c-4.116,1.773 -7.63,4.243 -10.543,7.409c-2.913,3.166 -5.129,6.934 -6.649,11.303c-1.52,4.37 -2.28,9.087 -2.28,14.153c0,5.066 0.76,9.784 2.28,14.153c1.52,4.369 3.736,8.137 6.649,11.303c2.913,3.166 6.427,5.636 10.543,7.409c4.116,1.773 8.77,2.596 13.963,2.47c4.939,-0 9.34,-1.14 13.203,-3.42c3.863,-2.28 6.871,-5.066 9.024,-8.359l10.258,7.789c-4.433,5.193 -9.435,9.024 -15.008,11.493c-5.572,2.47 -11.398,3.768 -17.477,3.895c-7.219,0.127 -13.741,-0.982 -19.567,-3.325c-5.826,-2.343 -10.797,-5.604 -14.913,-9.783c-4.116,-4.179 -7.25,-9.15 -9.403,-14.913c-2.153,-5.762 -3.23,-12 -3.23,-18.712c0,-6.712 1.077,-12.95 3.23,-18.712c2.153,-5.762 5.287,-10.733 9.403,-14.913c4.116,-4.179 9.087,-7.44 14.913,-9.783c5.826,-2.343 12.348,-3.451 19.567,-3.325c6.079,0.127 11.905,1.425 17.477,3.895c5.573,2.469 10.575,6.3 15.008,11.493l-10.258,7.789Z" style="fill-rule:nonzero;stroke:black;stroke-width:1px;stroke-linecap:butt;stroke-miterlimit:2;"/>
    <path d="M927.116,1758.67l27.166,-73.519l15.198,-0l-44.453,112.083c-2.66,6.839 -6.048,12.284 -10.164,16.337c-4.116,4.053 -10.037,6.079 -17.762,6.079c-1.9,0 -3.831,-0.063 -5.794,-0.19c-1.963,-0.126 -3.895,-0.506 -5.794,-1.14l1.33,-12.158c2.659,1.393 5.825,2.09 9.498,2.09c4.433,-0 7.915,-1.393 10.448,-4.179c2.533,-2.787 4.75,-6.713 6.649,-11.779l6.459,-17.097l-36.474,-90.046l15.768,-0l27.925,73.519Z" style="fill-rule:nonzero;stroke:black;stroke-width:1px;stroke-linecap:butt;stroke-miterlimit:2;"/>
    <path d="M1079.85,1696.55l-21.087,0l-0,77.508l-12.538,0l-0,-77.508l-18.807,0l-0,-11.398l18.807,-0l-0,-24.316c-0,-11.778 2.723,-20.169 8.169,-25.171c5.445,-5.003 12.664,-7.504 21.656,-7.504c1.773,-0 3.578,0.126 5.414,0.38c1.837,0.253 3.642,0.57 5.415,0.95l-2.28,11.398c-1.52,-0.38 -3.103,-0.697 -4.749,-0.95c-1.647,-0.253 -3.293,-0.38 -4.94,-0.38c-3.419,-0 -6.205,0.57 -8.358,1.71c-2.153,1.14 -3.8,2.754 -4.939,4.844c-1.14,2.09 -1.9,4.528 -2.28,7.314c-0.38,2.786 -0.57,5.762 -0.57,8.928l-0,22.797l21.087,-0l-0,11.398Z" style="fill-rule:nonzero;stroke:black;stroke-width:1px;stroke-linecap:butt;stroke-miterlimit:2;"/>
    <path d="M1170.85,1729.6c-0,-4.939 -0.792,-9.562 -2.375,-13.868c-1.583,-4.306 -3.831,-8.042 -6.744,-11.208c-2.913,-3.166 -6.427,-5.668 -10.543,-7.504c-4.116,-1.836 -8.771,-2.754 -13.963,-2.754c-5.193,-0 -9.847,0.918 -13.963,2.754c-4.116,1.836 -7.599,4.338 -10.448,7.504c-2.85,3.166 -5.066,6.902 -6.649,11.208c-1.583,4.306 -2.375,8.929 -2.375,13.868c0,4.939 0.792,9.562 2.375,13.868c1.583,4.306 3.799,8.042 6.649,11.208c2.849,3.166 6.332,5.668 10.448,7.504c4.116,1.836 8.77,2.755 13.963,2.755c5.192,-0 9.847,-0.919 13.963,-2.755c4.116,-1.836 7.63,-4.338 10.543,-7.504c2.913,-3.166 5.161,-6.902 6.744,-11.208c1.583,-4.306 2.375,-8.929 2.375,-13.868Zm13.678,0c-0,6.712 -1.172,12.918 -3.515,18.617c-2.343,5.699 -5.604,10.639 -9.783,14.818c-4.18,4.179 -9.151,7.44 -14.913,9.783c-5.763,2.343 -12.127,3.515 -19.092,3.515c-6.839,-0 -13.14,-1.172 -18.902,-3.515c-5.763,-2.343 -10.734,-5.604 -14.913,-9.783c-4.179,-4.179 -7.44,-9.119 -9.783,-14.818c-2.343,-5.699 -3.515,-11.905 -3.515,-18.617c0,-6.712 1.172,-12.918 3.515,-18.617c2.343,-5.699 5.604,-10.638 9.783,-14.818c4.179,-4.179 9.15,-7.44 14.913,-9.783c5.762,-2.343 12.063,-3.515 18.902,-3.515c6.965,0 13.329,1.172 19.092,3.515c5.762,2.343 10.733,5.604 14.913,9.783c4.179,4.18 7.44,9.119 9.783,14.818c2.343,5.699 3.515,11.905 3.515,18.617Z" style="fill-rule:nonzero;stroke:black;stroke-width:1px;stroke-linecap:butt;stroke-miterlimit:2;"/>
    <path d="M1208.65,1712.89c-0,-3.926 -0.095,-7.916 -0.285,-11.968c-0.19,-4.053 -0.348,-9.309 -0.475,-15.768l12.348,-0l0,16.527l0.38,0c0.887,-2.406 2.153,-4.717 3.799,-6.934c1.647,-2.216 3.642,-4.211 5.984,-5.984c2.343,-1.773 5.066,-3.197 8.169,-4.274c3.103,-1.076 6.618,-1.615 10.544,-1.615c3.546,0 6.649,0.38 9.308,1.14l-2.469,12.348c-1.647,-0.633 -4.053,-0.95 -7.219,-0.95c-4.813,0 -8.929,0.919 -12.348,2.755c-3.42,1.836 -6.269,4.179 -8.549,7.029c-2.28,2.849 -3.958,5.921 -5.034,9.213c-1.077,3.293 -1.615,6.459 -1.615,9.499l-0,50.152l-12.538,0l-0,-61.17Z" style="fill-rule:nonzero;stroke:black;stroke-width:1px;stroke-linecap:butt;stroke-miterlimit:2;"/>
    <path d="M1331.75,1706.05c-2.153,-3.293 -5.161,-6.079 -9.024,-8.359c-3.863,-2.28 -8.264,-3.419 -13.203,-3.419c-5.192,-0.127 -9.847,0.696 -13.963,2.469c-4.116,1.773 -7.63,4.243 -10.543,7.409c-2.913,3.166 -5.129,6.934 -6.649,11.303c-1.52,4.37 -2.28,9.087 -2.28,14.153c0,5.066 0.76,9.784 2.28,14.153c1.52,4.369 3.736,8.137 6.649,11.303c2.913,3.166 6.427,5.636 10.543,7.409c4.116,1.773 8.771,2.596 13.963,2.47c4.939,-0 9.34,-1.14 13.203,-3.42c3.863,-2.28 6.871,-5.066 9.024,-8.359l10.258,7.789c-4.432,5.193 -9.435,9.024 -15.007,11.493c-5.573,2.47 -11.399,3.768 -17.478,3.895c-7.219,0.127 -13.741,-0.982 -19.567,-3.325c-5.825,-2.343 -10.796,-5.604 -14.912,-9.783c-4.116,-4.179 -7.251,-9.15 -9.404,-14.913c-2.153,-5.762 -3.229,-12 -3.229,-18.712c-0,-6.712 1.076,-12.95 3.229,-18.712c2.153,-5.762 5.288,-10.733 9.404,-14.913c4.116,-4.179 9.087,-7.44 14.912,-9.783c5.826,-2.343 12.348,-3.451 19.567,-3.325c6.079,0.127 11.905,1.425 17.478,3.895c5.572,2.469 10.575,6.3 15.007,11.493l-10.258,7.789Z" style="fill-rule:nonzero;stroke:black;stroke-width:1px;stroke-linecap:butt;stroke-miterlimit:2;"/>
    <path d="M1427.69,1722.76c0,-8.485 -2.533,-15.356 -7.599,-20.612c-5.066,-5.256 -12.158,-7.883 -21.277,-7.883c-4.052,-0 -7.978,0.791 -11.778,2.374c-3.799,1.583 -7.124,3.705 -9.973,6.364c-2.85,2.66 -5.129,5.699 -6.839,9.119c-1.71,3.419 -2.565,6.965 -2.565,10.638l60.031,0Zm-60.411,10.259c0.38,4.432 1.457,8.612 3.23,12.538c1.773,3.926 4.116,7.313 7.029,10.163c2.913,2.85 6.269,5.098 10.068,6.744c3.8,1.646 7.916,2.47 12.348,2.47c6.713,-0 12.507,-1.552 17.383,-4.655c4.876,-3.103 8.58,-6.68 11.113,-10.733l9.688,7.979c-5.319,6.712 -11.176,11.525 -17.572,14.438c-6.396,2.912 -13.266,4.369 -20.612,4.369c-6.585,-0 -12.696,-1.172 -18.332,-3.515c-5.636,-2.343 -10.48,-5.604 -14.533,-9.783c-4.052,-4.179 -7.25,-9.119 -9.593,-14.818c-2.343,-5.699 -3.515,-11.905 -3.515,-18.617c0,-6.712 1.14,-12.918 3.42,-18.617c2.28,-5.699 5.446,-10.638 9.498,-14.818c4.053,-4.179 8.802,-7.44 14.248,-9.783c5.446,-2.343 11.335,-3.515 17.667,-3.515c6.713,0 12.729,1.203 18.048,3.61c5.319,2.406 9.783,5.604 13.393,9.593c3.609,3.99 6.364,8.676 8.263,14.058c1.9,5.383 2.85,11.113 2.85,17.192l-0,5.7l-74.089,-0Z" style="fill-rule:nonzero;stroke:black;stroke-width:1px;stroke-linecap:butt;stroke-miterlimit:2;"/>
    <path d="M1511.28,1706.24c-1.9,-3.673 -4.433,-6.586 -7.599,-8.739c-3.166,-2.153 -7.029,-3.229 -11.588,-3.229c-2.153,-0 -4.338,0.253 -6.554,0.759c-2.216,0.507 -4.211,1.299 -5.984,2.375c-1.773,1.077 -3.198,2.438 -4.274,4.084c-1.077,1.647 -1.615,3.673 -1.615,6.079c-0,4.18 1.456,7.219 4.369,9.119c2.913,1.9 7.282,3.546 13.108,4.939l12.728,3.04c6.206,1.393 11.367,4.211 15.483,8.454c4.116,4.242 6.174,9.53 6.174,15.862c-0,4.813 -0.982,8.96 -2.945,12.443c-1.963,3.483 -4.559,6.333 -7.788,8.549c-3.23,2.216 -6.934,3.831 -11.114,4.844c-4.179,1.013 -8.422,1.52 -12.728,1.52c-6.839,-0 -13.203,-1.298 -19.092,-3.895c-5.889,-2.596 -10.923,-7.06 -15.102,-13.392l10.828,-7.409c2.533,4.052 5.731,7.282 9.593,9.688c3.863,2.406 8.454,3.61 13.773,3.61c2.533,-0 5.066,-0.285 7.599,-0.855c2.533,-0.57 4.781,-1.457 6.744,-2.66c1.963,-1.203 3.546,-2.754 4.749,-4.654c1.203,-1.9 1.805,-4.116 1.805,-6.649c0,-4.433 -1.646,-7.631 -4.939,-9.594c-3.293,-1.963 -7.282,-3.514 -11.968,-4.654l-12.158,-2.849c-1.52,-0.38 -3.578,-1.014 -6.175,-1.9c-2.596,-0.887 -5.129,-2.216 -7.598,-3.99c-2.47,-1.773 -4.591,-4.084 -6.364,-6.933c-1.773,-2.85 -2.66,-6.364 -2.66,-10.544c0,-4.559 0.918,-8.549 2.755,-11.968c1.836,-3.419 4.306,-6.206 7.408,-8.359c3.103,-2.153 6.618,-3.767 10.544,-4.844c3.926,-1.076 7.979,-1.615 12.158,-1.615c6.206,0 11.968,1.203 17.287,3.61c5.319,2.406 9.435,6.522 12.348,12.348l-11.208,7.409Z" style="fill-rule:nonzero;stroke:black;stroke-width:1px;stroke-linecap:butt;stroke-miterlimit:2;"/>
    <path d="M1960.75,1696.55l-25.646,0l-0,52.432c-0,3.293 0.316,5.984 0.95,8.074c0.633,2.09 1.519,3.704 2.659,4.844c1.14,1.14 2.501,1.931 4.084,2.375c1.584,0.443 3.325,0.665 5.225,0.665c2.153,-0 4.369,-0.317 6.649,-0.95c2.279,-0.633 4.369,-1.457 6.269,-2.47l0.57,11.588c-4.686,2.153 -10.322,3.23 -16.908,3.23c-2.406,-0 -4.907,-0.317 -7.504,-0.95c-2.596,-0.633 -4.971,-1.836 -7.124,-3.609c-2.153,-1.773 -3.926,-4.18 -5.319,-7.219c-1.393,-3.04 -2.089,-7.029 -2.089,-11.968l-0,-56.042l-18.807,0l-0,-11.398l18.807,-0l-0,-25.076l12.538,-0l-0,25.076l25.646,-0l-0,11.398Z" style="fill-rule:nonzero;stroke:black;stroke-width:1px;stroke-linecap:butt;stroke-miterlimit:2;"/>
    <path d="M2054.02,1729.6c0,-4.939 -0.791,-9.562 -2.374,-13.868c-1.583,-4.306 -3.831,-8.042 -6.744,-11.208c-2.913,-3.166 -6.428,-5.668 -10.544,-7.504c-4.116,-1.836 -8.77,-2.754 -13.962,-2.754c-5.193,-0 -9.847,0.918 -13.963,2.754c-4.116,1.836 -7.599,4.338 -10.449,7.504c-2.849,3.166 -5.066,6.902 -6.649,11.208c-1.583,4.306 -2.374,8.929 -2.374,13.868c-0,4.939 0.791,9.562 2.374,13.868c1.583,4.306 3.8,8.042 6.649,11.208c2.85,3.166 6.333,5.668 10.449,7.504c4.116,1.836 8.77,2.755 13.963,2.755c5.192,-0 9.846,-0.919 13.962,-2.755c4.116,-1.836 7.631,-4.338 10.544,-7.504c2.913,-3.166 5.161,-6.902 6.744,-11.208c1.583,-4.306 2.374,-8.929 2.374,-13.868Zm13.678,0c0,6.712 -1.171,12.918 -3.514,18.617c-2.343,5.699 -5.604,10.639 -9.784,14.818c-4.179,4.179 -9.15,7.44 -14.912,9.783c-5.763,2.343 -12.127,3.515 -19.092,3.515c-6.839,-0 -13.14,-1.172 -18.903,-3.515c-5.762,-2.343 -10.733,-5.604 -14.912,-9.783c-4.18,-4.179 -7.441,-9.119 -9.784,-14.818c-2.343,-5.699 -3.514,-11.905 -3.514,-18.617c-0,-6.712 1.171,-12.918 3.514,-18.617c2.343,-5.699 5.604,-10.638 9.784,-14.818c4.179,-4.179 9.15,-7.44 14.912,-9.783c5.763,-2.343 12.064,-3.515 18.903,-3.515c6.965,0 13.329,1.172 19.092,3.515c5.762,2.343 10.733,5.604 14.912,9.783c4.18,4.18 7.441,9.119 9.784,14.818c2.343,5.699 3.514,11.905 3.514,18.617Z" style="fill-rule:nonzero;stroke:black;stroke-width:1px;stroke-linecap:butt;stroke-miterlimit:2;"/>
    <path d="M2204.29,1694.27l-52.052,68.389l53.952,-0l-0,11.398l-72.189,0l-0,-9.118l52.052,-68.39l-49.392,0l-0,-11.398l67.629,-0l0,9.119Z" style="fill-rule:nonzero;stroke:black;stroke-width:1px;stroke-linecap:butt;stroke-miterlimit:2;"/>
    <path d="M2293.39,1722.76c0,-8.485 -2.533,-15.356 -7.598,-20.612c-5.066,-5.256 -12.159,-7.883 -21.277,-7.883c-4.053,-0 -7.979,0.791 -11.778,2.374c-3.8,1.583 -7.124,3.705 -9.974,6.364c-2.849,2.66 -5.129,5.699 -6.839,9.119c-1.71,3.419 -2.564,6.965 -2.564,10.638l60.03,0Zm-60.41,10.259c0.38,4.432 1.456,8.612 3.229,12.538c1.773,3.926 4.116,7.313 7.029,10.163c2.913,2.85 6.269,5.098 10.069,6.744c3.799,1.646 7.915,2.47 12.348,2.47c6.712,-0 12.506,-1.552 17.382,-4.655c4.876,-3.103 8.58,-6.68 11.113,-10.733l9.689,7.979c-5.319,6.712 -11.177,11.525 -17.573,14.438c-6.395,2.912 -13.266,4.369 -20.611,4.369c-6.586,-0 -12.697,-1.172 -18.333,-3.515c-5.635,-2.343 -10.48,-5.604 -14.532,-9.783c-4.053,-4.179 -7.251,-9.119 -9.594,-14.818c-2.343,-5.699 -3.514,-11.905 -3.514,-18.617c-0,-6.712 1.14,-12.918 3.419,-18.617c2.28,-5.699 5.446,-10.638 9.499,-14.818c4.052,-4.179 8.802,-7.44 14.248,-9.783c5.445,-2.343 11.334,-3.515 17.667,-3.515c6.712,0 12.728,1.203 18.047,3.61c5.319,2.406 9.784,5.604 13.393,9.593c3.609,3.99 6.364,8.676 8.264,14.058c1.899,5.383 2.849,11.113 2.849,17.192l0,5.7l-74.088,-0Z" style="fill-rule:nonzero;stroke:black;stroke-width:1px;stroke-linecap:butt;stroke-miterlimit:2;"/>
    <path d="M2331.19,1712.89c-0,-3.926 -0.095,-7.916 -0.285,-11.968c-0.19,-4.053 -0.349,-9.309 -0.475,-15.768l12.348,-0l-0,16.527l0.38,0c0.886,-2.406 2.153,-4.717 3.799,-6.934c1.647,-2.216 3.641,-4.211 5.984,-5.984c2.343,-1.773 5.066,-3.197 8.169,-4.274c3.103,-1.076 6.617,-1.615 10.543,-1.615c3.546,0 6.649,0.38 9.309,1.14l-2.47,12.348c-1.646,-0.633 -4.052,-0.95 -7.219,-0.95c-4.812,0 -8.928,0.919 -12.348,2.755c-3.419,1.836 -6.269,4.179 -8.548,7.029c-2.28,2.849 -3.958,5.921 -5.035,9.213c-1.076,3.293 -1.614,6.459 -1.614,9.499l-0,50.152l-12.538,0l-0,-61.17Z" style="fill-rule:nonzero;stroke:black;stroke-width:1px;stroke-linecap:butt;stroke-miterlimit:2;"/>
    <path d="M2465.69,1729.6c-0,-4.939 -0.792,-9.562 -2.375,-13.868c-1.583,-4.306 -3.831,-8.042 -6.744,-11.208c-2.913,-3.166 -6.427,-5.668 -10.543,-7.504c-4.116,-1.836 -8.771,-2.754 -13.963,-2.754c-5.193,-0 -9.847,0.918 -13.963,2.754c-4.116,1.836 -7.599,4.338 -10.448,7.504c-2.85,3.166 -5.066,6.902 -6.649,11.208c-1.583,4.306 -2.375,8.929 -2.375,13.868c0,4.939 0.792,9.562 2.375,13.868c1.583,4.306 3.799,8.042 6.649,11.208c2.849,3.166 6.332,5.668 10.448,7.504c4.116,1.836 8.77,2.755 13.963,2.755c5.192,-0 9.847,-0.919 13.963,-2.755c4.116,-1.836 7.63,-4.338 10.543,-7.504c2.913,-3.166 5.161,-6.902 6.744,-11.208c1.583,-4.306 2.375,-8.929 2.375,-13.868Zm13.678,0c-0,6.712 -1.172,12.918 -3.515,18.617c-2.343,5.699 -5.604,10.639 -9.783,14.818c-4.18,4.179 -9.151,7.44 -14.913,9.783c-5.762,2.343 -12.126,3.515 -19.092,3.515c-6.839,-0 -13.14,-1.172 -18.902,-3.515c-5.763,-2.343 -10.733,-5.604 -14.913,-9.783c-4.179,-4.179 -7.44,-9.119 -9.783,-14.818c-2.343,-5.699 -3.515,-11.905 -3.515,-18.617c0,-6.712 1.172,-12.918 3.515,-18.617c2.343,-5.699 5.604,-10.638 9.783,-14.818c4.18,-4.179 9.15,-7.44 14.913,-9.783c5.762,-2.343 12.063,-3.515 18.902,-3.515c6.966,0 13.33,1.172 19.092,3.515c5.762,2.343 10.733,5.604 14.913,9.783c4.179,4.18 7.44,9.119 9.783,14.818c2.343,5.699 3.515,11.905 3.515,18.617Z" style="fill-rule:nonzero;stroke:black;stroke-width:1px;stroke-linecap:butt;stroke-miterlimit:2;"/>
    <path d="M1429.98,1589.75c-117.486,-191.799 -135.336,-368.787 -154.748,-587.335" style="fill:none;stroke:black;stroke-width:20.41px;"/>
    <path d="M1275.23,1002.41l-39.151,49.327" style="fill:none;stroke:black;stroke-width:20.41px;"/>
    <path d="M1275.23,1002.41l51.461,46.091" style="fill:none;stroke:black;stroke-width:20.41px;"/>
    <path d="M856.589,1406.3l-23.203,0l0,-4.279l14.54,-14.798c0.55,-0.55 1.1,-1.135 1.65,-1.754c0.55,-0.618 1.049,-1.271 1.496,-1.959c0.446,-0.687 0.807,-1.409 1.082,-2.165c0.275,-0.757 0.413,-1.547 0.413,-2.372c-0,-0.997 -0.181,-1.891 -0.542,-2.681c-0.36,-0.791 -0.868,-1.461 -1.521,-2.011c-0.653,-0.55 -1.409,-0.971 -2.268,-1.264c-0.86,-0.292 -1.771,-0.438 -2.733,-0.438c-1.856,0 -3.437,0.516 -4.744,1.547c-1.306,1.031 -2.148,2.423 -2.526,4.176l-3.919,-0.412c0.516,-2.716 1.762,-4.847 3.738,-6.394c1.977,-1.546 4.375,-2.32 7.193,-2.32c1.478,0 2.879,0.198 4.202,0.593c1.324,0.395 2.492,0.988 3.507,1.779c1.014,0.791 1.821,1.779 2.423,2.965c0.601,1.186 0.902,2.569 0.902,4.15c0,1.41 -0.215,2.699 -0.644,3.867c-0.43,1.169 -0.989,2.269 -1.676,3.3c-0.688,1.032 -1.47,2.011 -2.346,2.939c-0.877,0.928 -1.779,1.839 -2.707,2.733l-11.498,11.395l19.181,0l-0,3.403Z" style="fill:rgb(209,78,41);fill-rule:nonzero;stroke:rgb(209,78,41);stroke-width:1px;stroke-linecap:butt;stroke-miterlimit:2;"/>
    <path d="M1772.33,1406.3l-23.203,0l0,-4.279l14.541,-14.798c0.55,-0.55 1.1,-1.135 1.65,-1.754c0.55,-0.618 1.048,-1.271 1.495,-1.959c0.447,-0.687 0.808,-1.409 1.083,-2.165c0.275,-0.757 0.412,-1.547 0.412,-2.372c0,-0.997 -0.18,-1.891 -0.541,-2.681c-0.361,-0.791 -0.868,-1.461 -1.521,-2.011c-0.653,-0.55 -1.41,-0.971 -2.269,-1.264c-0.859,-0.292 -1.77,-0.438 -2.733,-0.438c-1.856,0 -3.437,0.516 -4.743,1.547c-1.307,1.031 -2.149,2.423 -2.527,4.176l-3.919,-0.412c0.516,-2.716 1.762,-4.847 3.739,-6.394c1.976,-1.546 4.374,-2.32 7.192,-2.32c1.478,0 2.879,0.198 4.203,0.593c1.323,0.395 2.492,0.988 3.506,1.779c1.014,0.791 1.822,1.779 2.423,2.965c0.602,1.186 0.902,2.569 0.902,4.15c0,1.41 -0.214,2.699 -0.644,3.867c-0.43,1.169 -0.988,2.269 -1.676,3.3c-0.687,1.032 -1.469,2.011 -2.346,2.939c-0.876,0.928 -1.779,1.839 -2.707,2.733l-11.498,11.395l19.181,0l-0,3.403Z" style="fill:rgb(209,78,41);fill-rule:nonzero;stroke:rgb(209,78,41);stroke-width:1px;stroke-linecap:butt;stroke-miterlimit:2;"/>
</svg>
