<svg width="411" height="265" xmlns="http://www.w3.org/2000/svg" xmlns:xlink="http://www.w3.org/1999/xlink" xml:space="preserve" overflow="hidden"><defs><clipPath id="clip0"><rect x="258" y="120" width="411" height="265"/></clipPath></defs><g clip-path="url(#clip0)" transform="translate(-258 -120)"><path d="M0 0 411 0 411 264.214 0 264.214Z" fill="#FFFFFF" transform="matrix(1 0 0 1.00297 258 120)"/><path d="M373.813 86.8931 292.31 86.8931 288.022 90.1166 283.732 96.4749 279.444 102.253 275.153 107.461 270.862 111.787 266.575 115.709 262.284 119.282 257.993 122.547 253.705 125.513 249.415 128.247 245.124 127.867 240.836 127.542 236.545 127.246 232.257 126.494 227.967 125.914 223.676 125.357 219.388 124.87 215.098 124.43 210.807 124.032 206.519 123.665 202.228 123.426 197.941 123.217 193.65 122.178 189.359 120.757 185.072 119.506 180.781 118.368 176.49 117.323 172.202 116.381 167.911 115.524 163.624 114.73 159.333 114.02 155.042 113.361 150.755 112.775 146.464 112.227 142.173 111.739 137.886 111.284 133.595 110.879 129.304 110.5 125.017 110.169 120.726 109.854 116.438 109.563 112.147 109.315 107.857 109.076 103.569 108.869 99.2777 108.672 94.9867 108.503 90.6997 108.338 86.4087 108.184 82.1209 108.06 77.8302 107.936 73.5394 107.834 69.2518 107.732 64.961 107.636 60.6701 107.563" stroke="#000000" stroke-width="0.611607" stroke-linecap="round" stroke-linejoin="round" stroke-miterlimit="10" fill="none" transform="matrix(1 0 0 1.00297 258 120)"/><path d="M53.7927 204.325 376.553 204.325" stroke="#000000" stroke-width="0.611607" stroke-linecap="round" stroke-linejoin="round" stroke-miterlimit="10" fill="none" transform="matrix(1 0 0 1.00297 258 120)"/><path d="M53.7927 204.325 53.7927 210.199" stroke="#000000" stroke-width="0.611607" stroke-linecap="round" stroke-linejoin="round" stroke-miterlimit="10" fill="none" transform="matrix(1 0 0 1.00297 258 120)"/><path d="M99.9024 204.325 99.9024 210.199" stroke="#000000" stroke-width="0.611607" stroke-linecap="round" stroke-linejoin="round" stroke-miterlimit="10" fill="none" transform="matrix(1 0 0 1.00297 258 120)"/><path d="M146.009 204.325 146.009 210.199" stroke="#000000" stroke-width="0.611607" stroke-linecap="round" stroke-linejoin="round" stroke-miterlimit="10" fill="none" transform="matrix(1 0 0 1.00297 258 120)"/><path d="M192.118 204.325 192.118 210.199" stroke="#000000" stroke-width="0.611607" stroke-linecap="round" stroke-linejoin="round" stroke-miterlimit="10" fill="none" transform="matrix(1 0 0 1.00297 258 120)"/><path d="M238.227 204.325 238.227 210.199" stroke="#000000" stroke-width="0.611607" stroke-linecap="round" stroke-linejoin="round" stroke-miterlimit="10" fill="none" transform="matrix(1 0 0 1.00297 258 120)"/><path d="M284.334 204.325 284.334 210.199" stroke="#000000" stroke-width="0.611607" stroke-linecap="round" stroke-linejoin="round" stroke-miterlimit="10" fill="none" transform="matrix(1 0 0 1.00297 258 120)"/><path d="M330.443 204.325 330.443 210.199" stroke="#000000" stroke-width="0.611607" stroke-linecap="round" stroke-linejoin="round" stroke-miterlimit="10" fill="none" transform="matrix(1 0 0 1.00297 258 120)"/><path d="M376.553 204.325 376.553 210.199" stroke="#000000" stroke-width="0.611607" stroke-linecap="round" stroke-linejoin="round" stroke-miterlimit="10" fill="none" transform="matrix(1 0 0 1.00297 258 120)"/><path d="M0.407738-3.17271 2.8032-3.17271 2.8032-2.28079 0.407738-2.28079Z" transform="matrix(1 0 0 1.00297 307.441 346.133)"/><path d="M1.21048-1.74562C1.26781-1.25189 1.49717-0.911042 1.89853-0.726283 2.1024-0.63072 2.33494-0.586124 2.59933-0.586124 3.109-0.586124 3.48489-0.745396 3.73335-1.07031 3.97863-1.39204 4.10286-1.752 4.10286-2.15336 4.10286-2.628 3.95315-2.99751 3.6569-3.2619 3.36703-3.52311 3.01981-3.6569 2.61207-3.6569 2.31264-3.6569 2.05781-3.59638 1.84756-3.47851 1.63414-3.36703 1.45576-3.21094 1.31241-3.00707L0.56064-3.0453 1.08305-6.72768 4.63802-6.72768 4.63802-5.89946 1.73289-5.89946 1.43982-4.00093C1.5991-4.11879 1.752-4.20799 1.89853-4.26851 2.15336-4.37045 2.44643-4.42141 2.77772-4.42141 3.40525-4.42141 3.93722-4.21754 4.37045-3.80981 4.81004-3.40844 5.03302-2.89876 5.03302-2.28079 5.03302-1.63414 4.82915-1.06076 4.42141-0.56064 4.02004-0.0668945 3.38295 0.178385 2.51013 0.178385 1.95587 0.178385 1.46531 0.0191127 1.03208-0.293062 0.605237-0.605237 0.369513-1.08943 0.318545-1.74562Z" transform="matrix(1 0 0 1.00297 310.7 346.133)"/><path d="M0.407738-3.17271 2.8032-3.17271 2.8032-2.28079 0.407738-2.28079Z" transform="matrix(1 0 0 1.00297 353.551 346.133)"/><path d="M3.23642-2.42094 3.23642-5.52995 1.04483-2.42094ZM3.24917 0 3.24917-1.66918 0.254836-1.66918 0.254836-2.51013 3.38932-6.86784 4.11561-6.86784 4.11561-2.42094 5.12221-2.42094 5.12221-1.66918 4.11561-1.66918 4.11561 0Z" transform="matrix(1 0 0 1.00297 356.81 346.133)"/><path d="M0.407738-3.17271 2.8032-3.17271 2.8032-2.28079 0.407738-2.28079Z" transform="matrix(1 0 0 1.00297 399.657 346.133)"/><path d="M2.54836 0.191127C1.73289 0.191127 1.14039-0.028669 0.777251-0.471447 0.410923-0.920599 0.229353-1.46531 0.229353-2.1024L1.13402-2.1024C1.16588-1.65962 1.2487-1.33789 1.37612-1.13402 1.60547-0.777251 2.00684-0.598865 2.58659-0.598865 3.0453-0.598865 3.40844-0.716727 3.68238-0.95564 3.95315-1.20092 4.09012-1.51628 4.09012-1.89853 4.09012-2.36361 3.94359-2.69171 3.6569-2.87965 3.36703-3.07396 2.96884-3.17271 2.45917-3.17271 2.39865-3.17271 2.33812-3.16634 2.28079-3.15997 2.22026-3.15997 2.15974-3.15997 2.1024-3.15997L2.1024-3.92448C2.19478-3.90536 2.27123-3.899 2.33176-3.899 2.38909-3.899 2.4528-3.899 2.52288-3.899 2.84461-3.899 3.109-3.94996 3.31287-4.0519 3.67601-4.23028 3.86077-4.54882 3.86077-5.00753 3.86077-5.34519 3.73654-5.6064 3.49126-5.78478 3.25235-5.96954 2.97203-6.0651 2.6503-6.0651 2.0801-6.0651 1.68511-5.87397 1.46531-5.49173 1.34426-5.28786 1.27737-4.98842 1.26144-4.59979L0.407738-4.59979C0.407738-5.10946 0.509673-5.54269 0.713542-5.89946 1.06076-6.53655 1.67555-6.8551 2.5611-6.8551 3.25554-6.8551 3.79706-6.69583 4.17932-6.38365 4.56157-6.07784 4.75269-5.62551 4.75269-5.03302 4.75269-4.61573 4.64121-4.27488 4.42141-4.01368 4.27488-3.85122 4.09331-3.7238 3.87351-3.63141 4.23028-3.52948 4.5106-3.33836 4.71447-3.05804 4.91834-2.77772 5.02028-2.43369 5.02028-2.02595 5.02028-1.36975 4.80366-0.834591 4.37045-0.42048 3.94359-0.0127418 3.33836 0.191127 2.54836 0.191127Z" transform="matrix(1 0 0 1.00297 402.916 346.133)"/><path d="M0.407738-3.17271 2.8032-3.17271 2.8032-2.28079 0.407738-2.28079Z" transform="matrix(1 0 0 1.00297 445.767 346.133)"/><path d="M0.305804 0C0.337658-0.586124 0.461891-1.0958 0.675316-1.52902 0.885558-1.96861 1.29967-2.36998 1.91127-2.72675L2.82868-3.2619C3.23642-3.49763 3.52311-3.7015 3.69513-3.87351 3.95633-4.13472 4.09012-4.43734 4.09012-4.77818 4.09012-5.17637 3.96589-5.49173 3.72061-5.72107 3.4817-5.9568 3.16634-6.07784 2.77772-6.07784 2.18203-6.07784 1.7743-5.85487 1.5545-5.41527 1.42708-5.16681 1.357-4.83552 1.35063-4.42141L0.471447-4.42141C0.477818-5.01391 0.589309-5.4981 0.802734-5.87397 1.17544-6.53655 1.83482-6.86784 2.77772-6.86784 3.55815-6.86784 4.12835-6.65442 4.48512-6.23074 4.84826-5.8039 5.03302-5.33245 5.03302-4.81641 5.03302-4.27169 4.84189-3.80343 4.45964-3.41481 4.23665-3.18545 3.83847-2.90832 3.2619-2.58659L2.59933-2.22982C2.29353-2.05781 2.05143-1.89216 1.87305-1.73289 1.54813-1.45894 1.34426-1.15313 1.26144-0.815476L5.00753-0.815476 5.00753 0Z" transform="matrix(1 0 0 1.00297 449.025 346.133)"/><path d="M0.407738-3.17271 2.8032-3.17271 2.8032-2.28079 0.407738-2.28079Z" transform="matrix(1 0 0 1.00297 491.876 346.133)"/><path d="M0.942894-4.84189 0.942894-5.50446C1.56087-5.5618 1.99091-5.66373 2.22982-5.81027 2.4751-5.95361 2.66304-6.28809 2.79046-6.81687L3.46577-6.81687 3.46577 0 2.54836 0 2.54836-4.84189Z" transform="matrix(1 0 0 1.00297 495.135 346.133)"/><path d="M2.6503-6.84235C3.53267-6.84235 4.17295-6.47603 4.57432-5.74656 4.88012-5.18592 5.03302-4.41186 5.03302-3.42754 5.03302-2.50058 4.89286-1.73289 4.61254-1.12128 4.21117-0.24528 3.55497 0.191127 2.63756 0.191127 1.82208 0.191127 1.21048-0.165644 0.802734-0.879181 0.471447-1.48124 0.305804-2.28397 0.305804-3.28739 0.305804-4.05827 0.407738-4.72722 0.611607-5.28786 0.984304-6.32313 1.6628-6.84235 2.6503-6.84235ZM2.63756-0.598865C3.08671-0.598865 3.44348-0.793178 3.70787-1.18498 3.96908-1.58317 4.10286-2.3222 4.10286-3.40207 4.10286-4.17295 4.00412-4.81004 3.80981-5.31333 3.62186-5.81346 3.25235-6.0651 2.70126-6.0651 2.19159-6.0651 1.81571-5.82619 1.57999-5.35156 1.35063-4.87374 1.23595-4.17295 1.23595-3.24917 1.23595-2.55155 1.31241-1.99091 1.46531-1.56725 1.69466-0.920599 2.08329-0.598865 2.63756-0.598865Z" transform="matrix(1 0 0 1.00297 539.613 346.133)"/><path d="M0.942894-4.84189 0.942894-5.50446C1.56087-5.5618 1.99091-5.66373 2.22982-5.81027 2.4751-5.95361 2.66304-6.28809 2.79046-6.81687L3.46577-6.81687 3.46577 0 2.54836 0 2.54836-4.84189Z" transform="matrix(1 0 0 1.00297 585.723 346.133)"/><path d="M0.305804 0C0.337658-0.586124 0.461891-1.0958 0.675316-1.52902 0.885558-1.96861 1.29967-2.36998 1.91127-2.72675L2.82868-3.2619C3.23642-3.49763 3.52311-3.7015 3.69513-3.87351 3.95633-4.13472 4.09012-4.43734 4.09012-4.77818 4.09012-5.17637 3.96589-5.49173 3.72061-5.72107 3.4817-5.9568 3.16634-6.07784 2.77772-6.07784 2.18203-6.07784 1.7743-5.85487 1.5545-5.41527 1.42708-5.16681 1.357-4.83552 1.35063-4.42141L0.471447-4.42141C0.477818-5.01391 0.589309-5.4981 0.802734-5.87397 1.17544-6.53655 1.83482-6.86784 2.77772-6.86784 3.55815-6.86784 4.12835-6.65442 4.48512-6.23074 4.84826-5.8039 5.03302-5.33245 5.03302-4.81641 5.03302-4.27169 4.84189-3.80343 4.45964-3.41481 4.23665-3.18545 3.83847-2.90832 3.2619-2.58659L2.59933-2.22982C2.29353-2.05781 2.05143-1.89216 1.87305-1.73289 1.54813-1.45894 1.34426-1.15313 1.26144-0.815476L5.00753-0.815476 5.00753 0Z" transform="matrix(1 0 0 1.00297 631.832 346.133)"/><path d="M48.145 190.688 48.145 52.2956" stroke="#000000" stroke-width="0.611607" stroke-linecap="round" stroke-linejoin="round" stroke-miterlimit="10" fill="none" transform="matrix(1 0 0 1.00297 258 120)"/><path d="M48.145 190.688 42.2741 190.688" stroke="#000000" stroke-width="0.611607" stroke-linecap="round" stroke-linejoin="round" stroke-miterlimit="10" fill="none" transform="matrix(1 0 0 1.00297 258 120)"/><path d="M48.145 156.09 42.2741 156.09" stroke="#000000" stroke-width="0.611607" stroke-linecap="round" stroke-linejoin="round" stroke-miterlimit="10" fill="none" transform="matrix(1 0 0 1.00297 258 120)"/><path d="M48.145 121.493 42.2741 121.493" stroke="#000000" stroke-width="0.611607" stroke-linecap="round" stroke-linejoin="round" stroke-miterlimit="10" fill="none" transform="matrix(1 0 0 1.00297 258 120)"/><path d="M48.145 86.8931 42.2741 86.8931" stroke="#000000" stroke-width="0.611607" stroke-linecap="round" stroke-linejoin="round" stroke-miterlimit="10" fill="none" transform="matrix(1 0 0 1.00297 258 120)"/><path d="M48.145 52.2956 42.2741 52.2956" stroke="#000000" stroke-width="0.611607" stroke-linecap="round" stroke-linejoin="round" stroke-miterlimit="10" fill="none" transform="matrix(1 0 0 1.00297 258 120)"/><path d="M-3.17271-0.407738-3.17271-2.8032-2.28079-2.8032-2.28079-0.407738Z" transform="matrix(1 0 0 1.00297 292.056 318.348)"/><path d="M-4.84189-0.942894-5.50446-0.942894C-5.5618-1.56087-5.66373-1.99091-5.81027-2.22982-5.95361-2.4751-6.28809-2.66304-6.81687-2.79046L-6.81687-3.46577 0-3.46577 0-2.54836-4.84189-2.54836Z" transform="matrix(1 0 0 1.00297 292.056 315.079)"/><path d="M-1.74562-1.21048C-1.25189-1.26781-0.911042-1.49717-0.726283-1.89853-0.63072-2.1024-0.586124-2.33494-0.586124-2.59933-0.586124-3.109-0.745396-3.48489-1.07031-3.73335-1.39204-3.97863-1.752-4.10286-2.15336-4.10286-2.628-4.10286-2.99751-3.95315-3.2619-3.6569-3.52311-3.36703-3.6569-3.01981-3.6569-2.61207-3.6569-2.31264-3.59638-2.05781-3.47851-1.84756-3.36703-1.63414-3.21094-1.45576-3.00707-1.31241L-3.0453-0.56064-6.72768-1.08305-6.72768-4.63802-5.89946-4.63802-5.89946-1.73289-4.00093-1.43982C-4.11879-1.5991-4.20799-1.752-4.26851-1.89853-4.37045-2.15336-4.42141-2.44643-4.42141-2.77772-4.42141-3.40525-4.21754-3.93722-3.80981-4.37045-3.40844-4.81004-2.89876-5.03302-2.28079-5.03302-1.63414-5.03302-1.06076-4.82915-0.56064-4.42141-0.0668945-4.02004 0.178385-3.38295 0.178385-2.51013 0.178385-1.95587 0.0191127-1.46531-0.293062-1.03208-0.605237-0.605237-1.08943-0.369513-1.74562-0.318545Z" transform="matrix(1 0 0 1.00297 292.056 309.621)"/><path d="M-3.17271-0.407738-3.17271-2.8032-2.28079-2.8032-2.28079-0.407738Z" transform="matrix(1 0 0 1.00297 292.056 283.647)"/><path d="M-4.84189-0.942894-5.50446-0.942894C-5.5618-1.56087-5.66373-1.99091-5.81027-2.22982-5.95361-2.4751-6.28809-2.66304-6.81687-2.79046L-6.81687-3.46577 0-3.46577 0-2.54836-4.84189-2.54836Z" transform="matrix(1 0 0 1.00297 292.056 280.379)"/><path d="M-6.84235-2.6503C-6.84235-3.53267-6.47603-4.17295-5.74656-4.57432-5.18592-4.88012-4.41186-5.03302-3.42754-5.03302-2.50058-5.03302-1.73289-4.89286-1.12128-4.61254-0.24528-4.21117 0.191127-3.55497 0.191127-2.63756 0.191127-1.82208-0.165644-1.21048-0.879181-0.802734-1.48124-0.471447-2.28397-0.305804-3.28739-0.305804-4.05827-0.305804-4.72722-0.407738-5.28786-0.611607-6.32313-0.984304-6.84235-1.6628-6.84235-2.6503ZM-0.598865-2.63756C-0.598865-3.08671-0.793178-3.44348-1.18498-3.70787-1.58317-3.96908-2.3222-4.10286-3.40207-4.10286-4.17295-4.10286-4.81004-4.00412-5.31333-3.80981-5.81346-3.62186-6.0651-3.25235-6.0651-2.70126-6.0651-2.19159-5.82619-1.81571-5.35156-1.57999-4.87374-1.35063-4.17295-1.23595-3.24917-1.23595-2.55155-1.23595-1.99091-1.31241-1.56725-1.46531-0.920599-1.69466-0.598865-2.08329-0.598865-2.63756Z" transform="matrix(1 0 0 1.00297 292.056 274.92)"/><path d="M-3.17271-0.407738-3.17271-2.8032-2.28079-2.8032-2.28079-0.407738Z" transform="matrix(1 0 0 1.00297 292.056 246.219)"/><path d="M-1.74562-1.21048C-1.25189-1.26781-0.911042-1.49717-0.726283-1.89853-0.63072-2.1024-0.586124-2.33494-0.586124-2.59933-0.586124-3.109-0.745396-3.48489-1.07031-3.73335-1.39204-3.97863-1.752-4.10286-2.15336-4.10286-2.628-4.10286-2.99751-3.95315-3.2619-3.6569-3.52311-3.36703-3.6569-3.01981-3.6569-2.61207-3.6569-2.31264-3.59638-2.05781-3.47851-1.84756-3.36703-1.63414-3.21094-1.45576-3.00707-1.31241L-3.0453-0.56064-6.72768-1.08305-6.72768-4.63802-5.89946-4.63802-5.89946-1.73289-4.00093-1.43982C-4.11879-1.5991-4.20799-1.752-4.26851-1.89853-4.37045-2.15336-4.42141-2.44643-4.42141-2.77772-4.42141-3.40525-4.21754-3.93722-3.80981-4.37045-3.40844-4.81004-2.89876-5.03302-2.28079-5.03302-1.63414-5.03302-1.06076-4.82915-0.56064-4.42141-0.0668945-4.02004 0.178385-3.38295 0.178385-2.51013 0.178385-1.95587 0.0191127-1.46531-0.293062-1.03208-0.605237-0.605237-1.08943-0.369513-1.74562-0.318545Z" transform="matrix(1 0 0 1.00297 292.056 242.95)"/><path d="M-6.84235-2.6503C-6.84235-3.53267-6.47603-4.17295-5.74656-4.57432-5.18592-4.88012-4.41186-5.03302-3.42754-5.03302-2.50058-5.03302-1.73289-4.89286-1.12128-4.61254-0.24528-4.21117 0.191127-3.55497 0.191127-2.63756 0.191127-1.82208-0.165644-1.21048-0.879181-0.802734-1.48124-0.471447-2.28397-0.305804-3.28739-0.305804-4.05827-0.305804-4.72722-0.407738-5.28786-0.611607-6.32313-0.984304-6.84235-1.6628-6.84235-2.6503ZM-0.598865-2.63756C-0.598865-3.08671-0.793178-3.44348-1.18498-3.70787-1.58317-3.96908-2.3222-4.10286-3.40207-4.10286-4.17295-4.10286-4.81004-4.00412-5.31333-3.80981-5.81346-3.62186-6.0651-3.25235-6.0651-2.70126-6.0651-2.19159-5.82619-1.81571-5.35156-1.57999-4.87374-1.35063-4.17295-1.23595-3.24917-1.23595-2.55155-1.23595-1.99091-1.31241-1.56725-1.46531-0.920599-1.69466-0.598865-2.08329-0.598865-2.63756Z" transform="matrix(1 0 0 1.00297 292.056 209.88)"/><path d="M-1.74562-1.21048C-1.25189-1.26781-0.911042-1.49717-0.726283-1.89853-0.63072-2.1024-0.586124-2.33494-0.586124-2.59933-0.586124-3.109-0.745396-3.48489-1.07031-3.73335-1.39204-3.97863-1.752-4.10286-2.15336-4.10286-2.628-4.10286-2.99751-3.95315-3.2619-3.6569-3.52311-3.36703-3.6569-3.01981-3.6569-2.61207-3.6569-2.31264-3.59638-2.05781-3.47851-1.84756-3.36703-1.63414-3.21094-1.45576-3.00707-1.31241L-3.0453-0.56064-6.72768-1.08305-6.72768-4.63802-5.89946-4.63802-5.89946-1.73289-4.00093-1.43982C-4.11879-1.5991-4.20799-1.752-4.26851-1.89853-4.37045-2.15336-4.42141-2.44643-4.42141-2.77772-4.42141-3.40525-4.21754-3.93722-3.80981-4.37045-3.40844-4.81004-2.89876-5.03302-2.28079-5.03302-1.63414-5.03302-1.06076-4.82915-0.56064-4.42141-0.0668945-4.02004 0.178385-3.38295 0.178385-2.51013 0.178385-1.95587 0.0191127-1.46531-0.293062-1.03208-0.605237-0.605237-1.08943-0.369513-1.74562-0.318545Z" transform="matrix(1 0 0 1.00297 292.056 175.18)"/><path d="M48.145 204.325 386.342 204.325 386.342 48.145 48.145 48.145 48.145 204.325" stroke="#000000" stroke-width="0.611607" stroke-linecap="round" stroke-linejoin="round" stroke-miterlimit="10" fill="none" transform="matrix(1 0 0 1.00297 258 120)"/><path d="M0.751767-7.02074 1.69466-7.02074 1.69466-0.84096 5.24963-0.84096 5.24963 0 0.751767 0Z" transform="matrix(1 0 0 1.00297 448.038 369.69)"/><path d="M2.66304-0.56064C3.23005-0.56064 3.62186-0.770879 3.83528-1.19773 4.04553-1.63095 4.15383-2.10877 4.15383-2.63756 4.15383-3.12174 4.07738-3.51037 3.92448-3.80981 3.67601-4.27488 3.2619-4.5106 2.67578-4.5106 2.14699-4.5106 1.76474-4.30992 1.52902-3.91174 1.29011-3.51037 1.17225-3.02618 1.17225-2.45917 1.17225-1.91446 1.29011-1.45894 1.52902-1.0958 1.76474-0.739025 2.14381-0.56064 2.66304-0.56064ZM2.70126-5.26237C3.35428-5.26237 3.90536-5.03939 4.3577-4.59979 4.81641-4.16658 5.04576-3.51993 5.04576-2.66304 5.04576-1.83801 4.84508-1.15313 4.44689-0.611607 4.04553-0.0764509 3.42754 0.191127 2.58659 0.191127 1.87942 0.191127 1.31878-0.0445964 0.904673-0.522414 0.487374-1.00661 0.28032-1.64688 0.28032-2.44643 0.28032-3.30331 0.496931-3.98818 0.930148-4.49786 1.36975-5.00753 1.96224-5.26237 2.70126-5.26237Z" transform="matrix(1 0 0 1.00297 453.48 369.69)"/><path d="M2.43369-5.2114C2.84143-5.2114 3.19182-5.11265 3.49126-4.91834 3.65053-4.79729 3.81618-4.63165 3.98818-4.42141L3.98818-5.07124 4.77818-5.07124 4.77818-0.42048C4.77818 0.232538 4.68262 0.745396 4.49786 1.12128 4.14109 1.81571 3.46577 2.16611 2.47191 2.16611 1.91764 2.16611 1.45576 2.04188 1.08305 1.79659 0.707171 1.54813 0.496931 1.16269 0.445964 0.637091L1.32515 0.637091C1.36656 0.866443 1.4462 1.04483 1.56725 1.17225 1.76156 1.357 2.06736 1.45257 2.48466 1.45257 3.14723 1.45257 3.58045 1.21685 3.78432 0.751767 3.90218 0.477818 3.95633-0.00637091 3.94996-0.713542 3.77795-0.449149 3.5709-0.254836 3.32561-0.127418 3.08671 0 2.76816 0.0637091 2.36998 0.0637091 1.81571 0.0637091 1.33152-0.130603 0.917411-0.522414 0.500116-0.920599 0.293062-1.57362 0.293062-2.48466 0.293062-3.34154 0.500116-4.0073 0.917411-4.48512 1.34108-4.96931 1.84756-5.2114 2.43369-5.2114ZM3.98818-2.58659C3.98818-3.21413 3.8544-3.68238 3.59319-3.98818 3.3288-4.29399 2.99751-4.44689 2.59933-4.44689 1.98772-4.44689 1.57043-4.1602 1.35063-3.59319 1.22958-3.29376 1.17225-2.89876 1.17225-2.4082 1.17225-1.82845 1.28692-1.38885 1.51628-1.08305 1.752-0.783622 2.07054-0.637091 2.47191-0.637091 3.08989-0.637091 3.52311-0.917411 3.77158-1.47805 3.91492-1.79022 3.98818-2.15974 3.98818-2.58659Z" transform="matrix(1 0 0 1.00297 458.923 369.69)"/><path d="M0.751767-7.02074 1.69466-7.02074 1.69466-0.84096 5.24963-0.84096 5.24963 0 0.751767 0Z" transform="matrix(1 0 0 1.00297 467.084 369.69)"/><path d="M1.28692-1.36338C1.28692-1.11491 1.37612-0.920599 1.5545-0.777251 1.73926-0.63072 1.95587-0.56064 2.20433-0.56064 2.51013-0.56064 2.8032-0.627534 3.08352-0.764509 3.56771-1.00023 3.80981-1.38248 3.80981-1.91127L3.80981-2.59933C3.69831-2.53881 3.55815-2.48466 3.38932-2.43369 3.22686-2.38909 3.0644-2.36042 2.90513-2.34449L2.39546-2.28079C2.0801-2.23619 1.84119-2.1693 1.68192-2.07692 1.41753-1.93039 1.28692-1.69466 1.28692-1.36338ZM3.37658-3.09627C3.5709-3.12174 3.7015-3.20457 3.77158-3.3511 3.80343-3.42754 3.82254-3.53586 3.82254-3.68238 3.82254-3.96908 3.71424-4.17932 3.504-4.30673 3.30013-4.44052 3.00707-4.5106 2.62481-4.5106 2.17248-4.5106 1.85394-4.38955 1.66918-4.15383 1.55769-4.01686 1.48442-3.81618 1.45257-3.55497L0.649833-3.55497C0.66576-4.1825 0.869632-4.61891 1.26144-4.86737 1.65962-5.11265 2.11833-5.23689 2.63756-5.23689 3.23961-5.23689 3.72698-5.12221 4.10286-4.89286 4.47556-4.6635 4.6635-4.30673 4.6635-3.82254L4.6635-0.879181C4.6635-0.793178 4.67943-0.719912 4.71447-0.662574 4.75588-0.611607 4.83552-0.586124 4.95656-0.586124 4.98842-0.586124 5.02664-0.586124 5.07124-0.586124 5.12221-0.592494 5.17637-0.602051 5.23689-0.611607L5.23689 0.0254836C5.09991 0.0573382 4.99479 0.0796363 4.91834 0.0891927 4.84826 0.10512 4.75588 0.114676 4.63802 0.114676 4.33859 0.114676 4.12835 0.00637091 4.00093-0.203869 3.92448-0.312174 3.87351-0.471447 3.84803-0.675316 3.66964-0.445964 3.41481-0.24528 3.08352-0.0764509 2.7586 0.092378 2.40183 0.178385 2.01321 0.178385 1.53539 0.178385 1.14676 0.0318545 0.84096-0.254836 0.541527-0.541527 0.394996-0.904673 0.394996-1.33789 0.394996-1.81253 0.541527-2.18203 0.84096-2.44643 1.13721-2.70763 1.52265-2.87009 2.00046-2.93062Z" transform="matrix(1 0 0 1.00297 472.526 369.69)"/><path d="M0.637091-5.12221 1.47805-5.12221 1.47805-4.39592C1.68192-4.64121 1.86667-4.82278 2.03869-4.94382 2.31901-5.13814 2.64074-5.23689 3.00707-5.23689 3.41481-5.23689 3.73972-5.13496 3.98818-4.93109 4.12198-4.81959 4.2494-4.65076 4.37045-4.42141 4.5552-4.70173 4.77818-4.90559 5.03302-5.03302 5.29423-5.16681 5.58728-5.23689 5.9122-5.23689 6.60026-5.23689 7.06533-4.98523 7.3138-4.48512 7.44759-4.22073 7.51767-3.86077 7.51767-3.40207L7.51767 0 6.62574 0 6.62574-3.55497C6.62574-3.89263 6.53974-4.12835 6.37091-4.25577 6.19889-4.38318 5.99184-4.44689 5.74656-4.44689 5.40572-4.44689 5.11265-4.33222 4.86737-4.10286 4.62846-3.87988 4.5106-3.50718 4.5106-2.98158L4.5106 0 3.63141 0 3.63141-3.33836C3.63141-3.68557 3.58682-3.94041 3.504-4.10286 3.37658-4.33859 3.13449-4.45964 2.77772-4.45964 2.4528-4.45964 2.15655-4.33222 1.88579-4.07738 1.62139-3.82891 1.49079-3.37658 1.49079-2.714L1.49079 0 0.637091 0Z" transform="matrix(1 0 0 1.00297 477.968 369.69)"/><path d="M0.56064-7.04622 1.4016-7.04622 1.4016-4.49786C1.58635-4.74314 1.81253-4.93109 2.07692-5.0585 2.33812-5.18592 2.62481-5.24963 2.93062-5.24963 3.56771-5.24963 4.08057-5.02664 4.47238-4.58705 4.87056-4.15383 5.07124-3.51037 5.07124-2.66304 5.07124-1.84756 4.87374-1.17225 4.48512-0.637091 4.09331-0.101935 3.54859 0.165644 2.85417 0.165644 2.46235 0.165644 2.13426 0.07008 1.87305-0.114676 1.71059-0.232538 1.54176-0.410923 1.36338-0.649833L1.36338 0 0.56064 0ZM2.8032-0.598865C3.26827-0.598865 3.61868-0.780436 3.84803-1.14676 4.07738-1.51946 4.19205-2.00684 4.19205-2.61207 4.19205-3.1536 4.07738-3.59956 3.84803-3.94996 3.61868-4.30673 3.27783-4.48512 2.82868-4.48512 2.43687-4.48512 2.09285-4.33859 1.79659-4.0519 1.49717-3.76202 1.35063-3.28102 1.35063-2.61207 1.35063-2.13426 1.40797-1.74562 1.52902-1.43982 1.75837-0.879181 2.18203-0.598865 2.8032-0.598865Z" transform="matrix(1 0 0 1.00297 486.12 369.69)"/><path d="M1.17225-2.4974C1.17225-1.95268 1.28692-1.49398 1.51628-1.12128 1.752-0.754952 2.12789-0.573382 2.63756-0.573382 3.03574-0.573382 3.36384-0.742211 3.61868-1.08305 3.87988-1.42071 4.01368-1.91446 4.01368-2.5611 4.01368-3.20457 3.8767-3.68238 3.60594-3.98818 3.34154-4.30036 3.01981-4.45964 2.63756-4.45964 2.20433-4.45964 1.85075-4.29399 1.57999-3.96271 1.30603-3.63141 1.17225-3.14086 1.17225-2.4974ZM2.47191-5.2114C2.86054-5.2114 3.18864-5.1254 3.45304-4.95656 3.60594-4.861 3.77795-4.69536 3.97545-4.45964L3.97545-7.04622 4.80366-7.04622 4.80366 0 4.02641 0 4.02641-0.713542C3.82891-0.398182 3.59319-0.168829 3.31287-0.0254836 3.03892 0.108305 2.72675 0.178385 2.36998 0.178385 1.79978 0.178385 1.30603-0.0573382 0.891927-0.535156 0.474632-1.01935 0.267578-1.65644 0.267578-2.44643 0.267578-3.19182 0.458705-3.83847 0.84096-4.38318 1.22321-4.93427 1.76474-5.2114 2.47191-5.2114Z" transform="matrix(1 0 0 1.00297 491.562 369.69)"/><path d="M1.28692-1.36338C1.28692-1.11491 1.37612-0.920599 1.5545-0.777251 1.73926-0.63072 1.95587-0.56064 2.20433-0.56064 2.51013-0.56064 2.8032-0.627534 3.08352-0.764509 3.56771-1.00023 3.80981-1.38248 3.80981-1.91127L3.80981-2.59933C3.69831-2.53881 3.55815-2.48466 3.38932-2.43369 3.22686-2.38909 3.0644-2.36042 2.90513-2.34449L2.39546-2.28079C2.0801-2.23619 1.84119-2.1693 1.68192-2.07692 1.41753-1.93039 1.28692-1.69466 1.28692-1.36338ZM3.37658-3.09627C3.5709-3.12174 3.7015-3.20457 3.77158-3.3511 3.80343-3.42754 3.82254-3.53586 3.82254-3.68238 3.82254-3.96908 3.71424-4.17932 3.504-4.30673 3.30013-4.44052 3.00707-4.5106 2.62481-4.5106 2.17248-4.5106 1.85394-4.38955 1.66918-4.15383 1.55769-4.01686 1.48442-3.81618 1.45257-3.55497L0.649833-3.55497C0.66576-4.1825 0.869632-4.61891 1.26144-4.86737 1.65962-5.11265 2.11833-5.23689 2.63756-5.23689 3.23961-5.23689 3.72698-5.12221 4.10286-4.89286 4.47556-4.6635 4.6635-4.30673 4.6635-3.82254L4.6635-0.879181C4.6635-0.793178 4.67943-0.719912 4.71447-0.662574 4.75588-0.611607 4.83552-0.586124 4.95656-0.586124 4.98842-0.586124 5.02664-0.586124 5.07124-0.586124 5.12221-0.592494 5.17637-0.602051 5.23689-0.611607L5.23689 0.0254836C5.09991 0.0573382 4.99479 0.0796363 4.91834 0.0891927 4.84826 0.10512 4.75588 0.114676 4.63802 0.114676 4.33859 0.114676 4.12835 0.00637091 4.00093-0.203869 3.92448-0.312174 3.87351-0.471447 3.84803-0.675316 3.66964-0.445964 3.41481-0.24528 3.08352-0.0764509 2.7586 0.092378 2.40183 0.178385 2.01321 0.178385 1.53539 0.178385 1.14676 0.0318545 0.84096-0.254836 0.541527-0.541527 0.394996-0.904673 0.394996-1.33789 0.394996-1.81253 0.541527-2.18203 0.84096-2.44643 1.13721-2.70763 1.52265-2.87009 2.00046-2.93062Z" transform="matrix(1 0 0 1.00297 497.005 369.69)"/><path d="M-7.21187-3.70787C-7.21187-4.59024-6.97615-5.2783-6.51107-5.77204-6.04281-6.2626-5.51083-6.53655-4.91834-6.58751L-4.91834-5.65737C-5.36749-5.55543-5.72426-5.34519-5.98865-5.03302-6.24986-4.71766-6.38365-4.27488-6.38365-3.70787-6.38365-3.01981-6.14155-2.46235-5.65737-2.03869-5.17318-1.61184-4.42778-1.4016-3.42754-1.4016-2.60252-1.4016-1.93039-1.59272-1.41435-1.97499-0.904673-2.35723-0.649833-2.93062-0.649833-3.69513-0.649833-4.38955-0.920599-4.92471-1.46531-5.3006-1.74562-5.48535-2.11833-5.63188-2.58659-5.73382L-2.58659-6.65123C-1.84756-6.57478-1.2264-6.30083-0.726283-5.83575-0.121048-5.27511 0.178385-4.52335 0.178385-3.58045 0.178385-2.76497-0.0668945-2.0801-0.56064-1.52902-1.21366-0.796363-2.22026-0.433222-3.58045-0.433222-4.61573-0.433222-5.46623-0.703985-6.12881-1.2487-6.84873-1.84119-7.21187-2.66304-7.21187-3.70787Z" transform="matrix(1 0 0 1.00297 268.569 272.251)"/><path d="M-0.56064-2.66304C-0.56064-3.23005-0.770879-3.62186-1.19773-3.83528-1.63095-4.04553-2.10877-4.15383-2.63756-4.15383-3.12174-4.15383-3.51037-4.07738-3.80981-3.92448-4.27488-3.67601-4.5106-3.2619-4.5106-2.67578-4.5106-2.14699-4.30992-1.76474-3.91174-1.52902-3.51037-1.29011-3.02618-1.17225-2.45917-1.17225-1.91446-1.17225-1.45894-1.29011-1.0958-1.52902-0.739025-1.76474-0.56064-2.14381-0.56064-2.66304ZM-5.26237-2.70126C-5.26237-3.35428-5.03939-3.90536-4.59979-4.3577-4.16658-4.81641-3.51993-5.04576-2.66304-5.04576-1.83801-5.04576-1.15313-4.84508-0.611607-4.44689-0.0764509-4.04553 0.191127-3.42754 0.191127-2.58659 0.191127-1.87942-0.0445964-1.31878-0.522414-0.904673-1.00661-0.487374-1.64688-0.28032-2.44643-0.28032-3.30331-0.28032-3.98818-0.496931-4.49786-0.930148-5.00753-1.36975-5.26237-1.96224-5.26237-2.70126Z" transform="matrix(1 0 0 1.00297 268.569 265.163)"/><path d="M-5.23689-2.76497C-5.23689-3.12812-5.15088-3.4817-4.98205-3.82254-4.81004-4.1602-4.59024-4.42141-4.31948-4.59979-4.05509-4.76863-3.75246-4.8833-3.41481-4.94382-3.1759-4.99479-2.79683-5.02028-2.28079-5.02028L-2.28079-1.26144C-1.76156-1.27737-1.34426-1.4016-1.03208-1.63095-0.716727-1.86031-0.56064-2.21708-0.56064-2.70126-0.56064-3.15041-0.707171-3.50718-1.00661-3.77158-1.17544-3.92448-1.37612-4.03278-1.60547-4.10286L-1.60547-4.94382C-1.41753-4.92471-1.21048-4.85463-0.981116-4.72722-0.751767-4.59979-0.56064-4.45964-0.407738-4.30673-0.152902-4.04234 0.0159272-3.71424 0.101935-3.32561 0.152902-3.12174 0.178385-2.88602 0.178385-2.62481 0.178385-1.98772-0.0509673-1.4462-0.509673-1.00661-0.974747-0.563825-1.62458-0.344029-2.45917-0.344029-3.28102-0.344029-3.94996-0.563825-4.45964-1.00661-4.97568-1.45576-5.23689-2.04188-5.23689-2.76497ZM-2.96884-4.12835C-3.34154-4.09331-3.63779-4.01368-3.86077-3.88625-4.27488-3.6569-4.48512-3.26509-4.48512-2.714-4.48512-2.31264-4.33859-1.97817-4.0519-1.7074-3.77158-1.44301-3.40844-1.30285-2.96884-1.28692Z" transform="matrix(1 0 0 1.00297 268.569 259.705)"/><path d="M-5.89946-0.84096C-6.25624-0.856886-6.51425-0.920599-6.67671-1.03208-6.97296-1.23595-7.12268-1.62139-7.12268-2.19159-7.12268-2.24893-7.1163-2.30626-7.10993-2.35723-7.10993-2.41458-7.10356-2.48466-7.09719-2.5611L-6.31994-2.5611C-6.32631-2.46554-6.33268-2.39865-6.33268-2.35723-6.33268-2.3222-6.33268-2.28716-6.33268-2.2553-6.33268-1.99091-6.2626-1.83482-6.12881-1.78385-5.99184-1.73289-5.64781-1.7074-5.09673-1.7074L-5.09673-2.5611-4.42141-2.5611-4.42141-1.69466 0-1.69466 0-0.84096-4.42141-0.84096-4.42141-0.14016-5.09673-0.14016-5.09673-0.84096Z" transform="matrix(1 0 0 1.00297 268.569 254.246)"/><path d="M-5.89946-0.84096C-6.25624-0.856886-6.51425-0.920599-6.67671-1.03208-6.97296-1.23595-7.12268-1.62139-7.12268-2.19159-7.12268-2.24893-7.1163-2.30626-7.10993-2.35723-7.10993-2.41458-7.10356-2.48466-7.09719-2.5611L-6.31994-2.5611C-6.32631-2.46554-6.33268-2.39865-6.33268-2.35723-6.33268-2.3222-6.33268-2.28716-6.33268-2.2553-6.33268-1.99091-6.2626-1.83482-6.12881-1.78385-5.99184-1.73289-5.64781-1.7074-5.09673-1.7074L-5.09673-2.5611-4.42141-2.5611-4.42141-1.69466 0-1.69466 0-0.84096-4.42141-0.84096-4.42141-0.14016-5.09673-0.14016-5.09673-0.84096Z" transform="matrix(1 0 0 1.00297 268.569 251.519)"/><path d="M-5.09673-0.637091-5.09673-1.50353 0-1.50353 0-0.637091ZM-7.02074-0.637091-7.02074-1.50353-6.03962-1.50353-6.03962-0.637091Z" transform="matrix(1 0 0 1.00297 268.569 248.792)"/><path d="M-5.26237-2.59933C-5.26237-3.1759-5.12221-3.64416-4.84189-4.00093-4.56157-4.36407-4.08057-4.58705-3.40207-4.6635L-3.40207-3.82254C-3.71424-3.77158-3.97545-3.6569-4.17932-3.47851-4.38955-3.30013-4.49786-3.00707-4.49786-2.59933-4.49786-2.05462-4.23028-1.6628-3.69513-1.42708-3.34472-1.27418-2.91787-1.19773-2.4082-1.19773-1.89853-1.19773-1.46531-1.30285-1.10854-1.51628-0.758138-1.73608-0.586124-2.0801-0.586124-2.54836-0.586124-2.90513-0.694429-3.18545-0.917411-3.38932-1.13721-3.59956-1.43345-3.74609-1.80934-3.82254L-1.80934-4.6635C-1.12765-4.56794-0.63072-4.33222-0.318545-3.94996-0.00318545-3.56771 0.152902-3.07715 0.152902-2.48466 0.152902-1.81253-0.092378-1.27737-0.586124-0.879181-1.07668-0.477818-1.68829-0.28032-2.42094-0.28032-3.31924-0.28032-4.01686-0.496931-4.5106-0.930148-5.01072-1.36975-5.26237-1.9272-5.26237-2.59933Z" transform="matrix(1 0 0 1.00297 268.569 246.612)"/><path d="M-5.09673-0.637091-5.09673-1.50353 0-1.50353 0-0.637091ZM-7.02074-0.637091-7.02074-1.50353-6.03962-1.50353-6.03962-0.637091Z" transform="matrix(1 0 0 1.00297 268.569 241.705)"/><path d="M-5.23689-2.76497C-5.23689-3.12812-5.15088-3.4817-4.98205-3.82254-4.81004-4.1602-4.59024-4.42141-4.31948-4.59979-4.05509-4.76863-3.75246-4.8833-3.41481-4.94382-3.1759-4.99479-2.79683-5.02028-2.28079-5.02028L-2.28079-1.26144C-1.76156-1.27737-1.34426-1.4016-1.03208-1.63095-0.716727-1.86031-0.56064-2.21708-0.56064-2.70126-0.56064-3.15041-0.707171-3.50718-1.00661-3.77158-1.17544-3.92448-1.37612-4.03278-1.60547-4.10286L-1.60547-4.94382C-1.41753-4.92471-1.21048-4.85463-0.981116-4.72722-0.751767-4.59979-0.56064-4.45964-0.407738-4.30673-0.152902-4.04234 0.0159272-3.71424 0.101935-3.32561 0.152902-3.12174 0.178385-2.88602 0.178385-2.62481 0.178385-1.98772-0.0509673-1.4462-0.509673-1.00661-0.974747-0.563825-1.62458-0.344029-2.45917-0.344029-3.28102-0.344029-3.94996-0.563825-4.45964-1.00661-4.97568-1.45576-5.23689-2.04188-5.23689-2.76497ZM-2.96884-4.12835C-3.34154-4.09331-3.63779-4.01368-3.86077-3.88625-4.27488-3.6569-4.48512-3.26509-4.48512-2.714-4.48512-2.31264-4.33859-1.97817-4.0519-1.7074-3.77158-1.44301-3.40844-1.30285-2.96884-1.28692Z" transform="matrix(1 0 0 1.00297 268.569 239.524)"/><path d="M-5.12221-0.637091-5.12221-1.45257-4.39592-1.45257C-4.69218-1.68829-4.90559-1.94312-5.03302-2.21708-5.16681-2.48784-5.23689-2.79046-5.23689-3.12174-5.23689-3.84166-4.98205-4.33222-4.47238-4.58705-4.19205-4.7304-3.79706-4.80366-3.28739-4.80366L0-4.80366 0-3.92448-3.22368-3.92448C-3.53586-3.92448-3.7875-3.8767-3.97545-3.78432-4.29718-3.63141-4.45964-3.35428-4.45964-2.9561-4.45964-2.75223-4.43734-2.58659-4.39592-2.45917-4.32585-2.22026-4.18568-2.01321-3.97545-1.83482-3.80343-1.68829-3.63141-1.59591-3.45304-1.5545-3.27464-1.5099-3.01344-1.49079-2.67578-1.49079L0-1.49079 0-0.637091Z" transform="matrix(1 0 0 1.00297 268.569 234.065)"/><path d="M-6.54929-0.802734-6.54929-1.66918-5.12221-1.66918-5.12221-2.48466-4.42141-2.48466-4.42141-1.66918-1.07031-1.66918C-0.891927-1.66918-0.770879-1.73289-0.713542-1.86031-0.678501-1.91764-0.662574-2.02913-0.662574-2.19159-0.662574-2.233-0.662574-2.27441-0.662574-2.31901-0.668945-2.36998-0.675316-2.42413-0.675316-2.48466L0-2.48466C0.0254836-2.38909 0.0414109-2.28716 0.0509673-2.17885 0.0668945-2.07692 0.0764509-1.96224 0.0764509-1.83482 0.0764509-1.43345-0.0254836-1.16269-0.229353-1.01935-0.433222-0.872812-0.7008-0.802734-1.03208-0.802734L-4.42141-0.802734-4.42141-0.114676-5.12221-0.114676-5.12221-0.802734Z" transform="matrix(1 0 0 1.00297 268.569 228.607)"/><path d="M-1.60547-1.14676C-1.31559-1.17225-1.0958-1.24233-0.942894-1.36338-0.668945-1.57362-0.535156-1.94949-0.535156-2.48466-0.535156-2.80639-0.602051-3.08671-0.739025-3.32561-0.872812-3.5709-1.08624-3.69513-1.37612-3.69513-1.59591-3.69513-1.76474-3.59638-1.88579-3.40207-1.95268-3.27464-2.03232-3.02618-2.12789-2.66304L-2.29353-1.97499C-2.40183-1.54176-2.52607-1.22321-2.66304-1.01935-2.8924-0.643461-3.21413-0.458705-3.63141-0.458705-4.11561-0.458705-4.50423-0.63072-4.80366-0.981116-5.09991-1.32834-5.24963-1.79978-5.24963-2.39546-5.24963-3.15997-5.02346-3.71105-4.57432-4.0519-4.28444-4.27169-3.97545-4.37682-3.64416-4.37045L-3.64416-3.55497C-3.83847-3.53586-4.01686-3.46896-4.17932-3.3511-4.39911-3.1536-4.5106-2.80957-4.5106-2.31901-4.5106-1.99409-4.44689-1.74881-4.31948-1.57999-4.19843-1.41753-4.03915-1.33789-3.83528-1.33789-3.61231-1.33789-3.43392-1.4462-3.30013-1.66918-3.22368-1.79659-3.1536-1.98135-3.09627-2.22982L-2.9561-2.79046C-2.8032-3.40844-2.65667-3.82573-2.52288-4.03915-2.2999-4.37045-1.95268-4.53609-1.47805-4.53609-1.02571-4.53609-0.637091-4.36089-0.305804-4.01368 0.0254836-3.67283 0.191127-3.15041 0.191127-2.44643 0.191127-1.68192 0.0191127-1.13721-0.318545-0.815476-0.66576-0.500116-1.0958-0.334472-1.60547-0.318545Z" transform="matrix(1 0 0 1.00297 268.569 225.88)"/><path d="M373.813 86.8931 206.519 86.8931 202.228 86.3573 197.941 85.5483 193.65 83.835 189.359 82.0891 185.072 80.4741 180.781 79.0056 176.49 77.6677 172.202 76.4477 167.911 75.336 163.624 74.323 159.333 73.3992 155.042 72.5583 150.755 71.7906 146.464 71.093 142.173 70.4558 137.886 69.8761 133.595 69.3474 129.304 68.8663 125.017 68.4299 120.726 68.0286 116.438 67.6654 112.147 67.3309 107.857 67.0315 103.569 66.7544 99.2777 66.5027 94.9867 66.2733 90.6997 66.0631 86.4087 65.8751 82.1209 65.7 77.8302 65.5439 73.5394 65.3942 69.2518 65.2668 64.961 65.1489 60.6701 65.0342" stroke="#FF0000" stroke-width="0.611607" stroke-linecap="round" stroke-linejoin="round" stroke-miterlimit="10" fill="none" transform="matrix(1 0 0 1.00297 258 120)"/><path d="M373.813 86.8931 240.836 86.8931 236.545 86.8963 232.257 86.9338 227.967 86.9665 223.676 86.995 219.388 87.0235 215.098 87.0488 210.807 87.0708 206.519 87.0904 202.228 87.1092 197.941 87.1255 193.65 87.1671 189.359 87.2111 185.072 87.2527 180.781 87.291 176.49 87.3261 172.202 87.3546 167.911 87.3832 163.624 87.4093 159.333 87.4345 155.042 87.4533 150.755 87.4729 146.464 87.4916 142.173 87.5079 137.886 87.5234 129.304 87.5487 125.017 87.5585 120.726 87.5683 116.438 87.5781 112.147 87.587 107.857 87.5936 103.569 87.6033 99.2777 87.6099 94.9867 87.6131 90.6997 87.6188 86.4087 87.6254 82.1209 87.6286 73.5394 87.6351 69.2518 87.6384 60.6701 87.6449" stroke="#00CD00" stroke-width="0.611607" stroke-linecap="round" stroke-linejoin="round" stroke-miterlimit="10" fill="none" transform="matrix(1 0 0 1.00297 258 120)"/><path d="M373.813 86.8931 240.836 86.8931 236.545 86.8898 232.257 86.8613 227.967 86.8352 223.676 86.8131 219.388 86.7911 215.098 86.7683 210.807 86.7528 206.519 86.7365 202.228 86.721 197.941 86.708 189.359 86.6761 185.072 86.6607 180.781 86.6476 176.49 86.6378 172.202 86.628 167.911 86.6191 163.624 86.6093 159.333 86.5995 155.042 86.5938 150.755 86.5873 142.173 86.5742 137.886 86.571 133.595 86.5644 129.304 86.5612 125.017 86.5587 120.726 86.5555 116.438 86.5522 107.857 86.5457 103.569 86.5424 99.2777 86.5424 94.9867 86.5391 90.6997 86.5391 86.4087 86.5359 82.1209 86.5359 77.8302 86.5326 73.5394 86.5326 69.2518 86.5294 60.6701 86.5294" stroke="#0000FF" stroke-width="0.611607" stroke-linecap="round" stroke-linejoin="round" stroke-miterlimit="10" fill="none" transform="matrix(1 0 0 1.00297 258 120)"/><path d="M373.813 86.8931 240.836 86.8931 236.545 86.9371 232.257 86.9983 227.967 87.0488 223.676 87.0937 219.388 87.1377 215.098 87.1793 210.807 87.2144 206.519 87.2462 202.228 87.2747 197.941 87.3041 193.65 87.291 189.359 87.2723 185.072 87.2494 176.49 87.2111 172.202 87.1989 167.911 87.1826 163.624 87.1703 159.333 87.1573 155.042 87.1475 150.755 87.1377 142.173 87.1189 137.886 87.1124 129.304 87.1002 125.017 87.0937 120.726 87.0872 116.438 87.0839 112.147 87.0774 107.857 87.0741 103.569 87.0708 94.9867 87.0651 90.6997 87.0619 86.4087 87.0619 82.1209 87.0586 77.8302 87.0553 73.5394 87.0553 69.2518 87.0521 64.961 87.0521 60.6701 87.0488" stroke="#00FFFF" stroke-width="0.611607" stroke-linecap="round" stroke-linejoin="round" stroke-miterlimit="10" fill="none" transform="matrix(1 0 0 1.00297 258 120)"/><path d="M373.813 86.8931 279.444 86.8931 275.153 86.7528 270.862 85.1406 266.575 83.6719 262.284 82.3345 257.993 81.1431 253.705 80.5314 249.415 79.9645 245.124 78.9356 240.836 78.0309 236.545 77.1517 232.257 76.3744 227.967 75.6768 223.676 75.0302 219.388 74.4504 215.098 73.9216 210.807 73.4406 206.519 73.001 202.228 72.6028 197.941 72.2238 193.65 72.0423 189.359 71.8638 185.072 71.7078 180.781 71.5644 176.49 71.437 172.202 71.3191 167.911 71.2108 163.624 71.1152 159.333 71.0261 155.042 70.9432 150.755 70.8699 146.464 70.8031 142.173 70.7426 137.886 70.6852 133.595 70.6343 129.304 70.5897 125.017 70.5451 120.726 70.5068 116.438 70.4718 112.147 70.4399 107.857 70.4113 103.569 70.3858 99.2777 70.3603 94.9867 70.338 90.6997 70.3189 86.4087 70.2998 82.1209 70.2839 73.5394 70.252 69.2518 70.2392 64.961 70.2297 60.6701 70.217" stroke="#FF00FF" stroke-width="0.611607" stroke-linecap="round" stroke-linejoin="round" stroke-miterlimit="10" fill="none" transform="matrix(1 0 0 1.00297 258 120)"/><path d="M373.813 86.8931 253.705 86.8931 249.415 87.0456 245.124 97.7422 240.836 107.423 236.545 115.935 232.257 123.035 227.967 129.24 223.676 134.974 219.388 140.138 215.098 144.836 210.807 149.117 206.519 153.017 202.228 156.456 197.941 159.636 193.65 162.732 189.359 166.249 185.072 169.307 180.781 172.104 176.49 174.652 172.202 176.971 167.911 179.083 163.624 181.01 159.333 182.762 155.042 184.361 150.755 185.814 146.464 187.145 142.173 188.346 137.886 189.451 133.595 190.445 129.304 191.366 125.017 192.188 120.726 192.949 116.438 193.647 112.147 194.268 107.857 194.845 103.569 195.355 99.2777 195.835 94.9867 196.253 90.6997 196.65 86.4087 197.017 82.1209 197.329 77.8302 197.632 73.5394 197.88 69.2518 198.129 64.961 198.358 60.6701 198.54" stroke="#000000" stroke-width="0.611607" stroke-linecap="round" stroke-linejoin="round" stroke-miterlimit="10" fill="none" transform="matrix(1 0 0 1.00297 258 120)"/><path d="M373.813 86.8931 369.526 86.2236 365.235 82.9013 360.947 79.8721 356.656 77.1103 352.366 74.597 348.078 72.3066 343.787 70.2202 339.496 68.3184 335.209 66.5855 330.918 65.0629 326.627 63.9225 322.339 62.8809 318.049 61.9348 313.761 61.0715 309.47 60.2815 305.179 59.5648 300.892 58.8449 296.601 58.0613 292.31 57.3541 288.022 56.7553 283.732 56.236 279.444 55.7709 275.153 55.3504 270.862 54.981 266.575 54.6401 262.284 54.3311 257.993 54.0444 253.705 53.9902 249.415 53.9297 245.124 53.9424 240.836 53.9743 236.545 54.0763 232.257 54.3279 227.967 54.5572 223.676 54.7547 219.388 54.9459 215.098 55.1179 210.807 55.2772 206.519 55.4205 202.228 55.5511 197.941 55.6594 193.65 55.8984 189.359 56.1181 185.072 56.3156 180.781 56.494 176.49 56.6597 172.202 56.8062 167.911 56.9432 163.624 57.0674 159.333 57.1789 155.042 57.2808 150.755 57.3764 146.464 57.4592 142.173 57.5389 137.886 57.6089 133.595 57.6727 129.304 57.7332 125.017 57.7841 120.726 57.8319 116.438 57.8765 112.147 57.9179 107.857 57.953 103.569 57.988 94.9867 58.0454 90.6997 58.0708 86.4087 58.0931 82.1209 58.1122 77.8302 58.1314 73.5394 58.1473 69.2518 58.1632 64.961 58.1792 60.6701 58.1887" stroke="#FF0000" stroke-width="0.611607" stroke-linecap="round" stroke-linejoin="round" stroke-miterlimit="10" fill="none" transform="matrix(1 0 0 1.00297 258 120)"/><path d="M373.813 86.8931 197.941 86.8931 193.65 86.8988 189.359 86.9086 185.072 86.9151 180.781 86.9183 176.49 86.9249 172.202 86.9314 167.911 86.9338 163.624 86.9371 159.333 86.9436 155.042 86.9469 150.755 86.9501 146.464 86.9534 142.173 86.9534 137.886 86.9567 133.595 86.9599 129.304 86.9599 125.017 86.9632 120.726 86.9665 112.147 86.9665 107.857 86.9689 103.569 86.9689 99.2777 86.9722 86.4087 86.9722 82.1209 86.9754 60.6701 86.9754" stroke="#00CD00" stroke-width="0.611607" stroke-linecap="round" stroke-linejoin="round" stroke-miterlimit="10" fill="none" transform="matrix(1 0 0 1.00297 258 120)"/><path d="M373.813 86.8931 262.284 86.8931 257.993 86.9183 253.705 87.3261 249.415 87.6988 245.124 88.3234 240.836 88.8967 236.545 89.4952 232.257 90.2602 227.967 90.9444 223.676 91.5625 219.388 92.1325 215.098 92.652 210.807 93.1233 206.519 93.5539 202.228 93.9388 197.941 94.2829 193.65 94.6336 189.359 94.9777 185.072 95.2868 180.781 95.564 176.49 95.8185 172.202 96.0509 167.911 96.2613 163.624 96.4521 159.333 96.6274 155.042 96.7872 150.755 96.9332 146.464 97.0669 142.173 97.1852 137.886 97.2961 133.595 97.3956 129.304 97.4877 125.017 97.5701 120.726 97.6467 116.438 97.7169 107.857 97.8384 103.569 97.8889 99.2777 97.9371 94.9867 97.9778 90.6997 98.0162 86.4087 98.0545 82.1209 98.0863 73.5394 98.1442 69.2518 98.1662 64.961 98.1915 60.6701 98.2111" stroke="#0000FF" stroke-width="0.611607" stroke-linecap="round" stroke-linejoin="round" stroke-miterlimit="10" fill="none" transform="matrix(1 0 0 1.00297 258 120)"/><path d="M373.813 86.8931 197.941 86.8931 193.65 86.7593 189.359 86.5962 185.072 86.447 180.781 86.3133 176.49 86.1885 172.202 86.0776 167.911 85.9757 163.624 85.8827 159.333 85.8003 155.042 85.7204 150.755 85.6503 146.464 85.5867 142.173 85.5296 137.886 85.475 133.595 85.4277 129.304 85.3828 125.017 85.3412 120.726 85.3062 116.438 85.2711 107.857 85.214 103.569 85.1887 99.2777 85.1667 94.9867 85.1471 90.6997 85.1251 86.4087 85.1088 82.1209 85.0933 77.8302 85.077 73.5394 85.0672 69.2518 85.055 64.961 85.0419 60.6701 85.0354" stroke="#00FFFF" stroke-width="0.611607" stroke-linecap="round" stroke-linejoin="round" stroke-miterlimit="10" fill="none" transform="matrix(1 0 0 1.00297 258 120)"/><path d="M373.813 86.8931 292.31 86.8931 288.022 86.8963 283.732 86.8963 279.444 86.8988 270.862 86.8988 266.575 86.902 262.284 86.902 257.993 86.9053 253.705 86.9053 249.415 86.9086 236.545 86.9086 232.257 86.9053 219.388 86.9053 215.098 86.902 197.941 86.902 193.65 86.9053 189.359 86.9118 185.072 86.9183 176.49 86.9314 172.202 86.9338 167.911 86.9371 163.624 86.9436 155.042 86.9501 150.755 86.9501 142.173 86.9567 137.886 86.9599 133.595 86.9599 129.304 86.9632 125.017 86.9632 120.726 86.9665 116.438 86.9665 112.147 86.9689 103.569 86.9689 99.2777 86.9722 82.1209 86.9722 77.8302 86.9754 60.6701 86.9754" stroke="#FF00FF" stroke-width="0.611607" stroke-linecap="round" stroke-linejoin="round" stroke-miterlimit="10" fill="none" transform="matrix(1 0 0 1.00297 258 120)"/><path d="M373.813 86.8931 335.209 86.8931 330.918 86.9885 326.627 87.5169 322.339 88.0013 318.049 88.4408 313.761 88.842 309.47 89.2058 305.179 89.5401 300.892 89.8329 296.601 90.0848 292.31 90.314 288.022 90.4763 283.732 90.5749 279.444 90.6646 275.153 90.7437 270.862 90.7984 266.575 90.8457 262.284 90.8905 257.993 90.9289 253.705 90.9607 249.415 90.9859 245.124 91.1458 240.836 91.2885 236.545 91.4067 232.257 91.432 223.676 91.4703 219.388 91.4866 210.807 91.5119 206.519 91.5242 202.228 91.5339 197.941 91.5437 193.65 91.6106 189.359 91.6905 185.072 91.7631 180.781 91.83 176.49 91.8879 172.202 91.9449 167.911 91.993 163.624 92.0403 159.333 92.0819 155.042 92.1203 150.755 92.1521 146.464 92.1839 142.173 92.2124 137.886 92.2377 133.595 92.2638 129.304 92.2858 125.017 92.3046 120.726 92.3209 116.438 92.3396 112.147 92.3527 107.857 92.369 103.569 92.378 99.2777 92.391 94.9867 92.4008 90.6997 92.4098 86.4087 92.4195 82.1209 92.4261 73.5394 92.4383 69.2518 92.4448 64.961 92.4514 60.6701 92.4546" stroke="#000000" stroke-width="0.611607" stroke-linecap="round" stroke-linejoin="round" stroke-miterlimit="10" fill="none" transform="matrix(1 0 0 1.00297 258 120)"/><path d="M373.813 86.8931 305.179 86.8931 300.892 86.8898 292.31 86.8768 288.022 86.8702 283.732 86.867 279.444 86.8613 270.862 86.8547 266.575 86.8482 262.284 86.8482 257.993 86.845 253.705 86.8417 245.124 86.8352 240.836 86.8352 236.545 86.8319 227.967 86.8319 223.676 86.8295 206.519 86.8295 202.228 86.8262 189.359 86.8262 185.072 86.8229 167.911 86.8229 163.624 86.8197 125.017 86.8197 120.726 86.8164 60.6701 86.8164" stroke="#FF0000" stroke-width="0.611607" stroke-linecap="round" stroke-linejoin="round" stroke-miterlimit="10" fill="none" transform="matrix(1 0 0 1.00297 258 120)"/><path d="M373.813 86.8931 369.526 87.428 365.235 87.7493 360.947 88.0429 356.656 88.3104 352.366 88.5526 348.078 88.7752 343.787 88.9758 339.496 89.1609 335.209 89.3297 330.918 89.4765 326.627 89.5784 322.339 89.6738 318.049 89.7595 313.761 89.8394 309.47 89.9095 305.179 89.9764 300.892 90.018 296.601 90.0269 292.31 90.04 288.022 90.04 283.732 90.0335 279.444 90.0269 270.862 90.0147 266.575 90.0082 262.284 90.0017 257.993 89.9984 253.705 90.0433 249.415 90.0816 245.124 90.0848 240.836 90.0914 236.545 90.0971 232.257 90.0971 227.967 90.1003 223.676 90.1003 219.388 90.1036 215.098 90.1036 210.807 90.1069 206.519 90.1069 202.228 90.1101 197.941 90.1101 193.65 90.1166 189.359 90.1134 185.072 90.1101 176.49 90.1101 172.202 90.1069 159.333 90.1069 155.042 90.1036 133.595 90.1036 129.304 90.1003 77.8302 90.1003 73.5394 90.0971 60.6701 90.0971" stroke="#00CD00" stroke-width="0.611607" stroke-linecap="round" stroke-linejoin="round" stroke-miterlimit="10" fill="none" transform="matrix(1 0 0 1.00297 258 120)"/><path d="M53.7927 48.145 376.553 48.145" stroke="#000000" stroke-width="0.611607" stroke-linecap="round" stroke-linejoin="round" stroke-miterlimit="10" fill="none" transform="matrix(1 0 0 1.00297 258 120)"/><path d="M53.7927 48.145 53.7927 46.5841" stroke="#000000" stroke-width="0.611607" stroke-linecap="round" stroke-linejoin="round" stroke-miterlimit="10" fill="none" transform="matrix(1 0 0 1.00297 258 120)"/><path d="M99.9024 48.145 99.9024 46.5841" stroke="#000000" stroke-width="0.611607" stroke-linecap="round" stroke-linejoin="round" stroke-miterlimit="10" fill="none" transform="matrix(1 0 0 1.00297 258 120)"/><path d="M146.009 48.145 146.009 46.5841" stroke="#000000" stroke-width="0.611607" stroke-linecap="round" stroke-linejoin="round" stroke-miterlimit="10" fill="none" transform="matrix(1 0 0 1.00297 258 120)"/><path d="M192.118 48.145 192.118 46.5841" stroke="#000000" stroke-width="0.611607" stroke-linecap="round" stroke-linejoin="round" stroke-miterlimit="10" fill="none" transform="matrix(1 0 0 1.00297 258 120)"/><path d="M238.227 48.145 238.227 46.5841" stroke="#000000" stroke-width="0.611607" stroke-linecap="round" stroke-linejoin="round" stroke-miterlimit="10" fill="none" transform="matrix(1 0 0 1.00297 258 120)"/><path d="M284.334 48.145 284.334 46.5841" stroke="#000000" stroke-width="0.611607" stroke-linecap="round" stroke-linejoin="round" stroke-miterlimit="10" fill="none" transform="matrix(1 0 0 1.00297 258 120)"/><path d="M330.443 48.145 330.443 46.5841" stroke="#000000" stroke-width="0.611607" stroke-linecap="round" stroke-linejoin="round" stroke-miterlimit="10" fill="none" transform="matrix(1 0 0 1.00297 258 120)"/><path d="M376.553 48.145 376.553 46.5841" stroke="#000000" stroke-width="0.611607" stroke-linecap="round" stroke-linejoin="round" stroke-miterlimit="10" fill="none" transform="matrix(1 0 0 1.00297 258 120)"/><path d="M0.942894-4.84189 0.942894-5.50446C1.56087-5.5618 1.99091-5.66373 2.22982-5.81027 2.4751-5.95361 2.66304-6.28809 2.79046-6.81687L3.46577-6.81687 3.46577 0 2.54836 0 2.54836-4.84189Z" transform="matrix(1 0 0 1.00297 306.352 154.157)"/><path d="M1.21048-1.74562C1.26781-1.25189 1.49717-0.911042 1.89853-0.726283 2.1024-0.63072 2.33494-0.586124 2.59933-0.586124 3.109-0.586124 3.48489-0.745396 3.73335-1.07031 3.97863-1.39204 4.10286-1.752 4.10286-2.15336 4.10286-2.628 3.95315-2.99751 3.6569-3.2619 3.36703-3.52311 3.01981-3.6569 2.61207-3.6569 2.31264-3.6569 2.05781-3.59638 1.84756-3.47851 1.63414-3.36703 1.45576-3.21094 1.31241-3.00707L0.56064-3.0453 1.08305-6.72768 4.63802-6.72768 4.63802-5.89946 1.73289-5.89946 1.43982-4.00093C1.5991-4.11879 1.752-4.20799 1.89853-4.26851 2.15336-4.37045 2.44643-4.42141 2.77772-4.42141 3.40525-4.42141 3.93722-4.21754 4.37045-3.80981 4.81004-3.40844 5.03302-2.89876 5.03302-2.28079 5.03302-1.63414 4.82915-1.06076 4.42141-0.56064 4.02004-0.0668945 3.38295 0.178385 2.51013 0.178385 1.95587 0.178385 1.46531 0.0191127 1.03208-0.293062 0.605237-0.605237 0.369513-1.08943 0.318545-1.74562Z" transform="matrix(1 0 0 1.00297 311.794 154.157)"/><path d="M0.942894-4.84189 0.942894-5.50446C1.56087-5.5618 1.99091-5.66373 2.22982-5.81027 2.4751-5.95361 2.66304-6.28809 2.79046-6.81687L3.46577-6.81687 3.46577 0 2.54836 0 2.54836-4.84189Z" transform="matrix(1 0 0 1.00297 352.461 154.157)"/><path d="M1.21048-1.74562C1.26781-1.25189 1.49717-0.911042 1.89853-0.726283 2.1024-0.63072 2.33494-0.586124 2.59933-0.586124 3.109-0.586124 3.48489-0.745396 3.73335-1.07031 3.97863-1.39204 4.10286-1.752 4.10286-2.15336 4.10286-2.628 3.95315-2.99751 3.6569-3.2619 3.36703-3.52311 3.01981-3.6569 2.61207-3.6569 2.31264-3.6569 2.05781-3.59638 1.84756-3.47851 1.63414-3.36703 1.45576-3.21094 1.31241-3.00707L0.56064-3.0453 1.08305-6.72768 4.63802-6.72768 4.63802-5.89946 1.73289-5.89946 1.43982-4.00093C1.5991-4.11879 1.752-4.20799 1.89853-4.26851 2.15336-4.37045 2.44643-4.42141 2.77772-4.42141 3.40525-4.42141 3.93722-4.21754 4.37045-3.80981 4.81004-3.40844 5.03302-2.89876 5.03302-2.28079 5.03302-1.63414 4.82915-1.06076 4.42141-0.56064 4.02004-0.0668945 3.38295 0.178385 2.51013 0.178385 1.95587 0.178385 1.46531 0.0191127 1.03208-0.293062 0.605237-0.605237 0.369513-1.08943 0.318545-1.74562Z" transform="matrix(1 0 0 1.00297 357.904 154.157)"/><path d="M0.942894-4.84189 0.942894-5.50446C1.56087-5.5618 1.99091-5.66373 2.22982-5.81027 2.4751-5.95361 2.66304-6.28809 2.79046-6.81687L3.46577-6.81687 3.46577 0 2.54836 0 2.54836-4.84189Z" transform="matrix(1 0 0 1.00297 398.568 154.157)"/><path d="M1.21048-1.74562C1.26781-1.25189 1.49717-0.911042 1.89853-0.726283 2.1024-0.63072 2.33494-0.586124 2.59933-0.586124 3.109-0.586124 3.48489-0.745396 3.73335-1.07031 3.97863-1.39204 4.10286-1.752 4.10286-2.15336 4.10286-2.628 3.95315-2.99751 3.6569-3.2619 3.36703-3.52311 3.01981-3.6569 2.61207-3.6569 2.31264-3.6569 2.05781-3.59638 1.84756-3.47851 1.63414-3.36703 1.45576-3.21094 1.31241-3.00707L0.56064-3.0453 1.08305-6.72768 4.63802-6.72768 4.63802-5.89946 1.73289-5.89946 1.43982-4.00093C1.5991-4.11879 1.752-4.20799 1.89853-4.26851 2.15336-4.37045 2.44643-4.42141 2.77772-4.42141 3.40525-4.42141 3.93722-4.21754 4.37045-3.80981 4.81004-3.40844 5.03302-2.89876 5.03302-2.28079 5.03302-1.63414 4.82915-1.06076 4.42141-0.56064 4.02004-0.0668945 3.38295 0.178385 2.51013 0.178385 1.95587 0.178385 1.46531 0.0191127 1.03208-0.293062 0.605237-0.605237 0.369513-1.08943 0.318545-1.74562Z" transform="matrix(1 0 0 1.00297 404.01 154.157)"/><path d="M0.942894-4.84189 0.942894-5.50446C1.56087-5.5618 1.99091-5.66373 2.22982-5.81027 2.4751-5.95361 2.66304-6.28809 2.79046-6.81687L3.46577-6.81687 3.46577 0 2.54836 0 2.54836-4.84189Z" transform="matrix(1 0 0 1.00297 444.677 154.157)"/><path d="M1.21048-1.74562C1.26781-1.25189 1.49717-0.911042 1.89853-0.726283 2.1024-0.63072 2.33494-0.586124 2.59933-0.586124 3.109-0.586124 3.48489-0.745396 3.73335-1.07031 3.97863-1.39204 4.10286-1.752 4.10286-2.15336 4.10286-2.628 3.95315-2.99751 3.6569-3.2619 3.36703-3.52311 3.01981-3.6569 2.61207-3.6569 2.31264-3.6569 2.05781-3.59638 1.84756-3.47851 1.63414-3.36703 1.45576-3.21094 1.31241-3.00707L0.56064-3.0453 1.08305-6.72768 4.63802-6.72768 4.63802-5.89946 1.73289-5.89946 1.43982-4.00093C1.5991-4.11879 1.752-4.20799 1.89853-4.26851 2.15336-4.37045 2.44643-4.42141 2.77772-4.42141 3.40525-4.42141 3.93722-4.21754 4.37045-3.80981 4.81004-3.40844 5.03302-2.89876 5.03302-2.28079 5.03302-1.63414 4.82915-1.06076 4.42141-0.56064 4.02004-0.0668945 3.38295 0.178385 2.51013 0.178385 1.95587 0.178385 1.46531 0.0191127 1.03208-0.293062 0.605237-0.605237 0.369513-1.08943 0.318545-1.74562Z" transform="matrix(1 0 0 1.00297 450.12 154.157)"/><path d="M0.942894-4.84189 0.942894-5.50446C1.56087-5.5618 1.99091-5.66373 2.22982-5.81027 2.4751-5.95361 2.66304-6.28809 2.79046-6.81687L3.46577-6.81687 3.46577 0 2.54836 0 2.54836-4.84189Z" transform="matrix(1 0 0 1.00297 490.787 154.157)"/><path d="M0.305804 0C0.337658-0.586124 0.461891-1.0958 0.675316-1.52902 0.885558-1.96861 1.29967-2.36998 1.91127-2.72675L2.82868-3.2619C3.23642-3.49763 3.52311-3.7015 3.69513-3.87351 3.95633-4.13472 4.09012-4.43734 4.09012-4.77818 4.09012-5.17637 3.96589-5.49173 3.72061-5.72107 3.4817-5.9568 3.16634-6.07784 2.77772-6.07784 2.18203-6.07784 1.7743-5.85487 1.5545-5.41527 1.42708-5.16681 1.357-4.83552 1.35063-4.42141L0.471447-4.42141C0.477818-5.01391 0.589309-5.4981 0.802734-5.87397 1.17544-6.53655 1.83482-6.86784 2.77772-6.86784 3.55815-6.86784 4.12835-6.65442 4.48512-6.23074 4.84826-5.8039 5.03302-5.33245 5.03302-4.81641 5.03302-4.27169 4.84189-3.80343 4.45964-3.41481 4.23665-3.18545 3.83847-2.90832 3.2619-2.58659L2.59933-2.22982C2.29353-2.05781 2.05143-1.89216 1.87305-1.73289 1.54813-1.45894 1.34426-1.15313 1.26144-0.815476L5.00753-0.815476 5.00753 0Z" transform="matrix(1 0 0 1.00297 496.229 154.157)"/><path d="M2.8669-6.86784C3.63141-6.86784 4.1602-6.66715 4.45964-6.26897 4.76544-5.87716 4.91834-5.46942 4.91834-5.04576L4.06464-5.04576C4.01368-5.31652 3.93085-5.52995 3.82254-5.68285 3.60912-5.96954 3.29376-6.11607 2.87965-6.11607 2.39546-6.11607 2.00684-5.88991 1.72015-5.44076 1.43982-4.99798 1.28692-4.36407 1.26144-3.54222 1.45576-3.82891 1.70103-4.04553 2.00046-4.19205 2.27123-4.31948 2.57704-4.38318 2.91787-4.38318 3.49445-4.38318 3.99456-4.19843 4.42141-3.83528 4.84508-3.46896 5.0585-2.92106 5.0585-2.19159 5.0585-1.57043 4.85463-1.01935 4.44689-0.535156 4.04553-0.0573382 3.47214 0.178385 2.72675 0.178385 2.0801 0.178385 1.52265-0.0637091 1.05757-0.547898 0.598865-1.03846 0.369513-1.86031 0.369513-3.00707 0.369513-3.8544 0.471447-4.5775 0.675316-5.17318 1.0735-6.30083 1.80297-6.86784 2.8669-6.86784ZM2.8032-0.586124C3.25235-0.586124 3.58682-0.739025 3.80981-1.04483 4.03915-1.35063 4.15383-1.71059 4.15383-2.12789 4.15383-2.4751 4.0519-2.80639 3.84803-3.12174 3.65053-3.43392 3.28739-3.59319 2.75223-3.59319 2.3859-3.59319 2.06417-3.46896 1.78385-3.22368 1.50353-2.98477 1.36338-2.61844 1.36338-2.12789 1.36338-1.69466 1.49079-1.32834 1.74562-1.03208 2.00046-0.732655 2.35086-0.586124 2.8032-0.586124Z" transform="matrix(1 0 0 1.00297 539.613 154.157)"/><path d="M2.54836 0.191127C1.73289 0.191127 1.14039-0.028669 0.777251-0.471447 0.410923-0.920599 0.229353-1.46531 0.229353-2.1024L1.13402-2.1024C1.16588-1.65962 1.2487-1.33789 1.37612-1.13402 1.60547-0.777251 2.00684-0.598865 2.58659-0.598865 3.0453-0.598865 3.40844-0.716727 3.68238-0.95564 3.95315-1.20092 4.09012-1.51628 4.09012-1.89853 4.09012-2.36361 3.94359-2.69171 3.6569-2.87965 3.36703-3.07396 2.96884-3.17271 2.45917-3.17271 2.39865-3.17271 2.33812-3.16634 2.28079-3.15997 2.22026-3.15997 2.15974-3.15997 2.1024-3.15997L2.1024-3.92448C2.19478-3.90536 2.27123-3.899 2.33176-3.899 2.38909-3.899 2.4528-3.899 2.52288-3.899 2.84461-3.899 3.109-3.94996 3.31287-4.0519 3.67601-4.23028 3.86077-4.54882 3.86077-5.00753 3.86077-5.34519 3.73654-5.6064 3.49126-5.78478 3.25235-5.96954 2.97203-6.0651 2.6503-6.0651 2.0801-6.0651 1.68511-5.87397 1.46531-5.49173 1.34426-5.28786 1.27737-4.98842 1.26144-4.59979L0.407738-4.59979C0.407738-5.10946 0.509673-5.54269 0.713542-5.89946 1.06076-6.53655 1.67555-6.8551 2.5611-6.8551 3.25554-6.8551 3.79706-6.69583 4.17932-6.38365 4.56157-6.07784 4.75269-5.62551 4.75269-5.03302 4.75269-4.61573 4.64121-4.27488 4.42141-4.01368 4.27488-3.85122 4.09331-3.7238 3.87351-3.63141 4.23028-3.52948 4.5106-3.33836 4.71447-3.05804 4.91834-2.77772 5.02028-2.43369 5.02028-2.02595 5.02028-1.36975 4.80366-0.834591 4.37045-0.42048 3.94359-0.0127418 3.33836 0.191127 2.54836 0.191127Z" transform="matrix(1 0 0 1.00297 585.723 154.157)"/><path d="M2.6503-6.84235C3.53267-6.84235 4.17295-6.47603 4.57432-5.74656 4.88012-5.18592 5.03302-4.41186 5.03302-3.42754 5.03302-2.50058 4.89286-1.73289 4.61254-1.12128 4.21117-0.24528 3.55497 0.191127 2.63756 0.191127 1.82208 0.191127 1.21048-0.165644 0.802734-0.879181 0.471447-1.48124 0.305804-2.28397 0.305804-3.28739 0.305804-4.05827 0.407738-4.72722 0.611607-5.28786 0.984304-6.32313 1.6628-6.84235 2.6503-6.84235ZM2.63756-0.598865C3.08671-0.598865 3.44348-0.793178 3.70787-1.18498 3.96908-1.58317 4.10286-2.3222 4.10286-3.40207 4.10286-4.17295 4.00412-4.81004 3.80981-5.31333 3.62186-5.81346 3.25235-6.0651 2.70126-6.0651 2.19159-6.0651 1.81571-5.82619 1.57999-5.35156 1.35063-4.87374 1.23595-4.17295 1.23595-3.24917 1.23595-2.55155 1.31241-1.99091 1.46531-1.56725 1.69466-0.920599 2.08329-0.598865 2.63756-0.598865Z" transform="matrix(1 0 0 1.00297 631.832 154.157)"/></g></svg>