<svg width="291" height="215" xmlns="http://www.w3.org/2000/svg" xmlns:xlink="http://www.w3.org/1999/xlink" xml:space="preserve" overflow="hidden"><g><path d="M201.716 208.108 201.716 49.2354" stroke="#000000" stroke-width="2.21066" stroke-linecap="round" stroke-linejoin="round" stroke-miterlimit="1.5" fill="none" fill-rule="evenodd" transform="matrix(1 0 0 1.00017 -67.4463 -31.353)"/><path d="M201.716 49.2354 193.442 57.5089" stroke="#000000" stroke-width="2.21066" stroke-linecap="round" stroke-linejoin="round" stroke-miterlimit="1.5" fill="none" fill-rule="evenodd" transform="matrix(1 0 0 1.00017 -67.4463 -31.353)"/><path d="M201.716 49.2354 210.747 58.2662" stroke="#000000" stroke-width="2.21066" stroke-linecap="round" stroke-linejoin="round" stroke-miterlimit="1.5" fill="none" fill-rule="evenodd" transform="matrix(1 0 0 1.00017 -67.4463 -31.353)"/><path d="M68.5514 130.104 346.906 130.104" stroke="#000000" stroke-width="2.21066" stroke-linecap="round" stroke-linejoin="round" stroke-miterlimit="1.5" fill="none" fill-rule="evenodd" transform="matrix(1 0 0 1.00017 -67.4463 -31.353)"/><path d="M346.906 130.104 339.168 122.365" stroke="#000000" stroke-width="2.21066" stroke-linecap="round" stroke-linejoin="round" stroke-miterlimit="1.5" fill="none" fill-rule="evenodd" transform="matrix(1 0 0 1.00017 -67.4463 -31.353)"/><path d="M346.906 130.104 339.428 137.582" stroke="#000000" stroke-width="2.21066" stroke-linecap="round" stroke-linejoin="round" stroke-miterlimit="1.5" fill="none" fill-rule="evenodd" transform="matrix(1 0 0 1.00017 -67.4463 -31.353)"/><path d="M80.6005 199.5 150.104 129.996" stroke="#D92424" stroke-width="4.42015" stroke-linecap="round" stroke-linejoin="round" stroke-miterlimit="1.5" fill="none" fill-rule="evenodd" transform="matrix(1 0 0 1.00017 -67.4463 -31.353)"/><path d="M80.6005 199.5 150.104 129.996" stroke="#D92424" stroke-width="4.42015" stroke-linecap="round" stroke-linejoin="round" stroke-miterlimit="1.5" fill="none" fill-rule="evenodd" transform="matrix(1 0 0 1.00017 112.136 -100.88)"/><path d="M150.104 129.996 260.183 129.984" stroke="#D92424" stroke-width="4.42015" stroke-linecap="round" stroke-linejoin="round" stroke-miterlimit="1.5" fill="none" fill-rule="evenodd" transform="matrix(1 0 0 1.00017 -67.4463 -31.353)"/><path d="M5.05079 5.59297 2.51113 5.59297 2.51113-13.9824C2.51113-18.3484 4.65129-20.5741 8.96016-20.6597 10.6438-20.6597 12.0705-20.2317 13.1834-19.4042 14.2963-18.5481 14.867-17.3211 14.8956-15.7231 14.867-13.212 13.7256-11.614 11.4142-10.9006L11.4142-10.8435C14.3248-10.3869 15.8087-8.6748 15.8372-5.73564 15.8372-3.99498 15.2951-2.5682 14.2963-1.45531 13.2405-0.313891 11.8422 0.25682 10.0445 0.285355 8.96016 0.285355 8.04702 0.114142 7.3051-0.199749 6.53464-0.51364 5.79271-1.08435 5.05079-1.91188L5.05079 5.59297ZM5.07933-6.87707C5.07933-6.22075 5.16493-5.56443 5.27908-4.96518 5.42175-4.36594 5.6215-3.82376 5.93539-3.33866 6.24928-2.85355 6.70585-2.48259 7.3051-2.22577 7.87581-1.91188 8.61773-1.7692 9.50234-1.7692 10.7008-1.7692 11.6425-2.1687 12.2988-2.93916 12.9551-3.68108 13.269-4.65129 13.269-5.82125 13.2405-7.21949 12.8125-8.21824 11.9564-8.81748 11.1003-9.35966 10.0445-9.64501 8.76041-9.64501 8.27531-9.61648 7.7902-9.58794 7.3051-9.55941L7.3051-11.6996C7.73313-11.6996 8.13263-11.6996 8.50359-11.7281 9.55941-11.7566 10.4725-12.042 11.2145-12.6127 11.9279-13.1549 12.2988-14.068 12.3274-15.2951 12.2703-17.4923 11.1003-18.6052 8.81748-18.6052 7.50485-18.5766 6.53464-18.2057 5.96393-17.4352 5.36468-16.6362 5.07933-15.6089 5.07933-14.2678L5.07933-6.87707Z" transform="matrix(1 0 0 1.00017 242.839 134.734)"/><path d="M5.05079 5.59297 2.51113 5.59297 2.51113-13.9824C2.51113-18.3484 4.65129-20.5741 8.96016-20.6597 10.6438-20.6597 12.0705-20.2317 13.1834-19.4042 14.2963-18.5481 14.867-17.3211 14.8956-15.7231 14.867-13.212 13.7256-11.614 11.4142-10.9006L11.4142-10.8435C14.3248-10.3869 15.8087-8.6748 15.8372-5.73564 15.8372-3.99498 15.2951-2.5682 14.2963-1.45531 13.2405-0.313891 11.8422 0.25682 10.0445 0.285355 8.96016 0.285355 8.04702 0.114142 7.3051-0.199749 6.53464-0.51364 5.79271-1.08435 5.05079-1.91188L5.05079 5.59297ZM5.07933-6.87707C5.07933-6.22075 5.16493-5.56443 5.27908-4.96518 5.42175-4.36594 5.6215-3.82376 5.93539-3.33866 6.24928-2.85355 6.70585-2.48259 7.3051-2.22577 7.87581-1.91188 8.61773-1.7692 9.50234-1.7692 10.7008-1.7692 11.6425-2.1687 12.2988-2.93916 12.9551-3.68108 13.269-4.65129 13.269-5.82125 13.2405-7.21949 12.8125-8.21824 11.9564-8.81748 11.1003-9.35966 10.0445-9.64501 8.76041-9.64501 8.27531-9.61648 7.7902-9.58794 7.3051-9.55941L7.3051-11.6996C7.73313-11.6996 8.13263-11.6996 8.50359-11.7281 9.55941-11.7566 10.4725-12.042 11.2145-12.6127 11.9279-13.1549 12.2988-14.068 12.3274-15.2951 12.2703-17.4923 11.1003-18.6052 8.81748-18.6052 7.50485-18.5766 6.53464-18.2057 5.96393-17.4352 5.36468-16.6362 5.07933-15.6089 5.07933-14.2678L5.07933-6.87707Z" transform="matrix(1 0 0 1.00017 72.9342 31.4921)"/><path d="M3.68252 4.07782 1.83086 4.07782 1.83086-10.1946C1.83086-13.3778 3.39125-15.0006 6.53284-15.063 7.76034-15.063 8.8006-14.7509 9.61201-14.1475 10.4234-13.5234 10.8395-12.6288 10.8603-11.4637 10.8395-9.63281 10.0073-8.46772 8.32208-7.94759L8.32208-7.90598C10.4442-7.5731 11.5261-6.32478 11.5469-4.18185 11.5469-2.91273 11.1516-1.87247 10.4234-1.06107 9.65362-0.228857 8.63416 0.187247 7.32343 0.208052 6.53284 0.208052 5.86707 0.0832208 5.32613-0.145636 4.76439-0.374494 4.22346-0.790598 3.68252-1.39395L3.68252 4.07782ZM3.70333-5.01406C3.70333-4.53554 3.76574-4.05702 3.84896-3.62011 3.95299-3.1832 4.09863-2.7879 4.32748-2.43421 4.55634-2.08052 4.88922-1.81005 5.32613-1.62281 5.74224-1.39395 6.28317-1.28992 6.92813-1.28992 7.80195-1.28992 8.48853-1.5812 8.96705-2.14294 9.44557-2.68387 9.67442-3.39125 9.67442-4.24426 9.65362-5.26372 9.34154-5.9919 8.71738-6.42881 8.09323-6.82411 7.32343-7.03216 6.3872-7.03216 6.03351-7.01136 5.67982-6.99055 5.32613-6.96975L5.32613-8.53014C5.63821-8.53014 5.92948-8.53014 6.19995-8.55094 6.96975-8.57175 7.63551-8.7798 8.17645-9.1959 8.69658-9.5912 8.96705-10.257 8.98785-11.1516 8.94624-12.7536 8.09323-13.565 6.42881-13.565 5.47177-13.5442 4.76439-13.2737 4.34829-12.712 3.91138-12.1294 3.70333-11.3804 3.70333-10.4026L3.70333-5.01406Z" stroke="#000000" stroke-width="0.208052" stroke-linejoin="round" stroke-miterlimit="2" transform="matrix(1 0 0 1.00017 186.786 209.294)"/><path d="M312.562 143 318.779 136.783" stroke="#000000" stroke-width="4.42015" stroke-linecap="round" stroke-linejoin="round" stroke-miterlimit="1.5" fill="none" fill-rule="evenodd" transform="matrix(1 0 0 1.00017 -67.4463 -31.353)"/><path d="M312.562 143 318.779 136.783" stroke="#000000" stroke-width="4.42015" stroke-linecap="round" stroke-linejoin="round" stroke-miterlimit="1.5" fill="none" fill-rule="evenodd" transform="matrix(1 0 0 1.00017 -237.352 -134.595)"/><path d="M227.888 104.261 232.421 99.728" stroke="#000000" stroke-width="2.39458" stroke-linecap="round" stroke-linejoin="round" stroke-miterlimit="1.5" fill="none" fill-rule="evenodd" transform="matrix(1 0 0 1.00017 -39.4426 88.2008)"/><path d="M318.779 136.783 325.067 143.07" stroke="#000000" stroke-width="4.42015" stroke-linecap="round" stroke-linejoin="round" stroke-miterlimit="1.5" fill="none" fill-rule="evenodd" transform="matrix(1 0 0 1.00017 -67.4463 -31.353)"/><path d="M318.779 136.783 325.067 143.07" stroke="#000000" stroke-width="4.42015" stroke-linecap="round" stroke-linejoin="round" stroke-miterlimit="1.5" fill="none" fill-rule="evenodd" transform="matrix(1 0 0 1.00017 -237.352 -134.595)"/><path d="M232.421 99.728 237.005 104.312" stroke="#000000" stroke-width="2.39458" stroke-linecap="round" stroke-linejoin="round" stroke-miterlimit="1.5" fill="none" fill-rule="evenodd" transform="matrix(1 0 0 1.00017 -39.4426 88.2008)"/><path d="M5.4802-1.62559 8.42349-8.71906 9.77815-8.71906 9.77815 0 8.89147 0 8.89147-7.53681 8.86684-7.53681 5.71418 0 5.24621 0 2.09356-7.53681 2.06893-7.53681 2.06893 0 1.18224 0 1.18224-8.71906 2.5369-8.71906 5.4802-1.62559Z" stroke="#000000" stroke-width="0.12315" stroke-linejoin="round" stroke-miterlimit="2" transform="matrix(1 0 0 1.00017 262.326 142.196)"/><path d="M2.06893-0.812793 6.13289-0.812793 6.13289 0 1.18224 0 1.18224-8.71906 2.06893-8.71906 2.06893-0.812793Z" stroke="#000000" stroke-width="0.12315" stroke-linejoin="round" stroke-miterlimit="2" transform="matrix(1 0 0 1.00017 273.287 142.196)"/><path d="M2.06893-0.812793 6.73633-0.812793 6.73633 0 1.18224 0 1.18224-8.71906 6.58855-8.71906 6.58855-7.90626 2.06893-7.90626 2.06893-4.93833 6.29299-4.93833 6.29299-4.12554 2.06893-4.12554 2.06893-0.812793Z" stroke="#000000" stroke-width="0.12315" stroke-linejoin="round" stroke-miterlimit="2" transform="matrix(1 0 0 1.00017 279.443 142.196)"/><path d="M1.07141-9.31018 1.8842-9.31018 1.8842 2.17274e-07 1.07141 2.17274e-07Z" stroke="#000000" stroke-width="0.12315" stroke-linejoin="round" stroke-miterlimit="2" transform="matrix(1 0 0 1.00017 92.4207 38.9543)"/><path d="M4.16249-2.86941C3.95313-2.86941 3.70683-2.85709 3.39895-2.84478 3.09108-2.82015 2.79552-2.77089 2.51227-2.697 2.22902-2.61079 1.98272-2.48764 1.78568-2.32754 1.57633-2.16745 1.47781-1.93346 1.47781-1.65022 1.47781-1.46549 1.51475-1.3054 1.60096-1.16993 1.67485-1.03446 1.77337-0.923629 1.90883-0.837423 2.0443-0.751218 2.19208-0.689643 2.35217-0.652698 2.51227-0.603437 2.67237-0.591122 2.83246-0.591122 3.12802-0.591122 3.38664-0.640383 3.60831-0.738903 3.81767-0.837423 4.00239-0.972889 4.15017-1.1453 4.29795-1.3054 4.40879-1.50244 4.48268-1.73642 4.54425-1.95809 4.5812-2.19208 4.5812-2.45069L4.5812-2.86941 4.16249-2.86941ZM4.5812-3.53442 4.5812-3.6822C4.5812-4.67972 4.0886-5.17232 3.10339-5.17232 2.42606-5.17232 1.84726-4.95065 1.34234-4.49499L0.849738-5.0738C1.3916-5.62798 2.20439-5.91122 3.28812-5.91122 3.57136-5.91122 3.8423-5.87428 4.10091-5.78807 4.35953-5.70187 4.5812-5.57872 4.76592-5.41862 4.95065-5.24621 5.11075-5.03686 5.22158-4.77824 5.33242-4.51962 5.39399-4.22406 5.39399-3.86693L5.39399-1.29308C5.39399-1.07141 5.40631-0.837423 5.43094-0.603437 5.44325-0.357136 5.46788-0.160096 5.49251 0L4.70435 0C4.67972-0.135466 4.6674-0.295561 4.65509-0.455657 4.64277-0.615752 4.63046-0.775848 4.63046-0.935944L4.60583-0.935944C4.37184-0.554177 4.0886-0.270931 3.7684-0.110835 3.4359 0.0615752 3.04182 0.147781 2.57385 0.147781 2.31523 0.147781 2.06893 0.110835 1.83494 0.0492602 1.60096-0.0246301 1.3916-0.135466 1.20687-0.283246 1.02215-0.418712 0.862053-0.603437 0.763533-0.812793 0.652698-1.02215 0.591122-1.25613 0.591122-1.53938 0.591122-2.00735 0.714273-2.3768 0.960574-2.64774 1.19456-2.90635 1.50244-3.10339 1.87189-3.23886 2.22902-3.37432 2.62311-3.44821 3.04182-3.48516 3.44821-3.5221 3.82998-3.53442 4.1748-3.53442L4.5812-3.53442Z" stroke="#000000" stroke-width="0.12315" stroke-linejoin="round" stroke-miterlimit="2" transform="matrix(1 0 0 1.00017 95.3764 38.9543)"/><path d="M3.94082-4.39647C3.81767-4.63046 3.65757-4.8275 3.44821-4.96297 3.23886-5.09843 2.99256-5.17232 2.697-5.17232 2.56153-5.17232 2.41375-5.16001 2.27828-5.12306 2.1305-5.08612 1.99504-5.03686 1.8842-4.97528 1.77337-4.90139 1.67485-4.81518 1.61327-4.70435 1.53938-4.59351 1.50244-4.47036 1.50244-4.31027 1.50244-4.03934 1.60096-3.8423 1.78568-3.71914 1.97041-3.59599 2.25365-3.48516 2.63542-3.39895L3.46053-3.20191C3.86693-3.11571 4.19943-2.93098 4.47036-2.66005 4.72898-2.3768 4.86444-2.03198 4.86444-1.62559 4.86444-1.31771 4.80287-1.04678 4.67972-0.825108 4.54425-0.591122 4.38416-0.406397 4.1748-0.270931 3.96545-0.12315 3.71914-0.012315 3.44821 0.0492602 3.17728 0.110835 2.90635 0.147781 2.62311 0.147781 2.17976 0.147781 1.76105 0.0615752 1.3916-0.110835 1.00983-0.270931 0.677328-0.566492 0.406397-0.972889L1.10835-1.45318C1.26845-1.19456 1.47781-0.985204 1.73642-0.825108 1.98272-0.665013 2.27828-0.591122 2.62311-0.591122 2.7832-0.591122 2.95561-0.603437 3.11571-0.652698 3.2758-0.689643 3.42358-0.738903 3.55905-0.825108 3.6822-0.898999 3.78072-0.997519 3.86693-1.12067 3.94082-1.24382 3.97776-1.3916 3.97776-1.5517 3.97776-1.83494 3.86693-2.0443 3.65757-2.17976 3.44821-2.30291 3.1896-2.40143 2.88172-2.47532L2.09356-2.66005C1.99504-2.68468 1.85957-2.72163 1.69948-2.7832 1.52707-2.84478 1.36697-2.93098 1.20687-3.04182 1.04678-3.15265 0.898999-3.31275 0.788163-3.49747 0.677328-3.6822 0.615752-3.90387 0.615752-4.1748 0.615752-4.47036 0.677328-4.72898 0.800478-4.95065 0.911314-5.17232 1.07141-5.35705 1.28077-5.49251 1.47781-5.62798 1.69948-5.73881 1.95809-5.8127 2.21671-5.87428 2.47532-5.91122 2.74626-5.91122 3.15265-5.91122 3.5221-5.83733 3.86693-5.67724 4.21175-5.51714 4.48268-5.25853 4.6674-4.87676L3.94082-4.39647Z" stroke="#000000" stroke-width="0.12315" stroke-linejoin="round" stroke-miterlimit="2" transform="matrix(1 0 0 1.00017 101.768 38.9543)"/><path d="M3.94082-4.39647C3.81767-4.63046 3.65757-4.8275 3.44821-4.96297 3.23886-5.09843 2.99256-5.17232 2.697-5.17232 2.56153-5.17232 2.41375-5.16001 2.27828-5.12306 2.1305-5.08612 1.99504-5.03686 1.8842-4.97528 1.77337-4.90139 1.67485-4.81518 1.61327-4.70435 1.53938-4.59351 1.50244-4.47036 1.50244-4.31027 1.50244-4.03934 1.60096-3.8423 1.78568-3.71914 1.97041-3.59599 2.25365-3.48516 2.63542-3.39895L3.46053-3.20191C3.86693-3.11571 4.19943-2.93098 4.47036-2.66005 4.72898-2.3768 4.86444-2.03198 4.86444-1.62559 4.86444-1.31771 4.80287-1.04678 4.67972-0.825108 4.54425-0.591122 4.38416-0.406397 4.1748-0.270931 3.96545-0.12315 3.71914-0.012315 3.44821 0.0492602 3.17728 0.110835 2.90635 0.147781 2.62311 0.147781 2.17976 0.147781 1.76105 0.0615752 1.3916-0.110835 1.00983-0.270931 0.677328-0.566492 0.406397-0.972889L1.10835-1.45318C1.26845-1.19456 1.47781-0.985204 1.73642-0.825108 1.98272-0.665013 2.27828-0.591122 2.62311-0.591122 2.7832-0.591122 2.95561-0.603437 3.11571-0.652698 3.2758-0.689643 3.42358-0.738903 3.55905-0.825108 3.6822-0.898999 3.78072-0.997519 3.86693-1.12067 3.94082-1.24382 3.97776-1.3916 3.97776-1.5517 3.97776-1.83494 3.86693-2.0443 3.65757-2.17976 3.44821-2.30291 3.1896-2.40143 2.88172-2.47532L2.09356-2.66005C1.99504-2.68468 1.85957-2.72163 1.69948-2.7832 1.52707-2.84478 1.36697-2.93098 1.20687-3.04182 1.04678-3.15265 0.898999-3.31275 0.788163-3.49747 0.677328-3.6822 0.615752-3.90387 0.615752-4.1748 0.615752-4.47036 0.677328-4.72898 0.800478-4.95065 0.911314-5.17232 1.07141-5.35705 1.28077-5.49251 1.47781-5.62798 1.69948-5.73881 1.95809-5.8127 2.21671-5.87428 2.47532-5.91122 2.74626-5.91122 3.15265-5.91122 3.5221-5.83733 3.86693-5.67724 4.21175-5.51714 4.48268-5.25853 4.6674-4.87676L3.94082-4.39647Z" stroke="#000000" stroke-width="0.12315" stroke-linejoin="round" stroke-miterlimit="2" transform="matrix(1 0 0 1.00017 107.014 38.9543)"/><path d="M5.82502-2.88172C5.82502-3.20191 5.77576-3.49747 5.67724-3.78072 5.5664-4.06397 5.41862-4.29795 5.2339-4.50731 5.04917-4.71666 4.81518-4.87676 4.55657-4.99991 4.28564-5.11075 3.97776-5.17232 3.64525-5.17232 3.31275-5.17232 3.00487-5.11075 2.74626-4.99991 2.47532-4.87676 2.25365-4.71666 2.06893-4.50731 1.8842-4.29795 1.73642-4.06397 1.6379-3.78072 1.52707-3.49747 1.47781-3.20191 1.47781-2.88172 1.47781-2.56153 1.52707-2.26597 1.6379-1.98272 1.73642-1.69948 1.8842-1.46549 2.06893-1.25613 2.25365-1.04678 2.47532-0.886684 2.74626-0.775848 3.00487-0.652698 3.31275-0.591122 3.64525-0.591122 3.97776-0.591122 4.28564-0.652698 4.55657-0.775848 4.81518-0.886684 5.04917-1.04678 5.2339-1.25613 5.41862-1.46549 5.5664-1.69948 5.67724-1.98272 5.77576-2.26597 5.82502-2.56153 5.82502-2.88172ZM6.7117-2.88172C6.7117-2.45069 6.63781-2.0443 6.49003-1.67485 6.32994-1.3054 6.12058-0.985204 5.84965-0.714273 5.57872-0.443342 5.25853-0.233986 4.88907-0.0862053 4.50731 0.0738903 4.10091 0.147781 3.64525 0.147781 3.20191 0.147781 2.79552 0.0738903 2.42606-0.0862053 2.0443-0.233986 1.72411-0.443342 1.45318-0.714273 1.18224-0.985204 0.972889-1.3054 0.825108-1.67485 0.665013-2.0443 0.591122-2.45069 0.591122-2.88172 0.591122-3.31275 0.665013-3.71914 0.825108-4.0886 0.972889-4.45805 1.18224-4.77824 1.45318-5.04917 1.72411-5.3201 2.0443-5.52946 2.42606-5.68955 2.79552-5.83733 3.20191-5.91122 3.64525-5.91122 4.10091-5.91122 4.50731-5.83733 4.88907-5.68955 5.25853-5.52946 5.57872-5.3201 5.84965-5.04917 6.12058-4.77824 6.32994-4.45805 6.49003-4.0886 6.63781-3.71914 6.7117-3.31275 6.7117-2.88172Z" stroke="#000000" stroke-width="0.12315" stroke-linejoin="round" stroke-miterlimit="2" transform="matrix(1 0 0 1.00017 112.26 38.9543)"/><path d="M0.781161-6.78802 1.37377-6.78802 1.37377 1.58414e-07 0.781161 1.58414e-07Z" stroke="#000000" stroke-width="0.0897887" stroke-linejoin="round" stroke-miterlimit="2" transform="matrix(1 0 0 1.00017 200.993 214.735)"/><path d="M3.03486-2.09208C2.88222-2.09208 2.70264-2.0831 2.47817-2.07412 2.2537-2.05616 2.0382-2.02024 1.83169-1.96637 1.62517-1.90352 1.4456-1.81373 1.30194-1.69701 1.14929-1.58028 1.07746-1.40968 1.07746-1.20317 1.07746-1.06849 1.1044-0.95176 1.16725-0.852992 1.22113-0.754225 1.29296-0.673415 1.39172-0.610563 1.49049-0.547711 1.59824-0.502816 1.71496-0.47588 1.83169-0.439964 1.94841-0.430986 2.06514-0.430986 2.28063-0.430986 2.46919-0.466901 2.63081-0.538732 2.78345-0.610563 2.91813-0.70933 3.02588-0.835035 3.13362-0.95176 3.21443-1.09542 3.26831-1.26602 3.3132-1.42764 3.34014-1.59824 3.34014-1.78679L3.34014-2.09208 3.03486-2.09208ZM3.34014-2.57693 3.34014-2.68468C3.34014-3.41197 2.98098-3.77112 2.26267-3.77112 1.76884-3.77112 1.34683-3.6095 0.978696-3.27729L0.619542-3.69929C1.01461-4.10334 1.60722-4.30986 2.39736-4.30986 2.60387-4.30986 2.80141-4.28292 2.98996-4.22007 3.17852-4.15721 3.34014-4.06743 3.47482-3.9507 3.6095-3.825 3.72623-3.67236 3.80704-3.4838 3.88785-3.29524 3.93274-3.07975 3.93274-2.81936L3.93274-0.942781C3.93274-0.781161 3.94172-0.610563 3.95968-0.439964 3.96866-0.260387 3.98662-0.116725 4.00457 0L3.42993 0C3.41197-0.0987675 3.40299-0.215493 3.39401-0.332218 3.38503-0.448943 3.37605-0.565669 3.37605-0.682394L3.3581-0.682394C3.1875-0.404049 2.98098-0.197535 2.74753-0.0808098 2.5051 0.0448943 2.21778 0.107746 1.87658 0.107746 1.68803 0.107746 1.50845 0.0808098 1.33785 0.0359155 1.16725-0.0179577 1.01461-0.0987675 0.879929-0.206514 0.745246-0.305281 0.628521-0.439964 0.55669-0.592605 0.47588-0.745246 0.430986-0.915844 0.430986-1.12236 0.430986-1.46356 0.520774-1.73292 0.700352-1.93046 0.87095-2.11901 1.09542-2.26267 1.36479-2.36144 1.62517-2.46021 1.9125-2.51408 2.21778-2.54102 2.51408-2.56796 2.79243-2.57693 3.04384-2.57693L3.34014-2.57693Z" stroke="#000000" stroke-width="0.0897887" stroke-linejoin="round" stroke-miterlimit="2" transform="matrix(1 0 0 1.00017 203.148 214.735)"/><path d="M2.87324-3.20546C2.78345-3.37605 2.66672-3.51972 2.51408-3.61848 2.36144-3.71725 2.18186-3.77112 1.96637-3.77112 1.8676-3.77112 1.75986-3.76214 1.66109-3.73521 1.55334-3.70827 1.45458-3.67236 1.37377-3.62746 1.29296-3.57359 1.22113-3.51074 1.17623-3.42993 1.12236-3.34912 1.09542-3.25933 1.09542-3.1426 1.09542-2.94507 1.16725-2.80141 1.30194-2.71162 1.43662-2.62183 1.64313-2.54102 1.92148-2.47817L2.52306-2.33451C2.81936-2.27165 3.06179-2.13697 3.25933-1.93944 3.44788-1.73292 3.54665-1.48151 3.54665-1.18521 3.54665-0.960739 3.50176-0.763204 3.41197-0.601584 3.3132-0.430986 3.19648-0.296303 3.04384-0.197535 2.89119-0.0897887 2.71162-0.00897887 2.51408 0.0359155 2.31655 0.0808098 2.11901 0.107746 1.9125 0.107746 1.58926 0.107746 1.28398 0.0448943 1.01461-0.0808098 0.736267-0.197535 0.493838-0.413028 0.296303-0.70933L0.808098-1.05951C0.924823-0.87095 1.07746-0.718309 1.26602-0.601584 1.4456-0.484859 1.66109-0.430986 1.9125-0.430986 2.02922-0.430986 2.15493-0.439964 2.27165-0.47588 2.38838-0.502816 2.49612-0.538732 2.59489-0.601584 2.68468-0.655457 2.75651-0.727288 2.81936-0.817077 2.87324-0.906865 2.90017-1.01461 2.90017-1.13134 2.90017-1.33785 2.81936-1.49049 2.66672-1.58926 2.51408-1.67905 2.32553-1.75088 2.10105-1.80475L1.52641-1.93944C1.45458-1.95739 1.35581-1.98433 1.23908-2.02922 1.11338-2.07412 0.996654-2.13697 0.879929-2.21778 0.763204-2.29859 0.655457-2.41531 0.574647-2.55 0.493838-2.68468 0.448943-2.8463 0.448943-3.04384 0.448943-3.25933 0.493838-3.44788 0.583626-3.6095 0.664436-3.77112 0.781161-3.90581 0.933802-4.00457 1.07746-4.10334 1.23908-4.18415 1.42764-4.23802 1.6162-4.28292 1.80475-4.30986 2.00229-4.30986 2.29859-4.30986 2.56796-4.25598 2.81936-4.13926 3.07077-4.02253 3.26831-3.83398 3.40299-3.55563L2.87324-3.20546Z" stroke="#000000" stroke-width="0.0897887" stroke-linejoin="round" stroke-miterlimit="2" transform="matrix(1 0 0 1.00017 207.808 214.735)"/><path d="M2.87324-3.20546C2.78345-3.37605 2.66672-3.51972 2.51408-3.61848 2.36144-3.71725 2.18186-3.77112 1.96637-3.77112 1.8676-3.77112 1.75986-3.76214 1.66109-3.73521 1.55334-3.70827 1.45458-3.67236 1.37377-3.62746 1.29296-3.57359 1.22113-3.51074 1.17623-3.42993 1.12236-3.34912 1.09542-3.25933 1.09542-3.1426 1.09542-2.94507 1.16725-2.80141 1.30194-2.71162 1.43662-2.62183 1.64313-2.54102 1.92148-2.47817L2.52306-2.33451C2.81936-2.27165 3.06179-2.13697 3.25933-1.93944 3.44788-1.73292 3.54665-1.48151 3.54665-1.18521 3.54665-0.960739 3.50176-0.763204 3.41197-0.601584 3.3132-0.430986 3.19648-0.296303 3.04384-0.197535 2.89119-0.0897887 2.71162-0.00897887 2.51408 0.0359155 2.31655 0.0808098 2.11901 0.107746 1.9125 0.107746 1.58926 0.107746 1.28398 0.0448943 1.01461-0.0808098 0.736267-0.197535 0.493838-0.413028 0.296303-0.70933L0.808098-1.05951C0.924823-0.87095 1.07746-0.718309 1.26602-0.601584 1.4456-0.484859 1.66109-0.430986 1.9125-0.430986 2.02922-0.430986 2.15493-0.439964 2.27165-0.47588 2.38838-0.502816 2.49612-0.538732 2.59489-0.601584 2.68468-0.655457 2.75651-0.727288 2.81936-0.817077 2.87324-0.906865 2.90017-1.01461 2.90017-1.13134 2.90017-1.33785 2.81936-1.49049 2.66672-1.58926 2.51408-1.67905 2.32553-1.75088 2.10105-1.80475L1.52641-1.93944C1.45458-1.95739 1.35581-1.98433 1.23908-2.02922 1.11338-2.07412 0.996654-2.13697 0.879929-2.21778 0.763204-2.29859 0.655457-2.41531 0.574647-2.55 0.493838-2.68468 0.448943-2.8463 0.448943-3.04384 0.448943-3.25933 0.493838-3.44788 0.583626-3.6095 0.664436-3.77112 0.781161-3.90581 0.933802-4.00457 1.07746-4.10334 1.23908-4.18415 1.42764-4.23802 1.6162-4.28292 1.80475-4.30986 2.00229-4.30986 2.29859-4.30986 2.56796-4.25598 2.81936-4.13926 3.07077-4.02253 3.26831-3.83398 3.40299-3.55563L2.87324-3.20546Z" stroke="#000000" stroke-width="0.0897887" stroke-linejoin="round" stroke-miterlimit="2" transform="matrix(1 0 0 1.00017 211.633 214.735)"/><path d="M4.247-2.10105C4.247-2.33451 4.21109-2.55 4.13926-2.75651 4.05845-2.96303 3.9507-3.13362 3.81602-3.28626 3.68133-3.43891 3.51074-3.55563 3.32218-3.64542 3.12465-3.72623 2.90017-3.77112 2.65774-3.77112 2.41531-3.77112 2.19084-3.72623 2.00229-3.64542 1.80475-3.55563 1.64313-3.43891 1.50845-3.28626 1.37377-3.13362 1.26602-2.96303 1.19419-2.75651 1.11338-2.55 1.07746-2.33451 1.07746-2.10105 1.07746-1.8676 1.11338-1.65211 1.19419-1.4456 1.26602-1.23908 1.37377-1.06849 1.50845-0.915844 1.64313-0.763204 1.80475-0.646478 2.00229-0.565669 2.19084-0.47588 2.41531-0.430986 2.65774-0.430986 2.90017-0.430986 3.12465-0.47588 3.32218-0.565669 3.51074-0.646478 3.68133-0.763204 3.81602-0.915844 3.9507-1.06849 4.05845-1.23908 4.13926-1.4456 4.21109-1.65211 4.247-1.8676 4.247-2.10105ZM4.89348-2.10105C4.89348-1.78679 4.83961-1.49049 4.73186-1.22113 4.61514-0.95176 4.4625-0.718309 4.26496-0.520774 4.06743-0.323239 3.83398-0.170598 3.56461-0.0628521 3.28626 0.0538732 2.98996 0.107746 2.65774 0.107746 2.33451 0.107746 2.0382 0.0538732 1.76884-0.0628521 1.49049-0.170598 1.25704-0.323239 1.05951-0.520774 0.861971-0.718309 0.70933-0.95176 0.601584-1.22113 0.484859-1.49049 0.430986-1.78679 0.430986-2.10105 0.430986-2.41531 0.484859-2.71162 0.601584-2.98098 0.70933-3.25035 0.861971-3.4838 1.05951-3.68133 1.25704-3.87887 1.49049-4.03151 1.76884-4.14824 2.0382-4.25598 2.33451-4.30986 2.65774-4.30986 2.98996-4.30986 3.28626-4.25598 3.56461-4.14824 3.83398-4.03151 4.06743-3.87887 4.26496-3.68133 4.4625-3.4838 4.61514-3.25035 4.73186-2.98098 4.83961-2.71162 4.89348-2.41531 4.89348-2.10105Z" stroke="#000000" stroke-width="0.0897887" stroke-linejoin="round" stroke-miterlimit="2" transform="matrix(1 0 0 1.00017 215.458 214.735)"/><path d="M257.881 97.8335C257.881 96.6138 258.871 95.6235 260.092 95.6235 261.311 95.6235 262.301 96.6138 262.301 97.8335L262.301 100.232C262.301 101.452 261.311 102.442 260.092 102.442 258.871 102.442 257.881 101.452 257.881 100.232L257.881 97.8335ZM257.881 111.926C257.881 110.707 258.871 109.716 260.092 109.716 261.311 109.716 262.301 110.707 262.301 111.926L262.301 116.724C262.301 117.943 261.311 118.933 260.092 118.933 258.871 118.933 257.881 117.943 257.881 116.724L257.881 111.926ZM257.881 128.418C257.881 127.199 258.871 126.208 260.092 126.208 261.311 126.208 262.301 127.199 262.301 128.418L262.301 133.216C262.301 134.435 261.311 135.425 260.092 135.425 258.871 135.425 257.881 134.435 257.881 133.216L257.881 128.418ZM257.881 144.91C257.881 143.689 258.871 142.699 260.092 142.699 261.311 142.699 262.301 143.689 262.301 144.91L262.301 149.708C262.301 150.927 261.311 151.917 260.092 151.917 258.871 151.917 257.881 150.927 257.881 149.708L257.881 144.91ZM257.881 161.402C257.881 160.181 258.871 159.191 260.092 159.191 261.311 159.191 262.301 160.181 262.301 161.402L262.301 163.8C262.301 165.019 261.311 166.01 260.092 166.01 258.871 166.01 257.881 165.019 257.881 163.8L257.881 161.402Z" fill="#B32727" fill-rule="evenodd" transform="matrix(1 0 0 1.00017 -67.4463 -31.353)"/><path d="M257.881 97.8335C257.881 96.6138 258.871 95.6235 260.092 95.6235 261.311 95.6235 262.301 96.6138 262.301 97.8335L262.301 100.232C262.301 101.452 261.311 102.442 260.092 102.442 258.871 102.442 257.881 101.452 257.881 100.232L257.881 97.8335ZM257.881 111.926C257.881 110.707 258.871 109.716 260.092 109.716 261.311 109.716 262.301 110.707 262.301 111.926L262.301 116.724C262.301 117.943 261.311 118.933 260.092 118.933 258.871 118.933 257.881 117.943 257.881 116.724L257.881 111.926ZM257.881 128.418C257.881 127.199 258.871 126.208 260.092 126.208 261.311 126.208 262.301 127.199 262.301 128.418L262.301 133.216C262.301 134.435 261.311 135.425 260.092 135.425 258.871 135.425 257.881 134.435 257.881 133.216L257.881 128.418ZM257.881 144.91C257.881 143.689 258.871 142.699 260.092 142.699 261.311 142.699 262.301 143.689 262.301 144.91L262.301 149.708C262.301 150.927 261.311 151.917 260.092 151.917 258.871 151.917 257.881 150.927 257.881 149.708L257.881 144.91ZM257.881 161.402C257.881 160.181 258.871 159.191 260.092 159.191 261.311 159.191 262.301 160.181 262.301 161.402L262.301 163.8C262.301 165.019 261.311 166.01 260.092 166.01 258.871 166.01 257.881 165.019 257.881 163.8L257.881 161.402Z" fill="#D14E29" fill-rule="evenodd" transform="matrix(1 0 0 1.00017 -177.136 -31.353)"/><path d="M1.63022-12.3382C1.87046-12.3896 2.14502-12.424 2.48822-12.424 3.07167-12.424 3.50067-12.2695 3.79239-11.9778 4.08412-11.6689 4.34152-11.1713 4.59892-10.4849L8.06527-1.9391C8.15108-1.7675 8.23688-1.61305 8.357-1.45861 8.47712-1.30417 8.6144-1.23553 8.80316-1.23553L9.23217-1.23553 9.23217 0 8.357 0C7.53331 0 6.96702-0.429004 6.65814-1.26985L4.5646-6.79542 1.97342 0 0.308883 0 3.82672-8.63156 3.20895-10.2789C2.98587-10.8452 2.64266-11.1026 2.17934-11.0855L1.63022-11.0855 1.63022-12.3382Z" stroke="#D14E29" stroke-width="0.171602" stroke-linejoin="round" stroke-miterlimit="2" fill="#D14E29" transform="matrix(1 0 0 1.00017 79.5974 154.48)"/><path d="M1.63022-12.3382C1.87046-12.3896 2.14502-12.424 2.48822-12.424 3.07167-12.424 3.50067-12.2695 3.79239-11.9778 4.08412-11.6689 4.34152-11.1713 4.59892-10.4849L8.06527-1.9391C8.15108-1.7675 8.23688-1.61305 8.357-1.45861 8.47712-1.30417 8.6144-1.23553 8.80316-1.23553L9.23217-1.23553 9.23217 0 8.357 0C7.53331 0 6.96702-0.429004 6.65814-1.26985L4.5646-6.79542 1.97342 0 0.308883 0 3.82672-8.63156 3.20895-10.2789C2.98587-10.8452 2.64266-11.1026 2.17934-11.0855L1.63022-11.0855 1.63022-12.3382Z" stroke="#D14E29" stroke-width="0.171602" stroke-linejoin="round" stroke-miterlimit="2" fill="#D14E29" transform="matrix(1 0 0 1.00017 186.613 154.48)"/><path d="M158.931 197.8 134.881 197.8" stroke="#D14E29" stroke-width="1.35644" stroke-linecap="round" stroke-linejoin="round" stroke-miterlimit="1.5" fill="none" fill-rule="evenodd" transform="matrix(1 0 0 1.00017 -61.9119 -39.8313)"/><path d="M158.931 197.8 134.881 197.8" stroke="#D14E29" stroke-width="1.35644" stroke-linecap="round" stroke-linejoin="round" stroke-miterlimit="1.5" fill="none" fill-rule="evenodd" transform="matrix(1 0 0 1.00017 45.1043 -39.8313)"/><path d="M6.69673 0 0.645468 0 0.645468-1.11612 4.43759-4.97548C4.58551-5.1234 4.71999-5.27132 4.8679-5.43269 5.01582-5.59406 5.13685-5.76887 5.25787-5.94368 5.3789-6.1185 5.47303-6.30676 5.54027-6.50847 5.6075-6.71018 5.64784-6.91189 5.64784-7.12704 5.64784-7.38254 5.6075-7.62459 5.51337-7.8263 5.41924-8.02801 5.28477-8.20282 5.10996-8.35074 4.93514-8.49866 4.74688-8.60624 4.51828-8.68692 4.28967-8.75416 4.06107-8.7945 3.80557-8.7945 3.32147-8.7945 2.90461-8.66003 2.56842-8.39108 2.23224-8.12214 2.00364-7.75906 1.90951-7.30186L0.887519-7.40943C1.02199-8.12214 1.34473-8.67348 1.86917-9.07689 2.38016-9.48031 2.99874-9.68202 3.73834-9.68202 4.12831-9.68202 4.49138-9.62823 4.84101-9.5341 5.17719-9.42652 5.48648-9.26516 5.75542-9.06345 6.01092-8.86174 6.22608-8.60624 6.38744-8.29695 6.53536-7.98767 6.61605-7.62459 6.61605-7.20773 6.61605-6.84465 6.56226-6.50847 6.45468-6.19918 6.33365-5.8899 6.18574-5.6075 6.01092-5.33856 5.83611-5.06961 5.6344-4.81412 5.40579-4.57207 5.17719-4.33001 4.93514-4.08796 4.69309-3.85936L1.69435-0.887519 6.69673-0.887519 6.69673 0Z" stroke="#D14E29" stroke-width="0.134473" stroke-linejoin="round" stroke-miterlimit="2" fill="#D14E29" transform="matrix(1 0 0 1.00017 71.1349 172.118)"/><path d="M0.578232-1.12957 4.33001-4.84101 0.739599-8.36419 0.739599-9.49376 7.46322-9.49376 7.46322-8.36419 2.35327-8.36419 5.94368-4.84101 2.1919-1.12957 7.63804-1.12957 7.63804 0 0.578232 0 0.578232-1.12957Z" stroke="#D14E29" stroke-width="0.134473" stroke-linejoin="round" stroke-miterlimit="2" fill="#D14E29" transform="matrix(1 0 0 1.00017 82.3502 172.118)"/><path d="M2.59532-3.36181 0.309287-6.29331 1.51954-6.29331 3.26768-3.94004 4.93514-6.29331 6.03782-6.29331 3.84591-3.36181 6.48157 0 5.27132 0 3.1601-2.75669 1.12957 0 0 0 2.59532-3.36181Z" stroke="#D14E29" stroke-width="0.134473" stroke-linejoin="round" stroke-miterlimit="2" fill="#D14E29" transform="matrix(1 0 0 1.00017 90.5639 172.118)"/><path d="M6.69673 0 0.645468 0 0.645468-1.11612 4.43759-4.97548C4.58551-5.1234 4.71999-5.27132 4.8679-5.43269 5.01582-5.59406 5.13685-5.76887 5.25787-5.94368 5.3789-6.1185 5.47303-6.30676 5.54027-6.50847 5.6075-6.71018 5.64784-6.91189 5.64784-7.12704 5.64784-7.38254 5.6075-7.62459 5.51337-7.8263 5.41924-8.02801 5.28477-8.20282 5.10996-8.35074 4.93514-8.49866 4.74688-8.60624 4.51828-8.68692 4.28967-8.75416 4.06107-8.7945 3.80557-8.7945 3.32147-8.7945 2.90461-8.66003 2.56842-8.39108 2.23224-8.12214 2.00364-7.75906 1.90951-7.30186L0.887519-7.40943C1.02199-8.12214 1.34473-8.67348 1.86917-9.07689 2.38016-9.48031 2.99874-9.68202 3.73834-9.68202 4.12831-9.68202 4.49138-9.62823 4.84101-9.5341 5.17719-9.42652 5.48648-9.26516 5.75542-9.06345 6.01092-8.86174 6.22608-8.60624 6.38744-8.29695 6.53536-7.98767 6.61605-7.62459 6.61605-7.20773 6.61605-6.84465 6.56226-6.50847 6.45468-6.19918 6.33365-5.8899 6.18574-5.6075 6.01092-5.33856 5.83611-5.06961 5.6344-4.81412 5.40579-4.57207 5.17719-4.33001 4.93514-4.08796 4.69309-3.85936L1.69435-0.887519 6.69673-0.887519 6.69673 0Z" stroke="#D14E29" stroke-width="0.134473" stroke-linejoin="round" stroke-miterlimit="2" fill="#D14E29" transform="matrix(1 0 0 1.00017 178.151 172.118)"/><path d="M0.578232-1.12957 4.33001-4.84101 0.739599-8.36419 0.739599-9.49376 7.46322-9.49376 7.46322-8.36419 2.35327-8.36419 5.94368-4.84101 2.1919-1.12957 7.63804-1.12957 7.63804 0 0.578232 0 0.578232-1.12957Z" stroke="#D14E29" stroke-width="0.134473" stroke-linejoin="round" stroke-miterlimit="2" fill="#D14E29" transform="matrix(1 0 0 1.00017 189.366 172.118)"/><path d="M2.59532-3.36181 0.309287-6.29331 1.51954-6.29331 3.26768-3.94004 4.93514-6.29331 6.03782-6.29331 3.84591-3.36181 6.48157 0 5.27132 0 3.1601-2.75669 1.12957 0 0 0 2.59532-3.36181Z" stroke="#D14E29" stroke-width="0.134473" stroke-linejoin="round" stroke-miterlimit="2" fill="#D14E29" transform="matrix(1 0 0 1.00017 197.58 172.118)"/><path d="M1.15499-4.45495C1.15499-4.3587 1.12061-4.28308 1.05186-4.22121 0.983115-4.15246 0.90749-4.12496 0.824991-4.12496 0.742492-4.12496 0.666868-4.15246 0.598119-4.22121 0.529369-4.28308 0.494995-4.3587 0.494995-4.45495 0.494995-4.5512 0.529369-4.6337 0.598119-4.69558 0.666868-4.75745 0.742492-4.78495 0.824991-4.78495 0.90749-4.78495 0.983115-4.75745 1.05186-4.69558 1.12061-4.6337 1.15499-4.5512 1.15499-4.45495ZM1.05186 0 0.598119 0 0.598119-3.21747 1.05186-3.21747 1.05186 0Z" stroke="#D14E29" stroke-width="0.137499" stroke-linejoin="round" stroke-miterlimit="2" fill="#D14E29" transform="matrix(1 0 0 1.00017 97.6131 175.8)"/><path d="M1.15499-4.45495C1.15499-4.3587 1.12061-4.28308 1.05186-4.22121 0.983115-4.15246 0.90749-4.12496 0.824991-4.12496 0.742492-4.12496 0.666868-4.15246 0.598119-4.22121 0.529369-4.28308 0.494995-4.3587 0.494995-4.45495 0.494995-4.5512 0.529369-4.6337 0.598119-4.69558 0.666868-4.75745 0.742492-4.78495 0.824991-4.78495 0.90749-4.78495 0.983115-4.75745 1.05186-4.69558 1.12061-4.6337 1.15499-4.5512 1.15499-4.45495ZM1.05186 0 0.598119 0 0.598119-3.21747 1.05186-3.21747 1.05186 0Z" stroke="#D14E29" stroke-width="0.137499" stroke-linejoin="round" stroke-miterlimit="2" fill="#D14E29" transform="matrix(1 0 0 1.00017 204.629 175.8)"/><path d="M1.01998-7.32778 7.91829-7.32778 7.91829-5.55623 1.01998-5.55623Z" fill="#D14E29" transform="matrix(1 0 0 1.00017 58.2873 164.534)"/><path d="M9.20615-7.98015C8.96095-8.3591 8.6043-8.69346 8.15848-8.96095 7.69037-9.22844 7.17768-9.36219 6.59811-9.36219 5.99626-9.38448 5.43899-9.27303 4.97088-9.07241 4.48048-8.87179 4.05695-8.58201 3.72258-8.20306 3.38822-7.82412 3.12073-7.40059 2.9424-6.8879 2.76408-6.37521 2.67491-5.81793 2.67491-5.21608 2.67491-4.61422 2.76408-4.07924 2.9424-3.56655 3.12073-3.03157 3.38822-2.60804 3.72258-2.22909 4.05695-1.85015 4.48048-1.56036 4.97088-1.35975 5.43899-1.15913 5.99626-1.04767 6.59811-1.06996 7.17768-1.06996 7.69037-1.20371 8.15848-1.4712 8.6043-1.73869 8.96095-2.07306 9.20615-2.452L10.4099-1.53807C9.89717-0.936219 9.29532-0.4904 8.64888-0.200618 8.00244 0.111455 7.31142 0.2452 6.59811 0.267491 5.75106 0.289782 4.99317 0.156036 4.30215-0.133746 3.61113-0.401237 3.03157-0.780182 2.56346-1.27058 2.07306-1.76098 1.69411-2.34055 1.44891-3.03157 1.20371-3.70029 1.06996-4.43589 1.06996-5.21608 1.06996-5.99626 1.20371-6.73186 1.44891-7.42288 1.69411-8.09161 2.07306-8.67117 2.56346-9.16157 3.03157-9.65197 3.61113-10.0309 4.30215-10.3207 4.99317-10.5882 5.75106-10.7219 6.59811-10.6996 7.31142-10.6774 8.00244-10.5213 8.64888-10.2538 9.29532-9.96404 9.89717-9.49594 10.4099-8.89408L9.20615-7.98015Z" stroke="#000000" stroke-width="0.222909" stroke-linejoin="round" stroke-miterlimit="2" transform="matrix(1 0 0 1.00017 -0.327405 209.446)"/><path d="M10.5436-5.21608C10.5436-5.79564 10.4544-6.33062 10.2761-6.84332 10.0755-7.35601 9.80801-7.77953 9.47364-8.15848 9.13928-8.53743 8.71575-8.82721 8.24764-9.05012 7.75724-9.25074 7.19997-9.36219 6.59811-9.36219 5.99626-9.36219 5.43899-9.25074 4.97088-9.05012 4.48048-8.82721 4.07924-8.53743 3.74488-8.15848 3.41051-7.77953 3.14302-7.35601 2.96469-6.84332 2.76408-6.33062 2.67491-5.79564 2.67491-5.21608 2.67491-4.63651 2.76408-4.10153 2.96469-3.58884 3.14302-3.07615 3.41051-2.65262 3.74488-2.27367 4.07924-1.89473 4.48048-1.60495 4.97088-1.40433 5.43899-1.18142 5.99626-1.06996 6.59811-1.06996 7.19997-1.06996 7.75724-1.18142 8.24764-1.40433 8.71575-1.60495 9.13928-1.89473 9.47364-2.27367 9.80801-2.65262 10.0755-3.07615 10.2761-3.58884 10.4544-4.10153 10.5436-4.63651 10.5436-5.21608ZM12.1486-5.21608C12.1486-4.43589 12.0148-3.70029 11.7473-3.03157 11.4575-2.36284 11.0786-1.78327 10.5882-1.29287 10.0978-0.802473 9.51823-0.423528 8.8495-0.156036 8.15848 0.133746 7.42288 0.267491 6.59811 0.267491 5.79564 0.267491 5.06004 0.133746 4.39131-0.156036 3.70029-0.423528 3.12073-0.802473 2.63033-1.29287 2.13993-1.78327 1.76098-2.36284 1.49349-3.03157 1.20371-3.70029 1.06996-4.43589 1.06996-5.21608 1.06996-5.99626 1.20371-6.73186 1.49349-7.40059 1.76098-8.06932 2.13993-8.64888 2.63033-9.13928 3.12073-9.62968 3.70029-10.0086 4.39131-10.2984 5.06004-10.5659 5.79564-10.6996 6.59811-10.6996 7.42288-10.6996 8.15848-10.5659 8.8495-10.2984 9.51823-10.0086 10.0978-9.62968 10.5882-9.13928 11.0786-8.64888 11.4575-8.06932 11.7473-7.40059 12.0148-6.73186 12.1486-5.99626 12.1486-5.21608Z" stroke="#000000" stroke-width="0.222909" stroke-linejoin="round" stroke-miterlimit="2" transform="matrix(1 0 0 1.00017 10.4169 209.446)"/><path d="M3.00928-10.4322C3.03157-10.1424 3.05386-9.87488 3.07615-9.60739 3.07615-9.31761 3.07615-9.05012 3.07615-8.76033L3.12073-8.76033C3.27677-9.05012 3.49968-9.29532 3.74488-9.54052 3.99008-9.78572 4.27986-9.98634 4.59193-10.1647 4.904-10.3207 5.23837-10.4544 5.59502-10.5659 5.92939-10.6551 6.28604-10.6996 6.62041-10.6996 7.95786-10.6996 8.93866-10.343 9.5851-9.65197 10.2315-8.93866 10.5436-7.93557 10.5436-6.62041L10.5436 0 9.07241 0 9.07241-5.77335C9.07241-6.93248 8.87179-7.82412 8.47055-8.44826 8.06932-9.05012 7.33371-9.36219 6.24146-9.36219 6.17459-9.36219 5.95168-9.3399 5.61731-9.27303 5.28295-9.20615 4.9263-9.05012 4.54735-8.78263 4.1684-8.51513 3.81175-8.1139 3.52197-7.57892 3.23218-7.04393 3.07615-6.30833 3.07615-5.34982L3.07615 0 1.60495 0 1.60495-8.13619C1.60495-8.42597 1.60495-8.78263 1.58266-9.20615 1.56036-9.62968 1.51578-10.0532 1.49349-10.4322L3.00928-10.4322Z" stroke="#000000" stroke-width="0.222909" stroke-linejoin="round" stroke-miterlimit="2" transform="matrix(1 0 0 1.00017 23.6354 209.446)"/><path d="M7.1331-7.95786C6.91019-8.38139 6.62041-8.73804 6.24146-8.98324 5.86251-9.22844 5.4167-9.36219 4.88171-9.36219 4.63651-9.36219 4.36902-9.3399 4.12382-9.27303 3.85633-9.20615 3.61113-9.11699 3.41051-9.00554 3.20989-8.87179 3.03157-8.71575 2.92011-8.51513 2.78637-8.31452 2.71949-8.09161 2.71949-7.80182 2.71949-7.31142 2.89782-6.95477 3.23218-6.73186 3.56655-6.50895 4.07924-6.30833 4.77026-6.1523L6.26375-5.79564C6.99935-5.6396 7.60121-5.30524 8.09161-4.81484 8.55972-4.30215 8.80492-3.678 8.80492-2.9424 8.80492-2.38513 8.69346-1.89473 8.47055-1.49349 8.22535-1.06996 7.93557-0.735601 7.55662-0.4904 7.17768-0.222909 6.73186-0.0222909 6.24146 0.0891637 5.75106 0.200618 5.26066 0.267491 4.74797 0.267491 3.94549 0.267491 3.1876 0.111455 2.51887-0.200618 1.82786-0.4904 1.226-1.02538 0.735601-1.76098L2.00618-2.63033C2.29597-2.16222 2.67491-1.78327 3.14302-1.49349 3.58884-1.20371 4.12382-1.06996 4.74797-1.06996 5.03775-1.06996 5.34982-1.09226 5.6396-1.18142 5.92939-1.24829 6.19688-1.33746 6.44208-1.49349 6.66499-1.62724 6.84332-1.80557 6.99935-2.02847 7.1331-2.25138 7.19997-2.51887 7.19997-2.80866 7.19997-3.32135 6.99935-3.70029 6.62041-3.94549 6.24146-4.1684 5.77335-4.34673 5.21608-4.48048L3.78946-4.81484C3.61113-4.85942 3.36593-4.9263 3.07615-5.03775 2.76408-5.1492 2.47429-5.30524 2.18451-5.50586 1.89473-5.70648 1.62724-5.99626 1.42662-6.33062 1.226-6.66499 1.11455-7.06622 1.11455-7.55662 1.11455-8.09161 1.226-8.55972 1.44891-8.96095 1.64953-9.36219 1.93931-9.69655 2.31826-9.94175 2.67491-10.187 3.07615-10.3876 3.54426-10.5213 4.01237-10.6328 4.48048-10.6996 4.97088-10.6996 5.70648-10.6996 6.37521-10.5659 6.99935-10.2761 7.6235-9.98634 8.1139-9.51823 8.44826-8.82721L7.1331-7.95786Z" stroke="#000000" stroke-width="0.222909" stroke-linejoin="round" stroke-miterlimit="2" transform="matrix(1 0 0 1.00017 36.0291 209.446)"/><path d="M3.74488-14.4445C3.74488-14.1324 3.63342-13.8872 3.41051-13.6866 3.1876-13.4637 2.9424-13.3746 2.67491-13.3746 2.40742-13.3746 2.16222-13.4637 1.93931-13.6866 1.7164-13.8872 1.60495-14.1324 1.60495-14.4445 1.60495-14.7566 1.7164-15.0241 1.93931-15.2247 2.16222-15.4253 2.40742-15.5145 2.67491-15.5145 2.9424-15.5145 3.1876-15.4253 3.41051-15.2247 3.63342-15.0241 3.74488-14.7566 3.74488-14.4445ZM3.41051 0 1.93931 0 1.93931-10.4322 3.41051-10.4322 3.41051 0Z" stroke="#000000" stroke-width="0.222909" stroke-linejoin="round" stroke-miterlimit="2" transform="matrix(1 0 0 1.00017 45.5253 209.446)"/><path d="M7.1331-7.95786C6.91019-8.38139 6.62041-8.73804 6.24146-8.98324 5.86251-9.22844 5.4167-9.36219 4.88171-9.36219 4.63651-9.36219 4.36902-9.3399 4.12382-9.27303 3.85633-9.20615 3.61113-9.11699 3.41051-9.00554 3.20989-8.87179 3.03157-8.71575 2.92011-8.51513 2.78637-8.31452 2.71949-8.09161 2.71949-7.80182 2.71949-7.31142 2.89782-6.95477 3.23218-6.73186 3.56655-6.50895 4.07924-6.30833 4.77026-6.1523L6.26375-5.79564C6.99935-5.6396 7.60121-5.30524 8.09161-4.81484 8.55972-4.30215 8.80492-3.678 8.80492-2.9424 8.80492-2.38513 8.69346-1.89473 8.47055-1.49349 8.22535-1.06996 7.93557-0.735601 7.55662-0.4904 7.17768-0.222909 6.73186-0.0222909 6.24146 0.0891637 5.75106 0.200618 5.26066 0.267491 4.74797 0.267491 3.94549 0.267491 3.1876 0.111455 2.51887-0.200618 1.82786-0.4904 1.226-1.02538 0.735601-1.76098L2.00618-2.63033C2.29597-2.16222 2.67491-1.78327 3.14302-1.49349 3.58884-1.20371 4.12382-1.06996 4.74797-1.06996 5.03775-1.06996 5.34982-1.09226 5.6396-1.18142 5.92939-1.24829 6.19688-1.33746 6.44208-1.49349 6.66499-1.62724 6.84332-1.80557 6.99935-2.02847 7.1331-2.25138 7.19997-2.51887 7.19997-2.80866 7.19997-3.32135 6.99935-3.70029 6.62041-3.94549 6.24146-4.1684 5.77335-4.34673 5.21608-4.48048L3.78946-4.81484C3.61113-4.85942 3.36593-4.9263 3.07615-5.03775 2.76408-5.1492 2.47429-5.30524 2.18451-5.50586 1.89473-5.70648 1.62724-5.99626 1.42662-6.33062 1.226-6.66499 1.11455-7.06622 1.11455-7.55662 1.11455-8.09161 1.226-8.55972 1.44891-8.96095 1.64953-9.36219 1.93931-9.69655 2.31826-9.94175 2.67491-10.187 3.07615-10.3876 3.54426-10.5213 4.01237-10.6328 4.48048-10.6996 4.97088-10.6996 5.70648-10.6996 6.37521-10.5659 6.99935-10.2761 7.6235-9.98634 8.1139-9.51823 8.44826-8.82721L7.1331-7.95786Z" stroke="#000000" stroke-width="0.222909" stroke-linejoin="round" stroke-miterlimit="2" transform="matrix(1 0 0 1.00017 50.8754 209.446)"/><path d="M6.99935-9.0947 3.99008-9.0947 3.99008-2.9424C3.99008-2.56346 4.03466-2.22909 4.10153-2.00618 4.1684-1.76098 4.27986-1.56036 4.4136-1.42662 4.54735-1.29287 4.70339-1.20371 4.904-1.15913 5.08233-1.09226 5.28295-1.06996 5.50586-1.06996 5.75106-1.06996 6.01855-1.11455 6.28604-1.18142 6.55353-1.24829 6.79873-1.35975 7.02164-1.4712L7.08851-0.111455C6.53124 0.133746 5.8848 0.267491 5.10462 0.267491 4.81484 0.267491 4.52506 0.222909 4.23528 0.156036 3.9232 0.0891637 3.63342-0.0668728 3.38822-0.267491 3.14302-0.468109 2.92011-0.757892 2.76408-1.11455 2.60804-1.4712 2.51887-1.93931 2.51887-2.51887L2.51887-9.0947 0.312073-9.0947 0.312073-10.4322 2.51887-10.4322 2.51887-13.3746 3.99008-13.3746 3.99008-10.4322 6.99935-10.4322 6.99935-9.0947Z" stroke="#000000" stroke-width="0.222909" stroke-linejoin="round" stroke-miterlimit="2" transform="matrix(1 0 0 1.00017 60.3703 209.446)"/><path d="M9.71884-6.01855C9.71884-7.02164 9.42906-7.82412 8.82721-8.44826 8.22535-9.05012 7.40059-9.36219 6.33062-9.36219 5.86251-9.36219 5.3944-9.27303 4.94859-9.0947 4.50277-8.89408 4.12382-8.64888 3.78946-8.33681 3.45509-8.02473 3.16531-7.66808 2.98698-7.26684 2.78637-6.86561 2.67491-6.44208 2.67491-6.01855L9.71884-6.01855ZM2.63033-4.81484C2.67491-4.30215 2.80866-3.81175 3.00928-3.34364 3.20989-2.87553 3.49968-2.49658 3.83404-2.16222 4.1684-1.82786 4.56964-1.56036 5.01546-1.35975 5.46128-1.15913 5.95168-1.06996 6.46437-1.06996 7.24455-1.06996 7.93557-1.24829 8.51513-1.62724 9.07241-1.98389 9.51823-2.40742 9.80801-2.87553L10.9448-1.93931C10.3207-1.15913 9.62968-0.579564 8.89408-0.2452 8.13619 0.0891637 7.33371 0.267491 6.46437 0.267491 5.68419 0.267491 4.97088 0.133746 4.32444-0.156036 3.65571-0.423528 3.07615-0.802473 2.60804-1.29287 2.13993-1.78327 1.76098-2.36284 1.49349-3.03157 1.20371-3.70029 1.06996-4.43589 1.06996-5.21608 1.06996-5.99626 1.20371-6.73186 1.4712-7.40059 1.73869-8.06932 2.11764-8.64888 2.58575-9.13928 3.05386-9.62968 3.61113-10.0086 4.25757-10.2984 4.904-10.5659 5.59502-10.6996 6.33062-10.6996 7.11081-10.6996 7.82412-10.5659 8.44826-10.2761 9.07241-9.98634 9.60739-9.62968 10.0309-9.16157 10.4322-8.69346 10.7665-8.13619 10.9894-7.51204 11.2123-6.86561 11.3238-6.19688 11.3238-5.48357L11.3238-4.81484 2.63033-4.81484Z" stroke="#000000" stroke-width="0.222909" stroke-linejoin="round" stroke-miterlimit="2" transform="matrix(1 0 0 1.00017 67.7714 209.446)"/><path d="M3.00928-10.4322C3.03157-10.1424 3.05386-9.87488 3.07615-9.60739 3.07615-9.31761 3.07615-9.05012 3.07615-8.76033L3.12073-8.76033C3.27677-9.05012 3.49968-9.29532 3.74488-9.54052 3.99008-9.78572 4.27986-9.98634 4.59193-10.1647 4.904-10.3207 5.23837-10.4544 5.59502-10.5659 5.92939-10.6551 6.28604-10.6996 6.62041-10.6996 7.95786-10.6996 8.93866-10.343 9.5851-9.65197 10.2315-8.93866 10.5436-7.93557 10.5436-6.62041L10.5436 0 9.07241 0 9.07241-5.77335C9.07241-6.93248 8.87179-7.82412 8.47055-8.44826 8.06932-9.05012 7.33371-9.36219 6.24146-9.36219 6.17459-9.36219 5.95168-9.3399 5.61731-9.27303 5.28295-9.20615 4.9263-9.05012 4.54735-8.78263 4.1684-8.51513 3.81175-8.1139 3.52197-7.57892 3.23218-7.04393 3.07615-6.30833 3.07615-5.34982L3.07615 0 1.60495 0 1.60495-8.13619C1.60495-8.42597 1.60495-8.78263 1.58266-9.20615 1.56036-9.62968 1.51578-10.0532 1.49349-10.4322L3.00928-10.4322Z" stroke="#000000" stroke-width="0.222909" stroke-linejoin="round" stroke-miterlimit="2" transform="matrix(1 0 0 1.00017 80.1654 209.446)"/><path d="M9.20615-7.98015C8.96095-8.3591 8.6043-8.69346 8.15848-8.96095 7.69037-9.22844 7.17768-9.36219 6.59811-9.36219 5.99626-9.38448 5.43899-9.27303 4.97088-9.07241 4.48048-8.87179 4.05695-8.58201 3.72258-8.20306 3.38822-7.82412 3.12073-7.40059 2.9424-6.8879 2.76408-6.37521 2.67491-5.81793 2.67491-5.21608 2.67491-4.61422 2.76408-4.07924 2.9424-3.56655 3.12073-3.03157 3.38822-2.60804 3.72258-2.22909 4.05695-1.85015 4.48048-1.56036 4.97088-1.35975 5.43899-1.15913 5.99626-1.04767 6.59811-1.06996 7.17768-1.06996 7.69037-1.20371 8.15848-1.4712 8.6043-1.73869 8.96095-2.07306 9.20615-2.452L10.4099-1.53807C9.89717-0.936219 9.29532-0.4904 8.64888-0.200618 8.00244 0.111455 7.31142 0.2452 6.59811 0.267491 5.75106 0.289782 4.99317 0.156036 4.30215-0.133746 3.61113-0.401237 3.03157-0.780182 2.56346-1.27058 2.07306-1.76098 1.69411-2.34055 1.44891-3.03157 1.20371-3.70029 1.06996-4.43589 1.06996-5.21608 1.06996-5.99626 1.20371-6.73186 1.44891-7.42288 1.69411-8.09161 2.07306-8.67117 2.56346-9.16157 3.03157-9.65197 3.61113-10.0309 4.30215-10.3207 4.99317-10.5882 5.75106-10.7219 6.59811-10.6996 7.31142-10.6774 8.00244-10.5213 8.64888-10.2538 9.29532-9.96404 9.89717-9.49594 10.4099-8.89408L9.20615-7.98015Z" stroke="#000000" stroke-width="0.222909" stroke-linejoin="round" stroke-miterlimit="2" transform="matrix(1 0 0 1.00017 92.5583 209.446)"/><path d="M5.48357-1.80557 8.67117-10.4322 10.4544-10.4322 5.23837 2.71949C4.9263 3.52197 4.52506 4.1684 4.05695 4.63651 3.56655 5.10462 2.87553 5.34982 1.9616 5.34982 1.73869 5.34982 1.51578 5.34982 1.29287 5.32753 1.04767 5.30524 0.824764 5.26066 0.601855 5.19379L0.757892 3.76717C1.06996 3.9232 1.44891 4.01237 1.87244 4.01237 2.38513 4.01237 2.80866 3.85633 3.09844 3.52197 3.38822 3.1876 3.65571 2.74178 3.87862 2.13993L4.63651 0.133746 0.356655-10.4322 2.2068-10.4322 5.48357-1.80557Z" stroke="#000000" stroke-width="0.222909" stroke-linejoin="round" stroke-miterlimit="2" transform="matrix(1 0 0 1.00017 103.303 209.446)"/><path d="M6.46437-9.0947 3.99008-9.0947 3.99008 0 2.51887 0 2.51887-9.0947 0.312073-9.0947 0.312073-10.4322 2.51887-10.4322 2.51887-13.2854C2.51887-14.6674 2.83095-15.6482 3.47738-16.2501 4.12382-16.8297 4.97088-17.1194 6.01855-17.1194 6.21917-17.1194 6.44208-17.0971 6.66499-17.0749 6.86561-17.0526 7.08851-17.008 7.28913-16.9634L7.02164-15.6259C6.84332-15.6705 6.66499-15.7151 6.46437-15.7374 6.26375-15.7597 6.08542-15.782 5.8848-15.782 5.48357-15.782 5.1492-15.7151 4.904-15.5814 4.6588-15.4476 4.45819-15.2693 4.32444-15.0241 4.19069-14.7789 4.10153-14.4891 4.05695-14.1547 4.01237-13.8204 3.99008-13.486 3.99008-13.1071L3.99008-10.4322 6.46437-10.4322 6.46437-9.0947Z" stroke="#000000" stroke-width="0.222909" stroke-linejoin="round" stroke-miterlimit="2" transform="matrix(1 0 0 1.00017 120.244 209.446)"/><path d="M10.5436-5.21608C10.5436-5.79564 10.4544-6.33062 10.2761-6.84332 10.0755-7.35601 9.80801-7.77953 9.47364-8.15848 9.13928-8.53743 8.71575-8.82721 8.24764-9.05012 7.75724-9.25074 7.19997-9.36219 6.59811-9.36219 5.99626-9.36219 5.43899-9.25074 4.97088-9.05012 4.48048-8.82721 4.07924-8.53743 3.74488-8.15848 3.41051-7.77953 3.14302-7.35601 2.96469-6.84332 2.76408-6.33062 2.67491-5.79564 2.67491-5.21608 2.67491-4.63651 2.76408-4.10153 2.96469-3.58884 3.14302-3.07615 3.41051-2.65262 3.74488-2.27367 4.07924-1.89473 4.48048-1.60495 4.97088-1.40433 5.43899-1.18142 5.99626-1.06996 6.59811-1.06996 7.19997-1.06996 7.75724-1.18142 8.24764-1.40433 8.71575-1.60495 9.13928-1.89473 9.47364-2.27367 9.80801-2.65262 10.0755-3.07615 10.2761-3.58884 10.4544-4.10153 10.5436-4.63651 10.5436-5.21608ZM12.1486-5.21608C12.1486-4.43589 12.0148-3.70029 11.7473-3.03157 11.4575-2.36284 11.0786-1.78327 10.5882-1.29287 10.0978-0.802473 9.51823-0.423528 8.8495-0.156036 8.15848 0.133746 7.42288 0.267491 6.59811 0.267491 5.79564 0.267491 5.06004 0.133746 4.39131-0.156036 3.70029-0.423528 3.12073-0.802473 2.63033-1.29287 2.13993-1.78327 1.76098-2.36284 1.49349-3.03157 1.20371-3.70029 1.06996-4.43589 1.06996-5.21608 1.06996-5.99626 1.20371-6.73186 1.49349-7.40059 1.76098-8.06932 2.13993-8.64888 2.63033-9.13928 3.12073-9.62968 3.70029-10.0086 4.39131-10.2984 5.06004-10.5659 5.79564-10.6996 6.59811-10.6996 7.42288-10.6996 8.15848-10.5659 8.8495-10.2984 9.51823-10.0086 10.0978-9.62968 10.5882-9.13928 11.0786-8.64888 11.4575-8.06932 11.7473-7.40059 12.0148-6.73186 12.1486-5.99626 12.1486-5.21608Z" stroke="#000000" stroke-width="0.222909" stroke-linejoin="round" stroke-miterlimit="2" transform="matrix(1 0 0 1.00017 126.842 209.446)"/><path d="M1.76098-7.17768C1.76098-7.64579 1.76098-8.1139 1.73869-8.58201 1.7164-9.05012 1.69411-9.67426 1.67182-10.4322L3.12073-10.4322 3.12073-8.49284 3.16531-8.49284C3.27677-8.78263 3.41051-9.05012 3.61113-9.31761 3.81175-9.56281 4.03466-9.80801 4.32444-10.0086 4.59193-10.2092 4.904-10.3876 5.28295-10.5213 5.6396-10.6328 6.04084-10.6996 6.50895-10.6996 6.93248-10.6996 7.28913-10.6551 7.60121-10.5659L7.31142-9.11699C7.11081-9.18386 6.84332-9.22844 6.46437-9.22844 5.9071-9.22844 5.4167-9.11699 5.01546-8.91637 4.61422-8.69346 4.27986-8.42597 4.01237-8.09161 3.74488-7.73495 3.54426-7.3783 3.4328-6.99935 3.29906-6.62041 3.23218-6.24146 3.23218-5.8848L3.23218 0 1.76098 0 1.76098-7.17768Z" stroke="#000000" stroke-width="0.222909" stroke-linejoin="round" stroke-miterlimit="2" transform="matrix(1 0 0 1.00017 140.06 209.446)"/><path d="M9.20615-7.98015C8.96095-8.3591 8.6043-8.69346 8.15848-8.96095 7.69037-9.22844 7.17768-9.36219 6.59811-9.36219 5.99626-9.38448 5.43899-9.27303 4.97088-9.07241 4.48048-8.87179 4.05695-8.58201 3.72258-8.20306 3.38822-7.82412 3.12073-7.40059 2.9424-6.8879 2.76408-6.37521 2.67491-5.81793 2.67491-5.21608 2.67491-4.61422 2.76408-4.07924 2.9424-3.56655 3.12073-3.03157 3.38822-2.60804 3.72258-2.22909 4.05695-1.85015 4.48048-1.56036 4.97088-1.35975 5.43899-1.15913 5.99626-1.04767 6.59811-1.06996 7.17768-1.06996 7.69037-1.20371 8.15848-1.4712 8.6043-1.73869 8.96095-2.07306 9.20615-2.452L10.4099-1.53807C9.89717-0.936219 9.29532-0.4904 8.64888-0.200618 8.00244 0.111455 7.31142 0.2452 6.59811 0.267491 5.75106 0.289782 4.99317 0.156036 4.30215-0.133746 3.61113-0.401237 3.03157-0.780182 2.56346-1.27058 2.07306-1.76098 1.69411-2.34055 1.44891-3.03157 1.20371-3.70029 1.06996-4.43589 1.06996-5.21608 1.06996-5.99626 1.20371-6.73186 1.44891-7.42288 1.69411-8.09161 2.07306-8.67117 2.56346-9.16157 3.03157-9.65197 3.61113-10.0309 4.30215-10.3207 4.99317-10.5882 5.75106-10.7219 6.59811-10.6996 7.31142-10.6774 8.00244-10.5213 8.64888-10.2538 9.29532-9.96404 9.89717-9.49594 10.4099-8.89408L9.20615-7.98015Z" stroke="#000000" stroke-width="0.222909" stroke-linejoin="round" stroke-miterlimit="2" transform="matrix(1 0 0 1.00017 147.06 209.446)"/><path d="M9.71884-6.01855C9.71884-7.02164 9.42906-7.82412 8.82721-8.44826 8.22535-9.05012 7.40059-9.36219 6.33062-9.36219 5.86251-9.36219 5.3944-9.27303 4.94859-9.0947 4.50277-8.89408 4.12382-8.64888 3.78946-8.33681 3.45509-8.02473 3.16531-7.66808 2.98698-7.26684 2.78637-6.86561 2.67491-6.44208 2.67491-6.01855L9.71884-6.01855ZM2.63033-4.81484C2.67491-4.30215 2.80866-3.81175 3.00928-3.34364 3.20989-2.87553 3.49968-2.49658 3.83404-2.16222 4.1684-1.82786 4.56964-1.56036 5.01546-1.35975 5.46128-1.15913 5.95168-1.06996 6.46437-1.06996 7.24455-1.06996 7.93557-1.24829 8.51513-1.62724 9.07241-1.98389 9.51823-2.40742 9.80801-2.87553L10.9448-1.93931C10.3207-1.15913 9.62968-0.579564 8.89408-0.2452 8.13619 0.0891637 7.33371 0.267491 6.46437 0.267491 5.68419 0.267491 4.97088 0.133746 4.32444-0.156036 3.65571-0.423528 3.07615-0.802473 2.60804-1.29287 2.13993-1.78327 1.76098-2.36284 1.49349-3.03157 1.20371-3.70029 1.06996-4.43589 1.06996-5.21608 1.06996-5.99626 1.20371-6.73186 1.4712-7.40059 1.73869-8.06932 2.11764-8.64888 2.58575-9.13928 3.05386-9.62968 3.61113-10.0086 4.25757-10.2984 4.904-10.5659 5.59502-10.6996 6.33062-10.6996 7.11081-10.6996 7.82412-10.5659 8.44826-10.2761 9.07241-9.98634 9.60739-9.62968 10.0309-9.16157 10.4322-8.69346 10.7665-8.13619 10.9894-7.51204 11.2123-6.86561 11.3238-6.19688 11.3238-5.48357L11.3238-4.81484 2.63033-4.81484Z" stroke="#000000" stroke-width="0.222909" stroke-linejoin="round" stroke-miterlimit="2" transform="matrix(1 0 0 1.00017 157.804 209.446)"/><path d="M7.1331-7.95786C6.91019-8.38139 6.62041-8.73804 6.24146-8.98324 5.86251-9.22844 5.4167-9.36219 4.88171-9.36219 4.63651-9.36219 4.36902-9.3399 4.12382-9.27303 3.85633-9.20615 3.61113-9.11699 3.41051-9.00554 3.20989-8.87179 3.03157-8.71575 2.92011-8.51513 2.78637-8.31452 2.71949-8.09161 2.71949-7.80182 2.71949-7.31142 2.89782-6.95477 3.23218-6.73186 3.56655-6.50895 4.07924-6.30833 4.77026-6.1523L6.26375-5.79564C6.99935-5.6396 7.60121-5.30524 8.09161-4.81484 8.55972-4.30215 8.80492-3.678 8.80492-2.9424 8.80492-2.38513 8.69346-1.89473 8.47055-1.49349 8.22535-1.06996 7.93557-0.735601 7.55662-0.4904 7.17768-0.222909 6.73186-0.0222909 6.24146 0.0891637 5.75106 0.200618 5.26066 0.267491 4.74797 0.267491 3.94549 0.267491 3.1876 0.111455 2.51887-0.200618 1.82786-0.4904 1.226-1.02538 0.735601-1.76098L2.00618-2.63033C2.29597-2.16222 2.67491-1.78327 3.14302-1.49349 3.58884-1.20371 4.12382-1.06996 4.74797-1.06996 5.03775-1.06996 5.34982-1.09226 5.6396-1.18142 5.92939-1.24829 6.19688-1.33746 6.44208-1.49349 6.66499-1.62724 6.84332-1.80557 6.99935-2.02847 7.1331-2.25138 7.19997-2.51887 7.19997-2.80866 7.19997-3.32135 6.99935-3.70029 6.62041-3.94549 6.24146-4.1684 5.77335-4.34673 5.21608-4.48048L3.78946-4.81484C3.61113-4.85942 3.36593-4.9263 3.07615-5.03775 2.76408-5.1492 2.47429-5.30524 2.18451-5.50586 1.89473-5.70648 1.62724-5.99626 1.42662-6.33062 1.226-6.66499 1.11455-7.06622 1.11455-7.55662 1.11455-8.09161 1.226-8.55972 1.44891-8.96095 1.64953-9.36219 1.93931-9.69655 2.31826-9.94175 2.67491-10.187 3.07615-10.3876 3.54426-10.5213 4.01237-10.6328 4.48048-10.6996 4.97088-10.6996 5.70648-10.6996 6.37521-10.5659 6.99935-10.2761 7.6235-9.98634 8.1139-9.51823 8.44826-8.82721L7.1331-7.95786Z" stroke="#000000" stroke-width="0.222909" stroke-linejoin="round" stroke-miterlimit="2" transform="matrix(1 0 0 1.00017 170.198 209.446)"/><path d="M6.99935-9.0947 3.99008-9.0947 3.99008-2.9424C3.99008-2.56346 4.03466-2.22909 4.10153-2.00618 4.1684-1.76098 4.27986-1.56036 4.4136-1.42662 4.54735-1.29287 4.70339-1.20371 4.904-1.15913 5.08233-1.09226 5.28295-1.06996 5.50586-1.06996 5.75106-1.06996 6.01855-1.11455 6.28604-1.18142 6.55353-1.24829 6.79873-1.35975 7.02164-1.4712L7.08851-0.111455C6.53124 0.133746 5.8848 0.267491 5.10462 0.267491 4.81484 0.267491 4.52506 0.222909 4.23528 0.156036 3.9232 0.0891637 3.63342-0.0668728 3.38822-0.267491 3.14302-0.468109 2.92011-0.757892 2.76408-1.11455 2.60804-1.4712 2.51887-1.93931 2.51887-2.51887L2.51887-9.0947 0.312073-9.0947 0.312073-10.4322 2.51887-10.4322 2.51887-13.3746 3.99008-13.3746 3.99008-10.4322 6.99935-10.4322 6.99935-9.0947Z" stroke="#000000" stroke-width="0.222909" stroke-linejoin="round" stroke-miterlimit="2" transform="matrix(1 0 0 1.00017 223.072 209.446)"/><path d="M10.5436-5.21608C10.5436-5.79564 10.4544-6.33062 10.2761-6.84332 10.0755-7.35601 9.80801-7.77953 9.47364-8.15848 9.13928-8.53743 8.71575-8.82721 8.24764-9.05012 7.75724-9.25074 7.19997-9.36219 6.59811-9.36219 5.99626-9.36219 5.43899-9.25074 4.97088-9.05012 4.48048-8.82721 4.07924-8.53743 3.74488-8.15848 3.41051-7.77953 3.14302-7.35601 2.96469-6.84332 2.76408-6.33062 2.67491-5.79564 2.67491-5.21608 2.67491-4.63651 2.76408-4.10153 2.96469-3.58884 3.14302-3.07615 3.41051-2.65262 3.74488-2.27367 4.07924-1.89473 4.48048-1.60495 4.97088-1.40433 5.43899-1.18142 5.99626-1.06996 6.59811-1.06996 7.19997-1.06996 7.75724-1.18142 8.24764-1.40433 8.71575-1.60495 9.13928-1.89473 9.47364-2.27367 9.80801-2.65262 10.0755-3.07615 10.2761-3.58884 10.4544-4.10153 10.5436-4.63651 10.5436-5.21608ZM12.1486-5.21608C12.1486-4.43589 12.0148-3.70029 11.7473-3.03157 11.4575-2.36284 11.0786-1.78327 10.5882-1.29287 10.0978-0.802473 9.51823-0.423528 8.8495-0.156036 8.15848 0.133746 7.42288 0.267491 6.59811 0.267491 5.79564 0.267491 5.06004 0.133746 4.39131-0.156036 3.70029-0.423528 3.12073-0.802473 2.63033-1.29287 2.13993-1.78327 1.76098-2.36284 1.49349-3.03157 1.20371-3.70029 1.06996-4.43589 1.06996-5.21608 1.06996-5.99626 1.20371-6.73186 1.49349-7.40059 1.76098-8.06932 2.13993-8.64888 2.63033-9.13928 3.12073-9.62968 3.70029-10.0086 4.39131-10.2984 5.06004-10.5659 5.79564-10.6996 6.59811-10.6996 7.42288-10.6996 8.15848-10.5659 8.8495-10.2984 9.51823-10.0086 10.0978-9.62968 10.5882-9.13928 11.0786-8.64888 11.4575-8.06932 11.7473-7.40059 12.0148-6.73186 12.1486-5.99626 12.1486-5.21608Z" stroke="#000000" stroke-width="0.222909" stroke-linejoin="round" stroke-miterlimit="2" transform="matrix(1 0 0 1.00017 230.472 209.446)"/><path d="M8.76033-9.36219 2.65262-1.33746 8.98324-1.33746 8.98324 0 0.512691 0 0.512691-1.06996 6.62041-9.0947 0.824764-9.0947 0.824764-10.4322 8.76033-10.4322 8.76033-9.36219Z" stroke="#000000" stroke-width="0.222909" stroke-linejoin="round" stroke-miterlimit="2" transform="matrix(1 0 0 1.00017 249.888 209.446)"/><path d="M9.71884-6.01855C9.71884-7.02164 9.42906-7.82412 8.82721-8.44826 8.22535-9.05012 7.40059-9.36219 6.33062-9.36219 5.86251-9.36219 5.3944-9.27303 4.94859-9.0947 4.50277-8.89408 4.12382-8.64888 3.78946-8.33681 3.45509-8.02473 3.16531-7.66808 2.98698-7.26684 2.78637-6.86561 2.67491-6.44208 2.67491-6.01855L9.71884-6.01855ZM2.63033-4.81484C2.67491-4.30215 2.80866-3.81175 3.00928-3.34364 3.20989-2.87553 3.49968-2.49658 3.83404-2.16222 4.1684-1.82786 4.56964-1.56036 5.01546-1.35975 5.46128-1.15913 5.95168-1.06996 6.46437-1.06996 7.24455-1.06996 7.93557-1.24829 8.51513-1.62724 9.07241-1.98389 9.51823-2.40742 9.80801-2.87553L10.9448-1.93931C10.3207-1.15913 9.62968-0.579564 8.89408-0.2452 8.13619 0.0891637 7.33371 0.267491 6.46437 0.267491 5.68419 0.267491 4.97088 0.133746 4.32444-0.156036 3.65571-0.423528 3.07615-0.802473 2.60804-1.29287 2.13993-1.78327 1.76098-2.36284 1.49349-3.03157 1.20371-3.70029 1.06996-4.43589 1.06996-5.21608 1.06996-5.99626 1.20371-6.73186 1.4712-7.40059 1.73869-8.06932 2.11764-8.64888 2.58575-9.13928 3.05386-9.62968 3.61113-10.0086 4.25757-10.2984 4.904-10.5659 5.59502-10.6996 6.33062-10.6996 7.11081-10.6996 7.82412-10.5659 8.44826-10.2761 9.07241-9.98634 9.60739-9.62968 10.0309-9.16157 10.4322-8.69346 10.7665-8.13619 10.9894-7.51204 11.2123-6.86561 11.3238-6.19688 11.3238-5.48357L11.3238-4.81484 2.63033-4.81484Z" stroke="#000000" stroke-width="0.222909" stroke-linejoin="round" stroke-miterlimit="2" transform="matrix(1 0 0 1.00017 259.384 209.446)"/><path d="M1.76098-7.17768C1.76098-7.64579 1.76098-8.1139 1.73869-8.58201 1.7164-9.05012 1.69411-9.67426 1.67182-10.4322L3.12073-10.4322 3.12073-8.49284 3.16531-8.49284C3.27677-8.78263 3.41051-9.05012 3.61113-9.31761 3.81175-9.56281 4.03466-9.80801 4.32444-10.0086 4.59193-10.2092 4.904-10.3876 5.28295-10.5213 5.6396-10.6328 6.04084-10.6996 6.50895-10.6996 6.93248-10.6996 7.28913-10.6551 7.60121-10.5659L7.31142-9.11699C7.11081-9.18386 6.84332-9.22844 6.46437-9.22844 5.9071-9.22844 5.4167-9.11699 5.01546-8.91637 4.61422-8.69346 4.27986-8.42597 4.01237-8.09161 3.74488-7.73495 3.54426-7.3783 3.4328-6.99935 3.29906-6.62041 3.23218-6.24146 3.23218-5.8848L3.23218 0 1.76098 0 1.76098-7.17768Z" stroke="#000000" stroke-width="0.222909" stroke-linejoin="round" stroke-miterlimit="2" transform="matrix(1 0 0 1.00017 271.777 209.446)"/><path d="M10.5436-5.21608C10.5436-5.79564 10.4544-6.33062 10.2761-6.84332 10.0755-7.35601 9.80801-7.77953 9.47364-8.15848 9.13928-8.53743 8.71575-8.82721 8.24764-9.05012 7.75724-9.25074 7.19997-9.36219 6.59811-9.36219 5.99626-9.36219 5.43899-9.25074 4.97088-9.05012 4.48048-8.82721 4.07924-8.53743 3.74488-8.15848 3.41051-7.77953 3.14302-7.35601 2.96469-6.84332 2.76408-6.33062 2.67491-5.79564 2.67491-5.21608 2.67491-4.63651 2.76408-4.10153 2.96469-3.58884 3.14302-3.07615 3.41051-2.65262 3.74488-2.27367 4.07924-1.89473 4.48048-1.60495 4.97088-1.40433 5.43899-1.18142 5.99626-1.06996 6.59811-1.06996 7.19997-1.06996 7.75724-1.18142 8.24764-1.40433 8.71575-1.60495 9.13928-1.89473 9.47364-2.27367 9.80801-2.65262 10.0755-3.07615 10.2761-3.58884 10.4544-4.10153 10.5436-4.63651 10.5436-5.21608ZM12.1486-5.21608C12.1486-4.43589 12.0148-3.70029 11.7473-3.03157 11.4575-2.36284 11.0786-1.78327 10.5882-1.29287 10.0978-0.802473 9.51823-0.423528 8.8495-0.156036 8.15848 0.133746 7.42288 0.267491 6.59811 0.267491 5.79564 0.267491 5.06004 0.133746 4.39131-0.156036 3.70029-0.423528 3.12073-0.802473 2.63033-1.29287 2.13993-1.78327 1.76098-2.36284 1.49349-3.03157 1.20371-3.70029 1.06996-4.43589 1.06996-5.21608 1.06996-5.99626 1.20371-6.73186 1.49349-7.40059 1.76098-8.06932 2.13993-8.64888 2.63033-9.13928 3.12073-9.62968 3.70029-10.0086 4.39131-10.2984 5.06004-10.5659 5.79564-10.6996 6.59811-10.6996 7.42288-10.6996 8.15848-10.5659 8.8495-10.2984 9.51823-10.0086 10.0978-9.62968 10.5882-9.13928 11.0786-8.64888 11.4575-8.06932 11.7473-7.40059 12.0148-6.73186 12.1486-5.99626 12.1486-5.21608Z" stroke="#000000" stroke-width="0.222909" stroke-linejoin="round" stroke-miterlimit="2" transform="matrix(1 0 0 1.00017 278.778 209.446)"/><path d="M235.238 219.134C221.452 196.628 219.358 175.86 217.08 150.216" stroke="#000000" stroke-width="2.39488" stroke-linecap="round" stroke-linejoin="round" stroke-miterlimit="1.5" fill="none" fill-rule="evenodd" transform="matrix(1 0 0 1.00017 -67.4463 -31.353)"/><path d="M217.08 150.216 212.486 156.004" stroke="#000000" stroke-width="2.39488" stroke-linecap="round" stroke-linejoin="round" stroke-miterlimit="1.5" fill="none" fill-rule="evenodd" transform="matrix(1 0 0 1.00017 -67.4463 -31.353)"/><path d="M217.08 150.216 223.118 155.625" stroke="#000000" stroke-width="2.39488" stroke-linecap="round" stroke-linejoin="round" stroke-miterlimit="1.5" fill="none" fill-rule="evenodd" transform="matrix(1 0 0 1.00017 -67.4463 -31.353)"/></g></svg>