<svg width="605" height="202" xmlns="http://www.w3.org/2000/svg" xmlns:xlink="http://www.w3.org/1999/xlink" xml:space="preserve" overflow="hidden"><defs><clipPath id="clip0"><rect x="0" y="0" width="605" height="202"/></clipPath></defs><g clip-path="url(#clip0)"><path d="M70759.5 0C70759.5 39079.4 39079.4 70759.5-1.0297e-11 70759.5-39079.4 70759.5-70759.5 39079.4-70759.5 1.0297e-11-70759.5-39079.4-39079.4-70759.5-1.54455e-11-70759.5 39079.4-70759.5 70759.5-39079.4 70759.5 0Z" fill="#FFFFFF" transform="matrix(1 0 0 1.00165 67.2222 24.0982)"/><text font-family="Arial,Arial_MSFontService,sans-serif" font-weight="400" font-size="16" transform="matrix(0.707602 0 0 0.708772 45.6404 58)">seed </text><text font-family="Arial,Arial_MSFontService,sans-serif" font-weight="400" font-size="16" transform="matrix(0.707602 0 0 0.708772 73.2368 58)">= </text><text font-family="Arial,Arial_MSFontService,sans-serif" font-weight="400" font-size="16" transform="matrix(0.707602 0 0 0.708772 82.4357 58)">1</text><path d="M0 0 0-15.5779C-2.73738-15.5974-4.94063-17.8324-4.92107-20.5697-4.90152-23.3071-2.66657-25.5104 0.0708086-25.4908 2.80819-25.4713 5.01143-23.2363 4.99188-20.4989 4.97253-17.7892 2.78058-15.5972 0.0708085-15.5779" stroke="#000000" stroke-width="0.708086" stroke-linejoin="round" fill="none" transform="matrix(0.765521 0.643411 -0.642349 0.766786 67.2222 24.0982)"/><path d="M0 0 0-15.568C-2.73565-15.5876-4.9375-17.8211-4.91795-20.5567-4.89842-23.2924-2.66489-25.4943 0.0707638-25.4747 2.80641-25.4551 5.00826-23.2216 4.98872-20.486 4.96938-17.7779 2.77882-15.5873 0.0707637-15.568" stroke="#000000" stroke-width="0.707638" stroke-linejoin="round" fill="none" transform="matrix(0.173639 0.986386 -0.984759 0.173926 123.83 24.0982)"/><text font-family="Arial,Arial_MSFontService,sans-serif" font-weight="400" font-size="16" transform="matrix(0.707602 0 0 0.708772 104.371 58)">output </text><text font-family="Arial,Arial_MSFontService,sans-serif" font-weight="400" font-size="16" transform="matrix(0.707602 0 0 0.708772 136.921 58)">2</text><path d="M0 0 0-15.5779C-2.73738-15.5974-4.94063-17.8324-4.92107-20.5697-4.90152-23.3071-2.66657-25.5104 0.0708086-25.4908 2.80819-25.4713 5.01143-23.2363 4.99188-20.4989 4.97253-17.7892 2.78058-15.5972 0.0708085-15.5779" stroke="#666666" stroke-width="0.708086" stroke-linejoin="round" stroke-dasharray="2.12426 1.41617" fill="none" transform="matrix(0.765521 0.643411 -0.642349 0.766786 123.83 24.0982)"/><text fill="#999999" font-family="Arial,Arial_MSFontService,sans-serif" font-weight="700" font-size="8" transform="matrix(0.707602 0 0 0.708772 123.83 19)">1</text><path d="M0 0 0-4.95322C1.16483-4.95284 2.29228-4.54195 3.18421-3.79275" stroke="#999999" stroke-width="0.707602" stroke-linejoin="round" fill="none" transform="matrix(1 0 0 1.00165 123.83 24.0982)"/><path d="M-2.12426-0.708086 0 0-1.41617 1.41617C-0.944112 0.472057-1.18015-0.236028-2.12426-0.708086" stroke="#999999" stroke-width="0.708086" stroke-linejoin="round" fill="none" transform="matrix(0.765521 0.643411 -0.642349 0.766786 126.661 20.5544)"/><text fill="#CC0000" font-family="Arial,Arial_MSFontService,sans-serif" font-weight="700" font-size="8" transform="matrix(0.707602 0 0 0.708772 130.199 21)">2</text><path d="M3.18421-3.79275 4.54988-5.42023C5.82365-4.35158 6.68042-2.86851 6.96988-1.23123" stroke="#CC0000" stroke-width="0.707602" stroke-linejoin="round" fill="none" transform="matrix(1 0 0 1.00165 123.83 24.0982)"/><path d="M-2.12291-0.707638 0 0-1.41528 1.41528C-0.943515 0.471759-1.1794-0.235879-2.12291-0.707638" stroke="#CC0000" stroke-width="0.707638" stroke-linejoin="round" fill="none" transform="matrix(0.173639 0.986386 -0.984759 0.173926 130.906 22.6807)"/><path d="M0 0 0-15.5703C-2.73604-15.5898-4.93821-17.8236-4.91866-20.5597-4.89912-23.2957-2.66527-25.4979 0.070774-25.4783 2.80682-25.4588 5.00898-23.225 4.98944-20.4889 4.97009-17.7805 2.77922-15.5896 0.0707739-15.5703" stroke="#000000" stroke-width="0.70774" stroke-linejoin="round" fill="none" transform="matrix(-0.939511 0.342519 -0.341954 -0.941064 180.439 24.0982)"/><text font-family="Arial,Arial_MSFontService,sans-serif" font-weight="400" font-size="16" transform="matrix(0.707602 0 0 0.708772 160.98 58)">output </text><text font-family="Arial,Arial_MSFontService,sans-serif" font-weight="400" font-size="16" transform="matrix(0.707602 0 0 0.708772 193.529 58)">4</text><path d="M0 0 0-15.568C-2.73565-15.5876-4.9375-17.8211-4.91795-20.5567-4.89842-23.2924-2.66489-25.4943 0.0707638-25.4747 2.80641-25.4551 5.00826-23.2216 4.98872-20.486 4.96938-17.7779 2.77882-15.5873 0.0707637-15.568" stroke="#666666" stroke-width="0.707638" stroke-linejoin="round" stroke-dasharray="2.12291 1.41528" fill="none" transform="matrix(0.173639 0.986386 -0.984759 0.173926 180.439 24.0982)"/><text fill="#999999" font-family="Arial,Arial_MSFontService,sans-serif" font-weight="700" font-size="8" transform="matrix(0.707602 0 0 0.708772 184.684 22)">1</text><path d="M0 0 0-4.95322C2.40179-4.95223 4.45678-3.2283 4.87538-0.863275" stroke="#999999" stroke-width="0.707602" stroke-linejoin="round" fill="none" transform="matrix(1 0 0 1.00165 180.439 24.0982)"/><path d="M-2.12291-0.707638 0 0-1.41528 1.41528C-0.943515 0.471759-1.1794-0.235879-2.12291-0.707638" stroke="#999999" stroke-width="0.707638" stroke-linejoin="round" fill="none" transform="matrix(0.173639 0.986386 -0.984759 0.173926 185.392 23.3895)"/><text fill="#CC0000" font-family="Arial,Arial_MSFontService,sans-serif" font-weight="700" font-size="8" transform="matrix(0.707602 0 0 0.708772 185.392 33)">2</text><path d="M4.87538-0.863275 6.96988-1.23123C7.56844 2.15255 5.64946 5.47724 2.42 6.65146" stroke="#CC0000" stroke-width="0.707602" stroke-linejoin="round" fill="none" transform="matrix(1 0 0 1.00165 180.439 24.0982)"/><path d="M-2.12322-0.707739 0 0-1.41548 1.41548C-0.94365 0.471827-1.17957-0.235913-2.12322-0.707739" stroke="#CC0000" stroke-width="0.70774" stroke-linejoin="round" fill="none" transform="matrix(-0.939511 0.342519 -0.341954 -0.941064 182.561 30.4772)"/><path d="M0 0 0-15.5779C-2.73738-15.5974-4.94063-17.8324-4.92107-20.5697-4.90152-23.3071-2.66657-25.5104 0.0708086-25.4908 2.80819-25.4713 5.01143-23.2363 4.99188-20.4989 4.97253-17.7892 2.78058-15.5972 0.0708085-15.5779" stroke="#000000" stroke-width="0.708086" stroke-linejoin="round" fill="none" transform="matrix(0.765521 -0.643411 0.642349 0.766786 237.047 24.0982)"/><text font-family="Arial,Arial_MSFontService,sans-serif" font-weight="400" font-size="16" transform="matrix(0.707602 0 0 0.708772 217.588 58)">output </text><text font-family="Arial,Arial_MSFontService,sans-serif" font-weight="400" font-size="16" transform="matrix(0.707602 0 0 0.708772 250.137 58)">8</text><path d="M0 0 0-15.5703C-2.73604-15.5898-4.93821-17.8236-4.91866-20.5597-4.89912-23.2957-2.66527-25.4979 0.070774-25.4783 2.80682-25.4588 5.00898-23.225 4.98944-20.4889 4.97009-17.7805 2.77922-15.5896 0.0707739-15.5703" stroke="#666666" stroke-width="0.70774" stroke-linejoin="round" stroke-dasharray="2.12322 1.41548" fill="none" transform="matrix(-0.939511 0.342519 -0.341954 -0.941064 237.047 24.0982)"/><text fill="#999999" font-family="Arial,Arial_MSFontService,sans-serif" font-weight="700" font-size="8" transform="matrix(0.707602 0 0 0.708772 240.585 31)">1</text><path d="M0 0 0-4.95322C2.73558-4.95391 4.95378-2.73684 4.95448-0.00125936 4.95501 2.08316 3.65052 3.94488 1.69117 4.65602" stroke="#999999" stroke-width="0.707602" stroke-linejoin="round" fill="none" transform="matrix(1 0 0 1.00165 237.047 24.0982)"/><path d="M-2.12322-0.707739 0 0-1.41548 1.41548C-0.94365 0.471827-1.17957-0.235913-2.12322-0.707739" stroke="#999999" stroke-width="0.70774" stroke-linejoin="round" fill="none" transform="matrix(-0.939511 0.342519 -0.341954 -0.941064 238.462 29.0596)"/><text fill="#CC0000" font-family="Arial,Arial_MSFontService,sans-serif" font-weight="700" font-size="8" transform="matrix(0.707602 0 0 0.708772 227.14 22)">2</text><path d="M1.69117 4.65602 2.42 6.65146C-1.25103 7.99159-5.31335 6.10199-6.65346 2.43096-7.67522-0.367974-6.83414-3.50708-4.54988-5.42023" stroke="#CC0000" stroke-width="0.707602" stroke-linejoin="round" fill="none" transform="matrix(1 0 0 1.00165 237.047 24.0982)"/><path d="M-2.12426-0.708086 0 0-1.41617 1.41617C-0.944112 0.472057-1.18015-0.236028-2.12426-0.708086" stroke="#CC0000" stroke-width="0.708086" stroke-linejoin="round" fill="none" transform="matrix(0.765521 -0.643411 0.642349 0.766786 232.801 18.4281)"/><path d="M0 0 0-15.568C-2.73565-15.5876-4.9375-17.8211-4.91795-20.5567-4.89842-23.2924-2.66489-25.4943 0.0707638-25.4747 2.80641-25.4551 5.00826-23.2216 4.98872-20.486 4.96938-17.7779 2.77882-15.5873 0.0707637-15.568" stroke="#000000" stroke-width="0.707638" stroke-linejoin="round" fill="none" transform="matrix(0.173639 -0.986386 0.984759 0.173926 293.655 24.0982)"/><text font-family="Arial,Arial_MSFontService,sans-serif" font-weight="400" font-size="16" transform="matrix(0.707602 0 0 0.708772 274.196 58)">output </text><text font-family="Arial,Arial_MSFontService,sans-serif" font-weight="400" font-size="16" transform="matrix(0.707602 0 0 0.708772 306.746 58)">7</text><path d="M0 0 0-15.5779C-2.73738-15.5974-4.94063-17.8324-4.92107-20.5697-4.90152-23.3071-2.66657-25.5104 0.0708086-25.4908 2.80819-25.4713 5.01143-23.2363 4.99188-20.4989 4.97253-17.7892 2.78058-15.5972 0.0708085-15.5779" stroke="#666666" stroke-width="0.708086" stroke-linejoin="round" stroke-dasharray="2.12426 1.41617" fill="none" transform="matrix(0.765521 -0.643411 0.642349 0.766786 293.655 24.0982)"/><text fill="#999999" font-family="Arial,Arial_MSFontService,sans-serif" font-weight="700" font-size="8" transform="matrix(0.707602 0 0 0.708772 285.164 23)">1</text><path d="M0 0 0-4.95322C2.73558-4.9541 4.95393-2.73719 4.95482-0.00160406 4.95571 2.73398 2.7388 4.95233 0.00320744 4.95322-2.73238 4.9541-4.95073 2.73719-4.95161 0.00160339-4.95208-1.4622-4.30507-2.85126-3.18421-3.79275" stroke="#999999" stroke-width="0.707602" stroke-linejoin="round" fill="none" transform="matrix(1 0 0 1.00165 293.655 24.0982)"/><path d="M-2.12426-0.708086 0 0-1.41617 1.41617C-0.944112 0.472057-1.18015-0.236028-2.12426-0.708086" stroke="#999999" stroke-width="0.708086" stroke-linejoin="round" fill="none" transform="matrix(0.765521 -0.643411 0.642349 0.766786 290.825 20.5544)"/><text fill="#CC0000" font-family="Arial,Arial_MSFontService,sans-serif" font-weight="700" font-size="8" transform="matrix(0.707602 0 0 0.708772 283.041 28)">2</text><path d="M-3.18421-3.79275-4.54988-5.42023C-1.556-7.93201 2.90721-7.5412 5.41898-4.54731 7.93074-1.55343 7.53993 2.90979 4.54605 5.42156 1.55217 7.93335-2.91104 7.54247-5.42281 4.54863-6.76776 2.94554-7.33416 0.829367-6.96988-1.23123" stroke="#CC0000" stroke-width="0.707602" stroke-linejoin="round" fill="none" transform="matrix(1 0 0 1.00165 293.655 24.0982)"/><path d="M-2.12291-0.707638 0 0-1.41528 1.41528C-0.943515 0.471759-1.1794-0.235879-2.12291-0.707638" stroke="#CC0000" stroke-width="0.707638" stroke-linejoin="round" fill="none" transform="matrix(0.173639 -0.986386 0.984759 0.173926 286.579 22.6807)"/><path d="M0 0 0-15.5703C-2.73604-15.5898-4.93821-17.8236-4.91866-20.5597-4.89912-23.2957-2.66527-25.4979 0.070774-25.4783 2.80682-25.4588 5.00898-23.225 4.98944-20.4889 4.97009-17.7805 2.77922-15.5896 0.0707739-15.5703" stroke="#000000" stroke-width="0.70774" stroke-linejoin="round" fill="none" transform="matrix(-0.939511 -0.342519 0.341954 -0.941064 350.263 24.0982)"/><text font-family="Arial,Arial_MSFontService,sans-serif" font-weight="400" font-size="16" transform="matrix(0.707602 0 0 0.708772 330.804 58)">output </text><text font-family="Arial,Arial_MSFontService,sans-serif" font-weight="400" font-size="16" transform="matrix(0.707602 0 0 0.708772 363.354 58)">5</text><path d="M0 0 0-15.568C-2.73565-15.5876-4.9375-17.8211-4.91795-20.5567-4.89842-23.2924-2.66489-25.4943 0.0707638-25.4747 2.80641-25.4551 5.00826-23.2216 4.98872-20.486 4.96938-17.7779 2.77882-15.5873 0.0707637-15.568" stroke="#666666" stroke-width="0.707638" stroke-linejoin="round" stroke-dasharray="2.12291 1.41528" fill="none" transform="matrix(0.173639 -0.986386 0.984759 0.173926 350.263 24.0982)"/><text fill="#999999" font-family="Arial,Arial_MSFontService,sans-serif" font-weight="700" font-size="8" transform="matrix(0.707602 0 0 0.708772 341.772 28)">1</text><path d="M0 0 0-4.95322C2.73558-4.95433 4.95412-2.73761 4.95525-0.00202839 4.95637 2.73356 2.73964 4.9521 0.00405589 4.95322-2.73153 4.95433-4.95007 2.73761-4.95119 0.00202771-4.95131-0.28807-4.92594-0.577617-4.87538-0.863275" stroke="#999999" stroke-width="0.707602" stroke-linejoin="round" fill="none" transform="matrix(1 0 0 1.00165 350.263 24.0982)"/><path d="M-2.12291-0.707638 0 0-1.41528 1.41528C-0.943515 0.471759-1.1794-0.235879-2.12291-0.707638" stroke="#999999" stroke-width="0.707638" stroke-linejoin="round" fill="none" transform="matrix(0.173639 -0.986386 0.984759 0.173926 345.31 23.3895)"/><text fill="#CC0000" font-family="Arial,Arial_MSFontService,sans-serif" font-weight="700" font-size="8" transform="matrix(0.707602 0 0 0.708772 348.848 35)">2</text><path d="M-4.87538-0.863275-6.96988-1.23123C-6.28913-5.07946-2.61767-7.6472 1.23056-6.96646 5.07879-6.28571 7.64656-2.61424 6.96579 1.23399 6.28504 5.08222 2.61358 7.64996-1.23465 6.96922-1.63823 6.89783-2.03483 6.79151-2.42 6.65146" stroke="#CC0000" stroke-width="0.707602" stroke-linejoin="round" fill="none" transform="matrix(1 0 0 1.00165 350.263 24.0982)"/><path d="M-2.12322-0.707739 0 0-1.41548 1.41548C-0.94365 0.471827-1.17957-0.235913-2.12322-0.707739" stroke="#CC0000" stroke-width="0.70774" stroke-linejoin="round" fill="none" transform="matrix(-0.939511 -0.342519 0.341954 -0.941064 348.14 30.4772)"/><path d="M0 0 0-15.5779C-2.73738-15.5974-4.94063-17.8324-4.92107-20.5697-4.90152-23.3071-2.66657-25.5104 0.0708086-25.4908 2.80819-25.4713 5.01143-23.2363 4.99188-20.4989 4.97253-17.7892 2.78058-15.5972 0.0708085-15.5779" stroke="#000000" stroke-width="0.708086" stroke-linejoin="round" fill="none" transform="matrix(0.765521 0.643411 -0.642349 0.766786 406.871 24.0982)"/><text font-family="Arial,Arial_MSFontService,sans-serif" font-weight="400" font-size="16" transform="matrix(0.707602 0 0 0.708772 387.412 58)">output </text><text font-family="Arial,Arial_MSFontService,sans-serif" font-weight="400" font-size="16" transform="matrix(0.707602 0 0 0.708772 419.962 58)">1</text><path d="M0 0 0-15.5703C-2.73604-15.5898-4.93821-17.8236-4.91866-20.5597-4.89912-23.2957-2.66527-25.4979 0.070774-25.4783 2.80682-25.4588 5.00898-23.225 4.98944-20.4889 4.97009-17.7805 2.77922-15.5896 0.0707739-15.5703" stroke="#666666" stroke-width="0.70774" stroke-linejoin="round" stroke-dasharray="2.12322 1.41548" fill="none" transform="matrix(-0.939511 -0.342519 0.341954 -0.941064 406.871 24.0982)"/><text fill="#999999" font-family="Arial,Arial_MSFontService,sans-serif" font-weight="700" font-size="8" transform="matrix(0.707602 0 0 0.708772 406.164 33)">1</text><path d="M0 0 0-4.95322C2.73558-4.95252 4.95265-2.73432 4.95196 0.00125904 4.95126 2.73684 2.73306 4.95391-0.00251826 4.95322-0.578398 4.95307-1.14984 4.8525-1.69117 4.65602" stroke="#999999" stroke-width="0.707602" stroke-linejoin="round" fill="none" transform="matrix(1 0 0 1.00165 406.871 24.0982)"/><path d="M-2.12322-0.707739 0 0-1.41548 1.41548C-0.94365 0.471827-1.17957-0.235913-2.12322-0.707739" stroke="#999999" stroke-width="0.70774" stroke-linejoin="round" fill="none" transform="matrix(-0.939511 -0.342519 0.341954 -0.941064 405.456 29.0596)"/><text fill="#CC0000" font-family="Arial,Arial_MSFontService,sans-serif" font-weight="700" font-size="8" transform="matrix(0.707602 0 0 0.708772 408.287 17)">2</text><path d="M-1.69117 4.65602-2.42 6.65146C-6.09103 5.31136-7.98062 1.24903-6.6405-2.422-5.30039-6.09302-1.23807-7.9826 2.43295-6.6425 3.20416-6.36096 3.92049-5.94738 4.54988-5.42023" stroke="#CC0000" stroke-width="0.707602" stroke-linejoin="round" fill="none" transform="matrix(1 0 0 1.00165 406.871 24.0982)"/><path d="M-2.12426-0.708086 0 0-1.41617 1.41617C-0.944112 0.472057-1.18015-0.236028-2.12426-0.708086" stroke="#CC0000" stroke-width="0.708086" stroke-linejoin="round" fill="none" transform="matrix(0.765521 0.643411 -0.642349 0.766786 411.117 18.4281)"/><text font-family="Arial,Arial_MSFontService,sans-serif" font-style="italic" font-weight="400" font-size="16" transform="matrix(0.707602 0 0 0.708772 5.66082 17)">m</text><text font-family="Arial,Arial_MSFontService,sans-serif" font-weight="400" font-size="16" transform="matrix(0.707602 0 0 0.708772 20.5205 17)">= </text><text font-family="Arial,Arial_MSFontService,sans-serif" font-weight="400" font-size="16" transform="matrix(0.707602 0 0 0.708772 29.7193 17)">9</text><text font-family="Arial,Arial_MSFontService,sans-serif" font-style="italic" font-weight="400" font-size="16" transform="matrix(0.707602 0 0 0.708772 7.42982 31)">a</text><text font-family="Arial,Arial_MSFontService,sans-serif" font-weight="400" font-size="16" transform="matrix(0.707602 0 0 0.708772 20.5205 31)">= </text><text font-family="Arial,Arial_MSFontService,sans-serif" font-weight="400" font-size="16" transform="matrix(0.707602 0 0 0.708772 29.7193 31)">2</text><text font-family="Arial,Arial_MSFontService,sans-serif" font-style="italic" font-weight="400" font-size="16" transform="matrix(0.707602 0 0 0.708772 7.78363 45)">c</text><text font-family="Arial,Arial_MSFontService,sans-serif" font-weight="400" font-size="16" transform="matrix(0.707602 0 0 0.708772 20.5205 45)">= </text><text font-family="Arial,Arial_MSFontService,sans-serif" font-weight="400" font-size="16" transform="matrix(0.707602 0 0 0.708772 29.7193 45)">0</text><path d="M-60.1462 41.0409 530.702 41.0409" stroke="#CCCCCC" stroke-width="0.707602" stroke-linejoin="round" fill="none" transform="matrix(1 0 0 1.00165 67.2222 24.0982)"/><text font-family="Arial,Arial_MSFontService,sans-serif" font-weight="400" font-size="16" transform="matrix(0.707602 0 0 0.708772 45.6404 129)">seed </text><text font-family="Arial,Arial_MSFontService,sans-serif" font-weight="400" font-size="16" transform="matrix(0.707602 0 0 0.708772 73.2368 129)">= </text><text font-family="Arial,Arial_MSFontService,sans-serif" font-weight="400" font-size="16" transform="matrix(0.707602 0 0 0.708772 82.4357 129)">3</text><path d="M0 0 0-15.5737C-2.73664-15.5932-4.93929-17.8275-4.91974-20.5642-4.90019-23.3008-2.66585-25.5035 0.0707894-25.4839 2.80743-25.4644 5.01008-23.23 4.99053-20.4934 4.97118-17.7843 2.77983-15.593 0.0707893-15.5737" stroke="#000000" stroke-width="0.707894" stroke-linejoin="round" fill="none" transform="matrix(-0.499794 0.867099 -0.865668 -0.50062 67.2222 94.9754)"/><path d="M0 0 0-15.5737C-2.73664-15.5932-4.93929-17.8275-4.91974-20.5642-4.90019-23.3008-2.66585-25.5035 0.0707894-25.4839 2.80743-25.4644 5.01008-23.23 4.99053-20.4934 4.97118-17.7843 2.77983-15.593 0.0707893-15.5737" stroke="#000000" stroke-width="0.707894" stroke-linejoin="round" fill="none" transform="matrix(-0.499794 -0.867099 0.865668 -0.50062 123.83 94.9754)"/><text font-family="Arial,Arial_MSFontService,sans-serif" font-weight="400" font-size="16" transform="matrix(0.707602 0 0 0.708772 104.371 129)">output </text><text font-family="Arial,Arial_MSFontService,sans-serif" font-weight="400" font-size="16" transform="matrix(0.707602 0 0 0.708772 136.921 129)">6</text><path d="M0 0 0-15.5737C-2.73664-15.5932-4.93929-17.8275-4.91974-20.5642-4.90019-23.3008-2.66585-25.5035 0.0707894-25.4839 2.80743-25.4644 5.01008-23.23 4.99053-20.4934 4.97118-17.7843 2.77983-15.593 0.0707893-15.5737" stroke="#666666" stroke-width="0.707894" stroke-linejoin="round" stroke-dasharray="2.12368 1.41579" fill="none" transform="matrix(-0.499794 0.867099 -0.865668 -0.50062 123.83 94.9754)"/><text fill="#999999" font-family="Arial,Arial_MSFontService,sans-serif" font-weight="700" font-size="8" transform="matrix(0.707602 0 0 0.708772 129.491 97)">1</text><path d="M0 0 0-4.95322C2.73558-4.95237 4.95252-2.73405 4.95167 0.00154066 4.9514 0.870492 4.72254 1.72408 4.28807 2.47661" stroke="#999999" stroke-width="0.707602" stroke-linejoin="round" fill="none" transform="matrix(1 0 0 1.00165 123.83 94.9754)"/><path d="M-2.12368-0.707894 0 0-1.41579 1.41579C-0.943856 0.47193-1.17983-0.235964-2.12368-0.707894" stroke="#999999" stroke-width="0.707894" stroke-linejoin="round" fill="none" transform="matrix(-0.499794 0.867099 -0.865668 -0.50062 128.076 97.1018)"/><text fill="#CC0000" font-family="Arial,Arial_MSFontService,sans-serif" font-weight="700" font-size="8" transform="matrix(0.707602 0 0 0.708772 116.754 105)">2</text><path d="M4.28807 2.47661 6.12784 3.53801C4.17367 6.92233-0.154012 8.08167-3.53832 6.12752-4.61377 5.50654-5.50685 4.61346-6.12784 3.53801" stroke="#CC0000" stroke-width="0.707602" stroke-linejoin="round" fill="none" transform="matrix(1 0 0 1.00165 123.83 94.9754)"/><path d="M-2.12368-0.707894 0 0-1.41579 1.41579C-0.943856 0.47193-1.17983-0.235964-2.12368-0.707894" stroke="#CC0000" stroke-width="0.707894" stroke-linejoin="round" fill="none" transform="matrix(-0.499794 -0.867099 0.865668 -0.50062 117.462 98.5193)"/><path d="M0 0 0-15.5737C-2.73664-15.5932-4.93929-17.8275-4.91974-20.5642-4.90019-23.3008-2.66585-25.5035 0.0707894-25.4839 2.80743-25.4644 5.01008-23.23 4.99053-20.4934 4.97118-17.7843 2.77983-15.593 0.0707893-15.5737" stroke="#000000" stroke-width="0.707894" stroke-linejoin="round" fill="none" transform="matrix(-0.499794 0.867099 -0.865668 -0.50062 180.439 94.9754)"/><text font-family="Arial,Arial_MSFontService,sans-serif" font-weight="400" font-size="16" transform="matrix(0.707602 0 0 0.708772 160.98 129)">output </text><text font-family="Arial,Arial_MSFontService,sans-serif" font-weight="400" font-size="16" transform="matrix(0.707602 0 0 0.708772 193.529 129)">3</text><path d="M0 0 0-15.5737C-2.73664-15.5932-4.93929-17.8275-4.91974-20.5642-4.90019-23.3008-2.66585-25.5035 0.0707894-25.4839 2.80743-25.4644 5.01008-23.23 4.99053-20.4934 4.97118-17.7843 2.77983-15.593 0.0707893-15.5737" stroke="#666666" stroke-width="0.707894" stroke-linejoin="round" stroke-dasharray="2.12368 1.41579" fill="none" transform="matrix(-0.499794 -0.867099 0.865668 -0.50062 180.439 94.9754)"/><text fill="#999999" font-family="Arial,Arial_MSFontService,sans-serif" font-weight="700" font-size="8" transform="matrix(0.707602 0 0 0.708772 174.778 103)">1</text><path d="M0 0 0-4.95322C2.73558-4.95407 4.9539-2.73713 4.95476-0.00154114 4.95561 2.73405 2.73867 4.95237 0.00308176 4.95322-1.76708 4.95377-3.40299 4.00961-4.28807 2.47661" stroke="#999999" stroke-width="0.707602" stroke-linejoin="round" fill="none" transform="matrix(1 0 0 1.00165 180.439 94.9754)"/><path d="M-2.12368-0.707894 0 0-1.41579 1.41579C-0.943856 0.47193-1.17983-0.235964-2.12368-0.707894" stroke="#999999" stroke-width="0.707894" stroke-linejoin="round" fill="none" transform="matrix(-0.499794 -0.867099 0.865668 -0.50062 176.193 97.8105)"/><text fill="#CC0000" font-family="Arial,Arial_MSFontService,sans-serif" font-weight="700" font-size="8" transform="matrix(0.707602 0 0 0.708772 188.222 98)">2</text><path d="M-4.28807 2.47661-6.12784 3.53801C-8.08202 0.153701-6.92264-4.17398-3.53832-6.12815-0.154012-8.0823 4.17367-6.92295 6.12784-3.53863 7.39211-1.34915 7.39211 1.34853 6.12784 3.53801" stroke="#CC0000" stroke-width="0.707602" stroke-linejoin="round" fill="none" transform="matrix(1 0 0 1.00165 180.439 94.9754)"/><path d="M-2.12368-0.707894 0 0-1.41579 1.41579C-0.943856 0.47193-1.17983-0.235964-2.12368-0.707894" stroke="#CC0000" stroke-width="0.707894" stroke-linejoin="round" fill="none" transform="matrix(-0.499794 0.867099 -0.865668 -0.50062 186.807 98.5193)"/><text font-family="Arial,Arial_MSFontService,sans-serif" font-style="italic" font-weight="400" font-size="16" transform="matrix(0.707602 0 0 0.708772 5.66082 88)">m</text><text font-family="Arial,Arial_MSFontService,sans-serif" font-weight="400" font-size="16" transform="matrix(0.707602 0 0 0.708772 20.5205 88)">= </text><text font-family="Arial,Arial_MSFontService,sans-serif" font-weight="400" font-size="16" transform="matrix(0.707602 0 0 0.708772 29.7193 88)">9</text><text font-family="Arial,Arial_MSFontService,sans-serif" font-style="italic" font-weight="400" font-size="16" transform="matrix(0.707602 0 0 0.708772 7.42982 102)">a</text><text font-family="Arial,Arial_MSFontService,sans-serif" font-weight="400" font-size="16" transform="matrix(0.707602 0 0 0.708772 20.5205 102)">= </text><text font-family="Arial,Arial_MSFontService,sans-serif" font-weight="400" font-size="16" transform="matrix(0.707602 0 0 0.708772 29.7193 102)">2</text><text font-family="Arial,Arial_MSFontService,sans-serif" font-style="italic" font-weight="400" font-size="16" transform="matrix(0.707602 0 0 0.708772 7.78363 116)">c</text><text font-family="Arial,Arial_MSFontService,sans-serif" font-weight="400" font-size="16" transform="matrix(0.707602 0 0 0.708772 20.5205 116)">= </text><text font-family="Arial,Arial_MSFontService,sans-serif" font-weight="400" font-size="16" transform="matrix(0.707602 0 0 0.708772 29.7193 116)">0</text><path d="M-60.1462 41.0409 530.702 41.0409" stroke="#CCCCCC" stroke-width="0.707602" stroke-linejoin="round" fill="none" transform="matrix(1 0 0 1.00165 67.2222 94.9754)"/><text font-family="Arial,Arial_MSFontService,sans-serif" font-weight="400" font-size="16" transform="matrix(0.707602 0 0 0.708772 45.6404 200)">seed </text><text font-family="Arial,Arial_MSFontService,sans-serif" font-weight="400" font-size="16" transform="matrix(0.707602 0 0 0.708772 73.2368 200)">= </text><text font-family="Arial,Arial_MSFontService,sans-serif" font-weight="400" font-size="16" transform="matrix(0.707602 0 0 0.708772 82.4357 200)">0</text><path d="M0 0 0-15.5673C-2.73551-15.5868-4.93725-17.8202-4.91771-20.5557-4.89817-23.2912-2.66475-25.493 0.0707602-25.4734 2.80627-25.4539 5.00801-23.2205 4.98847-20.4849 4.96913-17.777 2.77868-15.5866 0.0707602-15.5673" stroke="#000000" stroke-width="0.707602" stroke-linejoin="round" fill="none" transform="matrix(1 0 0 1.00165 67.2222 165.853)"/><path d="M0 0 0-15.5779C-2.73738-15.5974-4.94063-17.8324-4.92107-20.5697-4.90152-23.3071-2.66657-25.5104 0.0708086-25.4908 2.80819-25.4713 5.01143-23.2363 4.99188-20.4989 4.97253-17.7892 2.78058-15.5972 0.0708085-15.5779" stroke="#000000" stroke-width="0.708086" stroke-linejoin="round" fill="none" transform="matrix(0.765521 0.643411 -0.642349 0.766786 123.83 165.853)"/><text font-family="Arial,Arial_MSFontService,sans-serif" font-weight="400" font-size="16" transform="matrix(0.707602 0 0 0.708772 104.371 200)">output </text><text font-family="Arial,Arial_MSFontService,sans-serif" font-weight="400" font-size="16" transform="matrix(0.707602 0 0 0.708772 136.921 200)">1</text><path d="M0 0 0-15.5673C-2.73551-15.5868-4.93725-17.8202-4.91771-20.5557-4.89817-23.2912-2.66475-25.493 0.0707602-25.4734 2.80627-25.4539 5.00801-23.2205 4.98847-20.4849 4.96913-17.777 2.77868-15.5866 0.0707602-15.5673" stroke="#666666" stroke-width="0.707602" stroke-linejoin="round" stroke-dasharray="2.12281 1.4152" fill="none" transform="matrix(1 0 0 1.00165 123.83 165.853)"/><path d="M0 0 0-4.95322" stroke="#999999" stroke-width="0.707602" stroke-linejoin="round" fill="none" transform="matrix(1 0 0 1.00165 123.83 165.853)"/><path d="M-2.12281-0.707602 0 0-1.4152 1.4152C-0.943467 0.471735-1.17934-0.235867-2.12281-0.707602" stroke="#999999" stroke-width="0.707602" stroke-linejoin="round" fill="none" transform="matrix(1 0 0 1.00165 123.83 160.891)"/><path d="M0-4.95322 0-7.07602" stroke="#CC0000" stroke-width="0.707602" stroke-linejoin="round" fill="none" transform="matrix(1 0 0 1.00165 123.83 165.853)"/><path d="M-2.12281-0.707602 0 0-1.4152 1.4152C-0.943467 0.471735-1.17934-0.235867-2.12281-0.707602" stroke="#CC0000" stroke-width="0.707602" stroke-linejoin="round" fill="none" transform="matrix(1 0 0 1.00165 123.83 158.765)"/><path d="M0-7.07602 0-9.19883" stroke="#009900" stroke-width="0.707602" stroke-linejoin="round" fill="none" transform="matrix(1 0 0 1.00165 123.83 165.853)"/><path d="M-2.12281-0.707602 0 0-1.4152 1.4152C-0.943467 0.471735-1.17934-0.235867-2.12281-0.707602" stroke="#009900" stroke-width="0.707602" stroke-linejoin="round" fill="none" transform="matrix(1 0 0 1.00165 123.83 156.639)"/><path d="M0-9.19883 0-11.3216" stroke="#0000FF" stroke-width="0.707602" stroke-linejoin="round" fill="none" transform="matrix(1 0 0 1.00165 123.83 165.853)"/><path d="M-2.12281-0.707602 0 0-1.4152 1.4152C-0.943467 0.471735-1.17934-0.235867-2.12281-0.707602" stroke="#0000FF" stroke-width="0.707602" stroke-linejoin="round" fill="none" transform="matrix(1 0 0 1.00165 123.83 154.512)"/><text font-family="Arial,Arial_MSFontService,sans-serif" font-weight="700" font-size="8" transform="matrix(0.707602 0 0 0.708772 127.368 154)">c</text><path d="M0-11.3216 0-12.7368C2.99432-12.7371 5.89298-11.6823 8.18696-9.75784" stroke="#000000" stroke-width="0.707602" stroke-linejoin="round" fill="none" transform="matrix(1 0 0 1.00165 123.83 165.853)"/><path d="M-2.12426-0.708086 0 0-1.41617 1.41617C-0.944112 0.472057-1.18015-0.236028-2.12426-0.708086" stroke="#000000" stroke-width="0.708086" stroke-linejoin="round" fill="none" transform="matrix(0.765521 0.643411 -0.642349 0.766786 132.322 155.93)"/><path d="M0 0 0-15.5703C-2.73604-15.5898-4.93821-17.8236-4.91866-20.5597-4.89912-23.2957-2.66527-25.4979 0.070774-25.4783 2.80682-25.4588 5.00898-23.225 4.98944-20.4889 4.97009-17.7805 2.77922-15.5896 0.0707739-15.5703" stroke="#000000" stroke-width="0.70774" stroke-linejoin="round" fill="none" transform="matrix(-0.939511 -0.342519 0.341954 -0.941064 180.439 165.853)"/><text font-family="Arial,Arial_MSFontService,sans-serif" font-weight="400" font-size="16" transform="matrix(0.707602 0 0 0.708772 160.98 200)">output </text><text font-family="Arial,Arial_MSFontService,sans-serif" font-weight="400" font-size="16" transform="matrix(0.707602 0 0 0.708772 193.529 200)">5</text><path d="M0 0 0-15.5779C-2.73738-15.5974-4.94063-17.8324-4.92107-20.5697-4.90152-23.3071-2.66657-25.5104 0.0708086-25.4908 2.80819-25.4713 5.01143-23.2363 4.99188-20.4989 4.97253-17.7892 2.78058-15.5972 0.0708085-15.5779" stroke="#666666" stroke-width="0.708086" stroke-linejoin="round" stroke-dasharray="2.12426 1.41617" fill="none" transform="matrix(0.765521 0.643411 -0.642349 0.766786 180.439 165.853)"/><text fill="#999999" font-family="Arial,Arial_MSFontService,sans-serif" font-weight="700" font-size="8" transform="matrix(0.707602 0 0 0.708772 180.439 161)">1</text><path d="M0 0 0-4.95322C1.16483-4.95284 2.29228-4.54195 3.18421-3.79275" stroke="#999999" stroke-width="0.707602" stroke-linejoin="round" fill="none" transform="matrix(1 0 0 1.00165 180.439 165.853)"/><path d="M-2.12426-0.708086 0 0-1.41617 1.41617C-0.944112 0.472057-1.18015-0.236028-2.12426-0.708086" stroke="#999999" stroke-width="0.708086" stroke-linejoin="round" fill="none" transform="matrix(0.765521 0.643411 -0.642349 0.766786 183.269 162.309)"/><text fill="#CC0000" font-family="Arial,Arial_MSFontService,sans-serif" font-weight="700" font-size="8" transform="matrix(0.707602 0 0 0.708772 186.807 163)">2</text><path d="M3.18421-3.79275 4.54988-5.42023C5.82365-4.35158 6.68042-2.86851 6.96988-1.23123" stroke="#CC0000" stroke-width="0.707602" stroke-linejoin="round" fill="none" transform="matrix(1 0 0 1.00165 180.439 165.853)"/><path d="M-2.12291-0.707638 0 0-1.41528 1.41528C-0.943515 0.471759-1.1794-0.235879-2.12291-0.707638" stroke="#CC0000" stroke-width="0.707638" stroke-linejoin="round" fill="none" transform="matrix(0.173639 0.986386 -0.984759 0.173926 187.515 164.435)"/><text fill="#009900" font-family="Arial,Arial_MSFontService,sans-serif" font-weight="700" font-size="8" transform="matrix(0.707602 0 0 0.708772 190.345 170)">3</text><path d="M6.96988-1.23123 9.05731-1.59918C9.43418 0.530874 9.04832 2.72561 7.9676 4.59942" stroke="#009900" stroke-width="0.707602" stroke-linejoin="round" fill="none" transform="matrix(1 0 0 1.00165 180.439 165.853)"/><path d="M-2.12368-0.707894 0 0-1.41579 1.41579C-0.943856 0.47193-1.17983-0.235964-2.12368-0.707894" stroke="#009900" stroke-width="0.707894" stroke-linejoin="round" fill="none" transform="matrix(-0.499794 0.867099 -0.865668 -0.50062 188.222 170.105)"/><text fill="#0000FF" font-family="Arial,Arial_MSFontService,sans-serif" font-weight="700" font-size="8" transform="matrix(0.707602 0 0 0.708772 186.807 179)">4</text><path d="M7.9676 4.59942 9.80737 5.66082C8.47608 7.96803 6.37391 9.73194 3.87058 10.6423" stroke="#0000FF" stroke-width="0.707602" stroke-linejoin="round" fill="none" transform="matrix(1 0 0 1.00165 180.439 165.853)"/><path d="M-2.12322-0.707739 0 0-1.41548 1.41548C-0.94365 0.471827-1.17957-0.235913-2.12322-0.707739" stroke="#0000FF" stroke-width="0.70774" stroke-linejoin="round" fill="none" transform="matrix(-0.939511 0.342519 -0.341954 -0.941064 183.977 176.484)"/><text font-family="Arial,Arial_MSFontService,sans-serif" font-weight="700" font-size="8" transform="matrix(0.707602 0 0 0.708772 179.023 184)">c</text><path d="M3.87058 10.6423 4.35883 11.9656C1.5434 12.9909-1.54341 12.9909-4.35883 11.9656" stroke="#000000" stroke-width="0.707602" stroke-linejoin="round" fill="none" transform="matrix(1 0 0 1.00165 180.439 165.853)"/><path d="M-2.12322-0.707739 0 0-1.41548 1.41548C-0.94365 0.471827-1.17957-0.235913-2.12322-0.707739" stroke="#000000" stroke-width="0.70774" stroke-linejoin="round" fill="none" transform="matrix(-0.939511 -0.342519 0.341954 -0.941064 176.193 177.902)"/><path d="M0 0 0-15.5737C-2.73664-15.5932-4.93929-17.8275-4.91974-20.5642-4.90019-23.3008-2.66585-25.5035 0.0707894-25.4839 2.80743-25.4644 5.01008-23.23 4.99053-20.4934 4.97118-17.7843 2.77983-15.593 0.0707893-15.5737" stroke="#000000" stroke-width="0.707894" stroke-linejoin="round" fill="none" transform="matrix(-0.499794 0.867099 -0.865668 -0.50062 237.047 165.853)"/><text font-family="Arial,Arial_MSFontService,sans-serif" font-weight="400" font-size="16" transform="matrix(0.707602 0 0 0.708772 217.588 200)">output </text><text font-family="Arial,Arial_MSFontService,sans-serif" font-weight="400" font-size="16" transform="matrix(0.707602 0 0 0.708772 250.137 200)">3</text><path d="M0 0 0-15.5703C-2.73604-15.5898-4.93821-17.8236-4.91866-20.5597-4.89912-23.2957-2.66527-25.4979 0.070774-25.4783 2.80682-25.4588 5.00898-23.225 4.98944-20.4889 4.97009-17.7805 2.77922-15.5896 0.0707739-15.5703" stroke="#666666" stroke-width="0.70774" stroke-linejoin="round" stroke-dasharray="2.12322 1.41548" fill="none" transform="matrix(-0.939511 -0.342519 0.341954 -0.941064 237.047 165.853)"/><text fill="#999999" font-family="Arial,Arial_MSFontService,sans-serif" font-weight="700" font-size="8" transform="matrix(0.707602 0 0 0.708772 236.339 175)">1</text><path d="M0 0 0-4.95322C2.73558-4.95252 4.95265-2.73432 4.95196 0.00125904 4.95126 2.73684 2.73306 4.95391-0.00251826 4.95322-0.578398 4.95307-1.14984 4.8525-1.69117 4.65602" stroke="#999999" stroke-width="0.707602" stroke-linejoin="round" fill="none" transform="matrix(1 0 0 1.00165 237.047 165.853)"/><path d="M-2.12322-0.707739 0 0-1.41548 1.41548C-0.94365 0.471827-1.17957-0.235913-2.12322-0.707739" stroke="#999999" stroke-width="0.70774" stroke-linejoin="round" fill="none" transform="matrix(-0.939511 -0.342519 0.341954 -0.941064 235.632 170.814)"/><text fill="#CC0000" font-family="Arial,Arial_MSFontService,sans-serif" font-weight="700" font-size="8" transform="matrix(0.707602 0 0 0.708772 238.462 159)">2</text><path d="M-1.69117 4.65602-2.42 6.65146C-6.09103 5.31136-7.98062 1.24903-6.6405-2.422-5.30039-6.09302-1.23807-7.9826 2.43295-6.6425 3.20416-6.36096 3.92049-5.94738 4.54988-5.42023" stroke="#CC0000" stroke-width="0.707602" stroke-linejoin="round" fill="none" transform="matrix(1 0 0 1.00165 237.047 165.853)"/><path d="M-2.12426-0.708086 0 0-1.41617 1.41617C-0.944112 0.472057-1.18015-0.236028-2.12426-0.708086" stroke="#CC0000" stroke-width="0.708086" stroke-linejoin="round" fill="none" transform="matrix(0.765521 0.643411 -0.642349 0.766786 241.292 160.182)"/><text fill="#009900" font-family="Arial,Arial_MSFontService,sans-serif" font-weight="700" font-size="8" transform="matrix(0.707602 0 0 0.708772 227.848 176)">3</text><path d="M4.54988-5.42023 5.91556-7.04772C9.80333-3.77737 10.3039 2.02546 7.03355 5.91326 3.76319 9.80107-2.03964 10.3016-5.92744 7.03125-6.74327 6.34499-7.43357 5.52213-7.9676 4.59942" stroke="#009900" stroke-width="0.707602" stroke-linejoin="round" fill="none" transform="matrix(1 0 0 1.00165 237.047 165.853)"/><path d="M-2.12368-0.707894 0 0-1.41579 1.41579C-0.943856 0.47193-1.17983-0.235964-2.12368-0.707894" stroke="#009900" stroke-width="0.707894" stroke-linejoin="round" fill="none" transform="matrix(-0.499794 -0.867099 0.865668 -0.50062 229.263 170.105)"/><text fill="#0000FF" font-family="Arial,Arial_MSFontService,sans-serif" font-weight="700" font-size="8" transform="matrix(0.707602 0 0 0.708772 247.661 162)">4</text><path d="M-7.9676 4.59942-9.80737 5.66082C-12.927 0.24184-11.0629-6.68003-5.64394-9.79958-0.224957-12.9192 6.69691-11.0552 9.8165-5.63617 10.4707-4.49972 10.9225-3.25825 11.1518-1.96713" stroke="#0000FF" stroke-width="0.707602" stroke-linejoin="round" fill="none" transform="matrix(1 0 0 1.00165 237.047 165.853)"/><path d="M-2.12291-0.707638 0 0-1.41528 1.41528C-0.943515 0.471759-1.1794-0.235879-2.12291-0.707638" stroke="#0000FF" stroke-width="0.707638" stroke-linejoin="round" fill="none" transform="matrix(0.173639 0.986386 -0.984759 0.173926 248.368 163.726)"/><text font-family="Arial,Arial_MSFontService,sans-serif" font-weight="700" font-size="8" transform="matrix(0.707602 0 0 0.708772 250.491 170)">c</text><path d="M11.1518-1.96713 12.5458-2.2148C13.0661 0.735326 12.5299 3.77445 11.0315 6.36842" stroke="#000000" stroke-width="0.707602" stroke-linejoin="round" fill="none" transform="matrix(1 0 0 1.00165 237.047 165.853)"/><path d="M-2.12368-0.707894 0 0-1.41579 1.41579C-0.943856 0.47193-1.17983-0.235964-2.12368-0.707894" stroke="#000000" stroke-width="0.707894" stroke-linejoin="round" fill="none" transform="matrix(-0.499794 0.867099 -0.865668 -0.50062 248.368 172.232)"/><path d="M0 0 0-15.5703C-2.73604-15.5898-4.93821-17.8236-4.91866-20.5597-4.89912-23.2957-2.66527-25.4979 0.070774-25.4783 2.80682-25.4588 5.00898-23.225 4.98944-20.4889 4.97009-17.7805 2.77922-15.5896 0.0707739-15.5703" stroke="#000000" stroke-width="0.70774" stroke-linejoin="round" fill="none" transform="matrix(-0.939511 0.342519 -0.341954 -0.941064 293.655 165.853)"/><text font-family="Arial,Arial_MSFontService,sans-serif" font-weight="400" font-size="16" transform="matrix(0.707602 0 0 0.708772 274.196 200)">output </text><text font-family="Arial,Arial_MSFontService,sans-serif" font-weight="400" font-size="16" transform="matrix(0.707602 0 0 0.708772 306.746 200)">4</text><path d="M0 0 0-15.5737C-2.73664-15.5932-4.93929-17.8275-4.91974-20.5642-4.90019-23.3008-2.66585-25.5035 0.0707894-25.4839 2.80743-25.4644 5.01008-23.23 4.99053-20.4934 4.97118-17.7843 2.77983-15.593 0.0707893-15.5737" stroke="#666666" stroke-width="0.707894" stroke-linejoin="round" stroke-dasharray="2.12368 1.41579" fill="none" transform="matrix(-0.499794 0.867099 -0.865668 -0.50062 293.655 165.853)"/><text fill="#999999" font-family="Arial,Arial_MSFontService,sans-serif" font-weight="700" font-size="8" transform="matrix(0.707602 0 0 0.708772 299.316 168)">1</text><path d="M0 0 0-4.95322C2.73558-4.95237 4.95252-2.73405 4.95167 0.00154066 4.9514 0.870492 4.72254 1.72408 4.28807 2.47661" stroke="#999999" stroke-width="0.707602" stroke-linejoin="round" fill="none" transform="matrix(1 0 0 1.00165 293.655 165.853)"/><path d="M-2.12368-0.707894 0 0-1.41579 1.41579C-0.943856 0.47193-1.17983-0.235964-2.12368-0.707894" stroke="#999999" stroke-width="0.707894" stroke-linejoin="round" fill="none" transform="matrix(-0.499794 0.867099 -0.865668 -0.50062 297.901 167.979)"/><text fill="#CC0000" font-family="Arial,Arial_MSFontService,sans-serif" font-weight="700" font-size="8" transform="matrix(0.707602 0 0 0.708772 286.579 176)">2</text><path d="M4.28807 2.47661 6.12784 3.53801C4.17367 6.92233-0.154012 8.08167-3.53832 6.12752-4.61377 5.50654-5.50685 4.61346-6.12784 3.53801" stroke="#CC0000" stroke-width="0.707602" stroke-linejoin="round" fill="none" transform="matrix(1 0 0 1.00165 293.655 165.853)"/><path d="M-2.12368-0.707894 0 0-1.41579 1.41579C-0.943856 0.47193-1.17983-0.235964-2.12368-0.707894" stroke="#CC0000" stroke-width="0.707894" stroke-linejoin="round" fill="none" transform="matrix(-0.499794 -0.867099 0.865668 -0.50062 287.287 169.396)"/><text fill="#009900" font-family="Arial,Arial_MSFontService,sans-serif" font-weight="700" font-size="8" transform="matrix(0.707602 0 0 0.708772 288.702 157)">3</text><path d="M-6.12784 3.53801-7.9676 4.59942C-10.5078 0.199683-9.00035-5.42623-4.6006-7.9664-3.20185-8.77399-1.61513-9.19904-3.11774e-07-9.19883" stroke="#009900" stroke-width="0.707602" stroke-linejoin="round" fill="none" transform="matrix(1 0 0 1.00165 293.655 165.853)"/><path d="M-2.12281-0.707602 0 0-1.4152 1.4152C-0.943467 0.471735-1.17934-0.235867-2.12281-0.707602" stroke="#009900" stroke-width="0.707602" stroke-linejoin="round" fill="none" transform="matrix(1 -2.45334e-16 2.44929e-16 1.00165 293.655 156.639)"/><text fill="#0000FF" font-family="Arial,Arial_MSFontService,sans-serif" font-weight="700" font-size="8" transform="matrix(0.707602 0 0 0.708772 305.684 171)">4</text><path d="M0-9.19883 0-11.3216C6.25277-11.3231 11.3228-6.25531 11.3242-0.00254325 11.3246 1.98568 10.8015 3.93897 9.80737 5.66082" stroke="#0000FF" stroke-width="0.707602" stroke-linejoin="round" fill="none" transform="matrix(1 0 0 1.00165 293.655 165.853)"/><path d="M-2.12368-0.707894 0 0-1.41579 1.41579C-0.943856 0.47193-1.17983-0.235964-2.12368-0.707894" stroke="#0000FF" stroke-width="0.707894" stroke-linejoin="round" fill="none" transform="matrix(-0.499794 0.867099 -0.865668 -0.50062 303.561 171.523)"/><text font-family="Arial,Arial_MSFontService,sans-serif" font-weight="700" font-size="8" transform="matrix(0.707602 0 0 0.708772 302.146 179)">c</text><path d="M9.80737 5.66082 11.0315 6.36842C9.53409 8.96023 7.17162 10.9419 4.35883 11.9656" stroke="#000000" stroke-width="0.707602" stroke-linejoin="round" fill="none" transform="matrix(1 0 0 1.00165 293.655 165.853)"/><path d="M-2.12322-0.707739 0 0-1.41548 1.41548C-0.94365 0.471827-1.17957-0.235913-2.12322-0.707739" stroke="#000000" stroke-width="0.70774" stroke-linejoin="round" fill="none" transform="matrix(-0.939511 0.342519 -0.341954 -0.941064 297.901 177.902)"/><path d="M0 0 0-15.5779C-2.73738-15.5974-4.94063-17.8324-4.92107-20.5697-4.90152-23.3071-2.66657-25.5104 0.0708086-25.4908 2.80819-25.4713 5.01143-23.2363 4.99188-20.4989 4.97253-17.7892 2.78058-15.5972 0.0708085-15.5779" stroke="#000000" stroke-width="0.708086" stroke-linejoin="round" fill="none" transform="matrix(0.765521 -0.643411 0.642349 0.766786 350.263 165.853)"/><text font-family="Arial,Arial_MSFontService,sans-serif" font-weight="400" font-size="16" transform="matrix(0.707602 0 0 0.708772 330.804 200)">output </text><text font-family="Arial,Arial_MSFontService,sans-serif" font-weight="400" font-size="16" transform="matrix(0.707602 0 0 0.708772 363.354 200)">8</text><path d="M0 0 0-15.5703C-2.73604-15.5898-4.93821-17.8236-4.91866-20.5597-4.89912-23.2957-2.66527-25.4979 0.070774-25.4783 2.80682-25.4588 5.00898-23.225 4.98944-20.4889 4.97009-17.7805 2.77922-15.5896 0.0707739-15.5703" stroke="#666666" stroke-width="0.70774" stroke-linejoin="round" stroke-dasharray="2.12322 1.41548" fill="none" transform="matrix(-0.939511 0.342519 -0.341954 -0.941064 350.263 165.853)"/><text fill="#999999" font-family="Arial,Arial_MSFontService,sans-serif" font-weight="700" font-size="8" transform="matrix(0.707602 0 0 0.708772 353.801 173)">1</text><path d="M0 0 0-4.95322C2.73558-4.95391 4.95378-2.73684 4.95448-0.00125936 4.95501 2.08316 3.65052 3.94488 1.69117 4.65602" stroke="#999999" stroke-width="0.707602" stroke-linejoin="round" fill="none" transform="matrix(1 0 0 1.00165 350.263 165.853)"/><path d="M-2.12322-0.707739 0 0-1.41548 1.41548C-0.94365 0.471827-1.17957-0.235913-2.12322-0.707739" stroke="#999999" stroke-width="0.70774" stroke-linejoin="round" fill="none" transform="matrix(-0.939511 0.342519 -0.341954 -0.941064 351.678 170.814)"/><text fill="#CC0000" font-family="Arial,Arial_MSFontService,sans-serif" font-weight="700" font-size="8" transform="matrix(0.707602 0 0 0.708772 340.357 164)">2</text><path d="M1.69117 4.65602 2.42 6.65146C-1.25103 7.99159-5.31335 6.10199-6.65346 2.43096-7.67522-0.367974-6.83414-3.50708-4.54988-5.42023" stroke="#CC0000" stroke-width="0.707602" stroke-linejoin="round" fill="none" transform="matrix(1 0 0 1.00165 350.263 165.853)"/><path d="M-2.12426-0.708086 0 0-1.41617 1.41617C-0.944112 0.472057-1.18015-0.236028-2.12426-0.708086" stroke="#CC0000" stroke-width="0.708086" stroke-linejoin="round" fill="none" transform="matrix(0.765521 -0.643411 0.642349 0.766786 346.018 160.182)"/><text fill="#009900" font-family="Arial,Arial_MSFontService,sans-serif" font-weight="700" font-size="8" transform="matrix(0.707602 0 0 0.708772 360.17 170)">3</text><path d="M-4.54988-5.42023-5.91556-7.04772C-2.02775-10.318 3.77507-9.81756 7.04543-5.92973 9.53968-2.96452 9.90848 1.24576 7.9676 4.59942" stroke="#009900" stroke-width="0.707602" stroke-linejoin="round" fill="none" transform="matrix(1 0 0 1.00165 350.263 165.853)"/><path d="M-2.12368-0.707894 0 0-1.41579 1.41579C-0.943856 0.47193-1.17983-0.235964-2.12368-0.707894" stroke="#009900" stroke-width="0.707894" stroke-linejoin="round" fill="none" transform="matrix(-0.499794 0.867099 -0.865668 -0.50062 358.047 170.105)"/><text fill="#0000FF" font-family="Arial,Arial_MSFontService,sans-serif" font-weight="700" font-size="8" transform="matrix(0.707602 0 0 0.708772 335.404 169)">4</text><path d="M7.9676 4.59942 9.80737 5.66082C6.68779 11.0798-0.234079 12.9438-5.65306 9.82428-9.78685 7.44454-11.9858 2.72922-11.1518-1.96713" stroke="#0000FF" stroke-width="0.707602" stroke-linejoin="round" fill="none" transform="matrix(1 0 0 1.00165 350.263 165.853)"/><path d="M-2.12291-0.707638 0 0-1.41528 1.41528C-0.943515 0.471759-1.1794-0.235879-2.12291-0.707638" stroke="#0000FF" stroke-width="0.707638" stroke-linejoin="round" fill="none" transform="matrix(0.173639 -0.986386 0.984759 0.173926 338.942 163.726)"/><text font-family="Arial,Arial_MSFontService,sans-serif" font-weight="700" font-size="8" transform="matrix(0.707602 0 0 0.708772 335.404 160)">c</text><path d="M-11.1518-1.96713-12.5458-2.2148C-12.0246-5.16332-10.4814-7.83401-8.18696-9.75784" stroke="#000000" stroke-width="0.707602" stroke-linejoin="round" fill="none" transform="matrix(1 0 0 1.00165 350.263 165.853)"/><path d="M-2.12426-0.708086 0 0-1.41617 1.41617C-0.944112 0.472057-1.18015-0.236028-2.12426-0.708086" stroke="#000000" stroke-width="0.708086" stroke-linejoin="round" fill="none" transform="matrix(0.765521 -0.643411 0.642349 0.766786 341.772 155.93)"/><path d="M0 0 0-15.5737C-2.73664-15.5932-4.93929-17.8275-4.91974-20.5642-4.90019-23.3008-2.66585-25.5035 0.0707894-25.4839 2.80743-25.4644 5.01008-23.23 4.99053-20.4934 4.97118-17.7843 2.77983-15.593 0.0707893-15.5737" stroke="#000000" stroke-width="0.707894" stroke-linejoin="round" fill="none" transform="matrix(-0.499794 -0.867099 0.865668 -0.50062 406.871 165.853)"/><text font-family="Arial,Arial_MSFontService,sans-serif" font-weight="400" font-size="16" transform="matrix(0.707602 0 0 0.708772 387.412 200)">output </text><text font-family="Arial,Arial_MSFontService,sans-serif" font-weight="400" font-size="16" transform="matrix(0.707602 0 0 0.708772 419.962 200)">6</text><path d="M0 0 0-15.5779C-2.73738-15.5974-4.94063-17.8324-4.92107-20.5697-4.90152-23.3071-2.66657-25.5104 0.0708086-25.4908 2.80819-25.4713 5.01143-23.2363 4.99188-20.4989 4.97253-17.7892 2.78058-15.5972 0.0708085-15.5779" stroke="#666666" stroke-width="0.708086" stroke-linejoin="round" stroke-dasharray="2.12426 1.41617" fill="none" transform="matrix(0.765521 -0.643411 0.642349 0.766786 406.871 165.853)"/><text fill="#999999" font-family="Arial,Arial_MSFontService,sans-serif" font-weight="700" font-size="8" transform="matrix(0.707602 0 0 0.708772 398.38 165)">1</text><path d="M0 0 0-4.95322C2.73558-4.9541 4.95393-2.73719 4.95482-0.00160406 4.95571 2.73398 2.7388 4.95233 0.00320744 4.95322-2.73238 4.9541-4.95073 2.73719-4.95161 0.00160339-4.95208-1.4622-4.30507-2.85126-3.18421-3.79275" stroke="#999999" stroke-width="0.707602" stroke-linejoin="round" fill="none" transform="matrix(1 0 0 1.00165 406.871 165.853)"/><path d="M-2.12426-0.708086 0 0-1.41617 1.41617C-0.944112 0.472057-1.18015-0.236028-2.12426-0.708086" stroke="#999999" stroke-width="0.708086" stroke-linejoin="round" fill="none" transform="matrix(0.765521 -0.643411 0.642349 0.766786 404.041 162.309)"/><text fill="#CC0000" font-family="Arial,Arial_MSFontService,sans-serif" font-weight="700" font-size="8" transform="matrix(0.707602 0 0 0.708772 396.257 170)">2</text><path d="M-3.18421-3.79275-4.54988-5.42023C-1.556-7.93201 2.90721-7.5412 5.41898-4.54731 7.93074-1.55343 7.53993 2.90979 4.54605 5.42156 1.55217 7.93335-2.91104 7.54247-5.42281 4.54863-6.76776 2.94554-7.33416 0.829367-6.96988-1.23123" stroke="#CC0000" stroke-width="0.707602" stroke-linejoin="round" fill="none" transform="matrix(1 0 0 1.00165 406.871 165.853)"/><path d="M-2.12291-0.707638 0 0-1.41528 1.41528C-0.943515 0.471759-1.1794-0.235879-2.12291-0.707638" stroke="#CC0000" stroke-width="0.707638" stroke-linejoin="round" fill="none" transform="matrix(0.173639 -0.986386 0.984759 0.173926 399.795 164.435)"/><text fill="#009900" font-family="Arial,Arial_MSFontService,sans-serif" font-weight="700" font-size="8" transform="matrix(0.707602 0 0 0.708772 397.673 176)">3</text><path d="M-6.96988-1.23123-9.05731-1.59918C-8.17217-6.60185-3.39917-9.93976 1.6035-9.05462 6.60618-8.16955 9.94408-3.39651 9.05901 1.60616 8.17387 6.60884 3.40084 9.94677-1.60184 9.06163-4.27889 8.58796-6.60932 6.95441-7.9676 4.59942" stroke="#009900" stroke-width="0.707602" stroke-linejoin="round" fill="none" transform="matrix(1 0 0 1.00165 406.871 165.853)"/><path d="M-2.12368-0.707894 0 0-1.41579 1.41579C-0.943856 0.47193-1.17983-0.235964-2.12368-0.707894" stroke="#009900" stroke-width="0.707894" stroke-linejoin="round" fill="none" transform="matrix(-0.499794 -0.867099 0.865668 -0.50062 399.088 170.814)"/><text fill="#0000FF" font-family="Arial,Arial_MSFontService,sans-serif" font-weight="700" font-size="8" transform="matrix(0.707602 0 0 0.708772 404.749 181)">4</text><path d="M-7.9676 4.59942-9.80737 5.66082C-12.9324 0.244973-11.0753-6.67876-5.65945-9.80376-0.243609-12.9288 6.68013-11.0717 9.80517-5.65587 12.9302-0.240019 11.0731 6.68371 5.65723 9.80871 2.76032 11.4803-0.727422 11.7854-3.87058 10.6423" stroke="#0000FF" stroke-width="0.707602" stroke-linejoin="round" fill="none" transform="matrix(1 0 0 1.00165 406.871 165.853)"/><path d="M-2.12322-0.707739 0 0-1.41548 1.41548C-0.94365 0.471827-1.17957-0.235913-2.12322-0.707739" stroke="#0000FF" stroke-width="0.70774" stroke-linejoin="round" fill="none" transform="matrix(-0.939511 -0.342519 0.341954 -0.941064 403.333 176.484)"/><text font-family="Arial,Arial_MSFontService,sans-serif" font-weight="700" font-size="8" transform="matrix(0.707602 0 0 0.708772 395.55 179)">c</text><path d="M-3.87058 10.6423-4.35883 11.9656C-7.17162 10.9419-9.53409 8.96023-11.0315 6.36842" stroke="#000000" stroke-width="0.707602" stroke-linejoin="round" fill="none" transform="matrix(1 0 0 1.00165 406.871 165.853)"/><path d="M-2.12368-0.707894 0 0-1.41579 1.41579C-0.943856 0.47193-1.17983-0.235964-2.12368-0.707894" stroke="#000000" stroke-width="0.707894" stroke-linejoin="round" fill="none" transform="matrix(-0.499794 -0.867099 0.865668 -0.50062 395.55 172.232)"/><path d="M0 0 0-15.568C-2.73565-15.5876-4.9375-17.8211-4.91795-20.5567-4.89842-23.2924-2.66489-25.4943 0.0707638-25.4747 2.80641-25.4551 5.00826-23.2216 4.98872-20.486 4.96938-17.7779 2.77882-15.5873 0.0707637-15.568" stroke="#000000" stroke-width="0.707638" stroke-linejoin="round" fill="none" transform="matrix(0.173639 -0.986386 0.984759 0.173926 463.48 165.853)"/><text font-family="Arial,Arial_MSFontService,sans-serif" font-weight="400" font-size="16" transform="matrix(0.707602 0 0 0.708772 444.02 200)">output </text><text font-family="Arial,Arial_MSFontService,sans-serif" font-weight="400" font-size="16" transform="matrix(0.707602 0 0 0.708772 476.57 200)">7</text><path d="M0 0 0-15.5737C-2.73664-15.5932-4.93929-17.8275-4.91974-20.5642-4.90019-23.3008-2.66585-25.5035 0.0707894-25.4839 2.80743-25.4644 5.01008-23.23 4.99053-20.4934 4.97118-17.7843 2.77983-15.593 0.0707893-15.5737" stroke="#666666" stroke-width="0.707894" stroke-linejoin="round" stroke-dasharray="2.12368 1.41579" fill="none" transform="matrix(-0.499794 -0.867099 0.865668 -0.50062 463.48 165.853)"/><text fill="#999999" font-family="Arial,Arial_MSFontService,sans-serif" font-weight="700" font-size="8" transform="matrix(0.707602 0 0 0.708772 457.819 174)">1</text><path d="M0 0 0-4.95322C2.73558-4.95407 4.9539-2.73713 4.95476-0.00154114 4.95561 2.73405 2.73867 4.95237 0.00308176 4.95322-1.76708 4.95377-3.40299 4.00961-4.28807 2.47661" stroke="#999999" stroke-width="0.707602" stroke-linejoin="round" fill="none" transform="matrix(1 0 0 1.00165 463.48 165.853)"/><path d="M-2.12368-0.707894 0 0-1.41579 1.41579C-0.943856 0.47193-1.17983-0.235964-2.12368-0.707894" stroke="#999999" stroke-width="0.707894" stroke-linejoin="round" fill="none" transform="matrix(-0.499794 -0.867099 0.865668 -0.50062 459.234 168.688)"/><text fill="#CC0000" font-family="Arial,Arial_MSFontService,sans-serif" font-weight="700" font-size="8" transform="matrix(0.707602 0 0 0.708772 471.263 169)">2</text><path d="M-4.28807 2.47661-6.12784 3.53801C-8.08202 0.153701-6.92264-4.17398-3.53832-6.12815-0.154012-8.0823 4.17367-6.92295 6.12784-3.53863 7.39211-1.34915 7.39211 1.34853 6.12784 3.53801" stroke="#CC0000" stroke-width="0.707602" stroke-linejoin="round" fill="none" transform="matrix(1 0 0 1.00165 463.48 165.853)"/><path d="M-2.12368-0.707894 0 0-1.41579 1.41579C-0.943856 0.47193-1.17983-0.235964-2.12368-0.707894" stroke="#CC0000" stroke-width="0.707894" stroke-linejoin="round" fill="none" transform="matrix(-0.499794 0.867099 -0.865668 -0.50062 469.848 169.396)"/><text fill="#009900" font-family="Arial,Arial_MSFontService,sans-serif" font-weight="700" font-size="8" transform="matrix(0.707602 0 0 0.708772 458.526 157)">3</text><path d="M6.12784 3.53801 7.9676 4.59942C5.42742 8.99914-0.198501 10.5066-4.59823 7.9664-8.99794 5.42623-10.5054-0.199683-7.96527-4.59942-6.32224-7.44518-3.28601-9.19841-6.14638e-08-9.19883" stroke="#009900" stroke-width="0.707602" stroke-linejoin="round" fill="none" transform="matrix(1 0 0 1.00165 463.48 165.853)"/><path d="M-2.12281-0.707602 0 0-1.4152 1.4152C-0.943467 0.471735-1.17934-0.235867-2.12281-0.707602" stroke="#009900" stroke-width="0.707602" stroke-linejoin="round" fill="none" transform="matrix(1 -4.90669e-16 4.89859e-16 1.00165 463.48 156.639)"/><text fill="#0000FF" font-family="Arial,Arial_MSFontService,sans-serif" font-weight="700" font-size="8" transform="matrix(0.707602 0 0 0.708772 452.866 178)">4</text><path d="M0-9.19883 0-11.3216C6.25277-11.3202 11.3205-6.25022 11.3191 0.00254268 11.3177 6.25531 6.24768 11.3231-0.00508608 11.3216-4.04901 11.3207-7.78539 9.16295-9.80737 5.66082" stroke="#0000FF" stroke-width="0.707602" stroke-linejoin="round" fill="none" transform="matrix(1 0 0 1.00165 463.48 165.853)"/><path d="M-2.12368-0.707894 0 0-1.41579 1.41579C-0.943856 0.47193-1.17983-0.235964-2.12368-0.707894" stroke="#0000FF" stroke-width="0.707894" stroke-linejoin="round" fill="none" transform="matrix(-0.499794 -0.867099 0.865668 -0.50062 453.573 171.523)"/><text font-family="Arial,Arial_MSFontService,sans-serif" font-weight="700" font-size="8" transform="matrix(0.707602 0 0 0.708772 447.205 170)">c</text><path d="M-9.80737 5.66082-11.0315 6.36842C-12.5299 3.77445-13.0661 0.735326-12.5458-2.2148" stroke="#000000" stroke-width="0.707602" stroke-linejoin="round" fill="none" transform="matrix(1 0 0 1.00165 463.48 165.853)"/><path d="M-2.12291-0.707638 0 0-1.41528 1.41528C-0.943515 0.471759-1.1794-0.235879-2.12291-0.707638" stroke="#000000" stroke-width="0.707638" stroke-linejoin="round" fill="none" transform="matrix(0.173639 -0.986386 0.984759 0.173926 450.743 163.726)"/><path d="M0 0 0-15.568C-2.73565-15.5876-4.9375-17.8211-4.91795-20.5567-4.89842-23.2924-2.66489-25.4943 0.0707638-25.4747 2.80641-25.4551 5.00826-23.2216 4.98872-20.486 4.96938-17.7779 2.77882-15.5873 0.0707637-15.568" stroke="#000000" stroke-width="0.707638" stroke-linejoin="round" fill="none" transform="matrix(0.173639 0.986386 -0.984759 0.173926 520.088 165.853)"/><text font-family="Arial,Arial_MSFontService,sans-serif" font-weight="400" font-size="16" transform="matrix(0.707602 0 0 0.708772 500.629 200)">output </text><text font-family="Arial,Arial_MSFontService,sans-serif" font-weight="400" font-size="16" transform="matrix(0.707602 0 0 0.708772 533.178 200)">2</text><path d="M0 0 0-15.568C-2.73565-15.5876-4.9375-17.8211-4.91795-20.5567-4.89842-23.2924-2.66489-25.4943 0.0707638-25.4747 2.80641-25.4551 5.00826-23.2216 4.98872-20.486 4.96938-17.7779 2.77882-15.5873 0.0707637-15.568" stroke="#666666" stroke-width="0.707638" stroke-linejoin="round" stroke-dasharray="2.12291 1.41528" fill="none" transform="matrix(0.173639 -0.986386 0.984759 0.173926 520.088 165.853)"/><text fill="#999999" font-family="Arial,Arial_MSFontService,sans-serif" font-weight="700" font-size="8" transform="matrix(0.707602 0 0 0.708772 511.596 170)">1</text><path d="M0 0 0-4.95322C2.73558-4.95433 4.95412-2.73761 4.95525-0.00202839 4.95637 2.73356 2.73964 4.9521 0.00405589 4.95322-2.73153 4.95433-4.95007 2.73761-4.95119 0.00202771-4.95131-0.28807-4.92594-0.577617-4.87538-0.863275" stroke="#999999" stroke-width="0.707602" stroke-linejoin="round" fill="none" transform="matrix(1 0 0 1.00165 520.088 165.853)"/><path d="M-2.12291-0.707638 0 0-1.41528 1.41528C-0.943515 0.471759-1.1794-0.235879-2.12291-0.707638" stroke="#999999" stroke-width="0.707638" stroke-linejoin="round" fill="none" transform="matrix(0.173639 -0.986386 0.984759 0.173926 515.135 165.144)"/><text fill="#CC0000" font-family="Arial,Arial_MSFontService,sans-serif" font-weight="700" font-size="8" transform="matrix(0.707602 0 0 0.708772 518.672 177)">2</text><path d="M-4.87538-0.863275-6.96988-1.23123C-6.28913-5.07946-2.61767-7.6472 1.23056-6.96646 5.07879-6.28571 7.64656-2.61424 6.96579 1.23399 6.28504 5.08222 2.61358 7.64996-1.23465 6.96922-1.63823 6.89783-2.03483 6.79151-2.42 6.65146" stroke="#CC0000" stroke-width="0.707602" stroke-linejoin="round" fill="none" transform="matrix(1 0 0 1.00165 520.088 165.853)"/><path d="M-2.12322-0.707739 0 0-1.41548 1.41548C-0.94365 0.471827-1.17957-0.235913-2.12322-0.707739" stroke="#CC0000" stroke-width="0.70774" stroke-linejoin="round" fill="none" transform="matrix(-0.939511 -0.342519 0.341954 -0.941064 517.965 172.232)"/><text fill="#009900" font-family="Arial,Arial_MSFontService,sans-serif" font-weight="700" font-size="8" transform="matrix(0.707602 0 0 0.708772 529.994 170)">3</text><path d="M-2.42 6.65146-3.14883 8.6469C-7.92246 6.90831-10.3829 1.62911-8.64421-3.14451-6.90565-7.91814-1.62646-10.3785 3.14717-8.6399 7.92076-6.90133 10.3812-1.62214 8.64258 3.15148 8.46002 3.65279 8.23416 4.13726 7.9676 4.59942" stroke="#009900" stroke-width="0.707602" stroke-linejoin="round" fill="none" transform="matrix(1 0 0 1.00165 520.088 165.853)"/><path d="M-2.12368-0.707894 0 0-1.41579 1.41579C-0.943856 0.47193-1.17983-0.235964-2.12368-0.707894" stroke="#009900" stroke-width="0.707894" stroke-linejoin="round" fill="none" transform="matrix(-0.499794 0.867099 -0.865668 -0.50062 527.871 170.814)"/><text fill="#0000FF" font-family="Arial,Arial_MSFontService,sans-serif" font-weight="700" font-size="8" transform="matrix(0.707602 0 0 0.708772 524.333 155)">4</text><path d="M7.9676 4.59942 9.80737 5.66082C6.68193 11.0765-0.241953 12.933-5.65756 9.80751-11.0731 6.68208-12.9297-0.241801-9.80425-5.6574-6.67882-11.073 0.245065-12.9295 5.66066-9.80411 6.23026-9.47536 6.77013-9.09764 7.27415-8.6752" stroke="#0000FF" stroke-width="0.707602" stroke-linejoin="round" fill="none" transform="matrix(1 0 0 1.00165 520.088 165.853)"/><path d="M-2.12426-0.708086 0 0-1.41617 1.41617C-0.944112 0.472057-1.18015-0.236028-2.12426-0.708086" stroke="#0000FF" stroke-width="0.708086" stroke-linejoin="round" fill="none" transform="matrix(0.765521 0.643411 -0.642349 0.766786 527.164 157.347)"/><text font-family="Arial,Arial_MSFontService,sans-serif" font-weight="700" font-size="8" transform="matrix(0.707602 0 0 0.708772 532.117 160)">c</text><path d="M7.27415-8.6752 8.18696-9.75784C10.4814-7.83401 12.0246-5.16332 12.5458-2.2148" stroke="#000000" stroke-width="0.707602" stroke-linejoin="round" fill="none" transform="matrix(1 0 0 1.00165 520.088 165.853)"/><path d="M-2.12291-0.707638 0 0-1.41528 1.41528C-0.943515 0.471759-1.1794-0.235879-2.12291-0.707638" stroke="#000000" stroke-width="0.707638" stroke-linejoin="round" fill="none" transform="matrix(0.173639 0.986386 -0.984759 0.173926 532.825 163.726)"/><path d="M0 0 0-15.5673C-2.73551-15.5868-4.93725-17.8202-4.91771-20.5557-4.89817-23.2912-2.66475-25.493 0.0707602-25.4734 2.80627-25.4539 5.00801-23.2205 4.98847-20.4849 4.96913-17.777 2.77868-15.5866 0.0707602-15.5673" stroke="#000000" stroke-width="0.707602" stroke-linejoin="round" fill="none" transform="matrix(1 0 0 1.00165 576.696 165.853)"/><text font-family="Arial,Arial_MSFontService,sans-serif" font-weight="400" font-size="16" transform="matrix(0.707602 0 0 0.708772 557.237 200)">output </text><text font-family="Arial,Arial_MSFontService,sans-serif" font-weight="400" font-size="16" transform="matrix(0.707602 0 0 0.708772 589.787 200)">0</text><path d="M0 0 0-15.568C-2.73565-15.5876-4.9375-17.8211-4.91795-20.5567-4.89842-23.2924-2.66489-25.4943 0.0707638-25.4747 2.80641-25.4551 5.00826-23.2216 4.98872-20.486 4.96938-17.7779 2.77882-15.5873 0.0707637-15.568" stroke="#666666" stroke-width="0.707638" stroke-linejoin="round" stroke-dasharray="2.12291 1.41528" fill="none" transform="matrix(0.173639 0.986386 -0.984759 0.173926 576.696 165.853)"/><text fill="#999999" font-family="Arial,Arial_MSFontService,sans-serif" font-weight="700" font-size="8" transform="matrix(0.707602 0 0 0.708772 580.942 164)">1</text><path d="M0 0 0-4.95322C2.40179-4.95223 4.45678-3.2283 4.87538-0.863275" stroke="#999999" stroke-width="0.707602" stroke-linejoin="round" fill="none" transform="matrix(1 0 0 1.00165 576.696 165.853)"/><path d="M-2.12291-0.707638 0 0-1.41528 1.41528C-0.943515 0.471759-1.1794-0.235879-2.12291-0.707638" stroke="#999999" stroke-width="0.707638" stroke-linejoin="round" fill="none" transform="matrix(0.173639 0.986386 -0.984759 0.173926 581.649 165.144)"/><text fill="#CC0000" font-family="Arial,Arial_MSFontService,sans-serif" font-weight="700" font-size="8" transform="matrix(0.707602 0 0 0.708772 581.649 175)">2</text><path d="M4.87538-0.863275 6.96988-1.23123C7.56844 2.15255 5.64946 5.47724 2.42 6.65146" stroke="#CC0000" stroke-width="0.707602" stroke-linejoin="round" fill="none" transform="matrix(1 0 0 1.00165 576.696 165.853)"/><path d="M-2.12322-0.707739 0 0-1.41548 1.41548C-0.94365 0.471827-1.17957-0.235913-2.12322-0.707739" stroke="#CC0000" stroke-width="0.70774" stroke-linejoin="round" fill="none" transform="matrix(-0.939511 0.342519 -0.341954 -0.941064 578.819 172.232)"/><text fill="#009900" font-family="Arial,Arial_MSFontService,sans-serif" font-weight="700" font-size="8" transform="matrix(0.707602 0 0 0.708772 567.497 176)">3</text><path d="M2.42 6.65146 3.14883 8.6469C-1.04787 10.1754-5.73611 8.46837-7.9676 4.59942" stroke="#009900" stroke-width="0.707602" stroke-linejoin="round" fill="none" transform="matrix(1 0 0 1.00165 576.696 165.853)"/><path d="M-2.12368-0.707894 0 0-1.41579 1.41579C-0.943856 0.47193-1.17983-0.235964-2.12368-0.707894" stroke="#009900" stroke-width="0.707894" stroke-linejoin="round" fill="none" transform="matrix(-0.499794 -0.867099 0.865668 -0.50062 568.912 170.814)"/><text fill="#0000FF" font-family="Arial,Arial_MSFontService,sans-serif" font-weight="700" font-size="8" transform="matrix(0.707602 0 0 0.708772 563.959 160)">4</text><path d="M-7.9676 4.59942-9.80737 5.66082C-12.5545 0.900714-11.4862-5.14481-7.27415-8.6752" stroke="#0000FF" stroke-width="0.707602" stroke-linejoin="round" fill="none" transform="matrix(1 0 0 1.00165 576.696 165.853)"/><path d="M-2.12426-0.708086 0 0-1.41617 1.41617C-0.944112 0.472057-1.18015-0.236028-2.12426-0.708086" stroke="#0000FF" stroke-width="0.708086" stroke-linejoin="round" fill="none" transform="matrix(0.765521 -0.643411 0.642349 0.766786 569.62 157.347)"/><text font-family="Arial,Arial_MSFontService,sans-serif" font-weight="700" font-size="8" transform="matrix(0.707602 0 0 0.708772 570.328 154)">c</text><path d="M-7.27415-8.6752-8.18696-9.75784C-5.89298-11.6823-2.99432-12.7371 2.15943e-07-12.7368" stroke="#000000" stroke-width="0.707602" stroke-linejoin="round" fill="none" transform="matrix(1 0 0 1.00165 576.696 165.853)"/><path d="M-2.12281-0.707602 0 0-1.4152 1.4152C-0.943467 0.471735-1.17934-0.235867-2.12281-0.707602" stroke="#000000" stroke-width="0.707602" stroke-linejoin="round" fill="none" transform="matrix(1 -2.45334e-16 2.44929e-16 1.00165 576.696 153.095)"/><text font-family="Arial,Arial_MSFontService,sans-serif" font-style="italic" font-weight="400" font-size="16" transform="matrix(0.707602 0 0 0.708772 5.66082 159)">m</text><text font-family="Arial,Arial_MSFontService,sans-serif" font-weight="400" font-size="16" transform="matrix(0.707602 0 0 0.708772 20.5205 159)">= </text><text font-family="Arial,Arial_MSFontService,sans-serif" font-weight="400" font-size="16" transform="matrix(0.707602 0 0 0.708772 29.7193 159)">9</text><text font-family="Arial,Arial_MSFontService,sans-serif" font-style="italic" font-weight="400" font-size="16" transform="matrix(0.707602 0 0 0.708772 7.42982 173)">a</text><text font-family="Arial,Arial_MSFontService,sans-serif" font-weight="400" font-size="16" transform="matrix(0.707602 0 0 0.708772 20.5205 173)">= </text><text font-family="Arial,Arial_MSFontService,sans-serif" font-weight="400" font-size="16" transform="matrix(0.707602 0 0 0.708772 29.7193 173)">4</text><text font-family="Arial,Arial_MSFontService,sans-serif" font-style="italic" font-weight="400" font-size="16" transform="matrix(0.707602 0 0 0.708772 7.78363 187)">c</text><text font-family="Arial,Arial_MSFontService,sans-serif" font-weight="400" font-size="16" transform="matrix(0.707602 0 0 0.708772 20.5205 187)">= </text><text font-family="Arial,Arial_MSFontService,sans-serif" font-weight="400" font-size="16" transform="matrix(0.707602 0 0 0.708772 29.7193 187)">1</text><path d="M-60.1462 41.0409 530.702 41.0409" stroke="#CCCCCC" stroke-width="0.707602" stroke-linejoin="round" fill="none" transform="matrix(1 0 0 1.00165 67.2222 165.853)"/></g></svg>