<?xml version="1.0" encoding="UTF-8" standalone="no"?>
<!DOCTYPE svg PUBLIC "-//W3C//DTD SVG 1.1//EN" "http://www.w3.org/Graphics/SVG/1.1/DTD/svg11.dtd">
<svg width="100%" height="100%" viewBox="0 0 1563 987" version="1.1" xmlns="http://www.w3.org/2000/svg" xmlns:xlink="http://www.w3.org/1999/xlink" xml:space="preserve" xmlns:serif="http://www.serif.com/" style="fill-rule:evenodd;clip-rule:evenodd;stroke-linecap:round;stroke-linejoin:round;stroke-miterlimit:1.5;">
    <g transform="matrix(1,0,0,1,-664.152,-47.6922)">
        <g transform="matrix(1.19632,0,0,1.19632,-365.791,-382.279)">
            <path d="M865.788,825.844L2118,825.844" style="fill:none;stroke:black;stroke-width:9.72px;"/>
        </g>
        <g transform="matrix(0.90819,0,0,0.90819,244.464,-144.331)">
            <path d="M2118,825.844L2071.58,779.422" style="fill:none;stroke:black;stroke-width:12.81px;"/>
        </g>
        <g transform="matrix(0.90819,0,0,0.90819,244.464,-144.331)">
            <path d="M2118,825.844L2069.92,873.922" style="fill:none;stroke:black;stroke-width:12.81px;"/>
        </g>
        <g transform="matrix(0.756766,0,0,0.90819,380.516,-144.331)">
            <path d="M898.488,827.791C947.034,671.272 1081.01,481.161 1269.36,525.746C1293.08,531.36 1315.86,540.725 1337.05,552.711C1443.86,613.127 1507.76,720.694 1563.69,824.941" style="fill:rgb(128,128,128);fill-opacity:0;stroke:rgb(232,99,43);stroke-width:13.91px;"/>
        </g>
        <g transform="matrix(0.756766,0,0,0.90819,884.847,-144.331)">
            <path d="M898.488,827.791C947.034,671.272 1081.01,481.161 1269.36,525.746C1293.08,531.36 1315.86,540.725 1337.05,552.711C1443.86,613.127 1507.76,720.694 1563.69,824.941" style="fill:none;stroke:rgb(232,99,43);stroke-opacity:0.36;stroke-width:13.91px;"/>
        </g>
        <g transform="matrix(-0.756766,-9.26772e-17,1.11221e-16,-0.90819,2478.06,1357.52)">
            <path d="M898.488,827.791C947.034,671.272 1081.01,481.161 1269.36,525.746C1293.08,531.36 1315.86,540.725 1337.05,552.711C1443.86,613.127 1507.76,720.694 1563.69,824.941" style="fill:none;stroke:rgb(44,43,232);stroke-opacity:0.36;stroke-width:13.91px;"/>
        </g>
        <g transform="matrix(-0.756766,-9.26772e-17,1.11221e-16,-0.90819,1973.73,1357.52)">
            <path d="M898.488,827.791C947.034,671.272 1081.01,481.161 1269.36,525.746C1293.08,531.36 1315.86,540.725 1337.05,552.711C1443.86,613.127 1507.76,720.694 1563.69,824.941" style="fill:rgb(128,128,128);fill-opacity:0;stroke:rgb(44,43,232);stroke-width:13.91px;"/>
        </g>
        <g transform="matrix(1.46822,0,0,1.46822,32.4547,-435.478)">
            <path d="M764.602,528.795L753.946,528.795L726.589,461.408L737.964,461.408L759.418,518.14L759.706,518.14L781.16,461.408L791.96,461.408L764.602,528.795Z" style="fill:rgb(222,104,40);fill-rule:nonzero;stroke:rgb(255,91,0);stroke-width:0.68px;stroke-linecap:butt;stroke-miterlimit:2;"/>
        </g>
        <g transform="matrix(1.42676,0,0,1.42676,-716.623,-702.919)">
            <path d="M1845.19,1004.51C1843.75,1001.72 1841.83,999.517 1839.43,997.885C1837.03,996.253 1834.1,995.437 1830.65,995.437C1829.01,995.437 1827.36,995.629 1825.68,996.013C1824,996.397 1822.49,996.997 1821.14,997.813C1819.8,998.629 1818.72,999.661 1817.9,1000.91C1817.09,1002.16 1816.68,1003.69 1816.68,1005.52C1816.68,1008.68 1817.78,1010.99 1819.99,1012.43C1822.2,1013.87 1825.51,1015.12 1829.93,1016.17L1839.57,1018.48C1844.28,1019.53 1848.19,1021.67 1851.31,1024.88C1854.43,1028.1 1855.99,1032.11 1855.99,1036.91C1855.99,1040.55 1855.24,1043.7 1853.76,1046.34C1852.27,1048.98 1850.3,1051.14 1847.85,1052.82C1845.4,1054.5 1842.6,1055.72 1839.43,1056.49C1836.26,1057.26 1833.05,1057.64 1829.78,1057.64C1824.6,1057.64 1819.78,1056.66 1815.31,1054.69C1810.85,1052.72 1807.03,1049.34 1803.86,1044.54L1812.07,1038.92C1813.99,1041.99 1816.41,1044.44 1819.34,1046.27C1822.27,1048.09 1825.75,1049 1829.78,1049C1831.7,1049 1833.62,1048.79 1835.54,1048.35C1837.46,1047.92 1839.16,1047.25 1840.65,1046.34C1842.14,1045.42 1843.34,1044.25 1844.25,1042.81C1845.16,1041.37 1845.62,1039.69 1845.62,1037.77C1845.62,1034.41 1844.37,1031.99 1841.88,1030.5C1839.38,1029.01 1836.36,1027.83 1832.81,1026.97L1823.59,1024.81C1822.44,1024.52 1820.88,1024.04 1818.91,1023.37C1816.94,1022.7 1815.02,1021.69 1813.15,1020.35C1811.28,1019 1809.67,1017.25 1808.33,1015.09C1806.98,1012.93 1806.31,1010.27 1806.31,1007.1C1806.31,1003.64 1807.01,1000.62 1808.4,998.029C1809.79,995.437 1811.66,993.325 1814.02,991.693C1816.37,990.061 1819.03,988.837 1822.01,988.021C1824.98,987.205 1828.05,986.797 1831.22,986.797C1835.93,986.797 1840.29,987.709 1844.33,989.533C1848.36,991.357 1851.48,994.477 1853.68,998.893L1845.19,1004.51Z" style="fill:rgb(40,60,222);fill-rule:nonzero;stroke:rgb(0,27,255);stroke-width:0.7px;stroke-linecap:butt;stroke-miterlimit:2;"/>
        </g>
        <g transform="matrix(1.11633,0,0,1.11633,-233.008,-334.964)">
            <path d="M2058.14,929.359L2046.06,929.359L2046.06,954.057C2046.06,955.608 2046.21,956.876 2046.51,957.86C2046.8,958.845 2047.22,959.605 2047.76,960.142C2048.3,960.679 2048.94,961.052 2049.68,961.261C2050.43,961.47 2051.25,961.574 2052.14,961.574C2053.16,961.574 2054.2,961.425 2055.28,961.127C2056.35,960.828 2057.33,960.441 2058.23,959.963L2058.5,965.422C2056.29,966.436 2053.63,966.943 2050.53,966.943C2049.4,966.943 2048.22,966.794 2047,966.496C2045.77,966.198 2044.66,965.631 2043.64,964.796C2042.63,963.96 2041.79,962.827 2041.14,961.395C2040.48,959.963 2040.15,958.084 2040.15,955.757L2040.15,929.359L2031.29,929.359L2031.29,923.99L2040.15,923.99L2040.15,912.177L2046.06,912.177L2046.06,923.99L2058.14,923.99L2058.14,929.359Z" style="fill-rule:nonzero;stroke:black;stroke-width:0.9px;stroke-linecap:butt;stroke-miterlimit:2;"/>
            <path d="M2074.78,907.882C2074.78,909.135 2074.34,910.164 2073.44,910.969C2072.55,911.775 2071.56,912.177 2070.49,912.177C2069.41,912.177 2068.43,911.775 2067.53,910.969C2066.64,910.164 2066.19,909.135 2066.19,907.882C2066.19,906.629 2066.64,905.6 2067.53,904.795C2068.43,903.989 2069.41,903.586 2070.49,903.586C2071.56,903.586 2072.55,903.989 2073.44,904.795C2074.34,905.6 2074.78,906.629 2074.78,907.882ZM2073.44,965.869L2067.53,965.869L2067.53,923.99L2073.44,923.99L2073.44,965.869Z" style="fill-rule:nonzero;stroke:black;stroke-width:0.9px;stroke-linecap:butt;stroke-miterlimit:2;"/>
            <path d="M2087.67,933.296C2087.67,931.745 2087.62,930.194 2087.53,928.643C2087.45,927.092 2087.34,925.541 2087.22,923.99L2093.57,923.99L2093.57,930.343L2093.75,930.343C2095.19,927.897 2097.17,926.048 2099.7,924.795C2102.24,923.542 2104.76,922.916 2107.27,922.916C2108.4,922.916 2109.61,923.035 2110.89,923.274C2112.17,923.512 2113.41,923.945 2114.61,924.571C2115.8,925.198 2116.92,926.078 2117.96,927.211C2119,928.345 2119.88,929.806 2120.6,931.596C2121.79,928.911 2123.69,926.793 2126.28,925.242C2128.88,923.691 2131.58,922.916 2134.38,922.916C2139.75,922.916 2143.72,924.333 2146.28,927.166C2148.85,930 2150.13,934.042 2150.13,939.292L2150.13,965.869L2144.22,965.869L2144.22,941.439C2144.22,937.204 2143.48,933.952 2141.99,931.685C2140.5,929.418 2137.72,928.285 2133.66,928.285C2131.46,928.285 2129.61,928.717 2128.12,929.582C2126.63,930.447 2125.42,931.596 2124.49,933.028C2123.57,934.459 2122.9,936.085 2122.48,937.905C2122.06,939.724 2121.85,941.618 2121.85,943.587L2121.85,965.869L2115.95,965.869L2115.95,941.439C2115.95,937.204 2115.2,933.952 2113.71,931.685C2112.22,929.418 2109.44,928.285 2105.39,928.285C2105.03,928.285 2104.21,928.404 2102.93,928.643C2101.64,928.881 2100.32,929.538 2098.94,930.612C2097.57,931.685 2096.33,933.296 2095.23,935.444C2094.13,937.592 2093.57,940.574 2093.57,944.393L2093.57,965.869L2087.67,965.869L2087.67,933.296Z" style="fill-rule:nonzero;stroke:black;stroke-width:0.9px;stroke-linecap:butt;stroke-miterlimit:2;"/>
            <path d="M2196.49,941.708C2196.49,937.711 2195.29,934.474 2192.91,931.999C2190.52,929.523 2187.18,928.285 2182.88,928.285C2180.97,928.285 2179.12,928.658 2177.34,929.403C2175.55,930.149 2173.98,931.148 2172.64,932.401C2171.3,933.654 2170.22,935.086 2169.41,936.697C2168.61,938.307 2168.21,939.978 2168.21,941.708L2196.49,941.708ZM2168.03,946.54C2168.21,948.628 2168.71,950.597 2169.55,952.446C2170.39,954.296 2171.49,955.892 2172.86,957.234C2174.23,958.576 2175.81,959.635 2177.6,960.411C2179.39,961.186 2181.33,961.574 2183.42,961.574C2186.58,961.574 2189.31,960.843 2191.61,959.382C2193.91,957.92 2195.65,956.235 2196.84,954.326L2201.41,958.084C2198.9,961.246 2196.14,963.513 2193.13,964.885C2190.12,966.257 2186.88,966.943 2183.42,966.943C2180.32,966.943 2177.44,966.391 2174.78,965.288C2172.13,964.184 2169.85,962.648 2167.94,960.679C2166.03,958.71 2164.52,956.384 2163.42,953.699C2162.32,951.015 2161.76,948.091 2161.76,944.929C2161.76,941.768 2162.3,938.844 2163.38,936.16C2164.45,933.475 2165.94,931.148 2167.85,929.18C2169.76,927.211 2172,925.675 2174.56,924.571C2177.13,923.468 2179.9,922.916 2182.88,922.916C2186.05,922.916 2188.88,923.482 2191.38,924.616C2193.89,925.749 2195.99,927.256 2197.69,929.135C2199.39,931.014 2200.69,933.222 2201.59,935.757C2202.48,938.293 2202.93,940.992 2202.93,943.856L2202.93,946.54L2168.03,946.54Z" style="fill-rule:nonzero;stroke:black;stroke-width:0.9px;stroke-linecap:butt;stroke-miterlimit:2;"/>
        </g>
        <g transform="matrix(0.90819,0,0,0.90819,-305.805,-142.043)">
            <path d="M1500.67,1267.83L1493.18,1267.83L1493.18,1203.5L1479.96,1215.16L1475.28,1209.54L1494.01,1194.13L1500.67,1194.13L1500.67,1267.83Z" style="fill-rule:nonzero;stroke:black;stroke-width:1.1px;stroke-linecap:butt;stroke-miterlimit:2;"/>
        </g>
        <g transform="matrix(0.770073,0,0,0.770073,-106.545,19.7737)">
            <circle cx="1503.75" cy="1237.5" r="72.092" style="fill-opacity:0;stroke:black;stroke-width:15.1px;"/>
        </g>
        <g transform="matrix(0.90819,0,0,0.90819,-5.59051,-877.374)">
            <path d="M1516.28,1267.83L1469.45,1267.83L1469.45,1259.19L1498.8,1229.32C1499.91,1228.2 1501.02,1227.03 1502.13,1225.78C1503.24,1224.53 1504.25,1223.21 1505.15,1221.82C1506.05,1220.43 1506.78,1218.98 1507.33,1217.45C1507.89,1215.92 1508.16,1214.33 1508.16,1212.66C1508.16,1210.65 1507.8,1208.85 1507.07,1207.25C1506.34,1205.65 1505.32,1204.3 1504,1203.19C1502.68,1202.08 1501.16,1201.23 1499.42,1200.64C1497.69,1200.05 1495.85,1199.76 1493.91,1199.76C1490.16,1199.76 1486.97,1200.8 1484.33,1202.88C1481.69,1204.96 1479.99,1207.77 1479.23,1211.31L1471.32,1210.48C1472.36,1204.99 1474.88,1200.69 1478.87,1197.57C1482.86,1194.45 1487.69,1192.88 1493.38,1192.88C1496.37,1192.88 1499.2,1193.28 1501.87,1194.08C1504.54,1194.88 1506.9,1196.08 1508.95,1197.67C1510.99,1199.27 1512.62,1201.26 1513.84,1203.66C1515.05,1206.05 1515.66,1208.85 1515.66,1212.04C1515.66,1214.88 1515.23,1217.48 1514.36,1219.84C1513.49,1222.2 1512.36,1224.42 1510.98,1226.51C1509.59,1228.59 1508.01,1230.56 1506.24,1232.44C1504.47,1234.31 1502.65,1236.15 1500.78,1237.95L1477.56,1260.96L1516.28,1260.96L1516.28,1267.83Z" style="fill-rule:nonzero;stroke:black;stroke-width:1.1px;stroke-linecap:butt;stroke-miterlimit:2;"/>
        </g>
        <g transform="matrix(0.770073,0,0,0.770073,191.752,-710.787)">
            <circle cx="1503.75" cy="1237.5" r="72.092" style="fill-opacity:0;stroke:black;stroke-width:15.1px;"/>
        </g>
        <g transform="matrix(0.90819,0,0,0.90819,226.367,-131.904)">
            <path d="M618.979,1194.69L618.979,375.417" style="fill:none;stroke:black;stroke-opacity:0.36;stroke-width:12.81px;stroke-dasharray:12.81,32.01,0,0;"/>
        </g>
        <g transform="matrix(5.56106e-17,-0.90819,0.90819,5.56106e-17,275.734,877.63)">
            <path d="M433.992,496.256C433.423,495.156 432.664,494.283 431.715,493.637C430.766,492.992 429.608,492.67 428.242,492.67C427.597,492.67 426.942,492.745 426.278,492.897C425.613,493.049 425.016,493.286 424.484,493.609C423.953,493.932 423.526,494.34 423.203,494.833C422.881,495.327 422.719,495.934 422.719,496.655C422.719,497.908 423.156,498.818 424.029,499.388C424.902,499.957 426.211,500.451 427.957,500.868L431.772,501.779C433.632,502.197 435.178,503.041 436.412,504.313C437.645,505.584 438.262,507.169 438.262,509.067C438.262,510.509 437.968,511.752 437.38,512.796C436.791,513.84 436.013,514.694 435.045,515.358C434.078,516.022 432.967,516.506 431.715,516.81C430.462,517.113 429.191,517.265 427.9,517.265C425.851,517.265 423.943,516.876 422.178,516.098C420.413,515.32 418.905,513.982 417.652,512.084L420.897,509.864C421.656,511.078 422.615,512.046 423.773,512.767C424.93,513.489 426.306,513.849 427.9,513.849C428.659,513.849 429.418,513.764 430.178,513.593C430.937,513.422 431.61,513.156 432.199,512.796C432.787,512.435 433.262,511.97 433.622,511.401C433.983,510.832 434.163,510.167 434.163,509.408C434.163,508.08 433.67,507.121 432.683,506.533C431.696,505.945 430.5,505.48 429.096,505.138L425.452,504.284C424.997,504.17 424.38,503.981 423.602,503.715C422.824,503.449 422.064,503.051 421.324,502.519C420.584,501.988 419.948,501.295 419.417,500.441C418.886,499.587 418.62,498.534 418.62,497.281C418.62,495.915 418.895,494.719 419.446,493.694C419.996,492.67 420.736,491.835 421.666,491.189C422.596,490.544 423.649,490.06 424.826,489.737C426.002,489.415 427.217,489.254 428.47,489.254C430.329,489.254 432.056,489.614 433.651,490.335C435.245,491.056 436.478,492.29 437.351,494.036L433.992,496.256Z" style="fill-opacity:0.52;fill-rule:nonzero;stroke:black;stroke-opacity:0.71;stroke-width:1.1px;stroke-linecap:butt;stroke-miterlimit:2;"/>
            <path d="M457.905,493.353L450.218,493.353L450.218,509.067C450.218,510.053 450.313,510.86 450.503,511.486C450.693,512.113 450.959,512.597 451.3,512.938C451.642,513.28 452.05,513.517 452.524,513.65C452.999,513.783 453.521,513.849 454.09,513.849C454.735,513.849 455.399,513.754 456.083,513.564C456.766,513.375 457.392,513.128 457.962,512.824L458.132,516.297C456.728,516.943 455.039,517.265 453.065,517.265C452.344,517.265 451.594,517.17 450.816,516.98C450.038,516.791 449.327,516.43 448.681,515.899C448.036,515.367 447.505,514.646 447.087,513.735C446.67,512.824 446.461,511.629 446.461,510.148L446.461,493.353L440.824,493.353L440.824,489.937L446.461,489.937L446.461,482.421L450.218,482.421L450.218,489.937L457.905,489.937L457.905,493.353Z" style="fill-opacity:0.52;fill-rule:nonzero;stroke:black;stroke-opacity:0.71;stroke-width:1.1px;stroke-linecap:butt;stroke-miterlimit:2;"/>
            <path d="M478.173,503.316C477.224,503.316 476.038,503.364 474.615,503.459C473.191,503.554 471.825,503.781 470.516,504.142C469.206,504.502 468.086,505.062 467.156,505.821C466.226,506.581 465.762,507.624 465.762,508.953C465.762,509.826 465.942,510.575 466.302,511.202C466.663,511.828 467.147,512.34 467.754,512.739C468.362,513.137 469.035,513.422 469.775,513.593C470.516,513.764 471.265,513.849 472.024,513.849C473.391,513.849 474.577,513.621 475.583,513.166C476.589,512.71 477.433,512.094 478.116,511.316C478.799,510.537 479.302,509.626 479.625,508.583C479.948,507.539 480.109,506.429 480.109,505.252L480.109,503.316L478.173,503.316ZM480.109,500.242L480.109,499.559C480.109,494.966 477.832,492.67 473.277,492.67C470.164,492.67 467.451,493.713 465.135,495.801L462.858,493.125C465.363,490.544 469.121,489.254 474.131,489.254C475.421,489.254 476.664,489.443 477.86,489.823C479.056,490.202 480.09,490.781 480.963,491.559C481.836,492.337 482.538,493.315 483.07,494.491C483.601,495.668 483.867,497.072 483.867,498.705L483.867,510.604C483.867,511.629 483.914,512.701 484.009,513.821C484.104,514.94 484.208,515.861 484.322,516.582L480.678,516.582C480.564,515.937 480.479,515.235 480.422,514.475C480.365,513.716 480.337,512.976 480.337,512.255L480.223,512.255C479.122,514.039 477.822,515.32 476.323,516.098C474.824,516.876 472.992,517.265 470.829,517.265C469.652,517.265 468.513,517.104 467.413,516.781C466.312,516.459 465.335,515.965 464.48,515.301C463.626,514.637 462.943,513.821 462.431,512.853C461.918,511.885 461.662,510.756 461.662,509.465C461.662,507.302 462.222,505.603 463.342,504.37C464.462,503.136 465.866,502.216 467.555,501.608C469.244,501.001 471.047,500.621 472.964,500.47C474.88,500.318 476.636,500.242 478.23,500.242L480.109,500.242Z" style="fill-opacity:0.52;fill-rule:nonzero;stroke:black;stroke-opacity:0.71;stroke-width:1.1px;stroke-linecap:butt;stroke-miterlimit:2;"/>
            <path d="M492.976,498.249C492.976,497.072 492.948,495.877 492.891,494.662C492.834,493.448 492.786,491.872 492.748,489.937L496.449,489.937L496.449,494.89L496.563,494.89C496.829,494.169 497.208,493.476 497.702,492.812C498.195,492.148 498.793,491.55 499.495,491.018C500.197,490.487 501.013,490.06 501.943,489.737C502.873,489.415 503.926,489.254 505.103,489.254C506.166,489.254 507.096,489.367 507.893,489.595L507.153,493.296C506.659,493.106 505.938,493.011 504.989,493.011C503.547,493.011 502.313,493.286 501.288,493.837C500.264,494.387 499.41,495.089 498.726,495.943C498.043,496.797 497.54,497.718 497.218,498.705C496.895,499.691 496.734,500.64 496.734,501.551L496.734,516.582L492.976,516.582L492.976,498.249Z" style="fill-opacity:0.52;fill-rule:nonzero;stroke:black;stroke-opacity:0.71;stroke-width:1.1px;stroke-linecap:butt;stroke-miterlimit:2;"/>
            <path d="M525.258,493.353L517.572,493.353L517.572,509.067C517.572,510.053 517.667,510.86 517.856,511.486C518.046,512.113 518.312,512.597 518.653,512.938C518.995,513.28 519.403,513.517 519.878,513.65C520.352,513.783 520.874,513.849 521.443,513.849C522.088,513.849 522.753,513.754 523.436,513.564C524.119,513.375 524.745,513.128 525.315,512.824L525.486,516.297C524.081,516.943 522.392,517.265 520.418,517.265C519.697,517.265 518.948,517.17 518.169,516.98C517.391,516.791 516.68,516.43 516.034,515.899C515.389,515.367 514.858,514.646 514.44,513.735C514.023,512.824 513.814,511.629 513.814,510.148L513.814,493.353L508.178,493.353L508.178,489.937L513.814,489.937L513.814,482.421L517.572,482.421L517.572,489.937L525.258,489.937L525.258,493.353Z" style="fill-opacity:0.52;fill-rule:nonzero;stroke:black;stroke-opacity:0.71;stroke-width:1.1px;stroke-linecap:butt;stroke-miterlimit:2;"/>
            <path d="M535.848,479.689C535.848,480.486 535.563,481.14 534.994,481.653C534.424,482.165 533.798,482.421 533.115,482.421C532.432,482.421 531.805,482.165 531.236,481.653C530.667,481.14 530.382,480.486 530.382,479.689C530.382,478.891 530.667,478.237 531.236,477.724C531.805,477.212 532.432,476.956 533.115,476.956C533.798,476.956 534.424,477.212 534.994,477.724C535.563,478.237 535.848,478.891 535.848,479.689ZM534.994,516.582L531.236,516.582L531.236,489.937L534.994,489.937L534.994,516.582Z" style="fill-opacity:0.52;fill-rule:nonzero;stroke:black;stroke-opacity:0.71;stroke-width:1.1px;stroke-linecap:butt;stroke-miterlimit:2;"/>
            <path d="M547.633,489.937C547.709,490.658 547.756,491.37 547.775,492.072C547.794,492.774 547.804,493.486 547.804,494.207L547.918,494.207C548.335,493.486 548.867,492.821 549.512,492.214C550.157,491.607 550.878,491.085 551.675,490.648C552.472,490.212 553.317,489.87 554.209,489.624C555.101,489.377 555.983,489.254 556.856,489.254C560.272,489.254 562.796,490.155 564.429,491.958C566.061,493.761 566.877,496.332 566.877,499.672L566.877,516.582L563.119,516.582L563.119,501.836C563.119,498.875 562.607,496.608 561.582,495.032C560.557,493.457 558.659,492.67 555.888,492.67C555.699,492.67 555.167,492.745 554.294,492.897C553.421,493.049 552.501,493.467 551.533,494.15C550.565,494.833 549.702,495.858 548.942,497.224C548.183,498.591 547.804,500.489 547.804,502.918L547.804,516.582L544.046,516.582L544.046,495.801C544.046,495.08 544.018,494.169 543.961,493.068C543.904,491.967 543.837,490.924 543.761,489.937L547.633,489.937Z" style="fill-opacity:0.52;fill-rule:nonzero;stroke:black;stroke-opacity:0.71;stroke-width:1.1px;stroke-linecap:butt;stroke-miterlimit:2;"/>
            <path d="M578.434,502.918C578.434,504.322 578.691,505.641 579.203,506.875C579.715,508.108 580.418,509.19 581.31,510.12C582.202,511.05 583.245,511.79 584.441,512.34C585.637,512.891 586.937,513.166 588.341,513.166C589.707,513.166 591.007,512.919 592.241,512.426C593.474,511.932 594.566,511.24 595.515,510.348C596.464,509.456 597.194,508.383 597.707,507.131C598.219,505.878 598.456,504.474 598.418,502.918C598.418,501.513 598.191,500.194 597.735,498.961C597.28,497.727 596.615,496.645 595.742,495.716C594.869,494.786 593.807,494.045 592.554,493.495C591.302,492.945 589.897,492.67 588.341,492.67C586.937,492.67 585.637,492.945 584.441,493.495C583.245,494.045 582.202,494.786 581.31,495.716C580.418,496.645 579.715,497.727 579.203,498.961C578.691,500.194 578.434,501.513 578.434,502.918ZM577.751,521.934C578.852,523.414 580.285,524.6 582.05,525.492C583.815,526.384 585.779,526.83 587.942,526.83C589.84,526.83 591.453,526.555 592.782,526.005C594.11,525.454 595.183,524.705 595.999,523.756C596.815,522.807 597.403,521.697 597.764,520.425C598.124,519.153 598.304,517.797 598.304,516.354L598.304,511.572L598.191,511.572C596.976,513.394 595.496,514.684 593.75,515.443C592.004,516.202 590.163,516.582 588.227,516.582C586.291,516.582 584.479,516.24 582.79,515.557C581.101,514.874 579.63,513.935 578.377,512.739C577.125,511.543 576.138,510.11 575.417,508.44C574.696,506.77 574.335,504.967 574.335,503.032C574.335,501.096 574.677,499.293 575.36,497.623C576.043,495.953 576.983,494.491 578.178,493.239C579.374,491.986 580.797,491.009 582.448,490.307C584.099,489.605 585.912,489.254 587.885,489.254C588.683,489.254 589.527,489.329 590.419,489.481C591.311,489.633 592.203,489.899 593.095,490.278C593.987,490.658 594.869,491.18 595.742,491.844C596.615,492.508 597.431,493.353 598.191,494.378L598.304,494.378L598.304,489.937L602.062,489.937L602.062,516.354C602.062,517.797 601.882,519.334 601.521,520.966C601.161,522.598 600.458,524.097 599.415,525.464C598.371,526.83 596.919,527.969 595.059,528.88C593.199,529.791 590.77,530.246 587.772,530.246C585.115,530.246 582.742,529.81 580.655,528.937C578.567,528.064 576.669,526.716 574.961,524.894L577.751,521.934Z" style="fill-opacity:0.52;fill-rule:nonzero;stroke:black;stroke-opacity:0.71;stroke-width:1.1px;stroke-linecap:butt;stroke-miterlimit:2;"/>
            <rect x="627.17" y="473.54" width="3.758" height="43.042" style="fill-opacity:0.52;fill-rule:nonzero;stroke:black;stroke-opacity:0.71;stroke-width:1.1px;stroke-linecap:butt;stroke-miterlimit:2;"/>
            <path d="M645.446,479.689C645.446,480.486 645.161,481.14 644.592,481.653C644.023,482.165 643.396,482.421 642.713,482.421C642.03,482.421 641.404,482.165 640.834,481.653C640.265,481.14 639.98,480.486 639.98,479.689C639.98,478.891 640.265,478.237 640.834,477.724C641.404,477.212 642.03,476.956 642.713,476.956C643.396,476.956 644.023,477.212 644.592,477.724C645.161,478.237 645.446,478.891 645.446,479.689ZM644.592,516.582L640.834,516.582L640.834,489.937L644.592,489.937L644.592,516.582Z" style="fill-opacity:0.52;fill-rule:nonzero;stroke:black;stroke-opacity:0.71;stroke-width:1.1px;stroke-linecap:butt;stroke-miterlimit:2;"/>
            <path d="M657.231,489.937C657.307,490.658 657.355,491.37 657.374,492.072C657.393,492.774 657.402,493.486 657.402,494.207L657.516,494.207C657.934,493.486 658.465,492.821 659.11,492.214C659.755,491.607 660.477,491.085 661.274,490.648C662.071,490.212 662.915,489.87 663.807,489.624C664.699,489.377 665.582,489.254 666.455,489.254C669.871,489.254 672.395,490.155 674.027,491.958C675.659,493.761 676.475,496.332 676.475,499.672L676.475,516.582L672.717,516.582L672.717,501.836C672.717,498.875 672.205,496.608 671.18,495.032C670.155,493.457 668.258,492.67 665.487,492.67C665.297,492.67 664.766,492.745 663.893,492.897C663.02,493.049 662.099,493.467 661.131,494.15C660.163,494.833 659.3,495.858 658.541,497.224C657.782,498.591 657.402,500.489 657.402,502.918L657.402,516.582L653.644,516.582L653.644,495.801C653.644,495.08 653.616,494.169 653.559,493.068C653.502,491.967 653.436,490.924 653.36,489.937L657.231,489.937Z" style="fill-opacity:0.52;fill-rule:nonzero;stroke:black;stroke-opacity:0.71;stroke-width:1.1px;stroke-linecap:butt;stroke-miterlimit:2;"/>
            <path d="M706.024,501.21C706.024,498.667 705.265,496.608 703.747,495.032C702.228,493.457 700.103,492.67 697.37,492.67C696.155,492.67 694.979,492.907 693.84,493.381C692.701,493.856 691.705,494.491 690.851,495.289C689.997,496.086 689.314,496.997 688.801,498.021C688.289,499.046 688.033,500.109 688.033,501.21L706.024,501.21ZM687.919,504.284C688.033,505.613 688.355,506.865 688.887,508.042C689.418,509.218 690.12,510.234 690.993,511.088C691.866,511.942 692.872,512.616 694.011,513.109C695.15,513.602 696.383,513.849 697.712,513.849C699.723,513.849 701.46,513.384 702.921,512.454C704.382,511.524 705.493,510.452 706.252,509.237L709.155,511.629C707.561,513.64 705.806,515.083 703.889,515.956C701.972,516.829 699.913,517.265 697.712,517.265C695.738,517.265 693.906,516.914 692.217,516.212C690.528,515.51 689.077,514.532 687.862,513.28C686.647,512.027 685.689,510.547 684.987,508.839C684.285,507.131 683.934,505.271 683.934,503.259C683.934,501.248 684.275,499.388 684.958,497.68C685.642,495.972 686.59,494.491 687.805,493.239C689.02,491.986 690.443,491.009 692.075,490.307C693.707,489.605 695.472,489.254 697.37,489.254C699.382,489.254 701.185,489.614 702.779,490.335C704.373,491.056 705.711,492.015 706.793,493.21C707.874,494.406 708.7,495.81 709.269,497.424C709.839,499.037 710.123,500.754 710.123,502.576L710.123,504.284L687.919,504.284Z" style="fill-opacity:0.52;fill-rule:nonzero;stroke:black;stroke-opacity:0.71;stroke-width:1.1px;stroke-linecap:butt;stroke-miterlimit:2;"/>
        </g>
        <g transform="matrix(0.90819,0,0,0.90819,244.464,-144.331)">
            <path d="M896.364,840.181L896.364,1117.8" style="fill:none;stroke:rgb(255,48,0);stroke-opacity:0.36;stroke-width:12.81px;stroke-dasharray:12.81,32.01,0,0;"/>
        </g>
        <g transform="matrix(0.90819,0,0,0.90819,244.464,-144.331)">
            <path d="M896.364,1117.8L856.582,1078.02" style="fill:none;stroke:rgb(255,48,0);stroke-opacity:0.36;stroke-width:12.81px;stroke-dasharray:12.81,32.01,0,0;"/>
        </g>
        <g transform="matrix(0.90819,0,0,0.90819,244.464,-144.331)">
            <path d="M896.364,1117.8L936.378,1077.79" style="fill:none;stroke:rgb(255,48,0);stroke-opacity:0.36;stroke-width:12.81px;stroke-dasharray:12.81,32.01,0,0;"/>
        </g>
        <g transform="matrix(0.90819,0,0,0.90819,244.464,-144.331)">
            <path d="M1155.96,819.139L1155.96,534.22" style="fill:none;stroke:rgb(0,14,255);stroke-opacity:0.36;stroke-width:12.81px;stroke-dasharray:12.81,32.01,0,0;"/>
        </g>
        <g transform="matrix(0.90819,0,0,0.90819,244.464,-144.331)">
            <path d="M1155.96,534.22L1111.76,578.422" style="fill:none;stroke:rgb(0,14,255);stroke-opacity:0.36;stroke-width:12.81px;stroke-dasharray:12.81,32.01,0,0;"/>
        </g>
        <g transform="matrix(0.90819,0,0,0.90819,244.464,-144.331)">
            <path d="M1155.96,534.22L1201.39,579.644" style="fill:none;stroke:rgb(0,14,255);stroke-opacity:0.36;stroke-width:12.81px;stroke-dasharray:12.81,32.01,0,0;"/>
        </g>
        <g transform="matrix(0.90819,0,0,0.90819,239.541,-145.35)">
            <circle cx="604.078" cy="827.586" r="14.234" style="fill:rgb(0,17,255);stroke:rgb(0,14,255);stroke-width:12.59px;"/>
        </g>
        <g transform="matrix(0.90819,0,0,0.90819,509.279,-145.35)">
            <circle cx="604.078" cy="827.586" r="14.234" style="fill:rgb(255,23,0);stroke:rgb(255,0,5);stroke-width:12.59px;"/>
        </g>
        <g transform="matrix(0.90819,0,0,0.90819,1014.37,-145.35)">
            <circle cx="604.078" cy="827.586" r="14.234" style="fill:rgb(255,23,0);fill-opacity:0.51;stroke:rgb(255,0,5);stroke-opacity:0.35;stroke-width:12.59px;"/>
        </g>
        <g transform="matrix(0.90819,0,0,0.90819,747.049,-145.35)">
            <circle cx="604.078" cy="827.586" r="14.234" style="fill:rgb(0,17,255);stroke:rgb(0,14,255);stroke-width:12.59px;"/>
        </g>
        <g transform="matrix(0.90819,0,0,0.90819,1248.3,-146.419)">
            <circle cx="604.078" cy="827.586" r="14.234" style="fill:rgb(0,17,255);fill-opacity:0.31;stroke:rgb(0,14,255);stroke-opacity:0.4;stroke-width:12.59px;"/>
        </g>
        <g transform="matrix(0.603666,0,0,0.603666,559.969,-194.288)">
            <path d="M453.111,890.078L446.792,890.078L446.792,913.307L443.034,913.307L443.034,890.078L437.397,890.078L437.397,886.662L443.034,886.662L443.034,879.374C443.034,875.844 443.85,873.329 445.482,871.83C447.114,870.331 449.278,869.581 451.973,869.581C452.504,869.581 453.045,869.619 453.595,869.695C454.146,869.771 454.687,869.866 455.218,869.98L454.535,873.396C454.079,873.282 453.605,873.187 453.111,873.111C452.618,873.035 452.124,872.997 451.631,872.997C450.606,872.997 449.771,873.168 449.126,873.51C448.481,873.851 447.987,874.335 447.646,874.962C447.304,875.588 447.076,876.318 446.962,877.154C446.849,877.989 446.792,878.881 446.792,879.829L446.792,886.662L453.111,886.662L453.111,890.078Z" style="fill-opacity:0.52;fill-rule:nonzero;stroke:black;stroke-opacity:0.71;stroke-width:1.66px;stroke-linecap:butt;stroke-miterlimit:2;"/>
            <path d="M480.383,899.984C480.383,898.504 480.146,897.118 479.671,895.828C479.197,894.537 478.523,893.418 477.65,892.469C476.777,891.52 475.724,890.77 474.49,890.22C473.257,889.67 471.862,889.394 470.305,889.394C468.749,889.394 467.354,889.67 466.121,890.22C464.887,890.77 463.843,891.52 462.989,892.469C462.135,893.418 461.471,894.537 460.997,895.828C460.522,897.118 460.285,898.504 460.285,899.984C460.285,901.464 460.522,902.85 460.997,904.14C461.471,905.431 462.135,906.551 462.989,907.499C463.843,908.448 464.887,909.198 466.121,909.748C467.354,910.299 468.749,910.574 470.305,910.574C471.862,910.574 473.257,910.299 474.49,909.748C475.724,909.198 476.777,908.448 477.65,907.499C478.523,906.551 479.197,905.431 479.671,904.14C480.146,902.85 480.383,901.464 480.383,899.984ZM484.482,899.984C484.482,901.996 484.131,903.856 483.429,905.564C482.727,907.272 481.749,908.752 480.497,910.005C479.244,911.257 477.754,912.234 476.027,912.937C474.3,913.639 472.393,913.99 470.305,913.99C468.256,913.99 466.368,913.639 464.641,912.937C462.914,912.234 461.424,911.257 460.171,910.005C458.919,908.752 457.941,907.272 457.239,905.564C456.537,903.856 456.186,901.996 456.186,899.984C456.186,897.972 456.537,896.113 457.239,894.405C457.941,892.697 458.919,891.216 460.171,889.964C461.424,888.711 462.914,887.734 464.641,887.032C466.368,886.329 468.256,885.978 470.305,885.978C472.393,885.978 474.3,886.329 476.027,887.032C477.754,887.734 479.244,888.711 480.497,889.964C481.749,891.216 482.727,892.697 483.429,894.405C484.131,896.113 484.482,897.972 484.482,899.984Z" style="fill-opacity:0.52;fill-rule:nonzero;stroke:black;stroke-opacity:0.71;stroke-width:1.66px;stroke-linecap:butt;stroke-miterlimit:2;"/>
            <path d="M491.713,894.974C491.713,893.797 491.684,892.602 491.627,891.387C491.57,890.172 491.523,888.597 491.485,886.662L495.186,886.662L495.186,891.615L495.3,891.615C495.565,890.894 495.945,890.201 496.438,889.537C496.932,888.872 497.53,888.275 498.232,887.743C498.934,887.212 499.75,886.785 500.68,886.462C501.61,886.14 502.663,885.978 503.84,885.978C504.903,885.978 505.832,886.092 506.63,886.32L505.889,890.021C505.396,889.831 504.675,889.736 503.726,889.736C502.284,889.736 501.05,890.011 500.025,890.562C499,891.112 498.146,891.814 497.463,892.668C496.78,893.522 496.277,894.443 495.954,895.429C495.632,896.416 495.47,897.365 495.47,898.276L495.47,913.307L491.713,913.307L491.713,894.974Z" style="fill-opacity:0.52;fill-rule:nonzero;stroke:black;stroke-opacity:0.71;stroke-width:1.66px;stroke-linecap:butt;stroke-miterlimit:2;"/>
            <path d="M531.51,876.413C531.51,877.21 531.225,877.865 530.656,878.378C530.086,878.89 529.46,879.146 528.777,879.146C528.094,879.146 527.467,878.89 526.898,878.378C526.329,877.865 526.044,877.21 526.044,876.413C526.044,875.616 526.329,874.962 526.898,874.449C527.467,873.937 528.094,873.681 528.777,873.681C529.46,873.681 530.086,873.937 530.656,874.449C531.225,874.962 531.51,875.616 531.51,876.413ZM530.656,913.307L526.898,913.307L526.898,886.662L530.656,886.662L530.656,913.307Z" style="fill-opacity:0.52;fill-rule:nonzero;stroke:black;stroke-opacity:0.71;stroke-width:1.66px;stroke-linecap:butt;stroke-miterlimit:2;"/>
            <path d="M543.295,886.662C543.371,887.383 543.419,888.094 543.438,888.797C543.456,889.499 543.466,890.21 543.466,890.932L543.58,890.932C543.997,890.21 544.529,889.546 545.174,888.939C545.819,888.332 546.54,887.81 547.337,887.373C548.135,886.937 548.979,886.595 549.871,886.348C550.763,886.102 551.646,885.978 552.519,885.978C555.935,885.978 558.459,886.88 560.091,888.683C561.723,890.486 562.539,893.057 562.539,896.397L562.539,913.307L558.781,913.307L558.781,898.561C558.781,895.6 558.269,893.332 557.244,891.757C556.219,890.182 554.321,889.394 551.551,889.394C551.361,889.394 550.829,889.47 549.956,889.622C549.083,889.774 548.163,890.191 547.195,890.875C546.227,891.558 545.364,892.583 544.605,893.949C543.846,895.316 543.466,897.213 543.466,899.643L543.466,913.307L539.708,913.307L539.708,892.526C539.708,891.805 539.68,890.894 539.623,889.793C539.566,888.692 539.5,887.648 539.424,886.662L543.295,886.662Z" style="fill-opacity:0.52;fill-rule:nonzero;stroke:black;stroke-opacity:0.71;stroke-width:1.66px;stroke-linecap:butt;stroke-miterlimit:2;"/>
            <path d="M585.483,892.981C584.914,891.881 584.155,891.008 583.206,890.362C582.257,889.717 581.1,889.394 579.733,889.394C579.088,889.394 578.433,889.47 577.769,889.622C577.105,889.774 576.507,890.011 575.975,890.334C575.444,890.656 575.017,891.064 574.694,891.558C574.372,892.051 574.21,892.659 574.21,893.38C574.21,894.632 574.647,895.543 575.52,896.113C576.393,896.682 577.702,897.175 579.448,897.593L583.263,898.504C585.123,898.921 586.67,899.766 587.903,901.037C589.137,902.309 589.754,903.894 589.754,905.791C589.754,907.234 589.459,908.477 588.871,909.521C588.283,910.564 587.505,911.418 586.537,912.083C585.569,912.747 584.459,913.231 583.206,913.534C581.954,913.838 580.682,913.99 579.391,913.99C577.342,913.99 575.435,913.601 573.67,912.823C571.905,912.045 570.396,910.707 569.143,908.809L572.389,906.589C573.148,907.803 574.106,908.771 575.264,909.492C576.421,910.213 577.797,910.574 579.391,910.574C580.151,910.574 580.91,910.489 581.669,910.318C582.428,910.147 583.102,909.881 583.69,909.521C584.278,909.16 584.753,908.695 585.113,908.126C585.474,907.556 585.654,906.892 585.654,906.133C585.654,904.805 585.161,903.846 584.174,903.258C583.187,902.67 581.991,902.205 580.587,901.863L576.943,901.009C576.488,900.895 575.871,900.705 575.093,900.44C574.315,900.174 573.556,899.775 572.816,899.244C572.075,898.713 571.44,898.02 570.908,897.166C570.377,896.312 570.111,895.259 570.111,894.006C570.111,892.64 570.386,891.444 570.937,890.419C571.487,889.394 572.227,888.559 573.157,887.914C574.087,887.269 575.14,886.785 576.317,886.462C577.494,886.14 578.708,885.978 579.961,885.978C581.821,885.978 583.548,886.339 585.142,887.06C586.736,887.781 587.97,889.015 588.843,890.761L585.483,892.981Z" style="fill-opacity:0.52;fill-rule:nonzero;stroke:black;stroke-opacity:0.71;stroke-width:1.66px;stroke-linecap:butt;stroke-miterlimit:2;"/>
            <path d="M609.396,890.078L601.71,890.078L601.71,905.791C601.71,906.778 601.805,907.585 601.994,908.211C602.184,908.837 602.45,909.321 602.791,909.663C603.133,910.005 603.541,910.242 604.016,910.375C604.49,910.507 605.012,910.574 605.581,910.574C606.226,910.574 606.891,910.479 607.574,910.289C608.257,910.099 608.883,909.853 609.453,909.549L609.624,913.022C608.219,913.667 606.53,913.99 604.556,913.99C603.835,913.99 603.086,913.895 602.308,913.705C601.529,913.516 600.818,913.155 600.172,912.624C599.527,912.092 598.996,911.371 598.578,910.46C598.161,909.549 597.952,908.353 597.952,906.873L597.952,890.078L592.316,890.078L592.316,886.662L597.952,886.662L597.952,879.146L601.71,879.146L601.71,886.662L609.396,886.662L609.396,890.078Z" style="fill-opacity:0.52;fill-rule:nonzero;stroke:black;stroke-opacity:0.71;stroke-width:1.66px;stroke-linecap:butt;stroke-miterlimit:2;"/>
            <path d="M629.664,900.041C628.715,900.041 627.529,900.089 626.106,900.183C624.683,900.278 623.316,900.506 622.007,900.867C620.697,901.227 619.578,901.787 618.648,902.546C617.718,903.305 617.253,904.349 617.253,905.678C617.253,906.551 617.433,907.3 617.794,907.926C618.154,908.553 618.638,909.065 619.245,909.464C619.853,909.862 620.526,910.147 621.267,910.318C622.007,910.489 622.756,910.574 623.516,910.574C624.882,910.574 626.068,910.346 627.074,909.891C628.08,909.435 628.924,908.818 629.607,908.04C630.291,907.262 630.794,906.351 631.116,905.307C631.439,904.264 631.6,903.153 631.6,901.977L631.6,900.041L629.664,900.041ZM631.6,896.967L631.6,896.283C631.6,891.691 629.323,889.394 624.768,889.394C621.656,889.394 618.942,890.438 616.626,892.526L614.349,889.85C616.854,887.269 620.612,885.978 625.622,885.978C626.913,885.978 628.156,886.168 629.351,886.548C630.547,886.927 631.581,887.506 632.454,888.284C633.327,889.062 634.029,890.04 634.561,891.216C635.092,892.393 635.358,893.797 635.358,895.429L635.358,907.329C635.358,908.353 635.405,909.426 635.5,910.545C635.595,911.665 635.699,912.586 635.813,913.307L632.17,913.307C632.056,912.661 631.97,911.959 631.913,911.2C631.856,910.441 631.828,909.701 631.828,908.98L631.714,908.98C630.613,910.764 629.313,912.045 627.814,912.823C626.315,913.601 624.483,913.99 622.32,913.99C621.143,913.99 620.005,913.829 618.904,913.506C617.803,913.183 616.826,912.69 615.972,912.026C615.118,911.361 614.434,910.545 613.922,909.578C613.41,908.61 613.153,907.48 613.153,906.19C613.153,904.026 613.713,902.328 614.833,901.094C615.953,899.861 617.357,898.94 619.046,898.333C620.735,897.726 622.538,897.346 624.455,897.194C626.372,897.043 628.127,896.967 629.721,896.967L631.6,896.967Z" style="fill-opacity:0.52;fill-rule:nonzero;stroke:black;stroke-opacity:0.71;stroke-width:1.66px;stroke-linecap:butt;stroke-miterlimit:2;"/>
            <path d="M647.656,886.662C647.732,887.383 647.779,888.094 647.798,888.797C647.817,889.499 647.826,890.21 647.826,890.932L647.94,890.932C648.358,890.21 648.889,889.546 649.534,888.939C650.18,888.332 650.901,887.81 651.698,887.373C652.495,886.937 653.34,886.595 654.232,886.348C655.123,886.102 656.006,885.978 656.879,885.978C660.295,885.978 662.819,886.88 664.451,888.683C666.083,890.486 666.899,893.057 666.899,896.397L666.899,913.307L663.142,913.307L663.142,898.561C663.142,895.6 662.629,893.332 661.605,891.757C660.58,890.182 658.682,889.394 655.911,889.394C655.721,889.394 655.19,889.47 654.317,889.622C653.444,889.774 652.523,890.191 651.556,890.875C650.588,891.558 649.724,892.583 648.965,893.949C648.206,895.316 647.826,897.213 647.826,899.643L647.826,913.307L644.069,913.307L644.069,892.526C644.069,891.805 644.04,890.894 643.983,889.793C643.926,888.692 643.86,887.648 643.784,886.662L647.656,886.662Z" style="fill-opacity:0.52;fill-rule:nonzero;stroke:black;stroke-opacity:0.71;stroke-width:1.66px;stroke-linecap:butt;stroke-miterlimit:2;"/>
            <path d="M695.139,892.924C694.494,891.937 693.592,891.102 692.434,890.419C691.277,889.736 689.958,889.394 688.477,889.394C686.921,889.356 685.526,889.603 684.293,890.135C683.059,890.666 682.006,891.406 681.133,892.355C680.26,893.304 679.596,894.433 679.14,895.743C678.685,897.052 678.457,898.466 678.457,899.984C678.457,901.502 678.685,902.916 679.14,904.226C679.596,905.535 680.26,906.664 681.133,907.613C682.006,908.562 683.059,909.302 684.293,909.834C685.526,910.365 686.921,910.612 688.477,910.574C689.958,910.574 691.277,910.232 692.434,909.549C693.592,908.866 694.494,908.031 695.139,907.044L698.213,909.378C696.885,910.934 695.385,912.083 693.715,912.823C692.045,913.563 690.299,913.952 688.477,913.99C686.314,914.028 684.359,913.696 682.613,912.994C680.867,912.291 679.377,911.314 678.144,910.062C676.91,908.809 675.971,907.319 675.326,905.592C674.68,903.865 674.358,901.996 674.358,899.984C674.358,897.972 674.68,896.103 675.326,894.376C675.971,892.649 676.91,891.159 678.144,889.907C679.377,888.654 680.867,887.677 682.613,886.975C684.359,886.272 686.314,885.94 688.477,885.978C690.299,886.016 692.045,886.405 693.715,887.145C695.385,887.886 696.885,889.034 698.213,890.59L695.139,892.924Z" style="fill-opacity:0.52;fill-rule:nonzero;stroke:black;stroke-opacity:0.71;stroke-width:1.66px;stroke-linecap:butt;stroke-miterlimit:2;"/>
            <path d="M723.891,897.935C723.891,895.391 723.131,893.332 721.613,891.757C720.095,890.182 717.969,889.394 715.237,889.394C714.022,889.394 712.845,889.632 711.707,890.106C710.568,890.581 709.572,891.216 708.718,892.013C707.864,892.81 707.18,893.721 706.668,894.746C706.156,895.771 705.899,896.834 705.899,897.935L723.891,897.935ZM705.785,901.009C705.899,902.337 706.222,903.59 706.753,904.767C707.285,905.943 707.987,906.959 708.86,907.813C709.733,908.667 710.739,909.34 711.877,909.834C713.016,910.327 714.25,910.574 715.578,910.574C717.59,910.574 719.326,910.109 720.788,909.179C722.249,908.249 723.359,907.177 724.118,905.962L727.022,908.353C725.428,910.365 723.672,911.807 721.756,912.68C719.839,913.553 717.78,913.99 715.578,913.99C713.604,913.99 711.773,913.639 710.084,912.937C708.395,912.234 706.943,911.257 705.729,910.005C704.514,908.752 703.556,907.272 702.853,905.564C702.151,903.856 701.8,901.996 701.8,899.984C701.8,897.972 702.142,896.113 702.825,894.405C703.508,892.697 704.457,891.216 705.672,889.964C706.886,888.711 708.31,887.734 709.942,887.032C711.574,886.329 713.339,885.978 715.237,885.978C717.248,885.978 719.051,886.339 720.645,887.06C722.239,887.781 723.577,888.74 724.659,889.935C725.741,891.131 726.566,892.535 727.136,894.148C727.705,895.762 727.99,897.479 727.99,899.301L727.99,901.009L705.785,901.009Z" style="fill-opacity:0.52;fill-rule:nonzero;stroke:black;stroke-opacity:0.71;stroke-width:1.66px;stroke-linecap:butt;stroke-miterlimit:2;"/>
            <path d="M463.53,956.918C463.53,955.438 463.293,954.053 462.819,952.762C462.344,951.472 461.67,950.352 460.797,949.403C459.924,948.454 458.871,947.705 457.638,947.154C456.404,946.604 455.009,946.329 453.453,946.329C451.897,946.329 450.502,946.604 449.268,947.154C448.035,947.705 446.991,948.454 446.137,949.403C445.283,950.352 444.619,951.472 444.144,952.762C443.67,954.053 443.433,955.438 443.433,956.918C443.433,958.399 443.67,959.784 444.144,961.075C444.619,962.365 445.283,963.485 446.137,964.434C446.991,965.383 448.035,966.132 449.268,966.683C450.502,967.233 451.897,967.508 453.453,967.508C455.009,967.508 456.404,967.233 457.638,966.683C458.871,966.132 459.924,965.383 460.797,964.434C461.67,963.485 462.344,962.365 462.819,961.075C463.293,959.784 463.53,958.399 463.53,956.918ZM467.63,956.918C467.63,958.93 467.278,960.79 466.576,962.498C465.874,964.206 464.897,965.686 463.644,966.939C462.392,968.191 460.902,969.169 459.175,969.871C457.448,970.573 455.541,970.924 453.453,970.924C451.403,970.924 449.515,970.573 447.788,969.871C446.061,969.169 444.571,968.191 443.319,966.939C442.066,965.686 441.089,964.206 440.387,962.498C439.684,960.79 439.333,958.93 439.333,956.918C439.333,954.907 439.684,953.047 440.387,951.339C441.089,949.631 442.066,948.151 443.319,946.898C444.571,945.645 446.061,944.668 447.788,943.966C449.515,943.264 451.403,942.913 453.453,942.913C455.541,942.913 457.448,943.264 459.175,943.966C460.902,944.668 462.392,945.645 463.644,946.898C464.897,948.151 465.874,949.631 466.576,951.339C467.278,953.047 467.63,954.907 467.63,956.918Z" style="fill-opacity:0.52;fill-rule:nonzero;stroke:black;stroke-opacity:0.71;stroke-width:1.66px;stroke-linecap:butt;stroke-miterlimit:2;"/>
            <path d="M498.773,956.918C498.773,955.438 498.535,954.053 498.061,952.762C497.586,951.472 496.913,950.352 496.04,949.403C495.167,948.454 494.113,947.705 492.88,947.154C491.646,946.604 490.251,946.329 488.695,946.329C487.139,946.329 485.716,946.604 484.425,947.154C483.135,947.705 482.015,948.454 481.066,949.403C480.117,950.352 479.377,951.472 478.846,952.762C478.314,954.053 478.049,955.438 478.049,956.918C478.049,958.399 478.314,959.784 478.846,961.075C479.377,962.365 480.117,963.485 481.066,964.434C482.015,965.383 483.135,966.132 484.425,966.683C485.716,967.233 487.139,967.508 488.695,967.508C490.251,967.508 491.646,967.233 492.88,966.683C494.113,966.132 495.167,965.383 496.04,964.434C496.913,963.485 497.586,962.365 498.061,961.075C498.535,959.784 498.773,958.399 498.773,956.918ZM474.462,927.199L478.219,927.199L478.219,948.037L478.333,948.037C478.941,947.126 479.662,946.348 480.497,945.702C481.332,945.057 482.205,944.526 483.116,944.108C484.027,943.691 484.966,943.387 485.934,943.197C486.902,943.007 487.822,942.913 488.695,942.913C490.783,942.913 492.69,943.264 494.417,943.966C496.144,944.668 497.634,945.645 498.886,946.898C500.139,948.151 501.116,949.631 501.819,951.339C502.521,953.047 502.872,954.907 502.872,956.918C502.872,958.93 502.521,960.79 501.819,962.498C501.116,964.206 500.139,965.686 498.886,966.939C497.634,968.191 496.144,969.169 494.417,969.871C492.69,970.573 490.783,970.924 488.695,970.924C487.822,970.924 486.902,970.829 485.934,970.64C484.966,970.45 484.027,970.146 483.116,969.729C482.205,969.311 481.332,968.78 480.497,968.134C479.662,967.489 478.941,966.711 478.333,965.8L478.219,965.8L478.219,970.241L474.462,970.241L474.462,927.199Z" style="fill-opacity:0.52;fill-rule:nonzero;stroke:black;stroke-opacity:0.71;stroke-width:1.66px;stroke-linecap:butt;stroke-miterlimit:2;"/>
            <path d="M523.027,947.012L515.34,947.012L515.34,962.726C515.34,963.713 515.435,964.519 515.625,965.145C515.815,965.772 516.081,966.256 516.422,966.597C516.764,966.939 517.172,967.176 517.646,967.309C518.121,967.442 518.643,967.508 519.212,967.508C519.857,967.508 520.521,967.413 521.205,967.223C521.888,967.034 522.514,966.787 523.084,966.483L523.254,969.956C521.85,970.602 520.161,970.924 518.187,970.924C517.466,970.924 516.716,970.829 515.938,970.64C515.16,970.45 514.448,970.089 513.803,969.558C513.158,969.026 512.627,968.305 512.209,967.394C511.792,966.483 511.583,965.288 511.583,963.807L511.583,947.012L505.946,947.012L505.946,943.596L511.583,943.596L511.583,936.08L515.34,936.08L515.34,943.596L523.027,943.596L523.027,947.012Z" style="fill-opacity:0.52;fill-rule:nonzero;stroke:black;stroke-opacity:0.71;stroke-width:1.66px;stroke-linecap:butt;stroke-miterlimit:2;"/>
            <path d="M543.295,956.975C542.346,956.975 541.16,957.023 539.737,957.118C538.313,957.213 536.947,957.44 535.638,957.801C534.328,958.161 533.208,958.721 532.278,959.48C531.348,960.24 530.884,961.283 530.884,962.612C530.884,963.485 531.064,964.234 531.424,964.861C531.785,965.487 532.269,965.999 532.876,966.398C533.484,966.796 534.157,967.081 534.897,967.252C535.638,967.423 536.387,967.508 537.146,967.508C538.513,967.508 539.699,967.28 540.705,966.825C541.71,966.369 542.555,965.753 543.238,964.975C543.921,964.196 544.424,963.286 544.747,962.242C545.07,961.198 545.231,960.088 545.231,958.911L545.231,956.975L543.295,956.975ZM545.231,953.901L545.231,953.218C545.231,948.625 542.954,946.329 538.399,946.329C535.286,946.329 532.573,947.372 530.257,949.46L527.98,946.784C530.485,944.203 534.243,942.913 539.253,942.913C540.543,942.913 541.786,943.102 542.982,943.482C544.178,943.861 545.212,944.44 546.085,945.218C546.958,945.996 547.66,946.974 548.192,948.151C548.723,949.327 548.989,950.732 548.989,952.364L548.989,964.263C548.989,965.288 549.036,966.36 549.131,967.48C549.226,968.599 549.33,969.52 549.444,970.241L545.8,970.241C545.686,969.596 545.601,968.894 545.544,968.134C545.487,967.375 545.459,966.635 545.459,965.914L545.345,965.914C544.244,967.698 542.944,968.979 541.445,969.757C539.946,970.535 538.114,970.924 535.951,970.924C534.774,970.924 533.635,970.763 532.535,970.44C531.434,970.118 530.456,969.624 529.602,968.96C528.748,968.296 528.065,967.48 527.553,966.512C527.04,965.544 526.784,964.415 526.784,963.124C526.784,960.961 527.344,959.262 528.464,958.029C529.584,956.795 530.988,955.875 532.677,955.267C534.366,954.66 536.169,954.28 538.086,954.129C540.002,953.977 541.758,953.901 543.352,953.901L545.231,953.901Z" style="fill-opacity:0.52;fill-rule:nonzero;stroke:black;stroke-opacity:0.71;stroke-width:1.66px;stroke-linecap:butt;stroke-miterlimit:2;"/>
            <path d="M563.165,933.348C563.165,934.145 562.881,934.799 562.311,935.312C561.742,935.824 561.116,936.08 560.432,936.08C559.749,936.08 559.123,935.824 558.554,935.312C557.984,934.799 557.7,934.145 557.7,933.348C557.7,932.551 557.984,931.896 558.554,931.383C559.123,930.871 559.749,930.615 560.432,930.615C561.116,930.615 561.742,930.871 562.311,931.383C562.881,931.896 563.165,932.551 563.165,933.348ZM562.311,970.241L558.554,970.241L558.554,943.596L562.311,943.596L562.311,970.241Z" style="fill-opacity:0.52;fill-rule:nonzero;stroke:black;stroke-opacity:0.71;stroke-width:1.66px;stroke-linecap:butt;stroke-miterlimit:2;"/>
            <path d="M574.951,943.596C575.027,944.317 575.074,945.029 575.093,945.731C575.112,946.433 575.121,947.145 575.121,947.866L575.235,947.866C575.653,947.145 576.184,946.48 576.829,945.873C577.475,945.266 578.196,944.744 578.993,944.307C579.79,943.871 580.635,943.529 581.527,943.283C582.418,943.036 583.301,942.913 584.174,942.913C587.59,942.913 590.114,943.814 591.746,945.617C593.378,947.42 594.194,949.991 594.194,953.332L594.194,970.241L590.437,970.241L590.437,955.495C590.437,952.534 589.924,950.267 588.899,948.691C587.875,947.116 585.977,946.329 583.206,946.329C583.016,946.329 582.485,946.405 581.612,946.556C580.739,946.708 579.818,947.126 578.851,947.809C577.883,948.492 577.019,949.517 576.26,950.883C575.501,952.25 575.121,954.148 575.121,956.577L575.121,970.241L571.364,970.241L571.364,949.46C571.364,948.739 571.335,947.828 571.278,946.727C571.221,945.626 571.155,944.583 571.079,943.596L574.951,943.596Z" style="fill-opacity:0.52;fill-rule:nonzero;stroke:black;stroke-opacity:0.71;stroke-width:1.66px;stroke-linecap:butt;stroke-miterlimit:2;"/>
            <path d="M623.743,954.869C623.743,952.326 622.984,950.267 621.466,948.691C619.948,947.116 617.822,946.329 615.089,946.329C613.875,946.329 612.698,946.566 611.559,947.04C610.421,947.515 609.424,948.151 608.57,948.948C607.716,949.745 607.033,950.656 606.521,951.68C606.008,952.705 605.752,953.768 605.752,954.869L623.743,954.869ZM605.638,957.943C605.752,959.272 606.075,960.524 606.606,961.701C607.137,962.877 607.84,963.893 608.713,964.747C609.586,965.601 610.591,966.275 611.73,966.768C612.869,967.261 614.102,967.508 615.431,967.508C617.443,967.508 619.179,967.043 620.64,966.113C622.102,965.183 623.212,964.111 623.971,962.896L626.875,965.288C625.28,967.299 623.525,968.742 621.608,969.615C619.691,970.488 617.632,970.924 615.431,970.924C613.457,970.924 611.626,970.573 609.937,969.871C608.248,969.169 606.796,968.191 605.581,966.939C604.367,965.686 603.408,964.206 602.706,962.498C602.004,960.79 601.653,958.93 601.653,956.918C601.653,954.907 601.994,953.047 602.678,951.339C603.361,949.631 604.31,948.151 605.524,946.898C606.739,945.645 608.162,944.668 609.794,943.966C611.426,943.264 613.191,942.913 615.089,942.913C617.101,942.913 618.904,943.273 620.498,943.994C622.092,944.715 623.43,945.674 624.512,946.869C625.594,948.065 626.419,949.469 626.988,951.083C627.558,952.696 627.843,954.413 627.843,956.235L627.843,957.943L605.638,957.943Z" style="fill-opacity:0.52;fill-rule:nonzero;stroke:black;stroke-opacity:0.71;stroke-width:1.66px;stroke-linecap:butt;stroke-miterlimit:2;"/>
            <path d="M636.952,956.918C636.952,958.399 637.189,959.784 637.664,961.075C638.138,962.365 638.812,963.485 639.685,964.434C640.558,965.383 641.611,966.132 642.845,966.683C644.078,967.233 645.473,967.508 647.029,967.508C648.548,967.508 649.961,967.233 651.271,966.683C652.58,966.132 653.71,965.383 654.659,964.434C655.607,963.485 656.348,962.365 656.879,961.075C657.41,959.784 657.676,958.399 657.676,956.918C657.676,955.438 657.41,954.053 656.879,952.762C656.348,951.472 655.607,950.352 654.659,949.403C653.71,948.454 652.58,947.705 651.271,947.154C649.961,946.604 648.548,946.329 647.029,946.329C645.473,946.329 644.078,946.604 642.845,947.154C641.611,947.705 640.558,948.454 639.685,949.403C638.812,950.352 638.138,951.472 637.664,952.762C637.189,954.053 636.952,955.438 636.952,956.918ZM661.263,970.241L657.505,970.241L657.505,965.8L657.391,965.8C656.784,966.711 656.063,967.489 655.228,968.134C654.393,968.78 653.52,969.311 652.609,969.729C651.698,970.146 650.759,970.45 649.791,970.64C648.823,970.829 647.902,970.924 647.029,970.924C644.942,970.924 643.034,970.573 641.307,969.871C639.58,969.169 638.091,968.191 636.838,966.939C635.586,965.686 634.608,964.206 633.906,962.498C633.204,960.79 632.853,958.93 632.853,956.918C632.853,954.907 633.204,953.047 633.906,951.339C634.608,949.631 635.586,948.151 636.838,946.898C638.091,945.645 639.58,944.668 641.307,943.966C643.034,943.264 644.942,942.913 647.029,942.913C647.902,942.913 648.823,943.007 649.791,943.197C650.759,943.387 651.698,943.691 652.609,944.108C653.52,944.526 654.393,945.057 655.228,945.702C656.063,946.348 656.784,947.126 657.391,948.037L657.505,948.037L657.505,927.199L661.263,927.199L661.263,970.241Z" style="fill-opacity:0.52;fill-rule:nonzero;stroke:black;stroke-opacity:0.71;stroke-width:1.66px;stroke-linecap:butt;stroke-miterlimit:2;"/>
            <path d="M704.533,970.241C704.457,969.52 704.41,968.808 704.391,968.106C704.372,967.404 704.362,966.692 704.362,965.971L704.248,965.971C703.831,966.692 703.299,967.356 702.654,967.964C702.009,968.571 701.288,969.093 700.491,969.529C699.694,969.966 698.849,970.307 697.957,970.554C697.065,970.801 696.183,970.924 695.31,970.924C691.894,970.924 689.369,970.023 687.737,968.22C686.105,966.417 685.289,963.845 685.289,960.505L685.289,943.596L689.047,943.596L689.047,958.342C689.047,959.822 689.161,961.132 689.388,962.27C689.616,963.409 690.005,964.367 690.556,965.145C691.106,965.923 691.846,966.512 692.776,966.91C693.706,967.309 694.873,967.508 696.277,967.508C696.467,967.508 696.999,967.432 697.872,967.28C698.745,967.129 699.665,966.711 700.633,966.028C701.601,965.345 702.464,964.32 703.223,962.953C703.983,961.587 704.362,959.689 704.362,957.26L704.362,943.596L708.12,943.596L708.12,964.377C708.12,965.098 708.148,966.009 708.205,967.11C708.262,968.21 708.329,969.254 708.404,970.241L704.533,970.241Z" style="fill-opacity:0.52;fill-rule:nonzero;stroke:black;stroke-opacity:0.71;stroke-width:1.66px;stroke-linecap:butt;stroke-miterlimit:2;"/>
            <path d="M731.064,949.915C730.495,948.815 729.736,947.942 728.787,947.296C727.838,946.651 726.68,946.329 725.314,946.329C724.669,946.329 724.014,946.405 723.35,946.556C722.685,946.708 722.088,946.945 721.556,947.268C721.025,947.591 720.598,947.999 720.275,948.492C719.953,948.986 719.791,949.593 719.791,950.314C719.791,951.567 720.228,952.478 721.101,953.047C721.974,953.616 723.283,954.11 725.029,954.527L728.844,955.438C730.704,955.856 732.25,956.7 733.484,957.972C734.718,959.243 735.334,960.828 735.334,962.726C735.334,964.168 735.04,965.411 734.452,966.455C733.864,967.499 733.085,968.353 732.118,969.017C731.15,969.681 730.039,970.165 728.787,970.469C727.534,970.772 726.263,970.924 724.972,970.924C722.923,970.924 721.015,970.535 719.25,969.757C717.485,968.979 715.977,967.641 714.724,965.743L717.969,963.523C718.729,964.737 719.687,965.705 720.845,966.426C722.002,967.148 723.378,967.508 724.972,967.508C725.731,967.508 726.491,967.423 727.25,967.252C728.009,967.081 728.683,966.815 729.271,966.455C729.859,966.094 730.334,965.629 730.694,965.06C731.055,964.491 731.235,963.826 731.235,963.067C731.235,961.739 730.742,960.78 729.755,960.192C728.768,959.604 727.572,959.139 726.168,958.797L722.524,957.943C722.069,957.829 721.452,957.64 720.674,957.374C719.896,957.108 719.137,956.71 718.396,956.178C717.656,955.647 717.02,954.954 716.489,954.1C715.958,953.246 715.692,952.193 715.692,950.94C715.692,949.574 715.967,948.378 716.518,947.353C717.068,946.329 717.808,945.494 718.738,944.848C719.668,944.203 720.721,943.719 721.898,943.396C723.075,943.074 724.289,942.913 725.542,942.913C727.402,942.913 729.129,943.273 730.723,943.994C732.317,944.715 733.55,945.949 734.423,947.695L731.064,949.915Z" style="fill-opacity:0.52;fill-rule:nonzero;stroke:black;stroke-opacity:0.71;stroke-width:1.66px;stroke-linecap:butt;stroke-miterlimit:2;"/>
            <path d="M746.664,933.348C746.664,934.145 746.38,934.799 745.81,935.312C745.241,935.824 744.615,936.08 743.931,936.08C743.248,936.08 742.622,935.824 742.053,935.312C741.483,934.799 741.199,934.145 741.199,933.348C741.199,932.551 741.483,931.896 742.053,931.383C742.622,930.871 743.248,930.615 743.931,930.615C744.615,930.615 745.241,930.871 745.81,931.383C746.38,931.896 746.664,932.551 746.664,933.348ZM745.81,970.241L742.053,970.241L742.053,943.596L745.81,943.596L745.81,970.241Z" style="fill-opacity:0.52;fill-rule:nonzero;stroke:black;stroke-opacity:0.71;stroke-width:1.66px;stroke-linecap:butt;stroke-miterlimit:2;"/>
            <path d="M758.45,943.596C758.526,944.317 758.573,945.029 758.592,945.731C758.611,946.433 758.62,947.145 758.62,947.866L758.734,947.866C759.152,947.145 759.683,946.48 760.328,945.873C760.974,945.266 761.695,944.744 762.492,944.307C763.289,943.871 764.134,943.529 765.026,943.283C765.918,943.036 766.8,942.913 767.673,942.913C771.089,942.913 773.613,943.814 775.245,945.617C776.877,947.42 777.693,949.991 777.693,953.332L777.693,970.241L773.936,970.241L773.936,955.495C773.936,952.534 773.423,950.267 772.399,948.691C771.374,947.116 769.476,946.329 766.705,946.329C766.515,946.329 765.984,946.405 765.111,946.556C764.238,946.708 763.318,947.126 762.35,947.809C761.382,948.492 760.518,949.517 759.759,950.883C759,952.25 758.62,954.148 758.62,956.577L758.62,970.241L754.863,970.241L754.863,949.46C754.863,948.739 754.834,947.828 754.777,946.727C754.72,945.626 754.654,944.583 754.578,943.596L758.45,943.596Z" style="fill-opacity:0.52;fill-rule:nonzero;stroke:black;stroke-opacity:0.71;stroke-width:1.66px;stroke-linecap:butt;stroke-miterlimit:2;"/>
            <path d="M789.251,956.577C789.251,957.981 789.507,959.3 790.02,960.534C790.532,961.767 791.234,962.849 792.126,963.779C793.018,964.709 794.062,965.449 795.258,965.999C796.453,966.55 797.753,966.825 799.158,966.825C800.524,966.825 801.824,966.578 803.058,966.085C804.291,965.591 805.382,964.899 806.331,964.007C807.28,963.115 808.011,962.042 808.523,960.79C809.036,959.537 809.273,958.133 809.235,956.577C809.235,955.172 809.007,953.853 808.552,952.62C808.096,951.386 807.432,950.305 806.559,949.375C805.686,948.445 804.623,947.705 803.371,947.154C802.118,946.604 800.714,946.329 799.158,946.329C797.753,946.329 796.453,946.604 795.258,947.154C794.062,947.705 793.018,948.445 792.126,949.375C791.234,950.305 790.532,951.386 790.02,952.62C789.507,953.853 789.251,955.172 789.251,956.577ZM788.568,975.593C789.669,977.073 791.101,978.259 792.866,979.151C794.631,980.043 796.596,980.489 798.759,980.489C800.657,980.489 802.27,980.214 803.598,979.664C804.927,979.113 805.999,978.364 806.815,977.415C807.631,976.466 808.22,975.356 808.58,974.084C808.941,972.813 809.121,971.456 809.121,970.013L809.121,965.231L809.007,965.231C807.793,967.053 806.312,968.343 804.566,969.102C802.82,969.861 800.98,970.241 799.044,970.241C797.108,970.241 795.296,969.899 793.607,969.216C791.917,968.533 790.447,967.594 789.194,966.398C787.942,965.202 786.955,963.769 786.234,962.099C785.512,960.429 785.152,958.626 785.152,956.691C785.152,954.755 785.493,952.952 786.177,951.282C786.86,949.612 787.799,948.151 788.995,946.898C790.19,945.645 791.614,944.668 793.265,943.966C794.916,943.264 796.728,942.913 798.702,942.913C799.499,942.913 800.344,942.988 801.236,943.14C802.128,943.292 803.02,943.558 803.912,943.937C804.804,944.317 805.686,944.839 806.559,945.503C807.432,946.167 808.248,947.012 809.007,948.037L809.121,948.037L809.121,943.596L812.879,943.596L812.879,970.013C812.879,971.456 812.698,972.993 812.338,974.625C811.977,976.257 811.275,977.756 810.231,979.123C809.188,980.489 807.736,981.628 805.876,982.539C804.016,983.45 801.587,983.905 798.588,983.905C795.931,983.905 793.559,983.469 791.471,982.596C789.384,981.723 787.486,980.375 785.778,978.553L788.568,975.593Z" style="fill-opacity:0.52;fill-rule:nonzero;stroke:black;stroke-opacity:0.71;stroke-width:1.66px;stroke-linecap:butt;stroke-miterlimit:2;"/>
            <path d="M842.598,947.752L849.886,947.752C851.708,947.752 853.255,947.562 854.526,947.183C855.798,946.803 856.813,946.3 857.572,945.674C858.331,945.048 858.882,944.307 859.223,943.453C859.565,942.599 859.736,941.679 859.736,940.692C859.736,939.743 859.565,938.842 859.223,937.988C858.882,937.134 858.331,936.384 857.572,935.739C856.813,935.094 855.798,934.591 854.526,934.23C853.255,933.869 851.708,933.689 849.886,933.689L842.598,933.689L842.598,947.752ZM842.598,970.241L838.499,970.241L838.499,929.932L850.911,929.932C855.01,929.932 858.246,930.824 860.618,932.607C862.99,934.391 864.177,937.086 864.177,940.692C864.177,943.501 863.294,945.864 861.529,947.78C859.764,949.697 857.212,950.807 853.871,951.111L865.486,970.241L860.476,970.241L849.431,951.51L842.598,951.51L842.598,970.241Z" style="fill-opacity:0.52;fill-rule:nonzero;stroke:black;stroke-opacity:0.71;stroke-width:1.66px;stroke-linecap:butt;stroke-miterlimit:2;"/>
            <path d="M876.36,947.41L876.93,947.41L895.889,929.932L901.753,929.932L881.428,948.207L902.892,970.241L896.857,970.241L877.044,949.46L876.36,949.46L876.36,970.241L872.261,970.241L872.261,929.932L876.36,929.932L876.36,947.41Z" style="fill-opacity:0.52;fill-rule:nonzero;stroke:black;stroke-opacity:0.71;stroke-width:1.66px;stroke-linecap:butt;stroke-miterlimit:2;"/>
        </g>
        <g transform="matrix(0.90819,0,0,0.90819,244.464,-144.331)">
            <path d="M754.129,628.738L873.125,798.309" style="fill:none;stroke:rgb(255,0,5);stroke-opacity:0.35;stroke-width:12.59px;"/>
        </g>
        <g transform="matrix(0.90819,0,0,0.90819,244.464,-144.331)">
            <path d="M873.125,798.309L831.865,788.327" style="fill:none;stroke:rgb(255,0,5);stroke-opacity:0.35;stroke-width:12.59px;"/>
        </g>
        <g transform="matrix(0.90819,0,0,0.90819,244.464,-144.331)">
            <path d="M873.125,798.309L887.1,762.373" style="fill:none;stroke:rgb(255,0,5);stroke-opacity:0.35;stroke-width:12.59px;"/>
        </g>
        <g transform="matrix(1.70966,0,0,1.70966,-715.23,-703.933)">
            <path d="M1204.61,697.051C1203.94,697.051 1203.1,697.085 1202.08,697.152C1201.07,697.22 1200.1,697.382 1199.17,697.638C1198.24,697.894 1197.44,698.293 1196.78,698.832C1196.12,699.372 1195.79,700.114 1195.79,701.059C1195.79,701.679 1195.92,702.212 1196.17,702.658C1196.43,703.103 1196.77,703.467 1197.2,703.751C1197.64,704.034 1198.12,704.236 1198.64,704.358C1199.17,704.479 1199.7,704.54 1200.24,704.54C1201.21,704.54 1202.06,704.378 1202.77,704.054C1203.49,703.73 1204.09,703.292 1204.57,702.739C1205.06,702.185 1205.41,701.538 1205.64,700.796C1205.87,700.053 1205.99,699.264 1205.99,698.427L1205.99,697.051L1204.61,697.051ZM1205.99,694.865L1205.99,694.38C1205.99,691.114 1204.37,689.481 1201.13,689.481C1198.92,689.481 1196.99,690.224 1195.34,691.708L1193.72,689.805C1195.51,687.97 1198.18,687.053 1201.74,687.053C1202.66,687.053 1203.54,687.188 1204.39,687.457C1205.24,687.727 1205.98,688.139 1206.6,688.692C1207.22,689.245 1207.72,689.94 1208.09,690.777C1208.47,691.613 1208.66,692.612 1208.66,693.772L1208.66,702.233C1208.66,702.961 1208.69,703.724 1208.76,704.52C1208.83,705.316 1208.9,705.97 1208.98,706.483L1206.39,706.483C1206.31,706.024 1206.25,705.525 1206.21,704.985C1206.17,704.445 1206.15,703.919 1206.15,703.406L1206.07,703.406C1205.29,704.675 1204.36,705.586 1203.3,706.139C1202.23,706.692 1200.93,706.969 1199.39,706.969C1198.55,706.969 1197.75,706.854 1196.96,706.625C1196.18,706.395 1195.48,706.044 1194.88,705.572C1194.27,705.1 1193.78,704.52 1193.42,703.831C1193.06,703.143 1192.87,702.34 1192.87,701.423C1192.87,699.885 1193.27,698.677 1194.07,697.8C1194.86,696.923 1195.86,696.269 1197.06,695.837C1198.26,695.405 1199.55,695.135 1200.91,695.027C1202.27,694.919 1203.52,694.865 1204.65,694.865L1205.99,694.865Z" style="fill:rgb(39,61,236);fill-opacity:0.52;fill-rule:nonzero;stroke:rgb(58,75,224);stroke-opacity:0.71;stroke-width:0.58px;stroke-linecap:butt;stroke-miterlimit:2;"/>
            <path d="M1222.14,678.066C1221.28,679.443 1220.51,680.778 1219.85,682.074C1219.19,683.369 1218.63,684.685 1218.17,686.02C1217.71,687.356 1217.37,688.739 1217.14,690.17C1216.91,691.6 1216.8,693.152 1216.8,694.825C1216.8,696.498 1216.91,698.036 1217.14,699.439C1217.37,700.843 1217.7,702.192 1218.13,703.487C1218.57,704.783 1219.1,706.065 1219.75,707.333C1220.4,708.601 1221.14,709.937 1221.98,711.34L1219.83,712.96C1218.03,710.423 1216.62,707.589 1215.62,704.459C1214.62,701.329 1214.12,698.117 1214.12,694.825C1214.12,691.694 1214.62,688.55 1215.6,685.393C1216.59,682.236 1218.05,679.335 1220,676.69L1222.14,678.066Z" style="fill:rgb(39,61,236);fill-opacity:0.52;fill-rule:nonzero;stroke:rgb(58,75,224);stroke-opacity:0.71;stroke-width:0.58px;stroke-linecap:butt;stroke-miterlimit:2;"/>
            <path d="M1235.42,692.032C1235.01,691.249 1234.47,690.628 1233.8,690.17C1233.12,689.711 1232.3,689.481 1231.33,689.481C1230.87,689.481 1230.4,689.535 1229.93,689.643C1229.46,689.751 1229.04,689.92 1228.66,690.149C1228.28,690.379 1227.98,690.669 1227.75,691.02C1227.52,691.371 1227.4,691.802 1227.4,692.315C1227.4,693.206 1227.71,693.853 1228.33,694.258C1228.95,694.663 1229.88,695.014 1231.13,695.311L1233.84,695.958C1235.16,696.255 1236.26,696.856 1237.14,697.76C1238.02,698.664 1238.45,699.79 1238.45,701.14C1238.45,702.165 1238.24,703.049 1237.83,703.791C1237.41,704.533 1236.86,705.14 1236.17,705.613C1235.48,706.085 1234.69,706.429 1233.8,706.645C1232.91,706.861 1232,706.969 1231.09,706.969C1229.63,706.969 1228.27,706.692 1227.02,706.139C1225.76,705.586 1224.69,704.634 1223.8,703.285L1226.11,701.706C1226.65,702.57 1227.33,703.258 1228.15,703.771C1228.98,704.284 1229.95,704.54 1231.09,704.54C1231.63,704.54 1232.17,704.479 1232.7,704.358C1233.25,704.236 1233.72,704.047 1234.14,703.791C1234.56,703.535 1234.9,703.204 1235.15,702.799C1235.41,702.394 1235.54,701.922 1235.54,701.382C1235.54,700.438 1235.19,699.757 1234.49,699.338C1233.79,698.92 1232.93,698.589 1231.94,698.347L1229.35,697.739C1229.02,697.658 1228.58,697.523 1228.03,697.335C1227.48,697.146 1226.94,696.862 1226.41,696.484C1225.88,696.107 1225.43,695.614 1225.06,695.007C1224.68,694.4 1224.49,693.651 1224.49,692.76C1224.49,691.789 1224.68,690.939 1225.08,690.21C1225.47,689.481 1225.99,688.888 1226.65,688.429C1227.32,687.97 1228.06,687.626 1228.9,687.397C1229.74,687.167 1230.6,687.053 1231.49,687.053C1232.81,687.053 1234.04,687.309 1235.17,687.822C1236.31,688.335 1237.18,689.212 1237.81,690.453L1235.42,692.032Z" style="fill:rgb(39,61,236);fill-opacity:0.52;fill-rule:nonzero;stroke:rgb(58,75,224);stroke-opacity:0.71;stroke-width:0.58px;stroke-linecap:butt;stroke-miterlimit:2;"/>
            <path d="M1240.03,711.583C1240.9,710.207 1241.66,708.871 1242.32,707.576C1242.98,706.281 1243.54,704.965 1244,703.629C1244.46,702.293 1244.8,700.91 1245.03,699.48C1245.26,698.05 1245.38,696.498 1245.38,694.825C1245.38,693.152 1245.26,691.613 1245.03,690.21C1244.8,688.807 1244.47,687.457 1244.04,686.162C1243.61,684.867 1243.07,683.585 1242.42,682.317C1241.77,681.048 1241.03,679.712 1240.19,678.309L1242.34,676.69C1244.15,679.227 1245.55,682.06 1246.55,685.191C1247.55,688.321 1248.05,691.532 1248.05,694.825C1248.05,697.955 1247.56,701.099 1246.57,704.257C1245.59,707.414 1244.12,710.315 1242.18,712.96L1240.03,711.583Z" style="fill:rgb(39,61,236);fill-opacity:0.52;fill-rule:nonzero;stroke:rgb(58,75,224);stroke-opacity:0.71;stroke-width:0.58px;stroke-linecap:butt;stroke-miterlimit:2;"/>
        </g>
        <g transform="matrix(1.76659,0,0,1.76659,-1144,-573.535)">
            <path d="M1729.91,466.273C1729.91,467.844 1729.35,469.248 1728.23,470.482C1727.1,471.717 1725.64,472.334 1723.85,472.334C1722.05,472.334 1720.59,471.717 1719.47,470.482C1718.35,469.248 1717.79,467.844 1717.79,466.273C1717.79,464.701 1718.35,463.298 1719.47,462.063C1720.59,460.829 1722.05,460.211 1723.85,460.211C1725.64,460.211 1727.1,460.829 1728.23,462.063C1729.35,463.298 1729.91,464.701 1729.91,466.273ZM1692.53,466.273C1692.53,467.844 1691.97,469.248 1690.85,470.482C1689.72,471.717 1688.27,472.334 1686.47,472.334C1684.67,472.334 1683.21,471.717 1682.09,470.482C1680.97,469.248 1680.41,467.844 1680.41,466.273C1680.41,464.701 1680.97,463.298 1682.09,462.063C1683.21,460.829 1684.67,460.211 1686.47,460.211C1688.27,460.211 1689.72,460.829 1690.85,462.063C1691.97,463.298 1692.53,464.701 1692.53,466.273ZM1655.15,466.273C1655.15,467.844 1654.59,469.248 1653.47,470.482C1652.34,471.717 1650.88,472.334 1649.09,472.334C1647.29,472.334 1645.83,471.717 1644.71,470.482C1643.59,469.248 1643.03,467.844 1643.03,466.273C1643.03,464.701 1643.59,463.298 1644.71,462.063C1645.83,460.829 1647.29,460.211 1649.09,460.211C1650.88,460.211 1652.34,460.829 1653.47,462.063C1654.59,463.298 1655.15,464.701 1655.15,466.273Z" style="fill-rule:nonzero;stroke:black;stroke-width:0.57px;stroke-linecap:butt;stroke-miterlimit:2;"/>
        </g>
        <g transform="matrix(1,0,0,1,-26.9166,-7.66383)">
            <path d="M704.139,134.657L741.182,134.657L741.182,142.065L696.057,142.065L696.057,62.591L704.139,62.591L704.139,134.657Z" style="fill-rule:nonzero;stroke:black;stroke-width:1px;stroke-linecap:butt;stroke-miterlimit:2;"/>
            <path d="M790.348,111.757C790.348,106.743 788.851,102.684 785.858,99.578C782.865,96.472 778.674,94.92 773.286,94.92C770.891,94.92 768.571,95.387 766.326,96.323C764.081,97.258 762.117,98.512 760.433,100.083C758.749,101.655 757.402,103.451 756.392,105.471C755.382,107.492 754.876,109.587 754.876,111.757L790.348,111.757ZM754.652,117.819C754.876,120.438 755.513,122.908 756.56,125.228C757.608,127.547 758.992,129.549 760.714,131.233C762.435,132.917 764.418,134.245 766.663,135.218C768.908,136.191 771.34,136.677 773.959,136.677C777.925,136.677 781.349,135.761 784.23,133.927C787.111,132.094 789.3,129.98 790.797,127.585L796.522,132.299C793.379,136.266 789.918,139.109 786.139,140.831C782.359,142.552 778.3,143.412 773.959,143.412C770.068,143.412 766.457,142.72 763.127,141.336C759.797,139.951 756.934,138.024 754.54,135.555C752.145,133.085 750.255,130.167 748.871,126.799C747.487,123.432 746.794,119.765 746.794,115.798C746.794,111.832 747.468,108.165 748.815,104.798C750.162,101.43 752.033,98.512 754.427,96.042C756.822,93.573 759.628,91.646 762.846,90.261C766.064,88.877 769.544,88.185 773.286,88.185C777.252,88.185 780.807,88.895 783.95,90.317C787.093,91.739 789.731,93.629 791.863,95.986C793.996,98.343 795.624,101.112 796.746,104.293C797.869,107.473 798.43,110.859 798.43,114.451L798.43,117.819L754.652,117.819Z" style="fill-rule:nonzero;stroke:black;stroke-width:1px;stroke-linecap:butt;stroke-miterlimit:2;"/>
            <path d="M841.759,115.911C839.888,115.911 837.55,116.004 834.743,116.191C831.937,116.378 829.243,116.827 826.661,117.538C824.08,118.249 821.872,119.353 820.039,120.85C818.205,122.346 817.288,124.404 817.288,127.024C817.288,128.745 817.644,130.223 818.355,131.458C819.066,132.692 820.02,133.703 821.217,134.488C822.415,135.274 823.743,135.835 825.202,136.172C826.661,136.509 828.139,136.677 829.636,136.677C832.33,136.677 834.669,136.228 836.652,135.33C838.635,134.432 840.3,133.216 841.647,131.682C842.994,130.148 843.986,128.352 844.622,126.294C845.258,124.236 845.576,122.047 845.576,119.727L845.576,115.911L841.759,115.911ZM845.576,109.849L845.576,108.502C845.576,99.447 841.086,94.92 832.106,94.92C825.969,94.92 820.618,96.978 816.054,101.093L811.564,95.818C816.503,90.729 823.911,88.185 833.789,88.185C836.334,88.185 838.785,88.559 841.142,89.307C843.499,90.055 845.538,91.197 847.26,92.731C848.981,94.265 850.365,96.192 851.413,98.512C852.461,100.832 852.984,103.6 852.984,106.818L852.984,130.279C852.984,132.299 853.078,134.414 853.265,136.621C853.452,138.829 853.658,140.644 853.882,142.065L846.698,142.065C846.474,140.793 846.305,139.409 846.193,137.912C846.081,136.415 846.025,134.956 846.025,133.534L845.8,133.534C843.63,137.051 841.067,139.577 838.111,141.111C835.155,142.645 831.544,143.412 827.279,143.412C824.959,143.412 822.714,143.094 820.544,142.458C818.373,141.822 816.446,140.849 814.763,139.54C813.079,138.23 811.732,136.621 810.722,134.713C809.711,132.805 809.206,130.578 809.206,128.034C809.206,123.768 810.31,120.419 812.518,117.987C814.725,115.555 817.494,113.741 820.824,112.543C824.154,111.346 827.709,110.597 831.488,110.298C835.267,109.999 838.728,109.849 841.871,109.849L845.576,109.849Z" style="fill-rule:nonzero;stroke:black;stroke-width:1px;stroke-linecap:butt;stroke-miterlimit:2;"/>
            <path d="M918.09,115.798C918.09,112.88 917.623,110.148 916.687,107.604C915.752,105.06 914.423,102.852 912.702,100.981C910.981,99.11 908.904,97.632 906.472,96.547C904.04,95.462 901.29,94.92 898.222,94.92C895.154,94.92 892.347,95.462 889.803,96.547C887.259,97.632 885.051,99.11 883.18,100.981C881.309,102.852 879.85,105.06 878.802,107.604C877.755,110.148 877.231,112.88 877.231,115.798C877.231,118.717 877.755,121.448 878.802,123.993C879.85,126.537 881.309,128.745 883.18,130.616C885.051,132.487 887.259,133.965 889.803,135.05C892.347,136.135 895.154,136.677 898.222,136.677C901.29,136.677 904.04,136.135 906.472,135.05C908.904,133.965 910.981,132.487 912.702,130.616C914.423,128.745 915.752,126.537 916.687,123.993C917.623,121.448 918.09,118.717 918.09,115.798ZM870.159,89.532L877.568,89.532L877.568,98.287L877.792,98.287C878.989,96.491 880.411,94.957 882.058,93.685C883.704,92.413 885.425,91.365 887.221,90.542C889.017,89.719 890.869,89.12 892.778,88.746C894.686,88.372 896.501,88.185 898.222,88.185C902.338,88.185 906.098,88.877 909.503,90.261C912.908,91.646 915.845,93.573 918.315,96.042C920.784,98.512 922.711,101.43 924.096,104.798C925.48,108.165 926.172,111.832 926.172,115.798C926.172,119.765 925.48,123.432 924.096,126.799C922.711,130.167 920.784,133.085 918.315,135.555C915.845,138.024 912.908,139.951 909.503,141.336C906.098,142.72 902.338,143.412 898.222,143.412C896.501,143.412 894.686,143.225 892.778,142.851C890.869,142.477 889.017,141.878 887.221,141.055C885.425,140.232 883.704,139.184 882.058,137.912C880.411,136.64 878.989,135.106 877.792,133.31L877.568,133.31L877.568,174.394L870.159,174.394L870.159,89.532Z" style="fill-rule:nonzero;stroke:black;stroke-width:1px;stroke-linecap:butt;stroke-miterlimit:2;"/>
            <path d="M963.216,96.267L950.756,96.267L950.756,142.065L943.347,142.065L943.347,96.267L932.234,96.267L932.234,89.532L943.347,89.532L943.347,75.163C943.347,68.204 944.956,63.246 948.174,60.29C951.392,57.334 955.657,55.856 960.971,55.856C962.018,55.856 963.085,55.931 964.17,56.081C965.255,56.23 966.321,56.417 967.369,56.642L966.022,63.377C965.124,63.152 964.188,62.965 963.216,62.816C962.243,62.666 961.27,62.591 960.297,62.591C958.276,62.591 956.63,62.928 955.358,63.601C954.086,64.275 953.113,65.229 952.439,66.464C951.766,67.699 951.317,69.139 951.092,70.786C950.868,72.432 950.756,74.191 950.756,76.061L950.756,89.532L963.216,89.532L963.216,96.267Z" style="fill-rule:nonzero;stroke:black;stroke-width:1px;stroke-linecap:butt;stroke-miterlimit:2;"/>
            <path d="M972.757,105.92C972.757,103.6 972.701,101.243 972.589,98.848C972.476,96.454 972.383,93.348 972.308,89.532L979.604,89.532L979.604,99.297L979.829,99.297C980.353,97.876 981.101,96.51 982.074,95.2C983.047,93.891 984.225,92.712 985.61,91.664C986.994,90.617 988.603,89.775 990.437,89.139C992.27,88.503 994.347,88.185 996.667,88.185C998.762,88.185 1000.6,88.409 1002.17,88.858L1000.71,96.154C999.735,95.78 998.313,95.593 996.442,95.593C993.598,95.593 991.166,96.136 989.146,97.221C987.125,98.306 985.441,99.69 984.094,101.374C982.747,103.058 981.756,104.873 981.12,106.818C980.484,108.764 980.166,110.635 980.166,112.431L980.166,142.065L972.757,142.065L972.757,105.92Z" style="fill-rule:nonzero;stroke:black;stroke-width:1px;stroke-linecap:butt;stroke-miterlimit:2;"/>
            <path d="M1052.23,115.798C1052.23,112.88 1051.76,110.148 1050.83,107.604C1049.89,105.06 1048.56,102.852 1046.84,100.981C1045.12,99.11 1043.05,97.632 1040.61,96.547C1038.18,95.462 1035.43,94.92 1032.36,94.92C1029.29,94.92 1026.54,95.462 1024.11,96.547C1021.68,97.632 1019.62,99.11 1017.94,100.981C1016.25,102.852 1014.95,105.06 1014.01,107.604C1013.07,110.148 1012.61,112.88 1012.61,115.798C1012.61,118.717 1013.07,121.448 1014.01,123.993C1014.95,126.537 1016.25,128.745 1017.94,130.616C1019.62,132.487 1021.68,133.965 1024.11,135.05C1026.54,136.135 1029.29,136.677 1032.36,136.677C1035.43,136.677 1038.18,136.135 1040.61,135.05C1043.05,133.965 1045.12,132.487 1046.84,130.616C1048.56,128.745 1049.89,126.537 1050.83,123.993C1051.76,121.448 1052.23,118.717 1052.23,115.798ZM1060.31,115.798C1060.31,119.765 1059.62,123.432 1058.24,126.799C1056.85,130.167 1054.92,133.085 1052.46,135.555C1049.99,138.024 1047.05,139.951 1043.64,141.336C1040.24,142.72 1036.48,143.412 1032.36,143.412C1028.32,143.412 1024.6,142.72 1021.19,141.336C1017.79,139.951 1014.85,138.024 1012.38,135.555C1009.91,133.085 1007.99,130.167 1006.6,126.799C1005.22,123.432 1004.52,119.765 1004.52,115.798C1004.52,111.832 1005.22,108.165 1006.6,104.798C1007.99,101.43 1009.91,98.512 1012.38,96.042C1014.85,93.573 1017.79,91.646 1021.19,90.261C1024.6,88.877 1028.32,88.185 1032.36,88.185C1036.48,88.185 1040.24,88.877 1043.64,90.261C1047.05,91.646 1049.99,93.573 1052.46,96.042C1054.92,98.512 1056.85,101.43 1058.24,104.798C1059.62,108.165 1060.31,111.832 1060.31,115.798Z" style="fill-rule:nonzero;stroke:black;stroke-width:1px;stroke-linecap:butt;stroke-miterlimit:2;"/>
            <path d="M1079.17,115.125C1079.17,117.894 1079.68,120.494 1080.69,122.926C1081.7,125.359 1083.08,127.491 1084.84,129.325C1086.6,131.158 1088.66,132.618 1091.01,133.703C1093.37,134.788 1095.93,135.33 1098.7,135.33C1101.4,135.33 1103.96,134.844 1106.39,133.871C1108.83,132.898 1110.98,131.532 1112.85,129.774C1114.72,128.015 1116.16,125.901 1117.17,123.432C1118.18,120.962 1118.65,118.193 1118.57,115.125C1118.57,112.356 1118.12,109.756 1117.23,107.323C1116.33,104.891 1115.02,102.759 1113.3,100.925C1111.58,99.092 1109.48,97.632 1107.01,96.547C1104.54,95.462 1101.77,94.92 1098.7,94.92C1095.93,94.92 1093.37,95.462 1091.01,96.547C1088.66,97.632 1086.6,99.092 1084.84,100.925C1083.08,102.759 1081.7,104.891 1080.69,107.323C1079.68,109.756 1079.17,112.356 1079.17,115.125ZM1077.83,152.617C1080,155.536 1082.82,157.874 1086.3,159.633C1089.78,161.391 1093.65,162.271 1097.92,162.271C1101.66,162.271 1104.84,161.728 1107.46,160.643C1110.08,159.558 1112.19,158.08 1113.8,156.209C1115.41,154.338 1116.57,152.149 1117.28,149.642C1117.99,147.135 1118.35,144.46 1118.35,141.616L1118.35,132.187L1118.12,132.187C1115.73,135.779 1112.81,138.324 1109.37,139.82C1105.92,141.317 1102.3,142.065 1098.48,142.065C1094.66,142.065 1091.09,141.392 1087.76,140.045C1084.43,138.698 1081.53,136.846 1079.06,134.488C1076.59,132.131 1074.64,129.306 1073.22,126.013C1071.8,122.721 1071.09,119.166 1071.09,115.349C1071.09,111.533 1071.76,107.978 1073.11,104.686C1074.46,101.393 1076.31,98.512 1078.67,96.042C1081.02,93.573 1083.83,91.646 1087.09,90.261C1090.34,88.877 1093.91,88.185 1097.81,88.185C1099.38,88.185 1101.04,88.334 1102.8,88.634C1104.56,88.933 1106.32,89.457 1108.08,90.205C1109.84,90.953 1111.58,91.982 1113.3,93.292C1115.02,94.602 1116.63,96.267 1118.12,98.287L1118.35,98.287L1118.35,89.532L1125.76,89.532L1125.76,141.616C1125.76,144.46 1125.4,147.491 1124.69,150.709C1123.98,153.927 1122.59,156.883 1120.54,159.577C1118.48,162.271 1115.62,164.516 1111.95,166.312C1108.28,168.108 1103.49,169.006 1097.58,169.006C1092.34,169.006 1087.66,168.145 1083.55,166.424C1079.43,164.703 1075.69,162.046 1072.32,158.454L1077.83,152.617Z" style="fill-rule:nonzero;stroke:black;stroke-width:1px;stroke-linecap:butt;stroke-miterlimit:2;"/>
        </g>
    </g>
</svg>
