<?xml version="1.0" encoding="utf-8" standalone="no"?>
<!DOCTYPE svg PUBLIC "-//W3C//DTD SVG 1.1//EN"
  "http://www.w3.org/Graphics/SVG/1.1/DTD/svg11.dtd">
<svg xmlns:xlink="http://www.w3.org/1999/xlink" width="216pt" height="216pt" viewBox="0 0 216 216" xmlns="http://www.w3.org/2000/svg" version="1.1">
 <metadata>
  <rdf:RDF xmlns:dc="http://purl.org/dc/elements/1.1/" xmlns:cc="http://creativecommons.org/ns#" xmlns:rdf="http://www.w3.org/1999/02/22-rdf-syntax-ns#">
   <cc:Work>
    <dc:type rdf:resource="http://purl.org/dc/dcmitype/StillImage"/>
    <dc:date>2024-02-15T18:24:55.337237</dc:date>
    <dc:format>image/svg+xml</dc:format>
    <dc:creator>
     <cc:Agent>
      <dc:title>Matplotlib v3.5.1, https://matplotlib.org/</dc:title>
     </cc:Agent>
    </dc:creator>
   </cc:Work>
  </rdf:RDF>
 </metadata>
 <defs>
  <style type="text/css">*{stroke-linejoin: round; stroke-linecap: butt}</style>
 </defs>
 <g id="figure_1">
  <g id="patch_1">
   <path d="M 0 216 
L 216 216 
L 216 0 
L 0 0 
z
" style="fill: #ffffff"/>
  </g>
  <g id="axes_1">
   <g id="patch_2">
    <path d="M 38.27 174.04 
L 205.2 174.04 
L 205.2 26.88 
L 38.27 26.88 
z
" style="fill: #ffffff"/>
   </g>
   <g id="PathCollection_1">
    <defs>
     <path id="ma0ec7ba333" d="M 0 1.118034 
C 0.296506 1.118034 0.580908 1.000231 0.790569 0.790569 
C 1.000231 0.580908 1.118034 0.296506 1.118034 0 
C 1.118034 -0.296506 1.000231 -0.580908 0.790569 -0.790569 
C 0.580908 -1.000231 0.296506 -1.118034 0 -1.118034 
C -0.296506 -1.118034 -0.580908 -1.000231 -0.790569 -0.790569 
C -1.000231 -0.580908 -1.118034 -0.296506 -1.118034 0 
C -1.118034 0.296506 -1.000231 0.580908 -0.790569 0.790569 
C -0.580908 1.000231 -0.296506 1.118034 0 1.118034 
z
" style="stroke: #000000"/>
    </defs>
    <g clip-path="url(#pc5fcb739d5)">
     <use xlink:href="#ma0ec7ba333" x="47.382899" y="149.292859" style="stroke: #000000"/>
     <use xlink:href="#ma0ec7ba333" x="48.90807" y="75.24333" style="stroke: #000000"/>
     <use xlink:href="#ma0ec7ba333" x="50.433241" y="133.553003" style="stroke: #000000"/>
     <use xlink:href="#ma0ec7ba333" x="51.958413" y="104.932226" style="stroke: #000000"/>
     <use xlink:href="#ma0ec7ba333" x="53.483584" y="109.025511" style="stroke: #000000"/>
     <use xlink:href="#ma0ec7ba333" x="55.008755" y="73.221367" style="stroke: #000000"/>
     <use xlink:href="#ma0ec7ba333" x="56.533926" y="102.761101" style="stroke: #000000"/>
     <use xlink:href="#ma0ec7ba333" x="58.059098" y="103.776719" style="stroke: #000000"/>
     <use xlink:href="#ma0ec7ba333" x="59.584269" y="82.282001" style="stroke: #000000"/>
     <use xlink:href="#ma0ec7ba333" x="61.10944" y="103.707527" style="stroke: #000000"/>
     <use xlink:href="#ma0ec7ba333" x="62.634612" y="99.913067" style="stroke: #000000"/>
     <use xlink:href="#ma0ec7ba333" x="64.159783" y="127.740361" style="stroke: #000000"/>
     <use xlink:href="#ma0ec7ba333" x="65.684954" y="104.055057" style="stroke: #000000"/>
     <use xlink:href="#ma0ec7ba333" x="67.210126" y="96.3376" style="stroke: #000000"/>
     <use xlink:href="#ma0ec7ba333" x="68.735297" y="99.33248" style="stroke: #000000"/>
     <use xlink:href="#ma0ec7ba333" x="70.260468" y="105.535919" style="stroke: #000000"/>
     <use xlink:href="#ma0ec7ba333" x="71.78564" y="123.747384" style="stroke: #000000"/>
     <use xlink:href="#ma0ec7ba333" x="73.310811" y="132.786281" style="stroke: #000000"/>
     <use xlink:href="#ma0ec7ba333" x="74.835982" y="106.191637" style="stroke: #000000"/>
     <use xlink:href="#ma0ec7ba333" x="76.361153" y="141.010959" style="stroke: #000000"/>
     <use xlink:href="#ma0ec7ba333" x="77.886325" y="131.328743" style="stroke: #000000"/>
     <use xlink:href="#ma0ec7ba333" x="79.411496" y="142.56711" style="stroke: #000000"/>
     <use xlink:href="#ma0ec7ba333" x="80.936667" y="151.261767" style="stroke: #000000"/>
     <use xlink:href="#ma0ec7ba333" x="82.461839" y="149.065332" style="stroke: #000000"/>
     <use xlink:href="#ma0ec7ba333" x="83.98701" y="119.545037" style="stroke: #000000"/>
     <use xlink:href="#ma0ec7ba333" x="85.512181" y="140.9725" style="stroke: #000000"/>
     <use xlink:href="#ma0ec7ba333" x="87.037353" y="152.769517" style="stroke: #000000"/>
     <use xlink:href="#ma0ec7ba333" x="88.562524" y="114.420808" style="stroke: #000000"/>
     <use xlink:href="#ma0ec7ba333" x="90.087695" y="130.47144" style="stroke: #000000"/>
     <use xlink:href="#ma0ec7ba333" x="91.612867" y="136.91096" style="stroke: #000000"/>
     <use xlink:href="#ma0ec7ba333" x="93.138038" y="109.821026" style="stroke: #000000"/>
     <use xlink:href="#ma0ec7ba333" x="94.663209" y="104.845397" style="stroke: #000000"/>
     <use xlink:href="#ma0ec7ba333" x="96.188381" y="116.180336" style="stroke: #000000"/>
     <use xlink:href="#ma0ec7ba333" x="97.713552" y="145.625075" style="stroke: #000000"/>
     <use xlink:href="#ma0ec7ba333" x="99.238723" y="100.751473" style="stroke: #000000"/>
     <use xlink:href="#ma0ec7ba333" x="100.763894" y="92.124143" style="stroke: #000000"/>
     <use xlink:href="#ma0ec7ba333" x="102.289066" y="122.187771" style="stroke: #000000"/>
     <use xlink:href="#ma0ec7ba333" x="103.814237" y="129.284557" style="stroke: #000000"/>
     <use xlink:href="#ma0ec7ba333" x="105.339408" y="89.591326" style="stroke: #000000"/>
     <use xlink:href="#ma0ec7ba333" x="106.86458" y="60.859835" style="stroke: #000000"/>
     <use xlink:href="#ma0ec7ba333" x="108.389751" y="87.807369" style="stroke: #000000"/>
     <use xlink:href="#ma0ec7ba333" x="109.914922" y="118.708478" style="stroke: #000000"/>
     <use xlink:href="#ma0ec7ba333" x="111.440094" y="100.460935" style="stroke: #000000"/>
     <use xlink:href="#ma0ec7ba333" x="112.965265" y="105.793307" style="stroke: #000000"/>
     <use xlink:href="#ma0ec7ba333" x="114.490436" y="73.982515" style="stroke: #000000"/>
     <use xlink:href="#ma0ec7ba333" x="116.015608" y="105.211163" style="stroke: #000000"/>
     <use xlink:href="#ma0ec7ba333" x="117.540779" y="113.02248" style="stroke: #000000"/>
     <use xlink:href="#ma0ec7ba333" x="119.06595" y="96.88582" style="stroke: #000000"/>
     <use xlink:href="#ma0ec7ba333" x="120.591122" y="75.561793" style="stroke: #000000"/>
     <use xlink:href="#ma0ec7ba333" x="122.116293" y="104.995823" style="stroke: #000000"/>
     <use xlink:href="#ma0ec7ba333" x="123.641464" y="132.464683" style="stroke: #000000"/>
     <use xlink:href="#ma0ec7ba333" x="125.166635" y="148.222961" style="stroke: #000000"/>
     <use xlink:href="#ma0ec7ba333" x="126.691807" y="118.788373" style="stroke: #000000"/>
     <use xlink:href="#ma0ec7ba333" x="128.216978" y="163.075123" style="stroke: #000000"/>
     <use xlink:href="#ma0ec7ba333" x="129.742149" y="143.684926" style="stroke: #000000"/>
     <use xlink:href="#ma0ec7ba333" x="131.267321" y="123.685723" style="stroke: #000000"/>
     <use xlink:href="#ma0ec7ba333" x="132.792492" y="140.710662" style="stroke: #000000"/>
     <use xlink:href="#ma0ec7ba333" x="134.317663" y="88.22" style="stroke: #000000"/>
     <use xlink:href="#ma0ec7ba333" x="135.842835" y="134.075302" style="stroke: #000000"/>
     <use xlink:href="#ma0ec7ba333" x="137.368006" y="114.589701" style="stroke: #000000"/>
     <use xlink:href="#ma0ec7ba333" x="138.893177" y="132.625377" style="stroke: #000000"/>
     <use xlink:href="#ma0ec7ba333" x="140.418349" y="108.326141" style="stroke: #000000"/>
     <use xlink:href="#ma0ec7ba333" x="141.94352" y="83.416748" style="stroke: #000000"/>
     <use xlink:href="#ma0ec7ba333" x="143.468691" y="66.698233" style="stroke: #000000"/>
     <use xlink:href="#ma0ec7ba333" x="144.993862" y="102.397026" style="stroke: #000000"/>
     <use xlink:href="#ma0ec7ba333" x="146.519034" y="76.993573" style="stroke: #000000"/>
     <use xlink:href="#ma0ec7ba333" x="148.044205" y="110.868256" style="stroke: #000000"/>
     <use xlink:href="#ma0ec7ba333" x="149.569376" y="95.410182" style="stroke: #000000"/>
     <use xlink:href="#ma0ec7ba333" x="151.094548" y="67.155507" style="stroke: #000000"/>
     <use xlink:href="#ma0ec7ba333" x="152.619719" y="75.583404" style="stroke: #000000"/>
     <use xlink:href="#ma0ec7ba333" x="154.14489" y="61.819774" style="stroke: #000000"/>
     <use xlink:href="#ma0ec7ba333" x="155.670062" y="77.318868" style="stroke: #000000"/>
     <use xlink:href="#ma0ec7ba333" x="157.195233" y="33.569091" style="stroke: #000000"/>
     <use xlink:href="#ma0ec7ba333" x="158.720404" y="87.256939" style="stroke: #000000"/>
     <use xlink:href="#ma0ec7ba333" x="160.245576" y="111.523437" style="stroke: #000000"/>
     <use xlink:href="#ma0ec7ba333" x="161.770747" y="79.508543" style="stroke: #000000"/>
     <use xlink:href="#ma0ec7ba333" x="163.295918" y="97.482304" style="stroke: #000000"/>
     <use xlink:href="#ma0ec7ba333" x="164.82109" y="137.183985" style="stroke: #000000"/>
     <use xlink:href="#ma0ec7ba333" x="166.346261" y="89.672305" style="stroke: #000000"/>
     <use xlink:href="#ma0ec7ba333" x="167.871432" y="92.981336" style="stroke: #000000"/>
     <use xlink:href="#ma0ec7ba333" x="169.396603" y="152.548229" style="stroke: #000000"/>
     <use xlink:href="#ma0ec7ba333" x="170.921775" y="132.332406" style="stroke: #000000"/>
     <use xlink:href="#ma0ec7ba333" x="172.446946" y="109.601233" style="stroke: #000000"/>
     <use xlink:href="#ma0ec7ba333" x="173.972117" y="101.792986" style="stroke: #000000"/>
     <use xlink:href="#ma0ec7ba333" x="175.497289" y="113.714537" style="stroke: #000000"/>
     <use xlink:href="#ma0ec7ba333" x="177.02246" y="106.474289" style="stroke: #000000"/>
     <use xlink:href="#ma0ec7ba333" x="178.547631" y="115.888787" style="stroke: #000000"/>
     <use xlink:href="#ma0ec7ba333" x="180.072803" y="97.683241" style="stroke: #000000"/>
     <use xlink:href="#ma0ec7ba333" x="181.597974" y="125.417333" style="stroke: #000000"/>
     <use xlink:href="#ma0ec7ba333" x="183.123145" y="108.115569" style="stroke: #000000"/>
     <use xlink:href="#ma0ec7ba333" x="184.648317" y="129.533509" style="stroke: #000000"/>
     <use xlink:href="#ma0ec7ba333" x="186.173488" y="99.100483" style="stroke: #000000"/>
     <use xlink:href="#ma0ec7ba333" x="187.698659" y="108.118462" style="stroke: #000000"/>
     <use xlink:href="#ma0ec7ba333" x="189.223831" y="85.849403" style="stroke: #000000"/>
     <use xlink:href="#ma0ec7ba333" x="190.749002" y="84.260869" style="stroke: #000000"/>
     <use xlink:href="#ma0ec7ba333" x="192.274173" y="73.295944" style="stroke: #000000"/>
     <use xlink:href="#ma0ec7ba333" x="193.799344" y="113.130292" style="stroke: #000000"/>
     <use xlink:href="#ma0ec7ba333" x="195.324516" y="75.537148" style="stroke: #000000"/>
     <use xlink:href="#ma0ec7ba333" x="196.849687" y="65.31349" style="stroke: #000000"/>
    </g>
   </g>
   <g id="matplotlib.axis_1">
    <g id="xtick_1">
     <g id="line2d_1">
      <defs>
       <path id="m51214b616f" d="M 0 0 
L 0 3.5 
" style="stroke: #000000; stroke-width: 0.8"/>
      </defs>
      <g>
       <use xlink:href="#m51214b616f" x="45.857727" y="174.04" style="stroke: #000000; stroke-width: 0.8"/>
      </g>
     </g>
     <g id="text_1">
      <!-- 0 -->
      <g transform="translate(42.676477 188.638438)scale(0.1 -0.1)">
       <defs>
        <path id="DejaVuSans-30" d="M 2034 4250 
Q 1547 4250 1301 3770 
Q 1056 3291 1056 2328 
Q 1056 1369 1301 889 
Q 1547 409 2034 409 
Q 2525 409 2770 889 
Q 3016 1369 3016 2328 
Q 3016 3291 2770 3770 
Q 2525 4250 2034 4250 
z
M 2034 4750 
Q 2819 4750 3233 4129 
Q 3647 3509 3647 2328 
Q 3647 1150 3233 529 
Q 2819 -91 2034 -91 
Q 1250 -91 836 529 
Q 422 1150 422 2328 
Q 422 3509 836 4129 
Q 1250 4750 2034 4750 
z
" transform="scale(0.015625)"/>
       </defs>
       <use xlink:href="#DejaVuSans-30"/>
      </g>
     </g>
    </g>
    <g id="xtick_2">
     <g id="line2d_2">
      <g>
       <use xlink:href="#m51214b616f" x="83.98701" y="174.04" style="stroke: #000000; stroke-width: 0.8"/>
      </g>
     </g>
     <g id="text_2">
      <!-- 5 -->
      <g transform="translate(80.80576 188.638438)scale(0.1 -0.1)">
       <defs>
        <path id="DejaVuSans-35" d="M 691 4666 
L 3169 4666 
L 3169 4134 
L 1269 4134 
L 1269 2991 
Q 1406 3038 1543 3061 
Q 1681 3084 1819 3084 
Q 2600 3084 3056 2656 
Q 3513 2228 3513 1497 
Q 3513 744 3044 326 
Q 2575 -91 1722 -91 
Q 1428 -91 1123 -41 
Q 819 9 494 109 
L 494 744 
Q 775 591 1075 516 
Q 1375 441 1709 441 
Q 2250 441 2565 725 
Q 2881 1009 2881 1497 
Q 2881 1984 2565 2268 
Q 2250 2553 1709 2553 
Q 1456 2553 1204 2497 
Q 953 2441 691 2322 
L 691 4666 
z
" transform="scale(0.015625)"/>
       </defs>
       <use xlink:href="#DejaVuSans-35"/>
      </g>
     </g>
    </g>
    <g id="xtick_3">
     <g id="line2d_3">
      <g>
       <use xlink:href="#m51214b616f" x="122.116293" y="174.04" style="stroke: #000000; stroke-width: 0.8"/>
      </g>
     </g>
     <g id="text_3">
      <!-- 10 -->
      <g transform="translate(115.753793 188.638438)scale(0.1 -0.1)">
       <defs>
        <path id="DejaVuSans-31" d="M 794 531 
L 1825 531 
L 1825 4091 
L 703 3866 
L 703 4441 
L 1819 4666 
L 2450 4666 
L 2450 531 
L 3481 531 
L 3481 0 
L 794 0 
L 794 531 
z
" transform="scale(0.015625)"/>
       </defs>
       <use xlink:href="#DejaVuSans-31"/>
       <use xlink:href="#DejaVuSans-30" x="63.623047"/>
      </g>
     </g>
    </g>
    <g id="xtick_4">
     <g id="line2d_4">
      <g>
       <use xlink:href="#m51214b616f" x="160.245576" y="174.04" style="stroke: #000000; stroke-width: 0.8"/>
      </g>
     </g>
     <g id="text_4">
      <!-- 15 -->
      <g transform="translate(153.883076 188.638438)scale(0.1 -0.1)">
       <use xlink:href="#DejaVuSans-31"/>
       <use xlink:href="#DejaVuSans-35" x="63.623047"/>
      </g>
     </g>
    </g>
    <g id="xtick_5">
     <g id="line2d_5">
      <g>
       <use xlink:href="#m51214b616f" x="198.374858" y="174.04" style="stroke: #000000; stroke-width: 0.8"/>
      </g>
     </g>
     <g id="text_5">
      <!-- 20 -->
      <g transform="translate(192.012358 188.638438)scale(0.1 -0.1)">
       <defs>
        <path id="DejaVuSans-32" d="M 1228 531 
L 3431 531 
L 3431 0 
L 469 0 
L 469 531 
Q 828 903 1448 1529 
Q 2069 2156 2228 2338 
Q 2531 2678 2651 2914 
Q 2772 3150 2772 3378 
Q 2772 3750 2511 3984 
Q 2250 4219 1831 4219 
Q 1534 4219 1204 4116 
Q 875 4013 500 3803 
L 500 4441 
Q 881 4594 1212 4672 
Q 1544 4750 1819 4750 
Q 2544 4750 2975 4387 
Q 3406 4025 3406 3419 
Q 3406 3131 3298 2873 
Q 3191 2616 2906 2266 
Q 2828 2175 2409 1742 
Q 1991 1309 1228 531 
z
" transform="scale(0.015625)"/>
       </defs>
       <use xlink:href="#DejaVuSans-32"/>
       <use xlink:href="#DejaVuSans-30" x="63.623047"/>
      </g>
     </g>
    </g>
    <g id="text_6">
     <!-- x -->
     <g transform="translate(118.775625 202.316563)scale(0.1 -0.1)">
      <defs>
       <path id="DejaVuSans-78" d="M 3513 3500 
L 2247 1797 
L 3578 0 
L 2900 0 
L 1881 1375 
L 863 0 
L 184 0 
L 1544 1831 
L 300 3500 
L 978 3500 
L 1906 2253 
L 2834 3500 
L 3513 3500 
z
" transform="scale(0.015625)"/>
      </defs>
      <use xlink:href="#DejaVuSans-78"/>
     </g>
    </g>
   </g>
   <g id="matplotlib.axis_2">
    <g id="ytick_1">
     <g id="line2d_6">
      <defs>
       <path id="m2c96185131" d="M 0 0 
L -3.5 0 
" style="stroke: #000000; stroke-width: 0.8"/>
      </defs>
      <g>
       <use xlink:href="#m2c96185131" x="38.27" y="164.653719" style="stroke: #000000; stroke-width: 0.8"/>
      </g>
     </g>
     <g id="text_7">
      <!-- 0 -->
      <g transform="translate(24.9075 168.452938)scale(0.1 -0.1)">
       <use xlink:href="#DejaVuSans-30"/>
      </g>
     </g>
    </g>
    <g id="ytick_2">
     <g id="line2d_7">
      <g>
       <use xlink:href="#m2c96185131" x="38.27" y="126.02373" style="stroke: #000000; stroke-width: 0.8"/>
      </g>
     </g>
     <g id="text_8">
      <!-- 2 -->
      <g transform="translate(24.9075 129.822948)scale(0.1 -0.1)">
       <use xlink:href="#DejaVuSans-32"/>
      </g>
     </g>
    </g>
    <g id="ytick_3">
     <g id="line2d_8">
      <g>
       <use xlink:href="#m2c96185131" x="38.27" y="87.39374" style="stroke: #000000; stroke-width: 0.8"/>
      </g>
     </g>
     <g id="text_9">
      <!-- 4 -->
      <g transform="translate(24.9075 91.192958)scale(0.1 -0.1)">
       <defs>
        <path id="DejaVuSans-34" d="M 2419 4116 
L 825 1625 
L 2419 1625 
L 2419 4116 
z
M 2253 4666 
L 3047 4666 
L 3047 1625 
L 3713 1625 
L 3713 1100 
L 3047 1100 
L 3047 0 
L 2419 0 
L 2419 1100 
L 313 1100 
L 313 1709 
L 2253 4666 
z
" transform="scale(0.015625)"/>
       </defs>
       <use xlink:href="#DejaVuSans-34"/>
      </g>
     </g>
    </g>
    <g id="ytick_4">
     <g id="line2d_9">
      <g>
       <use xlink:href="#m2c96185131" x="38.27" y="48.76375" style="stroke: #000000; stroke-width: 0.8"/>
      </g>
     </g>
     <g id="text_10">
      <!-- 6 -->
      <g transform="translate(24.9075 52.562968)scale(0.1 -0.1)">
       <defs>
        <path id="DejaVuSans-36" d="M 2113 2584 
Q 1688 2584 1439 2293 
Q 1191 2003 1191 1497 
Q 1191 994 1439 701 
Q 1688 409 2113 409 
Q 2538 409 2786 701 
Q 3034 994 3034 1497 
Q 3034 2003 2786 2293 
Q 2538 2584 2113 2584 
z
M 3366 4563 
L 3366 3988 
Q 3128 4100 2886 4159 
Q 2644 4219 2406 4219 
Q 1781 4219 1451 3797 
Q 1122 3375 1075 2522 
Q 1259 2794 1537 2939 
Q 1816 3084 2150 3084 
Q 2853 3084 3261 2657 
Q 3669 2231 3669 1497 
Q 3669 778 3244 343 
Q 2819 -91 2113 -91 
Q 1303 -91 875 529 
Q 447 1150 447 2328 
Q 447 3434 972 4092 
Q 1497 4750 2381 4750 
Q 2619 4750 2861 4703 
Q 3103 4656 3366 4563 
z
" transform="scale(0.015625)"/>
       </defs>
       <use xlink:href="#DejaVuSans-36"/>
      </g>
     </g>
    </g>
    <g id="text_11">
     <!-- y -->
     <g transform="translate(18.827813 103.419375)rotate(-90)scale(0.1 -0.1)">
      <defs>
       <path id="DejaVuSans-79" d="M 2059 -325 
Q 1816 -950 1584 -1140 
Q 1353 -1331 966 -1331 
L 506 -1331 
L 506 -850 
L 844 -850 
Q 1081 -850 1212 -737 
Q 1344 -625 1503 -206 
L 1606 56 
L 191 3500 
L 800 3500 
L 1894 763 
L 2988 3500 
L 3597 3500 
L 2059 -325 
z
" transform="scale(0.015625)"/>
      </defs>
      <use xlink:href="#DejaVuSans-79"/>
     </g>
    </g>
   </g>
   <g id="line2d_10">
    <path d="M 45.857727 167.350909 
L 46.620313 146.526799 
L 47.382899 131.495754 
L 48.145484 121.697372 
L 48.90807 116.007947 
L 49.670656 112.974702 
L 51.195827 109.407085 
L 51.958413 107.121413 
L 54.246169 98.277569 
L 55.008755 96.329462 
L 55.771341 95.395558 
L 56.533926 95.256653 
L 58.059098 95.839314 
L 58.821683 96.261998 
L 59.584269 97.021609 
L 60.346855 98.394482 
L 61.10944 100.455326 
L 62.634612 105.470384 
L 63.397197 107.367429 
L 64.159783 108.218008 
L 64.922369 107.896504 
L 65.684954 106.681666 
L 66.44754 105.168669 
L 67.210126 104.051761 
L 67.972711 103.891408 
L 68.735297 104.964595 
L 69.497883 107.222989 
L 71.023054 113.778967 
L 71.78564 117.024938 
L 72.548225 119.712355 
L 73.310811 121.802274 
L 74.835982 125.392465 
L 75.598568 127.573901 
L 77.123739 132.988916 
L 78.64891 138.495934 
L 79.411496 140.689287 
L 80.174082 142.148543 
L 80.936667 142.641317 
L 81.699253 142.129525 
L 82.461839 140.875798 
L 83.224424 139.382221 
L 83.98701 138.147261 
L 84.749596 137.382429 
L 85.512181 136.898534 
L 86.274767 136.267024 
L 87.037353 135.145714 
L 88.562524 131.629726 
L 90.850281 126.037877 
L 92.375452 121.245112 
L 93.138038 118.866957 
L 93.900624 117.209736 
L 94.663209 116.650011 
L 95.425795 117.086622 
L 96.188381 117.910356 
L 96.950966 118.280398 
L 97.713552 117.57979 
L 98.476138 115.785263 
L 99.238723 113.498252 
L 100.001309 111.578345 
L 100.763894 110.586902 
L 102.289066 110.186918 
L 103.051651 108.935782 
L 103.814237 105.971294 
L 106.101994 91.951711 
L 106.86458 89.624617 
L 107.627165 89.799498 
L 108.389751 92.061678 
L 109.914922 98.353478 
L 110.677508 100.20812 
L 111.440094 100.566515 
L 112.202679 99.701961 
L 113.727851 97.112668 
L 114.490436 96.73418 
L 115.253022 97.264539 
L 116.778193 99.215602 
L 117.540779 99.425757 
L 118.303365 98.889865 
L 119.06595 98.156922 
L 119.828536 98.169071 
L 120.591122 99.830495 
L 121.353707 103.577001 
L 122.116293 109.163265 
L 124.40405 128.097311 
L 125.166635 132.635296 
L 125.929221 136.050794 
L 126.691807 138.584782 
L 127.454392 140.330031 
L 128.216978 141.127083 
L 128.979564 140.718889 
L 129.742149 138.99719 
L 130.504735 136.124878 
L 133.555078 121.712308 
L 134.317663 119.718759 
L 135.080249 118.894086 
L 135.842835 118.949138 
L 136.60542 119.26832 
L 137.368006 119.105314 
L 138.130592 117.798234 
L 138.893177 114.937907 
L 139.655763 110.490779 
L 141.94352 93.44275 
L 142.706106 89.454739 
L 143.468691 87.309877 
L 144.231277 86.920099 
L 144.993862 87.816856 
L 146.519034 90.935961 
L 147.281619 91.926477 
L 148.044205 91.835306 
L 148.806791 90.363121 
L 149.569376 87.557262 
L 152.619719 72.847245 
L 153.382305 70.23921 
L 154.14489 68.156554 
L 154.907476 66.644585 
L 155.670062 66.004358 
L 156.432647 66.727984 
L 157.195233 69.211078 
L 157.957819 73.406171 
L 160.245576 88.958136 
L 161.008161 92.929065 
L 162.533333 99.450474 
L 164.058504 104.961519 
L 164.82109 106.786938 
L 166.346261 109.3592 
L 167.108847 111.468811 
L 167.871432 114.637391 
L 169.396603 121.519547 
L 170.159189 123.082114 
L 170.921775 122.565273 
L 171.68436 120.286162 
L 173.209532 114.01445 
L 173.972117 111.651808 
L 174.734703 110.2405 
L 175.497289 109.626944 
L 176.259874 109.496367 
L 177.785046 109.719035 
L 178.547631 109.972525 
L 179.310217 110.44854 
L 180.072803 111.236142 
L 182.36056 114.336876 
L 183.123145 114.700242 
L 183.885731 114.265603 
L 184.648317 112.897867 
L 185.410902 110.608906 
L 186.173488 107.54489 
L 187.698659 100.046446 
L 189.223831 92.646609 
L 189.986416 89.832585 
L 190.749002 87.999513 
L 191.511587 87.174368 
L 193.036759 86.935785 
L 193.799344 86.087549 
L 194.56193 83.788064 
L 195.324516 79.64419 
L 196.087101 73.684272 
L 197.612273 58.192613 
L 197.612273 58.192613 
" clip-path="url(#pc5fcb739d5)" style="fill: none; stroke: #1f77b4; stroke-width: 1.5; stroke-linecap: square"/>
   </g>
   <g id="line2d_11">
    <path d="M 45.857727 130.355959 
L 47.382899 123.043971 
L 48.90807 116.932957 
L 50.433241 111.887011 
L 51.958413 107.841807 
L 53.483584 104.772634 
L 54.246169 103.598257 
L 55.008755 102.658495 
L 55.771341 101.946342 
L 56.533926 101.451989 
L 57.296512 101.162754 
L 58.059098 101.063315 
L 58.821683 101.136247 
L 59.584269 101.362815 
L 61.10944 102.201534 
L 62.634612 103.44403 
L 64.159783 105.001943 
L 65.684954 106.852648 
L 67.210126 109.030228 
L 68.735297 111.588605 
L 70.260468 114.552075 
L 72.548225 119.634075 
L 76.361153 128.364363 
L 77.886325 131.254885 
L 79.411496 133.465012 
L 80.174082 134.266127 
L 80.936667 134.848755 
L 81.699253 135.207891 
L 82.461839 135.343978 
L 83.224424 135.262592 
L 83.98701 134.973931 
L 84.749596 134.492177 
L 85.512181 133.834768 
L 87.037353 132.074504 
L 88.562524 129.868977 
L 91.612867 124.816667 
L 96.188381 117.231704 
L 100.001309 110.864806 
L 103.814237 104.342727 
L 105.339408 102.098415 
L 106.86458 100.312273 
L 108.389751 99.087496 
L 109.152337 98.696077 
L 109.914922 98.449023 
L 110.677508 98.341155 
L 111.440094 98.367085 
L 112.202679 98.523015 
L 112.965265 98.808209 
L 113.727851 99.225902 
L 114.490436 99.783464 
L 115.253022 100.491767 
L 116.015608 101.363762 
L 117.540779 103.648178 
L 119.06595 106.694432 
L 120.591122 110.440349 
L 125.166635 122.793391 
L 125.929221 124.411138 
L 126.691807 125.75242 
L 127.454392 126.778909 
L 128.216978 127.465199 
L 128.979564 127.799399 
L 129.742149 127.782567 
L 130.504735 127.42714 
L 131.267321 126.754623 
L 132.029906 125.792882 
L 132.792492 124.573416 
L 134.317663 121.491645 
L 135.842835 117.758315 
L 138.130592 111.41412 
L 142.706106 98.450311 
L 144.993862 92.826253 
L 147.281619 87.931753 
L 148.806791 85.038443 
L 150.331962 82.512883 
L 151.857133 80.548092 
L 152.619719 79.862183 
L 153.382305 79.42381 
L 154.14489 79.266969 
L 154.907476 79.418848 
L 155.670062 79.896966 
L 156.432647 80.707148 
L 157.195233 81.84251 
L 157.957819 83.283534 
L 159.48299 86.948545 
L 161.008161 91.352245 
L 164.82109 102.845039 
L 166.346261 106.669308 
L 167.871432 109.678784 
L 168.634018 110.842696 
L 169.396603 111.775444 
L 170.159189 112.483409 
L 170.921775 112.980017 
L 171.68436 113.284906 
L 172.446946 113.422597 
L 173.972117 113.307931 
L 175.497289 112.855388 
L 177.785046 111.876378 
L 179.310217 111.068018 
L 180.835388 110.02929 
L 182.36056 108.603757 
L 183.885731 106.648778 
L 185.410902 104.090345 
L 186.936074 100.947593 
L 188.461245 97.323388 
L 190.749002 91.313801 
L 194.56193 80.664953 
L 196.849687 73.708465 
L 197.612273 71.155622 
L 197.612273 71.155622 
" clip-path="url(#pc5fcb739d5)" style="fill: none; stroke: #ff7f0e; stroke-width: 1.5; stroke-linecap: square"/>
   </g>
   <g id="line2d_12">
    <path d="M 45.857727 102.332009 
L 48.90807 103.729316 
L 52.720998 105.723367 
L 64.922369 112.354743 
L 68.735297 114.049629 
L 71.78564 115.16366 
L 74.835982 116.033523 
L 77.886325 116.646282 
L 80.936667 117.001985 
L 83.98701 117.11268 
L 87.037353 117.000696 
L 90.850281 116.594202 
L 94.663209 115.95692 
L 100.001309 114.814103 
L 112.202679 111.853529 
L 125.929221 108.394806 
L 134.317663 105.993492 
L 144.231277 103.128771 
L 148.806791 102.030697 
L 152.619719 101.321229 
L 156.432647 100.836305 
L 160.245576 100.583953 
L 164.058504 100.54059 
L 169.396603 100.716478 
L 176.259874 100.950344 
L 180.072803 100.835981 
L 183.123145 100.498041 
L 185.410902 100.053992 
L 187.698659 99.414828 
L 189.986416 98.554113 
L 192.274173 97.447933 
L 194.56193 96.075284 
L 196.849687 94.418342 
L 197.612273 93.80025 
L 197.612273 93.80025 
" clip-path="url(#pc5fcb739d5)" style="fill: none; stroke: #2ca02c; stroke-width: 1.5; stroke-linecap: square"/>
   </g>
   <g id="patch_3">
    <path d="M 38.27 174.04 
L 38.27 26.88 
" style="fill: none; stroke: #000000; stroke-width: 0.8; stroke-linejoin: miter; stroke-linecap: square"/>
   </g>
   <g id="patch_4">
    <path d="M 205.2 174.04 
L 205.2 26.88 
" style="fill: none; stroke: #000000; stroke-width: 0.8; stroke-linejoin: miter; stroke-linecap: square"/>
   </g>
   <g id="patch_5">
    <path d="M 38.27 174.04 
L 205.2 174.04 
" style="fill: none; stroke: #000000; stroke-width: 0.8; stroke-linejoin: miter; stroke-linecap: square"/>
   </g>
   <g id="patch_6">
    <path d="M 38.27 26.88 
L 205.2 26.88 
" style="fill: none; stroke: #000000; stroke-width: 0.8; stroke-linejoin: miter; stroke-linecap: square"/>
   </g>
   <g id="text_12">
    <!-- Local Linear Regression -->
    <g transform="translate(50.905937 20.88)scale(0.12 -0.12)">
     <defs>
      <path id="DejaVuSans-4c" d="M 628 4666 
L 1259 4666 
L 1259 531 
L 3531 531 
L 3531 0 
L 628 0 
L 628 4666 
z
" transform="scale(0.015625)"/>
      <path id="DejaVuSans-6f" d="M 1959 3097 
Q 1497 3097 1228 2736 
Q 959 2375 959 1747 
Q 959 1119 1226 758 
Q 1494 397 1959 397 
Q 2419 397 2687 759 
Q 2956 1122 2956 1747 
Q 2956 2369 2687 2733 
Q 2419 3097 1959 3097 
z
M 1959 3584 
Q 2709 3584 3137 3096 
Q 3566 2609 3566 1747 
Q 3566 888 3137 398 
Q 2709 -91 1959 -91 
Q 1206 -91 779 398 
Q 353 888 353 1747 
Q 353 2609 779 3096 
Q 1206 3584 1959 3584 
z
" transform="scale(0.015625)"/>
      <path id="DejaVuSans-63" d="M 3122 3366 
L 3122 2828 
Q 2878 2963 2633 3030 
Q 2388 3097 2138 3097 
Q 1578 3097 1268 2742 
Q 959 2388 959 1747 
Q 959 1106 1268 751 
Q 1578 397 2138 397 
Q 2388 397 2633 464 
Q 2878 531 3122 666 
L 3122 134 
Q 2881 22 2623 -34 
Q 2366 -91 2075 -91 
Q 1284 -91 818 406 
Q 353 903 353 1747 
Q 353 2603 823 3093 
Q 1294 3584 2113 3584 
Q 2378 3584 2631 3529 
Q 2884 3475 3122 3366 
z
" transform="scale(0.015625)"/>
      <path id="DejaVuSans-61" d="M 2194 1759 
Q 1497 1759 1228 1600 
Q 959 1441 959 1056 
Q 959 750 1161 570 
Q 1363 391 1709 391 
Q 2188 391 2477 730 
Q 2766 1069 2766 1631 
L 2766 1759 
L 2194 1759 
z
M 3341 1997 
L 3341 0 
L 2766 0 
L 2766 531 
Q 2569 213 2275 61 
Q 1981 -91 1556 -91 
Q 1019 -91 701 211 
Q 384 513 384 1019 
Q 384 1609 779 1909 
Q 1175 2209 1959 2209 
L 2766 2209 
L 2766 2266 
Q 2766 2663 2505 2880 
Q 2244 3097 1772 3097 
Q 1472 3097 1187 3025 
Q 903 2953 641 2809 
L 641 3341 
Q 956 3463 1253 3523 
Q 1550 3584 1831 3584 
Q 2591 3584 2966 3190 
Q 3341 2797 3341 1997 
z
" transform="scale(0.015625)"/>
      <path id="DejaVuSans-6c" d="M 603 4863 
L 1178 4863 
L 1178 0 
L 603 0 
L 603 4863 
z
" transform="scale(0.015625)"/>
      <path id="DejaVuSans-20" transform="scale(0.015625)"/>
      <path id="DejaVuSans-69" d="M 603 3500 
L 1178 3500 
L 1178 0 
L 603 0 
L 603 3500 
z
M 603 4863 
L 1178 4863 
L 1178 4134 
L 603 4134 
L 603 4863 
z
" transform="scale(0.015625)"/>
      <path id="DejaVuSans-6e" d="M 3513 2113 
L 3513 0 
L 2938 0 
L 2938 2094 
Q 2938 2591 2744 2837 
Q 2550 3084 2163 3084 
Q 1697 3084 1428 2787 
Q 1159 2491 1159 1978 
L 1159 0 
L 581 0 
L 581 3500 
L 1159 3500 
L 1159 2956 
Q 1366 3272 1645 3428 
Q 1925 3584 2291 3584 
Q 2894 3584 3203 3211 
Q 3513 2838 3513 2113 
z
" transform="scale(0.015625)"/>
      <path id="DejaVuSans-65" d="M 3597 1894 
L 3597 1613 
L 953 1613 
Q 991 1019 1311 708 
Q 1631 397 2203 397 
Q 2534 397 2845 478 
Q 3156 559 3463 722 
L 3463 178 
Q 3153 47 2828 -22 
Q 2503 -91 2169 -91 
Q 1331 -91 842 396 
Q 353 884 353 1716 
Q 353 2575 817 3079 
Q 1281 3584 2069 3584 
Q 2775 3584 3186 3129 
Q 3597 2675 3597 1894 
z
M 3022 2063 
Q 3016 2534 2758 2815 
Q 2500 3097 2075 3097 
Q 1594 3097 1305 2825 
Q 1016 2553 972 2059 
L 3022 2063 
z
" transform="scale(0.015625)"/>
      <path id="DejaVuSans-72" d="M 2631 2963 
Q 2534 3019 2420 3045 
Q 2306 3072 2169 3072 
Q 1681 3072 1420 2755 
Q 1159 2438 1159 1844 
L 1159 0 
L 581 0 
L 581 3500 
L 1159 3500 
L 1159 2956 
Q 1341 3275 1631 3429 
Q 1922 3584 2338 3584 
Q 2397 3584 2469 3576 
Q 2541 3569 2628 3553 
L 2631 2963 
z
" transform="scale(0.015625)"/>
      <path id="DejaVuSans-52" d="M 2841 2188 
Q 3044 2119 3236 1894 
Q 3428 1669 3622 1275 
L 4263 0 
L 3584 0 
L 2988 1197 
Q 2756 1666 2539 1819 
Q 2322 1972 1947 1972 
L 1259 1972 
L 1259 0 
L 628 0 
L 628 4666 
L 2053 4666 
Q 2853 4666 3247 4331 
Q 3641 3997 3641 3322 
Q 3641 2881 3436 2590 
Q 3231 2300 2841 2188 
z
M 1259 4147 
L 1259 2491 
L 2053 2491 
Q 2509 2491 2742 2702 
Q 2975 2913 2975 3322 
Q 2975 3731 2742 3939 
Q 2509 4147 2053 4147 
L 1259 4147 
z
" transform="scale(0.015625)"/>
      <path id="DejaVuSans-67" d="M 2906 1791 
Q 2906 2416 2648 2759 
Q 2391 3103 1925 3103 
Q 1463 3103 1205 2759 
Q 947 2416 947 1791 
Q 947 1169 1205 825 
Q 1463 481 1925 481 
Q 2391 481 2648 825 
Q 2906 1169 2906 1791 
z
M 3481 434 
Q 3481 -459 3084 -895 
Q 2688 -1331 1869 -1331 
Q 1566 -1331 1297 -1286 
Q 1028 -1241 775 -1147 
L 775 -588 
Q 1028 -725 1275 -790 
Q 1522 -856 1778 -856 
Q 2344 -856 2625 -561 
Q 2906 -266 2906 331 
L 2906 616 
Q 2728 306 2450 153 
Q 2172 0 1784 0 
Q 1141 0 747 490 
Q 353 981 353 1791 
Q 353 2603 747 3093 
Q 1141 3584 1784 3584 
Q 2172 3584 2450 3431 
Q 2728 3278 2906 2969 
L 2906 3500 
L 3481 3500 
L 3481 434 
z
" transform="scale(0.015625)"/>
      <path id="DejaVuSans-73" d="M 2834 3397 
L 2834 2853 
Q 2591 2978 2328 3040 
Q 2066 3103 1784 3103 
Q 1356 3103 1142 2972 
Q 928 2841 928 2578 
Q 928 2378 1081 2264 
Q 1234 2150 1697 2047 
L 1894 2003 
Q 2506 1872 2764 1633 
Q 3022 1394 3022 966 
Q 3022 478 2636 193 
Q 2250 -91 1575 -91 
Q 1294 -91 989 -36 
Q 684 19 347 128 
L 347 722 
Q 666 556 975 473 
Q 1284 391 1588 391 
Q 1994 391 2212 530 
Q 2431 669 2431 922 
Q 2431 1156 2273 1281 
Q 2116 1406 1581 1522 
L 1381 1569 
Q 847 1681 609 1914 
Q 372 2147 372 2553 
Q 372 3047 722 3315 
Q 1072 3584 1716 3584 
Q 2034 3584 2315 3537 
Q 2597 3491 2834 3397 
z
" transform="scale(0.015625)"/>
     </defs>
     <use xlink:href="#DejaVuSans-4c"/>
     <use xlink:href="#DejaVuSans-6f" x="53.962891"/>
     <use xlink:href="#DejaVuSans-63" x="115.144531"/>
     <use xlink:href="#DejaVuSans-61" x="170.125"/>
     <use xlink:href="#DejaVuSans-6c" x="231.404297"/>
     <use xlink:href="#DejaVuSans-20" x="259.1875"/>
     <use xlink:href="#DejaVuSans-4c" x="290.974609"/>
     <use xlink:href="#DejaVuSans-69" x="346.6875"/>
     <use xlink:href="#DejaVuSans-6e" x="374.470703"/>
     <use xlink:href="#DejaVuSans-65" x="437.849609"/>
     <use xlink:href="#DejaVuSans-61" x="499.373047"/>
     <use xlink:href="#DejaVuSans-72" x="560.652344"/>
     <use xlink:href="#DejaVuSans-20" x="601.765625"/>
     <use xlink:href="#DejaVuSans-52" x="633.552734"/>
     <use xlink:href="#DejaVuSans-65" x="698.535156"/>
     <use xlink:href="#DejaVuSans-67" x="760.058594"/>
     <use xlink:href="#DejaVuSans-72" x="823.535156"/>
     <use xlink:href="#DejaVuSans-65" x="862.398438"/>
     <use xlink:href="#DejaVuSans-73" x="923.921875"/>
     <use xlink:href="#DejaVuSans-73" x="976.021484"/>
     <use xlink:href="#DejaVuSans-69" x="1028.121094"/>
     <use xlink:href="#DejaVuSans-6f" x="1055.904297"/>
     <use xlink:href="#DejaVuSans-6e" x="1117.085938"/>
    </g>
   </g>
   <g id="legend_1">
    <g id="patch_7">
     <path d="M 45.27 93.5925 
L 159.57 93.5925 
Q 161.57 93.5925 161.57 91.5925 
L 161.57 33.88 
Q 161.57 31.88 159.57 31.88 
L 45.27 31.88 
Q 43.27 31.88 43.27 33.88 
L 43.27 91.5925 
Q 43.27 93.5925 45.27 93.5925 
z
" style="fill: #ffffff; opacity: 0.8; stroke: #cccccc; stroke-linejoin: miter"/>
    </g>
    <g id="PathCollection_2">
     <g>
      <use xlink:href="#ma0ec7ba333" x="57.27" y="40.853437" style="stroke: #000000"/>
     </g>
    </g>
    <g id="text_13">
     <!-- data -->
     <g transform="translate(75.27 43.478437)scale(0.1 -0.1)">
      <defs>
       <path id="DejaVuSans-64" d="M 2906 2969 
L 2906 4863 
L 3481 4863 
L 3481 0 
L 2906 0 
L 2906 525 
Q 2725 213 2448 61 
Q 2172 -91 1784 -91 
Q 1150 -91 751 415 
Q 353 922 353 1747 
Q 353 2572 751 3078 
Q 1150 3584 1784 3584 
Q 2172 3584 2448 3432 
Q 2725 3281 2906 2969 
z
M 947 1747 
Q 947 1113 1208 752 
Q 1469 391 1925 391 
Q 2381 391 2643 752 
Q 2906 1113 2906 1747 
Q 2906 2381 2643 2742 
Q 2381 3103 1925 3103 
Q 1469 3103 1208 2742 
Q 947 2381 947 1747 
z
" transform="scale(0.015625)"/>
       <path id="DejaVuSans-74" d="M 1172 4494 
L 1172 3500 
L 2356 3500 
L 2356 3053 
L 1172 3053 
L 1172 1153 
Q 1172 725 1289 603 
Q 1406 481 1766 481 
L 2356 481 
L 2356 0 
L 1766 0 
Q 1100 0 847 248 
Q 594 497 594 1153 
L 594 3053 
L 172 3053 
L 172 3500 
L 594 3500 
L 594 4494 
L 1172 4494 
z
" transform="scale(0.015625)"/>
      </defs>
      <use xlink:href="#DejaVuSans-64"/>
      <use xlink:href="#DejaVuSans-61" x="63.476562"/>
      <use xlink:href="#DejaVuSans-74" x="124.755859"/>
      <use xlink:href="#DejaVuSans-61" x="163.964844"/>
     </g>
    </g>
    <g id="line2d_13">
     <path d="M 47.27 54.656562 
L 57.27 54.656562 
L 67.27 54.656562 
" style="fill: none; stroke: #1f77b4; stroke-width: 1.5; stroke-linecap: square"/>
    </g>
    <g id="text_14">
     <!-- LLR with $\lambda$ = 0.4 -->
     <g transform="translate(75.27 58.156562)scale(0.1 -0.1)">
      <defs>
       <path id="DejaVuSans-77" d="M 269 3500 
L 844 3500 
L 1563 769 
L 2278 3500 
L 2956 3500 
L 3675 769 
L 4391 3500 
L 4966 3500 
L 4050 0 
L 3372 0 
L 2619 2869 
L 1863 0 
L 1184 0 
L 269 3500 
z
" transform="scale(0.015625)"/>
       <path id="DejaVuSans-68" d="M 3513 2113 
L 3513 0 
L 2938 0 
L 2938 2094 
Q 2938 2591 2744 2837 
Q 2550 3084 2163 3084 
Q 1697 3084 1428 2787 
Q 1159 2491 1159 1978 
L 1159 0 
L 581 0 
L 581 4863 
L 1159 4863 
L 1159 2956 
Q 1366 3272 1645 3428 
Q 1925 3584 2291 3584 
Q 2894 3584 3203 3211 
Q 3513 2838 3513 2113 
z
" transform="scale(0.015625)"/>
       <path id="DejaVuSans-Oblique-3bb" d="M 2350 4316 
L 3125 0 
L 2516 0 
L 2038 2588 
L 328 0 
L -281 0 
L 1903 3356 
L 1794 3975 
Q 1725 4369 1391 4369 
L 1091 4369 
L 1184 4863 
L 1550 4856 
Q 2253 4847 2350 4316 
z
" transform="scale(0.015625)"/>
       <path id="DejaVuSans-3d" d="M 678 2906 
L 4684 2906 
L 4684 2381 
L 678 2381 
L 678 2906 
z
M 678 1631 
L 4684 1631 
L 4684 1100 
L 678 1100 
L 678 1631 
z
" transform="scale(0.015625)"/>
       <path id="DejaVuSans-2e" d="M 684 794 
L 1344 794 
L 1344 0 
L 684 0 
L 684 794 
z
" transform="scale(0.015625)"/>
      </defs>
      <use xlink:href="#DejaVuSans-4c" transform="translate(0 0.015625)"/>
      <use xlink:href="#DejaVuSans-4c" transform="translate(55.712891 0.015625)"/>
      <use xlink:href="#DejaVuSans-52" transform="translate(111.425781 0.015625)"/>
      <use xlink:href="#DejaVuSans-20" transform="translate(180.908203 0.015625)"/>
      <use xlink:href="#DejaVuSans-77" transform="translate(212.695312 0.015625)"/>
      <use xlink:href="#DejaVuSans-69" transform="translate(294.482422 0.015625)"/>
      <use xlink:href="#DejaVuSans-74" transform="translate(322.265625 0.015625)"/>
      <use xlink:href="#DejaVuSans-68" transform="translate(361.474609 0.015625)"/>
      <use xlink:href="#DejaVuSans-20" transform="translate(424.853516 0.015625)"/>
      <use xlink:href="#DejaVuSans-Oblique-3bb" transform="translate(456.640625 0.015625)"/>
      <use xlink:href="#DejaVuSans-20" transform="translate(515.820312 0.015625)"/>
      <use xlink:href="#DejaVuSans-3d" transform="translate(547.607422 0.015625)"/>
      <use xlink:href="#DejaVuSans-20" transform="translate(631.396484 0.015625)"/>
      <use xlink:href="#DejaVuSans-30" transform="translate(663.183594 0.015625)"/>
      <use xlink:href="#DejaVuSans-2e" transform="translate(726.806641 0.015625)"/>
      <use xlink:href="#DejaVuSans-34" transform="translate(758.59375 0.015625)"/>
     </g>
    </g>
    <g id="line2d_14">
     <path d="M 47.27 69.334687 
L 57.27 69.334687 
L 67.27 69.334687 
" style="fill: none; stroke: #ff7f0e; stroke-width: 1.5; stroke-linecap: square"/>
    </g>
    <g id="text_15">
     <!-- LLR with $\lambda$ = 1 -->
     <g transform="translate(75.27 72.834687)scale(0.1 -0.1)">
      <use xlink:href="#DejaVuSans-4c" transform="translate(0 0.015625)"/>
      <use xlink:href="#DejaVuSans-4c" transform="translate(55.712891 0.015625)"/>
      <use xlink:href="#DejaVuSans-52" transform="translate(111.425781 0.015625)"/>
      <use xlink:href="#DejaVuSans-20" transform="translate(180.908203 0.015625)"/>
      <use xlink:href="#DejaVuSans-77" transform="translate(212.695312 0.015625)"/>
      <use xlink:href="#DejaVuSans-69" transform="translate(294.482422 0.015625)"/>
      <use xlink:href="#DejaVuSans-74" transform="translate(322.265625 0.015625)"/>
      <use xlink:href="#DejaVuSans-68" transform="translate(361.474609 0.015625)"/>
      <use xlink:href="#DejaVuSans-20" transform="translate(424.853516 0.015625)"/>
      <use xlink:href="#DejaVuSans-Oblique-3bb" transform="translate(456.640625 0.015625)"/>
      <use xlink:href="#DejaVuSans-20" transform="translate(515.820312 0.015625)"/>
      <use xlink:href="#DejaVuSans-3d" transform="translate(547.607422 0.015625)"/>
      <use xlink:href="#DejaVuSans-20" transform="translate(631.396484 0.015625)"/>
      <use xlink:href="#DejaVuSans-31" transform="translate(663.183594 0.015625)"/>
     </g>
    </g>
    <g id="line2d_15">
     <path d="M 47.27 84.012812 
L 57.27 84.012812 
L 67.27 84.012812 
" style="fill: none; stroke: #2ca02c; stroke-width: 1.5; stroke-linecap: square"/>
    </g>
    <g id="text_16">
     <!-- LLR with $\lambda$ = 4 -->
     <g transform="translate(75.27 87.512812)scale(0.1 -0.1)">
      <use xlink:href="#DejaVuSans-4c" transform="translate(0 0.015625)"/>
      <use xlink:href="#DejaVuSans-4c" transform="translate(55.712891 0.015625)"/>
      <use xlink:href="#DejaVuSans-52" transform="translate(111.425781 0.015625)"/>
      <use xlink:href="#DejaVuSans-20" transform="translate(180.908203 0.015625)"/>
      <use xlink:href="#DejaVuSans-77" transform="translate(212.695312 0.015625)"/>
      <use xlink:href="#DejaVuSans-69" transform="translate(294.482422 0.015625)"/>
      <use xlink:href="#DejaVuSans-74" transform="translate(322.265625 0.015625)"/>
      <use xlink:href="#DejaVuSans-68" transform="translate(361.474609 0.015625)"/>
      <use xlink:href="#DejaVuSans-20" transform="translate(424.853516 0.015625)"/>
      <use xlink:href="#DejaVuSans-Oblique-3bb" transform="translate(456.640625 0.015625)"/>
      <use xlink:href="#DejaVuSans-20" transform="translate(515.820312 0.015625)"/>
      <use xlink:href="#DejaVuSans-3d" transform="translate(547.607422 0.015625)"/>
      <use xlink:href="#DejaVuSans-20" transform="translate(631.396484 0.015625)"/>
      <use xlink:href="#DejaVuSans-34" transform="translate(663.183594 0.015625)"/>
     </g>
    </g>
   </g>
  </g>
 </g>
 <defs>
  <clipPath id="pc5fcb739d5">
   <rect x="38.27" y="26.88" width="166.93" height="147.16"/>
  </clipPath>
 </defs>
</svg>
