<?xml version="1.0" encoding="utf-8" standalone="no"?>
<!DOCTYPE svg PUBLIC "-//W3C//DTD SVG 1.1//EN"
  "http://www.w3.org/Graphics/SVG/1.1/DTD/svg11.dtd">
<svg xmlns:xlink="http://www.w3.org/1999/xlink" width="216pt" height="216pt" viewBox="0 0 216 216" xmlns="http://www.w3.org/2000/svg" version="1.1">
 <metadata>
  <rdf:RDF xmlns:dc="http://purl.org/dc/elements/1.1/" xmlns:cc="http://creativecommons.org/ns#" xmlns:rdf="http://www.w3.org/1999/02/22-rdf-syntax-ns#">
   <cc:Work>
    <dc:type rdf:resource="http://purl.org/dc/dcmitype/StillImage"/>
    <dc:date>2024-02-15T18:25:01.339978</dc:date>
    <dc:format>image/svg+xml</dc:format>
    <dc:creator>
     <cc:Agent>
      <dc:title>Matplotlib v3.5.1, https://matplotlib.org/</dc:title>
     </cc:Agent>
    </dc:creator>
   </cc:Work>
  </rdf:RDF>
 </metadata>
 <defs>
  <style type="text/css">*{stroke-linejoin: round; stroke-linecap: butt}</style>
 </defs>
 <g id="figure_1">
  <g id="patch_1">
   <path d="M 0 216 
L 216 216 
L 216 0 
L 0 0 
z
" style="fill: #ffffff"/>
  </g>
  <g id="axes_1">
   <g id="patch_2">
    <path d="M 38.27 174.04 
L 205.2 174.04 
L 205.2 26.88 
L 38.27 26.88 
z
" style="fill: #ffffff"/>
   </g>
   <g id="PathCollection_1">
    <defs>
     <path id="mf7647e938d" d="M 0 1.118034 
C 0.296506 1.118034 0.580908 1.000231 0.790569 0.790569 
C 1.000231 0.580908 1.118034 0.296506 1.118034 0 
C 1.118034 -0.296506 1.000231 -0.580908 0.790569 -0.790569 
C 0.580908 -1.000231 0.296506 -1.118034 0 -1.118034 
C -0.296506 -1.118034 -0.580908 -1.000231 -0.790569 -0.790569 
C -1.000231 -0.580908 -1.118034 -0.296506 -1.118034 0 
C -1.118034 0.296506 -1.000231 0.580908 -0.790569 0.790569 
C -0.580908 1.000231 -0.296506 1.118034 0 1.118034 
z
" style="stroke: #000000"/>
    </defs>
    <g clip-path="url(#p0905358709)">
     <use xlink:href="#mf7647e938d" x="47.382899" y="66.789079" style="stroke: #000000"/>
     <use xlink:href="#mf7647e938d" x="48.90807" y="144.168665" style="stroke: #000000"/>
     <use xlink:href="#mf7647e938d" x="50.433241" y="103.08964" style="stroke: #000000"/>
     <use xlink:href="#mf7647e938d" x="51.958413" y="88.164329" style="stroke: #000000"/>
     <use xlink:href="#mf7647e938d" x="53.483584" y="65.123646" style="stroke: #000000"/>
     <use xlink:href="#mf7647e938d" x="55.008755" y="69.88001" style="stroke: #000000"/>
     <use xlink:href="#mf7647e938d" x="56.533926" y="65.518056" style="stroke: #000000"/>
     <use xlink:href="#mf7647e938d" x="58.059098" y="109.885105" style="stroke: #000000"/>
     <use xlink:href="#mf7647e938d" x="59.584269" y="103.448728" style="stroke: #000000"/>
     <use xlink:href="#mf7647e938d" x="61.10944" y="78.263302" style="stroke: #000000"/>
     <use xlink:href="#mf7647e938d" x="62.634612" y="109.124873" style="stroke: #000000"/>
     <use xlink:href="#mf7647e938d" x="64.159783" y="109.417378" style="stroke: #000000"/>
     <use xlink:href="#mf7647e938d" x="65.684954" y="87.81825" style="stroke: #000000"/>
     <use xlink:href="#mf7647e938d" x="67.210126" y="99.459483" style="stroke: #000000"/>
     <use xlink:href="#mf7647e938d" x="68.735297" y="152.354825" style="stroke: #000000"/>
     <use xlink:href="#mf7647e938d" x="70.260468" y="119.359284" style="stroke: #000000"/>
     <use xlink:href="#mf7647e938d" x="71.78564" y="93.653542" style="stroke: #000000"/>
     <use xlink:href="#mf7647e938d" x="73.310811" y="99.458503" style="stroke: #000000"/>
     <use xlink:href="#mf7647e938d" x="74.835982" y="133.365533" style="stroke: #000000"/>
     <use xlink:href="#mf7647e938d" x="76.361153" y="115.52568" style="stroke: #000000"/>
     <use xlink:href="#mf7647e938d" x="77.886325" y="99.648816" style="stroke: #000000"/>
     <use xlink:href="#mf7647e938d" x="79.411496" y="150.938586" style="stroke: #000000"/>
     <use xlink:href="#mf7647e938d" x="80.936667" y="119.75709" style="stroke: #000000"/>
     <use xlink:href="#mf7647e938d" x="82.461839" y="109.996625" style="stroke: #000000"/>
     <use xlink:href="#mf7647e938d" x="83.98701" y="162.804573" style="stroke: #000000"/>
     <use xlink:href="#mf7647e938d" x="85.512181" y="152.552888" style="stroke: #000000"/>
     <use xlink:href="#mf7647e938d" x="87.037353" y="101.658004" style="stroke: #000000"/>
     <use xlink:href="#mf7647e938d" x="88.562524" y="117.776339" style="stroke: #000000"/>
     <use xlink:href="#mf7647e938d" x="90.087695" y="127.330074" style="stroke: #000000"/>
     <use xlink:href="#mf7647e938d" x="91.612867" y="115.310169" style="stroke: #000000"/>
     <use xlink:href="#mf7647e938d" x="93.138038" y="167.350909" style="stroke: #000000"/>
     <use xlink:href="#mf7647e938d" x="94.663209" y="137.020599" style="stroke: #000000"/>
     <use xlink:href="#mf7647e938d" x="96.188381" y="115.51736" style="stroke: #000000"/>
     <use xlink:href="#mf7647e938d" x="97.713552" y="92.128218" style="stroke: #000000"/>
     <use xlink:href="#mf7647e938d" x="99.238723" y="125.212972" style="stroke: #000000"/>
     <use xlink:href="#mf7647e938d" x="100.763894" y="79.125335" style="stroke: #000000"/>
     <use xlink:href="#mf7647e938d" x="102.289066" y="85.198299" style="stroke: #000000"/>
     <use xlink:href="#mf7647e938d" x="103.814237" y="106.190865" style="stroke: #000000"/>
     <use xlink:href="#mf7647e938d" x="105.339408" y="84.304019" style="stroke: #000000"/>
     <use xlink:href="#mf7647e938d" x="106.86458" y="124.590155" style="stroke: #000000"/>
     <use xlink:href="#mf7647e938d" x="108.389751" y="44.494483" style="stroke: #000000"/>
     <use xlink:href="#mf7647e938d" x="109.914922" y="70.205703" style="stroke: #000000"/>
     <use xlink:href="#mf7647e938d" x="111.440094" y="107.831606" style="stroke: #000000"/>
     <use xlink:href="#mf7647e938d" x="112.965265" y="61.851234" style="stroke: #000000"/>
     <use xlink:href="#mf7647e938d" x="114.490436" y="74.539888" style="stroke: #000000"/>
     <use xlink:href="#mf7647e938d" x="116.015608" y="91.296956" style="stroke: #000000"/>
     <use xlink:href="#mf7647e938d" x="117.540779" y="112.566511" style="stroke: #000000"/>
     <use xlink:href="#mf7647e938d" x="119.06595" y="98.867031" style="stroke: #000000"/>
     <use xlink:href="#mf7647e938d" x="120.591122" y="125.682665" style="stroke: #000000"/>
     <use xlink:href="#mf7647e938d" x="122.116293" y="87.770529" style="stroke: #000000"/>
     <use xlink:href="#mf7647e938d" x="123.641464" y="137.404424" style="stroke: #000000"/>
     <use xlink:href="#mf7647e938d" x="125.166635" y="124.305142" style="stroke: #000000"/>
     <use xlink:href="#mf7647e938d" x="126.691807" y="96.840965" style="stroke: #000000"/>
     <use xlink:href="#mf7647e938d" x="128.216978" y="115.178269" style="stroke: #000000"/>
     <use xlink:href="#mf7647e938d" x="129.742149" y="118.759667" style="stroke: #000000"/>
     <use xlink:href="#mf7647e938d" x="131.267321" y="119.147353" style="stroke: #000000"/>
     <use xlink:href="#mf7647e938d" x="132.792492" y="99.319662" style="stroke: #000000"/>
     <use xlink:href="#mf7647e938d" x="134.317663" y="140.049957" style="stroke: #000000"/>
     <use xlink:href="#mf7647e938d" x="135.842835" y="117.131445" style="stroke: #000000"/>
     <use xlink:href="#mf7647e938d" x="137.368006" y="83.904911" style="stroke: #000000"/>
     <use xlink:href="#mf7647e938d" x="138.893177" y="89.196431" style="stroke: #000000"/>
     <use xlink:href="#mf7647e938d" x="140.418349" y="102.452161" style="stroke: #000000"/>
     <use xlink:href="#mf7647e938d" x="141.94352" y="33.569091" style="stroke: #000000"/>
     <use xlink:href="#mf7647e938d" x="143.468691" y="108.119907" style="stroke: #000000"/>
     <use xlink:href="#mf7647e938d" x="144.993862" y="84.445127" style="stroke: #000000"/>
     <use xlink:href="#mf7647e938d" x="146.519034" y="101.703436" style="stroke: #000000"/>
     <use xlink:href="#mf7647e938d" x="148.044205" y="98.666123" style="stroke: #000000"/>
     <use xlink:href="#mf7647e938d" x="149.569376" y="105.183815" style="stroke: #000000"/>
     <use xlink:href="#mf7647e938d" x="151.094548" y="62.036914" style="stroke: #000000"/>
     <use xlink:href="#mf7647e938d" x="152.619719" y="68.420616" style="stroke: #000000"/>
     <use xlink:href="#mf7647e938d" x="154.14489" y="70.58864" style="stroke: #000000"/>
     <use xlink:href="#mf7647e938d" x="155.670062" y="76.502536" style="stroke: #000000"/>
     <use xlink:href="#mf7647e938d" x="157.195233" y="85.837583" style="stroke: #000000"/>
     <use xlink:href="#mf7647e938d" x="158.720404" y="101.065177" style="stroke: #000000"/>
     <use xlink:href="#mf7647e938d" x="160.245576" y="78.764698" style="stroke: #000000"/>
     <use xlink:href="#mf7647e938d" x="161.770747" y="61.799455" style="stroke: #000000"/>
     <use xlink:href="#mf7647e938d" x="163.295918" y="92.947979" style="stroke: #000000"/>
     <use xlink:href="#mf7647e938d" x="164.82109" y="86.144207" style="stroke: #000000"/>
     <use xlink:href="#mf7647e938d" x="166.346261" y="97.06628" style="stroke: #000000"/>
     <use xlink:href="#mf7647e938d" x="167.871432" y="74.326077" style="stroke: #000000"/>
     <use xlink:href="#mf7647e938d" x="169.396603" y="99.728191" style="stroke: #000000"/>
     <use xlink:href="#mf7647e938d" x="170.921775" y="127.771531" style="stroke: #000000"/>
     <use xlink:href="#mf7647e938d" x="172.446946" y="89.732321" style="stroke: #000000"/>
     <use xlink:href="#mf7647e938d" x="173.972117" y="87.719236" style="stroke: #000000"/>
     <use xlink:href="#mf7647e938d" x="175.497289" y="76.837829" style="stroke: #000000"/>
     <use xlink:href="#mf7647e938d" x="177.02246" y="40.780956" style="stroke: #000000"/>
     <use xlink:href="#mf7647e938d" x="178.547631" y="116.185345" style="stroke: #000000"/>
     <use xlink:href="#mf7647e938d" x="180.072803" y="129.674605" style="stroke: #000000"/>
     <use xlink:href="#mf7647e938d" x="181.597974" y="104.778615" style="stroke: #000000"/>
     <use xlink:href="#mf7647e938d" x="183.123145" y="101.981634" style="stroke: #000000"/>
     <use xlink:href="#mf7647e938d" x="184.648317" y="149.141846" style="stroke: #000000"/>
     <use xlink:href="#mf7647e938d" x="186.173488" y="84.951032" style="stroke: #000000"/>
     <use xlink:href="#mf7647e938d" x="187.698659" y="94.646271" style="stroke: #000000"/>
     <use xlink:href="#mf7647e938d" x="189.223831" y="124.01356" style="stroke: #000000"/>
     <use xlink:href="#mf7647e938d" x="190.749002" y="105.513834" style="stroke: #000000"/>
     <use xlink:href="#mf7647e938d" x="192.274173" y="91.989478" style="stroke: #000000"/>
     <use xlink:href="#mf7647e938d" x="193.799344" y="43.60039" style="stroke: #000000"/>
     <use xlink:href="#mf7647e938d" x="195.324516" y="46.671736" style="stroke: #000000"/>
     <use xlink:href="#mf7647e938d" x="196.849687" y="67.236776" style="stroke: #000000"/>
    </g>
   </g>
   <g id="matplotlib.axis_1">
    <g id="xtick_1">
     <g id="line2d_1">
      <defs>
       <path id="mafc67cc8c8" d="M 0 0 
L 0 3.5 
" style="stroke: #000000; stroke-width: 0.8"/>
      </defs>
      <g>
       <use xlink:href="#mafc67cc8c8" x="45.857727" y="174.04" style="stroke: #000000; stroke-width: 0.8"/>
      </g>
     </g>
     <g id="text_1">
      <!-- 0 -->
      <g transform="translate(42.676477 188.638438)scale(0.1 -0.1)">
       <defs>
        <path id="DejaVuSans-30" d="M 2034 4250 
Q 1547 4250 1301 3770 
Q 1056 3291 1056 2328 
Q 1056 1369 1301 889 
Q 1547 409 2034 409 
Q 2525 409 2770 889 
Q 3016 1369 3016 2328 
Q 3016 3291 2770 3770 
Q 2525 4250 2034 4250 
z
M 2034 4750 
Q 2819 4750 3233 4129 
Q 3647 3509 3647 2328 
Q 3647 1150 3233 529 
Q 2819 -91 2034 -91 
Q 1250 -91 836 529 
Q 422 1150 422 2328 
Q 422 3509 836 4129 
Q 1250 4750 2034 4750 
z
" transform="scale(0.015625)"/>
       </defs>
       <use xlink:href="#DejaVuSans-30"/>
      </g>
     </g>
    </g>
    <g id="xtick_2">
     <g id="line2d_2">
      <g>
       <use xlink:href="#mafc67cc8c8" x="83.98701" y="174.04" style="stroke: #000000; stroke-width: 0.8"/>
      </g>
     </g>
     <g id="text_2">
      <!-- 5 -->
      <g transform="translate(80.80576 188.638438)scale(0.1 -0.1)">
       <defs>
        <path id="DejaVuSans-35" d="M 691 4666 
L 3169 4666 
L 3169 4134 
L 1269 4134 
L 1269 2991 
Q 1406 3038 1543 3061 
Q 1681 3084 1819 3084 
Q 2600 3084 3056 2656 
Q 3513 2228 3513 1497 
Q 3513 744 3044 326 
Q 2575 -91 1722 -91 
Q 1428 -91 1123 -41 
Q 819 9 494 109 
L 494 744 
Q 775 591 1075 516 
Q 1375 441 1709 441 
Q 2250 441 2565 725 
Q 2881 1009 2881 1497 
Q 2881 1984 2565 2268 
Q 2250 2553 1709 2553 
Q 1456 2553 1204 2497 
Q 953 2441 691 2322 
L 691 4666 
z
" transform="scale(0.015625)"/>
       </defs>
       <use xlink:href="#DejaVuSans-35"/>
      </g>
     </g>
    </g>
    <g id="xtick_3">
     <g id="line2d_3">
      <g>
       <use xlink:href="#mafc67cc8c8" x="122.116293" y="174.04" style="stroke: #000000; stroke-width: 0.8"/>
      </g>
     </g>
     <g id="text_3">
      <!-- 10 -->
      <g transform="translate(115.753793 188.638438)scale(0.1 -0.1)">
       <defs>
        <path id="DejaVuSans-31" d="M 794 531 
L 1825 531 
L 1825 4091 
L 703 3866 
L 703 4441 
L 1819 4666 
L 2450 4666 
L 2450 531 
L 3481 531 
L 3481 0 
L 794 0 
L 794 531 
z
" transform="scale(0.015625)"/>
       </defs>
       <use xlink:href="#DejaVuSans-31"/>
       <use xlink:href="#DejaVuSans-30" x="63.623047"/>
      </g>
     </g>
    </g>
    <g id="xtick_4">
     <g id="line2d_4">
      <g>
       <use xlink:href="#mafc67cc8c8" x="160.245576" y="174.04" style="stroke: #000000; stroke-width: 0.8"/>
      </g>
     </g>
     <g id="text_4">
      <!-- 15 -->
      <g transform="translate(153.883076 188.638438)scale(0.1 -0.1)">
       <use xlink:href="#DejaVuSans-31"/>
       <use xlink:href="#DejaVuSans-35" x="63.623047"/>
      </g>
     </g>
    </g>
    <g id="xtick_5">
     <g id="line2d_5">
      <g>
       <use xlink:href="#mafc67cc8c8" x="198.374858" y="174.04" style="stroke: #000000; stroke-width: 0.8"/>
      </g>
     </g>
     <g id="text_5">
      <!-- 20 -->
      <g transform="translate(192.012358 188.638438)scale(0.1 -0.1)">
       <defs>
        <path id="DejaVuSans-32" d="M 1228 531 
L 3431 531 
L 3431 0 
L 469 0 
L 469 531 
Q 828 903 1448 1529 
Q 2069 2156 2228 2338 
Q 2531 2678 2651 2914 
Q 2772 3150 2772 3378 
Q 2772 3750 2511 3984 
Q 2250 4219 1831 4219 
Q 1534 4219 1204 4116 
Q 875 4013 500 3803 
L 500 4441 
Q 881 4594 1212 4672 
Q 1544 4750 1819 4750 
Q 2544 4750 2975 4387 
Q 3406 4025 3406 3419 
Q 3406 3131 3298 2873 
Q 3191 2616 2906 2266 
Q 2828 2175 2409 1742 
Q 1991 1309 1228 531 
z
" transform="scale(0.015625)"/>
       </defs>
       <use xlink:href="#DejaVuSans-32"/>
       <use xlink:href="#DejaVuSans-30" x="63.623047"/>
      </g>
     </g>
    </g>
    <g id="text_6">
     <!-- x -->
     <g transform="translate(118.775625 202.316563)scale(0.1 -0.1)">
      <defs>
       <path id="DejaVuSans-78" d="M 3513 3500 
L 2247 1797 
L 3578 0 
L 2900 0 
L 1881 1375 
L 863 0 
L 184 0 
L 1544 1831 
L 300 3500 
L 978 3500 
L 1906 2253 
L 2834 3500 
L 3513 3500 
z
" transform="scale(0.015625)"/>
      </defs>
      <use xlink:href="#DejaVuSans-78"/>
     </g>
    </g>
   </g>
   <g id="matplotlib.axis_2">
    <g id="ytick_1">
     <g id="line2d_6">
      <defs>
       <path id="maa0ba81c21" d="M 0 0 
L -3.5 0 
" style="stroke: #000000; stroke-width: 0.8"/>
      </defs>
      <g>
       <use xlink:href="#maa0ba81c21" x="38.27" y="169.490534" style="stroke: #000000; stroke-width: 0.8"/>
      </g>
     </g>
     <g id="text_7">
      <!-- 0 -->
      <g transform="translate(24.9075 173.289753)scale(0.1 -0.1)">
       <use xlink:href="#DejaVuSans-30"/>
      </g>
     </g>
    </g>
    <g id="ytick_2">
     <g id="line2d_7">
      <g>
       <use xlink:href="#maa0ba81c21" x="38.27" y="145.922674" style="stroke: #000000; stroke-width: 0.8"/>
      </g>
     </g>
     <g id="text_8">
      <!-- 1 -->
      <g transform="translate(24.9075 149.721893)scale(0.1 -0.1)">
       <use xlink:href="#DejaVuSans-31"/>
      </g>
     </g>
    </g>
    <g id="ytick_3">
     <g id="line2d_8">
      <g>
       <use xlink:href="#maa0ba81c21" x="38.27" y="122.354813" style="stroke: #000000; stroke-width: 0.8"/>
      </g>
     </g>
     <g id="text_9">
      <!-- 2 -->
      <g transform="translate(24.9075 126.154032)scale(0.1 -0.1)">
       <use xlink:href="#DejaVuSans-32"/>
      </g>
     </g>
    </g>
    <g id="ytick_4">
     <g id="line2d_9">
      <g>
       <use xlink:href="#maa0ba81c21" x="38.27" y="98.786953" style="stroke: #000000; stroke-width: 0.8"/>
      </g>
     </g>
     <g id="text_10">
      <!-- 3 -->
      <g transform="translate(24.9075 102.586172)scale(0.1 -0.1)">
       <defs>
        <path id="DejaVuSans-33" d="M 2597 2516 
Q 3050 2419 3304 2112 
Q 3559 1806 3559 1356 
Q 3559 666 3084 287 
Q 2609 -91 1734 -91 
Q 1441 -91 1130 -33 
Q 819 25 488 141 
L 488 750 
Q 750 597 1062 519 
Q 1375 441 1716 441 
Q 2309 441 2620 675 
Q 2931 909 2931 1356 
Q 2931 1769 2642 2001 
Q 2353 2234 1838 2234 
L 1294 2234 
L 1294 2753 
L 1863 2753 
Q 2328 2753 2575 2939 
Q 2822 3125 2822 3475 
Q 2822 3834 2567 4026 
Q 2313 4219 1838 4219 
Q 1578 4219 1281 4162 
Q 984 4106 628 3988 
L 628 4550 
Q 988 4650 1302 4700 
Q 1616 4750 1894 4750 
Q 2613 4750 3031 4423 
Q 3450 4097 3450 3541 
Q 3450 3153 3228 2886 
Q 3006 2619 2597 2516 
z
" transform="scale(0.015625)"/>
       </defs>
       <use xlink:href="#DejaVuSans-33"/>
      </g>
     </g>
    </g>
    <g id="ytick_5">
     <g id="line2d_10">
      <g>
       <use xlink:href="#maa0ba81c21" x="38.27" y="75.219093" style="stroke: #000000; stroke-width: 0.8"/>
      </g>
     </g>
     <g id="text_11">
      <!-- 4 -->
      <g transform="translate(24.9075 79.018311)scale(0.1 -0.1)">
       <defs>
        <path id="DejaVuSans-34" d="M 2419 4116 
L 825 1625 
L 2419 1625 
L 2419 4116 
z
M 2253 4666 
L 3047 4666 
L 3047 1625 
L 3713 1625 
L 3713 1100 
L 3047 1100 
L 3047 0 
L 2419 0 
L 2419 1100 
L 313 1100 
L 313 1709 
L 2253 4666 
z
" transform="scale(0.015625)"/>
       </defs>
       <use xlink:href="#DejaVuSans-34"/>
      </g>
     </g>
    </g>
    <g id="ytick_6">
     <g id="line2d_11">
      <g>
       <use xlink:href="#maa0ba81c21" x="38.27" y="51.651232" style="stroke: #000000; stroke-width: 0.8"/>
      </g>
     </g>
     <g id="text_12">
      <!-- 5 -->
      <g transform="translate(24.9075 55.450451)scale(0.1 -0.1)">
       <use xlink:href="#DejaVuSans-35"/>
      </g>
     </g>
    </g>
    <g id="ytick_7">
     <g id="line2d_12">
      <g>
       <use xlink:href="#maa0ba81c21" x="38.27" y="28.083372" style="stroke: #000000; stroke-width: 0.8"/>
      </g>
     </g>
     <g id="text_13">
      <!-- 6 -->
      <g transform="translate(24.9075 31.88259)scale(0.1 -0.1)">
       <defs>
        <path id="DejaVuSans-36" d="M 2113 2584 
Q 1688 2584 1439 2293 
Q 1191 2003 1191 1497 
Q 1191 994 1439 701 
Q 1688 409 2113 409 
Q 2538 409 2786 701 
Q 3034 994 3034 1497 
Q 3034 2003 2786 2293 
Q 2538 2584 2113 2584 
z
M 3366 4563 
L 3366 3988 
Q 3128 4100 2886 4159 
Q 2644 4219 2406 4219 
Q 1781 4219 1451 3797 
Q 1122 3375 1075 2522 
Q 1259 2794 1537 2939 
Q 1816 3084 2150 3084 
Q 2853 3084 3261 2657 
Q 3669 2231 3669 1497 
Q 3669 778 3244 343 
Q 2819 -91 2113 -91 
Q 1303 -91 875 529 
Q 447 1150 447 2328 
Q 447 3434 972 4092 
Q 1497 4750 2381 4750 
Q 2619 4750 2861 4703 
Q 3103 4656 3366 4563 
z
" transform="scale(0.015625)"/>
       </defs>
       <use xlink:href="#DejaVuSans-36"/>
      </g>
     </g>
    </g>
    <g id="text_14">
     <!-- y -->
     <g transform="translate(18.827813 103.419375)rotate(-90)scale(0.1 -0.1)">
      <defs>
       <path id="DejaVuSans-79" d="M 2059 -325 
Q 1816 -950 1584 -1140 
Q 1353 -1331 966 -1331 
L 506 -1331 
L 506 -850 
L 844 -850 
Q 1081 -850 1212 -737 
Q 1344 -625 1503 -206 
L 1606 56 
L 191 3500 
L 800 3500 
L 1894 763 
L 2988 3500 
L 3597 3500 
L 2059 -325 
z
" transform="scale(0.015625)"/>
      </defs>
      <use xlink:href="#DejaVuSans-79"/>
     </g>
    </g>
   </g>
   <g id="line2d_13">
    <path d="M 45.857727 45.397511 
L 46.620313 69.484428 
L 47.382899 87.196681 
L 48.145484 98.471801 
L 48.90807 103.80915 
L 49.670656 104.206651 
L 50.433241 100.989195 
L 51.195827 95.596816 
L 52.720998 83.605961 
L 53.483584 79.136961 
L 54.246169 76.628516 
L 55.008755 76.35944 
L 55.771341 78.212547 
L 56.533926 81.658262 
L 58.059098 89.807589 
L 58.821683 92.878178 
L 59.584269 94.874243 
L 60.346855 96.111828 
L 61.872026 98.165244 
L 64.922369 102.759805 
L 65.684954 104.813341 
L 66.44754 107.882511 
L 67.972711 115.203089 
L 68.735297 117.460872 
L 69.497883 117.750849 
L 70.260468 116.221252 
L 71.78564 111.654327 
L 72.548225 110.72493 
L 73.310811 111.214967 
L 74.073397 112.695202 
L 75.598568 116.086454 
L 77.123739 118.918208 
L 78.64891 122.548541 
L 80.174082 126.054243 
L 80.936667 127.657066 
L 81.699253 129.57584 
L 83.224424 134.339263 
L 83.98701 135.883903 
L 84.749596 135.734809 
L 85.512181 133.649929 
L 87.799938 123.7405 
L 88.562524 122.559309 
L 89.32511 123.135564 
L 90.087695 125.210845 
L 92.375452 134.280396 
L 93.138038 135.395023 
L 93.900624 134.3033 
L 94.663209 130.962232 
L 96.188381 120.299176 
L 97.713552 110.084514 
L 99.238723 102.443655 
L 100.001309 99.228524 
L 100.763894 96.543246 
L 101.52648 94.701527 
L 102.289066 93.883187 
L 103.051651 93.929978 
L 103.814237 94.349231 
L 104.576823 94.474318 
L 105.339408 93.677286 
L 106.101994 91.593524 
L 106.86458 88.331735 
L 108.389751 81.209699 
L 109.152337 79.125391 
L 109.914922 78.475792 
L 110.677508 78.784337 
L 111.440094 79.339386 
L 112.965265 80.220161 
L 113.727851 81.323389 
L 114.490436 83.575443 
L 115.253022 87.064785 
L 117.540779 100.137985 
L 118.303365 103.572962 
L 119.06595 106.196858 
L 119.828536 108.171338 
L 123.641464 116.126236 
L 124.40405 116.583851 
L 125.166635 116.107946 
L 126.691807 113.968779 
L 127.454392 113.400345 
L 128.216978 113.476826 
L 132.792492 116.452294 
L 133.555078 116.472445 
L 134.317663 115.519784 
L 135.080249 113.13943 
L 135.842835 109.311684 
L 138.893177 90.199252 
L 139.655763 86.343124 
L 140.418349 83.158352 
L 141.180934 81.060735 
L 141.94352 80.524419 
L 142.706106 81.71321 
L 143.468691 84.281576 
L 144.993862 90.686484 
L 145.756448 93.247589 
L 146.519034 94.873096 
L 147.281619 95.319825 
L 148.044205 94.377839 
L 148.806791 91.961787 
L 149.569376 88.268298 
L 151.094548 79.501542 
L 151.857133 76.015615 
L 152.619719 73.921593 
L 153.382305 73.381296 
L 154.14489 74.24216 
L 154.907476 76.161616 
L 157.195233 83.508406 
L 157.957819 84.739166 
L 158.720404 84.779042 
L 159.48299 83.790235 
L 160.245576 82.339392 
L 161.008161 81.178454 
L 161.770747 80.903123 
L 162.533333 81.688544 
L 163.295918 83.260551 
L 164.82109 86.763743 
L 167.108847 90.670157 
L 167.871432 92.695429 
L 169.396603 98.027757 
L 170.159189 100.000992 
L 170.921775 100.431104 
L 171.68436 98.920481 
L 172.446946 95.627759 
L 174.734703 82.388622 
L 175.497289 80.091967 
L 176.259874 80.379634 
L 177.02246 83.582624 
L 177.785046 89.224619 
L 179.310217 102.594862 
L 180.072803 107.661361 
L 180.835388 110.921006 
L 181.597974 112.732947 
L 182.36056 113.675502 
L 183.123145 114.052648 
L 183.885731 113.764616 
L 184.648317 112.601069 
L 186.936074 106.698409 
L 187.698659 105.671707 
L 188.461245 105.039374 
L 189.223831 103.920356 
L 189.986416 101.33685 
L 190.749002 96.679888 
L 191.511587 89.966569 
L 193.799344 65.604763 
L 194.56193 59.799002 
L 195.324516 56.691451 
L 196.087101 56.676286 
L 196.849687 59.731629 
L 197.612273 65.50484 
L 197.612273 65.50484 
" clip-path="url(#p0905358709)" style="fill: none; stroke: #1f77b4; stroke-width: 1.5; stroke-linecap: square"/>
   </g>
   <g id="line2d_14">
    <path d="M 45.857727 102.135208 
L 46.620313 101.316938 
L 47.382899 100.13046 
L 48.90807 97.128434 
L 51.195827 92.587823 
L 51.958413 91.383283 
L 52.720998 90.42227 
L 53.483584 89.73482 
L 54.246169 89.336378 
L 55.008755 89.229296 
L 55.771341 89.404779 
L 56.533926 89.845065 
L 57.296512 90.525684 
L 58.059098 91.41761 
L 59.584269 93.707809 
L 61.872026 97.928701 
L 65.684954 105.238649 
L 67.210126 107.80803 
L 68.735297 110.071149 
L 71.023054 112.977439 
L 75.598568 118.443583 
L 80.936667 125.331235 
L 82.461839 126.77852 
L 83.98701 127.758178 
L 84.749596 128.060845 
L 85.512181 128.240005 
L 86.274767 128.298877 
L 87.037353 128.240277 
L 87.799938 128.064825 
L 88.562524 127.769566 
L 89.32511 127.347291 
L 90.087695 126.786733 
L 90.850281 126.073685 
L 91.612867 125.192902 
L 92.375452 124.130548 
L 93.900624 121.428145 
L 95.425795 117.973457 
L 96.950966 113.907362 
L 102.289066 98.703293 
L 103.814237 95.050749 
L 105.339408 91.958245 
L 106.86458 89.525772 
L 107.627165 88.59558 
L 108.389751 87.880103 
L 109.152337 87.397848 
L 109.914922 87.165729 
L 110.677508 87.197123 
L 111.440094 87.499957 
L 112.202679 88.075071 
L 112.965265 88.915067 
L 113.727851 90.00378 
L 115.253022 92.82043 
L 116.778193 96.242254 
L 120.591122 105.144244 
L 122.116293 108.046847 
L 123.641464 110.303219 
L 124.40405 111.171087 
L 125.166635 111.864316 
L 125.929221 112.384797 
L 126.691807 112.734762 
L 127.454392 112.915521 
L 128.216978 112.926614 
L 128.979564 112.765524 
L 129.742149 112.428007 
L 130.504735 111.909057 
L 131.267321 111.204407 
L 132.029906 110.31238 
L 133.555078 107.984064 
L 135.080249 105.030351 
L 140.418349 93.73683 
L 141.94352 91.426622 
L 143.468691 89.698437 
L 144.993862 88.382381 
L 152.619719 82.608201 
L 154.14489 81.921164 
L 154.907476 81.743405 
L 155.670062 81.683375 
L 157.195233 81.907171 
L 158.720404 82.54134 
L 160.245576 83.510525 
L 161.770747 84.738409 
L 164.82109 87.619871 
L 167.108847 89.674401 
L 168.634018 90.757211 
L 170.159189 91.564356 
L 173.209532 92.879138 
L 174.734703 93.867134 
L 176.259874 95.343258 
L 177.785046 97.305706 
L 180.835388 101.62458 
L 181.597974 102.474207 
L 182.36056 103.115864 
L 183.123145 103.498161 
L 183.885731 103.577105 
L 184.648317 103.317069 
L 185.410902 102.690993 
L 186.173488 101.680011 
L 186.936074 100.27275 
L 187.698659 98.464534 
L 188.461245 96.256685 
L 189.986416 90.674931 
L 191.511587 83.64818 
L 193.036759 75.393234 
L 195.324516 61.459466 
L 197.612273 47.13227 
L 197.612273 47.13227 
" clip-path="url(#p0905358709)" style="fill: none; stroke: #ff7f0e; stroke-width: 1.5; stroke-linecap: square"/>
   </g>
   <g id="line2d_15">
    <path d="M 45.857727 86.480357 
L 55.008755 95.631276 
L 58.821683 99.13575 
L 61.872026 101.699779 
L 64.922369 103.999565 
L 67.972711 105.996185 
L 71.023054 107.660461 
L 73.310811 108.679235 
L 75.598568 109.497378 
L 77.886325 110.115473 
L 80.174082 110.537899 
L 82.461839 110.772649 
L 84.749596 110.831028 
L 87.799938 110.659413 
L 90.850281 110.239738 
L 94.663209 109.434892 
L 99.238723 108.17847 
L 106.101994 106.00013 
L 117.540779 102.366525 
L 132.029906 98.095608 
L 144.231277 94.617146 
L 149.569376 93.320416 
L 154.14489 92.435647 
L 157.957819 91.898113 
L 161.770747 91.555106 
L 166.346261 91.383911 
L 171.68436 91.428106 
L 180.072803 91.546306 
L 183.885731 91.356043 
L 186.936074 90.969739 
L 189.223831 90.496015 
L 191.511587 89.829879 
L 193.799344 88.940009 
L 196.087101 87.795416 
L 197.612273 86.875846 
L 197.612273 86.875846 
" clip-path="url(#p0905358709)" style="fill: none; stroke: #2ca02c; stroke-width: 1.5; stroke-linecap: square"/>
   </g>
   <g id="patch_3">
    <path d="M 38.27 174.04 
L 38.27 26.88 
" style="fill: none; stroke: #000000; stroke-width: 0.8; stroke-linejoin: miter; stroke-linecap: square"/>
   </g>
   <g id="patch_4">
    <path d="M 205.2 174.04 
L 205.2 26.88 
" style="fill: none; stroke: #000000; stroke-width: 0.8; stroke-linejoin: miter; stroke-linecap: square"/>
   </g>
   <g id="patch_5">
    <path d="M 38.27 174.04 
L 205.2 174.04 
" style="fill: none; stroke: #000000; stroke-width: 0.8; stroke-linejoin: miter; stroke-linecap: square"/>
   </g>
   <g id="patch_6">
    <path d="M 38.27 26.88 
L 205.2 26.88 
" style="fill: none; stroke: #000000; stroke-width: 0.8; stroke-linejoin: miter; stroke-linecap: square"/>
   </g>
   <g id="text_15">
    <!-- Local Linear Regression -->
    <g transform="translate(50.905937 20.88)scale(0.12 -0.12)">
     <defs>
      <path id="DejaVuSans-4c" d="M 628 4666 
L 1259 4666 
L 1259 531 
L 3531 531 
L 3531 0 
L 628 0 
L 628 4666 
z
" transform="scale(0.015625)"/>
      <path id="DejaVuSans-6f" d="M 1959 3097 
Q 1497 3097 1228 2736 
Q 959 2375 959 1747 
Q 959 1119 1226 758 
Q 1494 397 1959 397 
Q 2419 397 2687 759 
Q 2956 1122 2956 1747 
Q 2956 2369 2687 2733 
Q 2419 3097 1959 3097 
z
M 1959 3584 
Q 2709 3584 3137 3096 
Q 3566 2609 3566 1747 
Q 3566 888 3137 398 
Q 2709 -91 1959 -91 
Q 1206 -91 779 398 
Q 353 888 353 1747 
Q 353 2609 779 3096 
Q 1206 3584 1959 3584 
z
" transform="scale(0.015625)"/>
      <path id="DejaVuSans-63" d="M 3122 3366 
L 3122 2828 
Q 2878 2963 2633 3030 
Q 2388 3097 2138 3097 
Q 1578 3097 1268 2742 
Q 959 2388 959 1747 
Q 959 1106 1268 751 
Q 1578 397 2138 397 
Q 2388 397 2633 464 
Q 2878 531 3122 666 
L 3122 134 
Q 2881 22 2623 -34 
Q 2366 -91 2075 -91 
Q 1284 -91 818 406 
Q 353 903 353 1747 
Q 353 2603 823 3093 
Q 1294 3584 2113 3584 
Q 2378 3584 2631 3529 
Q 2884 3475 3122 3366 
z
" transform="scale(0.015625)"/>
      <path id="DejaVuSans-61" d="M 2194 1759 
Q 1497 1759 1228 1600 
Q 959 1441 959 1056 
Q 959 750 1161 570 
Q 1363 391 1709 391 
Q 2188 391 2477 730 
Q 2766 1069 2766 1631 
L 2766 1759 
L 2194 1759 
z
M 3341 1997 
L 3341 0 
L 2766 0 
L 2766 531 
Q 2569 213 2275 61 
Q 1981 -91 1556 -91 
Q 1019 -91 701 211 
Q 384 513 384 1019 
Q 384 1609 779 1909 
Q 1175 2209 1959 2209 
L 2766 2209 
L 2766 2266 
Q 2766 2663 2505 2880 
Q 2244 3097 1772 3097 
Q 1472 3097 1187 3025 
Q 903 2953 641 2809 
L 641 3341 
Q 956 3463 1253 3523 
Q 1550 3584 1831 3584 
Q 2591 3584 2966 3190 
Q 3341 2797 3341 1997 
z
" transform="scale(0.015625)"/>
      <path id="DejaVuSans-6c" d="M 603 4863 
L 1178 4863 
L 1178 0 
L 603 0 
L 603 4863 
z
" transform="scale(0.015625)"/>
      <path id="DejaVuSans-20" transform="scale(0.015625)"/>
      <path id="DejaVuSans-69" d="M 603 3500 
L 1178 3500 
L 1178 0 
L 603 0 
L 603 3500 
z
M 603 4863 
L 1178 4863 
L 1178 4134 
L 603 4134 
L 603 4863 
z
" transform="scale(0.015625)"/>
      <path id="DejaVuSans-6e" d="M 3513 2113 
L 3513 0 
L 2938 0 
L 2938 2094 
Q 2938 2591 2744 2837 
Q 2550 3084 2163 3084 
Q 1697 3084 1428 2787 
Q 1159 2491 1159 1978 
L 1159 0 
L 581 0 
L 581 3500 
L 1159 3500 
L 1159 2956 
Q 1366 3272 1645 3428 
Q 1925 3584 2291 3584 
Q 2894 3584 3203 3211 
Q 3513 2838 3513 2113 
z
" transform="scale(0.015625)"/>
      <path id="DejaVuSans-65" d="M 3597 1894 
L 3597 1613 
L 953 1613 
Q 991 1019 1311 708 
Q 1631 397 2203 397 
Q 2534 397 2845 478 
Q 3156 559 3463 722 
L 3463 178 
Q 3153 47 2828 -22 
Q 2503 -91 2169 -91 
Q 1331 -91 842 396 
Q 353 884 353 1716 
Q 353 2575 817 3079 
Q 1281 3584 2069 3584 
Q 2775 3584 3186 3129 
Q 3597 2675 3597 1894 
z
M 3022 2063 
Q 3016 2534 2758 2815 
Q 2500 3097 2075 3097 
Q 1594 3097 1305 2825 
Q 1016 2553 972 2059 
L 3022 2063 
z
" transform="scale(0.015625)"/>
      <path id="DejaVuSans-72" d="M 2631 2963 
Q 2534 3019 2420 3045 
Q 2306 3072 2169 3072 
Q 1681 3072 1420 2755 
Q 1159 2438 1159 1844 
L 1159 0 
L 581 0 
L 581 3500 
L 1159 3500 
L 1159 2956 
Q 1341 3275 1631 3429 
Q 1922 3584 2338 3584 
Q 2397 3584 2469 3576 
Q 2541 3569 2628 3553 
L 2631 2963 
z
" transform="scale(0.015625)"/>
      <path id="DejaVuSans-52" d="M 2841 2188 
Q 3044 2119 3236 1894 
Q 3428 1669 3622 1275 
L 4263 0 
L 3584 0 
L 2988 1197 
Q 2756 1666 2539 1819 
Q 2322 1972 1947 1972 
L 1259 1972 
L 1259 0 
L 628 0 
L 628 4666 
L 2053 4666 
Q 2853 4666 3247 4331 
Q 3641 3997 3641 3322 
Q 3641 2881 3436 2590 
Q 3231 2300 2841 2188 
z
M 1259 4147 
L 1259 2491 
L 2053 2491 
Q 2509 2491 2742 2702 
Q 2975 2913 2975 3322 
Q 2975 3731 2742 3939 
Q 2509 4147 2053 4147 
L 1259 4147 
z
" transform="scale(0.015625)"/>
      <path id="DejaVuSans-67" d="M 2906 1791 
Q 2906 2416 2648 2759 
Q 2391 3103 1925 3103 
Q 1463 3103 1205 2759 
Q 947 2416 947 1791 
Q 947 1169 1205 825 
Q 1463 481 1925 481 
Q 2391 481 2648 825 
Q 2906 1169 2906 1791 
z
M 3481 434 
Q 3481 -459 3084 -895 
Q 2688 -1331 1869 -1331 
Q 1566 -1331 1297 -1286 
Q 1028 -1241 775 -1147 
L 775 -588 
Q 1028 -725 1275 -790 
Q 1522 -856 1778 -856 
Q 2344 -856 2625 -561 
Q 2906 -266 2906 331 
L 2906 616 
Q 2728 306 2450 153 
Q 2172 0 1784 0 
Q 1141 0 747 490 
Q 353 981 353 1791 
Q 353 2603 747 3093 
Q 1141 3584 1784 3584 
Q 2172 3584 2450 3431 
Q 2728 3278 2906 2969 
L 2906 3500 
L 3481 3500 
L 3481 434 
z
" transform="scale(0.015625)"/>
      <path id="DejaVuSans-73" d="M 2834 3397 
L 2834 2853 
Q 2591 2978 2328 3040 
Q 2066 3103 1784 3103 
Q 1356 3103 1142 2972 
Q 928 2841 928 2578 
Q 928 2378 1081 2264 
Q 1234 2150 1697 2047 
L 1894 2003 
Q 2506 1872 2764 1633 
Q 3022 1394 3022 966 
Q 3022 478 2636 193 
Q 2250 -91 1575 -91 
Q 1294 -91 989 -36 
Q 684 19 347 128 
L 347 722 
Q 666 556 975 473 
Q 1284 391 1588 391 
Q 1994 391 2212 530 
Q 2431 669 2431 922 
Q 2431 1156 2273 1281 
Q 2116 1406 1581 1522 
L 1381 1569 
Q 847 1681 609 1914 
Q 372 2147 372 2553 
Q 372 3047 722 3315 
Q 1072 3584 1716 3584 
Q 2034 3584 2315 3537 
Q 2597 3491 2834 3397 
z
" transform="scale(0.015625)"/>
     </defs>
     <use xlink:href="#DejaVuSans-4c"/>
     <use xlink:href="#DejaVuSans-6f" x="53.962891"/>
     <use xlink:href="#DejaVuSans-63" x="115.144531"/>
     <use xlink:href="#DejaVuSans-61" x="170.125"/>
     <use xlink:href="#DejaVuSans-6c" x="231.404297"/>
     <use xlink:href="#DejaVuSans-20" x="259.1875"/>
     <use xlink:href="#DejaVuSans-4c" x="290.974609"/>
     <use xlink:href="#DejaVuSans-69" x="346.6875"/>
     <use xlink:href="#DejaVuSans-6e" x="374.470703"/>
     <use xlink:href="#DejaVuSans-65" x="437.849609"/>
     <use xlink:href="#DejaVuSans-61" x="499.373047"/>
     <use xlink:href="#DejaVuSans-72" x="560.652344"/>
     <use xlink:href="#DejaVuSans-20" x="601.765625"/>
     <use xlink:href="#DejaVuSans-52" x="633.552734"/>
     <use xlink:href="#DejaVuSans-65" x="698.535156"/>
     <use xlink:href="#DejaVuSans-67" x="760.058594"/>
     <use xlink:href="#DejaVuSans-72" x="823.535156"/>
     <use xlink:href="#DejaVuSans-65" x="862.398438"/>
     <use xlink:href="#DejaVuSans-73" x="923.921875"/>
     <use xlink:href="#DejaVuSans-73" x="976.021484"/>
     <use xlink:href="#DejaVuSans-69" x="1028.121094"/>
     <use xlink:href="#DejaVuSans-6f" x="1055.904297"/>
     <use xlink:href="#DejaVuSans-6e" x="1117.085938"/>
    </g>
   </g>
   <g id="legend_1">
    <g id="patch_7">
     <path d="M 83.9 169.04 
L 198.2 169.04 
Q 200.2 169.04 200.2 167.04 
L 200.2 109.3275 
Q 200.2 107.3275 198.2 107.3275 
L 83.9 107.3275 
Q 81.9 107.3275 81.9 109.3275 
L 81.9 167.04 
Q 81.9 169.04 83.9 169.04 
z
" style="fill: #ffffff; opacity: 0.8; stroke: #cccccc; stroke-linejoin: miter"/>
    </g>
    <g id="PathCollection_2">
     <g>
      <use xlink:href="#mf7647e938d" x="95.9" y="116.300938" style="stroke: #000000"/>
     </g>
    </g>
    <g id="text_16">
     <!-- data -->
     <g transform="translate(113.9 118.925938)scale(0.1 -0.1)">
      <defs>
       <path id="DejaVuSans-64" d="M 2906 2969 
L 2906 4863 
L 3481 4863 
L 3481 0 
L 2906 0 
L 2906 525 
Q 2725 213 2448 61 
Q 2172 -91 1784 -91 
Q 1150 -91 751 415 
Q 353 922 353 1747 
Q 353 2572 751 3078 
Q 1150 3584 1784 3584 
Q 2172 3584 2448 3432 
Q 2725 3281 2906 2969 
z
M 947 1747 
Q 947 1113 1208 752 
Q 1469 391 1925 391 
Q 2381 391 2643 752 
Q 2906 1113 2906 1747 
Q 2906 2381 2643 2742 
Q 2381 3103 1925 3103 
Q 1469 3103 1208 2742 
Q 947 2381 947 1747 
z
" transform="scale(0.015625)"/>
       <path id="DejaVuSans-74" d="M 1172 4494 
L 1172 3500 
L 2356 3500 
L 2356 3053 
L 1172 3053 
L 1172 1153 
Q 1172 725 1289 603 
Q 1406 481 1766 481 
L 2356 481 
L 2356 0 
L 1766 0 
Q 1100 0 847 248 
Q 594 497 594 1153 
L 594 3053 
L 172 3053 
L 172 3500 
L 594 3500 
L 594 4494 
L 1172 4494 
z
" transform="scale(0.015625)"/>
      </defs>
      <use xlink:href="#DejaVuSans-64"/>
      <use xlink:href="#DejaVuSans-61" x="63.476562"/>
      <use xlink:href="#DejaVuSans-74" x="124.755859"/>
      <use xlink:href="#DejaVuSans-61" x="163.964844"/>
     </g>
    </g>
    <g id="line2d_16">
     <path d="M 85.9 130.104062 
L 95.9 130.104062 
L 105.9 130.104062 
" style="fill: none; stroke: #1f77b4; stroke-width: 1.5; stroke-linecap: square"/>
    </g>
    <g id="text_17">
     <!-- LLR with $\lambda$ = 0.4 -->
     <g transform="translate(113.9 133.604062)scale(0.1 -0.1)">
      <defs>
       <path id="DejaVuSans-77" d="M 269 3500 
L 844 3500 
L 1563 769 
L 2278 3500 
L 2956 3500 
L 3675 769 
L 4391 3500 
L 4966 3500 
L 4050 0 
L 3372 0 
L 2619 2869 
L 1863 0 
L 1184 0 
L 269 3500 
z
" transform="scale(0.015625)"/>
       <path id="DejaVuSans-68" d="M 3513 2113 
L 3513 0 
L 2938 0 
L 2938 2094 
Q 2938 2591 2744 2837 
Q 2550 3084 2163 3084 
Q 1697 3084 1428 2787 
Q 1159 2491 1159 1978 
L 1159 0 
L 581 0 
L 581 4863 
L 1159 4863 
L 1159 2956 
Q 1366 3272 1645 3428 
Q 1925 3584 2291 3584 
Q 2894 3584 3203 3211 
Q 3513 2838 3513 2113 
z
" transform="scale(0.015625)"/>
       <path id="DejaVuSans-Oblique-3bb" d="M 2350 4316 
L 3125 0 
L 2516 0 
L 2038 2588 
L 328 0 
L -281 0 
L 1903 3356 
L 1794 3975 
Q 1725 4369 1391 4369 
L 1091 4369 
L 1184 4863 
L 1550 4856 
Q 2253 4847 2350 4316 
z
" transform="scale(0.015625)"/>
       <path id="DejaVuSans-3d" d="M 678 2906 
L 4684 2906 
L 4684 2381 
L 678 2381 
L 678 2906 
z
M 678 1631 
L 4684 1631 
L 4684 1100 
L 678 1100 
L 678 1631 
z
" transform="scale(0.015625)"/>
       <path id="DejaVuSans-2e" d="M 684 794 
L 1344 794 
L 1344 0 
L 684 0 
L 684 794 
z
" transform="scale(0.015625)"/>
      </defs>
      <use xlink:href="#DejaVuSans-4c" transform="translate(0 0.015625)"/>
      <use xlink:href="#DejaVuSans-4c" transform="translate(55.712891 0.015625)"/>
      <use xlink:href="#DejaVuSans-52" transform="translate(111.425781 0.015625)"/>
      <use xlink:href="#DejaVuSans-20" transform="translate(180.908203 0.015625)"/>
      <use xlink:href="#DejaVuSans-77" transform="translate(212.695312 0.015625)"/>
      <use xlink:href="#DejaVuSans-69" transform="translate(294.482422 0.015625)"/>
      <use xlink:href="#DejaVuSans-74" transform="translate(322.265625 0.015625)"/>
      <use xlink:href="#DejaVuSans-68" transform="translate(361.474609 0.015625)"/>
      <use xlink:href="#DejaVuSans-20" transform="translate(424.853516 0.015625)"/>
      <use xlink:href="#DejaVuSans-Oblique-3bb" transform="translate(456.640625 0.015625)"/>
      <use xlink:href="#DejaVuSans-20" transform="translate(515.820312 0.015625)"/>
      <use xlink:href="#DejaVuSans-3d" transform="translate(547.607422 0.015625)"/>
      <use xlink:href="#DejaVuSans-20" transform="translate(631.396484 0.015625)"/>
      <use xlink:href="#DejaVuSans-30" transform="translate(663.183594 0.015625)"/>
      <use xlink:href="#DejaVuSans-2e" transform="translate(726.806641 0.015625)"/>
      <use xlink:href="#DejaVuSans-34" transform="translate(758.59375 0.015625)"/>
     </g>
    </g>
    <g id="line2d_17">
     <path d="M 85.9 144.782188 
L 95.9 144.782188 
L 105.9 144.782188 
" style="fill: none; stroke: #ff7f0e; stroke-width: 1.5; stroke-linecap: square"/>
    </g>
    <g id="text_18">
     <!-- LLR with $\lambda$ = 1 -->
     <g transform="translate(113.9 148.282188)scale(0.1 -0.1)">
      <use xlink:href="#DejaVuSans-4c" transform="translate(0 0.015625)"/>
      <use xlink:href="#DejaVuSans-4c" transform="translate(55.712891 0.015625)"/>
      <use xlink:href="#DejaVuSans-52" transform="translate(111.425781 0.015625)"/>
      <use xlink:href="#DejaVuSans-20" transform="translate(180.908203 0.015625)"/>
      <use xlink:href="#DejaVuSans-77" transform="translate(212.695312 0.015625)"/>
      <use xlink:href="#DejaVuSans-69" transform="translate(294.482422 0.015625)"/>
      <use xlink:href="#DejaVuSans-74" transform="translate(322.265625 0.015625)"/>
      <use xlink:href="#DejaVuSans-68" transform="translate(361.474609 0.015625)"/>
      <use xlink:href="#DejaVuSans-20" transform="translate(424.853516 0.015625)"/>
      <use xlink:href="#DejaVuSans-Oblique-3bb" transform="translate(456.640625 0.015625)"/>
      <use xlink:href="#DejaVuSans-20" transform="translate(515.820312 0.015625)"/>
      <use xlink:href="#DejaVuSans-3d" transform="translate(547.607422 0.015625)"/>
      <use xlink:href="#DejaVuSans-20" transform="translate(631.396484 0.015625)"/>
      <use xlink:href="#DejaVuSans-31" transform="translate(663.183594 0.015625)"/>
     </g>
    </g>
    <g id="line2d_18">
     <path d="M 85.9 159.460313 
L 95.9 159.460313 
L 105.9 159.460313 
" style="fill: none; stroke: #2ca02c; stroke-width: 1.5; stroke-linecap: square"/>
    </g>
    <g id="text_19">
     <!-- LLR with $\lambda$ = 4 -->
     <g transform="translate(113.9 162.960313)scale(0.1 -0.1)">
      <use xlink:href="#DejaVuSans-4c" transform="translate(0 0.015625)"/>
      <use xlink:href="#DejaVuSans-4c" transform="translate(55.712891 0.015625)"/>
      <use xlink:href="#DejaVuSans-52" transform="translate(111.425781 0.015625)"/>
      <use xlink:href="#DejaVuSans-20" transform="translate(180.908203 0.015625)"/>
      <use xlink:href="#DejaVuSans-77" transform="translate(212.695312 0.015625)"/>
      <use xlink:href="#DejaVuSans-69" transform="translate(294.482422 0.015625)"/>
      <use xlink:href="#DejaVuSans-74" transform="translate(322.265625 0.015625)"/>
      <use xlink:href="#DejaVuSans-68" transform="translate(361.474609 0.015625)"/>
      <use xlink:href="#DejaVuSans-20" transform="translate(424.853516 0.015625)"/>
      <use xlink:href="#DejaVuSans-Oblique-3bb" transform="translate(456.640625 0.015625)"/>
      <use xlink:href="#DejaVuSans-20" transform="translate(515.820312 0.015625)"/>
      <use xlink:href="#DejaVuSans-3d" transform="translate(547.607422 0.015625)"/>
      <use xlink:href="#DejaVuSans-20" transform="translate(631.396484 0.015625)"/>
      <use xlink:href="#DejaVuSans-34" transform="translate(663.183594 0.015625)"/>
     </g>
    </g>
   </g>
  </g>
 </g>
 <defs>
  <clipPath id="p0905358709">
   <rect x="38.27" y="26.88" width="166.93" height="147.16"/>
  </clipPath>
 </defs>
</svg>
