<svg width="149" height="158" xmlns="http://www.w3.org/2000/svg" xmlns:xlink="http://www.w3.org/1999/xlink" xml:space="preserve" overflow="hidden"><defs><clipPath id="clip0"><rect x="97" y="262" width="149" height="158"/></clipPath></defs><g clip-path="url(#clip0)" transform="translate(-97 -262)"><path d="M813.286 771.381 813.286 633.537" stroke="#000000" stroke-width="2.31247" stroke-linecap="round" stroke-linejoin="round" stroke-miterlimit="1.5" fill="none" fill-rule="evenodd" transform="matrix(1.00908 0 0 1 -719.704 -352.649)"/><path d="M818.5 637.598 956.391 775.494" stroke="#000000" stroke-width="2.31876" stroke-linecap="round" stroke-linejoin="round" stroke-miterlimit="1.5" fill="none" fill-rule="evenodd" transform="matrix(1.00266 0 0 1 -719.704 -356.711)"/><path d="M956.391 775.494 818.534 775.494" stroke="#000000" stroke-width="2.31876" stroke-linecap="round" stroke-linejoin="round" stroke-miterlimit="1.5" fill="none" fill-rule="evenodd" transform="matrix(1.00266 0 0 1 -719.704 -356.711)"/><path d="M1004.04 639.269C1004.04 641.154 965.816 642.683 918.666 642.683 871.516 642.683 833.294 641.154 833.294 639.269 833.294 637.383 871.516 635.854 918.666 635.854 965.816 635.854 1004.04 637.383 1004.04 639.269Z" stroke="#000000" stroke-width="1.41106" stroke-linecap="round" stroke-linejoin="round" stroke-miterlimit="1.5" fill="#FFFFFF" fill-rule="evenodd" transform="matrix(0.809876 0.807731 -0.708046 0.706171 -115.642 -849.188)"/><path d="M835.878 634.175C835.878 635.755 831.756 637.035 826.672 637.035 821.587 637.035 817.465 635.755 817.465 634.175 817.465 632.595 821.587 631.314 826.672 631.314 831.756 631.314 835.878 632.595 835.878 634.175Z" stroke="#000000" stroke-width="0.723592" stroke-linecap="round" stroke-linejoin="round" stroke-miterlimit="1.5" fill="none" fill-rule="evenodd" transform="matrix(1 0 0 2.77604 -719.704 -1489.79)"/><path d="M1621.08 1229.9C1621.08 1232.96 1613.08 1235.45 1603.22 1235.45 1593.36 1235.45 1585.37 1232.96 1585.37 1229.9 1585.37 1226.84 1593.36 1224.35 1603.22 1224.35 1613.08 1224.35 1621.08 1226.84 1621.08 1229.9Z" stroke="#000000" stroke-width="1.03795" stroke-linecap="round" stroke-linejoin="round" stroke-miterlimit="1.5" fill="none" fill-rule="evenodd" transform="matrix(1 0 0 1.8033 -1487.6 -1924.96)"/><path d="M3051.39 2315.07C3051.39 2320.84 3036.34 2325.51 3017.78 2325.51 2999.22 2325.51 2984.17 2320.84 2984.17 2315.07 2984.17 2309.3 2999.22 2304.63 3017.78 2304.63 3036.34 2304.63 3051.39 2309.3 3051.39 2315.07Z" stroke="#000000" stroke-width="1.35982" stroke-linecap="round" stroke-linejoin="round" stroke-miterlimit="1.5" fill="none" fill-rule="evenodd" transform="matrix(1 0 0 1.21428 -2886.41 -2493.21)"/><path d="M3187.44 2680.55C3187.44 2681.72 3187.02 2682.78 3186.17 2683.71 3185.33 2684.64 3184.23 2685.09 3182.89 2685.09 3181.53 2685.09 3180.44 2684.64 3179.61 2683.71 3178.76 2682.78 3178.33 2681.72 3178.33 2680.55 3178.33 2679.37 3178.76 2678.32 3179.61 2677.39 3180.44 2676.46 3181.53 2676 3182.89 2676 3184.23 2676 3185.33 2676.46 3186.17 2677.39 3187.02 2678.32 3187.44 2679.37 3187.44 2680.55ZM3159.37 2680.55C3159.37 2681.72 3158.96 2682.78 3158.11 2683.71 3157.28 2684.64 3156.17 2685.09 3154.83 2685.09 3153.48 2685.09 3152.39 2684.64 3151.54 2683.71 3150.7 2682.78 3150.28 2681.72 3150.28 2680.55 3150.28 2679.37 3150.7 2678.32 3151.54 2677.39 3152.39 2676.46 3153.48 2676 3154.83 2676 3156.17 2676 3157.28 2676.46 3158.11 2677.39 3158.96 2678.32 3159.37 2679.37 3159.37 2680.55ZM3131.32 2680.55C3131.32 2681.72 3130.89 2682.78 3130.06 2683.71 3129.22 2684.64 3128.12 2685.09 3126.76 2685.09 3125.42 2685.09 3124.32 2684.64 3123.49 2683.71 3122.65 2682.78 3122.23 2681.72 3122.23 2680.55 3122.23 2679.37 3122.65 2678.32 3123.49 2677.39 3124.32 2676.46 3125.42 2676 3126.76 2676 3128.12 2676 3129.22 2676.46 3130.06 2677.39 3130.89 2678.32 3131.32 2679.37 3131.32 2680.55Z" stroke="#000000" stroke-width="0.425532" stroke-linejoin="round" stroke-miterlimit="2" transform="matrix(6.1395e-17 1 -1.00266 6.12324e-17 2817.96 -2780.03)"/></g></svg>