<?xml version="1.0" encoding="UTF-8" standalone="no"?>
<!DOCTYPE svg PUBLIC "-//W3C//DTD SVG 1.1//EN" "http://www.w3.org/Graphics/SVG/1.1/DTD/svg11.dtd">
<svg width="100%" height="100%" viewBox="0 0 1950 1195" version="1.1" xmlns="http://www.w3.org/2000/svg" xmlns:xlink="http://www.w3.org/1999/xlink" xml:space="preserve" xmlns:serif="http://www.serif.com/" style="fill-rule:evenodd;clip-rule:evenodd;stroke-linecap:round;stroke-linejoin:round;stroke-miterlimit:1.5;">
    <g transform="matrix(1,0,0,1,-1126.72,-1092.19)">
        <g transform="matrix(1,0,0,1,237.558,-10.0926)">
            <ellipse cx="1873.27" cy="1649.57" rx="757.4" ry="465.475" style="fill:rgb(187,119,61);fill-opacity:0;stroke:black;stroke-width:17.35px;"/>
        </g>
        <g transform="matrix(1.2752,0,0,1,-287.56,142.455)">
            <path d="M1115.87,1649.57L2630.67,1649.57" style="fill:none;stroke:black;stroke-width:15.14px;"/>
        </g>
        <g transform="matrix(1,0,0,1.0552,266.245,49.0102)">
            <path d="M1360.32,1178.83L1360.32,2112.65" style="fill:none;stroke:black;stroke-width:16.88px;"/>
        </g>
        <g transform="matrix(1,0,0,1,283.87,142.455)">
            <circle cx="1344.08" cy="1649.43" r="21.418" style="fill:rgb(0,56,255);stroke:rgb(0,56,255);stroke-width:17.35px;"/>
        </g>
        <g transform="matrix(1.16073,-0.144335,-0.144335,1.12961,305.678,122.872)">
            <path d="M1345.88,1649.89L1863.87,1184.75" style="fill:none;stroke:rgb(0,56,255);stroke-width:17.34px;"/>
        </g>
        <g transform="matrix(1,0,0,1,435.283,2.64271)">
            <path d="M1863.87,1184.75L1819.75,1184.75" style="fill:none;stroke:rgb(190,43,165);stroke-width:11.56px;"/>
        </g>
        <g transform="matrix(1,0,0,1,435.543,3.13351)">
            <path d="M1863.87,1184.75L1864.75,1227.98" style="fill:none;stroke:rgb(0,56,255);stroke-width:17.35px;"/>
        </g>
        <g transform="matrix(1,0,0,1,264.657,135.387)">
            <path d="M1248.85,1614.03C1284.75,1549.05 1353.01,1524.46 1423.79,1529.52" style="fill:none;stroke:rgb(91,108,167);stroke-width:17.35px;"/>
        </g>
        <g transform="matrix(0.494016,0,0,0.638696,911.251,680.721)">
            <g transform="matrix(130.792,0,0,130.792,1299.14,1684.34)">
                <path d="M0.461,-0.555C0.42,-0.547 0.389,-0.539 0.369,-0.531C0.327,-0.516 0.286,-0.49 0.254,-0.459C0.195,-0.402 0.161,-0.323 0.161,-0.243C0.161,-0.174 0.186,-0.113 0.235,-0.065C0.269,-0.031 0.3,-0.013 0.356,0.002L0.349,0.025C0.336,0.068 0.323,0.102 0.313,0.119L0.437,0.119C0.437,0.098 0.443,0.071 0.455,0.026L0.46,0.012C0.563,0.011 0.641,-0.013 0.708,-0.063C0.791,-0.126 0.841,-0.226 0.841,-0.33C0.841,-0.462 0.766,-0.55 0.653,-0.55C0.601,-0.55 0.556,-0.529 0.525,-0.491C0.497,-0.455 0.478,-0.415 0.455,-0.335L0.384,-0.093C0.311,-0.116 0.268,-0.175 0.268,-0.249C0.268,-0.308 0.296,-0.367 0.343,-0.406C0.381,-0.439 0.418,-0.454 0.486,-0.466L0.461,-0.555ZM0.554,-0.327C0.567,-0.372 0.583,-0.414 0.594,-0.431C0.609,-0.453 0.628,-0.465 0.651,-0.465C0.7,-0.465 0.733,-0.411 0.733,-0.331C0.733,-0.255 0.699,-0.183 0.64,-0.136C0.596,-0.101 0.552,-0.086 0.485,-0.082L0.554,-0.327Z" style="fill:rgb(91,108,167);fill-rule:nonzero;stroke:rgb(91,108,167);stroke-width:0.01px;stroke-linecap:butt;stroke-miterlimit:2;"/>
            </g>
        </g>
        <g transform="matrix(1.48698,0,0,1.30817,-573.079,-325.831)">
            <g transform="matrix(90.0006,0,0,116.359,1707.84,1474.42)">
                <path d="M0.068,-0.474L0.158,-0.474L0.158,-0.401L0.16,-0.401C0.166,-0.414 0.174,-0.425 0.184,-0.436C0.194,-0.446 0.205,-0.455 0.218,-0.462C0.23,-0.469 0.243,-0.475 0.258,-0.48C0.273,-0.484 0.287,-0.486 0.302,-0.486C0.317,-0.486 0.33,-0.484 0.342,-0.48L0.338,-0.383C0.331,-0.385 0.323,-0.387 0.316,-0.388C0.309,-0.389 0.301,-0.39 0.294,-0.39C0.25,-0.39 0.216,-0.378 0.193,-0.353C0.17,-0.328 0.158,-0.29 0.158,-0.238L0.158,-0L0.068,-0L0.068,-0.474Z" style="fill:rgb(0,56,255);fill-rule:nonzero;stroke:rgb(0,56,255);stroke-width:0.01px;stroke-linecap:butt;stroke-miterlimit:2;"/>
            </g>
        </g>
        <g transform="matrix(1,0,0,1,283.87,142.455)">
            <path d="M1692.52,1475.45L1726.09,1475.45" style="fill:none;stroke:rgb(0,56,255);stroke-width:17.35px;"/>
        </g>
        <g transform="matrix(1,0,0,1,283.87,142.455)">
            <path d="M2017.04,1045.81L2144.44,1069.42" style="fill:none;stroke:rgb(255,77,0);stroke-width:17.35px;"/>
        </g>
        <g transform="matrix(1,0,0,1,283.87,142.455)">
            <path d="M2144.44,1069.42L2112.14,1089.72" style="fill:none;stroke:rgb(255,77,0);stroke-width:17.35px;"/>
        </g>
        <g transform="matrix(1,0,0,1,283.87,142.455)">
            <path d="M2144.44,1069.42L2121.6,1038.04" style="fill:none;stroke:rgb(255,77,0);stroke-width:17.35px;"/>
        </g>
        <g transform="matrix(1.8015,0,0,1.8015,-1376.6,-768.694)">
            <g transform="matrix(48.142,0,0,54.7566,2057.68,1137.99)">
                <path d="M0.011,-0.474L0.115,-0.474L0.257,-0.111L0.393,-0.474L0.489,-0.474L0.303,-0L0.204,-0L0.011,-0.474Z" style="fill:rgb(255,77,0);fill-rule:nonzero;"/>
            </g>
        </g>
        <g transform="matrix(1.8015,0,0,1.8015,-1564.81,-797.627)">
            <g transform="matrix(48.142,0,0,54.7566,2057.68,1137.99)">
                <path d="M0.136,-0.204C0.136,-0.183 0.14,-0.165 0.15,-0.148C0.159,-0.13 0.17,-0.116 0.185,-0.104C0.2,-0.092 0.217,-0.083 0.236,-0.076C0.255,-0.069 0.275,-0.066 0.296,-0.066C0.324,-0.066 0.348,-0.073 0.369,-0.086C0.39,-0.098 0.409,-0.116 0.426,-0.137L0.494,-0.085C0.444,-0.02 0.374,0.012 0.284,0.012C0.247,0.012 0.213,0.006 0.183,-0.007C0.152,-0.02 0.127,-0.037 0.106,-0.06C0.085,-0.082 0.068,-0.108 0.057,-0.139C0.046,-0.169 0.04,-0.202 0.04,-0.237C0.04,-0.272 0.046,-0.305 0.059,-0.336C0.071,-0.366 0.088,-0.392 0.11,-0.415C0.131,-0.437 0.157,-0.454 0.187,-0.467C0.217,-0.48 0.25,-0.486 0.285,-0.486C0.327,-0.486 0.363,-0.479 0.392,-0.464C0.421,-0.449 0.444,-0.43 0.463,-0.407C0.482,-0.383 0.495,-0.356 0.504,-0.327C0.512,-0.297 0.516,-0.267 0.516,-0.236L0.516,-0.204L0.136,-0.204ZM0.42,-0.276C0.419,-0.296 0.416,-0.314 0.411,-0.331C0.405,-0.348 0.396,-0.362 0.385,-0.375C0.374,-0.387 0.36,-0.397 0.343,-0.404C0.326,-0.411 0.306,-0.414 0.283,-0.414C0.261,-0.414 0.241,-0.41 0.223,-0.402C0.204,-0.393 0.189,-0.382 0.176,-0.369C0.163,-0.356 0.154,-0.341 0.147,-0.325C0.139,-0.308 0.136,-0.292 0.136,-0.276L0.42,-0.276Z" style="fill:rgb(190,43,165);fill-rule:nonzero;"/>
            </g>
        </g>
        <g transform="matrix(1.8015,0,0,1.8015,-1376.6,-768.694)">
            <path d="M2058.9,1142.84L2080.39,1142.84" style="fill:none;stroke:rgb(255,77,0);stroke-width:2.01px;"/>
        </g>
        <g transform="matrix(1.8015,0,0,1.8015,-1562.07,-799.503)">
            <path d="M2058.9,1142.84L2080.39,1142.84" style="fill:none;stroke:rgb(190,43,165);stroke-width:2.01px;"/>
        </g>
        <g transform="matrix(1,0,0,1,384.088,157.854)">
            <circle cx="1932.42" cy="971.16" r="24.72" style="fill:white;stroke:black;stroke-width:3.62px;"/>
        </g>
        <g transform="matrix(1,0,0,1,384.088,157.854)">
            <path d="M1916.07,989.697L1950.55,954.36" style="fill:none;stroke:black;stroke-width:3.62px;"/>
        </g>
        <g transform="matrix(1,0,0,1,384.088,157.854)">
            <path d="M1949.35,988.813L1916.19,953.646" style="fill:none;stroke:black;stroke-width:3.62px;"/>
        </g>
        <g transform="matrix(1.21884,0,0,1.21884,-14.1481,-13.693)">
            <g transform="matrix(57.7563,0,0,65.692,1848.56,954.246)">
                <path d="M0.091,-0.708L0.187,-0.708L0.187,-0.09L0.512,-0.09L0.512,-0L0.091,-0L0.091,-0.708Z" style="fill-rule:nonzero;stroke:black;stroke-width:0.01px;stroke-linecap:butt;stroke-miterlimit:2;"/>
            </g>
        </g>
        <g transform="matrix(1,0,0,1,395.939,200.622)">
            <path d="M1879.98,953.943L1848.19,953.943" style="fill:none;stroke:black;stroke-width:3.62px;"/>
        </g>
        <g transform="matrix(1,0,0,1,283.87,142.455)">
            <path d="M2016.81,1043.34L1806.47,1043.34" style="fill:none;stroke:rgb(190,43,165);stroke-width:11.56px;"/>
        </g>
        <g transform="matrix(1,0,0,1,283.87,142.455)">
            <path d="M1806.47,1043.34L1821.16,1056.44" style="fill:none;stroke:rgb(190,43,165);stroke-width:11.56px;"/>
        </g>
        <g transform="matrix(1,0,0,1,283.87,142.455)">
            <path d="M1806.47,1043.34L1821.16,1030.4" style="fill:none;stroke:rgb(190,43,165);stroke-width:11.56px;"/>
        </g>
    </g>
</svg>
