<?xml version="1.0" encoding="utf-8" standalone="no"?>
<!DOCTYPE svg PUBLIC "-//W3C//DTD SVG 1.1//EN"
  "http://www.w3.org/Graphics/SVG/1.1/DTD/svg11.dtd">
<svg xmlns:xlink="http://www.w3.org/1999/xlink" width="576pt" height="432pt" viewBox="0 0 576 432" xmlns="http://www.w3.org/2000/svg" version="1.1">
 <metadata>
  <rdf:RDF xmlns:dc="http://purl.org/dc/elements/1.1/" xmlns:cc="http://creativecommons.org/ns#" xmlns:rdf="http://www.w3.org/1999/02/22-rdf-syntax-ns#">
   <cc:Work>
    <dc:type rdf:resource="http://purl.org/dc/dcmitype/StillImage"/>
    <dc:date>2023-11-10T22:56:21.249408</dc:date>
    <dc:format>image/svg+xml</dc:format>
    <dc:creator>
     <cc:Agent>
      <dc:title>Matplotlib v3.5.1, https://matplotlib.org/</dc:title>
     </cc:Agent>
    </dc:creator>
   </cc:Work>
  </rdf:RDF>
 </metadata>
 <defs>
  <style type="text/css">*{stroke-linejoin: round; stroke-linecap: butt}</style>
 </defs>
 <g id="figure_1">
  <g id="patch_1">
   <path d="M 0 432 
L 576 432 
L 576 0 
L 0 0 
z
" style="fill: #ffffff"/>
  </g>
  <g id="axes_1">
   <g id="patch_2">
    <path d="M 57.6 388.8 
L 417.24878 388.8 
L 417.24878 43.2 
L 57.6 43.2 
z
" style="fill: #ffffff"/>
   </g>
   <g id="PolyCollection_1">
    <defs>
     <path id="m8b98eefe76" d="M 73.947672 -58.909091 
L 73.947672 -181.6557 
L 77.250232 -181.6557 
L 80.552792 -181.6557 
L 83.855352 -181.6557 
L 87.157912 -181.6557 
L 90.460472 -181.6557 
L 93.763032 -181.6557 
L 97.065592 -181.6557 
L 100.368152 -181.6557 
L 103.670712 -181.6557 
L 106.973272 -181.6557 
L 110.275831 -181.6557 
L 113.578391 -181.6557 
L 116.880951 -181.6557 
L 120.183511 -181.6557 
L 123.486071 -181.6557 
L 126.788631 -181.6557 
L 130.091191 -181.6557 
L 133.393751 -181.6557 
L 136.696311 -181.6557 
L 139.998871 -181.6557 
L 143.301431 -181.6557 
L 146.603991 -181.6557 
L 149.906551 -181.6557 
L 153.209111 -181.6557 
L 156.511671 -181.6557 
L 159.814231 -181.6557 
L 163.116791 -181.6557 
L 166.419351 -181.6557 
L 169.721911 -181.6557 
L 173.024471 -181.6557 
L 176.327031 -181.6557 
L 179.629591 -181.6557 
L 182.932151 -181.6557 
L 186.234711 -181.6557 
L 189.537271 -181.6557 
L 192.839831 -181.6557 
L 196.142391 -181.6557 
L 199.444951 -181.6557 
L 202.747511 -181.6557 
L 206.050071 -181.6557 
L 209.352631 -181.6557 
L 212.65519 -181.6557 
L 215.95775 -181.6557 
L 219.26031 -181.6557 
L 222.56287 -181.6557 
L 225.86543 -181.6557 
L 229.16799 -181.6557 
L 232.47055 -181.6557 
L 235.77311 -181.6557 
L 239.07567 -181.6557 
L 242.37823 -181.6557 
L 245.68079 -181.6557 
L 248.98335 -181.6557 
L 252.28591 -181.6557 
L 255.58847 -181.6557 
L 258.89103 -181.6557 
L 262.19359 -181.6557 
L 265.49615 -181.6557 
L 268.79871 -181.6557 
L 272.10127 -181.6557 
L 275.40383 -181.6557 
L 278.70639 -181.6557 
L 282.00895 -181.6557 
L 285.31151 -181.6557 
L 288.61407 -181.6557 
L 291.91663 -181.6557 
L 295.21919 -181.6557 
L 298.52175 -181.6557 
L 301.82431 -181.6557 
L 305.12687 -181.6557 
L 308.42943 -181.6557 
L 311.73199 -181.6557 
L 315.034549 -181.6557 
L 318.337109 -181.6557 
L 321.639669 -181.6557 
L 324.942229 -181.6557 
L 328.244789 -181.6557 
L 331.547349 -181.6557 
L 334.849909 -181.6557 
L 338.152469 -181.6557 
L 341.455029 -181.6557 
L 344.757589 -181.6557 
L 348.060149 -181.6557 
L 351.362709 -181.6557 
L 354.665269 -181.6557 
L 357.967829 -181.6557 
L 361.270389 -181.6557 
L 364.572949 -181.6557 
L 367.875509 -181.6557 
L 371.178069 -181.6557 
L 374.480629 -181.6557 
L 377.783189 -181.6557 
L 381.085749 -181.6557 
L 384.388309 -181.6557 
L 387.690869 -181.6557 
L 390.993429 -181.6557 
L 394.295989 -181.6557 
L 397.598549 -181.6557 
L 400.901109 -181.6557 
L 400.901109 -58.909091 
L 400.901109 -58.909091 
L 397.598549 -58.909091 
L 394.295989 -58.909091 
L 390.993429 -58.909091 
L 387.690869 -58.909091 
L 384.388309 -58.909091 
L 381.085749 -58.909091 
L 377.783189 -58.909091 
L 374.480629 -58.909091 
L 371.178069 -58.909091 
L 367.875509 -58.909091 
L 364.572949 -58.909091 
L 361.270389 -58.909091 
L 357.967829 -58.909091 
L 354.665269 -58.909091 
L 351.362709 -58.909091 
L 348.060149 -58.909091 
L 344.757589 -58.909091 
L 341.455029 -58.909091 
L 338.152469 -58.909091 
L 334.849909 -58.909091 
L 331.547349 -58.909091 
L 328.244789 -58.909091 
L 324.942229 -58.909091 
L 321.639669 -58.909091 
L 318.337109 -58.909091 
L 315.034549 -58.909091 
L 311.73199 -58.909091 
L 308.42943 -58.909091 
L 305.12687 -58.909091 
L 301.82431 -58.909091 
L 298.52175 -58.909091 
L 295.21919 -58.909091 
L 291.91663 -58.909091 
L 288.61407 -58.909091 
L 285.31151 -58.909091 
L 282.00895 -58.909091 
L 278.70639 -58.909091 
L 275.40383 -58.909091 
L 272.10127 -58.909091 
L 268.79871 -58.909091 
L 265.49615 -58.909091 
L 262.19359 -58.909091 
L 258.89103 -58.909091 
L 255.58847 -58.909091 
L 252.28591 -58.909091 
L 248.98335 -58.909091 
L 245.68079 -58.909091 
L 242.37823 -58.909091 
L 239.07567 -58.909091 
L 235.77311 -58.909091 
L 232.47055 -58.909091 
L 229.16799 -58.909091 
L 225.86543 -58.909091 
L 222.56287 -58.909091 
L 219.26031 -58.909091 
L 215.95775 -58.909091 
L 212.65519 -58.909091 
L 209.352631 -58.909091 
L 206.050071 -58.909091 
L 202.747511 -58.909091 
L 199.444951 -58.909091 
L 196.142391 -58.909091 
L 192.839831 -58.909091 
L 189.537271 -58.909091 
L 186.234711 -58.909091 
L 182.932151 -58.909091 
L 179.629591 -58.909091 
L 176.327031 -58.909091 
L 173.024471 -58.909091 
L 169.721911 -58.909091 
L 166.419351 -58.909091 
L 163.116791 -58.909091 
L 159.814231 -58.909091 
L 156.511671 -58.909091 
L 153.209111 -58.909091 
L 149.906551 -58.909091 
L 146.603991 -58.909091 
L 143.301431 -58.909091 
L 139.998871 -58.909091 
L 136.696311 -58.909091 
L 133.393751 -58.909091 
L 130.091191 -58.909091 
L 126.788631 -58.909091 
L 123.486071 -58.909091 
L 120.183511 -58.909091 
L 116.880951 -58.909091 
L 113.578391 -58.909091 
L 110.275831 -58.909091 
L 106.973272 -58.909091 
L 103.670712 -58.909091 
L 100.368152 -58.909091 
L 97.065592 -58.909091 
L 93.763032 -58.909091 
L 90.460472 -58.909091 
L 87.157912 -58.909091 
L 83.855352 -58.909091 
L 80.552792 -58.909091 
L 77.250232 -58.909091 
L 73.947672 -58.909091 
z
" style="stroke: #ff0000; stroke-opacity: 0.1"/>
    </defs>
    <g clip-path="url(#p8107c36c60)">
     <use xlink:href="#m8b98eefe76" x="0" y="432" style="fill: #ff0000; fill-opacity: 0.1; stroke: #ff0000; stroke-opacity: 0.1"/>
    </g>
   </g>
   <g id="matplotlib.axis_1">
    <g id="xtick_1">
     <g id="line2d_1">
      <defs>
       <path id="m7a82955e8b" d="M 0 0 
L 0 3.5 
" style="stroke: #000000; stroke-width: 0.8"/>
      </defs>
      <g>
       <use xlink:href="#m7a82955e8b" x="73.947672" y="388.8" style="stroke: #000000; stroke-width: 0.8"/>
      </g>
     </g>
     <g id="text_1">
      <!-- 0.00 -->
      <g transform="translate(62.814859 403.398438)scale(0.1 -0.1)">
       <defs>
        <path id="DejaVuSans-30" d="M 2034 4250 
Q 1547 4250 1301 3770 
Q 1056 3291 1056 2328 
Q 1056 1369 1301 889 
Q 1547 409 2034 409 
Q 2525 409 2770 889 
Q 3016 1369 3016 2328 
Q 3016 3291 2770 3770 
Q 2525 4250 2034 4250 
z
M 2034 4750 
Q 2819 4750 3233 4129 
Q 3647 3509 3647 2328 
Q 3647 1150 3233 529 
Q 2819 -91 2034 -91 
Q 1250 -91 836 529 
Q 422 1150 422 2328 
Q 422 3509 836 4129 
Q 1250 4750 2034 4750 
z
" transform="scale(0.015625)"/>
        <path id="DejaVuSans-2e" d="M 684 794 
L 1344 794 
L 1344 0 
L 684 0 
L 684 794 
z
" transform="scale(0.015625)"/>
       </defs>
       <use xlink:href="#DejaVuSans-30"/>
       <use xlink:href="#DejaVuSans-2e" x="63.623047"/>
       <use xlink:href="#DejaVuSans-30" x="95.410156"/>
       <use xlink:href="#DejaVuSans-30" x="159.033203"/>
      </g>
     </g>
    </g>
    <g id="xtick_2">
     <g id="line2d_2">
      <g>
       <use xlink:href="#m7a82955e8b" x="114.816851" y="388.8" style="stroke: #000000; stroke-width: 0.8"/>
      </g>
     </g>
     <g id="text_2">
      <!-- 0.25 -->
      <g transform="translate(103.684039 403.398438)scale(0.1 -0.1)">
       <defs>
        <path id="DejaVuSans-32" d="M 1228 531 
L 3431 531 
L 3431 0 
L 469 0 
L 469 531 
Q 828 903 1448 1529 
Q 2069 2156 2228 2338 
Q 2531 2678 2651 2914 
Q 2772 3150 2772 3378 
Q 2772 3750 2511 3984 
Q 2250 4219 1831 4219 
Q 1534 4219 1204 4116 
Q 875 4013 500 3803 
L 500 4441 
Q 881 4594 1212 4672 
Q 1544 4750 1819 4750 
Q 2544 4750 2975 4387 
Q 3406 4025 3406 3419 
Q 3406 3131 3298 2873 
Q 3191 2616 2906 2266 
Q 2828 2175 2409 1742 
Q 1991 1309 1228 531 
z
" transform="scale(0.015625)"/>
        <path id="DejaVuSans-35" d="M 691 4666 
L 3169 4666 
L 3169 4134 
L 1269 4134 
L 1269 2991 
Q 1406 3038 1543 3061 
Q 1681 3084 1819 3084 
Q 2600 3084 3056 2656 
Q 3513 2228 3513 1497 
Q 3513 744 3044 326 
Q 2575 -91 1722 -91 
Q 1428 -91 1123 -41 
Q 819 9 494 109 
L 494 744 
Q 775 591 1075 516 
Q 1375 441 1709 441 
Q 2250 441 2565 725 
Q 2881 1009 2881 1497 
Q 2881 1984 2565 2268 
Q 2250 2553 1709 2553 
Q 1456 2553 1204 2497 
Q 953 2441 691 2322 
L 691 4666 
z
" transform="scale(0.015625)"/>
       </defs>
       <use xlink:href="#DejaVuSans-30"/>
       <use xlink:href="#DejaVuSans-2e" x="63.623047"/>
       <use xlink:href="#DejaVuSans-32" x="95.410156"/>
       <use xlink:href="#DejaVuSans-35" x="159.033203"/>
      </g>
     </g>
    </g>
    <g id="xtick_3">
     <g id="line2d_3">
      <g>
       <use xlink:href="#m7a82955e8b" x="155.686031" y="388.8" style="stroke: #000000; stroke-width: 0.8"/>
      </g>
     </g>
     <g id="text_3">
      <!-- 0.50 -->
      <g transform="translate(144.553219 403.398438)scale(0.1 -0.1)">
       <use xlink:href="#DejaVuSans-30"/>
       <use xlink:href="#DejaVuSans-2e" x="63.623047"/>
       <use xlink:href="#DejaVuSans-35" x="95.410156"/>
       <use xlink:href="#DejaVuSans-30" x="159.033203"/>
      </g>
     </g>
    </g>
    <g id="xtick_4">
     <g id="line2d_4">
      <g>
       <use xlink:href="#m7a82955e8b" x="196.555211" y="388.8" style="stroke: #000000; stroke-width: 0.8"/>
      </g>
     </g>
     <g id="text_4">
      <!-- 0.75 -->
      <g transform="translate(185.422398 403.398438)scale(0.1 -0.1)">
       <defs>
        <path id="DejaVuSans-37" d="M 525 4666 
L 3525 4666 
L 3525 4397 
L 1831 0 
L 1172 0 
L 2766 4134 
L 525 4134 
L 525 4666 
z
" transform="scale(0.015625)"/>
       </defs>
       <use xlink:href="#DejaVuSans-30"/>
       <use xlink:href="#DejaVuSans-2e" x="63.623047"/>
       <use xlink:href="#DejaVuSans-37" x="95.410156"/>
       <use xlink:href="#DejaVuSans-35" x="159.033203"/>
      </g>
     </g>
    </g>
    <g id="xtick_5">
     <g id="line2d_5">
      <g>
       <use xlink:href="#m7a82955e8b" x="237.42439" y="388.8" style="stroke: #000000; stroke-width: 0.8"/>
      </g>
     </g>
     <g id="text_5">
      <!-- 1.00 -->
      <g transform="translate(226.291578 403.398438)scale(0.1 -0.1)">
       <defs>
        <path id="DejaVuSans-31" d="M 794 531 
L 1825 531 
L 1825 4091 
L 703 3866 
L 703 4441 
L 1819 4666 
L 2450 4666 
L 2450 531 
L 3481 531 
L 3481 0 
L 794 0 
L 794 531 
z
" transform="scale(0.015625)"/>
       </defs>
       <use xlink:href="#DejaVuSans-31"/>
       <use xlink:href="#DejaVuSans-2e" x="63.623047"/>
       <use xlink:href="#DejaVuSans-30" x="95.410156"/>
       <use xlink:href="#DejaVuSans-30" x="159.033203"/>
      </g>
     </g>
    </g>
    <g id="xtick_6">
     <g id="line2d_6">
      <g>
       <use xlink:href="#m7a82955e8b" x="278.29357" y="388.8" style="stroke: #000000; stroke-width: 0.8"/>
      </g>
     </g>
     <g id="text_6">
      <!-- 1.25 -->
      <g transform="translate(267.160757 403.398438)scale(0.1 -0.1)">
       <use xlink:href="#DejaVuSans-31"/>
       <use xlink:href="#DejaVuSans-2e" x="63.623047"/>
       <use xlink:href="#DejaVuSans-32" x="95.410156"/>
       <use xlink:href="#DejaVuSans-35" x="159.033203"/>
      </g>
     </g>
    </g>
    <g id="xtick_7">
     <g id="line2d_7">
      <g>
       <use xlink:href="#m7a82955e8b" x="319.162749" y="388.8" style="stroke: #000000; stroke-width: 0.8"/>
      </g>
     </g>
     <g id="text_7">
      <!-- 1.50 -->
      <g transform="translate(308.029937 403.398438)scale(0.1 -0.1)">
       <use xlink:href="#DejaVuSans-31"/>
       <use xlink:href="#DejaVuSans-2e" x="63.623047"/>
       <use xlink:href="#DejaVuSans-35" x="95.410156"/>
       <use xlink:href="#DejaVuSans-30" x="159.033203"/>
      </g>
     </g>
    </g>
    <g id="xtick_8">
     <g id="line2d_8">
      <g>
       <use xlink:href="#m7a82955e8b" x="360.031929" y="388.8" style="stroke: #000000; stroke-width: 0.8"/>
      </g>
     </g>
     <g id="text_8">
      <!-- 1.75 -->
      <g transform="translate(348.899117 403.398438)scale(0.1 -0.1)">
       <use xlink:href="#DejaVuSans-31"/>
       <use xlink:href="#DejaVuSans-2e" x="63.623047"/>
       <use xlink:href="#DejaVuSans-37" x="95.410156"/>
       <use xlink:href="#DejaVuSans-35" x="159.033203"/>
      </g>
     </g>
    </g>
    <g id="xtick_9">
     <g id="line2d_9">
      <g>
       <use xlink:href="#m7a82955e8b" x="400.901109" y="388.8" style="stroke: #000000; stroke-width: 0.8"/>
      </g>
     </g>
     <g id="text_9">
      <!-- 2.00 -->
      <g transform="translate(389.768296 403.398438)scale(0.1 -0.1)">
       <use xlink:href="#DejaVuSans-32"/>
       <use xlink:href="#DejaVuSans-2e" x="63.623047"/>
       <use xlink:href="#DejaVuSans-30" x="95.410156"/>
       <use xlink:href="#DejaVuSans-30" x="159.033203"/>
      </g>
     </g>
    </g>
    <g id="text_10">
     <!-- x -->
     <g transform="translate(234.465015 417.076563)scale(0.1 -0.1)">
      <defs>
       <path id="DejaVuSans-78" d="M 3513 3500 
L 2247 1797 
L 3578 0 
L 2900 0 
L 1881 1375 
L 863 0 
L 184 0 
L 1544 1831 
L 300 3500 
L 978 3500 
L 1906 2253 
L 2834 3500 
L 3513 3500 
z
" transform="scale(0.015625)"/>
      </defs>
      <use xlink:href="#DejaVuSans-78"/>
     </g>
    </g>
   </g>
   <g id="matplotlib.axis_2">
    <g id="ytick_1">
     <g id="line2d_10">
      <defs>
       <path id="m336664ec15" d="M 0 0 
L -3.5 0 
" style="stroke: #000000; stroke-width: 0.8"/>
      </defs>
      <g>
       <use xlink:href="#m336664ec15" x="57.6" y="373.090909" style="stroke: #000000; stroke-width: 0.8"/>
      </g>
     </g>
     <g id="text_11">
      <!-- 0.0 -->
      <g transform="translate(34.696875 376.890128)scale(0.1 -0.1)">
       <use xlink:href="#DejaVuSans-30"/>
       <use xlink:href="#DejaVuSans-2e" x="63.623047"/>
       <use xlink:href="#DejaVuSans-30" x="95.410156"/>
      </g>
     </g>
    </g>
    <g id="ytick_2">
     <g id="line2d_11">
      <g>
       <use xlink:href="#m336664ec15" x="57.6" y="328.812225" style="stroke: #000000; stroke-width: 0.8"/>
      </g>
     </g>
     <g id="text_12">
      <!-- 0.2 -->
      <g transform="translate(34.696875 332.611444)scale(0.1 -0.1)">
       <use xlink:href="#DejaVuSans-30"/>
       <use xlink:href="#DejaVuSans-2e" x="63.623047"/>
       <use xlink:href="#DejaVuSans-32" x="95.410156"/>
      </g>
     </g>
    </g>
    <g id="ytick_3">
     <g id="line2d_12">
      <g>
       <use xlink:href="#m336664ec15" x="57.6" y="284.533542" style="stroke: #000000; stroke-width: 0.8"/>
      </g>
     </g>
     <g id="text_13">
      <!-- 0.4 -->
      <g transform="translate(34.696875 288.33276)scale(0.1 -0.1)">
       <defs>
        <path id="DejaVuSans-34" d="M 2419 4116 
L 825 1625 
L 2419 1625 
L 2419 4116 
z
M 2253 4666 
L 3047 4666 
L 3047 1625 
L 3713 1625 
L 3713 1100 
L 3047 1100 
L 3047 0 
L 2419 0 
L 2419 1100 
L 313 1100 
L 313 1709 
L 2253 4666 
z
" transform="scale(0.015625)"/>
       </defs>
       <use xlink:href="#DejaVuSans-30"/>
       <use xlink:href="#DejaVuSans-2e" x="63.623047"/>
       <use xlink:href="#DejaVuSans-34" x="95.410156"/>
      </g>
     </g>
    </g>
    <g id="ytick_4">
     <g id="line2d_13">
      <g>
       <use xlink:href="#m336664ec15" x="57.6" y="240.254858" style="stroke: #000000; stroke-width: 0.8"/>
      </g>
     </g>
     <g id="text_14">
      <!-- 0.6 -->
      <g transform="translate(34.696875 244.054077)scale(0.1 -0.1)">
       <defs>
        <path id="DejaVuSans-36" d="M 2113 2584 
Q 1688 2584 1439 2293 
Q 1191 2003 1191 1497 
Q 1191 994 1439 701 
Q 1688 409 2113 409 
Q 2538 409 2786 701 
Q 3034 994 3034 1497 
Q 3034 2003 2786 2293 
Q 2538 2584 2113 2584 
z
M 3366 4563 
L 3366 3988 
Q 3128 4100 2886 4159 
Q 2644 4219 2406 4219 
Q 1781 4219 1451 3797 
Q 1122 3375 1075 2522 
Q 1259 2794 1537 2939 
Q 1816 3084 2150 3084 
Q 2853 3084 3261 2657 
Q 3669 2231 3669 1497 
Q 3669 778 3244 343 
Q 2819 -91 2113 -91 
Q 1303 -91 875 529 
Q 447 1150 447 2328 
Q 447 3434 972 4092 
Q 1497 4750 2381 4750 
Q 2619 4750 2861 4703 
Q 3103 4656 3366 4563 
z
" transform="scale(0.015625)"/>
       </defs>
       <use xlink:href="#DejaVuSans-30"/>
       <use xlink:href="#DejaVuSans-2e" x="63.623047"/>
       <use xlink:href="#DejaVuSans-36" x="95.410156"/>
      </g>
     </g>
    </g>
    <g id="ytick_5">
     <g id="line2d_14">
      <g>
       <use xlink:href="#m336664ec15" x="57.6" y="195.976174" style="stroke: #000000; stroke-width: 0.8"/>
      </g>
     </g>
     <g id="text_15">
      <!-- 0.8 -->
      <g transform="translate(34.696875 199.775393)scale(0.1 -0.1)">
       <defs>
        <path id="DejaVuSans-38" d="M 2034 2216 
Q 1584 2216 1326 1975 
Q 1069 1734 1069 1313 
Q 1069 891 1326 650 
Q 1584 409 2034 409 
Q 2484 409 2743 651 
Q 3003 894 3003 1313 
Q 3003 1734 2745 1975 
Q 2488 2216 2034 2216 
z
M 1403 2484 
Q 997 2584 770 2862 
Q 544 3141 544 3541 
Q 544 4100 942 4425 
Q 1341 4750 2034 4750 
Q 2731 4750 3128 4425 
Q 3525 4100 3525 3541 
Q 3525 3141 3298 2862 
Q 3072 2584 2669 2484 
Q 3125 2378 3379 2068 
Q 3634 1759 3634 1313 
Q 3634 634 3220 271 
Q 2806 -91 2034 -91 
Q 1263 -91 848 271 
Q 434 634 434 1313 
Q 434 1759 690 2068 
Q 947 2378 1403 2484 
z
M 1172 3481 
Q 1172 3119 1398 2916 
Q 1625 2713 2034 2713 
Q 2441 2713 2670 2916 
Q 2900 3119 2900 3481 
Q 2900 3844 2670 4047 
Q 2441 4250 2034 4250 
Q 1625 4250 1398 4047 
Q 1172 3844 1172 3481 
z
" transform="scale(0.015625)"/>
       </defs>
       <use xlink:href="#DejaVuSans-30"/>
       <use xlink:href="#DejaVuSans-2e" x="63.623047"/>
       <use xlink:href="#DejaVuSans-38" x="95.410156"/>
      </g>
     </g>
    </g>
    <g id="ytick_6">
     <g id="line2d_15">
      <g>
       <use xlink:href="#m336664ec15" x="57.6" y="151.69749" style="stroke: #000000; stroke-width: 0.8"/>
      </g>
     </g>
     <g id="text_16">
      <!-- 1.0 -->
      <g transform="translate(34.696875 155.496709)scale(0.1 -0.1)">
       <use xlink:href="#DejaVuSans-31"/>
       <use xlink:href="#DejaVuSans-2e" x="63.623047"/>
       <use xlink:href="#DejaVuSans-30" x="95.410156"/>
      </g>
     </g>
    </g>
    <g id="ytick_7">
     <g id="line2d_16">
      <g>
       <use xlink:href="#m336664ec15" x="57.6" y="107.418807" style="stroke: #000000; stroke-width: 0.8"/>
      </g>
     </g>
     <g id="text_17">
      <!-- 1.2 -->
      <g transform="translate(34.696875 111.218025)scale(0.1 -0.1)">
       <use xlink:href="#DejaVuSans-31"/>
       <use xlink:href="#DejaVuSans-2e" x="63.623047"/>
       <use xlink:href="#DejaVuSans-32" x="95.410156"/>
      </g>
     </g>
    </g>
    <g id="ytick_8">
     <g id="line2d_17">
      <g>
       <use xlink:href="#m336664ec15" x="57.6" y="63.140123" style="stroke: #000000; stroke-width: 0.8"/>
      </g>
     </g>
     <g id="text_18">
      <!-- 1.4 -->
      <g transform="translate(34.696875 66.939342)scale(0.1 -0.1)">
       <use xlink:href="#DejaVuSans-31"/>
       <use xlink:href="#DejaVuSans-2e" x="63.623047"/>
       <use xlink:href="#DejaVuSans-34" x="95.410156"/>
      </g>
     </g>
    </g>
    <g id="text_19">
     <!-- y -->
     <g transform="translate(28.617188 218.959375)rotate(-90)scale(0.1 -0.1)">
      <defs>
       <path id="DejaVuSans-79" d="M 2059 -325 
Q 1816 -950 1584 -1140 
Q 1353 -1331 966 -1331 
L 506 -1331 
L 506 -850 
L 844 -850 
Q 1081 -850 1212 -737 
Q 1344 -625 1503 -206 
L 1606 56 
L 191 3500 
L 800 3500 
L 1894 763 
L 2988 3500 
L 3597 3500 
L 2059 -325 
z
" transform="scale(0.015625)"/>
      </defs>
      <use xlink:href="#DejaVuSans-79"/>
     </g>
    </g>
   </g>
   <g id="line2d_18">
    <path d="M 73.947672 151.69749 
L 77.250232 151.787809 
L 80.552792 152.058323 
L 83.855352 152.507713 
L 87.157912 153.133798 
L 90.460472 153.933562 
L 93.763032 154.903187 
L 97.065592 156.038103 
L 100.368152 157.333039 
L 103.670712 158.78208 
L 106.973272 160.378734 
L 110.275831 162.116004 
L 113.578391 163.986457 
L 116.880951 165.9823 
L 120.183511 168.095453 
L 123.486071 170.317626 
L 126.788631 172.640387 
L 130.091191 175.055233 
L 133.393751 177.553656 
L 136.696311 180.127201 
L 139.998871 182.767525 
L 143.301431 185.466448 
L 146.603991 188.215992 
L 149.906551 191.00843 
L 153.209111 193.836312 
L 156.511671 196.692495 
L 159.814231 199.570166 
L 163.116791 202.46286 
L 166.419351 205.364473 
L 169.721911 208.269269 
L 173.024471 211.171881 
L 176.327031 214.067318 
L 179.629591 216.950958 
L 182.932151 219.818542 
L 186.234711 222.666167 
L 189.537271 225.490277 
L 192.839831 228.287646 
L 196.142391 231.055372 
L 199.444951 233.790858 
L 202.747511 236.491797 
L 206.050071 239.156158 
L 209.352631 241.782171 
L 212.65519 244.368307 
L 215.95775 246.913268 
L 219.26031 249.415965 
L 222.56287 251.875508 
L 225.86543 254.291188 
L 229.16799 256.662466 
L 232.47055 258.988953 
L 235.77311 261.270404 
L 239.07567 263.506701 
L 242.37823 265.697843 
L 245.68079 267.843933 
L 248.98335 269.945171 
L 252.28591 272.001839 
L 255.58847 274.014296 
L 258.89103 275.98297 
L 262.19359 277.908346 
L 265.49615 279.790961 
L 268.79871 281.631398 
L 272.10127 283.430279 
L 275.40383 285.18826 
L 278.70639 286.906022 
L 282.00895 288.584273 
L 285.31151 290.223737 
L 288.61407 291.825155 
L 291.91663 293.389278 
L 295.21919 294.916867 
L 298.52175 296.408685 
L 301.82431 297.865501 
L 305.12687 299.288083 
L 308.42943 300.677197 
L 311.73199 302.033605 
L 315.034549 303.358065 
L 318.337109 304.651329 
L 321.639669 305.914138 
L 324.942229 307.147226 
L 328.244789 308.351317 
L 331.547349 309.527125 
L 334.849909 310.67535 
L 338.152469 311.796683 
L 341.455029 312.8918 
L 344.757589 313.961365 
L 348.060149 315.006028 
L 351.362709 316.026428 
L 354.665269 317.023187 
L 357.967829 317.996917 
L 361.270389 318.948211 
L 364.572949 319.877654 
L 367.875509 320.785813 
L 371.178069 321.673244 
L 374.480629 322.540486 
L 377.783189 323.388069 
L 381.085749 324.216505 
L 384.388309 325.026297 
L 387.690869 325.817933 
L 390.993429 326.591886 
L 394.295989 327.348621 
L 397.598549 328.088588 
L 400.901109 328.812225 
" clip-path="url(#p8107c36c60)" style="fill: none; stroke: #000000; stroke-width: 1.5; stroke-linecap: square"/>
   </g>
   <g id="LineCollection_1">
    <path d="M 73.947672 127.597691 
L 400.901109 127.597691 
" clip-path="url(#p8107c36c60)" style="fill: none; stroke: #ff0000; stroke-width: 1.5"/>
   </g>
   <g id="PathCollection_1">
    <defs>
     <path id="C0_0_5593927d4e" d="M 0 2.12132 
C 0.562581 2.12132 1.102195 1.897805 1.5 1.5 
C 1.897805 1.102195 2.12132 0.562581 2.12132 -0 
C 2.12132 -0.562581 1.897805 -1.102195 1.5 -1.5 
C 1.102195 -1.897805 0.562581 -2.12132 0 -2.12132 
C -0.562581 -2.12132 -1.102195 -1.897805 -1.5 -1.5 
C -1.897805 -1.102195 -2.12132 -0.562581 -2.12132 0 
C -2.12132 0.562581 -1.897805 1.102195 -1.5 1.5 
C -1.102195 1.897805 -0.562581 2.12132 0 2.12132 
z
"/>
    </defs>
    <g clip-path="url(#p8107c36c60)">
     <use xlink:href="#C0_0_5593927d4e" x="164.637947" y="203.798588" style="fill: #00dcfe; stroke: #00dcfe"/>
    </g>
    <g clip-path="url(#p8107c36c60)">
     <use xlink:href="#C0_0_5593927d4e" x="388.951474" y="326.115416" style="fill: #800000; stroke: #800000"/>
    </g>
    <g clip-path="url(#p8107c36c60)">
     <use xlink:href="#C0_0_5593927d4e" x="350.496343" y="315.761057" style="fill: #ffdb00; stroke: #ffdb00"/>
    </g>
    <g clip-path="url(#p8107c36c60)">
     <use xlink:href="#C0_0_5593927d4e" x="356.628449" y="317.60475" style="fill: #ffab00; stroke: #ffab00"/>
    </g>
    <g clip-path="url(#p8107c36c60)">
     <use xlink:href="#C0_0_5593927d4e" x="92.542166" y="154.525226" style="fill: #bf0000; stroke: #bf0000"/>
    </g>
    <g clip-path="url(#p8107c36c60)">
     <use xlink:href="#C0_0_5593927d4e" x="176.5201" y="214.236265" style="fill: #0074ff; stroke: #0074ff"/>
    </g>
    <g clip-path="url(#p8107c36c60)">
     <use xlink:href="#C0_0_5593927d4e" x="269.543467" y="282.040668" style="fill: #000080; stroke: #000080"/>
    </g>
    <g clip-path="url(#p8107c36c60)">
     <use xlink:href="#C0_0_5593927d4e" x="364.780651" y="319.935391" style="fill: #ff6800; stroke: #ff6800"/>
    </g>
    <g clip-path="url(#p8107c36c60)">
     <use xlink:href="#C0_0_5593927d4e" x="201.976868" y="235.864742" style="fill: #00009f; stroke: #00009f"/>
    </g>
    <g clip-path="url(#p8107c36c60)">
     <use xlink:href="#C0_0_5593927d4e" x="201.992343" y="235.877353" style="fill: #00009f; stroke: #00009f"/>
    </g>
    <g clip-path="url(#p8107c36c60)">
     <use xlink:href="#C0_0_5593927d4e" x="294.900779" y="294.771157" style="fill: #0058ff; stroke: #0058ff"/>
    </g>
    <g clip-path="url(#p8107c36c60)">
     <use xlink:href="#C0_0_5593927d4e" x="184.088393" y="220.817969" style="fill: #0034ff; stroke: #0034ff"/>
    </g>
    <g clip-path="url(#p8107c36c60)">
     <use xlink:href="#C0_0_5593927d4e" x="108.160907" y="160.987663" style="fill: #ff5900; stroke: #ff5900"/>
    </g>
    <g clip-path="url(#p8107c36c60)">
     <use xlink:href="#C0_0_5593927d4e" x="180.241459" y="217.483571" style="fill: #0054ff; stroke: #0054ff"/>
    </g>
    <g clip-path="url(#p8107c36c60)">
     <use xlink:href="#C0_0_5593927d4e" x="312.30692" y="302.266451" style="fill: #06ecf1; stroke: #06ecf1"/>
    </g>
    <g clip-path="url(#p8107c36c60)">
     <use xlink:href="#C0_0_5593927d4e" x="310.210833" y="301.412859" style="fill: #00dcfe; stroke: #00dcfe"/>
    </g>
    <g clip-path="url(#p8107c36c60)">
     <use xlink:href="#C0_0_5593927d4e" x="85.897307" y="152.874142" style="fill: #800000; stroke: #800000"/>
    </g>
    <g clip-path="url(#p8107c36c60)">
     <use xlink:href="#C0_0_5593927d4e" x="124.352437" y="170.917573" style="fill: #ffdb00; stroke: #ffdb00"/>
    </g>
    <g clip-path="url(#p8107c36c60)">
     <use xlink:href="#C0_0_5593927d4e" x="118.220331" y="166.82563" style="fill: #ffab00; stroke: #ffab00"/>
    </g>
    <g clip-path="url(#p8107c36c60)">
     <use xlink:href="#C0_0_5593927d4e" x="382.306615" y="324.518009" style="fill: #bf0000; stroke: #bf0000"/>
    </g>
    <g clip-path="url(#p8107c36c60)">
     <use xlink:href="#C0_0_5593927d4e" x="298.32868" y="296.322443" style="fill: #0074ff; stroke: #0074ff"/>
    </g>
    <g clip-path="url(#p8107c36c60)">
     <use xlink:href="#C0_0_5593927d4e" x="205.305314" y="238.558611" style="fill: #000080; stroke: #000080"/>
    </g>
    <g clip-path="url(#p8107c36c60)">
     <use xlink:href="#C0_0_5593927d4e" x="110.06813" y="162.002741" style="fill: #ff6800; stroke: #ff6800"/>
    </g>
    <g clip-path="url(#p8107c36c60)">
     <use xlink:href="#C0_0_5593927d4e" x="272.871912" y="283.844133" style="fill: #00009f; stroke: #00009f"/>
    </g>
    <g clip-path="url(#p8107c36c60)">
     <use xlink:href="#C0_0_5593927d4e" x="272.856438" y="283.835844" style="fill: #00009f; stroke: #00009f"/>
    </g>
    <g clip-path="url(#p8107c36c60)">
     <use xlink:href="#C0_0_5593927d4e" x="179.948002" y="217.228196" style="fill: #0058ff; stroke: #0058ff"/>
    </g>
    <g clip-path="url(#p8107c36c60)">
     <use xlink:href="#C0_0_5593927d4e" x="290.760388" y="292.845867" style="fill: #0034ff; stroke: #0034ff"/>
    </g>
    <g clip-path="url(#p8107c36c60)">
     <use xlink:href="#C0_0_5593927d4e" x="366.687873" y="320.461645" style="fill: #ff5900; stroke: #ff5900"/>
    </g>
    <g clip-path="url(#p8107c36c60)">
     <use xlink:href="#C0_0_5593927d4e" x="294.607321" y="294.636571" style="fill: #0054ff; stroke: #0054ff"/>
    </g>
    <g clip-path="url(#p8107c36c60)">
     <use xlink:href="#C0_0_5593927d4e" x="162.541861" y="201.958474" style="fill: #06ecf1; stroke: #06ecf1"/>
    </g>
   </g>
   <g id="patch_3">
    <path d="M 57.6 388.8 
L 57.6 43.2 
" style="fill: none; stroke: #000000; stroke-width: 0.8; stroke-linejoin: miter; stroke-linecap: square"/>
   </g>
   <g id="patch_4">
    <path d="M 417.24878 388.8 
L 417.24878 43.2 
" style="fill: none; stroke: #000000; stroke-width: 0.8; stroke-linejoin: miter; stroke-linecap: square"/>
   </g>
   <g id="patch_5">
    <path d="M 57.6 388.8 
L 417.24878 388.8 
" style="fill: none; stroke: #000000; stroke-width: 0.8; stroke-linejoin: miter; stroke-linecap: square"/>
   </g>
   <g id="patch_6">
    <path d="M 57.6 43.2 
L 417.24878 43.2 
" style="fill: none; stroke: #000000; stroke-width: 0.8; stroke-linejoin: miter; stroke-linecap: square"/>
   </g>
   <g id="LineCollection_2">
    <path d="M 155.686031 131.706869 
L 155.686031 123.488514 
" clip-path="url(#p8107c36c60)" style="fill: none; stroke: #ff0000; stroke-width: 1.5"/>
   </g>
   <g id="line2d_19">
    <defs>
     <path id="m268a6a11a7" d="M 10 0 
L -10 -0 
" style="stroke: #ff0000; stroke-width: 2"/>
    </defs>
    <g clip-path="url(#p8107c36c60)">
     <use xlink:href="#m268a6a11a7" x="155.686031" y="131.706869" style="fill: #ff0000; stroke: #ff0000; stroke-width: 2"/>
    </g>
   </g>
   <g id="line2d_20">
    <g clip-path="url(#p8107c36c60)">
     <use xlink:href="#m268a6a11a7" x="155.686031" y="123.488514" style="fill: #ff0000; stroke: #ff0000; stroke-width: 2"/>
    </g>
   </g>
   <g id="line2d_21">
    <path d="M 237.42439 388.8 
L 237.42439 43.2 
" clip-path="url(#p8107c36c60)" style="fill: none; stroke-dasharray: 5.55,2.4; stroke-dashoffset: 0; stroke: #000000; stroke-opacity: 0.1; stroke-width: 1.5"/>
   </g>
   <g id="text_20">
    <!-- Monte Carlo Integration with  -->
    <g transform="translate(149.64064 23.762625)scale(0.12 -0.12)">
     <defs>
      <path id="DejaVuSans-4d" d="M 628 4666 
L 1569 4666 
L 2759 1491 
L 3956 4666 
L 4897 4666 
L 4897 0 
L 4281 0 
L 4281 4097 
L 3078 897 
L 2444 897 
L 1241 4097 
L 1241 0 
L 628 0 
L 628 4666 
z
" transform="scale(0.015625)"/>
      <path id="DejaVuSans-6f" d="M 1959 3097 
Q 1497 3097 1228 2736 
Q 959 2375 959 1747 
Q 959 1119 1226 758 
Q 1494 397 1959 397 
Q 2419 397 2687 759 
Q 2956 1122 2956 1747 
Q 2956 2369 2687 2733 
Q 2419 3097 1959 3097 
z
M 1959 3584 
Q 2709 3584 3137 3096 
Q 3566 2609 3566 1747 
Q 3566 888 3137 398 
Q 2709 -91 1959 -91 
Q 1206 -91 779 398 
Q 353 888 353 1747 
Q 353 2609 779 3096 
Q 1206 3584 1959 3584 
z
" transform="scale(0.015625)"/>
      <path id="DejaVuSans-6e" d="M 3513 2113 
L 3513 0 
L 2938 0 
L 2938 2094 
Q 2938 2591 2744 2837 
Q 2550 3084 2163 3084 
Q 1697 3084 1428 2787 
Q 1159 2491 1159 1978 
L 1159 0 
L 581 0 
L 581 3500 
L 1159 3500 
L 1159 2956 
Q 1366 3272 1645 3428 
Q 1925 3584 2291 3584 
Q 2894 3584 3203 3211 
Q 3513 2838 3513 2113 
z
" transform="scale(0.015625)"/>
      <path id="DejaVuSans-74" d="M 1172 4494 
L 1172 3500 
L 2356 3500 
L 2356 3053 
L 1172 3053 
L 1172 1153 
Q 1172 725 1289 603 
Q 1406 481 1766 481 
L 2356 481 
L 2356 0 
L 1766 0 
Q 1100 0 847 248 
Q 594 497 594 1153 
L 594 3053 
L 172 3053 
L 172 3500 
L 594 3500 
L 594 4494 
L 1172 4494 
z
" transform="scale(0.015625)"/>
      <path id="DejaVuSans-65" d="M 3597 1894 
L 3597 1613 
L 953 1613 
Q 991 1019 1311 708 
Q 1631 397 2203 397 
Q 2534 397 2845 478 
Q 3156 559 3463 722 
L 3463 178 
Q 3153 47 2828 -22 
Q 2503 -91 2169 -91 
Q 1331 -91 842 396 
Q 353 884 353 1716 
Q 353 2575 817 3079 
Q 1281 3584 2069 3584 
Q 2775 3584 3186 3129 
Q 3597 2675 3597 1894 
z
M 3022 2063 
Q 3016 2534 2758 2815 
Q 2500 3097 2075 3097 
Q 1594 3097 1305 2825 
Q 1016 2553 972 2059 
L 3022 2063 
z
" transform="scale(0.015625)"/>
      <path id="DejaVuSans-20" transform="scale(0.015625)"/>
      <path id="DejaVuSans-43" d="M 4122 4306 
L 4122 3641 
Q 3803 3938 3442 4084 
Q 3081 4231 2675 4231 
Q 1875 4231 1450 3742 
Q 1025 3253 1025 2328 
Q 1025 1406 1450 917 
Q 1875 428 2675 428 
Q 3081 428 3442 575 
Q 3803 722 4122 1019 
L 4122 359 
Q 3791 134 3420 21 
Q 3050 -91 2638 -91 
Q 1578 -91 968 557 
Q 359 1206 359 2328 
Q 359 3453 968 4101 
Q 1578 4750 2638 4750 
Q 3056 4750 3426 4639 
Q 3797 4528 4122 4306 
z
" transform="scale(0.015625)"/>
      <path id="DejaVuSans-61" d="M 2194 1759 
Q 1497 1759 1228 1600 
Q 959 1441 959 1056 
Q 959 750 1161 570 
Q 1363 391 1709 391 
Q 2188 391 2477 730 
Q 2766 1069 2766 1631 
L 2766 1759 
L 2194 1759 
z
M 3341 1997 
L 3341 0 
L 2766 0 
L 2766 531 
Q 2569 213 2275 61 
Q 1981 -91 1556 -91 
Q 1019 -91 701 211 
Q 384 513 384 1019 
Q 384 1609 779 1909 
Q 1175 2209 1959 2209 
L 2766 2209 
L 2766 2266 
Q 2766 2663 2505 2880 
Q 2244 3097 1772 3097 
Q 1472 3097 1187 3025 
Q 903 2953 641 2809 
L 641 3341 
Q 956 3463 1253 3523 
Q 1550 3584 1831 3584 
Q 2591 3584 2966 3190 
Q 3341 2797 3341 1997 
z
" transform="scale(0.015625)"/>
      <path id="DejaVuSans-72" d="M 2631 2963 
Q 2534 3019 2420 3045 
Q 2306 3072 2169 3072 
Q 1681 3072 1420 2755 
Q 1159 2438 1159 1844 
L 1159 0 
L 581 0 
L 581 3500 
L 1159 3500 
L 1159 2956 
Q 1341 3275 1631 3429 
Q 1922 3584 2338 3584 
Q 2397 3584 2469 3576 
Q 2541 3569 2628 3553 
L 2631 2963 
z
" transform="scale(0.015625)"/>
      <path id="DejaVuSans-6c" d="M 603 4863 
L 1178 4863 
L 1178 0 
L 603 0 
L 603 4863 
z
" transform="scale(0.015625)"/>
      <path id="DejaVuSans-49" d="M 628 4666 
L 1259 4666 
L 1259 0 
L 628 0 
L 628 4666 
z
" transform="scale(0.015625)"/>
      <path id="DejaVuSans-67" d="M 2906 1791 
Q 2906 2416 2648 2759 
Q 2391 3103 1925 3103 
Q 1463 3103 1205 2759 
Q 947 2416 947 1791 
Q 947 1169 1205 825 
Q 1463 481 1925 481 
Q 2391 481 2648 825 
Q 2906 1169 2906 1791 
z
M 3481 434 
Q 3481 -459 3084 -895 
Q 2688 -1331 1869 -1331 
Q 1566 -1331 1297 -1286 
Q 1028 -1241 775 -1147 
L 775 -588 
Q 1028 -725 1275 -790 
Q 1522 -856 1778 -856 
Q 2344 -856 2625 -561 
Q 2906 -266 2906 331 
L 2906 616 
Q 2728 306 2450 153 
Q 2172 0 1784 0 
Q 1141 0 747 490 
Q 353 981 353 1791 
Q 353 2603 747 3093 
Q 1141 3584 1784 3584 
Q 2172 3584 2450 3431 
Q 2728 3278 2906 2969 
L 2906 3500 
L 3481 3500 
L 3481 434 
z
" transform="scale(0.015625)"/>
      <path id="DejaVuSans-69" d="M 603 3500 
L 1178 3500 
L 1178 0 
L 603 0 
L 603 3500 
z
M 603 4863 
L 1178 4863 
L 1178 4134 
L 603 4134 
L 603 4863 
z
" transform="scale(0.015625)"/>
      <path id="DejaVuSans-77" d="M 269 3500 
L 844 3500 
L 1563 769 
L 2278 3500 
L 2956 3500 
L 3675 769 
L 4391 3500 
L 4966 3500 
L 4050 0 
L 3372 0 
L 2619 2869 
L 1863 0 
L 1184 0 
L 269 3500 
z
" transform="scale(0.015625)"/>
      <path id="DejaVuSans-68" d="M 3513 2113 
L 3513 0 
L 2938 0 
L 2938 2094 
Q 2938 2591 2744 2837 
Q 2550 3084 2163 3084 
Q 1697 3084 1428 2787 
Q 1159 2491 1159 1978 
L 1159 0 
L 581 0 
L 581 4863 
L 1159 4863 
L 1159 2956 
Q 1366 3272 1645 3428 
Q 1925 3584 2291 3584 
Q 2894 3584 3203 3211 
Q 3513 2838 3513 2113 
z
" transform="scale(0.015625)"/>
     </defs>
     <use xlink:href="#DejaVuSans-4d"/>
     <use xlink:href="#DejaVuSans-6f" x="86.279297"/>
     <use xlink:href="#DejaVuSans-6e" x="147.460938"/>
     <use xlink:href="#DejaVuSans-74" x="210.839844"/>
     <use xlink:href="#DejaVuSans-65" x="250.048828"/>
     <use xlink:href="#DejaVuSans-20" x="311.572266"/>
     <use xlink:href="#DejaVuSans-43" x="343.359375"/>
     <use xlink:href="#DejaVuSans-61" x="413.183594"/>
     <use xlink:href="#DejaVuSans-72" x="474.462891"/>
     <use xlink:href="#DejaVuSans-6c" x="515.576172"/>
     <use xlink:href="#DejaVuSans-6f" x="543.359375"/>
     <use xlink:href="#DejaVuSans-20" x="604.541016"/>
     <use xlink:href="#DejaVuSans-49" x="636.328125"/>
     <use xlink:href="#DejaVuSans-6e" x="665.820312"/>
     <use xlink:href="#DejaVuSans-74" x="729.199219"/>
     <use xlink:href="#DejaVuSans-65" x="768.408203"/>
     <use xlink:href="#DejaVuSans-67" x="829.931641"/>
     <use xlink:href="#DejaVuSans-72" x="893.408203"/>
     <use xlink:href="#DejaVuSans-61" x="934.521484"/>
     <use xlink:href="#DejaVuSans-74" x="995.800781"/>
     <use xlink:href="#DejaVuSans-69" x="1035.009766"/>
     <use xlink:href="#DejaVuSans-6f" x="1062.792969"/>
     <use xlink:href="#DejaVuSans-6e" x="1123.974609"/>
     <use xlink:href="#DejaVuSans-20" x="1187.353516"/>
     <use xlink:href="#DejaVuSans-77" x="1219.140625"/>
     <use xlink:href="#DejaVuSans-69" x="1300.927734"/>
     <use xlink:href="#DejaVuSans-74" x="1328.710938"/>
     <use xlink:href="#DejaVuSans-68" x="1367.919922"/>
     <use xlink:href="#DejaVuSans-20" x="1431.298828"/>
    </g>
    <!-- Antithetic Variance Reduction, N = 30 function evaluations -->
    <g transform="translate(60.819078 37.2)scale(0.12 -0.12)">
     <defs>
      <path id="DejaVuSans-41" d="M 2188 4044 
L 1331 1722 
L 3047 1722 
L 2188 4044 
z
M 1831 4666 
L 2547 4666 
L 4325 0 
L 3669 0 
L 3244 1197 
L 1141 1197 
L 716 0 
L 50 0 
L 1831 4666 
z
" transform="scale(0.015625)"/>
      <path id="DejaVuSans-63" d="M 3122 3366 
L 3122 2828 
Q 2878 2963 2633 3030 
Q 2388 3097 2138 3097 
Q 1578 3097 1268 2742 
Q 959 2388 959 1747 
Q 959 1106 1268 751 
Q 1578 397 2138 397 
Q 2388 397 2633 464 
Q 2878 531 3122 666 
L 3122 134 
Q 2881 22 2623 -34 
Q 2366 -91 2075 -91 
Q 1284 -91 818 406 
Q 353 903 353 1747 
Q 353 2603 823 3093 
Q 1294 3584 2113 3584 
Q 2378 3584 2631 3529 
Q 2884 3475 3122 3366 
z
" transform="scale(0.015625)"/>
      <path id="DejaVuSans-56" d="M 1831 0 
L 50 4666 
L 709 4666 
L 2188 738 
L 3669 4666 
L 4325 4666 
L 2547 0 
L 1831 0 
z
" transform="scale(0.015625)"/>
      <path id="DejaVuSans-52" d="M 2841 2188 
Q 3044 2119 3236 1894 
Q 3428 1669 3622 1275 
L 4263 0 
L 3584 0 
L 2988 1197 
Q 2756 1666 2539 1819 
Q 2322 1972 1947 1972 
L 1259 1972 
L 1259 0 
L 628 0 
L 628 4666 
L 2053 4666 
Q 2853 4666 3247 4331 
Q 3641 3997 3641 3322 
Q 3641 2881 3436 2590 
Q 3231 2300 2841 2188 
z
M 1259 4147 
L 1259 2491 
L 2053 2491 
Q 2509 2491 2742 2702 
Q 2975 2913 2975 3322 
Q 2975 3731 2742 3939 
Q 2509 4147 2053 4147 
L 1259 4147 
z
" transform="scale(0.015625)"/>
      <path id="DejaVuSans-64" d="M 2906 2969 
L 2906 4863 
L 3481 4863 
L 3481 0 
L 2906 0 
L 2906 525 
Q 2725 213 2448 61 
Q 2172 -91 1784 -91 
Q 1150 -91 751 415 
Q 353 922 353 1747 
Q 353 2572 751 3078 
Q 1150 3584 1784 3584 
Q 2172 3584 2448 3432 
Q 2725 3281 2906 2969 
z
M 947 1747 
Q 947 1113 1208 752 
Q 1469 391 1925 391 
Q 2381 391 2643 752 
Q 2906 1113 2906 1747 
Q 2906 2381 2643 2742 
Q 2381 3103 1925 3103 
Q 1469 3103 1208 2742 
Q 947 2381 947 1747 
z
" transform="scale(0.015625)"/>
      <path id="DejaVuSans-75" d="M 544 1381 
L 544 3500 
L 1119 3500 
L 1119 1403 
Q 1119 906 1312 657 
Q 1506 409 1894 409 
Q 2359 409 2629 706 
Q 2900 1003 2900 1516 
L 2900 3500 
L 3475 3500 
L 3475 0 
L 2900 0 
L 2900 538 
Q 2691 219 2414 64 
Q 2138 -91 1772 -91 
Q 1169 -91 856 284 
Q 544 659 544 1381 
z
M 1991 3584 
L 1991 3584 
z
" transform="scale(0.015625)"/>
      <path id="DejaVuSans-2c" d="M 750 794 
L 1409 794 
L 1409 256 
L 897 -744 
L 494 -744 
L 750 256 
L 750 794 
z
" transform="scale(0.015625)"/>
      <path id="DejaVuSans-4e" d="M 628 4666 
L 1478 4666 
L 3547 763 
L 3547 4666 
L 4159 4666 
L 4159 0 
L 3309 0 
L 1241 3903 
L 1241 0 
L 628 0 
L 628 4666 
z
" transform="scale(0.015625)"/>
      <path id="DejaVuSans-3d" d="M 678 2906 
L 4684 2906 
L 4684 2381 
L 678 2381 
L 678 2906 
z
M 678 1631 
L 4684 1631 
L 4684 1100 
L 678 1100 
L 678 1631 
z
" transform="scale(0.015625)"/>
      <path id="DejaVuSans-33" d="M 2597 2516 
Q 3050 2419 3304 2112 
Q 3559 1806 3559 1356 
Q 3559 666 3084 287 
Q 2609 -91 1734 -91 
Q 1441 -91 1130 -33 
Q 819 25 488 141 
L 488 750 
Q 750 597 1062 519 
Q 1375 441 1716 441 
Q 2309 441 2620 675 
Q 2931 909 2931 1356 
Q 2931 1769 2642 2001 
Q 2353 2234 1838 2234 
L 1294 2234 
L 1294 2753 
L 1863 2753 
Q 2328 2753 2575 2939 
Q 2822 3125 2822 3475 
Q 2822 3834 2567 4026 
Q 2313 4219 1838 4219 
Q 1578 4219 1281 4162 
Q 984 4106 628 3988 
L 628 4550 
Q 988 4650 1302 4700 
Q 1616 4750 1894 4750 
Q 2613 4750 3031 4423 
Q 3450 4097 3450 3541 
Q 3450 3153 3228 2886 
Q 3006 2619 2597 2516 
z
" transform="scale(0.015625)"/>
      <path id="DejaVuSans-66" d="M 2375 4863 
L 2375 4384 
L 1825 4384 
Q 1516 4384 1395 4259 
Q 1275 4134 1275 3809 
L 1275 3500 
L 2222 3500 
L 2222 3053 
L 1275 3053 
L 1275 0 
L 697 0 
L 697 3053 
L 147 3053 
L 147 3500 
L 697 3500 
L 697 3744 
Q 697 4328 969 4595 
Q 1241 4863 1831 4863 
L 2375 4863 
z
" transform="scale(0.015625)"/>
      <path id="DejaVuSans-76" d="M 191 3500 
L 800 3500 
L 1894 563 
L 2988 3500 
L 3597 3500 
L 2284 0 
L 1503 0 
L 191 3500 
z
" transform="scale(0.015625)"/>
      <path id="DejaVuSans-73" d="M 2834 3397 
L 2834 2853 
Q 2591 2978 2328 3040 
Q 2066 3103 1784 3103 
Q 1356 3103 1142 2972 
Q 928 2841 928 2578 
Q 928 2378 1081 2264 
Q 1234 2150 1697 2047 
L 1894 2003 
Q 2506 1872 2764 1633 
Q 3022 1394 3022 966 
Q 3022 478 2636 193 
Q 2250 -91 1575 -91 
Q 1294 -91 989 -36 
Q 684 19 347 128 
L 347 722 
Q 666 556 975 473 
Q 1284 391 1588 391 
Q 1994 391 2212 530 
Q 2431 669 2431 922 
Q 2431 1156 2273 1281 
Q 2116 1406 1581 1522 
L 1381 1569 
Q 847 1681 609 1914 
Q 372 2147 372 2553 
Q 372 3047 722 3315 
Q 1072 3584 1716 3584 
Q 2034 3584 2315 3537 
Q 2597 3491 2834 3397 
z
" transform="scale(0.015625)"/>
     </defs>
     <use xlink:href="#DejaVuSans-41"/>
     <use xlink:href="#DejaVuSans-6e" x="68.408203"/>
     <use xlink:href="#DejaVuSans-74" x="131.787109"/>
     <use xlink:href="#DejaVuSans-69" x="170.996094"/>
     <use xlink:href="#DejaVuSans-74" x="198.779297"/>
     <use xlink:href="#DejaVuSans-68" x="237.988281"/>
     <use xlink:href="#DejaVuSans-65" x="301.367188"/>
     <use xlink:href="#DejaVuSans-74" x="362.890625"/>
     <use xlink:href="#DejaVuSans-69" x="402.099609"/>
     <use xlink:href="#DejaVuSans-63" x="429.882812"/>
     <use xlink:href="#DejaVuSans-20" x="484.863281"/>
     <use xlink:href="#DejaVuSans-56" x="516.650391"/>
     <use xlink:href="#DejaVuSans-61" x="577.308594"/>
     <use xlink:href="#DejaVuSans-72" x="638.587891"/>
     <use xlink:href="#DejaVuSans-69" x="679.701172"/>
     <use xlink:href="#DejaVuSans-61" x="707.484375"/>
     <use xlink:href="#DejaVuSans-6e" x="768.763672"/>
     <use xlink:href="#DejaVuSans-63" x="832.142578"/>
     <use xlink:href="#DejaVuSans-65" x="887.123047"/>
     <use xlink:href="#DejaVuSans-20" x="948.646484"/>
     <use xlink:href="#DejaVuSans-52" x="980.433594"/>
     <use xlink:href="#DejaVuSans-65" x="1045.416016"/>
     <use xlink:href="#DejaVuSans-64" x="1106.939453"/>
     <use xlink:href="#DejaVuSans-75" x="1170.416016"/>
     <use xlink:href="#DejaVuSans-63" x="1233.794922"/>
     <use xlink:href="#DejaVuSans-74" x="1288.775391"/>
     <use xlink:href="#DejaVuSans-69" x="1327.984375"/>
     <use xlink:href="#DejaVuSans-6f" x="1355.767578"/>
     <use xlink:href="#DejaVuSans-6e" x="1416.949219"/>
     <use xlink:href="#DejaVuSans-2c" x="1480.328125"/>
     <use xlink:href="#DejaVuSans-20" x="1512.115234"/>
     <use xlink:href="#DejaVuSans-4e" x="1543.902344"/>
     <use xlink:href="#DejaVuSans-20" x="1618.707031"/>
     <use xlink:href="#DejaVuSans-3d" x="1650.494141"/>
     <use xlink:href="#DejaVuSans-20" x="1734.283203"/>
     <use xlink:href="#DejaVuSans-33" x="1766.070312"/>
     <use xlink:href="#DejaVuSans-30" x="1829.693359"/>
     <use xlink:href="#DejaVuSans-20" x="1893.316406"/>
     <use xlink:href="#DejaVuSans-66" x="1925.103516"/>
     <use xlink:href="#DejaVuSans-75" x="1960.308594"/>
     <use xlink:href="#DejaVuSans-6e" x="2023.6875"/>
     <use xlink:href="#DejaVuSans-63" x="2087.066406"/>
     <use xlink:href="#DejaVuSans-74" x="2142.046875"/>
     <use xlink:href="#DejaVuSans-69" x="2181.255859"/>
     <use xlink:href="#DejaVuSans-6f" x="2209.039062"/>
     <use xlink:href="#DejaVuSans-6e" x="2270.220703"/>
     <use xlink:href="#DejaVuSans-20" x="2333.599609"/>
     <use xlink:href="#DejaVuSans-65" x="2365.386719"/>
     <use xlink:href="#DejaVuSans-76" x="2426.910156"/>
     <use xlink:href="#DejaVuSans-61" x="2486.089844"/>
     <use xlink:href="#DejaVuSans-6c" x="2547.369141"/>
     <use xlink:href="#DejaVuSans-75" x="2575.152344"/>
     <use xlink:href="#DejaVuSans-61" x="2638.53125"/>
     <use xlink:href="#DejaVuSans-74" x="2699.810547"/>
     <use xlink:href="#DejaVuSans-69" x="2739.019531"/>
     <use xlink:href="#DejaVuSans-6f" x="2766.802734"/>
     <use xlink:href="#DejaVuSans-6e" x="2827.984375"/>
     <use xlink:href="#DejaVuSans-73" x="2891.363281"/>
    </g>
   </g>
   <g id="line2d_22">
    <path d="M 155.686031 127.597691 
" clip-path="url(#p8107c36c60)" style="fill: none; stroke: #ff0000; stroke-width: 1.5; stroke-linecap: square"/>
   </g>
   <g id="legend_1">
    <g id="patch_7">
     <path d="M 211.090968 146.98625 
L 410.24878 146.98625 
Q 412.24878 146.98625 412.24878 144.98625 
L 412.24878 50.2 
Q 412.24878 48.2 410.24878 48.2 
L 211.090968 48.2 
Q 209.090968 48.2 209.090968 50.2 
L 209.090968 144.98625 
Q 209.090968 146.98625 211.090968 146.98625 
z
" style="fill: #ffffff; opacity: 0.8; stroke: #cccccc; stroke-linejoin: miter"/>
    </g>
    <g id="line2d_23">
     <path d="M 213.090968 56.298437 
L 223.090968 56.298437 
L 233.090968 56.298437 
" style="fill: none; stroke: #000000; stroke-width: 1.5; stroke-linecap: square"/>
    </g>
    <g id="text_21">
     <!-- f(x) -->
     <g transform="translate(241.090968 59.798437)scale(0.1 -0.1)">
      <defs>
       <path id="DejaVuSans-28" d="M 1984 4856 
Q 1566 4138 1362 3434 
Q 1159 2731 1159 2009 
Q 1159 1288 1364 580 
Q 1569 -128 1984 -844 
L 1484 -844 
Q 1016 -109 783 600 
Q 550 1309 550 2009 
Q 550 2706 781 3412 
Q 1013 4119 1484 4856 
L 1984 4856 
z
" transform="scale(0.015625)"/>
       <path id="DejaVuSans-29" d="M 513 4856 
L 1013 4856 
Q 1481 4119 1714 3412 
Q 1947 2706 1947 2009 
Q 1947 1309 1714 600 
Q 1481 -109 1013 -844 
L 513 -844 
Q 928 -128 1133 580 
Q 1338 1288 1338 2009 
Q 1338 2731 1133 3434 
Q 928 4138 513 4856 
z
" transform="scale(0.015625)"/>
      </defs>
      <use xlink:href="#DejaVuSans-66"/>
      <use xlink:href="#DejaVuSans-28" x="35.205078"/>
      <use xlink:href="#DejaVuSans-78" x="74.21875"/>
      <use xlink:href="#DejaVuSans-29" x="133.398438"/>
     </g>
    </g>
    <g id="line2d_24">
     <path d="M 213.090968 70.976562 
L 233.090968 70.976562 
" style="fill: none; stroke: #ff0000; stroke-width: 1.5"/>
    </g>
    <g id="text_22">
     <!-- MC estimate -->
     <g transform="translate(241.090968 74.476562)scale(0.1 -0.1)">
      <defs>
       <path id="DejaVuSans-6d" d="M 3328 2828 
Q 3544 3216 3844 3400 
Q 4144 3584 4550 3584 
Q 5097 3584 5394 3201 
Q 5691 2819 5691 2113 
L 5691 0 
L 5113 0 
L 5113 2094 
Q 5113 2597 4934 2840 
Q 4756 3084 4391 3084 
Q 3944 3084 3684 2787 
Q 3425 2491 3425 1978 
L 3425 0 
L 2847 0 
L 2847 2094 
Q 2847 2600 2669 2842 
Q 2491 3084 2119 3084 
Q 1678 3084 1418 2786 
Q 1159 2488 1159 1978 
L 1159 0 
L 581 0 
L 581 3500 
L 1159 3500 
L 1159 2956 
Q 1356 3278 1631 3431 
Q 1906 3584 2284 3584 
Q 2666 3584 2933 3390 
Q 3200 3197 3328 2828 
z
" transform="scale(0.015625)"/>
      </defs>
      <use xlink:href="#DejaVuSans-4d"/>
      <use xlink:href="#DejaVuSans-43" x="86.279297"/>
      <use xlink:href="#DejaVuSans-20" x="156.103516"/>
      <use xlink:href="#DejaVuSans-65" x="187.890625"/>
      <use xlink:href="#DejaVuSans-73" x="249.414062"/>
      <use xlink:href="#DejaVuSans-74" x="301.513672"/>
      <use xlink:href="#DejaVuSans-69" x="340.722656"/>
      <use xlink:href="#DejaVuSans-6d" x="368.505859"/>
      <use xlink:href="#DejaVuSans-61" x="465.917969"/>
      <use xlink:href="#DejaVuSans-74" x="527.197266"/>
      <use xlink:href="#DejaVuSans-65" x="566.40625"/>
     </g>
    </g>
    <g id="PathCollection_2">
     <path d="M 223.090968 100.888664 
C 223.653549 100.888664 224.193163 100.665148 224.590968 100.267344 
C 224.988773 99.869539 225.212288 99.329924 225.212288 98.767344 
C 225.212288 98.204763 224.988773 97.665148 224.590968 97.267344 
C 224.193163 96.869539 223.653549 96.646023 223.090968 96.646023 
C 222.528387 96.646023 221.988773 96.869539 221.590968 97.267344 
C 221.193163 97.665148 220.969648 98.204763 220.969648 98.767344 
C 220.969648 99.329924 221.193163 99.869539 221.590968 100.267344 
C 221.988773 100.665148 222.528387 100.888664 223.090968 100.888664 
z
" style="fill: #00dcfe; stroke: #00dcfe"/>
    </g>
    <g id="text_23">
     <!-- function evaluation at -->
     <g transform="translate(241.090968 89.154688)scale(0.1 -0.1)">
      <use xlink:href="#DejaVuSans-66"/>
      <use xlink:href="#DejaVuSans-75" x="35.205078"/>
      <use xlink:href="#DejaVuSans-6e" x="98.583984"/>
      <use xlink:href="#DejaVuSans-63" x="161.962891"/>
      <use xlink:href="#DejaVuSans-74" x="216.943359"/>
      <use xlink:href="#DejaVuSans-69" x="256.152344"/>
      <use xlink:href="#DejaVuSans-6f" x="283.935547"/>
      <use xlink:href="#DejaVuSans-6e" x="345.117188"/>
      <use xlink:href="#DejaVuSans-20" x="408.496094"/>
      <use xlink:href="#DejaVuSans-65" x="440.283203"/>
      <use xlink:href="#DejaVuSans-76" x="501.806641"/>
      <use xlink:href="#DejaVuSans-61" x="560.986328"/>
      <use xlink:href="#DejaVuSans-6c" x="622.265625"/>
      <use xlink:href="#DejaVuSans-75" x="650.048828"/>
      <use xlink:href="#DejaVuSans-61" x="713.427734"/>
      <use xlink:href="#DejaVuSans-74" x="774.707031"/>
      <use xlink:href="#DejaVuSans-69" x="813.916016"/>
      <use xlink:href="#DejaVuSans-6f" x="841.699219"/>
      <use xlink:href="#DejaVuSans-6e" x="902.880859"/>
      <use xlink:href="#DejaVuSans-20" x="966.259766"/>
      <use xlink:href="#DejaVuSans-61" x="998.046875"/>
      <use xlink:href="#DejaVuSans-74" x="1059.326172"/>
     </g>
     <!-- sampled point-counterpoint-pairs -->
     <g transform="translate(241.090968 100.3525)scale(0.1 -0.1)">
      <defs>
       <path id="DejaVuSans-70" d="M 1159 525 
L 1159 -1331 
L 581 -1331 
L 581 3500 
L 1159 3500 
L 1159 2969 
Q 1341 3281 1617 3432 
Q 1894 3584 2278 3584 
Q 2916 3584 3314 3078 
Q 3713 2572 3713 1747 
Q 3713 922 3314 415 
Q 2916 -91 2278 -91 
Q 1894 -91 1617 61 
Q 1341 213 1159 525 
z
M 3116 1747 
Q 3116 2381 2855 2742 
Q 2594 3103 2138 3103 
Q 1681 3103 1420 2742 
Q 1159 2381 1159 1747 
Q 1159 1113 1420 752 
Q 1681 391 2138 391 
Q 2594 391 2855 752 
Q 3116 1113 3116 1747 
z
" transform="scale(0.015625)"/>
       <path id="DejaVuSans-2d" d="M 313 2009 
L 1997 2009 
L 1997 1497 
L 313 1497 
L 313 2009 
z
" transform="scale(0.015625)"/>
      </defs>
      <use xlink:href="#DejaVuSans-73"/>
      <use xlink:href="#DejaVuSans-61" x="52.099609"/>
      <use xlink:href="#DejaVuSans-6d" x="113.378906"/>
      <use xlink:href="#DejaVuSans-70" x="210.791016"/>
      <use xlink:href="#DejaVuSans-6c" x="274.267578"/>
      <use xlink:href="#DejaVuSans-65" x="302.050781"/>
      <use xlink:href="#DejaVuSans-64" x="363.574219"/>
      <use xlink:href="#DejaVuSans-20" x="427.050781"/>
      <use xlink:href="#DejaVuSans-70" x="458.837891"/>
      <use xlink:href="#DejaVuSans-6f" x="522.314453"/>
      <use xlink:href="#DejaVuSans-69" x="583.496094"/>
      <use xlink:href="#DejaVuSans-6e" x="611.279297"/>
      <use xlink:href="#DejaVuSans-74" x="674.658203"/>
      <use xlink:href="#DejaVuSans-2d" x="713.867188"/>
      <use xlink:href="#DejaVuSans-63" x="749.951172"/>
      <use xlink:href="#DejaVuSans-6f" x="804.931641"/>
      <use xlink:href="#DejaVuSans-75" x="866.113281"/>
      <use xlink:href="#DejaVuSans-6e" x="929.492188"/>
      <use xlink:href="#DejaVuSans-74" x="992.871094"/>
      <use xlink:href="#DejaVuSans-65" x="1032.080078"/>
      <use xlink:href="#DejaVuSans-72" x="1093.603516"/>
      <use xlink:href="#DejaVuSans-70" x="1134.716797"/>
      <use xlink:href="#DejaVuSans-6f" x="1198.193359"/>
      <use xlink:href="#DejaVuSans-69" x="1259.375"/>
      <use xlink:href="#DejaVuSans-6e" x="1287.158203"/>
      <use xlink:href="#DejaVuSans-74" x="1350.537109"/>
      <use xlink:href="#DejaVuSans-2d" x="1389.746094"/>
      <use xlink:href="#DejaVuSans-70" x="1425.830078"/>
      <use xlink:href="#DejaVuSans-61" x="1489.306641"/>
      <use xlink:href="#DejaVuSans-69" x="1550.585938"/>
      <use xlink:href="#DejaVuSans-72" x="1578.369141"/>
      <use xlink:href="#DejaVuSans-73" x="1619.482422"/>
     </g>
     <!-- indicated by same color -->
     <g transform="translate(241.090968 111.550313)scale(0.1 -0.1)">
      <defs>
       <path id="DejaVuSans-62" d="M 3116 1747 
Q 3116 2381 2855 2742 
Q 2594 3103 2138 3103 
Q 1681 3103 1420 2742 
Q 1159 2381 1159 1747 
Q 1159 1113 1420 752 
Q 1681 391 2138 391 
Q 2594 391 2855 752 
Q 3116 1113 3116 1747 
z
M 1159 2969 
Q 1341 3281 1617 3432 
Q 1894 3584 2278 3584 
Q 2916 3584 3314 3078 
Q 3713 2572 3713 1747 
Q 3713 922 3314 415 
Q 2916 -91 2278 -91 
Q 1894 -91 1617 61 
Q 1341 213 1159 525 
L 1159 0 
L 581 0 
L 581 4863 
L 1159 4863 
L 1159 2969 
z
" transform="scale(0.015625)"/>
      </defs>
      <use xlink:href="#DejaVuSans-69"/>
      <use xlink:href="#DejaVuSans-6e" x="27.783203"/>
      <use xlink:href="#DejaVuSans-64" x="91.162109"/>
      <use xlink:href="#DejaVuSans-69" x="154.638672"/>
      <use xlink:href="#DejaVuSans-63" x="182.421875"/>
      <use xlink:href="#DejaVuSans-61" x="237.402344"/>
      <use xlink:href="#DejaVuSans-74" x="298.681641"/>
      <use xlink:href="#DejaVuSans-65" x="337.890625"/>
      <use xlink:href="#DejaVuSans-64" x="399.414062"/>
      <use xlink:href="#DejaVuSans-20" x="462.890625"/>
      <use xlink:href="#DejaVuSans-62" x="494.677734"/>
      <use xlink:href="#DejaVuSans-79" x="558.154297"/>
      <use xlink:href="#DejaVuSans-20" x="617.333984"/>
      <use xlink:href="#DejaVuSans-73" x="649.121094"/>
      <use xlink:href="#DejaVuSans-61" x="701.220703"/>
      <use xlink:href="#DejaVuSans-6d" x="762.5"/>
      <use xlink:href="#DejaVuSans-65" x="859.912109"/>
      <use xlink:href="#DejaVuSans-20" x="921.435547"/>
      <use xlink:href="#DejaVuSans-63" x="953.222656"/>
      <use xlink:href="#DejaVuSans-6f" x="1008.203125"/>
      <use xlink:href="#DejaVuSans-6c" x="1069.384766"/>
      <use xlink:href="#DejaVuSans-6f" x="1097.167969"/>
      <use xlink:href="#DejaVuSans-72" x="1158.349609"/>
     </g>
    </g>
    <g id="patch_8">
     <path d="M 213.090968 126.228437 
L 233.090968 126.228437 
L 233.090968 119.228437 
L 213.090968 119.228437 
z
" style="fill: #ff0000; fill-opacity: 0.1; stroke: #ff0000; stroke-opacity: 0.1; stroke-linejoin: miter"/>
    </g>
    <g id="text_24">
     <!-- area the MC estimate represents -->
     <g transform="translate(241.090968 126.228437)scale(0.1 -0.1)">
      <use xlink:href="#DejaVuSans-61"/>
      <use xlink:href="#DejaVuSans-72" x="61.279297"/>
      <use xlink:href="#DejaVuSans-65" x="100.142578"/>
      <use xlink:href="#DejaVuSans-61" x="161.666016"/>
      <use xlink:href="#DejaVuSans-20" x="222.945312"/>
      <use xlink:href="#DejaVuSans-74" x="254.732422"/>
      <use xlink:href="#DejaVuSans-68" x="293.941406"/>
      <use xlink:href="#DejaVuSans-65" x="357.320312"/>
      <use xlink:href="#DejaVuSans-20" x="418.84375"/>
      <use xlink:href="#DejaVuSans-4d" x="450.630859"/>
      <use xlink:href="#DejaVuSans-43" x="536.910156"/>
      <use xlink:href="#DejaVuSans-20" x="606.734375"/>
      <use xlink:href="#DejaVuSans-65" x="638.521484"/>
      <use xlink:href="#DejaVuSans-73" x="700.044922"/>
      <use xlink:href="#DejaVuSans-74" x="752.144531"/>
      <use xlink:href="#DejaVuSans-69" x="791.353516"/>
      <use xlink:href="#DejaVuSans-6d" x="819.136719"/>
      <use xlink:href="#DejaVuSans-61" x="916.548828"/>
      <use xlink:href="#DejaVuSans-74" x="977.828125"/>
      <use xlink:href="#DejaVuSans-65" x="1017.037109"/>
      <use xlink:href="#DejaVuSans-20" x="1078.560547"/>
      <use xlink:href="#DejaVuSans-72" x="1110.347656"/>
      <use xlink:href="#DejaVuSans-65" x="1149.210938"/>
      <use xlink:href="#DejaVuSans-70" x="1210.734375"/>
      <use xlink:href="#DejaVuSans-72" x="1274.210938"/>
      <use xlink:href="#DejaVuSans-65" x="1313.074219"/>
      <use xlink:href="#DejaVuSans-73" x="1374.597656"/>
      <use xlink:href="#DejaVuSans-65" x="1426.697266"/>
      <use xlink:href="#DejaVuSans-6e" x="1488.220703"/>
      <use xlink:href="#DejaVuSans-74" x="1551.599609"/>
      <use xlink:href="#DejaVuSans-73" x="1590.808594"/>
     </g>
    </g>
    <g id="LineCollection_3">
     <path d="M 223.090968 142.406562 
L 223.090968 132.406562 
" style="fill: none; stroke: #ff0000; stroke-width: 1.5"/>
    </g>
    <g id="line2d_25">
     <g>
      <use xlink:href="#m268a6a11a7" x="223.090968" y="142.406562" style="fill: #ff0000; stroke: #ff0000; stroke-width: 2"/>
     </g>
    </g>
    <g id="line2d_26">
     <g>
      <use xlink:href="#m268a6a11a7" x="223.090968" y="132.406562" style="fill: #ff0000; stroke: #ff0000; stroke-width: 2"/>
     </g>
    </g>
    <g id="line2d_27">
     <path d="M 213.090968 137.406562 
L 233.090968 137.406562 
" style="fill: none; stroke: #ff0000; stroke-width: 1.5; stroke-linecap: square"/>
    </g>
    <g id="line2d_28"/>
    <g id="text_25">
     <!-- estimated standard deviation -->
     <g transform="translate(241.090968 140.906562)scale(0.1 -0.1)">
      <use xlink:href="#DejaVuSans-65"/>
      <use xlink:href="#DejaVuSans-73" x="61.523438"/>
      <use xlink:href="#DejaVuSans-74" x="113.623047"/>
      <use xlink:href="#DejaVuSans-69" x="152.832031"/>
      <use xlink:href="#DejaVuSans-6d" x="180.615234"/>
      <use xlink:href="#DejaVuSans-61" x="278.027344"/>
      <use xlink:href="#DejaVuSans-74" x="339.306641"/>
      <use xlink:href="#DejaVuSans-65" x="378.515625"/>
      <use xlink:href="#DejaVuSans-64" x="440.039062"/>
      <use xlink:href="#DejaVuSans-20" x="503.515625"/>
      <use xlink:href="#DejaVuSans-73" x="535.302734"/>
      <use xlink:href="#DejaVuSans-74" x="587.402344"/>
      <use xlink:href="#DejaVuSans-61" x="626.611328"/>
      <use xlink:href="#DejaVuSans-6e" x="687.890625"/>
      <use xlink:href="#DejaVuSans-64" x="751.269531"/>
      <use xlink:href="#DejaVuSans-61" x="814.746094"/>
      <use xlink:href="#DejaVuSans-72" x="876.025391"/>
      <use xlink:href="#DejaVuSans-64" x="915.388672"/>
      <use xlink:href="#DejaVuSans-20" x="978.865234"/>
      <use xlink:href="#DejaVuSans-64" x="1010.652344"/>
      <use xlink:href="#DejaVuSans-65" x="1074.128906"/>
      <use xlink:href="#DejaVuSans-76" x="1135.652344"/>
      <use xlink:href="#DejaVuSans-69" x="1194.832031"/>
      <use xlink:href="#DejaVuSans-61" x="1222.615234"/>
      <use xlink:href="#DejaVuSans-74" x="1283.894531"/>
      <use xlink:href="#DejaVuSans-69" x="1323.103516"/>
      <use xlink:href="#DejaVuSans-6f" x="1350.886719"/>
      <use xlink:href="#DejaVuSans-6e" x="1412.068359"/>
     </g>
    </g>
   </g>
  </g>
  <g id="axes_2">
   <g id="patch_9">
    <path d="M 428.487805 388.8 
L 518.4 388.8 
L 518.4 43.2 
L 428.487805 43.2 
z
" style="fill: #ffffff"/>
   </g>
   <g id="patch_10">
    <path d="M 428.487805 144.000549 
L 428.92311 144.000549 
L 428.92311 142.430495 
L 428.487805 142.430495 
z
" clip-path="url(#p8a32387dd0)" style="fill: #ff0000; opacity: 0.5"/>
   </g>
   <g id="patch_11">
    <path d="M 428.487805 142.430495 
L 428.92311 142.430495 
L 428.92311 140.860442 
L 428.487805 140.860442 
z
" clip-path="url(#p8a32387dd0)" style="fill: #ff0000; opacity: 0.5"/>
   </g>
   <g id="patch_12">
    <path d="M 428.487805 140.860442 
L 429.60716 140.860442 
L 429.60716 139.290388 
L 428.487805 139.290388 
z
" clip-path="url(#p8a32387dd0)" style="fill: #ff0000; opacity: 0.5"/>
   </g>
   <g id="patch_13">
    <path d="M 428.487805 139.290388 
L 433.835835 139.290388 
L 433.835835 137.720334 
L 428.487805 137.720334 
z
" clip-path="url(#p8a32387dd0)" style="fill: #ff0000; opacity: 0.5"/>
   </g>
   <g id="patch_14">
    <path d="M 428.487805 137.720334 
L 439.494796 137.720334 
L 439.494796 136.15028 
L 428.487805 136.15028 
z
" clip-path="url(#p8a32387dd0)" style="fill: #ff0000; opacity: 0.5"/>
   </g>
   <g id="patch_15">
    <path d="M 428.487805 136.15028 
L 450.190856 136.15028 
L 450.190856 134.580227 
L 428.487805 134.580227 
z
" clip-path="url(#p8a32387dd0)" style="fill: #ff0000; opacity: 0.5"/>
   </g>
   <g id="patch_16">
    <path d="M 428.487805 134.580227 
L 466.608063 134.580227 
L 466.608063 133.010173 
L 428.487805 133.010173 
z
" clip-path="url(#p8a32387dd0)" style="fill: #ff0000; opacity: 0.5"/>
   </g>
   <g id="patch_17">
    <path d="M 428.487805 133.010173 
L 483.149644 133.010173 
L 483.149644 131.440119 
L 428.487805 131.440119 
z
" clip-path="url(#p8a32387dd0)" style="fill: #ff0000; opacity: 0.5"/>
   </g>
   <g id="patch_18">
    <path d="M 428.487805 131.440119 
L 504.168644 131.440119 
L 504.168644 129.870065 
L 428.487805 129.870065 
z
" clip-path="url(#p8a32387dd0)" style="fill: #ff0000; opacity: 0.5"/>
   </g>
   <g id="patch_19">
    <path d="M 428.487805 129.870065 
L 514.118467 129.870065 
L 514.118467 128.300012 
L 428.487805 128.300012 
z
" clip-path="url(#p8a32387dd0)" style="fill: #ff0000; opacity: 0.5"/>
   </g>
   <g id="patch_20">
    <path d="M 428.487805 128.300012 
L 513.745349 128.300012 
L 513.745349 126.729958 
L 428.487805 126.729958 
z
" clip-path="url(#p8a32387dd0)" style="fill: #ff0000; opacity: 0.5"/>
   </g>
   <g id="patch_21">
    <path d="M 428.487805 126.729958 
L 511.568825 126.729958 
L 511.568825 125.159904 
L 428.487805 125.159904 
z
" clip-path="url(#p8a32387dd0)" style="fill: #ff0000; opacity: 0.5"/>
   </g>
   <g id="patch_22">
    <path d="M 428.487805 125.159904 
L 490.860756 125.159904 
L 490.860756 123.58985 
L 428.487805 123.58985 
z
" clip-path="url(#p8a32387dd0)" style="fill: #ff0000; opacity: 0.5"/>
   </g>
   <g id="patch_23">
    <path d="M 428.487805 123.58985 
L 473.262007 123.58985 
L 473.262007 122.019797 
L 428.487805 122.019797 
z
" clip-path="url(#p8a32387dd0)" style="fill: #ff0000; opacity: 0.5"/>
   </g>
   <g id="patch_24">
    <path d="M 428.487805 122.019797 
L 455.414513 122.019797 
L 455.414513 120.449743 
L 428.487805 120.449743 
z
" clip-path="url(#p8a32387dd0)" style="fill: #ff0000; opacity: 0.5"/>
   </g>
   <g id="patch_25">
    <path d="M 428.487805 120.449743 
L 443.536912 120.449743 
L 443.536912 118.879689 
L 428.487805 118.879689 
z
" clip-path="url(#p8a32387dd0)" style="fill: #ff0000; opacity: 0.5"/>
   </g>
   <g id="patch_26">
    <path d="M 428.487805 118.879689 
L 434.706444 118.879689 
L 434.706444 117.309635 
L 428.487805 117.309635 
z
" clip-path="url(#p8a32387dd0)" style="fill: #ff0000; opacity: 0.5"/>
   </g>
   <g id="patch_27">
    <path d="M 428.487805 117.309635 
L 431.348379 117.309635 
L 431.348379 115.739581 
L 428.487805 115.739581 
z
" clip-path="url(#p8a32387dd0)" style="fill: #ff0000; opacity: 0.5"/>
   </g>
   <g id="patch_28">
    <path d="M 428.487805 115.739581 
L 429.296228 115.739581 
L 429.296228 114.169528 
L 428.487805 114.169528 
z
" clip-path="url(#p8a32387dd0)" style="fill: #ff0000; opacity: 0.5"/>
   </g>
   <g id="patch_29">
    <path d="M 428.487805 114.169528 
L 428.860923 114.169528 
L 428.860923 112.599474 
L 428.487805 112.599474 
z
" clip-path="url(#p8a32387dd0)" style="fill: #ff0000; opacity: 0.5"/>
   </g>
   <g id="patch_30">
    <path d="M 428.487805 209.748819 
L 428.526642 209.748819 
L 428.526642 202.206832 
L 428.487805 202.206832 
z
" clip-path="url(#p8a32387dd0)" style="fill: #0000ff; opacity: 0.5"/>
   </g>
   <g id="patch_31">
    <path d="M 428.487805 202.206832 
L 428.539588 202.206832 
L 428.539588 194.664846 
L 428.487805 194.664846 
z
" clip-path="url(#p8a32387dd0)" style="fill: #0000ff; opacity: 0.5"/>
   </g>
   <g id="patch_32">
    <path d="M 428.487805 194.664846 
L 428.707881 194.664846 
L 428.707881 187.122859 
L 428.487805 187.122859 
z
" clip-path="url(#p8a32387dd0)" style="fill: #0000ff; opacity: 0.5"/>
   </g>
   <g id="patch_33">
    <path d="M 428.487805 187.122859 
L 429.096251 187.122859 
L 429.096251 179.580873 
L 428.487805 179.580873 
z
" clip-path="url(#p8a32387dd0)" style="fill: #0000ff; opacity: 0.5"/>
   </g>
   <g id="patch_34">
    <path d="M 428.487805 179.580873 
L 429.937719 179.580873 
L 429.937719 172.038887 
L 428.487805 172.038887 
z
" clip-path="url(#p8a32387dd0)" style="fill: #0000ff; opacity: 0.5"/>
   </g>
   <g id="patch_35">
    <path d="M 428.487805 172.038887 
L 431.478252 172.038887 
L 431.478252 164.4969 
L 428.487805 164.4969 
z
" clip-path="url(#p8a32387dd0)" style="fill: #0000ff; opacity: 0.5"/>
   </g>
   <g id="patch_36">
    <path d="M 428.487805 164.4969 
L 434.054438 164.4969 
L 434.054438 156.954914 
L 428.487805 156.954914 
z
" clip-path="url(#p8a32387dd0)" style="fill: #0000ff; opacity: 0.5"/>
   </g>
   <g id="patch_37">
    <path d="M 428.487805 156.954914 
L 437.743951 156.954914 
L 437.743951 149.412928 
L 428.487805 149.412928 
z
" clip-path="url(#p8a32387dd0)" style="fill: #0000ff; opacity: 0.5"/>
   </g>
   <g id="patch_38">
    <path d="M 428.487805 149.412928 
L 441.847724 149.412928 
L 441.847724 141.870941 
L 428.487805 141.870941 
z
" clip-path="url(#p8a32387dd0)" style="fill: #0000ff; opacity: 0.5"/>
   </g>
   <g id="patch_39">
    <path d="M 428.487805 141.870941 
L 445.692585 141.870941 
L 445.692585 134.328955 
L 428.487805 134.328955 
z
" clip-path="url(#p8a32387dd0)" style="fill: #0000ff; opacity: 0.5"/>
   </g>
   <g id="patch_40">
    <path d="M 428.487805 134.328955 
L 445.79615 134.328955 
L 445.79615 126.786968 
L 428.487805 126.786968 
z
" clip-path="url(#p8a32387dd0)" style="fill: #0000ff; opacity: 0.5"/>
   </g>
   <g id="patch_41">
    <path d="M 428.487805 126.786968 
L 445.576074 126.786968 
L 445.576074 119.244982 
L 428.487805 119.244982 
z
" clip-path="url(#p8a32387dd0)" style="fill: #0000ff; opacity: 0.5"/>
   </g>
   <g id="patch_42">
    <path d="M 428.487805 119.244982 
L 443.789573 119.244982 
L 443.789573 111.702996 
L 428.487805 111.702996 
z
" clip-path="url(#p8a32387dd0)" style="fill: #0000ff; opacity: 0.5"/>
   </g>
   <g id="patch_43">
    <path d="M 428.487805 111.702996 
L 440.113006 111.702996 
L 440.113006 104.161009 
L 428.487805 104.161009 
z
" clip-path="url(#p8a32387dd0)" style="fill: #0000ff; opacity: 0.5"/>
   </g>
   <g id="patch_44">
    <path d="M 428.487805 104.161009 
L 436.216363 104.161009 
L 436.216363 96.619023 
L 428.487805 96.619023 
z
" clip-path="url(#p8a32387dd0)" style="fill: #0000ff; opacity: 0.5"/>
   </g>
   <g id="patch_45">
    <path d="M 428.487805 96.619023 
L 433.666068 96.619023 
L 433.666068 89.077036 
L 428.487805 89.077036 
z
" clip-path="url(#p8a32387dd0)" style="fill: #0000ff; opacity: 0.5"/>
   </g>
   <g id="patch_46">
    <path d="M 428.487805 89.077036 
L 430.779186 89.077036 
L 430.779186 81.53505 
L 428.487805 81.53505 
z
" clip-path="url(#p8a32387dd0)" style="fill: #0000ff; opacity: 0.5"/>
   </g>
   <g id="patch_47">
    <path d="M 428.487805 81.53505 
L 429.847099 81.53505 
L 429.847099 73.993064 
L 428.487805 73.993064 
z
" clip-path="url(#p8a32387dd0)" style="fill: #0000ff; opacity: 0.5"/>
   </g>
   <g id="patch_48">
    <path d="M 428.487805 73.993064 
L 429.109196 73.993064 
L 429.109196 66.451077 
L 428.487805 66.451077 
z
" clip-path="url(#p8a32387dd0)" style="fill: #0000ff; opacity: 0.5"/>
   </g>
   <g id="patch_49">
    <path d="M 428.487805 66.451077 
L 428.694935 66.451077 
L 428.694935 58.909091 
L 428.487805 58.909091 
z
" clip-path="url(#p8a32387dd0)" style="fill: #0000ff; opacity: 0.5"/>
   </g>
   <g id="matplotlib.axis_3">
    <g id="xtick_10">
     <g id="line2d_29">
      <g>
       <use xlink:href="#m7a82955e8b" x="428.487805" y="388.8" style="stroke: #000000; stroke-width: 0.8"/>
      </g>
     </g>
     <g id="text_26">
      <!-- 0 -->
      <g transform="translate(425.306555 403.398438)scale(0.1 -0.1)">
       <use xlink:href="#DejaVuSans-30"/>
      </g>
     </g>
    </g>
    <g id="xtick_11">
     <g id="line2d_30">
      <g>
       <use xlink:href="#m7a82955e8b" x="516.689143" y="388.8" style="stroke: #000000; stroke-width: 0.8"/>
      </g>
     </g>
     <g id="text_27">
      <!-- 20 -->
      <g transform="translate(510.326643 403.398438)scale(0.1 -0.1)">
       <use xlink:href="#DejaVuSans-32"/>
       <use xlink:href="#DejaVuSans-30" x="63.623047"/>
      </g>
     </g>
    </g>
   </g>
   <g id="matplotlib.axis_4">
    <g id="ytick_9">
     <g id="line2d_31">
      <g>
       <use xlink:href="#m336664ec15" x="428.487805" y="373.090909" style="stroke: #000000; stroke-width: 0.8"/>
      </g>
     </g>
    </g>
    <g id="ytick_10">
     <g id="line2d_32">
      <g>
       <use xlink:href="#m336664ec15" x="428.487805" y="328.812225" style="stroke: #000000; stroke-width: 0.8"/>
      </g>
     </g>
    </g>
    <g id="ytick_11">
     <g id="line2d_33">
      <g>
       <use xlink:href="#m336664ec15" x="428.487805" y="284.533542" style="stroke: #000000; stroke-width: 0.8"/>
      </g>
     </g>
    </g>
    <g id="ytick_12">
     <g id="line2d_34">
      <g>
       <use xlink:href="#m336664ec15" x="428.487805" y="240.254858" style="stroke: #000000; stroke-width: 0.8"/>
      </g>
     </g>
    </g>
    <g id="ytick_13">
     <g id="line2d_35">
      <g>
       <use xlink:href="#m336664ec15" x="428.487805" y="195.976174" style="stroke: #000000; stroke-width: 0.8"/>
      </g>
     </g>
    </g>
    <g id="ytick_14">
     <g id="line2d_36">
      <g>
       <use xlink:href="#m336664ec15" x="428.487805" y="151.69749" style="stroke: #000000; stroke-width: 0.8"/>
      </g>
     </g>
    </g>
    <g id="ytick_15">
     <g id="line2d_37">
      <g>
       <use xlink:href="#m336664ec15" x="428.487805" y="107.418807" style="stroke: #000000; stroke-width: 0.8"/>
      </g>
     </g>
    </g>
    <g id="ytick_16">
     <g id="line2d_38">
      <g>
       <use xlink:href="#m336664ec15" x="428.487805" y="63.140123" style="stroke: #000000; stroke-width: 0.8"/>
      </g>
     </g>
    </g>
   </g>
   <g id="patch_50">
    <path d="M 428.487805 388.8 
L 428.487805 43.2 
" style="fill: none; stroke: #000000; stroke-width: 0.8; stroke-linejoin: miter; stroke-linecap: square"/>
   </g>
   <g id="patch_51">
    <path d="M 518.4 388.8 
L 518.4 43.2 
" style="fill: none; stroke: #000000; stroke-width: 0.8; stroke-linejoin: miter; stroke-linecap: square"/>
   </g>
   <g id="patch_52">
    <path d="M 428.487805 388.8 
L 518.4 388.8 
" style="fill: none; stroke: #000000; stroke-width: 0.8; stroke-linejoin: miter; stroke-linecap: square"/>
   </g>
   <g id="patch_53">
    <path d="M 428.487805 43.2 
L 518.4 43.2 
" style="fill: none; stroke: #000000; stroke-width: 0.8; stroke-linejoin: miter; stroke-linecap: square"/>
   </g>
   <g id="text_28">
    <!-- Histogram over many MC estimates -->
    <g transform="translate(526.895625 108.0975)rotate(-270)scale(0.12 -0.12)">
     <defs>
      <path id="DejaVuSans-48" d="M 628 4666 
L 1259 4666 
L 1259 2753 
L 3553 2753 
L 3553 4666 
L 4184 4666 
L 4184 0 
L 3553 0 
L 3553 2222 
L 1259 2222 
L 1259 0 
L 628 0 
L 628 4666 
z
" transform="scale(0.015625)"/>
     </defs>
     <use xlink:href="#DejaVuSans-48"/>
     <use xlink:href="#DejaVuSans-69" x="75.195312"/>
     <use xlink:href="#DejaVuSans-73" x="102.978516"/>
     <use xlink:href="#DejaVuSans-74" x="155.078125"/>
     <use xlink:href="#DejaVuSans-6f" x="194.287109"/>
     <use xlink:href="#DejaVuSans-67" x="255.46875"/>
     <use xlink:href="#DejaVuSans-72" x="318.945312"/>
     <use xlink:href="#DejaVuSans-61" x="360.058594"/>
     <use xlink:href="#DejaVuSans-6d" x="421.337891"/>
     <use xlink:href="#DejaVuSans-20" x="518.75"/>
     <use xlink:href="#DejaVuSans-6f" x="550.537109"/>
     <use xlink:href="#DejaVuSans-76" x="611.71875"/>
     <use xlink:href="#DejaVuSans-65" x="670.898438"/>
     <use xlink:href="#DejaVuSans-72" x="732.421875"/>
     <use xlink:href="#DejaVuSans-20" x="773.535156"/>
     <use xlink:href="#DejaVuSans-6d" x="805.322266"/>
     <use xlink:href="#DejaVuSans-61" x="902.734375"/>
     <use xlink:href="#DejaVuSans-6e" x="964.013672"/>
     <use xlink:href="#DejaVuSans-79" x="1027.392578"/>
     <use xlink:href="#DejaVuSans-20" x="1086.572266"/>
     <use xlink:href="#DejaVuSans-4d" x="1118.359375"/>
     <use xlink:href="#DejaVuSans-43" x="1204.638672"/>
     <use xlink:href="#DejaVuSans-20" x="1274.462891"/>
     <use xlink:href="#DejaVuSans-65" x="1306.25"/>
     <use xlink:href="#DejaVuSans-73" x="1367.773438"/>
     <use xlink:href="#DejaVuSans-74" x="1419.873047"/>
     <use xlink:href="#DejaVuSans-69" x="1459.082031"/>
     <use xlink:href="#DejaVuSans-6d" x="1486.865234"/>
     <use xlink:href="#DejaVuSans-61" x="1584.277344"/>
     <use xlink:href="#DejaVuSans-74" x="1645.556641"/>
     <use xlink:href="#DejaVuSans-65" x="1684.765625"/>
     <use xlink:href="#DejaVuSans-73" x="1746.289062"/>
    </g>
   </g>
   <g id="legend_2">
    <g id="patch_54">
     <path d="M 435.487805 80.55625 
L 515.25968 80.55625 
Q 517.25968 80.55625 517.25968 78.55625 
L 517.25968 50.2 
Q 517.25968 48.2 515.25968 48.2 
L 435.487805 48.2 
Q 433.487805 48.2 433.487805 50.2 
L 433.487805 78.55625 
Q 433.487805 80.55625 435.487805 80.55625 
z
" style="fill: #ffffff; opacity: 0.8; stroke: #cccccc; stroke-linejoin: miter"/>
    </g>
    <g id="patch_55">
     <path d="M 437.487805 59.798437 
L 457.487805 59.798437 
L 457.487805 52.798437 
L 437.487805 52.798437 
z
" style="fill: #ff0000; opacity: 0.5"/>
    </g>
    <g id="text_29">
     <!-- antithetic -->
     <g transform="translate(465.487805 59.798437)scale(0.1 -0.1)">
      <use xlink:href="#DejaVuSans-61"/>
      <use xlink:href="#DejaVuSans-6e" x="61.279297"/>
      <use xlink:href="#DejaVuSans-74" x="124.658203"/>
      <use xlink:href="#DejaVuSans-69" x="163.867188"/>
      <use xlink:href="#DejaVuSans-74" x="191.650391"/>
      <use xlink:href="#DejaVuSans-68" x="230.859375"/>
      <use xlink:href="#DejaVuSans-65" x="294.238281"/>
      <use xlink:href="#DejaVuSans-74" x="355.761719"/>
      <use xlink:href="#DejaVuSans-69" x="394.970703"/>
      <use xlink:href="#DejaVuSans-63" x="422.753906"/>
     </g>
    </g>
    <g id="patch_56">
     <path d="M 437.487805 74.476562 
L 457.487805 74.476562 
L 457.487805 67.476562 
L 437.487805 67.476562 
z
" style="fill: #0000ff; opacity: 0.5"/>
    </g>
    <g id="text_30">
     <!-- standard -->
     <g transform="translate(465.487805 74.476562)scale(0.1 -0.1)">
      <use xlink:href="#DejaVuSans-73"/>
      <use xlink:href="#DejaVuSans-74" x="52.099609"/>
      <use xlink:href="#DejaVuSans-61" x="91.308594"/>
      <use xlink:href="#DejaVuSans-6e" x="152.587891"/>
      <use xlink:href="#DejaVuSans-64" x="215.966797"/>
      <use xlink:href="#DejaVuSans-61" x="279.443359"/>
      <use xlink:href="#DejaVuSans-72" x="340.722656"/>
      <use xlink:href="#DejaVuSans-64" x="380.085938"/>
     </g>
    </g>
   </g>
  </g>
 </g>
 <defs>
  <clipPath id="p8107c36c60">
   <rect x="57.6" y="43.2" width="359.64878" height="345.6"/>
  </clipPath>
  <clipPath id="p8a32387dd0">
   <rect x="428.487805" y="43.2" width="89.912195" height="345.6"/>
  </clipPath>
 </defs>
</svg>
