<?xml version="1.0" encoding="utf-8" standalone="no"?>
<!DOCTYPE svg PUBLIC "-//W3C//DTD SVG 1.1//EN"
  "http://www.w3.org/Graphics/SVG/1.1/DTD/svg11.dtd">
<svg xmlns:xlink="http://www.w3.org/1999/xlink" width="648pt" height="432pt" viewBox="0 0 648 432" xmlns="http://www.w3.org/2000/svg" version="1.1">
 <metadata>
  <rdf:RDF xmlns:dc="http://purl.org/dc/elements/1.1/" xmlns:cc="http://creativecommons.org/ns#" xmlns:rdf="http://www.w3.org/1999/02/22-rdf-syntax-ns#">
   <cc:Work>
    <dc:type rdf:resource="http://purl.org/dc/dcmitype/StillImage"/>
    <dc:date>2023-11-04T11:50:12.513934</dc:date>
    <dc:format>image/svg+xml</dc:format>
    <dc:creator>
     <cc:Agent>
      <dc:title>Matplotlib v3.5.1, https://matplotlib.org/</dc:title>
     </cc:Agent>
    </dc:creator>
   </cc:Work>
  </rdf:RDF>
 </metadata>
 <defs>
  <style type="text/css">*{stroke-linejoin: round; stroke-linecap: butt}</style>
 </defs>
 <g id="figure_1">
  <g id="patch_1">
   <path d="M 0 432 
L 648 432 
L 648 0 
L 0 0 
z
" style="fill: #ffffff"/>
  </g>
  <g id="axes_1">
   <g id="patch_2">
    <path d="M 64.8 388.8 
L 469.404878 388.8 
L 469.404878 43.2 
L 64.8 43.2 
z
" style="fill: #ffffff"/>
   </g>
   <g id="PolyCollection_1">
    <defs>
     <path id="mf35a4f5583" d="M 83.191131 -43.2 
L 83.191131 -301.99502 
L 86.906511 -301.99502 
L 90.621891 -301.99502 
L 94.337271 -301.99502 
L 98.052651 -301.99502 
L 101.768031 -301.99502 
L 105.483411 -301.99502 
L 109.198791 -301.99502 
L 112.914171 -301.99502 
L 116.62955 -301.99502 
L 120.34493 -301.99502 
L 124.06031 -301.99502 
L 127.77569 -301.99502 
L 131.49107 -301.99502 
L 135.20645 -301.99502 
L 138.92183 -301.99502 
L 142.63721 -301.99502 
L 146.35259 -301.99502 
L 150.06797 -301.99502 
L 153.78335 -301.99502 
L 157.49873 -301.99502 
L 161.21411 -301.99502 
L 164.92949 -301.99502 
L 168.64487 -301.99502 
L 172.36025 -301.99502 
L 176.07563 -301.99502 
L 179.79101 -301.99502 
L 183.50639 -301.99502 
L 187.22177 -301.99502 
L 190.93715 -301.99502 
L 194.65253 -301.99502 
L 198.36791 -301.99502 
L 202.08329 -301.99502 
L 205.79867 -301.99502 
L 209.51405 -301.99502 
L 213.22943 -301.99502 
L 216.94481 -301.99502 
L 220.660189 -301.99502 
L 224.375569 -301.99502 
L 228.090949 -301.99502 
L 231.806329 -301.99502 
L 235.521709 -301.99502 
L 239.237089 -301.99502 
L 242.952469 -301.99502 
L 246.667849 -301.99502 
L 250.383229 -301.99502 
L 254.098609 -301.99502 
L 257.813989 -301.99502 
L 261.529369 -301.99502 
L 265.244749 -301.99502 
L 268.960129 -301.99502 
L 272.675509 -301.99502 
L 276.390889 -301.99502 
L 280.106269 -301.99502 
L 283.821649 -301.99502 
L 287.537029 -301.99502 
L 291.252409 -301.99502 
L 294.967789 -301.99502 
L 298.683169 -301.99502 
L 302.398549 -301.99502 
L 306.113929 -301.99502 
L 309.829309 -301.99502 
L 313.544689 -301.99502 
L 317.260069 -301.99502 
L 320.975448 -301.99502 
L 324.690828 -301.99502 
L 328.406208 -301.99502 
L 332.121588 -301.99502 
L 335.836968 -301.99502 
L 339.552348 -301.99502 
L 343.267728 -301.99502 
L 346.983108 -301.99502 
L 350.698488 -301.99502 
L 354.413868 -301.99502 
L 358.129248 -301.99502 
L 361.844628 -301.99502 
L 365.560008 -301.99502 
L 369.275388 -301.99502 
L 372.990768 -301.99502 
L 376.706148 -301.99502 
L 380.421528 -301.99502 
L 384.136908 -301.99502 
L 387.852288 -301.99502 
L 391.567668 -301.99502 
L 395.283048 -301.99502 
L 398.998428 -301.99502 
L 402.713808 -301.99502 
L 406.429188 -301.99502 
L 410.144568 -301.99502 
L 413.859948 -301.99502 
L 417.575328 -301.99502 
L 421.290708 -301.99502 
L 425.006087 -301.99502 
L 428.721467 -301.99502 
L 432.436847 -301.99502 
L 436.152227 -301.99502 
L 439.867607 -301.99502 
L 443.582987 -301.99502 
L 447.298367 -301.99502 
L 451.013747 -301.99502 
L 451.013747 -43.2 
L 451.013747 -43.2 
L 447.298367 -43.2 
L 443.582987 -43.2 
L 439.867607 -43.2 
L 436.152227 -43.2 
L 432.436847 -43.2 
L 428.721467 -43.2 
L 425.006087 -43.2 
L 421.290708 -43.2 
L 417.575328 -43.2 
L 413.859948 -43.2 
L 410.144568 -43.2 
L 406.429188 -43.2 
L 402.713808 -43.2 
L 398.998428 -43.2 
L 395.283048 -43.2 
L 391.567668 -43.2 
L 387.852288 -43.2 
L 384.136908 -43.2 
L 380.421528 -43.2 
L 376.706148 -43.2 
L 372.990768 -43.2 
L 369.275388 -43.2 
L 365.560008 -43.2 
L 361.844628 -43.2 
L 358.129248 -43.2 
L 354.413868 -43.2 
L 350.698488 -43.2 
L 346.983108 -43.2 
L 343.267728 -43.2 
L 339.552348 -43.2 
L 335.836968 -43.2 
L 332.121588 -43.2 
L 328.406208 -43.2 
L 324.690828 -43.2 
L 320.975448 -43.2 
L 317.260069 -43.2 
L 313.544689 -43.2 
L 309.829309 -43.2 
L 306.113929 -43.2 
L 302.398549 -43.2 
L 298.683169 -43.2 
L 294.967789 -43.2 
L 291.252409 -43.2 
L 287.537029 -43.2 
L 283.821649 -43.2 
L 280.106269 -43.2 
L 276.390889 -43.2 
L 272.675509 -43.2 
L 268.960129 -43.2 
L 265.244749 -43.2 
L 261.529369 -43.2 
L 257.813989 -43.2 
L 254.098609 -43.2 
L 250.383229 -43.2 
L 246.667849 -43.2 
L 242.952469 -43.2 
L 239.237089 -43.2 
L 235.521709 -43.2 
L 231.806329 -43.2 
L 228.090949 -43.2 
L 224.375569 -43.2 
L 220.660189 -43.2 
L 216.94481 -43.2 
L 213.22943 -43.2 
L 209.51405 -43.2 
L 205.79867 -43.2 
L 202.08329 -43.2 
L 198.36791 -43.2 
L 194.65253 -43.2 
L 190.93715 -43.2 
L 187.22177 -43.2 
L 183.50639 -43.2 
L 179.79101 -43.2 
L 176.07563 -43.2 
L 172.36025 -43.2 
L 168.64487 -43.2 
L 164.92949 -43.2 
L 161.21411 -43.2 
L 157.49873 -43.2 
L 153.78335 -43.2 
L 150.06797 -43.2 
L 146.35259 -43.2 
L 142.63721 -43.2 
L 138.92183 -43.2 
L 135.20645 -43.2 
L 131.49107 -43.2 
L 127.77569 -43.2 
L 124.06031 -43.2 
L 120.34493 -43.2 
L 116.62955 -43.2 
L 112.914171 -43.2 
L 109.198791 -43.2 
L 105.483411 -43.2 
L 101.768031 -43.2 
L 98.052651 -43.2 
L 94.337271 -43.2 
L 90.621891 -43.2 
L 86.906511 -43.2 
L 83.191131 -43.2 
z
" style="stroke: #ff0000; stroke-opacity: 0.1"/>
    </defs>
    <g clip-path="url(#pd54dee3e2d)">
     <use xlink:href="#mf35a4f5583" x="0" y="432" style="fill: #ff0000; fill-opacity: 0.1; stroke: #ff0000; stroke-opacity: 0.1"/>
    </g>
   </g>
   <g id="patch_3">
    <path d="M 117.526575 388.8 
L 148.258577 388.8 
L 148.258577 290.314562 
L 117.526575 290.314562 
z
" clip-path="url(#pd54dee3e2d)" style="fill: #66cdaa; opacity: 0.2"/>
   </g>
   <g id="patch_4">
    <path d="M 148.258577 388.8 
L 178.990579 388.8 
L 178.990579 290.314562 
L 148.258577 290.314562 
z
" clip-path="url(#pd54dee3e2d)" style="fill: #66cdaa; opacity: 0.2"/>
   </g>
   <g id="patch_5">
    <path d="M 178.990579 388.8 
L 209.722581 388.8 
L 209.722581 191.829125 
L 178.990579 191.829125 
z
" clip-path="url(#pd54dee3e2d)" style="fill: #66cdaa; opacity: 0.2"/>
   </g>
   <g id="patch_6">
    <path d="M 209.722581 388.8 
L 240.454583 388.8 
L 240.454583 191.829125 
L 209.722581 191.829125 
z
" clip-path="url(#pd54dee3e2d)" style="fill: #66cdaa; opacity: 0.2"/>
   </g>
   <g id="patch_7">
    <path d="M 240.454583 388.8 
L 271.186585 388.8 
L 271.186585 388.8 
L 240.454583 388.8 
z
" clip-path="url(#pd54dee3e2d)" style="fill: #66cdaa; opacity: 0.2"/>
   </g>
   <g id="patch_8">
    <path d="M 271.186585 388.8 
L 301.918588 388.8 
L 301.918588 388.8 
L 271.186585 388.8 
z
" clip-path="url(#pd54dee3e2d)" style="fill: #66cdaa; opacity: 0.2"/>
   </g>
   <g id="patch_9">
    <path d="M 301.918588 388.8 
L 332.65059 388.8 
L 332.65059 388.8 
L 301.918588 388.8 
z
" clip-path="url(#pd54dee3e2d)" style="fill: #66cdaa; opacity: 0.2"/>
   </g>
   <g id="patch_10">
    <path d="M 332.65059 388.8 
L 363.382592 388.8 
L 363.382592 191.829125 
L 332.65059 191.829125 
z
" clip-path="url(#pd54dee3e2d)" style="fill: #66cdaa; opacity: 0.2"/>
   </g>
   <g id="patch_11">
    <path d="M 363.382592 388.8 
L 394.114594 388.8 
L 394.114594 388.8 
L 363.382592 388.8 
z
" clip-path="url(#pd54dee3e2d)" style="fill: #66cdaa; opacity: 0.2"/>
   </g>
   <g id="patch_12">
    <path d="M 394.114594 388.8 
L 424.846596 388.8 
L 424.846596 191.829125 
L 394.114594 191.829125 
z
" clip-path="url(#pd54dee3e2d)" style="fill: #66cdaa; opacity: 0.2"/>
   </g>
   <g id="matplotlib.axis_1">
    <g id="xtick_1">
     <g id="line2d_1">
      <defs>
       <path id="m8c0767fffb" d="M 0 0 
L 0 3.5 
" style="stroke: #000000; stroke-width: 0.8"/>
      </defs>
      <g>
       <use xlink:href="#m8c0767fffb" x="83.191131" y="388.8" style="stroke: #000000; stroke-width: 0.8"/>
      </g>
     </g>
     <g id="text_1">
      <!-- 0.0 -->
      <g transform="translate(75.239568 403.398438)scale(0.1 -0.1)">
       <defs>
        <path id="DejaVuSans-30" d="M 2034 4250 
Q 1547 4250 1301 3770 
Q 1056 3291 1056 2328 
Q 1056 1369 1301 889 
Q 1547 409 2034 409 
Q 2525 409 2770 889 
Q 3016 1369 3016 2328 
Q 3016 3291 2770 3770 
Q 2525 4250 2034 4250 
z
M 2034 4750 
Q 2819 4750 3233 4129 
Q 3647 3509 3647 2328 
Q 3647 1150 3233 529 
Q 2819 -91 2034 -91 
Q 1250 -91 836 529 
Q 422 1150 422 2328 
Q 422 3509 836 4129 
Q 1250 4750 2034 4750 
z
" transform="scale(0.015625)"/>
        <path id="DejaVuSans-2e" d="M 684 794 
L 1344 794 
L 1344 0 
L 684 0 
L 684 794 
z
" transform="scale(0.015625)"/>
       </defs>
       <use xlink:href="#DejaVuSans-30"/>
       <use xlink:href="#DejaVuSans-2e" x="63.623047"/>
       <use xlink:href="#DejaVuSans-30" x="95.410156"/>
      </g>
     </g>
    </g>
    <g id="xtick_2">
     <g id="line2d_2">
      <g>
       <use xlink:href="#m8c0767fffb" x="156.755654" y="388.8" style="stroke: #000000; stroke-width: 0.8"/>
      </g>
     </g>
     <g id="text_2">
      <!-- 0.2 -->
      <g transform="translate(148.804092 403.398438)scale(0.1 -0.1)">
       <defs>
        <path id="DejaVuSans-32" d="M 1228 531 
L 3431 531 
L 3431 0 
L 469 0 
L 469 531 
Q 828 903 1448 1529 
Q 2069 2156 2228 2338 
Q 2531 2678 2651 2914 
Q 2772 3150 2772 3378 
Q 2772 3750 2511 3984 
Q 2250 4219 1831 4219 
Q 1534 4219 1204 4116 
Q 875 4013 500 3803 
L 500 4441 
Q 881 4594 1212 4672 
Q 1544 4750 1819 4750 
Q 2544 4750 2975 4387 
Q 3406 4025 3406 3419 
Q 3406 3131 3298 2873 
Q 3191 2616 2906 2266 
Q 2828 2175 2409 1742 
Q 1991 1309 1228 531 
z
" transform="scale(0.015625)"/>
       </defs>
       <use xlink:href="#DejaVuSans-30"/>
       <use xlink:href="#DejaVuSans-2e" x="63.623047"/>
       <use xlink:href="#DejaVuSans-32" x="95.410156"/>
      </g>
     </g>
    </g>
    <g id="xtick_3">
     <g id="line2d_3">
      <g>
       <use xlink:href="#m8c0767fffb" x="230.320177" y="388.8" style="stroke: #000000; stroke-width: 0.8"/>
      </g>
     </g>
     <g id="text_3">
      <!-- 0.4 -->
      <g transform="translate(222.368615 403.398438)scale(0.1 -0.1)">
       <defs>
        <path id="DejaVuSans-34" d="M 2419 4116 
L 825 1625 
L 2419 1625 
L 2419 4116 
z
M 2253 4666 
L 3047 4666 
L 3047 1625 
L 3713 1625 
L 3713 1100 
L 3047 1100 
L 3047 0 
L 2419 0 
L 2419 1100 
L 313 1100 
L 313 1709 
L 2253 4666 
z
" transform="scale(0.015625)"/>
       </defs>
       <use xlink:href="#DejaVuSans-30"/>
       <use xlink:href="#DejaVuSans-2e" x="63.623047"/>
       <use xlink:href="#DejaVuSans-34" x="95.410156"/>
      </g>
     </g>
    </g>
    <g id="xtick_4">
     <g id="line2d_4">
      <g>
       <use xlink:href="#m8c0767fffb" x="303.884701" y="388.8" style="stroke: #000000; stroke-width: 0.8"/>
      </g>
     </g>
     <g id="text_4">
      <!-- 0.6 -->
      <g transform="translate(295.933138 403.398438)scale(0.1 -0.1)">
       <defs>
        <path id="DejaVuSans-36" d="M 2113 2584 
Q 1688 2584 1439 2293 
Q 1191 2003 1191 1497 
Q 1191 994 1439 701 
Q 1688 409 2113 409 
Q 2538 409 2786 701 
Q 3034 994 3034 1497 
Q 3034 2003 2786 2293 
Q 2538 2584 2113 2584 
z
M 3366 4563 
L 3366 3988 
Q 3128 4100 2886 4159 
Q 2644 4219 2406 4219 
Q 1781 4219 1451 3797 
Q 1122 3375 1075 2522 
Q 1259 2794 1537 2939 
Q 1816 3084 2150 3084 
Q 2853 3084 3261 2657 
Q 3669 2231 3669 1497 
Q 3669 778 3244 343 
Q 2819 -91 2113 -91 
Q 1303 -91 875 529 
Q 447 1150 447 2328 
Q 447 3434 972 4092 
Q 1497 4750 2381 4750 
Q 2619 4750 2861 4703 
Q 3103 4656 3366 4563 
z
" transform="scale(0.015625)"/>
       </defs>
       <use xlink:href="#DejaVuSans-30"/>
       <use xlink:href="#DejaVuSans-2e" x="63.623047"/>
       <use xlink:href="#DejaVuSans-36" x="95.410156"/>
      </g>
     </g>
    </g>
    <g id="xtick_5">
     <g id="line2d_5">
      <g>
       <use xlink:href="#m8c0767fffb" x="377.449224" y="388.8" style="stroke: #000000; stroke-width: 0.8"/>
      </g>
     </g>
     <g id="text_5">
      <!-- 0.8 -->
      <g transform="translate(369.497661 403.398438)scale(0.1 -0.1)">
       <defs>
        <path id="DejaVuSans-38" d="M 2034 2216 
Q 1584 2216 1326 1975 
Q 1069 1734 1069 1313 
Q 1069 891 1326 650 
Q 1584 409 2034 409 
Q 2484 409 2743 651 
Q 3003 894 3003 1313 
Q 3003 1734 2745 1975 
Q 2488 2216 2034 2216 
z
M 1403 2484 
Q 997 2584 770 2862 
Q 544 3141 544 3541 
Q 544 4100 942 4425 
Q 1341 4750 2034 4750 
Q 2731 4750 3128 4425 
Q 3525 4100 3525 3541 
Q 3525 3141 3298 2862 
Q 3072 2584 2669 2484 
Q 3125 2378 3379 2068 
Q 3634 1759 3634 1313 
Q 3634 634 3220 271 
Q 2806 -91 2034 -91 
Q 1263 -91 848 271 
Q 434 634 434 1313 
Q 434 1759 690 2068 
Q 947 2378 1403 2484 
z
M 1172 3481 
Q 1172 3119 1398 2916 
Q 1625 2713 2034 2713 
Q 2441 2713 2670 2916 
Q 2900 3119 2900 3481 
Q 2900 3844 2670 4047 
Q 2441 4250 2034 4250 
Q 1625 4250 1398 4047 
Q 1172 3844 1172 3481 
z
" transform="scale(0.015625)"/>
       </defs>
       <use xlink:href="#DejaVuSans-30"/>
       <use xlink:href="#DejaVuSans-2e" x="63.623047"/>
       <use xlink:href="#DejaVuSans-38" x="95.410156"/>
      </g>
     </g>
    </g>
    <g id="xtick_6">
     <g id="line2d_6">
      <g>
       <use xlink:href="#m8c0767fffb" x="451.013747" y="388.8" style="stroke: #000000; stroke-width: 0.8"/>
      </g>
     </g>
     <g id="text_6">
      <!-- 1.0 -->
      <g transform="translate(443.062185 403.398438)scale(0.1 -0.1)">
       <defs>
        <path id="DejaVuSans-31" d="M 794 531 
L 1825 531 
L 1825 4091 
L 703 3866 
L 703 4441 
L 1819 4666 
L 2450 4666 
L 2450 531 
L 3481 531 
L 3481 0 
L 794 0 
L 794 531 
z
" transform="scale(0.015625)"/>
       </defs>
       <use xlink:href="#DejaVuSans-31"/>
       <use xlink:href="#DejaVuSans-2e" x="63.623047"/>
       <use xlink:href="#DejaVuSans-30" x="95.410156"/>
      </g>
     </g>
    </g>
    <g id="text_7">
     <!-- x -->
     <g transform="translate(264.143064 417.076563)scale(0.1 -0.1)">
      <defs>
       <path id="DejaVuSans-78" d="M 3513 3500 
L 2247 1797 
L 3578 0 
L 2900 0 
L 1881 1375 
L 863 0 
L 184 0 
L 1544 1831 
L 300 3500 
L 978 3500 
L 1906 2253 
L 2834 3500 
L 3513 3500 
z
" transform="scale(0.015625)"/>
      </defs>
      <use xlink:href="#DejaVuSans-78"/>
     </g>
    </g>
   </g>
   <g id="matplotlib.axis_2">
    <g id="ytick_1">
     <g id="line2d_7">
      <defs>
       <path id="m9d0d494d90" d="M 0 0 
L -3.5 0 
" style="stroke: #000000; stroke-width: 0.8"/>
      </defs>
      <g>
       <use xlink:href="#m9d0d494d90" x="64.8" y="388.8" style="stroke: #000000; stroke-width: 0.8"/>
      </g>
     </g>
     <g id="text_8">
      <!-- 0.0 -->
      <g transform="translate(41.896875 392.599219)scale(0.1 -0.1)">
       <use xlink:href="#DejaVuSans-30"/>
       <use xlink:href="#DejaVuSans-2e" x="63.623047"/>
       <use xlink:href="#DejaVuSans-30" x="95.410156"/>
      </g>
     </g>
    </g>
    <g id="ytick_2">
     <g id="line2d_8">
      <g>
       <use xlink:href="#m9d0d494d90" x="64.8" y="347.657143" style="stroke: #000000; stroke-width: 0.8"/>
      </g>
     </g>
     <g id="text_9">
      <!-- 0.5 -->
      <g transform="translate(41.896875 351.456362)scale(0.1 -0.1)">
       <defs>
        <path id="DejaVuSans-35" d="M 691 4666 
L 3169 4666 
L 3169 4134 
L 1269 4134 
L 1269 2991 
Q 1406 3038 1543 3061 
Q 1681 3084 1819 3084 
Q 2600 3084 3056 2656 
Q 3513 2228 3513 1497 
Q 3513 744 3044 326 
Q 2575 -91 1722 -91 
Q 1428 -91 1123 -41 
Q 819 9 494 109 
L 494 744 
Q 775 591 1075 516 
Q 1375 441 1709 441 
Q 2250 441 2565 725 
Q 2881 1009 2881 1497 
Q 2881 1984 2565 2268 
Q 2250 2553 1709 2553 
Q 1456 2553 1204 2497 
Q 953 2441 691 2322 
L 691 4666 
z
" transform="scale(0.015625)"/>
       </defs>
       <use xlink:href="#DejaVuSans-30"/>
       <use xlink:href="#DejaVuSans-2e" x="63.623047"/>
       <use xlink:href="#DejaVuSans-35" x="95.410156"/>
      </g>
     </g>
    </g>
    <g id="ytick_3">
     <g id="line2d_9">
      <g>
       <use xlink:href="#m9d0d494d90" x="64.8" y="306.514286" style="stroke: #000000; stroke-width: 0.8"/>
      </g>
     </g>
     <g id="text_10">
      <!-- 1.0 -->
      <g transform="translate(41.896875 310.313504)scale(0.1 -0.1)">
       <use xlink:href="#DejaVuSans-31"/>
       <use xlink:href="#DejaVuSans-2e" x="63.623047"/>
       <use xlink:href="#DejaVuSans-30" x="95.410156"/>
      </g>
     </g>
    </g>
    <g id="ytick_4">
     <g id="line2d_10">
      <g>
       <use xlink:href="#m9d0d494d90" x="64.8" y="265.371429" style="stroke: #000000; stroke-width: 0.8"/>
      </g>
     </g>
     <g id="text_11">
      <!-- 1.5 -->
      <g transform="translate(41.896875 269.170647)scale(0.1 -0.1)">
       <use xlink:href="#DejaVuSans-31"/>
       <use xlink:href="#DejaVuSans-2e" x="63.623047"/>
       <use xlink:href="#DejaVuSans-35" x="95.410156"/>
      </g>
     </g>
    </g>
    <g id="ytick_5">
     <g id="line2d_11">
      <g>
       <use xlink:href="#m9d0d494d90" x="64.8" y="224.228571" style="stroke: #000000; stroke-width: 0.8"/>
      </g>
     </g>
     <g id="text_12">
      <!-- 2.0 -->
      <g transform="translate(41.896875 228.02779)scale(0.1 -0.1)">
       <use xlink:href="#DejaVuSans-32"/>
       <use xlink:href="#DejaVuSans-2e" x="63.623047"/>
       <use xlink:href="#DejaVuSans-30" x="95.410156"/>
      </g>
     </g>
    </g>
    <g id="ytick_6">
     <g id="line2d_12">
      <g>
       <use xlink:href="#m9d0d494d90" x="64.8" y="183.085714" style="stroke: #000000; stroke-width: 0.8"/>
      </g>
     </g>
     <g id="text_13">
      <!-- 2.5 -->
      <g transform="translate(41.896875 186.884933)scale(0.1 -0.1)">
       <use xlink:href="#DejaVuSans-32"/>
       <use xlink:href="#DejaVuSans-2e" x="63.623047"/>
       <use xlink:href="#DejaVuSans-35" x="95.410156"/>
      </g>
     </g>
    </g>
    <g id="ytick_7">
     <g id="line2d_13">
      <g>
       <use xlink:href="#m9d0d494d90" x="64.8" y="141.942857" style="stroke: #000000; stroke-width: 0.8"/>
      </g>
     </g>
     <g id="text_14">
      <!-- 3.0 -->
      <g transform="translate(41.896875 145.742076)scale(0.1 -0.1)">
       <defs>
        <path id="DejaVuSans-33" d="M 2597 2516 
Q 3050 2419 3304 2112 
Q 3559 1806 3559 1356 
Q 3559 666 3084 287 
Q 2609 -91 1734 -91 
Q 1441 -91 1130 -33 
Q 819 25 488 141 
L 488 750 
Q 750 597 1062 519 
Q 1375 441 1716 441 
Q 2309 441 2620 675 
Q 2931 909 2931 1356 
Q 2931 1769 2642 2001 
Q 2353 2234 1838 2234 
L 1294 2234 
L 1294 2753 
L 1863 2753 
Q 2328 2753 2575 2939 
Q 2822 3125 2822 3475 
Q 2822 3834 2567 4026 
Q 2313 4219 1838 4219 
Q 1578 4219 1281 4162 
Q 984 4106 628 3988 
L 628 4550 
Q 988 4650 1302 4700 
Q 1616 4750 1894 4750 
Q 2613 4750 3031 4423 
Q 3450 4097 3450 3541 
Q 3450 3153 3228 2886 
Q 3006 2619 2597 2516 
z
" transform="scale(0.015625)"/>
       </defs>
       <use xlink:href="#DejaVuSans-33"/>
       <use xlink:href="#DejaVuSans-2e" x="63.623047"/>
       <use xlink:href="#DejaVuSans-30" x="95.410156"/>
      </g>
     </g>
    </g>
    <g id="ytick_8">
     <g id="line2d_14">
      <g>
       <use xlink:href="#m9d0d494d90" x="64.8" y="100.8" style="stroke: #000000; stroke-width: 0.8"/>
      </g>
     </g>
     <g id="text_15">
      <!-- 3.5 -->
      <g transform="translate(41.896875 104.599219)scale(0.1 -0.1)">
       <use xlink:href="#DejaVuSans-33"/>
       <use xlink:href="#DejaVuSans-2e" x="63.623047"/>
       <use xlink:href="#DejaVuSans-35" x="95.410156"/>
      </g>
     </g>
    </g>
    <g id="ytick_9">
     <g id="line2d_15">
      <g>
       <use xlink:href="#m9d0d494d90" x="64.8" y="59.657143" style="stroke: #000000; stroke-width: 0.8"/>
      </g>
     </g>
     <g id="text_16">
      <!-- 4.0 -->
      <g transform="translate(41.896875 63.456362)scale(0.1 -0.1)">
       <use xlink:href="#DejaVuSans-34"/>
       <use xlink:href="#DejaVuSans-2e" x="63.623047"/>
       <use xlink:href="#DejaVuSans-30" x="95.410156"/>
      </g>
     </g>
    </g>
    <g id="text_17">
     <!-- y -->
     <g transform="translate(35.817187 218.959375)rotate(-90)scale(0.1 -0.1)">
      <defs>
       <path id="DejaVuSans-79" d="M 2059 -325 
Q 1816 -950 1584 -1140 
Q 1353 -1331 966 -1331 
L 506 -1331 
L 506 -850 
L 844 -850 
Q 1081 -850 1212 -737 
Q 1344 -625 1503 -206 
L 1606 56 
L 191 3500 
L 800 3500 
L 1894 763 
L 2988 3500 
L 3597 3500 
L 2059 -325 
z
" transform="scale(0.015625)"/>
      </defs>
      <use xlink:href="#DejaVuSans-79"/>
     </g>
    </g>
   </g>
   <g id="line2d_16">
    <path d="M 83.191131 59.657143 
L 86.906511 59.690722 
L 90.621891 59.791418 
L 94.337271 59.959109 
L 98.052651 60.193588 
L 101.768031 60.494571 
L 105.483411 60.861691 
L 109.198791 61.294503 
L 112.914171 61.792484 
L 116.62955 62.355035 
L 120.34493 62.981482 
L 124.06031 63.67108 
L 127.77569 64.423012 
L 131.49107 65.236395 
L 135.20645 66.110279 
L 138.92183 67.043652 
L 142.63721 68.035444 
L 146.35259 69.084525 
L 150.06797 70.189714 
L 153.78335 71.349779 
L 157.49873 72.563441 
L 161.21411 73.829375 
L 164.92949 75.146218 
L 168.64487 76.512571 
L 172.36025 77.926998 
L 176.07563 79.388035 
L 179.79101 80.894193 
L 183.50639 82.443956 
L 187.22177 84.035792 
L 190.93715 85.66815 
L 194.65253 87.339469 
L 198.36791 89.048175 
L 202.08329 90.792689 
L 205.79867 92.571429 
L 209.51405 94.382811 
L 213.22943 96.225255 
L 216.94481 98.097185 
L 220.660189 99.997033 
L 224.375569 101.923242 
L 228.090949 103.874268 
L 231.806329 105.84858 
L 235.521709 107.844666 
L 239.237089 109.861034 
L 242.952469 111.896211 
L 246.667849 113.948748 
L 250.383229 116.017221 
L 254.098609 118.100231 
L 257.813989 120.196408 
L 261.529369 122.304408 
L 265.244749 124.422919 
L 268.960129 126.550659 
L 272.675509 128.686378 
L 276.390889 130.828857 
L 280.106269 132.976912 
L 283.821649 135.12939 
L 287.537029 137.285175 
L 291.252409 139.443183 
L 294.967789 141.602365 
L 298.683169 143.761706 
L 302.398549 145.920227 
L 306.113929 148.076984 
L 309.829309 150.231065 
L 313.544689 152.381595 
L 317.260069 154.527731 
L 320.975448 156.668666 
L 324.690828 158.803626 
L 328.406208 160.931868 
L 332.121588 163.052684 
L 335.836968 165.165397 
L 339.552348 167.269363 
L 343.267728 169.363966 
L 346.983108 171.448623 
L 350.698488 173.52278 
L 354.413868 175.585913 
L 358.129248 177.637524 
L 361.844628 179.677146 
L 365.560008 181.704337 
L 369.275388 183.718681 
L 372.990768 185.71979 
L 376.706148 187.707297 
L 380.421528 189.680863 
L 384.136908 191.64017 
L 387.852288 193.584923 
L 391.567668 195.514851 
L 395.283048 197.4297 
L 398.998428 199.329241 
L 402.713808 201.213261 
L 406.429188 203.081569 
L 410.144568 204.93399 
L 413.859948 206.770368 
L 417.575328 208.590562 
L 421.290708 210.394451 
L 425.006087 212.181925 
L 428.721467 213.952892 
L 432.436847 215.707274 
L 436.152227 217.445005 
L 439.867607 219.166033 
L 443.582987 220.870321 
L 447.298367 222.557839 
L 451.013747 224.228571 
" clip-path="url(#pd54dee3e2d)" style="fill: none; stroke: #1f77b4; stroke-width: 4; stroke-linecap: square"/>
   </g>
   <g id="line2d_17">
    <path d="M 83.191131 141.942857 
L 86.906511 140.715087 
L 90.621891 139.525641 
L 94.337271 138.375014 
L 98.052651 137.263649 
L 101.768031 136.191937 
L 105.483411 135.160214 
L 109.198791 134.168763 
L 112.914171 133.21781 
L 116.62955 132.307528 
L 120.34493 131.438033 
L 124.06031 130.609387 
L 127.77569 129.821599 
L 131.49107 129.07462 
L 135.20645 128.36835 
L 138.92183 127.702636 
L 142.63721 127.077271 
L 146.35259 126.492 
L 150.06797 125.946514 
L 153.78335 125.440459 
L 157.49873 124.973432 
L 161.21411 124.544984 
L 164.92949 124.154622 
L 168.64487 123.80181 
L 172.36025 123.485972 
L 176.07563 123.206493 
L 179.79101 122.962719 
L 183.50639 122.753962 
L 187.22177 122.579501 
L 190.93715 122.438582 
L 194.65253 122.330423 
L 198.36791 122.254215 
L 202.08329 122.209122 
L 205.79867 122.194286 
L 209.51405 122.208826 
L 213.22943 122.251842 
L 216.94481 122.322419 
L 220.660189 122.419623 
L 224.375569 122.542509 
L 228.090949 122.690118 
L 231.806329 122.861482 
L 235.521709 123.055624 
L 239.237089 123.271561 
L 242.952469 123.508305 
L 246.667849 123.764864 
L 250.383229 124.040244 
L 254.098609 124.33345 
L 257.813989 124.643487 
L 261.529369 124.969364 
L 265.244749 125.31009 
L 268.960129 125.664682 
L 272.675509 126.032157 
L 276.390889 126.411543 
L 280.106269 126.801872 
L 283.821649 127.202184 
L 287.537029 127.611528 
L 291.252409 128.028962 
L 294.967789 128.453554 
L 298.683169 128.884381 
L 302.398549 129.32053 
L 306.113929 129.761102 
L 309.829309 130.205205 
L 313.544689 130.651962 
L 317.260069 131.100504 
L 320.975448 131.549977 
L 324.690828 131.999537 
L 328.406208 132.448352 
L 332.121588 132.8956 
L 335.836968 133.340473 
L 339.552348 133.782173 
L 343.267728 134.219913 
L 346.983108 134.652917 
L 350.698488 135.080419 
L 354.413868 135.501664 
L 358.129248 135.915906 
L 361.844628 136.322408 
L 365.560008 136.720443 
L 369.275388 137.109291 
L 372.990768 137.48824 
L 376.706148 137.856585 
L 380.421528 138.213628 
L 384.136908 138.558677 
L 387.852288 138.891044 
L 391.567668 139.210046 
L 395.283048 139.515004 
L 398.998428 139.805241 
L 402.713808 140.080083 
L 406.429188 140.338856 
L 410.144568 140.580887 
L 413.859948 140.805501 
L 417.575328 141.012023 
L 421.290708 141.199775 
L 425.006087 141.368074 
L 428.721467 141.516233 
L 432.436847 141.643559 
L 436.152227 141.749351 
L 439.867607 141.832902 
L 443.582987 141.893491 
L 447.298367 141.93039 
L 451.013747 141.942857 
" clip-path="url(#pd54dee3e2d)" style="fill: none; stroke: #ff7f50; stroke-width: 4; stroke-linecap: square"/>
   </g>
   <g id="line2d_18">
    <path d="M 83.191131 279.085714 
L 86.906511 279.639827 
L 90.621891 280.193939 
L 94.337271 280.748052 
L 98.052651 281.302165 
L 101.768031 281.856277 
L 105.483411 282.41039 
L 109.198791 282.964502 
L 112.914171 283.518615 
L 116.62955 284.072727 
L 120.34493 284.62684 
L 124.06031 285.180952 
L 127.77569 285.735065 
L 131.49107 286.289177 
L 135.20645 286.84329 
L 138.92183 287.397403 
L 142.63721 287.951515 
L 146.35259 288.505628 
L 150.06797 289.05974 
L 153.78335 289.613853 
L 157.49873 290.167965 
L 161.21411 290.722078 
L 164.92949 291.27619 
L 168.64487 291.830303 
L 172.36025 292.384416 
L 176.07563 292.938528 
L 179.79101 293.492641 
L 183.50639 294.046753 
L 187.22177 294.600866 
L 190.93715 295.154978 
L 194.65253 295.709091 
L 198.36791 296.263203 
L 202.08329 296.817316 
L 205.79867 297.371429 
L 209.51405 297.925541 
L 213.22943 298.479654 
L 216.94481 299.033766 
L 220.660189 299.587879 
L 224.375569 300.141991 
L 228.090949 300.696104 
L 231.806329 301.250216 
L 235.521709 301.804329 
L 239.237089 302.358442 
L 242.952469 302.912554 
L 246.667849 303.466667 
L 250.383229 304.020779 
L 254.098609 304.574892 
L 257.813989 305.129004 
L 261.529369 305.683117 
L 265.244749 306.237229 
L 268.960129 306.791342 
L 272.675509 307.345455 
L 276.390889 307.899567 
L 280.106269 308.45368 
L 283.821649 309.007792 
L 287.537029 309.561905 
L 291.252409 310.116017 
L 294.967789 310.67013 
L 298.683169 311.224242 
L 302.398549 311.778355 
L 306.113929 312.332468 
L 309.829309 312.88658 
L 313.544689 313.440693 
L 317.260069 313.994805 
L 320.975448 314.548918 
L 324.690828 315.10303 
L 328.406208 315.657143 
L 332.121588 316.211255 
L 335.836968 316.765368 
L 339.552348 317.319481 
L 343.267728 317.873593 
L 346.983108 318.427706 
L 350.698488 318.981818 
L 354.413868 319.535931 
L 358.129248 320.090043 
L 361.844628 320.644156 
L 365.560008 321.198268 
L 369.275388 321.752381 
L 372.990768 322.306494 
L 376.706148 322.860606 
L 380.421528 323.414719 
L 384.136908 323.968831 
L 387.852288 324.522944 
L 391.567668 325.077056 
L 395.283048 325.631169 
L 398.998428 326.185281 
L 402.713808 326.739394 
L 406.429188 327.293506 
L 410.144568 327.847619 
L 413.859948 328.401732 
L 417.575328 328.955844 
L 421.290708 329.509957 
L 425.006087 330.064069 
L 428.721467 330.618182 
L 432.436847 331.172294 
L 436.152227 331.726407 
L 439.867607 332.280519 
L 443.582987 332.834632 
L 447.298367 333.388745 
L 451.013747 333.942857 
" clip-path="url(#pd54dee3e2d)" style="fill: none; stroke: #66cdaa; stroke-width: 4; stroke-linecap: square"/>
   </g>
   <g id="LineCollection_1">
    <path d="M 83.191131 130.00498 
L 451.013747 130.00498 
" clip-path="url(#pd54dee3e2d)" style="fill: none; stroke: #ff0000; stroke-width: 1.5"/>
   </g>
   <g id="PathCollection_1">
    <defs>
     <path id="m0f1247b5d8" d="M -3.872983 3.872983 
L 3.872983 -3.872983 
M -3.872983 -3.872983 
L 3.872983 3.872983 
" style="stroke: #ff0000; stroke-width: 1.5"/>
    </defs>
    <g clip-path="url(#pd54dee3e2d)">
     <use xlink:href="#m0f1247b5d8" x="151.476982" y="125.749979" style="fill: #ff0000; stroke: #ff0000; stroke-width: 1.5"/>
     <use xlink:href="#m0f1247b5d8" x="346.101524" y="134.550643" style="fill: #ff0000; stroke: #ff0000; stroke-width: 1.5"/>
     <use xlink:href="#m0f1247b5d8" x="179.865033" y="122.95822" style="fill: #ff0000; stroke: #ff0000; stroke-width: 1.5"/>
     <use xlink:href="#m0f1247b5d8" x="409.159016" y="140.518355" style="fill: #ff0000; stroke: #ff0000; stroke-width: 1.5"/>
     <use xlink:href="#m0f1247b5d8" x="117.526575" y="132.093862" style="fill: #ff0000; stroke: #ff0000; stroke-width: 1.5"/>
     <use xlink:href="#m0f1247b5d8" x="208.272775" y="122.200755" style="fill: #ff0000; stroke: #ff0000; stroke-width: 1.5"/>
     <use xlink:href="#m0f1247b5d8" x="353.246293" y="135.370006" style="fill: #ff0000; stroke: #ff0000; stroke-width: 1.5"/>
     <use xlink:href="#m0f1247b5d8" x="225.968909" y="122.602839" style="fill: #ff0000; stroke: #ff0000; stroke-width: 1.5"/>
     <use xlink:href="#m0f1247b5d8" x="226.990684" y="122.643886" style="fill: #ff0000; stroke: #ff0000; stroke-width: 1.5"/>
     <use xlink:href="#m0f1247b5d8" x="424.846596" y="141.361258" style="fill: #ff0000; stroke: #ff0000; stroke-width: 1.5"/>
    </g>
   </g>
   <g id="patch_13">
    <path d="M 64.8 388.8 
L 64.8 43.2 
" style="fill: none; stroke: #000000; stroke-width: 0.8; stroke-linejoin: miter; stroke-linecap: square"/>
   </g>
   <g id="patch_14">
    <path d="M 469.404878 388.8 
L 469.404878 43.2 
" style="fill: none; stroke: #000000; stroke-width: 0.8; stroke-linejoin: miter; stroke-linecap: square"/>
   </g>
   <g id="patch_15">
    <path d="M 64.8 388.8 
L 469.404878 388.8 
" style="fill: none; stroke: #000000; stroke-width: 0.8; stroke-linejoin: miter; stroke-linecap: square"/>
   </g>
   <g id="patch_16">
    <path d="M 64.8 43.2 
L 469.404878 43.2 
" style="fill: none; stroke: #000000; stroke-width: 0.8; stroke-linejoin: miter; stroke-linecap: square"/>
   </g>
   <g id="LineCollection_2">
    <path d="M 267.102439 132.43386 
L 267.102439 127.5761 
" clip-path="url(#pd54dee3e2d)" style="fill: none; stroke: #ff0000; stroke-width: 1.5"/>
   </g>
   <g id="line2d_19">
    <defs>
     <path id="mfdf0e043a6" d="M 10 0 
L -10 -0 
" style="stroke: #ff0000; stroke-width: 2"/>
    </defs>
    <g clip-path="url(#pd54dee3e2d)">
     <use xlink:href="#mfdf0e043a6" x="267.102439" y="132.43386" style="fill: #ff0000; stroke: #ff0000; stroke-width: 2"/>
    </g>
   </g>
   <g id="line2d_20">
    <g clip-path="url(#pd54dee3e2d)">
     <use xlink:href="#mfdf0e043a6" x="267.102439" y="127.5761" style="fill: #ff0000; stroke: #ff0000; stroke-width: 2"/>
    </g>
   </g>
   <g id="text_18">
    <!-- Monte Carlo Integration with Importance Sampling, N = 10 -->
    <g transform="translate(90.164314 37.2)scale(0.12 -0.12)">
     <defs>
      <path id="DejaVuSans-4d" d="M 628 4666 
L 1569 4666 
L 2759 1491 
L 3956 4666 
L 4897 4666 
L 4897 0 
L 4281 0 
L 4281 4097 
L 3078 897 
L 2444 897 
L 1241 4097 
L 1241 0 
L 628 0 
L 628 4666 
z
" transform="scale(0.015625)"/>
      <path id="DejaVuSans-6f" d="M 1959 3097 
Q 1497 3097 1228 2736 
Q 959 2375 959 1747 
Q 959 1119 1226 758 
Q 1494 397 1959 397 
Q 2419 397 2687 759 
Q 2956 1122 2956 1747 
Q 2956 2369 2687 2733 
Q 2419 3097 1959 3097 
z
M 1959 3584 
Q 2709 3584 3137 3096 
Q 3566 2609 3566 1747 
Q 3566 888 3137 398 
Q 2709 -91 1959 -91 
Q 1206 -91 779 398 
Q 353 888 353 1747 
Q 353 2609 779 3096 
Q 1206 3584 1959 3584 
z
" transform="scale(0.015625)"/>
      <path id="DejaVuSans-6e" d="M 3513 2113 
L 3513 0 
L 2938 0 
L 2938 2094 
Q 2938 2591 2744 2837 
Q 2550 3084 2163 3084 
Q 1697 3084 1428 2787 
Q 1159 2491 1159 1978 
L 1159 0 
L 581 0 
L 581 3500 
L 1159 3500 
L 1159 2956 
Q 1366 3272 1645 3428 
Q 1925 3584 2291 3584 
Q 2894 3584 3203 3211 
Q 3513 2838 3513 2113 
z
" transform="scale(0.015625)"/>
      <path id="DejaVuSans-74" d="M 1172 4494 
L 1172 3500 
L 2356 3500 
L 2356 3053 
L 1172 3053 
L 1172 1153 
Q 1172 725 1289 603 
Q 1406 481 1766 481 
L 2356 481 
L 2356 0 
L 1766 0 
Q 1100 0 847 248 
Q 594 497 594 1153 
L 594 3053 
L 172 3053 
L 172 3500 
L 594 3500 
L 594 4494 
L 1172 4494 
z
" transform="scale(0.015625)"/>
      <path id="DejaVuSans-65" d="M 3597 1894 
L 3597 1613 
L 953 1613 
Q 991 1019 1311 708 
Q 1631 397 2203 397 
Q 2534 397 2845 478 
Q 3156 559 3463 722 
L 3463 178 
Q 3153 47 2828 -22 
Q 2503 -91 2169 -91 
Q 1331 -91 842 396 
Q 353 884 353 1716 
Q 353 2575 817 3079 
Q 1281 3584 2069 3584 
Q 2775 3584 3186 3129 
Q 3597 2675 3597 1894 
z
M 3022 2063 
Q 3016 2534 2758 2815 
Q 2500 3097 2075 3097 
Q 1594 3097 1305 2825 
Q 1016 2553 972 2059 
L 3022 2063 
z
" transform="scale(0.015625)"/>
      <path id="DejaVuSans-20" transform="scale(0.015625)"/>
      <path id="DejaVuSans-43" d="M 4122 4306 
L 4122 3641 
Q 3803 3938 3442 4084 
Q 3081 4231 2675 4231 
Q 1875 4231 1450 3742 
Q 1025 3253 1025 2328 
Q 1025 1406 1450 917 
Q 1875 428 2675 428 
Q 3081 428 3442 575 
Q 3803 722 4122 1019 
L 4122 359 
Q 3791 134 3420 21 
Q 3050 -91 2638 -91 
Q 1578 -91 968 557 
Q 359 1206 359 2328 
Q 359 3453 968 4101 
Q 1578 4750 2638 4750 
Q 3056 4750 3426 4639 
Q 3797 4528 4122 4306 
z
" transform="scale(0.015625)"/>
      <path id="DejaVuSans-61" d="M 2194 1759 
Q 1497 1759 1228 1600 
Q 959 1441 959 1056 
Q 959 750 1161 570 
Q 1363 391 1709 391 
Q 2188 391 2477 730 
Q 2766 1069 2766 1631 
L 2766 1759 
L 2194 1759 
z
M 3341 1997 
L 3341 0 
L 2766 0 
L 2766 531 
Q 2569 213 2275 61 
Q 1981 -91 1556 -91 
Q 1019 -91 701 211 
Q 384 513 384 1019 
Q 384 1609 779 1909 
Q 1175 2209 1959 2209 
L 2766 2209 
L 2766 2266 
Q 2766 2663 2505 2880 
Q 2244 3097 1772 3097 
Q 1472 3097 1187 3025 
Q 903 2953 641 2809 
L 641 3341 
Q 956 3463 1253 3523 
Q 1550 3584 1831 3584 
Q 2591 3584 2966 3190 
Q 3341 2797 3341 1997 
z
" transform="scale(0.015625)"/>
      <path id="DejaVuSans-72" d="M 2631 2963 
Q 2534 3019 2420 3045 
Q 2306 3072 2169 3072 
Q 1681 3072 1420 2755 
Q 1159 2438 1159 1844 
L 1159 0 
L 581 0 
L 581 3500 
L 1159 3500 
L 1159 2956 
Q 1341 3275 1631 3429 
Q 1922 3584 2338 3584 
Q 2397 3584 2469 3576 
Q 2541 3569 2628 3553 
L 2631 2963 
z
" transform="scale(0.015625)"/>
      <path id="DejaVuSans-6c" d="M 603 4863 
L 1178 4863 
L 1178 0 
L 603 0 
L 603 4863 
z
" transform="scale(0.015625)"/>
      <path id="DejaVuSans-49" d="M 628 4666 
L 1259 4666 
L 1259 0 
L 628 0 
L 628 4666 
z
" transform="scale(0.015625)"/>
      <path id="DejaVuSans-67" d="M 2906 1791 
Q 2906 2416 2648 2759 
Q 2391 3103 1925 3103 
Q 1463 3103 1205 2759 
Q 947 2416 947 1791 
Q 947 1169 1205 825 
Q 1463 481 1925 481 
Q 2391 481 2648 825 
Q 2906 1169 2906 1791 
z
M 3481 434 
Q 3481 -459 3084 -895 
Q 2688 -1331 1869 -1331 
Q 1566 -1331 1297 -1286 
Q 1028 -1241 775 -1147 
L 775 -588 
Q 1028 -725 1275 -790 
Q 1522 -856 1778 -856 
Q 2344 -856 2625 -561 
Q 2906 -266 2906 331 
L 2906 616 
Q 2728 306 2450 153 
Q 2172 0 1784 0 
Q 1141 0 747 490 
Q 353 981 353 1791 
Q 353 2603 747 3093 
Q 1141 3584 1784 3584 
Q 2172 3584 2450 3431 
Q 2728 3278 2906 2969 
L 2906 3500 
L 3481 3500 
L 3481 434 
z
" transform="scale(0.015625)"/>
      <path id="DejaVuSans-69" d="M 603 3500 
L 1178 3500 
L 1178 0 
L 603 0 
L 603 3500 
z
M 603 4863 
L 1178 4863 
L 1178 4134 
L 603 4134 
L 603 4863 
z
" transform="scale(0.015625)"/>
      <path id="DejaVuSans-77" d="M 269 3500 
L 844 3500 
L 1563 769 
L 2278 3500 
L 2956 3500 
L 3675 769 
L 4391 3500 
L 4966 3500 
L 4050 0 
L 3372 0 
L 2619 2869 
L 1863 0 
L 1184 0 
L 269 3500 
z
" transform="scale(0.015625)"/>
      <path id="DejaVuSans-68" d="M 3513 2113 
L 3513 0 
L 2938 0 
L 2938 2094 
Q 2938 2591 2744 2837 
Q 2550 3084 2163 3084 
Q 1697 3084 1428 2787 
Q 1159 2491 1159 1978 
L 1159 0 
L 581 0 
L 581 4863 
L 1159 4863 
L 1159 2956 
Q 1366 3272 1645 3428 
Q 1925 3584 2291 3584 
Q 2894 3584 3203 3211 
Q 3513 2838 3513 2113 
z
" transform="scale(0.015625)"/>
      <path id="DejaVuSans-6d" d="M 3328 2828 
Q 3544 3216 3844 3400 
Q 4144 3584 4550 3584 
Q 5097 3584 5394 3201 
Q 5691 2819 5691 2113 
L 5691 0 
L 5113 0 
L 5113 2094 
Q 5113 2597 4934 2840 
Q 4756 3084 4391 3084 
Q 3944 3084 3684 2787 
Q 3425 2491 3425 1978 
L 3425 0 
L 2847 0 
L 2847 2094 
Q 2847 2600 2669 2842 
Q 2491 3084 2119 3084 
Q 1678 3084 1418 2786 
Q 1159 2488 1159 1978 
L 1159 0 
L 581 0 
L 581 3500 
L 1159 3500 
L 1159 2956 
Q 1356 3278 1631 3431 
Q 1906 3584 2284 3584 
Q 2666 3584 2933 3390 
Q 3200 3197 3328 2828 
z
" transform="scale(0.015625)"/>
      <path id="DejaVuSans-70" d="M 1159 525 
L 1159 -1331 
L 581 -1331 
L 581 3500 
L 1159 3500 
L 1159 2969 
Q 1341 3281 1617 3432 
Q 1894 3584 2278 3584 
Q 2916 3584 3314 3078 
Q 3713 2572 3713 1747 
Q 3713 922 3314 415 
Q 2916 -91 2278 -91 
Q 1894 -91 1617 61 
Q 1341 213 1159 525 
z
M 3116 1747 
Q 3116 2381 2855 2742 
Q 2594 3103 2138 3103 
Q 1681 3103 1420 2742 
Q 1159 2381 1159 1747 
Q 1159 1113 1420 752 
Q 1681 391 2138 391 
Q 2594 391 2855 752 
Q 3116 1113 3116 1747 
z
" transform="scale(0.015625)"/>
      <path id="DejaVuSans-63" d="M 3122 3366 
L 3122 2828 
Q 2878 2963 2633 3030 
Q 2388 3097 2138 3097 
Q 1578 3097 1268 2742 
Q 959 2388 959 1747 
Q 959 1106 1268 751 
Q 1578 397 2138 397 
Q 2388 397 2633 464 
Q 2878 531 3122 666 
L 3122 134 
Q 2881 22 2623 -34 
Q 2366 -91 2075 -91 
Q 1284 -91 818 406 
Q 353 903 353 1747 
Q 353 2603 823 3093 
Q 1294 3584 2113 3584 
Q 2378 3584 2631 3529 
Q 2884 3475 3122 3366 
z
" transform="scale(0.015625)"/>
      <path id="DejaVuSans-53" d="M 3425 4513 
L 3425 3897 
Q 3066 4069 2747 4153 
Q 2428 4238 2131 4238 
Q 1616 4238 1336 4038 
Q 1056 3838 1056 3469 
Q 1056 3159 1242 3001 
Q 1428 2844 1947 2747 
L 2328 2669 
Q 3034 2534 3370 2195 
Q 3706 1856 3706 1288 
Q 3706 609 3251 259 
Q 2797 -91 1919 -91 
Q 1588 -91 1214 -16 
Q 841 59 441 206 
L 441 856 
Q 825 641 1194 531 
Q 1563 422 1919 422 
Q 2459 422 2753 634 
Q 3047 847 3047 1241 
Q 3047 1584 2836 1778 
Q 2625 1972 2144 2069 
L 1759 2144 
Q 1053 2284 737 2584 
Q 422 2884 422 3419 
Q 422 4038 858 4394 
Q 1294 4750 2059 4750 
Q 2388 4750 2728 4690 
Q 3069 4631 3425 4513 
z
" transform="scale(0.015625)"/>
      <path id="DejaVuSans-2c" d="M 750 794 
L 1409 794 
L 1409 256 
L 897 -744 
L 494 -744 
L 750 256 
L 750 794 
z
" transform="scale(0.015625)"/>
      <path id="DejaVuSans-4e" d="M 628 4666 
L 1478 4666 
L 3547 763 
L 3547 4666 
L 4159 4666 
L 4159 0 
L 3309 0 
L 1241 3903 
L 1241 0 
L 628 0 
L 628 4666 
z
" transform="scale(0.015625)"/>
      <path id="DejaVuSans-3d" d="M 678 2906 
L 4684 2906 
L 4684 2381 
L 678 2381 
L 678 2906 
z
M 678 1631 
L 4684 1631 
L 4684 1100 
L 678 1100 
L 678 1631 
z
" transform="scale(0.015625)"/>
     </defs>
     <use xlink:href="#DejaVuSans-4d"/>
     <use xlink:href="#DejaVuSans-6f" x="86.279297"/>
     <use xlink:href="#DejaVuSans-6e" x="147.460938"/>
     <use xlink:href="#DejaVuSans-74" x="210.839844"/>
     <use xlink:href="#DejaVuSans-65" x="250.048828"/>
     <use xlink:href="#DejaVuSans-20" x="311.572266"/>
     <use xlink:href="#DejaVuSans-43" x="343.359375"/>
     <use xlink:href="#DejaVuSans-61" x="413.183594"/>
     <use xlink:href="#DejaVuSans-72" x="474.462891"/>
     <use xlink:href="#DejaVuSans-6c" x="515.576172"/>
     <use xlink:href="#DejaVuSans-6f" x="543.359375"/>
     <use xlink:href="#DejaVuSans-20" x="604.541016"/>
     <use xlink:href="#DejaVuSans-49" x="636.328125"/>
     <use xlink:href="#DejaVuSans-6e" x="665.820312"/>
     <use xlink:href="#DejaVuSans-74" x="729.199219"/>
     <use xlink:href="#DejaVuSans-65" x="768.408203"/>
     <use xlink:href="#DejaVuSans-67" x="829.931641"/>
     <use xlink:href="#DejaVuSans-72" x="893.408203"/>
     <use xlink:href="#DejaVuSans-61" x="934.521484"/>
     <use xlink:href="#DejaVuSans-74" x="995.800781"/>
     <use xlink:href="#DejaVuSans-69" x="1035.009766"/>
     <use xlink:href="#DejaVuSans-6f" x="1062.792969"/>
     <use xlink:href="#DejaVuSans-6e" x="1123.974609"/>
     <use xlink:href="#DejaVuSans-20" x="1187.353516"/>
     <use xlink:href="#DejaVuSans-77" x="1219.140625"/>
     <use xlink:href="#DejaVuSans-69" x="1300.927734"/>
     <use xlink:href="#DejaVuSans-74" x="1328.710938"/>
     <use xlink:href="#DejaVuSans-68" x="1367.919922"/>
     <use xlink:href="#DejaVuSans-20" x="1431.298828"/>
     <use xlink:href="#DejaVuSans-49" x="1463.085938"/>
     <use xlink:href="#DejaVuSans-6d" x="1492.578125"/>
     <use xlink:href="#DejaVuSans-70" x="1589.990234"/>
     <use xlink:href="#DejaVuSans-6f" x="1653.466797"/>
     <use xlink:href="#DejaVuSans-72" x="1714.648438"/>
     <use xlink:href="#DejaVuSans-74" x="1755.761719"/>
     <use xlink:href="#DejaVuSans-61" x="1794.970703"/>
     <use xlink:href="#DejaVuSans-6e" x="1856.25"/>
     <use xlink:href="#DejaVuSans-63" x="1919.628906"/>
     <use xlink:href="#DejaVuSans-65" x="1974.609375"/>
     <use xlink:href="#DejaVuSans-20" x="2036.132812"/>
     <use xlink:href="#DejaVuSans-53" x="2067.919922"/>
     <use xlink:href="#DejaVuSans-61" x="2131.396484"/>
     <use xlink:href="#DejaVuSans-6d" x="2192.675781"/>
     <use xlink:href="#DejaVuSans-70" x="2290.087891"/>
     <use xlink:href="#DejaVuSans-6c" x="2353.564453"/>
     <use xlink:href="#DejaVuSans-69" x="2381.347656"/>
     <use xlink:href="#DejaVuSans-6e" x="2409.130859"/>
     <use xlink:href="#DejaVuSans-67" x="2472.509766"/>
     <use xlink:href="#DejaVuSans-2c" x="2535.986328"/>
     <use xlink:href="#DejaVuSans-20" x="2567.773438"/>
     <use xlink:href="#DejaVuSans-4e" x="2599.560547"/>
     <use xlink:href="#DejaVuSans-20" x="2674.365234"/>
     <use xlink:href="#DejaVuSans-3d" x="2706.152344"/>
     <use xlink:href="#DejaVuSans-20" x="2789.941406"/>
     <use xlink:href="#DejaVuSans-31" x="2821.728516"/>
     <use xlink:href="#DejaVuSans-30" x="2885.351562"/>
    </g>
   </g>
   <g id="line2d_21">
    <path d="M 267.102439 130.00498 
" clip-path="url(#pd54dee3e2d)" style="fill: none; stroke: #ff0000; stroke-width: 1.5; stroke-linecap: square"/>
   </g>
   <g id="legend_1">
    <g id="patch_17">
     <path d="M 282.859566 383.8 
L 462.404878 383.8 
Q 464.404878 383.8 464.404878 381.8 
L 464.404878 268.855313 
Q 464.404878 266.855313 462.404878 266.855313 
L 282.859566 266.855313 
Q 280.859566 266.855313 280.859566 268.855313 
L 280.859566 381.8 
Q 280.859566 383.8 282.859566 383.8 
z
" style="fill: #ffffff; opacity: 0.8; stroke: #cccccc; stroke-linejoin: miter"/>
    </g>
    <g id="line2d_22">
     <path d="M 284.859566 274.95375 
L 294.859566 274.95375 
L 304.859566 274.95375 
" style="fill: none; stroke: #1f77b4; stroke-width: 4; stroke-linecap: square"/>
    </g>
    <g id="text_19">
     <!-- function f(x) to integrate -->
     <g transform="translate(312.859566 278.45375)scale(0.1 -0.1)">
      <defs>
       <path id="DejaVuSans-66" d="M 2375 4863 
L 2375 4384 
L 1825 4384 
Q 1516 4384 1395 4259 
Q 1275 4134 1275 3809 
L 1275 3500 
L 2222 3500 
L 2222 3053 
L 1275 3053 
L 1275 0 
L 697 0 
L 697 3053 
L 147 3053 
L 147 3500 
L 697 3500 
L 697 3744 
Q 697 4328 969 4595 
Q 1241 4863 1831 4863 
L 2375 4863 
z
" transform="scale(0.015625)"/>
       <path id="DejaVuSans-75" d="M 544 1381 
L 544 3500 
L 1119 3500 
L 1119 1403 
Q 1119 906 1312 657 
Q 1506 409 1894 409 
Q 2359 409 2629 706 
Q 2900 1003 2900 1516 
L 2900 3500 
L 3475 3500 
L 3475 0 
L 2900 0 
L 2900 538 
Q 2691 219 2414 64 
Q 2138 -91 1772 -91 
Q 1169 -91 856 284 
Q 544 659 544 1381 
z
M 1991 3584 
L 1991 3584 
z
" transform="scale(0.015625)"/>
       <path id="DejaVuSans-28" d="M 1984 4856 
Q 1566 4138 1362 3434 
Q 1159 2731 1159 2009 
Q 1159 1288 1364 580 
Q 1569 -128 1984 -844 
L 1484 -844 
Q 1016 -109 783 600 
Q 550 1309 550 2009 
Q 550 2706 781 3412 
Q 1013 4119 1484 4856 
L 1984 4856 
z
" transform="scale(0.015625)"/>
       <path id="DejaVuSans-29" d="M 513 4856 
L 1013 4856 
Q 1481 4119 1714 3412 
Q 1947 2706 1947 2009 
Q 1947 1309 1714 600 
Q 1481 -109 1013 -844 
L 513 -844 
Q 928 -128 1133 580 
Q 1338 1288 1338 2009 
Q 1338 2731 1133 3434 
Q 928 4138 513 4856 
z
" transform="scale(0.015625)"/>
      </defs>
      <use xlink:href="#DejaVuSans-66"/>
      <use xlink:href="#DejaVuSans-75" x="35.205078"/>
      <use xlink:href="#DejaVuSans-6e" x="98.583984"/>
      <use xlink:href="#DejaVuSans-63" x="161.962891"/>
      <use xlink:href="#DejaVuSans-74" x="216.943359"/>
      <use xlink:href="#DejaVuSans-69" x="256.152344"/>
      <use xlink:href="#DejaVuSans-6f" x="283.935547"/>
      <use xlink:href="#DejaVuSans-6e" x="345.117188"/>
      <use xlink:href="#DejaVuSans-20" x="408.496094"/>
      <use xlink:href="#DejaVuSans-66" x="440.283203"/>
      <use xlink:href="#DejaVuSans-28" x="475.488281"/>
      <use xlink:href="#DejaVuSans-78" x="514.501953"/>
      <use xlink:href="#DejaVuSans-29" x="573.681641"/>
      <use xlink:href="#DejaVuSans-20" x="612.695312"/>
      <use xlink:href="#DejaVuSans-74" x="644.482422"/>
      <use xlink:href="#DejaVuSans-6f" x="683.691406"/>
      <use xlink:href="#DejaVuSans-20" x="744.873047"/>
      <use xlink:href="#DejaVuSans-69" x="776.660156"/>
      <use xlink:href="#DejaVuSans-6e" x="804.443359"/>
      <use xlink:href="#DejaVuSans-74" x="867.822266"/>
      <use xlink:href="#DejaVuSans-65" x="907.03125"/>
      <use xlink:href="#DejaVuSans-67" x="968.554688"/>
      <use xlink:href="#DejaVuSans-72" x="1032.03125"/>
      <use xlink:href="#DejaVuSans-61" x="1073.144531"/>
      <use xlink:href="#DejaVuSans-74" x="1134.423828"/>
      <use xlink:href="#DejaVuSans-65" x="1173.632812"/>
     </g>
    </g>
    <g id="line2d_23">
     <path d="M 284.859566 289.631875 
L 294.859566 289.631875 
L 304.859566 289.631875 
" style="fill: none; stroke: #ff7f50; stroke-width: 4; stroke-linecap: square"/>
    </g>
    <g id="text_20">
     <!-- f(x) / p(x) -->
     <g transform="translate(312.859566 293.131875)scale(0.1 -0.1)">
      <defs>
       <path id="DejaVuSans-2f" d="M 1625 4666 
L 2156 4666 
L 531 -594 
L 0 -594 
L 1625 4666 
z
" transform="scale(0.015625)"/>
      </defs>
      <use xlink:href="#DejaVuSans-66"/>
      <use xlink:href="#DejaVuSans-28" x="35.205078"/>
      <use xlink:href="#DejaVuSans-78" x="74.21875"/>
      <use xlink:href="#DejaVuSans-29" x="133.398438"/>
      <use xlink:href="#DejaVuSans-20" x="172.412109"/>
      <use xlink:href="#DejaVuSans-2f" x="204.199219"/>
      <use xlink:href="#DejaVuSans-20" x="237.890625"/>
      <use xlink:href="#DejaVuSans-70" x="269.677734"/>
      <use xlink:href="#DejaVuSans-28" x="333.154297"/>
      <use xlink:href="#DejaVuSans-78" x="372.167969"/>
      <use xlink:href="#DejaVuSans-29" x="431.347656"/>
     </g>
    </g>
    <g id="line2d_24">
     <path d="M 284.859566 304.31 
L 294.859566 304.31 
L 304.859566 304.31 
" style="fill: none; stroke: #66cdaa; stroke-width: 4; stroke-linecap: square"/>
    </g>
    <g id="text_21">
     <!-- importance function p(x) -->
     <g transform="translate(312.859566 307.81)scale(0.1 -0.1)">
      <use xlink:href="#DejaVuSans-69"/>
      <use xlink:href="#DejaVuSans-6d" x="27.783203"/>
      <use xlink:href="#DejaVuSans-70" x="125.195312"/>
      <use xlink:href="#DejaVuSans-6f" x="188.671875"/>
      <use xlink:href="#DejaVuSans-72" x="249.853516"/>
      <use xlink:href="#DejaVuSans-74" x="290.966797"/>
      <use xlink:href="#DejaVuSans-61" x="330.175781"/>
      <use xlink:href="#DejaVuSans-6e" x="391.455078"/>
      <use xlink:href="#DejaVuSans-63" x="454.833984"/>
      <use xlink:href="#DejaVuSans-65" x="509.814453"/>
      <use xlink:href="#DejaVuSans-20" x="571.337891"/>
      <use xlink:href="#DejaVuSans-66" x="603.125"/>
      <use xlink:href="#DejaVuSans-75" x="638.330078"/>
      <use xlink:href="#DejaVuSans-6e" x="701.708984"/>
      <use xlink:href="#DejaVuSans-63" x="765.087891"/>
      <use xlink:href="#DejaVuSans-74" x="820.068359"/>
      <use xlink:href="#DejaVuSans-69" x="859.277344"/>
      <use xlink:href="#DejaVuSans-6f" x="887.060547"/>
      <use xlink:href="#DejaVuSans-6e" x="948.242188"/>
      <use xlink:href="#DejaVuSans-20" x="1011.621094"/>
      <use xlink:href="#DejaVuSans-70" x="1043.408203"/>
      <use xlink:href="#DejaVuSans-28" x="1106.884766"/>
      <use xlink:href="#DejaVuSans-78" x="1145.898438"/>
      <use xlink:href="#DejaVuSans-29" x="1205.078125"/>
     </g>
    </g>
    <g id="line2d_25">
     <path d="M 284.859566 318.988125 
L 304.859566 318.988125 
" style="fill: none; stroke: #ff0000; stroke-width: 1.5"/>
    </g>
    <g id="text_22">
     <!-- MC estimate -->
     <g transform="translate(312.859566 322.488125)scale(0.1 -0.1)">
      <defs>
       <path id="DejaVuSans-73" d="M 2834 3397 
L 2834 2853 
Q 2591 2978 2328 3040 
Q 2066 3103 1784 3103 
Q 1356 3103 1142 2972 
Q 928 2841 928 2578 
Q 928 2378 1081 2264 
Q 1234 2150 1697 2047 
L 1894 2003 
Q 2506 1872 2764 1633 
Q 3022 1394 3022 966 
Q 3022 478 2636 193 
Q 2250 -91 1575 -91 
Q 1294 -91 989 -36 
Q 684 19 347 128 
L 347 722 
Q 666 556 975 473 
Q 1284 391 1588 391 
Q 1994 391 2212 530 
Q 2431 669 2431 922 
Q 2431 1156 2273 1281 
Q 2116 1406 1581 1522 
L 1381 1569 
Q 847 1681 609 1914 
Q 372 2147 372 2553 
Q 372 3047 722 3315 
Q 1072 3584 1716 3584 
Q 2034 3584 2315 3537 
Q 2597 3491 2834 3397 
z
" transform="scale(0.015625)"/>
      </defs>
      <use xlink:href="#DejaVuSans-4d"/>
      <use xlink:href="#DejaVuSans-43" x="86.279297"/>
      <use xlink:href="#DejaVuSans-20" x="156.103516"/>
      <use xlink:href="#DejaVuSans-65" x="187.890625"/>
      <use xlink:href="#DejaVuSans-73" x="249.414062"/>
      <use xlink:href="#DejaVuSans-74" x="301.513672"/>
      <use xlink:href="#DejaVuSans-69" x="340.722656"/>
      <use xlink:href="#DejaVuSans-6d" x="368.505859"/>
      <use xlink:href="#DejaVuSans-61" x="465.917969"/>
      <use xlink:href="#DejaVuSans-74" x="527.197266"/>
      <use xlink:href="#DejaVuSans-65" x="566.40625"/>
     </g>
    </g>
    <g id="PathCollection_2">
     <g>
      <use xlink:href="#m0f1247b5d8" x="294.859566" y="341.18" style="fill: #ff0000; stroke: #ff0000; stroke-width: 1.5"/>
     </g>
    </g>
    <g id="text_23">
     <!-- function evaluation at -->
     <g transform="translate(312.859566 337.16625)scale(0.1 -0.1)">
      <defs>
       <path id="DejaVuSans-76" d="M 191 3500 
L 800 3500 
L 1894 563 
L 2988 3500 
L 3597 3500 
L 2284 0 
L 1503 0 
L 191 3500 
z
" transform="scale(0.015625)"/>
      </defs>
      <use xlink:href="#DejaVuSans-66"/>
      <use xlink:href="#DejaVuSans-75" x="35.205078"/>
      <use xlink:href="#DejaVuSans-6e" x="98.583984"/>
      <use xlink:href="#DejaVuSans-63" x="161.962891"/>
      <use xlink:href="#DejaVuSans-74" x="216.943359"/>
      <use xlink:href="#DejaVuSans-69" x="256.152344"/>
      <use xlink:href="#DejaVuSans-6f" x="283.935547"/>
      <use xlink:href="#DejaVuSans-6e" x="345.117188"/>
      <use xlink:href="#DejaVuSans-20" x="408.496094"/>
      <use xlink:href="#DejaVuSans-65" x="440.283203"/>
      <use xlink:href="#DejaVuSans-76" x="501.806641"/>
      <use xlink:href="#DejaVuSans-61" x="560.986328"/>
      <use xlink:href="#DejaVuSans-6c" x="622.265625"/>
      <use xlink:href="#DejaVuSans-75" x="650.048828"/>
      <use xlink:href="#DejaVuSans-61" x="713.427734"/>
      <use xlink:href="#DejaVuSans-74" x="774.707031"/>
      <use xlink:href="#DejaVuSans-69" x="813.916016"/>
      <use xlink:href="#DejaVuSans-6f" x="841.699219"/>
      <use xlink:href="#DejaVuSans-6e" x="902.880859"/>
      <use xlink:href="#DejaVuSans-20" x="966.259766"/>
      <use xlink:href="#DejaVuSans-61" x="998.046875"/>
      <use xlink:href="#DejaVuSans-74" x="1059.326172"/>
     </g>
     <!-- sampled points -->
     <g transform="translate(312.859566 348.364063)scale(0.1 -0.1)">
      <defs>
       <path id="DejaVuSans-64" d="M 2906 2969 
L 2906 4863 
L 3481 4863 
L 3481 0 
L 2906 0 
L 2906 525 
Q 2725 213 2448 61 
Q 2172 -91 1784 -91 
Q 1150 -91 751 415 
Q 353 922 353 1747 
Q 353 2572 751 3078 
Q 1150 3584 1784 3584 
Q 2172 3584 2448 3432 
Q 2725 3281 2906 2969 
z
M 947 1747 
Q 947 1113 1208 752 
Q 1469 391 1925 391 
Q 2381 391 2643 752 
Q 2906 1113 2906 1747 
Q 2906 2381 2643 2742 
Q 2381 3103 1925 3103 
Q 1469 3103 1208 2742 
Q 947 2381 947 1747 
z
" transform="scale(0.015625)"/>
      </defs>
      <use xlink:href="#DejaVuSans-73"/>
      <use xlink:href="#DejaVuSans-61" x="52.099609"/>
      <use xlink:href="#DejaVuSans-6d" x="113.378906"/>
      <use xlink:href="#DejaVuSans-70" x="210.791016"/>
      <use xlink:href="#DejaVuSans-6c" x="274.267578"/>
      <use xlink:href="#DejaVuSans-65" x="302.050781"/>
      <use xlink:href="#DejaVuSans-64" x="363.574219"/>
      <use xlink:href="#DejaVuSans-20" x="427.050781"/>
      <use xlink:href="#DejaVuSans-70" x="458.837891"/>
      <use xlink:href="#DejaVuSans-6f" x="522.314453"/>
      <use xlink:href="#DejaVuSans-69" x="583.496094"/>
      <use xlink:href="#DejaVuSans-6e" x="611.279297"/>
      <use xlink:href="#DejaVuSans-74" x="674.658203"/>
      <use xlink:href="#DejaVuSans-73" x="713.867188"/>
     </g>
    </g>
    <g id="patch_18">
     <path d="M 284.859566 363.042188 
L 304.859566 363.042188 
L 304.859566 356.042188 
L 284.859566 356.042188 
z
" style="fill: #66cdaa; opacity: 0.2"/>
    </g>
    <g id="text_24">
     <!-- histogram of sampled points -->
     <g transform="translate(312.859566 363.042188)scale(0.1 -0.1)">
      <use xlink:href="#DejaVuSans-68"/>
      <use xlink:href="#DejaVuSans-69" x="63.378906"/>
      <use xlink:href="#DejaVuSans-73" x="91.162109"/>
      <use xlink:href="#DejaVuSans-74" x="143.261719"/>
      <use xlink:href="#DejaVuSans-6f" x="182.470703"/>
      <use xlink:href="#DejaVuSans-67" x="243.652344"/>
      <use xlink:href="#DejaVuSans-72" x="307.128906"/>
      <use xlink:href="#DejaVuSans-61" x="348.242188"/>
      <use xlink:href="#DejaVuSans-6d" x="409.521484"/>
      <use xlink:href="#DejaVuSans-20" x="506.933594"/>
      <use xlink:href="#DejaVuSans-6f" x="538.720703"/>
      <use xlink:href="#DejaVuSans-66" x="599.902344"/>
      <use xlink:href="#DejaVuSans-20" x="635.107422"/>
      <use xlink:href="#DejaVuSans-73" x="666.894531"/>
      <use xlink:href="#DejaVuSans-61" x="718.994141"/>
      <use xlink:href="#DejaVuSans-6d" x="780.273438"/>
      <use xlink:href="#DejaVuSans-70" x="877.685547"/>
      <use xlink:href="#DejaVuSans-6c" x="941.162109"/>
      <use xlink:href="#DejaVuSans-65" x="968.945312"/>
      <use xlink:href="#DejaVuSans-64" x="1030.46875"/>
      <use xlink:href="#DejaVuSans-20" x="1093.945312"/>
      <use xlink:href="#DejaVuSans-70" x="1125.732422"/>
      <use xlink:href="#DejaVuSans-6f" x="1189.208984"/>
      <use xlink:href="#DejaVuSans-69" x="1250.390625"/>
      <use xlink:href="#DejaVuSans-6e" x="1278.173828"/>
      <use xlink:href="#DejaVuSans-74" x="1341.552734"/>
      <use xlink:href="#DejaVuSans-73" x="1380.761719"/>
     </g>
    </g>
    <g id="LineCollection_3">
     <path d="M 294.859566 379.220312 
L 294.859566 369.220312 
" style="fill: none; stroke: #ff0000; stroke-width: 1.5"/>
    </g>
    <g id="line2d_26">
     <g>
      <use xlink:href="#mfdf0e043a6" x="294.859566" y="379.220312" style="fill: #ff0000; stroke: #ff0000; stroke-width: 2"/>
     </g>
    </g>
    <g id="line2d_27">
     <g>
      <use xlink:href="#mfdf0e043a6" x="294.859566" y="369.220312" style="fill: #ff0000; stroke: #ff0000; stroke-width: 2"/>
     </g>
    </g>
    <g id="line2d_28">
     <path d="M 284.859566 374.220312 
L 304.859566 374.220312 
" style="fill: none; stroke: #ff0000; stroke-width: 1.5; stroke-linecap: square"/>
    </g>
    <g id="line2d_29"/>
    <g id="text_25">
     <!-- estimated standard deviation -->
     <g transform="translate(312.859566 377.720312)scale(0.1 -0.1)">
      <use xlink:href="#DejaVuSans-65"/>
      <use xlink:href="#DejaVuSans-73" x="61.523438"/>
      <use xlink:href="#DejaVuSans-74" x="113.623047"/>
      <use xlink:href="#DejaVuSans-69" x="152.832031"/>
      <use xlink:href="#DejaVuSans-6d" x="180.615234"/>
      <use xlink:href="#DejaVuSans-61" x="278.027344"/>
      <use xlink:href="#DejaVuSans-74" x="339.306641"/>
      <use xlink:href="#DejaVuSans-65" x="378.515625"/>
      <use xlink:href="#DejaVuSans-64" x="440.039062"/>
      <use xlink:href="#DejaVuSans-20" x="503.515625"/>
      <use xlink:href="#DejaVuSans-73" x="535.302734"/>
      <use xlink:href="#DejaVuSans-74" x="587.402344"/>
      <use xlink:href="#DejaVuSans-61" x="626.611328"/>
      <use xlink:href="#DejaVuSans-6e" x="687.890625"/>
      <use xlink:href="#DejaVuSans-64" x="751.269531"/>
      <use xlink:href="#DejaVuSans-61" x="814.746094"/>
      <use xlink:href="#DejaVuSans-72" x="876.025391"/>
      <use xlink:href="#DejaVuSans-64" x="915.388672"/>
      <use xlink:href="#DejaVuSans-20" x="978.865234"/>
      <use xlink:href="#DejaVuSans-64" x="1010.652344"/>
      <use xlink:href="#DejaVuSans-65" x="1074.128906"/>
      <use xlink:href="#DejaVuSans-76" x="1135.652344"/>
      <use xlink:href="#DejaVuSans-69" x="1194.832031"/>
      <use xlink:href="#DejaVuSans-61" x="1222.615234"/>
      <use xlink:href="#DejaVuSans-74" x="1283.894531"/>
      <use xlink:href="#DejaVuSans-69" x="1323.103516"/>
      <use xlink:href="#DejaVuSans-6f" x="1350.886719"/>
      <use xlink:href="#DejaVuSans-6e" x="1412.068359"/>
     </g>
    </g>
   </g>
  </g>
  <g id="axes_2">
   <g id="patch_19">
    <path d="M 482.04878 388.8 
L 583.2 388.8 
L 583.2 43.2 
L 482.04878 43.2 
z
" style="fill: #ffffff"/>
   </g>
   <g id="patch_20">
    <path d="M 482.04878 137.30283 
L 482.622627 137.30283 
L 482.622627 136.583531 
L 482.04878 136.583531 
z
" clip-path="url(#p5cb95d3675)" style="fill: #ff0000; opacity: 0.5"/>
   </g>
   <g id="patch_21">
    <path d="M 482.04878 136.583531 
L 483.913782 136.583531 
L 483.913782 135.864231 
L 482.04878 135.864231 
z
" clip-path="url(#p5cb95d3675)" style="fill: #ff0000; opacity: 0.5"/>
   </g>
   <g id="patch_22">
    <path d="M 482.04878 135.864231 
L 487.141669 135.864231 
L 487.141669 135.144931 
L 482.04878 135.144931 
z
" clip-path="url(#p5cb95d3675)" style="fill: #ff0000; opacity: 0.5"/>
   </g>
   <g id="patch_23">
    <path d="M 482.04878 135.144931 
L 492.019365 135.144931 
L 492.019365 134.425632 
L 482.04878 134.425632 
z
" clip-path="url(#p5cb95d3675)" style="fill: #ff0000; opacity: 0.5"/>
   </g>
   <g id="patch_24">
    <path d="M 482.04878 134.425632 
L 501.846488 134.425632 
L 501.846488 133.706332 
L 482.04878 133.706332 
z
" clip-path="url(#p5cb95d3675)" style="fill: #ff0000; opacity: 0.5"/>
   </g>
   <g id="patch_25">
    <path d="M 482.04878 133.706332 
L 517.627269 133.706332 
L 517.627269 132.987032 
L 482.04878 132.987032 
z
" clip-path="url(#p5cb95d3675)" style="fill: #ff0000; opacity: 0.5"/>
   </g>
   <g id="patch_26">
    <path d="M 482.04878 132.987032 
L 536.205552 132.987032 
L 536.205552 132.267733 
L 482.04878 132.267733 
z
" clip-path="url(#p5cb95d3675)" style="fill: #ff0000; opacity: 0.5"/>
   </g>
   <g id="patch_27">
    <path d="M 482.04878 132.267733 
L 552.560179 132.267733 
L 552.560179 131.548433 
L 482.04878 131.548433 
z
" clip-path="url(#p5cb95d3675)" style="fill: #ff0000; opacity: 0.5"/>
   </g>
   <g id="patch_28">
    <path d="M 482.04878 131.548433 
L 563.319803 131.548433 
L 563.319803 130.829134 
L 482.04878 130.829134 
z
" clip-path="url(#p5cb95d3675)" style="fill: #ff0000; opacity: 0.5"/>
   </g>
   <g id="patch_29">
    <path d="M 482.04878 130.829134 
L 573.505579 130.829134 
L 573.505579 130.109834 
L 482.04878 130.109834 
z
" clip-path="url(#p5cb95d3675)" style="fill: #ff0000; opacity: 0.5"/>
   </g>
   <g id="patch_30">
    <path d="M 482.04878 130.109834 
L 578.383275 130.109834 
L 578.383275 129.390534 
L 482.04878 129.390534 
z
" clip-path="url(#p5cb95d3675)" style="fill: #ff0000; opacity: 0.5"/>
   </g>
   <g id="patch_31">
    <path d="M 482.04878 129.390534 
L 568.914807 129.390534 
L 568.914807 128.671235 
L 482.04878 128.671235 
z
" clip-path="url(#p5cb95d3675)" style="fill: #ff0000; opacity: 0.5"/>
   </g>
   <g id="patch_32">
    <path d="M 482.04878 128.671235 
L 552.058063 128.671235 
L 552.058063 127.951935 
L 482.04878 127.951935 
z
" clip-path="url(#p5cb95d3675)" style="fill: #ff0000; opacity: 0.5"/>
   </g>
   <g id="patch_33">
    <path d="M 482.04878 127.951935 
L 527.38266 127.951935 
L 527.38266 127.232636 
L 482.04878 127.232636 
z
" clip-path="url(#p5cb95d3675)" style="fill: #ff0000; opacity: 0.5"/>
   </g>
   <g id="patch_34">
    <path d="M 482.04878 127.232636 
L 509.01957 127.232636 
L 509.01957 126.513336 
L 482.04878 126.513336 
z
" clip-path="url(#p5cb95d3675)" style="fill: #ff0000; opacity: 0.5"/>
   </g>
   <g id="patch_35">
    <path d="M 482.04878 126.513336 
L 495.677637 126.513336 
L 495.677637 125.794036 
L 482.04878 125.794036 
z
" clip-path="url(#p5cb95d3675)" style="fill: #ff0000; opacity: 0.5"/>
   </g>
   <g id="patch_36">
    <path d="M 482.04878 125.794036 
L 487.356861 125.794036 
L 487.356861 125.074737 
L 482.04878 125.074737 
z
" clip-path="url(#p5cb95d3675)" style="fill: #ff0000; opacity: 0.5"/>
   </g>
   <g id="patch_37">
    <path d="M 482.04878 125.074737 
L 483.842051 125.074737 
L 483.842051 124.355437 
L 482.04878 124.355437 
z
" clip-path="url(#p5cb95d3675)" style="fill: #ff0000; opacity: 0.5"/>
   </g>
   <g id="patch_38">
    <path d="M 482.04878 124.355437 
L 482.694358 124.355437 
L 482.694358 123.636137 
L 482.04878 123.636137 
z
" clip-path="url(#p5cb95d3675)" style="fill: #ff0000; opacity: 0.5"/>
   </g>
   <g id="patch_39">
    <path d="M 482.04878 123.636137 
L 482.192242 123.636137 
L 482.192242 122.916838 
L 482.04878 122.916838 
z
" clip-path="url(#p5cb95d3675)" style="fill: #ff0000; opacity: 0.5"/>
   </g>
   <g id="patch_40">
    <path d="M 482.04878 192.89844 
L 482.066273 192.89844 
L 482.066273 186.999205 
L 482.04878 186.999205 
z
" clip-path="url(#p5cb95d3675)" style="fill: #0000ff; opacity: 0.5"/>
   </g>
   <g id="patch_41">
    <path d="M 482.04878 186.999205 
L 482.11875 186.999205 
L 482.11875 181.099969 
L 482.04878 181.099969 
z
" clip-path="url(#p5cb95d3675)" style="fill: #0000ff; opacity: 0.5"/>
   </g>
   <g id="patch_42">
    <path d="M 482.04878 181.099969 
L 482.276182 181.099969 
L 482.276182 175.200733 
L 482.04878 175.200733 
z
" clip-path="url(#p5cb95d3675)" style="fill: #0000ff; opacity: 0.5"/>
   </g>
   <g id="patch_43">
    <path d="M 482.04878 175.200733 
L 482.634777 175.200733 
L 482.634777 169.301498 
L 482.04878 169.301498 
z
" clip-path="url(#p5cb95d3675)" style="fill: #0000ff; opacity: 0.5"/>
   </g>
   <g id="patch_44">
    <path d="M 482.04878 169.301498 
L 483.27325 169.301498 
L 483.27325 163.402262 
L 482.04878 163.402262 
z
" clip-path="url(#p5cb95d3675)" style="fill: #0000ff; opacity: 0.5"/>
   </g>
   <g id="patch_45">
    <path d="M 482.04878 163.402262 
L 484.471481 163.402262 
L 484.471481 157.503026 
L 482.04878 157.503026 
z
" clip-path="url(#p5cb95d3675)" style="fill: #0000ff; opacity: 0.5"/>
   </g>
   <g id="patch_46">
    <path d="M 482.04878 157.503026 
L 486.334423 157.503026 
L 486.334423 151.60379 
L 482.04878 151.60379 
z
" clip-path="url(#p5cb95d3675)" style="fill: #0000ff; opacity: 0.5"/>
   </g>
   <g id="patch_47">
    <path d="M 482.04878 151.60379 
L 488.870824 151.60379 
L 488.870824 145.704555 
L 482.04878 145.704555 
z
" clip-path="url(#p5cb95d3675)" style="fill: #0000ff; opacity: 0.5"/>
   </g>
   <g id="patch_48">
    <path d="M 482.04878 145.704555 
L 491.380986 145.704555 
L 491.380986 139.805319 
L 482.04878 139.805319 
z
" clip-path="url(#p5cb95d3675)" style="fill: #0000ff; opacity: 0.5"/>
   </g>
   <g id="patch_49">
    <path d="M 482.04878 139.805319 
L 493.077751 139.805319 
L 493.077751 133.906083 
L 482.04878 133.906083 
z
" clip-path="url(#p5cb95d3675)" style="fill: #0000ff; opacity: 0.5"/>
   </g>
   <g id="patch_50">
    <path d="M 482.04878 133.906083 
L 494.44216 133.906083 
L 494.44216 128.006848 
L 482.04878 128.006848 
z
" clip-path="url(#p5cb95d3675)" style="fill: #0000ff; opacity: 0.5"/>
   </g>
   <g id="patch_51">
    <path d="M 482.04878 128.006848 
L 493.759955 128.006848 
L 493.759955 122.107612 
L 482.04878 122.107612 
z
" clip-path="url(#p5cb95d3675)" style="fill: #0000ff; opacity: 0.5"/>
   </g>
   <g id="patch_52">
    <path d="M 482.04878 122.107612 
L 491.888267 122.107612 
L 491.888267 116.208376 
L 482.04878 116.208376 
z
" clip-path="url(#p5cb95d3675)" style="fill: #0000ff; opacity: 0.5"/>
   </g>
   <g id="patch_53">
    <path d="M 482.04878 116.208376 
L 489.631744 116.208376 
L 489.631744 110.30914 
L 482.04878 110.30914 
z
" clip-path="url(#p5cb95d3675)" style="fill: #0000ff; opacity: 0.5"/>
   </g>
   <g id="patch_54">
    <path d="M 482.04878 110.30914 
L 487.244029 110.30914 
L 487.244029 104.409905 
L 482.04878 104.409905 
z
" clip-path="url(#p5cb95d3675)" style="fill: #0000ff; opacity: 0.5"/>
   </g>
   <g id="patch_55">
    <path d="M 482.04878 104.409905 
L 484.707628 104.409905 
L 484.707628 98.510669 
L 482.04878 98.510669 
z
" clip-path="url(#p5cb95d3675)" style="fill: #0000ff; opacity: 0.5"/>
   </g>
   <g id="patch_56">
    <path d="M 482.04878 98.510669 
L 483.229519 98.510669 
L 483.229519 92.611433 
L 482.04878 92.611433 
z
" clip-path="url(#p5cb95d3675)" style="fill: #0000ff; opacity: 0.5"/>
   </g>
   <g id="patch_57">
    <path d="M 482.04878 92.611433 
L 482.617284 92.611433 
L 482.617284 86.712198 
L 482.04878 86.712198 
z
" clip-path="url(#p5cb95d3675)" style="fill: #0000ff; opacity: 0.5"/>
   </g>
   <g id="patch_58">
    <path d="M 482.04878 86.712198 
L 482.328659 86.712198 
L 482.328659 80.812962 
L 482.04878 80.812962 
z
" clip-path="url(#p5cb95d3675)" style="fill: #0000ff; opacity: 0.5"/>
   </g>
   <g id="patch_59">
    <path d="M 482.04878 80.812962 
L 482.083765 80.812962 
L 482.083765 74.913726 
L 482.04878 74.913726 
z
" clip-path="url(#p5cb95d3675)" style="fill: #0000ff; opacity: 0.5"/>
   </g>
   <g id="matplotlib.axis_3">
    <g id="xtick_7">
     <g id="line2d_30">
      <g>
       <use xlink:href="#m8c0767fffb" x="482.04878" y="388.8" style="stroke: #000000; stroke-width: 0.8"/>
      </g>
     </g>
     <g id="text_26">
      <!-- 0 -->
      <g transform="translate(478.86753 403.398438)scale(0.1 -0.1)">
       <use xlink:href="#DejaVuSans-30"/>
      </g>
     </g>
    </g>
    <g id="xtick_8">
     <g id="line2d_31">
      <g>
       <use xlink:href="#m8c0767fffb" x="544.752196" y="388.8" style="stroke: #000000; stroke-width: 0.8"/>
      </g>
     </g>
     <g id="text_27">
      <!-- 10 -->
      <g transform="translate(538.389696 403.398438)scale(0.1 -0.1)">
       <use xlink:href="#DejaVuSans-31"/>
       <use xlink:href="#DejaVuSans-30" x="63.623047"/>
      </g>
     </g>
    </g>
   </g>
   <g id="matplotlib.axis_4">
    <g id="ytick_10">
     <g id="line2d_32">
      <g>
       <use xlink:href="#m9d0d494d90" x="482.04878" y="388.8" style="stroke: #000000; stroke-width: 0.8"/>
      </g>
     </g>
    </g>
    <g id="ytick_11">
     <g id="line2d_33">
      <g>
       <use xlink:href="#m9d0d494d90" x="482.04878" y="347.657143" style="stroke: #000000; stroke-width: 0.8"/>
      </g>
     </g>
    </g>
    <g id="ytick_12">
     <g id="line2d_34">
      <g>
       <use xlink:href="#m9d0d494d90" x="482.04878" y="306.514286" style="stroke: #000000; stroke-width: 0.8"/>
      </g>
     </g>
    </g>
    <g id="ytick_13">
     <g id="line2d_35">
      <g>
       <use xlink:href="#m9d0d494d90" x="482.04878" y="265.371429" style="stroke: #000000; stroke-width: 0.8"/>
      </g>
     </g>
    </g>
    <g id="ytick_14">
     <g id="line2d_36">
      <g>
       <use xlink:href="#m9d0d494d90" x="482.04878" y="224.228571" style="stroke: #000000; stroke-width: 0.8"/>
      </g>
     </g>
    </g>
    <g id="ytick_15">
     <g id="line2d_37">
      <g>
       <use xlink:href="#m9d0d494d90" x="482.04878" y="183.085714" style="stroke: #000000; stroke-width: 0.8"/>
      </g>
     </g>
    </g>
    <g id="ytick_16">
     <g id="line2d_38">
      <g>
       <use xlink:href="#m9d0d494d90" x="482.04878" y="141.942857" style="stroke: #000000; stroke-width: 0.8"/>
      </g>
     </g>
    </g>
    <g id="ytick_17">
     <g id="line2d_39">
      <g>
       <use xlink:href="#m9d0d494d90" x="482.04878" y="100.8" style="stroke: #000000; stroke-width: 0.8"/>
      </g>
     </g>
    </g>
    <g id="ytick_18">
     <g id="line2d_40">
      <g>
       <use xlink:href="#m9d0d494d90" x="482.04878" y="59.657143" style="stroke: #000000; stroke-width: 0.8"/>
      </g>
     </g>
    </g>
   </g>
   <g id="patch_60">
    <path d="M 482.04878 388.8 
L 482.04878 43.2 
" style="fill: none; stroke: #000000; stroke-width: 0.8; stroke-linejoin: miter; stroke-linecap: square"/>
   </g>
   <g id="patch_61">
    <path d="M 583.2 388.8 
L 583.2 43.2 
" style="fill: none; stroke: #000000; stroke-width: 0.8; stroke-linejoin: miter; stroke-linecap: square"/>
   </g>
   <g id="patch_62">
    <path d="M 482.04878 388.8 
L 583.2 388.8 
" style="fill: none; stroke: #000000; stroke-width: 0.8; stroke-linejoin: miter; stroke-linecap: square"/>
   </g>
   <g id="patch_63">
    <path d="M 482.04878 43.2 
L 583.2 43.2 
" style="fill: none; stroke: #000000; stroke-width: 0.8; stroke-linejoin: miter; stroke-linecap: square"/>
   </g>
   <g id="text_28">
    <!-- Histogram over many MC estimates -->
    <g transform="translate(591.695625 108.0975)rotate(-270)scale(0.12 -0.12)">
     <defs>
      <path id="DejaVuSans-48" d="M 628 4666 
L 1259 4666 
L 1259 2753 
L 3553 2753 
L 3553 4666 
L 4184 4666 
L 4184 0 
L 3553 0 
L 3553 2222 
L 1259 2222 
L 1259 0 
L 628 0 
L 628 4666 
z
" transform="scale(0.015625)"/>
     </defs>
     <use xlink:href="#DejaVuSans-48"/>
     <use xlink:href="#DejaVuSans-69" x="75.195312"/>
     <use xlink:href="#DejaVuSans-73" x="102.978516"/>
     <use xlink:href="#DejaVuSans-74" x="155.078125"/>
     <use xlink:href="#DejaVuSans-6f" x="194.287109"/>
     <use xlink:href="#DejaVuSans-67" x="255.46875"/>
     <use xlink:href="#DejaVuSans-72" x="318.945312"/>
     <use xlink:href="#DejaVuSans-61" x="360.058594"/>
     <use xlink:href="#DejaVuSans-6d" x="421.337891"/>
     <use xlink:href="#DejaVuSans-20" x="518.75"/>
     <use xlink:href="#DejaVuSans-6f" x="550.537109"/>
     <use xlink:href="#DejaVuSans-76" x="611.71875"/>
     <use xlink:href="#DejaVuSans-65" x="670.898438"/>
     <use xlink:href="#DejaVuSans-72" x="732.421875"/>
     <use xlink:href="#DejaVuSans-20" x="773.535156"/>
     <use xlink:href="#DejaVuSans-6d" x="805.322266"/>
     <use xlink:href="#DejaVuSans-61" x="902.734375"/>
     <use xlink:href="#DejaVuSans-6e" x="964.013672"/>
     <use xlink:href="#DejaVuSans-79" x="1027.392578"/>
     <use xlink:href="#DejaVuSans-20" x="1086.572266"/>
     <use xlink:href="#DejaVuSans-4d" x="1118.359375"/>
     <use xlink:href="#DejaVuSans-43" x="1204.638672"/>
     <use xlink:href="#DejaVuSans-20" x="1274.462891"/>
     <use xlink:href="#DejaVuSans-65" x="1306.25"/>
     <use xlink:href="#DejaVuSans-73" x="1367.773438"/>
     <use xlink:href="#DejaVuSans-74" x="1419.873047"/>
     <use xlink:href="#DejaVuSans-69" x="1459.082031"/>
     <use xlink:href="#DejaVuSans-6d" x="1486.865234"/>
     <use xlink:href="#DejaVuSans-61" x="1584.277344"/>
     <use xlink:href="#DejaVuSans-74" x="1645.556641"/>
     <use xlink:href="#DejaVuSans-65" x="1684.765625"/>
     <use xlink:href="#DejaVuSans-73" x="1746.289062"/>
    </g>
   </g>
   <g id="legend_2">
    <g id="patch_64">
     <path d="M 487.065625 80.55625 
L 576.2 80.55625 
Q 578.2 80.55625 578.2 78.55625 
L 578.2 50.2 
Q 578.2 48.2 576.2 48.2 
L 487.065625 48.2 
Q 485.065625 48.2 485.065625 50.2 
L 485.065625 78.55625 
Q 485.065625 80.55625 487.065625 80.55625 
z
" style="fill: #ffffff; opacity: 0.8; stroke: #cccccc; stroke-linejoin: miter"/>
    </g>
    <g id="patch_65">
     <path d="M 489.065625 59.798437 
L 509.065625 59.798437 
L 509.065625 52.798437 
L 489.065625 52.798437 
z
" style="fill: #ff0000; opacity: 0.5"/>
    </g>
    <g id="text_29">
     <!-- importance -->
     <g transform="translate(517.065625 59.798437)scale(0.1 -0.1)">
      <use xlink:href="#DejaVuSans-69"/>
      <use xlink:href="#DejaVuSans-6d" x="27.783203"/>
      <use xlink:href="#DejaVuSans-70" x="125.195312"/>
      <use xlink:href="#DejaVuSans-6f" x="188.671875"/>
      <use xlink:href="#DejaVuSans-72" x="249.853516"/>
      <use xlink:href="#DejaVuSans-74" x="290.966797"/>
      <use xlink:href="#DejaVuSans-61" x="330.175781"/>
      <use xlink:href="#DejaVuSans-6e" x="391.455078"/>
      <use xlink:href="#DejaVuSans-63" x="454.833984"/>
      <use xlink:href="#DejaVuSans-65" x="509.814453"/>
     </g>
    </g>
    <g id="patch_66">
     <path d="M 489.065625 74.476562 
L 509.065625 74.476562 
L 509.065625 67.476562 
L 489.065625 67.476562 
z
" style="fill: #0000ff; opacity: 0.5"/>
    </g>
    <g id="text_30">
     <!-- standard -->
     <g transform="translate(517.065625 74.476562)scale(0.1 -0.1)">
      <use xlink:href="#DejaVuSans-73"/>
      <use xlink:href="#DejaVuSans-74" x="52.099609"/>
      <use xlink:href="#DejaVuSans-61" x="91.308594"/>
      <use xlink:href="#DejaVuSans-6e" x="152.587891"/>
      <use xlink:href="#DejaVuSans-64" x="215.966797"/>
      <use xlink:href="#DejaVuSans-61" x="279.443359"/>
      <use xlink:href="#DejaVuSans-72" x="340.722656"/>
      <use xlink:href="#DejaVuSans-64" x="380.085938"/>
     </g>
    </g>
   </g>
  </g>
 </g>
 <defs>
  <clipPath id="pd54dee3e2d">
   <rect x="64.8" y="43.2" width="404.604878" height="345.6"/>
  </clipPath>
  <clipPath id="p5cb95d3675">
   <rect x="482.04878" y="43.2" width="101.15122" height="345.6"/>
  </clipPath>
 </defs>
</svg>
