<?xml version="1.0" encoding="utf-8" standalone="no"?>
<!DOCTYPE svg PUBLIC "-//W3C//DTD SVG 1.1//EN"
  "http://www.w3.org/Graphics/SVG/1.1/DTD/svg11.dtd">
<svg xmlns:xlink="http://www.w3.org/1999/xlink" width="576pt" height="432pt" viewBox="0 0 576 432" xmlns="http://www.w3.org/2000/svg" version="1.1">
 <metadata>
  <rdf:RDF xmlns:dc="http://purl.org/dc/elements/1.1/" xmlns:cc="http://creativecommons.org/ns#" xmlns:rdf="http://www.w3.org/1999/02/22-rdf-syntax-ns#">
   <cc:Work>
    <dc:type rdf:resource="http://purl.org/dc/dcmitype/StillImage"/>
    <dc:date>2023-11-03T20:51:21.078846</dc:date>
    <dc:format>image/svg+xml</dc:format>
    <dc:creator>
     <cc:Agent>
      <dc:title>Matplotlib v3.5.1, https://matplotlib.org/</dc:title>
     </cc:Agent>
    </dc:creator>
   </cc:Work>
  </rdf:RDF>
 </metadata>
 <defs>
  <style type="text/css">*{stroke-linejoin: round; stroke-linecap: butt}</style>
 </defs>
 <g id="figure_1">
  <g id="patch_1">
   <path d="M 0 432 
L 576 432 
L 576 0 
L 0 0 
z
" style="fill: #ffffff"/>
  </g>
  <g id="axes_1">
   <g id="patch_2">
    <path d="M 57.6 388.8 
L 417.24878 388.8 
L 417.24878 43.2 
L 57.6 43.2 
z
" style="fill: #ffffff"/>
   </g>
   <g id="PolyCollection_1">
    <defs>
     <path id="m69b88b8c70" d="M 73.947672 -58.909091 
L 73.947672 -283.698899 
L 77.250232 -283.698899 
L 80.552792 -283.698899 
L 83.855352 -283.698899 
L 87.157912 -283.698899 
L 90.460472 -283.698899 
L 93.763032 -283.698899 
L 97.065592 -283.698899 
L 100.368152 -283.698899 
L 103.670712 -283.698899 
L 106.973272 -283.698899 
L 110.275831 -283.698899 
L 113.578391 -283.698899 
L 116.880951 -283.698899 
L 120.183511 -283.698899 
L 123.486071 -283.698899 
L 126.788631 -283.698899 
L 130.091191 -283.698899 
L 133.393751 -283.698899 
L 136.696311 -283.698899 
L 139.998871 -283.698899 
L 143.301431 -283.698899 
L 146.603991 -283.698899 
L 149.906551 -283.698899 
L 153.209111 -283.698899 
L 156.511671 -283.698899 
L 159.814231 -283.698899 
L 163.116791 -283.698899 
L 166.419351 -283.698899 
L 169.721911 -283.698899 
L 173.024471 -283.698899 
L 176.327031 -283.698899 
L 179.629591 -283.698899 
L 182.932151 -283.698899 
L 186.234711 -283.698899 
L 189.537271 -283.698899 
L 192.839831 -283.698899 
L 196.142391 -283.698899 
L 199.444951 -283.698899 
L 202.747511 -283.698899 
L 206.050071 -283.698899 
L 209.352631 -283.698899 
L 212.65519 -283.698899 
L 215.95775 -283.698899 
L 219.26031 -283.698899 
L 222.56287 -283.698899 
L 225.86543 -283.698899 
L 229.16799 -283.698899 
L 232.47055 -283.698899 
L 235.77311 -283.698899 
L 239.07567 -283.698899 
L 242.37823 -283.698899 
L 245.68079 -283.698899 
L 248.98335 -283.698899 
L 252.28591 -283.698899 
L 255.58847 -283.698899 
L 258.89103 -283.698899 
L 262.19359 -283.698899 
L 265.49615 -283.698899 
L 268.79871 -283.698899 
L 272.10127 -283.698899 
L 275.40383 -283.698899 
L 278.70639 -283.698899 
L 282.00895 -283.698899 
L 285.31151 -283.698899 
L 288.61407 -283.698899 
L 291.91663 -283.698899 
L 295.21919 -283.698899 
L 298.52175 -283.698899 
L 301.82431 -283.698899 
L 305.12687 -283.698899 
L 308.42943 -283.698899 
L 311.73199 -283.698899 
L 315.034549 -283.698899 
L 318.337109 -283.698899 
L 321.639669 -283.698899 
L 324.942229 -283.698899 
L 328.244789 -283.698899 
L 331.547349 -283.698899 
L 334.849909 -283.698899 
L 338.152469 -283.698899 
L 341.455029 -283.698899 
L 344.757589 -283.698899 
L 348.060149 -283.698899 
L 351.362709 -283.698899 
L 354.665269 -283.698899 
L 357.967829 -283.698899 
L 361.270389 -283.698899 
L 364.572949 -283.698899 
L 367.875509 -283.698899 
L 371.178069 -283.698899 
L 374.480629 -283.698899 
L 377.783189 -283.698899 
L 381.085749 -283.698899 
L 384.388309 -283.698899 
L 387.690869 -283.698899 
L 390.993429 -283.698899 
L 394.295989 -283.698899 
L 397.598549 -283.698899 
L 400.901109 -283.698899 
L 400.901109 -58.909091 
L 400.901109 -58.909091 
L 397.598549 -58.909091 
L 394.295989 -58.909091 
L 390.993429 -58.909091 
L 387.690869 -58.909091 
L 384.388309 -58.909091 
L 381.085749 -58.909091 
L 377.783189 -58.909091 
L 374.480629 -58.909091 
L 371.178069 -58.909091 
L 367.875509 -58.909091 
L 364.572949 -58.909091 
L 361.270389 -58.909091 
L 357.967829 -58.909091 
L 354.665269 -58.909091 
L 351.362709 -58.909091 
L 348.060149 -58.909091 
L 344.757589 -58.909091 
L 341.455029 -58.909091 
L 338.152469 -58.909091 
L 334.849909 -58.909091 
L 331.547349 -58.909091 
L 328.244789 -58.909091 
L 324.942229 -58.909091 
L 321.639669 -58.909091 
L 318.337109 -58.909091 
L 315.034549 -58.909091 
L 311.73199 -58.909091 
L 308.42943 -58.909091 
L 305.12687 -58.909091 
L 301.82431 -58.909091 
L 298.52175 -58.909091 
L 295.21919 -58.909091 
L 291.91663 -58.909091 
L 288.61407 -58.909091 
L 285.31151 -58.909091 
L 282.00895 -58.909091 
L 278.70639 -58.909091 
L 275.40383 -58.909091 
L 272.10127 -58.909091 
L 268.79871 -58.909091 
L 265.49615 -58.909091 
L 262.19359 -58.909091 
L 258.89103 -58.909091 
L 255.58847 -58.909091 
L 252.28591 -58.909091 
L 248.98335 -58.909091 
L 245.68079 -58.909091 
L 242.37823 -58.909091 
L 239.07567 -58.909091 
L 235.77311 -58.909091 
L 232.47055 -58.909091 
L 229.16799 -58.909091 
L 225.86543 -58.909091 
L 222.56287 -58.909091 
L 219.26031 -58.909091 
L 215.95775 -58.909091 
L 212.65519 -58.909091 
L 209.352631 -58.909091 
L 206.050071 -58.909091 
L 202.747511 -58.909091 
L 199.444951 -58.909091 
L 196.142391 -58.909091 
L 192.839831 -58.909091 
L 189.537271 -58.909091 
L 186.234711 -58.909091 
L 182.932151 -58.909091 
L 179.629591 -58.909091 
L 176.327031 -58.909091 
L 173.024471 -58.909091 
L 169.721911 -58.909091 
L 166.419351 -58.909091 
L 163.116791 -58.909091 
L 159.814231 -58.909091 
L 156.511671 -58.909091 
L 153.209111 -58.909091 
L 149.906551 -58.909091 
L 146.603991 -58.909091 
L 143.301431 -58.909091 
L 139.998871 -58.909091 
L 136.696311 -58.909091 
L 133.393751 -58.909091 
L 130.091191 -58.909091 
L 126.788631 -58.909091 
L 123.486071 -58.909091 
L 120.183511 -58.909091 
L 116.880951 -58.909091 
L 113.578391 -58.909091 
L 110.275831 -58.909091 
L 106.973272 -58.909091 
L 103.670712 -58.909091 
L 100.368152 -58.909091 
L 97.065592 -58.909091 
L 93.763032 -58.909091 
L 90.460472 -58.909091 
L 87.157912 -58.909091 
L 83.855352 -58.909091 
L 80.552792 -58.909091 
L 77.250232 -58.909091 
L 73.947672 -58.909091 
z
" style="stroke: #ff0000; stroke-opacity: 0.1"/>
    </defs>
    <g clip-path="url(#p68fddc895d)">
     <use xlink:href="#m69b88b8c70" x="0" y="432" style="fill: #ff0000; fill-opacity: 0.1; stroke: #ff0000; stroke-opacity: 0.1"/>
    </g>
   </g>
   <g id="matplotlib.axis_1">
    <g id="xtick_1">
     <g id="line2d_1">
      <defs>
       <path id="m2921988d16" d="M 0 0 
L 0 3.5 
" style="stroke: #000000; stroke-width: 0.8"/>
      </defs>
      <g>
       <use xlink:href="#m2921988d16" x="73.947672" y="388.8" style="stroke: #000000; stroke-width: 0.8"/>
      </g>
     </g>
     <g id="text_1">
      <!-- 0.0 -->
      <g transform="translate(65.996109 403.398438)scale(0.1 -0.1)">
       <defs>
        <path id="DejaVuSans-30" d="M 2034 4250 
Q 1547 4250 1301 3770 
Q 1056 3291 1056 2328 
Q 1056 1369 1301 889 
Q 1547 409 2034 409 
Q 2525 409 2770 889 
Q 3016 1369 3016 2328 
Q 3016 3291 2770 3770 
Q 2525 4250 2034 4250 
z
M 2034 4750 
Q 2819 4750 3233 4129 
Q 3647 3509 3647 2328 
Q 3647 1150 3233 529 
Q 2819 -91 2034 -91 
Q 1250 -91 836 529 
Q 422 1150 422 2328 
Q 422 3509 836 4129 
Q 1250 4750 2034 4750 
z
" transform="scale(0.015625)"/>
        <path id="DejaVuSans-2e" d="M 684 794 
L 1344 794 
L 1344 0 
L 684 0 
L 684 794 
z
" transform="scale(0.015625)"/>
       </defs>
       <use xlink:href="#DejaVuSans-30"/>
       <use xlink:href="#DejaVuSans-2e" x="63.623047"/>
       <use xlink:href="#DejaVuSans-30" x="95.410156"/>
      </g>
     </g>
    </g>
    <g id="xtick_2">
     <g id="line2d_2">
      <g>
       <use xlink:href="#m2921988d16" x="139.338359" y="388.8" style="stroke: #000000; stroke-width: 0.8"/>
      </g>
     </g>
     <g id="text_2">
      <!-- 0.2 -->
      <g transform="translate(131.386797 403.398438)scale(0.1 -0.1)">
       <defs>
        <path id="DejaVuSans-32" d="M 1228 531 
L 3431 531 
L 3431 0 
L 469 0 
L 469 531 
Q 828 903 1448 1529 
Q 2069 2156 2228 2338 
Q 2531 2678 2651 2914 
Q 2772 3150 2772 3378 
Q 2772 3750 2511 3984 
Q 2250 4219 1831 4219 
Q 1534 4219 1204 4116 
Q 875 4013 500 3803 
L 500 4441 
Q 881 4594 1212 4672 
Q 1544 4750 1819 4750 
Q 2544 4750 2975 4387 
Q 3406 4025 3406 3419 
Q 3406 3131 3298 2873 
Q 3191 2616 2906 2266 
Q 2828 2175 2409 1742 
Q 1991 1309 1228 531 
z
" transform="scale(0.015625)"/>
       </defs>
       <use xlink:href="#DejaVuSans-30"/>
       <use xlink:href="#DejaVuSans-2e" x="63.623047"/>
       <use xlink:href="#DejaVuSans-32" x="95.410156"/>
      </g>
     </g>
    </g>
    <g id="xtick_3">
     <g id="line2d_3">
      <g>
       <use xlink:href="#m2921988d16" x="204.729047" y="388.8" style="stroke: #000000; stroke-width: 0.8"/>
      </g>
     </g>
     <g id="text_3">
      <!-- 0.4 -->
      <g transform="translate(196.777484 403.398438)scale(0.1 -0.1)">
       <defs>
        <path id="DejaVuSans-34" d="M 2419 4116 
L 825 1625 
L 2419 1625 
L 2419 4116 
z
M 2253 4666 
L 3047 4666 
L 3047 1625 
L 3713 1625 
L 3713 1100 
L 3047 1100 
L 3047 0 
L 2419 0 
L 2419 1100 
L 313 1100 
L 313 1709 
L 2253 4666 
z
" transform="scale(0.015625)"/>
       </defs>
       <use xlink:href="#DejaVuSans-30"/>
       <use xlink:href="#DejaVuSans-2e" x="63.623047"/>
       <use xlink:href="#DejaVuSans-34" x="95.410156"/>
      </g>
     </g>
    </g>
    <g id="xtick_4">
     <g id="line2d_4">
      <g>
       <use xlink:href="#m2921988d16" x="270.119734" y="388.8" style="stroke: #000000; stroke-width: 0.8"/>
      </g>
     </g>
     <g id="text_4">
      <!-- 0.6 -->
      <g transform="translate(262.168171 403.398438)scale(0.1 -0.1)">
       <defs>
        <path id="DejaVuSans-36" d="M 2113 2584 
Q 1688 2584 1439 2293 
Q 1191 2003 1191 1497 
Q 1191 994 1439 701 
Q 1688 409 2113 409 
Q 2538 409 2786 701 
Q 3034 994 3034 1497 
Q 3034 2003 2786 2293 
Q 2538 2584 2113 2584 
z
M 3366 4563 
L 3366 3988 
Q 3128 4100 2886 4159 
Q 2644 4219 2406 4219 
Q 1781 4219 1451 3797 
Q 1122 3375 1075 2522 
Q 1259 2794 1537 2939 
Q 1816 3084 2150 3084 
Q 2853 3084 3261 2657 
Q 3669 2231 3669 1497 
Q 3669 778 3244 343 
Q 2819 -91 2113 -91 
Q 1303 -91 875 529 
Q 447 1150 447 2328 
Q 447 3434 972 4092 
Q 1497 4750 2381 4750 
Q 2619 4750 2861 4703 
Q 3103 4656 3366 4563 
z
" transform="scale(0.015625)"/>
       </defs>
       <use xlink:href="#DejaVuSans-30"/>
       <use xlink:href="#DejaVuSans-2e" x="63.623047"/>
       <use xlink:href="#DejaVuSans-36" x="95.410156"/>
      </g>
     </g>
    </g>
    <g id="xtick_5">
     <g id="line2d_5">
      <g>
       <use xlink:href="#m2921988d16" x="335.510421" y="388.8" style="stroke: #000000; stroke-width: 0.8"/>
      </g>
     </g>
     <g id="text_5">
      <!-- 0.8 -->
      <g transform="translate(327.558859 403.398438)scale(0.1 -0.1)">
       <defs>
        <path id="DejaVuSans-38" d="M 2034 2216 
Q 1584 2216 1326 1975 
Q 1069 1734 1069 1313 
Q 1069 891 1326 650 
Q 1584 409 2034 409 
Q 2484 409 2743 651 
Q 3003 894 3003 1313 
Q 3003 1734 2745 1975 
Q 2488 2216 2034 2216 
z
M 1403 2484 
Q 997 2584 770 2862 
Q 544 3141 544 3541 
Q 544 4100 942 4425 
Q 1341 4750 2034 4750 
Q 2731 4750 3128 4425 
Q 3525 4100 3525 3541 
Q 3525 3141 3298 2862 
Q 3072 2584 2669 2484 
Q 3125 2378 3379 2068 
Q 3634 1759 3634 1313 
Q 3634 634 3220 271 
Q 2806 -91 2034 -91 
Q 1263 -91 848 271 
Q 434 634 434 1313 
Q 434 1759 690 2068 
Q 947 2378 1403 2484 
z
M 1172 3481 
Q 1172 3119 1398 2916 
Q 1625 2713 2034 2713 
Q 2441 2713 2670 2916 
Q 2900 3119 2900 3481 
Q 2900 3844 2670 4047 
Q 2441 4250 2034 4250 
Q 1625 4250 1398 4047 
Q 1172 3844 1172 3481 
z
" transform="scale(0.015625)"/>
       </defs>
       <use xlink:href="#DejaVuSans-30"/>
       <use xlink:href="#DejaVuSans-2e" x="63.623047"/>
       <use xlink:href="#DejaVuSans-38" x="95.410156"/>
      </g>
     </g>
    </g>
    <g id="xtick_6">
     <g id="line2d_6">
      <g>
       <use xlink:href="#m2921988d16" x="400.901109" y="388.8" style="stroke: #000000; stroke-width: 0.8"/>
      </g>
     </g>
     <g id="text_6">
      <!-- 1.0 -->
      <g transform="translate(392.949546 403.398438)scale(0.1 -0.1)">
       <defs>
        <path id="DejaVuSans-31" d="M 794 531 
L 1825 531 
L 1825 4091 
L 703 3866 
L 703 4441 
L 1819 4666 
L 2450 4666 
L 2450 531 
L 3481 531 
L 3481 0 
L 794 0 
L 794 531 
z
" transform="scale(0.015625)"/>
       </defs>
       <use xlink:href="#DejaVuSans-31"/>
       <use xlink:href="#DejaVuSans-2e" x="63.623047"/>
       <use xlink:href="#DejaVuSans-30" x="95.410156"/>
      </g>
     </g>
    </g>
    <g id="text_7">
     <!-- x -->
     <g transform="translate(234.465015 417.076563)scale(0.1 -0.1)">
      <defs>
       <path id="DejaVuSans-78" d="M 3513 3500 
L 2247 1797 
L 3578 0 
L 2900 0 
L 1881 1375 
L 863 0 
L 184 0 
L 1544 1831 
L 300 3500 
L 978 3500 
L 1906 2253 
L 2834 3500 
L 3513 3500 
z
" transform="scale(0.015625)"/>
      </defs>
      <use xlink:href="#DejaVuSans-78"/>
     </g>
    </g>
   </g>
   <g id="matplotlib.axis_2">
    <g id="ytick_1">
     <g id="line2d_7">
      <defs>
       <path id="ma877a1c9d8" d="M 0 0 
L -3.5 0 
" style="stroke: #000000; stroke-width: 0.8"/>
      </defs>
      <g>
       <use xlink:href="#ma877a1c9d8" x="57.6" y="373.090909" style="stroke: #000000; stroke-width: 0.8"/>
      </g>
     </g>
     <g id="text_8">
      <!-- 0.0 -->
      <g transform="translate(34.696875 376.890128)scale(0.1 -0.1)">
       <use xlink:href="#DejaVuSans-30"/>
       <use xlink:href="#DejaVuSans-2e" x="63.623047"/>
       <use xlink:href="#DejaVuSans-30" x="95.410156"/>
      </g>
     </g>
    </g>
    <g id="ytick_2">
     <g id="line2d_8">
      <g>
       <use xlink:href="#ma877a1c9d8" x="57.6" y="310.254545" style="stroke: #000000; stroke-width: 0.8"/>
      </g>
     </g>
     <g id="text_9">
      <!-- 0.2 -->
      <g transform="translate(34.696875 314.053764)scale(0.1 -0.1)">
       <use xlink:href="#DejaVuSans-30"/>
       <use xlink:href="#DejaVuSans-2e" x="63.623047"/>
       <use xlink:href="#DejaVuSans-32" x="95.410156"/>
      </g>
     </g>
    </g>
    <g id="ytick_3">
     <g id="line2d_9">
      <g>
       <use xlink:href="#ma877a1c9d8" x="57.6" y="247.418182" style="stroke: #000000; stroke-width: 0.8"/>
      </g>
     </g>
     <g id="text_10">
      <!-- 0.4 -->
      <g transform="translate(34.696875 251.217401)scale(0.1 -0.1)">
       <use xlink:href="#DejaVuSans-30"/>
       <use xlink:href="#DejaVuSans-2e" x="63.623047"/>
       <use xlink:href="#DejaVuSans-34" x="95.410156"/>
      </g>
     </g>
    </g>
    <g id="ytick_4">
     <g id="line2d_10">
      <g>
       <use xlink:href="#ma877a1c9d8" x="57.6" y="184.581818" style="stroke: #000000; stroke-width: 0.8"/>
      </g>
     </g>
     <g id="text_11">
      <!-- 0.6 -->
      <g transform="translate(34.696875 188.381037)scale(0.1 -0.1)">
       <use xlink:href="#DejaVuSans-30"/>
       <use xlink:href="#DejaVuSans-2e" x="63.623047"/>
       <use xlink:href="#DejaVuSans-36" x="95.410156"/>
      </g>
     </g>
    </g>
    <g id="ytick_5">
     <g id="line2d_11">
      <g>
       <use xlink:href="#ma877a1c9d8" x="57.6" y="121.745455" style="stroke: #000000; stroke-width: 0.8"/>
      </g>
     </g>
     <g id="text_12">
      <!-- 0.8 -->
      <g transform="translate(34.696875 125.544673)scale(0.1 -0.1)">
       <use xlink:href="#DejaVuSans-30"/>
       <use xlink:href="#DejaVuSans-2e" x="63.623047"/>
       <use xlink:href="#DejaVuSans-38" x="95.410156"/>
      </g>
     </g>
    </g>
    <g id="ytick_6">
     <g id="line2d_12">
      <g>
       <use xlink:href="#ma877a1c9d8" x="57.6" y="58.909091" style="stroke: #000000; stroke-width: 0.8"/>
      </g>
     </g>
     <g id="text_13">
      <!-- 1.0 -->
      <g transform="translate(34.696875 62.70831)scale(0.1 -0.1)">
       <use xlink:href="#DejaVuSans-31"/>
       <use xlink:href="#DejaVuSans-2e" x="63.623047"/>
       <use xlink:href="#DejaVuSans-30" x="95.410156"/>
      </g>
     </g>
    </g>
    <g id="text_14">
     <!-- y -->
     <g transform="translate(28.617188 218.959375)rotate(-90)scale(0.1 -0.1)">
      <defs>
       <path id="DejaVuSans-79" d="M 2059 -325 
Q 1816 -950 1584 -1140 
Q 1353 -1331 966 -1331 
L 506 -1331 
L 506 -850 
L 844 -850 
Q 1081 -850 1212 -737 
Q 1344 -625 1503 -206 
L 1606 56 
L 191 3500 
L 800 3500 
L 1894 763 
L 2988 3500 
L 3597 3500 
L 2059 -325 
z
" transform="scale(0.015625)"/>
      </defs>
      <use xlink:href="#DejaVuSans-79"/>
     </g>
    </g>
   </g>
   <g id="line2d_13">
    <path d="M 73.947672 58.909091 
L 77.250232 58.941145 
L 80.552792 59.037289 
L 83.855352 59.197463 
L 87.157912 59.42157 
L 90.460472 59.709472 
L 93.763032 60.060994 
L 97.065592 60.47592 
L 100.368152 60.953997 
L 103.670712 61.494935 
L 106.973272 62.098403 
L 110.275831 62.764034 
L 113.578391 63.491424 
L 116.880951 64.280132 
L 120.183511 65.129679 
L 123.486071 66.039553 
L 126.788631 67.009205 
L 130.091191 68.03805 
L 133.393751 69.125471 
L 136.696311 70.270815 
L 139.998871 71.473398 
L 143.301431 72.732503 
L 146.603991 74.047381 
L 149.906551 75.417253 
L 153.209111 76.841309 
L 156.511671 78.318709 
L 159.814231 79.848588 
L 163.116791 81.430048 
L 166.419351 83.06217 
L 169.721911 84.744004 
L 173.024471 86.474579 
L 176.327031 88.252898 
L 179.629591 90.07794 
L 182.932151 91.948666 
L 186.234711 93.86401 
L 189.537271 95.822891 
L 192.839831 97.824207 
L 196.142391 99.866838 
L 199.444951 101.949646 
L 202.747511 104.071478 
L 206.050071 106.231167 
L 209.352631 108.427531 
L 212.65519 110.659376 
L 215.95775 112.925495 
L 219.26031 115.224671 
L 222.56287 117.555679 
L 225.86543 119.917284 
L 229.16799 122.308243 
L 232.47055 124.727308 
L 235.77311 127.173227 
L 239.07567 129.644741 
L 242.37823 132.140589 
L 245.68079 134.659508 
L 248.98335 137.200236 
L 252.28591 139.761507 
L 255.58847 142.342061 
L 258.89103 144.940635 
L 262.19359 147.555974 
L 265.49615 150.186822 
L 268.79871 152.831933 
L 272.10127 155.490064 
L 275.40383 158.159979 
L 278.70639 160.840452 
L 282.00895 163.530263 
L 285.31151 166.228203 
L 288.61407 168.933074 
L 291.91663 171.643689 
L 295.21919 174.358872 
L 298.52175 177.077462 
L 301.82431 179.79831 
L 305.12687 182.520282 
L 308.42943 185.242259 
L 311.73199 187.963139 
L 315.034549 190.681834 
L 318.337109 193.397277 
L 321.639669 196.108414 
L 324.942229 198.814214 
L 328.244789 201.513662 
L 331.547349 204.205763 
L 334.849909 206.889543 
L 338.152469 209.564048 
L 341.455029 212.228344 
L 344.757589 214.881518 
L 348.060149 217.522682 
L 351.362709 220.150965 
L 354.665269 222.765524 
L 357.967829 225.365533 
L 361.270389 227.950194 
L 364.572949 230.518729 
L 367.875509 233.070384 
L 371.178069 235.60443 
L 374.480629 238.120161 
L 377.783189 240.616895 
L 381.085749 243.093973 
L 384.388309 245.550762 
L 387.690869 247.986651 
L 390.993429 250.401057 
L 394.295989 252.793417 
L 397.598549 255.163195 
L 400.901109 257.509877 
" clip-path="url(#p68fddc895d)" style="fill: none; stroke: #000000; stroke-width: 1.5; stroke-linecap: square"/>
   </g>
   <g id="LineCollection_1">
    <path d="M 73.947672 148.301101 
L 400.901109 148.301101 
" clip-path="url(#p68fddc895d)" style="fill: none; stroke: #ff0000; stroke-width: 1.5"/>
   </g>
   <g id="PathCollection_1">
    <defs>
     <path id="m7567341338" d="M 0 2.12132 
C 0.562581 2.12132 1.102195 1.897805 1.5 1.5 
C 1.897805 1.102195 2.12132 0.562581 2.12132 0 
C 2.12132 -0.562581 1.897805 -1.102195 1.5 -1.5 
C 1.102195 -1.897805 0.562581 -2.12132 0 -2.12132 
C -0.562581 -2.12132 -1.102195 -1.897805 -1.5 -1.5 
C -1.897805 -1.102195 -2.12132 -0.562581 -2.12132 0 
C -2.12132 0.562581 -1.897805 1.102195 -1.5 1.5 
C -1.102195 1.897805 -0.562581 2.12132 0 2.12132 
z
" style="stroke: #ff0000"/>
    </defs>
    <g clip-path="url(#p68fddc895d)">
     <use xlink:href="#m7567341338" x="388.565829" y="248.628425" style="fill: #ff0000; stroke: #ff0000"/>
     <use xlink:href="#m7567341338" x="158.212315" y="79.100018" style="fill: #ff0000; stroke: #ff0000"/>
     <use xlink:href="#m7567341338" x="367.055862" y="232.438716" style="fill: #ff0000; stroke: #ff0000"/>
     <use xlink:href="#m7567341338" x="266.577062" y="151.051045" style="fill: #ff0000; stroke: #ff0000"/>
     <use xlink:href="#m7567341338" x="124.19604" y="66.24298" style="fill: #ff0000; stroke: #ff0000"/>
     <use xlink:href="#m7567341338" x="232.956844" y="125.085808" style="fill: #ff0000; stroke: #ff0000"/>
     <use xlink:href="#m7567341338" x="352.600541" y="221.13258" style="fill: #ff0000; stroke: #ff0000"/>
     <use xlink:href="#m7567341338" x="243.54272" y="133.026197" style="fill: #ff0000; stroke: #ff0000"/>
     <use xlink:href="#m7567341338" x="389.650941" y="249.422231" style="fill: #ff0000; stroke: #ff0000"/>
     <use xlink:href="#m7567341338" x="307.773295" y="184.701524" style="fill: #ff0000; stroke: #ff0000"/>
     <use xlink:href="#m7567341338" x="110.177964" y="62.743419" style="fill: #ff0000; stroke: #ff0000"/>
     <use xlink:href="#m7567341338" x="296.169689" y="175.141003" style="fill: #ff0000; stroke: #ff0000"/>
     <use xlink:href="#m7567341338" x="174.347928" y="87.18154" style="fill: #ff0000; stroke: #ff0000"/>
     <use xlink:href="#m7567341338" x="239.313538" y="129.823706" style="fill: #ff0000; stroke: #ff0000"/>
     <use xlink:href="#m7567341338" x="400.047908" y="256.905863" style="fill: #ff0000; stroke: #ff0000"/>
     <use xlink:href="#m7567341338" x="223.771754" y="118.416647" style="fill: #ff0000; stroke: #ff0000"/>
     <use xlink:href="#m7567341338" x="125.870036" y="66.733532" style="fill: #ff0000; stroke: #ff0000"/>
     <use xlink:href="#m7567341338" x="189.661047" y="95.89714" style="fill: #ff0000; stroke: #ff0000"/>
     <use xlink:href="#m7567341338" x="96.942477" y="60.459317" style="fill: #ff0000; stroke: #ff0000"/>
     <use xlink:href="#m7567341338" x="353.557769" y="221.890323" style="fill: #ff0000; stroke: #ff0000"/>
    </g>
   </g>
   <g id="patch_3">
    <path d="M 57.6 388.8 
L 57.6 43.2 
" style="fill: none; stroke: #000000; stroke-width: 0.8; stroke-linejoin: miter; stroke-linecap: square"/>
   </g>
   <g id="patch_4">
    <path d="M 417.24878 388.8 
L 417.24878 43.2 
" style="fill: none; stroke: #000000; stroke-width: 0.8; stroke-linejoin: miter; stroke-linecap: square"/>
   </g>
   <g id="patch_5">
    <path d="M 57.6 388.8 
L 417.24878 388.8 
" style="fill: none; stroke: #000000; stroke-width: 0.8; stroke-linejoin: miter; stroke-linecap: square"/>
   </g>
   <g id="patch_6">
    <path d="M 57.6 43.2 
L 417.24878 43.2 
" style="fill: none; stroke: #000000; stroke-width: 0.8; stroke-linejoin: miter; stroke-linecap: square"/>
   </g>
   <g id="LineCollection_2">
    <path d="M 237.42439 163.998767 
L 237.42439 132.603435 
" clip-path="url(#p68fddc895d)" style="fill: none; stroke: #ff0000; stroke-width: 1.5"/>
   </g>
   <g id="line2d_14">
    <defs>
     <path id="m406a7d2f4b" d="M 10 0 
L -10 -0 
" style="stroke: #ff0000; stroke-width: 2"/>
    </defs>
    <g clip-path="url(#p68fddc895d)">
     <use xlink:href="#m406a7d2f4b" x="237.42439" y="163.998767" style="fill: #ff0000; stroke: #ff0000; stroke-width: 2"/>
    </g>
   </g>
   <g id="line2d_15">
    <g clip-path="url(#p68fddc895d)">
     <use xlink:href="#m406a7d2f4b" x="237.42439" y="132.603435" style="fill: #ff0000; stroke: #ff0000; stroke-width: 2"/>
    </g>
   </g>
   <g id="text_15">
    <!-- Monte Carlo Integration -->
    <g transform="translate(166.182828 37.2)scale(0.12 -0.12)">
     <defs>
      <path id="DejaVuSans-4d" d="M 628 4666 
L 1569 4666 
L 2759 1491 
L 3956 4666 
L 4897 4666 
L 4897 0 
L 4281 0 
L 4281 4097 
L 3078 897 
L 2444 897 
L 1241 4097 
L 1241 0 
L 628 0 
L 628 4666 
z
" transform="scale(0.015625)"/>
      <path id="DejaVuSans-6f" d="M 1959 3097 
Q 1497 3097 1228 2736 
Q 959 2375 959 1747 
Q 959 1119 1226 758 
Q 1494 397 1959 397 
Q 2419 397 2687 759 
Q 2956 1122 2956 1747 
Q 2956 2369 2687 2733 
Q 2419 3097 1959 3097 
z
M 1959 3584 
Q 2709 3584 3137 3096 
Q 3566 2609 3566 1747 
Q 3566 888 3137 398 
Q 2709 -91 1959 -91 
Q 1206 -91 779 398 
Q 353 888 353 1747 
Q 353 2609 779 3096 
Q 1206 3584 1959 3584 
z
" transform="scale(0.015625)"/>
      <path id="DejaVuSans-6e" d="M 3513 2113 
L 3513 0 
L 2938 0 
L 2938 2094 
Q 2938 2591 2744 2837 
Q 2550 3084 2163 3084 
Q 1697 3084 1428 2787 
Q 1159 2491 1159 1978 
L 1159 0 
L 581 0 
L 581 3500 
L 1159 3500 
L 1159 2956 
Q 1366 3272 1645 3428 
Q 1925 3584 2291 3584 
Q 2894 3584 3203 3211 
Q 3513 2838 3513 2113 
z
" transform="scale(0.015625)"/>
      <path id="DejaVuSans-74" d="M 1172 4494 
L 1172 3500 
L 2356 3500 
L 2356 3053 
L 1172 3053 
L 1172 1153 
Q 1172 725 1289 603 
Q 1406 481 1766 481 
L 2356 481 
L 2356 0 
L 1766 0 
Q 1100 0 847 248 
Q 594 497 594 1153 
L 594 3053 
L 172 3053 
L 172 3500 
L 594 3500 
L 594 4494 
L 1172 4494 
z
" transform="scale(0.015625)"/>
      <path id="DejaVuSans-65" d="M 3597 1894 
L 3597 1613 
L 953 1613 
Q 991 1019 1311 708 
Q 1631 397 2203 397 
Q 2534 397 2845 478 
Q 3156 559 3463 722 
L 3463 178 
Q 3153 47 2828 -22 
Q 2503 -91 2169 -91 
Q 1331 -91 842 396 
Q 353 884 353 1716 
Q 353 2575 817 3079 
Q 1281 3584 2069 3584 
Q 2775 3584 3186 3129 
Q 3597 2675 3597 1894 
z
M 3022 2063 
Q 3016 2534 2758 2815 
Q 2500 3097 2075 3097 
Q 1594 3097 1305 2825 
Q 1016 2553 972 2059 
L 3022 2063 
z
" transform="scale(0.015625)"/>
      <path id="DejaVuSans-20" transform="scale(0.015625)"/>
      <path id="DejaVuSans-43" d="M 4122 4306 
L 4122 3641 
Q 3803 3938 3442 4084 
Q 3081 4231 2675 4231 
Q 1875 4231 1450 3742 
Q 1025 3253 1025 2328 
Q 1025 1406 1450 917 
Q 1875 428 2675 428 
Q 3081 428 3442 575 
Q 3803 722 4122 1019 
L 4122 359 
Q 3791 134 3420 21 
Q 3050 -91 2638 -91 
Q 1578 -91 968 557 
Q 359 1206 359 2328 
Q 359 3453 968 4101 
Q 1578 4750 2638 4750 
Q 3056 4750 3426 4639 
Q 3797 4528 4122 4306 
z
" transform="scale(0.015625)"/>
      <path id="DejaVuSans-61" d="M 2194 1759 
Q 1497 1759 1228 1600 
Q 959 1441 959 1056 
Q 959 750 1161 570 
Q 1363 391 1709 391 
Q 2188 391 2477 730 
Q 2766 1069 2766 1631 
L 2766 1759 
L 2194 1759 
z
M 3341 1997 
L 3341 0 
L 2766 0 
L 2766 531 
Q 2569 213 2275 61 
Q 1981 -91 1556 -91 
Q 1019 -91 701 211 
Q 384 513 384 1019 
Q 384 1609 779 1909 
Q 1175 2209 1959 2209 
L 2766 2209 
L 2766 2266 
Q 2766 2663 2505 2880 
Q 2244 3097 1772 3097 
Q 1472 3097 1187 3025 
Q 903 2953 641 2809 
L 641 3341 
Q 956 3463 1253 3523 
Q 1550 3584 1831 3584 
Q 2591 3584 2966 3190 
Q 3341 2797 3341 1997 
z
" transform="scale(0.015625)"/>
      <path id="DejaVuSans-72" d="M 2631 2963 
Q 2534 3019 2420 3045 
Q 2306 3072 2169 3072 
Q 1681 3072 1420 2755 
Q 1159 2438 1159 1844 
L 1159 0 
L 581 0 
L 581 3500 
L 1159 3500 
L 1159 2956 
Q 1341 3275 1631 3429 
Q 1922 3584 2338 3584 
Q 2397 3584 2469 3576 
Q 2541 3569 2628 3553 
L 2631 2963 
z
" transform="scale(0.015625)"/>
      <path id="DejaVuSans-6c" d="M 603 4863 
L 1178 4863 
L 1178 0 
L 603 0 
L 603 4863 
z
" transform="scale(0.015625)"/>
      <path id="DejaVuSans-49" d="M 628 4666 
L 1259 4666 
L 1259 0 
L 628 0 
L 628 4666 
z
" transform="scale(0.015625)"/>
      <path id="DejaVuSans-67" d="M 2906 1791 
Q 2906 2416 2648 2759 
Q 2391 3103 1925 3103 
Q 1463 3103 1205 2759 
Q 947 2416 947 1791 
Q 947 1169 1205 825 
Q 1463 481 1925 481 
Q 2391 481 2648 825 
Q 2906 1169 2906 1791 
z
M 3481 434 
Q 3481 -459 3084 -895 
Q 2688 -1331 1869 -1331 
Q 1566 -1331 1297 -1286 
Q 1028 -1241 775 -1147 
L 775 -588 
Q 1028 -725 1275 -790 
Q 1522 -856 1778 -856 
Q 2344 -856 2625 -561 
Q 2906 -266 2906 331 
L 2906 616 
Q 2728 306 2450 153 
Q 2172 0 1784 0 
Q 1141 0 747 490 
Q 353 981 353 1791 
Q 353 2603 747 3093 
Q 1141 3584 1784 3584 
Q 2172 3584 2450 3431 
Q 2728 3278 2906 2969 
L 2906 3500 
L 3481 3500 
L 3481 434 
z
" transform="scale(0.015625)"/>
      <path id="DejaVuSans-69" d="M 603 3500 
L 1178 3500 
L 1178 0 
L 603 0 
L 603 3500 
z
M 603 4863 
L 1178 4863 
L 1178 4134 
L 603 4134 
L 603 4863 
z
" transform="scale(0.015625)"/>
     </defs>
     <use xlink:href="#DejaVuSans-4d"/>
     <use xlink:href="#DejaVuSans-6f" x="86.279297"/>
     <use xlink:href="#DejaVuSans-6e" x="147.460938"/>
     <use xlink:href="#DejaVuSans-74" x="210.839844"/>
     <use xlink:href="#DejaVuSans-65" x="250.048828"/>
     <use xlink:href="#DejaVuSans-20" x="311.572266"/>
     <use xlink:href="#DejaVuSans-43" x="343.359375"/>
     <use xlink:href="#DejaVuSans-61" x="413.183594"/>
     <use xlink:href="#DejaVuSans-72" x="474.462891"/>
     <use xlink:href="#DejaVuSans-6c" x="515.576172"/>
     <use xlink:href="#DejaVuSans-6f" x="543.359375"/>
     <use xlink:href="#DejaVuSans-20" x="604.541016"/>
     <use xlink:href="#DejaVuSans-49" x="636.328125"/>
     <use xlink:href="#DejaVuSans-6e" x="665.820312"/>
     <use xlink:href="#DejaVuSans-74" x="729.199219"/>
     <use xlink:href="#DejaVuSans-65" x="768.408203"/>
     <use xlink:href="#DejaVuSans-67" x="829.931641"/>
     <use xlink:href="#DejaVuSans-72" x="893.408203"/>
     <use xlink:href="#DejaVuSans-61" x="934.521484"/>
     <use xlink:href="#DejaVuSans-74" x="995.800781"/>
     <use xlink:href="#DejaVuSans-69" x="1035.009766"/>
     <use xlink:href="#DejaVuSans-6f" x="1062.792969"/>
     <use xlink:href="#DejaVuSans-6e" x="1123.974609"/>
    </g>
   </g>
   <g id="line2d_16">
    <path d="M 237.42439 148.301101 
" clip-path="url(#p68fddc895d)" style="fill: none; stroke: #ff0000; stroke-width: 1.5; stroke-linecap: square"/>
   </g>
   <g id="legend_1">
    <g id="patch_7">
     <path d="M 64.6 383.8 
L 290.06875 383.8 
Q 292.06875 383.8 292.06875 381.8 
L 292.06875 312.889688 
Q 292.06875 310.889688 290.06875 310.889688 
L 64.6 310.889688 
Q 62.6 310.889688 62.6 312.889688 
L 62.6 381.8 
Q 62.6 383.8 64.6 383.8 
z
" style="fill: #ffffff; opacity: 0.8; stroke: #cccccc; stroke-linejoin: miter"/>
    </g>
    <g id="line2d_17">
     <path d="M 66.6 318.988125 
L 76.6 318.988125 
L 86.6 318.988125 
" style="fill: none; stroke: #000000; stroke-width: 1.5; stroke-linecap: square"/>
    </g>
    <g id="text_16">
     <!-- f(x) -->
     <g transform="translate(94.6 322.488125)scale(0.1 -0.1)">
      <defs>
       <path id="DejaVuSans-66" d="M 2375 4863 
L 2375 4384 
L 1825 4384 
Q 1516 4384 1395 4259 
Q 1275 4134 1275 3809 
L 1275 3500 
L 2222 3500 
L 2222 3053 
L 1275 3053 
L 1275 0 
L 697 0 
L 697 3053 
L 147 3053 
L 147 3500 
L 697 3500 
L 697 3744 
Q 697 4328 969 4595 
Q 1241 4863 1831 4863 
L 2375 4863 
z
" transform="scale(0.015625)"/>
       <path id="DejaVuSans-28" d="M 1984 4856 
Q 1566 4138 1362 3434 
Q 1159 2731 1159 2009 
Q 1159 1288 1364 580 
Q 1569 -128 1984 -844 
L 1484 -844 
Q 1016 -109 783 600 
Q 550 1309 550 2009 
Q 550 2706 781 3412 
Q 1013 4119 1484 4856 
L 1984 4856 
z
" transform="scale(0.015625)"/>
       <path id="DejaVuSans-29" d="M 513 4856 
L 1013 4856 
Q 1481 4119 1714 3412 
Q 1947 2706 1947 2009 
Q 1947 1309 1714 600 
Q 1481 -109 1013 -844 
L 513 -844 
Q 928 -128 1133 580 
Q 1338 1288 1338 2009 
Q 1338 2731 1133 3434 
Q 928 4138 513 4856 
z
" transform="scale(0.015625)"/>
      </defs>
      <use xlink:href="#DejaVuSans-66"/>
      <use xlink:href="#DejaVuSans-28" x="35.205078"/>
      <use xlink:href="#DejaVuSans-78" x="74.21875"/>
      <use xlink:href="#DejaVuSans-29" x="133.398438"/>
     </g>
    </g>
    <g id="line2d_18">
     <path d="M 66.6 333.66625 
L 86.6 333.66625 
" style="fill: none; stroke: #ff0000; stroke-width: 1.5"/>
    </g>
    <g id="text_17">
     <!-- MC estimate (N = 20) -->
     <g transform="translate(94.6 337.16625)scale(0.1 -0.1)">
      <defs>
       <path id="DejaVuSans-73" d="M 2834 3397 
L 2834 2853 
Q 2591 2978 2328 3040 
Q 2066 3103 1784 3103 
Q 1356 3103 1142 2972 
Q 928 2841 928 2578 
Q 928 2378 1081 2264 
Q 1234 2150 1697 2047 
L 1894 2003 
Q 2506 1872 2764 1633 
Q 3022 1394 3022 966 
Q 3022 478 2636 193 
Q 2250 -91 1575 -91 
Q 1294 -91 989 -36 
Q 684 19 347 128 
L 347 722 
Q 666 556 975 473 
Q 1284 391 1588 391 
Q 1994 391 2212 530 
Q 2431 669 2431 922 
Q 2431 1156 2273 1281 
Q 2116 1406 1581 1522 
L 1381 1569 
Q 847 1681 609 1914 
Q 372 2147 372 2553 
Q 372 3047 722 3315 
Q 1072 3584 1716 3584 
Q 2034 3584 2315 3537 
Q 2597 3491 2834 3397 
z
" transform="scale(0.015625)"/>
       <path id="DejaVuSans-6d" d="M 3328 2828 
Q 3544 3216 3844 3400 
Q 4144 3584 4550 3584 
Q 5097 3584 5394 3201 
Q 5691 2819 5691 2113 
L 5691 0 
L 5113 0 
L 5113 2094 
Q 5113 2597 4934 2840 
Q 4756 3084 4391 3084 
Q 3944 3084 3684 2787 
Q 3425 2491 3425 1978 
L 3425 0 
L 2847 0 
L 2847 2094 
Q 2847 2600 2669 2842 
Q 2491 3084 2119 3084 
Q 1678 3084 1418 2786 
Q 1159 2488 1159 1978 
L 1159 0 
L 581 0 
L 581 3500 
L 1159 3500 
L 1159 2956 
Q 1356 3278 1631 3431 
Q 1906 3584 2284 3584 
Q 2666 3584 2933 3390 
Q 3200 3197 3328 2828 
z
" transform="scale(0.015625)"/>
       <path id="DejaVuSans-4e" d="M 628 4666 
L 1478 4666 
L 3547 763 
L 3547 4666 
L 4159 4666 
L 4159 0 
L 3309 0 
L 1241 3903 
L 1241 0 
L 628 0 
L 628 4666 
z
" transform="scale(0.015625)"/>
       <path id="DejaVuSans-3d" d="M 678 2906 
L 4684 2906 
L 4684 2381 
L 678 2381 
L 678 2906 
z
M 678 1631 
L 4684 1631 
L 4684 1100 
L 678 1100 
L 678 1631 
z
" transform="scale(0.015625)"/>
      </defs>
      <use xlink:href="#DejaVuSans-4d"/>
      <use xlink:href="#DejaVuSans-43" x="86.279297"/>
      <use xlink:href="#DejaVuSans-20" x="156.103516"/>
      <use xlink:href="#DejaVuSans-65" x="187.890625"/>
      <use xlink:href="#DejaVuSans-73" x="249.414062"/>
      <use xlink:href="#DejaVuSans-74" x="301.513672"/>
      <use xlink:href="#DejaVuSans-69" x="340.722656"/>
      <use xlink:href="#DejaVuSans-6d" x="368.505859"/>
      <use xlink:href="#DejaVuSans-61" x="465.917969"/>
      <use xlink:href="#DejaVuSans-74" x="527.197266"/>
      <use xlink:href="#DejaVuSans-65" x="566.40625"/>
      <use xlink:href="#DejaVuSans-20" x="627.929688"/>
      <use xlink:href="#DejaVuSans-28" x="659.716797"/>
      <use xlink:href="#DejaVuSans-4e" x="698.730469"/>
      <use xlink:href="#DejaVuSans-20" x="773.535156"/>
      <use xlink:href="#DejaVuSans-3d" x="805.322266"/>
      <use xlink:href="#DejaVuSans-20" x="889.111328"/>
      <use xlink:href="#DejaVuSans-32" x="920.898438"/>
      <use xlink:href="#DejaVuSans-30" x="984.521484"/>
      <use xlink:href="#DejaVuSans-29" x="1048.144531"/>
     </g>
    </g>
    <g id="PathCollection_2">
     <g>
      <use xlink:href="#m7567341338" x="76.6" y="355.858125" style="fill: #ff0000; stroke: #ff0000"/>
     </g>
    </g>
    <g id="text_18">
     <!-- function evaluation at -->
     <g transform="translate(94.6 351.844375)scale(0.1 -0.1)">
      <defs>
       <path id="DejaVuSans-75" d="M 544 1381 
L 544 3500 
L 1119 3500 
L 1119 1403 
Q 1119 906 1312 657 
Q 1506 409 1894 409 
Q 2359 409 2629 706 
Q 2900 1003 2900 1516 
L 2900 3500 
L 3475 3500 
L 3475 0 
L 2900 0 
L 2900 538 
Q 2691 219 2414 64 
Q 2138 -91 1772 -91 
Q 1169 -91 856 284 
Q 544 659 544 1381 
z
M 1991 3584 
L 1991 3584 
z
" transform="scale(0.015625)"/>
       <path id="DejaVuSans-63" d="M 3122 3366 
L 3122 2828 
Q 2878 2963 2633 3030 
Q 2388 3097 2138 3097 
Q 1578 3097 1268 2742 
Q 959 2388 959 1747 
Q 959 1106 1268 751 
Q 1578 397 2138 397 
Q 2388 397 2633 464 
Q 2878 531 3122 666 
L 3122 134 
Q 2881 22 2623 -34 
Q 2366 -91 2075 -91 
Q 1284 -91 818 406 
Q 353 903 353 1747 
Q 353 2603 823 3093 
Q 1294 3584 2113 3584 
Q 2378 3584 2631 3529 
Q 2884 3475 3122 3366 
z
" transform="scale(0.015625)"/>
       <path id="DejaVuSans-76" d="M 191 3500 
L 800 3500 
L 1894 563 
L 2988 3500 
L 3597 3500 
L 2284 0 
L 1503 0 
L 191 3500 
z
" transform="scale(0.015625)"/>
      </defs>
      <use xlink:href="#DejaVuSans-66"/>
      <use xlink:href="#DejaVuSans-75" x="35.205078"/>
      <use xlink:href="#DejaVuSans-6e" x="98.583984"/>
      <use xlink:href="#DejaVuSans-63" x="161.962891"/>
      <use xlink:href="#DejaVuSans-74" x="216.943359"/>
      <use xlink:href="#DejaVuSans-69" x="256.152344"/>
      <use xlink:href="#DejaVuSans-6f" x="283.935547"/>
      <use xlink:href="#DejaVuSans-6e" x="345.117188"/>
      <use xlink:href="#DejaVuSans-20" x="408.496094"/>
      <use xlink:href="#DejaVuSans-65" x="440.283203"/>
      <use xlink:href="#DejaVuSans-76" x="501.806641"/>
      <use xlink:href="#DejaVuSans-61" x="560.986328"/>
      <use xlink:href="#DejaVuSans-6c" x="622.265625"/>
      <use xlink:href="#DejaVuSans-75" x="650.048828"/>
      <use xlink:href="#DejaVuSans-61" x="713.427734"/>
      <use xlink:href="#DejaVuSans-74" x="774.707031"/>
      <use xlink:href="#DejaVuSans-69" x="813.916016"/>
      <use xlink:href="#DejaVuSans-6f" x="841.699219"/>
      <use xlink:href="#DejaVuSans-6e" x="902.880859"/>
      <use xlink:href="#DejaVuSans-20" x="966.259766"/>
      <use xlink:href="#DejaVuSans-61" x="998.046875"/>
      <use xlink:href="#DejaVuSans-74" x="1059.326172"/>
     </g>
     <!-- sampled points (N = 20) -->
     <g transform="translate(94.6 363.042188)scale(0.1 -0.1)">
      <defs>
       <path id="DejaVuSans-70" d="M 1159 525 
L 1159 -1331 
L 581 -1331 
L 581 3500 
L 1159 3500 
L 1159 2969 
Q 1341 3281 1617 3432 
Q 1894 3584 2278 3584 
Q 2916 3584 3314 3078 
Q 3713 2572 3713 1747 
Q 3713 922 3314 415 
Q 2916 -91 2278 -91 
Q 1894 -91 1617 61 
Q 1341 213 1159 525 
z
M 3116 1747 
Q 3116 2381 2855 2742 
Q 2594 3103 2138 3103 
Q 1681 3103 1420 2742 
Q 1159 2381 1159 1747 
Q 1159 1113 1420 752 
Q 1681 391 2138 391 
Q 2594 391 2855 752 
Q 3116 1113 3116 1747 
z
" transform="scale(0.015625)"/>
       <path id="DejaVuSans-64" d="M 2906 2969 
L 2906 4863 
L 3481 4863 
L 3481 0 
L 2906 0 
L 2906 525 
Q 2725 213 2448 61 
Q 2172 -91 1784 -91 
Q 1150 -91 751 415 
Q 353 922 353 1747 
Q 353 2572 751 3078 
Q 1150 3584 1784 3584 
Q 2172 3584 2448 3432 
Q 2725 3281 2906 2969 
z
M 947 1747 
Q 947 1113 1208 752 
Q 1469 391 1925 391 
Q 2381 391 2643 752 
Q 2906 1113 2906 1747 
Q 2906 2381 2643 2742 
Q 2381 3103 1925 3103 
Q 1469 3103 1208 2742 
Q 947 2381 947 1747 
z
" transform="scale(0.015625)"/>
      </defs>
      <use xlink:href="#DejaVuSans-73"/>
      <use xlink:href="#DejaVuSans-61" x="52.099609"/>
      <use xlink:href="#DejaVuSans-6d" x="113.378906"/>
      <use xlink:href="#DejaVuSans-70" x="210.791016"/>
      <use xlink:href="#DejaVuSans-6c" x="274.267578"/>
      <use xlink:href="#DejaVuSans-65" x="302.050781"/>
      <use xlink:href="#DejaVuSans-64" x="363.574219"/>
      <use xlink:href="#DejaVuSans-20" x="427.050781"/>
      <use xlink:href="#DejaVuSans-70" x="458.837891"/>
      <use xlink:href="#DejaVuSans-6f" x="522.314453"/>
      <use xlink:href="#DejaVuSans-69" x="583.496094"/>
      <use xlink:href="#DejaVuSans-6e" x="611.279297"/>
      <use xlink:href="#DejaVuSans-74" x="674.658203"/>
      <use xlink:href="#DejaVuSans-73" x="713.867188"/>
      <use xlink:href="#DejaVuSans-20" x="765.966797"/>
      <use xlink:href="#DejaVuSans-28" x="797.753906"/>
      <use xlink:href="#DejaVuSans-4e" x="836.767578"/>
      <use xlink:href="#DejaVuSans-20" x="911.572266"/>
      <use xlink:href="#DejaVuSans-3d" x="943.359375"/>
      <use xlink:href="#DejaVuSans-20" x="1027.148438"/>
      <use xlink:href="#DejaVuSans-32" x="1058.935547"/>
      <use xlink:href="#DejaVuSans-30" x="1122.558594"/>
      <use xlink:href="#DejaVuSans-29" x="1186.181641"/>
     </g>
    </g>
    <g id="LineCollection_3">
     <path d="M 76.6 379.220313 
L 76.6 369.220313 
" style="fill: none; stroke: #ff0000; stroke-width: 1.5"/>
    </g>
    <g id="line2d_19">
     <g>
      <use xlink:href="#m406a7d2f4b" x="76.6" y="379.220313" style="fill: #ff0000; stroke: #ff0000; stroke-width: 2"/>
     </g>
    </g>
    <g id="line2d_20">
     <g>
      <use xlink:href="#m406a7d2f4b" x="76.6" y="369.220313" style="fill: #ff0000; stroke: #ff0000; stroke-width: 2"/>
     </g>
    </g>
    <g id="line2d_21">
     <path d="M 66.6 374.220313 
L 86.6 374.220313 
" style="fill: none; stroke: #ff0000; stroke-width: 1.5; stroke-linecap: square"/>
    </g>
    <g id="line2d_22"/>
    <g id="text_19">
     <!-- estimated standard deviation (N = 20) -->
     <g transform="translate(94.6 377.720313)scale(0.1 -0.1)">
      <use xlink:href="#DejaVuSans-65"/>
      <use xlink:href="#DejaVuSans-73" x="61.523438"/>
      <use xlink:href="#DejaVuSans-74" x="113.623047"/>
      <use xlink:href="#DejaVuSans-69" x="152.832031"/>
      <use xlink:href="#DejaVuSans-6d" x="180.615234"/>
      <use xlink:href="#DejaVuSans-61" x="278.027344"/>
      <use xlink:href="#DejaVuSans-74" x="339.306641"/>
      <use xlink:href="#DejaVuSans-65" x="378.515625"/>
      <use xlink:href="#DejaVuSans-64" x="440.039062"/>
      <use xlink:href="#DejaVuSans-20" x="503.515625"/>
      <use xlink:href="#DejaVuSans-73" x="535.302734"/>
      <use xlink:href="#DejaVuSans-74" x="587.402344"/>
      <use xlink:href="#DejaVuSans-61" x="626.611328"/>
      <use xlink:href="#DejaVuSans-6e" x="687.890625"/>
      <use xlink:href="#DejaVuSans-64" x="751.269531"/>
      <use xlink:href="#DejaVuSans-61" x="814.746094"/>
      <use xlink:href="#DejaVuSans-72" x="876.025391"/>
      <use xlink:href="#DejaVuSans-64" x="915.388672"/>
      <use xlink:href="#DejaVuSans-20" x="978.865234"/>
      <use xlink:href="#DejaVuSans-64" x="1010.652344"/>
      <use xlink:href="#DejaVuSans-65" x="1074.128906"/>
      <use xlink:href="#DejaVuSans-76" x="1135.652344"/>
      <use xlink:href="#DejaVuSans-69" x="1194.832031"/>
      <use xlink:href="#DejaVuSans-61" x="1222.615234"/>
      <use xlink:href="#DejaVuSans-74" x="1283.894531"/>
      <use xlink:href="#DejaVuSans-69" x="1323.103516"/>
      <use xlink:href="#DejaVuSans-6f" x="1350.886719"/>
      <use xlink:href="#DejaVuSans-6e" x="1412.068359"/>
      <use xlink:href="#DejaVuSans-20" x="1475.447266"/>
      <use xlink:href="#DejaVuSans-28" x="1507.234375"/>
      <use xlink:href="#DejaVuSans-4e" x="1546.248047"/>
      <use xlink:href="#DejaVuSans-20" x="1621.052734"/>
      <use xlink:href="#DejaVuSans-3d" x="1652.839844"/>
      <use xlink:href="#DejaVuSans-20" x="1736.628906"/>
      <use xlink:href="#DejaVuSans-32" x="1768.416016"/>
      <use xlink:href="#DejaVuSans-30" x="1832.039062"/>
      <use xlink:href="#DejaVuSans-29" x="1895.662109"/>
     </g>
    </g>
   </g>
  </g>
  <g id="axes_2">
   <g id="patch_8">
    <path d="M 428.487805 388.8 
L 518.4 388.8 
L 518.4 43.2 
L 428.487805 43.2 
z
" style="fill: #ffffff"/>
   </g>
   <g id="patch_9">
    <path d="M 428.487805 191.828673 
L 428.593857 191.828673 
L 428.593857 186.721325 
L 428.487805 186.721325 
z
" clip-path="url(#p94f511935d)" style="fill: #ff0000; opacity: 0.5"/>
   </g>
   <g id="patch_10">
    <path d="M 428.487805 186.721325 
L 428.726422 186.721325 
L 428.726422 181.613976 
L 428.487805 181.613976 
z
" clip-path="url(#p94f511935d)" style="fill: #ff0000; opacity: 0.5"/>
   </g>
   <g id="patch_11">
    <path d="M 428.487805 181.613976 
L 428.885501 181.613976 
L 428.885501 176.506628 
L 428.487805 176.506628 
z
" clip-path="url(#p94f511935d)" style="fill: #ff0000; opacity: 0.5"/>
   </g>
   <g id="patch_12">
    <path d="M 428.487805 176.506628 
L 430.396744 176.506628 
L 430.396744 171.39928 
L 428.487805 171.39928 
z
" clip-path="url(#p94f511935d)" style="fill: #ff0000; opacity: 0.5"/>
   </g>
   <g id="patch_13">
    <path d="M 428.487805 171.39928 
L 432.464762 171.39928 
L 432.464762 166.291932 
L 428.487805 166.291932 
z
" clip-path="url(#p94f511935d)" style="fill: #ff0000; opacity: 0.5"/>
   </g>
   <g id="patch_14">
    <path d="M 428.487805 166.291932 
L 436.309153 166.291932 
L 436.309153 161.184584 
L 428.487805 161.184584 
z
" clip-path="url(#p94f511935d)" style="fill: #ff0000; opacity: 0.5"/>
   </g>
   <g id="patch_15">
    <path d="M 428.487805 161.184584 
L 440.89591 161.184584 
L 440.89591 156.077235 
L 428.487805 156.077235 
z
" clip-path="url(#p94f511935d)" style="fill: #ff0000; opacity: 0.5"/>
   </g>
   <g id="patch_16">
    <path d="M 428.487805 156.077235 
L 449.85732 156.077235 
L 449.85732 150.969887 
L 428.487805 150.969887 
z
" clip-path="url(#p94f511935d)" style="fill: #ff0000; opacity: 0.5"/>
   </g>
   <g id="patch_17">
    <path d="M 428.487805 150.969887 
L 457.360512 150.969887 
L 457.360512 145.862539 
L 428.487805 145.862539 
z
" clip-path="url(#p94f511935d)" style="fill: #ff0000; opacity: 0.5"/>
   </g>
   <g id="patch_18">
    <path d="M 428.487805 145.862539 
L 464.015286 145.862539 
L 464.015286 140.755191 
L 428.487805 140.755191 
z
" clip-path="url(#p94f511935d)" style="fill: #ff0000; opacity: 0.5"/>
   </g>
   <g id="patch_19">
    <path d="M 428.487805 140.755191 
L 466.693104 140.755191 
L 466.693104 135.647843 
L 428.487805 135.647843 
z
" clip-path="url(#p94f511935d)" style="fill: #ff0000; opacity: 0.5"/>
   </g>
   <g id="patch_20">
    <path d="M 428.487805 135.647843 
L 463.909234 135.647843 
L 463.909234 130.540495 
L 428.487805 130.540495 
z
" clip-path="url(#p94f511935d)" style="fill: #ff0000; opacity: 0.5"/>
   </g>
   <g id="patch_21">
    <path d="M 428.487805 130.540495 
L 459.455042 130.540495 
L 459.455042 125.433146 
L 428.487805 125.433146 
z
" clip-path="url(#p94f511935d)" style="fill: #ff0000; opacity: 0.5"/>
   </g>
   <g id="patch_22">
    <path d="M 428.487805 125.433146 
L 449.539163 125.433146 
L 449.539163 120.325798 
L 428.487805 120.325798 
z
" clip-path="url(#p94f511935d)" style="fill: #ff0000; opacity: 0.5"/>
   </g>
   <g id="patch_23">
    <path d="M 428.487805 120.325798 
L 442.142023 120.325798 
L 442.142023 115.21845 
L 428.487805 115.21845 
z
" clip-path="url(#p94f511935d)" style="fill: #ff0000; opacity: 0.5"/>
   </g>
   <g id="patch_24">
    <path d="M 428.487805 115.21845 
L 436.176588 115.21845 
L 436.176588 110.111102 
L 428.487805 110.111102 
z
" clip-path="url(#p94f511935d)" style="fill: #ff0000; opacity: 0.5"/>
   </g>
   <g id="patch_25">
    <path d="M 428.487805 110.111102 
L 432.01404 110.111102 
L 432.01404 105.003754 
L 428.487805 105.003754 
z
" clip-path="url(#p94f511935d)" style="fill: #ff0000; opacity: 0.5"/>
   </g>
   <g id="patch_26">
    <path d="M 428.487805 105.003754 
L 429.946022 105.003754 
L 429.946022 99.896405 
L 428.487805 99.896405 
z
" clip-path="url(#p94f511935d)" style="fill: #ff0000; opacity: 0.5"/>
   </g>
   <g id="patch_27">
    <path d="M 428.487805 99.896405 
L 428.805961 99.896405 
L 428.805961 94.789057 
L 428.487805 94.789057 
z
" clip-path="url(#p94f511935d)" style="fill: #ff0000; opacity: 0.5"/>
   </g>
   <g id="patch_28">
    <path d="M 428.487805 94.789057 
L 428.699909 94.789057 
L 428.699909 89.681709 
L 428.487805 89.681709 
z
" clip-path="url(#p94f511935d)" style="fill: #ff0000; opacity: 0.5"/>
   </g>
   <g id="patch_29">
    <path d="M 428.487805 162.006259 
L 428.774195 162.006259 
L 428.774195 159.642153 
L 428.487805 159.642153 
z
" clip-path="url(#p94f511935d)" style="fill: #0000ff; opacity: 0.5"/>
   </g>
   <g id="patch_30">
    <path d="M 428.487805 159.642153 
L 429.060585 159.642153 
L 429.060585 157.278047 
L 428.487805 157.278047 
z
" clip-path="url(#p94f511935d)" style="fill: #0000ff; opacity: 0.5"/>
   </g>
   <g id="patch_31">
    <path d="M 428.487805 157.278047 
L 430.66437 157.278047 
L 430.66437 154.913941 
L 428.487805 154.913941 
z
" clip-path="url(#p94f511935d)" style="fill: #0000ff; opacity: 0.5"/>
   </g>
   <g id="patch_32">
    <path d="M 428.487805 154.913941 
L 432.898214 154.913941 
L 432.898214 152.549835 
L 428.487805 152.549835 
z
" clip-path="url(#p94f511935d)" style="fill: #0000ff; opacity: 0.5"/>
   </g>
   <g id="patch_33">
    <path d="M 428.487805 152.549835 
L 439.084241 152.549835 
L 439.084241 150.185729 
L 428.487805 150.185729 
z
" clip-path="url(#p94f511935d)" style="fill: #0000ff; opacity: 0.5"/>
   </g>
   <g id="patch_34">
    <path d="M 428.487805 150.185729 
L 450.711682 150.185729 
L 450.711682 147.821622 
L 428.487805 147.821622 
z
" clip-path="url(#p94f511935d)" style="fill: #0000ff; opacity: 0.5"/>
   </g>
   <g id="patch_35">
    <path d="M 428.487805 147.821622 
L 466.864088 147.821622 
L 466.864088 145.457516 
L 428.487805 145.457516 
z
" clip-path="url(#p94f511935d)" style="fill: #0000ff; opacity: 0.5"/>
   </g>
   <g id="patch_36">
    <path d="M 428.487805 145.457516 
L 484.047499 145.457516 
L 484.047499 143.09341 
L 428.487805 143.09341 
z
" clip-path="url(#p94f511935d)" style="fill: #0000ff; opacity: 0.5"/>
   </g>
   <g id="patch_37">
    <path d="M 428.487805 143.09341 
L 500.944519 143.09341 
L 500.944519 140.729304 
L 428.487805 140.729304 
z
" clip-path="url(#p94f511935d)" style="fill: #0000ff; opacity: 0.5"/>
   </g>
   <g id="patch_38">
    <path d="M 428.487805 140.729304 
L 509.135278 140.729304 
L 509.135278 138.365198 
L 428.487805 138.365198 
z
" clip-path="url(#p94f511935d)" style="fill: #0000ff; opacity: 0.5"/>
   </g>
   <g id="patch_39">
    <path d="M 428.487805 138.365198 
L 514.118467 138.365198 
L 514.118467 136.001091 
L 428.487805 136.001091 
z
" clip-path="url(#p94f511935d)" style="fill: #0000ff; opacity: 0.5"/>
   </g>
   <g id="patch_40">
    <path d="M 428.487805 136.001091 
L 501.345465 136.001091 
L 501.345465 133.636985 
L 428.487805 133.636985 
z
" clip-path="url(#p94f511935d)" style="fill: #0000ff; opacity: 0.5"/>
   </g>
   <g id="patch_41">
    <path d="M 428.487805 133.636985 
L 483.990221 133.636985 
L 483.990221 131.272879 
L 428.487805 131.272879 
z
" clip-path="url(#p94f511935d)" style="fill: #0000ff; opacity: 0.5"/>
   </g>
   <g id="patch_42">
    <path d="M 428.487805 131.272879 
L 464.630245 131.272879 
L 464.630245 128.908773 
L 428.487805 128.908773 
z
" clip-path="url(#p94f511935d)" style="fill: #0000ff; opacity: 0.5"/>
   </g>
   <g id="patch_43">
    <path d="M 428.487805 128.908773 
L 448.076893 128.908773 
L 448.076893 126.544667 
L 428.487805 126.544667 
z
" clip-path="url(#p94f511935d)" style="fill: #0000ff; opacity: 0.5"/>
   </g>
   <g id="patch_44">
    <path d="M 428.487805 126.544667 
L 438.740573 126.544667 
L 438.740573 124.18056 
L 428.487805 124.18056 
z
" clip-path="url(#p94f511935d)" style="fill: #0000ff; opacity: 0.5"/>
   </g>
   <g id="patch_45">
    <path d="M 428.487805 124.18056 
L 432.325433 124.18056 
L 432.325433 121.816454 
L 428.487805 121.816454 
z
" clip-path="url(#p94f511935d)" style="fill: #0000ff; opacity: 0.5"/>
   </g>
   <g id="patch_46">
    <path d="M 428.487805 121.816454 
L 429.51881 121.816454 
L 429.51881 119.452348 
L 428.487805 119.452348 
z
" clip-path="url(#p94f511935d)" style="fill: #0000ff; opacity: 0.5"/>
   </g>
   <g id="patch_47">
    <path d="M 428.487805 119.452348 
L 429.003307 119.452348 
L 429.003307 117.088242 
L 428.487805 117.088242 
z
" clip-path="url(#p94f511935d)" style="fill: #0000ff; opacity: 0.5"/>
   </g>
   <g id="patch_48">
    <path d="M 428.487805 117.088242 
L 428.602361 117.088242 
L 428.602361 114.724136 
L 428.487805 114.724136 
z
" clip-path="url(#p94f511935d)" style="fill: #0000ff; opacity: 0.5"/>
   </g>
   <g id="matplotlib.axis_3">
    <g id="xtick_7">
     <g id="line2d_23">
      <g>
       <use xlink:href="#m2921988d16" x="428.487805" y="388.8" style="stroke: #000000; stroke-width: 0.8"/>
      </g>
     </g>
     <g id="text_20">
      <!-- 0 -->
      <g transform="translate(425.306555 403.398438)scale(0.1 -0.1)">
       <use xlink:href="#DejaVuSans-30"/>
      </g>
     </g>
    </g>
    <g id="xtick_8">
     <g id="line2d_24">
      <g>
       <use xlink:href="#m2921988d16" x="514.687164" y="388.8" style="stroke: #000000; stroke-width: 0.8"/>
      </g>
     </g>
     <g id="text_21">
      <!-- 20 -->
      <g transform="translate(508.324664 403.398438)scale(0.1 -0.1)">
       <use xlink:href="#DejaVuSans-32"/>
       <use xlink:href="#DejaVuSans-30" x="63.623047"/>
      </g>
     </g>
    </g>
   </g>
   <g id="matplotlib.axis_4">
    <g id="ytick_7">
     <g id="line2d_25">
      <g>
       <use xlink:href="#ma877a1c9d8" x="428.487805" y="373.090909" style="stroke: #000000; stroke-width: 0.8"/>
      </g>
     </g>
    </g>
    <g id="ytick_8">
     <g id="line2d_26">
      <g>
       <use xlink:href="#ma877a1c9d8" x="428.487805" y="310.254545" style="stroke: #000000; stroke-width: 0.8"/>
      </g>
     </g>
    </g>
    <g id="ytick_9">
     <g id="line2d_27">
      <g>
       <use xlink:href="#ma877a1c9d8" x="428.487805" y="247.418182" style="stroke: #000000; stroke-width: 0.8"/>
      </g>
     </g>
    </g>
    <g id="ytick_10">
     <g id="line2d_28">
      <g>
       <use xlink:href="#ma877a1c9d8" x="428.487805" y="184.581818" style="stroke: #000000; stroke-width: 0.8"/>
      </g>
     </g>
    </g>
    <g id="ytick_11">
     <g id="line2d_29">
      <g>
       <use xlink:href="#ma877a1c9d8" x="428.487805" y="121.745455" style="stroke: #000000; stroke-width: 0.8"/>
      </g>
     </g>
    </g>
    <g id="ytick_12">
     <g id="line2d_30">
      <g>
       <use xlink:href="#ma877a1c9d8" x="428.487805" y="58.909091" style="stroke: #000000; stroke-width: 0.8"/>
      </g>
     </g>
    </g>
   </g>
   <g id="patch_49">
    <path d="M 428.487805 388.8 
L 428.487805 43.2 
" style="fill: none; stroke: #000000; stroke-width: 0.8; stroke-linejoin: miter; stroke-linecap: square"/>
   </g>
   <g id="patch_50">
    <path d="M 518.4 388.8 
L 518.4 43.2 
" style="fill: none; stroke: #000000; stroke-width: 0.8; stroke-linejoin: miter; stroke-linecap: square"/>
   </g>
   <g id="patch_51">
    <path d="M 428.487805 388.8 
L 518.4 388.8 
" style="fill: none; stroke: #000000; stroke-width: 0.8; stroke-linejoin: miter; stroke-linecap: square"/>
   </g>
   <g id="patch_52">
    <path d="M 428.487805 43.2 
L 518.4 43.2 
" style="fill: none; stroke: #000000; stroke-width: 0.8; stroke-linejoin: miter; stroke-linecap: square"/>
   </g>
   <g id="text_22">
    <!-- Histogram over many MC estimates -->
    <g transform="translate(526.895625 108.0975)rotate(-270)scale(0.12 -0.12)">
     <defs>
      <path id="DejaVuSans-48" d="M 628 4666 
L 1259 4666 
L 1259 2753 
L 3553 2753 
L 3553 4666 
L 4184 4666 
L 4184 0 
L 3553 0 
L 3553 2222 
L 1259 2222 
L 1259 0 
L 628 0 
L 628 4666 
z
" transform="scale(0.015625)"/>
     </defs>
     <use xlink:href="#DejaVuSans-48"/>
     <use xlink:href="#DejaVuSans-69" x="75.195312"/>
     <use xlink:href="#DejaVuSans-73" x="102.978516"/>
     <use xlink:href="#DejaVuSans-74" x="155.078125"/>
     <use xlink:href="#DejaVuSans-6f" x="194.287109"/>
     <use xlink:href="#DejaVuSans-67" x="255.46875"/>
     <use xlink:href="#DejaVuSans-72" x="318.945312"/>
     <use xlink:href="#DejaVuSans-61" x="360.058594"/>
     <use xlink:href="#DejaVuSans-6d" x="421.337891"/>
     <use xlink:href="#DejaVuSans-20" x="518.75"/>
     <use xlink:href="#DejaVuSans-6f" x="550.537109"/>
     <use xlink:href="#DejaVuSans-76" x="611.71875"/>
     <use xlink:href="#DejaVuSans-65" x="670.898438"/>
     <use xlink:href="#DejaVuSans-72" x="732.421875"/>
     <use xlink:href="#DejaVuSans-20" x="773.535156"/>
     <use xlink:href="#DejaVuSans-6d" x="805.322266"/>
     <use xlink:href="#DejaVuSans-61" x="902.734375"/>
     <use xlink:href="#DejaVuSans-6e" x="964.013672"/>
     <use xlink:href="#DejaVuSans-79" x="1027.392578"/>
     <use xlink:href="#DejaVuSans-20" x="1086.572266"/>
     <use xlink:href="#DejaVuSans-4d" x="1118.359375"/>
     <use xlink:href="#DejaVuSans-43" x="1204.638672"/>
     <use xlink:href="#DejaVuSans-20" x="1274.462891"/>
     <use xlink:href="#DejaVuSans-65" x="1306.25"/>
     <use xlink:href="#DejaVuSans-73" x="1367.773438"/>
     <use xlink:href="#DejaVuSans-74" x="1419.873047"/>
     <use xlink:href="#DejaVuSans-69" x="1459.082031"/>
     <use xlink:href="#DejaVuSans-6d" x="1486.865234"/>
     <use xlink:href="#DejaVuSans-61" x="1584.277344"/>
     <use xlink:href="#DejaVuSans-74" x="1645.556641"/>
     <use xlink:href="#DejaVuSans-65" x="1684.765625"/>
     <use xlink:href="#DejaVuSans-73" x="1746.289062"/>
    </g>
   </g>
   <g id="legend_2">
    <g id="patch_53">
     <path d="M 438.095313 80.55625 
L 511.4 80.55625 
Q 513.4 80.55625 513.4 78.55625 
L 513.4 50.2 
Q 513.4 48.2 511.4 48.2 
L 438.095313 48.2 
Q 436.095313 48.2 436.095313 50.2 
L 436.095313 78.55625 
Q 436.095313 80.55625 438.095313 80.55625 
z
" style="fill: #ffffff; opacity: 0.8; stroke: #cccccc; stroke-linejoin: miter"/>
    </g>
    <g id="patch_54">
     <path d="M 440.095313 59.798437 
L 460.095313 59.798437 
L 460.095313 52.798437 
L 440.095313 52.798437 
z
" style="fill: #ff0000; opacity: 0.5"/>
    </g>
    <g id="text_23">
     <!-- N = 20 -->
     <g transform="translate(468.095313 59.798437)scale(0.1 -0.1)">
      <use xlink:href="#DejaVuSans-4e"/>
      <use xlink:href="#DejaVuSans-20" x="74.804688"/>
      <use xlink:href="#DejaVuSans-3d" x="106.591797"/>
      <use xlink:href="#DejaVuSans-20" x="190.380859"/>
      <use xlink:href="#DejaVuSans-32" x="222.167969"/>
      <use xlink:href="#DejaVuSans-30" x="285.791016"/>
     </g>
    </g>
    <g id="patch_55">
     <path d="M 440.095313 74.476562 
L 460.095313 74.476562 
L 460.095313 67.476562 
L 440.095313 67.476562 
z
" style="fill: #0000ff; opacity: 0.5"/>
    </g>
    <g id="text_24">
     <!-- N = 100 -->
     <g transform="translate(468.095313 74.476562)scale(0.1 -0.1)">
      <use xlink:href="#DejaVuSans-4e"/>
      <use xlink:href="#DejaVuSans-20" x="74.804688"/>
      <use xlink:href="#DejaVuSans-3d" x="106.591797"/>
      <use xlink:href="#DejaVuSans-20" x="190.380859"/>
      <use xlink:href="#DejaVuSans-31" x="222.167969"/>
      <use xlink:href="#DejaVuSans-30" x="285.791016"/>
      <use xlink:href="#DejaVuSans-30" x="349.414062"/>
     </g>
    </g>
   </g>
  </g>
 </g>
 <defs>
  <clipPath id="p68fddc895d">
   <rect x="57.6" y="43.2" width="359.64878" height="345.6"/>
  </clipPath>
  <clipPath id="p94f511935d">
   <rect x="428.487805" y="43.2" width="89.912195" height="345.6"/>
  </clipPath>
 </defs>
</svg>
