<svg width="282" height="145" xmlns="http://www.w3.org/2000/svg" xmlns:xlink="http://www.w3.org/1999/xlink" xml:space="preserve" overflow="hidden"><g transform="translate(-449 -383)"><path d="M25.0967 46.2937C28.4576 46.2351 34.894 46.8553 37.3327 41.7227 38.8475 38.535 38.0282 35.8942 39.3739 32.1786 40.0364 30.3494 41.5852 28.1865 43.695 28.1471 45.8896 28.1062 47.1786 30.0654 47.989 31.9546 49.3491 35.1252 49.0615 39.0391 50.7 42.1013 53.1371 46.6555 59.0445 45.92 63.5713 46.1176" stroke="#5329E9" stroke-width="0.719562" stroke-linecap="round" stroke-linejoin="round" stroke-miterlimit="1.5" fill="none" fill-rule="evenodd" transform="matrix(1 0 0 7.72568 525.358 168.283)"/><path d="M25.0967 46.2937C28.4576 46.2351 34.894 46.8553 37.3327 41.7227 38.8475 38.535 38.0282 35.8942 39.3739 32.1786 40.0364 30.3494 41.5852 28.1865 43.695 28.1471 45.8896 28.1062 47.1786 30.0654 47.989 31.9546 49.3491 35.1252 49.0615 39.0391 50.7 42.1013 53.1371 46.6555 59.0445 45.92 63.5713 46.1176" stroke="#5329E9" stroke-width="0.719562" stroke-linecap="round" stroke-linejoin="round" stroke-miterlimit="1.5" fill="none" fill-rule="evenodd" transform="matrix(1 0 0 7.72568 572.451 167.531)"/><path d="M28.9749 158.714 287.869 158.714" stroke="#000000" stroke-width="2.826" stroke-linecap="round" stroke-linejoin="round" stroke-miterlimit="1.5" fill="none" fill-rule="evenodd" transform="matrix(1 0 0 1.02217 435.676 363.138)"/><path d="M51.6407 128C62.0243 127.112 75.5109 129.882 82.7578 121.089 88.5709 114.036 91.9617 94.4754 103.213 94.1084 112.931 93.7908 115.517 109.823 120.639 115.763 128.999 125.456 139.598 128.985 151.612 127.992" stroke="#E95929" stroke-width="1.61051" stroke-linecap="round" stroke-linejoin="round" stroke-miterlimit="1.5" fill="none" fill-rule="evenodd" transform="matrix(2.29827 0 0 1 331.742 395.868)"/><path d="M51.6407 128C62.0243 127.112 75.5109 129.882 82.7578 121.089 88.5709 114.036 91.9617 94.4754 103.213 94.1084 112.931 93.7908 115.517 109.823 120.639 115.763 128.999 125.456 139.598 128.985 151.612 127.992" stroke="#E95929" stroke-width="1.61051" stroke-linecap="round" stroke-linejoin="round" stroke-miterlimit="1.5" fill="none" fill-rule="evenodd" transform="matrix(2.29827 0 0 1 381.093 395.868)"/><path d="M8.92446-4.46223C8.92446-4.97904 8.83622-5.47064 8.67236-5.93704 8.50849-6.39082 8.26899-6.80679 7.95386-7.15974 7.63873-7.51268 7.24797-7.78999 6.79419-8.00428 6.3404-8.21857 5.82359-8.31941 5.25636-8.31941 4.68912-8.31941 4.17231-8.21857 3.71853-8.00428 3.26474-7.78999 2.88658-7.51268 2.57145-7.15974 2.25633-6.80679 2.00422-6.39082 1.84035-5.93704 1.67649-5.47064 1.58825-4.97904 1.58825-4.46223 1.58825-3.94542 1.67649-3.46642 1.84035-3.00003 2.00422-2.53364 2.25633-2.11767 2.57145-1.76472 2.88658-1.41178 3.26474-1.13447 3.71853-0.920177 4.17231-0.70589 4.68912-0.605048 5.25636-0.605048 5.82359-0.605048 6.3404-0.70589 6.79419-0.920177 7.24797-1.13447 7.63873-1.41178 7.95386-1.76472 8.26899-2.11767 8.50849-2.53364 8.67236-3.00003 8.83622-3.46642 8.92446-3.94542 8.92446-4.46223ZM9.90766-4.46223C9.90766-3.78155 9.79422-3.15129 9.55472-2.58406 9.31522-2.01683 8.98749-1.52523 8.58412-1.10925 8.16815-0.693284 7.66394-0.36555 7.10932-0.126052 6.54208 0.113447 5.92443 0.226893 5.25636 0.226893 4.58828 0.226893 3.98323 0.113447 3.416-0.126052 2.84877-0.36555 2.35717-0.693284 1.9412-1.10925 1.52523-1.52523 1.19749-2.01683 0.957993-2.58406 0.718495-3.15129 0.605048-3.78155 0.605048-4.46223 0.605048-5.14291 0.718495-5.77317 0.957993-6.3404 1.19749-6.90763 1.52523-7.41184 1.9412-7.82781 2.35717-8.24378 2.84877-8.55891 3.416-8.79841 3.98323-9.03791 4.58828-9.15135 5.25636-9.15135 5.92443-9.15135 6.54208-9.03791 7.10932-8.79841 7.66394-8.55891 8.16815-8.24378 8.58412-7.82781 8.98749-7.41184 9.31522-6.90763 9.55472-6.3404 9.79422-5.77317 9.90766-5.14291 9.90766-4.46223Z" transform="matrix(1 0 0 1.00329 455.992 402.48)"/><path d="M1.7017-5.89922C1.7143-5.73535 1.72691-5.58409 1.73951-5.43283 1.73951-5.26896 1.73951-5.1177 1.73951-4.95383L1.76472-4.95383C1.85296-5.1177 1.97901-5.25636 2.11767-5.39501 2.25633-5.53367 2.42019-5.64712 2.59667-5.74796 2.77314-5.83619 2.96221-5.91183 3.1639-5.97485 3.35298-6.02527 3.55466-6.05048 3.74374-6.05048 4.50005-6.05048 5.05467-5.8488 5.42022-5.45804 5.78577-5.05467 5.96225-4.48744 5.96225-3.74374L5.96225 0 5.1303 0 5.1303-3.26474C5.1303-3.92021 5.01686-4.42442 4.78996-4.77736 4.56307-5.1177 4.1471-5.29417 3.52945-5.29417 3.49163-5.29417 3.36558-5.28157 3.1765-5.24375 2.98743-5.20594 2.78574-5.1177 2.57145-4.96644 2.35717-4.81518 2.15548-4.58828 1.99162-4.28576 1.82775-3.98323 1.73951-3.56726 1.73951-3.02524L1.73951 0 0.907572 0 0.907572-4.60089C0.907572-4.76475 0.907572-4.96644 0.894967-5.20594 0.882362-5.44543 0.857152-5.68493 0.844546-5.89922L1.7017-5.89922Z" transform="matrix(1 0 0 1.00329 466.505 402.48)"/><path d="M1.09665-9.52951 1.92859-9.52951 1.92859 2.22393e-07 1.09665 2.22393e-07Z" transform="matrix(1 0 0 1.00329 473.513 402.48)"/><path d="M3.10087-1.02102 4.90341-5.89922 5.91183-5.89922 2.96221 1.53783C2.78574 1.99162 2.55885 2.35717 2.29414 2.62188 2.01683 2.88658 1.62607 3.02524 1.10925 3.02524 0.983203 3.02524 0.857152 3.02524 0.7311 3.01264 0.592443 3.00003 0.466391 2.97482 0.34034 2.937L0.428576 2.13027C0.605048 2.21851 0.819336 2.26893 1.05883 2.26893 1.34875 2.26893 1.58825 2.18069 1.75212 1.99162 1.91599 1.80254 2.06725 1.55044 2.1933 1.2101L2.62188 0.075631 0.201683-5.89922 1.24791-5.89922 3.10087-1.02102Z" transform="matrix(1 0 0 1.00329 476.539 402.48)"/><path d="M3.95802-5.14291 2.25633-5.14291 2.25633-1.66388C2.25633-1.44959 2.28154-1.26052 2.31935-1.13447 2.35717-0.995808 2.42019-0.882362 2.49582-0.806731 2.57145-0.7311 2.65969-0.680679 2.77314-0.655469 2.87398-0.617653 2.98743-0.605048 3.11348-0.605048 3.25213-0.605048 3.4034-0.630259 3.55466-0.668074 3.70592-0.70589 3.84458-0.768915 3.97063-0.831941L4.00844-0.0630258C3.69332 0.075631 3.32776 0.151262 2.88658 0.151262 2.72272 0.151262 2.55885 0.126052 2.39498 0.0882362 2.21851 0.0504207 2.05464-0.0378155 1.91599-0.151262 1.77733-0.264709 1.65128-0.428576 1.56304-0.630259 1.4748-0.831941 1.42438-1.09665 1.42438-1.42438L1.42438-5.14291 0.176472-5.14291 0.176472-5.89922 1.42438-5.89922 1.42438-7.5631 2.25633-7.5631 2.25633-5.89922 3.95802-5.89922 3.95802-5.14291Z" transform="matrix(1 0 0 1.00329 486.119 402.48)"/><path d="M0.907572-9.52951 1.73951-9.52951 1.73951-4.95383 1.76472-4.95383C1.85296-5.1177 1.97901-5.25636 2.11767-5.39501 2.25633-5.53367 2.42019-5.64712 2.59667-5.74796 2.77314-5.83619 2.96221-5.91183 3.1639-5.97485 3.35298-6.02527 3.55466-6.05048 3.74374-6.05048 4.50005-6.05048 5.05467-5.8488 5.42022-5.45804 5.78577-5.05467 5.96225-4.48744 5.96225-3.74374L5.96225 0 5.1303 0 5.1303-3.26474C5.1303-3.92021 5.01686-4.42442 4.78996-4.77736 4.56307-5.1177 4.1471-5.29417 3.52945-5.29417 3.49163-5.29417 3.36558-5.28157 3.1765-5.24375 2.98743-5.20594 2.78574-5.1177 2.57145-4.96644 2.35717-4.81518 2.15548-4.58828 1.99162-4.28576 1.82775-3.98323 1.73951-3.56726 1.73951-3.02524L1.73951 0 0.907572 0 0.907572-9.52951Z" transform="matrix(1 0 0 1.00329 490.303 402.48)"/><path d="M5.49585-3.4034C5.49585-3.97063 5.33199-4.42442 4.99165-4.77736 4.65131-5.1177 4.18492-5.29417 3.57987-5.29417 3.31516-5.29417 3.05045-5.24375 2.79835-5.14291 2.54624-5.02946 2.33196-4.89081 2.14288-4.71433 1.9538-4.53786 1.78993-4.33618 1.68909-4.10929 1.57565-3.88239 1.51262-3.64289 1.51262-3.4034L5.49585-3.4034ZM1.48741-2.72272C1.51262-2.4328 1.58825-2.15548 1.7017-1.89078 1.81514-1.62607 1.97901-1.41178 2.16809-1.2227 2.35717-1.03362 2.58406-0.882362 2.83616-0.768915 3.08827-0.655469 3.36558-0.605048 3.6555-0.605048 4.09668-0.605048 4.48744-0.70589 4.81518-0.920177 5.1303-1.12186 5.38241-1.36136 5.54627-1.62607L6.18914-1.09665C5.83619-0.655469 5.44543-0.327734 5.02946-0.138657 4.60089 0.0504207 4.1471 0.151262 3.6555 0.151262 3.21432 0.151262 2.81095 0.075631 2.4454-0.0882362 2.06725-0.239498 1.73951-0.453786 1.4748-0.7311 1.2101-1.00841 0.995808-1.33615 0.844546-1.7143 0.680679-2.09246 0.605048-2.50843 0.605048-2.94961 0.605048-3.39079 0.680679-3.80676 0.831941-4.18492 0.983203-4.56307 1.19749-4.89081 1.4622-5.16812 1.72691-5.44543 2.04204-5.65972 2.40759-5.82359 2.77314-5.97485 3.1639-6.05048 3.57987-6.05048 4.02105-6.05048 4.42442-5.97485 4.77736-5.81098 5.1303-5.64712 5.43283-5.44543 5.67233-5.18073 5.89922-4.91602 6.0883-4.60089 6.21435-4.24794 6.3404-3.88239 6.40343-3.50424 6.40343-3.10087L6.40343-2.72272 1.48741-2.72272Z" transform="matrix(1 0 0 1.00329 497.312 402.48)"/><path d="M3.50424 0 2.57145 0 0.176472-5.89922 1.17228-5.89922 3.05045-0.932783 3.07566-0.932783 4.95383-5.89922 5.89922-5.89922 3.50424 0Z" transform="matrix(1 0 0 1.00329 507.825 402.48)"/><path d="M4.26055-2.937C4.04626-2.937 3.79416-2.9244 3.47903-2.91179 3.1639-2.88658 2.86137-2.83616 2.57145-2.76053 2.28154-2.6723 2.02943-2.54624 1.82775-2.38238 1.61346-2.21851 1.51262-1.97901 1.51262-1.68909 1.51262-1.50002 1.55044-1.33615 1.63867-1.19749 1.7143-1.05883 1.81514-0.945388 1.9538-0.857152 2.09246-0.768915 2.24372-0.70589 2.40759-0.668074 2.57145-0.617653 2.73532-0.605048 2.89919-0.605048 3.20171-0.605048 3.46642-0.655469 3.69332-0.75631 3.9076-0.857152 4.09668-0.995808 4.24794-1.17228 4.3992-1.33615 4.51265-1.53783 4.58828-1.77733 4.65131-2.00422 4.68912-2.24372 4.68912-2.50843L4.68912-2.937 4.26055-2.937ZM4.68912-3.61768 4.68912-3.76895C4.68912-4.78996 4.18492-5.29417 3.1765-5.29417 2.48322-5.29417 1.89078-5.06728 1.37396-4.60089L0.869757-5.19333C1.42438-5.76056 2.25633-6.05048 3.36558-6.05048 3.6555-6.05048 3.93281-6.01267 4.19752-5.92443 4.46223-5.83619 4.68912-5.71014 4.8782-5.54627 5.06728-5.3698 5.23115-5.15551 5.34459-4.89081 5.45804-4.6261 5.52106-4.32357 5.52106-3.95802L5.52106-1.32354C5.52106-1.09665 5.53367-0.857152 5.55888-0.617653 5.57149-0.36555 5.5967-0.163867 5.62191 0L4.81518 0C4.78996-0.138657 4.77736-0.302524 4.76475-0.466391 4.75215-0.630259 4.73954-0.794126 4.73954-0.957993L4.71433-0.957993C4.47484-0.567233 4.18492-0.277314 3.85718-0.113447 3.51684 0.0630258 3.11348 0.151262 2.63448 0.151262 2.36977 0.151262 2.11767 0.113447 1.87817 0.0504207 1.63867-0.0252103 1.42438-0.138657 1.23531-0.289919 1.04623-0.428576 0.882362-0.617653 0.781521-0.831941 0.668074-1.04623 0.605048-1.28573 0.605048-1.57565 0.605048-2.05464 0.7311-2.4328 0.983203-2.71011 1.2227-2.97482 1.53783-3.1765 1.91599-3.31516 2.28154-3.45382 2.6849-3.52945 3.11348-3.56726 3.52945-3.60508 3.92021-3.61768 4.27315-3.61768L4.68912-3.61768Z" transform="matrix(1 0 0 1.00329 513.901 402.48)"/><path d="M0.995808-4.05886C0.995808-4.32357 0.995808-4.58828 0.983203-4.85299 0.970598-5.1177 0.957993-5.47064 0.945388-5.89922L1.76472-5.89922 1.76472-4.80257 1.78993-4.80257C1.85296-4.96644 1.92859-5.1177 2.04204-5.26896 2.15548-5.40762 2.28154-5.54627 2.4454-5.65972 2.59667-5.77317 2.77314-5.87401 2.98743-5.94964 3.18911-6.01267 3.416-6.05048 3.68071-6.05048 3.92021-6.05048 4.12189-6.02527 4.29836-5.97485L4.1345-5.15551C4.02105-5.19333 3.86979-5.21854 3.6555-5.21854 3.34037-5.21854 3.06306-5.15551 2.83616-5.04207 2.60927-4.91602 2.42019-4.76475 2.26893-4.57568 2.11767-4.37399 2.00422-4.17231 1.9412-3.95802 1.86557-3.74374 1.82775-3.52945 1.82775-3.32776L1.82775 0 0.995808 0 0.995808-4.05886Z" transform="matrix(1 0 0 1.00329 520.443 402.48)"/><path d="M2.11767-8.16815C2.11767-7.99168 2.05464-7.85302 1.92859-7.73957 1.80254-7.61352 1.66388-7.5631 1.51262-7.5631 1.36136-7.5631 1.2227-7.61352 1.09665-7.73957 0.970598-7.85302 0.907572-7.99168 0.907572-8.16815 0.907572-8.34462 0.970598-8.49588 1.09665-8.60933 1.2227-8.72278 1.36136-8.7732 1.51262-8.7732 1.66388-8.7732 1.80254-8.72278 1.92859-8.60933 2.05464-8.49588 2.11767-8.34462 2.11767-8.16815ZM1.92859 0 1.09665 0 1.09665-5.89922 1.92859-5.89922 1.92859 0Z" transform="matrix(1 0 0 1.00329 524.627 402.48)"/><path d="M4.26055-2.937C4.04626-2.937 3.79416-2.9244 3.47903-2.91179 3.1639-2.88658 2.86137-2.83616 2.57145-2.76053 2.28154-2.6723 2.02943-2.54624 1.82775-2.38238 1.61346-2.21851 1.51262-1.97901 1.51262-1.68909 1.51262-1.50002 1.55044-1.33615 1.63867-1.19749 1.7143-1.05883 1.81514-0.945388 1.9538-0.857152 2.09246-0.768915 2.24372-0.70589 2.40759-0.668074 2.57145-0.617653 2.73532-0.605048 2.89919-0.605048 3.20171-0.605048 3.46642-0.655469 3.69332-0.75631 3.9076-0.857152 4.09668-0.995808 4.24794-1.17228 4.3992-1.33615 4.51265-1.53783 4.58828-1.77733 4.65131-2.00422 4.68912-2.24372 4.68912-2.50843L4.68912-2.937 4.26055-2.937ZM4.68912-3.61768 4.68912-3.76895C4.68912-4.78996 4.18492-5.29417 3.1765-5.29417 2.48322-5.29417 1.89078-5.06728 1.37396-4.60089L0.869757-5.19333C1.42438-5.76056 2.25633-6.05048 3.36558-6.05048 3.6555-6.05048 3.93281-6.01267 4.19752-5.92443 4.46223-5.83619 4.68912-5.71014 4.8782-5.54627 5.06728-5.3698 5.23115-5.15551 5.34459-4.89081 5.45804-4.6261 5.52106-4.32357 5.52106-3.95802L5.52106-1.32354C5.52106-1.09665 5.53367-0.857152 5.55888-0.617653 5.57149-0.36555 5.5967-0.163867 5.62191 0L4.81518 0C4.78996-0.138657 4.77736-0.302524 4.76475-0.466391 4.75215-0.630259 4.73954-0.794126 4.73954-0.957993L4.71433-0.957993C4.47484-0.567233 4.18492-0.277314 3.85718-0.113447 3.51684 0.0630258 3.11348 0.151262 2.63448 0.151262 2.36977 0.151262 2.11767 0.113447 1.87817 0.0504207 1.63867-0.0252103 1.42438-0.138657 1.23531-0.289919 1.04623-0.428576 0.882362-0.617653 0.781521-0.831941 0.668074-1.04623 0.605048-1.28573 0.605048-1.57565 0.605048-2.05464 0.7311-2.4328 0.983203-2.71011 1.2227-2.97482 1.53783-3.1765 1.91599-3.31516 2.28154-3.45382 2.6849-3.52945 3.11348-3.56726 3.52945-3.60508 3.92021-3.61768 4.27315-3.61768L4.68912-3.61768Z" transform="matrix(1 0 0 1.00329 527.653 402.48)"/><path d="M1.7017-5.89922C1.7143-5.73535 1.72691-5.58409 1.73951-5.43283 1.73951-5.26896 1.73951-5.1177 1.73951-4.95383L1.76472-4.95383C1.85296-5.1177 1.97901-5.25636 2.11767-5.39501 2.25633-5.53367 2.42019-5.64712 2.59667-5.74796 2.77314-5.83619 2.96221-5.91183 3.1639-5.97485 3.35298-6.02527 3.55466-6.05048 3.74374-6.05048 4.50005-6.05048 5.05467-5.8488 5.42022-5.45804 5.78577-5.05467 5.96225-4.48744 5.96225-3.74374L5.96225 0 5.1303 0 5.1303-3.26474C5.1303-3.92021 5.01686-4.42442 4.78996-4.77736 4.56307-5.1177 4.1471-5.29417 3.52945-5.29417 3.49163-5.29417 3.36558-5.28157 3.1765-5.24375 2.98743-5.20594 2.78574-5.1177 2.57145-4.96644 2.35717-4.81518 2.15548-4.58828 1.99162-4.28576 1.82775-3.98323 1.73951-3.56726 1.73951-3.02524L1.73951 0 0.907572 0 0.907572-4.60089C0.907572-4.76475 0.907572-4.96644 0.894967-5.20594 0.882362-5.44543 0.857152-5.68493 0.844546-5.89922L1.7017-5.89922Z" transform="matrix(1 0 0 1.00329 534.195 402.48)"/><path d="M5.20594-4.51265C5.06728-4.72694 4.8656-4.91602 4.61349-5.06728 4.34878-5.21854 4.05886-5.29417 3.73113-5.29417 3.39079-5.30678 3.07566-5.24375 2.81095-5.1303 2.53364-5.01686 2.29414-4.85299 2.10506-4.6387 1.91599-4.42442 1.76472-4.18492 1.66388-3.895 1.56304-3.60508 1.51262-3.28995 1.51262-2.94961 1.51262-2.60927 1.56304-2.30675 1.66388-2.01683 1.76472-1.7143 1.91599-1.4748 2.10506-1.26052 2.29414-1.04623 2.53364-0.882362 2.81095-0.768915 3.07566-0.655469 3.39079-0.592443 3.73113-0.605048 4.05886-0.605048 4.34878-0.680679 4.61349-0.831941 4.8656-0.983203 5.06728-1.17228 5.20594-1.38657L5.88661-0.869757C5.5967-0.529417 5.25636-0.277314 4.89081-0.113447 4.52526 0.0630258 4.1345 0.138657 3.73113 0.151262 3.25213 0.163867 2.82356 0.0882362 2.4328-0.075631 2.04204-0.226893 1.7143-0.441181 1.44959-0.718495 1.17228-0.995808 0.957993-1.32354 0.819336-1.7143 0.680679-2.09246 0.605048-2.50843 0.605048-2.94961 0.605048-3.39079 0.680679-3.80676 0.819336-4.19752 0.957993-4.57568 1.17228-4.90341 1.44959-5.18073 1.7143-5.45804 2.04204-5.67233 2.4328-5.83619 2.82356-5.98746 3.25213-6.06309 3.73113-6.05048 4.1345-6.03788 4.52526-5.94964 4.89081-5.79838 5.25636-5.63451 5.5967-5.3698 5.88661-5.02946L5.20594-4.51265Z" transform="matrix(1 0 0 1.00329 541.203 402.48)"/><path d="M5.49585-3.4034C5.49585-3.97063 5.33199-4.42442 4.99165-4.77736 4.65131-5.1177 4.18492-5.29417 3.57987-5.29417 3.31516-5.29417 3.05045-5.24375 2.79835-5.14291 2.54624-5.02946 2.33196-4.89081 2.14288-4.71433 1.9538-4.53786 1.78993-4.33618 1.68909-4.10929 1.57565-3.88239 1.51262-3.64289 1.51262-3.4034L5.49585-3.4034ZM1.48741-2.72272C1.51262-2.4328 1.58825-2.15548 1.7017-1.89078 1.81514-1.62607 1.97901-1.41178 2.16809-1.2227 2.35717-1.03362 2.58406-0.882362 2.83616-0.768915 3.08827-0.655469 3.36558-0.605048 3.6555-0.605048 4.09668-0.605048 4.48744-0.70589 4.81518-0.920177 5.1303-1.12186 5.38241-1.36136 5.54627-1.62607L6.18914-1.09665C5.83619-0.655469 5.44543-0.327734 5.02946-0.138657 4.60089 0.0504207 4.1471 0.151262 3.6555 0.151262 3.21432 0.151262 2.81095 0.075631 2.4454-0.0882362 2.06725-0.239498 1.73951-0.453786 1.4748-0.7311 1.2101-1.00841 0.995808-1.33615 0.844546-1.7143 0.680679-2.09246 0.605048-2.50843 0.605048-2.94961 0.605048-3.39079 0.680679-3.80676 0.831941-4.18492 0.983203-4.56307 1.19749-4.89081 1.4622-5.16812 1.72691-5.44543 2.04204-5.65972 2.40759-5.82359 2.77314-5.97485 3.1639-6.05048 3.57987-6.05048 4.02105-6.05048 4.42442-5.97485 4.77736-5.81098 5.1303-5.64712 5.43283-5.44543 5.67233-5.18073 5.89922-4.91602 6.0883-4.60089 6.21435-4.24794 6.3404-3.88239 6.40343-3.50424 6.40343-3.10087L6.40343-2.72272 1.48741-2.72272Z" transform="matrix(1 0 0 1.00329 547.279 402.48)"/><path d="M1.51262-3.02524C1.51262-2.71011 1.57565-2.42019 1.68909-2.15548 1.78993-1.87817 1.9538-1.63867 2.15548-1.43699 2.34456-1.2227 2.58406-1.05883 2.84877-0.945388 3.11348-0.819336 3.39079-0.75631 3.70592-0.75631 4.00844-0.75631 4.29836-0.806731 4.57568-0.920177 4.84039-1.03362 5.07988-1.18489 5.29417-1.38657 5.50846-1.57565 5.67233-1.81514 5.78577-2.09246 5.89922-2.36977 5.94964-2.6849 5.93704-3.02524 5.93704-3.34037 5.88661-3.63029 5.78577-3.9076 5.68493-4.17231 5.53367-4.41181 5.34459-4.6261 5.15551-4.82778 4.91602-4.99165 4.6387-5.1177 4.36139-5.23115 4.04626-5.29417 3.70592-5.29417 3.39079-5.29417 3.11348-5.23115 2.84877-5.1177 2.58406-4.99165 2.34456-4.82778 2.15548-4.6261 1.9538-4.41181 1.78993-4.17231 1.68909-3.9076 1.57565-3.63029 1.51262-3.34037 1.51262-3.02524ZM1.36136 1.18489C1.60086 1.51262 1.92859 1.77733 2.31935 1.97901 2.71011 2.16809 3.13869 2.26893 3.61768 2.26893 4.03365 2.26893 4.3992 2.2059 4.68912 2.09246 4.97904 1.96641 5.21854 1.80254 5.40762 1.58825 5.58409 1.37396 5.71014 1.13447 5.79838 0.857152 5.87401 0.567233 5.91183 0.264709 5.91183-0.0504207L5.91183-1.10925 5.88661-1.10925C5.62191-0.70589 5.29417-0.415971 4.90341-0.252103 4.51265-0.0882362 4.10929 0 3.68071 0 3.25213 0 2.84877-0.075631 2.48322-0.226893 2.10506-0.378155 1.77733-0.592443 1.50002-0.857152 1.2227-1.12186 1.00841-1.43699 0.844546-1.80254 0.680679-2.16809 0.605048-2.57145 0.605048-3.00003 0.605048-3.42861 0.680679-3.83197 0.831941-4.19752 0.983203-4.56307 1.19749-4.89081 1.4622-5.16812 1.7143-5.44543 2.04204-5.65972 2.40759-5.82359 2.77314-5.97485 3.1639-6.05048 3.60508-6.05048 3.78155-6.05048 3.97063-6.03788 4.17231-6.00006 4.36139-5.96225 4.56307-5.91183 4.76475-5.82359 4.95383-5.73535 5.15551-5.62191 5.34459-5.48325 5.53367-5.33199 5.72275-5.14291 5.88661-4.91602L5.91183-4.91602 5.91183-5.89922 6.74377-5.89922 6.74377-0.0504207C6.74377 0.264709 6.70595 0.605048 6.63032 0.970598 6.54208 1.33615 6.39082 1.66388 6.16393 1.96641 5.92443 2.26893 5.6093 2.52103 5.19333 2.72272 4.77736 2.9244 4.24794 3.02524 3.57987 3.02524 2.98743 3.02524 2.47061 2.9244 2.00422 2.73532 1.53783 2.54624 1.12186 2.24372 0.743705 1.84035L1.36136 1.18489Z" transform="matrix(1 0 0 1.00329 455.992 415.126)"/><path d="M2.11767-8.16815C2.11767-7.99168 2.05464-7.85302 1.92859-7.73957 1.80254-7.61352 1.66388-7.5631 1.51262-7.5631 1.36136-7.5631 1.2227-7.61352 1.09665-7.73957 0.970598-7.85302 0.907572-7.99168 0.907572-8.16815 0.907572-8.34462 0.970598-8.49588 1.09665-8.60933 1.2227-8.72278 1.36136-8.7732 1.51262-8.7732 1.66388-8.7732 1.80254-8.72278 1.92859-8.60933 2.05464-8.49588 2.11767-8.34462 2.11767-8.16815ZM1.92859 0 1.09665 0 1.09665-5.89922 1.92859-5.89922 1.92859 0Z" transform="matrix(1 0 0 1.00329 463.694 415.126)"/><path d="M3.50424 0 2.57145 0 0.176472-5.89922 1.17228-5.89922 3.05045-0.932783 3.07566-0.932783 4.95383-5.89922 5.89922-5.89922 3.50424 0Z" transform="matrix(1 0 0 1.00329 466.719 415.126)"/><path d="M5.49585-3.4034C5.49585-3.97063 5.33199-4.42442 4.99165-4.77736 4.65131-5.1177 4.18492-5.29417 3.57987-5.29417 3.31516-5.29417 3.05045-5.24375 2.79835-5.14291 2.54624-5.02946 2.33196-4.89081 2.14288-4.71433 1.9538-4.53786 1.78993-4.33618 1.68909-4.10929 1.57565-3.88239 1.51262-3.64289 1.51262-3.4034L5.49585-3.4034ZM1.48741-2.72272C1.51262-2.4328 1.58825-2.15548 1.7017-1.89078 1.81514-1.62607 1.97901-1.41178 2.16809-1.2227 2.35717-1.03362 2.58406-0.882362 2.83616-0.768915 3.08827-0.655469 3.36558-0.605048 3.6555-0.605048 4.09668-0.605048 4.48744-0.70589 4.81518-0.920177 5.1303-1.12186 5.38241-1.36136 5.54627-1.62607L6.18914-1.09665C5.83619-0.655469 5.44543-0.327734 5.02946-0.138657 4.60089 0.0504207 4.1471 0.151262 3.6555 0.151262 3.21432 0.151262 2.81095 0.075631 2.4454-0.0882362 2.06725-0.239498 1.73951-0.453786 1.4748-0.7311 1.2101-1.00841 0.995808-1.33615 0.844546-1.7143 0.680679-2.09246 0.605048-2.50843 0.605048-2.94961 0.605048-3.39079 0.680679-3.80676 0.831941-4.18492 0.983203-4.56307 1.19749-4.89081 1.4622-5.16812 1.72691-5.44543 2.04204-5.65972 2.40759-5.82359 2.77314-5.97485 3.1639-6.05048 3.57987-6.05048 4.02105-6.05048 4.42442-5.97485 4.77736-5.81098 5.1303-5.64712 5.43283-5.44543 5.67233-5.18073 5.89922-4.91602 6.0883-4.60089 6.21435-4.24794 6.3404-3.88239 6.40343-3.50424 6.40343-3.10087L6.40343-2.72272 1.48741-2.72272Z" transform="matrix(1 0 0 1.00329 472.795 415.126)"/><path d="M4.03365-4.50005C3.9076-4.73954 3.74374-4.94123 3.52945-5.07988 3.31516-5.21854 3.06306-5.29417 2.76053-5.29417 2.62188-5.29417 2.47061-5.28157 2.33196-5.24375 2.18069-5.20594 2.04204-5.15551 1.92859-5.09249 1.81514-5.01686 1.7143-4.92862 1.65128-4.81518 1.57565-4.70173 1.53783-4.57568 1.53783-4.41181 1.53783-4.1345 1.63867-3.93281 1.82775-3.80676 2.01683-3.68071 2.30675-3.56726 2.69751-3.47903L3.54205-3.27734C3.95802-3.18911 4.29836-3.00003 4.57568-2.72272 4.84039-2.4328 4.97904-2.07985 4.97904-1.66388 4.97904-1.34875 4.91602-1.07144 4.78996-0.844546 4.65131-0.605048 4.48744-0.415971 4.27315-0.277314 4.05886-0.126052 3.80676-0.0126052 3.52945 0.0504207 3.25213 0.113447 2.97482 0.151262 2.6849 0.151262 2.23112 0.151262 1.80254 0.0630258 1.42438-0.113447 1.03362-0.277314 0.693284-0.579838 0.415971-0.995808L1.13447-1.48741C1.29833-1.2227 1.51262-1.00841 1.77733-0.844546 2.02943-0.680679 2.33196-0.605048 2.6849-0.605048 2.84877-0.605048 3.02524-0.617653 3.18911-0.668074 3.35298-0.70589 3.50424-0.75631 3.64289-0.844546 3.76895-0.920177 3.86979-1.02102 3.95802-1.14707 4.03365-1.27312 4.07147-1.42438 4.07147-1.58825 4.07147-1.87817 3.95802-2.09246 3.74374-2.23112 3.52945-2.35717 3.26474-2.45801 2.94961-2.53364L2.14288-2.72272C2.04204-2.74793 1.90338-2.78574 1.73951-2.84877 1.56304-2.91179 1.39917-3.00003 1.23531-3.11348 1.07144-3.22692 0.920177-3.39079 0.806731-3.57987 0.693284-3.76895 0.630259-3.99584 0.630259-4.27315 0.630259-4.57568 0.693284-4.84039 0.819336-5.06728 0.932783-5.29417 1.09665-5.48325 1.31094-5.62191 1.51262-5.76056 1.73951-5.87401 2.00422-5.94964 2.26893-6.01267 2.53364-6.05048 2.81095-6.05048 3.22692-6.05048 3.60508-5.97485 3.95802-5.81098 4.31097-5.64712 4.58828-5.38241 4.77736-4.99165L4.03365-4.50005Z" transform="matrix(1 0 0 1.00329 479.803 415.126)"/><path d="M4.26055-2.937C4.04626-2.937 3.79416-2.9244 3.47903-2.91179 3.1639-2.88658 2.86137-2.83616 2.57145-2.76053 2.28154-2.6723 2.02943-2.54624 1.82775-2.38238 1.61346-2.21851 1.51262-1.97901 1.51262-1.68909 1.51262-1.50002 1.55044-1.33615 1.63867-1.19749 1.7143-1.05883 1.81514-0.945388 1.9538-0.857152 2.09246-0.768915 2.24372-0.70589 2.40759-0.668074 2.57145-0.617653 2.73532-0.605048 2.89919-0.605048 3.20171-0.605048 3.46642-0.655469 3.69332-0.75631 3.9076-0.857152 4.09668-0.995808 4.24794-1.17228 4.3992-1.33615 4.51265-1.53783 4.58828-1.77733 4.65131-2.00422 4.68912-2.24372 4.68912-2.50843L4.68912-2.937 4.26055-2.937ZM4.68912-3.61768 4.68912-3.76895C4.68912-4.78996 4.18492-5.29417 3.1765-5.29417 2.48322-5.29417 1.89078-5.06728 1.37396-4.60089L0.869757-5.19333C1.42438-5.76056 2.25633-6.05048 3.36558-6.05048 3.6555-6.05048 3.93281-6.01267 4.19752-5.92443 4.46223-5.83619 4.68912-5.71014 4.8782-5.54627 5.06728-5.3698 5.23115-5.15551 5.34459-4.89081 5.45804-4.6261 5.52106-4.32357 5.52106-3.95802L5.52106-1.32354C5.52106-1.09665 5.53367-0.857152 5.55888-0.617653 5.57149-0.36555 5.5967-0.163867 5.62191 0L4.81518 0C4.78996-0.138657 4.77736-0.302524 4.76475-0.466391 4.75215-0.630259 4.73954-0.794126 4.73954-0.957993L4.71433-0.957993C4.47484-0.567233 4.18492-0.277314 3.85718-0.113447 3.51684 0.0630258 3.11348 0.151262 2.63448 0.151262 2.36977 0.151262 2.11767 0.113447 1.87817 0.0504207 1.63867-0.0252103 1.42438-0.138657 1.23531-0.289919 1.04623-0.428576 0.882362-0.617653 0.781521-0.831941 0.668074-1.04623 0.605048-1.28573 0.605048-1.57565 0.605048-2.05464 0.7311-2.4328 0.983203-2.71011 1.2227-2.97482 1.53783-3.1765 1.91599-3.31516 2.28154-3.45382 2.6849-3.52945 3.11348-3.56726 3.52945-3.60508 3.92021-3.61768 4.27315-3.61768L4.68912-3.61768Z" transform="matrix(1 0 0 1.00329 488.677 415.126)"/><path d="M1.41178-2.94961C1.41178-2.62188 1.4622-2.31935 1.57565-2.02943 1.67649-1.73951 1.82775-1.50002 2.01683-1.28573 2.2059-1.07144 2.4454-0.907572 2.72272-0.794126 2.98743-0.668074 3.30255-0.605048 3.64289-0.605048 3.98323-0.605048 4.29836-0.668074 4.58828-0.794126 4.8782-0.907572 5.1177-1.07144 5.33199-1.28573 5.54627-1.50002 5.71014-1.73951 5.82359-2.02943 5.93704-2.31935 6.00006-2.62188 6.00006-2.94961 6.00006-3.27734 5.93704-3.57987 5.82359-3.86979 5.71014-4.15971 5.54627-4.3992 5.33199-4.61349 5.1177-4.82778 4.8782-4.99165 4.58828-5.1177 4.29836-5.23115 3.98323-5.29417 3.64289-5.29417 3.30255-5.29417 2.98743-5.23115 2.72272-5.1177 2.4454-4.99165 2.2059-4.82778 2.01683-4.61349 1.82775-4.3992 1.67649-4.15971 1.57565-3.86979 1.4622-3.57987 1.41178-3.27734 1.41178-2.94961ZM6.79419 0 5.96225 0 5.96225-0.983203 5.93704-0.983203C5.79838-0.781521 5.64712-0.605048 5.45804-0.466391 5.26896-0.327734 5.07988-0.201683 4.8782-0.113447 4.67652-0.0252103 4.47484 0.0504207 4.26055 0.0882362 4.04626 0.126052 3.83197 0.151262 3.64289 0.151262 3.1765 0.151262 2.76053 0.075631 2.38238-0.0882362 1.99162-0.239498 1.66388-0.453786 1.38657-0.7311 1.10925-1.00841 0.894967-1.33615 0.743705-1.7143 0.579838-2.09246 0.504207-2.50843 0.504207-2.94961 0.504207-3.39079 0.579838-3.80676 0.743705-4.18492 0.894967-4.56307 1.10925-4.89081 1.38657-5.16812 1.66388-5.44543 1.99162-5.65972 2.38238-5.82359 2.76053-5.97485 3.1765-6.05048 3.64289-6.05048 3.83197-6.05048 4.04626-6.02527 4.26055-5.98746 4.47484-5.94964 4.67652-5.87401 4.8782-5.78577 5.07988-5.69754 5.26896-5.57149 5.45804-5.43283 5.64712-5.29417 5.79838-5.1177 5.93704-4.91602L5.96225-4.91602 5.96225-9.52951 6.79419-9.52951 6.79419 0Z" transform="matrix(1 0 0 1.00329 498.724 415.126)"/><path d="M2.11767-8.16815C2.11767-7.99168 2.05464-7.85302 1.92859-7.73957 1.80254-7.61352 1.66388-7.5631 1.51262-7.5631 1.36136-7.5631 1.2227-7.61352 1.09665-7.73957 0.970598-7.85302 0.907572-7.99168 0.907572-8.16815 0.907572-8.34462 0.970598-8.49588 1.09665-8.60933 1.2227-8.72278 1.36136-8.7732 1.51262-8.7732 1.66388-8.7732 1.80254-8.72278 1.92859-8.60933 2.05464-8.49588 2.11767-8.34462 2.11767-8.16815ZM1.92859 0 1.09665 0 1.09665-5.89922 1.92859-5.89922 1.92859 0Z" transform="matrix(1 0 0 1.00329 506.425 415.126)"/><path d="M4.03365-4.50005C3.9076-4.73954 3.74374-4.94123 3.52945-5.07988 3.31516-5.21854 3.06306-5.29417 2.76053-5.29417 2.62188-5.29417 2.47061-5.28157 2.33196-5.24375 2.18069-5.20594 2.04204-5.15551 1.92859-5.09249 1.81514-5.01686 1.7143-4.92862 1.65128-4.81518 1.57565-4.70173 1.53783-4.57568 1.53783-4.41181 1.53783-4.1345 1.63867-3.93281 1.82775-3.80676 2.01683-3.68071 2.30675-3.56726 2.69751-3.47903L3.54205-3.27734C3.95802-3.18911 4.29836-3.00003 4.57568-2.72272 4.84039-2.4328 4.97904-2.07985 4.97904-1.66388 4.97904-1.34875 4.91602-1.07144 4.78996-0.844546 4.65131-0.605048 4.48744-0.415971 4.27315-0.277314 4.05886-0.126052 3.80676-0.0126052 3.52945 0.0504207 3.25213 0.113447 2.97482 0.151262 2.6849 0.151262 2.23112 0.151262 1.80254 0.0630258 1.42438-0.113447 1.03362-0.277314 0.693284-0.579838 0.415971-0.995808L1.13447-1.48741C1.29833-1.2227 1.51262-1.00841 1.77733-0.844546 2.02943-0.680679 2.33196-0.605048 2.6849-0.605048 2.84877-0.605048 3.02524-0.617653 3.18911-0.668074 3.35298-0.70589 3.50424-0.75631 3.64289-0.844546 3.76895-0.920177 3.86979-1.02102 3.95802-1.14707 4.03365-1.27312 4.07147-1.42438 4.07147-1.58825 4.07147-1.87817 3.95802-2.09246 3.74374-2.23112 3.52945-2.35717 3.26474-2.45801 2.94961-2.53364L2.14288-2.72272C2.04204-2.74793 1.90338-2.78574 1.73951-2.84877 1.56304-2.91179 1.39917-3.00003 1.23531-3.11348 1.07144-3.22692 0.920177-3.39079 0.806731-3.57987 0.693284-3.76895 0.630259-3.99584 0.630259-4.27315 0.630259-4.57568 0.693284-4.84039 0.819336-5.06728 0.932783-5.29417 1.09665-5.48325 1.31094-5.62191 1.51262-5.76056 1.73951-5.87401 2.00422-5.94964 2.26893-6.01267 2.53364-6.05048 2.81095-6.05048 3.22692-6.05048 3.60508-5.97485 3.95802-5.81098 4.31097-5.64712 4.58828-5.38241 4.77736-4.99165L4.03365-4.50005Z" transform="matrix(1 0 0 1.00329 509.451 415.126)"/><path d="M3.95802-5.14291 2.25633-5.14291 2.25633-1.66388C2.25633-1.44959 2.28154-1.26052 2.31935-1.13447 2.35717-0.995808 2.42019-0.882362 2.49582-0.806731 2.57145-0.7311 2.65969-0.680679 2.77314-0.655469 2.87398-0.617653 2.98743-0.605048 3.11348-0.605048 3.25213-0.605048 3.4034-0.630259 3.55466-0.668074 3.70592-0.70589 3.84458-0.768915 3.97063-0.831941L4.00844-0.0630258C3.69332 0.075631 3.32776 0.151262 2.88658 0.151262 2.72272 0.151262 2.55885 0.126052 2.39498 0.0882362 2.21851 0.0504207 2.05464-0.0378155 1.91599-0.151262 1.77733-0.264709 1.65128-0.428576 1.56304-0.630259 1.4748-0.831941 1.42438-1.09665 1.42438-1.42438L1.42438-5.14291 0.176472-5.14291 0.176472-5.89922 1.42438-5.89922 1.42438-7.5631 2.25633-7.5631 2.25633-5.89922 3.95802-5.89922 3.95802-5.14291Z" transform="matrix(1 0 0 1.00329 514.821 415.126)"/><path d="M4.26055-2.937C4.04626-2.937 3.79416-2.9244 3.47903-2.91179 3.1639-2.88658 2.86137-2.83616 2.57145-2.76053 2.28154-2.6723 2.02943-2.54624 1.82775-2.38238 1.61346-2.21851 1.51262-1.97901 1.51262-1.68909 1.51262-1.50002 1.55044-1.33615 1.63867-1.19749 1.7143-1.05883 1.81514-0.945388 1.9538-0.857152 2.09246-0.768915 2.24372-0.70589 2.40759-0.668074 2.57145-0.617653 2.73532-0.605048 2.89919-0.605048 3.20171-0.605048 3.46642-0.655469 3.69332-0.75631 3.9076-0.857152 4.09668-0.995808 4.24794-1.17228 4.3992-1.33615 4.51265-1.53783 4.58828-1.77733 4.65131-2.00422 4.68912-2.24372 4.68912-2.50843L4.68912-2.937 4.26055-2.937ZM4.68912-3.61768 4.68912-3.76895C4.68912-4.78996 4.18492-5.29417 3.1765-5.29417 2.48322-5.29417 1.89078-5.06728 1.37396-4.60089L0.869757-5.19333C1.42438-5.76056 2.25633-6.05048 3.36558-6.05048 3.6555-6.05048 3.93281-6.01267 4.19752-5.92443 4.46223-5.83619 4.68912-5.71014 4.8782-5.54627 5.06728-5.3698 5.23115-5.15551 5.34459-4.89081 5.45804-4.6261 5.52106-4.32357 5.52106-3.95802L5.52106-1.32354C5.52106-1.09665 5.53367-0.857152 5.55888-0.617653 5.57149-0.36555 5.5967-0.163867 5.62191 0L4.81518 0C4.78996-0.138657 4.77736-0.302524 4.76475-0.466391 4.75215-0.630259 4.73954-0.794126 4.73954-0.957993L4.71433-0.957993C4.47484-0.567233 4.18492-0.277314 3.85718-0.113447 3.51684 0.0630258 3.11348 0.151262 2.63448 0.151262 2.36977 0.151262 2.11767 0.113447 1.87817 0.0504207 1.63867-0.0252103 1.42438-0.138657 1.23531-0.289919 1.04623-0.428576 0.882362-0.617653 0.781521-0.831941 0.668074-1.04623 0.605048-1.28573 0.605048-1.57565 0.605048-2.05464 0.7311-2.4328 0.983203-2.71011 1.2227-2.97482 1.53783-3.1765 1.91599-3.31516 2.28154-3.45382 2.6849-3.52945 3.11348-3.56726 3.52945-3.60508 3.92021-3.61768 4.27315-3.61768L4.68912-3.61768Z" transform="matrix(1 0 0 1.00329 519.005 415.126)"/><path d="M1.7017-5.89922C1.7143-5.73535 1.72691-5.58409 1.73951-5.43283 1.73951-5.26896 1.73951-5.1177 1.73951-4.95383L1.76472-4.95383C1.85296-5.1177 1.97901-5.25636 2.11767-5.39501 2.25633-5.53367 2.42019-5.64712 2.59667-5.74796 2.77314-5.83619 2.96221-5.91183 3.1639-5.97485 3.35298-6.02527 3.55466-6.05048 3.74374-6.05048 4.50005-6.05048 5.05467-5.8488 5.42022-5.45804 5.78577-5.05467 5.96225-4.48744 5.96225-3.74374L5.96225 0 5.1303 0 5.1303-3.26474C5.1303-3.92021 5.01686-4.42442 4.78996-4.77736 4.56307-5.1177 4.1471-5.29417 3.52945-5.29417 3.49163-5.29417 3.36558-5.28157 3.1765-5.24375 2.98743-5.20594 2.78574-5.1177 2.57145-4.96644 2.35717-4.81518 2.15548-4.58828 1.99162-4.28576 1.82775-3.98323 1.73951-3.56726 1.73951-3.02524L1.73951 0 0.907572 0 0.907572-4.60089C0.907572-4.76475 0.907572-4.96644 0.894967-5.20594 0.882362-5.44543 0.857152-5.68493 0.844546-5.89922L1.7017-5.89922Z" transform="matrix(1 0 0 1.00329 525.548 415.126)"/><path d="M5.20594-4.51265C5.06728-4.72694 4.8656-4.91602 4.61349-5.06728 4.34878-5.21854 4.05886-5.29417 3.73113-5.29417 3.39079-5.30678 3.07566-5.24375 2.81095-5.1303 2.53364-5.01686 2.29414-4.85299 2.10506-4.6387 1.91599-4.42442 1.76472-4.18492 1.66388-3.895 1.56304-3.60508 1.51262-3.28995 1.51262-2.94961 1.51262-2.60927 1.56304-2.30675 1.66388-2.01683 1.76472-1.7143 1.91599-1.4748 2.10506-1.26052 2.29414-1.04623 2.53364-0.882362 2.81095-0.768915 3.07566-0.655469 3.39079-0.592443 3.73113-0.605048 4.05886-0.605048 4.34878-0.680679 4.61349-0.831941 4.8656-0.983203 5.06728-1.17228 5.20594-1.38657L5.88661-0.869757C5.5967-0.529417 5.25636-0.277314 4.89081-0.113447 4.52526 0.0630258 4.1345 0.138657 3.73113 0.151262 3.25213 0.163867 2.82356 0.0882362 2.4328-0.075631 2.04204-0.226893 1.7143-0.441181 1.44959-0.718495 1.17228-0.995808 0.957993-1.32354 0.819336-1.7143 0.680679-2.09246 0.605048-2.50843 0.605048-2.94961 0.605048-3.39079 0.680679-3.80676 0.819336-4.19752 0.957993-4.57568 1.17228-4.90341 1.44959-5.18073 1.7143-5.45804 2.04204-5.67233 2.4328-5.83619 2.82356-5.98746 3.25213-6.06309 3.73113-6.05048 4.1345-6.03788 4.52526-5.94964 4.89081-5.79838 5.25636-5.63451 5.5967-5.3698 5.88661-5.02946L5.20594-4.51265Z" transform="matrix(1 0 0 1.00329 532.556 415.126)"/><path d="M5.49585-3.4034C5.49585-3.97063 5.33199-4.42442 4.99165-4.77736 4.65131-5.1177 4.18492-5.29417 3.57987-5.29417 3.31516-5.29417 3.05045-5.24375 2.79835-5.14291 2.54624-5.02946 2.33196-4.89081 2.14288-4.71433 1.9538-4.53786 1.78993-4.33618 1.68909-4.10929 1.57565-3.88239 1.51262-3.64289 1.51262-3.4034L5.49585-3.4034ZM1.48741-2.72272C1.51262-2.4328 1.58825-2.15548 1.7017-1.89078 1.81514-1.62607 1.97901-1.41178 2.16809-1.2227 2.35717-1.03362 2.58406-0.882362 2.83616-0.768915 3.08827-0.655469 3.36558-0.605048 3.6555-0.605048 4.09668-0.605048 4.48744-0.70589 4.81518-0.920177 5.1303-1.12186 5.38241-1.36136 5.54627-1.62607L6.18914-1.09665C5.83619-0.655469 5.44543-0.327734 5.02946-0.138657 4.60089 0.0504207 4.1471 0.151262 3.6555 0.151262 3.21432 0.151262 2.81095 0.075631 2.4454-0.0882362 2.06725-0.239498 1.73951-0.453786 1.4748-0.7311 1.2101-1.00841 0.995808-1.33615 0.844546-1.7143 0.680679-2.09246 0.605048-2.50843 0.605048-2.94961 0.605048-3.39079 0.680679-3.80676 0.831941-4.18492 0.983203-4.56307 1.19749-4.89081 1.4622-5.16812 1.72691-5.44543 2.04204-5.65972 2.40759-5.82359 2.77314-5.97485 3.1639-6.05048 3.57987-6.05048 4.02105-6.05048 4.42442-5.97485 4.77736-5.81098 5.1303-5.64712 5.43283-5.44543 5.67233-5.18073 5.89922-4.91602 6.0883-4.60089 6.21435-4.24794 6.3404-3.88239 6.40343-3.50424 6.40343-3.10087L6.40343-2.72272 1.48741-2.72272Z" transform="matrix(1 0 0 1.00329 538.632 415.126)"/><path d="M6.28998-2.94961C6.28998-3.27734 6.23956-3.57987 6.13872-3.86979 6.02527-4.15971 5.87401-4.3992 5.68493-4.61349 5.49585-4.82778 5.25636-4.99165 4.99165-5.1177 4.71433-5.23115 4.3992-5.29417 4.05886-5.29417 3.71853-5.29417 3.4034-5.23115 3.11348-5.1177 2.82356-4.99165 2.58406-4.82778 2.36977-4.61349 2.15548-4.3992 1.99162-4.15971 1.87817-3.86979 1.76472-3.57987 1.7017-3.27734 1.7017-2.94961 1.7017-2.62188 1.76472-2.31935 1.87817-2.02943 1.99162-1.73951 2.15548-1.50002 2.36977-1.28573 2.58406-1.07144 2.82356-0.907572 3.11348-0.794126 3.4034-0.668074 3.71853-0.605048 4.05886-0.605048 4.3992-0.605048 4.71433-0.668074 4.99165-0.794126 5.25636-0.907572 5.49585-1.07144 5.68493-1.28573 5.87401-1.50002 6.02527-1.73951 6.13872-2.02943 6.23956-2.31935 6.28998-2.62188 6.28998-2.94961ZM0.907572-9.52951 1.73951-9.52951 1.73951-4.91602 1.76472-4.91602C1.90338-5.1177 2.05464-5.29417 2.24372-5.43283 2.4328-5.57149 2.62188-5.69754 2.82356-5.78577 3.02524-5.87401 3.23953-5.94964 3.45382-5.98746 3.6681-6.02527 3.86979-6.05048 4.05886-6.05048 4.52526-6.05048 4.94123-5.97485 5.33199-5.82359 5.71014-5.65972 6.03788-5.44543 6.31519-5.16812 6.5925-4.89081 6.80679-4.56307 6.97066-4.18492 7.12192-3.80676 7.19755-3.39079 7.19755-2.94961 7.19755-2.50843 7.12192-2.09246 6.97066-1.7143 6.80679-1.33615 6.5925-1.00841 6.31519-0.7311 6.03788-0.453786 5.71014-0.239498 5.33199-0.0882362 4.94123 0.075631 4.52526 0.151262 4.05886 0.151262 3.86979 0.151262 3.6681 0.126052 3.45382 0.0882362 3.23953 0.0504207 3.02524-0.0252103 2.82356-0.113447 2.62188-0.201683 2.4328-0.327734 2.24372-0.466391 2.05464-0.605048 1.90338-0.781521 1.76472-0.983203L1.73951-0.983203 1.73951 0 0.907572 0 0.907572-9.52951Z" transform="matrix(1 0 0 1.00329 455.992 427.773)"/><path d="M5.49585-3.4034C5.49585-3.97063 5.33199-4.42442 4.99165-4.77736 4.65131-5.1177 4.18492-5.29417 3.57987-5.29417 3.31516-5.29417 3.05045-5.24375 2.79835-5.14291 2.54624-5.02946 2.33196-4.89081 2.14288-4.71433 1.9538-4.53786 1.78993-4.33618 1.68909-4.10929 1.57565-3.88239 1.51262-3.64289 1.51262-3.4034L5.49585-3.4034ZM1.48741-2.72272C1.51262-2.4328 1.58825-2.15548 1.7017-1.89078 1.81514-1.62607 1.97901-1.41178 2.16809-1.2227 2.35717-1.03362 2.58406-0.882362 2.83616-0.768915 3.08827-0.655469 3.36558-0.605048 3.6555-0.605048 4.09668-0.605048 4.48744-0.70589 4.81518-0.920177 5.1303-1.12186 5.38241-1.36136 5.54627-1.62607L6.18914-1.09665C5.83619-0.655469 5.44543-0.327734 5.02946-0.138657 4.60089 0.0504207 4.1471 0.151262 3.6555 0.151262 3.21432 0.151262 2.81095 0.075631 2.4454-0.0882362 2.06725-0.239498 1.73951-0.453786 1.4748-0.7311 1.2101-1.00841 0.995808-1.33615 0.844546-1.7143 0.680679-2.09246 0.605048-2.50843 0.605048-2.94961 0.605048-3.39079 0.680679-3.80676 0.831941-4.18492 0.983203-4.56307 1.19749-4.89081 1.4622-5.16812 1.72691-5.44543 2.04204-5.65972 2.40759-5.82359 2.77314-5.97485 3.1639-6.05048 3.57987-6.05048 4.02105-6.05048 4.42442-5.97485 4.77736-5.81098 5.1303-5.64712 5.43283-5.44543 5.67233-5.18073 5.89922-4.91602 6.0883-4.60089 6.21435-4.24794 6.3404-3.88239 6.40343-3.50424 6.40343-3.10087L6.40343-2.72272 1.48741-2.72272Z" transform="matrix(1 0 0 1.00329 463.694 427.773)"/><path d="M3.95802-5.14291 2.25633-5.14291 2.25633-1.66388C2.25633-1.44959 2.28154-1.26052 2.31935-1.13447 2.35717-0.995808 2.42019-0.882362 2.49582-0.806731 2.57145-0.7311 2.65969-0.680679 2.77314-0.655469 2.87398-0.617653 2.98743-0.605048 3.11348-0.605048 3.25213-0.605048 3.4034-0.630259 3.55466-0.668074 3.70592-0.70589 3.84458-0.768915 3.97063-0.831941L4.00844-0.0630258C3.69332 0.075631 3.32776 0.151262 2.88658 0.151262 2.72272 0.151262 2.55885 0.126052 2.39498 0.0882362 2.21851 0.0504207 2.05464-0.0378155 1.91599-0.151262 1.77733-0.264709 1.65128-0.428576 1.56304-0.630259 1.4748-0.831941 1.42438-1.09665 1.42438-1.42438L1.42438-5.14291 0.176472-5.14291 0.176472-5.89922 1.42438-5.89922 1.42438-7.5631 2.25633-7.5631 2.25633-5.89922 3.95802-5.89922 3.95802-5.14291Z" transform="matrix(1 0 0 1.00329 470.702 427.773)"/><path d="M1.15968-5.89922 2.52103-1.10925 2.54624-1.10925 4.12189-5.89922 4.97904-5.89922 6.55469-1.10925 6.5799-1.10925 7.94126-5.89922 8.92446-5.89922 7.0589 0 6.12611 0 4.56307-4.84039 4.53786-4.84039 2.97482 0 2.04204 0 0.176472-5.89922 1.15968-5.89922Z" transform="matrix(1 0 0 1.00329 474.887 427.773)"/><path d="M5.49585-3.4034C5.49585-3.97063 5.33199-4.42442 4.99165-4.77736 4.65131-5.1177 4.18492-5.29417 3.57987-5.29417 3.31516-5.29417 3.05045-5.24375 2.79835-5.14291 2.54624-5.02946 2.33196-4.89081 2.14288-4.71433 1.9538-4.53786 1.78993-4.33618 1.68909-4.10929 1.57565-3.88239 1.51262-3.64289 1.51262-3.4034L5.49585-3.4034ZM1.48741-2.72272C1.51262-2.4328 1.58825-2.15548 1.7017-1.89078 1.81514-1.62607 1.97901-1.41178 2.16809-1.2227 2.35717-1.03362 2.58406-0.882362 2.83616-0.768915 3.08827-0.655469 3.36558-0.605048 3.6555-0.605048 4.09668-0.605048 4.48744-0.70589 4.81518-0.920177 5.1303-1.12186 5.38241-1.36136 5.54627-1.62607L6.18914-1.09665C5.83619-0.655469 5.44543-0.327734 5.02946-0.138657 4.60089 0.0504207 4.1471 0.151262 3.6555 0.151262 3.21432 0.151262 2.81095 0.075631 2.4454-0.0882362 2.06725-0.239498 1.73951-0.453786 1.4748-0.7311 1.2101-1.00841 0.995808-1.33615 0.844546-1.7143 0.680679-2.09246 0.605048-2.50843 0.605048-2.94961 0.605048-3.39079 0.680679-3.80676 0.831941-4.18492 0.983203-4.56307 1.19749-4.89081 1.4622-5.16812 1.72691-5.44543 2.04204-5.65972 2.40759-5.82359 2.77314-5.97485 3.1639-6.05048 3.57987-6.05048 4.02105-6.05048 4.42442-5.97485 4.77736-5.81098 5.1303-5.64712 5.43283-5.44543 5.67233-5.18073 5.89922-4.91602 6.0883-4.60089 6.21435-4.24794 6.3404-3.88239 6.40343-3.50424 6.40343-3.10087L6.40343-2.72272 1.48741-2.72272Z" transform="matrix(1 0 0 1.00329 483.988 427.773)"/><path d="M5.49585-3.4034C5.49585-3.97063 5.33199-4.42442 4.99165-4.77736 4.65131-5.1177 4.18492-5.29417 3.57987-5.29417 3.31516-5.29417 3.05045-5.24375 2.79835-5.14291 2.54624-5.02946 2.33196-4.89081 2.14288-4.71433 1.9538-4.53786 1.78993-4.33618 1.68909-4.10929 1.57565-3.88239 1.51262-3.64289 1.51262-3.4034L5.49585-3.4034ZM1.48741-2.72272C1.51262-2.4328 1.58825-2.15548 1.7017-1.89078 1.81514-1.62607 1.97901-1.41178 2.16809-1.2227 2.35717-1.03362 2.58406-0.882362 2.83616-0.768915 3.08827-0.655469 3.36558-0.605048 3.6555-0.605048 4.09668-0.605048 4.48744-0.70589 4.81518-0.920177 5.1303-1.12186 5.38241-1.36136 5.54627-1.62607L6.18914-1.09665C5.83619-0.655469 5.44543-0.327734 5.02946-0.138657 4.60089 0.0504207 4.1471 0.151262 3.6555 0.151262 3.21432 0.151262 2.81095 0.075631 2.4454-0.0882362 2.06725-0.239498 1.73951-0.453786 1.4748-0.7311 1.2101-1.00841 0.995808-1.33615 0.844546-1.7143 0.680679-2.09246 0.605048-2.50843 0.605048-2.94961 0.605048-3.39079 0.680679-3.80676 0.831941-4.18492 0.983203-4.56307 1.19749-4.89081 1.4622-5.16812 1.72691-5.44543 2.04204-5.65972 2.40759-5.82359 2.77314-5.97485 3.1639-6.05048 3.57987-6.05048 4.02105-6.05048 4.42442-5.97485 4.77736-5.81098 5.1303-5.64712 5.43283-5.44543 5.67233-5.18073 5.89922-4.91602 6.0883-4.60089 6.21435-4.24794 6.3404-3.88239 6.40343-3.50424 6.40343-3.10087L6.40343-2.72272 1.48741-2.72272Z" transform="matrix(1 0 0 1.00329 490.997 427.773)"/><path d="M1.7017-5.89922C1.7143-5.73535 1.72691-5.58409 1.73951-5.43283 1.73951-5.26896 1.73951-5.1177 1.73951-4.95383L1.76472-4.95383C1.85296-5.1177 1.97901-5.25636 2.11767-5.39501 2.25633-5.53367 2.42019-5.64712 2.59667-5.74796 2.77314-5.83619 2.96221-5.91183 3.1639-5.97485 3.35298-6.02527 3.55466-6.05048 3.74374-6.05048 4.50005-6.05048 5.05467-5.8488 5.42022-5.45804 5.78577-5.05467 5.96225-4.48744 5.96225-3.74374L5.96225 0 5.1303 0 5.1303-3.26474C5.1303-3.92021 5.01686-4.42442 4.78996-4.77736 4.56307-5.1177 4.1471-5.29417 3.52945-5.29417 3.49163-5.29417 3.36558-5.28157 3.1765-5.24375 2.98743-5.20594 2.78574-5.1177 2.57145-4.96644 2.35717-4.81518 2.15548-4.58828 1.99162-4.28576 1.82775-3.98323 1.73951-3.56726 1.73951-3.02524L1.73951 0 0.907572 0 0.907572-4.60089C0.907572-4.76475 0.907572-4.96644 0.894967-5.20594 0.882362-5.44543 0.857152-5.68493 0.844546-5.89922L1.7017-5.89922Z" transform="matrix(1 0 0 1.00329 498.005 427.773)"/><path d="M0.907572-4.58828C0.907572-4.80257 0.907572-5.02946 0.894967-5.24375 0.882362-5.45804 0.857152-5.68493 0.844546-5.89922L1.73951-5.89922 1.73951-5.00425 1.76472-5.00425C1.96641-5.34459 2.24372-5.6093 2.60927-5.78577 2.96221-5.96225 3.31516-6.05048 3.6681-6.05048 3.83197-6.05048 3.99584-6.03788 4.18492-6.00006 4.36139-5.96225 4.53786-5.89922 4.70173-5.82359 4.8656-5.73535 5.02946-5.6093 5.18073-5.44543 5.31938-5.28157 5.44543-5.07988 5.54627-4.82778 5.71014-5.20594 5.98746-5.50846 6.35301-5.72275 6.71856-5.93704 7.09671-6.05048 7.48747-6.05048 8.24378-6.05048 8.79841-5.8488 9.16396-5.45804 9.52951-5.05467 9.70598-4.48744 9.70598-3.74374L9.70598 0 8.87404 0 8.87404-3.44121C8.87404-4.03365 8.7732-4.50005 8.55891-4.81518 8.34462-5.1303 7.95386-5.29417 7.38663-5.29417 7.0715-5.29417 6.8194-5.23115 6.60511-5.1177 6.39082-4.99165 6.22695-4.82778 6.1009-4.6261 5.96225-4.42442 5.87401-4.19752 5.81098-3.94542 5.74796-3.68071 5.72275-3.416 5.72275-3.13869L5.72275 0 4.89081 0 4.89081-3.44121C4.89081-4.03365 4.78996-4.50005 4.57568-4.81518 4.36139-5.1303 3.97063-5.29417 3.4034-5.29417 3.35298-5.29417 3.23953-5.28157 3.06306-5.24375 2.87398-5.20594 2.6849-5.1177 2.49582-4.96644 2.30675-4.81518 2.13027-4.58828 1.97901-4.28576 1.81514-3.98323 1.73951-3.56726 1.73951-3.02524L1.73951 0 0.907572 0 0.907572-4.58828Z" transform="matrix(1 0 0 1.00329 508.518 427.773)"/><path d="M5.49585-3.4034C5.49585-3.97063 5.33199-4.42442 4.99165-4.77736 4.65131-5.1177 4.18492-5.29417 3.57987-5.29417 3.31516-5.29417 3.05045-5.24375 2.79835-5.14291 2.54624-5.02946 2.33196-4.89081 2.14288-4.71433 1.9538-4.53786 1.78993-4.33618 1.68909-4.10929 1.57565-3.88239 1.51262-3.64289 1.51262-3.4034L5.49585-3.4034ZM1.48741-2.72272C1.51262-2.4328 1.58825-2.15548 1.7017-1.89078 1.81514-1.62607 1.97901-1.41178 2.16809-1.2227 2.35717-1.03362 2.58406-0.882362 2.83616-0.768915 3.08827-0.655469 3.36558-0.605048 3.6555-0.605048 4.09668-0.605048 4.48744-0.70589 4.81518-0.920177 5.1303-1.12186 5.38241-1.36136 5.54627-1.62607L6.18914-1.09665C5.83619-0.655469 5.44543-0.327734 5.02946-0.138657 4.60089 0.0504207 4.1471 0.151262 3.6555 0.151262 3.21432 0.151262 2.81095 0.075631 2.4454-0.0882362 2.06725-0.239498 1.73951-0.453786 1.4748-0.7311 1.2101-1.00841 0.995808-1.33615 0.844546-1.7143 0.680679-2.09246 0.605048-2.50843 0.605048-2.94961 0.605048-3.39079 0.680679-3.80676 0.831941-4.18492 0.983203-4.56307 1.19749-4.89081 1.4622-5.16812 1.72691-5.44543 2.04204-5.65972 2.40759-5.82359 2.77314-5.97485 3.1639-6.05048 3.57987-6.05048 4.02105-6.05048 4.42442-5.97485 4.77736-5.81098 5.1303-5.64712 5.43283-5.44543 5.67233-5.18073 5.89922-4.91602 6.0883-4.60089 6.21435-4.24794 6.3404-3.88239 6.40343-3.50424 6.40343-3.10087L6.40343-2.72272 1.48741-2.72272Z" transform="matrix(1 0 0 1.00329 519.258 427.773)"/><path d="M4.26055-2.937C4.04626-2.937 3.79416-2.9244 3.47903-2.91179 3.1639-2.88658 2.86137-2.83616 2.57145-2.76053 2.28154-2.6723 2.02943-2.54624 1.82775-2.38238 1.61346-2.21851 1.51262-1.97901 1.51262-1.68909 1.51262-1.50002 1.55044-1.33615 1.63867-1.19749 1.7143-1.05883 1.81514-0.945388 1.9538-0.857152 2.09246-0.768915 2.24372-0.70589 2.40759-0.668074 2.57145-0.617653 2.73532-0.605048 2.89919-0.605048 3.20171-0.605048 3.46642-0.655469 3.69332-0.75631 3.9076-0.857152 4.09668-0.995808 4.24794-1.17228 4.3992-1.33615 4.51265-1.53783 4.58828-1.77733 4.65131-2.00422 4.68912-2.24372 4.68912-2.50843L4.68912-2.937 4.26055-2.937ZM4.68912-3.61768 4.68912-3.76895C4.68912-4.78996 4.18492-5.29417 3.1765-5.29417 2.48322-5.29417 1.89078-5.06728 1.37396-4.60089L0.869757-5.19333C1.42438-5.76056 2.25633-6.05048 3.36558-6.05048 3.6555-6.05048 3.93281-6.01267 4.19752-5.92443 4.46223-5.83619 4.68912-5.71014 4.8782-5.54627 5.06728-5.3698 5.23115-5.15551 5.34459-4.89081 5.45804-4.6261 5.52106-4.32357 5.52106-3.95802L5.52106-1.32354C5.52106-1.09665 5.53367-0.857152 5.55888-0.617653 5.57149-0.36555 5.5967-0.163867 5.62191 0L4.81518 0C4.78996-0.138657 4.77736-0.302524 4.76475-0.466391 4.75215-0.630259 4.73954-0.794126 4.73954-0.957993L4.71433-0.957993C4.47484-0.567233 4.18492-0.277314 3.85718-0.113447 3.51684 0.0630258 3.11348 0.151262 2.63448 0.151262 2.36977 0.151262 2.11767 0.113447 1.87817 0.0504207 1.63867-0.0252103 1.42438-0.138657 1.23531-0.289919 1.04623-0.428576 0.882362-0.617653 0.781521-0.831941 0.668074-1.04623 0.605048-1.28573 0.605048-1.57565 0.605048-2.05464 0.7311-2.4328 0.983203-2.71011 1.2227-2.97482 1.53783-3.1765 1.91599-3.31516 2.28154-3.45382 2.6849-3.52945 3.11348-3.56726 3.52945-3.60508 3.92021-3.61768 4.27315-3.61768L4.68912-3.61768Z" transform="matrix(1 0 0 1.00329 526.266 427.773)"/><path d="M1.7017-5.89922C1.7143-5.73535 1.72691-5.58409 1.73951-5.43283 1.73951-5.26896 1.73951-5.1177 1.73951-4.95383L1.76472-4.95383C1.85296-5.1177 1.97901-5.25636 2.11767-5.39501 2.25633-5.53367 2.42019-5.64712 2.59667-5.74796 2.77314-5.83619 2.96221-5.91183 3.1639-5.97485 3.35298-6.02527 3.55466-6.05048 3.74374-6.05048 4.50005-6.05048 5.05467-5.8488 5.42022-5.45804 5.78577-5.05467 5.96225-4.48744 5.96225-3.74374L5.96225 0 5.1303 0 5.1303-3.26474C5.1303-3.92021 5.01686-4.42442 4.78996-4.77736 4.56307-5.1177 4.1471-5.29417 3.52945-5.29417 3.49163-5.29417 3.36558-5.28157 3.1765-5.24375 2.98743-5.20594 2.78574-5.1177 2.57145-4.96644 2.35717-4.81518 2.15548-4.58828 1.99162-4.28576 1.82775-3.98323 1.73951-3.56726 1.73951-3.02524L1.73951 0 0.907572 0 0.907572-4.60089C0.907572-4.76475 0.907572-4.96644 0.894967-5.20594 0.882362-5.44543 0.857152-5.68493 0.844546-5.89922L1.7017-5.89922Z" transform="matrix(1 0 0 1.00329 532.808 427.773)"/><path d="M4.03365-4.50005C3.9076-4.73954 3.74374-4.94123 3.52945-5.07988 3.31516-5.21854 3.06306-5.29417 2.76053-5.29417 2.62188-5.29417 2.47061-5.28157 2.33196-5.24375 2.18069-5.20594 2.04204-5.15551 1.92859-5.09249 1.81514-5.01686 1.7143-4.92862 1.65128-4.81518 1.57565-4.70173 1.53783-4.57568 1.53783-4.41181 1.53783-4.1345 1.63867-3.93281 1.82775-3.80676 2.01683-3.68071 2.30675-3.56726 2.69751-3.47903L3.54205-3.27734C3.95802-3.18911 4.29836-3.00003 4.57568-2.72272 4.84039-2.4328 4.97904-2.07985 4.97904-1.66388 4.97904-1.34875 4.91602-1.07144 4.78996-0.844546 4.65131-0.605048 4.48744-0.415971 4.27315-0.277314 4.05886-0.126052 3.80676-0.0126052 3.52945 0.0504207 3.25213 0.113447 2.97482 0.151262 2.6849 0.151262 2.23112 0.151262 1.80254 0.0630258 1.42438-0.113447 1.03362-0.277314 0.693284-0.579838 0.415971-0.995808L1.13447-1.48741C1.29833-1.2227 1.51262-1.00841 1.77733-0.844546 2.02943-0.680679 2.33196-0.605048 2.6849-0.605048 2.84877-0.605048 3.02524-0.617653 3.18911-0.668074 3.35298-0.70589 3.50424-0.75631 3.64289-0.844546 3.76895-0.920177 3.86979-1.02102 3.95802-1.14707 4.03365-1.27312 4.07147-1.42438 4.07147-1.58825 4.07147-1.87817 3.95802-2.09246 3.74374-2.23112 3.52945-2.35717 3.26474-2.45801 2.94961-2.53364L2.14288-2.72272C2.04204-2.74793 1.90338-2.78574 1.73951-2.84877 1.56304-2.91179 1.39917-3.00003 1.23531-3.11348 1.07144-3.22692 0.920177-3.39079 0.806731-3.57987 0.693284-3.76895 0.630259-3.99584 0.630259-4.27315 0.630259-4.57568 0.693284-4.84039 0.819336-5.06728 0.932783-5.29417 1.09665-5.48325 1.31094-5.62191 1.51262-5.76056 1.73951-5.87401 2.00422-5.94964 2.26893-6.01267 2.53364-6.05048 2.81095-6.05048 3.22692-6.05048 3.60508-5.97485 3.95802-5.81098 4.31097-5.64712 4.58828-5.38241 4.77736-4.99165L4.03365-4.50005Z" transform="matrix(1 0 0 1.00329 539.817 427.773)"/><path d="M4.26055-2.937C4.04626-2.937 3.79416-2.9244 3.47903-2.91179 3.1639-2.88658 2.86137-2.83616 2.57145-2.76053 2.28154-2.6723 2.02943-2.54624 1.82775-2.38238 1.61346-2.21851 1.51262-1.97901 1.51262-1.68909 1.51262-1.50002 1.55044-1.33615 1.63867-1.19749 1.7143-1.05883 1.81514-0.945388 1.9538-0.857152 2.09246-0.768915 2.24372-0.70589 2.40759-0.668074 2.57145-0.617653 2.73532-0.605048 2.89919-0.605048 3.20171-0.605048 3.46642-0.655469 3.69332-0.75631 3.9076-0.857152 4.09668-0.995808 4.24794-1.17228 4.3992-1.33615 4.51265-1.53783 4.58828-1.77733 4.65131-2.00422 4.68912-2.24372 4.68912-2.50843L4.68912-2.937 4.26055-2.937ZM4.68912-3.61768 4.68912-3.76895C4.68912-4.78996 4.18492-5.29417 3.1765-5.29417 2.48322-5.29417 1.89078-5.06728 1.37396-4.60089L0.869757-5.19333C1.42438-5.76056 2.25633-6.05048 3.36558-6.05048 3.6555-6.05048 3.93281-6.01267 4.19752-5.92443 4.46223-5.83619 4.68912-5.71014 4.8782-5.54627 5.06728-5.3698 5.23115-5.15551 5.34459-4.89081 5.45804-4.6261 5.52106-4.32357 5.52106-3.95802L5.52106-1.32354C5.52106-1.09665 5.53367-0.857152 5.55888-0.617653 5.57149-0.36555 5.5967-0.163867 5.62191 0L4.81518 0C4.78996-0.138657 4.77736-0.302524 4.76475-0.466391 4.75215-0.630259 4.73954-0.794126 4.73954-0.957993L4.71433-0.957993C4.47484-0.567233 4.18492-0.277314 3.85718-0.113447 3.51684 0.0630258 3.11348 0.151262 2.63448 0.151262 2.36977 0.151262 2.11767 0.113447 1.87817 0.0504207 1.63867-0.0252103 1.42438-0.138657 1.23531-0.289919 1.04623-0.428576 0.882362-0.617653 0.781521-0.831941 0.668074-1.04623 0.605048-1.28573 0.605048-1.57565 0.605048-2.05464 0.7311-2.4328 0.983203-2.71011 1.2227-2.97482 1.53783-3.1765 1.91599-3.31516 2.28154-3.45382 2.6849-3.52945 3.11348-3.56726 3.52945-3.60508 3.92021-3.61768 4.27315-3.61768L4.68912-3.61768Z" transform="matrix(1 0 0 1.00329 455.992 440.42)"/><path d="M0.907572-4.58828C0.907572-4.80257 0.907572-5.02946 0.894967-5.24375 0.882362-5.45804 0.857152-5.68493 0.844546-5.89922L1.73951-5.89922 1.73951-5.00425 1.76472-5.00425C1.96641-5.34459 2.24372-5.6093 2.60927-5.78577 2.96221-5.96225 3.31516-6.05048 3.6681-6.05048 3.83197-6.05048 3.99584-6.03788 4.18492-6.00006 4.36139-5.96225 4.53786-5.89922 4.70173-5.82359 4.8656-5.73535 5.02946-5.6093 5.18073-5.44543 5.31938-5.28157 5.44543-5.07988 5.54627-4.82778 5.71014-5.20594 5.98746-5.50846 6.35301-5.72275 6.71856-5.93704 7.09671-6.05048 7.48747-6.05048 8.24378-6.05048 8.79841-5.8488 9.16396-5.45804 9.52951-5.05467 9.70598-4.48744 9.70598-3.74374L9.70598 0 8.87404 0 8.87404-3.44121C8.87404-4.03365 8.7732-4.50005 8.55891-4.81518 8.34462-5.1303 7.95386-5.29417 7.38663-5.29417 7.0715-5.29417 6.8194-5.23115 6.60511-5.1177 6.39082-4.99165 6.22695-4.82778 6.1009-4.6261 5.96225-4.42442 5.87401-4.19752 5.81098-3.94542 5.74796-3.68071 5.72275-3.416 5.72275-3.13869L5.72275 0 4.89081 0 4.89081-3.44121C4.89081-4.03365 4.78996-4.50005 4.57568-4.81518 4.36139-5.1303 3.97063-5.29417 3.4034-5.29417 3.35298-5.29417 3.23953-5.28157 3.06306-5.24375 2.87398-5.20594 2.6849-5.1177 2.49582-4.96644 2.30675-4.81518 2.13027-4.58828 1.97901-4.28576 1.81514-3.98323 1.73951-3.56726 1.73951-3.02524L1.73951 0 0.907572 0 0.907572-4.58828Z" transform="matrix(1 0 0 1.00329 466.039 440.42)"/><path d="M5.49585-3.4034C5.49585-3.97063 5.33199-4.42442 4.99165-4.77736 4.65131-5.1177 4.18492-5.29417 3.57987-5.29417 3.31516-5.29417 3.05045-5.24375 2.79835-5.14291 2.54624-5.02946 2.33196-4.89081 2.14288-4.71433 1.9538-4.53786 1.78993-4.33618 1.68909-4.10929 1.57565-3.88239 1.51262-3.64289 1.51262-3.4034L5.49585-3.4034ZM1.48741-2.72272C1.51262-2.4328 1.58825-2.15548 1.7017-1.89078 1.81514-1.62607 1.97901-1.41178 2.16809-1.2227 2.35717-1.03362 2.58406-0.882362 2.83616-0.768915 3.08827-0.655469 3.36558-0.605048 3.6555-0.605048 4.09668-0.605048 4.48744-0.70589 4.81518-0.920177 5.1303-1.12186 5.38241-1.36136 5.54627-1.62607L6.18914-1.09665C5.83619-0.655469 5.44543-0.327734 5.02946-0.138657 4.60089 0.0504207 4.1471 0.151262 3.6555 0.151262 3.21432 0.151262 2.81095 0.075631 2.4454-0.0882362 2.06725-0.239498 1.73951-0.453786 1.4748-0.7311 1.2101-1.00841 0.995808-1.33615 0.844546-1.7143 0.680679-2.09246 0.605048-2.50843 0.605048-2.94961 0.605048-3.39079 0.680679-3.80676 0.831941-4.18492 0.983203-4.56307 1.19749-4.89081 1.4622-5.16812 1.72691-5.44543 2.04204-5.65972 2.40759-5.82359 2.77314-5.97485 3.1639-6.05048 3.57987-6.05048 4.02105-6.05048 4.42442-5.97485 4.77736-5.81098 5.1303-5.64712 5.43283-5.44543 5.67233-5.18073 5.89922-4.91602 6.0883-4.60089 6.21435-4.24794 6.3404-3.88239 6.40343-3.50424 6.40343-3.10087L6.40343-2.72272 1.48741-2.72272Z" transform="matrix(1 0 0 1.00329 476.778 440.42)"/><path d="M4.26055-2.937C4.04626-2.937 3.79416-2.9244 3.47903-2.91179 3.1639-2.88658 2.86137-2.83616 2.57145-2.76053 2.28154-2.6723 2.02943-2.54624 1.82775-2.38238 1.61346-2.21851 1.51262-1.97901 1.51262-1.68909 1.51262-1.50002 1.55044-1.33615 1.63867-1.19749 1.7143-1.05883 1.81514-0.945388 1.9538-0.857152 2.09246-0.768915 2.24372-0.70589 2.40759-0.668074 2.57145-0.617653 2.73532-0.605048 2.89919-0.605048 3.20171-0.605048 3.46642-0.655469 3.69332-0.75631 3.9076-0.857152 4.09668-0.995808 4.24794-1.17228 4.3992-1.33615 4.51265-1.53783 4.58828-1.77733 4.65131-2.00422 4.68912-2.24372 4.68912-2.50843L4.68912-2.937 4.26055-2.937ZM4.68912-3.61768 4.68912-3.76895C4.68912-4.78996 4.18492-5.29417 3.1765-5.29417 2.48322-5.29417 1.89078-5.06728 1.37396-4.60089L0.869757-5.19333C1.42438-5.76056 2.25633-6.05048 3.36558-6.05048 3.6555-6.05048 3.93281-6.01267 4.19752-5.92443 4.46223-5.83619 4.68912-5.71014 4.8782-5.54627 5.06728-5.3698 5.23115-5.15551 5.34459-4.89081 5.45804-4.6261 5.52106-4.32357 5.52106-3.95802L5.52106-1.32354C5.52106-1.09665 5.53367-0.857152 5.55888-0.617653 5.57149-0.36555 5.5967-0.163867 5.62191 0L4.81518 0C4.78996-0.138657 4.77736-0.302524 4.76475-0.466391 4.75215-0.630259 4.73954-0.794126 4.73954-0.957993L4.71433-0.957993C4.47484-0.567233 4.18492-0.277314 3.85718-0.113447 3.51684 0.0630258 3.11348 0.151262 2.63448 0.151262 2.36977 0.151262 2.11767 0.113447 1.87817 0.0504207 1.63867-0.0252103 1.42438-0.138657 1.23531-0.289919 1.04623-0.428576 0.882362-0.617653 0.781521-0.831941 0.668074-1.04623 0.605048-1.28573 0.605048-1.57565 0.605048-2.05464 0.7311-2.4328 0.983203-2.71011 1.2227-2.97482 1.53783-3.1765 1.91599-3.31516 2.28154-3.45382 2.6849-3.52945 3.11348-3.56726 3.52945-3.60508 3.92021-3.61768 4.27315-3.61768L4.68912-3.61768Z" transform="matrix(1 0 0 1.00329 483.787 440.42)"/><path d="M1.7017-5.89922C1.7143-5.73535 1.72691-5.58409 1.73951-5.43283 1.73951-5.26896 1.73951-5.1177 1.73951-4.95383L1.76472-4.95383C1.85296-5.1177 1.97901-5.25636 2.11767-5.39501 2.25633-5.53367 2.42019-5.64712 2.59667-5.74796 2.77314-5.83619 2.96221-5.91183 3.1639-5.97485 3.35298-6.02527 3.55466-6.05048 3.74374-6.05048 4.50005-6.05048 5.05467-5.8488 5.42022-5.45804 5.78577-5.05467 5.96225-4.48744 5.96225-3.74374L5.96225 0 5.1303 0 5.1303-3.26474C5.1303-3.92021 5.01686-4.42442 4.78996-4.77736 4.56307-5.1177 4.1471-5.29417 3.52945-5.29417 3.49163-5.29417 3.36558-5.28157 3.1765-5.24375 2.98743-5.20594 2.78574-5.1177 2.57145-4.96644 2.35717-4.81518 2.15548-4.58828 1.99162-4.28576 1.82775-3.98323 1.73951-3.56726 1.73951-3.02524L1.73951 0 0.907572 0 0.907572-4.60089C0.907572-4.76475 0.907572-4.96644 0.894967-5.20594 0.882362-5.44543 0.857152-5.68493 0.844546-5.89922L1.7017-5.89922Z" transform="matrix(1 0 0 1.00329 490.329 440.42)"/><path d="M2.11767-8.16815C2.11767-7.99168 2.05464-7.85302 1.92859-7.73957 1.80254-7.61352 1.66388-7.5631 1.51262-7.5631 1.36136-7.5631 1.2227-7.61352 1.09665-7.73957 0.970598-7.85302 0.907572-7.99168 0.907572-8.16815 0.907572-8.34462 0.970598-8.49588 1.09665-8.60933 1.2227-8.72278 1.36136-8.7732 1.51262-8.7732 1.66388-8.7732 1.80254-8.72278 1.92859-8.60933 2.05464-8.49588 2.11767-8.34462 2.11767-8.16815ZM1.92859 0 1.09665 0 1.09665-5.89922 1.92859-5.89922 1.92859 0Z" transform="matrix(1 0 0 1.00329 497.337 440.42)"/><path d="M1.7017-5.89922C1.7143-5.73535 1.72691-5.58409 1.73951-5.43283 1.73951-5.26896 1.73951-5.1177 1.73951-4.95383L1.76472-4.95383C1.85296-5.1177 1.97901-5.25636 2.11767-5.39501 2.25633-5.53367 2.42019-5.64712 2.59667-5.74796 2.77314-5.83619 2.96221-5.91183 3.1639-5.97485 3.35298-6.02527 3.55466-6.05048 3.74374-6.05048 4.50005-6.05048 5.05467-5.8488 5.42022-5.45804 5.78577-5.05467 5.96225-4.48744 5.96225-3.74374L5.96225 0 5.1303 0 5.1303-3.26474C5.1303-3.92021 5.01686-4.42442 4.78996-4.77736 4.56307-5.1177 4.1471-5.29417 3.52945-5.29417 3.49163-5.29417 3.36558-5.28157 3.1765-5.24375 2.98743-5.20594 2.78574-5.1177 2.57145-4.96644 2.35717-4.81518 2.15548-4.58828 1.99162-4.28576 1.82775-3.98323 1.73951-3.56726 1.73951-3.02524L1.73951 0 0.907572 0 0.907572-4.60089C0.907572-4.76475 0.907572-4.96644 0.894967-5.20594 0.882362-5.44543 0.857152-5.68493 0.844546-5.89922L1.7017-5.89922Z" transform="matrix(1 0 0 1.00329 500.362 440.42)"/><path d="M1.51262-3.02524C1.51262-2.71011 1.57565-2.42019 1.68909-2.15548 1.78993-1.87817 1.9538-1.63867 2.15548-1.43699 2.34456-1.2227 2.58406-1.05883 2.84877-0.945388 3.11348-0.819336 3.39079-0.75631 3.70592-0.75631 4.00844-0.75631 4.29836-0.806731 4.57568-0.920177 4.84039-1.03362 5.07988-1.18489 5.29417-1.38657 5.50846-1.57565 5.67233-1.81514 5.78577-2.09246 5.89922-2.36977 5.94964-2.6849 5.93704-3.02524 5.93704-3.34037 5.88661-3.63029 5.78577-3.9076 5.68493-4.17231 5.53367-4.41181 5.34459-4.6261 5.15551-4.82778 4.91602-4.99165 4.6387-5.1177 4.36139-5.23115 4.04626-5.29417 3.70592-5.29417 3.39079-5.29417 3.11348-5.23115 2.84877-5.1177 2.58406-4.99165 2.34456-4.82778 2.15548-4.6261 1.9538-4.41181 1.78993-4.17231 1.68909-3.9076 1.57565-3.63029 1.51262-3.34037 1.51262-3.02524ZM1.36136 1.18489C1.60086 1.51262 1.92859 1.77733 2.31935 1.97901 2.71011 2.16809 3.13869 2.26893 3.61768 2.26893 4.03365 2.26893 4.3992 2.2059 4.68912 2.09246 4.97904 1.96641 5.21854 1.80254 5.40762 1.58825 5.58409 1.37396 5.71014 1.13447 5.79838 0.857152 5.87401 0.567233 5.91183 0.264709 5.91183-0.0504207L5.91183-1.10925 5.88661-1.10925C5.62191-0.70589 5.29417-0.415971 4.90341-0.252103 4.51265-0.0882362 4.10929 0 3.68071 0 3.25213 0 2.84877-0.075631 2.48322-0.226893 2.10506-0.378155 1.77733-0.592443 1.50002-0.857152 1.2227-1.12186 1.00841-1.43699 0.844546-1.80254 0.680679-2.16809 0.605048-2.57145 0.605048-3.00003 0.605048-3.42861 0.680679-3.83197 0.831941-4.19752 0.983203-4.56307 1.19749-4.89081 1.4622-5.16812 1.7143-5.44543 2.04204-5.65972 2.40759-5.82359 2.77314-5.97485 3.1639-6.05048 3.60508-6.05048 3.78155-6.05048 3.97063-6.03788 4.17231-6.00006 4.36139-5.96225 4.56307-5.91183 4.76475-5.82359 4.95383-5.73535 5.15551-5.62191 5.34459-5.48325 5.53367-5.33199 5.72275-5.14291 5.88661-4.91602L5.91183-4.91602 5.91183-5.89922 6.74377-5.89922 6.74377-0.0504207C6.74377 0.264709 6.70595 0.605048 6.63032 0.970598 6.54208 1.33615 6.39082 1.66388 6.16393 1.96641 5.92443 2.26893 5.6093 2.52103 5.19333 2.72272 4.77736 2.9244 4.24794 3.02524 3.57987 3.02524 2.98743 3.02524 2.47061 2.9244 2.00422 2.73532 1.53783 2.54624 1.12186 2.24372 0.743705 1.84035L1.36136 1.18489Z" transform="matrix(1 0 0 1.00329 507.371 440.42)"/></g></svg>