<?xml version="1.0" encoding="UTF-8" standalone="no"?>
<!DOCTYPE svg PUBLIC "-//W3C//DTD SVG 1.1//EN" "http://www.w3.org/Graphics/SVG/1.1/DTD/svg11.dtd">
<svg width="100%" height="100%" viewBox="0 0 954 433" version="1.1" xmlns="http://www.w3.org/2000/svg" xmlns:xlink="http://www.w3.org/1999/xlink" xml:space="preserve" xmlns:serif="http://www.serif.com/" style="fill-rule:evenodd;clip-rule:evenodd;stroke-linecap:round;stroke-linejoin:round;stroke-miterlimit:1.5;">
    <g transform="matrix(1,0,0,1,-1679.45,-851.152)">
        <g transform="matrix(0.539101,0,0,0.539101,1519.6,636.569)">
            <circle cx="879.532" cy="708.385" r="44.041" style="fill:rgb(71,41,218);stroke:rgb(62,37,208);stroke-width:1.85px;"/>
        </g>
        <g transform="matrix(0.539101,0,0,0.539101,1719.62,636.569)">
            <circle cx="879.532" cy="708.385" r="44.041" style="fill:rgb(71,41,218);stroke:rgb(62,37,208);stroke-width:1.85px;"/>
        </g>
        <g transform="matrix(0.539101,0,0,0.539101,1918.59,636.569)">
            <circle cx="879.532" cy="708.385" r="44.041" style="fill:rgb(71,41,218);stroke:rgb(62,37,208);stroke-width:1.85px;"/>
        </g>
        <g transform="matrix(0.539101,0,0,0.539101,1519.6,782.958)">
            <circle cx="879.532" cy="708.385" r="44.041" style="fill:rgb(41,100,218);stroke:rgb(62,37,208);stroke-width:1.85px;"/>
        </g>
        <g transform="matrix(0.539101,0,0,0.539101,1719.62,782.958)">
            <circle cx="879.532" cy="708.385" r="44.041" style="fill:rgb(41,100,218);stroke:rgb(62,37,208);stroke-width:1.85px;"/>
        </g>
        <g transform="matrix(0.539101,0,0,0.539101,1918.59,782.958)">
            <circle cx="879.532" cy="708.385" r="44.041" style="fill:rgb(41,100,218);stroke:rgb(62,37,208);stroke-width:1.85px;"/>
        </g>
        <g transform="matrix(0.539101,0,0,0.539101,1519.6,636.569)">
            <path d="M1243.61,588.438L1614,588.438" style="fill:none;stroke:rgb(110,199,132);stroke-width:27.49px;"/>
        </g>
        <g transform="matrix(0.539101,0,0,0.539101,1492.19,663.693)">
            <path d="M1366.43,490L1422.22,348.653L1436.91,348.653L1493.89,490L1366.43,490ZM1429.37,361.953L1384.5,477.692L1474.83,477.692L1429.37,361.953Z" style="fill:rgb(71,167,82);fill-rule:nonzero;stroke:rgb(33,183,59);stroke-width:1.85px;stroke-linecap:butt;stroke-miterlimit:2;"/>
            <path d="M1534.78,440.37L1501.03,397.092L1518.9,397.092L1544.71,431.833L1569.32,397.092L1585.6,397.092L1553.24,440.37L1592.15,490L1574.29,490L1543.12,449.303L1513.14,490L1496.47,490L1534.78,440.37Z" style="fill:rgb(71,167,82);fill-rule:nonzero;stroke:rgb(33,183,59);stroke-width:1.85px;stroke-linecap:butt;stroke-miterlimit:2;"/>
        </g>
        <g transform="matrix(0.539101,0,0,0.539101,1791.21,858.912)">
            <path d="M1366.43,490L1422.22,348.653L1436.91,348.653L1493.89,490L1366.43,490ZM1429.37,361.953L1384.5,477.692L1474.83,477.692L1429.37,361.953Z" style="fill:rgb(158,71,167);fill-rule:nonzero;stroke:rgb(183,33,152);stroke-width:1.85px;stroke-linecap:butt;stroke-miterlimit:2;"/>
            <path d="M1558.8,409.003L1532,409.003L1532,463.795C1532,467.236 1532.33,470.049 1533,472.232C1533.66,474.416 1534.58,476.103 1535.77,477.295C1536.97,478.486 1538.39,479.313 1540.04,479.776C1541.7,480.239 1543.52,480.471 1545.5,480.471C1547.75,480.471 1550.07,480.14 1552.45,479.478C1554.83,478.817 1557.02,477.956 1559,476.898L1559.6,489.007C1554.7,491.257 1548.81,492.382 1541.93,492.382C1539.41,492.382 1536.8,492.051 1534.09,491.39C1531.37,490.728 1528.89,489.471 1526.64,487.618C1524.39,485.765 1522.54,483.25 1521.08,480.074C1519.63,476.898 1518.9,472.729 1518.9,467.567L1518.9,409.003L1499.25,409.003L1499.25,397.092L1518.9,397.092L1518.9,370.887L1532,370.887L1532,397.092L1558.8,397.092L1558.8,409.003Z" style="fill:rgb(158,71,167);fill-rule:nonzero;stroke:rgb(183,33,152);stroke-width:1.85px;stroke-linecap:butt;stroke-miterlimit:2;"/>
        </g>
        <g transform="matrix(0.872979,0,0,0.872979,1330.74,394.68)">
            <path d="M426.174,662.451C426.174,664.291 425.517,665.802 424.203,666.984C422.889,668.167 421.443,668.758 419.866,668.758C418.29,668.758 416.844,668.167 415.53,666.984C414.216,665.802 413.559,664.291 413.559,662.451C413.559,660.611 414.216,659.1 415.53,657.918C416.844,656.735 418.29,656.144 419.866,656.144C421.443,656.144 422.889,656.735 424.203,657.918C425.517,659.1 426.174,660.611 426.174,662.451ZM401.207,770.333L401.601,770.464C402.302,770.639 403.069,770.815 403.901,770.99C404.733,771.165 405.5,771.253 406.2,771.253C408.303,771.253 409.989,770.858 411.259,770.07C412.53,769.282 413.471,768.252 414.085,766.982C414.698,765.712 415.092,764.332 415.267,762.843C415.442,761.354 415.53,759.864 415.53,758.375L415.53,686.103L424.203,686.103L424.203,759.821C424.203,760.697 424.159,762.208 424.071,764.354C423.984,766.5 423.436,768.668 422.429,770.858C421.421,773.048 419.713,774.976 417.304,776.64C414.895,778.305 411.413,779.137 406.857,779.137C404.405,779.137 402.127,778.699 400.025,777.823L401.207,770.333Z" style="fill-rule:nonzero;stroke:black;stroke-width:1.15px;stroke-linecap:butt;stroke-miterlimit:2;"/>
            <path d="M519.864,703.843L549.43,703.843L549.43,711.727L519.864,711.727L519.864,741.293L511.98,741.293L511.98,711.727L482.414,711.727L482.414,703.843L511.98,703.843L511.98,674.277L519.864,674.277L519.864,703.843Z" style="fill-rule:nonzero;stroke:black;stroke-width:1.15px;stroke-linecap:butt;stroke-miterlimit:2;"/>
            <path d="M641.937,747.6L632.476,747.6L632.476,666.393L615.788,681.11L609.875,674.014L633.527,654.567L641.937,654.567L641.937,747.6Z" style="fill-rule:nonzero;stroke:black;stroke-width:1.15px;stroke-linecap:butt;stroke-miterlimit:2;"/>
        </g>
        <g transform="matrix(0.814467,0,0,0.814467,1435.07,600.946)">
            <path d="M426.174,662.451C426.174,664.291 425.517,665.802 424.203,666.984C422.889,668.167 421.443,668.758 419.866,668.758C418.29,668.758 416.844,668.167 415.53,666.984C414.216,665.802 413.559,664.291 413.559,662.451C413.559,660.611 414.216,659.1 415.53,657.918C416.844,656.735 418.29,656.144 419.866,656.144C421.443,656.144 422.889,656.735 424.203,657.918C425.517,659.1 426.174,660.611 426.174,662.451ZM401.207,770.333L401.601,770.464C402.302,770.639 403.069,770.815 403.901,770.99C404.733,771.165 405.5,771.253 406.2,771.253C408.303,771.253 409.989,770.858 411.259,770.07C412.53,769.282 413.471,768.252 414.085,766.982C414.698,765.712 415.092,764.332 415.267,762.843C415.442,761.354 415.53,759.864 415.53,758.375L415.53,686.103L424.203,686.103L424.203,759.821C424.203,760.697 424.159,762.208 424.071,764.354C423.984,766.5 423.436,768.668 422.429,770.858C421.421,773.048 419.713,774.976 417.304,776.64C414.895,778.305 411.413,779.137 406.857,779.137C404.405,779.137 402.127,778.699 400.025,777.823L401.207,770.333Z" style="fill-rule:nonzero;stroke:black;stroke-width:1.23px;stroke-linecap:butt;stroke-miterlimit:2;"/>
        </g>
        <g transform="matrix(0.539101,0,0,0.539101,1516.3,599.639)">
            <path d="M847.511,1201.26L825.173,1172.61L836.999,1172.61L854.081,1195.61L870.375,1172.61L881.15,1172.61L859.731,1201.26L885.486,1234.11L873.66,1234.11L853.03,1207.17L833.188,1234.11L822.15,1234.11L847.511,1201.26Z" style="fill-rule:nonzero;stroke:black;stroke-width:1.85px;stroke-linecap:butt;stroke-miterlimit:2;"/>
        </g>
        <g transform="matrix(0.661294,0,0,0.661294,1396.33,442.557)">
            <path d="M919.941,1241.79C919.941,1242.42 919.717,1242.93 919.27,1243.34C918.822,1243.74 918.329,1243.94 917.792,1243.94C917.254,1243.94 916.762,1243.74 916.314,1243.34C915.866,1242.93 915.642,1242.42 915.642,1241.79C915.642,1241.16 915.866,1240.65 916.314,1240.25C916.762,1239.84 917.254,1239.64 917.792,1239.64C918.329,1239.64 918.822,1239.84 919.27,1240.25C919.717,1240.65 919.941,1241.16 919.941,1241.79ZM919.27,1270.81L916.314,1270.81L916.314,1249.85L919.27,1249.85L919.27,1270.81Z" style="fill-rule:nonzero;stroke:black;stroke-width:1.51px;stroke-linecap:butt;stroke-miterlimit:2;"/>
            <rect x="937.318" y="1258.59" width="11.51" height="2.956" style="fill-rule:nonzero;stroke:black;stroke-width:1.51px;stroke-linecap:butt;stroke-miterlimit:2;"/>
            <path d="M978.567,1270.81L975.342,1270.81L975.342,1243.13L969.654,1248.15L967.639,1245.73L975.7,1239.1L978.567,1239.1L978.567,1270.81Z" style="fill-rule:nonzero;stroke:black;stroke-width:1.51px;stroke-linecap:butt;stroke-miterlimit:2;"/>
        </g>
        <g transform="matrix(0.539101,0,0,0.539101,1727.26,599.639)">
            <path d="M847.511,1201.26L825.173,1172.61L836.999,1172.61L854.081,1195.61L870.375,1172.61L881.15,1172.61L859.731,1201.26L885.486,1234.11L873.66,1234.11L853.03,1207.17L833.188,1234.11L822.15,1234.11L847.511,1201.26Z" style="fill-rule:nonzero;stroke:black;stroke-width:1.85px;stroke-linecap:butt;stroke-miterlimit:2;"/>
        </g>
        <g transform="matrix(0.661294,0,0,0.661294,1607.29,442.557)">
            <path d="M919.941,1241.79C919.941,1242.42 919.717,1242.93 919.27,1243.34C918.822,1243.74 918.329,1243.94 917.792,1243.94C917.254,1243.94 916.762,1243.74 916.314,1243.34C915.866,1242.93 915.642,1242.42 915.642,1241.79C915.642,1241.16 915.866,1240.65 916.314,1240.25C916.762,1239.84 917.254,1239.64 917.792,1239.64C918.329,1239.64 918.822,1239.84 919.27,1240.25C919.717,1240.65 919.941,1241.16 919.941,1241.79ZM919.27,1270.81L916.314,1270.81L916.314,1249.85L919.27,1249.85L919.27,1270.81Z" style="fill-rule:nonzero;stroke:black;stroke-width:1.51px;stroke-linecap:butt;stroke-miterlimit:2;"/>
        </g>
        <g transform="matrix(0.539101,0,0,0.539101,1917.99,599.639)">
            <path d="M847.511,1201.26L825.173,1172.61L836.999,1172.61L854.081,1195.61L870.375,1172.61L881.15,1172.61L859.731,1201.26L885.486,1234.11L873.66,1234.11L853.03,1207.17L833.188,1234.11L822.15,1234.11L847.511,1201.26Z" style="fill-rule:nonzero;stroke:black;stroke-width:1.85px;stroke-linecap:butt;stroke-miterlimit:2;"/>
        </g>
        <g transform="matrix(0.661294,0,0,0.661294,1798.02,442.557)">
            <path d="M919.941,1241.79C919.941,1242.42 919.717,1242.93 919.27,1243.34C918.822,1243.74 918.329,1243.94 917.792,1243.94C917.254,1243.94 916.762,1243.74 916.314,1243.34C915.866,1242.93 915.642,1242.42 915.642,1241.79C915.642,1241.16 915.866,1240.65 916.314,1240.25C916.762,1239.84 917.254,1239.64 917.792,1239.64C918.329,1239.64 918.822,1239.84 919.27,1240.25C919.717,1240.65 919.941,1241.16 919.941,1241.79ZM919.27,1270.81L916.314,1270.81L916.314,1249.85L919.27,1249.85L919.27,1270.81Z" style="fill-rule:nonzero;stroke:black;stroke-width:1.51px;stroke-linecap:butt;stroke-miterlimit:2;"/>
            <path d="M951.874,1255.9L961.951,1255.9L961.951,1258.59L951.874,1258.59L951.874,1268.66L949.187,1268.66L949.187,1258.59L939.11,1258.59L939.11,1255.9L949.187,1255.9L949.187,1245.82L951.874,1245.82L951.874,1255.9Z" style="fill-rule:nonzero;stroke:black;stroke-width:1.51px;stroke-linecap:butt;stroke-miterlimit:2;"/>
            <path d="M993.48,1270.81L990.256,1270.81L990.256,1243.13L984.568,1248.15L982.553,1245.73L990.614,1239.1L993.48,1239.1L993.48,1270.81Z" style="fill-rule:nonzero;stroke:black;stroke-width:1.51px;stroke-linecap:butt;stroke-miterlimit:2;"/>
        </g>
        <g transform="matrix(1,0,0,1.04168,-100.75,-77.9256)">
            <path d="M2592.66,1049.6L2592.66,1195.95" style="fill:none;stroke:rgb(198,73,173);stroke-width:13.13px;"/>
        </g>
        <g transform="matrix(0.250673,0,0,0.250673,1571.46,745.637)">
            <path d="M2097.16,966.131L2097.16,1232.56" style="fill:none;stroke:black;stroke-width:21.66px;"/>
        </g>
        <g transform="matrix(0.255853,0,0,0.255853,1757.85,740.632)">
            <path d="M2097.16,966.131L2097.16,1232.56" style="fill:none;stroke:black;stroke-width:21.22px;"/>
        </g>
        <g transform="matrix(0.250673,0,0,0.250673,1571.46,888.94)">
            <path d="M2097.16,966.131L2097.16,1232.56" style="fill:none;stroke:black;stroke-width:21.66px;"/>
        </g>
        <g transform="matrix(0.255853,0,0,0.255853,1757.85,883.936)">
            <path d="M2097.16,966.131L2097.16,1232.56" style="fill:none;stroke:black;stroke-width:21.22px;"/>
        </g>
    </g>
</svg>
