<?xml version="1.0" encoding="UTF-8" standalone="no"?>
<!DOCTYPE svg PUBLIC "-//W3C//DTD SVG 1.1//EN" "http://www.w3.org/Graphics/SVG/1.1/DTD/svg11.dtd">
<svg width="100%" height="100%" viewBox="0 0 800 745" version="1.1" xmlns="http://www.w3.org/2000/svg" xmlns:xlink="http://www.w3.org/1999/xlink" xml:space="preserve" xmlns:serif="http://www.serif.com/" style="fill-rule:evenodd;clip-rule:evenodd;stroke-linecap:round;stroke-linejoin:round;stroke-miterlimit:1.5;">
    <g transform="matrix(1,0,0,1,-1109.03,-339.702)">
        <g transform="matrix(0.732812,0,0,0.732812,464.144,-130.263)">
            <path d="M1030.29,1537.78L1030.29,653" style="fill:none;stroke:black;stroke-width:23.36px;"/>
        </g>
        <g transform="matrix(0.732812,0,0,0.732812,464.144,-130.263)">
            <path d="M1030.29,653L985.147,698.147" style="fill:none;stroke:black;stroke-width:23.36px;"/>
        </g>
        <g transform="matrix(0.732812,0,0,0.732812,464.144,-130.263)">
            <path d="M1030.29,653L1079.65,702.353" style="fill:none;stroke:black;stroke-width:23.36px;"/>
        </g>
        <g transform="matrix(4.90373e-17,0.80084,-0.80084,4.90373e-17,2382.37,100.691)">
            <path d="M1030.29,1537.78L1030.29,653" style="fill:none;stroke:black;stroke-width:21.38px;"/>
        </g>
        <g transform="matrix(4.48718e-17,0.732812,-0.732812,4.48718e-17,2346.9,170.78)">
            <path d="M1030.29,653L985.147,698.147" style="fill:none;stroke:black;stroke-width:23.36px;"/>
        </g>
        <g transform="matrix(4.48718e-17,0.732812,-0.732812,4.48718e-17,2346.9,170.78)">
            <path d="M1030.29,653L1079.65,702.353" style="fill:none;stroke:black;stroke-width:23.36px;"/>
        </g>
        <g transform="matrix(0.732812,0,0,0.732812,-72.1802,-126.379)">
            <g transform="matrix(179.562,0,0,179.562,1669.77,1629.56)">
                <path d="M0.314,-0.408L0.179,-0.408L0.179,-0.132C0.179,-0.115 0.181,-0.1 0.184,-0.09C0.187,-0.079 0.192,-0.07 0.198,-0.064C0.204,-0.058 0.211,-0.054 0.22,-0.052C0.228,-0.049 0.237,-0.048 0.247,-0.048C0.258,-0.048 0.27,-0.05 0.282,-0.053C0.294,-0.056 0.305,-0.061 0.315,-0.066L0.318,-0.005C0.293,0.006 0.264,0.012 0.229,0.012C0.216,0.012 0.203,0.01 0.19,0.007C0.176,0.004 0.163,-0.003 0.152,-0.012C0.141,-0.021 0.131,-0.034 0.124,-0.05C0.117,-0.066 0.113,-0.087 0.113,-0.113L0.113,-0.408L0.014,-0.408L0.014,-0.468L0.113,-0.468L0.113,-0.6L0.179,-0.6L0.179,-0.468L0.314,-0.468L0.314,-0.408Z" style="fill-rule:nonzero;"/>
            </g>
        </g>
        <g transform="matrix(0.732812,0,0,0.732812,466.688,-111.896)">
            <g transform="matrix(179.562,0,0,179.562,1669.77,1629.56)">
                <path d="M0.314,-0.408L0.179,-0.408L0.179,-0.132C0.179,-0.115 0.181,-0.1 0.184,-0.09C0.187,-0.079 0.192,-0.07 0.198,-0.064C0.204,-0.058 0.211,-0.054 0.22,-0.052C0.228,-0.049 0.237,-0.048 0.247,-0.048C0.258,-0.048 0.27,-0.05 0.282,-0.053C0.294,-0.056 0.305,-0.061 0.315,-0.066L0.318,-0.005C0.293,0.006 0.264,0.012 0.229,0.012C0.216,0.012 0.203,0.01 0.19,0.007C0.176,0.004 0.163,-0.003 0.152,-0.012C0.141,-0.021 0.131,-0.034 0.124,-0.05C0.117,-0.066 0.113,-0.087 0.113,-0.113L0.113,-0.408L0.014,-0.408L0.014,-0.468L0.113,-0.468L0.113,-0.6L0.179,-0.6L0.179,-0.468L0.314,-0.468L0.314,-0.408Z" style="fill-rule:nonzero;"/>
            </g>
            <g transform="matrix(179.562,0,0,179.562,1729.38,1629.56)">
                <path d="M0.363,-0.333L0.588,-0.333L0.588,-0.273L0.363,-0.273L0.363,-0.048L0.303,-0.048L0.303,-0.273L0.078,-0.273L0.078,-0.333L0.303,-0.333L0.303,-0.558L0.363,-0.558L0.363,-0.333Z" style="fill-rule:nonzero;"/>
            </g>
            <g transform="matrix(179.562,0,0,179.562,1848.97,1629.56)">
                <path d="M0.072,-0.756L0.138,-0.756L0.138,-0.393L0.14,-0.393C0.147,-0.406 0.157,-0.417 0.168,-0.428C0.179,-0.439 0.192,-0.448 0.206,-0.456C0.22,-0.463 0.235,-0.469 0.251,-0.474C0.266,-0.478 0.282,-0.48 0.297,-0.48C0.357,-0.48 0.401,-0.464 0.43,-0.433C0.459,-0.401 0.473,-0.356 0.473,-0.297L0.473,-0L0.407,-0L0.407,-0.259C0.407,-0.311 0.398,-0.351 0.38,-0.379C0.362,-0.406 0.329,-0.42 0.28,-0.42C0.277,-0.42 0.267,-0.419 0.252,-0.416C0.237,-0.413 0.221,-0.406 0.204,-0.394C0.187,-0.382 0.171,-0.364 0.158,-0.34C0.145,-0.316 0.138,-0.283 0.138,-0.24L0.138,-0L0.072,-0L0.072,-0.756Z" style="fill-rule:nonzero;"/>
            </g>
        </g>
        <g transform="matrix(0.732812,0,0,0.732812,451.785,-160.856)">
            <g transform="matrix(130.397,0,0,130.397,894.797,835.373)">
                <path d="M0.246,-0.081L0.389,-0.468L0.469,-0.468L0.235,0.122C0.221,0.158 0.203,0.187 0.182,0.208C0.16,0.229 0.129,0.24 0.088,0.24C0.078,0.24 0.068,0.24 0.058,0.239C0.047,0.238 0.037,0.236 0.027,0.233L0.034,0.169C0.048,0.176 0.065,0.18 0.084,0.18C0.107,0.18 0.126,0.173 0.139,0.158C0.152,0.143 0.164,0.123 0.174,0.096L0.208,0.006L0.016,-0.468L0.099,-0.468L0.246,-0.081Z" style="fill-rule:nonzero;"/>
            </g>
        </g>
        <g transform="matrix(0.732812,0,0,0.732812,464.144,-130.263)">
            <path d="M1031.24,1439.95C1062.77,1391.88 1101.1,1351.3 1141.97,1311.02C1190.07,1263.62 1240.45,1218.14 1296.93,1180.85C1437.58,1087.98 1608.23,1032.61 1772.91,1001.61" style="fill:none;stroke:rgb(57,186,38);stroke-width:23.36px;"/>
        </g>
        <g transform="matrix(0.732812,0,0,0.732812,439.427,-112.993)">
            <g transform="matrix(76.988,0,0,76.988,1581.16,943.372)">
                <path d="M0.314,-0.408L0.179,-0.408L0.179,-0.132C0.179,-0.115 0.181,-0.1 0.184,-0.09C0.187,-0.079 0.192,-0.07 0.198,-0.064C0.204,-0.058 0.211,-0.054 0.22,-0.052C0.228,-0.049 0.237,-0.048 0.247,-0.048C0.258,-0.048 0.27,-0.05 0.282,-0.053C0.294,-0.056 0.305,-0.061 0.315,-0.066L0.318,-0.005C0.293,0.006 0.264,0.012 0.229,0.012C0.216,0.012 0.203,0.01 0.19,0.007C0.176,0.004 0.163,-0.003 0.152,-0.012C0.141,-0.021 0.131,-0.034 0.124,-0.05C0.117,-0.066 0.113,-0.087 0.113,-0.113L0.113,-0.408L0.014,-0.408L0.014,-0.468L0.113,-0.468L0.113,-0.6L0.179,-0.6L0.179,-0.468L0.314,-0.468L0.314,-0.408Z" style="fill:rgb(63,143,49);fill-rule:nonzero;"/>
            </g>
            <g transform="matrix(76.988,0,0,76.988,1606.72,943.372)">
                <path d="M0.079,-0.322C0.079,-0.343 0.079,-0.364 0.078,-0.385C0.077,-0.406 0.076,-0.434 0.075,-0.468L0.14,-0.468L0.14,-0.381L0.142,-0.381C0.147,-0.394 0.153,-0.406 0.162,-0.418C0.171,-0.429 0.181,-0.44 0.194,-0.449C0.206,-0.458 0.22,-0.466 0.237,-0.472C0.253,-0.477 0.271,-0.48 0.292,-0.48C0.311,-0.48 0.327,-0.478 0.341,-0.474L0.328,-0.409C0.319,-0.412 0.307,-0.414 0.29,-0.414C0.265,-0.414 0.243,-0.409 0.225,-0.4C0.207,-0.39 0.192,-0.378 0.18,-0.363C0.168,-0.347 0.159,-0.331 0.154,-0.314C0.148,-0.297 0.145,-0.28 0.145,-0.264L0.145,-0L0.079,-0L0.079,-0.322Z" style="fill:rgb(63,143,49);fill-rule:nonzero;"/>
            </g>
            <g transform="matrix(76.988,0,0,76.988,1632.28,943.372)">
                <path d="M0.41,-0C0.409,-0.013 0.408,-0.025 0.408,-0.038C0.407,-0.05 0.407,-0.062 0.407,-0.075L0.405,-0.075C0.398,-0.062 0.388,-0.051 0.377,-0.04C0.366,-0.029 0.353,-0.02 0.339,-0.013C0.325,-0.005 0.31,0.001 0.295,0.006C0.279,0.01 0.263,0.012 0.248,0.012C0.188,0.012 0.144,-0.004 0.115,-0.036C0.086,-0.067 0.072,-0.112 0.072,-0.171L0.072,-0.468L0.138,-0.468L0.138,-0.209C0.138,-0.183 0.14,-0.16 0.144,-0.14C0.148,-0.12 0.155,-0.103 0.165,-0.09C0.174,-0.076 0.187,-0.066 0.204,-0.059C0.22,-0.051 0.24,-0.048 0.265,-0.048C0.268,-0.048 0.278,-0.049 0.293,-0.052C0.308,-0.055 0.325,-0.062 0.342,-0.074C0.359,-0.086 0.374,-0.104 0.387,-0.128C0.4,-0.152 0.407,-0.185 0.407,-0.228L0.407,-0.468L0.473,-0.468L0.473,-0.103C0.473,-0.09 0.474,-0.074 0.475,-0.055C0.476,-0.036 0.477,-0.017 0.478,-0L0.41,-0Z" style="fill:rgb(63,143,49);fill-rule:nonzero;"/>
            </g>
            <g transform="matrix(76.988,0,0,76.988,1675.08,943.372)">
                <path d="M0.436,-0.27C0.436,-0.315 0.423,-0.351 0.396,-0.379C0.369,-0.406 0.332,-0.42 0.284,-0.42C0.263,-0.42 0.242,-0.416 0.222,-0.408C0.202,-0.399 0.185,-0.388 0.17,-0.374C0.155,-0.36 0.142,-0.344 0.134,-0.326C0.125,-0.308 0.12,-0.289 0.12,-0.27L0.436,-0.27ZM0.118,-0.216C0.12,-0.193 0.126,-0.171 0.135,-0.15C0.144,-0.129 0.157,-0.112 0.172,-0.097C0.187,-0.082 0.205,-0.07 0.225,-0.061C0.245,-0.052 0.267,-0.048 0.29,-0.048C0.325,-0.048 0.356,-0.056 0.382,-0.073C0.407,-0.089 0.427,-0.108 0.44,-0.129L0.491,-0.087C0.463,-0.052 0.432,-0.026 0.399,-0.011C0.365,0.004 0.329,0.012 0.29,0.012C0.255,0.012 0.223,0.006 0.194,-0.007C0.164,-0.019 0.138,-0.036 0.117,-0.058C0.096,-0.08 0.079,-0.106 0.067,-0.136C0.054,-0.166 0.048,-0.199 0.048,-0.234C0.048,-0.269 0.054,-0.302 0.066,-0.332C0.078,-0.362 0.095,-0.388 0.116,-0.41C0.137,-0.432 0.162,-0.449 0.191,-0.462C0.22,-0.474 0.251,-0.48 0.284,-0.48C0.319,-0.48 0.351,-0.474 0.379,-0.461C0.407,-0.448 0.431,-0.432 0.45,-0.411C0.468,-0.39 0.483,-0.365 0.493,-0.337C0.503,-0.308 0.508,-0.278 0.508,-0.246L0.508,-0.216L0.118,-0.216Z" style="fill:rgb(63,143,49);fill-rule:nonzero;"/>
            </g>
            <g transform="matrix(76.988,0,0,76.988,1739.29,943.372)">
                <path d="M0.32,-0.357C0.31,-0.376 0.297,-0.392 0.28,-0.403C0.263,-0.414 0.243,-0.42 0.219,-0.42C0.208,-0.42 0.196,-0.419 0.185,-0.416C0.173,-0.413 0.162,-0.409 0.153,-0.404C0.144,-0.398 0.136,-0.391 0.131,-0.382C0.125,-0.373 0.122,-0.363 0.122,-0.35C0.122,-0.328 0.13,-0.312 0.145,-0.302C0.16,-0.292 0.183,-0.283 0.214,-0.276L0.281,-0.26C0.314,-0.253 0.341,-0.238 0.363,-0.216C0.384,-0.193 0.395,-0.165 0.395,-0.132C0.395,-0.107 0.39,-0.085 0.38,-0.067C0.369,-0.048 0.356,-0.033 0.339,-0.022C0.322,-0.01 0.302,-0.001 0.28,0.004C0.258,0.009 0.236,0.012 0.213,0.012C0.177,0.012 0.143,0.005 0.113,-0.009C0.082,-0.022 0.055,-0.046 0.033,-0.079L0.09,-0.118C0.103,-0.097 0.12,-0.08 0.141,-0.067C0.161,-0.054 0.185,-0.048 0.213,-0.048C0.226,-0.048 0.24,-0.049 0.253,-0.053C0.266,-0.056 0.278,-0.06 0.289,-0.067C0.299,-0.073 0.307,-0.081 0.314,-0.091C0.32,-0.101 0.323,-0.113 0.323,-0.126C0.323,-0.149 0.314,-0.166 0.297,-0.177C0.28,-0.187 0.259,-0.195 0.234,-0.201L0.17,-0.216C0.162,-0.218 0.151,-0.221 0.138,-0.226C0.124,-0.231 0.111,-0.238 0.098,-0.247C0.085,-0.256 0.073,-0.269 0.064,-0.284C0.055,-0.299 0.05,-0.317 0.05,-0.339C0.05,-0.363 0.055,-0.384 0.065,-0.402C0.074,-0.42 0.087,-0.435 0.104,-0.446C0.12,-0.457 0.138,-0.466 0.159,-0.472C0.18,-0.477 0.201,-0.48 0.223,-0.48C0.256,-0.48 0.286,-0.474 0.314,-0.461C0.342,-0.448 0.364,-0.427 0.379,-0.396L0.32,-0.357Z" style="fill:rgb(63,143,49);fill-rule:nonzero;"/>
            </g>
            <g transform="matrix(76.988,0,0,76.988,1772.09,943.372)">
                <path d="M0.473,-0.234C0.473,-0.26 0.469,-0.284 0.461,-0.307C0.452,-0.33 0.44,-0.349 0.425,-0.366C0.41,-0.383 0.391,-0.396 0.37,-0.406C0.348,-0.415 0.323,-0.42 0.296,-0.42C0.269,-0.42 0.244,-0.415 0.223,-0.406C0.201,-0.396 0.183,-0.383 0.168,-0.366C0.153,-0.349 0.141,-0.33 0.133,-0.307C0.124,-0.284 0.12,-0.26 0.12,-0.234C0.12,-0.208 0.124,-0.184 0.133,-0.161C0.141,-0.138 0.153,-0.119 0.168,-0.102C0.183,-0.085 0.201,-0.072 0.223,-0.063C0.244,-0.053 0.269,-0.048 0.296,-0.048C0.323,-0.048 0.348,-0.053 0.37,-0.063C0.391,-0.072 0.41,-0.085 0.425,-0.102C0.44,-0.119 0.452,-0.138 0.461,-0.161C0.469,-0.184 0.473,-0.208 0.473,-0.234ZM0.545,-0.234C0.545,-0.199 0.539,-0.166 0.527,-0.136C0.514,-0.106 0.497,-0.08 0.475,-0.058C0.453,-0.036 0.427,-0.019 0.397,-0.007C0.366,0.006 0.333,0.012 0.296,0.012C0.26,0.012 0.227,0.006 0.197,-0.007C0.166,-0.019 0.14,-0.036 0.118,-0.058C0.096,-0.08 0.079,-0.106 0.067,-0.136C0.054,-0.166 0.048,-0.199 0.048,-0.234C0.048,-0.269 0.054,-0.302 0.067,-0.332C0.079,-0.362 0.096,-0.388 0.118,-0.41C0.14,-0.432 0.166,-0.449 0.197,-0.462C0.227,-0.474 0.26,-0.48 0.296,-0.48C0.333,-0.48 0.366,-0.474 0.397,-0.462C0.427,-0.449 0.453,-0.432 0.475,-0.41C0.497,-0.388 0.514,-0.362 0.527,-0.332C0.539,-0.302 0.545,-0.269 0.545,-0.234Z" style="fill:rgb(63,143,49);fill-rule:nonzero;"/>
            </g>
            <g transform="matrix(76.988,0,0,76.988,1817.74,943.372)">
                <rect x="0.087" y="-0.756" width="0.066" height="0.756" style="fill:rgb(63,143,49);fill-rule:nonzero;"/>
            </g>
            <g transform="matrix(76.988,0,0,76.988,1836.22,943.372)">
                <path d="M0.41,-0C0.409,-0.013 0.408,-0.025 0.408,-0.038C0.407,-0.05 0.407,-0.062 0.407,-0.075L0.405,-0.075C0.398,-0.062 0.388,-0.051 0.377,-0.04C0.366,-0.029 0.353,-0.02 0.339,-0.013C0.325,-0.005 0.31,0.001 0.295,0.006C0.279,0.01 0.263,0.012 0.248,0.012C0.188,0.012 0.144,-0.004 0.115,-0.036C0.086,-0.067 0.072,-0.112 0.072,-0.171L0.072,-0.468L0.138,-0.468L0.138,-0.209C0.138,-0.183 0.14,-0.16 0.144,-0.14C0.148,-0.12 0.155,-0.103 0.165,-0.09C0.174,-0.076 0.187,-0.066 0.204,-0.059C0.22,-0.051 0.24,-0.048 0.265,-0.048C0.268,-0.048 0.278,-0.049 0.293,-0.052C0.308,-0.055 0.325,-0.062 0.342,-0.074C0.359,-0.086 0.374,-0.104 0.387,-0.128C0.4,-0.152 0.407,-0.185 0.407,-0.228L0.407,-0.468L0.473,-0.468L0.473,-0.103C0.473,-0.09 0.474,-0.074 0.475,-0.055C0.476,-0.036 0.477,-0.017 0.478,-0L0.41,-0Z" style="fill:rgb(63,143,49);fill-rule:nonzero;"/>
            </g>
            <g transform="matrix(76.988,0,0,76.988,1879.02,943.372)">
                <path d="M0.314,-0.408L0.179,-0.408L0.179,-0.132C0.179,-0.115 0.181,-0.1 0.184,-0.09C0.187,-0.079 0.192,-0.07 0.198,-0.064C0.204,-0.058 0.211,-0.054 0.22,-0.052C0.228,-0.049 0.237,-0.048 0.247,-0.048C0.258,-0.048 0.27,-0.05 0.282,-0.053C0.294,-0.056 0.305,-0.061 0.315,-0.066L0.318,-0.005C0.293,0.006 0.264,0.012 0.229,0.012C0.216,0.012 0.203,0.01 0.19,0.007C0.176,0.004 0.163,-0.003 0.152,-0.012C0.141,-0.021 0.131,-0.034 0.124,-0.05C0.117,-0.066 0.113,-0.087 0.113,-0.113L0.113,-0.408L0.014,-0.408L0.014,-0.468L0.113,-0.468L0.113,-0.6L0.179,-0.6L0.179,-0.468L0.314,-0.468L0.314,-0.408Z" style="fill:rgb(63,143,49);fill-rule:nonzero;"/>
            </g>
            <g transform="matrix(76.988,0,0,76.988,1904.58,943.372)">
                <path d="M0.168,-0.648C0.168,-0.634 0.163,-0.623 0.153,-0.614C0.143,-0.604 0.132,-0.6 0.12,-0.6C0.108,-0.6 0.097,-0.604 0.087,-0.614C0.077,-0.623 0.072,-0.634 0.072,-0.648C0.072,-0.662 0.077,-0.674 0.087,-0.683C0.097,-0.692 0.108,-0.696 0.12,-0.696C0.132,-0.696 0.143,-0.692 0.153,-0.683C0.163,-0.674 0.168,-0.662 0.168,-0.648ZM0.153,-0L0.087,-0L0.087,-0.468L0.153,-0.468L0.153,-0Z" style="fill:rgb(63,143,49);fill-rule:nonzero;"/>
            </g>
            <g transform="matrix(76.988,0,0,76.988,1923.06,943.372)">
                <path d="M0.473,-0.234C0.473,-0.26 0.469,-0.284 0.461,-0.307C0.452,-0.33 0.44,-0.349 0.425,-0.366C0.41,-0.383 0.391,-0.396 0.37,-0.406C0.348,-0.415 0.323,-0.42 0.296,-0.42C0.269,-0.42 0.244,-0.415 0.223,-0.406C0.201,-0.396 0.183,-0.383 0.168,-0.366C0.153,-0.349 0.141,-0.33 0.133,-0.307C0.124,-0.284 0.12,-0.26 0.12,-0.234C0.12,-0.208 0.124,-0.184 0.133,-0.161C0.141,-0.138 0.153,-0.119 0.168,-0.102C0.183,-0.085 0.201,-0.072 0.223,-0.063C0.244,-0.053 0.269,-0.048 0.296,-0.048C0.323,-0.048 0.348,-0.053 0.37,-0.063C0.391,-0.072 0.41,-0.085 0.425,-0.102C0.44,-0.119 0.452,-0.138 0.461,-0.161C0.469,-0.184 0.473,-0.208 0.473,-0.234ZM0.545,-0.234C0.545,-0.199 0.539,-0.166 0.527,-0.136C0.514,-0.106 0.497,-0.08 0.475,-0.058C0.453,-0.036 0.427,-0.019 0.397,-0.007C0.366,0.006 0.333,0.012 0.296,0.012C0.26,0.012 0.227,0.006 0.197,-0.007C0.166,-0.019 0.14,-0.036 0.118,-0.058C0.096,-0.08 0.079,-0.106 0.067,-0.136C0.054,-0.166 0.048,-0.199 0.048,-0.234C0.048,-0.269 0.054,-0.302 0.067,-0.332C0.079,-0.362 0.096,-0.388 0.118,-0.41C0.14,-0.432 0.166,-0.449 0.197,-0.462C0.227,-0.474 0.26,-0.48 0.296,-0.48C0.333,-0.48 0.366,-0.474 0.397,-0.462C0.427,-0.449 0.453,-0.432 0.475,-0.41C0.497,-0.388 0.514,-0.362 0.527,-0.332C0.539,-0.302 0.545,-0.269 0.545,-0.234Z" style="fill:rgb(63,143,49);fill-rule:nonzero;"/>
            </g>
            <g transform="matrix(76.988,0,0,76.988,1968.72,943.372)">
                <path d="M0.135,-0.468C0.136,-0.455 0.137,-0.443 0.138,-0.431C0.138,-0.418 0.138,-0.406 0.138,-0.393L0.14,-0.393C0.147,-0.406 0.157,-0.417 0.168,-0.428C0.179,-0.439 0.192,-0.448 0.206,-0.456C0.22,-0.463 0.235,-0.469 0.251,-0.474C0.266,-0.478 0.282,-0.48 0.297,-0.48C0.357,-0.48 0.401,-0.464 0.43,-0.433C0.459,-0.401 0.473,-0.356 0.473,-0.297L0.473,-0L0.407,-0L0.407,-0.259C0.407,-0.311 0.398,-0.351 0.38,-0.379C0.362,-0.406 0.329,-0.42 0.28,-0.42C0.277,-0.42 0.267,-0.419 0.252,-0.416C0.237,-0.413 0.221,-0.406 0.204,-0.394C0.187,-0.382 0.171,-0.364 0.158,-0.34C0.145,-0.316 0.138,-0.283 0.138,-0.24L0.138,-0L0.072,-0L0.072,-0.365C0.072,-0.378 0.072,-0.394 0.071,-0.413C0.07,-0.432 0.068,-0.451 0.067,-0.468L0.135,-0.468Z" style="fill:rgb(63,143,49);fill-rule:nonzero;"/>
            </g>
        </g>
        <g transform="matrix(0.501161,-1.65715e-17,1.65715e-17,0.501161,1082.53,461.451)">
            <path d="M271.166,925.051L796.907,285.289" style="fill:none;stroke:rgb(38,53,186);stroke-width:34.16px;stroke-dasharray:53.38,34.16,0,0;"/>
        </g>
        <g transform="matrix(1.01498,0,0,1.01498,921.282,-13.5731)">
            <path d="M841.35,906.375L841.35,949.199" style="fill:none;stroke:black;stroke-width:16.87px;"/>
        </g>
        <g transform="matrix(1,0,0,1,-11.6854,5.05335)">
            <path d="M1444.07,611.377L1534.15,570.794" style="fill:none;stroke:rgb(255,0,14);stroke-width:17.12px;stroke-dasharray:26.75,17.12,0,0;"/>
        </g>
        <g transform="matrix(0.929844,-0.367953,0.367953,0.929844,-166.243,568.173)">
            <g transform="matrix(39.0049,0,0,39.0049,1386.56,598.469)">
                <path d="M0.072,-0.364C0.072,-0.381 0.072,-0.399 0.071,-0.416C0.07,-0.433 0.068,-0.451 0.067,-0.468L0.138,-0.468L0.138,-0.397L0.14,-0.397C0.156,-0.424 0.178,-0.445 0.207,-0.459C0.235,-0.473 0.263,-0.48 0.291,-0.48C0.304,-0.48 0.317,-0.479 0.332,-0.476C0.346,-0.473 0.36,-0.468 0.373,-0.462C0.386,-0.455 0.399,-0.445 0.411,-0.432C0.422,-0.419 0.432,-0.403 0.44,-0.383C0.453,-0.413 0.475,-0.437 0.504,-0.454C0.533,-0.471 0.563,-0.48 0.594,-0.48C0.654,-0.48 0.698,-0.464 0.727,-0.433C0.756,-0.401 0.77,-0.356 0.77,-0.297L0.77,-0L0.704,-0L0.704,-0.273C0.704,-0.32 0.696,-0.357 0.679,-0.382C0.662,-0.407 0.631,-0.42 0.586,-0.42C0.561,-0.42 0.541,-0.415 0.524,-0.406C0.507,-0.396 0.494,-0.383 0.484,-0.367C0.473,-0.351 0.466,-0.333 0.461,-0.313C0.456,-0.292 0.454,-0.271 0.454,-0.249L0.454,-0L0.388,-0L0.388,-0.273C0.388,-0.32 0.38,-0.357 0.363,-0.382C0.346,-0.407 0.315,-0.42 0.27,-0.42C0.266,-0.42 0.257,-0.419 0.243,-0.416C0.228,-0.413 0.213,-0.406 0.198,-0.394C0.183,-0.382 0.169,-0.364 0.157,-0.34C0.144,-0.316 0.138,-0.283 0.138,-0.24L0.138,-0L0.072,-0L0.072,-0.364Z" style="fill:rgb(255,14,0);fill-rule:nonzero;"/>
            </g>
            <g transform="matrix(39.0049,0,0,39.0049,1419.79,598.469)">
                <path d="M0.168,-0.648C0.168,-0.634 0.163,-0.623 0.153,-0.614C0.143,-0.604 0.132,-0.6 0.12,-0.6C0.108,-0.6 0.097,-0.604 0.087,-0.614C0.077,-0.623 0.072,-0.634 0.072,-0.648C0.072,-0.662 0.077,-0.674 0.087,-0.683C0.097,-0.692 0.108,-0.696 0.12,-0.696C0.132,-0.696 0.143,-0.692 0.153,-0.683C0.163,-0.674 0.168,-0.662 0.168,-0.648ZM0.153,-0L0.087,-0L0.087,-0.468L0.153,-0.468L0.153,-0Z" style="fill:rgb(255,14,0);fill-rule:nonzero;"/>
            </g>
            <g transform="matrix(39.0049,0,0,39.0049,1429.16,598.469)">
                <path d="M0.112,-0.234C0.112,-0.208 0.116,-0.184 0.125,-0.161C0.133,-0.138 0.145,-0.119 0.16,-0.102C0.175,-0.085 0.194,-0.072 0.216,-0.063C0.237,-0.053 0.262,-0.048 0.289,-0.048C0.316,-0.048 0.341,-0.053 0.364,-0.063C0.387,-0.072 0.406,-0.085 0.423,-0.102C0.44,-0.119 0.453,-0.138 0.462,-0.161C0.471,-0.184 0.476,-0.208 0.476,-0.234C0.476,-0.26 0.471,-0.284 0.462,-0.307C0.453,-0.33 0.44,-0.349 0.423,-0.366C0.406,-0.383 0.387,-0.396 0.364,-0.406C0.341,-0.415 0.316,-0.42 0.289,-0.42C0.262,-0.42 0.237,-0.415 0.216,-0.406C0.194,-0.396 0.175,-0.383 0.16,-0.366C0.145,-0.349 0.133,-0.33 0.125,-0.307C0.116,-0.284 0.112,-0.26 0.112,-0.234ZM0.539,-0L0.473,-0L0.473,-0.078L0.471,-0.078C0.46,-0.062 0.448,-0.048 0.433,-0.037C0.418,-0.026 0.403,-0.016 0.387,-0.009C0.371,-0.002 0.355,0.004 0.338,0.007C0.321,0.01 0.304,0.012 0.289,0.012C0.252,0.012 0.219,0.006 0.189,-0.007C0.158,-0.019 0.132,-0.036 0.11,-0.058C0.088,-0.08 0.071,-0.106 0.059,-0.136C0.046,-0.166 0.04,-0.199 0.04,-0.234C0.04,-0.269 0.046,-0.302 0.059,-0.332C0.071,-0.362 0.088,-0.388 0.11,-0.41C0.132,-0.432 0.158,-0.449 0.189,-0.462C0.219,-0.474 0.252,-0.48 0.289,-0.48C0.304,-0.48 0.321,-0.478 0.338,-0.475C0.355,-0.472 0.371,-0.466 0.387,-0.459C0.403,-0.452 0.418,-0.442 0.433,-0.431C0.448,-0.42 0.46,-0.406 0.471,-0.39L0.473,-0.39L0.473,-0.756L0.539,-0.756L0.539,-0Z" style="fill:rgb(255,14,0);fill-rule:nonzero;"/>
            </g>
            <g transform="matrix(39.0049,0,0,39.0049,1452.99,598.469)">
                <path d="M0.499,-0.234C0.499,-0.26 0.495,-0.284 0.487,-0.307C0.478,-0.33 0.466,-0.349 0.451,-0.366C0.436,-0.383 0.417,-0.396 0.396,-0.406C0.374,-0.415 0.349,-0.42 0.322,-0.42C0.295,-0.42 0.27,-0.415 0.247,-0.406C0.224,-0.396 0.205,-0.383 0.188,-0.366C0.171,-0.349 0.158,-0.33 0.149,-0.307C0.14,-0.284 0.135,-0.26 0.135,-0.234C0.135,-0.208 0.14,-0.184 0.149,-0.161C0.158,-0.138 0.171,-0.119 0.188,-0.102C0.205,-0.085 0.224,-0.072 0.247,-0.063C0.27,-0.053 0.295,-0.048 0.322,-0.048C0.349,-0.048 0.374,-0.053 0.396,-0.063C0.417,-0.072 0.436,-0.085 0.451,-0.102C0.466,-0.119 0.478,-0.138 0.487,-0.161C0.495,-0.184 0.499,-0.208 0.499,-0.234ZM0.072,-0.468L0.138,-0.468L0.138,-0.39L0.14,-0.39C0.151,-0.406 0.163,-0.42 0.178,-0.431C0.193,-0.442 0.208,-0.452 0.224,-0.459C0.24,-0.466 0.257,-0.472 0.274,-0.475C0.291,-0.478 0.307,-0.48 0.322,-0.48C0.359,-0.48 0.392,-0.474 0.423,-0.462C0.453,-0.449 0.479,-0.432 0.501,-0.41C0.523,-0.388 0.54,-0.362 0.553,-0.332C0.565,-0.302 0.571,-0.269 0.571,-0.234C0.571,-0.199 0.565,-0.166 0.553,-0.136C0.54,-0.106 0.523,-0.08 0.501,-0.058C0.479,-0.036 0.453,-0.019 0.423,-0.007C0.392,0.006 0.359,0.012 0.322,0.012C0.307,0.012 0.291,0.01 0.274,0.007C0.257,0.004 0.24,-0.002 0.224,-0.009C0.208,-0.016 0.193,-0.026 0.178,-0.037C0.163,-0.048 0.151,-0.062 0.14,-0.078L0.138,-0.078L0.138,0.288L0.072,0.288L0.072,-0.468Z" style="fill:rgb(255,14,0);fill-rule:nonzero;"/>
            </g>
            <g transform="matrix(39.0049,0,0,39.0049,1476.82,598.469)">
                <path d="M0.473,-0.234C0.473,-0.26 0.469,-0.284 0.461,-0.307C0.452,-0.33 0.44,-0.349 0.425,-0.366C0.41,-0.383 0.391,-0.396 0.37,-0.406C0.348,-0.415 0.323,-0.42 0.296,-0.42C0.269,-0.42 0.244,-0.415 0.223,-0.406C0.201,-0.396 0.183,-0.383 0.168,-0.366C0.153,-0.349 0.141,-0.33 0.133,-0.307C0.124,-0.284 0.12,-0.26 0.12,-0.234C0.12,-0.208 0.124,-0.184 0.133,-0.161C0.141,-0.138 0.153,-0.119 0.168,-0.102C0.183,-0.085 0.201,-0.072 0.223,-0.063C0.244,-0.053 0.269,-0.048 0.296,-0.048C0.323,-0.048 0.348,-0.053 0.37,-0.063C0.391,-0.072 0.41,-0.085 0.425,-0.102C0.44,-0.119 0.452,-0.138 0.461,-0.161C0.469,-0.184 0.473,-0.208 0.473,-0.234ZM0.545,-0.234C0.545,-0.199 0.539,-0.166 0.527,-0.136C0.514,-0.106 0.497,-0.08 0.475,-0.058C0.453,-0.036 0.427,-0.019 0.397,-0.007C0.366,0.006 0.333,0.012 0.296,0.012C0.26,0.012 0.227,0.006 0.197,-0.007C0.166,-0.019 0.14,-0.036 0.118,-0.058C0.096,-0.08 0.079,-0.106 0.067,-0.136C0.054,-0.166 0.048,-0.199 0.048,-0.234C0.048,-0.269 0.054,-0.302 0.067,-0.332C0.079,-0.362 0.096,-0.388 0.118,-0.41C0.14,-0.432 0.166,-0.449 0.197,-0.462C0.227,-0.474 0.26,-0.48 0.296,-0.48C0.333,-0.48 0.366,-0.474 0.397,-0.462C0.427,-0.449 0.453,-0.432 0.475,-0.41C0.497,-0.388 0.514,-0.362 0.527,-0.332C0.539,-0.302 0.545,-0.269 0.545,-0.234Z" style="fill:rgb(255,14,0);fill-rule:nonzero;"/>
            </g>
            <g transform="matrix(39.0049,0,0,39.0049,1499.95,598.469)">
                <path d="M0.168,-0.648C0.168,-0.634 0.163,-0.623 0.153,-0.614C0.143,-0.604 0.132,-0.6 0.12,-0.6C0.108,-0.6 0.097,-0.604 0.087,-0.614C0.077,-0.623 0.072,-0.634 0.072,-0.648C0.072,-0.662 0.077,-0.674 0.087,-0.683C0.097,-0.692 0.108,-0.696 0.12,-0.696C0.132,-0.696 0.143,-0.692 0.153,-0.683C0.163,-0.674 0.168,-0.662 0.168,-0.648ZM0.153,-0L0.087,-0L0.087,-0.468L0.153,-0.468L0.153,-0Z" style="fill:rgb(255,14,0);fill-rule:nonzero;"/>
            </g>
            <g transform="matrix(39.0049,0,0,39.0049,1509.31,598.469)">
                <path d="M0.135,-0.468C0.136,-0.455 0.137,-0.443 0.138,-0.431C0.138,-0.418 0.138,-0.406 0.138,-0.393L0.14,-0.393C0.147,-0.406 0.157,-0.417 0.168,-0.428C0.179,-0.439 0.192,-0.448 0.206,-0.456C0.22,-0.463 0.235,-0.469 0.251,-0.474C0.266,-0.478 0.282,-0.48 0.297,-0.48C0.357,-0.48 0.401,-0.464 0.43,-0.433C0.459,-0.401 0.473,-0.356 0.473,-0.297L0.473,-0L0.407,-0L0.407,-0.259C0.407,-0.311 0.398,-0.351 0.38,-0.379C0.362,-0.406 0.329,-0.42 0.28,-0.42C0.277,-0.42 0.267,-0.419 0.252,-0.416C0.237,-0.413 0.221,-0.406 0.204,-0.394C0.187,-0.382 0.171,-0.364 0.158,-0.34C0.145,-0.316 0.138,-0.283 0.138,-0.24L0.138,-0L0.072,-0L0.072,-0.365C0.072,-0.378 0.072,-0.394 0.071,-0.413C0.07,-0.432 0.068,-0.451 0.067,-0.468L0.135,-0.468Z" style="fill:rgb(255,14,0);fill-rule:nonzero;"/>
            </g>
            <g transform="matrix(39.0049,0,0,39.0049,1531,598.469)">
                <path d="M0.314,-0.408L0.179,-0.408L0.179,-0.132C0.179,-0.115 0.181,-0.1 0.184,-0.09C0.187,-0.079 0.192,-0.07 0.198,-0.064C0.204,-0.058 0.211,-0.054 0.22,-0.052C0.228,-0.049 0.237,-0.048 0.247,-0.048C0.258,-0.048 0.27,-0.05 0.282,-0.053C0.294,-0.056 0.305,-0.061 0.315,-0.066L0.318,-0.005C0.293,0.006 0.264,0.012 0.229,0.012C0.216,0.012 0.203,0.01 0.19,0.007C0.176,0.004 0.163,-0.003 0.152,-0.012C0.141,-0.021 0.131,-0.034 0.124,-0.05C0.117,-0.066 0.113,-0.087 0.113,-0.113L0.113,-0.408L0.014,-0.408L0.014,-0.468L0.113,-0.468L0.113,-0.6L0.179,-0.6L0.179,-0.468L0.314,-0.468L0.314,-0.408Z" style="fill:rgb(255,14,0);fill-rule:nonzero;"/>
            </g>
            <g transform="matrix(39.0049,0,0,39.0049,1554.79,598.469)">
                <path d="M0.32,-0.357C0.31,-0.376 0.297,-0.392 0.28,-0.403C0.263,-0.414 0.243,-0.42 0.219,-0.42C0.208,-0.42 0.196,-0.419 0.185,-0.416C0.173,-0.413 0.162,-0.409 0.153,-0.404C0.144,-0.398 0.136,-0.391 0.131,-0.382C0.125,-0.373 0.122,-0.363 0.122,-0.35C0.122,-0.328 0.13,-0.312 0.145,-0.302C0.16,-0.292 0.183,-0.283 0.214,-0.276L0.281,-0.26C0.314,-0.253 0.341,-0.238 0.363,-0.216C0.384,-0.193 0.395,-0.165 0.395,-0.132C0.395,-0.107 0.39,-0.085 0.38,-0.067C0.369,-0.048 0.356,-0.033 0.339,-0.022C0.322,-0.01 0.302,-0.001 0.28,0.004C0.258,0.009 0.236,0.012 0.213,0.012C0.177,0.012 0.143,0.005 0.113,-0.009C0.082,-0.022 0.055,-0.046 0.033,-0.079L0.09,-0.118C0.103,-0.097 0.12,-0.08 0.141,-0.067C0.161,-0.054 0.185,-0.048 0.213,-0.048C0.226,-0.048 0.24,-0.049 0.253,-0.053C0.266,-0.056 0.278,-0.06 0.289,-0.067C0.299,-0.073 0.307,-0.081 0.314,-0.091C0.32,-0.101 0.323,-0.113 0.323,-0.126C0.323,-0.149 0.314,-0.166 0.297,-0.177C0.28,-0.187 0.259,-0.195 0.234,-0.201L0.17,-0.216C0.162,-0.218 0.151,-0.221 0.138,-0.226C0.124,-0.231 0.111,-0.238 0.098,-0.247C0.085,-0.256 0.073,-0.269 0.064,-0.284C0.055,-0.299 0.05,-0.317 0.05,-0.339C0.05,-0.363 0.055,-0.384 0.065,-0.402C0.074,-0.42 0.087,-0.435 0.104,-0.446C0.12,-0.457 0.138,-0.466 0.159,-0.472C0.18,-0.477 0.201,-0.48 0.223,-0.48C0.256,-0.48 0.286,-0.474 0.314,-0.461C0.342,-0.448 0.364,-0.427 0.379,-0.396L0.32,-0.357Z" style="fill:rgb(255,14,0);fill-rule:nonzero;"/>
            </g>
            <g transform="matrix(39.0049,0,0,39.0049,1571.41,598.469)">
                <rect x="0.087" y="-0.756" width="0.066" height="0.756" style="fill:rgb(255,14,0);fill-rule:nonzero;"/>
            </g>
            <g transform="matrix(39.0049,0,0,39.0049,1580.77,598.469)">
                <path d="M0.473,-0.234C0.473,-0.26 0.469,-0.284 0.461,-0.307C0.452,-0.33 0.44,-0.349 0.425,-0.366C0.41,-0.383 0.391,-0.396 0.37,-0.406C0.348,-0.415 0.323,-0.42 0.296,-0.42C0.269,-0.42 0.244,-0.415 0.223,-0.406C0.201,-0.396 0.183,-0.383 0.168,-0.366C0.153,-0.349 0.141,-0.33 0.133,-0.307C0.124,-0.284 0.12,-0.26 0.12,-0.234C0.12,-0.208 0.124,-0.184 0.133,-0.161C0.141,-0.138 0.153,-0.119 0.168,-0.102C0.183,-0.085 0.201,-0.072 0.223,-0.063C0.244,-0.053 0.269,-0.048 0.296,-0.048C0.323,-0.048 0.348,-0.053 0.37,-0.063C0.391,-0.072 0.41,-0.085 0.425,-0.102C0.44,-0.119 0.452,-0.138 0.461,-0.161C0.469,-0.184 0.473,-0.208 0.473,-0.234ZM0.545,-0.234C0.545,-0.199 0.539,-0.166 0.527,-0.136C0.514,-0.106 0.497,-0.08 0.475,-0.058C0.453,-0.036 0.427,-0.019 0.397,-0.007C0.366,0.006 0.333,0.012 0.296,0.012C0.26,0.012 0.227,0.006 0.197,-0.007C0.166,-0.019 0.14,-0.036 0.118,-0.058C0.096,-0.08 0.079,-0.106 0.067,-0.136C0.054,-0.166 0.048,-0.199 0.048,-0.234C0.048,-0.269 0.054,-0.302 0.067,-0.332C0.079,-0.362 0.096,-0.388 0.118,-0.41C0.14,-0.432 0.166,-0.449 0.197,-0.462C0.227,-0.474 0.26,-0.48 0.296,-0.48C0.333,-0.48 0.366,-0.474 0.397,-0.462C0.427,-0.449 0.453,-0.432 0.475,-0.41C0.497,-0.388 0.514,-0.362 0.527,-0.332C0.539,-0.302 0.545,-0.269 0.545,-0.234Z" style="fill:rgb(255,14,0);fill-rule:nonzero;"/>
            </g>
            <g transform="matrix(39.0049,0,0,39.0049,1603.9,598.469)">
                <path d="M0.499,-0.234C0.499,-0.26 0.495,-0.284 0.487,-0.307C0.478,-0.33 0.466,-0.349 0.451,-0.366C0.436,-0.383 0.417,-0.396 0.396,-0.406C0.374,-0.415 0.349,-0.42 0.322,-0.42C0.295,-0.42 0.27,-0.415 0.247,-0.406C0.224,-0.396 0.205,-0.383 0.188,-0.366C0.171,-0.349 0.158,-0.33 0.149,-0.307C0.14,-0.284 0.135,-0.26 0.135,-0.234C0.135,-0.208 0.14,-0.184 0.149,-0.161C0.158,-0.138 0.171,-0.119 0.188,-0.102C0.205,-0.085 0.224,-0.072 0.247,-0.063C0.27,-0.053 0.295,-0.048 0.322,-0.048C0.349,-0.048 0.374,-0.053 0.396,-0.063C0.417,-0.072 0.436,-0.085 0.451,-0.102C0.466,-0.119 0.478,-0.138 0.487,-0.161C0.495,-0.184 0.499,-0.208 0.499,-0.234ZM0.072,-0.468L0.138,-0.468L0.138,-0.39L0.14,-0.39C0.151,-0.406 0.163,-0.42 0.178,-0.431C0.193,-0.442 0.208,-0.452 0.224,-0.459C0.24,-0.466 0.257,-0.472 0.274,-0.475C0.291,-0.478 0.307,-0.48 0.322,-0.48C0.359,-0.48 0.392,-0.474 0.423,-0.462C0.453,-0.449 0.479,-0.432 0.501,-0.41C0.523,-0.388 0.54,-0.362 0.553,-0.332C0.565,-0.302 0.571,-0.269 0.571,-0.234C0.571,-0.199 0.565,-0.166 0.553,-0.136C0.54,-0.106 0.523,-0.08 0.501,-0.058C0.479,-0.036 0.453,-0.019 0.423,-0.007C0.392,0.006 0.359,0.012 0.322,0.012C0.307,0.012 0.291,0.01 0.274,0.007C0.257,0.004 0.24,-0.002 0.224,-0.009C0.208,-0.016 0.193,-0.026 0.178,-0.037C0.163,-0.048 0.151,-0.062 0.14,-0.078L0.138,-0.078L0.138,0.288L0.072,0.288L0.072,-0.468Z" style="fill:rgb(255,14,0);fill-rule:nonzero;"/>
            </g>
            <g transform="matrix(39.0049,0,0,39.0049,1627.73,598.469)">
                <path d="M0.436,-0.27C0.436,-0.315 0.423,-0.351 0.396,-0.379C0.369,-0.406 0.332,-0.42 0.284,-0.42C0.263,-0.42 0.242,-0.416 0.222,-0.408C0.202,-0.399 0.185,-0.388 0.17,-0.374C0.155,-0.36 0.142,-0.344 0.134,-0.326C0.125,-0.308 0.12,-0.289 0.12,-0.27L0.436,-0.27ZM0.118,-0.216C0.12,-0.193 0.126,-0.171 0.135,-0.15C0.144,-0.129 0.157,-0.112 0.172,-0.097C0.187,-0.082 0.205,-0.07 0.225,-0.061C0.245,-0.052 0.267,-0.048 0.29,-0.048C0.325,-0.048 0.356,-0.056 0.382,-0.073C0.407,-0.089 0.427,-0.108 0.44,-0.129L0.491,-0.087C0.463,-0.052 0.432,-0.026 0.399,-0.011C0.365,0.004 0.329,0.012 0.29,0.012C0.255,0.012 0.223,0.006 0.194,-0.007C0.164,-0.019 0.138,-0.036 0.117,-0.058C0.096,-0.08 0.079,-0.106 0.067,-0.136C0.054,-0.166 0.048,-0.199 0.048,-0.234C0.048,-0.269 0.054,-0.302 0.066,-0.332C0.078,-0.362 0.095,-0.388 0.116,-0.41C0.137,-0.432 0.162,-0.449 0.191,-0.462C0.22,-0.474 0.251,-0.48 0.284,-0.48C0.319,-0.48 0.351,-0.474 0.379,-0.461C0.407,-0.448 0.431,-0.432 0.45,-0.411C0.468,-0.39 0.483,-0.365 0.493,-0.337C0.503,-0.308 0.508,-0.278 0.508,-0.246L0.508,-0.216L0.118,-0.216Z" style="fill:rgb(255,14,0);fill-rule:nonzero;"/>
            </g>
            <g transform="matrix(39.0049,0,0,39.0049,1660.26,598.469)">
                <path d="M0.138,-0.257L0.359,-0.468L0.458,-0.468L0.225,-0.254L0.483,-0L0.381,-0L0.138,-0.246L0.138,-0L0.072,-0L0.072,-0.756L0.138,-0.756L0.138,-0.257Z" style="fill:rgb(255,14,0);fill-rule:nonzero;"/>
            </g>
        </g>
        <g transform="matrix(0.912531,-0.409008,0.409008,0.912531,-74.644,710.671)">
            <g transform="matrix(17.5666,0,0,17.5666,1629.55,515.381)">
                <path d="M0.498,-0L0.048,-0L0.048,-0.083L0.33,-0.37C0.341,-0.381 0.351,-0.392 0.362,-0.404C0.373,-0.416 0.382,-0.429 0.391,-0.442C0.4,-0.455 0.407,-0.469 0.412,-0.484C0.417,-0.499 0.42,-0.514 0.42,-0.53C0.42,-0.549 0.417,-0.567 0.41,-0.582C0.403,-0.597 0.393,-0.61 0.38,-0.621C0.367,-0.632 0.353,-0.64 0.336,-0.646C0.319,-0.651 0.302,-0.654 0.283,-0.654C0.247,-0.654 0.216,-0.644 0.191,-0.624C0.166,-0.604 0.149,-0.577 0.142,-0.543L0.066,-0.551C0.076,-0.604 0.1,-0.645 0.139,-0.675C0.177,-0.705 0.223,-0.72 0.278,-0.72C0.307,-0.72 0.334,-0.716 0.36,-0.709C0.385,-0.701 0.408,-0.689 0.428,-0.674C0.447,-0.659 0.463,-0.64 0.475,-0.617C0.486,-0.594 0.492,-0.567 0.492,-0.536C0.492,-0.509 0.488,-0.484 0.48,-0.461C0.471,-0.438 0.46,-0.417 0.447,-0.397C0.434,-0.377 0.419,-0.358 0.402,-0.34C0.385,-0.322 0.367,-0.304 0.349,-0.287L0.126,-0.066L0.498,-0.066L0.498,-0Z" style="fill:rgb(218,51,29);fill-rule:nonzero;"/>
            </g>
        </g>
        <path d="M1223.46,926.017L1769.92,688.247" style="fill:none;stroke:rgb(255,0,14);stroke-width:17.12px;"/>
        <g transform="matrix(1,0,0,1,12.5269,-24.0164)">
            <g transform="matrix(84.3082,0,0,84.3082,1320.12,463.725)">
                <path d="M0.072,-0.364C0.072,-0.381 0.072,-0.399 0.071,-0.416C0.07,-0.433 0.068,-0.451 0.067,-0.468L0.138,-0.468L0.138,-0.397L0.14,-0.397C0.156,-0.424 0.178,-0.445 0.207,-0.459C0.235,-0.473 0.263,-0.48 0.291,-0.48C0.304,-0.48 0.317,-0.479 0.332,-0.476C0.346,-0.473 0.36,-0.468 0.373,-0.462C0.386,-0.455 0.399,-0.445 0.411,-0.432C0.422,-0.419 0.432,-0.403 0.44,-0.383C0.453,-0.413 0.475,-0.437 0.504,-0.454C0.533,-0.471 0.563,-0.48 0.594,-0.48C0.654,-0.48 0.698,-0.464 0.727,-0.433C0.756,-0.401 0.77,-0.356 0.77,-0.297L0.77,-0L0.704,-0L0.704,-0.273C0.704,-0.32 0.696,-0.357 0.679,-0.382C0.662,-0.407 0.631,-0.42 0.586,-0.42C0.561,-0.42 0.541,-0.415 0.524,-0.406C0.507,-0.396 0.494,-0.383 0.484,-0.367C0.473,-0.351 0.466,-0.333 0.461,-0.313C0.456,-0.292 0.454,-0.271 0.454,-0.249L0.454,-0L0.388,-0L0.388,-0.273C0.388,-0.32 0.38,-0.357 0.363,-0.382C0.346,-0.407 0.315,-0.42 0.27,-0.42C0.266,-0.42 0.257,-0.419 0.243,-0.416C0.228,-0.413 0.213,-0.406 0.198,-0.394C0.183,-0.382 0.169,-0.364 0.157,-0.34C0.144,-0.316 0.138,-0.283 0.138,-0.24L0.138,-0L0.072,-0L0.072,-0.364Z" style="fill:rgb(255,14,0);fill-rule:nonzero;"/>
            </g>
            <g transform="matrix(84.3082,0,0,84.3082,1391.95,463.725)">
                <path d="M0.168,-0.648C0.168,-0.634 0.163,-0.623 0.153,-0.614C0.143,-0.604 0.132,-0.6 0.12,-0.6C0.108,-0.6 0.097,-0.604 0.087,-0.614C0.077,-0.623 0.072,-0.634 0.072,-0.648C0.072,-0.662 0.077,-0.674 0.087,-0.683C0.097,-0.692 0.108,-0.696 0.12,-0.696C0.132,-0.696 0.143,-0.692 0.153,-0.683C0.163,-0.674 0.168,-0.662 0.168,-0.648ZM0.153,-0L0.087,-0L0.087,-0.468L0.153,-0.468L0.153,-0Z" style="fill:rgb(255,14,0);fill-rule:nonzero;"/>
            </g>
            <g transform="matrix(84.3082,0,0,84.3082,1412.19,463.725)">
                <path d="M0.112,-0.234C0.112,-0.208 0.116,-0.184 0.125,-0.161C0.133,-0.138 0.145,-0.119 0.16,-0.102C0.175,-0.085 0.194,-0.072 0.216,-0.063C0.237,-0.053 0.262,-0.048 0.289,-0.048C0.316,-0.048 0.341,-0.053 0.364,-0.063C0.387,-0.072 0.406,-0.085 0.423,-0.102C0.44,-0.119 0.453,-0.138 0.462,-0.161C0.471,-0.184 0.476,-0.208 0.476,-0.234C0.476,-0.26 0.471,-0.284 0.462,-0.307C0.453,-0.33 0.44,-0.349 0.423,-0.366C0.406,-0.383 0.387,-0.396 0.364,-0.406C0.341,-0.415 0.316,-0.42 0.289,-0.42C0.262,-0.42 0.237,-0.415 0.216,-0.406C0.194,-0.396 0.175,-0.383 0.16,-0.366C0.145,-0.349 0.133,-0.33 0.125,-0.307C0.116,-0.284 0.112,-0.26 0.112,-0.234ZM0.539,-0L0.473,-0L0.473,-0.078L0.471,-0.078C0.46,-0.062 0.448,-0.048 0.433,-0.037C0.418,-0.026 0.403,-0.016 0.387,-0.009C0.371,-0.002 0.355,0.004 0.338,0.007C0.321,0.01 0.304,0.012 0.289,0.012C0.252,0.012 0.219,0.006 0.189,-0.007C0.158,-0.019 0.132,-0.036 0.11,-0.058C0.088,-0.08 0.071,-0.106 0.059,-0.136C0.046,-0.166 0.04,-0.199 0.04,-0.234C0.04,-0.269 0.046,-0.302 0.059,-0.332C0.071,-0.362 0.088,-0.388 0.11,-0.41C0.132,-0.432 0.158,-0.449 0.189,-0.462C0.219,-0.474 0.252,-0.48 0.289,-0.48C0.304,-0.48 0.321,-0.478 0.338,-0.475C0.355,-0.472 0.371,-0.466 0.387,-0.459C0.403,-0.452 0.418,-0.442 0.433,-0.431C0.448,-0.42 0.46,-0.406 0.471,-0.39L0.473,-0.39L0.473,-0.756L0.539,-0.756L0.539,-0Z" style="fill:rgb(255,14,0);fill-rule:nonzero;"/>
            </g>
            <g transform="matrix(84.3082,0,0,84.3082,1463.7,463.725)">
                <path d="M0.499,-0.234C0.499,-0.26 0.495,-0.284 0.487,-0.307C0.478,-0.33 0.466,-0.349 0.451,-0.366C0.436,-0.383 0.417,-0.396 0.396,-0.406C0.374,-0.415 0.349,-0.42 0.322,-0.42C0.295,-0.42 0.27,-0.415 0.247,-0.406C0.224,-0.396 0.205,-0.383 0.188,-0.366C0.171,-0.349 0.158,-0.33 0.149,-0.307C0.14,-0.284 0.135,-0.26 0.135,-0.234C0.135,-0.208 0.14,-0.184 0.149,-0.161C0.158,-0.138 0.171,-0.119 0.188,-0.102C0.205,-0.085 0.224,-0.072 0.247,-0.063C0.27,-0.053 0.295,-0.048 0.322,-0.048C0.349,-0.048 0.374,-0.053 0.396,-0.063C0.417,-0.072 0.436,-0.085 0.451,-0.102C0.466,-0.119 0.478,-0.138 0.487,-0.161C0.495,-0.184 0.499,-0.208 0.499,-0.234ZM0.072,-0.468L0.138,-0.468L0.138,-0.39L0.14,-0.39C0.151,-0.406 0.163,-0.42 0.178,-0.431C0.193,-0.442 0.208,-0.452 0.224,-0.459C0.24,-0.466 0.257,-0.472 0.274,-0.475C0.291,-0.478 0.307,-0.48 0.322,-0.48C0.359,-0.48 0.392,-0.474 0.423,-0.462C0.453,-0.449 0.479,-0.432 0.501,-0.41C0.523,-0.388 0.54,-0.362 0.553,-0.332C0.565,-0.302 0.571,-0.269 0.571,-0.234C0.571,-0.199 0.565,-0.166 0.553,-0.136C0.54,-0.106 0.523,-0.08 0.501,-0.058C0.479,-0.036 0.453,-0.019 0.423,-0.007C0.392,0.006 0.359,0.012 0.322,0.012C0.307,0.012 0.291,0.01 0.274,0.007C0.257,0.004 0.24,-0.002 0.224,-0.009C0.208,-0.016 0.193,-0.026 0.178,-0.037C0.163,-0.048 0.151,-0.062 0.14,-0.078L0.138,-0.078L0.138,0.288L0.072,0.288L0.072,-0.468Z" style="fill:rgb(255,14,0);fill-rule:nonzero;"/>
            </g>
            <g transform="matrix(84.3082,0,0,84.3082,1515.21,463.725)">
                <path d="M0.473,-0.234C0.473,-0.26 0.469,-0.284 0.461,-0.307C0.452,-0.33 0.44,-0.349 0.425,-0.366C0.41,-0.383 0.391,-0.396 0.37,-0.406C0.348,-0.415 0.323,-0.42 0.296,-0.42C0.269,-0.42 0.244,-0.415 0.223,-0.406C0.201,-0.396 0.183,-0.383 0.168,-0.366C0.153,-0.349 0.141,-0.33 0.133,-0.307C0.124,-0.284 0.12,-0.26 0.12,-0.234C0.12,-0.208 0.124,-0.184 0.133,-0.161C0.141,-0.138 0.153,-0.119 0.168,-0.102C0.183,-0.085 0.201,-0.072 0.223,-0.063C0.244,-0.053 0.269,-0.048 0.296,-0.048C0.323,-0.048 0.348,-0.053 0.37,-0.063C0.391,-0.072 0.41,-0.085 0.425,-0.102C0.44,-0.119 0.452,-0.138 0.461,-0.161C0.469,-0.184 0.473,-0.208 0.473,-0.234ZM0.545,-0.234C0.545,-0.199 0.539,-0.166 0.527,-0.136C0.514,-0.106 0.497,-0.08 0.475,-0.058C0.453,-0.036 0.427,-0.019 0.397,-0.007C0.366,0.006 0.333,0.012 0.296,0.012C0.26,0.012 0.227,0.006 0.197,-0.007C0.166,-0.019 0.14,-0.036 0.118,-0.058C0.096,-0.08 0.079,-0.106 0.067,-0.136C0.054,-0.166 0.048,-0.199 0.048,-0.234C0.048,-0.269 0.054,-0.302 0.067,-0.332C0.079,-0.362 0.096,-0.388 0.118,-0.41C0.14,-0.432 0.166,-0.449 0.197,-0.462C0.227,-0.474 0.26,-0.48 0.296,-0.48C0.333,-0.48 0.366,-0.474 0.397,-0.462C0.427,-0.449 0.453,-0.432 0.475,-0.41C0.497,-0.388 0.514,-0.362 0.527,-0.332C0.539,-0.302 0.545,-0.269 0.545,-0.234Z" style="fill:rgb(255,14,0);fill-rule:nonzero;"/>
            </g>
            <g transform="matrix(84.3082,0,0,84.3082,1565.21,463.725)">
                <path d="M0.168,-0.648C0.168,-0.634 0.163,-0.623 0.153,-0.614C0.143,-0.604 0.132,-0.6 0.12,-0.6C0.108,-0.6 0.097,-0.604 0.087,-0.614C0.077,-0.623 0.072,-0.634 0.072,-0.648C0.072,-0.662 0.077,-0.674 0.087,-0.683C0.097,-0.692 0.108,-0.696 0.12,-0.696C0.132,-0.696 0.143,-0.692 0.153,-0.683C0.163,-0.674 0.168,-0.662 0.168,-0.648ZM0.153,-0L0.087,-0L0.087,-0.468L0.153,-0.468L0.153,-0Z" style="fill:rgb(255,14,0);fill-rule:nonzero;"/>
            </g>
            <g transform="matrix(84.3082,0,0,84.3082,1585.44,463.725)">
                <path d="M0.135,-0.468C0.136,-0.455 0.137,-0.443 0.138,-0.431C0.138,-0.418 0.138,-0.406 0.138,-0.393L0.14,-0.393C0.147,-0.406 0.157,-0.417 0.168,-0.428C0.179,-0.439 0.192,-0.448 0.206,-0.456C0.22,-0.463 0.235,-0.469 0.251,-0.474C0.266,-0.478 0.282,-0.48 0.297,-0.48C0.357,-0.48 0.401,-0.464 0.43,-0.433C0.459,-0.401 0.473,-0.356 0.473,-0.297L0.473,-0L0.407,-0L0.407,-0.259C0.407,-0.311 0.398,-0.351 0.38,-0.379C0.362,-0.406 0.329,-0.42 0.28,-0.42C0.277,-0.42 0.267,-0.419 0.252,-0.416C0.237,-0.413 0.221,-0.406 0.204,-0.394C0.187,-0.382 0.171,-0.364 0.158,-0.34C0.145,-0.316 0.138,-0.283 0.138,-0.24L0.138,-0L0.072,-0L0.072,-0.365C0.072,-0.378 0.072,-0.394 0.071,-0.413C0.07,-0.432 0.068,-0.451 0.067,-0.468L0.135,-0.468Z" style="fill:rgb(255,14,0);fill-rule:nonzero;"/>
            </g>
            <g transform="matrix(84.3082,0,0,84.3082,1632.32,463.725)">
                <path d="M0.314,-0.408L0.179,-0.408L0.179,-0.132C0.179,-0.115 0.181,-0.1 0.184,-0.09C0.187,-0.079 0.192,-0.07 0.198,-0.064C0.204,-0.058 0.211,-0.054 0.22,-0.052C0.228,-0.049 0.237,-0.048 0.247,-0.048C0.258,-0.048 0.27,-0.05 0.282,-0.053C0.294,-0.056 0.305,-0.061 0.315,-0.066L0.318,-0.005C0.293,0.006 0.264,0.012 0.229,0.012C0.216,0.012 0.203,0.01 0.19,0.007C0.176,0.004 0.163,-0.003 0.152,-0.012C0.141,-0.021 0.131,-0.034 0.124,-0.05C0.117,-0.066 0.113,-0.087 0.113,-0.113L0.113,-0.408L0.014,-0.408L0.014,-0.468L0.113,-0.468L0.113,-0.6L0.179,-0.6L0.179,-0.468L0.314,-0.468L0.314,-0.408Z" style="fill:rgb(255,14,0);fill-rule:nonzero;"/>
            </g>
            <g transform="matrix(84.3082,0,0,84.3082,1683.74,463.725)">
                <path d="M0.079,-0.322C0.079,-0.343 0.079,-0.364 0.078,-0.385C0.077,-0.406 0.076,-0.434 0.075,-0.468L0.14,-0.468L0.14,-0.381L0.142,-0.381C0.147,-0.394 0.153,-0.406 0.162,-0.418C0.171,-0.429 0.181,-0.44 0.194,-0.449C0.206,-0.458 0.22,-0.466 0.237,-0.472C0.253,-0.477 0.271,-0.48 0.292,-0.48C0.311,-0.48 0.327,-0.478 0.341,-0.474L0.328,-0.409C0.319,-0.412 0.307,-0.414 0.29,-0.414C0.265,-0.414 0.243,-0.409 0.225,-0.4C0.207,-0.39 0.192,-0.378 0.18,-0.363C0.168,-0.347 0.159,-0.331 0.154,-0.314C0.148,-0.297 0.145,-0.28 0.145,-0.264L0.145,-0L0.079,-0L0.079,-0.322Z" style="fill:rgb(255,14,0);fill-rule:nonzero;"/>
            </g>
            <g transform="matrix(84.3082,0,0,84.3082,1711.73,463.725)">
                <path d="M0.41,-0C0.409,-0.013 0.408,-0.025 0.408,-0.038C0.407,-0.05 0.407,-0.062 0.407,-0.075L0.405,-0.075C0.398,-0.062 0.388,-0.051 0.377,-0.04C0.366,-0.029 0.353,-0.02 0.339,-0.013C0.325,-0.005 0.31,0.001 0.295,0.006C0.279,0.01 0.263,0.012 0.248,0.012C0.188,0.012 0.144,-0.004 0.115,-0.036C0.086,-0.067 0.072,-0.112 0.072,-0.171L0.072,-0.468L0.138,-0.468L0.138,-0.209C0.138,-0.183 0.14,-0.16 0.144,-0.14C0.148,-0.12 0.155,-0.103 0.165,-0.09C0.174,-0.076 0.187,-0.066 0.204,-0.059C0.22,-0.051 0.24,-0.048 0.265,-0.048C0.268,-0.048 0.278,-0.049 0.293,-0.052C0.308,-0.055 0.325,-0.062 0.342,-0.074C0.359,-0.086 0.374,-0.104 0.387,-0.128C0.4,-0.152 0.407,-0.185 0.407,-0.228L0.407,-0.468L0.473,-0.468L0.473,-0.103C0.473,-0.09 0.474,-0.074 0.475,-0.055C0.476,-0.036 0.477,-0.017 0.478,-0L0.41,-0Z" style="fill:rgb(255,14,0);fill-rule:nonzero;"/>
            </g>
            <g transform="matrix(84.3082,0,0,84.3082,1758.61,463.725)">
                <rect x="0.087" y="-0.756" width="0.066" height="0.756" style="fill:rgb(255,14,0);fill-rule:nonzero;"/>
            </g>
            <g transform="matrix(84.3082,0,0,84.3082,1778.84,463.725)">
                <path d="M0.436,-0.27C0.436,-0.315 0.423,-0.351 0.396,-0.379C0.369,-0.406 0.332,-0.42 0.284,-0.42C0.263,-0.42 0.242,-0.416 0.222,-0.408C0.202,-0.399 0.185,-0.388 0.17,-0.374C0.155,-0.36 0.142,-0.344 0.134,-0.326C0.125,-0.308 0.12,-0.289 0.12,-0.27L0.436,-0.27ZM0.118,-0.216C0.12,-0.193 0.126,-0.171 0.135,-0.15C0.144,-0.129 0.157,-0.112 0.172,-0.097C0.187,-0.082 0.205,-0.07 0.225,-0.061C0.245,-0.052 0.267,-0.048 0.29,-0.048C0.325,-0.048 0.356,-0.056 0.382,-0.073C0.407,-0.089 0.427,-0.108 0.44,-0.129L0.491,-0.087C0.463,-0.052 0.432,-0.026 0.399,-0.011C0.365,0.004 0.329,0.012 0.29,0.012C0.255,0.012 0.223,0.006 0.194,-0.007C0.164,-0.019 0.138,-0.036 0.117,-0.058C0.096,-0.08 0.079,-0.106 0.067,-0.136C0.054,-0.166 0.048,-0.199 0.048,-0.234C0.048,-0.269 0.054,-0.302 0.066,-0.332C0.078,-0.362 0.095,-0.388 0.116,-0.41C0.137,-0.432 0.162,-0.449 0.191,-0.462C0.22,-0.474 0.251,-0.48 0.284,-0.48C0.319,-0.48 0.351,-0.474 0.379,-0.461C0.407,-0.448 0.431,-0.432 0.45,-0.411C0.468,-0.39 0.483,-0.365 0.493,-0.337C0.503,-0.308 0.508,-0.278 0.508,-0.246L0.508,-0.216L0.118,-0.216Z" style="fill:rgb(255,14,0);fill-rule:nonzero;"/>
            </g>
        </g>
        <g transform="matrix(0.912222,-0.409696,0.409696,0.912222,-296.655,715.737)">
            <g transform="matrix(47.2205,0,0,47.2205,1557.89,881.623)">
                <path d="M0.32,-0.357C0.31,-0.376 0.297,-0.392 0.28,-0.403C0.263,-0.414 0.243,-0.42 0.219,-0.42C0.208,-0.42 0.196,-0.419 0.185,-0.416C0.173,-0.413 0.162,-0.409 0.153,-0.404C0.144,-0.398 0.136,-0.391 0.131,-0.382C0.125,-0.373 0.122,-0.363 0.122,-0.35C0.122,-0.328 0.13,-0.312 0.145,-0.302C0.16,-0.292 0.183,-0.283 0.214,-0.276L0.281,-0.26C0.314,-0.253 0.341,-0.238 0.363,-0.216C0.384,-0.193 0.395,-0.165 0.395,-0.132C0.395,-0.107 0.39,-0.085 0.38,-0.067C0.369,-0.048 0.356,-0.033 0.339,-0.022C0.322,-0.01 0.302,-0.001 0.28,0.004C0.258,0.009 0.236,0.012 0.213,0.012C0.177,0.012 0.143,0.005 0.113,-0.009C0.082,-0.022 0.055,-0.046 0.033,-0.079L0.09,-0.118C0.103,-0.097 0.12,-0.08 0.141,-0.067C0.161,-0.054 0.185,-0.048 0.213,-0.048C0.226,-0.048 0.24,-0.049 0.253,-0.053C0.266,-0.056 0.278,-0.06 0.289,-0.067C0.299,-0.073 0.307,-0.081 0.314,-0.091C0.32,-0.101 0.323,-0.113 0.323,-0.126C0.323,-0.149 0.314,-0.166 0.297,-0.177C0.28,-0.187 0.259,-0.195 0.234,-0.201L0.17,-0.216C0.162,-0.218 0.151,-0.221 0.138,-0.226C0.124,-0.231 0.111,-0.238 0.098,-0.247C0.085,-0.256 0.073,-0.269 0.064,-0.284C0.055,-0.299 0.05,-0.317 0.05,-0.339C0.05,-0.363 0.055,-0.384 0.065,-0.402C0.074,-0.42 0.087,-0.435 0.104,-0.446C0.12,-0.457 0.138,-0.466 0.159,-0.472C0.18,-0.477 0.201,-0.48 0.223,-0.48C0.256,-0.48 0.286,-0.474 0.314,-0.461C0.342,-0.448 0.364,-0.427 0.379,-0.396L0.32,-0.357Z" style="fill:rgb(218,29,32);fill-rule:nonzero;"/>
            </g>
            <g transform="matrix(47.2205,0,0,47.2205,1578,881.623)">
                <path d="M0.072,-0.756L0.138,-0.756L0.138,-0.393L0.14,-0.393C0.147,-0.406 0.157,-0.417 0.168,-0.428C0.179,-0.439 0.192,-0.448 0.206,-0.456C0.22,-0.463 0.235,-0.469 0.251,-0.474C0.266,-0.478 0.282,-0.48 0.297,-0.48C0.357,-0.48 0.401,-0.464 0.43,-0.433C0.459,-0.401 0.473,-0.356 0.473,-0.297L0.473,-0L0.407,-0L0.407,-0.259C0.407,-0.311 0.398,-0.351 0.38,-0.379C0.362,-0.406 0.329,-0.42 0.28,-0.42C0.277,-0.42 0.267,-0.419 0.252,-0.416C0.237,-0.413 0.221,-0.406 0.204,-0.394C0.187,-0.382 0.171,-0.364 0.158,-0.34C0.145,-0.316 0.138,-0.283 0.138,-0.24L0.138,-0L0.072,-0L0.072,-0.756Z" style="fill:rgb(218,29,32);fill-rule:nonzero;"/>
            </g>
            <g transform="matrix(47.2205,0,0,47.2205,1604.26,881.623)">
                <path d="M0.473,-0.234C0.473,-0.26 0.469,-0.284 0.461,-0.307C0.452,-0.33 0.44,-0.349 0.425,-0.366C0.41,-0.383 0.391,-0.396 0.37,-0.406C0.348,-0.415 0.323,-0.42 0.296,-0.42C0.269,-0.42 0.244,-0.415 0.223,-0.406C0.201,-0.396 0.183,-0.383 0.168,-0.366C0.153,-0.349 0.141,-0.33 0.133,-0.307C0.124,-0.284 0.12,-0.26 0.12,-0.234C0.12,-0.208 0.124,-0.184 0.133,-0.161C0.141,-0.138 0.153,-0.119 0.168,-0.102C0.183,-0.085 0.201,-0.072 0.223,-0.063C0.244,-0.053 0.269,-0.048 0.296,-0.048C0.323,-0.048 0.348,-0.053 0.37,-0.063C0.391,-0.072 0.41,-0.085 0.425,-0.102C0.44,-0.119 0.452,-0.138 0.461,-0.161C0.469,-0.184 0.473,-0.208 0.473,-0.234ZM0.545,-0.234C0.545,-0.199 0.539,-0.166 0.527,-0.136C0.514,-0.106 0.497,-0.08 0.475,-0.058C0.453,-0.036 0.427,-0.019 0.397,-0.007C0.366,0.006 0.333,0.012 0.296,0.012C0.26,0.012 0.227,0.006 0.197,-0.007C0.166,-0.019 0.14,-0.036 0.118,-0.058C0.096,-0.08 0.079,-0.106 0.067,-0.136C0.054,-0.166 0.048,-0.199 0.048,-0.234C0.048,-0.269 0.054,-0.302 0.067,-0.332C0.079,-0.362 0.096,-0.388 0.118,-0.41C0.14,-0.432 0.166,-0.449 0.197,-0.462C0.227,-0.474 0.26,-0.48 0.296,-0.48C0.333,-0.48 0.366,-0.474 0.397,-0.462C0.427,-0.449 0.453,-0.432 0.475,-0.41C0.497,-0.388 0.514,-0.362 0.527,-0.332C0.539,-0.302 0.545,-0.269 0.545,-0.234Z" style="fill:rgb(218,29,32);fill-rule:nonzero;"/>
            </g>
            <g transform="matrix(47.2205,0,0,47.2205,1632.26,881.623)">
                <path d="M0.473,-0.234C0.473,-0.26 0.469,-0.284 0.461,-0.307C0.452,-0.33 0.44,-0.349 0.425,-0.366C0.41,-0.383 0.391,-0.396 0.37,-0.406C0.348,-0.415 0.323,-0.42 0.296,-0.42C0.269,-0.42 0.244,-0.415 0.223,-0.406C0.201,-0.396 0.183,-0.383 0.168,-0.366C0.153,-0.349 0.141,-0.33 0.133,-0.307C0.124,-0.284 0.12,-0.26 0.12,-0.234C0.12,-0.208 0.124,-0.184 0.133,-0.161C0.141,-0.138 0.153,-0.119 0.168,-0.102C0.183,-0.085 0.201,-0.072 0.223,-0.063C0.244,-0.053 0.269,-0.048 0.296,-0.048C0.323,-0.048 0.348,-0.053 0.37,-0.063C0.391,-0.072 0.41,-0.085 0.425,-0.102C0.44,-0.119 0.452,-0.138 0.461,-0.161C0.469,-0.184 0.473,-0.208 0.473,-0.234ZM0.545,-0.234C0.545,-0.199 0.539,-0.166 0.527,-0.136C0.514,-0.106 0.497,-0.08 0.475,-0.058C0.453,-0.036 0.427,-0.019 0.397,-0.007C0.366,0.006 0.333,0.012 0.296,0.012C0.26,0.012 0.227,0.006 0.197,-0.007C0.166,-0.019 0.14,-0.036 0.118,-0.058C0.096,-0.08 0.079,-0.106 0.067,-0.136C0.054,-0.166 0.048,-0.199 0.048,-0.234C0.048,-0.269 0.054,-0.302 0.067,-0.332C0.079,-0.362 0.096,-0.388 0.118,-0.41C0.14,-0.432 0.166,-0.449 0.197,-0.462C0.227,-0.474 0.26,-0.48 0.296,-0.48C0.333,-0.48 0.366,-0.474 0.397,-0.462C0.427,-0.449 0.453,-0.432 0.475,-0.41C0.497,-0.388 0.514,-0.362 0.527,-0.332C0.539,-0.302 0.545,-0.269 0.545,-0.234Z" style="fill:rgb(218,29,32);fill-rule:nonzero;"/>
            </g>
            <g transform="matrix(47.2205,0,0,47.2205,1660.26,881.623)">
                <path d="M0.314,-0.408L0.179,-0.408L0.179,-0.132C0.179,-0.115 0.181,-0.1 0.184,-0.09C0.187,-0.079 0.192,-0.07 0.198,-0.064C0.204,-0.058 0.211,-0.054 0.22,-0.052C0.228,-0.049 0.237,-0.048 0.247,-0.048C0.258,-0.048 0.27,-0.05 0.282,-0.053C0.294,-0.056 0.305,-0.061 0.315,-0.066L0.318,-0.005C0.293,0.006 0.264,0.012 0.229,0.012C0.216,0.012 0.203,0.01 0.19,0.007C0.176,0.004 0.163,-0.003 0.152,-0.012C0.141,-0.021 0.131,-0.034 0.124,-0.05C0.117,-0.066 0.113,-0.087 0.113,-0.113L0.113,-0.408L0.014,-0.408L0.014,-0.468L0.113,-0.468L0.113,-0.6L0.179,-0.6L0.179,-0.468L0.314,-0.468L0.314,-0.408Z" style="fill:rgb(218,29,32);fill-rule:nonzero;"/>
            </g>
            <g transform="matrix(47.2205,0,0,47.2205,1689.06,881.623)">
                <path d="M0.092,-0.468L0.2,-0.088L0.202,-0.088L0.327,-0.468L0.395,-0.468L0.52,-0.088L0.522,-0.088L0.63,-0.468L0.708,-0.468L0.56,-0L0.486,-0L0.362,-0.384L0.36,-0.384L0.236,-0L0.162,-0L0.014,-0.468L0.092,-0.468Z" style="fill:rgb(218,29,32);fill-rule:nonzero;"/>
            </g>
            <g transform="matrix(47.2205,0,0,47.2205,1723.16,881.623)">
                <path d="M0.168,-0.648C0.168,-0.634 0.163,-0.623 0.153,-0.614C0.143,-0.604 0.132,-0.6 0.12,-0.6C0.108,-0.6 0.097,-0.604 0.087,-0.614C0.077,-0.623 0.072,-0.634 0.072,-0.648C0.072,-0.662 0.077,-0.674 0.087,-0.683C0.097,-0.692 0.108,-0.696 0.12,-0.696C0.132,-0.696 0.143,-0.692 0.153,-0.683C0.163,-0.674 0.168,-0.662 0.168,-0.648ZM0.153,-0L0.087,-0L0.087,-0.468L0.153,-0.468L0.153,-0Z" style="fill:rgb(218,29,32);fill-rule:nonzero;"/>
            </g>
            <g transform="matrix(47.2205,0,0,47.2205,1734.49,881.623)">
                <path d="M0.314,-0.408L0.179,-0.408L0.179,-0.132C0.179,-0.115 0.181,-0.1 0.184,-0.09C0.187,-0.079 0.192,-0.07 0.198,-0.064C0.204,-0.058 0.211,-0.054 0.22,-0.052C0.228,-0.049 0.237,-0.048 0.247,-0.048C0.258,-0.048 0.27,-0.05 0.282,-0.053C0.294,-0.056 0.305,-0.061 0.315,-0.066L0.318,-0.005C0.293,0.006 0.264,0.012 0.229,0.012C0.216,0.012 0.203,0.01 0.19,0.007C0.176,0.004 0.163,-0.003 0.152,-0.012C0.141,-0.021 0.131,-0.034 0.124,-0.05C0.117,-0.066 0.113,-0.087 0.113,-0.113L0.113,-0.408L0.014,-0.408L0.014,-0.468L0.113,-0.468L0.113,-0.6L0.179,-0.6L0.179,-0.468L0.314,-0.468L0.314,-0.408Z" style="fill:rgb(218,29,32);fill-rule:nonzero;"/>
            </g>
            <g transform="matrix(47.2205,0,0,47.2205,1750.17,881.623)">
                <path d="M0.072,-0.756L0.138,-0.756L0.138,-0.393L0.14,-0.393C0.147,-0.406 0.157,-0.417 0.168,-0.428C0.179,-0.439 0.192,-0.448 0.206,-0.456C0.22,-0.463 0.235,-0.469 0.251,-0.474C0.266,-0.478 0.282,-0.48 0.297,-0.48C0.357,-0.48 0.401,-0.464 0.43,-0.433C0.459,-0.401 0.473,-0.356 0.473,-0.297L0.473,-0L0.407,-0L0.407,-0.259C0.407,-0.311 0.398,-0.351 0.38,-0.379C0.362,-0.406 0.329,-0.42 0.28,-0.42C0.277,-0.42 0.267,-0.419 0.252,-0.416C0.237,-0.413 0.221,-0.406 0.204,-0.394C0.187,-0.382 0.171,-0.364 0.158,-0.34C0.145,-0.316 0.138,-0.283 0.138,-0.24L0.138,-0L0.072,-0L0.072,-0.756Z" style="fill:rgb(218,29,32);fill-rule:nonzero;"/>
            </g>
            <g transform="matrix(47.2205,0,0,47.2205,1789.55,881.623)">
                <path d="M0.138,-0.257L0.359,-0.468L0.458,-0.468L0.225,-0.254L0.483,-0L0.381,-0L0.138,-0.246L0.138,-0L0.072,-0L0.072,-0.756L0.138,-0.756L0.138,-0.257Z" style="fill:rgb(218,29,32);fill-rule:nonzero;"/>
            </g>
        </g>
        <g transform="matrix(0.912222,-0.409696,0.409696,0.912222,-203.777,734.418)">
            <g transform="matrix(22.0827,0,0,22.0827,1743.3,837.285)">
                <path d="M0.498,-0L0.048,-0L0.048,-0.083L0.33,-0.37C0.341,-0.381 0.351,-0.392 0.362,-0.404C0.373,-0.416 0.382,-0.429 0.391,-0.442C0.4,-0.455 0.407,-0.469 0.412,-0.484C0.417,-0.499 0.42,-0.514 0.42,-0.53C0.42,-0.549 0.417,-0.567 0.41,-0.582C0.403,-0.597 0.393,-0.61 0.38,-0.621C0.367,-0.632 0.353,-0.64 0.336,-0.646C0.319,-0.651 0.302,-0.654 0.283,-0.654C0.247,-0.654 0.216,-0.644 0.191,-0.624C0.166,-0.604 0.149,-0.577 0.142,-0.543L0.066,-0.551C0.076,-0.604 0.1,-0.645 0.139,-0.675C0.177,-0.705 0.223,-0.72 0.278,-0.72C0.307,-0.72 0.334,-0.716 0.36,-0.709C0.385,-0.701 0.408,-0.689 0.428,-0.674C0.447,-0.659 0.463,-0.64 0.475,-0.617C0.486,-0.594 0.492,-0.567 0.492,-0.536C0.492,-0.509 0.488,-0.484 0.48,-0.461C0.471,-0.438 0.46,-0.417 0.447,-0.397C0.434,-0.377 0.419,-0.358 0.402,-0.34C0.385,-0.322 0.367,-0.304 0.349,-0.287L0.126,-0.066L0.498,-0.066L0.498,-0Z" style="fill:rgb(218,29,32);fill-rule:nonzero;"/>
            </g>
        </g>
    </g>
</svg>
