<svg width="210" height="137" xmlns="http://www.w3.org/2000/svg" xmlns:xlink="http://www.w3.org/1999/xlink" xml:space="preserve" overflow="hidden"><g transform="translate(-472 -247)"><path d="M261.678 160.87 261.678 29.4302" stroke="#000000" stroke-width="4.95434" stroke-linecap="round" stroke-linejoin="round" stroke-miterlimit="2.12209" fill="none" fill-rule="evenodd" transform="matrix(1.00607 0 0 1 237.74 220.594)"/><path d="M261.678 29.4302 254.256 36.8528" stroke="#000000" stroke-width="4.95434" stroke-linecap="round" stroke-linejoin="round" stroke-miterlimit="2.12209" fill="none" fill-rule="evenodd" transform="matrix(1.00607 0 0 1 237.74 220.594)"/><path d="M261.678 29.4302 269.279 37.03" stroke="#000000" stroke-width="4.95434" stroke-linecap="round" stroke-linejoin="round" stroke-miterlimit="2.12209" fill="none" fill-rule="evenodd" transform="matrix(1.00607 0 0 1 237.74 220.594)"/><path d="M235.325 128.218 398.682 128.218" stroke="#000000" stroke-width="4.41105" stroke-linecap="round" stroke-linejoin="round" stroke-miterlimit="2.12209" fill="none" fill-rule="evenodd" transform="matrix(1.24175 0 0 1 182.278 220.594)"/><path d="M398.682 128.218 390.396 119.933" stroke="#000000" stroke-width="4.95434" stroke-linecap="round" stroke-linejoin="round" stroke-miterlimit="2.12209" fill="none" fill-rule="evenodd" transform="matrix(1.00607 0 0 1 278.383 220.594)"/><path d="M398.682 128.218 390.319 136.579" stroke="#000000" stroke-width="4.95434" stroke-linecap="round" stroke-linejoin="round" stroke-miterlimit="2.12209" fill="none" fill-rule="evenodd" transform="matrix(1.00607 0 0 1 278.383 220.594)"/><path d="M0.847396-6.08787 6.57847-6.08787 6.57847-4.61608 0.847396-4.61608Z" stroke="#000000" stroke-width="0.222999" stroke-linejoin="round" stroke-miterlimit="2" transform="matrix(1.09518e-17 -1 1.00607 1.69114e-17 489.407 328.016)"/><path d="M3.74638-1.47179 11.1054-1.47179 11.1054 0 2.14079 0 2.14079-15.7883 3.74638-15.7883 3.74638-1.47179Z" stroke="#000000" stroke-width="0.222999" stroke-linejoin="round" stroke-miterlimit="2" transform="matrix(1.09518e-17 -1 1.00607 1.69114e-17 489.407 320.59)"/><path d="M3.74638-1.47179 11.1054-1.47179 11.1054 0 2.14079 0 2.14079-15.7883 3.74638-15.7883 3.74638-1.47179Z" stroke="#000000" stroke-width="0.222999" stroke-linejoin="round" stroke-miterlimit="2" transform="matrix(1.09518e-17 -1 1.00607 1.69114e-17 489.407 309.441)"/><path d="M5.61958-15.6545C5.15128-14.8963 4.72758-14.1604 4.37078-13.4468 3.99168-12.7332 3.67948-12.0196 3.43419-11.2838 3.18889-10.5256 2.98819-9.76736 2.87669-8.98686 2.74289-8.20637 2.67599-7.33667 2.67599-6.42237 2.67599-5.50808 2.74289-4.66068 2.87669-3.88018 2.98819-3.09969 3.16659-2.36379 3.41189-1.65019 3.65718-0.936596 3.94708-0.222999 4.30388 0.468298 4.66068 1.1596 5.06208 1.89549 5.53038 2.67599L4.34848 3.56798C3.34499 2.16309 2.58679 0.602097 2.02929-1.115 1.47179-2.83209 1.20419-4.61608 1.20419-6.42237 1.20419-8.13947 1.47179-9.87886 2.02929-11.6183 2.56449-13.3576 3.36729-14.9632 4.43768-16.4127L5.61958-15.6545Z" stroke="#000000" stroke-width="0.222999" stroke-linejoin="round" stroke-miterlimit="2" transform="matrix(1.09518e-17 -1 1.00607 1.69114e-17 489.407 298.29)"/><path d="M9.94576-8.91996C9.94576-10.5479 9.72276-11.8858 9.29906-12.9339 8.83076-13.982 8.00567-14.5172 6.82377-14.5395 5.64188-14.5172 4.81678-13.982 4.37078-12.9339 3.90248-11.8858 3.67948-10.5479 3.70178-8.91996L9.94576-8.91996ZM1.56099-7.96107C1.56099-9.05376 1.65019-10.0796 1.82859-11.0385 1.98469-11.9973 2.25229-12.867 2.65369-13.6475 3.05509-14.428 3.59028-15.0301 4.28158-15.4761 4.95058-15.8998 5.82028-16.1228 6.82377-16.1451 7.84957-16.1228 8.69696-15.8998 9.38826-15.4761 10.0573-15.0301 10.6148-14.428 10.9939-13.6475 11.3953-12.867 11.6852-11.9973 11.8636-11.0385 12.0196-10.0796 12.0865-9.05376 12.0865-7.96107 12.0865-7.00217 12.0419-6.06557 11.9528-5.10668 11.8413-4.14778 11.596-3.27809 11.2392-2.47529 10.9047-1.69479 10.3695-1.0481 9.65586-0.557498 8.94226-0.0445998 8.00567 0.200699 6.82377 0.222999 5.64188 0.200699 4.70528-0.0445998 4.01398-0.557498 3.32269-1.0481 2.78749-1.69479 2.43069-2.47529 2.07389-3.27809 1.85089-4.14778 1.73939-5.10668 1.62789-6.06557 1.56099-7.00217 1.56099-7.96107ZM3.70178-7.31437C3.67948-5.53038 3.90248-4.10318 4.32618-3.03279 4.74988-1.94009 5.57498-1.40489 6.82377-1.38259 8.07257-1.40489 8.91996-1.94009 9.34366-3.03279 9.76736-4.10318 9.94576-5.53038 9.94576-7.31437L3.70178-7.31437Z" stroke="#000000" stroke-width="0.222999" stroke-linejoin="round" stroke-miterlimit="2" transform="matrix(1.09518e-17 -1 1.00607 1.69114e-17 489.407 292.493)"/><path d="M0.178399 2.80979C0.646697 2.05159 1.0704 1.31569 1.44949 0.602097 1.80629-0.1115 2.11849-0.847396 2.36379-1.58329 2.60909-2.29689 2.80979-3.07739 2.94359-3.85788 3.05509-4.63838 3.12199-5.50808 3.12199-6.42237 3.12199-7.33667 3.05509-8.18407 2.94359-8.96456 2.80979-9.74506 2.63139-10.481 2.38609-11.1946 2.14079-11.9081 1.85089-12.6217 1.49409-13.313 1.1373-14.0043 0.735897-14.7402 0.267599-15.5207L1.44949-16.4127C2.45299-15.0078 3.21119-13.4468 3.76868-11.7298 4.32618-10.0127 4.59378-8.22867 4.59378-6.42237 4.59378-4.70528 4.32618-2.96589 3.79098-1.22649 3.23349 0.512898 2.43069 2.11849 1.36029 3.56798L0.178399 2.80979Z" stroke="#000000" stroke-width="0.222999" stroke-linejoin="round" stroke-miterlimit="2" transform="matrix(1.09518e-17 -1 1.00607 1.69114e-17 489.407 278.849)"/><path d="M15.7969-14.1676C15.7969-16.7532 15.4427-18.8784 14.7697-20.543 14.0259-22.2077 12.7154-23.0578 10.8382-23.0932 8.96102-23.0578 7.65051-22.2077 6.94213-20.543 6.19833-18.8784 5.84414-16.7532 5.87956-14.1676L15.7969-14.1676ZM2.47933-12.6446C2.47933-14.3801 2.62101-16.0094 2.90436-17.5324 3.1523-19.0554 3.57732-20.4368 4.21487-21.6765 4.85241-22.9161 5.70247-23.8724 6.80046-24.5808 7.86303-25.2538 9.24437-25.608 10.8382-25.6434 12.4675-25.608 13.8134-25.2538 14.9114-24.5808 15.974-23.8724 16.8595-22.9161 17.4616-21.6765 18.0991-20.4368 18.5596-19.0554 18.8429-17.5324 19.0909-16.0094 19.1971-14.3801 19.1971-12.6446 19.1971-11.1216 19.1263-9.63398 18.9846-8.11096 18.8075-6.58794 18.4179-5.2066 17.8512-3.93151 17.3199-2.69185 16.4699-1.6647 15.3364-0.885476 14.203-0.0708381 12.7154 0.318771 10.8382 0.35419 8.96102 0.318771 7.47342-0.0708381 6.37543-0.885476 5.27744-1.6647 4.42738-2.69185 3.86068-3.93151 3.29397-5.2066 2.93978-6.58794 2.76269-8.11096 2.58559-9.63398 2.47933-11.1216 2.47933-12.6446ZM5.87956-11.6174C5.84414-8.78392 6.19833-6.51711 6.8713-4.81699 7.54426-3.08146 8.85476-2.2314 10.8382-2.19598 12.8217-2.2314 14.1676-3.08146 14.8406-4.81699 15.5135-6.51711 15.7969-8.78392 15.7969-11.6174L5.87956-11.6174Z" transform="matrix(1.00607 0 0 1 641.787 379.926)"/><path d="M12.4874-11.1995C12.4874-13.2434 12.2075-14.9233 11.6755-16.2393 11.0875-17.5552 10.0516-18.2272 8.56762-18.2552 7.08369-18.2272 6.04773-17.5552 5.48776-16.2393 4.89978-14.9233 4.6198-13.2434 4.64779-11.1995L12.4874-11.1995ZM1.95991-9.99556C1.95991-11.3675 2.07191-12.6554 2.2959-13.8594 2.49189-15.0633 2.82788-16.1553 3.33185-17.1352 3.83583-18.1152 4.5078-18.8712 5.37576-19.4311 6.21573-19.9631 7.30768-20.2431 8.56762-20.2711 9.85556-20.2431 10.9195-19.9631 11.7875-19.4311 12.6274-18.8712 13.3274-18.1152 13.8034-17.1352 14.3074-16.1553 14.6714-15.0633 14.8953-13.8594 15.0913-12.6554 15.1753-11.3675 15.1753-9.99556 15.1753-8.79161 15.1193-7.61566 15.0073-6.41172 14.8673-5.20777 14.5594-4.11582 14.1114-3.10786 13.6914-2.12791 13.0194-1.31594 12.1235-0.699969 11.2275-0.0559975 10.0516 0.251989 8.56762 0.279988 7.08369 0.251989 5.90774-0.0559975 5.03978-0.699969 4.17182-1.31594 3.49985-2.12791 3.05187-3.10786 2.60388-4.11582 2.3239-5.20777 2.1839-6.41172 2.04391-7.61566 1.95991-8.79161 1.95991-9.99556ZM4.64779-9.18359C4.6198-6.94369 4.89978-5.15177 5.43176-3.80783 5.96374-2.43589 6.99969-1.76392 8.56762-1.73592 10.1356-1.76392 11.1995-2.43589 11.7315-3.80783 12.2635-5.15177 12.4874-6.94369 12.4874-9.18359L4.64779-9.18359Z" fill="#FF0200" transform="matrix(1.00607 0 0 1 595.509 380.217)"/><path d="M226.437 178.482C246.312 171.715 243.521 194.731 251.497 198.457 260.214 202.53 268.754 188.35 278.513 194.745 292.846 204.136 289.649 228.487 307.7 234.075 311.424 235.227 315.28 235.447 319.095 234.596 323.046 233.713 326.736 231.817 330.025 229.489 334.273 226.482 337.995 222.803 341.253 218.759 345.906 212.984 349.637 206.545 352.943 199.924 360.575 184.638 364.305 167.676 372.819 152.827" stroke="#1700FF" stroke-width="4.95434" stroke-linecap="round" stroke-linejoin="round" stroke-miterlimit="2.12209" fill="none" fill-rule="evenodd" transform="matrix(1.00607 0 0 1 286.443 96.6492)"/><path d="M316.823 234.358C316.823 235.162 316.171 235.814 315.367 235.814 314.563 235.814 313.911 235.162 313.911 234.358 313.911 233.554 314.563 232.902 315.367 232.902 316.171 232.902 316.823 233.554 316.823 234.358Z" stroke="#FF0200" stroke-width="4.95434" stroke-linecap="round" stroke-linejoin="round" stroke-miterlimit="2.12209" fill="#FF0200" fill-rule="evenodd" transform="matrix(1.00607 0 0 1 286.719 97.1856)"/><path d="M314.724 235.321C314.724 234.818 315.133 234.409 315.636 234.409 316.14 234.409 316.549 234.818 316.549 235.321L316.549 235.978C316.549 236.481 316.14 236.889 315.636 236.889 315.133 236.889 314.724 236.481 314.724 235.978L314.724 235.321ZM314.724 237.861C314.724 237.357 315.133 236.949 315.636 236.949 316.14 236.949 316.549 237.357 316.549 237.861L316.549 239.173C316.549 239.676 316.14 240.085 315.636 240.085 315.133 240.085 314.724 239.676 314.724 239.173L314.724 237.861ZM314.724 241.057C314.724 240.553 315.133 240.144 315.636 240.144 316.14 240.144 316.549 240.553 316.549 241.057L316.549 242.368C316.549 242.872 316.14 243.28 315.636 243.28 315.133 243.28 314.724 242.872 314.724 242.368L314.724 241.057ZM314.724 244.252C314.724 243.748 315.133 243.34 315.636 243.34 316.14 243.34 316.549 243.748 316.549 244.252L316.549 245.564C316.549 246.067 316.14 246.477 315.636 246.477 315.133 246.477 314.724 246.067 314.724 245.564L314.724 244.252ZM314.724 247.448C314.724 246.945 315.133 246.535 315.636 246.535 316.14 246.535 316.549 246.945 316.549 247.448L316.549 248.759C316.549 249.262 316.14 249.672 315.636 249.672 315.133 249.672 314.724 249.262 314.724 248.759L314.724 247.448ZM314.724 250.643C314.724 250.14 315.133 249.732 315.636 249.732 316.14 249.732 316.549 250.14 316.549 250.643L316.549 251.299C316.549 251.802 316.14 252.212 315.636 252.212 315.133 252.212 314.724 251.802 314.724 251.299L314.724 250.643Z" fill="#FF0200" fill-rule="evenodd" transform="matrix(1.00607 0 0 1 286.443 96.6492)"/><path d="M310.578 261.189 315.45 256.317" stroke="#FF0200" stroke-width="1.8251" stroke-linecap="round" stroke-linejoin="round" stroke-miterlimit="2.12209" fill="none" fill-rule="evenodd" transform="matrix(1.00607 0 0 1 286.765 98.2418)"/><path d="M315.45 256.317 320.274 261.141" stroke="#FF0200" stroke-width="1.8251" stroke-linecap="round" stroke-linejoin="round" stroke-miterlimit="2.12209" fill="none" fill-rule="evenodd" transform="matrix(1.00607 0 0 1 286.765 98.2418)"/><path d="M4.33076-1.28463 6.65672-6.89029 7.72725-6.89029 7.72725 0 7.02654 0 7.02654-5.95601 7.00708-5.95601 4.51567 0 4.14585 0 1.65445-5.95601 1.63498-5.95601 1.63498 0 0.934277 0 0.934277-6.89029 2.0048-6.89029 4.33076-1.28463Z" stroke="#FF0200" stroke-width="0.0973205" stroke-linejoin="round" stroke-miterlimit="2" fill="#FF0200" transform="matrix(1.00607 0 0 1 610.979 383.267)"/><path d="M1.63498-0.642315 4.84656-0.642315 4.84656 0 0.934277 0 0.934277-6.89029 1.63498-6.89029 1.63498-0.642315Z" stroke="#FF0200" stroke-width="0.0973205" stroke-linejoin="round" stroke-miterlimit="2" fill="#FF0200" transform="matrix(1.00607 0 0 1 619.694 383.267)"/><path d="M1.63498-0.642315 5.32343-0.642315 5.32343 0 0.934277 0 0.934277-6.89029 5.20665-6.89029 5.20665-6.24798 1.63498-6.24798 1.63498-3.90255 4.97308-3.90255 4.97308-3.26024 1.63498-3.26024 1.63498-0.642315Z" stroke="#FF0200" stroke-width="0.0973205" stroke-linejoin="round" stroke-miterlimit="2" fill="#FF0200" transform="matrix(1.00607 0 0 1 624.589 383.267)"/></g></svg>