<?xml version="1.0" encoding="UTF-8" standalone="no"?>
<!DOCTYPE svg PUBLIC "-//W3C//DTD SVG 1.1//EN" "http://www.w3.org/Graphics/SVG/1.1/DTD/svg11.dtd">
<svg width="100%" height="100%" viewBox="0 0 385 867" version="1.1" xmlns="http://www.w3.org/2000/svg" xmlns:xlink="http://www.w3.org/1999/xlink" xml:space="preserve" xmlns:serif="http://www.serif.com/" style="fill-rule:evenodd;clip-rule:evenodd;stroke-linecap:round;stroke-linejoin:round;stroke-miterlimit:1.5;">
    <g transform="matrix(1,0,0,1,-656.203,-447.82)">
        <circle cx="858.167" cy="497.632" r="38.601" style="stroke:black;stroke-width:16.77px;"/>
        <g transform="matrix(1,0,0,1,0,184.679)">
            <circle cx="858.167" cy="497.632" r="38.601" style="fill:white;stroke:black;stroke-width:16.77px;"/>
        </g>
        <g transform="matrix(1,0,0,1,0,374.007)">
            <circle cx="858.167" cy="497.632" r="38.601" style="stroke:black;stroke-width:16.77px;"/>
        </g>
        <g transform="matrix(1,0,0,1,0,558.687)">
            <circle cx="858.167" cy="497.632" r="38.601" style="fill:white;stroke:black;stroke-width:16.77px;"/>
        </g>
        <g transform="matrix(1,0,0,1,0,753.448)">
            <circle cx="858.167" cy="497.632" r="38.601" style="stroke:black;stroke-width:16.77px;"/>
        </g>
        <path d="M879.981,495.167C939.966,536.589 959.826,635.846 899.467,688.26" style="fill:none;stroke:black;stroke-width:16.77px;"/>
        <g transform="matrix(1,0,0,1,17.7517,558.998)">
            <path d="M879.981,495.167C939.966,536.589 941.468,632.37 881.109,684.784" style="fill:none;stroke:black;stroke-width:16.77px;"/>
        </g>
        <g transform="matrix(2.91023,0,0,1.84294,-1670.4,-411.487)">
            <path d="M879.981,495.167C939.966,536.589 938.595,644.425 878.236,696.839" style="fill:none;stroke:black;stroke-width:6.88px;"/>
        </g>
        <g transform="matrix(2.91023,0,0,1.84294,-1657.57,-223.474)">
            <path d="M879.981,495.167C939.966,536.589 938.595,644.425 878.236,696.839" style="fill:none;stroke:black;stroke-width:6.88px;"/>
        </g>
        <g transform="matrix(2.91023,0,0,1.84294,-1657.57,-41.7182)">
            <path d="M879.981,495.167C939.966,536.589 938.595,644.425 878.236,696.839" style="fill:none;stroke:black;stroke-width:6.88px;"/>
        </g>
        <g transform="matrix(1.92828,0,0,1.92828,-485.086,-543.418)">
            <g transform="matrix(86.2353,0,0,86.2353,589.885,554.411)">
                <path d="M0.393,-0.42L0.119,-0.06L0.403,-0.06L0.403,-0L0.023,-0L0.023,-0.048L0.297,-0.408L0.037,-0.408L0.037,-0.468L0.393,-0.468L0.393,-0.42Z" style="fill-rule:nonzero;"/>
            </g>
        </g>
        <g transform="matrix(1.92828,0,0,1.92828,-540.202,-562.456)">
            <g transform="matrix(33.0632,0,0,33.0632,660.115,583.172)">
                <path d="M0.278,-0.654C0.239,-0.654 0.209,-0.644 0.187,-0.623C0.164,-0.602 0.147,-0.577 0.136,-0.546C0.125,-0.515 0.118,-0.483 0.115,-0.448C0.112,-0.413 0.11,-0.382 0.11,-0.354C0.11,-0.326 0.112,-0.295 0.115,-0.26C0.118,-0.225 0.125,-0.193 0.136,-0.162C0.147,-0.131 0.164,-0.106 0.187,-0.085C0.209,-0.064 0.239,-0.054 0.278,-0.054C0.317,-0.054 0.347,-0.064 0.37,-0.085C0.392,-0.106 0.409,-0.131 0.42,-0.162C0.431,-0.193 0.439,-0.225 0.442,-0.26C0.444,-0.295 0.446,-0.326 0.446,-0.354C0.446,-0.382 0.444,-0.413 0.442,-0.448C0.439,-0.483 0.431,-0.515 0.42,-0.546C0.409,-0.577 0.392,-0.602 0.37,-0.623C0.347,-0.644 0.317,-0.654 0.278,-0.654ZM0.278,-0.72C0.329,-0.72 0.37,-0.708 0.401,-0.685C0.432,-0.662 0.457,-0.632 0.474,-0.596C0.491,-0.56 0.503,-0.521 0.509,-0.478C0.515,-0.435 0.518,-0.393 0.518,-0.354C0.518,-0.315 0.515,-0.274 0.509,-0.231C0.503,-0.188 0.491,-0.148 0.474,-0.112C0.457,-0.076 0.432,-0.046 0.401,-0.023C0.37,0 0.329,0.012 0.278,0.012C0.227,0.012 0.186,0 0.155,-0.023C0.124,-0.046 0.099,-0.076 0.082,-0.112C0.065,-0.148 0.053,-0.188 0.047,-0.231C0.041,-0.274 0.038,-0.315 0.038,-0.354C0.038,-0.393 0.041,-0.435 0.047,-0.478C0.053,-0.521 0.065,-0.56 0.082,-0.596C0.099,-0.632 0.124,-0.662 0.155,-0.685C0.186,-0.708 0.227,-0.72 0.278,-0.72Z" style="fill-rule:nonzero;"/>
            </g>
        </g>
        <g transform="matrix(1.92828,0,0,1.92828,-485.086,-363.125)">
            <g transform="matrix(86.2353,0,0,86.2353,589.885,554.411)">
                <path d="M0.393,-0.42L0.119,-0.06L0.403,-0.06L0.403,-0L0.023,-0L0.023,-0.048L0.297,-0.408L0.037,-0.408L0.037,-0.468L0.393,-0.468L0.393,-0.42Z" style="fill-rule:nonzero;"/>
            </g>
        </g>
        <g transform="matrix(1.92828,0,0,1.92828,-540.202,-382.163)">
            <g transform="matrix(33.0632,0,0,33.0632,660.115,583.172)">
                <path d="M0.348,-0L0.276,-0L0.276,-0.618L0.149,-0.506L0.104,-0.56L0.284,-0.708L0.348,-0.708L0.348,-0Z" style="fill-rule:nonzero;"/>
            </g>
        </g>
        <g transform="matrix(1.92828,0,0,1.92828,-485.086,-166.975)">
            <g transform="matrix(86.2353,0,0,86.2353,589.885,554.411)">
                <path d="M0.393,-0.42L0.119,-0.06L0.403,-0.06L0.403,-0L0.023,-0L0.023,-0.048L0.297,-0.408L0.037,-0.408L0.037,-0.468L0.393,-0.468L0.393,-0.42Z" style="fill-rule:nonzero;"/>
            </g>
        </g>
        <g transform="matrix(1.92828,0,0,1.92828,-540.202,-186.013)">
            <g transform="matrix(33.0632,0,0,33.0632,660.115,583.172)">
                <path d="M0.498,-0L0.048,-0L0.048,-0.083L0.33,-0.37C0.341,-0.381 0.351,-0.392 0.362,-0.404C0.373,-0.416 0.382,-0.429 0.391,-0.442C0.4,-0.455 0.407,-0.469 0.412,-0.484C0.417,-0.499 0.42,-0.514 0.42,-0.53C0.42,-0.549 0.417,-0.567 0.41,-0.582C0.403,-0.597 0.393,-0.61 0.38,-0.621C0.367,-0.632 0.353,-0.64 0.336,-0.646C0.319,-0.651 0.302,-0.654 0.283,-0.654C0.247,-0.654 0.216,-0.644 0.191,-0.624C0.166,-0.604 0.149,-0.577 0.142,-0.543L0.066,-0.551C0.076,-0.604 0.1,-0.645 0.139,-0.675C0.177,-0.705 0.223,-0.72 0.278,-0.72C0.307,-0.72 0.334,-0.716 0.36,-0.709C0.385,-0.701 0.408,-0.689 0.428,-0.674C0.447,-0.659 0.463,-0.64 0.475,-0.617C0.486,-0.594 0.492,-0.567 0.492,-0.536C0.492,-0.509 0.488,-0.484 0.48,-0.461C0.471,-0.438 0.46,-0.417 0.447,-0.397C0.434,-0.377 0.419,-0.358 0.402,-0.34C0.385,-0.322 0.367,-0.304 0.349,-0.287L0.126,-0.066L0.498,-0.066L0.498,-0Z" style="fill-rule:nonzero;"/>
            </g>
        </g>
        <g transform="matrix(1.92828,0,0,1.92828,-485.086,13.318)">
            <g transform="matrix(86.2353,0,0,86.2353,589.885,554.411)">
                <path d="M0.393,-0.42L0.119,-0.06L0.403,-0.06L0.403,-0L0.023,-0L0.023,-0.048L0.297,-0.408L0.037,-0.408L0.037,-0.468L0.393,-0.468L0.393,-0.42Z" style="fill-rule:nonzero;"/>
            </g>
        </g>
        <g transform="matrix(1.92828,0,0,1.92828,-540.202,-5.72022)">
            <g transform="matrix(33.0632,0,0,33.0632,660.115,583.172)">
                <path d="M0.204,-0.404L0.241,-0.404C0.262,-0.404 0.282,-0.406 0.301,-0.411C0.32,-0.416 0.336,-0.423 0.35,-0.434C0.364,-0.444 0.375,-0.457 0.384,-0.474C0.392,-0.491 0.396,-0.511 0.396,-0.534C0.396,-0.572 0.385,-0.602 0.362,-0.623C0.339,-0.644 0.306,-0.654 0.265,-0.654C0.235,-0.654 0.209,-0.647 0.186,-0.634C0.163,-0.621 0.145,-0.601 0.13,-0.576L0.067,-0.608C0.088,-0.646 0.116,-0.674 0.149,-0.693C0.182,-0.711 0.22,-0.72 0.263,-0.72C0.291,-0.72 0.317,-0.716 0.342,-0.708C0.367,-0.7 0.388,-0.688 0.407,-0.673C0.426,-0.657 0.44,-0.638 0.452,-0.615C0.463,-0.592 0.468,-0.565 0.468,-0.536C0.468,-0.517 0.465,-0.498 0.459,-0.481C0.452,-0.464 0.444,-0.448 0.433,-0.434C0.422,-0.42 0.409,-0.408 0.394,-0.398C0.379,-0.387 0.364,-0.379 0.348,-0.374L0.351,-0.372C0.371,-0.368 0.389,-0.361 0.406,-0.35C0.423,-0.339 0.437,-0.325 0.449,-0.309C0.461,-0.293 0.47,-0.275 0.477,-0.255C0.484,-0.235 0.487,-0.214 0.487,-0.192C0.487,-0.159 0.481,-0.13 0.469,-0.105C0.457,-0.08 0.441,-0.058 0.42,-0.041C0.399,-0.024 0.375,-0.011 0.348,-0.002C0.321,0.008 0.292,0.012 0.261,0.012C0.209,0.012 0.164,0.001 0.125,-0.022C0.086,-0.045 0.057,-0.081 0.038,-0.131L0.114,-0.154C0.126,-0.12 0.144,-0.095 0.168,-0.079C0.191,-0.062 0.224,-0.054 0.267,-0.054C0.287,-0.054 0.306,-0.057 0.324,-0.064C0.342,-0.071 0.358,-0.08 0.372,-0.093C0.385,-0.105 0.396,-0.12 0.404,-0.137C0.411,-0.154 0.415,-0.173 0.415,-0.194C0.415,-0.221 0.41,-0.243 0.4,-0.262C0.39,-0.28 0.377,-0.295 0.36,-0.306C0.343,-0.317 0.324,-0.326 0.303,-0.331C0.281,-0.335 0.258,-0.338 0.235,-0.338L0.204,-0.338L0.204,-0.404Z" style="fill-rule:nonzero;"/>
            </g>
        </g>
        <g transform="matrix(1.92828,0,0,1.92828,-485.086,208.892)">
            <g transform="matrix(86.2353,0,0,86.2353,589.885,554.411)">
                <path d="M0.393,-0.42L0.119,-0.06L0.403,-0.06L0.403,-0L0.023,-0L0.023,-0.048L0.297,-0.408L0.037,-0.408L0.037,-0.468L0.393,-0.468L0.393,-0.42Z" style="fill-rule:nonzero;"/>
            </g>
        </g>
        <g transform="matrix(1.92828,0,0,1.92828,-540.202,189.854)">
            <g transform="matrix(33.0632,0,0,33.0632,660.115,583.172)">
                <path d="M0.344,-0.636L0.342,-0.636L0.098,-0.234L0.344,-0.234L0.344,-0.636ZM0.416,-0.234L0.518,-0.234L0.518,-0.168L0.416,-0.168L0.416,-0L0.344,-0L0.344,-0.168L0.038,-0.168L0.038,-0.25L0.324,-0.708L0.416,-0.708L0.416,-0.234Z" style="fill-rule:nonzero;"/>
            </g>
        </g>
        <g transform="matrix(1,0,0,1,8.22877,0)">
            <path d="M910.503,683.208L996.878,683.208" style="fill:none;stroke:rgb(66,33,217);stroke-width:10.74px;stroke-dasharray:10.74,10.74;"/>
        </g>
        <g transform="matrix(1,0,0,1,8.22877,0)">
            <path d="M996.878,683.208L976.5,662.83" style="fill:none;stroke:rgb(66,33,217);stroke-width:10.74px;stroke-dasharray:10.74,10.74;"/>
        </g>
        <g transform="matrix(1,0,0,1,8.22877,0)">
            <path d="M996.878,683.208L977.149,702.937" style="fill:none;stroke:rgb(66,33,217);stroke-width:10.74px;stroke-dasharray:10.74,10.74;"/>
        </g>
        <g transform="matrix(1,0,0,1,8.22877,183.054)">
            <path d="M910.503,683.208L996.878,683.208" style="fill:none;stroke:rgb(66,33,217);stroke-width:10.74px;stroke-dasharray:10.74,10.74;"/>
        </g>
        <g transform="matrix(1,0,0,1,8.22877,183.054)">
            <path d="M996.878,683.208L976.5,662.83" style="fill:none;stroke:rgb(66,33,217);stroke-width:10.74px;stroke-dasharray:10.74,10.74;"/>
        </g>
        <g transform="matrix(1,0,0,1,8.22877,183.054)">
            <path d="M996.878,683.208L977.149,702.937" style="fill:none;stroke:rgb(66,33,217);stroke-width:10.74px;stroke-dasharray:10.74,10.74;"/>
        </g>
        <g transform="matrix(1,0,0,1,8.22877,377.242)">
            <path d="M910.503,683.208L996.878,683.208" style="fill:none;stroke:rgb(66,33,217);stroke-width:10.74px;stroke-dasharray:10.74,10.74;"/>
        </g>
        <g transform="matrix(1,0,0,1,8.22877,377.242)">
            <path d="M996.878,683.208L976.5,662.83" style="fill:none;stroke:rgb(66,33,217);stroke-width:10.74px;stroke-dasharray:10.74,10.74;"/>
        </g>
        <g transform="matrix(1,0,0,1,8.22877,377.242)">
            <path d="M996.878,683.208L977.149,702.937" style="fill:none;stroke:rgb(66,33,217);stroke-width:10.74px;stroke-dasharray:10.74,10.74;"/>
        </g>
    </g>
</svg>
