<?xml version="1.0" encoding="UTF-8" standalone="no"?>
<!-- Created with Inkscape (http://www.inkscape.org/) -->

<svg
   width="305"
   height="165"
   id="svg2"
   sodipodi:version="0.32"
   inkscape:version="0.46"
   sodipodi:docname="mosfet.svg"
   inkscape:output_extension="org.inkscape.output.svg.inkscape"
   version="1.0"
   xmlns:inkscape="http://www.inkscape.org/namespaces/inkscape"
   xmlns:sodipodi="http://sodipodi.sourceforge.net/DTD/sodipodi-0.dtd"
   xmlns:xlink="http://www.w3.org/1999/xlink"
   xmlns="http://www.w3.org/2000/svg"
   xmlns:svg="http://www.w3.org/2000/svg"
   xmlns:rdf="http://www.w3.org/1999/02/22-rdf-syntax-ns#"
   xmlns:cc="http://creativecommons.org/ns#"
   xmlns:dc="http://purl.org/dc/elements/1.1/">
  <defs
     id="defs4">
    <inkscape:perspective
       sodipodi:type="inkscape:persp3d"
       inkscape:vp_x="0 : 165.40157 : 1"
       inkscape:vp_y="0 : 1000 : 0"
       inkscape:vp_z="613.02753 : 165.40157 : 1"
       inkscape:persp3d-origin="306.51376 : 110.26771 : 1"
       id="perspective285" />
    <linearGradient
       id="linearGradient10021">
      <stop
         style="stop-color: rgb(188, 46, 46); stop-opacity: 0.854902;"
         offset="0"
         id="stop10023" />
      <stop
         id="stop10035"
         offset="0.39973703"
         style="stop-color: rgb(200, 34, 34); stop-opacity: 0.67451;" />
      <stop
         id="stop10031"
         offset="0.81530368"
         style="stop-color: rgb(183, 37, 37); stop-opacity: 0.356863;" />
      <stop
         style="stop-color: rgb(194, 40, 40); stop-opacity: 0;"
         offset="1"
         id="stop10025" />
    </linearGradient>
    <linearGradient
       inkscape:collect="always"
       xlink:href="#linearGradient10021"
       id="linearGradient24400"
       gradientUnits="userSpaceOnUse"
       gradientTransform="matrix(0.533665,0,0,1.00019,355.298,-4.65175e-2)"
       x1="27.794643"
       y1="224.86218"
       x2="718.63391"
       y2="224.86218" />
    <linearGradient
       inkscape:collect="always"
       xlink:href="#linearGradient10021"
       id="linearGradient24402"
       gradientUnits="userSpaceOnUse"
       gradientTransform="matrix(0.533665,0,0,1.00019,-385.031,-4.50803e-2)"
       x1="27.794643"
       y1="224.86218"
       x2="718.63391"
       y2="224.86218" />
    <linearGradient
       inkscape:collect="always"
       xlink:href="#linearGradient10021"
       id="linearGradient24404"
       gradientUnits="userSpaceOnUse"
       gradientTransform="matrix(0.533665,0,0,1.00019,355.298,-4.65175e-2)"
       x1="27.794643"
       y1="224.86218"
       x2="718.63391"
       y2="224.86218" />
    <linearGradient
       inkscape:collect="always"
       xlink:href="#linearGradient10021"
       id="linearGradient24406"
       gradientUnits="userSpaceOnUse"
       gradientTransform="matrix(0.533665,0,0,1.00019,-385.031,-4.50803e-2)"
       x1="27.794643"
       y1="224.86218"
       x2="718.63391"
       y2="224.86218" />
    <linearGradient
       inkscape:collect="always"
       xlink:href="#linearGradient10021"
       id="linearGradient24408"
       gradientUnits="userSpaceOnUse"
       gradientTransform="matrix(0.533665,0,0,1.00019,355.298,-4.65175e-2)"
       x1="27.794643"
       y1="224.86218"
       x2="718.63391"
       y2="224.86218" />
    <linearGradient
       inkscape:collect="always"
       xlink:href="#linearGradient10021"
       id="linearGradient24410"
       gradientUnits="userSpaceOnUse"
       gradientTransform="matrix(0.533665,0,0,1.00019,-385.031,-4.50803e-2)"
       x1="27.794643"
       y1="224.86218"
       x2="718.63391"
       y2="224.86218" />
    <linearGradient
       inkscape:collect="always"
       xlink:href="#linearGradient10021"
       id="linearGradient24714"
       gradientUnits="userSpaceOnUse"
       gradientTransform="matrix(0.533665,0,0,1.00019,355.298,-4.65175e-2)"
       x1="27.794643"
       y1="224.86218"
       x2="718.63391"
       y2="224.86218" />
    <linearGradient
       inkscape:collect="always"
       xlink:href="#linearGradient10021"
       id="linearGradient24716"
       gradientUnits="userSpaceOnUse"
       gradientTransform="matrix(0.533665,0,0,1.00019,-385.031,-4.50803e-2)"
       x1="27.794643"
       y1="224.86218"
       x2="718.63391"
       y2="224.86218" />
    <linearGradient
       inkscape:collect="always"
       xlink:href="#linearGradient10021"
       id="linearGradient24871"
       gradientUnits="userSpaceOnUse"
       gradientTransform="matrix(0.533665,0,0,1.00019,355.298,-4.65175e-2)"
       x1="27.794643"
       y1="224.86218"
       x2="718.63391"
       y2="224.86218" />
    <linearGradient
       inkscape:collect="always"
       xlink:href="#linearGradient10021"
       id="linearGradient24873"
       gradientUnits="userSpaceOnUse"
       gradientTransform="matrix(0.533665,0,0,1.00019,-385.031,-4.50803e-2)"
       x1="27.794643"
       y1="224.86218"
       x2="718.63391"
       y2="224.86218" />
    <linearGradient
       inkscape:collect="always"
       xlink:href="#linearGradient10021"
       id="linearGradient24991"
       gradientUnits="userSpaceOnUse"
       gradientTransform="matrix(0.533665,0,0,1.00019,355.298,-4.65175e-2)"
       x1="27.794643"
       y1="224.86218"
       x2="718.63391"
       y2="224.86218" />
    <linearGradient
       inkscape:collect="always"
       xlink:href="#linearGradient10021"
       id="linearGradient24993"
       gradientUnits="userSpaceOnUse"
       gradientTransform="matrix(0.533665,0,0,1.00019,-385.031,-4.50803e-2)"
       x1="27.794643"
       y1="224.86218"
       x2="718.63391"
       y2="224.86218" />
    <linearGradient
       inkscape:collect="always"
       xlink:href="#linearGradient10021"
       id="linearGradient3087"
       gradientUnits="userSpaceOnUse"
       gradientTransform="matrix(0.533665,0,0,1.00019,355.298,-4.65175e-2)"
       x1="27.794643"
       y1="224.86218"
       x2="718.63391"
       y2="224.86218" />
    <linearGradient
       inkscape:collect="always"
       xlink:href="#linearGradient10021"
       id="linearGradient3089"
       gradientUnits="userSpaceOnUse"
       gradientTransform="matrix(0.533665,0,0,1.00019,-385.031,-4.50803e-2)"
       x1="27.794643"
       y1="224.86218"
       x2="718.63391"
       y2="224.86218" />
  </defs>
  <sodipodi:namedview
     id="base"
     pagecolor="#ffffff"
     bordercolor="#666666"
     borderopacity="1.0"
     inkscape:pageopacity="0.0"
     inkscape:pageshadow="2"
     inkscape:zoom="2.1704661"
     inkscape:cx="314.85861"
     inkscape:cy="146.4246"
     inkscape:document-units="px"
     inkscape:current-layer="layer1"
     inkscape:window-width="1236"
     inkscape:window-height="776"
     inkscape:window-x="0"
     inkscape:window-y="0"
     showguides="true"
     inkscape:guide-bbox="true"
     width="173.01mm"
     height="93.36mm"
     showgrid="false"
     inkscape:showpageshadow="2"
     inkscape:pagecheckerboard="0"
     inkscape:deskcolor="#d1d1d1" />
  <metadata
     id="metadata7">
    <rdf:RDF>
      <cc:Work
         rdf:about="">
        <dc:format>image/svg+xml</dc:format>
        <dc:type
           rdf:resource="http://purl.org/dc/dcmitype/StillImage" />
      </cc:Work>
    </rdf:RDF>
  </metadata>
  <g
     inkscape:label="Calque 1"
     inkscape:groupmode="layer"
     id="layer1"
     transform="translate(-73.3033,-251.433)">
    <g
       id="g22716"
       transform="matrix(0.40161,0,0,0.40161,76.3781,265.332)">
      <path
         id="rect22718"
         style="opacity:0.678233;fill:url(#linearGradient3087) #000000;stroke-width:0.0730593;stroke-linejoin:round"
         d="M 370.16394,153.77338 H 738.77399 V 295.94316 H 370.16394 Z" />
      <path
         id="rect22720"
         style="opacity:0.678233;fill:url(#linearGradient3089) #000000;stroke-width:0.0730593;stroke-linejoin:round"
         transform="scale(-1,1)"
         d="M -370.16464,153.77483 H -1.5545959 V 295.94461 H -370.16464 Z" />
    </g>
    <path
       style="fill:none;fill-rule:evenodd;stroke:#000000;stroke-width:0.40161px;stroke-linecap:butt;stroke-linejoin:miter;stroke-opacity:1"
       d="M 85.270923,327.09593 H 366.39786"
       id="path22722"
       sodipodi:nodetypes="cc" />
    <path
       style="fill:#a92f2f;fill-opacity:1;stroke:none;stroke-width:0.6;stroke-linejoin:round;stroke-miterlimit:4;stroke-dasharray:none;stroke-opacity:1"
       d="m 165.18679,326.84732 h 191.33985 v 25.89744 c 0,3.18726 -2.90108,5.29453 -7.97136,5.29992 -5.178,0.005 -47.98364,0 -54.90651,0 -6.55777,0 -10.29283,0.0444 -10.29283,-6.52686 0,-19.19319 1.31883,-18.97994 -7.47926,-18.97994 -9.43841,0 -17.6799,-0.0485 -28.90475,-0.0485 -10.60792,0 -9.41614,-0.005 -9.41614,16.88532 0,3.96768 1.03657,9.07218 -7.63956,9.07218 -13.82914,0 -43.22332,-0.12526 -58.1531,-0.12526 -7.01866,0 -6.57717,-7.51998 -6.57634,-7.51581 z"
       id="path22724"
       sodipodi:nodetypes="cccsssssssscc" />
    <path
       style="fill:#f46d83;fill-opacity:1;fill-rule:evenodd;stroke:#be2a2a;stroke-width:0.40161px;stroke-linecap:butt;stroke-linejoin:round;stroke-opacity:1"
       d="m 231.2848,327.09593 v 17.21185 c 0,3.97308 -3.19854,7.17161 -7.17161,7.17161 h -45.03766 c -3.97308,0 -7.17161,-3.19853 -7.17161,-7.17161 v -17.21185 c 4.87772,0 51.20463,0 59.38088,0 z"
       id="path22726"
       sodipodi:nodetypes="ccccccc" />
    <path
       style="fill:#f46d83;fill-opacity:1;fill-rule:evenodd;stroke:#be2a2a;stroke-width:0.40161px;stroke-linecap:butt;stroke-linejoin:round;stroke-opacity:1"
       d="m 348.7557,327.09593 v 17.21185 c 0,3.97308 -3.19853,7.17161 -7.17161,7.17161 h -45.03766 c -3.97307,0 -7.17161,-3.19853 -7.17161,-7.17161 v -17.21185 c 4.87773,0 51.20463,0 59.38088,0 z"
       id="path22728"
       sodipodi:nodetypes="ccccccc" />
    <path
       id="rect22730"
       style="fill:#f7a138;stroke-linejoin:round"
       d="m 226.92337,320.21561 h 67.95261 v 6.69384 h -67.95261 z" />
    <path
       id="rect22732"
       style="fill:#ed2e39;stroke-linejoin:round"
       d="m 226.92337,313.52179 h 67.95261 v 6.69384 h -67.95261 z" />
    <path
       id="rect22734"
       style="fill:#4c2eed;stroke-linejoin:round"
       d="m 179.86362,281.37106 h 18.66161 v 45.84267 h -18.66161 z" />
    <path
       id="rect22736"
       style="fill:#4c2eed;stroke-linejoin:round"
       d="m 323.88257,281.47247 h 18.66161 v 45.84267 h -18.66161 z" />
    <path
       style="fill:none;fill-rule:evenodd;stroke:#000000;stroke-width:0.40161px;stroke-linecap:butt;stroke-linejoin:miter;stroke-opacity:1"
       d="M 86.848675,384.46878 H 366.82815"
       id="path22738"
       sodipodi:nodetypes="cc" />
    <path
       id="rect22740"
       style="fill:#4c2eed;stroke-linejoin:round"
       d="m 251.21416,281.237 h 18.66161 v 32.34851 h -18.66161 z" />
    <path
       style="fill:#f46d83;fill-opacity:1;fill-rule:evenodd;stroke:#be2a2a;stroke-width:0.40161px;stroke-linecap:butt;stroke-linejoin:round;stroke-opacity:1"
       d="m 152.03856,327.09593 v 17.21185 c 0,3.97308 -3.19853,7.17161 -7.1716,7.17161 H 99.829292 c -3.973073,0 -7.171605,-3.19853 -7.171605,-7.17161 v -17.21185 c 4.877723,0 51.204643,0 59.380873,0 z"
       id="path22742"
       sodipodi:nodetypes="ccccccc" />
    <g
       aria-label="P+"
       id="text22744"
       style="line-height:0%;font-family:'Bitstream Vera Sans';stroke-width:1px">
      <path
         d="m 114.80778,335.58774 v 3.08032 h 1.39466 q 0.7742,0 1.19699,-0.40082 0.42279,-0.40083 0.42279,-1.14208 0,-0.73577 -0.42279,-1.13659 -0.42279,-0.40083 -1.19699,-0.40083 z m -1.10913,-0.91147 h 2.50379 q 1.37818,0 2.081,0.62595 0.70831,0.62046 0.70831,1.82294 0,1.21346 -0.70831,1.83391 -0.70282,0.62046 -2.081,0.62046 h -1.39466 v 3.29446 h -1.10913 z"
         style="font-size:11.2451px;line-height:1.25"
         id="path80" />
      <path
         d="m 124.54841,335.82384 v 3.05836 h 3.05836 v 0.93343 h -3.05836 v 3.05836 h -0.92245 v -3.05836 h -3.05836 v -0.93343 h 3.05836 v -3.05836 z"
         style="font-size:11.2451px;line-height:1.25"
         id="path82" />
    </g>
    <g
       aria-label="N+"
       id="text22748"
       style="line-height:0%;font-family:'Bitstream Vera Sans';stroke-width:1px">
      <path
         d="m 195.64164,334.47128 h 1.49349 l 3.63489,6.85798 v -6.85798 h 1.07619 v 8.19773 h -1.49349 l -3.63489,-6.85798 v 6.85798 h -1.07619 z"
         style="font-size:11.2451px;line-height:1.25"
         id="path85" />
      <path
         d="m 208.12216,335.61886 v 3.05836 h 3.05836 v 0.93343 h -3.05836 v 3.05836 h -0.92245 v -3.05836 h -3.05836 v -0.93343 h 3.05836 v -3.05836 z"
         style="font-size:11.2451px;line-height:1.25"
         id="path87" />
    </g>
    <g
       aria-label="N+"
       id="text22752"
       style="line-height:0%;font-family:'Bitstream Vera Sans';stroke-width:1px">
      <path
         d="m 313.25565,333.89829 h 1.49349 l 3.63489,6.85797 v -6.85797 h 1.07619 v 8.19772 h -1.49348 l -3.6349,-6.85798 v 6.85798 h -1.07619 z"
         style="font-size:11.2451px;line-height:1.25"
         id="path90" />
      <path
         d="m 325.73618,335.04586 v 3.05836 h 3.05836 v 0.93343 h -3.05836 v 3.05836 h -0.92245 v -3.05836 h -3.05836 v -0.93343 h 3.05836 v -3.05836 z"
         style="font-size:11.2451px;line-height:1.25"
         id="path92" />
    </g>
    <g
       aria-label="P substrate"
       id="text22756"
       style="line-height:0%;font-family:'Bitstream Vera Sans';stroke-width:1px">
      <path
         d="m 182.62856,374.18855 v 2.20022 h 0.99618 q 0.553,0 0.85499,-0.2863 0.30199,-0.2863 0.30199,-0.81577 0,-0.52554 -0.30199,-0.81185 -0.30199,-0.2863 -0.85499,-0.2863 z m -0.79224,-0.65105 h 1.78842 q 0.98442,0 1.48643,0.44711 0.50593,0.44318 0.50593,1.30209 0,0.86676 -0.50593,1.30994 -0.50201,0.44318 -1.48643,0.44318 h -0.99618 v 2.35319 h -0.79224 z"
         style="font-size:8.0322px;line-height:1.25"
         id="path95" />
      <path
         d="m 192.00207,375.12982 v 0.68242 q -0.30591,-0.15687 -0.63536,-0.23531 -0.32944,-0.0784 -0.68242,-0.0784 -0.53731,0 -0.80793,0.16472 -0.26669,0.16472 -0.26669,0.49417 0,0.251 0.19218,0.39612 0.19217,0.14119 0.77263,0.27061 l 0.24708,0.0549 q 0.76871,0.16472 1.09031,0.46672 0.32552,0.29807 0.32552,0.83538 0,0.61182 -0.48632,0.96872 -0.48241,0.3569 -1.32955,0.3569 -0.35298,0 -0.73733,-0.0706 -0.38043,-0.0667 -0.80401,-0.20395 v -0.74517 q 0.40004,0.20786 0.78832,0.31376 0.38827,0.10197 0.76871,0.10197 0.50985,0 0.78439,-0.17257 0.27454,-0.17649 0.27454,-0.49417 0,-0.29414 -0.20002,-0.45102 -0.1961,-0.15688 -0.86676,-0.302 l -0.251,-0.0588 q -0.67066,-0.1412 -0.96873,-0.43142 -0.29807,-0.29415 -0.29807,-0.80401 0,-0.61967 0.43926,-0.95696 0.43926,-0.33729 1.24719,-0.33729 0.40004,0 0.75302,0.0588 0.35297,0.0588 0.65104,0.17649 z"
         style="font-size:8.0322px;line-height:1.25"
         id="path97" />
      <path
         d="m 193.31201,377.65949 v -2.65909 h 0.72165 v 2.63164 q 0,0.62359 0.24316,0.93735 0.24316,0.30984 0.72948,0.30984 0.58438,0 0.92167,-0.37259 0.34121,-0.37259 0.34121,-1.01579 v -2.49045 h 0.72164 v 4.39261 h -0.72164 v -0.67458 q -0.26277,0.40004 -0.61183,0.59614 -0.34513,0.19217 -0.804,0.19217 -0.75694,0 -1.14914,-0.47063 -0.3922,-0.47064 -0.3922,-1.37662 z m 1.81588,-2.76499 z"
         style="font-size:8.0322px;line-height:1.25"
         id="path99" />
      <path
         d="m 201.63052,377.20062 q 0,-0.79616 -0.32945,-1.24718 -0.32552,-0.45495 -0.89813,-0.45495 -0.57261,0 -0.90205,0.45495 -0.32553,0.45102 -0.32553,1.24718 0,0.79616 0.32553,1.25111 0.32944,0.45103 0.90205,0.45103 0.57261,0 0.89813,-0.45103 0.32945,-0.45495 0.32945,-1.25111 z m -2.45516,-1.53349 q 0.22748,-0.3922 0.57261,-0.58045 0.34906,-0.19218 0.83146,-0.19218 0.80008,0 1.29817,0.63536 0.50201,0.63536 0.50201,1.67076 0,1.0354 -0.50201,1.67076 -0.49809,0.63536 -1.29817,0.63536 -0.4824,0 -0.83146,-0.18825 -0.34513,-0.19218 -0.57261,-0.58438 v 0.6589 h -0.72556 v -6.10259 h 0.72556 z"
         style="font-size:8.0322px;line-height:1.25"
         id="path101" />
      <path
         d="m 206.3761,375.12982 v 0.68242 q -0.30591,-0.15687 -0.63536,-0.23531 -0.32944,-0.0784 -0.68242,-0.0784 -0.53731,0 -0.80793,0.16472 -0.26669,0.16472 -0.26669,0.49417 0,0.251 0.19218,0.39612 0.19217,0.14119 0.77263,0.27061 l 0.24708,0.0549 q 0.76871,0.16472 1.09031,0.46672 0.32552,0.29807 0.32552,0.83538 0,0.61182 -0.48632,0.96872 -0.48241,0.3569 -1.32955,0.3569 -0.35298,0 -0.73733,-0.0706 -0.38043,-0.0667 -0.80401,-0.20395 v -0.74517 q 0.40004,0.20786 0.78832,0.31376 0.38828,0.10197 0.76871,0.10197 0.50985,0 0.78439,-0.17257 0.27454,-0.17649 0.27454,-0.49417 0,-0.29414 -0.20002,-0.45102 -0.1961,-0.15688 -0.86676,-0.302 l -0.251,-0.0588 q -0.67066,-0.1412 -0.96873,-0.43142 -0.29807,-0.29415 -0.29807,-0.80401 0,-0.61967 0.43926,-0.95696 0.43926,-0.33729 1.24719,-0.33729 0.40004,0 0.75302,0.0588 0.35297,0.0588 0.65104,0.17649 z"
         style="font-size:8.0322px;line-height:1.25"
         id="path103" />
      <path
         d="m 208.47436,373.75321 v 1.24719 h 1.48643 v 0.56084 h -1.48643 v 2.38456 q 0,0.53731 0.14511,0.69026 0.14904,0.15296 0.60006,0.15296 h 0.74126 v 0.60399 h -0.74126 q -0.83538,0 -1.15306,-0.30984 -0.31768,-0.31376 -0.31768,-1.13737 v -2.38456 h -0.52946 v -0.56084 h 0.52946 v -1.24719 z"
         style="font-size:8.0322px;line-height:1.25"
         id="path105" />
      <path
         d="m 213.45526,375.67498 q -0.12158,-0.0706 -0.26669,-0.10198 -0.14119,-0.0353 -0.31376,-0.0353 -0.61183,0 -0.94127,0.40004 -0.32553,0.39612 -0.32553,1.14129 v 2.31397 h -0.72556 v -4.39261 h 0.72556 v 0.68242 q 0.22748,-0.40004 0.59222,-0.59222 0.36474,-0.1961 0.88637,-0.1961 0.0745,0 0.16472,0.0118 0.0902,0.008 0.20002,0.0274 z"
         style="font-size:8.0322px;line-height:1.25"
         id="path107" />
      <path
         d="m 216.20849,377.18493 q -0.8746,0 -1.21189,0.20003 -0.33729,0.20002 -0.33729,0.68242 0,0.38435 0.25101,0.61183 0.25493,0.22355 0.69026,0.22355 0.60007,0 0.96089,-0.42357 0.36474,-0.4275 0.36474,-1.13345 v -0.16081 z m 1.43936,-0.29807 v 2.50615 h -0.72164 v -0.66674 q -0.24708,0.40004 -0.61575,0.59222 -0.36866,0.18825 -0.90205,0.18825 -0.67458,0 -1.07462,-0.37651 -0.39612,-0.38043 -0.39612,-1.01579 0,-0.74125 0.49417,-1.11776 0.49809,-0.37651 1.4825,-0.37651 h 1.01187 v -0.0706 q 0,-0.4981 -0.32944,-0.76871 -0.32553,-0.27454 -0.91775,-0.27454 -0.37651,0 -0.73341,0.0902 -0.35689,0.0902 -0.68634,0.27061 v -0.66673 q 0.39612,-0.15296 0.76871,-0.22748 0.37258,-0.0784 0.72556,-0.0784 0.95304,0 1.42368,0.49417 0.47063,0.49417 0.47063,1.49819 z"
         style="font-size:8.0322px;line-height:1.25"
         id="path109" />
      <path
         d="m 219.84808,373.75321 v 1.24719 h 1.48643 v 0.56084 h -1.48643 v 2.38456 q 0,0.53731 0.14511,0.69026 0.14904,0.15296 0.60006,0.15296 h 0.74126 v 0.60399 h -0.74126 q -0.83538,0 -1.15306,-0.30984 -0.31768,-0.31376 -0.31768,-1.13737 v -2.38456 h -0.52946 v -0.56084 h 0.52946 v -1.24719 z"
         style="font-size:8.0322px;line-height:1.25"
         id="path111" />
      <path
         d="m 226.04087,377.01629 v 0.35298 h -3.31798 q 0.0471,0.74517 0.4471,1.13737 0.40396,0.38827 1.12168,0.38827 0.41573,0 0.80401,-0.10197 0.3922,-0.10197 0.77655,-0.30591 v 0.68242 q -0.38828,0.16473 -0.79616,0.25101 -0.40789,0.0863 -0.82754,0.0863 -1.05109,0 -1.66684,-0.61183 -0.61182,-0.61182 -0.61182,-1.65507 0,-1.07854 0.58045,-1.70998 0.58437,-0.63536 1.57271,-0.63536 0.88637,0 1.40014,0.57261 0.5177,0.56869 0.5177,1.54918 z m -0.72164,-0.21179 q -0.008,-0.59221 -0.33337,-0.94519 -0.3216,-0.35298 -0.85499,-0.35298 -0.60398,0 -0.96872,0.34121 -0.36083,0.34121 -0.41573,0.96089 z"
         style="font-size:8.0322px;line-height:1.25"
         id="path113" />
    </g>
    <g
       aria-label="Gate"
       id="text22760"
       style="line-height:0%;font-family:'Bitstream Vera Sans';stroke-width:1px">
      <path
         d="m 255.27264,276.27767 v -1.72132 h -1.41655 v -0.71257 h 2.27506 v 2.75154 q -0.50223,0.35628 -1.10748,0.54086 -0.60525,0.18029 -1.29206,0.18029 -1.5024,0 -2.35233,-0.87568 -0.84564,-0.87998 -0.84564,-2.44677 0,-1.57108 0.84564,-2.44677 0.84993,-0.87998 2.35233,-0.87998 0.62671,0 1.18904,0.15454 0.56662,0.15453 1.04309,0.45501 v 0.9229 q -0.48076,-0.40779 -1.02163,-0.61383 -0.54086,-0.20605 -1.13753,-0.20605 -1.17617,0 -1.76854,0.65677 -0.58808,0.65676 -0.58808,1.95741 0,1.29636 0.58808,1.95312 0.59237,0.65676 1.76854,0.65676 0.45931,0 0.81988,-0.0773 0.36058,-0.0816 0.64818,-0.24897 z"
         style="font-size:8.79119px;line-height:1.25"
         id="path116" />
      <path
         d="m 259.86569,274.77527 q -0.95724,0 -1.3264,0.21892 -0.36916,0.21892 -0.36916,0.74691 0,0.42067 0.27472,0.66964 0.27902,0.24467 0.75549,0.24467 0.65677,0 1.05169,-0.46359 0.3992,-0.46789 0.3992,-1.24056 v -0.17599 z m 1.57538,-0.32624 v 2.74296 h -0.78984 v -0.72974 q -0.27043,0.43784 -0.67393,0.64818 -0.4035,0.20604 -0.98729,0.20604 -0.73832,0 -1.17617,-0.41209 -0.43355,-0.41638 -0.43355,-1.11177 0,-0.8113 0.54087,-1.22339 0.54515,-0.41208 1.62259,-0.41208 h 1.10748 v -0.0773 q 0,-0.54516 -0.36057,-0.84134 -0.35629,-0.30048 -1.00446,-0.30048 -0.41209,0 -0.80271,0.0987 -0.39063,0.0987 -0.75121,0.29618 v -0.72973 q 0.43355,-0.16742 0.84135,-0.24897 0.40779,-0.0859 0.79413,-0.0859 1.04309,0 1.5582,0.54087 0.51511,0.54086 0.51511,1.63976 z"
         style="font-size:8.79119px;line-height:1.25"
         id="path118" />
      <path
         d="m 263.8492,271.01927 v 1.36503 h 1.62689 v 0.61384 h -1.62689 v 2.60989 q 0,0.58808 0.15883,0.75549 0.16311,0.16741 0.65676,0.16741 h 0.8113 v 0.66106 h -0.8113 q -0.91432,0 -1.26202,-0.33912 -0.34769,-0.3434 -0.34769,-1.24484 v -2.60989 h -0.5795 v -0.61384 h 0.5795 v -1.36503 z"
         style="font-size:8.79119px;line-height:1.25"
         id="path120" />
      <path
         d="m 270.62718,274.59069 v 0.38633 h -3.63152 q 0.0515,0.81559 0.48935,1.24484 0.44214,0.42497 1.22768,0.42497 0.45501,0 0.87998,-0.11161 0.42925,-0.1116 0.84992,-0.33482 v 0.74691 q -0.42496,0.18029 -0.87139,0.27472 -0.44643,0.0944 -0.90573,0.0944 -1.15041,0 -1.82434,-0.66964 -0.66965,-0.66964 -0.66965,-1.81147 0,-1.18045 0.6353,-1.87156 0.6396,-0.6954 1.72133,-0.6954 0.97012,0 1.53245,0.62672 0.56662,0.62242 0.56662,1.69557 z m -0.78984,-0.2318 q -0.009,-0.64818 -0.36487,-1.03451 -0.35199,-0.38633 -0.93578,-0.38633 -0.66105,0 -1.06026,0.37345 -0.39492,0.37345 -0.45502,1.05168 z"
         style="font-size:8.79119px;line-height:1.25"
         id="path122" />
    </g>
    <g
       aria-label="Drain"
       transform="scale(1.04484,0.957083)"
       id="text22764"
       style="line-height:0%;font-family:'Bitstream Vera Sans';stroke-width:1px">
      <path
         d="m 309.77705,284.33636 v 5.34711 h 1.12377 q 1.42313,0 2.08173,-0.64479 0.66321,-0.64478 0.66321,-2.03567 0,-1.38169 -0.66321,-2.02187 -0.6586,-0.64478 -2.08173,-0.64478 z m -0.93033,-0.76453 h 1.91132 q 1.99884,0 2.93377,0.83361 0.93494,0.82901 0.93494,2.59757 0,1.77776 -0.93954,2.61137 -0.93955,0.83362 -2.92917,0.83362 h -1.91132 z"
         style="font-size:9.43228px;line-height:1.25"
         id="path125" />
      <path
         d="m 319.06195,286.08188 q -0.14277,-0.0829 -0.31318,-0.11974 -0.1658,-0.0414 -0.36845,-0.0414 -0.71847,0 -1.10535,0.46977 -0.38226,0.46517 -0.38226,1.34023 v 2.71731 h -0.85204 v -5.15828 h 0.85204 v 0.80138 q 0.26712,-0.46978 0.69545,-0.69545 0.42832,-0.23028 1.04086,-0.23028 0.0875,0 0.19344,0.0138 0.10593,0.009 0.23488,0.0322 z"
         style="font-size:9.43228px;line-height:1.25"
         id="path127" />
      <path
         d="m 322.29508,287.85504 q -1.02705,0 -1.42313,0.23489 -0.39608,0.23488 -0.39608,0.80137 0,0.45135 0.29476,0.71848 0.29936,0.26252 0.81058,0.26252 0.70466,0 1.12838,-0.49741 0.42832,-0.50201 0.42832,-1.33102 v -0.18883 z m 1.69026,-0.35002 v 2.94298 h -0.84743 v -0.78295 q -0.29015,0.46977 -0.72308,0.69544 -0.43293,0.22107 -1.05929,0.22107 -0.79216,0 -1.26194,-0.44214 -0.46516,-0.44674 -0.46516,-1.19285 0,-0.87046 0.5803,-1.3126 0.58492,-0.44213 1.74092,-0.44213 h 1.18825 v -0.0829 q 0,-0.58491 -0.38687,-0.90269 -0.38227,-0.3224 -1.07771,-0.3224 -0.44214,0 -0.86125,0.10593 -0.41911,0.10593 -0.80598,0.31779 v -0.78295 q 0.46516,-0.17962 0.9027,-0.26713 0.43753,-0.0921 0.85203,-0.0921 1.11917,0 1.67184,0.58031 0.55267,0.5803 0.55267,1.75934 z"
         style="font-size:9.43228px;line-height:1.25"
         id="path129" />
      <path
         d="m 325.73087,285.28972 h 0.84743 v 5.15828 h -0.84743 z m 0,-2.00804 h 0.84743 v 1.0731 h -0.84743 z"
         style="font-size:9.43228px;line-height:1.25"
         id="path131" />
      <path
         d="m 332.63927,287.33461 v 3.11339 h -0.84743 v -3.08576 q 0,-0.73229 -0.28554,-1.09613 -0.28555,-0.36384 -0.85665,-0.36384 -0.68623,0 -1.08231,0.43753 -0.39609,0.43753 -0.39609,1.19285 v 2.91535 h -0.85203 v -5.15828 h 0.85203 v 0.80138 q 0.30397,-0.46517 0.71387,-0.69545 0.41451,-0.23028 0.95336,-0.23028 0.88888,0 1.34484,0.55267 0.45595,0.54807 0.45595,1.61657 z"
         style="font-size:9.43228px;line-height:1.25"
         id="path133" />
    </g>
    <g
       aria-label="Source"
       id="text22768"
       style="line-height:0%;font-family:'Bitstream Vera Sans';stroke-width:1px">
      <path
         d="m 180.57206,271.22577 v 0.82037 q -0.47889,-0.22904 -0.90365,-0.34148 -0.42476,-0.11243 -0.82036,-0.11243 -0.68711,0 -1.0619,0.26651 -0.37062,0.26652 -0.37062,0.7579 0,0.41227 0.24569,0.62465 0.24986,0.20821 0.94113,0.33731 l 0.50805,0.1041 q 0.94113,0.17907 1.38671,0.63298 0.44974,0.44974 0.44974,1.20764 0,0.90366 -0.60799,1.37006 -0.60382,0.4664 -1.77399,0.4664 -0.44141,0 -0.94113,-0.0999 -0.49555,-0.0999 -1.02858,-0.29567 V 276.098 q 0.51221,0.28733 1.0036,0.43308 0.49138,0.14575 0.96611,0.14575 0.72043,0 1.11187,-0.28317 0.39144,-0.28317 0.39144,-0.80787 0,-0.45807 -0.28317,-0.71626 -0.27901,-0.25819 -0.92031,-0.38728 l -0.51221,-0.0999 q -0.94113,-0.1874 -1.36172,-0.58717 -0.42059,-0.39977 -0.42059,-1.11187 0,-0.82453 0.57883,-1.29926 0.583,-0.47473 1.60326,-0.47473 0.43725,0 0.89116,0.0791 0.4539,0.0791 0.92863,0.23737 z"
         style="font-size:8.52848px;line-height:1.25"
         id="path136" />
      <path
         d="m 184.0326,273.1122 q -0.61632,0 -0.97445,0.48305 -0.35813,0.4789 -0.35813,1.31592 0,0.83703 0.35397,1.32008 0.35813,0.4789 0.97861,0.4789 0.61215,0 0.97028,-0.48306 0.35813,-0.48306 0.35813,-1.31592 0,-0.82869 -0.35813,-1.31175 -0.35813,-0.48722 -0.97028,-0.48722 z m 0,-0.64963 q 0.99943,0 1.56994,0.64963 0.5705,0.64963 0.5705,1.79897 0,1.14518 -0.5705,1.79898 -0.57051,0.64963 -1.56994,0.64963 -1.0036,0 -1.57411,-0.64963 -0.56634,-0.6538 -0.56634,-1.79898 0,-1.14934 0.56634,-1.79897 0.57051,-0.64963 1.57411,-0.64963 z"
         style="font-size:8.52848px;line-height:1.25"
         id="path138" />
      <path
         d="M 187.36403,275.39839 V 272.575 h 0.76623 v 2.79424 q 0,0.66213 0.25819,0.99527 0.25819,0.32898 0.77456,0.32898 0.62048,0 0.97861,-0.39561 0.36229,-0.39561 0.36229,-1.07855 V 272.575 h 0.76623 v 4.66401 h -0.76623 v -0.71626 q -0.27901,0.42476 -0.64963,0.63298 -0.36646,0.20405 -0.85368,0.20405 -0.80371,0 -1.22014,-0.49972 -0.41643,-0.49971 -0.41643,-1.46167 z m 1.92807,-2.93582 z"
         style="font-size:8.52848px;line-height:1.25"
         id="path140" />
      <path
         d="m 195.55104,273.29126 q -0.12909,-0.075 -0.28317,-0.10827 -0.14992,-0.0375 -0.33315,-0.0375 -0.64963,0 -0.99943,0.42476 -0.34563,0.42059 -0.34563,1.21181 v 2.45693 h -0.7704 V 272.575 h 0.7704 v 0.72459 q 0.24153,-0.42476 0.62881,-0.62881 0.38727,-0.20821 0.94113,-0.20821 0.0791,0 0.1749,0.0125 0.0958,0.008 0.21238,0.0292 z"
         style="font-size:8.52848px;line-height:1.25"
         id="path142" />
      <path
         d="m 199.52378,272.75407 v 0.71626 q -0.32482,-0.17907 -0.65379,-0.26652 -0.32482,-0.0916 -0.65796,-0.0916 -0.74541,0 -1.15768,0.47473 -0.41226,0.47056 -0.41226,1.32424 0,0.85368 0.41226,1.32841 0.41227,0.47057 1.15768,0.47057 0.33314,0 0.65796,-0.0874 0.32897,-0.0916 0.65379,-0.27068 v 0.70793 q -0.32065,0.14991 -0.66629,0.22487 -0.34147,0.075 -0.72875,0.075 -1.05357,0 -1.67405,-0.66212 -0.62048,-0.66213 -0.62048,-1.78649 0,-1.14102 0.62465,-1.79481 0.62881,-0.65379 1.71985,-0.65379 0.35397,0 0.69128,0.0749 0.3373,0.0708 0.65379,0.21655 z"
         style="font-size:8.52848px;line-height:1.25"
         id="path144" />
      <path
         d="m 204.84575,274.71545 v 0.37479 h -3.52299 q 0.05,0.79121 0.47473,1.20764 0.42892,0.41227 1.19098,0.41227 0.44142,0 0.85368,-0.10827 0.41643,-0.10828 0.82454,-0.32482 v 0.72459 q -0.41227,0.1749 -0.84536,0.26651 -0.43308,0.0916 -0.87866,0.0916 -1.11603,0 -1.76983,-0.64963 -0.64963,-0.64963 -0.64963,-1.75734 0,-1.14518 0.61632,-1.81563 0.62048,-0.67461 1.66988,-0.67461 0.94113,0 1.48665,0.60798 0.54969,0.60383 0.54969,1.6449 z m -0.76623,-0.22487 q -0.008,-0.62881 -0.35397,-1.0036 -0.34147,-0.37478 -0.90781,-0.37478 -0.6413,0 -1.02858,0.36229 -0.38312,0.36229 -0.44142,1.02025 z"
         style="font-size:8.52848px;line-height:1.25"
         id="path146" />
    </g>
    <path
       id="rect22782"
       style="fill:#4c2eed;stroke-linejoin:round"
       d="m 112.27969,298.14371 h 18.66162 v 28.91745 h -18.66162 z" />
    <path
       id="rect22784"
       style="fill:#4c2eed;stroke-linejoin:round"
       d="m 130.31627,298.16879 h 52.04276 v 15.37454 h -52.04276 z" />
    <g
       aria-label="depletion region"
       id="text22786"
       style="line-height:0%;font-family:'Bitstream Vera Sans';stroke-width:1px">
      <path
         d="m 241.28241,365.14633 v -2.22031 h 0.67415 v 5.70099 h -0.67415 v -0.61553 q -0.21251,0.36639 -0.53859,0.54592 -0.32243,0.17587 -0.77675,0.17587 -0.74376,0 -1.21274,-0.59355 -0.46531,-0.59355 -0.46531,-1.56081 0,-0.96727 0.46531,-1.56081 0.46898,-0.59355 1.21274,-0.59355 0.45432,0 0.77675,0.17953 0.32608,0.17586 0.53859,0.54225 z m -2.29726,1.43258 q 0,0.74376 0.30411,1.16877 0.30776,0.42135 0.84269,0.42135 0.53492,0 0.84269,-0.42135 0.30777,-0.42501 0.30777,-1.16877 0,-0.74377 -0.30777,-1.16512 -0.30777,-0.42501 -0.84269,-0.42501 -0.53493,0 -0.84269,0.42501 -0.30411,0.42135 -0.30411,1.16512 z"
         style="font-size:7.50362px;line-height:1.25"
         id="path151" />
      <path
         d="m 246.85516,366.4067 v 0.32975 h -3.09964 q 0.044,0.69614 0.41768,1.06253 0.37738,0.36272 1.04787,0.36272 0.38837,0 0.7511,-0.0953 0.36639,-0.0953 0.72545,-0.28578 v 0.63751 q -0.36273,0.15389 -0.74377,0.23449 -0.38104,0.0806 -0.77308,0.0806 -0.98192,0 -1.55715,-0.57157 -0.57156,-0.57156 -0.57156,-1.54615 0,-1.00757 0.54225,-1.59745 0.54592,-0.59355 1.46922,-0.59355 0.82803,0 1.308,0.53492 0.48363,0.53127 0.48363,1.44723 z m -0.67415,-0.19784 q -0.007,-0.55325 -0.31143,-0.883 -0.30044,-0.32975 -0.79873,-0.32975 -0.56423,0 -0.90497,0.31876 -0.33708,0.31876 -0.38837,0.89765 z"
         style="font-size:7.50362px;line-height:1.25"
         id="path153" />
      <path
         d="m 248.61382,368.01148 v 2.17635 h -0.67781 v -5.66436 h 0.67781 v 0.62286 q 0.21251,-0.36639 0.53493,-0.54225 0.32608,-0.17953 0.77674,-0.17953 0.74743,0 1.21274,0.59355 0.46898,0.59354 0.46898,1.56081 0,0.96726 -0.46898,1.56081 -0.46531,0.59355 -1.21274,0.59355 -0.45066,0 -0.77674,-0.17587 -0.32242,-0.17953 -0.53493,-0.54592 z m 2.29359,-1.43257 q 0,-0.74377 -0.30777,-1.16512 -0.3041,-0.42501 -0.83902,-0.42501 -0.53493,0 -0.84269,0.42501 -0.30411,0.42135 -0.30411,1.16512 0,0.74376 0.30411,1.16877 0.30776,0.42135 0.84269,0.42135 0.53492,0 0.83902,-0.42135 0.30777,-0.42501 0.30777,-1.16877 z"
         style="font-size:7.50362px;line-height:1.25"
         id="path155" />
      <path
         d="m 252.72469,362.92602 h 0.67416 v 5.70099 h -0.67416 z"
         style="font-size:7.50362px;line-height:1.25"
         id="path157" />
      <path
         d="m 258.31943,366.4067 v 0.32975 h -3.09964 q 0.044,0.69614 0.41769,1.06253 0.37738,0.36272 1.04787,0.36272 0.38837,0 0.75109,-0.0953 0.36639,-0.0953 0.72545,-0.28578 v 0.63751 q -0.36273,0.15389 -0.74377,0.23449 -0.38104,0.0806 -0.77308,0.0806 -0.98192,0 -1.55714,-0.57157 -0.57157,-0.57156 -0.57157,-1.54615 0,-1.00757 0.54225,-1.59745 0.54592,-0.59355 1.46922,-0.59355 0.82803,0 1.308,0.53492 0.48363,0.53127 0.48363,1.44723 z m -0.67415,-0.19784 q -0.007,-0.55325 -0.31143,-0.883 -0.30044,-0.32975 -0.79872,-0.32975 -0.56424,0 -0.90498,0.31876 -0.33708,0.31876 -0.38837,0.89765 z"
         style="font-size:7.50362px;line-height:1.25"
         id="path159" />
      <path
         d="m 260.09275,363.35836 v 1.16511 h 1.38861 v 0.52394 h -1.38861 v 2.22763 q 0,0.50195 0.13556,0.64485 0.13923,0.14289 0.56058,0.14289 h 0.69247 v 0.56423 h -0.69247 q -0.78041,0 -1.07718,-0.28944 -0.29678,-0.29311 -0.29678,-1.06253 v -2.22763 h -0.49462 v -0.52394 h 0.49462 v -1.16511 z"
         style="font-size:7.50362px;line-height:1.25"
         id="path161" />
      <path
         d="m 262.36802,364.52347 h 0.67415 v 4.10354 h -0.67415 z m 0,-1.59745 h 0.67415 v 0.85368 h -0.67415 z"
         style="font-size:7.50362px;line-height:1.25"
         id="path163" />
      <path
         d="m 266.04289,364.99611 q -0.54226,0 -0.85735,0.42501 -0.31509,0.42135 -0.31509,1.15779 0,0.73644 0.31143,1.16145 0.31509,0.42134 0.86101,0.42134 0.53859,0 0.85368,-0.42501 0.31509,-0.42501 0.31509,-1.15778 0,-0.72911 -0.31509,-1.15412 -0.31509,-0.42868 -0.85368,-0.42868 z m 0,-0.57156 q 0.87933,0 1.38128,0.57156 0.50195,0.57157 0.50195,1.5828 0,1.00756 -0.50195,1.58279 -0.50195,0.57157 -1.38128,0.57157 -0.883,0 -1.38495,-0.57157 -0.49829,-0.57523 -0.49829,-1.58279 0,-1.01123 0.49829,-1.5828 0.50195,-0.57156 1.38495,-0.57156 z"
         style="font-size:7.50362px;line-height:1.25"
         id="path165" />
      <path
         d="m 272.45467,366.15023 v 2.47678 h -0.67415 v -2.45479 q 0,-0.58256 -0.22716,-0.87201 -0.22716,-0.28944 -0.68148,-0.28944 -0.54592,0 -0.86101,0.34807 -0.3151,0.34806 -0.3151,0.94894 v 2.31923 h -0.67782 v -4.10354 h 0.67782 v 0.63752 q 0.24182,-0.37006 0.5679,-0.55325 0.32975,-0.18319 0.75843,-0.18319 0.70712,0 1.06985,0.43966 0.36272,0.436 0.36272,1.28602 z"
         style="font-size:7.50362px;line-height:1.25"
         id="path167" />
      <path
         d="m 278.56236,365.15366 q -0.11358,-0.0659 -0.24915,-0.0953 -0.1319,-0.033 -0.29311,-0.033 -0.57156,0 -0.87933,0.37372 -0.3041,0.37005 -0.3041,1.06619 v 2.16168 h -0.67782 v -4.10354 h 0.67782 v 0.63752 q 0.2125,-0.37372 0.55325,-0.55325 0.34074,-0.18319 0.82803,-0.18319 0.0696,0 0.15388,0.011 0.0843,0.007 0.18686,0.0256 z"
         style="font-size:7.50362px;line-height:1.25"
         id="path169" />
      <path
         d="m 282.6146,366.4067 v 0.32975 h -3.09964 q 0.044,0.69614 0.41768,1.06253 0.37738,0.36272 1.04787,0.36272 0.38837,0 0.7511,-0.0953 0.36639,-0.0953 0.72545,-0.28578 v 0.63751 q -0.36273,0.15389 -0.74377,0.23449 -0.38104,0.0806 -0.77308,0.0806 -0.98192,0 -1.55715,-0.57157 -0.57156,-0.57156 -0.57156,-1.54615 0,-1.00757 0.54225,-1.59745 0.54592,-0.59355 1.46922,-0.59355 0.82803,0 1.308,0.53492 0.48363,0.53127 0.48363,1.44723 z m -0.67415,-0.19784 q -0.007,-0.55325 -0.31143,-0.883 -0.30044,-0.32975 -0.79873,-0.32975 -0.56423,0 -0.90497,0.31876 -0.33708,0.31876 -0.38837,0.89765 z"
         style="font-size:7.50362px;line-height:1.25"
         id="path171" />
      <path
         d="m 286.42137,366.52761 q 0,-0.73277 -0.3041,-1.1358 -0.30044,-0.40303 -0.84636,-0.40303 -0.54225,0 -0.84635,0.40303 -0.30044,0.40303 -0.30044,1.1358 0,0.72911 0.30044,1.13214 0.3041,0.40303 0.84635,0.40303 0.54592,0 0.84636,-0.40303 0.3041,-0.40303 0.3041,-1.13214 z m 0.67415,1.59013 q 0,1.04786 -0.46531,1.55714 -0.46531,0.51295 -1.42525,0.51295 -0.35539,0 -0.67049,-0.055 -0.31509,-0.0513 -0.61186,-0.16121 v -0.65584 q 0.29677,0.16121 0.58622,0.23816 0.28944,0.0769 0.58988,0.0769 0.66316,0 0.99291,-0.34807 0.32975,-0.34441 0.32975,-1.04421 v -0.33341 q -0.20884,0.36272 -0.53492,0.54225 -0.32609,0.17953 -0.78041,0.17953 -0.75476,0 -1.21641,-0.57522 -0.46165,-0.57523 -0.46165,-1.52418 0,-0.95261 0.46165,-1.52783 0.46165,-0.57523 1.21641,-0.57523 0.45432,0 0.78041,0.17953 0.32608,0.17953 0.53492,0.54225 v -0.62286 h 0.67415 z"
         style="font-size:7.50362px;line-height:1.25"
         id="path173" />
      <path
         d="m 288.48413,364.52347 h 0.67416 v 4.10354 h -0.67416 z m 0,-1.59745 h 0.67416 v 0.85368 h -0.67416 z"
         style="font-size:7.50362px;line-height:1.25"
         id="path175" />
      <path
         d="m 292.159,364.99611 q -0.54225,0 -0.85734,0.42501 -0.3151,0.42135 -0.3151,1.15779 0,0.73644 0.31143,1.16145 0.31509,0.42134 0.86101,0.42134 0.53859,0 0.85369,-0.42501 0.31509,-0.42501 0.31509,-1.15778 0,-0.72911 -0.31509,-1.15412 -0.3151,-0.42868 -0.85369,-0.42868 z m 0,-0.57156 q 0.87933,0 1.38128,0.57156 0.50196,0.57157 0.50196,1.5828 0,1.00756 -0.50196,1.58279 -0.50195,0.57157 -1.38128,0.57157 -0.88299,0 -1.38494,-0.57157 -0.49829,-0.57523 -0.49829,-1.58279 0,-1.01123 0.49829,-1.5828 0.50195,-0.57156 1.38494,-0.57156 z"
         style="font-size:7.50362px;line-height:1.25"
         id="path177" />
      <path
         d="m 298.57079,366.15023 v 2.47678 h -0.67415 v -2.45479 q 0,-0.58256 -0.22717,-0.87201 -0.22716,-0.28944 -0.68148,-0.28944 -0.54591,0 -0.86101,0.34807 -0.31509,0.34806 -0.31509,0.94894 v 2.31923 h -0.67782 v -4.10354 h 0.67782 v 0.63752 q 0.24182,-0.37006 0.5679,-0.55325 0.32975,-0.18319 0.75842,-0.18319 0.70713,0 1.06985,0.43966 0.36273,0.436 0.36273,1.28602 z"
         style="font-size:7.50362px;line-height:1.25"
         id="path179" />
    </g>
    <path
       style="fill:none;fill-rule:evenodd;stroke:#000000;stroke-width:0.430884;stroke-linecap:butt;stroke-linejoin:miter;stroke-miterlimit:4;stroke-dasharray:none;stroke-opacity:1"
       d="m 263.34181,358.54582 -4.84792,-27.5013"
       id="path22790" />
    <path
       style="fill:#000000;fill-opacity:1;fill-rule:evenodd;stroke:#000000;stroke-width:0.277519px;stroke-linecap:butt;stroke-linejoin:miter;stroke-opacity:1"
       d="m 258.46974,330.20664 2.41136,3.48233 -3.76915,0.59531 z"
       id="path22794"
       sodipodi:nodetypes="cccc" />
    <g
       id="g22800"
       transform="matrix(0.861769,0,0,0.861769,60.2874,87.3239)">
      <path
         id="path22802"
         d="M 163.99349,242.11219 H 217.25"
         style="fill:none;fill-rule:evenodd;stroke:#000000;stroke-width:1px;stroke-linecap:butt;stroke-linejoin:miter;stroke-opacity:1"
         sodipodi:nodetypes="cc" />
      <path
         sodipodi:nodetypes="cccc"
         id="path22804"
         d="m 218.68465,242.06829 -4.41524,2.15968 -0.0262,-4.42789 z"
         style="fill:#000000;fill-opacity:1;fill-rule:evenodd;stroke:#000000;stroke-width:0.322034px;stroke-linecap:butt;stroke-linejoin:miter;stroke-opacity:1" />
    </g>
    <g
       aria-label="V"
       id="text22806"
       style="line-height:0%;font-family:'Bitstream Vera Sans';stroke-width:1px">
      <path
         d="m 207.70395,289.17599 -2.87816,-7.53877 h 1.06542 l 2.38837,6.34711 2.39343,-6.34711 h 1.06037 l -2.87311,7.53877 z"
         style="font-size:10.3412px;line-height:1.25"
         id="path182" />
    </g>
    <g
       aria-label="GS"
       id="text22810"
       style="line-height:0%;font-family:'Bitstream Vera Sans';stroke-width:1px">
      <path
         d="m 214.63009,290.54384 v -1.18823 h -0.97784 v -0.49188 h 1.57047 v 1.89938 q -0.34669,0.24594 -0.76449,0.37336 -0.41781,0.12445 -0.89191,0.12445 -1.03711,0 -1.62381,-0.60448 -0.58374,-0.60745 -0.58374,-1.689 0,-1.08452 0.58374,-1.689 0.5867,-0.60745 1.62381,-0.60745 0.43262,0 0.82079,0.10668 0.39114,0.10667 0.72005,0.31409 v 0.63708 q -0.33187,-0.2815 -0.70523,-0.42373 -0.37336,-0.14223 -0.78524,-0.14223 -0.8119,0 -1.22082,0.45336 -0.40595,0.45336 -0.40595,1.3512 0,0.89487 0.40595,1.34823 0.40892,0.45337 1.22082,0.45337 0.31706,0 0.56596,-0.0533 0.24891,-0.0563 0.44744,-0.17186 z"
         style="font-size:6.06854px;line-height:1.25"
         id="path185" />
      <path
         d="m 218.96815,286.89619 v 0.58374 q -0.34076,-0.16297 -0.64301,-0.24297 -0.30224,-0.08 -0.58374,-0.08 -0.48892,0 -0.7556,0.18964 -0.26372,0.18964 -0.26372,0.5393 0,0.29335 0.17482,0.44447 0.17779,0.14816 0.66968,0.24002 l 0.3615,0.0741 q 0.66967,0.12742 0.98673,0.4504 0.32002,0.32002 0.32002,0.85932 0,0.643 -0.43262,0.97488 -0.42966,0.33187 -1.2623,0.33187 -0.3141,0 -0.66967,-0.0711 -0.35262,-0.0711 -0.7319,-0.21038 v -0.61634 q 0.36446,0.20446 0.71412,0.30817 0.34965,0.10371 0.68745,0.10371 0.51262,0 0.79116,-0.20149 0.27854,-0.2015 0.27854,-0.57485 0,-0.32595 -0.2015,-0.50967 -0.19853,-0.18371 -0.65485,-0.27557 l -0.36447,-0.0711 q -0.66968,-0.13334 -0.96895,-0.4178 -0.29928,-0.28446 -0.29928,-0.79116 0,-0.58671 0.41188,-0.92451 0.41484,-0.3378 1.14081,-0.3378 0.31113,0 0.63412,0.0563 0.32298,0.0563 0.66078,0.1689 z"
         style="font-size:6.06854px;line-height:1.25"
         id="path187" />
    </g>
    <g
       aria-label="V"
       id="text22840"
       style="line-height:0%;font-family:'Bitstream Vera Sans';stroke-width:1px">
      <path
         d="m 234.23195,289.11499 -2.87816,-7.53877 h 1.06542 l 2.38837,6.34711 2.39343,-6.34711 h 1.06037 l -2.87311,7.53877 z"
         style="font-size:10.3412px;line-height:1.25"
         id="path190" />
    </g>
    <g
       aria-label="TH"
       id="text22844"
       style="line-height:0%;font-family:'Bitstream Vera Sans';stroke-width:1px">
      <path
         d="m 237.52823,286.69002 h 3.74246 v 0.50374 h -1.57047 v 3.92025 h -0.60152 v -3.92025 h -1.57047 z"
         style="font-size:6.06854px;line-height:1.25"
         id="path193" />
      <path
         d="m 241.84851,286.69002 h 0.59855 v 1.81345 h 2.17496 v -1.81345 h 0.59855 v 4.42399 h -0.59855 v -2.1068 h -2.17496 v 2.1068 h -0.59855 z"
         style="font-size:6.06854px;line-height:1.25"
         id="path195" />
    </g>
    <path
       style="fill:none;fill-rule:evenodd;stroke:#000000;stroke-width:0.861769px;stroke-linecap:butt;stroke-linejoin:bevel;stroke-opacity:1"
       d="m 227.96048,282.46724 -6.94826,2.283 6.74974,3.07708"
       id="path22848" />
  </g>
</svg>
