<svg width="199" height="306" xmlns="http://www.w3.org/2000/svg" xmlns:xlink="http://www.w3.org/1999/xlink" xml:space="preserve" overflow="hidden"><g transform="translate(-507 -94)"><path d="M169.402 322.591 254.948 322.591 254.948 455.056 169.402 455.056Z" stroke="#060000" stroke-width="2.42285" stroke-linecap="round" stroke-linejoin="round" stroke-miterlimit="1.5" fill="#FFFFFF" fill-rule="evenodd" transform="matrix(1.0005 0 0 1 374.123 -109.324)"/><path d="M17.2659-23.2215 28.0844-38.6843 33.0019-38.6843 19.8885-20.3257 34.0947 0 28.904 0 17.102-17.5391 5.24533 0 0.327833 0 14.4793-20.3257 1.42061-38.6843 6.72058-38.6843 17.2659-23.2215Z" transform="matrix(1.01264 0 0 1 566.448 292.867)"/><path d="M661.543 851.456 698.524 851.456" stroke="#060000" stroke-width="2.4211" stroke-linecap="round" stroke-linejoin="round" stroke-miterlimit="1.5" fill="none" fill-rule="evenodd" transform="matrix(1.0005 0 0 1 -96.2061 -551.197)"/><path d="M661.543 851.456 698.524 851.456" stroke="#060000" stroke-width="2.4211" stroke-linecap="round" stroke-linejoin="round" stroke-miterlimit="1.5" fill="none" fill-rule="evenodd" transform="matrix(1.0005 0 0 1 -96.2061 -544.01)"/><path d="M76.9332 146.503 115.783 146.503 115.783 206.661 76.9332 206.661Z" stroke="#060000" stroke-width="1.41729" stroke-linecap="round" stroke-linejoin="round" stroke-miterlimit="1.5" fill="#FFFFFF" fill-rule="evenodd" transform="matrix(1.34898e-16 -2.20194 1 6.12016e-17 493.359 373.361)"/><path d="M76.9332 146.503 115.783 146.503 115.783 206.661 76.9332 206.661Z" stroke="#060000" stroke-width="0.962309" stroke-linecap="round" stroke-linejoin="round" stroke-miterlimit="1.5" fill="#FFFFFF" fill-rule="evenodd" transform="matrix(2.09294e-16 -3.41631 1 6.12016e-17 493.359 608.394)"/><path d="M17.6484 0 13.7144 0 13.7144-16.6649-0.764944-38.6843 4.15255-38.6843 15.6814-20.4349 27.2102-38.6843 32.1276-38.6843 17.6484-16.6649 17.6484 0Z" transform="matrix(1.01264 0 0 1 653.044 298.192)"/><path d="M661.543 851.456 698.524 851.456" stroke="#060000" stroke-width="2.4211" stroke-linecap="round" stroke-linejoin="round" stroke-miterlimit="1.5" fill="none" fill-rule="evenodd" transform="matrix(1.0005 0 0 1 -9.6105 -545.874)"/><path d="M661.543 851.456 698.524 851.456" stroke="#060000" stroke-width="2.4211" stroke-linecap="round" stroke-linejoin="round" stroke-miterlimit="1.5" fill="none" fill-rule="evenodd" transform="matrix(1.0005 0 0 1 -9.6105 -538.687)"/><path d="M409.474 382.445 423.739 368.181" stroke="#060000" stroke-width="2.42285" stroke-linecap="round" stroke-linejoin="round" stroke-miterlimit="1.5" fill="none" fill-rule="evenodd" transform="matrix(1.0005 0 0 1 244.834 -128.835)"/><path d="M423.739 368.181 437.54 381.984" stroke="#060000" stroke-width="2.42285" stroke-linecap="round" stroke-linejoin="round" stroke-miterlimit="1.5" fill="none" fill-rule="evenodd" transform="matrix(1.0005 0 0 1 244.834 -128.835)"/><path d="M390.126 251.582 394.262 251.582 394.262 329.068 390.126 329.068Z" stroke="#FF0000" stroke-width="2.40129" stroke-linecap="round" stroke-linejoin="round" stroke-miterlimit="1.5" fill="#FF0000" fill-rule="evenodd" transform="matrix(1.01909 0 0 1 245.985 -129.129)"/><path d="M390.322 251.708 394.46 251.708 394.46 329.233 390.322 329.233Z" stroke="#FF0000" stroke-width="2.4025" stroke-linecap="round" stroke-linejoin="round" stroke-miterlimit="1.5" fill="#FF0000" fill-rule="evenodd" transform="matrix(6.237e-17 -1.01807 1 6.12016e-17 295.949 618.98)"/><path d="M18.7215 12.073 18.92 12.073 18.92 15.7914 18.7215 15.7914Z" stroke="#FF0000" stroke-width="0.161248" stroke-linecap="round" stroke-linejoin="round" stroke-miterlimit="1.5" fill="#FF0000" fill-rule="evenodd" transform="matrix(1.30034e-15 -21.2256 1 6.12016e-17 631.342 618.98)"/><path d="M26.8179-1.45125C26.8179-1.02797 26.6667-0.665156 26.3643-0.332578 26.062 0 25.669 0.181406 25.1852 0.181406 24.7015 0.181406 24.3084 0 24.0061-0.332578 23.7037-0.665156 23.5526-1.02797 23.5526-1.45125 23.5526-1.87453 23.7037-2.26758 24.0061-2.60015 24.3084-2.93273 24.7015-3.0839 25.1852-3.0839 25.669-3.0839 26.062-2.93273 26.3643-2.60015 26.6667-2.26758 26.8179-1.87453 26.8179-1.45125ZM16.7498-1.45125C16.7498-1.02797 16.5987-0.665156 16.2963-0.332578 15.994 0 15.6009 0.181406 15.1172 0.181406 14.6334 0.181406 14.2404 0 13.938-0.332578 13.6357-0.665156 13.4845-1.02797 13.4845-1.45125 13.4845-1.87453 13.6357-2.26758 13.938-2.60015 14.2404-2.93273 14.6334-3.0839 15.1172-3.0839 15.6009-3.0839 15.994-2.93273 16.2963-2.60015 16.5987-2.26758 16.7498-1.87453 16.7498-1.45125ZM6.68179-1.45125C6.68179-1.02797 6.53062-0.665156 6.22827-0.332578 5.92593 0 5.53289 0.181406 5.04914 0.181406 4.56539 0.181406 4.17234 0 3.87-0.332578 3.56765-0.665156 3.41648-1.02797 3.41648-1.45125 3.41648-1.87453 3.56765-2.26758 3.87-2.60015 4.17234-2.93273 4.56539-3.0839 5.04914-3.0839 5.53289-3.0839 5.92593-2.93273 6.22827-2.60015 6.53062-2.26758 6.68179-1.87453 6.68179-1.45125Z" fill="#FF0000" transform="matrix(6.19748e-17 -1.01162 1 6.12015e-17 646.776 253.733)"/><path d="M10.7825-27.4464C8.03034-27.4464 5.91908-26.5793 4.48643-24.845 3.05379-23.1485 2.33747-20.7356 2.33747-17.6441L2.33747 7.46482 5.35356 7.46482 5.35356-3.28 5.42896-3.28C6.18298-1.99816 7.16321-1.05563 8.36965-0.377011 9.50068 0.226207 10.7448 0.527816 12.1021 0.527816 14.5149 0.527816 16.5131-0.263908 18.0588-1.80965 19.5669-3.3931 20.3209-5.50436 20.3209-8.14344 20.3209-9.95309 19.7931-11.5365 18.8129-12.8184 17.8326-14.1379 16.4377-15.005 14.6657-15.4575L14.6657-15.5329C17.154-16.4377 18.4358-18.3227 18.4358-21.1126 18.4358-22.9223 17.7195-24.3926 16.3623-25.5991 14.9296-26.8432 13.0823-27.4464 10.7825-27.4464ZM10.5563-24.9204C12.1398-24.9204 13.3462-24.5057 14.1756-23.6386 14.9296-22.8469 15.3067-21.7535 15.3067-20.3963 15.3067-19.1145 14.9296-18.0588 14.251-17.2671 13.497-16.5131 12.366-16.0984 10.9333-16.0984L9.46298-16.0984 9.46298-13.874 10.971-13.874C13.12-13.874 14.7034-13.3462 15.7591-12.2529 16.7016-11.2726 17.1917-9.87769 17.1917-8.06804 17.1917-6.18298 16.6639-4.71264 15.6837-3.61931 14.628-2.52597 13.1577-1.96046 11.1972-1.96046 9.46298-1.96046 8.06804-2.60138 7.01241-3.88321 5.88137-5.24045 5.35356-7.01241 5.35356-9.16137L5.35356-17.7195C5.35356-20.1324 5.80597-21.942 6.7485-23.1485 7.61563-24.3549 8.89746-24.9204 10.5563-24.9204Z" transform="matrix(1.0005 0 0 1 658.401 170.437)"/><path d="M3.45981-8.8068C2.57671-8.8068 1.89927-8.52856 1.43957-7.97209 0.979878-7.42771 0.75003-6.65349 0.75003-5.66151L0.75003 2.39526 1.71781 2.39526 1.71781-1.05246 1.742-1.05246C1.98395-0.641154 2.29848-0.338723 2.68559-0.120973 3.04851 0.0725835 3.44772 0.169362 3.88322 0.169362 4.65744 0.169362 5.2986-0.0846808 5.79458-0.580668 6.27847-1.08875 6.52042-1.7662 6.52042-2.61301 6.52042-3.19368 6.35106-3.70176 6.03653-4.11307 5.722-4.53647 5.2744-4.81471 4.70583-4.95987L4.70583-4.98407C5.50425-5.2744 5.91556-5.87927 5.91556-6.77446 5.91556-7.35513 5.68571-7.82692 5.25021-8.21404 4.79051-8.61325 4.19775-8.8068 3.45981-8.8068ZM3.38723-7.99628C3.89532-7.99628 4.28243-7.86321 4.54857-7.58498 4.79051-7.33094 4.91148-6.98012 4.91148-6.54461 4.91148-6.13331 4.79051-5.79458 4.57276-5.54054 4.33082-5.2986 3.9679-5.16553 3.5082-5.16553L3.03641-5.16553 3.03641-4.45179 3.5203-4.45179C4.20984-4.45179 4.71793-4.28243 5.05665-3.93161 5.35908-3.61708 5.51635-3.16948 5.51635-2.58881 5.51635-1.98395 5.34699-1.51216 5.03246-1.16134 4.69373-0.810516 4.22194-0.629057 3.59288-0.629057 3.03641-0.629057 2.58881-0.83471 2.25009-1.24602 1.88717-1.68152 1.71781-2.25009 1.71781-2.93963L1.71781-5.68571C1.71781-6.45993 1.86298-7.0406 2.16541-7.42771 2.44365-7.81483 2.85495-7.99628 3.38723-7.99628Z" transform="matrix(1.0005 0 0 1 638.565 360.541)"/><path d="M360.269 295.623 375.965 295.623" stroke="#060000" stroke-width="2.42285" stroke-linecap="round" stroke-linejoin="round" stroke-miterlimit="1.5" fill="none" fill-rule="evenodd" transform="matrix(1.0005 0 0 1 301.026 -113.275)"/><path d="M115.6 94.8569 120.636 94.8569" stroke="#060000" stroke-width="0.336928" stroke-linecap="round" stroke-linejoin="round" stroke-miterlimit="1.5" fill="none" fill-rule="evenodd" transform="matrix(1.0005 0 0 1 523.859 268.673)"/><path d="M360.269 295.623 375.965 295.623" stroke="#060000" stroke-width="2.42285" stroke-linecap="round" stroke-linejoin="round" stroke-miterlimit="1.5" fill="none" fill-rule="evenodd" transform="matrix(1.0005 0 0 1 301.026 -109.317)"/><path d="M115.6 94.8569 120.636 94.8569" stroke="#060000" stroke-width="0.336928" stroke-linecap="round" stroke-linejoin="round" stroke-miterlimit="1.5" fill="none" fill-rule="evenodd" transform="matrix(1.0005 0 0 1 523.859 269.943)"/><path d="M19.8011-3.5173 19.8662-3.5173 19.8662-23.0579 22.2111-23.0579 22.2111 0 19.28 0 5.53649-19.736 5.47136-19.736 5.47136 0 3.12649 0 3.12649-23.0579 6.05758-23.0579 19.8011-3.5173Z" transform="matrix(1.01264 0 0 1 503.834 292.359)"/><path d="M11.3062-5.30188C11.3062-5.89098 11.2155-6.43477 11.0343-6.95589 10.8303-7.47702 10.5585-7.90751 10.2186-8.29269 9.87872-8.67787 9.44823-8.97242 8.97242-9.19899 8.47395-9.40291 7.90751-9.5162 7.29575-9.5162 6.684-9.5162 6.11756-9.40291 5.59643-9.19899 5.07531-8.97242 4.64481-8.67787 4.25963-8.29269 3.87445-7.90751 3.5799-7.47702 3.37599-6.95589 3.17207-6.43477 3.05878-5.89098 3.05878-5.30188 3.05878-4.71279 3.17207-4.169 3.37599-3.64788 3.5799-3.12675 3.87445-2.69626 4.25963-2.31108 4.64481-1.9259 5.07531-1.63135 5.59643-1.42743 6.11756-1.20085 6.684-1.08757 7.29575-1.08757 7.90751-1.08757 8.47395-1.20085 8.97242-1.42743 9.44823-1.63135 9.87872-1.9259 10.2186-2.31108 10.5585-2.69626 10.8303-3.12675 11.0343-3.64788 11.2155-4.169 11.3062-4.71279 11.3062-5.30188ZM1.63135-10.6038 3.12675-10.6038 3.12675-8.83647 3.17207-8.83647C3.4213-9.19899 3.69319-9.5162 4.03306-9.76544 4.37292-10.0147 4.71279-10.2412 5.07531-10.3998 5.43783-10.5585 5.82301-10.6944 6.20819-10.7624 6.59337-10.8303 6.95589-10.8757 7.29575-10.8757 8.13409-10.8757 8.88179-10.7397 9.58418-10.4678 10.2639-10.1733 10.853-9.78809 11.3515-9.28963 11.8499-8.79116 12.2351-8.20206 12.5297-7.52233 12.8016-6.8426 12.9375-6.0949 12.9375-5.30188 12.9375-4.50887 12.8016-3.76117 12.5297-3.08144 12.2351-2.40171 11.8499-1.81261 11.3515-1.31414 10.853-0.815674 10.2639-0.430495 9.58418-0.158603 8.88179 0.135946 8.13409 0.271891 7.29575 0.271891 6.95589 0.271891 6.59337 0.226576 6.20819 0.158603 5.82301 0.0906305 5.43783-0.0453152 5.07531-0.203919 4.71279-0.362522 4.37292-0.589098 4.03306-0.838332 3.69319-1.08757 3.4213-1.40477 3.17207-1.76729L3.12675-1.76729 3.12675 6.5254 1.63135 6.5254 1.63135-10.6038Z" transform="matrix(1.01264 0 0 1 578.063 196.347)"/><path d="M2.53765-5.30188C2.53765-4.71279 2.62828-4.169 2.8322-3.64788 3.01346-3.12675 3.28536-2.69626 3.62522-2.31108 3.96508-1.9259 4.39558-1.63135 4.89405-1.42743 5.36986-1.20085 5.9363-1.08757 6.54805-1.08757 7.15981-1.08757 7.72625-1.20085 8.24737-1.42743 8.7685-1.63135 9.19899-1.9259 9.58418-2.31108 9.96935-2.69626 10.2639-3.12675 10.4678-3.64788 10.6717-4.169 10.785-4.71279 10.785-5.30188 10.785-5.89098 10.6717-6.43477 10.4678-6.95589 10.2639-7.47702 9.96935-7.90751 9.58418-8.29269 9.19899-8.67787 8.7685-8.97242 8.24737-9.19899 7.72625-9.40291 7.15981-9.5162 6.54805-9.5162 5.9363-9.5162 5.36986-9.40291 4.89405-9.19899 4.39558-8.97242 3.96508-8.67787 3.62522-8.29269 3.28536-7.90751 3.01346-7.47702 2.8322-6.95589 2.62828-6.43477 2.53765-5.89098 2.53765-5.30188ZM12.2125 6.5254 10.7171 6.5254 10.7171-1.76729 10.6717-1.76729C10.4225-1.40477 10.1506-1.08757 9.81075-0.838332 9.47089-0.589098 9.13102-0.362522 8.7685-0.203919 8.40598-0.0453152 8.04346 0.0906305 7.65828 0.158603 7.2731 0.226576 6.88792 0.271891 6.54805 0.271891 5.70972 0.271891 4.96202 0.135946 4.28229-0.158603 3.5799-0.430495 2.99081-0.815674 2.49234-1.31414 1.99387-1.81261 1.60869-2.40171 1.3368-3.08144 1.04225-3.76117 0.906305-4.50887 0.906305-5.30188 0.906305-6.0949 1.04225-6.8426 1.3368-7.52233 1.60869-8.20206 1.99387-8.79116 2.49234-9.28963 2.99081-9.78809 3.5799-10.1733 4.28229-10.4678 4.96202-10.7397 5.70972-10.8757 6.54805-10.8757 6.88792-10.8757 7.2731-10.8303 7.65828-10.7624 8.04346-10.6944 8.40598-10.5585 8.7685-10.3998 9.13102-10.2412 9.47089-10.0147 9.81075-9.76544 10.1506-9.5162 10.4225-9.19899 10.6717-8.83647L10.7171-8.83647 10.7171-10.6038 12.2125-10.6038 12.2125 6.5254Z" transform="matrix(1.01264 0 0 1 662.132 104.877)"/><path d="M5.47031-3.38758C5.47031-3.95218 5.30721-4.40385 4.96845-4.75516 4.62969-5.09392 4.16547-5.26957 3.56323-5.26957 3.29975-5.26957 3.03627-5.21938 2.78534-5.11901 2.53441-5.00609 2.32112-4.86808 2.13292-4.69243 1.94472-4.51677 1.78162-4.31603 1.68124-4.09019 1.56832-3.86435 1.50559-3.62596 1.50559-3.38758L5.47031-3.38758ZM1.4805-2.71006C1.50559-2.42149 1.58087-2.14547 1.69379-1.88199 1.80671-1.61851 1.96981-1.40522 2.15801-1.21702 2.34621-1.02882 2.57205-0.878261 2.82298-0.765342 3.07391-0.652423 3.34994-0.602236 3.63851-0.602236 4.07764-0.602236 4.46659-0.702609 4.7928-0.915901 5.10646-1.11665 5.35739-1.35503 5.5205-1.61851L6.16038-1.09155C5.80907-0.652423 5.42013-0.326211 5.00609-0.138012 4.57951 0.0501864 4.12783 0.150559 3.63851 0.150559 3.19938 0.150559 2.79789 0.0752795 2.43404-0.0878261 2.05764-0.238385 1.73143-0.451677 1.46795-0.727702 1.20447-1.00373 0.991181-1.32994 0.840622-1.70634 0.677516-2.08273 0.602236-2.49677 0.602236-2.9359 0.602236-3.37503 0.677516-3.78907 0.828075-4.16547 0.978634-4.54187 1.19193-4.86808 1.4554-5.1441 1.71888-5.42013 2.03255-5.63342 2.3964-5.79653 2.76025-5.94708 3.14919-6.02236 3.56323-6.02236 4.00236-6.02236 4.40385-5.94708 4.75516-5.78398 5.10646-5.62087 5.40758-5.42013 5.64597-5.15665 5.8718-4.89317 6.06-4.57951 6.18547-4.2282 6.31094-3.86435 6.37367-3.48795 6.37367-3.08646L6.37367-2.71006 1.4805-2.71006Z" transform="matrix(1.01264 0 0 1 544.353 362.117)"/><path d="M3.48795 0 2.5595 0 0.175652-5.8718 1.16683-5.8718 3.03627-0.928448 3.06137-0.928448 4.93081-5.8718 5.8718-5.8718 3.48795 0Z" transform="matrix(1.01264 0 0 1 551.418 362.117)"/><path d="M5.47031-3.38758C5.47031-3.95218 5.30721-4.40385 4.96845-4.75516 4.62969-5.09392 4.16547-5.26957 3.56323-5.26957 3.29975-5.26957 3.03627-5.21938 2.78534-5.11901 2.53441-5.00609 2.32112-4.86808 2.13292-4.69243 1.94472-4.51677 1.78162-4.31603 1.68124-4.09019 1.56832-3.86435 1.50559-3.62596 1.50559-3.38758L5.47031-3.38758ZM1.4805-2.71006C1.50559-2.42149 1.58087-2.14547 1.69379-1.88199 1.80671-1.61851 1.96981-1.40522 2.15801-1.21702 2.34621-1.02882 2.57205-0.878261 2.82298-0.765342 3.07391-0.652423 3.34994-0.602236 3.63851-0.602236 4.07764-0.602236 4.46659-0.702609 4.7928-0.915901 5.10646-1.11665 5.35739-1.35503 5.5205-1.61851L6.16038-1.09155C5.80907-0.652423 5.42013-0.326211 5.00609-0.138012 4.57951 0.0501864 4.12783 0.150559 3.63851 0.150559 3.19938 0.150559 2.79789 0.0752795 2.43404-0.0878261 2.05764-0.238385 1.73143-0.451677 1.46795-0.727702 1.20447-1.00373 0.991181-1.32994 0.840622-1.70634 0.677516-2.08273 0.602236-2.49677 0.602236-2.9359 0.602236-3.37503 0.677516-3.78907 0.828075-4.16547 0.978634-4.54187 1.19193-4.86808 1.4554-5.1441 1.71888-5.42013 2.03255-5.63342 2.3964-5.79653 2.76025-5.94708 3.14919-6.02236 3.56323-6.02236 4.00236-6.02236 4.40385-5.94708 4.75516-5.78398 5.10646-5.62087 5.40758-5.42013 5.64597-5.15665 5.8718-4.89317 6.06-4.57951 6.18547-4.2282 6.31094-3.86435 6.37367-3.48795 6.37367-3.08646L6.37367-2.71006 1.4805-2.71006Z" transform="matrix(1.01264 0 0 1 557.54 362.117)"/><path d="M0.991181-4.04C0.991181-4.30348 0.991181-4.56696 0.978634-4.83044 0.966087-5.09392 0.953541-5.44522 0.940994-5.8718L1.75652-5.8718 1.75652-4.78025 1.78162-4.78025C1.84435-4.94336 1.91963-5.09392 2.03255-5.24447 2.14547-5.38249 2.27093-5.5205 2.43404-5.63342 2.5846-5.74634 2.76025-5.84671 2.97354-5.92199 3.17429-5.98472 3.40013-6.02236 3.6636-6.02236 3.90199-6.02236 4.10274-5.99727 4.27839-5.94708L4.11528-5.13156C4.00236-5.1692 3.8518-5.19429 3.63851-5.19429 3.32485-5.19429 3.04882-5.13156 2.82298-5.01864 2.59714-4.89317 2.40895-4.74261 2.25839-4.55441 2.10783-4.35367 1.99491-4.15292 1.93217-3.93963 1.8569-3.72634 1.81926-3.51305 1.81926-3.3123L1.81926 0 0.991181 0 0.991181-4.04Z" transform="matrix(1.01264 0 0 1 564.605 362.117)"/><path d="M3.08646-1.01627 4.88062-5.8718 5.88435-5.8718 2.94845 1.53068C2.7728 1.98236 2.54696 2.34621 2.28348 2.60969 2.00745 2.87317 1.61851 3.01118 1.1041 3.01118 0.978634 3.01118 0.853168 3.01118 0.727702 2.99864 0.58969 2.98609 0.464224 2.961 0.338758 2.92336L0.426584 2.12037C0.602236 2.2082 0.815528 2.25839 1.05391 2.25839 1.34249 2.25839 1.58087 2.17056 1.74398 1.98236 1.90708 1.79416 2.05764 1.54323 2.18311 1.20447L2.60969 0.0752795 0.200745-5.8718 1.24211-5.8718 3.08646-1.01627Z" transform="matrix(1.01264 0 0 1 568.824 362.117)"/><path d="M5.18174-4.49168C5.04373-4.70497 4.84298-4.89317 4.59205-5.04373 4.32857-5.19429 4.04-5.26957 3.71379-5.26957 3.37503-5.28211 3.06137-5.21938 2.79789-5.10646 2.52186-4.99354 2.28348-4.83044 2.09528-4.61715 1.90708-4.40385 1.75652-4.16547 1.65615-3.8769 1.55578-3.58833 1.50559-3.27466 1.50559-2.9359 1.50559-2.59714 1.55578-2.29603 1.65615-2.00745 1.75652-1.70634 1.90708-1.46795 2.09528-1.25466 2.28348-1.04137 2.52186-0.878261 2.79789-0.765342 3.06137-0.652423 3.37503-0.58969 3.71379-0.602236 4.04-0.602236 4.32857-0.677516 4.59205-0.828075 4.84298-0.978634 5.04373-1.16683 5.18174-1.38012L5.85926-0.865715C5.57069-0.526957 5.23193-0.276025 4.86808-0.112919 4.50423 0.0627329 4.11528 0.138012 3.71379 0.150559 3.23702 0.163106 2.81044 0.0878261 2.42149-0.0752795 2.03255-0.225839 1.70634-0.439131 1.44286-0.715156 1.16683-0.991181 0.953541-1.31739 0.815528-1.70634 0.677516-2.08273 0.602236-2.49677 0.602236-2.9359 0.602236-3.37503 0.677516-3.78907 0.815528-4.17801 0.953541-4.55441 1.16683-4.88062 1.44286-5.15665 1.70634-5.43267 2.03255-5.64597 2.42149-5.80907 2.81044-5.95963 3.23702-6.03491 3.71379-6.02236 4.11528-6.00982 4.50423-5.92199 4.86808-5.77143 5.23193-5.60833 5.57069-5.34485 5.85926-5.00609L5.18174-4.49168Z" transform="matrix(1.01264 0 0 1 578.479 362.117)"/><path d="M5.93454-2.9359C5.93454-3.26211 5.88435-3.56323 5.78398-3.8518 5.67106-4.14038 5.5205-4.37876 5.3323-4.59205 5.1441-4.80534 4.90572-4.96845 4.64224-5.09392 4.36621-5.20684 4.05255-5.26957 3.71379-5.26957 3.37503-5.26957 3.06137-5.20684 2.79789-5.09392 2.52186-4.96845 2.29603-4.80534 2.10783-4.59205 1.91963-4.37876 1.76907-4.14038 1.6687-3.8518 1.55578-3.56323 1.50559-3.26211 1.50559-2.9359 1.50559-2.60969 1.55578-2.30857 1.6687-2.02 1.76907-1.73143 1.91963-1.49304 2.10783-1.27975 2.29603-1.06646 2.52186-0.903355 2.79789-0.790435 3.06137-0.664969 3.37503-0.602236 3.71379-0.602236 4.05255-0.602236 4.36621-0.664969 4.64224-0.790435 4.90572-0.903355 5.1441-1.06646 5.3323-1.27975 5.5205-1.49304 5.67106-1.73143 5.78398-2.02 5.88435-2.30857 5.93454-2.60969 5.93454-2.9359ZM6.83789-2.9359C6.83789-2.49677 6.76261-2.08273 6.61205-1.70634 6.44895-1.32994 6.23566-1.00373 5.95963-0.727702 5.68361-0.451677 5.35739-0.238385 4.981-0.0878261 4.59205 0.0752795 4.17801 0.150559 3.71379 0.150559 3.26211 0.150559 2.84808 0.0752795 2.47168-0.0878261 2.08273-0.238385 1.75652-0.451677 1.4805-0.727702 1.20447-1.00373 0.991181-1.32994 0.840622-1.70634 0.677516-2.08273 0.602236-2.49677 0.602236-2.9359 0.602236-3.37503 0.677516-3.78907 0.840622-4.16547 0.991181-4.54187 1.20447-4.86808 1.4805-5.1441 1.75652-5.42013 2.08273-5.63342 2.47168-5.79653 2.84808-5.94708 3.26211-6.02236 3.71379-6.02236 4.17801-6.02236 4.59205-5.94708 4.981-5.79653 5.35739-5.63342 5.68361-5.42013 5.95963-5.1441 6.23566-4.86808 6.44895-4.54187 6.61205-4.16547 6.76261-3.78907 6.83789-3.37503 6.83789-2.9359Z" transform="matrix(1.01264 0 0 1 584.603 362.117)"/><path d="M1.09155-9.48522 1.91963-9.48522 1.91963 2.21359e-07 1.09155 2.21359e-07Z" transform="matrix(1.01264 0 0 1 592.137 362.117)"/><path d="M5.1441 0C5.13156-0.163106 5.11901-0.313665 5.11901-0.47677 5.10646-0.62733 5.10646-0.777889 5.10646-0.940994L5.08137-0.940994C4.99354-0.777889 4.86808-0.639876 4.73006-0.501864 4.59205-0.363851 4.42895-0.250932 4.25329-0.163106 4.07764-0.0627329 3.88944 0.0125466 3.70124 0.0752795 3.5005 0.125466 3.29975 0.150559 3.11155 0.150559 2.35876 0.150559 1.80671-0.0501864 1.44286-0.451677 1.07901-0.840622 0.903355-1.40522 0.903355-2.14547L0.903355-5.8718 1.73143-5.8718 1.73143-2.62224C1.73143-2.29603 1.75652-2.00745 1.80671-1.75652 1.8569-1.50559 1.94472-1.2923 2.07019-1.12919 2.18311-0.953541 2.34621-0.828075 2.5595-0.740249 2.76025-0.639876 3.01118-0.602236 3.32485-0.602236 3.36249-0.602236 3.48795-0.614783 3.67615-0.652423 3.86435-0.690062 4.07764-0.777889 4.29093-0.928448 4.50423-1.07901 4.69243-1.30485 4.85553-1.60596 5.01864-1.90708 5.10646-2.32112 5.10646-2.86062L5.10646-5.8718 5.93454-5.8718 5.93454-1.2923C5.93454-1.12919 5.94708-0.928448 5.95963-0.690062 5.97218-0.451677 5.98472-0.213292 5.99727 0L5.1441 0Z" transform="matrix(1.01264 0 0 1 595.186 362.117)"/><path d="M0.903355-4.56696C0.903355-4.78025 0.903355-5.00609 0.890808-5.21938 0.878261-5.43267 0.853168-5.65851 0.840622-5.8718L1.73143-5.8718 1.73143-4.981 1.75652-4.981C1.95727-5.31975 2.23329-5.58323 2.59714-5.75888 2.94845-5.93454 3.29975-6.02236 3.65106-6.02236 3.81416-6.02236 3.97727-6.00982 4.16547-5.97218 4.34112-5.93454 4.51677-5.8718 4.67988-5.79653 4.84298-5.7087 5.00609-5.58323 5.15665-5.42013 5.29466-5.25702 5.42013-5.05628 5.5205-4.80534 5.68361-5.18174 5.95963-5.48286 6.32348-5.69615 6.68733-5.90944 7.06373-6.02236 7.45267-6.02236 8.20547-6.02236 8.75752-5.82162 9.12137-5.43267 9.48522-5.03118 9.66087-4.46659 9.66087-3.72634L9.66087 0 8.8328 0 8.8328-3.42522C8.8328-4.01491 8.73243-4.47913 8.51914-4.7928 8.30584-5.10646 7.9169-5.26957 7.3523-5.26957 7.03864-5.26957 6.78771-5.20684 6.57441-5.09392 6.36112-4.96845 6.19802-4.80534 6.07255-4.6046 5.93454-4.40385 5.84671-4.17801 5.78398-3.92708 5.72125-3.6636 5.69615-3.40013 5.69615-3.1241L5.69615 0 4.86808 0 4.86808-3.42522C4.86808-4.01491 4.7677-4.47913 4.55441-4.7928 4.34112-5.10646 3.95218-5.26957 3.38758-5.26957 3.33739-5.26957 3.22447-5.25702 3.04882-5.21938 2.86062-5.18174 2.67242-5.09392 2.48423-4.94336 2.29603-4.7928 2.12037-4.56696 1.96981-4.26584 1.80671-3.96472 1.73143-3.55069 1.73143-3.01118L1.73143 0 0.903355 0 0.903355-4.56696Z" transform="matrix(1.01264 0 0 1 602.25 362.117)"/><path d="M1.69379-5.8718C1.70634-5.7087 1.71888-5.55814 1.73143-5.40758 1.73143-5.24447 1.73143-5.09392 1.73143-4.93081L1.75652-4.93081C1.84435-5.09392 1.96981-5.23193 2.10783-5.36994 2.24584-5.50795 2.40895-5.62087 2.5846-5.72125 2.76025-5.80907 2.94845-5.88435 3.14919-5.94708 3.33739-5.99727 3.53814-6.02236 3.72634-6.02236 4.47913-6.02236 5.03118-5.82162 5.39503-5.43267 5.75888-5.03118 5.93454-4.46659 5.93454-3.72634L5.93454 0 5.10646 0 5.10646-3.24957C5.10646-3.90199 4.99354-4.40385 4.7677-4.75516 4.54187-5.09392 4.12783-5.26957 3.51305-5.26957 3.47541-5.26957 3.34994-5.25702 3.16174-5.21938 2.97354-5.18174 2.7728-5.09392 2.5595-4.94336 2.34621-4.7928 2.14547-4.56696 1.98236-4.26584 1.81926-3.96472 1.73143-3.55069 1.73143-3.01118L1.73143 0 0.903355 0 0.903355-4.57951C0.903355-4.74261 0.903355-4.94336 0.890808-5.18174 0.878261-5.42013 0.853168-5.65851 0.840622-5.8718L1.69379-5.8718Z" transform="matrix(1.01264 0 0 1 613.075 362.117)"/><path d="M5.93454-2.9359C5.93454-3.26211 5.88435-3.56323 5.78398-3.8518 5.67106-4.14038 5.5205-4.37876 5.3323-4.59205 5.1441-4.80534 4.90572-4.96845 4.64224-5.09392 4.36621-5.20684 4.05255-5.26957 3.71379-5.26957 3.37503-5.26957 3.06137-5.20684 2.79789-5.09392 2.52186-4.96845 2.29603-4.80534 2.10783-4.59205 1.91963-4.37876 1.76907-4.14038 1.6687-3.8518 1.55578-3.56323 1.50559-3.26211 1.50559-2.9359 1.50559-2.60969 1.55578-2.30857 1.6687-2.02 1.76907-1.73143 1.91963-1.49304 2.10783-1.27975 2.29603-1.06646 2.52186-0.903355 2.79789-0.790435 3.06137-0.664969 3.37503-0.602236 3.71379-0.602236 4.05255-0.602236 4.36621-0.664969 4.64224-0.790435 4.90572-0.903355 5.1441-1.06646 5.3323-1.27975 5.5205-1.49304 5.67106-1.73143 5.78398-2.02 5.88435-2.30857 5.93454-2.60969 5.93454-2.9359ZM6.83789-2.9359C6.83789-2.49677 6.76261-2.08273 6.61205-1.70634 6.44895-1.32994 6.23566-1.00373 5.95963-0.727702 5.68361-0.451677 5.35739-0.238385 4.981-0.0878261 4.59205 0.0752795 4.17801 0.150559 3.71379 0.150559 3.26211 0.150559 2.84808 0.0752795 2.47168-0.0878261 2.08273-0.238385 1.75652-0.451677 1.4805-0.727702 1.20447-1.00373 0.991181-1.32994 0.840622-1.70634 0.677516-2.08273 0.602236-2.49677 0.602236-2.9359 0.602236-3.37503 0.677516-3.78907 0.840622-4.16547 0.991181-4.54187 1.20447-4.86808 1.4805-5.1441 1.75652-5.42013 2.08273-5.63342 2.47168-5.79653 2.84808-5.94708 3.26211-6.02236 3.71379-6.02236 4.17801-6.02236 4.59205-5.94708 4.981-5.79653 5.35739-5.63342 5.68361-5.42013 5.95963-5.1441 6.23566-4.86808 6.44895-4.54187 6.61205-4.16547 6.76261-3.78907 6.83789-3.37503 6.83789-2.9359Z" transform="matrix(1.01264 0 0 1 623.671 362.117)"/><path d="M3.63851-5.11901 2.24584-5.11901 2.24584 0 1.41776 0 1.41776-5.11901 0.175652-5.11901 0.175652-5.8718 1.41776-5.8718 1.41776-7.47777C1.41776-8.25566 1.59342-8.80771 1.95727-9.14646 2.32112-9.47268 2.79789-9.63578 3.38758-9.63578 3.5005-9.63578 3.62596-9.62324 3.75143-9.61069 3.86435-9.59814 3.98982-9.57305 4.10274-9.54796L3.95218-8.79516C3.8518-8.82025 3.75143-8.84535 3.63851-8.85789 3.52559-8.87044 3.42522-8.88299 3.3123-8.88299 3.08646-8.88299 2.89826-8.84535 2.76025-8.77007 2.62224-8.69479 2.50932-8.59441 2.43404-8.4564 2.35876-8.31839 2.30857-8.15528 2.28348-7.96708 2.25839-7.77889 2.24584-7.59069 2.24584-7.3774L2.24584-5.8718 3.63851-5.8718 3.63851-5.11901Z" transform="matrix(1.01264 0 0 1 631.205 362.117)"/><path d="M5.83416-8.13019C5.83416-7.95454 5.77143-7.81653 5.64597-7.70361 5.5205-7.57814 5.38249-7.52795 5.23193-7.52795 5.08137-7.52795 4.94336-7.57814 4.81789-7.70361 4.69243-7.81653 4.62969-7.95454 4.62969-8.13019 4.62969-8.30584 4.69243-8.4564 4.81789-8.56932 4.94336-8.68224 5.08137-8.73243 5.23193-8.73243 5.38249-8.73243 5.5205-8.68224 5.64597-8.56932 5.77143-8.4564 5.83416-8.30584 5.83416-8.13019ZM5.64597 0 4.81789 0 4.81789-5.8718 5.64597-5.8718 5.64597 0ZM3.63851-5.11901 2.24584-5.11901 2.24584 0 1.41776 0 1.41776-5.11901 0.175652-5.11901 0.175652-5.8718 1.41776-5.8718 1.41776-7.47777C1.41776-8.25566 1.59342-8.80771 1.95727-9.14646 2.32112-9.47268 2.79789-9.63578 3.38758-9.63578 3.5005-9.63578 3.62596-9.62324 3.75143-9.61069 3.86435-9.59814 3.98982-9.57305 4.10274-9.54796L3.95218-8.79516C3.8518-8.82025 3.75143-8.84535 3.63851-8.85789 3.52559-8.87044 3.42522-8.88299 3.3123-8.88299 3.08646-8.88299 2.89826-8.84535 2.76025-8.77007 2.62224-8.69479 2.50932-8.59441 2.43404-8.4564 2.35876-8.31839 2.30857-8.15528 2.28348-7.96708 2.25839-7.77889 2.24584-7.59069 2.24584-7.3774L2.24584-5.8718 3.63851-5.8718 3.63851-5.11901Z" transform="matrix(1.01264 0 0 1 649.095 362.117)"/><path d="M3.93963-5.11901 2.24584-5.11901 2.24584-1.65615C2.24584-1.44286 2.27093-1.25466 2.30857-1.12919 2.34621-0.991181 2.40895-0.878261 2.48423-0.802982 2.5595-0.727702 2.64733-0.677516 2.76025-0.652423 2.86062-0.614783 2.97354-0.602236 3.09901-0.602236 3.23702-0.602236 3.38758-0.62733 3.53814-0.664969 3.6887-0.702609 3.82671-0.765342 3.95218-0.828075L3.98982-0.0627329C3.67615 0.0752795 3.3123 0.150559 2.87317 0.150559 2.71006 0.150559 2.54696 0.125466 2.38385 0.0878261 2.2082 0.0501864 2.04509-0.0376398 1.90708-0.150559 1.76907-0.263478 1.6436-0.426584 1.55578-0.62733 1.46795-0.828075 1.41776-1.09155 1.41776-1.41776L1.41776-5.11901 0.175652-5.11901 0.175652-5.8718 1.41776-5.8718 1.41776-7.52795 2.24584-7.52795 2.24584-5.8718 3.93963-5.8718 3.93963-5.11901Z" transform="matrix(1.01264 0 0 1 655.916 362.117)"/><path d="M4.01491-4.47913C3.88944-4.71752 3.72634-4.91826 3.51305-5.05628 3.29975-5.19429 3.04882-5.26957 2.7477-5.26957 2.60969-5.26957 2.45913-5.25702 2.32112-5.21938 2.17056-5.18174 2.03255-5.13156 1.91963-5.06882 1.80671-4.99354 1.70634-4.90572 1.6436-4.7928 1.56832-4.67988 1.53068-4.55441 1.53068-4.39131 1.53068-4.11528 1.63106-3.91454 1.81926-3.78907 2.00745-3.6636 2.29603-3.55069 2.68497-3.46286L3.52559-3.26211C3.93963-3.17429 4.27839-2.98609 4.55441-2.71006 4.81789-2.42149 4.9559-2.07019 4.9559-1.65615 4.9559-1.34249 4.89317-1.06646 4.7677-0.840622 4.62969-0.602236 4.46659-0.414037 4.25329-0.276025 4.04-0.125466 3.78907-0.0125466 3.51305 0.0501864 3.23702 0.112919 2.961 0.150559 2.67242 0.150559 2.22075 0.150559 1.79416 0.0627329 1.41776-0.112919 1.02882-0.276025 0.690062-0.577143 0.414037-0.991181L1.12919-1.4805C1.2923-1.21702 1.50559-1.00373 1.76907-0.840622 2.02-0.677516 2.32112-0.602236 2.67242-0.602236 2.83553-0.602236 3.01118-0.614783 3.17429-0.664969 3.33739-0.702609 3.48795-0.752795 3.62596-0.840622 3.75143-0.915901 3.8518-1.01627 3.93963-1.14174 4.01491-1.26721 4.05255-1.41776 4.05255-1.58087 4.05255-1.86944 3.93963-2.08273 3.72634-2.22075 3.51305-2.34621 3.24957-2.44659 2.9359-2.52186L2.13292-2.71006C2.03255-2.73516 1.89454-2.7728 1.73143-2.83553 1.55578-2.89826 1.39267-2.98609 1.22957-3.09901 1.06646-3.21193 0.915901-3.37503 0.802982-3.56323 0.690062-3.75143 0.62733-3.97727 0.62733-4.25329 0.62733-4.55441 0.690062-4.81789 0.815528-5.04373 0.928448-5.26957 1.09155-5.45777 1.30485-5.59578 1.50559-5.73379 1.73143-5.84671 1.99491-5.92199 2.25839-5.98472 2.52186-6.02236 2.79789-6.02236 3.21193-6.02236 3.58833-5.94708 3.93963-5.78398 4.29093-5.62087 4.56696-5.35739 4.75516-4.96845L4.01491-4.47913Z" transform="matrix(1.01264 0 0 1 660.135 362.117)"/><path d="M5.93454-2.9359C5.93454-3.26211 5.88435-3.56323 5.78398-3.8518 5.67106-4.14038 5.5205-4.37876 5.3323-4.59205 5.1441-4.80534 4.90572-4.96845 4.64224-5.09392 4.36621-5.20684 4.05255-5.26957 3.71379-5.26957 3.37503-5.26957 3.06137-5.20684 2.79789-5.09392 2.52186-4.96845 2.29603-4.80534 2.10783-4.59205 1.91963-4.37876 1.76907-4.14038 1.6687-3.8518 1.55578-3.56323 1.50559-3.26211 1.50559-2.9359 1.50559-2.60969 1.55578-2.30857 1.6687-2.02 1.76907-1.73143 1.91963-1.49304 2.10783-1.27975 2.29603-1.06646 2.52186-0.903355 2.79789-0.790435 3.06137-0.664969 3.37503-0.602236 3.71379-0.602236 4.05255-0.602236 4.36621-0.664969 4.64224-0.790435 4.90572-0.903355 5.1441-1.06646 5.3323-1.27975 5.5205-1.49304 5.67106-1.73143 5.78398-2.02 5.88435-2.30857 5.93454-2.60969 5.93454-2.9359ZM6.83789-2.9359C6.83789-2.49677 6.76261-2.08273 6.61205-1.70634 6.44895-1.32994 6.23566-1.00373 5.95963-0.727702 5.68361-0.451677 5.35739-0.238385 4.981-0.0878261 4.59205 0.0752795 4.17801 0.150559 3.71379 0.150559 3.26211 0.150559 2.84808 0.0752795 2.47168-0.0878261 2.08273-0.238385 1.75652-0.451677 1.4805-0.727702 1.20447-1.00373 0.991181-1.32994 0.840622-1.70634 0.677516-2.08273 0.602236-2.49677 0.602236-2.9359 0.602236-3.37503 0.677516-3.78907 0.840622-4.16547 0.991181-4.54187 1.20447-4.86808 1.4805-5.1441 1.75652-5.42013 2.08273-5.63342 2.47168-5.79653 2.84808-5.94708 3.26211-6.02236 3.71379-6.02236 4.17801-6.02236 4.59205-5.94708 4.981-5.79653 5.35739-5.63342 5.68361-5.42013 5.95963-5.1441 6.23566-4.86808 6.44895-4.54187 6.61205-4.16547 6.76261-3.78907 6.83789-3.37503 6.83789-2.9359Z" transform="matrix(1.01264 0 0 1 669.08 362.117)"/><path d="M1.69379-5.8718C1.70634-5.7087 1.71888-5.55814 1.73143-5.40758 1.73143-5.24447 1.73143-5.09392 1.73143-4.93081L1.75652-4.93081C1.84435-5.09392 1.96981-5.23193 2.10783-5.36994 2.24584-5.50795 2.40895-5.62087 2.5846-5.72125 2.76025-5.80907 2.94845-5.88435 3.14919-5.94708 3.33739-5.99727 3.53814-6.02236 3.72634-6.02236 4.47913-6.02236 5.03118-5.82162 5.39503-5.43267 5.75888-5.03118 5.93454-4.46659 5.93454-3.72634L5.93454 0 5.10646 0 5.10646-3.24957C5.10646-3.90199 4.99354-4.40385 4.7677-4.75516 4.54187-5.09392 4.12783-5.26957 3.51305-5.26957 3.47541-5.26957 3.34994-5.25702 3.16174-5.21938 2.97354-5.18174 2.7728-5.09392 2.5595-4.94336 2.34621-4.7928 2.14547-4.56696 1.98236-4.26584 1.81926-3.96472 1.73143-3.55069 1.73143-3.01118L1.73143 0 0.903355 0 0.903355-4.57951C0.903355-4.74261 0.903355-4.94336 0.890808-5.18174 0.878261-5.42013 0.853168-5.65851 0.840622-5.8718L1.69379-5.8718Z" transform="matrix(1.01264 0 0 1 676.613 362.117)"/><path d="M5.47031-3.38758C5.47031-3.95218 5.30721-4.40385 4.96845-4.75516 4.62969-5.09392 4.16547-5.26957 3.56323-5.26957 3.29975-5.26957 3.03627-5.21938 2.78534-5.11901 2.53441-5.00609 2.32112-4.86808 2.13292-4.69243 1.94472-4.51677 1.78162-4.31603 1.68124-4.09019 1.56832-3.86435 1.50559-3.62596 1.50559-3.38758L5.47031-3.38758ZM1.4805-2.71006C1.50559-2.42149 1.58087-2.14547 1.69379-1.88199 1.80671-1.61851 1.96981-1.40522 2.15801-1.21702 2.34621-1.02882 2.57205-0.878261 2.82298-0.765342 3.07391-0.652423 3.34994-0.602236 3.63851-0.602236 4.07764-0.602236 4.46659-0.702609 4.7928-0.915901 5.10646-1.11665 5.35739-1.35503 5.5205-1.61851L6.16038-1.09155C5.80907-0.652423 5.42013-0.326211 5.00609-0.138012 4.57951 0.0501864 4.12783 0.150559 3.63851 0.150559 3.19938 0.150559 2.79789 0.0752795 2.43404-0.0878261 2.05764-0.238385 1.73143-0.451677 1.46795-0.727702 1.20447-1.00373 0.991181-1.32994 0.840622-1.70634 0.677516-2.08273 0.602236-2.49677 0.602236-2.9359 0.602236-3.37503 0.677516-3.78907 0.828075-4.16547 0.978634-4.54187 1.19193-4.86808 1.4554-5.1441 1.71888-5.42013 2.03255-5.63342 2.3964-5.79653 2.76025-5.94708 3.14919-6.02236 3.56323-6.02236 4.00236-6.02236 4.40385-5.94708 4.75516-5.78398 5.10646-5.62087 5.40758-5.42013 5.64597-5.15665 5.8718-4.89317 6.06-4.57951 6.18547-4.2282 6.31094-3.86435 6.37367-3.48795 6.37367-3.08646L6.37367-2.71006 1.4805-2.71006Z" transform="matrix(1.01264 0 0 1 683.678 362.117)"/><path d="M5.93454-2.9359C5.93454-3.26211 5.88435-3.56323 5.78398-3.8518 5.67106-4.14038 5.5205-4.37876 5.3323-4.59205 5.1441-4.80534 4.90572-4.96845 4.64224-5.09392 4.36621-5.20684 4.05255-5.26957 3.71379-5.26957 3.37503-5.26957 3.06137-5.20684 2.79789-5.09392 2.52186-4.96845 2.29603-4.80534 2.10783-4.59205 1.91963-4.37876 1.76907-4.14038 1.6687-3.8518 1.55578-3.56323 1.50559-3.26211 1.50559-2.9359 1.50559-2.60969 1.55578-2.30857 1.6687-2.02 1.76907-1.73143 1.91963-1.49304 2.10783-1.27975 2.29603-1.06646 2.52186-0.903355 2.79789-0.790435 3.06137-0.664969 3.37503-0.602236 3.71379-0.602236 4.05255-0.602236 4.36621-0.664969 4.64224-0.790435 4.90572-0.903355 5.1441-1.06646 5.3323-1.27975 5.5205-1.49304 5.67106-1.73143 5.78398-2.02 5.88435-2.30857 5.93454-2.60969 5.93454-2.9359ZM6.83789-2.9359C6.83789-2.49677 6.76261-2.08273 6.61205-1.70634 6.44895-1.32994 6.23566-1.00373 5.95963-0.727702 5.68361-0.451677 5.35739-0.238385 4.981-0.0878261 4.59205 0.0752795 4.17801 0.150559 3.71379 0.150559 3.26211 0.150559 2.84808 0.0752795 2.47168-0.0878261 2.08273-0.238385 1.75652-0.451677 1.4805-0.727702 1.20447-1.00373 0.991181-1.32994 0.840622-1.70634 0.677516-2.08273 0.602236-2.49677 0.602236-2.9359 0.602236-3.37503 0.677516-3.78907 0.840622-4.16547 0.991181-4.54187 1.20447-4.86808 1.4805-5.1441 1.75652-5.42013 2.08273-5.63342 2.47168-5.79653 2.84808-5.94708 3.26211-6.02236 3.71379-6.02236 4.17801-6.02236 4.59205-5.94708 4.981-5.79653 5.35739-5.63342 5.68361-5.42013 5.95963-5.1441 6.23566-4.86808 6.44895-4.54187 6.61205-4.16547 6.76261-3.78907 6.83789-3.37503 6.83789-2.9359Z" transform="matrix(1.01264 0 0 1 694.274 362.117)"/><path d="M3.63851-5.11901 2.24584-5.11901 2.24584 0 1.41776 0 1.41776-5.11901 0.175652-5.11901 0.175652-5.8718 1.41776-5.8718 1.41776-7.47777C1.41776-8.25566 1.59342-8.80771 1.95727-9.14646 2.32112-9.47268 2.79789-9.63578 3.38758-9.63578 3.5005-9.63578 3.62596-9.62324 3.75143-9.61069 3.86435-9.59814 3.98982-9.57305 4.10274-9.54796L3.95218-8.79516C3.8518-8.82025 3.75143-8.84535 3.63851-8.85789 3.52559-8.87044 3.42522-8.88299 3.3123-8.88299 3.08646-8.88299 2.89826-8.84535 2.76025-8.77007 2.62224-8.69479 2.50932-8.59441 2.43404-8.4564 2.35876-8.31839 2.30857-8.15528 2.28348-7.96708 2.25839-7.77889 2.24584-7.59069 2.24584-7.3774L2.24584-5.8718 3.63851-5.8718 3.63851-5.11901Z" transform="matrix(1.01264 0 0 1 701.807 362.117)"/><path d="M3.93963-5.11901 2.24584-5.11901 2.24584-1.65615C2.24584-1.44286 2.27093-1.25466 2.30857-1.12919 2.34621-0.991181 2.40895-0.878261 2.48423-0.802982 2.5595-0.727702 2.64733-0.677516 2.76025-0.652423 2.86062-0.614783 2.97354-0.602236 3.09901-0.602236 3.23702-0.602236 3.38758-0.62733 3.53814-0.664969 3.6887-0.702609 3.82671-0.765342 3.95218-0.828075L3.98982-0.0627329C3.67615 0.0752795 3.3123 0.150559 2.87317 0.150559 2.71006 0.150559 2.54696 0.125466 2.38385 0.0878261 2.2082 0.0501864 2.04509-0.0376398 1.90708-0.150559 1.76907-0.263478 1.6436-0.426584 1.55578-0.62733 1.46795-0.828075 1.41776-1.09155 1.41776-1.41776L1.41776-5.11901 0.175652-5.11901 0.175652-5.8718 1.41776-5.8718 1.41776-7.52795 2.24584-7.52795 2.24584-5.8718 3.93963-5.8718 3.93963-5.11901Z" transform="matrix(1.01264 0 0 1 544.353 374.663)"/><path d="M0.903355-9.48522 1.73143-9.48522 1.73143-4.93081 1.75652-4.93081C1.84435-5.09392 1.96981-5.23193 2.10783-5.36994 2.24584-5.50795 2.40895-5.62087 2.5846-5.72125 2.76025-5.80907 2.94845-5.88435 3.14919-5.94708 3.33739-5.99727 3.53814-6.02236 3.72634-6.02236 4.47913-6.02236 5.03118-5.82162 5.39503-5.43267 5.75888-5.03118 5.93454-4.46659 5.93454-3.72634L5.93454 0 5.10646 0 5.10646-3.24957C5.10646-3.90199 4.99354-4.40385 4.7677-4.75516 4.54187-5.09392 4.12783-5.26957 3.51305-5.26957 3.47541-5.26957 3.34994-5.25702 3.16174-5.21938 2.97354-5.18174 2.7728-5.09392 2.5595-4.94336 2.34621-4.7928 2.14547-4.56696 1.98236-4.26584 1.81926-3.96472 1.73143-3.55069 1.73143-3.01118L1.73143 0 0.903355 0 0.903355-9.48522Z" transform="matrix(1.01264 0 0 1 548.571 374.663)"/><path d="M5.47031-3.38758C5.47031-3.95218 5.30721-4.40385 4.96845-4.75516 4.62969-5.09392 4.16547-5.26957 3.56323-5.26957 3.29975-5.26957 3.03627-5.21938 2.78534-5.11901 2.53441-5.00609 2.32112-4.86808 2.13292-4.69243 1.94472-4.51677 1.78162-4.31603 1.68124-4.09019 1.56832-3.86435 1.50559-3.62596 1.50559-3.38758L5.47031-3.38758ZM1.4805-2.71006C1.50559-2.42149 1.58087-2.14547 1.69379-1.88199 1.80671-1.61851 1.96981-1.40522 2.15801-1.21702 2.34621-1.02882 2.57205-0.878261 2.82298-0.765342 3.07391-0.652423 3.34994-0.602236 3.63851-0.602236 4.07764-0.602236 4.46659-0.702609 4.7928-0.915901 5.10646-1.11665 5.35739-1.35503 5.5205-1.61851L6.16038-1.09155C5.80907-0.652423 5.42013-0.326211 5.00609-0.138012 4.57951 0.0501864 4.12783 0.150559 3.63851 0.150559 3.19938 0.150559 2.79789 0.0752795 2.43404-0.0878261 2.05764-0.238385 1.73143-0.451677 1.46795-0.727702 1.20447-1.00373 0.991181-1.32994 0.840622-1.70634 0.677516-2.08273 0.602236-2.49677 0.602236-2.9359 0.602236-3.37503 0.677516-3.78907 0.828075-4.16547 0.978634-4.54187 1.19193-4.86808 1.4554-5.1441 1.71888-5.42013 2.03255-5.63342 2.3964-5.79653 2.76025-5.94708 3.14919-6.02236 3.56323-6.02236 4.00236-6.02236 4.40385-5.94708 4.75516-5.78398 5.10646-5.62087 5.40758-5.42013 5.64597-5.15665 5.8718-4.89317 6.06-4.57951 6.18547-4.2282 6.31094-3.86435 6.37367-3.48795 6.37367-3.08646L6.37367-2.71006 1.4805-2.71006Z" transform="matrix(1.01264 0 0 1 555.635 374.663)"/><path d="M0.991181-4.04C0.991181-4.30348 0.991181-4.56696 0.978634-4.83044 0.966087-5.09392 0.953541-5.44522 0.940994-5.8718L1.75652-5.8718 1.75652-4.78025 1.78162-4.78025C1.84435-4.94336 1.91963-5.09392 2.03255-5.24447 2.14547-5.38249 2.27093-5.5205 2.43404-5.63342 2.5846-5.74634 2.76025-5.84671 2.97354-5.92199 3.17429-5.98472 3.40013-6.02236 3.6636-6.02236 3.90199-6.02236 4.10274-5.99727 4.27839-5.94708L4.11528-5.13156C4.00236-5.1692 3.8518-5.19429 3.63851-5.19429 3.32485-5.19429 3.04882-5.13156 2.82298-5.01864 2.59714-4.89317 2.40895-4.74261 2.25839-4.55441 2.10783-4.35367 1.99491-4.15292 1.93217-3.93963 1.8569-3.72634 1.81926-3.51305 1.81926-3.3123L1.81926 0 0.991181 0 0.991181-4.04Z" transform="matrix(1.01264 0 0 1 566.231 374.663)"/><path d="M5.47031-3.38758C5.47031-3.95218 5.30721-4.40385 4.96845-4.75516 4.62969-5.09392 4.16547-5.26957 3.56323-5.26957 3.29975-5.26957 3.03627-5.21938 2.78534-5.11901 2.53441-5.00609 2.32112-4.86808 2.13292-4.69243 1.94472-4.51677 1.78162-4.31603 1.68124-4.09019 1.56832-3.86435 1.50559-3.62596 1.50559-3.38758L5.47031-3.38758ZM1.4805-2.71006C1.50559-2.42149 1.58087-2.14547 1.69379-1.88199 1.80671-1.61851 1.96981-1.40522 2.15801-1.21702 2.34621-1.02882 2.57205-0.878261 2.82298-0.765342 3.07391-0.652423 3.34994-0.602236 3.63851-0.602236 4.07764-0.602236 4.46659-0.702609 4.7928-0.915901 5.10646-1.11665 5.35739-1.35503 5.5205-1.61851L6.16038-1.09155C5.80907-0.652423 5.42013-0.326211 5.00609-0.138012 4.57951 0.0501864 4.12783 0.150559 3.63851 0.150559 3.19938 0.150559 2.79789 0.0752795 2.43404-0.0878261 2.05764-0.238385 1.73143-0.451677 1.46795-0.727702 1.20447-1.00373 0.991181-1.32994 0.840622-1.70634 0.677516-2.08273 0.602236-2.49677 0.602236-2.9359 0.602236-3.37503 0.677516-3.78907 0.828075-4.16547 0.978634-4.54187 1.19193-4.86808 1.4554-5.1441 1.71888-5.42013 2.03255-5.63342 2.3964-5.79653 2.76025-5.94708 3.14919-6.02236 3.56323-6.02236 4.00236-6.02236 4.40385-5.94708 4.75516-5.78398 5.10646-5.62087 5.40758-5.42013 5.64597-5.15665 5.8718-4.89317 6.06-4.57951 6.18547-4.2282 6.31094-3.86435 6.37367-3.48795 6.37367-3.08646L6.37367-2.71006 1.4805-2.71006Z" transform="matrix(1.01264 0 0 1 570.224 374.663)"/><path d="M4.01491-4.47913C3.88944-4.71752 3.72634-4.91826 3.51305-5.05628 3.29975-5.19429 3.04882-5.26957 2.7477-5.26957 2.60969-5.26957 2.45913-5.25702 2.32112-5.21938 2.17056-5.18174 2.03255-5.13156 1.91963-5.06882 1.80671-4.99354 1.70634-4.90572 1.6436-4.7928 1.56832-4.67988 1.53068-4.55441 1.53068-4.39131 1.53068-4.11528 1.63106-3.91454 1.81926-3.78907 2.00745-3.6636 2.29603-3.55069 2.68497-3.46286L3.52559-3.26211C3.93963-3.17429 4.27839-2.98609 4.55441-2.71006 4.81789-2.42149 4.9559-2.07019 4.9559-1.65615 4.9559-1.34249 4.89317-1.06646 4.7677-0.840622 4.62969-0.602236 4.46659-0.414037 4.25329-0.276025 4.04-0.125466 3.78907-0.0125466 3.51305 0.0501864 3.23702 0.112919 2.961 0.150559 2.67242 0.150559 2.22075 0.150559 1.79416 0.0627329 1.41776-0.112919 1.02882-0.276025 0.690062-0.577143 0.414037-0.991181L1.12919-1.4805C1.2923-1.21702 1.50559-1.00373 1.76907-0.840622 2.02-0.677516 2.32112-0.602236 2.67242-0.602236 2.83553-0.602236 3.01118-0.614783 3.17429-0.664969 3.33739-0.702609 3.48795-0.752795 3.62596-0.840622 3.75143-0.915901 3.8518-1.01627 3.93963-1.14174 4.01491-1.26721 4.05255-1.41776 4.05255-1.58087 4.05255-1.86944 3.93963-2.08273 3.72634-2.22075 3.51305-2.34621 3.24957-2.44659 2.9359-2.52186L2.13292-2.71006C2.03255-2.73516 1.89454-2.7728 1.73143-2.83553 1.55578-2.89826 1.39267-2.98609 1.22957-3.09901 1.06646-3.21193 0.915901-3.37503 0.802982-3.56323 0.690062-3.75143 0.62733-3.97727 0.62733-4.25329 0.62733-4.55441 0.690062-4.81789 0.815528-5.04373 0.928448-5.26957 1.09155-5.45777 1.30485-5.59578 1.50559-5.73379 1.73143-5.84671 1.99491-5.92199 2.25839-5.98472 2.52186-6.02236 2.79789-6.02236 3.21193-6.02236 3.58833-5.94708 3.93963-5.78398 4.29093-5.62087 4.56696-5.35739 4.75516-4.96845L4.01491-4.47913Z" transform="matrix(1.01264 0 0 1 577.287 374.663)"/><path d="M6.26075-2.9359C6.26075-3.26211 6.21056-3.56323 6.11019-3.8518 5.99727-4.14038 5.84671-4.37876 5.65851-4.59205 5.47031-4.80534 5.23193-4.96845 4.96845-5.09392 4.69243-5.20684 4.37876-5.26957 4.04-5.26957 3.70124-5.26957 3.38758-5.20684 3.09901-5.09392 2.81044-4.96845 2.57205-4.80534 2.35876-4.59205 2.14547-4.37876 1.98236-4.14038 1.86944-3.8518 1.75652-3.56323 1.69379-3.26211 1.69379-2.9359 1.69379-2.60969 1.75652-2.30857 1.86944-2.02 1.98236-1.73143 2.14547-1.49304 2.35876-1.27975 2.57205-1.06646 2.81044-0.903355 3.09901-0.790435 3.38758-0.664969 3.70124-0.602236 4.04-0.602236 4.37876-0.602236 4.69243-0.664969 4.96845-0.790435 5.23193-0.903355 5.47031-1.06646 5.65851-1.27975 5.84671-1.49304 5.99727-1.73143 6.11019-2.02 6.21056-2.30857 6.26075-2.60969 6.26075-2.9359ZM0.903355-5.8718 1.73143-5.8718 1.73143-4.89317 1.75652-4.89317C1.89454-5.09392 2.04509-5.26957 2.23329-5.40758 2.42149-5.54559 2.60969-5.67106 2.81044-5.75888 3.01118-5.84671 3.22447-5.92199 3.43777-5.95963 3.65106-5.99727 3.8518-6.02236 4.04-6.02236 4.50423-6.02236 4.91826-5.94708 5.30721-5.79653 5.68361-5.63342 6.00982-5.42013 6.28584-5.1441 6.56187-4.86808 6.77516-4.54187 6.93826-4.16547 7.08882-3.78907 7.1641-3.37503 7.1641-2.9359 7.1641-2.49677 7.08882-2.08273 6.93826-1.70634 6.77516-1.32994 6.56187-1.00373 6.28584-0.727702 6.00982-0.451677 5.68361-0.238385 5.30721-0.0878261 4.91826 0.0752795 4.50423 0.150559 4.04 0.150559 3.8518 0.150559 3.65106 0.125466 3.43777 0.0878261 3.22447 0.0501864 3.01118-0.0250932 2.81044-0.112919 2.60969-0.200745 2.42149-0.326211 2.23329-0.464224 2.04509-0.602236 1.89454-0.777889 1.75652-0.978634L1.73143-0.978634 1.73143 3.61342 0.903355 3.61342 0.903355-5.8718Z" transform="matrix(1.01264 0 0 1 582.7 374.663)"/><path d="M5.93454-2.9359C5.93454-3.26211 5.88435-3.56323 5.78398-3.8518 5.67106-4.14038 5.5205-4.37876 5.3323-4.59205 5.1441-4.80534 4.90572-4.96845 4.64224-5.09392 4.36621-5.20684 4.05255-5.26957 3.71379-5.26957 3.37503-5.26957 3.06137-5.20684 2.79789-5.09392 2.52186-4.96845 2.29603-4.80534 2.10783-4.59205 1.91963-4.37876 1.76907-4.14038 1.6687-3.8518 1.55578-3.56323 1.50559-3.26211 1.50559-2.9359 1.50559-2.60969 1.55578-2.30857 1.6687-2.02 1.76907-1.73143 1.91963-1.49304 2.10783-1.27975 2.29603-1.06646 2.52186-0.903355 2.79789-0.790435 3.06137-0.664969 3.37503-0.602236 3.71379-0.602236 4.05255-0.602236 4.36621-0.664969 4.64224-0.790435 4.90572-0.903355 5.1441-1.06646 5.3323-1.27975 5.5205-1.49304 5.67106-1.73143 5.78398-2.02 5.88435-2.30857 5.93454-2.60969 5.93454-2.9359ZM6.83789-2.9359C6.83789-2.49677 6.76261-2.08273 6.61205-1.70634 6.44895-1.32994 6.23566-1.00373 5.95963-0.727702 5.68361-0.451677 5.35739-0.238385 4.981-0.0878261 4.59205 0.0752795 4.17801 0.150559 3.71379 0.150559 3.26211 0.150559 2.84808 0.0752795 2.47168-0.0878261 2.08273-0.238385 1.75652-0.451677 1.4805-0.727702 1.20447-1.00373 0.991181-1.32994 0.840622-1.70634 0.677516-2.08273 0.602236-2.49677 0.602236-2.9359 0.602236-3.37503 0.677516-3.78907 0.840622-4.16547 0.991181-4.54187 1.20447-4.86808 1.4805-5.1441 1.75652-5.42013 2.08273-5.63342 2.47168-5.79653 2.84808-5.94708 3.26211-6.02236 3.71379-6.02236 4.17801-6.02236 4.59205-5.94708 4.981-5.79653 5.35739-5.63342 5.68361-5.42013 5.95963-5.1441 6.23566-4.86808 6.44895-4.54187 6.61205-4.16547 6.76261-3.78907 6.83789-3.37503 6.83789-2.9359Z" transform="matrix(1.01264 0 0 1 590.462 374.663)"/><path d="M1.69379-5.8718C1.70634-5.7087 1.71888-5.55814 1.73143-5.40758 1.73143-5.24447 1.73143-5.09392 1.73143-4.93081L1.75652-4.93081C1.84435-5.09392 1.96981-5.23193 2.10783-5.36994 2.24584-5.50795 2.40895-5.62087 2.5846-5.72125 2.76025-5.80907 2.94845-5.88435 3.14919-5.94708 3.33739-5.99727 3.53814-6.02236 3.72634-6.02236 4.47913-6.02236 5.03118-5.82162 5.39503-5.43267 5.75888-5.03118 5.93454-4.46659 5.93454-3.72634L5.93454 0 5.10646 0 5.10646-3.24957C5.10646-3.90199 4.99354-4.40385 4.7677-4.75516 4.54187-5.09392 4.12783-5.26957 3.51305-5.26957 3.47541-5.26957 3.34994-5.25702 3.16174-5.21938 2.97354-5.18174 2.7728-5.09392 2.5595-4.94336 2.34621-4.7928 2.14547-4.56696 1.98236-4.26584 1.81926-3.96472 1.73143-3.55069 1.73143-3.01118L1.73143 0 0.903355 0 0.903355-4.57951C0.903355-4.74261 0.903355-4.94336 0.890808-5.18174 0.878261-5.42013 0.853168-5.65851 0.840622-5.8718L1.69379-5.8718Z" transform="matrix(1.01264 0 0 1 597.997 374.663)"/><path d="M4.01491-4.47913C3.88944-4.71752 3.72634-4.91826 3.51305-5.05628 3.29975-5.19429 3.04882-5.26957 2.7477-5.26957 2.60969-5.26957 2.45913-5.25702 2.32112-5.21938 2.17056-5.18174 2.03255-5.13156 1.91963-5.06882 1.80671-4.99354 1.70634-4.90572 1.6436-4.7928 1.56832-4.67988 1.53068-4.55441 1.53068-4.39131 1.53068-4.11528 1.63106-3.91454 1.81926-3.78907 2.00745-3.6636 2.29603-3.55069 2.68497-3.46286L3.52559-3.26211C3.93963-3.17429 4.27839-2.98609 4.55441-2.71006 4.81789-2.42149 4.9559-2.07019 4.9559-1.65615 4.9559-1.34249 4.89317-1.06646 4.7677-0.840622 4.62969-0.602236 4.46659-0.414037 4.25329-0.276025 4.04-0.125466 3.78907-0.0125466 3.51305 0.0501864 3.23702 0.112919 2.961 0.150559 2.67242 0.150559 2.22075 0.150559 1.79416 0.0627329 1.41776-0.112919 1.02882-0.276025 0.690062-0.577143 0.414037-0.991181L1.12919-1.4805C1.2923-1.21702 1.50559-1.00373 1.76907-0.840622 2.02-0.677516 2.32112-0.602236 2.67242-0.602236 2.83553-0.602236 3.01118-0.614783 3.17429-0.664969 3.33739-0.702609 3.48795-0.752795 3.62596-0.840622 3.75143-0.915901 3.8518-1.01627 3.93963-1.14174 4.01491-1.26721 4.05255-1.41776 4.05255-1.58087 4.05255-1.86944 3.93963-2.08273 3.72634-2.22075 3.51305-2.34621 3.24957-2.44659 2.9359-2.52186L2.13292-2.71006C2.03255-2.73516 1.89454-2.7728 1.73143-2.83553 1.55578-2.89826 1.39267-2.98609 1.22957-3.09901 1.06646-3.21193 0.915901-3.37503 0.802982-3.56323 0.690062-3.75143 0.62733-3.97727 0.62733-4.25329 0.62733-4.55441 0.690062-4.81789 0.815528-5.04373 0.928448-5.26957 1.09155-5.45777 1.30485-5.59578 1.50559-5.73379 1.73143-5.84671 1.99491-5.92199 2.25839-5.98472 2.52186-6.02236 2.79789-6.02236 3.21193-6.02236 3.58833-5.94708 3.93963-5.78398 4.29093-5.62087 4.56696-5.35739 4.75516-4.96845L4.01491-4.47913Z" transform="matrix(1.01264 0 0 1 605.06 374.663)"/><path d="M5.47031-3.38758C5.47031-3.95218 5.30721-4.40385 4.96845-4.75516 4.62969-5.09392 4.16547-5.26957 3.56323-5.26957 3.29975-5.26957 3.03627-5.21938 2.78534-5.11901 2.53441-5.00609 2.32112-4.86808 2.13292-4.69243 1.94472-4.51677 1.78162-4.31603 1.68124-4.09019 1.56832-3.86435 1.50559-3.62596 1.50559-3.38758L5.47031-3.38758ZM1.4805-2.71006C1.50559-2.42149 1.58087-2.14547 1.69379-1.88199 1.80671-1.61851 1.96981-1.40522 2.15801-1.21702 2.34621-1.02882 2.57205-0.878261 2.82298-0.765342 3.07391-0.652423 3.34994-0.602236 3.63851-0.602236 4.07764-0.602236 4.46659-0.702609 4.7928-0.915901 5.10646-1.11665 5.35739-1.35503 5.5205-1.61851L6.16038-1.09155C5.80907-0.652423 5.42013-0.326211 5.00609-0.138012 4.57951 0.0501864 4.12783 0.150559 3.63851 0.150559 3.19938 0.150559 2.79789 0.0752795 2.43404-0.0878261 2.05764-0.238385 1.73143-0.451677 1.46795-0.727702 1.20447-1.00373 0.991181-1.32994 0.840622-1.70634 0.677516-2.08273 0.602236-2.49677 0.602236-2.9359 0.602236-3.37503 0.677516-3.78907 0.828075-4.16547 0.978634-4.54187 1.19193-4.86808 1.4554-5.1441 1.71888-5.42013 2.03255-5.63342 2.3964-5.79653 2.76025-5.94708 3.14919-6.02236 3.56323-6.02236 4.00236-6.02236 4.40385-5.94708 4.75516-5.78398 5.10646-5.62087 5.40758-5.42013 5.64597-5.15665 5.8718-4.89317 6.06-4.57951 6.18547-4.2282 6.31094-3.86435 6.37367-3.48795 6.37367-3.08646L6.37367-2.71006 1.4805-2.71006Z" transform="matrix(1.01264 0 0 1 610.473 374.663)"/><path d="M3.48795 0 2.5595 0 0.175652-5.8718 1.16683-5.8718 3.03627-0.928448 3.06137-0.928448 4.93081-5.8718 5.8718-5.8718 3.48795 0Z" transform="matrix(1.01264 0 0 1 621.07 374.663)"/><path d="M4.24075-2.92336C4.02746-2.92336 3.77652-2.91081 3.46286-2.89826 3.14919-2.87317 2.84808-2.82298 2.5595-2.7477 2.27093-2.65988 2.02-2.53441 1.81926-2.37131 1.60596-2.2082 1.50559-1.96981 1.50559-1.68124 1.50559-1.49304 1.54323-1.32994 1.63106-1.19193 1.70634-1.05391 1.80671-0.940994 1.94472-0.853168 2.08273-0.765342 2.23329-0.702609 2.3964-0.664969 2.5595-0.614783 2.72261-0.602236 2.88572-0.602236 3.18683-0.602236 3.45031-0.652423 3.67615-0.752795 3.88944-0.853168 4.07764-0.991181 4.2282-1.16683 4.37876-1.32994 4.49168-1.53068 4.56696-1.76907 4.62969-1.99491 4.66733-2.23329 4.66733-2.49677L4.66733-2.92336 4.24075-2.92336ZM4.66733-3.60087 4.66733-3.75143C4.66733-4.7677 4.16547-5.26957 3.16174-5.26957 2.47168-5.26957 1.88199-5.04373 1.36758-4.57951L0.865715-5.1692C1.41776-5.73379 2.24584-6.02236 3.34994-6.02236 3.63851-6.02236 3.91454-5.98472 4.17801-5.8969 4.44149-5.80907 4.66733-5.68361 4.85553-5.5205 5.04373-5.34485 5.20684-5.13156 5.31975-4.86808 5.43267-4.6046 5.49541-4.30348 5.49541-3.93963L5.49541-1.31739C5.49541-1.09155 5.50795-0.853168 5.53305-0.614783 5.54559-0.363851 5.57069-0.163106 5.59578 0L4.7928 0C4.7677-0.138012 4.75516-0.301118 4.74261-0.464224 4.73006-0.62733 4.71752-0.790435 4.71752-0.953541L4.69243-0.953541C4.45404-0.564597 4.16547-0.276025 3.83926-0.112919 3.5005 0.0627329 3.09901 0.150559 2.62224 0.150559 2.35876 0.150559 2.10783 0.112919 1.86944 0.0501864 1.63106-0.0250932 1.41776-0.138012 1.22957-0.288572 1.04137-0.426584 0.878261-0.614783 0.777889-0.828075 0.664969-1.04137 0.602236-1.27975 0.602236-1.56832 0.602236-2.04509 0.727702-2.42149 0.978634-2.69752 1.21702-2.961 1.53068-3.16174 1.90708-3.29975 2.27093-3.43777 2.67242-3.51305 3.09901-3.55069 3.51305-3.58833 3.90199-3.60087 4.25329-3.60087L4.66733-3.60087Z" transform="matrix(1.01264 0 0 1 627.194 374.663)"/><path d="M0.991181-4.04C0.991181-4.30348 0.991181-4.56696 0.978634-4.83044 0.966087-5.09392 0.953541-5.44522 0.940994-5.8718L1.75652-5.8718 1.75652-4.78025 1.78162-4.78025C1.84435-4.94336 1.91963-5.09392 2.03255-5.24447 2.14547-5.38249 2.27093-5.5205 2.43404-5.63342 2.5846-5.74634 2.76025-5.84671 2.97354-5.92199 3.17429-5.98472 3.40013-6.02236 3.6636-6.02236 3.90199-6.02236 4.10274-5.99727 4.27839-5.94708L4.11528-5.13156C4.00236-5.1692 3.8518-5.19429 3.63851-5.19429 3.32485-5.19429 3.04882-5.13156 2.82298-5.01864 2.59714-4.89317 2.40895-4.74261 2.25839-4.55441 2.10783-4.35367 1.99491-4.15292 1.93217-3.93963 1.8569-3.72634 1.81926-3.51305 1.81926-3.3123L1.81926 0 0.991181 0 0.991181-4.04Z" transform="matrix(1.01264 0 0 1 633.787 374.663)"/><path d="M2.10783-8.13019C2.10783-7.95454 2.04509-7.81653 1.91963-7.70361 1.79416-7.57814 1.65615-7.52795 1.50559-7.52795 1.35503-7.52795 1.21702-7.57814 1.09155-7.70361 0.966087-7.81653 0.903355-7.95454 0.903355-8.13019 0.903355-8.30584 0.966087-8.4564 1.09155-8.56932 1.21702-8.68224 1.35503-8.73243 1.50559-8.73243 1.65615-8.73243 1.79416-8.68224 1.91963-8.56932 2.04509-8.4564 2.10783-8.30584 2.10783-8.13019ZM1.91963 0 1.09155 0 1.09155-5.8718 1.91963-5.8718 1.91963 0Z" transform="matrix(1.01264 0 0 1 638.005 374.663)"/><path d="M4.24075-2.92336C4.02746-2.92336 3.77652-2.91081 3.46286-2.89826 3.14919-2.87317 2.84808-2.82298 2.5595-2.7477 2.27093-2.65988 2.02-2.53441 1.81926-2.37131 1.60596-2.2082 1.50559-1.96981 1.50559-1.68124 1.50559-1.49304 1.54323-1.32994 1.63106-1.19193 1.70634-1.05391 1.80671-0.940994 1.94472-0.853168 2.08273-0.765342 2.23329-0.702609 2.3964-0.664969 2.5595-0.614783 2.72261-0.602236 2.88572-0.602236 3.18683-0.602236 3.45031-0.652423 3.67615-0.752795 3.88944-0.853168 4.07764-0.991181 4.2282-1.16683 4.37876-1.32994 4.49168-1.53068 4.56696-1.76907 4.62969-1.99491 4.66733-2.23329 4.66733-2.49677L4.66733-2.92336 4.24075-2.92336ZM4.66733-3.60087 4.66733-3.75143C4.66733-4.7677 4.16547-5.26957 3.16174-5.26957 2.47168-5.26957 1.88199-5.04373 1.36758-4.57951L0.865715-5.1692C1.41776-5.73379 2.24584-6.02236 3.34994-6.02236 3.63851-6.02236 3.91454-5.98472 4.17801-5.8969 4.44149-5.80907 4.66733-5.68361 4.85553-5.5205 5.04373-5.34485 5.20684-5.13156 5.31975-4.86808 5.43267-4.6046 5.49541-4.30348 5.49541-3.93963L5.49541-1.31739C5.49541-1.09155 5.50795-0.853168 5.53305-0.614783 5.54559-0.363851 5.57069-0.163106 5.59578 0L4.7928 0C4.7677-0.138012 4.75516-0.301118 4.74261-0.464224 4.73006-0.62733 4.71752-0.790435 4.71752-0.953541L4.69243-0.953541C4.45404-0.564597 4.16547-0.276025 3.83926-0.112919 3.5005 0.0627329 3.09901 0.150559 2.62224 0.150559 2.35876 0.150559 2.10783 0.112919 1.86944 0.0501864 1.63106-0.0250932 1.41776-0.138012 1.22957-0.288572 1.04137-0.426584 0.878261-0.614783 0.777889-0.828075 0.664969-1.04137 0.602236-1.27975 0.602236-1.56832 0.602236-2.04509 0.727702-2.42149 0.978634-2.69752 1.21702-2.961 1.53068-3.16174 1.90708-3.29975 2.27093-3.43777 2.67242-3.51305 3.09901-3.55069 3.51305-3.58833 3.90199-3.60087 4.25329-3.60087L4.66733-3.60087Z" transform="matrix(1.01264 0 0 1 641.055 374.663)"/><path d="M6.26075-2.9359C6.26075-3.26211 6.21056-3.56323 6.11019-3.8518 5.99727-4.14038 5.84671-4.37876 5.65851-4.59205 5.47031-4.80534 5.23193-4.96845 4.96845-5.09392 4.69243-5.20684 4.37876-5.26957 4.04-5.26957 3.70124-5.26957 3.38758-5.20684 3.09901-5.09392 2.81044-4.96845 2.57205-4.80534 2.35876-4.59205 2.14547-4.37876 1.98236-4.14038 1.86944-3.8518 1.75652-3.56323 1.69379-3.26211 1.69379-2.9359 1.69379-2.60969 1.75652-2.30857 1.86944-2.02 1.98236-1.73143 2.14547-1.49304 2.35876-1.27975 2.57205-1.06646 2.81044-0.903355 3.09901-0.790435 3.38758-0.664969 3.70124-0.602236 4.04-0.602236 4.37876-0.602236 4.69243-0.664969 4.96845-0.790435 5.23193-0.903355 5.47031-1.06646 5.65851-1.27975 5.84671-1.49304 5.99727-1.73143 6.11019-2.02 6.21056-2.30857 6.26075-2.60969 6.26075-2.9359ZM0.903355-9.48522 1.73143-9.48522 1.73143-4.89317 1.75652-4.89317C1.89454-5.09392 2.04509-5.26957 2.23329-5.40758 2.42149-5.54559 2.60969-5.67106 2.81044-5.75888 3.01118-5.84671 3.22447-5.92199 3.43777-5.95963 3.65106-5.99727 3.8518-6.02236 4.04-6.02236 4.50423-6.02236 4.91826-5.94708 5.30721-5.79653 5.68361-5.63342 6.00982-5.42013 6.28584-5.1441 6.56187-4.86808 6.77516-4.54187 6.93826-4.16547 7.08882-3.78907 7.1641-3.37503 7.1641-2.9359 7.1641-2.49677 7.08882-2.08273 6.93826-1.70634 6.77516-1.32994 6.56187-1.00373 6.28584-0.727702 6.00982-0.451677 5.68361-0.238385 5.30721-0.0878261 4.91826 0.0752795 4.50423 0.150559 4.04 0.150559 3.8518 0.150559 3.65106 0.125466 3.43777 0.0878261 3.22447 0.0501864 3.01118-0.0250932 2.81044-0.112919 2.60969-0.200745 2.42149-0.326211 2.23329-0.464224 2.04509-0.602236 1.89454-0.777889 1.75652-0.978634L1.73143-0.978634 1.73143 0 0.903355 0 0.903355-9.48522Z" transform="matrix(1.01264 0 0 1 647.649 374.663)"/><path d="M1.09155-9.48522 1.91963-9.48522 1.91963 2.21359e-07 1.09155 2.21359e-07Z" transform="matrix(1.01264 0 0 1 655.411 374.663)"/><path d="M5.47031-3.38758C5.47031-3.95218 5.30721-4.40385 4.96845-4.75516 4.62969-5.09392 4.16547-5.26957 3.56323-5.26957 3.29975-5.26957 3.03627-5.21938 2.78534-5.11901 2.53441-5.00609 2.32112-4.86808 2.13292-4.69243 1.94472-4.51677 1.78162-4.31603 1.68124-4.09019 1.56832-3.86435 1.50559-3.62596 1.50559-3.38758L5.47031-3.38758ZM1.4805-2.71006C1.50559-2.42149 1.58087-2.14547 1.69379-1.88199 1.80671-1.61851 1.96981-1.40522 2.15801-1.21702 2.34621-1.02882 2.57205-0.878261 2.82298-0.765342 3.07391-0.652423 3.34994-0.602236 3.63851-0.602236 4.07764-0.602236 4.46659-0.702609 4.7928-0.915901 5.10646-1.11665 5.35739-1.35503 5.5205-1.61851L6.16038-1.09155C5.80907-0.652423 5.42013-0.326211 5.00609-0.138012 4.57951 0.0501864 4.12783 0.150559 3.63851 0.150559 3.19938 0.150559 2.79789 0.0752795 2.43404-0.0878261 2.05764-0.238385 1.73143-0.451677 1.46795-0.727702 1.20447-1.00373 0.991181-1.32994 0.840622-1.70634 0.677516-2.08273 0.602236-2.49677 0.602236-2.9359 0.602236-3.37503 0.677516-3.78907 0.828075-4.16547 0.978634-4.54187 1.19193-4.86808 1.4554-5.1441 1.71888-5.42013 2.03255-5.63342 2.3964-5.79653 2.76025-5.94708 3.14919-6.02236 3.56323-6.02236 4.00236-6.02236 4.40385-5.94708 4.75516-5.78398 5.10646-5.62087 5.40758-5.42013 5.64597-5.15665 5.8718-4.89317 6.06-4.57951 6.18547-4.2282 6.31094-3.86435 6.37367-3.48795 6.37367-3.08646L6.37367-2.71006 1.4805-2.71006Z" transform="matrix(1.01264 0 0 1 658.461 374.663)"/><path d="M4.01491-4.47913C3.88944-4.71752 3.72634-4.91826 3.51305-5.05628 3.29975-5.19429 3.04882-5.26957 2.7477-5.26957 2.60969-5.26957 2.45913-5.25702 2.32112-5.21938 2.17056-5.18174 2.03255-5.13156 1.91963-5.06882 1.80671-4.99354 1.70634-4.90572 1.6436-4.7928 1.56832-4.67988 1.53068-4.55441 1.53068-4.39131 1.53068-4.11528 1.63106-3.91454 1.81926-3.78907 2.00745-3.6636 2.29603-3.55069 2.68497-3.46286L3.52559-3.26211C3.93963-3.17429 4.27839-2.98609 4.55441-2.71006 4.81789-2.42149 4.9559-2.07019 4.9559-1.65615 4.9559-1.34249 4.89317-1.06646 4.7677-0.840622 4.62969-0.602236 4.46659-0.414037 4.25329-0.276025 4.04-0.125466 3.78907-0.0125466 3.51305 0.0501864 3.23702 0.112919 2.961 0.150559 2.67242 0.150559 2.22075 0.150559 1.79416 0.0627329 1.41776-0.112919 1.02882-0.276025 0.690062-0.577143 0.414037-0.991181L1.12919-1.4805C1.2923-1.21702 1.50559-1.00373 1.76907-0.840622 2.02-0.677516 2.32112-0.602236 2.67242-0.602236 2.83553-0.602236 3.01118-0.614783 3.17429-0.664969 3.33739-0.702609 3.48795-0.752795 3.62596-0.840622 3.75143-0.915901 3.8518-1.01627 3.93963-1.14174 4.01491-1.26721 4.05255-1.41776 4.05255-1.58087 4.05255-1.86944 3.93963-2.08273 3.72634-2.22075 3.51305-2.34621 3.24957-2.44659 2.9359-2.52186L2.13292-2.71006C2.03255-2.73516 1.89454-2.7728 1.73143-2.83553 1.55578-2.89826 1.39267-2.98609 1.22957-3.09901 1.06646-3.21193 0.915901-3.37503 0.802982-3.56323 0.690062-3.75143 0.62733-3.97727 0.62733-4.25329 0.62733-4.55441 0.690062-4.81789 0.815528-5.04373 0.928448-5.26957 1.09155-5.45777 1.30485-5.59578 1.50559-5.73379 1.73143-5.84671 1.99491-5.92199 2.25839-5.98472 2.52186-6.02236 2.79789-6.02236 3.21193-6.02236 3.58833-5.94708 3.93963-5.78398 4.29093-5.62087 4.56696-5.35739 4.75516-4.96845L4.01491-4.47913Z" transform="matrix(1.01264 0 0 1 665.524 374.663)"/><path d="M1.65615 1.75652 0.815528 1.75652 1.65615-1.19193 2.67242-1.19193 1.65615 1.75652Z" transform="matrix(1.01264 0 0 1 670.937 374.663)"/><path d="M5.47031-3.38758C5.47031-3.95218 5.30721-4.40385 4.96845-4.75516 4.62969-5.09392 4.16547-5.26957 3.56323-5.26957 3.29975-5.26957 3.03627-5.21938 2.78534-5.11901 2.53441-5.00609 2.32112-4.86808 2.13292-4.69243 1.94472-4.51677 1.78162-4.31603 1.68124-4.09019 1.56832-3.86435 1.50559-3.62596 1.50559-3.38758L5.47031-3.38758ZM1.4805-2.71006C1.50559-2.42149 1.58087-2.14547 1.69379-1.88199 1.80671-1.61851 1.96981-1.40522 2.15801-1.21702 2.34621-1.02882 2.57205-0.878261 2.82298-0.765342 3.07391-0.652423 3.34994-0.602236 3.63851-0.602236 4.07764-0.602236 4.46659-0.702609 4.7928-0.915901 5.10646-1.11665 5.35739-1.35503 5.5205-1.61851L6.16038-1.09155C5.80907-0.652423 5.42013-0.326211 5.00609-0.138012 4.57951 0.0501864 4.12783 0.150559 3.63851 0.150559 3.19938 0.150559 2.79789 0.0752795 2.43404-0.0878261 2.05764-0.238385 1.73143-0.451677 1.46795-0.727702 1.20447-1.00373 0.991181-1.32994 0.840622-1.70634 0.677516-2.08273 0.602236-2.49677 0.602236-2.9359 0.602236-3.37503 0.677516-3.78907 0.828075-4.16547 0.978634-4.54187 1.19193-4.86808 1.4554-5.1441 1.71888-5.42013 2.03255-5.63342 2.3964-5.79653 2.76025-5.94708 3.14919-6.02236 3.56323-6.02236 4.00236-6.02236 4.40385-5.94708 4.75516-5.78398 5.10646-5.62087 5.40758-5.42013 5.64597-5.15665 5.8718-4.89317 6.06-4.57951 6.18547-4.2282 6.31094-3.86435 6.37367-3.48795 6.37367-3.08646L6.37367-2.71006 1.4805-2.71006Z" transform="matrix(1.01264 0 0 1 678.001 374.663)"/><path d="M2.42149-0.602236C2.42149-0.426584 2.35876-0.276025 2.23329-0.138012 2.10783 0 1.94472 0.0752795 1.74398 0.0752795 1.54323 0.0752795 1.38012 0 1.25466-0.138012 1.12919-0.276025 1.06646-0.426584 1.06646-0.602236 1.06646-0.777889 1.12919-0.940994 1.25466-1.07901 1.38012-1.21702 1.54323-1.27975 1.74398-1.27975 1.94472-1.27975 2.10783-1.21702 2.23329-1.07901 2.35876-0.940994 2.42149-0.777889 2.42149-0.602236Z" transform="matrix(1.01264 0 0 1 685.065 374.663)"/><path d="M1.50559-3.01118C1.50559-2.69752 1.56832-2.40895 1.68124-2.14547 1.78162-1.86944 1.94472-1.63106 2.14547-1.43031 2.33367-1.21702 2.57205-1.05391 2.83553-0.940994 3.09901-0.815528 3.37503-0.752795 3.6887-0.752795 3.98982-0.752795 4.27839-0.802982 4.55441-0.915901 4.81789-1.02882 5.05628-1.17938 5.26957-1.38012 5.48286-1.56832 5.64597-1.80671 5.75888-2.08273 5.8718-2.35876 5.92199-2.67242 5.90944-3.01118 5.90944-3.32485 5.85926-3.61342 5.75888-3.88944 5.65851-4.15292 5.50795-4.39131 5.31975-4.6046 5.13156-4.80534 4.89317-4.96845 4.61715-5.09392 4.34112-5.20684 4.02746-5.26957 3.6887-5.26957 3.37503-5.26957 3.09901-5.20684 2.83553-5.09392 2.57205-4.96845 2.33367-4.80534 2.14547-4.6046 1.94472-4.39131 1.78162-4.15292 1.68124-3.88944 1.56832-3.61342 1.50559-3.32485 1.50559-3.01118ZM1.35503 1.17938C1.59342 1.50559 1.91963 1.76907 2.30857 1.96981 2.69752 2.15801 3.1241 2.25839 3.60087 2.25839 4.01491 2.25839 4.37876 2.19565 4.66733 2.08273 4.9559 1.95727 5.19429 1.79416 5.38249 1.58087 5.55814 1.36758 5.68361 1.12919 5.77143 0.853168 5.84671 0.564597 5.88435 0.263478 5.88435-0.0501864L5.88435-1.1041 5.85926-1.1041C5.59578-0.702609 5.26957-0.414037 4.88062-0.250932 4.49168-0.0878261 4.09019 0 3.6636 0 3.23702 0 2.83553-0.0752795 2.47168-0.225839 2.09528-0.376398 1.76907-0.58969 1.49304-0.853168 1.21702-1.11665 1.00373-1.43031 0.840622-1.79416 0.677516-2.15801 0.602236-2.5595 0.602236-2.98609 0.602236-3.41267 0.677516-3.81416 0.828075-4.17801 0.978634-4.54187 1.19193-4.86808 1.4554-5.1441 1.70634-5.42013 2.03255-5.63342 2.3964-5.79653 2.76025-5.94708 3.14919-6.02236 3.58833-6.02236 3.76398-6.02236 3.95218-6.00982 4.15292-5.97218 4.34112-5.93454 4.54187-5.88435 4.74261-5.79653 4.93081-5.7087 5.13156-5.59578 5.31975-5.45777 5.50795-5.30721 5.69615-5.11901 5.85926-4.89317L5.88435-4.89317 5.88435-5.8718 6.71243-5.8718 6.71243-0.0501864C6.71243 0.263478 6.67479 0.602236 6.59951 0.966087 6.51168 1.32994 6.36112 1.65615 6.13528 1.95727 5.8969 2.25839 5.58323 2.50932 5.1692 2.71006 4.75516 2.91081 4.2282 3.01118 3.56323 3.01118 2.97354 3.01118 2.45913 2.91081 1.99491 2.72261 1.53068 2.53441 1.11665 2.23329 0.740249 1.8318L1.35503 1.17938Z" transform="matrix(1.01264 0 0 1 692.129 374.663)"/><path d="M2.42149-0.602236C2.42149-0.426584 2.35876-0.276025 2.23329-0.138012 2.10783 0 1.94472 0.0752795 1.74398 0.0752795 1.54323 0.0752795 1.38012 0 1.25466-0.138012 1.12919-0.276025 1.06646-0.426584 1.06646-0.602236 1.06646-0.777889 1.12919-0.940994 1.25466-1.07901 1.38012-1.21702 1.54323-1.27975 1.74398-1.27975 1.94472-1.27975 2.10783-1.21702 2.23329-1.07901 2.35876-0.940994 2.42149-0.777889 2.42149-0.602236Z" transform="matrix(1.01264 0 0 1 699.891 374.663)"/><path d="M3.93963-5.11901 2.24584-5.11901 2.24584-1.65615C2.24584-1.44286 2.27093-1.25466 2.30857-1.12919 2.34621-0.991181 2.40895-0.878261 2.48423-0.802982 2.5595-0.727702 2.64733-0.677516 2.76025-0.652423 2.86062-0.614783 2.97354-0.602236 3.09901-0.602236 3.23702-0.602236 3.38758-0.62733 3.53814-0.664969 3.6887-0.702609 3.82671-0.765342 3.95218-0.828075L3.98982-0.0627329C3.67615 0.0752795 3.3123 0.150559 2.87317 0.150559 2.71006 0.150559 2.54696 0.125466 2.38385 0.0878261 2.2082 0.0501864 2.04509-0.0376398 1.90708-0.150559 1.76907-0.263478 1.6436-0.426584 1.55578-0.62733 1.46795-0.828075 1.41776-1.09155 1.41776-1.41776L1.41776-5.11901 0.175652-5.11901 0.175652-5.8718 1.41776-5.8718 1.41776-7.52795 2.24584-7.52795 2.24584-5.8718 3.93963-5.8718 3.93963-5.11901Z" transform="matrix(1.01264 0 0 1 544.353 387.211)"/><path d="M0.903355-9.48522 1.73143-9.48522 1.73143-4.93081 1.75652-4.93081C1.84435-5.09392 1.96981-5.23193 2.10783-5.36994 2.24584-5.50795 2.40895-5.62087 2.5846-5.72125 2.76025-5.80907 2.94845-5.88435 3.14919-5.94708 3.33739-5.99727 3.53814-6.02236 3.72634-6.02236 4.47913-6.02236 5.03118-5.82162 5.39503-5.43267 5.75888-5.03118 5.93454-4.46659 5.93454-3.72634L5.93454 0 5.10646 0 5.10646-3.24957C5.10646-3.90199 4.99354-4.40385 4.7677-4.75516 4.54187-5.09392 4.12783-5.26957 3.51305-5.26957 3.47541-5.26957 3.34994-5.25702 3.16174-5.21938 2.97354-5.18174 2.7728-5.09392 2.5595-4.94336 2.34621-4.7928 2.14547-4.56696 1.98236-4.26584 1.81926-3.96472 1.73143-3.55069 1.73143-3.01118L1.73143 0 0.903355 0 0.903355-9.48522Z" transform="matrix(1.01264 0 0 1 548.571 387.211)"/><path d="M5.47031-3.38758C5.47031-3.95218 5.30721-4.40385 4.96845-4.75516 4.62969-5.09392 4.16547-5.26957 3.56323-5.26957 3.29975-5.26957 3.03627-5.21938 2.78534-5.11901 2.53441-5.00609 2.32112-4.86808 2.13292-4.69243 1.94472-4.51677 1.78162-4.31603 1.68124-4.09019 1.56832-3.86435 1.50559-3.62596 1.50559-3.38758L5.47031-3.38758ZM1.4805-2.71006C1.50559-2.42149 1.58087-2.14547 1.69379-1.88199 1.80671-1.61851 1.96981-1.40522 2.15801-1.21702 2.34621-1.02882 2.57205-0.878261 2.82298-0.765342 3.07391-0.652423 3.34994-0.602236 3.63851-0.602236 4.07764-0.602236 4.46659-0.702609 4.7928-0.915901 5.10646-1.11665 5.35739-1.35503 5.5205-1.61851L6.16038-1.09155C5.80907-0.652423 5.42013-0.326211 5.00609-0.138012 4.57951 0.0501864 4.12783 0.150559 3.63851 0.150559 3.19938 0.150559 2.79789 0.0752795 2.43404-0.0878261 2.05764-0.238385 1.73143-0.451677 1.46795-0.727702 1.20447-1.00373 0.991181-1.32994 0.840622-1.70634 0.677516-2.08273 0.602236-2.49677 0.602236-2.9359 0.602236-3.37503 0.677516-3.78907 0.828075-4.16547 0.978634-4.54187 1.19193-4.86808 1.4554-5.1441 1.71888-5.42013 2.03255-5.63342 2.3964-5.79653 2.76025-5.94708 3.14919-6.02236 3.56323-6.02236 4.00236-6.02236 4.40385-5.94708 4.75516-5.78398 5.10646-5.62087 5.40758-5.42013 5.64597-5.15665 5.8718-4.89317 6.06-4.57951 6.18547-4.2282 6.31094-3.86435 6.37367-3.48795 6.37367-3.08646L6.37367-2.71006 1.4805-2.71006Z" transform="matrix(1.01264 0 0 1 555.635 387.211)"/><path d="M3.93963-5.11901 2.24584-5.11901 2.24584-1.65615C2.24584-1.44286 2.27093-1.25466 2.30857-1.12919 2.34621-0.991181 2.40895-0.878261 2.48423-0.802982 2.5595-0.727702 2.64733-0.677516 2.76025-0.652423 2.86062-0.614783 2.97354-0.602236 3.09901-0.602236 3.23702-0.602236 3.38758-0.62733 3.53814-0.664969 3.6887-0.702609 3.82671-0.765342 3.95218-0.828075L3.98982-0.0627329C3.67615 0.0752795 3.3123 0.150559 2.87317 0.150559 2.71006 0.150559 2.54696 0.125466 2.38385 0.0878261 2.2082 0.0501864 2.04509-0.0376398 1.90708-0.150559 1.76907-0.263478 1.6436-0.426584 1.55578-0.62733 1.46795-0.828075 1.41776-1.09155 1.41776-1.41776L1.41776-5.11901 0.175652-5.11901 0.175652-5.8718 1.41776-5.8718 1.41776-7.52795 2.24584-7.52795 2.24584-5.8718 3.93963-5.8718 3.93963-5.11901Z" transform="matrix(1.01264 0 0 1 566.231 387.211)"/><path d="M5.47031-3.38758C5.47031-3.95218 5.30721-4.40385 4.96845-4.75516 4.62969-5.09392 4.16547-5.26957 3.56323-5.26957 3.29975-5.26957 3.03627-5.21938 2.78534-5.11901 2.53441-5.00609 2.32112-4.86808 2.13292-4.69243 1.94472-4.51677 1.78162-4.31603 1.68124-4.09019 1.56832-3.86435 1.50559-3.62596 1.50559-3.38758L5.47031-3.38758ZM1.4805-2.71006C1.50559-2.42149 1.58087-2.14547 1.69379-1.88199 1.80671-1.61851 1.96981-1.40522 2.15801-1.21702 2.34621-1.02882 2.57205-0.878261 2.82298-0.765342 3.07391-0.652423 3.34994-0.602236 3.63851-0.602236 4.07764-0.602236 4.46659-0.702609 4.7928-0.915901 5.10646-1.11665 5.35739-1.35503 5.5205-1.61851L6.16038-1.09155C5.80907-0.652423 5.42013-0.326211 5.00609-0.138012 4.57951 0.0501864 4.12783 0.150559 3.63851 0.150559 3.19938 0.150559 2.79789 0.0752795 2.43404-0.0878261 2.05764-0.238385 1.73143-0.451677 1.46795-0.727702 1.20447-1.00373 0.991181-1.32994 0.840622-1.70634 0.677516-2.08273 0.602236-2.49677 0.602236-2.9359 0.602236-3.37503 0.677516-3.78907 0.828075-4.16547 0.978634-4.54187 1.19193-4.86808 1.4554-5.1441 1.71888-5.42013 2.03255-5.63342 2.3964-5.79653 2.76025-5.94708 3.14919-6.02236 3.56323-6.02236 4.00236-6.02236 4.40385-5.94708 4.75516-5.78398 5.10646-5.62087 5.40758-5.42013 5.64597-5.15665 5.8718-4.89317 6.06-4.57951 6.18547-4.2282 6.31094-3.86435 6.37367-3.48795 6.37367-3.08646L6.37367-2.71006 1.4805-2.71006Z" transform="matrix(1.01264 0 0 1 570.449 387.211)"/><path d="M0.903355-4.56696C0.903355-4.78025 0.903355-5.00609 0.890808-5.21938 0.878261-5.43267 0.853168-5.65851 0.840622-5.8718L1.73143-5.8718 1.73143-4.981 1.75652-4.981C1.95727-5.31975 2.23329-5.58323 2.59714-5.75888 2.94845-5.93454 3.29975-6.02236 3.65106-6.02236 3.81416-6.02236 3.97727-6.00982 4.16547-5.97218 4.34112-5.93454 4.51677-5.8718 4.67988-5.79653 4.84298-5.7087 5.00609-5.58323 5.15665-5.42013 5.29466-5.25702 5.42013-5.05628 5.5205-4.80534 5.68361-5.18174 5.95963-5.48286 6.32348-5.69615 6.68733-5.90944 7.06373-6.02236 7.45267-6.02236 8.20547-6.02236 8.75752-5.82162 9.12137-5.43267 9.48522-5.03118 9.66087-4.46659 9.66087-3.72634L9.66087 0 8.8328 0 8.8328-3.42522C8.8328-4.01491 8.73243-4.47913 8.51914-4.7928 8.30584-5.10646 7.9169-5.26957 7.3523-5.26957 7.03864-5.26957 6.78771-5.20684 6.57441-5.09392 6.36112-4.96845 6.19802-4.80534 6.07255-4.6046 5.93454-4.40385 5.84671-4.17801 5.78398-3.92708 5.72125-3.6636 5.69615-3.40013 5.69615-3.1241L5.69615 0 4.86808 0 4.86808-3.42522C4.86808-4.01491 4.7677-4.47913 4.55441-4.7928 4.34112-5.10646 3.95218-5.26957 3.38758-5.26957 3.33739-5.26957 3.22447-5.25702 3.04882-5.21938 2.86062-5.18174 2.67242-5.09392 2.48423-4.94336 2.29603-4.7928 2.12037-4.56696 1.96981-4.26584 1.80671-3.96472 1.73143-3.55069 1.73143-3.01118L1.73143 0 0.903355 0 0.903355-4.56696Z" transform="matrix(1.01264 0 0 1 577.514 387.211)"/><path d="M6.26075-2.9359C6.26075-3.26211 6.21056-3.56323 6.11019-3.8518 5.99727-4.14038 5.84671-4.37876 5.65851-4.59205 5.47031-4.80534 5.23193-4.96845 4.96845-5.09392 4.69243-5.20684 4.37876-5.26957 4.04-5.26957 3.70124-5.26957 3.38758-5.20684 3.09901-5.09392 2.81044-4.96845 2.57205-4.80534 2.35876-4.59205 2.14547-4.37876 1.98236-4.14038 1.86944-3.8518 1.75652-3.56323 1.69379-3.26211 1.69379-2.9359 1.69379-2.60969 1.75652-2.30857 1.86944-2.02 1.98236-1.73143 2.14547-1.49304 2.35876-1.27975 2.57205-1.06646 2.81044-0.903355 3.09901-0.790435 3.38758-0.664969 3.70124-0.602236 4.04-0.602236 4.37876-0.602236 4.69243-0.664969 4.96845-0.790435 5.23193-0.903355 5.47031-1.06646 5.65851-1.27975 5.84671-1.49304 5.99727-1.73143 6.11019-2.02 6.21056-2.30857 6.26075-2.60969 6.26075-2.9359ZM0.903355-5.8718 1.73143-5.8718 1.73143-4.89317 1.75652-4.89317C1.89454-5.09392 2.04509-5.26957 2.23329-5.40758 2.42149-5.54559 2.60969-5.67106 2.81044-5.75888 3.01118-5.84671 3.22447-5.92199 3.43777-5.95963 3.65106-5.99727 3.8518-6.02236 4.04-6.02236 4.50423-6.02236 4.91826-5.94708 5.30721-5.79653 5.68361-5.63342 6.00982-5.42013 6.28584-5.1441 6.56187-4.86808 6.77516-4.54187 6.93826-4.16547 7.08882-3.78907 7.1641-3.37503 7.1641-2.9359 7.1641-2.49677 7.08882-2.08273 6.93826-1.70634 6.77516-1.32994 6.56187-1.00373 6.28584-0.727702 6.00982-0.451677 5.68361-0.238385 5.30721-0.0878261 4.91826 0.0752795 4.50423 0.150559 4.04 0.150559 3.8518 0.150559 3.65106 0.125466 3.43777 0.0878261 3.22447 0.0501864 3.01118-0.0250932 2.81044-0.112919 2.60969-0.200745 2.42149-0.326211 2.23329-0.464224 2.04509-0.602236 1.89454-0.777889 1.75652-0.978634L1.73143-0.978634 1.73143 3.61342 0.903355 3.61342 0.903355-5.8718Z" transform="matrix(1.01264 0 0 1 588.338 387.211)"/><path d="M5.47031-3.38758C5.47031-3.95218 5.30721-4.40385 4.96845-4.75516 4.62969-5.09392 4.16547-5.26957 3.56323-5.26957 3.29975-5.26957 3.03627-5.21938 2.78534-5.11901 2.53441-5.00609 2.32112-4.86808 2.13292-4.69243 1.94472-4.51677 1.78162-4.31603 1.68124-4.09019 1.56832-3.86435 1.50559-3.62596 1.50559-3.38758L5.47031-3.38758ZM1.4805-2.71006C1.50559-2.42149 1.58087-2.14547 1.69379-1.88199 1.80671-1.61851 1.96981-1.40522 2.15801-1.21702 2.34621-1.02882 2.57205-0.878261 2.82298-0.765342 3.07391-0.652423 3.34994-0.602236 3.63851-0.602236 4.07764-0.602236 4.46659-0.702609 4.7928-0.915901 5.10646-1.11665 5.35739-1.35503 5.5205-1.61851L6.16038-1.09155C5.80907-0.652423 5.42013-0.326211 5.00609-0.138012 4.57951 0.0501864 4.12783 0.150559 3.63851 0.150559 3.19938 0.150559 2.79789 0.0752795 2.43404-0.0878261 2.05764-0.238385 1.73143-0.451677 1.46795-0.727702 1.20447-1.00373 0.991181-1.32994 0.840622-1.70634 0.677516-2.08273 0.602236-2.49677 0.602236-2.9359 0.602236-3.37503 0.677516-3.78907 0.828075-4.16547 0.978634-4.54187 1.19193-4.86808 1.4554-5.1441 1.71888-5.42013 2.03255-5.63342 2.3964-5.79653 2.76025-5.94708 3.14919-6.02236 3.56323-6.02236 4.00236-6.02236 4.40385-5.94708 4.75516-5.78398 5.10646-5.62087 5.40758-5.42013 5.64597-5.15665 5.8718-4.89317 6.06-4.57951 6.18547-4.2282 6.31094-3.86435 6.37367-3.48795 6.37367-3.08646L6.37367-2.71006 1.4805-2.71006Z" transform="matrix(1.01264 0 0 1 596.101 387.211)"/><path d="M0.991181-4.04C0.991181-4.30348 0.991181-4.56696 0.978634-4.83044 0.966087-5.09392 0.953541-5.44522 0.940994-5.8718L1.75652-5.8718 1.75652-4.78025 1.78162-4.78025C1.84435-4.94336 1.91963-5.09392 2.03255-5.24447 2.14547-5.38249 2.27093-5.5205 2.43404-5.63342 2.5846-5.74634 2.76025-5.84671 2.97354-5.92199 3.17429-5.98472 3.40013-6.02236 3.6636-6.02236 3.90199-6.02236 4.10274-5.99727 4.27839-5.94708L4.11528-5.13156C4.00236-5.1692 3.8518-5.19429 3.63851-5.19429 3.32485-5.19429 3.04882-5.13156 2.82298-5.01864 2.59714-4.89317 2.40895-4.74261 2.25839-4.55441 2.10783-4.35367 1.99491-4.15292 1.93217-3.93963 1.8569-3.72634 1.81926-3.51305 1.81926-3.3123L1.81926 0 0.991181 0 0.991181-4.04Z" transform="matrix(1.01264 0 0 1 603.165 387.211)"/><path d="M4.24075-2.92336C4.02746-2.92336 3.77652-2.91081 3.46286-2.89826 3.14919-2.87317 2.84808-2.82298 2.5595-2.7477 2.27093-2.65988 2.02-2.53441 1.81926-2.37131 1.60596-2.2082 1.50559-1.96981 1.50559-1.68124 1.50559-1.49304 1.54323-1.32994 1.63106-1.19193 1.70634-1.05391 1.80671-0.940994 1.94472-0.853168 2.08273-0.765342 2.23329-0.702609 2.3964-0.664969 2.5595-0.614783 2.72261-0.602236 2.88572-0.602236 3.18683-0.602236 3.45031-0.652423 3.67615-0.752795 3.88944-0.853168 4.07764-0.991181 4.2282-1.16683 4.37876-1.32994 4.49168-1.53068 4.56696-1.76907 4.62969-1.99491 4.66733-2.23329 4.66733-2.49677L4.66733-2.92336 4.24075-2.92336ZM4.66733-3.60087 4.66733-3.75143C4.66733-4.7677 4.16547-5.26957 3.16174-5.26957 2.47168-5.26957 1.88199-5.04373 1.36758-4.57951L0.865715-5.1692C1.41776-5.73379 2.24584-6.02236 3.34994-6.02236 3.63851-6.02236 3.91454-5.98472 4.17801-5.8969 4.44149-5.80907 4.66733-5.68361 4.85553-5.5205 5.04373-5.34485 5.20684-5.13156 5.31975-4.86808 5.43267-4.6046 5.49541-4.30348 5.49541-3.93963L5.49541-1.31739C5.49541-1.09155 5.50795-0.853168 5.53305-0.614783 5.54559-0.363851 5.57069-0.163106 5.59578 0L4.7928 0C4.7677-0.138012 4.75516-0.301118 4.74261-0.464224 4.73006-0.62733 4.71752-0.790435 4.71752-0.953541L4.69243-0.953541C4.45404-0.564597 4.16547-0.276025 3.83926-0.112919 3.5005 0.0627329 3.09901 0.150559 2.62224 0.150559 2.35876 0.150559 2.10783 0.112919 1.86944 0.0501864 1.63106-0.0250932 1.41776-0.138012 1.22957-0.288572 1.04137-0.426584 0.878261-0.614783 0.777889-0.828075 0.664969-1.04137 0.602236-1.27975 0.602236-1.56832 0.602236-2.04509 0.727702-2.42149 0.978634-2.69752 1.21702-2.961 1.53068-3.16174 1.90708-3.29975 2.27093-3.43777 2.67242-3.51305 3.09901-3.55069 3.51305-3.58833 3.90199-3.60087 4.25329-3.60087L4.66733-3.60087Z" transform="matrix(1.01264 0 0 1 607.383 387.211)"/><path d="M3.93963-5.11901 2.24584-5.11901 2.24584-1.65615C2.24584-1.44286 2.27093-1.25466 2.30857-1.12919 2.34621-0.991181 2.40895-0.878261 2.48423-0.802982 2.5595-0.727702 2.64733-0.677516 2.76025-0.652423 2.86062-0.614783 2.97354-0.602236 3.09901-0.602236 3.23702-0.602236 3.38758-0.62733 3.53814-0.664969 3.6887-0.702609 3.82671-0.765342 3.95218-0.828075L3.98982-0.0627329C3.67615 0.0752795 3.3123 0.150559 2.87317 0.150559 2.71006 0.150559 2.54696 0.125466 2.38385 0.0878261 2.2082 0.0501864 2.04509-0.0376398 1.90708-0.150559 1.76907-0.263478 1.6436-0.426584 1.55578-0.62733 1.46795-0.828075 1.41776-1.09155 1.41776-1.41776L1.41776-5.11901 0.175652-5.11901 0.175652-5.8718 1.41776-5.8718 1.41776-7.52795 2.24584-7.52795 2.24584-5.8718 3.93963-5.8718 3.93963-5.11901Z" transform="matrix(1.01264 0 0 1 613.977 387.211)"/><path d="M5.1441 0C5.13156-0.163106 5.11901-0.313665 5.11901-0.47677 5.10646-0.62733 5.10646-0.777889 5.10646-0.940994L5.08137-0.940994C4.99354-0.777889 4.86808-0.639876 4.73006-0.501864 4.59205-0.363851 4.42895-0.250932 4.25329-0.163106 4.07764-0.0627329 3.88944 0.0125466 3.70124 0.0752795 3.5005 0.125466 3.29975 0.150559 3.11155 0.150559 2.35876 0.150559 1.80671-0.0501864 1.44286-0.451677 1.07901-0.840622 0.903355-1.40522 0.903355-2.14547L0.903355-5.8718 1.73143-5.8718 1.73143-2.62224C1.73143-2.29603 1.75652-2.00745 1.80671-1.75652 1.8569-1.50559 1.94472-1.2923 2.07019-1.12919 2.18311-0.953541 2.34621-0.828075 2.5595-0.740249 2.76025-0.639876 3.01118-0.602236 3.32485-0.602236 3.36249-0.602236 3.48795-0.614783 3.67615-0.652423 3.86435-0.690062 4.07764-0.777889 4.29093-0.928448 4.50423-1.07901 4.69243-1.30485 4.85553-1.60596 5.01864-1.90708 5.10646-2.32112 5.10646-2.86062L5.10646-5.8718 5.93454-5.8718 5.93454-1.2923C5.93454-1.12919 5.94708-0.928448 5.95963-0.690062 5.97218-0.451677 5.98472-0.213292 5.99727 0L5.1441 0Z" transform="matrix(1.01264 0 0 1 618.196 387.211)"/><path d="M0.991181-4.04C0.991181-4.30348 0.991181-4.56696 0.978634-4.83044 0.966087-5.09392 0.953541-5.44522 0.940994-5.8718L1.75652-5.8718 1.75652-4.78025 1.78162-4.78025C1.84435-4.94336 1.91963-5.09392 2.03255-5.24447 2.14547-5.38249 2.27093-5.5205 2.43404-5.63342 2.5846-5.74634 2.76025-5.84671 2.97354-5.92199 3.17429-5.98472 3.40013-6.02236 3.6636-6.02236 3.90199-6.02236 4.10274-5.99727 4.27839-5.94708L4.11528-5.13156C4.00236-5.1692 3.8518-5.19429 3.63851-5.19429 3.32485-5.19429 3.04882-5.13156 2.82298-5.01864 2.59714-4.89317 2.40895-4.74261 2.25839-4.55441 2.10783-4.35367 1.99491-4.15292 1.93217-3.93963 1.8569-3.72634 1.81926-3.51305 1.81926-3.3123L1.81926 0 0.991181 0 0.991181-4.04Z" transform="matrix(1.01264 0 0 1 625.259 387.211)"/><path d="M5.47031-3.38758C5.47031-3.95218 5.30721-4.40385 4.96845-4.75516 4.62969-5.09392 4.16547-5.26957 3.56323-5.26957 3.29975-5.26957 3.03627-5.21938 2.78534-5.11901 2.53441-5.00609 2.32112-4.86808 2.13292-4.69243 1.94472-4.51677 1.78162-4.31603 1.68124-4.09019 1.56832-3.86435 1.50559-3.62596 1.50559-3.38758L5.47031-3.38758ZM1.4805-2.71006C1.50559-2.42149 1.58087-2.14547 1.69379-1.88199 1.80671-1.61851 1.96981-1.40522 2.15801-1.21702 2.34621-1.02882 2.57205-0.878261 2.82298-0.765342 3.07391-0.652423 3.34994-0.602236 3.63851-0.602236 4.07764-0.602236 4.46659-0.702609 4.7928-0.915901 5.10646-1.11665 5.35739-1.35503 5.5205-1.61851L6.16038-1.09155C5.80907-0.652423 5.42013-0.326211 5.00609-0.138012 4.57951 0.0501864 4.12783 0.150559 3.63851 0.150559 3.19938 0.150559 2.79789 0.0752795 2.43404-0.0878261 2.05764-0.238385 1.73143-0.451677 1.46795-0.727702 1.20447-1.00373 0.991181-1.32994 0.840622-1.70634 0.677516-2.08273 0.602236-2.49677 0.602236-2.9359 0.602236-3.37503 0.677516-3.78907 0.828075-4.16547 0.978634-4.54187 1.19193-4.86808 1.4554-5.1441 1.71888-5.42013 2.03255-5.63342 2.3964-5.79653 2.76025-5.94708 3.14919-6.02236 3.56323-6.02236 4.00236-6.02236 4.40385-5.94708 4.75516-5.78398 5.10646-5.62087 5.40758-5.42013 5.64597-5.15665 5.8718-4.89317 6.06-4.57951 6.18547-4.2282 6.31094-3.86435 6.37367-3.48795 6.37367-3.08646L6.37367-2.71006 1.4805-2.71006Z" transform="matrix(1.01264 0 0 1 629.251 387.211)"/><path d="M4.24075-2.92336C4.02746-2.92336 3.77652-2.91081 3.46286-2.89826 3.14919-2.87317 2.84808-2.82298 2.5595-2.7477 2.27093-2.65988 2.02-2.53441 1.81926-2.37131 1.60596-2.2082 1.50559-1.96981 1.50559-1.68124 1.50559-1.49304 1.54323-1.32994 1.63106-1.19193 1.70634-1.05391 1.80671-0.940994 1.94472-0.853168 2.08273-0.765342 2.23329-0.702609 2.3964-0.664969 2.5595-0.614783 2.72261-0.602236 2.88572-0.602236 3.18683-0.602236 3.45031-0.652423 3.67615-0.752795 3.88944-0.853168 4.07764-0.991181 4.2282-1.16683 4.37876-1.32994 4.49168-1.53068 4.56696-1.76907 4.62969-1.99491 4.66733-2.23329 4.66733-2.49677L4.66733-2.92336 4.24075-2.92336ZM4.66733-3.60087 4.66733-3.75143C4.66733-4.7677 4.16547-5.26957 3.16174-5.26957 2.47168-5.26957 1.88199-5.04373 1.36758-4.57951L0.865715-5.1692C1.41776-5.73379 2.24584-6.02236 3.34994-6.02236 3.63851-6.02236 3.91454-5.98472 4.17801-5.8969 4.44149-5.80907 4.66733-5.68361 4.85553-5.5205 5.04373-5.34485 5.20684-5.13156 5.31975-4.86808 5.43267-4.6046 5.49541-4.30348 5.49541-3.93963L5.49541-1.31739C5.49541-1.09155 5.50795-0.853168 5.53305-0.614783 5.54559-0.363851 5.57069-0.163106 5.59578 0L4.7928 0C4.7677-0.138012 4.75516-0.301118 4.74261-0.464224 4.73006-0.62733 4.71752-0.790435 4.71752-0.953541L4.69243-0.953541C4.45404-0.564597 4.16547-0.276025 3.83926-0.112919 3.5005 0.0627329 3.09901 0.150559 2.62224 0.150559 2.35876 0.150559 2.10783 0.112919 1.86944 0.0501864 1.63106-0.0250932 1.41776-0.138012 1.22957-0.288572 1.04137-0.426584 0.878261-0.614783 0.777889-0.828075 0.664969-1.04137 0.602236-1.27975 0.602236-1.56832 0.602236-2.04509 0.727702-2.42149 0.978634-2.69752 1.21702-2.961 1.53068-3.16174 1.90708-3.29975 2.27093-3.43777 2.67242-3.51305 3.09901-3.55069 3.51305-3.58833 3.90199-3.60087 4.25329-3.60087L4.66733-3.60087Z" transform="matrix(1.01264 0 0 1 639.847 387.211)"/><path d="M3.93963-5.11901 2.24584-5.11901 2.24584-1.65615C2.24584-1.44286 2.27093-1.25466 2.30857-1.12919 2.34621-0.991181 2.40895-0.878261 2.48423-0.802982 2.5595-0.727702 2.64733-0.677516 2.76025-0.652423 2.86062-0.614783 2.97354-0.602236 3.09901-0.602236 3.23702-0.602236 3.38758-0.62733 3.53814-0.664969 3.6887-0.702609 3.82671-0.765342 3.95218-0.828075L3.98982-0.0627329C3.67615 0.0752795 3.3123 0.150559 2.87317 0.150559 2.71006 0.150559 2.54696 0.125466 2.38385 0.0878261 2.2082 0.0501864 2.04509-0.0376398 1.90708-0.150559 1.76907-0.263478 1.6436-0.426584 1.55578-0.62733 1.46795-0.828075 1.41776-1.09155 1.41776-1.41776L1.41776-5.11901 0.175652-5.11901 0.175652-5.8718 1.41776-5.8718 1.41776-7.52795 2.24584-7.52795 2.24584-5.8718 3.93963-5.8718 3.93963-5.11901Z" transform="matrix(1.01264 0 0 1 646.441 387.211)"/><path d="M5.93454-2.9359C5.93454-3.26211 5.88435-3.56323 5.78398-3.8518 5.67106-4.14038 5.5205-4.37876 5.3323-4.59205 5.1441-4.80534 4.90572-4.96845 4.64224-5.09392 4.36621-5.20684 4.05255-5.26957 3.71379-5.26957 3.37503-5.26957 3.06137-5.20684 2.79789-5.09392 2.52186-4.96845 2.29603-4.80534 2.10783-4.59205 1.91963-4.37876 1.76907-4.14038 1.6687-3.8518 1.55578-3.56323 1.50559-3.26211 1.50559-2.9359 1.50559-2.60969 1.55578-2.30857 1.6687-2.02 1.76907-1.73143 1.91963-1.49304 2.10783-1.27975 2.29603-1.06646 2.52186-0.903355 2.79789-0.790435 3.06137-0.664969 3.37503-0.602236 3.71379-0.602236 4.05255-0.602236 4.36621-0.664969 4.64224-0.790435 4.90572-0.903355 5.1441-1.06646 5.3323-1.27975 5.5205-1.49304 5.67106-1.73143 5.78398-2.02 5.88435-2.30857 5.93454-2.60969 5.93454-2.9359ZM6.83789-2.9359C6.83789-2.49677 6.76261-2.08273 6.61205-1.70634 6.44895-1.32994 6.23566-1.00373 5.95963-0.727702 5.68361-0.451677 5.35739-0.238385 4.981-0.0878261 4.59205 0.0752795 4.17801 0.150559 3.71379 0.150559 3.26211 0.150559 2.84808 0.0752795 2.47168-0.0878261 2.08273-0.238385 1.75652-0.451677 1.4805-0.727702 1.20447-1.00373 0.991181-1.32994 0.840622-1.70634 0.677516-2.08273 0.602236-2.49677 0.602236-2.9359 0.602236-3.37503 0.677516-3.78907 0.840622-4.16547 0.991181-4.54187 1.20447-4.86808 1.4805-5.1441 1.75652-5.42013 2.08273-5.63342 2.47168-5.79653 2.84808-5.94708 3.26211-6.02236 3.71379-6.02236 4.17801-6.02236 4.59205-5.94708 4.981-5.79653 5.35739-5.63342 5.68361-5.42013 5.95963-5.1441 6.23566-4.86808 6.44895-4.54187 6.61205-4.16547 6.76261-3.78907 6.83789-3.37503 6.83789-2.9359Z" transform="matrix(1.01264 0 0 1 654.192 387.211)"/><path d="M1.69379-5.8718C1.70634-5.7087 1.71888-5.55814 1.73143-5.40758 1.73143-5.24447 1.73143-5.09392 1.73143-4.93081L1.75652-4.93081C1.84435-5.09392 1.96981-5.23193 2.10783-5.36994 2.24584-5.50795 2.40895-5.62087 2.5846-5.72125 2.76025-5.80907 2.94845-5.88435 3.14919-5.94708 3.33739-5.99727 3.53814-6.02236 3.72634-6.02236 4.47913-6.02236 5.03118-5.82162 5.39503-5.43267 5.75888-5.03118 5.93454-4.46659 5.93454-3.72634L5.93454 0 5.10646 0 5.10646-3.24957C5.10646-3.90199 4.99354-4.40385 4.7677-4.75516 4.54187-5.09392 4.12783-5.26957 3.51305-5.26957 3.47541-5.26957 3.34994-5.25702 3.16174-5.21938 2.97354-5.18174 2.7728-5.09392 2.5595-4.94336 2.34621-4.7928 2.14547-4.56696 1.98236-4.26584 1.81926-3.96472 1.73143-3.55069 1.73143-3.01118L1.73143 0 0.903355 0 0.903355-4.57951C0.903355-4.74261 0.903355-4.94336 0.890808-5.18174 0.878261-5.42013 0.853168-5.65851 0.840622-5.8718L1.69379-5.8718Z" transform="matrix(1.01264 0 0 1 661.726 387.211)"/><path d="M5.47031-3.38758C5.47031-3.95218 5.30721-4.40385 4.96845-4.75516 4.62969-5.09392 4.16547-5.26957 3.56323-5.26957 3.29975-5.26957 3.03627-5.21938 2.78534-5.11901 2.53441-5.00609 2.32112-4.86808 2.13292-4.69243 1.94472-4.51677 1.78162-4.31603 1.68124-4.09019 1.56832-3.86435 1.50559-3.62596 1.50559-3.38758L5.47031-3.38758ZM1.4805-2.71006C1.50559-2.42149 1.58087-2.14547 1.69379-1.88199 1.80671-1.61851 1.96981-1.40522 2.15801-1.21702 2.34621-1.02882 2.57205-0.878261 2.82298-0.765342 3.07391-0.652423 3.34994-0.602236 3.63851-0.602236 4.07764-0.602236 4.46659-0.702609 4.7928-0.915901 5.10646-1.11665 5.35739-1.35503 5.5205-1.61851L6.16038-1.09155C5.80907-0.652423 5.42013-0.326211 5.00609-0.138012 4.57951 0.0501864 4.12783 0.150559 3.63851 0.150559 3.19938 0.150559 2.79789 0.0752795 2.43404-0.0878261 2.05764-0.238385 1.73143-0.451677 1.46795-0.727702 1.20447-1.00373 0.991181-1.32994 0.840622-1.70634 0.677516-2.08273 0.602236-2.49677 0.602236-2.9359 0.602236-3.37503 0.677516-3.78907 0.828075-4.16547 0.978634-4.54187 1.19193-4.86808 1.4554-5.1441 1.71888-5.42013 2.03255-5.63342 2.3964-5.79653 2.76025-5.94708 3.14919-6.02236 3.56323-6.02236 4.00236-6.02236 4.40385-5.94708 4.75516-5.78398 5.10646-5.62087 5.40758-5.42013 5.64597-5.15665 5.8718-4.89317 6.06-4.57951 6.18547-4.2282 6.31094-3.86435 6.37367-3.48795 6.37367-3.08646L6.37367-2.71006 1.4805-2.71006Z" transform="matrix(1.01264 0 0 1 668.789 387.211)"/><path d="M1.09155-9.48522 1.91963-9.48522 1.91963 2.21359e-07 1.09155 2.21359e-07Z" transform="matrix(1.01264 0 0 1 544.353 399.758)"/><path d="M5.93454-2.9359C5.93454-3.26211 5.88435-3.56323 5.78398-3.8518 5.67106-4.14038 5.5205-4.37876 5.3323-4.59205 5.1441-4.80534 4.90572-4.96845 4.64224-5.09392 4.36621-5.20684 4.05255-5.26957 3.71379-5.26957 3.37503-5.26957 3.06137-5.20684 2.79789-5.09392 2.52186-4.96845 2.29603-4.80534 2.10783-4.59205 1.91963-4.37876 1.76907-4.14038 1.6687-3.8518 1.55578-3.56323 1.50559-3.26211 1.50559-2.9359 1.50559-2.60969 1.55578-2.30857 1.6687-2.02 1.76907-1.73143 1.91963-1.49304 2.10783-1.27975 2.29603-1.06646 2.52186-0.903355 2.79789-0.790435 3.06137-0.664969 3.37503-0.602236 3.71379-0.602236 4.05255-0.602236 4.36621-0.664969 4.64224-0.790435 4.90572-0.903355 5.1441-1.06646 5.3323-1.27975 5.5205-1.49304 5.67106-1.73143 5.78398-2.02 5.88435-2.30857 5.93454-2.60969 5.93454-2.9359ZM6.83789-2.9359C6.83789-2.49677 6.76261-2.08273 6.61205-1.70634 6.44895-1.32994 6.23566-1.00373 5.95963-0.727702 5.68361-0.451677 5.35739-0.238385 4.981-0.0878261 4.59205 0.0752795 4.17801 0.150559 3.71379 0.150559 3.26211 0.150559 2.84808 0.0752795 2.47168-0.0878261 2.08273-0.238385 1.75652-0.451677 1.4805-0.727702 1.20447-1.00373 0.991181-1.32994 0.840622-1.70634 0.677516-2.08273 0.602236-2.49677 0.602236-2.9359 0.602236-3.37503 0.677516-3.78907 0.840622-4.16547 0.991181-4.54187 1.20447-4.86808 1.4805-5.1441 1.75652-5.42013 2.08273-5.63342 2.47168-5.79653 2.84808-5.94708 3.26211-6.02236 3.71379-6.02236 4.17801-6.02236 4.59205-5.94708 4.981-5.79653 5.35739-5.63342 5.68361-5.42013 5.95963-5.1441 6.23566-4.86808 6.44895-4.54187 6.61205-4.16547 6.76261-3.78907 6.83789-3.37503 6.83789-2.9359Z" transform="matrix(1.01264 0 0 1 547.402 399.758)"/><path d="M5.18174-4.49168C5.04373-4.70497 4.84298-4.89317 4.59205-5.04373 4.32857-5.19429 4.04-5.26957 3.71379-5.26957 3.37503-5.28211 3.06137-5.21938 2.79789-5.10646 2.52186-4.99354 2.28348-4.83044 2.09528-4.61715 1.90708-4.40385 1.75652-4.16547 1.65615-3.8769 1.55578-3.58833 1.50559-3.27466 1.50559-2.9359 1.50559-2.59714 1.55578-2.29603 1.65615-2.00745 1.75652-1.70634 1.90708-1.46795 2.09528-1.25466 2.28348-1.04137 2.52186-0.878261 2.79789-0.765342 3.06137-0.652423 3.37503-0.58969 3.71379-0.602236 4.04-0.602236 4.32857-0.677516 4.59205-0.828075 4.84298-0.978634 5.04373-1.16683 5.18174-1.38012L5.85926-0.865715C5.57069-0.526957 5.23193-0.276025 4.86808-0.112919 4.50423 0.0627329 4.11528 0.138012 3.71379 0.150559 3.23702 0.163106 2.81044 0.0878261 2.42149-0.0752795 2.03255-0.225839 1.70634-0.439131 1.44286-0.715156 1.16683-0.991181 0.953541-1.31739 0.815528-1.70634 0.677516-2.08273 0.602236-2.49677 0.602236-2.9359 0.602236-3.37503 0.677516-3.78907 0.815528-4.17801 0.953541-4.55441 1.16683-4.88062 1.44286-5.15665 1.70634-5.43267 2.03255-5.64597 2.42149-5.80907 2.81044-5.95963 3.23702-6.03491 3.71379-6.02236 4.11528-6.00982 4.50423-5.92199 4.86808-5.77143 5.23193-5.60833 5.57069-5.34485 5.85926-5.00609L5.18174-4.49168Z" transform="matrix(1.01264 0 0 1 554.936 399.758)"/><path d="M4.24075-2.92336C4.02746-2.92336 3.77652-2.91081 3.46286-2.89826 3.14919-2.87317 2.84808-2.82298 2.5595-2.7477 2.27093-2.65988 2.02-2.53441 1.81926-2.37131 1.60596-2.2082 1.50559-1.96981 1.50559-1.68124 1.50559-1.49304 1.54323-1.32994 1.63106-1.19193 1.70634-1.05391 1.80671-0.940994 1.94472-0.853168 2.08273-0.765342 2.23329-0.702609 2.3964-0.664969 2.5595-0.614783 2.72261-0.602236 2.88572-0.602236 3.18683-0.602236 3.45031-0.652423 3.67615-0.752795 3.88944-0.853168 4.07764-0.991181 4.2282-1.16683 4.37876-1.32994 4.49168-1.53068 4.56696-1.76907 4.62969-1.99491 4.66733-2.23329 4.66733-2.49677L4.66733-2.92336 4.24075-2.92336ZM4.66733-3.60087 4.66733-3.75143C4.66733-4.7677 4.16547-5.26957 3.16174-5.26957 2.47168-5.26957 1.88199-5.04373 1.36758-4.57951L0.865715-5.1692C1.41776-5.73379 2.24584-6.02236 3.34994-6.02236 3.63851-6.02236 3.91454-5.98472 4.17801-5.8969 4.44149-5.80907 4.66733-5.68361 4.85553-5.5205 5.04373-5.34485 5.20684-5.13156 5.31975-4.86808 5.43267-4.6046 5.49541-4.30348 5.49541-3.93963L5.49541-1.31739C5.49541-1.09155 5.50795-0.853168 5.53305-0.614783 5.54559-0.363851 5.57069-0.163106 5.59578 0L4.7928 0C4.7677-0.138012 4.75516-0.301118 4.74261-0.464224 4.73006-0.62733 4.71752-0.790435 4.71752-0.953541L4.69243-0.953541C4.45404-0.564597 4.16547-0.276025 3.83926-0.112919 3.5005 0.0627329 3.09901 0.150559 2.62224 0.150559 2.35876 0.150559 2.10783 0.112919 1.86944 0.0501864 1.63106-0.0250932 1.41776-0.138012 1.22957-0.288572 1.04137-0.426584 0.878261-0.614783 0.777889-0.828075 0.664969-1.04137 0.602236-1.27975 0.602236-1.56832 0.602236-2.04509 0.727702-2.42149 0.978634-2.69752 1.21702-2.961 1.53068-3.16174 1.90708-3.29975 2.27093-3.43777 2.67242-3.51305 3.09901-3.55069 3.51305-3.58833 3.90199-3.60087 4.25329-3.60087L4.66733-3.60087Z" transform="matrix(1.01264 0 0 1 561.06 399.758)"/><path d="M3.93963-5.11901 2.24584-5.11901 2.24584-1.65615C2.24584-1.44286 2.27093-1.25466 2.30857-1.12919 2.34621-0.991181 2.40895-0.878261 2.48423-0.802982 2.5595-0.727702 2.64733-0.677516 2.76025-0.652423 2.86062-0.614783 2.97354-0.602236 3.09901-0.602236 3.23702-0.602236 3.38758-0.62733 3.53814-0.664969 3.6887-0.702609 3.82671-0.765342 3.95218-0.828075L3.98982-0.0627329C3.67615 0.0752795 3.3123 0.150559 2.87317 0.150559 2.71006 0.150559 2.54696 0.125466 2.38385 0.0878261 2.2082 0.0501864 2.04509-0.0376398 1.90708-0.150559 1.76907-0.263478 1.6436-0.426584 1.55578-0.62733 1.46795-0.828075 1.41776-1.09155 1.41776-1.41776L1.41776-5.11901 0.175652-5.11901 0.175652-5.8718 1.41776-5.8718 1.41776-7.52795 2.24584-7.52795 2.24584-5.8718 3.93963-5.8718 3.93963-5.11901Z" transform="matrix(1.01264 0 0 1 567.654 399.758)"/><path d="M2.10783-8.13019C2.10783-7.95454 2.04509-7.81653 1.91963-7.70361 1.79416-7.57814 1.65615-7.52795 1.50559-7.52795 1.35503-7.52795 1.21702-7.57814 1.09155-7.70361 0.966087-7.81653 0.903355-7.95454 0.903355-8.13019 0.903355-8.30584 0.966087-8.4564 1.09155-8.56932 1.21702-8.68224 1.35503-8.73243 1.50559-8.73243 1.65615-8.73243 1.79416-8.68224 1.91963-8.56932 2.04509-8.4564 2.10783-8.30584 2.10783-8.13019ZM1.91963 0 1.09155 0 1.09155-5.8718 1.91963-5.8718 1.91963 0Z" transform="matrix(1.01264 0 0 1 571.873 399.758)"/><path d="M5.93454-2.9359C5.93454-3.26211 5.88435-3.56323 5.78398-3.8518 5.67106-4.14038 5.5205-4.37876 5.3323-4.59205 5.1441-4.80534 4.90572-4.96845 4.64224-5.09392 4.36621-5.20684 4.05255-5.26957 3.71379-5.26957 3.37503-5.26957 3.06137-5.20684 2.79789-5.09392 2.52186-4.96845 2.29603-4.80534 2.10783-4.59205 1.91963-4.37876 1.76907-4.14038 1.6687-3.8518 1.55578-3.56323 1.50559-3.26211 1.50559-2.9359 1.50559-2.60969 1.55578-2.30857 1.6687-2.02 1.76907-1.73143 1.91963-1.49304 2.10783-1.27975 2.29603-1.06646 2.52186-0.903355 2.79789-0.790435 3.06137-0.664969 3.37503-0.602236 3.71379-0.602236 4.05255-0.602236 4.36621-0.664969 4.64224-0.790435 4.90572-0.903355 5.1441-1.06646 5.3323-1.27975 5.5205-1.49304 5.67106-1.73143 5.78398-2.02 5.88435-2.30857 5.93454-2.60969 5.93454-2.9359ZM6.83789-2.9359C6.83789-2.49677 6.76261-2.08273 6.61205-1.70634 6.44895-1.32994 6.23566-1.00373 5.95963-0.727702 5.68361-0.451677 5.35739-0.238385 4.981-0.0878261 4.59205 0.0752795 4.17801 0.150559 3.71379 0.150559 3.26211 0.150559 2.84808 0.0752795 2.47168-0.0878261 2.08273-0.238385 1.75652-0.451677 1.4805-0.727702 1.20447-1.00373 0.991181-1.32994 0.840622-1.70634 0.677516-2.08273 0.602236-2.49677 0.602236-2.9359 0.602236-3.37503 0.677516-3.78907 0.840622-4.16547 0.991181-4.54187 1.20447-4.86808 1.4805-5.1441 1.75652-5.42013 2.08273-5.63342 2.47168-5.79653 2.84808-5.94708 3.26211-6.02236 3.71379-6.02236 4.17801-6.02236 4.59205-5.94708 4.981-5.79653 5.35739-5.63342 5.68361-5.42013 5.95963-5.1441 6.23566-4.86808 6.44895-4.54187 6.61205-4.16547 6.76261-3.78907 6.83789-3.37503 6.83789-2.9359Z" transform="matrix(1.01264 0 0 1 574.922 399.758)"/><path d="M1.69379-5.8718C1.70634-5.7087 1.71888-5.55814 1.73143-5.40758 1.73143-5.24447 1.73143-5.09392 1.73143-4.93081L1.75652-4.93081C1.84435-5.09392 1.96981-5.23193 2.10783-5.36994 2.24584-5.50795 2.40895-5.62087 2.5846-5.72125 2.76025-5.80907 2.94845-5.88435 3.14919-5.94708 3.33739-5.99727 3.53814-6.02236 3.72634-6.02236 4.47913-6.02236 5.03118-5.82162 5.39503-5.43267 5.75888-5.03118 5.93454-4.46659 5.93454-3.72634L5.93454 0 5.10646 0 5.10646-3.24957C5.10646-3.90199 4.99354-4.40385 4.7677-4.75516 4.54187-5.09392 4.12783-5.26957 3.51305-5.26957 3.47541-5.26957 3.34994-5.25702 3.16174-5.21938 2.97354-5.18174 2.7728-5.09392 2.5595-4.94336 2.34621-4.7928 2.14547-4.56696 1.98236-4.26584 1.81926-3.96472 1.73143-3.55069 1.73143-3.01118L1.73143 0 0.903355 0 0.903355-4.57951C0.903355-4.74261 0.903355-4.94336 0.890808-5.18174 0.878261-5.42013 0.853168-5.65851 0.840622-5.8718L1.69379-5.8718Z" transform="matrix(1.01264 0 0 1 582.456 399.758)"/></g></svg>