<svg width="278" height="243" xmlns="http://www.w3.org/2000/svg" xmlns:xlink="http://www.w3.org/1999/xlink" xml:space="preserve" overflow="hidden"><g transform="translate(-473 -406)"><path d="M175.265 245.146 175.265 86.3153" stroke="#000000" stroke-width="2.90664" stroke-linecap="round" stroke-linejoin="round" stroke-miterlimit="1.5" fill="none" fill-rule="evenodd" transform="matrix(1.00183 0 0 1 357.446 367.484)"/><path d="M175.265 86.3153 167.882 93.699" stroke="#000000" stroke-width="2.90664" stroke-linecap="round" stroke-linejoin="round" stroke-miterlimit="1.5" fill="none" fill-rule="evenodd" transform="matrix(1.00183 0 0 1 357.446 367.484)"/><path d="M175.265 86.3153 182.874 93.924" stroke="#000000" stroke-width="2.90664" stroke-linecap="round" stroke-linejoin="round" stroke-miterlimit="1.5" fill="none" fill-rule="evenodd" transform="matrix(1.00183 0 0 1 357.446 367.484)"/><path d="M156.031 212.089 366.407 212.089" stroke="#000000" stroke-width="2.90664" stroke-linecap="round" stroke-linejoin="round" stroke-miterlimit="1.5" fill="none" fill-rule="evenodd" transform="matrix(1.00183 0 0 1 357.446 367.484)"/><path d="M366.407 212.089 359.503 205.186" stroke="#000000" stroke-width="2.90664" stroke-linecap="round" stroke-linejoin="round" stroke-miterlimit="1.5" fill="none" fill-rule="evenodd" transform="matrix(1.00183 0 0 1 357.446 367.484)"/><path d="M366.407 212.089 359.184 219.312" stroke="#000000" stroke-width="2.90664" stroke-linecap="round" stroke-linejoin="round" stroke-miterlimit="1.5" fill="none" fill-rule="evenodd" transform="matrix(1.00183 0 0 1 357.446 367.484)"/><path d="M5.8986-11.7972C5.8986-10.5683 6.14438-9.43776 6.58677-8.40551 6.98001-7.3241 7.61903-6.39015 8.40551-5.60367 9.14283-4.76804 10.0768-4.12902 11.109-3.68663 12.1413-3.19508 13.2227-2.9493 14.4516-2.9493 15.6313-2.9493 16.7619-3.14592 17.8433-3.58832 18.8755-4.03071 19.8095-4.62057 20.6451-5.40705 21.4807-6.14438 22.1198-7.07832 22.5621-8.15973 23.0045-9.24114 23.2012-10.47 23.152-11.7972 23.152-13.0261 22.9554-14.1566 22.5621-15.2381 22.1689-16.2703 21.579-17.2043 20.8417-18.0399 20.1044-18.8264 19.1705-19.4654 18.089-19.9569 17.0076-20.3993 15.7788-20.6451 14.4516-20.6451 13.2227-20.6451 12.1413-20.3993 11.109-19.9569 10.0768-19.4654 9.14283-18.8264 8.40551-18.0399 7.61903-17.2043 6.98001-16.2703 6.58677-15.2381 6.14438-14.1566 5.8986-13.0261 5.8986-11.7972ZM5.30874 4.62057C6.24269 5.8986 7.52072 6.93086 9.04452 7.71734 10.5683 8.45466 12.2396 8.8479 14.1075 8.8479 15.7296 8.8479 17.1551 8.60213 18.2857 8.15973 19.4162 7.66818 20.3502 7.02917 21.0875 6.19353 21.7757 5.3579 22.2672 4.42395 22.6113 3.34254 22.9062 2.21198 23.0537 1.03226 23.0537-0.19662L23.0537-4.32564 22.9554-4.32564C21.9231-2.75268 20.6451-1.62212 19.1213-0.9831 17.5975-0.344085 16.0245 0 14.3533 0 12.682 0 11.109-0.29493 9.68354-0.88479 8.20889-1.47465 6.93086-2.31029 5.84945-3.34254 4.76804-4.3748 3.9324-5.60367 3.29339-7.02917 2.65437-8.45466 2.35944-10.0276 2.35944-11.6989 2.35944-13.3702 2.65437-14.9431 3.24423-16.3686 3.83409-17.7941 4.66973-19.0721 5.70198-20.1536 6.68508-21.235 7.96311-22.0706 9.38861-22.7096 10.8141-23.2995 12.3379-23.5944 14.0583-23.5944 14.7465-23.5944 15.4838-23.5452 16.2703-23.3978 17.0076-23.2503 17.7941-23.0537 18.5806-22.7096 19.3179-22.3655 20.1044-21.9231 20.8417-21.3824 21.579-20.7926 22.3164-20.0552 22.9554-19.1705L23.0537-19.1705 23.0537-23.0045 26.2979-23.0045 26.2979-0.19662C26.2979 1.03226 26.1505 2.35944 25.8555 3.78494 25.5114 5.21043 24.9216 6.48846 24.0368 7.66818 23.1029 8.8479 21.874 9.831 20.2519 10.6175 18.6297 11.404 16.5652 11.7972 13.96 11.7972 11.6497 11.7972 9.63438 11.404 7.81565 10.6666 5.99691 9.92931 4.3748 8.74959 2.90015 7.17663L5.30874 4.62057Z" transform="matrix(1.00183 0 0 1 494.236 447.184)"/><path d="M15.9754-22.1198 11.6989-22.1198C10.7158-22.1198 9.88016-22.0214 9.24114-21.8248 8.60213-21.579 8.06142-21.2841 7.61903-20.8909 6.83255-20.1044 6.43931-19.1705 6.43931-18.089 6.48846-16.6144 7.07832-15.5821 8.25804-15.0414 9.38861-14.4516 10.6666-14.1566 12.1413-14.1566L14.9431-14.1566 14.9431-11.6497 10.0768-11.6497C9.53607-11.6497 9.04452-11.6006 8.45466-11.4531 7.8648-11.2565 7.37325-11.0107 6.83255-10.6666 6.34099-10.3225 5.8986-9.88016 5.60367-9.2903 5.25959-8.74959 5.06297-8.01227 5.06297-7.17663 5.06297-5.3579 5.70198-4.17818 6.93086-3.58832 8.06142-2.99846 9.53607-2.70353 11.4531-2.75268 12.3379-2.75268 13.1244-2.70353 13.8126-2.65437 14.5007-2.60522 15.0906-2.4086 15.533-2.21198 16.0245-1.9662 16.4178-1.57296 16.7127-1.08141 16.9585-0.540705 17.0568 0.19662 17.0568 1.08141 17.0568 1.9662 16.9093 2.90015 16.6635 3.9324 16.3686 4.9155 16.0245 5.8986 15.6313 6.83255L12.8295 6.83255C13.2227 5.94776 13.5668 5.06297 13.9109 4.12902 14.2058 3.24423 14.3533 2.35944 14.3533 1.57296 14.3533 0.835635 14.1075 0.39324 13.5668 0.19662 13.0261 0.049155 11.8955 0 10.2734 0 7.52072 0 5.40705-0.68817 4.03071-1.9662 2.60522-3.19508 1.91705-4.81719 1.91705-6.78339 1.9662-10.4209 3.83409-12.5345 7.52072-13.0752L7.52072-13.1735C6.34099-13.4685 5.3579-13.96 4.57142-14.599 3.73578-15.2872 3.34254-16.2703 3.29339-17.5483 3.29339-18.5314 3.58832-19.4162 4.17818-20.2027 4.71888-20.94 5.3579-21.579 6.14438-22.0706L6.14438-22.1198 2.60522-22.1198 2.60522-24.6267 15.9754-24.6267 15.9754-22.1198Z" transform="matrix(1.00183 0 0 1 733.774 605.322)"/><path d="M134.95 249.375C243.56 251.316 348.034 160.663 380.546 77.4546" stroke="#3942D3" stroke-width="2.90664" stroke-linecap="round" stroke-linejoin="round" stroke-miterlimit="1.5" fill="none" fill-rule="evenodd" transform="matrix(1.00183 0 0 1 351.665 349.915)"/><path d="M342.638 117.452C342.638 118.394 341.874 119.159 340.931 119.159 339.989 119.159 339.225 118.394 339.225 117.452 339.225 116.509 339.989 115.745 340.931 115.745 341.874 115.745 342.638 116.509 342.638 117.452Z" stroke="#D34739" stroke-width="2.90664" stroke-linecap="round" stroke-linejoin="round" stroke-miterlimit="1.5" fill="#CF3518" fill-rule="evenodd" transform="matrix(1.00183 0 0 1 357.597 367.676)"/><path d="M341.039 117.329 341.039 211.999" stroke="#D34739" stroke-width="2.90664" stroke-linecap="round" stroke-linejoin="round" stroke-miterlimit="1.5" stroke-dasharray="7.26573 7.26573 0 0" fill="none" fill-rule="evenodd" transform="matrix(1.00183 0 0 1 357.446 367.484)"/><path d="M341.039 117.329 341.039 211.999" stroke="#D34739" stroke-width="2.04522" stroke-linecap="round" stroke-linejoin="round" stroke-miterlimit="1.5" stroke-dasharray="5.11305 5.11305 0 0" fill="none" fill-rule="evenodd" transform="matrix(1.06942e-16 1 -1.74648 6.12323e-17 904.225 143.789)"/><path d="M12.3172-17.0546 9.01997-17.0546C8.26199-17.0546 7.6177-16.9788 7.12502-16.8272 6.63233-16.6377 6.21544-16.4103 5.87435-16.1071 5.26796-15.5007 4.96477-14.7806 4.96477-13.9468 5.00267-12.8099 5.45746-12.014 6.36704-11.5971 7.23871-11.1423 8.22409-10.9149 9.36106-10.9149L11.5213-10.9149 11.5213-8.98207 7.7693-8.98207C7.35241-8.98207 6.97342-8.94417 6.51863-8.83047 6.06384-8.67888 5.68485-8.48938 5.26796-8.22409 4.88897-7.9588 4.54788-7.6177 4.32049-7.16292 4.0552-6.74603 3.9036-6.17754 3.9036-5.53326 3.9036-4.13099 4.39629-3.22142 5.34376-2.76663 6.21544-2.31184 7.35241-2.08445 8.83047-2.12235 9.51265-2.12235 10.119-2.08445 10.6496-2.04655 11.1802-2.00865 11.635-1.85705 11.9761-1.70546 12.3551-1.51596 12.6583-1.21277 12.8857-0.833779 13.0752-0.416889 13.151 0.151596 13.151 0.833779 13.151 1.51596 13.0373 2.23604 12.8478 3.03192 12.6204 3.7899 12.3551 4.54788 12.0519 5.26796L9.89165 5.26796C10.1948 4.58578 10.4601 3.9036 10.7254 3.18352 10.9528 2.50134 11.0665 1.81915 11.0665 1.21277 11.0665 0.644283 10.877 0.303192 10.4601 0.151596 10.0432 0.037899 9.17156 0 7.9209 0 5.79855 0 4.16889-0.530586 3.10772-1.51596 2.00865-2.46344 1.47806-3.7141 1.47806-5.23007 1.51596-8.03459 2.95612-9.66425 5.79855-10.0811L5.79855-10.1569C4.88897-10.3843 4.13099-10.7633 3.52461-11.256 2.88033-11.7866 2.57713-12.5446 2.53923-13.53 2.53923-14.2879 2.76663-14.9701 3.22142-15.5765 3.63831-16.145 4.13099-16.6377 4.73738-17.0167L4.73738-17.0546 2.00865-17.0546 2.00865-18.9874 12.3172-18.9874 12.3172-17.0546Z" fill="#D34739" transform="matrix(1.00183 0 0 1 684.249 605.297)"/><path d="M2.40261-4.47443 6.25027-8.14798 7.97388-8.14798 3.9173-4.4222 8.40914 0 6.63329 0 2.40261-4.28291 2.40261 0 1.25354 0 1.25354-13.1621 2.40261-13.1621 2.40261-4.47443Z" fill="#D34739" transform="matrix(1.00183 0 0 1 704.214 614.064)"/><path d="M668.212 485.263 664.899 485.263C664.15 485.263 663.525 485.344 663.031 485.505 662.512 485.68 662.095 485.914 661.773 486.21 661.155 486.824 660.855 487.552 660.866 488.393 660.892 489.516 661.353 490.298 662.256 490.744 663.13 491.197 664.128 491.42 665.254 491.409L667.4 491.409 667.4 493.333 663.642 493.333C663.261 493.333 662.844 493.388 662.402 493.501 661.971 493.636 661.557 493.834 661.163 494.093 660.768 494.364 660.446 494.715 660.201 495.146 659.93 495.592 659.792 496.133 659.792 496.777 659.806 498.181 660.281 499.106 661.217 499.552 662.095 500.02 663.261 500.243 664.716 500.217 665.408 500.217 666.018 500.236 666.548 500.272 667.064 500.334 667.51 500.451 667.879 500.623 668.263 500.81 668.567 501.099 668.786 501.493 668.958 501.914 669.045 502.47 669.045 503.161 669.02 503.837 668.918 504.565 668.731 505.344 668.508 506.108 668.245 506.861 667.934 507.599L665.788 507.599C666.084 506.923 666.358 506.232 666.603 505.53 666.837 504.824 666.954 504.159 666.954 503.53 666.965 502.985 666.768 502.642 666.362 502.495 665.919 502.371 665.075 502.316 663.828 502.327 661.667 502.316 660.058 501.808 658.998 500.81 657.912 499.848 657.367 498.612 657.367 497.11 657.419 494.294 658.863 492.675 661.7 492.243L661.7 492.185C660.786 491.951 660.022 491.574 659.404 491.059 658.786 490.55 658.468 489.801 658.442 488.799 658.442 488.046 658.669 487.369 659.126 486.766 659.521 486.185 660.022 485.702 660.625 485.322L660.625 485.263 657.887 485.263 657.887 483.322 668.212 483.322 668.212 485.263Z" stroke="#55B458" stroke-width="0.171845" stroke-linejoin="round" stroke-miterlimit="2" fill="#55B458" transform="matrix(1.00183 0 0 1 -36.714 102.97)"/><path d="M832.716 617.571 836.562 613.898 838.289 613.898 834.23 617.624 838.722 622.046 836.948 622.046 832.716 617.761 832.716 622.046 831.566 622.046 831.566 608.883 832.716 608.883 832.716 617.571Z" stroke="#55B458" stroke-width="0.172608" stroke-linejoin="round" stroke-miterlimit="2" fill="#55B458" transform="matrix(1.00183 0 0 1 -191.491 -7.98187)"/><path d="M845.025 616.248 848.942 616.248 848.942 617.292 845.025 617.292 845.025 621.209 843.98 621.209 843.98 617.292 840.063 617.292 840.063 616.248 843.98 616.248 843.98 612.331 845.025 612.331 845.025 616.248Z" stroke="#55B458" stroke-width="0.172608" stroke-linejoin="round" stroke-miterlimit="2" fill="#55B458" transform="matrix(1.00183 0 0 1 -191.491 -7.98187)"/><path d="M856.359 622.046 855.107 622.046 855.107 611.286 852.894 613.234 852.111 612.295 855.244 609.72 856.359 609.72 856.359 622.046Z" stroke="#55B458" stroke-width="0.172608" stroke-linejoin="round" stroke-miterlimit="2" fill="#55B458" transform="matrix(1.00183 0 0 1 -191.491 -7.98187)"/><path d="M364.691 87.698 231.878 258.405" stroke="#B455A4" stroke-width="2.90664" stroke-linecap="round" stroke-linejoin="round" stroke-miterlimit="1.5" fill="none" fill-rule="evenodd" transform="matrix(1.00183 0 0 1 357.446 367.484)"/><path d="M271.789 211.537C271.789 213.166 270.468 214.486 268.839 214.486 267.21 214.486 265.889 213.166 265.889 211.537 265.889 209.907 267.21 208.587 268.839 208.587 270.468 208.587 271.789 209.907 271.789 211.537Z" stroke="#55B458" stroke-width="2.90664" stroke-linecap="round" stroke-linejoin="round" stroke-miterlimit="1.5" fill="#55B458" fill-rule="evenodd" transform="matrix(1.00183 0 0 1 356.845 368.265)"/><path d="M271.789 211.537C271.789 213.166 270.468 214.486 268.839 214.486 267.21 214.486 265.889 213.166 265.889 211.537 265.889 209.907 267.21 208.587 268.839 208.587 270.468 208.587 271.789 209.907 271.789 211.537Z" stroke="#55B458" stroke-width="2.90664" stroke-linecap="round" stroke-linejoin="round" stroke-miterlimit="1.5" fill="#55B458" fill-rule="evenodd" transform="matrix(1.00183 0 0 1 356.845 368.265)"/><path d="M271.789 211.537C271.789 213.166 270.468 214.486 268.839 214.486 267.21 214.486 265.889 213.166 265.889 211.537 265.889 209.907 267.21 208.587 268.839 208.587 270.468 208.587 271.789 209.907 271.789 211.537Z" stroke="#D34739" stroke-width="2.90664" stroke-linecap="round" stroke-linejoin="round" stroke-miterlimit="1.5" fill="#D34739" fill-rule="evenodd" transform="matrix(1.00183 0 0 1 429.763 368.265)"/><path d="M271.789 211.537C271.789 213.166 270.468 214.486 268.839 214.486 267.21 214.486 265.889 213.166 265.889 211.537 265.889 209.907 267.21 208.587 268.839 208.587 270.468 208.587 271.789 209.907 271.789 211.537Z" stroke="#D34739" stroke-width="2.90664" stroke-linecap="round" stroke-linejoin="round" stroke-miterlimit="1.5" fill="#D34739" fill-rule="evenodd" transform="matrix(1.00183 0 0 1 263.816 273.395)"/><path d="M104.957 43.5398 105.003 43.5398 105.003 29.7618 106.656 29.7618 106.656 46.0199 104.589 46.0199 94.8986 32.104 94.8527 32.104 94.8527 46.0199 93.1993 46.0199 93.1993 29.7618 95.266 29.7618 104.957 43.5398Z" stroke="#000000" stroke-width="0.17376" stroke-linejoin="round" stroke-miterlimit="2" transform="matrix(1.00183 0 0 1 450.654 376.325)"/><path d="M118.872 39.8197C118.872 38.794 118.566 37.9635 117.954 37.3282 117.342 36.6929 116.484 36.3752 115.382 36.3752 114.892 36.3752 114.418 36.4709 113.958 36.6623 113.499 36.8537 113.097 37.1101 112.753 37.4315 112.408 37.753 112.133 38.1205 111.926 38.5337 111.719 38.9471 111.616 39.3758 111.616 39.8197L118.872 39.8197ZM111.57 41.0597C111.616 41.5956 111.746 42.1008 111.96 42.5753 112.175 43.05 112.458 43.4595 112.81 43.8038 113.162 44.1483 113.568 44.4201 114.027 44.6191 114.486 44.8181 114.984 44.9177 115.52 44.9177 116.331 44.9177 117.032 44.7301 117.621 44.3551 118.21 43.98 118.658 43.5474 118.964 43.0576L120.135 44.0221C119.492 44.8334 118.784 45.4151 118.012 45.7672 117.238 46.1193 116.408 46.2954 115.52 46.2954 114.724 46.2954 113.985 46.1538 113.304 45.8707 112.623 45.5874 112.037 45.1932 111.547 44.688 111.057 44.1828 110.671 43.5857 110.387 42.8969 110.104 42.208 109.963 41.4578 109.963 40.6465 109.963 39.8351 110.1 39.085 110.376 38.396 110.652 37.7071 111.034 37.1101 111.524 36.6049 112.014 36.0997 112.588 35.7054 113.246 35.4223 113.905 35.1391 114.617 34.9974 115.382 34.9974 116.193 34.9974 116.921 35.1428 117.563 35.4338 118.206 35.7246 118.747 36.1112 119.182 36.5934 119.619 37.0756 119.952 37.642 120.181 38.2927 120.411 38.9432 120.526 39.6361 120.526 40.3709L120.526 41.0597 111.57 41.0597Z" stroke="#000000" stroke-width="0.17376" stroke-linejoin="round" stroke-miterlimit="2" transform="matrix(1.00183 0 0 1 450.654 376.325)"/><path d="M123.741 35.2729 126.221 43.9991 126.266 43.9991 129.137 35.2729 130.698 35.2729 133.569 43.9991 133.615 43.9991 136.094 35.2729 137.886 35.2729 134.487 46.0199 132.788 46.0199 129.941 37.2019 129.895 37.2019 127.047 46.0199 125.348 46.0199 121.949 35.2729 123.741 35.2729Z" stroke="#000000" stroke-width="0.17376" stroke-linejoin="round" stroke-miterlimit="2" transform="matrix(1.00183 0 0 1 450.654 376.325)"/><path d="M145.419 36.6508 142.318 36.6508 142.318 42.9887C142.318 43.3867 142.357 43.712 142.433 43.9647 142.509 44.2172 142.616 44.4125 142.755 44.5502 142.892 44.688 143.057 44.7837 143.248 44.8373 143.439 44.8908 143.651 44.9177 143.88 44.9177 144.14 44.9177 144.408 44.8794 144.684 44.8029 144.959 44.7263 145.212 44.6267 145.441 44.5043L145.51 45.9051C144.943 46.1653 144.262 46.2954 143.466 46.2954 143.175 46.2954 142.873 46.2572 142.559 46.1806 142.245 46.1041 141.959 45.9586 141.698 45.7443 141.438 45.5299 141.224 45.2391 141.055 44.8717 140.887 44.5043 140.802 44.0221 140.802 43.425L140.802 36.6508 138.529 36.6508 138.529 35.2729 140.802 35.2729 140.802 32.2418 142.318 32.2418 142.318 35.2729 145.419 35.2729 145.419 36.6508Z" stroke="#000000" stroke-width="0.17376" stroke-linejoin="round" stroke-miterlimit="2" transform="matrix(1.00183 0 0 1 450.654 376.325)"/><path d="M156.693 40.6465C156.693 40.0493 156.598 39.4906 156.406 38.9701 156.215 38.4496 155.943 37.998 155.591 37.6153 155.239 37.2325 154.814 36.9302 154.317 36.7082 153.819 36.4862 153.257 36.3752 152.629 36.3752 152.001 36.3752 151.438 36.4862 150.94 36.7082 150.444 36.9302 150.022 37.2325 149.678 37.6153 149.333 37.998 149.065 38.4496 148.874 38.9701 148.683 39.4906 148.588 40.0493 148.588 40.6465 148.588 41.2435 148.683 41.8022 148.874 42.3228 149.065 42.8432 149.333 43.2949 149.678 43.6776 150.022 44.0604 150.444 44.3627 150.94 44.5847 151.438 44.8066 152.001 44.9177 152.629 44.9177 153.257 44.9177 153.819 44.8066 154.317 44.5847 154.814 44.3627 155.239 44.0604 155.591 43.6776 155.943 43.2949 156.215 42.8432 156.406 42.3228 156.598 41.8022 156.693 41.2435 156.693 40.6465ZM158.346 40.6465C158.346 41.4578 158.205 42.208 157.921 42.8969 157.638 43.5857 157.244 44.1828 156.739 44.688 156.234 45.1932 155.633 45.5874 154.937 45.8707 154.241 46.1538 153.47 46.2954 152.629 46.2954 151.802 46.2954 151.04 46.1538 150.344 45.8707 149.648 45.5874 149.047 45.1932 148.542 44.688 148.036 44.1828 147.642 43.5857 147.358 42.8969 147.075 42.208 146.933 41.4578 146.933 40.6465 146.933 39.8351 147.075 39.085 147.358 38.396 147.642 37.7071 148.036 37.1101 148.542 36.6049 149.047 36.0997 149.648 35.7054 150.344 35.4223 151.04 35.1391 151.802 34.9974 152.629 34.9974 153.47 34.9974 154.241 35.1391 154.937 35.4223 155.633 35.7054 156.234 36.0997 156.739 36.6049 157.244 37.1101 157.638 37.7071 157.921 38.396 158.205 39.085 158.346 39.8351 158.346 40.6465Z" stroke="#000000" stroke-width="0.17376" stroke-linejoin="round" stroke-miterlimit="2" transform="matrix(1.00183 0 0 1 450.654 376.325)"/><path d="M162.549 35.2729C162.58 35.5638 162.599 35.8509 162.607 36.1341 162.614 36.4173 162.618 36.7043 162.618 36.9953L162.663 36.9953C162.832 36.7043 163.046 36.4364 163.307 36.1915 163.567 35.9466 163.857 35.7361 164.179 35.56 164.501 35.384 164.841 35.2461 165.202 35.1467 165.561 35.0471 165.917 34.9974 166.269 34.9974 167.647 34.9974 168.665 35.361 169.323 36.0882 169.981 36.8154 170.311 37.8526 170.311 39.1998L170.311 46.0199 168.795 46.0199 168.795 40.0723C168.795 38.8782 168.589 37.9635 168.176 37.3282 167.761 36.6929 166.996 36.3752 165.879 36.3752 165.802 36.3752 165.588 36.4059 165.236 36.467 164.883 36.5283 164.512 36.6967 164.121 36.9722 163.732 37.2478 163.383 37.6612 163.077 38.2123 162.771 38.7634 162.618 39.5289 162.618 40.5086L162.618 46.0199 161.102 46.0199 161.102 37.6382C161.102 37.3474 161.091 36.9799 161.068 36.536 161.044 36.0921 161.018 35.671 160.988 35.2729L162.549 35.2729Z" stroke="#000000" stroke-width="0.17376" stroke-linejoin="round" stroke-miterlimit="2" transform="matrix(1.00183 0 0 1 450.654 376.325)"/><path d="M173.089 39.7509 178.991 39.7509 178.991 41.2665 173.089 41.2665Z" stroke="#000000" stroke-width="0.17376" stroke-linejoin="round" stroke-miterlimit="2" transform="matrix(1.00183 0 0 1 450.654 376.325)"/><path d="M183.721 31.1395C183.721 31.461 183.606 31.7251 183.377 31.9318 183.147 32.1384 182.895 32.2418 182.619 32.2418 182.344 32.2418 182.09 32.1384 181.861 31.9318 181.631 31.7251 181.516 31.461 181.516 31.1395 181.516 30.8181 181.631 30.554 181.861 30.3473 182.09 30.1406 182.344 30.0373 182.619 30.0373 182.895 30.0373 183.147 30.1406 183.377 30.3473 183.606 30.554 183.721 30.8181 183.721 31.1395ZM183.377 46.0199 181.861 46.0199 181.861 35.2729 183.377 35.2729 183.377 46.0199Z" stroke="#000000" stroke-width="0.17376" stroke-linejoin="round" stroke-miterlimit="2" transform="matrix(1.00183 0 0 1 450.654 376.325)"/><path d="M192.585 36.6508 189.485 36.6508 189.485 42.9887C189.485 43.3867 189.523 43.712 189.6 43.9647 189.676 44.2172 189.784 44.4125 189.921 44.5502 190.059 44.688 190.224 44.7837 190.416 44.8373 190.607 44.8908 190.817 44.9177 191.046 44.9177 191.307 44.9177 191.574 44.8794 191.85 44.8029 192.126 44.7263 192.379 44.6267 192.608 44.5043L192.677 45.9051C192.111 46.1653 191.429 46.2954 190.633 46.2954 190.343 46.2954 190.04 46.2572 189.727 46.1806 189.412 46.1041 189.125 45.9586 188.865 45.7443 188.605 45.5299 188.39 45.2391 188.223 44.8717 188.053 44.5043 187.97 44.0221 187.97 43.425L187.97 36.6508 185.696 36.6508 185.696 35.2729 187.97 35.2729 187.97 32.2418 189.485 32.2418 189.485 35.2729 192.585 35.2729 192.585 36.6508Z" stroke="#000000" stroke-width="0.17376" stroke-linejoin="round" stroke-miterlimit="2" transform="matrix(1.00183 0 0 1 450.654 376.325)"/><path d="M203.011 39.8197C203.011 38.794 202.705 37.9635 202.092 37.3282 201.48 36.6929 200.623 36.3752 199.52 36.3752 199.03 36.3752 198.555 36.4709 198.096 36.6623 197.637 36.8537 197.236 37.1101 196.891 37.4315 196.547 37.753 196.271 38.1205 196.064 38.5337 195.857 38.9471 195.754 39.3758 195.754 39.8197L203.011 39.8197ZM195.708 41.0597C195.754 41.5956 195.884 42.1008 196.098 42.5753 196.313 43.05 196.596 43.4595 196.948 43.8038 197.3 44.1483 197.705 44.4201 198.166 44.6191 198.625 44.8181 199.122 44.9177 199.658 44.9177 200.469 44.9177 201.17 44.7301 201.759 44.3551 202.349 43.98 202.796 43.5474 203.103 43.0576L204.273 44.0221C203.631 44.8334 202.923 45.4151 202.149 45.7672 201.377 46.1193 200.545 46.2954 199.658 46.2954 198.862 46.2954 198.123 46.1538 197.442 45.8707 196.76 45.5874 196.176 45.1932 195.685 44.688 195.195 44.1828 194.809 43.5857 194.526 42.8969 194.242 42.208 194.101 41.4578 194.101 40.6465 194.101 39.8351 194.238 39.085 194.514 38.396 194.79 37.7071 195.173 37.1101 195.663 36.6049 196.152 36.0997 196.726 35.7054 197.385 35.4223 198.042 35.1391 198.755 34.9974 199.52 34.9974 200.332 34.9974 201.059 35.1428 201.702 35.4338 202.345 35.7246 202.884 36.1112 203.321 36.5934 203.756 37.0756 204.09 37.642 204.32 38.2927 204.549 38.9432 204.664 39.6361 204.664 40.3709L204.664 41.0597 195.708 41.0597Z" stroke="#000000" stroke-width="0.17376" stroke-linejoin="round" stroke-miterlimit="2" transform="matrix(1.00183 0 0 1 450.654 376.325)"/><path d="M207.58 38.6257C207.58 38.1511 207.569 37.6688 207.546 37.179 207.523 36.6891 207.504 36.0538 207.489 35.2729L208.981 35.2729 208.981 37.2708 209.027 37.2708C209.134 36.9799 209.287 36.7006 209.486 36.4326 209.685 36.1647 209.926 35.9236 210.209 35.7093 210.493 35.4949 210.822 35.3227 211.198 35.1926 211.572 35.0625 211.997 34.9974 212.472 34.9974 212.9 34.9974 213.276 35.0434 213.596 35.1352L213.298 36.6278C213.1 36.5512 212.808 36.513 212.426 36.513 211.843 36.513 211.347 36.624 210.934 36.8459 210.52 37.0679 210.175 37.3511 209.899 37.6956 209.624 38.04 209.421 38.4113 209.291 38.8093 209.161 39.2074 209.096 39.5902 209.096 39.9575L209.096 46.0199 207.58 46.0199 207.58 38.6257Z" stroke="#000000" stroke-width="0.17376" stroke-linejoin="round" stroke-miterlimit="2" transform="matrix(1.00183 0 0 1 450.654 376.325)"/><path d="M221.151 40.6693C220.769 40.6693 220.291 40.6885 219.717 40.7268 219.143 40.765 218.592 40.857 218.064 41.0023 217.535 41.1478 217.083 41.3736 216.709 41.6797 216.333 41.9859 216.146 42.407 216.146 42.9428 216.146 43.2949 216.218 43.5972 216.364 43.8499 216.509 44.1024 216.704 44.309 216.949 44.4699 217.195 44.6306 217.466 44.7454 217.764 44.8142 218.064 44.8832 218.365 44.9177 218.672 44.9177 219.222 44.9177 219.701 44.8257 220.106 44.642 220.513 44.4584 220.853 44.2096 221.129 43.8958 221.405 43.582 221.607 43.2145 221.737 42.7935 221.868 42.3726 221.932 41.9248 221.932 41.4501L221.932 40.6693 221.151 40.6693ZM221.932 39.4293 221.932 39.1538C221.932 37.3014 221.014 36.3752 219.177 36.3752 217.921 36.3752 216.827 36.7963 215.893 37.6382L214.975 36.559C215.984 35.5179 217.5 34.9974 219.522 34.9974 220.042 34.9974 220.543 35.0739 221.026 35.227 221.507 35.3801 221.925 35.6136 222.277 35.9274 222.629 36.2413 222.912 36.6355 223.126 37.1101 223.341 37.5846 223.448 38.1511 223.448 38.8093L223.448 43.6087C223.448 44.0221 223.468 44.4545 223.505 44.9062 223.544 45.3577 223.586 45.729 223.632 46.0199L222.162 46.0199C222.116 45.7596 222.082 45.4764 222.059 45.1702 222.035 44.864 222.025 44.5656 222.025 44.2746L221.978 44.2746C221.534 44.9942 221.01 45.5108 220.406 45.8246 219.801 46.1385 219.063 46.2954 218.189 46.2954 217.715 46.2954 217.256 46.2304 216.812 46.1002 216.367 45.9701 215.974 45.7711 215.629 45.5032 215.285 45.2353 215.009 44.9062 214.802 44.5158 214.595 44.1254 214.492 43.6699 214.492 43.1494 214.492 42.2769 214.719 41.5918 215.169 41.0942 215.622 40.5967 216.187 40.2254 216.87 39.9805 217.55 39.7355 218.277 39.5824 219.051 39.5212 219.823 39.46 220.531 39.4293 221.175 39.4293L221.932 39.4293Z" stroke="#000000" stroke-width="0.17376" stroke-linejoin="round" stroke-miterlimit="2" transform="matrix(1.00183 0 0 1 450.654 376.325)"/><path d="M232.519 36.6508 229.419 36.6508 229.419 42.9887C229.419 43.3867 229.457 43.712 229.533 43.9647 229.61 44.2172 229.717 44.4125 229.855 44.5502 229.993 44.688 230.158 44.7837 230.349 44.8373 230.54 44.8908 230.75 44.9177 230.981 44.9177 231.24 44.9177 231.509 44.8794 231.784 44.8029 232.059 44.7263 232.312 44.6267 232.542 44.5043L232.61 45.9051C232.044 46.1653 231.363 46.2954 230.567 46.2954 230.276 46.2954 229.973 46.2572 229.66 46.1806 229.346 46.1041 229.059 45.9586 228.799 45.7443 228.538 45.5299 228.324 45.2391 228.156 44.8717 227.987 44.5043 227.903 44.0221 227.903 43.425L227.903 36.6508 225.629 36.6508 225.629 35.2729 227.903 35.2729 227.903 32.2418 229.419 32.2418 229.419 35.2729 232.519 35.2729 232.519 36.6508Z" stroke="#000000" stroke-width="0.17376" stroke-linejoin="round" stroke-miterlimit="2" transform="matrix(1.00183 0 0 1 450.654 376.325)"/><path d="M236.79 31.1395C236.79 31.461 236.675 31.7251 236.446 31.9318 236.216 32.1384 235.963 32.2418 235.687 32.2418 235.413 32.2418 235.159 32.1384 234.93 31.9318 234.7 31.7251 234.585 31.461 234.585 31.1395 234.585 30.8181 234.7 30.554 234.93 30.3473 235.159 30.1406 235.413 30.0373 235.687 30.0373 235.963 30.0373 236.216 30.1406 236.446 30.3473 236.675 30.554 236.79 30.8181 236.79 31.1395ZM236.446 46.0199 234.93 46.0199 234.93 35.2729 236.446 35.2729 236.446 46.0199Z" stroke="#000000" stroke-width="0.17376" stroke-linejoin="round" stroke-miterlimit="2" transform="matrix(1.00183 0 0 1 450.654 376.325)"/><path d="M249.305 40.6465C249.305 40.0493 249.209 39.4906 249.018 38.9701 248.826 38.4496 248.555 37.998 248.203 37.6153 247.851 37.2325 247.426 36.9302 246.928 36.7082 246.431 36.4862 245.868 36.3752 245.241 36.3752 244.613 36.3752 244.05 36.4862 243.552 36.7082 243.055 36.9302 242.634 37.2325 242.289 37.6153 241.945 37.998 241.677 38.4496 241.486 38.9701 241.295 39.4906 241.198 40.0493 241.198 40.6465 241.198 41.2435 241.295 41.8022 241.486 42.3228 241.677 42.8432 241.945 43.2949 242.289 43.6776 242.634 44.0604 243.055 44.3627 243.552 44.5847 244.05 44.8066 244.613 44.9177 245.241 44.9177 245.868 44.9177 246.431 44.8066 246.928 44.5847 247.426 44.3627 247.851 44.0604 248.203 43.6776 248.555 43.2949 248.826 42.8432 249.018 42.3228 249.209 41.8022 249.305 41.2435 249.305 40.6465ZM250.958 40.6465C250.958 41.4578 250.816 42.208 250.533 42.8969 250.25 43.5857 249.856 44.1828 249.351 44.688 248.846 45.1932 248.245 45.5874 247.549 45.8707 246.851 46.1538 246.082 46.2954 245.241 46.2954 244.414 46.2954 243.652 46.1538 242.956 45.8707 242.259 45.5874 241.659 45.1932 241.153 44.688 240.648 44.1828 240.253 43.5857 239.97 42.8969 239.687 42.208 239.545 41.4578 239.545 40.6465 239.545 39.8351 239.687 39.085 239.97 38.396 240.253 37.7071 240.648 37.1101 241.153 36.6049 241.659 36.0997 242.259 35.7054 242.956 35.4223 243.652 35.1391 244.414 34.9974 245.241 34.9974 246.082 34.9974 246.851 35.1391 247.549 35.4223 248.245 35.7054 248.846 36.0997 249.351 36.6049 249.856 37.1101 250.25 37.7071 250.533 38.396 250.816 39.085 250.958 39.8351 250.958 40.6465Z" stroke="#000000" stroke-width="0.17376" stroke-linejoin="round" stroke-miterlimit="2" transform="matrix(1.00183 0 0 1 450.654 376.325)"/><path d="M255.16 35.2729C255.191 35.5638 255.211 35.8509 255.218 36.1341 255.226 36.4173 255.23 36.7043 255.23 36.9953L255.275 36.9953C255.444 36.7043 255.658 36.4364 255.919 36.1915 256.178 35.9466 256.469 35.7361 256.791 35.56 257.113 35.384 257.453 35.2461 257.812 35.1467 258.173 35.0471 258.529 34.9974 258.881 34.9974 260.258 34.9974 261.276 35.361 261.935 36.0882 262.593 36.8154 262.922 37.8526 262.922 39.1998L262.922 46.0199 261.406 46.0199 261.406 40.0723C261.406 38.8782 261.2 37.9635 260.786 37.3282 260.373 36.6929 259.608 36.3752 258.49 36.3752 258.414 36.3752 258.2 36.4059 257.848 36.467 257.495 36.5283 257.124 36.6967 256.733 36.9722 256.344 37.2478 255.995 37.6612 255.689 38.2123 255.382 38.7634 255.23 39.5289 255.23 40.5086L255.23 46.0199 253.714 46.0199 253.714 37.6382C253.714 37.3474 253.702 36.9799 253.68 36.536 253.656 36.0921 253.629 35.671 253.599 35.2729L255.16 35.2729Z" stroke="#000000" stroke-width="0.17376" stroke-linejoin="round" stroke-miterlimit="2" transform="matrix(1.00183 0 0 1 450.654 376.325)"/><path d="M97.6542 59.6143 95.1052 59.6143 95.1052 68.9834 93.5896 68.9834 93.5896 59.6143 91.3163 59.6143 91.3163 58.2364 93.5896 58.2364 93.5896 55.2972C93.5896 53.8734 93.9188 52.8591 94.5771 52.2545 95.2353 51.6497 96.108 51.3474 97.1949 51.3474 97.4092 51.3474 97.6273 51.3627 97.8493 51.3933 98.0714 51.424 98.2895 51.4622 98.5039 51.5081L98.2282 52.886C98.0446 52.84 97.8532 52.8017 97.6542 52.7712 97.4552 52.7405 97.2561 52.7252 97.0571 52.7252 96.6438 52.7252 96.307 52.7941 96.0467 52.9319 95.7865 53.0696 95.5875 53.2649 95.4497 53.5174 95.3119 53.7701 95.22 54.0648 95.1741 54.4016 95.1282 54.7383 95.1052 55.098 95.1052 55.4808L95.1052 58.2364 97.6542 58.2364 97.6542 59.6143Z" stroke="#000000" stroke-width="0.17376" stroke-linejoin="round" stroke-miterlimit="2" transform="matrix(1.00183 0 0 1 450.654 376.325)"/><path d="M108.654 63.6098C108.654 63.0128 108.558 62.4541 108.367 61.9335 108.175 61.4131 107.904 60.9614 107.551 60.5787 107.199 60.196 106.775 59.8936 106.277 59.6717 105.779 59.4497 105.217 59.3387 104.589 59.3387 103.961 59.3387 103.399 59.4497 102.901 59.6717 102.404 59.8936 101.983 60.196 101.638 60.5787 101.294 60.9614 101.026 61.4131 100.835 61.9335 100.643 62.4541 100.548 63.0128 100.548 63.6098 100.548 64.207 100.643 64.7657 100.835 65.2863 101.026 65.8067 101.294 66.2584 101.638 66.641 101.983 67.0238 102.404 67.3261 102.901 67.5481 103.399 67.7701 103.961 67.8811 104.589 67.8811 105.217 67.8811 105.779 67.7701 106.277 67.5481 106.775 67.3261 107.199 67.0238 107.551 66.641 107.904 66.2584 108.175 65.8067 108.367 65.2863 108.558 64.7657 108.654 64.207 108.654 63.6098ZM110.307 63.6098C110.307 64.4212 110.165 65.1715 109.882 65.8603 109.599 66.5492 109.205 67.1462 108.7 67.6514 108.194 68.1566 107.594 68.5509 106.897 68.834 106.2 69.1173 105.431 69.2589 104.589 69.2589 103.762 69.2589 103.001 69.1173 102.304 68.834 101.608 68.5509 101.007 68.1566 100.502 67.6514 99.9965 67.1462 99.6022 66.5492 99.319 65.8603 99.0359 65.1715 98.8943 64.4212 98.8943 63.6098 98.8943 62.7986 99.0359 62.0483 99.319 61.3594 99.6022 60.6706 99.9965 60.0735 100.502 59.5683 101.007 59.0631 101.608 58.6689 102.304 58.3858 103.001 58.1025 103.762 57.9609 104.589 57.9609 105.431 57.9609 106.2 58.1025 106.897 58.3858 107.594 58.6689 108.194 59.0631 108.7 59.5683 109.205 60.0735 109.599 60.6706 109.882 61.3594 110.165 62.0483 110.307 62.7986 110.307 63.6098Z" stroke="#000000" stroke-width="0.17376" stroke-linejoin="round" stroke-miterlimit="2" transform="matrix(1.00183 0 0 1 450.654 376.325)"/><path d="M113.223 61.5891C113.223 61.1145 113.212 60.6323 113.189 60.1424 113.166 59.6526 113.147 59.0172 113.132 58.2364L114.624 58.2364 114.624 60.2343 114.67 60.2343C114.777 59.9434 114.93 59.664 115.129 59.396 115.328 59.1282 115.57 58.8871 115.853 58.6727 116.136 58.4584 116.465 58.2862 116.84 58.1561 117.215 58.0259 117.641 57.9609 118.115 57.9609 118.543 57.9609 118.918 58.0068 119.24 58.0987L118.941 59.5913C118.742 59.5147 118.452 59.4765 118.069 59.4765 117.487 59.4765 116.989 59.5874 116.576 59.8094 116.163 60.0314 115.818 60.3146 115.543 60.6591 115.267 61.0036 115.064 61.3748 114.934 61.7728 114.804 62.1708 114.739 62.5535 114.739 62.921L114.739 68.9834 113.223 68.9834 113.223 61.5891Z" stroke="#000000" stroke-width="0.17376" stroke-linejoin="round" stroke-miterlimit="2" transform="matrix(1.00183 0 0 1 450.654 376.325)"/><path d="M127.231 61.5891C127.231 61.1145 127.22 60.6323 127.196 60.1424 127.174 59.6526 127.155 59.0172 127.139 58.2364L128.632 58.2364 128.632 60.2343 128.678 60.2343C128.785 59.9434 128.939 59.664 129.137 59.396 129.337 59.1282 129.577 58.8871 129.86 58.6727 130.144 58.4584 130.473 58.2862 130.848 58.1561 131.223 58.0259 131.648 57.9609 132.123 57.9609 132.551 57.9609 132.926 58.0068 133.247 58.0987L132.949 59.5913C132.749 59.5147 132.46 59.4765 132.077 59.4765 131.494 59.4765 130.997 59.5874 130.583 59.8094 130.17 60.0314 129.826 60.3146 129.55 60.6591 129.275 61.0036 129.072 61.3748 128.942 61.7728 128.812 62.1708 128.747 62.5535 128.747 62.921L128.747 68.9834 127.231 68.9834 127.231 61.5891Z" stroke="#000000" stroke-width="0.17376" stroke-linejoin="round" stroke-miterlimit="2" transform="matrix(1.00183 0 0 1 450.654 376.325)"/><path d="M143.49 63.6098C143.49 63.0128 143.393 62.4541 143.202 61.9335 143.011 61.4131 142.74 60.9614 142.387 60.5787 142.035 60.196 141.61 59.8936 141.112 59.6717 140.615 59.4497 140.052 59.3387 139.425 59.3387 138.797 59.3387 138.235 59.4497 137.737 59.6717 137.239 59.8936 136.819 60.196 136.474 60.5787 136.13 60.9614 135.862 61.4131 135.671 61.9335 135.479 62.4541 135.383 63.0128 135.383 63.6098 135.383 64.207 135.479 64.7657 135.671 65.2863 135.862 65.8067 136.13 66.2584 136.474 66.641 136.819 67.0238 137.239 67.3261 137.737 67.5481 138.235 67.7701 138.797 67.8811 139.425 67.8811 140.052 67.8811 140.615 67.7701 141.112 67.5481 141.61 67.3261 142.035 67.0238 142.387 66.641 142.74 66.2584 143.011 65.8067 143.202 65.2863 143.393 64.7657 143.49 64.207 143.49 63.6098ZM145.143 63.6098C145.143 64.4212 145.001 65.1715 144.718 65.8603 144.435 66.5492 144.04 67.1462 143.536 67.6514 143.03 68.1566 142.43 68.5509 141.732 68.834 141.036 69.1173 140.267 69.2589 139.425 69.2589 138.599 69.2589 137.837 69.1173 137.14 68.834 136.443 68.5509 135.842 68.1566 135.337 67.6514 134.832 67.1462 134.438 66.5492 134.155 65.8603 133.872 65.1715 133.73 64.4212 133.73 63.6098 133.73 62.7986 133.872 62.0483 134.155 61.3594 134.438 60.6706 134.832 60.0735 135.337 59.5683 135.842 59.0631 136.443 58.6689 137.14 58.3858 137.837 58.1025 138.599 57.9609 139.425 57.9609 140.267 57.9609 141.036 58.1025 141.732 58.3858 142.43 58.6689 143.03 59.0631 143.536 59.5683 144.04 60.0735 144.435 60.6706 144.718 61.3594 145.001 62.0483 145.143 62.7986 145.143 63.6098Z" stroke="#000000" stroke-width="0.17376" stroke-linejoin="round" stroke-miterlimit="2" transform="matrix(1.00183 0 0 1 450.654 376.325)"/><path d="M157.106 63.6098C157.106 63.0128 157.011 62.4541 156.82 61.9335 156.629 61.4131 156.356 60.9614 156.004 60.5787 155.652 60.196 155.227 59.8936 154.73 59.6717 154.232 59.4497 153.67 59.3387 153.042 59.3387 152.414 59.3387 151.851 59.4497 151.354 59.6717 150.857 59.8936 150.436 60.196 150.092 60.5787 149.746 60.9614 149.479 61.4131 149.287 61.9335 149.096 62.4541 149.001 63.0128 149.001 63.6098 149.001 64.207 149.096 64.7657 149.287 65.2863 149.479 65.8067 149.746 66.2584 150.092 66.641 150.436 67.0238 150.857 67.3261 151.354 67.5481 151.851 67.7701 152.414 67.8811 153.042 67.8811 153.67 67.8811 154.232 67.7701 154.73 67.5481 155.227 67.3261 155.652 67.0238 156.004 66.641 156.356 66.2584 156.629 65.8067 156.82 65.2863 157.011 64.7657 157.106 64.207 157.106 63.6098ZM158.76 63.6098C158.76 64.4212 158.619 65.1715 158.336 65.8603 158.052 66.5492 157.658 67.1462 157.152 67.6514 156.647 68.1566 156.046 68.5509 155.35 68.834 154.654 69.1173 153.884 69.2589 153.042 69.2589 152.215 69.2589 151.453 69.1173 150.757 68.834 150.061 68.5509 149.46 68.1566 148.955 67.6514 148.449 67.1462 148.056 66.5492 147.772 65.8603 147.489 65.1715 147.348 64.4212 147.348 63.6098 147.348 62.7986 147.489 62.0483 147.772 61.3594 148.056 60.6706 148.449 60.0735 148.955 59.5683 149.46 59.0631 150.061 58.6689 150.757 58.3858 151.453 58.1025 152.215 57.9609 153.042 57.9609 153.884 57.9609 154.654 58.1025 155.35 58.3858 156.046 58.6689 156.647 59.0631 157.152 59.5683 157.658 60.0735 158.052 60.6706 158.336 61.3594 158.619 62.0483 158.76 62.7986 158.76 63.6098Z" stroke="#000000" stroke-width="0.17376" stroke-linejoin="round" stroke-miterlimit="2" transform="matrix(1.00183 0 0 1 450.654 376.325)"/><path d="M167.073 59.6143 163.972 59.6143 163.972 65.9522C163.972 66.3502 164.011 66.6755 164.087 66.9281 164.164 67.1807 164.271 67.3759 164.409 67.5137 164.546 67.6514 164.711 67.7471 164.902 67.8008 165.094 67.8543 165.305 67.8811 165.534 67.8811 165.795 67.8811 166.062 67.8428 166.338 67.7662 166.613 67.6897 166.866 67.5902 167.095 67.4678L167.165 68.8686C166.599 69.1287 165.917 69.2589 165.121 69.2589 164.829 69.2589 164.528 69.2207 164.214 69.1441 163.9 69.0676 163.613 68.9221 163.352 68.7078 163.092 68.4935 162.878 68.2026 162.71 67.8352 162.541 67.4678 162.457 66.9855 162.457 66.3885L162.457 59.6143 160.184 59.6143 160.184 58.2364 162.457 58.2364 162.457 55.2052 163.972 55.2052 163.972 58.2364 167.073 58.2364 167.073 59.6143Z" stroke="#000000" stroke-width="0.17376" stroke-linejoin="round" stroke-miterlimit="2" transform="matrix(1.00183 0 0 1 450.654 376.325)"/><path d="M168.359 62.7143 174.26 62.7143 174.26 64.2299 168.359 64.2299Z" stroke="#000000" stroke-width="0.17376" stroke-linejoin="round" stroke-miterlimit="2" transform="matrix(1.00183 0 0 1 450.654 376.325)"/><path d="M185.811 54.103C185.811 54.4245 185.696 54.6885 185.466 54.8953 185.237 55.1019 184.984 55.2052 184.709 55.2052 184.433 55.2052 184.18 55.1019 183.951 54.8953 183.721 54.6885 183.606 54.4245 183.606 54.103 183.606 53.7816 183.721 53.5174 183.951 53.3108 184.18 53.1041 184.433 53.0007 184.709 53.0007 184.984 53.0007 185.237 53.1041 185.466 53.3108 185.696 53.5174 185.811 53.7816 185.811 54.103ZM185.466 68.9834 183.951 68.9834 183.951 58.2364 185.466 58.2364 185.466 68.9834ZM181.792 59.6143 179.243 59.6143 179.243 68.9834 177.728 68.9834 177.728 59.6143 175.455 59.6143 175.455 58.2364 177.728 58.2364 177.728 55.2972C177.728 53.8734 178.058 52.8591 178.715 52.2545 179.374 51.6497 180.246 51.3474 181.333 51.3474 181.548 51.3474 181.765 51.3627 181.987 51.3933 182.209 51.424 182.427 51.4622 182.642 51.5081L182.366 52.886C182.183 52.84 181.992 52.8017 181.792 52.7712 181.594 52.7405 181.394 52.7252 181.196 52.7252 180.783 52.7252 180.446 52.7941 180.185 52.9319 179.924 53.0696 179.726 53.2649 179.587 53.5174 179.45 53.7701 179.358 54.0648 179.313 54.4016 179.267 54.7383 179.243 55.098 179.243 55.4808L179.243 58.2364 181.792 58.2364 181.792 59.6143Z" stroke="#000000" stroke-width="0.17376" stroke-linejoin="round" stroke-miterlimit="2" transform="matrix(1.00183 0 0 1 450.654 376.325)"/><path d="M190.565 58.2364C190.595 58.5274 190.614 58.8144 190.622 59.0976 190.629 59.3808 190.633 59.6678 190.633 59.9586L190.679 59.9586C190.848 59.6678 191.061 59.3999 191.322 59.155 191.583 58.91 191.874 58.6996 192.194 58.5235 192.516 58.3475 192.857 58.2097 193.217 58.1101 193.576 58.0106 193.932 57.9609 194.284 57.9609 195.663 57.9609 196.68 58.3245 197.339 59.0517 197.997 59.7788 198.326 60.8161 198.326 62.1632L198.326 68.9834 196.811 68.9834 196.811 63.0358C196.811 61.8417 196.604 60.927 196.191 60.2917 195.778 59.6563 195.012 59.3387 193.894 59.3387 193.818 59.3387 193.603 59.3693 193.251 59.4306 192.899 59.4917 192.528 59.6602 192.137 59.9357 191.747 60.2113 191.398 60.6247 191.092 61.1758 190.787 61.7269 190.633 62.4924 190.633 63.4721L190.633 68.9834 189.117 68.9834 189.117 60.6017C189.117 60.3109 189.107 59.9434 189.083 59.4995 189.061 59.0554 189.034 58.6344 189.003 58.2364L190.565 58.2364Z" stroke="#000000" stroke-width="0.17376" stroke-linejoin="round" stroke-miterlimit="2" transform="matrix(1.00183 0 0 1 450.654 376.325)"/><path d="M202.804 63.6098C202.804 64.207 202.899 64.7657 203.091 65.2863 203.282 65.8067 203.555 66.2584 203.907 66.641 204.258 67.0238 204.683 67.3261 205.181 67.5481 205.678 67.7701 206.241 67.8811 206.869 67.8811 207.481 67.8811 208.051 67.7701 208.58 67.5481 209.108 67.3261 209.562 67.0238 209.945 66.641 210.329 66.2584 210.627 65.8067 210.841 65.2863 211.056 64.7657 211.162 64.207 211.162 63.6098 211.162 63.0128 211.056 62.4541 210.841 61.9335 210.627 61.4131 210.329 60.9614 209.945 60.5787 209.562 60.196 209.108 59.8936 208.58 59.6717 208.051 59.4497 207.481 59.3387 206.869 59.3387 206.241 59.3387 205.678 59.4497 205.181 59.6717 204.683 59.8936 204.258 60.196 203.907 60.5787 203.555 60.9614 203.282 61.4131 203.091 61.9335 202.899 62.4541 202.804 63.0128 202.804 63.6098ZM212.609 68.9834 211.094 68.9834 211.094 67.1922 211.047 67.1922C210.803 67.5596 210.512 67.8734 210.175 68.1337 209.838 68.3939 209.486 68.6083 209.118 68.7766 208.751 68.9451 208.373 69.0676 207.982 69.1441 207.592 69.2207 207.221 69.2589 206.869 69.2589 206.026 69.2589 205.257 69.1173 204.561 68.834 203.865 68.5509 203.263 68.1566 202.759 67.6514 202.253 67.1462 201.859 66.5492 201.575 65.8603 201.292 65.1715 201.15 64.4212 201.15 63.6098 201.15 62.7986 201.292 62.0483 201.575 61.3594 201.859 60.6706 202.253 60.0735 202.759 59.5683 203.263 59.0631 203.865 58.6689 204.561 58.3858 205.257 58.1025 206.026 57.9609 206.869 57.9609 207.221 57.9609 207.592 57.9991 207.982 58.0757 208.373 58.1522 208.751 58.2747 209.118 58.4431 209.486 58.6115 209.838 58.8258 210.175 59.0861 210.512 59.3464 210.803 59.6602 211.047 60.0276L211.094 60.0276 211.094 51.623 212.609 51.623 212.609 68.9834Z" stroke="#000000" stroke-width="0.17376" stroke-linejoin="round" stroke-miterlimit="2" transform="matrix(1.00183 0 0 1 450.654 376.325)"/><path d="M218.121 54.103C218.121 54.4245 218.006 54.6885 217.776 54.8953 217.547 55.1019 217.293 55.2052 217.019 55.2052 216.743 55.2052 216.49 55.1019 216.26 54.8953 216.031 54.6885 215.916 54.4245 215.916 54.103 215.916 53.7816 216.031 53.5174 216.26 53.3108 216.49 53.1041 216.743 53.0007 217.019 53.0007 217.293 53.0007 217.547 53.1041 217.776 53.3108 218.006 53.5174 218.121 53.7816 218.121 54.103ZM217.776 68.9834 216.26 68.9834 216.26 58.2364 217.776 58.2364 217.776 68.9834Z" stroke="#000000" stroke-width="0.17376" stroke-linejoin="round" stroke-miterlimit="2" transform="matrix(1.00183 0 0 1 450.654 376.325)"/><path d="M222.874 58.2364C222.904 58.5274 222.924 58.8144 222.931 59.0976 222.939 59.3808 222.943 59.6678 222.943 59.9586L222.989 59.9586C223.158 59.6678 223.371 59.3999 223.632 59.155 223.892 58.91 224.183 58.6996 224.504 58.5235 224.826 58.3475 225.167 58.2097 225.526 58.1101 225.886 58.0106 226.242 57.9609 226.594 57.9609 227.971 57.9609 228.989 58.3245 229.648 59.0517 230.307 59.7788 230.635 60.8161 230.635 62.1632L230.635 68.9834 229.12 68.9834 229.12 63.0358C229.12 61.8417 228.913 60.927 228.5 60.2917 228.086 59.6563 227.321 59.3387 226.203 59.3387 226.127 59.3387 225.913 59.3693 225.561 59.4306 225.209 59.4917 224.838 59.6602 224.447 59.9357 224.057 60.2113 223.708 60.6247 223.402 61.1758 223.096 61.7269 222.943 62.4924 222.943 63.4721L222.943 68.9834 221.427 68.9834 221.427 60.6017C221.427 60.3109 221.415 59.9434 221.393 59.4995 221.37 59.0554 221.343 58.6344 221.312 58.2364L222.874 58.2364Z" stroke="#000000" stroke-width="0.17376" stroke-linejoin="round" stroke-miterlimit="2" transform="matrix(1.00183 0 0 1 450.654 376.325)"/><path d="M235.298 63.4721C235.298 64.0385 235.401 64.5706 235.607 65.068 235.814 65.5656 236.097 66.0019 236.456 66.377 236.817 66.7521 237.237 67.0505 237.72 67.2726 238.202 67.4946 238.727 67.6055 239.293 67.6055 239.843 67.6055 240.368 67.5061 240.866 67.3069 241.364 67.1079 241.803 66.8286 242.186 66.4688 242.568 66.1091 242.863 65.6767 243.071 65.1715 243.278 64.6663 243.373 64.0998 243.357 63.4721 243.357 62.9056 243.266 62.3737 243.082 61.8761 242.898 61.3785 242.631 60.9423 242.279 60.5673 241.926 60.1922 241.498 59.8936 240.992 59.6717 240.487 59.4497 239.921 59.3387 239.293 59.3387 238.727 59.3387 238.202 59.4497 237.72 59.6717 237.237 59.8936 236.817 60.1922 236.456 60.5673 236.097 60.9423 235.814 61.3785 235.607 61.8761 235.401 62.3737 235.298 62.9056 235.298 63.4721ZM235.022 71.1419C235.465 71.7389 236.043 72.2173 236.756 72.5772 237.467 72.9369 238.26 73.1168 239.132 73.1168 239.897 73.1168 240.548 73.0058 241.084 72.7838 241.62 72.5618 242.052 72.2595 242.382 71.8767 242.711 71.494 242.948 71.0462 243.093 70.5334 243.239 70.0206 243.312 69.4732 243.312 68.8915L243.312 66.9626 243.266 66.9626C242.775 67.6974 242.179 68.2179 241.474 68.5241 240.77 68.8303 240.028 68.9834 239.247 68.9834 238.466 68.9834 237.735 68.8456 237.054 68.57 236.373 68.2944 235.78 67.9156 235.274 67.4333 234.769 66.9511 234.371 66.3731 234.08 65.6995 233.789 65.026 233.644 64.2988 233.644 63.518 233.644 62.7373 233.782 62.0101 234.058 61.3365 234.332 60.663 234.712 60.0735 235.194 59.5683 235.676 59.0631 236.25 58.6689 236.917 58.3858 237.582 58.1025 238.314 57.9609 239.11 57.9609 239.43 57.9609 239.772 57.9915 240.131 58.0527 240.49 58.114 240.851 58.2212 241.21 58.3743 241.571 58.5274 241.926 58.7379 242.279 59.0057 242.631 59.2736 242.959 59.6143 243.266 60.0276L243.312 60.0276 243.312 58.2364 244.827 58.2364 244.827 68.8915C244.827 69.4732 244.755 70.0932 244.609 70.7515 244.463 71.4098 244.18 72.0146 243.759 72.5657 243.339 73.1168 242.753 73.5761 242.003 73.9434 241.252 74.3109 240.273 74.4945 239.063 74.4945 237.992 74.4945 237.035 74.3185 236.193 73.9664 235.35 73.6143 234.585 73.0709 233.897 72.336L235.022 71.1419Z" stroke="#000000" stroke-width="0.17376" stroke-linejoin="round" stroke-miterlimit="2" transform="matrix(1.00183 0 0 1 450.654 376.325)"/><path d="M293.928 150.308 316.973 150.308 316.973 173.037 293.928 173.037Z" fill="#FFFFFF" fill-rule="evenodd" transform="matrix(1.00183 0 0 1 383.854 305.779)"/><path d="M225.909 161.007C225.742 160.686 225.52 160.43 225.243 160.242 224.966 160.053 224.626 159.959 224.227 159.959 224.038 159.959 223.848 159.981 223.654 160.026 223.459 160.07 223.284 160.139 223.128 160.234 222.974 160.328 222.849 160.447 222.754 160.591 222.66 160.735 222.614 160.913 222.614 161.124 222.614 161.49 222.74 161.756 222.997 161.922 223.251 162.089 223.635 162.233 224.144 162.355L225.259 162.621C225.803 162.743 226.255 162.99 226.616 163.362 226.976 163.733 227.156 164.196 227.156 164.751 227.156 165.173 227.07 165.536 226.898 165.841 226.727 166.146 226.498 166.396 226.215 166.59 225.933 166.784 225.609 166.925 225.243 167.014 224.876 167.103 224.505 167.147 224.127 167.147 223.529 167.147 222.971 167.033 222.456 166.806 221.939 166.579 221.499 166.188 221.132 165.633L222.082 164.984C222.303 165.339 222.582 165.622 222.92 165.833 223.26 166.043 223.662 166.149 224.127 166.149 224.349 166.149 224.57 166.124 224.792 166.074 225.014 166.024 225.212 165.946 225.383 165.841 225.555 165.736 225.694 165.6 225.799 165.433 225.905 165.267 225.957 165.073 225.957 164.851 225.957 164.463 225.813 164.183 225.525 164.011 225.236 163.839 224.888 163.703 224.477 163.603L223.413 163.353C223.279 163.32 223.099 163.265 222.872 163.187 222.643 163.109 222.421 162.993 222.206 162.838 221.99 162.682 221.804 162.48 221.648 162.23 221.492 161.981 221.416 161.673 221.416 161.307 221.416 160.907 221.496 160.558 221.657 160.258 221.818 159.959 222.033 159.715 222.305 159.526 222.577 159.338 222.886 159.196 223.229 159.102 223.572 159.008 223.927 158.961 224.293 158.961 224.837 158.961 225.342 159.066 225.808 159.277 226.274 159.488 226.635 159.848 226.89 160.358L225.909 161.007Z" stroke="#B455A4" stroke-width="0.173324" stroke-linejoin="round" stroke-miterlimit="2" fill="#B455A4" transform="matrix(1.00183 0 0 1 383.854 305.779)"/><path d="M229.118 154.368 230.217 154.368 230.217 166.947 229.118 166.947Z" stroke="#B455A4" stroke-width="0.173324" stroke-linejoin="round" stroke-miterlimit="2" fill="#B455A4" transform="matrix(1.00183 0 0 1 383.854 305.779)"/><path d="M239.535 163.054C239.535 162.621 239.466 162.216 239.327 161.839 239.189 161.462 238.991 161.135 238.736 160.858 238.481 160.58 238.173 160.361 237.812 160.2 237.452 160.039 237.045 159.959 236.59 159.959 236.135 159.959 235.727 160.039 235.367 160.2 235.006 160.361 234.701 160.58 234.452 160.858 234.202 161.135 234.008 161.462 233.869 161.839 233.731 162.216 233.661 162.621 233.661 163.054 233.661 163.486 233.731 163.891 233.869 164.269 234.008 164.646 234.202 164.973 234.452 165.25 234.701 165.528 235.006 165.747 235.367 165.907 235.727 166.068 236.135 166.149 236.59 166.149 237.045 166.149 237.452 166.068 237.812 165.907 238.173 165.747 238.481 165.528 238.736 165.25 238.991 164.973 239.189 164.646 239.327 164.269 239.466 163.891 239.535 163.486 239.535 163.054ZM240.733 163.054C240.733 163.642 240.631 164.185 240.426 164.685 240.22 165.184 239.934 165.616 239.568 165.982 239.202 166.348 238.767 166.634 238.263 166.839 237.757 167.044 237.201 167.147 236.59 167.147 235.991 167.147 235.44 167.044 234.935 166.839 234.429 166.634 233.994 166.348 233.628 165.982 233.263 165.616 232.977 165.184 232.772 164.685 232.566 164.185 232.464 163.642 232.464 163.054 232.464 162.466 232.566 161.922 232.772 161.423 232.977 160.924 233.263 160.491 233.628 160.125 233.994 159.759 234.429 159.474 234.935 159.268 235.44 159.063 235.991 158.961 236.59 158.961 237.201 158.961 237.757 159.063 238.263 159.268 238.767 159.474 239.202 159.759 239.568 160.125 239.934 160.491 240.22 160.924 240.426 161.423 240.631 161.922 240.733 162.466 240.733 163.054Z" stroke="#B455A4" stroke-width="0.173324" stroke-linejoin="round" stroke-miterlimit="2" fill="#B455A4" transform="matrix(1.00183 0 0 1 383.854 305.779)"/><path d="M249.834 163.054C249.834 162.621 249.765 162.216 249.626 161.839 249.488 161.462 249.292 161.135 249.037 160.858 248.78 160.58 248.474 160.361 248.113 160.2 247.753 160.039 247.345 159.959 246.889 159.959 246.435 159.959 246.019 160.039 245.641 160.2 245.265 160.361 244.938 160.58 244.66 160.858 244.383 161.135 244.166 161.462 244.01 161.839 243.856 162.216 243.778 162.621 243.778 163.054 243.778 163.486 243.856 163.891 244.01 164.269 244.166 164.646 244.383 164.973 244.66 165.25 244.938 165.528 245.265 165.747 245.641 165.907 246.019 166.068 246.435 166.149 246.889 166.149 247.345 166.149 247.753 166.068 248.113 165.907 248.474 165.747 248.78 165.528 249.037 165.25 249.292 164.973 249.488 164.646 249.626 164.269 249.765 163.891 249.834 163.486 249.834 163.054ZM242.73 159.16 243.828 159.16 243.828 160.458 243.861 160.458C244.038 160.192 244.25 159.965 244.494 159.776 244.738 159.587 244.993 159.432 245.258 159.31 245.525 159.188 245.799 159.099 246.083 159.044 246.366 158.988 246.635 158.961 246.889 158.961 247.499 158.961 248.058 159.063 248.562 159.268 249.066 159.474 249.501 159.759 249.869 160.125 250.235 160.491 250.521 160.924 250.725 161.423 250.93 161.922 251.034 162.466 251.034 163.054 251.034 163.642 250.93 164.185 250.725 164.685 250.521 165.184 250.235 165.616 249.869 165.982 249.501 166.348 249.066 166.634 248.562 166.839 248.058 167.044 247.499 167.147 246.889 167.147 246.635 167.147 246.366 167.119 246.083 167.064 245.799 167.008 245.525 166.92 245.258 166.798 244.993 166.676 244.738 166.52 244.494 166.332 244.25 166.143 244.038 165.916 243.861 165.65L243.828 165.65 243.828 171.739 242.73 171.739 242.73 159.16Z" stroke="#B455A4" stroke-width="0.173324" stroke-linejoin="round" stroke-miterlimit="2" fill="#B455A4" transform="matrix(1.00183 0 0 1 383.854 305.779)"/><path d="M258.953 162.455C258.953 161.712 258.731 161.11 258.287 160.65 257.843 160.189 257.223 159.959 256.424 159.959 256.069 159.959 255.725 160.028 255.393 160.167 255.06 160.306 254.769 160.491 254.519 160.724 254.27 160.957 254.07 161.224 253.919 161.523 253.77 161.823 253.696 162.133 253.696 162.455L258.953 162.455ZM253.661 163.353C253.696 163.742 253.789 164.108 253.945 164.452 254.1 164.795 254.306 165.092 254.561 165.342 254.815 165.591 255.11 165.788 255.443 165.932 255.776 166.077 256.136 166.149 256.524 166.149 257.112 166.149 257.62 166.013 258.046 165.741 258.473 165.469 258.798 165.156 259.02 164.801L259.868 165.5C259.402 166.088 258.889 166.509 258.329 166.764 257.769 167.02 257.167 167.147 256.524 167.147 255.947 167.147 255.412 167.044 254.918 166.839 254.424 166.634 254.001 166.348 253.646 165.982 253.29 165.616 253.009 165.184 252.805 164.685 252.6 164.185 252.496 163.642 252.496 163.054 252.496 162.466 252.597 161.922 252.796 161.423 252.996 160.924 253.273 160.491 253.628 160.125 253.984 159.759 254.4 159.474 254.876 159.268 255.353 159.063 255.869 158.961 256.424 158.961 257.012 158.961 257.538 159.066 258.005 159.277 258.471 159.488 258.861 159.768 259.178 160.117 259.493 160.466 259.734 160.877 259.901 161.348 260.067 161.82 260.15 162.322 260.15 162.854L260.15 163.353 253.661 163.353Z" stroke="#B455A4" stroke-width="0.173324" stroke-linejoin="round" stroke-miterlimit="2" fill="#B455A4" transform="matrix(1.00183 0 0 1 383.854 305.779)"/><path d="M267.023 164.535C267.134 165.034 267.34 165.428 267.638 165.716 267.938 166.005 268.354 166.149 268.886 166.149 269.319 166.149 269.671 166.063 269.943 165.891 270.215 165.719 270.425 165.497 270.576 165.225 270.725 164.953 270.827 164.643 270.883 164.293 270.938 163.944 270.966 163.586 270.966 163.22L270.966 155.167 272.165 155.167 272.165 163.719C272.165 164.119 272.111 164.526 272.006 164.942 271.902 165.358 271.718 165.736 271.458 166.074 271.196 166.412 270.855 166.692 270.434 166.914 270.013 167.136 269.486 167.247 268.853 167.247 268.044 167.247 267.368 167.039 266.823 166.623 266.279 166.207 265.941 165.594 265.808 164.784L267.023 164.535Z" stroke="#B455A4" stroke-width="0.173324" stroke-linejoin="round" stroke-miterlimit="2" fill="#B455A4" transform="matrix(1.00183 0 0 1 383.854 305.779)"/><path d="M288.005 162.655 288.005 163.653 279.519 163.653 279.519 162.655 288.005 162.655ZM288.005 160.159 288.005 161.157 279.519 161.157 279.519 160.159 288.005 160.159Z" stroke="#B455A4" stroke-width="0.173324" stroke-linejoin="round" stroke-miterlimit="2" fill="#B455A4" transform="matrix(1.00183 0 0 1 383.854 305.779)"/><path d="M301.499 160.907C301.499 161.518 301.455 162.186 301.367 162.912 301.277 163.639 301.1 164.316 300.833 164.942 300.568 165.569 300.188 166.093 299.694 166.515 299.2 166.936 298.554 167.147 297.755 167.147 297.235 167.147 296.769 167.044 296.358 166.839 295.947 166.634 295.6 166.359 295.318 166.016 295.035 165.672 294.819 165.275 294.67 164.826 294.519 164.377 294.444 163.908 294.444 163.42 294.444 162.943 294.517 162.488 294.661 162.056 294.805 161.623 295.016 161.246 295.294 160.924 295.571 160.602 295.909 160.347 296.307 160.159 296.708 159.97 297.162 159.876 297.672 159.876 298.216 159.876 298.725 160.003 299.204 160.258 299.68 160.514 300.091 160.852 300.434 161.273 300.434 161.129 300.438 160.985 300.443 160.841 300.448 160.697 300.452 160.552 300.452 160.408 300.452 159.942 300.403 159.446 300.31 158.919 300.216 158.392 300.055 157.901 299.828 157.447 299.599 156.992 299.294 156.615 298.913 156.315 298.529 156.016 298.049 155.866 297.472 155.866 297.084 155.866 296.749 155.938 296.465 156.082 296.183 156.226 295.897 156.409 295.609 156.631L295.009 155.916C295.365 155.605 295.737 155.367 296.125 155.2 296.514 155.034 296.945 154.951 297.422 154.951 297.956 154.951 298.427 155.037 298.836 155.209 299.247 155.38 299.602 155.616 299.902 155.916 300.202 156.215 300.453 156.562 300.66 156.956 300.864 157.349 301.027 157.768 301.15 158.212 301.271 158.656 301.36 159.108 301.415 159.568 301.471 160.028 301.499 160.475 301.499 160.907ZM300.351 162.322C300.051 161.922 299.68 161.57 299.237 161.265 298.793 160.96 298.304 160.808 297.772 160.808 297.394 160.808 297.065 160.88 296.782 161.024 296.5 161.168 296.261 161.362 296.067 161.606 295.872 161.85 295.729 162.133 295.633 162.455 295.54 162.777 295.493 163.109 295.493 163.453 295.493 163.786 295.54 164.119 295.633 164.452 295.729 164.784 295.872 165.087 296.067 165.358 296.261 165.63 296.5 165.849 296.782 166.016 297.065 166.182 297.394 166.265 297.772 166.265 298.249 166.265 298.649 166.132 298.97 165.866 299.292 165.6 299.552 165.267 299.751 164.868 299.952 164.468 300.096 164.038 300.185 163.578 300.273 163.118 300.329 162.699 300.351 162.322Z" stroke="#B455A4" stroke-width="0.173324" stroke-linejoin="round" stroke-miterlimit="2" fill="#B455A4" transform="matrix(1.00183 0 0 1 383.854 305.779)"/><path d="M308.804 162.954C308.804 163.364 308.879 163.75 309.028 164.11 309.178 164.471 309.383 164.787 309.645 165.059 309.905 165.331 310.21 165.547 310.56 165.708 310.908 165.869 311.288 165.949 311.699 165.949 312.099 165.949 312.479 165.877 312.839 165.733 313.2 165.589 313.519 165.386 313.796 165.125 314.073 164.865 314.286 164.551 314.435 164.185 314.586 163.819 314.656 163.409 314.643 162.954 314.643 162.544 314.578 162.158 314.444 161.798 314.311 161.437 314.117 161.121 313.862 160.849 313.607 160.577 313.297 160.361 312.931 160.2 312.564 160.039 312.154 159.959 311.699 159.959 311.288 159.959 310.908 160.039 310.56 160.2 310.21 160.361 309.905 160.577 309.645 160.849 309.383 161.121 309.178 161.437 309.028 161.798 308.879 162.158 308.804 162.544 308.804 162.954ZM308.605 168.511C308.925 168.944 309.345 169.291 309.86 169.551 310.376 169.812 310.95 169.942 311.582 169.942 312.137 169.942 312.609 169.862 312.997 169.701 313.385 169.54 313.699 169.321 313.936 169.044 314.175 168.767 314.347 168.442 314.453 168.071 314.558 167.699 314.61 167.302 314.61 166.881L314.61 165.483 314.578 165.483C314.222 166.016 313.791 166.393 313.279 166.615 312.77 166.836 312.231 166.947 311.666 166.947 311.101 166.947 310.57 166.848 310.076 166.648 309.582 166.448 309.153 166.174 308.787 165.824 308.421 165.475 308.133 165.056 307.922 164.568 307.71 164.08 307.606 163.553 307.606 162.987 307.606 162.422 307.705 161.895 307.905 161.407 308.106 160.919 308.379 160.491 308.73 160.125 309.078 159.759 309.494 159.474 309.978 159.268 310.459 159.063 310.99 158.961 311.565 158.961 311.799 158.961 312.045 158.983 312.307 159.027 312.567 159.072 312.827 159.149 313.089 159.26 313.349 159.371 313.607 159.524 313.862 159.718 314.117 159.912 314.356 160.159 314.578 160.458L314.61 160.458 314.61 159.16 315.709 159.16 315.709 166.881C315.709 167.302 315.656 167.752 315.552 168.229 315.446 168.706 315.24 169.144 314.935 169.543 314.63 169.942 314.207 170.275 313.662 170.541 313.118 170.808 312.409 170.941 311.532 170.941 310.756 170.941 310.062 170.813 309.452 170.558 308.842 170.303 308.288 169.909 307.788 169.377L308.605 168.511Z" stroke="#B455A4" stroke-width="0.173324" stroke-linejoin="round" stroke-miterlimit="2" fill="#B455A4" transform="matrix(1.00183 0 0 1 383.854 305.779)"/><path d="M248.87 175.884C248.87 176.094 248.909 176.289 248.987 176.475 249.063 176.659 249.167 176.82 249.3 176.958 249.434 177.097 249.59 177.208 249.768 177.291 249.947 177.373 250.141 177.414 250.351 177.414 250.555 177.414 250.749 177.376 250.933 177.303 251.117 177.229 251.28 177.127 251.422 176.993 251.564 176.86 251.673 176.7 251.749 176.513 251.826 176.326 251.86 176.116 251.855 175.884 251.855 175.674 251.82 175.477 251.753 175.293 251.685 175.109 251.586 174.946 251.456 174.807 251.325 174.669 251.167 174.558 250.98 174.476 250.793 174.395 250.583 174.353 250.351 174.353 250.141 174.353 249.947 174.395 249.768 174.476 249.59 174.558 249.434 174.669 249.3 174.807 249.167 174.946 249.063 175.109 248.987 175.293 248.909 175.477 248.87 175.674 248.87 175.884ZM248.77 178.723C248.933 178.945 249.148 179.122 249.411 179.255 249.675 179.388 249.968 179.454 250.292 179.454 250.574 179.454 250.815 179.413 251.013 179.331 251.212 179.248 251.372 179.137 251.495 178.995 251.616 178.853 251.704 178.688 251.758 178.498 251.812 178.309 251.838 178.106 251.838 177.889L251.838 177.175 251.82 177.175C251.64 177.447 251.418 177.64 251.158 177.754 250.897 177.867 250.623 177.924 250.333 177.924 250.044 177.924 249.773 177.874 249.522 177.771 249.269 177.669 249.049 177.529 248.862 177.35 248.676 177.172 248.527 176.958 248.42 176.709 248.312 176.459 248.259 176.189 248.259 175.901 248.259 175.612 248.311 175.341 248.411 175.093 248.513 174.844 248.654 174.625 248.832 174.438 249.011 174.251 249.224 174.106 249.47 174 249.716 173.896 249.988 173.844 250.283 173.844 250.401 173.844 250.527 173.854 250.661 173.877 250.794 173.899 250.928 173.939 251.06 173.996 251.193 174.054 251.325 174.13 251.456 174.23 251.586 174.329 251.708 174.456 251.82 174.608L251.838 174.608 251.838 173.944 252.399 173.944 252.399 177.889C252.399 178.106 252.372 178.335 252.318 178.579 252.264 178.822 252.16 179.047 252.004 179.25 251.848 179.454 251.632 179.624 251.354 179.761 251.075 179.896 250.713 179.964 250.266 179.964 249.869 179.964 249.515 179.9 249.203 179.768 248.891 179.638 248.607 179.437 248.352 179.165L248.77 178.723Z" stroke="#B455A4" stroke-width="0.173324" stroke-linejoin="round" stroke-miterlimit="2" fill="#B455A4" transform="matrix(1.00183 0 0 1 408.702 297.66)"/><path d="M250.616 174.097 249.872 174.097C249.704 174.097 249.564 174.114 249.453 174.151 249.337 174.189 249.243 174.242 249.17 174.308 249.033 174.447 248.964 174.61 248.968 174.797 248.973 175.05 249.077 175.225 249.28 175.326 249.475 175.428 249.699 175.478 249.952 175.475L250.432 175.475 250.432 175.906 249.59 175.906C249.505 175.906 249.411 175.918 249.312 175.944 249.215 175.974 249.122 176.019 249.033 176.076 248.945 176.137 248.874 176.217 248.818 176.314 248.758 176.412 248.727 176.534 248.727 176.679 248.73 176.995 248.836 177.201 249.046 177.302 249.243 177.406 249.505 177.456 249.831 177.451 249.987 177.451 250.124 177.454 250.241 177.463 250.358 177.477 250.458 177.503 250.541 177.543 250.626 177.584 250.694 177.648 250.744 177.737 250.782 177.832 250.803 177.955 250.803 178.111 250.796 178.264 250.774 178.426 250.732 178.6 250.682 178.771 250.623 178.941 250.553 179.108L250.072 179.108C250.137 178.955 250.2 178.799 250.255 178.641 250.307 178.484 250.333 178.335 250.333 178.194 250.337 178.071 250.292 177.995 250.2 177.962 250.101 177.934 249.912 177.92 249.631 177.924 249.148 177.92 248.786 177.808 248.548 177.584 248.305 177.367 248.182 177.09 248.182 176.754 248.195 176.123 248.519 175.759 249.155 175.662L249.155 175.65C248.95 175.596 248.779 175.511 248.64 175.395 248.501 175.282 248.428 175.114 248.423 174.889 248.423 174.721 248.475 174.568 248.578 174.433 248.666 174.303 248.779 174.194 248.914 174.109L248.914 174.097 248.299 174.097 248.299 173.66 250.616 173.66 250.616 174.097Z" stroke="#B455A4" stroke-width="0.173324" stroke-linejoin="round" stroke-miterlimit="2" fill="#B455A4" transform="matrix(1.00183 0 0 1 437.329 297.66)"/><path d="M341.657 425.161 341.657 426.523 330.081 426.523 330.081 425.161 341.657 425.161ZM341.657 421.757 341.657 423.119 330.081 423.119 330.081 421.757 341.657 421.757Z" stroke="#55B458" stroke-width="0.172593" stroke-linejoin="round" stroke-miterlimit="2" fill="#55B458" transform="matrix(1.00183 0 0 1 284.204 210.464)"/><path d="M357.119 420.797 355.136 420.797C354.684 420.797 354.311 420.846 354.015 420.941 353.705 421.045 353.455 421.185 353.263 421.362 352.892 421.733 352.712 422.168 352.719 422.672 352.734 423.343 353.01 423.811 353.552 424.078 354.074 424.353 354.672 424.485 355.346 424.478L356.632 424.478 356.632 425.629 354.382 425.629C354.152 425.629 353.906 425.663 353.639 425.729 353.381 425.812 353.133 425.93 352.897 426.083 352.66 426.247 352.469 426.457 352.32 426.717 352.157 426.982 352.076 427.308 352.076 427.691 352.083 428.533 352.369 429.088 352.93 429.353 353.455 429.635 354.152 429.767 355.025 429.753 355.438 429.753 355.805 429.765 356.122 429.786 356.431 429.824 356.698 429.892 356.918 429.996 357.148 430.107 357.33 430.28 357.462 430.516 357.566 430.769 357.618 431.1 357.618 431.514 357.604 431.921 357.54 432.356 357.429 432.822 357.297 433.28 357.138 433.732 356.954 434.174L355.668 434.174C355.845 433.767 356.008 433.354 356.155 432.933 356.294 432.512 356.365 432.112 356.365 431.736 356.372 431.41 356.254 431.204 356.01 431.115 355.746 431.041 355.24 431.008 354.493 431.015 353.199 431.008 352.235 430.706 351.599 430.107 350.951 429.531 350.625 428.793 350.625 427.89 350.653 426.206 351.518 425.235 353.218 424.977L353.218 424.944C352.672 424.802 352.213 424.577 351.845 424.268 351.473 423.963 351.282 423.513 351.268 422.915 351.268 422.464 351.405 422.057 351.677 421.695 351.913 421.348 352.213 421.059 352.575 420.83L352.575 420.797 350.934 420.797 350.934 419.634 357.119 419.634 357.119 420.797Z" stroke="#D34739" stroke-width="0.172593" stroke-linejoin="round" stroke-miterlimit="2" fill="#D34739" transform="matrix(1.00183 0 0 1 284.204 210.464)"/><path d="M364.966 424.821 370.8 424.821 370.8 426.319 364.966 426.319Z" stroke="#55B458" stroke-width="0.172593" stroke-linejoin="round" stroke-miterlimit="2" fill="#55B458" transform="matrix(1.00183 0 0 1 284.204 210.464)"/><path d="M379.947 427.724C380.098 428.405 380.379 428.944 380.788 429.337 381.195 429.729 381.762 429.925 382.491 429.925 383.079 429.925 383.559 429.81 383.93 429.575 384.302 429.339 384.59 429.036 384.793 428.668 384.997 428.296 385.139 427.873 385.214 427.396 385.29 426.918 385.328 426.431 385.328 425.932L385.328 414.948 386.961 414.948 386.961 426.613C386.961 427.157 386.888 427.715 386.746 428.28 386.602 428.85 386.351 429.363 385.997 429.824 385.64 430.285 385.176 430.668 384.6 430.97 384.025 431.273 383.306 431.424 382.443 431.424 381.339 431.424 380.417 431.141 379.675 430.573 378.935 430.006 378.471 429.171 378.292 428.065L379.947 427.724Z" stroke="#B455A4" stroke-width="0.172593" stroke-linejoin="round" stroke-miterlimit="2" fill="#B455A4" transform="matrix(1.00183 0 0 1 284.204 210.464)"/><path d="M397.946 425.568C397.946 426.128 398.048 426.656 398.253 427.145 398.457 427.639 398.738 428.069 399.093 428.441 399.447 428.809 399.863 429.105 400.341 429.325 400.819 429.545 401.336 429.654 401.897 429.654 402.44 429.654 402.958 429.557 403.45 429.36 403.942 429.162 404.377 428.887 404.755 428.53 405.133 428.176 405.424 427.748 405.63 427.249 405.833 426.75 405.928 426.19 405.914 425.568 405.914 425.01 405.821 424.483 405.642 423.991 405.46 423.499 405.195 423.069 404.847 422.698 404.497 422.327 404.074 422.031 403.575 421.813 403.076 421.594 402.516 421.482 401.897 421.482 401.336 421.482 400.819 421.594 400.341 421.813 399.863 422.031 399.447 422.327 399.093 422.698 398.738 423.069 398.457 423.499 398.253 423.991 398.048 424.483 397.946 425.01 397.946 425.568ZM397.674 433.15C398.114 433.739 398.684 434.212 399.388 434.569 400.09 434.924 400.875 435.101 401.736 435.101 402.492 435.101 403.136 434.992 403.665 434.772 404.195 434.552 404.623 434.254 404.949 433.876 405.273 433.498 405.509 433.056 405.651 432.547 405.795 432.041 405.869 431.5 405.869 430.925L405.869 429.02 405.821 429.02C405.339 429.746 404.748 430.259 404.053 430.561 403.355 430.864 402.623 431.015 401.849 431.015 401.079 431.015 400.355 430.881 399.684 430.609 399.01 430.334 398.424 429.961 397.925 429.483 397.423 429.008 397.031 428.436 396.743 427.772 396.456 427.105 396.312 426.386 396.312 425.613 396.312 424.842 396.449 424.123 396.721 423.459 396.993 422.792 397.367 422.211 397.844 421.709 398.322 421.211 398.889 420.82 399.547 420.542 400.204 420.263 400.927 420.121 401.715 420.121 402.031 420.121 402.37 420.151 402.724 420.213 403.079 420.272 403.436 420.378 403.79 420.53 404.147 420.681 404.497 420.889 404.847 421.154 405.195 421.419 405.519 421.757 405.821 422.163L405.869 422.163 405.869 420.395 407.365 420.395 407.365 430.925C407.365 431.5 407.294 432.112 407.15 432.763 407.006 433.415 406.727 434.011 406.311 434.557 405.895 435.101 405.315 435.555 404.573 435.919 403.833 436.283 402.864 436.463 401.67 436.463 400.611 436.463 399.665 436.29 398.833 435.943 398 435.593 397.244 435.056 396.563 434.33L397.674 433.15Z" stroke="#D34739" stroke-width="0.172593" stroke-linejoin="round" stroke-miterlimit="2" fill="#D34739" transform="matrix(1.00183 0 0 1 284.204 210.464)"/><path d="M414.81 415.082C414.326 415.853 413.898 416.603 413.529 417.328 413.158 418.057 412.843 418.794 412.586 419.544 412.328 420.291 412.136 421.066 412.006 421.87 411.879 422.672 411.815 423.542 411.815 424.48 411.815 425.417 411.879 426.28 412.006 427.067 412.136 427.854 412.321 428.611 412.564 429.337 412.806 430.062 413.108 430.781 413.472 431.493 413.834 432.205 414.25 432.954 414.721 433.739L413.517 434.647C412.503 433.226 411.716 431.637 411.155 429.88 410.597 428.126 410.316 426.325 410.316 424.48 410.316 422.724 410.593 420.962 411.146 419.191 411.697 417.421 412.517 415.794 413.607 414.312L414.81 415.082Z" stroke="#D34739" stroke-width="0.172593" stroke-linejoin="round" stroke-miterlimit="2" fill="#D34739" transform="matrix(1.00183 0 0 1 284.204 210.464)"/><path d="M422.374 420.797 420.39 420.797C419.939 420.797 419.565 420.846 419.27 420.941 418.96 421.045 418.709 421.185 418.515 421.362 418.146 421.733 417.967 422.168 417.974 422.672 417.988 423.343 418.265 423.811 418.804 424.078 419.329 424.353 419.927 424.485 420.601 424.478L421.884 424.478 421.884 425.629 419.636 425.629C419.407 425.629 419.158 425.663 418.894 425.729 418.634 425.812 418.388 425.93 418.151 426.083 417.915 426.247 417.723 426.457 417.574 426.717 417.411 426.982 417.331 427.308 417.331 427.691 417.338 428.533 417.622 429.088 418.184 429.353 418.709 429.635 419.407 429.767 420.279 429.753 420.693 429.753 421.057 429.765 421.376 429.786 421.686 429.824 421.951 429.892 422.173 429.996 422.402 430.107 422.584 430.28 422.717 430.516 422.821 430.769 422.873 431.1 422.873 431.514 422.856 431.921 422.795 432.356 422.684 432.822 422.551 433.28 422.393 433.732 422.206 434.174L420.922 434.174C421.099 433.767 421.26 433.354 421.409 432.933 421.549 432.512 421.62 432.112 421.62 431.736 421.627 431.41 421.509 431.204 421.265 431.115 420.998 431.041 420.492 431.008 419.747 431.015 418.454 431.008 417.489 430.706 416.853 430.107 416.203 429.531 415.879 428.793 415.879 427.89 415.908 426.206 416.773 425.235 418.473 424.977L418.473 424.944C417.924 424.802 417.468 424.577 417.097 424.268 416.728 423.963 416.536 423.513 416.522 422.915 416.522 422.464 416.659 422.057 416.931 421.695 417.168 421.348 417.468 421.059 417.83 420.83L417.83 420.797 416.189 420.797 416.189 419.634 422.374 419.634 422.374 420.797Z" stroke="#D34739" stroke-width="0.172593" stroke-linejoin="round" stroke-miterlimit="2" fill="#D34739" transform="matrix(1.00183 0 0 1 284.204 210.464)"/><path d="M429.54 433.876C430.025 433.105 430.453 432.356 430.824 431.63 431.193 430.902 431.507 430.164 431.765 429.417 432.023 428.668 432.214 427.892 432.344 427.088 432.472 426.287 432.536 425.417 432.536 424.48 432.536 423.542 432.472 422.679 432.344 421.892 432.214 421.104 432.03 420.348 431.788 419.622 431.545 418.896 431.242 418.177 430.881 417.466 430.516 416.754 430.1 416.007 429.632 415.219L430.833 414.312C431.848 415.733 432.635 417.321 433.195 419.078 433.756 420.832 434.035 422.634 434.035 424.48 434.035 426.235 433.758 427.998 433.207 429.767 432.654 431.538 431.833 433.164 430.743 434.647L429.54 433.876Z" stroke="#D34739" stroke-width="0.172593" stroke-linejoin="round" stroke-miterlimit="2" fill="#D34739" transform="matrix(1.00183 0 0 1 284.204 210.464)"/><path d="M482.64 539.003C482.64 539.304 482.694 539.587 482.803 539.851 482.912 540.114 483.064 540.344 483.253 540.544 483.445 540.742 483.668 540.899 483.923 541.02 484.178 541.137 484.456 541.194 484.757 541.194 485.049 541.194 485.326 541.143 485.59 541.037 485.854 540.931 486.088 540.782 486.289 540.593 486.492 540.401 486.65 540.172 486.759 539.905 486.867 539.636 486.919 539.335 486.91 539.003 486.91 538.705 486.862 538.422 486.764 538.158 486.667 537.895 486.527 537.663 486.338 537.465 486.151 537.264 485.925 537.107 485.656 536.99 485.389 536.872 485.089 536.812 484.757 536.812 484.456 536.812 484.178 536.872 483.923 536.99 483.668 537.107 483.445 537.264 483.253 537.465 483.064 537.663 482.912 537.895 482.803 538.158 482.694 538.422 482.64 538.705 482.64 539.003ZM482.494 543.07C482.729 543.385 483.035 543.64 483.41 543.829 483.788 544.021 484.209 544.116 484.671 544.116 485.077 544.116 485.421 544.056 485.705 543.938 485.991 543.821 486.22 543.66 486.392 543.46 486.567 543.257 486.693 543.019 486.77 542.747 486.847 542.475 486.888 542.185 486.888 541.876L486.888 540.853 486.862 540.853C486.601 541.243 486.286 541.518 485.914 541.681 485.538 541.844 485.146 541.925 484.734 541.925 484.318 541.925 483.932 541.853 483.571 541.707 483.21 541.561 482.895 541.36 482.625 541.103 482.359 540.848 482.147 540.541 481.992 540.183 481.841 539.828 481.763 539.441 481.763 539.029 481.763 538.614 481.835 538.23 481.981 537.872 482.127 537.517 482.328 537.201 482.585 536.935 482.84 536.666 483.144 536.457 483.496 536.308 483.849 536.159 484.238 536.084 484.659 536.084 484.828 536.084 485.011 536.099 485.2 536.133 485.392 536.165 485.581 536.222 485.773 536.302 485.962 536.382 486.151 536.494 486.338 536.637 486.527 536.778 486.698 536.958 486.862 537.179L486.888 537.179 486.888 536.228 487.69 536.228 487.69 541.876C487.69 542.185 487.652 542.515 487.575 542.861 487.498 543.211 487.346 543.531 487.122 543.824 486.899 544.116 486.59 544.359 486.191 544.554 485.796 544.749 485.275 544.846 484.636 544.846 484.066 544.846 483.559 544.752 483.112 544.565 482.666 544.379 482.262 544.09 481.895 543.703L482.494 543.07Z" stroke="#B455A4" stroke-width="0.174721" stroke-linejoin="round" stroke-miterlimit="2" fill="#B455A4" transform="matrix(1.00183 0 0 1 191.647 103.925)"/><path d="M425.053 521.754 427.541 519.376 428.657 519.376 426.033 521.787 428.939 524.651 427.79 524.651 425.053 521.878 425.053 524.651 424.31 524.651 424.31 516.133 425.053 516.133 425.053 521.754Z" stroke="#D34739" stroke-width="0.174007" stroke-linejoin="round" stroke-miterlimit="2" fill="#D34739" transform="matrix(1.00183 0 0 1 219.743 122.276)"/><path d="M118.321 199.192C118.321 199.955 118.46 200.672 118.738 201.342 119.017 202.012 119.398 202.6 119.883 203.105 120.367 203.61 120.934 204.012 121.584 204.311 122.233 204.61 122.94 204.76 123.703 204.76 124.445 204.76 125.151 204.626 125.821 204.358 126.492 204.09 127.084 203.713 127.6 203.229 128.115 202.744 128.512 202.162 128.791 201.481 129.069 200.801 129.198 200.038 129.177 199.192 129.177 198.429 129.054 197.713 128.806 197.043 128.559 196.372 128.198 195.785 127.724 195.279 127.249 194.774 126.672 194.372 125.991 194.073 125.311 193.774 124.548 193.625 123.703 193.625 122.94 193.625 122.233 193.774 121.584 194.073 120.934 194.372 120.367 194.774 119.883 195.279 119.398 195.785 119.017 196.372 118.738 197.043 118.46 197.713 118.321 198.429 118.321 199.192ZM117.95 209.524C118.548 210.328 119.326 210.972 120.285 211.456 121.244 211.94 122.311 212.183 123.486 212.183 124.517 212.183 125.393 212.033 126.115 211.735 126.837 211.435 127.419 211.028 127.863 210.514 128.306 209.997 128.626 209.394 128.822 208.704 129.018 208.013 129.116 207.276 129.116 206.492L129.116 203.894 129.054 203.894C128.394 204.883 127.59 205.584 126.641 205.997 125.692 206.409 124.692 206.616 123.641 206.616 122.589 206.616 121.605 206.43 120.687 206.059 119.769 205.688 118.97 205.177 118.29 204.528 117.609 203.878 117.073 203.1 116.681 202.193 116.29 201.285 116.094 200.306 116.094 199.254 116.094 198.202 116.279 197.223 116.65 196.316 117.022 195.408 117.532 194.614 118.182 193.934 118.831 193.253 119.604 192.723 120.501 192.341 121.398 191.96 122.383 191.769 123.455 191.769 123.888 191.769 124.347 191.81 124.832 191.893 125.316 191.975 125.801 192.119 126.285 192.326 126.77 192.532 127.249 192.815 127.724 193.176 128.198 193.537 128.641 193.996 129.054 194.553L129.116 194.553 129.116 192.14 131.157 192.14 131.157 206.492C131.157 207.276 131.059 208.11 130.863 208.997 130.667 209.883 130.286 210.698 129.719 211.442 129.151 212.183 128.363 212.801 127.352 213.297 126.342 213.791 125.022 214.039 123.393 214.039 121.95 214.039 120.661 213.801 119.527 213.328 118.393 212.853 117.362 212.121 116.434 211.132L117.95 209.524Z" stroke="#D34739" stroke-width="0.173582" stroke-linejoin="round" stroke-miterlimit="2" fill="#D34739" transform="matrix(1.00183 0 0 1 356.78 286.694)"/><path d="M141.302 184.902C140.642 185.954 140.06 186.975 139.554 187.965 139.049 188.954 138.621 189.96 138.271 190.98 137.92 192.001 137.657 193.058 137.482 194.151 137.307 195.243 137.219 196.429 137.219 197.708 137.219 198.986 137.307 200.161 137.482 201.234 137.657 202.306 137.91 203.337 138.24 204.327 138.57 205.316 138.982 206.296 139.477 207.265 139.972 208.234 140.539 209.255 141.178 210.328L139.539 211.563C138.157 209.625 137.085 207.462 136.322 205.069 135.559 202.677 135.178 200.223 135.178 197.708 135.178 195.316 135.554 192.913 136.307 190.501 137.059 188.088 138.178 185.871 139.663 183.851L141.302 184.902Z" stroke="#D34739" stroke-width="0.173582" stroke-linejoin="round" stroke-miterlimit="2" fill="#D34739" transform="matrix(1.00183 0 0 1 356.78 286.694)"/><path d="M151.608 192.691 148.904 192.691C148.29 192.691 147.782 192.756 147.379 192.887 146.956 193.028 146.614 193.219 146.352 193.461 145.849 193.965 145.602 194.558 145.612 195.243 145.632 196.159 146.01 196.799 146.745 197.161 147.46 197.534 148.275 197.715 149.192 197.705L150.943 197.705 150.943 199.276 147.877 199.276C147.565 199.276 147.228 199.321 146.866 199.411 146.513 199.522 146.176 199.683 145.854 199.895 145.532 200.116 145.27 200.403 145.068 200.756 144.847 201.118 144.736 201.561 144.736 202.085 144.746 203.232 145.134 203.988 145.899 204.35 146.614 204.733 147.565 204.914 148.753 204.894 149.317 204.894 149.816 204.909 150.249 204.939 150.672 204.989 151.034 205.085 151.336 205.226 151.648 205.377 151.895 205.614 152.076 205.936 152.217 206.278 152.287 206.732 152.287 207.294 152.267 207.848 152.182 208.443 152.031 209.078 151.85 209.702 151.633 210.315 151.381 210.921L149.629 210.921C149.871 210.365 150.092 209.803 150.294 209.228 150.485 208.654 150.581 208.11 150.581 207.598 150.591 207.154 150.43 206.873 150.098 206.751 149.735 206.652 149.045 206.605 148.029 206.616 146.266 206.605 144.953 206.193 144.087 205.377 143.201 204.592 142.758 203.585 142.758 202.357 142.798 200.061 143.976 198.737 146.292 198.384L146.292 198.339C145.547 198.148 144.922 197.841 144.419 197.418 143.915 197.005 143.654 196.391 143.634 195.575 143.634 194.961 143.82 194.407 144.192 193.914 144.515 193.441 144.922 193.048 145.416 192.736L145.416 192.691 143.181 192.691 143.181 191.105 151.608 191.105 151.608 192.691Z" stroke="#D34739" stroke-width="0.173582" stroke-linejoin="round" stroke-miterlimit="2" fill="#D34739" transform="matrix(1.00183 0 0 1 356.78 286.694)"/><path d="M161.375 210.514C162.035 209.462 162.617 208.441 163.123 207.451 163.628 206.461 164.056 205.456 164.406 204.435 164.757 203.414 165.02 202.357 165.195 201.264 165.37 200.172 165.458 198.986 165.458 197.708 165.458 196.429 165.37 195.254 165.195 194.182 165.02 193.109 164.767 192.078 164.437 191.088 164.107 190.099 163.695 189.119 163.2 188.15 162.705 187.181 162.138 186.16 161.499 185.088L163.138 183.851C164.52 185.789 165.592 187.954 166.355 190.346 167.118 192.738 167.499 195.192 167.499 197.708 167.499 200.099 167.123 202.502 166.37 204.914 165.618 207.327 164.499 209.542 163.014 211.563L161.375 210.514Z" stroke="#D34739" stroke-width="0.173582" stroke-linejoin="round" stroke-miterlimit="2" fill="#D34739" transform="matrix(1.00183 0 0 1 356.78 286.694)"/><path d="M191.222 265.676 194.48 262.565 195.94 262.565 192.505 265.72 196.308 269.464 194.805 269.464 191.222 265.839 191.222 269.464 190.249 269.464 190.249 258.32 191.222 258.32 191.222 265.676Z" stroke="#D34739" stroke-width="0.172307" stroke-linejoin="round" stroke-miterlimit="2" fill="#D34739" transform="matrix(1.00183 0 0 1 320.869 232.322)"/><path d="M436.801 446.362 439.309 443.967 440.435 443.967 437.789 446.395 440.718 449.279 439.56 449.279 436.801 446.487 436.801 449.279 436.051 449.279 436.051 440.697 436.801 440.697 436.801 446.362Z" stroke="#D34739" stroke-width="0.172593" stroke-linejoin="round" stroke-miterlimit="2" fill="#D34739" transform="matrix(1.00183 0 0 1 273.183 199.244)"/><path d="M578.233 605.39 580.503 605.39 580.503 605.973 578.233 605.973Z" stroke="#B455A4" stroke-width="0.173328" stroke-linejoin="round" stroke-miterlimit="2" fill="#B455A4" transform="matrix(1.00183 0 0 1 96.7191 18.3668)"/><path d="M583.911 607.803 583.277 607.803 583.277 602.343 582.154 603.335 581.755 602.856 583.346 601.549 583.911 601.549 583.911 607.803Z" stroke="#B455A4" stroke-width="0.173328" stroke-linejoin="round" stroke-miterlimit="2" fill="#B455A4" transform="matrix(1.00183 0 0 1 96.7191 18.3668)"/></g></svg>