<svg width="146" height="168" xmlns="http://www.w3.org/2000/svg" xmlns:xlink="http://www.w3.org/1999/xlink" xml:space="preserve" overflow="hidden"><defs><clipPath id="clip0"><rect x="310" y="170" width="146" height="168"/></clipPath></defs><g clip-path="url(#clip0)" transform="translate(-310 -170)"><path d="M188.86 87.6088 188.852 87.5414 188.68 86.2502 188.496 84.959 188.299 83.6679 188.088 82.3767 187.863 81.0855 187.625 79.7943 187.569 79.5052 187.368 78.5032 187.095 77.212 186.807 75.9208 186.505 74.6296 186.278 73.7095 186.184 73.3384 185.842 72.0472 185.484 70.7561 185.109 69.4649 184.986 69.06 184.712 68.1737 184.293 66.8825 183.857 65.5914 183.695 65.1317 183.396 64.3002 182.912 63.009 182.41 61.7178 182.404 61.704 181.875 60.4266 181.32 59.1355 181.113 58.6715 180.736 57.8443 180.125 56.5531 179.822 55.9347 179.485 55.2619 178.815 53.9707 178.531 53.4425 178.111 52.6796 177.378 51.3884 177.239 51.1532 176.604 50.0972 175.948 49.0412 175.799 48.806 174.95 47.5148 174.657 47.0827 174.061 46.2237 173.366 45.2539 173.13 44.9325 172.153 43.6413 172.075 43.5413 171.122 42.3501 170.783 41.9401 170.039 41.0589 169.492 40.4315 168.9 39.7678 168.201 39.0083 167.699 38.4766 166.91 37.6648 166.432 37.1854 165.619 36.3945 165.091 35.8942 164.328 35.1915 163.671 34.6031 163.036 34.0516 162.162 33.3119 161.745 32.9692 160.558 32.0207 160.454 31.9399 159.163 30.9682 158.836 30.7295 157.872 30.0453 156.99 29.4383 156.581 29.165 155.289 28.3299 154.997 28.1472 153.998 27.541 152.831 26.856 152.707 26.7851 151.416 26.0769 150.447 25.5648 150.125 25.399 148.833 24.7628 147.799 24.2736 147.542 24.1558 146.251 23.5894 144.96 23.0478 144.795 22.9824 143.669 22.5468 142.378 22.0729 141.277 21.6913 141.086 21.6271 139.795 21.2182 138.504 20.8353 137.213 20.4781 136.908 20.4001 135.922 20.1555 134.63 19.8612 133.339 19.5934 132.048 19.3523 130.757 19.1384 130.553 19.1089 129.466 18.9573 128.175 18.804 126.883 18.6784 125.592 18.5807 124.301 18.5118 123.01 18.4716 121.719 18.4606 120.427 18.4799 119.136 18.5291 117.845 18.6098 116.554 18.7217 115.263 18.8655 113.972 19.0419 113.557 19.1089 112.68 19.2566 111.389 19.5087 110.098 19.7962 108.807 20.1204 107.806 20.4001 107.516 20.4844 106.225 20.8984 104.933 21.3521 104.046 21.6913 103.642 21.8524 102.351 22.4093 101.12 22.9824 101.06 23.0116 99.7686 23.6836 98.7098 24.2736 98.4774 24.4091 97.1863 25.2103 96.6486 25.5648 95.8951 26.0855 94.843 26.856 94.6039 27.0395 93.3127 28.0885 93.2442 28.1472 92.0215 29.2469 91.8195 29.4383 90.7304 30.5239 90.5342 30.7295 89.4392 31.9384 89.3683 32.0207 88.3122 33.3119 88.148 33.5242 87.3512 34.6031 86.8568 35.3136 86.47 35.8942 85.6614 37.1854 85.5656 37.3481 84.9287 38.4766 84.2745 39.7174 84.2493 39.7678 83.6371 41.0589 83.0692 42.3501 82.9833 42.5601 82.5583 43.6413 82.0891 44.9325 81.6921 46.1224 81.6598 46.2237 81.2785 47.5148 80.9319 48.806 80.6184 50.0972 80.4009 51.093 80.3391 51.3884 80.0964 52.6796 79.883 53.9707 79.6974 55.2619 79.5391 56.5531 79.4071 57.8443 79.3004 59.1355 79.2181 60.4266 79.159 61.7178 79.1231 63.009 79.1097 64.1993 79.109 64.3002 79.1097 64.5058 79.1157 65.5914 79.1428 66.8825 79.1897 68.1737 79.2555 69.4649 79.3394 70.7561 79.4406 72.0472 79.5592 73.3384 79.6935 74.6296 79.8432 75.9208 80.0082 77.212 80.1874 78.5032 80.3804 79.7943 80.4009 79.9227 80.592 81.0855 80.8173 82.3767 81.0552 83.6679 81.3049 84.959 81.5661 86.2502 81.6921 86.8478 81.8422 87.5414 82.1333 88.8326 82.4342 90.1238 82.745 91.4149 82.9833 92.3741 83.068 92.7061 83.4067 93.9973 83.7541 95.2881 84.1102 96.5793 84.2745 97.161 84.4801 97.8704 84.8622 99.1616 85.2521 100.453 85.5656 101.473 85.6515 101.744 86.0667 103.035 86.4881 104.326 86.8568 105.438 86.9179 105.618 87.3645 106.909 87.8167 108.2 88.148 109.134 88.278 109.491 88.7542 110.782 89.2355 112.073 89.4392 112.613 89.7303 113.365 90.2352 114.656 90.7304 115.912 90.7449 115.947 91.2735 117.238 91.8061 118.529 92.0215 119.047 92.352 119.821 92.9078 121.112 93.3127 122.046 93.4718 122.403 94.0517 123.694 94.6039 124.918 94.635 124.985 95.2389 126.276 95.8451 127.568 95.8951 127.674 96.4713 128.859 97.102 130.15 97.1863 130.322 97.7519 131.441 98.4069 132.732 98.4774 132.871 99.0832 134.023 99.7631 135.315 99.7686 135.325 100.467 136.606 101.06 137.688 101.178 137.897 101.909 139.188 102.351 139.966 102.652 140.479 103.411 141.771 103.642 142.161 104.19 143.062 104.933 144.279 104.98 144.353 105.798 145.644 106.225 146.316 106.63 146.935 107.479 148.226 107.516 148.282 108.359 149.518 108.807 150.171 109.258 150.809 110.098 151.992 110.177 152.1 111.129 153.391 111.389 153.742 112.11 154.682 112.68 155.424 113.118 155.974 113.972 157.042 114.156 157.265 115.23 158.556 115.263 158.594 116.35 159.847 116.554 160.081 117.51 161.138 117.845 161.506 118.717 162.429 119.136 162.87 119.976 163.721 120.427 164.174 121.294 165.012 121.719 165.42 122.677 166.303 123.01 166.607 124.136 167.594 124.301 167.738 125.592 168.812 125.684 168.885 126.883 169.829 127.347 170.176 128.175 170.792 129.131 171.468 129.466 171.702 130.757 172.559 131.077 172.759 132.048 173.361 133.228 174.05 133.339 174.114 134.63 174.811 135.683 175.341 135.922 175.461 137.213 176.055 138.504 176.602 138.583 176.632 139.795 177.093 141.086 177.536 142.357 177.924 142.378 177.93 143.669 178.267 144.96 178.554 146.251 178.79 147.542 178.973 148.833 179.102 150.125 179.177 151.416 179.195 152.707 179.155 153.998 179.056 155.289 178.897 156.581 178.676 157.872 178.391 159.163 178.041 159.527 177.924 160.454 177.617 161.745 177.12 162.853 176.632 163.036 176.549 164.328 175.892 165.295 175.341 165.619 175.151 166.91 174.316 167.286 174.05 168.201 173.381 168.983 172.759 169.492 172.34 170.473 171.468 170.783 171.182 171.801 170.176 172.075 169.897 173 168.885 173.366 168.471 174.092 167.594 174.657 166.889 175.099 166.303 175.948 165.136 176.034 165.012 176.893 163.721 177.239 163.181 177.697 162.429 178.455 161.138 178.531 161.005 179.156 159.847 179.822 158.567 179.827 158.556 180.447 157.265 181.042 155.974 181.113 155.816 181.596 154.682 182.126 153.391 182.404 152.69 182.627 152.1 183.1 150.809 183.554 149.518 183.695 149.101 183.98 148.226 184.385 146.935 184.773 145.644 184.986 144.908 185.141 144.353 185.487 143.062 185.819 141.771 186.137 140.479 186.278 139.884 186.436 139.188 186.718 137.897 186.987 136.606 187.244 135.315 187.489 134.023 187.569 133.584 187.718 132.732 187.932 131.441 188.136 130.15 188.329 128.859 188.51 127.568 188.681 126.276 188.841 124.985 188.86 124.823 188.987 123.694 189.122 122.403 189.247 121.112 189.362 119.821 189.467 118.529 189.562 117.238 189.646 115.947 189.721 114.656 189.786 113.365 189.84 112.073 189.884 110.782 189.918 109.491 189.942 108.2 189.956 106.909 189.959 105.618 189.952 104.326 189.934 103.035 189.905 101.744 189.866 100.453 189.816 99.1616 189.755 97.8704 189.683 96.5793 189.599 95.2881 189.504 93.9973 189.398 92.7061 189.279 91.4149 189.149 90.1238 189.007 88.8326 188.86 87.6088" stroke="#0080CC" stroke-width="1.05038" fill="none" transform="matrix(1.23633 0 0 1 216.047 155.532)"/><path d="M182.404 88.0157 182.35 87.5414 182.187 86.2502 182.01 84.959 181.818 83.6679 181.611 82.3767 181.388 81.0855 181.149 79.7943 181.113 79.6108 180.889 78.5032 180.611 77.212 180.316 75.9208 180.004 74.6296 179.822 73.9171 179.67 73.3384 179.314 72.0472 178.939 70.7561 178.546 69.4649 178.531 69.4149 178.124 68.1737 177.681 66.8825 177.239 65.65 177.218 65.5914 176.721 64.3002 176.205 63.009 175.948 62.3957 175.658 61.7178 175.083 60.4266 174.657 59.5081 174.48 59.1355 173.842 57.8443 173.366 56.9163 173.175 56.5531 172.47 55.2619 172.075 54.5643 171.73 53.9707 170.953 52.6796 170.783 52.4082 170.131 51.3884 169.492 50.4241 169.27 50.0972 168.362 48.806 168.201 48.5851 167.402 47.5148 166.91 46.8787 166.39 46.2237 165.619 45.2823 165.324 44.9325 164.328 43.7874 164.197 43.6413 163.036 42.386 163.002 42.3501 161.745 41.0704 161.734 41.0589 160.454 39.8339 160.383 39.7678 159.163 38.67 158.941 38.4766 157.872 37.5726 157.399 37.1854 156.581 36.5363 155.744 35.8942 155.289 35.5555 153.998 34.6271 153.963 34.6031 152.707 33.7597 152.014 33.3119 151.416 32.9365 150.125 32.1574 149.888 32.0207 148.833 31.4299 147.542 30.7362 147.529 30.7295 146.251 30.0953 144.96 29.4836 144.859 29.4383 143.669 28.9208 142.378 28.3886 141.755 28.1472 141.086 27.8959 139.795 27.4405 138.504 27.0151 137.982 26.856 137.213 26.6287 135.922 26.2773 134.63 25.9571 133.339 25.6676 132.824 25.5648 132.048 25.4151 130.757 25.1973 129.466 25.0114 128.175 24.8578 126.883 24.7368 125.592 24.6494 124.301 24.5962 123.01 24.5773 121.719 24.5942 120.427 24.6466 119.136 24.736 117.845 24.8633 116.554 25.0283 115.263 25.232 113.972 25.4758 113.566 25.5648 112.68 25.7677 111.389 26.106 110.098 26.4885 108.988 26.856 108.807 26.9186 107.516 27.4114 106.225 27.953 105.8 28.1472 104.933 28.5619 103.642 29.2327 103.275 29.4383 102.351 29.9815 101.169 30.7295 101.06 30.8016 99.7686 31.7198 99.3716 32.0207 98.4774 32.7352 97.7992 33.3119 97.1863 33.8618 96.4071 34.6031 95.8951 35.1187 95.1664 35.8942 94.6039 36.5292 94.0524 37.1854 93.3127 38.1221 93.0464 38.4766 92.1366 39.7678 92.0215 39.9419 91.3188 41.0589 90.7304 42.0626 90.5696 42.3501 89.8957 43.6413 89.4392 44.5863 89.2793 44.9325 88.7266 46.2237 88.2193 47.5148 88.148 47.7126 87.7699 48.806 87.3634 50.0972 86.9955 51.3884 86.8568 51.9292 86.6721 52.6796 86.3885 53.9707 86.1384 55.2619 85.9205 56.5531 85.7342 57.8443 85.5779 59.1355 85.5656 59.2572 85.4546 60.4266 85.3585 61.7178 85.2883 63.009 85.243 64.3002 85.2222 65.5914 85.2245 66.8825 85.2493 68.1737 85.2954 69.4649 85.3624 70.7561 85.4491 72.0472 85.5546 73.3384 85.5656 73.4546 85.6822 74.6296 85.8284 75.9208 85.9918 77.212 86.1718 78.5032 86.368 79.7943 86.5791 81.0855 86.8052 82.3767 86.8568 82.6532 87.0514 83.6679 87.313 84.959 87.5875 86.2502 87.875 87.5414 88.148 88.7195 88.1752 88.8326 88.4958 90.1238 88.8275 91.4149 89.1702 92.7061 89.4392 93.6893 89.5258 93.9973 89.9 95.2881 90.2837 96.5793 90.6764 97.8704 90.7304 98.0442 91.0888 99.1616 91.5111 100.453 91.9416 101.744 92.0215 101.98 92.391 103.035 92.8503 104.326 93.3127 105.608 93.3167 105.618 93.8047 106.909 94.299 108.2 94.6039 108.986 94.806 109.491 95.3283 110.782 95.8561 112.073 95.8951 112.168 96.4056 113.365 96.9609 114.656 97.1863 115.175 97.5321 115.947 98.1151 117.238 98.4774 118.033 98.7102 118.529 99.3212 119.821 99.7686 120.76 99.9415 121.112 100.581 122.403 101.06 123.364 101.229 123.694 101.897 124.985 102.351 125.858 102.575 126.276 103.273 127.568 103.642 128.248 103.984 128.859 104.711 130.15 104.933 130.542 105.459 131.441 106.217 132.732 106.225 132.746 107.004 134.023 107.516 134.859 107.804 135.315 108.625 136.606 108.807 136.89 109.473 137.897 110.098 138.84 110.337 139.188 111.227 140.479 111.389 140.714 112.148 141.771 112.68 142.51 113.092 143.062 113.972 144.235 114.063 144.353 115.072 145.644 115.263 145.887 116.118 146.935 116.554 147.469 117.199 148.226 117.845 148.982 118.322 149.518 119.136 150.429 119.49 150.809 120.427 151.81 120.711 152.1 121.719 153.126 121.991 153.391 123.01 154.378 123.34 154.682 124.301 155.566 124.766 155.974 125.592 156.693 126.283 157.265 126.883 157.758 127.907 158.556 128.175 158.763 129.466 159.708 129.668 159.847 130.757 160.591 131.611 161.138 132.048 161.416 133.339 162.182 133.789 162.429 134.63 162.888 135.922 163.537 136.323 163.721 137.213 164.125 138.504 164.655 139.481 165.012 139.795 165.126 141.086 165.534 142.378 165.885 143.669 166.175 144.39 166.303 144.96 166.403 146.251 166.566 147.542 166.665 148.833 166.699 150.125 166.666 151.416 166.563 152.707 166.39 153.163 166.303 153.998 166.139 155.289 165.811 156.581 165.403 157.612 165.012 157.872 164.91 159.163 164.324 160.317 163.721 160.454 163.647 161.745 162.863 162.383 162.429 163.036 161.971 164.11 161.138 164.328 160.963 165.597 159.847 165.619 159.827 166.904 158.556 166.91 158.55 168.071 157.265 168.201 157.116 169.128 155.974 169.492 155.509 170.097 154.682 170.783 153.711 170.995 153.391 171.821 152.1 172.075 151.69 172.588 150.809 173.311 149.518 173.366 149.417 173.976 148.226 174.612 146.935 174.657 146.841 175.198 145.644 175.758 144.353 175.948 143.899 176.281 143.062 176.776 141.771 177.239 140.511 177.25 140.479 177.688 139.188 178.107 137.897 178.508 136.606 178.531 136.529 178.878 135.315 179.232 134.023 179.569 132.732 179.822 131.721 179.889 131.441 180.185 130.15 180.466 128.859 180.734 127.568 180.987 126.276 181.113 125.6 181.223 124.985 181.441 123.694 181.647 122.403 181.839 121.112 182.019 119.821 182.186 118.529 182.34 117.238 182.404 116.657 182.479 115.947 182.605 114.656 182.718 113.365 182.818 112.073 182.907 110.782 182.984 109.491 183.048 108.2 183.1 106.909 183.14 105.618 183.167 104.326 183.182 103.035 183.185 101.744 183.175 100.453 183.152 99.1616 183.116 97.8704 183.068 96.5793 183.006 95.2881 182.931 93.9973 182.842 92.7061 182.74 91.4149 182.625 90.1238 182.495 88.8326 182.404 88.0157" stroke="#0080CC" stroke-width="1.05038" fill="none" transform="matrix(1.23633 0 0 1 216.047 155.532)"/><path d="M174.657 86.2676 174.655 86.2502 174.488 84.959 174.304 83.6679 174.1 82.3767 173.879 81.0855 173.639 79.7943 173.38 78.5032 173.366 78.4382 173.093 77.212 172.786 75.9208 172.459 74.6296 172.111 73.3384 172.075 73.2112 171.732 72.0472 171.33 70.7561 170.907 69.4649 170.783 69.1088 170.451 68.1737 169.968 66.8825 169.492 65.6701 169.46 65.5914 168.913 64.3002 168.342 63.009 168.201 62.7061 167.73 61.7178 167.088 60.4266 166.91 60.084 166.403 59.1355 165.685 57.8443 165.619 57.7297 164.916 56.5531 164.328 55.6038 164.109 55.2619 163.251 53.9707 163.036 53.6588 162.34 52.6796 161.745 51.8741 161.375 51.3884 160.454 50.2209 160.353 50.0972 159.262 48.806 159.163 48.6934 158.096 47.5148 157.872 47.2758 156.852 46.2237 156.581 45.9539 155.519 44.9325 155.289 44.7194 154.086 43.6413 153.998 43.5649 152.707 42.4888 152.534 42.3501 151.416 41.4847 150.843 41.0589 150.125 40.543 148.999 39.7678 148.833 39.6575 147.542 38.8378 146.946 38.4766 146.251 38.0701 144.96 37.3516 144.644 37.1854 143.669 36.6899 142.378 36.0699 141.987 35.8942 141.086 35.5023 139.795 34.9776 138.803 34.6031 138.504 34.4939 137.213 34.0611 135.922 33.6648 134.649 33.3119 134.63 33.3071 133.339 32.9999 132.048 32.7309 130.757 32.5009 129.466 32.3102 128.175 32.1601 126.883 32.0514 126.28 32.0207 125.592 31.9868 124.301 31.9648 123.01 31.9852 122.289 32.0207 121.719 32.0502 120.427 32.1629 119.136 32.3232 117.845 32.532 116.554 32.7904 115.263 33.0996 114.502 33.3119 113.972 33.4675 112.68 33.9007 111.389 34.3911 110.889 34.6031 110.098 34.9564 108.807 35.5949 108.255 35.8942 107.516 36.3185 106.225 37.1271 106.139 37.1854 104.933 38.0508 104.384 38.4766 103.642 39.0875 102.873 39.7678 102.351 40.2593 101.557 41.0589 101.06 41.5939 100.4 42.3501 99.7686 43.1249 99.3727 43.6413 98.4774 44.8955 98.4526 44.9325 97.6428 46.2237 97.1863 47.0118 96.9105 47.5148 96.2575 48.806 95.8951 49.5875 95.671 50.0972 95.1514 51.3884 94.6815 52.6796 94.6039 52.9143 94.2726 53.9707 93.911 55.2619 93.5912 56.5531 93.3127 57.8372 93.3115 57.8443 93.0795 59.1355 92.8834 60.4266 92.7215 61.7178 92.5923 63.009 92.4946 64.3002 92.4272 65.5914 92.389 66.8825 92.3784 68.1737 92.3946 69.4649 92.4367 70.7561 92.5029 72.0472 92.5931 73.3384 92.7053 74.6296 92.8397 75.9208 92.9945 77.212 93.1689 78.5032 93.3127 79.4639 93.3639 79.7943 93.5829 81.0855 93.8201 82.3767 94.0737 83.6679 94.3439 84.959 94.6039 86.1336 94.6307 86.2502 94.9419 87.5414 95.2676 88.8326 95.6071 90.1238 95.8951 91.1778 95.962 91.4149 96.3402 92.7061 96.7305 93.9973 97.1327 95.2881 97.1863 95.4555 97.5589 96.5793 97.9973 97.8704 98.4463 99.1616 98.4774 99.2499 98.9202 100.453 99.4047 101.744 99.7686 102.696 99.9025 103.035 100.423 104.326 100.951 105.618 101.06 105.88 101.502 106.909 102.065 108.2 102.351 108.847 102.645 109.491 103.243 110.782 103.642 111.635 103.854 112.073 104.487 113.365 104.933 114.266 105.133 114.656 105.801 115.947 106.225 116.758 106.484 117.238 107.188 118.529 107.516 119.125 107.912 119.821 108.653 121.112 108.807 121.378 109.422 122.403 110.098 123.524 110.204 123.694 111.019 124.985 111.389 125.569 111.856 126.276 112.68 127.523 112.711 127.568 113.606 128.859 113.972 129.383 114.527 130.15 115.263 131.161 115.476 131.441 116.46 132.732 116.554 132.855 117.489 134.023 117.845 134.468 118.556 135.315 119.136 136.003 119.668 136.606 120.427 137.463 120.83 137.897 121.719 138.849 122.051 139.188 123.01 140.162 123.34 140.479 124.301 141.402 124.707 141.771 125.592 142.572 126.166 143.062 126.883 143.671 127.736 144.353 128.175 144.702 129.438 145.644 129.466 145.665 130.757 146.556 131.351 146.935 132.048 147.379 133.339 148.136 133.509 148.226 134.63 148.82 135.922 149.44 136.105 149.518 137.213 149.986 138.504 150.463 139.597 150.809 139.795 150.871 141.086 151.203 142.378 151.464 143.669 151.649 144.96 151.758 146.251 151.787 147.542 151.734 148.833 151.595 150.125 151.369 151.416 151.051 152.18 150.809 152.707 150.636 153.998 150.116 155.236 149.518 155.289 149.491 156.581 148.744 157.36 148.226 157.872 147.875 159.083 146.935 159.163 146.871 160.454 145.717 160.528 145.644 161.745 144.399 161.787 144.353 162.9 143.062 163.036 142.898 163.899 141.771 164.328 141.188 164.811 140.479 165.619 139.248 165.655 139.188 166.416 137.897 166.91 137.024 167.131 136.606 167.79 135.315 168.201 134.472 168.407 134.023 168.977 132.732 169.492 131.512 169.52 131.441 170.015 130.15 170.487 128.859 170.783 128.01 170.93 127.568 171.338 126.276 171.727 124.985 172.075 123.766 172.094 123.694 172.428 122.403 172.744 121.112 173.041 119.821 173.321 118.529 173.366 118.309 173.574 117.238 173.809 115.947 174.027 114.656 174.228 113.365 174.414 112.073 174.582 110.782 174.657 110.15 174.732 109.491 174.863 108.2 174.978 106.909 175.078 105.618 175.162 104.326 175.231 103.035 175.284 101.744 175.32 100.453 175.342 99.1616 175.347 97.8704 175.336 96.5793 175.309 95.2881 175.265 93.9973 175.205 92.7061 175.129 91.4149 175.036 90.1238 174.926 88.8326 174.799 87.5414 174.657 86.2676" stroke="#0080CC" stroke-width="1.05038" fill="none" transform="matrix(1.23633 0 0 1 216.047 155.532)"/><path d="M168.201 82.3271 167.988 81.0855 167.744 79.7943 167.478 78.5032 167.188 77.212 166.91 76.059 166.875 75.9208 166.528 74.6296 166.157 73.3384 165.762 72.0472 165.619 71.6092 165.331 70.7561 164.87 69.4649 164.384 68.1737 164.328 68.0335 163.853 66.8825 163.294 65.5914 163.036 65.0269 162.694 64.3002 162.056 63.009 161.745 62.4087 161.375 61.7178 160.652 60.4266 160.454 60.0887 159.876 59.1355 159.163 58.007 159.057 57.8443 158.174 56.5531 157.872 56.1289 157.232 55.2619 156.581 54.4135 156.228 53.9707 155.289 52.8383 155.153 52.6796 153.998 51.3896 153.997 51.3884 152.747 50.0972 152.707 50.0574 151.416 48.8249 151.395 48.806 150.125 47.6878 149.919 47.5148 148.833 46.6345 148.302 46.2237 147.542 45.6576 146.519 44.9325 146.251 44.7489 144.96 43.9135 144.514 43.6413 143.669 43.1434 142.378 42.4277 142.227 42.3501 141.086 41.781 139.795 41.1811 139.51 41.0589 138.504 40.6438 137.213 40.1554 136.084 39.7678 135.922 39.7142 134.63 39.3337 133.339 38.9989 132.048 38.7102 130.795 38.4766 130.757 38.4699 129.466 38.2859 128.175 38.1505 126.883 38.0642 125.592 38.0287 124.301 38.0449 123.01 38.1142 121.719 38.2383 120.427 38.4187 120.11 38.4766 119.136 38.6649 117.845 38.976 116.554 39.3514 115.334 39.7678 115.263 39.7938 113.972 40.3283 112.68 40.9365 112.448 41.0589 111.389 41.651 110.265 42.3501 110.098 42.4608 108.807 43.401 108.505 43.6413 107.516 44.4831 107.029 44.9325 106.225 45.7305 105.764 46.2237 104.933 47.1824 104.665 47.5148 103.702 48.806 103.642 48.8931 102.867 50.0972 102.351 50.9724 102.121 51.3884 101.468 52.6796 101.06 53.5713 100.887 53.9707 100.384 55.2619 99.9344 56.5531 99.7686 57.0888 99.5476 57.8443 99.2164 59.1355 98.93 60.4266 98.687 61.7178 98.4857 63.009 98.4774 63.0736 98.3305 64.3002 98.2123 65.5914 98.1284 66.8825 98.078 68.1737 98.0595 69.4649 98.0709 70.7561 98.1119 72.0472 98.1804 73.3384 98.2758 74.6296 98.3963 75.9208 98.4774 76.6456 98.5436 77.212 98.7181 78.5032 98.9158 79.7943 99.1352 81.0855 99.3751 82.3767 99.6351 83.6679 99.7686 84.2851 99.9199 84.959 100.229 86.2502 100.555 87.5414 100.898 88.8326 101.06 89.4144 101.265 90.1238 101.654 91.4149 102.058 92.7061 102.351 93.6113 102.481 93.9973 102.93 95.2881 103.391 96.5793 103.642 97.2627 103.874 97.8704 104.38 99.1616 104.896 100.453 104.933 100.545 105.443 101.744 106.002 103.035 106.225 103.539 106.586 104.326 107.188 105.618 107.516 106.31 107.811 106.909 108.456 108.2 108.807 108.892 109.123 109.491 109.812 110.782 110.098 111.312 110.527 112.073 111.26 113.365 111.389 113.59 112.029 114.656 112.68 115.736 112.813 115.947 113.635 117.238 113.972 117.763 114.485 118.529 115.263 119.683 115.36 119.821 116.279 121.112 116.554 121.497 117.234 122.403 117.845 123.213 118.226 123.694 119.136 124.839 119.259 124.985 120.346 126.276 120.427 126.373 121.493 127.568 121.719 127.82 122.702 128.859 123.01 129.183 123.984 130.15 124.301 130.463 125.353 131.441 125.592 131.663 126.824 132.732 126.883 132.784 128.175 133.823 128.442 134.023 129.466 134.785 130.238 135.315 130.757 135.67 132.048 136.477 132.276 136.606 133.339 137.204 134.63 137.856 134.724 137.897 135.922 138.424 137.213 138.915 138.074 139.188 138.504 139.324 139.795 139.648 141.086 139.889 142.378 140.042 143.669 140.105 144.96 140.074 146.251 139.946 147.542 139.717 148.833 139.382 149.399 139.188 150.125 138.932 151.416 138.361 152.283 137.897 152.707 137.662 153.998 136.823 154.289 136.606 155.289 135.83 155.875 135.315 156.581 134.669 157.212 134.023 157.872 133.321 158.371 132.732 159.163 131.76 159.4 131.441 160.319 130.15 160.454 129.953 161.142 128.859 161.745 127.854 161.904 127.568 162.591 126.276 163.036 125.398 163.231 124.985 163.814 123.694 164.328 122.493 164.364 122.403 164.858 121.112 165.325 119.821 165.619 118.961 165.758 118.529 166.151 117.238 166.521 115.947 166.866 114.656 166.91 114.482 167.175 113.365 167.461 112.073 167.725 110.782 167.967 109.491 168.188 108.2 168.201 108.114 168.38 106.909 168.551 105.618 168.702 104.326 168.833 103.035 168.945 101.744 169.036 100.453 169.108 99.1616 169.16 97.8704 169.192 96.5793 169.204 95.2881 169.196 93.9973 169.168 92.7061 169.12 91.4149 169.052 90.1238 168.963 88.8326 168.854 87.5414 168.724 86.2502 168.573 84.959 168.402 83.6679 168.209 82.3767 168.201 82.3271" stroke="#0080CC" stroke-width="1.05038" fill="none" transform="matrix(1.23633 0 0 1 216.047 155.532)"/><path d="M161.745 88.9846 161.739 88.8326 161.664 87.5414 161.56 86.2502 161.431 84.959 161.273 83.6679 161.089 82.3767 160.877 81.0855 160.638 79.7943 160.454 78.9037 160.368 78.5032 160.06 77.212 159.724 75.9208 159.358 74.6296 159.163 73.9919 158.954 73.3384 158.511 72.0472 158.037 70.7561 157.872 70.3354 157.516 69.4649 156.955 68.1737 156.581 67.3603 156.351 66.8825 155.695 65.5914 155.289 64.8339 154.991 64.3002 154.231 63.009 153.998 62.6328 153.407 61.7178 152.707 60.6858 152.523 60.4266 151.563 59.1355 151.416 58.9464 150.516 57.8443 150.125 57.385 149.379 56.5531 148.833 55.9697 148.137 55.2619 147.542 54.6837 146.769 53.9707 146.251 53.5134 145.252 52.6796 144.96 52.446 143.669 51.4747 143.546 51.3884 142.378 50.601 141.576 50.0972 141.086 49.8022 139.795 49.0833 139.251 48.806 138.504 48.4405 137.213 47.8678 136.325 47.5148 135.922 47.3608 134.63 46.9287 133.339 46.5561 132.048 46.2445 131.939 46.2237 130.757 46.0074 129.466 45.8337 128.175 45.7238 126.883 45.6805 125.592 45.7057 124.301 45.8018 123.01 45.9708 121.719 46.215 121.684 46.2237 120.427 46.5557 119.136 46.9827 117.845 47.4987 117.811 47.5148 116.554 48.1435 115.409 48.806 115.263 48.8974 113.972 49.8081 113.606 50.0972 112.68 50.8901 112.156 51.3884 111.389 52.1817 110.952 52.6796 110.098 53.7427 109.93 53.9707 109.065 55.2619 108.807 55.6889 108.324 56.5531 107.679 57.8443 107.516 58.2106 107.133 59.1355 106.663 60.4266 106.256 61.7178 106.225 61.8332 105.926 63.009 105.651 64.3002 105.427 65.5914 105.251 66.8825 105.121 68.1737 105.034 69.4649 104.989 70.7561 104.983 72.0472 105.015 73.3384 105.082 74.6296 105.183 75.9208 105.316 77.212 105.48 78.5032 105.672 79.7943 105.892 81.0855 106.137 82.3767 106.225 82.7915 106.417 83.6679 106.725 84.959 107.056 86.2502 107.409 87.5414 107.516 87.9097 107.795 88.8326 108.208 90.1238 108.639 91.4149 108.807 91.8963 109.102 92.7061 109.591 93.9973 110.097 95.2881 110.098 95.2912 110.645 96.5793 111.208 97.8704 111.389 98.2754 111.806 99.1616 112.426 100.453 112.68 100.97 113.079 101.744 113.758 103.035 113.972 103.433 114.475 104.326 115.214 105.618 115.263 105.702 116.002 106.909 116.554 107.797 116.817 108.2 117.673 109.491 117.845 109.747 118.58 110.782 119.136 111.559 119.526 112.073 120.427 113.251 120.52 113.365 121.58 114.656 121.719 114.823 122.71 115.947 123.01 116.285 123.915 117.238 124.301 117.641 125.212 118.529 125.592 118.898 126.62 119.821 126.883 120.055 128.167 121.112 128.175 121.118 129.466 122.08 129.943 122.403 130.757 122.95 131.989 123.694 132.048 123.729 133.339 124.408 134.602 124.985 134.63 124.998 135.922 125.485 137.213 125.877 138.504 126.17 139.231 126.276 139.795 126.358 141.086 126.437 142.378 126.406 143.51 126.276 143.669 126.257 144.96 125.982 146.251 125.574 147.542 125.029 147.626 124.985 148.833 124.322 149.775 123.694 150.125 123.45 151.4 122.403 151.416 122.389 152.704 121.112 152.707 121.109 153.8 119.821 153.998 119.575 154.752 118.529 155.289 117.74 155.599 117.238 156.351 115.947 156.581 115.531 157.021 114.656 157.631 113.365 157.872 112.821 158.177 112.073 158.671 110.782 159.127 109.491 159.163 109.384 159.526 108.2 159.89 106.909 160.222 105.618 160.454 104.621 160.518 104.326 160.773 103.035 161 101.744 161.199 100.453 161.369 99.1616 161.511 97.8704 161.625 96.5793 161.713 95.2881 161.745 94.5889 161.771 93.9973 161.802 92.7061 161.807 91.4149 161.786 90.1238 161.745 88.9846" stroke="#0080CC" stroke-width="1.05038" fill="none" transform="matrix(1.23633 0 0 1 216.047 155.532)"/><path d="M151.416 82.4263 151.41 82.3767 151.207 81.0855 150.96 79.7943 150.672 78.5032 150.341 77.212 150.125 76.4675 149.956 75.9208 149.512 74.6296 149.024 73.3384 148.833 72.8792 148.467 72.0472 147.85 70.7561 147.542 70.1593 147.161 69.4649 146.4 68.1737 146.251 67.939 145.537 66.8825 144.96 66.0798 144.583 65.5914 143.669 64.4755 143.514 64.3002 142.378 63.0894 142.296 63.009 141.086 61.8888 140.884 61.7178 139.795 60.8465 139.214 60.4266 138.504 59.9402 137.213 59.15 137.185 59.1355 135.922 58.4993 134.63 57.9424 134.351 57.8443 133.339 57.5071 132.048 57.1751 130.757 56.9446 129.466 56.8213 128.175 56.8099 126.883 56.9171 125.592 57.1491 124.301 57.513 123.446 57.8443 123.01 58.0302 121.719 58.7353 121.123 59.1355 120.427 59.6554 119.562 60.4266 119.136 60.8528 118.393 61.7178 117.845 62.4449 117.472 63.009 116.732 64.3002 116.554 64.6626 116.147 65.5914 115.674 66.8825 115.288 68.1737 115.263 68.2809 115.008 69.4649 114.801 70.7561 114.659 72.0472 114.58 73.3384 114.558 74.6296 114.591 75.9208 114.675 77.212 114.807 78.5032 114.983 79.7943 115.201 81.0855 115.263 81.3908 115.474 82.3767 115.79 83.6679 116.142 84.959 116.528 86.2502 116.554 86.329 116.976 87.5414 117.457 88.8326 117.845 89.8138 117.976 90.1238 118.555 91.4149 119.136 92.6592 119.16 92.7061 119.839 93.9973 120.427 95.0785 120.55 95.2881 121.335 96.5793 121.719 97.1934 122.176 97.8704 123.01 99.0742 123.076 99.1616 124.074 100.453 124.301 100.74 125.168 101.744 125.592 102.227 126.375 103.035 126.883 103.551 127.733 104.326 128.175 104.723 129.294 105.618 129.466 105.753 130.757 106.638 131.221 106.909 132.048 107.385 133.339 108.001 133.876 108.2 134.63 108.476 135.922 108.809 137.213 108.999 138.504 109.037 139.795 108.912 141.086 108.614 142.192 108.2 142.378 108.126 143.669 107.411 144.366 106.909 144.96 106.449 145.829 105.618 146.251 105.18 146.944 104.326 147.542 103.52 147.852 103.035 148.605 101.744 148.833 101.311 149.232 100.453 149.769 99.1616 150.125 98.1938 150.231 97.8704 150.605 96.5793 150.925 95.2881 151.192 93.9973 151.408 92.7061 151.416 92.647 151.562 91.4149 151.67 90.1238 151.734 88.8326 151.754 87.5414 151.731 86.2502 151.666 84.959 151.558 83.6679 151.416 82.4263" stroke="#0080CC" stroke-width="1.05038" fill="none" transform="matrix(1.23633 0 0 1 216.047 155.532)"/><path d="M141.086 81.1103 141.084 81.0855 140.822 79.7943 140.464 78.5032 140.015 77.212 139.795 76.6916 139.421 75.9208 138.696 74.6296 138.504 74.331 137.758 73.3384 137.213 72.6885 136.565 72.0472 135.922 71.4722 134.914 70.7561 134.63 70.5729 133.339 69.9734 132.048 69.6114 130.757 69.5173 129.466 69.7272 128.175 70.2838 127.521 70.7561 126.883 71.3339 126.329 72.0472 125.592 73.3105 125.58 73.3384 125.16 74.6296 124.901 75.9208 124.784 77.212 124.793 78.5032 124.914 79.7943 125.135 81.0855 125.445 82.3767 125.592 82.8561 125.878 83.6679 126.416 84.959 126.883 85.9454 127.052 86.2502 127.848 87.5414 128.175 88.0267 128.819 88.8326 129.466 89.5853 130.035 90.1238 130.757 90.7638 131.711 91.4149 132.048 91.632 133.339 92.1933 134.63 92.4757 135.922 92.4395 137.213 92.0369 138.196 91.4149 138.504 91.1802 139.415 90.1238 139.795 89.5672 140.169 88.8326 140.667 87.5414 141.011 86.2502 141.086 85.7827 141.193 84.959 141.256 83.6679 141.218 82.3767 141.086 81.1103" stroke="#0080CC" stroke-width="1.05038" fill="none" transform="matrix(1.23633 0 0 1 216.047 155.532)"/><path d="M74.4346 182.293 77.5858 182.293" stroke="#FCFCFC" stroke-width="0.262595" fill="none" transform="matrix(1.23633 0 0 1 216.047 155.532)"/><path d="M76.0102 180.718 76.0102 183.869" stroke="#FCFCFC" stroke-width="0.262595" fill="none" transform="matrix(1.23633 0 0 1 216.047 155.532)"/><path d="M74.9073 183.396 77.1131 181.191" stroke="#FCFCFC" stroke-width="0.262595" fill="#FCFCFC" transform="matrix(1.23633 0 0 1 216.047 155.532)"/><path d="M74.9073 181.191 77.1131 183.396" stroke="#FCFCFC" stroke-width="0.262595" fill="#FCFCFC" transform="matrix(1.23633 0 0 1 216.047 155.532)"/><path d="M191.482 15.3618 194.633 15.3618" stroke="#FCFCFC" stroke-width="0.262595" fill="none" transform="matrix(1.23633 0 0 1 216.047 155.532)"/><path d="M193.058 13.7862 193.058 16.9374" stroke="#FCFCFC" stroke-width="0.262595" fill="none" transform="matrix(1.23633 0 0 1 216.047 155.532)"/><path d="M191.955 16.4647 194.161 14.2589" stroke="#FCFCFC" stroke-width="0.262595" fill="#FCFCFC" transform="matrix(1.23633 0 0 1 216.047 155.532)"/><path d="M191.955 14.2589 194.161 16.4647" stroke="#FCFCFC" stroke-width="0.262595" fill="#FCFCFC" transform="matrix(1.23633 0 0 1 216.047 155.532)"/><path d="M111.271 154.05 118.673 148.488 124.242 143.514 128.432 139.013 131.57 134.899 133.898 131.109 135.603 127.596 136.825 124.324 137.674 121.266 138.234 118.401 138.572 115.711 138.74 113.183 138.779 110.809 138.721 108.577 138.591 106.481 138.409 104.514 138.19 102.671 137.947 100.946 137.689 99.3345 137.424 97.8303 137.156 96.4292 136.891 95.1266 136.631 93.9169 136.379 92.7959 136.136 91.7584 135.905 90.7997 135.685 89.9154 135.477 89.1012 135.282 88.3516 135.098 87.6631 134.926 87.0313 134.766 86.4523 134.618 85.9221 134.48 85.4368 134.352 84.9937 134.234 84.5888 134.125 84.2193 134.025 83.8825 133.932 83.5757 133.848 83.296 133.77 83.0416 133.699 82.8104 133.634 82.5996 133.574 82.4086 133.52 82.2345 133.47 82.0765 133.424 81.9336 133.383 81.8032 133.345 81.685 133.311 81.5779 133.28 81.4806 133.251 81.3927 133.225 81.3128 133.202 81.2403 133.181 81.1745 133.161 81.1151 133.144 81.0607 133.127 81.0118 133.113 80.9677 133.1 80.9276 133.088 80.8909 133.077 80.8582 133.067 80.8283 133.058 80.8011 133.05 80.7767 133.043 80.7546 133.036 80.7346 133.03 80.716 133.025 80.6999 133.019 80.6849 133.015 80.6711 133.011 80.6589 133.007 80.6479 133.004 80.638 133.001 80.6286 132.998 80.6207 132.996 80.6132 132.993 80.6065 132.991 80.6002 132.99 80.5947 132.988 80.5896 132.986 80.5853 132.985 80.5809 132.984 80.5774 132.983 80.5738 132.982 80.5711 132.981 80.5683 132.98 80.5656 132.979 80.5632 132.978 80.5612 132.978 80.5597 132.977 80.5577 132.977 80.5561 132.976 80.5549 132.976 80.5538 132.975 80.5526 132.975 80.5514 132.975 80.5506 132.975 80.5498 132.974 80.549 132.974 80.5482 132.974 80.5479 132.974 80.5471 132.973 80.5467 132.973 80.5463 132.973 80.5459 132.973 80.5455 132.973 80.5451 132.973 80.5447 132.973 80.5443 132.973 80.5443 132.973 80.5439 132.973 80.5439 132.973 80.5435 132.973 80.5435 132.972 80.5431 132.972 80.5431 132.972 80.5431 132.972 80.5427 132.972 80.5427 132.972 80.5427 132.972 80.5427 132.972 80.5423 132.972 80.5423 132.972 80.5423 132.972 80.5423 132.972 80.5423 132.972 80.5423 132.972 80.5423 132.972 80.5419 132.972 80.5419 132.972 80.5419 132.972 80.5419 132.972 80.5419 132.972 80.5419 132.972 80.5419 132.972 80.5419 132.972 80.5419 132.972 80.5419 132.972 80.5419 132.972 80.5419 132.972 80.5419 132.972 80.5419 132.972 80.5419 132.972 80.5419 132.972 80.5419 132.972 80.5419 132.972 80.5419 132.972 80.5419 132.972 80.5419 132.972 80.5419 132.972 80.5419 132.972 80.5419 132.972 80.5419 132.972 80.5419 132.972 80.5419 132.972 80.5419 132.972 80.5419 132.972 80.5419 132.972 80.5419 132.972 80.5419 132.972 80.5419 132.972 80.5419 132.972 80.5419 132.972 80.5419 132.972 80.5419 132.972 80.5419 132.972 80.5419 132.972 80.5419 132.972 80.5419 132.972 80.5419 132.972 80.5419 132.972 80.5419 132.972 80.5419 132.972 80.5419 132.972 80.5419 132.972 80.5419 132.972 80.5419 132.972 80.5419 132.972 80.5419 132.972 80.5419 132.972 80.5419 132.972 80.5419 132.972 80.5419 132.972 80.5419 132.972 80.5419 132.972 80.5419 132.972 80.5419 132.972 80.5419 132.972 80.5419 132.972 80.5419 132.972 80.5419 132.972 80.5419 132.972 80.5419 132.972 80.5419 132.972 80.5419 132.972 80.5419 132.972 80.5419 132.972 80.5419 132.972 80.5419 132.972 80.5419 132.972 80.5419" stroke="#00C745" stroke-width="1.57557" fill="none" transform="matrix(1.23633 0 0 1 216.047 155.532)"/><path d="M111.271 154.05 111.665 151.456 112.059 148.985 112.45 146.613 112.837 144.327 113.218 142.114 113.591 139.967 113.957 137.88 114.315 135.848 114.664 133.867 115.005 131.937 115.338 130.055 115.664 128.222 115.982 126.437 116.293 124.7 116.598 123.012 116.897 121.373 117.19 119.784 117.478 118.246 117.761 116.759 118.04 115.323 118.315 113.938 118.586 112.605 118.854 111.323 119.119 110.091 119.38 108.908 119.639 107.773 119.894 106.686 120.146 105.645 120.396 104.648 120.643 103.694 120.887 102.782 121.128 101.909 121.366 101.075 121.601 100.277 121.833 99.5138 122.062 98.7843 122.287 98.0867 122.51 97.419 122.729 96.7809 122.945 96.17 123.158 95.5855 123.367 95.0258 123.573 94.4901 123.776 93.9768 123.975 93.4852 124.171 93.0142 124.363 92.5624 124.552 92.1295 124.738 91.7139 124.92 91.3153 125.099 90.9328 125.274 90.5653 125.446 90.2128 125.615 89.874 125.781 89.5487 125.943 89.2355 126.102 88.935 126.258 88.6459 126.411 88.3678 126.56 88.0999 126.707 87.8427 126.851 87.5946 126.991 87.3559 127.129 87.1262 127.263 86.9049 127.395 86.6918 127.525 86.4862 127.651 86.2884 127.774 86.0974 127.895 85.9134 128.014 85.7358 128.129 85.5649 128.243 85.3998 128.353 85.2403 128.461 85.0867 128.567 84.9386 128.671 84.7952 128.772 84.6569 128.871 84.5234 128.967 84.3946 129.062 84.2701 129.155 84.15 129.245 84.0342 129.333 83.9219 129.419 83.8136 129.504 83.7088 129.586 83.6076 129.666 83.5095 129.745 83.415 129.822 83.3236 129.897 83.2354 129.97 83.1499 130.042 83.0672 130.112 82.9872 130.18 82.91 130.247 82.8352 130.312 82.7631 130.376 82.693 130.438 82.6256 130.499 82.5599 130.558 82.4968 130.616 82.4354 130.672 82.3759 130.727 82.3188 130.781 82.2632 130.834 82.2093 130.885 82.1573 130.936 82.1069 130.985 82.058 131.033 82.0108 131.08 81.9651 131.125 81.921 131.169 81.878 131.213 81.8367 131.256 81.7965 131.297 81.7575 131.338 81.7201 131.377 81.6834 131.415 81.648 131.453 81.6137 131.49 81.5806 131.526 81.5487 131.561 81.5176 131.595 81.4873 131.628 81.4581 131.661 81.4302 131.693 81.4026 131.724 81.3762 131.754 81.3506 131.783 81.3254 131.812 81.3014 131.841 81.2781 131.868 81.2553 131.895 81.2336 131.921 81.2123 131.946 81.1915 131.971 81.1718 131.996 81.1525 132.019 81.1336 132.043 81.1154 132.065 81.0977 132.087 81.0808 132.109 81.0642 132.13 81.0485 132.151 81.0327 132.171 81.0178 132.19 81.0032 132.209 80.989 132.228 80.9756 132.246 80.9622 132.264 80.9492 132.281 80.937 132.298 80.9248 132.314 80.913 132.33 80.9016 132.346 80.8905 132.361 80.8799 132.376 80.8697 132.391 80.8598 132.405 80.85 132.419 80.8405 132.432 80.8315 132.446 80.8228 132.458 80.8141 132.471 80.8058 132.483 80.7976 132.495 80.7901 132.507 80.7822 132.518 80.7751 132.529 80.768 132.54 80.7609 132.551 80.7542 132.561 80.7479 132.571 80.7416 132.581 80.7353 132.59 80.7294 132.6 80.7239 132.609 80.7184 132.618 80.7129 132.626 80.7078 132.635 80.7026 132.643 80.6979 132.651 80.6932 132.659 80.6885 132.667 80.6841 132.674 80.6798 132.681 80.6755 132.689 80.6715 132.696 80.6676 132.702 80.6637 132.709 80.6597 132.715 80.6562 132.722 80.653 132.728 80.6495 132.734 80.6463 132.74 80.6432 132.745 80.64 132.751 80.6369 132.756 80.6341 132.762 80.6313 132.767 80.6286" stroke="#DD0F23" stroke-width="1.57557" fill="none" transform="matrix(1.23633 0 0 1 216.047 155.532)"/><path d="M120.365 120.169 118.89 111.056 114.364 118.311C114.364 118.311 114.735 118.207 114.97 118.121 115.205 118.036 115.938 117.974 116.199 117.978 116.459 117.983 116.483 117.957 116.821 118.025 117.159 118.093 117.303 118.077 117.639 118.19 117.975 118.303 118.405 118.566 118.669 118.71 118.932 118.854 118.975 118.87 119.219 119.053 119.464 119.236 119.779 119.513 119.958 119.695 120.138 119.877 120.365 120.169 120.365 120.169Z" fill="#DD0F23" fill-rule="evenodd" transform="matrix(1.23633 0 0 1 216.047 155.532)"/><path d="M137.755 130.933 137.553 121.643 132.096 127.846C132.096 127.846 132.476 127.821 132.719 127.786 132.963 127.751 133.694 127.843 133.949 127.902 134.205 127.961 134.233 127.941 134.557 128.078 134.881 128.216 135.024 128.23 135.34 128.412 135.656 128.594 136.044 128.944 136.284 129.14 136.524 129.337 136.563 129.362 136.779 129.593 136.995 129.825 137.267 130.165 137.419 130.381 137.571 130.598 137.755 130.933 137.755 130.933Z" fill="#00C745" fill-rule="evenodd" transform="matrix(1.23633 0 0 1 216.047 155.532)"/><path d="M112.433 154.05 112.427 153.934 112.409 153.819 112.381 153.706 112.341 153.597 112.29 153.492 112.23 153.394 112.159 153.301 112.08 153.216 111.993 153.139 111.899 153.072 111.798 153.014 111.692 152.967 111.581 152.93 111.468 152.905 111.353 152.891 111.237 152.888 111.121 152.897 111.006 152.918 110.895 152.95 110.787 152.993 110.684 153.047 110.586 153.11 110.496 153.183 110.414 153.265 110.34 153.354 110.275 153.451 110.22 153.553 110.176 153.661 110.142 153.772 110.12 153.886 110.109 154.001 110.111 154.117 110.123 154.233 110.147 154.347 110.182 154.457 110.228 154.564 110.285 154.665 110.351 154.761 110.427 154.849 110.511 154.929 110.603 155.001 110.701 155.062 110.805 155.114 110.913 155.155 111.026 155.186 111.14 155.204 111.256 155.212 111.372 155.207 111.487 155.191 111.6 155.164 111.71 155.125 111.815 155.076 111.915 155.017 112.008 154.948 112.094 154.869 112.172 154.783 112.24 154.689 112.3 154.59 112.348 154.484 112.386 154.374 112.413 154.261 112.429 154.146" fill="#0080CC" transform="matrix(1.23633 0 0 1 216.047 155.532)"/><path d="M133.929 80.6286 133.923 80.5124 133.906 80.3978 133.877 80.2851 133.837 80.176 133.787 80.0712 133.726 79.9724 133.656 79.8798 133.576 79.7947 133.489 79.7183 133.395 79.6506 133.294 79.593 133.188 79.5454 133.078 79.5088 132.964 79.4835 132.849 79.4694 132.733 79.467 132.617 79.4761 132.503 79.4969 132.391 79.5288 132.283 79.5718 132.18 79.6254 132.083 79.6892 131.993 79.762 131.91 79.8436 131.836 79.933 131.771 80.0295 131.716 80.1319 131.672 80.2394 131.638 80.3505 131.616 80.4643 131.606 80.5801 131.607 80.6963 131.62 80.8118 131.644 80.9256 131.679 81.0363 131.725 81.1426 131.781 81.2442 131.848 81.3396 131.923 81.4278 132.007 81.5082 132.099 81.5794 132.197 81.6413 132.301 81.6933 132.41 81.7343 132.522 81.7646 132.637 81.7831 132.752 81.7906 132.869 81.7862 132.984 81.7701 133.097 81.7429 133.206 81.7043 133.311 81.6551 133.411 81.5956 133.504 81.5267 133.591 81.4483 133.668 81.362 133.737 81.2683 133.796 81.1682 133.845 81.0631 133.882 80.9532 133.91 80.8401 133.925 80.7251" fill="#0080CC" transform="matrix(1.23633 0 0 1 216.047 155.532)"/><text font-family="Arial,Arial_MSFontService,sans-serif" font-style="italic" font-weight="400" font-size="33" transform="matrix(0.438269 0 0 0.437674 383.453 239)">x</text><text font-family="Arial,Arial_MSFontService,sans-serif" font-style="italic" font-weight="400" font-size="33" transform="matrix(0.438269 0 0 0.437674 346.505 321)">x</text><text font-family="Arial,Arial_MSFontService,sans-serif" font-style="italic" font-weight="400" font-size="21" transform="matrix(0.438269 0 0 0.437674 354.278 326)">0</text></g></svg>