<?xml version="1.0" encoding="UTF-8" standalone="no"?>
<!DOCTYPE svg PUBLIC "-//W3C//DTD SVG 1.1//EN" "http://www.w3.org/Graphics/SVG/1.1/DTD/svg11.dtd">
<svg width="100%" height="100%" viewBox="0 0 1183 625" version="1.1" xmlns="http://www.w3.org/2000/svg" xmlns:xlink="http://www.w3.org/1999/xlink" xml:space="preserve" xmlns:serif="http://www.serif.com/" style="fill-rule:evenodd;clip-rule:evenodd;stroke-linecap:round;stroke-linejoin:round;stroke-miterlimit:1.5;">
    <g transform="matrix(1,0,0,1,-1366.79,-1073.79)">
        <g transform="matrix(0.751439,0,0,1,523.947,-277.449)">
            <path d="M1146.2,1704.08L2683.55,1704.08" style="fill:none;stroke:black;stroke-width:19.62px;"/>
        </g>
        <g transform="matrix(1,0,0,1,-143.078,-277.449)">
            <path d="M2683.55,1704.08L2633.91,1654.45" style="fill:none;stroke:black;stroke-width:17.35px;"/>
        </g>
        <g transform="matrix(1,0,0,1,-143.078,-277.449)">
            <path d="M2683.55,1704.08L2633.67,1753.96" style="fill:none;stroke:black;stroke-width:17.35px;"/>
        </g>
        <g transform="matrix(1.28848,0,0,1.28848,-830.698,-821.721)">
            <g transform="matrix(126.4,0,0,126.4,2536.63,1871.32)">
                <path d="M0.198,-0.253L0.03,-0.474L0.146,-0.474L0.261,-0.306L0.374,-0.474L0.483,-0.474L0.321,-0.253L0.513,-0L0.397,-0L0.257,-0.199L0.117,-0L0.006,-0L0.198,-0.253Z" style="fill-rule:nonzero;"/>
            </g>
        </g>
        <g transform="matrix(0.788077,-0.589105,0.598729,0.800952,-613.764,1621.65)">
            <path d="M2392.62,1801.32L2477.28,1802.43" style="fill:none;stroke:black;stroke-width:9.36px;"/>
        </g>
        <g transform="matrix(0.800952,-0.598729,0.598729,0.800952,-645.658,1645.49)">
            <path d="M2477.28,1802.43L2454.24,1779.39" style="fill:none;stroke:black;stroke-width:9.28px;"/>
        </g>
        <g transform="matrix(0.800952,-0.598729,0.598729,0.800952,-645.658,1645.49)">
            <path d="M2477.28,1802.43L2452.71,1827.01" style="fill:none;stroke:black;stroke-width:9.28px;"/>
        </g>
        <g transform="matrix(0.574924,0.00176438,-0.00176438,0.574924,939.582,578.721)">
            <g transform="matrix(96.2398,0,0,96.2398,1892.78,1888.98)">
                <path d="M0.27,-0.598L0.14,-0.478L0.084,-0.545L0.281,-0.708L0.366,-0.708L0.366,-0L0.27,-0L0.27,-0.598Z" style="fill-rule:nonzero;"/>
            </g>
            <g transform="matrix(96.2398,0,0,96.2398,1946.29,1888.98)">
                <path d="M0.075,-0.708L0.322,-0.708C0.372,-0.708 0.416,-0.702 0.454,-0.691C0.491,-0.68 0.524,-0.665 0.552,-0.646C0.579,-0.626 0.602,-0.605 0.621,-0.58C0.639,-0.555 0.653,-0.53 0.664,-0.504C0.675,-0.478 0.682,-0.452 0.687,-0.426C0.692,-0.4 0.694,-0.376 0.694,-0.354C0.694,-0.309 0.686,-0.265 0.669,-0.223C0.652,-0.18 0.628,-0.142 0.595,-0.11C0.562,-0.077 0.522,-0.05 0.474,-0.03C0.425,-0.01 0.369,-0 0.306,-0L0.075,-0L0.075,-0.708ZM0.171,-0.09L0.292,-0.09C0.333,-0.09 0.371,-0.095 0.408,-0.107C0.444,-0.117 0.476,-0.134 0.503,-0.156C0.53,-0.178 0.552,-0.206 0.568,-0.239C0.584,-0.272 0.592,-0.31 0.592,-0.354C0.592,-0.377 0.588,-0.403 0.581,-0.434C0.574,-0.464 0.56,-0.493 0.54,-0.52C0.519,-0.547 0.491,-0.571 0.455,-0.59C0.419,-0.608 0.372,-0.618 0.315,-0.618L0.171,-0.618L0.171,-0.09Z" style="fill-rule:nonzero;"/>
            </g>
            <g transform="matrix(96.2398,0,0,96.2398,2044.35,1888.98)">
                <path d="M0.136,-0.204C0.136,-0.183 0.14,-0.165 0.15,-0.148C0.159,-0.13 0.17,-0.116 0.185,-0.104C0.2,-0.092 0.217,-0.083 0.236,-0.076C0.255,-0.069 0.275,-0.066 0.296,-0.066C0.324,-0.066 0.348,-0.073 0.369,-0.086C0.39,-0.098 0.409,-0.116 0.426,-0.137L0.494,-0.085C0.444,-0.02 0.374,0.012 0.284,0.012C0.247,0.012 0.213,0.006 0.183,-0.007C0.152,-0.02 0.127,-0.037 0.106,-0.06C0.085,-0.082 0.068,-0.108 0.057,-0.139C0.046,-0.169 0.04,-0.202 0.04,-0.237C0.04,-0.272 0.046,-0.305 0.059,-0.336C0.071,-0.366 0.088,-0.392 0.11,-0.415C0.131,-0.437 0.157,-0.454 0.187,-0.467C0.217,-0.48 0.25,-0.486 0.285,-0.486C0.327,-0.486 0.363,-0.479 0.392,-0.464C0.421,-0.449 0.444,-0.43 0.463,-0.407C0.482,-0.383 0.495,-0.356 0.504,-0.327C0.512,-0.297 0.516,-0.267 0.516,-0.236L0.516,-0.204L0.136,-0.204ZM0.42,-0.276C0.419,-0.296 0.416,-0.314 0.411,-0.331C0.405,-0.348 0.396,-0.362 0.385,-0.375C0.374,-0.387 0.36,-0.397 0.343,-0.404C0.326,-0.411 0.306,-0.414 0.283,-0.414C0.261,-0.414 0.241,-0.41 0.223,-0.402C0.204,-0.393 0.189,-0.382 0.176,-0.369C0.163,-0.356 0.154,-0.341 0.147,-0.325C0.139,-0.308 0.136,-0.292 0.136,-0.276L0.42,-0.276Z" style="fill-rule:nonzero;"/>
            </g>
            <g transform="matrix(96.2398,0,0,96.2398,2097.86,1888.98)">
                <path d="M0.198,-0.253L0.03,-0.474L0.146,-0.474L0.261,-0.306L0.374,-0.474L0.483,-0.474L0.321,-0.253L0.513,-0L0.397,-0L0.257,-0.199L0.117,-0L0.006,-0L0.198,-0.253Z" style="fill-rule:nonzero;"/>
            </g>
            <g transform="matrix(96.2398,0,0,96.2398,2147.81,1888.98)">
                <path d="M0.07,-0.416C0.095,-0.439 0.125,-0.457 0.158,-0.469C0.191,-0.48 0.225,-0.486 0.258,-0.486C0.293,-0.486 0.323,-0.482 0.348,-0.473C0.373,-0.464 0.393,-0.453 0.409,-0.438C0.425,-0.423 0.437,-0.407 0.445,-0.388C0.452,-0.369 0.456,-0.349 0.456,-0.328L0.456,-0.086C0.456,-0.069 0.456,-0.054 0.457,-0.04C0.458,-0.026 0.459,-0.013 0.46,-0L0.38,-0C0.378,-0.024 0.377,-0.048 0.377,-0.072L0.375,-0.072C0.355,-0.041 0.331,-0.02 0.304,-0.007C0.277,0.006 0.245,0.012 0.209,0.012C0.187,0.012 0.166,0.009 0.146,0.003C0.126,-0.003 0.109,-0.012 0.094,-0.024C0.079,-0.036 0.067,-0.051 0.058,-0.069C0.049,-0.086 0.045,-0.107 0.045,-0.13C0.045,-0.161 0.052,-0.186 0.066,-0.207C0.079,-0.228 0.098,-0.245 0.122,-0.258C0.145,-0.271 0.173,-0.28 0.205,-0.286C0.236,-0.291 0.27,-0.294 0.306,-0.294L0.372,-0.294L0.372,-0.314C0.372,-0.326 0.37,-0.338 0.365,-0.35C0.36,-0.362 0.353,-0.373 0.344,-0.383C0.335,-0.392 0.323,-0.4 0.309,-0.406C0.295,-0.411 0.278,-0.414 0.259,-0.414C0.242,-0.414 0.227,-0.412 0.214,-0.409C0.201,-0.406 0.189,-0.402 0.178,-0.397C0.167,-0.392 0.158,-0.386 0.149,-0.379C0.14,-0.372 0.132,-0.366 0.124,-0.36L0.07,-0.416ZM0.324,-0.228C0.303,-0.228 0.281,-0.227 0.259,-0.225C0.236,-0.222 0.216,-0.218 0.198,-0.211C0.179,-0.204 0.164,-0.195 0.153,-0.183C0.141,-0.171 0.135,-0.156 0.135,-0.137C0.135,-0.11 0.144,-0.09 0.163,-0.078C0.181,-0.066 0.206,-0.06 0.237,-0.06C0.262,-0.06 0.283,-0.064 0.3,-0.073C0.317,-0.081 0.331,-0.092 0.342,-0.105C0.353,-0.118 0.36,-0.133 0.365,-0.15C0.37,-0.166 0.372,-0.182 0.372,-0.198L0.372,-0.228L0.324,-0.228Z" style="fill-rule:nonzero;"/>
            </g>
            <g transform="matrix(96.2398,0,0,96.2398,2197.76,1888.98)">
                <path d="M0.068,-0.474L0.152,-0.474L0.152,-0.4L0.154,-0.4C0.156,-0.407 0.161,-0.415 0.17,-0.425C0.178,-0.435 0.189,-0.444 0.202,-0.454C0.215,-0.463 0.23,-0.47 0.248,-0.477C0.265,-0.483 0.285,-0.486 0.306,-0.486C0.341,-0.486 0.371,-0.479 0.395,-0.464C0.419,-0.449 0.439,-0.427 0.454,-0.398C0.469,-0.427 0.491,-0.449 0.519,-0.464C0.547,-0.479 0.575,-0.486 0.604,-0.486C0.641,-0.486 0.671,-0.48 0.694,-0.468C0.717,-0.456 0.736,-0.44 0.749,-0.421C0.762,-0.401 0.772,-0.379 0.777,-0.354C0.782,-0.329 0.784,-0.303 0.784,-0.276L0.784,-0L0.694,-0L0.694,-0.264C0.694,-0.282 0.693,-0.299 0.691,-0.316C0.688,-0.333 0.683,-0.347 0.676,-0.36C0.669,-0.373 0.658,-0.383 0.645,-0.391C0.632,-0.398 0.614,-0.402 0.592,-0.402C0.549,-0.402 0.518,-0.389 0.499,-0.362C0.48,-0.335 0.471,-0.301 0.471,-0.259L0.471,-0L0.381,-0L0.381,-0.248C0.381,-0.271 0.38,-0.291 0.378,-0.31C0.375,-0.329 0.371,-0.345 0.364,-0.359C0.357,-0.372 0.346,-0.383 0.334,-0.391C0.321,-0.398 0.303,-0.402 0.281,-0.402C0.265,-0.402 0.25,-0.399 0.235,-0.393C0.22,-0.386 0.206,-0.377 0.195,-0.364C0.184,-0.351 0.175,-0.335 0.168,-0.316C0.161,-0.296 0.158,-0.273 0.158,-0.246L0.158,-0L0.068,-0L0.068,-0.474Z" style="fill-rule:nonzero;"/>
            </g>
            <g transform="matrix(96.2398,0,0,96.2398,2279.76,1888.98)">
                <path d="M0.068,-0.474L0.158,-0.474L0.158,-0.406L0.16,-0.406C0.177,-0.431 0.201,-0.451 0.232,-0.465C0.262,-0.479 0.293,-0.486 0.325,-0.486C0.362,-0.486 0.395,-0.48 0.425,-0.467C0.454,-0.454 0.48,-0.437 0.501,-0.414C0.522,-0.391 0.538,-0.365 0.549,-0.335C0.56,-0.304 0.566,-0.272 0.566,-0.237C0.566,-0.202 0.56,-0.169 0.549,-0.139C0.538,-0.108 0.522,-0.082 0.501,-0.06C0.48,-0.037 0.454,-0.02 0.425,-0.007C0.395,0.006 0.362,0.012 0.325,0.012C0.291,0.012 0.259,0.005 0.229,-0.01C0.199,-0.024 0.176,-0.043 0.16,-0.068L0.158,-0.068L0.158,0.282L0.068,0.282L0.068,-0.474ZM0.314,-0.402C0.29,-0.402 0.268,-0.398 0.249,-0.39C0.23,-0.381 0.213,-0.37 0.2,-0.356C0.187,-0.341 0.176,-0.324 0.169,-0.304C0.162,-0.283 0.158,-0.261 0.158,-0.237C0.158,-0.213 0.162,-0.191 0.169,-0.171C0.176,-0.15 0.187,-0.133 0.2,-0.119C0.213,-0.104 0.23,-0.093 0.249,-0.085C0.268,-0.076 0.29,-0.072 0.314,-0.072C0.338,-0.072 0.36,-0.076 0.379,-0.085C0.398,-0.093 0.415,-0.104 0.428,-0.119C0.441,-0.133 0.452,-0.15 0.459,-0.171C0.466,-0.191 0.47,-0.213 0.47,-0.237C0.47,-0.261 0.466,-0.283 0.459,-0.304C0.452,-0.324 0.441,-0.341 0.428,-0.356C0.415,-0.37 0.398,-0.381 0.379,-0.39C0.36,-0.398 0.338,-0.402 0.314,-0.402Z" style="fill-rule:nonzero;"/>
            </g>
            <g transform="matrix(96.2398,0,0,96.2398,2338.56,1888.98)">
                <rect x="0.075" y="-0.756" width="0.09" height="0.756" style="fill-rule:nonzero;"/>
            </g>
            <g transform="matrix(96.2398,0,0,96.2398,2361.66,1888.98)">
                <path d="M0.136,-0.204C0.136,-0.183 0.14,-0.165 0.15,-0.148C0.159,-0.13 0.17,-0.116 0.185,-0.104C0.2,-0.092 0.217,-0.083 0.236,-0.076C0.255,-0.069 0.275,-0.066 0.296,-0.066C0.324,-0.066 0.348,-0.073 0.369,-0.086C0.39,-0.098 0.409,-0.116 0.426,-0.137L0.494,-0.085C0.444,-0.02 0.374,0.012 0.284,0.012C0.247,0.012 0.213,0.006 0.183,-0.007C0.152,-0.02 0.127,-0.037 0.106,-0.06C0.085,-0.082 0.068,-0.108 0.057,-0.139C0.046,-0.169 0.04,-0.202 0.04,-0.237C0.04,-0.272 0.046,-0.305 0.059,-0.336C0.071,-0.366 0.088,-0.392 0.11,-0.415C0.131,-0.437 0.157,-0.454 0.187,-0.467C0.217,-0.48 0.25,-0.486 0.285,-0.486C0.327,-0.486 0.363,-0.479 0.392,-0.464C0.421,-0.449 0.444,-0.43 0.463,-0.407C0.482,-0.383 0.495,-0.356 0.504,-0.327C0.512,-0.297 0.516,-0.267 0.516,-0.236L0.516,-0.204L0.136,-0.204ZM0.42,-0.276C0.419,-0.296 0.416,-0.314 0.411,-0.331C0.405,-0.348 0.396,-0.362 0.385,-0.375C0.374,-0.387 0.36,-0.397 0.343,-0.404C0.326,-0.411 0.306,-0.414 0.283,-0.414C0.261,-0.414 0.241,-0.41 0.223,-0.402C0.204,-0.393 0.189,-0.382 0.176,-0.369C0.163,-0.356 0.154,-0.341 0.147,-0.325C0.139,-0.308 0.136,-0.292 0.136,-0.276L0.42,-0.276Z" style="fill-rule:nonzero;"/>
            </g>
        </g>
        <g transform="matrix(1,0,0,1,-81.0782,-276.593)">
            <path d="M1885.97,1681.1L1885.97,1725.7" style="fill:none;stroke:black;stroke-width:17.35px;"/>
        </g>
        <g transform="matrix(1,0,0,1,-319.367,-277.034)">
            <path d="M1885.97,1681.1L1885.97,1725.7" style="fill:none;stroke:black;stroke-width:17.35px;"/>
        </g>
        <g transform="matrix(1,0,0,1,372.496,-278.091)">
            <path d="M1885.97,1681.1L1885.97,1725.7" style="fill:none;stroke:black;stroke-width:17.35px;"/>
        </g>
        <g transform="matrix(1,0,0,1,135.896,-278.121)">
            <path d="M1885.97,1681.1L1885.97,1725.7" style="fill:none;stroke:black;stroke-width:17.35px;"/>
        </g>
        <g transform="matrix(1,0,0,1,-45.2793,-300.335)">
            <g transform="matrix(96.2398,0,0,96.2398,1825.41,1829.56)">
                <path d="M0.198,-0.253L0.03,-0.474L0.146,-0.474L0.261,-0.306L0.374,-0.474L0.483,-0.474L0.321,-0.253L0.513,-0L0.397,-0L0.257,-0.199L0.117,-0L0.006,-0L0.198,-0.253Z" style="fill-rule:nonzero;"/>
            </g>
        </g>
        <g transform="matrix(1,0,0,1,-284.411,-300.972)">
            <g transform="matrix(96.2398,0,0,96.2398,1825.41,1829.56)">
                <path d="M0.198,-0.253L0.03,-0.474L0.146,-0.474L0.261,-0.306L0.374,-0.474L0.483,-0.474L0.321,-0.253L0.513,-0L0.397,-0L0.257,-0.199L0.117,-0L0.006,-0L0.198,-0.253Z" style="fill-rule:nonzero;"/>
            </g>
        </g>
        <g transform="matrix(1,0,0,1,407.112,-302.618)">
            <g transform="matrix(96.2398,0,0,96.2398,1825.41,1829.56)">
                <path d="M0.198,-0.253L0.03,-0.474L0.146,-0.474L0.261,-0.306L0.374,-0.474L0.483,-0.474L0.321,-0.253L0.513,-0L0.397,-0L0.257,-0.199L0.117,-0L0.006,-0L0.198,-0.253Z" style="fill-rule:nonzero;"/>
            </g>
        </g>
        <g transform="matrix(1,0,0,1,171.365,-300.096)">
            <g transform="matrix(96.2398,0,0,96.2398,1825.41,1829.56)">
                <path d="M0.198,-0.253L0.03,-0.474L0.146,-0.474L0.261,-0.306L0.374,-0.474L0.483,-0.474L0.321,-0.253L0.513,-0L0.397,-0L0.257,-0.199L0.117,-0L0.006,-0L0.198,-0.253Z" style="fill-rule:nonzero;"/>
            </g>
        </g>
        <g transform="matrix(1.49422,0,0,1.49422,-1019.92,-1216.18)">
            <g transform="matrix(41.1829,0,0,41.1829,1911.33,1858.64)">
                <path d="M0.068,-0.474L0.158,-0.474L0.158,-0.406L0.16,-0.406C0.177,-0.431 0.201,-0.451 0.232,-0.465C0.262,-0.479 0.293,-0.486 0.325,-0.486C0.362,-0.486 0.395,-0.48 0.425,-0.467C0.454,-0.454 0.48,-0.437 0.501,-0.414C0.522,-0.391 0.538,-0.365 0.549,-0.335C0.56,-0.304 0.566,-0.272 0.566,-0.237C0.566,-0.202 0.56,-0.169 0.549,-0.139C0.538,-0.108 0.522,-0.082 0.501,-0.06C0.48,-0.037 0.454,-0.02 0.425,-0.007C0.395,0.006 0.362,0.012 0.325,0.012C0.291,0.012 0.259,0.005 0.229,-0.01C0.199,-0.024 0.176,-0.043 0.16,-0.068L0.158,-0.068L0.158,0.282L0.068,0.282L0.068,-0.474ZM0.314,-0.402C0.29,-0.402 0.268,-0.398 0.249,-0.39C0.23,-0.381 0.213,-0.37 0.2,-0.356C0.187,-0.341 0.176,-0.324 0.169,-0.304C0.162,-0.283 0.158,-0.261 0.158,-0.237C0.158,-0.213 0.162,-0.191 0.169,-0.171C0.176,-0.15 0.187,-0.133 0.2,-0.119C0.213,-0.104 0.23,-0.093 0.249,-0.085C0.268,-0.076 0.29,-0.072 0.314,-0.072C0.338,-0.072 0.36,-0.076 0.379,-0.085C0.398,-0.093 0.415,-0.104 0.428,-0.119C0.441,-0.133 0.452,-0.15 0.459,-0.171C0.466,-0.191 0.47,-0.213 0.47,-0.237C0.47,-0.261 0.466,-0.283 0.459,-0.304C0.452,-0.324 0.441,-0.341 0.428,-0.356C0.415,-0.37 0.398,-0.381 0.379,-0.39C0.36,-0.398 0.338,-0.402 0.314,-0.402Z" style="fill-rule:nonzero;"/>
            </g>
        </g>
        <g transform="matrix(1.49422,0,0,1.49422,-1259.05,-1216.82)">
            <g transform="matrix(41.1829,0,0,41.1829,1911.33,1858.64)">
                <path d="M0.068,-0.474L0.158,-0.474L0.158,-0.406L0.16,-0.406C0.177,-0.431 0.201,-0.451 0.232,-0.465C0.262,-0.479 0.293,-0.486 0.325,-0.486C0.362,-0.486 0.395,-0.48 0.425,-0.467C0.454,-0.454 0.48,-0.437 0.501,-0.414C0.522,-0.391 0.538,-0.365 0.549,-0.335C0.56,-0.304 0.566,-0.272 0.566,-0.237C0.566,-0.202 0.56,-0.169 0.549,-0.139C0.538,-0.108 0.522,-0.082 0.501,-0.06C0.48,-0.037 0.454,-0.02 0.425,-0.007C0.395,0.006 0.362,0.012 0.325,0.012C0.291,0.012 0.259,0.005 0.229,-0.01C0.199,-0.024 0.176,-0.043 0.16,-0.068L0.158,-0.068L0.158,0.282L0.068,0.282L0.068,-0.474ZM0.314,-0.402C0.29,-0.402 0.268,-0.398 0.249,-0.39C0.23,-0.381 0.213,-0.37 0.2,-0.356C0.187,-0.341 0.176,-0.324 0.169,-0.304C0.162,-0.283 0.158,-0.261 0.158,-0.237C0.158,-0.213 0.162,-0.191 0.169,-0.171C0.176,-0.15 0.187,-0.133 0.2,-0.119C0.213,-0.104 0.23,-0.093 0.249,-0.085C0.268,-0.076 0.29,-0.072 0.314,-0.072C0.338,-0.072 0.36,-0.076 0.379,-0.085C0.398,-0.093 0.415,-0.104 0.428,-0.119C0.441,-0.133 0.452,-0.15 0.459,-0.171C0.466,-0.191 0.47,-0.213 0.47,-0.237C0.47,-0.261 0.466,-0.283 0.459,-0.304C0.452,-0.324 0.441,-0.341 0.428,-0.356C0.415,-0.37 0.398,-0.381 0.379,-0.39C0.36,-0.398 0.338,-0.402 0.314,-0.402Z" style="fill-rule:nonzero;"/>
            </g>
            <g transform="matrix(41.1829,0,0,41.1829,1936.5,1858.64)">
                <rect x="0.035" y="-0.284" width="0.246" height="0.084" style="fill-rule:nonzero;"/>
            </g>
            <g transform="matrix(41.1829,0,0,41.1829,1949.51,1858.64)">
                <path d="M0.27,-0.598L0.14,-0.478L0.084,-0.545L0.281,-0.708L0.366,-0.708L0.366,-0L0.27,-0L0.27,-0.598Z" style="fill-rule:nonzero;"/>
            </g>
        </g>
        <g transform="matrix(1.49422,0,0,1.49422,-567.525,-1218.47)">
            <g transform="matrix(41.1829,0,0,41.1829,1922.78,1858.64)">
                <path d="M0.068,-0.474L0.158,-0.474L0.158,-0.406L0.16,-0.406C0.177,-0.431 0.201,-0.451 0.232,-0.465C0.262,-0.479 0.293,-0.486 0.325,-0.486C0.362,-0.486 0.395,-0.48 0.425,-0.467C0.454,-0.454 0.48,-0.437 0.501,-0.414C0.522,-0.391 0.538,-0.365 0.549,-0.335C0.56,-0.304 0.566,-0.272 0.566,-0.237C0.566,-0.202 0.56,-0.169 0.549,-0.139C0.538,-0.108 0.522,-0.082 0.501,-0.06C0.48,-0.037 0.454,-0.02 0.425,-0.007C0.395,0.006 0.362,0.012 0.325,0.012C0.291,0.012 0.259,0.005 0.229,-0.01C0.199,-0.024 0.176,-0.043 0.16,-0.068L0.158,-0.068L0.158,0.282L0.068,0.282L0.068,-0.474ZM0.314,-0.402C0.29,-0.402 0.268,-0.398 0.249,-0.39C0.23,-0.381 0.213,-0.37 0.2,-0.356C0.187,-0.341 0.176,-0.324 0.169,-0.304C0.162,-0.283 0.158,-0.261 0.158,-0.237C0.158,-0.213 0.162,-0.191 0.169,-0.171C0.176,-0.15 0.187,-0.133 0.2,-0.119C0.213,-0.104 0.23,-0.093 0.249,-0.085C0.268,-0.076 0.29,-0.072 0.314,-0.072C0.338,-0.072 0.36,-0.076 0.379,-0.085C0.398,-0.093 0.415,-0.104 0.428,-0.119C0.441,-0.133 0.452,-0.15 0.459,-0.171C0.466,-0.191 0.47,-0.213 0.47,-0.237C0.47,-0.261 0.466,-0.283 0.459,-0.304C0.452,-0.324 0.441,-0.341 0.428,-0.356C0.415,-0.37 0.398,-0.381 0.379,-0.39C0.36,-0.398 0.338,-0.402 0.314,-0.402Z" style="fill-rule:nonzero;"/>
            </g>
            <g transform="matrix(41.1829,0,0,41.1829,1947.94,1858.64)">
                <path d="M0.066,-0.342L0.294,-0.342L0.294,-0.57L0.372,-0.57L0.372,-0.342L0.6,-0.342L0.6,-0.264L0.372,-0.264L0.372,-0.036L0.294,-0.036L0.294,-0.264L0.066,-0.264L0.066,-0.342Z" style="fill-rule:nonzero;"/>
            </g>
            <g transform="matrix(41.1829,0,0,41.1829,1975.37,1858.64)">
                <path d="M0.046,-0.102L0.33,-0.384C0.34,-0.393 0.35,-0.404 0.359,-0.415C0.368,-0.426 0.377,-0.437 0.384,-0.449C0.391,-0.461 0.397,-0.474 0.402,-0.487C0.406,-0.5 0.408,-0.514 0.408,-0.529C0.408,-0.546 0.405,-0.562 0.399,-0.576C0.392,-0.59 0.384,-0.602 0.373,-0.612C0.362,-0.621 0.349,-0.629 0.334,-0.634C0.319,-0.639 0.303,-0.642 0.286,-0.642C0.251,-0.642 0.223,-0.632 0.2,-0.613C0.177,-0.594 0.163,-0.567 0.157,-0.533L0.053,-0.542C0.058,-0.573 0.067,-0.6 0.081,-0.624C0.094,-0.647 0.111,-0.666 0.132,-0.681C0.152,-0.696 0.175,-0.708 0.202,-0.715C0.228,-0.722 0.256,-0.726 0.287,-0.726C0.318,-0.726 0.347,-0.722 0.374,-0.714C0.401,-0.705 0.424,-0.693 0.445,-0.677C0.465,-0.66 0.481,-0.64 0.493,-0.616C0.504,-0.591 0.51,-0.563 0.51,-0.53C0.51,-0.507 0.507,-0.485 0.5,-0.465C0.493,-0.444 0.483,-0.425 0.472,-0.407C0.461,-0.389 0.448,-0.372 0.433,-0.356C0.418,-0.34 0.403,-0.324 0.387,-0.309L0.154,-0.084L0.51,-0.084L0.51,-0L0.046,-0L0.046,-0.102Z" style="fill-rule:nonzero;"/>
            </g>
        </g>
        <g transform="matrix(1.49422,0,0,1.49422,-803.272,-1215.94)">
            <g transform="matrix(41.1829,0,0,41.1829,1911.33,1858.64)">
                <path d="M0.068,-0.474L0.158,-0.474L0.158,-0.406L0.16,-0.406C0.177,-0.431 0.201,-0.451 0.232,-0.465C0.262,-0.479 0.293,-0.486 0.325,-0.486C0.362,-0.486 0.395,-0.48 0.425,-0.467C0.454,-0.454 0.48,-0.437 0.501,-0.414C0.522,-0.391 0.538,-0.365 0.549,-0.335C0.56,-0.304 0.566,-0.272 0.566,-0.237C0.566,-0.202 0.56,-0.169 0.549,-0.139C0.538,-0.108 0.522,-0.082 0.501,-0.06C0.48,-0.037 0.454,-0.02 0.425,-0.007C0.395,0.006 0.362,0.012 0.325,0.012C0.291,0.012 0.259,0.005 0.229,-0.01C0.199,-0.024 0.176,-0.043 0.16,-0.068L0.158,-0.068L0.158,0.282L0.068,0.282L0.068,-0.474ZM0.314,-0.402C0.29,-0.402 0.268,-0.398 0.249,-0.39C0.23,-0.381 0.213,-0.37 0.2,-0.356C0.187,-0.341 0.176,-0.324 0.169,-0.304C0.162,-0.283 0.158,-0.261 0.158,-0.237C0.158,-0.213 0.162,-0.191 0.169,-0.171C0.176,-0.15 0.187,-0.133 0.2,-0.119C0.213,-0.104 0.23,-0.093 0.249,-0.085C0.268,-0.076 0.29,-0.072 0.314,-0.072C0.338,-0.072 0.36,-0.076 0.379,-0.085C0.398,-0.093 0.415,-0.104 0.428,-0.119C0.441,-0.133 0.452,-0.15 0.459,-0.171C0.466,-0.191 0.47,-0.213 0.47,-0.237C0.47,-0.261 0.466,-0.283 0.459,-0.304C0.452,-0.324 0.441,-0.341 0.428,-0.356C0.415,-0.37 0.398,-0.381 0.379,-0.39C0.36,-0.398 0.338,-0.402 0.314,-0.402Z" style="fill-rule:nonzero;"/>
            </g>
            <g transform="matrix(41.1829,0,0,41.1829,1936.5,1858.64)">
                <path d="M0.066,-0.342L0.294,-0.342L0.294,-0.57L0.372,-0.57L0.372,-0.342L0.6,-0.342L0.6,-0.264L0.372,-0.264L0.372,-0.036L0.294,-0.036L0.294,-0.264L0.066,-0.264L0.066,-0.342Z" style="fill-rule:nonzero;"/>
            </g>
            <g transform="matrix(41.1829,0,0,41.1829,1963.92,1858.64)">
                <path d="M0.27,-0.598L0.14,-0.478L0.084,-0.545L0.281,-0.708L0.366,-0.708L0.366,-0L0.27,-0L0.27,-0.598Z" style="fill-rule:nonzero;"/>
            </g>
        </g>
        <g transform="matrix(1,0,0,0.417746,72.1766,748.126)">
            <path d="M1387.73,1794.49C1387.73,1805.96 1383.84,1815.27 1379.05,1815.27C1374.26,1815.27 1370.38,1805.96 1370.38,1794.49L1370.38,1770.15C1370.38,1758.69 1374.26,1749.38 1379.05,1749.38C1383.84,1749.38 1387.73,1758.69 1387.73,1770.15L1387.73,1794.49ZM1387.73,1666.69C1387.73,1678.15 1383.84,1687.46 1379.05,1687.46C1374.26,1687.46 1370.38,1678.15 1370.38,1666.69L1370.38,1618C1370.38,1606.53 1374.26,1597.23 1379.05,1597.23C1383.84,1597.23 1387.73,1606.53 1387.73,1618L1387.73,1666.69ZM1387.73,1514.53C1387.73,1526 1383.84,1535.3 1379.05,1535.3C1374.26,1535.3 1370.38,1526 1370.38,1514.53L1370.38,1465.84C1370.38,1454.38 1374.26,1445.07 1379.05,1445.07C1383.84,1445.07 1387.73,1454.38 1387.73,1465.84L1387.73,1514.53ZM1387.73,1362.38C1387.73,1373.84 1383.84,1383.15 1379.05,1383.15C1374.26,1383.15 1370.38,1373.84 1370.38,1362.38L1370.38,1313.69C1370.38,1302.23 1374.26,1292.92 1379.05,1292.92C1383.84,1292.92 1387.73,1302.23 1387.73,1313.69L1387.73,1362.38ZM1387.73,1210.23C1387.73,1221.69 1383.84,1231 1379.05,1231C1374.26,1231 1370.38,1221.69 1370.38,1210.23L1370.38,1185.88C1370.38,1174.42 1374.26,1165.11 1379.05,1165.11C1383.84,1165.11 1387.73,1174.42 1387.73,1185.88L1387.73,1210.23Z" style="fill:rgb(94,133,194);fill-opacity:0.65;"/>
        </g>
        <g transform="matrix(1,0,0,0.417746,303.952,749.359)">
            <path d="M1387.73,1794.49C1387.73,1805.96 1383.84,1815.27 1379.05,1815.27C1374.26,1815.27 1370.38,1805.96 1370.38,1794.49L1370.38,1770.15C1370.38,1758.69 1374.26,1749.38 1379.05,1749.38C1383.84,1749.38 1387.73,1758.69 1387.73,1770.15L1387.73,1794.49ZM1387.73,1666.69C1387.73,1678.15 1383.84,1687.46 1379.05,1687.46C1374.26,1687.46 1370.38,1678.15 1370.38,1666.69L1370.38,1618C1370.38,1606.53 1374.26,1597.23 1379.05,1597.23C1383.84,1597.23 1387.73,1606.53 1387.73,1618L1387.73,1666.69ZM1387.73,1514.53C1387.73,1526 1383.84,1535.3 1379.05,1535.3C1374.26,1535.3 1370.38,1526 1370.38,1514.53L1370.38,1465.84C1370.38,1454.38 1374.26,1445.07 1379.05,1445.07C1383.84,1445.07 1387.73,1454.38 1387.73,1465.84L1387.73,1514.53ZM1387.73,1362.38C1387.73,1373.84 1383.84,1383.15 1379.05,1383.15C1374.26,1383.15 1370.38,1373.84 1370.38,1362.38L1370.38,1313.69C1370.38,1302.23 1374.26,1292.92 1379.05,1292.92C1383.84,1292.92 1387.73,1302.23 1387.73,1313.69L1387.73,1362.38ZM1387.73,1210.23C1387.73,1221.69 1383.84,1231 1379.05,1231C1374.26,1231 1370.38,1221.69 1370.38,1210.23L1370.38,1185.88C1370.38,1174.42 1374.26,1165.11 1379.05,1165.11C1383.84,1165.11 1387.73,1174.42 1387.73,1185.88L1387.73,1210.23Z" style="fill:rgb(94,133,194);fill-opacity:0.65;"/>
        </g>
        <g transform="matrix(1,0,0,0.417746,535.135,748.479)">
            <path d="M1387.73,1794.49C1387.73,1805.96 1383.84,1815.27 1379.05,1815.27C1374.26,1815.27 1370.38,1805.96 1370.38,1794.49L1370.38,1770.15C1370.38,1758.69 1374.26,1749.38 1379.05,1749.38C1383.84,1749.38 1387.73,1758.69 1387.73,1770.15L1387.73,1794.49ZM1387.73,1666.69C1387.73,1678.15 1383.84,1687.46 1379.05,1687.46C1374.26,1687.46 1370.38,1678.15 1370.38,1666.69L1370.38,1618C1370.38,1606.53 1374.26,1597.23 1379.05,1597.23C1383.84,1597.23 1387.73,1606.53 1387.73,1618L1387.73,1666.69ZM1387.73,1514.53C1387.73,1526 1383.84,1535.3 1379.05,1535.3C1374.26,1535.3 1370.38,1526 1370.38,1514.53L1370.38,1465.84C1370.38,1454.38 1374.26,1445.07 1379.05,1445.07C1383.84,1445.07 1387.73,1454.38 1387.73,1465.84L1387.73,1514.53ZM1387.73,1362.38C1387.73,1373.84 1383.84,1383.15 1379.05,1383.15C1374.26,1383.15 1370.38,1373.84 1370.38,1362.38L1370.38,1313.69C1370.38,1302.23 1374.26,1292.92 1379.05,1292.92C1383.84,1292.92 1387.73,1302.23 1387.73,1313.69L1387.73,1362.38ZM1387.73,1210.23C1387.73,1221.69 1383.84,1231 1379.05,1231C1374.26,1231 1370.38,1221.69 1370.38,1210.23L1370.38,1185.88C1370.38,1174.42 1374.26,1165.11 1379.05,1165.11C1383.84,1165.11 1387.73,1174.42 1387.73,1185.88L1387.73,1210.23Z" style="fill:rgb(94,133,194);fill-opacity:0.65;"/>
        </g>
        <g transform="matrix(1,0,0,0.417746,761.564,752.089)">
            <path d="M1387.73,1794.49C1387.73,1805.96 1383.84,1815.27 1379.05,1815.27C1374.26,1815.27 1370.38,1805.96 1370.38,1794.49L1370.38,1770.15C1370.38,1758.69 1374.26,1749.38 1379.05,1749.38C1383.84,1749.38 1387.73,1758.69 1387.73,1770.15L1387.73,1794.49ZM1387.73,1666.69C1387.73,1678.15 1383.84,1687.46 1379.05,1687.46C1374.26,1687.46 1370.38,1678.15 1370.38,1666.69L1370.38,1618C1370.38,1606.53 1374.26,1597.23 1379.05,1597.23C1383.84,1597.23 1387.73,1606.53 1387.73,1618L1387.73,1666.69ZM1387.73,1514.53C1387.73,1526 1383.84,1535.3 1379.05,1535.3C1374.26,1535.3 1370.38,1526 1370.38,1514.53L1370.38,1465.84C1370.38,1454.38 1374.26,1445.07 1379.05,1445.07C1383.84,1445.07 1387.73,1454.38 1387.73,1465.84L1387.73,1514.53ZM1387.73,1362.38C1387.73,1373.84 1383.84,1383.15 1379.05,1383.15C1374.26,1383.15 1370.38,1373.84 1370.38,1362.38L1370.38,1313.69C1370.38,1302.23 1374.26,1292.92 1379.05,1292.92C1383.84,1292.92 1387.73,1302.23 1387.73,1313.69L1387.73,1362.38ZM1387.73,1210.23C1387.73,1221.69 1383.84,1231 1379.05,1231C1374.26,1231 1370.38,1221.69 1370.38,1210.23L1370.38,1185.88C1370.38,1174.42 1374.26,1165.11 1379.05,1165.11C1383.84,1165.11 1387.73,1174.42 1387.73,1185.88L1387.73,1210.23Z" style="fill:rgb(94,133,194);fill-opacity:0.65;"/>
        </g>
        <g transform="matrix(1,0,0,0.417746,987.414,747.137)">
            <path d="M1387.73,1794.49C1387.73,1805.96 1383.84,1815.27 1379.05,1815.27C1374.26,1815.27 1370.38,1805.96 1370.38,1794.49L1370.38,1770.15C1370.38,1758.69 1374.26,1749.38 1379.05,1749.38C1383.84,1749.38 1387.73,1758.69 1387.73,1770.15L1387.73,1794.49ZM1387.73,1666.69C1387.73,1678.15 1383.84,1687.46 1379.05,1687.46C1374.26,1687.46 1370.38,1678.15 1370.38,1666.69L1370.38,1618C1370.38,1606.53 1374.26,1597.23 1379.05,1597.23C1383.84,1597.23 1387.73,1606.53 1387.73,1618L1387.73,1666.69ZM1387.73,1514.53C1387.73,1526 1383.84,1535.3 1379.05,1535.3C1374.26,1535.3 1370.38,1526 1370.38,1514.53L1370.38,1465.84C1370.38,1454.38 1374.26,1445.07 1379.05,1445.07C1383.84,1445.07 1387.73,1454.38 1387.73,1465.84L1387.73,1514.53ZM1387.73,1362.38C1387.73,1373.84 1383.84,1383.15 1379.05,1383.15C1374.26,1383.15 1370.38,1373.84 1370.38,1362.38L1370.38,1313.69C1370.38,1302.23 1374.26,1292.92 1379.05,1292.92C1383.84,1292.92 1387.73,1302.23 1387.73,1313.69L1387.73,1362.38ZM1387.73,1210.23C1387.73,1221.69 1383.84,1231 1379.05,1231C1374.26,1231 1370.38,1221.69 1370.38,1210.23L1370.38,1185.88C1370.38,1174.42 1374.26,1165.11 1379.05,1165.11C1383.84,1165.11 1387.73,1174.42 1387.73,1185.88L1387.73,1210.23Z" style="fill:rgb(94,133,194);fill-opacity:0.65;"/>
        </g>
        <g transform="matrix(1,0,0,1,-135.811,59.3033)">
            <g transform="matrix(61.0405,0,0,61.0405,1877.39,1209.1)">
                <path d="M0.407,-0.348C0.39,-0.365 0.373,-0.379 0.355,-0.388C0.336,-0.397 0.314,-0.401 0.289,-0.401C0.264,-0.401 0.243,-0.397 0.225,-0.388C0.206,-0.379 0.191,-0.366 0.179,-0.351C0.166,-0.335 0.157,-0.317 0.151,-0.297C0.144,-0.276 0.141,-0.255 0.141,-0.233C0.141,-0.211 0.145,-0.19 0.152,-0.171C0.159,-0.151 0.17,-0.134 0.183,-0.119C0.196,-0.104 0.212,-0.093 0.231,-0.085C0.25,-0.076 0.271,-0.072 0.294,-0.072C0.319,-0.072 0.341,-0.077 0.359,-0.086C0.377,-0.095 0.394,-0.108 0.409,-0.125L0.473,-0.061C0.45,-0.035 0.423,-0.016 0.392,-0.005C0.361,0.006 0.328,0.012 0.293,0.012C0.256,0.012 0.223,0.006 0.193,-0.006C0.162,-0.018 0.136,-0.035 0.114,-0.057C0.092,-0.078 0.075,-0.104 0.063,-0.135C0.051,-0.165 0.045,-0.198 0.045,-0.235C0.045,-0.272 0.051,-0.305 0.063,-0.336C0.075,-0.367 0.092,-0.393 0.114,-0.415C0.135,-0.437 0.161,-0.454 0.192,-0.467C0.222,-0.479 0.256,-0.485 0.293,-0.485C0.328,-0.485 0.361,-0.479 0.393,-0.467C0.424,-0.454 0.452,-0.435 0.475,-0.41L0.407,-0.348Z" style="fill-rule:nonzero;"/>
            </g>
            <g transform="matrix(61.0405,0,0,61.0405,1906.82,1209.1)">
                <path d="M0.136,-0.204C0.136,-0.183 0.14,-0.165 0.15,-0.148C0.159,-0.13 0.17,-0.116 0.185,-0.104C0.2,-0.092 0.217,-0.083 0.236,-0.076C0.255,-0.069 0.275,-0.066 0.296,-0.066C0.324,-0.066 0.348,-0.073 0.369,-0.086C0.39,-0.098 0.409,-0.116 0.426,-0.137L0.494,-0.085C0.444,-0.02 0.374,0.012 0.284,0.012C0.247,0.012 0.213,0.006 0.183,-0.007C0.152,-0.02 0.127,-0.037 0.106,-0.06C0.085,-0.082 0.068,-0.108 0.057,-0.139C0.046,-0.169 0.04,-0.202 0.04,-0.237C0.04,-0.272 0.046,-0.305 0.059,-0.336C0.071,-0.366 0.088,-0.392 0.11,-0.415C0.131,-0.437 0.157,-0.454 0.187,-0.467C0.217,-0.48 0.25,-0.486 0.285,-0.486C0.327,-0.486 0.363,-0.479 0.392,-0.464C0.421,-0.449 0.444,-0.43 0.463,-0.407C0.482,-0.383 0.495,-0.356 0.504,-0.327C0.512,-0.297 0.516,-0.267 0.516,-0.236L0.516,-0.204L0.136,-0.204ZM0.42,-0.276C0.419,-0.296 0.416,-0.314 0.411,-0.331C0.405,-0.348 0.396,-0.362 0.385,-0.375C0.374,-0.387 0.36,-0.397 0.343,-0.404C0.326,-0.411 0.306,-0.414 0.283,-0.414C0.261,-0.414 0.241,-0.41 0.223,-0.402C0.204,-0.393 0.189,-0.382 0.176,-0.369C0.163,-0.356 0.154,-0.341 0.147,-0.325C0.139,-0.308 0.136,-0.292 0.136,-0.276L0.42,-0.276Z" style="fill-rule:nonzero;"/>
            </g>
            <g transform="matrix(61.0405,0,0,61.0405,1940.75,1209.1)">
                <rect x="0.075" y="-0.756" width="0.09" height="0.756" style="fill-rule:nonzero;"/>
            </g>
            <g transform="matrix(61.0405,0,0,61.0405,1955.4,1209.1)">
                <rect x="0.075" y="-0.756" width="0.09" height="0.756" style="fill-rule:nonzero;"/>
            </g>
            <g transform="matrix(61.0405,0,0,61.0405,1987.02,1209.1)">
                <path d="M0.068,-0.474L0.158,-0.474L0.158,-0.406L0.16,-0.406C0.177,-0.431 0.201,-0.451 0.232,-0.465C0.262,-0.479 0.293,-0.486 0.325,-0.486C0.362,-0.486 0.395,-0.48 0.425,-0.467C0.454,-0.454 0.48,-0.437 0.501,-0.414C0.522,-0.391 0.538,-0.365 0.549,-0.335C0.56,-0.304 0.566,-0.272 0.566,-0.237C0.566,-0.202 0.56,-0.169 0.549,-0.139C0.538,-0.108 0.522,-0.082 0.501,-0.06C0.48,-0.037 0.454,-0.02 0.425,-0.007C0.395,0.006 0.362,0.012 0.325,0.012C0.291,0.012 0.259,0.005 0.229,-0.01C0.199,-0.024 0.176,-0.043 0.16,-0.068L0.158,-0.068L0.158,0.282L0.068,0.282L0.068,-0.474ZM0.314,-0.402C0.29,-0.402 0.268,-0.398 0.249,-0.39C0.23,-0.381 0.213,-0.37 0.2,-0.356C0.187,-0.341 0.176,-0.324 0.169,-0.304C0.162,-0.283 0.158,-0.261 0.158,-0.237C0.158,-0.213 0.162,-0.191 0.169,-0.171C0.176,-0.15 0.187,-0.133 0.2,-0.119C0.213,-0.104 0.23,-0.093 0.249,-0.085C0.268,-0.076 0.29,-0.072 0.314,-0.072C0.338,-0.072 0.36,-0.076 0.379,-0.085C0.398,-0.093 0.415,-0.104 0.428,-0.119C0.441,-0.133 0.452,-0.15 0.459,-0.171C0.466,-0.191 0.47,-0.213 0.47,-0.237C0.47,-0.261 0.466,-0.283 0.459,-0.304C0.452,-0.324 0.441,-0.341 0.428,-0.356C0.415,-0.37 0.398,-0.381 0.379,-0.39C0.36,-0.398 0.338,-0.402 0.314,-0.402Z" style="fill-rule:nonzero;"/>
            </g>
        </g>
        <g transform="matrix(0.747457,0,0,0.747457,340.243,267.574)">
            <g transform="matrix(81.5347,0,0,81.5347,1369.06,1140.25)">
                <path d="M0.053,-0.486L0.197,-0.486L0.197,-0.42L0.199,-0.42C0.204,-0.429 0.21,-0.439 0.219,-0.448C0.228,-0.457 0.238,-0.466 0.25,-0.473C0.262,-0.48 0.276,-0.486 0.291,-0.491C0.306,-0.496 0.323,-0.498 0.341,-0.498C0.379,-0.498 0.41,-0.492 0.433,-0.481C0.456,-0.469 0.474,-0.453 0.488,-0.432C0.501,-0.411 0.509,-0.387 0.514,-0.359C0.519,-0.331 0.521,-0.301 0.521,-0.268L0.521,-0L0.371,-0L0.371,-0.238C0.371,-0.252 0.371,-0.267 0.37,-0.282C0.369,-0.297 0.366,-0.31 0.361,-0.323C0.356,-0.336 0.348,-0.346 0.338,-0.354C0.327,-0.362 0.312,-0.366 0.293,-0.366C0.274,-0.366 0.258,-0.363 0.246,-0.356C0.234,-0.349 0.225,-0.339 0.219,-0.328C0.212,-0.316 0.208,-0.303 0.206,-0.288C0.204,-0.273 0.203,-0.258 0.203,-0.242L0.203,-0L0.053,-0L0.053,-0.486Z" style="fill-rule:nonzero;"/>
            </g>
            <g transform="matrix(81.5347,0,0,81.5347,1415.86,1140.25)">
                <path d="M0.513,-0.084C0.489,-0.053 0.459,-0.03 0.422,-0.013C0.385,0.004 0.347,0.012 0.308,0.012C0.271,0.012 0.236,0.006 0.203,-0.006C0.169,-0.018 0.141,-0.035 0.117,-0.058C0.092,-0.08 0.073,-0.107 0.059,-0.138C0.045,-0.169 0.038,-0.204 0.038,-0.243C0.038,-0.282 0.045,-0.317 0.059,-0.348C0.073,-0.379 0.092,-0.406 0.117,-0.429C0.141,-0.451 0.169,-0.468 0.203,-0.48C0.236,-0.492 0.271,-0.498 0.308,-0.498C0.343,-0.498 0.374,-0.492 0.403,-0.48C0.431,-0.468 0.455,-0.451 0.475,-0.429C0.494,-0.406 0.509,-0.379 0.52,-0.348C0.531,-0.317 0.536,-0.282 0.536,-0.243L0.536,-0.196L0.188,-0.196C0.194,-0.167 0.207,-0.145 0.227,-0.128C0.247,-0.111 0.272,-0.102 0.301,-0.102C0.326,-0.102 0.347,-0.108 0.364,-0.119C0.381,-0.13 0.395,-0.144 0.408,-0.161L0.513,-0.084ZM0.386,-0.298C0.387,-0.323 0.378,-0.345 0.361,-0.363C0.344,-0.381 0.321,-0.39 0.294,-0.39C0.277,-0.39 0.263,-0.387 0.25,-0.382C0.237,-0.377 0.227,-0.37 0.218,-0.362C0.209,-0.353 0.202,-0.343 0.197,-0.333C0.192,-0.322 0.189,-0.31 0.188,-0.298L0.386,-0.298Z" style="fill-rule:nonzero;"/>
            </g>
            <g transform="matrix(81.5347,0,0,81.5347,1462.66,1140.25)">
                <path d="M0.358,-0.061L0.356,-0.061C0.339,-0.035 0.317,-0.016 0.29,-0.005C0.262,0.006 0.233,0.012 0.202,0.012C0.179,0.012 0.158,0.009 0.137,0.003C0.116,-0.004 0.097,-0.013 0.081,-0.026C0.065,-0.039 0.052,-0.054 0.043,-0.073C0.034,-0.092 0.029,-0.113 0.029,-0.138C0.029,-0.166 0.034,-0.19 0.045,-0.209C0.055,-0.228 0.069,-0.244 0.087,-0.257C0.104,-0.27 0.124,-0.28 0.147,-0.287C0.17,-0.294 0.193,-0.299 0.218,-0.302C0.242,-0.305 0.266,-0.307 0.291,-0.308C0.315,-0.309 0.337,-0.309 0.358,-0.309C0.358,-0.336 0.349,-0.357 0.33,-0.373C0.311,-0.388 0.288,-0.396 0.262,-0.396C0.237,-0.396 0.215,-0.391 0.195,-0.381C0.174,-0.37 0.156,-0.356 0.14,-0.338L0.06,-0.42C0.088,-0.446 0.121,-0.466 0.158,-0.479C0.195,-0.492 0.234,-0.498 0.274,-0.498C0.318,-0.498 0.354,-0.493 0.383,-0.482C0.411,-0.47 0.434,-0.454 0.451,-0.433C0.468,-0.412 0.479,-0.386 0.486,-0.355C0.493,-0.323 0.496,-0.288 0.496,-0.247L0.496,-0L0.358,-0L0.358,-0.061ZM0.321,-0.213C0.31,-0.213 0.296,-0.213 0.279,-0.212C0.262,-0.211 0.245,-0.208 0.23,-0.203C0.214,-0.198 0.201,-0.191 0.19,-0.182C0.179,-0.173 0.173,-0.16 0.173,-0.143C0.173,-0.125 0.181,-0.112 0.196,-0.103C0.211,-0.094 0.227,-0.09 0.244,-0.09C0.259,-0.09 0.273,-0.092 0.287,-0.096C0.3,-0.1 0.312,-0.106 0.323,-0.113C0.334,-0.12 0.342,-0.13 0.349,-0.141C0.355,-0.152 0.358,-0.166 0.358,-0.181L0.358,-0.213L0.321,-0.213Z" style="fill-rule:nonzero;"/>
            </g>
            <g transform="matrix(81.5347,0,0,81.5347,1506.45,1140.25)">
                <path d="M0.053,-0.486L0.203,-0.486L0.203,-0.408L0.205,-0.408C0.221,-0.438 0.24,-0.46 0.262,-0.476C0.284,-0.491 0.312,-0.498 0.345,-0.498C0.354,-0.498 0.362,-0.498 0.371,-0.497C0.38,-0.496 0.388,-0.495 0.395,-0.493L0.395,-0.356C0.384,-0.359 0.374,-0.362 0.364,-0.364C0.353,-0.365 0.342,-0.366 0.331,-0.366C0.302,-0.366 0.28,-0.362 0.263,-0.354C0.246,-0.346 0.234,-0.335 0.225,-0.321C0.216,-0.306 0.21,-0.289 0.207,-0.269C0.204,-0.249 0.203,-0.227 0.203,-0.203L0.203,-0L0.053,-0L0.053,-0.486Z" style="fill-rule:nonzero;"/>
            </g>
            <g transform="matrix(81.5347,0,0,81.5347,1538.17,1140.25)">
                <path d="M0.513,-0.084C0.489,-0.053 0.459,-0.03 0.422,-0.013C0.385,0.004 0.347,0.012 0.308,0.012C0.271,0.012 0.236,0.006 0.203,-0.006C0.169,-0.018 0.141,-0.035 0.117,-0.058C0.092,-0.08 0.073,-0.107 0.059,-0.138C0.045,-0.169 0.038,-0.204 0.038,-0.243C0.038,-0.282 0.045,-0.317 0.059,-0.348C0.073,-0.379 0.092,-0.406 0.117,-0.429C0.141,-0.451 0.169,-0.468 0.203,-0.48C0.236,-0.492 0.271,-0.498 0.308,-0.498C0.343,-0.498 0.374,-0.492 0.403,-0.48C0.431,-0.468 0.455,-0.451 0.475,-0.429C0.494,-0.406 0.509,-0.379 0.52,-0.348C0.531,-0.317 0.536,-0.282 0.536,-0.243L0.536,-0.196L0.188,-0.196C0.194,-0.167 0.207,-0.145 0.227,-0.128C0.247,-0.111 0.272,-0.102 0.301,-0.102C0.326,-0.102 0.347,-0.108 0.364,-0.119C0.381,-0.13 0.395,-0.144 0.408,-0.161L0.513,-0.084ZM0.386,-0.298C0.387,-0.323 0.378,-0.345 0.361,-0.363C0.344,-0.381 0.321,-0.39 0.294,-0.39C0.277,-0.39 0.263,-0.387 0.25,-0.382C0.237,-0.377 0.227,-0.37 0.218,-0.362C0.209,-0.353 0.202,-0.343 0.197,-0.333C0.192,-0.322 0.189,-0.31 0.188,-0.298L0.386,-0.298Z" style="fill-rule:nonzero;"/>
            </g>
            <g transform="matrix(81.5347,0,0,81.5347,1584.97,1140.25)">
                <path d="M0.328,-0.343C0.306,-0.37 0.277,-0.384 0.241,-0.384C0.228,-0.384 0.216,-0.381 0.204,-0.375C0.192,-0.369 0.186,-0.359 0.186,-0.344C0.186,-0.332 0.192,-0.323 0.205,-0.318C0.217,-0.312 0.233,-0.307 0.252,-0.303C0.271,-0.298 0.291,-0.294 0.313,-0.289C0.334,-0.284 0.355,-0.276 0.374,-0.265C0.393,-0.254 0.408,-0.24 0.421,-0.222C0.433,-0.203 0.439,-0.179 0.439,-0.148C0.439,-0.117 0.432,-0.091 0.419,-0.071C0.405,-0.05 0.387,-0.034 0.366,-0.022C0.345,-0.009 0.321,-0 0.294,0.005C0.267,0.01 0.241,0.012 0.215,0.012C0.181,0.012 0.147,0.007 0.112,-0.003C0.077,-0.012 0.048,-0.029 0.024,-0.054L0.115,-0.155C0.129,-0.138 0.145,-0.125 0.162,-0.116C0.179,-0.107 0.198,-0.102 0.221,-0.102C0.238,-0.102 0.254,-0.105 0.268,-0.11C0.282,-0.115 0.289,-0.124 0.289,-0.137C0.289,-0.15 0.283,-0.159 0.271,-0.166C0.258,-0.172 0.243,-0.177 0.224,-0.182C0.205,-0.186 0.184,-0.191 0.163,-0.196C0.141,-0.201 0.121,-0.208 0.102,-0.218C0.083,-0.228 0.067,-0.242 0.055,-0.261C0.042,-0.279 0.036,-0.303 0.036,-0.334C0.036,-0.363 0.042,-0.387 0.054,-0.408C0.065,-0.429 0.081,-0.446 0.1,-0.459C0.119,-0.472 0.14,-0.482 0.165,-0.489C0.19,-0.495 0.215,-0.498 0.24,-0.498C0.272,-0.498 0.304,-0.493 0.337,-0.484C0.37,-0.475 0.397,-0.458 0.42,-0.434L0.328,-0.343Z" style="fill-rule:nonzero;"/>
            </g>
            <g transform="matrix(81.5347,0,0,81.5347,1622.72,1140.25)">
                <path d="M0.384,-0.366L0.252,-0.366L0.252,-0.204C0.252,-0.191 0.253,-0.179 0.254,-0.168C0.255,-0.157 0.258,-0.147 0.263,-0.139C0.268,-0.131 0.275,-0.125 0.285,-0.121C0.294,-0.116 0.307,-0.114 0.323,-0.114C0.331,-0.114 0.341,-0.115 0.355,-0.117C0.368,-0.118 0.377,-0.122 0.384,-0.128L0.384,-0.003C0.367,0.003 0.35,0.007 0.332,0.009C0.314,0.011 0.296,0.012 0.279,0.012C0.254,0.012 0.23,0.009 0.209,0.004C0.188,-0.001 0.169,-0.01 0.153,-0.022C0.137,-0.033 0.125,-0.048 0.116,-0.067C0.107,-0.086 0.102,-0.108 0.102,-0.135L0.102,-0.366L0.006,-0.366L0.006,-0.486L0.102,-0.486L0.102,-0.63L0.252,-0.63L0.252,-0.486L0.384,-0.486L0.384,-0.366Z" style="fill-rule:nonzero;"/>
            </g>
            <g transform="matrix(81.5347,0,0,81.5347,1680.04,1140.25)">
                <path d="M0.563,-0.041C0.563,0.051 0.54,0.121 0.494,0.169C0.447,0.216 0.377,0.24 0.282,0.24C0.239,0.24 0.196,0.235 0.154,0.226C0.112,0.216 0.073,0.197 0.038,0.169L0.121,0.045C0.144,0.064 0.169,0.08 0.195,0.091C0.22,0.102 0.248,0.108 0.279,0.108C0.325,0.108 0.359,0.097 0.381,0.075C0.402,0.052 0.413,0.024 0.413,-0.011L0.413,-0.058L0.411,-0.058C0.394,-0.035 0.372,-0.018 0.347,-0.009C0.321,0.001 0.297,0.006 0.274,0.006C0.238,0.006 0.205,-0 0.176,-0.013C0.147,-0.025 0.122,-0.042 0.101,-0.065C0.08,-0.087 0.063,-0.113 0.052,-0.144C0.041,-0.175 0.035,-0.208 0.035,-0.245C0.035,-0.277 0.04,-0.308 0.051,-0.339C0.061,-0.37 0.076,-0.397 0.095,-0.42C0.114,-0.443 0.137,-0.462 0.164,-0.477C0.191,-0.491 0.222,-0.498 0.257,-0.498C0.278,-0.498 0.298,-0.496 0.316,-0.491C0.333,-0.486 0.349,-0.48 0.363,-0.473C0.377,-0.466 0.389,-0.458 0.399,-0.449C0.409,-0.44 0.417,-0.431 0.423,-0.422L0.425,-0.422L0.425,-0.486L0.563,-0.486L0.563,-0.041ZM0.185,-0.246C0.185,-0.23 0.188,-0.215 0.194,-0.201C0.2,-0.186 0.209,-0.173 0.22,-0.163C0.231,-0.152 0.243,-0.143 0.258,-0.136C0.272,-0.129 0.288,-0.126 0.305,-0.126C0.322,-0.126 0.337,-0.129 0.352,-0.136C0.367,-0.143 0.38,-0.152 0.391,-0.163C0.402,-0.173 0.41,-0.186 0.416,-0.201C0.422,-0.215 0.425,-0.23 0.425,-0.246C0.425,-0.262 0.422,-0.277 0.416,-0.292C0.41,-0.306 0.402,-0.319 0.391,-0.33C0.38,-0.341 0.367,-0.349 0.352,-0.356C0.337,-0.363 0.322,-0.366 0.305,-0.366C0.288,-0.366 0.272,-0.363 0.258,-0.356C0.243,-0.349 0.231,-0.341 0.22,-0.33C0.209,-0.319 0.2,-0.306 0.194,-0.292C0.188,-0.277 0.185,-0.262 0.185,-0.246Z" style="fill-rule:nonzero;"/>
            </g>
            <g transform="matrix(81.5347,0,0,81.5347,1731.4,1140.25)">
                <path d="M0.053,-0.486L0.203,-0.486L0.203,-0.408L0.205,-0.408C0.221,-0.438 0.24,-0.46 0.262,-0.476C0.284,-0.491 0.312,-0.498 0.345,-0.498C0.354,-0.498 0.362,-0.498 0.371,-0.497C0.38,-0.496 0.388,-0.495 0.395,-0.493L0.395,-0.356C0.384,-0.359 0.374,-0.362 0.364,-0.364C0.353,-0.365 0.342,-0.366 0.331,-0.366C0.302,-0.366 0.28,-0.362 0.263,-0.354C0.246,-0.346 0.234,-0.335 0.225,-0.321C0.216,-0.306 0.21,-0.289 0.207,-0.269C0.204,-0.249 0.203,-0.227 0.203,-0.203L0.203,-0L0.053,-0L0.053,-0.486Z" style="fill-rule:nonzero;"/>
            </g>
            <g transform="matrix(81.5347,0,0,81.5347,1764.59,1140.25)">
                <path d="M0.055,-0.486L0.205,-0.486L0.205,-0L0.055,-0L0.055,-0.486ZM0.043,-0.639C0.043,-0.663 0.052,-0.684 0.069,-0.701C0.086,-0.717 0.106,-0.726 0.13,-0.726C0.154,-0.726 0.175,-0.717 0.192,-0.701C0.209,-0.684 0.217,-0.663 0.217,-0.639C0.217,-0.615 0.209,-0.595 0.192,-0.578C0.175,-0.561 0.154,-0.552 0.13,-0.552C0.106,-0.552 0.086,-0.561 0.069,-0.578C0.052,-0.595 0.043,-0.615 0.043,-0.639Z" style="fill-rule:nonzero;"/>
            </g>
            <g transform="matrix(81.5347,0,0,81.5347,1785.79,1140.25)">
                <path d="M0.563,-0L0.425,-0L0.425,-0.064L0.423,-0.064C0.417,-0.055 0.409,-0.047 0.4,-0.038C0.39,-0.028 0.379,-0.02 0.366,-0.013C0.353,-0.006 0.338,0 0.323,0.005C0.307,0.01 0.291,0.012 0.274,0.012C0.238,0.012 0.205,0.006 0.176,-0.007C0.147,-0.019 0.122,-0.036 0.101,-0.059C0.08,-0.081 0.063,-0.107 0.052,-0.138C0.041,-0.169 0.035,-0.202 0.035,-0.239C0.035,-0.273 0.04,-0.306 0.051,-0.337C0.061,-0.368 0.076,-0.395 0.095,-0.419C0.114,-0.443 0.137,-0.462 0.164,-0.477C0.191,-0.491 0.222,-0.498 0.257,-0.498C0.288,-0.498 0.318,-0.493 0.345,-0.484C0.372,-0.474 0.394,-0.457 0.411,-0.434L0.413,-0.434L0.413,-0.756L0.563,-0.756L0.563,-0ZM0.425,-0.243C0.425,-0.28 0.415,-0.309 0.394,-0.332C0.373,-0.355 0.343,-0.366 0.305,-0.366C0.267,-0.366 0.238,-0.355 0.217,-0.332C0.196,-0.309 0.185,-0.28 0.185,-0.243C0.185,-0.206 0.196,-0.177 0.217,-0.154C0.238,-0.131 0.267,-0.12 0.305,-0.12C0.343,-0.12 0.373,-0.131 0.394,-0.154C0.415,-0.177 0.425,-0.206 0.425,-0.243Z" style="fill-rule:nonzero;"/>
            </g>
            <g transform="matrix(81.5347,0,0,81.5347,1861.29,1140.25)">
                <path d="M0.067,-0.486L0.205,-0.486L0.205,-0.422L0.207,-0.422C0.213,-0.431 0.221,-0.44 0.231,-0.449C0.24,-0.458 0.252,-0.466 0.265,-0.473C0.278,-0.48 0.292,-0.486 0.307,-0.491C0.322,-0.496 0.339,-0.498 0.356,-0.498C0.392,-0.498 0.425,-0.492 0.454,-0.48C0.483,-0.467 0.509,-0.45 0.53,-0.428C0.551,-0.405 0.567,-0.379 0.578,-0.348C0.589,-0.317 0.595,-0.284 0.595,-0.247C0.595,-0.213 0.59,-0.181 0.58,-0.15C0.569,-0.119 0.555,-0.091 0.536,-0.067C0.517,-0.043 0.493,-0.024 0.466,-0.01C0.439,0.005 0.408,0.012 0.373,0.012C0.342,0.012 0.313,0.007 0.286,-0.003C0.259,-0.012 0.236,-0.029 0.219,-0.052L0.217,-0.052L0.217,0.228L0.067,0.228L0.067,-0.486ZM0.205,-0.243C0.205,-0.206 0.216,-0.177 0.237,-0.154C0.258,-0.131 0.287,-0.12 0.325,-0.12C0.363,-0.12 0.393,-0.131 0.414,-0.154C0.435,-0.177 0.445,-0.206 0.445,-0.243C0.445,-0.28 0.435,-0.309 0.414,-0.332C0.393,-0.355 0.363,-0.366 0.325,-0.366C0.287,-0.366 0.258,-0.355 0.237,-0.332C0.216,-0.309 0.205,-0.28 0.205,-0.243Z" style="fill-rule:nonzero;"/>
            </g>
            <g transform="matrix(81.5347,0,0,81.5347,1912.65,1140.25)">
                <path d="M0.035,-0.243C0.035,-0.282 0.042,-0.317 0.056,-0.348C0.07,-0.379 0.089,-0.406 0.114,-0.429C0.138,-0.451 0.167,-0.468 0.2,-0.48C0.233,-0.492 0.268,-0.498 0.305,-0.498C0.342,-0.498 0.378,-0.492 0.411,-0.48C0.444,-0.468 0.472,-0.451 0.497,-0.429C0.521,-0.406 0.54,-0.379 0.554,-0.348C0.568,-0.317 0.575,-0.282 0.575,-0.243C0.575,-0.204 0.568,-0.169 0.554,-0.138C0.54,-0.107 0.521,-0.08 0.497,-0.058C0.472,-0.035 0.444,-0.018 0.411,-0.006C0.378,0.006 0.342,0.012 0.305,0.012C0.268,0.012 0.233,0.006 0.2,-0.006C0.167,-0.018 0.138,-0.035 0.114,-0.058C0.089,-0.08 0.07,-0.107 0.056,-0.138C0.042,-0.169 0.035,-0.204 0.035,-0.243ZM0.185,-0.243C0.185,-0.206 0.196,-0.177 0.217,-0.154C0.238,-0.131 0.267,-0.12 0.305,-0.12C0.343,-0.12 0.373,-0.131 0.394,-0.154C0.415,-0.177 0.425,-0.206 0.425,-0.243C0.425,-0.28 0.415,-0.309 0.394,-0.332C0.373,-0.355 0.343,-0.366 0.305,-0.366C0.267,-0.366 0.238,-0.355 0.217,-0.332C0.196,-0.309 0.185,-0.28 0.185,-0.243Z" style="fill-rule:nonzero;"/>
            </g>
            <g transform="matrix(81.5347,0,0,81.5347,1962.39,1140.25)">
                <path d="M0.055,-0.486L0.205,-0.486L0.205,-0L0.055,-0L0.055,-0.486ZM0.043,-0.639C0.043,-0.663 0.052,-0.684 0.069,-0.701C0.086,-0.717 0.106,-0.726 0.13,-0.726C0.154,-0.726 0.175,-0.717 0.192,-0.701C0.209,-0.684 0.217,-0.663 0.217,-0.639C0.217,-0.615 0.209,-0.595 0.192,-0.578C0.175,-0.561 0.154,-0.552 0.13,-0.552C0.106,-0.552 0.086,-0.561 0.069,-0.578C0.052,-0.595 0.043,-0.615 0.043,-0.639Z" style="fill-rule:nonzero;"/>
            </g>
            <g transform="matrix(81.5347,0,0,81.5347,1983.59,1140.25)">
                <path d="M0.053,-0.486L0.197,-0.486L0.197,-0.42L0.199,-0.42C0.204,-0.429 0.21,-0.439 0.219,-0.448C0.228,-0.457 0.238,-0.466 0.25,-0.473C0.262,-0.48 0.276,-0.486 0.291,-0.491C0.306,-0.496 0.323,-0.498 0.341,-0.498C0.379,-0.498 0.41,-0.492 0.433,-0.481C0.456,-0.469 0.474,-0.453 0.488,-0.432C0.501,-0.411 0.509,-0.387 0.514,-0.359C0.519,-0.331 0.521,-0.301 0.521,-0.268L0.521,-0L0.371,-0L0.371,-0.238C0.371,-0.252 0.371,-0.267 0.37,-0.282C0.369,-0.297 0.366,-0.31 0.361,-0.323C0.356,-0.336 0.348,-0.346 0.338,-0.354C0.327,-0.362 0.312,-0.366 0.293,-0.366C0.274,-0.366 0.258,-0.363 0.246,-0.356C0.234,-0.349 0.225,-0.339 0.219,-0.328C0.212,-0.316 0.208,-0.303 0.206,-0.288C0.204,-0.273 0.203,-0.258 0.203,-0.242L0.203,-0L0.053,-0L0.053,-0.486Z" style="fill-rule:nonzero;"/>
            </g>
            <g transform="matrix(81.5347,0,0,81.5347,2030.39,1140.25)">
                <path d="M0.384,-0.366L0.252,-0.366L0.252,-0.204C0.252,-0.191 0.253,-0.179 0.254,-0.168C0.255,-0.157 0.258,-0.147 0.263,-0.139C0.268,-0.131 0.275,-0.125 0.285,-0.121C0.294,-0.116 0.307,-0.114 0.323,-0.114C0.331,-0.114 0.341,-0.115 0.355,-0.117C0.368,-0.118 0.377,-0.122 0.384,-0.128L0.384,-0.003C0.367,0.003 0.35,0.007 0.332,0.009C0.314,0.011 0.296,0.012 0.279,0.012C0.254,0.012 0.23,0.009 0.209,0.004C0.188,-0.001 0.169,-0.01 0.153,-0.022C0.137,-0.033 0.125,-0.048 0.116,-0.067C0.107,-0.086 0.102,-0.108 0.102,-0.135L0.102,-0.366L0.006,-0.366L0.006,-0.486L0.102,-0.486L0.102,-0.63L0.252,-0.63L0.252,-0.486L0.384,-0.486L0.384,-0.366Z" style="fill-rule:nonzero;"/>
            </g>
            <g transform="matrix(81.5347,0,0,81.5347,2087.71,1140.25)">
                <path d="M0.358,-0.061L0.356,-0.061C0.339,-0.035 0.317,-0.016 0.29,-0.005C0.262,0.006 0.233,0.012 0.202,0.012C0.179,0.012 0.158,0.009 0.137,0.003C0.116,-0.004 0.097,-0.013 0.081,-0.026C0.065,-0.039 0.052,-0.054 0.043,-0.073C0.034,-0.092 0.029,-0.113 0.029,-0.138C0.029,-0.166 0.034,-0.19 0.045,-0.209C0.055,-0.228 0.069,-0.244 0.087,-0.257C0.104,-0.27 0.124,-0.28 0.147,-0.287C0.17,-0.294 0.193,-0.299 0.218,-0.302C0.242,-0.305 0.266,-0.307 0.291,-0.308C0.315,-0.309 0.337,-0.309 0.358,-0.309C0.358,-0.336 0.349,-0.357 0.33,-0.373C0.311,-0.388 0.288,-0.396 0.262,-0.396C0.237,-0.396 0.215,-0.391 0.195,-0.381C0.174,-0.37 0.156,-0.356 0.14,-0.338L0.06,-0.42C0.088,-0.446 0.121,-0.466 0.158,-0.479C0.195,-0.492 0.234,-0.498 0.274,-0.498C0.318,-0.498 0.354,-0.493 0.383,-0.482C0.411,-0.47 0.434,-0.454 0.451,-0.433C0.468,-0.412 0.479,-0.386 0.486,-0.355C0.493,-0.323 0.496,-0.288 0.496,-0.247L0.496,-0L0.358,-0L0.358,-0.061ZM0.321,-0.213C0.31,-0.213 0.296,-0.213 0.279,-0.212C0.262,-0.211 0.245,-0.208 0.23,-0.203C0.214,-0.198 0.201,-0.191 0.19,-0.182C0.179,-0.173 0.173,-0.16 0.173,-0.143C0.173,-0.125 0.181,-0.112 0.196,-0.103C0.211,-0.094 0.227,-0.09 0.244,-0.09C0.259,-0.09 0.273,-0.092 0.287,-0.096C0.3,-0.1 0.312,-0.106 0.323,-0.113C0.334,-0.12 0.342,-0.13 0.349,-0.141C0.355,-0.152 0.358,-0.166 0.358,-0.181L0.358,-0.213L0.321,-0.213Z" style="fill-rule:nonzero;"/>
            </g>
            <g transform="matrix(81.5347,0,0,81.5347,2131.49,1140.25)">
                <path d="M0.328,-0.343C0.306,-0.37 0.277,-0.384 0.241,-0.384C0.228,-0.384 0.216,-0.381 0.204,-0.375C0.192,-0.369 0.186,-0.359 0.186,-0.344C0.186,-0.332 0.192,-0.323 0.205,-0.318C0.217,-0.312 0.233,-0.307 0.252,-0.303C0.271,-0.298 0.291,-0.294 0.313,-0.289C0.334,-0.284 0.355,-0.276 0.374,-0.265C0.393,-0.254 0.408,-0.24 0.421,-0.222C0.433,-0.203 0.439,-0.179 0.439,-0.148C0.439,-0.117 0.432,-0.091 0.419,-0.071C0.405,-0.05 0.387,-0.034 0.366,-0.022C0.345,-0.009 0.321,-0 0.294,0.005C0.267,0.01 0.241,0.012 0.215,0.012C0.181,0.012 0.147,0.007 0.112,-0.003C0.077,-0.012 0.048,-0.029 0.024,-0.054L0.115,-0.155C0.129,-0.138 0.145,-0.125 0.162,-0.116C0.179,-0.107 0.198,-0.102 0.221,-0.102C0.238,-0.102 0.254,-0.105 0.268,-0.11C0.282,-0.115 0.289,-0.124 0.289,-0.137C0.289,-0.15 0.283,-0.159 0.271,-0.166C0.258,-0.172 0.243,-0.177 0.224,-0.182C0.205,-0.186 0.184,-0.191 0.163,-0.196C0.141,-0.201 0.121,-0.208 0.102,-0.218C0.083,-0.228 0.067,-0.242 0.055,-0.261C0.042,-0.279 0.036,-0.303 0.036,-0.334C0.036,-0.363 0.042,-0.387 0.054,-0.408C0.065,-0.429 0.081,-0.446 0.1,-0.459C0.119,-0.472 0.14,-0.482 0.165,-0.489C0.19,-0.495 0.215,-0.498 0.24,-0.498C0.272,-0.498 0.304,-0.493 0.337,-0.484C0.37,-0.475 0.397,-0.458 0.42,-0.434L0.328,-0.343Z" style="fill-rule:nonzero;"/>
            </g>
            <g transform="matrix(81.5347,0,0,81.5347,2169.24,1140.25)">
                <path d="M0.328,-0.343C0.306,-0.37 0.277,-0.384 0.241,-0.384C0.228,-0.384 0.216,-0.381 0.204,-0.375C0.192,-0.369 0.186,-0.359 0.186,-0.344C0.186,-0.332 0.192,-0.323 0.205,-0.318C0.217,-0.312 0.233,-0.307 0.252,-0.303C0.271,-0.298 0.291,-0.294 0.313,-0.289C0.334,-0.284 0.355,-0.276 0.374,-0.265C0.393,-0.254 0.408,-0.24 0.421,-0.222C0.433,-0.203 0.439,-0.179 0.439,-0.148C0.439,-0.117 0.432,-0.091 0.419,-0.071C0.405,-0.05 0.387,-0.034 0.366,-0.022C0.345,-0.009 0.321,-0 0.294,0.005C0.267,0.01 0.241,0.012 0.215,0.012C0.181,0.012 0.147,0.007 0.112,-0.003C0.077,-0.012 0.048,-0.029 0.024,-0.054L0.115,-0.155C0.129,-0.138 0.145,-0.125 0.162,-0.116C0.179,-0.107 0.198,-0.102 0.221,-0.102C0.238,-0.102 0.254,-0.105 0.268,-0.11C0.282,-0.115 0.289,-0.124 0.289,-0.137C0.289,-0.15 0.283,-0.159 0.271,-0.166C0.258,-0.172 0.243,-0.177 0.224,-0.182C0.205,-0.186 0.184,-0.191 0.163,-0.196C0.141,-0.201 0.121,-0.208 0.102,-0.218C0.083,-0.228 0.067,-0.242 0.055,-0.261C0.042,-0.279 0.036,-0.303 0.036,-0.334C0.036,-0.363 0.042,-0.387 0.054,-0.408C0.065,-0.429 0.081,-0.446 0.1,-0.459C0.119,-0.472 0.14,-0.482 0.165,-0.489C0.19,-0.495 0.215,-0.498 0.24,-0.498C0.272,-0.498 0.304,-0.493 0.337,-0.484C0.37,-0.475 0.397,-0.458 0.42,-0.434L0.328,-0.343Z" style="fill-rule:nonzero;"/>
            </g>
            <g transform="matrix(81.5347,0,0,81.5347,2206.99,1140.25)">
                <path d="M0.055,-0.486L0.205,-0.486L0.205,-0L0.055,-0L0.055,-0.486ZM0.043,-0.639C0.043,-0.663 0.052,-0.684 0.069,-0.701C0.086,-0.717 0.106,-0.726 0.13,-0.726C0.154,-0.726 0.175,-0.717 0.192,-0.701C0.209,-0.684 0.217,-0.663 0.217,-0.639C0.217,-0.615 0.209,-0.595 0.192,-0.578C0.175,-0.561 0.154,-0.552 0.13,-0.552C0.106,-0.552 0.086,-0.561 0.069,-0.578C0.052,-0.595 0.043,-0.615 0.043,-0.639Z" style="fill-rule:nonzero;"/>
            </g>
            <g transform="matrix(81.5347,0,0,81.5347,2228.19,1140.25)">
                <path d="M0.563,-0.041C0.563,0.051 0.54,0.121 0.494,0.169C0.447,0.216 0.377,0.24 0.282,0.24C0.239,0.24 0.196,0.235 0.154,0.226C0.112,0.216 0.073,0.197 0.038,0.169L0.121,0.045C0.144,0.064 0.169,0.08 0.195,0.091C0.22,0.102 0.248,0.108 0.279,0.108C0.325,0.108 0.359,0.097 0.381,0.075C0.402,0.052 0.413,0.024 0.413,-0.011L0.413,-0.058L0.411,-0.058C0.394,-0.035 0.372,-0.018 0.347,-0.009C0.321,0.001 0.297,0.006 0.274,0.006C0.238,0.006 0.205,-0 0.176,-0.013C0.147,-0.025 0.122,-0.042 0.101,-0.065C0.08,-0.087 0.063,-0.113 0.052,-0.144C0.041,-0.175 0.035,-0.208 0.035,-0.245C0.035,-0.277 0.04,-0.308 0.051,-0.339C0.061,-0.37 0.076,-0.397 0.095,-0.42C0.114,-0.443 0.137,-0.462 0.164,-0.477C0.191,-0.491 0.222,-0.498 0.257,-0.498C0.278,-0.498 0.298,-0.496 0.316,-0.491C0.333,-0.486 0.349,-0.48 0.363,-0.473C0.377,-0.466 0.389,-0.458 0.399,-0.449C0.409,-0.44 0.417,-0.431 0.423,-0.422L0.425,-0.422L0.425,-0.486L0.563,-0.486L0.563,-0.041ZM0.185,-0.246C0.185,-0.23 0.188,-0.215 0.194,-0.201C0.2,-0.186 0.209,-0.173 0.22,-0.163C0.231,-0.152 0.243,-0.143 0.258,-0.136C0.272,-0.129 0.288,-0.126 0.305,-0.126C0.322,-0.126 0.337,-0.129 0.352,-0.136C0.367,-0.143 0.38,-0.152 0.391,-0.163C0.402,-0.173 0.41,-0.186 0.416,-0.201C0.422,-0.215 0.425,-0.23 0.425,-0.246C0.425,-0.262 0.422,-0.277 0.416,-0.292C0.41,-0.306 0.402,-0.319 0.391,-0.33C0.38,-0.341 0.367,-0.349 0.352,-0.356C0.337,-0.363 0.322,-0.366 0.305,-0.366C0.288,-0.366 0.272,-0.363 0.258,-0.356C0.243,-0.349 0.231,-0.341 0.22,-0.33C0.209,-0.319 0.2,-0.306 0.194,-0.292C0.188,-0.277 0.185,-0.262 0.185,-0.246Z" style="fill-rule:nonzero;"/>
            </g>
            <g transform="matrix(81.5347,0,0,81.5347,2279.56,1140.25)">
                <path d="M0.053,-0.486L0.197,-0.486L0.197,-0.42L0.199,-0.42C0.204,-0.429 0.21,-0.439 0.219,-0.448C0.228,-0.457 0.238,-0.466 0.25,-0.473C0.262,-0.48 0.276,-0.486 0.291,-0.491C0.306,-0.496 0.323,-0.498 0.341,-0.498C0.379,-0.498 0.41,-0.492 0.433,-0.481C0.456,-0.469 0.474,-0.453 0.488,-0.432C0.501,-0.411 0.509,-0.387 0.514,-0.359C0.519,-0.331 0.521,-0.301 0.521,-0.268L0.521,-0L0.371,-0L0.371,-0.238C0.371,-0.252 0.371,-0.267 0.37,-0.282C0.369,-0.297 0.366,-0.31 0.361,-0.323C0.356,-0.336 0.348,-0.346 0.338,-0.354C0.327,-0.362 0.312,-0.366 0.293,-0.366C0.274,-0.366 0.258,-0.363 0.246,-0.356C0.234,-0.349 0.225,-0.339 0.219,-0.328C0.212,-0.316 0.208,-0.303 0.206,-0.288C0.204,-0.273 0.203,-0.258 0.203,-0.242L0.203,-0L0.053,-0L0.053,-0.486Z" style="fill-rule:nonzero;"/>
            </g>
            <g transform="matrix(81.5347,0,0,81.5347,2326.36,1140.25)">
                <path d="M0.053,-0.486L0.197,-0.486L0.197,-0.42L0.199,-0.42C0.204,-0.429 0.21,-0.439 0.219,-0.448C0.228,-0.457 0.238,-0.466 0.25,-0.473C0.262,-0.48 0.276,-0.486 0.291,-0.491C0.306,-0.496 0.323,-0.498 0.341,-0.498C0.375,-0.498 0.405,-0.491 0.432,-0.477C0.458,-0.463 0.478,-0.441 0.491,-0.411C0.508,-0.442 0.529,-0.465 0.554,-0.478C0.579,-0.491 0.609,-0.498 0.645,-0.498C0.678,-0.498 0.705,-0.493 0.728,-0.482C0.75,-0.47 0.768,-0.456 0.781,-0.437C0.794,-0.418 0.803,-0.395 0.809,-0.37C0.814,-0.344 0.817,-0.316 0.817,-0.287L0.817,-0L0.667,-0L0.667,-0.283C0.667,-0.306 0.662,-0.325 0.653,-0.342C0.643,-0.358 0.626,-0.366 0.601,-0.366C0.584,-0.366 0.569,-0.363 0.558,-0.358C0.546,-0.352 0.537,-0.344 0.53,-0.334C0.523,-0.324 0.518,-0.312 0.515,-0.299C0.511,-0.286 0.51,-0.272 0.51,-0.257L0.51,-0L0.36,-0L0.36,-0.257C0.36,-0.266 0.36,-0.276 0.359,-0.289C0.358,-0.302 0.356,-0.314 0.352,-0.325C0.348,-0.336 0.342,-0.346 0.333,-0.354C0.324,-0.362 0.31,-0.366 0.293,-0.366C0.274,-0.366 0.258,-0.363 0.246,-0.356C0.234,-0.349 0.225,-0.339 0.219,-0.328C0.212,-0.316 0.208,-0.303 0.206,-0.288C0.204,-0.273 0.203,-0.258 0.203,-0.242L0.203,-0L0.053,-0L0.053,-0.486Z" style="fill-rule:nonzero;"/>
            </g>
            <g transform="matrix(81.5347,0,0,81.5347,2397.3,1140.25)">
                <path d="M0.513,-0.084C0.489,-0.053 0.459,-0.03 0.422,-0.013C0.385,0.004 0.347,0.012 0.308,0.012C0.271,0.012 0.236,0.006 0.203,-0.006C0.169,-0.018 0.141,-0.035 0.117,-0.058C0.092,-0.08 0.073,-0.107 0.059,-0.138C0.045,-0.169 0.038,-0.204 0.038,-0.243C0.038,-0.282 0.045,-0.317 0.059,-0.348C0.073,-0.379 0.092,-0.406 0.117,-0.429C0.141,-0.451 0.169,-0.468 0.203,-0.48C0.236,-0.492 0.271,-0.498 0.308,-0.498C0.343,-0.498 0.374,-0.492 0.403,-0.48C0.431,-0.468 0.455,-0.451 0.475,-0.429C0.494,-0.406 0.509,-0.379 0.52,-0.348C0.531,-0.317 0.536,-0.282 0.536,-0.243L0.536,-0.196L0.188,-0.196C0.194,-0.167 0.207,-0.145 0.227,-0.128C0.247,-0.111 0.272,-0.102 0.301,-0.102C0.326,-0.102 0.347,-0.108 0.364,-0.119C0.381,-0.13 0.395,-0.144 0.408,-0.161L0.513,-0.084ZM0.386,-0.298C0.387,-0.323 0.378,-0.345 0.361,-0.363C0.344,-0.381 0.321,-0.39 0.294,-0.39C0.277,-0.39 0.263,-0.387 0.25,-0.382C0.237,-0.377 0.227,-0.37 0.218,-0.362C0.209,-0.353 0.202,-0.343 0.197,-0.333C0.192,-0.322 0.189,-0.31 0.188,-0.298L0.386,-0.298Z" style="fill-rule:nonzero;"/>
            </g>
            <g transform="matrix(81.5347,0,0,81.5347,2444.1,1140.25)">
                <path d="M0.053,-0.486L0.197,-0.486L0.197,-0.42L0.199,-0.42C0.204,-0.429 0.21,-0.439 0.219,-0.448C0.228,-0.457 0.238,-0.466 0.25,-0.473C0.262,-0.48 0.276,-0.486 0.291,-0.491C0.306,-0.496 0.323,-0.498 0.341,-0.498C0.379,-0.498 0.41,-0.492 0.433,-0.481C0.456,-0.469 0.474,-0.453 0.488,-0.432C0.501,-0.411 0.509,-0.387 0.514,-0.359C0.519,-0.331 0.521,-0.301 0.521,-0.268L0.521,-0L0.371,-0L0.371,-0.238C0.371,-0.252 0.371,-0.267 0.37,-0.282C0.369,-0.297 0.366,-0.31 0.361,-0.323C0.356,-0.336 0.348,-0.346 0.338,-0.354C0.327,-0.362 0.312,-0.366 0.293,-0.366C0.274,-0.366 0.258,-0.363 0.246,-0.356C0.234,-0.349 0.225,-0.339 0.219,-0.328C0.212,-0.316 0.208,-0.303 0.206,-0.288C0.204,-0.273 0.203,-0.258 0.203,-0.242L0.203,-0L0.053,-0L0.053,-0.486Z" style="fill-rule:nonzero;"/>
            </g>
            <g transform="matrix(81.5347,0,0,81.5347,2490.9,1140.25)">
                <path d="M0.384,-0.366L0.252,-0.366L0.252,-0.204C0.252,-0.191 0.253,-0.179 0.254,-0.168C0.255,-0.157 0.258,-0.147 0.263,-0.139C0.268,-0.131 0.275,-0.125 0.285,-0.121C0.294,-0.116 0.307,-0.114 0.323,-0.114C0.331,-0.114 0.341,-0.115 0.355,-0.117C0.368,-0.118 0.377,-0.122 0.384,-0.128L0.384,-0.003C0.367,0.003 0.35,0.007 0.332,0.009C0.314,0.011 0.296,0.012 0.279,0.012C0.254,0.012 0.23,0.009 0.209,0.004C0.188,-0.001 0.169,-0.01 0.153,-0.022C0.137,-0.033 0.125,-0.048 0.116,-0.067C0.107,-0.086 0.102,-0.108 0.102,-0.135L0.102,-0.366L0.006,-0.366L0.006,-0.486L0.102,-0.486L0.102,-0.63L0.252,-0.63L0.252,-0.486L0.384,-0.486L0.384,-0.366Z" style="fill-rule:nonzero;"/>
            </g>
        </g>
        <g transform="matrix(0.978032,0,0,1,46.8792,0)">
            <path d="M1917.62,1215.4L2134,1215.4" style="fill:none;stroke:black;stroke-width:4.13px;"/>
        </g>
        <path d="M2134,1215.4L2121.74,1203.13" style="fill:none;stroke:black;stroke-width:4.09px;"/>
        <path d="M2134,1215.4L2120.47,1228.93" style="fill:none;stroke:black;stroke-width:4.09px;"/>
        <g transform="matrix(0.94755,0.0524495,0.0524495,0.94755,36.8925,-36.8925)">
            <path d="M1918.68,1215.29L1932.07,1201.89" style="fill:none;stroke:black;stroke-width:4.09px;"/>
        </g>
        <g transform="matrix(0.899142,-0.100858,-0.100858,0.899142,316.086,316.086)">
            <path d="M1918.68,1215.29L1932.76,1229.37" style="fill:none;stroke:black;stroke-width:5.12px;"/>
        </g>
        <g transform="matrix(1.24758,0,0,1.24758,-500.737,-304.071)">
            <g transform="matrix(49.2317,0,0,49.2317,2013.24,1270.35)">
                <path d="M0.068,-0.756L0.158,-0.756L0.158,-0.401L0.16,-0.401C0.171,-0.426 0.191,-0.447 0.219,-0.463C0.247,-0.478 0.279,-0.486 0.316,-0.486C0.339,-0.486 0.361,-0.483 0.382,-0.476C0.403,-0.468 0.421,-0.458 0.437,-0.443C0.452,-0.428 0.465,-0.409 0.474,-0.387C0.483,-0.364 0.488,-0.336 0.488,-0.305L0.488,-0L0.398,-0L0.398,-0.28C0.398,-0.302 0.395,-0.321 0.389,-0.337C0.383,-0.352 0.375,-0.365 0.365,-0.375C0.355,-0.384 0.343,-0.391 0.331,-0.396C0.318,-0.4 0.304,-0.402 0.29,-0.402C0.271,-0.402 0.254,-0.399 0.238,-0.393C0.222,-0.387 0.208,-0.378 0.196,-0.365C0.184,-0.352 0.175,-0.335 0.168,-0.315C0.161,-0.295 0.158,-0.271 0.158,-0.244L0.158,-0L0.068,-0L0.068,-0.756Z" style="fill-rule:nonzero;"/>
            </g>
        </g>
        <circle cx="1736.71" cy="1425.97" r="18.058" style="fill:rgb(0,32,255);stroke:rgb(0,33,255);stroke-width:4.09px;"/>
        <g transform="matrix(1,0,0,1,-1.25274,-1.05371)">
            <path d="M1736.64,1426.95L1736.64,1228.55" style="fill:none;stroke:rgb(62,145,187);stroke-width:4.09px;"/>
        </g>
        <g transform="matrix(1,0,0,1,28.5702,-3.07051)">
            <g transform="matrix(49.2317,0,0,49.2317,1621.8,1202.76)">
                <path d="M0.104,-0.706L0.498,-0.706L0.498,-0.634L0.218,-0.634L0.218,-0.632L0.392,-0.516C0.457,-0.472 0.502,-0.429 0.527,-0.386C0.55,-0.342 0.561,-0.297 0.56,-0.25C0.559,-0.181 0.537,-0.121 0.494,-0.07C0.45,-0.018 0.386,0.008 0.303,0.01C0.226,0.009 0.165,-0.015 0.12,-0.063C0.075,-0.11 0.051,-0.17 0.051,-0.243C0.052,-0.4 0.132,-0.485 0.291,-0.498L0.291,-0.5L0.104,-0.634L0.104,-0.706ZM0.311,-0.062C0.364,-0.063 0.402,-0.083 0.427,-0.124C0.451,-0.163 0.464,-0.205 0.464,-0.251C0.464,-0.277 0.461,-0.3 0.456,-0.319C0.451,-0.338 0.444,-0.354 0.436,-0.366C0.428,-0.379 0.42,-0.389 0.412,-0.397C0.404,-0.405 0.397,-0.411 0.392,-0.414C0.379,-0.426 0.36,-0.432 0.337,-0.432C0.211,-0.432 0.148,-0.368 0.147,-0.239C0.147,-0.19 0.161,-0.148 0.19,-0.115C0.219,-0.08 0.259,-0.063 0.311,-0.062Z" style="fill:rgb(62,145,187);fill-rule:nonzero;stroke:rgb(62,145,187);stroke-width:0.02px;stroke-linecap:butt;stroke-miterlimit:2;"/>
            </g>
            <g transform="matrix(49.2317,0,0,49.2317,1651.87,1202.76)">
                <rect x="0.038" y="-0.273" width="0.257" height="0.066" style="fill:rgb(62,145,187);fill-rule:nonzero;stroke:rgb(62,145,187);stroke-width:0.02px;stroke-linecap:butt;stroke-miterlimit:2;"/>
            </g>
            <g transform="matrix(49.2317,0,0,49.2317,1668.27,1202.76)">
                <path d="M0.32,-0.357C0.31,-0.376 0.297,-0.392 0.28,-0.403C0.263,-0.414 0.243,-0.42 0.219,-0.42C0.208,-0.42 0.196,-0.419 0.185,-0.416C0.173,-0.413 0.162,-0.409 0.153,-0.404C0.144,-0.398 0.136,-0.391 0.131,-0.382C0.125,-0.373 0.122,-0.363 0.122,-0.35C0.122,-0.328 0.13,-0.312 0.145,-0.302C0.16,-0.292 0.183,-0.283 0.214,-0.276L0.281,-0.26C0.314,-0.253 0.341,-0.238 0.363,-0.216C0.384,-0.193 0.395,-0.165 0.395,-0.132C0.395,-0.107 0.39,-0.085 0.38,-0.067C0.369,-0.048 0.356,-0.033 0.339,-0.022C0.322,-0.01 0.302,-0.001 0.28,0.004C0.258,0.009 0.236,0.012 0.213,0.012C0.177,0.012 0.143,0.005 0.113,-0.009C0.082,-0.022 0.055,-0.046 0.033,-0.079L0.09,-0.118C0.103,-0.097 0.12,-0.08 0.141,-0.067C0.161,-0.054 0.185,-0.048 0.213,-0.048C0.226,-0.048 0.24,-0.049 0.253,-0.053C0.266,-0.056 0.278,-0.06 0.289,-0.067C0.299,-0.073 0.307,-0.081 0.314,-0.091C0.32,-0.101 0.323,-0.113 0.323,-0.126C0.323,-0.149 0.314,-0.166 0.297,-0.177C0.28,-0.187 0.259,-0.195 0.234,-0.201L0.17,-0.216C0.162,-0.218 0.151,-0.221 0.138,-0.226C0.124,-0.231 0.111,-0.238 0.098,-0.247C0.085,-0.256 0.073,-0.269 0.064,-0.284C0.055,-0.299 0.05,-0.317 0.05,-0.339C0.05,-0.363 0.055,-0.384 0.065,-0.402C0.074,-0.42 0.087,-0.435 0.104,-0.446C0.12,-0.457 0.138,-0.466 0.159,-0.472C0.18,-0.477 0.201,-0.48 0.223,-0.48C0.256,-0.48 0.286,-0.474 0.314,-0.461C0.342,-0.448 0.364,-0.427 0.379,-0.396L0.32,-0.357Z" style="fill:rgb(62,145,187);fill-rule:nonzero;stroke:rgb(62,145,187);stroke-width:0.02px;stroke-linecap:butt;stroke-miterlimit:2;"/>
            </g>
            <g transform="matrix(49.2317,0,0,49.2317,1689.24,1202.76)">
                <path d="M0.072,-0.756L0.138,-0.756L0.138,-0.393L0.14,-0.393C0.147,-0.406 0.157,-0.417 0.168,-0.428C0.179,-0.439 0.192,-0.448 0.206,-0.456C0.22,-0.463 0.235,-0.469 0.251,-0.474C0.266,-0.478 0.282,-0.48 0.297,-0.48C0.357,-0.48 0.401,-0.464 0.43,-0.433C0.459,-0.401 0.473,-0.356 0.473,-0.297L0.473,-0L0.407,-0L0.407,-0.259C0.407,-0.311 0.398,-0.351 0.38,-0.379C0.362,-0.406 0.329,-0.42 0.28,-0.42C0.277,-0.42 0.267,-0.419 0.252,-0.416C0.237,-0.413 0.221,-0.406 0.204,-0.394C0.187,-0.382 0.171,-0.364 0.158,-0.34C0.145,-0.316 0.138,-0.283 0.138,-0.24L0.138,-0L0.072,-0L0.072,-0.756Z" style="fill:rgb(62,145,187);fill-rule:nonzero;stroke:rgb(62,145,187);stroke-width:0.02px;stroke-linecap:butt;stroke-miterlimit:2;"/>
            </g>
            <g transform="matrix(49.2317,0,0,49.2317,1716.61,1202.76)">
                <path d="M0.338,-0.233C0.321,-0.233 0.301,-0.232 0.276,-0.231C0.251,-0.229 0.227,-0.225 0.204,-0.219C0.181,-0.212 0.161,-0.202 0.145,-0.189C0.128,-0.176 0.12,-0.157 0.12,-0.134C0.12,-0.119 0.123,-0.106 0.13,-0.095C0.136,-0.084 0.144,-0.075 0.155,-0.068C0.166,-0.061 0.178,-0.056 0.191,-0.053C0.204,-0.049 0.217,-0.048 0.23,-0.048C0.254,-0.048 0.275,-0.052 0.293,-0.06C0.31,-0.068 0.325,-0.079 0.337,-0.093C0.349,-0.106 0.358,-0.122 0.364,-0.141C0.369,-0.159 0.372,-0.178 0.372,-0.199L0.372,-0.233L0.338,-0.233ZM0.372,-0.287L0.372,-0.299C0.372,-0.38 0.332,-0.42 0.252,-0.42C0.197,-0.42 0.15,-0.402 0.109,-0.365L0.069,-0.412C0.113,-0.457 0.179,-0.48 0.267,-0.48C0.29,-0.48 0.312,-0.477 0.333,-0.47C0.354,-0.463 0.372,-0.453 0.387,-0.44C0.402,-0.426 0.415,-0.409 0.424,-0.388C0.433,-0.367 0.438,-0.343 0.438,-0.314L0.438,-0.105C0.438,-0.087 0.439,-0.068 0.441,-0.049C0.442,-0.029 0.444,-0.013 0.446,-0L0.382,-0C0.38,-0.011 0.379,-0.024 0.378,-0.037C0.377,-0.05 0.376,-0.063 0.376,-0.076L0.374,-0.076C0.355,-0.045 0.332,-0.022 0.306,-0.009C0.279,0.005 0.247,0.012 0.209,0.012C0.188,0.012 0.168,0.009 0.149,0.004C0.13,-0.002 0.113,-0.011 0.098,-0.023C0.083,-0.034 0.07,-0.049 0.062,-0.066C0.053,-0.083 0.048,-0.102 0.048,-0.125C0.048,-0.163 0.058,-0.193 0.078,-0.215C0.097,-0.236 0.122,-0.252 0.152,-0.263C0.181,-0.274 0.213,-0.28 0.247,-0.283C0.28,-0.286 0.311,-0.287 0.339,-0.287L0.372,-0.287Z" style="fill:rgb(62,145,187);fill-rule:nonzero;stroke:rgb(62,145,187);stroke-width:0.02px;stroke-linecap:butt;stroke-miterlimit:2;"/>
            </g>
            <g transform="matrix(49.2317,0,0,49.2317,1742.17,1202.76)">
                <path d="M0.499,-0.234C0.499,-0.26 0.495,-0.284 0.487,-0.307C0.478,-0.33 0.466,-0.349 0.451,-0.366C0.436,-0.383 0.417,-0.396 0.396,-0.406C0.374,-0.415 0.349,-0.42 0.322,-0.42C0.295,-0.42 0.27,-0.415 0.247,-0.406C0.224,-0.396 0.205,-0.383 0.188,-0.366C0.171,-0.349 0.158,-0.33 0.149,-0.307C0.14,-0.284 0.135,-0.26 0.135,-0.234C0.135,-0.208 0.14,-0.184 0.149,-0.161C0.158,-0.138 0.171,-0.119 0.188,-0.102C0.205,-0.085 0.224,-0.072 0.247,-0.063C0.27,-0.053 0.295,-0.048 0.322,-0.048C0.349,-0.048 0.374,-0.053 0.396,-0.063C0.417,-0.072 0.436,-0.085 0.451,-0.102C0.466,-0.119 0.478,-0.138 0.487,-0.161C0.495,-0.184 0.499,-0.208 0.499,-0.234ZM0.072,-0.468L0.138,-0.468L0.138,-0.39L0.14,-0.39C0.151,-0.406 0.163,-0.42 0.178,-0.431C0.193,-0.442 0.208,-0.452 0.224,-0.459C0.24,-0.466 0.257,-0.472 0.274,-0.475C0.291,-0.478 0.307,-0.48 0.322,-0.48C0.359,-0.48 0.392,-0.474 0.423,-0.462C0.453,-0.449 0.479,-0.432 0.501,-0.41C0.523,-0.388 0.54,-0.362 0.553,-0.332C0.565,-0.302 0.571,-0.269 0.571,-0.234C0.571,-0.199 0.565,-0.166 0.553,-0.136C0.54,-0.106 0.523,-0.08 0.501,-0.058C0.479,-0.036 0.453,-0.019 0.423,-0.007C0.392,0.006 0.359,0.012 0.322,0.012C0.307,0.012 0.291,0.01 0.274,0.007C0.257,0.004 0.24,-0.002 0.224,-0.009C0.208,-0.016 0.193,-0.026 0.178,-0.037C0.163,-0.048 0.151,-0.062 0.14,-0.078L0.138,-0.078L0.138,0.288L0.072,0.288L0.072,-0.468Z" style="fill:rgb(62,145,187);fill-rule:nonzero;stroke:rgb(62,145,187);stroke-width:0.02px;stroke-linecap:butt;stroke-miterlimit:2;"/>
            </g>
            <g transform="matrix(49.2317,0,0,49.2317,1772.25,1202.76)">
                <path d="M0.436,-0.27C0.436,-0.315 0.423,-0.351 0.396,-0.379C0.369,-0.406 0.332,-0.42 0.284,-0.42C0.263,-0.42 0.242,-0.416 0.222,-0.408C0.202,-0.399 0.185,-0.388 0.17,-0.374C0.155,-0.36 0.142,-0.344 0.134,-0.326C0.125,-0.308 0.12,-0.289 0.12,-0.27L0.436,-0.27ZM0.118,-0.216C0.12,-0.193 0.126,-0.171 0.135,-0.15C0.144,-0.129 0.157,-0.112 0.172,-0.097C0.187,-0.082 0.205,-0.07 0.225,-0.061C0.245,-0.052 0.267,-0.048 0.29,-0.048C0.325,-0.048 0.356,-0.056 0.382,-0.073C0.407,-0.089 0.427,-0.108 0.44,-0.129L0.491,-0.087C0.463,-0.052 0.432,-0.026 0.399,-0.011C0.365,0.004 0.329,0.012 0.29,0.012C0.255,0.012 0.223,0.006 0.194,-0.007C0.164,-0.019 0.138,-0.036 0.117,-0.058C0.096,-0.08 0.079,-0.106 0.067,-0.136C0.054,-0.166 0.048,-0.199 0.048,-0.234C0.048,-0.269 0.054,-0.302 0.066,-0.332C0.078,-0.362 0.095,-0.388 0.116,-0.41C0.137,-0.432 0.162,-0.449 0.191,-0.462C0.22,-0.474 0.251,-0.48 0.284,-0.48C0.319,-0.48 0.351,-0.474 0.379,-0.461C0.407,-0.448 0.431,-0.432 0.45,-0.411C0.468,-0.39 0.483,-0.365 0.493,-0.337C0.503,-0.308 0.508,-0.278 0.508,-0.246L0.508,-0.216L0.118,-0.216Z" style="fill:rgb(62,145,187);fill-rule:nonzero;stroke:rgb(62,145,187);stroke-width:0.02px;stroke-linecap:butt;stroke-miterlimit:2;"/>
            </g>
        </g>
        <path d="M1756.68,1318.78C1788.73,1338.34 1802.47,1360.7 1802.56,1385.17" style="fill:none;stroke:rgb(187,158,62);stroke-width:4.09px;"/>
        <path d="M1802.56,1385.17L1789.97,1374.06" style="fill:none;stroke:rgb(187,158,62);stroke-width:4.09px;"/>
        <path d="M1802.56,1385.17L1816.26,1374.06" style="fill:none;stroke:rgb(187,158,62);stroke-width:4.09px;"/>
        <g transform="matrix(1,0,0,1,-12.4786,6.69124)">
            <g transform="matrix(49.2317,0,0,49.2317,1820.66,1347.56)">
                <path d="M0.358,-0.061L0.356,-0.061C0.339,-0.035 0.317,-0.016 0.29,-0.005C0.262,0.006 0.233,0.012 0.202,0.012C0.179,0.012 0.158,0.009 0.137,0.003C0.116,-0.004 0.097,-0.013 0.081,-0.026C0.065,-0.039 0.052,-0.054 0.043,-0.073C0.034,-0.092 0.029,-0.113 0.029,-0.138C0.029,-0.166 0.034,-0.19 0.045,-0.209C0.055,-0.228 0.069,-0.244 0.087,-0.257C0.104,-0.27 0.124,-0.28 0.147,-0.287C0.17,-0.294 0.193,-0.299 0.218,-0.302C0.242,-0.305 0.266,-0.307 0.291,-0.308C0.315,-0.309 0.337,-0.309 0.358,-0.309C0.358,-0.336 0.349,-0.357 0.33,-0.373C0.311,-0.388 0.288,-0.396 0.262,-0.396C0.237,-0.396 0.215,-0.391 0.195,-0.381C0.174,-0.37 0.156,-0.356 0.14,-0.338L0.06,-0.42C0.088,-0.446 0.121,-0.466 0.158,-0.479C0.195,-0.492 0.234,-0.498 0.274,-0.498C0.318,-0.498 0.354,-0.493 0.383,-0.482C0.411,-0.47 0.434,-0.454 0.451,-0.433C0.468,-0.412 0.479,-0.386 0.486,-0.355C0.493,-0.323 0.496,-0.288 0.496,-0.247L0.496,-0L0.358,-0L0.358,-0.061ZM0.321,-0.213C0.31,-0.213 0.296,-0.213 0.279,-0.212C0.262,-0.211 0.245,-0.208 0.23,-0.203C0.214,-0.198 0.201,-0.191 0.19,-0.182C0.179,-0.173 0.173,-0.16 0.173,-0.143C0.173,-0.125 0.181,-0.112 0.196,-0.103C0.211,-0.094 0.227,-0.09 0.244,-0.09C0.259,-0.09 0.273,-0.092 0.287,-0.096C0.3,-0.1 0.312,-0.106 0.323,-0.113C0.334,-0.12 0.342,-0.13 0.349,-0.141C0.355,-0.152 0.358,-0.166 0.358,-0.181L0.358,-0.213L0.321,-0.213Z" style="fill:rgb(206,168,42);fill-rule:nonzero;stroke:rgb(200,168,63);stroke-width:0.02px;stroke-linecap:butt;stroke-miterlimit:2;"/>
            </g>
            <g transform="matrix(49.2317,0,0,49.2317,1847.1,1347.56)">
                <path d="M0.328,-0.343C0.306,-0.37 0.277,-0.384 0.241,-0.384C0.228,-0.384 0.216,-0.381 0.204,-0.375C0.192,-0.369 0.186,-0.359 0.186,-0.344C0.186,-0.332 0.192,-0.323 0.205,-0.318C0.217,-0.312 0.233,-0.307 0.252,-0.303C0.271,-0.298 0.291,-0.294 0.313,-0.289C0.334,-0.284 0.355,-0.276 0.374,-0.265C0.393,-0.254 0.408,-0.24 0.421,-0.222C0.433,-0.203 0.439,-0.179 0.439,-0.148C0.439,-0.117 0.432,-0.091 0.419,-0.071C0.405,-0.05 0.387,-0.034 0.366,-0.022C0.345,-0.009 0.321,-0 0.294,0.005C0.267,0.01 0.241,0.012 0.215,0.012C0.181,0.012 0.147,0.007 0.112,-0.003C0.077,-0.012 0.048,-0.029 0.024,-0.054L0.115,-0.155C0.129,-0.138 0.145,-0.125 0.162,-0.116C0.179,-0.107 0.198,-0.102 0.221,-0.102C0.238,-0.102 0.254,-0.105 0.268,-0.11C0.282,-0.115 0.289,-0.124 0.289,-0.137C0.289,-0.15 0.283,-0.159 0.271,-0.166C0.258,-0.172 0.243,-0.177 0.224,-0.182C0.205,-0.186 0.184,-0.191 0.163,-0.196C0.141,-0.201 0.121,-0.208 0.102,-0.218C0.083,-0.228 0.067,-0.242 0.055,-0.261C0.042,-0.279 0.036,-0.303 0.036,-0.334C0.036,-0.363 0.042,-0.387 0.054,-0.408C0.065,-0.429 0.081,-0.446 0.1,-0.459C0.119,-0.472 0.14,-0.482 0.165,-0.489C0.19,-0.495 0.215,-0.498 0.24,-0.498C0.272,-0.498 0.304,-0.493 0.337,-0.484C0.37,-0.475 0.397,-0.458 0.42,-0.434L0.328,-0.343Z" style="fill:rgb(206,168,42);fill-rule:nonzero;stroke:rgb(200,168,63);stroke-width:0.02px;stroke-linecap:butt;stroke-miterlimit:2;"/>
            </g>
            <g transform="matrix(49.2317,0,0,49.2317,1869.89,1347.56)">
                <path d="M0.328,-0.343C0.306,-0.37 0.277,-0.384 0.241,-0.384C0.228,-0.384 0.216,-0.381 0.204,-0.375C0.192,-0.369 0.186,-0.359 0.186,-0.344C0.186,-0.332 0.192,-0.323 0.205,-0.318C0.217,-0.312 0.233,-0.307 0.252,-0.303C0.271,-0.298 0.291,-0.294 0.313,-0.289C0.334,-0.284 0.355,-0.276 0.374,-0.265C0.393,-0.254 0.408,-0.24 0.421,-0.222C0.433,-0.203 0.439,-0.179 0.439,-0.148C0.439,-0.117 0.432,-0.091 0.419,-0.071C0.405,-0.05 0.387,-0.034 0.366,-0.022C0.345,-0.009 0.321,-0 0.294,0.005C0.267,0.01 0.241,0.012 0.215,0.012C0.181,0.012 0.147,0.007 0.112,-0.003C0.077,-0.012 0.048,-0.029 0.024,-0.054L0.115,-0.155C0.129,-0.138 0.145,-0.125 0.162,-0.116C0.179,-0.107 0.198,-0.102 0.221,-0.102C0.238,-0.102 0.254,-0.105 0.268,-0.11C0.282,-0.115 0.289,-0.124 0.289,-0.137C0.289,-0.15 0.283,-0.159 0.271,-0.166C0.258,-0.172 0.243,-0.177 0.224,-0.182C0.205,-0.186 0.184,-0.191 0.163,-0.196C0.141,-0.201 0.121,-0.208 0.102,-0.218C0.083,-0.228 0.067,-0.242 0.055,-0.261C0.042,-0.279 0.036,-0.303 0.036,-0.334C0.036,-0.363 0.042,-0.387 0.054,-0.408C0.065,-0.429 0.081,-0.446 0.1,-0.459C0.119,-0.472 0.14,-0.482 0.165,-0.489C0.19,-0.495 0.215,-0.498 0.24,-0.498C0.272,-0.498 0.304,-0.493 0.337,-0.484C0.37,-0.475 0.397,-0.458 0.42,-0.434L0.328,-0.343Z" style="fill:rgb(206,168,42);fill-rule:nonzero;stroke:rgb(200,168,63);stroke-width:0.02px;stroke-linecap:butt;stroke-miterlimit:2;"/>
            </g>
            <g transform="matrix(49.2317,0,0,49.2317,1892.68,1347.56)">
                <path d="M0.055,-0.486L0.205,-0.486L0.205,-0L0.055,-0L0.055,-0.486ZM0.043,-0.639C0.043,-0.663 0.052,-0.684 0.069,-0.701C0.086,-0.717 0.106,-0.726 0.13,-0.726C0.154,-0.726 0.175,-0.717 0.192,-0.701C0.209,-0.684 0.217,-0.663 0.217,-0.639C0.217,-0.615 0.209,-0.595 0.192,-0.578C0.175,-0.561 0.154,-0.552 0.13,-0.552C0.106,-0.552 0.086,-0.561 0.069,-0.578C0.052,-0.595 0.043,-0.615 0.043,-0.639Z" style="fill:rgb(206,168,42);fill-rule:nonzero;stroke:rgb(200,168,63);stroke-width:0.02px;stroke-linecap:butt;stroke-miterlimit:2;"/>
            </g>
            <g transform="matrix(49.2317,0,0,49.2317,1905.48,1347.56)">
                <path d="M0.563,-0.041C0.563,0.051 0.54,0.121 0.494,0.169C0.447,0.216 0.377,0.24 0.282,0.24C0.239,0.24 0.196,0.235 0.154,0.226C0.112,0.216 0.073,0.197 0.038,0.169L0.121,0.045C0.144,0.064 0.169,0.08 0.195,0.091C0.22,0.102 0.248,0.108 0.279,0.108C0.325,0.108 0.359,0.097 0.381,0.075C0.402,0.052 0.413,0.024 0.413,-0.011L0.413,-0.058L0.411,-0.058C0.394,-0.035 0.372,-0.018 0.347,-0.009C0.321,0.001 0.297,0.006 0.274,0.006C0.238,0.006 0.205,-0 0.176,-0.013C0.147,-0.025 0.122,-0.042 0.101,-0.065C0.08,-0.087 0.063,-0.113 0.052,-0.144C0.041,-0.175 0.035,-0.208 0.035,-0.245C0.035,-0.277 0.04,-0.308 0.051,-0.339C0.061,-0.37 0.076,-0.397 0.095,-0.42C0.114,-0.443 0.137,-0.462 0.164,-0.477C0.191,-0.491 0.222,-0.498 0.257,-0.498C0.278,-0.498 0.298,-0.496 0.316,-0.491C0.333,-0.486 0.349,-0.48 0.363,-0.473C0.377,-0.466 0.389,-0.458 0.399,-0.449C0.409,-0.44 0.417,-0.431 0.423,-0.422L0.425,-0.422L0.425,-0.486L0.563,-0.486L0.563,-0.041ZM0.185,-0.246C0.185,-0.23 0.188,-0.215 0.194,-0.201C0.2,-0.186 0.209,-0.173 0.22,-0.163C0.231,-0.152 0.243,-0.143 0.258,-0.136C0.272,-0.129 0.288,-0.126 0.305,-0.126C0.322,-0.126 0.337,-0.129 0.352,-0.136C0.367,-0.143 0.38,-0.152 0.391,-0.163C0.402,-0.173 0.41,-0.186 0.416,-0.201C0.422,-0.215 0.425,-0.23 0.425,-0.246C0.425,-0.262 0.422,-0.277 0.416,-0.292C0.41,-0.306 0.402,-0.319 0.391,-0.33C0.38,-0.341 0.367,-0.349 0.352,-0.356C0.337,-0.363 0.322,-0.366 0.305,-0.366C0.288,-0.366 0.272,-0.363 0.258,-0.356C0.243,-0.349 0.231,-0.341 0.22,-0.33C0.209,-0.319 0.2,-0.306 0.194,-0.292C0.188,-0.277 0.185,-0.262 0.185,-0.246Z" style="fill:rgb(206,168,42);fill-rule:nonzero;stroke:rgb(200,168,63);stroke-width:0.02px;stroke-linecap:butt;stroke-miterlimit:2;"/>
            </g>
            <g transform="matrix(49.2317,0,0,49.2317,1936.5,1347.56)">
                <path d="M0.053,-0.486L0.197,-0.486L0.197,-0.42L0.199,-0.42C0.204,-0.429 0.21,-0.439 0.219,-0.448C0.228,-0.457 0.238,-0.466 0.25,-0.473C0.262,-0.48 0.276,-0.486 0.291,-0.491C0.306,-0.496 0.323,-0.498 0.341,-0.498C0.379,-0.498 0.41,-0.492 0.433,-0.481C0.456,-0.469 0.474,-0.453 0.488,-0.432C0.501,-0.411 0.509,-0.387 0.514,-0.359C0.519,-0.331 0.521,-0.301 0.521,-0.268L0.521,-0L0.371,-0L0.371,-0.238C0.371,-0.252 0.371,-0.267 0.37,-0.282C0.369,-0.297 0.366,-0.31 0.361,-0.323C0.356,-0.336 0.348,-0.346 0.338,-0.354C0.327,-0.362 0.312,-0.366 0.293,-0.366C0.274,-0.366 0.258,-0.363 0.246,-0.356C0.234,-0.349 0.225,-0.339 0.219,-0.328C0.212,-0.316 0.208,-0.303 0.206,-0.288C0.204,-0.273 0.203,-0.258 0.203,-0.242L0.203,-0L0.053,-0L0.053,-0.486Z" style="fill:rgb(206,168,42);fill-rule:nonzero;stroke:rgb(200,168,63);stroke-width:0.02px;stroke-linecap:butt;stroke-miterlimit:2;"/>
            </g>
            <g transform="matrix(49.2317,0,0,49.2317,1964.76,1347.56)">
                <path d="M0.053,-0.486L0.197,-0.486L0.197,-0.42L0.199,-0.42C0.204,-0.429 0.21,-0.439 0.219,-0.448C0.228,-0.457 0.238,-0.466 0.25,-0.473C0.262,-0.48 0.276,-0.486 0.291,-0.491C0.306,-0.496 0.323,-0.498 0.341,-0.498C0.375,-0.498 0.405,-0.491 0.432,-0.477C0.458,-0.463 0.478,-0.441 0.491,-0.411C0.508,-0.442 0.529,-0.465 0.554,-0.478C0.579,-0.491 0.609,-0.498 0.645,-0.498C0.678,-0.498 0.705,-0.493 0.728,-0.482C0.75,-0.47 0.768,-0.456 0.781,-0.437C0.794,-0.418 0.803,-0.395 0.809,-0.37C0.814,-0.344 0.817,-0.316 0.817,-0.287L0.817,-0L0.667,-0L0.667,-0.283C0.667,-0.306 0.662,-0.325 0.653,-0.342C0.643,-0.358 0.626,-0.366 0.601,-0.366C0.584,-0.366 0.569,-0.363 0.558,-0.358C0.546,-0.352 0.537,-0.344 0.53,-0.334C0.523,-0.324 0.518,-0.312 0.515,-0.299C0.511,-0.286 0.51,-0.272 0.51,-0.257L0.51,-0L0.36,-0L0.36,-0.257C0.36,-0.266 0.36,-0.276 0.359,-0.289C0.358,-0.302 0.356,-0.314 0.352,-0.325C0.348,-0.336 0.342,-0.346 0.333,-0.354C0.324,-0.362 0.31,-0.366 0.293,-0.366C0.274,-0.366 0.258,-0.363 0.246,-0.356C0.234,-0.349 0.225,-0.339 0.219,-0.328C0.212,-0.316 0.208,-0.303 0.206,-0.288C0.204,-0.273 0.203,-0.258 0.203,-0.242L0.203,-0L0.053,-0L0.053,-0.486Z" style="fill:rgb(206,168,42);fill-rule:nonzero;stroke:rgb(200,168,63);stroke-width:0.02px;stroke-linecap:butt;stroke-miterlimit:2;"/>
            </g>
            <g transform="matrix(49.2317,0,0,49.2317,2007.59,1347.56)">
                <path d="M0.513,-0.084C0.489,-0.053 0.459,-0.03 0.422,-0.013C0.385,0.004 0.347,0.012 0.308,0.012C0.271,0.012 0.236,0.006 0.203,-0.006C0.169,-0.018 0.141,-0.035 0.117,-0.058C0.092,-0.08 0.073,-0.107 0.059,-0.138C0.045,-0.169 0.038,-0.204 0.038,-0.243C0.038,-0.282 0.045,-0.317 0.059,-0.348C0.073,-0.379 0.092,-0.406 0.117,-0.429C0.141,-0.451 0.169,-0.468 0.203,-0.48C0.236,-0.492 0.271,-0.498 0.308,-0.498C0.343,-0.498 0.374,-0.492 0.403,-0.48C0.431,-0.468 0.455,-0.451 0.475,-0.429C0.494,-0.406 0.509,-0.379 0.52,-0.348C0.531,-0.317 0.536,-0.282 0.536,-0.243L0.536,-0.196L0.188,-0.196C0.194,-0.167 0.207,-0.145 0.227,-0.128C0.247,-0.111 0.272,-0.102 0.301,-0.102C0.326,-0.102 0.347,-0.108 0.364,-0.119C0.381,-0.13 0.395,-0.144 0.408,-0.161L0.513,-0.084ZM0.386,-0.298C0.387,-0.323 0.378,-0.345 0.361,-0.363C0.344,-0.381 0.321,-0.39 0.294,-0.39C0.277,-0.39 0.263,-0.387 0.25,-0.382C0.237,-0.377 0.227,-0.37 0.218,-0.362C0.209,-0.353 0.202,-0.343 0.197,-0.333C0.192,-0.322 0.189,-0.31 0.188,-0.298L0.386,-0.298Z" style="fill:rgb(206,168,42);fill-rule:nonzero;stroke:rgb(200,168,63);stroke-width:0.02px;stroke-linecap:butt;stroke-miterlimit:2;"/>
            </g>
            <g transform="matrix(49.2317,0,0,49.2317,2035.85,1347.56)">
                <path d="M0.053,-0.486L0.197,-0.486L0.197,-0.42L0.199,-0.42C0.204,-0.429 0.21,-0.439 0.219,-0.448C0.228,-0.457 0.238,-0.466 0.25,-0.473C0.262,-0.48 0.276,-0.486 0.291,-0.491C0.306,-0.496 0.323,-0.498 0.341,-0.498C0.379,-0.498 0.41,-0.492 0.433,-0.481C0.456,-0.469 0.474,-0.453 0.488,-0.432C0.501,-0.411 0.509,-0.387 0.514,-0.359C0.519,-0.331 0.521,-0.301 0.521,-0.268L0.521,-0L0.371,-0L0.371,-0.238C0.371,-0.252 0.371,-0.267 0.37,-0.282C0.369,-0.297 0.366,-0.31 0.361,-0.323C0.356,-0.336 0.348,-0.346 0.338,-0.354C0.327,-0.362 0.312,-0.366 0.293,-0.366C0.274,-0.366 0.258,-0.363 0.246,-0.356C0.234,-0.349 0.225,-0.339 0.219,-0.328C0.212,-0.316 0.208,-0.303 0.206,-0.288C0.204,-0.273 0.203,-0.258 0.203,-0.242L0.203,-0L0.053,-0L0.053,-0.486Z" style="fill:rgb(206,168,42);fill-rule:nonzero;stroke:rgb(200,168,63);stroke-width:0.02px;stroke-linecap:butt;stroke-miterlimit:2;"/>
            </g>
            <g transform="matrix(49.2317,0,0,49.2317,2064.11,1347.56)">
                <path d="M0.384,-0.366L0.252,-0.366L0.252,-0.204C0.252,-0.191 0.253,-0.179 0.254,-0.168C0.255,-0.157 0.258,-0.147 0.263,-0.139C0.268,-0.131 0.275,-0.125 0.285,-0.121C0.294,-0.116 0.307,-0.114 0.323,-0.114C0.331,-0.114 0.341,-0.115 0.355,-0.117C0.368,-0.118 0.377,-0.122 0.384,-0.128L0.384,-0.003C0.367,0.003 0.35,0.007 0.332,0.009C0.314,0.011 0.296,0.012 0.279,0.012C0.254,0.012 0.23,0.009 0.209,0.004C0.188,-0.001 0.169,-0.01 0.153,-0.022C0.137,-0.033 0.125,-0.048 0.116,-0.067C0.107,-0.086 0.102,-0.108 0.102,-0.135L0.102,-0.366L0.006,-0.366L0.006,-0.486L0.102,-0.486L0.102,-0.63L0.252,-0.63L0.252,-0.486L0.384,-0.486L0.384,-0.366Z" style="fill:rgb(206,168,42);fill-rule:nonzero;stroke:rgb(200,168,63);stroke-width:0.02px;stroke-linecap:butt;stroke-miterlimit:2;"/>
            </g>
        </g>
        <g transform="matrix(78.9593,0,0,78.9593,1464.21,1674.7)">
            <path d="M0.499,-0.234C0.499,-0.26 0.495,-0.284 0.487,-0.307C0.478,-0.33 0.466,-0.349 0.451,-0.366C0.436,-0.383 0.417,-0.396 0.396,-0.406C0.374,-0.415 0.349,-0.42 0.322,-0.42C0.295,-0.42 0.27,-0.415 0.247,-0.406C0.224,-0.396 0.205,-0.383 0.188,-0.366C0.171,-0.349 0.158,-0.33 0.149,-0.307C0.14,-0.284 0.135,-0.26 0.135,-0.234C0.135,-0.208 0.14,-0.184 0.149,-0.161C0.158,-0.138 0.171,-0.119 0.188,-0.102C0.205,-0.085 0.224,-0.072 0.247,-0.063C0.27,-0.053 0.295,-0.048 0.322,-0.048C0.349,-0.048 0.374,-0.053 0.396,-0.063C0.417,-0.072 0.436,-0.085 0.451,-0.102C0.466,-0.119 0.478,-0.138 0.487,-0.161C0.495,-0.184 0.499,-0.208 0.499,-0.234ZM0.072,-0.468L0.138,-0.468L0.138,-0.39L0.14,-0.39C0.151,-0.406 0.163,-0.42 0.178,-0.431C0.193,-0.442 0.208,-0.452 0.224,-0.459C0.24,-0.466 0.257,-0.472 0.274,-0.475C0.291,-0.478 0.307,-0.48 0.322,-0.48C0.359,-0.48 0.392,-0.474 0.423,-0.462C0.453,-0.449 0.479,-0.432 0.501,-0.41C0.523,-0.388 0.54,-0.362 0.553,-0.332C0.565,-0.302 0.571,-0.269 0.571,-0.234C0.571,-0.199 0.565,-0.166 0.553,-0.136C0.54,-0.106 0.523,-0.08 0.501,-0.058C0.479,-0.036 0.453,-0.019 0.423,-0.007C0.392,0.006 0.359,0.012 0.322,0.012C0.307,0.012 0.291,0.01 0.274,0.007C0.257,0.004 0.24,-0.002 0.224,-0.009C0.208,-0.016 0.193,-0.026 0.178,-0.037C0.163,-0.048 0.151,-0.062 0.14,-0.078L0.138,-0.078L0.138,0.288L0.072,0.288L0.072,-0.468Z" style="fill:rgb(0,32,255);fill-rule:nonzero;stroke:rgb(0,32,255);stroke-width:0.01px;stroke-linecap:butt;stroke-miterlimit:2;"/>
        </g>
        <g transform="matrix(78.9593,0,0,78.9593,1512.45,1674.7)">
            <path d="M0.338,-0.233C0.321,-0.233 0.301,-0.232 0.276,-0.231C0.251,-0.229 0.227,-0.225 0.204,-0.219C0.181,-0.212 0.161,-0.202 0.145,-0.189C0.128,-0.176 0.12,-0.157 0.12,-0.134C0.12,-0.119 0.123,-0.106 0.13,-0.095C0.136,-0.084 0.144,-0.075 0.155,-0.068C0.166,-0.061 0.178,-0.056 0.191,-0.053C0.204,-0.049 0.217,-0.048 0.23,-0.048C0.254,-0.048 0.275,-0.052 0.293,-0.06C0.31,-0.068 0.325,-0.079 0.337,-0.093C0.349,-0.106 0.358,-0.122 0.364,-0.141C0.369,-0.159 0.372,-0.178 0.372,-0.199L0.372,-0.233L0.338,-0.233ZM0.372,-0.287L0.372,-0.299C0.372,-0.38 0.332,-0.42 0.252,-0.42C0.197,-0.42 0.15,-0.402 0.109,-0.365L0.069,-0.412C0.113,-0.457 0.179,-0.48 0.267,-0.48C0.29,-0.48 0.312,-0.477 0.333,-0.47C0.354,-0.463 0.372,-0.453 0.387,-0.44C0.402,-0.426 0.415,-0.409 0.424,-0.388C0.433,-0.367 0.438,-0.343 0.438,-0.314L0.438,-0.105C0.438,-0.087 0.439,-0.068 0.441,-0.049C0.442,-0.029 0.444,-0.013 0.446,-0L0.382,-0C0.38,-0.011 0.379,-0.024 0.378,-0.037C0.377,-0.05 0.376,-0.063 0.376,-0.076L0.374,-0.076C0.355,-0.045 0.332,-0.022 0.306,-0.009C0.279,0.005 0.247,0.012 0.209,0.012C0.188,0.012 0.168,0.009 0.149,0.004C0.13,-0.002 0.113,-0.011 0.098,-0.023C0.083,-0.034 0.07,-0.049 0.062,-0.066C0.053,-0.083 0.048,-0.102 0.048,-0.125C0.048,-0.163 0.058,-0.193 0.078,-0.215C0.097,-0.236 0.122,-0.252 0.152,-0.263C0.181,-0.274 0.213,-0.28 0.247,-0.283C0.28,-0.286 0.311,-0.287 0.339,-0.287L0.372,-0.287Z" style="fill:rgb(0,32,255);fill-rule:nonzero;stroke:rgb(0,32,255);stroke-width:0.01px;stroke-linecap:butt;stroke-miterlimit:2;"/>
        </g>
        <g transform="matrix(78.9593,0,0,78.9593,1553.43,1674.7)">
            <path d="M0.079,-0.322C0.079,-0.343 0.079,-0.364 0.078,-0.385C0.077,-0.406 0.076,-0.434 0.075,-0.468L0.14,-0.468L0.14,-0.381L0.142,-0.381C0.147,-0.394 0.153,-0.406 0.162,-0.418C0.171,-0.429 0.181,-0.44 0.194,-0.449C0.206,-0.458 0.22,-0.466 0.237,-0.472C0.253,-0.477 0.271,-0.48 0.292,-0.48C0.311,-0.48 0.327,-0.478 0.341,-0.474L0.328,-0.409C0.319,-0.412 0.307,-0.414 0.29,-0.414C0.265,-0.414 0.243,-0.409 0.225,-0.4C0.207,-0.39 0.192,-0.378 0.18,-0.363C0.168,-0.347 0.159,-0.331 0.154,-0.314C0.148,-0.297 0.145,-0.28 0.145,-0.264L0.145,-0L0.079,-0L0.079,-0.322Z" style="fill:rgb(0,32,255);fill-rule:nonzero;stroke:rgb(0,32,255);stroke-width:0.01px;stroke-linecap:butt;stroke-miterlimit:2;"/>
        </g>
        <g transform="matrix(78.9593,0,0,78.9593,1579.64,1674.7)">
            <path d="M0.314,-0.408L0.179,-0.408L0.179,-0.132C0.179,-0.115 0.181,-0.1 0.184,-0.09C0.187,-0.079 0.192,-0.07 0.198,-0.064C0.204,-0.058 0.211,-0.054 0.22,-0.052C0.228,-0.049 0.237,-0.048 0.247,-0.048C0.258,-0.048 0.27,-0.05 0.282,-0.053C0.294,-0.056 0.305,-0.061 0.315,-0.066L0.318,-0.005C0.293,0.006 0.264,0.012 0.229,0.012C0.216,0.012 0.203,0.01 0.19,0.007C0.176,0.004 0.163,-0.003 0.152,-0.012C0.141,-0.021 0.131,-0.034 0.124,-0.05C0.117,-0.066 0.113,-0.087 0.113,-0.113L0.113,-0.408L0.014,-0.408L0.014,-0.468L0.113,-0.468L0.113,-0.6L0.179,-0.6L0.179,-0.468L0.314,-0.468L0.314,-0.408Z" style="fill:rgb(0,32,255);fill-rule:nonzero;stroke:rgb(0,32,255);stroke-width:0.01px;stroke-linecap:butt;stroke-miterlimit:2;"/>
        </g>
        <g transform="matrix(78.9593,0,0,78.9593,1605.86,1674.7)">
            <path d="M0.168,-0.648C0.168,-0.634 0.163,-0.623 0.153,-0.614C0.143,-0.604 0.132,-0.6 0.12,-0.6C0.108,-0.6 0.097,-0.604 0.087,-0.614C0.077,-0.623 0.072,-0.634 0.072,-0.648C0.072,-0.662 0.077,-0.674 0.087,-0.683C0.097,-0.692 0.108,-0.696 0.12,-0.696C0.132,-0.696 0.143,-0.692 0.153,-0.683C0.163,-0.674 0.168,-0.662 0.168,-0.648ZM0.153,-0L0.087,-0L0.087,-0.468L0.153,-0.468L0.153,-0Z" style="fill:rgb(0,32,255);fill-rule:nonzero;stroke:rgb(0,32,255);stroke-width:0.01px;stroke-linecap:butt;stroke-miterlimit:2;"/>
        </g>
        <g transform="matrix(78.9593,0,0,78.9593,1624.81,1674.7)">
            <path d="M0.413,-0.358C0.402,-0.375 0.386,-0.39 0.366,-0.402C0.345,-0.414 0.322,-0.42 0.296,-0.42C0.269,-0.421 0.244,-0.416 0.223,-0.407C0.201,-0.398 0.182,-0.385 0.167,-0.368C0.152,-0.351 0.14,-0.332 0.132,-0.309C0.124,-0.286 0.12,-0.261 0.12,-0.234C0.12,-0.207 0.124,-0.183 0.132,-0.16C0.14,-0.136 0.152,-0.117 0.167,-0.1C0.182,-0.083 0.201,-0.07 0.223,-0.061C0.244,-0.052 0.269,-0.047 0.296,-0.048C0.322,-0.048 0.345,-0.054 0.366,-0.066C0.386,-0.078 0.402,-0.093 0.413,-0.11L0.467,-0.069C0.444,-0.042 0.417,-0.022 0.388,-0.009C0.359,0.005 0.328,0.011 0.296,0.012C0.258,0.013 0.224,0.007 0.193,-0.006C0.162,-0.018 0.136,-0.035 0.115,-0.057C0.093,-0.079 0.076,-0.105 0.065,-0.136C0.054,-0.166 0.048,-0.199 0.048,-0.234C0.048,-0.269 0.054,-0.302 0.065,-0.333C0.076,-0.363 0.093,-0.389 0.115,-0.411C0.136,-0.433 0.162,-0.45 0.193,-0.463C0.224,-0.475 0.258,-0.481 0.296,-0.48C0.328,-0.479 0.359,-0.472 0.388,-0.46C0.417,-0.447 0.444,-0.426 0.467,-0.399L0.413,-0.358Z" style="fill:rgb(0,32,255);fill-rule:nonzero;stroke:rgb(0,32,255);stroke-width:0.01px;stroke-linecap:butt;stroke-miterlimit:2;"/>
        </g>
        <g transform="matrix(78.9593,0,0,78.9593,1662.87,1674.7)">
            <rect x="0.087" y="-0.756" width="0.066" height="0.756" style="fill:rgb(0,32,255);fill-rule:nonzero;stroke:rgb(0,32,255);stroke-width:0.01px;stroke-linecap:butt;stroke-miterlimit:2;"/>
        </g>
        <g transform="matrix(78.9593,0,0,78.9593,1681.82,1674.7)">
            <path d="M0.436,-0.27C0.436,-0.315 0.423,-0.351 0.396,-0.379C0.369,-0.406 0.332,-0.42 0.284,-0.42C0.263,-0.42 0.242,-0.416 0.222,-0.408C0.202,-0.399 0.185,-0.388 0.17,-0.374C0.155,-0.36 0.142,-0.344 0.134,-0.326C0.125,-0.308 0.12,-0.289 0.12,-0.27L0.436,-0.27ZM0.118,-0.216C0.12,-0.193 0.126,-0.171 0.135,-0.15C0.144,-0.129 0.157,-0.112 0.172,-0.097C0.187,-0.082 0.205,-0.07 0.225,-0.061C0.245,-0.052 0.267,-0.048 0.29,-0.048C0.325,-0.048 0.356,-0.056 0.382,-0.073C0.407,-0.089 0.427,-0.108 0.44,-0.129L0.491,-0.087C0.463,-0.052 0.432,-0.026 0.399,-0.011C0.365,0.004 0.329,0.012 0.29,0.012C0.255,0.012 0.223,0.006 0.194,-0.007C0.164,-0.019 0.138,-0.036 0.117,-0.058C0.096,-0.08 0.079,-0.106 0.067,-0.136C0.054,-0.166 0.048,-0.199 0.048,-0.234C0.048,-0.269 0.054,-0.302 0.066,-0.332C0.078,-0.362 0.095,-0.388 0.116,-0.41C0.137,-0.432 0.162,-0.449 0.191,-0.462C0.22,-0.474 0.251,-0.48 0.284,-0.48C0.319,-0.48 0.351,-0.474 0.379,-0.461C0.407,-0.448 0.431,-0.432 0.45,-0.411C0.468,-0.39 0.483,-0.365 0.493,-0.337C0.503,-0.308 0.508,-0.278 0.508,-0.246L0.508,-0.216L0.118,-0.216Z" style="fill:rgb(0,32,255);fill-rule:nonzero;stroke:rgb(0,32,255);stroke-width:0.01px;stroke-linecap:butt;stroke-miterlimit:2;"/>
        </g>
        <g transform="matrix(78.9593,0,0,78.9593,1747.67,1674.7)">
            <path d="M0.168,-0.648C0.168,-0.634 0.163,-0.623 0.153,-0.614C0.143,-0.604 0.132,-0.6 0.12,-0.6C0.108,-0.6 0.097,-0.604 0.087,-0.614C0.077,-0.623 0.072,-0.634 0.072,-0.648C0.072,-0.662 0.077,-0.674 0.087,-0.683C0.097,-0.692 0.108,-0.696 0.12,-0.696C0.132,-0.696 0.143,-0.692 0.153,-0.683C0.163,-0.674 0.168,-0.662 0.168,-0.648ZM0.153,-0L0.087,-0L0.087,-0.468L0.153,-0.468L0.153,-0Z" style="fill:rgb(0,32,255);fill-rule:nonzero;stroke:rgb(0,32,255);stroke-width:0.01px;stroke-linecap:butt;stroke-miterlimit:2;"/>
        </g>
        <path d="M1706.22,1592.32L1729.2,1467.89" style="fill:none;stroke:rgb(0,32,255);stroke-width:9.28px;"/>
        <path d="M1729.2,1467.89L1712.66,1477.51" style="fill:none;stroke:rgb(0,32,255);stroke-width:9.28px;"/>
        <path d="M1729.2,1467.89L1741.84,1481.42" style="fill:none;stroke:rgb(0,32,255);stroke-width:9.28px;"/>
    </g>
</svg>
