<?xml version="1.0" encoding="UTF-8" standalone="no"?>
<!DOCTYPE svg PUBLIC "-//W3C//DTD SVG 1.1//EN" "http://www.w3.org/Graphics/SVG/1.1/DTD/svg11.dtd">
<svg width="100%" height="100%" viewBox="0 0 2091 1523" version="1.1" xmlns="http://www.w3.org/2000/svg" xmlns:xlink="http://www.w3.org/1999/xlink" xml:space="preserve" xmlns:serif="http://www.serif.com/" style="fill-rule:evenodd;clip-rule:evenodd;stroke-linecap:round;stroke-linejoin:round;stroke-miterlimit:1.5;">
    <circle cx="472.509" cy="256.63" r="44.868" style="fill:rgb(76,166,101);fill-opacity:0;stroke:black;stroke-width:10.92px;"/>
    <path d="M455.404,283.641l-0,-2.991l17.886,-24.356l-17.125,-23.975l-0,-3.045l28.651,0l-0,3.371l-24.03,-0l16.799,23.649l-17.832,24.03l25.715,0l0,3.317l-30.064,-0Z" style="fill-rule:nonzero;stroke:black;stroke-width:10.92px;stroke-linecap:butt;stroke-miterlimit:2;"/>
    <path d="M473.817,301.733l-0,60.486" style="fill:none;stroke:black;stroke-width:10.92px;"/>
    <circle cx="473.652" cy="365.497" r="5.474" style="stroke:black;stroke-width:10.92px;"/>
    <circle cx="838.808" cy="255.15" r="5.474" style="stroke:black;stroke-width:10.92px;"/>
    <path d="M521.02,255.274l67.516,0" style="fill:none;stroke:black;stroke-width:10.92px;"/>
    <rect x="594.93" y="200.023" width="131.174" height="111.845" style="fill:white;stroke:black;stroke-width:10.92px;"/>
    <path d="M599.27,283.811c28.186,-5.567 34.839,-16.45 64.074,-35.629c17.088,-11.21 39.271,-17.652 59.394,-22.097" style="fill:none;stroke:black;stroke-width:10.92px;"/>
    <path d="M730.649,255.476l106.774,0" style="fill:none;stroke:black;stroke-width:10.92px;"/>
    <circle cx="472.509" cy="449.885" r="44.868" style="fill:rgb(76,166,101);fill-opacity:0;stroke:black;stroke-width:10.92px;"/>
    <path d="M455.404,476.896l-0,-2.99l17.886,-24.356l-17.125,-23.976l-0,-3.045l28.651,0l-0,3.371l-24.03,0l16.799,23.65l-17.832,24.03l25.715,-0l0,3.316l-30.064,-0Z" style="fill-rule:nonzero;stroke:black;stroke-width:10.92px;stroke-linecap:butt;stroke-miterlimit:2;"/>
    <path d="M473.817,494.988l-0,60.486" style="fill:none;stroke:black;stroke-width:10.92px;"/>
    <circle cx="473.652" cy="558.752" r="5.474" style="stroke:black;stroke-width:10.92px;"/>
    <circle cx="838.808" cy="448.405" r="5.474" style="stroke:black;stroke-width:10.92px;"/>
    <path d="M521.02,448.53l67.516,-0" style="fill:none;stroke:black;stroke-width:10.92px;"/>
    <rect x="594.93" y="393.278" width="131.174" height="111.845" style="fill:white;stroke:black;stroke-width:10.92px;"/>
    <path d="M599.27,477.066c28.186,-5.567 34.839,-16.45 64.074,-35.629c17.088,-11.21 39.271,-17.652 59.394,-22.097" style="fill:none;stroke:black;stroke-width:10.92px;"/>
    <path d="M730.649,448.732l106.774,-0" style="fill:none;stroke:black;stroke-width:10.92px;"/>
    <circle cx="472.509" cy="645.936" r="44.868" style="fill:rgb(76,166,101);fill-opacity:0;stroke:black;stroke-width:10.92px;"/>
    <path d="M455.404,672.947l-0,-2.99l17.886,-24.357l-17.125,-23.975l-0,-3.045l28.651,0l-0,3.371l-24.03,-0l16.799,23.649l-17.832,24.03l25.715,0l0,3.317l-30.064,-0Z" style="fill-rule:nonzero;stroke:black;stroke-width:10.92px;stroke-linecap:butt;stroke-miterlimit:2;"/>
    <path d="M473.817,691.039l-0,60.486" style="fill:none;stroke:black;stroke-width:10.92px;"/>
    <circle cx="473.652" cy="754.803" r="5.474" style="stroke:black;stroke-width:10.92px;"/>
    <circle cx="838.808" cy="644.456" r="5.474" style="stroke:black;stroke-width:10.92px;"/>
    <path d="M521.02,644.58l67.516,0" style="fill:none;stroke:black;stroke-width:10.92px;"/>
    <rect x="594.93" y="589.329" width="131.174" height="111.845" style="fill:white;stroke:black;stroke-width:10.92px;"/>
    <path d="M599.27,673.117c28.186,-5.567 34.839,-16.45 64.074,-35.629c17.088,-11.21 39.271,-17.652 59.394,-22.097" style="fill:none;stroke:black;stroke-width:10.92px;"/>
    <path d="M730.649,644.783l106.774,-0" style="fill:none;stroke:black;stroke-width:10.92px;"/>
    <circle cx="472.509" cy="62.068" r="44.868" style="fill:rgb(76,166,101);fill-opacity:0;stroke:black;stroke-width:10.92px;"/>
    <path d="M455.404,89.079l-0,-2.991l17.886,-24.356l-17.125,-23.975l-0,-3.045l28.651,0l-0,3.371l-24.03,-0l16.799,23.649l-17.832,24.03l25.715,0l0,3.317l-30.064,-0Z" style="fill-rule:nonzero;stroke:black;stroke-width:10.92px;stroke-linecap:butt;stroke-miterlimit:2;"/>
    <path d="M473.817,107.171l-0,60.486" style="fill:none;stroke:black;stroke-width:10.92px;"/>
    <circle cx="473.652" cy="170.935" r="5.474" style="stroke:black;stroke-width:10.92px;"/>
    <circle cx="838.808" cy="60.588" r="5.474" style="stroke:black;stroke-width:10.92px;"/>
    <path d="M521.02,60.712l67.516,0" style="fill:none;stroke:black;stroke-width:10.92px;"/>
    <rect x="594.93" y="5.461" width="131.174" height="111.845" style="fill:white;stroke:black;stroke-width:10.92px;"/>
    <path d="M599.27,89.249c28.186,-5.567 34.839,-16.45 64.074,-35.629c17.088,-11.21 39.271,-17.652 59.394,-22.097" style="fill:none;stroke:black;stroke-width:10.92px;"/>
    <path d="M730.649,60.915l106.774,-0" style="fill:none;stroke:black;stroke-width:10.92px;"/>
    <circle cx="1102.17" cy="140.756" r="44.868" style="fill:rgb(76,166,101);fill-opacity:0;stroke:black;stroke-width:10.92px;"/>
    <path d="M1085.06,167.767l-0,-2.99l17.886,-24.356l-17.125,-23.976l-0,-3.044l28.651,-0l0,3.37l-24.03,0l16.799,23.65l-17.832,24.03l25.715,-0l0,3.316l-30.064,0Z" style="fill-rule:nonzero;stroke:black;stroke-width:10.92px;stroke-linecap:butt;stroke-miterlimit:2;"/>
    <path d="M1103.48,185.859l0,60.486" style="fill:none;stroke:black;stroke-width:10.92px;"/>
    <circle cx="1103.31" cy="249.624" r="5.474" style="stroke:black;stroke-width:10.92px;"/>
    <circle cx="1468.47" cy="139.277" r="5.474" style="stroke:black;stroke-width:10.92px;"/>
    <path d="M1150.68,139.401l67.516,-0" style="fill:none;stroke:black;stroke-width:10.92px;"/>
    <rect x="1224.59" y="84.149" width="131.174" height="111.845" style="fill:white;stroke:black;stroke-width:10.92px;"/>
    <path d="M1228.93,167.937c28.187,-5.567 34.839,-16.45 64.074,-35.629c17.088,-11.21 39.271,-17.651 59.394,-22.096" style="fill:none;stroke:black;stroke-width:10.92px;"/>
    <path d="M1360.31,139.603l106.774,0" style="fill:none;stroke:black;stroke-width:10.92px;"/>
    <circle cx="1102.17" cy="339.222" r="44.868" style="fill:rgb(76,166,101);fill-opacity:0;stroke:black;stroke-width:10.92px;"/>
    <path d="M1085.06,366.233l-0,-2.99l17.886,-24.356l-17.125,-23.976l-0,-3.045l28.651,0l0,3.371l-24.03,0l16.799,23.65l-17.832,24.03l25.715,-0l0,3.316l-30.064,-0Z" style="fill-rule:nonzero;stroke:black;stroke-width:10.92px;stroke-linecap:butt;stroke-miterlimit:2;"/>
    <path d="M1103.48,384.325l0,60.486" style="fill:none;stroke:black;stroke-width:10.92px;"/>
    <circle cx="1103.31" cy="448.089" r="5.474" style="stroke:black;stroke-width:10.92px;"/>
    <circle cx="1468.47" cy="337.742" r="5.474" style="stroke:black;stroke-width:10.92px;"/>
    <path d="M1150.68,337.867l67.516,-0" style="fill:none;stroke:black;stroke-width:10.92px;"/>
    <rect x="1224.59" y="282.615" width="131.174" height="111.845" style="fill:white;stroke:black;stroke-width:10.92px;"/>
    <path d="M1228.93,366.403c28.187,-5.567 34.839,-16.45 64.074,-35.629c17.088,-11.21 39.271,-17.652 59.394,-22.097" style="fill:none;stroke:black;stroke-width:10.92px;"/>
    <path d="M1360.31,338.069l106.774,-0" style="fill:none;stroke:black;stroke-width:10.92px;"/>
    <circle cx="1102.17" cy="548.458" r="44.868" style="fill:rgb(76,166,101);fill-opacity:0;stroke:black;stroke-width:10.92px;"/>
    <path d="M1085.06,575.469l-0,-2.99l17.886,-24.356l-17.125,-23.976l-0,-3.044l28.651,-0l0,3.371l-24.03,-0l16.799,23.649l-17.832,24.03l25.715,0l0,3.316l-30.064,0Z" style="fill-rule:nonzero;stroke:black;stroke-width:10.92px;stroke-linecap:butt;stroke-miterlimit:2;"/>
    <path d="M1103.48,593.562l0,60.486" style="fill:none;stroke:black;stroke-width:10.92px;"/>
    <circle cx="1103.31" cy="657.326" r="5.474" style="stroke:black;stroke-width:10.92px;"/>
    <circle cx="1468.47" cy="546.979" r="5.474" style="stroke:black;stroke-width:10.92px;"/>
    <path d="M1150.68,547.103l67.516,0" style="fill:none;stroke:black;stroke-width:10.92px;"/>
    <rect x="1224.59" y="491.851" width="131.174" height="111.845" style="fill:white;stroke:black;stroke-width:10.92px;"/>
    <path d="M1228.93,575.639c28.187,-5.567 34.839,-16.449 64.074,-35.628c17.088,-11.21 39.271,-17.652 59.394,-22.097" style="fill:none;stroke:black;stroke-width:10.92px;"/>
    <path d="M1360.31,547.305l106.774,0" style="fill:none;stroke:black;stroke-width:10.92px;"/>
    <circle cx="1713.76" cy="339.459" r="44.868" style="fill:rgb(76,166,101);fill-opacity:0;stroke:black;stroke-width:10.92px;"/>
    <path d="M1696.65,366.47l0,-2.99l17.887,-24.356l-17.126,-23.976l0,-3.045l28.651,0l0,3.371l-24.03,0l16.8,23.65l-17.833,24.03l25.716,-0l-0,3.316l-30.065,-0Z" style="fill-rule:nonzero;stroke:black;stroke-width:10.92px;stroke-linecap:butt;stroke-miterlimit:2;"/>
    <path d="M1715.07,384.562l0,60.486" style="fill:none;stroke:black;stroke-width:10.92px;"/>
    <circle cx="1714.9" cy="448.326" r="5.474" style="stroke:black;stroke-width:10.92px;"/>
    <circle cx="2080.06" cy="337.979" r="5.474" style="stroke:black;stroke-width:10.92px;"/>
    <path d="M1762.27,338.104l67.515,-0" style="fill:none;stroke:black;stroke-width:10.92px;"/>
    <rect x="1836.18" y="282.852" width="131.174" height="111.845" style="fill:white;stroke:black;stroke-width:10.92px;"/>
    <path d="M1840.52,366.64c28.186,-5.567 34.839,-16.45 64.074,-35.629c17.087,-11.21 39.27,-17.652 59.393,-22.097" style="fill:none;stroke:black;stroke-width:10.92px;"/>
    <path d="M1971.9,338.306l106.774,-0" style="fill:none;stroke:black;stroke-width:10.92px;"/>
    <circle cx="472.509" cy="449.885" r="44.868" style="fill:rgb(76,166,101);fill-opacity:0;stroke:black;stroke-width:10.92px;"/>
    <path d="M455.404,476.896l-0,-2.99l17.886,-24.356l-17.125,-23.976l-0,-3.045l28.651,0l-0,3.371l-24.03,0l16.799,23.65l-17.832,24.03l25.715,-0l0,3.316l-30.064,-0Z" style="fill-rule:nonzero;stroke:black;stroke-width:10.92px;stroke-linecap:butt;stroke-miterlimit:2;"/>
    <path d="M473.817,494.988l-0,60.486" style="fill:none;stroke:black;stroke-width:10.92px;"/>
    <circle cx="473.652" cy="558.752" r="5.474" style="stroke:black;stroke-width:10.92px;"/>
    <circle cx="838.808" cy="448.405" r="5.474" style="stroke:black;stroke-width:10.92px;"/>
    <path d="M521.02,448.53l67.516,-0" style="fill:none;stroke:black;stroke-width:10.92px;"/>
    <rect x="594.93" y="393.278" width="131.174" height="111.845" style="fill:white;stroke:black;stroke-width:10.92px;"/>
    <path d="M599.27,477.066c28.186,-5.567 34.839,-16.45 64.074,-35.629c17.088,-11.21 39.271,-17.652 59.394,-22.097" style="fill:none;stroke:black;stroke-width:10.92px;"/>
    <path d="M730.649,448.732l106.774,-0" style="fill:none;stroke:black;stroke-width:10.92px;"/>
    <path d="M0,317.382l21.758,-30.956l-20.132,-28.6l12.618,0l9.141,13.964c1.719,2.654 3.103,4.879 4.15,6.673c1.644,-2.467 3.159,-4.654 4.542,-6.561l10.038,-14.076l12.057,0l-20.581,28.04l22.151,31.516l-12.393,-0l-12.225,-18.506l-3.253,-4.991l-15.646,23.497l-12.225,-0Z" style="fill-rule:nonzero;"/>
    <path d="M82.418,342.827l-3.719,-0l-0,-23.701c-0.896,0.855 -2.07,1.709 -3.523,2.563c-1.454,0.854 -2.759,1.494 -3.916,1.921l-0,-3.595c2.08,-0.978 3.898,-2.163 5.455,-3.554c1.557,-1.391 2.659,-2.741 3.306,-4.05l2.397,0l-0,30.416Z" style="fill-rule:nonzero;"/>
    <path d="M0,505.904l21.758,-30.955l-20.132,-28.6l12.618,-0l9.141,13.963c1.719,2.655 3.103,4.879 4.15,6.674c1.644,-2.468 3.159,-4.655 4.542,-6.562l10.038,-14.075l12.057,-0l-20.581,28.039l22.151,31.516l-12.393,0l-12.225,-18.506l-3.253,-4.991l-15.646,23.497l-12.225,0Z" style="fill-rule:nonzero;"/>
    <path d="M87.955,527.774l0,3.575l-20.022,-0c-0.027,-0.895 0.117,-1.756 0.434,-2.583c0.51,-1.364 1.326,-2.707 2.449,-4.029c1.122,-1.323 2.744,-2.852 4.866,-4.587c3.292,-2.7 5.517,-4.839 6.674,-6.416c1.157,-1.577 1.736,-3.068 1.736,-4.474c-0,-1.473 -0.527,-2.717 -1.581,-3.729c-1.054,-1.013 -2.428,-1.519 -4.122,-1.519c-1.791,0 -3.224,0.537 -4.298,1.612c-1.075,1.074 -1.619,2.562 -1.633,4.463l-3.822,-0.393c0.262,-2.851 1.246,-5.024 2.955,-6.519c1.708,-1.494 4.001,-2.242 6.88,-2.242c2.907,0 5.207,0.806 6.902,2.418c1.694,1.612 2.541,3.609 2.541,5.992c0,1.212 -0.248,2.404 -0.744,3.575c-0.496,1.171 -1.319,2.404 -2.469,3.698c-1.15,1.295 -3.061,3.072 -5.734,5.331c-2.231,1.874 -3.664,3.145 -4.298,3.813c-0.633,0.668 -1.157,1.339 -1.57,2.014l14.856,0Z" style="fill-rule:nonzero;"/>
    <path d="M92.045,291.43l336.238,-219.079" style="fill:none;stroke:black;stroke-width:10.92px;"/>
    <path d="M110.285,462.252l313.647,188.85" style="fill:none;stroke:black;stroke-width:12.22px;"/>
    <path d="M97.37,290.21l323.266,354.301" style="fill:none;stroke:black;stroke-width:12.22px;"/>
    <path d="M93.05,291.963l333.652,-30.372" style="fill:none;stroke:black;stroke-width:10.92px;"/>
    <path d="M93.523,291.917l333.179,152.061" style="fill:none;stroke:black;stroke-width:10.92px;"/>
    <path d="M838.787,60.061l210.402,74.482" style="fill:none;stroke:black;stroke-width:10.92px;"/>
    <path d="M841.284,255.541l207.917,-115.77" style="fill:none;stroke:black;stroke-width:10.92px;"/>
    <path d="M841.925,450.111l210.302,-308.597l-210.967,499.745" style="fill:none;stroke:black;stroke-width:10.92px;"/>
    <path d="M104.514,461.919l319.185,-386.345" style="fill:none;stroke:black;stroke-width:12.22px;"/>
    <path d="M109.684,467.567l311.287,-208.768" style="fill:none;stroke:black;stroke-width:12.22px;"/>
    <path d="M105.248,465.415l320.724,-17.481" style="fill:none;stroke:black;stroke-width:12.22px;"/>
    <path d="M836.59,252.774l217.667,86.793" style="fill:none;stroke:black;stroke-width:12.22px;"/>
    <path d="M841.987,447.523l212.27,-107.956" style="fill:none;stroke:black;stroke-width:12.22px;"/>
    <path d="M841.987,640.834l212.27,-301.267" style="fill:none;stroke:black;stroke-width:12.22px;"/>
    <path d="M839.423,58.168l215.482,480.154" style="fill:none;stroke:black;stroke-width:12.22px;"/>
    <path d="M841.987,254.049l212.918,284.273" style="fill:none;stroke:black;stroke-width:12.22px;"/>
    <path d="M840.368,448.21l214.537,90.112" style="fill:none;stroke:black;stroke-width:12.22px;"/>
    <path d="M840.287,646.681l214.618,-108.359" style="fill:none;stroke:black;stroke-width:12.22px;"/>
    <path d="M838.83,58.957l213.485,276.726" style="fill:none;stroke:black;stroke-width:12.22px;"/>
    <path d="M1469.34,142.566l195.685,190.642" style="fill:none;stroke:black;stroke-width:12.22px;"/>
    <path d="M1473.13,334.237l191.027,0" style="fill:none;stroke:black;stroke-width:12.22px;"/>
    <path d="M1471.4,539.013l192.761,-204.776" style="fill:none;stroke:black;stroke-width:12.22px;"/>
    <path d="M1383.45,1202.89c13.46,-1.383 25.511,8.423 26.894,21.883c1.382,13.461 -8.423,25.512 -21.884,26.894c-13.46,1.383 -25.511,-8.423 -26.894,-21.883c-1.383,-13.461 8.423,-25.512 21.884,-26.894Z" style="fill:rgb(1,0,255);stroke:rgb(54,53,205);stroke-opacity:0;stroke-width:20.84px;"/>
    <circle cx="1600.02" cy="1065.1" r="24.517" style="fill:rgb(1,0,255);stroke:rgb(54,53,205);stroke-opacity:0;stroke-width:20.84px;"/>
    <circle cx="1529.77" cy="1276.97" r="24.517" style="fill:rgb(1,0,255);stroke:rgb(54,53,205);stroke-opacity:0;stroke-width:20.84px;"/>
    <circle cx="1805.5" cy="1354.42" r="24.517" style="fill:rgb(1,0,255);stroke:rgb(54,53,205);stroke-opacity:0;stroke-width:20.84px;"/>
    <circle cx="1719.98" cy="1030.39" r="24.517" style="fill:rgb(1,0,255);stroke:rgb(54,53,205);stroke-opacity:0;stroke-width:20.84px;"/>
    <circle cx="1310.07" cy="1221.74" r="24.517" style="fill:rgb(1,0,255);stroke:rgb(54,53,205);stroke-opacity:0;stroke-width:20.84px;"/>
    <circle cx="1376.79" cy="1152.39" r="24.517" style="fill:rgb(1,0,255);stroke:rgb(54,53,205);stroke-opacity:0;stroke-width:20.84px;"/>
    <circle cx="1452.96" cy="1258.23" r="24.517" style="fill:rgb(1,0,255);stroke:rgb(54,53,205);stroke-opacity:0;stroke-width:20.84px;"/>
    <circle cx="1705.41" cy="1333.97" r="24.517" style="fill:rgb(1,0,255);stroke:rgb(54,53,205);stroke-opacity:0;stroke-width:20.84px;"/>
    <circle cx="1779.1" cy="987.971" r="24.517" style="fill:rgb(1,0,255);stroke:rgb(54,53,205);stroke-opacity:0;stroke-width:20.84px;"/>
    <circle cx="1615.97" cy="1304.27" r="24.517" style="fill:rgb(1,0,255);stroke:rgb(54,53,205);stroke-opacity:0;stroke-width:20.84px;"/>
    <circle cx="1669.61" cy="1106.36" r="24.517" style="fill:rgb(1,0,255);stroke:rgb(54,53,205);stroke-opacity:0;stroke-width:20.84px;"/>
    <circle cx="1486.06" cy="1167.33" r="24.517" style="fill:rgb(1,0,255);stroke:rgb(54,53,205);stroke-opacity:0;stroke-width:20.84px;"/>
    <circle cx="1481.57" cy="1096.54" r="24.517" style="fill:rgb(1,0,255);stroke:rgb(54,53,205);stroke-opacity:0;stroke-width:20.84px;"/>
    <path d="M1141.51,1114.11l15.034,10.923l-7.517,10.346l12.163,3.952l-5.743,17.674l-12.162,-3.952l-0,12.789l-18.584,-0l0,-12.789l-12.162,3.952l-5.743,-17.674l12.163,-3.952l-7.517,-10.346l15.034,-10.923l7.517,10.346l7.517,-10.346Z" style="fill:rgb(226,63,41);stroke:rgb(205,74,53);stroke-opacity:0;stroke-width:20.84px;"/>
    <path d="M1224.29,1418.03l15.034,10.923l-7.517,10.346l12.163,3.952l-5.743,17.674l-12.163,-3.952l0,12.788l-18.583,0l-0,-12.788l-12.163,3.952l-5.742,-17.674l12.162,-3.952l-7.517,-10.346l15.034,-10.923l7.518,10.346l7.517,-10.346Z" style="fill:rgb(226,63,41);stroke:rgb(205,74,53);stroke-opacity:0;stroke-width:20.84px;"/>
    <path d="M1571.3,1419.59l15.034,10.923l-7.517,10.347l12.163,3.952l-5.743,17.673l-12.163,-3.952l0,12.789l-18.583,0l-0,-12.789l-12.163,3.952l-5.742,-17.673l12.162,-3.952l-7.517,-10.347l15.034,-10.923l7.518,10.347l7.517,-10.347Z" style="fill:rgb(226,63,41);stroke:rgb(205,74,53);stroke-opacity:0;stroke-width:20.84px;"/>
    <path d="M1373.67,1362.7l15.034,10.923l-7.517,10.346l12.163,3.952l-5.742,17.674l-12.163,-3.952l-0,12.788l-18.583,0l-0,-12.788l-12.163,3.952l-5.743,-17.674l12.163,-3.952l-7.517,-10.346l15.034,-10.923l7.517,10.346l7.517,-10.346Z" style="fill:rgb(226,63,41);stroke:rgb(205,74,53);stroke-opacity:0;stroke-width:20.84px;"/>
    <path d="M1146,971.943l15.034,10.923l-7.517,10.346l12.163,3.952l-5.743,17.674l-12.163,-3.952l0,12.789l-18.583,-0l0,-12.789l-12.163,3.952l-5.742,-17.674l12.162,-3.952l-7.517,-10.346l15.035,-10.923l7.517,10.346l7.517,-10.346Z" style="fill:rgb(226,63,41);stroke:rgb(205,74,53);stroke-opacity:0;stroke-width:20.84px;"/>
    <path d="M1320.93,1016.62l15.034,10.923l-7.517,10.346l12.163,3.952l-5.743,17.674l-12.163,-3.952l0,12.789l-18.583,-0l-0,-12.789l-12.163,3.952l-5.743,-17.674l12.163,-3.952l-7.517,-10.346l15.034,-10.923l7.517,10.346l7.518,-10.346Z" style="fill:rgb(226,63,41);stroke:rgb(205,74,53);stroke-opacity:0;stroke-width:20.84px;"/>
    <path d="M1284.3,907.548l15.034,10.923l-7.517,10.347l12.163,3.951l-5.743,17.674l-12.163,-3.952l0,12.789l-18.583,0l-0,-12.789l-12.163,3.952l-5.743,-17.674l12.163,-3.951l-7.517,-10.347l15.034,-10.923l7.517,10.347l7.518,-10.347Z" style="fill:rgb(226,63,41);stroke:rgb(205,74,53);stroke-opacity:0;stroke-width:20.84px;"/>
    <path d="M1840.7,1460.75l15.034,10.923l-7.517,10.346l12.163,3.952l-5.742,17.674l-12.163,-3.952l-0,12.789l-18.583,-0l-0,-12.789l-12.163,3.952l-5.743,-17.674l12.163,-3.952l-7.517,-10.346l15.034,-10.923l7.517,10.346l7.517,-10.346Z" style="fill:rgb(226,63,41);stroke:rgb(205,74,53);stroke-opacity:0;stroke-width:20.84px;"/>
    <path d="M1867.6,1055.09l15.034,10.923l-7.517,10.346l12.163,3.952l-5.742,17.674l-12.163,-3.952l-0,12.789l-18.583,-0l-0,-12.789l-12.163,3.952l-5.743,-17.674l12.163,-3.952l-7.517,-10.346l15.034,-10.923l7.517,10.347l7.517,-10.347Z" style="fill:rgb(226,63,41);stroke:rgb(205,74,53);stroke-opacity:0;stroke-width:20.84px;"/>
    <path d="M1807.85,1189.11l15.034,10.923l-7.517,10.347l12.163,3.952l-5.743,17.673l-12.162,-3.952l-0,12.789l-18.584,0l0,-12.789l-12.163,3.952l-5.742,-17.673l12.163,-3.952l-7.517,-10.347l15.034,-10.923l7.517,10.347l7.517,-10.347Z" style="fill:rgb(226,63,41);stroke:rgb(205,74,53);stroke-opacity:0;stroke-width:20.84px;"/>
    <path d="M1923.84,1123.33l15.034,10.923l-7.517,10.347l12.163,3.952l-5.743,17.673l-12.163,-3.952l0,12.789l-18.583,0l0,-12.789l-12.163,3.952l-5.742,-17.673l12.163,-3.952l-7.517,-10.347l15.034,-10.923l7.517,10.347l7.517,-10.347Z" style="fill:rgb(226,63,41);stroke:rgb(205,74,53);stroke-opacity:0;stroke-width:20.84px;"/>
    <path d="M1775.83,890.75l15.034,10.923l-7.517,10.347l12.162,3.951l-5.742,17.674l-12.163,-3.952l0,12.789l-18.583,0l-0,-12.789l-12.163,3.952l-5.743,-17.674l12.163,-3.951l-7.517,-10.347l15.034,-10.923l7.517,10.347l7.518,-10.347Z" style="fill:rgb(226,63,41);stroke:rgb(205,74,53);stroke-opacity:0;stroke-width:20.84px;"/>
    <path d="M1789.98,1093.26l15.034,10.923l-7.517,10.346l12.163,3.952l-5.743,17.674l-12.162,-3.952l-0,12.789l-18.584,-0l0,-12.789l-12.163,3.952l-5.742,-17.674l12.163,-3.952l-7.517,-10.346l15.034,-10.923l7.517,10.346l7.517,-10.346Z" style="fill:rgb(226,63,41);stroke:rgb(205,74,53);stroke-opacity:0;stroke-width:20.84px;"/>
    <path d="M1471.33,931.876l15.034,10.923l-7.517,10.346l12.163,3.952l-5.743,17.674l-12.163,-3.952l0,12.788l-18.583,0l-0,-12.788l-12.163,3.952l-5.742,-17.674l12.162,-3.952l-7.517,-10.346l15.034,-10.923l7.518,10.346l7.517,-10.346Z" style="fill:rgb(226,63,41);stroke:rgb(205,74,53);stroke-opacity:0;stroke-width:20.84px;"/>
    <path d="M1612.8,920.936l15.034,10.923l-7.517,10.346l12.163,3.952l-5.743,17.674l-12.162,-3.952l-0,12.789l-18.584,-0l0,-12.789l-12.163,3.952l-5.742,-17.674l12.163,-3.952l-7.517,-10.346l15.034,-10.923l7.517,10.346l7.517,-10.346Z" style="fill:rgb(226,63,41);stroke:rgb(205,74,53);stroke-opacity:0;stroke-width:20.84px;"/>
    <path d="M1907.47,1243.41l15.035,10.923l-7.517,10.346l12.162,3.952l-5.742,17.674l-12.163,-3.952l-0,12.789l-18.583,-0l-0,-12.789l-12.163,3.952l-5.743,-17.674l12.163,-3.952l-7.517,-10.346l15.034,-10.923l7.517,10.346l7.517,-10.346Z" style="fill:rgb(226,63,41);stroke:rgb(205,74,53);stroke-opacity:0;stroke-width:20.84px;"/>
    <path d="M2017.12,1451.96l-1029.51,-292.026" style="fill:none;stroke:rgb(59,67,216);stroke-width:8.09px;"/>
    <path d="M1973.79,1464.63l-515.491,-458.075" style="fill:none;stroke:rgb(59,67,216);stroke-width:8.09px;"/>
    <path d="M1975.05,866.202l-958.115,393.353" style="fill:none;stroke:rgb(60,65,212);stroke-width:7.73px;"/>
    <path d="M1026.82,1169.2l15.205,-55.252" style="fill:none;stroke:rgb(59,67,216);stroke-width:8.09px;"/>
    <path d="M1042.02,1113.95l-20.788,12.85" style="fill:none;stroke:rgb(59,67,216);stroke-width:8.09px;"/>
    <path d="M1042.02,1113.95l12.094,23.811" style="fill:none;stroke:rgb(59,67,216);stroke-width:8.09px;"/>
    <path d="M956.379,1099.22l6.38,22.447l0.118,0l7.384,-22.447l4.017,0l7.384,22.447l0.118,0l6.38,-22.447l4.608,0l-8.743,27.646l-4.371,-0l-7.325,-22.684l-0.118,0l-7.325,22.684l-4.371,-0l-8.743,-27.646l4.607,0Z" style="fill-rule:nonzero;stroke:black;stroke-width:1px;stroke-linecap:butt;stroke-miterlimit:2;"/>
    <path d="M1004.49,1143.62l-1.843,0l0,-15.817l-3.25,2.866l-1.152,-1.382l4.607,-3.788l1.638,0l-0,18.121Z" style="fill-rule:nonzero;stroke:black;stroke-width:1px;stroke-linecap:butt;stroke-miterlimit:2;"/>
    <path d="M1882.09,1381.55l38.624,-42.335" style="fill:none;stroke:rgb(59,67,216);stroke-width:8.09px;"/>
    <path d="M1920.71,1339.22l-24.355,2.017" style="fill:none;stroke:rgb(59,67,216);stroke-width:8.09px;"/>
    <path d="M1920.71,1339.22l-0.029,26.707" style="fill:none;stroke:rgb(59,67,216);stroke-width:8.09px;"/>
    <path d="M1944.21,1315.53l6.38,22.448l0.118,-0l7.384,-22.448l4.017,0l7.384,22.448l0.118,-0l6.38,-22.448l4.608,0l-8.743,27.646l-4.371,0l-7.325,-22.684l-0.118,0l-7.325,22.684l-4.372,0l-8.742,-27.646l4.607,0Z" style="fill-rule:nonzero;stroke:black;stroke-width:1px;stroke-linecap:butt;stroke-miterlimit:2;"/>
    <path d="M1982.93,1347.97l0.947,0c0.529,0 1.036,-0.059 1.523,-0.179c0.486,-0.119 0.908,-0.311 1.267,-0.576c0.358,-0.264 0.644,-0.61 0.857,-1.036c0.213,-0.427 0.32,-0.939 0.32,-1.536c-0,-0.973 -0.294,-1.728 -0.883,-2.265c-0.589,-0.538 -1.412,-0.806 -2.47,-0.806c-0.768,-0 -1.442,0.17 -2.022,0.511c-0.58,0.342 -1.058,0.837 -1.433,1.485l-1.613,-0.819c0.546,-0.973 1.242,-1.694 2.086,-2.163c0.845,-0.469 1.822,-0.704 2.931,-0.704c0.717,0 1.391,0.103 2.022,0.307c0.631,0.205 1.186,0.508 1.663,0.909c0.478,0.401 0.858,0.896 1.139,1.485c0.282,0.588 0.423,1.258 0.423,2.009c-0,0.495 -0.081,0.964 -0.243,1.407c-0.162,0.444 -0.384,0.845 -0.666,1.203c-0.281,0.359 -0.61,0.67 -0.985,0.935c-0.376,0.264 -0.768,0.465 -1.178,0.601l0.077,0.051c0.512,0.103 0.981,0.295 1.408,0.576c0.426,0.282 0.793,0.627 1.1,1.037c0.308,0.409 0.546,0.87 0.717,1.382c0.171,0.512 0.256,1.049 0.256,1.612c0,0.836 -0.154,1.579 -0.461,2.227c-0.307,0.648 -0.725,1.194 -1.254,1.638c-0.529,0.444 -1.143,0.781 -1.843,1.011c-0.699,0.23 -1.441,0.346 -2.226,0.346c-1.331,-0 -2.492,-0.29 -3.481,-0.871c-0.99,-0.58 -1.732,-1.51 -2.227,-2.789l1.945,-0.589c0.307,0.87 0.764,1.514 1.37,1.932c0.605,0.418 1.454,0.627 2.546,0.627c0.512,0 0.998,-0.085 1.459,-0.256c0.461,-0.17 0.866,-0.413 1.216,-0.729c0.35,-0.316 0.623,-0.695 0.819,-1.139c0.196,-0.444 0.294,-0.93 0.294,-1.459c0,-0.682 -0.128,-1.258 -0.384,-1.728c-0.256,-0.469 -0.597,-0.848 -1.023,-1.138c-0.427,-0.291 -0.918,-0.5 -1.472,-0.628c-0.555,-0.128 -1.131,-0.192 -1.728,-0.192l-0.793,0l-0,-1.689Z" style="fill-rule:nonzero;stroke:black;stroke-width:1px;stroke-linecap:butt;stroke-miterlimit:2;"/>
    <path d="M1482.46,1023.61l36.665,-41.991" style="fill:none;stroke:rgb(59,67,216);stroke-width:8.09px;"/>
    <path d="M1519.13,981.62l-24.124,2.394" style="fill:none;stroke:rgb(59,67,216);stroke-width:8.09px;"/>
    <path d="M1519.13,981.62l1.058,26.065" style="fill:none;stroke:rgb(59,67,216);stroke-width:8.09px;"/>
    <path d="M1399.14,998.598l6.379,22.448l0.119,-0l7.384,-22.448l4.016,0l7.384,22.448l0.119,-0l6.379,-22.448l4.608,0l-8.743,27.646l-4.371,0l-7.325,-22.683l-0.118,-0l-7.325,22.683l-4.371,0l-8.743,-27.646l4.608,0Z" style="fill-rule:nonzero;stroke:black;stroke-width:1px;stroke-linecap:butt;stroke-miterlimit:2;"/>
    <path d="M1452.09,1043.01l-11.517,-0l-0,-2.125l7.217,-7.345c0.273,-0.273 0.546,-0.563 0.819,-0.871c0.273,-0.307 0.521,-0.631 0.743,-0.972c0.221,-0.341 0.401,-0.7 0.537,-1.075c0.137,-0.375 0.205,-0.768 0.205,-1.177c-0,-0.495 -0.09,-0.939 -0.269,-1.331c-0.179,-0.393 -0.431,-0.726 -0.755,-0.999c-0.324,-0.273 -0.7,-0.482 -1.126,-0.627c-0.427,-0.145 -0.879,-0.217 -1.357,-0.217c-0.921,-0 -1.706,0.256 -2.354,0.768c-0.649,0.512 -1.067,1.203 -1.254,2.073l-1.946,-0.205c0.256,-1.348 0.875,-2.406 1.856,-3.174c0.981,-0.767 2.171,-1.151 3.57,-1.151c0.734,-0 1.429,0.098 2.086,0.294c0.657,0.196 1.237,0.49 1.741,0.883c0.503,0.392 0.904,0.883 1.203,1.472c0.298,0.588 0.448,1.275 0.448,2.06c-0,0.7 -0.107,1.339 -0.32,1.92c-0.214,0.58 -0.491,1.126 -0.832,1.638c-0.341,0.512 -0.73,0.998 -1.165,1.459c-0.435,0.46 -0.883,0.912 -1.343,1.356l-5.708,5.656l9.521,0l0,1.69Z" style="fill-rule:nonzero;stroke:black;stroke-width:1px;stroke-linecap:butt;stroke-miterlimit:2;"/>
    <path d="M1116.25,1219.72l20.935,53.345" style="fill:none;stroke:rgb(59,67,216);stroke-width:8.09px;"/>
    <path d="M1137.18,1273.07l8.942,-22.744" style="fill:none;stroke:rgb(59,67,216);stroke-width:8.09px;"/>
    <path d="M1137.18,1273.07l-23.95,-11.816" style="fill:none;stroke:rgb(59,67,216);stroke-width:8.09px;"/>
    <path d="M1069.94,1270.88l6.379,22.447l0.119,0l7.384,-22.447l4.016,0l7.384,22.447l0.119,0l6.379,-22.447l4.608,0l-8.743,27.646l-4.371,-0l-7.325,-22.684l-0.118,0l-7.325,22.684l-4.371,-0l-8.743,-27.646l4.608,0Z" style="fill-rule:nonzero;stroke:black;stroke-width:1px;stroke-linecap:butt;stroke-miterlimit:2;"/>
    <path d="M1117.94,1299.01l-0.052,0l-6.245,10.289l6.297,0l-0,-10.289Zm1.842,10.289l2.611,0l0,1.689l-2.611,0l0,4.3l-1.842,0l-0,-4.3l-7.832,0l-0,-2.098l7.32,-11.723l2.354,0l0,12.132Z" style="fill-rule:nonzero;stroke:black;stroke-width:1px;stroke-linecap:butt;stroke-miterlimit:2;"/>
    <path d="M1489.48,1348.81l464.983,-495.047" style="fill:none;stroke:rgb(59,67,216);stroke-width:8.09px;"/>
    <path d="M1568.25,1175.94c-1.639,0 -3.688,0.082 -6.147,0.246c-2.458,0.164 -4.818,0.558 -7.08,1.18c-2.262,0.623 -4.196,1.59 -5.802,2.901c-1.606,1.311 -2.409,3.114 -2.409,5.409c0,1.508 0.311,2.802 0.934,3.884c0.623,1.082 1.459,1.967 2.508,2.655c1.049,0.689 2.212,1.18 3.491,1.475c1.278,0.295 2.573,0.443 3.884,0.443c2.36,-0 4.409,-0.393 6.146,-1.18c1.737,-0.787 3.196,-1.852 4.376,-3.196c1.18,-1.344 2.049,-2.917 2.606,-4.72c0.557,-1.803 0.836,-3.721 0.836,-5.753l0,-3.344l-3.343,0Zm3.343,-5.31l0,-1.18c0,-7.932 -3.933,-11.899 -11.8,-11.899c-5.376,0 -10.064,1.803 -14.063,5.409l-3.933,-4.622c4.327,-4.458 10.817,-6.687 19.471,-6.687c2.229,0 4.376,0.328 6.441,0.984c2.065,0.655 3.851,1.655 5.359,2.999c1.508,1.344 2.721,3.032 3.639,5.064c0.917,2.032 1.376,4.458 1.376,7.277l0,20.553c0,1.77 0.082,3.622 0.246,5.556c0.164,1.934 0.344,3.523 0.541,4.769l-6.294,0c-0.196,-1.114 -0.344,-2.327 -0.442,-3.638c-0.098,-1.312 -0.148,-2.59 -0.148,-3.836l-0.196,0c-1.902,3.082 -4.147,5.294 -6.736,6.638c-2.59,1.344 -5.753,2.016 -9.49,2.016c-2.032,0 -3.999,-0.279 -5.9,-0.836c-1.901,-0.557 -3.59,-1.409 -5.065,-2.557c-1.475,-1.147 -2.655,-2.556 -3.54,-4.228c-0.885,-1.672 -1.327,-3.622 -1.327,-5.851c-0,-3.737 0.967,-6.671 2.901,-8.801c1.934,-2.131 4.359,-3.721 7.277,-4.77c2.917,-1.049 6.031,-1.704 9.342,-1.966c3.31,-0.263 6.342,-0.394 9.096,-0.394l3.245,0Z" style="fill:rgb(62,203,218);fill-rule:nonzero;stroke:rgb(52,208,239);stroke-width:1px;stroke-linecap:butt;stroke-miterlimit:2;"/>
    <path d="M1676.48,1068.54c-0,-2.556 -0.41,-4.949 -1.229,-7.178c-0.82,-2.229 -1.983,-4.163 -3.491,-5.802c-1.508,-1.639 -3.327,-2.934 -5.458,-3.884c-2.131,-0.951 -4.54,-1.426 -7.228,-1.426c-2.688,-0 -5.146,0.475 -7.375,1.426c-2.229,0.95 -4.163,2.245 -5.802,3.884c-1.639,1.639 -2.917,3.573 -3.835,5.802c-0.918,2.229 -1.377,4.622 -1.377,7.178c0,2.557 0.459,4.95 1.377,7.179c0.918,2.229 2.196,4.163 3.835,5.802c1.639,1.639 3.573,2.934 5.802,3.884c2.229,0.951 4.687,1.426 7.375,1.426c2.688,0 5.097,-0.475 7.228,-1.426c2.131,-0.95 3.95,-2.245 5.458,-3.884c1.508,-1.639 2.671,-3.573 3.491,-5.802c0.819,-2.229 1.229,-4.622 1.229,-7.179Zm-41.99,-51.332l6.49,0l0,35.992l0.197,-0c1.049,-1.574 2.294,-2.917 3.737,-4.032c1.442,-1.114 2.95,-2.032 4.523,-2.753c1.574,-0.722 3.196,-1.246 4.868,-1.574c1.672,-0.328 3.261,-0.491 4.769,-0.491c3.606,-0 6.9,0.606 9.883,1.819c2.983,1.213 5.556,2.901 7.72,5.064c2.163,2.164 3.851,4.72 5.064,7.67c1.213,2.951 1.819,6.163 1.819,9.637c0,3.475 -0.606,6.687 -1.819,9.638c-1.213,2.95 -2.901,5.506 -5.064,7.67c-2.164,2.163 -4.737,3.851 -7.72,5.064c-2.983,1.213 -6.277,1.819 -9.883,1.819c-1.508,0 -3.097,-0.163 -4.769,-0.491c-1.672,-0.328 -3.294,-0.852 -4.868,-1.574c-1.573,-0.721 -3.081,-1.639 -4.523,-2.753c-1.443,-1.115 -2.688,-2.459 -3.737,-4.032l-0.197,0l0,7.67l-6.49,0l-0,-74.343Z" style="fill:rgb(62,203,218);fill-rule:nonzero;stroke:rgb(52,208,239);stroke-width:1px;stroke-linecap:butt;stroke-miterlimit:2;"/>
    <path d="M1688.54,1267.53c-1.114,-1.705 -2.671,-3.147 -4.671,-4.327c-2,-1.18 -4.278,-1.77 -6.834,-1.77c-2.688,-0.066 -5.098,0.36 -7.228,1.278c-2.131,0.918 -3.95,2.196 -5.458,3.835c-1.508,1.639 -2.655,3.59 -3.442,5.851c-0.786,2.262 -1.18,4.704 -1.18,7.326c0,2.623 0.394,5.065 1.18,7.327c0.787,2.261 1.934,4.212 3.442,5.851c1.508,1.639 3.327,2.917 5.458,3.835c2.13,0.918 4.54,1.344 7.228,1.278c2.556,0 4.834,-0.59 6.834,-1.77c2,-1.18 3.557,-2.622 4.671,-4.327l5.31,4.032c-2.294,2.688 -4.884,4.671 -7.768,5.949c-2.885,1.279 -5.901,1.951 -9.047,2.016c-3.737,0.066 -7.114,-0.508 -10.129,-1.721c-3.016,-1.212 -5.589,-2.9 -7.72,-5.064c-2.13,-2.163 -3.753,-4.736 -4.867,-7.719c-1.115,-2.983 -1.672,-6.212 -1.672,-9.687c-0,-3.474 0.557,-6.703 1.672,-9.686c1.114,-2.983 2.737,-5.556 4.867,-7.719c2.131,-2.164 4.704,-3.852 7.72,-5.065c3.015,-1.212 6.392,-1.786 10.129,-1.721c3.146,0.066 6.162,0.738 9.047,2.016c2.884,1.279 5.474,3.262 7.768,5.95l-5.31,4.032Z" style="fill:rgb(62,203,218);fill-rule:nonzero;stroke:rgb(52,208,239);stroke-width:1px;stroke-linecap:butt;stroke-miterlimit:2;"/>
    <path d="M267.658,795.805c133.666,192.702 332.978,306.27 596.674,342.228" style="fill:none;stroke:black;stroke-width:12.22px;"/>
    <path d="M864.332,1138.03l-33.2,-35.49" style="fill:none;stroke:black;stroke-width:12.22px;"/>
    <path d="M864.332,1138.03l-30.91,20.606" style="fill:none;stroke:black;stroke-width:12.22px;"/>
    <path d="M581.686,895.486c-2.177,-2.265 -4.463,-3.985 -6.858,-5.16c-2.395,-1.176 -5.247,-1.764 -8.556,-1.764c-3.222,0 -6.031,0.588 -8.426,1.764c-2.394,1.175 -4.397,2.786 -6.008,4.833c-1.612,2.047 -2.831,4.398 -3.658,7.054c-0.827,2.656 -1.241,5.421 -1.241,8.295c-0,2.874 0.479,5.595 1.437,8.164c0.958,2.569 2.308,4.812 4.049,6.728c1.742,1.916 3.832,3.418 6.271,4.506c2.438,1.089 5.181,1.633 8.229,1.633c3.31,0 6.14,-0.588 8.491,-1.763c2.351,-1.176 4.529,-2.896 6.532,-5.16l8.36,8.36c-3.048,3.397 -6.597,5.835 -10.646,7.315c-4.05,1.481 -8.339,2.221 -12.867,2.221c-4.79,0 -9.166,-0.784 -13.129,-2.351c-3.962,-1.568 -7.38,-3.767 -10.254,-6.597c-2.874,-2.83 -5.095,-6.227 -6.662,-10.189c-1.568,-3.962 -2.351,-8.339 -2.351,-13.128c-0,-4.79 0.783,-9.188 2.351,-13.194c1.567,-4.006 3.766,-7.446 6.597,-10.32c2.83,-2.873 6.226,-5.116 10.189,-6.727c3.962,-1.611 8.382,-2.417 13.259,-2.417c4.528,0 8.861,0.806 12.997,2.417c4.137,1.611 7.729,4.071 10.777,7.381l-8.883,8.099Z" style="fill-rule:nonzero;"/>
    <rect x="601.281" y="842.189" width="11.757" height="98.756" style="fill-rule:nonzero;"/>
    <path d="M631.979,886.603c3.309,-3.048 7.141,-5.334 11.495,-6.858c4.354,-1.524 8.709,-2.286 13.063,-2.286c4.528,-0 8.425,0.566 11.691,1.698c3.266,1.132 5.944,2.656 8.034,4.572c2.09,1.916 3.636,4.115 4.637,6.597c1.002,2.482 1.502,5.073 1.502,7.772l0,31.612c0,2.178 0.044,4.181 0.131,6.009c0.087,1.829 0.218,3.571 0.392,5.226l-10.45,-0c-0.262,-3.136 -0.392,-6.271 -0.392,-9.406l-0.261,0c-2.613,4.006 -5.705,6.837 -9.275,8.491c-3.571,1.655 -7.707,2.482 -12.41,2.482c-2.874,0 -5.617,-0.392 -8.23,-1.176c-2.612,-0.783 -4.898,-1.959 -6.858,-3.527c-1.959,-1.567 -3.505,-3.505 -4.637,-5.813c-1.132,-2.307 -1.698,-4.985 -1.698,-8.033c-0,-4.006 0.893,-7.359 2.678,-10.059c1.785,-2.699 4.223,-4.898 7.315,-6.596c3.092,-1.699 6.706,-2.918 10.842,-3.658c4.137,-0.74 8.556,-1.11 13.259,-1.11l8.622,-0l-0,-2.613c-0,-1.568 -0.305,-3.135 -0.915,-4.703c-0.609,-1.567 -1.524,-2.982 -2.743,-4.245c-1.219,-1.263 -2.743,-2.264 -4.572,-3.005c-1.829,-0.74 -4.006,-1.11 -6.531,-1.11c-2.265,0 -4.246,0.218 -5.944,0.653c-1.698,0.436 -3.244,0.98 -4.637,1.633c-1.394,0.653 -2.657,1.415 -3.789,2.286c-1.132,0.871 -2.22,1.698 -3.265,2.482l-7.054,-7.315Zm33.179,24.558c-2.786,0 -5.638,0.153 -8.556,0.457c-2.917,0.305 -5.573,0.893 -7.968,1.764c-2.395,0.871 -4.354,2.09 -5.878,3.657c-1.524,1.568 -2.286,3.571 -2.286,6.009c-0,3.571 1.197,6.14 3.592,7.707c2.395,1.568 5.639,2.352 9.732,2.352c3.222,-0 5.965,-0.544 8.229,-1.633c2.265,-1.089 4.093,-2.504 5.487,-4.246c1.393,-1.741 2.395,-3.679 3.004,-5.813c0.61,-2.133 0.915,-4.245 0.915,-6.335l-0,-3.919l-6.271,0Z" style="fill-rule:nonzero;"/>
    <path d="M732.433,894.571c-1.394,-1.742 -3.114,-3.2 -5.16,-4.376c-2.047,-1.176 -4.551,-1.763 -7.512,-1.763c-2.786,-0 -5.203,0.587 -7.249,1.763c-2.047,1.176 -3.07,2.896 -3.07,5.16c-0,1.829 0.588,3.309 1.763,4.441c1.176,1.132 2.569,2.047 4.18,2.744c1.611,0.696 3.331,1.219 5.16,1.567c1.829,0.348 3.397,0.653 4.703,0.915c2.525,0.609 4.898,1.349 7.119,2.22c2.221,0.871 4.137,2.003 5.748,3.397c1.611,1.393 2.874,3.091 3.788,5.094c0.915,2.003 1.372,4.442 1.372,7.315c-0,3.484 -0.74,6.467 -2.221,8.948c-1.48,2.482 -3.396,4.507 -5.748,6.075c-2.351,1.567 -5.029,2.699 -8.033,3.396c-3.005,0.697 -6.031,1.045 -9.079,1.045c-5.138,0 -9.645,-0.784 -13.52,-2.351c-3.876,-1.568 -7.337,-4.442 -10.385,-8.622l8.883,-7.315c1.915,1.916 4.049,3.614 6.4,5.095c2.352,1.48 5.226,2.22 8.622,2.22c1.48,0 2.983,-0.152 4.507,-0.457c1.524,-0.305 2.873,-0.784 4.049,-1.437c1.176,-0.653 2.134,-1.48 2.874,-2.482c0.74,-1.001 1.11,-2.155 1.11,-3.461c0,-1.742 -0.544,-3.179 -1.633,-4.311c-1.088,-1.132 -2.394,-2.025 -3.918,-2.678c-1.524,-0.653 -3.136,-1.176 -4.834,-1.568c-1.698,-0.392 -3.2,-0.718 -4.506,-0.979c-2.526,-0.61 -4.921,-1.307 -7.185,-2.09c-2.264,-0.784 -4.267,-1.829 -6.009,-3.136c-1.742,-1.306 -3.135,-2.961 -4.18,-4.964c-1.045,-2.002 -1.568,-4.484 -1.568,-7.445c0,-3.223 0.675,-6.031 2.025,-8.426c1.35,-2.395 3.135,-4.376 5.356,-5.944c2.221,-1.567 4.746,-2.743 7.576,-3.527c2.831,-0.783 5.683,-1.175 8.557,-1.175c4.18,-0 8.186,0.784 12.018,2.351c3.831,1.568 6.879,4.18 9.144,7.838l-9.144,6.923Z" style="fill-rule:nonzero;"/>
    <path d="M790.432,894.571c-1.393,-1.742 -3.113,-3.2 -5.16,-4.376c-2.046,-1.176 -4.55,-1.763 -7.511,-1.763c-2.787,-0 -5.204,0.587 -7.25,1.763c-2.047,1.176 -3.07,2.896 -3.07,5.16c0,1.829 0.588,3.309 1.764,4.441c1.175,1.132 2.569,2.047 4.18,2.744c1.611,0.696 3.331,1.219 5.16,1.567c1.828,0.348 3.396,0.653 4.702,0.915c2.526,0.609 4.899,1.349 7.12,2.22c2.22,0.871 4.136,2.003 5.747,3.397c1.611,1.393 2.874,3.091 3.789,5.094c0.914,2.003 1.371,4.442 1.371,7.315c0,3.484 -0.74,6.467 -2.221,8.948c-1.48,2.482 -3.396,4.507 -5.747,6.075c-2.352,1.567 -5.029,2.699 -8.034,3.396c-3.004,0.697 -6.031,1.045 -9.079,1.045c-5.138,0 -9.644,-0.784 -13.52,-2.351c-3.875,-1.568 -7.337,-4.442 -10.385,-8.622l8.883,-7.315c1.916,1.916 4.049,3.614 6.401,5.095c2.351,1.48 5.225,2.22 8.621,2.22c1.481,0 2.983,-0.152 4.507,-0.457c1.524,-0.305 2.874,-0.784 4.05,-1.437c1.175,-0.653 2.133,-1.48 2.873,-2.482c0.741,-1.001 1.111,-2.155 1.111,-3.461c-0,-1.742 -0.545,-3.179 -1.633,-4.311c-1.089,-1.132 -2.395,-2.025 -3.919,-2.678c-1.524,-0.653 -3.135,-1.176 -4.833,-1.568c-1.698,-0.392 -3.201,-0.718 -4.507,-0.979c-2.526,-0.61 -4.92,-1.307 -7.185,-2.09c-2.264,-0.784 -4.267,-1.829 -6.009,-3.136c-1.741,-1.306 -3.135,-2.961 -4.18,-4.964c-1.045,-2.002 -1.567,-4.484 -1.567,-7.445c-0,-3.223 0.675,-6.031 2.024,-8.426c1.35,-2.395 3.136,-4.376 5.356,-5.944c2.221,-1.567 4.746,-2.743 7.577,-3.527c2.83,-0.783 5.682,-1.175 8.556,-1.175c4.18,-0 8.186,0.784 12.018,2.351c3.832,1.568 6.88,4.18 9.144,7.838l-9.144,6.923Z" style="fill-rule:nonzero;"/>
    <path d="M816.427,879.026l11.757,0l-0,61.919l-11.757,-0l0,-61.919Zm-2.743,-22.207c-0,-2.351 0.849,-4.376 2.547,-6.074c1.698,-1.698 3.723,-2.547 6.074,-2.547c2.352,-0 4.377,0.849 6.075,2.547c1.698,1.698 2.547,3.723 2.547,6.074c-0,2.352 -0.849,4.376 -2.547,6.075c-1.698,1.698 -3.723,2.547 -6.075,2.547c-2.351,-0 -4.376,-0.849 -6.074,-2.547c-1.698,-1.699 -2.547,-3.723 -2.547,-6.075Z" style="fill-rule:nonzero;"/>
    <path d="M851.436,889.215l-13.324,0l-0,-10.189l13.324,0l-0,-13.846c-0,-8.274 1.589,-14.435 4.768,-18.484c3.178,-4.05 8.643,-6.075 16.394,-6.075c1.306,0 2.678,0.044 4.115,0.131c1.436,0.087 2.982,0.348 4.637,0.784l-1.306,10.45c-1.133,-0.435 -2.221,-0.74 -3.266,-0.914c-1.045,-0.175 -2.177,-0.262 -3.397,-0.262c-2.177,0 -3.918,0.327 -5.225,0.98c-1.306,0.653 -2.329,1.589 -3.069,2.809c-0.741,1.219 -1.22,2.678 -1.437,4.376c-0.218,1.698 -0.327,3.636 -0.327,5.813l0,14.238l13.977,0l0,10.189l-14.108,0l0,51.73l-11.756,-0l-0,-51.73Z" style="fill-rule:nonzero;"/>
    <path d="M882.917,879.026l13.586,0l18.419,48.333l0.261,0l17.504,-48.333l12.671,0l-29.391,75.243c-1.045,2.699 -2.134,5.16 -3.266,7.38c-1.132,2.221 -2.482,4.115 -4.05,5.683c-1.567,1.567 -3.461,2.786 -5.682,3.657c-2.221,0.871 -4.942,1.307 -8.164,1.307c-1.742,-0 -3.506,-0.109 -5.291,-0.327c-1.785,-0.218 -3.505,-0.675 -5.16,-1.372l1.437,-10.711c2.352,0.958 4.703,1.437 7.054,1.437c1.829,-0 3.375,-0.24 4.638,-0.719c1.262,-0.479 2.351,-1.175 3.265,-2.09c0.915,-0.914 1.677,-1.981 2.286,-3.2c0.61,-1.219 1.22,-2.613 1.829,-4.18l3.788,-9.798l-25.734,-62.31Z" style="fill-rule:nonzero;"/>
</svg>
