<svg width="325" height="146" xmlns="http://www.w3.org/2000/svg" xmlns:xlink="http://www.w3.org/1999/xlink" xml:space="preserve" overflow="hidden"><g transform="translate(-419 -94)"><path d="M122.504 77.8833C122.504 85.9084 115.998 92.414 107.973 92.414 99.9478 92.414 93.4422 85.9084 93.4422 77.8833 93.4422 69.8581 99.9478 63.3525 107.973 63.3525 115.998 63.3525 122.504 69.8581 122.504 77.8833Z" stroke="#000000" stroke-width="1.79507" stroke-linecap="round" stroke-linejoin="round" stroke-miterlimit="1.5" fill="none" fill-rule="evenodd" transform="matrix(1 0 0 1.00205 539.292 95.6028)"/><path d="M48.9289 90.9891 48.9289 90.0207 54.7217 82.1323 49.1754 74.3676 49.1754 73.3819 58.4544 73.3819 58.4544 74.4737 50.6721 74.4737 56.1126 82.1323 50.3375 89.9147 58.6656 89.9147 58.6656 90.9891 48.9289 90.9891Z" stroke="#000000" stroke-width="0.35368" stroke-linejoin="round" stroke-miterlimit="2" transform="matrix(1 0 0 1.00205 592.795 91.2363)"/><path d="M332.479 461.349 332.479 480.939" stroke="#000000" stroke-width="1.79481" stroke-linecap="round" stroke-linejoin="round" stroke-miterlimit="1.5" fill="none" fill-rule="evenodd" transform="matrix(1 0 0 1.00205 315.209 -274.011)"/><path d="M257.356 369.773C257.356 370.752 256.562 371.545 255.583 371.545 254.604 371.545 253.811 370.752 253.811 369.773 253.811 368.793 254.604 368 255.583 368 256.562 368 257.356 368.793 257.356 369.773Z" stroke="#000000" stroke-width="1.79406" stroke-linecap="round" stroke-linejoin="round" stroke-miterlimit="1.5" fill-rule="evenodd" transform="matrix(1 0 0 1.00205 392.052 -161.555)"/><path d="M257.356 369.773C257.356 370.752 256.562 371.545 255.583 371.545 254.604 371.545 253.811 370.752 253.811 369.773 253.811 368.793 254.604 368 255.583 368 256.562 368 257.356 368.793 257.356 369.773Z" stroke="#000000" stroke-width="2.35816" stroke-linecap="round" stroke-linejoin="round" stroke-miterlimit="1.5" fill-rule="evenodd" transform="matrix(1 0 0 1.00205 485.206 -197.364)"/><path d="M265.257 331.816 287.124 331.816" stroke="#000000" stroke-width="1.79406" stroke-linecap="round" stroke-linejoin="round" stroke-miterlimit="1.5" fill="none" fill-rule="evenodd" transform="matrix(1 0 0 1.00205 397.718 -159.289)"/><path d="M120.993 134.64 142.566 134.64 142.566 143.145 120.993 143.145Z" stroke="#000000" stroke-width="1.06528" stroke-linecap="round" stroke-linejoin="round" stroke-miterlimit="1.5" fill="#FFFFFF" fill-rule="evenodd" transform="matrix(1 0 0 2.16711 563.616 -127.576)"/><path d="M836.958 174.801C838.001 174.836 839.045 174.8 840.088 174.806 841.563 174.814 843.104 174.831 844.505 174.309 846.531 173.556 847.578 171.526 849.396 170.463 851.871 169.015 855.178 169.078 857.947 169.101" stroke="#3AC759" stroke-width="1.79298" stroke-linecap="round" stroke-linejoin="round" stroke-miterlimit="1.5" fill="none" fill-rule="evenodd" transform="matrix(1 0 0 1.00205 -152.289 -1.98331)"/><path d="M192.977 192.243 213.007 192.243" stroke="#000000" stroke-width="1.28909" stroke-linecap="round" stroke-linejoin="round" stroke-miterlimit="1.5" fill="none" fill-rule="evenodd" transform="matrix(1.69656 0 0 1 379.261 -18.9723)"/><path d="M528.063 972.198 525.678 972.198C526.575 973.125 527.028 974.364 527.037 975.929 527.037 977.668 526.599 979.074 525.722 980.132 524.826 981.219 523.502 981.777 521.748 981.806 519.986 981.777 518.666 981.212 517.79 980.103 516.913 979.002 516.474 977.61 516.474 975.929 516.484 974.306 516.966 973.002 517.919 971.995 518.854 970.995 520.13 970.487 521.748 970.48 522.432 970.487 522.967 970.553 523.353 970.683L528.063 970.683 528.063 972.198ZM525.014 976.168C525.014 975.139 524.778 974.197 524.306 973.342 523.805 972.466 522.953 972.009 521.748 971.98 520.554 972.009 519.711 972.444 519.22 973.284 518.719 974.132 518.473 975.096 518.483 976.168 518.483 977.35 518.777 978.313 519.364 979.074 519.923 979.878 520.718 980.284 521.748 980.306 522.876 980.284 523.704 979.857 524.234 979.016 524.754 978.212 525.014 977.263 525.014 976.168Z" stroke="#000000" stroke-width="0.35506" stroke-linejoin="round" stroke-miterlimit="2" transform="matrix(1 0 0 1.00205 173.109 -824.768)"/><path d="M160.708 515.601 193.182 470.705" stroke="#000000" stroke-width="1.79298" stroke-linecap="round" stroke-linejoin="round" stroke-miterlimit="1.5" fill="none" fill-rule="evenodd" transform="matrix(1 0 0 1.00205 439.564 -297.943)"/><path d="M160.622 431.2 193.182 470.705" stroke="#000000" stroke-width="1.79298" stroke-linecap="round" stroke-linejoin="round" stroke-miterlimit="1.5" fill="none" fill-rule="evenodd" transform="matrix(1 0 0 1.00205 439.564 -297.943)"/><path d="M122.504 77.8833C122.504 85.9084 115.998 92.414 107.973 92.414 99.9478 92.414 93.4422 85.9084 93.4422 77.8833 93.4422 69.8581 99.9478 63.3525 107.973 63.3525 115.998 63.3525 122.504 69.8581 122.504 77.8833Z" stroke="#000000" stroke-width="1.79507" stroke-linecap="round" stroke-linejoin="round" stroke-miterlimit="1.5" fill="none" fill-rule="evenodd" transform="matrix(1 0 0 1.00205 399.794 56.3079)"/><path d="M48.9289 90.9891 48.9289 90.0207 54.7217 82.1323 49.1754 74.3676 49.1754 73.3819 58.4544 73.3819 58.4544 74.4737 50.6721 74.4737 56.1126 82.1323 50.3375 89.9147 58.6656 89.9147 58.6656 90.9891 48.9289 90.9891Z" stroke="#000000" stroke-width="0.35368" stroke-linejoin="round" stroke-miterlimit="2" transform="matrix(1 0 0 1.00205 453.297 51.941)"/><path d="M148.126 218.239 142.825 211.441 145.632 211.441 149.685 216.898 153.551 211.441 156.108 211.441 151.025 218.239 157.137 226.034 154.331 226.034 149.435 219.642 144.727 226.034 142.108 226.034 148.126 218.239Z" stroke="#2934D6" stroke-width="0.354341" stroke-linejoin="round" stroke-miterlimit="2" fill="#2C40D1" transform="matrix(1 0 0 1.00205 277.068 -80.8088)"/><path d="M172.677 237.105 171.602 237.105 171.602 227.881 169.707 229.553 169.035 228.747 171.722 226.538 172.677 226.538 172.677 237.105Z" stroke="#2934D6" stroke-width="0.354341" stroke-linejoin="round" stroke-miterlimit="2" fill="#2C40D1" transform="matrix(1 0 0 1.00205 268.241 -82.9332)"/><path d="M6.01778-7.79506 0.717145-14.5923 3.52337-14.5923 7.57679-9.13581 11.4431-14.5923 13.9999-14.5923 8.91754-7.79506 15.0289 0 12.2226 0 7.32735-6.39195 2.61914 0 0 0 6.01778-7.79506Z" fill="#2633DF" transform="matrix(1 0 0 1.00205 420.623 218.621)"/><path d="M7.43291 0 0.716425 0 0.716425-1.23882 4.92542-5.52244C5.0896-5.68662 5.23886-5.8508 5.40304-6.02991 5.56722-6.20901 5.70155-6.40305 5.83588-6.59708 5.97021-6.79111 6.07468-7.00007 6.14931-7.22395 6.22394-7.44783 6.26872-7.67171 6.26872-7.91052 6.26872-8.19411 6.22394-8.46277 6.11946-8.68665 6.01498-8.91053 5.86573-9.10456 5.6717-9.26874 5.47766-9.43293 5.26871-9.55233 5.01497-9.64188 4.76124-9.71651 4.50751-9.76129 4.22392-9.76129 3.6866-9.76129 3.22391-9.61203 2.85077-9.31352 2.47764-9.01501 2.2239-8.61202 2.11942-8.10455L0.985084-8.22396C1.13434-9.01501 1.49255-9.62696 2.07465-10.0747 2.64182-10.5225 3.32839-10.7464 4.14929-10.7464 4.58213-10.7464 4.98512-10.6867 5.37319-10.5822 5.74632-10.4628 6.08961-10.2837 6.38812-10.0598 6.67171-9.83591 6.91051-9.55233 7.08962-9.20904 7.2538-8.86576 7.34335-8.46277 7.34335-8.00008 7.34335-7.59709 7.28365-7.22395 7.16425-6.88066 7.02992-6.53738 6.86574-6.22394 6.67171-5.92543 6.47767-5.62692 6.25379-5.34333 6.00006-5.07468 5.74632-4.80602 5.47766-4.53736 5.209-4.28362L1.88061-0.985084 7.43291-0.985084 7.43291 0Z" fill="#2633DF" transform="matrix(1 0 0 1.00205 437.167 227.59)"/><path d="M257.356 369.773C257.356 370.752 256.562 371.545 255.583 371.545 254.604 371.545 253.811 370.752 253.811 369.773 253.811 368.793 254.604 368 255.583 368 256.562 368 257.356 368.793 257.356 369.773Z" stroke="#000000" stroke-width="2.35816" stroke-linecap="round" stroke-linejoin="round" stroke-miterlimit="1.5" fill-rule="evenodd" transform="matrix(1 0 0 1.00205 344.43 -236.66)"/><path d="M188.923 411.308 234.433 333.263" stroke="#000000" stroke-width="1.79406" stroke-linecap="round" stroke-linejoin="round" stroke-miterlimit="1.5" fill="none" fill-rule="evenodd" transform="matrix(1 0 0 1.00205 258.219 -198.584)"/><path d="M234.433 333.263 190.865 340.577" stroke="#000000" stroke-width="1.79406" stroke-linecap="round" stroke-linejoin="round" stroke-miterlimit="1.5" fill="none" fill-rule="evenodd" transform="matrix(1 0 0 1.00205 258.219 -198.584)"/><path d="M211.771 264.91 229.229 264.91" stroke="#000000" stroke-width="1.27159" stroke-linecap="round" stroke-linejoin="round" stroke-miterlimit="1.5" fill="none" fill-rule="evenodd" transform="matrix(1 0 0 1.73029 311.704 -324.461)"/><path d="M102.602 114.175 120.895 114.175 120.895 121.387 102.602 121.387Z" stroke="#000000" stroke-width="1.06503" stroke-linecap="round" stroke-linejoin="round" stroke-miterlimit="1.5" fill="#FFFFFF" fill-rule="evenodd" transform="matrix(1 0 0 2.1671 439.084 -121.485)"/><path d="M52.9145 97.5285 64.045 91.5621" stroke="#36952B" stroke-width="1.16727" stroke-linecap="round" stroke-linejoin="round" stroke-miterlimit="1.5" fill="none" fill-rule="evenodd" transform="matrix(0.936397 0.350944 0.350227 1.40485 467.757 -21.9976)"/><path d="M98.7055 205.791 89.3261 205.791" stroke="#36952B" stroke-width="1.85787" stroke-linecap="round" stroke-linejoin="round" stroke-miterlimit="1.5" fill="none" fill-rule="evenodd" transform="matrix(1 0 0 1.00205 452.759 -72.6264)"/><path d="M360.864 359.491 398.319 359.491" stroke="#000000" stroke-width="1.79475" stroke-linecap="round" stroke-linejoin="round" stroke-miterlimit="1.5" fill="none" fill-rule="evenodd" transform="matrix(1 0 0 1.00205 200.15 -226.251)"/><path d="M122.504 77.8833C122.504 85.9084 115.998 92.414 107.973 92.414 99.9478 92.414 93.4422 85.9084 93.4422 77.8833 93.4422 69.8581 99.9478 63.3525 107.973 63.3525 115.998 63.3525 122.504 69.8581 122.504 77.8833Z" stroke="#000000" stroke-width="1.79507" stroke-linecap="round" stroke-linejoin="round" stroke-miterlimit="1.5" fill="none" fill-rule="evenodd" transform="matrix(1 0 0 1.00205 399.794 141.404)"/><path d="M48.9289 90.9891 48.9289 90.0207 54.7217 82.1323 49.1754 74.3676 49.1754 73.3819 58.4544 73.3819 58.4544 74.4737 50.6721 74.4737 56.1126 82.1323 50.3375 89.9147 58.6656 89.9147 58.6656 90.9891 48.9289 90.9891Z" stroke="#000000" stroke-width="0.35368" stroke-linejoin="round" stroke-miterlimit="2" transform="matrix(1 0 0 1.00205 453.297 137.037)"/><path d="M257.356 369.773C257.356 370.752 256.562 371.545 255.583 371.545 254.604 371.545 253.811 370.752 253.811 369.773 253.811 368.793 254.604 368 255.583 368 256.562 368 257.356 368.793 257.356 369.773Z" stroke="#000000" stroke-width="2.35816" stroke-linecap="round" stroke-linejoin="round" stroke-miterlimit="1.5" fill-rule="evenodd" transform="matrix(1 0 0 1.00205 344.43 -151.564)"/><path d="M188.923 326.394 234.433 333.263" stroke="#000000" stroke-width="1.79406" stroke-linecap="round" stroke-linejoin="round" stroke-miterlimit="1.5" fill="none" fill-rule="evenodd" transform="matrix(1 0 0 1.00205 258.219 -113.488)"/><path d="M234.433 333.263 191.828 255.842" stroke="#000000" stroke-width="1.79406" stroke-linecap="round" stroke-linejoin="round" stroke-miterlimit="1.5" fill="none" fill-rule="evenodd" transform="matrix(1 0 0 1.00205 258.219 -113.488)"/><path d="M208.976 261.413 226.203 261.413" stroke="#000000" stroke-width="1.79507" stroke-linecap="round" stroke-linejoin="round" stroke-miterlimit="1.5" fill="none" fill-rule="evenodd" transform="matrix(1 0 0 1.00205 314.501 -42.9406)"/><path d="M101.414 112.852 119.495 112.852 119.495 119.981 101.414 119.981Z" stroke="#000000" stroke-width="1.0651" stroke-linecap="round" stroke-linejoin="round" stroke-miterlimit="1.5" fill="#FFFFFF" fill-rule="evenodd" transform="matrix(1 0 0 2.1671 440.003 -33.3831)"/><path d="M52.3015 96.3986 63.3031 90.5014" stroke="#36952B" stroke-width="1.16737" stroke-linecap="round" stroke-linejoin="round" stroke-miterlimit="1.5" fill="none" fill-rule="evenodd" transform="matrix(0.936397 0.350943 0.350226 1.40484 468.344 64.952)"/><path d="M97.5619 203.407 88.2912 203.407" stroke="#36952B" stroke-width="1.85742" stroke-linecap="round" stroke-linejoin="round" stroke-miterlimit="1.5" fill="none" fill-rule="evenodd" transform="matrix(1 0 0 1.00205 453.519 14.9098)"/><path d="M367.969 366.569 406.161 366.569" stroke="#000000" stroke-width="1.79588" stroke-linecap="round" stroke-linejoin="round" stroke-miterlimit="1.5" fill="none" fill-rule="evenodd" transform="matrix(1 0 0 1.00205 192.372 -148.248)"/><path d="M624.202 279.895 622.483 279.895 622.483 265.15 619.452 267.823 618.377 266.534 622.674 263.003 624.202 263.003 624.202 279.895Z" stroke="#000000" stroke-width="0.353645" stroke-linejoin="round" stroke-miterlimit="2" transform="matrix(1 0 0 1.00205 -125.269 -169.364)"/><path d="M632.314 283.236 630.712 283.236 632.314 277.629 634.245 277.629 632.314 283.236Z" stroke="#000000" stroke-width="0.353645" stroke-linejoin="round" stroke-miterlimit="2" transform="matrix(1 0 0 1.00205 -125.269 -169.364)"/><path d="M644.098 279.895 642.382 279.895 642.382 265.15 639.352 267.823 638.277 266.534 642.573 263.003 644.098 263.003 644.098 279.895Z" stroke="#000000" stroke-width="0.353645" stroke-linejoin="round" stroke-miterlimit="2" transform="matrix(1 0 0 1.00205 -125.269 -169.364)"/><path d="M624.202 279.895 622.483 279.895 622.483 265.15 619.452 267.823 618.377 266.534 622.674 263.003 624.202 263.003 624.202 279.895Z" stroke="#000000" stroke-width="0.353645" stroke-linejoin="round" stroke-miterlimit="2" transform="matrix(1 0 0 1.00205 -125.931 -82.8747)"/><path d="M632.314 283.236 630.712 283.236 632.314 277.629 634.245 277.629 632.314 283.236Z" stroke="#000000" stroke-width="0.353645" stroke-linejoin="round" stroke-miterlimit="2" transform="matrix(1 0 0 1.00205 -125.931 -82.8747)"/><path d="M647.677 279.895 636.94 279.895 636.94 277.915 643.67 271.067C643.924 270.813 644.179 270.543 644.434 270.256 644.688 269.97 644.918 269.668 645.123 269.35 645.332 269.031 645.498 268.697 645.625 268.347 645.753 267.997 645.816 267.632 645.816 267.25 645.816 266.789 645.732 266.375 645.565 266.009 645.399 265.643 645.166 265.333 644.862 265.079 644.561 264.824 644.211 264.629 643.811 264.494 643.415 264.359 642.994 264.292 642.549 264.292 641.689 264.292 640.957 264.53 640.353 265.007 639.748 265.484 639.359 266.129 639.182 266.94L637.371 266.749C637.608 265.492 638.185 264.506 639.101 263.79 640.017 263.075 641.124 262.717 642.428 262.717 643.111 262.717 643.762 262.808 644.373 262.991 644.985 263.174 645.526 263.448 645.997 263.814 646.464 264.18 646.838 264.637 647.118 265.186 647.394 265.735 647.535 266.375 647.535 267.107 647.535 267.759 647.436 268.355 647.234 268.896 647.036 269.437 646.778 269.946 646.46 270.423 646.142 270.9 645.781 271.354 645.374 271.783 644.971 272.213 644.554 272.634 644.122 273.048L638.804 278.321 647.677 278.321 647.677 279.895Z" stroke="#000000" stroke-width="0.353645" stroke-linejoin="round" stroke-miterlimit="2" transform="matrix(1 0 0 1.00205 -125.931 -82.8747)"/><path d="M776.439 324.507 765.699 324.507 765.699 322.526 772.428 315.679C772.683 315.424 772.938 315.154 773.192 314.867 773.447 314.581 773.677 314.279 773.885 313.961 774.091 313.643 774.257 313.309 774.384 312.959 774.511 312.609 774.575 312.243 774.575 311.861 774.575 311.4 774.494 310.986 774.324 310.62 774.158 310.255 773.924 309.945 773.62 309.69 773.32 309.435 772.97 309.241 772.573 309.105 772.174 308.97 771.753 308.903 771.307 308.903 770.448 308.903 769.716 309.141 769.111 309.619 768.507 310.096 768.117 310.74 767.944 311.551L766.13 311.36C766.367 310.103 766.943 309.117 767.859 308.402 768.775 307.686 769.882 307.328 771.187 307.328 771.873 307.328 772.52 307.419 773.132 307.602 773.744 307.785 774.285 308.06 774.755 308.425 775.226 308.791 775.597 309.249 775.876 309.798 776.156 310.346 776.294 310.986 776.294 311.718 776.294 312.37 776.195 312.967 775.997 313.508 775.799 314.048 775.537 314.557 775.219 315.034 774.9 315.512 774.54 315.965 774.133 316.394 773.73 316.824 773.313 317.245 772.881 317.659L767.562 322.932 776.439 322.932 776.439 324.507Z" stroke="#000000" stroke-width="0.353645" stroke-linejoin="round" stroke-miterlimit="2" transform="matrix(1 0 0 1.00205 -134.159 -177.091)"/><path d="M780.969 327.847 779.371 327.847 780.969 322.24 782.903 322.24 780.969 327.847Z" stroke="#000000" stroke-width="0.353645" stroke-linejoin="round" stroke-miterlimit="2" transform="matrix(1 0 0 1.00205 -134.159 -177.091)"/><path d="M792.756 324.507 791.037 324.507 791.037 309.761 788.01 312.434 786.935 311.145 791.228 307.614 792.756 307.614 792.756 324.507Z" stroke="#000000" stroke-width="0.353645" stroke-linejoin="round" stroke-miterlimit="2" transform="matrix(1 0 0 1.00205 -134.159 -177.091)"/><path d="M584.183 302.54 585.661 307.735 585.686 307.735 587.394 302.54 588.324 302.54 590.032 307.735 590.061 307.735 591.539 302.54 592.603 302.54 590.581 308.939 589.569 308.939 587.875 303.689 587.847 303.689 586.153 308.939 585.141 308.939 583.119 302.54 584.183 302.54Z" stroke="#000000" stroke-width="0.353645" stroke-linejoin="round" stroke-miterlimit="2" transform="matrix(1 0 0 1.00205 -125.311 -178.792)"/><path d="M597.869 300.798 597.346 300.798 597.346 296.314 596.426 297.126 596.101 296.735 597.406 295.661 597.869 295.661 597.869 300.798Z" stroke="#000000" stroke-width="0.353645" stroke-linejoin="round" stroke-miterlimit="2" transform="matrix(1 0 0 1.00205 -127.155 -178.559)"/><path d="M600.338 301.814 599.85 301.814 600.338 300.109 600.925 300.109 600.338 301.814Z" stroke="#000000" stroke-width="0.353645" stroke-linejoin="round" stroke-miterlimit="2" transform="matrix(1 0 0 1.00205 -127.155 -178.559)"/><path d="M603.92 300.798 603.4 300.798 603.4 296.314 602.477 297.126 602.152 296.735 603.457 295.661 603.92 295.661 603.92 300.798Z" stroke="#000000" stroke-width="0.353645" stroke-linejoin="round" stroke-miterlimit="2" transform="matrix(1 0 0 1.00205 -127.155 -178.559)"/><path d="M599.56 311.883 599.036 311.883 599.036 307.398 598.117 308.211 597.788 307.819 599.096 306.745 599.56 306.745 599.56 311.883Z" stroke="#000000" stroke-width="0.353645" stroke-linejoin="round" stroke-miterlimit="2" transform="matrix(1 0 0 1.00205 -128.897 -178.302)"/><path d="M584.183 302.54 585.661 307.735 585.686 307.735 587.394 302.54 588.324 302.54 590.032 307.735 590.061 307.735 591.539 302.54 592.603 302.54 590.581 308.939 589.569 308.939 587.875 303.689 587.847 303.689 586.153 308.939 585.141 308.939 583.119 302.54 584.183 302.54Z" stroke="#000000" stroke-width="0.353645" stroke-linejoin="round" stroke-miterlimit="2" transform="matrix(1 0 0 1.00205 1.46907 -149.195)"/><path d="M598.958 300.798 595.694 300.798 595.694 300.196 597.738 298.113C597.816 298.036 597.894 297.954 597.972 297.867 598.049 297.78 598.12 297.688 598.18 297.591 598.244 297.494 598.297 297.393 598.332 297.286 598.371 297.18 598.393 297.068 598.393 296.952 598.393 296.812 598.368 296.686 598.315 296.575 598.265 296.464 598.195 296.37 598.103 296.292 598.011 296.215 597.904 296.155 597.784 296.114 597.661 296.073 597.533 296.053 597.399 296.053 597.137 296.053 596.914 296.125 596.73 296.27 596.547 296.416 596.43 296.611 596.373 296.858L595.825 296.8C595.896 296.418 596.073 296.118 596.349 295.9 596.628 295.682 596.964 295.574 597.36 295.574 597.569 295.574 597.767 295.601 597.954 295.657 598.138 295.713 598.304 295.796 598.446 295.907 598.591 296.019 598.704 296.158 598.789 296.325 598.874 296.492 598.916 296.686 598.916 296.909 598.916 297.107 598.884 297.289 598.824 297.453 598.764 297.618 598.686 297.772 598.587 297.917 598.492 298.062 598.382 298.2 598.258 298.331 598.134 298.462 598.007 298.59 597.876 298.716L596.26 300.319 598.958 300.319 598.958 300.798Z" stroke="#000000" stroke-width="0.353645" stroke-linejoin="round" stroke-miterlimit="2" transform="matrix(1 0 0 1.00205 -0.37519 -148.962)"/><path d="M600.338 301.814 599.85 301.814 600.338 300.109 600.925 300.109 600.338 301.814Z" stroke="#000000" stroke-width="0.353645" stroke-linejoin="round" stroke-miterlimit="2" transform="matrix(1 0 0 1.00205 -0.37519 -148.962)"/><path d="M603.92 300.798 603.4 300.798 603.4 296.314 602.477 297.126 602.152 296.735 603.457 295.661 603.92 295.661 603.92 300.798Z" stroke="#000000" stroke-width="0.353645" stroke-linejoin="round" stroke-miterlimit="2" transform="matrix(1 0 0 1.00205 -0.37519 -148.962)"/><path d="M599.56 311.883 599.036 311.883 599.036 307.398 598.117 308.211 597.788 307.819 599.096 306.745 599.56 306.745 599.56 311.883Z" stroke="#000000" stroke-width="0.353645" stroke-linejoin="round" stroke-miterlimit="2" transform="matrix(1 0 0 1.00205 -2.11725 -148.706)"/><path d="M584.183 302.54 585.661 307.735 585.686 307.735 587.394 302.54 588.324 302.54 590.032 307.735 590.061 307.735 591.539 302.54 592.603 302.54 590.581 308.939 589.569 308.939 587.875 303.689 587.847 303.689 586.153 308.939 585.141 308.939 583.119 302.54 584.183 302.54Z" stroke="#000000" stroke-width="0.353645" stroke-linejoin="round" stroke-miterlimit="2" transform="matrix(1 0 0 1.00205 1.46907 -113.359)"/><path d="M598.958 300.798 595.694 300.798 595.694 300.196 597.738 298.113C597.816 298.036 597.894 297.954 597.972 297.867 598.049 297.78 598.12 297.688 598.18 297.591 598.244 297.494 598.297 297.393 598.332 297.286 598.371 297.18 598.393 297.068 598.393 296.952 598.393 296.812 598.368 296.686 598.315 296.575 598.265 296.464 598.195 296.37 598.103 296.292 598.011 296.215 597.904 296.155 597.784 296.114 597.661 296.073 597.533 296.053 597.399 296.053 597.137 296.053 596.914 296.125 596.73 296.27 596.547 296.416 596.43 296.611 596.373 296.858L595.825 296.8C595.896 296.418 596.073 296.118 596.349 295.9 596.628 295.682 596.964 295.574 597.36 295.574 597.569 295.574 597.767 295.601 597.954 295.657 598.138 295.713 598.304 295.796 598.446 295.907 598.591 296.019 598.704 296.158 598.789 296.325 598.874 296.492 598.916 296.686 598.916 296.909 598.916 297.107 598.884 297.289 598.824 297.453 598.764 297.618 598.686 297.772 598.587 297.917 598.492 298.062 598.382 298.2 598.258 298.331 598.134 298.462 598.007 298.59 597.876 298.716L596.26 300.319 598.958 300.319 598.958 300.798Z" stroke="#000000" stroke-width="0.353645" stroke-linejoin="round" stroke-miterlimit="2" transform="matrix(1 0 0 1.00205 -0.37519 -113.127)"/><path d="M600.338 301.814 599.85 301.814 600.338 300.109 600.925 300.109 600.338 301.814Z" stroke="#000000" stroke-width="0.353645" stroke-linejoin="round" stroke-miterlimit="2" transform="matrix(1 0 0 1.00205 -0.37519 -113.127)"/><path d="M603.92 300.798 603.4 300.798 603.4 296.314 602.477 297.126 602.152 296.735 603.457 295.661 603.92 295.661 603.92 300.798Z" stroke="#000000" stroke-width="0.353645" stroke-linejoin="round" stroke-miterlimit="2" transform="matrix(1 0 0 1.00205 -0.37519 -113.127)"/><path d="M600.649 311.883 597.385 311.883 597.385 311.28 599.429 309.198C599.507 309.12 599.584 309.038 599.662 308.951 599.74 308.864 599.811 308.772 599.871 308.675 599.934 308.578 599.984 308.477 600.023 308.371 600.062 308.264 600.083 308.153 600.083 308.037 600.083 307.896 600.058 307.771 600.005 307.659 599.956 307.548 599.885 307.454 599.793 307.376 599.701 307.299 599.595 307.24 599.471 307.199 599.351 307.158 599.224 307.137 599.089 307.137 598.828 307.137 598.605 307.21 598.421 307.355 598.237 307.5 598.117 307.696 598.064 307.942L597.512 307.884C597.586 307.502 597.763 307.202 598.039 306.985 598.318 306.767 598.654 306.658 599.05 306.658 599.259 306.658 599.457 306.686 599.644 306.741 599.828 306.797 599.995 306.881 600.136 306.992 600.277 307.103 600.394 307.242 600.479 307.409 600.564 307.576 600.606 307.771 600.606 307.993 600.606 308.192 600.575 308.373 600.514 308.537 600.454 308.702 600.377 308.857 600.277 309.002 600.182 309.147 600.072 309.285 599.949 309.416 599.825 309.546 599.698 309.674 599.567 309.8L597.95 311.404 600.649 311.404 600.649 311.883Z" stroke="#000000" stroke-width="0.353645" stroke-linejoin="round" stroke-miterlimit="2" transform="matrix(1 0 0 1.00205 -2.11725 -112.87)"/><path d="M584.183 302.54 585.661 307.735 585.686 307.735 587.394 302.54 588.324 302.54 590.032 307.735 590.061 307.735 591.539 302.54 592.603 302.54 590.581 308.939 589.569 308.939 587.875 303.689 587.847 303.689 586.153 308.939 585.141 308.939 583.119 302.54 584.183 302.54Z" stroke="#000000" stroke-width="0.353645" stroke-linejoin="round" stroke-miterlimit="2" transform="matrix(1 0 0 1.00205 -145.033 -135.452)"/><path d="M597.869 300.798 597.346 300.798 597.346 296.314 596.426 297.126 596.101 296.735 597.406 295.661 597.869 295.661 597.869 300.798Z" stroke="#000000" stroke-width="0.353645" stroke-linejoin="round" stroke-miterlimit="2" transform="matrix(1 0 0 1.00205 -146.877 -135.219)"/><path d="M600.338 301.814 599.85 301.814 600.338 300.109 600.925 300.109 600.338 301.814Z" stroke="#000000" stroke-width="0.353645" stroke-linejoin="round" stroke-miterlimit="2" transform="matrix(1 0 0 1.00205 -146.877 -135.219)"/><path d="M605.009 300.798 601.745 300.798 601.745 300.196 603.793 298.113C603.867 298.036 603.945 297.954 604.023 297.867 604.1 297.78 604.171 297.688 604.235 297.591 604.295 297.494 604.348 297.393 604.387 297.286 604.426 297.18 604.443 297.068 604.443 296.952 604.443 296.812 604.419 296.686 604.369 296.575 604.316 296.464 604.245 296.37 604.153 296.292 604.061 296.215 603.955 296.155 603.835 296.114 603.715 296.073 603.584 296.053 603.45 296.053 603.188 296.053 602.965 296.125 602.781 296.27 602.597 296.416 602.481 296.611 602.428 296.858L601.876 296.8C601.947 296.418 602.123 296.118 602.403 295.9 602.679 295.682 603.018 295.574 603.414 295.574 603.623 295.574 603.817 295.601 604.005 295.657 604.192 295.713 604.355 295.796 604.5 295.907 604.641 296.019 604.755 296.158 604.84 296.325 604.924 296.492 604.967 296.686 604.967 296.909 604.967 297.107 604.935 297.289 604.875 297.453 604.815 297.618 604.737 297.772 604.641 297.917 604.542 298.062 604.433 298.2 604.309 298.331 604.185 298.462 604.058 298.59 603.931 298.716L602.311 300.319 605.009 300.319 605.009 300.798Z" stroke="#000000" stroke-width="0.353645" stroke-linejoin="round" stroke-miterlimit="2" transform="matrix(1 0 0 1.00205 -146.877 -135.219)"/><path d="M599.56 311.883 599.036 311.883 599.036 307.398 598.117 308.211 597.788 307.819 599.096 306.745 599.56 306.745 599.56 311.883Z" stroke="#000000" stroke-width="0.353645" stroke-linejoin="round" stroke-miterlimit="2" transform="matrix(1 0 0 1.00205 -148.62 -134.963)"/><path d="M584.183 302.54 585.661 307.735 585.686 307.735 587.394 302.54 588.324 302.54 590.032 307.735 590.061 307.735 591.539 302.54 592.603 302.54 590.581 308.939 589.569 308.939 587.875 303.689 587.847 303.689 586.153 308.939 585.141 308.939 583.119 302.54 584.183 302.54Z" stroke="#000000" stroke-width="0.353645" stroke-linejoin="round" stroke-miterlimit="2" transform="matrix(1 0 0 1.00205 -122.956 -73.4234)"/><path d="M597.869 300.798 597.346 300.798 597.346 296.314 596.426 297.126 596.101 296.735 597.406 295.661 597.869 295.661 597.869 300.798Z" stroke="#000000" stroke-width="0.353645" stroke-linejoin="round" stroke-miterlimit="2" transform="matrix(1 0 0 1.00205 -124.8 -73.1902)"/><path d="M600.338 301.814 599.85 301.814 600.338 300.109 600.925 300.109 600.338 301.814Z" stroke="#000000" stroke-width="0.353645" stroke-linejoin="round" stroke-miterlimit="2" transform="matrix(1 0 0 1.00205 -124.8 -73.1902)"/><path d="M605.009 300.798 601.745 300.798 601.745 300.196 603.793 298.113C603.867 298.036 603.945 297.954 604.023 297.867 604.1 297.78 604.171 297.688 604.235 297.591 604.295 297.494 604.348 297.393 604.387 297.286 604.426 297.18 604.443 297.068 604.443 296.952 604.443 296.812 604.419 296.686 604.369 296.575 604.316 296.464 604.245 296.37 604.153 296.292 604.061 296.215 603.955 296.155 603.835 296.114 603.715 296.073 603.584 296.053 603.45 296.053 603.188 296.053 602.965 296.125 602.781 296.27 602.597 296.416 602.481 296.611 602.428 296.858L601.876 296.8C601.947 296.418 602.123 296.118 602.403 295.9 602.679 295.682 603.018 295.574 603.414 295.574 603.623 295.574 603.817 295.601 604.005 295.657 604.192 295.713 604.355 295.796 604.5 295.907 604.641 296.019 604.755 296.158 604.84 296.325 604.924 296.492 604.967 296.686 604.967 296.909 604.967 297.107 604.935 297.289 604.875 297.453 604.815 297.618 604.737 297.772 604.641 297.917 604.542 298.062 604.433 298.2 604.309 298.331 604.185 298.462 604.058 298.59 603.931 298.716L602.311 300.319 605.009 300.319 605.009 300.798Z" stroke="#000000" stroke-width="0.353645" stroke-linejoin="round" stroke-miterlimit="2" transform="matrix(1 0 0 1.00205 -124.8 -73.1902)"/><path d="M600.649 311.883 597.385 311.883 597.385 311.28 599.429 309.198C599.507 309.12 599.584 309.038 599.662 308.951 599.74 308.864 599.811 308.772 599.871 308.675 599.934 308.578 599.984 308.477 600.023 308.371 600.062 308.264 600.083 308.153 600.083 308.037 600.083 307.896 600.058 307.771 600.005 307.659 599.956 307.548 599.885 307.454 599.793 307.376 599.701 307.299 599.595 307.24 599.471 307.199 599.351 307.158 599.224 307.137 599.089 307.137 598.828 307.137 598.605 307.21 598.421 307.355 598.237 307.5 598.117 307.696 598.064 307.942L597.512 307.884C597.586 307.502 597.763 307.202 598.039 306.985 598.318 306.767 598.654 306.658 599.05 306.658 599.259 306.658 599.457 306.686 599.644 306.741 599.828 306.797 599.995 306.881 600.136 306.992 600.277 307.103 600.394 307.242 600.479 307.409 600.564 307.576 600.606 307.771 600.606 307.993 600.606 308.192 600.575 308.373 600.514 308.537 600.454 308.702 600.377 308.857 600.277 309.002 600.182 309.147 600.072 309.285 599.949 309.416 599.825 309.546 599.698 309.674 599.567 309.8L597.95 311.404 600.649 311.404 600.649 311.883Z" stroke="#000000" stroke-width="0.353645" stroke-linejoin="round" stroke-miterlimit="2" transform="matrix(1 0 0 1.00205 -126.543 -72.934)"/><path d="M584.183 302.54 585.661 307.735 585.686 307.735 587.394 302.54 588.324 302.54 590.032 307.735 590.061 307.735 591.539 302.54 592.603 302.54 590.581 308.939 589.569 308.939 587.875 303.689 587.847 303.689 586.153 308.939 585.141 308.939 583.119 302.54 584.183 302.54Z" stroke="#000000" stroke-width="0.353645" stroke-linejoin="round" stroke-miterlimit="2" transform="matrix(1 0 0 1.00205 -100.975 -144.288)"/><path d="M597.869 300.798 597.346 300.798 597.346 296.314 596.426 297.126 596.101 296.735 597.406 295.661 597.869 295.661 597.869 300.798Z" stroke="#000000" stroke-width="0.353645" stroke-linejoin="round" stroke-miterlimit="2" transform="matrix(1 0 0 1.00205 -102.82 -144.055)"/><path d="M600.338 301.814 599.85 301.814 600.338 300.109 600.925 300.109 600.338 301.814Z" stroke="#000000" stroke-width="0.353645" stroke-linejoin="round" stroke-miterlimit="2" transform="matrix(1 0 0 1.00205 -102.82 -144.055)"/><path d="M603.92 300.798 603.4 300.798 603.4 296.314 602.477 297.126 602.152 296.735 603.457 295.661 603.92 295.661 603.92 300.798Z" stroke="#000000" stroke-width="0.353645" stroke-linejoin="round" stroke-miterlimit="2" transform="matrix(1 0 0 1.00205 -102.82 -144.055)"/><path d="M600.649 311.883 597.385 311.883 597.385 311.28 599.429 309.198C599.507 309.12 599.584 309.038 599.662 308.951 599.74 308.864 599.811 308.772 599.871 308.675 599.934 308.578 599.984 308.477 600.023 308.371 600.062 308.264 600.083 308.153 600.083 308.037 600.083 307.896 600.058 307.771 600.005 307.659 599.956 307.548 599.885 307.454 599.793 307.376 599.701 307.299 599.595 307.24 599.471 307.199 599.351 307.158 599.224 307.137 599.089 307.137 598.828 307.137 598.605 307.21 598.421 307.355 598.237 307.5 598.117 307.696 598.064 307.942L597.512 307.884C597.586 307.502 597.763 307.202 598.039 306.985 598.318 306.767 598.654 306.658 599.05 306.658 599.259 306.658 599.457 306.686 599.644 306.741 599.828 306.797 599.995 306.881 600.136 306.992 600.277 307.103 600.394 307.242 600.479 307.409 600.564 307.576 600.606 307.771 600.606 307.993 600.606 308.192 600.575 308.373 600.514 308.537 600.454 308.702 600.377 308.857 600.277 309.002 600.182 309.147 600.072 309.285 599.949 309.416 599.825 309.546 599.698 309.674 599.567 309.8L597.95 311.404 600.649 311.404 600.649 311.883Z" stroke="#000000" stroke-width="0.353645" stroke-linejoin="round" stroke-miterlimit="2" transform="matrix(1 0 0 1.00205 -104.562 -143.798)"/></g></svg>