<svg width="284" height="213" xmlns="http://www.w3.org/2000/svg" xmlns:xlink="http://www.w3.org/1999/xlink" xml:space="preserve" overflow="hidden"><g transform="translate(-419 -142)"><path d="M0 212.769 283.692 212.769 283.692 0 0 0Z" fill="#FFFFFF" transform="matrix(1.00109 0 0 1 419 142.116)"/><path d="M63.4761 189.364 227.308 189.364 227.308 25.5323 63.4761 25.5323Z" fill="#FFFFFF" transform="matrix(1.00109 0 0 1 419 142.116)"/><path d="M0 0 0 2.15478" stroke="#000000" stroke-width="0.492521" stroke-linejoin="round" fill="none" transform="matrix(1.00109 0 0 1 496.212 331.48)"/><path d="M0.652205 2.18556 4.5058 2.18556 4.5058 1.67476 0.652205 1.67476 0.652205 2.18556Z" transform="matrix(1.00109 0 0 -1 488.73 340.467)"/><path d="M0.763792 0.510798 1.75557 0.510798 1.75557 3.93536 0.676254 3.71892 0.676254 4.27204 1.7498 4.48848 2.35679 4.48848 2.35679 0.510798 3.34856 0.510798 3.34856 0 0.763792 0 0.763792 0.510798Z" transform="matrix(1.00109 0 0 -1 493.894 340.467)"/><path d="M0.657977 0.763792 1.29287 0.763792 1.29287 0 0.657977 0 0.657977 0.763792Z" transform="matrix(1.00109 0 0 -1 497.815 340.467)"/><path d="M1.95662 4.08831C1.6443 4.08831 1.40926 3.93439 1.2515 3.62657 1.09439 3.31939 1.01582 2.85701 1.01582 2.23943 1.01582 1.62442 1.09439 1.163 1.2515 0.855178 1.40926 0.547352 1.6443 0.393439 1.95662 0.393439 2.27149 0.393439 2.5075 0.547352 2.66461 0.855178 2.82237 1.163 2.90126 1.62442 2.90126 2.23943 2.90126 2.85701 2.82237 3.31939 2.66461 3.62657 2.5075 3.93439 2.27149 4.08831 1.95662 4.08831ZM1.95662 4.56928C2.46004 4.56928 2.8445 4.37016 3.11 3.97191 3.3755 3.57431 3.50825 2.99681 3.50825 2.23943 3.50825 1.48398 3.3755 0.907123 3.11 0.508874 2.8445 0.111266 2.46004-0.0875379 1.95662-0.0875379 1.45383-0.0875379 1.06969 0.111266 0.804194 0.508874 0.538695 0.907123 0.405945 1.48398 0.405945 2.23943 0.405945 2.99681 0.538695 3.57431 0.804194 3.97191 1.06969 4.37016 1.45383 4.56928 1.95662 4.56928Z" transform="matrix(1.00109 0 0 -1 499.774 340.467)"/><path d="M0 0 0 2.15478" stroke="#000000" stroke-width="0.492521" stroke-linejoin="round" fill="none" transform="matrix(1.00109 0 0 1 530.381 331.48)"/><path d="M0.652205 2.18556 4.5058 2.18556 4.5058 1.67476 0.652205 1.67476 0.652205 2.18556Z" transform="matrix(1.00109 0 0 -1 522.898 340.467)"/><path d="M1.95662 4.08831C1.6443 4.08831 1.40926 3.93439 1.2515 3.62657 1.09439 3.31939 1.01582 2.85701 1.01582 2.23943 1.01582 1.62442 1.09439 1.163 1.2515 0.855178 1.40926 0.547352 1.6443 0.393439 1.95662 0.393439 2.27149 0.393439 2.5075 0.547352 2.66461 0.855178 2.82237 1.163 2.90126 1.62442 2.90126 2.23943 2.90126 2.85701 2.82237 3.31939 2.66461 3.62657 2.5075 3.93439 2.27149 4.08831 1.95662 4.08831ZM1.95662 4.56928C2.46004 4.56928 2.8445 4.37016 3.11 3.97191 3.3755 3.57431 3.50825 2.99681 3.50825 2.23943 3.50825 1.48398 3.3755 0.907123 3.11 0.508874 2.8445 0.111266 2.46004-0.0875379 1.95662-0.0875379 1.45383-0.0875379 1.06969 0.111266 0.804194 0.508874 0.538695 0.907123 0.405945 1.48398 0.405945 2.23943 0.405945 2.99681 0.538695 3.57431 0.804194 3.97191 1.06969 4.37016 1.45383 4.56928 1.95662 4.56928Z" transform="matrix(1.00109 0 0 -1 528.063 340.467)"/><path d="M0.657977 0.763792 1.29287 0.763792 1.29287 0 0.657977 0 0.657977 0.763792Z" transform="matrix(1.00109 0 0 -1 531.984 340.467)"/><path d="M0.664711 4.48848 3.04843 4.48848 3.04843 3.97672 1.22072 3.97672 1.22072 2.87721C1.30858 2.90734 1.39644 2.9298 1.4843 2.94454 1.5728 2.95929 1.6613 2.96667 1.7498 2.96667 2.25066 2.96667 2.6473 2.82943 2.93973 2.55495 3.23281 2.28048 3.37935 1.90884 3.37935 1.44005 3.37935 0.957145 3.22896 0.581662 2.92819 0.313597 2.62742 0.0461738 2.20352-0.0875379 1.65649-0.0875379 1.46794-0.0875379 1.27587-0.0715053 1.08028-0.0394401 0.885319-0.00737499 0.683629 0.0407227 0.475206 0.104853L0.475206 0.715694C0.655411 0.617575 0.84171 0.544466 1.0341 0.496369 1.22649 0.448271 1.42978 0.424222 1.64398 0.424222 1.99093 0.424222 2.2654 0.515287 2.46741 0.697417 2.67007 0.879547 2.77139 1.12709 2.77139 1.44005 2.77139 1.75236 2.67007 1.99959 2.46741 2.18171 2.2654 2.36448 1.99093 2.45587 1.64398 2.45587 1.48173 2.45587 1.3198 2.43791 1.15819 2.402 0.99723 2.36609 0.832732 2.30997 0.664711 2.23366L0.664711 4.48848Z" transform="matrix(1.00109 0 0 -1 533.943 340.467)"/><path d="M0 0 0 2.15478" stroke="#000000" stroke-width="0.492521" stroke-linejoin="round" fill="none" transform="matrix(1.00109 0 0 1 564.55 331.48)"/><path d="M1.95662 4.08831C1.6443 4.08831 1.40926 3.93439 1.2515 3.62657 1.09439 3.31939 1.01582 2.85701 1.01582 2.23943 1.01582 1.62442 1.09439 1.163 1.2515 0.855178 1.40926 0.547352 1.6443 0.393439 1.95662 0.393439 2.27149 0.393439 2.5075 0.547352 2.66461 0.855178 2.82237 1.163 2.90126 1.62442 2.90126 2.23943 2.90126 2.85701 2.82237 3.31939 2.66461 3.62657 2.5075 3.93439 2.27149 4.08831 1.95662 4.08831ZM1.95662 4.56928C2.46004 4.56928 2.8445 4.37016 3.11 3.97191 3.3755 3.57431 3.50825 2.99681 3.50825 2.23943 3.50825 1.48398 3.3755 0.907123 3.11 0.508874 2.8445 0.111266 2.46004-0.0875379 1.95662-0.0875379 1.45383-0.0875379 1.06969 0.111266 0.804194 0.508874 0.538695 0.907123 0.405945 1.48398 0.405945 2.23943 0.405945 2.99681 0.538695 3.57431 0.804194 3.97191 1.06969 4.37016 1.45383 4.56928 1.95662 4.56928Z" transform="matrix(1.00109 0 0 -1 559.649 340.467)"/><path d="M0.657977 0.763792 1.29287 0.763792 1.29287 0 0.657977 0 0.657977 0.763792Z" transform="matrix(1.00109 0 0 -1 563.57 340.467)"/><path d="M1.95662 4.08831C1.6443 4.08831 1.40926 3.93439 1.2515 3.62657 1.09439 3.31939 1.01582 2.85701 1.01582 2.23943 1.01582 1.62442 1.09439 1.163 1.2515 0.855178 1.40926 0.547352 1.6443 0.393439 1.95662 0.393439 2.27149 0.393439 2.5075 0.547352 2.66461 0.855178 2.82237 1.163 2.90126 1.62442 2.90126 2.23943 2.90126 2.85701 2.82237 3.31939 2.66461 3.62657 2.5075 3.93439 2.27149 4.08831 1.95662 4.08831ZM1.95662 4.56928C2.46004 4.56928 2.8445 4.37016 3.11 3.97191 3.3755 3.57431 3.50825 2.99681 3.50825 2.23943 3.50825 1.48398 3.3755 0.907123 3.11 0.508874 2.8445 0.111266 2.46004-0.0875379 1.95662-0.0875379 1.45383-0.0875379 1.06969 0.111266 0.804194 0.508874 0.538695 0.907123 0.405945 1.48398 0.405945 2.23943 0.405945 2.99681 0.538695 3.57431 0.804194 3.97191 1.06969 4.37016 1.45383 4.56928 1.95662 4.56928Z" transform="matrix(1.00109 0 0 -1 565.529 340.467)"/><path d="M0 0 0 2.15478" stroke="#000000" stroke-width="0.492521" stroke-linejoin="round" fill="none" transform="matrix(1.00109 0 0 1 598.719 331.48)"/><path d="M1.95662 4.08831C1.6443 4.08831 1.40926 3.93439 1.2515 3.62657 1.09439 3.31939 1.01582 2.85701 1.01582 2.23943 1.01582 1.62442 1.09439 1.163 1.2515 0.855178 1.40926 0.547352 1.6443 0.393439 1.95662 0.393439 2.27149 0.393439 2.5075 0.547352 2.66461 0.855178 2.82237 1.163 2.90126 1.62442 2.90126 2.23943 2.90126 2.85701 2.82237 3.31939 2.66461 3.62657 2.5075 3.93439 2.27149 4.08831 1.95662 4.08831ZM1.95662 4.56928C2.46004 4.56928 2.8445 4.37016 3.11 3.97191 3.3755 3.57431 3.50825 2.99681 3.50825 2.23943 3.50825 1.48398 3.3755 0.907123 3.11 0.508874 2.8445 0.111266 2.46004-0.0875379 1.95662-0.0875379 1.45383-0.0875379 1.06969 0.111266 0.804194 0.508874 0.538695 0.907123 0.405945 1.48398 0.405945 2.23943 0.405945 2.99681 0.538695 3.57431 0.804194 3.97191 1.06969 4.37016 1.45383 4.56928 1.95662 4.56928Z" transform="matrix(1.00109 0 0 -1 593.818 340.467)"/><path d="M0.657977 0.763792 1.29287 0.763792 1.29287 0 0.657977 0 0.657977 0.763792Z" transform="matrix(1.00109 0 0 -1 597.739 340.467)"/><path d="M0.664711 4.48848 3.04843 4.48848 3.04843 3.97672 1.22072 3.97672 1.22072 2.87721C1.30858 2.90734 1.39644 2.9298 1.4843 2.94454 1.5728 2.95929 1.6613 2.96667 1.7498 2.96667 2.25066 2.96667 2.6473 2.82943 2.93973 2.55495 3.23281 2.28048 3.37935 1.90884 3.37935 1.44005 3.37935 0.957145 3.22896 0.581662 2.92819 0.313597 2.62742 0.0461738 2.20352-0.0875379 1.65649-0.0875379 1.46794-0.0875379 1.27587-0.0715053 1.08028-0.0394401 0.885319-0.00737499 0.683629 0.0407227 0.475206 0.104853L0.475206 0.715694C0.655411 0.617575 0.84171 0.544466 1.0341 0.496369 1.22649 0.448271 1.42978 0.424222 1.64398 0.424222 1.99093 0.424222 2.2654 0.515287 2.46741 0.697417 2.67007 0.879547 2.77139 1.12709 2.77139 1.44005 2.77139 1.75236 2.67007 1.99959 2.46741 2.18171 2.2654 2.36448 1.99093 2.45587 1.64398 2.45587 1.48173 2.45587 1.3198 2.43791 1.15819 2.402 0.99723 2.36609 0.832732 2.30997 0.664711 2.23366L0.664711 4.48848Z" transform="matrix(1.00109 0 0 -1 599.698 340.467)"/><path d="M0 0 0 2.15478" stroke="#000000" stroke-width="0.492521" stroke-linejoin="round" fill="none" transform="matrix(1.00109 0 0 1 632.888 331.48)"/><path d="M0.763792 0.510798 1.75557 0.510798 1.75557 3.93536 0.676254 3.71892 0.676254 4.27204 1.7498 4.48848 2.35679 4.48848 2.35679 0.510798 3.34856 0.510798 3.34856 0 0.763792 0 0.763792 0.510798Z" transform="matrix(1.00109 0 0 -1 627.987 340.467)"/><path d="M0.657977 0.763792 1.29287 0.763792 1.29287 0 0.657977 0 0.657977 0.763792Z" transform="matrix(1.00109 0 0 -1 631.908 340.467)"/><path d="M1.95662 4.08831C1.6443 4.08831 1.40926 3.93439 1.2515 3.62657 1.09439 3.31939 1.01582 2.85701 1.01582 2.23943 1.01582 1.62442 1.09439 1.163 1.2515 0.855178 1.40926 0.547352 1.6443 0.393439 1.95662 0.393439 2.27149 0.393439 2.5075 0.547352 2.66461 0.855178 2.82237 1.163 2.90126 1.62442 2.90126 2.23943 2.90126 2.85701 2.82237 3.31939 2.66461 3.62657 2.5075 3.93439 2.27149 4.08831 1.95662 4.08831ZM1.95662 4.56928C2.46004 4.56928 2.8445 4.37016 3.11 3.97191 3.3755 3.57431 3.50825 2.99681 3.50825 2.23943 3.50825 1.48398 3.3755 0.907123 3.11 0.508874 2.8445 0.111266 2.46004-0.0875379 1.95662-0.0875379 1.45383-0.0875379 1.06969 0.111266 0.804194 0.508874 0.538695 0.907123 0.405945 1.48398 0.405945 2.23943 0.405945 2.99681 0.538695 3.57431 0.804194 3.97191 1.06969 4.37016 1.45383 4.56928 1.95662 4.56928Z" transform="matrix(1.00109 0 0 -1 633.867 340.467)"/><path d="M0.838824 0.207782 0.550238-1.28036-0.00577173-1.28036 0.892694 3.34568C1.07097 4.25954 1.58723 4.71646 2.44144 4.71646 3.3072 4.71646 3.66665 4.33072 3.51979 3.55923 3.41975 3.01027 3.17445 2.63544 2.7839 2.43471 3.30912 2.2545 3.52044 1.89697 3.41782 1.36213 3.23762 0.409793 2.66237-0.0654129 1.69208-0.063489 1.26754-0.0615651 0.983118 0.0288586 0.838824 0.207782ZM0.980232 0.929248C1.13414 0.580379 1.40862 0.406907 1.80366 0.408831 2.38084 0.408831 2.73067 0.72339 2.85316 1.35251 2.96346 1.91814 2.5495 2.17883 1.61127 2.13458L1.71036 2.64538C2.43567 2.63319 2.8615 2.95385 2.98783 3.60733 3.07441 4.04855 2.88298 4.26788 2.41354 4.26531 1.88896 4.26531 1.56638 3.95267 1.44582 3.3274L0.980232 0.929248Z" transform="matrix(1.00109 0 0 -1 561.099 348.927)"/><path d="M0.534654 0.357559 1.2289 0.357559 1.2289 2.75475 0.473378 2.60324 0.473378 2.99043 1.22486 3.14194 1.64975 3.14194 1.64975 0.357559 2.344 0.357559 2.344 0 0.534654 0 0.534654 0.357559Z" transform="matrix(1.00109 0 0 -1 565.032 349.937)"/><path d="M0 0-2.15478 0" stroke="#000000" stroke-width="0.492521" stroke-linejoin="round" fill="none" transform="matrix(1.00109 0 0 1 482.545 317.827)"/><path d="M0.652205 2.18556 4.5058 2.18556 4.5058 1.67476 0.652205 1.67476 0.652205 2.18556Z" transform="matrix(1.00109 0 0 -1 463.265 320.166)"/><path d="M0.763792 0.510798 1.75557 0.510798 1.75557 3.93536 0.676254 3.71892 0.676254 4.27204 1.7498 4.48848 2.35679 4.48848 2.35679 0.510798 3.34856 0.510798 3.34856 0 0.763792 0 0.763792 0.510798Z" transform="matrix(1.00109 0 0 -1 468.429 320.166)"/><path d="M0.657977 0.763792 1.29287 0.763792 1.29287 0 0.657977 0 0.657977 0.763792Z" transform="matrix(1.00109 0 0 -1 472.35 320.166)"/><path d="M1.95662 4.08831C1.6443 4.08831 1.40926 3.93439 1.2515 3.62657 1.09439 3.31939 1.01582 2.85701 1.01582 2.23943 1.01582 1.62442 1.09439 1.163 1.2515 0.855178 1.40926 0.547352 1.6443 0.393439 1.95662 0.393439 2.27149 0.393439 2.5075 0.547352 2.66461 0.855178 2.82237 1.163 2.90126 1.62442 2.90126 2.23943 2.90126 2.85701 2.82237 3.31939 2.66461 3.62657 2.5075 3.93439 2.27149 4.08831 1.95662 4.08831ZM1.95662 4.56928C2.46004 4.56928 2.8445 4.37016 3.11 3.97191 3.3755 3.57431 3.50825 2.99681 3.50825 2.23943 3.50825 1.48398 3.3755 0.907123 3.11 0.508874 2.8445 0.111266 2.46004-0.0875379 1.95662-0.0875379 1.45383-0.0875379 1.06969 0.111266 0.804194 0.508874 0.538695 0.907123 0.405945 1.48398 0.405945 2.23943 0.405945 2.99681 0.538695 3.57431 0.804194 3.97191 1.06969 4.37016 1.45383 4.56928 1.95662 4.56928Z" transform="matrix(1.00109 0 0 -1 474.309 320.166)"/><path d="M0 0-2.15478 0" stroke="#000000" stroke-width="0.492521" stroke-linejoin="round" fill="none" transform="matrix(1.00109 0 0 1 482.545 283.696)"/><path d="M0.652205 2.18556 4.5058 2.18556 4.5058 1.67476 0.652205 1.67476 0.652205 2.18556Z" transform="matrix(1.00109 0 0 -1 463.265 286.034)"/><path d="M1.95662 4.08831C1.6443 4.08831 1.40926 3.93439 1.2515 3.62657 1.09439 3.31939 1.01582 2.85701 1.01582 2.23943 1.01582 1.62442 1.09439 1.163 1.2515 0.855178 1.40926 0.547352 1.6443 0.393439 1.95662 0.393439 2.27149 0.393439 2.5075 0.547352 2.66461 0.855178 2.82237 1.163 2.90126 1.62442 2.90126 2.23943 2.90126 2.85701 2.82237 3.31939 2.66461 3.62657 2.5075 3.93439 2.27149 4.08831 1.95662 4.08831ZM1.95662 4.56928C2.46004 4.56928 2.8445 4.37016 3.11 3.97191 3.3755 3.57431 3.50825 2.99681 3.50825 2.23943 3.50825 1.48398 3.3755 0.907123 3.11 0.508874 2.8445 0.111266 2.46004-0.0875379 1.95662-0.0875379 1.45383-0.0875379 1.06969 0.111266 0.804194 0.508874 0.538695 0.907123 0.405945 1.48398 0.405945 2.23943 0.405945 2.99681 0.538695 3.57431 0.804194 3.97191 1.06969 4.37016 1.45383 4.56928 1.95662 4.56928Z" transform="matrix(1.00109 0 0 -1 468.429 286.034)"/><path d="M0.657977 0.763792 1.29287 0.763792 1.29287 0 0.657977 0 0.657977 0.763792Z" transform="matrix(1.00109 0 0 -1 472.35 286.034)"/><path d="M0.664711 4.48848 3.04843 4.48848 3.04843 3.97672 1.22072 3.97672 1.22072 2.87721C1.30858 2.90734 1.39644 2.9298 1.4843 2.94454 1.5728 2.95929 1.6613 2.96667 1.7498 2.96667 2.25066 2.96667 2.6473 2.82943 2.93973 2.55495 3.23281 2.28048 3.37935 1.90884 3.37935 1.44005 3.37935 0.957145 3.22896 0.581662 2.92819 0.313597 2.62742 0.0461738 2.20352-0.0875379 1.65649-0.0875379 1.46794-0.0875379 1.27587-0.0715053 1.08028-0.0394401 0.885319-0.00737499 0.683629 0.0407227 0.475206 0.104853L0.475206 0.715694C0.655411 0.617575 0.84171 0.544466 1.0341 0.496369 1.22649 0.448271 1.42978 0.424222 1.64398 0.424222 1.99093 0.424222 2.2654 0.515287 2.46741 0.697417 2.67007 0.879547 2.77139 1.12709 2.77139 1.44005 2.77139 1.75236 2.67007 1.99959 2.46741 2.18171 2.2654 2.36448 1.99093 2.45587 1.64398 2.45587 1.48173 2.45587 1.3198 2.43791 1.15819 2.402 0.99723 2.36609 0.832732 2.30997 0.664711 2.23366L0.664711 4.48848Z" transform="matrix(1.00109 0 0 -1 474.309 286.034)"/><path d="M0 0-2.15478 0" stroke="#000000" stroke-width="0.492521" stroke-linejoin="round" fill="none" transform="matrix(1.00109 0 0 1 482.545 249.564)"/><path d="M1.95662 4.08831C1.6443 4.08831 1.40926 3.93439 1.2515 3.62657 1.09439 3.31939 1.01582 2.85701 1.01582 2.23943 1.01582 1.62442 1.09439 1.163 1.2515 0.855178 1.40926 0.547352 1.6443 0.393439 1.95662 0.393439 2.27149 0.393439 2.5075 0.547352 2.66461 0.855178 2.82237 1.163 2.90126 1.62442 2.90126 2.23943 2.90126 2.85701 2.82237 3.31939 2.66461 3.62657 2.5075 3.93439 2.27149 4.08831 1.95662 4.08831ZM1.95662 4.56928C2.46004 4.56928 2.8445 4.37016 3.11 3.97191 3.3755 3.57431 3.50825 2.99681 3.50825 2.23943 3.50825 1.48398 3.3755 0.907123 3.11 0.508874 2.8445 0.111266 2.46004-0.0875379 1.95662-0.0875379 1.45383-0.0875379 1.06969 0.111266 0.804194 0.508874 0.538695 0.907123 0.405945 1.48398 0.405945 2.23943 0.405945 2.99681 0.538695 3.57431 0.804194 3.97191 1.06969 4.37016 1.45383 4.56928 1.95662 4.56928Z" transform="matrix(1.00109 0 0 -1 468.429 251.903)"/><path d="M0.657977 0.763792 1.29287 0.763792 1.29287 0 0.657977 0 0.657977 0.763792Z" transform="matrix(1.00109 0 0 -1 472.351 251.903)"/><path d="M1.95662 4.08831C1.6443 4.08831 1.40926 3.93439 1.2515 3.62657 1.09439 3.31939 1.01582 2.85701 1.01582 2.23943 1.01582 1.62442 1.09439 1.163 1.2515 0.855178 1.40926 0.547352 1.6443 0.393439 1.95662 0.393439 2.27149 0.393439 2.5075 0.547352 2.66461 0.855178 2.82237 1.163 2.90126 1.62442 2.90126 2.23943 2.90126 2.85701 2.82237 3.31939 2.66461 3.62657 2.5075 3.93439 2.27149 4.08831 1.95662 4.08831ZM1.95662 4.56928C2.46004 4.56928 2.8445 4.37016 3.11 3.97191 3.3755 3.57431 3.50825 2.99681 3.50825 2.23943 3.50825 1.48398 3.3755 0.907123 3.11 0.508874 2.8445 0.111266 2.46004-0.0875379 1.95662-0.0875379 1.45383-0.0875379 1.06969 0.111266 0.804194 0.508874 0.538695 0.907123 0.405945 1.48398 0.405945 2.23943 0.405945 2.99681 0.538695 3.57431 0.804194 3.97191 1.06969 4.37016 1.45383 4.56928 1.95662 4.56928Z" transform="matrix(1.00109 0 0 -1 474.31 251.903)"/><path d="M0 0-2.15478 0" stroke="#000000" stroke-width="0.492521" stroke-linejoin="round" fill="none" transform="matrix(1.00109 0 0 1 482.545 215.432)"/><path d="M1.95662 4.08831C1.6443 4.08831 1.40926 3.93439 1.2515 3.62657 1.09439 3.31939 1.01582 2.85701 1.01582 2.23943 1.01582 1.62442 1.09439 1.163 1.2515 0.855178 1.40926 0.547352 1.6443 0.393439 1.95662 0.393439 2.27149 0.393439 2.5075 0.547352 2.66461 0.855178 2.82237 1.163 2.90126 1.62442 2.90126 2.23943 2.90126 2.85701 2.82237 3.31939 2.66461 3.62657 2.5075 3.93439 2.27149 4.08831 1.95662 4.08831ZM1.95662 4.56928C2.46004 4.56928 2.8445 4.37016 3.11 3.97191 3.3755 3.57431 3.50825 2.99681 3.50825 2.23943 3.50825 1.48398 3.3755 0.907123 3.11 0.508874 2.8445 0.111266 2.46004-0.0875379 1.95662-0.0875379 1.45383-0.0875379 1.06969 0.111266 0.804194 0.508874 0.538695 0.907123 0.405945 1.48398 0.405945 2.23943 0.405945 2.99681 0.538695 3.57431 0.804194 3.97191 1.06969 4.37016 1.45383 4.56928 1.95662 4.56928Z" transform="matrix(1.00109 0 0 -1 468.429 217.771)"/><path d="M0.657977 0.763792 1.29287 0.763792 1.29287 0 0.657977 0 0.657977 0.763792Z" transform="matrix(1.00109 0 0 -1 472.351 217.771)"/><path d="M0.664711 4.48848 3.04843 4.48848 3.04843 3.97672 1.22072 3.97672 1.22072 2.87721C1.30858 2.90734 1.39644 2.9298 1.4843 2.94454 1.5728 2.95929 1.6613 2.96667 1.7498 2.96667 2.25066 2.96667 2.6473 2.82943 2.93973 2.55495 3.23281 2.28048 3.37935 1.90884 3.37935 1.44005 3.37935 0.957145 3.22896 0.581662 2.92819 0.313597 2.62742 0.0461738 2.20352-0.0875379 1.65649-0.0875379 1.46794-0.0875379 1.27587-0.0715053 1.08028-0.0394401 0.885319-0.00737499 0.683629 0.0407227 0.475206 0.104853L0.475206 0.715694C0.655411 0.617575 0.84171 0.544466 1.0341 0.496369 1.22649 0.448271 1.42978 0.424222 1.64398 0.424222 1.99093 0.424222 2.2654 0.515287 2.46741 0.697417 2.67007 0.879547 2.77139 1.12709 2.77139 1.44005 2.77139 1.75236 2.67007 1.99959 2.46741 2.18171 2.2654 2.36448 1.99093 2.45587 1.64398 2.45587 1.48173 2.45587 1.3198 2.43791 1.15819 2.402 0.99723 2.36609 0.832732 2.30997 0.664711 2.23366L0.664711 4.48848Z" transform="matrix(1.00109 0 0 -1 474.31 217.771)"/><path d="M0 0-2.15478 0" stroke="#000000" stroke-width="0.492521" stroke-linejoin="round" fill="none" transform="matrix(1.00109 0 0 1 482.545 181.3)"/><path d="M0.763792 0.510798 1.75557 0.510798 1.75557 3.93536 0.676254 3.71892 0.676254 4.27204 1.7498 4.48848 2.35679 4.48848 2.35679 0.510798 3.34856 0.510798 3.34856 0 0.763792 0 0.763792 0.510798Z" transform="matrix(1.00109 0 0 -1 468.429 183.639)"/><path d="M0.657977 0.763792 1.29287 0.763792 1.29287 0 0.657977 0 0.657977 0.763792Z" transform="matrix(1.00109 0 0 -1 472.351 183.639)"/><path d="M1.95662 4.08831C1.6443 4.08831 1.40926 3.93439 1.2515 3.62657 1.09439 3.31939 1.01582 2.85701 1.01582 2.23943 1.01582 1.62442 1.09439 1.163 1.2515 0.855178 1.40926 0.547352 1.6443 0.393439 1.95662 0.393439 2.27149 0.393439 2.5075 0.547352 2.66461 0.855178 2.82237 1.163 2.90126 1.62442 2.90126 2.23943 2.90126 2.85701 2.82237 3.31939 2.66461 3.62657 2.5075 3.93439 2.27149 4.08831 1.95662 4.08831ZM1.95662 4.56928C2.46004 4.56928 2.8445 4.37016 3.11 3.97191 3.3755 3.57431 3.50825 2.99681 3.50825 2.23943 3.50825 1.48398 3.3755 0.907123 3.11 0.508874 2.8445 0.111266 2.46004-0.0875379 1.95662-0.0875379 1.45383-0.0875379 1.06969 0.111266 0.804194 0.508874 0.538695 0.907123 0.405945 1.48398 0.405945 2.23943 0.405945 2.99681 0.538695 3.57431 0.804194 3.97191 1.06969 4.37016 1.45383 4.56928 1.95662 4.56928Z" transform="matrix(1.00109 0 0 -1 474.31 183.639)"/><path d="M0.838824 0.207782 0.550238-1.28036-0.00577173-1.28036 0.892694 3.34568C1.07097 4.25954 1.58723 4.71646 2.44144 4.71646 3.3072 4.71646 3.66665 4.33072 3.51979 3.55923 3.41975 3.01027 3.17445 2.63544 2.7839 2.43471 3.30912 2.2545 3.52044 1.89697 3.41782 1.36213 3.23762 0.409793 2.66237-0.0654129 1.69208-0.063489 1.26754-0.0615651 0.983118 0.0288586 0.838824 0.207782ZM0.980232 0.929248C1.13414 0.580379 1.40862 0.406907 1.80366 0.408831 2.38084 0.408831 2.73067 0.72339 2.85316 1.35251 2.96346 1.91814 2.5495 2.17883 1.61127 2.13458L1.71036 2.64538C2.43567 2.63319 2.8615 2.95385 2.98783 3.60733 3.07441 4.04855 2.88298 4.26788 2.41354 4.26531 1.88896 4.26531 1.56638 3.95267 1.44582 3.3274L0.980232 0.929248Z" transform="matrix(6.12988e-17 -1 -1.00109 -6.12323e-17 459.481 253.011)"/><path d="M0.826896 0.357559 2.31033 0.357559 2.31033 0 0.31581 0 0.31581 0.357559C0.476969 0.524554 0.696714 0.748563 0.975037 1.02958 1.25381 1.31105 1.42889 1.49264 1.50026 1.57434 1.63628 1.72697 1.73123 1.85625 1.7851 1.9622 1.83942 2.06814 1.86658 2.17229 1.86658 2.27464 1.86658 2.44163 1.80799 2.57765 1.69083 2.6827 1.57366 2.7882 1.42103 2.84094 1.23294 2.84094 1.09961 2.84094 0.958876 2.81782 0.810735 2.77158 0.663043 2.72534 0.505026 2.65509 0.336684 2.56082L0.336684 2.99043C0.50772 3.05911 0.667532 3.11096 0.816122 3.14598 0.965159 3.18099 1.10141 3.1985 1.22486 3.1985 1.55032 3.1985 1.80979 3.11702 2.00327 2.95407 2.19675 2.79156 2.29349 2.57429 2.29349 2.30225 2.29349 2.17296 2.26925 2.05041 2.22077 1.93459 2.17274 1.81922 2.08475 1.68297 1.95681 1.52585 1.92179 1.485 1.81024 1.36739 1.62214 1.17301 1.4345 0.978626 1.16942 0.706815 0.826896 0.357559Z" transform="matrix(6.12988e-17 -1 -1.00109 -6.12323e-17 460.492 249.083)"/><g><path d="M201.554 107.561 194.017 107.842 190.081 108.106 185.773 108.514 181.717 109.053 178.233 109.662 174.993 110.386 172.206 111.156 169.745 111.978 167.45 112.889 165.481 113.806 163.514 114.872 161.874 115.899 160.234 117.078 158.693 118.354 157.282 119.695 155.955 121.142 154.651 122.782 153.51 124.438 152.442 126.226 151.429 128.194 150.557 130.162 149.688 132.458 148.905 134.917 148.169 137.706 147.535 140.658 146.971 143.937 146.53 147.218 146.128 151.153 145.77 156.401 145.542 162.305 145.474 164.708 145.31 164.708 145.007 156.237 144.735 152.137 144.326 147.83 143.788 143.774 143.178 140.289 142.455 137.049 141.684 134.262 140.863 131.802 139.951 129.506 139.035 127.538 137.968 125.57 136.941 123.93 135.762 122.29 134.486 120.749 133.146 119.338 131.698 118.011 130.059 116.707 128.403 115.566 126.615 114.498 124.647 113.485 122.679 112.613 120.383 111.744 117.923 110.961 115.135 110.226 112.183 109.591 108.903 109.027 105.623 108.587 101.687 108.185 96.4393 107.826 90.5352 107.599 88.1323 107.53 88.1323 107.366 96.603 107.063 100.703 106.791 105.011 106.383 109.067 105.844 112.551 105.234 115.791 104.511 118.579 103.74 121.039 102.919 123.335 102.007 125.303 101.091 127.27 100.024 128.911 98.9973 130.551 97.8183 132.092 96.5427 133.503 95.2018 134.829 93.7544 136.133 92.1149 137.274 90.4588 138.342 88.671 139.356 86.7027 140.227 84.7351 141.096 82.4388 141.879 79.9792 142.615 77.1909 143.25 74.2389 143.813 70.9593 144.254 67.6791 144.656 63.7433 145.015 58.4955 145.242 52.5916 145.31 50.1887 145.474 50.1887 145.778 58.6595 146.05 62.7595 146.458 67.0672 146.997 71.1231 147.606 74.6077 148.329 77.8472 149.1 80.6349 149.921 83.095 150.833 85.3908 151.749 87.359 152.816 89.3267 153.843 90.9668 155.022 92.6068 156.298 94.1478 157.639 95.5589 159.086 96.8856 160.726 98.1896 162.382 99.3304 164.169 100.399 166.138 101.412 168.105 102.284 170.402 103.152 172.861 103.935 175.65 104.671 178.602 105.306 181.881 105.869 185.161 106.31 189.097 106.712 193.348 107.017 193.348 107.017" stroke="#0000FF" stroke-width="0.923477" stroke-linejoin="round" fill="none" transform="matrix(1.00109 0 0 1 419 142.116)"/></g><g><path d="M117.499 91.655 119.907 89.6548 122.351 87.4434 124.647 85.1796 126.892 82.7669 128.992 80.3067 130.92 77.8472 132.846 75.163 134.65 72.4036 136.29 69.6431 137.789 66.8591 139.219 63.9077 140.428 61.1194 141.562 58.1675 142.604 55.0516 143.447 52.0997 144.115 49.3117 144.657 46.5238 145.101 43.4078 145.31 41.1859 145.474 41.1859 145.85 44.7198 146.335 47.6718 147.007 50.7877 147.788 53.7396 148.764 56.8556 149.902 59.9815 151.123 62.9232 152.42 65.7115 153.86 68.4992 155.478 71.3312 157.206 74.0751 159.018 76.699 160.89 79.182 162.89 81.6187 165.089 84.0788 167.325 86.3746 169.582 88.5066 172.041 90.6429 174.505 92.6068 177.125 94.5209 179.749 96.273 182.537 97.9686 185.325 99.5058 188.277 100.972 191.234 102.282 194.345 103.5 197.297 104.506 200.249 105.373 203.037 106.063 206.153 106.684 208.613 107.058 211.655 107.366 211.655 107.53 208.121 107.906 205.169 108.392 202.053 109.063 199.101 109.844 195.985 110.82 192.859 111.958 189.917 113.179 187.129 114.476 184.341 115.916 181.509 117.534 178.765 119.263 176.141 121.075 173.659 122.946 171.222 124.946 168.762 127.145 166.466 129.382 164.334 131.639 162.198 134.097 160.234 136.561 158.32 139.181 156.567 141.805 154.872 144.594 153.335 147.381 151.869 150.333 150.558 153.29 149.341 156.401 148.334 159.353 147.467 162.305 146.777 165.093 146.156 168.209 145.782 170.669 145.474 173.711 145.31 173.711 144.935 170.177 144.449 167.225 143.777 164.109 142.997 161.157 142.02 158.041 140.883 154.915 139.661 151.973 138.364 149.185 136.924 146.398 135.307 143.566 133.578 140.822 131.766 138.198 129.894 135.715 127.895 133.278 125.696 130.818 123.459 128.522 121.202 126.39 118.743 124.254 116.279 122.29 113.659 120.376 111.035 118.624 108.247 116.928 105.459 115.391 102.507 113.925 99.5502 112.614 96.4393 111.397 93.4872 110.391 90.5352 109.524 87.7475 108.834 84.6317 108.212 82.1716 107.839 79.1296 107.53 79.1296 107.366 82.6635 106.991 85.6155 106.505 88.7313 105.833 91.6834 105.053 94.7992 104.076 97.9254 102.939 100.867 101.717 103.655 100.421 106.443 98.9807 108.078 98.0658 108.078 98.0658" stroke="#008000" stroke-width="0.923477" stroke-linejoin="round" fill="none" transform="matrix(1.00109 0 0 1 419 142.116)"/></g><g><path d="M84.7561 115.076 77.2106 107.53 77.2519 107.325 145.31 39.267 145.515 39.308 213.574 107.366 213.532 107.571 145.474 175.63 145.269 175.589 89.7551 120.075 89.7551 120.075" stroke="#FF0000" stroke-width="0.923477" stroke-linejoin="round" fill="none" transform="matrix(1.00109 0 0 1 419 142.116)"/></g><g><path d="M110.476 166.106 107.919 164.507 105.437 162.797 102.999 160.953 100.674 159.025 98.4075 156.969 96.2755 154.855 94.2205 152.629 92.2812 150.333 90.3714 147.854 88.5676 145.275 86.989 142.79 85.4517 140.114 84.0394 137.378 82.7564 134.59 81.6206 131.802 80.5702 128.85 79.6689 125.898 78.892 122.862 78.2917 119.994 77.806 117.042 77.4366 113.926 77.2119 110.81 77.1294 107.695 77.1891 104.578 77.3916 101.462 77.7383 98.3466 78.2012 95.3945 78.7984 92.4425 79.5477 89.4375 80.4102 86.539 81.4352 83.5869 82.5453 80.7993 83.8116 77.9913 85.2141 75.2233 86.6941 72.5994 88.3336 69.9755 90.0433 67.4932 91.8878 65.0552 93.8154 62.7299 95.8716 60.4635 97.9852 58.3315 100.211 56.2764 102.507 54.3375 104.986 52.4277 107.566 50.6237 110.051 49.0455 112.727 47.5078 115.463 46.0959 118.251 44.8126 121.039 43.6769 123.991 42.6266 126.942 41.7254 129.979 40.9479 132.846 40.3477 135.798 39.8625 138.914 39.493 142.03 39.2678 145.146 39.1854 148.262 39.2453 151.378 39.4479 154.494 39.7944 157.446 40.2576 160.398 40.8547 163.403 41.6039 166.301 42.4662 169.254 43.4912 172.041 44.6017 174.849 45.8678 177.617 47.2701 180.241 48.7506 182.865 50.39 185.347 52.0997 187.785 53.944 190.111 55.8716 192.377 57.9276 194.509 60.0414 196.564 62.2676 198.503 64.5633 200.413 67.0425 202.217 69.6221 203.795 72.1069 205.333 74.7831 206.745 77.5191 208.028 80.3067 209.164 83.095 210.214 86.0471 211.115 88.9985 211.892 92.0349 212.493 94.9026 212.978 97.8547 213.348 100.97 213.572 104.086 213.655 107.202 213.595 110.319 213.393 113.434 213.046 116.55 212.583 119.502 211.986 122.454 211.237 125.459 210.374 128.358 209.349 131.31 208.239 134.097 206.973 136.905 205.57 139.673 204.09 142.297 202.451 144.921 200.741 147.403 198.897 149.841 196.969 152.167 194.913 154.433 192.799 156.565 190.573 158.62 188.277 160.559 185.798 162.469 183.219 164.273 180.734 165.851 178.057 167.389 175.321 168.801 172.534 170.084 169.745 171.22 166.793 172.27 163.842 173.172 160.806 173.949 157.938 174.549 154.986 175.034 151.87 175.404 148.754 175.629 145.638 175.711 142.522 175.651 139.406 175.449 136.29 175.102 133.338 174.639 130.386 174.042 127.381 173.293 124.483 172.43 121.531 171.405 118.743 170.295 116.231 169.17 116.231 169.17" stroke="#00BFBF" stroke-width="0.923477" stroke-linejoin="round" fill="none" transform="matrix(1.00109 0 0 1 419 142.116)"/></g><g><path d="M147.915 39.185 162.53 39.2529 168.762 39.4206 173.518 39.6822 177.453 40.031 180.897 40.4697 184.013 41.005 186.801 41.6233 189.261 42.3029 191.572 43.0799 193.689 43.9341 195.675 44.8838 197.461 45.8853 199.19 47.0158 200.741 48.1916 202.217 49.4851 203.529 50.8094 204.841 52.3378 206.002 53.9036 207.136 55.6835 208.121 57.4857 208.978 59.3155 209.826 61.4474 210.587 63.7433 211.258 66.2034 211.868 68.9911 212.385 72.0367 212.792 75.2233 213.135 78.9948 213.392 83.4232 213.561 88.8347 213.643 96.2146 213.654 114.254 213.577 125.242 213.399 131.31 213.135 135.902 212.774 139.838 212.321 143.282 211.803 146.233 211.176 149.021 210.487 151.482 209.705 153.777 208.834 155.909 207.881 157.877 206.855 159.681 205.772 161.321 204.649 162.797 203.356 164.273 202.031 165.585 200.503 166.897 198.937 168.058 197.157 169.193 195.355 170.177 193.525 171.034 191.393 171.882 189.097 172.643 186.637 173.314 183.849 173.924 180.804 174.441 177.617 174.848 173.846 175.191 169.417 175.448 164.006 175.617 156.626 175.699 138.586 175.71 127.599 175.633 121.531 175.456 116.939 175.191 113.003 174.83 109.559 174.378 106.607 173.859 103.819 173.232 101.359 172.544 99.0632 171.761 96.9312 170.89 94.9635 169.937 93.1591 168.911 91.5196 167.828 90.0433 166.705 88.5676 165.412 87.2556 164.087 85.9437 162.559 84.7825 160.993 83.6479 159.213 82.6635 157.411 81.8065 155.581 80.9581 153.449 80.1972 151.153 79.5267 148.693 78.9166 145.906 78.3995 142.861 77.9925 139.673 77.6496 135.902 77.3923 131.474 77.2236 126.062 77.1411 118.682 77.1306 100.642 77.2076 89.6548 77.3849 83.5869 77.6496 78.9948 78.0104 75.0589 78.4629 71.615 78.9813 68.6636 79.608 65.8753 80.2969 63.4151 81.0794 61.1194 81.9505 58.9875 82.9036 57.0195 83.9292 55.2156 85.0122 53.5756 86.1357 52.0997 87.4286 50.6237 88.7535 49.3117 90.2815 47.9997 91.8471 46.8389 93.6276 45.7038 95.4296 44.7198 97.2593 43.8625 99.3913 43.0146 101.687 42.2532 104.147 41.5827 106.935 40.9731 109.981 40.4559 113.167 40.0488 116.939 39.706 121.367 39.4483 126.779 39.2795 134.158 39.1975 141.722 39.1851 141.722 39.1851" stroke="#BF00BF" stroke-width="0.923477" stroke-linejoin="round" fill="none" transform="matrix(1.00109 0 0 1 419 142.116)"/></g><g><path d="M208.583 39.185 213.532 39.185 213.656 39.308 213.656 175.589 213.532 175.712 77.2519 175.712 77.1288 175.589 77.1288 39.308 77.2519 39.185 199.459 39.185 199.459 39.185" stroke="#BFBF00" stroke-width="0.923477" stroke-linejoin="round" fill="none" transform="matrix(1.00109 0 0 1 419 142.116)"/></g><path d="M63.4761 189.364 63.4761 25.5323" stroke="#000000" stroke-width="0.492521" stroke-linecap="square" fill="none" transform="matrix(1.00109 0 0 1 419 142.116)"/><path d="M227.308 189.364 227.308 25.5323" stroke="#000000" stroke-width="0.492521" stroke-linecap="square" fill="none" transform="matrix(1.00109 0 0 1 419 142.116)"/><path d="M63.4761 189.364 227.308 189.364" stroke="#000000" stroke-width="0.492521" stroke-linecap="square" fill="none" transform="matrix(1.00109 0 0 1 419 142.116)"/><path d="M63.4761 25.5323 227.308 25.5323" stroke="#000000" stroke-width="0.492521" stroke-linecap="square" fill="none" transform="matrix(1.00109 0 0 1 419 142.116)"/><g><path d="M1.95662 4.08831C1.6443 4.08831 1.40926 3.9344 1.2515 3.62657 1.09439 3.31939 1.01583 2.85701 1.01583 2.23943 1.01583 1.62443 1.09439 1.163 1.2515 0.855178 1.40926 0.547353 1.6443 0.39344 1.95662 0.39344 2.27149 0.39344 2.5075 0.547353 2.66462 0.855178 2.82238 1.163 2.90126 1.62443 2.90126 2.23943 2.90126 2.85701 2.82238 3.31939 2.66462 3.62657 2.5075 3.9344 2.27149 4.08831 1.95662 4.08831ZM1.95662 4.56929C2.46004 4.56929 2.8445 4.37016 3.11 3.97191 3.3755 3.57431 3.50825 2.99681 3.50825 2.23943 3.50825 1.48398 3.3755 0.907124 3.11 0.508874 2.8445 0.111267 2.46004-0.087538 1.95662-0.087538 1.45383-0.087538 1.06969 0.111267 0.804195 0.508874 0.538695 0.907124 0.405945 1.48398 0.405945 2.23943 0.405945 2.99681 0.538695 3.57431 0.804195 3.97191 1.06969 4.37016 1.45383 4.56929 1.95662 4.56929Z" fill="#0000FF" transform="matrix(1.00075 0.0258876 0.0259157 -0.999664 612.881 250.937)"/><path d="M0.657978 0.763793 1.29287 0.763793 1.29287 0 0.657978 0 0.657978 0.763793Z" fill="#0000FF" transform="matrix(1.00075 0.0258876 0.0259157 -0.999664 616.801 251.038)"/><path d="M2.32697 3.95941 0.793613 1.56318 2.32697 1.56318 2.32697 3.95941ZM2.16729 4.48848 2.93108 4.48848 2.93108 1.56318 3.57174 1.56318 3.57174 1.05815 2.93108 1.05815 2.93108 0 2.32697 0 2.32697 1.05815 0.301092 1.05815 0.301092 1.64398 2.16729 4.48848Z" fill="#0000FF" transform="matrix(1.00075 0.0258876 0.0259157 -0.999664 618.76 251.089)"/></g><g><path d="M1.95705 4.08921C1.64466 4.08921 1.40958 3.93527 1.25178 3.62737 1.09463 3.32012 1.01605 2.85764 1.01605 2.23993 1.01605 1.62478 1.09463 1.16326 1.25178 0.855367 1.40958 0.547473 1.64466 0.393527 1.95705 0.393527 2.272 0.393527 2.50805 0.547473 2.6652 0.855367 2.823 1.16326 2.9019 1.62478 2.9019 2.23993 2.9019 2.85764 2.823 3.32012 2.6652 3.62737 2.50805 3.93527 2.272 4.08921 1.95705 4.08921ZM1.95705 4.5703C2.46058 4.5703 2.84513 4.37113 3.11069 3.97279 3.37625 3.5751 3.50903 2.99747 3.50903 2.23993 3.50903 1.48431 3.37625 0.907324 3.11069 0.508987 2.84513 0.111291 2.46058-0.0875573 1.95705-0.0875573 1.45415-0.0875573 1.06993 0.111291 0.804372 0.508987 0.538814 0.907324 0.406035 1.48431 0.406035 2.23993 0.406035 2.99747 0.538814 3.5751 0.804372 3.97279 1.06993 4.37113 1.45415 4.5703 1.95705 4.5703Z" fill="#008000" transform="matrix(0.892793 -0.451892 -0.452383 -0.891824 528.386 240.91)"/><path d="M0.658123 0.763961 1.29315 0.763961 1.29315 0 0.658123 0 0.658123 0.763961Z" fill="#008000" transform="matrix(0.892793 -0.451892 -0.452383 -0.891824 531.884 239.14)"/><path d="M2.03306 2.48624C1.76045 2.48624 1.54428 2.39291 1.38456 2.20625 1.22548 2.02023 1.14594 1.76493 1.14594 1.44037 1.14594 1.11772 1.22548 0.862423 1.38456 0.67448 1.54428 0.487177 1.76045 0.393527 2.03306 0.393527 2.30567 0.393527 2.52152 0.487177 2.6806 0.67448 2.83967 0.862423 2.91922 1.11772 2.91922 1.44037 2.91922 1.76493 2.83967 2.02023 2.6806 2.20625 2.52152 2.39291 2.30567 2.48624 2.03306 2.48624ZM3.23866 4.39037 3.23866 3.83713C3.08599 3.90897 2.93204 3.96381 2.77682 4.00166 2.62159 4.04014 2.46764 4.05939 2.31498 4.05939 1.91407 4.05939 1.60778 3.92404 1.39611 3.65335 1.18507 3.38266 1.06447 2.97374 1.03433 2.42659 1.15236 2.60106 1.30053 2.7348 1.47885 2.82781 1.65781 2.92082 1.85441 2.96733 2.06866 2.96733 2.5196 2.96733 2.87592 2.83038 3.13763 2.55648 3.39934 2.28322 3.53019 1.91118 3.53019 1.44037 3.53019 0.979169 3.39388 0.609052 3.12127 0.330024 2.84866 0.0516364 2.48592-0.0875573 2.03306-0.0875573 1.51349-0.0875573 1.11643 0.111291 0.841897 0.508987 0.567359 0.907324 0.430089 1.48431 0.430089 2.23993 0.430089 2.94936 0.598468 3.51512 0.935227 3.93719 1.27199 4.35926 1.72389 4.5703 2.29092 4.5703 2.44359 4.5703 2.59754 4.55522 2.75276 4.52507 2.90799 4.49493 3.06996 4.45003 3.23866 4.39037Z" fill="#008000" transform="matrix(0.892793 -0.451892 -0.452383 -0.891824 533.632 238.255)"/></g><g><path d="M0.764088 0.510996 1.75625 0.510996 1.75625 3.93688 0.676516 3.72036 0.676516 4.2737 1.75047 4.49022 2.3577 4.49022 2.3577 0.510996 3.34986 0.510996 3.34986 0 0.764088 0 0.764088 0.510996Z" fill="#FF0000" transform="matrix(0.802419 0.597282 0.597931 -0.801548 503.762 259.883)"/></g><g><path d="M1.18145 0.510873 3.30095 0.510873 3.30095 0 0.451223 0 0.451223 0.510873C0.681484 0.749473 0.995452 1.06953 1.39311 1.47104 1.79142 1.8732 2.04157 2.13265 2.14355 2.24938 2.33789 2.46746 2.47355 2.65218 2.55052 2.80355 2.62813 2.95491 2.66693 3.10372 2.66693 3.24996 2.66693 3.48856 2.58323 3.6829 2.41582 3.83299 2.24842 3.98372 2.03034 4.05908 1.7616 4.05908 1.5711 4.05908 1.37002 4.02605 1.15836 3.95999 0.947344 3.89392 0.721572 3.79354 0.481048 3.65885L0.481048 4.27267C0.72542 4.3708 0.953757 4.44488 1.16606 4.49491 1.379 4.54494 1.57367 4.56996 1.75005 4.56996 2.21506 4.56996 2.5858 4.45354 2.86224 4.22071 3.13867 3.98853 3.2769 3.67809 3.2769 3.28941 3.2769 3.10468 3.24226 2.92958 3.17299 2.7641 3.10437 2.59927 2.97865 2.4046 2.79585 2.18011 2.74582 2.12174 2.58643 1.9537 2.31769 1.67597 2.04958 1.39824 1.67084 1.00988 1.18145 0.510873Z" fill="#00BFBF" transform="matrix(0.930476 0.368507 0.368907 -0.929467 530.005 310.687)"/></g><g><path d="M2.32697 3.95941 0.793613 1.56318 2.32697 1.56318 2.32697 3.95941ZM2.16728 4.48848 2.93108 4.48848 2.93108 1.56318 3.57174 1.56318 3.57174 1.05815 2.93108 1.05815 2.93108 0 2.32697 0 2.32697 1.05815 0.301092 1.05815 0.301092 1.64398 2.16728 4.48848Z" fill="#BF00BF" transform="matrix(1.00109 -3.26377e-06 -3.26731e-06 -1 562.014 182.999)"/></g><g><path d="M0.580059 3.36684 1.13318 3.36684 1.13318 0 0.580059 0 0.580059 3.36684ZM0.580059 4.67799 1.13318 4.67799 1.13318 3.97672 0.580059 3.97672 0.580059 4.67799Z" fill="#BFBF00" transform="matrix(1.00109 0 0 -1 619.348 182.999)"/><path d="M3.37935 2.03261 3.37935 0 2.82622 0 2.82622 2.01433C2.82622 2.33306 2.76401 2.5713 2.6396 2.72907 2.51519 2.88747 2.32889 2.96667 2.08071 2.96667 1.78186 2.96667 1.54618 2.87143 1.37367 2.68097 1.20116 2.49115 1.11491 2.23173 1.11491 1.90275L1.11491 0 0.558896 0 0.558896 3.36684 1.11491 3.36684 1.11491 2.84354C1.24766 3.04619 1.40349 3.19754 1.58242 3.29758 1.76198 3.39762 1.96912 3.44765 2.20384 3.44765 2.59054 3.44765 2.88298 3.32805 3.08114 3.08884 3.27995 2.84963 3.37935 2.49755 3.37935 2.03261Z" fill="#BFBF00" transform="matrix(1.00109 0 0 -1 621.061 182.999)"/><path d="M2.28464 4.67799 2.28464 4.21721 1.75557 4.21721C1.5574 4.21721 1.41953 4.17712 1.34193 4.09696 1.26497 4.01681 1.22649 3.87251 1.22649 3.66409L1.22649 3.36684 2.13746 3.36684 2.13746 2.93685 1.22649 2.93685 1.22649 0 0.670482 0 0.670482 2.93685 0.141407 2.93685 0.141407 3.36684 0.670482 3.36684 0.670482 3.60156C0.670482 3.97608 0.7577 4.24895 0.932134 4.42018 1.10657 4.59205 1.38297 4.67799 1.76134 4.67799L2.28464 4.67799Z" fill="#BFBF00" transform="matrix(1.00109 0 0 -1 624.967 182.999)"/></g><path d="M4.75821 4.97061 4.75821 4.20297C4.51272 4.43153 4.25107 4.60199 3.97326 4.71435 3.69544 4.82747 3.40032 4.88404 3.08787 4.88404 2.47223 4.88404 2.00086 4.69588 1.6738 4.31956 1.34674 3.94324 1.1832 3.39917 1.1832 2.68732 1.1832 1.97777 1.34674 1.43485 1.6738 1.05853 2.00086 0.682218 2.47223 0.49406 3.08787 0.49406 3.40032 0.49406 3.69544 0.550623 3.97326 0.663749 4.25107 0.776875 4.51272 0.947718 4.75821 1.17628L4.75821 0.41441C4.50348 0.241258 4.23337 0.111202 3.94786 0.0242413 3.66312-0.0619499 3.36223-0.105045 3.04516-0.105045 2.22942-0.105045 1.58684 0.144293 1.11741 0.642971 0.648742 1.14242 0.41441 1.82387 0.41441 2.68732 0.41441 3.55308 0.648742 4.23529 1.11741 4.73397 1.58684 5.23342 2.22942 5.48314 3.04516 5.48314 3.36685 5.48314 3.67005 5.44043 3.95479 5.35501 4.24029 5.26959 4.5081 5.14146 4.75821 4.97061Z" transform="matrix(1.00109 0 0 -1 480.127 152.031)"/><path d="M2.26136 3.57501C1.90582 3.57501 1.62455 3.43611 1.41754 3.15829 1.21053 2.88047 1.10702 2.49993 1.10702 2.01664 1.10702 1.53335 1.20975 1.15281 1.41523 0.874994 1.62147 0.597181 1.90352 0.458275 2.26136 0.458275 2.61537 0.458275 2.89548 0.597567 3.10173 0.876148 3.30874 1.1555 3.41225 1.53566 3.41225 2.01664 3.41225 2.49531 3.30874 2.8747 3.10173 3.15483 2.89548 3.43495 2.61537 3.57501 2.26136 3.57501ZM2.26136 4.13717C2.83854 4.13717 3.29181 3.9494 3.62118 3.57385 3.95132 3.19907 4.1164 2.68001 4.1164 2.01664 4.1164 1.35558 3.95132 0.836516 3.62118 0.45943 3.29181 0.0831129 2.83854-0.105045 2.26136-0.105045 1.68188-0.105045 1.22784 0.0831129 0.899235 0.45943 0.571401 0.836516 0.407484 1.35558 0.407484 2.01664 0.407484 2.68001 0.571401 3.19907 0.899235 3.57385 1.22784 3.9494 1.68188 4.13717 2.26136 4.13717Z" transform="matrix(1.00109 0 0 -1 485.291 152.031)"/><path d="M4.05522 2.43913 4.05522 0 3.39147 0 3.39147 2.4172C3.39147 2.79967 3.31682 3.08557 3.16752 3.27488 3.01823 3.46496 2.79467 3.56 2.49685 3.56 2.13823 3.56 1.85541 3.44572 1.64841 3.21716 1.4414 2.98937 1.33789 2.67808 1.33789 2.2833L1.33789 0 0.670675 0 0.670675 4.04021 1.33789 4.04021 1.33789 3.41225C1.49719 3.65543 1.68419 3.83704 1.8989 3.9571 2.11438 4.07715 2.36295 4.13717 2.64461 4.13717 3.10865 4.13717 3.45957 3.99365 3.69737 3.7066 3.93594 3.41955 4.05522 2.99706 4.05522 2.43913Z" transform="matrix(1.00109 0 0 -1 489.816 152.031)"/><path d="M1.35289 5.18763 1.35289 4.04021 2.71964 4.04021 2.71964 3.52422 1.35289 3.52422 1.35289 1.33096C1.35289 1.00159 1.39791 0.789957 1.48795 0.69607 1.57799 0.602184 1.76153 0.55524 2.03857 0.55524L2.71964 0.55524 2.71964 0 2.03857 0C1.52604 0 1.17243 0.0954259 0.977731 0.286278 0.783031 0.477899 0.685681 0.826127 0.685681 1.33096L0.685681 3.52422 0.198547 3.52422 0.198547 4.04021 0.685681 4.04021 0.685681 5.18763 1.35289 5.18763Z" transform="matrix(1.00109 0 0 -1 494.503 152.031)"/><path d="M2.26136 3.57501C1.90582 3.57501 1.62455 3.43611 1.41754 3.15829 1.21053 2.88047 1.10702 2.49993 1.10702 2.01664 1.10702 1.53335 1.20975 1.15281 1.41523 0.874994 1.62147 0.597181 1.90352 0.458275 2.26136 0.458275 2.61537 0.458275 2.89548 0.597567 3.10173 0.876148 3.30874 1.1555 3.41225 1.53566 3.41225 2.01664 3.41225 2.49531 3.30874 2.8747 3.10173 3.15483 2.89548 3.43495 2.61537 3.57501 2.26136 3.57501ZM2.26136 4.13717C2.83854 4.13717 3.29181 3.9494 3.62118 3.57385 3.95132 3.19907 4.1164 2.68001 4.1164 2.01664 4.1164 1.35558 3.95132 0.836516 3.62118 0.45943 3.29181 0.0831129 2.83854-0.105045 2.26136-0.105045 1.68188-0.105045 1.22784 0.0831129 0.899235 0.45943 0.571401 0.836516 0.407484 1.35558 0.407484 2.01664 0.407484 2.68001 0.571401 3.19907 0.899235 3.57385 1.22784 3.9494 1.68188 4.13717 2.26136 4.13717Z" transform="matrix(1.00109 0 0 -1 497.403 152.031)"/><path d="M0.627964 1.59415 0.627964 4.04021 1.29171 4.04021 1.29171 1.61955C1.29171 1.23708 1.36597 0.950026 1.5145 0.758405 1.66379 0.567554 1.88774 0.472127 2.18633 0.472127 2.54418 0.472127 2.82699 0.586408 3.03477 0.814968 3.24333 1.04353 3.3476 1.3552 3.3476 1.74999L3.3476 4.04021 4.01135 4.04021 4.01135 0 3.3476 0 3.3476 0.621038C3.18677 0.375547 2.99976 0.19316 2.78659 0.0738781 2.57419-0.0454042 2.32716-0.105045 2.0455-0.105045 1.58145-0.105045 1.229 0.0392478 0.98812 0.327834 0.748016 0.616421 0.627964 1.03853 0.627964 1.59415ZM2.2983 4.13717 2.2983 4.13717Z" transform="matrix(1.00109 0 0 -1 501.928 152.031)"/><path d="M3.03708 3.42033C2.96243 3.46342 2.88125 3.49498 2.79352 3.51498 2.70579 3.53576 2.6092 3.54615 2.50378 3.54615 2.12823 3.54615 1.84003 3.42417 1.63917 3.18022 1.43831 2.93627 1.33789 2.58573 1.33789 2.12861L1.33789 0 0.670675 0 0.670675 4.04021 1.33789 4.04021 1.33789 3.41225C1.47794 3.65774 1.65957 3.83973 1.88274 3.95825 2.10668 4.07753 2.37873 4.13717 2.69886 4.13717 2.74426 4.13717 2.79467 4.13409 2.85008 4.12794 2.90549 4.12255 2.96667 4.11371 3.03362 4.10139L3.03708 3.42033Z" transform="matrix(1.00109 0 0 -1 506.615 152.031)"/><path d="M3.27142 3.92131 3.27142 3.29335C3.08441 3.38954 2.88971 3.4615 2.68732 3.50921 2.48569 3.55769 2.27637 3.58193 2.05935 3.58193 1.72998 3.58193 1.48295 3.53152 1.31826 3.43072 1.15358 3.32991 1.07123 3.17829 1.07123 2.9759 1.07123 2.82199 1.1301 2.70117 1.24785 2.61344 1.36559 2.52571 1.60261 2.44221 1.95892 2.36295L2.18633 2.31215C2.6573 2.21135 2.99206 2.06897 3.19061 1.88505 3.38916 1.70112 3.48843 1.44447 3.48843 1.1151 3.48843 0.739551 3.3399 0.442114 3.04286 0.222789 2.74581 0.0042326 2.33755-0.105045 1.81809-0.105045 1.60185-0.105045 1.37636-0.0838825 1.14165-0.0415564 0.906931 0.000769564 0.659901 0.0638738 0.400558 0.147756L0.400558 0.833438C0.646049 0.70569 0.887692 0.609879 1.12549 0.546005 1.36328 0.482901 1.59915 0.451349 1.8331 0.451349 2.14555 0.451349 2.38565 0.504833 2.55341 0.611803 2.72195 0.718773 2.80621 0.869607 2.80621 1.06431 2.80621 1.24438 2.74541 1.38253 2.62383 1.47872 2.503 1.57491 2.23674 1.66765 1.82502 1.75691L1.59415 1.81117C1.1832 1.89736 0.886153 2.03011 0.702996 2.20942 0.52061 2.38872 0.429417 2.6346 0.429417 2.94704 0.429417 3.3272 0.564091 3.62041 0.833438 3.82666 1.10278 4.03366 1.48526 4.13717 1.98086 4.13717 2.22558 4.13717 2.45607 4.11909 2.67231 4.08292 2.88933 4.04752 3.08903 3.99365 3.27142 3.92131Z" transform="matrix(1.00109 0 0 -1 509.656 152.031)"/><path d="M2.26136 3.57501C1.90582 3.57501 1.62455 3.43611 1.41754 3.15829 1.21053 2.88047 1.10702 2.49993 1.10702 2.01664 1.10702 1.53335 1.20975 1.15281 1.41523 0.874994 1.62147 0.597181 1.90352 0.458275 2.26136 0.458275 2.61537 0.458275 2.89548 0.597567 3.10173 0.876148 3.30874 1.1555 3.41225 1.53566 3.41225 2.01664 3.41225 2.49531 3.30874 2.8747 3.10173 3.15483 2.89548 3.43495 2.61537 3.57501 2.26136 3.57501ZM2.26136 4.13717C2.83854 4.13717 3.29181 3.9494 3.62118 3.57385 3.95132 3.19907 4.1164 2.68001 4.1164 2.01664 4.1164 1.35558 3.95132 0.836516 3.62118 0.45943 3.29181 0.0831129 2.83854-0.105045 2.26136-0.105045 1.68188-0.105045 1.22784 0.0831129 0.899235 0.45943 0.571401 0.836516 0.407484 1.35558 0.407484 2.01664 0.407484 2.68001 0.571401 3.19907 0.899235 3.57385 1.22784 3.9494 1.68188 4.13717 2.26136 4.13717Z" transform="matrix(1.00109 0 0 -1 515.86 152.031)"/><path d="M2.74157 5.61358 2.74157 5.06065 2.10668 5.06065C1.86889 5.06065 1.70343 5.01255 1.61031 4.91636 1.51796 4.82017 1.47179 4.64701 1.47179 4.3969L1.47179 4.04021 2.56496 4.04021 2.56496 3.52422 1.47179 3.52422 1.47179 0 0.804579 0 0.804579 3.52422 0.169689 3.52422 0.169689 4.04021 0.804579 4.04021 0.804579 4.32187C0.804579 4.77129 0.90924 5.09874 1.11856 5.30422 1.32788 5.51046 1.65957 5.61358 2.11361 5.61358L2.74157 5.61358Z" transform="matrix(1.00109 0 0 -1 520.385 152.031)"/><path d="M1.55144 5.6459 1.55144-1.74191 0.938483-1.74191 0.938483 5.6459 1.55144 5.6459Z" transform="matrix(1.00109 0 0 -1 525.339 152.031)"/><path d="M1.00659 0.249339 0.660286-1.53643-0.00692607-1.53643 1.07123 4.01481C1.28517 5.11144 1.90467 5.65976 2.92973 5.65976 3.96864 5.65976 4.39998 5.19686 4.22375 4.27108 4.1037 3.61233 3.80934 3.16253 3.34068 2.92165 3.97095 2.7054 4.22452 2.27637 4.10139 1.63455 3.88515 0.491751 3.19485-0.0784955 2.03049-0.0761868 1.52105-0.0738781 1.17974 0.0346304 1.00659 0.249339ZM1.17628 1.1151C1.36097 0.696455 1.69034 0.488288 2.1644 0.490597 2.85701 0.490597 3.27681 0.868068 3.42379 1.62301 3.55616 2.30176 3.0594 2.61459 1.93353 2.56149L2.05243 3.17445C2.9228 3.15982 3.4338 3.54461 3.5854 4.3288 3.68929 4.85826 3.45957 5.12145 2.89625 5.11837 2.26675 5.11837 1.87966 4.74321 1.73498 3.99288L1.17628 1.1151Z" transform="matrix(1.00109 0 0 -1 527.831 152.031)"/><path d="M1.55144 5.6459 1.55144-1.74191 0.938483-1.74191 0.938483 5.6459 1.55144 5.6459Z" transform="matrix(1.00109 0 0 -1 532.551 152.031)"/><path d="M2.15666 0.424222C2.03223 0.260998 1.88516 0.137098 1.71547 0.0525227 1.54633-0.0315136 1.35913-0.0735318 1.15388-0.0735318 0.867837-0.0735318 0.64347 0.0228945 0.480785 0.215747 0.318638 0.4086 0.237564 0.674176 0.237564 1.01248 0.237564 1.28505 0.287663 1.54847 0.38786 1.80274 0.488057 2.05701 0.63162 2.28514 0.818546 2.48715 0.939753 2.6186 1.079 2.7196 1.2363 2.79017 1.39361 2.86073 1.55898 2.89602 1.73244 2.89602 1.94092 2.89602 2.11249 2.85481 2.24716 2.77239 2.38184 2.68997 2.47961 2.56553 2.54048 2.39908L2.62129 2.8233 3.08834 2.8233 2.33363-1.06581 1.86577-1.06581 2.15666 0.424222ZM0.719965 1.08116C0.719965 0.831742 0.771949 0.641854 0.875917 0.511491 0.980421 0.381127 1.13126 0.315944 1.32842 0.315944 1.62147 0.315944 1.87143 0.456005 2.07828 0.736126 2.28514 1.01625 2.38857 1.3567 2.38857 1.75749 2.38857 1.9999 2.33497 2.18549 2.22777 2.31423 2.12111 2.44298 1.96785 2.50735 1.768 2.50735 1.62147 2.50735 1.48572 2.47315 1.36074 2.40473 1.2363 2.33686 1.12776 2.2372 1.0351 2.10576 0.937595 1.96785 0.860565 1.80624 0.804002 1.62093 0.747978 1.43616 0.719965 1.25624 0.719965 1.08116Z" transform="matrix(1.00109 0 0 -1 535.114 153.243)"/><path d="M0.782646 3.35453 5.40695 3.35453 5.40695 2.7485 0.782646 2.7485 0.782646 3.35453ZM0.782646 1.88274 5.40695 1.88274 5.40695 1.26978 0.782646 1.26978 0.782646 1.88274Z" transform="matrix(1.00109 0 0 -1 540.043 152.031)"/><path d="M0.91655 0.612957 2.10668 0.612957 2.10668 4.72243 0.811505 4.4627 0.811505 5.12645 2.09975 5.38618 2.82815 5.38618 2.82815 0.612957 4.01828 0.612957 4.01828 0 0.91655 0 0.91655 0.612957Z" transform="matrix(1.00109 0 0 -1 547.681 152.031)"/><path d="M2.74157 5.61358 2.74157 5.06065 2.10668 5.06065C1.86889 5.06065 1.70343 5.01255 1.61031 4.91636 1.51796 4.82017 1.47179 4.64701 1.47179 4.3969L1.47179 4.04021 2.56496 4.04021 2.56496 3.52422 1.47179 3.52422 1.47179 0 0.804579 0 0.804579 3.52422 0.169689 3.52422 0.169689 4.04021 0.804579 4.04021 0.804579 4.32187C0.804579 4.77129 0.90924 5.09874 1.11856 5.30422 1.32788 5.51046 1.65957 5.61358 2.11361 5.61358L2.74157 5.61358Z" transform="matrix(1.00109 0 0 -1 554.737 152.031)"/><path d="M2.26136 3.57501C1.90582 3.57501 1.62455 3.43611 1.41754 3.15829 1.21053 2.88047 1.10702 2.49993 1.10702 2.01664 1.10702 1.53335 1.20975 1.15281 1.41523 0.874994 1.62147 0.597181 1.90352 0.458275 2.26136 0.458275 2.61537 0.458275 2.89548 0.597567 3.10173 0.876148 3.30874 1.1555 3.41225 1.53566 3.41225 2.01664 3.41225 2.49531 3.30874 2.8747 3.10173 3.15483 2.89548 3.43495 2.61537 3.57501 2.26136 3.57501ZM2.26136 4.13717C2.83854 4.13717 3.29181 3.9494 3.62118 3.57385 3.95132 3.19907 4.1164 2.68001 4.1164 2.01664 4.1164 1.35558 3.95132 0.836516 3.62118 0.45943 3.29181 0.0831129 2.83854-0.105045 2.26136-0.105045 1.68188-0.105045 1.22784 0.0831129 0.899235 0.45943 0.571401 0.836516 0.407484 1.35558 0.407484 2.01664 0.407484 2.68001 0.571401 3.19907 0.899235 3.57385 1.22784 3.9494 1.68188 4.13717 2.26136 4.13717Z" transform="matrix(1.00109 0 0 -1 557.341 152.031)"/><path d="M3.03708 3.42033C2.96243 3.46342 2.88125 3.49498 2.79352 3.51498 2.70579 3.53576 2.6092 3.54615 2.50378 3.54615 2.12823 3.54615 1.84003 3.42417 1.63917 3.18022 1.43831 2.93627 1.33789 2.58573 1.33789 2.12861L1.33789 0 0.670675 0 0.670675 4.04021 1.33789 4.04021 1.33789 3.41225C1.47794 3.65774 1.65957 3.83973 1.88274 3.95825 2.10668 4.07753 2.37873 4.13717 2.69886 4.13717 2.74426 4.13717 2.79467 4.13409 2.85008 4.12794 2.90549 4.12255 2.96667 4.11371 3.03362 4.10139L3.03708 3.42033Z" transform="matrix(1.00109 0 0 -1 561.866 152.031)"/><path d="M3.35453 3.42725 3.35453 5.61358 4.01828 5.61358 4.01828 0 3.35453 0 3.35453 0.606031C3.21523 0.365928 3.03901 0.187388 2.82584 0.0704151 2.61344-0.0465586 2.35795-0.105045 2.05935-0.105045 1.57145-0.105045 1.17397 0.0896542 0.866914 0.479053 0.560628 0.869222 0.407484 1.38175 0.407484 2.01664 0.407484 2.65153 0.560628 3.16368 0.866914 3.55308 1.17397 3.94247 1.57145 4.13717 2.05935 4.13717 2.35795 4.13717 2.61344 4.07868 2.82584 3.96171 3.03901 3.84551 3.21523 3.66736 3.35453 3.42725ZM1.09317 2.01664C1.09317 1.52873 1.19359 1.14588 1.39445 0.868068 1.59531 0.590255 1.87119 0.451349 2.22212 0.451349 2.57304 0.451349 2.84931 0.590255 3.05094 0.868068 3.25333 1.14588 3.35453 1.52873 3.35453 2.01664 3.35453 2.50455 3.25333 2.8874 3.05094 3.16522 2.84931 3.44303 2.57304 3.58193 2.22212 3.58193 1.87119 3.58193 1.59531 3.44303 1.39445 3.16522 1.19359 2.8874 1.09317 2.50455 1.09317 2.01664Z" transform="matrix(1.00109 0 0 -1 567.258 152.031)"/><path d="M0.69607 4.04021 1.35982 4.04021 1.35982 0 0.69607 0 0.69607 4.04021ZM0.69607 5.61358 1.35982 5.61358 1.35982 4.77206 0.69607 4.77206 0.69607 5.61358Z" transform="matrix(1.00109 0 0 -1 571.952 152.031)"/><path d="M2.74157 5.61358 2.74157 5.06065 2.10668 5.06065C1.86889 5.06065 1.70343 5.01255 1.61031 4.91636 1.51796 4.82017 1.47179 4.64701 1.47179 4.3969L1.47179 4.04021 2.56496 4.04021 2.56496 3.52422 1.47179 3.52422 1.47179 0 0.804579 0 0.804579 3.52422 0.169689 3.52422 0.169689 4.04021 0.804579 4.04021 0.804579 4.32187C0.804579 4.77129 0.90924 5.09874 1.11856 5.30422 1.32788 5.51046 1.65957 5.61358 2.11361 5.61358L2.74157 5.61358Z" transform="matrix(1.00109 0 0 -1 574.007 152.031)"/><path d="M2.74157 5.61358 2.74157 5.06065 2.10668 5.06065C1.86889 5.06065 1.70343 5.01255 1.61031 4.91636 1.51796 4.82017 1.47179 4.64701 1.47179 4.3969L1.47179 4.04021 2.56496 4.04021 2.56496 3.52422 1.47179 3.52422 1.47179 0 0.804579 0 0.804579 3.52422 0.169689 3.52422 0.169689 4.04021 0.804579 4.04021 0.804579 4.32187C0.804579 4.77129 0.90924 5.09874 1.11856 5.30422 1.32788 5.51046 1.65957 5.61358 2.11361 5.61358L2.74157 5.61358Z" transform="matrix(1.00109 0 0 -1 576.61 152.031)"/><path d="M4.15218 2.18633 4.15218 1.86196 1.10009 1.86196C1.12933 1.40484 1.26709 1.05661 1.51335 0.817277 1.7596 0.577943 2.10284 0.458275 2.54302 0.458275 2.79775 0.458275 3.04478 0.489443 3.28411 0.551777 3.52344 0.614112 3.76124 0.707998 3.9975 0.833438L3.9975 0.205474C3.75893 0.104661 3.5146 0.0277043 3.26449-0.0253956 3.01438-0.0784955 2.76081-0.105045 2.50378-0.105045 1.85888-0.105045 1.34828 0.0823433 0.971959 0.457121 0.595642 0.832668 0.407484 1.34058 0.407484 1.98086 0.407484 2.64192 0.586023 3.16637 0.9431 3.55423 1.30017 3.94286 1.78193 4.13717 2.38834 4.13717 2.93166 4.13717 3.36145 3.9621 3.67775 3.61195 3.99404 3.26256 4.15218 2.78736 4.15218 2.18633ZM3.48843 2.38141C3.48381 2.74388 3.38223 3.03324 3.18369 3.24948 2.98514 3.4665 2.72233 3.57501 2.39527 3.57501 2.0251 3.57501 1.72883 3.47034 1.50642 3.26103 1.28401 3.05171 1.15588 2.75696 1.12202 2.3768L3.48843 2.38141Z" transform="matrix(1.00109 0 0 -1 579.214 152.031)"/><path d="M3.03708 3.42033C2.96243 3.46342 2.88125 3.49498 2.79352 3.51498 2.70579 3.53576 2.6092 3.54615 2.50378 3.54615 2.12823 3.54615 1.84003 3.42417 1.63917 3.18022 1.43831 2.93627 1.33789 2.58573 1.33789 2.12861L1.33789 0 0.670675 0 0.670675 4.04021 1.33789 4.04021 1.33789 3.41225C1.47794 3.65774 1.65957 3.83973 1.88274 3.95825 2.10668 4.07753 2.37873 4.13717 2.69886 4.13717 2.74426 4.13717 2.79467 4.13409 2.85008 4.12794 2.90549 4.12255 2.96667 4.11371 3.03362 4.10139L3.03708 3.42033Z" transform="matrix(1.00109 0 0 -1 583.764 152.031)"/><path d="M4.15218 2.18633 4.15218 1.86196 1.10009 1.86196C1.12933 1.40484 1.26709 1.05661 1.51335 0.817277 1.7596 0.577943 2.10284 0.458275 2.54302 0.458275 2.79775 0.458275 3.04478 0.489443 3.28411 0.551777 3.52344 0.614112 3.76124 0.707998 3.9975 0.833438L3.9975 0.205474C3.75893 0.104661 3.5146 0.0277043 3.26449-0.0253956 3.01438-0.0784955 2.76081-0.105045 2.50378-0.105045 1.85888-0.105045 1.34828 0.0823433 0.971959 0.457121 0.595642 0.832668 0.407484 1.34058 0.407484 1.98086 0.407484 2.64192 0.586023 3.16637 0.9431 3.55423 1.30017 3.94286 1.78193 4.13717 2.38834 4.13717 2.93166 4.13717 3.36145 3.9621 3.67775 3.61195 3.99404 3.26256 4.15218 2.78736 4.15218 2.18633ZM3.48843 2.38141C3.48381 2.74388 3.38223 3.03324 3.18369 3.24948 2.98514 3.4665 2.72233 3.57501 2.39527 3.57501 2.0251 3.57501 1.72883 3.47034 1.50642 3.26103 1.28401 3.05171 1.15588 2.75696 1.12202 2.3768L3.48843 2.38141Z" transform="matrix(1.00109 0 0 -1 586.805 152.031)"/><path d="M4.05522 2.43913 4.05522 0 3.39147 0 3.39147 2.4172C3.39147 2.79967 3.31682 3.08557 3.16752 3.27488 3.01823 3.46496 2.79467 3.56 2.49685 3.56 2.13823 3.56 1.85541 3.44572 1.64841 3.21716 1.4414 2.98937 1.33789 2.67808 1.33789 2.2833L1.33789 0 0.670675 0 0.670675 4.04021 1.33789 4.04021 1.33789 3.41225C1.49719 3.65543 1.68419 3.83704 1.8989 3.9571 2.11438 4.07715 2.36295 4.13717 2.64461 4.13717 3.10865 4.13717 3.45957 3.99365 3.69737 3.7066 3.93594 3.41955 4.05522 2.99706 4.05522 2.43913Z" transform="matrix(1.00109 0 0 -1 591.355 152.031)"/><path d="M1.35289 5.18763 1.35289 4.04021 2.71964 4.04021 2.71964 3.52422 1.35289 3.52422 1.35289 1.33096C1.35289 1.00159 1.39791 0.789957 1.48795 0.69607 1.57799 0.602184 1.76153 0.55524 2.03857 0.55524L2.71964 0.55524 2.71964 0 2.03857 0C1.52604 0 1.17243 0.0954259 0.977731 0.286278 0.783031 0.477899 0.685681 0.826127 0.685681 1.33096L0.685681 3.52422 0.198547 3.52422 0.198547 4.04021 0.685681 4.04021 0.685681 5.18763 1.35289 5.18763Z" transform="matrix(1.00109 0 0 -1 596.042 152.031)"/><path d="M0.22048 4.04021 0.923476 4.04021 2.18633 0.649897 3.44918 4.04021 4.15218 4.04021 2.63653 0 1.73498 0 0.22048 4.04021Z" transform="matrix(1.00109 0 0 -1 601.293 152.031)"/><path d="M2.53263 2.03049C1.99624 2.03049 1.62455 1.96931 1.41754 1.84695 1.21053 1.72459 1.10702 1.51527 1.10702 1.21899 1.10702 0.983502 1.18474 0.796498 1.3402 0.657977 1.49565 0.520225 1.7065 0.451349 1.97278 0.451349 2.34139 0.451349 2.63691 0.58179 2.85931 0.842672 3.08172 1.10355 3.19292 1.45024 3.19292 1.88274L3.19292 2.03049 2.53263 2.03049ZM3.85667 2.30523 3.85667 0 3.19292 0 3.19292 0.612957C3.04132 0.368236 2.85239 0.187388 2.62614 0.0704151 2.39988-0.0465586 2.12322-0.105045 1.79616-0.105045 1.38291-0.105045 1.05392 0.0111587 0.809196 0.243567 0.565245 0.475975 0.443269 0.786879 0.443269 1.17628 0.443269 1.63032 0.595258 1.97278 0.899235 2.20365 1.20398 2.43451 1.65802 2.54995 2.26136 2.54995L3.19292 2.54995 3.19292 2.61575C3.19292 2.92127 3.09249 3.15752 2.89164 3.32452 2.69078 3.49151 2.40874 3.57501 2.0455 3.57501 1.81463 3.57501 1.58953 3.5473 1.37021 3.4919 1.15165 3.43649 0.941562 3.35337 0.739936 3.24256L0.739936 3.85667C0.982348 3.95055 1.21783 4.02059 1.4464 4.06676 1.67496 4.11371 1.89736 4.13717 2.11361 4.13717 2.69848 4.13717 3.1352 3.98557 3.42379 3.68236 3.71238 3.37992 3.85667 2.92088 3.85667 2.30523Z" transform="matrix(1.00109 0 0 -1 605.67 152.031)"/><path d="M0.69607 5.61358 1.35982 5.61358 1.35982 0 0.69607 0 0.69607 5.61358Z" transform="matrix(1.00109 0 0 -1 610.202 152.031)"/><path d="M0.627964 1.59415 0.627964 4.04021 1.29171 4.04021 1.29171 1.61955C1.29171 1.23708 1.36597 0.950026 1.5145 0.758405 1.66379 0.567554 1.88774 0.472127 2.18633 0.472127 2.54418 0.472127 2.82699 0.586408 3.03477 0.814968 3.24333 1.04353 3.3476 1.3552 3.3476 1.74999L3.3476 4.04021 4.01135 4.04021 4.01135 0 3.3476 0 3.3476 0.621038C3.18677 0.375547 2.99976 0.19316 2.78659 0.0738781 2.57419-0.0454042 2.32716-0.105045 2.0455-0.105045 1.58145-0.105045 1.229 0.0392478 0.98812 0.327834 0.748016 0.616421 0.627964 1.03853 0.627964 1.59415ZM2.2983 4.13717 2.2983 4.13717Z" transform="matrix(1.00109 0 0 -1 612.257 152.031)"/><path d="M4.15218 2.18633 4.15218 1.86196 1.10009 1.86196C1.12933 1.40484 1.26709 1.05661 1.51335 0.817277 1.7596 0.577943 2.10284 0.458275 2.54302 0.458275 2.79775 0.458275 3.04478 0.489443 3.28411 0.551777 3.52344 0.614112 3.76124 0.707998 3.9975 0.833438L3.9975 0.205474C3.75893 0.104661 3.5146 0.0277043 3.26449-0.0253956 3.01438-0.0784955 2.76081-0.105045 2.50378-0.105045 1.85888-0.105045 1.34828 0.0823433 0.971959 0.457121 0.595642 0.832668 0.407484 1.34058 0.407484 1.98086 0.407484 2.64192 0.586023 3.16637 0.9431 3.55423 1.30017 3.94286 1.78193 4.13717 2.38834 4.13717 2.93166 4.13717 3.36145 3.9621 3.67775 3.61195 3.99404 3.26256 4.15218 2.78736 4.15218 2.18633ZM3.48843 2.38141C3.48381 2.74388 3.38223 3.03324 3.18369 3.24948 2.98514 3.4665 2.72233 3.57501 2.39527 3.57501 2.0251 3.57501 1.72883 3.47034 1.50642 3.26103 1.28401 3.05171 1.15588 2.75696 1.12202 2.3768L3.48843 2.38141Z" transform="matrix(1.00109 0 0 -1 616.944 152.031)"/><path d="M3.27142 3.92131 3.27142 3.29335C3.08441 3.38954 2.88971 3.4615 2.68732 3.50921 2.48569 3.55769 2.27637 3.58193 2.05935 3.58193 1.72998 3.58193 1.48295 3.53152 1.31826 3.43072 1.15358 3.32991 1.07123 3.17829 1.07123 2.9759 1.07123 2.82199 1.1301 2.70117 1.24785 2.61344 1.36559 2.52571 1.60261 2.44221 1.95892 2.36295L2.18633 2.31215C2.6573 2.21135 2.99206 2.06897 3.19061 1.88505 3.38916 1.70112 3.48843 1.44447 3.48843 1.1151 3.48843 0.739551 3.3399 0.442114 3.04286 0.222789 2.74581 0.0042326 2.33755-0.105045 1.81809-0.105045 1.60185-0.105045 1.37636-0.0838825 1.14165-0.0415564 0.906931 0.000769564 0.659901 0.0638738 0.400558 0.147756L0.400558 0.833438C0.646049 0.70569 0.887692 0.609879 1.12549 0.546005 1.36328 0.482901 1.59915 0.451349 1.8331 0.451349 2.14555 0.451349 2.38565 0.504833 2.55341 0.611803 2.72195 0.718773 2.80621 0.869607 2.80621 1.06431 2.80621 1.24438 2.74541 1.38253 2.62383 1.47872 2.503 1.57491 2.23674 1.66765 1.82502 1.75691L1.59415 1.81117C1.1832 1.89736 0.886153 2.03011 0.702996 2.20942 0.52061 2.38872 0.429417 2.6346 0.429417 2.94704 0.429417 3.3272 0.564091 3.62041 0.833438 3.82666 1.10278 4.03366 1.48526 4.13717 1.98086 4.13717 2.22558 4.13717 2.45607 4.11909 2.67231 4.08292 2.88933 4.04752 3.08903 3.99365 3.27142 3.92131Z" transform="matrix(1.00109 0 0 -1 621.495 152.031)"/><path d="M2.26136 3.57501C1.90582 3.57501 1.62455 3.43611 1.41754 3.15829 1.21053 2.88047 1.10702 2.49993 1.10702 2.01664 1.10702 1.53335 1.20975 1.15281 1.41523 0.874994 1.62147 0.597181 1.90352 0.458275 2.26136 0.458275 2.61537 0.458275 2.89548 0.597567 3.10173 0.876148 3.30874 1.1555 3.41225 1.53566 3.41225 2.01664 3.41225 2.49531 3.30874 2.8747 3.10173 3.15483 2.89548 3.43495 2.61537 3.57501 2.26136 3.57501ZM2.26136 4.13717C2.83854 4.13717 3.29181 3.9494 3.62118 3.57385 3.95132 3.19907 4.1164 2.68001 4.1164 2.01664 4.1164 1.35558 3.95132 0.836516 3.62118 0.45943 3.29181 0.0831129 2.83854-0.105045 2.26136-0.105045 1.68188-0.105045 1.22784 0.0831129 0.899235 0.45943 0.571401 0.836516 0.407484 1.35558 0.407484 2.01664 0.407484 2.68001 0.571401 3.19907 0.899235 3.57385 1.22784 3.9494 1.68188 4.13717 2.26136 4.13717Z" transform="matrix(1.00109 0 0 -1 627.699 152.031)"/><path d="M2.74157 5.61358 2.74157 5.06065 2.10668 5.06065C1.86889 5.06065 1.70343 5.01255 1.61031 4.91636 1.51796 4.82017 1.47179 4.64701 1.47179 4.3969L1.47179 4.04021 2.56496 4.04021 2.56496 3.52422 1.47179 3.52422 1.47179 0 0.804579 0 0.804579 3.52422 0.169689 3.52422 0.169689 4.04021 0.804579 4.04021 0.804579 4.32187C0.804579 4.77129 0.90924 5.09874 1.11856 5.30422 1.32788 5.51046 1.65957 5.61358 2.11361 5.61358L2.74157 5.61358Z" transform="matrix(1.00109 0 0 -1 632.223 152.031)"/><path d="M3.08095 0.606031C2.90318 0.372854 2.69309 0.195854 2.45068 0.0750325 2.20904-0.0450195 1.94161-0.105045 1.64841-0.105045 1.23977-0.105045 0.919244 0.0327064 0.686836 0.30821 0.455197 0.583714 0.339378 0.963109 0.339378 1.4464 0.339378 1.83579 0.410947 2.21211 0.554086 2.57535 0.697225 2.93858 0.902314 3.26449 1.16935 3.55308 1.3425 3.74085 1.54143 3.88515 1.76615 3.98596 1.99087 4.08676 2.22711 4.13717 2.47492 4.13717 2.77274 4.13717 3.01784 4.0783 3.21024 3.96056 3.40263 3.84282 3.54231 3.66505 3.62926 3.42725L3.7447 4.03328 4.41191 4.03328 3.33375-1.52258 2.66538-1.52258 3.08095 0.606031ZM1.02852 1.54451C1.02852 1.1882 1.10278 0.916935 1.25131 0.730701 1.4006 0.544467 1.61608 0.451349 1.89774 0.451349 2.31639 0.451349 2.67346 0.651435 2.96898 1.05161 3.26449 1.45179 3.41225 1.93815 3.41225 2.5107 3.41225 2.85701 3.33568 3.12212 3.18253 3.30605 3.03016 3.48997 2.81121 3.58193 2.52571 3.58193 2.31639 3.58193 2.12246 3.53307 1.94392 3.43533 1.76615 3.33837 1.61109 3.196 1.47872 3.00822 1.33942 2.81121 1.22938 2.58034 1.14857 2.31562 1.06854 2.05165 1.02852 1.79463 1.02852 1.54451Z" transform="matrix(1.00109 0 0 -1 637.179 152.031)"/></g></svg>