<svg width="605" height="223" xmlns="http://www.w3.org/2000/svg" xmlns:xlink="http://www.w3.org/1999/xlink" xml:space="preserve" overflow="hidden"><g><path d="M269.633 171.423C269.633 189.086 255.314 203.405 237.65 203.405 219.987 203.405 205.668 189.086 205.668 171.423 205.668 153.759 219.987 139.44 237.65 139.44 255.314 139.44 269.633 153.759 269.633 171.423Z" stroke="#000000" stroke-width="10.1472" stroke-linecap="round" stroke-linejoin="round" stroke-miterlimit="1.5" fill="none" fill-rule="evenodd" transform="matrix(1.00206 0 0 1 -6.5823 -78.4785)"/><path d="M107.693 200.268 107.693 198.137 120.443 180.774 108.236 163.684 108.236 161.515 128.659 161.515 128.659 163.918 111.53 163.918 123.505 180.774 110.794 197.904 129.124 197.904 129.124 200.268 107.693 200.268Z" stroke="#000000" stroke-width="0.48633" stroke-linejoin="round" stroke-miterlimit="2" transform="matrix(1.00206 0 0 1 111.424 -88.0704)"/><path d="M62.3609-3.37466C62.3609-2.39039 62.0094-1.54672 61.3064-0.77336 60.6033 0 59.6893 0.421833 58.5644 0.421833 57.4396 0.421833 56.5256 0 55.8225-0.77336 55.1195-1.54672 54.7679-2.39039 54.7679-3.37466 54.7679-4.35894 55.1195-5.27291 55.8225-6.04627 56.5256-6.81963 57.4396-7.17116 58.5644-7.17116 59.6893-7.17116 60.6033-6.81963 61.3064-6.04627 62.0094-5.27291 62.3609-4.35894 62.3609-3.37466ZM38.9492-3.37466C38.9492-2.39039 38.5977-1.54672 37.8946-0.77336 37.1916 0 36.2776 0.421833 35.1527 0.421833 34.0278 0.421833 33.1139 0 32.4108-0.77336 31.7078-1.54672 31.3562-2.39039 31.3562-3.37466 31.3562-4.35894 31.7078-5.27291 32.4108-6.04627 33.1139-6.81963 34.0278-7.17116 35.1527-7.17116 36.2776-7.17116 37.1916-6.81963 37.8946-6.04627 38.5977-5.27291 38.9492-4.35894 38.9492-3.37466ZM15.5375-3.37466C15.5375-2.39039 15.186-1.54672 14.4829-0.77336 13.7799 0 12.8659 0.421833 11.741 0.421833 10.6161 0.421833 9.70215 0 8.9991-0.77336 8.29604-1.54672 7.94452-2.39039 7.94452-3.37466 7.94452-4.35894 8.29604-5.27291 8.9991-6.04627 9.70215-6.81963 10.6161-7.17116 11.741-7.17116 12.8659-7.17116 13.7799-6.81963 14.4829-6.04627 15.186-5.27291 15.5375-4.35894 15.5375-3.37466Z" transform="matrix(6.13587e-17 -1 1.00206 6.12325e-17 96.6527 140.706)"/><path d="M13.2453-17.1571 1.57845-32.1181 7.755-32.1181 16.6767-20.1081 25.1866-32.1181 30.8141-32.1181 19.6277-17.1571 33.0788 0 26.9023 0 16.1277-14.0688 5.76478 0 0 0 13.2453-17.1571Z" transform="matrix(1.00206 0 0 1 75.0738 32.12)"/><path d="M11.4323 0 9.06698 0 9.06698-20.3021 4.89485-16.6228 3.41654-18.3968 9.32979-23.2588 11.4323-23.2588 11.4323 0Z" transform="matrix(1.00206 0 0 1 111.566 51.8221)"/><path d="M13.2453-17.1571 1.57845-32.1181 7.755-32.1181 16.6767-20.1081 25.1866-32.1181 30.8141-32.1181 19.6277-17.1571 33.0788 0 26.9023 0 16.1277-14.0688 5.76478 0 0 0 13.2453-17.1571Z" transform="matrix(1.00206 0 0 1 75.0738 193.694)"/><path d="M16.3928-7.68722C16.3928-8.54136 16.2614-9.32979 15.9986-10.0854 15.703-10.841 15.3087-11.4651 14.816-12.0236 14.3232-12.5821 13.699-13.0091 13.0091-13.3377 12.2864-13.6333 11.4651-13.7976 10.5781-13.7976 9.69115-13.7976 8.86987-13.6333 8.11429-13.3377 7.35871-13.0091 6.73453-12.5821 6.17606-12.0236 5.61758-11.4651 5.19052-10.841 4.89485-10.0854 4.59919-9.32979 4.43494-8.54136 4.43494-7.68722 4.43494-6.83309 4.59919-6.04465 4.89485-5.28907 5.19052-4.53349 5.61758-3.90931 6.17606-3.35084 6.73453-2.79237 7.35871-2.3653 8.11429-2.06964 8.86987-1.74112 9.69115-1.57687 10.5781-1.57687 11.4651-1.57687 12.2864-1.74112 13.0091-2.06964 13.699-2.3653 14.3232-2.79237 14.816-3.35084 15.3087-3.90931 15.703-4.53349 15.9986-5.28907 16.2614-6.04465 16.3928-6.83309 16.3928-7.68722ZM2.3653-15.3744 4.53349-15.3744 4.53349-12.812 4.59919-12.812C4.96056-13.3377 5.35477-13.7976 5.84754-14.1589 6.34031-14.5203 6.83309-14.8488 7.35871-15.0788 7.88433-15.3087 8.4428-15.5058 9.00128-15.6044 9.55975-15.703 10.0854-15.7687 10.5781-15.7687 11.7936-15.7687 12.8777-15.5716 13.8961-15.1773 14.8817-14.7503 15.7358-14.1918 16.4585-13.4691 17.1813-12.7463 17.7397-11.8922 18.1668-10.9067 18.561-9.92111 18.7581-8.83702 18.7581-7.68722 18.7581-6.53742 18.561-5.45333 18.1668-4.46779 17.7397-3.48225 17.1813-2.62811 16.4585-1.90538 15.7358-1.18265 14.8817-0.624176 13.8961-0.22996 12.8777 0.197108 11.7936 0.394216 10.5781 0.394216 10.0854 0.394216 9.55975 0.328514 9.00128 0.22996 8.4428 0.131405 7.88433-0.0657027 7.35871-0.295662 6.83309-0.525622 6.34031-0.854136 5.84754-1.2155 5.35477-1.57687 4.96056-2.03679 4.59919-2.56241L4.53349-2.56241 4.53349 9.46119 2.3653 9.46119 2.3653-15.3744Z" transform="matrix(1.00206 0 0 1 111.566 213.396)"/><path d="M731.793 1015.44 731.793 1058.56" stroke="#000000" stroke-width="10.1481" stroke-linecap="round" stroke-linejoin="round" stroke-miterlimit="1.5" fill="none" fill-rule="evenodd" transform="matrix(1.00206 0 0 1 -500.808 -890.346)"/><path d="M566.446 813.877C566.446 816.032 564.699 817.779 562.544 817.779 560.389 817.779 558.642 816.032 558.642 813.877 558.642 811.722 560.389 809.975 562.544 809.975 564.699 809.975 566.446 811.722 566.446 813.877Z" stroke="#000000" stroke-width="10.147" stroke-linecap="round" stroke-linejoin="round" stroke-miterlimit="1.5" fill-rule="evenodd" transform="matrix(1.00206 0 0 1 -331.327 -643.331)"/><path d="M566.446 813.877C566.446 816.032 564.699 817.779 562.544 817.779 560.389 817.779 558.642 816.032 558.642 813.877 558.642 811.722 560.389 809.975 562.544 809.975 564.699 809.975 566.446 811.722 566.446 813.877Z" stroke="#000000" stroke-width="10.147" stroke-linecap="round" stroke-linejoin="round" stroke-miterlimit="1.5" fill-rule="evenodd" transform="matrix(1.00206 0 0 1 -70.5015 -721.988)"/><path d="M554.866 850.886C554.866 849.878 554.705 848.934 554.379 848.057 554.058 847.176 553.6 846.416 553.006 845.769 552.412 845.121 551.691 844.61 550.854 844.235 550.011 843.865 549.062 843.675 548.005 843.675 546.944 843.675 545.975 843.865 545.099 844.235 544.222 844.61 543.458 845.121 542.81 845.769 542.168 846.416 541.661 847.176 541.301 848.057 540.941 848.934 540.76 849.878 540.76 850.886 540.76 851.889 540.941 852.834 541.301 853.715 541.661 854.591 542.168 855.356 542.81 855.999 543.458 856.646 544.222 857.157 545.099 857.527 545.975 857.907 546.944 858.092 548.005 858.092 549.062 858.092 550.011 857.907 550.854 857.527 551.691 857.157 552.412 856.646 553.006 855.999 553.6 855.356 554.058 854.591 554.379 853.715 554.705 852.834 554.866 851.889 554.866 850.886ZM538.316 830.656 540.872 830.656 540.872 844.839 540.95 844.839C541.364 844.221 541.856 843.69 542.426 843.252 542.99 842.809 543.584 842.448 544.208 842.166 544.826 841.879 545.469 841.674 546.126 841.543 546.783 841.416 547.411 841.353 548.005 841.353 549.427 841.353 550.722 841.591 551.901 842.068 553.074 842.546 554.087 843.213 554.944 844.065 555.796 844.917 556.458 845.925 556.935 847.088 557.417 848.247 557.656 849.513 557.656 850.886 557.656 852.254 557.417 853.52 556.935 854.684 556.458 855.843 555.796 856.851 554.944 857.703 554.087 858.555 553.074 859.222 551.901 859.699 550.722 860.176 549.427 860.415 548.005 860.415 547.411 860.415 546.783 860.352 546.126 860.225 545.469 860.093 544.826 859.889 544.208 859.602 543.584 859.319 542.99 858.959 542.426 858.521 541.856 858.078 541.364 857.552 540.95 856.929L540.872 856.929 540.872 859.952 538.316 859.952 538.316 830.656Z" stroke="#000000" stroke-width="0.4869" stroke-linejoin="round" stroke-miterlimit="2" transform="matrix(1.00206 0 0 1 -341.7 -693.122)"/><path d="M446.458 803.048 515.992 733.519" stroke="#000000" stroke-width="10.147" stroke-linecap="round" stroke-linejoin="round" stroke-miterlimit="1.5" fill="none" fill-rule="evenodd" transform="matrix(1.00206 0 0 1 -318.833 -638.355)"/><path d="M515.992 733.519 458.835 676.362" stroke="#000000" stroke-width="10.147" stroke-linecap="round" stroke-linejoin="round" stroke-miterlimit="1.5" fill="none" fill-rule="evenodd" transform="matrix(1.00206 0 0 1 -318.833 -638.355)"/><path d="M583.836 730.335 631.966 730.335" stroke="#000000" stroke-width="10.147" stroke-linecap="round" stroke-linejoin="round" stroke-miterlimit="1.5" fill="none" fill-rule="evenodd" transform="matrix(1.00206 0 0 1 -318.833 -638.355)"/><path d="M525.519 584.793 619.215 584.793 619.215 621.732 525.519 621.732Z" stroke="#000000" stroke-width="6.03385" stroke-linecap="round" stroke-linejoin="round" stroke-miterlimit="1.5" fill="#FFFFFF" fill-rule="evenodd" transform="matrix(1 0 0 2.15823 -206.516 -1209.52)"/><path d="M639.616 750.672C659.705 746.704 664.448 738.948 685.287 725.276 697.469 717.286 713.284 712.694 727.628 709.525" stroke="#000000" stroke-width="10.147" stroke-linecap="round" stroke-linejoin="round" stroke-miterlimit="1.5" fill="none" fill-rule="evenodd" transform="matrix(1.00206 0 0 1 -318.833 -638.355)"/><path d="M275.235 711.613C275.235 710.231 275.014 708.94 274.572 707.738 274.13 706.535 273.502 705.493 272.689 704.607 271.875 703.726 270.893 703.025 269.743 702.513 268.594 702.002 267.294 701.744 265.843 701.744 264.393 701.744 263.066 702.002 261.864 702.513 260.661 703.025 259.618 703.726 258.733 704.607 257.849 705.493 257.159 706.535 256.664 707.738 256.169 708.94 255.921 710.231 255.921 711.613 255.921 712.991 256.169 714.282 256.664 715.484 257.159 716.687 257.849 717.734 258.733 718.615 259.618 719.501 260.661 720.198 261.864 720.714 263.066 721.225 264.393 721.483 265.843 721.483 267.294 721.483 268.594 721.225 269.743 720.714 270.893 720.198 271.875 719.501 272.689 718.615 273.502 717.734 274.13 716.687 274.572 715.484 275.014 714.282 275.235 712.991 275.235 711.613ZM252.578 699.198 256.08 699.198 256.08 703.336 256.186 703.336C256.752 702.484 257.424 701.759 258.203 701.16 258.981 700.556 259.794 700.064 260.644 699.675 261.492 699.285 262.368 699.003 263.27 698.823 264.172 698.647 265.03 698.56 265.843 698.56 267.789 698.56 269.567 698.886 271.176 699.543 272.785 700.196 274.174 701.106 275.341 702.275 276.509 703.443 277.42 704.821 278.074 706.413 278.729 708.005 279.056 709.739 279.056 711.613 279.056 713.488 278.729 715.221 278.074 716.813 277.42 718.406 276.509 719.784 275.341 720.952 274.174 722.121 272.785 723.031 271.176 723.684 269.567 724.336 267.789 724.667 265.843 724.667 265.03 724.667 264.172 724.575 263.27 724.399 262.368 724.224 261.492 723.942 260.644 723.552 259.794 723.163 258.981 722.666 258.203 722.067 257.424 721.463 256.752 720.738 256.186 719.891L256.08 719.891 256.08 739.308 252.578 739.308 252.578 699.198Z" stroke="#000000" stroke-width="0.4869" stroke-linejoin="round" stroke-miterlimit="2" transform="matrix(6.13585e-17 -1 1.00206 6.12323e-17 -688.27 440.454)"/><path d="M304.843 689.645C304.843 690.39 304.578 690.998 304.048 691.475 303.517 691.952 302.933 692.191 302.296 692.191 301.66 692.191 301.076 691.952 300.546 691.475 300.015 690.998 299.75 690.39 299.75 689.645 299.75 688.904 300.015 688.291 300.546 687.814 301.076 687.337 301.66 687.098 302.296 687.098 302.933 687.098 303.517 687.337 304.048 687.814 304.578 688.291 304.843 688.904 304.843 689.645ZM304.048 724.029 300.546 724.029 300.546 699.198 304.048 699.198 304.048 724.029Z" stroke="#000000" stroke-width="0.4869" stroke-linejoin="round" stroke-miterlimit="2" transform="matrix(6.13585e-17 -1 1.00206 6.12323e-17 -688.27 440.454)"/><path d="M315.827 699.198C315.898 699.869 315.942 700.532 315.96 701.184 315.977 701.841 315.987 702.504 315.987 703.175L316.093 703.175C316.482 702.504 316.977 701.885 317.578 701.32 318.18 700.751 318.852 700.264 319.595 699.86 320.338 699.451 321.124 699.134 321.956 698.905 322.787 698.672 323.609 698.56 324.423 698.56 327.607 698.56 329.959 699.397 331.48 701.082 333.001 702.762 333.762 705.157 333.762 708.268L333.762 724.029 330.26 724.029 330.26 710.284C330.26 707.528 329.782 705.415 328.827 703.945 327.872 702.479 326.103 701.744 323.521 701.744 323.344 701.744 322.849 701.812 322.035 701.953 321.222 702.095 320.364 702.484 319.462 703.122 318.56 703.76 317.755 704.714 317.048 705.99 316.34 707.261 315.987 709.028 315.987 711.292L315.987 724.029 312.484 724.029 312.484 704.661C312.484 703.989 312.458 703.141 312.405 702.114 312.352 701.087 312.29 700.118 312.219 699.198L315.827 699.198Z" stroke="#000000" stroke-width="0.4869" stroke-linejoin="round" stroke-miterlimit="2" transform="matrix(6.13585e-17 -1 1.00206 6.12323e-17 -688.27 440.454)"/><path d="M364.643 711.613C364.643 710.231 364.422 708.94 363.98 707.738 363.538 706.535 362.91 705.493 362.096 704.607 361.283 703.726 360.301 703.025 359.152 702.513 358.002 702.002 356.702 701.744 355.252 701.744 353.802 701.744 352.475 702.002 351.272 702.513 350.07 703.025 349.026 703.726 348.141 704.607 347.257 705.493 346.567 706.535 346.072 707.738 345.577 708.94 345.329 710.231 345.329 711.613 345.329 712.991 345.577 714.282 346.072 715.484 346.567 716.687 347.257 717.734 348.141 718.615 349.026 719.501 350.07 720.198 351.272 720.714 352.475 721.225 353.802 721.483 355.252 721.483 356.702 721.483 358.002 721.225 359.152 720.714 360.301 720.198 361.283 719.501 362.096 718.615 362.91 717.734 363.538 716.687 363.98 715.484 364.422 714.282 364.643 712.991 364.643 711.613ZM341.987 699.198 345.488 699.198 345.488 703.336 345.594 703.336C346.161 702.484 346.833 701.759 347.611 701.16 348.389 700.556 349.203 700.064 350.052 699.675 350.901 699.285 351.776 699.003 352.678 698.823 353.581 698.647 354.438 698.56 355.252 698.56 357.197 698.56 358.975 698.886 360.585 699.543 362.194 700.196 363.582 701.106 364.75 702.275 365.917 703.443 366.828 704.821 367.483 706.413 368.137 708.005 368.464 709.739 368.464 711.613 368.464 713.488 368.137 715.221 367.483 716.813 366.828 718.406 365.917 719.784 364.75 720.952 363.582 722.121 362.194 723.031 360.585 723.684 358.975 724.336 357.197 724.667 355.252 724.667 354.438 724.667 353.581 724.575 352.678 724.399 351.776 724.224 350.901 723.942 350.052 723.552 349.203 723.163 348.389 722.666 347.611 722.067 346.833 721.463 346.161 720.738 345.594 719.891L345.488 719.891 345.488 739.308 341.987 739.308 341.987 699.198Z" stroke="#000000" stroke-width="0.4869" stroke-linejoin="round" stroke-miterlimit="2" transform="matrix(6.13585e-17 -1 1.00206 6.12323e-17 -688.27 440.454)"/><path d="M392.342 724.029C392.271 723.357 392.227 722.695 392.209 722.038 392.191 721.385 392.182 720.723 392.182 720.051L392.076 720.051C391.687 720.723 391.192 721.342 390.591 721.906 389.99 722.471 389.317 722.958 388.575 723.367 387.832 723.771 387.044 724.093 386.213 724.322 385.382 724.55 384.56 724.667 383.746 724.667 380.562 724.667 378.209 723.825 376.688 722.145 375.167 720.465 374.407 718.07 374.407 714.954L374.407 699.198 377.909 699.198 377.909 712.938C377.909 714.321 378.015 715.538 378.227 716.599 378.44 717.661 378.802 718.557 379.315 719.282 379.828 720.003 380.518 720.553 381.385 720.923 382.251 721.298 383.339 721.483 384.648 721.483 384.824 721.483 385.32 721.41 386.134 721.269 386.947 721.128 387.805 720.738 388.707 720.1 389.609 719.467 390.414 718.508 391.121 717.237 391.829 715.961 392.182 714.194 392.182 711.93L392.182 699.198 395.685 699.198 395.685 718.562C395.685 719.233 395.711 720.086 395.764 721.113 395.817 722.135 395.879 723.109 395.95 724.029L392.342 724.029Z" stroke="#000000" stroke-width="0.4869" stroke-linejoin="round" stroke-miterlimit="2" transform="matrix(6.13585e-17 -1 1.00206 6.12323e-17 -688.27 440.454)"/><path d="M416.75 702.382 409.587 702.382 409.587 717.023C409.587 717.943 409.675 718.698 409.852 719.282 410.029 719.862 410.277 720.314 410.595 720.631 410.913 720.952 411.293 721.171 411.735 721.298 412.178 721.42 412.664 721.483 413.195 721.483 413.796 721.483 414.415 721.395 415.052 721.215 415.689 721.04 416.272 720.811 416.803 720.529L416.962 723.762C415.654 724.365 414.079 724.667 412.24 724.667 411.567 724.667 410.869 724.575 410.144 724.399 409.419 724.224 408.755 723.888 408.154 723.392 407.552 722.895 407.057 722.223 406.668 721.376 406.279 720.529 406.084 719.414 406.084 718.031L406.084 702.382 400.831 702.382 400.831 699.198 406.084 699.198 406.084 692.191 409.587 692.191 409.587 699.198 416.75 699.198 416.75 702.382Z" stroke="#000000" stroke-width="0.4869" stroke-linejoin="round" stroke-miterlimit="2" transform="matrix(6.13585e-17 -1 1.00206 6.12323e-17 -688.27 440.454)"/><path d="M434.684 705.084C434.154 704.062 433.447 703.248 432.562 702.645 431.678 702.046 430.599 701.744 429.326 701.744 428.724 701.744 428.114 701.812 427.495 701.953 426.876 702.095 426.319 702.319 425.823 702.62 425.328 702.917 424.93 703.297 424.629 703.76 424.329 704.217 424.179 704.787 424.179 705.459 424.179 706.623 424.585 707.475 425.399 708.005 426.212 708.536 427.433 708.994 429.06 709.383L432.615 710.231C434.348 710.62 435.79 711.409 436.94 712.592 438.089 713.78 438.664 715.255 438.664 717.023 438.664 718.367 438.39 719.526 437.842 720.499 437.293 721.473 436.568 722.267 435.667 722.89 434.764 723.508 433.73 723.956 432.562 724.239 431.395 724.526 430.21 724.667 429.007 724.667 427.097 724.667 425.319 724.302 423.674 723.577 422.029 722.851 420.623 721.605 419.456 719.837L422.48 717.768C423.188 718.897 424.081 719.803 425.16 720.475 426.239 721.147 427.521 721.483 429.007 721.483 429.715 721.483 430.422 721.4 431.13 721.244 431.837 721.084 432.465 720.835 433.013 720.499 433.562 720.163 434.004 719.73 434.34 719.199 434.676 718.669 434.844 718.05 434.844 717.344 434.844 716.108 434.384 715.212 433.464 714.661 432.545 714.116 431.43 713.683 430.121 713.361L426.726 712.568C426.301 712.461 425.726 712.285 425.001 712.037 424.276 711.789 423.569 711.419 422.879 710.922 422.189 710.425 421.596 709.783 421.101 708.984 420.606 708.191 420.358 707.207 420.358 706.043 420.358 704.768 420.615 703.653 421.128 702.698 421.64 701.744 422.33 700.965 423.197 700.361 424.064 699.762 425.045 699.31 426.142 699.008 427.238 698.711 428.37 698.56 429.538 698.56 431.271 698.56 432.88 698.896 434.366 699.568 435.852 700.24 437.002 701.389 437.815 703.015L434.684 705.084Z" stroke="#000000" stroke-width="0.4869" stroke-linejoin="round" stroke-miterlimit="2" transform="matrix(6.13585e-17 -1 1.00206 6.12323e-17 -688.27 440.454)"/><path d="M584.838 807.209 588.593 820.435 588.664 820.435 593.014 807.209 595.38 807.209 599.735 820.435 599.8 820.435 603.561 807.209 606.275 807.209 601.125 823.495 598.547 823.495 594.232 810.134 594.167 810.134 589.847 823.495 587.274 823.495 582.124 807.209 584.838 807.209Z" stroke="#000000" stroke-width="0.488533" stroke-linejoin="round" stroke-miterlimit="2" transform="matrix(1.00206 0 0 1 -413.811 -771.867)"/><path d="M624.345 836.015 623.132 836.015 623.132 825.573 620.984 827.462 620.224 826.55 623.267 824.054 624.345 824.054 624.345 836.015Z" stroke="#000000" stroke-width="0.488533" stroke-linejoin="round" stroke-miterlimit="2" transform="matrix(1.00206 0 0 1 -427.932 -773.827)"/><path d="M570.344 787.203 574.006 800.101 574.075 800.101 578.317 787.203 580.624 787.203 584.872 800.101 584.935 800.101 588.603 787.203 591.249 787.203 586.227 803.086 583.712 803.086 579.505 790.056 579.442 790.056 575.229 803.086 572.719 803.086 567.696 787.203 570.344 787.203Z" stroke="#000000" stroke-width="0.487905" stroke-linejoin="round" stroke-miterlimit="2" transform="matrix(1.00206 0 0 1 -444.53 -687.111)"/><path d="M611.362 811.438C611.362 811.007 611.293 810.611 611.156 810.238 611.018 809.859 610.823 809.538 610.57 809.262 610.318 808.987 610.013 808.774 609.657 808.614 609.302 808.453 608.894 808.373 608.446 808.373 607.993 808.373 607.585 808.453 607.212 808.614 606.833 808.774 606.512 808.987 606.236 809.262 605.961 809.538 605.748 809.859 605.593 810.238 605.438 810.611 605.364 811.007 605.364 811.438 605.364 811.868 605.438 812.27 605.593 812.643 605.748 813.016 605.961 813.338 606.236 813.613 606.512 813.889 606.833 814.107 607.212 814.262 607.585 814.422 607.993 814.503 608.446 814.503 608.894 814.503 609.302 814.422 609.657 814.262 610.013 814.107 610.318 813.889 610.57 813.613 610.823 813.338 611.018 813.016 611.156 812.643 611.293 812.27 611.362 811.868 611.362 811.438ZM604.325 807.58 605.415 807.58 605.415 808.866 605.444 808.866C605.622 808.602 605.829 808.378 606.076 808.195 606.317 808.005 606.569 807.85 606.828 807.73 607.092 807.609 607.367 807.523 607.648 807.466 607.924 807.414 608.194 807.385 608.446 807.385 609.049 807.385 609.6 807.489 610.099 807.689 610.599 807.89 611.035 808.177 611.397 808.539 611.758 808.901 612.04 809.331 612.24 809.825 612.447 810.318 612.55 810.858 612.55 811.438 612.55 812.017 612.447 812.557 612.24 813.051 612.04 813.55 611.758 813.975 611.397 814.336 611.035 814.698 610.599 814.985 610.099 815.186 609.6 815.393 609.049 815.49 608.446 815.49 608.194 815.49 607.924 815.461 607.648 815.41 607.367 815.352 607.092 815.266 606.828 815.146 606.569 815.025 606.317 814.87 606.076 814.687 605.829 814.497 605.622 814.273 605.444 814.009L605.415 814.009 605.415 820.036 604.325 820.036 604.325 807.58Z" stroke="#000000" stroke-width="0.487905" stroke-linejoin="round" stroke-miterlimit="2" transform="matrix(1.00206 0 0 1 -457.537 -692.384)"/><path d="M632.784 806.179C632.317 806.179 631.733 806.203 631.027 806.252 630.326 806.296 629.649 806.413 629.006 806.588 628.359 806.768 627.803 807.041 627.346 807.416 626.883 807.791 626.654 808.307 626.654 808.964 626.654 809.397 626.747 809.768 626.922 810.074 627.102 810.386 627.341 810.639 627.638 810.834 627.94 811.029 628.271 811.17 628.636 811.257 629.006 811.34 629.376 811.384 629.746 811.384 630.423 811.384 631.007 811.272 631.504 811.043 632 810.819 632.419 810.517 632.755 810.133 633.096 809.748 633.344 809.295 633.5 808.784 633.661 808.268 633.744 807.718 633.744 807.138L633.744 806.179 632.784 806.179ZM633.744 804.66 633.744 804.324C633.744 802.055 632.619 800.921 630.365 800.921 628.831 800.921 627.492 801.437 626.348 802.469L625.223 801.149C626.46 799.874 628.315 799.236 630.788 799.236 631.426 799.236 632.039 799.328 632.629 799.518 633.223 799.703 633.734 799.991 634.162 800.375 634.596 800.76 634.941 801.242 635.204 801.821 635.467 802.406 635.599 803.097 635.599 803.905L635.599 809.777C635.599 810.284 635.618 810.814 635.667 811.369 635.716 811.92 635.764 812.377 635.823 812.733L634.021 812.733C633.968 812.411 633.924 812.066 633.895 811.691 633.87 811.316 633.856 810.951 633.856 810.595L633.797 810.595C633.252 811.477 632.614 812.109 631.874 812.494 631.129 812.879 630.228 813.069 629.157 813.069 628.578 813.069 628.013 812.991 627.472 812.83 626.927 812.669 626.445 812.426 626.021 812.1 625.603 811.774 625.262 811.369 625.009 810.892 624.755 810.41 624.634 809.855 624.634 809.217 624.634 808.151 624.906 807.309 625.461 806.7 626.012 806.091 626.708 805.639 627.54 805.337 628.378 805.035 629.264 804.85 630.214 804.777 631.158 804.699 632.025 804.66 632.814 804.66L633.744 804.66Z" stroke="#000000" stroke-width="0.4869" stroke-linejoin="round" stroke-miterlimit="2" transform="matrix(1.00206 0 0 1 -316.124 -639.822)"/><path d="M649.485 802.669C649.169 802.177 648.725 801.768 648.151 801.427 647.581 801.091 646.929 800.921 646.198 800.921 645.429 800.906 644.738 801.028 644.129 801.286 643.521 801.549 643 801.919 642.571 802.386 642.138 802.854 641.812 803.414 641.588 804.056 641.364 804.704 641.247 805.405 641.247 806.15 641.247 806.905 641.364 807.601 641.588 808.248 641.812 808.896 642.138 809.451 642.571 809.918 643 810.391 643.521 810.756 644.129 811.019 644.738 811.282 645.429 811.404 646.198 811.384 646.929 811.384 647.581 811.214 648.151 810.878 648.725 810.537 649.169 810.128 649.485 809.641L651.004 810.79C650.347 811.559 649.607 812.129 648.784 812.494 647.961 812.859 647.099 813.049 646.198 813.069 645.127 813.088 644.163 812.923 643.301 812.577 642.44 812.231 641.704 811.749 641.096 811.131 640.482 810.513 640.02 809.772 639.703 808.92 639.382 808.068 639.226 807.148 639.226 806.15 639.226 805.157 639.382 804.236 639.703 803.384 640.02 802.532 640.482 801.797 641.096 801.174 641.704 800.555 642.44 800.073 643.301 799.728 644.163 799.382 645.127 799.216 646.198 799.236 647.099 799.255 647.961 799.445 648.784 799.81 649.607 800.176 650.347 800.745 651.004 801.515L649.485 802.669Z" stroke="#000000" stroke-width="0.4869" stroke-linejoin="round" stroke-miterlimit="2" transform="matrix(1.00206 0 0 1 -316.124 -639.822)"/><path d="M660.255 801.261 656.462 801.261 656.462 809.023C656.462 809.509 656.506 809.904 656.599 810.215 656.696 810.522 656.828 810.766 656.993 810.931 657.163 811.102 657.363 811.218 657.597 811.282 657.835 811.35 658.093 811.384 658.371 811.384 658.692 811.384 659.019 811.335 659.354 811.243 659.695 811.145 660.002 811.024 660.284 810.878L660.367 812.592C659.676 812.908 658.838 813.069 657.865 813.069 657.509 813.069 657.139 813.025 656.754 812.927 656.37 812.835 656.019 812.655 655.703 812.397 655.381 812.134 655.118 811.778 654.914 811.326 654.709 810.878 654.602 810.284 654.602 809.553L654.602 801.261 651.822 801.261 651.822 799.572 654.602 799.572 654.602 795.862 656.462 795.862 656.462 799.572 660.255 799.572 660.255 801.261Z" stroke="#000000" stroke-width="0.4869" stroke-linejoin="round" stroke-miterlimit="2" transform="matrix(1.00206 0 0 1 -316.124 -639.822)"/><path d="M665.485 794.513C665.485 794.907 665.343 795.229 665.066 795.482 664.783 795.735 664.472 795.862 664.136 795.862 663.8 795.862 663.488 795.735 663.211 795.482 662.928 795.229 662.787 794.907 662.787 794.513 662.787 794.119 662.928 793.797 663.211 793.544 663.488 793.291 663.8 793.164 664.136 793.164 664.472 793.164 664.783 793.291 665.066 793.544 665.343 793.797 665.485 794.119 665.485 794.513ZM665.066 812.733 663.211 812.733 663.211 799.572 665.066 799.572 665.066 812.733Z" stroke="#000000" stroke-width="0.4869" stroke-linejoin="round" stroke-miterlimit="2" transform="matrix(1.00206 0 0 1 -316.124 -639.822)"/><path d="M675.325 812.733 673.246 812.733 667.904 799.572 670.125 799.572 674.312 810.649 674.37 810.649 678.558 799.572 680.671 799.572 675.325 812.733Z" stroke="#000000" stroke-width="0.4869" stroke-linejoin="round" stroke-miterlimit="2" transform="matrix(1.00206 0 0 1 -316.124 -639.822)"/><path d="M690.565 806.179C690.097 806.179 689.513 806.203 688.807 806.252 688.106 806.296 687.429 806.413 686.786 806.588 686.139 806.768 685.584 807.041 685.126 807.416 684.668 807.791 684.435 808.307 684.435 808.964 684.435 809.397 684.527 809.768 684.703 810.074 684.883 810.386 685.121 810.639 685.423 810.834 685.72 811.029 686.051 811.17 686.421 811.257 686.786 811.34 687.156 811.384 687.531 811.384 688.203 811.384 688.788 811.272 689.284 811.043 689.786 810.819 690.2 810.517 690.54 810.133 690.876 809.748 691.125 809.295 691.285 808.784 691.441 808.268 691.524 807.718 691.524 807.138L691.524 806.179 690.565 806.179ZM691.524 804.66 691.524 804.324C691.524 802.055 690.399 800.921 688.15 800.921 686.611 800.921 685.272 801.437 684.128 802.469L683.003 801.149C684.24 799.874 686.095 799.236 688.568 799.236 689.206 799.236 689.82 799.328 690.414 799.518 691.003 799.703 691.514 799.991 691.943 800.375 692.376 800.76 692.722 801.242 692.985 801.821 693.248 802.406 693.379 803.097 693.379 803.905L693.379 809.777C693.379 810.284 693.403 810.814 693.447 811.369 693.496 811.92 693.545 812.377 693.603 812.733L691.801 812.733C691.748 812.411 691.704 812.066 691.675 811.691 691.651 811.316 691.636 810.951 691.636 810.595L691.578 810.595C691.037 811.477 690.394 812.109 689.654 812.494 688.909 812.879 688.009 813.069 686.937 813.069 686.358 813.069 685.798 812.991 685.253 812.83 684.707 812.669 684.225 812.426 683.802 812.1 683.383 811.774 683.047 811.369 682.794 810.892 682.541 810.41 682.414 809.855 682.414 809.217 682.414 808.151 682.687 807.309 683.242 806.7 683.792 806.091 684.488 805.639 685.321 805.337 686.158 805.035 687.049 804.85 687.994 804.777 688.938 804.699 689.805 804.66 690.594 804.66L691.524 804.66Z" stroke="#000000" stroke-width="0.4869" stroke-linejoin="round" stroke-miterlimit="2" transform="matrix(1.00206 0 0 1 -316.124 -639.822)"/><path d="M704.485 801.261 700.687 801.261 700.687 809.023C700.687 809.509 700.736 809.904 700.829 810.215 700.921 810.522 701.053 810.766 701.223 810.931 701.393 811.102 701.593 811.218 701.827 811.282 702.06 811.35 702.319 811.384 702.601 811.384 702.917 811.384 703.248 811.335 703.584 811.243 703.92 811.145 704.232 811.024 704.514 810.878L704.597 812.592C703.901 812.908 703.068 813.069 702.095 813.069 701.739 813.069 701.369 813.025 700.984 812.927 700.6 812.835 700.249 812.655 699.928 812.397 699.611 812.134 699.348 811.778 699.144 811.326 698.935 810.878 698.832 810.284 698.832 809.553L698.832 801.261 696.047 801.261 696.047 799.572 698.832 799.572 698.832 795.862 700.687 795.862 700.687 799.572 704.485 799.572 704.485 801.261Z" stroke="#000000" stroke-width="0.4869" stroke-linejoin="round" stroke-miterlimit="2" transform="matrix(1.00206 0 0 1 -316.124 -639.822)"/><path d="M709.715 794.513C709.715 794.907 709.573 795.229 709.291 795.482 709.009 795.735 708.702 795.862 708.366 795.862 708.025 795.862 707.718 795.735 707.436 795.482 707.153 795.229 707.017 794.907 707.017 794.513 707.017 794.119 707.153 793.797 707.436 793.544 707.718 793.291 708.025 793.164 708.366 793.164 708.702 793.164 709.009 793.291 709.291 793.544 709.573 793.797 709.715 794.119 709.715 794.513ZM709.291 812.733 707.436 812.733 707.436 799.572 709.291 799.572 709.291 812.733Z" stroke="#000000" stroke-width="0.4869" stroke-linejoin="round" stroke-miterlimit="2" transform="matrix(1.00206 0 0 1 -316.124 -639.822)"/><path d="M725.037 806.15C725.037 805.42 724.92 804.738 724.687 804.1 724.453 803.462 724.117 802.912 723.689 802.44 723.255 801.972 722.739 801.602 722.13 801.33 721.517 801.057 720.83 800.921 720.061 800.921 719.292 800.921 718.605 801.057 717.997 801.33 717.383 801.602 716.872 801.972 716.448 802.44 716.025 802.912 715.699 803.462 715.465 804.1 715.231 804.738 715.114 805.42 715.114 806.15 715.114 806.885 715.231 807.567 715.465 808.205 715.699 808.842 716.025 809.397 716.448 809.865 716.872 810.332 717.383 810.702 717.997 810.975 718.605 811.248 719.292 811.384 720.061 811.384 720.83 811.384 721.517 811.248 722.13 810.975 722.739 810.702 723.255 810.332 723.689 809.865 724.117 809.397 724.453 808.842 724.687 808.205 724.92 807.567 725.037 806.885 725.037 806.15ZM727.063 806.15C727.063 807.148 726.888 808.063 726.542 808.911 726.196 809.753 725.714 810.483 725.096 811.102 724.477 811.72 723.737 812.202 722.885 812.548 722.033 812.898 721.093 813.069 720.061 813.069 719.048 813.069 718.118 812.898 717.261 812.548 716.409 812.202 715.674 811.72 715.056 811.102 714.437 810.483 713.955 809.753 713.61 808.911 713.259 808.063 713.089 807.148 713.089 806.15 713.089 805.157 713.259 804.241 713.61 803.399 713.955 802.552 714.437 801.821 715.056 801.203 715.674 800.585 716.409 800.103 717.261 799.757 718.118 799.411 719.048 799.236 720.061 799.236 721.093 799.236 722.033 799.411 722.885 799.757 723.737 800.103 724.477 800.585 725.096 801.203 725.714 801.821 726.196 802.552 726.542 803.399 726.888 804.241 727.063 805.157 727.063 806.15Z" stroke="#000000" stroke-width="0.4869" stroke-linejoin="round" stroke-miterlimit="2" transform="matrix(1.00206 0 0 1 -316.124 -639.822)"/><path d="M732.209 799.572C732.243 799.927 732.268 800.283 732.277 800.628 732.287 800.974 732.292 801.325 732.292 801.68L732.35 801.68C732.555 801.325 732.818 800.998 733.134 800.697 733.456 800.4 733.811 800.141 734.206 799.922 734.6 799.708 735.014 799.543 735.457 799.421 735.895 799.299 736.333 799.236 736.762 799.236 738.451 799.236 739.698 799.679 740.501 800.57 741.309 801.461 741.714 802.732 741.714 804.382L741.714 812.733 739.854 812.733 739.854 805.449C739.854 803.988 739.605 802.868 739.094 802.089 738.593 801.31 737.653 800.921 736.285 800.921 736.192 800.921 735.929 800.96 735.496 801.033 735.067 801.11 734.61 801.315 734.133 801.656 733.655 801.992 733.227 802.498 732.852 803.17 732.482 803.847 732.292 804.787 732.292 805.984L732.292 812.733 730.437 812.733 730.437 802.469C730.437 802.113 730.422 801.665 730.393 801.12 730.369 800.575 730.335 800.059 730.296 799.572L732.209 799.572Z" stroke="#000000" stroke-width="0.4869" stroke-linejoin="round" stroke-miterlimit="2" transform="matrix(1.00206 0 0 1 -316.124 -639.822)"/><path d="M631.436 829.375 628.315 829.375 628.315 840.851 626.46 840.851 626.46 829.375 623.674 829.375 623.674 827.69 626.46 827.69 626.46 824.092C626.46 822.349 626.864 821.107 627.667 820.367 628.475 819.627 629.542 819.257 630.871 819.257 631.134 819.257 631.402 819.272 631.674 819.311 631.947 819.35 632.215 819.394 632.478 819.452L632.137 821.141C631.913 821.083 631.679 821.034 631.436 821 631.192 820.961 630.949 820.942 630.705 820.942 630.199 820.942 629.785 821.025 629.469 821.195 629.147 821.365 628.904 821.604 628.738 821.911 628.568 822.222 628.456 822.583 628.397 822.997 628.344 823.406 628.315 823.849 628.315 824.316L628.315 827.69 631.436 827.69 631.436 829.375Z" stroke="#000000" stroke-width="0.4869" stroke-linejoin="round" stroke-miterlimit="2" transform="matrix(1.00206 0 0 1 -316.124 -639.822)"/><path d="M643.131 840.851C643.097 840.491 643.073 840.14 643.063 839.795 643.053 839.449 643.048 839.098 643.048 838.743L642.99 838.743C642.785 839.098 642.522 839.425 642.206 839.726 641.885 840.023 641.529 840.282 641.135 840.496 640.74 840.715 640.326 840.88 639.883 841.002 639.445 841.124 639.007 841.187 638.578 841.187 636.889 841.187 635.643 840.744 634.839 839.853 634.031 838.962 633.627 837.691 633.627 836.041L633.627 827.69 635.487 827.69 635.487 834.974C635.487 835.705 635.54 836.352 635.652 836.912 635.764 837.477 635.959 837.949 636.232 838.334 636.499 838.719 636.87 839.006 637.327 839.205 637.785 839.4 638.364 839.498 639.056 839.498 639.148 839.498 639.411 839.464 639.844 839.386 640.273 839.313 640.726 839.108 641.208 838.767 641.685 838.431 642.113 837.925 642.488 837.248 642.863 836.576 643.048 835.636 643.048 834.439L643.048 827.69 644.903 827.69 644.903 837.954C644.903 838.31 644.918 838.758 644.947 839.303 644.971 839.848 645.006 840.359 645.045 840.851L643.131 840.851Z" stroke="#000000" stroke-width="0.4869" stroke-linejoin="round" stroke-miterlimit="2" transform="matrix(1.00206 0 0 1 -316.124 -639.822)"/><path d="M651.033 827.69C651.072 828.046 651.097 828.396 651.102 828.747 651.111 829.093 651.116 829.443 651.116 829.799L651.175 829.799C651.379 829.443 651.642 829.117 651.963 828.815 652.28 828.513 652.635 828.26 653.03 828.041 653.424 827.827 653.843 827.656 654.281 827.534 654.719 827.413 655.157 827.354 655.586 827.354 657.275 827.354 658.522 827.797 659.325 828.688 660.134 829.579 660.538 830.85 660.538 832.501L660.538 840.851 658.683 840.851 658.683 833.567C658.683 832.106 658.429 830.987 657.923 830.208 657.417 829.429 656.477 829.039 655.109 829.039 655.016 829.039 654.753 829.078 654.325 829.151 653.891 829.229 653.439 829.433 652.962 829.769 652.479 830.11 652.056 830.617 651.681 831.289 651.306 831.965 651.116 832.9 651.116 834.103L651.116 840.851 649.261 840.851 649.261 830.587C649.261 830.232 649.247 829.779 649.222 829.239 649.193 828.693 649.159 828.177 649.12 827.69L651.033 827.69Z" stroke="#000000" stroke-width="0.4869" stroke-linejoin="round" stroke-miterlimit="2" transform="matrix(1.00206 0 0 1 -316.124 -639.822)"/><path d="M674.482 830.782C674.166 830.295 673.718 829.881 673.148 829.545 672.574 829.209 671.926 829.039 671.196 829.039 670.427 829.02 669.735 829.141 669.127 829.404 668.518 829.667 667.997 830.032 667.569 830.5 667.135 830.972 666.809 831.527 666.58 832.175 666.356 832.822 666.244 833.518 666.244 834.268 666.244 835.018 666.356 835.719 666.58 836.367 666.809 837.01 667.135 837.569 667.569 838.037 667.997 838.504 668.518 838.87 669.127 839.132 669.735 839.395 670.427 839.517 671.196 839.498 671.926 839.498 672.574 839.332 673.148 838.991 673.718 838.655 674.166 838.246 674.482 837.755L676.002 838.908C675.344 839.678 674.604 840.243 673.781 840.608 672.954 840.978 672.092 841.168 671.196 841.187 670.125 841.207 669.161 841.041 668.299 840.695 667.437 840.35 666.702 839.863 666.088 839.244 665.48 838.626 665.017 837.891 664.696 837.039 664.379 836.187 664.219 835.262 664.219 834.268 664.219 833.275 664.379 832.355 664.696 831.503 665.017 830.646 665.48 829.911 666.088 829.292 666.702 828.674 667.437 828.192 668.299 827.846 669.161 827.5 670.125 827.335 671.196 827.354 672.092 827.374 672.954 827.564 673.781 827.929 674.604 828.294 675.344 828.864 676.002 829.628L674.482 830.782Z" stroke="#000000" stroke-width="0.4869" stroke-linejoin="round" stroke-miterlimit="2" transform="matrix(1.00206 0 0 1 -316.124 -639.822)"/><path d="M685.253 829.375 681.455 829.375 681.455 837.136C681.455 837.623 681.504 838.022 681.596 838.334 681.689 838.641 681.82 838.879 681.99 839.05 682.161 839.22 682.36 839.337 682.594 839.4 682.828 839.468 683.086 839.498 683.368 839.498 683.685 839.498 684.016 839.454 684.352 839.356 684.688 839.264 685 839.142 685.282 838.991L685.365 840.71C684.668 841.026 683.836 841.187 682.862 841.187 682.507 841.187 682.137 841.138 681.752 841.046 681.367 840.953 681.017 840.773 680.695 840.51 680.379 840.247 680.116 839.892 679.911 839.444 679.702 838.991 679.6 838.402 679.6 837.672L679.6 829.375 676.815 829.375 676.815 827.69 679.6 827.69 679.6 823.98 681.455 823.98 681.455 827.69 685.253 827.69 685.253 829.375Z" stroke="#000000" stroke-width="0.4869" stroke-linejoin="round" stroke-miterlimit="2" transform="matrix(1.00206 0 0 1 -316.124 -639.822)"/><path d="M690.482 822.631C690.482 823.021 690.341 823.347 690.058 823.6 689.781 823.854 689.469 823.98 689.133 823.98 688.792 823.98 688.486 823.854 688.203 823.6 687.926 823.347 687.785 823.021 687.785 822.631 687.785 822.237 687.926 821.911 688.203 821.658 688.486 821.404 688.792 821.278 689.133 821.278 689.469 821.278 689.781 821.404 690.058 821.658 690.341 821.911 690.482 822.237 690.482 822.631ZM690.058 840.851 688.203 840.851 688.203 827.69 690.058 827.69 690.058 840.851Z" stroke="#000000" stroke-width="0.4869" stroke-linejoin="round" stroke-miterlimit="2" transform="matrix(1.00206 0 0 1 -316.124 -639.822)"/><path d="M705.805 834.268C705.805 833.538 705.688 832.856 705.454 832.218 705.22 831.581 704.889 831.026 704.456 830.558 704.023 830.091 703.507 829.721 702.898 829.448 702.284 829.175 701.598 829.039 700.829 829.039 700.059 829.039 699.373 829.175 698.764 829.448 698.156 829.721 697.639 830.091 697.216 830.558 696.792 831.026 696.466 831.581 696.232 832.218 695.999 832.856 695.882 833.538 695.882 834.268 695.882 834.999 695.999 835.685 696.232 836.323 696.466 836.961 696.792 837.511 697.216 837.983 697.639 838.451 698.156 838.821 698.764 839.093 699.373 839.361 700.059 839.498 700.829 839.498 701.598 839.498 702.284 839.361 702.898 839.093 703.507 838.821 704.023 838.451 704.456 837.983 704.889 837.511 705.22 836.961 705.454 836.323 705.688 835.685 705.805 834.999 705.805 834.268ZM707.83 834.268C707.83 835.262 707.655 836.182 707.309 837.024 706.964 837.871 706.482 838.602 705.863 839.22 705.245 839.838 704.51 840.32 703.653 840.666 702.801 841.012 701.861 841.187 700.829 841.187 699.816 841.187 698.886 841.012 698.029 840.666 697.177 840.32 696.442 839.838 695.823 839.22 695.205 838.602 694.723 837.871 694.377 837.024 694.027 836.182 693.856 835.262 693.856 834.268 693.856 833.275 694.027 832.36 694.377 831.512 694.723 830.67 695.205 829.94 695.823 829.321 696.442 828.703 697.177 828.221 698.029 827.875 698.886 827.525 699.816 827.354 700.829 827.354 701.861 827.354 702.801 827.525 703.653 827.875 704.51 828.221 705.245 828.703 705.863 829.321 706.482 829.94 706.964 830.67 707.309 831.512 707.655 832.36 707.83 833.275 707.83 834.268Z" stroke="#000000" stroke-width="0.4869" stroke-linejoin="round" stroke-miterlimit="2" transform="matrix(1.00206 0 0 1 -316.124 -639.822)"/><path d="M712.977 827.69C713.011 828.046 713.035 828.396 713.045 828.747 713.055 829.093 713.06 829.443 713.06 829.799L713.118 829.799C713.322 829.443 713.585 829.117 713.902 828.815 714.223 828.513 714.579 828.26 714.973 828.041 715.367 827.827 715.781 827.656 716.224 827.534 716.663 827.413 717.101 827.354 717.529 827.354 719.219 827.354 720.465 827.797 721.269 828.688 722.077 829.579 722.481 830.85 722.481 832.501L722.481 840.851 720.626 840.851 720.626 833.567C720.626 832.106 720.373 830.987 719.866 830.208 719.36 829.429 718.42 829.039 717.052 829.039 716.96 829.039 716.697 829.078 716.263 829.151 715.835 829.229 715.382 829.433 714.9 829.769 714.423 830.11 713.999 830.617 713.624 831.289 713.249 831.965 713.06 832.9 713.06 834.103L713.06 840.851 711.204 840.851 711.204 830.587C711.204 830.232 711.19 829.779 711.161 829.239 711.136 828.693 711.102 828.177 711.063 827.69L712.977 827.69Z" stroke="#000000" stroke-width="0.4869" stroke-linejoin="round" stroke-miterlimit="2" transform="matrix(1.00206 0 0 1 -316.124 -639.822)"/><path d="M733.266 730.476 809.373 730.476" stroke="#000000" stroke-width="10.147" stroke-linecap="round" stroke-linejoin="round" stroke-miterlimit="1.5" fill="none" fill-rule="evenodd" transform="matrix(1.00206 0 0 1 -318.833 -638.355)"/><path d="M940.502 779.848C940.502 779.042 940.373 778.285 940.116 777.587 939.858 776.883 939.492 776.271 939.014 775.755 938.542 775.24 937.967 774.826 937.296 774.531 936.619 774.23 935.862 774.08 935.013 774.08 934.165 774.08 933.407 774.23 932.736 774.531 932.065 774.826 931.495 775.24 931.028 775.755 930.566 776.271 930.201 776.883 929.943 777.587 929.685 778.285 929.556 779.042 929.556 779.848 929.556 780.654 929.685 781.411 929.943 782.115 930.201 782.818 930.566 783.425 931.028 783.941 931.495 784.462 932.065 784.87 932.736 785.165 933.407 785.466 934.165 785.616 935.013 785.616 935.862 785.616 936.619 785.466 937.296 785.165 937.967 784.87 938.542 784.462 939.014 783.941 939.492 783.425 939.858 782.818 940.116 782.115 940.373 781.411 940.502 780.654 940.502 779.848ZM942.737 779.848C942.737 780.944 942.543 781.959 942.162 782.888 941.78 783.817 941.249 784.623 940.567 785.305 939.885 785.987 939.074 786.524 938.128 786.905 937.188 787.287 936.152 787.48 935.013 787.48 933.896 787.48 932.87 787.287 931.93 786.905 930.985 786.524 930.174 785.987 929.492 785.305 928.81 784.623 928.278 783.817 927.897 782.888 927.515 781.959 927.322 780.944 927.322 779.848 927.322 778.752 927.515 777.737 927.897 776.808 928.278 775.879 928.81 775.073 929.492 774.391 930.174 773.709 930.985 773.177 931.93 772.791 932.87 772.409 933.896 772.221 935.013 772.221 936.152 772.221 937.188 772.409 938.128 772.791 939.074 773.177 939.885 773.709 940.567 774.391 941.249 775.073 941.78 775.879 942.162 776.808 942.543 777.737 942.737 778.752 942.737 779.848Z" stroke="#000000" stroke-width="0.488751" stroke-linejoin="round" stroke-miterlimit="2" transform="matrix(1.00206 0 0 1 -415.278 -706.45)"/><path d="M948.414 772.592C948.457 772.984 948.478 773.371 948.489 773.752 948.499 774.139 948.505 774.526 948.505 774.918L948.569 774.918C948.795 774.526 949.085 774.16 949.434 773.833 949.789 773.5 950.181 773.215 950.616 772.979 951.051 772.742 951.507 772.554 951.996 772.42 952.479 772.286 952.963 772.221 953.435 772.221 955.299 772.221 956.674 772.71 957.56 773.693 958.452 774.676 958.898 776.072 958.898 777.893L958.898 787.104 956.851 787.104 956.851 779.075C956.851 777.458 956.572 776.223 956.013 775.369 955.455 774.509 954.418 774.08 952.909 774.08 952.807 774.08 952.517 774.123 952.044 774.203 951.566 774.284 951.067 774.515 950.535 774.885 950.009 775.256 949.541 775.815 949.128 776.561 948.714 777.308 948.505 778.339 948.505 779.66L948.505 787.104 946.458 787.104 946.458 775.788C946.458 775.39 946.442 774.896 946.41 774.295 946.383 773.698 946.346 773.129 946.303 772.592L948.414 772.592Z" stroke="#000000" stroke-width="0.488751" stroke-linejoin="round" stroke-miterlimit="2" transform="matrix(1.00206 0 0 1 -415.278 -706.45)"/><path d="M974.994 778.731C974.994 777.345 974.581 776.223 973.753 775.369 972.926 774.509 971.766 774.08 970.278 774.08 969.618 774.08 968.973 774.209 968.356 774.466 967.738 774.724 967.196 775.073 966.728 775.508 966.261 775.938 965.89 776.438 965.611 776.996 965.332 777.555 965.192 778.135 965.192 778.731L974.994 778.731ZM965.128 780.407C965.192 781.132 965.369 781.814 965.659 782.453 965.95 783.098 966.331 783.651 966.803 784.113 967.281 784.58 967.829 784.945 968.447 785.214 969.07 785.482 969.741 785.616 970.466 785.616 971.562 785.616 972.507 785.364 973.302 784.859 974.097 784.349 974.704 783.769 975.118 783.103L976.697 784.408C975.832 785.504 974.876 786.288 973.829 786.766 972.787 787.238 971.664 787.48 970.466 787.48 969.387 787.48 968.393 787.287 967.469 786.905 966.551 786.524 965.762 785.987 965.101 785.305 964.435 784.623 963.914 783.817 963.533 782.888 963.151 781.959 962.958 780.944 962.958 779.848 962.958 778.752 963.146 777.737 963.516 776.808 963.887 775.879 964.408 775.073 965.069 774.391 965.729 773.709 966.508 773.177 967.394 772.791 968.286 772.409 969.247 772.221 970.278 772.221 971.374 772.221 972.357 772.415 973.227 772.807 974.092 773.199 974.822 773.725 975.413 774.375 975.998 775.025 976.45 775.788 976.761 776.669 977.073 777.549 977.228 778.484 977.228 779.478L977.228 780.407 965.128 780.407Z" stroke="#000000" stroke-width="0.488751" stroke-linejoin="round" stroke-miterlimit="2" transform="matrix(1.00206 0 0 1 -415.278 -706.45)"/><path d="M940.502 810.865C940.502 810.059 940.373 809.302 940.116 808.599 939.858 807.895 939.492 807.288 939.014 806.772 938.542 806.251 937.967 805.843 937.296 805.548 936.619 805.247 935.862 805.097 935.013 805.097 934.165 805.097 933.407 805.247 932.736 805.548 932.065 805.843 931.495 806.251 931.028 806.772 930.566 807.288 930.201 807.895 929.943 808.599 929.685 809.302 929.556 810.059 929.556 810.865 929.556 811.671 929.685 812.423 929.943 813.126 930.201 813.83 930.566 814.442 931.028 814.958 931.495 815.473 932.065 815.881 932.736 816.182 933.407 816.483 934.165 816.633 935.013 816.633 935.862 816.633 936.619 816.483 937.296 816.182 937.967 815.881 938.542 815.473 939.014 814.958 939.492 814.442 939.858 813.83 940.116 813.126 940.373 812.423 940.502 811.671 940.502 810.865ZM942.737 810.865C942.737 811.961 942.543 812.97 942.162 813.905 941.78 814.834 941.249 815.64 940.567 816.322 939.885 817.004 939.074 817.536 938.128 817.922 937.188 818.304 936.152 818.492 935.013 818.492 933.896 818.492 932.87 818.304 931.93 817.922 930.985 817.536 930.174 817.004 929.492 816.322 928.81 815.64 928.278 814.834 927.897 813.905 927.515 812.97 927.322 811.961 927.322 810.865 927.322 809.769 927.515 808.754 927.897 807.825 928.278 806.896 928.81 806.09 929.492 805.408 930.174 804.721 930.985 804.189 931.93 803.808 932.87 803.426 933.896 803.233 935.013 803.233 936.152 803.233 937.188 803.426 938.128 803.808 939.074 804.189 939.885 804.721 940.567 805.408 941.249 806.09 941.78 806.896 942.162 807.825 942.543 808.754 942.737 809.769 942.737 810.865Z" stroke="#000000" stroke-width="0.488751" stroke-linejoin="round" stroke-miterlimit="2" transform="matrix(1.00206 0 0 1 -415.278 -706.45)"/><path d="M956.943 818.121C956.9 817.729 956.873 817.342 956.867 816.961 956.857 816.574 956.851 816.188 956.851 815.796L956.787 815.796C956.561 816.188 956.271 816.553 955.917 816.88 955.568 817.213 955.176 817.498 954.74 817.734 954.305 817.971 953.844 818.159 953.36 818.293 952.871 818.427 952.393 818.492 951.915 818.492 950.057 818.492 948.682 818.003 947.791 817.02 946.904 816.037 946.458 814.635 946.458 812.82L946.458 803.609 948.505 803.609 948.505 811.638C948.505 812.444 948.569 813.158 948.693 813.781 948.816 814.399 949.026 814.92 949.327 815.344 949.627 815.769 950.03 816.091 950.535 816.306 951.045 816.526 951.679 816.633 952.447 816.633 952.549 816.633 952.839 816.59 953.312 816.51 953.79 816.424 954.289 816.198 954.816 815.828 955.347 815.457 955.815 814.899 956.228 814.152 956.642 813.405 956.851 812.374 956.851 811.053L956.851 803.609 958.898 803.609 958.898 814.925C958.898 815.323 958.914 815.817 958.94 816.418 958.973 817.015 959.01 817.584 959.053 818.121L956.943 818.121Z" stroke="#000000" stroke-width="0.488751" stroke-linejoin="round" stroke-miterlimit="2" transform="matrix(1.00206 0 0 1 -415.278 -706.45)"/><path d="M971.208 805.467 967.024 805.467 967.024 814.028C967.024 814.566 967.072 815.006 967.179 815.344 967.281 815.688 967.427 815.951 967.609 816.139 967.797 816.322 968.023 816.451 968.28 816.526 968.538 816.596 968.823 816.633 969.129 816.633 969.484 816.633 969.843 816.58 970.214 816.478 970.59 816.376 970.928 816.241 971.24 816.075L971.331 817.965C970.568 818.32 969.65 818.492 968.57 818.492 968.178 818.492 967.77 818.443 967.346 818.336 966.922 818.234 966.535 818.041 966.186 817.75 965.831 817.46 965.541 817.068 965.316 816.569 965.09 816.075 964.977 815.425 964.977 814.619L964.977 805.467 961.905 805.467 961.905 803.609 964.977 803.609 964.977 799.511 967.024 799.511 967.024 803.609 971.208 803.609 971.208 805.467Z" stroke="#000000" stroke-width="0.488751" stroke-linejoin="round" stroke-miterlimit="2" transform="matrix(1.00206 0 0 1 -415.278 -706.45)"/><path d="M987.245 810.865C987.245 810.059 987.116 809.302 986.858 808.599 986.595 807.895 986.23 807.288 985.757 806.772 985.279 806.251 984.705 805.843 984.033 805.548 983.362 805.247 982.605 805.097 981.756 805.097 980.907 805.097 980.129 805.247 979.43 805.548 978.727 805.843 978.115 806.251 977.599 806.772 977.083 807.288 976.681 807.895 976.391 808.599 976.1 809.302 975.955 810.059 975.955 810.865 975.955 811.671 976.1 812.423 976.391 813.126 976.681 813.83 977.083 814.442 977.599 814.958 978.115 815.473 978.727 815.881 979.43 816.182 980.129 816.483 980.907 816.633 981.756 816.633 982.605 816.633 983.362 816.483 984.033 816.182 984.705 815.881 985.279 815.473 985.757 814.958 986.23 814.442 986.595 813.83 986.858 813.126 987.116 812.423 987.245 811.671 987.245 810.865ZM974 803.609 976.047 803.609 976.047 806.026 976.111 806.026C976.439 805.532 976.836 805.107 977.287 804.753 977.744 804.404 978.217 804.114 978.716 803.888 979.21 803.657 979.72 803.491 980.252 803.389 980.779 803.287 981.278 803.233 981.756 803.233 982.895 803.233 983.931 803.426 984.871 803.808 985.811 804.189 986.622 804.721 987.304 805.408 987.986 806.09 988.523 806.896 988.905 807.825 989.286 808.754 989.479 809.769 989.479 810.865 989.479 811.961 989.286 812.97 988.905 813.905 988.523 814.834 987.986 815.64 987.304 816.322 986.622 817.004 985.811 817.536 984.871 817.922 983.931 818.304 982.895 818.492 981.756 818.492 981.278 818.492 980.779 818.443 980.252 818.336 979.72 818.234 979.21 818.067 978.716 817.842 978.217 817.616 977.744 817.326 977.287 816.977 976.836 816.623 976.439 816.198 976.111 815.704L976.047 815.704 976.047 827.053 974 827.053 974 803.609Z" stroke="#000000" stroke-width="0.488751" stroke-linejoin="round" stroke-miterlimit="2" transform="matrix(1.00206 0 0 1 -415.278 -706.45)"/><path d="M1003.43 818.121C1003.4 817.729 1003.37 817.342 1003.36 816.961 1003.35 816.574 1003.34 816.188 1003.34 815.796L1003.28 815.796C1003.05 816.188 1002.76 816.553 1002.41 816.88 1002.06 817.213 1001.67 817.498 1001.23 817.734 1000.8 817.971 1000.34 818.159 999.851 818.293 999.367 818.427 998.884 818.492 998.411 818.492 996.547 818.492 995.173 818.003 994.286 817.02 993.395 816.037 992.949 814.635 992.949 812.82L992.949 803.609 995.001 803.609 995.001 811.638C995.001 812.444 995.06 813.158 995.183 813.781 995.307 814.399 995.522 814.92 995.822 815.344 996.118 815.769 996.521 816.091 997.031 816.306 997.536 816.526 998.175 816.633 998.938 816.633 999.04 816.633 999.33 816.59 999.808 816.51 1000.28 816.424 1000.79 816.198 1001.31 815.828 1001.84 815.457 1002.31 814.899 1002.72 814.152 1003.13 813.405 1003.34 812.374 1003.34 811.053L1003.34 803.609 1005.39 803.609 1005.39 814.925C1005.39 815.323 1005.4 815.817 1005.44 816.418 1005.47 817.015 1005.5 817.584 1005.54 818.121L1003.43 818.121Z" stroke="#000000" stroke-width="0.488751" stroke-linejoin="round" stroke-miterlimit="2" transform="matrix(1.00206 0 0 1 -415.278 -706.45)"/><path d="M1017.7 805.467 1013.51 805.467 1013.51 814.028C1013.51 814.566 1013.57 815.006 1013.67 815.344 1013.77 815.688 1013.92 815.951 1014.1 816.139 1014.29 816.322 1014.51 816.451 1014.77 816.526 1015.03 816.596 1015.31 816.633 1015.62 816.633 1015.97 816.633 1016.34 816.58 1016.71 816.478 1017.08 816.376 1017.42 816.241 1017.73 816.075L1017.83 817.965C1017.06 818.32 1016.14 818.492 1015.07 818.492 1014.67 818.492 1014.27 818.443 1013.84 818.336 1013.42 818.234 1013.03 818.041 1012.68 817.75 1012.33 817.46 1012.04 817.068 1011.81 816.569 1011.58 816.075 1011.47 815.425 1011.47 814.619L1011.47 805.467 1008.4 805.467 1008.4 803.609 1011.47 803.609 1011.47 799.511 1013.51 799.511 1013.51 803.609 1017.7 803.609 1017.7 805.467Z" stroke="#000000" stroke-width="0.488751" stroke-linejoin="round" stroke-miterlimit="2" transform="matrix(1.00206 0 0 1 -415.278 -706.45)"/></g></svg>