<?xml version="1.0" encoding="UTF-8" standalone="no"?>
<!DOCTYPE svg PUBLIC "-//W3C//DTD SVG 1.1//EN" "http://www.w3.org/Graphics/SVG/1.1/DTD/svg11.dtd">
<svg width="100%" height="100%" viewBox="0 0 2349 1552" version="1.1" xmlns="http://www.w3.org/2000/svg" xmlns:xlink="http://www.w3.org/1999/xlink" xml:space="preserve" xmlns:serif="http://www.serif.com/" style="fill-rule:evenodd;clip-rule:evenodd;stroke-linecap:round;stroke-linejoin:round;stroke-miterlimit:1.5;">
    <g transform="matrix(1,0,0,1,-299.95,-380.386)">
        <g transform="matrix(0.809254,0,0,1,316.591,-328.249)">
            <path d="M952.333,1167.85L1913.15,1167.85" style="fill:none;stroke:black;stroke-width:9.56px;"/>
        </g>
        <g transform="matrix(0.809254,0,0,1,316.591,205.79)">
            <path d="M952.333,1167.85L1913.15,1167.85" style="fill:none;stroke:black;stroke-width:9.56px;"/>
        </g>
        <g transform="matrix(0.809254,0,0,1,316.591,618.933)">
            <path d="M952.333,1167.85L1913.15,1167.85" style="fill:none;stroke:black;stroke-width:9.56px;"/>
        </g>
        <g transform="matrix(0.809254,0,0,1,316.591,205.79)">
            <path d="M952.333,1167.85C1250.8,960.671 1573.62,964.903 1913.15,1167.85" style="fill:none;stroke:rgb(201,49,49);stroke-width:9.56px;"/>
        </g>
        <g transform="matrix(0.809254,0,0,1,-466.381,205.79)">
            <path d="M952.333,1167.85C1250.8,960.671 1573.62,964.903 1913.15,1167.85" style="fill:none;stroke:rgb(201,49,49);stroke-width:9.56px;"/>
        </g>
        <g transform="matrix(0.809254,0,0,1,1095.76,205.79)">
            <path d="M952.333,1167.85C1250.8,960.671 1573.62,964.903 1913.15,1167.85" style="fill:none;stroke:rgb(201,49,49);stroke-width:9.56px;"/>
        </g>
        <g transform="matrix(0.809254,0,0,1,316.591,-328.249)">
            <path d="M952.333,1167.85C1307.88,686.244 1561.33,1633.38 1913.15,1167.85" style="fill:rgb(24,0,255);fill-opacity:0;stroke:rgb(73,188,118);stroke-width:9.56px;"/>
        </g>
        <g transform="matrix(0.946319,0,0,1,186.059,627.427)">
            <path d="M952.333,1167.85C1257.92,753.915 1488.09,1395.42 1770.12,1288.3" style="fill:rgb(24,0,255);fill-opacity:0;stroke:rgb(201,49,49);stroke-width:8.93px;"/>
        </g>
        <g transform="matrix(0.946319,0,0,1,-591.437,627.427)">
            <path d="M952.333,1167.85C1257.92,753.915 1488.09,1395.42 1770.12,1288.3" style="fill:rgb(24,0,255);fill-opacity:0;stroke:rgb(201,49,49);stroke-width:8.93px;"/>
        </g>
        <g transform="matrix(0.946319,0,0,1,965.826,627.427)">
            <path d="M952.333,1167.85C1257.92,753.915 1488.09,1395.42 1770.12,1288.3" style="fill:rgb(24,0,255);fill-opacity:0;stroke:rgb(201,49,49);stroke-width:8.93px;"/>
        </g>
        <g transform="matrix(0.829231,0,0,0.829231,332.519,185.284)">
            <g transform="matrix(94.7749,0,0,94.7749,2002.71,532.381)">
                <path d="M0.068,-0.474L0.158,-0.474L0.158,-0.406L0.16,-0.406C0.177,-0.431 0.201,-0.451 0.232,-0.465C0.262,-0.479 0.293,-0.486 0.325,-0.486C0.362,-0.486 0.395,-0.48 0.425,-0.467C0.454,-0.454 0.48,-0.437 0.501,-0.414C0.522,-0.391 0.538,-0.365 0.549,-0.335C0.56,-0.304 0.566,-0.272 0.566,-0.237C0.566,-0.202 0.56,-0.169 0.549,-0.139C0.538,-0.108 0.522,-0.082 0.501,-0.06C0.48,-0.037 0.454,-0.02 0.425,-0.007C0.395,0.006 0.362,0.012 0.325,0.012C0.291,0.012 0.259,0.005 0.229,-0.01C0.199,-0.024 0.176,-0.043 0.16,-0.068L0.158,-0.068L0.158,0.282L0.068,0.282L0.068,-0.474ZM0.314,-0.402C0.29,-0.402 0.268,-0.398 0.249,-0.39C0.23,-0.381 0.213,-0.37 0.2,-0.356C0.187,-0.341 0.176,-0.324 0.169,-0.304C0.162,-0.283 0.158,-0.261 0.158,-0.237C0.158,-0.213 0.162,-0.191 0.169,-0.171C0.176,-0.15 0.187,-0.133 0.2,-0.119C0.213,-0.104 0.23,-0.093 0.249,-0.085C0.268,-0.076 0.29,-0.072 0.314,-0.072C0.338,-0.072 0.36,-0.076 0.379,-0.085C0.398,-0.093 0.415,-0.104 0.428,-0.119C0.441,-0.133 0.452,-0.15 0.459,-0.171C0.466,-0.191 0.47,-0.213 0.47,-0.237C0.47,-0.261 0.466,-0.283 0.459,-0.304C0.452,-0.324 0.441,-0.341 0.428,-0.356C0.415,-0.37 0.398,-0.381 0.379,-0.39C0.36,-0.398 0.338,-0.402 0.314,-0.402Z" style="fill-rule:nonzero;"/>
            </g>
            <g transform="matrix(94.7749,0,0,94.7749,2060.62,532.381)">
                <path d="M0.136,-0.204C0.136,-0.183 0.14,-0.165 0.15,-0.148C0.159,-0.13 0.17,-0.116 0.185,-0.104C0.2,-0.092 0.217,-0.083 0.236,-0.076C0.255,-0.069 0.275,-0.066 0.296,-0.066C0.324,-0.066 0.348,-0.073 0.369,-0.086C0.39,-0.098 0.409,-0.116 0.426,-0.137L0.494,-0.085C0.444,-0.02 0.374,0.012 0.284,0.012C0.247,0.012 0.213,0.006 0.183,-0.007C0.152,-0.02 0.127,-0.037 0.106,-0.06C0.085,-0.082 0.068,-0.108 0.057,-0.139C0.046,-0.169 0.04,-0.202 0.04,-0.237C0.04,-0.272 0.046,-0.305 0.059,-0.336C0.071,-0.366 0.088,-0.392 0.11,-0.415C0.131,-0.437 0.157,-0.454 0.187,-0.467C0.217,-0.48 0.25,-0.486 0.285,-0.486C0.327,-0.486 0.363,-0.479 0.392,-0.464C0.421,-0.449 0.444,-0.43 0.463,-0.407C0.482,-0.383 0.495,-0.356 0.504,-0.327C0.512,-0.297 0.516,-0.267 0.516,-0.236L0.516,-0.204L0.136,-0.204ZM0.42,-0.276C0.419,-0.296 0.416,-0.314 0.411,-0.331C0.405,-0.348 0.396,-0.362 0.385,-0.375C0.374,-0.387 0.36,-0.397 0.343,-0.404C0.326,-0.411 0.306,-0.414 0.283,-0.414C0.261,-0.414 0.241,-0.41 0.223,-0.402C0.204,-0.393 0.189,-0.382 0.176,-0.369C0.163,-0.356 0.154,-0.341 0.147,-0.325C0.139,-0.308 0.136,-0.292 0.136,-0.276L0.42,-0.276Z" style="fill-rule:nonzero;"/>
            </g>
            <g transform="matrix(94.7749,0,0,94.7749,2113.31,532.381)">
                <path d="M0.068,-0.474L0.158,-0.474L0.158,-0.401L0.16,-0.401C0.166,-0.414 0.174,-0.425 0.184,-0.436C0.194,-0.446 0.205,-0.455 0.218,-0.462C0.23,-0.469 0.243,-0.475 0.258,-0.48C0.273,-0.484 0.287,-0.486 0.302,-0.486C0.317,-0.486 0.33,-0.484 0.342,-0.48L0.338,-0.383C0.331,-0.385 0.323,-0.387 0.316,-0.388C0.309,-0.389 0.301,-0.39 0.294,-0.39C0.25,-0.39 0.216,-0.378 0.193,-0.353C0.17,-0.328 0.158,-0.29 0.158,-0.238L0.158,-0L0.068,-0L0.068,-0.474Z" style="fill-rule:nonzero;"/>
            </g>
            <g transform="matrix(94.7749,0,0,94.7749,2148.38,532.381)">
                <path d="M0.075,-0.474L0.165,-0.474L0.165,-0L0.075,-0L0.075,-0.474ZM0.054,-0.644C0.054,-0.662 0.061,-0.678 0.074,-0.691C0.087,-0.704 0.102,-0.71 0.12,-0.71C0.138,-0.71 0.154,-0.704 0.167,-0.691C0.18,-0.678 0.186,-0.662 0.186,-0.644C0.186,-0.626 0.18,-0.611 0.167,-0.598C0.154,-0.584 0.138,-0.578 0.12,-0.578C0.102,-0.578 0.087,-0.584 0.074,-0.598C0.061,-0.611 0.054,-0.626 0.054,-0.644Z" style="fill-rule:nonzero;"/>
            </g>
            <g transform="matrix(94.7749,0,0,94.7749,2171.13,532.381)">
                <path d="M0.141,-0.237C0.141,-0.213 0.145,-0.191 0.152,-0.171C0.159,-0.15 0.17,-0.133 0.183,-0.119C0.196,-0.104 0.213,-0.093 0.232,-0.085C0.251,-0.076 0.273,-0.072 0.297,-0.072C0.321,-0.072 0.343,-0.076 0.362,-0.085C0.381,-0.093 0.398,-0.104 0.411,-0.119C0.424,-0.133 0.435,-0.15 0.442,-0.171C0.449,-0.191 0.453,-0.213 0.453,-0.237C0.453,-0.261 0.449,-0.283 0.442,-0.304C0.435,-0.324 0.424,-0.341 0.411,-0.356C0.398,-0.37 0.381,-0.381 0.362,-0.39C0.343,-0.398 0.321,-0.402 0.297,-0.402C0.273,-0.402 0.251,-0.398 0.232,-0.39C0.213,-0.381 0.196,-0.37 0.183,-0.356C0.17,-0.341 0.159,-0.324 0.152,-0.304C0.145,-0.283 0.141,-0.261 0.141,-0.237ZM0.045,-0.237C0.045,-0.272 0.051,-0.304 0.065,-0.334C0.078,-0.364 0.095,-0.39 0.118,-0.413C0.141,-0.436 0.167,-0.454 0.198,-0.467C0.229,-0.48 0.262,-0.486 0.297,-0.486C0.332,-0.486 0.365,-0.48 0.396,-0.467C0.427,-0.454 0.453,-0.436 0.476,-0.413C0.499,-0.39 0.517,-0.364 0.53,-0.334C0.543,-0.304 0.549,-0.272 0.549,-0.237C0.549,-0.202 0.543,-0.17 0.53,-0.14C0.517,-0.109 0.499,-0.083 0.476,-0.061C0.453,-0.038 0.427,-0.021 0.396,-0.008C0.365,0.006 0.332,0.012 0.297,0.012C0.262,0.012 0.229,0.006 0.198,-0.008C0.167,-0.021 0.141,-0.038 0.118,-0.061C0.095,-0.083 0.078,-0.109 0.065,-0.14C0.051,-0.17 0.045,-0.202 0.045,-0.237Z" style="fill-rule:nonzero;"/>
            </g>
            <g transform="matrix(94.7749,0,0,94.7749,2227.42,532.381)">
                <path d="M0.543,-0L0.453,-0L0.453,-0.068L0.451,-0.068C0.434,-0.043 0.41,-0.023 0.38,-0.009C0.349,0.005 0.318,0.012 0.286,0.012C0.249,0.012 0.216,0.006 0.187,-0.007C0.157,-0.02 0.132,-0.037 0.111,-0.06C0.09,-0.083 0.073,-0.109 0.062,-0.139C0.051,-0.169 0.045,-0.202 0.045,-0.237C0.045,-0.272 0.051,-0.305 0.062,-0.336C0.073,-0.366 0.09,-0.392 0.111,-0.415C0.132,-0.437 0.157,-0.454 0.187,-0.467C0.216,-0.48 0.249,-0.486 0.286,-0.486C0.32,-0.486 0.352,-0.479 0.382,-0.465C0.412,-0.45 0.435,-0.431 0.451,-0.406L0.453,-0.406L0.453,-0.756L0.543,-0.756L0.543,-0ZM0.297,-0.072C0.321,-0.072 0.343,-0.076 0.362,-0.085C0.381,-0.093 0.398,-0.104 0.411,-0.119C0.424,-0.133 0.435,-0.15 0.442,-0.171C0.449,-0.191 0.453,-0.213 0.453,-0.237C0.453,-0.261 0.449,-0.283 0.442,-0.304C0.435,-0.324 0.424,-0.341 0.411,-0.356C0.398,-0.37 0.381,-0.381 0.362,-0.39C0.343,-0.398 0.321,-0.402 0.297,-0.402C0.273,-0.402 0.251,-0.398 0.232,-0.39C0.213,-0.381 0.196,-0.37 0.183,-0.356C0.17,-0.341 0.159,-0.324 0.152,-0.304C0.145,-0.283 0.141,-0.261 0.141,-0.237C0.141,-0.213 0.145,-0.191 0.152,-0.171C0.159,-0.15 0.17,-0.133 0.183,-0.119C0.196,-0.104 0.213,-0.093 0.232,-0.085C0.251,-0.076 0.273,-0.072 0.297,-0.072Z" style="fill-rule:nonzero;"/>
            </g>
            <g transform="matrix(94.7749,0,0,94.7749,2285.33,532.381)">
                <path d="M0.075,-0.474L0.165,-0.474L0.165,-0L0.075,-0L0.075,-0.474ZM0.054,-0.644C0.054,-0.662 0.061,-0.678 0.074,-0.691C0.087,-0.704 0.102,-0.71 0.12,-0.71C0.138,-0.71 0.154,-0.704 0.167,-0.691C0.18,-0.678 0.186,-0.662 0.186,-0.644C0.186,-0.626 0.18,-0.611 0.167,-0.598C0.154,-0.584 0.138,-0.578 0.12,-0.578C0.102,-0.578 0.087,-0.584 0.074,-0.598C0.061,-0.611 0.054,-0.626 0.054,-0.644Z" style="fill-rule:nonzero;"/>
            </g>
            <g transform="matrix(94.7749,0,0,94.7749,2308.08,532.381)">
                <path d="M0.407,-0.348C0.39,-0.365 0.373,-0.379 0.355,-0.388C0.336,-0.397 0.314,-0.401 0.289,-0.401C0.264,-0.401 0.243,-0.397 0.225,-0.388C0.206,-0.379 0.191,-0.366 0.179,-0.351C0.166,-0.335 0.157,-0.317 0.151,-0.297C0.144,-0.276 0.141,-0.255 0.141,-0.233C0.141,-0.211 0.145,-0.19 0.152,-0.171C0.159,-0.151 0.17,-0.134 0.183,-0.119C0.196,-0.104 0.212,-0.093 0.231,-0.085C0.25,-0.076 0.271,-0.072 0.294,-0.072C0.319,-0.072 0.341,-0.077 0.359,-0.086C0.377,-0.095 0.394,-0.108 0.409,-0.125L0.473,-0.061C0.45,-0.035 0.423,-0.016 0.392,-0.005C0.361,0.006 0.328,0.012 0.293,0.012C0.256,0.012 0.223,0.006 0.193,-0.006C0.162,-0.018 0.136,-0.035 0.114,-0.057C0.092,-0.078 0.075,-0.104 0.063,-0.135C0.051,-0.165 0.045,-0.198 0.045,-0.235C0.045,-0.272 0.051,-0.305 0.063,-0.336C0.075,-0.367 0.092,-0.393 0.114,-0.415C0.135,-0.437 0.161,-0.454 0.192,-0.467C0.222,-0.479 0.256,-0.485 0.293,-0.485C0.328,-0.485 0.361,-0.479 0.393,-0.467C0.424,-0.454 0.452,-0.435 0.475,-0.41L0.407,-0.348Z" style="fill-rule:nonzero;"/>
            </g>
            <g transform="matrix(94.7749,0,0,94.7749,2380.1,532.381)">
                <path d="M0.068,-0.756L0.158,-0.756L0.158,-0.406L0.16,-0.406C0.176,-0.431 0.199,-0.45 0.229,-0.465C0.259,-0.479 0.291,-0.486 0.325,-0.486C0.362,-0.486 0.395,-0.48 0.425,-0.467C0.454,-0.454 0.48,-0.437 0.501,-0.415C0.522,-0.392 0.538,-0.366 0.549,-0.336C0.56,-0.305 0.566,-0.272 0.566,-0.237C0.566,-0.202 0.56,-0.169 0.549,-0.139C0.538,-0.109 0.522,-0.083 0.501,-0.06C0.48,-0.037 0.454,-0.02 0.425,-0.007C0.395,0.006 0.362,0.012 0.325,0.012C0.293,0.012 0.262,0.005 0.232,-0.009C0.201,-0.023 0.177,-0.043 0.16,-0.068L0.158,-0.068L0.158,-0L0.068,-0L0.068,-0.756ZM0.314,-0.072C0.338,-0.072 0.36,-0.076 0.379,-0.085C0.398,-0.093 0.415,-0.104 0.428,-0.119C0.441,-0.133 0.452,-0.15 0.459,-0.171C0.466,-0.191 0.47,-0.213 0.47,-0.237C0.47,-0.261 0.466,-0.283 0.459,-0.304C0.452,-0.324 0.441,-0.341 0.428,-0.356C0.415,-0.37 0.398,-0.381 0.379,-0.39C0.36,-0.398 0.338,-0.402 0.314,-0.402C0.29,-0.402 0.268,-0.398 0.249,-0.39C0.23,-0.381 0.213,-0.37 0.2,-0.356C0.187,-0.341 0.176,-0.324 0.169,-0.304C0.162,-0.283 0.158,-0.261 0.158,-0.237C0.158,-0.213 0.162,-0.191 0.169,-0.171C0.176,-0.15 0.187,-0.133 0.2,-0.119C0.213,-0.104 0.23,-0.093 0.249,-0.085C0.268,-0.076 0.29,-0.072 0.314,-0.072Z" style="fill-rule:nonzero;"/>
            </g>
            <g transform="matrix(94.7749,0,0,94.7749,2438.01,532.381)">
                <path d="M0.141,-0.237C0.141,-0.213 0.145,-0.191 0.152,-0.171C0.159,-0.15 0.17,-0.133 0.183,-0.119C0.196,-0.104 0.213,-0.093 0.232,-0.085C0.251,-0.076 0.273,-0.072 0.297,-0.072C0.321,-0.072 0.343,-0.076 0.362,-0.085C0.381,-0.093 0.398,-0.104 0.411,-0.119C0.424,-0.133 0.435,-0.15 0.442,-0.171C0.449,-0.191 0.453,-0.213 0.453,-0.237C0.453,-0.261 0.449,-0.283 0.442,-0.304C0.435,-0.324 0.424,-0.341 0.411,-0.356C0.398,-0.37 0.381,-0.381 0.362,-0.39C0.343,-0.398 0.321,-0.402 0.297,-0.402C0.273,-0.402 0.251,-0.398 0.232,-0.39C0.213,-0.381 0.196,-0.37 0.183,-0.356C0.17,-0.341 0.159,-0.324 0.152,-0.304C0.145,-0.283 0.141,-0.261 0.141,-0.237ZM0.045,-0.237C0.045,-0.272 0.051,-0.304 0.065,-0.334C0.078,-0.364 0.095,-0.39 0.118,-0.413C0.141,-0.436 0.167,-0.454 0.198,-0.467C0.229,-0.48 0.262,-0.486 0.297,-0.486C0.332,-0.486 0.365,-0.48 0.396,-0.467C0.427,-0.454 0.453,-0.436 0.476,-0.413C0.499,-0.39 0.517,-0.364 0.53,-0.334C0.543,-0.304 0.549,-0.272 0.549,-0.237C0.549,-0.202 0.543,-0.17 0.53,-0.14C0.517,-0.109 0.499,-0.083 0.476,-0.061C0.453,-0.038 0.427,-0.021 0.396,-0.008C0.365,0.006 0.332,0.012 0.297,0.012C0.262,0.012 0.229,0.006 0.198,-0.008C0.167,-0.021 0.141,-0.038 0.118,-0.061C0.095,-0.083 0.078,-0.109 0.065,-0.14C0.051,-0.17 0.045,-0.202 0.045,-0.237Z" style="fill-rule:nonzero;"/>
            </g>
            <g transform="matrix(94.7749,0,0,94.7749,2494.31,532.381)">
                <path d="M0.488,-0L0.398,-0L0.398,-0.073L0.396,-0.073C0.385,-0.048 0.365,-0.027 0.337,-0.012C0.309,0.004 0.277,0.012 0.24,0.012C0.217,0.012 0.195,0.009 0.174,0.002C0.153,-0.006 0.135,-0.016 0.12,-0.031C0.104,-0.046 0.091,-0.065 0.082,-0.088C0.073,-0.111 0.068,-0.138 0.068,-0.169L0.068,-0.474L0.158,-0.474L0.158,-0.194C0.158,-0.172 0.161,-0.153 0.167,-0.138C0.173,-0.122 0.181,-0.109 0.191,-0.1C0.201,-0.09 0.213,-0.083 0.226,-0.079C0.239,-0.074 0.252,-0.072 0.266,-0.072C0.285,-0.072 0.302,-0.075 0.318,-0.081C0.334,-0.087 0.348,-0.096 0.36,-0.11C0.372,-0.123 0.381,-0.139 0.388,-0.159C0.395,-0.179 0.398,-0.203 0.398,-0.23L0.398,-0.474L0.488,-0.474L0.488,-0Z" style="fill-rule:nonzero;"/>
            </g>
            <g transform="matrix(94.7749,0,0,94.7749,2547,532.381)">
                <path d="M0.068,-0.474L0.158,-0.474L0.158,-0.401L0.16,-0.401C0.171,-0.426 0.191,-0.447 0.219,-0.463C0.247,-0.478 0.279,-0.486 0.316,-0.486C0.339,-0.486 0.361,-0.483 0.382,-0.476C0.403,-0.468 0.421,-0.458 0.437,-0.443C0.452,-0.428 0.465,-0.409 0.474,-0.387C0.483,-0.364 0.488,-0.336 0.488,-0.305L0.488,-0L0.398,-0L0.398,-0.28C0.398,-0.302 0.395,-0.321 0.389,-0.337C0.383,-0.352 0.375,-0.365 0.365,-0.375C0.355,-0.384 0.343,-0.391 0.331,-0.396C0.318,-0.4 0.304,-0.402 0.29,-0.402C0.271,-0.402 0.254,-0.399 0.238,-0.393C0.222,-0.387 0.208,-0.378 0.196,-0.365C0.184,-0.352 0.175,-0.335 0.168,-0.315C0.161,-0.295 0.158,-0.271 0.158,-0.244L0.158,-0L0.068,-0L0.068,-0.474Z" style="fill-rule:nonzero;"/>
            </g>
            <g transform="matrix(94.7749,0,0,94.7749,2599.7,532.381)">
                <path d="M0.543,-0L0.453,-0L0.453,-0.068L0.451,-0.068C0.434,-0.043 0.41,-0.023 0.38,-0.009C0.349,0.005 0.318,0.012 0.286,0.012C0.249,0.012 0.216,0.006 0.187,-0.007C0.157,-0.02 0.132,-0.037 0.111,-0.06C0.09,-0.083 0.073,-0.109 0.062,-0.139C0.051,-0.169 0.045,-0.202 0.045,-0.237C0.045,-0.272 0.051,-0.305 0.062,-0.336C0.073,-0.366 0.09,-0.392 0.111,-0.415C0.132,-0.437 0.157,-0.454 0.187,-0.467C0.216,-0.48 0.249,-0.486 0.286,-0.486C0.32,-0.486 0.352,-0.479 0.382,-0.465C0.412,-0.45 0.435,-0.431 0.451,-0.406L0.453,-0.406L0.453,-0.756L0.543,-0.756L0.543,-0ZM0.297,-0.072C0.321,-0.072 0.343,-0.076 0.362,-0.085C0.381,-0.093 0.398,-0.104 0.411,-0.119C0.424,-0.133 0.435,-0.15 0.442,-0.171C0.449,-0.191 0.453,-0.213 0.453,-0.237C0.453,-0.261 0.449,-0.283 0.442,-0.304C0.435,-0.324 0.424,-0.341 0.411,-0.356C0.398,-0.37 0.381,-0.381 0.362,-0.39C0.343,-0.398 0.321,-0.402 0.297,-0.402C0.273,-0.402 0.251,-0.398 0.232,-0.39C0.213,-0.381 0.196,-0.37 0.183,-0.356C0.17,-0.341 0.159,-0.324 0.152,-0.304C0.145,-0.283 0.141,-0.261 0.141,-0.237C0.141,-0.213 0.145,-0.191 0.152,-0.171C0.159,-0.15 0.17,-0.133 0.183,-0.119C0.196,-0.104 0.213,-0.093 0.232,-0.085C0.251,-0.076 0.273,-0.072 0.297,-0.072Z" style="fill-rule:nonzero;"/>
            </g>
            <g transform="matrix(94.7749,0,0,94.7749,2657.61,532.381)">
                <path d="M0.07,-0.416C0.095,-0.439 0.125,-0.457 0.158,-0.469C0.191,-0.48 0.225,-0.486 0.258,-0.486C0.293,-0.486 0.323,-0.482 0.348,-0.473C0.373,-0.464 0.393,-0.453 0.409,-0.438C0.425,-0.423 0.437,-0.407 0.445,-0.388C0.452,-0.369 0.456,-0.349 0.456,-0.328L0.456,-0.086C0.456,-0.069 0.456,-0.054 0.457,-0.04C0.458,-0.026 0.459,-0.013 0.46,-0L0.38,-0C0.378,-0.024 0.377,-0.048 0.377,-0.072L0.375,-0.072C0.355,-0.041 0.331,-0.02 0.304,-0.007C0.277,0.006 0.245,0.012 0.209,0.012C0.187,0.012 0.166,0.009 0.146,0.003C0.126,-0.003 0.109,-0.012 0.094,-0.024C0.079,-0.036 0.067,-0.051 0.058,-0.069C0.049,-0.086 0.045,-0.107 0.045,-0.13C0.045,-0.161 0.052,-0.186 0.066,-0.207C0.079,-0.228 0.098,-0.245 0.122,-0.258C0.145,-0.271 0.173,-0.28 0.205,-0.286C0.236,-0.291 0.27,-0.294 0.306,-0.294L0.372,-0.294L0.372,-0.314C0.372,-0.326 0.37,-0.338 0.365,-0.35C0.36,-0.362 0.353,-0.373 0.344,-0.383C0.335,-0.392 0.323,-0.4 0.309,-0.406C0.295,-0.411 0.278,-0.414 0.259,-0.414C0.242,-0.414 0.227,-0.412 0.214,-0.409C0.201,-0.406 0.189,-0.402 0.178,-0.397C0.167,-0.392 0.158,-0.386 0.149,-0.379C0.14,-0.372 0.132,-0.366 0.124,-0.36L0.07,-0.416ZM0.324,-0.228C0.303,-0.228 0.281,-0.227 0.259,-0.225C0.236,-0.222 0.216,-0.218 0.198,-0.211C0.179,-0.204 0.164,-0.195 0.153,-0.183C0.141,-0.171 0.135,-0.156 0.135,-0.137C0.135,-0.11 0.144,-0.09 0.163,-0.078C0.181,-0.066 0.206,-0.06 0.237,-0.06C0.262,-0.06 0.283,-0.064 0.3,-0.073C0.317,-0.081 0.331,-0.092 0.342,-0.105C0.353,-0.118 0.36,-0.133 0.365,-0.15C0.37,-0.166 0.372,-0.182 0.372,-0.198L0.372,-0.228L0.324,-0.228Z" style="fill-rule:nonzero;"/>
            </g>
            <g transform="matrix(94.7749,0,0,94.7749,2706.79,532.381)">
                <path d="M0.068,-0.474L0.158,-0.474L0.158,-0.401L0.16,-0.401C0.166,-0.414 0.174,-0.425 0.184,-0.436C0.194,-0.446 0.205,-0.455 0.218,-0.462C0.23,-0.469 0.243,-0.475 0.258,-0.48C0.273,-0.484 0.287,-0.486 0.302,-0.486C0.317,-0.486 0.33,-0.484 0.342,-0.48L0.338,-0.383C0.331,-0.385 0.323,-0.387 0.316,-0.388C0.309,-0.389 0.301,-0.39 0.294,-0.39C0.25,-0.39 0.216,-0.378 0.193,-0.353C0.17,-0.328 0.158,-0.29 0.158,-0.238L0.158,-0L0.068,-0L0.068,-0.474Z" style="fill-rule:nonzero;"/>
            </g>
            <g transform="matrix(94.7749,0,0,94.7749,2741.86,532.381)">
                <path d="M0.011,-0.474L0.115,-0.474L0.256,-0.104L0.258,-0.104L0.392,-0.474L0.489,-0.474L0.264,0.102C0.256,0.123 0.248,0.141 0.239,0.159C0.23,0.175 0.22,0.19 0.208,0.202C0.196,0.214 0.182,0.223 0.165,0.23C0.148,0.237 0.127,0.24 0.102,0.24C0.089,0.24 0.075,0.239 0.062,0.238C0.048,0.236 0.035,0.232 0.022,0.227L0.033,0.145C0.051,0.152 0.069,0.156 0.087,0.156C0.101,0.156 0.113,0.154 0.123,0.151C0.132,0.147 0.14,0.141 0.148,0.135C0.155,0.128 0.16,0.119 0.165,0.11C0.17,0.101 0.174,0.09 0.179,0.078L0.208,0.003L0.011,-0.474Z" style="fill-rule:nonzero;"/>
            </g>
        </g>
        <g transform="matrix(0.809254,0,0,1,-460.892,-328.249)">
            <path d="M952.333,1167.85C1307.88,686.244 1561.33,1633.38 1913.15,1167.85" style="fill:rgb(24,0,255);fill-opacity:0;stroke:rgb(73,188,118);stroke-width:9.56px;"/>
        </g>
        <g transform="matrix(0.809254,0,0,1,1093.53,-328.249)">
            <path d="M952.333,1167.85C1307.88,686.244 1561.33,1633.38 1913.15,1167.85" style="fill:rgb(24,0,255);fill-opacity:0;stroke:rgb(73,188,118);stroke-width:9.56px;"/>
        </g>
        <g transform="matrix(0.809254,0,0,1,316.591,-633.171)">
            <path d="M952.333,1167.85L1913.15,1167.85L1867.56,1134.79" style="fill:none;stroke:black;stroke-width:9.56px;"/>
        </g>
        <g transform="matrix(1,0,0,1,134.937,-328.249)">
            <path d="M1729.88,862.931L1694.02,900.128" style="fill:none;stroke:black;stroke-width:8.7px;"/>
        </g>
        <g transform="matrix(1,0,0,1,134.937,-328.249)">
            <path d="M952.333,862.931L990.556,824.708" style="fill:none;stroke:black;stroke-width:8.7px;"/>
        </g>
        <g transform="matrix(1,0,0,1,134.937,-328.249)">
            <path d="M952.333,862.931L987.131,897.729" style="fill:none;stroke:black;stroke-width:8.7px;"/>
        </g>
        <g transform="matrix(1,0,0,1,130.937,-326.027)">
            <path d="M953.252,1199.01L953.252,1132.19" style="fill:none;stroke:black;stroke-width:8.7px;"/>
        </g>
        <g transform="matrix(1,0,0,1,130.937,208.013)">
            <path d="M953.252,1199.01L953.252,1132.19" style="fill:none;stroke:black;stroke-width:8.7px;"/>
        </g>
        <g transform="matrix(1,0,0,1,130.937,621.155)">
            <path d="M953.252,1199.01L953.252,1132.19" style="fill:none;stroke:black;stroke-width:8.7px;"/>
        </g>
        <g transform="matrix(1,0,0,1,913.321,-326.027)">
            <path d="M953.252,1199.01L953.252,1132.19" style="fill:none;stroke:black;stroke-width:8.7px;"/>
        </g>
        <g transform="matrix(1,0,0,1,913.321,208.013)">
            <path d="M953.252,1199.01L953.252,1132.19" style="fill:none;stroke:black;stroke-width:8.7px;"/>
        </g>
        <g transform="matrix(1,0,0,1,913.321,621.155)">
            <path d="M953.252,1199.01L953.252,1132.19" style="fill:none;stroke:black;stroke-width:8.7px;"/>
        </g>
        <g transform="matrix(1,0,0,1,187.055,-371.837)">
            <g transform="matrix(166.633,0,0,166.633,1220.8,870.2)">
                <path d="M0.091,-0.708L0.187,-0.708L0.187,-0.09L0.512,-0.09L0.512,-0L0.091,-0L0.091,-0.708Z" style="fill-rule:nonzero;"/>
            </g>
        </g>
        <g transform="matrix(1,0,0,1,-123.51,-2.28953)">
            <g transform="matrix(110.973,0,0,110.973,662.71,667.827)">
                <path d="M0.068,-0.756L0.158,-0.756L0.158,-0.268L0.362,-0.473L0.487,-0.473L0.266,-0.258L0.506,-0L0.378,-0L0.158,-0.246L0.158,-0L0.068,-0L0.068,-0.756Z" style="fill:rgb(73,188,118);fill-rule:nonzero;"/>
            </g>
            <g transform="matrix(110.973,0,0,110.973,751.155,667.827)">
                <path d="M0.6,-0.42L0.6,-0.342L0.066,-0.342L0.066,-0.42L0.6,-0.42ZM0.6,-0.263L0.6,-0.185L0.066,-0.185L0.066,-0.263L0.6,-0.263Z" style="fill:rgb(73,188,118);fill-rule:nonzero;"/>
            </g>
        </g>
        <g transform="matrix(1.13549,0,0,1.13549,-267.611,-8.24688)">
            <g transform="matrix(90.7733,0,0,90.7733,871.158,592.201)">
                <path d="M0.046,-0.102L0.33,-0.384C0.34,-0.393 0.35,-0.404 0.359,-0.415C0.368,-0.426 0.377,-0.437 0.384,-0.449C0.391,-0.461 0.397,-0.474 0.402,-0.487C0.406,-0.5 0.408,-0.514 0.408,-0.529C0.408,-0.546 0.405,-0.562 0.399,-0.576C0.392,-0.59 0.384,-0.602 0.373,-0.612C0.362,-0.621 0.349,-0.629 0.334,-0.634C0.319,-0.639 0.303,-0.642 0.286,-0.642C0.251,-0.642 0.223,-0.632 0.2,-0.613C0.177,-0.594 0.163,-0.567 0.157,-0.533L0.053,-0.542C0.058,-0.573 0.067,-0.6 0.081,-0.624C0.094,-0.647 0.111,-0.666 0.132,-0.681C0.152,-0.696 0.175,-0.708 0.202,-0.715C0.228,-0.722 0.256,-0.726 0.287,-0.726C0.318,-0.726 0.347,-0.722 0.374,-0.714C0.401,-0.705 0.424,-0.693 0.445,-0.677C0.465,-0.66 0.481,-0.64 0.493,-0.616C0.504,-0.591 0.51,-0.563 0.51,-0.53C0.51,-0.507 0.507,-0.485 0.5,-0.465C0.493,-0.444 0.483,-0.425 0.472,-0.407C0.461,-0.389 0.448,-0.372 0.433,-0.356C0.418,-0.34 0.403,-0.324 0.387,-0.309L0.154,-0.084L0.51,-0.084L0.51,-0L0.046,-0L0.046,-0.102Z" style="fill:rgb(73,188,118);fill-rule:nonzero;"/>
            </g>
            <g transform="matrix(90.7733,0,0,90.7733,921.628,592.201)">
                <path d="M0.545,-0.012C0.532,-0.006 0.52,-0.001 0.509,0.002C0.497,0.005 0.484,0.007 0.471,0.007C0.45,0.007 0.433,0.004 0.421,-0.003C0.409,-0.01 0.4,-0.019 0.393,-0.03C0.386,-0.041 0.382,-0.055 0.381,-0.07C0.379,-0.085 0.378,-0.101 0.378,-0.118L0.378,-0.393L0.187,-0.393L0.187,-0L0.101,-0L0.101,-0.393L0.031,-0.393L0.031,-0.474L0.542,-0.474L0.542,-0.393L0.464,-0.393L0.464,-0.123C0.464,-0.108 0.466,-0.095 0.47,-0.084C0.473,-0.073 0.484,-0.067 0.502,-0.067C0.516,-0.067 0.53,-0.07 0.545,-0.077L0.545,-0.012Z" style="fill:rgb(73,188,118);fill-rule:nonzero;"/>
            </g>
            <g transform="matrix(90.7733,0,0,90.7733,999.33,592.201)">
                <path d="M0.07,0.044L0,0.018L0.32,-0.752L0.389,-0.726L0.07,0.044Z" style="fill:rgb(73,188,118);fill-rule:nonzero;"/>
            </g>
            <g transform="matrix(90.7733,0,0,90.7733,1059.88,592.201)">
                <path d="M0.091,-0.708L0.187,-0.708L0.187,-0.09L0.512,-0.09L0.512,-0L0.091,-0L0.091,-0.708Z" style="fill:rgb(73,188,118);fill-rule:nonzero;"/>
            </g>
        </g>
        <g transform="matrix(1,0,0,1,-11.6963,0.14009)">
            <g transform="matrix(51.6691,0,0,51.6691,1041.83,656.883)">
                <path d="M0.254,-0.69C0.233,-0.656 0.214,-0.623 0.198,-0.592C0.182,-0.561 0.169,-0.529 0.158,-0.497C0.147,-0.464 0.139,-0.431 0.134,-0.396C0.129,-0.361 0.126,-0.324 0.126,-0.284C0.126,-0.211 0.137,-0.14 0.158,-0.071C0.179,-0.002 0.211,0.061 0.254,0.12L0.194,0.16C0.148,0.097 0.112,0.028 0.087,-0.047C0.061,-0.122 0.048,-0.201 0.048,-0.284C0.048,-0.361 0.06,-0.437 0.085,-0.514C0.11,-0.591 0.146,-0.662 0.194,-0.728L0.254,-0.69Z" style="fill:rgb(73,188,118);fill-rule:nonzero;"/>
            </g>
            <g transform="matrix(51.6691,0,0,51.6691,1056.2,656.883)">
                <path d="M0.07,-0.416C0.095,-0.439 0.125,-0.457 0.158,-0.469C0.191,-0.48 0.225,-0.486 0.258,-0.486C0.293,-0.486 0.323,-0.482 0.348,-0.473C0.373,-0.464 0.393,-0.453 0.409,-0.438C0.425,-0.423 0.437,-0.407 0.445,-0.388C0.452,-0.369 0.456,-0.349 0.456,-0.328L0.456,-0.086C0.456,-0.069 0.456,-0.054 0.457,-0.04C0.458,-0.026 0.459,-0.013 0.46,-0L0.38,-0C0.378,-0.024 0.377,-0.048 0.377,-0.072L0.375,-0.072C0.355,-0.041 0.331,-0.02 0.304,-0.007C0.277,0.006 0.245,0.012 0.209,0.012C0.187,0.012 0.166,0.009 0.146,0.003C0.126,-0.003 0.109,-0.012 0.094,-0.024C0.079,-0.036 0.067,-0.051 0.058,-0.069C0.049,-0.086 0.045,-0.107 0.045,-0.13C0.045,-0.161 0.052,-0.186 0.066,-0.207C0.079,-0.228 0.098,-0.245 0.122,-0.258C0.145,-0.271 0.173,-0.28 0.205,-0.286C0.236,-0.291 0.27,-0.294 0.306,-0.294L0.372,-0.294L0.372,-0.314C0.372,-0.326 0.37,-0.338 0.365,-0.35C0.36,-0.362 0.353,-0.373 0.344,-0.383C0.335,-0.392 0.323,-0.4 0.309,-0.406C0.295,-0.411 0.278,-0.414 0.259,-0.414C0.242,-0.414 0.227,-0.412 0.214,-0.409C0.201,-0.406 0.189,-0.402 0.178,-0.397C0.167,-0.392 0.158,-0.386 0.149,-0.379C0.14,-0.372 0.132,-0.366 0.124,-0.36L0.07,-0.416ZM0.324,-0.228C0.303,-0.228 0.281,-0.227 0.259,-0.225C0.236,-0.222 0.216,-0.218 0.198,-0.211C0.179,-0.204 0.164,-0.195 0.153,-0.183C0.141,-0.171 0.135,-0.156 0.135,-0.137C0.135,-0.11 0.144,-0.09 0.163,-0.078C0.181,-0.066 0.206,-0.06 0.237,-0.06C0.262,-0.06 0.283,-0.064 0.3,-0.073C0.317,-0.081 0.331,-0.092 0.342,-0.105C0.353,-0.118 0.36,-0.133 0.365,-0.15C0.37,-0.166 0.372,-0.182 0.372,-0.198L0.372,-0.228L0.324,-0.228Z" style="fill:rgb(73,188,118);fill-rule:nonzero;"/>
            </g>
            <g transform="matrix(51.6691,0,0,51.6691,1083.01,656.883)">
                <path d="M0.068,-0.474L0.158,-0.474L0.158,-0.401L0.16,-0.401C0.171,-0.426 0.191,-0.447 0.219,-0.463C0.247,-0.478 0.279,-0.486 0.316,-0.486C0.339,-0.486 0.361,-0.483 0.382,-0.476C0.403,-0.468 0.421,-0.458 0.437,-0.443C0.452,-0.428 0.465,-0.409 0.474,-0.387C0.483,-0.364 0.488,-0.336 0.488,-0.305L0.488,-0L0.398,-0L0.398,-0.28C0.398,-0.302 0.395,-0.321 0.389,-0.337C0.383,-0.352 0.375,-0.365 0.365,-0.375C0.355,-0.384 0.343,-0.391 0.331,-0.396C0.318,-0.4 0.304,-0.402 0.29,-0.402C0.271,-0.402 0.254,-0.399 0.238,-0.393C0.222,-0.387 0.208,-0.378 0.196,-0.365C0.184,-0.352 0.175,-0.335 0.168,-0.315C0.161,-0.295 0.158,-0.271 0.158,-0.244L0.158,-0L0.068,-0L0.068,-0.474Z" style="fill:rgb(73,188,118);fill-rule:nonzero;"/>
            </g>
            <g transform="matrix(51.6691,0,0,51.6691,1111.74,656.883)">
                <path d="M0.543,-0L0.453,-0L0.453,-0.068L0.451,-0.068C0.434,-0.043 0.41,-0.023 0.38,-0.009C0.349,0.005 0.318,0.012 0.286,0.012C0.249,0.012 0.216,0.006 0.187,-0.007C0.157,-0.02 0.132,-0.037 0.111,-0.06C0.09,-0.083 0.073,-0.109 0.062,-0.139C0.051,-0.169 0.045,-0.202 0.045,-0.237C0.045,-0.272 0.051,-0.305 0.062,-0.336C0.073,-0.366 0.09,-0.392 0.111,-0.415C0.132,-0.437 0.157,-0.454 0.187,-0.467C0.216,-0.48 0.249,-0.486 0.286,-0.486C0.32,-0.486 0.352,-0.479 0.382,-0.465C0.412,-0.45 0.435,-0.431 0.451,-0.406L0.453,-0.406L0.453,-0.756L0.543,-0.756L0.543,-0ZM0.297,-0.072C0.321,-0.072 0.343,-0.076 0.362,-0.085C0.381,-0.093 0.398,-0.104 0.411,-0.119C0.424,-0.133 0.435,-0.15 0.442,-0.171C0.449,-0.191 0.453,-0.213 0.453,-0.237C0.453,-0.261 0.449,-0.283 0.442,-0.304C0.435,-0.324 0.424,-0.341 0.411,-0.356C0.398,-0.37 0.381,-0.381 0.362,-0.39C0.343,-0.398 0.321,-0.402 0.297,-0.402C0.273,-0.402 0.251,-0.398 0.232,-0.39C0.213,-0.381 0.196,-0.37 0.183,-0.356C0.17,-0.341 0.159,-0.324 0.152,-0.304C0.145,-0.283 0.141,-0.261 0.141,-0.237C0.141,-0.213 0.145,-0.191 0.152,-0.171C0.159,-0.15 0.17,-0.133 0.183,-0.119C0.196,-0.104 0.213,-0.093 0.232,-0.085C0.251,-0.076 0.273,-0.072 0.297,-0.072Z" style="fill:rgb(73,188,118);fill-rule:nonzero;"/>
            </g>
            <g transform="matrix(51.6691,0,0,51.6691,1157.68,656.883)">
                <path d="M0.068,-0.474L0.152,-0.474L0.152,-0.4L0.154,-0.4C0.156,-0.407 0.161,-0.415 0.17,-0.425C0.178,-0.435 0.189,-0.444 0.202,-0.454C0.215,-0.463 0.23,-0.47 0.248,-0.477C0.265,-0.483 0.285,-0.486 0.306,-0.486C0.341,-0.486 0.371,-0.479 0.395,-0.464C0.419,-0.449 0.439,-0.427 0.454,-0.398C0.469,-0.427 0.491,-0.449 0.519,-0.464C0.547,-0.479 0.575,-0.486 0.604,-0.486C0.641,-0.486 0.671,-0.48 0.694,-0.468C0.717,-0.456 0.736,-0.44 0.749,-0.421C0.762,-0.401 0.772,-0.379 0.777,-0.354C0.782,-0.329 0.784,-0.303 0.784,-0.276L0.784,-0L0.694,-0L0.694,-0.264C0.694,-0.282 0.693,-0.299 0.691,-0.316C0.688,-0.333 0.683,-0.347 0.676,-0.36C0.669,-0.373 0.658,-0.383 0.645,-0.391C0.632,-0.398 0.614,-0.402 0.592,-0.402C0.549,-0.402 0.518,-0.389 0.499,-0.362C0.48,-0.335 0.471,-0.301 0.471,-0.259L0.471,-0L0.381,-0L0.381,-0.248C0.381,-0.271 0.38,-0.291 0.378,-0.31C0.375,-0.329 0.371,-0.345 0.364,-0.359C0.357,-0.372 0.346,-0.383 0.334,-0.391C0.321,-0.398 0.303,-0.402 0.281,-0.402C0.265,-0.402 0.25,-0.399 0.235,-0.393C0.22,-0.386 0.206,-0.377 0.195,-0.364C0.184,-0.351 0.175,-0.335 0.168,-0.316C0.161,-0.296 0.158,-0.273 0.158,-0.246L0.158,-0L0.068,-0L0.068,-0.474Z" style="fill:rgb(73,188,118);fill-rule:nonzero;"/>
            </g>
            <g transform="matrix(51.6691,0,0,51.6691,1201.7,656.883)">
                <path d="M0.488,-0L0.398,-0L0.398,-0.073L0.396,-0.073C0.385,-0.048 0.365,-0.027 0.337,-0.012C0.309,0.004 0.277,0.012 0.24,0.012C0.217,0.012 0.195,0.009 0.174,0.002C0.153,-0.006 0.135,-0.016 0.12,-0.031C0.104,-0.046 0.091,-0.065 0.082,-0.088C0.073,-0.111 0.068,-0.138 0.068,-0.169L0.068,-0.474L0.158,-0.474L0.158,-0.194C0.158,-0.172 0.161,-0.153 0.167,-0.138C0.173,-0.122 0.181,-0.109 0.191,-0.1C0.201,-0.09 0.213,-0.083 0.226,-0.079C0.239,-0.074 0.252,-0.072 0.266,-0.072C0.285,-0.072 0.302,-0.075 0.318,-0.081C0.334,-0.087 0.348,-0.096 0.36,-0.11C0.372,-0.123 0.381,-0.139 0.388,-0.159C0.395,-0.179 0.398,-0.203 0.398,-0.23L0.398,-0.474L0.488,-0.474L0.488,-0Z" style="fill:rgb(73,188,118);fill-rule:nonzero;"/>
            </g>
            <g transform="matrix(51.6691,0,0,51.6691,1230.43,656.883)">
                <rect x="0.075" y="-0.756" width="0.09" height="0.756" style="fill:rgb(73,188,118);fill-rule:nonzero;"/>
            </g>
            <g transform="matrix(51.6691,0,0,51.6691,1242.83,656.883)">
                <path d="M0.322,-0.396L0.193,-0.396L0.193,-0.181C0.193,-0.168 0.193,-0.155 0.194,-0.142C0.195,-0.129 0.197,-0.117 0.202,-0.107C0.206,-0.096 0.213,-0.088 0.222,-0.082C0.231,-0.075 0.244,-0.072 0.261,-0.072C0.272,-0.072 0.283,-0.073 0.294,-0.075C0.305,-0.077 0.316,-0.081 0.325,-0.086L0.325,-0.004C0.314,0.002 0.301,0.006 0.284,0.009C0.267,0.011 0.253,0.012 0.244,0.012C0.209,0.012 0.183,0.007 0.164,-0.003C0.145,-0.012 0.131,-0.025 0.122,-0.04C0.113,-0.055 0.107,-0.073 0.106,-0.092C0.104,-0.111 0.103,-0.13 0.103,-0.149L0.103,-0.396L-0.001,-0.396L-0.001,-0.474L0.103,-0.474L0.103,-0.607L0.193,-0.607L0.193,-0.474L0.322,-0.474L0.322,-0.396Z" style="fill:rgb(73,188,118);fill-rule:nonzero;"/>
            </g>
            <g transform="matrix(51.6691,0,0,51.6691,1261.94,656.883)">
                <path d="M0.075,-0.474L0.165,-0.474L0.165,-0L0.075,-0L0.075,-0.474ZM0.054,-0.644C0.054,-0.662 0.061,-0.678 0.074,-0.691C0.087,-0.704 0.102,-0.71 0.12,-0.71C0.138,-0.71 0.154,-0.704 0.167,-0.691C0.18,-0.678 0.186,-0.662 0.186,-0.644C0.186,-0.626 0.18,-0.611 0.167,-0.598C0.154,-0.584 0.138,-0.578 0.12,-0.578C0.102,-0.578 0.087,-0.584 0.074,-0.598C0.061,-0.611 0.054,-0.626 0.054,-0.644Z" style="fill:rgb(73,188,118);fill-rule:nonzero;"/>
            </g>
            <g transform="matrix(51.6691,0,0,51.6691,1274.34,656.883)">
                <path d="M0.068,-0.474L0.158,-0.474L0.158,-0.406L0.16,-0.406C0.177,-0.431 0.201,-0.451 0.232,-0.465C0.262,-0.479 0.293,-0.486 0.325,-0.486C0.362,-0.486 0.395,-0.48 0.425,-0.467C0.454,-0.454 0.48,-0.437 0.501,-0.414C0.522,-0.391 0.538,-0.365 0.549,-0.335C0.56,-0.304 0.566,-0.272 0.566,-0.237C0.566,-0.202 0.56,-0.169 0.549,-0.139C0.538,-0.108 0.522,-0.082 0.501,-0.06C0.48,-0.037 0.454,-0.02 0.425,-0.007C0.395,0.006 0.362,0.012 0.325,0.012C0.291,0.012 0.259,0.005 0.229,-0.01C0.199,-0.024 0.176,-0.043 0.16,-0.068L0.158,-0.068L0.158,0.282L0.068,0.282L0.068,-0.474ZM0.314,-0.402C0.29,-0.402 0.268,-0.398 0.249,-0.39C0.23,-0.381 0.213,-0.37 0.2,-0.356C0.187,-0.341 0.176,-0.324 0.169,-0.304C0.162,-0.283 0.158,-0.261 0.158,-0.237C0.158,-0.213 0.162,-0.191 0.169,-0.171C0.176,-0.15 0.187,-0.133 0.2,-0.119C0.213,-0.104 0.23,-0.093 0.249,-0.085C0.268,-0.076 0.29,-0.072 0.314,-0.072C0.338,-0.072 0.36,-0.076 0.379,-0.085C0.398,-0.093 0.415,-0.104 0.428,-0.119C0.441,-0.133 0.452,-0.15 0.459,-0.171C0.466,-0.191 0.47,-0.213 0.47,-0.237C0.47,-0.261 0.466,-0.283 0.459,-0.304C0.452,-0.324 0.441,-0.341 0.428,-0.356C0.415,-0.37 0.398,-0.381 0.379,-0.39C0.36,-0.398 0.338,-0.402 0.314,-0.402Z" style="fill:rgb(73,188,118);fill-rule:nonzero;"/>
            </g>
            <g transform="matrix(51.6691,0,0,51.6691,1305.91,656.883)">
                <rect x="0.075" y="-0.756" width="0.09" height="0.756" style="fill:rgb(73,188,118);fill-rule:nonzero;"/>
            </g>
            <g transform="matrix(51.6691,0,0,51.6691,1318.31,656.883)">
                <path d="M0.136,-0.204C0.136,-0.183 0.14,-0.165 0.15,-0.148C0.159,-0.13 0.17,-0.116 0.185,-0.104C0.2,-0.092 0.217,-0.083 0.236,-0.076C0.255,-0.069 0.275,-0.066 0.296,-0.066C0.324,-0.066 0.348,-0.073 0.369,-0.086C0.39,-0.098 0.409,-0.116 0.426,-0.137L0.494,-0.085C0.444,-0.02 0.374,0.012 0.284,0.012C0.247,0.012 0.213,0.006 0.183,-0.007C0.152,-0.02 0.127,-0.037 0.106,-0.06C0.085,-0.082 0.068,-0.108 0.057,-0.139C0.046,-0.169 0.04,-0.202 0.04,-0.237C0.04,-0.272 0.046,-0.305 0.059,-0.336C0.071,-0.366 0.088,-0.392 0.11,-0.415C0.131,-0.437 0.157,-0.454 0.187,-0.467C0.217,-0.48 0.25,-0.486 0.285,-0.486C0.327,-0.486 0.363,-0.479 0.392,-0.464C0.421,-0.449 0.444,-0.43 0.463,-0.407C0.482,-0.383 0.495,-0.356 0.504,-0.327C0.512,-0.297 0.516,-0.267 0.516,-0.236L0.516,-0.204L0.136,-0.204ZM0.42,-0.276C0.419,-0.296 0.416,-0.314 0.411,-0.331C0.405,-0.348 0.396,-0.362 0.385,-0.375C0.374,-0.387 0.36,-0.397 0.343,-0.404C0.326,-0.411 0.306,-0.414 0.283,-0.414C0.261,-0.414 0.241,-0.41 0.223,-0.402C0.204,-0.393 0.189,-0.382 0.176,-0.369C0.163,-0.356 0.154,-0.341 0.147,-0.325C0.139,-0.308 0.136,-0.292 0.136,-0.276L0.42,-0.276Z" style="fill:rgb(73,188,118);fill-rule:nonzero;"/>
            </g>
            <g transform="matrix(51.6691,0,0,51.6691,1347.04,656.883)">
                <path d="M0.32,-0.355C0.309,-0.368 0.296,-0.38 0.281,-0.389C0.265,-0.398 0.246,-0.402 0.223,-0.402C0.202,-0.402 0.183,-0.398 0.168,-0.389C0.152,-0.38 0.144,-0.366 0.144,-0.349C0.144,-0.335 0.149,-0.324 0.158,-0.315C0.167,-0.306 0.177,-0.299 0.19,-0.294C0.202,-0.289 0.215,-0.285 0.229,-0.282C0.243,-0.279 0.255,-0.277 0.265,-0.275C0.284,-0.27 0.303,-0.265 0.32,-0.258C0.337,-0.251 0.351,-0.243 0.364,-0.232C0.376,-0.221 0.386,-0.208 0.393,-0.193C0.4,-0.178 0.403,-0.159 0.403,-0.137C0.403,-0.11 0.397,-0.088 0.386,-0.069C0.375,-0.05 0.36,-0.034 0.342,-0.022C0.324,-0.01 0.304,-0.001 0.281,0.004C0.258,0.009 0.234,0.012 0.211,0.012C0.172,0.012 0.137,0.006 0.108,-0.006C0.078,-0.018 0.051,-0.04 0.028,-0.072L0.096,-0.128C0.111,-0.113 0.127,-0.1 0.145,-0.089C0.163,-0.078 0.185,-0.072 0.211,-0.072C0.222,-0.072 0.234,-0.073 0.246,-0.076C0.257,-0.078 0.268,-0.082 0.277,-0.087C0.286,-0.092 0.293,-0.098 0.299,-0.106C0.304,-0.113 0.307,-0.122 0.307,-0.132C0.307,-0.145 0.303,-0.156 0.295,-0.165C0.286,-0.174 0.276,-0.181 0.265,-0.186C0.253,-0.191 0.241,-0.195 0.228,-0.198C0.215,-0.201 0.203,-0.203 0.193,-0.205C0.174,-0.21 0.155,-0.215 0.138,-0.221C0.121,-0.227 0.105,-0.235 0.092,-0.245C0.079,-0.255 0.068,-0.268 0.06,-0.283C0.052,-0.298 0.048,-0.317 0.048,-0.34C0.048,-0.365 0.053,-0.386 0.064,-0.405C0.074,-0.423 0.088,-0.438 0.105,-0.45C0.122,-0.462 0.141,-0.471 0.163,-0.477C0.184,-0.483 0.206,-0.486 0.228,-0.486C0.26,-0.486 0.291,-0.48 0.32,-0.468C0.349,-0.456 0.373,-0.436 0.39,-0.408L0.32,-0.355Z" style="fill:rgb(73,188,118);fill-rule:nonzero;"/>
            </g>
            <g transform="matrix(51.6691,0,0,51.6691,1369.98,656.883)">
                <path d="M0.024,0.122C0.045,0.088 0.064,0.055 0.08,0.024C0.096,-0.007 0.109,-0.039 0.12,-0.072C0.131,-0.104 0.139,-0.137 0.144,-0.172C0.149,-0.207 0.152,-0.244 0.152,-0.284C0.152,-0.357 0.141,-0.428 0.12,-0.497C0.099,-0.566 0.067,-0.629 0.024,-0.688L0.084,-0.728C0.13,-0.665 0.166,-0.596 0.192,-0.521C0.217,-0.446 0.23,-0.367 0.23,-0.284C0.23,-0.207 0.218,-0.131 0.193,-0.054C0.168,0.023 0.132,0.094 0.084,0.16L0.024,0.122Z" style="fill:rgb(73,188,118);fill-rule:nonzero;"/>
            </g>
        </g>
        <g transform="matrix(0.817637,0,0,0.817637,241.423,195.884)">
            <g transform="matrix(94.7749,0,0,94.7749,1132.58,1020.04)">
                <rect x="0.075" y="-0.756" width="0.09" height="0.756" style="fill-rule:nonzero;"/>
            </g>
            <g transform="matrix(94.7749,0,0,94.7749,1155.32,1020.04)">
                <path d="M0.075,-0.474L0.165,-0.474L0.165,-0L0.075,-0L0.075,-0.474ZM0.054,-0.644C0.054,-0.662 0.061,-0.678 0.074,-0.691C0.087,-0.704 0.102,-0.71 0.12,-0.71C0.138,-0.71 0.154,-0.704 0.167,-0.691C0.18,-0.678 0.186,-0.662 0.186,-0.644C0.186,-0.626 0.18,-0.611 0.167,-0.598C0.154,-0.584 0.138,-0.578 0.12,-0.578C0.102,-0.578 0.087,-0.584 0.074,-0.598C0.061,-0.611 0.054,-0.626 0.054,-0.644Z" style="fill-rule:nonzero;"/>
            </g>
            <g transform="matrix(94.7749,0,0,94.7749,1178.07,1020.04)">
                <path d="M0.068,-0.756L0.158,-0.756L0.158,-0.268L0.362,-0.473L0.487,-0.473L0.266,-0.258L0.506,-0L0.378,-0L0.158,-0.246L0.158,-0L0.068,-0L0.068,-0.756Z" style="fill-rule:nonzero;"/>
            </g>
            <g transform="matrix(94.7749,0,0,94.7749,1227.26,1020.04)">
                <path d="M0.136,-0.204C0.136,-0.183 0.14,-0.165 0.15,-0.148C0.159,-0.13 0.17,-0.116 0.185,-0.104C0.2,-0.092 0.217,-0.083 0.236,-0.076C0.255,-0.069 0.275,-0.066 0.296,-0.066C0.324,-0.066 0.348,-0.073 0.369,-0.086C0.39,-0.098 0.409,-0.116 0.426,-0.137L0.494,-0.085C0.444,-0.02 0.374,0.012 0.284,0.012C0.247,0.012 0.213,0.006 0.183,-0.007C0.152,-0.02 0.127,-0.037 0.106,-0.06C0.085,-0.082 0.068,-0.108 0.057,-0.139C0.046,-0.169 0.04,-0.202 0.04,-0.237C0.04,-0.272 0.046,-0.305 0.059,-0.336C0.071,-0.366 0.088,-0.392 0.11,-0.415C0.131,-0.437 0.157,-0.454 0.187,-0.467C0.217,-0.48 0.25,-0.486 0.285,-0.486C0.327,-0.486 0.363,-0.479 0.392,-0.464C0.421,-0.449 0.444,-0.43 0.463,-0.407C0.482,-0.383 0.495,-0.356 0.504,-0.327C0.512,-0.297 0.516,-0.267 0.516,-0.236L0.516,-0.204L0.136,-0.204ZM0.42,-0.276C0.419,-0.296 0.416,-0.314 0.411,-0.331C0.405,-0.348 0.396,-0.362 0.385,-0.375C0.374,-0.387 0.36,-0.397 0.343,-0.404C0.326,-0.411 0.306,-0.414 0.283,-0.414C0.261,-0.414 0.241,-0.41 0.223,-0.402C0.204,-0.393 0.189,-0.382 0.176,-0.369C0.163,-0.356 0.154,-0.341 0.147,-0.325C0.139,-0.308 0.136,-0.292 0.136,-0.276L0.42,-0.276Z" style="fill-rule:nonzero;"/>
            </g>
            <g transform="matrix(94.7749,0,0,94.7749,1306.3,1020.04)">
                <path d="M0.07,-0.416C0.095,-0.439 0.125,-0.457 0.158,-0.469C0.191,-0.48 0.225,-0.486 0.258,-0.486C0.293,-0.486 0.323,-0.482 0.348,-0.473C0.373,-0.464 0.393,-0.453 0.409,-0.438C0.425,-0.423 0.437,-0.407 0.445,-0.388C0.452,-0.369 0.456,-0.349 0.456,-0.328L0.456,-0.086C0.456,-0.069 0.456,-0.054 0.457,-0.04C0.458,-0.026 0.459,-0.013 0.46,-0L0.38,-0C0.378,-0.024 0.377,-0.048 0.377,-0.072L0.375,-0.072C0.355,-0.041 0.331,-0.02 0.304,-0.007C0.277,0.006 0.245,0.012 0.209,0.012C0.187,0.012 0.166,0.009 0.146,0.003C0.126,-0.003 0.109,-0.012 0.094,-0.024C0.079,-0.036 0.067,-0.051 0.058,-0.069C0.049,-0.086 0.045,-0.107 0.045,-0.13C0.045,-0.161 0.052,-0.186 0.066,-0.207C0.079,-0.228 0.098,-0.245 0.122,-0.258C0.145,-0.271 0.173,-0.28 0.205,-0.286C0.236,-0.291 0.27,-0.294 0.306,-0.294L0.372,-0.294L0.372,-0.314C0.372,-0.326 0.37,-0.338 0.365,-0.35C0.36,-0.362 0.353,-0.373 0.344,-0.383C0.335,-0.392 0.323,-0.4 0.309,-0.406C0.295,-0.411 0.278,-0.414 0.259,-0.414C0.242,-0.414 0.227,-0.412 0.214,-0.409C0.201,-0.406 0.189,-0.402 0.178,-0.397C0.167,-0.392 0.158,-0.386 0.149,-0.379C0.14,-0.372 0.132,-0.366 0.124,-0.36L0.07,-0.416ZM0.324,-0.228C0.303,-0.228 0.281,-0.227 0.259,-0.225C0.236,-0.222 0.216,-0.218 0.198,-0.211C0.179,-0.204 0.164,-0.195 0.153,-0.183C0.141,-0.171 0.135,-0.156 0.135,-0.137C0.135,-0.11 0.144,-0.09 0.163,-0.078C0.181,-0.066 0.206,-0.06 0.237,-0.06C0.262,-0.06 0.283,-0.064 0.3,-0.073C0.317,-0.081 0.331,-0.092 0.342,-0.105C0.353,-0.118 0.36,-0.133 0.365,-0.15C0.37,-0.166 0.372,-0.182 0.372,-0.198L0.372,-0.228L0.324,-0.228Z" style="fill-rule:nonzero;"/>
            </g>
            <g transform="matrix(94.7749,0,0,94.7749,1381.83,1020.04)">
                <path d="M0.068,-0.474L0.158,-0.474L0.158,-0.406L0.16,-0.406C0.177,-0.431 0.201,-0.451 0.232,-0.465C0.262,-0.479 0.293,-0.486 0.325,-0.486C0.362,-0.486 0.395,-0.48 0.425,-0.467C0.454,-0.454 0.48,-0.437 0.501,-0.414C0.522,-0.391 0.538,-0.365 0.549,-0.335C0.56,-0.304 0.566,-0.272 0.566,-0.237C0.566,-0.202 0.56,-0.169 0.549,-0.139C0.538,-0.108 0.522,-0.082 0.501,-0.06C0.48,-0.037 0.454,-0.02 0.425,-0.007C0.395,0.006 0.362,0.012 0.325,0.012C0.291,0.012 0.259,0.005 0.229,-0.01C0.199,-0.024 0.176,-0.043 0.16,-0.068L0.158,-0.068L0.158,0.282L0.068,0.282L0.068,-0.474ZM0.314,-0.402C0.29,-0.402 0.268,-0.398 0.249,-0.39C0.23,-0.381 0.213,-0.37 0.2,-0.356C0.187,-0.341 0.176,-0.324 0.169,-0.304C0.162,-0.283 0.158,-0.261 0.158,-0.237C0.158,-0.213 0.162,-0.191 0.169,-0.171C0.176,-0.15 0.187,-0.133 0.2,-0.119C0.213,-0.104 0.23,-0.093 0.249,-0.085C0.268,-0.076 0.29,-0.072 0.314,-0.072C0.338,-0.072 0.36,-0.076 0.379,-0.085C0.398,-0.093 0.415,-0.104 0.428,-0.119C0.441,-0.133 0.452,-0.15 0.459,-0.171C0.466,-0.191 0.47,-0.213 0.47,-0.237C0.47,-0.261 0.466,-0.283 0.459,-0.304C0.452,-0.324 0.441,-0.341 0.428,-0.356C0.415,-0.37 0.398,-0.381 0.379,-0.39C0.36,-0.398 0.338,-0.402 0.314,-0.402Z" style="fill-rule:nonzero;"/>
            </g>
            <g transform="matrix(94.7749,0,0,94.7749,1439.74,1020.04)">
                <path d="M0.141,-0.237C0.141,-0.213 0.145,-0.191 0.152,-0.171C0.159,-0.15 0.17,-0.133 0.183,-0.119C0.196,-0.104 0.213,-0.093 0.232,-0.085C0.251,-0.076 0.273,-0.072 0.297,-0.072C0.321,-0.072 0.343,-0.076 0.362,-0.085C0.381,-0.093 0.398,-0.104 0.411,-0.119C0.424,-0.133 0.435,-0.15 0.442,-0.171C0.449,-0.191 0.453,-0.213 0.453,-0.237C0.453,-0.261 0.449,-0.283 0.442,-0.304C0.435,-0.324 0.424,-0.341 0.411,-0.356C0.398,-0.37 0.381,-0.381 0.362,-0.39C0.343,-0.398 0.321,-0.402 0.297,-0.402C0.273,-0.402 0.251,-0.398 0.232,-0.39C0.213,-0.381 0.196,-0.37 0.183,-0.356C0.17,-0.341 0.159,-0.324 0.152,-0.304C0.145,-0.283 0.141,-0.261 0.141,-0.237ZM0.045,-0.237C0.045,-0.272 0.051,-0.304 0.065,-0.334C0.078,-0.364 0.095,-0.39 0.118,-0.413C0.141,-0.436 0.167,-0.454 0.198,-0.467C0.229,-0.48 0.262,-0.486 0.297,-0.486C0.332,-0.486 0.365,-0.48 0.396,-0.467C0.427,-0.454 0.453,-0.436 0.476,-0.413C0.499,-0.39 0.517,-0.364 0.53,-0.334C0.543,-0.304 0.549,-0.272 0.549,-0.237C0.549,-0.202 0.543,-0.17 0.53,-0.14C0.517,-0.109 0.499,-0.083 0.476,-0.061C0.453,-0.038 0.427,-0.021 0.396,-0.008C0.365,0.006 0.332,0.012 0.297,0.012C0.262,0.012 0.229,0.006 0.198,-0.008C0.167,-0.021 0.141,-0.038 0.118,-0.061C0.095,-0.083 0.078,-0.109 0.065,-0.14C0.051,-0.17 0.045,-0.202 0.045,-0.237Z" style="fill-rule:nonzero;"/>
            </g>
            <g transform="matrix(94.7749,0,0,94.7749,1496.04,1020.04)">
                <path d="M0.068,-0.474L0.158,-0.474L0.158,-0.401L0.16,-0.401C0.166,-0.414 0.174,-0.425 0.184,-0.436C0.194,-0.446 0.205,-0.455 0.218,-0.462C0.23,-0.469 0.243,-0.475 0.258,-0.48C0.273,-0.484 0.287,-0.486 0.302,-0.486C0.317,-0.486 0.33,-0.484 0.342,-0.48L0.338,-0.383C0.331,-0.385 0.323,-0.387 0.316,-0.388C0.309,-0.389 0.301,-0.39 0.294,-0.39C0.25,-0.39 0.216,-0.378 0.193,-0.353C0.17,-0.328 0.158,-0.29 0.158,-0.238L0.158,-0L0.068,-0L0.068,-0.474Z" style="fill-rule:nonzero;"/>
            </g>
            <g transform="matrix(94.7749,0,0,94.7749,1531.1,1020.04)">
                <path d="M0.322,-0.396L0.193,-0.396L0.193,-0.181C0.193,-0.168 0.193,-0.155 0.194,-0.142C0.195,-0.129 0.197,-0.117 0.202,-0.107C0.206,-0.096 0.213,-0.088 0.222,-0.082C0.231,-0.075 0.244,-0.072 0.261,-0.072C0.272,-0.072 0.283,-0.073 0.294,-0.075C0.305,-0.077 0.316,-0.081 0.325,-0.086L0.325,-0.004C0.314,0.002 0.301,0.006 0.284,0.009C0.267,0.011 0.253,0.012 0.244,0.012C0.209,0.012 0.183,0.007 0.164,-0.003C0.145,-0.012 0.131,-0.025 0.122,-0.04C0.113,-0.055 0.107,-0.073 0.106,-0.092C0.104,-0.111 0.103,-0.13 0.103,-0.149L0.103,-0.396L-0.001,-0.396L-0.001,-0.474L0.103,-0.474L0.103,-0.607L0.193,-0.607L0.193,-0.474L0.322,-0.474L0.322,-0.396Z" style="fill-rule:nonzero;"/>
            </g>
            <g transform="matrix(94.7749,0,0,94.7749,1566.17,1020.04)">
                <path d="M0.07,-0.416C0.095,-0.439 0.125,-0.457 0.158,-0.469C0.191,-0.48 0.225,-0.486 0.258,-0.486C0.293,-0.486 0.323,-0.482 0.348,-0.473C0.373,-0.464 0.393,-0.453 0.409,-0.438C0.425,-0.423 0.437,-0.407 0.445,-0.388C0.452,-0.369 0.456,-0.349 0.456,-0.328L0.456,-0.086C0.456,-0.069 0.456,-0.054 0.457,-0.04C0.458,-0.026 0.459,-0.013 0.46,-0L0.38,-0C0.378,-0.024 0.377,-0.048 0.377,-0.072L0.375,-0.072C0.355,-0.041 0.331,-0.02 0.304,-0.007C0.277,0.006 0.245,0.012 0.209,0.012C0.187,0.012 0.166,0.009 0.146,0.003C0.126,-0.003 0.109,-0.012 0.094,-0.024C0.079,-0.036 0.067,-0.051 0.058,-0.069C0.049,-0.086 0.045,-0.107 0.045,-0.13C0.045,-0.161 0.052,-0.186 0.066,-0.207C0.079,-0.228 0.098,-0.245 0.122,-0.258C0.145,-0.271 0.173,-0.28 0.205,-0.286C0.236,-0.291 0.27,-0.294 0.306,-0.294L0.372,-0.294L0.372,-0.314C0.372,-0.326 0.37,-0.338 0.365,-0.35C0.36,-0.362 0.353,-0.373 0.344,-0.383C0.335,-0.392 0.323,-0.4 0.309,-0.406C0.295,-0.411 0.278,-0.414 0.259,-0.414C0.242,-0.414 0.227,-0.412 0.214,-0.409C0.201,-0.406 0.189,-0.402 0.178,-0.397C0.167,-0.392 0.158,-0.386 0.149,-0.379C0.14,-0.372 0.132,-0.366 0.124,-0.36L0.07,-0.416ZM0.324,-0.228C0.303,-0.228 0.281,-0.227 0.259,-0.225C0.236,-0.222 0.216,-0.218 0.198,-0.211C0.179,-0.204 0.164,-0.195 0.153,-0.183C0.141,-0.171 0.135,-0.156 0.135,-0.137C0.135,-0.11 0.144,-0.09 0.163,-0.078C0.181,-0.066 0.206,-0.06 0.237,-0.06C0.262,-0.06 0.283,-0.064 0.3,-0.073C0.317,-0.081 0.331,-0.092 0.342,-0.105C0.353,-0.118 0.36,-0.133 0.365,-0.15C0.37,-0.166 0.372,-0.182 0.372,-0.198L0.372,-0.228L0.324,-0.228Z" style="fill-rule:nonzero;"/>
            </g>
            <g transform="matrix(94.7749,0,0,94.7749,1615.36,1020.04)">
                <rect x="0.075" y="-0.756" width="0.09" height="0.756" style="fill-rule:nonzero;"/>
            </g>
        </g>
        <path d="M1088.03,911.66C1093.89,943.075 1109.58,969.919 1135.62,988.384" style="fill:none;stroke:black;stroke-width:8.4px;"/>
        <path d="M1135.62,988.384L1131.39,965.32" style="fill:none;stroke:black;stroke-width:8.4px;"/>
        <path d="M1135.62,988.384L1114.76,991.942" style="fill:none;stroke:black;stroke-width:8.4px;"/>
        <path d="M1869.07,916.147L1849.71,921.108" style="fill:none;stroke:black;stroke-width:8.4px;"/>
        <g transform="matrix(1,0,0,1,0.45663,0.0869062)">
            <path d="M1869.07,916.147L1875.38,937.272" style="fill:none;stroke:black;stroke-width:8.4px;"/>
        </g>
        <g transform="matrix(1,0,0,1,-16.3059,-11.8253)">
            <path d="M1633.04,1029.77C1741.87,1060.01 1824.24,1017.3 1886.04,929.165" style="fill:none;stroke:black;stroke-width:8.7px;"/>
        </g>
        <g transform="matrix(1,0,0,1,-12.8,-9.64825)">
            <g transform="matrix(36.5667,0,0,36.5667,1179.73,1095.74)">
                <path d="M0.254,-0.69C0.233,-0.656 0.214,-0.623 0.198,-0.592C0.182,-0.561 0.169,-0.529 0.158,-0.497C0.147,-0.464 0.139,-0.431 0.134,-0.396C0.129,-0.361 0.126,-0.324 0.126,-0.284C0.126,-0.211 0.137,-0.14 0.158,-0.071C0.179,-0.002 0.211,0.061 0.254,0.12L0.194,0.16C0.148,0.097 0.112,0.028 0.087,-0.047C0.061,-0.122 0.048,-0.201 0.048,-0.284C0.048,-0.361 0.06,-0.437 0.085,-0.514C0.11,-0.591 0.146,-0.662 0.194,-0.728L0.254,-0.69Z" style="fill-rule:nonzero;"/>
            </g>
            <g transform="matrix(36.5667,0,0,36.5667,1189.9,1095.74)">
                <path d="M0.07,-0.416C0.095,-0.439 0.125,-0.457 0.158,-0.469C0.191,-0.48 0.225,-0.486 0.258,-0.486C0.293,-0.486 0.323,-0.482 0.348,-0.473C0.373,-0.464 0.393,-0.453 0.409,-0.438C0.425,-0.423 0.437,-0.407 0.445,-0.388C0.452,-0.369 0.456,-0.349 0.456,-0.328L0.456,-0.086C0.456,-0.069 0.456,-0.054 0.457,-0.04C0.458,-0.026 0.459,-0.013 0.46,-0L0.38,-0C0.378,-0.024 0.377,-0.048 0.377,-0.072L0.375,-0.072C0.355,-0.041 0.331,-0.02 0.304,-0.007C0.277,0.006 0.245,0.012 0.209,0.012C0.187,0.012 0.166,0.009 0.146,0.003C0.126,-0.003 0.109,-0.012 0.094,-0.024C0.079,-0.036 0.067,-0.051 0.058,-0.069C0.049,-0.086 0.045,-0.107 0.045,-0.13C0.045,-0.161 0.052,-0.186 0.066,-0.207C0.079,-0.228 0.098,-0.245 0.122,-0.258C0.145,-0.271 0.173,-0.28 0.205,-0.286C0.236,-0.291 0.27,-0.294 0.306,-0.294L0.372,-0.294L0.372,-0.314C0.372,-0.326 0.37,-0.338 0.365,-0.35C0.36,-0.362 0.353,-0.373 0.344,-0.383C0.335,-0.392 0.323,-0.4 0.309,-0.406C0.295,-0.411 0.278,-0.414 0.259,-0.414C0.242,-0.414 0.227,-0.412 0.214,-0.409C0.201,-0.406 0.189,-0.402 0.178,-0.397C0.167,-0.392 0.158,-0.386 0.149,-0.379C0.14,-0.372 0.132,-0.366 0.124,-0.36L0.07,-0.416ZM0.324,-0.228C0.303,-0.228 0.281,-0.227 0.259,-0.225C0.236,-0.222 0.216,-0.218 0.198,-0.211C0.179,-0.204 0.164,-0.195 0.153,-0.183C0.141,-0.171 0.135,-0.156 0.135,-0.137C0.135,-0.11 0.144,-0.09 0.163,-0.078C0.181,-0.066 0.206,-0.06 0.237,-0.06C0.262,-0.06 0.283,-0.064 0.3,-0.073C0.317,-0.081 0.331,-0.092 0.342,-0.105C0.353,-0.118 0.36,-0.133 0.365,-0.15C0.37,-0.166 0.372,-0.182 0.372,-0.198L0.372,-0.228L0.324,-0.228Z" style="fill-rule:nonzero;"/>
            </g>
            <g transform="matrix(36.5667,0,0,36.5667,1208.87,1095.74)">
                <path d="M0.068,-0.474L0.158,-0.474L0.158,-0.401L0.16,-0.401C0.171,-0.426 0.191,-0.447 0.219,-0.463C0.247,-0.478 0.279,-0.486 0.316,-0.486C0.339,-0.486 0.361,-0.483 0.382,-0.476C0.403,-0.468 0.421,-0.458 0.437,-0.443C0.452,-0.428 0.465,-0.409 0.474,-0.387C0.483,-0.364 0.488,-0.336 0.488,-0.305L0.488,-0L0.398,-0L0.398,-0.28C0.398,-0.302 0.395,-0.321 0.389,-0.337C0.383,-0.352 0.375,-0.365 0.365,-0.375C0.355,-0.384 0.343,-0.391 0.331,-0.396C0.318,-0.4 0.304,-0.402 0.29,-0.402C0.271,-0.402 0.254,-0.399 0.238,-0.393C0.222,-0.387 0.208,-0.378 0.196,-0.365C0.184,-0.352 0.175,-0.335 0.168,-0.315C0.161,-0.295 0.158,-0.271 0.158,-0.244L0.158,-0L0.068,-0L0.068,-0.474Z" style="fill-rule:nonzero;"/>
            </g>
            <g transform="matrix(36.5667,0,0,36.5667,1229.2,1095.74)">
                <path d="M0.543,-0L0.453,-0L0.453,-0.068L0.451,-0.068C0.434,-0.043 0.41,-0.023 0.38,-0.009C0.349,0.005 0.318,0.012 0.286,0.012C0.249,0.012 0.216,0.006 0.187,-0.007C0.157,-0.02 0.132,-0.037 0.111,-0.06C0.09,-0.083 0.073,-0.109 0.062,-0.139C0.051,-0.169 0.045,-0.202 0.045,-0.237C0.045,-0.272 0.051,-0.305 0.062,-0.336C0.073,-0.366 0.09,-0.392 0.111,-0.415C0.132,-0.437 0.157,-0.454 0.187,-0.467C0.216,-0.48 0.249,-0.486 0.286,-0.486C0.32,-0.486 0.352,-0.479 0.382,-0.465C0.412,-0.45 0.435,-0.431 0.451,-0.406L0.453,-0.406L0.453,-0.756L0.543,-0.756L0.543,-0ZM0.297,-0.072C0.321,-0.072 0.343,-0.076 0.362,-0.085C0.381,-0.093 0.398,-0.104 0.411,-0.119C0.424,-0.133 0.435,-0.15 0.442,-0.171C0.449,-0.191 0.453,-0.213 0.453,-0.237C0.453,-0.261 0.449,-0.283 0.442,-0.304C0.435,-0.324 0.424,-0.341 0.411,-0.356C0.398,-0.37 0.381,-0.381 0.362,-0.39C0.343,-0.398 0.321,-0.402 0.297,-0.402C0.273,-0.402 0.251,-0.398 0.232,-0.39C0.213,-0.381 0.196,-0.37 0.183,-0.356C0.17,-0.341 0.159,-0.324 0.152,-0.304C0.145,-0.283 0.141,-0.261 0.141,-0.237C0.141,-0.213 0.145,-0.191 0.152,-0.171C0.159,-0.15 0.17,-0.133 0.183,-0.119C0.196,-0.104 0.213,-0.093 0.232,-0.085C0.251,-0.076 0.273,-0.072 0.297,-0.072Z" style="fill-rule:nonzero;"/>
            </g>
            <g transform="matrix(36.5667,0,0,36.5667,1261.71,1095.74)">
                <path d="M0.011,-0.474L0.115,-0.474L0.257,-0.111L0.393,-0.474L0.489,-0.474L0.303,-0L0.204,-0L0.011,-0.474Z" style="fill-rule:nonzero;"/>
            </g>
            <g transform="matrix(36.5667,0,0,36.5667,1280,1095.74)">
                <path d="M0.075,-0.474L0.165,-0.474L0.165,-0L0.075,-0L0.075,-0.474ZM0.054,-0.644C0.054,-0.662 0.061,-0.678 0.074,-0.691C0.087,-0.704 0.102,-0.71 0.12,-0.71C0.138,-0.71 0.154,-0.704 0.167,-0.691C0.18,-0.678 0.186,-0.662 0.186,-0.644C0.186,-0.626 0.18,-0.611 0.167,-0.598C0.154,-0.584 0.138,-0.578 0.12,-0.578C0.102,-0.578 0.087,-0.584 0.074,-0.598C0.061,-0.611 0.054,-0.626 0.054,-0.644Z" style="fill-rule:nonzero;"/>
            </g>
            <g transform="matrix(36.5667,0,0,36.5667,1288.77,1095.74)">
                <path d="M0.407,-0.348C0.39,-0.365 0.373,-0.379 0.355,-0.388C0.336,-0.397 0.314,-0.401 0.289,-0.401C0.264,-0.401 0.243,-0.397 0.225,-0.388C0.206,-0.379 0.191,-0.366 0.179,-0.351C0.166,-0.335 0.157,-0.317 0.151,-0.297C0.144,-0.276 0.141,-0.255 0.141,-0.233C0.141,-0.211 0.145,-0.19 0.152,-0.171C0.159,-0.151 0.17,-0.134 0.183,-0.119C0.196,-0.104 0.212,-0.093 0.231,-0.085C0.25,-0.076 0.271,-0.072 0.294,-0.072C0.319,-0.072 0.341,-0.077 0.359,-0.086C0.377,-0.095 0.394,-0.108 0.409,-0.125L0.473,-0.061C0.45,-0.035 0.423,-0.016 0.392,-0.005C0.361,0.006 0.328,0.012 0.293,0.012C0.256,0.012 0.223,0.006 0.193,-0.006C0.162,-0.018 0.136,-0.035 0.114,-0.057C0.092,-0.078 0.075,-0.104 0.063,-0.135C0.051,-0.165 0.045,-0.198 0.045,-0.235C0.045,-0.272 0.051,-0.305 0.063,-0.336C0.075,-0.367 0.092,-0.393 0.114,-0.415C0.135,-0.437 0.161,-0.454 0.192,-0.467C0.222,-0.479 0.256,-0.485 0.293,-0.485C0.328,-0.485 0.361,-0.479 0.393,-0.467C0.424,-0.454 0.452,-0.435 0.475,-0.41L0.407,-0.348Z" style="fill-rule:nonzero;"/>
            </g>
            <g transform="matrix(36.5667,0,0,36.5667,1306.4,1095.74)">
                <path d="M0.136,-0.204C0.136,-0.183 0.14,-0.165 0.15,-0.148C0.159,-0.13 0.17,-0.116 0.185,-0.104C0.2,-0.092 0.217,-0.083 0.236,-0.076C0.255,-0.069 0.275,-0.066 0.296,-0.066C0.324,-0.066 0.348,-0.073 0.369,-0.086C0.39,-0.098 0.409,-0.116 0.426,-0.137L0.494,-0.085C0.444,-0.02 0.374,0.012 0.284,0.012C0.247,0.012 0.213,0.006 0.183,-0.007C0.152,-0.02 0.127,-0.037 0.106,-0.06C0.085,-0.082 0.068,-0.108 0.057,-0.139C0.046,-0.169 0.04,-0.202 0.04,-0.237C0.04,-0.272 0.046,-0.305 0.059,-0.336C0.071,-0.366 0.088,-0.392 0.11,-0.415C0.131,-0.437 0.157,-0.454 0.187,-0.467C0.217,-0.48 0.25,-0.486 0.285,-0.486C0.327,-0.486 0.363,-0.479 0.392,-0.464C0.421,-0.449 0.444,-0.43 0.463,-0.407C0.482,-0.383 0.495,-0.356 0.504,-0.327C0.512,-0.297 0.516,-0.267 0.516,-0.236L0.516,-0.204L0.136,-0.204ZM0.42,-0.276C0.419,-0.296 0.416,-0.314 0.411,-0.331C0.405,-0.348 0.396,-0.362 0.385,-0.375C0.374,-0.387 0.36,-0.397 0.343,-0.404C0.326,-0.411 0.306,-0.414 0.283,-0.414C0.261,-0.414 0.241,-0.41 0.223,-0.402C0.204,-0.393 0.189,-0.382 0.176,-0.369C0.163,-0.356 0.154,-0.341 0.147,-0.325C0.139,-0.308 0.136,-0.292 0.136,-0.276L0.42,-0.276Z" style="fill-rule:nonzero;"/>
            </g>
            <g transform="matrix(36.5667,0,0,36.5667,1336.89,1095.74)">
                <path d="M0.011,-0.474L0.115,-0.474L0.257,-0.111L0.393,-0.474L0.489,-0.474L0.303,-0L0.204,-0L0.011,-0.474Z" style="fill-rule:nonzero;"/>
            </g>
            <g transform="matrix(36.5667,0,0,36.5667,1355.18,1095.74)">
                <path d="M0.136,-0.204C0.136,-0.183 0.14,-0.165 0.15,-0.148C0.159,-0.13 0.17,-0.116 0.185,-0.104C0.2,-0.092 0.217,-0.083 0.236,-0.076C0.255,-0.069 0.275,-0.066 0.296,-0.066C0.324,-0.066 0.348,-0.073 0.369,-0.086C0.39,-0.098 0.409,-0.116 0.426,-0.137L0.494,-0.085C0.444,-0.02 0.374,0.012 0.284,0.012C0.247,0.012 0.213,0.006 0.183,-0.007C0.152,-0.02 0.127,-0.037 0.106,-0.06C0.085,-0.082 0.068,-0.108 0.057,-0.139C0.046,-0.169 0.04,-0.202 0.04,-0.237C0.04,-0.272 0.046,-0.305 0.059,-0.336C0.071,-0.366 0.088,-0.392 0.11,-0.415C0.131,-0.437 0.157,-0.454 0.187,-0.467C0.217,-0.48 0.25,-0.486 0.285,-0.486C0.327,-0.486 0.363,-0.479 0.392,-0.464C0.421,-0.449 0.444,-0.43 0.463,-0.407C0.482,-0.383 0.495,-0.356 0.504,-0.327C0.512,-0.297 0.516,-0.267 0.516,-0.236L0.516,-0.204L0.136,-0.204ZM0.42,-0.276C0.419,-0.296 0.416,-0.314 0.411,-0.331C0.405,-0.348 0.396,-0.362 0.385,-0.375C0.374,-0.387 0.36,-0.397 0.343,-0.404C0.326,-0.411 0.306,-0.414 0.283,-0.414C0.261,-0.414 0.241,-0.41 0.223,-0.402C0.204,-0.393 0.189,-0.382 0.176,-0.369C0.163,-0.356 0.154,-0.341 0.147,-0.325C0.139,-0.308 0.136,-0.292 0.136,-0.276L0.42,-0.276Z" style="fill-rule:nonzero;"/>
            </g>
            <g transform="matrix(36.5667,0,0,36.5667,1375.51,1095.74)">
                <path d="M0.068,-0.474L0.158,-0.474L0.158,-0.401L0.16,-0.401C0.166,-0.414 0.174,-0.425 0.184,-0.436C0.194,-0.446 0.205,-0.455 0.218,-0.462C0.23,-0.469 0.243,-0.475 0.258,-0.48C0.273,-0.484 0.287,-0.486 0.302,-0.486C0.317,-0.486 0.33,-0.484 0.342,-0.48L0.338,-0.383C0.331,-0.385 0.323,-0.387 0.316,-0.388C0.309,-0.389 0.301,-0.39 0.294,-0.39C0.25,-0.39 0.216,-0.378 0.193,-0.353C0.17,-0.328 0.158,-0.29 0.158,-0.238L0.158,-0L0.068,-0L0.068,-0.474Z" style="fill-rule:nonzero;"/>
            </g>
            <g transform="matrix(36.5667,0,0,36.5667,1389.04,1095.74)">
                <path d="M0.32,-0.355C0.309,-0.368 0.296,-0.38 0.281,-0.389C0.265,-0.398 0.246,-0.402 0.223,-0.402C0.202,-0.402 0.183,-0.398 0.168,-0.389C0.152,-0.38 0.144,-0.366 0.144,-0.349C0.144,-0.335 0.149,-0.324 0.158,-0.315C0.167,-0.306 0.177,-0.299 0.19,-0.294C0.202,-0.289 0.215,-0.285 0.229,-0.282C0.243,-0.279 0.255,-0.277 0.265,-0.275C0.284,-0.27 0.303,-0.265 0.32,-0.258C0.337,-0.251 0.351,-0.243 0.364,-0.232C0.376,-0.221 0.386,-0.208 0.393,-0.193C0.4,-0.178 0.403,-0.159 0.403,-0.137C0.403,-0.11 0.397,-0.088 0.386,-0.069C0.375,-0.05 0.36,-0.034 0.342,-0.022C0.324,-0.01 0.304,-0.001 0.281,0.004C0.258,0.009 0.234,0.012 0.211,0.012C0.172,0.012 0.137,0.006 0.108,-0.006C0.078,-0.018 0.051,-0.04 0.028,-0.072L0.096,-0.128C0.111,-0.113 0.127,-0.1 0.145,-0.089C0.163,-0.078 0.185,-0.072 0.211,-0.072C0.222,-0.072 0.234,-0.073 0.246,-0.076C0.257,-0.078 0.268,-0.082 0.277,-0.087C0.286,-0.092 0.293,-0.098 0.299,-0.106C0.304,-0.113 0.307,-0.122 0.307,-0.132C0.307,-0.145 0.303,-0.156 0.295,-0.165C0.286,-0.174 0.276,-0.181 0.265,-0.186C0.253,-0.191 0.241,-0.195 0.228,-0.198C0.215,-0.201 0.203,-0.203 0.193,-0.205C0.174,-0.21 0.155,-0.215 0.138,-0.221C0.121,-0.227 0.105,-0.235 0.092,-0.245C0.079,-0.255 0.068,-0.268 0.06,-0.283C0.052,-0.298 0.048,-0.317 0.048,-0.34C0.048,-0.365 0.053,-0.386 0.064,-0.405C0.074,-0.423 0.088,-0.438 0.105,-0.45C0.122,-0.462 0.141,-0.471 0.163,-0.477C0.184,-0.483 0.206,-0.486 0.228,-0.486C0.26,-0.486 0.291,-0.48 0.32,-0.468C0.349,-0.456 0.373,-0.436 0.39,-0.408L0.32,-0.355Z" style="fill-rule:nonzero;"/>
            </g>
            <g transform="matrix(36.5667,0,0,36.5667,1405.27,1095.74)">
                <path d="M0.07,-0.416C0.095,-0.439 0.125,-0.457 0.158,-0.469C0.191,-0.48 0.225,-0.486 0.258,-0.486C0.293,-0.486 0.323,-0.482 0.348,-0.473C0.373,-0.464 0.393,-0.453 0.409,-0.438C0.425,-0.423 0.437,-0.407 0.445,-0.388C0.452,-0.369 0.456,-0.349 0.456,-0.328L0.456,-0.086C0.456,-0.069 0.456,-0.054 0.457,-0.04C0.458,-0.026 0.459,-0.013 0.46,-0L0.38,-0C0.378,-0.024 0.377,-0.048 0.377,-0.072L0.375,-0.072C0.355,-0.041 0.331,-0.02 0.304,-0.007C0.277,0.006 0.245,0.012 0.209,0.012C0.187,0.012 0.166,0.009 0.146,0.003C0.126,-0.003 0.109,-0.012 0.094,-0.024C0.079,-0.036 0.067,-0.051 0.058,-0.069C0.049,-0.086 0.045,-0.107 0.045,-0.13C0.045,-0.161 0.052,-0.186 0.066,-0.207C0.079,-0.228 0.098,-0.245 0.122,-0.258C0.145,-0.271 0.173,-0.28 0.205,-0.286C0.236,-0.291 0.27,-0.294 0.306,-0.294L0.372,-0.294L0.372,-0.314C0.372,-0.326 0.37,-0.338 0.365,-0.35C0.36,-0.362 0.353,-0.373 0.344,-0.383C0.335,-0.392 0.323,-0.4 0.309,-0.406C0.295,-0.411 0.278,-0.414 0.259,-0.414C0.242,-0.414 0.227,-0.412 0.214,-0.409C0.201,-0.406 0.189,-0.402 0.178,-0.397C0.167,-0.392 0.158,-0.386 0.149,-0.379C0.14,-0.372 0.132,-0.366 0.124,-0.36L0.07,-0.416ZM0.324,-0.228C0.303,-0.228 0.281,-0.227 0.259,-0.225C0.236,-0.222 0.216,-0.218 0.198,-0.211C0.179,-0.204 0.164,-0.195 0.153,-0.183C0.141,-0.171 0.135,-0.156 0.135,-0.137C0.135,-0.11 0.144,-0.09 0.163,-0.078C0.181,-0.066 0.206,-0.06 0.237,-0.06C0.262,-0.06 0.283,-0.064 0.3,-0.073C0.317,-0.081 0.331,-0.092 0.342,-0.105C0.353,-0.118 0.36,-0.133 0.365,-0.15C0.37,-0.166 0.372,-0.182 0.372,-0.198L0.372,-0.228L0.324,-0.228Z" style="fill-rule:nonzero;"/>
            </g>
            <g transform="matrix(36.5667,0,0,36.5667,1424.25,1095.74)">
                <path d="M0.024,0.122C0.045,0.088 0.064,0.055 0.08,0.024C0.096,-0.007 0.109,-0.039 0.12,-0.072C0.131,-0.104 0.139,-0.137 0.144,-0.172C0.149,-0.207 0.152,-0.244 0.152,-0.284C0.152,-0.357 0.141,-0.428 0.12,-0.497C0.099,-0.566 0.067,-0.629 0.024,-0.688L0.084,-0.728C0.13,-0.665 0.166,-0.596 0.192,-0.521C0.217,-0.446 0.23,-0.367 0.23,-0.284C0.23,-0.207 0.218,-0.131 0.193,-0.054C0.168,0.023 0.132,0.094 0.084,0.16L0.024,0.122Z" style="fill-rule:nonzero;"/>
            </g>
        </g>
        <g id="ski-svgrepo-com-2.svg" serif:id="ski-svgrepo-com 2.svg" transform="matrix(-0.0901167,0.039559,0.0446303,0.101669,1108.32,759.457)">
            <g transform="matrix(1,0,0,1,-400,-400)">
                <path d="M603.517,800C592.483,800 581.281,797.65 570.637,792.688C570.569,792.653 570.497,792.622 570.428,792.588L56.07,550.887C43.042,544.813 37.406,529.327 43.481,516.298C49.558,503.269 65.042,497.634 78.07,503.708L592.727,745.547C605.717,751.547 621.177,745.892 627.23,732.917C633.306,719.889 648.789,714.259 661.82,720.328C674.848,726.405 680.484,741.891 674.409,754.919C661.172,783.298 632.941,800 603.517,800Z" style="fill:rgb(217,71,0);fill-rule:nonzero;"/>
                <path d="M654.678,208.359C639.513,208.359 624.736,205.056 610.759,198.536C558.731,174.275 536.139,112.206 560.402,60.181C578.361,21.664 616.35,0 654.834,0C696.267,0 736.869,25.383 752.589,68.57C777.405,136.741 726.625,208.359 654.678,208.359Z" style="fill:rgb(255,217,179);fill-rule:nonzero;"/>
                <g>
                    <path d="M370.497,530.438L328.061,621.441L422.445,665.792L478.514,545.144C486.838,527.258 484.391,506.552 472.127,491.098L393.98,392.623C393.98,392.623 395.231,391.622 397.327,389.945C408.161,381.28 441.581,354.55 441.581,354.55C443.227,355.895 591.67,425.652 591.67,425.652C617.922,437.894 648.869,426.167 660.848,400.472C672.958,374.5 661.642,343.403 635.667,331.295L561.127,296.536L518.072,178.242C508.383,151.62 478.491,137.022 451.083,146.997C442.745,150.234 370.456,208.439 326.011,244.142C326.011,244.142 312.678,254.853 299.342,265.564C289.894,272.948 280.445,280.333 280.445,280.333C278.709,281.689 267.366,289.833 254.508,300.022C243.392,308.844 236.417,321.384 234.869,335.333C233.358,348.936 237.217,362.261 245.73,372.852L370.497,530.438Z" style="fill:rgb(115,192,230);fill-rule:nonzero;"/>
                    <path d="M164.425,281.741C160.741,281.741 157,280.955 153.441,279.295C140.413,273.22 134.777,257.734 140.852,244.706L184.85,150.348C190.925,137.32 206.413,131.686 219.439,137.758C232.467,143.833 238.103,159.319 232.028,172.347L188.03,266.705C183.617,276.175 174.228,281.741 164.425,281.741Z" style="fill:rgb(115,192,230);fill-rule:nonzero;"/>
                </g>
                <path d="M471.567,353.086C471.458,352.809 453.872,304.511 453.872,304.511C387.856,273.728 154.627,164.97 150.264,162.938C137.238,156.864 121.75,162.5 115.675,175.527C109.6,188.556 115.236,204.042 128.264,210.117C427.352,349.584 494.403,380.322 496.516,380.714C485.6,374.85 476.403,365.077 471.567,353.086Z" style="fill:rgb(207,219,230);fill-rule:nonzero;"/>
            </g>
        </g>
        <g id="ski-svgrepo-com-2.svg1" serif:id="ski-svgrepo-com 2.svg" transform="matrix(-0.0901167,0.039559,0.0446303,0.101669,1813.07,859.753)">
            <g transform="matrix(1,0,0,1,-400,-400)">
                <path d="M603.517,800C592.483,800 581.281,797.65 570.637,792.688C570.569,792.653 570.497,792.622 570.428,792.588L56.07,550.887C43.042,544.813 37.406,529.327 43.481,516.298C49.558,503.269 65.042,497.634 78.07,503.708L592.727,745.547C605.717,751.547 621.177,745.892 627.23,732.917C633.306,719.889 648.789,714.259 661.82,720.328C674.848,726.405 680.484,741.891 674.409,754.919C661.172,783.298 632.941,800 603.517,800Z" style="fill:rgb(217,71,0);fill-rule:nonzero;"/>
                <path d="M654.678,208.359C639.513,208.359 624.736,205.056 610.759,198.536C558.731,174.275 536.139,112.206 560.402,60.181C578.361,21.664 616.35,0 654.834,0C696.267,0 736.869,25.383 752.589,68.57C777.405,136.741 726.625,208.359 654.678,208.359Z" style="fill:rgb(255,217,179);fill-rule:nonzero;"/>
                <g>
                    <path d="M370.497,530.438L328.061,621.441L422.445,665.792L478.514,545.144C486.838,527.258 484.391,506.552 472.127,491.098L393.98,392.623C393.98,392.623 395.231,391.622 397.327,389.945C408.161,381.28 441.581,354.55 441.581,354.55C443.227,355.895 591.67,425.652 591.67,425.652C617.922,437.894 648.869,426.167 660.848,400.472C672.958,374.5 661.642,343.403 635.667,331.295L561.127,296.536L518.072,178.242C508.383,151.62 478.491,137.022 451.083,146.997C442.745,150.234 370.456,208.439 326.011,244.142C326.011,244.142 312.678,254.853 299.342,265.564C289.894,272.948 280.445,280.333 280.445,280.333C278.709,281.689 267.366,289.833 254.508,300.022C243.392,308.844 236.417,321.384 234.869,335.333C233.358,348.936 237.217,362.261 245.73,372.852L370.497,530.438Z" style="fill:rgb(115,192,230);fill-rule:nonzero;"/>
                    <path d="M164.425,281.741C160.741,281.741 157,280.955 153.441,279.295C140.413,273.22 134.777,257.734 140.852,244.706L184.85,150.348C190.925,137.32 206.413,131.686 219.439,137.758C232.467,143.833 238.103,159.319 232.028,172.347L188.03,266.705C183.617,276.175 174.228,281.741 164.425,281.741Z" style="fill:rgb(115,192,230);fill-rule:nonzero;"/>
                </g>
                <path d="M471.567,353.086C471.458,352.809 453.872,304.511 453.872,304.511C387.856,273.728 154.627,164.97 150.264,162.938C137.238,156.864 121.75,162.5 115.675,175.527C109.6,188.556 115.236,204.042 128.264,210.117C427.352,349.584 494.403,380.322 496.516,380.714C485.6,374.85 476.403,365.077 471.567,353.086Z" style="fill:rgb(207,219,230);fill-rule:nonzero;"/>
            </g>
        </g>
        <g transform="matrix(1.48045,0,0,1.48045,-960.608,-236.326)">
            <g transform="matrix(36.5667,0,0,36.5667,1996.53,536.493)">
                <path d="M0.32,-0.355C0.309,-0.368 0.296,-0.38 0.281,-0.389C0.265,-0.398 0.246,-0.402 0.223,-0.402C0.202,-0.402 0.183,-0.398 0.168,-0.389C0.152,-0.38 0.144,-0.366 0.144,-0.349C0.144,-0.335 0.149,-0.324 0.158,-0.315C0.167,-0.306 0.177,-0.299 0.19,-0.294C0.202,-0.289 0.215,-0.285 0.229,-0.282C0.243,-0.279 0.255,-0.277 0.265,-0.275C0.284,-0.27 0.303,-0.265 0.32,-0.258C0.337,-0.251 0.351,-0.243 0.364,-0.232C0.376,-0.221 0.386,-0.208 0.393,-0.193C0.4,-0.178 0.403,-0.159 0.403,-0.137C0.403,-0.11 0.397,-0.088 0.386,-0.069C0.375,-0.05 0.36,-0.034 0.342,-0.022C0.324,-0.01 0.304,-0.001 0.281,0.004C0.258,0.009 0.234,0.012 0.211,0.012C0.172,0.012 0.137,0.006 0.108,-0.006C0.078,-0.018 0.051,-0.04 0.028,-0.072L0.096,-0.128C0.111,-0.113 0.127,-0.1 0.145,-0.089C0.163,-0.078 0.185,-0.072 0.211,-0.072C0.222,-0.072 0.234,-0.073 0.246,-0.076C0.257,-0.078 0.268,-0.082 0.277,-0.087C0.286,-0.092 0.293,-0.098 0.299,-0.106C0.304,-0.113 0.307,-0.122 0.307,-0.132C0.307,-0.145 0.303,-0.156 0.295,-0.165C0.286,-0.174 0.276,-0.181 0.265,-0.186C0.253,-0.191 0.241,-0.195 0.228,-0.198C0.215,-0.201 0.203,-0.203 0.193,-0.205C0.174,-0.21 0.155,-0.215 0.138,-0.221C0.121,-0.227 0.105,-0.235 0.092,-0.245C0.079,-0.255 0.068,-0.268 0.06,-0.283C0.052,-0.298 0.048,-0.317 0.048,-0.34C0.048,-0.365 0.053,-0.386 0.064,-0.405C0.074,-0.423 0.088,-0.438 0.105,-0.45C0.122,-0.462 0.141,-0.471 0.163,-0.477C0.184,-0.483 0.206,-0.486 0.228,-0.486C0.26,-0.486 0.291,-0.48 0.32,-0.468C0.349,-0.456 0.373,-0.436 0.39,-0.408L0.32,-0.355Z" style="fill-rule:nonzero;"/>
            </g>
            <g transform="matrix(36.5667,0,0,36.5667,2012.77,536.493)">
                <path d="M0.068,-0.474L0.152,-0.474L0.152,-0.4L0.154,-0.4C0.156,-0.407 0.161,-0.415 0.17,-0.425C0.178,-0.435 0.189,-0.444 0.202,-0.454C0.215,-0.463 0.23,-0.47 0.248,-0.477C0.265,-0.483 0.285,-0.486 0.306,-0.486C0.341,-0.486 0.371,-0.479 0.395,-0.464C0.419,-0.449 0.439,-0.427 0.454,-0.398C0.469,-0.427 0.491,-0.449 0.519,-0.464C0.547,-0.479 0.575,-0.486 0.604,-0.486C0.641,-0.486 0.671,-0.48 0.694,-0.468C0.717,-0.456 0.736,-0.44 0.749,-0.421C0.762,-0.401 0.772,-0.379 0.777,-0.354C0.782,-0.329 0.784,-0.303 0.784,-0.276L0.784,-0L0.694,-0L0.694,-0.264C0.694,-0.282 0.693,-0.299 0.691,-0.316C0.688,-0.333 0.683,-0.347 0.676,-0.36C0.669,-0.373 0.658,-0.383 0.645,-0.391C0.632,-0.398 0.614,-0.402 0.592,-0.402C0.549,-0.402 0.518,-0.389 0.499,-0.362C0.48,-0.335 0.471,-0.301 0.471,-0.259L0.471,-0L0.381,-0L0.381,-0.248C0.381,-0.271 0.38,-0.291 0.378,-0.31C0.375,-0.329 0.371,-0.345 0.364,-0.359C0.357,-0.372 0.346,-0.383 0.334,-0.391C0.321,-0.398 0.303,-0.402 0.281,-0.402C0.265,-0.402 0.25,-0.399 0.235,-0.393C0.22,-0.386 0.206,-0.377 0.195,-0.364C0.184,-0.351 0.175,-0.335 0.168,-0.316C0.161,-0.296 0.158,-0.273 0.158,-0.246L0.158,-0L0.068,-0L0.068,-0.474Z" style="fill-rule:nonzero;"/>
            </g>
            <g transform="matrix(36.5667,0,0,36.5667,2043.92,536.493)">
                <path d="M0.141,-0.237C0.141,-0.213 0.145,-0.191 0.152,-0.171C0.159,-0.15 0.17,-0.133 0.183,-0.119C0.196,-0.104 0.213,-0.093 0.232,-0.085C0.251,-0.076 0.273,-0.072 0.297,-0.072C0.321,-0.072 0.343,-0.076 0.362,-0.085C0.381,-0.093 0.398,-0.104 0.411,-0.119C0.424,-0.133 0.435,-0.15 0.442,-0.171C0.449,-0.191 0.453,-0.213 0.453,-0.237C0.453,-0.261 0.449,-0.283 0.442,-0.304C0.435,-0.324 0.424,-0.341 0.411,-0.356C0.398,-0.37 0.381,-0.381 0.362,-0.39C0.343,-0.398 0.321,-0.402 0.297,-0.402C0.273,-0.402 0.251,-0.398 0.232,-0.39C0.213,-0.381 0.196,-0.37 0.183,-0.356C0.17,-0.341 0.159,-0.324 0.152,-0.304C0.145,-0.283 0.141,-0.261 0.141,-0.237ZM0.045,-0.237C0.045,-0.272 0.051,-0.304 0.065,-0.334C0.078,-0.364 0.095,-0.39 0.118,-0.413C0.141,-0.436 0.167,-0.454 0.198,-0.467C0.229,-0.48 0.262,-0.486 0.297,-0.486C0.332,-0.486 0.365,-0.48 0.396,-0.467C0.427,-0.454 0.453,-0.436 0.476,-0.413C0.499,-0.39 0.517,-0.364 0.53,-0.334C0.543,-0.304 0.549,-0.272 0.549,-0.237C0.549,-0.202 0.543,-0.17 0.53,-0.14C0.517,-0.109 0.499,-0.083 0.476,-0.061C0.453,-0.038 0.427,-0.021 0.396,-0.008C0.365,0.006 0.332,0.012 0.297,0.012C0.262,0.012 0.229,0.006 0.198,-0.008C0.167,-0.021 0.141,-0.038 0.118,-0.061C0.095,-0.083 0.078,-0.109 0.065,-0.14C0.051,-0.17 0.045,-0.202 0.045,-0.237Z" style="fill-rule:nonzero;"/>
            </g>
            <g transform="matrix(36.5667,0,0,36.5667,2065.64,536.493)">
                <path d="M0.141,-0.237C0.141,-0.213 0.145,-0.191 0.152,-0.171C0.159,-0.15 0.17,-0.133 0.183,-0.119C0.196,-0.104 0.213,-0.093 0.232,-0.085C0.251,-0.076 0.273,-0.072 0.297,-0.072C0.321,-0.072 0.343,-0.076 0.362,-0.085C0.381,-0.093 0.398,-0.104 0.411,-0.119C0.424,-0.133 0.435,-0.15 0.442,-0.171C0.449,-0.191 0.453,-0.213 0.453,-0.237C0.453,-0.261 0.449,-0.283 0.442,-0.304C0.435,-0.324 0.424,-0.341 0.411,-0.356C0.398,-0.37 0.381,-0.381 0.362,-0.39C0.343,-0.398 0.321,-0.402 0.297,-0.402C0.273,-0.402 0.251,-0.398 0.232,-0.39C0.213,-0.381 0.196,-0.37 0.183,-0.356C0.17,-0.341 0.159,-0.324 0.152,-0.304C0.145,-0.283 0.141,-0.261 0.141,-0.237ZM0.045,-0.237C0.045,-0.272 0.051,-0.304 0.065,-0.334C0.078,-0.364 0.095,-0.39 0.118,-0.413C0.141,-0.436 0.167,-0.454 0.198,-0.467C0.229,-0.48 0.262,-0.486 0.297,-0.486C0.332,-0.486 0.365,-0.48 0.396,-0.467C0.427,-0.454 0.453,-0.436 0.476,-0.413C0.499,-0.39 0.517,-0.364 0.53,-0.334C0.543,-0.304 0.549,-0.272 0.549,-0.237C0.549,-0.202 0.543,-0.17 0.53,-0.14C0.517,-0.109 0.499,-0.083 0.476,-0.061C0.453,-0.038 0.427,-0.021 0.396,-0.008C0.365,0.006 0.332,0.012 0.297,0.012C0.262,0.012 0.229,0.006 0.198,-0.008C0.167,-0.021 0.141,-0.038 0.118,-0.061C0.095,-0.083 0.078,-0.109 0.065,-0.14C0.051,-0.17 0.045,-0.202 0.045,-0.237Z" style="fill-rule:nonzero;"/>
            </g>
            <g transform="matrix(36.5667,0,0,36.5667,2087.36,536.493)">
                <path d="M0.322,-0.396L0.193,-0.396L0.193,-0.181C0.193,-0.168 0.193,-0.155 0.194,-0.142C0.195,-0.129 0.197,-0.117 0.202,-0.107C0.206,-0.096 0.213,-0.088 0.222,-0.082C0.231,-0.075 0.244,-0.072 0.261,-0.072C0.272,-0.072 0.283,-0.073 0.294,-0.075C0.305,-0.077 0.316,-0.081 0.325,-0.086L0.325,-0.004C0.314,0.002 0.301,0.006 0.284,0.009C0.267,0.011 0.253,0.012 0.244,0.012C0.209,0.012 0.183,0.007 0.164,-0.003C0.145,-0.012 0.131,-0.025 0.122,-0.04C0.113,-0.055 0.107,-0.073 0.106,-0.092C0.104,-0.111 0.103,-0.13 0.103,-0.149L0.103,-0.396L-0.001,-0.396L-0.001,-0.474L0.103,-0.474L0.103,-0.607L0.193,-0.607L0.193,-0.474L0.322,-0.474L0.322,-0.396Z" style="fill-rule:nonzero;"/>
            </g>
            <g transform="matrix(36.5667,0,0,36.5667,2100.89,536.493)">
                <path d="M0.068,-0.756L0.158,-0.756L0.158,-0.401L0.16,-0.401C0.171,-0.426 0.191,-0.447 0.219,-0.463C0.247,-0.478 0.279,-0.486 0.316,-0.486C0.339,-0.486 0.361,-0.483 0.382,-0.476C0.403,-0.468 0.421,-0.458 0.437,-0.443C0.452,-0.428 0.465,-0.409 0.474,-0.387C0.483,-0.364 0.488,-0.336 0.488,-0.305L0.488,-0L0.398,-0L0.398,-0.28C0.398,-0.302 0.395,-0.321 0.389,-0.337C0.383,-0.352 0.375,-0.365 0.365,-0.375C0.355,-0.384 0.343,-0.391 0.331,-0.396C0.318,-0.4 0.304,-0.402 0.29,-0.402C0.271,-0.402 0.254,-0.399 0.238,-0.393C0.222,-0.387 0.208,-0.378 0.196,-0.365C0.184,-0.352 0.175,-0.335 0.168,-0.315C0.161,-0.295 0.158,-0.271 0.158,-0.244L0.158,-0L0.068,-0L0.068,-0.756Z" style="fill-rule:nonzero;"/>
            </g>
        </g>
        <g transform="matrix(0.975792,-0.218701,0.218701,0.975792,-298.03,366.482)">
            <path d="M2406.25,2000.55L606.61,1058.41" style="fill:none;stroke:rgb(201,49,49);stroke-width:21.51px;"/>
        </g>
        <g transform="matrix(0.73571,-0.677296,0.677296,0.73571,-637.776,1424.52)">
            <path d="M2406.25,2000.55L606.61,1058.41" style="fill:none;stroke:rgb(201,49,49);stroke-width:21.51px;"/>
        </g>
        <g transform="matrix(0.544035,0,0,0.544035,948.138,55.1565)">
            <g transform="matrix(88.3491,0,0,88.3491,879.72,1199.5)">
                <path d="M0.543,-0L0.453,-0L0.453,-0.068L0.451,-0.068C0.434,-0.043 0.41,-0.023 0.38,-0.009C0.349,0.005 0.318,0.012 0.286,0.012C0.249,0.012 0.216,0.006 0.187,-0.007C0.157,-0.02 0.132,-0.037 0.111,-0.06C0.09,-0.083 0.073,-0.109 0.062,-0.139C0.051,-0.169 0.045,-0.202 0.045,-0.237C0.045,-0.272 0.051,-0.305 0.062,-0.336C0.073,-0.366 0.09,-0.392 0.111,-0.415C0.132,-0.437 0.157,-0.454 0.187,-0.467C0.216,-0.48 0.249,-0.486 0.286,-0.486C0.32,-0.486 0.352,-0.479 0.382,-0.465C0.412,-0.45 0.435,-0.431 0.451,-0.406L0.453,-0.406L0.453,-0.756L0.543,-0.756L0.543,-0ZM0.297,-0.072C0.321,-0.072 0.343,-0.076 0.362,-0.085C0.381,-0.093 0.398,-0.104 0.411,-0.119C0.424,-0.133 0.435,-0.15 0.442,-0.171C0.449,-0.191 0.453,-0.213 0.453,-0.237C0.453,-0.261 0.449,-0.283 0.442,-0.304C0.435,-0.324 0.424,-0.341 0.411,-0.356C0.398,-0.37 0.381,-0.381 0.362,-0.39C0.343,-0.398 0.321,-0.402 0.297,-0.402C0.273,-0.402 0.251,-0.398 0.232,-0.39C0.213,-0.381 0.196,-0.37 0.183,-0.356C0.17,-0.341 0.159,-0.324 0.152,-0.304C0.145,-0.283 0.141,-0.261 0.141,-0.237C0.141,-0.213 0.145,-0.191 0.152,-0.171C0.159,-0.15 0.17,-0.133 0.183,-0.119C0.196,-0.104 0.213,-0.093 0.232,-0.085C0.251,-0.076 0.273,-0.072 0.297,-0.072Z" style="fill:rgb(73,188,118);fill-rule:nonzero;"/>
            </g>
            <g transform="matrix(88.3491,0,0,88.3491,933.701,1199.5)">
                <path d="M0.075,-0.474L0.165,-0.474L0.165,-0L0.075,-0L0.075,-0.474ZM0.054,-0.644C0.054,-0.662 0.061,-0.678 0.074,-0.691C0.087,-0.704 0.102,-0.71 0.12,-0.71C0.138,-0.71 0.154,-0.704 0.167,-0.691C0.18,-0.678 0.186,-0.662 0.186,-0.644C0.186,-0.626 0.18,-0.611 0.167,-0.598C0.154,-0.584 0.138,-0.578 0.12,-0.578C0.102,-0.578 0.087,-0.584 0.074,-0.598C0.061,-0.611 0.054,-0.626 0.054,-0.644Z" style="fill:rgb(73,188,118);fill-rule:nonzero;"/>
            </g>
            <g transform="matrix(88.3491,0,0,88.3491,954.905,1199.5)">
                <path d="M0.32,-0.355C0.309,-0.368 0.296,-0.38 0.281,-0.389C0.265,-0.398 0.246,-0.402 0.223,-0.402C0.202,-0.402 0.183,-0.398 0.168,-0.389C0.152,-0.38 0.144,-0.366 0.144,-0.349C0.144,-0.335 0.149,-0.324 0.158,-0.315C0.167,-0.306 0.177,-0.299 0.19,-0.294C0.202,-0.289 0.215,-0.285 0.229,-0.282C0.243,-0.279 0.255,-0.277 0.265,-0.275C0.284,-0.27 0.303,-0.265 0.32,-0.258C0.337,-0.251 0.351,-0.243 0.364,-0.232C0.376,-0.221 0.386,-0.208 0.393,-0.193C0.4,-0.178 0.403,-0.159 0.403,-0.137C0.403,-0.11 0.397,-0.088 0.386,-0.069C0.375,-0.05 0.36,-0.034 0.342,-0.022C0.324,-0.01 0.304,-0.001 0.281,0.004C0.258,0.009 0.234,0.012 0.211,0.012C0.172,0.012 0.137,0.006 0.108,-0.006C0.078,-0.018 0.051,-0.04 0.028,-0.072L0.096,-0.128C0.111,-0.113 0.127,-0.1 0.145,-0.089C0.163,-0.078 0.185,-0.072 0.211,-0.072C0.222,-0.072 0.234,-0.073 0.246,-0.076C0.257,-0.078 0.268,-0.082 0.277,-0.087C0.286,-0.092 0.293,-0.098 0.299,-0.106C0.304,-0.113 0.307,-0.122 0.307,-0.132C0.307,-0.145 0.303,-0.156 0.295,-0.165C0.286,-0.174 0.276,-0.181 0.265,-0.186C0.253,-0.191 0.241,-0.195 0.228,-0.198C0.215,-0.201 0.203,-0.203 0.193,-0.205C0.174,-0.21 0.155,-0.215 0.138,-0.221C0.121,-0.227 0.105,-0.235 0.092,-0.245C0.079,-0.255 0.068,-0.268 0.06,-0.283C0.052,-0.298 0.048,-0.317 0.048,-0.34C0.048,-0.365 0.053,-0.386 0.064,-0.405C0.074,-0.423 0.088,-0.438 0.105,-0.45C0.122,-0.462 0.141,-0.471 0.163,-0.477C0.184,-0.483 0.206,-0.486 0.228,-0.486C0.26,-0.486 0.291,-0.48 0.32,-0.468C0.349,-0.456 0.373,-0.436 0.39,-0.408L0.32,-0.355Z" style="fill:rgb(73,188,118);fill-rule:nonzero;"/>
            </g>
            <g transform="matrix(88.3491,0,0,88.3491,994.132,1199.5)">
                <path d="M0.407,-0.348C0.39,-0.365 0.373,-0.379 0.355,-0.388C0.336,-0.397 0.314,-0.401 0.289,-0.401C0.264,-0.401 0.243,-0.397 0.225,-0.388C0.206,-0.379 0.191,-0.366 0.179,-0.351C0.166,-0.335 0.157,-0.317 0.151,-0.297C0.144,-0.276 0.141,-0.255 0.141,-0.233C0.141,-0.211 0.145,-0.19 0.152,-0.171C0.159,-0.151 0.17,-0.134 0.183,-0.119C0.196,-0.104 0.212,-0.093 0.231,-0.085C0.25,-0.076 0.271,-0.072 0.294,-0.072C0.319,-0.072 0.341,-0.077 0.359,-0.086C0.377,-0.095 0.394,-0.108 0.409,-0.125L0.473,-0.061C0.45,-0.035 0.423,-0.016 0.392,-0.005C0.361,0.006 0.328,0.012 0.293,0.012C0.256,0.012 0.223,0.006 0.193,-0.006C0.162,-0.018 0.136,-0.035 0.114,-0.057C0.092,-0.078 0.075,-0.104 0.063,-0.135C0.051,-0.165 0.045,-0.198 0.045,-0.235C0.045,-0.272 0.051,-0.305 0.063,-0.336C0.075,-0.367 0.092,-0.393 0.114,-0.415C0.135,-0.437 0.161,-0.454 0.192,-0.467C0.222,-0.479 0.256,-0.485 0.293,-0.485C0.328,-0.485 0.361,-0.479 0.393,-0.467C0.424,-0.454 0.452,-0.435 0.475,-0.41L0.407,-0.348Z" style="fill:rgb(73,188,118);fill-rule:nonzero;"/>
            </g>
            <g transform="matrix(88.3491,0,0,88.3491,1036.72,1199.5)">
                <path d="M0.068,-0.474L0.158,-0.474L0.158,-0.401L0.16,-0.401C0.166,-0.414 0.174,-0.425 0.184,-0.436C0.194,-0.446 0.205,-0.455 0.218,-0.462C0.23,-0.469 0.243,-0.475 0.258,-0.48C0.273,-0.484 0.287,-0.486 0.302,-0.486C0.317,-0.486 0.33,-0.484 0.342,-0.48L0.338,-0.383C0.331,-0.385 0.323,-0.387 0.316,-0.388C0.309,-0.389 0.301,-0.39 0.294,-0.39C0.25,-0.39 0.216,-0.378 0.193,-0.353C0.17,-0.328 0.158,-0.29 0.158,-0.238L0.158,-0L0.068,-0L0.068,-0.474Z" style="fill:rgb(73,188,118);fill-rule:nonzero;"/>
            </g>
            <g transform="matrix(88.3491,0,0,88.3491,1067.82,1199.5)">
                <path d="M0.136,-0.204C0.136,-0.183 0.14,-0.165 0.15,-0.148C0.159,-0.13 0.17,-0.116 0.185,-0.104C0.2,-0.092 0.217,-0.083 0.236,-0.076C0.255,-0.069 0.275,-0.066 0.296,-0.066C0.324,-0.066 0.348,-0.073 0.369,-0.086C0.39,-0.098 0.409,-0.116 0.426,-0.137L0.494,-0.085C0.444,-0.02 0.374,0.012 0.284,0.012C0.247,0.012 0.213,0.006 0.183,-0.007C0.152,-0.02 0.127,-0.037 0.106,-0.06C0.085,-0.082 0.068,-0.108 0.057,-0.139C0.046,-0.169 0.04,-0.202 0.04,-0.237C0.04,-0.272 0.046,-0.305 0.059,-0.336C0.071,-0.366 0.088,-0.392 0.11,-0.415C0.131,-0.437 0.157,-0.454 0.187,-0.467C0.217,-0.48 0.25,-0.486 0.285,-0.486C0.327,-0.486 0.363,-0.479 0.392,-0.464C0.421,-0.449 0.444,-0.43 0.463,-0.407C0.482,-0.383 0.495,-0.356 0.504,-0.327C0.512,-0.297 0.516,-0.267 0.516,-0.236L0.516,-0.204L0.136,-0.204ZM0.42,-0.276C0.419,-0.296 0.416,-0.314 0.411,-0.331C0.405,-0.348 0.396,-0.362 0.385,-0.375C0.374,-0.387 0.36,-0.397 0.343,-0.404C0.326,-0.411 0.306,-0.414 0.283,-0.414C0.261,-0.414 0.241,-0.41 0.223,-0.402C0.204,-0.393 0.189,-0.382 0.176,-0.369C0.163,-0.356 0.154,-0.341 0.147,-0.325C0.139,-0.308 0.136,-0.292 0.136,-0.276L0.42,-0.276Z" style="fill:rgb(73,188,118);fill-rule:nonzero;"/>
            </g>
            <g transform="matrix(88.3491,0,0,88.3491,1116.94,1199.5)">
                <path d="M0.322,-0.396L0.193,-0.396L0.193,-0.181C0.193,-0.168 0.193,-0.155 0.194,-0.142C0.195,-0.129 0.197,-0.117 0.202,-0.107C0.206,-0.096 0.213,-0.088 0.222,-0.082C0.231,-0.075 0.244,-0.072 0.261,-0.072C0.272,-0.072 0.283,-0.073 0.294,-0.075C0.305,-0.077 0.316,-0.081 0.325,-0.086L0.325,-0.004C0.314,0.002 0.301,0.006 0.284,0.009C0.267,0.011 0.253,0.012 0.244,0.012C0.209,0.012 0.183,0.007 0.164,-0.003C0.145,-0.012 0.131,-0.025 0.122,-0.04C0.113,-0.055 0.107,-0.073 0.106,-0.092C0.104,-0.111 0.103,-0.13 0.103,-0.149L0.103,-0.396L-0.001,-0.396L-0.001,-0.474L0.103,-0.474L0.103,-0.607L0.193,-0.607L0.193,-0.474L0.322,-0.474L0.322,-0.396Z" style="fill:rgb(73,188,118);fill-rule:nonzero;"/>
            </g>
            <g transform="matrix(88.3491,0,0,88.3491,1149.63,1199.5)">
                <path d="M0.136,-0.204C0.136,-0.183 0.14,-0.165 0.15,-0.148C0.159,-0.13 0.17,-0.116 0.185,-0.104C0.2,-0.092 0.217,-0.083 0.236,-0.076C0.255,-0.069 0.275,-0.066 0.296,-0.066C0.324,-0.066 0.348,-0.073 0.369,-0.086C0.39,-0.098 0.409,-0.116 0.426,-0.137L0.494,-0.085C0.444,-0.02 0.374,0.012 0.284,0.012C0.247,0.012 0.213,0.006 0.183,-0.007C0.152,-0.02 0.127,-0.037 0.106,-0.06C0.085,-0.082 0.068,-0.108 0.057,-0.139C0.046,-0.169 0.04,-0.202 0.04,-0.237C0.04,-0.272 0.046,-0.305 0.059,-0.336C0.071,-0.366 0.088,-0.392 0.11,-0.415C0.131,-0.437 0.157,-0.454 0.187,-0.467C0.217,-0.48 0.25,-0.486 0.285,-0.486C0.327,-0.486 0.363,-0.479 0.392,-0.464C0.421,-0.449 0.444,-0.43 0.463,-0.407C0.482,-0.383 0.495,-0.356 0.504,-0.327C0.512,-0.297 0.516,-0.267 0.516,-0.236L0.516,-0.204L0.136,-0.204ZM0.42,-0.276C0.419,-0.296 0.416,-0.314 0.411,-0.331C0.405,-0.348 0.396,-0.362 0.385,-0.375C0.374,-0.387 0.36,-0.397 0.343,-0.404C0.326,-0.411 0.306,-0.414 0.283,-0.414C0.261,-0.414 0.241,-0.41 0.223,-0.402C0.204,-0.393 0.189,-0.382 0.176,-0.369C0.163,-0.356 0.154,-0.341 0.147,-0.325C0.139,-0.308 0.136,-0.292 0.136,-0.276L0.42,-0.276Z" style="fill:rgb(73,188,118);fill-rule:nonzero;"/>
            </g>
            <g transform="matrix(88.3491,0,0,88.3491,1223.31,1199.5)">
                <path d="M0.068,-0.756L0.158,-0.756L0.158,-0.268L0.362,-0.473L0.487,-0.473L0.266,-0.258L0.506,-0L0.378,-0L0.158,-0.246L0.158,-0L0.068,-0L0.068,-0.756Z" style="fill:rgb(73,188,118);fill-rule:nonzero;"/>
            </g>
            <g transform="matrix(88.3491,0,0,88.3491,1269.16,1199.5)">
                <rect x="0.1" y="-0.708" width="0.078" height="0.246" style="fill:rgb(73,188,118);fill-rule:nonzero;"/>
            </g>
            <g transform="matrix(88.3491,0,0,88.3491,1293.72,1199.5)">
                <path d="M0.32,-0.355C0.309,-0.368 0.296,-0.38 0.281,-0.389C0.265,-0.398 0.246,-0.402 0.223,-0.402C0.202,-0.402 0.183,-0.398 0.168,-0.389C0.152,-0.38 0.144,-0.366 0.144,-0.349C0.144,-0.335 0.149,-0.324 0.158,-0.315C0.167,-0.306 0.177,-0.299 0.19,-0.294C0.202,-0.289 0.215,-0.285 0.229,-0.282C0.243,-0.279 0.255,-0.277 0.265,-0.275C0.284,-0.27 0.303,-0.265 0.32,-0.258C0.337,-0.251 0.351,-0.243 0.364,-0.232C0.376,-0.221 0.386,-0.208 0.393,-0.193C0.4,-0.178 0.403,-0.159 0.403,-0.137C0.403,-0.11 0.397,-0.088 0.386,-0.069C0.375,-0.05 0.36,-0.034 0.342,-0.022C0.324,-0.01 0.304,-0.001 0.281,0.004C0.258,0.009 0.234,0.012 0.211,0.012C0.172,0.012 0.137,0.006 0.108,-0.006C0.078,-0.018 0.051,-0.04 0.028,-0.072L0.096,-0.128C0.111,-0.113 0.127,-0.1 0.145,-0.089C0.163,-0.078 0.185,-0.072 0.211,-0.072C0.222,-0.072 0.234,-0.073 0.246,-0.076C0.257,-0.078 0.268,-0.082 0.277,-0.087C0.286,-0.092 0.293,-0.098 0.299,-0.106C0.304,-0.113 0.307,-0.122 0.307,-0.132C0.307,-0.145 0.303,-0.156 0.295,-0.165C0.286,-0.174 0.276,-0.181 0.265,-0.186C0.253,-0.191 0.241,-0.195 0.228,-0.198C0.215,-0.201 0.203,-0.203 0.193,-0.205C0.174,-0.21 0.155,-0.215 0.138,-0.221C0.121,-0.227 0.105,-0.235 0.092,-0.245C0.079,-0.255 0.068,-0.268 0.06,-0.283C0.052,-0.298 0.048,-0.317 0.048,-0.34C0.048,-0.365 0.053,-0.386 0.064,-0.405C0.074,-0.423 0.088,-0.438 0.105,-0.45C0.122,-0.462 0.141,-0.471 0.163,-0.477C0.184,-0.483 0.206,-0.486 0.228,-0.486C0.26,-0.486 0.291,-0.48 0.32,-0.468C0.349,-0.456 0.373,-0.436 0.39,-0.408L0.32,-0.355Z" style="fill:rgb(73,188,118);fill-rule:nonzero;"/>
            </g>
        </g>
        <path d="M1322.25,597.945C1365.81,567.719 1437.9,587.413 1476.72,617.605C1490.36,628.217 1506.05,641.088 1511.86,658.028" style="fill:rgb(73,188,118);fill-opacity:0;stroke:rgb(73,188,118);stroke-width:10.21px;"/>
        <path d="M1511.86,658.028L1489.6,649.629" style="fill:none;stroke:rgb(73,188,118);stroke-width:10.21px;"/>
        <path d="M1511.86,658.028L1519.25,634.641" style="fill:none;stroke:rgb(73,188,118);stroke-width:10.21px;"/>
    </g>
</svg>
