<svg width="244" height="274" xmlns="http://www.w3.org/2000/svg" xmlns:xlink="http://www.w3.org/1999/xlink" xml:space="preserve" overflow="hidden"><defs><clipPath id="clip0"><rect x="493" y="627" width="244" height="274"/></clipPath></defs><g clip-path="url(#clip0)" transform="translate(-493 -627)"><path d="M135.182 193.661C135.182 198.346 131.385 202.143 126.7 202.143 122.016 202.143 118.218 198.346 118.218 193.661 118.218 188.977 122.016 185.179 126.7 185.179 131.385 185.179 135.182 188.977 135.182 193.661Z" stroke="#3951D7" stroke-width="4.52396" stroke-linecap="round" stroke-linejoin="round" stroke-miterlimit="1.5" fill="none" fill-rule="evenodd" transform="matrix(1.00228 0 0 1 377.859 469.355)"/><path d="M135.182 193.661C135.182 198.346 131.385 202.143 126.7 202.143 122.016 202.143 118.218 198.346 118.218 193.661 118.218 188.977 122.016 185.179 126.7 185.179 131.385 185.179 135.182 188.977 135.182 193.661Z" stroke="#D7395B" stroke-width="4.52396" stroke-linecap="round" stroke-linejoin="round" stroke-miterlimit="1.5" fill="none" fill-rule="evenodd" transform="matrix(1.00228 0 0 1 484.648 469.355)"/><path d="M135.182 193.661C135.182 198.346 131.385 202.143 126.7 202.143 122.016 202.143 118.218 198.346 118.218 193.661 118.218 188.977 122.016 185.179 126.7 185.179 131.385 185.179 135.182 188.977 135.182 193.661Z" stroke="#3951D7" stroke-width="4.52396" stroke-linecap="round" stroke-linejoin="round" stroke-miterlimit="1.5" fill="none" fill-rule="evenodd" transform="matrix(1.00228 0 0 1 377.859 507.404)"/><path d="M135.182 193.661C135.182 198.346 131.385 202.143 126.7 202.143 122.016 202.143 118.218 198.346 118.218 193.661 118.218 188.977 122.016 185.179 126.7 185.179 131.385 185.179 135.182 188.977 135.182 193.661Z" stroke="#3951D7" stroke-width="4.52396" stroke-linecap="round" stroke-linejoin="round" stroke-miterlimit="1.5" fill="none" fill-rule="evenodd" transform="matrix(1.00228 0 0 1 377.859 545.032)"/><path d="M135.182 193.661C135.182 198.346 131.385 202.143 126.7 202.143 122.016 202.143 118.218 198.346 118.218 193.661 118.218 188.977 122.016 185.179 126.7 185.179 131.385 185.179 135.182 188.977 135.182 193.661Z" stroke="#3951D7" stroke-width="4.52396" stroke-linecap="round" stroke-linejoin="round" stroke-miterlimit="1.5" fill="none" fill-rule="evenodd" transform="matrix(1.00228 0 0 1 377.859 584.335)"/><path d="M135.182 193.661C135.182 198.346 131.385 202.143 126.7 202.143 122.016 202.143 118.218 198.346 118.218 193.661 118.218 188.977 122.016 185.179 126.7 185.179 131.385 185.179 135.182 188.977 135.182 193.661Z" stroke="#3951D7" stroke-width="4.52396" stroke-linecap="round" stroke-linejoin="round" stroke-miterlimit="1.5" fill="none" fill-rule="evenodd" transform="matrix(1.00228 0 0 1 377.859 621.962)"/><path d="M135.182 193.661C135.182 198.346 131.385 202.143 126.7 202.143 122.016 202.143 118.218 198.346 118.218 193.661 118.218 188.977 122.016 185.179 126.7 185.179 131.385 185.179 135.182 188.977 135.182 193.661Z" stroke="#3951D7" stroke-width="4.52396" stroke-linecap="round" stroke-linejoin="round" stroke-miterlimit="1.5" fill="none" fill-rule="evenodd" transform="matrix(1.00228 0 0 1 377.859 658.911)"/><path d="M135.182 193.661C135.182 198.346 131.385 202.143 126.7 202.143 122.016 202.143 118.218 198.346 118.218 193.661 118.218 188.977 122.016 185.179 126.7 185.179 131.385 185.179 135.182 188.977 135.182 193.661Z" stroke="#3951D7" stroke-width="4.52396" stroke-linecap="round" stroke-linejoin="round" stroke-miterlimit="1.5" fill="none" fill-rule="evenodd" transform="matrix(1.00228 0 0 1 377.859 696.539)"/><path d="M135.182 193.661C135.182 198.346 131.385 202.143 126.7 202.143 122.016 202.143 118.218 198.346 118.218 193.661 118.218 188.977 122.016 185.179 126.7 185.179 131.385 185.179 135.182 188.977 135.182 193.661Z" stroke="#D7395B" stroke-width="4.52396" stroke-linecap="round" stroke-linejoin="round" stroke-miterlimit="1.5" fill="none" fill-rule="evenodd" transform="matrix(1.00228 0 0 1 482.507 696.539)"/><path d="M135.182 193.661C135.182 198.346 131.385 202.143 126.7 202.143 122.016 202.143 118.218 198.346 118.218 193.661 118.218 188.977 122.016 185.179 126.7 185.179 131.385 185.179 135.182 188.977 135.182 193.661Z" stroke="#D7395B" stroke-width="4.52396" stroke-linecap="round" stroke-linejoin="round" stroke-miterlimit="1.5" fill="none" fill-rule="evenodd" transform="matrix(1.00228 0 0 1 482.507 627.047)"/><path d="M135.182 193.661C135.182 198.346 131.385 202.143 126.7 202.143 122.016 202.143 118.218 198.346 118.218 193.661 118.218 188.977 122.016 185.179 126.7 185.179 131.385 185.179 135.182 188.977 135.182 193.661Z" stroke="#D7395B" stroke-width="4.52396" stroke-linecap="round" stroke-linejoin="round" stroke-miterlimit="1.5" fill="none" fill-rule="evenodd" transform="matrix(1.00228 0 0 1 482.507 546.699)"/><path d="M135.182 193.661C135.182 198.346 131.385 202.143 126.7 202.143 122.016 202.143 118.218 198.346 118.218 193.661 118.218 188.977 122.016 185.179 126.7 185.179 131.385 185.179 135.182 188.977 135.182 193.661Z" stroke="#3951D7" stroke-width="4.52396" stroke-linecap="round" stroke-linejoin="round" stroke-miterlimit="1.5" fill="none" fill-rule="evenodd" transform="matrix(1.00228 0 0 1 377.859 469.355)"/><path d="M135.182 193.661C135.182 198.346 131.385 202.143 126.7 202.143 122.016 202.143 118.218 198.346 118.218 193.661 118.218 188.977 122.016 185.179 126.7 185.179 131.385 185.179 135.182 188.977 135.182 193.661Z" stroke="#3951D7" stroke-width="4.52396" stroke-linecap="round" stroke-linejoin="round" stroke-miterlimit="1.5" fill="none" fill-rule="evenodd" transform="matrix(1.00228 0 0 1 588.958 469.355)"/><path d="M135.182 193.661C135.182 198.346 131.385 202.143 126.7 202.143 122.016 202.143 118.218 198.346 118.218 193.661 118.218 188.977 122.016 185.179 126.7 185.179 131.385 185.179 135.182 188.977 135.182 193.661Z" stroke="#3951D7" stroke-width="4.52396" stroke-linecap="round" stroke-linejoin="round" stroke-miterlimit="1.5" fill="none" fill-rule="evenodd" transform="matrix(1.00228 0 0 1 588.958 507.404)"/><path d="M135.182 193.661C135.182 198.346 131.385 202.143 126.7 202.143 122.016 202.143 118.218 198.346 118.218 193.661 118.218 188.977 122.016 185.179 126.7 185.179 131.385 185.179 135.182 188.977 135.182 193.661Z" stroke="#3951D7" stroke-width="4.52396" stroke-linecap="round" stroke-linejoin="round" stroke-miterlimit="1.5" fill="none" fill-rule="evenodd" transform="matrix(1.00228 0 0 1 588.958 545.032)"/><path d="M135.182 193.661C135.182 198.346 131.385 202.143 126.7 202.143 122.016 202.143 118.218 198.346 118.218 193.661 118.218 188.977 122.016 185.179 126.7 185.179 131.385 185.179 135.182 188.977 135.182 193.661Z" stroke="#3951D7" stroke-width="4.52396" stroke-linecap="round" stroke-linejoin="round" stroke-miterlimit="1.5" fill="none" fill-rule="evenodd" transform="matrix(1.00228 0 0 1 588.958 584.335)"/><path d="M135.182 193.661C135.182 198.346 131.385 202.143 126.7 202.143 122.016 202.143 118.218 198.346 118.218 193.661 118.218 188.977 122.016 185.179 126.7 185.179 131.385 185.179 135.182 188.977 135.182 193.661Z" stroke="#3951D7" stroke-width="4.52396" stroke-linecap="round" stroke-linejoin="round" stroke-miterlimit="1.5" fill="none" fill-rule="evenodd" transform="matrix(1.00228 0 0 1 588.958 621.962)"/><path d="M135.182 193.661C135.182 198.346 131.385 202.143 126.7 202.143 122.016 202.143 118.218 198.346 118.218 193.661 118.218 188.977 122.016 185.179 126.7 185.179 131.385 185.179 135.182 188.977 135.182 193.661Z" stroke="#3951D7" stroke-width="4.52396" stroke-linecap="round" stroke-linejoin="round" stroke-miterlimit="1.5" fill="none" fill-rule="evenodd" transform="matrix(1.00228 0 0 1 588.958 658.911)"/><path d="M135.182 193.661C135.182 198.346 131.385 202.143 126.7 202.143 122.016 202.143 118.218 198.346 118.218 193.661 118.218 188.977 122.016 185.179 126.7 185.179 131.385 185.179 135.182 188.977 135.182 193.661Z" stroke="#3951D7" stroke-width="4.52396" stroke-linecap="round" stroke-linejoin="round" stroke-miterlimit="1.5" fill="none" fill-rule="evenodd" transform="matrix(1.00228 0 0 1 588.958 696.539)"/><path d="M135.182 193.661C135.182 198.346 131.385 202.143 126.7 202.143 122.016 202.143 118.218 198.346 118.218 193.661 118.218 188.977 122.016 185.179 126.7 185.179 131.385 185.179 135.182 188.977 135.182 193.661Z" stroke="#3951D7" stroke-width="4.52396" stroke-linecap="round" stroke-linejoin="round" stroke-miterlimit="1.5" fill="none" fill-rule="evenodd" transform="matrix(1.00228 0 0 1 588.958 469.355)"/><path d="M148.437 190.471 217.867 190.471" stroke="#000000" stroke-width="4.52396" stroke-linecap="round" stroke-linejoin="round" stroke-miterlimit="1.5" stroke-dasharray="4.80732 11.029 0 0" fill="none" fill-rule="evenodd" transform="matrix(1.00228 0 0 1 373.863 471.798)"/><path d="M148.437 190.471 217.867 190.471" stroke="#000000" stroke-width="4.52396" stroke-linecap="round" stroke-linejoin="round" stroke-miterlimit="1.5" stroke-dasharray="4.80732 11.029 0 0" fill="none" fill-rule="evenodd" transform="matrix(1.00228 0 0 1 373.863 700.167)"/><path d="M148.437 190.471 217.867 190.471" stroke="#000000" stroke-width="4.52396" stroke-linecap="round" stroke-linejoin="round" stroke-miterlimit="1.5" stroke-dasharray="4.80732 11.029 0 0" fill="none" fill-rule="evenodd" transform="matrix(1.00228 0 0 1 480.965 471.798)"/><path d="M148.437 190.471 217.867 190.471" stroke="#000000" stroke-width="4.52396" stroke-linecap="round" stroke-linejoin="round" stroke-miterlimit="1.5" stroke-dasharray="4.80732 11.029 0 0" fill="none" fill-rule="evenodd" transform="matrix(1.00228 0 0 1 480.965 700.167)"/><path d="M153.783 214.393C163.575 226.652 173.641 242.171 174.098 258.464 174.254 264.026 169.457 268.037 170.141 272.918 172.763 291.623 183.014 303.29 162.407 315.881" stroke="#000000" stroke-width="4.52396" stroke-linecap="round" stroke-linejoin="round" stroke-miterlimit="1.5" stroke-dasharray="4.80732 11.029 0 0" fill="none" fill-rule="evenodd" transform="matrix(1.00228 0 0 1 373.863 471.798)"/><path d="M157.704 294.055C162.911 296.462 167.767 299.471 172.246 303.053 175.418 305.591 178.173 308.597 180.696 311.774 190.982 324.717 189.819 334.82 177.494 345.858 174.781 348.288 171.993 348.741 171.383 352.516 167.294 377.834 183.096 387.614 156.585 398.963" stroke="#000000" stroke-width="4.52396" stroke-linecap="round" stroke-linejoin="round" stroke-miterlimit="1.5" stroke-dasharray="4.80732 11.029 0 0" fill="none" fill-rule="evenodd" transform="matrix(1.00228 0 0 1 373.863 471.798)"/><path d="M187.078 268.835 217.628 268.835" stroke="#000000" stroke-width="4.52396" stroke-linecap="round" stroke-linejoin="round" stroke-miterlimit="1.5" stroke-dasharray="4.80732 11.029 0 0" fill="none" fill-rule="evenodd" transform="matrix(1.00228 0 0 1 373.863 471.798)"/><path d="M189.577 347.953 221.21 347.953" stroke="#000000" stroke-width="4.52396" stroke-linecap="round" stroke-linejoin="round" stroke-miterlimit="1.5" stroke-dasharray="4.80732 11.029 0 0" fill="none" fill-rule="evenodd" transform="matrix(1.00228 0 0 1 373.863 471.798)"/><path d="M3.81651-8.97335 6.72434-8.97335C7.45129-8.97335 8.06466-9.0415 8.58716-9.20053 9.08694-9.35955 9.49585-9.564 9.79118-9.81389 10.0865-10.0638 10.3137-10.3591 10.45-10.6999 10.5863-11.0406 10.6544-11.4041 10.6544-11.7903 10.6544-12.1765 10.5863-12.54 10.45-12.8807 10.3137-13.2215 10.0865-13.5168 9.79118-13.7667 9.49585-14.0166 9.08694-14.2211 8.58716-14.3801 8.06466-14.5164 7.45129-14.5845 6.72434-14.5845L3.81651-14.5845 3.81651-8.97335ZM3.81651 0 2.18087 0 2.18087-16.0839 7.13325-16.0839C8.7689-16.0839 10.0638-15.7204 11.0179-15.0162 11.9493-14.3119 12.4264-13.2215 12.4264-11.7903 12.4264-10.6772 12.0856-9.72303 11.3814-8.97335 10.6772-8.20096 9.65487-7.74662 8.31455-7.63303L12.9489 0 10.9498 0 6.5426-7.47401 3.81651-7.47401 3.81651 0Z" transform="matrix(1.00228 0 0 1 490.814 643.971)"/><path d="M9.90476-6.13368C9.90476-7.15596 9.60944-7.97379 8.99607-8.60987 8.3827-9.22324 7.54216-9.54129 6.45173-9.54129 5.97466-9.54129 5.4976-9.45042 5.04325-9.26868 4.5889-9.06422 4.20271-8.81433 3.86195-8.49629 3.52119-8.17825 3.22586-7.81477 3.04412-7.40586 2.83967-6.99694 2.72608-6.56531 2.72608-6.13368L9.90476-6.13368ZM2.68065-4.90695C2.72608-4.38445 2.86239-3.88467 3.06684-3.4076 3.2713-2.93054 3.56662-2.54434 3.90738-2.20358 4.24814-1.86282 4.65706-1.59021 5.1114-1.38576 5.56575-1.1813 6.06553-1.09043 6.58803-1.09043 7.38314-1.09043 8.08738-1.27217 8.67803-1.65837 9.24596-2.02184 9.70031-2.45347 9.99563-2.93054L11.1542-1.97641C10.5181-1.1813 9.81389-0.590651 9.06422-0.249891 8.29183 0.0908694 7.47401 0.272608 6.58803 0.272608 5.79292 0.272608 5.06597 0.136304 4.40717-0.159021 3.72565-0.43163 3.13499-0.817824 2.65793-1.31761 2.18087-1.81739 1.79467-2.40804 1.52206-3.08956 1.22674-3.77108 1.09043-4.52075 1.09043-5.31586 1.09043-6.11097 1.22674-6.86064 1.49934-7.54216 1.77195-8.22368 2.15815-8.81433 2.63521-9.31411 3.11228-9.81389 3.68021-10.2001 4.33901-10.4954 4.99782-10.768 5.70205-10.9043 6.45173-10.9043 7.24683-10.9043 7.97379-10.768 8.60987-10.4727 9.24596-10.1774 9.79118-9.81389 10.2228-9.33683 10.6317-8.85977 10.9725-8.29183 11.1997-7.65575 11.4268-6.99694 11.5404-6.31542 11.5404-5.58847L11.5404-4.90695 2.68065-4.90695Z" transform="matrix(1.00228 0 0 1 504.316 643.971)"/><path d="M7.26955-8.11009C7.04238-8.54172 6.74705-8.9052 6.36086-9.15509 5.97466-9.40498 5.52032-9.54129 4.9751-9.54129 4.72521-9.54129 4.4526-9.51857 4.20271-9.45042 3.9301-9.38226 3.68021-9.2914 3.47575-9.17781 3.2713-9.0415 3.08956-8.88248 2.97597-8.67803 2.83967-8.47357 2.77152-8.2464 2.77152-7.95107 2.77152-7.45129 2.95326-7.08781 3.29402-6.86064 3.63478-6.63347 4.15727-6.42901 4.86151-6.26999L6.38357-5.90651C7.13325-5.74749 7.74662-5.40673 8.2464-4.90695 8.72346-4.38445 8.97335-3.74836 8.97335-2.99869 8.97335-2.43076 8.85977-1.93097 8.63259-1.52206 8.3827-1.09043 8.08738-0.749672 7.70118-0.499782 7.31499-0.227173 6.86064-0.0227173 6.36086 0.0908694 5.86108 0.204456 5.36129 0.272608 4.8388 0.272608 4.02097 0.272608 3.24858 0.113587 2.56706-0.204456 1.86282-0.499782 1.24945-1.045 0.749672-1.79467L2.04456-2.68065C2.33989-2.20358 2.72608-1.81739 3.20315-1.52206 3.65749-1.22674 4.20271-1.09043 4.8388-1.09043 5.13412-1.09043 5.45216-1.11315 5.74749-1.20402 6.04281-1.27217 6.31542-1.36304 6.56531-1.52206 6.79249-1.65837 6.97423-1.84011 7.13325-2.06728 7.26955-2.29445 7.3377-2.56706 7.3377-2.86239 7.3377-3.38489 7.13325-3.77108 6.74705-4.02097 6.36086-4.24814 5.88379-4.42988 5.31586-4.56619L3.86195-4.90695C3.68021-4.95238 3.43032-5.02053 3.13499-5.13412 2.81695-5.24771 2.52163-5.40673 2.2263-5.61119 1.93097-5.81564 1.65837-6.11097 1.45391-6.45173 1.24945-6.79249 1.13587-7.2014 1.13587-7.70118 1.13587-8.2464 1.24945-8.72346 1.47663-9.13237 1.68108-9.54129 1.97641-9.88205 2.3626-10.1319 2.72608-10.3818 3.13499-10.5863 3.61206-10.7226 4.08912-10.8362 4.56619-10.9043 5.06597-10.9043 5.81564-10.9043 6.49716-10.768 7.13325-10.4727 7.76933-10.1774 8.26911-9.70031 8.60987-8.99607L7.26955-8.11009Z" transform="matrix(1.00228 0 0 1 516.975 643.971)"/><path d="M7.13325-9.26868 4.06641-9.26868 4.06641-2.99869C4.06641-2.6125 4.11184-2.27173 4.17999-2.04456 4.24814-1.79467 4.36173-1.59021 4.49803-1.45391 4.63434-1.31761 4.79336-1.22674 4.99782-1.1813 5.17956-1.11315 5.38401-1.09043 5.61119-1.09043 5.86108-1.09043 6.13368-1.13587 6.40629-1.20402 6.6789-1.27217 6.92879-1.38576 7.15596-1.49934L7.22412-0.113587C6.65618 0.136304 5.99738 0.272608 5.20227 0.272608 4.90695 0.272608 4.61162 0.227173 4.3163 0.159021 3.99825 0.0908694 3.70293-0.068152 3.45304-0.272608 3.20315-0.477064 2.97597-0.77239 2.81695-1.13587 2.65793-1.49934 2.56706-1.97641 2.56706-2.56706L2.56706-9.26868 0.318043-9.26868 0.318043-10.6317 2.56706-10.6317 2.56706-13.6304 4.06641-13.6304 4.06641-10.6317 7.13325-10.6317 7.13325-9.26868Z" transform="matrix(1.00228 0 0 1 526.675 643.971)"/><path d="M1.79467-7.31499C1.79467-7.79205 1.79467-8.26911 1.77195-8.74618 1.74924-9.22324 1.72652-9.85933 1.7038-10.6317L3.18043-10.6317 3.18043-8.65531 3.22586-8.65531C3.33945-8.95063 3.47575-9.22324 3.68021-9.49585 3.88467-9.74574 4.11184-9.99563 4.40717-10.2001 4.67977-10.4045 4.99782-10.5863 5.38401-10.7226 5.74749-10.8362 6.1564-10.9043 6.63347-10.9043 7.06509-10.9043 7.42857-10.8589 7.74662-10.768L7.45129-9.2914C7.24683-9.35955 6.97423-9.40498 6.58803-9.40498 6.0201-9.40498 5.52032-9.2914 5.1114-9.08694 4.70249-8.85977 4.36173-8.58716 4.08912-8.2464 3.81651-7.88292 3.61206-7.51944 3.49847-7.13325 3.36217-6.74705 3.29402-6.36086 3.29402-5.99738L3.29402 0 1.79467 0 1.79467-7.31499Z" transform="matrix(1.00228 0 0 1 534.234 643.971)"/><path d="M3.81651-14.7208C3.81651-14.4028 3.70293-14.1529 3.47575-13.9485 3.24858-13.7213 2.99869-13.6304 2.72608-13.6304 2.45347-13.6304 2.20358-13.7213 1.97641-13.9485 1.74924-14.1529 1.63565-14.4028 1.63565-14.7208 1.63565-15.0389 1.74924-15.3115 1.97641-15.5159 2.20358-15.7204 2.45347-15.8113 2.72608-15.8113 2.99869-15.8113 3.24858-15.7204 3.47575-15.5159 3.70293-15.3115 3.81651-15.0389 3.81651-14.7208ZM3.47575 0 1.97641 0 1.97641-10.6317 3.47575-10.6317 3.47575 0Z" transform="matrix(1.00228 0 0 1 541.794 643.971)"/><path d="M9.38226-8.13281C9.13237-8.51901 8.7689-8.85977 8.31455-9.13237 7.83748-9.40498 7.31499-9.54129 6.72434-9.54129 6.11097-9.564 5.54303-9.45042 5.06597-9.24596 4.56619-9.0415 4.13456-8.74618 3.7938-8.35998 3.45304-7.97379 3.18043-7.54216 2.99869-7.01966 2.81695-6.49716 2.72608-5.92923 2.72608-5.31586 2.72608-4.70249 2.81695-4.15727 2.99869-3.63478 3.18043-3.08956 3.45304-2.65793 3.7938-2.27173 4.13456-1.88554 4.56619-1.59021 5.06597-1.38576 5.54303-1.1813 6.11097-1.06772 6.72434-1.09043 7.31499-1.09043 7.83748-1.22674 8.31455-1.49934 8.7689-1.77195 9.13237-2.11271 9.38226-2.49891L10.609-1.5675C10.0865-0.954129 9.47313-0.499782 8.81433-0.204456 8.15553 0.113587 7.45129 0.249891 6.72434 0.272608 5.86108 0.295326 5.08869 0.159021 4.38445-0.136304 3.68021-0.408912 3.08956-0.795107 2.6125-1.29489 2.11271-1.79467 1.72652-2.38532 1.47663-3.08956 1.22674-3.77108 1.09043-4.52075 1.09043-5.31586 1.09043-6.11097 1.22674-6.86064 1.47663-7.56488 1.72652-8.2464 2.11271-8.83705 2.6125-9.33683 3.08956-9.83661 3.68021-10.2228 4.38445-10.5181 5.08869-10.7907 5.86108-10.927 6.72434-10.9043 7.45129-10.8816 8.15553-10.7226 8.81433-10.45 9.47313-10.1547 10.0865-9.67759 10.609-9.06422L9.38226-8.13281Z" transform="matrix(1.00228 0 0 1 547.258 643.971)"/><path d="M7.13325-9.26868 4.06641-9.26868 4.06641-2.99869C4.06641-2.6125 4.11184-2.27173 4.17999-2.04456 4.24814-1.79467 4.36173-1.59021 4.49803-1.45391 4.63434-1.31761 4.79336-1.22674 4.99782-1.1813 5.17956-1.11315 5.38401-1.09043 5.61119-1.09043 5.86108-1.09043 6.13368-1.13587 6.40629-1.20402 6.6789-1.27217 6.92879-1.38576 7.15596-1.49934L7.22412-0.113587C6.65618 0.136304 5.99738 0.272608 5.20227 0.272608 4.90695 0.272608 4.61162 0.227173 4.3163 0.159021 3.99825 0.0908694 3.70293-0.068152 3.45304-0.272608 3.20315-0.477064 2.97597-0.77239 2.81695-1.13587 2.65793-1.49934 2.56706-1.97641 2.56706-2.56706L2.56706-9.26868 0.318043-9.26868 0.318043-10.6317 2.56706-10.6317 2.56706-13.6304 4.06641-13.6304 4.06641-10.6317 7.13325-10.6317 7.13325-9.26868Z" transform="matrix(1.00228 0 0 1 558.233 643.971)"/><path d="M3.81651-14.7208C3.81651-14.4028 3.70293-14.1529 3.47575-13.9485 3.24858-13.7213 2.99869-13.6304 2.72608-13.6304 2.45347-13.6304 2.20358-13.7213 1.97641-13.9485 1.74924-14.1529 1.63565-14.4028 1.63565-14.7208 1.63565-15.0389 1.74924-15.3115 1.97641-15.5159 2.20358-15.7204 2.45347-15.8113 2.72608-15.8113 2.99869-15.8113 3.24858-15.7204 3.47575-15.5159 3.70293-15.3115 3.81651-15.0389 3.81651-14.7208ZM3.47575 0 1.97641 0 1.97641-10.6317 3.47575-10.6317 3.47575 0Z" transform="matrix(1.00228 0 0 1 565.792 643.971)"/><path d="M10.7453-5.31586C10.7453-5.90651 10.6544-6.45173 10.4727-6.97423 10.2682-7.49673 9.99563-7.92835 9.65487-8.31455 9.31411-8.70074 8.88248-8.99607 8.40542-9.22324 7.90564-9.4277 7.3377-9.54129 6.72434-9.54129 6.11097-9.54129 5.54303-9.4277 5.06597-9.22324 4.56619-8.99607 4.15727-8.70074 3.81651-8.31455 3.47575-7.92835 3.20315-7.49673 3.02141-6.97423 2.81695-6.45173 2.72608-5.90651 2.72608-5.31586 2.72608-4.72521 2.81695-4.17999 3.02141-3.65749 3.20315-3.13499 3.47575-2.70336 3.81651-2.31717 4.15727-1.93097 4.56619-1.63565 5.06597-1.43119 5.54303-1.20402 6.11097-1.09043 6.72434-1.09043 7.3377-1.09043 7.90564-1.20402 8.40542-1.43119 8.88248-1.63565 9.31411-1.93097 9.65487-2.31717 9.99563-2.70336 10.2682-3.13499 10.4727-3.65749 10.6544-4.17999 10.7453-4.72521 10.7453-5.31586ZM12.381-5.31586C12.381-4.52075 12.2446-3.77108 11.972-3.08956 11.6767-2.40804 11.2905-1.81739 10.7907-1.31761 10.291-0.817824 9.70031-0.43163 9.01879-0.159021 8.31455 0.136304 7.56488 0.272608 6.72434 0.272608 5.90651 0.272608 5.15684 0.136304 4.47532-0.159021 3.77108-0.43163 3.18043-0.817824 2.68065-1.31761 2.18087-1.81739 1.79467-2.40804 1.52206-3.08956 1.22674-3.77108 1.09043-4.52075 1.09043-5.31586 1.09043-6.11097 1.22674-6.86064 1.52206-7.54216 1.79467-8.22368 2.18087-8.81433 2.68065-9.31411 3.18043-9.81389 3.77108-10.2001 4.47532-10.4954 5.15684-10.768 5.90651-10.9043 6.72434-10.9043 7.56488-10.9043 8.31455-10.768 9.01879-10.4954 9.70031-10.2001 10.291-9.81389 10.7907-9.31411 11.2905-8.81433 11.6767-8.22368 11.972-7.54216 12.2446-6.86064 12.381-6.11097 12.381-5.31586Z" transform="matrix(1.00228 0 0 1 571.257 643.971)"/><path d="M3.06684-10.6317C3.08956-10.3364 3.11228-10.0638 3.13499-9.79118 3.13499-9.49585 3.13499-9.22324 3.13499-8.92792L3.18043-8.92792C3.33945-9.22324 3.56662-9.47313 3.81651-9.72303 4.06641-9.97292 4.36173-10.1774 4.67977-10.3591 4.99782-10.5181 5.33858-10.6544 5.70205-10.768 6.04281-10.8589 6.40629-10.9043 6.74705-10.9043 8.11009-10.9043 9.10966-10.5408 9.76846-9.83661 10.4273-9.10966 10.7453-8.08738 10.7453-6.74705L10.7453 0 9.24596 0 9.24596-5.88379C9.24596-7.06509 9.0415-7.97379 8.63259-8.60987 8.22368-9.22324 7.47401-9.54129 6.36086-9.54129 6.29271-9.54129 6.06553-9.51857 5.72477-9.45042 5.38401-9.38226 5.02053-9.22324 4.63434-8.95063 4.24814-8.67803 3.88467-8.26911 3.58934-7.7239 3.29402-7.17868 3.13499-6.42901 3.13499-5.45216L3.13499 0 1.63565 0 1.63565-8.29183C1.63565-8.58716 1.63565-8.95063 1.61293-9.38226 1.59021-9.81389 1.54478-10.2455 1.52206-10.6317L3.06684-10.6317Z" transform="matrix(1.00228 0 0 1 584.759 643.971)"/><path d="M3.81651-8.97335 6.45173-8.97335C7.17868-8.97335 7.79205-9.0415 8.31455-9.20053 8.81433-9.35955 9.22324-9.564 9.51857-9.81389 9.81389-10.0638 10.0411-10.3591 10.1774-10.6999 10.3137-11.0406 10.3818-11.4041 10.3818-11.7903 10.3818-12.1765 10.3137-12.54 10.1774-12.8807 10.0411-13.2215 9.81389-13.5168 9.51857-13.7667 9.22324-14.0166 8.81433-14.2211 8.31455-14.3801 7.79205-14.5164 7.17868-14.5845 6.45173-14.5845L3.81651-14.5845 3.81651-8.97335ZM2.18087-16.0839 6.86064-16.0839C8.49629-16.0839 9.79118-15.7204 10.7453-15.0162 11.6767-14.3119 12.1538-13.2215 12.1538-11.7903 12.1538-10.3591 11.6767-9.26868 10.7453-8.56444 9.79118-7.83748 8.49629-7.47401 6.86064-7.47401L3.81651-7.47401 3.81651 0 2.18087 0 2.18087-16.0839Z" transform="matrix(1.00228 0 0 1 608.54 644.174)"/><path d="M1.79467-7.31499C1.79467-7.79205 1.79467-8.26911 1.77195-8.74618 1.74924-9.22324 1.72652-9.85933 1.7038-10.6317L3.18043-10.6317 3.18043-8.65531 3.22586-8.65531C3.33945-8.95063 3.47575-9.22324 3.68021-9.49585 3.88467-9.74574 4.11184-9.99563 4.40717-10.2001 4.67977-10.4045 4.99782-10.5863 5.38401-10.7226 5.74749-10.8362 6.1564-10.9043 6.63347-10.9043 7.06509-10.9043 7.42857-10.8589 7.74662-10.768L7.45129-9.2914C7.24683-9.35955 6.97423-9.40498 6.58803-9.40498 6.0201-9.40498 5.52032-9.2914 5.1114-9.08694 4.70249-8.85977 4.36173-8.58716 4.08912-8.2464 3.81651-7.88292 3.61206-7.51944 3.49847-7.13325 3.36217-6.74705 3.29402-6.36086 3.29402-5.99738L3.29402 0 1.79467 0 1.79467-7.31499Z" transform="matrix(1.00228 0 0 1 621.609 644.174)"/><path d="M10.7453-5.31586C10.7453-5.90651 10.6544-6.45173 10.4727-6.97423 10.2682-7.49673 9.99563-7.92835 9.65487-8.31455 9.31411-8.70074 8.88248-8.99607 8.40542-9.22324 7.90564-9.4277 7.3377-9.54129 6.72434-9.54129 6.11097-9.54129 5.54303-9.4277 5.06597-9.22324 4.56619-8.99607 4.15727-8.70074 3.81651-8.31455 3.47575-7.92835 3.20315-7.49673 3.02141-6.97423 2.81695-6.45173 2.72608-5.90651 2.72608-5.31586 2.72608-4.72521 2.81695-4.17999 3.02141-3.65749 3.20315-3.13499 3.47575-2.70336 3.81651-2.31717 4.15727-1.93097 4.56619-1.63565 5.06597-1.43119 5.54303-1.20402 6.11097-1.09043 6.72434-1.09043 7.3377-1.09043 7.90564-1.20402 8.40542-1.43119 8.88248-1.63565 9.31411-1.93097 9.65487-2.31717 9.99563-2.70336 10.2682-3.13499 10.4727-3.65749 10.6544-4.17999 10.7453-4.72521 10.7453-5.31586ZM12.381-5.31586C12.381-4.52075 12.2446-3.77108 11.972-3.08956 11.6767-2.40804 11.2905-1.81739 10.7907-1.31761 10.291-0.817824 9.70031-0.43163 9.01879-0.159021 8.31455 0.136304 7.56488 0.272608 6.72434 0.272608 5.90651 0.272608 5.15684 0.136304 4.47532-0.159021 3.77108-0.43163 3.18043-0.817824 2.68065-1.31761 2.18087-1.81739 1.79467-2.40804 1.52206-3.08956 1.22674-3.77108 1.09043-4.52075 1.09043-5.31586 1.09043-6.11097 1.22674-6.86064 1.52206-7.54216 1.79467-8.22368 2.18087-8.81433 2.68065-9.31411 3.18043-9.81389 3.77108-10.2001 4.47532-10.4954 5.15684-10.768 5.90651-10.9043 6.72434-10.9043 7.56488-10.9043 8.31455-10.768 9.01879-10.4954 9.70031-10.2001 10.291-9.81389 10.7907-9.31411 11.2905-8.81433 11.6767-8.22368 11.972-7.54216 12.2446-6.86064 12.381-6.11097 12.381-5.31586Z" transform="matrix(1.00228 0 0 1 628.759 644.174)"/><path d="M1.97641-17.1743 3.47575-17.1743 3.47575 4.00802e-07 1.97641 4.00802e-07Z" transform="matrix(1.00228 0 0 1 642.261 644.174)"/><path d="M10.7453-5.31586C10.7453-5.90651 10.6544-6.45173 10.4727-6.97423 10.2682-7.49673 9.99563-7.92835 9.65487-8.31455 9.31411-8.70074 8.88248-8.99607 8.40542-9.22324 7.90564-9.4277 7.3377-9.54129 6.72434-9.54129 6.11097-9.54129 5.54303-9.4277 5.06597-9.22324 4.56619-8.99607 4.15727-8.70074 3.81651-8.31455 3.47575-7.92835 3.20315-7.49673 3.02141-6.97423 2.81695-6.45173 2.72608-5.90651 2.72608-5.31586 2.72608-4.72521 2.81695-4.17999 3.02141-3.65749 3.20315-3.13499 3.47575-2.70336 3.81651-2.31717 4.15727-1.93097 4.56619-1.63565 5.06597-1.43119 5.54303-1.20402 6.11097-1.09043 6.72434-1.09043 7.3377-1.09043 7.90564-1.20402 8.40542-1.43119 8.88248-1.63565 9.31411-1.93097 9.65487-2.31717 9.99563-2.70336 10.2682-3.13499 10.4727-3.65749 10.6544-4.17999 10.7453-4.72521 10.7453-5.31586ZM12.381-5.31586C12.381-4.52075 12.2446-3.77108 11.972-3.08956 11.6767-2.40804 11.2905-1.81739 10.7907-1.31761 10.291-0.817824 9.70031-0.43163 9.01879-0.159021 8.31455 0.136304 7.56488 0.272608 6.72434 0.272608 5.90651 0.272608 5.15684 0.136304 4.47532-0.159021 3.77108-0.43163 3.18043-0.817824 2.68065-1.31761 2.18087-1.81739 1.79467-2.40804 1.52206-3.08956 1.22674-3.77108 1.09043-4.52075 1.09043-5.31586 1.09043-6.11097 1.22674-6.86064 1.52206-7.54216 1.79467-8.22368 2.18087-8.81433 2.68065-9.31411 3.18043-9.81389 3.77108-10.2001 4.47532-10.4954 5.15684-10.768 5.90651-10.9043 6.72434-10.9043 7.56488-10.9043 8.31455-10.768 9.01879-10.4954 9.70031-10.2001 10.291-9.81389 10.7907-9.31411 11.2905-8.81433 11.6767-8.22368 11.972-7.54216 12.2446-6.86064 12.381-6.11097 12.381-5.31586Z" transform="matrix(1.00228 0 0 1 647.726 644.174)"/><path d="M3.06684-10.6317C3.08956-10.3364 3.11228-10.0638 3.13499-9.79118 3.13499-9.49585 3.13499-9.22324 3.13499-8.92792L3.18043-8.92792C3.33945-9.22324 3.56662-9.47313 3.81651-9.72303 4.06641-9.97292 4.36173-10.1774 4.67977-10.3591 4.99782-10.5181 5.33858-10.6544 5.70205-10.768 6.04281-10.8589 6.40629-10.9043 6.74705-10.9043 8.11009-10.9043 9.10966-10.5408 9.76846-9.83661 10.4273-9.10966 10.7453-8.08738 10.7453-6.74705L10.7453 0 9.24596 0 9.24596-5.88379C9.24596-7.06509 9.0415-7.97379 8.63259-8.60987 8.22368-9.22324 7.47401-9.54129 6.36086-9.54129 6.29271-9.54129 6.06553-9.51857 5.72477-9.45042 5.38401-9.38226 5.02053-9.22324 4.63434-8.95063 4.24814-8.67803 3.88467-8.26911 3.58934-7.7239 3.29402-7.17868 3.13499-6.42901 3.13499-5.45216L3.13499 0 1.63565 0 1.63565-8.29183C1.63565-8.58716 1.63565-8.95063 1.61293-9.38226 1.59021-9.81389 1.54478-10.2455 1.52206-10.6317L3.06684-10.6317Z" transform="matrix(1.00228 0 0 1 661.228 644.174)"/><path d="M2.72608-5.45216C2.72608-4.88423 2.83967-4.36173 3.04412-3.88467 3.22586-3.38489 3.52119-2.95326 3.88467-2.58978 4.22543-2.20358 4.65706-1.90826 5.13412-1.7038 5.61119-1.47663 6.11097-1.36304 6.6789-1.36304 7.22412-1.36304 7.74662-1.45391 8.2464-1.65837 8.72346-1.86282 9.15509-2.13543 9.54129-2.49891 9.92748-2.83967 10.2228-3.2713 10.4273-3.77108 10.6317-4.27086 10.7226-4.8388 10.6999-5.45216 10.6999-6.0201 10.609-6.5426 10.4273-7.04238 10.2455-7.51944 9.97292-7.95107 9.63216-8.33727 9.2914-8.70074 8.85977-8.99607 8.35998-9.22324 7.8602-9.4277 7.29227-9.54129 6.6789-9.54129 6.11097-9.54129 5.61119-9.4277 5.13412-9.22324 4.65706-8.99607 4.22543-8.70074 3.88467-8.33727 3.52119-7.95107 3.22586-7.51944 3.04412-7.04238 2.83967-6.5426 2.72608-6.0201 2.72608-5.45216ZM2.45347 2.13543C2.8851 2.72608 3.47575 3.20315 4.17999 3.56662 4.88423 3.90738 5.65662 4.08912 6.51988 4.08912 7.26955 4.08912 7.92835 3.97554 8.45085 3.77108 8.97335 3.54391 9.40498 3.24858 9.74574 2.86239 10.0638 2.47619 10.291 2.04456 10.45 1.54478 10.5863 1.02228 10.6544 0.477064 10.6544-0.0908694L10.6544-1.99913 10.609-1.99913C10.1319-1.27217 9.54129-0.749672 8.83705-0.454347 8.13281-0.159021 7.40586 0 6.63347 0 5.86108 0 5.13412-0.136304 4.47532-0.408912 3.7938-0.68152 3.20315-1.06772 2.70336-1.54478 2.20358-2.02184 1.81739-2.58978 1.52206-3.24858 1.22674-3.90738 1.09043-4.63434 1.09043-5.40673 1.09043-6.17912 1.22674-6.90607 1.49934-7.56488 1.77195-8.22368 2.15815-8.81433 2.63521-9.31411 3.08956-9.81389 3.68021-10.2001 4.33901-10.4954 4.99782-10.768 5.70205-10.9043 6.49716-10.9043 6.8152-10.9043 7.15596-10.8816 7.51944-10.8135 7.8602-10.7453 8.22368-10.6544 8.58716-10.4954 8.92792-10.3364 9.2914-10.1319 9.63216-9.88205 9.97292-9.60944 10.3137-9.26868 10.609-8.85977L10.6544-8.85977 10.6544-10.6317 12.1538-10.6317 12.1538-0.0908694C12.1538 0.477064 12.0856 1.09043 11.9493 1.74924 11.7903 2.40804 11.5177 2.99869 11.1088 3.54391 10.6772 4.08912 10.1092 4.54347 9.35955 4.90695 8.60987 5.27042 7.65575 5.45216 6.45173 5.45216 5.38401 5.45216 4.4526 5.27042 3.61206 4.92966 2.77152 4.5889 2.02184 4.04369 1.34032 3.31673L2.45347 2.13543Z" transform="matrix(1.00228 0 0 1 673.887 644.174)"/><path d="M7.67846-5.29314C7.29227-5.29314 6.83792-5.27042 6.26999-5.24771 5.70205-5.20227 5.15684-5.1114 4.63434-4.9751 4.11184-4.81608 3.65749-4.5889 3.29402-4.29358 2.90782-3.99825 2.72608-3.56662 2.72608-3.04412 2.72608-2.70336 2.79423-2.40804 2.95326-2.15815 3.08956-1.90826 3.2713-1.7038 3.52119-1.54478 3.77108-1.38576 4.04369-1.27217 4.33901-1.20402 4.63434-1.11315 4.92966-1.09043 5.22499-1.09043 5.77021-1.09043 6.24727-1.1813 6.65618-1.36304 7.04238-1.54478 7.38314-1.79467 7.65575-2.11271 7.92835-2.40804 8.13281-2.77152 8.26911-3.20315 8.3827-3.61206 8.45085-4.04369 8.45085-4.52075L8.45085-5.29314 7.67846-5.29314ZM8.45085-6.51988 8.45085-6.79249C8.45085-8.63259 7.54216-9.54129 5.72477-9.54129 4.47532-9.54129 3.4076-9.13237 2.47619-8.29183L1.5675-9.35955C2.56706-10.3818 4.06641-10.9043 6.06553-10.9043 6.58803-10.9043 7.08781-10.8362 7.56488-10.6772 8.04194-10.5181 8.45085-10.291 8.79161-9.99563 9.13237-9.67759 9.4277-9.2914 9.63216-8.81433 9.83661-8.33727 9.9502-7.79205 9.9502-7.13325L9.9502-2.38532C9.9502-1.97641 9.97292-1.54478 10.0184-1.11315 10.0411-0.658803 10.0865-0.295326 10.1319 0L8.67803 0C8.63259-0.249891 8.60987-0.545216 8.58716-0.840542 8.56444-1.13587 8.54172-1.43119 8.54172-1.72652L8.49629-1.72652C8.06466-1.02228 7.54216-0.499782 6.95151-0.204456 6.33814 0.113587 5.61119 0.272608 4.74793 0.272608 4.27086 0.272608 3.81651 0.204456 3.38489 0.0908694 2.95326-0.0454347 2.56706-0.249891 2.2263-0.522499 1.88554-0.77239 1.59021-1.11315 1.40848-1.49934 1.20402-1.88554 1.09043-2.31717 1.09043-2.83967 1.09043-3.70293 1.31761-4.38445 1.77195-4.88423 2.20358-5.36129 2.77152-5.72477 3.45304-5.97466 4.11184-6.22455 4.8388-6.36086 5.61119-6.42901 6.36086-6.49716 7.06509-6.51988 7.70118-6.51988L8.45085-6.51988Z" transform="matrix(1.00228 0 0 1 687.799 644.174)"/><path d="M7.13325-9.26868 4.06641-9.26868 4.06641-2.99869C4.06641-2.6125 4.11184-2.27173 4.17999-2.04456 4.24814-1.79467 4.36173-1.59021 4.49803-1.45391 4.63434-1.31761 4.79336-1.22674 4.99782-1.1813 5.17956-1.11315 5.38401-1.09043 5.61119-1.09043 5.86108-1.09043 6.13368-1.13587 6.40629-1.20402 6.6789-1.27217 6.92879-1.38576 7.15596-1.49934L7.22412-0.113587C6.65618 0.136304 5.99738 0.272608 5.20227 0.272608 4.90695 0.272608 4.61162 0.227173 4.3163 0.159021 3.99825 0.0908694 3.70293-0.068152 3.45304-0.272608 3.20315-0.477064 2.97597-0.77239 2.81695-1.13587 2.65793-1.49934 2.56706-1.97641 2.56706-2.56706L2.56706-9.26868 0.318043-9.26868 0.318043-10.6317 2.56706-10.6317 2.56706-13.6304 4.06641-13.6304 4.06641-10.6317 7.13325-10.6317 7.13325-9.26868Z" transform="matrix(1.00228 0 0 1 699.616 644.174)"/><path d="M3.81651-14.7208C3.81651-14.4028 3.70293-14.1529 3.47575-13.9485 3.24858-13.7213 2.99869-13.6304 2.72608-13.6304 2.45347-13.6304 2.20358-13.7213 1.97641-13.9485 1.74924-14.1529 1.63565-14.4028 1.63565-14.7208 1.63565-15.0389 1.74924-15.3115 1.97641-15.5159 2.20358-15.7204 2.45347-15.8113 2.72608-15.8113 2.99869-15.8113 3.24858-15.7204 3.47575-15.5159 3.70293-15.3115 3.81651-15.0389 3.81651-14.7208ZM3.47575 0 1.97641 0 1.97641-10.6317 3.47575-10.6317 3.47575 0Z" transform="matrix(1.00228 0 0 1 707.176 644.174)"/><path d="M10.7453-5.31586C10.7453-5.90651 10.6544-6.45173 10.4727-6.97423 10.2682-7.49673 9.99563-7.92835 9.65487-8.31455 9.31411-8.70074 8.88248-8.99607 8.40542-9.22324 7.90564-9.4277 7.3377-9.54129 6.72434-9.54129 6.11097-9.54129 5.54303-9.4277 5.06597-9.22324 4.56619-8.99607 4.15727-8.70074 3.81651-8.31455 3.47575-7.92835 3.20315-7.49673 3.02141-6.97423 2.81695-6.45173 2.72608-5.90651 2.72608-5.31586 2.72608-4.72521 2.81695-4.17999 3.02141-3.65749 3.20315-3.13499 3.47575-2.70336 3.81651-2.31717 4.15727-1.93097 4.56619-1.63565 5.06597-1.43119 5.54303-1.20402 6.11097-1.09043 6.72434-1.09043 7.3377-1.09043 7.90564-1.20402 8.40542-1.43119 8.88248-1.63565 9.31411-1.93097 9.65487-2.31717 9.99563-2.70336 10.2682-3.13499 10.4727-3.65749 10.6544-4.17999 10.7453-4.72521 10.7453-5.31586ZM12.381-5.31586C12.381-4.52075 12.2446-3.77108 11.972-3.08956 11.6767-2.40804 11.2905-1.81739 10.7907-1.31761 10.291-0.817824 9.70031-0.43163 9.01879-0.159021 8.31455 0.136304 7.56488 0.272608 6.72434 0.272608 5.90651 0.272608 5.15684 0.136304 4.47532-0.159021 3.77108-0.43163 3.18043-0.817824 2.68065-1.31761 2.18087-1.81739 1.79467-2.40804 1.52206-3.08956 1.22674-3.77108 1.09043-4.52075 1.09043-5.31586 1.09043-6.11097 1.22674-6.86064 1.52206-7.54216 1.79467-8.22368 2.18087-8.81433 2.68065-9.31411 3.18043-9.81389 3.77108-10.2001 4.47532-10.4954 5.15684-10.768 5.90651-10.9043 6.72434-10.9043 7.56488-10.9043 8.31455-10.768 9.01879-10.4954 9.70031-10.2001 10.291-9.81389 10.7907-9.31411 11.2905-8.81433 11.6767-8.22368 11.972-7.54216 12.2446-6.86064 12.381-6.11097 12.381-5.31586Z" transform="matrix(1.00228 0 0 1 712.64 644.174)"/><path d="M3.06684-10.6317C3.08956-10.3364 3.11228-10.0638 3.13499-9.79118 3.13499-9.49585 3.13499-9.22324 3.13499-8.92792L3.18043-8.92792C3.33945-9.22324 3.56662-9.47313 3.81651-9.72303 4.06641-9.97292 4.36173-10.1774 4.67977-10.3591 4.99782-10.5181 5.33858-10.6544 5.70205-10.768 6.04281-10.8589 6.40629-10.9043 6.74705-10.9043 8.11009-10.9043 9.10966-10.5408 9.76846-9.83661 10.4273-9.10966 10.7453-8.08738 10.7453-6.74705L10.7453 0 9.24596 0 9.24596-5.88379C9.24596-7.06509 9.0415-7.97379 8.63259-8.60987 8.22368-9.22324 7.47401-9.54129 6.36086-9.54129 6.29271-9.54129 6.06553-9.51857 5.72477-9.45042 5.38401-9.38226 5.02053-9.22324 4.63434-8.95063 4.24814-8.67803 3.88467-8.26911 3.58934-7.7239 3.29402-7.17868 3.13499-6.42901 3.13499-5.45216L3.13499 0 1.63565 0 1.63565-8.29183C1.63565-8.58716 1.63565-8.95063 1.61293-9.38226 1.59021-9.81389 1.54478-10.2455 1.52206-10.6317L3.06684-10.6317Z" transform="matrix(1.00228 0 0 1 726.142 644.174)"/><path d="M250.794 190.061C256.584 201.178 259.334 218.916 256.21 231.472 255.081 236.013 252.257 236.643 252.324 242.219 252.531 259.021 261.665 270.422 247.098 283.883" stroke="#000000" stroke-width="4.52396" stroke-linecap="round" stroke-linejoin="round" stroke-miterlimit="1.5" stroke-dasharray="4.80732 11.029 0 0" fill="none" fill-rule="evenodd" transform="matrix(1.00228 0 0 1 373.863 471.798)"/><path d="M267.327 256.508C274.249 267.603 274.83 279.209 271.25 291.357 270.26 294.708 268.436 297.384 268.451 300.964 268.53 323.024 284.536 341.214 265.198 359.992" stroke="#000000" stroke-width="4.52396" stroke-linecap="round" stroke-linejoin="round" stroke-miterlimit="1.5" stroke-dasharray="4.80732 11.029 0 0" fill="none" fill-rule="evenodd" transform="matrix(1.00228 0 0 1 373.863 471.798)"/><path d="M285.891 339.117C288.153 345.265 289.435 351.632 288.481 358.188 287.111 367.599 281.606 370.829 278.558 378.209 272.891 391.936 276.55 398.751 264.686 411.303" stroke="#000000" stroke-width="4.52396" stroke-linecap="round" stroke-linejoin="round" stroke-miterlimit="1.5" stroke-dasharray="4.80732 11.029 0 0" fill="none" fill-rule="evenodd" transform="matrix(1.00228 0 0 1 373.863 471.798)"/><path d="M266.766 233.88 324.567 233.88" stroke="#000000" stroke-width="4.52396" stroke-linecap="round" stroke-linejoin="round" stroke-miterlimit="1.5" stroke-dasharray="4.80732 11.029 0 0" fill="none" fill-rule="evenodd" transform="matrix(1.00228 0 0 1 373.863 471.798)"/><path d="M249.377 268.17 325.232 268.17" stroke="#000000" stroke-width="4.52396" stroke-linecap="round" stroke-linejoin="round" stroke-miterlimit="1.5" stroke-dasharray="4.80732 11.029 0 0" fill="none" fill-rule="evenodd" transform="matrix(1.00228 0 0 1 373.863 471.798)"/><path d="M278.62 305.949 324.567 305.949" stroke="#000000" stroke-width="4.52396" stroke-linecap="round" stroke-linejoin="round" stroke-miterlimit="1.5" stroke-dasharray="4.80732 11.029 0 0" fill="none" fill-rule="evenodd" transform="matrix(1.00228 0 0 1 373.863 471.798)"/><path d="M249.843 345.403 325.565 345.403" stroke="#000000" stroke-width="4.52396" stroke-linecap="round" stroke-linejoin="round" stroke-miterlimit="1.5" stroke-dasharray="4.80732 11.029 0 0" fill="none" fill-rule="evenodd" transform="matrix(1.00228 0 0 1 373.863 471.798)"/><path d="M285.362 383.95 325.397 383.95" stroke="#000000" stroke-width="4.52396" stroke-linecap="round" stroke-linejoin="round" stroke-miterlimit="1.5" stroke-dasharray="4.80732 11.029 0 0" fill="none" fill-rule="evenodd" transform="matrix(1.00228 0 0 1 373.863 471.798)"/></g></svg>