<?xml version="1.0" encoding="UTF-8" standalone="no"?>
<!DOCTYPE svg PUBLIC "-//W3C//DTD SVG 1.1//EN" "http://www.w3.org/Graphics/SVG/1.1/DTD/svg11.dtd">
<svg width="100%" height="100%" viewBox="0 0 1982 1137" version="1.1" xmlns="http://www.w3.org/2000/svg" xmlns:xlink="http://www.w3.org/1999/xlink" xml:space="preserve" xmlns:serif="http://www.serif.com/" style="fill-rule:evenodd;clip-rule:evenodd;stroke-linecap:round;stroke-linejoin:round;stroke-miterlimit:1.5;">
    <path d="M424.021,1131.79l-0,-766.563" style="fill:none;stroke:black;stroke-width:9.58px;"/>
    <path d="M423.555,360.155l-35.276,35.276" style="fill:none;stroke:black;stroke-width:9.58px;"/>
    <path d="M423.555,360.155l35.017,35.017" style="fill:none;stroke:black;stroke-width:9.58px;"/>
    <path d="M20.916,797.829l869.982,-0" style="fill:none;stroke:black;stroke-width:9.58px;"/>
    <path d="M894.428,797.118l-36.227,-36.227" style="fill:none;stroke:black;stroke-width:9.58px;"/>
    <path d="M894.428,797.118l-35.766,35.766" style="fill:none;stroke:black;stroke-width:9.58px;"/>
    <circle cx="452.902" cy="770.788" r="13.179" style="fill:rgb(197,0,0);stroke:rgb(213,53,53);stroke-width:9.58px;"/>
    <circle cx="1588.97" cy="897.965" r="14.926" style="fill:rgb(197,0,0);stroke:rgb(213,53,53);stroke-width:9.58px;"/>
    <circle cx="576.878" cy="549.671" r="13.179" style="fill:rgb(0,9,197);stroke:rgb(53,81,213);stroke-width:9.58px;"/>
    <circle cx="1736.26" cy="595.284" r="14.926" style="fill:rgb(0,9,197);stroke:rgb(53,81,213);stroke-width:9.58px;"/>
    <circle cx="289.951" cy="616.073" r="13.179" style="fill:rgb(0,9,197);stroke:rgb(53,81,213);stroke-width:9.58px;"/>
    <circle cx="1407.6" cy="515.698" r="14.926" style="fill:rgb(0,9,197);stroke:rgb(53,81,213);stroke-width:9.58px;"/>
    <circle cx="453.946" cy="619.134" r="13.179" style="fill:rgb(197,0,0);stroke:rgb(213,53,53);stroke-width:9.58px;"/>
    <circle cx="1656.34" cy="760.43" r="14.926" style="fill:rgb(197,0,0);stroke:rgb(213,53,53);stroke-width:9.58px;"/>
    <circle cx="456.348" cy="486.713" r="13.179" style="fill:rgb(0,9,197);stroke:rgb(53,81,213);stroke-width:9.58px;"/>
    <circle cx="1656.72" cy="489.199" r="14.926" style="fill:rgb(0,9,197);stroke:rgb(53,81,213);stroke-width:9.58px;"/>
    <circle cx="343.932" cy="833.852" r="13.179" style="fill:rgb(197,0,0);stroke:rgb(213,53,53);stroke-width:9.58px;"/>
    <circle cx="1609.36" cy="837.236" r="14.926" style="fill:rgb(197,0,0);stroke:rgb(213,53,53);stroke-width:9.58px;"/>
    <circle cx="711.48" cy="681.306" r="13.179" style="fill:rgb(0,9,197);stroke:rgb(53,81,213);stroke-width:9.58px;"/>
    <circle cx="1954.55" cy="477.565" r="14.926" style="fill:rgb(0,9,197);stroke:rgb(53,81,213);stroke-width:9.58px;"/>
    <circle cx="470.017" cy="1076.34" r="13.179" style="fill:rgb(0,9,197);stroke:rgb(53,81,213);stroke-width:9.58px;"/>
    <circle cx="1283.05" cy="474.25" r="14.926" style="fill:rgb(0,9,197);stroke:rgb(53,81,213);stroke-width:9.58px;"/>
    <circle cx="535.217" cy="831.779" r="13.179" style="fill:rgb(197,0,0);stroke:rgb(213,53,53);stroke-width:9.58px;"/>
    <circle cx="1754.49" cy="849.66" r="14.926" style="fill:rgb(197,0,0);stroke:rgb(213,53,53);stroke-width:9.58px;"/>
    <circle cx="185.982" cy="786.363" r="13.179" style="fill:rgb(0,9,197);stroke:rgb(53,81,213);stroke-width:9.58px;"/>
    <circle cx="1366.69" cy="634.196" r="14.926" style="fill:rgb(0,9,197);stroke:rgb(53,81,213);stroke-width:9.58px;"/>
    <circle cx="488.368" cy="874.186" r="13.179" style="fill:rgb(197,0,0);stroke:rgb(213,53,53);stroke-width:9.58px;"/>
    <circle cx="1789.5" cy="789.008" r="14.926" style="fill:rgb(197,0,0);stroke:rgb(213,53,53);stroke-width:9.58px;"/>
    <circle cx="194.179" cy="875.239" r="13.179" style="fill:rgb(0,9,197);stroke:rgb(53,81,213);stroke-width:9.58px;"/>
    <circle cx="1485.47" cy="683.794" r="14.926" style="fill:rgb(0,9,197);stroke:rgb(53,81,213);stroke-width:9.58px;"/>
    <circle cx="298.35" cy="776.624" r="13.179" style="fill:rgb(197,0,0);stroke:rgb(213,53,53);stroke-width:9.58px;"/>
    <circle cx="1421.32" cy="868.339" r="14.926" style="fill:rgb(197,0,0);stroke:rgb(213,53,53);stroke-width:9.58px;"/>
    <circle cx="637.986" cy="730.092" r="13.179" style="fill:rgb(0,9,197);stroke:rgb(53,81,213);stroke-width:9.58px;"/>
    <circle cx="1661.05" cy="579.859" r="14.926" style="fill:rgb(0,9,197);stroke:rgb(53,81,213);stroke-width:9.58px;"/>
    <circle cx="403.667" cy="902.232" r="13.179" style="fill:rgb(197,0,0);stroke:rgb(213,53,53);stroke-width:9.58px;"/>
    <circle cx="1327.02" cy="807.263" r="14.926" style="fill:rgb(197,0,0);stroke:rgb(213,53,53);stroke-width:9.58px;"/>
    <circle cx="549.092" cy="1034.72" r="13.179" style="fill:rgb(0,9,197);stroke:rgb(53,81,213);stroke-width:9.58px;"/>
    <circle cx="1367.73" cy="688.882" r="14.926" style="fill:rgb(0,9,197);stroke:rgb(53,81,213);stroke-width:9.58px;"/>
    <circle cx="329.658" cy="906.186" r="13.179" style="fill:rgb(197,0,0);stroke:rgb(213,53,53);stroke-width:9.58px;"/>
    <circle cx="1473.74" cy="849.97" r="14.926" style="fill:rgb(197,0,0);stroke:rgb(213,53,53);stroke-width:9.58px;"/>
    <circle cx="684.917" cy="551.053" r="13.179" style="fill:rgb(0,9,197);stroke:rgb(53,81,213);stroke-width:9.58px;"/>
    <circle cx="1817.66" cy="606.402" r="14.926" style="fill:rgb(0,9,197);stroke:rgb(53,81,213);stroke-width:9.58px;"/>
    <circle cx="354.817" cy="449.855" r="13.179" style="fill:rgb(0,9,197);stroke:rgb(53,81,213);stroke-width:9.58px;"/>
    <circle cx="1446.88" cy="633.374" r="14.926" style="fill:rgb(0,9,197);stroke:rgb(53,81,213);stroke-width:9.58px;"/>
    <circle cx="341.319" cy="1014.88" r="13.179" style="fill:rgb(0,9,197);stroke:rgb(53,81,213);stroke-width:9.58px;"/>
    <circle cx="1199.48" cy="554.405" r="14.926" style="fill:rgb(0,9,197);stroke:rgb(53,81,213);stroke-width:9.58px;"/>
    <circle cx="459.211" cy="690.74" r="13.179" style="fill:rgb(197,0,0);stroke:rgb(213,53,53);stroke-width:9.58px;"/>
    <circle cx="1600.96" cy="790.461" r="14.926" style="fill:rgb(197,0,0);stroke:rgb(213,53,53);stroke-width:9.58px;"/>
    <circle cx="545.941" cy="479.35" r="13.179" style="fill:rgb(0,9,197);stroke:rgb(53,81,213);stroke-width:9.58px;"/>
    <circle cx="1737.19" cy="506.547" r="14.926" style="fill:rgb(0,9,197);stroke:rgb(53,81,213);stroke-width:9.58px;"/>
    <circle cx="356.953" cy="655.561" r="13.179" style="fill:rgb(197,0,0);stroke:rgb(213,53,53);stroke-width:9.58px;"/>
    <circle cx="1507.58" cy="779.16" r="14.926" style="fill:rgb(197,0,0);stroke:rgb(213,53,53);stroke-width:9.58px;"/>
    <circle cx="324.485" cy="547.092" r="13.179" style="fill:rgb(0,9,197);stroke:rgb(53,81,213);stroke-width:9.58px;"/>
    <circle cx="1400.93" cy="579.596" r="14.926" style="fill:rgb(0,9,197);stroke:rgb(53,81,213);stroke-width:9.58px;"/>
    <circle cx="380.473" cy="744.906" r="13.179" style="fill:rgb(197,0,0);stroke:rgb(213,53,53);stroke-width:9.58px;"/>
    <circle cx="1506.94" cy="868.653" r="14.926" style="fill:rgb(197,0,0);stroke:rgb(213,53,53);stroke-width:9.58px;"/>
    <circle cx="646.255" cy="848.336" r="13.179" style="fill:rgb(0,9,197);stroke:rgb(53,81,213);stroke-width:9.58px;"/>
    <circle cx="1695.53" cy="658.648" r="14.926" style="fill:rgb(0,9,197);stroke:rgb(53,81,213);stroke-width:9.58px;"/>
    <circle cx="305.558" cy="702.711" r="13.179" style="fill:rgb(197,0,0);stroke:rgb(213,53,53);stroke-width:9.58px;"/>
    <circle cx="1427.39" cy="775.073" r="14.926" style="fill:rgb(197,0,0);stroke:rgb(213,53,53);stroke-width:9.58px;"/>
    <circle cx="643.042" cy="622.403" r="13.179" style="fill:rgb(0,9,197);stroke:rgb(53,81,213);stroke-width:9.58px;"/>
    <circle cx="1776.62" cy="692.314" r="14.926" style="fill:rgb(0,9,197);stroke:rgb(53,81,213);stroke-width:9.58px;"/>
    <circle cx="257.132" cy="527.074" r="13.179" style="fill:rgb(0,9,197);stroke:rgb(53,81,213);stroke-width:9.58px;"/>
    <circle cx="1334.58" cy="547.259" r="14.926" style="fill:rgb(0,9,197);stroke:rgb(53,81,213);stroke-width:9.58px;"/>
    <circle cx="485.427" cy="984.075" r="13.179" style="fill:rgb(0,9,197);stroke:rgb(53,81,213);stroke-width:9.58px;"/>
    <circle cx="1586.14" cy="661.665" r="14.926" style="fill:rgb(0,9,197);stroke:rgb(53,81,213);stroke-width:9.58px;"/>
    <circle cx="518.946" cy="759.119" r="13.179" style="fill:rgb(197,0,0);stroke:rgb(213,53,53);stroke-width:9.58px;"/>
    <circle cx="1681.5" cy="863.654" r="14.926" style="fill:rgb(197,0,0);stroke:rgb(213,53,53);stroke-width:9.58px;"/>
    <circle cx="167.422" cy="703.05" r="13.179" style="fill:rgb(0,9,197);stroke:rgb(53,81,213);stroke-width:9.58px;"/>
    <circle cx="1251.96" cy="696.965" r="14.926" style="fill:rgb(0,9,197);stroke:rgb(53,81,213);stroke-width:9.58px;"/>
    <circle cx="537.953" cy="678.461" r="13.179" style="fill:rgb(197,0,0);stroke:rgb(213,53,53);stroke-width:9.58px;"/>
    <circle cx="1733.96" cy="792.414" r="14.926" style="fill:rgb(197,0,0);stroke:rgb(213,53,53);stroke-width:9.58px;"/>
    <circle cx="212.143" cy="608.295" r="13.179" style="fill:rgb(0,9,197);stroke:rgb(53,81,213);stroke-width:9.58px;"/>
    <circle cx="1275.11" cy="623.398" r="14.926" style="fill:rgb(0,9,197);stroke:rgb(53,81,213);stroke-width:9.58px;"/>
    <circle cx="409.976" cy="822.184" r="13.179" style="fill:rgb(197,0,0);stroke:rgb(213,53,53);stroke-width:9.58px;"/>
    <circle cx="1556.06" cy="821.824" r="14.926" style="fill:rgb(197,0,0);stroke:rgb(213,53,53);stroke-width:9.58px;"/>
    <circle cx="633.011" cy="943.793" r="13.179" style="fill:rgb(0,9,197);stroke:rgb(53,81,213);stroke-width:9.58px;"/>
    <circle cx="1884.84" cy="538.882" r="14.926" style="fill:rgb(0,9,197);stroke:rgb(53,81,213);stroke-width:9.58px;"/>
    <circle cx="272.092" cy="844.668" r="13.179" style="fill:rgb(197,0,0);stroke:rgb(213,53,53);stroke-width:9.58px;"/>
    <circle cx="1392.97" cy="819.677" r="14.926" style="fill:rgb(197,0,0);stroke:rgb(213,53,53);stroke-width:9.58px;"/>
    <circle cx="627.352" cy="489.535" r="13.179" style="fill:rgb(0,9,197);stroke:rgb(53,81,213);stroke-width:9.58px;"/>
    <circle cx="1810.88" cy="531.379" r="14.926" style="fill:rgb(0,9,197);stroke:rgb(53,81,213);stroke-width:9.58px;"/>
    <circle cx="512.627" cy="560.211" r="13.179" style="fill:rgb(0,9,197);stroke:rgb(53,81,213);stroke-width:9.58px;"/>
    <circle cx="1590.83" cy="586.717" r="14.926" style="fill:rgb(0,9,197);stroke:rgb(53,81,213);stroke-width:9.58px;"/>
    <circle cx="258.149" cy="962.355" r="13.179" style="fill:rgb(0,9,197);stroke:rgb(53,81,213);stroke-width:9.58px;"/>
    <circle cx="1199.17" cy="388.85" r="14.926" style="fill:rgb(0,9,197);stroke:rgb(53,81,213);stroke-width:9.58px;"/>
    <path d="M-0,198.168l7.947,0l-0,6.446l0.176,-0c1.001,-2.237 2.737,-4.047 5.21,-5.43c2.472,-1.384 5.327,-2.075 8.564,-2.075c2.002,-0 3.929,0.309 5.784,0.927c1.854,0.618 3.473,1.575 4.856,2.87c1.383,1.295 2.487,2.957 3.311,4.988c0.824,2.031 1.236,4.43 1.236,7.196l0,26.93l-7.947,0l0,-24.722c0,-1.943 -0.264,-3.606 -0.794,-4.989c-0.53,-1.383 -1.236,-2.502 -2.119,-3.355c-0.883,-0.854 -1.899,-1.472 -3.046,-1.854c-1.148,-0.383 -2.34,-0.574 -3.576,-0.574c-1.649,-0 -3.179,0.265 -4.592,0.794c-1.413,0.53 -2.649,1.369 -3.708,2.517c-1.06,1.148 -1.884,2.604 -2.472,4.37c-0.589,1.766 -0.883,3.856 -0.883,6.269l-0,21.544l-7.947,0l-0,-41.852Z" style="fill-rule:nonzero;"/>
    <path d="M55.538,219.094c-0,2.119 0.324,4.077 0.971,5.872c0.648,1.795 1.56,3.326 2.737,4.591c1.178,1.266 2.62,2.267 4.327,3.002c1.707,0.736 3.62,1.104 5.739,1.104c2.119,0 4.032,-0.368 5.739,-1.104c1.707,-0.735 3.149,-1.736 4.327,-3.002c1.177,-1.265 2.089,-2.796 2.737,-4.591c0.647,-1.795 0.971,-3.753 0.971,-5.872c-0,-2.119 -0.324,-4.076 -0.971,-5.871c-0.648,-1.796 -1.56,-3.326 -2.737,-4.592c-1.178,-1.265 -2.62,-2.266 -4.327,-3.002c-1.707,-0.735 -3.62,-1.103 -5.739,-1.103c-2.119,-0 -4.032,0.368 -5.739,1.103c-1.707,0.736 -3.149,1.737 -4.327,3.002c-1.177,1.266 -2.089,2.796 -2.737,4.592c-0.647,1.795 -0.971,3.752 -0.971,5.871Zm-8.477,0c0,-3.061 0.574,-5.915 1.722,-8.564c1.148,-2.649 2.723,-4.974 4.724,-6.976c2.001,-2.001 4.356,-3.576 7.064,-4.723c2.707,-1.148 5.621,-1.722 8.741,-1.722c3.12,-0 6.033,0.574 8.741,1.722c2.708,1.147 5.062,2.722 7.064,4.723c2.001,2.002 3.576,4.327 4.724,6.976c1.147,2.649 1.721,5.503 1.721,8.564c0,3.061 -0.574,5.931 -1.721,8.609c-1.148,2.678 -2.723,5.004 -4.724,6.976c-2.002,1.971 -4.356,3.531 -7.064,4.679c-2.708,1.148 -5.621,1.722 -8.741,1.722c-3.12,-0 -6.034,-0.574 -8.741,-1.722c-2.708,-1.148 -5.063,-2.708 -7.064,-4.679c-2.001,-1.972 -3.576,-4.298 -4.724,-6.976c-1.148,-2.678 -1.722,-5.548 -1.722,-8.609Z" style="fill-rule:nonzero;"/>
    <path d="M123.967,205.055l-11.39,0l-0,18.984c-0,1.177 0.029,2.34 0.088,3.488c0.059,1.147 0.28,2.178 0.662,3.09c0.383,0.912 0.971,1.648 1.766,2.207c0.795,0.56 1.957,0.839 3.488,0.839c0.942,0 1.913,-0.088 2.914,-0.265c1,-0.176 1.913,-0.5 2.737,-0.971l-0,7.24c-0.942,0.53 -2.164,0.898 -3.665,1.104c-1.501,0.206 -2.663,0.309 -3.487,0.309c-3.061,-0 -5.43,-0.427 -7.108,-1.28c-1.678,-0.854 -2.914,-1.958 -3.708,-3.311c-0.795,-1.354 -1.266,-2.87 -1.413,-4.548c-0.147,-1.677 -0.221,-3.37 -0.221,-5.077l0,-21.809l-9.183,0l0,-6.887l9.183,0l0,-11.743l7.947,0l-0,11.743l11.39,0l-0,6.887Z" style="fill-rule:nonzero;"/>
    <rect x="159.373" y="173.269" width="7.947" height="66.751" style="fill-rule:nonzero;"/>
    <path d="M180.564,198.168l7.947,0l-0,41.852l-7.947,0l0,-41.852Zm-1.854,-15.01c-0,-1.589 0.574,-2.958 1.722,-4.106c1.148,-1.147 2.516,-1.721 4.105,-1.721c1.59,-0 2.958,0.574 4.106,1.721c1.148,1.148 1.722,2.517 1.722,4.106c-0,1.589 -0.574,2.958 -1.722,4.106c-1.148,1.148 -2.516,1.722 -4.106,1.722c-1.589,-0 -2.957,-0.574 -4.105,-1.722c-1.148,-1.148 -1.722,-2.517 -1.722,-4.106Z" style="fill-rule:nonzero;"/>
    <path d="M201.137,198.168l7.947,0l-0,6.446l0.176,-0c1.001,-2.237 2.737,-4.047 5.21,-5.43c2.472,-1.384 5.327,-2.075 8.564,-2.075c2.002,-0 3.929,0.309 5.784,0.927c1.854,0.618 3.473,1.575 4.856,2.87c1.383,1.295 2.487,2.957 3.311,4.988c0.824,2.031 1.236,4.43 1.236,7.196l0,26.93l-7.947,0l0,-24.722c0,-1.943 -0.264,-3.606 -0.794,-4.989c-0.53,-1.383 -1.236,-2.502 -2.119,-3.355c-0.883,-0.854 -1.899,-1.472 -3.046,-1.854c-1.148,-0.383 -2.34,-0.574 -3.576,-0.574c-1.649,-0 -3.179,0.265 -4.592,0.794c-1.413,0.53 -2.649,1.369 -3.708,2.517c-1.06,1.148 -1.884,2.604 -2.472,4.37c-0.589,1.766 -0.883,3.856 -0.883,6.269l-0,21.544l-7.947,0l-0,-41.852Z" style="fill-rule:nonzero;"/>
    <path d="M256.233,222.008c0,1.825 0.398,3.488 1.192,4.989c0.795,1.501 1.84,2.781 3.135,3.841c1.295,1.059 2.796,1.883 4.503,2.472c1.707,0.589 3.473,0.883 5.298,0.883c2.472,-0 4.62,-0.574 6.445,-1.722c1.825,-1.148 3.503,-2.663 5.033,-4.547l6.004,4.591c-4.415,5.71 -10.595,8.565 -18.542,8.565c-3.296,-0 -6.284,-0.559 -8.962,-1.678c-2.678,-1.118 -4.944,-2.663 -6.799,-4.635c-1.854,-1.972 -3.281,-4.297 -4.282,-6.976c-1.001,-2.678 -1.501,-5.577 -1.501,-8.697c-0,-3.119 0.544,-6.018 1.633,-8.697c1.089,-2.678 2.59,-5.003 4.503,-6.975c1.914,-1.972 4.195,-3.517 6.843,-4.636c2.649,-1.118 5.534,-1.677 8.653,-1.677c3.709,-0 6.843,0.647 9.404,1.942c2.56,1.295 4.665,2.988 6.313,5.077c1.648,2.09 2.84,4.445 3.576,7.064c0.736,2.619 1.104,5.283 1.104,7.991l-0,2.825l-33.553,0Zm25.076,-6.357c-0.059,-1.766 -0.338,-3.385 -0.839,-4.856c-0.5,-1.472 -1.25,-2.752 -2.251,-3.841c-1.001,-1.089 -2.252,-1.943 -3.753,-2.561c-1.501,-0.618 -3.252,-0.927 -5.253,-0.927c-1.943,0 -3.723,0.368 -5.342,1.104c-1.619,0.736 -2.987,1.692 -4.106,2.869c-1.118,1.178 -1.987,2.487 -2.605,3.93c-0.618,1.442 -0.927,2.869 -0.927,4.282l25.076,-0Z" style="fill-rule:nonzero;"/>
    <path d="M299.498,203.289c2.237,-2.06 4.827,-3.605 7.77,-4.635c2.943,-1.03 5.886,-1.545 8.83,-1.545c3.061,-0 5.695,0.382 7.902,1.148c2.207,0.765 4.018,1.795 5.43,3.09c1.413,1.295 2.458,2.781 3.135,4.459c0.677,1.678 1.015,3.429 1.015,5.253l0,21.368c0,1.472 0.03,2.825 0.088,4.062c0.059,1.236 0.148,2.413 0.265,3.531l-7.063,0c-0.177,-2.119 -0.265,-4.238 -0.265,-6.357l-0.177,0c-1.766,2.708 -3.855,4.621 -6.269,5.739c-2.413,1.119 -5.209,1.678 -8.388,1.678c-1.942,-0 -3.797,-0.265 -5.562,-0.795c-1.766,-0.529 -3.312,-1.324 -4.636,-2.384c-1.324,-1.059 -2.369,-2.369 -3.134,-3.929c-0.766,-1.56 -1.148,-3.37 -1.148,-5.43c-0,-2.708 0.603,-4.974 1.81,-6.799c1.206,-1.825 2.855,-3.311 4.944,-4.459c2.09,-1.148 4.533,-1.972 7.329,-2.472c2.796,-0.5 5.783,-0.75 8.962,-0.75l5.827,-0l0,-1.766c0,-1.06 -0.206,-2.119 -0.618,-3.179c-0.412,-1.06 -1.03,-2.016 -1.854,-2.87c-0.824,-0.853 -1.854,-1.53 -3.09,-2.03c-1.236,-0.501 -2.708,-0.751 -4.415,-0.751c-1.531,0 -2.87,0.147 -4.018,0.442c-1.147,0.294 -2.192,0.662 -3.134,1.103c-0.942,0.442 -1.795,0.957 -2.561,1.545c-0.765,0.589 -1.501,1.148 -2.207,1.678l-4.768,-4.945Zm22.427,16.6c-1.884,0 -3.811,0.103 -5.783,0.309c-1.972,0.206 -3.768,0.603 -5.386,1.192c-1.619,0.589 -2.943,1.413 -3.974,2.472c-1.03,1.06 -1.545,2.414 -1.545,4.062c0,2.413 0.81,4.15 2.428,5.209c1.619,1.06 3.812,1.59 6.578,1.59c2.178,-0 4.033,-0.368 5.563,-1.104c1.53,-0.736 2.767,-1.692 3.708,-2.87c0.942,-1.177 1.619,-2.487 2.031,-3.929c0.412,-1.442 0.618,-2.869 0.618,-4.282l0,-2.649l-4.238,0Z" style="fill-rule:nonzero;"/>
    <path d="M345.147,198.168l7.946,0l0,6.446l0.177,-0c0.53,-1.118 1.236,-2.134 2.119,-3.046c0.883,-0.913 1.869,-1.693 2.958,-2.34c1.089,-0.648 2.281,-1.163 3.576,-1.545c1.295,-0.383 2.59,-0.574 3.885,-0.574c1.295,-0 2.472,0.176 3.532,0.53l-0.353,8.564c-0.648,-0.176 -1.295,-0.324 -1.943,-0.441c-0.647,-0.118 -1.295,-0.177 -1.942,-0.177c-3.885,0 -6.858,1.089 -8.918,3.267c-2.06,2.178 -3.091,5.563 -3.091,10.154l0,21.014l-7.946,0l-0,-41.852Z" style="fill-rule:nonzero;"/>
    <rect x="378.434" y="173.269" width="7.947" height="66.751" style="fill-rule:nonzero;"/>
    <path d="M393.974,198.168l9.183,0l12.45,32.67l0.176,-0l11.832,-32.67l8.564,0l-19.866,50.859c-0.706,1.824 -1.442,3.487 -2.207,4.988c-0.766,1.501 -1.678,2.782 -2.738,3.841c-1.059,1.06 -2.339,1.884 -3.84,2.472c-1.501,0.589 -3.341,0.883 -5.519,0.883c-1.177,0 -2.369,-0.073 -3.576,-0.22c-1.207,-0.148 -2.369,-0.457 -3.488,-0.928l0.972,-7.24c1.589,0.648 3.178,0.971 4.768,0.971c1.236,0 2.281,-0.161 3.134,-0.485c0.854,-0.324 1.589,-0.795 2.208,-1.413c0.618,-0.618 1.133,-1.339 1.545,-2.163c0.412,-0.824 0.824,-1.766 1.236,-2.826l2.56,-6.622l-17.394,-42.117Z" style="fill-rule:nonzero;"/>
    <path d="M489.951,208.676c-0.942,-1.178 -2.104,-2.164 -3.487,-2.958c-1.384,-0.795 -3.076,-1.192 -5.077,-1.192c-1.884,-0 -3.517,0.397 -4.901,1.192c-1.383,0.794 -2.075,1.957 -2.075,3.487c0,1.236 0.398,2.237 1.192,3.002c0.795,0.766 1.737,1.384 2.826,1.855c1.089,0.47 2.251,0.824 3.487,1.059c1.237,0.236 2.296,0.442 3.179,0.618c1.707,0.412 3.311,0.913 4.812,1.501c1.501,0.589 2.796,1.354 3.885,2.296c1.089,0.942 1.943,2.09 2.561,3.443c0.618,1.354 0.927,3.002 0.927,4.945c-0,2.354 -0.501,4.371 -1.501,6.048c-1.001,1.678 -2.296,3.046 -3.885,4.106c-1.59,1.059 -3.4,1.825 -5.43,2.296c-2.031,0.47 -4.077,0.706 -6.137,0.706c-3.473,-0 -6.519,-0.53 -9.138,-1.589c-2.62,-1.06 -4.96,-3.002 -7.02,-5.828l6.004,-4.944c1.295,1.295 2.737,2.442 4.327,3.443c1.589,1.001 3.531,1.501 5.827,1.501c1.001,0 2.016,-0.103 3.046,-0.309c1.03,-0.206 1.943,-0.53 2.737,-0.971c0.795,-0.442 1.443,-1.001 1.943,-1.678c0.5,-0.677 0.75,-1.457 0.75,-2.34c0,-1.177 -0.367,-2.148 -1.103,-2.913c-0.736,-0.766 -1.619,-1.369 -2.649,-1.81c-1.03,-0.442 -2.119,-0.795 -3.267,-1.06c-1.148,-0.265 -2.163,-0.486 -3.046,-0.662c-1.707,-0.412 -3.326,-0.883 -4.856,-1.413c-1.531,-0.53 -2.885,-1.236 -4.062,-2.119c-1.177,-0.883 -2.119,-2.001 -2.825,-3.355c-0.707,-1.354 -1.06,-3.032 -1.06,-5.033c-0,-2.178 0.456,-4.076 1.369,-5.695c0.912,-1.619 2.119,-2.958 3.62,-4.018c1.501,-1.059 3.208,-1.854 5.121,-2.384c1.913,-0.529 3.841,-0.794 5.783,-0.794c2.826,-0 5.533,0.53 8.123,1.589c2.59,1.06 4.651,2.826 6.181,5.298l-6.181,4.68Z" style="fill-rule:nonzero;"/>
    <path d="M512.908,222.008c0,1.825 0.397,3.488 1.192,4.989c0.795,1.501 1.84,2.781 3.135,3.841c1.295,1.059 2.796,1.883 4.503,2.472c1.707,0.589 3.473,0.883 5.297,0.883c2.473,-0 4.621,-0.574 6.446,-1.722c1.825,-1.148 3.502,-2.663 5.033,-4.547l6.004,4.591c-4.415,5.71 -10.596,8.565 -18.542,8.565c-3.297,-0 -6.284,-0.559 -8.962,-1.678c-2.678,-1.118 -4.945,-2.663 -6.799,-4.635c-1.854,-1.972 -3.282,-4.297 -4.282,-6.976c-1.001,-2.678 -1.501,-5.577 -1.501,-8.697c-0,-3.119 0.544,-6.018 1.633,-8.697c1.089,-2.678 2.59,-5.003 4.503,-6.975c1.913,-1.972 4.194,-3.517 6.843,-4.636c2.649,-1.118 5.533,-1.677 8.653,-1.677c3.709,-0 6.843,0.647 9.404,1.942c2.56,1.295 4.665,2.988 6.313,5.077c1.648,2.09 2.84,4.445 3.576,7.064c0.735,2.619 1.103,5.283 1.103,7.991l0,2.825l-33.552,0Zm25.076,-6.357c-0.059,-1.766 -0.338,-3.385 -0.839,-4.856c-0.5,-1.472 -1.251,-2.752 -2.251,-3.841c-1.001,-1.089 -2.252,-1.943 -3.753,-2.561c-1.501,-0.618 -3.252,-0.927 -5.253,-0.927c-1.943,0 -3.724,0.368 -5.342,1.104c-1.619,0.736 -2.988,1.692 -4.106,2.869c-1.118,1.178 -1.987,2.487 -2.605,3.93c-0.618,1.442 -0.927,2.869 -0.927,4.282l25.076,-0Z" style="fill-rule:nonzero;"/>
    <path d="M555.996,198.168l7.947,0l-0,6.004l0.176,0c1.531,-2.236 3.635,-3.973 6.314,-5.209c2.678,-1.236 5.43,-1.854 8.255,-1.854c3.238,-0 6.166,0.559 8.786,1.677c2.619,1.119 4.856,2.679 6.71,4.68c1.854,2.001 3.282,4.341 4.282,7.02c1.001,2.678 1.501,5.547 1.501,8.608c0,3.12 -0.5,6.019 -1.501,8.697c-1,2.679 -2.428,5.004 -4.282,6.976c-1.854,1.972 -4.091,3.517 -6.71,4.635c-2.62,1.119 -5.548,1.678 -8.786,1.678c-3.002,-0 -5.827,-0.633 -8.476,-1.898c-2.649,-1.266 -4.68,-2.988 -6.093,-5.166l-0.176,0l-0,30.904l-7.947,-0l0,-66.752Zm21.721,6.358c-2.119,-0 -4.032,0.368 -5.739,1.103c-1.707,0.736 -3.149,1.737 -4.327,3.002c-1.177,1.266 -2.089,2.796 -2.737,4.592c-0.647,1.795 -0.971,3.752 -0.971,5.871c-0,2.119 0.324,4.077 0.971,5.872c0.648,1.795 1.56,3.326 2.737,4.591c1.178,1.266 2.62,2.267 4.327,3.002c1.707,0.736 3.62,1.104 5.739,1.104c2.119,0 4.032,-0.368 5.739,-1.104c1.707,-0.735 3.149,-1.736 4.327,-3.002c1.177,-1.265 2.089,-2.796 2.737,-4.591c0.647,-1.795 0.971,-3.753 0.971,-5.872c0,-2.119 -0.324,-4.076 -0.971,-5.871c-0.648,-1.796 -1.56,-3.326 -2.737,-4.592c-1.178,-1.265 -2.62,-2.266 -4.327,-3.002c-1.707,-0.735 -3.62,-1.103 -5.739,-1.103Z" style="fill-rule:nonzero;"/>
    <path d="M610.121,203.289c2.237,-2.06 4.827,-3.605 7.77,-4.635c2.944,-1.03 5.887,-1.545 8.83,-1.545c3.061,-0 5.695,0.382 7.902,1.148c2.208,0.765 4.018,1.795 5.431,3.09c1.412,1.295 2.457,2.781 3.134,4.459c0.677,1.678 1.015,3.429 1.015,5.253l0,21.368c0,1.472 0.03,2.825 0.089,4.062c0.059,1.236 0.147,2.413 0.265,3.531l-7.064,0c-0.177,-2.119 -0.265,-4.238 -0.265,-6.357l-0.177,0c-1.765,2.708 -3.855,4.621 -6.268,5.739c-2.414,1.119 -5.21,1.678 -8.389,1.678c-1.942,-0 -3.796,-0.265 -5.562,-0.795c-1.766,-0.529 -3.311,-1.324 -4.636,-2.384c-1.324,-1.059 -2.369,-2.369 -3.134,-3.929c-0.765,-1.56 -1.148,-3.37 -1.148,-5.43c0,-2.708 0.603,-4.974 1.81,-6.799c1.207,-1.825 2.855,-3.311 4.945,-4.459c2.089,-1.148 4.532,-1.972 7.328,-2.472c2.796,-0.5 5.783,-0.75 8.962,-0.75l5.828,-0l-0,-1.766c-0,-1.06 -0.206,-2.119 -0.618,-3.179c-0.413,-1.06 -1.031,-2.016 -1.855,-2.87c-0.824,-0.853 -1.854,-1.53 -3.09,-2.03c-1.236,-0.501 -2.708,-0.751 -4.415,-0.751c-1.53,0 -2.869,0.147 -4.017,0.442c-1.148,0.294 -2.193,0.662 -3.135,1.103c-0.942,0.442 -1.795,0.957 -2.56,1.545c-0.766,0.589 -1.501,1.148 -2.208,1.678l-4.768,-4.945Zm22.427,16.6c-1.883,0 -3.811,0.103 -5.783,0.309c-1.972,0.206 -3.767,0.603 -5.386,1.192c-1.619,0.589 -2.943,1.413 -3.973,2.472c-1.03,1.06 -1.545,2.414 -1.545,4.062c-0,2.413 0.809,4.15 2.428,5.209c1.618,1.06 3.811,1.59 6.578,1.59c2.178,-0 4.032,-0.368 5.562,-1.104c1.531,-0.736 2.767,-1.692 3.709,-2.87c0.942,-1.177 1.618,-2.487 2.031,-3.929c0.412,-1.442 0.618,-2.869 0.618,-4.282l-0,-2.649l-4.239,0Z" style="fill-rule:nonzero;"/>
    <path d="M655.77,198.168l7.947,0l-0,6.446l0.176,-0c0.53,-1.118 1.236,-2.134 2.119,-3.046c0.883,-0.913 1.869,-1.693 2.958,-2.34c1.089,-0.648 2.281,-1.163 3.576,-1.545c1.295,-0.383 2.59,-0.574 3.885,-0.574c1.295,-0 2.473,0.176 3.532,0.53l-0.353,8.564c-0.648,-0.176 -1.295,-0.324 -1.943,-0.441c-0.647,-0.118 -1.295,-0.177 -1.942,-0.177c-3.885,0 -6.858,1.089 -8.918,3.267c-2.06,2.178 -3.09,5.563 -3.09,10.154l-0,21.014l-7.947,0l0,-41.852Z" style="fill-rule:nonzero;"/>
    <path d="M688.616,203.289c2.237,-2.06 4.827,-3.605 7.77,-4.635c2.943,-1.03 5.886,-1.545 8.83,-1.545c3.06,-0 5.695,0.382 7.902,1.148c2.207,0.765 4.017,1.795 5.43,3.09c1.413,1.295 2.458,2.781 3.135,4.459c0.677,1.678 1.015,3.429 1.015,5.253l0,21.368c0,1.472 0.029,2.825 0.088,4.062c0.059,1.236 0.148,2.413 0.265,3.531l-7.063,0c-0.177,-2.119 -0.265,-4.238 -0.265,-6.357l-0.177,0c-1.766,2.708 -3.855,4.621 -6.269,5.739c-2.413,1.119 -5.209,1.678 -8.388,1.678c-1.942,-0 -3.797,-0.265 -5.563,-0.795c-1.765,-0.529 -3.311,-1.324 -4.635,-2.384c-1.324,-1.059 -2.369,-2.369 -3.135,-3.929c-0.765,-1.56 -1.147,-3.37 -1.147,-5.43c-0,-2.708 0.603,-4.974 1.81,-6.799c1.206,-1.825 2.855,-3.311 4.944,-4.459c2.09,-1.148 4.533,-1.972 7.329,-2.472c2.796,-0.5 5.783,-0.75 8.962,-0.75l5.827,-0l0,-1.766c0,-1.06 -0.206,-2.119 -0.618,-3.179c-0.412,-1.06 -1.03,-2.016 -1.854,-2.87c-0.824,-0.853 -1.854,-1.53 -3.09,-2.03c-1.237,-0.501 -2.708,-0.751 -4.415,-0.751c-1.531,0 -2.87,0.147 -4.018,0.442c-1.147,0.294 -2.192,0.662 -3.134,1.103c-0.942,0.442 -1.795,0.957 -2.561,1.545c-0.765,0.589 -1.501,1.148 -2.207,1.678l-4.768,-4.945Zm22.427,16.6c-1.884,0 -3.811,0.103 -5.783,0.309c-1.972,0.206 -3.768,0.603 -5.386,1.192c-1.619,0.589 -2.943,1.413 -3.974,2.472c-1.03,1.06 -1.545,2.414 -1.545,4.062c0,2.413 0.81,4.15 2.428,5.209c1.619,1.06 3.812,1.59 6.578,1.59c2.178,-0 4.033,-0.368 5.563,-1.104c1.53,-0.736 2.767,-1.692 3.708,-2.87c0.942,-1.177 1.619,-2.487 2.031,-3.929c0.412,-1.442 0.618,-2.869 0.618,-4.282l0,-2.649l-4.238,0Z" style="fill-rule:nonzero;"/>
    <path d="M734.265,173.269l7.946,0l0,30.903l0.177,0c1.413,-2.178 3.443,-3.899 6.092,-5.165c2.649,-1.265 5.475,-1.898 8.477,-1.898c3.237,-0 6.166,0.559 8.785,1.677c2.62,1.119 4.856,2.664 6.711,4.636c1.854,1.972 3.281,4.297 4.282,6.975c1.001,2.679 1.501,5.578 1.501,8.697c-0,3.12 -0.5,6.004 -1.501,8.653c-1.001,2.649 -2.428,4.974 -4.282,6.976c-1.855,2.001 -4.091,3.561 -6.711,4.679c-2.619,1.119 -5.548,1.678 -8.785,1.678c-2.826,-0 -5.578,-0.618 -8.256,-1.854c-2.678,-1.236 -4.783,-2.973 -6.313,-5.21l-0.177,0l0,6.004l-7.946,0l-0,-66.751Zm21.72,60.394c2.12,0 4.033,-0.368 5.74,-1.104c1.707,-0.735 3.149,-1.736 4.326,-3.002c1.177,-1.265 2.09,-2.796 2.737,-4.591c0.648,-1.795 0.972,-3.753 0.972,-5.872c-0,-2.119 -0.324,-4.076 -0.972,-5.871c-0.647,-1.796 -1.56,-3.326 -2.737,-4.592c-1.177,-1.265 -2.619,-2.266 -4.326,-3.002c-1.707,-0.735 -3.62,-1.103 -5.74,-1.103c-2.119,-0 -4.032,0.368 -5.739,1.103c-1.707,0.736 -3.149,1.737 -4.326,3.002c-1.178,1.266 -2.09,2.796 -2.737,4.592c-0.648,1.795 -0.972,3.752 -0.972,5.871c0,2.119 0.324,4.077 0.972,5.872c0.647,1.795 1.559,3.326 2.737,4.591c1.177,1.266 2.619,2.267 4.326,3.002c1.707,0.736 3.62,1.104 5.739,1.104Z" style="fill-rule:nonzero;"/>
    <rect x="788.831" y="173.269" width="7.947" height="66.751" style="fill-rule:nonzero;"/>
    <path d="M815.408,222.008c0,1.825 0.398,3.488 1.192,4.989c0.795,1.501 1.84,2.781 3.135,3.841c1.295,1.059 2.796,1.883 4.503,2.472c1.707,0.589 3.473,0.883 5.298,0.883c2.472,-0 4.62,-0.574 6.445,-1.722c1.825,-1.148 3.502,-2.663 5.033,-4.547l6.004,4.591c-4.415,5.71 -10.595,8.565 -18.542,8.565c-3.296,-0 -6.284,-0.559 -8.962,-1.678c-2.678,-1.118 -4.945,-2.663 -6.799,-4.635c-1.854,-1.972 -3.281,-4.297 -4.282,-6.976c-1.001,-2.678 -1.501,-5.577 -1.501,-8.697c-0,-3.119 0.544,-6.018 1.633,-8.697c1.089,-2.678 2.59,-5.003 4.503,-6.975c1.913,-1.972 4.194,-3.517 6.843,-4.636c2.649,-1.118 5.533,-1.677 8.653,-1.677c3.709,-0 6.843,0.647 9.404,1.942c2.56,1.295 4.665,2.988 6.313,5.077c1.648,2.09 2.84,4.445 3.576,7.064c0.736,2.619 1.104,5.283 1.104,7.991l-0,2.825l-33.553,0Zm25.076,-6.357c-0.059,-1.766 -0.338,-3.385 -0.839,-4.856c-0.5,-1.472 -1.251,-2.752 -2.251,-3.841c-1.001,-1.089 -2.252,-1.943 -3.753,-2.561c-1.501,-0.618 -3.252,-0.927 -5.253,-0.927c-1.943,0 -3.723,0.368 -5.342,1.104c-1.619,0.736 -2.988,1.692 -4.106,2.869c-1.118,1.178 -1.987,2.487 -2.605,3.93c-0.618,1.442 -0.927,2.869 -0.927,4.282l25.076,-0Z" style="fill-rule:nonzero;"/>
    <path d="M788.352,867.047l-21.155,-27.829l14.607,0l14.481,21.155l14.229,-21.155l13.725,0l-20.399,27.829l24.177,31.858l-14.607,-0l-17.629,-25.058l-17.629,25.058l-13.977,-0l24.177,-31.858Z" style="fill-rule:nonzero;"/>
    <path d="M294.299,338.48l11.114,-0l15.069,39.541l0.214,0l14.32,-39.541l10.367,-0l-24.046,61.557c-0.855,2.208 -1.746,4.221 -2.672,6.038c-0.926,1.816 -2.03,3.366 -3.313,4.649c-1.282,1.282 -2.832,2.279 -4.649,2.992c-1.816,0.712 -4.043,1.069 -6.679,1.069c-1.425,-0 -2.868,-0.089 -4.328,-0.268c-1.461,-0.178 -2.868,-0.552 -4.221,-1.122l1.175,-8.763c1.924,0.784 3.847,1.176 5.771,1.176c1.496,-0 2.761,-0.196 3.794,-0.588c1.033,-0.392 1.924,-0.962 2.672,-1.71c0.748,-0.748 1.371,-1.621 1.87,-2.618c0.499,-0.998 0.997,-2.138 1.496,-3.42l3.099,-8.015l-21.053,-50.977Z" style="fill-rule:nonzero;"/>
    <path d="M1144.06,903.988l797.329,0" style="fill:none;stroke:black;stroke-width:9.58px;"/>
    <path d="M1541.83,1006.08l-0,-559.86" style="fill:none;stroke:black;stroke-width:9.58px;"/>
    <path d="M1541.83,446.219l-44.176,44.175" style="fill:none;stroke:black;stroke-width:9.58px;"/>
    <path d="M1541.83,446.219l48.55,48.55" style="fill:none;stroke:black;stroke-width:9.58px;"/>
    <path d="M1656.06,414.224l-20.014,-26.328l13.819,0l13.7,20.014l13.462,-20.014l12.985,0l-19.299,26.328l22.873,30.141l-13.819,-0l-16.678,-23.708l-16.679,23.708l-13.223,-0l22.873,-30.141Z" style="fill-rule:nonzero;stroke:black;stroke-width:1px;stroke-linecap:butt;stroke-miterlimit:2;"/>
    <path d="M1735.29,403.622l27.162,-0l0,-27.162l9.293,-0l-0,27.162l27.161,-0l0,9.292l-27.161,-0l-0,27.162l-9.293,-0l0,-27.162l-27.162,-0l0,-9.292Z" style="fill-rule:nonzero;stroke:black;stroke-width:1px;stroke-linecap:butt;stroke-miterlimit:2;"/>
    <path d="M1841.19,387.896l12.39,0l16.797,44.079l0.239,-0l15.963,-44.079l11.556,0l-26.805,68.62c-0.953,2.462 -1.945,4.706 -2.978,6.731c-1.032,2.025 -2.263,3.753 -3.693,5.182c-1.43,1.43 -3.157,2.542 -5.182,3.336c-2.025,0.794 -4.507,1.191 -7.446,1.191c-1.588,0 -3.197,-0.099 -4.825,-0.298c-1.628,-0.198 -3.196,-0.615 -4.705,-1.251l1.31,-9.768c2.144,0.873 4.289,1.31 6.433,1.31c1.668,0 3.078,-0.218 4.229,-0.655c1.152,-0.437 2.145,-1.072 2.979,-1.906c0.833,-0.834 1.528,-1.807 2.084,-2.919c0.556,-1.112 1.112,-2.383 1.668,-3.812l3.455,-8.935l-23.469,-56.826Z" style="fill-rule:nonzero;stroke:black;stroke-width:1px;stroke-linecap:butt;stroke-miterlimit:2;"/>
    <path d="M1700.14,376.151l13.937,-13.838c0.49,-0.458 0.965,-0.957 1.423,-1.497c0.458,-0.54 0.867,-1.104 1.227,-1.693c0.359,-0.589 0.646,-1.21 0.858,-1.865c0.213,-0.654 0.319,-1.341 0.319,-2.061c0,-0.85 -0.155,-1.619 -0.466,-2.306c-0.311,-0.687 -0.736,-1.268 -1.276,-1.742c-0.54,-0.474 -1.177,-0.842 -1.914,-1.104c-0.736,-0.262 -1.513,-0.393 -2.33,-0.393c-1.702,0 -3.108,0.475 -4.221,1.423c-1.112,0.949 -1.815,2.258 -2.11,3.926l-5.103,-0.442c0.229,-1.537 0.679,-2.87 1.349,-3.999c0.671,-1.129 1.505,-2.069 2.503,-2.822c0.998,-0.752 2.143,-1.308 3.435,-1.668c1.292,-0.36 2.691,-0.54 4.196,-0.54c1.504,0 2.919,0.205 4.244,0.614c1.325,0.409 2.487,1.014 3.484,1.815c0.998,0.802 1.783,1.8 2.356,2.994c0.572,1.194 0.859,2.592 0.859,4.195c-0,1.145 -0.172,2.217 -0.516,3.215c-0.343,0.997 -0.793,1.938 -1.349,2.821c-0.556,0.883 -1.194,1.718 -1.914,2.503c-0.72,0.785 -1.472,1.554 -2.257,2.306l-11.434,11.041l17.47,0l-0,4.122l-22.77,0l0,-5.005Z" style="fill-rule:nonzero;stroke:black;stroke-width:1px;stroke-linecap:butt;stroke-miterlimit:2;"/>
    <path d="M1914.09,383.757l13.937,-13.838c0.49,-0.458 0.965,-0.957 1.423,-1.497c0.458,-0.54 0.867,-1.104 1.226,-1.693c0.36,-0.589 0.647,-1.211 0.859,-1.865c0.213,-0.654 0.319,-1.341 0.319,-2.061c0,-0.85 -0.155,-1.619 -0.466,-2.306c-0.311,-0.687 -0.736,-1.268 -1.276,-1.742c-0.54,-0.475 -1.178,-0.843 -1.914,-1.104c-0.736,-0.262 -1.513,-0.393 -2.331,-0.393c-1.701,0 -3.107,0.474 -4.22,1.423c-1.112,0.949 -1.815,2.257 -2.11,3.926l-5.103,-0.442c0.229,-1.537 0.679,-2.871 1.349,-3.999c0.671,-1.129 1.505,-2.069 2.503,-2.822c0.998,-0.752 2.143,-1.308 3.435,-1.668c1.292,-0.36 2.691,-0.54 4.196,-0.54c1.504,0 2.919,0.204 4.244,0.613c1.325,0.409 2.486,1.015 3.484,1.816c0.998,0.802 1.783,1.799 2.356,2.993c0.572,1.194 0.858,2.593 0.858,4.196c0,1.145 -0.171,2.216 -0.515,3.214c-0.343,0.998 -0.793,1.939 -1.349,2.822c-0.556,0.883 -1.194,1.717 -1.914,2.503c-0.72,0.785 -1.472,1.553 -2.257,2.306l-11.434,11.041l17.469,-0l0,4.122l-22.769,0l0,-5.005Z" style="fill-rule:nonzero;stroke:black;stroke-width:1px;stroke-linecap:butt;stroke-miterlimit:2;"/>
    <path d="M1947.13,955.563l-18.215,-23.961l12.577,0l12.468,18.215l12.252,-18.215l11.818,0l-17.564,23.961l20.816,27.431l-12.576,-0l-15.179,-21.576l-15.179,21.576l-12.035,-0l20.817,-27.431Z" style="fill-rule:nonzero;stroke:black;stroke-width:1px;stroke-linecap:butt;stroke-miterlimit:2;"/>
    <path d="M1287.04,962.519l10.359,-0l14.044,36.854l0.2,0l13.347,-36.854l9.662,-0l-22.412,57.373c-0.797,2.059 -1.627,3.935 -2.49,5.628c-0.863,1.694 -1.893,3.138 -3.088,4.333c-1.195,1.195 -2.639,2.125 -4.333,2.789c-1.693,0.664 -3.768,0.996 -6.225,0.996c-1.328,0 -2.673,-0.083 -4.034,-0.249c-1.362,-0.166 -2.673,-0.514 -3.935,-1.046l1.096,-8.167c1.793,0.73 3.586,1.095 5.379,1.095c1.394,0 2.573,-0.182 3.536,-0.548c0.963,-0.365 1.793,-0.896 2.49,-1.593c0.697,-0.698 1.278,-1.511 1.743,-2.441c0.465,-0.929 0.93,-1.992 1.395,-3.187l2.888,-7.471l-19.622,-47.512Z" style="fill-rule:nonzero;stroke:black;stroke-width:1px;stroke-linecap:butt;stroke-miterlimit:2;"/>
    <circle cx="1386.46" cy="992.343" r="31.037" style="fill-opacity:0;stroke:black;stroke-width:9.58px;"/>
    <path d="M1365.43,1013.58l40.232,-43.598" style="fill:none;stroke:black;stroke-width:9.58px;"/>
    <path d="M1407.85,1013.33l-41.719,-41.803" style="fill:none;stroke:black;stroke-width:9.58px;"/>
    <path d="M1183.04,728.598l728.754,0" style="fill:none;stroke:rgb(200,41,148);stroke-width:9.58px;"/>
    <rect x="1226.73" y="186.361" width="7.115" height="59.762" style="fill-rule:nonzero;stroke:black;stroke-width:1px;stroke-linecap:butt;stroke-miterlimit:2;"/>
    <path d="M1245.7,208.654l7.115,-0l-0,37.47l-7.115,-0l0,-37.47Zm-1.66,-13.439c0,-1.423 0.514,-2.648 1.542,-3.676c1.027,-1.027 2.252,-1.541 3.675,-1.541c1.423,-0 2.649,0.514 3.676,1.541c1.028,1.028 1.542,2.253 1.542,3.676c-0,1.423 -0.514,2.648 -1.542,3.676c-1.027,1.028 -2.253,1.541 -3.676,1.541c-1.423,0 -2.648,-0.513 -3.675,-1.541c-1.028,-1.028 -1.542,-2.253 -1.542,-3.676Z" style="fill-rule:nonzero;stroke:black;stroke-width:1px;stroke-linecap:butt;stroke-miterlimit:2;"/>
    <path d="M1264.12,208.654l7.114,-0l0,5.77l0.159,0c0.895,-2.002 2.45,-3.623 4.664,-4.861c2.213,-1.239 4.769,-1.858 7.667,-1.858c1.792,0 3.518,0.277 5.178,0.83c1.66,0.554 3.11,1.41 4.348,2.569c1.239,1.16 2.227,2.649 2.965,4.467c0.737,1.818 1.106,3.965 1.106,6.442l0,24.111l-7.114,-0l-0,-22.134c-0,-1.74 -0.238,-3.228 -0.712,-4.467c-0.474,-1.238 -1.107,-2.24 -1.897,-3.004c-0.791,-0.764 -1.7,-1.317 -2.727,-1.66c-1.028,-0.342 -2.095,-0.514 -3.202,-0.514c-1.475,0 -2.846,0.238 -4.11,0.712c-1.265,0.474 -2.372,1.225 -3.321,2.253c-0.948,1.027 -1.686,2.332 -2.213,3.913c-0.527,1.581 -0.791,3.452 -0.791,5.612l0,19.289l-7.114,-0l-0,-37.47Z" style="fill-rule:nonzero;stroke:black;stroke-width:1px;stroke-linecap:butt;stroke-miterlimit:2;"/>
    <path d="M1313.45,229.997c-0,1.634 0.355,3.123 1.067,4.467c0.711,1.344 1.647,2.49 2.806,3.439c1.159,0.948 2.503,1.686 4.032,2.213c1.528,0.527 3.109,0.79 4.743,0.79c2.213,0 4.137,-0.513 5.77,-1.541c1.634,-1.028 3.136,-2.385 4.506,-4.071l5.376,4.11c-3.953,5.112 -9.486,7.668 -16.601,7.668c-2.951,0 -5.626,-0.5 -8.024,-1.502c-2.397,-1.001 -4.426,-2.384 -6.086,-4.15c-1.661,-1.765 -2.939,-3.847 -3.834,-6.245c-0.896,-2.398 -1.344,-4.993 -1.344,-7.786c-0,-2.793 0.487,-5.389 1.462,-7.787c0.975,-2.398 2.319,-4.479 4.032,-6.245c1.712,-1.765 3.755,-3.149 6.126,-4.15c2.372,-1.001 4.954,-1.502 7.747,-1.502c3.32,0 6.127,0.58 8.419,1.739c2.293,1.16 4.177,2.675 5.652,4.546c1.476,1.871 2.543,3.979 3.202,6.324c0.658,2.345 0.988,4.73 0.988,7.154l-0,2.529l-30.039,0Zm22.45,-5.691c-0.053,-1.581 -0.303,-3.03 -0.751,-4.348c-0.448,-1.317 -1.12,-2.464 -2.016,-3.439c-0.896,-0.975 -2.016,-1.739 -3.359,-2.292c-1.344,-0.554 -2.912,-0.83 -4.704,-0.83c-1.739,-0 -3.333,0.329 -4.783,0.988c-1.449,0.659 -2.674,1.515 -3.675,2.569c-1.002,1.054 -1.779,2.227 -2.332,3.518c-0.554,1.291 -0.83,2.569 -0.83,3.834l22.45,-0Z" style="fill-rule:nonzero;stroke:black;stroke-width:1px;stroke-linecap:butt;stroke-miterlimit:2;"/>
    <path d="M1352.18,213.239c2.003,-1.845 4.322,-3.228 6.957,-4.15c2.635,-0.923 5.27,-1.384 7.905,-1.384c2.74,0 5.099,0.343 7.075,1.028c1.976,0.685 3.597,1.607 4.862,2.767c1.264,1.159 2.2,2.49 2.806,3.992c0.606,1.502 0.909,3.069 0.909,4.703l0,19.13c0,1.318 0.026,2.53 0.079,3.637c0.053,1.106 0.132,2.161 0.237,3.162l-6.324,-0c-0.158,-1.897 -0.237,-3.795 -0.237,-5.692l-0.158,0c-1.581,2.424 -3.452,4.137 -5.613,5.138c-2.16,1.002 -4.664,1.502 -7.51,1.502c-1.739,0 -3.399,-0.237 -4.98,-0.711c-1.581,-0.474 -2.964,-1.186 -4.15,-2.134c-1.186,-0.949 -2.121,-2.122 -2.806,-3.518c-0.685,-1.397 -1.028,-3.017 -1.028,-4.862c0,-2.424 0.54,-4.453 1.621,-6.087c1.08,-1.633 2.556,-2.964 4.427,-3.992c1.87,-1.027 4.057,-1.765 6.561,-2.213c2.503,-0.448 5.178,-0.672 8.023,-0.672l5.218,-0l-0,-1.581c-0,-0.949 -0.185,-1.897 -0.554,-2.846c-0.369,-0.949 -0.922,-1.805 -1.66,-2.569c-0.737,-0.764 -1.66,-1.37 -2.766,-1.818c-1.107,-0.448 -2.425,-0.672 -3.953,-0.672c-1.37,-0 -2.569,0.132 -3.597,0.395c-1.027,0.264 -1.963,0.593 -2.806,0.988c-0.843,0.395 -1.607,0.857 -2.293,1.384c-0.685,0.527 -1.343,1.027 -1.976,1.502l-4.269,-4.427Zm20.079,14.861c-1.686,0 -3.412,0.092 -5.178,0.277c-1.765,0.184 -3.372,0.54 -4.822,1.067c-1.449,0.527 -2.635,1.265 -3.557,2.214c-0.922,0.948 -1.383,2.16 -1.383,3.636c-0,2.161 0.724,3.715 2.174,4.664c1.449,0.948 3.412,1.423 5.889,1.423c1.95,-0 3.61,-0.33 4.98,-0.988c1.37,-0.659 2.477,-1.516 3.32,-2.57c0.843,-1.054 1.449,-2.226 1.818,-3.517c0.369,-1.291 0.554,-2.569 0.554,-3.834l-0,-2.372l-3.795,0Z" style="fill-rule:nonzero;stroke:black;stroke-width:1px;stroke-linecap:butt;stroke-miterlimit:2;"/>
    <path d="M1393.05,208.654l7.114,-0l0,5.77l0.158,0c0.475,-1.001 1.107,-1.91 1.898,-2.727c0.79,-0.817 1.673,-1.515 2.648,-2.095c0.975,-0.579 2.042,-1.04 3.201,-1.383c1.16,-0.343 2.319,-0.514 3.479,-0.514c1.159,0 2.213,0.158 3.162,0.474l-0.317,7.668c-0.579,-0.158 -1.159,-0.289 -1.739,-0.395c-0.579,-0.105 -1.159,-0.158 -1.739,-0.158c-3.478,0 -6.139,0.975 -7.984,2.925c-1.845,1.95 -2.767,4.98 -2.767,9.091l0,18.814l-7.114,-0l-0,-37.47Z" style="fill-rule:nonzero;stroke:black;stroke-width:1px;stroke-linecap:butt;stroke-miterlimit:2;"/>
    <rect x="1422.85" y="186.361" width="7.115" height="59.762" style="fill-rule:nonzero;stroke:black;stroke-width:1px;stroke-linecap:butt;stroke-miterlimit:2;"/>
    <path d="M1436.77,208.654l8.221,-0l11.146,29.249l0.158,-0l10.593,-29.249l7.668,-0l-17.786,45.533c-0.633,1.634 -1.292,3.122 -1.977,4.466c-0.685,1.344 -1.502,2.49 -2.45,3.439c-0.949,0.949 -2.095,1.686 -3.439,2.213c-1.344,0.527 -2.991,0.791 -4.941,0.791c-1.054,-0 -2.121,-0.066 -3.201,-0.198c-1.081,-0.131 -2.121,-0.408 -3.123,-0.83l0.87,-6.482c1.423,0.58 2.846,0.87 4.269,0.87c1.106,-0 2.042,-0.145 2.806,-0.435c0.764,-0.29 1.423,-0.712 1.976,-1.265c0.553,-0.553 1.015,-1.199 1.384,-1.937c0.368,-0.737 0.737,-1.581 1.106,-2.529l2.293,-5.929l-15.573,-37.707Z" style="fill-rule:nonzero;stroke:black;stroke-width:1px;stroke-linecap:butt;stroke-miterlimit:2;"/>
    <path d="M1522.69,218.061c-0.843,-1.054 -1.884,-1.937 -3.123,-2.648c-1.238,-0.712 -2.753,-1.068 -4.545,-1.068c-1.686,0 -3.149,0.356 -4.387,1.068c-1.239,0.711 -1.858,1.752 -1.858,3.122c-0,1.107 0.356,2.003 1.067,2.688c0.712,0.685 1.555,1.238 2.53,1.66c0.975,0.421 2.016,0.738 3.122,0.949c1.107,0.21 2.056,0.395 2.846,0.553c1.528,0.369 2.964,0.817 4.308,1.344c1.344,0.527 2.504,1.212 3.479,2.055c0.975,0.843 1.739,1.871 2.292,3.083c0.553,1.212 0.83,2.688 0.83,4.427c0,2.108 -0.448,3.913 -1.344,5.415c-0.896,1.502 -2.055,2.727 -3.478,3.676c-1.423,0.948 -3.043,1.633 -4.862,2.055c-1.818,0.422 -3.649,0.632 -5.494,0.632c-3.109,0 -5.836,-0.474 -8.181,-1.422c-2.346,-0.949 -4.44,-2.688 -6.285,-5.218l5.376,-4.427c1.159,1.16 2.45,2.187 3.873,3.083c1.423,0.896 3.162,1.344 5.217,1.344c0.896,0 1.805,-0.092 2.728,-0.277c0.922,-0.184 1.739,-0.474 2.45,-0.869c0.712,-0.395 1.291,-0.896 1.739,-1.502c0.448,-0.606 0.672,-1.304 0.672,-2.095c0,-1.054 -0.329,-1.923 -0.988,-2.609c-0.659,-0.685 -1.449,-1.225 -2.371,-1.62c-0.923,-0.395 -1.898,-0.712 -2.925,-0.949c-1.028,-0.237 -1.937,-0.434 -2.728,-0.593c-1.528,-0.368 -2.977,-0.79 -4.347,-1.264c-1.371,-0.475 -2.583,-1.107 -3.637,-1.898c-1.054,-0.79 -1.897,-1.791 -2.529,-3.004c-0.633,-1.212 -0.949,-2.714 -0.949,-4.505c0,-1.95 0.408,-3.65 1.225,-5.099c0.817,-1.449 1.898,-2.648 3.241,-3.597c1.344,-0.949 2.873,-1.66 4.585,-2.134c1.713,-0.475 3.439,-0.712 5.178,-0.712c2.53,0 4.954,0.474 7.273,1.423c2.319,0.949 4.163,2.53 5.533,4.743l-5.533,4.19Z" style="fill-rule:nonzero;stroke:black;stroke-width:1px;stroke-linecap:butt;stroke-miterlimit:2;"/>
    <path d="M1543.25,229.997c0,1.634 0.356,3.123 1.067,4.467c0.712,1.344 1.647,2.49 2.807,3.439c1.159,0.948 2.503,1.686 4.031,2.213c1.528,0.527 3.109,0.79 4.743,0.79c2.214,0 4.137,-0.513 5.771,-1.541c1.634,-1.028 3.136,-2.385 4.506,-4.071l5.375,4.11c-3.952,5.112 -9.486,7.668 -16.6,7.668c-2.952,0 -5.626,-0.5 -8.024,-1.502c-2.398,-1.001 -4.427,-2.384 -6.087,-4.15c-1.66,-1.765 -2.938,-3.847 -3.834,-6.245c-0.896,-2.398 -1.344,-4.993 -1.344,-7.786c0,-2.793 0.488,-5.389 1.463,-7.787c0.975,-2.398 2.318,-4.479 4.031,-6.245c1.713,-1.765 3.755,-3.149 6.127,-4.15c2.371,-1.001 4.953,-1.502 7.747,-1.502c3.32,0 6.126,0.58 8.419,1.739c2.292,1.16 4.176,2.675 5.652,4.546c1.475,1.871 2.542,3.979 3.201,6.324c0.659,2.345 0.988,4.73 0.988,7.154l0,2.529l-30.039,0Zm22.45,-5.691c-0.052,-1.581 -0.303,-3.03 -0.751,-4.348c-0.447,-1.317 -1.119,-2.464 -2.015,-3.439c-0.896,-0.975 -2.016,-1.739 -3.36,-2.292c-1.344,-0.554 -2.912,-0.83 -4.703,-0.83c-1.74,-0 -3.334,0.329 -4.783,0.988c-1.449,0.659 -2.675,1.515 -3.676,2.569c-1.001,1.054 -1.779,2.227 -2.332,3.518c-0.553,1.291 -0.83,2.569 -0.83,3.834l22.45,-0Z" style="fill-rule:nonzero;stroke:black;stroke-width:1px;stroke-linecap:butt;stroke-miterlimit:2;"/>
    <path d="M1581.83,208.654l7.114,-0l0,5.375l0.158,0c1.371,-2.002 3.255,-3.557 5.653,-4.664c2.397,-1.106 4.861,-1.66 7.391,-1.66c2.898,0 5.52,0.501 7.865,1.502c2.346,1.001 4.348,2.398 6.008,4.19c1.66,1.792 2.938,3.886 3.834,6.284c0.896,2.398 1.344,4.967 1.344,7.708c0,2.793 -0.448,5.388 -1.344,7.786c-0.896,2.398 -2.174,4.48 -3.834,6.245c-1.66,1.766 -3.662,3.149 -6.008,4.15c-2.345,1.002 -4.967,1.502 -7.865,1.502c-2.688,0 -5.217,-0.566 -7.589,-1.699c-2.372,-1.133 -4.19,-2.675 -5.455,-4.625l-0.158,0l0,27.668l-7.114,0l-0,-59.762Zm19.446,5.691c-1.897,0 -3.61,0.33 -5.138,0.989c-1.528,0.658 -2.819,1.554 -3.873,2.687c-1.054,1.133 -1.871,2.504 -2.451,4.111c-0.58,1.607 -0.87,3.36 -0.87,5.257c0,1.897 0.29,3.649 0.87,5.257c0.58,1.607 1.397,2.977 2.451,4.11c1.054,1.133 2.345,2.029 3.873,2.688c1.528,0.659 3.241,0.988 5.138,0.988c1.898,0 3.61,-0.329 5.139,-0.988c1.528,-0.659 2.819,-1.555 3.873,-2.688c1.054,-1.133 1.871,-2.503 2.451,-4.11c0.579,-1.608 0.869,-3.36 0.869,-5.257c0,-1.897 -0.29,-3.65 -0.869,-5.257c-0.58,-1.607 -1.397,-2.978 -2.451,-4.111c-1.054,-1.133 -2.345,-2.029 -3.873,-2.687c-1.529,-0.659 -3.241,-0.989 -5.139,-0.989Z" style="fill-rule:nonzero;stroke:black;stroke-width:1px;stroke-linecap:butt;stroke-miterlimit:2;"/>
    <path d="M1630.28,213.239c2.003,-1.845 4.321,-3.228 6.956,-4.15c2.635,-0.923 5.27,-1.384 7.905,-1.384c2.741,0 5.099,0.343 7.076,1.028c1.976,0.685 3.596,1.607 4.861,2.767c1.265,1.159 2.2,2.49 2.806,3.992c0.606,1.502 0.91,3.069 0.91,4.703l-0,19.13c-0,1.318 0.026,2.53 0.079,3.637c0.052,1.106 0.131,2.161 0.237,3.162l-6.324,-0c-0.158,-1.897 -0.238,-3.795 -0.238,-5.692l-0.158,0c-1.581,2.424 -3.451,4.137 -5.612,5.138c-2.161,1.002 -4.664,1.502 -7.51,1.502c-1.739,0 -3.399,-0.237 -4.98,-0.711c-1.581,-0.474 -2.965,-1.186 -4.15,-2.134c-1.186,-0.949 -2.122,-2.122 -2.807,-3.518c-0.685,-1.397 -1.027,-3.017 -1.027,-4.862c-0,-2.424 0.54,-4.453 1.62,-6.087c1.081,-1.633 2.556,-2.964 4.427,-3.992c1.871,-1.027 4.058,-1.765 6.561,-2.213c2.504,-0.448 5.178,-0.672 8.024,-0.672l5.217,-0l0,-1.581c0,-0.949 -0.184,-1.897 -0.553,-2.846c-0.369,-0.949 -0.922,-1.805 -1.66,-2.569c-0.738,-0.764 -1.66,-1.37 -2.767,-1.818c-1.107,-0.448 -2.424,-0.672 -3.952,-0.672c-1.371,-0 -2.57,0.132 -3.597,0.395c-1.028,0.264 -1.963,0.593 -2.807,0.988c-0.843,0.395 -1.607,0.857 -2.292,1.384c-0.685,0.527 -1.344,1.027 -1.976,1.502l-4.269,-4.427Zm20.079,14.861c-1.687,0 -3.413,0.092 -5.178,0.277c-1.765,0.184 -3.373,0.54 -4.822,1.067c-1.449,0.527 -2.635,1.265 -3.557,2.214c-0.923,0.948 -1.384,2.16 -1.384,3.636c0,2.161 0.725,3.715 2.174,4.664c1.449,0.948 3.412,1.423 5.889,1.423c1.95,-0 3.61,-0.33 4.981,-0.988c1.37,-0.659 2.477,-1.516 3.32,-2.57c0.843,-1.054 1.449,-2.226 1.818,-3.517c0.369,-1.291 0.553,-2.569 0.553,-3.834l0,-2.372l-3.794,0Z" style="fill-rule:nonzero;stroke:black;stroke-width:1px;stroke-linecap:butt;stroke-miterlimit:2;"/>
    <path d="M1671.15,208.654l7.115,-0l-0,5.77l0.158,0c0.474,-1.001 1.107,-1.91 1.897,-2.727c0.791,-0.817 1.673,-1.515 2.648,-2.095c0.975,-0.579 2.042,-1.04 3.202,-1.383c1.159,-0.343 2.319,-0.514 3.478,-0.514c1.159,0 2.213,0.158 3.162,0.474l-0.316,7.668c-0.58,-0.158 -1.16,-0.289 -1.739,-0.395c-0.58,-0.105 -1.16,-0.158 -1.739,-0.158c-3.479,0 -6.14,0.975 -7.985,2.925c-1.844,1.95 -2.766,4.98 -2.766,9.091l-0,18.814l-7.115,-0l0,-37.47Z" style="fill-rule:nonzero;stroke:black;stroke-width:1px;stroke-linecap:butt;stroke-miterlimit:2;"/>
    <path d="M1700.56,213.239c2.003,-1.845 4.321,-3.228 6.956,-4.15c2.636,-0.923 5.271,-1.384 7.906,-1.384c2.74,0 5.098,0.343 7.075,1.028c1.976,0.685 3.596,1.607 4.861,2.767c1.265,1.159 2.2,2.49 2.807,3.992c0.606,1.502 0.909,3.069 0.909,4.703l-0,19.13c-0,1.318 0.026,2.53 0.079,3.637c0.052,1.106 0.131,2.161 0.237,3.162l-6.324,-0c-0.158,-1.897 -0.237,-3.795 -0.237,-5.692l-0.158,0c-1.582,2.424 -3.452,4.137 -5.613,5.138c-2.161,1.002 -4.664,1.502 -7.51,1.502c-1.739,0 -3.399,-0.237 -4.98,-0.711c-1.581,-0.474 -2.965,-1.186 -4.15,-2.134c-1.186,-0.949 -2.121,-2.122 -2.807,-3.518c-0.685,-1.397 -1.027,-3.017 -1.027,-4.862c-0,-2.424 0.54,-4.453 1.62,-6.087c1.081,-1.633 2.556,-2.964 4.427,-3.992c1.871,-1.027 4.058,-1.765 6.561,-2.213c2.504,-0.448 5.178,-0.672 8.024,-0.672l5.217,-0l0,-1.581c0,-0.949 -0.184,-1.897 -0.553,-2.846c-0.369,-0.949 -0.922,-1.805 -1.66,-2.569c-0.738,-0.764 -1.66,-1.37 -2.767,-1.818c-1.107,-0.448 -2.424,-0.672 -3.952,-0.672c-1.371,-0 -2.57,0.132 -3.597,0.395c-1.028,0.264 -1.963,0.593 -2.806,0.988c-0.844,0.395 -1.608,0.857 -2.293,1.384c-0.685,0.527 -1.344,1.027 -1.976,1.502l-4.269,-4.427Zm20.079,14.861c-1.687,0 -3.412,0.092 -5.178,0.277c-1.765,0.184 -3.373,0.54 -4.822,1.067c-1.449,0.527 -2.635,1.265 -3.557,2.214c-0.923,0.948 -1.384,2.16 -1.384,3.636c0,2.161 0.725,3.715 2.174,4.664c1.449,0.948 3.413,1.423 5.889,1.423c1.95,-0 3.61,-0.33 4.981,-0.988c1.37,-0.659 2.477,-1.516 3.32,-2.57c0.843,-1.054 1.449,-2.226 1.818,-3.517c0.369,-1.291 0.553,-2.569 0.553,-3.834l0,-2.372l-3.794,0Z" style="fill-rule:nonzero;stroke:black;stroke-width:1px;stroke-linecap:butt;stroke-miterlimit:2;"/>
    <path d="M1741.43,186.361l7.115,0l-0,27.668l0.158,0c1.265,-1.95 3.083,-3.491 5.454,-4.624c2.372,-1.133 4.902,-1.7 7.589,-1.7c2.899,0 5.521,0.501 7.866,1.502c2.345,1.001 4.348,2.385 6.008,4.15c1.66,1.766 2.938,3.847 3.834,6.245c0.896,2.398 1.344,4.994 1.344,7.787c-0,2.793 -0.448,5.375 -1.344,7.747c-0.896,2.371 -2.174,4.453 -3.834,6.245c-1.66,1.792 -3.663,3.188 -6.008,4.189c-2.345,1.002 -4.967,1.502 -7.866,1.502c-2.529,0 -4.993,-0.553 -7.391,-1.66c-2.398,-1.106 -4.282,-2.661 -5.652,-4.664l-0.158,0l-0,5.376l-7.115,-0l0,-59.763Zm19.447,54.071c1.897,0 3.61,-0.329 5.138,-0.988c1.528,-0.659 2.82,-1.555 3.874,-2.688c1.054,-1.133 1.87,-2.503 2.45,-4.11c0.58,-1.608 0.87,-3.36 0.87,-5.257c-0,-1.897 -0.29,-3.65 -0.87,-5.257c-0.58,-1.607 -1.396,-2.978 -2.45,-4.111c-1.054,-1.133 -2.346,-2.029 -3.874,-2.687c-1.528,-0.659 -3.241,-0.989 -5.138,-0.989c-1.897,0 -3.61,0.33 -5.139,0.989c-1.528,0.658 -2.819,1.554 -3.873,2.687c-1.054,1.133 -1.871,2.504 -2.451,4.111c-0.579,1.607 -0.869,3.36 -0.869,5.257c-0,1.897 0.29,3.649 0.869,5.257c0.58,1.607 1.397,2.977 2.451,4.11c1.054,1.133 2.345,2.029 3.873,2.688c1.529,0.659 3.242,0.988 5.139,0.988Z" style="fill-rule:nonzero;stroke:black;stroke-width:1px;stroke-linecap:butt;stroke-miterlimit:2;"/>
    <rect x="1790.28" y="186.361" width="7.115" height="59.762" style="fill-rule:nonzero;stroke:black;stroke-width:1px;stroke-linecap:butt;stroke-miterlimit:2;"/>
    <path d="M1814.08,229.997c-0,1.634 0.356,3.123 1.067,4.467c0.712,1.344 1.647,2.49 2.806,3.439c1.16,0.948 2.504,1.686 4.032,2.213c1.528,0.527 3.109,0.79 4.743,0.79c2.213,0 4.137,-0.513 5.771,-1.541c1.633,-1.028 3.135,-2.385 4.506,-4.071l5.375,4.11c-3.952,5.112 -9.486,7.668 -16.601,7.668c-2.951,0 -5.625,-0.5 -8.023,-1.502c-2.398,-1.001 -4.427,-2.384 -6.087,-4.15c-1.66,-1.765 -2.938,-3.847 -3.834,-6.245c-0.896,-2.398 -1.344,-4.993 -1.344,-7.786c0,-2.793 0.487,-5.389 1.462,-7.787c0.975,-2.398 2.319,-4.479 4.032,-6.245c1.713,-1.765 3.755,-3.149 6.126,-4.15c2.372,-1.001 4.954,-1.502 7.747,-1.502c3.321,0 6.127,0.58 8.419,1.739c2.293,1.16 4.177,2.675 5.652,4.546c1.476,1.871 2.543,3.979 3.202,6.324c0.659,2.345 0.988,4.73 0.988,7.154l0,2.529l-30.039,0Zm22.45,-5.691c-0.052,-1.581 -0.303,-3.03 -0.751,-4.348c-0.448,-1.317 -1.12,-2.464 -2.015,-3.439c-0.896,-0.975 -2.016,-1.739 -3.36,-2.292c-1.344,-0.554 -2.912,-0.83 -4.704,-0.83c-1.739,-0 -3.333,0.329 -4.782,0.988c-1.449,0.659 -2.675,1.515 -3.676,2.569c-1.001,1.054 -1.779,2.227 -2.332,3.518c-0.553,1.291 -0.83,2.569 -0.83,3.834l22.45,-0Z" style="fill-rule:nonzero;stroke:black;stroke-width:1px;stroke-linecap:butt;stroke-miterlimit:2;"/>
    <path d="M683.525,29.806l9.353,0l-0,7.067l0.208,0c1.801,-2.633 4.278,-4.676 7.43,-6.131c3.153,-1.455 6.391,-2.183 9.717,-2.183c3.811,0 7.257,0.658 10.34,1.975c3.083,1.316 5.716,3.152 7.899,5.508c2.182,2.355 3.862,5.109 5.04,8.262c1.178,3.152 1.767,6.529 1.767,10.132c-0,3.672 -0.589,7.084 -1.767,10.237c-1.178,3.152 -2.858,5.889 -5.04,8.21c-2.183,2.32 -4.816,4.139 -7.899,5.455c-3.083,1.317 -6.529,1.975 -10.34,1.975c-3.533,0 -6.859,-0.745 -9.977,-2.234c-3.117,-1.49 -5.508,-3.516 -7.17,-6.08l-0.208,0l-0,36.373l-9.353,0l-0,-78.566Zm25.565,7.483c-2.494,-0 -4.746,0.433 -6.755,1.299c-2.009,0.866 -3.707,2.044 -5.092,3.533c-1.386,1.49 -2.46,3.291 -3.222,5.404c-0.762,2.113 -1.143,4.417 -1.143,6.911c-0,2.494 0.381,4.798 1.143,6.911c0.762,2.113 1.836,3.914 3.222,5.404c1.385,1.49 3.083,2.667 5.092,3.533c2.009,0.866 4.261,1.299 6.755,1.299c2.494,0 4.746,-0.433 6.755,-1.299c2.009,-0.866 3.706,-2.043 5.092,-3.533c1.386,-1.49 2.46,-3.291 3.222,-5.404c0.762,-2.113 1.143,-4.417 1.143,-6.911c-0,-2.494 -0.381,-4.798 -1.143,-6.911c-0.762,-2.113 -1.836,-3.914 -3.222,-5.404c-1.386,-1.489 -3.083,-2.667 -5.092,-3.533c-2.009,-0.866 -4.261,-1.299 -6.755,-1.299Z" style="fill-rule:nonzero;stroke:black;stroke-width:1px;stroke-linecap:butt;stroke-miterlimit:2;"/>
    <path d="M747.022,29.806l9.353,0l-0,7.587l0.208,-0c0.623,-1.317 1.455,-2.512 2.494,-3.586c1.039,-1.073 2.2,-1.991 3.481,-2.754c1.282,-0.762 2.685,-1.368 4.209,-1.818c1.524,-0.451 3.049,-0.676 4.573,-0.676c1.524,0 2.91,0.208 4.157,0.624l-0.416,10.08c-0.762,-0.207 -1.524,-0.381 -2.286,-0.519c-0.762,-0.139 -1.524,-0.208 -2.287,-0.208c-4.572,-0 -8.071,1.282 -10.496,3.845c-2.425,2.564 -3.637,6.547 -3.637,11.951l-0,24.734l-9.353,-0l-0,-49.26Z" style="fill-rule:nonzero;stroke:black;stroke-width:1px;stroke-linecap:butt;stroke-miterlimit:2;"/>
    <path d="M791.189,54.436c0,2.494 0.381,4.798 1.143,6.911c0.762,2.113 1.836,3.914 3.222,5.404c1.386,1.49 3.083,2.667 5.092,3.533c2.009,0.866 4.261,1.299 6.755,1.299c2.494,0 4.746,-0.433 6.755,-1.299c2.009,-0.866 3.707,-2.043 5.092,-3.533c1.386,-1.49 2.46,-3.291 3.222,-5.404c0.762,-2.113 1.143,-4.417 1.143,-6.911c0,-2.494 -0.381,-4.798 -1.143,-6.911c-0.762,-2.113 -1.836,-3.914 -3.222,-5.404c-1.385,-1.489 -3.083,-2.667 -5.092,-3.533c-2.009,-0.866 -4.261,-1.299 -6.755,-1.299c-2.494,-0 -4.746,0.433 -6.755,1.299c-2.009,0.866 -3.706,2.044 -5.092,3.533c-1.386,1.49 -2.46,3.291 -3.222,5.404c-0.762,2.113 -1.143,4.417 -1.143,6.911Zm-9.976,0c-0,-3.603 0.675,-6.963 2.026,-10.08c1.351,-3.118 3.204,-5.855 5.56,-8.21c2.356,-2.356 5.127,-4.209 8.314,-5.56c3.187,-1.351 6.616,-2.027 10.288,-2.027c3.672,0 7.102,0.676 10.289,2.027c3.187,1.351 5.958,3.204 8.313,5.56c2.356,2.355 4.209,5.092 5.56,8.21c1.351,3.117 2.027,6.477 2.027,10.08c-0,3.603 -0.676,6.98 -2.027,10.133c-1.351,3.152 -3.204,5.889 -5.56,8.21c-2.355,2.321 -5.126,4.157 -8.313,5.508c-3.187,1.351 -6.617,2.026 -10.289,2.026c-3.672,0 -7.101,-0.675 -10.288,-2.026c-3.187,-1.351 -5.958,-3.187 -8.314,-5.508c-2.356,-2.321 -4.209,-5.058 -5.56,-8.21c-1.351,-3.153 -2.026,-6.53 -2.026,-10.133Z" style="fill-rule:nonzero;stroke:black;stroke-width:1px;stroke-linecap:butt;stroke-miterlimit:2;"/>
    <path d="M855.414,29.806l-0,56.327c-0,1.247 -0.087,2.892 -0.26,4.936c-0.173,2.044 -0.728,4.018 -1.663,5.924c-0.935,1.905 -2.425,3.55 -4.469,4.936c-2.043,1.386 -4.936,2.079 -8.677,2.079c-1.039,-0 -2.061,-0.07 -3.066,-0.208c-1.004,-0.139 -1.992,-0.381 -2.962,-0.728l1.04,-8.625c0.554,0.207 1.177,0.398 1.87,0.571c0.693,0.173 1.351,0.26 1.975,0.26c2.563,-0 4.347,-0.814 5.352,-2.442c1.004,-1.628 1.507,-4.001 1.507,-7.119l-0,-55.911l9.353,0Zm-11.536,-17.667c0,-1.87 0.676,-3.481 2.027,-4.832c1.351,-1.351 2.962,-2.027 4.832,-2.027c1.871,0 3.482,0.676 4.833,2.027c1.351,1.351 2.026,2.962 2.026,4.832c0,1.871 -0.675,3.482 -2.026,4.833c-1.351,1.351 -2.962,2.026 -4.833,2.026c-1.87,0 -3.481,-0.675 -4.832,-2.026c-1.351,-1.351 -2.027,-2.962 -2.027,-4.833Z" style="fill-rule:nonzero;stroke:black;stroke-width:1px;stroke-linecap:butt;stroke-miterlimit:2;"/>
    <path d="M877.342,57.866c-0,2.147 0.467,4.105 1.403,5.871c0.935,1.767 2.165,3.274 3.689,4.521c1.524,1.247 3.291,2.217 5.3,2.91c2.009,0.693 4.088,1.039 6.235,1.039c2.91,0 5.439,-0.675 7.587,-2.026c2.147,-1.351 4.122,-3.135 5.923,-5.353l7.067,5.404c-5.196,6.721 -12.471,10.081 -21.824,10.081c-3.88,0 -7.396,-0.658 -10.548,-1.975c-3.152,-1.316 -5.82,-3.135 -8.002,-5.455c-2.182,-2.321 -3.863,-5.058 -5.04,-8.21c-1.178,-3.153 -1.767,-6.565 -1.767,-10.237c-0,-3.672 0.641,-7.084 1.923,-10.236c1.281,-3.153 3.048,-5.889 5.3,-8.21c2.251,-2.321 4.936,-4.14 8.054,-5.456c3.117,-1.317 6.512,-1.975 10.184,-1.975c4.365,0 8.054,0.762 11.068,2.287c3.014,1.524 5.491,3.516 7.43,5.975c1.94,2.46 3.343,5.231 4.209,8.314c0.866,3.083 1.299,6.218 1.299,9.405l0,3.326l-39.49,-0Zm29.514,-7.483c-0.07,-2.078 -0.399,-3.984 -0.988,-5.716c-0.588,-1.732 -1.472,-3.239 -2.65,-4.52c-1.177,-1.282 -2.65,-2.287 -4.416,-3.014c-1.767,-0.728 -3.828,-1.091 -6.184,-1.091c-2.286,-0 -4.382,0.433 -6.287,1.299c-1.905,0.866 -3.516,1.992 -4.833,3.377c-1.316,1.386 -2.338,2.927 -3.065,4.625c-0.728,1.697 -1.091,3.377 -1.091,5.04l29.514,0Z" style="fill-rule:nonzero;stroke:black;stroke-width:1px;stroke-linecap:butt;stroke-miterlimit:2;"/>
    <path d="M963.286,42.901c-1.732,-1.802 -3.551,-3.17 -5.456,-4.105c-1.905,-0.936 -4.174,-1.403 -6.807,-1.403c-2.563,-0 -4.798,0.467 -6.703,1.403c-1.905,0.935 -3.499,2.217 -4.78,3.845c-1.282,1.628 -2.252,3.499 -2.91,5.612c-0.658,2.113 -0.988,4.313 -0.988,6.599c0,2.286 0.382,4.451 1.144,6.495c0.762,2.044 1.836,3.828 3.221,5.352c1.386,1.524 3.049,2.719 4.989,3.585c1.939,0.866 4.122,1.299 6.547,1.299c2.632,0 4.884,-0.467 6.755,-1.402c1.87,-0.936 3.602,-2.304 5.196,-4.105l6.651,6.651c-2.425,2.702 -5.248,4.642 -8.47,5.819c-3.221,1.178 -6.634,1.767 -10.236,1.767c-3.811,0 -7.292,-0.624 -10.444,-1.871c-3.153,-1.247 -5.872,-2.996 -8.158,-5.248c-2.287,-2.251 -4.053,-4.953 -5.301,-8.106c-1.247,-3.152 -1.87,-6.633 -1.87,-10.444c-0,-3.811 0.623,-7.309 1.87,-10.496c1.248,-3.187 2.997,-5.924 5.249,-8.21c2.251,-2.286 4.953,-4.071 8.106,-5.352c3.152,-1.282 6.668,-1.923 10.548,-1.923c3.602,0 7.049,0.641 10.34,1.923c3.291,1.281 6.149,3.239 8.574,5.871l-7.067,6.444Z" style="fill-rule:nonzero;stroke:black;stroke-width:1px;stroke-linecap:butt;stroke-miterlimit:2;"/>
    <path d="M1004.54,37.912l-13.407,0l0,22.344c0,1.385 0.035,2.754 0.104,4.105c0.07,1.351 0.33,2.563 0.78,3.637c0.45,1.074 1.143,1.94 2.078,2.598c0.936,0.658 2.304,0.987 4.105,0.987c1.109,0 2.252,-0.103 3.43,-0.311c1.178,-0.208 2.251,-0.589 3.221,-1.143l0,8.521c-1.108,0.624 -2.546,1.057 -4.312,1.299c-1.767,0.243 -3.135,0.364 -4.105,0.364c-3.603,0 -6.392,-0.502 -8.366,-1.507c-1.975,-1.004 -3.43,-2.303 -4.365,-3.897c-0.935,-1.593 -1.49,-3.377 -1.663,-5.352c-0.173,-1.975 -0.26,-3.966 -0.26,-5.976l0,-25.669l-10.808,0l0,-8.106l10.808,0l0,-13.821l9.353,-0l0,13.821l13.407,0l-0,8.106Z" style="fill-rule:nonzero;stroke:black;stroke-width:1px;stroke-linecap:butt;stroke-miterlimit:2;"/>
    <path d="M1017.33,29.806l9.353,0l0,49.26l-9.353,-0l0,-49.26Zm-2.182,-17.667c-0,-1.87 0.675,-3.481 2.026,-4.832c1.351,-1.351 2.962,-2.027 4.833,-2.027c1.87,0 3.481,0.676 4.832,2.027c1.351,1.351 2.027,2.962 2.027,4.832c-0,1.871 -0.676,3.482 -2.027,4.833c-1.351,1.351 -2.962,2.026 -4.832,2.026c-1.871,0 -3.482,-0.675 -4.833,-2.026c-1.351,-1.351 -2.026,-2.962 -2.026,-4.833Z" style="fill-rule:nonzero;stroke:black;stroke-width:1px;stroke-linecap:butt;stroke-miterlimit:2;"/>
    <path d="M1049.13,54.436c-0,2.494 0.381,4.798 1.143,6.911c0.762,2.113 1.836,3.914 3.221,5.404c1.386,1.49 3.083,2.667 5.093,3.533c2.009,0.866 4.261,1.299 6.755,1.299c2.494,0 4.746,-0.433 6.755,-1.299c2.009,-0.866 3.706,-2.043 5.092,-3.533c1.386,-1.49 2.459,-3.291 3.222,-5.404c0.762,-2.113 1.143,-4.417 1.143,-6.911c-0,-2.494 -0.381,-4.798 -1.143,-6.911c-0.763,-2.113 -1.836,-3.914 -3.222,-5.404c-1.386,-1.489 -3.083,-2.667 -5.092,-3.533c-2.009,-0.866 -4.261,-1.299 -6.755,-1.299c-2.494,-0 -4.746,0.433 -6.755,1.299c-2.01,0.866 -3.707,2.044 -5.093,3.533c-1.385,1.49 -2.459,3.291 -3.221,5.404c-0.762,2.113 -1.143,4.417 -1.143,6.911Zm-9.977,0c0,-3.603 0.676,-6.963 2.027,-10.08c1.351,-3.118 3.204,-5.855 5.559,-8.21c2.356,-2.356 5.127,-4.209 8.314,-5.56c3.187,-1.351 6.617,-2.027 10.289,-2.027c3.672,0 7.101,0.676 10.288,2.027c3.187,1.351 5.958,3.204 8.314,5.56c2.356,2.355 4.209,5.092 5.56,8.21c1.351,3.117 2.026,6.477 2.026,10.08c0,3.603 -0.675,6.98 -2.026,10.133c-1.351,3.152 -3.204,5.889 -5.56,8.21c-2.356,2.321 -5.127,4.157 -8.314,5.508c-3.187,1.351 -6.616,2.026 -10.288,2.026c-3.672,0 -7.102,-0.675 -10.289,-2.026c-3.187,-1.351 -5.958,-3.187 -8.314,-5.508c-2.355,-2.321 -4.208,-5.058 -5.559,-8.21c-1.351,-3.153 -2.027,-6.53 -2.027,-10.133Z" style="fill-rule:nonzero;stroke:black;stroke-width:1px;stroke-linecap:butt;stroke-miterlimit:2;"/>
    <path d="M1103.27,29.806l9.353,0l-0,7.587l0.208,-0c1.177,-2.633 3.221,-4.763 6.131,-6.392c2.91,-1.628 6.27,-2.442 10.081,-2.442c2.355,0 4.624,0.364 6.807,1.091c2.182,0.728 4.087,1.854 5.715,3.378c1.628,1.524 2.928,3.481 3.897,5.872c0.97,2.39 1.455,5.213 1.455,8.469l0,31.697l-9.353,-0l0,-29.099c0,-2.286 -0.311,-4.243 -0.935,-5.871c-0.624,-1.628 -1.455,-2.945 -2.494,-3.949c-1.039,-1.005 -2.234,-1.732 -3.585,-2.183c-1.352,-0.45 -2.754,-0.675 -4.209,-0.675c-1.94,-0 -3.742,0.312 -5.404,0.935c-1.663,0.624 -3.118,1.611 -4.365,2.962c-1.247,1.351 -2.217,3.066 -2.91,5.144c-0.693,2.079 -1.039,4.538 -1.039,7.379l-0,25.357l-9.353,-0l-0,-49.26Z" style="fill-rule:nonzero;stroke:black;stroke-width:1px;stroke-linecap:butt;stroke-miterlimit:2;"/>
    <path d="M1216.34,37.912l-13.406,0l0,22.344c0,1.385 0.035,2.754 0.104,4.105c0.069,1.351 0.329,2.563 0.779,3.637c0.451,1.074 1.144,1.94 2.079,2.598c0.935,0.658 2.303,0.987 4.105,0.987c1.108,0 2.251,-0.103 3.429,-0.311c1.178,-0.208 2.252,-0.589 3.222,-1.143l-0,8.521c-1.109,0.624 -2.546,1.057 -4.313,1.299c-1.767,0.243 -3.135,0.364 -4.105,0.364c-3.603,0 -6.391,-0.502 -8.366,-1.507c-1.974,-1.004 -3.429,-2.303 -4.364,-3.897c-0.936,-1.593 -1.49,-3.377 -1.663,-5.352c-0.173,-1.975 -0.26,-3.966 -0.26,-5.976l-0,-25.669l-10.808,0l-0,-8.106l10.808,0l-0,-13.821l9.353,-0l0,13.821l13.406,0l0,8.106Z" style="fill-rule:nonzero;stroke:black;stroke-width:1px;stroke-linecap:butt;stroke-miterlimit:2;"/>
    <path d="M1228.39,29.806l9.353,0l0,7.587l0.208,-0c0.624,-1.317 1.455,-2.512 2.494,-3.586c1.04,-1.073 2.2,-1.991 3.482,-2.754c1.281,-0.762 2.684,-1.368 4.209,-1.818c1.524,-0.451 3.048,-0.676 4.572,-0.676c1.524,0 2.91,0.208 4.157,0.624l-0.416,10.08c-0.762,-0.207 -1.524,-0.381 -2.286,-0.519c-0.762,-0.139 -1.524,-0.208 -2.286,-0.208c-4.573,-0 -8.071,1.282 -10.496,3.845c-2.425,2.564 -3.638,6.547 -3.638,11.951l0,24.734l-9.353,-0l0,-49.26Z" style="fill-rule:nonzero;stroke:black;stroke-width:1px;stroke-linecap:butt;stroke-miterlimit:2;"/>
    <path d="M1267.57,29.806l9.353,0l0,49.26l-9.353,-0l0,-49.26Zm-2.182,-17.667c-0,-1.87 0.675,-3.481 2.026,-4.832c1.351,-1.351 2.962,-2.027 4.833,-2.027c1.87,0 3.481,0.676 4.832,2.027c1.351,1.351 2.027,2.962 2.027,4.832c-0,1.871 -0.676,3.482 -2.027,4.833c-1.351,1.351 -2.962,2.026 -4.832,2.026c-1.871,0 -3.482,-0.675 -4.833,-2.026c-1.351,-1.351 -2.026,-2.962 -2.026,-4.833Z" style="fill-rule:nonzero;stroke:black;stroke-width:1px;stroke-linecap:butt;stroke-miterlimit:2;"/>
    <path d="M1327.02,42.901c-1.732,-1.802 -3.55,-3.17 -5.456,-4.105c-1.905,-0.936 -4.174,-1.403 -6.807,-1.403c-2.563,-0 -4.797,0.467 -6.703,1.403c-1.905,0.935 -3.498,2.217 -4.78,3.845c-1.282,1.628 -2.252,3.499 -2.91,5.612c-0.658,2.113 -0.987,4.313 -0.987,6.599c-0,2.286 0.381,4.451 1.143,6.495c0.762,2.044 1.836,3.828 3.222,5.352c1.385,1.524 3.048,2.719 4.988,3.585c1.94,0.866 4.122,1.299 6.547,1.299c2.633,0 4.884,-0.467 6.755,-1.402c1.871,-0.936 3.603,-2.304 5.196,-4.105l6.651,6.651c-2.425,2.702 -5.248,4.642 -8.469,5.819c-3.222,1.178 -6.634,1.767 -10.237,1.767c-3.81,0 -7.292,-0.624 -10.444,-1.871c-3.153,-1.247 -5.872,-2.996 -8.158,-5.248c-2.286,-2.251 -4.053,-4.953 -5.3,-8.106c-1.247,-3.152 -1.871,-6.633 -1.871,-10.444c0,-3.811 0.624,-7.309 1.871,-10.496c1.247,-3.187 2.996,-5.924 5.248,-8.21c2.252,-2.286 4.954,-4.071 8.106,-5.352c3.152,-1.282 6.668,-1.923 10.548,-1.923c3.603,0 7.05,0.641 10.34,1.923c3.291,1.281 6.149,3.239 8.574,5.871l-7.067,6.444Z" style="fill-rule:nonzero;stroke:black;stroke-width:1px;stroke-linecap:butt;stroke-miterlimit:2;"/>
    <path d="M1341.88,0.5l9.353,0l0,50.715l21.201,-21.305l12.99,0l-22.967,22.344l24.942,26.812l-13.302,-0l-22.864,-25.565l0,25.565l-9.353,-0l0,-78.566Z" style="fill-rule:nonzero;stroke:black;stroke-width:1px;stroke-linecap:butt;stroke-miterlimit:2;"/>
    <path d="M479.341,153.639c30.621,-56.762 71.355,-86.059 134.935,-94.698" style="fill:none;stroke:black;stroke-width:9.58px;"/>
    <path d="M614.276,58.941l-29.254,-22.11" style="fill:none;stroke:black;stroke-width:9.58px;"/>
    <path d="M614.276,58.941l-18.818,33.549" style="fill:none;stroke:black;stroke-width:9.58px;"/>
    <path d="M1440.07,44.685c54.548,18.695 90.558,59.197 113.367,110.46" style="fill:none;stroke:black;stroke-width:9.58px;"/>
    <path d="M1553.44,155.145l-30.911,-17.432" style="fill:none;stroke:black;stroke-width:9.58px;"/>
    <path d="M1553.44,155.145l16.051,-30.477" style="fill:none;stroke:black;stroke-width:9.58px;"/>
</svg>
