<svg width="579" height="338" xmlns="http://www.w3.org/2000/svg" xmlns:xlink="http://www.w3.org/1999/xlink" xml:space="preserve" overflow="hidden"><g><path d="M1.77026 197.325 577.216 197.325" stroke="#000000" stroke-width="3.54023" stroke-linecap="round" stroke-linejoin="round" stroke-miterlimit="1.5" fill="none" fill-rule="evenodd"/><path d="M576.976 197.327 558.496 178.851" stroke="#000000" stroke-width="3.54" stroke-linecap="round" stroke-linejoin="round" stroke-miterlimit="1.5" fill="none" fill-rule="evenodd"/><path d="M576.976 197.327 557.376 216.928" stroke="#000000" stroke-width="3.54" stroke-linecap="round" stroke-linejoin="round" stroke-miterlimit="1.5" fill="none" fill-rule="evenodd"/><path d="M61.4144 187.93 61.4144 208.024" stroke="#323FC6" stroke-width="3.54" stroke-linecap="round" stroke-linejoin="round" stroke-miterlimit="1.5" fill="none" fill-rule="evenodd"/><path d="M43.8335 226.62C43.8335 226.987 43.7035 227.288 43.4435 227.523 43.1835 227.759 42.8934 227.877 42.5735 227.877 42.2634 227.877 41.9735 227.759 41.7135 227.523 41.4535 227.288 41.3235 226.987 41.3235 226.62 41.3235 226.254 41.4535 225.953 41.7135 225.717 41.9735 225.482 42.2634 225.364 42.5735 225.364 42.8934 225.364 43.1835 225.482 43.4435 225.717 43.7035 225.953 43.8335 226.254 43.8335 226.62ZM43.4435 243.58 41.7135 243.58 41.7135 231.331 43.4435 231.331 43.4435 243.58Z" stroke="#323FC6" stroke-linejoin="round" stroke-miterlimit="2" fill="#3F4DDA"/><path d="M53.9934 236.435 60.7194 236.435 60.7194 238.162 53.9934 238.162Z" stroke="#323FC6" stroke-linejoin="round" stroke-miterlimit="2" fill="#3F4DDA"/><path d="M82.0234 243.58 70.2434 243.58 70.2434 241.408 77.6234 233.896C77.9034 233.617 78.1835 233.321 78.4635 233.006 78.7434 232.692 78.9934 232.361 79.2235 232.012 79.4435 231.663 79.6334 231.297 79.7734 230.913 79.9135 230.529 79.9834 230.127 79.9834 229.709 79.9834 229.203 79.8934 228.749 79.7035 228.348 79.5234 227.946 79.2634 227.606 78.9335 227.327 78.6034 227.048 78.2135 226.834 77.7834 226.686 77.3435 226.537 76.8834 226.463 76.3934 226.463 75.4535 226.463 74.6534 226.725 73.9834 227.248 73.3235 227.772 72.8934 228.479 72.7035 229.368L70.7135 229.159C70.9735 227.781 71.6134 226.699 72.6134 225.914 73.6134 225.128 74.8335 224.736 76.2634 224.736 77.0134 224.736 77.7235 224.836 78.3934 225.037 79.0635 225.238 79.6635 225.538 80.1735 225.94 80.6935 226.341 81.1034 226.843 81.4034 227.445 81.7135 228.047 81.8634 228.749 81.8634 229.552 81.8634 230.267 81.7534 230.921 81.5334 231.515 81.3235 232.108 81.0334 232.666 80.6835 233.19 80.3335 233.713 79.9435 234.21 79.4934 234.682 79.0535 235.153 78.5935 235.615 78.1234 236.069L72.2834 241.853 82.0234 241.853 82.0234 243.58Z" stroke="#323FC6" stroke-linejoin="round" stroke-miterlimit="2" fill="#3F4DDA"/><path d="M139.65 187.93 139.65 208.024" stroke="#000000" stroke-width="3.54" stroke-linecap="round" stroke-linejoin="round" stroke-miterlimit="1.5" fill="none" fill-rule="evenodd"/><path d="M122.069 226.62C122.069 226.987 121.939 227.288 121.679 227.523 121.419 227.759 121.129 227.877 120.809 227.877 120.499 227.877 120.209 227.759 119.949 227.523 119.689 227.288 119.559 226.987 119.559 226.62 119.559 226.254 119.689 225.953 119.949 225.717 120.209 225.482 120.499 225.364 120.809 225.364 121.129 225.364 121.419 225.482 121.679 225.717 121.939 225.953 122.069 226.254 122.069 226.62ZM121.679 243.58 119.949 243.58 119.949 231.331 121.679 231.331 121.679 243.58Z" stroke="#000000" stroke-linejoin="round" stroke-miterlimit="2"/><path d="M132.229 236.435 138.955 236.435 138.955 238.162 132.229 238.162Z" stroke="#000000" stroke-linejoin="round" stroke-miterlimit="2"/><path d="M156.329 243.58 154.449 243.58 154.449 227.405 151.119 230.337 149.949 228.924 154.659 225.05 156.329 225.05 156.329 243.58Z" stroke="#000000" stroke-linejoin="round" stroke-miterlimit="2"/><path d="M214.235 187.93 214.235 208.024" stroke="#323FC6" stroke-width="3.54" stroke-linecap="round" stroke-linejoin="round" stroke-miterlimit="1.5" fill="none" fill-rule="evenodd"/><path d="M215.016 226.62C215.016 226.987 214.886 227.288 214.626 227.523 214.366 227.759 214.076 227.877 213.756 227.877 213.446 227.877 213.156 227.759 212.896 227.523 212.636 227.288 212.506 226.987 212.506 226.62 212.506 226.254 212.636 225.953 212.896 225.717 213.156 225.482 213.446 225.364 213.756 225.364 214.076 225.364 214.366 225.482 214.626 225.717 214.886 225.953 215.016 226.254 215.016 226.62ZM214.626 243.58 212.896 243.58 212.896 231.331 214.626 231.331 214.626 243.58Z" stroke="#323FC6" stroke-linejoin="round" stroke-miterlimit="2" fill="#3F4DDA"/><path d="M288.16 187.93 288.16 208.024" stroke="#000000" stroke-width="3.54" stroke-linecap="round" stroke-linejoin="round" stroke-miterlimit="1.5" fill="none" fill-rule="evenodd"/><path d="M270.579 226.62C270.579 226.987 270.449 227.288 270.189 227.523 269.929 227.759 269.639 227.877 269.319 227.877 269.009 227.877 268.719 227.759 268.459 227.523 268.199 227.288 268.069 226.987 268.069 226.62 268.069 226.254 268.199 225.953 268.459 225.717 268.719 225.482 269.009 225.364 269.319 225.364 269.639 225.364 269.929 225.482 270.189 225.717 270.449 225.953 270.579 226.254 270.579 226.62ZM270.189 243.58 268.459 243.58 268.459 231.331 270.189 231.331 270.189 243.58Z" stroke="#000000" stroke-linejoin="round" stroke-miterlimit="2"/><path d="M289.239 234.865 295.129 234.865 295.129 236.435 289.239 236.435 289.239 242.324 287.669 242.324 287.669 236.435 281.779 236.435 281.779 234.865 287.669 234.865 287.669 228.976 289.239 228.976 289.239 234.865Z" stroke="#000000" stroke-linejoin="round" stroke-miterlimit="2"/><path d="M313.559 243.58 311.669 243.58 311.669 227.405 308.349 230.337 307.169 228.924 311.879 225.05 313.559 225.05 313.559 243.58Z" stroke="#000000" stroke-linejoin="round" stroke-miterlimit="2"/><path d="M362.745 187.93 362.745 208.024" stroke="#323FC6" stroke-width="3.54" stroke-linecap="round" stroke-linejoin="round" stroke-miterlimit="1.5" fill="none" fill-rule="evenodd"/><path d="M345.163 226.62C345.163 226.987 345.033 227.288 344.773 227.523 344.513 227.759 344.223 227.877 343.903 227.877 343.593 227.877 343.303 227.759 343.043 227.523 342.783 227.288 342.653 226.987 342.653 226.62 342.653 226.254 342.783 225.953 343.043 225.717 343.303 225.482 343.593 225.364 343.903 225.364 344.223 225.364 344.513 225.482 344.773 225.717 345.033 225.953 345.163 226.254 345.163 226.62ZM344.773 243.58 343.043 243.58 343.043 231.331 344.773 231.331 344.773 243.58Z" stroke="#323FC6" stroke-linejoin="round" stroke-miterlimit="2" fill="#3F4DDA"/><path d="M363.823 234.865 369.713 234.865 369.713 236.435 363.823 236.435 363.823 242.324 362.253 242.324 362.253 236.435 356.363 236.435 356.363 234.865 362.253 234.865 362.253 228.976 363.823 228.976 363.823 234.865Z" stroke="#323FC6" stroke-linejoin="round" stroke-miterlimit="2" fill="#3F4DDA"/><path d="M392.063 243.58 380.293 243.58 380.293 241.408 387.673 233.896C387.953 233.617 388.233 233.321 388.503 233.006 388.783 232.692 389.043 232.361 389.263 232.012 389.493 231.663 389.673 231.297 389.813 230.913 389.953 230.529 390.023 230.127 390.023 229.709 390.023 229.203 389.933 228.749 389.753 228.348 389.563 227.946 389.313 227.606 388.983 227.327 388.643 227.048 388.263 226.834 387.823 226.686 387.393 226.537 386.923 226.463 386.443 226.463 385.493 226.463 384.693 226.725 384.033 227.248 383.373 227.772 382.943 228.479 382.753 229.368L380.763 229.159C381.023 227.781 381.653 226.699 382.653 225.914 383.663 225.128 384.873 224.736 386.313 224.736 387.063 224.736 387.773 224.836 388.443 225.037 389.113 225.238 389.703 225.538 390.223 225.94 390.733 226.341 391.143 226.843 391.453 227.445 391.753 228.047 391.913 228.749 391.913 229.552 391.913 230.267 391.803 230.921 391.583 231.515 391.363 232.108 391.083 232.666 390.733 233.19 390.383 233.713 389.983 234.21 389.543 234.682 389.093 235.153 388.633 235.615 388.163 236.069L382.333 241.853 392.063 241.853 392.063 243.58Z" stroke="#323FC6" stroke-linejoin="round" stroke-miterlimit="2" fill="#3F4DDA"/><path d="M440.98 187.93 440.98 208.024" stroke="#000000" stroke-width="3.54" stroke-linecap="round" stroke-linejoin="round" stroke-miterlimit="1.5" fill="none" fill-rule="evenodd"/><path d="M423.399 226.62C423.399 226.987 423.269 227.288 423.009 227.523 422.749 227.759 422.459 227.877 422.139 227.877 421.829 227.877 421.539 227.759 421.279 227.523 421.019 227.288 420.889 226.987 420.889 226.62 420.889 226.254 421.019 225.953 421.279 225.717 421.539 225.482 421.829 225.364 422.139 225.364 422.459 225.364 422.749 225.482 423.009 225.717 423.269 225.953 423.399 226.254 423.399 226.62ZM423.009 243.58 421.279 243.58 421.279 231.331 423.009 231.331 423.009 243.58Z" stroke="#000000" stroke-linejoin="round" stroke-miterlimit="2"/><path d="M442.059 234.865 447.949 234.865 447.949 236.435 442.059 236.435 442.059 242.324 440.489 242.324 440.489 236.435 434.599 236.435 434.599 234.865 440.489 234.865 440.489 228.976 442.059 228.976 442.059 234.865Z" stroke="#000000" stroke-linejoin="round" stroke-miterlimit="2"/><path d="M462.609 233.006 463.579 233.006C464.119 233.006 464.639 232.945 465.129 232.823 465.629 232.701 466.059 232.505 466.429 232.234 466.799 231.964 467.089 231.611 467.309 231.174 467.529 230.738 467.629 230.215 467.629 229.604 467.629 228.609 467.329 227.837 466.729 227.288 466.129 226.738 465.289 226.463 464.209 226.463 463.419 226.463 462.729 226.638 462.139 226.987 461.539 227.336 461.059 227.842 460.669 228.505L459.019 227.667C459.579 226.673 460.289 225.935 461.159 225.456 462.019 224.976 463.019 224.736 464.149 224.736 464.889 224.736 465.579 224.841 466.219 225.05 466.869 225.259 467.429 225.569 467.919 225.979 468.409 226.389 468.799 226.895 469.089 227.497 469.369 228.099 469.519 228.784 469.519 229.552 469.519 230.058 469.439 230.538 469.269 230.991 469.099 231.445 468.879 231.855 468.589 232.221 468.299 232.588 467.969 232.906 467.579 233.177 467.199 233.447 466.799 233.652 466.379 233.792L466.459 233.844C466.979 233.949 467.459 234.145 467.899 234.433 468.329 234.721 468.709 235.074 469.019 235.493 469.339 235.912 469.579 236.383 469.749 236.906 469.929 237.43 470.019 237.979 470.019 238.555 470.019 239.41 469.859 240.169 469.549 240.832 469.229 241.495 468.799 242.054 468.259 242.507 467.719 242.961 467.089 243.306 466.379 243.541 465.659 243.777 464.899 243.894 464.099 243.894 462.739 243.894 461.549 243.598 460.539 243.005 459.529 242.411 458.769 241.46 458.259 240.152L460.249 239.55C460.569 240.44 461.029 241.098 461.649 241.526 462.269 241.953 463.139 242.167 464.259 242.167 464.779 242.167 465.279 242.08 465.749 241.905 466.219 241.731 466.629 241.482 466.989 241.159 467.349 240.837 467.629 240.448 467.829 239.995 468.029 239.541 468.129 239.044 468.129 238.503 468.129 237.805 467.999 237.216 467.739 236.736 467.479 236.256 467.129 235.868 466.689 235.571 466.259 235.275 465.749 235.061 465.189 234.93 464.619 234.799 464.029 234.734 463.419 234.734L462.609 234.734 462.609 233.006Z" stroke="#000000" stroke-linejoin="round" stroke-miterlimit="2"/><path d="M515.565 187.93 515.565 208.024" stroke="#323FC6" stroke-width="3.54" stroke-linecap="round" stroke-linejoin="round" stroke-miterlimit="1.5" fill="none" fill-rule="evenodd"/><path d="M496.322 226.076C496.322 226.443 496.192 226.743 495.932 226.979 495.672 227.215 495.382 227.332 495.062 227.332 494.752 227.332 494.462 227.215 494.202 226.979 493.942 226.743 493.812 226.443 493.812 226.076 493.812 225.71 493.942 225.409 494.202 225.172 494.462 224.938 494.752 224.819 495.062 224.819 495.382 224.819 495.672 224.938 495.932 225.172 496.192 225.409 496.322 225.71 496.322 226.076ZM495.932 243.035 494.202 243.035 494.202 230.786 495.932 230.786 495.932 243.035Z" stroke="#323FC6" stroke-linejoin="round" stroke-miterlimit="2" fill="#3F4DDA"/><path d="M514.982 234.32 520.872 234.32 520.872 235.891 514.982 235.891 514.982 241.78 513.412 241.78 513.412 235.891 507.522 235.891 507.522 234.32 513.412 234.32 513.412 228.431 514.982 228.431 514.982 234.32Z" stroke="#323FC6" stroke-linejoin="round" stroke-miterlimit="2" fill="#3F4DDA"/><path d="M539.192 226.389 539.142 226.389 532.752 236.911 539.192 236.911 539.192 226.389ZM541.082 236.911 543.752 236.911 543.752 238.638 541.082 238.638 541.082 243.035 539.192 243.035 539.192 238.638 531.182 238.638 531.182 236.492 538.672 224.505 541.082 224.505 541.082 236.911Z" stroke="#323FC6" stroke-linejoin="round" stroke-miterlimit="2" fill="#3F4DDA"/><path d="M65.0126 94.7303C65.0126 97.178 63.0283 99.1623 60.5806 99.1623 58.1328 99.1623 56.1486 97.178 56.1486 94.7303 56.1486 92.2826 58.1328 90.2983 60.5806 90.2983 63.0283 90.2983 65.0126 92.2825 65.0126 94.7303Z" stroke="#323FC6" stroke-width="3.54" stroke-linecap="round" stroke-linejoin="round" stroke-miterlimit="1.5" fill="#3F4DDA" fill-rule="evenodd"/><path d="M220.434 140.857C220.434 143.305 218.45 145.289 216.002 145.289 213.554 145.289 211.57 143.305 211.57 140.857 211.57 138.41 213.554 136.425 216.002 136.425 218.45 136.425 220.434 138.41 220.434 140.857Z" stroke="#323FC6" stroke-width="3.54" stroke-linecap="round" stroke-linejoin="round" stroke-miterlimit="1.5" fill="#3F4DDA" fill-rule="evenodd"/><path d="M367.277 100.832C367.277 103.28 365.293 105.264 362.845 105.264 360.397 105.264 358.413 103.28 358.413 100.832 358.413 98.3841 360.397 96.3998 362.845 96.3998 365.293 96.3998 367.277 98.384 367.277 100.832Z" stroke="#323FC6" stroke-width="3.54" stroke-linecap="round" stroke-linejoin="round" stroke-miterlimit="1.5" fill="#3F4DDA" fill-rule="evenodd"/><path d="M524.009 29.2523C524.009 31.7 522.025 33.6843 519.577 33.6843 517.129 33.6843 515.145 31.7 515.145 29.2523 515.145 26.8046 517.129 24.8203 519.577 24.8203 522.025 24.8203 524.009 26.8046 524.009 29.2523Z" stroke="#323FC6" stroke-width="3.54" stroke-linecap="round" stroke-linejoin="round" stroke-miterlimit="1.5" fill="#3F4DDA" fill-rule="evenodd"/><path d="M61.0938 93.7053 215.624 141.366" stroke="#323FC6" stroke-width="3.54" stroke-linecap="round" stroke-linejoin="round" stroke-miterlimit="1.5" stroke-dasharray="3.54 7.09 0 0" fill="none" fill-rule="evenodd"/><path d="M215.624 141.366 361.994 100.795" stroke="#323FC6" stroke-width="3.54" stroke-linecap="round" stroke-linejoin="round" stroke-miterlimit="1.5" stroke-dasharray="3.54 7.09 0 0" fill="none" fill-rule="evenodd"/><path d="M361.994 100.795 518.654 29.0153" stroke="#323FC6" stroke-width="3.54" stroke-linecap="round" stroke-linejoin="round" stroke-miterlimit="1.5" stroke-dasharray="3.54 7.09 0 0" fill="none" fill-rule="evenodd"/><path d="M146.037 118.265C146.037 121.111 143.73 123.418 140.884 123.418 138.038 123.418 135.731 121.111 135.731 118.265 135.731 115.419 138.038 113.112 140.884 113.112 143.73 113.112 146.037 115.419 146.037 118.265Z" stroke="#D6442C" stroke-width="3.54" stroke-linecap="round" stroke-linejoin="round" stroke-miterlimit="1.5" fill="#DA523F" fill-rule="evenodd"/><path d="M295.563 120.626C295.563 123.472 293.256 125.779 290.41 125.779 287.564 125.779 285.257 123.472 285.257 120.626 285.257 117.78 287.564 115.473 290.41 115.473 293.256 115.473 295.563 117.78 295.563 120.626Z" stroke="#D6442C" stroke-width="3.54" stroke-linecap="round" stroke-linejoin="round" stroke-miterlimit="1.5" fill="#DA523F" fill-rule="evenodd"/><path d="M446.571 64.9953C446.571 67.8412 444.264 70.1483 441.418 70.1483 438.572 70.1483 436.265 67.8412 436.265 64.9953 436.265 62.1494 438.572 59.8423 441.418 59.8423 444.264 59.8423 446.571 62.1494 446.571 64.9953Z" stroke="#D6442C" stroke-width="3.54" stroke-linecap="round" stroke-linejoin="round" stroke-miterlimit="1.5" fill="#DA523F" fill-rule="evenodd"/><path d="M55.6138 278.392 138.134 278.392" stroke="#000000" stroke-width="6.4" stroke-linecap="round" stroke-linejoin="round" stroke-miterlimit="1.5" fill="none" fill-rule="evenodd"/><path d="M80.2832 291.575 84.2703 291.575 84.2703 313.481 84.3884 313.481C84.8313 312.716 85.3925 312.013 86.0865 311.37 86.7657 310.726 87.5337 310.172 88.3754 309.71 89.2172 309.246 90.1179 308.884 91.063 308.623 92.0081 308.361 92.9384 308.23 93.8688 308.23 97.4866 308.23 100.159 309.187 101.902 311.098 103.63 313.009 104.486 315.735 104.486 319.274L104.486 337.198 100.514 337.198 100.514 321.567C100.514 318.43 99.9673 316.025 98.8745 314.357 97.7965 312.687 95.7736 311.852 92.835 311.852 92.6429 311.852 92.0818 311.932 91.1515 312.093 90.2212 312.254 89.2467 312.697 88.2277 313.421 87.1941 314.146 86.2786 315.231 85.4811 316.68 84.6688 318.128 84.2703 320.139 84.2703 322.715L84.2703 337.198 80.2832 337.198 80.2832 291.575Z" stroke="#000000" stroke-width="1.00414" stroke-linejoin="round" stroke-miterlimit="2"/><path d="M211.36 277.601 368.677 277.601" stroke="#000000" stroke-width="6.40554" stroke-linecap="round" stroke-linejoin="round" stroke-miterlimit="1.5" fill="none" fill-rule="evenodd"/><path d="M257.824 336.407 230.668 336.407 230.668 331.398 247.694 314.078C248.329 313.434 248.979 312.751 249.629 312.026 250.264 311.302 250.854 310.537 251.371 309.732 251.903 308.929 252.316 308.083 252.641 307.198 252.966 306.314 253.128 305.388 253.128 304.422 253.128 303.256 252.907 302.21 252.493 301.284 252.065 300.358 251.474 299.574 250.707 298.93 249.939 298.287 249.053 297.793 248.049 297.452 247.044 297.11 245.981 296.938 244.859 296.938 242.688 296.938 240.828 297.542 239.307 298.749 237.771 299.957 236.781 301.586 236.353 303.638L231.761 303.155C232.366 299.976 233.828 297.482 236.132 295.671 238.45 293.861 241.256 292.956 244.549 292.956 246.276 292.956 247.93 293.188 249.466 293.65 251.017 294.112 252.39 294.806 253.571 295.732 254.767 296.658 255.713 297.814 256.407 299.202 257.115 300.59 257.47 302.21 257.47 304.06 257.47 305.71 257.219 307.219 256.717 308.586 256.215 309.954 255.55 311.242 254.753 312.449 253.941 313.656 253.04 314.802 252.006 315.889 250.972 316.976 249.924 318.042 248.831 319.087L235.379 332.425 257.824 332.425 257.824 336.407Z" stroke="#000000" stroke-width="1.00414" stroke-linejoin="round" stroke-miterlimit="2"/><path d="M265.68 290.784 269.652 290.784 269.652 312.69 269.785 312.69C270.214 311.925 270.79 311.222 271.469 310.579 272.148 309.935 272.916 309.381 273.758 308.919 274.599 308.455 275.5 308.093 276.445 307.832 277.39 307.57 278.321 307.439 279.251 307.439 282.869 307.439 285.556 308.396 287.284 310.307 289.012 312.218 289.883 314.944 289.883 318.483L289.883 336.407 285.896 336.407 285.896 320.776C285.896 317.639 285.35 315.234 284.257 313.566 283.179 311.896 281.17 311.061 278.232 311.061 278.025 311.061 277.464 311.141 276.534 311.302 275.618 311.463 274.644 311.906 273.61 312.63 272.591 313.355 271.676 314.44 270.863 315.889 270.066 317.337 269.652 319.349 269.652 321.924L269.652 336.407 265.68 336.407 265.68 290.784Z" stroke="#000000" stroke-width="1.00414" stroke-linejoin="round" stroke-miterlimit="2"/><path d="M55.301 32.8988C55.301 31.2854 55.0465 29.775 54.5253 28.3689 54.0042 26.9615 53.2769 25.7408 52.3191 24.7068 51.3735 23.6716 50.222 22.8546 48.8766 22.2546 47.531 21.6545 46.0157 21.3551 44.3187 21.3551 42.6216 21.3551 41.0699 21.6545 39.6638 22.2546 38.2578 22.8546 37.0334 23.6716 36.0031 24.7068 34.9607 25.7408 34.1605 26.9615 33.5787 28.3689 32.9967 29.775 32.7058 31.2854 32.7058 32.8988 32.7058 34.5134 32.9967 36.0238 33.5787 37.43 34.1605 38.8373 34.9607 40.058 36.0031 41.092 37.0334 42.1272 38.2578 42.9442 39.6638 43.5443 41.0699 44.1443 42.6216 44.4437 44.3187 44.4437 46.0157 44.4437 47.531 44.1443 48.8766 43.5443 50.222 42.9442 51.3735 42.1272 52.3191 41.092 53.2769 40.058 54.0042 38.8373 54.5253 37.43 55.0465 36.0238 55.301 34.5134 55.301 32.8988ZM28.8026 18.3756 32.8998 18.3756 32.8998 23.2171 33.021 23.2171C33.6877 22.2243 34.4636 21.3757 35.3727 20.6727 36.2941 19.9684 37.2394 19.389 38.2335 18.9344 39.2274 18.4786 40.2457 18.1477 41.3125 17.9416 42.355 17.7343 43.3611 17.6313 44.3187 17.6313 46.5854 17.6313 48.6704 18.0131 50.5494 18.7792 52.4403 19.5441 54.0646 20.6096 55.4222 21.9758 56.792 23.3407 57.8588 24.9553 58.6224 26.8173 59.3861 28.6792 59.7742 30.706 59.7742 32.8988 59.7742 35.0929 59.3861 37.1197 58.6224 38.9816 57.8588 40.8435 56.792 42.4581 55.4222 43.8231 54.0646 45.1892 52.4403 46.2547 50.5494 47.0196 48.6704 47.7857 46.5854 48.1676 44.3187 48.1676 43.3611 48.1676 42.355 48.0645 41.3125 47.8572 40.2457 47.6512 39.2274 47.3202 38.2335 46.8645 37.2394 46.4099 36.2941 45.8305 35.3727 45.1262 34.4636 44.4231 33.6877 43.5746 33.021 42.5818L32.8998 42.5818 32.8998 65.2982 28.8026 65.2982 28.8026 18.3756Z" stroke="#000000" stroke-width="0.993996" stroke-linejoin="round" stroke-miterlimit="2"/><path d="M67.1564 27.4379C67.1564 26.1542 67.1321 24.8511 67.0594 23.5274 66.9988 22.2037 66.9502 20.486 66.9139 18.3756L70.9384 18.3756 70.9384 23.7759 71.0717 23.7759C71.3625 22.9892 71.7748 22.234 72.3081 21.5103 72.8416 20.7854 73.4961 20.1344 74.2598 19.555 75.0355 18.9756 75.9204 18.5101 76.9266 18.1586 77.9448 17.8071 79.0963 17.6313 80.3813 17.6313 81.5328 17.6313 82.551 17.7549 83.424 18.0034L82.6117 22.0376C82.0785 21.8303 81.2905 21.7273 80.248 21.7273 78.6842 21.7273 77.3387 22.0267 76.2235 22.6267 75.0962 23.2268 74.1749 23.9928 73.4233 24.9238 72.684 25.8548 72.1384 26.8585 71.7748 27.9337 71.4232 29.0101 71.2535 30.0441 71.2535 31.0369L71.2535 47.4233 67.1564 47.4233 67.1564 27.4379Z" stroke="#000000" stroke-width="0.993996" stroke-linejoin="round" stroke-miterlimit="2"/><path d="M111.098 32.8988C111.098 31.2854 110.844 29.775 110.322 28.3689 109.813 26.9615 109.074 25.7408 108.116 24.7068 107.171 23.6716 106.019 22.8546 104.674 22.2546 103.328 21.6545 101.813 21.3551 100.116 21.3551 98.4187 21.3551 96.8914 21.6545 95.558 22.2546 94.2124 22.8546 93.073 23.6716 92.1395 24.7068 91.2062 25.7408 90.4789 26.9615 89.9697 28.3689 89.4485 29.775 89.194 31.2854 89.194 32.8988 89.194 34.5134 89.4485 36.0238 89.9697 37.43 90.4789 38.8373 91.2062 40.058 92.1395 41.092 93.073 42.1272 94.2124 42.9442 95.558 43.5443 96.8914 44.1443 98.4187 44.4437 100.116 44.4437 101.813 44.4437 103.328 44.1443 104.674 43.5443 106.019 42.9442 107.171 42.1272 108.116 41.092 109.074 40.058 109.813 38.8373 110.322 37.43 110.844 36.0238 111.098 34.5134 111.098 32.8988ZM115.571 32.8988C115.571 35.0929 115.183 37.1197 114.42 38.9816 113.656 40.8435 112.589 42.4581 111.219 43.8231 109.862 45.1892 108.237 46.2547 106.346 47.0196 104.468 47.7857 102.395 48.1676 100.116 48.1676 97.8853 48.1676 95.8247 47.7857 93.9336 47.0196 92.0548 46.2547 90.4303 45.1892 89.0605 43.8231 87.7029 42.4581 86.6361 40.8435 85.8726 38.9816 85.1089 37.1197 84.7209 35.0929 84.7209 32.8988 84.7209 30.706 85.1089 28.6792 85.8726 26.8173 86.6361 24.9553 87.7029 23.3407 89.0605 21.9758 90.4303 20.6096 92.0548 19.5441 93.9336 18.7792 95.8247 18.0131 97.8853 17.6313 100.116 17.6313 102.395 17.6313 104.468 18.0131 106.346 18.7792 108.237 19.5441 109.862 20.6096 111.219 21.9758 112.589 23.3407 113.656 24.9553 114.42 26.8173 115.183 28.6792 115.571 30.706 115.571 32.8988Z" stroke="#000000" stroke-width="0.993996" stroke-linejoin="round" stroke-miterlimit="2"/><path d="M123.947 0.500626 128.043 0.500626 128.043 47.4233 123.947 47.4233Z" stroke="#000000" stroke-width="0.993996" stroke-linejoin="round" stroke-miterlimit="2"/><path d="M162.798 32.8988C162.798 31.2854 162.544 29.775 162.022 28.3689 161.513 26.9615 160.774 25.7408 159.828 24.7068 158.871 23.6716 157.719 22.8546 156.374 22.2546 155.04 21.6545 153.513 21.3551 151.816 21.3551 150.119 21.3551 148.603 21.6545 147.258 22.2546 145.912 22.8546 144.773 23.6716 143.839 24.7068 142.906 25.7408 142.191 26.9615 141.67 28.3689 141.148 29.775 140.894 31.2854 140.894 32.8988 140.894 34.5134 141.148 36.0238 141.67 37.43 142.191 38.8373 142.906 40.058 143.839 41.092 144.773 42.1272 145.912 42.9442 147.258 43.5443 148.603 44.1443 150.119 44.4437 151.816 44.4437 153.513 44.4437 155.04 44.1443 156.374 43.5443 157.719 42.9442 158.871 42.1272 159.828 41.092 160.774 40.058 161.513 38.8373 162.022 37.43 162.544 36.0238 162.798 34.5134 162.798 32.8988ZM167.271 32.8988C167.271 35.0929 166.883 37.1197 166.12 38.9816 165.356 40.8435 164.289 42.4581 162.932 43.8231 161.562 45.1892 159.937 46.2547 158.058 47.0196 156.167 47.7857 154.095 48.1676 151.816 48.1676 149.585 48.1676 147.525 47.7857 145.646 47.0196 143.755 46.2547 142.13 45.1892 140.773 43.8231 139.403 42.4581 138.336 40.8435 137.572 38.9816 136.809 37.1197 136.421 35.0929 136.421 32.8988 136.421 30.706 136.809 28.6792 137.572 26.8173 138.336 24.9553 139.403 23.3407 140.773 21.9758 142.13 20.6096 143.755 19.5441 145.646 18.7792 147.525 18.0131 149.585 17.6313 151.816 17.6313 154.095 17.6313 156.167 18.0131 158.058 18.7792 159.937 19.5441 161.562 20.6096 162.932 21.9758 164.289 23.3407 165.356 24.9553 166.12 26.8173 166.883 28.6792 167.271 30.706 167.271 32.8988Z" stroke="#000000" stroke-width="0.993996" stroke-linejoin="round" stroke-miterlimit="2"/><path d="M178.629 18.3756C178.714 19.1623 178.763 19.9381 178.787 20.703 178.811 21.4691 178.811 22.2449 178.811 23.0304L178.944 23.0304C179.393 22.2449 179.975 21.52 180.678 20.8581 181.381 20.1963 182.169 19.6278 183.03 19.1514 183.902 18.6762 184.823 18.3028 185.793 18.0337 186.775 17.7658 187.733 17.6313 188.691 17.6313 192.412 17.6313 195.164 18.6131 196.933 20.5793 198.715 22.5443 199.612 25.3481 199.612 28.9895L199.612 47.4233 195.515 47.4233 195.515 31.3472C195.515 28.1204 194.958 25.6475 193.83 23.931 192.715 22.2133 190.654 21.3551 187.624 21.3551 187.418 21.3551 186.848 21.4375 185.89 21.6036 184.945 21.7685 183.939 22.2243 182.884 22.9686 181.829 23.7128 180.884 24.8305 180.06 26.3203 179.235 27.81 178.811 29.8792 178.811 32.5267L178.811 47.4233 174.714 47.4233 174.714 24.7686C174.714 23.9819 174.69 22.9892 174.629 21.7891 174.568 20.589 174.496 19.452 174.411 18.3756L178.629 18.3756Z" stroke="#000000" stroke-width="0.993996" stroke-linejoin="round" stroke-miterlimit="2"/><path d="M212.207 32.5267C212.207 34.0577 212.486 35.4953 213.043 36.8409 213.601 38.1852 214.365 39.3646 215.347 40.378 216.316 41.3926 217.456 42.1987 218.753 42.7988 220.062 43.3988 221.48 43.6994 223.008 43.6994 224.499 43.6994 225.917 43.4303 227.262 42.8921 228.608 42.3539 229.796 41.5987 230.826 40.6265 231.869 39.6543 232.657 38.4858 233.214 37.1197 233.772 35.7547 234.039 34.2237 233.99 32.5267 233.99 30.9957 233.748 29.558 233.251 28.2137 232.754 26.8682 232.026 25.6887 231.081 24.6753 230.123 23.6619 228.972 22.8546 227.602 22.2546 226.232 21.6545 224.705 21.3551 223.008 21.3551 221.48 21.3551 220.062 21.6545 218.753 22.2546 217.456 22.8546 216.316 23.6619 215.347 24.6753 214.365 25.6887 213.601 26.8682 213.043 28.2137 212.486 29.558 212.207 30.9957 212.207 32.5267ZM211.468 53.2575C212.668 54.871 214.219 56.1644 216.147 57.1366 218.074 58.1087 220.22 58.5948 222.571 58.5948 224.644 58.5948 226.402 58.2954 227.844 57.6954 229.299 57.0953 230.463 56.2783 231.359 55.2431 232.245 54.2091 232.887 52.9993 233.275 51.6126 233.675 50.2259 233.869 48.747 233.869 47.1748L233.869 41.9611 233.748 41.9611C232.414 43.9479 230.802 45.3541 228.899 46.182 226.996 47.0087 224.995 47.4233 222.886 47.4233 220.777 47.4233 218.801 47.0511 216.959 46.3056 215.116 45.5613 213.516 44.537 212.146 43.2339 210.777 41.9296 209.698 40.3683 208.922 38.5476 208.134 36.7269 207.734 34.7619 207.734 32.6515 207.734 30.5411 208.11 28.5749 208.861 26.7542 209.601 24.9335 210.631 23.3407 211.928 21.9758 213.225 20.6096 214.777 19.5441 216.583 18.7792 218.389 18.0131 220.365 17.6313 222.511 17.6313 223.383 17.6313 224.305 17.7137 225.274 17.8786 226.244 18.0446 227.214 18.3344 228.184 18.7477 229.166 19.1623 230.123 19.7308 231.081 20.4545 232.026 21.1794 232.923 22.0994 233.748 23.2171L233.869 23.2171 233.869 18.3756 237.966 18.3756 237.966 47.1748C237.966 48.747 237.772 50.4234 237.372 52.2017 236.984 53.9812 236.22 55.6165 235.081 57.105 233.942 58.5948 232.354 59.8361 230.329 60.8301 228.305 61.8229 225.65 62.3187 222.389 62.3187 219.492 62.3187 216.898 61.8435 214.631 60.8919 212.353 59.9403 210.28 58.4712 208.425 56.4844L211.468 53.2575Z" stroke="#000000" stroke-width="0.993996" stroke-linejoin="round" stroke-miterlimit="2"/><path d="M263.664 32.9619C262.622 32.9619 261.337 33.0128 259.786 33.117 258.234 33.22 256.743 33.4685 255.312 33.8613 253.882 34.2541 252.67 34.865 251.652 35.6929 250.633 36.5196 250.136 37.6579 250.136 39.1064 250.136 40.058 250.33 40.875 250.718 41.5575 251.118 42.24 251.64 42.7988 252.306 43.2339 252.961 43.6679 253.7 43.9782 254.5 44.1649 255.312 44.3504 256.137 44.4437 256.961 44.4437 258.452 44.4437 259.737 44.1952 260.84 43.6994 261.931 43.2024 262.852 42.5297 263.604 41.6823 264.343 40.8338 264.889 39.841 265.24 38.7028 265.592 37.5645 265.774 36.3548 265.774 35.0723L265.774 32.9619 263.664 32.9619ZM265.774 29.6101 265.774 28.8646C265.774 23.8583 263.289 21.3551 258.319 21.3551 254.937 21.3551 251.967 22.4934 249.445 24.7686L246.96 21.8509C249.7 19.0374 253.797 17.6313 259.252 17.6313 260.658 17.6313 262.016 17.8373 263.325 18.2519 264.622 18.6653 265.749 19.2968 266.707 20.1441 267.653 20.9927 268.416 22.0582 268.998 23.3407 269.58 24.6232 269.871 26.1542 269.871 27.9337L269.871 40.9065C269.871 42.023 269.919 43.1927 270.028 44.4134 270.125 45.6341 270.234 46.6366 270.368 47.4233L266.392 47.4233C266.271 46.7202 266.174 45.9541 266.113 45.1262 266.052 44.2995 266.016 43.4921 266.016 42.7054L265.895 42.7054C264.695 44.651 263.277 46.0474 261.64 46.896 260.004 47.7433 258.016 48.1676 255.652 48.1676 254.367 48.1676 253.131 47.9918 251.931 47.6403 250.73 47.2887 249.664 46.7505 248.73 46.0268 247.797 45.302 247.057 44.4134 246.5 43.3576 245.942 42.303 245.663 41.0714 245.663 39.6653 245.663 37.3063 246.27 35.4541 247.494 34.1098 248.718 32.7655 250.246 31.7618 252.088 31.0999 253.931 30.4369 255.894 30.0235 257.979 29.8586 260.076 29.6926 261.992 29.6101 263.725 29.6101L265.774 29.6101Z" stroke="#000000" stroke-width="0.993996" stroke-linejoin="round" stroke-miterlimit="2"/><path d="M294.381 22.0994 286.005 22.0994 286.005 39.2301C286.005 40.3065 286.114 41.1853 286.32 41.8678 286.526 42.5503 286.817 43.0788 287.181 43.4509 287.557 43.8231 288.005 44.0813 288.514 44.2267 289.036 44.371 289.605 44.4437 290.224 44.4437 290.927 44.4437 291.654 44.3407 292.393 44.1334 293.145 43.9261 293.824 43.6582 294.442 43.3261L294.636 47.1129C293.096 47.816 291.266 48.1676 289.108 48.1676 288.32 48.1676 287.508 48.0645 286.66 47.8572 285.811 47.6512 285.035 47.2572 284.332 46.6778 283.629 46.0996 283.047 45.3129 282.587 44.3201 282.138 43.3261 281.908 42.023 281.908 40.4095L281.908 22.0994 275.762 22.0994 275.762 18.3756 281.908 18.3756 281.908 10.1824 286.005 10.1824 286.005 18.3756 294.381 18.3756 294.381 22.0994Z" stroke="#000000" stroke-width="0.993996" stroke-linejoin="round" stroke-miterlimit="2"/><path d="M305.933 7.20403C305.933 8.07195 305.618 8.78593 305 9.34474 304.382 9.90356 303.691 10.1824 302.952 10.1824 302.2 10.1824 301.521 9.90356 300.903 9.34474 300.285 8.78593 299.97 8.07195 299.97 7.20403 299.97 6.33487 300.285 5.62091 300.903 5.06209 301.521 4.50325 302.2 4.22446 302.952 4.22446 303.691 4.22446 304.382 4.50325 305 5.06209 305.618 5.62091 305.933 6.33487 305.933 7.20403ZM305 47.4233 300.903 47.4233 300.903 18.3756 305 18.3756 305 47.4233Z" stroke="#000000" stroke-width="0.993996" stroke-linejoin="round" stroke-miterlimit="2"/><path d="M339.754 32.8988C339.754 31.2854 339.499 29.775 338.978 28.3689 338.457 26.9615 337.729 25.7408 336.772 24.7068 335.826 23.6716 334.675 22.8546 333.329 22.2546 331.983 21.6545 330.468 21.3551 328.771 21.3551 327.074 21.3551 325.559 21.6545 324.201 22.2546 322.868 22.8546 321.728 23.6716 320.795 24.7068 319.862 25.7408 319.134 26.9615 318.625 28.3689 318.104 29.775 317.849 31.2854 317.849 32.8988 317.849 34.5134 318.104 36.0238 318.625 37.43 319.134 38.8373 319.862 40.058 320.795 41.092 321.728 42.1272 322.868 42.9442 324.201 43.5443 325.559 44.1443 327.074 44.4437 328.771 44.4437 330.468 44.4437 331.983 44.1443 333.329 43.5443 334.675 42.9442 335.826 42.1272 336.772 41.092 337.729 40.058 338.457 38.8373 338.978 37.43 339.499 36.0238 339.754 34.5134 339.754 32.8988ZM344.227 32.8988C344.227 35.0929 343.839 37.1197 343.075 38.9816 342.311 40.8435 341.245 42.4581 339.875 43.8231 338.517 45.1892 336.893 46.2547 335.014 47.0196 333.123 47.7857 331.05 48.1676 328.771 48.1676 326.541 48.1676 324.48 47.7857 322.589 47.0196 320.71 46.2547 319.086 45.1892 317.728 43.8231 316.358 42.4581 315.292 40.8435 314.528 38.9816 313.764 37.1197 313.376 35.0929 313.376 32.8988 313.376 30.706 313.764 28.6792 314.528 26.8173 315.292 24.9553 316.358 23.3407 317.728 21.9758 319.086 20.6096 320.71 19.5441 322.589 18.7792 324.48 18.0131 326.541 17.6313 328.771 17.6313 331.05 17.6313 333.123 18.0131 335.014 18.7792 336.893 19.5441 338.517 20.6096 339.875 21.9758 341.245 23.3407 342.311 24.9553 343.075 26.8173 343.839 28.6792 344.227 30.706 344.227 32.8988Z" stroke="#000000" stroke-width="0.993996" stroke-linejoin="round" stroke-miterlimit="2"/><path d="M355.585 18.3756C355.67 19.1623 355.718 19.9381 355.742 20.703 355.755 21.4691 355.767 22.2449 355.767 23.0304L355.888 23.0304C356.348 22.2449 356.93 21.52 357.633 20.8581 358.336 20.1963 359.124 19.6278 359.985 19.1514 360.858 18.6762 361.779 18.3028 362.749 18.0337 363.719 17.7658 364.688 17.6313 365.634 17.6313 369.355 17.6313 372.107 18.6131 373.889 20.5793 375.671 22.5443 376.568 25.3481 376.568 28.9895L376.568 47.4233 372.471 47.4233 372.471 31.3472C372.471 28.1204 371.913 25.6475 370.786 23.931 369.671 22.2133 367.61 21.3551 364.579 21.3551 364.373 21.3551 363.791 21.4375 362.846 21.6036 361.888 21.7685 360.894 22.2243 359.84 22.9686 358.773 23.7128 357.84 24.8305 357.015 26.3203 356.179 27.81 355.767 29.8792 355.767 32.5267L355.767 47.4233 351.669 47.4233 351.669 24.7686C351.669 23.9819 351.645 22.9892 351.585 21.7891 351.512 20.589 351.439 19.452 351.366 18.3756L355.585 18.3756Z" stroke="#000000" stroke-width="0.993996" stroke-linejoin="round" stroke-miterlimit="2"/></g></svg>