<?xml version="1.0" encoding="UTF-8" standalone="no"?>
<!DOCTYPE svg PUBLIC "-//W3C//DTD SVG 1.1//EN" "http://www.w3.org/Graphics/SVG/1.1/DTD/svg11.dtd">
<svg width="100%" height="100%" viewBox="0 0 1129 1592" version="1.1" xmlns="http://www.w3.org/2000/svg" xmlns:xlink="http://www.w3.org/1999/xlink" xml:space="preserve" xmlns:serif="http://www.serif.com/" style="fill-rule:evenodd;clip-rule:evenodd;stroke-linecap:round;stroke-linejoin:round;stroke-miterlimit:1.5;">
    <path d="M403.124,1582.4l23.635,-56.388" style="fill:none;stroke:black;stroke-width:8.99px;"/>
    <path d="M426.759,1526.01l165.759,1.207" style="fill:none;stroke:black;stroke-width:8.99px;"/>
    <path d="M584.544,1583.68l19.239,-107.559" style="fill:none;stroke:black;stroke-width:8.99px;"/>
    <path d="M524.551,1477l79.232,-0.88" style="fill:none;stroke:black;stroke-width:8.99px;"/>
    <path d="M524.551,1477l-32.615,104.53" style="fill:none;stroke:black;stroke-width:8.99px;"/>
    <path d="M402.386,1582.66l181.683,0.075" style="fill:none;stroke:black;stroke-width:8.99px;"/>
    <path d="M551.621,1391.47l19.171,-63.404" style="fill:none;stroke:black;stroke-width:8.99px;"/>
    <path d="M570.792,1328.07l123.514,-1.609" style="fill:none;stroke:black;stroke-width:8.99px;"/>
    <path d="M694.306,1326.46l6.035,-49.888" style="fill:none;stroke:black;stroke-width:8.99px;"/>
    <path d="M700.341,1276.57l112.651,0.402" style="fill:none;stroke:black;stroke-width:8.99px;"/>
    <path d="M812.992,1276.97l13.277,116.675" style="fill:none;stroke:black;stroke-width:8.99px;"/>
    <path d="M826.269,1393.65l-68.396,-0.805" style="fill:none;stroke:black;stroke-width:8.99px;"/>
    <path d="M757.873,1392.84l-0.402,-63.97" style="fill:none;stroke:black;stroke-width:8.99px;"/>
    <path d="M757.471,1328.87l58.739,-0.402" style="fill:none;stroke:black;stroke-width:8.99px;"/>
    <path d="M760.044,1361.05l60.19,0.012" style="fill:none;stroke:black;stroke-width:8.99px;"/>
    <path d="M816.162,1300.61l58.386,-1.107" style="fill:none;stroke:black;stroke-width:8.99px;"/>
    <path d="M874.548,1299.5l6.035,28.163" style="fill:none;stroke:black;stroke-width:8.99px;"/>
    <path d="M880.583,1327.66l-59.947,-0.402" style="fill:none;stroke:black;stroke-width:8.99px;"/>
    <path d="M638.046,1301.63l178.969,-1.722" style="fill:none;stroke:black;stroke-width:8.99px;"/>
    <path d="M638.046,1301.63l-6.101,24.027" style="fill:none;stroke:black;stroke-width:8.99px;"/>
    <path d="M631.945,1325.65l-13.679,67.993" style="fill:none;stroke:black;stroke-width:8.99px;"/>
    <path d="M551.47,1392.75l66.796,0.893" style="fill:none;stroke:black;stroke-width:8.99px;"/>
    <path d="M897.186,1395.15l-7.752,-35.706" style="fill:none;stroke:black;stroke-width:8.99px;"/>
    <path d="M889.434,1359.45l63.165,-0.402" style="fill:none;stroke:black;stroke-width:8.99px;"/>
    <path d="M952.599,1359.05l40.232,113.455" style="fill:none;stroke:black;stroke-width:8.99px;"/>
    <path d="M952.599,1359.05l-10.058,-28.968" style="fill:none;stroke:black;stroke-width:8.99px;"/>
    <path d="M942.541,1330.08l62.36,-1.207" style="fill:none;stroke:black;stroke-width:8.99px;"/>
    <path d="M1004.9,1328.87l14.081,30.979" style="fill:none;stroke:black;stroke-width:8.99px;"/>
    <path d="M1018.98,1359.85l-66.383,0" style="fill:none;stroke:black;stroke-width:8.99px;"/>
    <path d="M897.723,1394.84l136.95,0.415" style="fill:none;stroke:black;stroke-width:8.99px;"/>
    <path d="M1034.67,1395.26l38.221,79.258" style="fill:none;stroke:black;stroke-width:8.99px;"/>
    <path d="M1072.89,1474.51l-156.504,2.414" style="fill:none;stroke:black;stroke-width:8.99px;"/>
    <path d="M916.39,1476.93l-8.852,-42.244" style="fill:none;stroke:black;stroke-width:8.99px;"/>
    <path d="M907.538,1434.68l142.021,-2.817" style="fill:none;stroke:black;stroke-width:8.99px;"/>
    <path d="M760.841,974.706l271.347,-0.646" style="fill:none;stroke:black;stroke-width:8.99px;"/>
    <path d="M407.892,325.373l122.216,-299.847" style="fill:none;stroke:black;stroke-width:8.99px;"/>
    <path d="M530.108,25.526l445.394,-2.667" style="fill:none;stroke:black;stroke-width:8.99px;"/>
    <path d="M975.502,22.859l147.576,304.93" style="fill:none;stroke:black;stroke-width:8.99px;"/>
    <path d="M1123.08,327.789l-715.186,-2.416" style="fill:none;stroke:black;stroke-width:8.99px;"/>
    <path d="M404.065,747.867l122.505,-307.039" style="fill:none;stroke:black;stroke-width:8.99px;"/>
    <path d="M753.896,440.177l8.683,305.075" style="fill:none;stroke:black;stroke-width:8.99px;"/>
    <path d="M481.328,556.681l550.213,0" style="fill:none;stroke:black;stroke-width:8.99px;"/>
    <path d="M526.57,440.828l452.843,-1.707" style="fill:none;stroke:black;stroke-width:8.99px;"/>
    <path d="M979.413,439.121l144.5,308.343" style="fill:none;stroke:black;stroke-width:8.99px;"/>
    <path d="M1123.91,747.464l-718.519,1.138" style="fill:none;stroke:black;stroke-width:8.99px;"/>
    <path d="M483.765,974.58l26.369,-65" style="fill:none;stroke:black;stroke-width:8.99px;"/>
    <path d="M510.134,909.58l494.015,1.514" style="fill:none;stroke:black;stroke-width:8.99px;"/>
    <path d="M1004.15,911.094l69.132,146.337" style="fill:none;stroke:black;stroke-width:8.99px;"/>
    <path d="M1073.28,1057.43l-155.925,1.009" style="fill:none;stroke:black;stroke-width:8.99px;"/>
    <path d="M917.356,1058.44l-50.315,-198.817" style="fill:none;stroke:black;stroke-width:8.99px;"/>
    <path d="M760.826,974.722l-3.981,-115.004" style="fill:none;stroke:black;stroke-width:8.99px;"/>
    <path d="M642.69,858.204l224.205,1.419" style="fill:none;stroke:black;stroke-width:8.99px;"/>
    <path d="M642.69,858.204l-24.064,115.462" style="fill:none;stroke:black;stroke-width:8.99px;"/>
    <path d="M618.626,973.666l-133.218,0.504" style="fill:none;stroke:black;stroke-width:8.99px;"/>
    <path d="M405.523,1162.22l42.722,-105.701" style="fill:none;stroke:black;stroke-width:8.99px;"/>
    <path d="M448.245,1056.52l313.339,2.725" style="fill:none;stroke:black;stroke-width:8.99px;"/>
    <path d="M761.584,1059.25l-0,104.628" style="fill:none;stroke:black;stroke-width:8.99px;"/>
    <path d="M761.584,1163.88l-354.351,-1.568" style="fill:none;stroke:black;stroke-width:8.99px;"/>
    <path d="M585.542,1162.27l19.1,-101.932" style="fill:none;stroke:black;stroke-width:8.99px;"/>
    <path d="M470.941,294.563c1.468,-1.734 3.66,-2.835 6.108,-2.835c4.415,-0 8,3.584 8,8c-0,3.658 -1.236,5.406 -2.067,6.368c-1.142,1.321 -3.194,3.581 -8.485,2.692c-4.354,-0.732 -7.295,-4.861 -6.563,-9.215c0.348,-2.071 1.464,-3.821 3.007,-5.01Z" style="fill:rgb(71,87,211);"/>
    <path d="M548.553,324.338c-3.68,2.439 -8.649,1.432 -11.088,-2.248c-2.44,-3.68 -1.432,-8.649 2.248,-11.088l0.239,-0.159c3.68,-2.439 8.649,-1.432 11.088,2.248c2.44,3.68 1.433,8.649 -2.247,11.088l-0.24,0.159Z" style="fill:rgb(71,87,211);"/>
    <path d="M552.251,261.655c-0.438,-3.965 2.15,-7.727 6.131,-8.658c4.299,-1.006 8.606,1.667 9.612,5.967c0.302,1.293 0.257,0.409 0.257,2.656c-0,4.415 -3.585,8 -8,8c-4.404,-0 -7.981,-3.566 -8,-7.965Zm-0,-0.035c-0,-0.482 0.018,-0.824 0.018,-0.824c-0,-0 -0.066,0.266 -0.018,0.824Zm0.04,0.342c0.027,0.191 0.067,0.407 0.124,0.647c-0.051,-0.216 -0.092,-0.431 -0.124,-0.647Z" style="fill:rgb(71,87,211);"/>
    <path d="M733.439,256.506c1.155,1.387 1.85,3.17 1.85,5.114c0,4.415 -3.585,8 -8,8c-3.036,-0 -4.216,-0.811 -4.804,-1.165c-0.807,-0.487 -3.074,-1.225 -3.918,-6.81c-0.66,-4.366 2.349,-8.446 6.714,-9.106c3.371,-0.51 6.571,1.167 8.158,3.967Z" style="fill:rgb(71,87,211);"/>
    <path d="M603.436,125.863c3.526,2.657 4.232,7.677 1.575,11.204c-2.657,3.526 -7.677,4.232 -11.204,1.575l-0.263,-0.199c-3.526,-2.657 -4.232,-7.677 -1.575,-11.203c2.657,-3.527 7.677,-4.232 11.204,-1.575l0.263,0.198Z" style="fill:rgb(71,87,211);"/>
    <path d="M611.399,90.917c2.308,1.404 3.851,3.944 3.851,6.84c0,-1.357 -0.359,-1.843 -0.374,-1.89c-0.412,-1.259 -0.967,-2.23 -1.594,-2.978c1.361,1.999 1.946,4.403 1.979,5.03c0.024,0.468 0.005,0.803 -0.008,0.988c-0.034,0.483 -9.61,7.163 -13.93,4.242c0.353,0.416 0.756,0.79 1.21,1.084c-0.654,-0.423 -1.225,-0.926 -1.709,-1.487c-0.346,-0.333 -0.646,-0.748 -0.887,-1.256c-1.434,-2.515 -1.45,-5.725 0.231,-8.32c2.4,-3.706 7.358,-4.766 11.064,-2.365c0.056,0.036 0.112,0.074 0.167,0.112Zm-12.104,7.956c-0.007,-0.079 -0.013,-0.159 -0.018,-0.241c0.002,0.04 0.004,0.08 0.006,0.121c0.001,0.034 0.006,0.074 0.012,0.12Z" style="fill:rgb(71,87,211);"/>
    <path d="M670.269,72.033c-4.402,-0.335 -7.705,-4.182 -7.37,-8.584c0.335,-4.403 4.182,-7.705 8.584,-7.37c0.348,0.026 0.165,0.016 0.55,0.016c4.415,0 8,3.585 8,8c-0,4.416 -3.585,8 -8,8c-1.234,0 -0.646,0.023 -1.764,-0.062Z" style="fill:rgb(71,87,211);"/>
    <path d="M736.576,46.342c-3.379,2.841 -8.43,2.404 -11.271,-0.975c-2.842,-3.38 -2.405,-8.431 0.975,-11.272l0.307,-0.258c3.379,-2.841 8.43,-2.404 11.271,0.975c2.842,3.38 2.405,8.431 -0.975,11.272l-0.307,0.258Z" style="fill:rgb(71,87,211);"/>
    <path d="M796.255,94.269c0.731,4.078 -1.799,8.098 -5.876,9.15c-4.275,1.104 -8.642,-1.471 -9.746,-5.746c-0.484,-1.876 -0.372,-0.845 -0.372,-3.091c0,-4.416 3.585,-8 8,-8c4.311,-0 7.83,3.416 7.994,7.687Z" style="fill:rgb(71,87,211);"/>
    <path d="M784.355,124.051c1.396,-1.186 3.203,-1.902 5.177,-1.902c4.415,-0 8,3.584 8,8c-0,5.277 -2.642,6.634 -3.323,7.125c-0.594,0.429 -2.402,2.178 -7.001,1.194c-4.317,-0.924 -7.073,-5.179 -6.149,-9.497c0.446,-2.083 1.667,-3.802 3.296,-4.92Z" style="fill:rgb(71,87,211);"/>
    <path d="M794.628,35.164c2.229,0.589 4.187,2.131 5.227,4.386c1.847,4.01 0.092,8.766 -3.918,10.614c-3.035,1.398 -4.833,0.933 -6.006,0.622c-1.527,-0.405 -4.541,-3.063 -4.541,-3.063c-0,0 0.231,0.276 0.39,0.435c-3.122,-3.122 -3.122,-8.192 0,-11.314c2.39,-2.39 5.923,-2.95 8.848,-1.68Zm-2.988,-0.211c-0.681,0.057 -1.472,0.252 -2.399,0.679c0.78,-0.359 1.589,-0.582 2.399,-0.679Z" style="fill:rgb(71,87,211);"/>
    <path d="M836.503,57.388c4.132,0.311 7.393,3.767 7.393,7.978c-0,4.415 -3.585,8 -8,8c-2.488,-0 -1.263,0.192 -3.677,-0.572c-4.209,-1.332 -6.545,-5.832 -5.212,-10.041c1.275,-4.028 5.45,-6.341 9.496,-5.365Z" style="fill:rgb(71,87,211);"/>
    <path d="M939.565,114.989c3.097,1.104 5.316,4.064 5.316,7.538c0,4.415 -3.585,8 -8,8c-1.945,0 -3.639,-0.736 -4.71,-1.347c-3.658,-1.518 -5.711,-5.556 -4.648,-9.48c1.155,-4.261 5.552,-6.784 9.814,-5.629c0.842,0.228 1.603,0.574 2.228,0.918Zm-8.215,13.673c-0.249,-0.174 -0.385,-0.287 -0.385,-0.287c0,0 0.14,0.12 0.385,0.287Z" style="fill:rgb(71,87,211);"/>
    <path d="M965.043,102.932c-0.368,-0.305 -0.714,-0.647 -1.032,-1.027c-6.689,-7.976 4.458,-13.196 4.857,-13.253c0.959,-0.136 2.92,-0.356 5.295,1.093c0.152,0.093 1.48,1.164 2.037,1.72c3.122,3.122 3.122,8.192 -0,11.314c-3.071,3.07 -8.024,3.121 -11.157,0.153Zm12.971,-7.584c-0.072,-0.839 -0.426,-2.153 -1.743,-3.724c0.929,1.108 1.506,2.395 1.743,3.724Z" style="fill:rgb(71,87,211);"/>
    <path d="M1011.17,170.02c-0.738,-0.653 -1.367,-1.453 -1.838,-2.386c-1.99,-3.941 -0.405,-8.757 3.536,-10.747c3.87,-1.953 6.145,-0.82 6.733,-0.61c1.574,0.562 2.879,1.52 3.894,2.982c0.415,0.599 1.403,5.404 1.403,5.404c0,-0 0.008,-0.126 0.008,-0.218c0,4.416 -3.585,8 -8,8c-2.249,0 -4.282,-0.929 -5.736,-2.425Z" style="fill:rgb(71,87,211);"/>
    <path d="M945.9,207.507c0.656,-0.527 1.385,-1.07 1.871,-1.303c1.3,-0.621 2.576,-0.854 3.718,-0.854c4.415,0 8,3.585 8,8c-0,4.416 -3.585,8 -8,8c1.2,0 4.606,-1.646 4.606,-1.646c0,0 -15.801,-0.527 -14.056,-7.221c0.574,-2.202 2.014,-3.951 3.861,-4.976Zm10.661,2.753c1.126,1.801 1.538,4.044 0.96,6.26c0.797,-3.054 -0.068,-5.038 -0.96,-6.26Z" style="fill:rgb(71,87,211);"/>
    <path d="M1031.19,206.786c2.668,1.298 4.509,4.035 4.509,7.199c0,4.416 -3.584,8 -8,8c0.224,0 0.717,-0.037 0.717,-0.037c-0,-0 -7.404,-2.494 -8.312,-4.18c-0.739,-1.374 -2.534,-4.523 0.779,-8.87c2.453,-3.22 6.881,-4.058 10.307,-2.112Zm3.838,8.821c-0.251,1.053 -0.721,2.073 -1.419,2.989c0.857,-1.124 1.247,-2.139 1.419,-2.989Z" style="fill:rgb(71,87,211);"/>
    <path d="M600.331,515.765c-0.976,-2.807 -0.343,-6.051 1.897,-8.292c3.122,-3.122 8.192,-3.122 11.314,0c-0.094,-0.094 -0.228,-0.203 -0.228,-0.203c-0,-0 3.255,7.681 2.815,8.999c-0.229,0.688 -0.725,2.984 -4.4,4.838c-3.942,1.988 -8.757,0.402 -10.745,-3.541c-0.295,-0.585 -0.512,-1.189 -0.653,-1.801Z" style="fill:rgb(71,87,211);"/>
    <path d="M606.548,542.473c2.822,3.395 2.357,8.444 -1.039,11.266c-3.396,2.822 -8.444,2.356 -11.266,-1.04l-0.132,-0.159c-2.822,-3.395 -2.356,-8.443 1.039,-11.265c3.396,-2.823 8.444,-2.357 11.266,1.039l0.132,0.159Z" style="fill:rgb(71,87,211);"/>
    <path d="M665.042,478.316c1.028,-3.233 4.055,-5.577 7.626,-5.577c4.415,-0 8,3.584 8,8c0,3.081 -0.881,4.405 -1.43,5.257c-0.136,0.212 -0.312,0.438 -0.504,0.662c-1.829,3.034 -5.535,4.586 -9.095,3.546c-4.238,-1.238 -6.674,-5.683 -5.436,-9.922c0.215,-0.737 0.512,-1.394 0.839,-1.966Zm13.207,8.872c-0.564,0.585 -1.103,1.05 -1.103,1.05c0,0 0.521,-0.357 1.103,-1.05Z" style="fill:rgb(71,87,211);"/>
    <path d="M728.225,459.594c0.146,-4.413 3.847,-7.877 8.26,-7.731c4.413,0.147 7.877,3.848 7.731,8.261c-0.04,1.199 -0.035,0.678 -0.035,1.561c-0,4.415 -3.585,8 -8,8c-4.415,-0 -8,-3.585 -8,-8c-0,-1.182 -0.01,-0.485 0.044,-2.091Z" style="fill:rgb(71,87,211);"/>
    <path d="M798.865,453.013c0.765,1.227 1.207,2.675 1.207,4.226c0,4.415 -3.585,8 -8,8c-2.996,0 -4.236,-0.828 -4.771,-1.149c-0.91,-0.546 -4.188,-1.778 -3.783,-8.429c0.268,-4.407 4.064,-7.767 8.471,-7.499c3.125,0.19 5.723,2.154 6.876,4.851Z" style="fill:rgb(71,87,211);"/>
    <path d="M841.381,477.038c1.769,4.045 -0.079,8.766 -4.125,10.535c-4.046,1.768 -8.766,-0.08 -10.535,-4.126l-0.061,-0.138c-1.768,-4.046 0.08,-8.767 4.126,-10.535c4.045,-1.769 8.766,0.079 10.534,4.125l0.061,0.139Z" style="fill:rgb(71,87,211);"/>
    <path d="M779.553,512.085c0.263,-3.439 2.748,-6.446 6.29,-7.211c4.316,-0.932 8.577,1.815 9.509,6.131c0.26,1.208 0.263,3.378 -0.072,5.116c-0.326,1.696 -0.964,3.041 -1.296,3.587c-2.792,4.584 -6.875,4.238 -9.139,3.581c-0.907,-0.264 -5.854,-1.469 -5.854,-8.253c0,-1.042 0.2,-2.037 0.562,-2.951Zm15.329,1.626c0.072,0.431 0.109,0.874 0.109,1.325c0,-0.491 -0.041,-0.931 -0.109,-1.325Zm-15.314,-0.254c0.017,0.357 0.092,0.686 0.144,0.925c-0.067,-0.309 -0.114,-0.618 -0.144,-0.925Z" style="fill:rgb(71,87,211);"/>
    <path d="M798.341,544.748c0.998,2.817 0.37,6.083 -1.882,8.336c-3.122,3.122 -8.192,3.122 -11.314,0c-1.641,-1.641 -2.103,-2.716 -2.386,-3.434c-0.482,-1.228 -0.871,-2.242 -0.214,-5.548c0.86,-4.33 5.074,-7.148 9.405,-6.288c3.495,0.694 6.004,3.572 6.391,6.934Zm-1.128,-2.108c-0.202,-0.275 -0.449,-0.565 -0.754,-0.87c0.275,0.276 0.527,0.567 0.754,0.87Z" style="fill:rgb(71,87,211);"/>
    <path d="M935.104,533.276c2.591,-0.587 5.418,0.128 7.434,2.143c3.122,3.122 3.122,8.192 -0,11.314c-0.531,0.531 -2.491,1.932 -4.159,2.522c-1.82,0.644 -3.504,0.609 -4.556,0.421c-3.5,-0.623 -5.52,-2.738 -6.396,-5.712c-0.374,-1.268 -0.977,-3.665 1.006,-6.885c1.482,-2.407 4.038,-3.754 6.671,-3.803Zm8.136,7.737c0.051,1.518 -0.328,3.067 -1.184,4.456c1.071,-1.739 1.306,-3.232 1.184,-4.456Z" style="fill:rgb(71,87,211);"/>
    <path d="M962.688,515.145c0.465,-4.39 4.408,-7.577 8.799,-7.112c4.39,0.465 7.577,4.408 7.112,8.798c-0.058,0.546 -0.056,0.297 -0.056,0.745c-0,4.416 -3.585,8 -8,8c-4.416,0 -8,-3.584 -8,-8c-0,-1.461 -0.043,-0.65 0.145,-2.431Z" style="fill:rgb(71,87,211);"/>
    <path d="M952.17,629.656c2.813,1.241 4.778,4.055 4.778,7.324c0,4.415 -3.584,8 -8,8c-2.709,0 -3.512,-0.511 -4.028,-0.754c-0.723,-0.34 -1.984,-0.612 -3.78,-3.662c-2.241,-3.804 -0.972,-8.712 2.832,-10.953c2.62,-1.543 5.763,-1.422 8.198,0.045Z" style="fill:rgb(71,87,211);"/>
    <path d="M1035.59,628.199c-0.655,3.758 -3.936,6.619 -7.881,6.619c-4.415,0 -8,-3.585 -8,-8c0,0.453 0.087,0.939 0.087,0.939c-0,0 0.595,-5.03 1.031,-5.744c1.105,-1.808 2.672,-3.064 4.974,-3.615c0.567,-0.136 1.96,-0.57 4.392,0.179c4.094,1.261 6.447,5.516 5.397,9.622Zm-7.433,6.019c-0.882,0.035 -1.784,-0.076 -2.674,-0.35c1.123,0.346 2.006,0.399 2.674,0.35Z" style="fill:rgb(71,87,211);"/>
    <path d="M1022.69,585.854c-0.965,3.335 -4.043,5.775 -7.686,5.775c-4.416,0 -8,-3.584 -8,-8c-0,0.24 0.05,0.799 0.05,0.799c-0,0 0.967,-6.203 2.066,-7.38c1.147,-1.227 2.598,-2.101 4.473,-2.447c1.187,-0.218 3.136,-0.452 5.726,1.007c3.632,2.047 5.05,6.516 3.371,10.246Zm-9.195,4.497c-0.695,-0.17 -1.378,-0.436 -2.032,-0.804c0.737,0.415 1.415,0.664 2.032,0.804Z" style="fill:rgb(71,87,211);"/>
    <path d="M736.552,680.522c-0.186,4.252 -3.696,7.647 -7.993,7.647c-4.415,-0 -8,-3.585 -8,-8c0,0.286 0.062,0.543 0.062,0.543c-0,-0 0.248,-4.69 1.14,-6.071c0.278,-0.432 0.704,-1.095 1.935,-2.1c3.421,-2.791 8.465,-2.28 11.256,1.141c1.621,1.986 2.128,4.519 1.6,6.84Zm-1.073,2.554c-0.443,0.687 -1,1.318 -1.668,1.862c0.872,-0.711 1.366,-1.332 1.668,-1.862Z" style="fill:rgb(71,87,211);"/>
    <path d="M567.185,673.004c1.588,2.306 1.918,5.38 0.598,8.07c-3.301,6.724 -9.081,4.961 -9.719,4.781c-1.915,-0.543 -4.152,-1.754 -5.332,-4.928c-0.119,-0.321 -0.481,-1.784 -0.481,-3.934c-0,-4.415 3.584,-8 8,-8c2.963,0 5.552,1.614 6.934,4.011Zm-13.507,0.535c-0.088,0.152 -0.174,0.313 -0.258,0.485c0.081,-0.166 0.167,-0.328 0.258,-0.485Z" style="fill:rgb(71,87,211);"/>
    <path d="M536.401,731.596c0.6,-3.576 3.594,-6.408 7.367,-6.655c4.406,-0.289 8.218,3.054 8.507,7.46c-0.006,-0.092 -0.027,-0.27 -0.027,-0.27c-0,-0 -0.324,5.625 -1.407,7.126c-1.204,1.667 -3.099,3.533 -7.104,3.533c-4.415,-0 -8,-3.585 -8,-8c0,-1.136 0.237,-2.216 0.664,-3.194Zm5.091,-4.486c0.713,-0.209 1.466,-0.32 2.245,-0.32c-0.866,-0 -1.606,0.12 -2.245,0.32Z" style="fill:rgb(71,87,211);"/>
    <path d="M469.126,720.66c-1.358,-3.257 -0.431,-7.147 2.492,-9.407c3.493,-2.701 8.521,-2.058 11.222,1.435c1.392,1.799 2.658,5.179 2.617,6.771c-0.054,2.08 -0.798,3.798 -1.993,5.187c-1.194,1.391 -3.06,2.901 -6.415,2.901c-4.038,-0 -7.381,-2.998 -7.923,-6.887Zm3.831,-7.988c1.198,-0.715 2.597,-1.125 4.092,-1.125c-1.774,-0 -3.089,0.462 -4.092,1.125Z" style="fill:rgb(71,87,211);"/>
    <path d="M598.633,937.171c-1.59,-3.701 -0.169,-8.089 3.417,-10.116c3.844,-2.172 8.729,-0.816 10.901,3.028c2.098,3.711 1.519,1.913 1.519,5.475c-0,4.416 -3.585,8 -8,8c-3.863,0 -7.09,-2.744 -7.837,-6.387Z" style="fill:rgb(71,87,211);"/>
    <path d="M604.715,960.232c1.61,1.954 2.27,4.639 1.533,7.259c-0.775,2.755 -1.817,3.728 -2.07,4.004c-1.787,1.949 -3.685,2.418 -5.095,2.563c-2.136,0.219 -4.126,-0.315 -5.91,-1.783c-0.89,-0.732 -2.207,-2.056 -2.744,-4.484c-0.088,-0.397 -0.165,-1.936 -0.165,-2.829c0,-4.416 3.585,-8 8,-8c2.647,-0 4.994,1.287 6.451,3.27Zm-13.63,2.208c-0.086,0.221 -0.166,0.459 -0.239,0.719c0.069,-0.246 0.149,-0.486 0.239,-0.719Z" style="fill:rgb(71,87,211);"/>
    <path d="M675.281,890.153c0.527,0.063 1.055,0.179 1.578,0.352c4.192,1.389 6.467,5.92 5.078,10.111c-1.155,3.485 -3.759,5.325 -4.805,5.807c-1.244,0.573 -2.469,0.776 -3.635,0.742c-1.544,-0.045 -3.046,-0.493 -4.456,-1.496c-0.819,-0.582 -3.559,-2.412 -3.559,-7.719c-0,-4.416 3.585,-8 8,-8c0.618,-0 1.221,0.07 1.799,0.203Z" style="fill:rgb(71,87,211);"/>
    <path d="M724.304,874.161c1.253,-2.785 4.052,-4.725 7.301,-4.725c4.415,-0 8,3.584 8,8c-0,2.083 -0.563,4.766 -1.479,6.333c-1.515,2.593 -3.792,4.015 -6.557,4.341c-1.552,0.183 -3.532,0.063 -5.823,-1.303c-3.793,-2.261 -5.036,-7.176 -2.774,-10.968c0.376,-0.632 0.826,-1.193 1.332,-1.678Zm7.155,-2.062c0.853,0.176 1.691,0.495 2.481,0.966c-0.888,-0.53 -1.714,-0.831 -2.481,-0.966Z" style="fill:rgb(71,87,211);"/>
    <path d="M783.953,870.3c0.767,-3.617 3.981,-6.335 7.826,-6.335c4.415,0 8,3.585 8,8c-0,-0.077 -0.007,-0.217 -0.007,-0.217c0,-0 -0.337,4.269 -1.339,5.819c-0.701,1.085 -1.728,2.276 -3.733,3.237c-3.982,1.908 -8.763,0.224 -10.671,-3.758c-1.06,-2.212 -1.011,-4.67 -0.076,-6.746Zm3.153,-3.558c0.219,-0.132 0.446,-0.255 0.681,-0.367c-0.245,0.117 -0.472,0.24 -0.681,0.367Z" style="fill:rgb(71,87,211);"/>
    <path d="M827.261,891.335c1.054,-3.186 4.059,-5.488 7.597,-5.488c4.415,-0 8,3.584 8,8c-0,2.548 -0.604,4.347 -1.539,5.894c-0.867,1.435 -2.098,2.755 -4.182,3.977c-3.809,2.234 -8.715,0.955 -10.948,-2.854c-1.838,-3.133 -1.298,-7.009 1.072,-9.529Z" style="fill:rgb(71,87,211);"/>
    <path d="M783.953,922.551c1.384,-1.144 3.157,-1.831 5.09,-1.831c4.416,0 8,3.585 8,8c0,4.09 -1.502,5.419 -2.026,6.009c-0.684,0.773 -1.495,1.405 -2.475,1.888c-0.449,0.22 -1.558,0.787 -4.463,0.787c-4.415,0 -8,-3.584 -8,-8c0,-2.906 1.553,-5.452 3.874,-6.853Z" style="fill:rgb(71,87,211);"/>
    <path d="M789.128,957.682c4.055,0.387 7.232,3.807 7.232,7.963c-0,4.416 -3.585,8 -8,8c-9.466,0 -25.112,-12.788 -1.432,-15.971c0.749,-0.101 1.487,-0.094 2.2,0.008Zm2.484,15.057c-0.779,0.396 -1.638,0.669 -2.553,0.792c1.232,-0.165 2.04,-0.499 2.553,-0.792Z" style="fill:rgb(71,87,211);"/>
    <path d="M931.631,952.063c0.268,-0.351 0.553,-0.694 0.823,-0.964c3.122,-3.122 8.192,-3.122 11.314,0c3.122,3.122 3.122,8.192 -0,11.314c0.242,-0.242 0.577,-0.709 0.577,-0.709c0,0 -3.97,5.206 -8.599,5.079c-4.414,-0.121 -7.899,-3.803 -7.778,-8.217c0.076,-2.738 1.522,-5.119 3.663,-6.503Z" style="fill:rgb(71,87,211);"/>
    <path d="M968.599,940.115c-4.413,-0.129 -7.892,-3.817 -7.763,-8.23c0.128,-4.413 3.816,-7.892 8.229,-7.764c0.803,0.024 0.409,0.018 1.184,0.018c4.416,0 8,3.585 8,8c0,4.416 -3.584,8 -8,8c-1.081,0 -0.531,0.008 -1.65,-0.024Z" style="fill:rgb(71,87,211);"/>
    <path d="M1013.8,991.885c0.549,-0.11 1.119,-0.164 1.701,-0.156c4.415,0.066 7.946,3.703 7.881,8.118c-0.045,2.98 -1.142,4.218 -1.595,4.826c-0.839,1.129 -1.867,1.947 -3.113,2.515c-0.916,0.417 -5.222,0.502 -5.222,0.502c0,-0 0.578,0.145 1.245,0.145c-4.415,0 -8,-3.584 -8,-8c0,-4.112 3.109,-7.504 7.103,-7.95Zm-5.887,4.974c-0.268,0.623 -0.511,1.5 -0.53,2.751c0.015,-0.969 0.201,-1.896 0.53,-2.751Z" style="fill:rgb(71,87,211);"/>
    <path d="M1036.4,1040.34c1.256,1.413 2.019,3.274 2.019,5.312c0,4.415 -3.584,8 -8,8c-3.98,-0 -5.551,-1.659 -6.549,-2.748c-1.07,-1.167 -2.181,-5.04 -2.181,-5.04c0,0 0.15,0.945 0.408,1.568c-1.69,-4.079 0.249,-8.763 4.328,-10.453c3.742,-1.551 7.993,-0.047 9.975,3.361Zm-2.915,-2.079c-0.762,-0.361 -1.749,-0.609 -3.066,-0.609c1.086,-0 2.122,0.216 3.066,0.609Z" style="fill:rgb(71,87,211);"/>
    <path d="M952.526,1054.54c-3.67,2.454 -8.643,1.466 -11.097,-2.205c-2.453,-3.67 -1.466,-8.643 2.205,-11.097l0.288,-0.192c3.67,-2.454 8.643,-1.466 11.097,2.205c2.453,3.671 1.466,8.643 -2.205,11.097l-0.288,0.192Z" style="fill:rgb(71,87,211);"/>
    <path d="M477.119,1128.89c0.689,-0.193 1.415,-0.297 2.165,-0.297c4.415,0 8,3.585 8,8c-0,7.377 -6.54,9.537 -10.707,8.57c-2.407,-0.559 -4.248,-2.047 -5.34,-3.881c-1.16,-1.949 -1.822,-4.517 -0.461,-7.645c1.167,-2.684 3.634,-4.405 6.343,-4.747Zm8.755,9.879c-0.106,0.422 -0.248,0.84 -0.427,1.251c0.187,-0.428 0.326,-0.845 0.427,-1.251Zm-13.193,-6.691c-0.857,1.093 -1.397,2.575 -1.397,4.515c-0,-1.674 0.516,-3.23 1.397,-4.515Z" style="fill:rgb(71,87,211);"/>
    <path d="M531.057,1145.72c0.648,-4.368 4.719,-7.388 9.087,-6.74c4.367,0.647 7.388,4.719 6.74,9.086c-0.112,0.756 -0.11,1.445 -0.11,2.203c0,4.416 -3.585,8 -8,8c-4.415,0 -8,-3.584 -8,-8c0,-1.568 0.051,-2.987 0.283,-4.549Z" style="fill:rgb(71,87,211);"/>
    <path d="M554.284,1090.2c1.81,-2.01 4.595,-3.054 7.444,-2.513c4.338,0.824 7.191,5.014 6.367,9.352c-0.469,2.467 -1.388,4.694 -2.133,5.584c-1.672,1.996 -3.797,3.005 -6.459,2.976c-1.278,-0.015 -3.72,-0.171 -6.556,-3.007c-3.122,-3.122 -3.122,-8.192 0,-11.314c0.415,-0.414 0.863,-0.773 1.337,-1.078Z" style="fill:rgb(71,87,211);"/>
    <path d="M718.168,1095.49c-1.149,-4.163 1.227,-8.514 5.383,-9.779c4.224,-1.285 8.697,1.1 9.983,5.324c0.696,2.286 0.6,4.883 0.6,7.266c0,4.415 -3.585,8 -8,8c-4.415,-0 -8,-3.585 -8,-8c0,-0.847 0.029,-2.533 0.034,-2.811Z" style="fill:rgb(71,87,211);"/>
    <path d="M467.58,1551.51c0.198,-4.411 3.94,-7.831 8.351,-7.633c4.411,0.198 7.831,3.94 7.633,8.351c-0.013,0.281 -0.006,0.12 -0.006,0.483c-0,4.415 -3.585,8 -8,8c-4.416,0 -8,-3.585 -8,-8c-0,-0.903 -0.009,-0.502 0.022,-1.201Z" style="fill:rgb(71,87,211);"/>
    <path d="M538.446,1560.93c1.457,-1.528 3.513,-2.48 5.789,-2.48c4.415,-0 8,3.584 8,8c-0,5.296 -4.798,9.504 -9.998,8.944c-4.39,-0.473 -7.571,-4.42 -7.098,-8.81c0.254,-2.362 1.514,-4.373 3.307,-5.654Z" style="fill:rgb(71,87,211);"/>
    <path d="M559.096,1504.46c1.953,-0.664 4.161,-0.577 6.15,0.418c3.949,1.974 5.552,6.784 3.578,10.733c-1.928,3.854 -4.496,4.59 -5.038,4.773c-3.543,1.199 -6.647,0.512 -9.113,-2.946c-0.341,-0.478 -1.456,-2.029 -1.54,-5.015c-0.106,-3.79 2.446,-7.041 5.963,-7.963Z" style="fill:rgb(71,87,211);"/>
    <path d="M607.704,1383.72c-0.028,4.39 -3.602,7.946 -7.999,7.946c-4.416,0 -8,-3.585 -8,-8c-0,-10.812 12.976,-12.616 15.735,-3.104c0.307,1.058 0.386,2.128 0.264,3.158Zm-13.884,4.435c-0.788,-0.872 -1.397,-1.931 -1.746,-3.135c0.466,1.607 1.172,2.563 1.746,3.135Z" style="fill:rgb(71,87,211);"/>
    <path d="M614.268,1346.29c1.484,2.993 0.981,6.724 -1.511,9.215c-3.122,3.122 -8.191,3.122 -11.313,-0c0.215,0.215 0.585,0.514 0.585,0.514c-0,-0 -3.357,-4.083 -3.406,-6.51c-0.019,-0.92 0.029,-2.247 0.969,-4.116c1.985,-3.944 6.798,-5.534 10.743,-3.55c1.907,0.96 3.264,2.582 3.933,4.447Zm0.336,4.169c-0.135,0.722 -0.373,1.438 -0.719,2.127c0.403,-0.803 0.618,-1.508 0.719,-2.127Z" style="fill:rgb(71,87,211);"/>
    <path d="M668.857,1318.83c-2.32,-1.616 -3.711,-4.415 -3.389,-7.422c0.471,-4.39 4.418,-7.572 8.808,-7.101c-0.136,-0.015 -0.302,-0.018 -0.302,-0.018c0,-0 4.539,1.224 5.353,1.91c0.978,0.824 1.753,1.834 2.286,3.154c0.182,0.452 0.58,1.385 0.58,3.519c-0,4.415 -3.585,8 -8,8c-2.05,0 -3.92,-0.772 -5.336,-2.042Z" style="fill:rgb(71,87,211);"/>
    <path d="M723.841,1293.72c-1.802,-4.031 0.008,-8.767 4.038,-10.569c4.031,-1.801 8.767,0.008 10.569,4.039l0.103,0.232c1.802,4.03 -0.008,8.766 -4.039,10.568c-4.031,1.801 -8.766,-0.008 -10.568,-4.039l-0.103,-0.231Z" style="fill:rgb(71,87,211);"/>
    <path d="M790.084,1298.7c-4.396,0.405 -8.295,-2.835 -8.7,-7.232c-0.406,-4.397 2.835,-8.295 7.231,-8.701c1.204,-0.111 0.604,-0.083 1.8,-0.083c4.416,0 8,3.585 8,8c0,4.415 -3.584,8 -8,8c-0.22,0 -0.109,-0.005 -0.331,0.016Z" style="fill:rgb(71,87,211);"/>
    <path d="M790.855,1340.07c2.604,1.32 4.391,4.023 4.391,7.141c-0,4.415 -3.585,8 -8,8c0.144,-0 0.329,-0.013 0.329,-0.013c0,-0 -3.547,-0.398 -4.328,-0.776c-0.825,-0.4 -2.497,-0.718 -4.084,-4.543c-1.691,-4.079 0.247,-8.763 4.325,-10.454c2.505,-1.039 5.239,-0.709 7.367,0.645Z" style="fill:rgb(71,87,211);"/>
    <path d="M785.476,1386.43c-3.726,-2.065 -5.196,-6.727 -3.273,-10.573c1.975,-3.949 6.784,-5.552 10.733,-3.578c-0.394,-0.197 -0.995,-0.376 -0.995,-0.376c-0,0 4.067,2.072 4.888,3.198c0.975,1.336 2.087,3.223 1.394,6.613c-0.885,4.326 -5.115,7.12 -9.44,6.236c-1.247,-0.255 -2.366,-0.788 -3.307,-1.52Zm-3.046,-5.452c-0.087,-0.804 -0.054,-1.634 0.117,-2.469c-0.196,0.959 -0.207,1.772 -0.117,2.469Z" style="fill:rgb(71,87,211);"/>
    <path d="M840.147,1309.57c1.623,1.465 2.644,3.584 2.644,5.94c0,4.416 -3.585,8 -8,8c-3.601,0 -6.193,-1.849 -7.512,-3.785c-1.243,-1.824 -2.303,-4.426 -0.794,-8.156c1.656,-4.093 6.323,-6.071 10.417,-4.416c1.318,0.534 2.417,1.379 3.245,2.417Zm1.755,5.078c-0.008,0.975 -0.197,1.964 -0.584,2.922c0.438,-1.085 0.602,-2.054 0.584,-2.922Z" style="fill:rgb(71,87,211);"/>
    <path d="M928.214,1374.83c-0.293,-4.405 3.046,-8.22 7.452,-8.513c4.405,-0.293 8.22,3.046 8.513,7.452c0.043,0.656 0.043,1.309 0.043,1.967c-0,4.415 -3.585,8 -8,8c-4.416,-0 -8,-3.585 -8,-8c-0,-0.303 0.012,-0.604 -0.008,-0.906Z" style="fill:rgb(71,87,211);"/>
    <path d="M960.311,1345.79c0.156,-3.82 3.045,-7.09 6.963,-7.599c4.379,-0.57 8.395,2.523 8.965,6.902c-0.014,-0.103 -0.054,-0.333 -0.054,-0.333c-0,0 0.41,4.181 -0.058,5.619c-0.541,1.66 -1.498,3.014 -2.833,4.062c-1.242,0.975 -2.92,1.829 -5.375,1.829c-4.416,0 -8,-3.585 -8,-8c-0,-0.865 0.138,-1.699 0.392,-2.48Zm5.789,-5.312c0.584,-0.136 1.193,-0.208 1.819,-0.208c-0.672,0 -1.275,0.076 -1.819,0.208Z" style="fill:rgb(71,87,211);"/>
    <path d="M1018.31,1414.84c1.234,1.408 1.983,3.252 1.983,5.27c-0,4.415 -3.585,8 -8,8c-5.364,-0 -6.579,-2.683 -7.114,-3.455c-0.597,-0.862 -1.29,-6.145 -1.29,-6.145c-0,-0 -0.024,0.147 -0.034,0.259c0.412,-4.396 4.315,-7.631 8.711,-7.219c2.392,0.224 4.44,1.482 5.744,3.29Z" style="fill:rgb(71,87,211);"/>
    <path d="M945.746,1468.86c-0.245,-0.283 -0.473,-0.587 -0.682,-0.911c-2.392,-3.711 -1.321,-8.666 2.391,-11.058c3.348,-2.158 5.714,-1.381 6.87,-1.036c2.749,0.82 5.708,8.838 5.708,8.838c-0,0 0.037,-0.501 0.037,-0.731c0,4.416 -3.584,8 -8,8c-2.571,0 -4.86,-1.215 -6.324,-3.102Zm5.965,2.755c1.144,0.087 2.63,-0.127 4.411,-1.275c-1.365,0.88 -2.899,1.291 -4.411,1.275Z" style="fill:rgb(71,87,211);"/>
    <path d="M1021.45,1458.34c1.283,-2.686 4.021,-4.547 7.195,-4.559c4.415,-0.016 8.012,3.556 8.028,7.972c0.01,2.643 -1.334,5.677 -3.104,7.321c-1.701,1.58 -3.76,2.358 -5.95,2.358c-4.415,0 -8,-3.585 -8,-8c-0,-1.934 0.687,-3.708 1.831,-5.092Z" style="fill:rgb(71,87,211);"/>
    <path d="M262.586,13.91l-0,1559.36" style="fill:none;stroke:rgb(71,87,211);stroke-width:8.99px;"/>
    <path d="M262.586,1573.27l-55.7,-55.701" style="fill:none;stroke:rgb(71,87,211);stroke-width:8.99px;"/>
    <path d="M262.586,1573.27l54.921,-54.922" style="fill:none;stroke:rgb(71,87,211);stroke-width:8.99px;"/>
    <path d="M133.779,1524.05l-0,12.236l-40.243,-0l0,0.272c3.354,2.175 6.005,5.302 7.954,9.38c1.948,4.079 2.923,8.43 2.923,13.052c-0,4.985 -0.861,9.494 -2.583,13.527c-1.722,4.034 -4.102,7.478 -7.138,10.333c-3.036,2.855 -6.616,5.053 -10.74,6.594c-4.124,1.541 -8.588,2.311 -13.392,2.311c-4.713,-0 -9.131,-0.77 -13.255,-2.311c-4.124,-1.541 -7.727,-3.739 -10.809,-6.594c-3.081,-2.855 -5.483,-6.299 -7.205,-10.333c-1.722,-4.033 -2.583,-8.542 -2.583,-13.527c-0,-4.351 0.951,-8.588 2.855,-12.712c1.903,-4.124 4.577,-7.364 8.021,-9.72l-0,-0.272l-9.245,-0l0,-12.236l95.44,-0Zm-85.651,33.445c-0,3.262 0.566,6.208 1.699,8.837c1.133,2.628 2.674,4.849 4.623,6.661c1.948,1.813 4.305,3.218 7.069,4.215c2.765,0.997 5.778,1.495 9.041,1.495c3.263,0 6.277,-0.498 9.041,-1.495c2.765,-0.997 5.121,-2.402 7.07,-4.215c1.948,-1.812 3.489,-4.033 4.622,-6.661c1.133,-2.629 1.7,-5.575 1.7,-8.837c-0,-3.263 -0.567,-6.209 -1.7,-8.837c-1.133,-2.629 -2.674,-4.85 -4.622,-6.662c-1.949,-1.813 -4.305,-3.218 -7.07,-4.215c-2.764,-0.997 -5.778,-1.495 -9.041,-1.495c-3.263,-0 -6.276,0.498 -9.041,1.495c-2.764,0.997 -5.121,2.402 -7.069,4.215c-1.949,1.812 -3.49,4.033 -4.623,6.662c-1.133,2.628 -1.699,5.574 -1.699,8.837Z" style="fill-rule:nonzero;"/>
    <path d="M102.781,1448.45l0,12.236l-9.924,0l-0,0.272c3.444,1.541 6.231,4.215 8.361,8.021c2.13,3.807 3.195,8.203 3.195,13.188c-0,3.172 -0.476,6.163 -1.428,8.973c-0.951,2.81 -2.424,5.279 -4.418,7.409c-1.994,2.13 -4.555,3.83 -7.682,5.099c-3.127,1.269 -6.82,1.903 -11.08,1.903l-41.466,0l0,-12.236l38.067,0c2.991,0 5.552,-0.408 7.682,-1.223c2.13,-0.816 3.852,-1.904 5.166,-3.263c1.314,-1.36 2.266,-2.923 2.855,-4.691c0.589,-1.767 0.884,-3.603 0.884,-5.506c-0,-2.538 -0.408,-4.894 -1.224,-7.069c-0.816,-2.176 -2.107,-4.079 -3.875,-5.711c-1.767,-1.631 -4.01,-2.9 -6.729,-3.806c-2.719,-0.907 -5.937,-1.36 -9.653,-1.36l-33.173,0l0,-12.236l64.442,0Z" style="fill-rule:nonzero;"/>
    <path d="M46.224,1429.69c-3.172,-3.445 -5.551,-7.433 -7.137,-11.964c-1.586,-4.532 -2.379,-9.064 -2.379,-13.596c-0,-4.713 0.589,-8.769 1.767,-12.168c1.178,-3.398 2.764,-6.186 4.758,-8.361c1.994,-2.175 4.283,-3.784 6.866,-4.826c2.583,-1.043 5.28,-1.564 8.089,-1.564l32.901,0c2.266,0 4.351,-0.045 6.254,-0.136c1.904,-0.09 3.716,-0.226 5.438,-0.407l0,10.876c-3.263,0.272 -6.525,0.408 -9.788,0.408l-0,0.272c4.169,2.719 7.115,5.936 8.837,9.652c1.722,3.716 2.583,8.022 2.583,12.916c-0,2.991 -0.408,5.846 -1.224,8.565c-0.816,2.719 -2.039,5.098 -3.671,7.138c-1.631,2.039 -3.648,3.648 -6.05,4.826c-2.401,1.178 -5.188,1.767 -8.361,1.767c-4.169,0 -7.658,-0.929 -10.468,-2.787c-2.81,-1.858 -5.098,-4.395 -6.866,-7.613c-1.767,-3.218 -3.036,-6.979 -3.807,-11.284c-0.77,-4.305 -1.155,-8.905 -1.155,-13.8l-0,-8.973l-2.719,0c-1.632,0 -3.263,0.318 -4.895,0.952c-1.631,0.635 -3.104,1.586 -4.418,2.855c-1.314,1.269 -2.357,2.855 -3.127,4.759c-0.77,1.903 -1.156,4.169 -1.156,6.797c0,2.357 0.227,4.419 0.68,6.186c0.453,1.768 1.02,3.376 1.7,4.827c0.679,1.45 1.472,2.764 2.379,3.942c0.906,1.179 1.767,2.311 2.583,3.399l-7.614,7.342Zm25.56,-34.533c-0,2.901 0.158,5.869 0.476,8.905c0.317,3.037 0.929,5.801 1.835,8.293c0.906,2.493 2.175,4.532 3.807,6.118c1.631,1.587 3.716,2.38 6.254,2.38c3.716,-0 6.389,-1.247 8.021,-3.739c1.631,-2.493 2.447,-5.869 2.447,-10.129c0,-3.353 -0.566,-6.208 -1.699,-8.565c-1.133,-2.356 -2.606,-4.26 -4.419,-5.71c-1.813,-1.45 -3.829,-2.492 -6.05,-3.127c-2.22,-0.634 -4.418,-0.952 -6.594,-0.952l-4.078,0l-0,6.526Z" style="fill-rule:nonzero;"/>
    <path d="M102.781,1294.83l0,12.236l-9.245,0l0,0.272c3.445,2.356 6.118,5.597 8.022,9.721c1.903,4.124 2.855,8.361 2.855,12.711c-0,4.985 -0.861,9.494 -2.583,13.528c-1.722,4.033 -4.124,7.477 -7.206,10.332c-3.082,2.855 -6.662,5.053 -10.74,6.594c-4.079,1.541 -8.52,2.311 -13.324,2.311c-4.804,0 -9.267,-0.77 -13.391,-2.311c-4.124,-1.541 -7.704,-3.739 -10.741,-6.594c-3.036,-2.855 -5.415,-6.299 -7.137,-10.332c-1.722,-4.034 -2.583,-8.543 -2.583,-13.528c-0,-4.622 0.974,-8.973 2.923,-13.051c1.948,-4.079 4.599,-7.206 7.953,-9.381l-0,-0.272l-47.584,0l0,-12.236l102.781,0Zm-9.788,33.445c-0,-3.263 -0.567,-6.209 -1.7,-8.837c-1.133,-2.629 -2.674,-4.849 -4.622,-6.662c-1.949,-1.813 -4.305,-3.217 -7.07,-4.214c-2.764,-0.997 -5.778,-1.496 -9.041,-1.496c-3.263,0 -6.276,0.499 -9.041,1.496c-2.764,0.997 -5.121,2.401 -7.069,4.214c-1.949,1.813 -3.49,4.033 -4.623,6.662c-1.133,2.628 -1.699,5.574 -1.699,8.837c-0,3.263 0.566,6.208 1.699,8.837c1.133,2.628 2.674,4.849 4.623,6.662c1.948,1.812 4.305,3.217 7.069,4.214c2.765,0.997 5.778,1.496 9.041,1.496c3.263,-0 6.277,-0.499 9.041,-1.496c2.765,-0.997 5.121,-2.402 7.07,-4.214c1.948,-1.813 3.489,-4.034 4.622,-6.662c1.133,-2.629 1.7,-5.574 1.7,-8.837Z" style="fill-rule:nonzero;"/>
    <path d="M75.59,1247.38l0,33.445l-11.42,-0l0,-33.445l11.42,0Z" style="fill-rule:nonzero;"/>
    <path d="M48.943,1198.84l0,17.538l29.231,-0c1.812,-0 3.602,-0.046 5.37,-0.136c1.767,-0.091 3.353,-0.431 4.758,-1.02c1.405,-0.589 2.538,-1.496 3.399,-2.719c0.861,-1.224 1.292,-3.014 1.292,-5.37c-0,-1.45 -0.136,-2.946 -0.408,-4.487c-0.272,-1.541 -0.771,-2.945 -1.496,-4.214l11.149,-0c0.815,1.45 1.382,3.331 1.699,5.642c0.317,2.311 0.476,4.101 0.476,5.37c-0,4.713 -0.657,8.361 -1.972,10.944c-1.314,2.583 -3.013,4.487 -5.098,5.71c-2.084,1.224 -4.418,1.949 -7.001,2.176c-2.584,0.226 -5.189,0.339 -7.818,0.339l-33.581,0l0,14.14l-10.604,-0l0,-14.14l-18.082,0l0,-12.235l18.082,-0l0,-17.538l10.604,-0Z" style="fill-rule:nonzero;"/>
    <path d="M38.339,1183.07l0,-12.236l9.925,-0l-0,-0.272c-1.722,-0.816 -3.286,-1.903 -4.691,-3.263c-1.405,-1.359 -2.605,-2.878 -3.602,-4.554c-0.997,-1.677 -1.791,-3.512 -2.38,-5.506c-0.589,-1.994 -0.883,-3.988 -0.883,-5.982c-0,-1.994 0.272,-3.807 0.815,-5.439l13.188,0.544c-0.272,0.997 -0.499,1.994 -0.68,2.991c-0.181,0.997 -0.272,1.994 -0.272,2.991c0,5.982 1.677,10.559 5.031,13.732c3.353,3.172 8.565,4.758 15.634,4.758l32.357,-0l0,12.236l-64.442,-0Z" style="fill-rule:nonzero;"/>
    <path d="M75.047,1125.97c2.809,0 5.37,-0.612 7.681,-1.835c2.311,-1.224 4.283,-2.833 5.914,-4.827c1.632,-1.994 2.9,-4.305 3.807,-6.933c0.906,-2.629 1.359,-5.348 1.359,-8.158c0,-3.806 -0.883,-7.114 -2.651,-9.924c-1.767,-2.81 -4.101,-5.393 -7.001,-7.75l7.069,-9.244c8.792,6.797 13.188,16.314 13.188,28.55c-0,5.076 -0.861,9.675 -2.583,13.799c-1.722,4.124 -4.102,7.614 -7.138,10.469c-3.036,2.855 -6.616,5.053 -10.74,6.593c-4.124,1.541 -8.588,2.312 -13.392,2.312c-4.804,-0 -9.267,-0.839 -13.391,-2.515c-4.124,-1.677 -7.704,-3.988 -10.741,-6.934c-3.036,-2.946 -5.415,-6.458 -7.137,-10.537c-1.722,-4.078 -2.583,-8.519 -2.583,-13.323c-0,-5.71 0.997,-10.537 2.991,-14.479c1.994,-3.943 4.599,-7.183 7.817,-9.721c3.218,-2.538 6.843,-4.373 10.876,-5.506c4.034,-1.133 8.135,-1.699 12.304,-1.699l4.351,-0l-0,51.662Zm-9.789,-38.611c-2.719,0.091 -5.212,0.521 -7.477,1.292c-2.266,0.77 -4.238,1.926 -5.914,3.467c-1.677,1.54 -2.991,3.466 -3.943,5.778c-0.952,2.311 -1.428,5.007 -1.428,8.089c0,2.991 0.567,5.733 1.7,8.225c1.133,2.493 2.606,4.6 4.418,6.322c1.813,1.722 3.83,3.059 6.05,4.011c2.221,0.951 4.419,1.427 6.594,1.427l-0,-38.611Z" style="fill-rule:nonzero;"/>
    <path d="M75.047,1050.38c2.809,-0 5.37,-0.612 7.681,-1.836c2.311,-1.223 4.283,-2.832 5.914,-4.826c1.632,-1.994 2.9,-4.305 3.807,-6.934c0.906,-2.628 1.359,-5.347 1.359,-8.157c0,-3.807 -0.883,-7.115 -2.651,-9.925c-1.767,-2.809 -4.101,-5.393 -7.001,-7.749l7.069,-9.245c8.792,6.798 13.188,16.315 13.188,28.55c-0,5.076 -0.861,9.676 -2.583,13.8c-1.722,4.124 -4.102,7.613 -7.138,10.468c-3.036,2.855 -6.616,5.053 -10.74,6.594c-4.124,1.541 -8.588,2.311 -13.392,2.311c-4.804,0 -9.267,-0.838 -13.391,-2.515c-4.124,-1.677 -7.704,-3.988 -10.741,-6.934c-3.036,-2.945 -5.415,-6.457 -7.137,-10.536c-1.722,-4.079 -2.583,-8.52 -2.583,-13.324c-0,-5.71 0.997,-10.536 2.991,-14.479c1.994,-3.942 4.599,-7.183 7.817,-9.72c3.218,-2.538 6.843,-4.374 10.876,-5.507c4.034,-1.132 8.135,-1.699 12.304,-1.699l4.351,0l-0,51.663Zm-9.789,-38.611c-2.719,0.09 -5.212,0.521 -7.477,1.291c-2.266,0.771 -4.238,1.926 -5.914,3.467c-1.677,1.541 -2.991,3.467 -3.943,5.778c-0.952,2.311 -1.428,5.008 -1.428,8.089c0,2.991 0.567,5.733 1.7,8.226c1.133,2.492 2.606,4.599 4.418,6.321c1.813,1.723 3.83,3.059 6.05,4.011c2.221,0.952 4.419,1.428 6.594,1.428l-0,-38.611Z" style="fill-rule:nonzero;"/>
    <path d="M102.238,881.663c4.894,-0 9.358,0.838 13.391,2.515c4.033,1.676 7.523,4.056 10.468,7.137c2.946,3.082 5.235,6.798 6.866,11.149c1.632,4.35 2.447,9.154 2.447,14.411c0,6.163 -0.861,11.805 -2.583,16.926c-1.722,5.121 -4.713,9.993 -8.973,14.615l-10.332,-8.293c3.444,-3.172 6.05,-6.617 7.817,-10.333c1.767,-3.716 2.651,-7.93 2.651,-12.643c0,-4.532 -0.657,-8.294 -1.971,-11.285c-1.314,-2.991 -3.014,-5.37 -5.098,-7.137c-2.085,-1.768 -4.464,-3.014 -7.138,-3.739c-2.674,-0.725 -5.37,-1.088 -8.089,-1.088l-9.517,0l-0,0.408c3.897,2.357 6.775,5.552 8.633,9.585c1.858,4.033 2.787,8.271 2.787,12.712c0,4.713 -0.838,9.086 -2.515,13.119c-1.677,4.034 -3.988,7.5 -6.934,10.401c-2.945,2.9 -6.435,5.166 -10.468,6.798c-4.034,1.631 -8.407,2.447 -13.12,2.447c-4.713,-0 -9.131,-0.771 -13.255,-2.312c-4.124,-1.54 -7.727,-3.738 -10.809,-6.593c-3.081,-2.855 -5.483,-6.3 -7.205,-10.333c-1.722,-4.033 -2.583,-8.542 -2.583,-13.527c-0,-4.351 0.951,-8.588 2.855,-12.712c1.903,-4.124 4.577,-7.364 8.021,-9.721l-0,-0.272l-9.245,0l0,-12.235l63.899,-0Zm-54.11,33.444c-0,3.263 0.566,6.209 1.699,8.837c1.133,2.629 2.674,4.849 4.623,6.662c1.948,1.813 4.305,3.218 7.069,4.215c2.765,0.997 5.778,1.495 9.041,1.495c6.526,0 11.76,-1.903 15.703,-5.71c3.943,-3.807 5.914,-8.973 5.914,-15.499c-0,-6.526 -1.971,-11.692 -5.914,-15.499c-3.943,-3.806 -9.177,-5.71 -15.703,-5.71c-3.263,0 -6.276,0.499 -9.041,1.496c-2.764,0.997 -5.121,2.402 -7.069,4.214c-1.949,1.813 -3.49,4.034 -4.623,6.662c-1.133,2.629 -1.699,5.574 -1.699,8.837Z" style="fill-rule:nonzero;"/>
    <path d="M38.339,863.173l0,-12.236l9.925,-0l-0,-0.272c-1.722,-0.816 -3.286,-1.903 -4.691,-3.263c-1.405,-1.359 -2.605,-2.878 -3.602,-4.554c-0.997,-1.677 -1.791,-3.513 -2.38,-5.507c-0.589,-1.994 -0.883,-3.987 -0.883,-5.981c-0,-1.994 0.272,-3.807 0.815,-5.439l13.188,0.544c-0.272,0.997 -0.499,1.994 -0.68,2.991c-0.181,0.997 -0.272,1.994 -0.272,2.991c0,5.982 1.677,10.559 5.031,13.732c3.353,3.172 8.565,4.758 15.634,4.758l32.357,-0l0,12.236l-64.442,-0Z" style="fill-rule:nonzero;"/>
    <path d="M70.56,805.392c3.263,0 6.277,-0.498 9.041,-1.495c2.765,-0.997 5.121,-2.402 7.07,-4.215c1.948,-1.813 3.489,-4.033 4.622,-6.662c1.133,-2.628 1.7,-5.574 1.7,-8.837c-0,-3.262 -0.567,-6.208 -1.7,-8.837c-1.133,-2.628 -2.674,-4.849 -4.622,-6.661c-1.949,-1.813 -4.305,-3.218 -7.07,-4.215c-2.764,-0.997 -5.778,-1.495 -9.041,-1.495c-3.263,-0 -6.276,0.498 -9.041,1.495c-2.764,0.997 -5.121,2.402 -7.069,4.215c-1.949,1.812 -3.49,4.033 -4.623,6.661c-1.133,2.629 -1.699,5.575 -1.699,8.837c-0,3.263 0.566,6.209 1.699,8.837c1.133,2.629 2.674,4.849 4.623,6.662c1.948,1.813 4.305,3.218 7.069,4.215c2.765,0.997 5.778,1.495 9.041,1.495Zm0,13.052c-4.713,-0 -9.109,-0.884 -13.187,-2.651c-4.079,-1.768 -7.659,-4.192 -10.741,-7.274c-3.081,-3.081 -5.506,-6.707 -7.273,-10.876c-1.768,-4.169 -2.651,-8.656 -2.651,-13.46c-0,-4.803 0.883,-9.29 2.651,-13.459c1.767,-4.169 4.192,-7.795 7.273,-10.876c3.082,-3.082 6.662,-5.507 10.741,-7.274c4.078,-1.767 8.474,-2.651 13.187,-2.651c4.713,-0 9.132,0.884 13.256,2.651c4.124,1.767 7.704,4.192 10.74,7.274c3.036,3.081 5.438,6.707 7.206,10.876c1.767,4.169 2.651,8.656 2.651,13.459c-0,4.804 -0.884,9.291 -2.651,13.46c-1.768,4.169 -4.17,7.795 -7.206,10.876c-3.036,3.082 -6.616,5.506 -10.74,7.274c-4.124,1.767 -8.543,2.651 -13.256,2.651Z" style="fill-rule:nonzero;"/>
    <path d="M38.339,742.31l0,-13.732l48.128,-14.547l-0,-0.272l-48.128,-15.363l0,-12.915l48.128,-16.315l-0,-0.272l-48.128,-13.867l0,-12.916l64.442,20.801l0,12.372l-48.127,16.994l-0,0.272l48.127,15.363l0,13.188l-64.442,21.209Z" style="fill-rule:nonzero;"/>
    <path d="M38.339,631.371l0,-12.236l9.925,0l-0,-0.272c-3.444,-1.541 -6.232,-4.214 -8.361,-8.021c-2.13,-3.807 -3.195,-8.203 -3.195,-13.188c-0,-3.081 0.475,-6.05 1.427,-8.905c0.952,-2.855 2.425,-5.347 4.419,-7.477c1.994,-2.13 4.554,-3.829 7.681,-5.098c3.127,-1.269 6.82,-1.904 11.08,-1.904l41.466,0l0,12.236l-38.067,0c-2.991,0 -5.551,0.408 -7.681,1.224c-2.13,0.815 -3.852,1.903 -5.166,3.263c-1.315,1.359 -2.266,2.923 -2.856,4.69c-0.589,1.767 -0.883,3.603 -0.883,5.506c-0,2.538 0.408,4.895 1.223,7.07c0.816,2.175 2.108,4.078 3.875,5.71c1.767,1.631 4.011,2.9 6.73,3.807c2.719,0.906 5.936,1.359 9.653,1.359l33.172,0l0,12.236l-64.442,-0Z" style="fill-rule:nonzero;"/>
    <path d="M48.943,483.453l0,17.538l29.231,-0c1.812,-0 3.602,-0.045 5.37,-0.136c1.767,-0.091 3.353,-0.431 4.758,-1.02c1.405,-0.589 2.538,-1.495 3.399,-2.719c0.861,-1.223 1.292,-3.013 1.292,-5.37c-0,-1.45 -0.136,-2.946 -0.408,-4.486c-0.272,-1.541 -0.771,-2.946 -1.496,-4.215l11.149,0c0.815,1.45 1.382,3.331 1.699,5.642c0.317,2.311 0.476,4.101 0.476,5.37c-0,4.713 -0.657,8.361 -1.972,10.945c-1.314,2.583 -3.013,4.486 -5.098,5.71c-2.084,1.223 -4.418,1.948 -7.001,2.175c-2.584,0.227 -5.189,0.34 -7.818,0.34l-33.581,-0l0,14.139l-10.604,0l0,-14.139l-18.082,-0l0,-12.236l18.082,-0l0,-17.538l10.604,-0Z" style="fill-rule:nonzero;"/>
    <path d="M70.56,457.758c3.263,-0 6.277,-0.499 9.041,-1.496c2.765,-0.997 5.121,-2.402 7.07,-4.215c1.948,-1.812 3.489,-4.033 4.622,-6.661c1.133,-2.629 1.7,-5.574 1.7,-8.837c-0,-3.263 -0.567,-6.209 -1.7,-8.837c-1.133,-2.629 -2.674,-4.849 -4.622,-6.662c-1.949,-1.813 -4.305,-3.218 -7.07,-4.215c-2.764,-0.997 -5.778,-1.495 -9.041,-1.495c-3.263,-0 -6.276,0.498 -9.041,1.495c-2.764,0.997 -5.121,2.402 -7.069,4.215c-1.949,1.813 -3.49,4.033 -4.623,6.662c-1.133,2.628 -1.699,5.574 -1.699,8.837c-0,3.263 0.566,6.208 1.699,8.837c1.133,2.628 2.674,4.849 4.623,6.661c1.948,1.813 4.305,3.218 7.069,4.215c2.765,0.997 5.778,1.496 9.041,1.496Zm0,13.051c-4.713,0 -9.109,-0.884 -13.187,-2.651c-4.079,-1.767 -7.659,-4.192 -10.741,-7.273c-3.081,-3.082 -5.506,-6.708 -7.273,-10.877c-1.768,-4.169 -2.651,-8.656 -2.651,-13.459c-0,-4.804 0.883,-9.29 2.651,-13.46c1.767,-4.169 4.192,-7.794 7.273,-10.876c3.082,-3.082 6.662,-5.506 10.741,-7.274c4.078,-1.767 8.474,-2.651 13.187,-2.651c4.713,0 9.132,0.884 13.256,2.651c4.124,1.768 7.704,4.192 10.74,7.274c3.036,3.082 5.438,6.707 7.206,10.876c1.767,4.17 2.651,8.656 2.651,13.46c-0,4.803 -0.884,9.29 -2.651,13.459c-1.768,4.169 -4.17,7.795 -7.206,10.877c-3.036,3.081 -6.616,5.506 -10.74,7.273c-4.124,1.767 -8.543,2.651 -13.256,2.651Z" style="fill-rule:nonzero;"/>
    <path d="M38.339,349.13l0,-12.236l9.245,0l-0,-0.272c-3.444,-2.356 -6.118,-5.596 -8.021,-9.72c-1.904,-4.124 -2.855,-8.361 -2.855,-12.712c-0,-4.985 0.861,-9.494 2.583,-13.527c1.722,-4.034 4.124,-7.478 7.205,-10.333c3.082,-2.855 6.685,-5.053 10.809,-6.594c4.124,-1.541 8.542,-2.311 13.255,-2.311c4.804,0 9.268,0.77 13.392,2.311c4.124,1.541 7.704,3.739 10.74,6.594c3.036,2.855 5.416,6.299 7.138,10.333c1.722,4.033 2.583,8.542 2.583,13.527c-0,4.622 -0.975,8.973 -2.923,13.052c-1.949,4.078 -4.6,7.205 -7.954,9.38l0,0.272l47.584,0l0,12.236l-102.781,0Zm9.789,-33.445c-0,3.263 0.566,6.209 1.699,8.838c1.133,2.628 2.674,4.849 4.623,6.661c1.948,1.813 4.305,3.218 7.069,4.215c2.765,0.997 5.778,1.495 9.041,1.495c3.263,0 6.277,-0.498 9.041,-1.495c2.765,-0.997 5.121,-2.402 7.07,-4.215c1.948,-1.812 3.489,-4.033 4.622,-6.661c1.133,-2.629 1.7,-5.575 1.7,-8.838c-0,-3.262 -0.567,-6.208 -1.7,-8.837c-1.133,-2.628 -2.674,-4.849 -4.622,-6.661c-1.949,-1.813 -4.305,-3.218 -7.07,-4.215c-2.764,-0.997 -5.778,-1.495 -9.041,-1.495c-3.263,-0 -6.276,0.498 -9.041,1.495c-2.764,0.997 -5.121,2.402 -7.069,4.215c-1.949,1.812 -3.49,4.033 -4.623,6.661c-1.133,2.629 -1.699,5.575 -1.699,8.837Z" style="fill-rule:nonzero;"/>
    <path d="M102.781,208.961l0,12.236l-9.924,0l-0,0.272c3.444,1.541 6.231,4.215 8.361,8.022c2.13,3.806 3.195,8.202 3.195,13.187c-0,3.172 -0.476,6.163 -1.428,8.973c-0.951,2.81 -2.424,5.28 -4.418,7.41c-1.994,2.13 -4.555,3.829 -7.682,5.098c-3.127,1.269 -6.82,1.903 -11.08,1.903l-41.466,0l0,-12.236l38.067,0c2.991,0 5.552,-0.408 7.682,-1.223c2.13,-0.816 3.852,-1.904 5.166,-3.263c1.314,-1.36 2.266,-2.923 2.855,-4.691c0.589,-1.767 0.884,-3.602 0.884,-5.506c-0,-2.537 -0.408,-4.894 -1.224,-7.069c-0.816,-2.176 -2.107,-4.079 -3.875,-5.71c-1.767,-1.632 -4.01,-2.901 -6.729,-3.807c-2.719,-0.906 -5.937,-1.36 -9.653,-1.36l-33.173,0l0,-12.236l64.442,0Z" style="fill-rule:nonzero;"/>
    <path d="M38.339,190.472l0,-12.236l9.925,-0l-0,-0.272c-1.722,-0.816 -3.286,-1.903 -4.691,-3.263c-1.405,-1.359 -2.605,-2.878 -3.602,-4.554c-0.997,-1.677 -1.791,-3.513 -2.38,-5.507c-0.589,-1.994 -0.883,-3.988 -0.883,-5.982c-0,-1.994 0.272,-3.806 0.815,-5.438l13.188,0.544c-0.272,0.997 -0.499,1.994 -0.68,2.991c-0.181,0.997 -0.272,1.994 -0.272,2.991c0,5.982 1.677,10.559 5.031,13.731c3.353,3.173 8.565,4.759 15.634,4.759l32.357,-0l0,12.236l-64.442,-0Z" style="fill-rule:nonzero;"/>
    <path d="M38.339,139.217l0,-12.236l64.442,0l0,12.236l-64.442,0Zm-23.112,2.855c-2.447,0 -4.555,-0.884 -6.322,-2.651c-1.767,-1.767 -2.651,-3.875 -2.651,-6.322c-0,-2.447 0.884,-4.554 2.651,-6.322c1.767,-1.767 3.875,-2.651 6.322,-2.651c2.447,0 4.554,0.884 6.322,2.651c1.767,1.768 2.651,3.875 2.651,6.322c-0,2.447 -0.884,4.555 -2.651,6.322c-1.768,1.767 -3.875,2.651 -6.322,2.651Z" style="fill-rule:nonzero;"/>
    <path d="M48.943,73.007l0,17.538l29.231,0c1.812,0 3.602,-0.045 5.37,-0.136c1.767,-0.09 3.353,-0.43 4.758,-1.019c1.405,-0.589 2.538,-1.496 3.399,-2.719c0.861,-1.224 1.292,-3.014 1.292,-5.37c-0,-1.451 -0.136,-2.946 -0.408,-4.487c-0.272,-1.541 -0.771,-2.946 -1.496,-4.214l11.149,-0c0.815,1.45 1.382,3.33 1.699,5.642c0.317,2.311 0.476,4.101 0.476,5.37c-0,4.713 -0.657,8.361 -1.972,10.944c-1.314,2.583 -3.013,4.487 -5.098,5.71c-2.084,1.224 -4.418,1.949 -7.001,2.175c-2.584,0.227 -5.189,0.34 -7.818,0.34l-33.581,0l0,14.14l-10.604,-0l0,-14.14l-18.082,0l0,-12.236l18.082,0l0,-17.538l10.604,0Z" style="fill-rule:nonzero;"/>
    <path d="M38.339,64.986l0,-14.139l50.303,-19.17l0,-0.272l-50.303,-18.217l0,-13.188l78.31,30.59c2.809,1.087 5.37,2.22 7.681,3.399c2.311,1.178 4.283,2.583 5.914,4.214c1.632,1.632 2.9,3.603 3.807,5.914c0.906,2.311 1.359,5.144 1.359,8.497c0,1.813 -0.113,3.648 -0.34,5.506c-0.226,1.858 -0.702,3.648 -1.427,5.371l-11.148,-1.496c0.997,-2.447 1.495,-4.894 1.495,-7.341c0,-1.904 -0.249,-3.513 -0.748,-4.827c-0.498,-1.314 -1.223,-2.447 -2.175,-3.399c-0.952,-0.951 -2.062,-1.744 -3.331,-2.379c-1.269,-0.634 -2.719,-1.269 -4.35,-1.903l-10.197,-3.943l-64.85,26.783Z" style="fill-rule:nonzero;"/>
</svg>
