<?xml version="1.0" encoding="UTF-8" standalone="no"?>
<!DOCTYPE svg PUBLIC "-//W3C//DTD SVG 1.1//EN" "http://www.w3.org/Graphics/SVG/1.1/DTD/svg11.dtd">
<svg width="100%" height="100%" viewBox="0 0 794 952" version="1.1" xmlns="http://www.w3.org/2000/svg" xmlns:xlink="http://www.w3.org/1999/xlink" xml:space="preserve" xmlns:serif="http://www.serif.com/" style="fill-rule:evenodd;clip-rule:evenodd;stroke-linecap:round;stroke-linejoin:round;stroke-miterlimit:1.5;">
    <g transform="matrix(1,0,0,1,-2212.83,-1324.05)">
        <g transform="matrix(-0.514433,0.6664,-0.6664,-0.514433,3668.02,1546.19)">
            <circle cx="1215.97" cy="826.122" r="246.423" style="fill:url(#_Radial1);stroke:white;stroke-opacity:0;stroke-width:9.35px;"/>
        </g>
        <g transform="matrix(-0.748953,0.970198,-0.970198,-0.748953,4403.09,1256.2)">
            <circle cx="1215.97" cy="826.122" r="246.423" style="fill:url(#_Radial2);stroke:white;stroke-opacity:0;stroke-width:6.42px;"/>
        </g>
        <g transform="matrix(-0.651332,0.84374,-0.848483,-0.654994,4083.33,1232.33)">
            <circle cx="1215.97" cy="826.122" r="246.423" style="fill:url(#_Radial3);stroke:white;stroke-opacity:0;stroke-width:7.37px;"/>
        </g>
        <g transform="matrix(-0.611067,0.791579,-0.791579,-0.611067,4124.42,1143.55)">
            <circle cx="1619.17" cy="811.775" r="26.111" style="stroke:black;stroke-width:7.87px;"/>
        </g>
        <g transform="matrix(-0.611067,0.791579,-0.791579,-0.611067,4335.41,1029.36)">
            <circle cx="1619.17" cy="811.775" r="26.111" style="stroke:black;stroke-width:7.87px;"/>
        </g>
        <g transform="matrix(-0.611067,0.791579,-0.791579,-0.611067,4222.13,931.728)">
            <circle cx="1619.17" cy="811.775" r="26.111" style="stroke:black;stroke-width:7.87px;"/>
        </g>
        <g transform="matrix(1.19071,0,0,1,862.512,837.171)">
            <path d="M1546.23,977.23L1788.8,977.23" style="fill:none;stroke:rgb(57,62,205);stroke-width:8.17px;"/>
        </g>
        <g transform="matrix(1.19071,0,0,1,862.512,837.171)">
            <path d="M1546.23,977.23L1788.8,977.23" style="fill:none;stroke:rgb(57,62,205);stroke-width:8.17px;"/>
        </g>
        <g transform="matrix(1.19071,0,0,1,862.512,837.171)">
            <path d="M1788.8,977.23L1770.53,958.957" style="fill:none;stroke:rgb(57,62,205);stroke-width:8.17px;"/>
        </g>
        <g transform="matrix(1.19071,0,0,1,862.512,837.171)">
            <path d="M1788.8,977.23L1770.53,958.957" style="fill:none;stroke:rgb(57,62,205);stroke-width:8.17px;"/>
        </g>
        <g transform="matrix(1.19071,0,0,1,862.512,837.171)">
            <path d="M1788.8,977.23L1769.98,996.052" style="fill:none;stroke:rgb(57,62,205);stroke-width:8.17px;"/>
        </g>
        <g transform="matrix(1.19071,0,0,1,862.512,837.171)">
            <path d="M1788.8,977.23L1769.98,996.052" style="fill:none;stroke:rgb(57,62,205);stroke-width:8.17px;"/>
        </g>
        <g transform="matrix(1.19071,0,0,1,862.512,837.171)">
            <path d="M1546.23,977.23L1565.88,957.573" style="fill:none;stroke:rgb(57,62,205);stroke-width:8.17px;"/>
        </g>
        <g transform="matrix(1.19071,0,0,1,862.512,837.171)">
            <path d="M1546.23,977.23L1565.88,957.573" style="fill:none;stroke:rgb(57,62,205);stroke-width:8.17px;"/>
        </g>
        <g transform="matrix(1.19071,0,0,1,862.512,837.171)">
            <path d="M1546.23,977.23L1564.24,995.24" style="fill:none;stroke:rgb(57,62,205);stroke-width:8.17px;"/>
        </g>
        <g transform="matrix(1.19071,0,0,1,862.512,837.171)">
            <path d="M1546.23,977.23L1564.24,995.24" style="fill:none;stroke:rgb(57,62,205);stroke-width:8.17px;"/>
        </g>
        <g transform="matrix(1,0,0,1,1204.35,811.948)">
            <g transform="matrix(74.2289,0,0,74.2289,1620.16,953.708)">
                <path d="M0.046,-0.102L0.33,-0.384C0.34,-0.393 0.35,-0.404 0.359,-0.415C0.368,-0.426 0.377,-0.437 0.384,-0.449C0.391,-0.461 0.397,-0.474 0.402,-0.487C0.406,-0.5 0.408,-0.514 0.408,-0.529C0.408,-0.546 0.405,-0.562 0.399,-0.576C0.392,-0.59 0.384,-0.602 0.373,-0.612C0.362,-0.621 0.349,-0.629 0.334,-0.634C0.319,-0.639 0.303,-0.642 0.286,-0.642C0.251,-0.642 0.223,-0.632 0.2,-0.613C0.177,-0.594 0.163,-0.567 0.157,-0.533L0.053,-0.542C0.058,-0.573 0.067,-0.6 0.081,-0.624C0.094,-0.647 0.111,-0.666 0.132,-0.681C0.152,-0.696 0.175,-0.708 0.202,-0.715C0.228,-0.722 0.256,-0.726 0.287,-0.726C0.318,-0.726 0.347,-0.722 0.374,-0.714C0.401,-0.705 0.424,-0.693 0.445,-0.677C0.465,-0.66 0.481,-0.64 0.493,-0.616C0.504,-0.591 0.51,-0.563 0.51,-0.53C0.51,-0.507 0.507,-0.485 0.5,-0.465C0.493,-0.444 0.483,-0.425 0.472,-0.407C0.461,-0.389 0.448,-0.372 0.433,-0.356C0.418,-0.34 0.403,-0.324 0.387,-0.309L0.154,-0.084L0.51,-0.084L0.51,-0L0.046,-0L0.046,-0.102Z" style="fill:rgb(3,0,255);fill-rule:nonzero;"/>
            </g>
            <g transform="matrix(74.2289,0,0,74.2289,1682.07,953.708)">
                <path d="M0.068,-0.756L0.158,-0.756L0.158,-0.401L0.16,-0.401C0.171,-0.426 0.191,-0.447 0.219,-0.463C0.247,-0.478 0.279,-0.486 0.316,-0.486C0.339,-0.486 0.361,-0.483 0.382,-0.476C0.403,-0.468 0.421,-0.458 0.437,-0.443C0.452,-0.428 0.465,-0.409 0.474,-0.387C0.483,-0.364 0.488,-0.336 0.488,-0.305L0.488,-0L0.398,-0L0.398,-0.28C0.398,-0.302 0.395,-0.321 0.389,-0.337C0.383,-0.352 0.375,-0.365 0.365,-0.375C0.355,-0.384 0.343,-0.391 0.331,-0.396C0.318,-0.4 0.304,-0.402 0.29,-0.402C0.271,-0.402 0.254,-0.399 0.238,-0.393C0.222,-0.387 0.208,-0.378 0.196,-0.365C0.184,-0.352 0.175,-0.335 0.168,-0.315C0.161,-0.295 0.158,-0.271 0.158,-0.244L0.158,-0L0.068,-0L0.068,-0.756Z" style="fill:rgb(3,0,255);fill-rule:nonzero;"/>
            </g>
            <g transform="matrix(74.2289,0,0,74.2289,1723.34,953.708)">
                <path d="M0.254,-0.69C0.233,-0.656 0.214,-0.623 0.198,-0.592C0.182,-0.561 0.169,-0.529 0.158,-0.497C0.147,-0.464 0.139,-0.431 0.134,-0.396C0.129,-0.361 0.126,-0.324 0.126,-0.284C0.126,-0.211 0.137,-0.14 0.158,-0.071C0.179,-0.002 0.211,0.061 0.254,0.12L0.194,0.16C0.148,0.097 0.112,0.028 0.087,-0.047C0.061,-0.122 0.048,-0.201 0.048,-0.284C0.048,-0.361 0.06,-0.437 0.085,-0.514C0.11,-0.591 0.146,-0.662 0.194,-0.728L0.254,-0.69Z" style="fill:rgb(3,0,255);fill-rule:nonzero;"/>
            </g>
            <g transform="matrix(74.2289,0,0,74.2289,1785.25,953.708)">
                <path d="M0.024,0.122C0.045,0.088 0.064,0.055 0.08,0.024C0.096,-0.007 0.109,-0.039 0.12,-0.072C0.131,-0.104 0.139,-0.137 0.144,-0.172C0.149,-0.207 0.152,-0.244 0.152,-0.284C0.152,-0.357 0.141,-0.428 0.12,-0.497C0.099,-0.566 0.067,-0.629 0.024,-0.688L0.084,-0.728C0.13,-0.665 0.166,-0.596 0.192,-0.521C0.217,-0.446 0.23,-0.367 0.23,-0.284C0.23,-0.207 0.218,-0.131 0.193,-0.054C0.168,0.023 0.132,0.094 0.084,0.16L0.024,0.122Z" style="fill:rgb(3,0,255);fill-rule:nonzero;"/>
            </g>
        </g>
        <g transform="matrix(1,0,0,1,-224.472,996.645)">
            <path d="M2874.83,894.149L2839.03,929.949" style="fill:none;stroke:rgb(118,240,13);stroke-opacity:0.99;stroke-width:17.84px;"/>
        </g>
        <g transform="matrix(-2.16493e-15,-1,1,-2.16493e-15,1720.41,4765.63)">
            <path d="M2874.83,894.149L2839.03,929.949" style="fill:none;stroke:rgb(118,240,13);stroke-opacity:0.99;stroke-width:17.84px;"/>
        </g>
        <g transform="matrix(0.816756,0,0,0.816756,-106.344,1432.72)">
            <g transform="matrix(66.4694,0,0,66.4694,2839.35,1002.08)">
                <path d="M0.068,-0.474L0.158,-0.474L0.158,-0.401L0.16,-0.401C0.166,-0.414 0.174,-0.425 0.184,-0.436C0.194,-0.446 0.205,-0.455 0.218,-0.462C0.23,-0.469 0.243,-0.475 0.258,-0.48C0.273,-0.484 0.287,-0.486 0.302,-0.486C0.317,-0.486 0.33,-0.484 0.342,-0.48L0.338,-0.383C0.331,-0.385 0.323,-0.387 0.316,-0.388C0.309,-0.389 0.301,-0.39 0.294,-0.39C0.25,-0.39 0.216,-0.378 0.193,-0.353C0.17,-0.328 0.158,-0.29 0.158,-0.238L0.158,-0L0.068,-0L0.068,-0.474Z" style="fill:rgb(118,255,0);fill-rule:nonzero;stroke:black;stroke-width:0.02px;stroke-linecap:butt;stroke-miterlimit:2;"/>
            </g>
            <g transform="matrix(66.4694,0,0,66.4694,2882.42,1002.08)">
                <path d="M0.139,-0.348C0.121,-0.348 0.106,-0.355 0.093,-0.368C0.08,-0.381 0.073,-0.396 0.073,-0.414C0.073,-0.432 0.08,-0.448 0.093,-0.461C0.106,-0.474 0.121,-0.48 0.139,-0.48C0.157,-0.48 0.173,-0.474 0.186,-0.461C0.199,-0.448 0.205,-0.432 0.205,-0.414C0.205,-0.396 0.199,-0.381 0.186,-0.368C0.173,-0.355 0.157,-0.348 0.139,-0.348ZM0.073,-0.06C0.073,-0.078 0.08,-0.094 0.093,-0.107C0.106,-0.119 0.121,-0.126 0.139,-0.126C0.157,-0.126 0.173,-0.119 0.186,-0.107C0.199,-0.094 0.205,-0.078 0.205,-0.06C0.205,-0.042 0.199,-0.027 0.186,-0.014C0.173,-0 0.157,0.006 0.139,0.006C0.121,0.006 0.106,-0 0.093,-0.014C0.08,-0.027 0.073,-0.042 0.073,-0.06Z" style="fill:rgb(118,255,0);fill-rule:nonzero;stroke:black;stroke-width:0.02px;stroke-linecap:butt;stroke-miterlimit:2;"/>
            </g>
            <g transform="matrix(66.4694,0,0,66.4694,2919.37,1002.08)">
                <path d="M0.068,-0.474L0.158,-0.474L0.158,-0.406L0.16,-0.406C0.177,-0.431 0.201,-0.451 0.232,-0.465C0.262,-0.479 0.293,-0.486 0.325,-0.486C0.362,-0.486 0.395,-0.48 0.425,-0.467C0.454,-0.454 0.48,-0.437 0.501,-0.414C0.522,-0.391 0.538,-0.365 0.549,-0.335C0.56,-0.304 0.566,-0.272 0.566,-0.237C0.566,-0.202 0.56,-0.169 0.549,-0.139C0.538,-0.108 0.522,-0.082 0.501,-0.06C0.48,-0.037 0.454,-0.02 0.425,-0.007C0.395,0.006 0.362,0.012 0.325,0.012C0.291,0.012 0.259,0.005 0.229,-0.01C0.199,-0.024 0.176,-0.043 0.16,-0.068L0.158,-0.068L0.158,0.282L0.068,0.282L0.068,-0.474ZM0.314,-0.402C0.29,-0.402 0.268,-0.398 0.249,-0.39C0.23,-0.381 0.213,-0.37 0.2,-0.356C0.187,-0.341 0.176,-0.324 0.169,-0.304C0.162,-0.283 0.158,-0.261 0.158,-0.237C0.158,-0.213 0.162,-0.191 0.169,-0.171C0.176,-0.15 0.187,-0.133 0.2,-0.119C0.213,-0.104 0.23,-0.093 0.249,-0.085C0.268,-0.076 0.29,-0.072 0.314,-0.072C0.338,-0.072 0.36,-0.076 0.379,-0.085C0.398,-0.093 0.415,-0.104 0.428,-0.119C0.441,-0.133 0.452,-0.15 0.459,-0.171C0.466,-0.191 0.47,-0.213 0.47,-0.237C0.47,-0.261 0.466,-0.283 0.459,-0.304C0.452,-0.324 0.441,-0.341 0.428,-0.356C0.415,-0.37 0.398,-0.381 0.379,-0.39C0.36,-0.398 0.338,-0.402 0.314,-0.402Z" style="fill:rgb(118,255,0);fill-rule:nonzero;stroke:black;stroke-width:0.02px;stroke-linecap:butt;stroke-miterlimit:2;"/>
            </g>
            <g transform="matrix(66.4694,0,0,66.4694,2959.99,1002.08)">
                <path d="M0.141,-0.237C0.141,-0.213 0.145,-0.191 0.152,-0.171C0.159,-0.15 0.17,-0.133 0.183,-0.119C0.196,-0.104 0.213,-0.093 0.232,-0.085C0.251,-0.076 0.273,-0.072 0.297,-0.072C0.321,-0.072 0.343,-0.076 0.362,-0.085C0.381,-0.093 0.398,-0.104 0.411,-0.119C0.424,-0.133 0.435,-0.15 0.442,-0.171C0.449,-0.191 0.453,-0.213 0.453,-0.237C0.453,-0.261 0.449,-0.283 0.442,-0.304C0.435,-0.324 0.424,-0.341 0.411,-0.356C0.398,-0.37 0.381,-0.381 0.362,-0.39C0.343,-0.398 0.321,-0.402 0.297,-0.402C0.273,-0.402 0.251,-0.398 0.232,-0.39C0.213,-0.381 0.196,-0.37 0.183,-0.356C0.17,-0.341 0.159,-0.324 0.152,-0.304C0.145,-0.283 0.141,-0.261 0.141,-0.237ZM0.045,-0.237C0.045,-0.272 0.051,-0.304 0.065,-0.334C0.078,-0.364 0.095,-0.39 0.118,-0.413C0.141,-0.436 0.167,-0.454 0.198,-0.467C0.229,-0.48 0.262,-0.486 0.297,-0.486C0.332,-0.486 0.365,-0.48 0.396,-0.467C0.427,-0.454 0.453,-0.436 0.476,-0.413C0.499,-0.39 0.517,-0.364 0.53,-0.334C0.543,-0.304 0.549,-0.272 0.549,-0.237C0.549,-0.202 0.543,-0.17 0.53,-0.14C0.517,-0.109 0.499,-0.083 0.476,-0.061C0.453,-0.038 0.427,-0.021 0.396,-0.008C0.365,0.006 0.332,0.012 0.297,0.012C0.262,0.012 0.229,0.006 0.198,-0.008C0.167,-0.021 0.141,-0.038 0.118,-0.061C0.095,-0.083 0.078,-0.109 0.065,-0.14C0.051,-0.17 0.045,-0.202 0.045,-0.237Z" style="fill:rgb(118,255,0);fill-rule:nonzero;stroke:black;stroke-width:0.02px;stroke-linecap:butt;stroke-miterlimit:2;"/>
            </g>
            <g transform="matrix(66.4694,0,0,66.4694,2999.47,1002.08)">
                <path d="M0.075,-0.474L0.165,-0.474L0.165,-0L0.075,-0L0.075,-0.474ZM0.054,-0.644C0.054,-0.662 0.061,-0.678 0.074,-0.691C0.087,-0.704 0.102,-0.71 0.12,-0.71C0.138,-0.71 0.154,-0.704 0.167,-0.691C0.18,-0.678 0.186,-0.662 0.186,-0.644C0.186,-0.626 0.18,-0.611 0.167,-0.598C0.154,-0.584 0.138,-0.578 0.12,-0.578C0.102,-0.578 0.087,-0.584 0.074,-0.598C0.061,-0.611 0.054,-0.626 0.054,-0.644Z" style="fill:rgb(118,255,0);fill-rule:nonzero;stroke:black;stroke-width:0.02px;stroke-linecap:butt;stroke-miterlimit:2;"/>
            </g>
            <g transform="matrix(66.4694,0,0,66.4694,3015.42,1002.08)">
                <path d="M0.068,-0.474L0.158,-0.474L0.158,-0.401L0.16,-0.401C0.171,-0.426 0.191,-0.447 0.219,-0.463C0.247,-0.478 0.279,-0.486 0.316,-0.486C0.339,-0.486 0.361,-0.483 0.382,-0.476C0.403,-0.468 0.421,-0.458 0.437,-0.443C0.452,-0.428 0.465,-0.409 0.474,-0.387C0.483,-0.364 0.488,-0.336 0.488,-0.305L0.488,-0L0.398,-0L0.398,-0.28C0.398,-0.302 0.395,-0.321 0.389,-0.337C0.383,-0.352 0.375,-0.365 0.365,-0.375C0.355,-0.384 0.343,-0.391 0.331,-0.396C0.318,-0.4 0.304,-0.402 0.29,-0.402C0.271,-0.402 0.254,-0.399 0.238,-0.393C0.222,-0.387 0.208,-0.378 0.196,-0.365C0.184,-0.352 0.175,-0.335 0.168,-0.315C0.161,-0.295 0.158,-0.271 0.158,-0.244L0.158,-0L0.068,-0L0.068,-0.474Z" style="fill:rgb(118,255,0);fill-rule:nonzero;stroke:black;stroke-width:0.02px;stroke-linecap:butt;stroke-miterlimit:2;"/>
            </g>
            <g transform="matrix(66.4694,0,0,66.4694,3052.38,1002.08)">
                <path d="M0.322,-0.396L0.193,-0.396L0.193,-0.181C0.193,-0.168 0.193,-0.155 0.194,-0.142C0.195,-0.129 0.197,-0.117 0.202,-0.107C0.206,-0.096 0.213,-0.088 0.222,-0.082C0.231,-0.075 0.244,-0.072 0.261,-0.072C0.272,-0.072 0.283,-0.073 0.294,-0.075C0.305,-0.077 0.316,-0.081 0.325,-0.086L0.325,-0.004C0.314,0.002 0.301,0.006 0.284,0.009C0.267,0.011 0.253,0.012 0.244,0.012C0.209,0.012 0.183,0.007 0.164,-0.003C0.145,-0.012 0.131,-0.025 0.122,-0.04C0.113,-0.055 0.107,-0.073 0.106,-0.092C0.104,-0.111 0.103,-0.13 0.103,-0.149L0.103,-0.396L-0.001,-0.396L-0.001,-0.474L0.103,-0.474L0.103,-0.607L0.193,-0.607L0.193,-0.474L0.322,-0.474L0.322,-0.396Z" style="fill:rgb(118,255,0);fill-rule:nonzero;stroke:black;stroke-width:0.02px;stroke-linecap:butt;stroke-miterlimit:2;"/>
            </g>
            <g transform="matrix(66.4694,0,0,66.4694,3095.45,1002.08)">
                <path d="M0.141,-0.237C0.141,-0.213 0.145,-0.191 0.152,-0.171C0.159,-0.15 0.17,-0.133 0.183,-0.119C0.196,-0.104 0.213,-0.093 0.232,-0.085C0.251,-0.076 0.273,-0.072 0.297,-0.072C0.321,-0.072 0.343,-0.076 0.362,-0.085C0.381,-0.093 0.398,-0.104 0.411,-0.119C0.424,-0.133 0.435,-0.15 0.442,-0.171C0.449,-0.191 0.453,-0.213 0.453,-0.237C0.453,-0.261 0.449,-0.283 0.442,-0.304C0.435,-0.324 0.424,-0.341 0.411,-0.356C0.398,-0.37 0.381,-0.381 0.362,-0.39C0.343,-0.398 0.321,-0.402 0.297,-0.402C0.273,-0.402 0.251,-0.398 0.232,-0.39C0.213,-0.381 0.196,-0.37 0.183,-0.356C0.17,-0.341 0.159,-0.324 0.152,-0.304C0.145,-0.283 0.141,-0.261 0.141,-0.237ZM0.045,-0.237C0.045,-0.272 0.051,-0.304 0.065,-0.334C0.078,-0.364 0.095,-0.39 0.118,-0.413C0.141,-0.436 0.167,-0.454 0.198,-0.467C0.229,-0.48 0.262,-0.486 0.297,-0.486C0.332,-0.486 0.365,-0.48 0.396,-0.467C0.427,-0.454 0.453,-0.436 0.476,-0.413C0.499,-0.39 0.517,-0.364 0.53,-0.334C0.543,-0.304 0.549,-0.272 0.549,-0.237C0.549,-0.202 0.543,-0.17 0.53,-0.14C0.517,-0.109 0.499,-0.083 0.476,-0.061C0.453,-0.038 0.427,-0.021 0.396,-0.008C0.365,0.006 0.332,0.012 0.297,0.012C0.262,0.012 0.229,0.006 0.198,-0.008C0.167,-0.021 0.141,-0.038 0.118,-0.061C0.095,-0.083 0.078,-0.109 0.065,-0.14C0.051,-0.17 0.045,-0.202 0.045,-0.237Z" style="fill:rgb(118,255,0);fill-rule:nonzero;stroke:black;stroke-width:0.02px;stroke-linecap:butt;stroke-miterlimit:2;"/>
            </g>
            <g transform="matrix(66.4694,0,0,66.4694,3134.93,1002.08)">
                <path d="M0.103,-0.396L0.001,-0.396L0.001,-0.474L0.103,-0.474L0.103,-0.58C0.103,-0.643 0.115,-0.691 0.14,-0.722C0.164,-0.753 0.206,-0.768 0.265,-0.768C0.275,-0.768 0.286,-0.768 0.297,-0.767C0.308,-0.766 0.319,-0.764 0.332,-0.761L0.322,-0.681C0.313,-0.684 0.305,-0.687 0.297,-0.688C0.289,-0.689 0.28,-0.69 0.271,-0.69C0.254,-0.69 0.241,-0.688 0.231,-0.683C0.221,-0.678 0.213,-0.67 0.208,-0.661C0.202,-0.652 0.198,-0.641 0.197,-0.628C0.195,-0.615 0.194,-0.6 0.194,-0.583L0.194,-0.474L0.301,-0.474L0.301,-0.396L0.193,-0.396L0.193,-0L0.103,-0L0.103,-0.396Z" style="fill:rgb(118,255,0);fill-rule:nonzero;stroke:black;stroke-width:0.02px;stroke-linecap:butt;stroke-miterlimit:2;"/>
            </g>
            <g transform="matrix(66.4694,0,0,66.4694,3175.55,1002.08)">
                <path d="M0.075,-0.474L0.165,-0.474L0.165,-0L0.075,-0L0.075,-0.474ZM0.054,-0.644C0.054,-0.662 0.061,-0.678 0.074,-0.691C0.087,-0.704 0.102,-0.71 0.12,-0.71C0.138,-0.71 0.154,-0.704 0.167,-0.691C0.18,-0.678 0.186,-0.662 0.186,-0.644C0.186,-0.626 0.18,-0.611 0.167,-0.598C0.154,-0.584 0.138,-0.578 0.12,-0.578C0.102,-0.578 0.087,-0.584 0.074,-0.598C0.061,-0.611 0.054,-0.626 0.054,-0.644Z" style="fill:rgb(118,255,0);fill-rule:nonzero;stroke:black;stroke-width:0.02px;stroke-linecap:butt;stroke-miterlimit:2;"/>
            </g>
            <g transform="matrix(66.4694,0,0,66.4694,3191.5,1002.08)">
                <path d="M0.068,-0.474L0.158,-0.474L0.158,-0.401L0.16,-0.401C0.171,-0.426 0.191,-0.447 0.219,-0.463C0.247,-0.478 0.279,-0.486 0.316,-0.486C0.339,-0.486 0.361,-0.483 0.382,-0.476C0.403,-0.468 0.421,-0.458 0.437,-0.443C0.452,-0.428 0.465,-0.409 0.474,-0.387C0.483,-0.364 0.488,-0.336 0.488,-0.305L0.488,-0L0.398,-0L0.398,-0.28C0.398,-0.302 0.395,-0.321 0.389,-0.337C0.383,-0.352 0.375,-0.365 0.365,-0.375C0.355,-0.384 0.343,-0.391 0.331,-0.396C0.318,-0.4 0.304,-0.402 0.29,-0.402C0.271,-0.402 0.254,-0.399 0.238,-0.393C0.222,-0.387 0.208,-0.378 0.196,-0.365C0.184,-0.352 0.175,-0.335 0.168,-0.315C0.161,-0.295 0.158,-0.271 0.158,-0.244L0.158,-0L0.068,-0L0.068,-0.474Z" style="fill:rgb(118,255,0);fill-rule:nonzero;stroke:black;stroke-width:0.02px;stroke-linecap:butt;stroke-miterlimit:2;"/>
            </g>
            <g transform="matrix(66.4694,0,0,66.4694,3228.46,1002.08)">
                <path d="M0.322,-0.396L0.193,-0.396L0.193,-0.181C0.193,-0.168 0.193,-0.155 0.194,-0.142C0.195,-0.129 0.197,-0.117 0.202,-0.107C0.206,-0.096 0.213,-0.088 0.222,-0.082C0.231,-0.075 0.244,-0.072 0.261,-0.072C0.272,-0.072 0.283,-0.073 0.294,-0.075C0.305,-0.077 0.316,-0.081 0.325,-0.086L0.325,-0.004C0.314,0.002 0.301,0.006 0.284,0.009C0.267,0.011 0.253,0.012 0.244,0.012C0.209,0.012 0.183,0.007 0.164,-0.003C0.145,-0.012 0.131,-0.025 0.122,-0.04C0.113,-0.055 0.107,-0.073 0.106,-0.092C0.104,-0.111 0.103,-0.13 0.103,-0.149L0.103,-0.396L-0.001,-0.396L-0.001,-0.474L0.103,-0.474L0.103,-0.607L0.193,-0.607L0.193,-0.474L0.322,-0.474L0.322,-0.396Z" style="fill:rgb(118,255,0);fill-rule:nonzero;stroke:black;stroke-width:0.02px;stroke-linecap:butt;stroke-miterlimit:2;"/>
            </g>
            <g transform="matrix(66.4694,0,0,66.4694,3253.05,1002.08)">
                <path d="M0.136,-0.204C0.136,-0.183 0.14,-0.165 0.15,-0.148C0.159,-0.13 0.17,-0.116 0.185,-0.104C0.2,-0.092 0.217,-0.083 0.236,-0.076C0.255,-0.069 0.275,-0.066 0.296,-0.066C0.324,-0.066 0.348,-0.073 0.369,-0.086C0.39,-0.098 0.409,-0.116 0.426,-0.137L0.494,-0.085C0.444,-0.02 0.374,0.012 0.284,0.012C0.247,0.012 0.213,0.006 0.183,-0.007C0.152,-0.02 0.127,-0.037 0.106,-0.06C0.085,-0.082 0.068,-0.108 0.057,-0.139C0.046,-0.169 0.04,-0.202 0.04,-0.237C0.04,-0.272 0.046,-0.305 0.059,-0.336C0.071,-0.366 0.088,-0.392 0.11,-0.415C0.131,-0.437 0.157,-0.454 0.187,-0.467C0.217,-0.48 0.25,-0.486 0.285,-0.486C0.327,-0.486 0.363,-0.479 0.392,-0.464C0.421,-0.449 0.444,-0.43 0.463,-0.407C0.482,-0.383 0.495,-0.356 0.504,-0.327C0.512,-0.297 0.516,-0.267 0.516,-0.236L0.516,-0.204L0.136,-0.204ZM0.42,-0.276C0.419,-0.296 0.416,-0.314 0.411,-0.331C0.405,-0.348 0.396,-0.362 0.385,-0.375C0.374,-0.387 0.36,-0.397 0.343,-0.404C0.326,-0.411 0.306,-0.414 0.283,-0.414C0.261,-0.414 0.241,-0.41 0.223,-0.402C0.204,-0.393 0.189,-0.382 0.176,-0.369C0.163,-0.356 0.154,-0.341 0.147,-0.325C0.139,-0.308 0.136,-0.292 0.136,-0.276L0.42,-0.276Z" style="fill:rgb(118,255,0);fill-rule:nonzero;stroke:black;stroke-width:0.02px;stroke-linecap:butt;stroke-miterlimit:2;"/>
            </g>
            <g transform="matrix(66.4694,0,0,66.4694,3290.01,1002.08)">
                <path d="M0.068,-0.474L0.158,-0.474L0.158,-0.401L0.16,-0.401C0.166,-0.414 0.174,-0.425 0.184,-0.436C0.194,-0.446 0.205,-0.455 0.218,-0.462C0.23,-0.469 0.243,-0.475 0.258,-0.48C0.273,-0.484 0.287,-0.486 0.302,-0.486C0.317,-0.486 0.33,-0.484 0.342,-0.48L0.338,-0.383C0.331,-0.385 0.323,-0.387 0.316,-0.388C0.309,-0.389 0.301,-0.39 0.294,-0.39C0.25,-0.39 0.216,-0.378 0.193,-0.353C0.17,-0.328 0.158,-0.29 0.158,-0.238L0.158,-0L0.068,-0L0.068,-0.474Z" style="fill:rgb(118,255,0);fill-rule:nonzero;stroke:black;stroke-width:0.02px;stroke-linecap:butt;stroke-miterlimit:2;"/>
            </g>
            <g transform="matrix(66.4694,0,0,66.4694,3313.4,1002.08)">
                <path d="M0.136,-0.204C0.136,-0.183 0.14,-0.165 0.15,-0.148C0.159,-0.13 0.17,-0.116 0.185,-0.104C0.2,-0.092 0.217,-0.083 0.236,-0.076C0.255,-0.069 0.275,-0.066 0.296,-0.066C0.324,-0.066 0.348,-0.073 0.369,-0.086C0.39,-0.098 0.409,-0.116 0.426,-0.137L0.494,-0.085C0.444,-0.02 0.374,0.012 0.284,0.012C0.247,0.012 0.213,0.006 0.183,-0.007C0.152,-0.02 0.127,-0.037 0.106,-0.06C0.085,-0.082 0.068,-0.108 0.057,-0.139C0.046,-0.169 0.04,-0.202 0.04,-0.237C0.04,-0.272 0.046,-0.305 0.059,-0.336C0.071,-0.366 0.088,-0.392 0.11,-0.415C0.131,-0.437 0.157,-0.454 0.187,-0.467C0.217,-0.48 0.25,-0.486 0.285,-0.486C0.327,-0.486 0.363,-0.479 0.392,-0.464C0.421,-0.449 0.444,-0.43 0.463,-0.407C0.482,-0.383 0.495,-0.356 0.504,-0.327C0.512,-0.297 0.516,-0.267 0.516,-0.236L0.516,-0.204L0.136,-0.204ZM0.42,-0.276C0.419,-0.296 0.416,-0.314 0.411,-0.331C0.405,-0.348 0.396,-0.362 0.385,-0.375C0.374,-0.387 0.36,-0.397 0.343,-0.404C0.326,-0.411 0.306,-0.414 0.283,-0.414C0.261,-0.414 0.241,-0.41 0.223,-0.402C0.204,-0.393 0.189,-0.382 0.176,-0.369C0.163,-0.356 0.154,-0.341 0.147,-0.325C0.139,-0.308 0.136,-0.292 0.136,-0.276L0.42,-0.276Z" style="fill:rgb(118,255,0);fill-rule:nonzero;stroke:black;stroke-width:0.02px;stroke-linecap:butt;stroke-miterlimit:2;"/>
            </g>
            <g transform="matrix(66.4694,0,0,66.4694,3350.36,1002.08)">
                <path d="M0.32,-0.355C0.309,-0.368 0.296,-0.38 0.281,-0.389C0.265,-0.398 0.246,-0.402 0.223,-0.402C0.202,-0.402 0.183,-0.398 0.168,-0.389C0.152,-0.38 0.144,-0.366 0.144,-0.349C0.144,-0.335 0.149,-0.324 0.158,-0.315C0.167,-0.306 0.177,-0.299 0.19,-0.294C0.202,-0.289 0.215,-0.285 0.229,-0.282C0.243,-0.279 0.255,-0.277 0.265,-0.275C0.284,-0.27 0.303,-0.265 0.32,-0.258C0.337,-0.251 0.351,-0.243 0.364,-0.232C0.376,-0.221 0.386,-0.208 0.393,-0.193C0.4,-0.178 0.403,-0.159 0.403,-0.137C0.403,-0.11 0.397,-0.088 0.386,-0.069C0.375,-0.05 0.36,-0.034 0.342,-0.022C0.324,-0.01 0.304,-0.001 0.281,0.004C0.258,0.009 0.234,0.012 0.211,0.012C0.172,0.012 0.137,0.006 0.108,-0.006C0.078,-0.018 0.051,-0.04 0.028,-0.072L0.096,-0.128C0.111,-0.113 0.127,-0.1 0.145,-0.089C0.163,-0.078 0.185,-0.072 0.211,-0.072C0.222,-0.072 0.234,-0.073 0.246,-0.076C0.257,-0.078 0.268,-0.082 0.277,-0.087C0.286,-0.092 0.293,-0.098 0.299,-0.106C0.304,-0.113 0.307,-0.122 0.307,-0.132C0.307,-0.145 0.303,-0.156 0.295,-0.165C0.286,-0.174 0.276,-0.181 0.265,-0.186C0.253,-0.191 0.241,-0.195 0.228,-0.198C0.215,-0.201 0.203,-0.203 0.193,-0.205C0.174,-0.21 0.155,-0.215 0.138,-0.221C0.121,-0.227 0.105,-0.235 0.092,-0.245C0.079,-0.255 0.068,-0.268 0.06,-0.283C0.052,-0.298 0.048,-0.317 0.048,-0.34C0.048,-0.365 0.053,-0.386 0.064,-0.405C0.074,-0.423 0.088,-0.438 0.105,-0.45C0.122,-0.462 0.141,-0.471 0.163,-0.477C0.184,-0.483 0.206,-0.486 0.228,-0.486C0.26,-0.486 0.291,-0.48 0.32,-0.468C0.349,-0.456 0.373,-0.436 0.39,-0.408L0.32,-0.355Z" style="fill:rgb(118,255,0);fill-rule:nonzero;stroke:black;stroke-width:0.02px;stroke-linecap:butt;stroke-miterlimit:2;"/>
            </g>
            <g transform="matrix(66.4694,0,0,66.4694,3379.87,1002.08)">
                <path d="M0.322,-0.396L0.193,-0.396L0.193,-0.181C0.193,-0.168 0.193,-0.155 0.194,-0.142C0.195,-0.129 0.197,-0.117 0.202,-0.107C0.206,-0.096 0.213,-0.088 0.222,-0.082C0.231,-0.075 0.244,-0.072 0.261,-0.072C0.272,-0.072 0.283,-0.073 0.294,-0.075C0.305,-0.077 0.316,-0.081 0.325,-0.086L0.325,-0.004C0.314,0.002 0.301,0.006 0.284,0.009C0.267,0.011 0.253,0.012 0.244,0.012C0.209,0.012 0.183,0.007 0.164,-0.003C0.145,-0.012 0.131,-0.025 0.122,-0.04C0.113,-0.055 0.107,-0.073 0.106,-0.092C0.104,-0.111 0.103,-0.13 0.103,-0.149L0.103,-0.396L-0.001,-0.396L-0.001,-0.474L0.103,-0.474L0.103,-0.607L0.193,-0.607L0.193,-0.474L0.322,-0.474L0.322,-0.396Z" style="fill:rgb(118,255,0);fill-rule:nonzero;stroke:black;stroke-width:0.02px;stroke-linecap:butt;stroke-miterlimit:2;"/>
            </g>
        </g>
        <g transform="matrix(1.6511,0,0,1.6511,-2079.43,351.141)">
            <g transform="matrix(66.4694,0,0,66.4694,2839.35,1002.08)">
                <path d="M0.068,-0.474L0.158,-0.474L0.158,-0.401L0.16,-0.401C0.166,-0.414 0.174,-0.425 0.184,-0.436C0.194,-0.446 0.205,-0.455 0.218,-0.462C0.23,-0.469 0.243,-0.475 0.258,-0.48C0.273,-0.484 0.287,-0.486 0.302,-0.486C0.317,-0.486 0.33,-0.484 0.342,-0.48L0.338,-0.383C0.331,-0.385 0.323,-0.387 0.316,-0.388C0.309,-0.389 0.301,-0.39 0.294,-0.39C0.25,-0.39 0.216,-0.378 0.193,-0.353C0.17,-0.328 0.158,-0.29 0.158,-0.238L0.158,-0L0.068,-0L0.068,-0.474Z" style="fill:rgb(118,255,0);fill-rule:nonzero;stroke:black;stroke-width:0.01px;stroke-linecap:butt;stroke-miterlimit:2;"/>
            </g>
        </g>
        <g transform="matrix(1.12501,0,0,1.12501,-244.152,628.867)">
            <g transform="matrix(66.4694,0,0,66.4694,2839.35,1002.08)">
                <path d="M0.068,-0.474L0.158,-0.474L0.158,-0.401L0.16,-0.401C0.166,-0.414 0.174,-0.425 0.184,-0.436C0.194,-0.446 0.205,-0.455 0.218,-0.462C0.23,-0.469 0.243,-0.475 0.258,-0.48C0.273,-0.484 0.287,-0.486 0.302,-0.486C0.317,-0.486 0.33,-0.484 0.342,-0.48L0.338,-0.383C0.331,-0.385 0.323,-0.387 0.316,-0.388C0.309,-0.389 0.301,-0.39 0.294,-0.39C0.25,-0.39 0.216,-0.378 0.193,-0.353C0.17,-0.328 0.158,-0.29 0.158,-0.238L0.158,-0L0.068,-0L0.068,-0.474Z" style="fill-rule:nonzero;stroke:black;stroke-width:0.01px;stroke-linecap:butt;stroke-miterlimit:2;"/>
            </g>
        </g>
        <g transform="matrix(0.659756,0,0,1,339.177,1237.22)">
            <path d="M2845.69,1020.26L2870.81,1020.26" style="fill:none;stroke:rgb(118,240,13);stroke-opacity:0.99;stroke-width:8.98px;"/>
        </g>
        <g transform="matrix(0.843124,0,0,1,220.037,996.645)">
            <path d="M2845.69,1020.26L2870.81,1020.26" style="fill:none;stroke:rgb(118,240,13);stroke-opacity:0.99;stroke-width:13.69px;"/>
        </g>
        <g transform="matrix(0.574478,0,0,0.681369,1322.63,1068.69)">
            <path d="M2845.69,1020.26L2870.81,1020.26" style="fill:none;stroke:black;stroke-opacity:0.99;stroke-width:12.92px;"/>
        </g>
        <g transform="matrix(1.00032,0,0,1.00032,-651.494,1232.92)">
            <g transform="matrix(37.3885,0,0,37.3885,2889.23,1041.85)">
                <path d="M0.075,-0.474L0.165,-0.474L0.165,-0L0.075,-0L0.075,-0.474ZM0.054,-0.644C0.054,-0.662 0.061,-0.678 0.074,-0.691C0.087,-0.704 0.102,-0.71 0.12,-0.71C0.138,-0.71 0.154,-0.704 0.167,-0.691C0.18,-0.678 0.186,-0.662 0.186,-0.644C0.186,-0.626 0.18,-0.611 0.167,-0.598C0.154,-0.584 0.138,-0.578 0.12,-0.578C0.102,-0.578 0.087,-0.584 0.074,-0.598C0.061,-0.611 0.054,-0.626 0.054,-0.644Z" style="fill:rgb(118,255,0);fill-rule:nonzero;stroke:black;stroke-width:0.03px;stroke-linecap:butt;stroke-miterlimit:2;"/>
            </g>
        </g>
        <g transform="matrix(1.52767,0,0,1.52767,-1761.43,444.141)">
            <g transform="matrix(37.3885,0,0,37.3885,2889.23,1041.85)">
                <path d="M0.075,-0.474L0.165,-0.474L0.165,-0L0.075,-0L0.075,-0.474ZM0.054,-0.644C0.054,-0.662 0.061,-0.678 0.074,-0.691C0.087,-0.704 0.102,-0.71 0.12,-0.71C0.138,-0.71 0.154,-0.704 0.167,-0.691C0.18,-0.678 0.186,-0.662 0.186,-0.644C0.186,-0.626 0.18,-0.611 0.167,-0.598C0.154,-0.584 0.138,-0.578 0.12,-0.578C0.102,-0.578 0.087,-0.584 0.074,-0.598C0.061,-0.611 0.054,-0.626 0.054,-0.644Z" style="fill:rgb(118,255,0);fill-rule:nonzero;stroke:black;stroke-width:0.02px;stroke-linecap:butt;stroke-miterlimit:2;"/>
            </g>
        </g>
        <g transform="matrix(1.04091,0,0,1.04091,-27.4776,692.234)">
            <g transform="matrix(37.3885,0,0,37.3885,2889.23,1041.85)">
                <path d="M0.165,-0.474L0.165,0.068C0.165,0.08 0.164,0.096 0.163,0.116C0.161,0.135 0.156,0.154 0.147,0.173C0.137,0.191 0.123,0.207 0.104,0.22C0.084,0.233 0.056,0.24 0.02,0.24C0.01,0.24 0,0.239 -0.01,0.238C-0.019,0.237 -0.029,0.234 -0.038,0.231L-0.028,0.148C-0.023,0.15 -0.017,0.152 -0.01,0.154C-0.003,0.155 0.003,0.156 0.009,0.156C0.034,0.156 0.051,0.148 0.061,0.133C0.07,0.117 0.075,0.094 0.075,0.064L0.075,-0.474L0.165,-0.474ZM0.054,-0.644C0.054,-0.662 0.061,-0.678 0.074,-0.691C0.087,-0.704 0.102,-0.71 0.12,-0.71C0.138,-0.71 0.154,-0.704 0.167,-0.691C0.18,-0.678 0.186,-0.662 0.186,-0.644C0.186,-0.626 0.18,-0.611 0.167,-0.598C0.154,-0.584 0.138,-0.578 0.12,-0.578C0.102,-0.578 0.087,-0.584 0.074,-0.598C0.061,-0.611 0.054,-0.626 0.054,-0.644Z" style="fill-rule:nonzero;stroke:black;stroke-width:0.03px;stroke-linecap:butt;stroke-miterlimit:2;"/>
            </g>
        </g>
        <g transform="matrix(1,0,0,1,-250.039,990.223)">
            <g transform="matrix(106.259,0,0,106.259,2472.75,398.822)">
                <path d="M0.32,-0.355C0.309,-0.368 0.296,-0.38 0.281,-0.389C0.265,-0.398 0.246,-0.402 0.223,-0.402C0.202,-0.402 0.183,-0.398 0.168,-0.389C0.152,-0.38 0.144,-0.366 0.144,-0.349C0.144,-0.335 0.149,-0.324 0.158,-0.315C0.167,-0.306 0.177,-0.299 0.19,-0.294C0.202,-0.289 0.215,-0.285 0.229,-0.282C0.243,-0.279 0.255,-0.277 0.265,-0.275C0.284,-0.27 0.303,-0.265 0.32,-0.258C0.337,-0.251 0.351,-0.243 0.364,-0.232C0.376,-0.221 0.386,-0.208 0.393,-0.193C0.4,-0.178 0.403,-0.159 0.403,-0.137C0.403,-0.11 0.397,-0.088 0.386,-0.069C0.375,-0.05 0.36,-0.034 0.342,-0.022C0.324,-0.01 0.304,-0.001 0.281,0.004C0.258,0.009 0.234,0.012 0.211,0.012C0.172,0.012 0.137,0.006 0.108,-0.006C0.078,-0.018 0.051,-0.04 0.028,-0.072L0.096,-0.128C0.111,-0.113 0.127,-0.1 0.145,-0.089C0.163,-0.078 0.185,-0.072 0.211,-0.072C0.222,-0.072 0.234,-0.073 0.246,-0.076C0.257,-0.078 0.268,-0.082 0.277,-0.087C0.286,-0.092 0.293,-0.098 0.299,-0.106C0.304,-0.113 0.307,-0.122 0.307,-0.132C0.307,-0.145 0.303,-0.156 0.295,-0.165C0.286,-0.174 0.276,-0.181 0.265,-0.186C0.253,-0.191 0.241,-0.195 0.228,-0.198C0.215,-0.201 0.203,-0.203 0.193,-0.205C0.174,-0.21 0.155,-0.215 0.138,-0.221C0.121,-0.227 0.105,-0.235 0.092,-0.245C0.079,-0.255 0.068,-0.268 0.06,-0.283C0.052,-0.298 0.048,-0.317 0.048,-0.34C0.048,-0.365 0.053,-0.386 0.064,-0.405C0.074,-0.423 0.088,-0.438 0.105,-0.45C0.122,-0.462 0.141,-0.471 0.163,-0.477C0.184,-0.483 0.206,-0.486 0.228,-0.486C0.26,-0.486 0.291,-0.48 0.32,-0.468C0.349,-0.456 0.373,-0.436 0.39,-0.408L0.32,-0.355Z" style="fill-rule:nonzero;stroke:black;stroke-width:0.01px;stroke-linecap:butt;stroke-miterlimit:2;"/>
            </g>
            <g transform="matrix(106.259,0,0,106.259,2519.93,398.822)">
                <path d="M0.407,-0.348C0.39,-0.365 0.373,-0.379 0.355,-0.388C0.336,-0.397 0.314,-0.401 0.289,-0.401C0.264,-0.401 0.243,-0.397 0.225,-0.388C0.206,-0.379 0.191,-0.366 0.179,-0.351C0.166,-0.335 0.157,-0.317 0.151,-0.297C0.144,-0.276 0.141,-0.255 0.141,-0.233C0.141,-0.211 0.145,-0.19 0.152,-0.171C0.159,-0.151 0.17,-0.134 0.183,-0.119C0.196,-0.104 0.212,-0.093 0.231,-0.085C0.25,-0.076 0.271,-0.072 0.294,-0.072C0.319,-0.072 0.341,-0.077 0.359,-0.086C0.377,-0.095 0.394,-0.108 0.409,-0.125L0.473,-0.061C0.45,-0.035 0.423,-0.016 0.392,-0.005C0.361,0.006 0.328,0.012 0.293,0.012C0.256,0.012 0.223,0.006 0.193,-0.006C0.162,-0.018 0.136,-0.035 0.114,-0.057C0.092,-0.078 0.075,-0.104 0.063,-0.135C0.051,-0.165 0.045,-0.198 0.045,-0.235C0.045,-0.272 0.051,-0.305 0.063,-0.336C0.075,-0.367 0.092,-0.393 0.114,-0.415C0.135,-0.437 0.161,-0.454 0.192,-0.467C0.222,-0.479 0.256,-0.485 0.293,-0.485C0.328,-0.485 0.361,-0.479 0.393,-0.467C0.424,-0.454 0.452,-0.435 0.475,-0.41L0.407,-0.348Z" style="fill-rule:nonzero;stroke:black;stroke-width:0.01px;stroke-linecap:butt;stroke-miterlimit:2;"/>
            </g>
            <g transform="matrix(106.259,0,0,106.259,2571.15,398.822)">
                <path d="M0.07,-0.416C0.095,-0.439 0.125,-0.457 0.158,-0.469C0.191,-0.48 0.225,-0.486 0.258,-0.486C0.293,-0.486 0.323,-0.482 0.348,-0.473C0.373,-0.464 0.393,-0.453 0.409,-0.438C0.425,-0.423 0.437,-0.407 0.445,-0.388C0.452,-0.369 0.456,-0.349 0.456,-0.328L0.456,-0.086C0.456,-0.069 0.456,-0.054 0.457,-0.04C0.458,-0.026 0.459,-0.013 0.46,-0L0.38,-0C0.378,-0.024 0.377,-0.048 0.377,-0.072L0.375,-0.072C0.355,-0.041 0.331,-0.02 0.304,-0.007C0.277,0.006 0.245,0.012 0.209,0.012C0.187,0.012 0.166,0.009 0.146,0.003C0.126,-0.003 0.109,-0.012 0.094,-0.024C0.079,-0.036 0.067,-0.051 0.058,-0.069C0.049,-0.086 0.045,-0.107 0.045,-0.13C0.045,-0.161 0.052,-0.186 0.066,-0.207C0.079,-0.228 0.098,-0.245 0.122,-0.258C0.145,-0.271 0.173,-0.28 0.205,-0.286C0.236,-0.291 0.27,-0.294 0.306,-0.294L0.372,-0.294L0.372,-0.314C0.372,-0.326 0.37,-0.338 0.365,-0.35C0.36,-0.362 0.353,-0.373 0.344,-0.383C0.335,-0.392 0.323,-0.4 0.309,-0.406C0.295,-0.411 0.278,-0.414 0.259,-0.414C0.242,-0.414 0.227,-0.412 0.214,-0.409C0.201,-0.406 0.189,-0.402 0.178,-0.397C0.167,-0.392 0.158,-0.386 0.149,-0.379C0.14,-0.372 0.132,-0.366 0.124,-0.36L0.07,-0.416ZM0.324,-0.228C0.303,-0.228 0.281,-0.227 0.259,-0.225C0.236,-0.222 0.216,-0.218 0.198,-0.211C0.179,-0.204 0.164,-0.195 0.153,-0.183C0.141,-0.171 0.135,-0.156 0.135,-0.137C0.135,-0.11 0.144,-0.09 0.163,-0.078C0.181,-0.066 0.206,-0.06 0.237,-0.06C0.262,-0.06 0.283,-0.064 0.3,-0.073C0.317,-0.081 0.331,-0.092 0.342,-0.105C0.353,-0.118 0.36,-0.133 0.365,-0.15C0.37,-0.166 0.372,-0.182 0.372,-0.198L0.372,-0.228L0.324,-0.228Z" style="fill-rule:nonzero;stroke:black;stroke-width:0.01px;stroke-linecap:butt;stroke-miterlimit:2;"/>
            </g>
            <g transform="matrix(106.259,0,0,106.259,2626.29,398.822)">
                <path d="M0.322,-0.396L0.193,-0.396L0.193,-0.181C0.193,-0.168 0.193,-0.155 0.194,-0.142C0.195,-0.129 0.197,-0.117 0.202,-0.107C0.206,-0.096 0.213,-0.088 0.222,-0.082C0.231,-0.075 0.244,-0.072 0.261,-0.072C0.272,-0.072 0.283,-0.073 0.294,-0.075C0.305,-0.077 0.316,-0.081 0.325,-0.086L0.325,-0.004C0.314,0.002 0.301,0.006 0.284,0.009C0.267,0.011 0.253,0.012 0.244,0.012C0.209,0.012 0.183,0.007 0.164,-0.003C0.145,-0.012 0.131,-0.025 0.122,-0.04C0.113,-0.055 0.107,-0.073 0.106,-0.092C0.104,-0.111 0.103,-0.13 0.103,-0.149L0.103,-0.396L-0.001,-0.396L-0.001,-0.474L0.103,-0.474L0.103,-0.607L0.193,-0.607L0.193,-0.474L0.322,-0.474L0.322,-0.396Z" style="fill-rule:nonzero;stroke:black;stroke-width:0.01px;stroke-linecap:butt;stroke-miterlimit:2;"/>
            </g>
            <g transform="matrix(106.259,0,0,106.259,2665.61,398.822)">
                <path d="M0.322,-0.396L0.193,-0.396L0.193,-0.181C0.193,-0.168 0.193,-0.155 0.194,-0.142C0.195,-0.129 0.197,-0.117 0.202,-0.107C0.206,-0.096 0.213,-0.088 0.222,-0.082C0.231,-0.075 0.244,-0.072 0.261,-0.072C0.272,-0.072 0.283,-0.073 0.294,-0.075C0.305,-0.077 0.316,-0.081 0.325,-0.086L0.325,-0.004C0.314,0.002 0.301,0.006 0.284,0.009C0.267,0.011 0.253,0.012 0.244,0.012C0.209,0.012 0.183,0.007 0.164,-0.003C0.145,-0.012 0.131,-0.025 0.122,-0.04C0.113,-0.055 0.107,-0.073 0.106,-0.092C0.104,-0.111 0.103,-0.13 0.103,-0.149L0.103,-0.396L-0.001,-0.396L-0.001,-0.474L0.103,-0.474L0.103,-0.607L0.193,-0.607L0.193,-0.474L0.322,-0.474L0.322,-0.396Z" style="fill-rule:nonzero;stroke:black;stroke-width:0.01px;stroke-linecap:butt;stroke-miterlimit:2;"/>
            </g>
            <g transform="matrix(106.259,0,0,106.259,2704.93,398.822)">
                <path d="M0.136,-0.204C0.136,-0.183 0.14,-0.165 0.15,-0.148C0.159,-0.13 0.17,-0.116 0.185,-0.104C0.2,-0.092 0.217,-0.083 0.236,-0.076C0.255,-0.069 0.275,-0.066 0.296,-0.066C0.324,-0.066 0.348,-0.073 0.369,-0.086C0.39,-0.098 0.409,-0.116 0.426,-0.137L0.494,-0.085C0.444,-0.02 0.374,0.012 0.284,0.012C0.247,0.012 0.213,0.006 0.183,-0.007C0.152,-0.02 0.127,-0.037 0.106,-0.06C0.085,-0.082 0.068,-0.108 0.057,-0.139C0.046,-0.169 0.04,-0.202 0.04,-0.237C0.04,-0.272 0.046,-0.305 0.059,-0.336C0.071,-0.366 0.088,-0.392 0.11,-0.415C0.131,-0.437 0.157,-0.454 0.187,-0.467C0.217,-0.48 0.25,-0.486 0.285,-0.486C0.327,-0.486 0.363,-0.479 0.392,-0.464C0.421,-0.449 0.444,-0.43 0.463,-0.407C0.482,-0.383 0.495,-0.356 0.504,-0.327C0.512,-0.297 0.516,-0.267 0.516,-0.236L0.516,-0.204L0.136,-0.204ZM0.42,-0.276C0.419,-0.296 0.416,-0.314 0.411,-0.331C0.405,-0.348 0.396,-0.362 0.385,-0.375C0.374,-0.387 0.36,-0.397 0.343,-0.404C0.326,-0.411 0.306,-0.414 0.283,-0.414C0.261,-0.414 0.241,-0.41 0.223,-0.402C0.204,-0.393 0.189,-0.382 0.176,-0.369C0.163,-0.356 0.154,-0.341 0.147,-0.325C0.139,-0.308 0.136,-0.292 0.136,-0.276L0.42,-0.276Z" style="fill-rule:nonzero;stroke:black;stroke-width:0.01px;stroke-linecap:butt;stroke-miterlimit:2;"/>
            </g>
            <g transform="matrix(106.259,0,0,106.259,2764.01,398.822)">
                <path d="M0.068,-0.474L0.158,-0.474L0.158,-0.401L0.16,-0.401C0.166,-0.414 0.174,-0.425 0.184,-0.436C0.194,-0.446 0.205,-0.455 0.218,-0.462C0.23,-0.469 0.243,-0.475 0.258,-0.48C0.273,-0.484 0.287,-0.486 0.302,-0.486C0.317,-0.486 0.33,-0.484 0.342,-0.48L0.338,-0.383C0.331,-0.385 0.323,-0.387 0.316,-0.388C0.309,-0.389 0.301,-0.39 0.294,-0.39C0.25,-0.39 0.216,-0.378 0.193,-0.353C0.17,-0.328 0.158,-0.29 0.158,-0.238L0.158,-0L0.068,-0L0.068,-0.474Z" style="fill-rule:nonzero;stroke:black;stroke-width:0.01px;stroke-linecap:butt;stroke-miterlimit:2;"/>
            </g>
        </g>
        <g transform="matrix(1,0,0,1,-261.779,997.294)">
            <path d="M3076.84,743.295C3053.73,752.558 3036.11,773.64 3035.16,799.258" style="fill:none;stroke:rgb(13,63,240);stroke-width:7.36px;"/>
        </g>
        <g transform="matrix(1,0,0,1,-261.779,997.294)">
            <path d="M3035.16,799.258L3026.09,786.786" style="fill:none;stroke:rgb(13,63,240);stroke-width:7.36px;"/>
        </g>
        <g transform="matrix(1,0,0,1,-261.779,997.294)">
            <path d="M3035.16,799.258L3047.74,790.345" style="fill:none;stroke:rgb(13,63,240);stroke-width:7.36px;"/>
        </g>
        <g transform="matrix(1.57865,0,0,1.57865,-1704.16,602.332)">
            <g transform="matrix(59.9468,0,0,59.9468,2738.14,778.442)">
                <path d="M0.068,-0.474L0.158,-0.474L0.158,-0.401L0.16,-0.401C0.166,-0.414 0.174,-0.425 0.184,-0.436C0.194,-0.446 0.205,-0.455 0.218,-0.462C0.23,-0.469 0.243,-0.475 0.258,-0.48C0.273,-0.484 0.287,-0.486 0.302,-0.486C0.317,-0.486 0.33,-0.484 0.342,-0.48L0.338,-0.383C0.331,-0.385 0.323,-0.387 0.316,-0.388C0.309,-0.389 0.301,-0.39 0.294,-0.39C0.25,-0.39 0.216,-0.378 0.193,-0.353C0.17,-0.328 0.158,-0.29 0.158,-0.238L0.158,-0L0.068,-0L0.068,-0.474Z" style="fill-rule:nonzero;stroke:black;stroke-width:0.01px;stroke-linecap:butt;stroke-miterlimit:2;"/>
            </g>
        </g>
        <g transform="matrix(1,0,0,1,-172.777,1017.97)">
            <g transform="matrix(43.2308,0,0,43.2308,2818.98,830.251)">
                <path d="M0.165,-0.474L0.165,0.068C0.165,0.08 0.164,0.096 0.163,0.116C0.161,0.135 0.156,0.154 0.147,0.173C0.137,0.191 0.123,0.207 0.104,0.22C0.084,0.233 0.056,0.24 0.02,0.24C0.01,0.24 0,0.239 -0.01,0.238C-0.019,0.237 -0.029,0.234 -0.038,0.231L-0.028,0.148C-0.023,0.15 -0.017,0.152 -0.01,0.154C-0.003,0.155 0.003,0.156 0.009,0.156C0.034,0.156 0.051,0.148 0.061,0.133C0.07,0.117 0.075,0.094 0.075,0.064L0.075,-0.474L0.165,-0.474ZM0.054,-0.644C0.054,-0.662 0.061,-0.678 0.074,-0.691C0.087,-0.704 0.102,-0.71 0.12,-0.71C0.138,-0.71 0.154,-0.704 0.167,-0.691C0.18,-0.678 0.186,-0.662 0.186,-0.644C0.186,-0.626 0.18,-0.611 0.167,-0.598C0.154,-0.584 0.138,-0.578 0.12,-0.578C0.102,-0.578 0.087,-0.584 0.074,-0.598C0.061,-0.611 0.054,-0.626 0.054,-0.644Z" style="fill-rule:nonzero;stroke:black;stroke-width:0.02px;stroke-linecap:butt;stroke-miterlimit:2;"/>
            </g>
        </g>
        <path d="M2976.41,1619.16L2967.61,1697.57" style="fill:none;stroke:rgb(255,0,12);stroke-opacity:0.99;stroke-width:7.61px;"/>
        <path d="M2967.61,1697.57L2957.01,1678.78" style="fill:none;stroke:rgb(255,0,12);stroke-opacity:0.99;stroke-width:7.61px;"/>
        <path d="M2967.61,1697.57L2985.43,1682.15" style="fill:none;stroke:rgb(255,0,12);stroke-opacity:0.99;stroke-width:7.61px;"/>
        <g transform="matrix(1,0,0,1,8.30739,28.0487)">
            <g transform="matrix(132.932,0,0,132.932,2951.14,1567.49)">
                <path d="M0.185,-0.204L0.089,-0.204L0.089,-0.708L0.185,-0.708L0.185,-0.204ZM0.073,-0.06C0.073,-0.078 0.08,-0.094 0.093,-0.107C0.106,-0.119 0.121,-0.126 0.139,-0.126C0.157,-0.126 0.173,-0.119 0.186,-0.107C0.199,-0.094 0.205,-0.078 0.205,-0.06C0.205,-0.042 0.199,-0.027 0.186,-0.014C0.173,-0 0.157,0.006 0.139,0.006C0.121,0.006 0.106,-0 0.093,-0.014C0.08,-0.027 0.073,-0.042 0.073,-0.06Z" style="fill:rgb(255,0,13);fill-rule:nonzero;stroke:rgb(255,55,0);stroke-width:0.01px;stroke-linecap:butt;stroke-miterlimit:2;"/>
            </g>
        </g>
    </g>
    <defs>
        <radialGradient id="_Radial1" cx="0" cy="0" r="1" gradientUnits="userSpaceOnUse" gradientTransform="matrix(-75.0331,228.517,-228.517,-75.0331,1217.51,825.674)"><stop offset="0" style="stop-color:rgb(255,59,0);stop-opacity:1"/><stop offset="1" style="stop-color:rgb(227,84,41);stop-opacity:0.24"/></radialGradient>
        <radialGradient id="_Radial2" cx="0" cy="0" r="1" gradientUnits="userSpaceOnUse" gradientTransform="matrix(-75.0331,228.517,-228.517,-75.0331,1217.51,825.674)"><stop offset="0" style="stop-color:rgb(255,59,0);stop-opacity:1"/><stop offset="1" style="stop-color:rgb(227,84,41);stop-opacity:0.24"/></radialGradient>
        <radialGradient id="_Radial3" cx="0" cy="0" r="1" gradientUnits="userSpaceOnUse" gradientTransform="matrix(-75.0331,228.517,-228.517,-75.0331,1217.51,825.674)"><stop offset="0" style="stop-color:rgb(255,59,0);stop-opacity:1"/><stop offset="1" style="stop-color:rgb(227,84,41);stop-opacity:0.24"/></radialGradient>
    </defs>
</svg>
