<?xml version="1.0" encoding="UTF-8" standalone="no"?>
<!DOCTYPE svg PUBLIC "-//W3C//DTD SVG 1.1//EN" "http://www.w3.org/Graphics/SVG/1.1/DTD/svg11.dtd">
<svg width="100%" height="100%" viewBox="0 0 1463 738" version="1.1" xmlns="http://www.w3.org/2000/svg" xmlns:xlink="http://www.w3.org/1999/xlink" xml:space="preserve" xmlns:serif="http://www.serif.com/" style="fill-rule:evenodd;clip-rule:evenodd;stroke-linejoin:round;">
    <g transform="matrix(1,0,0,1,-1201.82,-553.407)">
        <g id="fosm_script.svg" transform="matrix(4.30997,0,0,4.30997,1918.23,1979.48)">
            <g transform="matrix(1,0,0,1,-297.638,-420.945)">
                <g>
                    <clipPath id="_clip1">
                        <rect x="137.001" y="83.38" width="340.171" height="173.134"/>
                    </clipPath>
                    <g clip-path="url(#_clip1)">
                        <g transform="matrix(0.12171,0,0,-0.12214,137.001,256.513)">
                            <path d="M7.095,595.697L2530.08,596.262" style="fill:none;fill-rule:nonzero;stroke:rgb(1,1,1);stroke-width:14.47px;"/>
                        </g>
                        <g transform="matrix(1,0,0,-1,0,841.89)">
                            <path d="M442.277,653.04L441.242,651.653L459.583,658.274L441.242,664.825L442.243,663.508L443.038,661.914L443.556,660.18L443.763,658.309L443.59,656.437L443.072,654.669L442.277,653.04" style="fill:rgb(1,1,1);"/>
                        </g>
                        <g transform="matrix(0.12171,0,0,-0.12214,137.001,256.513)">
                            <path d="M1287.89,7.378L1281.36,1178.05" style="fill:none;fill-rule:nonzero;stroke:rgb(1,1,1);stroke-width:14.47px;"/>
                        </g>
                        <g transform="matrix(1,0,0,-1,0,841.89)">
                            <path d="M298.102,726.665L299.449,725.659L292.886,743.788L286.496,725.59L287.809,726.56L289.363,727.358L291.056,727.912L292.886,728.121L294.751,727.982L296.513,727.462L298.102,726.665" style="fill:rgb(1,1,1);"/>
                        </g>
                        <g transform="matrix(1,0,0,-1,0,841.89)">
                            <path d="M271.401,743.476L272.161,745.765L277.895,745.765L277.895,745.487L271.678,739.144L274.476,739.144C275.029,739.144 275.374,739.144 275.512,739.212C275.685,739.248 275.822,739.351 275.926,739.524C276.065,739.698 276.203,739.976 276.376,740.391L276.755,740.391L275.96,737.861L270.158,737.861L270.158,738.103L276.376,744.482L273.681,744.482C273.163,744.482 272.852,744.482 272.749,744.447C272.61,744.412 272.438,744.309 272.265,744.17C272.127,744.031 271.954,743.788 271.782,743.476L271.401,743.476" style="fill:rgb(1,1,1);"/>
                        </g>
                        <g transform="matrix(1,0,0,-1,0,841.89)">
                            <path d="M460.101,651.93L462.415,652.416C462.726,652.139 462.933,651.861 463.071,651.584C463.175,651.341 463.348,650.683 463.625,649.643L464.418,650.891C464.626,651.203 464.902,651.48 465.178,651.757C465.489,652.035 465.766,652.242 466.007,652.347C466.146,652.416 466.318,652.416 466.491,652.416C466.733,652.416 466.94,652.347 467.113,652.173C467.251,652.035 467.32,651.827 467.32,651.584C467.32,651.341 467.285,651.133 467.183,651.029C467.044,650.856 466.836,650.787 466.629,650.787C466.491,650.787 466.353,650.821 466.214,650.926C465.904,651.064 465.732,651.168 465.628,651.168C465.489,651.168 465.317,651.064 465.11,650.891C464.729,650.579 464.281,649.989 463.763,649.088L464.557,646.246C464.66,645.795 464.764,645.518 464.833,645.414C464.937,645.345 465.006,645.275 465.076,645.275C465.213,645.275 465.351,645.345 465.523,645.483C465.869,645.76 466.146,646.107 466.388,646.558L466.698,646.384C466.318,645.691 465.835,645.137 465.282,644.651C464.937,644.409 464.66,644.27 464.453,644.27C464.108,644.27 463.866,644.443 463.659,644.756C463.521,644.998 463.244,645.934 462.864,647.667C461.967,646.142 461.241,645.137 460.688,644.721C460.342,644.409 459.997,644.27 459.687,644.27C459.445,644.27 459.238,644.374 459.031,644.547C458.892,644.686 458.823,644.859 458.823,645.102C458.823,645.31 458.892,645.483 459.031,645.622C459.133,645.726 459.306,645.795 459.479,645.795C459.687,645.795 459.858,645.726 460.067,645.518C460.239,645.379 460.342,645.31 460.412,645.31C460.482,645.31 460.584,645.345 460.688,645.414C460.964,645.622 461.309,646.072 461.793,646.766C462.242,647.424 462.553,647.91 462.691,648.222C462.277,649.608 462.035,650.336 462.001,650.406C461.863,650.752 461.69,651.029 461.483,651.168C461.275,651.341 460.964,651.41 460.55,651.41L460.101,651.41L460.101,651.93" style="fill:rgb(1,1,1);"/>
                        </g>
                        <g transform="matrix(0.12171,0,0,-0.12214,137.001,256.513)">
                            <path d="M414.633,674.593L1659.95,674.593" style="fill:none;fill-rule:nonzero;stroke:rgb(1,1,1);stroke-width:7.38px;"/>
                        </g>
                        <g transform="matrix(1,0,0,-1,0,841.89)">
                            <path d="M337.341,670.891L337.134,670.891L336.926,670.822L336.719,670.649L336.615,670.441L336.581,670.198L336.615,670.06L336.753,669.886L336.892,669.747L337.065,669.678L345.457,667.806L337.134,665.935L336.926,665.865L336.719,665.692L336.615,665.484L336.581,665.241L336.65,665.033L336.823,664.825L337.03,664.721L337.341,664.721L337.307,664.756L348.256,667.148L348.497,667.217L348.705,667.356L348.843,667.564L348.877,667.806L348.843,668.014L348.705,668.222L348.497,668.361L348.256,668.43L337.341,670.891" style="fill:rgb(1,1,1);"/>
                        </g>
                        <g transform="matrix(0.12171,0,0,-0.12214,137.001,256.513)">
                            <path d="M698.148,674.877L2024.63,674.877" style="fill:none;fill-rule:nonzero;stroke:rgb(1,1,1);stroke-width:7.1px;"/>
                        </g>
                        <g transform="matrix(0.12171,0,0,-0.12214,137.001,256.513)">
                            <path d="M414.633,761.151L1659.95,761.151" style="fill:none;fill-rule:nonzero;stroke:rgb(1,1,1);stroke-width:7.38px;"/>
                        </g>
                        <g transform="matrix(1,0,0,-1,0,841.89)">
                            <path d="M337.341,681.429L337.134,681.429L336.926,681.36L336.719,681.186L336.615,680.978L336.581,680.736L336.615,680.597L336.753,680.424L336.892,680.285L337.065,680.216L345.457,678.344L337.134,676.507L336.926,676.437L336.719,676.264L336.615,676.056L336.581,675.813L336.65,675.605L336.823,675.398L337.03,675.293L337.341,675.293L337.307,675.328L348.256,677.685L348.497,677.755L348.705,677.893L348.843,678.102L348.877,678.344L348.843,678.552L348.705,678.76L348.497,678.899L348.256,678.968L337.341,681.429" style="fill:rgb(1,1,1);"/>
                        </g>
                        <g transform="matrix(0.12171,0,0,-0.12214,137.001,256.513)">
                            <path d="M698.148,761.151L2024.63,761.151" style="fill:none;fill-rule:nonzero;stroke:rgb(1,1,1);stroke-width:7.1px;"/>
                        </g>
                        <g transform="matrix(0.12171,0,0,-0.12214,137.001,256.513)">
                            <path d="M414.633,847.71L1659.95,847.71" style="fill:none;fill-rule:nonzero;stroke:rgb(1,1,1);stroke-width:7.38px;"/>
                        </g>
                        <g transform="matrix(1,0,0,-1,0,841.89)">
                            <path d="M337.341,692.001L337.134,692.001L336.926,691.932L336.719,691.759L336.615,691.551L336.581,691.308L336.615,691.169L336.753,690.996L336.892,690.857L337.065,690.788L345.457,688.916L337.134,687.044L336.926,686.975L336.719,686.802L336.615,686.594L336.581,686.351L336.65,686.143L336.823,685.935L337.03,685.831L337.341,685.831L337.307,685.866L348.256,688.257L348.497,688.327L348.705,688.466L348.843,688.674L348.877,688.916L348.843,689.124L348.705,689.332L348.497,689.471L348.256,689.54L337.341,692.001" style="fill:rgb(1,1,1);"/>
                        </g>
                        <g transform="matrix(0.12171,0,0,-0.12214,137.001,256.513)">
                            <path d="M698.148,847.71L2024.63,847.71" style="fill:none;fill-rule:nonzero;stroke:rgb(1,1,1);stroke-width:7.1px;"/>
                        </g>
                        <g transform="matrix(0.12171,0,0,-0.12214,137.001,256.513)">
                            <path d="M414.633,934.268L1659.95,934.268" style="fill:none;fill-rule:nonzero;stroke:rgb(1,1,1);stroke-width:7.38px;"/>
                        </g>
                        <g transform="matrix(1,0,0,-1,0,841.89)">
                            <path d="M337.341,702.574L337.134,702.574L336.926,702.504L336.719,702.331L336.615,702.123L336.581,701.88L336.615,701.742L336.753,701.568L336.892,701.43L337.065,701.361L345.457,699.488L337.134,697.617L336.926,697.548L336.719,697.374L336.615,697.166L336.581,696.924L336.65,696.716L336.823,696.507L337.03,696.404L337.341,696.404L337.307,696.438L348.256,698.83L348.497,698.899L348.705,699.038L348.843,699.246L348.877,699.488L348.843,699.696L348.705,699.905L348.497,700.043L348.256,700.112L337.341,702.574" style="fill:rgb(1,1,1);"/>
                        </g>
                        <g transform="matrix(0.12171,0,0,-0.12214,137.001,256.513)">
                            <path d="M698.148,934.268L2024.63,934.268" style="fill:none;fill-rule:nonzero;stroke:rgb(1,1,1);stroke-width:7.1px;"/>
                        </g>
                        <g transform="matrix(0.12171,0,0,-0.12214,137.001,256.513)">
                            <path d="M414.633,1020.83L1659.95,1020.83" style="fill:none;fill-rule:nonzero;stroke:rgb(1,1,1);stroke-width:7.38px;"/>
                        </g>
                        <g transform="matrix(1,0,0,-1,0,841.89)">
                            <path d="M337.341,713.146L337.134,713.146L336.926,713.076L336.719,712.903L336.615,712.695L336.581,712.452L336.615,712.314L336.753,712.14L336.892,712.002L337.065,711.933L345.457,710.061L337.134,708.188L336.926,708.12L336.719,707.947L336.615,707.739L336.581,707.496L336.65,707.288L336.823,707.08L337.03,706.976L337.341,706.976L337.307,707.011L348.256,709.403L348.497,709.471L348.705,709.61L348.843,709.819L348.877,710.061L348.843,710.268L348.705,710.477L348.497,710.616L348.256,710.685L337.341,713.146" style="fill:rgb(1,1,1);"/>
                        </g>
                        <g transform="matrix(0.12171,0,0,-0.12214,137.001,256.513)">
                            <path d="M698.148,1020.83L2024.63,1020.83" style="fill:none;fill-rule:nonzero;stroke:rgb(1,1,1);stroke-width:7.1px;"/>
                        </g>
                        <g transform="matrix(0.12171,0,0,-0.12214,137.001,256.513)">
                            <path d="M414.633,1107.39L1659.95,1107.39" style="fill:none;fill-rule:nonzero;stroke:rgb(1,1,1);stroke-width:7.38px;"/>
                        </g>
                        <g transform="matrix(1,0,0,-1,0,841.89)">
                            <path d="M337.341,723.718L337.134,723.718L336.926,723.649L336.719,723.475L336.615,723.268L336.581,723.026L336.615,722.886L336.753,722.713L336.892,722.574L337.065,722.505L345.457,720.633L337.134,718.762L336.926,718.692L336.719,718.519L336.615,718.311L336.581,718.068L336.65,717.86L336.823,717.652L337.03,717.549L337.341,717.549L337.307,717.583L348.256,719.975L348.497,720.043L348.705,720.182L348.843,720.391L348.877,720.633L348.843,720.841L348.705,721.049L348.497,721.188L348.256,721.258L337.341,723.718" style="fill:rgb(1,1,1);"/>
                        </g>
                        <g transform="matrix(0.12171,0,0,-0.12214,137.001,256.513)">
                            <path d="M698.148,1107.39L2024.63,1107.39" style="fill:none;fill-rule:nonzero;stroke:rgb(1,1,1);stroke-width:7.1px;"/>
                        </g>
                        <g transform="matrix(0.12171,0,0,-0.12214,137.001,256.513)">
                            <path d="M2031.44,512.542L785.842,512.542" style="fill:none;fill-rule:nonzero;stroke:rgb(1,1,1);stroke-width:7.38px;"/>
                        </g>
                        <g transform="matrix(1,0,0,-1,0,841.89)">
                            <path d="M234.339,644.928L234.546,644.928L234.753,644.998L234.96,645.171L235.064,645.379L235.098,645.622L235.064,645.76L234.926,645.934L234.788,646.072L234.615,646.142L226.222,648.014L234.546,649.885L234.753,649.955L234.96,650.128L235.064,650.336L235.098,650.579L235.029,650.787L234.857,650.995L234.65,651.098L234.339,651.098L234.373,651.064L223.423,648.672L223.182,648.603L222.974,648.464L222.836,648.256L222.802,648.014L222.836,647.805L222.974,647.598L223.182,647.459L223.423,647.39L234.339,644.928" style="fill:rgb(1,1,1);"/>
                        </g>
                        <g transform="matrix(0.12171,0,0,-0.12214,137.001,256.513)">
                            <path d="M1747.64,512.827L421.16,512.827" style="fill:none;fill-rule:nonzero;stroke:rgb(1,1,1);stroke-width:7.1px;"/>
                        </g>
                        <g transform="matrix(0.12171,0,0,-0.12214,137.001,256.513)">
                            <path d="M2031.44,425.984L785.842,425.984" style="fill:none;fill-rule:nonzero;stroke:rgb(1,1,1);stroke-width:7.38px;"/>
                        </g>
                        <g transform="matrix(1,0,0,-1,0,841.89)">
                            <path d="M234.339,634.356L234.546,634.356L234.753,634.426L234.96,634.599L235.064,634.807L235.098,635.05L235.064,635.188L234.926,635.362L234.788,635.5L234.615,635.57L226.222,637.441L234.546,639.313L234.753,639.383L234.96,639.556L235.064,639.764L235.098,640.007L235.029,640.214L234.857,640.422L234.65,640.526L234.339,640.526L234.373,640.491L223.423,638.1L223.182,638.031L222.974,637.892L222.836,637.684L222.802,637.441L222.836,637.233L222.974,637.025L223.182,636.887L223.423,636.817L234.339,634.356" style="fill:rgb(1,1,1);"/>
                        </g>
                        <g transform="matrix(0.12171,0,0,-0.12214,137.001,256.513)">
                            <path d="M1747.64,426.269L421.16,426.269" style="fill:none;fill-rule:nonzero;stroke:rgb(1,1,1);stroke-width:7.1px;"/>
                        </g>
                        <g transform="matrix(0.12171,0,0,-0.12214,137.001,256.513)">
                            <path d="M2031.44,339.425L785.842,339.425" style="fill:none;fill-rule:nonzero;stroke:rgb(1,1,1);stroke-width:7.38px;"/>
                        </g>
                        <g transform="matrix(1,0,0,-1,0,841.89)">
                            <path d="M234.339,623.784L234.546,623.784L234.753,623.853L234.96,624.027L235.064,624.234L235.098,624.477L235.064,624.616L234.926,624.789L234.788,624.928L234.615,624.997L226.222,626.869L234.546,628.741L234.753,628.81L234.96,628.983L235.064,629.191L235.098,629.434L235.029,629.642L234.857,629.85L234.65,629.954L234.339,629.954L234.373,629.919L223.423,627.527L223.182,627.458L222.974,627.32L222.836,627.112L222.802,626.869L222.836,626.661L222.974,626.453L223.182,626.314L223.423,626.245L234.339,623.784" style="fill:rgb(1,1,1);"/>
                        </g>
                        <g transform="matrix(0.12171,0,0,-0.12214,137.001,256.513)">
                            <path d="M1747.64,339.71L421.16,339.71" style="fill:none;fill-rule:nonzero;stroke:rgb(1,1,1);stroke-width:7.1px;"/>
                        </g>
                        <g transform="matrix(0.12171,0,0,-0.12214,137.001,256.513)">
                            <path d="M2031.44,252.867L785.842,252.867" style="fill:none;fill-rule:nonzero;stroke:rgb(1,1,1);stroke-width:7.38px;"/>
                        </g>
                        <g transform="matrix(1,0,0,-1,0,841.89)">
                            <path d="M234.339,613.212L234.546,613.212L234.753,613.281L234.96,613.454L235.064,613.662L235.098,613.905L235.064,614.044L234.926,614.217L234.788,614.356L234.615,614.425L226.222,616.297L234.546,618.169L234.753,618.238L234.96,618.411L235.064,618.619L235.098,618.862L235.029,619.07L234.857,619.278L234.65,619.382L234.339,619.382L234.373,619.347L223.423,616.955L223.182,616.886L222.974,616.747L222.836,616.539L222.802,616.297L222.836,616.089L222.974,615.881L223.182,615.742L223.423,615.673L234.339,613.212" style="fill:rgb(1,1,1);"/>
                        </g>
                        <g transform="matrix(0.12171,0,0,-0.12214,137.001,256.513)">
                            <path d="M1747.64,253.148L421.16,253.148" style="fill:none;fill-rule:nonzero;stroke:rgb(1,1,1);stroke-width:7.1px;"/>
                        </g>
                        <g transform="matrix(0.12171,0,0,-0.12214,137.001,256.513)">
                            <path d="M2031.44,166.309L785.842,166.309" style="fill:none;fill-rule:nonzero;stroke:rgb(1,1,1);stroke-width:7.38px;"/>
                        </g>
                        <g transform="matrix(1,0,0,-1,0,841.89)">
                            <path d="M234.339,602.639L234.546,602.639L234.753,602.708L234.96,602.882L235.064,603.09L235.098,603.332L235.064,603.471L234.926,603.645L234.788,603.783L234.615,603.852L226.222,605.724L234.546,607.596L234.753,607.665L234.96,607.839L235.064,608.047L235.098,608.289L235.029,608.497L234.857,608.705L234.65,608.81L234.339,608.81L234.373,608.775L223.423,606.383L223.182,606.314L222.974,606.175L222.836,605.967L222.802,605.724L222.836,605.517L222.974,605.308L223.182,605.17L223.423,605.1L234.339,602.639" style="fill:rgb(1,1,1);"/>
                        </g>
                        <g transform="matrix(0.12171,0,0,-0.12214,137.001,256.513)">
                            <path d="M1747.64,166.589L421.16,166.589" style="fill:none;fill-rule:nonzero;stroke:rgb(1,1,1);stroke-width:7.1px;"/>
                        </g>
                        <g transform="matrix(0.12171,0,0,-0.12214,137.001,256.513)">
                            <path d="M2031.44,79.746L785.842,79.746" style="fill:none;fill-rule:nonzero;stroke:rgb(1,1,1);stroke-width:7.38px;"/>
                        </g>
                        <g transform="matrix(1,0,0,-1,0,841.89)">
                            <path d="M234.339,592.067L234.546,592.067L234.753,592.136L234.96,592.31L235.064,592.518L235.098,592.76L235.064,592.899L234.926,593.072L234.788,593.211L234.615,593.28L226.222,595.152L234.546,597.024L234.753,597.093L234.96,597.267L235.064,597.475L235.098,597.717L235.029,597.925L234.857,598.133L234.65,598.237L234.339,598.237L234.373,598.202L223.423,595.811L223.182,595.741L222.974,595.603L222.836,595.395L222.802,595.152L222.836,594.944L222.974,594.736L223.182,594.598L223.423,594.528L234.339,592.067" style="fill:rgb(1,1,1);"/>
                        </g>
                        <g transform="matrix(0.12171,0,0,-0.12214,137.001,256.513)">
                            <path d="M1747.64,80.031L421.16,80.031" style="fill:none;fill-rule:nonzero;stroke:rgb(1,1,1);stroke-width:7.1px;"/>
                        </g>
                        <g transform="matrix(1,0,0,-1,0,841.89)">
                            <path d="M157.76,705.104C165.221,705.104 170.92,699.384 170.92,691.897C170.92,684.41 165.221,678.691 157.76,678.691C150.299,678.691 144.6,684.41 144.6,691.897C144.6,699.384 150.299,705.104 157.76,705.104Z" style="fill:rgb(207,231,229);"/>
                        </g>
                        <g transform="matrix(0.12171,0,0,-0.12214,137.001,256.513)">
                            <path d="M170.562,980.246C231.866,980.246 278.69,933.418 278.69,872.116C278.69,810.818 231.866,763.99 170.562,763.99C109.263,763.99 62.434,810.818 62.434,872.116C62.434,933.418 109.263,980.246 170.562,980.246Z" style="fill:none;fill-rule:nonzero;"/>
                        </g>
                        <g transform="matrix(1,0,0,-1,0,841.89)">
                            <path d="M154.963,686.212L162.7,686.212L162.7,684.237L152.337,684.237C152.303,684.722 152.372,685.173 152.545,685.623C152.787,686.386 153.201,687.079 153.754,687.772C154.341,688.5 155.135,689.263 156.24,690.164C157.899,691.551 159.039,692.66 159.66,693.457C160.247,694.22 160.558,694.982 160.558,695.71C160.558,696.438 160.282,697.062 159.729,697.548C159.211,698.033 158.52,698.31 157.622,698.31C156.724,698.31 155.999,698.033 155.446,697.513C154.894,697.027 154.617,696.3 154.617,695.398L152.614,695.71C152.752,697.131 153.27,698.241 154.133,699.003C155.032,699.766 156.206,700.147 157.691,700.147C159.177,700.147 160.351,699.696 161.215,698.864C162.078,698.033 162.527,696.993 162.527,695.745C162.527,695.086 162.423,694.462 162.182,693.873C161.905,693.249 161.526,692.591 160.938,691.932C160.385,691.239 159.419,690.337 158.071,689.194C156.932,688.223 156.171,687.599 155.826,687.253C155.481,686.906 155.205,686.559 154.963,686.212" style="fill:rgb(1,1,1);"/>
                        </g>
                        <g transform="matrix(1,0,0,-1,0,841.89)">
                            <path d="M157.76,635.812C165.221,635.812 170.92,630.093 170.92,622.606C170.92,615.118 165.221,609.399 157.76,609.399C150.299,609.399 144.6,615.118 144.6,622.606C144.6,630.093 150.299,635.812 157.76,635.812Z" style="fill:rgb(207,231,229);"/>
                        </g>
                        <g transform="matrix(0.12171,0,0,-0.12214,137.001,256.513)">
                            <path d="M170.562,412.929C231.866,412.929 278.69,366.101 278.69,304.803C278.69,243.501 231.866,196.673 170.562,196.673C109.263,196.673 62.434,243.501 62.434,304.803C62.434,366.101 109.263,412.929 170.562,412.929Z" style="fill:none;fill-rule:nonzero;"/>
                        </g>
                        <g transform="matrix(1,0,0,-1,0,841.89)">
                            <path d="M159.936,630.821L159.936,614.91L157.968,614.91L157.968,627.285C157.519,626.869 156.897,626.418 156.171,625.968C155.412,625.517 154.755,625.17 154.168,624.963L154.168,626.834C155.239,627.354 156.171,627.978 156.966,628.706C157.76,629.4 158.347,630.127 158.658,630.821L159.936,630.821" style="fill:rgb(1,1,1);"/>
                        </g>
                        <g transform="matrix(0.12171,0,0,-0.12214,137.001,256.513)">
                            <path d="M2297.08,836.074L2297.08,299.695" style="fill:none;fill-rule:nonzero;stroke:rgb(1,1,1);stroke-width:7.38px;"/>
                        </g>
                        <g transform="matrix(1,0,0,-1,0,841.89)">
                            <path d="M414.817,622.883L414.368,623.23L416.545,617.094L418.755,623.23L418.306,622.918L417.753,622.64L417.2,622.467L416.579,622.398L415.957,622.467L415.335,622.64L414.817,622.883" style="fill:rgb(1,1,1);"/>
                        </g>
                        <g transform="matrix(1,0,0,-1,0,841.89)">
                            <path d="M423.694,610.889L426.044,610.889L425.801,609.988L424.35,609.988C424.454,609.676 424.523,609.364 424.523,609.087C424.523,608.289 424.178,607.562 423.521,606.938C422.831,606.314 421.898,605.967 420.724,605.898C420.171,605.724 419.756,605.517 419.481,605.274C419.377,605.17 419.307,605.066 419.307,604.996C419.307,604.858 419.377,604.754 419.445,604.65C419.515,604.581 419.688,604.476 419.963,604.373L421.76,603.922C422.762,603.679 423.418,603.402 423.728,603.09C424.005,602.778 424.143,602.431 424.143,602.016C424.143,601.53 423.971,601.08 423.591,600.698C423.246,600.282 422.727,599.97 422.036,599.762C421.345,599.52 420.585,599.416 419.722,599.416C418.997,599.416 418.341,599.52 417.719,599.693C417.097,599.866 416.682,600.074 416.406,600.386C416.164,600.698 416.026,600.975 416.026,601.287C416.026,601.565 416.13,601.807 416.303,602.085C416.475,602.362 416.717,602.605 416.993,602.778C417.166,602.882 417.649,603.16 418.478,603.575C418.202,603.783 418.064,604.026 418.064,604.269C418.064,604.511 418.167,604.754 418.375,605.031C418.617,605.308 419.066,605.586 419.791,605.898C419.135,606.036 418.617,606.314 418.237,606.73C417.857,607.145 417.685,607.631 417.685,608.151C417.685,608.983 418.03,609.745 418.789,610.404C419.549,611.063 420.517,611.375 421.76,611.375C422.209,611.375 422.588,611.34 422.865,611.27C423.142,611.201 423.418,611.063 423.694,610.889ZM423.003,609.433C423.003,609.884 422.865,610.231 422.588,610.473C422.347,610.751 421.968,610.889 421.552,610.889C420.862,610.889 420.308,610.543 419.861,609.919C419.411,609.26 419.204,608.601 419.204,607.908C419.204,607.457 419.343,607.111 419.618,606.833C419.895,606.556 420.24,606.418 420.655,606.418C420.966,606.418 421.277,606.521 421.587,606.66C421.864,606.833 422.14,607.076 422.347,607.354C422.554,607.631 422.693,608.012 422.831,608.463C422.935,608.913 423.003,609.225 423.003,609.433ZM418.893,603.332C418.341,603.125 417.96,602.848 417.685,602.501C417.442,602.154 417.304,601.807 417.304,601.461C417.304,601.08 417.476,600.733 417.822,600.49C418.341,600.109 419.066,599.936 420.067,599.936C420.896,599.936 421.622,600.074 422.243,600.351C422.831,600.663 423.142,601.045 423.142,601.495C423.142,601.738 423.038,601.946 422.796,602.154C422.588,602.396 422.175,602.536 421.552,602.674C421.207,602.743 420.308,602.986 418.893,603.332" style="fill:rgb(1,1,1);"/>
                        </g>
                        <g transform="matrix(1,0,0,-1,0,841.89)">
                            <path d="M425.283,616.124L425.733,616.124C426.251,615.534 426.734,615.083 427.114,614.806C427.493,614.494 427.874,614.251 428.219,614.113L428.219,613.836C427.804,613.662 427.425,613.42 427.045,613.108C426.7,612.796 426.251,612.38 425.733,611.79L425.249,611.79C425.628,612.588 426.044,613.212 426.457,613.662L416.856,613.662L416.856,614.251L426.457,614.251C426.146,614.633 425.939,614.945 425.801,615.118C425.698,615.326 425.526,615.638 425.283,616.124" style="fill:rgb(1,1,1);"/>
                        </g>
                    </g>
                </g>
            </g>
        </g>
        <g transform="matrix(1,0,0,1,26.2714,-46.7483)">
            <g transform="matrix(77.6065,0,0,77.6065,1220.58,1273.92)">
                <path d="M0.32,-0.068C0.375,-0.069 0.414,-0.089 0.436,-0.13C0.457,-0.169 0.467,-0.213 0.467,-0.263C0.467,-0.312 0.456,-0.355 0.435,-0.393C0.424,-0.412 0.409,-0.426 0.39,-0.436C0.371,-0.447 0.348,-0.452 0.32,-0.452C0.266,-0.451 0.229,-0.431 0.206,-0.393C0.183,-0.355 0.172,-0.312 0.173,-0.263C0.172,-0.213 0.183,-0.169 0.205,-0.13C0.227,-0.089 0.265,-0.069 0.32,-0.068ZM0.083,-0.255C0.084,-0.436 0.163,-0.528 0.32,-0.53C0.398,-0.529 0.457,-0.504 0.497,-0.454C0.537,-0.405 0.557,-0.34 0.557,-0.261C0.557,-0.188 0.538,-0.125 0.499,-0.072C0.46,-0.019 0.401,0.008 0.32,0.01C0.292,0.01 0.264,0.004 0.238,-0.008C0.211,-0.02 0.19,-0.039 0.175,-0.064L0.173,-0.064L0.173,0.196L0.083,0.196L0.083,-0.255Z" style="fill-rule:nonzero;"/>
            </g>
        </g>
        <g transform="matrix(1,0,0,1,20.9964,-590.547)">
            <g transform="matrix(77.6065,0,0,77.6065,1220.58,1273.92)">
                <path d="M0.32,-0.068C0.375,-0.069 0.414,-0.089 0.436,-0.13C0.457,-0.169 0.467,-0.213 0.467,-0.263C0.467,-0.312 0.456,-0.355 0.435,-0.393C0.424,-0.412 0.409,-0.426 0.39,-0.436C0.371,-0.447 0.348,-0.452 0.32,-0.452C0.266,-0.451 0.229,-0.431 0.206,-0.393C0.183,-0.355 0.172,-0.312 0.173,-0.263C0.172,-0.213 0.183,-0.169 0.205,-0.13C0.227,-0.089 0.265,-0.069 0.32,-0.068ZM0.083,-0.255C0.084,-0.436 0.163,-0.528 0.32,-0.53C0.398,-0.529 0.457,-0.504 0.497,-0.454C0.537,-0.405 0.557,-0.34 0.557,-0.261C0.557,-0.188 0.538,-0.125 0.499,-0.072C0.46,-0.019 0.401,0.008 0.32,0.01C0.292,0.01 0.264,0.004 0.238,-0.008C0.211,-0.02 0.19,-0.039 0.175,-0.064L0.173,-0.064L0.173,0.196L0.083,0.196L0.083,-0.255Z" style="fill-rule:nonzero;"/>
            </g>
        </g>
        <g transform="matrix(1,0,0,1,137.31,-47.2186)">
            <g transform="matrix(77.6065,0,0,77.6065,1220.58,1273.92)">
                <path d="M0.011,-0.474L0.115,-0.474L0.257,-0.111L0.393,-0.474L0.489,-0.474L0.303,-0L0.204,-0L0.011,-0.474Z" style="fill-rule:nonzero;"/>
            </g>
        </g>
        <g transform="matrix(1,0,0,1,132.035,-591.018)">
            <g transform="matrix(77.6065,0,0,77.6065,1220.58,1273.92)">
                <path d="M0.011,-0.474L0.115,-0.474L0.257,-0.111L0.393,-0.474L0.489,-0.474L0.303,-0L0.204,-0L0.011,-0.474Z" style="fill-rule:nonzero;"/>
            </g>
        </g>
        <g transform="matrix(1,0,0,1,-62.5005,-64.0828)">
            <g transform="matrix(45.043,0,0,45.043,1337.77,1327.68)">
                <path d="M0.27,-0.598L0.14,-0.478L0.084,-0.545L0.281,-0.708L0.366,-0.708L0.366,-0L0.27,-0L0.27,-0.598Z" style="fill-rule:nonzero;"/>
            </g>
        </g>
        <g transform="matrix(1,0,0,1,-67.7755,-607.882)">
            <g transform="matrix(45.043,0,0,45.043,1337.77,1327.68)">
                <path d="M0.046,-0.102L0.33,-0.384C0.34,-0.393 0.35,-0.404 0.359,-0.415C0.368,-0.426 0.377,-0.437 0.384,-0.449C0.391,-0.461 0.397,-0.474 0.402,-0.487C0.406,-0.5 0.408,-0.514 0.408,-0.529C0.408,-0.546 0.405,-0.562 0.399,-0.576C0.392,-0.59 0.384,-0.602 0.373,-0.612C0.362,-0.621 0.349,-0.629 0.334,-0.634C0.319,-0.639 0.303,-0.642 0.286,-0.642C0.251,-0.642 0.223,-0.632 0.2,-0.613C0.177,-0.594 0.163,-0.567 0.157,-0.533L0.053,-0.542C0.058,-0.573 0.067,-0.6 0.081,-0.624C0.094,-0.647 0.111,-0.666 0.132,-0.681C0.152,-0.696 0.175,-0.708 0.202,-0.715C0.228,-0.722 0.256,-0.726 0.287,-0.726C0.318,-0.726 0.347,-0.722 0.374,-0.714C0.401,-0.705 0.424,-0.693 0.445,-0.677C0.465,-0.66 0.481,-0.64 0.493,-0.616C0.504,-0.591 0.51,-0.563 0.51,-0.53C0.51,-0.507 0.507,-0.485 0.5,-0.465C0.493,-0.444 0.483,-0.425 0.472,-0.407C0.461,-0.389 0.448,-0.372 0.433,-0.356C0.418,-0.34 0.403,-0.324 0.387,-0.309L0.154,-0.084L0.51,-0.084L0.51,-0L0.046,-0L0.046,-0.102Z" style="fill-rule:nonzero;"/>
            </g>
        </g>
        <g transform="matrix(1,0,0,1,48.5381,-64.553)">
            <g transform="matrix(45.043,0,0,45.043,1337.77,1327.68)">
                <path d="M0.27,-0.598L0.14,-0.478L0.084,-0.545L0.281,-0.708L0.366,-0.708L0.366,-0L0.27,-0L0.27,-0.598Z" style="fill-rule:nonzero;"/>
            </g>
        </g>
        <g transform="matrix(1,0,0,1,43.263,-608.352)">
            <g transform="matrix(45.043,0,0,45.043,1337.77,1327.68)">
                <path d="M0.046,-0.102L0.33,-0.384C0.34,-0.393 0.35,-0.404 0.359,-0.415C0.368,-0.426 0.377,-0.437 0.384,-0.449C0.391,-0.461 0.397,-0.474 0.402,-0.487C0.406,-0.5 0.408,-0.514 0.408,-0.529C0.408,-0.546 0.405,-0.562 0.399,-0.576C0.392,-0.59 0.384,-0.602 0.373,-0.612C0.362,-0.621 0.349,-0.629 0.334,-0.634C0.319,-0.639 0.303,-0.642 0.286,-0.642C0.251,-0.642 0.223,-0.632 0.2,-0.613C0.177,-0.594 0.163,-0.567 0.157,-0.533L0.053,-0.542C0.058,-0.573 0.067,-0.6 0.081,-0.624C0.094,-0.647 0.111,-0.666 0.132,-0.681C0.152,-0.696 0.175,-0.708 0.202,-0.715C0.228,-0.722 0.256,-0.726 0.287,-0.726C0.318,-0.726 0.347,-0.722 0.374,-0.714C0.401,-0.705 0.424,-0.693 0.445,-0.677C0.465,-0.66 0.481,-0.64 0.493,-0.616C0.504,-0.591 0.51,-0.563 0.51,-0.53C0.51,-0.507 0.507,-0.485 0.5,-0.465C0.493,-0.444 0.483,-0.425 0.472,-0.407C0.461,-0.389 0.448,-0.372 0.433,-0.356C0.418,-0.34 0.403,-0.324 0.387,-0.309L0.154,-0.084L0.51,-0.084L0.51,-0L0.046,-0L0.046,-0.102Z" style="fill-rule:nonzero;"/>
            </g>
        </g>
        <g>
            <g transform="matrix(55.6718,0,0,55.6718,1956.78,619.222)">
                <path d="M0.136,-0.204C0.136,-0.183 0.14,-0.165 0.15,-0.148C0.159,-0.13 0.17,-0.116 0.185,-0.104C0.2,-0.092 0.217,-0.083 0.236,-0.076C0.255,-0.069 0.275,-0.066 0.296,-0.066C0.324,-0.066 0.348,-0.073 0.369,-0.086C0.39,-0.098 0.409,-0.116 0.426,-0.137L0.494,-0.085C0.444,-0.02 0.374,0.012 0.284,0.012C0.247,0.012 0.213,0.006 0.183,-0.007C0.152,-0.02 0.127,-0.037 0.106,-0.06C0.085,-0.082 0.068,-0.108 0.057,-0.139C0.046,-0.169 0.04,-0.202 0.04,-0.237C0.04,-0.272 0.046,-0.305 0.059,-0.336C0.071,-0.366 0.088,-0.392 0.11,-0.415C0.131,-0.437 0.157,-0.454 0.187,-0.467C0.217,-0.48 0.25,-0.486 0.285,-0.486C0.327,-0.486 0.363,-0.479 0.392,-0.464C0.421,-0.449 0.444,-0.43 0.463,-0.407C0.482,-0.383 0.495,-0.356 0.504,-0.327C0.512,-0.297 0.516,-0.267 0.516,-0.236L0.516,-0.204L0.136,-0.204ZM0.42,-0.276C0.419,-0.296 0.416,-0.314 0.411,-0.331C0.405,-0.348 0.396,-0.362 0.385,-0.375C0.374,-0.387 0.36,-0.397 0.343,-0.404C0.326,-0.411 0.306,-0.414 0.283,-0.414C0.261,-0.414 0.241,-0.41 0.223,-0.402C0.204,-0.393 0.189,-0.382 0.176,-0.369C0.163,-0.356 0.154,-0.341 0.147,-0.325C0.139,-0.308 0.136,-0.292 0.136,-0.276L0.42,-0.276Z" style="fill-rule:nonzero;"/>
            </g>
            <g transform="matrix(55.6718,0,0,55.6718,1987.73,619.222)">
                <path d="M0.139,0.006C0.121,0.006 0.106,-0 0.093,-0.014C0.08,-0.027 0.073,-0.042 0.073,-0.06C0.073,-0.078 0.08,-0.094 0.093,-0.107C0.106,-0.119 0.121,-0.126 0.139,-0.126C0.157,-0.126 0.173,-0.119 0.186,-0.107C0.199,-0.094 0.205,-0.078 0.205,-0.06C0.205,-0.042 0.199,-0.027 0.186,-0.014C0.173,-0 0.157,0.006 0.139,0.006Z" style="fill-rule:nonzero;"/>
            </g>
            <g transform="matrix(55.6718,0,0,55.6718,2003.21,619.222)">
                <path d="M0.543,-0.004C0.543,0.032 0.537,0.065 0.525,0.095C0.512,0.124 0.495,0.15 0.472,0.172C0.449,0.193 0.422,0.21 0.39,0.222C0.358,0.234 0.323,0.24 0.284,0.24C0.239,0.24 0.197,0.234 0.16,0.221C0.122,0.208 0.086,0.186 0.052,0.155L0.113,0.079C0.136,0.104 0.162,0.124 0.189,0.137C0.216,0.15 0.247,0.156 0.282,0.156C0.315,0.156 0.343,0.151 0.365,0.142C0.387,0.132 0.405,0.119 0.418,0.104C0.431,0.089 0.44,0.071 0.445,0.052C0.45,0.032 0.453,0.012 0.453,-0.008L0.453,-0.078L0.45,-0.078C0.433,-0.049 0.409,-0.028 0.38,-0.015C0.35,-0.001 0.319,0.006 0.286,0.006C0.251,0.006 0.219,-0 0.19,-0.013C0.16,-0.025 0.134,-0.042 0.113,-0.064C0.092,-0.085 0.075,-0.111 0.063,-0.141C0.051,-0.17 0.045,-0.202 0.045,-0.237C0.045,-0.272 0.051,-0.304 0.062,-0.335C0.073,-0.365 0.09,-0.391 0.111,-0.414C0.132,-0.437 0.157,-0.454 0.187,-0.467C0.216,-0.48 0.249,-0.486 0.286,-0.486C0.318,-0.486 0.349,-0.479 0.38,-0.465C0.41,-0.451 0.434,-0.431 0.451,-0.406L0.453,-0.406L0.453,-0.474L0.543,-0.474L0.543,-0.004ZM0.297,-0.402C0.273,-0.402 0.251,-0.398 0.232,-0.39C0.213,-0.381 0.196,-0.37 0.183,-0.356C0.17,-0.341 0.159,-0.324 0.152,-0.304C0.145,-0.283 0.141,-0.261 0.141,-0.237C0.141,-0.189 0.155,-0.151 0.183,-0.122C0.211,-0.092 0.249,-0.078 0.297,-0.078C0.345,-0.078 0.383,-0.092 0.411,-0.122C0.439,-0.151 0.453,-0.189 0.453,-0.237C0.453,-0.261 0.449,-0.283 0.442,-0.304C0.435,-0.324 0.424,-0.341 0.411,-0.356C0.398,-0.37 0.381,-0.381 0.362,-0.39C0.343,-0.398 0.321,-0.402 0.297,-0.402Z" style="fill-rule:nonzero;"/>
            </g>
            <g transform="matrix(55.6718,0,0,55.6718,2037.23,619.222)">
                <path d="M0.139,0.006C0.121,0.006 0.106,-0 0.093,-0.014C0.08,-0.027 0.073,-0.042 0.073,-0.06C0.073,-0.078 0.08,-0.094 0.093,-0.107C0.106,-0.119 0.121,-0.126 0.139,-0.126C0.157,-0.126 0.173,-0.119 0.186,-0.107C0.199,-0.094 0.205,-0.078 0.205,-0.06C0.205,-0.042 0.199,-0.027 0.186,-0.014C0.173,-0 0.157,0.006 0.139,0.006Z" style="fill-rule:nonzero;"/>
            </g>
            <g transform="matrix(55.6718,0,0,55.6718,2068.18,619.222)">
                <path d="M0.075,-0.474L0.165,-0.474L0.165,-0L0.075,-0L0.075,-0.474ZM0.054,-0.644C0.054,-0.662 0.061,-0.678 0.074,-0.691C0.087,-0.704 0.102,-0.71 0.12,-0.71C0.138,-0.71 0.154,-0.704 0.167,-0.691C0.18,-0.678 0.186,-0.662 0.186,-0.644C0.186,-0.626 0.18,-0.611 0.167,-0.598C0.154,-0.584 0.138,-0.578 0.12,-0.578C0.102,-0.578 0.087,-0.584 0.074,-0.598C0.061,-0.611 0.054,-0.626 0.054,-0.644Z" style="fill-rule:nonzero;"/>
            </g>
            <g transform="matrix(55.6718,0,0,55.6718,2081.54,619.222)">
                <path d="M0.068,-0.474L0.158,-0.474L0.158,-0.401L0.16,-0.401C0.171,-0.426 0.191,-0.447 0.219,-0.463C0.247,-0.478 0.279,-0.486 0.316,-0.486C0.339,-0.486 0.361,-0.483 0.382,-0.476C0.403,-0.468 0.421,-0.458 0.437,-0.443C0.452,-0.428 0.465,-0.409 0.474,-0.387C0.483,-0.364 0.488,-0.336 0.488,-0.305L0.488,-0L0.398,-0L0.398,-0.28C0.398,-0.302 0.395,-0.321 0.389,-0.337C0.383,-0.352 0.375,-0.365 0.365,-0.375C0.355,-0.384 0.343,-0.391 0.331,-0.396C0.318,-0.4 0.304,-0.402 0.29,-0.402C0.271,-0.402 0.254,-0.399 0.238,-0.393C0.222,-0.387 0.208,-0.378 0.196,-0.365C0.184,-0.352 0.175,-0.335 0.168,-0.315C0.161,-0.295 0.158,-0.271 0.158,-0.244L0.158,-0L0.068,-0L0.068,-0.474Z" style="fill-rule:nonzero;"/>
            </g>
            <g transform="matrix(55.6718,0,0,55.6718,2112.49,619.222)">
                <path d="M0.32,-0.355C0.309,-0.368 0.296,-0.38 0.281,-0.389C0.265,-0.398 0.246,-0.402 0.223,-0.402C0.202,-0.402 0.183,-0.398 0.168,-0.389C0.152,-0.38 0.144,-0.366 0.144,-0.349C0.144,-0.335 0.149,-0.324 0.158,-0.315C0.167,-0.306 0.177,-0.299 0.19,-0.294C0.202,-0.289 0.215,-0.285 0.229,-0.282C0.243,-0.279 0.255,-0.277 0.265,-0.275C0.284,-0.27 0.303,-0.265 0.32,-0.258C0.337,-0.251 0.351,-0.243 0.364,-0.232C0.376,-0.221 0.386,-0.208 0.393,-0.193C0.4,-0.178 0.403,-0.159 0.403,-0.137C0.403,-0.11 0.397,-0.088 0.386,-0.069C0.375,-0.05 0.36,-0.034 0.342,-0.022C0.324,-0.01 0.304,-0.001 0.281,0.004C0.258,0.009 0.234,0.012 0.211,0.012C0.172,0.012 0.137,0.006 0.108,-0.006C0.078,-0.018 0.051,-0.04 0.028,-0.072L0.096,-0.128C0.111,-0.113 0.127,-0.1 0.145,-0.089C0.163,-0.078 0.185,-0.072 0.211,-0.072C0.222,-0.072 0.234,-0.073 0.246,-0.076C0.257,-0.078 0.268,-0.082 0.277,-0.087C0.286,-0.092 0.293,-0.098 0.299,-0.106C0.304,-0.113 0.307,-0.122 0.307,-0.132C0.307,-0.145 0.303,-0.156 0.295,-0.165C0.286,-0.174 0.276,-0.181 0.265,-0.186C0.253,-0.191 0.241,-0.195 0.228,-0.198C0.215,-0.201 0.203,-0.203 0.193,-0.205C0.174,-0.21 0.155,-0.215 0.138,-0.221C0.121,-0.227 0.105,-0.235 0.092,-0.245C0.079,-0.255 0.068,-0.268 0.06,-0.283C0.052,-0.298 0.048,-0.317 0.048,-0.34C0.048,-0.365 0.053,-0.386 0.064,-0.405C0.074,-0.423 0.088,-0.438 0.105,-0.45C0.122,-0.462 0.141,-0.471 0.163,-0.477C0.184,-0.483 0.206,-0.486 0.228,-0.486C0.26,-0.486 0.291,-0.48 0.32,-0.468C0.349,-0.456 0.373,-0.436 0.39,-0.408L0.32,-0.355Z" style="fill-rule:nonzero;"/>
            </g>
            <g transform="matrix(55.6718,0,0,55.6718,2137.21,619.222)">
                <path d="M0.322,-0.396L0.193,-0.396L0.193,-0.181C0.193,-0.168 0.193,-0.155 0.194,-0.142C0.195,-0.129 0.197,-0.117 0.202,-0.107C0.206,-0.096 0.213,-0.088 0.222,-0.082C0.231,-0.075 0.244,-0.072 0.261,-0.072C0.272,-0.072 0.283,-0.073 0.294,-0.075C0.305,-0.077 0.316,-0.081 0.325,-0.086L0.325,-0.004C0.314,0.002 0.301,0.006 0.284,0.009C0.267,0.011 0.253,0.012 0.244,0.012C0.209,0.012 0.183,0.007 0.164,-0.003C0.145,-0.012 0.131,-0.025 0.122,-0.04C0.113,-0.055 0.107,-0.073 0.106,-0.092C0.104,-0.111 0.103,-0.13 0.103,-0.149L0.103,-0.396L-0.001,-0.396L-0.001,-0.474L0.103,-0.474L0.103,-0.607L0.193,-0.607L0.193,-0.474L0.322,-0.474L0.322,-0.396Z" style="fill-rule:nonzero;"/>
            </g>
            <g transform="matrix(55.6718,0,0,55.6718,2157.81,619.222)">
                <path d="M0.07,-0.416C0.095,-0.439 0.125,-0.457 0.158,-0.469C0.191,-0.48 0.225,-0.486 0.258,-0.486C0.293,-0.486 0.323,-0.482 0.348,-0.473C0.373,-0.464 0.393,-0.453 0.409,-0.438C0.425,-0.423 0.437,-0.407 0.445,-0.388C0.452,-0.369 0.456,-0.349 0.456,-0.328L0.456,-0.086C0.456,-0.069 0.456,-0.054 0.457,-0.04C0.458,-0.026 0.459,-0.013 0.46,-0L0.38,-0C0.378,-0.024 0.377,-0.048 0.377,-0.072L0.375,-0.072C0.355,-0.041 0.331,-0.02 0.304,-0.007C0.277,0.006 0.245,0.012 0.209,0.012C0.187,0.012 0.166,0.009 0.146,0.003C0.126,-0.003 0.109,-0.012 0.094,-0.024C0.079,-0.036 0.067,-0.051 0.058,-0.069C0.049,-0.086 0.045,-0.107 0.045,-0.13C0.045,-0.161 0.052,-0.186 0.066,-0.207C0.079,-0.228 0.098,-0.245 0.122,-0.258C0.145,-0.271 0.173,-0.28 0.205,-0.286C0.236,-0.291 0.27,-0.294 0.306,-0.294L0.372,-0.294L0.372,-0.314C0.372,-0.326 0.37,-0.338 0.365,-0.35C0.36,-0.362 0.353,-0.373 0.344,-0.383C0.335,-0.392 0.323,-0.4 0.309,-0.406C0.295,-0.411 0.278,-0.414 0.259,-0.414C0.242,-0.414 0.227,-0.412 0.214,-0.409C0.201,-0.406 0.189,-0.402 0.178,-0.397C0.167,-0.392 0.158,-0.386 0.149,-0.379C0.14,-0.372 0.132,-0.366 0.124,-0.36L0.07,-0.416ZM0.324,-0.228C0.303,-0.228 0.281,-0.227 0.259,-0.225C0.236,-0.222 0.216,-0.218 0.198,-0.211C0.179,-0.204 0.164,-0.195 0.153,-0.183C0.141,-0.171 0.135,-0.156 0.135,-0.137C0.135,-0.11 0.144,-0.09 0.163,-0.078C0.181,-0.066 0.206,-0.06 0.237,-0.06C0.262,-0.06 0.283,-0.064 0.3,-0.073C0.317,-0.081 0.331,-0.092 0.342,-0.105C0.353,-0.118 0.36,-0.133 0.365,-0.15C0.37,-0.166 0.372,-0.182 0.372,-0.198L0.372,-0.228L0.324,-0.228Z" style="fill-rule:nonzero;"/>
            </g>
            <g transform="matrix(55.6718,0,0,55.6718,2186.7,619.222)">
                <path d="M0.068,-0.756L0.158,-0.756L0.158,-0.406L0.16,-0.406C0.176,-0.431 0.199,-0.45 0.229,-0.465C0.259,-0.479 0.291,-0.486 0.325,-0.486C0.362,-0.486 0.395,-0.48 0.425,-0.467C0.454,-0.454 0.48,-0.437 0.501,-0.415C0.522,-0.392 0.538,-0.366 0.549,-0.336C0.56,-0.305 0.566,-0.272 0.566,-0.237C0.566,-0.202 0.56,-0.169 0.549,-0.139C0.538,-0.109 0.522,-0.083 0.501,-0.06C0.48,-0.037 0.454,-0.02 0.425,-0.007C0.395,0.006 0.362,0.012 0.325,0.012C0.293,0.012 0.262,0.005 0.232,-0.009C0.201,-0.023 0.177,-0.043 0.16,-0.068L0.158,-0.068L0.158,-0L0.068,-0L0.068,-0.756ZM0.314,-0.072C0.338,-0.072 0.36,-0.076 0.379,-0.085C0.398,-0.093 0.415,-0.104 0.428,-0.119C0.441,-0.133 0.452,-0.15 0.459,-0.171C0.466,-0.191 0.47,-0.213 0.47,-0.237C0.47,-0.261 0.466,-0.283 0.459,-0.304C0.452,-0.324 0.441,-0.341 0.428,-0.356C0.415,-0.37 0.398,-0.381 0.379,-0.39C0.36,-0.398 0.338,-0.402 0.314,-0.402C0.29,-0.402 0.268,-0.398 0.249,-0.39C0.23,-0.381 0.213,-0.37 0.2,-0.356C0.187,-0.341 0.176,-0.324 0.169,-0.304C0.162,-0.283 0.158,-0.261 0.158,-0.237C0.158,-0.213 0.162,-0.191 0.169,-0.171C0.176,-0.15 0.187,-0.133 0.2,-0.119C0.213,-0.104 0.23,-0.093 0.249,-0.085C0.268,-0.076 0.29,-0.072 0.314,-0.072Z" style="fill-rule:nonzero;"/>
            </g>
            <g transform="matrix(55.6718,0,0,55.6718,2220.72,619.222)">
                <rect x="0.075" y="-0.756" width="0.09" height="0.756" style="fill-rule:nonzero;"/>
            </g>
            <g transform="matrix(55.6718,0,0,55.6718,2234.08,619.222)">
                <path d="M0.136,-0.204C0.136,-0.183 0.14,-0.165 0.15,-0.148C0.159,-0.13 0.17,-0.116 0.185,-0.104C0.2,-0.092 0.217,-0.083 0.236,-0.076C0.255,-0.069 0.275,-0.066 0.296,-0.066C0.324,-0.066 0.348,-0.073 0.369,-0.086C0.39,-0.098 0.409,-0.116 0.426,-0.137L0.494,-0.085C0.444,-0.02 0.374,0.012 0.284,0.012C0.247,0.012 0.213,0.006 0.183,-0.007C0.152,-0.02 0.127,-0.037 0.106,-0.06C0.085,-0.082 0.068,-0.108 0.057,-0.139C0.046,-0.169 0.04,-0.202 0.04,-0.237C0.04,-0.272 0.046,-0.305 0.059,-0.336C0.071,-0.366 0.088,-0.392 0.11,-0.415C0.131,-0.437 0.157,-0.454 0.187,-0.467C0.217,-0.48 0.25,-0.486 0.285,-0.486C0.327,-0.486 0.363,-0.479 0.392,-0.464C0.421,-0.449 0.444,-0.43 0.463,-0.407C0.482,-0.383 0.495,-0.356 0.504,-0.327C0.512,-0.297 0.516,-0.267 0.516,-0.236L0.516,-0.204L0.136,-0.204ZM0.42,-0.276C0.419,-0.296 0.416,-0.314 0.411,-0.331C0.405,-0.348 0.396,-0.362 0.385,-0.375C0.374,-0.387 0.36,-0.397 0.343,-0.404C0.326,-0.411 0.306,-0.414 0.283,-0.414C0.261,-0.414 0.241,-0.41 0.223,-0.402C0.204,-0.393 0.189,-0.382 0.176,-0.369C0.163,-0.356 0.154,-0.341 0.147,-0.325C0.139,-0.308 0.136,-0.292 0.136,-0.276L0.42,-0.276Z" style="fill-rule:nonzero;"/>
            </g>
            <g transform="matrix(55.6718,0,0,55.6718,2280.51,619.222)">
                <path d="M0.103,-0.396L0.001,-0.396L0.001,-0.474L0.103,-0.474L0.103,-0.58C0.103,-0.643 0.115,-0.691 0.14,-0.722C0.164,-0.753 0.206,-0.768 0.265,-0.768C0.275,-0.768 0.286,-0.768 0.297,-0.767C0.308,-0.766 0.319,-0.764 0.332,-0.761L0.322,-0.681C0.313,-0.684 0.305,-0.687 0.297,-0.688C0.289,-0.689 0.28,-0.69 0.271,-0.69C0.254,-0.69 0.241,-0.688 0.231,-0.683C0.221,-0.678 0.213,-0.67 0.208,-0.661C0.202,-0.652 0.198,-0.641 0.197,-0.628C0.195,-0.615 0.194,-0.6 0.194,-0.583L0.194,-0.474L0.301,-0.474L0.301,-0.396L0.193,-0.396L0.193,-0L0.103,-0L0.103,-0.396Z" style="fill-rule:nonzero;"/>
            </g>
            <g transform="matrix(55.6718,0,0,55.6718,2299.05,619.222)">
                <path d="M0.141,-0.237C0.141,-0.213 0.145,-0.191 0.152,-0.171C0.159,-0.15 0.17,-0.133 0.183,-0.119C0.196,-0.104 0.213,-0.093 0.232,-0.085C0.251,-0.076 0.273,-0.072 0.297,-0.072C0.321,-0.072 0.343,-0.076 0.362,-0.085C0.381,-0.093 0.398,-0.104 0.411,-0.119C0.424,-0.133 0.435,-0.15 0.442,-0.171C0.449,-0.191 0.453,-0.213 0.453,-0.237C0.453,-0.261 0.449,-0.283 0.442,-0.304C0.435,-0.324 0.424,-0.341 0.411,-0.356C0.398,-0.37 0.381,-0.381 0.362,-0.39C0.343,-0.398 0.321,-0.402 0.297,-0.402C0.273,-0.402 0.251,-0.398 0.232,-0.39C0.213,-0.381 0.196,-0.37 0.183,-0.356C0.17,-0.341 0.159,-0.324 0.152,-0.304C0.145,-0.283 0.141,-0.261 0.141,-0.237ZM0.045,-0.237C0.045,-0.272 0.051,-0.304 0.065,-0.334C0.078,-0.364 0.095,-0.39 0.118,-0.413C0.141,-0.436 0.167,-0.454 0.198,-0.467C0.229,-0.48 0.262,-0.486 0.297,-0.486C0.332,-0.486 0.365,-0.48 0.396,-0.467C0.427,-0.454 0.453,-0.436 0.476,-0.413C0.499,-0.39 0.517,-0.364 0.53,-0.334C0.543,-0.304 0.549,-0.272 0.549,-0.237C0.549,-0.202 0.543,-0.17 0.53,-0.14C0.517,-0.109 0.499,-0.083 0.476,-0.061C0.453,-0.038 0.427,-0.021 0.396,-0.008C0.365,0.006 0.332,0.012 0.297,0.012C0.262,0.012 0.229,0.006 0.198,-0.008C0.167,-0.021 0.141,-0.038 0.118,-0.061C0.095,-0.083 0.078,-0.109 0.065,-0.14C0.051,-0.17 0.045,-0.202 0.045,-0.237Z" style="fill-rule:nonzero;"/>
            </g>
            <g transform="matrix(55.6718,0,0,55.6718,2332.12,619.222)">
                <path d="M0.068,-0.474L0.158,-0.474L0.158,-0.401L0.16,-0.401C0.166,-0.414 0.174,-0.425 0.184,-0.436C0.194,-0.446 0.205,-0.455 0.218,-0.462C0.23,-0.469 0.243,-0.475 0.258,-0.48C0.273,-0.484 0.287,-0.486 0.302,-0.486C0.317,-0.486 0.33,-0.484 0.342,-0.48L0.338,-0.383C0.331,-0.385 0.323,-0.387 0.316,-0.388C0.309,-0.389 0.301,-0.39 0.294,-0.39C0.25,-0.39 0.216,-0.378 0.193,-0.353C0.17,-0.328 0.158,-0.29 0.158,-0.238L0.158,-0L0.068,-0L0.068,-0.474Z" style="fill-rule:nonzero;"/>
            </g>
            <g transform="matrix(55.6718,0,0,55.6718,2368.19,619.222)">
                <path d="M0.32,-0.068C0.375,-0.069 0.414,-0.089 0.436,-0.13C0.457,-0.169 0.467,-0.213 0.467,-0.263C0.467,-0.312 0.456,-0.355 0.435,-0.393C0.424,-0.412 0.409,-0.426 0.39,-0.436C0.371,-0.447 0.348,-0.452 0.32,-0.452C0.266,-0.451 0.229,-0.431 0.206,-0.393C0.183,-0.355 0.172,-0.312 0.173,-0.263C0.172,-0.213 0.183,-0.169 0.205,-0.13C0.227,-0.089 0.265,-0.069 0.32,-0.068ZM0.083,-0.255C0.084,-0.436 0.163,-0.528 0.32,-0.53C0.398,-0.529 0.457,-0.504 0.497,-0.454C0.537,-0.405 0.557,-0.34 0.557,-0.261C0.557,-0.188 0.538,-0.125 0.499,-0.072C0.46,-0.019 0.401,0.008 0.32,0.01C0.292,0.01 0.264,0.004 0.238,-0.008C0.211,-0.02 0.19,-0.039 0.175,-0.064L0.173,-0.064L0.173,0.196L0.083,0.196L0.083,-0.255Z" style="fill-rule:nonzero;"/>
            </g>
            <g transform="matrix(55.6718,0,0,55.6718,2433.15,619.222)">
                <path d="M0.6,-0.043L0.066,-0.262L0.066,-0.344L0.6,-0.564L0.6,-0.485L0.148,-0.303L0.6,-0.121L0.6,-0.043Z" style="fill-rule:nonzero;"/>
            </g>
            <g transform="matrix(55.6718,0,0,55.6718,2501.18,619.222)">
                <path d="M0.32,-0.068C0.375,-0.069 0.414,-0.089 0.436,-0.13C0.457,-0.169 0.467,-0.213 0.467,-0.263C0.467,-0.312 0.456,-0.355 0.435,-0.393C0.424,-0.412 0.409,-0.426 0.39,-0.436C0.371,-0.447 0.348,-0.452 0.32,-0.452C0.266,-0.451 0.229,-0.431 0.206,-0.393C0.183,-0.355 0.172,-0.312 0.173,-0.263C0.172,-0.213 0.183,-0.169 0.205,-0.13C0.227,-0.089 0.265,-0.069 0.32,-0.068ZM0.083,-0.255C0.084,-0.436 0.163,-0.528 0.32,-0.53C0.398,-0.529 0.457,-0.504 0.497,-0.454C0.537,-0.405 0.557,-0.34 0.557,-0.261C0.557,-0.188 0.538,-0.125 0.499,-0.072C0.46,-0.019 0.401,0.008 0.32,0.01C0.292,0.01 0.264,0.004 0.238,-0.008C0.211,-0.02 0.19,-0.039 0.175,-0.064L0.173,-0.064L0.173,0.196L0.083,0.196L0.083,-0.255Z" style="fill-rule:nonzero;"/>
            </g>
        </g>
        <g transform="matrix(1,0,0,1,-12.696,-24.1333)">
            <g transform="matrix(42.2471,0,0,42.2471,2403.17,676.573)">
                <path d="M0.27,-0.598L0.14,-0.478L0.084,-0.545L0.281,-0.708L0.366,-0.708L0.366,-0L0.27,-0L0.27,-0.598Z" style="fill-rule:nonzero;"/>
            </g>
        </g>
        <g transform="matrix(1,0,0,1,120.524,-24.1333)">
            <g transform="matrix(42.2471,0,0,42.2471,2403.17,676.573)">
                <path d="M0.046,-0.102L0.33,-0.384C0.34,-0.393 0.35,-0.404 0.359,-0.415C0.368,-0.426 0.377,-0.437 0.384,-0.449C0.391,-0.461 0.397,-0.474 0.402,-0.487C0.406,-0.5 0.408,-0.514 0.408,-0.529C0.408,-0.546 0.405,-0.562 0.399,-0.576C0.392,-0.59 0.384,-0.602 0.373,-0.612C0.362,-0.621 0.349,-0.629 0.334,-0.634C0.319,-0.639 0.303,-0.642 0.286,-0.642C0.251,-0.642 0.223,-0.632 0.2,-0.613C0.177,-0.594 0.163,-0.567 0.157,-0.533L0.053,-0.542C0.058,-0.573 0.067,-0.6 0.081,-0.624C0.094,-0.647 0.111,-0.666 0.132,-0.681C0.152,-0.696 0.175,-0.708 0.202,-0.715C0.228,-0.722 0.256,-0.726 0.287,-0.726C0.318,-0.726 0.347,-0.722 0.374,-0.714C0.401,-0.705 0.424,-0.693 0.445,-0.677C0.465,-0.66 0.481,-0.64 0.493,-0.616C0.504,-0.591 0.51,-0.563 0.51,-0.53C0.51,-0.507 0.507,-0.485 0.5,-0.465C0.493,-0.444 0.483,-0.425 0.472,-0.407C0.461,-0.389 0.448,-0.372 0.433,-0.356C0.418,-0.34 0.403,-0.324 0.387,-0.309L0.154,-0.084L0.51,-0.084L0.51,-0L0.046,-0L0.046,-0.102Z" style="fill-rule:nonzero;"/>
            </g>
        </g>
        <g transform="matrix(0.988623,0,0,0.970553,13.6734,38.0233)">
            <rect x="1201.82" y="531.021" width="1479.7" height="760.207" style="fill:rgb(237,237,237);fill-opacity:0;"/>
        </g>
    </g>
</svg>
