<?xml version="1.0" encoding="UTF-8" standalone="no"?>
<!DOCTYPE svg PUBLIC "-//W3C//DTD SVG 1.1//EN" "http://www.w3.org/Graphics/SVG/1.1/DTD/svg11.dtd">
<svg width="100%" height="100%" viewBox="0 0 1463 738" version="1.1" xmlns="http://www.w3.org/2000/svg" xmlns:xlink="http://www.w3.org/1999/xlink" xml:space="preserve" xmlns:serif="http://www.serif.com/" style="fill-rule:evenodd;clip-rule:evenodd;stroke-linejoin:round;">
    <g transform="matrix(1,0,0,1,-1201.82,-553.407)">
        <g id="fosm_script.svg" transform="matrix(4.30997,0,0,4.30997,1918.23,1979.48)">
            <g transform="matrix(1,0,0,1,-297.638,-420.945)">
                <g>
                    <clipPath id="_clip1">
                        <rect x="137.001" y="83.38" width="340.171" height="173.134"/>
                    </clipPath>
                    <g clip-path="url(#_clip1)">
                        <g transform="matrix(0.12171,0,0,-0.12214,137.001,256.513)">
                            <path d="M7.095,595.697L2530.08,596.262" style="fill:none;fill-rule:nonzero;stroke:rgb(1,1,1);stroke-width:14.47px;"/>
                        </g>
                        <g transform="matrix(1,0,0,-1,0,841.89)">
                            <path d="M442.277,653.04L441.242,651.653L459.583,658.274L441.242,664.825L442.243,663.508L443.038,661.914L443.556,660.18L443.763,658.309L443.59,656.437L443.072,654.669L442.277,653.04" style="fill:rgb(1,1,1);"/>
                        </g>
                        <g transform="matrix(0.12171,0,0,-0.12214,137.001,256.513)">
                            <path d="M1287.89,7.378L1281.36,1178.05" style="fill:none;fill-rule:nonzero;stroke:rgb(1,1,1);stroke-width:14.47px;"/>
                        </g>
                        <g transform="matrix(1,0,0,-1,0,841.89)">
                            <path d="M298.102,726.665L299.449,725.659L292.886,743.788L286.496,725.59L287.809,726.56L289.363,727.358L291.056,727.912L292.886,728.121L294.751,727.982L296.513,727.462L298.102,726.665" style="fill:rgb(1,1,1);"/>
                        </g>
                        <g transform="matrix(1,0,0,-1,0,841.89)">
                            <path d="M271.401,743.476L272.161,745.765L277.895,745.765L277.895,745.487L271.678,739.144L274.476,739.144C275.029,739.144 275.374,739.144 275.512,739.212C275.685,739.248 275.822,739.351 275.926,739.524C276.065,739.698 276.203,739.976 276.376,740.391L276.755,740.391L275.96,737.861L270.158,737.861L270.158,738.103L276.376,744.482L273.681,744.482C273.163,744.482 272.852,744.482 272.749,744.447C272.61,744.412 272.438,744.309 272.265,744.17C272.127,744.031 271.954,743.788 271.782,743.476L271.401,743.476" style="fill:rgb(1,1,1);"/>
                        </g>
                        <g transform="matrix(1,0,0,-1,0,841.89)">
                            <path d="M460.101,651.93L462.415,652.416C462.726,652.139 462.933,651.861 463.071,651.584C463.175,651.341 463.348,650.683 463.625,649.643L464.418,650.891C464.626,651.203 464.902,651.48 465.178,651.757C465.489,652.035 465.766,652.242 466.007,652.347C466.146,652.416 466.318,652.416 466.491,652.416C466.733,652.416 466.94,652.347 467.113,652.173C467.251,652.035 467.32,651.827 467.32,651.584C467.32,651.341 467.285,651.133 467.183,651.029C467.044,650.856 466.836,650.787 466.629,650.787C466.491,650.787 466.353,650.821 466.214,650.926C465.904,651.064 465.732,651.168 465.628,651.168C465.489,651.168 465.317,651.064 465.11,650.891C464.729,650.579 464.281,649.989 463.763,649.088L464.557,646.246C464.66,645.795 464.764,645.518 464.833,645.414C464.937,645.345 465.006,645.275 465.076,645.275C465.213,645.275 465.351,645.345 465.523,645.483C465.869,645.76 466.146,646.107 466.388,646.558L466.698,646.384C466.318,645.691 465.835,645.137 465.282,644.651C464.937,644.409 464.66,644.27 464.453,644.27C464.108,644.27 463.866,644.443 463.659,644.756C463.521,644.998 463.244,645.934 462.864,647.667C461.967,646.142 461.241,645.137 460.688,644.721C460.342,644.409 459.997,644.27 459.687,644.27C459.445,644.27 459.238,644.374 459.031,644.547C458.892,644.686 458.823,644.859 458.823,645.102C458.823,645.31 458.892,645.483 459.031,645.622C459.133,645.726 459.306,645.795 459.479,645.795C459.687,645.795 459.858,645.726 460.067,645.518C460.239,645.379 460.342,645.31 460.412,645.31C460.482,645.31 460.584,645.345 460.688,645.414C460.964,645.622 461.309,646.072 461.793,646.766C462.242,647.424 462.553,647.91 462.691,648.222C462.277,649.608 462.035,650.336 462.001,650.406C461.863,650.752 461.69,651.029 461.483,651.168C461.275,651.341 460.964,651.41 460.55,651.41L460.101,651.41L460.101,651.93" style="fill:rgb(1,1,1);"/>
                        </g>
                        <g transform="matrix(0.12171,0,0,-0.12214,137.001,256.513)">
                            <path d="M414.633,674.593L1659.95,674.593" style="fill:none;fill-rule:nonzero;stroke:rgb(1,1,1);stroke-width:7.38px;"/>
                        </g>
                        <g transform="matrix(1,0,0,-1,0,841.89)">
                            <path d="M337.341,670.891L337.134,670.891L336.926,670.822L336.719,670.649L336.615,670.441L336.581,670.198L336.615,670.06L336.753,669.886L336.892,669.747L337.065,669.678L345.457,667.806L337.134,665.935L336.926,665.865L336.719,665.692L336.615,665.484L336.581,665.241L336.65,665.033L336.823,664.825L337.03,664.721L337.341,664.721L337.307,664.756L348.256,667.148L348.497,667.217L348.705,667.356L348.843,667.564L348.877,667.806L348.843,668.014L348.705,668.222L348.497,668.361L348.256,668.43L337.341,670.891" style="fill:rgb(1,1,1);"/>
                        </g>
                        <g transform="matrix(0.12171,0,0,-0.12214,137.001,256.513)">
                            <path d="M698.148,674.877L2024.63,674.877" style="fill:none;fill-rule:nonzero;stroke:rgb(1,1,1);stroke-width:7.1px;"/>
                        </g>
                        <g transform="matrix(0.12171,0,0,-0.12214,137.001,256.513)">
                            <path d="M414.633,761.151L1659.95,761.151" style="fill:none;fill-rule:nonzero;stroke:rgb(1,1,1);stroke-width:7.38px;"/>
                        </g>
                        <g transform="matrix(1,0,0,-1,0,841.89)">
                            <path d="M337.341,681.429L337.134,681.429L336.926,681.36L336.719,681.186L336.615,680.978L336.581,680.736L336.615,680.597L336.753,680.424L336.892,680.285L337.065,680.216L345.457,678.344L337.134,676.507L336.926,676.437L336.719,676.264L336.615,676.056L336.581,675.813L336.65,675.605L336.823,675.398L337.03,675.293L337.341,675.293L337.307,675.328L348.256,677.685L348.497,677.755L348.705,677.893L348.843,678.102L348.877,678.344L348.843,678.552L348.705,678.76L348.497,678.899L348.256,678.968L337.341,681.429" style="fill:rgb(1,1,1);"/>
                        </g>
                        <g transform="matrix(0.12171,0,0,-0.12214,137.001,256.513)">
                            <path d="M698.148,761.151L2024.63,761.151" style="fill:none;fill-rule:nonzero;stroke:rgb(1,1,1);stroke-width:7.1px;"/>
                        </g>
                        <g transform="matrix(0.12171,0,0,-0.12214,137.001,256.513)">
                            <path d="M414.633,847.71L1659.95,847.71" style="fill:none;fill-rule:nonzero;stroke:rgb(1,1,1);stroke-width:7.38px;"/>
                        </g>
                        <g transform="matrix(1,0,0,-1,0,841.89)">
                            <path d="M337.341,692.001L337.134,692.001L336.926,691.932L336.719,691.759L336.615,691.551L336.581,691.308L336.615,691.169L336.753,690.996L336.892,690.857L337.065,690.788L345.457,688.916L337.134,687.044L336.926,686.975L336.719,686.802L336.615,686.594L336.581,686.351L336.65,686.143L336.823,685.935L337.03,685.831L337.341,685.831L337.307,685.866L348.256,688.257L348.497,688.327L348.705,688.466L348.843,688.674L348.877,688.916L348.843,689.124L348.705,689.332L348.497,689.471L348.256,689.54L337.341,692.001" style="fill:rgb(1,1,1);"/>
                        </g>
                        <g transform="matrix(0.12171,0,0,-0.12214,137.001,256.513)">
                            <path d="M698.148,847.71L2024.63,847.71" style="fill:none;fill-rule:nonzero;stroke:rgb(1,1,1);stroke-width:7.1px;"/>
                        </g>
                        <g transform="matrix(0.12171,0,0,-0.12214,137.001,256.513)">
                            <path d="M414.633,934.268L1659.95,934.268" style="fill:none;fill-rule:nonzero;stroke:rgb(1,1,1);stroke-width:7.38px;"/>
                        </g>
                        <g transform="matrix(1,0,0,-1,0,841.89)">
                            <path d="M337.341,702.574L337.134,702.574L336.926,702.504L336.719,702.331L336.615,702.123L336.581,701.88L336.615,701.742L336.753,701.568L336.892,701.43L337.065,701.361L345.457,699.488L337.134,697.617L336.926,697.548L336.719,697.374L336.615,697.166L336.581,696.924L336.65,696.716L336.823,696.507L337.03,696.404L337.341,696.404L337.307,696.438L348.256,698.83L348.497,698.899L348.705,699.038L348.843,699.246L348.877,699.488L348.843,699.696L348.705,699.905L348.497,700.043L348.256,700.112L337.341,702.574" style="fill:rgb(1,1,1);"/>
                        </g>
                        <g transform="matrix(0.12171,0,0,-0.12214,137.001,256.513)">
                            <path d="M698.148,934.268L2024.63,934.268" style="fill:none;fill-rule:nonzero;stroke:rgb(1,1,1);stroke-width:7.1px;"/>
                        </g>
                        <g transform="matrix(0.12171,0,0,-0.12214,137.001,256.513)">
                            <path d="M414.633,1020.83L1659.95,1020.83" style="fill:none;fill-rule:nonzero;stroke:rgb(1,1,1);stroke-width:7.38px;"/>
                        </g>
                        <g transform="matrix(1,0,0,-1,0,841.89)">
                            <path d="M337.341,713.146L337.134,713.146L336.926,713.076L336.719,712.903L336.615,712.695L336.581,712.452L336.615,712.314L336.753,712.14L336.892,712.002L337.065,711.933L345.457,710.061L337.134,708.188L336.926,708.12L336.719,707.947L336.615,707.739L336.581,707.496L336.65,707.288L336.823,707.08L337.03,706.976L337.341,706.976L337.307,707.011L348.256,709.403L348.497,709.471L348.705,709.61L348.843,709.819L348.877,710.061L348.843,710.268L348.705,710.477L348.497,710.616L348.256,710.685L337.341,713.146" style="fill:rgb(1,1,1);"/>
                        </g>
                        <g transform="matrix(0.12171,0,0,-0.12214,137.001,256.513)">
                            <path d="M698.148,1020.83L2024.63,1020.83" style="fill:none;fill-rule:nonzero;stroke:rgb(1,1,1);stroke-width:7.1px;"/>
                        </g>
                        <g transform="matrix(0.12171,0,0,-0.12214,137.001,256.513)">
                            <path d="M414.633,1107.39L1659.95,1107.39" style="fill:none;fill-rule:nonzero;stroke:rgb(1,1,1);stroke-width:7.38px;"/>
                        </g>
                        <g transform="matrix(1,0,0,-1,0,841.89)">
                            <path d="M337.341,723.718L337.134,723.718L336.926,723.649L336.719,723.475L336.615,723.268L336.581,723.026L336.615,722.886L336.753,722.713L336.892,722.574L337.065,722.505L345.457,720.633L337.134,718.762L336.926,718.692L336.719,718.519L336.615,718.311L336.581,718.068L336.65,717.86L336.823,717.652L337.03,717.549L337.341,717.549L337.307,717.583L348.256,719.975L348.497,720.043L348.705,720.182L348.843,720.391L348.877,720.633L348.843,720.841L348.705,721.049L348.497,721.188L348.256,721.258L337.341,723.718" style="fill:rgb(1,1,1);"/>
                        </g>
                        <g transform="matrix(0.12171,0,0,-0.12214,137.001,256.513)">
                            <path d="M698.148,1107.39L2024.63,1107.39" style="fill:none;fill-rule:nonzero;stroke:rgb(1,1,1);stroke-width:7.1px;"/>
                        </g>
                        <g transform="matrix(0.12171,0,0,-0.12214,137.001,256.513)">
                            <path d="M2031.44,512.542L785.842,512.542" style="fill:none;fill-rule:nonzero;stroke:rgb(1,1,1);stroke-width:7.38px;"/>
                        </g>
                        <g transform="matrix(1,0,0,-1,0,841.89)">
                            <path d="M234.339,644.928L234.546,644.928L234.753,644.998L234.96,645.171L235.064,645.379L235.098,645.622L235.064,645.76L234.926,645.934L234.788,646.072L234.615,646.142L226.222,648.014L234.546,649.885L234.753,649.955L234.96,650.128L235.064,650.336L235.098,650.579L235.029,650.787L234.857,650.995L234.65,651.098L234.339,651.098L234.373,651.064L223.423,648.672L223.182,648.603L222.974,648.464L222.836,648.256L222.802,648.014L222.836,647.805L222.974,647.598L223.182,647.459L223.423,647.39L234.339,644.928" style="fill:rgb(1,1,1);"/>
                        </g>
                        <g transform="matrix(0.12171,0,0,-0.12214,137.001,256.513)">
                            <path d="M1747.64,512.827L421.16,512.827" style="fill:none;fill-rule:nonzero;stroke:rgb(1,1,1);stroke-width:7.1px;"/>
                        </g>
                        <g transform="matrix(0.12171,0,0,-0.12214,137.001,256.513)">
                            <path d="M2031.44,425.984L785.842,425.984" style="fill:none;fill-rule:nonzero;stroke:rgb(1,1,1);stroke-width:7.38px;"/>
                        </g>
                        <g transform="matrix(1,0,0,-1,0,841.89)">
                            <path d="M234.339,634.356L234.546,634.356L234.753,634.426L234.96,634.599L235.064,634.807L235.098,635.05L235.064,635.188L234.926,635.362L234.788,635.5L234.615,635.57L226.222,637.441L234.546,639.313L234.753,639.383L234.96,639.556L235.064,639.764L235.098,640.007L235.029,640.214L234.857,640.422L234.65,640.526L234.339,640.526L234.373,640.491L223.423,638.1L223.182,638.031L222.974,637.892L222.836,637.684L222.802,637.441L222.836,637.233L222.974,637.025L223.182,636.887L223.423,636.817L234.339,634.356" style="fill:rgb(1,1,1);"/>
                        </g>
                        <g transform="matrix(0.12171,0,0,-0.12214,137.001,256.513)">
                            <path d="M1747.64,426.269L421.16,426.269" style="fill:none;fill-rule:nonzero;stroke:rgb(1,1,1);stroke-width:7.1px;"/>
                        </g>
                        <g transform="matrix(0.12171,0,0,-0.12214,137.001,256.513)">
                            <path d="M2031.44,339.425L785.842,339.425" style="fill:none;fill-rule:nonzero;stroke:rgb(1,1,1);stroke-width:7.38px;"/>
                        </g>
                        <g transform="matrix(1,0,0,-1,0,841.89)">
                            <path d="M234.339,623.784L234.546,623.784L234.753,623.853L234.96,624.027L235.064,624.234L235.098,624.477L235.064,624.616L234.926,624.789L234.788,624.928L234.615,624.997L226.222,626.869L234.546,628.741L234.753,628.81L234.96,628.983L235.064,629.191L235.098,629.434L235.029,629.642L234.857,629.85L234.65,629.954L234.339,629.954L234.373,629.919L223.423,627.527L223.182,627.458L222.974,627.32L222.836,627.112L222.802,626.869L222.836,626.661L222.974,626.453L223.182,626.314L223.423,626.245L234.339,623.784" style="fill:rgb(1,1,1);"/>
                        </g>
                        <g transform="matrix(0.12171,0,0,-0.12214,137.001,256.513)">
                            <path d="M1747.64,339.71L421.16,339.71" style="fill:none;fill-rule:nonzero;stroke:rgb(1,1,1);stroke-width:7.1px;"/>
                        </g>
                        <g transform="matrix(0.12171,0,0,-0.12214,137.001,256.513)">
                            <path d="M2031.44,252.867L785.842,252.867" style="fill:none;fill-rule:nonzero;stroke:rgb(1,1,1);stroke-width:7.38px;"/>
                        </g>
                        <g transform="matrix(1,0,0,-1,0,841.89)">
                            <path d="M234.339,613.212L234.546,613.212L234.753,613.281L234.96,613.454L235.064,613.662L235.098,613.905L235.064,614.044L234.926,614.217L234.788,614.356L234.615,614.425L226.222,616.297L234.546,618.169L234.753,618.238L234.96,618.411L235.064,618.619L235.098,618.862L235.029,619.07L234.857,619.278L234.65,619.382L234.339,619.382L234.373,619.347L223.423,616.955L223.182,616.886L222.974,616.747L222.836,616.539L222.802,616.297L222.836,616.089L222.974,615.881L223.182,615.742L223.423,615.673L234.339,613.212" style="fill:rgb(1,1,1);"/>
                        </g>
                        <g transform="matrix(0.12171,0,0,-0.12214,137.001,256.513)">
                            <path d="M1747.64,253.148L421.16,253.148" style="fill:none;fill-rule:nonzero;stroke:rgb(1,1,1);stroke-width:7.1px;"/>
                        </g>
                        <g transform="matrix(0.12171,0,0,-0.12214,137.001,256.513)">
                            <path d="M2031.44,166.309L785.842,166.309" style="fill:none;fill-rule:nonzero;stroke:rgb(1,1,1);stroke-width:7.38px;"/>
                        </g>
                        <g transform="matrix(1,0,0,-1,0,841.89)">
                            <path d="M234.339,602.639L234.546,602.639L234.753,602.708L234.96,602.882L235.064,603.09L235.098,603.332L235.064,603.471L234.926,603.645L234.788,603.783L234.615,603.852L226.222,605.724L234.546,607.596L234.753,607.665L234.96,607.839L235.064,608.047L235.098,608.289L235.029,608.497L234.857,608.705L234.65,608.81L234.339,608.81L234.373,608.775L223.423,606.383L223.182,606.314L222.974,606.175L222.836,605.967L222.802,605.724L222.836,605.517L222.974,605.308L223.182,605.17L223.423,605.1L234.339,602.639" style="fill:rgb(1,1,1);"/>
                        </g>
                        <g transform="matrix(0.12171,0,0,-0.12214,137.001,256.513)">
                            <path d="M1747.64,166.589L421.16,166.589" style="fill:none;fill-rule:nonzero;stroke:rgb(1,1,1);stroke-width:7.1px;"/>
                        </g>
                        <g transform="matrix(0.12171,0,0,-0.12214,137.001,256.513)">
                            <path d="M2031.44,79.746L785.842,79.746" style="fill:none;fill-rule:nonzero;stroke:rgb(1,1,1);stroke-width:7.38px;"/>
                        </g>
                        <g transform="matrix(1,0,0,-1,0,841.89)">
                            <path d="M234.339,592.067L234.546,592.067L234.753,592.136L234.96,592.31L235.064,592.518L235.098,592.76L235.064,592.899L234.926,593.072L234.788,593.211L234.615,593.28L226.222,595.152L234.546,597.024L234.753,597.093L234.96,597.267L235.064,597.475L235.098,597.717L235.029,597.925L234.857,598.133L234.65,598.237L234.339,598.237L234.373,598.202L223.423,595.811L223.182,595.741L222.974,595.603L222.836,595.395L222.802,595.152L222.836,594.944L222.974,594.736L223.182,594.598L223.423,594.528L234.339,592.067" style="fill:rgb(1,1,1);"/>
                        </g>
                        <g transform="matrix(0.12171,0,0,-0.12214,137.001,256.513)">
                            <path d="M1747.64,80.031L421.16,80.031" style="fill:none;fill-rule:nonzero;stroke:rgb(1,1,1);stroke-width:7.1px;"/>
                        </g>
                        <g transform="matrix(1,0,0,-1,0,841.89)">
                            <path d="M157.76,705.104C165.221,705.104 170.92,699.384 170.92,691.897C170.92,684.41 165.221,678.691 157.76,678.691C150.299,678.691 144.6,684.41 144.6,691.897C144.6,699.384 150.299,705.104 157.76,705.104Z" style="fill:rgb(207,231,229);"/>
                        </g>
                        <g transform="matrix(0.12171,0,0,-0.12214,137.001,256.513)">
                            <path d="M170.562,980.246C231.866,980.246 278.69,933.418 278.69,872.116C278.69,810.818 231.866,763.99 170.562,763.99C109.263,763.99 62.434,810.818 62.434,872.116C62.434,933.418 109.263,980.246 170.562,980.246Z" style="fill:none;fill-rule:nonzero;"/>
                        </g>
                        <g transform="matrix(1,0,0,-1,0,841.89)">
                            <path d="M154.963,686.212L162.7,686.212L162.7,684.237L152.337,684.237C152.303,684.722 152.372,685.173 152.545,685.623C152.787,686.386 153.201,687.079 153.754,687.772C154.341,688.5 155.135,689.263 156.24,690.164C157.899,691.551 159.039,692.66 159.66,693.457C160.247,694.22 160.558,694.982 160.558,695.71C160.558,696.438 160.282,697.062 159.729,697.548C159.211,698.033 158.52,698.31 157.622,698.31C156.724,698.31 155.999,698.033 155.446,697.513C154.894,697.027 154.617,696.3 154.617,695.398L152.614,695.71C152.752,697.131 153.27,698.241 154.133,699.003C155.032,699.766 156.206,700.147 157.691,700.147C159.177,700.147 160.351,699.696 161.215,698.864C162.078,698.033 162.527,696.993 162.527,695.745C162.527,695.086 162.423,694.462 162.182,693.873C161.905,693.249 161.526,692.591 160.938,691.932C160.385,691.239 159.419,690.337 158.071,689.194C156.932,688.223 156.171,687.599 155.826,687.253C155.481,686.906 155.205,686.559 154.963,686.212" style="fill:rgb(1,1,1);"/>
                        </g>
                        <g transform="matrix(1,0,0,-1,0,841.89)">
                            <path d="M157.76,635.812C165.221,635.812 170.92,630.093 170.92,622.606C170.92,615.118 165.221,609.399 157.76,609.399C150.299,609.399 144.6,615.118 144.6,622.606C144.6,630.093 150.299,635.812 157.76,635.812Z" style="fill:rgb(207,231,229);"/>
                        </g>
                        <g transform="matrix(0.12171,0,0,-0.12214,137.001,256.513)">
                            <path d="M170.562,412.929C231.866,412.929 278.69,366.101 278.69,304.803C278.69,243.501 231.866,196.673 170.562,196.673C109.263,196.673 62.434,243.501 62.434,304.803C62.434,366.101 109.263,412.929 170.562,412.929Z" style="fill:none;fill-rule:nonzero;"/>
                        </g>
                        <g transform="matrix(1,0,0,-1,0,841.89)">
                            <path d="M159.936,630.821L159.936,614.91L157.968,614.91L157.968,627.285C157.519,626.869 156.897,626.418 156.171,625.968C155.412,625.517 154.755,625.17 154.168,624.963L154.168,626.834C155.239,627.354 156.171,627.978 156.966,628.706C157.76,629.4 158.347,630.127 158.658,630.821L159.936,630.821" style="fill:rgb(1,1,1);"/>
                        </g>
                        <g transform="matrix(0.12171,0,0,-0.12214,137.001,256.513)">
                            <path d="M2297.08,836.074L2297.08,299.695" style="fill:none;fill-rule:nonzero;stroke:rgb(1,1,1);stroke-width:7.38px;"/>
                        </g>
                        <g transform="matrix(1,0,0,-1,0,841.89)">
                            <path d="M414.817,622.883L414.368,623.23L416.545,617.094L418.755,623.23L418.306,622.918L417.753,622.64L417.2,622.467L416.579,622.398L415.957,622.467L415.335,622.64L414.817,622.883" style="fill:rgb(1,1,1);"/>
                        </g>
                        <g transform="matrix(1,0,0,-1,0,841.89)">
                            <path d="M423.694,610.889L426.044,610.889L425.801,609.988L424.35,609.988C424.454,609.676 424.523,609.364 424.523,609.087C424.523,608.289 424.178,607.562 423.521,606.938C422.831,606.314 421.898,605.967 420.724,605.898C420.171,605.724 419.756,605.517 419.481,605.274C419.377,605.17 419.307,605.066 419.307,604.996C419.307,604.858 419.377,604.754 419.445,604.65C419.515,604.581 419.688,604.476 419.963,604.373L421.76,603.922C422.762,603.679 423.418,603.402 423.728,603.09C424.005,602.778 424.143,602.431 424.143,602.016C424.143,601.53 423.971,601.08 423.591,600.698C423.246,600.282 422.727,599.97 422.036,599.762C421.345,599.52 420.585,599.416 419.722,599.416C418.997,599.416 418.341,599.52 417.719,599.693C417.097,599.866 416.682,600.074 416.406,600.386C416.164,600.698 416.026,600.975 416.026,601.287C416.026,601.565 416.13,601.807 416.303,602.085C416.475,602.362 416.717,602.605 416.993,602.778C417.166,602.882 417.649,603.16 418.478,603.575C418.202,603.783 418.064,604.026 418.064,604.269C418.064,604.511 418.167,604.754 418.375,605.031C418.617,605.308 419.066,605.586 419.791,605.898C419.135,606.036 418.617,606.314 418.237,606.73C417.857,607.145 417.685,607.631 417.685,608.151C417.685,608.983 418.03,609.745 418.789,610.404C419.549,611.063 420.517,611.375 421.76,611.375C422.209,611.375 422.588,611.34 422.865,611.27C423.142,611.201 423.418,611.063 423.694,610.889ZM423.003,609.433C423.003,609.884 422.865,610.231 422.588,610.473C422.347,610.751 421.968,610.889 421.552,610.889C420.862,610.889 420.308,610.543 419.861,609.919C419.411,609.26 419.204,608.601 419.204,607.908C419.204,607.457 419.343,607.111 419.618,606.833C419.895,606.556 420.24,606.418 420.655,606.418C420.966,606.418 421.277,606.521 421.587,606.66C421.864,606.833 422.14,607.076 422.347,607.354C422.554,607.631 422.693,608.012 422.831,608.463C422.935,608.913 423.003,609.225 423.003,609.433ZM418.893,603.332C418.341,603.125 417.96,602.848 417.685,602.501C417.442,602.154 417.304,601.807 417.304,601.461C417.304,601.08 417.476,600.733 417.822,600.49C418.341,600.109 419.066,599.936 420.067,599.936C420.896,599.936 421.622,600.074 422.243,600.351C422.831,600.663 423.142,601.045 423.142,601.495C423.142,601.738 423.038,601.946 422.796,602.154C422.588,602.396 422.175,602.536 421.552,602.674C421.207,602.743 420.308,602.986 418.893,603.332" style="fill:rgb(1,1,1);"/>
                        </g>
                        <g transform="matrix(1,0,0,-1,0,841.89)">
                            <path d="M425.283,616.124L425.733,616.124C426.251,615.534 426.734,615.083 427.114,614.806C427.493,614.494 427.874,614.251 428.219,614.113L428.219,613.836C427.804,613.662 427.425,613.42 427.045,613.108C426.7,612.796 426.251,612.38 425.733,611.79L425.249,611.79C425.628,612.588 426.044,613.212 426.457,613.662L416.856,613.662L416.856,614.251L426.457,614.251C426.146,614.633 425.939,614.945 425.801,615.118C425.698,615.326 425.526,615.638 425.283,616.124" style="fill:rgb(1,1,1);"/>
                        </g>
                    </g>
                </g>
            </g>
        </g>
        <g transform="matrix(1,0,0,1,26.2714,-46.7483)">
            <text x="1220.58px" y="1273.92px" style="font-family:'Helvetica';font-size:77.606px;">ρ</text>
        </g>
        <g transform="matrix(1,0,0,1,20.9964,-590.547)">
            <text x="1220.58px" y="1273.92px" style="font-family:'Helvetica';font-size:77.606px;">ρ</text>
        </g>
        <g transform="matrix(1,0,0,1,137.31,-47.2186)">
            <g transform="matrix(77.6065,0,0,77.6065,1259.38,1273.92)">
            </g>
            <text x="1220.58px" y="1273.92px" style="font-family:'Avenir-Medium', 'Avenir';font-weight:500;font-size:77.606px;">v</text>
        </g>
        <g transform="matrix(1,0,0,1,132.035,-591.018)">
            <g transform="matrix(77.6065,0,0,77.6065,1259.38,1273.92)">
            </g>
            <text x="1220.58px" y="1273.92px" style="font-family:'Avenir-Medium', 'Avenir';font-weight:500;font-size:77.606px;">v</text>
        </g>
        <g transform="matrix(1,0,0,1,-62.5005,-64.0828)">
            <g transform="matrix(45.043,0,0,45.043,1362.82,1327.68)">
            </g>
            <text x="1337.77px" y="1327.68px" style="font-family:'Avenir-Medium', 'Avenir';font-weight:500;font-size:45.043px;">1</text>
        </g>
        <g transform="matrix(1,0,0,1,-67.7755,-607.882)">
            <g transform="matrix(45.043,0,0,45.043,1362.82,1327.68)">
            </g>
            <text x="1337.77px" y="1327.68px" style="font-family:'Avenir-Medium', 'Avenir';font-weight:500;font-size:45.043px;">2</text>
        </g>
        <g transform="matrix(1,0,0,1,48.5381,-64.553)">
            <g transform="matrix(45.043,0,0,45.043,1362.82,1327.68)">
            </g>
            <text x="1337.77px" y="1327.68px" style="font-family:'Avenir-Medium', 'Avenir';font-weight:500;font-size:45.043px;">1</text>
        </g>
        <g transform="matrix(1,0,0,1,43.263,-608.352)">
            <g transform="matrix(45.043,0,0,45.043,1362.82,1327.68)">
            </g>
            <text x="1337.77px" y="1327.68px" style="font-family:'Avenir-Medium', 'Avenir';font-weight:500;font-size:45.043px;">2</text>
        </g>
        <g>
            <text x="1956.78px" y="619.222px" style="font-family:'Avenir-Medium', 'Avenir';font-weight:500;font-size:55.672px;">e.g. instable for</text>
            <text x="2368.19px" y="619.222px" style="font-family:'Helvetica';font-size:55.672px;">ρ</text>
            <text x="2433.15px" y="619.222px" style="font-family:'Avenir-Medium', 'Avenir';font-weight:500;font-size:55.672px;">&lt;</text>
            <text x="2501.18px" y="619.222px" style="font-family:'Helvetica';font-size:55.672px;">ρ</text>
        </g>
        <g transform="matrix(1,0,0,1,-12.696,-24.1333)">
            <g transform="matrix(42.2471,0,0,42.2471,2426.66,676.573)">
            </g>
            <text x="2403.17px" y="676.573px" style="font-family:'Avenir-Medium', 'Avenir';font-weight:500;font-size:42.247px;">1</text>
        </g>
        <g transform="matrix(1,0,0,1,120.524,-24.1333)">
            <g transform="matrix(42.2471,0,0,42.2471,2426.66,676.573)">
            </g>
            <text x="2403.17px" y="676.573px" style="font-family:'Avenir-Medium', 'Avenir';font-weight:500;font-size:42.247px;">2</text>
        </g>
        <g transform="matrix(0.988623,0,0,0.970553,13.6734,38.0233)">
            <rect x="1201.82" y="531.021" width="1479.7" height="760.207" style="fill:rgb(237,237,237);fill-opacity:0;"/>
        </g>
    </g>
</svg>
