<?xml version="1.0" encoding="utf-8" standalone="no"?>
<!DOCTYPE svg PUBLIC "-//W3C//DTD SVG 1.1//EN"
  "http://www.w3.org/Graphics/SVG/1.1/DTD/svg11.dtd">
<svg xmlns:xlink="http://www.w3.org/1999/xlink" width="288pt" height="288pt" viewBox="0 0 288 288" xmlns="http://www.w3.org/2000/svg" version="1.1">
 <metadata>
  <rdf:RDF xmlns:dc="http://purl.org/dc/elements/1.1/" xmlns:cc="http://creativecommons.org/ns#" xmlns:rdf="http://www.w3.org/1999/02/22-rdf-syntax-ns#">
   <cc:Work>
    <dc:type rdf:resource="http://purl.org/dc/dcmitype/StillImage"/>
    <dc:date>2024-01-21T13:26:18.538501</dc:date>
    <dc:format>image/svg+xml</dc:format>
    <dc:creator>
     <cc:Agent>
      <dc:title>Matplotlib v3.5.1, https://matplotlib.org/</dc:title>
     </cc:Agent>
    </dc:creator>
   </cc:Work>
  </rdf:RDF>
 </metadata>
 <defs>
  <style type="text/css">*{stroke-linejoin: round; stroke-linecap: butt}</style>
 </defs>
 <g id="figure_1">
  <g id="patch_1">
   <path d="M 0 288 
L 288 288 
L 288 0 
L 0 0 
z
" style="fill: #ffffff"/>
  </g>
  <g id="axes_1">
   <g id="patch_2">
    <path d="M 46.706646 76.280049 
L 277.2 76.280049 
L 277.2 48.571556 
L 46.706646 48.571556 
z
" style="fill: #ffffff"/>
   </g>
   <g id="matplotlib.axis_1">
    <g id="xtick_1">
     <g id="line2d_1">
      <defs>
       <path id="m61bb033e34" d="M 0 0 
L 0 3.5 
" style="stroke: #000000; stroke-width: 0.8"/>
      </defs>
      <g>
       <use xlink:href="#m61bb033e34" x="80.465773" y="76.280049" style="stroke: #000000; stroke-width: 0.8"/>
      </g>
     </g>
     <g id="text_1">
      <!-- $\mathdefault{2}$ -->
      <g transform="translate(77.975106 90.198548)scale(0.1 -0.1)">
       <defs>
        <path id="CMR17-32" d="M 2669 989 
L 2554 989 
C 2490 536 2438 459 2413 420 
C 2381 369 1920 369 1830 369 
L 602 369 
C 832 619 1280 1072 1824 1597 
C 2214 1967 2669 2402 2669 3035 
C 2669 3790 2067 4224 1395 4224 
C 691 4224 262 3604 262 3030 
C 262 2780 448 2748 525 2748 
C 589 2748 781 2787 781 3010 
C 781 3207 614 3264 525 3264 
C 486 3264 448 3258 422 3245 
C 544 3790 915 4058 1306 4058 
C 1862 4058 2227 3617 2227 3035 
C 2227 2479 1901 2000 1536 1584 
L 262 146 
L 262 0 
L 2515 0 
L 2669 989 
z
" transform="scale(0.015625)"/>
       </defs>
       <use xlink:href="#CMR17-32" transform="scale(0.996264)"/>
      </g>
     </g>
    </g>
    <g id="xtick_2">
     <g id="line2d_2">
      <g>
       <use xlink:href="#m61bb033e34" x="127.030087" y="76.280049" style="stroke: #000000; stroke-width: 0.8"/>
      </g>
     </g>
     <g id="text_2">
      <!-- $\mathdefault{4}$ -->
      <g transform="translate(124.53942 90.198548)scale(0.1 -0.1)">
       <defs>
        <path id="CMR17-34" d="M 2150 4122 
C 2150 4256 2144 4256 2029 4256 
L 128 1254 
L 128 1088 
L 1779 1088 
L 1779 457 
C 1779 224 1766 160 1318 160 
L 1197 160 
L 1197 0 
C 1402 0 1747 0 1965 0 
C 2182 0 2528 0 2733 0 
L 2733 160 
L 2611 160 
C 2163 160 2150 224 2150 457 
L 2150 1088 
L 2803 1088 
L 2803 1254 
L 2150 1254 
L 2150 4122 
z
M 1798 3703 
L 1798 1254 
L 256 1254 
L 1798 3703 
z
" transform="scale(0.015625)"/>
       </defs>
       <use xlink:href="#CMR17-34" transform="scale(0.996264)"/>
      </g>
     </g>
    </g>
    <g id="xtick_3">
     <g id="line2d_3">
      <g>
       <use xlink:href="#m61bb033e34" x="173.594401" y="76.280049" style="stroke: #000000; stroke-width: 0.8"/>
      </g>
     </g>
     <g id="text_3">
      <!-- $\mathdefault{6}$ -->
      <g transform="translate(171.103734 90.198548)scale(0.1 -0.1)">
       <defs>
        <path id="CMR17-36" d="M 678 2176 
C 678 3690 1395 4032 1811 4032 
C 1946 4032 2272 4009 2400 3776 
C 2298 3776 2106 3776 2106 3553 
C 2106 3381 2246 3323 2336 3323 
C 2394 3323 2566 3348 2566 3560 
C 2566 3954 2246 4179 1805 4179 
C 1043 4179 243 3390 243 1984 
C 243 253 966 -128 1478 -128 
C 2099 -128 2688 427 2688 1283 
C 2688 2081 2170 2662 1517 2662 
C 1126 2662 838 2407 678 1960 
L 678 2176 
z
M 1478 25 
C 691 25 691 1200 691 1436 
C 691 1896 909 2560 1504 2560 
C 1613 2560 1926 2560 2138 2120 
C 2253 1870 2253 1609 2253 1289 
C 2253 944 2253 690 2118 434 
C 1978 171 1773 25 1478 25 
z
" transform="scale(0.015625)"/>
       </defs>
       <use xlink:href="#CMR17-36" transform="scale(0.996264)"/>
      </g>
     </g>
    </g>
    <g id="xtick_4">
     <g id="line2d_4">
      <g>
       <use xlink:href="#m61bb033e34" x="220.158715" y="76.280049" style="stroke: #000000; stroke-width: 0.8"/>
      </g>
     </g>
     <g id="text_4">
      <!-- $\mathdefault{8}$ -->
      <g transform="translate(217.668048 90.198548)scale(0.1 -0.1)">
       <defs>
        <path id="CMR17-38" d="M 1741 2264 
C 2144 2467 2554 2773 2554 3263 
C 2554 3841 1990 4179 1472 4179 
C 890 4179 378 3759 378 3180 
C 378 3021 416 2747 666 2505 
C 730 2442 998 2251 1171 2130 
C 883 1983 211 1634 211 934 
C 211 279 838 -128 1459 -128 
C 2144 -128 2720 362 2720 1010 
C 2720 1590 2330 1857 2074 2029 
L 1741 2264 
z
M 902 2822 
C 851 2854 595 3051 595 3351 
C 595 3739 998 4032 1459 4032 
C 1965 4032 2336 3676 2336 3262 
C 2336 2669 1670 2331 1638 2331 
C 1632 2331 1626 2331 1574 2370 
L 902 2822 
z
M 2080 1519 
C 2176 1449 2483 1240 2483 851 
C 2483 381 2010 25 1472 25 
C 890 25 448 438 448 940 
C 448 1443 838 1862 1280 2060 
L 2080 1519 
z
" transform="scale(0.015625)"/>
       </defs>
       <use xlink:href="#CMR17-38" transform="scale(0.996264)"/>
      </g>
     </g>
    </g>
    <g id="xtick_5">
     <g id="line2d_5">
      <g>
       <use xlink:href="#m61bb033e34" x="266.723029" y="76.280049" style="stroke: #000000; stroke-width: 0.8"/>
      </g>
     </g>
     <g id="text_5">
      <!-- $\mathdefault{10}$ -->
      <g transform="translate(261.741694 90.198548)scale(0.1 -0.1)">
       <defs>
        <path id="CMR17-31" d="M 1702 4058 
C 1702 4192 1696 4192 1606 4192 
C 1357 3916 979 3827 621 3827 
C 602 3827 570 3827 563 3808 
C 557 3795 557 3782 557 3648 
C 755 3648 1088 3686 1344 3839 
L 1344 461 
C 1344 236 1331 160 781 160 
L 589 160 
L 589 0 
C 896 0 1216 0 1523 0 
C 1830 0 2150 0 2458 0 
L 2458 160 
L 2266 160 
C 1715 160 1702 230 1702 458 
L 1702 4058 
z
" transform="scale(0.015625)"/>
        <path id="CMR17-30" d="M 2688 2025 
C 2688 2416 2682 3080 2413 3591 
C 2176 4039 1798 4198 1466 4198 
C 1158 4198 768 4058 525 3597 
C 269 3118 243 2524 243 2025 
C 243 1661 250 1106 448 619 
C 723 -39 1216 -128 1466 -128 
C 1760 -128 2208 -7 2470 600 
C 2662 1042 2688 1559 2688 2025 
z
M 1466 -26 
C 1056 -26 813 325 723 812 
C 653 1188 653 1738 653 2096 
C 653 2588 653 2997 736 3387 
C 858 3929 1216 4096 1466 4096 
C 1728 4096 2067 3923 2189 3400 
C 2272 3036 2278 2607 2278 2096 
C 2278 1680 2278 1169 2202 792 
C 2067 95 1690 -26 1466 -26 
z
" transform="scale(0.015625)"/>
       </defs>
       <use xlink:href="#CMR17-31" transform="scale(0.996264)"/>
       <use xlink:href="#CMR17-30" transform="translate(45.690477 0)scale(0.996264)"/>
      </g>
     </g>
    </g>
   </g>
   <g id="matplotlib.axis_2">
    <g id="ytick_1">
     <g id="line2d_6">
      <defs>
       <path id="mebb1e36dcf" d="M 0 0 
L -3.5 0 
" style="stroke: #000000; stroke-width: 0.8"/>
      </defs>
      <g>
       <use xlink:href="#mebb1e36dcf" x="46.706646" y="66.793686" style="stroke: #000000; stroke-width: 0.8"/>
      </g>
     </g>
     <g id="text_6">
      <!-- $\mathdefault{0.5}$ -->
      <g transform="translate(26.976567 70.252935)scale(0.1 -0.1)">
       <defs>
        <path id="CMMI12-3a" d="M 1178 307 
C 1178 492 1024 619 870 619 
C 685 619 557 466 557 313 
C 557 128 710 0 864 0 
C 1050 0 1178 153 1178 307 
z
" transform="scale(0.015625)"/>
        <path id="CMR17-35" d="M 730 3692 
C 794 3666 1056 3584 1325 3584 
C 1920 3584 2246 3911 2432 4100 
C 2432 4157 2432 4192 2394 4192 
C 2387 4192 2374 4192 2323 4163 
C 2099 4058 1837 3973 1517 3973 
C 1325 3973 1037 3999 723 4139 
C 653 4171 640 4171 634 4171 
C 602 4171 595 4164 595 4037 
L 595 2203 
C 595 2089 595 2057 659 2057 
C 691 2057 704 2070 736 2114 
C 941 2401 1222 2522 1542 2522 
C 1766 2522 2246 2382 2246 1289 
C 2246 1085 2246 715 2054 421 
C 1894 159 1645 25 1370 25 
C 947 25 518 320 403 814 
C 429 807 480 795 506 795 
C 589 795 749 840 749 1038 
C 749 1210 627 1280 506 1280 
C 358 1280 262 1190 262 1011 
C 262 454 704 -128 1382 -128 
C 2042 -128 2669 440 2669 1264 
C 2669 2030 2170 2624 1549 2624 
C 1222 2624 947 2503 730 2274 
L 730 3692 
z
" transform="scale(0.015625)"/>
       </defs>
       <use xlink:href="#CMR17-30" transform="scale(0.996264)"/>
       <use xlink:href="#CMMI12-3a" transform="translate(45.690477 0)scale(0.996264)"/>
       <use xlink:href="#CMR17-35" transform="translate(72.787654 0)scale(0.996264)"/>
      </g>
     </g>
    </g>
    <g id="ytick_2">
     <g id="line2d_7">
      <g>
       <use xlink:href="#mebb1e36dcf" x="46.706646" y="49.831033" style="stroke: #000000; stroke-width: 0.8"/>
      </g>
     </g>
     <g id="text_7">
      <!-- $\mathdefault{1.0}$ -->
      <g transform="translate(26.976567 53.290282)scale(0.1 -0.1)">
       <use xlink:href="#CMR17-31" transform="scale(0.996264)"/>
       <use xlink:href="#CMMI12-3a" transform="translate(45.690477 0)scale(0.996264)"/>
       <use xlink:href="#CMR17-30" transform="translate(72.787654 0)scale(0.996264)"/>
      </g>
     </g>
    </g>
    <g id="text_8">
     <!-- $v_2 / v_1$ -->
     <g transform="translate(20.485907 73.965894)rotate(-90)scale(0.1 -0.1)">
      <defs>
       <path id="CMMI12-76" d="M 2925 2389 
C 2925 2791 2720 2816 2669 2816 
C 2515 2816 2374 2663 2374 2535 
C 2374 2459 2419 2414 2445 2389 
C 2509 2331 2675 2159 2675 1827 
C 2675 1558 2291 64 1523 64 
C 1133 64 1056 390 1056 626 
C 1056 945 1203 1392 1376 1852 
C 1478 2114 1504 2178 1504 2305 
C 1504 2574 1312 2816 998 2816 
C 410 2816 173 1890 173 1839 
C 173 1814 198 1782 243 1782 
C 301 1782 307 1807 333 1897 
C 486 2446 736 2689 979 2689 
C 1037 2689 1146 2689 1146 2478 
C 1146 2312 1075 2127 979 1884 
C 672 1067 672 869 672 715 
C 672 575 691 313 890 134 
C 1120 -64 1440 -64 1498 -64 
C 2560 -64 2925 2024 2925 2389 
z
" transform="scale(0.015625)"/>
       <path id="CMMI12-3d" d="M 2746 4562 
C 2746 4569 2784 4666 2784 4678 
C 2784 4755 2720 4800 2669 4800 
C 2637 4800 2579 4800 2528 4659 
L 384 -1363 
C 384 -1370 346 -1465 346 -1478 
C 346 -1555 410 -1600 461 -1600 
C 499 -1600 557 -1593 602 -1459 
L 2746 4562 
z
" transform="scale(0.015625)"/>
      </defs>
      <use xlink:href="#CMMI12-76" transform="scale(0.996264)"/>
      <use xlink:href="#CMR17-32" transform="translate(47.160581 -14.943915)scale(0.697382)"/>
      <use xlink:href="#CMMI12-3d" transform="translate(79.641895 0)scale(0.996264)"/>
      <use xlink:href="#CMMI12-76" transform="translate(128.416813 0)scale(0.996264)"/>
      <use xlink:href="#CMR17-31" transform="translate(175.577394 -14.943915)scale(0.697382)"/>
     </g>
    </g>
   </g>
   <g id="line2d_8">
    <path d="M 57.183616 49.831033 
L 59.300176 53.895002 
L 61.416736 57.057726 
L 63.533296 59.56725 
L 65.649855 61.591806 
L 67.766415 63.248757 
L 69.882975 64.621997 
L 71.999535 65.772786 
L 74.116094 66.746698 
L 76.232654 67.578209 
L 78.349214 68.293784 
L 80.465773 68.914018 
L 82.582333 69.455123 
L 84.698893 69.93001 
L 86.815453 70.349058 
L 88.932012 70.720691 
L 91.048572 71.0518 
L 93.165132 71.348072 
L 95.281692 71.614226 
L 97.398251 71.854211 
L 99.514811 72.071348 
L 101.631371 72.268448 
L 103.74793 72.447904 
L 105.86449 72.611758 
L 107.98105 72.76177 
L 110.09761 72.899456 
L 112.214169 73.026129 
L 114.330729 73.142934 
L 116.447289 73.250869 
L 118.563849 73.350811 
L 120.680408 73.44353 
L 122.796968 73.529705 
L 124.913528 73.609938 
L 127.030087 73.684764 
L 129.146647 73.754656 
L 131.263207 73.82004 
L 133.379767 73.881295 
L 135.496326 73.938762 
L 137.612886 73.992746 
L 139.729446 74.043524 
L 141.846006 74.091344 
L 143.962565 74.136432 
L 146.079125 74.178992 
L 148.195685 74.219209 
L 150.312244 74.257253 
L 152.428804 74.293277 
L 154.545364 74.327422 
L 156.661924 74.359816 
L 158.778483 74.390576 
L 160.895043 74.419812 
L 163.011603 74.447621 
L 165.128163 74.474096 
L 167.244722 74.49932 
L 169.361282 74.523371 
L 171.477842 74.546321 
L 173.594401 74.568235 
L 175.710961 74.589175 
L 177.827521 74.609199 
L 179.944081 74.628358 
L 182.06064 74.646702 
L 184.1772 74.664276 
L 186.29376 74.681123 
L 188.41032 74.697283 
L 190.526879 74.712791 
L 192.643439 74.727684 
L 194.759999 74.741993 
L 196.876558 74.755747 
L 198.993118 74.768977 
L 201.109678 74.781706 
L 203.226238 74.793962 
L 205.342797 74.805767 
L 207.459357 74.817142 
L 209.575917 74.828108 
L 211.692476 74.838686 
L 213.809036 74.848892 
L 215.925596 74.858744 
L 218.042156 74.868258 
L 220.158715 74.87745 
L 222.275275 74.886334 
L 224.391835 74.894923 
L 226.508395 74.903231 
L 228.624954 74.911269 
L 230.741514 74.91905 
L 232.858074 74.926583 
L 234.974633 74.93388 
L 237.091193 74.94095 
L 239.207753 74.947802 
L 241.324313 74.954446 
L 243.440872 74.960889 
L 245.557432 74.96714 
L 247.673992 74.973206 
L 249.790552 74.979095 
L 251.907111 74.984813 
L 254.023671 74.990367 
L 256.140231 74.995763 
L 258.25679 75.001007 
L 260.37335 75.006105 
L 262.48991 75.011062 
L 264.60647 75.015882 
L 266.723029 75.020573 
" clip-path="url(#pbaf2ec2950)" style="fill: none; stroke: #1f77b4; stroke-width: 1.5; stroke-linecap: square"/>
   </g>
   <g id="patch_3">
    <path d="M 46.706646 76.280049 
L 46.706646 48.571556 
" style="fill: none; stroke: #000000; stroke-width: 0.8; stroke-linejoin: miter; stroke-linecap: square"/>
   </g>
   <g id="patch_4">
    <path d="M 277.2 76.280049 
L 277.2 48.571556 
" style="fill: none; stroke: #000000; stroke-width: 0.8; stroke-linejoin: miter; stroke-linecap: square"/>
   </g>
   <g id="patch_5">
    <path d="M 46.706646 76.280049 
L 277.2 76.280049 
" style="fill: none; stroke: #000000; stroke-width: 0.8; stroke-linejoin: miter; stroke-linecap: square"/>
   </g>
   <g id="patch_6">
    <path d="M 46.706646 48.571556 
L 277.2 48.571556 
" style="fill: none; stroke: #000000; stroke-width: 0.8; stroke-linejoin: miter; stroke-linecap: square"/>
   </g>
  </g>
  <g id="axes_2">
   <g id="patch_7">
    <path d="M 46.706646 133.682915 
L 277.2 133.682915 
L 277.2 105.974422 
L 46.706646 105.974422 
z
" style="fill: #ffffff"/>
   </g>
   <g id="matplotlib.axis_3">
    <g id="xtick_6">
     <g id="line2d_9">
      <g>
       <use xlink:href="#m61bb033e34" x="80.465773" y="133.682915" style="stroke: #000000; stroke-width: 0.8"/>
      </g>
     </g>
     <g id="text_9">
      <!-- $\mathdefault{2}$ -->
      <g transform="translate(77.975106 147.601414)scale(0.1 -0.1)">
       <use xlink:href="#CMR17-32" transform="scale(0.996264)"/>
      </g>
     </g>
    </g>
    <g id="xtick_7">
     <g id="line2d_10">
      <g>
       <use xlink:href="#m61bb033e34" x="127.030087" y="133.682915" style="stroke: #000000; stroke-width: 0.8"/>
      </g>
     </g>
     <g id="text_10">
      <!-- $\mathdefault{4}$ -->
      <g transform="translate(124.53942 147.601414)scale(0.1 -0.1)">
       <use xlink:href="#CMR17-34" transform="scale(0.996264)"/>
      </g>
     </g>
    </g>
    <g id="xtick_8">
     <g id="line2d_11">
      <g>
       <use xlink:href="#m61bb033e34" x="173.594401" y="133.682915" style="stroke: #000000; stroke-width: 0.8"/>
      </g>
     </g>
     <g id="text_11">
      <!-- $\mathdefault{6}$ -->
      <g transform="translate(171.103734 147.601414)scale(0.1 -0.1)">
       <use xlink:href="#CMR17-36" transform="scale(0.996264)"/>
      </g>
     </g>
    </g>
    <g id="xtick_9">
     <g id="line2d_12">
      <g>
       <use xlink:href="#m61bb033e34" x="220.158715" y="133.682915" style="stroke: #000000; stroke-width: 0.8"/>
      </g>
     </g>
     <g id="text_12">
      <!-- $\mathdefault{8}$ -->
      <g transform="translate(217.668048 147.601414)scale(0.1 -0.1)">
       <use xlink:href="#CMR17-38" transform="scale(0.996264)"/>
      </g>
     </g>
    </g>
    <g id="xtick_10">
     <g id="line2d_13">
      <g>
       <use xlink:href="#m61bb033e34" x="266.723029" y="133.682915" style="stroke: #000000; stroke-width: 0.8"/>
      </g>
     </g>
     <g id="text_13">
      <!-- $\mathdefault{10}$ -->
      <g transform="translate(261.741694 147.601414)scale(0.1 -0.1)">
       <use xlink:href="#CMR17-31" transform="scale(0.996264)"/>
       <use xlink:href="#CMR17-30" transform="translate(45.690477 0)scale(0.996264)"/>
      </g>
     </g>
    </g>
   </g>
   <g id="matplotlib.axis_4">
    <g id="ytick_3">
     <g id="line2d_14">
      <g>
       <use xlink:href="#mebb1e36dcf" x="46.706646" y="123.687672" style="stroke: #000000; stroke-width: 0.8"/>
      </g>
     </g>
     <g id="text_14">
      <!-- $\mathdefault{2}$ -->
      <g transform="translate(34.725311 127.146921)scale(0.1 -0.1)">
       <use xlink:href="#CMR17-32" transform="scale(0.996264)"/>
      </g>
     </g>
    </g>
    <g id="ytick_4">
     <g id="line2d_15">
      <g>
       <use xlink:href="#mebb1e36dcf" x="46.706646" y="106.21614" style="stroke: #000000; stroke-width: 0.8"/>
      </g>
     </g>
     <g id="text_15">
      <!-- $\mathdefault{4}$ -->
      <g transform="translate(34.725311 109.675389)scale(0.1 -0.1)">
       <use xlink:href="#CMR17-34" transform="scale(0.996264)"/>
      </g>
     </g>
    </g>
    <g id="text_16">
     <!-- $\rho_2 / \rho_1$ -->
     <g transform="translate(28.234651 131.690475)rotate(-90)scale(0.1 -0.1)">
      <defs>
       <path id="CMMI12-1a" d="M 198 -1107 
C 192 -1139 179 -1177 179 -1216 
C 179 -1312 256 -1376 352 -1376 
C 448 -1376 538 -1312 576 -1222 
C 602 -1164 781 -397 986 390 
C 1114 70 1350 -64 1600 -64 
C 2323 -64 3142 830 3142 1795 
C 3142 2478 2726 2816 2285 2816 
C 1722 2816 1037 2235 826 1385 
L 198 -1107 
z
M 1594 64 
C 1158 64 1050 569 1050 645 
C 1050 684 1210 1295 1229 1391 
C 1555 2670 2182 2670 2278 2670 
C 2566 2670 2726 2410 2726 2036 
C 2726 1712 2554 1084 2445 819 
C 2253 381 1920 64 1594 64 
z
" transform="scale(0.015625)"/>
      </defs>
      <use xlink:href="#CMMI12-1a" transform="scale(0.996264)"/>
      <use xlink:href="#CMR17-32" transform="translate(50.314373 -14.943915)scale(0.697382)"/>
      <use xlink:href="#CMMI12-3d" transform="translate(82.795687 0)scale(0.996264)"/>
      <use xlink:href="#CMMI12-1a" transform="translate(131.570606 0)scale(0.996264)"/>
      <use xlink:href="#CMR17-31" transform="translate(181.884978 -14.943915)scale(0.697382)"/>
     </g>
    </g>
   </g>
   <g id="line2d_16">
    <path d="M 57.183616 132.423438 
L 59.300176 131.234547 
L 61.416736 130.05887 
L 63.533296 128.907253 
L 65.649855 127.788134 
L 67.766415 126.707792 
L 69.882975 125.670637 
L 71.999535 124.679506 
L 74.116094 123.735936 
L 76.232654 122.840429 
L 78.349214 121.992673 
L 80.465773 121.191739 
L 82.582333 120.436243 
L 84.698893 119.724481 
L 86.815453 119.054533 
L 88.932012 118.424352 
L 91.048572 117.831829 
L 93.165132 117.274843 
L 95.281692 116.7513 
L 97.398251 116.259158 
L 99.514811 115.796451 
L 101.631371 115.361297 
L 103.74793 114.951906 
L 105.86449 114.566589 
L 107.98105 114.203755 
L 110.09761 113.86191 
L 112.214169 113.539657 
L 114.330729 113.235693 
L 116.447289 112.9488 
L 118.563849 112.677848 
L 120.680408 112.421782 
L 122.796968 112.179625 
L 124.913528 111.950467 
L 127.030087 111.733466 
L 129.146647 111.527837 
L 131.263207 111.332853 
L 133.379767 111.14784 
L 135.496326 110.97217 
L 137.612886 110.805262 
L 139.729446 110.646574 
L 141.846006 110.495604 
L 143.962565 110.351886 
L 146.079125 110.214984 
L 148.195685 110.084494 
L 150.312244 109.96004 
L 152.428804 109.841271 
L 154.545364 109.72786 
L 156.661924 109.619502 
L 158.778483 109.515914 
L 160.895043 109.416829 
L 163.011603 109.322 
L 165.128163 109.231194 
L 167.244722 109.144194 
L 169.361282 109.060798 
L 171.477842 108.980816 
L 173.594401 108.904068 
L 175.710961 108.830388 
L 177.827521 108.759619 
L 179.944081 108.691615 
L 182.06064 108.626235 
L 184.1772 108.563352 
L 186.29376 108.502841 
L 188.41032 108.444589 
L 190.526879 108.388487 
L 192.643439 108.334432 
L 194.759999 108.282329 
L 196.876558 108.232086 
L 198.993118 108.183618 
L 201.109678 108.136844 
L 203.226238 108.091688 
L 205.342797 108.048077 
L 207.459357 108.005943 
L 209.575917 107.96522 
L 211.692476 107.925849 
L 213.809036 107.88777 
L 215.925596 107.850929 
L 218.042156 107.815274 
L 220.158715 107.780755 
L 222.275275 107.747324 
L 224.391835 107.714938 
L 226.508395 107.683554 
L 228.624954 107.653132 
L 230.741514 107.623633 
L 232.858074 107.595021 
L 234.974633 107.567262 
L 237.091193 107.540321 
L 239.207753 107.514168 
L 241.324313 107.488773 
L 243.440872 107.464106 
L 245.557432 107.440142 
L 247.673992 107.416853 
L 249.790552 107.394215 
L 251.907111 107.372204 
L 254.023671 107.350797 
L 256.140231 107.329973 
L 258.25679 107.309711 
L 260.37335 107.289991 
L 262.48991 107.270795 
L 264.60647 107.252103 
L 266.723029 107.233899 
" clip-path="url(#pb14f2519de)" style="fill: none; stroke: #1f77b4; stroke-width: 1.5; stroke-linecap: square"/>
   </g>
   <g id="patch_8">
    <path d="M 46.706646 133.682915 
L 46.706646 105.974422 
" style="fill: none; stroke: #000000; stroke-width: 0.8; stroke-linejoin: miter; stroke-linecap: square"/>
   </g>
   <g id="patch_9">
    <path d="M 277.2 133.682915 
L 277.2 105.974422 
" style="fill: none; stroke: #000000; stroke-width: 0.8; stroke-linejoin: miter; stroke-linecap: square"/>
   </g>
   <g id="patch_10">
    <path d="M 46.706646 133.682915 
L 277.2 133.682915 
" style="fill: none; stroke: #000000; stroke-width: 0.8; stroke-linejoin: miter; stroke-linecap: square"/>
   </g>
   <g id="patch_11">
    <path d="M 46.706646 105.974422 
L 277.2 105.974422 
" style="fill: none; stroke: #000000; stroke-width: 0.8; stroke-linejoin: miter; stroke-linecap: square"/>
   </g>
  </g>
  <g id="axes_3">
   <g id="patch_12">
    <path d="M 46.706646 191.085781 
L 277.2 191.085781 
L 277.2 163.377288 
L 46.706646 163.377288 
z
" style="fill: #ffffff"/>
   </g>
   <g id="matplotlib.axis_5">
    <g id="xtick_11">
     <g id="line2d_17">
      <g>
       <use xlink:href="#m61bb033e34" x="80.465773" y="191.085781" style="stroke: #000000; stroke-width: 0.8"/>
      </g>
     </g>
     <g id="text_17">
      <!-- $\mathdefault{2}$ -->
      <g transform="translate(77.975106 205.004279)scale(0.1 -0.1)">
       <use xlink:href="#CMR17-32" transform="scale(0.996264)"/>
      </g>
     </g>
    </g>
    <g id="xtick_12">
     <g id="line2d_18">
      <g>
       <use xlink:href="#m61bb033e34" x="127.030087" y="191.085781" style="stroke: #000000; stroke-width: 0.8"/>
      </g>
     </g>
     <g id="text_18">
      <!-- $\mathdefault{4}$ -->
      <g transform="translate(124.53942 205.004279)scale(0.1 -0.1)">
       <use xlink:href="#CMR17-34" transform="scale(0.996264)"/>
      </g>
     </g>
    </g>
    <g id="xtick_13">
     <g id="line2d_19">
      <g>
       <use xlink:href="#m61bb033e34" x="173.594401" y="191.085781" style="stroke: #000000; stroke-width: 0.8"/>
      </g>
     </g>
     <g id="text_19">
      <!-- $\mathdefault{6}$ -->
      <g transform="translate(171.103734 205.004279)scale(0.1 -0.1)">
       <use xlink:href="#CMR17-36" transform="scale(0.996264)"/>
      </g>
     </g>
    </g>
    <g id="xtick_14">
     <g id="line2d_20">
      <g>
       <use xlink:href="#m61bb033e34" x="220.158715" y="191.085781" style="stroke: #000000; stroke-width: 0.8"/>
      </g>
     </g>
     <g id="text_20">
      <!-- $\mathdefault{8}$ -->
      <g transform="translate(217.668048 205.004279)scale(0.1 -0.1)">
       <use xlink:href="#CMR17-38" transform="scale(0.996264)"/>
      </g>
     </g>
    </g>
    <g id="xtick_15">
     <g id="line2d_21">
      <g>
       <use xlink:href="#m61bb033e34" x="266.723029" y="191.085781" style="stroke: #000000; stroke-width: 0.8"/>
      </g>
     </g>
     <g id="text_21">
      <!-- $\mathdefault{10}$ -->
      <g transform="translate(261.741694 205.004279)scale(0.1 -0.1)">
       <use xlink:href="#CMR17-31" transform="scale(0.996264)"/>
       <use xlink:href="#CMR17-30" transform="translate(45.690477 0)scale(0.996264)"/>
      </g>
     </g>
    </g>
   </g>
   <g id="matplotlib.axis_6">
    <g id="ytick_5">
     <g id="line2d_22">
      <g>
       <use xlink:href="#mebb1e36dcf" x="46.706646" y="190.029856" style="stroke: #000000; stroke-width: 0.8"/>
      </g>
     </g>
     <g id="text_22">
      <!-- $\mathdefault{0}$ -->
      <g transform="translate(34.725311 193.489105)scale(0.1 -0.1)">
       <use xlink:href="#CMR17-30" transform="scale(0.996264)"/>
      </g>
     </g>
    </g>
    <g id="ytick_6">
     <g id="line2d_23">
      <g>
       <use xlink:href="#mebb1e36dcf" x="46.706646" y="169.674673" style="stroke: #000000; stroke-width: 0.8"/>
      </g>
     </g>
     <g id="text_23">
      <!-- $\mathdefault{100}$ -->
      <g transform="translate(24.76264 173.133922)scale(0.1 -0.1)">
       <use xlink:href="#CMR17-31" transform="scale(0.996264)"/>
       <use xlink:href="#CMR17-30" transform="translate(45.690477 0)scale(0.996264)"/>
       <use xlink:href="#CMR17-30" transform="translate(91.380954 0)scale(0.996264)"/>
      </g>
     </g>
    </g>
    <g id="text_24">
     <!-- $P_2 / P_1$ -->
     <g transform="translate(18.27198 190.338655)rotate(-90)scale(0.1 -0.1)">
      <defs>
       <path id="CMMI12-50" d="M 1894 2023 
L 2970 2023 
C 3853 2023 4736 2673 4736 3401 
C 4736 3898 4314 4352 3507 4352 
L 1530 4352 
C 1408 4352 1350 4352 1350 4231 
C 1350 4167 1408 4167 1504 4167 
C 1894 4167 1894 4116 1894 4046 
C 1894 4034 1894 3995 1869 3899 
L 1005 472 
C 947 249 934 185 486 185 
C 365 185 301 185 301 70 
C 301 0 358 0 397 0 
C 518 0 646 0 768 0 
L 1517 0 
C 1638 0 1773 0 1894 0 
C 1946 0 2016 0 2016 121 
C 2016 185 1958 185 1862 185 
C 1478 185 1472 230 1472 293 
C 1472 325 1478 369 1485 401 
L 1894 2023 
z
M 2355 3930 
C 2413 4167 2438 4167 2688 4167 
L 3322 4167 
C 3802 4167 4198 4013 4198 3535 
C 4198 3369 4115 2827 3821 2534 
C 3712 2419 3405 2176 2822 2176 
L 1920 2176 
L 2355 3930 
z
" transform="scale(0.015625)"/>
      </defs>
      <use xlink:href="#CMMI12-50" transform="scale(0.996264)"/>
      <use xlink:href="#CMR17-32" transform="translate(62.877232 -14.943915)scale(0.697382)"/>
      <use xlink:href="#CMMI12-3d" transform="translate(95.358546 0)scale(0.996264)"/>
      <use xlink:href="#CMMI12-50" transform="translate(144.133465 0)scale(0.996264)"/>
      <use xlink:href="#CMR17-31" transform="translate(207.010697 -14.943915)scale(0.697382)"/>
     </g>
    </g>
   </g>
   <g id="line2d_24">
    <path d="M 57.183616 189.826304 
L 59.300176 189.777939 
L 61.416736 189.725369 
L 63.533296 189.668593 
L 65.649855 189.607612 
L 67.766415 189.542425 
L 69.882975 189.473032 
L 71.999535 189.399434 
L 74.116094 189.32163 
L 76.232654 189.23962 
L 78.349214 189.153405 
L 80.465773 189.062985 
L 82.582333 188.968358 
L 84.698893 188.869526 
L 86.815453 188.766489 
L 88.932012 188.659245 
L 91.048572 188.547797 
L 93.165132 188.432142 
L 95.281692 188.312282 
L 97.398251 188.188216 
L 99.514811 188.059945 
L 101.631371 187.927468 
L 103.74793 187.790786 
L 105.86449 187.649897 
L 107.98105 187.504804 
L 110.09761 187.355504 
L 112.214169 187.201999 
L 114.330729 187.044289 
L 116.447289 186.882372 
L 118.563849 186.716251 
L 120.680408 186.545923 
L 122.796968 186.37139 
L 124.913528 186.192651 
L 127.030087 186.009707 
L 129.146647 185.822557 
L 131.263207 185.631202 
L 133.379767 185.43564 
L 135.496326 185.235874 
L 137.612886 185.031901 
L 139.729446 184.823723 
L 141.846006 184.61134 
L 143.962565 184.39475 
L 146.079125 184.173956 
L 148.195685 183.948955 
L 150.312244 183.719749 
L 152.428804 183.486337 
L 154.545364 183.24872 
L 156.661924 183.006897 
L 158.778483 182.760868 
L 160.895043 182.510634 
L 163.011603 182.256194 
L 165.128163 181.997549 
L 167.244722 181.734698 
L 169.361282 181.467641 
L 171.477842 181.196379 
L 173.594401 180.920911 
L 175.710961 180.641238 
L 177.827521 180.357359 
L 179.944081 180.069274 
L 182.06064 179.776984 
L 184.1772 179.480488 
L 186.29376 179.179786 
L 188.41032 178.874879 
L 190.526879 178.565766 
L 192.643439 178.252448 
L 194.759999 177.934924 
L 196.876558 177.613194 
L 198.993118 177.287259 
L 201.109678 176.957118 
L 203.226238 176.622771 
L 205.342797 176.284219 
L 207.459357 175.941461 
L 209.575917 175.594498 
L 211.692476 175.243329 
L 213.809036 174.887955 
L 215.925596 174.528374 
L 218.042156 174.164589 
L 220.158715 173.796597 
L 222.275275 173.4244 
L 224.391835 173.047997 
L 226.508395 172.667389 
L 228.624954 172.282575 
L 230.741514 171.893556 
L 232.858074 171.500331 
L 234.974633 171.1029 
L 237.091193 170.701263 
L 239.207753 170.295421 
L 241.324313 169.885374 
L 243.440872 169.471121 
L 245.557432 169.052662 
L 247.673992 168.629997 
L 249.790552 168.203127 
L 251.907111 167.772052 
L 254.023671 167.33677 
L 256.140231 166.897283 
L 258.25679 166.453591 
L 260.37335 166.005693 
L 262.48991 165.553589 
L 264.60647 165.09728 
L 266.723029 164.636765 
" clip-path="url(#p48f53468aa)" style="fill: none; stroke: #1f77b4; stroke-width: 1.5; stroke-linecap: square"/>
   </g>
   <g id="patch_13">
    <path d="M 46.706646 191.085781 
L 46.706646 163.377288 
" style="fill: none; stroke: #000000; stroke-width: 0.8; stroke-linejoin: miter; stroke-linecap: square"/>
   </g>
   <g id="patch_14">
    <path d="M 277.2 191.085781 
L 277.2 163.377288 
" style="fill: none; stroke: #000000; stroke-width: 0.8; stroke-linejoin: miter; stroke-linecap: square"/>
   </g>
   <g id="patch_15">
    <path d="M 46.706646 191.085781 
L 277.2 191.085781 
" style="fill: none; stroke: #000000; stroke-width: 0.8; stroke-linejoin: miter; stroke-linecap: square"/>
   </g>
   <g id="patch_16">
    <path d="M 46.706646 163.377288 
L 277.2 163.377288 
" style="fill: none; stroke: #000000; stroke-width: 0.8; stroke-linejoin: miter; stroke-linecap: square"/>
   </g>
  </g>
  <g id="axes_4">
   <g id="patch_17">
    <path d="M 46.706646 248.488647 
L 277.2 248.488647 
L 277.2 220.780153 
L 46.706646 220.780153 
z
" style="fill: #ffffff"/>
   </g>
   <g id="matplotlib.axis_7">
    <g id="xtick_16">
     <g id="line2d_25">
      <g>
       <use xlink:href="#m61bb033e34" x="80.465773" y="248.488647" style="stroke: #000000; stroke-width: 0.8"/>
      </g>
     </g>
     <g id="text_25">
      <!-- $\mathdefault{2}$ -->
      <g transform="translate(77.975106 262.407145)scale(0.1 -0.1)">
       <use xlink:href="#CMR17-32" transform="scale(0.996264)"/>
      </g>
     </g>
    </g>
    <g id="xtick_17">
     <g id="line2d_26">
      <g>
       <use xlink:href="#m61bb033e34" x="127.030087" y="248.488647" style="stroke: #000000; stroke-width: 0.8"/>
      </g>
     </g>
     <g id="text_26">
      <!-- $\mathdefault{4}$ -->
      <g transform="translate(124.53942 262.407145)scale(0.1 -0.1)">
       <use xlink:href="#CMR17-34" transform="scale(0.996264)"/>
      </g>
     </g>
    </g>
    <g id="xtick_18">
     <g id="line2d_27">
      <g>
       <use xlink:href="#m61bb033e34" x="173.594401" y="248.488647" style="stroke: #000000; stroke-width: 0.8"/>
      </g>
     </g>
     <g id="text_27">
      <!-- $\mathdefault{6}$ -->
      <g transform="translate(171.103734 262.407145)scale(0.1 -0.1)">
       <use xlink:href="#CMR17-36" transform="scale(0.996264)"/>
      </g>
     </g>
    </g>
    <g id="xtick_19">
     <g id="line2d_28">
      <g>
       <use xlink:href="#m61bb033e34" x="220.158715" y="248.488647" style="stroke: #000000; stroke-width: 0.8"/>
      </g>
     </g>
     <g id="text_28">
      <!-- $\mathdefault{8}$ -->
      <g transform="translate(217.668048 262.407145)scale(0.1 -0.1)">
       <use xlink:href="#CMR17-38" transform="scale(0.996264)"/>
      </g>
     </g>
    </g>
    <g id="xtick_20">
     <g id="line2d_29">
      <g>
       <use xlink:href="#m61bb033e34" x="266.723029" y="248.488647" style="stroke: #000000; stroke-width: 0.8"/>
      </g>
     </g>
     <g id="text_29">
      <!-- $\mathdefault{10}$ -->
      <g transform="translate(261.741694 262.407145)scale(0.1 -0.1)">
       <use xlink:href="#CMR17-31" transform="scale(0.996264)"/>
       <use xlink:href="#CMR17-30" transform="translate(45.690477 0)scale(0.996264)"/>
      </g>
     </g>
    </g>
    <g id="text_30">
     <!-- $\mathcal{M}_1$ -->
     <g transform="translate(153.985643 275.262822)scale(0.1 -0.1)">
      <defs>
       <path id="CMSY10-4d" d="M 2464 3629 
C 2637 2797 2918 1427 3283 685 
C 3424 409 3494 269 3558 269 
C 3584 269 3597 269 3712 384 
C 4198 849 4531 1219 4979 1730 
L 6381 3357 
C 6291 2814 6061 1378 6061 631 
C 6061 459 6067 293 6086 120 
C 6093 51 6118 -135 6387 -135 
C 6656 -135 7142 147 7142 275 
C 7142 313 7104 320 7085 320 
C 7002 320 6874 263 6803 218 
C 6650 238 6637 340 6624 486 
C 6605 690 6605 882 6605 908 
C 6605 1615 6886 3548 7072 4340 
C 7078 4385 7085 4397 7085 4448 
C 7085 4473 7078 4544 7034 4544 
C 7008 4544 7002 4537 6880 4396 
C 6278 3670 4410 1436 3776 900 
C 3616 1237 3501 1480 3277 2372 
C 3091 3092 2982 3620 2874 4238 
C 2854 4327 2822 4499 2822 4512 
C 2803 4544 2771 4544 2752 4544 
C 2637 4544 2368 4404 2349 4270 
C 2272 3735 2144 2893 1696 1677 
C 1184 320 1043 320 922 320 
C 838 320 602 371 461 498 
C 429 530 416 530 403 530 
C 314 530 173 240 173 60 
C 173 2 173 -76 378 -184 
C 538 -269 691 -269 723 -269 
C 1120 -269 1498 646 1626 973 
C 1926 1696 2285 2707 2464 3629 
z
" transform="scale(0.015625)"/>
      </defs>
      <use xlink:href="#CMSY10-4d" transform="scale(0.996264)"/>
      <use xlink:href="#CMR17-31" transform="translate(119.641341 -14.943915)scale(0.697382)"/>
     </g>
    </g>
   </g>
   <g id="matplotlib.axis_8">
    <g id="ytick_7">
     <g id="line2d_30">
      <g>
       <use xlink:href="#mebb1e36dcf" x="46.706646" y="248.038521" style="stroke: #000000; stroke-width: 0.8"/>
      </g>
     </g>
     <g id="text_31">
      <!-- $\mathdefault{0}$ -->
      <g transform="translate(34.725311 251.49777)scale(0.1 -0.1)">
       <use xlink:href="#CMR17-30" transform="scale(0.996264)"/>
      </g>
     </g>
    </g>
    <g id="ytick_8">
     <g id="line2d_31">
      <g>
       <use xlink:href="#mebb1e36dcf" x="46.706646" y="227.80474" style="stroke: #000000; stroke-width: 0.8"/>
      </g>
     </g>
     <g id="text_32">
      <!-- $\mathdefault{25}$ -->
      <g transform="translate(29.743975 231.263989)scale(0.1 -0.1)">
       <use xlink:href="#CMR17-32" transform="scale(0.996264)"/>
       <use xlink:href="#CMR17-35" transform="translate(45.690477 0)scale(0.996264)"/>
      </g>
     </g>
    </g>
    <g id="text_33">
     <!-- $T_2 / T_1$ -->
     <g transform="translate(23.253315 247.167289)rotate(-90)scale(0.1 -0.1)">
      <defs>
       <path id="CMMI12-54" d="M 2669 3910 
C 2707 4064 2720 4121 2816 4147 
C 2867 4160 3078 4160 3213 4160 
C 3853 4160 4154 4134 4154 3634 
C 4154 3537 4128 3295 4090 3057 
L 4083 2980 
C 4083 2954 4109 2916 4147 2916 
C 4211 2916 4211 2948 4230 3050 
L 4416 4184 
C 4429 4243 4429 4256 4429 4275 
C 4429 4345 4390 4345 4262 4345 
L 762 4345 
C 614 4345 608 4339 570 4224 
L 179 3070 
C 173 3056 154 2986 154 2980 
C 154 2948 179 2916 218 2916 
C 269 2916 282 2941 307 3024 
C 576 3801 710 4160 1562 4160 
L 1990 4160 
C 2144 4160 2208 4160 2208 4089 
C 2208 4069 2208 4057 2176 3941 
L 1318 499 
C 1254 249 1242 185 563 185 
C 403 185 358 185 358 64 
C 358 0 429 0 461 0 
C 621 0 787 0 947 0 
L 1946 0 
C 2106 0 2278 0 2438 0 
C 2509 0 2573 0 2573 121 
C 2573 185 2528 185 2362 185 
C 1786 185 1786 243 1786 339 
C 1786 346 1786 391 1811 494 
L 2669 3910 
z
" transform="scale(0.015625)"/>
      </defs>
      <use xlink:href="#CMMI12-54" transform="scale(0.996264)"/>
      <use xlink:href="#CMR17-32" transform="translate(57.175044 -14.943915)scale(0.697382)"/>
      <use xlink:href="#CMMI12-3d" transform="translate(89.656358 0)scale(0.996264)"/>
      <use xlink:href="#CMMI12-54" transform="translate(138.431276 0)scale(0.996264)"/>
      <use xlink:href="#CMR17-31" transform="translate(195.60632 -14.943915)scale(0.697382)"/>
     </g>
    </g>
   </g>
   <g id="line2d_32">
    <path d="M 57.183616 247.22917 
L 59.300176 247.156855 
L 61.416736 247.085735 
L 63.533296 247.014331 
L 65.649855 246.941638 
L 67.766415 246.866957 
L 69.882975 246.789788 
L 71.999535 246.709765 
L 74.116094 246.626617 
L 76.232654 246.540137 
L 78.349214 246.450168 
L 80.465773 246.356588 
L 82.582333 246.259299 
L 84.698893 246.158224 
L 86.815453 246.053301 
L 88.932012 245.944481 
L 91.048572 245.831722 
L 93.165132 245.714991 
L 95.281692 245.594258 
L 97.398251 245.469501 
L 99.514811 245.3407 
L 101.631371 245.207837 
L 103.74793 245.0709 
L 105.86449 244.929875 
L 107.98105 244.784751 
L 110.09761 244.635521 
L 112.214169 244.482176 
L 114.330729 244.32471 
L 116.447289 244.163115 
L 118.563849 243.997388 
L 120.680408 243.827524 
L 122.796968 243.653518 
L 124.913528 243.475366 
L 127.030087 243.293067 
L 129.146647 243.106616 
L 131.263207 242.916012 
L 133.379767 242.721252 
L 135.496326 242.522334 
L 137.612886 242.319256 
L 139.729446 242.112017 
L 141.846006 241.900615 
L 143.962565 241.685048 
L 146.079125 241.465317 
L 148.195685 241.241418 
L 150.312244 241.013352 
L 152.428804 240.781118 
L 154.545364 240.544714 
L 156.661924 240.30414 
L 158.778483 240.059396 
L 160.895043 239.810479 
L 163.011603 239.557391 
L 165.128163 239.300131 
L 167.244722 239.038697 
L 169.361282 238.77309 
L 171.477842 238.503308 
L 173.594401 238.229353 
L 175.710961 237.951222 
L 177.827521 237.668917 
L 179.944081 237.382436 
L 182.06064 237.09178 
L 184.1772 236.796947 
L 186.29376 236.497939 
L 188.41032 236.194754 
L 190.526879 235.887392 
L 192.643439 235.575853 
L 194.759999 235.260138 
L 196.876558 234.940245 
L 198.993118 234.616175 
L 201.109678 234.287927 
L 203.226238 233.955501 
L 205.342797 233.618898 
L 207.459357 233.278117 
L 209.575917 232.933157 
L 211.692476 232.58402 
L 213.809036 232.230704 
L 215.925596 231.87321 
L 218.042156 231.511537 
L 220.158715 231.145685 
L 222.275275 230.775655 
L 224.391835 230.401446 
L 226.508395 230.023058 
L 228.624954 229.640492 
L 230.741514 229.253746 
L 232.858074 228.862821 
L 234.974633 228.467717 
L 237.091193 228.068434 
L 239.207753 227.664972 
L 241.324313 227.25733 
L 243.440872 226.845509 
L 245.557432 226.429509 
L 247.673992 226.009329 
L 249.790552 225.58497 
L 251.907111 225.156431 
L 254.023671 224.723713 
L 256.140231 224.286815 
L 258.25679 223.845737 
L 260.37335 223.40048 
L 262.48991 222.951043 
L 264.60647 222.497427 
L 266.723029 222.03963 
" clip-path="url(#pa4e949a81a)" style="fill: none; stroke: #1f77b4; stroke-width: 1.5; stroke-linecap: square"/>
   </g>
   <g id="patch_18">
    <path d="M 46.706646 248.488647 
L 46.706646 220.780153 
" style="fill: none; stroke: #000000; stroke-width: 0.8; stroke-linejoin: miter; stroke-linecap: square"/>
   </g>
   <g id="patch_19">
    <path d="M 277.2 248.488647 
L 277.2 220.780153 
" style="fill: none; stroke: #000000; stroke-width: 0.8; stroke-linejoin: miter; stroke-linecap: square"/>
   </g>
   <g id="patch_20">
    <path d="M 46.706646 248.488647 
L 277.2 248.488647 
" style="fill: none; stroke: #000000; stroke-width: 0.8; stroke-linejoin: miter; stroke-linecap: square"/>
   </g>
   <g id="patch_21">
    <path d="M 46.706646 220.780153 
L 277.2 220.780153 
" style="fill: none; stroke: #000000; stroke-width: 0.8; stroke-linejoin: miter; stroke-linecap: square"/>
   </g>
  </g>
  <g id="text_34">
   <!-- Relation of pre(1)- and post(2)-shock -->
   <g transform="translate(52.191876 14.726376)scale(0.12 -0.12)">
    <defs>
     <path id="CMSS17-52" d="M 2522 2109 
L 2534 2115 
C 3533 2459 3539 3147 3539 3268 
C 3539 3873 2925 4453 2003 4453 
L 570 4453 
L 570 32 
L 1094 32 
L 1094 2048 
L 2035 2048 
L 3168 32 
L 3706 32 
L 2522 2109 
z
M 1094 2437 
L 1094 4096 
L 1933 4096 
C 2746 4096 3034 3637 3034 3267 
C 3034 2922 2778 2437 1933 2437 
L 1094 2437 
z
" transform="scale(0.015625)"/>
     <path id="CMSS17-65" d="M 2502 1377 
C 2502 1590 2490 2003 2285 2345 
C 2061 2713 1696 2816 1421 2816 
C 755 2816 192 2188 192 1375 
C 192 582 774 -64 1510 -64 
C 1798 -64 2150 19 2470 248 
C 2470 274 2458 414 2451 420 
C 2451 433 2432 630 2432 656 
C 2125 407 1773 325 1517 325 
C 1107 325 666 667 646 1377 
L 2502 1377 
z
M 698 1728 
C 781 2084 1062 2421 1421 2421 
C 1517 2421 1965 2421 2080 1728 
L 698 1728 
z
" transform="scale(0.015625)"/>
     <path id="CMSS17-6c" d="M 947 4416 
L 474 4416 
L 474 0 
L 947 0 
L 947 4416 
z
" transform="scale(0.015625)"/>
     <path id="CMSS17-61" d="M 2406 1791 
C 2406 2392 1978 2808 1402 2808 
C 1120 2808 813 2757 461 2553 
L 499 2135 
C 659 2248 934 2432 1395 2432 
C 1722 2432 1920 2180 1920 1782 
L 1920 1536 
C 896 1536 256 1238 256 726 
C 256 461 416 -64 947 -64 
C 1043 -64 1562 -64 1933 217 
L 1933 -19 
L 2406 -19 
L 2406 1791 
z
M 1920 816 
C 1920 701 1920 548 1728 434 
C 1562 325 1350 325 1261 325 
C 941 325 723 511 723 744 
C 723 1211 1722 1211 1920 1211 
L 1920 816 
z
" transform="scale(0.015625)"/>
     <path id="CMSS17-74" d="M 1069 2368 
L 1901 2368 
L 1901 2737 
L 1069 2737 
L 1069 3520 
L 614 3520 
L 614 2737 
L 109 2737 
L 109 2368 
L 602 2368 
L 602 749 
C 602 384 685 -64 1107 -64 
C 1427 -64 1722 25 2003 172 
L 1901 548 
C 1747 414 1562 337 1363 337 
C 1082 337 1069 696 1069 856 
L 1069 2368 
z
" transform="scale(0.015625)"/>
     <path id="CMSS17-69" d="M 979 4183 
L 442 4183 
L 442 3648 
L 979 3648 
L 979 4183 
z
M 947 2739 
L 474 2739 
L 474 0 
L 947 0 
L 947 2739 
z
" transform="scale(0.015625)"/>
     <path id="CMSS17-6f" d="M 2829 1356 
C 2829 2176 2221 2816 1504 2816 
C 768 2816 173 2157 173 1356 
C 173 544 787 -64 1498 -64 
C 2227 -64 2829 563 2829 1356 
z
M 1504 337 
C 1050 337 659 709 659 1408 
C 659 2151 1114 2427 1498 2427 
C 1914 2427 2342 2126 2342 1408 
C 2342 683 1926 337 1504 337 
z
" transform="scale(0.015625)"/>
     <path id="CMSS17-6e" d="M 2618 1877 
C 2618 2283 2522 2816 1798 2816 
C 1389 2816 1120 2606 941 2389 
L 941 2758 
L 474 2758 
L 474 0 
L 960 0 
L 960 1559 
C 960 1964 1114 2428 1549 2428 
C 2112 2428 2131 2048 2131 1829 
L 2131 0 
L 2618 0 
L 2618 1877 
z
" transform="scale(0.015625)"/>
     <path id="CMSS17-66" d="M 1075 2368 
L 1722 2368 
L 1722 2737 
L 1062 2737 
L 1062 3559 
C 1062 4014 1408 4092 1606 4092 
C 1670 4092 1850 4092 2080 4009 
L 2080 4429 
C 1933 4461 1754 4480 1613 4480 
C 1018 4480 602 3993 602 3359 
L 602 2737 
L 160 2737 
L 160 2368 
L 602 2368 
L 602 0 
L 1075 0 
L 1075 2368 
z
" transform="scale(0.015625)"/>
     <path id="CMSS17-70" d="M 966 333 
C 1178 129 1466 -5 1773 -5 
C 2368 -5 2880 603 2880 1412 
C 2880 2159 2496 2816 1946 2816 
C 1626 2816 1242 2702 954 2472 
L 954 2765 
L 480 2765 
L 480 -1216 
L 966 -1216 
L 966 333 
z
M 966 2100 
C 1018 2176 1235 2415 1587 2415 
C 2035 2415 2394 1960 2394 1412 
C 2394 787 1958 384 1530 384 
C 1402 384 1267 415 1139 523 
C 966 674 966 768 966 857 
L 966 2100 
z
" transform="scale(0.015625)"/>
     <path id="CMSS17-72" d="M 954 1363 
C 954 1965 1395 2368 1958 2368 
L 1958 2789 
C 1549 2789 1165 2585 934 2253 
L 934 2758 
L 480 2758 
L 480 0 
L 954 0 
L 954 1363 
z
" transform="scale(0.015625)"/>
     <path id="CMSS17-28" d="M 1613 4768 
C 1267 4417 474 3601 474 1588 
C 474 -433 1267 -1243 1613 -1600 
L 2003 -1600 
C 1216 -784 960 357 960 1581 
C 960 2798 1203 3946 2003 4768 
L 1613 4768 
z
" transform="scale(0.015625)"/>
     <path id="CMSS17-31" d="M 1818 4288 
L 1696 4288 
C 1350 3940 947 3890 538 3890 
L 538 3520 
C 723 3520 1024 3520 1325 3667 
L 1325 369 
L 570 369 
L 570 0 
L 2573 0 
L 2573 369 
L 1818 369 
L 1818 4288 
z
" transform="scale(0.015625)"/>
     <path id="CMSS17-29" d="M 723 -1600 
C 1069 -1249 1862 -433 1862 1581 
C 1862 3601 1069 4411 723 4768 
L 333 4768 
C 1120 3952 1376 2811 1376 1588 
C 1376 370 1133 -778 333 -1600 
L 723 -1600 
z
" transform="scale(0.015625)"/>
     <path id="CMSS17-2d" d="M 1664 1216 
L 1664 1585 
L 64 1585 
L 64 1216 
L 1664 1216 
z
" transform="scale(0.015625)"/>
     <path id="CMSS17-64" d="M 2611 4416 
L 2138 4416 
L 2138 2438 
C 1939 2603 1613 2756 1254 2756 
C 672 2756 211 2131 211 1347 
C 211 562 666 -64 1235 -64 
C 1677 -64 1971 172 2125 306 
L 2125 -13 
L 2611 -13 
L 2611 4416 
z
M 2125 836 
C 2125 747 2125 653 1926 482 
C 1798 375 1645 325 1498 325 
C 1152 325 698 576 698 1340 
C 698 2134 1210 2368 1562 2368 
C 1798 2368 1990 2254 2125 2065 
L 2125 836 
z
" transform="scale(0.015625)"/>
     <path id="CMSS17-73" d="M 2061 2627 
C 1683 2807 1389 2807 1197 2807 
C 742 2807 198 2648 198 2003 
C 198 1359 902 1218 1094 1179 
C 1389 1122 1715 1058 1715 740 
C 1715 337 1254 337 1171 337 
C 915 337 563 407 243 638 
L 166 210 
C 531 0 883 -64 1178 -64 
C 1965 -64 2163 416 2163 781 
C 2163 1094 1984 1305 1862 1401 
C 1651 1568 1574 1587 1050 1696 
C 960 1709 646 1779 646 2066 
C 646 2432 1050 2432 1139 2432 
C 1555 2432 1811 2303 1984 2208 
L 2061 2627 
z
" transform="scale(0.015625)"/>
     <path id="CMSS17-32" d="M 1651 1357 
C 1830 1541 2099 1764 2285 1987 
C 2464 2204 2701 2511 2701 2957 
C 2701 3657 2227 4288 1421 4288 
C 787 4288 422 3893 250 3274 
L 499 2929 
C 640 3510 838 3880 1338 3880 
C 1888 3880 2195 3433 2195 2942 
C 2195 2355 1747 1901 1408 1563 
C 1030 1187 659 804 301 408 
L 301 0 
L 2701 0 
L 2701 433 
L 1613 433 
C 1536 433 1459 433 1382 433 
L 742 433 
L 742 439 
L 1651 1357 
z
" transform="scale(0.015625)"/>
     <path id="CMSS17-68" d="M 2618 1891 
C 2618 2292 2522 2820 1798 2820 
C 1395 2820 1133 2623 947 2407 
L 947 4448 
L 474 4448 
L 474 32 
L 960 32 
L 960 1573 
C 960 1973 1114 2432 1549 2432 
C 2112 2432 2131 2056 2131 1839 
L 2131 32 
L 2618 32 
L 2618 1891 
z
" transform="scale(0.015625)"/>
     <path id="CMSS17-63" d="M 2464 2541 
C 2464 2585 2170 2714 2093 2739 
C 1882 2816 1613 2816 1542 2816 
C 710 2816 211 2093 211 1363 
C 211 595 768 -64 1517 -64 
C 1946 -64 2253 76 2502 242 
L 2464 664 
C 2189 453 1869 337 1523 337 
C 1024 337 698 774 698 1369 
C 698 1831 909 2414 1549 2414 
C 1901 2414 2099 2343 2394 2145 
L 2464 2541 
z
" transform="scale(0.015625)"/>
     <path id="CMSS17-6b" d="M 1696 1688 
L 2688 2739 
L 2074 2739 
L 954 1554 
L 954 4416 
L 480 4416 
L 480 0 
L 947 0 
L 947 892 
L 1376 1344 
L 2278 0 
L 2822 0 
L 1696 1688 
z
" transform="scale(0.015625)"/>
    </defs>
    <use xlink:href="#CMSS17-52" transform="scale(0.996264)"/>
    <use xlink:href="#CMSS17-65" transform="translate(60.416155 0)scale(0.996264)"/>
    <use xlink:href="#CMSS17-6c" transform="translate(102.054977 0)scale(0.996264)"/>
    <use xlink:href="#CMSS17-61" transform="translate(124.2357 0)scale(0.996264)"/>
    <use xlink:href="#CMSS17-74" transform="translate(169.157621 0)scale(0.996264)"/>
    <use xlink:href="#CMSS17-69" transform="translate(202.989187 0)scale(0.996264)"/>
    <use xlink:href="#CMSS17-6f" transform="translate(225.16991 0)scale(0.996264)"/>
    <use xlink:href="#CMSS17-6e" transform="translate(272.013534 0)scale(0.996264)"/>
    <use xlink:href="#CMSS17-6f" transform="translate(351.44759 0)scale(0.996264)"/>
    <use xlink:href="#CMSS17-66" transform="translate(398.291213 0)scale(0.996264)"/>
    <use xlink:href="#CMSS17-70" transform="translate(458.146985 0)scale(0.996264)"/>
    <use xlink:href="#CMSS17-72" transform="translate(503.749474 0)scale(0.996264)"/>
    <use xlink:href="#CMSS17-65" transform="translate(535.659247 0)scale(0.996264)"/>
    <use xlink:href="#CMSS17-28" transform="translate(577.298069 0)scale(0.996264)"/>
    <use xlink:href="#CMSS17-31" transform="translate(613.731983 0)scale(0.996264)"/>
    <use xlink:href="#CMSS17-29" transform="translate(660.575606 0)scale(0.996264)"/>
    <use xlink:href="#CMSS17-2d" transform="translate(697.009521 0)scale(0.996264)"/>
    <use xlink:href="#CMSS17-61" transform="translate(759.467746 0)scale(0.996264)"/>
    <use xlink:href="#CMSS17-6e" transform="translate(804.389667 0)scale(0.996264)"/>
    <use xlink:href="#CMSS17-64" transform="translate(852.59461 0)scale(0.996264)"/>
    <use xlink:href="#CMSS17-70" transform="translate(932.028666 0)scale(0.996264)"/>
    <use xlink:href="#CMSS17-6f" transform="translate(982.836048 0)scale(0.996264)"/>
    <use xlink:href="#CMSS17-73" transform="translate(1029.679671 0)scale(0.996264)"/>
    <use xlink:href="#CMSS17-74" transform="translate(1065.593213 0)scale(0.996264)"/>
    <use xlink:href="#CMSS17-28" transform="translate(1099.42478 0)scale(0.996264)"/>
    <use xlink:href="#CMSS17-32" transform="translate(1135.858694 0)scale(0.996264)"/>
    <use xlink:href="#CMSS17-29" transform="translate(1182.702317 0)scale(0.996264)"/>
    <use xlink:href="#CMSS17-2d" transform="translate(1219.136232 0)scale(0.996264)"/>
    <use xlink:href="#CMSS17-73" transform="translate(1250.365344 0)scale(0.996264)"/>
    <use xlink:href="#CMSS17-68" transform="translate(1286.278886 0)scale(0.996264)"/>
    <use xlink:href="#CMSS17-6f" transform="translate(1334.48383 0)scale(0.996264)"/>
    <use xlink:href="#CMSS17-63" transform="translate(1383.929892 0)scale(0.996264)"/>
    <use xlink:href="#CMSS17-6b" transform="translate(1425.568714 0)scale(0.996264)"/>
   </g>
   <!-- conditions in the shock frame ($\gamma = 5/3$) -->
   <g transform="translate(45.423457 28.474819)scale(0.12 -0.12)">
    <defs>
     <path id="CMSS17-6d" d="M 4288 1877 
C 4288 2308 4179 2816 3462 2816 
C 2982 2816 2694 2516 2566 2331 
C 2451 2670 2182 2816 1798 2816 
C 1363 2816 1088 2568 941 2389 
L 941 2758 
L 474 2758 
L 474 0 
L 960 0 
L 960 1559 
C 960 1939 1101 2428 1555 2428 
C 2138 2428 2138 2016 2138 1829 
L 2138 0 
L 2624 0 
L 2624 1559 
C 2624 1939 2765 2428 3219 2428 
C 3802 2428 3802 2016 3802 1829 
L 3802 0 
L 4288 0 
L 4288 1877 
z
" transform="scale(0.015625)"/>
     <path id="CMMI12-d" d="M 2419 760 
C 2406 1071 2394 1561 2150 2133 
C 2022 2452 1805 2788 1338 2788 
C 550 2788 122 1790 122 1625 
C 122 1567 166 1567 186 1567 
C 243 1567 243 1580 275 1663 
C 410 2057 819 2368 1261 2368 
C 2150 2368 2278 1383 2278 754 
C 2278 352 2234 220 2195 92 
C 2074 -302 1862 -1090 1862 -1268 
C 1862 -1319 1882 -1376 1933 -1376 
C 2029 -1376 2086 -1166 2157 -912 
C 2310 -353 2349 -73 2381 181 
C 2400 334 2765 1384 3270 2382 
C 3315 2483 3405 2655 3405 2674 
C 3405 2680 3398 2725 3341 2725 
C 3328 2725 3296 2725 3283 2699 
C 3270 2687 3046 2254 2854 1822 
C 2758 1606 2630 1320 2419 760 
z
" transform="scale(0.015625)"/>
     <path id="CMR17-3d" d="M 4115 2017 
C 4211 2017 4307 2017 4307 2125 
C 4307 2240 4198 2240 4090 2240 
L 512 2240 
C 403 2240 294 2240 294 2125 
C 294 2017 390 2017 486 2017 
L 4115 2017 
z
M 4090 896 
C 4198 896 4307 896 4307 1011 
C 4307 1119 4211 1119 4115 1119 
L 486 1119 
C 390 1119 294 1119 294 1011 
C 294 896 403 896 512 896 
L 4090 896 
z
" transform="scale(0.015625)"/>
     <path id="CMR17-33" d="M 1414 2157 
C 1984 2157 2234 1662 2234 1090 
C 2234 320 1824 25 1453 25 
C 1114 25 563 194 390 693 
C 422 680 454 680 486 680 
C 640 680 755 782 755 948 
C 755 1133 614 1216 486 1216 
C 378 1216 211 1165 211 926 
C 211 335 787 -128 1466 -128 
C 2176 -128 2720 430 2720 1085 
C 2720 1707 2208 2157 1600 2227 
C 2086 2328 2554 2756 2554 3329 
C 2554 3820 2048 4179 1472 4179 
C 890 4179 378 3829 378 3329 
C 378 3110 544 3072 627 3072 
C 762 3072 877 3155 877 3321 
C 877 3486 762 3569 627 3569 
C 602 3569 570 3569 544 3557 
C 730 3959 1235 4032 1459 4032 
C 1683 4032 2106 3925 2106 3320 
C 2106 3143 2080 2828 1862 2550 
C 1670 2304 1453 2304 1242 2284 
C 1210 2284 1062 2269 1037 2269 
C 992 2263 966 2257 966 2208 
C 966 2163 973 2157 1101 2157 
L 1414 2157 
z
" transform="scale(0.015625)"/>
    </defs>
    <use xlink:href="#CMSS17-63" transform="scale(0.996264)"/>
    <use xlink:href="#CMSS17-6f" transform="translate(41.638822 0)scale(0.996264)"/>
    <use xlink:href="#CMSS17-6e" transform="translate(88.482446 0)scale(0.996264)"/>
    <use xlink:href="#CMSS17-64" transform="translate(136.687389 0)scale(0.996264)"/>
    <use xlink:href="#CMSS17-69" transform="translate(184.892332 0)scale(0.996264)"/>
    <use xlink:href="#CMSS17-74" transform="translate(207.073055 0)scale(0.996264)"/>
    <use xlink:href="#CMSS17-69" transform="translate(240.904622 0)scale(0.996264)"/>
    <use xlink:href="#CMSS17-6f" transform="translate(263.085345 0)scale(0.996264)"/>
    <use xlink:href="#CMSS17-6e" transform="translate(309.928968 0)scale(0.996264)"/>
    <use xlink:href="#CMSS17-73" transform="translate(358.133911 0)scale(0.996264)"/>
    <use xlink:href="#CMSS17-69" transform="translate(425.276566 0)scale(0.996264)"/>
    <use xlink:href="#CMSS17-6e" transform="translate(447.457289 0)scale(0.996264)"/>
    <use xlink:href="#CMSS17-74" transform="translate(526.891345 0)scale(0.996264)"/>
    <use xlink:href="#CMSS17-68" transform="translate(560.722912 0)scale(0.996264)"/>
    <use xlink:href="#CMSS17-65" transform="translate(608.927855 0)scale(0.996264)"/>
    <use xlink:href="#CMSS17-73" transform="translate(681.79579 0)scale(0.996264)"/>
    <use xlink:href="#CMSS17-68" transform="translate(717.709332 0)scale(0.996264)"/>
    <use xlink:href="#CMSS17-6f" transform="translate(765.914275 0)scale(0.996264)"/>
    <use xlink:href="#CMSS17-63" transform="translate(815.360337 0)scale(0.996264)"/>
    <use xlink:href="#CMSS17-6b" transform="translate(856.999159 0)scale(0.996264)"/>
    <use xlink:href="#CMSS17-66" transform="translate(933.830761 0)scale(0.996264)"/>
    <use xlink:href="#CMSS17-72" transform="translate(962.45742 0)scale(0.996264)"/>
    <use xlink:href="#CMSS17-61" transform="translate(994.367192 0)scale(0.996264)"/>
    <use xlink:href="#CMSS17-6d" transform="translate(1039.289113 0)scale(0.996264)"/>
    <use xlink:href="#CMSS17-65" transform="translate(1113.518367 0)scale(0.996264)"/>
    <use xlink:href="#CMSS17-28" transform="translate(1186.386302 0)scale(0.996264)"/>
    <use xlink:href="#CMMI12-d" transform="translate(1222.820216 0)scale(0.996264)"/>
    <use xlink:href="#CMR17-3d" transform="translate(1306.512793 0)scale(0.996264)"/>
    <use xlink:href="#CMR17-35" transform="translate(1405.90159 0)scale(0.996264)"/>
    <use xlink:href="#CMMI12-3d" transform="translate(1451.592067 0)scale(0.996264)"/>
    <use xlink:href="#CMR17-33" transform="translate(1500.366986 0)scale(0.996264)"/>
    <use xlink:href="#CMSS17-29" transform="translate(1546.057463 0)scale(0.996264)"/>
   </g>
  </g>
 </g>
 <defs>
  <clipPath id="pbaf2ec2950">
   <rect x="46.706646" y="48.571556" width="230.493354" height="27.708493"/>
  </clipPath>
  <clipPath id="pb14f2519de">
   <rect x="46.706646" y="105.974422" width="230.493354" height="27.708493"/>
  </clipPath>
  <clipPath id="p48f53468aa">
   <rect x="46.706646" y="163.377288" width="230.493354" height="27.708493"/>
  </clipPath>
  <clipPath id="pa4e949a81a">
   <rect x="46.706646" y="220.780153" width="230.493354" height="27.708493"/>
  </clipPath>
 </defs>
</svg>
