<?xml version="1.0" encoding="UTF-8" standalone="no"?>
<!DOCTYPE svg PUBLIC "-//W3C//DTD SVG 1.1//EN" "http://www.w3.org/Graphics/SVG/1.1/DTD/svg11.dtd">
<svg width="100%" height="100%" viewBox="0 0 2091 1551" version="1.1" xmlns="http://www.w3.org/2000/svg" xmlns:xlink="http://www.w3.org/1999/xlink" xml:space="preserve" xmlns:serif="http://www.serif.com/" style="fill-rule:evenodd;clip-rule:evenodd;stroke-linecap:round;stroke-linejoin:round;stroke-miterlimit:1.5;">
    <path d="M1950.15,1440.17l-1375.16,-1363.29" style="fill:none;stroke:black;stroke-width:1px;"/>
    <path d="M1633.4,1418.72l-1205.33,-1194.92" style="fill:none;stroke:black;stroke-width:11.56px;"/>
    <path d="M1342.2,1422.59l-1061.04,-1051.88" style="fill:none;stroke:black;stroke-width:1px;"/>
    <circle cx="965.661" cy="465.568" r="28.52" style="fill:rgb(208,77,83);stroke:rgb(210,48,92);stroke-width:1px;"/>
    <circle cx="638.893" cy="537.232" r="28.52" style="fill:rgb(208,77,83);stroke:rgb(210,48,92);stroke-width:1px;"/>
    <circle cx="1747.24" cy="739.08" r="28.52" style="fill:rgb(208,77,83);stroke:rgb(210,48,92);stroke-width:1px;"/>
    <circle cx="1445.99" cy="570.012" r="28.52" style="fill:rgb(208,77,83);stroke:rgb(210,48,92);stroke-width:1px;"/>
    <circle cx="643.696" cy="729.065" r="28.52" style="fill:rgb(77,88,208);stroke:rgb(48,63,210);stroke-width:1px;"/>
    <circle cx="1423.16" cy="769.014" r="28.52" style="fill:rgb(208,77,83);stroke:rgb(210,48,92);stroke-width:1px;"/>
    <circle cx="1252.65" cy="430.184" r="28.52" style="fill:rgb(208,77,83);stroke:rgb(210,48,92);stroke-width:1px;"/>
    <circle cx="915.336" cy="324.47" r="28.52" style="fill:rgb(208,77,83);stroke:rgb(210,48,92);stroke-width:1px;"/>
    <circle cx="832.591" cy="1119.55" r="28.52" style="fill:rgb(77,88,208);stroke:rgb(48,63,210);stroke-width:1px;"/>
    <circle cx="1034.59" cy="1322.47" r="28.52" style="fill:rgb(77,88,208);stroke:rgb(48,63,210);stroke-width:1px;"/>
    <circle cx="318.271" cy="660.917" r="28.52" style="fill:rgb(77,88,208);stroke:rgb(48,63,210);stroke-width:1px;"/>
    <circle cx="1169.27" cy="238.884" r="28.52" style="fill:rgb(208,77,83);stroke:rgb(210,48,92);stroke-width:1px;"/>
    <circle cx="1042.96" cy="639.691" r="28.52" style="fill:rgb(208,77,83);stroke:rgb(210,48,92);stroke-width:1px;"/>
    <circle cx="1066.68" cy="1032.35" r="28.52" style="fill:rgb(77,88,208);stroke:rgb(48,63,210);stroke-width:1px;"/>
    <circle cx="817.344" cy="902.363" r="28.52" style="fill:rgb(77,88,208);stroke:rgb(48,63,210);stroke-width:1px;"/>
    <circle cx="1268.97" cy="763.168" r="28.52" style="fill:rgb(208,77,83);stroke:rgb(210,48,92);stroke-width:1px;"/>
    <circle cx="1313.04" cy="989.453" r="28.52" style="fill:rgb(208,77,83);stroke:rgb(210,48,92);stroke-width:1px;"/>
    <circle cx="1451.3" cy="1124.58" r="28.52" style="fill:rgb(77,88,208);stroke:rgb(48,63,210);stroke-width:1px;"/>
    <circle cx="551.918" cy="970.601" r="28.52" style="fill:rgb(77,88,208);stroke:rgb(48,63,210);stroke-width:1px;"/>
    <circle cx="574.638" cy="1206.01" r="28.52" style="fill:rgb(77,88,208);stroke:rgb(48,63,210);stroke-width:1px;"/>
    <path d="M1311.1,1527.28l-8.761,-0l-0,-6.62l-0.195,0c-1.687,2.466 -4.007,4.381 -6.96,5.743c-2.953,1.363 -5.987,2.045 -9.102,2.045c-3.569,-0 -6.798,-0.617 -9.686,-1.85c-2.888,-1.233 -5.354,-2.953 -7.398,-5.159c-2.044,-2.207 -3.618,-4.77 -4.721,-7.69c-1.104,-2.921 -1.655,-6.101 -1.655,-9.54c-0,-3.44 0.551,-6.636 1.655,-9.589c1.103,-2.953 2.677,-5.516 4.721,-7.69c2.044,-2.174 4.51,-3.878 7.398,-5.111c2.888,-1.233 6.117,-1.849 9.686,-1.849c3.31,-0 6.425,0.697 9.345,2.093c2.921,1.395 5.16,3.293 6.717,5.694l0.195,0l-0,-34.071l8.761,0l-0,73.594Zm-23.947,-7.009c2.336,-0 4.445,-0.406 6.327,-1.217c1.882,-0.811 3.472,-1.915 4.77,-3.31c1.298,-1.395 2.304,-3.083 3.018,-5.062c0.714,-1.979 1.071,-4.137 1.071,-6.473c-0,-2.337 -0.357,-4.494 -1.071,-6.474c-0.714,-1.979 -1.72,-3.667 -3.018,-5.062c-1.298,-1.395 -2.888,-2.498 -4.77,-3.31c-1.882,-0.811 -3.991,-1.216 -6.327,-1.216c-2.336,-0 -4.446,0.405 -6.328,1.216c-1.882,0.812 -3.472,1.915 -4.769,3.31c-1.298,1.395 -2.304,3.083 -3.018,5.062c-0.714,1.98 -1.071,4.137 -1.071,6.474c0,2.336 0.357,4.494 1.071,6.473c0.714,1.979 1.72,3.667 3.018,5.062c1.297,1.395 2.887,2.499 4.769,3.31c1.882,0.811 3.992,1.217 6.328,1.217Z" style="fill-rule:nonzero;"/>
    <path d="M1330.96,1507.42c0,2.012 0.438,3.845 1.315,5.5c0.876,1.655 2.028,3.066 3.455,4.235c1.428,1.168 3.083,2.076 4.965,2.725c1.882,0.649 3.829,0.974 5.841,0.974c2.725,-0 5.094,-0.633 7.106,-1.899c2.012,-1.265 3.861,-2.936 5.549,-5.013l6.619,5.062c-4.867,6.295 -11.681,9.443 -20.442,9.443c-3.635,-0 -6.928,-0.617 -9.881,-1.85c-2.953,-1.233 -5.451,-2.936 -7.496,-5.111c-2.044,-2.174 -3.618,-4.737 -4.721,-7.69c-1.103,-2.953 -1.655,-6.149 -1.655,-9.588c0,-3.44 0.601,-6.636 1.801,-9.589c1.201,-2.953 2.856,-5.516 4.965,-7.69c2.109,-2.174 4.624,-3.878 7.544,-5.111c2.92,-1.233 6.1,-1.849 9.54,-1.849c4.088,-0 7.544,0.713 10.367,2.141c2.823,1.428 5.143,3.294 6.96,5.598c1.817,2.303 3.132,4.899 3.943,7.787c0.811,2.888 1.217,5.825 1.217,8.81l-0,3.115l-36.992,0Zm27.646,-7.009c-0.064,-1.947 -0.373,-3.731 -0.924,-5.354c-0.552,-1.622 -1.379,-3.034 -2.483,-4.234c-1.103,-1.201 -2.482,-2.142 -4.137,-2.823c-1.655,-0.682 -3.585,-1.022 -5.792,-1.022c-2.141,-0 -4.105,0.405 -5.889,1.216c-1.785,0.812 -3.294,1.866 -4.527,3.164c-1.233,1.298 -2.19,2.742 -2.871,4.332c-0.682,1.59 -1.023,3.164 -1.023,4.721l27.646,0Z" style="fill-rule:nonzero;"/>
    <path d="M1411.47,1493.41c-1.622,-1.687 -3.326,-2.969 -5.111,-3.845c-1.784,-0.876 -3.91,-1.314 -6.376,-1.314c-2.401,-0 -4.494,0.438 -6.278,1.314c-1.785,0.876 -3.278,2.077 -4.478,3.602c-1.201,1.525 -2.11,3.277 -2.726,5.257c-0.617,1.979 -0.925,4.039 -0.925,6.181c0,2.142 0.357,4.17 1.071,6.084c0.714,1.915 1.72,3.586 3.018,5.013c1.298,1.428 2.855,2.548 4.672,3.359c1.817,0.811 3.862,1.217 6.133,1.217c2.466,-0 4.575,-0.438 6.328,-1.315c1.752,-0.876 3.374,-2.157 4.867,-3.845l6.23,6.23c-2.271,2.531 -4.916,4.349 -7.934,5.452c-3.017,1.103 -6.214,1.655 -9.588,1.655c-3.57,-0 -6.831,-0.584 -9.784,-1.753c-2.952,-1.168 -5.5,-2.806 -7.641,-4.915c-2.142,-2.11 -3.797,-4.641 -4.965,-7.593c-1.168,-2.953 -1.752,-6.214 -1.752,-9.784c0,-3.569 0.584,-6.846 1.752,-9.832c1.168,-2.985 2.807,-5.548 4.916,-7.69c2.109,-2.141 4.64,-3.813 7.593,-5.013c2.953,-1.201 6.246,-1.801 9.881,-1.801c3.374,-0 6.603,0.6 9.686,1.801c3.082,1.2 5.759,3.034 8.031,5.5l-6.62,6.035Z" style="fill-rule:nonzero;"/>
    <path d="M1426.07,1481.14l8.761,-0l0,46.142l-8.761,-0l-0,-46.142Zm-2.044,-16.549c-0,-1.752 0.632,-3.261 1.898,-4.527c1.265,-1.265 2.774,-1.898 4.526,-1.898c1.753,0 3.262,0.633 4.527,1.898c1.266,1.266 1.898,2.775 1.898,4.527c0,1.752 -0.632,3.261 -1.898,4.527c-1.265,1.265 -2.774,1.898 -4.527,1.898c-1.752,-0 -3.261,-0.633 -4.526,-1.898c-1.266,-1.266 -1.898,-2.775 -1.898,-4.527Z" style="fill-rule:nonzero;"/>
    <path d="M1473.28,1492.73c-1.038,-1.298 -2.32,-2.385 -3.845,-3.261c-1.525,-0.876 -3.391,-1.314 -5.597,-1.314c-2.077,-0 -3.878,0.438 -5.403,1.314c-1.525,0.876 -2.287,2.158 -2.287,3.845c-0,1.363 0.438,2.466 1.314,3.31c0.876,0.843 1.914,1.525 3.115,2.044c1.2,0.519 2.482,0.909 3.845,1.168c1.363,0.26 2.531,0.487 3.504,0.682c1.882,0.454 3.651,1.005 5.306,1.654c1.655,0.649 3.082,1.493 4.283,2.531c1.201,1.039 2.142,2.304 2.823,3.797c0.681,1.492 1.022,3.31 1.022,5.451c0,2.596 -0.551,4.819 -1.655,6.668c-1.103,1.85 -2.531,3.359 -4.283,4.527c-1.752,1.168 -3.748,2.012 -5.987,2.531c-2.239,0.519 -4.494,0.779 -6.765,0.779c-3.829,-0 -7.188,-0.584 -10.075,-1.753c-2.888,-1.168 -5.468,-3.309 -7.739,-6.424l6.619,-5.452c1.428,1.428 3.018,2.694 4.77,3.797c1.752,1.103 3.894,1.655 6.425,1.655c1.103,-0 2.223,-0.114 3.358,-0.341c1.136,-0.227 2.142,-0.584 3.018,-1.071c0.876,-0.487 1.59,-1.103 2.142,-1.849c0.551,-0.747 0.827,-1.607 0.827,-2.58c-0,-1.298 -0.406,-2.369 -1.217,-3.212c-0.811,-0.844 -1.784,-1.509 -2.92,-1.996c-1.136,-0.487 -2.336,-0.876 -3.602,-1.168c-1.265,-0.292 -2.385,-0.536 -3.358,-0.73c-1.882,-0.455 -3.667,-0.974 -5.354,-1.558c-1.688,-0.584 -3.18,-1.363 -4.478,-2.336c-1.298,-0.974 -2.337,-2.207 -3.115,-3.699c-0.779,-1.493 -1.168,-3.342 -1.168,-5.549c-0,-2.401 0.502,-4.494 1.508,-6.279c1.006,-1.784 2.337,-3.261 3.992,-4.429c1.654,-1.168 3.536,-2.044 5.646,-2.628c2.109,-0.584 4.234,-0.876 6.376,-0.876c3.115,-0 6.1,0.584 8.955,1.752c2.856,1.168 5.127,3.115 6.815,5.841l-6.815,5.159Z" style="fill-rule:nonzero;"/>
    <path d="M1492.65,1481.14l8.761,-0l0,46.142l-8.761,-0l0,-46.142Zm-2.044,-16.549c-0,-1.752 0.633,-3.261 1.898,-4.527c1.266,-1.265 2.775,-1.898 4.527,-1.898c1.752,0 3.261,0.633 4.526,1.898c1.266,1.266 1.899,2.775 1.899,4.527c-0,1.752 -0.633,3.261 -1.899,4.527c-1.265,1.265 -2.774,1.898 -4.526,1.898c-1.752,-0 -3.261,-0.633 -4.527,-1.898c-1.265,-1.266 -1.898,-2.775 -1.898,-4.527Z" style="fill-rule:nonzero;"/>
    <path d="M1522.44,1504.21c-0,2.336 0.357,4.494 1.071,6.473c0.714,1.979 1.72,3.667 3.017,5.062c1.298,1.395 2.888,2.499 4.77,3.31c1.882,0.811 3.992,1.217 6.328,1.217c2.336,-0 4.445,-0.406 6.327,-1.217c1.882,-0.811 3.472,-1.915 4.77,-3.31c1.298,-1.395 2.304,-3.083 3.018,-5.062c0.714,-1.979 1.071,-4.137 1.071,-6.473c-0,-2.337 -0.357,-4.494 -1.071,-6.474c-0.714,-1.979 -1.72,-3.667 -3.018,-5.062c-1.298,-1.395 -2.888,-2.498 -4.77,-3.31c-1.882,-0.811 -3.991,-1.216 -6.327,-1.216c-2.336,-0 -4.446,0.405 -6.328,1.216c-1.882,0.812 -3.472,1.915 -4.77,3.31c-1.297,1.395 -2.303,3.083 -3.017,5.062c-0.714,1.98 -1.071,4.137 -1.071,6.474Zm-9.345,-0c-0,-3.375 0.633,-6.522 1.898,-9.443c1.266,-2.92 3.002,-5.484 5.208,-7.69c2.207,-2.207 4.802,-3.943 7.788,-5.208c2.985,-1.266 6.197,-1.898 9.637,-1.898c3.439,-0 6.652,0.632 9.637,1.898c2.985,1.265 5.581,3.001 7.788,5.208c2.206,2.206 3.942,4.77 5.208,7.69c1.265,2.921 1.898,6.068 1.898,9.443c-0,3.374 -0.633,6.538 -1.898,9.491c-1.266,2.953 -3.002,5.516 -5.208,7.69c-2.207,2.174 -4.803,3.894 -7.788,5.159c-2.985,1.266 -6.198,1.899 -9.637,1.899c-3.44,-0 -6.652,-0.633 -9.637,-1.899c-2.986,-1.265 -5.581,-2.985 -7.788,-5.159c-2.206,-2.174 -3.942,-4.737 -5.208,-7.69c-1.265,-2.953 -1.898,-6.117 -1.898,-9.491Z" style="fill-rule:nonzero;"/>
    <path d="M1573.16,1481.14l8.761,-0l0,7.106l0.195,-0c1.103,-2.466 3.017,-4.462 5.743,-5.987c2.726,-1.525 5.873,-2.287 9.443,-2.287c2.206,-0 4.332,0.34 6.376,1.022c2.044,0.681 3.829,1.736 5.354,3.163c1.525,1.428 2.742,3.262 3.65,5.501c0.909,2.238 1.363,4.883 1.363,7.933l0,29.691l-8.761,-0l-0,-27.257c-0,-2.142 -0.292,-3.975 -0.876,-5.5c-0.584,-1.525 -1.363,-2.758 -2.336,-3.699c-0.974,-0.941 -2.093,-1.623 -3.359,-2.045c-1.265,-0.421 -2.58,-0.632 -3.942,-0.632c-1.817,-0 -3.505,0.292 -5.062,0.876c-1.558,0.584 -2.921,1.509 -4.089,2.774c-1.168,1.266 -2.077,2.872 -2.726,4.819c-0.648,1.947 -0.973,4.25 -0.973,6.911l0,23.753l-8.761,-0l-0,-46.142Z" style="fill-rule:nonzero;"/>
    <path d="M1654.34,1453.69l8.761,0l0,34.071l0.195,0c1.557,-2.401 3.796,-4.299 6.717,-5.694c2.92,-1.396 6.035,-2.093 9.345,-2.093c3.569,-0 6.798,0.616 9.686,1.849c2.888,1.233 5.354,2.937 7.398,5.111c2.044,2.174 3.618,4.737 4.721,7.69c1.104,2.953 1.655,6.149 1.655,9.589c0,3.439 -0.551,6.619 -1.655,9.54c-1.103,2.92 -2.677,5.483 -4.721,7.69c-2.044,2.206 -4.51,3.926 -7.398,5.159c-2.888,1.233 -6.117,1.85 -9.686,1.85c-3.115,-0 -6.149,-0.682 -9.102,-2.045c-2.953,-1.362 -5.273,-3.277 -6.96,-5.743l-0.195,0l0,6.62l-8.761,-0l0,-73.594Zm23.947,66.585c2.336,-0 4.446,-0.406 6.328,-1.217c1.882,-0.811 3.472,-1.915 4.769,-3.31c1.298,-1.395 2.304,-3.083 3.018,-5.062c0.714,-1.979 1.071,-4.137 1.071,-6.473c-0,-2.337 -0.357,-4.494 -1.071,-6.474c-0.714,-1.979 -1.72,-3.667 -3.018,-5.062c-1.297,-1.395 -2.887,-2.498 -4.769,-3.31c-1.882,-0.811 -3.992,-1.216 -6.328,-1.216c-2.336,-0 -4.445,0.405 -6.327,1.216c-1.882,0.812 -3.472,1.915 -4.77,3.31c-1.298,1.395 -2.304,3.083 -3.018,5.062c-0.714,1.98 -1.071,4.137 -1.071,6.474c0,2.336 0.357,4.494 1.071,6.473c0.714,1.979 1.72,3.667 3.018,5.062c1.298,1.395 2.888,2.499 4.77,3.31c1.882,0.811 3.991,1.217 6.327,1.217Z" style="fill-rule:nonzero;"/>
    <path d="M1720.93,1504.21c0,2.336 0.357,4.494 1.071,6.473c0.714,1.979 1.72,3.667 3.018,5.062c1.298,1.395 2.888,2.499 4.77,3.31c1.882,0.811 3.991,1.217 6.327,1.217c2.337,-0 4.446,-0.406 6.328,-1.217c1.882,-0.811 3.472,-1.915 4.77,-3.31c1.298,-1.395 2.304,-3.083 3.017,-5.062c0.714,-1.979 1.071,-4.137 1.071,-6.473c0,-2.337 -0.357,-4.494 -1.071,-6.474c-0.713,-1.979 -1.719,-3.667 -3.017,-5.062c-1.298,-1.395 -2.888,-2.498 -4.77,-3.31c-1.882,-0.811 -3.991,-1.216 -6.328,-1.216c-2.336,-0 -4.445,0.405 -6.327,1.216c-1.882,0.812 -3.472,1.915 -4.77,3.31c-1.298,1.395 -2.304,3.083 -3.018,5.062c-0.714,1.98 -1.071,4.137 -1.071,6.474Zm-9.345,-0c0,-3.375 0.633,-6.522 1.898,-9.443c1.266,-2.92 3.002,-5.484 5.208,-7.69c2.207,-2.207 4.803,-3.943 7.788,-5.208c2.985,-1.266 6.198,-1.898 9.637,-1.898c3.44,-0 6.652,0.632 9.637,1.898c2.986,1.265 5.582,3.001 7.788,5.208c2.207,2.206 3.943,4.77 5.208,7.69c1.266,2.921 1.898,6.068 1.898,9.443c0,3.374 -0.632,6.538 -1.898,9.491c-1.265,2.953 -3.001,5.516 -5.208,7.69c-2.206,2.174 -4.802,3.894 -7.788,5.159c-2.985,1.266 -6.197,1.899 -9.637,1.899c-3.439,-0 -6.652,-0.633 -9.637,-1.899c-2.985,-1.265 -5.581,-2.985 -7.788,-5.159c-2.206,-2.174 -3.942,-4.737 -5.208,-7.69c-1.265,-2.953 -1.898,-6.117 -1.898,-9.491Z" style="fill-rule:nonzero;"/>
    <path d="M1812.53,1527.28l-8.761,-0l0,-7.107l-0.194,0c-1.104,2.466 -3.018,4.462 -5.744,5.987c-2.725,1.525 -5.873,2.288 -9.442,2.288c-2.272,-0 -4.413,-0.341 -6.425,-1.022c-2.012,-0.682 -3.78,-1.736 -5.305,-3.164c-1.525,-1.428 -2.742,-3.261 -3.651,-5.5c-0.908,-2.239 -1.363,-4.884 -1.363,-7.934l0,-29.69l8.761,-0l0,27.257c0,2.141 0.293,3.974 0.877,5.5c0.584,1.525 1.362,2.758 2.336,3.699c0.973,0.941 2.093,1.622 3.358,2.044c1.266,0.422 2.58,0.633 3.943,0.633c1.817,-0 3.504,-0.292 5.062,-0.876c1.557,-0.585 2.92,-1.509 4.088,-2.775c1.168,-1.265 2.077,-2.871 2.726,-4.818c0.649,-1.947 0.973,-4.251 0.973,-6.912l0,-23.752l8.761,-0l0,46.142Z" style="fill-rule:nonzero;"/>
    <path d="M1825.77,1481.14l8.762,-0l-0,7.106l0.194,-0c1.104,-2.466 3.018,-4.462 5.744,-5.987c2.725,-1.525 5.873,-2.287 9.442,-2.287c2.207,-0 4.332,0.34 6.376,1.022c2.045,0.681 3.829,1.736 5.354,3.163c1.525,1.428 2.742,3.262 3.651,5.501c0.908,2.238 1.363,4.883 1.363,7.933l-0,29.691l-8.762,-0l0,-27.257c0,-2.142 -0.292,-3.975 -0.876,-5.5c-0.584,-1.525 -1.362,-2.758 -2.336,-3.699c-0.973,-0.941 -2.093,-1.623 -3.358,-2.045c-1.266,-0.421 -2.58,-0.632 -3.943,-0.632c-1.817,-0 -3.504,0.292 -5.062,0.876c-1.557,0.584 -2.92,1.509 -4.088,2.774c-1.168,1.266 -2.077,2.872 -2.726,4.819c-0.649,1.947 -0.973,4.25 -0.973,6.911l-0,23.753l-8.762,-0l0,-46.142Z" style="fill-rule:nonzero;"/>
    <path d="M1926.13,1527.28l-8.761,-0l-0,-6.62l-0.195,0c-1.687,2.466 -4.007,4.381 -6.96,5.743c-2.953,1.363 -5.987,2.045 -9.102,2.045c-3.569,-0 -6.798,-0.617 -9.686,-1.85c-2.888,-1.233 -5.354,-2.953 -7.398,-5.159c-2.044,-2.207 -3.618,-4.77 -4.721,-7.69c-1.104,-2.921 -1.655,-6.101 -1.655,-9.54c-0,-3.44 0.551,-6.636 1.655,-9.589c1.103,-2.953 2.677,-5.516 4.721,-7.69c2.044,-2.174 4.51,-3.878 7.398,-5.111c2.888,-1.233 6.117,-1.849 9.686,-1.849c3.31,-0 6.425,0.697 9.345,2.093c2.92,1.395 5.159,3.293 6.717,5.694l0.195,0l-0,-34.071l8.761,0l-0,73.594Zm-23.947,-7.009c2.336,-0 4.445,-0.406 6.327,-1.217c1.882,-0.811 3.472,-1.915 4.77,-3.31c1.298,-1.395 2.304,-3.083 3.018,-5.062c0.714,-1.979 1.071,-4.137 1.071,-6.473c-0,-2.337 -0.357,-4.494 -1.071,-6.474c-0.714,-1.979 -1.72,-3.667 -3.018,-5.062c-1.298,-1.395 -2.888,-2.498 -4.77,-3.31c-1.882,-0.811 -3.991,-1.216 -6.327,-1.216c-2.337,-0 -4.446,0.405 -6.328,1.216c-1.882,0.812 -3.472,1.915 -4.77,3.31c-1.298,1.395 -2.304,3.083 -3.017,5.062c-0.714,1.98 -1.071,4.137 -1.071,6.474c-0,2.336 0.357,4.494 1.071,6.473c0.713,1.979 1.719,3.667 3.017,5.062c1.298,1.395 2.888,2.499 4.77,3.31c1.882,0.811 3.991,1.217 6.328,1.217Z" style="fill-rule:nonzero;"/>
    <path d="M1939.57,1486.79c2.466,-2.272 5.322,-3.975 8.567,-5.111c3.245,-1.136 6.489,-1.703 9.734,-1.703c3.375,-0 6.279,0.421 8.713,1.265c2.433,0.844 4.429,1.979 5.986,3.407c1.558,1.428 2.71,3.067 3.456,4.916c0.747,1.85 1.12,3.78 1.12,5.792l-0,23.558c-0,1.622 0.032,3.115 0.097,4.478c0.065,1.363 0.162,2.66 0.292,3.894l-7.788,-0c-0.194,-2.337 -0.292,-4.673 -0.292,-7.009l-0.194,-0c-1.947,2.985 -4.251,5.094 -6.912,6.327c-2.661,1.233 -5.743,1.85 -9.248,1.85c-2.141,-0 -4.185,-0.292 -6.132,-0.876c-1.947,-0.585 -3.651,-1.461 -5.111,-2.629c-1.46,-1.168 -2.612,-2.612 -3.456,-4.332c-0.843,-1.719 -1.265,-3.715 -1.265,-5.986c-0,-2.986 0.665,-5.484 1.995,-7.496c1.331,-2.012 3.148,-3.65 5.452,-4.916c2.303,-1.265 4.997,-2.174 8.079,-2.726c3.083,-0.551 6.376,-0.827 9.881,-0.827l6.425,-0l-0,-1.947c-0,-1.168 -0.227,-2.336 -0.682,-3.504c-0.454,-1.169 -1.135,-2.223 -2.044,-3.164c-0.909,-0.941 -2.044,-1.687 -3.407,-2.239c-1.363,-0.552 -2.985,-0.827 -4.867,-0.827c-1.688,-0 -3.164,0.162 -4.43,0.486c-1.265,0.325 -2.417,0.73 -3.455,1.217c-1.039,0.487 -1.98,1.055 -2.823,1.704c-0.844,0.649 -1.655,1.265 -2.434,1.849l-5.257,-5.451Zm24.726,18.301c-2.077,-0 -4.202,0.113 -6.376,0.34c-2.174,0.228 -4.153,0.666 -5.938,1.315c-1.785,0.649 -3.245,1.557 -4.381,2.725c-1.135,1.168 -1.703,2.661 -1.703,4.478c-0,2.661 0.892,4.575 2.677,5.744c1.784,1.168 4.202,1.752 7.252,1.752c2.401,-0 4.445,-0.406 6.133,-1.217c1.687,-0.811 3.05,-1.866 4.088,-3.164c1.039,-1.298 1.785,-2.742 2.239,-4.332c0.455,-1.59 0.682,-3.163 0.682,-4.721l-0,-2.92l-4.673,-0Z" style="fill-rule:nonzero;"/>
    <path d="M1989.89,1481.14l8.761,-0l0,7.106l0.195,-0c0.584,-1.233 1.363,-2.353 2.336,-3.358c0.974,-1.006 2.061,-1.866 3.261,-2.58c1.201,-0.714 2.515,-1.282 3.943,-1.704c1.427,-0.421 2.855,-0.632 4.283,-0.632c1.428,-0 2.725,0.194 3.894,0.584l-0.39,9.442c-0.714,-0.194 -1.427,-0.357 -2.141,-0.487c-0.714,-0.129 -1.428,-0.194 -2.142,-0.194c-4.283,-0 -7.56,1.2 -9.832,3.602c-2.271,2.401 -3.407,6.132 -3.407,11.194l0,23.169l-8.761,-0l-0,-46.142Z" style="fill-rule:nonzero;"/>
    <path d="M2020.36,1481.14l10.124,-0l13.726,36.018l0.194,-0l13.045,-36.018l9.442,-0l-21.902,56.071c-0.779,2.012 -1.59,3.845 -2.434,5.5c-0.844,1.655 -1.85,3.066 -3.018,4.234c-1.168,1.168 -2.579,2.077 -4.234,2.726c-1.655,0.649 -3.683,0.973 -6.084,0.973c-1.298,0 -2.613,-0.081 -3.943,-0.243c-1.33,-0.162 -2.612,-0.503 -3.845,-1.022l1.071,-7.982c1.752,0.713 3.504,1.07 5.256,1.07c1.363,0 2.515,-0.178 3.456,-0.535c0.941,-0.357 1.752,-0.876 2.434,-1.557c0.681,-0.682 1.249,-1.477 1.703,-2.385c0.455,-0.909 0.909,-1.947 1.363,-3.116l2.823,-7.3l-19.177,-46.434Z" style="fill-rule:nonzero;"/>
    <path d="M1446.8,1407.85c6.656,-32.502 22.212,-60.693 49.419,-83.238" style="fill:none;stroke:black;stroke-width:12.31px;"/>
    <path d="M1496.22,1324.61l-22.203,-2.833" style="fill:none;stroke:black;stroke-width:12.31px;"/>
    <path d="M1496.22,1324.61l3.771,19.781" style="fill:none;stroke:black;stroke-width:12.31px;"/>
    <path d="M0,266.828l8.177,0l0,7.204l0.195,-0c0.194,-0.649 0.697,-1.46 1.509,-2.434c0.811,-0.973 1.849,-1.898 3.115,-2.774c1.265,-0.876 2.758,-1.623 4.478,-2.239c1.719,-0.617 3.618,-0.925 5.694,-0.925c3.44,0 6.328,0.714 8.664,2.142c2.336,1.427 4.251,3.569 5.743,6.425c1.493,-2.856 3.602,-4.998 6.328,-6.425c2.725,-1.428 5.484,-2.142 8.274,-2.142c3.57,0 6.49,0.584 8.761,1.752c2.272,1.168 4.056,2.71 5.354,4.624c1.298,1.915 2.191,4.089 2.677,6.522c0.487,2.434 0.73,4.949 0.73,7.545l0,26.867l-8.761,0l0,-25.699c0,-1.752 -0.113,-3.44 -0.34,-5.062c-0.228,-1.623 -0.698,-3.05 -1.412,-4.283c-0.714,-1.233 -1.72,-2.223 -3.018,-2.969c-1.298,-0.747 -3.017,-1.12 -5.159,-1.12c-4.218,0 -7.236,1.298 -9.053,3.894c-1.817,2.596 -2.726,5.938 -2.726,10.027l0,25.212l-8.761,0l0,-24.142c0,-2.206 -0.113,-4.218 -0.341,-6.035c-0.227,-1.817 -0.681,-3.391 -1.362,-4.721c-0.682,-1.331 -1.655,-2.369 -2.921,-3.115c-1.265,-0.747 -2.969,-1.12 -5.11,-1.12c-1.558,0 -3.067,0.308 -4.527,0.925c-1.46,0.616 -2.742,1.541 -3.845,2.774c-1.103,1.233 -1.979,2.807 -2.628,4.722c-0.649,1.914 -0.974,4.169 -0.974,6.765l0,23.947l-8.761,0l0,-46.142Z" style="fill-rule:nonzero;"/>
    <path d="M83.133,272.474c2.466,-2.271 5.322,-3.975 8.566,-5.11c3.245,-1.136 6.49,-1.704 9.735,-1.704c3.375,0 6.279,0.422 8.712,1.266c2.434,0.843 4.43,1.979 5.987,3.407c1.558,1.427 2.71,3.066 3.456,4.916c0.746,1.849 1.119,3.78 1.119,5.792l0,23.557c0,1.623 0.033,3.115 0.098,4.478c0.065,1.363 0.162,2.661 0.292,3.894l-7.788,0c-0.195,-2.336 -0.292,-4.673 -0.292,-7.009l-0.195,0c-1.946,2.985 -4.25,5.095 -6.911,6.328c-2.661,1.233 -5.743,1.849 -9.248,1.849c-2.142,0 -4.186,-0.292 -6.133,-0.876c-1.947,-0.584 -3.65,-1.46 -5.11,-2.628c-1.461,-1.168 -2.612,-2.612 -3.456,-4.332c-0.844,-1.72 -1.266,-3.715 -1.266,-5.987c0,-2.985 0.666,-5.484 1.996,-7.495c1.33,-2.012 3.147,-3.651 5.451,-4.916c2.304,-1.266 4.997,-2.174 8.08,-2.726c3.083,-0.552 6.376,-0.828 9.881,-0.828l6.424,0l0,-1.946c0,-1.169 -0.227,-2.337 -0.681,-3.505c-0.454,-1.168 -1.136,-2.223 -2.044,-3.164c-0.909,-0.941 -2.045,-1.687 -3.407,-2.239c-1.363,-0.551 -2.986,-0.827 -4.868,-0.827c-1.687,-0 -3.163,0.162 -4.429,0.487c-1.265,0.324 -2.417,0.73 -3.456,1.217c-1.038,0.486 -1.979,1.054 -2.823,1.703c-0.843,0.649 -1.655,1.266 -2.433,1.85l-5.257,-5.452Zm24.726,18.301c-2.077,0 -4.202,0.114 -6.376,0.341c-2.174,0.227 -4.154,0.665 -5.938,1.314c-1.785,0.649 -3.245,1.558 -4.381,2.726c-1.136,1.168 -1.703,2.661 -1.703,4.478c-0,2.66 0.892,4.575 2.677,5.743c1.784,1.168 4.202,1.752 7.252,1.752c2.401,0 4.445,-0.405 6.133,-1.217c1.687,-0.811 3.05,-1.865 4.088,-3.163c1.038,-1.298 1.785,-2.742 2.239,-4.332c0.454,-1.59 0.681,-3.164 0.681,-4.721l0,-2.921l-4.672,0Z" style="fill-rule:nonzero;"/>
    <path d="M133.461,266.828l8.761,0l-0,7.106l0.194,0c0.585,-1.233 1.363,-2.352 2.337,-3.358c0.973,-1.006 2.06,-1.866 3.261,-2.58c1.2,-0.713 2.515,-1.281 3.942,-1.703c1.428,-0.422 2.856,-0.633 4.284,-0.633c1.427,0 2.725,0.195 3.893,0.584l-0.389,9.443c-0.714,-0.195 -1.428,-0.357 -2.142,-0.487c-0.714,-0.13 -1.427,-0.195 -2.141,-0.195c-4.283,0 -7.561,1.201 -9.832,3.602c-2.272,2.401 -3.407,6.133 -3.407,11.195l-0,23.168l-8.761,0l-0,-46.142Z" style="fill-rule:nonzero;"/>
    <path d="M213.965,312.581c0,3.504 -0.6,6.7 -1.801,9.588c-1.2,2.888 -2.904,5.387 -5.11,7.496c-2.207,2.109 -4.867,3.748 -7.982,4.916c-3.116,1.168 -6.555,1.752 -10.319,1.752c-4.413,-0 -8.453,-0.617 -12.12,-1.85c-3.666,-1.233 -7.155,-3.374 -10.464,-6.424l5.938,-7.399c2.271,2.466 4.737,4.332 7.398,5.598c2.661,1.265 5.679,1.898 9.053,1.898c3.245,-0 5.938,-0.471 8.08,-1.412c2.141,-0.941 3.845,-2.157 5.111,-3.65c1.265,-1.493 2.157,-3.196 2.677,-5.111c0.519,-1.914 0.778,-3.845 0.778,-5.792l0,-6.814l-0.292,0c-1.687,2.791 -3.975,4.851 -6.863,6.182c-2.888,1.33 -5.921,1.995 -9.101,1.995c-3.375,0 -6.506,-0.6 -9.394,-1.801c-2.888,-1.2 -5.37,-2.855 -7.447,-4.964c-2.077,-2.11 -3.699,-4.608 -4.867,-7.496c-1.169,-2.888 -1.753,-6.019 -1.753,-9.394c0,-3.375 0.552,-6.538 1.655,-9.491c1.103,-2.953 2.677,-5.533 4.721,-7.739c2.045,-2.207 4.511,-3.926 7.399,-5.159c2.888,-1.233 6.116,-1.85 9.686,-1.85c3.115,0 6.149,0.682 9.101,2.044c2.953,1.363 5.273,3.278 6.961,5.744l0.194,-0l0,-6.62l8.761,0l0,45.753Zm-23.947,-38.744c-2.336,0 -4.445,0.406 -6.327,1.217c-1.882,0.811 -3.472,1.914 -4.77,3.31c-1.298,1.395 -2.304,3.082 -3.018,5.062c-0.714,1.979 -1.071,4.137 -1.071,6.473c0,4.673 1.363,8.421 4.089,11.244c2.726,2.823 6.425,4.234 11.097,4.234c4.673,0 8.372,-1.411 11.098,-4.234c2.725,-2.823 4.088,-6.571 4.088,-11.244c0,-2.336 -0.357,-4.494 -1.071,-6.473c-0.713,-1.98 -1.719,-3.667 -3.017,-5.062c-1.298,-1.396 -2.888,-2.499 -4.77,-3.31c-1.882,-0.811 -3.991,-1.217 -6.328,-1.217Z" style="fill-rule:nonzero;"/>
    <path d="M227.886,266.828l8.761,0l-0,46.142l-8.761,0l-0,-46.142Zm-2.044,-16.548c-0,-1.753 0.632,-3.262 1.898,-4.527c1.265,-1.266 2.774,-1.898 4.526,-1.898c1.753,-0 3.261,0.632 4.527,1.898c1.265,1.265 1.898,2.774 1.898,4.527c0,1.752 -0.633,3.261 -1.898,4.526c-1.266,1.266 -2.774,1.898 -4.527,1.898c-1.752,0 -3.261,-0.632 -4.526,-1.898c-1.266,-1.265 -1.898,-2.774 -1.898,-4.526Z" style="fill-rule:nonzero;"/>
    <path d="M250.567,266.828l8.761,0l0,7.106l0.195,0c1.103,-2.466 3.018,-4.461 5.743,-5.986c2.726,-1.525 5.874,-2.288 9.443,-2.288c2.206,0 4.332,0.341 6.376,1.022c2.044,0.682 3.829,1.736 5.354,3.164c1.525,1.428 2.742,3.261 3.651,5.5c0.908,2.239 1.362,4.883 1.362,7.934l0,29.69l-8.761,0l0,-27.257c0,-2.141 -0.292,-3.975 -0.876,-5.5c-0.584,-1.525 -1.363,-2.758 -2.336,-3.699c-0.974,-0.941 -2.093,-1.622 -3.359,-2.044c-1.265,-0.422 -2.579,-0.633 -3.942,-0.633c-1.817,0 -3.504,0.292 -5.062,0.876c-1.558,0.584 -2.92,1.509 -4.088,2.775c-1.169,1.265 -2.077,2.871 -2.726,4.818c-0.649,1.947 -0.974,4.251 -0.974,6.912l0,23.752l-8.761,0l0,-46.142Z" style="fill-rule:nonzero;"/>
    <path d="M329.222,278.412c-1.038,-1.298 -2.32,-2.385 -3.845,-3.261c-1.525,-0.876 -3.391,-1.314 -5.597,-1.314c-2.077,0 -3.878,0.438 -5.403,1.314c-1.525,0.876 -2.287,2.158 -2.287,3.845c-0,1.363 0.438,2.467 1.314,3.31c0.876,0.844 1.914,1.525 3.115,2.044c1.2,0.52 2.482,0.909 3.845,1.169c1.363,0.259 2.531,0.486 3.504,0.681c1.882,0.454 3.651,1.006 5.306,1.655c1.655,0.649 3.082,1.493 4.283,2.531c1.201,1.038 2.142,2.304 2.823,3.796c0.681,1.493 1.022,3.31 1.022,5.452c0,2.596 -0.552,4.818 -1.655,6.668c-1.103,1.849 -2.531,3.358 -4.283,4.526c-1.752,1.169 -3.748,2.012 -5.987,2.531c-2.239,0.52 -4.494,0.779 -6.765,0.779c-3.829,0 -7.188,-0.584 -10.075,-1.752c-2.888,-1.168 -5.468,-3.31 -7.739,-6.425l6.619,-5.451c1.428,1.428 3.018,2.693 4.77,3.796c1.752,1.104 3.894,1.655 6.425,1.655c1.103,0 2.222,-0.113 3.358,-0.341c1.136,-0.227 2.142,-0.584 3.018,-1.07c0.876,-0.487 1.59,-1.104 2.142,-1.85c0.551,-0.746 0.827,-1.606 0.827,-2.58c-0,-1.298 -0.406,-2.368 -1.217,-3.212c-0.811,-0.844 -1.785,-1.509 -2.92,-1.996c-1.136,-0.486 -2.337,-0.876 -3.602,-1.168c-1.266,-0.292 -2.385,-0.535 -3.358,-0.73c-1.882,-0.454 -3.667,-0.973 -5.354,-1.557c-1.688,-0.584 -3.18,-1.363 -4.478,-2.337c-1.298,-0.973 -2.337,-2.206 -3.115,-3.699c-0.779,-1.492 -1.169,-3.342 -1.169,-5.548c0,-2.402 0.503,-4.495 1.509,-6.279c1.006,-1.785 2.337,-3.261 3.991,-4.429c1.655,-1.169 3.537,-2.045 5.647,-2.629c2.109,-0.584 4.234,-0.876 6.376,-0.876c3.115,0 6.1,0.584 8.955,1.752c2.856,1.168 5.127,3.115 6.815,5.841l-6.815,5.159Z" style="fill-rule:nonzero;"/>
    <path d="M159.405,382.154c18.097,38.191 56.061,67.851 98.431,48.727" style="fill:none;stroke:black;stroke-width:12.31px;"/>
    <path d="M213.6,206.959c50.414,-99.97 139.082,-163.979 255.543,-145.702c27.153,4.261 52.729,14.052 77.577,25.467" style="fill:none;stroke:black;stroke-width:12.31px;"/>
    <path d="M546.72,86.724l-13.239,-24.85" style="fill:none;stroke:black;stroke-width:12.31px;"/>
    <path d="M546.72,86.724l-23.553,7.719" style="fill:none;stroke:black;stroke-width:12.31px;"/>
    <path d="M258.608,429.905l-19.335,-10.314" style="fill:none;stroke:black;stroke-width:12.31px;"/>
    <path d="M258.608,429.905l-8.479,20.084" style="fill:none;stroke:black;stroke-width:12.31px;"/>
    <path d="M364.925,447.303l289.139,-289.139" style="fill:none;stroke:rgb(189,0,255);stroke-width:12.31px;"/>
    <path d="M654.064,158.164l-30.269,-0" style="fill:none;stroke:rgb(189,0,255);stroke-width:12.31px;"/>
    <path d="M654.064,158.164l0,28.369" style="fill:none;stroke:rgb(189,0,255);stroke-width:12.31px;"/>
    <path d="M364.102,448.502l-0,-29.672" style="fill:none;stroke:rgb(189,0,255);stroke-width:12.31px;"/>
    <path d="M364.102,448.502l26.268,-0" style="fill:none;stroke:rgb(189,0,255);stroke-width:12.31px;"/>
    <path d="M554.907,275.531l5.946,0l-0,5.238l0.141,0c0.142,-0.472 0.507,-1.062 1.097,-1.769c0.59,-0.708 1.345,-1.381 2.265,-2.018c0.92,-0.637 2.006,-1.179 3.256,-1.627c1.25,-0.449 2.631,-0.673 4.14,-0.673c2.501,0 4.601,0.519 6.3,1.557c1.698,1.038 3.09,2.595 4.176,4.672c1.085,-2.077 2.618,-3.634 4.6,-4.672c1.982,-1.038 3.987,-1.557 6.016,-1.557c2.596,0 4.719,0.425 6.37,1.274c1.652,0.849 2.95,1.97 3.893,3.362c0.944,1.392 1.593,2.973 1.947,4.742c0.354,1.77 0.53,3.598 0.53,5.486l0,19.534l-6.37,0l0,-18.685c0,-1.274 -0.082,-2.501 -0.247,-3.681c-0.165,-1.179 -0.508,-2.217 -1.027,-3.114c-0.519,-0.896 -1.25,-1.616 -2.194,-2.159c-0.943,-0.542 -2.194,-0.813 -3.751,-0.813c-3.067,-0 -5.261,0.943 -6.582,2.831c-1.321,1.887 -1.982,4.317 -1.982,7.29l-0,18.331l-6.37,0l-0,-17.553c-0,-1.604 -0.083,-3.067 -0.248,-4.388c-0.165,-1.321 -0.495,-2.465 -0.991,-3.433c-0.495,-0.967 -1.203,-1.722 -2.123,-2.265c-0.92,-0.542 -2.159,-0.813 -3.716,-0.813c-1.132,-0 -2.229,0.224 -3.291,0.672c-1.062,0.448 -1.994,1.121 -2.796,2.017c-0.802,0.897 -1.439,2.041 -1.911,3.433c-0.472,1.392 -0.708,3.031 -0.708,4.919l0,17.411l-6.37,0l0,-33.549Z" style="fill:rgb(232,0,255);fill-rule:nonzero;"/>
    <path d="M615.352,279.637c1.793,-1.652 3.869,-2.891 6.228,-3.716c2.36,-0.826 4.719,-1.239 7.078,-1.239c2.454,0 4.565,0.307 6.335,0.92c1.769,0.614 3.22,1.439 4.353,2.477c1.132,1.039 1.97,2.23 2.512,3.575c0.543,1.345 0.814,2.748 0.814,4.211l0,17.128c0,1.18 0.024,2.265 0.071,3.256c0.047,0.991 0.118,1.935 0.212,2.831l-5.662,0c-0.141,-1.698 -0.212,-3.397 -0.212,-5.096l-0.142,0c-1.415,2.171 -3.09,3.704 -5.025,4.601c-1.935,0.896 -4.176,1.345 -6.724,1.345c-1.557,-0 -3.043,-0.213 -4.459,-0.637c-1.416,-0.425 -2.654,-1.062 -3.716,-1.911c-1.061,-0.85 -1.899,-1.9 -2.512,-3.15c-0.614,-1.25 -0.921,-2.701 -0.921,-4.353c0,-2.17 0.484,-3.987 1.451,-5.45c0.968,-1.462 2.289,-2.654 3.964,-3.574c1.675,-0.92 3.633,-1.581 5.875,-1.982c2.241,-0.401 4.636,-0.601 7.184,-0.601l4.671,-0l-0,-1.416c-0,-0.849 -0.165,-1.699 -0.496,-2.548c-0.33,-0.849 -0.825,-1.616 -1.486,-2.3c-0.66,-0.685 -1.486,-1.227 -2.477,-1.628c-0.991,-0.401 -2.171,-0.602 -3.539,-0.602c-1.227,0 -2.3,0.118 -3.22,0.354c-0.921,0.236 -1.758,0.531 -2.513,0.885c-0.755,0.354 -1.439,0.767 -2.053,1.238c-0.613,0.472 -1.203,0.921 -1.769,1.345l-3.822,-3.963Zm17.978,13.306c-1.51,-0 -3.056,0.082 -4.636,0.248c-1.581,0.165 -3.02,0.483 -4.318,0.955c-1.297,0.472 -2.359,1.133 -3.185,1.982c-0.826,0.849 -1.239,1.935 -1.239,3.256c0,1.934 0.649,3.326 1.947,4.176c1.297,0.849 3.055,1.274 5.273,1.274c1.746,-0 3.232,-0.295 4.459,-0.885c1.227,-0.59 2.218,-1.357 2.973,-2.3c0.755,-0.944 1.297,-1.994 1.627,-3.15c0.331,-1.156 0.496,-2.3 0.496,-3.433l-0,-2.123l-3.397,-0Z" style="fill:rgb(232,0,255);fill-rule:nonzero;"/>
    <path d="M651.944,275.531l6.37,0l0,5.167l0.142,0c0.425,-0.896 0.991,-1.71 1.699,-2.442c0.707,-0.731 1.498,-1.356 2.371,-1.875c0.873,-0.519 1.828,-0.932 2.866,-1.239c1.038,-0.307 2.076,-0.46 3.114,-0.46c1.038,0 1.982,0.142 2.831,0.425l-0.283,6.865c-0.519,-0.141 -1.038,-0.259 -1.557,-0.354c-0.519,-0.094 -1.038,-0.141 -1.557,-0.141c-3.114,-0 -5.497,0.873 -7.148,2.619c-1.652,1.746 -2.478,4.459 -2.478,8.139l0,16.845l-6.37,0l0,-33.549Z" style="fill:rgb(232,0,255);fill-rule:nonzero;"/>
    <path d="M710.478,308.797c-0,2.548 -0.437,4.872 -1.31,6.972c-0.872,2.1 -2.111,3.916 -3.715,5.45c-1.605,1.533 -3.539,2.725 -5.804,3.574c-2.265,0.849 -4.766,1.274 -7.503,1.274c-3.208,0 -6.146,-0.448 -8.812,-1.345c-2.666,-0.896 -5.202,-2.453 -7.608,-4.671l4.317,-5.379c1.652,1.793 3.445,3.149 5.379,4.07c1.935,0.92 4.129,1.38 6.583,1.38c2.359,-0 4.317,-0.342 5.874,-1.027c1.557,-0.684 2.796,-1.568 3.716,-2.654c0.92,-1.085 1.569,-2.324 1.947,-3.716c0.377,-1.392 0.566,-2.795 0.566,-4.211l-0,-4.954l-0.213,-0c-1.226,2.029 -2.89,3.527 -4.989,4.494c-2.1,0.967 -4.306,1.451 -6.618,1.451c-2.454,0 -4.73,-0.436 -6.83,-1.309c-2.1,-0.873 -3.905,-2.077 -5.415,-3.61c-1.51,-1.534 -2.689,-3.35 -3.539,-5.45c-0.849,-2.1 -1.274,-4.376 -1.274,-6.83c0,-2.454 0.401,-4.754 1.204,-6.901c0.802,-2.147 1.946,-4.023 3.432,-5.627c1.487,-1.604 3.28,-2.855 5.379,-3.751c2.1,-0.897 4.448,-1.345 7.043,-1.345c2.265,0 4.471,0.496 6.618,1.486c2.147,0.991 3.833,2.383 5.06,4.176l0.142,0l-0,-4.813l6.37,0l-0,33.266Zm-17.412,-28.169c-1.698,-0 -3.232,0.294 -4.6,0.884c-1.369,0.59 -2.525,1.392 -3.468,2.407c-0.944,1.014 -1.675,2.241 -2.194,3.68c-0.519,1.439 -0.779,3.008 -0.779,4.707c0,3.397 0.991,6.122 2.973,8.175c1.981,2.052 4.671,3.079 8.068,3.079c3.398,-0 6.087,-1.027 8.069,-3.079c1.982,-2.053 2.973,-4.778 2.973,-8.175c-0,-1.699 -0.26,-3.268 -0.779,-4.707c-0.519,-1.439 -1.25,-2.666 -2.194,-3.68c-0.944,-1.015 -2.1,-1.817 -3.468,-2.407c-1.368,-0.59 -2.902,-0.884 -4.601,-0.884Z" style="fill:rgb(232,0,255);fill-rule:nonzero;"/>
    <path d="M720.599,275.531l6.37,0l0,33.549l-6.37,0l0,-33.549Zm-1.486,-12.032c-0,-1.274 0.46,-2.371 1.38,-3.291c0.92,-0.92 2.017,-1.38 3.291,-1.38c1.274,-0 2.371,0.46 3.291,1.38c0.92,0.92 1.381,2.017 1.381,3.291c-0,1.274 -0.461,2.371 -1.381,3.291c-0.92,0.92 -2.017,1.381 -3.291,1.381c-1.274,-0 -2.371,-0.461 -3.291,-1.381c-0.92,-0.92 -1.38,-2.017 -1.38,-3.291Z" style="fill:rgb(232,0,255);fill-rule:nonzero;"/>
    <path d="M737.091,275.531l6.37,0l-0,5.167l0.141,0c0.802,-1.793 2.194,-3.244 4.176,-4.353c1.982,-1.108 4.27,-1.663 6.866,-1.663c1.604,0 3.149,0.248 4.635,0.743c1.487,0.496 2.784,1.263 3.893,2.301c1.109,1.038 1.994,2.371 2.654,3.999c0.661,1.627 0.991,3.55 0.991,5.768l0,21.587l-6.37,0l0,-19.818c0,-1.557 -0.212,-2.89 -0.637,-3.999c-0.424,-1.108 -0.991,-2.005 -1.698,-2.689c-0.708,-0.684 -1.522,-1.18 -2.442,-1.486c-0.92,-0.307 -1.876,-0.46 -2.867,-0.46c-1.321,-0 -2.548,0.212 -3.68,0.637c-1.133,0.424 -2.124,1.097 -2.973,2.017c-0.849,0.92 -1.51,2.088 -1.982,3.503c-0.472,1.416 -0.707,3.091 -0.707,5.025l-0,17.27l-6.37,0l-0,-33.549Z" style="fill:rgb(232,0,255);fill-rule:nonzero;"/>
    <path d="M1266.69,45.052c0.217,-2.591 -0.07,-5.204 -0.86,-7.839c-0.789,-2.635 -2.437,-5.139 -4.943,-7.512c-2.359,-2.233 -4.875,-3.672 -7.549,-4.318c-2.675,-0.645 -4.919,-0.009 -6.734,1.907c-1.465,1.548 -2.154,3.272 -2.067,5.172c0.088,1.901 0.535,3.791 1.34,5.672c0.805,1.881 1.842,3.702 3.11,5.462c1.269,1.76 2.351,3.275 3.248,4.543c1.648,2.54 3.064,5.068 4.245,7.585c1.182,2.516 1.896,5.01 2.143,7.481c0.247,2.47 -0.046,4.919 -0.877,7.347c-0.831,2.428 -2.399,4.858 -4.702,7.291c-2.791,2.948 -5.808,4.879 -9.05,5.793c-3.243,0.914 -6.487,1.092 -9.733,0.534c-3.246,-0.557 -6.42,-1.745 -9.521,-3.563c-3.101,-1.819 -5.942,-3.949 -8.521,-6.392c-4.349,-4.118 -7.535,-8.393 -9.558,-12.825c-2.024,-4.433 -2.651,-9.639 -1.88,-15.62l13.38,0.928c0.086,3.157 0.531,6.304 1.335,9.441c0.803,3.138 2.642,6.067 5.517,8.789c1.253,1.187 2.646,2.262 4.18,3.225c1.534,0.964 3.061,1.64 4.579,2.029c1.519,0.39 2.992,0.457 4.421,0.203c1.429,-0.254 2.667,-0.934 3.714,-2.04c1.396,-1.474 2.087,-3.126 2.073,-4.957c-0.014,-1.83 -0.404,-3.633 -1.17,-5.407c-0.767,-1.774 -1.712,-3.507 -2.835,-5.2c-1.123,-1.693 -2.133,-3.173 -3.029,-4.441c-1.649,-2.54 -3.117,-5.049 -4.405,-7.527c-1.288,-2.478 -2.146,-4.967 -2.573,-7.469c-0.427,-2.501 -0.281,-5.018 0.44,-7.551c0.721,-2.533 2.268,-5.052 4.641,-7.558c2.582,-2.727 5.404,-4.563 8.466,-5.508c3.062,-0.945 6.16,-1.191 9.296,-0.738c3.136,0.453 6.215,1.482 9.239,3.087c3.023,1.605 5.751,3.559 8.183,5.862c3.538,3.35 6.301,7.224 8.287,11.621c1.987,4.398 2.473,9.052 1.458,13.962l-13.288,-1.469Z" style="fill-rule:nonzero;"/>
    <path d="M1283.64,85.84c-2.512,2.654 -4.427,5.488 -5.745,8.504c-1.318,3.016 -1.991,6.014 -2.017,8.994c-0.026,2.981 0.593,5.944 1.858,8.889c1.265,2.945 3.224,5.674 5.877,8.187c2.654,2.512 5.485,4.32 8.495,5.423c3.01,1.102 6.002,1.559 8.977,1.37c2.974,-0.188 5.931,-1.023 8.871,-2.503c2.939,-1.48 5.665,-3.547 8.178,-6.2c2.512,-2.654 4.428,-5.488 5.746,-8.504c1.318,-3.016 1.99,-6.014 2.016,-8.994c0.027,-2.981 -0.593,-5.944 -1.858,-8.889c-1.265,-2.945 -3.224,-5.674 -5.877,-8.187c-2.653,-2.512 -5.485,-4.32 -8.495,-5.423c-3.01,-1.102 -6.002,-1.559 -8.977,-1.371c-2.974,0.189 -5.931,1.024 -8.871,2.504c-2.939,1.48 -5.665,3.547 -8.178,6.2Zm-10.613,-10.05c3.629,-3.832 7.733,-6.727 12.311,-8.682c4.578,-1.956 9.306,-3 14.185,-3.133c4.879,-0.133 9.694,0.687 14.445,2.46c4.752,1.773 9.08,4.509 12.987,8.209c3.906,3.699 6.874,7.872 8.903,12.52c2.03,4.647 3.111,9.411 3.244,14.289c0.133,4.879 -0.652,9.658 -2.356,14.335c-1.703,4.678 -4.37,8.933 -7.999,12.766c-3.629,3.832 -7.75,6.745 -12.363,8.737c-4.613,1.993 -9.341,3.037 -14.185,3.134c-4.844,0.096 -9.642,-0.743 -14.393,-2.516c-4.751,-1.773 -9.08,-4.51 -12.987,-8.209c-3.906,-3.699 -6.874,-7.872 -8.903,-12.52c-2.03,-4.647 -3.128,-9.392 -3.296,-14.234c-0.168,-4.842 0.617,-9.621 2.356,-14.335c1.738,-4.715 4.422,-8.988 8.051,-12.821Z" style="fill-rule:nonzero;"/>
    <path d="M1361.75,126.469l-11.277,-10.678l8.166,-8.623l11.277,10.678l11.097,-11.719c6.63,-7.002 12.913,-10.943 18.849,-11.823c5.935,-0.879 12.183,1.787 18.743,7.998c1.105,1.047 2.231,2.183 3.378,3.408c1.146,1.226 2.245,2.686 3.296,4.38l-9.481,7.798c-0.609,-1.276 -1.286,-2.406 -2.031,-3.391c-0.745,-0.985 -1.633,-1.966 -2.665,-2.943c-1.842,-1.745 -3.578,-2.865 -5.207,-3.359c-1.629,-0.494 -3.245,-0.522 -4.849,-0.083c-1.604,0.439 -3.178,1.289 -4.723,2.552c-1.545,1.263 -3.191,2.815 -4.935,4.658l-11.411,12.051l11.829,11.201l-8.166,8.624l-11.94,-11.307l-41.457,43.781l-9.95,-9.422l41.457,-43.781Z" style="fill-rule:nonzero;"/>
    <path d="M1422.78,184.258l-14.262,-13.505l-22.508,23.769c-1.396,1.475 -2.737,2.965 -4.024,4.472c-1.288,1.507 -2.233,3.059 -2.835,4.655c-0.603,1.596 -0.739,3.215 -0.407,4.857c0.332,1.643 1.457,3.371 3.373,5.186c1.179,1.117 2.5,2.158 3.962,3.123c1.463,0.965 2.989,1.642 4.579,2.029l-8.584,9.066c-1.808,-0.453 -3.773,-1.441 -5.897,-2.963c-2.124,-1.522 -3.702,-2.771 -4.734,-3.748c-3.832,-3.629 -6.293,-6.973 -7.381,-10.031c-1.089,-3.057 -1.328,-5.905 -0.718,-8.542c0.61,-2.638 1.818,-5.094 3.623,-7.369c1.805,-2.275 3.719,-4.481 5.743,-6.619l25.858,-27.307l-11.497,-10.888l8.165,-8.623l11.498,10.887l13.924,-14.703l9.95,9.422l-13.924,14.704l14.262,13.504l-8.166,8.624Z" style="fill-rule:nonzero;"/>
    <path d="M1474.5,216.882l9.287,8.794l-7.747,8.181l0.221,0.209c0.919,-0.527 2.362,-0.908 4.331,-1.141c1.968,-0.233 4.142,-0.166 6.521,0.199c2.38,0.366 4.877,1.124 7.494,2.273c2.616,1.15 5.103,2.841 7.462,5.074c3.906,3.699 6.418,7.616 7.536,11.75c1.118,4.134 0.989,8.625 -0.387,13.473c4.766,-1.637 9.465,-1.801 14.096,-0.491c4.631,1.309 8.531,3.465 11.7,6.466c4.054,3.838 6.743,7.642 8.066,11.412c1.323,3.769 1.693,7.439 1.108,11.009c-0.585,3.57 -1.91,6.999 -3.974,10.286c-2.065,3.288 -4.493,6.406 -7.284,9.354l-28.895,30.513l-9.95,-9.422l27.638,-29.187c1.885,-1.99 3.57,-4.028 5.057,-6.115c1.487,-2.087 2.488,-4.214 3.004,-6.382c0.515,-2.169 0.437,-4.374 -0.235,-6.618c-0.671,-2.243 -2.223,-4.517 -4.655,-6.82c-4.791,-4.536 -9.614,-6.308 -14.47,-5.314c-4.855,0.994 -9.481,3.813 -13.878,8.456l-27.115,28.634l-9.95,-9.422l25.963,-27.418c2.373,-2.505 4.408,-4.912 6.104,-7.22c1.696,-2.308 2.873,-4.584 3.53,-6.828c0.657,-2.244 0.668,-4.47 0.033,-6.678c-0.635,-2.209 -2.168,-4.465 -4.6,-6.768c-1.769,-1.675 -3.814,-2.948 -6.136,-3.818c-2.321,-0.87 -4.771,-1.198 -7.35,-0.984c-2.579,0.214 -5.267,1.059 -8.063,2.535c-2.796,1.476 -5.589,3.689 -8.381,6.637l-25.754,27.197l-9.95,-9.422l49.623,-52.404Z" style="fill-rule:nonzero;"/>
    <path d="M1562.85,312.699c5.243,0.073 10.318,1.209 15.225,3.408c4.907,2.2 9.203,5.045 12.888,8.535c3.832,3.629 6.677,7.231 8.534,10.807c1.856,3.575 2.901,7.011 3.135,10.307c0.233,3.297 -0.221,6.397 -1.362,9.3c-1.142,2.903 -2.795,5.497 -4.958,7.782l-25.335,26.755c-1.745,1.842 -3.313,3.572 -4.705,5.19c-1.392,1.617 -2.677,3.196 -3.856,4.736l-8.844,-8.375c2.291,-2.863 4.693,-5.621 7.206,-8.274l-0.222,-0.209c-5.421,1.296 -10.306,1.214 -14.654,-0.247c-4.348,-1.461 -8.512,-4.076 -12.492,-7.845c-2.432,-2.303 -4.44,-4.833 -6.023,-7.591c-1.583,-2.757 -2.575,-5.584 -2.977,-8.481c-0.402,-2.897 -0.158,-5.776 0.734,-8.636c0.891,-2.86 2.558,-5.581 5.001,-8.16c3.21,-3.391 6.653,-5.513 10.327,-6.367c3.675,-0.854 7.501,-0.761 11.478,0.28c3.978,1.04 8.014,2.905 12.108,5.593c4.094,2.689 8.131,5.918 12.111,9.687l7.297,6.909l2.094,-2.211c1.256,-1.327 2.254,-2.898 2.994,-4.713c0.741,-1.815 1.101,-3.746 1.081,-5.791c-0.02,-2.046 -0.507,-4.115 -1.461,-6.207c-0.955,-2.093 -2.501,-4.151 -4.638,-6.175c-1.917,-1.814 -3.768,-3.218 -5.554,-4.21c-1.786,-0.993 -3.531,-1.771 -5.233,-2.335c-1.703,-0.564 -3.383,-0.931 -5.039,-1.101c-1.656,-0.17 -3.24,-0.342 -4.753,-0.517l-0.107,-11.844Zm8.4,47.376c-2.359,-2.234 -4.895,-4.39 -7.608,-6.471c-2.714,-2.08 -5.433,-3.711 -8.157,-4.893c-2.725,-1.182 -5.361,-1.721 -7.907,-1.616c-2.546,0.106 -4.796,1.19 -6.75,3.254c-2.862,3.022 -3.907,6.156 -3.137,9.402c0.771,3.246 2.888,6.509 6.352,9.789c2.727,2.582 5.485,4.32 8.274,5.214c2.789,0.893 5.471,1.161 8.046,0.803c2.575,-0.357 4.975,-1.194 7.201,-2.511c2.226,-1.318 4.177,-2.861 5.852,-4.63l3.14,-3.316l-5.306,-5.025Z" style="fill-rule:nonzero;"/>
    <path d="M1626.08,360.411l9.95,9.422l-7.642,8.071l0.221,0.209c1.99,-0.772 4.078,-1.206 6.265,-1.301c2.188,-0.096 4.347,0.096 6.478,0.577c2.132,0.48 4.235,1.249 6.31,2.305c2.075,1.056 3.923,2.352 5.545,3.888c1.621,1.535 2.886,3.152 3.794,4.851l-10.597,10.305c-0.602,-0.989 -1.238,-1.941 -1.909,-2.856c-0.671,-0.915 -1.412,-1.757 -2.223,-2.524c-4.864,-4.607 -9.878,-6.768 -15.039,-6.483c-5.162,0.284 -10.465,3.301 -15.909,9.049l-24.916,26.313l-9.95,-9.422l49.622,-52.404Z" style="fill-rule:nonzero;"/>
    <path d="M1668.3,498.951c-3.769,3.98 -7.888,6.964 -12.357,8.953c-4.469,1.988 -9.091,2.994 -13.865,3.016c-4.774,0.023 -9.559,-0.978 -14.353,-3.001c-4.794,-2.024 -9.328,-5.059 -13.603,-9.107c-5.012,-4.746 -8.937,-9.791 -11.775,-15.135c-2.838,-5.343 -4.497,-11.527 -4.975,-18.55l14.7,-2.017c-0.073,5.244 0.722,10.015 2.383,14.314c1.66,4.298 4.407,8.262 8.24,11.892c3.685,3.489 7.25,5.851 10.694,7.086c3.444,1.234 6.688,1.684 9.73,1.35c3.043,-0.334 5.888,-1.309 8.537,-2.925c2.648,-1.616 5.019,-3.53 7.113,-5.741l7.328,-7.739l-0.331,-0.314c-4.918,1.355 -9.732,1.235 -14.442,-0.36c-4.711,-1.595 -8.872,-4.102 -12.484,-7.522c-3.832,-3.629 -6.743,-7.678 -8.731,-12.148c-1.989,-4.469 -3.029,-9.018 -3.119,-13.647c-0.09,-4.629 0.754,-9.211 2.533,-13.747c1.78,-4.536 4.484,-8.721 8.113,-12.553c3.629,-3.833 7.658,-6.833 12.087,-9c4.428,-2.167 8.99,-3.404 13.684,-3.712c4.695,-0.307 9.345,0.392 13.951,2.097c4.606,1.706 8.936,4.478 12.99,8.316c3.537,3.35 6.25,7.387 8.138,12.111c1.888,4.723 2.464,9.392 1.728,14.008l0.221,0.209l7.119,-7.518l9.95,9.422l-49.204,51.962Zm14.47,-69.755c-2.653,-2.513 -5.485,-4.32 -8.495,-5.423c-3.01,-1.103 -6.002,-1.56 -8.977,-1.371c-2.974,0.189 -5.931,1.023 -8.871,2.504c-2.939,1.48 -5.665,3.547 -8.178,6.2c-5.025,5.307 -7.507,11.029 -7.448,17.166c0.06,6.138 2.743,11.719 8.05,16.744c5.306,5.025 11.025,7.4 17.157,7.125c6.131,-0.275 11.71,-3.065 16.735,-8.372c2.512,-2.653 4.428,-5.488 5.746,-8.504c1.318,-3.015 1.99,-6.013 2.016,-8.994c0.027,-2.98 -0.593,-5.943 -1.858,-8.889c-1.265,-2.945 -3.224,-5.674 -5.877,-8.186Z" style="fill-rule:nonzero;"/>
    <path d="M1733.32,461.96l9.95,9.422l-49.623,52.403l-9.95,-9.422l49.623,-52.403Zm15.475,-20.993c1.885,-1.99 4.226,-3.023 7.024,-3.1c2.798,-0.076 5.193,0.828 7.183,2.713c1.99,1.884 3.023,4.225 3.099,7.024c0.076,2.798 -0.828,5.192 -2.712,7.182c-1.885,1.99 -4.226,3.023 -7.024,3.099c-2.798,0.076 -5.192,-0.828 -7.182,-2.712c-1.99,-1.884 -3.024,-4.226 -3.1,-7.024c-0.076,-2.798 0.828,-5.192 2.712,-7.182Z" style="fill-rule:nonzero;"/>
    <path d="M1759.08,486.352l9.95,9.422l-7.642,8.071l0.221,0.209c3.905,-1.614 8.226,-1.821 12.961,-0.622c4.736,1.199 9.131,3.718 13.185,7.557c2.506,2.373 4.553,5.045 6.142,8.018c1.589,2.972 2.481,6.089 2.678,9.351c0.197,3.261 -0.393,6.652 -1.769,10.172c-1.376,3.52 -3.704,7.012 -6.985,10.476l-31.93,33.72l-9.95,-9.422l29.313,-30.956c2.303,-2.432 3.943,-4.829 4.92,-7.189c0.977,-2.36 1.419,-4.598 1.325,-6.713c-0.094,-2.116 -0.632,-4.094 -1.616,-5.934c-0.983,-1.84 -2.249,-3.493 -3.797,-4.958c-2.064,-1.955 -4.294,-3.438 -6.691,-4.449c-2.397,-1.012 -4.939,-1.427 -7.627,-1.246c-2.688,0.181 -5.447,1.028 -8.278,2.541c-2.83,1.513 -5.677,3.781 -8.538,6.802l-25.544,26.976l-9.95,-9.422l49.622,-52.404Z" style="fill-rule:nonzero;"/>
    <path d="M1822.02,614.311c-0.806,4.689 -0.362,9.129 1.332,13.319c1.694,4.19 4.126,7.786 7.295,10.787c1.769,1.675 3.836,3.108 6.202,4.3c2.366,1.192 4.828,1.951 7.386,2.276c2.558,0.325 5.084,0.131 7.577,-0.583c2.494,-0.715 4.753,-2.14 6.777,-4.278c2.861,-3.022 4.084,-6.232 3.668,-9.631c-0.415,-3.4 -1.536,-6.977 -3.362,-10.733c-1.825,-3.756 -3.944,-7.719 -6.355,-11.889c-2.411,-4.171 -4.198,-8.484 -5.361,-12.94c-1.163,-4.456 -1.289,-9.084 -0.378,-13.883c0.91,-4.8 3.773,-9.743 8.589,-14.828c2.163,-2.285 4.964,-4.246 8.402,-5.884c3.437,-1.637 7.237,-2.513 11.398,-2.626c4.162,-0.113 8.6,0.699 13.314,2.437c4.715,1.739 9.431,4.841 14.148,9.308c4.274,4.048 7.807,8.511 10.596,13.389c2.79,4.879 3.949,10.519 3.477,16.923l-16.056,-0.317c0.627,-3.32 0.318,-6.758 -0.927,-10.314c-1.246,-3.556 -3.417,-6.8 -6.512,-9.731c-2.949,-2.792 -5.766,-4.725 -8.452,-5.801c-2.686,-1.076 -5.194,-1.564 -7.525,-1.464c-2.331,0.099 -4.399,0.622 -6.204,1.569c-1.805,0.947 -3.266,2.01 -4.383,3.189c-3.14,3.317 -4.59,6.767 -4.349,10.35c0.242,3.584 1.257,7.272 3.048,11.064c1.791,3.793 3.944,7.719 6.46,11.779c2.516,4.06 4.443,8.226 5.78,12.498c1.337,4.272 1.69,8.66 1.059,13.165c-0.631,4.504 -3.18,9.115 -7.647,13.832c-3.559,3.759 -7.489,6.469 -11.787,8.13c-4.299,1.661 -8.642,2.372 -13.028,2.132c-4.386,-0.239 -8.761,-1.376 -13.125,-3.412c-4.364,-2.035 -8.425,-4.832 -12.184,-8.391c-5.012,-4.746 -8.928,-10.132 -11.749,-16.159c-2.821,-6.026 -3.813,-12.138 -2.977,-18.336l15.853,0.753Z" style="fill-rule:nonzero;"/>
    <path d="M1929.07,598.254l12.271,11.62l-37.305,85.456l0.221,0.209l84.181,-41.067l11.609,10.992l-104.966,49.065l-9.95,-9.422l43.939,-106.853Z" style="fill-rule:nonzero;"/>
    <path d="M2008.66,673.63l15.809,14.97l-31.238,82.814l0.442,0.418l80.768,-35.912l15.809,14.971l-74.12,78.273l-10.613,-10.05l60.929,-64.344l-0.221,-0.209l-87.352,39.323l-7.076,-6.7l34.507,-89.365l-0.222,-0.209l-60.929,64.344l-10.613,-10.05l74.12,-78.274Z" style="fill-rule:nonzero;"/>
    <path d="M1311.47,990.425l91.419,-91.437" style="fill:none;stroke:rgb(255,169,0);stroke-width:12.31px;"/>
    <path d="M1045.03,637.445l45.88,-45.889" style="fill:none;stroke:rgb(255,169,0);stroke-width:12.31px;"/>
    <path d="M1006.11,1092.09l59.336,-59.349" style="fill:none;stroke:rgb(255,169,0);stroke-width:12.31px;"/>
    <path d="M638.208,536.844l199.567,-199.608" style="fill:none;stroke:rgb(255,169,0);stroke-width:12.31px;"/>
    <path d="M1245.74,1327.55l206.378,-206.421" style="fill:none;stroke:rgb(255,169,0);stroke-width:12.31px;"/>
    <g transform="matrix(1,0,0,1,-584.312,-412.416)">
        <g transform="matrix(73.8877,0,0,73.8877,1775.29,1333.97)">
            <path d="M0.458,-0.634l-0.123,0c-0.028,0 -0.051,0.003 -0.07,0.009c-0.019,0.006 -0.034,0.015 -0.046,0.026c-0.023,0.023 -0.035,0.05 -0.034,0.081c0.001,0.042 0.018,0.071 0.052,0.088c0.032,0.017 0.069,0.025 0.111,0.024l0.08,0l-0,0.072l-0.14,0c-0.014,0 -0.029,0.002 -0.046,0.006c-0.016,0.005 -0.032,0.012 -0.046,0.022c-0.015,0.01 -0.027,0.023 -0.036,0.039c-0.01,0.017 -0.015,0.037 -0.015,0.061c0.001,0.052 0.018,0.086 0.053,0.103c0.033,0.017 0.076,0.026 0.13,0.025c0.026,-0 0.048,0.001 0.068,0.002c0.019,0.002 0.036,0.007 0.05,0.013c0.014,0.007 0.025,0.017 0.033,0.032c0.007,0.016 0.01,0.036 0.01,0.062c-0.001,0.025 -0.005,0.052 -0.012,0.081c-0.008,0.028 -0.018,0.056 -0.029,0.084l-0.08,-0c0.011,-0.025 0.021,-0.051 0.03,-0.077c0.009,-0.026 0.013,-0.051 0.013,-0.074c0.001,-0.021 -0.007,-0.034 -0.022,-0.039c-0.016,-0.005 -0.048,-0.007 -0.094,-0.006c-0.08,-0.001 -0.14,-0.019 -0.18,-0.056c-0.04,-0.036 -0.06,-0.082 -0.06,-0.138c0.002,-0.105 0.056,-0.165 0.161,-0.181l-0,-0.002c-0.034,-0.009 -0.062,-0.023 -0.085,-0.042c-0.023,-0.019 -0.035,-0.046 -0.036,-0.084c0,-0.028 0.009,-0.053 0.025,-0.075c0.015,-0.022 0.033,-0.04 0.056,-0.054l-0,-0.002l-0.102,0l0,-0.072l0.384,-0l0,0.072Z" style="fill:rgb(183,136,62);fill-rule:nonzero;stroke:rgb(255,169,0);stroke-width:0.01px;stroke-linecap:butt;stroke-miterlimit:2;"/>
        </g>
        <g transform="matrix(73.8877,0,0,73.8877,1832.77,1333.97)">
            <path d="M0.6,-0.043l-0.534,-0.219l0,-0.082l0.534,-0.22l0,0.079l-0.452,0.182l0.452,0.182l0,0.078Z" style="fill:rgb(183,136,62);fill-rule:nonzero;stroke:rgb(255,169,0);stroke-width:0.01px;stroke-linecap:butt;stroke-miterlimit:2;"/>
        </g>
        <g transform="matrix(73.8877,0,0,73.8877,1902.52,1333.97)">
            <path d="M0.27,-0.598l-0.13,0.12l-0.056,-0.067l0.197,-0.163l0.085,0l-0,0.708l-0.096,-0l0,-0.598Z" style="fill:rgb(183,136,62);fill-rule:nonzero;stroke:rgb(255,169,0);stroke-width:0.01px;stroke-linecap:butt;stroke-miterlimit:2;"/>
        </g>
    </g>
    <g transform="matrix(1,0,0,1,-605.919,-113.37)">
        <g transform="matrix(73.8877,0,0,73.8877,1775.29,1333.97)">
            <path d="M0.458,-0.634l-0.123,0c-0.028,0 -0.051,0.003 -0.07,0.009c-0.019,0.006 -0.034,0.015 -0.046,0.026c-0.023,0.023 -0.035,0.05 -0.034,0.081c0.001,0.042 0.018,0.071 0.052,0.088c0.032,0.017 0.069,0.025 0.111,0.024l0.08,0l-0,0.072l-0.14,0c-0.014,0 -0.029,0.002 -0.046,0.006c-0.016,0.005 -0.032,0.012 -0.046,0.022c-0.015,0.01 -0.027,0.023 -0.036,0.039c-0.01,0.017 -0.015,0.037 -0.015,0.061c0.001,0.052 0.018,0.086 0.053,0.103c0.033,0.017 0.076,0.026 0.13,0.025c0.026,-0 0.048,0.001 0.068,0.002c0.019,0.002 0.036,0.007 0.05,0.013c0.014,0.007 0.025,0.017 0.033,0.032c0.007,0.016 0.01,0.036 0.01,0.062c-0.001,0.025 -0.005,0.052 -0.012,0.081c-0.008,0.028 -0.018,0.056 -0.029,0.084l-0.08,-0c0.011,-0.025 0.021,-0.051 0.03,-0.077c0.009,-0.026 0.013,-0.051 0.013,-0.074c0.001,-0.021 -0.007,-0.034 -0.022,-0.039c-0.016,-0.005 -0.048,-0.007 -0.094,-0.006c-0.08,-0.001 -0.14,-0.019 -0.18,-0.056c-0.04,-0.036 -0.06,-0.082 -0.06,-0.138c0.002,-0.105 0.056,-0.165 0.161,-0.181l-0,-0.002c-0.034,-0.009 -0.062,-0.023 -0.085,-0.042c-0.023,-0.019 -0.035,-0.046 -0.036,-0.084c0,-0.028 0.009,-0.053 0.025,-0.075c0.015,-0.022 0.033,-0.04 0.056,-0.054l-0,-0.002l-0.102,0l0,-0.072l0.384,-0l0,0.072Z" style="fill:rgb(183,136,62);fill-rule:nonzero;stroke:rgb(255,169,0);stroke-width:0.01px;stroke-linecap:butt;stroke-miterlimit:2;"/>
        </g>
        <g transform="matrix(73.8877,0,0,73.8877,1832.77,1333.97)">
            <path d="M0.066,-0.563l0.534,0.219l-0,0.082l-0.534,0.22l-0,-0.079l0.452,-0.182l-0.452,-0.182l0,-0.078Z" style="fill:rgb(183,136,62);fill-rule:nonzero;stroke:rgb(255,169,0);stroke-width:0.01px;stroke-linecap:butt;stroke-miterlimit:2;"/>
        </g>
        <g transform="matrix(73.8877,0,0,73.8877,1902.52,1333.97)">
            <path d="M0.27,-0.598l-0.13,0.12l-0.056,-0.067l0.197,-0.163l0.085,0l-0,0.708l-0.096,-0l0,-0.598Z" style="fill:rgb(183,136,62);fill-rule:nonzero;stroke:rgb(255,169,0);stroke-width:0.01px;stroke-linecap:butt;stroke-miterlimit:2;"/>
        </g>
    </g>
    <g transform="matrix(0.718148,0.69589,-0.69589,0.718148,351.544,-1293)">
        <g transform="matrix(73.8877,0,0,73.8877,1775.29,1333.97)">
            <path d="M0.458,-0.634l-0.123,0c-0.028,0 -0.051,0.003 -0.07,0.009c-0.019,0.006 -0.034,0.015 -0.046,0.026c-0.023,0.023 -0.035,0.05 -0.034,0.081c0.001,0.042 0.018,0.071 0.052,0.088c0.032,0.017 0.069,0.025 0.111,0.024l0.08,0l-0,0.072l-0.14,0c-0.014,0 -0.029,0.002 -0.046,0.006c-0.016,0.005 -0.032,0.012 -0.046,0.022c-0.015,0.01 -0.027,0.023 -0.036,0.039c-0.01,0.017 -0.015,0.037 -0.015,0.061c0.001,0.052 0.018,0.086 0.053,0.103c0.033,0.017 0.076,0.026 0.13,0.025c0.026,-0 0.048,0.001 0.068,0.002c0.019,0.002 0.036,0.007 0.05,0.013c0.014,0.007 0.025,0.017 0.033,0.032c0.007,0.016 0.01,0.036 0.01,0.062c-0.001,0.025 -0.005,0.052 -0.012,0.081c-0.008,0.028 -0.018,0.056 -0.029,0.084l-0.08,-0c0.011,-0.025 0.021,-0.051 0.03,-0.077c0.009,-0.026 0.013,-0.051 0.013,-0.074c0.001,-0.021 -0.007,-0.034 -0.022,-0.039c-0.016,-0.005 -0.048,-0.007 -0.094,-0.006c-0.08,-0.001 -0.14,-0.019 -0.18,-0.056c-0.04,-0.036 -0.06,-0.082 -0.06,-0.138c0.002,-0.105 0.056,-0.165 0.161,-0.181l-0,-0.002c-0.034,-0.009 -0.062,-0.023 -0.085,-0.042c-0.023,-0.019 -0.035,-0.046 -0.036,-0.084c0,-0.028 0.009,-0.053 0.025,-0.075c0.015,-0.022 0.033,-0.04 0.056,-0.054l-0,-0.002l-0.102,0l0,-0.072l0.384,-0l0,0.072Z" style="fill:rgb(183,136,62);fill-rule:nonzero;stroke:rgb(255,169,0);stroke-width:0.01px;stroke-linecap:butt;stroke-miterlimit:2;"/>
        </g>
        <g transform="matrix(73.8877,0,0,73.8877,1832.77,1333.97)">
            <path d="M0.6,-0.42l0,0.078l-0.534,-0l0,-0.078l0.534,0Zm0,0.157l0,0.078l-0.534,0l0,-0.078l0.534,0Z" style="fill:rgb(183,136,62);fill-rule:nonzero;stroke:rgb(255,169,0);stroke-width:0.01px;stroke-linecap:butt;stroke-miterlimit:2;"/>
        </g>
        <g transform="matrix(73.8877,0,0,73.8877,1902.52,1333.97)">
            <path d="M0.034,-0.354c0,-0.026 0.001,-0.053 0.004,-0.081c0.003,-0.028 0.008,-0.055 0.014,-0.082c0.007,-0.028 0.017,-0.053 0.028,-0.078c0.012,-0.025 0.027,-0.046 0.046,-0.065c0.018,-0.018 0.04,-0.033 0.065,-0.044c0.025,-0.011 0.054,-0.016 0.087,-0.016c0.033,-0 0.063,0.005 0.087,0.016c0.025,0.011 0.047,0.026 0.065,0.044c0.019,0.019 0.034,0.04 0.045,0.065c0.012,0.025 0.021,0.05 0.029,0.078c0.007,0.027 0.011,0.054 0.014,0.082c0.003,0.028 0.004,0.055 0.004,0.081c0,0.037 -0.003,0.077 -0.01,0.12c-0.007,0.043 -0.019,0.082 -0.037,0.119c-0.018,0.037 -0.043,0.067 -0.075,0.091c-0.031,0.024 -0.072,0.036 -0.122,0.036c-0.05,-0 -0.091,-0.012 -0.123,-0.036c-0.031,-0.024 -0.056,-0.054 -0.074,-0.091c-0.018,-0.037 -0.03,-0.076 -0.037,-0.119c-0.007,-0.043 -0.01,-0.083 -0.01,-0.12Zm0.096,0c-0,0.023 0.001,0.051 0.004,0.083c0.003,0.032 0.01,0.063 0.02,0.092c0.01,0.03 0.025,0.055 0.044,0.076c0.02,0.021 0.047,0.031 0.08,0.031c0.033,-0 0.06,-0.01 0.079,-0.031c0.02,-0.021 0.035,-0.046 0.045,-0.076c0.01,-0.029 0.017,-0.06 0.019,-0.092c0.003,-0.032 0.005,-0.06 0.005,-0.083c-0,-0.016 -0.001,-0.034 -0.002,-0.055c-0.001,-0.02 -0.003,-0.041 -0.007,-0.062c-0.003,-0.021 -0.008,-0.041 -0.015,-0.061c-0.007,-0.019 -0.016,-0.037 -0.027,-0.052c-0.011,-0.016 -0.024,-0.029 -0.04,-0.038c-0.016,-0.009 -0.035,-0.014 -0.057,-0.014c-0.022,0 -0.041,0.005 -0.057,0.014c-0.016,0.009 -0.03,0.022 -0.041,0.038c-0.011,0.015 -0.019,0.033 -0.026,0.053c-0.007,0.019 -0.012,0.04 -0.016,0.061c-0.003,0.021 -0.006,0.041 -0.007,0.062c-0.001,0.02 -0.001,0.038 -0.001,0.054Z" style="fill:rgb(183,136,62);fill-rule:nonzero;stroke:rgb(255,169,0);stroke-width:0.01px;stroke-linecap:butt;stroke-miterlimit:2;"/>
        </g>
    </g>
    <g transform="matrix(1,0,0,1,-1282.85,-182.056)">
        <g transform="matrix(73.8877,0,0,73.8877,1775.29,1333.97)">
            <path d="M0.458,-0.634l-0.123,0c-0.028,0 -0.051,0.003 -0.07,0.009c-0.019,0.006 -0.034,0.015 -0.046,0.026c-0.023,0.023 -0.035,0.05 -0.034,0.081c0.001,0.042 0.018,0.071 0.052,0.088c0.032,0.017 0.069,0.025 0.111,0.024l0.08,0l-0,0.072l-0.14,0c-0.014,0 -0.029,0.002 -0.046,0.006c-0.016,0.005 -0.032,0.012 -0.046,0.022c-0.015,0.01 -0.027,0.023 -0.036,0.039c-0.01,0.017 -0.015,0.037 -0.015,0.061c0.001,0.052 0.018,0.086 0.053,0.103c0.033,0.017 0.076,0.026 0.13,0.025c0.026,-0 0.048,0.001 0.068,0.002c0.019,0.002 0.036,0.007 0.05,0.013c0.014,0.007 0.025,0.017 0.033,0.032c0.007,0.016 0.01,0.036 0.01,0.062c-0.001,0.025 -0.005,0.052 -0.012,0.081c-0.008,0.028 -0.018,0.056 -0.029,0.084l-0.08,-0c0.011,-0.025 0.021,-0.051 0.03,-0.077c0.009,-0.026 0.013,-0.051 0.013,-0.074c0.001,-0.021 -0.007,-0.034 -0.022,-0.039c-0.016,-0.005 -0.048,-0.007 -0.094,-0.006c-0.08,-0.001 -0.14,-0.019 -0.18,-0.056c-0.04,-0.036 -0.06,-0.082 -0.06,-0.138c0.002,-0.105 0.056,-0.165 0.161,-0.181l-0,-0.002c-0.034,-0.009 -0.062,-0.023 -0.085,-0.042c-0.023,-0.019 -0.035,-0.046 -0.036,-0.084c0,-0.028 0.009,-0.053 0.025,-0.075c0.015,-0.022 0.033,-0.04 0.056,-0.054l-0,-0.002l-0.102,0l0,-0.072l0.384,-0l0,0.072Z" style="fill:rgb(183,136,62);fill-rule:nonzero;stroke:rgb(255,169,0);stroke-width:0.01px;stroke-linecap:butt;stroke-miterlimit:2;"/>
        </g>
        <g transform="matrix(73.8877,0,0,73.8877,1832.77,1333.97)">
            <path d="M0.6,-0.42l0,0.078l-0.534,-0l0,-0.078l0.534,0Zm0,0.157l0,0.078l-0.534,0l0,-0.078l0.534,0Z" style="fill:rgb(183,136,62);fill-rule:nonzero;stroke:rgb(255,169,0);stroke-width:0.01px;stroke-linecap:butt;stroke-miterlimit:2;"/>
        </g>
        <g transform="matrix(73.8877,0,0,73.8877,1902.52,1333.97)">
            <path d="M0.034,-0.354c0,-0.026 0.001,-0.053 0.004,-0.081c0.003,-0.028 0.008,-0.055 0.014,-0.082c0.007,-0.028 0.017,-0.053 0.028,-0.078c0.012,-0.025 0.027,-0.046 0.046,-0.065c0.018,-0.018 0.04,-0.033 0.065,-0.044c0.025,-0.011 0.054,-0.016 0.087,-0.016c0.033,-0 0.063,0.005 0.087,0.016c0.025,0.011 0.047,0.026 0.065,0.044c0.019,0.019 0.034,0.04 0.045,0.065c0.012,0.025 0.021,0.05 0.029,0.078c0.007,0.027 0.011,0.054 0.014,0.082c0.003,0.028 0.004,0.055 0.004,0.081c0,0.037 -0.003,0.077 -0.01,0.12c-0.007,0.043 -0.019,0.082 -0.037,0.119c-0.018,0.037 -0.043,0.067 -0.075,0.091c-0.031,0.024 -0.072,0.036 -0.122,0.036c-0.05,-0 -0.091,-0.012 -0.123,-0.036c-0.031,-0.024 -0.056,-0.054 -0.074,-0.091c-0.018,-0.037 -0.03,-0.076 -0.037,-0.119c-0.007,-0.043 -0.01,-0.083 -0.01,-0.12Zm0.096,0c-0,0.023 0.001,0.051 0.004,0.083c0.003,0.032 0.01,0.063 0.02,0.092c0.01,0.03 0.025,0.055 0.044,0.076c0.02,0.021 0.047,0.031 0.08,0.031c0.033,-0 0.06,-0.01 0.079,-0.031c0.02,-0.021 0.035,-0.046 0.045,-0.076c0.01,-0.029 0.017,-0.06 0.019,-0.092c0.003,-0.032 0.005,-0.06 0.005,-0.083c-0,-0.016 -0.001,-0.034 -0.002,-0.055c-0.001,-0.02 -0.003,-0.041 -0.007,-0.062c-0.003,-0.021 -0.008,-0.041 -0.015,-0.061c-0.007,-0.019 -0.016,-0.037 -0.027,-0.052c-0.011,-0.016 -0.024,-0.029 -0.04,-0.038c-0.016,-0.009 -0.035,-0.014 -0.057,-0.014c-0.022,0 -0.041,0.005 -0.057,0.014c-0.016,0.009 -0.03,0.022 -0.041,0.038c-0.011,0.015 -0.019,0.033 -0.026,0.053c-0.007,0.019 -0.012,0.04 -0.016,0.061c-0.003,0.021 -0.006,0.041 -0.007,0.062c-0.001,0.02 -0.001,0.038 -0.001,0.054Z" style="fill:rgb(183,136,62);fill-rule:nonzero;stroke:rgb(255,169,0);stroke-width:0.01px;stroke-linecap:butt;stroke-miterlimit:2;"/>
        </g>
    </g>
</svg>
