<svg width="220" height="191" xmlns="http://www.w3.org/2000/svg" xmlns:xlink="http://www.w3.org/1999/xlink" xml:space="preserve" overflow="hidden"><defs><clipPath id="clip0"><rect x="95" y="515" width="220" height="191"/></clipPath></defs><g clip-path="url(#clip0)" transform="translate(-95 -515)"><path d="M15.427 1.49864 13.2583 7.39488C13.7815 7.01939 14.3788 6.7955 14.9864 6.72049L14.9864 175.886 213.331 175.886C213.258 176.493 213.03 177.084 212.652 177.596L218.548 175.428 212.658 173.27C213.034 173.794 213.258 174.389 213.333 174.997L15.8875 174.997 15.8875 6.73068C16.494 6.80438 17.0828 7.02684 17.5969 7.40507Z" transform="matrix(1 0 0 1.00275 95 515)"/><path d="M74.8168 45.8703C74.8168 48.4411 72.7328 50.5251 70.162 50.5251 67.5913 50.5251 65.5072 48.4411 65.5072 45.8703 65.5072 43.2995 67.5913 41.2155 70.162 41.2155 72.7328 41.2155 74.8168 43.2995 74.8168 45.8703Z" transform="matrix(1 0 0 1.00275 95 515)"/><path d="M74.8168 45.8703C74.8168 48.4411 72.7328 50.5251 70.162 50.5251 67.5913 50.5251 65.5072 48.4411 65.5072 45.8703 65.5072 43.2995 67.5913 41.2155 70.162 41.2155 72.7328 41.2155 74.8168 43.2995 74.8168 45.8703Z" transform="matrix(1 0 0 1.00275 75.8504 534.276)"/><path d="M74.8168 45.8703C74.8168 48.4411 72.7328 50.5251 70.162 50.5251 67.5913 50.5251 65.5072 48.4411 65.5072 45.8703 65.5072 43.2995 67.5913 41.2155 70.162 41.2155 72.7328 41.2155 74.8168 43.2995 74.8168 45.8703Z" transform="matrix(1 0 0 1.00275 75.6346 501.776)"/><path d="M74.8168 45.8703C74.8168 48.4411 72.7328 50.5251 70.162 50.5251 67.5913 50.5251 65.5072 48.4411 65.5072 45.8703 65.5072 43.2995 67.5913 41.2155 70.162 41.2155 72.7328 41.2155 74.8168 43.2995 74.8168 45.8703Z" transform="matrix(1 0 0 1.00275 90.9822 490.254)"/><path d="M74.8168 45.8703C74.8168 48.4411 72.7328 50.5251 70.162 50.5251 67.5913 50.5251 65.5072 48.4411 65.5072 45.8703 65.5072 43.2995 67.5913 41.2155 70.162 41.2155 72.7328 41.2155 74.8168 43.2995 74.8168 45.8703Z" transform="matrix(1 0 0 1.00275 108.987 495.813)"/><path d="M74.8168 45.8703C74.8168 48.4411 72.7328 50.5251 70.162 50.5251 67.5913 50.5251 65.5072 48.4411 65.5072 45.8703 65.5072 43.2995 67.5913 41.2155 70.162 41.2155 72.7328 41.2155 74.8168 43.2995 74.8168 45.8703Z" transform="matrix(1 0 0 1.00275 119.74 509.465)"/><path d="M74.8168 45.8703C74.8168 48.4411 72.7328 50.5251 70.162 50.5251 67.5913 50.5251 65.5072 48.4411 65.5072 45.8703 65.5072 43.2995 67.5913 41.2155 70.162 41.2155 72.7328 41.2155 74.8168 43.2995 74.8168 45.8703Z" transform="matrix(1 0 0 1.00275 117.965 538.144)"/><path d="M74.8168 45.8703C74.8168 48.4411 72.7328 50.5251 70.162 50.5251 67.5913 50.5251 65.5072 48.4411 65.5072 45.8703 65.5072 43.2995 67.5913 41.2155 70.162 41.2155 72.7328 41.2155 74.8168 43.2995 74.8168 45.8703Z" transform="matrix(1 0 0 1.00275 90.9837 544.089)"/><path d="M116.619 148.915C116.619 151.486 114.535 153.57 111.965 153.57 109.394 153.57 107.31 151.486 107.31 148.915 107.31 146.344 109.394 144.26 111.965 144.26 114.535 144.26 116.619 146.344 116.619 148.915Z" stroke="#000000" stroke-width="0.749319" fill="none" transform="matrix(1 0 0 1.00275 95 515)"/><path d="M116.619 148.915C116.619 151.486 114.535 153.57 111.965 153.57 109.394 153.57 107.31 151.486 107.31 148.915 107.31 146.344 109.394 144.26 111.965 144.26 114.535 144.26 116.619 146.344 116.619 148.915Z" stroke="#000000" stroke-width="0.749319" fill="none" transform="matrix(1 0 0 1.00275 122.176 511.694)"/><path d="M116.619 148.915C116.619 151.486 114.535 153.57 111.965 153.57 109.394 153.57 107.31 151.486 107.31 148.915 107.31 146.344 109.394 144.26 111.965 144.26 114.535 144.26 116.619 146.344 116.619 148.915Z" stroke="#000000" stroke-width="0.749319" fill="none" transform="matrix(1 0 0 1.00275 132.118 474.426)"/><path d="M116.619 148.915C116.619 151.486 114.535 153.57 111.965 153.57 109.394 153.57 107.31 151.486 107.31 148.915 107.31 146.344 109.394 144.26 111.965 144.26 114.535 144.26 116.619 146.344 116.619 148.915Z" stroke="#000000" stroke-width="0.749319" fill="none" transform="matrix(1 0 0 1.00275 137.413 517.705)"/><path d="M116.619 148.915C116.619 151.486 114.535 153.57 111.965 153.57 109.394 153.57 107.31 151.486 107.31 148.915 107.31 146.344 109.394 144.26 111.965 144.26 114.535 144.26 116.619 146.344 116.619 148.915Z" stroke="#000000" stroke-width="0.749319" fill="none" transform="matrix(1 0 0 1.00275 152.9 492.308)"/><path d="M116.619 148.915C116.619 151.486 114.535 153.57 111.965 153.57 109.394 153.57 107.31 151.486 107.31 148.915 107.31 146.344 109.394 144.26 111.965 144.26 114.535 144.26 116.619 146.344 116.619 148.915Z" stroke="#000000" stroke-width="0.749319" fill="none" transform="matrix(1 0 0 1.00275 153.4 463.606)"/><path d="M116.619 148.915C116.619 151.486 114.535 153.57 111.965 153.57 109.394 153.57 107.31 151.486 107.31 148.915 107.31 146.344 109.394 144.26 111.965 144.26 114.535 144.26 116.619 146.344 116.619 148.915Z" stroke="#000000" stroke-width="0.749319" fill="none" transform="matrix(1 0 0 1.00275 170.384 484.644)"/><path d="M116.619 148.915C116.619 151.486 114.535 153.57 111.965 153.57 109.394 153.57 107.31 151.486 107.31 148.915 107.31 146.344 109.394 144.26 111.965 144.26 114.535 144.26 116.619 146.344 116.619 148.915Z" stroke="#000000" stroke-width="0.749319" fill="none" transform="matrix(1 0 0 1.00275 189.019 494.563)"/><path d="M111.948 148.915 103.856 148.915" stroke="#000000" stroke-width="0.149864" fill="none" transform="matrix(1 0 0 1.00275 95 515)"/><path d="M94.9012 40.3508 103.856 40.3508" stroke="#000000" stroke-width="0.149864" fill="none" transform="matrix(1 0 0 1.00275 95 515)"/><path d="M93.1268 68.9493 117.495 92.2277" stroke="#000000" stroke-width="0.149864" fill="none" transform="matrix(1 0 0 1.00275 95 515)"/><path d="M124.387 84.8843 149.066 108.452" stroke="#000000" stroke-width="0.149864" fill="none" transform="matrix(1 0 0 1.00275 95 515)"/><path d="M101.811 170.455 52.0098 7.26869" stroke="#09AB15" stroke-width="0.599455" fill="none" transform="matrix(1 0 0 1.00275 95 515)"/><path d="M104.005 7.26869 103.919 170.455" stroke="#008AFF" stroke-width="0.599455" fill="none" transform="matrix(1 0 0 1.00275 95 515)"/><path d="M42.4564 170.455 198.495 7.26869" stroke="#FF0000" stroke-width="0.599455" fill="none" transform="matrix(1 0 0 1.00275 95 515)"/><text font-family="Arial,Arial_MSFontService,sans-serif" font-weight="400" font-size="48" transform="matrix(0.149864 0 0 0.150275 136.429 527)">H</text><text font-family="Arial,Arial_MSFontService,sans-serif" font-weight="400" font-size="31" transform="matrix(0.149864 0 0 0.150275 141.674 529)">1</text><text font-family="Arial,Arial_MSFontService,sans-serif" font-weight="400" font-size="48" transform="matrix(0.149864 0 0 0.150275 188.035 527)">H</text><text font-family="Arial,Arial_MSFontService,sans-serif" font-weight="400" font-size="31" transform="matrix(0.149864 0 0 0.150275 193.28 529)">2</text><text font-family="Arial,Arial_MSFontService,sans-serif" font-weight="400" font-size="48" transform="matrix(0.149864 0 0 0.150275 274.624 527)">H</text><text font-family="Arial,Arial_MSFontService,sans-serif" font-weight="400" font-size="31" transform="matrix(0.149864 0 0 0.150275 279.869 529)">3</text><text font-family="Arial,Arial_MSFontService,sans-serif" font-weight="400" font-size="64" transform="matrix(0.149864 0 0 0.150275 298.319 703)">X</text><text font-family="Arial,Arial_MSFontService,sans-serif" font-weight="400" font-size="42" transform="matrix(0.149864 0 0 0.150275 304.463 705)">1</text><text font-family="Arial,Arial_MSFontService,sans-serif" font-weight="400" font-size="64" transform="matrix(0.149864 0 0 0.150275 96.213 529)">X</text><text font-family="Arial,Arial_MSFontService,sans-serif" font-weight="400" font-size="42" transform="matrix(0.149864 0 0 0.150275 102.357 531)">2</text></g></svg>