<svg width="605" height="385" xmlns="http://www.w3.org/2000/svg" xmlns:xlink="http://www.w3.org/1999/xlink" xml:space="preserve" overflow="hidden"><g><path d="M358.954 299.917 657.821 299.917 657.821 598.784 358.954 598.784Z" stroke="#000000" stroke-width="6.20389" stroke-linecap="round" stroke-linejoin="round" stroke-miterlimit="1.5" fill="none" fill-rule="evenodd" transform="matrix(1 0 0 1.00073 -355.852 -217.609)"/><path d="M417.976 540.09C417.976 541.653 416.709 542.92 415.146 542.92 413.583 542.92 412.316 541.653 412.316 540.09 412.316 538.527 413.583 537.26 415.146 537.26 416.709 537.26 417.976 538.527 417.976 540.09Z" stroke="#1F1FC2" stroke-width="6.20389" stroke-linecap="round" stroke-linejoin="round" stroke-miterlimit="1.5" fill="#3529C6" fill-rule="evenodd" transform="matrix(1 0 0 1.00073 -355.669 -197.131)"/><path d="M417.976 540.09C417.976 541.653 416.709 542.92 415.146 542.92 413.583 542.92 412.316 541.653 412.316 540.09 412.316 538.527 413.583 537.26 415.146 537.26 416.709 537.26 417.976 538.527 417.976 540.09Z" stroke="#1F1FC2" stroke-width="6.20389" stroke-linecap="round" stroke-linejoin="round" stroke-miterlimit="1.5" fill="#3529C6" fill-rule="evenodd" transform="matrix(1 0 0 1.00073 -166.799 -432.921)"/><path d="M417.976 540.09C417.976 541.653 416.709 542.92 415.146 542.92 413.583 542.92 412.316 541.653 412.316 540.09 412.316 538.527 413.583 537.26 415.146 537.26 416.709 537.26 417.976 538.527 417.976 540.09Z" stroke="#1F1FC2" stroke-width="6.20389" stroke-linecap="round" stroke-linejoin="round" stroke-miterlimit="1.5" fill="#3529C6" fill-rule="evenodd" transform="matrix(1 0 0 1.00073 -375.806 -412.001)"/><path d="M417.976 540.09C417.976 541.653 416.709 542.92 415.146 542.92 413.583 542.92 412.316 541.653 412.316 540.09 412.316 538.527 413.583 537.26 415.146 537.26 416.709 537.26 417.976 538.527 417.976 540.09Z" stroke="#1F1FC2" stroke-width="6.20389" stroke-linecap="round" stroke-linejoin="round" stroke-miterlimit="1.5" fill="#3529C6" fill-rule="evenodd" transform="matrix(1 0 0 1.00073 -227.032 -346.815)"/><path d="M417.976 540.09C417.976 541.653 416.709 542.92 415.146 542.92 413.583 542.92 412.316 541.653 412.316 540.09 412.316 538.527 413.583 537.26 415.146 537.26 416.709 537.26 417.976 538.527 417.976 540.09Z" stroke="#1F1FC2" stroke-width="6.20389" stroke-linecap="round" stroke-linejoin="round" stroke-miterlimit="1.5" fill="#3529C6" fill-rule="evenodd" transform="matrix(1 0 0 1.00073 -135.727 -398.646)"/><path d="M498.118 300.624 498.118 598.203" stroke="#000000" stroke-width="6.20389" stroke-linecap="round" stroke-linejoin="round" stroke-miterlimit="1.5" fill="none" fill-rule="evenodd" transform="matrix(1 0 0 1.00073 -348.383 -217.609)"/><path d="M348.612 438.067 643.825 438.067" stroke="#000000" stroke-width="6.20567" stroke-linecap="round" stroke-linejoin="round" stroke-miterlimit="1.5" fill="none" fill-rule="evenodd" transform="matrix(1 0 0 1.00073 -343.886 -207.485)"/><path d="M501.907 374.898 650.633 374.898" stroke="#000000" stroke-width="6.20203" stroke-linecap="round" stroke-linejoin="round" stroke-miterlimit="1.5" fill="none" fill-rule="evenodd" transform="matrix(1 0 0 1.00073 -349.154 -216.585)"/><path d="M578.857 300.718 578.857 446.24" stroke="#000000" stroke-width="6.20389" stroke-linecap="round" stroke-linejoin="round" stroke-miterlimit="1.5" fill="none" fill-rule="evenodd" transform="matrix(1 0 0 1.00073 -351.559 -217.609)"/><path d="M620.099 375.409 620.099 300.488" stroke="#000000" stroke-width="6.20389" stroke-linecap="round" stroke-linejoin="round" stroke-miterlimit="1.5" fill="none" fill-rule="evenodd" transform="matrix(1 0 0 1.00073 -355.852 -217.609)"/><path d="M584.045 339.059 657.282 339.059" stroke="#000000" stroke-width="6.20389" stroke-linecap="round" stroke-linejoin="round" stroke-miterlimit="1.5" fill="none" fill-rule="evenodd" transform="matrix(1 0 0 1.00073 -355.852 -219.011)"/><path d="M580.322 298.449 655.098 298.449 655.098 373.224 580.322 373.224Z" stroke="#FF0028" stroke-width="6.19078" stroke-linecap="round" stroke-linejoin="round" stroke-miterlimit="1.5" fill="none" fill-rule="evenodd" transform="matrix(1 0 0 1.00498 -353.069 -217.609)"/><path d="M3.64608-1.52305 6.87678-1.52305C8.12291-1.52305 9.2075-1.70766 10.1306-2.09996 11.0305-2.46918 11.7921-2.97686 12.4151-3.59992 13.0151-4.22299 13.4536-4.91528 13.7536-5.72296 14.0536-6.50756 14.192-7.31523 14.192-8.16906 14.192-9.02289 14.0536-9.83056 13.7536-10.6382 13.4536-11.4228 13.0151-12.1382 12.4151-12.7613 11.7921-13.3843 11.0305-13.8689 10.1306-14.2612 9.2075-14.6305 8.12291-14.8151 6.87678-14.8151L3.64608-14.8151 3.64608-1.52305ZM1.98457-16.3381 7.40754-16.3381C8.4229-16.3381 9.43826-16.1766 10.4767-15.8304 11.4921-15.4843 12.4151-14.9766 13.2459-14.3074 14.0536-13.6151 14.7228-12.7613 15.2305-11.7459 15.7381-10.7075 15.992-9.53057 15.992-8.16906 15.992-6.80755 15.7381-5.60757 15.2305-4.59221 14.7228-3.57685 14.0536-2.72302 13.2459-2.0538 12.4151-1.36151 11.4921-0.853828 10.4767-0.507682 9.43826-0.161535 8.4229 0 7.40754 0L1.98457 0 1.98457-16.3381Z" transform="matrix(1 0 0 1.00073 167.476 17.4586)"/><path d="M10.9152-5.39989C10.9152-5.99987 10.8229-6.55371 10.6382-7.08447 10.4306-7.61523 10.1536-8.05368 9.80749-8.44598 9.46134-8.83828 9.02289-9.13827 8.53828-9.36903 8.0306-9.57672 7.45369-9.69211 6.83063-9.69211 6.20756-9.69211 5.63065-9.57672 5.14605-9.36903 4.63836-9.13827 4.22299-8.83828 3.87684-8.44598 3.5307-8.05368 3.25378-7.61523 3.06917-7.08447 2.86148-6.55371 2.76917-5.99987 2.76917-5.39989 2.76917-4.7999 2.86148-4.24607 3.06917-3.71531 3.25378-3.18455 3.5307-2.7461 3.87684-2.3538 4.22299-1.9615 4.63836-1.6615 5.14605-1.45382 5.63065-1.22305 6.20756-1.10767 6.83063-1.10767 7.45369-1.10767 8.0306-1.22305 8.53828-1.45382 9.02289-1.6615 9.46134-1.9615 9.80749-2.3538 10.1536-2.7461 10.4306-3.18455 10.6382-3.71531 10.8229-4.24607 10.9152-4.7999 10.9152-5.39989ZM12.5767-5.39989C12.5767-4.59221 12.4382-3.83069 12.1613-3.1384 11.8613-2.4461 11.469-1.84612 10.9613-1.33843 10.4536-0.830752 9.85364-0.438452 9.16135-0.161535 8.44598 0.138459 7.68445 0.276917 6.83063 0.276917 5.99987 0.276917 5.23835 0.138459 4.54606-0.161535 3.83069-0.438452 3.2307-0.830752 2.72302-1.33843 2.21534-1.84612 1.82304-2.4461 1.54612-3.1384 1.24613-3.83069 1.10767-4.59221 1.10767-5.39989 1.10767-6.20756 1.24613-6.96908 1.54612-7.66138 1.82304-8.35367 2.21534-8.95366 2.72302-9.46134 3.2307-9.96902 3.83069-10.3613 4.54606-10.6613 5.23835-10.9382 5.99987-11.0767 6.83063-11.0767 7.68445-11.0767 8.44598-10.9382 9.16135-10.6613 9.85364-10.3613 10.4536-9.96902 10.9613-9.46134 11.469-8.95366 11.8613-8.35367 12.1613-7.66138 12.4382-6.96908 12.5767-6.20756 12.5767-5.39989Z" transform="matrix(1 0 0 1.00073 184.575 17.4586)"/><path d="M2.12303-10.7998 4.61529-2.03073 4.66144-2.03073 7.546-10.7998 9.11519-10.7998 11.9997-2.03073 12.0459-2.03073 14.5382-10.7998 16.3381-10.7998 12.9228 0 11.2151 0 8.35367-8.86135 8.30752-8.86135 5.44604 0 3.73838 0 0.32307-10.7998 2.12303-10.7998Z" transform="matrix(1 0 0 1.00073 204.672 17.4586)"/><path d="M10.0613-6.23064C10.0613-7.26908 9.76133-8.09983 9.13827-8.74597 8.51521-9.36903 7.66138-9.69211 6.55371-9.69211 6.0691-9.69211 5.5845-9.5998 5.12297-9.41519 4.66144-9.2075 4.26914-8.95366 3.923-8.63059 3.57685-8.30752 3.27685-7.9383 3.09224-7.52292 2.88456-7.10754 2.76917-6.66909 2.76917-6.23064L10.0613-6.23064ZM2.72302-4.98451C2.76917-4.45375 2.90763-3.94607 3.11532-3.46147 3.32301-2.97686 3.623-2.58456 3.96915-2.23841 4.31529-1.89227 4.73067-1.61535 5.1922-1.40766 5.65373-1.19997 6.16141-1.10767 6.69217-1.10767 7.49984-1.10767 8.21521-1.29228 8.8152-1.68458 9.39211-2.0538 9.85364-2.49226 10.1536-2.97686L11.3305-2.00765C10.6844-1.19997 9.96902-0.599987 9.2075-0.253841 8.4229 0.0923058 7.59215 0.276917 6.69217 0.276917 5.88449 0.276917 5.14605 0.138459 4.47683-0.161535 3.78454-0.438452 3.18455-0.830752 2.69994-1.33843 2.21534-1.84612 1.82304-2.4461 1.54612-3.1384 1.24613-3.83069 1.10767-4.59221 1.10767-5.39989 1.10767-6.20756 1.24613-6.96908 1.52305-7.66138 1.79996-8.35367 2.19226-8.95366 2.67687-9.46134 3.16147-9.96902 3.73838-10.3613 4.4076-10.6613 5.07682-10.9382 5.79219-11.0767 6.55371-11.0767 7.36138-11.0767 8.09983-10.9382 8.74597-10.6382 9.39211-10.3382 9.94595-9.96902 10.3844-9.48442 10.7998-8.99981 11.1459-8.4229 11.3767-7.77676 11.6075-7.10754 11.7228-6.41525 11.7228-5.6768L11.7228-4.98451 2.72302-4.98451Z" transform="matrix(1 0 0 1.00073 221.336 17.4586)"/><path d="M1.6615-17.4458 3.18455-17.4458 3.18455-9.06904 3.2307-9.06904C3.39224-9.36903 3.623-9.62288 3.87684-9.87672 4.13068-10.1306 4.43068-10.3382 4.75375-10.5229 5.07682-10.6844 5.42296-10.8229 5.79219-10.9382 6.13833-11.0305 6.50756-11.0767 6.8537-11.0767 8.23829-11.0767 9.25365-10.7075 9.92287-9.9921 10.5921-9.25365 10.9152-8.21521 10.9152-6.8537L10.9152 0 9.39211 0 9.39211-5.9768C9.39211-7.17677 9.18442-8.09983 8.76905-8.74597 8.35367-9.36903 7.59215-9.69211 6.4614-9.69211 6.39217-9.69211 6.16141-9.66903 5.81526-9.5998 5.46912-9.53057 5.09989-9.36903 4.70759-9.09212 4.31529-8.8152 3.94607-8.39982 3.64608-7.84599 3.34608-7.29216 3.18455-6.53063 3.18455-5.53835L3.18455 0 1.6615 0 1.6615-17.4458Z" transform="matrix(1 0 0 1.00073 240.581 17.4586)"/><path d="M7.79984-5.37681C7.40754-5.37681 6.94601-5.35373 6.3691-5.33066 5.79219-5.2845 5.23835-5.1922 4.70759-5.05374 4.17684-4.89221 3.71531-4.66144 3.34608-4.36145 2.95378-4.06145 2.76917-3.623 2.76917-3.09224 2.76917-2.7461 2.8384-2.4461 2.99994-2.19226 3.1384-1.93842 3.32301-1.73073 3.57685-1.5692 3.83069-1.40766 4.10761-1.29228 4.4076-1.22305 4.70759-1.13075 5.00759-1.10767 5.30758-1.10767 5.86142-1.10767 6.34602-1.19997 6.7614-1.38459 7.1537-1.5692 7.49984-1.82304 7.77676-2.14611 8.05368-2.4461 8.26137-2.81533 8.39982-3.25378 8.51521-3.66915 8.58444-4.10761 8.58444-4.59221L8.58444-5.37681 7.79984-5.37681ZM8.58444-6.62294 8.58444-6.89986C8.58444-8.76905 7.66138-9.69211 5.81526-9.69211 4.54606-9.69211 3.46147-9.27673 2.51533-8.4229L1.59227-9.50749C2.60764-10.5459 4.13068-11.0767 6.16141-11.0767 6.69217-11.0767 7.19985-11.0075 7.68445-10.8459 8.16906-10.6844 8.58444-10.4536 8.93058-10.1536 9.27673-9.83056 9.57672-9.43826 9.78441-8.95366 9.9921-8.46905 10.1075-7.91522 10.1075-7.246L10.1075-2.42303C10.1075-2.00765 10.1306-1.5692 10.1767-1.13075 10.1998-0.669217 10.2459-0.299994 10.2921 0L8.8152 0C8.76905-0.253841 8.74597-0.553835 8.72289-0.853828 8.69982-1.15382 8.67674-1.45382 8.67674-1.75381L8.63059-1.75381C8.19214-1.03844 7.66138-0.507682 7.06139-0.207688 6.43833 0.115382 5.69988 0.276917 4.82298 0.276917 4.33837 0.276917 3.87684 0.207688 3.43839 0.0923058 2.99994-0.0461529 2.60764-0.253841 2.26149-0.530758 1.91534-0.784599 1.61535-1.13075 1.43074-1.52305 1.22305-1.91534 1.10767-2.3538 1.10767-2.88456 1.10767-3.76146 1.33843-4.45375 1.79996-4.96143 2.23841-5.44604 2.81533-5.81526 3.50762-6.0691 4.17684-6.32294 4.91528-6.4614 5.69988-6.53063 6.4614-6.59986 7.17677-6.62294 7.82291-6.62294L8.58444-6.62294Z" transform="matrix(1 0 0 1.00073 253.411 17.4586)"/><path d="M6.41525 0 4.70759 0 0.32307-10.7998 2.14611-10.7998 5.5845-1.70766 5.63065-1.70766 9.06904-10.7998 10.7998-10.7998 6.41525 0Z" transform="matrix(1 0 0 1.00073 265.388 17.4586)"/><path d="M10.0613-6.23064C10.0613-7.26908 9.76133-8.09983 9.13827-8.74597 8.51521-9.36903 7.66138-9.69211 6.55371-9.69211 6.0691-9.69211 5.5845-9.5998 5.12297-9.41519 4.66144-9.2075 4.26914-8.95366 3.923-8.63059 3.57685-8.30752 3.27685-7.9383 3.09224-7.52292 2.88456-7.10754 2.76917-6.66909 2.76917-6.23064L10.0613-6.23064ZM2.72302-4.98451C2.76917-4.45375 2.90763-3.94607 3.11532-3.46147 3.32301-2.97686 3.623-2.58456 3.96915-2.23841 4.31529-1.89227 4.73067-1.61535 5.1922-1.40766 5.65373-1.19997 6.16141-1.10767 6.69217-1.10767 7.49984-1.10767 8.21521-1.29228 8.8152-1.68458 9.39211-2.0538 9.85364-2.49226 10.1536-2.97686L11.3305-2.00765C10.6844-1.19997 9.96902-0.599987 9.2075-0.253841 8.4229 0.0923058 7.59215 0.276917 6.69217 0.276917 5.88449 0.276917 5.14605 0.138459 4.47683-0.161535 3.78454-0.438452 3.18455-0.830752 2.69994-1.33843 2.21534-1.84612 1.82304-2.4461 1.54612-3.1384 1.24613-3.83069 1.10767-4.59221 1.10767-5.39989 1.10767-6.20756 1.24613-6.96908 1.52305-7.66138 1.79996-8.35367 2.19226-8.95366 2.67687-9.46134 3.16147-9.96902 3.73838-10.3613 4.4076-10.6613 5.07682-10.9382 5.79219-11.0767 6.55371-11.0767 7.36138-11.0767 8.09983-10.9382 8.74597-10.6382 9.39211-10.3382 9.94595-9.96902 10.3844-9.48442 10.7998-8.99981 11.1459-8.4229 11.3767-7.77676 11.6075-7.10754 11.7228-6.41525 11.7228-5.6768L11.7228-4.98451 2.72302-4.98451Z" transform="matrix(1 0 0 1.00073 276.512 17.4586)"/><path d="M7.246-9.41519 4.13068-9.41519 4.13068-3.04609C4.13068-2.65379 4.17684-2.30764 4.24607-2.07688 4.31529-1.82304 4.43068-1.61535 4.56914-1.47689 4.70759-1.33843 4.86913-1.24613 5.07682-1.19997 5.26143-1.13075 5.46912-1.10767 5.69988-1.10767 5.95372-1.10767 6.23064-1.15382 6.50756-1.22305 6.78447-1.29228 7.03831-1.40766 7.26908-1.52305L7.33831-0.115382C6.7614 0.138459 6.09218 0.276917 5.2845 0.276917 4.98451 0.276917 4.68452 0.230764 4.38452 0.161535 4.06145 0.0923058 3.76146-0.0692293 3.50762-0.276917 3.25378-0.484605 3.02301-0.784599 2.86148-1.15382 2.69994-1.52305 2.60764-2.00765 2.60764-2.60764L2.60764-9.41519 0.32307-9.41519 0.32307-10.7998 2.60764-10.7998 2.60764-13.8459 4.13068-13.8459 4.13068-10.7998 7.246-10.7998 7.246-9.41519Z" transform="matrix(1 0 0 1.00073 295.757 17.4586)"/><path d="M10.9152-5.39989C10.9152-5.99987 10.8229-6.55371 10.6382-7.08447 10.4306-7.61523 10.1536-8.05368 9.80749-8.44598 9.46134-8.83828 9.02289-9.13827 8.53828-9.36903 8.0306-9.57672 7.45369-9.69211 6.83063-9.69211 6.20756-9.69211 5.63065-9.57672 5.14605-9.36903 4.63836-9.13827 4.22299-8.83828 3.87684-8.44598 3.5307-8.05368 3.25378-7.61523 3.06917-7.08447 2.86148-6.55371 2.76917-5.99987 2.76917-5.39989 2.76917-4.7999 2.86148-4.24607 3.06917-3.71531 3.25378-3.18455 3.5307-2.7461 3.87684-2.3538 4.22299-1.9615 4.63836-1.6615 5.14605-1.45382 5.63065-1.22305 6.20756-1.10767 6.83063-1.10767 7.45369-1.10767 8.0306-1.22305 8.53828-1.45382 9.02289-1.6615 9.46134-1.9615 9.80749-2.3538 10.1536-2.7461 10.4306-3.18455 10.6382-3.71531 10.8229-4.24607 10.9152-4.7999 10.9152-5.39989ZM12.5767-5.39989C12.5767-4.59221 12.4382-3.83069 12.1613-3.1384 11.8613-2.4461 11.469-1.84612 10.9613-1.33843 10.4536-0.830752 9.85364-0.438452 9.16135-0.161535 8.44598 0.138459 7.68445 0.276917 6.83063 0.276917 5.99987 0.276917 5.23835 0.138459 4.54606-0.161535 3.83069-0.438452 3.2307-0.830752 2.72302-1.33843 2.21534-1.84612 1.82304-2.4461 1.54612-3.1384 1.24613-3.83069 1.10767-4.59221 1.10767-5.39989 1.10767-6.20756 1.24613-6.96908 1.54612-7.66138 1.82304-8.35367 2.21534-8.95366 2.72302-9.46134 3.2307-9.96902 3.83069-10.3613 4.54606-10.6613 5.23835-10.9382 5.99987-11.0767 6.83063-11.0767 7.68445-11.0767 8.44598-10.9382 9.16135-10.6613 9.85364-10.3613 10.4536-9.96902 10.9613-9.46134 11.469-8.95366 11.8613-8.35367 12.1613-7.66138 12.4382-6.96908 12.5767-6.20756 12.5767-5.39989Z" transform="matrix(1 0 0 1.00073 303.42 17.4586)"/><path d="M2.12303-10.7998 4.61529-2.03073 4.66144-2.03073 7.546-10.7998 9.11519-10.7998 11.9997-2.03073 12.0459-2.03073 14.5382-10.7998 16.3381-10.7998 12.9228 0 11.2151 0 8.35367-8.86135 8.30752-8.86135 5.44604 0 3.73838 0 0.32307-10.7998 2.12303-10.7998Z" transform="matrix(1 0 0 1.00073 167.476 40.552)"/><path d="M7.79984-5.37681C7.40754-5.37681 6.94601-5.35373 6.3691-5.33066 5.79219-5.2845 5.23835-5.1922 4.70759-5.05374 4.17684-4.89221 3.71531-4.66144 3.34608-4.36145 2.95378-4.06145 2.76917-3.623 2.76917-3.09224 2.76917-2.7461 2.8384-2.4461 2.99994-2.19226 3.1384-1.93842 3.32301-1.73073 3.57685-1.5692 3.83069-1.40766 4.10761-1.29228 4.4076-1.22305 4.70759-1.13075 5.00759-1.10767 5.30758-1.10767 5.86142-1.10767 6.34602-1.19997 6.7614-1.38459 7.1537-1.5692 7.49984-1.82304 7.77676-2.14611 8.05368-2.4461 8.26137-2.81533 8.39982-3.25378 8.51521-3.66915 8.58444-4.10761 8.58444-4.59221L8.58444-5.37681 7.79984-5.37681ZM8.58444-6.62294 8.58444-6.89986C8.58444-8.76905 7.66138-9.69211 5.81526-9.69211 4.54606-9.69211 3.46147-9.27673 2.51533-8.4229L1.59227-9.50749C2.60764-10.5459 4.13068-11.0767 6.16141-11.0767 6.69217-11.0767 7.19985-11.0075 7.68445-10.8459 8.16906-10.6844 8.58444-10.4536 8.93058-10.1536 9.27673-9.83056 9.57672-9.43826 9.78441-8.95366 9.9921-8.46905 10.1075-7.91522 10.1075-7.246L10.1075-2.42303C10.1075-2.00765 10.1306-1.5692 10.1767-1.13075 10.1998-0.669217 10.2459-0.299994 10.2921 0L8.8152 0C8.76905-0.253841 8.74597-0.553835 8.72289-0.853828 8.69982-1.15382 8.67674-1.45382 8.67674-1.75381L8.63059-1.75381C8.19214-1.03844 7.66138-0.507682 7.06139-0.207688 6.43833 0.115382 5.69988 0.276917 4.82298 0.276917 4.33837 0.276917 3.87684 0.207688 3.43839 0.0923058 2.99994-0.0461529 2.60764-0.253841 2.26149-0.530758 1.91534-0.784599 1.61535-1.13075 1.43074-1.52305 1.22305-1.91534 1.10767-2.3538 1.10767-2.88456 1.10767-3.76146 1.33843-4.45375 1.79996-4.96143 2.23841-5.44604 2.81533-5.81526 3.50762-6.0691 4.17684-6.32294 4.91528-6.4614 5.69988-6.53063 6.4614-6.59986 7.17677-6.62294 7.82291-6.62294L8.58444-6.62294Z" transform="matrix(1 0 0 1.00073 184.135 40.552)"/><path d="M2.00765-17.4458 3.5307-17.4458 3.5307 4.07137e-07 2.00765 4.07137e-07Z" transform="matrix(1 0 0 1.00073 196.112 40.552)"/><path d="M3.18455-5.93065 8.28444-10.7998 10.569-10.7998 5.1922-5.86142 11.1459 0 8.79212 0 3.18455-5.6768 3.18455 0 1.6615 0 1.6615-17.4458 3.18455-17.4458 3.18455-5.93065Z" transform="matrix(1 0 0 1.00073 201.652 40.552)"/><path d="M7.246-9.41519 4.13068-9.41519 4.13068-3.04609C4.13068-2.65379 4.17684-2.30764 4.24607-2.07688 4.31529-1.82304 4.43068-1.61535 4.56914-1.47689 4.70759-1.33843 4.86913-1.24613 5.07682-1.19997 5.26143-1.13075 5.46912-1.10767 5.69988-1.10767 5.95372-1.10767 6.23064-1.15382 6.50756-1.22305 6.78447-1.29228 7.03831-1.40766 7.26908-1.52305L7.33831-0.115382C6.7614 0.138459 6.09218 0.276917 5.2845 0.276917 4.98451 0.276917 4.68452 0.230764 4.38452 0.161535 4.06145 0.0923058 3.76146-0.0692293 3.50762-0.276917 3.25378-0.484605 3.02301-0.784599 2.86148-1.15382 2.69994-1.52305 2.60764-2.00765 2.60764-2.60764L2.60764-9.41519 0.32307-9.41519 0.32307-10.7998 2.60764-10.7998 2.60764-13.8459 4.13068-13.8459 4.13068-10.7998 7.246-10.7998 7.246-9.41519Z" transform="matrix(1 0 0 1.00073 219.191 40.552)"/><path d="M1.6615-17.4458 3.18455-17.4458 3.18455-9.06904 3.2307-9.06904C3.39224-9.36903 3.623-9.62288 3.87684-9.87672 4.13068-10.1306 4.43068-10.3382 4.75375-10.5229 5.07682-10.6844 5.42296-10.8229 5.79219-10.9382 6.13833-11.0305 6.50756-11.0767 6.8537-11.0767 8.23829-11.0767 9.25365-10.7075 9.92287-9.9921 10.5921-9.25365 10.9152-8.21521 10.9152-6.8537L10.9152 0 9.39211 0 9.39211-5.9768C9.39211-7.17677 9.18442-8.09983 8.76905-8.74597 8.35367-9.36903 7.59215-9.69211 6.4614-9.69211 6.39217-9.69211 6.16141-9.66903 5.81526-9.5998 5.46912-9.53057 5.09989-9.36903 4.70759-9.09212 4.31529-8.8152 3.94607-8.39982 3.64608-7.84599 3.34608-7.29216 3.18455-6.53063 3.18455-5.53835L3.18455 0 1.6615 0 1.6615-17.4458Z" transform="matrix(1 0 0 1.00073 226.85 40.552)"/><path d="M10.0613-6.23064C10.0613-7.26908 9.76133-8.09983 9.13827-8.74597 8.51521-9.36903 7.66138-9.69211 6.55371-9.69211 6.0691-9.69211 5.5845-9.5998 5.12297-9.41519 4.66144-9.2075 4.26914-8.95366 3.923-8.63059 3.57685-8.30752 3.27685-7.9383 3.09224-7.52292 2.88456-7.10754 2.76917-6.66909 2.76917-6.23064L10.0613-6.23064ZM2.72302-4.98451C2.76917-4.45375 2.90763-3.94607 3.11532-3.46147 3.32301-2.97686 3.623-2.58456 3.96915-2.23841 4.31529-1.89227 4.73067-1.61535 5.1922-1.40766 5.65373-1.19997 6.16141-1.10767 6.69217-1.10767 7.49984-1.10767 8.21521-1.29228 8.8152-1.68458 9.39211-2.0538 9.85364-2.49226 10.1536-2.97686L11.3305-2.00765C10.6844-1.19997 9.96902-0.599987 9.2075-0.253841 8.4229 0.0923058 7.59215 0.276917 6.69217 0.276917 5.88449 0.276917 5.14605 0.138459 4.47683-0.161535 3.78454-0.438452 3.18455-0.830752 2.69994-1.33843 2.21534-1.84612 1.82304-2.4461 1.54612-3.1384 1.24613-3.83069 1.10767-4.59221 1.10767-5.39989 1.10767-6.20756 1.24613-6.96908 1.52305-7.66138 1.79996-8.35367 2.19226-8.95366 2.67687-9.46134 3.16147-9.96902 3.73838-10.3613 4.4076-10.6613 5.07682-10.9382 5.79219-11.0767 6.55371-11.0767 7.36138-11.0767 8.09983-10.9382 8.74597-10.6382 9.39211-10.3382 9.94595-9.96902 10.3844-9.48442 10.7998-8.99981 11.1459-8.4229 11.3767-7.77676 11.6075-7.10754 11.7228-6.41525 11.7228-5.6768L11.7228-4.98451 2.72302-4.98451Z" transform="matrix(1 0 0 1.00073 239.68 40.552)"/><path d="M7.246-9.41519 4.13068-9.41519 4.13068-3.04609C4.13068-2.65379 4.17684-2.30764 4.24607-2.07688 4.31529-1.82304 4.43068-1.61535 4.56914-1.47689 4.70759-1.33843 4.86913-1.24613 5.07682-1.19997 5.26143-1.13075 5.46912-1.10767 5.69988-1.10767 5.95372-1.10767 6.23064-1.15382 6.50756-1.22305 6.78447-1.29228 7.03831-1.40766 7.26908-1.52305L7.33831-0.115382C6.7614 0.138459 6.09218 0.276917 5.2845 0.276917 4.98451 0.276917 4.68452 0.230764 4.38452 0.161535 4.06145 0.0923058 3.76146-0.0692293 3.50762-0.276917 3.25378-0.484605 3.02301-0.784599 2.86148-1.15382 2.69994-1.52305 2.60764-2.00765 2.60764-2.60764L2.60764-9.41519 0.32307-9.41519 0.32307-10.7998 2.60764-10.7998 2.60764-13.8459 4.13068-13.8459 4.13068-10.7998 7.246-10.7998 7.246-9.41519Z" transform="matrix(1 0 0 1.00073 258.929 40.552)"/><path d="M1.82304-7.43061C1.82304-7.91522 1.82304-8.39982 1.79996-8.88443 1.77689-9.36903 1.75381-10.0152 1.73073-10.7998L3.2307-10.7998 3.2307-8.79212 3.27685-8.79212C3.39224-9.09212 3.5307-9.36903 3.73838-9.64595 3.94607-9.89979 4.17684-10.1536 4.47683-10.3613 4.75375-10.569 5.07682-10.7536 5.46912-10.8921 5.83834-11.0075 6.25372-11.0767 6.73832-11.0767 7.17677-11.0767 7.546-11.0305 7.86907-10.9382L7.56907-9.43826C7.36138-9.50749 7.08447-9.55365 6.69217-9.55365 6.11526-9.55365 5.60757-9.43826 5.1922-9.23058 4.77682-8.99981 4.43068-8.72289 4.15376-8.37675 3.87684-8.00753 3.66915-7.6383 3.55377-7.246 3.41531-6.8537 3.34608-6.4614 3.34608-6.09218L3.34608 0 1.82304 0 1.82304-7.43061Z" transform="matrix(1 0 0 1.00073 266.588 40.552)"/><path d="M10.0613-6.23064C10.0613-7.26908 9.76133-8.09983 9.13827-8.74597 8.51521-9.36903 7.66138-9.69211 6.55371-9.69211 6.0691-9.69211 5.5845-9.5998 5.12297-9.41519 4.66144-9.2075 4.26914-8.95366 3.923-8.63059 3.57685-8.30752 3.27685-7.9383 3.09224-7.52292 2.88456-7.10754 2.76917-6.66909 2.76917-6.23064L10.0613-6.23064ZM2.72302-4.98451C2.76917-4.45375 2.90763-3.94607 3.11532-3.46147 3.32301-2.97686 3.623-2.58456 3.96915-2.23841 4.31529-1.89227 4.73067-1.61535 5.1922-1.40766 5.65373-1.19997 6.16141-1.10767 6.69217-1.10767 7.49984-1.10767 8.21521-1.29228 8.8152-1.68458 9.39211-2.0538 9.85364-2.49226 10.1536-2.97686L11.3305-2.00765C10.6844-1.19997 9.96902-0.599987 9.2075-0.253841 8.4229 0.0923058 7.59215 0.276917 6.69217 0.276917 5.88449 0.276917 5.14605 0.138459 4.47683-0.161535 3.78454-0.438452 3.18455-0.830752 2.69994-1.33843 2.21534-1.84612 1.82304-2.4461 1.54612-3.1384 1.24613-3.83069 1.10767-4.59221 1.10767-5.39989 1.10767-6.20756 1.24613-6.96908 1.52305-7.66138 1.79996-8.35367 2.19226-8.95366 2.67687-9.46134 3.16147-9.96902 3.73838-10.3613 4.4076-10.6613 5.07682-10.9382 5.79219-11.0767 6.55371-11.0767 7.36138-11.0767 8.09983-10.9382 8.74597-10.6382 9.39211-10.3382 9.94595-9.96902 10.3844-9.48442 10.7998-8.99981 11.1459-8.4229 11.3767-7.77676 11.6075-7.10754 11.7228-6.41525 11.7228-5.6768L11.7228-4.98451 2.72302-4.98451Z" transform="matrix(1 0 0 1.00073 273.834 40.552)"/><path d="M10.0613-6.23064C10.0613-7.26908 9.76133-8.09983 9.13827-8.74597 8.51521-9.36903 7.66138-9.69211 6.55371-9.69211 6.0691-9.69211 5.5845-9.5998 5.12297-9.41519 4.66144-9.2075 4.26914-8.95366 3.923-8.63059 3.57685-8.30752 3.27685-7.9383 3.09224-7.52292 2.88456-7.10754 2.76917-6.66909 2.76917-6.23064L10.0613-6.23064ZM2.72302-4.98451C2.76917-4.45375 2.90763-3.94607 3.11532-3.46147 3.32301-2.97686 3.623-2.58456 3.96915-2.23841 4.31529-1.89227 4.73067-1.61535 5.1922-1.40766 5.65373-1.19997 6.16141-1.10767 6.69217-1.10767 7.49984-1.10767 8.21521-1.29228 8.8152-1.68458 9.39211-2.0538 9.85364-2.49226 10.1536-2.97686L11.3305-2.00765C10.6844-1.19997 9.96902-0.599987 9.2075-0.253841 8.4229 0.0923058 7.59215 0.276917 6.69217 0.276917 5.88449 0.276917 5.14605 0.138459 4.47683-0.161535 3.78454-0.438452 3.18455-0.830752 2.69994-1.33843 2.21534-1.84612 1.82304-2.4461 1.54612-3.1384 1.24613-3.83069 1.10767-4.59221 1.10767-5.39989 1.10767-6.20756 1.24613-6.96908 1.52305-7.66138 1.79996-8.35367 2.19226-8.95366 2.67687-9.46134 3.16147-9.96902 3.73838-10.3613 4.4076-10.6613 5.07682-10.9382 5.79219-11.0767 6.55371-11.0767 7.36138-11.0767 8.09983-10.9382 8.74597-10.6382 9.39211-10.3382 9.94595-9.96902 10.3844-9.48442 10.7998-8.99981 11.1459-8.4229 11.3767-7.77676 11.6075-7.10754 11.7228-6.41525 11.7228-5.6768L11.7228-4.98451 2.72302-4.98451Z" transform="matrix(1 0 0 1.00073 286.664 40.552)"/><path d="M6.69217-9.41519 4.13068-9.41519 4.13068 0 2.60764 0 2.60764-9.41519 0.32307-9.41519 0.32307-10.7998 2.60764-10.7998 2.60764-13.7536C2.60764-15.1843 2.93071-16.1997 3.59992-16.8227 4.26914-17.4227 5.14605-17.7227 6.23064-17.7227 6.43833-17.7227 6.66909-17.6996 6.89986-17.6766 7.10754-17.6535 7.33831-17.6073 7.546-17.5612L7.26908-16.1766C7.08447-16.2227 6.89986-16.2689 6.69217-16.292 6.48448-16.315 6.29987-16.3381 6.09218-16.3381 5.6768-16.3381 5.33066-16.2689 5.07682-16.1304 4.82298-15.992 4.61529-15.8074 4.47683-15.5535 4.33837-15.2997 4.24607-14.9997 4.19991-14.6535 4.15376-14.3074 4.13068-13.9612 4.13068-13.5689L4.13068-10.7998 6.69217-10.7998 6.69217-9.41519Z" transform="matrix(1 0 0 1.00073 305.909 40.552)"/><path d="M9.46134 0C9.43826-0.299994 9.41519-0.576911 9.41519-0.876905 9.39211-1.15382 9.39211-1.43074 9.39211-1.73073L9.34596-1.73073C9.18442-1.43074 8.95366-1.1769 8.69982-0.923058 8.44598-0.669217 8.14598-0.461529 7.82291-0.299994 7.49984-0.115382 7.1537 0.0230764 6.80755 0.138459 6.43833 0.230764 6.0691 0.276917 5.72296 0.276917 4.33837 0.276917 3.32301-0.0923058 2.65379-0.830752 1.98457-1.54612 1.6615-2.58456 1.6615-3.94607L1.6615-10.7998 3.18455-10.7998 3.18455-4.82298C3.18455-4.22299 3.2307-3.69223 3.32301-3.2307 3.41531-2.76917 3.57685-2.37687 3.80761-2.07688 4.0153-1.75381 4.31529-1.52305 4.70759-1.36151 5.07682-1.1769 5.53835-1.10767 6.11526-1.10767 6.18449-1.10767 6.41525-1.13075 6.7614-1.19997 7.10754-1.2692 7.49984-1.43074 7.89214-1.70766 8.28444-1.98457 8.63059-2.39995 8.93058-2.95378 9.23058-3.50762 9.39211-4.26914 9.39211-5.26143L9.39211-10.7998 10.9152-10.7998 10.9152-2.37687C10.9152-2.07688 10.9382-1.70766 10.9613-1.2692 10.9844-0.830752 11.0075-0.3923 11.0305 0L9.46134 0Z" transform="matrix(1 0 0 1.00073 312.741 40.552)"/><path d="M1.82304-7.43061C1.82304-7.91522 1.82304-8.39982 1.79996-8.88443 1.77689-9.36903 1.75381-10.0152 1.73073-10.7998L3.2307-10.7998 3.2307-8.79212 3.27685-8.79212C3.39224-9.09212 3.5307-9.36903 3.73838-9.64595 3.94607-9.89979 4.17684-10.1536 4.47683-10.3613 4.75375-10.569 5.07682-10.7536 5.46912-10.8921 5.83834-11.0075 6.25372-11.0767 6.73832-11.0767 7.17677-11.0767 7.546-11.0305 7.86907-10.9382L7.56907-9.43826C7.36138-9.50749 7.08447-9.55365 6.69217-9.55365 6.11526-9.55365 5.60757-9.43826 5.1922-9.23058 4.77682-8.99981 4.43068-8.72289 4.15376-8.37675 3.87684-8.00753 3.66915-7.6383 3.55377-7.246 3.41531-6.8537 3.34608-6.4614 3.34608-6.09218L3.34608 0 1.82304 0 1.82304-7.43061Z" transform="matrix(1 0 0 1.00073 325.571 40.552)"/><path d="M7.246-9.41519 4.13068-9.41519 4.13068-3.04609C4.13068-2.65379 4.17684-2.30764 4.24607-2.07688 4.31529-1.82304 4.43068-1.61535 4.56914-1.47689 4.70759-1.33843 4.86913-1.24613 5.07682-1.19997 5.26143-1.13075 5.46912-1.10767 5.69988-1.10767 5.95372-1.10767 6.23064-1.15382 6.50756-1.22305 6.78447-1.29228 7.03831-1.40766 7.26908-1.52305L7.33831-0.115382C6.7614 0.138459 6.09218 0.276917 5.2845 0.276917 4.98451 0.276917 4.68452 0.230764 4.38452 0.161535 4.06145 0.0923058 3.76146-0.0692293 3.50762-0.276917 3.25378-0.484605 3.02301-0.784599 2.86148-1.15382 2.69994-1.52305 2.60764-2.00765 2.60764-2.60764L2.60764-9.41519 0.32307-9.41519 0.32307-10.7998 2.60764-10.7998 2.60764-13.8459 4.13068-13.8459 4.13068-10.7998 7.246-10.7998 7.246-9.41519Z" transform="matrix(1 0 0 1.00073 333.235 40.552)"/><path d="M1.6615-17.4458 3.18455-17.4458 3.18455-9.06904 3.2307-9.06904C3.39224-9.36903 3.623-9.62288 3.87684-9.87672 4.13068-10.1306 4.43068-10.3382 4.75375-10.5229 5.07682-10.6844 5.42296-10.8229 5.79219-10.9382 6.13833-11.0305 6.50756-11.0767 6.8537-11.0767 8.23829-11.0767 9.25365-10.7075 9.92287-9.9921 10.5921-9.25365 10.9152-8.21521 10.9152-6.8537L10.9152 0 9.39211 0 9.39211-5.9768C9.39211-7.17677 9.18442-8.09983 8.76905-8.74597 8.35367-9.36903 7.59215-9.69211 6.4614-9.69211 6.39217-9.69211 6.16141-9.66903 5.81526-9.5998 5.46912-9.53057 5.09989-9.36903 4.70759-9.09212 4.31529-8.8152 3.94607-8.39982 3.64608-7.84599 3.34608-7.29216 3.18455-6.53063 3.18455-5.53835L3.18455 0 1.6615 0 1.6615-17.4458Z" transform="matrix(1 0 0 1.00073 340.894 40.552)"/><path d="M10.0613-6.23064C10.0613-7.26908 9.76133-8.09983 9.13827-8.74597 8.51521-9.36903 7.66138-9.69211 6.55371-9.69211 6.0691-9.69211 5.5845-9.5998 5.12297-9.41519 4.66144-9.2075 4.26914-8.95366 3.923-8.63059 3.57685-8.30752 3.27685-7.9383 3.09224-7.52292 2.88456-7.10754 2.76917-6.66909 2.76917-6.23064L10.0613-6.23064ZM2.72302-4.98451C2.76917-4.45375 2.90763-3.94607 3.11532-3.46147 3.32301-2.97686 3.623-2.58456 3.96915-2.23841 4.31529-1.89227 4.73067-1.61535 5.1922-1.40766 5.65373-1.19997 6.16141-1.10767 6.69217-1.10767 7.49984-1.10767 8.21521-1.29228 8.8152-1.68458 9.39211-2.0538 9.85364-2.49226 10.1536-2.97686L11.3305-2.00765C10.6844-1.19997 9.96902-0.599987 9.2075-0.253841 8.4229 0.0923058 7.59215 0.276917 6.69217 0.276917 5.88449 0.276917 5.14605 0.138459 4.47683-0.161535 3.78454-0.438452 3.18455-0.830752 2.69994-1.33843 2.21534-1.84612 1.82304-2.4461 1.54612-3.1384 1.24613-3.83069 1.10767-4.59221 1.10767-5.39989 1.10767-6.20756 1.24613-6.96908 1.52305-7.66138 1.79996-8.35367 2.19226-8.95366 2.67687-9.46134 3.16147-9.96902 3.73838-10.3613 4.4076-10.6613 5.07682-10.9382 5.79219-11.0767 6.55371-11.0767 7.36138-11.0767 8.09983-10.9382 8.74597-10.6382 9.39211-10.3382 9.94595-9.96902 10.3844-9.48442 10.7998-8.99981 11.1459-8.4229 11.3767-7.77676 11.6075-7.10754 11.7228-6.41525 11.7228-5.6768L11.7228-4.98451 2.72302-4.98451Z" transform="matrix(1 0 0 1.00073 353.724 40.552)"/><path d="M1.82304-7.43061C1.82304-7.91522 1.82304-8.39982 1.79996-8.88443 1.77689-9.36903 1.75381-10.0152 1.73073-10.7998L3.2307-10.7998 3.2307-8.79212 3.27685-8.79212C3.39224-9.09212 3.5307-9.36903 3.73838-9.64595 3.94607-9.89979 4.17684-10.1536 4.47683-10.3613 4.75375-10.569 5.07682-10.7536 5.46912-10.8921 5.83834-11.0075 6.25372-11.0767 6.73832-11.0767 7.17677-11.0767 7.546-11.0305 7.86907-10.9382L7.56907-9.43826C7.36138-9.50749 7.08447-9.55365 6.69217-9.55365 6.11526-9.55365 5.60757-9.43826 5.1922-9.23058 4.77682-8.99981 4.43068-8.72289 4.15376-8.37675 3.87684-8.00753 3.66915-7.6383 3.55377-7.246 3.41531-6.8537 3.34608-6.4614 3.34608-6.09218L3.34608 0 1.82304 0 1.82304-7.43061Z" transform="matrix(1 0 0 1.00073 366.554 40.552)"/><path d="M7.246-9.41519 4.13068-9.41519 4.13068-3.04609C4.13068-2.65379 4.17684-2.30764 4.24607-2.07688 4.31529-1.82304 4.43068-1.61535 4.56914-1.47689 4.70759-1.33843 4.86913-1.24613 5.07682-1.19997 5.26143-1.13075 5.46912-1.10767 5.69988-1.10767 5.95372-1.10767 6.23064-1.15382 6.50756-1.22305 6.78447-1.29228 7.03831-1.40766 7.26908-1.52305L7.33831-0.115382C6.7614 0.138459 6.09218 0.276917 5.2845 0.276917 4.98451 0.276917 4.68452 0.230764 4.38452 0.161535 4.06145 0.0923058 3.76146-0.0692293 3.50762-0.276917 3.25378-0.484605 3.02301-0.784599 2.86148-1.15382 2.69994-1.52305 2.60764-2.00765 2.60764-2.60764L2.60764-9.41519 0.32307-9.41519 0.32307-10.7998 2.60764-10.7998 2.60764-13.8459 4.13068-13.8459 4.13068-10.7998 7.246-10.7998 7.246-9.41519Z" transform="matrix(1 0 0 1.00073 167.476 63.6449)"/><path d="M1.6615-17.4458 3.18455-17.4458 3.18455-9.06904 3.2307-9.06904C3.39224-9.36903 3.623-9.62288 3.87684-9.87672 4.13068-10.1306 4.43068-10.3382 4.75375-10.5229 5.07682-10.6844 5.42296-10.8229 5.79219-10.9382 6.13833-11.0305 6.50756-11.0767 6.8537-11.0767 8.23829-11.0767 9.25365-10.7075 9.92287-9.9921 10.5921-9.25365 10.9152-8.21521 10.9152-6.8537L10.9152 0 9.39211 0 9.39211-5.9768C9.39211-7.17677 9.18442-8.09983 8.76905-8.74597 8.35367-9.36903 7.59215-9.69211 6.4614-9.69211 6.39217-9.69211 6.16141-9.66903 5.81526-9.5998 5.46912-9.53057 5.09989-9.36903 4.70759-9.09212 4.31529-8.8152 3.94607-8.39982 3.64608-7.84599 3.34608-7.29216 3.18455-6.53063 3.18455-5.53835L3.18455 0 1.6615 0 1.6615-17.4458Z" transform="matrix(1 0 0 1.00073 175.135 63.6449)"/><path d="M7.79984-5.37681C7.40754-5.37681 6.94601-5.35373 6.3691-5.33066 5.79219-5.2845 5.23835-5.1922 4.70759-5.05374 4.17684-4.89221 3.71531-4.66144 3.34608-4.36145 2.95378-4.06145 2.76917-3.623 2.76917-3.09224 2.76917-2.7461 2.8384-2.4461 2.99994-2.19226 3.1384-1.93842 3.32301-1.73073 3.57685-1.5692 3.83069-1.40766 4.10761-1.29228 4.4076-1.22305 4.70759-1.13075 5.00759-1.10767 5.30758-1.10767 5.86142-1.10767 6.34602-1.19997 6.7614-1.38459 7.1537-1.5692 7.49984-1.82304 7.77676-2.14611 8.05368-2.4461 8.26137-2.81533 8.39982-3.25378 8.51521-3.66915 8.58444-4.10761 8.58444-4.59221L8.58444-5.37681 7.79984-5.37681ZM8.58444-6.62294 8.58444-6.89986C8.58444-8.76905 7.66138-9.69211 5.81526-9.69211 4.54606-9.69211 3.46147-9.27673 2.51533-8.4229L1.59227-9.50749C2.60764-10.5459 4.13068-11.0767 6.16141-11.0767 6.69217-11.0767 7.19985-11.0075 7.68445-10.8459 8.16906-10.6844 8.58444-10.4536 8.93058-10.1536 9.27673-9.83056 9.57672-9.43826 9.78441-8.95366 9.9921-8.46905 10.1075-7.91522 10.1075-7.246L10.1075-2.42303C10.1075-2.00765 10.1306-1.5692 10.1767-1.13075 10.1998-0.669217 10.2459-0.299994 10.2921 0L8.8152 0C8.76905-0.253841 8.74597-0.553835 8.72289-0.853828 8.69982-1.15382 8.67674-1.45382 8.67674-1.75381L8.63059-1.75381C8.19214-1.03844 7.66138-0.507682 7.06139-0.207688 6.43833 0.115382 5.69988 0.276917 4.82298 0.276917 4.33837 0.276917 3.87684 0.207688 3.43839 0.0923058 2.99994-0.0461529 2.60764-0.253841 2.26149-0.530758 1.91534-0.784599 1.61535-1.13075 1.43074-1.52305 1.22305-1.91534 1.10767-2.3538 1.10767-2.88456 1.10767-3.76146 1.33843-4.45375 1.79996-4.96143 2.23841-5.44604 2.81533-5.81526 3.50762-6.0691 4.17684-6.32294 4.91528-6.4614 5.69988-6.53063 6.4614-6.59986 7.17677-6.62294 7.82291-6.62294L8.58444-6.62294Z" transform="matrix(1 0 0 1.00073 187.969 63.6449)"/><path d="M3.11532-10.7998C3.1384-10.4998 3.16147-10.2229 3.18455-9.94595 3.18455-9.64595 3.18455-9.36903 3.18455-9.06904L3.2307-9.06904C3.39224-9.36903 3.623-9.62288 3.87684-9.87672 4.13068-10.1306 4.43068-10.3382 4.75375-10.5229 5.07682-10.6844 5.42296-10.8229 5.79219-10.9382 6.13833-11.0305 6.50756-11.0767 6.8537-11.0767 8.23829-11.0767 9.25365-10.7075 9.92287-9.9921 10.5921-9.25365 10.9152-8.21521 10.9152-6.8537L10.9152 0 9.39211 0 9.39211-5.9768C9.39211-7.17677 9.18442-8.09983 8.76905-8.74597 8.35367-9.36903 7.59215-9.69211 6.4614-9.69211 6.39217-9.69211 6.16141-9.66903 5.81526-9.5998 5.46912-9.53057 5.09989-9.36903 4.70759-9.09212 4.31529-8.8152 3.94607-8.39982 3.64608-7.84599 3.34608-7.29216 3.18455-6.53063 3.18455-5.53835L3.18455 0 1.6615 0 1.6615-8.4229C1.6615-8.72289 1.6615-9.09212 1.63843-9.53057 1.61535-9.96902 1.5692-10.4075 1.54612-10.7998L3.11532-10.7998Z" transform="matrix(1 0 0 1.00073 199.946 63.6449)"/><path d="M645.231 281.083 642.113 281.083 642.113 287.452C642.113 287.852 642.153 288.179 642.228 288.433 642.307 288.687 642.412 288.883 642.553 289.021 642.689 289.16 642.856 289.256 643.05 289.31 643.243 289.364 643.454 289.391 643.683 289.391 643.947 289.391 644.215 289.352 644.492 289.275 644.769 289.198 645.024 289.098 645.253 288.975L645.323 290.383C644.751 290.644 644.07 290.775 643.27 290.775 642.975 290.775 642.672 290.737 642.355 290.66 642.043 290.583 641.753 290.436 641.493 290.221 641.23 290.006 641.014 289.714 640.847 289.344 640.676 288.975 640.592 288.49 640.592 287.89L640.592 281.083 638.306 281.083 638.306 279.698 640.592 279.698 640.592 276.652 642.113 276.652 642.113 279.698 645.231 279.698 645.231 281.083Z" stroke="#EA4E4E" stroke-width="0.43968" stroke-linejoin="round" stroke-miterlimit="2" fill="#B42F2F" transform="matrix(1 0 0 1.00073 -418.794 -227.064)"/><path d="M647.306 273.052 648.827 273.052 648.827 281.429 648.876 281.429C649.043 281.137 649.258 280.868 649.522 280.621 649.781 280.375 650.076 280.164 650.397 279.987 650.722 279.81 651.065 279.671 651.426 279.572 651.786 279.471 652.147 279.422 652.499 279.422 653.884 279.422 654.908 279.787 655.568 280.518 656.232 281.249 656.561 282.291 656.561 283.644L656.561 290.498 655.036 290.498 655.036 284.521C655.036 283.321 654.829 282.402 654.416 281.764 653.998 281.125 653.228 280.806 652.107 280.806 652.028 280.806 651.813 280.837 651.461 280.898 651.105 280.96 650.736 281.129 650.34 281.406 649.948 281.683 649.597 282.098 649.293 282.652 648.986 283.206 648.827 283.975 648.827 284.96L648.827 290.498 647.306 290.498 647.306 273.052Z" stroke="#EA4E4E" stroke-width="0.43968" stroke-linejoin="round" stroke-miterlimit="2" fill="#B42F2F" transform="matrix(1 0 0 1.00073 -418.794 -227.064)"/><path d="M662.352 275.545C662.352 275.868 662.238 276.133 662.005 276.341 661.776 276.548 661.521 276.652 661.244 276.652 660.967 276.652 660.712 276.548 660.483 276.341 660.25 276.133 660.136 275.868 660.136 275.545 660.136 275.221 660.25 274.956 660.483 274.748 660.712 274.541 660.967 274.437 661.244 274.437 661.521 274.437 661.776 274.541 662.005 274.748 662.238 274.956 662.352 275.221 662.352 275.545ZM662.005 290.498 660.483 290.498 660.483 279.698 662.005 279.698 662.005 290.498Z" stroke="#EA4E4E" stroke-width="0.43968" stroke-linejoin="round" stroke-miterlimit="2" fill="#B42F2F" transform="matrix(1 0 0 1.00073 -418.794 -227.064)"/><path d="M671.401 282.26C671.167 281.814 670.86 281.46 670.477 281.198 670.09 280.937 669.62 280.806 669.066 280.806 668.806 280.806 668.543 280.837 668.27 280.898 668.002 280.96 667.76 281.056 667.544 281.187 667.329 281.318 667.158 281.483 667.026 281.683 666.894 281.883 666.828 282.129 666.828 282.422 666.828 282.929 667.008 283.298 667.36 283.529 667.712 283.76 668.244 283.96 668.951 284.129L670.499 284.498C671.251 284.667 671.88 285.01 672.381 285.525 672.878 286.041 673.128 286.683 673.128 287.452 673.128 288.037 673.01 288.541 672.772 288.964 672.535 289.387 672.218 289.733 671.827 290.002 671.431 290.271 670.983 290.467 670.477 290.59 669.967 290.713 669.453 290.775 668.93 290.775 668.099 290.775 667.325 290.617 666.608 290.302 665.896 289.987 665.285 289.444 664.774 288.675L666.089 287.775C666.397 288.268 666.788 288.66 667.254 288.952 667.725 289.245 668.283 289.391 668.93 289.391 669.237 289.391 669.545 289.356 669.853 289.287 670.161 289.217 670.433 289.11 670.671 288.964 670.908 288.818 671.102 288.629 671.247 288.398 671.396 288.167 671.466 287.898 671.466 287.59 671.466 287.052 671.269 286.664 670.869 286.425 670.468 286.187 669.985 285.998 669.413 285.86L667.936 285.514C667.751 285.468 667.501 285.391 667.188 285.283 666.872 285.175 666.564 285.013 666.265 284.798 665.962 284.583 665.707 284.302 665.491 283.956 665.276 283.61 665.166 283.183 665.166 282.675 665.166 282.121 665.28 281.637 665.504 281.221 665.724 280.806 666.028 280.468 666.401 280.206 666.779 279.944 667.206 279.748 667.685 279.618 668.16 279.487 668.652 279.422 669.158 279.422 669.914 279.422 670.613 279.568 671.26 279.86 671.906 280.152 672.407 280.652 672.759 281.36L671.401 282.26Z" stroke="#EA4E4E" stroke-width="0.43968" stroke-linejoin="round" stroke-miterlimit="2" fill="#B42F2F" transform="matrix(1 0 0 1.00073 -418.794 -227.064)"/><path d="M7.38446-8.23829C7.1537-8.67674 6.8537-9.04596 6.4614-9.29981 6.0691-9.55365 5.60757-9.69211 5.05374-9.69211 4.7999-9.69211 4.52298-9.66903 4.26914-9.5998 3.99222-9.53057 3.73838-9.43826 3.5307-9.32288 3.32301-9.18442 3.1384-9.02289 3.02301-8.8152 2.88456-8.60751 2.81533-8.37675 2.81533-8.07675 2.81533-7.56907 2.99994-7.19985 3.34608-6.96908 3.69223-6.73832 4.22299-6.53063 4.93836-6.3691L6.48448-5.99987C7.246-5.83834 7.86907-5.49219 8.37675-4.98451 8.86135-4.45375 9.11519-3.80761 9.11519-3.04609 9.11519-2.46918 8.99981-1.9615 8.76905-1.54612 8.51521-1.10767 8.21521-0.761523 7.82291-0.507682 7.43061-0.230764 6.96908-0.0230764 6.4614 0.0923058 5.95372 0.207688 5.44604 0.276917 4.91528 0.276917 4.08453 0.276917 3.29993 0.115382 2.60764-0.207688 1.89227-0.507682 1.2692-1.06152 0.761523-1.82304L2.07688-2.72302C2.37687-2.23841 2.76917-1.84612 3.25378-1.54612 3.71531-1.24613 4.26914-1.10767 4.91528-1.10767 5.21528-1.10767 5.53835-1.13075 5.83834-1.22305 6.13833-1.29228 6.41525-1.38459 6.66909-1.54612 6.89986-1.68458 7.08447-1.86919 7.246-2.09996 7.38446-2.33072 7.45369-2.60764 7.45369-2.90763 7.45369-3.43839 7.246-3.83069 6.8537-4.08453 6.4614-4.31529 5.9768-4.49991 5.39989-4.63836L3.923-4.98451C3.73838-5.03066 3.48454-5.09989 3.18455-5.21528 2.86148-5.33066 2.56149-5.49219 2.26149-5.69988 1.9615-5.90757 1.68458-6.20756 1.47689-6.55371 1.2692-6.89986 1.15382-7.31523 1.15382-7.82291 1.15382-8.37675 1.2692-8.86135 1.49997-9.27673 1.70766-9.69211 2.00765-10.0383 2.39995-10.2921 2.76917-10.5459 3.18455-10.7536 3.66915-10.8921 4.15376-11.0075 4.63836-11.0767 5.14605-11.0767 5.90757-11.0767 6.59986-10.9382 7.246-10.6382 7.89214-10.3382 8.39982-9.85364 8.74597-9.13827L7.38446-8.23829Z" transform="matrix(1 0 0 1.00073 261.466 63.6449)"/><path d="M9.46134 0C9.43826-0.299994 9.41519-0.576911 9.41519-0.876905 9.39211-1.15382 9.39211-1.43074 9.39211-1.73073L9.34596-1.73073C9.18442-1.43074 8.95366-1.1769 8.69982-0.923058 8.44598-0.669217 8.14598-0.461529 7.82291-0.299994 7.49984-0.115382 7.1537 0.0230764 6.80755 0.138459 6.43833 0.230764 6.0691 0.276917 5.72296 0.276917 4.33837 0.276917 3.32301-0.0923058 2.65379-0.830752 1.98457-1.54612 1.6615-2.58456 1.6615-3.94607L1.6615-10.7998 3.18455-10.7998 3.18455-4.82298C3.18455-4.22299 3.2307-3.69223 3.32301-3.2307 3.41531-2.76917 3.57685-2.37687 3.80761-2.07688 4.0153-1.75381 4.31529-1.52305 4.70759-1.36151 5.07682-1.1769 5.53835-1.10767 6.11526-1.10767 6.18449-1.10767 6.41525-1.13075 6.7614-1.19997 7.10754-1.2692 7.49984-1.43074 7.89214-1.70766 8.28444-1.98457 8.63059-2.39995 8.93058-2.95378 9.23058-3.50762 9.39211-4.26914 9.39211-5.26143L9.39211-10.7998 10.9152-10.7998 10.9152-2.37687C10.9152-2.07688 10.9382-1.70766 10.9613-1.2692 10.9844-0.830752 11.0075-0.3923 11.0305 0L9.46134 0Z" transform="matrix(1 0 0 1.00073 271.297 63.6449)"/><path d="M11.5151-5.39989C11.5151-5.99987 11.4228-6.55371 11.2382-7.08447 11.0305-7.61523 10.7536-8.05368 10.4075-8.44598 10.0613-8.83828 9.62288-9.13827 9.13827-9.36903 8.63059-9.57672 8.05368-9.69211 7.43061-9.69211 6.80755-9.69211 6.23064-9.57672 5.69988-9.36903 5.16912-9.13827 4.73067-8.83828 4.33837-8.44598 3.94607-8.05368 3.64608-7.61523 3.43839-7.08447 3.2307-6.55371 3.11532-5.99987 3.11532-5.39989 3.11532-4.7999 3.2307-4.24607 3.43839-3.71531 3.64608-3.18455 3.94607-2.7461 4.33837-2.3538 4.73067-1.9615 5.16912-1.6615 5.69988-1.45382 6.23064-1.22305 6.80755-1.10767 7.43061-1.10767 8.05368-1.10767 8.63059-1.22305 9.13827-1.45382 9.62288-1.6615 10.0613-1.9615 10.4075-2.3538 10.7536-2.7461 11.0305-3.18455 11.2382-3.71531 11.4228-4.24607 11.5151-4.7999 11.5151-5.39989ZM1.6615-17.4458 3.18455-17.4458 3.18455-8.99981 3.2307-8.99981C3.48454-9.36903 3.76146-9.69211 4.10761-9.94595 4.45375-10.1998 4.7999-10.4306 5.16912-10.5921 5.53835-10.7536 5.93065-10.8921 6.32294-10.9613 6.71524-11.0305 7.08447-11.0767 7.43061-11.0767 8.28444-11.0767 9.04596-10.9382 9.76133-10.6613 10.4536-10.3613 11.0536-9.96902 11.5613-9.46134 12.069-8.95366 12.4613-8.35367 12.7613-7.66138 13.0382-6.96908 13.1766-6.20756 13.1766-5.39989 13.1766-4.59221 13.0382-3.83069 12.7613-3.1384 12.4613-2.4461 12.069-1.84612 11.5613-1.33843 11.0536-0.830752 10.4536-0.438452 9.76133-0.161535 9.04596 0.138459 8.28444 0.276917 7.43061 0.276917 7.08447 0.276917 6.71524 0.230764 6.32294 0.161535 5.93065 0.0923058 5.53835-0.0461529 5.16912-0.207688 4.7999-0.369223 4.45375-0.599987 4.10761-0.853828 3.76146-1.10767 3.48454-1.43074 3.2307-1.79996L3.18455-1.79996 3.18455 0 1.6615 0 1.6615-17.4458Z" transform="matrix(1 0 0 1.00073 284.127 63.6449)"/><path d="M0.876905-6.29987 6.80755-6.29987 6.80755-4.77682 0.876904-4.77682Z" transform="matrix(1 0 0 1.00073 298.228 63.6449)"/><path d="M3.11532-10.7998C3.1384-10.4998 3.16147-10.2229 3.18455-9.94595 3.18455-9.64595 3.18455-9.36903 3.18455-9.06904L3.2307-9.06904C3.39224-9.36903 3.623-9.62288 3.87684-9.87672 4.13068-10.1306 4.43068-10.3382 4.75375-10.5229 5.07682-10.6844 5.42296-10.8229 5.79219-10.9382 6.13833-11.0305 6.50756-11.0767 6.8537-11.0767 8.23829-11.0767 9.25365-10.7075 9.92287-9.9921 10.5921-9.25365 10.9152-8.21521 10.9152-6.8537L10.9152 0 9.39211 0 9.39211-5.9768C9.39211-7.17677 9.18442-8.09983 8.76905-8.74597 8.35367-9.36903 7.59215-9.69211 6.4614-9.69211 6.39217-9.69211 6.16141-9.66903 5.81526-9.5998 5.46912-9.53057 5.09989-9.36903 4.70759-9.09212 4.31529-8.8152 3.94607-8.39982 3.64608-7.84599 3.34608-7.29216 3.18455-6.53063 3.18455-5.53835L3.18455 0 1.6615 0 1.6615-8.4229C1.6615-8.72289 1.6615-9.09212 1.63843-9.53057 1.61535-9.96902 1.5692-10.4075 1.54612-10.7998L3.11532-10.7998Z" transform="matrix(1 0 0 1.00073 305.909 63.6449)"/><path d="M10.9152-5.39989C10.9152-5.99987 10.8229-6.55371 10.6382-7.08447 10.4306-7.61523 10.1536-8.05368 9.80749-8.44598 9.46134-8.83828 9.02289-9.13827 8.53828-9.36903 8.0306-9.57672 7.45369-9.69211 6.83063-9.69211 6.20756-9.69211 5.63065-9.57672 5.14605-9.36903 4.63836-9.13827 4.22299-8.83828 3.87684-8.44598 3.5307-8.05368 3.25378-7.61523 3.06917-7.08447 2.86148-6.55371 2.76917-5.99987 2.76917-5.39989 2.76917-4.7999 2.86148-4.24607 3.06917-3.71531 3.25378-3.18455 3.5307-2.7461 3.87684-2.3538 4.22299-1.9615 4.63836-1.6615 5.14605-1.45382 5.63065-1.22305 6.20756-1.10767 6.83063-1.10767 7.45369-1.10767 8.0306-1.22305 8.53828-1.45382 9.02289-1.6615 9.46134-1.9615 9.80749-2.3538 10.1536-2.7461 10.4306-3.18455 10.6382-3.71531 10.8229-4.24607 10.9152-4.7999 10.9152-5.39989ZM12.5767-5.39989C12.5767-4.59221 12.4382-3.83069 12.1613-3.1384 11.8613-2.4461 11.469-1.84612 10.9613-1.33843 10.4536-0.830752 9.85364-0.438452 9.16135-0.161535 8.44598 0.138459 7.68445 0.276917 6.83063 0.276917 5.99987 0.276917 5.23835 0.138459 4.54606-0.161535 3.83069-0.438452 3.2307-0.830752 2.72302-1.33843 2.21534-1.84612 1.82304-2.4461 1.54612-3.1384 1.24613-3.83069 1.10767-4.59221 1.10767-5.39989 1.10767-6.20756 1.24613-6.96908 1.54612-7.66138 1.82304-8.35367 2.21534-8.95366 2.72302-9.46134 3.2307-9.96902 3.83069-10.3613 4.54606-10.6613 5.23835-10.9382 5.99987-11.0767 6.83063-11.0767 7.68445-11.0767 8.44598-10.9382 9.16135-10.6613 9.85364-10.3613 10.4536-9.96902 10.9613-9.46134 11.469-8.95366 11.8613-8.35367 12.1613-7.66138 12.4382-6.96908 12.5767-6.20756 12.5767-5.39989Z" transform="matrix(1 0 0 1.00073 318.743 63.6449)"/><path d="M2.58456-5.39989C2.58456-4.7999 2.67687-4.24607 2.88456-3.71531 3.06917-3.18455 3.34608-2.7461 3.69223-2.3538 4.03838-1.9615 4.47683-1.6615 4.98451-1.45382 5.46912-1.22305 6.04603-1.10767 6.66909-1.10767 7.29216-1.10767 7.86907-1.22305 8.39982-1.45382 8.93058-1.6615 9.36903-1.9615 9.76133-2.3538 10.1536-2.7461 10.4536-3.18455 10.6613-3.71531 10.869-4.24607 10.9844-4.7999 10.9844-5.39989 10.9844-5.99987 10.869-6.55371 10.6613-7.08447 10.4536-7.61523 10.1536-8.05368 9.76133-8.44598 9.36903-8.83828 8.93058-9.13827 8.39982-9.36903 7.86907-9.57672 7.29216-9.69211 6.66909-9.69211 6.04603-9.69211 5.46912-9.57672 4.98451-9.36903 4.47683-9.13827 4.03838-8.83828 3.69223-8.44598 3.34608-8.05368 3.06917-7.61523 2.88456-7.08447 2.67687-6.55371 2.58456-5.99987 2.58456-5.39989ZM12.4382 0 10.9152 0 10.9152-1.79996 10.869-1.79996C10.6152-1.43074 10.3382-1.10767 9.9921-0.853828 9.64595-0.599987 9.29981-0.369223 8.93058-0.207688 8.56136-0.0461529 8.19214 0.0923058 7.79984 0.161535 7.40754 0.230764 7.01524 0.276917 6.66909 0.276917 5.81526 0.276917 5.05374 0.138459 4.36145-0.161535 3.64608-0.438452 3.04609-0.830752 2.53841-1.33843 2.03073-1.84612 1.63843-2.4461 1.36151-3.1384 1.06152-3.83069 0.923058-4.59221 0.923058-5.39989 0.923058-6.20756 1.06152-6.96908 1.36151-7.66138 1.63843-8.35367 2.03073-8.95366 2.53841-9.46134 3.04609-9.96902 3.64608-10.3613 4.36145-10.6613 5.05374-10.9382 5.81526-11.0767 6.66909-11.0767 7.01524-11.0767 7.40754-11.0305 7.79984-10.9613 8.19214-10.8921 8.56136-10.7536 8.93058-10.5921 9.29981-10.4306 9.64595-10.1998 9.9921-9.94595 10.3382-9.69211 10.6152-9.36903 10.869-8.99981L10.9152-8.99981 10.9152-17.4458 12.4382-17.4458 12.4382 0Z" transform="matrix(1 0 0 1.00073 332.426 63.6449)"/><path d="M10.0613-6.23064C10.0613-7.26908 9.76133-8.09983 9.13827-8.74597 8.51521-9.36903 7.66138-9.69211 6.55371-9.69211 6.0691-9.69211 5.5845-9.5998 5.12297-9.41519 4.66144-9.2075 4.26914-8.95366 3.923-8.63059 3.57685-8.30752 3.27685-7.9383 3.09224-7.52292 2.88456-7.10754 2.76917-6.66909 2.76917-6.23064L10.0613-6.23064ZM2.72302-4.98451C2.76917-4.45375 2.90763-3.94607 3.11532-3.46147 3.32301-2.97686 3.623-2.58456 3.96915-2.23841 4.31529-1.89227 4.73067-1.61535 5.1922-1.40766 5.65373-1.19997 6.16141-1.10767 6.69217-1.10767 7.49984-1.10767 8.21521-1.29228 8.8152-1.68458 9.39211-2.0538 9.85364-2.49226 10.1536-2.97686L11.3305-2.00765C10.6844-1.19997 9.96902-0.599987 9.2075-0.253841 8.4229 0.0923058 7.59215 0.276917 6.69217 0.276917 5.88449 0.276917 5.14605 0.138459 4.47683-0.161535 3.78454-0.438452 3.18455-0.830752 2.69994-1.33843 2.21534-1.84612 1.82304-2.4461 1.54612-3.1384 1.24613-3.83069 1.10767-4.59221 1.10767-5.39989 1.10767-6.20756 1.24613-6.96908 1.52305-7.66138 1.79996-8.35367 2.19226-8.95366 2.67687-9.46134 3.16147-9.96902 3.73838-10.3613 4.4076-10.6613 5.07682-10.9382 5.79219-11.0767 6.55371-11.0767 7.36138-11.0767 8.09983-10.9382 8.74597-10.6382 9.39211-10.3382 9.94595-9.96902 10.3844-9.48442 10.7998-8.99981 11.1459-8.4229 11.3767-7.77676 11.6075-7.10754 11.7228-6.41525 11.7228-5.6768L11.7228-4.98451 2.72302-4.98451Z" transform="matrix(1 0 0 1.00073 346.526 63.6449)"/><path d="M6.92293-1.10767C6.92293-0.784599 6.80755-0.507682 6.57679-0.253841 6.34602 0 6.04603 0.138459 5.6768 0.138459 5.30758 0.138459 5.00759 0 4.77682-0.253841 4.54606-0.507682 4.43068-0.784599 4.43068-1.10767 4.43068-1.43074 4.54606-1.73073 4.77682-1.98457 5.00759-2.23841 5.30758-2.3538 5.6768-2.3538 6.04603-2.3538 6.34602-2.23841 6.57679-1.98457 6.80755-1.73073 6.92293-1.43074 6.92293-1.10767ZM6.3691-4.43068 4.70759-4.43068 4.70759-6.34602C4.70759-6.7614 4.7999-7.1537 5.00759-7.49984 5.1922-7.82291 5.42296-8.16906 5.69988-8.46905 5.9768-8.76905 6.27679-9.04596 6.59986-9.32288 6.92293-9.5998 7.22293-9.89979 7.49984-10.2229 7.75368-10.5229 7.98445-10.869 8.16906-11.2151 8.35367-11.5613 8.44598-11.9767 8.44598-12.4382 8.44598-13.2228 8.19214-13.8689 7.70753-14.3535 7.19985-14.8382 6.55371-15.092 5.74603-15.092 4.96143-15.092 4.31529-14.8612 3.80761-14.3997 3.27685-13.9382 2.95378-13.3382 2.81533-12.5767L1.08459-12.7843C1.1769-13.3843 1.36151-13.9151 1.63843-14.3997 1.89227-14.8843 2.23841-15.2766 2.65379-15.6228 3.04609-15.9458 3.50762-16.1997 4.03838-16.3612 4.56914-16.5227 5.12297-16.615 5.72296-16.615 6.34602-16.615 6.92293-16.5227 7.45369-16.3612 7.98445-16.1766 8.46905-15.9227 8.86135-15.5766 9.25365-15.2305 9.55365-14.8151 9.78441-14.3074 9.9921-13.7997 10.1075-13.2228 10.1075-12.5767 10.1075-11.9305 10.0152-11.3767 9.83056-10.9382 9.64595-10.4998 9.41519-10.1075 9.13827-9.78441 8.86135-9.43826 8.56136-9.13827 8.23829-8.88443 7.91522-8.63059 7.61523-8.35367 7.33831-8.05368 7.06139-7.73061 6.83063-7.40754 6.64601-7.01524 6.4614-6.62294 6.3691-6.16141 6.3691-5.60757L6.3691-4.43068Z" transform="matrix(1 0 0 1.00073 359.356 63.6449)"/><path d="M395.67 345.604 582.976 374.737" stroke="#AAC464" stroke-width="3.79004" stroke-linecap="round" stroke-linejoin="round" stroke-miterlimit="1.5" fill="none" fill-rule="evenodd" transform="matrix(1 0 0 1.00073 -355.852 -217.609)"/><path d="M395.67 345.604 584.383 300.043" stroke="#AAC464" stroke-width="3.79004" stroke-linecap="round" stroke-linejoin="round" stroke-miterlimit="1.5" fill="none" fill-rule="evenodd" transform="matrix(1 0 0 1.00073 -355.852 -217.609)"/><path d="M488.762 324.338C494.741 334.313 496.113 348.22 494.416 360.1" stroke="#AAC464" stroke-width="3.79004" stroke-linecap="round" stroke-linejoin="round" stroke-miterlimit="1.5" fill="none" fill-rule="evenodd" transform="matrix(1 0 0 1.00073 -355.852 -217.609)"/><path d="M472.26 351.173C472.26 349.39 472.027 347.93 471.557 346.793 471.056 345.646 470.159 345.061 468.866 345.039 467.574 345.061 466.685 345.646 466.193 346.793 465.692 347.93 465.445 349.39 465.459 351.173L472.26 351.173ZM463.137 352.209C463.137 351.017 463.23 349.897 463.419 348.849 463.577 347.802 463.876 346.855 464.32 346.008 464.755 345.161 465.349 344.498 466.092 344.019 466.839 343.54 467.767 343.295 468.866 343.283 469.983 343.295 470.911 343.54 471.658 344.019 472.406 344.498 472.99 345.161 473.412 346.008 473.848 346.855 474.16 347.802 474.349 348.849 474.516 349.897 474.6 351.017 474.6 352.209 474.6 353.245 474.556 354.282 474.468 355.318 474.336 356.354 474.072 357.313 473.681 358.193 473.303 359.051 472.727 359.747 471.962 360.282 471.17 360.828 470.137 361.107 468.866 361.118 467.587 361.107 466.567 360.828 465.81 360.282 465.041 359.747 464.461 359.051 464.069 358.193 463.691 357.313 463.445 356.354 463.335 355.318 463.203 354.282 463.137 353.245 463.137 352.209ZM465.459 352.911C465.445 354.861 465.674 356.415 466.145 357.574 466.602 358.756 467.508 359.357 468.866 359.38 470.229 359.357 471.139 358.756 471.61 357.574 472.067 356.415 472.283 354.861 472.26 352.911L465.459 352.911Z" stroke="#AAC464" stroke-width="0.43968" stroke-linejoin="round" stroke-miterlimit="2" fill="#B5D04F" transform="matrix(1 0 0 1.00073 -353.719 -226.554)"/><path d="M550.095 480.488 810.504 520.992" stroke="#64C488" stroke-width="3.52709" stroke-linecap="round" stroke-linejoin="round" stroke-miterlimit="1.5" fill="none" fill-rule="evenodd" transform="matrix(0.809164 -0.809753 0.70685 0.707364 -723.88 446.069)"/><path d="M550.095 480.488 812.46 417.145" stroke="#64C488" stroke-width="3.52709" stroke-linecap="round" stroke-linejoin="round" stroke-miterlimit="1.5" fill="none" fill-rule="evenodd" transform="matrix(0.809164 -0.809753 0.70685 0.707364 -723.88 446.069)"/><path d="M432.617 287.081C437.91 295.91 439.124 308.219 437.622 318.735" stroke="#64C488" stroke-width="2.60746" stroke-linecap="round" stroke-linejoin="round" stroke-miterlimit="1.5" fill="none" fill-rule="evenodd" transform="matrix(1.57554 -0.865719 0.481025 0.876707 -704.572 381.473)"/><path d="M472.26 351.173C472.26 349.39 472.027 347.93 471.557 346.793 471.056 345.646 470.159 345.061 468.866 345.039 467.574 345.061 466.685 345.646 466.193 346.793 465.692 347.93 465.445 349.39 465.459 351.173L472.26 351.173ZM463.137 352.209C463.137 351.017 463.23 349.897 463.419 348.849 463.577 347.802 463.876 346.855 464.32 346.008 464.755 345.161 465.349 344.498 466.092 344.019 466.839 343.54 467.767 343.295 468.866 343.283 469.983 343.295 470.911 343.54 471.658 344.019 472.406 344.498 472.99 345.161 473.412 346.008 473.848 346.855 474.16 347.802 474.349 348.849 474.516 349.897 474.6 351.017 474.6 352.209 474.6 353.245 474.556 354.282 474.468 355.318 474.336 356.354 474.072 357.313 473.681 358.193 473.303 359.051 472.727 359.747 471.962 360.282 471.17 360.828 470.137 361.107 468.866 361.118 467.587 361.107 466.567 360.828 465.81 360.282 465.041 359.747 464.461 359.051 464.069 358.193 463.691 357.313 463.445 356.354 463.335 355.318 463.203 354.282 463.137 353.245 463.137 352.209ZM465.459 352.911C465.445 354.861 465.674 356.415 466.145 357.574 466.602 358.756 467.508 359.357 468.866 359.38 470.229 359.357 471.139 358.756 471.61 357.574 472.067 356.415 472.283 354.861 472.26 352.911L465.459 352.911Z" stroke="#64C488" stroke-width="0.43968" stroke-linejoin="round" stroke-miterlimit="2" fill="#4FD070" transform="matrix(1 0 0 1.00073 -354.459 -71.6681)"/><path d="M472.26 351.173C472.26 349.39 472.027 347.93 471.557 346.793 471.056 345.646 470.159 345.061 468.866 345.039 467.574 345.061 466.685 345.646 466.193 346.793 465.692 347.93 465.445 349.39 465.459 351.173L472.26 351.173ZM463.137 352.209C463.137 351.017 463.23 349.897 463.419 348.849 463.577 347.802 463.876 346.855 464.32 346.008 464.755 345.161 465.349 344.498 466.092 344.019 466.839 343.54 467.767 343.295 468.866 343.283 469.983 343.295 470.911 343.54 471.658 344.019 472.406 344.498 472.99 345.161 473.412 346.008 473.848 346.855 474.16 347.802 474.349 348.849 474.516 349.897 474.6 351.017 474.6 352.209 474.6 353.245 474.556 354.282 474.468 355.318 474.336 356.354 474.072 357.313 473.681 358.193 473.303 359.051 472.727 359.747 471.962 360.282 471.17 360.828 470.137 361.107 468.866 361.118 467.587 361.107 466.567 360.828 465.81 360.282 465.041 359.747 464.461 359.051 464.069 358.193 463.691 357.313 463.445 356.354 463.335 355.318 463.203 354.282 463.137 353.245 463.137 352.209ZM465.459 352.911C465.445 354.861 465.674 356.415 466.145 357.574 466.602 358.756 467.508 359.357 468.866 359.38 470.229 359.357 471.139 358.756 471.61 357.574 472.067 356.415 472.283 354.861 472.26 352.911L465.459 352.911Z" stroke="#C46469" stroke-width="0.43968" stroke-linejoin="round" stroke-miterlimit="2" fill="#D05E4F" transform="matrix(1 0 0 1.00073 -261.546 -179.4)"/><path d="M549.469 404.134 586.311 303.172" stroke="#B45C51" stroke-width="3.74306" stroke-linecap="round" stroke-linejoin="round" stroke-miterlimit="1.5" fill="none" fill-rule="evenodd" transform="matrix(0.99978 -0.0209873 -0.0209721 1.0676 -353.023 -227.473)"/><path d="M543.179 410.544 656.475 375.225" stroke="#B45C51" stroke-width="3.7884" stroke-linecap="round" stroke-linejoin="round" stroke-miterlimit="1.5" fill="none" fill-rule="evenodd" transform="matrix(1 0.00010182 0.000101746 1.00114 -355.606 -217.667)"/><path d="M567.772 357.281C579.85 364.056 589.128 376.363 594.135 389.181" stroke="#B45C51" stroke-width="3.79004" stroke-linecap="round" stroke-linejoin="round" stroke-miterlimit="1.5" fill="none" fill-rule="evenodd" transform="matrix(1 0 0 1.00073 -363.55 -210.45)"/><path d="M695.935 297.135 732.279 366.037" stroke="#B45C51" stroke-width="3.79004" stroke-linecap="round" stroke-linejoin="round" stroke-miterlimit="1.5" fill="none" fill-rule="evenodd" transform="matrix(1 0 0 1.00073 -355.852 -217.609)"/><path d="M704.284 399.152 701.818 399.152 701.818 388.712 692.747 374.917 695.829 374.917 703.053 386.35 710.273 374.917 713.355 374.917 704.284 388.712 704.284 399.152Z" stroke="#C46469" stroke-width="0.43968" stroke-linejoin="round" stroke-miterlimit="2" fill="#D05E4F" transform="matrix(1 0 0 1.00073 -355.852 -217.609)"/><path d="M724.65 389.91C724.65 388.381 724.193 387.143 723.283 386.196 722.368 385.249 721.089 384.775 719.449 384.775 718.719 384.775 718.011 384.918 717.325 385.203 716.639 385.488 716.041 385.87 715.527 386.35 715.017 386.829 714.603 387.377 714.296 387.993 713.988 388.609 713.834 389.248 713.834 389.91L724.65 389.91ZM713.764 391.758C713.834 392.557 714.027 393.31 714.348 394.018 714.665 394.725 715.087 395.335 715.615 395.849 716.138 396.362 716.745 396.767 717.426 397.064 718.112 397.361 718.855 397.509 719.651 397.509 720.865 397.509 721.907 397.23 722.786 396.67 723.665 396.111 724.329 395.467 724.786 394.737L726.532 396.174C725.573 397.383 724.518 398.251 723.366 398.776 722.214 399.3 720.979 399.563 719.651 399.563 718.468 399.563 717.365 399.352 716.349 398.93 715.333 398.508 714.463 397.92 713.733 397.167 712.999 396.414 712.423 395.524 712.001 394.497 711.578 393.47 711.367 392.352 711.367 391.142 711.367 389.933 711.574 388.814 711.987 387.787 712.396 386.76 712.968 385.87 713.698 385.117 714.428 384.364 715.285 383.777 716.266 383.355 717.246 382.932 718.306 382.721 719.449 382.721 720.658 382.721 721.74 382.938 722.698 383.372 723.656 383.805 724.461 384.382 725.112 385.1 725.763 385.819 726.259 386.664 726.602 387.634 726.945 388.603 727.117 389.636 727.117 390.732L727.117 391.758 713.764 391.758Z" stroke="#C46469" stroke-width="0.43968" stroke-linejoin="round" stroke-miterlimit="2" fill="#D05E4F" transform="matrix(1 0 0 1.00073 -355.852 -217.609)"/><path d="M739.714 386.932C739.371 386.27 738.913 385.745 738.342 385.357 737.775 384.969 737.076 384.775 736.253 384.775 735.866 384.775 735.475 384.821 735.075 384.912 734.675 385.003 734.314 385.146 733.998 385.34 733.677 385.534 733.422 385.779 733.224 386.076 733.03 386.372 732.934 386.738 732.934 387.171 732.934 387.925 733.198 388.472 733.721 388.814 734.248 389.157 735.035 389.453 736.082 389.704L738.377 390.252C739.494 390.503 740.426 391.011 741.169 391.775 741.908 392.54 742.281 393.493 742.281 394.634 742.281 395.501 742.101 396.248 741.749 396.876 741.398 397.503 740.927 398.017 740.347 398.416 739.762 398.815 739.098 399.107 738.342 399.289 737.59 399.472 736.825 399.563 736.051 399.563 734.816 399.563 733.672 399.329 732.608 398.861 731.549 398.393 730.643 397.589 729.887 396.448L731.839 395.113C732.296 395.843 732.872 396.425 733.567 396.859 734.266 397.292 735.093 397.509 736.051 397.509 736.508 397.509 736.961 397.458 737.419 397.355 737.876 397.252 738.28 397.093 738.632 396.876 738.988 396.659 739.274 396.38 739.489 396.037 739.705 395.695 739.815 395.295 739.815 394.839 739.815 394.041 739.52 393.464 738.927 393.111 738.333 392.757 737.612 392.477 736.768 392.272L734.578 391.758C734.306 391.69 733.932 391.576 733.466 391.416 733 391.256 732.542 391.016 732.098 390.697 731.65 390.378 731.267 389.961 730.951 389.448 730.63 388.934 730.471 388.301 730.471 387.548 730.471 386.726 730.634 386.008 730.968 385.391 731.298 384.775 731.742 384.273 732.301 383.885 732.859 383.497 733.492 383.206 734.2 383.012 734.908 382.818 735.638 382.721 736.394 382.721 737.511 382.721 738.548 382.938 739.507 383.372 740.465 383.805 741.209 384.547 741.732 385.596L739.714 386.932Z" stroke="#C46469" stroke-width="0.43968" stroke-linejoin="round" stroke-miterlimit="2" fill="#D05E4F" transform="matrix(1 0 0 1.00073 -355.852 -217.609)"/><path d="M747.861 403.945 745.566 403.945 747.861 395.9 750.631 395.9 747.861 403.945Z" stroke="#C46469" stroke-width="0.43968" stroke-linejoin="round" stroke-miterlimit="2" fill="#D05E4F" transform="matrix(1 0 0 1.00073 -355.852 -217.609)"/><path d="M768.126 376.97C768.126 377.45 767.954 377.843 767.611 378.151 767.268 378.46 766.89 378.613 766.481 378.613 766.072 378.613 765.694 378.46 765.351 378.151 765.008 377.843 764.837 377.45 764.837 376.97 764.837 376.491 765.008 376.098 765.351 375.789 765.694 375.481 766.072 375.327 766.481 375.327 766.89 375.327 767.268 375.481 767.611 375.789 767.954 376.098 768.126 376.491 768.126 376.97ZM767.611 399.152 765.351 399.152 765.351 383.132 767.611 383.132 767.611 399.152Z" stroke="#C46469" stroke-width="0.43968" stroke-linejoin="round" stroke-miterlimit="2" fill="#D05E4F" transform="matrix(1 0 0 1.00073 -355.852 -217.609)"/><path d="M780.516 385.186 776.717 385.186 776.717 399.152 774.457 399.152 774.457 385.186 771.067 385.186 771.067 383.132 774.457 383.132 774.457 378.75C774.457 376.628 774.95 375.116 775.93 374.215 776.911 373.313 778.212 372.862 779.83 372.862 780.151 372.862 780.476 372.885 780.806 372.931 781.14 372.977 781.461 373.034 781.782 373.102L781.373 375.156C781.096 375.088 780.815 375.031 780.516 374.985 780.221 374.94 779.922 374.917 779.628 374.917 779.012 374.917 778.507 375.019 778.12 375.224 777.733 375.43 777.434 375.721 777.232 376.098 777.025 376.474 776.889 376.913 776.818 377.415 776.752 377.917 776.717 378.454 776.717 379.024L776.717 383.132 780.516 383.132 780.516 385.186Z" stroke="#C46469" stroke-width="0.43968" stroke-linejoin="round" stroke-miterlimit="2" fill="#D05E4F" transform="matrix(1 0 0 1.00073 -355.852 -217.609)"/><path d="M805.244 385.699C805.244 383.229 804.918 381.207 804.272 379.633 803.577 378.042 802.333 377.232 800.543 377.201 798.749 377.232 797.518 378.042 796.837 379.633 796.142 381.207 795.804 383.229 795.817 385.699L805.244 385.699ZM792.598 387.135C792.598 385.483 792.73 383.931 792.994 382.48 793.21 381.03 793.627 379.717 794.243 378.544 794.845 377.371 795.663 376.452 796.696 375.789 797.734 375.125 799.013 374.785 800.543 374.77 802.087 374.785 803.375 375.125 804.408 375.789 805.441 376.452 806.255 377.371 806.84 378.544 807.442 379.717 807.873 381.03 808.137 382.48 808.37 383.931 808.484 385.483 808.484 387.135 808.484 388.57 808.422 390.006 808.299 391.442 808.115 392.877 807.75 394.205 807.209 395.424 806.686 396.613 805.89 397.578 804.826 398.319 803.731 399.075 802.302 399.461 800.543 399.476 798.767 399.461 797.356 399.075 796.305 398.319 795.241 397.578 794.436 396.613 793.895 395.424 793.372 394.205 793.034 392.877 792.88 391.442 792.691 390.006 792.598 388.57 792.598 387.135ZM795.817 388.107C795.804 390.808 796.12 392.962 796.767 394.568 797.4 396.204 798.657 397.037 800.543 397.068 802.425 397.037 803.691 396.204 804.338 394.568 804.971 392.962 805.274 390.808 805.244 388.107L795.817 388.107Z" stroke="#C46469" stroke-width="0.43968" stroke-linejoin="round" stroke-miterlimit="2" fill="#D05E4F" transform="matrix(1 0 0 1.00073 -355.852 -217.609)"/><path d="M823.033 379.846 840.488 387.993 840.488 389.568 823.033 397.715 823.033 395.661 837.718 388.78 823.033 381.9 823.033 379.846Z" stroke="#C46469" stroke-width="0.43968" stroke-linejoin="round" stroke-miterlimit="2" fill="#D05E4F" transform="matrix(1 0 0 1.00073 -355.852 -217.609)"/><path d="M867.124 386.198C867.124 383.82 866.812 381.872 866.188 380.356 865.519 378.825 864.323 378.045 862.6 378.015 860.872 378.045 859.685 378.825 859.03 380.356 858.361 381.872 858.036 383.82 858.049 386.198L867.124 386.198ZM854.949 387.58C854.949 385.99 855.077 384.496 855.332 383.099 855.539 381.702 855.939 380.438 856.532 379.309 857.113 378.179 857.9 377.294 858.898 376.655 859.891 376.016 861.127 375.689 862.6 375.674 864.086 375.689 865.326 376.016 866.324 376.655 867.318 377.294 868.096 378.179 868.663 379.309 869.243 380.438 869.657 381.702 869.912 383.099 870.136 384.496 870.246 385.99 870.246 387.58 870.246 388.963 870.184 390.345 870.07 391.727 869.89 393.11 869.538 394.388 869.019 395.563 868.513 396.707 867.748 397.636 866.724 398.349 865.669 399.078 864.293 399.449 862.6 399.464 860.889 399.449 859.531 399.078 858.52 398.349 857.491 397.636 856.721 396.707 856.198 395.563 855.692 394.388 855.367 393.11 855.218 391.727 855.042 390.345 854.949 388.963 854.949 387.58ZM858.049 388.517C858.036 391.118 858.339 393.192 858.964 394.737 859.575 396.313 860.784 397.116 862.6 397.146 864.411 397.116 865.629 396.313 866.254 394.737 866.865 393.192 867.155 391.118 867.124 388.517L858.049 388.517Z" stroke="#C46469" stroke-width="0.43968" stroke-linejoin="round" stroke-miterlimit="2" fill="#D05E4F" transform="matrix(1 0 0 1.00073 -355.852 -217.609)"/><path d="M693.631 296.707 766.411 331.86" stroke="#51B477" stroke-width="3.79004" stroke-linecap="round" stroke-linejoin="round" stroke-miterlimit="1.5" fill="none" fill-rule="evenodd" transform="matrix(1 0 0 1.00073 -353.454 -217.21)"/><path d="M714.041 395.455 714.107 395.455 714.107 374.917 716.573 374.917 716.573 399.152 713.491 399.152 699.048 378.408 698.977 378.408 698.977 399.152 696.511 399.152 696.511 374.917 699.593 374.917 714.041 395.455Z" stroke="#51B477" stroke-width="0.43968" stroke-linejoin="round" stroke-miterlimit="2" fill="#2CA93C" transform="matrix(1 0 0 1.00073 -270.119 -266.384)"/><path d="M736.051 391.142C736.051 390.252 735.906 389.419 735.62 388.643 735.334 387.867 734.93 387.194 734.407 386.624 733.883 386.053 733.25 385.602 732.507 385.272 731.764 384.94 730.924 384.775 729.992 384.775 729.056 384.775 728.216 384.94 727.473 385.272 726.734 385.602 726.105 386.053 725.591 386.624 725.077 387.194 724.681 387.867 724.395 388.643 724.109 389.419 723.964 390.252 723.964 391.142 723.964 392.032 724.109 392.865 724.395 393.641 724.681 394.417 725.077 395.09 725.591 395.661 726.105 396.231 726.734 396.682 727.473 397.013 728.216 397.344 729.056 397.509 729.992 397.509 730.924 397.509 731.764 397.344 732.507 397.013 733.25 396.682 733.883 396.231 734.407 395.661 734.93 395.09 735.334 394.417 735.62 393.641 735.906 392.865 736.051 392.032 736.051 391.142ZM738.513 391.142C738.513 392.352 738.302 393.47 737.88 394.497 737.458 395.524 736.869 396.414 736.117 397.167 735.365 397.92 734.468 398.508 733.431 398.93 732.393 399.352 731.245 399.563 729.992 399.563 728.757 399.563 727.622 399.352 726.585 398.93 725.547 398.508 724.65 397.92 723.898 397.167 723.146 396.414 722.557 395.524 722.135 394.497 721.713 393.47 721.502 392.352 721.502 391.142 721.502 389.933 721.713 388.814 722.135 387.787 722.557 386.76 723.146 385.87 723.898 385.117 724.65 384.364 725.547 383.777 726.585 383.355 727.622 382.932 728.757 382.721 729.992 382.721 731.245 382.721 732.393 382.932 733.431 383.355 734.468 383.777 735.365 384.364 736.117 385.117 736.869 385.87 737.458 386.76 737.88 387.787 738.302 388.814 738.513 389.933 738.513 391.142Z" stroke="#51B477" stroke-width="0.43968" stroke-linejoin="round" stroke-miterlimit="2" fill="#2CA93C" transform="matrix(1 0 0 1.00073 -270.119 -266.384)"/><path d="M744.678 403.945 742.382 403.945 744.678 395.9 747.448 395.9 744.678 403.945Z" stroke="#51B477" stroke-width="0.43968" stroke-linejoin="round" stroke-miterlimit="2" fill="#2CA93C" transform="matrix(1 0 0 1.00073 -270.119 -266.384)"/><path d="M764.942 376.97C764.942 377.45 764.771 377.843 764.428 378.151 764.085 378.46 763.707 378.613 763.298 378.613 762.889 378.613 762.511 378.46 762.168 378.151 761.825 377.843 761.654 377.45 761.654 376.97 761.654 376.491 761.825 376.098 762.168 375.789 762.511 375.481 762.889 375.327 763.298 375.327 763.707 375.327 764.085 375.481 764.428 375.789 764.771 376.098 764.942 376.491 764.942 376.97ZM764.428 399.152 762.168 399.152 762.168 383.132 764.428 383.132 764.428 399.152Z" stroke="#51B477" stroke-width="0.43968" stroke-linejoin="round" stroke-miterlimit="2" fill="#2CA93C" transform="matrix(1 0 0 1.00073 -270.119 -266.384)"/><path d="M777.333 385.186 773.534 385.186 773.534 399.152 771.274 399.152 771.274 385.186 767.884 385.186 767.884 383.132 771.274 383.132 771.274 378.75C771.274 376.628 771.766 375.116 772.747 374.215 773.727 373.313 775.029 372.862 776.647 372.862 776.968 372.862 777.293 372.885 777.623 372.931 777.953 372.977 778.278 373.034 778.599 373.102L778.19 375.156C777.913 375.088 777.627 375.031 777.333 374.985 777.038 374.94 776.739 374.917 776.445 374.917 775.825 374.917 775.323 375.019 774.936 375.224 774.549 375.43 774.25 375.721 774.048 376.098 773.842 376.474 773.705 376.913 773.635 377.415 773.569 377.917 773.534 378.454 773.534 379.024L773.534 383.132 777.333 383.132 777.333 385.186Z" stroke="#51B477" stroke-width="0.43968" stroke-linejoin="round" stroke-miterlimit="2" fill="#2CA93C" transform="matrix(1 0 0 1.00073 -270.119 -266.384)"/><path d="M802.06 385.699C802.06 383.229 801.735 381.207 801.089 379.633 800.389 378.042 799.15 377.232 797.36 377.201 795.566 377.232 794.335 378.042 793.654 379.633 792.959 381.207 792.62 383.229 792.633 385.699L802.06 385.699ZM789.415 387.135C789.415 385.483 789.547 383.931 789.811 382.48 790.026 381.03 790.444 379.717 791.059 378.544 791.662 377.371 792.48 376.452 793.513 375.789 794.551 375.125 795.83 374.785 797.36 374.77 798.903 374.785 800.192 375.125 801.225 375.789 802.258 376.452 803.072 377.371 803.656 378.544 804.259 379.717 804.69 381.03 804.953 382.48 805.186 383.931 805.301 385.483 805.301 387.135 805.301 388.57 805.239 390.006 805.116 391.442 804.931 392.877 804.566 394.205 804.026 395.424 803.502 396.613 802.707 397.578 801.643 398.319 800.548 399.075 799.119 399.461 797.36 399.476 795.584 399.461 794.172 399.075 793.122 398.319 792.057 397.578 791.253 396.613 790.712 395.424 790.189 394.205 789.85 392.877 789.692 391.442 789.507 390.006 789.415 388.57 789.415 387.135ZM792.633 388.107C792.62 390.808 792.937 392.962 793.583 394.568 794.216 396.204 795.474 397.037 797.36 397.068 799.242 397.037 800.508 396.204 801.155 394.568 801.788 392.962 802.091 390.808 802.06 388.107L792.633 388.107Z" stroke="#51B477" stroke-width="0.43968" stroke-linejoin="round" stroke-miterlimit="2" fill="#2CA93C" transform="matrix(1 0 0 1.00073 -270.119 -266.384)"/><path d="M837.305 381.9 822.62 388.78 837.305 395.661 837.305 397.715 819.85 389.568 819.85 387.993 837.305 379.846 837.305 381.9Z" stroke="#51B477" stroke-width="0.43968" stroke-linejoin="round" stroke-miterlimit="2" fill="#2CA93C" transform="matrix(1 0 0 1.00073 -270.119 -266.384)"/><path d="M863.941 386.198C863.941 383.82 863.629 381.872 863.004 380.356 862.336 378.825 861.14 378.045 859.417 378.015 857.693 378.045 856.501 378.825 855.846 380.356 855.178 381.872 854.853 383.82 854.866 386.198L863.941 386.198ZM851.766 387.58C851.766 385.99 851.894 384.496 852.149 383.099 852.355 381.702 852.755 380.438 853.349 379.309 853.929 378.179 854.716 377.294 855.714 376.655 856.708 376.016 857.944 375.689 859.417 375.674 860.903 375.689 862.143 376.016 863.141 376.655 864.134 377.294 864.913 378.179 865.48 379.309 866.06 380.438 866.473 381.702 866.728 383.099 866.953 384.496 867.063 385.99 867.063 387.58 867.063 388.963 867.001 390.345 866.882 391.727 866.706 393.11 866.355 394.388 865.836 395.563 865.33 396.707 864.565 397.636 863.541 398.349 862.486 399.078 861.109 399.449 859.417 399.464 857.706 399.449 856.343 399.078 855.336 398.349 854.307 397.636 853.538 396.707 853.015 395.563 852.509 394.388 852.184 393.11 852.034 391.727 851.854 390.345 851.766 388.963 851.766 387.58ZM854.866 388.517C854.853 391.118 855.156 393.192 855.78 394.737 856.392 396.313 857.601 397.116 859.417 397.146 861.228 397.116 862.446 396.313 863.07 394.737 863.681 393.192 863.972 391.118 863.941 388.517L854.866 388.517Z" stroke="#51B477" stroke-width="0.43968" stroke-linejoin="round" stroke-miterlimit="2" fill="#2CA93C" transform="matrix(1 0 0 1.00073 -270.119 -266.384)"/><path d="M1197.28 550.449C1197.08 550.151 1196.81 549.899 1196.46 549.693 1196.11 549.486 1195.71 549.383 1195.26 549.383 1194.79 549.371 1194.37 549.446 1194 549.607 1193.63 549.767 1193.31 549.991 1193.05 550.277 1192.78 550.564 1192.58 550.905 1192.44 551.301 1192.31 551.697 1192.23 552.124 1192.23 552.583 1192.23 553.042 1192.31 553.469 1192.44 553.865 1192.58 554.261 1192.78 554.602 1193.05 554.888 1193.31 555.176 1193.63 555.399 1194 555.56 1194.37 555.72 1194.79 555.795 1195.26 555.783 1195.71 555.783 1196.11 555.68 1196.46 555.474 1196.81 555.267 1197.08 555.015 1197.28 554.716L1198.2 555.422C1197.81 555.892 1197.35 556.239 1196.84 556.463 1196.34 556.687 1195.82 556.804 1195.26 556.816 1194.61 556.827 1194.02 556.727 1193.49 556.515 1192.96 556.302 1192.51 556.007 1192.14 555.628 1191.77 555.25 1191.48 554.8 1191.29 554.278 1191.09 553.756 1191 553.191 1191 552.583 1191 551.975 1191.09 551.41 1191.29 550.888 1191.48 550.366 1191.77 549.916 1192.14 549.538 1192.51 549.159 1192.96 548.864 1193.49 548.652 1194.02 548.44 1194.61 548.339 1195.26 548.351 1195.82 548.362 1196.34 548.479 1196.84 548.703 1197.35 548.927 1197.81 549.274 1198.2 549.744L1197.28 550.449Z" stroke="#C46469" stroke-width="0.438732" stroke-linejoin="round" stroke-miterlimit="2" fill="#D05E4F" transform="matrix(1 0 0 1.00073 -675.998 -368.05)"/><path d="M1197.28 550.449C1197.08 550.151 1196.81 549.899 1196.46 549.693 1196.11 549.486 1195.71 549.383 1195.26 549.383 1194.79 549.371 1194.37 549.446 1194 549.607 1193.63 549.767 1193.31 549.991 1193.05 550.277 1192.78 550.564 1192.58 550.905 1192.44 551.301 1192.31 551.697 1192.23 552.124 1192.23 552.583 1192.23 553.042 1192.31 553.469 1192.44 553.865 1192.58 554.261 1192.78 554.602 1193.05 554.888 1193.31 555.176 1193.63 555.399 1194 555.56 1194.37 555.72 1194.79 555.795 1195.26 555.783 1195.71 555.783 1196.11 555.68 1196.46 555.474 1196.81 555.267 1197.08 555.015 1197.28 554.716L1198.2 555.422C1197.81 555.892 1197.35 556.239 1196.84 556.463 1196.34 556.687 1195.82 556.804 1195.26 556.816 1194.61 556.827 1194.02 556.727 1193.49 556.515 1192.96 556.302 1192.51 556.007 1192.14 555.628 1191.77 555.25 1191.48 554.8 1191.29 554.278 1191.09 553.756 1191 553.191 1191 552.583 1191 551.975 1191.09 551.41 1191.29 550.888 1191.48 550.366 1191.77 549.916 1192.14 549.538 1192.51 549.159 1192.96 548.864 1193.49 548.652 1194.02 548.44 1194.61 548.339 1195.26 548.351 1195.82 548.362 1196.34 548.479 1196.84 548.703 1197.35 548.927 1197.81 549.274 1198.2 549.744L1197.28 550.449Z" stroke="#60AD63" stroke-width="0.438732" stroke-linejoin="round" stroke-miterlimit="2" fill="#54AB5A" transform="matrix(1 0 0 1.00073 -593.828 -416.225)"/></g></svg>