<?xml version="1.0" encoding="UTF-8" standalone="no"?>
<!DOCTYPE svg PUBLIC "-//W3C//DTD SVG 1.1//EN" "http://www.w3.org/Graphics/SVG/1.1/DTD/svg11.dtd">
<svg width="100%" height="100%" viewBox="0 0 1225 626" version="1.1" xmlns="http://www.w3.org/2000/svg" xmlns:xlink="http://www.w3.org/1999/xlink" xml:space="preserve" xmlns:serif="http://www.serif.com/" style="fill-rule:evenodd;clip-rule:evenodd;stroke-linejoin:round;stroke-miterlimit:2;">
    <path d="M644.874,286.91l-0,-2.236l19.198,-0l-3.479,-3.946l1.677,-1.397l4.598,5.591l-0,1.988l-21.994,0Z" style="fill-rule:nonzero;stroke:black;stroke-width:1px;"/>
    <path d="M644.314,295.329l0.591,-1.802l22.522,9.413l-0.621,1.771l-22.492,-9.382Z" style="fill-rule:nonzero;stroke:black;stroke-width:1px;"/>
    <path d="M668.359,307.103l-0,2.05l-11.277,0l0,0.062c0.394,0.228 0.756,0.518 1.088,0.87c0.331,0.352 0.616,0.746 0.854,1.181c0.238,0.435 0.424,0.895 0.559,1.382c0.135,0.487 0.202,0.968 0.202,1.445c-0,1.864 -0.492,3.241 -1.476,4.131c-0.983,0.891 -2.387,1.336 -4.209,1.336l-9.226,0l-0,-2.05l8.046,-0c1.615,-0 2.852,-0.28 3.712,-0.839c0.859,-0.559 1.289,-1.595 1.289,-3.106c0,-0.104 -0.041,-0.394 -0.124,-0.87c-0.083,-0.477 -0.311,-0.979 -0.684,-1.507c-0.372,-0.528 -0.932,-0.999 -1.677,-1.413c-0.746,-0.415 -1.781,-0.622 -3.107,-0.622l-7.455,0l-0,-2.05l23.485,-0Z" style="fill-rule:nonzero;stroke:black;stroke-width:1px;"/>
    <path d="M635.571,355.03l0,-107.517" style="fill:none;stroke:black;stroke-opacity:0.98;stroke-width:4.25px;stroke-linecap:round;stroke-miterlimit:1.5;"/>
    <path d="M635.571,247.513l-12.82,12.82" style="fill:none;stroke:black;stroke-opacity:0.98;stroke-width:4.25px;stroke-linecap:round;stroke-miterlimit:1.5;"/>
    <path d="M635.571,247.513l14.22,14.22" style="fill:none;stroke:black;stroke-opacity:0.98;stroke-width:4.25px;stroke-linecap:round;stroke-miterlimit:1.5;"/>
    <path d="M634.871,355.368l-12.655,-12.655" style="fill:none;stroke:black;stroke-opacity:0.98;stroke-width:4.25px;stroke-linecap:round;stroke-miterlimit:1.5;"/>
    <path d="M634.871,355.368l12.393,-12.393" style="fill:none;stroke:black;stroke-opacity:0.98;stroke-width:4.25px;stroke-linecap:round;stroke-miterlimit:1.5;"/>
    <path d="M412.107,234.825l229.519,131.448l-459.038,0l229.519,-131.448Z" style="fill:rgb(135,187,213);stroke:black;stroke-opacity:0;stroke-width:3.77px;stroke-linecap:round;stroke-miterlimit:1.5;"/>
    <path d="M60.926,367.259l1155.22,0" style="fill:none;stroke:black;stroke-width:17.35px;stroke-linecap:round;stroke-miterlimit:1.5;"/>
    <path d="M1216.15,367.259l-49.634,-49.634" style="fill:none;stroke:black;stroke-width:17.35px;stroke-linecap:round;stroke-miterlimit:1.5;"/>
    <path d="M1216.15,367.259l-49.875,49.876" style="fill:none;stroke:black;stroke-width:17.35px;stroke-linecap:round;stroke-miterlimit:1.5;"/>
    <path d="M1145.62,488.864l-27.362,-35.993l18.893,0l18.729,27.361l18.404,-27.361l17.752,0l-26.384,35.993l31.27,41.205l-18.893,-0l-22.8,-32.41l-22.801,32.41l-18.078,-0l31.27,-41.205Z" style="fill-rule:nonzero;"/>
    <path d="M1025.98,595.548l67.392,-48.989" style="fill:none;stroke:black;stroke-width:9.28px;stroke-linecap:round;stroke-miterlimit:1.5;"/>
    <path d="M1093.37,546.559l-32.25,-4.66" style="fill:none;stroke:black;stroke-width:9.28px;stroke-linecap:round;stroke-miterlimit:1.5;"/>
    <path d="M1093.37,546.559l-4.97,34.397" style="fill:none;stroke:black;stroke-width:9.28px;stroke-linecap:round;stroke-miterlimit:1.5;"/>
    <path d="M715.169,575.663l-7.213,6.618l-3.087,-3.717l10.928,-8.985l4.703,0.014l-0.121,39.174l-5.311,-0.016l0.101,-33.088Z" style="fill-rule:nonzero;"/>
    <path d="M735.162,569.638l13.667,0.042c2.766,0.008 5.191,0.329 7.273,0.963c2.082,0.633 3.887,1.478 5.415,2.534c1.527,1.056 2.796,2.268 3.806,3.636c1.011,1.368 1.809,2.772 2.394,4.212c0.586,1.441 1.006,2.881 1.26,4.32c0.253,1.439 0.379,2.768 0.375,3.985c-0.008,2.508 -0.476,4.932 -1.406,7.272c-0.929,2.339 -2.3,4.419 -4.113,6.24c-1.814,1.82 -4.059,3.279 -6.737,4.378c-2.677,1.098 -5.768,1.642 -9.273,1.631l-12.781,-0.039l0.12,-39.174Zm5.207,34.211l6.695,0.02c2.25,0.007 4.381,-0.291 6.394,-0.893c2.012,-0.603 3.776,-1.51 5.292,-2.723c1.516,-1.213 2.72,-2.73 3.611,-4.554c0.89,-1.823 1.34,-3.952 1.347,-6.386c0.004,-1.254 -0.194,-2.721 -0.595,-4.401c-0.401,-1.679 -1.161,-3.277 -2.282,-4.793c-1.12,-1.516 -2.675,-2.802 -4.663,-3.86c-1.989,-1.057 -4.569,-1.591 -7.742,-1.601l-7.967,-0.024l-0.09,29.215Z" style="fill-rule:nonzero;"/>
    <path d="M794.834,597.708c-0.004,1.143 0.242,2.186 0.737,3.128c0.495,0.943 1.147,1.747 1.957,2.413c0.809,0.667 1.748,1.186 2.817,1.558c1.069,0.372 2.175,0.56 3.318,0.564c1.549,0.004 2.897,-0.351 4.043,-1.067c1.145,-0.716 2.199,-1.662 3.162,-2.84l3.754,2.889c-2.778,3.57 -6.656,5.347 -11.636,5.331c-2.066,-0.006 -3.937,-0.362 -5.613,-1.068c-1.676,-0.706 -3.093,-1.679 -4.251,-2.918c-1.159,-1.239 -2.049,-2.699 -2.671,-4.379c-0.621,-1.681 -0.929,-3.498 -0.923,-5.453c0.006,-1.955 0.352,-3.771 1.04,-5.447c0.687,-1.676 1.633,-3.131 2.835,-4.363c1.203,-1.232 2.635,-2.196 4.297,-2.891c1.662,-0.696 3.471,-1.041 5.426,-1.035c2.324,0.007 4.287,0.419 5.889,1.235c1.602,0.817 2.917,1.881 3.946,3.194c1.029,1.313 1.771,2.79 2.227,4.433c0.457,1.643 0.682,3.313 0.677,5.01l-0.006,1.77l-21.025,-0.064Zm15.726,-3.936c-0.034,-1.106 -0.206,-2.121 -0.517,-3.044c-0.31,-0.924 -0.778,-1.727 -1.403,-2.412c-0.625,-0.684 -1.407,-1.221 -2.347,-1.611c-0.939,-0.391 -2.036,-0.588 -3.29,-0.592c-1.217,-0.003 -2.334,0.224 -3.35,0.682c-1.015,0.458 -1.875,1.055 -2.578,1.79c-0.703,0.736 -1.25,1.555 -1.64,2.457c-0.39,0.903 -0.586,1.797 -0.589,2.682l15.714,0.048Z" style="fill-rule:nonzero;"/>
    <path d="M829.036,595.102l-9.258,-12.257l6.419,0.02l6.334,9.315l6.281,-9.276l6.031,0.018l-9.001,12.201l10.58,14.031l-6.418,-0.02l-7.712,-11.034l-7.78,10.987l-6.142,-0.019l10.666,-13.966Z" style="fill-rule:nonzero;"/>
    <path d="M850.698,586.149c1.406,-1.287 3.032,-2.25 4.878,-2.89c1.847,-0.64 3.692,-0.957 5.536,-0.951c1.918,0.006 3.568,0.251 4.95,0.734c1.382,0.484 2.514,1.133 3.397,1.947c0.883,0.815 1.535,1.748 1.956,2.801c0.421,1.052 0.629,2.15 0.626,3.294l-0.041,13.39c-0.003,0.922 0.013,1.77 0.047,2.545c0.035,0.775 0.088,1.513 0.159,2.214l-4.426,-0.014c-0.107,-1.328 -0.158,-2.656 -0.154,-3.984l-0.11,-0c-1.112,1.693 -2.425,2.888 -3.94,3.584c-1.514,0.696 -3.268,1.041 -5.26,1.035c-1.217,-0.003 -2.378,-0.173 -3.484,-0.508c-1.105,-0.336 -2.072,-0.837 -2.9,-1.503c-0.828,-0.667 -1.48,-1.49 -1.957,-2.468c-0.476,-0.979 -0.713,-2.114 -0.709,-3.406c0.006,-1.696 0.388,-3.115 1.148,-4.256c0.759,-1.142 1.795,-2.07 3.107,-2.785c1.312,-0.715 2.844,-1.227 4.597,-1.535c1.753,-0.308 3.626,-0.46 5.617,-0.453l3.652,0.011l0.004,-1.107c0.002,-0.664 -0.125,-1.328 -0.382,-1.993c-0.256,-0.665 -0.641,-1.265 -1.156,-1.802c-0.515,-0.536 -1.159,-0.962 -1.933,-1.278c-0.773,-0.316 -1.695,-0.476 -2.765,-0.479c-0.959,-0.003 -1.798,0.087 -2.518,0.269c-0.72,0.182 -1.375,0.411 -1.966,0.685c-0.591,0.275 -1.127,0.596 -1.608,0.964c-0.481,0.367 -0.943,0.716 -1.386,1.047l-2.979,-3.108Zm14.022,10.445c-1.18,-0.003 -2.388,0.058 -3.625,0.183c-1.236,0.125 -2.361,0.371 -3.377,0.737c-1.015,0.365 -1.847,0.879 -2.495,1.541c-0.647,0.662 -0.973,1.51 -0.976,2.542c-0.004,1.513 0.5,2.603 1.512,3.27c1.012,0.667 2.385,1.003 4.119,1.008c1.365,0.004 2.527,-0.223 3.488,-0.681c0.96,-0.458 1.737,-1.055 2.329,-1.791c0.593,-0.736 1.019,-1.555 1.28,-2.458c0.261,-0.903 0.393,-1.797 0.396,-2.682l0.005,-1.66l-2.656,-0.009Z" style="fill-rule:nonzero;"/>
    <path d="M879.314,583.028l4.648,0.014l-0.013,4.095l0.111,-0c0.112,-0.369 0.399,-0.829 0.862,-1.381c0.462,-0.552 1.054,-1.075 1.775,-1.571c0.721,-0.496 1.571,-0.918 2.549,-1.265c0.979,-0.347 2.058,-0.519 3.239,-0.516c1.955,0.006 3.595,0.417 4.92,1.233c1.326,0.815 2.41,2.036 3.254,3.661c0.853,-1.62 2.056,-2.834 3.607,-3.64c1.552,-0.807 3.121,-1.208 4.707,-1.203c2.029,0.006 3.688,0.343 4.977,1.011c1.289,0.668 2.301,1.547 3.035,2.638c0.734,1.09 1.238,2.327 1.51,3.711c0.273,1.385 0.407,2.814 0.402,4.29l-0.047,15.271l-4.98,-0.015l0.045,-14.607c0.003,-0.996 -0.058,-1.956 -0.185,-2.878c-0.126,-0.923 -0.391,-1.735 -0.794,-2.437c-0.404,-0.702 -0.974,-1.267 -1.711,-1.693c-0.736,-0.427 -1.713,-0.642 -2.93,-0.645c-2.398,-0.008 -4.115,0.725 -5.153,2.197c-1.037,1.472 -1.559,3.37 -1.566,5.694l-0.044,14.331l-4.98,-0.015l0.042,-13.722c0.004,-1.254 -0.057,-2.398 -0.183,-3.431c-0.126,-1.034 -0.382,-1.929 -0.767,-2.686c-0.384,-0.758 -0.936,-1.35 -1.654,-1.776c-0.718,-0.426 -1.686,-0.641 -2.903,-0.645c-0.885,-0.003 -1.743,0.17 -2.574,0.518c-0.831,0.347 -1.562,0.871 -2.191,1.57c-0.629,0.699 -1.13,1.592 -1.502,2.679c-0.372,1.087 -0.561,2.368 -0.565,3.843l-0.042,13.612l-4.98,-0.016l0.081,-26.226Z" style="fill-rule:nonzero;"/>
    <path d="M926.456,583.172l4.979,0.016l-0.011,3.762l0.11,0.001c0.964,-1.399 2.286,-2.483 3.967,-3.253c1.68,-0.769 3.406,-1.151 5.177,-1.146c2.028,0.006 3.862,0.362 5.502,1.068c1.639,0.706 3.038,1.688 4.196,2.946c1.158,1.257 2.048,2.726 2.67,4.407c0.622,1.68 0.93,3.479 0.924,5.397c-0.006,1.955 -0.325,3.771 -0.957,5.448c-0.633,1.676 -1.532,3.13 -2.697,4.362c-1.166,1.233 -2.571,2.197 -4.214,2.892c-1.644,0.696 -3.48,1.041 -5.509,1.035c-1.881,-0.006 -3.651,-0.408 -5.308,-1.206c-1.658,-0.798 -2.927,-1.881 -3.808,-3.249l-0.111,-0l-0.059,19.366l-4.98,-0.016l0.129,-41.83Zm13.599,4.026c-1.328,-0.004 -2.528,0.223 -3.599,0.681c-1.071,0.457 -1.977,1.082 -2.717,1.873c-0.74,0.79 -1.315,1.748 -1.724,2.871c-0.409,1.124 -0.616,2.35 -0.62,3.678c-0.004,1.328 0.195,2.555 0.597,3.681c0.403,1.127 0.972,2.088 1.707,2.883c0.735,0.795 1.637,1.425 2.705,1.889c1.069,0.465 2.267,0.699 3.595,0.703c1.328,0.004 2.527,-0.223 3.598,-0.68c1.071,-0.458 1.977,-1.083 2.717,-1.873c0.74,-0.791 1.315,-1.748 1.724,-2.872c0.409,-1.124 0.616,-2.35 0.62,-3.678c0.004,-1.328 -0.195,-2.555 -0.597,-3.681c-0.402,-1.127 -0.971,-2.087 -1.707,-2.883c-0.735,-0.795 -1.637,-1.425 -2.705,-1.889c-1.068,-0.465 -2.266,-0.699 -3.594,-0.703Z" style="fill-rule:nonzero;"/>
    <path d="M960.698,567.674l4.979,0.015l-0.128,41.83l-4.98,-0.015l0.129,-41.83Z" style="fill-rule:nonzero;"/>
    <path d="M977.258,598.268c-0.003,1.143 0.243,2.186 0.738,3.128c0.495,0.942 1.147,1.747 1.957,2.413c0.809,0.667 1.748,1.186 2.817,1.558c1.068,0.372 2.174,0.56 3.318,0.564c1.549,0.004 2.897,-0.351 4.042,-1.067c1.146,-0.716 2.2,-1.662 3.163,-2.84l3.754,2.889c-2.778,3.569 -6.657,5.347 -11.636,5.331c-2.066,-0.006 -3.937,-0.362 -5.613,-1.068c-1.676,-0.706 -3.093,-1.679 -4.252,-2.918c-1.158,-1.239 -2.048,-2.699 -2.67,-4.379c-0.622,-1.681 -0.93,-3.498 -0.924,-5.453c0.006,-1.955 0.353,-3.771 1.041,-5.447c0.687,-1.677 1.632,-3.131 2.835,-4.363c1.203,-1.232 2.635,-2.196 4.297,-2.891c1.662,-0.696 3.471,-1.041 5.426,-1.035c2.323,0.007 4.286,0.419 5.889,1.235c1.602,0.817 2.917,1.881 3.946,3.194c1.029,1.313 1.771,2.79 2.227,4.433c0.456,1.643 0.682,3.313 0.677,5.01l-0.006,1.77l-21.026,-0.064Zm15.727,-3.936c-0.034,-1.107 -0.206,-2.121 -0.517,-3.045c-0.31,-0.923 -0.778,-1.726 -1.403,-2.411c-0.625,-0.684 -1.407,-1.221 -2.347,-1.612c-0.939,-0.39 -2.036,-0.587 -3.29,-0.591c-1.218,-0.003 -2.334,0.224 -3.35,0.682c-1.016,0.458 -1.875,1.054 -2.578,1.79c-0.703,0.736 -1.25,1.555 -1.64,2.457c-0.39,0.903 -0.587,1.797 -0.589,2.682l15.714,0.048Z" style="fill-rule:nonzero;"/>
    <path d="M480.569,345.13l-0,44.607" style="fill:none;stroke:black;stroke-width:17.35px;stroke-linecap:round;stroke-miterlimit:1.5;"/>
    <path d="M242.28,344.689l0,44.607" style="fill:none;stroke:black;stroke-width:17.35px;stroke-linecap:round;stroke-miterlimit:1.5;"/>
    <path d="M934.143,343.632l0,44.607" style="fill:none;stroke:black;stroke-width:17.35px;stroke-linecap:round;stroke-miterlimit:1.5;"/>
    <path d="M697.543,343.602l0,44.607" style="fill:none;stroke:black;stroke-width:17.35px;stroke-linecap:round;stroke-miterlimit:1.5;"/>
    <path d="M474.864,445.506l-16.168,-21.269l11.164,-0l11.067,16.168l10.875,-16.168l10.49,-0l-15.59,21.269l18.478,24.348l-11.164,0l-13.474,-19.151l-13.473,19.151l-10.683,0l18.478,-24.348Z" style="fill-rule:nonzero;"/>
    <path d="M235.732,444.868l-16.168,-21.269l11.164,0l11.067,16.169l10.876,-16.169l10.49,0l-15.591,21.269l18.478,24.349l-11.164,0l-13.473,-19.152l-13.474,19.152l-10.683,0l18.478,-24.349Z" style="fill-rule:nonzero;"/>
    <path d="M927.255,443.223l-16.168,-21.269l11.164,-0l11.067,16.168l10.875,-16.168l10.491,-0l-15.591,21.269l18.478,24.348l-11.164,0l-13.474,-19.152l-13.473,19.152l-10.683,0l18.478,-24.348Z" style="fill-rule:nonzero;"/>
    <path d="M691.508,445.745l-16.168,-21.269l11.164,-0l11.067,16.168l10.875,-16.168l10.49,-0l-15.591,21.269l18.479,24.348l-11.164,0l-13.474,-19.151l-13.473,19.151l-10.683,0l18.478,-24.348Z" style="fill-rule:nonzero;"/>
    <path d="M515.903,472.505l5.538,-0l-0,4.184l0.123,0c1.067,-1.559 2.533,-2.769 4.4,-3.631c1.866,-0.861 3.784,-1.292 5.753,-1.292c2.257,0 4.298,0.39 6.123,1.169c1.826,0.78 3.385,1.867 4.677,3.262c1.292,1.395 2.287,3.025 2.985,4.892c0.697,1.867 1.046,3.867 1.046,6c-0,2.174 -0.349,4.195 -1.046,6.061c-0.698,1.867 -1.693,3.487 -2.985,4.861c-1.292,1.375 -2.851,2.452 -4.677,3.231c-1.825,0.78 -3.866,1.169 -6.123,1.169c-2.092,0 -4.061,-0.441 -5.907,-1.323c-1.846,-0.882 -3.261,-2.082 -4.246,-3.6l-0.123,0l-0,21.538l-5.538,0l-0,-46.521Zm15.138,4.43c-1.477,0 -2.811,0.257 -4,0.769c-1.19,0.513 -2.195,1.211 -3.016,2.093c-0.82,0.882 -1.456,1.948 -1.907,3.2c-0.452,1.251 -0.677,2.615 -0.677,4.092c-0,1.477 0.225,2.841 0.677,4.092c0.451,1.251 1.087,2.318 1.907,3.2c0.821,0.882 1.826,1.579 3.016,2.092c1.189,0.513 2.523,0.769 4,0.769c1.476,0 2.81,-0.256 3.999,-0.769c1.19,-0.513 2.195,-1.21 3.016,-2.092c0.82,-0.882 1.456,-1.949 1.907,-3.2c0.452,-1.251 0.677,-2.615 0.677,-4.092c0,-1.477 -0.225,-2.841 -0.677,-4.092c-0.451,-1.252 -1.087,-2.318 -1.907,-3.2c-0.821,-0.882 -1.826,-1.58 -3.016,-2.093c-1.189,-0.512 -2.523,-0.769 -3.999,-0.769Z" style="fill-rule:nonzero;"/>
    <path d="M276.771,471.867l5.538,0l0,4.185l0.123,-0c1.067,-1.559 2.533,-2.769 4.4,-3.631c1.867,-0.861 3.785,-1.292 5.754,-1.292c2.256,-0 4.297,0.39 6.123,1.169c1.825,0.78 3.384,1.867 4.676,3.262c1.293,1.394 2.287,3.025 2.985,4.892c0.697,1.866 1.046,3.866 1.046,5.999c-0,2.175 -0.349,4.195 -1.046,6.062c-0.698,1.866 -1.692,3.487 -2.985,4.861c-1.292,1.375 -2.851,2.451 -4.676,3.231c-1.826,0.779 -3.867,1.169 -6.123,1.169c-2.093,0 -4.062,-0.441 -5.908,-1.323c-1.846,-0.882 -3.261,-2.082 -4.246,-3.6l-0.123,0l0,21.538l-5.538,-0l-0,-46.522Zm15.138,4.431c-1.477,-0 -2.81,0.256 -4,0.769c-1.19,0.513 -2.195,1.21 -3.015,2.092c-0.821,0.882 -1.457,1.949 -1.908,3.2c-0.451,1.252 -0.677,2.616 -0.677,4.092c0,1.477 0.226,2.841 0.677,4.093c0.451,1.251 1.087,2.318 1.908,3.2c0.82,0.882 1.825,1.579 3.015,2.092c1.19,0.513 2.523,0.769 4,0.769c1.477,0 2.81,-0.256 4,-0.769c1.189,-0.513 2.194,-1.21 3.015,-2.092c0.82,-0.882 1.456,-1.949 1.908,-3.2c0.451,-1.252 0.676,-2.616 0.676,-4.093c0,-1.476 -0.225,-2.84 -0.676,-4.092c-0.452,-1.251 -1.088,-2.318 -1.908,-3.2c-0.821,-0.882 -1.826,-1.579 -3.015,-2.092c-1.19,-0.513 -2.523,-0.769 -4,-0.769Z" style="fill-rule:nonzero;"/>
    <rect x="312.339" y="483.559" width="15.138" height="5.169" style="fill-rule:nonzero;"/>
    <path d="M346.245,464.237l-7.999,7.384l-3.446,-4.123l12.122,-10.03l5.231,-0l-0,43.568l-5.908,-0l0,-36.799Z" style="fill-rule:nonzero;"/>
    <path d="M985.401,470.221l5.538,0l0,4.185l0.123,-0c1.067,-1.559 2.533,-2.769 4.4,-3.631c1.867,-0.861 3.785,-1.292 5.754,-1.292c2.256,0 4.297,0.39 6.123,1.169c1.825,0.78 3.384,1.867 4.676,3.262c1.293,1.394 2.287,3.025 2.985,4.892c0.697,1.866 1.046,3.866 1.046,6c0,2.174 -0.349,4.194 -1.046,6.061c-0.698,1.867 -1.692,3.487 -2.985,4.861c-1.292,1.375 -2.851,2.452 -4.676,3.231c-1.826,0.779 -3.867,1.169 -6.123,1.169c-2.093,0 -4.062,-0.441 -5.908,-1.323c-1.846,-0.882 -3.261,-2.082 -4.246,-3.6l-0.123,0l0,21.538l-5.538,0l-0,-46.522Zm15.138,4.431c-1.477,0 -2.81,0.256 -4,0.769c-1.19,0.513 -2.195,1.211 -3.015,2.093c-0.821,0.882 -1.457,1.948 -1.908,3.199c-0.451,1.252 -0.677,2.616 -0.677,4.093c0,1.476 0.226,2.841 0.677,4.092c0.451,1.251 1.087,2.318 1.908,3.2c0.82,0.882 1.825,1.579 3.015,2.092c1.19,0.513 2.523,0.769 4,0.769c1.477,0 2.81,-0.256 4,-0.769c1.189,-0.513 2.194,-1.21 3.015,-2.092c0.82,-0.882 1.456,-1.949 1.908,-3.2c0.451,-1.251 0.677,-2.616 0.677,-4.092c-0,-1.477 -0.226,-2.841 -0.677,-4.093c-0.452,-1.251 -1.088,-2.317 -1.908,-3.199c-0.821,-0.882 -1.826,-1.58 -3.015,-2.093c-1.19,-0.513 -2.523,-0.769 -4,-0.769Z" style="fill-rule:nonzero;"/>
    <path d="M1022.88,478.344l14.03,0l-0,-14.03l4.8,-0l-0,14.03l14.03,0l0,4.8l-14.03,0l-0,14.03l-4.8,0l-0,-14.03l-14.03,0l-0,-4.8Z" style="fill-rule:nonzero;"/>
    <path d="M1062.63,493.113l17.476,-17.353c0.616,-0.575 1.211,-1.2 1.785,-1.877c0.574,-0.677 1.087,-1.385 1.538,-2.123c0.452,-0.739 0.811,-1.518 1.077,-2.339c0.267,-0.82 0.4,-1.681 0.4,-2.584c0,-1.067 -0.195,-2.031 -0.584,-2.892c-0.39,-0.862 -0.923,-1.59 -1.6,-2.185c-0.677,-0.595 -1.477,-1.056 -2.4,-1.384c-0.923,-0.329 -1.898,-0.493 -2.923,-0.493c-2.133,0 -3.897,0.595 -5.292,1.785c-1.395,1.19 -2.277,2.831 -2.646,4.923l-6.4,-0.554c0.287,-1.928 0.851,-3.6 1.692,-5.015c0.841,-1.416 1.887,-2.595 3.138,-3.539c1.252,-0.943 2.688,-1.641 4.308,-2.092c1.62,-0.451 3.374,-0.677 5.261,-0.677c1.887,0 3.662,0.257 5.323,0.769c1.662,0.513 3.118,1.272 4.369,2.277c1.252,1.005 2.236,2.257 2.954,3.754c0.718,1.497 1.077,3.251 1.077,5.261c0,1.436 -0.215,2.78 -0.646,4.031c-0.431,1.251 -0.995,2.431 -1.692,3.538c-0.698,1.108 -1.498,2.154 -2.4,3.139c-0.903,0.984 -1.846,1.948 -2.831,2.892l-14.338,13.846l21.907,-0l0,5.169l-28.553,-0l0,-6.277Z" style="fill-rule:nonzero;"/>
    <path d="M732.546,472.744l5.539,-0l-0,4.184l0.123,0c1.066,-1.559 2.533,-2.769 4.4,-3.631c1.866,-0.861 3.784,-1.292 5.753,-1.292c2.257,0 4.298,0.39 6.123,1.169c1.826,0.78 3.385,1.867 4.677,3.262c1.292,1.395 2.287,3.025 2.984,4.892c0.698,1.866 1.047,3.866 1.047,6c-0,2.174 -0.349,4.194 -1.047,6.061c-0.697,1.867 -1.692,3.487 -2.984,4.861c-1.292,1.375 -2.851,2.452 -4.677,3.231c-1.825,0.78 -3.866,1.169 -6.123,1.169c-2.092,0 -4.061,-0.441 -5.907,-1.323c-1.846,-0.882 -3.262,-2.082 -4.246,-3.6l-0.123,0l-0,21.538l-5.539,0l0,-46.521Zm15.138,4.43c-1.476,0 -2.81,0.257 -3.999,0.769c-1.19,0.513 -2.195,1.211 -3.016,2.093c-0.82,0.882 -1.456,1.948 -1.907,3.2c-0.452,1.251 -0.677,2.615 -0.677,4.092c-0,1.477 0.225,2.841 0.677,4.092c0.451,1.251 1.087,2.318 1.907,3.2c0.821,0.882 1.826,1.579 3.016,2.092c1.189,0.513 2.523,0.769 3.999,0.769c1.477,0 2.811,-0.256 4,-0.769c1.19,-0.513 2.195,-1.21 3.016,-2.092c0.82,-0.882 1.456,-1.949 1.907,-3.2c0.451,-1.251 0.677,-2.615 0.677,-4.092c0,-1.477 -0.226,-2.841 -0.677,-4.092c-0.451,-1.252 -1.087,-2.318 -1.907,-3.2c-0.821,-0.882 -1.826,-1.58 -3.016,-2.093c-1.189,-0.512 -2.523,-0.769 -4,-0.769Z" style="fill-rule:nonzero;"/>
    <path d="M770.022,480.866l14.03,0l0,-14.03l4.8,0l0,14.03l14.031,0l-0,4.8l-14.031,0l0,14.031l-4.8,-0l0,-14.031l-14.03,0l0,-4.8Z" style="fill-rule:nonzero;"/>
    <path d="M823.559,465.113l-8,7.384l-3.446,-4.123l12.123,-10.03l5.23,0l0,43.568l-5.907,-0l-0,-36.799Z" style="fill-rule:nonzero;"/>
    <path d="M135.582,438.396c-0,4.789 -3.888,8.677 -8.677,8.677c-4.789,0 -8.677,-3.888 -8.677,-8.677l-0,-15.961c-0,-4.789 3.888,-8.677 8.677,-8.677c4.789,-0 8.677,3.888 8.677,8.677l-0,15.961Zm-0,-83.8c-0,4.789 -3.888,8.677 -8.677,8.677c-4.789,-0 -8.677,-3.888 -8.677,-8.677l-0,-15.962c-0,-4.789 3.888,-8.677 8.677,-8.677c4.789,0 8.677,3.888 8.677,8.677l-0,15.962Z" style="fill:rgb(94,133,194);fill-opacity:0.65;"/>
    <path d="M367.357,439.629c-0,4.789 -3.888,8.677 -8.677,8.677c-4.789,0 -8.677,-3.888 -8.677,-8.677l-0,-10.17c-0,-4.789 3.888,-8.677 8.677,-8.677c4.789,0 8.677,3.888 8.677,8.677l-0,10.17Zm-0,-53.391c-0,4.789 -3.888,8.677 -8.677,8.677c-4.789,-0 -8.677,-3.888 -8.677,-8.677l-0,-20.34c-0,-4.789 3.888,-8.677 8.677,-8.677c4.789,-0 8.677,3.888 8.677,8.677l-0,20.34Zm-0,-63.561c-0,4.789 -3.888,8.677 -8.677,8.677c-4.789,-0 -8.677,-3.888 -8.677,-8.677l-0,-20.34c-0,-4.789 3.888,-8.677 8.677,-8.677c4.789,0 8.677,3.888 8.677,8.677l-0,20.34Zm-0,-63.562c-0,4.789 -3.888,8.677 -8.677,8.677c-4.789,0 -8.677,-3.888 -8.677,-8.677l-0,-20.339c-0,-4.789 3.888,-8.677 8.677,-8.677c4.789,-0 8.677,3.888 8.677,8.677l-0,20.339Zm-0,-63.561c-0,4.789 -3.888,8.677 -8.677,8.677c-4.789,0 -8.677,-3.888 -8.677,-8.677l-0,-10.17c-0,-4.789 3.888,-8.677 8.677,-8.677c4.789,0 8.677,3.888 8.677,8.677l-0,10.17Z" style="fill:rgb(94,133,194);fill-opacity:0.65;"/>
    <path d="M598.54,438.749c0,4.789 -3.888,8.677 -8.677,8.677c-4.789,-0 -8.677,-3.888 -8.677,-8.677l0,-10.17c0,-4.789 3.888,-8.677 8.677,-8.677c4.789,-0 8.677,3.888 8.677,8.677l0,10.17Zm0,-53.392c0,4.789 -3.888,8.677 -8.677,8.677c-4.789,-0 -8.677,-3.888 -8.677,-8.677l0,-20.34c0,-4.789 3.888,-8.677 8.677,-8.677c4.789,0 8.677,3.888 8.677,8.677l0,20.34Zm0,-63.561c0,4.789 -3.888,8.677 -8.677,8.677c-4.789,-0 -8.677,-3.888 -8.677,-8.677l0,-20.34c0,-4.789 3.888,-8.677 8.677,-8.677c4.789,0 8.677,3.888 8.677,8.677l0,20.34Zm0,-63.561c0,4.789 -3.888,8.677 -8.677,8.677c-4.789,-0 -8.677,-3.888 -8.677,-8.677l0,-20.34c0,-4.789 3.888,-8.677 8.677,-8.677c4.789,0 8.677,3.888 8.677,8.677l0,20.34Zm0,-63.561c0,4.788 -3.888,8.676 -8.677,8.676c-4.789,0 -8.677,-3.888 -8.677,-8.676l0,-10.17c0,-4.789 3.888,-8.677 8.677,-8.677c4.789,-0 8.677,3.888 8.677,8.677l0,10.17Z" style="fill:rgb(94,133,194);fill-opacity:0.65;"/>
    <path d="M824.969,442.359c-0,4.789 -3.888,8.677 -8.677,8.677c-4.789,-0 -8.677,-3.888 -8.677,-8.677l-0,-10.17c-0,-4.789 3.888,-8.677 8.677,-8.677c4.789,0 8.677,3.888 8.677,8.677l-0,10.17Zm-0,-53.392c-0,4.789 -3.888,8.677 -8.677,8.677c-4.789,0 -8.677,-3.888 -8.677,-8.677l-0,-20.339c-0,-4.789 3.888,-8.677 8.677,-8.677c4.789,-0 8.677,3.888 8.677,8.677l-0,20.339Zm-0,-63.561c-0,4.789 -3.888,8.677 -8.677,8.677c-4.789,0 -8.677,-3.888 -8.677,-8.677l-0,-20.339c-0,-4.789 3.888,-8.677 8.677,-8.677c4.789,-0 8.677,3.888 8.677,8.677l-0,20.339Zm-0,-63.561c-0,4.789 -3.888,8.677 -8.677,8.677c-4.789,0 -8.677,-3.888 -8.677,-8.677l-0,-20.339c-0,-4.789 3.888,-8.677 8.677,-8.677c4.789,-0 8.677,3.888 8.677,8.677l-0,20.339Zm-0,-63.561c-0,4.789 -3.888,8.677 -8.677,8.677c-4.789,-0 -8.677,-3.888 -8.677,-8.677l-0,-10.17c-0,-4.789 3.888,-8.677 8.677,-8.677c4.789,0 8.677,3.888 8.677,8.677l-0,10.17Z" style="fill:rgb(94,133,194);fill-opacity:0.65;"/>
    <path d="M1050.82,437.407c-0,4.789 -3.888,8.677 -8.677,8.677c-4.789,0 -8.677,-3.888 -8.677,-8.677l-0,-10.17c-0,-4.789 3.888,-8.677 8.677,-8.677c4.789,0 8.677,3.888 8.677,8.677l-0,10.17Zm-0,-53.391c-0,4.789 -3.888,8.677 -8.677,8.677c-4.789,-0 -8.677,-3.888 -8.677,-8.677l-0,-20.34c-0,-4.789 3.888,-8.677 8.677,-8.677c4.789,0 8.677,3.888 8.677,8.677l-0,20.34Zm-0,-63.561c-0,4.789 -3.888,8.677 -8.677,8.677c-4.789,-0 -8.677,-3.888 -8.677,-8.677l-0,-20.34c-0,-4.789 3.888,-8.677 8.677,-8.677c4.789,0 8.677,3.888 8.677,8.677l-0,20.34Zm-0,-63.561c-0,4.789 -3.888,8.677 -8.677,8.677c-4.789,-0 -8.677,-3.888 -8.677,-8.677l-0,-20.34c-0,-4.789 3.888,-8.677 8.677,-8.677c4.789,-0 8.677,3.888 8.677,8.677l-0,20.34Zm-0,-63.562c-0,4.789 -3.888,8.677 -8.677,8.677c-4.789,0 -8.677,-3.888 -8.677,-8.677l-0,-10.17c-0,-4.789 3.888,-8.677 8.677,-8.677c4.789,0 8.677,3.888 8.677,8.677l-0,10.17Z" style="fill:rgb(94,133,194);fill-opacity:0.65;"/>
    <path d="M419.905,123.8c-1.017,-1.058 -2.085,-1.862 -3.204,-2.411c-1.119,-0.549 -2.452,-0.824 -3.998,-0.824c-1.506,-0 -2.818,0.275 -3.937,0.824c-1.12,0.549 -2.056,1.302 -2.808,2.258c-0.753,0.957 -1.323,2.055 -1.709,3.297c-0.387,1.241 -0.58,2.533 -0.58,3.876c-0,1.343 0.223,2.614 0.671,3.815c0.448,1.2 1.078,2.248 1.892,3.143c0.814,0.896 1.791,1.597 2.93,2.106c1.14,0.509 2.422,0.763 3.846,0.763c1.546,0 2.869,-0.275 3.967,-0.824c1.099,-0.549 2.117,-1.353 3.052,-2.411l3.907,3.907c-1.424,1.587 -3.082,2.726 -4.975,3.418c-1.892,0.692 -3.896,1.038 -6.012,1.038c-2.238,-0 -4.283,-0.367 -6.135,-1.099c-1.851,-0.733 -3.449,-1.76 -4.791,-3.083c-1.343,-1.322 -2.381,-2.909 -3.114,-4.761c-0.732,-1.851 -1.098,-3.896 -1.098,-6.134c-0,-2.239 0.366,-4.294 1.098,-6.166c0.733,-1.871 1.76,-3.479 3.083,-4.822c1.323,-1.343 2.91,-2.39 4.761,-3.143c1.852,-0.753 3.917,-1.13 6.196,-1.13c2.116,0 4.14,0.377 6.073,1.13c1.933,0.753 3.612,1.902 5.036,3.448l-4.151,3.785Z" style="fill-rule:nonzero;"/>
    <path d="M432.785,132.59c-0,1.261 0.275,2.411 0.824,3.449c0.549,1.037 1.272,1.922 2.167,2.655c0.895,0.732 1.933,1.302 3.113,1.709c1.18,0.407 2.401,0.61 3.662,0.61c1.71,0 3.195,-0.396 4.456,-1.19c1.262,-0.793 2.422,-1.841 3.48,-3.143l4.15,3.174c-3.052,3.947 -7.324,5.921 -12.818,5.921c-2.279,-0 -4.344,-0.387 -6.196,-1.16c-1.851,-0.773 -3.418,-1.842 -4.7,-3.205c-1.282,-1.363 -2.268,-2.97 -2.96,-4.822c-0.692,-1.852 -1.038,-3.856 -1.038,-6.013c0,-2.156 0.376,-4.16 1.129,-6.012c0.753,-1.852 1.791,-3.459 3.113,-4.822c1.323,-1.363 2.9,-2.432 4.731,-3.205c1.831,-0.773 3.825,-1.16 5.982,-1.16c2.564,0 4.731,0.448 6.501,1.343c1.77,0.896 3.225,2.065 4.364,3.51c1.14,1.445 1.964,3.072 2.472,4.883c0.509,1.811 0.763,3.653 0.763,5.525l0,1.953l-23.195,-0Zm17.335,-4.395c-0.04,-1.221 -0.234,-2.34 -0.579,-3.357c-0.346,-1.018 -0.865,-1.903 -1.557,-2.656c-0.692,-0.752 -1.556,-1.342 -2.594,-1.77c-1.038,-0.427 -2.248,-0.641 -3.632,-0.641c-1.343,0 -2.574,0.255 -3.693,0.763c-1.119,0.509 -2.065,1.17 -2.838,1.984c-0.774,0.814 -1.374,1.719 -1.801,2.716c-0.427,0.997 -0.641,1.984 -0.641,2.961l17.335,-0Z" style="fill-rule:nonzero;"/>
    <rect x="463" y="98.895" width="5.494" height="46.147" style="fill-rule:nonzero;"/>
    <rect x="477.65" y="98.895" width="5.494" height="46.147" style="fill-rule:nonzero;"/>
    <path d="M508.841,116.109l5.494,-0l0,4.151l0.122,-0c1.058,-1.547 2.513,-2.747 4.365,-3.602c1.851,-0.854 3.754,-1.282 5.707,-1.282c2.238,0 4.263,0.387 6.073,1.16c1.811,0.773 3.358,1.852 4.64,3.235c1.281,1.384 2.268,3.001 2.96,4.853c0.692,1.852 1.038,3.835 1.038,5.951c-0,2.157 -0.346,4.161 -1.038,6.013c-0.692,1.852 -1.679,3.459 -2.96,4.822c-1.282,1.363 -2.829,2.432 -4.64,3.205c-1.81,0.773 -3.835,1.16 -6.073,1.16c-2.075,-0 -4.029,-0.438 -5.86,-1.313c-1.831,-0.875 -3.235,-2.065 -4.212,-3.571l-0.122,0l0,21.365l-5.494,-0l0,-46.147Zm15.016,4.395c-1.465,-0 -2.787,0.254 -3.967,0.763c-1.18,0.508 -2.177,1.2 -2.991,2.075c-0.814,0.875 -1.445,1.933 -1.892,3.174c-0.448,1.241 -0.672,2.594 -0.672,4.059c0,1.465 0.224,2.819 0.672,4.06c0.447,1.241 1.078,2.299 1.892,3.174c0.814,0.875 1.811,1.566 2.991,2.075c1.18,0.509 2.502,0.763 3.967,0.763c1.465,0 2.788,-0.254 3.968,-0.763c1.18,-0.509 2.177,-1.2 2.991,-2.075c0.814,-0.875 1.445,-1.933 1.892,-3.174c0.448,-1.241 0.672,-2.595 0.672,-4.06c-0,-1.465 -0.224,-2.818 -0.672,-4.059c-0.447,-1.241 -1.078,-2.299 -1.892,-3.174c-0.814,-0.875 -1.811,-1.567 -2.991,-2.075c-1.18,-0.509 -2.503,-0.763 -3.968,-0.763Z" style="fill-rule:nonzero;"/>
    <path d="M46.623,23.768l-8.044,0l-0,9.873c-0,0.812 0.04,1.554 0.122,2.224c0.081,0.671 0.264,1.25 0.548,1.737c0.285,0.488 0.721,0.864 1.31,1.128c0.59,0.264 1.372,0.396 2.347,0.396c0.487,-0 1.127,-0.051 1.92,-0.153c0.792,-0.101 1.391,-0.335 1.797,-0.7l0,7.618c-1.015,0.365 -2.072,0.609 -3.169,0.731c-1.097,0.122 -2.173,0.183 -3.23,0.183c-1.544,-0 -2.966,-0.163 -4.266,-0.488c-1.3,-0.325 -2.437,-0.843 -3.413,-1.554c-0.975,-0.711 -1.736,-1.635 -2.285,-2.773c-0.548,-1.137 -0.823,-2.519 -0.823,-4.144l0,-14.078l-5.85,0l-0,-7.313l5.85,-0l0,-8.776l9.142,-0l-0,8.776l8.044,-0l0,7.313Z" style="fill-rule:nonzero;"/>
    <path d="M51.255,16.455l9.142,-0l-0,4.753l0.122,0c0.975,-1.828 2.133,-3.199 3.473,-4.113c1.341,-0.914 3.027,-1.372 5.059,-1.372c0.528,0 1.056,0.021 1.584,0.061c0.528,0.041 1.016,0.122 1.463,0.244l-0,8.349c-0.65,-0.203 -1.29,-0.355 -1.92,-0.457c-0.63,-0.101 -1.29,-0.152 -1.981,-0.152c-1.747,0 -3.128,0.244 -4.144,0.731c-1.015,0.488 -1.798,1.168 -2.346,2.042c-0.549,0.873 -0.904,1.92 -1.067,3.139c-0.162,1.218 -0.243,2.559 -0.243,4.022l-0,12.371l-9.142,0l0,-29.618Z" style="fill-rule:nonzero;"/>
    <path d="M76.181,16.455l9.142,-0l-0,29.618l-9.142,0l0,-29.618Zm-0.731,-9.325c-0,-1.462 0.518,-2.712 1.554,-3.748c1.036,-1.036 2.285,-1.554 3.748,-1.554c1.462,0 2.712,0.518 3.748,1.554c1.036,1.036 1.554,2.286 1.554,3.748c-0,1.463 -0.518,2.712 -1.554,3.748c-1.036,1.036 -2.286,1.555 -3.748,1.555c-1.463,-0 -2.712,-0.519 -3.748,-1.555c-1.036,-1.036 -1.554,-2.285 -1.554,-3.748Z" style="fill-rule:nonzero;"/>
    <path d="M110.492,42.356l-0.122,-0c-1.015,1.584 -2.366,2.722 -4.052,3.413c-1.686,0.69 -3.464,1.036 -5.333,1.036c-1.381,-0 -2.712,-0.193 -3.992,-0.579c-1.279,-0.386 -2.407,-0.965 -3.382,-1.737c-0.975,-0.772 -1.747,-1.727 -2.316,-2.864c-0.569,-1.138 -0.853,-2.459 -0.853,-3.962c-0,-1.706 0.315,-3.149 0.945,-4.327c0.629,-1.178 1.482,-2.153 2.559,-2.925c1.077,-0.772 2.306,-1.371 3.687,-1.798c1.382,-0.427 2.814,-0.741 4.297,-0.945c1.483,-0.203 2.966,-0.325 4.449,-0.365c1.483,-0.041 2.854,-0.061 4.113,-0.061c0,-1.625 -0.579,-2.915 -1.737,-3.87c-1.157,-0.955 -2.529,-1.432 -4.113,-1.432c-1.504,-0 -2.875,0.315 -4.114,0.944c-1.239,0.63 -2.346,1.493 -3.321,2.59l-4.876,-4.997c1.707,-1.584 3.697,-2.773 5.973,-3.565c2.275,-0.792 4.631,-1.189 7.069,-1.189c2.682,0 4.886,0.336 6.612,1.006c1.727,0.67 3.109,1.656 4.145,2.956c1.036,1.3 1.757,2.895 2.163,4.784c0.406,1.889 0.61,4.073 0.61,6.551l-0,15.053l-8.411,0l0,-3.717Zm-2.255,-9.264c-0.69,0 -1.554,0.031 -2.59,0.092c-1.036,0.061 -2.031,0.233 -2.986,0.518c-0.955,0.284 -1.767,0.711 -2.438,1.28c-0.67,0.568 -1.005,1.361 -1.005,2.376c-0,1.097 0.467,1.91 1.401,2.438c0.935,0.528 1.91,0.792 2.926,0.792c0.894,0 1.757,-0.121 2.59,-0.365c0.833,-0.244 1.574,-0.589 2.224,-1.036c0.65,-0.447 1.168,-1.016 1.554,-1.707c0.386,-0.69 0.579,-1.503 0.579,-2.437l0,-1.951l-2.255,0Z" style="fill-rule:nonzero;"/>
    <path d="M124.631,16.455l8.776,-0l0,4.022l0.122,0c0.284,-0.569 0.691,-1.138 1.219,-1.706c0.528,-0.569 1.158,-1.077 1.889,-1.524c0.732,-0.447 1.564,-0.813 2.499,-1.097c0.934,-0.284 1.95,-0.427 3.047,-0.427c2.316,0 4.185,0.356 5.607,1.067c1.422,0.711 2.529,1.696 3.321,2.956c0.793,1.259 1.331,2.742 1.615,4.449c0.285,1.706 0.427,3.555 0.427,5.546l-0,16.332l-9.142,0l0,-14.504c0,-0.853 -0.03,-1.737 -0.091,-2.651c-0.061,-0.914 -0.244,-1.757 -0.549,-2.529c-0.304,-0.772 -0.771,-1.402 -1.401,-1.89c-0.63,-0.487 -1.534,-0.731 -2.712,-0.731c-1.178,0 -2.133,0.213 -2.865,0.64c-0.731,0.427 -1.29,0.995 -1.676,1.706c-0.386,0.711 -0.639,1.514 -0.761,2.408c-0.122,0.893 -0.183,1.828 -0.183,2.803l-0,14.748l-9.142,0l0,-29.618Z" style="fill-rule:nonzero;"/>
    <path d="M190.694,43.575c0,5.607 -1.412,9.862 -4.235,12.767c-2.824,2.905 -7.121,4.358 -12.89,4.358c-2.641,-0 -5.241,-0.295 -7.801,-0.884c-2.559,-0.589 -4.916,-1.737 -7.069,-3.443l5.058,-7.557c1.422,1.178 2.915,2.113 4.479,2.803c1.565,0.691 3.281,1.036 5.15,1.036c2.804,0 4.866,-0.68 6.186,-2.041c1.32,-1.361 1.981,-3.098 1.981,-5.211l-0,-2.864l-0.122,-0c-1.057,1.422 -2.367,2.427 -3.931,3.016c-1.564,0.59 -3.037,0.884 -4.418,0.884c-2.194,0 -4.185,-0.376 -5.973,-1.127c-1.788,-0.752 -3.321,-1.808 -4.601,-3.169c-1.28,-1.362 -2.265,-2.977 -2.956,-4.845c-0.691,-1.869 -1.036,-3.921 -1.036,-6.156c-0,-1.95 0.315,-3.86 0.945,-5.728c0.629,-1.869 1.523,-3.515 2.681,-4.937c1.158,-1.422 2.57,-2.57 4.236,-3.443c1.666,-0.874 3.555,-1.311 5.667,-1.311c1.301,0 2.489,0.143 3.566,0.427c1.076,0.284 2.041,0.65 2.895,1.097c0.853,0.447 1.584,0.945 2.193,1.493c0.61,0.549 1.097,1.087 1.463,1.615l0.122,0l0,-3.9l8.41,-0l0,27.12Zm-23.036,-12.494c-0,0.975 0.182,1.9 0.548,2.773c0.366,0.874 0.884,1.646 1.554,2.316c0.67,0.67 1.442,1.209 2.316,1.615c0.873,0.406 1.838,0.61 2.895,0.61c1.015,-0 1.97,-0.204 2.864,-0.61c0.894,-0.406 1.676,-0.945 2.346,-1.615c0.671,-0.67 1.189,-1.442 1.555,-2.316c0.365,-0.873 0.548,-1.798 0.548,-2.773c0,-0.975 -0.183,-1.899 -0.548,-2.773c-0.366,-0.873 -0.884,-1.645 -1.555,-2.316c-0.67,-0.67 -1.452,-1.208 -2.346,-1.615c-0.894,-0.406 -1.849,-0.609 -2.864,-0.609c-1.057,0 -2.022,0.203 -2.895,0.609c-0.874,0.407 -1.646,0.945 -2.316,1.615c-0.67,0.671 -1.188,1.443 -1.554,2.316c-0.366,0.874 -0.548,1.798 -0.548,2.773Z" style="fill-rule:nonzero;"/>
    <path d="M226.529,46.073l-8.776,0l0,-4.022l-0.122,0c-0.325,0.569 -0.741,1.138 -1.249,1.707c-0.508,0.568 -1.127,1.076 -1.859,1.523c-0.731,0.447 -1.564,0.813 -2.498,1.097c-0.935,0.285 -1.951,0.427 -3.048,0.427c-2.316,-0 -4.195,-0.356 -5.637,-1.067c-1.442,-0.711 -2.56,-1.696 -3.352,-2.956c-0.792,-1.259 -1.32,-2.742 -1.584,-4.448c-0.264,-1.707 -0.397,-3.555 -0.397,-5.546l0,-16.333l9.142,-0l0,14.504c0,0.854 0.031,1.737 0.091,2.651c0.061,0.915 0.244,1.758 0.549,2.53c0.305,0.772 0.772,1.401 1.402,1.889c0.629,0.487 1.533,0.731 2.712,0.731c1.178,0 2.133,-0.213 2.864,-0.64c0.731,-0.426 1.29,-0.995 1.676,-1.706c0.386,-0.711 0.64,-1.514 0.762,-2.407c0.122,-0.894 0.183,-1.829 0.183,-2.804l-0,-14.748l9.141,-0l0,29.618Z" style="fill-rule:nonzero;"/>
    <rect x="233.111" y="0" width="9.142" height="46.073" style="fill-rule:nonzero;"/>
    <path d="M267.422,42.356l-0.122,-0c-1.015,1.584 -2.366,2.722 -4.052,3.413c-1.686,0.69 -3.464,1.036 -5.333,1.036c-1.381,-0 -2.712,-0.193 -3.992,-0.579c-1.28,-0.386 -2.407,-0.965 -3.382,-1.737c-0.975,-0.772 -1.747,-1.727 -2.316,-2.864c-0.569,-1.138 -0.853,-2.459 -0.853,-3.962c-0,-1.706 0.315,-3.149 0.944,-4.327c0.63,-1.178 1.483,-2.153 2.56,-2.925c1.077,-0.772 2.306,-1.371 3.687,-1.798c1.382,-0.427 2.814,-0.741 4.297,-0.945c1.483,-0.203 2.966,-0.325 4.449,-0.365c1.483,-0.041 2.854,-0.061 4.113,-0.061c0,-1.625 -0.579,-2.915 -1.737,-3.87c-1.157,-0.955 -2.529,-1.432 -4.113,-1.432c-1.504,-0 -2.875,0.315 -4.114,0.944c-1.239,0.63 -2.346,1.493 -3.321,2.59l-4.876,-4.997c1.707,-1.584 3.697,-2.773 5.973,-3.565c2.275,-0.792 4.631,-1.189 7.069,-1.189c2.682,0 4.886,0.336 6.612,1.006c1.727,0.67 3.109,1.656 4.145,2.956c1.036,1.3 1.757,2.895 2.163,4.784c0.406,1.889 0.61,4.073 0.61,6.551l-0,15.053l-8.411,0l0,-3.717Zm-2.255,-9.264c-0.69,0 -1.554,0.031 -2.59,0.092c-1.036,0.061 -2.031,0.233 -2.986,0.518c-0.955,0.284 -1.767,0.711 -2.438,1.28c-0.67,0.568 -1.005,1.361 -1.005,2.376c-0,1.097 0.467,1.91 1.401,2.438c0.935,0.528 1.91,0.792 2.926,0.792c0.894,0 1.757,-0.121 2.59,-0.365c0.833,-0.244 1.574,-0.589 2.224,-1.036c0.65,-0.447 1.168,-1.016 1.554,-1.707c0.386,-0.69 0.579,-1.503 0.579,-2.437l0,-1.951l-2.255,0Z" style="fill-rule:nonzero;"/>
    <path d="M281.561,16.455l9.142,-0l-0,4.753l0.122,0c0.975,-1.828 2.133,-3.199 3.473,-4.113c1.341,-0.914 3.027,-1.372 5.059,-1.372c0.528,0 1.056,0.021 1.584,0.061c0.529,0.041 1.016,0.122 1.463,0.244l-0,8.349c-0.65,-0.203 -1.29,-0.355 -1.92,-0.457c-0.629,-0.101 -1.29,-0.152 -1.98,-0.152c-1.747,0 -3.129,0.244 -4.145,0.731c-1.015,0.488 -1.797,1.168 -2.346,2.042c-0.548,0.873 -0.904,1.92 -1.066,3.139c-0.163,1.218 -0.244,2.559 -0.244,4.022l-0,12.371l-9.142,0l0,-29.618Z" style="fill-rule:nonzero;"/>
    <path d="M341.164,25.17c-1.341,-1.666 -3.108,-2.499 -5.302,-2.499c-0.772,0 -1.524,0.183 -2.255,0.549c-0.731,0.365 -1.097,0.995 -1.097,1.889c0,0.731 0.376,1.269 1.128,1.615c0.751,0.345 1.706,0.65 2.864,0.914c1.158,0.264 2.397,0.548 3.718,0.853c1.32,0.305 2.559,0.782 3.717,1.432c1.158,0.65 2.113,1.534 2.864,2.651c0.752,1.118 1.128,2.611 1.128,4.48c-0,1.909 -0.417,3.484 -1.249,4.723c-0.833,1.239 -1.9,2.234 -3.2,2.986c-1.3,0.752 -2.763,1.28 -4.388,1.585c-1.625,0.304 -3.23,0.457 -4.814,0.457c-2.073,-0 -4.165,-0.295 -6.278,-0.884c-2.112,-0.589 -3.9,-1.635 -5.363,-3.139l5.546,-6.155c0.853,1.057 1.798,1.859 2.834,2.407c1.036,0.549 2.245,0.823 3.626,0.823c1.057,0 2.011,-0.152 2.865,-0.457c0.853,-0.305 1.279,-0.863 1.279,-1.676c0,-0.772 -0.375,-1.351 -1.127,-1.737c-0.752,-0.386 -1.707,-0.711 -2.864,-0.975c-1.158,-0.264 -2.398,-0.548 -3.718,-0.853c-1.32,-0.305 -2.56,-0.762 -3.718,-1.371c-1.157,-0.61 -2.112,-1.473 -2.864,-2.59c-0.752,-1.118 -1.127,-2.611 -1.127,-4.48c-0,-1.747 0.355,-3.25 1.066,-4.51c0.711,-1.259 1.646,-2.295 2.804,-3.108c1.157,-0.812 2.488,-1.412 3.991,-1.798c1.504,-0.386 3.027,-0.579 4.571,-0.579c1.95,0 3.921,0.285 5.912,0.854c1.99,0.568 3.677,1.584 5.058,3.047l-5.607,5.546Z" style="fill-rule:nonzero;"/>
    <path d="M361.763,0l0,20.477l0.122,0c0.203,-0.569 0.549,-1.138 1.036,-1.706c0.488,-0.569 1.077,-1.077 1.767,-1.524c0.691,-0.447 1.504,-0.813 2.438,-1.097c0.935,-0.284 1.95,-0.427 3.047,-0.427c2.316,0 4.185,0.356 5.607,1.067c1.422,0.711 2.529,1.696 3.322,2.956c0.792,1.259 1.33,2.742 1.615,4.449c0.284,1.706 0.426,3.555 0.426,5.546l0,16.332l-9.141,0l-0,-14.504c-0,-0.853 -0.031,-1.737 -0.092,-2.651c-0.061,-0.914 -0.244,-1.757 -0.548,-2.529c-0.305,-0.772 -0.772,-1.402 -1.402,-1.89c-0.63,-0.487 -1.534,-0.731 -2.712,-0.731c-1.178,0 -2.133,0.213 -2.864,0.64c-0.732,0.427 -1.29,0.995 -1.676,1.706c-0.386,0.711 -0.64,1.514 -0.762,2.408c-0.122,0.893 -0.183,1.828 -0.183,2.803l0,14.748l-9.141,0l-0,-46.073l9.141,-0Z" style="fill-rule:nonzero;"/>
    <path d="M406.191,42.356l-0.122,-0c-1.016,1.584 -2.366,2.722 -4.053,3.413c-1.686,0.69 -3.463,1.036 -5.332,1.036c-1.382,-0 -2.712,-0.193 -3.992,-0.579c-1.28,-0.386 -2.407,-0.965 -3.382,-1.737c-0.975,-0.772 -1.747,-1.727 -2.316,-2.864c-0.569,-1.138 -0.853,-2.459 -0.853,-3.962c-0,-1.706 0.314,-3.149 0.944,-4.327c0.63,-1.178 1.483,-2.153 2.56,-2.925c1.077,-0.772 2.306,-1.371 3.687,-1.798c1.381,-0.427 2.814,-0.741 4.296,-0.945c1.483,-0.203 2.966,-0.325 4.449,-0.365c1.483,-0.041 2.855,-0.061 4.114,-0.061c0,-1.625 -0.579,-2.915 -1.737,-3.87c-1.158,-0.955 -2.529,-1.432 -4.114,-1.432c-1.503,-0 -2.874,0.315 -4.113,0.944c-1.239,0.63 -2.347,1.493 -3.322,2.59l-4.875,-4.997c1.706,-1.584 3.697,-2.773 5.972,-3.565c2.276,-0.792 4.632,-1.189 7.07,-1.189c2.681,0 4.885,0.336 6.612,1.006c1.727,0.67 3.108,1.656 4.144,2.956c1.036,1.3 1.758,2.895 2.164,4.784c0.406,1.889 0.609,4.073 0.609,6.551l0,15.053l-8.41,0l0,-3.717Zm-2.255,-9.264c-0.691,0 -1.554,0.031 -2.59,0.092c-1.036,0.061 -2.031,0.233 -2.986,0.518c-0.955,0.284 -1.768,0.711 -2.438,1.28c-0.67,0.568 -1.006,1.361 -1.006,2.376c0,1.097 0.468,1.91 1.402,2.438c0.935,0.528 1.91,0.792 2.925,0.792c0.894,0 1.758,-0.121 2.591,-0.365c0.832,-0.244 1.574,-0.589 2.224,-1.036c0.65,-0.447 1.168,-1.016 1.554,-1.707c0.386,-0.69 0.579,-1.503 0.579,-2.437l0,-1.951l-2.255,0Z" style="fill-rule:nonzero;"/>
    <path d="M421.183,16.455l8.41,-0l0,3.9l0.122,0c0.366,-0.528 0.843,-1.066 1.433,-1.615c0.589,-0.548 1.279,-1.046 2.072,-1.493c0.792,-0.447 1.655,-0.813 2.59,-1.097c0.934,-0.284 1.93,-0.427 2.986,-0.427c2.194,0 4.185,0.376 5.972,1.128c1.788,0.752 3.322,1.808 4.602,3.169c1.279,1.361 2.265,2.976 2.955,4.845c0.691,1.869 1.036,3.921 1.036,6.155c0,2.072 -0.314,4.053 -0.944,5.942c-0.63,1.89 -1.524,3.566 -2.682,5.028c-1.158,1.463 -2.569,2.631 -4.235,3.504c-1.666,0.874 -3.555,1.311 -5.668,1.311c-1.91,-0 -3.687,-0.295 -5.333,-0.884c-1.645,-0.589 -2.996,-1.595 -4.052,-3.017l-0.122,0l-0,17.065l-9.142,-0l0,-43.514Zm8.41,14.809c0,2.235 0.64,4.043 1.92,5.424c1.28,1.381 3.078,2.072 5.394,2.072c2.316,0 4.113,-0.691 5.393,-2.072c1.28,-1.381 1.92,-3.189 1.92,-5.424c-0,-2.234 -0.64,-4.042 -1.92,-5.424c-1.28,-1.381 -3.077,-2.072 -5.393,-2.072c-2.316,0 -4.114,0.691 -5.394,2.072c-1.28,1.382 -1.92,3.19 -1.92,5.424Z" style="fill-rule:nonzero;"/>
    <path d="M486.759,40.954c-1.463,1.869 -3.312,3.311 -5.546,4.327c-2.235,1.016 -4.551,1.524 -6.948,1.524c-2.275,-0 -4.418,-0.366 -6.429,-1.097c-2.012,-0.732 -3.759,-1.778 -5.242,-3.139c-1.483,-1.361 -2.651,-2.996 -3.504,-4.906c-0.853,-1.909 -1.28,-4.042 -1.28,-6.399c0,-2.356 0.427,-4.489 1.28,-6.399c0.853,-1.91 2.021,-3.545 3.504,-4.906c1.483,-1.361 3.23,-2.407 5.242,-3.139c2.011,-0.731 4.154,-1.097 6.429,-1.097c2.113,0 4.033,0.366 5.759,1.097c1.727,0.732 3.19,1.778 4.388,3.139c1.199,1.361 2.123,2.996 2.773,4.906c0.65,1.91 0.975,4.043 0.975,6.399l0,2.864l-21.208,0c0.366,1.748 1.158,3.139 2.377,4.175c1.219,1.036 2.722,1.554 4.51,1.554c1.503,0 2.772,-0.335 3.809,-1.005c1.036,-0.671 1.94,-1.534 2.712,-2.591l6.399,4.693Zm-7.74,-13.042c0.04,-1.544 -0.467,-2.864 -1.524,-3.961c-1.056,-1.097 -2.417,-1.646 -4.083,-1.646c-1.016,0 -1.91,0.163 -2.682,0.488c-0.772,0.325 -1.432,0.741 -1.98,1.249c-0.549,0.508 -0.975,1.097 -1.28,1.768c-0.305,0.67 -0.477,1.371 -0.518,2.102l12.067,0Z" style="fill-rule:nonzero;"/>
    <path d="M524.787,46.073l-8.41,0l0,-3.9l-0.122,0c-0.365,0.528 -0.843,1.067 -1.432,1.615c-0.589,0.549 -1.28,1.046 -2.072,1.493c-0.792,0.447 -1.666,0.813 -2.62,1.097c-0.955,0.285 -1.941,0.427 -2.956,0.427c-2.194,-0 -4.185,-0.376 -5.973,-1.128c-1.787,-0.751 -3.321,-1.808 -4.601,-3.169c-1.28,-1.361 -2.265,-2.976 -2.956,-4.845c-0.69,-1.869 -1.036,-3.921 -1.036,-6.155c0,-2.072 0.315,-4.053 0.945,-5.942c0.63,-1.889 1.523,-3.565 2.681,-5.028c1.158,-1.463 2.57,-2.631 4.236,-3.504c1.666,-0.874 3.555,-1.311 5.668,-1.311c1.909,0 3.687,0.295 5.332,0.884c1.646,0.589 2.997,1.595 4.053,3.017l0.122,-0l-0,-19.624l9.141,-0l0,46.073Zm-8.41,-14.809c0,-2.234 -0.64,-4.042 -1.919,-5.424c-1.28,-1.381 -3.078,-2.072 -5.394,-2.072c-2.316,0 -4.114,0.691 -5.394,2.072c-1.279,1.382 -1.919,3.19 -1.919,5.424c-0,2.235 0.64,4.043 1.919,5.424c1.28,1.381 3.078,2.072 5.394,2.072c2.316,0 4.114,-0.691 5.394,-2.072c1.279,-1.381 1.919,-3.189 1.919,-5.424Z" style="fill-rule:nonzero;"/>
    <path d="M570.191,26.023c-0.447,-0.65 -1.077,-1.188 -1.89,-1.615c-0.812,-0.427 -1.686,-0.64 -2.62,-0.64c-2.316,0 -4.114,0.691 -5.394,2.072c-1.28,1.382 -1.92,3.19 -1.92,5.424c0,2.235 0.64,4.043 1.92,5.424c1.28,1.381 3.078,2.072 5.394,2.072c1.015,0 1.889,-0.223 2.62,-0.67c0.732,-0.447 1.361,-0.975 1.89,-1.585l6.033,6.338c-1.422,1.463 -3.098,2.489 -5.028,3.078c-1.93,0.589 -3.768,0.884 -5.515,0.884c-2.276,-0 -4.419,-0.366 -6.43,-1.097c-2.011,-0.732 -3.758,-1.778 -5.241,-3.139c-1.483,-1.361 -2.651,-2.996 -3.504,-4.906c-0.854,-1.909 -1.28,-4.042 -1.28,-6.399c-0,-2.356 0.426,-4.489 1.28,-6.399c0.853,-1.91 2.021,-3.545 3.504,-4.906c1.483,-1.361 3.23,-2.407 5.241,-3.139c2.011,-0.731 4.154,-1.097 6.43,-1.097c1.747,0 3.585,0.295 5.515,0.884c1.93,0.589 3.606,1.615 5.028,3.078l-6.033,6.338Z" style="fill-rule:nonzero;"/>
    <rect x="579.637" y="0" width="9.142" height="46.073" style="fill-rule:nonzero;"/>
    <path d="M594.263,31.264c0,-2.356 0.427,-4.489 1.28,-6.399c0.853,-1.91 2.021,-3.545 3.504,-4.906c1.483,-1.361 3.23,-2.407 5.241,-3.139c2.012,-0.731 4.155,-1.097 6.43,-1.097c2.275,0 4.418,0.366 6.43,1.097c2.011,0.732 3.758,1.778 5.241,3.139c1.483,1.361 2.651,2.996 3.504,4.906c0.853,1.91 1.28,4.043 1.28,6.399c-0,2.357 -0.427,4.49 -1.28,6.399c-0.853,1.91 -2.021,3.545 -3.504,4.906c-1.483,1.361 -3.23,2.407 -5.241,3.139c-2.012,0.731 -4.155,1.097 -6.43,1.097c-2.275,-0 -4.418,-0.366 -6.43,-1.097c-2.011,-0.732 -3.758,-1.778 -5.241,-3.139c-1.483,-1.361 -2.651,-2.996 -3.504,-4.906c-0.853,-1.909 -1.28,-4.042 -1.28,-6.399Zm9.142,0c-0,2.235 0.64,4.043 1.92,5.424c1.279,1.381 3.077,2.072 5.393,2.072c2.316,0 4.114,-0.691 5.394,-2.072c1.279,-1.381 1.919,-3.189 1.919,-5.424c0,-2.234 -0.64,-4.042 -1.919,-5.424c-1.28,-1.381 -3.078,-2.072 -5.394,-2.072c-2.316,0 -4.114,0.691 -5.393,2.072c-1.28,1.382 -1.92,3.19 -1.92,5.424Z" style="fill-rule:nonzero;"/>
    <path d="M661.058,46.073l-8.776,0l-0,-4.022l-0.122,0c-0.325,0.569 -0.742,1.138 -1.25,1.707c-0.507,0.568 -1.127,1.076 -1.858,1.523c-0.732,0.447 -1.565,0.813 -2.499,1.097c-0.935,0.285 -1.95,0.427 -3.047,0.427c-2.316,-0 -4.195,-0.356 -5.638,-1.067c-1.442,-0.711 -2.559,-1.696 -3.351,-2.956c-0.793,-1.259 -1.321,-2.742 -1.585,-4.448c-0.264,-1.707 -0.396,-3.555 -0.396,-5.546l-0,-16.333l9.141,-0l0,14.504c0,0.854 0.031,1.737 0.092,2.651c0.061,0.915 0.244,1.758 0.548,2.53c0.305,0.772 0.772,1.401 1.402,1.889c0.63,0.487 1.534,0.731 2.712,0.731c1.178,0 2.133,-0.213 2.864,-0.64c0.732,-0.426 1.29,-0.995 1.676,-1.706c0.386,-0.711 0.64,-1.514 0.762,-2.407c0.122,-0.894 0.183,-1.829 0.183,-2.804l-0,-14.748l9.142,-0l-0,29.618Z" style="fill-rule:nonzero;"/>
    <path d="M698.599,46.073l-8.41,0l-0,-3.9l-0.122,0c-0.366,0.528 -0.843,1.067 -1.432,1.615c-0.59,0.549 -1.28,1.046 -2.073,1.493c-0.792,0.447 -1.665,0.813 -2.62,1.097c-0.955,0.285 -1.94,0.427 -2.956,0.427c-2.194,-0 -4.185,-0.376 -5.972,-1.128c-1.788,-0.751 -3.322,-1.808 -4.602,-3.169c-1.279,-1.361 -2.265,-2.976 -2.955,-4.845c-0.691,-1.869 -1.036,-3.921 -1.036,-6.155c-0,-2.072 0.314,-4.053 0.944,-5.942c0.63,-1.889 1.524,-3.565 2.682,-5.028c1.158,-1.463 2.57,-2.631 4.235,-3.504c1.666,-0.874 3.555,-1.311 5.668,-1.311c1.91,0 3.687,0.295 5.333,0.884c1.645,0.589 2.996,1.595 4.052,3.017l0.122,-0l0,-19.624l9.142,-0l-0,46.073Zm-8.41,-14.809c-0,-2.234 -0.64,-4.042 -1.92,-5.424c-1.28,-1.381 -3.078,-2.072 -5.394,-2.072c-2.316,0 -4.113,0.691 -5.393,2.072c-1.28,1.382 -1.92,3.19 -1.92,5.424c0,2.235 0.64,4.043 1.92,5.424c1.28,1.381 3.077,2.072 5.393,2.072c2.316,0 4.114,-0.691 5.394,-2.072c1.28,-1.381 1.92,-3.189 1.92,-5.424Z" style="fill-rule:nonzero;"/>
    <path d="M742.539,42.356l-0.122,-0c-1.015,1.584 -2.366,2.722 -4.052,3.413c-1.687,0.69 -3.464,1.036 -5.333,1.036c-1.381,-0 -2.712,-0.193 -3.992,-0.579c-1.28,-0.386 -2.407,-0.965 -3.382,-1.737c-0.975,-0.772 -1.747,-1.727 -2.316,-2.864c-0.569,-1.138 -0.853,-2.459 -0.853,-3.962c-0,-1.706 0.315,-3.149 0.944,-4.327c0.63,-1.178 1.483,-2.153 2.56,-2.925c1.077,-0.772 2.306,-1.371 3.687,-1.798c1.381,-0.427 2.814,-0.741 4.297,-0.945c1.483,-0.203 2.966,-0.325 4.449,-0.365c1.482,-0.041 2.854,-0.061 4.113,-0.061c0,-1.625 -0.579,-2.915 -1.737,-3.87c-1.158,-0.955 -2.529,-1.432 -4.113,-1.432c-1.504,-0 -2.875,0.315 -4.114,0.944c-1.239,0.63 -2.346,1.493 -3.322,2.59l-4.875,-4.997c1.706,-1.584 3.697,-2.773 5.972,-3.565c2.276,-0.792 4.632,-1.189 7.07,-1.189c2.681,0 4.886,0.336 6.612,1.006c1.727,0.67 3.108,1.656 4.145,2.956c1.036,1.3 1.757,2.895 2.163,4.784c0.406,1.889 0.609,4.073 0.609,6.551l0,15.053l-8.41,0l0,-3.717Zm-2.255,-9.264c-0.69,0 -1.554,0.031 -2.59,0.092c-1.036,0.061 -2.031,0.233 -2.986,0.518c-0.955,0.284 -1.767,0.711 -2.438,1.28c-0.67,0.568 -1.005,1.361 -1.005,2.376c-0,1.097 0.467,1.91 1.401,2.438c0.935,0.528 1.91,0.792 2.926,0.792c0.893,0 1.757,-0.121 2.59,-0.365c0.833,-0.244 1.574,-0.589 2.224,-1.036c0.65,-0.447 1.168,-1.016 1.554,-1.707c0.386,-0.69 0.579,-1.503 0.579,-2.437l0,-1.951l-2.255,0Z" style="fill-rule:nonzero;"/>
    <path d="M773.438,25.17c-1.341,-1.666 -3.108,-2.499 -5.302,-2.499c-0.772,0 -1.524,0.183 -2.255,0.549c-0.732,0.365 -1.097,0.995 -1.097,1.889c-0,0.731 0.375,1.269 1.127,1.615c0.752,0.345 1.707,0.65 2.864,0.914c1.158,0.264 2.398,0.548 3.718,0.853c1.32,0.305 2.56,0.782 3.718,1.432c1.158,0.65 2.112,1.534 2.864,2.651c0.752,1.118 1.127,2.611 1.127,4.48c0,1.909 -0.416,3.484 -1.249,4.723c-0.833,1.239 -1.899,2.234 -3.199,2.986c-1.301,0.752 -2.763,1.28 -4.388,1.585c-1.626,0.304 -3.23,0.457 -4.815,0.457c-2.072,-0 -4.164,-0.295 -6.277,-0.884c-2.113,-0.589 -3.901,-1.635 -5.363,-3.139l5.546,-6.155c0.853,1.057 1.797,1.859 2.834,2.407c1.036,0.549 2.244,0.823 3.626,0.823c1.056,0 2.011,-0.152 2.864,-0.457c0.853,-0.305 1.28,-0.863 1.28,-1.676c-0,-0.772 -0.376,-1.351 -1.128,-1.737c-0.751,-0.386 -1.706,-0.711 -2.864,-0.975c-1.158,-0.264 -2.397,-0.548 -3.718,-0.853c-1.32,-0.305 -2.559,-0.762 -3.717,-1.371c-1.158,-0.61 -2.113,-1.473 -2.864,-2.59c-0.752,-1.118 -1.128,-2.611 -1.128,-4.48c0,-1.747 0.356,-3.25 1.067,-4.51c0.711,-1.259 1.645,-2.295 2.803,-3.108c1.158,-0.812 2.489,-1.412 3.992,-1.798c1.503,-0.386 3.027,-0.579 4.571,-0.579c1.95,0 3.92,0.285 5.911,0.854c1.991,0.568 3.677,1.584 5.058,3.047l-5.606,5.546Z" style="fill-rule:nonzero;"/>
    <path d="M801.655,25.17c-1.341,-1.666 -3.109,-2.499 -5.303,-2.499c-0.771,0 -1.523,0.183 -2.254,0.549c-0.732,0.365 -1.097,0.995 -1.097,1.889c-0,0.731 0.375,1.269 1.127,1.615c0.752,0.345 1.706,0.65 2.864,0.914c1.158,0.264 2.398,0.548 3.718,0.853c1.32,0.305 2.56,0.782 3.718,1.432c1.157,0.65 2.112,1.534 2.864,2.651c0.752,1.118 1.127,2.611 1.127,4.48c0,1.909 -0.416,3.484 -1.249,4.723c-0.833,1.239 -1.899,2.234 -3.2,2.986c-1.3,0.752 -2.762,1.28 -4.388,1.585c-1.625,0.304 -3.23,0.457 -4.814,0.457c-2.072,-0 -4.165,-0.295 -6.277,-0.884c-2.113,-0.589 -3.901,-1.635 -5.363,-3.139l5.546,-6.155c0.853,1.057 1.797,1.859 2.833,2.407c1.037,0.549 2.245,0.823 3.627,0.823c1.056,0 2.011,-0.152 2.864,-0.457c0.853,-0.305 1.28,-0.863 1.28,-1.676c-0,-0.772 -0.376,-1.351 -1.128,-1.737c-0.751,-0.386 -1.706,-0.711 -2.864,-0.975c-1.158,-0.264 -2.397,-0.548 -3.718,-0.853c-1.32,-0.305 -2.559,-0.762 -3.717,-1.371c-1.158,-0.61 -2.113,-1.473 -2.865,-2.59c-0.751,-1.118 -1.127,-2.611 -1.127,-4.48c0,-1.747 0.356,-3.25 1.067,-4.51c0.711,-1.259 1.645,-2.295 2.803,-3.108c1.158,-0.812 2.488,-1.412 3.992,-1.798c1.503,-0.386 3.027,-0.579 4.571,-0.579c1.95,0 3.92,0.285 5.911,0.854c1.991,0.568 3.677,1.584 5.058,3.047l-5.606,5.546Z" style="fill-rule:nonzero;"/>
    <path d="M813.234,16.455l9.141,-0l0,29.618l-9.141,0l-0,-29.618Zm-0.731,-9.325c-0,-1.462 0.518,-2.712 1.554,-3.748c1.036,-1.036 2.285,-1.554 3.748,-1.554c1.462,0 2.712,0.518 3.748,1.554c1.036,1.036 1.554,2.286 1.554,3.748c-0,1.463 -0.518,2.712 -1.554,3.748c-1.036,1.036 -2.286,1.555 -3.748,1.555c-1.463,-0 -2.712,-0.519 -3.748,-1.555c-1.036,-1.036 -1.554,-2.285 -1.554,-3.748Z" style="fill-rule:nonzero;"/>
    <path d="M860.039,43.575c-0,5.607 -1.412,9.862 -4.236,12.767c-2.824,2.905 -7.12,4.358 -12.89,4.358c-2.64,-0 -5.241,-0.295 -7.8,-0.884c-2.56,-0.589 -4.916,-1.737 -7.07,-3.443l5.059,-7.557c1.422,1.178 2.915,2.113 4.479,2.803c1.564,0.691 3.281,1.036 5.15,1.036c2.803,0 4.865,-0.68 6.185,-2.041c1.321,-1.361 1.981,-3.098 1.981,-5.211l0,-2.864l-0.122,-0c-1.056,1.422 -2.366,2.427 -3.931,3.016c-1.564,0.59 -3.037,0.884 -4.418,0.884c-2.194,0 -4.185,-0.376 -5.973,-1.127c-1.787,-0.752 -3.321,-1.808 -4.601,-3.169c-1.28,-1.362 -2.265,-2.977 -2.956,-4.845c-0.69,-1.869 -1.036,-3.921 -1.036,-6.156c0,-1.95 0.315,-3.86 0.945,-5.728c0.63,-1.869 1.524,-3.515 2.682,-4.937c1.157,-1.422 2.569,-2.57 4.235,-3.443c1.666,-0.874 3.555,-1.311 5.668,-1.311c1.3,0 2.488,0.143 3.565,0.427c1.077,0.284 2.042,0.65 2.895,1.097c0.853,0.447 1.584,0.945 2.194,1.493c0.609,0.549 1.097,1.087 1.463,1.615l0.121,0l0,-3.9l8.411,-0l-0,27.12Zm-23.037,-12.494c-0,0.975 0.183,1.9 0.548,2.773c0.366,0.874 0.884,1.646 1.554,2.316c0.671,0.67 1.443,1.209 2.316,1.615c0.874,0.406 1.839,0.61 2.895,0.61c1.016,-0 1.971,-0.204 2.865,-0.61c0.893,-0.406 1.675,-0.945 2.346,-1.615c0.67,-0.67 1.188,-1.442 1.554,-2.316c0.366,-0.873 0.548,-1.798 0.548,-2.773c0,-0.975 -0.182,-1.899 -0.548,-2.773c-0.366,-0.873 -0.884,-1.645 -1.554,-2.316c-0.671,-0.67 -1.453,-1.208 -2.346,-1.615c-0.894,-0.406 -1.849,-0.609 -2.865,-0.609c-1.056,0 -2.021,0.203 -2.895,0.609c-0.873,0.407 -1.645,0.945 -2.316,1.615c-0.67,0.671 -1.188,1.443 -1.554,2.316c-0.365,0.874 -0.548,1.798 -0.548,2.773Z" style="fill-rule:nonzero;"/>
    <path d="M867.352,16.455l8.776,-0l-0,4.022l0.122,0c0.284,-0.569 0.69,-1.138 1.219,-1.706c0.528,-0.569 1.157,-1.077 1.889,-1.524c0.731,-0.447 1.564,-0.813 2.498,-1.097c0.935,-0.284 1.951,-0.427 3.048,-0.427c2.316,0 4.184,0.356 5.606,1.067c1.422,0.711 2.53,1.696 3.322,2.956c0.792,1.259 1.33,2.742 1.615,4.449c0.284,1.706 0.427,3.555 0.427,5.546l-0,16.332l-9.142,0l-0,-14.504c-0,-0.853 -0.031,-1.737 -0.091,-2.651c-0.061,-0.914 -0.244,-1.757 -0.549,-2.529c-0.305,-0.772 -0.772,-1.402 -1.402,-1.89c-0.629,-0.487 -1.533,-0.731 -2.712,-0.731c-1.178,0 -2.133,0.213 -2.864,0.64c-0.731,0.427 -1.29,0.995 -1.676,1.706c-0.386,0.711 -0.64,1.514 -0.762,2.408c-0.122,0.893 -0.183,1.828 -0.183,2.803l0,14.748l-9.141,0l-0,-29.618Z" style="fill-rule:nonzero;"/>
    <path d="M902.334,16.455l8.775,-0l0,4.022l0.122,0c0.285,-0.569 0.691,-1.138 1.219,-1.706c0.528,-0.569 1.158,-1.077 1.889,-1.524c0.732,-0.447 1.565,-0.813 2.499,-1.097c0.935,-0.284 1.95,-0.427 3.047,-0.427c2.072,0 3.911,0.427 5.516,1.28c1.605,0.853 2.813,2.194 3.626,4.023c1.056,-1.91 2.336,-3.271 3.839,-4.084c1.504,-0.812 3.352,-1.219 5.546,-1.219c1.991,0 3.667,0.336 5.028,1.006c1.361,0.67 2.438,1.585 3.23,2.743c0.792,1.157 1.361,2.519 1.706,4.083c0.346,1.564 0.519,3.24 0.519,5.028l-0,17.49l-9.142,0l-0,-17.247c-0,-1.381 -0.295,-2.569 -0.884,-3.565c-0.589,-0.995 -1.635,-1.493 -3.138,-1.493c-1.057,0 -1.94,0.173 -2.651,0.518c-0.711,0.345 -1.28,0.823 -1.707,1.432c-0.426,0.61 -0.731,1.321 -0.914,2.133c-0.183,0.813 -0.274,1.666 -0.274,2.56l-0,15.662l-9.142,0l0,-15.662c0,-0.528 -0.02,-1.178 -0.061,-1.95c-0.04,-0.772 -0.183,-1.504 -0.426,-2.194c-0.244,-0.691 -0.64,-1.28 -1.189,-1.768c-0.548,-0.487 -1.351,-0.731 -2.407,-0.731c-1.178,0 -2.133,0.213 -2.864,0.64c-0.732,0.427 -1.29,0.995 -1.676,1.706c-0.386,0.711 -0.64,1.514 -0.762,2.408c-0.122,0.893 -0.183,1.828 -0.183,2.803l0,14.748l-9.141,0l-0,-29.618Z" style="fill-rule:nonzero;"/>
    <path d="M983.389,40.954c-1.463,1.869 -3.312,3.311 -5.546,4.327c-2.235,1.016 -4.551,1.524 -6.948,1.524c-2.275,-0 -4.418,-0.366 -6.429,-1.097c-2.012,-0.732 -3.759,-1.778 -5.242,-3.139c-1.483,-1.361 -2.651,-2.996 -3.504,-4.906c-0.853,-1.909 -1.28,-4.042 -1.28,-6.399c0,-2.356 0.427,-4.489 1.28,-6.399c0.853,-1.91 2.021,-3.545 3.504,-4.906c1.483,-1.361 3.23,-2.407 5.242,-3.139c2.011,-0.731 4.154,-1.097 6.429,-1.097c2.113,0 4.033,0.366 5.759,1.097c1.727,0.732 3.19,1.778 4.388,3.139c1.199,1.361 2.123,2.996 2.773,4.906c0.65,1.91 0.975,4.043 0.975,6.399l0,2.864l-21.208,0c0.366,1.748 1.158,3.139 2.377,4.175c1.219,1.036 2.722,1.554 4.51,1.554c1.503,0 2.772,-0.335 3.809,-1.005c1.036,-0.671 1.94,-1.534 2.712,-2.591l6.399,4.693Zm-7.74,-13.042c0.04,-1.544 -0.467,-2.864 -1.524,-3.961c-1.056,-1.097 -2.417,-1.646 -4.083,-1.646c-1.016,0 -1.91,0.163 -2.682,0.488c-0.772,0.325 -1.432,0.741 -1.98,1.249c-0.549,0.508 -0.975,1.097 -1.28,1.768c-0.305,0.67 -0.477,1.371 -0.518,2.102l12.067,0Z" style="fill-rule:nonzero;"/>
    <path d="M990.336,16.455l8.776,-0l0,4.022l0.122,0c0.284,-0.569 0.691,-1.138 1.219,-1.706c0.528,-0.569 1.158,-1.077 1.889,-1.524c0.731,-0.447 1.564,-0.813 2.499,-1.097c0.934,-0.284 1.95,-0.427 3.047,-0.427c2.316,0 4.185,0.356 5.607,1.067c1.422,0.711 2.529,1.696 3.321,2.956c0.792,1.259 1.331,2.742 1.615,4.449c0.285,1.706 0.427,3.555 0.427,5.546l-0,16.332l-9.142,0l0,-14.504c0,-0.853 -0.03,-1.737 -0.091,-2.651c-0.061,-0.914 -0.244,-1.757 -0.549,-2.529c-0.304,-0.772 -0.772,-1.402 -1.401,-1.89c-0.63,-0.487 -1.534,-0.731 -2.712,-0.731c-1.179,0 -2.133,0.213 -2.865,0.64c-0.731,0.427 -1.29,0.995 -1.676,1.706c-0.386,0.711 -0.64,1.514 -0.761,2.408c-0.122,0.893 -0.183,1.828 -0.183,2.803l-0,14.748l-9.142,0l0,-29.618Z" style="fill-rule:nonzero;"/>
    <path d="M1045.49,23.768l-8.044,0l-0,9.873c-0,0.812 0.04,1.554 0.122,2.224c0.081,0.671 0.264,1.25 0.548,1.737c0.284,0.488 0.721,0.864 1.31,1.128c0.589,0.264 1.372,0.396 2.347,0.396c0.487,-0 1.127,-0.051 1.919,-0.153c0.793,-0.101 1.392,-0.335 1.798,-0.7l0,7.618c-1.016,0.365 -2.072,0.609 -3.169,0.731c-1.097,0.122 -2.174,0.183 -3.23,0.183c-1.544,-0 -2.966,-0.163 -4.266,-0.488c-1.3,-0.325 -2.438,-0.843 -3.413,-1.554c-0.975,-0.711 -1.737,-1.635 -2.285,-2.773c-0.549,-1.137 -0.823,-2.519 -0.823,-4.144l0,-14.078l-5.85,0l-0,-7.313l5.85,-0l0,-8.776l9.142,-0l-0,8.776l8.044,-0l0,7.313Z" style="fill-rule:nonzero;"/>
    <path d="M598.054,156.026l211.622,-0" style="fill:none;stroke:black;stroke-width:4.09px;stroke-linecap:round;stroke-miterlimit:1.5;"/>
    <path d="M192.338,231.529l435.728,0" style="fill:none;stroke:black;stroke-width:4.09px;stroke-linecap:round;stroke-miterlimit:1.5;"/>
    <path d="M809.676,156.026l-12.264,-12.264" style="fill:none;stroke:black;stroke-width:4.09px;stroke-linecap:round;stroke-miterlimit:1.5;"/>
    <path d="M630.983,231.529l-12.264,-12.263" style="fill:none;stroke:black;stroke-width:4.09px;stroke-linecap:round;stroke-miterlimit:1.5;"/>
    <path d="M809.676,156.026l-13.533,13.532" style="fill:none;stroke:black;stroke-width:4.09px;stroke-linecap:round;stroke-miterlimit:1.5;"/>
    <path d="M630.983,231.529l-13.533,13.533" style="fill:none;stroke:black;stroke-width:4.09px;stroke-linecap:round;stroke-miterlimit:1.5;"/>
    <path d="M594.354,155.914l11.986,-11.987" style="fill:none;stroke:black;stroke-width:4.09px;stroke-linecap:round;stroke-miterlimit:1.5;"/>
    <path d="M189.084,231.418l11.987,-11.987" style="fill:none;stroke:black;stroke-width:4.09px;stroke-linecap:round;stroke-miterlimit:1.5;"/>
    <path d="M594.354,155.914l11.244,11.245" style="fill:none;stroke:black;stroke-width:4.09px;stroke-linecap:round;stroke-miterlimit:1.5;"/>
    <path d="M189.084,231.418l11.245,11.245" style="fill:none;stroke:black;stroke-width:4.09px;stroke-linecap:round;stroke-miterlimit:1.5;"/>
    <path d="M690.787,174.986l5.528,0l-0,21.804l0.123,0c0.696,-1.555 1.904,-2.815 3.624,-3.777c1.719,-0.962 3.705,-1.443 5.957,-1.443c1.392,-0 2.733,0.215 4.023,0.645c1.29,0.43 2.416,1.095 3.378,1.996c0.963,0.901 1.73,2.057 2.304,3.47c0.573,1.413 0.86,3.081 0.86,5.006l-0,18.733l-5.528,0l-0,-17.198c-0,-1.351 -0.185,-2.508 -0.553,-3.47c-0.369,-0.962 -0.86,-1.74 -1.474,-2.334c-0.614,-0.594 -1.321,-1.024 -2.119,-1.29c-0.799,-0.266 -1.628,-0.399 -2.488,-0.399c-1.146,0 -2.211,0.184 -3.194,0.553c-0.982,0.368 -1.842,0.952 -2.579,1.75c-0.737,0.799 -1.31,1.812 -1.72,3.041c-0.409,1.228 -0.614,2.682 -0.614,4.36l-0,14.987l-5.528,0l0,-46.434Z" style="fill-rule:nonzero;"/>
    <path d="M410.495,212.065l17.443,-17.32c0.614,-0.573 1.208,-1.198 1.781,-1.873c0.573,-0.676 1.085,-1.382 1.536,-2.119c0.45,-0.737 0.808,-1.515 1.074,-2.334c0.267,-0.819 0.4,-1.679 0.4,-2.58c-0,-1.065 -0.195,-2.027 -0.584,-2.887c-0.389,-0.86 -0.921,-1.586 -1.597,-2.18c-0.675,-0.594 -1.474,-1.055 -2.395,-1.382c-0.921,-0.328 -1.894,-0.492 -2.918,-0.492c-2.129,0 -3.89,0.594 -5.282,1.782c-1.392,1.187 -2.272,2.825 -2.641,4.913l-6.388,-0.552c0.287,-1.925 0.85,-3.594 1.69,-5.006c0.839,-1.413 1.883,-2.59 3.132,-3.532c1.249,-0.942 2.682,-1.638 4.299,-2.088c1.618,-0.451 3.368,-0.676 5.252,-0.676c1.883,0 3.654,0.256 5.313,0.768c1.658,0.512 3.112,1.269 4.361,2.272c1.248,1.004 2.231,2.253 2.948,3.747c0.716,1.495 1.075,3.245 1.075,5.252c-0,1.433 -0.215,2.774 -0.645,4.023c-0.43,1.248 -0.993,2.426 -1.689,3.531c-0.697,1.106 -1.495,2.15 -2.396,3.133c-0.901,0.982 -1.842,1.945 -2.825,2.886l-14.311,13.82l21.866,0l-0,5.159l-28.499,0l-0,-6.265Z" style="fill-rule:nonzero;"/>
    <path d="M445.995,171.897l5.528,-0l0,21.804l0.123,-0c0.696,-1.556 1.904,-2.815 3.624,-3.778c1.72,-0.962 3.706,-1.443 5.958,-1.443c1.392,0 2.733,0.215 4.023,0.645c1.29,0.43 2.416,1.095 3.378,1.996c0.962,0.901 1.73,2.058 2.303,3.47c0.573,1.413 0.86,3.082 0.86,5.006l-0,18.733l-5.528,0l0,-17.197c0,-1.352 -0.184,-2.508 -0.553,-3.471c-0.368,-0.962 -0.86,-1.74 -1.474,-2.334c-0.614,-0.593 -1.32,-1.023 -2.119,-1.289c-0.798,-0.267 -1.627,-0.4 -2.487,-0.4c-1.147,0 -2.211,0.185 -3.194,0.553c-0.983,0.369 -1.843,0.952 -2.58,1.751c-0.737,0.798 -1.31,1.812 -1.72,3.04c-0.409,1.228 -0.614,2.682 -0.614,4.361l0,14.986l-5.528,0l0,-46.433Z" style="fill-rule:nonzero;"/>
    <circle cx="412.39" cy="366.598" r="18.058" style="fill:rgb(0,32,255);stroke:rgb(0,33,255);stroke-width:4.09px;stroke-linecap:round;stroke-miterlimit:1.5;"/>
    <g transform="matrix(1,0,0,1,-1621.99,-970.187)">
        <g transform="matrix(49.2317,0,0,49.2317,1621.8,1202.76)">
            <path d="M0.314,-0.408l-0.135,0l0,0.276c-0,0.017 0.002,0.032 0.005,0.043c0.003,0.01 0.008,0.019 0.014,0.025c0.006,0.006 0.013,0.01 0.021,0.012c0.009,0.003 0.018,0.004 0.028,0.004c0.011,-0 0.023,-0.002 0.035,-0.005c0.012,-0.003 0.023,-0.008 0.033,-0.013l0.003,0.061c-0.025,0.011 -0.054,0.017 -0.089,0.017c-0.013,0 -0.026,-0.002 -0.04,-0.005c-0.013,-0.003 -0.026,-0.01 -0.037,-0.019c-0.011,-0.009 -0.021,-0.022 -0.028,-0.038c-0.007,-0.016 -0.011,-0.037 -0.011,-0.063l-0,-0.295l-0.099,-0l-0,-0.06l0.099,-0l-0,-0.132l0.066,0l-0,0.132l0.135,-0l-0,0.06Z" style="fill:rgb(135,187,213);fill-rule:nonzero;stroke:rgb(135,187,213);stroke-width:0.02px;"/>
        </g>
        <g transform="matrix(49.2317,0,0,49.2317,1638.15,1202.76)">
            <path d="M0.079,-0.322c0,-0.021 -0.001,-0.042 -0.002,-0.063c-0.001,-0.021 -0.001,-0.049 -0.002,-0.083l0.065,0l0,0.087l0.002,0c0.005,-0.013 0.011,-0.025 0.02,-0.036c0.009,-0.012 0.019,-0.023 0.032,-0.032c0.012,-0.009 0.026,-0.017 0.043,-0.022c0.016,-0.006 0.034,-0.009 0.055,-0.009c0.019,0 0.035,0.002 0.049,0.006l-0.013,0.065c-0.009,-0.003 -0.021,-0.005 -0.038,-0.005c-0.025,0 -0.047,0.005 -0.065,0.015c-0.018,0.009 -0.033,0.022 -0.045,0.037c-0.012,0.015 -0.021,0.031 -0.027,0.048c-0.005,0.017 -0.008,0.034 -0.008,0.05l-0,0.264l-0.066,0l-0,-0.322Z" style="fill:rgb(135,187,213);fill-rule:nonzero;stroke:rgb(135,187,213);stroke-width:0.02px;"/>
        </g>
        <g transform="matrix(49.2317,0,0,49.2317,1654.49,1202.76)">
            <path d="M0.168,-0.648c0,0.014 -0.005,0.025 -0.015,0.034c-0.01,0.01 -0.021,0.014 -0.033,0.014c-0.012,0 -0.023,-0.004 -0.033,-0.014c-0.01,-0.009 -0.015,-0.02 -0.015,-0.034c-0,-0.014 0.005,-0.026 0.015,-0.034c0.01,-0.009 0.021,-0.014 0.033,-0.014c0.012,0 0.023,0.005 0.033,0.014c0.01,0.008 0.015,0.02 0.015,0.034Zm-0.015,0.648l-0.066,-0l-0,-0.468l0.066,0l-0,0.468Z" style="fill:rgb(135,187,213);fill-rule:nonzero;stroke:rgb(135,187,213);stroke-width:0.02px;"/>
        </g>
        <g transform="matrix(49.2317,0,0,49.2317,1666.31,1202.76)">
            <path d="M0.338,-0.233c-0.017,0 -0.038,0.001 -0.063,0.003c-0.025,0.001 -0.049,0.005 -0.072,0.012c-0.022,0.006 -0.042,0.016 -0.059,0.029c-0.016,0.013 -0.024,0.032 -0.024,0.055c-0,0.015 0.003,0.029 0.009,0.04c0.007,0.01 0.015,0.02 0.026,0.026c0.011,0.008 0.022,0.013 0.035,0.016c0.013,0.003 0.027,0.004 0.04,0.004c0.024,-0 0.045,-0.004 0.062,-0.012c0.018,-0.008 0.033,-0.019 0.045,-0.033c0.012,-0.013 0.021,-0.029 0.026,-0.048c0.006,-0.018 0.009,-0.037 0.009,-0.058l-0,-0.034l-0.034,0Zm0.034,-0.054l-0,-0.012c-0,-0.081 -0.04,-0.121 -0.12,-0.121c-0.055,0 -0.102,0.018 -0.143,0.055l-0.04,-0.047c0.044,-0.045 0.11,-0.068 0.198,-0.068c0.023,0 0.044,0.003 0.065,0.01c0.021,0.007 0.04,0.017 0.055,0.031c0.015,0.013 0.028,0.03 0.037,0.051c0.009,0.021 0.014,0.045 0.014,0.074l-0,0.209c-0,0.018 0.001,0.037 0.002,0.057c0.002,0.019 0.004,0.035 0.006,0.048l-0.064,0c-0.002,-0.011 -0.004,-0.024 -0.005,-0.037c-0.001,-0.013 -0.001,-0.026 -0.001,-0.039l-0.002,0c-0.019,0.031 -0.042,0.054 -0.069,0.068c-0.026,0.013 -0.058,0.02 -0.096,0.02c-0.021,0 -0.041,-0.003 -0.06,-0.008c-0.019,-0.006 -0.037,-0.015 -0.052,-0.026c-0.015,-0.012 -0.027,-0.026 -0.036,-0.043c-0.009,-0.017 -0.013,-0.037 -0.013,-0.06c-0,-0.038 0.01,-0.068 0.029,-0.089c0.02,-0.022 0.045,-0.038 0.074,-0.049c0.03,-0.011 0.062,-0.017 0.095,-0.02c0.034,-0.003 0.065,-0.004 0.093,-0.004l0.033,0Z" style="fill:rgb(135,187,213);fill-rule:nonzero;stroke:rgb(135,187,213);stroke-width:0.02px;"/>
        </g>
        <g transform="matrix(49.2317,0,0,49.2317,1691.86,1202.76)">
            <path d="M0.135,-0.468c0.001,0.013 0.002,0.025 0.003,0.038c-0,0.012 0,0.024 0,0.037l0.002,0c0.007,-0.013 0.017,-0.024 0.028,-0.035c0.011,-0.011 0.024,-0.02 0.038,-0.027c0.014,-0.008 0.029,-0.014 0.044,-0.018c0.016,-0.005 0.032,-0.007 0.047,-0.007c0.06,0 0.104,0.016 0.133,0.048c0.029,0.031 0.043,0.076 0.043,0.135l0,0.297l-0.066,0l0,-0.259c0,-0.052 -0.009,-0.092 -0.027,-0.119c-0.018,-0.028 -0.051,-0.042 -0.1,-0.042c-0.003,0 -0.013,0.001 -0.028,0.004c-0.015,0.003 -0.031,0.01 -0.048,0.022c-0.017,0.012 -0.033,0.03 -0.046,0.054c-0.013,0.024 -0.02,0.057 -0.02,0.1l0,0.24l-0.066,0l0,-0.365c0,-0.013 -0,-0.029 -0.001,-0.048c-0.001,-0.019 -0.003,-0.038 -0.004,-0.055l0.068,0Z" style="fill:rgb(135,187,213);fill-rule:nonzero;stroke:rgb(135,187,213);stroke-width:0.02px;"/>
        </g>
        <g transform="matrix(49.2317,0,0,49.2317,1719.23,1202.76)">
            <path d="M0.12,-0.24c0,0.025 0.005,0.048 0.014,0.069c0.008,0.022 0.021,0.041 0.037,0.057c0.015,0.017 0.034,0.03 0.054,0.039c0.022,0.01 0.044,0.015 0.069,0.015c0.024,-0 0.047,-0.004 0.068,-0.013c0.022,-0.009 0.041,-0.021 0.058,-0.037c0.017,-0.015 0.029,-0.034 0.038,-0.056c0.01,-0.022 0.014,-0.047 0.013,-0.074c0,-0.025 -0.004,-0.048 -0.012,-0.07c-0.008,-0.021 -0.02,-0.04 -0.035,-0.056c-0.015,-0.017 -0.034,-0.03 -0.056,-0.04c-0.022,-0.009 -0.047,-0.014 -0.074,-0.014c-0.025,0 -0.048,0.005 -0.069,0.014c-0.021,0.01 -0.039,0.023 -0.055,0.039c-0.015,0.017 -0.028,0.036 -0.037,0.057c-0.009,0.022 -0.013,0.045 -0.013,0.07Zm-0.012,0.334c0.019,0.026 0.044,0.047 0.075,0.062c0.031,0.016 0.066,0.024 0.104,0.024c0.033,0 0.062,-0.005 0.085,-0.015c0.023,-0.009 0.042,-0.022 0.056,-0.039c0.015,-0.017 0.025,-0.036 0.031,-0.059c0.007,-0.022 0.01,-0.046 0.01,-0.071l-0,-0.084l-0.002,-0c-0.021,0.032 -0.047,0.055 -0.078,0.068c-0.031,0.013 -0.063,0.02 -0.097,0.02c-0.034,-0 -0.066,-0.006 -0.096,-0.018c-0.029,-0.012 -0.055,-0.029 -0.077,-0.05c-0.022,-0.021 -0.039,-0.046 -0.052,-0.075c-0.013,-0.029 -0.019,-0.061 -0.019,-0.095c-0,-0.034 0.006,-0.066 0.018,-0.095c0.012,-0.029 0.028,-0.055 0.049,-0.077c0.021,-0.022 0.046,-0.039 0.075,-0.052c0.029,-0.012 0.061,-0.018 0.096,-0.018c0.014,0 0.029,0.001 0.044,0.004c0.016,0.003 0.032,0.007 0.047,0.014c0.016,0.007 0.032,0.016 0.047,0.027c0.015,0.012 0.03,0.027 0.043,0.045l0.002,-0l0,-0.078l0.066,-0l0,0.464c0,0.025 -0.003,0.052 -0.009,0.081c-0.007,0.029 -0.019,0.055 -0.037,0.079c-0.019,0.024 -0.044,0.044 -0.077,0.06c-0.033,0.016 -0.075,0.024 -0.128,0.024c-0.047,-0 -0.088,-0.008 -0.125,-0.023c-0.037,-0.015 -0.07,-0.039 -0.1,-0.071l0.049,-0.052Z" style="fill:rgb(135,187,213);fill-rule:nonzero;stroke:rgb(135,187,213);stroke-width:0.02px;"/>
        </g>
        <g transform="matrix(49.2317,0,0,49.2317,1749.31,1202.76)">
            <rect x="0.087" y="-0.756" width="0.066" height="0.756" style="fill:rgb(135,187,213);fill-rule:nonzero;stroke:rgb(135,187,213);stroke-width:0.02px;"/>
        </g>
        <g transform="matrix(49.2317,0,0,49.2317,1761.13,1202.76)">
            <path d="M0.436,-0.27c0,-0.045 -0.013,-0.081 -0.04,-0.108c-0.027,-0.028 -0.064,-0.042 -0.112,-0.042c-0.021,0 -0.042,0.004 -0.062,0.012c-0.02,0.009 -0.038,0.02 -0.053,0.034c-0.015,0.014 -0.027,0.03 -0.036,0.048c-0.009,0.018 -0.013,0.037 -0.013,0.056l0.316,0Zm-0.318,0.054c0.002,0.023 0.008,0.045 0.017,0.066c0.009,0.021 0.022,0.039 0.037,0.054c0.015,0.015 0.033,0.026 0.053,0.035c0.02,0.009 0.042,0.013 0.065,0.013c0.035,0 0.066,-0.008 0.091,-0.024c0.026,-0.017 0.046,-0.036 0.059,-0.057l0.051,0.042c-0.028,0.035 -0.059,0.061 -0.092,0.076c-0.034,0.015 -0.07,0.023 -0.109,0.023c-0.035,0 -0.067,-0.006 -0.097,-0.018c-0.029,-0.013 -0.055,-0.03 -0.076,-0.052c-0.021,-0.022 -0.038,-0.048 -0.051,-0.078c-0.012,-0.03 -0.018,-0.063 -0.018,-0.098c-0,-0.035 0.006,-0.068 0.018,-0.098c0.012,-0.03 0.029,-0.056 0.05,-0.078c0.021,-0.022 0.046,-0.039 0.075,-0.051c0.029,-0.013 0.06,-0.019 0.093,-0.019c0.035,0 0.067,0.006 0.095,0.019c0.028,0.013 0.052,0.03 0.071,0.051c0.018,0.021 0.033,0.045 0.043,0.074c0.01,0.028 0.015,0.058 0.015,0.09l0,0.03l-0.39,0Z" style="fill:rgb(135,187,213);fill-rule:nonzero;stroke:rgb(135,187,213);stroke-width:0.02px;"/>
        </g>
        <g transform="matrix(49.2317,0,0,49.2317,1621.8,1251.99)">
            <path d="M0.32,-0.357c-0.01,-0.019 -0.023,-0.035 -0.04,-0.046c-0.017,-0.011 -0.037,-0.017 -0.061,-0.017c-0.011,0 -0.023,0.001 -0.035,0.004c-0.011,0.003 -0.022,0.007 -0.031,0.012c-0.009,0.006 -0.017,0.013 -0.023,0.022c-0.005,0.009 -0.008,0.019 -0.008,0.032c-0,0.022 0.008,0.038 0.023,0.048c0.015,0.01 0.038,0.019 0.069,0.026l0.067,0.016c0.033,0.007 0.06,0.022 0.081,0.044c0.022,0.023 0.033,0.051 0.033,0.084c0,0.025 -0.005,0.047 -0.016,0.065c-0.01,0.019 -0.024,0.034 -0.04,0.045c-0.018,0.012 -0.037,0.021 -0.059,0.026c-0.022,0.005 -0.044,0.008 -0.067,0.008c-0.036,-0 -0.07,-0.007 -0.101,-0.021c-0.031,-0.013 -0.057,-0.037 -0.079,-0.07l0.057,-0.039c0.013,0.021 0.03,0.038 0.05,0.051c0.021,0.013 0.045,0.019 0.073,0.019c0.013,-0 0.027,-0.002 0.04,-0.005c0.013,-0.003 0.025,-0.007 0.035,-0.014c0.011,-0.006 0.019,-0.014 0.025,-0.024c0.007,-0.01 0.01,-0.022 0.01,-0.035c-0,-0.023 -0.009,-0.04 -0.026,-0.051c-0.017,-0.01 -0.038,-0.018 -0.063,-0.024l-0.064,-0.015c-0.008,-0.002 -0.019,-0.005 -0.033,-0.01c-0.013,-0.005 -0.027,-0.012 -0.04,-0.021c-0.013,-0.009 -0.024,-0.022 -0.033,-0.037c-0.009,-0.015 -0.014,-0.033 -0.014,-0.055c-0,-0.024 0.005,-0.045 0.014,-0.063c0.01,-0.018 0.023,-0.033 0.039,-0.044c0.017,-0.011 0.035,-0.02 0.056,-0.026c0.021,-0.005 0.042,-0.008 0.064,-0.008c0.033,0 0.063,0.006 0.091,0.019c0.028,0.013 0.05,0.034 0.065,0.065l-0.059,0.039Z" style="fill:rgb(135,187,213);fill-rule:nonzero;stroke:rgb(135,187,213);stroke-width:0.02px;"/>
        </g>
        <g transform="matrix(49.2317,0,0,49.2317,1642.78,1251.99)">
            <path d="M0.072,-0.756l0.066,0l0,0.363l0.002,0c0.007,-0.013 0.017,-0.024 0.028,-0.035c0.011,-0.011 0.024,-0.02 0.038,-0.027c0.014,-0.008 0.029,-0.014 0.044,-0.018c0.016,-0.005 0.032,-0.007 0.047,-0.007c0.06,0 0.104,0.016 0.133,0.048c0.029,0.031 0.043,0.076 0.043,0.135l0,0.297l-0.066,0l0,-0.259c0,-0.052 -0.009,-0.092 -0.027,-0.119c-0.018,-0.028 -0.051,-0.042 -0.1,-0.042c-0.003,0 -0.013,0.001 -0.028,0.004c-0.015,0.003 -0.031,0.01 -0.048,0.022c-0.017,0.012 -0.033,0.03 -0.046,0.054c-0.013,0.024 -0.02,0.057 -0.02,0.1l0,0.24l-0.066,0l0,-0.756Z" style="fill:rgb(135,187,213);fill-rule:nonzero;stroke:rgb(135,187,213);stroke-width:0.02px;"/>
        </g>
        <g transform="matrix(49.2317,0,0,49.2317,1670.15,1251.99)">
            <path d="M0.338,-0.233c-0.017,0 -0.038,0.001 -0.063,0.003c-0.025,0.001 -0.049,0.005 -0.072,0.012c-0.022,0.006 -0.042,0.016 -0.059,0.029c-0.016,0.013 -0.024,0.032 -0.024,0.055c-0,0.015 0.003,0.029 0.009,0.04c0.007,0.01 0.015,0.02 0.026,0.026c0.011,0.008 0.022,0.013 0.035,0.016c0.013,0.003 0.027,0.004 0.04,0.004c0.024,-0 0.045,-0.004 0.062,-0.012c0.018,-0.008 0.033,-0.019 0.045,-0.033c0.012,-0.013 0.021,-0.029 0.026,-0.048c0.006,-0.018 0.009,-0.037 0.009,-0.058l-0,-0.034l-0.034,0Zm0.034,-0.054l-0,-0.012c-0,-0.081 -0.04,-0.121 -0.12,-0.121c-0.055,0 -0.102,0.018 -0.143,0.055l-0.04,-0.047c0.044,-0.045 0.11,-0.068 0.198,-0.068c0.023,0 0.044,0.003 0.065,0.01c0.021,0.007 0.04,0.017 0.055,0.031c0.015,0.013 0.028,0.03 0.037,0.051c0.009,0.021 0.014,0.045 0.014,0.074l-0,0.209c-0,0.018 0.001,0.037 0.002,0.057c0.002,0.019 0.004,0.035 0.006,0.048l-0.064,0c-0.002,-0.011 -0.004,-0.024 -0.005,-0.037c-0.001,-0.013 -0.001,-0.026 -0.001,-0.039l-0.002,0c-0.019,0.031 -0.042,0.054 -0.069,0.068c-0.026,0.013 -0.058,0.02 -0.096,0.02c-0.021,0 -0.041,-0.003 -0.06,-0.008c-0.019,-0.006 -0.037,-0.015 -0.052,-0.026c-0.015,-0.012 -0.027,-0.026 -0.036,-0.043c-0.009,-0.017 -0.013,-0.037 -0.013,-0.06c-0,-0.038 0.01,-0.068 0.029,-0.089c0.02,-0.022 0.045,-0.038 0.074,-0.049c0.03,-0.011 0.062,-0.017 0.095,-0.02c0.034,-0.003 0.065,-0.004 0.093,-0.004l0.033,0Z" style="fill:rgb(135,187,213);fill-rule:nonzero;stroke:rgb(135,187,213);stroke-width:0.02px;"/>
        </g>
        <g transform="matrix(49.2317,0,0,49.2317,1695.7,1251.99)">
            <path d="M0.499,-0.234c-0,-0.026 -0.004,-0.05 -0.013,-0.073c-0.008,-0.023 -0.02,-0.042 -0.035,-0.059c-0.015,-0.017 -0.034,-0.03 -0.055,-0.04c-0.022,-0.009 -0.047,-0.014 -0.074,-0.014c-0.027,0 -0.052,0.005 -0.075,0.014c-0.023,0.01 -0.042,0.023 -0.059,0.04c-0.017,0.017 -0.03,0.036 -0.039,0.059c-0.009,0.023 -0.014,0.047 -0.014,0.073c0,0.026 0.005,0.05 0.014,0.073c0.009,0.023 0.022,0.042 0.039,0.059c0.017,0.017 0.036,0.03 0.059,0.039c0.023,0.01 0.048,0.015 0.075,0.015c0.027,-0 0.052,-0.005 0.074,-0.015c0.021,-0.009 0.04,-0.022 0.055,-0.039c0.015,-0.017 0.027,-0.036 0.036,-0.059c0.008,-0.023 0.012,-0.047 0.012,-0.073Zm-0.427,-0.234l0.066,-0l0,0.078l0.002,-0c0.011,-0.016 0.023,-0.03 0.038,-0.041c0.015,-0.011 0.03,-0.021 0.046,-0.028c0.016,-0.007 0.032,-0.013 0.049,-0.016c0.017,-0.003 0.034,-0.005 0.049,-0.005c0.037,0 0.07,0.006 0.1,0.018c0.031,0.013 0.057,0.03 0.079,0.052c0.022,0.022 0.039,0.048 0.051,0.078c0.013,0.03 0.019,0.063 0.019,0.098c0,0.035 -0.006,0.068 -0.019,0.098c-0.012,0.03 -0.029,0.056 -0.051,0.078c-0.022,0.022 -0.048,0.039 -0.079,0.051c-0.03,0.013 -0.063,0.019 -0.1,0.019c-0.015,-0 -0.031,-0.002 -0.048,-0.005c-0.017,-0.003 -0.034,-0.009 -0.05,-0.016c-0.016,-0.007 -0.031,-0.017 -0.046,-0.028c-0.015,-0.011 -0.027,-0.025 -0.038,-0.041l-0.002,-0l0,0.366l-0.066,0l0,-0.756Z" style="fill:rgb(135,187,213);fill-rule:nonzero;stroke:rgb(135,187,213);stroke-width:0.02px;"/>
        </g>
        <g transform="matrix(49.2317,0,0,49.2317,1725.78,1251.99)">
            <path d="M0.436,-0.27c0,-0.045 -0.013,-0.081 -0.04,-0.108c-0.027,-0.028 -0.064,-0.042 -0.112,-0.042c-0.021,0 -0.042,0.004 -0.062,0.012c-0.02,0.009 -0.038,0.02 -0.053,0.034c-0.015,0.014 -0.027,0.03 -0.036,0.048c-0.009,0.018 -0.013,0.037 -0.013,0.056l0.316,0Zm-0.318,0.054c0.002,0.023 0.008,0.045 0.017,0.066c0.009,0.021 0.022,0.039 0.037,0.054c0.015,0.015 0.033,0.026 0.053,0.035c0.02,0.009 0.042,0.013 0.065,0.013c0.035,0 0.066,-0.008 0.091,-0.024c0.026,-0.017 0.046,-0.036 0.059,-0.057l0.051,0.042c-0.028,0.035 -0.059,0.061 -0.092,0.076c-0.034,0.015 -0.07,0.023 -0.109,0.023c-0.035,0 -0.067,-0.006 -0.097,-0.018c-0.029,-0.013 -0.055,-0.03 -0.076,-0.052c-0.021,-0.022 -0.038,-0.048 -0.051,-0.078c-0.012,-0.03 -0.018,-0.063 -0.018,-0.098c-0,-0.035 0.006,-0.068 0.018,-0.098c0.012,-0.03 0.029,-0.056 0.05,-0.078c0.021,-0.022 0.046,-0.039 0.075,-0.051c0.029,-0.013 0.06,-0.019 0.093,-0.019c0.035,0 0.067,0.006 0.095,0.019c0.028,0.013 0.052,0.03 0.071,0.051c0.018,0.021 0.033,0.045 0.043,0.074c0.01,0.028 0.015,0.058 0.015,0.09l0,0.03l-0.39,0Z" style="fill:rgb(135,187,213);fill-rule:nonzero;stroke:rgb(135,187,213);stroke-width:0.02px;"/>
        </g>
    </g>
    <path d="M142.867,304.179c9.771,22.315 24.485,31.19 42.389,31.387" style="fill:none;stroke:rgb(135,187,213);stroke-opacity:0.98;stroke-width:9.28px;stroke-linecap:round;stroke-miterlimit:1.5;"/>
    <path d="M185.256,335.566l-9.39,-10.702" style="fill:none;stroke:rgb(135,187,213);stroke-opacity:0.98;stroke-width:9.28px;stroke-linecap:round;stroke-miterlimit:1.5;"/>
    <path d="M185.256,335.566l-9.605,8.087" style="fill:none;stroke:rgb(135,187,213);stroke-opacity:0.98;stroke-width:9.28px;stroke-linecap:round;stroke-miterlimit:1.5;"/>
    <path d="M187.874,569.847c-0,-2.053 -0.329,-3.975 -0.987,-5.764c-0.658,-1.79 -1.592,-3.343 -2.803,-4.659c-1.211,-1.316 -2.672,-2.356 -4.382,-3.119c-1.711,-0.763 -3.646,-1.145 -5.804,-1.145c-2.158,0 -4.132,0.382 -5.922,1.145c-1.79,0.763 -3.342,1.803 -4.658,3.119c-1.316,1.316 -2.343,2.869 -3.08,4.659c-0.737,1.789 -1.105,3.711 -1.105,5.764c-0,2.053 0.368,3.974 1.105,5.764c0.737,1.789 1.764,3.342 3.08,4.658c1.316,1.316 2.868,2.356 4.658,3.119c1.79,0.763 3.764,1.145 5.922,1.145c2.158,0 4.093,-0.382 5.804,-1.145c1.71,-0.763 3.171,-1.803 4.382,-3.119c1.211,-1.316 2.145,-2.869 2.803,-4.658c0.658,-1.79 0.987,-3.711 0.987,-5.764Zm-33.716,-18.477l5.212,0l-0,6.159l0.158,-0c0.842,-1.263 1.842,-2.342 3,-3.237c1.158,-0.895 2.369,-1.632 3.632,-2.211c1.263,-0.579 2.566,-1 3.909,-1.264c1.342,-0.263 2.618,-0.394 3.829,-0.394c2.895,-0 5.54,0.487 7.936,1.46c2.395,0.974 4.461,2.33 6.198,4.067c1.737,1.737 3.092,3.79 4.066,6.159c0.974,2.368 1.461,4.948 1.461,7.738c-0,2.79 -0.487,5.369 -1.461,7.738c-0.974,2.368 -2.329,4.421 -4.066,6.158c-1.737,1.738 -3.803,3.093 -6.198,4.067c-2.396,0.974 -5.041,1.461 -7.936,1.461c-1.211,-0 -2.487,-0.132 -3.829,-0.395c-1.343,-0.263 -2.646,-0.685 -3.909,-1.264c-1.263,-0.579 -2.474,-1.316 -3.632,-2.21c-1.158,-0.895 -2.158,-1.974 -3,-3.238l-0.158,0l-0,28.899l-5.212,0l0,-59.693Z" style="fill:rgb(0,32,255);fill-rule:nonzero;stroke:rgb(0,32,255);stroke-width:1px;"/>
    <path d="M223.406,569.926c-1.316,-0 -2.961,0.065 -4.935,0.197c-1.974,0.132 -3.869,0.447 -5.685,0.947c-1.817,0.501 -3.369,1.277 -4.659,2.33c-1.29,1.053 -1.935,2.5 -1.935,4.343c0,1.21 0.25,2.25 0.751,3.118c0.5,0.869 1.171,1.58 2.013,2.132c0.842,0.553 1.777,0.948 2.803,1.185c1.027,0.237 2.066,0.355 3.119,0.355c1.895,0 3.54,-0.316 4.935,-0.947c1.395,-0.632 2.566,-1.488 3.514,-2.567c0.947,-1.079 1.645,-2.342 2.092,-3.79c0.447,-1.447 0.671,-2.987 0.671,-4.619l0,-2.684l-2.684,-0Zm2.684,-4.264l0,-0.948c0,-6.369 -3.158,-9.554 -9.475,-9.554c-4.316,0 -8.08,1.448 -11.291,4.343l-3.158,-3.711c3.474,-3.58 8.685,-5.369 15.633,-5.369c1.79,-0 3.514,0.263 5.172,0.789c1.658,0.527 3.093,1.329 4.304,2.408c1.21,1.08 2.184,2.435 2.921,4.067c0.737,1.632 1.106,3.579 1.106,5.843l-0,16.502c-0,1.422 0.065,2.909 0.197,4.462c0.132,1.552 0.276,2.829 0.434,3.829l-5.053,0c-0.158,-0.895 -0.277,-1.869 -0.356,-2.921c-0.078,-1.053 -0.118,-2.08 -0.118,-3.08l-0.158,0c-1.526,2.474 -3.329,4.251 -5.409,5.33c-2.079,1.079 -4.619,1.619 -7.619,1.619c-1.632,-0 -3.211,-0.224 -4.738,-0.672c-1.526,-0.447 -2.882,-1.131 -4.066,-2.052c-1.185,-0.922 -2.132,-2.053 -2.843,-3.396c-0.71,-1.342 -1.066,-2.908 -1.066,-4.698c0,-3 0.777,-5.356 2.33,-7.067c1.553,-1.71 3.5,-2.987 5.843,-3.829c2.342,-0.842 4.843,-1.369 7.501,-1.579c2.658,-0.211 5.093,-0.316 7.304,-0.316l2.605,-0Z" style="fill:rgb(0,32,255);fill-rule:nonzero;stroke:rgb(0,32,255);stroke-width:1px;"/>
    <path d="M243.935,562.898c-0,-1.632 -0.039,-3.29 -0.118,-4.974c-0.079,-1.685 -0.145,-3.869 -0.198,-6.554l5.133,0l-0,6.87l0.157,-0c0.369,-1.001 0.895,-1.961 1.58,-2.882c0.684,-0.922 1.513,-1.751 2.487,-2.488c0.974,-0.737 2.105,-1.329 3.395,-1.776c1.29,-0.448 2.75,-0.671 4.382,-0.671c1.474,-0 2.764,0.158 3.869,0.473l-1.026,5.133c-0.684,-0.263 -1.685,-0.395 -3.001,-0.395c-2,-0 -3.711,0.382 -5.132,1.145c-1.421,0.763 -2.606,1.737 -3.553,2.921c-0.948,1.185 -1.645,2.461 -2.093,3.83c-0.447,1.369 -0.671,2.684 -0.671,3.948l0,20.845l-5.211,0l-0,-25.425Z" style="fill:rgb(0,32,255);fill-rule:nonzero;stroke:rgb(0,32,255);stroke-width:1px;"/>
    <path d="M288.705,556.108l-10.66,-0l0,21.792c0,1.369 0.132,2.488 0.395,3.356c0.263,0.869 0.632,1.54 1.106,2.014c0.473,0.473 1.039,0.802 1.697,0.987c0.658,0.184 1.382,0.276 2.172,0.276c0.895,0 1.816,-0.132 2.763,-0.395c0.948,-0.263 1.816,-0.605 2.606,-1.026l0.237,4.816c-1.948,0.895 -4.29,1.343 -7.028,1.343c-1,-0 -2.039,-0.132 -3.119,-0.395c-1.079,-0.263 -2.066,-0.763 -2.96,-1.5c-0.895,-0.737 -1.632,-1.738 -2.211,-3.001c-0.579,-1.263 -0.869,-2.921 -0.869,-4.974l0,-23.293l-7.817,-0l0,-4.738l7.817,0l0,-10.422l5.211,-0l0,10.422l10.66,0l-0,4.738Z" style="fill:rgb(0,32,255);fill-rule:nonzero;stroke:rgb(0,32,255);stroke-width:1px;"/>
    <path d="M303.391,537.157c0,1.106 -0.394,2.014 -1.184,2.725c-0.79,0.71 -1.658,1.066 -2.606,1.066c-0.947,-0 -1.816,-0.356 -2.605,-1.066c-0.79,-0.711 -1.185,-1.619 -1.185,-2.725c0,-1.105 0.395,-2.013 1.185,-2.724c0.789,-0.71 1.658,-1.066 2.605,-1.066c0.948,0 1.816,0.356 2.606,1.066c0.79,0.711 1.184,1.619 1.184,2.724Zm-1.184,51.166l-5.211,0l-0,-36.953l5.211,0l-0,36.953Z" style="fill:rgb(0,32,255);fill-rule:nonzero;stroke:rgb(0,32,255);stroke-width:1px;"/>
    <path d="M341.687,560.056c-0.895,-1.369 -2.145,-2.527 -3.751,-3.475c-1.605,-0.947 -3.435,-1.421 -5.488,-1.421c-2.158,-0.052 -4.092,0.29 -5.803,1.027c-1.711,0.737 -3.172,1.763 -4.382,3.079c-1.211,1.316 -2.132,2.882 -2.764,4.698c-0.632,1.816 -0.947,3.777 -0.947,5.883c-0,2.105 0.315,4.066 0.947,5.882c0.632,1.816 1.553,3.382 2.764,4.698c1.21,1.316 2.671,2.343 4.382,3.08c1.711,0.737 3.645,1.079 5.803,1.026c2.053,0 3.883,-0.474 5.488,-1.421c1.606,-0.948 2.856,-2.106 3.751,-3.474l4.263,3.237c-1.842,2.158 -3.921,3.75 -6.237,4.777c-2.317,1.026 -4.738,1.566 -7.265,1.619c-3,0.052 -5.711,-0.408 -8.132,-1.382c-2.422,-0.974 -4.488,-2.329 -6.199,-4.067c-1.711,-1.737 -3.013,-3.803 -3.908,-6.198c-0.895,-2.395 -1.343,-4.987 -1.343,-7.777c0,-2.79 0.448,-5.383 1.343,-7.778c0.895,-2.395 2.197,-4.461 3.908,-6.198c1.711,-1.737 3.777,-3.093 6.199,-4.067c2.421,-0.973 5.132,-1.434 8.132,-1.381c2.527,0.052 4.948,0.592 7.265,1.618c2.316,1.027 4.395,2.619 6.237,4.777l-4.263,3.238Z" style="fill:rgb(0,32,255);fill-rule:nonzero;stroke:rgb(0,32,255);stroke-width:1px;"/>
    <rect x="354.004" y="528.63" width="5.211" height="59.693" style="fill:rgb(0,32,255);fill-rule:nonzero;stroke:rgb(0,32,255);stroke-width:1px;"/>
    <path d="M400.511,567.004c0,-3.527 -1.053,-6.382 -3.158,-8.567c-2.106,-2.185 -5.054,-3.277 -8.844,-3.277c-1.684,0 -3.316,0.329 -4.895,0.987c-1.579,0.658 -2.961,1.54 -4.145,2.645c-1.185,1.106 -2.132,2.369 -2.843,3.79c-0.711,1.422 -1.066,2.896 -1.066,4.422l24.951,0Zm-25.109,4.264c0.158,1.842 0.606,3.579 1.343,5.211c0.736,1.632 1.71,3.04 2.921,4.225c1.211,1.184 2.606,2.118 4.185,2.803c1.579,0.684 3.29,1.026 5.132,1.026c2.79,0 5.198,-0.645 7.225,-1.934c2.027,-1.29 3.566,-2.777 4.619,-4.462l4.027,3.317c-2.211,2.79 -4.645,4.79 -7.304,6.001c-2.658,1.21 -5.514,1.816 -8.567,1.816c-2.737,-0 -5.277,-0.487 -7.619,-1.461c-2.343,-0.974 -4.356,-2.329 -6.041,-4.067c-1.684,-1.737 -3.013,-3.79 -3.987,-6.158c-0.974,-2.369 -1.461,-4.948 -1.461,-7.738c0,-2.79 0.474,-5.37 1.421,-7.738c0.948,-2.369 2.264,-4.422 3.948,-6.159c1.685,-1.737 3.659,-3.093 5.922,-4.067c2.264,-0.973 4.711,-1.46 7.343,-1.46c2.79,-0 5.291,0.5 7.502,1.5c2.21,1 4.066,2.329 5.566,3.987c1.5,1.658 2.645,3.606 3.435,5.843c0.79,2.237 1.184,4.619 1.184,7.146l0,2.369l-30.794,-0Z" style="fill:rgb(0,32,255);fill-rule:nonzero;stroke:rgb(0,32,255);stroke-width:1px;"/>
    <path d="M445.202,537.157c0,1.106 -0.395,2.014 -1.184,2.725c-0.79,0.71 -1.658,1.066 -2.606,1.066c-0.947,-0 -1.816,-0.356 -2.605,-1.066c-0.79,-0.711 -1.185,-1.619 -1.185,-2.725c0,-1.105 0.395,-2.013 1.185,-2.724c0.789,-0.71 1.658,-1.066 2.605,-1.066c0.948,0 1.816,0.356 2.606,1.066c0.789,0.711 1.184,1.619 1.184,2.724Zm-1.184,51.166l-5.211,0l-0,-36.953l5.211,0l-0,36.953Z" style="fill:rgb(0,32,255);fill-rule:nonzero;stroke:rgb(0,32,255);stroke-width:1px;"/>
    <path d="M386.123,510.077l18.759,-101.563" style="fill:none;stroke:rgb(0,32,255);stroke-width:9.28px;stroke-linecap:round;stroke-miterlimit:1.5;"/>
    <path d="M404.882,408.514l-16.541,9.623" style="fill:none;stroke:rgb(0,32,255);stroke-width:9.28px;stroke-linecap:round;stroke-miterlimit:1.5;"/>
    <path d="M404.882,408.514l12.631,13.533" style="fill:none;stroke:rgb(0,32,255);stroke-width:9.28px;stroke-linecap:round;stroke-miterlimit:1.5;"/>
</svg>
