<svg width="311" height="150" xmlns="http://www.w3.org/2000/svg" xmlns:xlink="http://www.w3.org/1999/xlink" xml:space="preserve" overflow="hidden"><defs><clipPath id="clip0"><rect x="0" y="0" width="311" height="150"/></clipPath><clipPath id="clip1"><path d="M311.51 131.363C300.984 131.273 290.494 130.895 279.929 130.009 262.679 128.563 249.017 122.96 238.568 113.778 229.801 106.073 222.766 96.738 216.148 86.2011 209.577 75.7389 203.413 63.9874 197.207 51.7678 191.317 40.1697 184.819 27.8145 178.048 17.8601 171.276 7.90618 164.102 0.738925 155.846 0.738925 147.589 0.738925 140.415 7.90618 133.644 17.8601 126.872 27.8145 120.375 40.1697 114.484 51.7678 108.278 63.9874 102.114 75.7389 95.5432 86.2011 88.9255 96.738 81.89 106.073 73.1226 113.778 62.6754 122.96 49.0114 128.563 31.7612 130.009 21.1966 130.895 10.7074 131.273 0.180534 131.363"/></clipPath></defs><g clip-path="url(#clip0)"><g clip-path="url(#clip1)"><path d="M114.484 0.738745 155.846 0.738745 155.846 131.572 114.484 131.572Z" fill="#97D5FF" transform="scale(1 1.00024)"/><path d="M73.1226 0.738745 114.484 0.738745 114.484 131.572 73.1226 131.572Z" fill="#C4E6FD" transform="scale(1 1.00024)"/><path d="M31.7612 0.738745 73.1228 0.738745 73.1228 131.572 31.7612 131.572Z" fill="#DEF2FF" transform="scale(1 1.00024)"/><path d="M-9.60032 0.738745 31.7612 0.738745 31.7612 131.572-9.60032 131.572Z" fill="#F4F9FC" transform="scale(1 1.00024)"/><path d="M279.929 0.738745 321.29 0.738745 321.29 131.572 279.929 131.572Z" fill="#FFEFEF" transform="scale(1 1.00024)"/><path d="M238.568 0.738745 279.929 0.738745 279.929 131.572 238.568 131.572Z" fill="#FFDEDE" transform="scale(1 1.00024)"/><path d="M197.207 0.738745 238.569 0.738745 238.569 131.572 197.207 131.572Z" fill="#FDC4C4" transform="scale(1 1.00024)"/><path d="M155.845 0.738745 197.207 0.738745 197.207 131.572 155.845 131.572Z" fill="#FFA8A8" transform="scale(1 1.00024)"/></g><path d="M311.51 131.331C300.984 131.241 290.494 130.863 279.929 129.978 262.679 128.531 249.017 122.93 238.568 113.75 229.801 106.047 222.766 96.7145 216.148 86.1802 209.577 75.7206 203.413 63.9719 197.207 51.7553 191.317 40.1599 184.819 27.8078 178.048 17.8558 171.276 7.90426 164.102 0.738745 155.846 0.738745 147.589 0.738745 140.415 7.90426 133.644 17.8558 126.872 27.8078 120.375 40.1599 114.484 51.7553 108.278 63.9719 102.114 75.7206 95.5432 86.1802 88.9255 96.7145 81.89 106.047 73.1226 113.75 62.6754 122.93 49.0114 128.531 31.7612 129.978 21.1966 130.863 10.7074 131.241 0.180534 131.331" stroke="#000000" stroke-width="0.962848" fill="none" transform="scale(1 1.00024)"/><path d="M279.929 129.977 279.929 131.572M238.568 113.699 238.568 131.572M197.207 51.7553 197.207 131.572M31.7615 129.978 31.7615 131.572M73.123 113.699 73.123 131.572M114.484 51.7553 114.484 131.572M155.846 131.572 155.846 0.738745" stroke="#000000" stroke-width="0.722136" fill="none" transform="scale(1 1.00024)"/><path d="M0.180534 131.572 311.51 131.572" stroke="#000000" stroke-width="0.722136" fill="none" transform="scale(1 1.00024)"/><path d="M31.7612 129.977 31.7612 115.542M279.929 129.977 279.929 115.542" stroke="#000000" stroke-width="0.722136" stroke-dasharray="0.722136 0.722136" fill="#FFEFEF" transform="scale(1 1.00024)"/><text font-family="Times New Roman,Times New Roman_MSFontService,sans-serif" font-weight="400" font-size="30" transform="matrix(0.240712 0 0 0.24077 153.98 141)">μ</text><text font-family="Times New Roman,Times New Roman_MSFontService,sans-serif" font-weight="400" font-size="30" transform="matrix(0.240712 0 0 0.24077 191.37 141)">μ</text><text font-family="Times New Roman,Times New Roman_MSFontService,sans-serif" font-weight="400" font-size="30" transform="matrix(0.240712 0 0 0.24077 195.221 141)">+</text><text font-family="Times New Roman,Times New Roman_MSFontService,sans-serif" font-weight="400" font-size="30" transform="matrix(0.240712 0 0 0.24077 199.313 141)">σ</text><text font-family="Times New Roman,Times New Roman_MSFontService,sans-serif" font-weight="400" font-size="30" transform="matrix(0.240712 0 0 0.24077 229.722 141)">μ</text><text font-family="Times New Roman,Times New Roman_MSFontService,sans-serif" font-weight="400" font-size="30" transform="matrix(0.240712 0 0 0.24077 233.574 141)">+</text><text font-family="Times New Roman,Times New Roman_MSFontService,sans-serif" font-weight="400" font-size="30" transform="matrix(0.240712 0 0 0.24077 237.666 141)">2</text><text font-family="Times New Roman,Times New Roman_MSFontService,sans-serif" font-weight="400" font-size="30" transform="matrix(0.240712 0 0 0.24077 241.277 141)">·</text><text font-family="Times New Roman,Times New Roman_MSFontService,sans-serif" font-weight="400" font-size="30" transform="matrix(0.240712 0 0 0.24077 243.684 141)">σ</text><text font-family="Times New Roman,Times New Roman_MSFontService,sans-serif" font-weight="400" font-size="30" transform="matrix(0.240712 0 0 0.24077 271.083 141)">μ</text><text font-family="Times New Roman,Times New Roman_MSFontService,sans-serif" font-weight="400" font-size="30" transform="matrix(0.240712 0 0 0.24077 274.934 141)">+</text><text font-family="Times New Roman,Times New Roman_MSFontService,sans-serif" font-weight="400" font-size="30" transform="matrix(0.240712 0 0 0.24077 279.026 141)">3</text><text font-family="Times New Roman,Times New Roman_MSFontService,sans-serif" font-weight="400" font-size="30" transform="matrix(0.240712 0 0 0.24077 282.637 141)">·</text><text font-family="Times New Roman,Times New Roman_MSFontService,sans-serif" font-weight="400" font-size="30" transform="matrix(0.240712 0 0 0.24077 285.044 141)">σ</text><text font-family="Times New Roman,Times New Roman_MSFontService,sans-serif" font-weight="400" font-size="30" transform="matrix(0.240712 0 0 0.24077 108.647 141)">μ</text><text font-family="Times New Roman,Times New Roman_MSFontService,sans-serif" font-weight="400" font-size="30" transform="matrix(0.240712 0 0 0.24077 112.498 141)">−</text><text font-family="Times New Roman,Times New Roman_MSFontService,sans-serif" font-weight="400" font-size="30" transform="matrix(0.240712 0 0 0.24077 116.59 141)">σ</text><text font-family="Times New Roman,Times New Roman_MSFontService,sans-serif" font-weight="400" font-size="30" transform="matrix(0.240712 0 0 0.24077 64.2764 141)">μ</text><text font-family="Times New Roman,Times New Roman_MSFontService,sans-serif" font-weight="400" font-size="30" transform="matrix(0.240712 0 0 0.24077 68.1278 141)">−</text><text font-family="Times New Roman,Times New Roman_MSFontService,sans-serif" font-weight="400" font-size="30" transform="matrix(0.240712 0 0 0.24077 72.2199 141)">2</text><text font-family="Times New Roman,Times New Roman_MSFontService,sans-serif" font-weight="400" font-size="30" transform="matrix(0.240712 0 0 0.24077 75.8306 141)">·</text><text font-family="Times New Roman,Times New Roman_MSFontService,sans-serif" font-weight="400" font-size="30" transform="matrix(0.240712 0 0 0.24077 78.2377 141)">σ</text><text font-family="Times New Roman,Times New Roman_MSFontService,sans-serif" font-weight="400" font-size="30" transform="matrix(0.240712 0 0 0.24077 22.9151 141)">μ</text><text font-family="Times New Roman,Times New Roman_MSFontService,sans-serif" font-weight="400" font-size="30" transform="matrix(0.240712 0 0 0.24077 26.7665 141)">−</text><text font-family="Times New Roman,Times New Roman_MSFontService,sans-serif" font-weight="400" font-size="30" transform="matrix(0.240712 0 0 0.24077 30.8586 141)">3</text><text font-family="Times New Roman,Times New Roman_MSFontService,sans-serif" font-weight="400" font-size="30" transform="matrix(0.240712 0 0 0.24077 34.4692 141)">·</text><text font-family="Times New Roman,Times New Roman_MSFontService,sans-serif" font-weight="400" font-size="30" transform="matrix(0.240712 0 0 0.24077 36.8764 141)">σ</text><text font-family="Times New Roman,Times New Roman_MSFontService,sans-serif" font-weight="400" font-size="24" transform="matrix(0.240712 0 0 0.24077 37.7918 24)">P</text><text font-family="Times New Roman,Times New Roman_MSFontService,sans-serif" font-weight="400" font-size="24" transform="matrix(0.240712 0 0 0.24077 41.1618 24)">(</text><text font-family="Times New Roman,Times New Roman_MSFontService,sans-serif" font-weight="400" font-size="24" transform="matrix(0.240712 0 0 0.24077 43.0875 24)">μ</text><text font-family="Times New Roman,Times New Roman_MSFontService,sans-serif" font-weight="400" font-size="24" transform="matrix(0.240712 0 0 0.24077 46.2167 24)">−</text><text font-family="Times New Roman,Times New Roman_MSFontService,sans-serif" font-weight="400" font-size="24" transform="matrix(0.240712 0 0 0.24077 49.5867 24)">1</text><text font-family="Times New Roman,Times New Roman_MSFontService,sans-serif" font-weight="400" font-size="24" transform="matrix(0.240712 0 0 0.24077 52.4752 24)">·</text><text font-family="Times New Roman,Times New Roman_MSFontService,sans-serif" font-weight="400" font-size="24" transform="matrix(0.240712 0 0 0.24077 54.4009 24)">σ </text><text font-family="Times New Roman,Times New Roman_MSFontService,sans-serif" font-weight="400" font-size="24" transform="matrix(0.240712 0 0 0.24077 58.9745 24)">≤ </text><text font-family="Times New Roman,Times New Roman_MSFontService,sans-serif" font-weight="400" font-size="24" transform="matrix(0.240712 0 0 0.24077 63.548 24)">X </text><text font-family="Times New Roman,Times New Roman_MSFontService,sans-serif" font-weight="400" font-size="24" transform="matrix(0.240712 0 0 0.24077 69.0844 24)">≤ </text><text font-family="Times New Roman,Times New Roman_MSFontService,sans-serif" font-weight="400" font-size="24" transform="matrix(0.240712 0 0 0.24077 73.6579 24)">μ</text><text font-family="Times New Roman,Times New Roman_MSFontService,sans-serif" font-weight="400" font-size="24" transform="matrix(0.240712 0 0 0.24077 76.7872 24)">+</text><text font-family="Times New Roman,Times New Roman_MSFontService,sans-serif" font-weight="400" font-size="24" transform="matrix(0.240712 0 0 0.24077 80.1571 24)">1</text><text font-family="Times New Roman,Times New Roman_MSFontService,sans-serif" font-weight="400" font-size="24" transform="matrix(0.240712 0 0 0.24077 83.0457 24)">·</text><text font-family="Times New Roman,Times New Roman_MSFontService,sans-serif" font-weight="400" font-size="24" transform="matrix(0.240712 0 0 0.24077 84.9714 24)">σ</text><text font-family="Times New Roman,Times New Roman_MSFontService,sans-serif" font-weight="400" font-size="24" transform="matrix(0.240712 0 0 0.24077 88.1006 24)">) </text><text font-family="Times New Roman,Times New Roman_MSFontService,sans-serif" font-weight="400" font-size="24" transform="matrix(0.240712 0 0 0.24077 91.4706 24)">≈ </text><text font-family="Times New Roman,Times New Roman_MSFontService,sans-serif" font-weight="400" font-size="24" transform="matrix(0.240712 0 0 0.24077 96.0441 24)">68</text><text font-family="Times New Roman,Times New Roman_MSFontService,sans-serif" font-weight="400" font-size="24" transform="matrix(0.240712 0 0 0.24077 101.821 24)">,</text><text font-family="Times New Roman,Times New Roman_MSFontService,sans-serif" font-weight="400" font-size="24" transform="matrix(0.240712 0 0 0.24077 103.265 24)">27 </text><text font-family="Times New Roman,Times New Roman_MSFontService,sans-serif" font-weight="400" font-size="24" transform="matrix(0.240712 0 0 0.24077 110.487 24)">%</text><text font-family="Times New Roman,Times New Roman_MSFontService,sans-serif" font-weight="400" font-size="24" transform="matrix(0.240712 0 0 0.24077 37.7918 31)">P</text><text font-family="Times New Roman,Times New Roman_MSFontService,sans-serif" font-weight="400" font-size="24" transform="matrix(0.240712 0 0 0.24077 41.1618 31)">(</text><text font-family="Times New Roman,Times New Roman_MSFontService,sans-serif" font-weight="400" font-size="24" transform="matrix(0.240712 0 0 0.24077 43.0875 31)">μ</text><text font-family="Times New Roman,Times New Roman_MSFontService,sans-serif" font-weight="400" font-size="24" transform="matrix(0.240712 0 0 0.24077 46.2167 31)">−</text><text font-family="Times New Roman,Times New Roman_MSFontService,sans-serif" font-weight="400" font-size="24" transform="matrix(0.240712 0 0 0.24077 49.5867 31)">2</text><text font-family="Times New Roman,Times New Roman_MSFontService,sans-serif" font-weight="400" font-size="24" transform="matrix(0.240712 0 0 0.24077 52.4752 31)">·</text><text font-family="Times New Roman,Times New Roman_MSFontService,sans-serif" font-weight="400" font-size="24" transform="matrix(0.240712 0 0 0.24077 54.4009 31)">σ </text><text font-family="Times New Roman,Times New Roman_MSFontService,sans-serif" font-weight="400" font-size="24" transform="matrix(0.240712 0 0 0.24077 58.9745 31)">≤ </text><text font-family="Times New Roman,Times New Roman_MSFontService,sans-serif" font-weight="400" font-size="24" transform="matrix(0.240712 0 0 0.24077 63.548 31)">X </text><text font-family="Times New Roman,Times New Roman_MSFontService,sans-serif" font-weight="400" font-size="24" transform="matrix(0.240712 0 0 0.24077 69.0844 31)">≤ </text><text font-family="Times New Roman,Times New Roman_MSFontService,sans-serif" font-weight="400" font-size="24" transform="matrix(0.240712 0 0 0.24077 73.6579 31)">μ</text><text font-family="Times New Roman,Times New Roman_MSFontService,sans-serif" font-weight="400" font-size="24" transform="matrix(0.240712 0 0 0.24077 76.7872 31)">+</text><text font-family="Times New Roman,Times New Roman_MSFontService,sans-serif" font-weight="400" font-size="24" transform="matrix(0.240712 0 0 0.24077 80.1571 31)">2</text><text font-family="Times New Roman,Times New Roman_MSFontService,sans-serif" font-weight="400" font-size="24" transform="matrix(0.240712 0 0 0.24077 83.0457 31)">·</text><text font-family="Times New Roman,Times New Roman_MSFontService,sans-serif" font-weight="400" font-size="24" transform="matrix(0.240712 0 0 0.24077 84.9714 31)">σ</text><text font-family="Times New Roman,Times New Roman_MSFontService,sans-serif" font-weight="400" font-size="24" transform="matrix(0.240712 0 0 0.24077 88.1006 31)">) </text><text font-family="Times New Roman,Times New Roman_MSFontService,sans-serif" font-weight="400" font-size="24" transform="matrix(0.240712 0 0 0.24077 91.4706 31)">≈ </text><text font-family="Times New Roman,Times New Roman_MSFontService,sans-serif" font-weight="400" font-size="24" transform="matrix(0.240712 0 0 0.24077 96.0441 31)">95</text><text font-family="Times New Roman,Times New Roman_MSFontService,sans-serif" font-weight="400" font-size="24" transform="matrix(0.240712 0 0 0.24077 101.821 31)">,</text><text font-family="Times New Roman,Times New Roman_MSFontService,sans-serif" font-weight="400" font-size="24" transform="matrix(0.240712 0 0 0.24077 103.265 31)">45 </text><text font-family="Times New Roman,Times New Roman_MSFontService,sans-serif" font-weight="400" font-size="24" transform="matrix(0.240712 0 0 0.24077 110.487 31)">%</text><text font-family="Times New Roman,Times New Roman_MSFontService,sans-serif" font-weight="400" font-size="24" transform="matrix(0.240712 0 0 0.24077 37.7918 38)">P</text><text font-family="Times New Roman,Times New Roman_MSFontService,sans-serif" font-weight="400" font-size="24" transform="matrix(0.240712 0 0 0.24077 41.1618 38)">(</text><text font-family="Times New Roman,Times New Roman_MSFontService,sans-serif" font-weight="400" font-size="24" transform="matrix(0.240712 0 0 0.24077 43.0875 38)">μ</text><text font-family="Times New Roman,Times New Roman_MSFontService,sans-serif" font-weight="400" font-size="24" transform="matrix(0.240712 0 0 0.24077 46.2167 38)">−</text><text font-family="Times New Roman,Times New Roman_MSFontService,sans-serif" font-weight="400" font-size="24" transform="matrix(0.240712 0 0 0.24077 49.5867 38)">3</text><text font-family="Times New Roman,Times New Roman_MSFontService,sans-serif" font-weight="400" font-size="24" transform="matrix(0.240712 0 0 0.24077 52.4752 38)">·</text><text font-family="Times New Roman,Times New Roman_MSFontService,sans-serif" font-weight="400" font-size="24" transform="matrix(0.240712 0 0 0.24077 54.4009 38)">σ </text><text font-family="Times New Roman,Times New Roman_MSFontService,sans-serif" font-weight="400" font-size="24" transform="matrix(0.240712 0 0 0.24077 58.9745 38)">≤ </text><text font-family="Times New Roman,Times New Roman_MSFontService,sans-serif" font-weight="400" font-size="24" transform="matrix(0.240712 0 0 0.24077 63.548 38)">X </text><text font-family="Times New Roman,Times New Roman_MSFontService,sans-serif" font-weight="400" font-size="24" transform="matrix(0.240712 0 0 0.24077 69.0844 38)">≤ </text><text font-family="Times New Roman,Times New Roman_MSFontService,sans-serif" font-weight="400" font-size="24" transform="matrix(0.240712 0 0 0.24077 73.6579 38)">μ</text><text font-family="Times New Roman,Times New Roman_MSFontService,sans-serif" font-weight="400" font-size="24" transform="matrix(0.240712 0 0 0.24077 76.7872 38)">+</text><text font-family="Times New Roman,Times New Roman_MSFontService,sans-serif" font-weight="400" font-size="24" transform="matrix(0.240712 0 0 0.24077 80.1571 38)">3</text><text font-family="Times New Roman,Times New Roman_MSFontService,sans-serif" font-weight="400" font-size="24" transform="matrix(0.240712 0 0 0.24077 83.0457 38)">·</text><text font-family="Times New Roman,Times New Roman_MSFontService,sans-serif" font-weight="400" font-size="24" transform="matrix(0.240712 0 0 0.24077 84.9714 38)">σ</text><text font-family="Times New Roman,Times New Roman_MSFontService,sans-serif" font-weight="400" font-size="24" transform="matrix(0.240712 0 0 0.24077 88.1006 38)">) </text><text font-family="Times New Roman,Times New Roman_MSFontService,sans-serif" font-weight="400" font-size="24" transform="matrix(0.240712 0 0 0.24077 91.4706 38)">≈ </text><text font-family="Times New Roman,Times New Roman_MSFontService,sans-serif" font-weight="400" font-size="24" transform="matrix(0.240712 0 0 0.24077 96.0441 38)">99</text><text font-family="Times New Roman,Times New Roman_MSFontService,sans-serif" font-weight="400" font-size="24" transform="matrix(0.240712 0 0 0.24077 101.821 38)">,</text><text font-family="Times New Roman,Times New Roman_MSFontService,sans-serif" font-weight="400" font-size="24" transform="matrix(0.240712 0 0 0.24077 103.265 38)">73 </text><text font-family="Times New Roman,Times New Roman_MSFontService,sans-serif" font-weight="400" font-size="24" transform="matrix(0.240712 0 0 0.24077 110.487 38)">%</text><text font-family="Times New Roman,Times New Roman_MSFontService,sans-serif" font-weight="400" font-size="24" transform="matrix(0.240712 0 0 0.24077 123.169 148)">P</text><text font-family="Times New Roman,Times New Roman_MSFontService,sans-serif" font-weight="400" font-size="24" transform="matrix(0.240712 0 0 0.24077 126.539 148)">(</text><text font-family="Times New Roman,Times New Roman_MSFontService,sans-serif" font-weight="400" font-size="24" transform="matrix(0.240712 0 0 0.24077 128.464 148)">X </text><text font-family="Times New Roman,Times New Roman_MSFontService,sans-serif" font-weight="400" font-size="24" transform="matrix(0.240712 0 0 0.24077 134.001 148)">≤ </text><text font-family="Times New Roman,Times New Roman_MSFontService,sans-serif" font-weight="400" font-size="24" transform="matrix(0.240712 0 0 0.24077 138.574 148)">μ</text><text font-family="Times New Roman,Times New Roman_MSFontService,sans-serif" font-weight="400" font-size="24" transform="matrix(0.240712 0 0 0.24077 141.704 148)">) = </text><text font-family="Times New Roman,Times New Roman_MSFontService,sans-serif" font-weight="400" font-size="24" transform="matrix(0.240712 0 0 0.24077 149.888 148)">50 </text><text font-family="Times New Roman,Times New Roman_MSFontService,sans-serif" font-weight="400" font-size="24" transform="matrix(0.240712 0 0 0.24077 157.109 148)">% = </text><text font-family="Times New Roman,Times New Roman_MSFontService,sans-serif" font-weight="400" font-size="24" transform="matrix(0.240712 0 0 0.24077 168.182 148)">P</text><text font-family="Times New Roman,Times New Roman_MSFontService,sans-serif" font-weight="400" font-size="24" transform="matrix(0.240712 0 0 0.24077 171.552 148)">(</text><text font-family="Times New Roman,Times New Roman_MSFontService,sans-serif" font-weight="400" font-size="24" transform="matrix(0.240712 0 0 0.24077 173.478 148)">X </text><text font-family="Times New Roman,Times New Roman_MSFontService,sans-serif" font-weight="400" font-size="24" transform="matrix(0.240712 0 0 0.24077 179.014 148)">≥ </text><text font-family="Times New Roman,Times New Roman_MSFontService,sans-serif" font-weight="400" font-size="24" transform="matrix(0.240712 0 0 0.24077 183.587 148)">μ</text><text font-family="Times New Roman,Times New Roman_MSFontService,sans-serif" font-weight="400" font-size="24" transform="matrix(0.240712 0 0 0.24077 186.717 148)">)</text><text font-family="Times New Roman,Times New Roman_MSFontService,sans-serif" font-weight="400" font-size="24" transform="matrix(0.240712 0 0 0.24077 197.264 24)">P</text><text font-family="Times New Roman,Times New Roman_MSFontService,sans-serif" font-weight="400" font-size="24" transform="matrix(0.240712 0 0 0.24077 200.634 24)">(</text><text font-family="Times New Roman,Times New Roman_MSFontService,sans-serif" font-weight="400" font-size="24" transform="matrix(0.240712 0 0 0.24077 202.559 24)">X </text><text font-family="Times New Roman,Times New Roman_MSFontService,sans-serif" font-weight="400" font-size="24" transform="matrix(0.240712 0 0 0.24077 208.096 24)">≤ </text><text font-family="Times New Roman,Times New Roman_MSFontService,sans-serif" font-weight="400" font-size="24" transform="matrix(0.240712 0 0 0.24077 212.669 24)">μ</text><text font-family="Times New Roman,Times New Roman_MSFontService,sans-serif" font-weight="400" font-size="24" transform="matrix(0.240712 0 0 0.24077 215.798 24)">+</text><text font-family="Times New Roman,Times New Roman_MSFontService,sans-serif" font-weight="400" font-size="24" transform="matrix(0.240712 0 0 0.24077 219.168 24)">1</text><text font-family="Times New Roman,Times New Roman_MSFontService,sans-serif" font-weight="400" font-size="24" transform="matrix(0.240712 0 0 0.24077 222.057 24)">·</text><text font-family="Times New Roman,Times New Roman_MSFontService,sans-serif" font-weight="400" font-size="24" transform="matrix(0.240712 0 0 0.24077 223.983 24)">σ</text><text font-family="Times New Roman,Times New Roman_MSFontService,sans-serif" font-weight="400" font-size="24" transform="matrix(0.240712 0 0 0.24077 227.112 24)">) </text><text font-family="Times New Roman,Times New Roman_MSFontService,sans-serif" font-weight="400" font-size="24" transform="matrix(0.240712 0 0 0.24077 230.482 24)">≈ </text><text font-family="Times New Roman,Times New Roman_MSFontService,sans-serif" font-weight="400" font-size="24" transform="matrix(0.240712 0 0 0.24077 235.055 24)">84</text><text font-family="Times New Roman,Times New Roman_MSFontService,sans-serif" font-weight="400" font-size="24" transform="matrix(0.240712 0 0 0.24077 240.832 24)">,</text><text font-family="Times New Roman,Times New Roman_MSFontService,sans-serif" font-weight="400" font-size="24" transform="matrix(0.240712 0 0 0.24077 242.277 24)">13 </text><text font-family="Times New Roman,Times New Roman_MSFontService,sans-serif" font-weight="400" font-size="24" transform="matrix(0.240712 0 0 0.24077 249.498 24)">%</text><text font-family="Times New Roman,Times New Roman_MSFontService,sans-serif" font-weight="400" font-size="24" transform="matrix(0.240712 0 0 0.24077 197.264 31)">P</text><text font-family="Times New Roman,Times New Roman_MSFontService,sans-serif" font-weight="400" font-size="24" transform="matrix(0.240712 0 0 0.24077 200.634 31)">(</text><text font-family="Times New Roman,Times New Roman_MSFontService,sans-serif" font-weight="400" font-size="24" transform="matrix(0.240712 0 0 0.24077 202.559 31)">X </text><text font-family="Times New Roman,Times New Roman_MSFontService,sans-serif" font-weight="400" font-size="24" transform="matrix(0.240712 0 0 0.24077 208.096 31)">≤ </text><text font-family="Times New Roman,Times New Roman_MSFontService,sans-serif" font-weight="400" font-size="24" transform="matrix(0.240712 0 0 0.24077 212.669 31)">μ</text><text font-family="Times New Roman,Times New Roman_MSFontService,sans-serif" font-weight="400" font-size="24" transform="matrix(0.240712 0 0 0.24077 215.798 31)">+</text><text font-family="Times New Roman,Times New Roman_MSFontService,sans-serif" font-weight="400" font-size="24" transform="matrix(0.240712 0 0 0.24077 219.168 31)">2</text><text font-family="Times New Roman,Times New Roman_MSFontService,sans-serif" font-weight="400" font-size="24" transform="matrix(0.240712 0 0 0.24077 222.057 31)">·</text><text font-family="Times New Roman,Times New Roman_MSFontService,sans-serif" font-weight="400" font-size="24" transform="matrix(0.240712 0 0 0.24077 223.983 31)">σ</text><text font-family="Times New Roman,Times New Roman_MSFontService,sans-serif" font-weight="400" font-size="24" transform="matrix(0.240712 0 0 0.24077 227.112 31)">) </text><text font-family="Times New Roman,Times New Roman_MSFontService,sans-serif" font-weight="400" font-size="24" transform="matrix(0.240712 0 0 0.24077 230.482 31)">≈ </text><text font-family="Times New Roman,Times New Roman_MSFontService,sans-serif" font-weight="400" font-size="24" transform="matrix(0.240712 0 0 0.24077 235.055 31)">97</text><text font-family="Times New Roman,Times New Roman_MSFontService,sans-serif" font-weight="400" font-size="24" transform="matrix(0.240712 0 0 0.24077 240.832 31)">,</text><text font-family="Times New Roman,Times New Roman_MSFontService,sans-serif" font-weight="400" font-size="24" transform="matrix(0.240712 0 0 0.24077 242.277 31)">72 </text><text font-family="Times New Roman,Times New Roman_MSFontService,sans-serif" font-weight="400" font-size="24" transform="matrix(0.240712 0 0 0.24077 249.498 31)">%</text><text font-family="Times New Roman,Times New Roman_MSFontService,sans-serif" font-weight="400" font-size="24" transform="matrix(0.240712 0 0 0.24077 197.264 38)">P</text><text font-family="Times New Roman,Times New Roman_MSFontService,sans-serif" font-weight="400" font-size="24" transform="matrix(0.240712 0 0 0.24077 200.634 38)">(</text><text font-family="Times New Roman,Times New Roman_MSFontService,sans-serif" font-weight="400" font-size="24" transform="matrix(0.240712 0 0 0.24077 202.559 38)">X </text><text font-family="Times New Roman,Times New Roman_MSFontService,sans-serif" font-weight="400" font-size="24" transform="matrix(0.240712 0 0 0.24077 208.096 38)">≤ </text><text font-family="Times New Roman,Times New Roman_MSFontService,sans-serif" font-weight="400" font-size="24" transform="matrix(0.240712 0 0 0.24077 212.669 38)">μ</text><text font-family="Times New Roman,Times New Roman_MSFontService,sans-serif" font-weight="400" font-size="24" transform="matrix(0.240712 0 0 0.24077 215.798 38)">+</text><text font-family="Times New Roman,Times New Roman_MSFontService,sans-serif" font-weight="400" font-size="24" transform="matrix(0.240712 0 0 0.24077 219.168 38)">3</text><text font-family="Times New Roman,Times New Roman_MSFontService,sans-serif" font-weight="400" font-size="24" transform="matrix(0.240712 0 0 0.24077 222.057 38)">·</text><text font-family="Times New Roman,Times New Roman_MSFontService,sans-serif" font-weight="400" font-size="24" transform="matrix(0.240712 0 0 0.24077 223.983 38)">σ</text><text font-family="Times New Roman,Times New Roman_MSFontService,sans-serif" font-weight="400" font-size="24" transform="matrix(0.240712 0 0 0.24077 227.112 38)">) </text><text font-family="Times New Roman,Times New Roman_MSFontService,sans-serif" font-weight="400" font-size="24" transform="matrix(0.240712 0 0 0.24077 230.482 38)">≈ </text><text font-family="Times New Roman,Times New Roman_MSFontService,sans-serif" font-weight="400" font-size="24" transform="matrix(0.240712 0 0 0.24077 235.055 38)">99</text><text font-family="Times New Roman,Times New Roman_MSFontService,sans-serif" font-weight="400" font-size="24" transform="matrix(0.240712 0 0 0.24077 240.832 38)">,</text><text font-family="Times New Roman,Times New Roman_MSFontService,sans-serif" font-weight="400" font-size="24" transform="matrix(0.240712 0 0 0.24077 242.277 38)">87 </text><text font-family="Times New Roman,Times New Roman_MSFontService,sans-serif" font-weight="400" font-size="24" transform="matrix(0.240712 0 0 0.24077 249.498 38)">%</text><text font-family="Times New Roman,Times New Roman_MSFontService,sans-serif" font-weight="400" font-size="24" transform="matrix(0.240712 0 0 0.24077 9.62848 129)">0</text><text font-family="Times New Roman,Times New Roman_MSFontService,sans-serif" font-weight="400" font-size="24" transform="matrix(0.240712 0 0 0.24077 12.517 129)">,</text><text font-family="Times New Roman,Times New Roman_MSFontService,sans-serif" font-weight="400" font-size="24" transform="matrix(0.240712 0 0 0.24077 13.9613 129)">13 </text><text font-family="Times New Roman,Times New Roman_MSFontService,sans-serif" font-weight="400" font-size="24" transform="matrix(0.240712 0 0 0.24077 21.1827 129)">%</text><text font-family="Times New Roman,Times New Roman_MSFontService,sans-serif" font-weight="400" font-size="24" transform="matrix(0.240712 0 0 0.24077 55.3638 129)">2</text><text font-family="Times New Roman,Times New Roman_MSFontService,sans-serif" font-weight="400" font-size="24" transform="matrix(0.240712 0 0 0.24077 58.2523 129)">,</text><text font-family="Times New Roman,Times New Roman_MSFontService,sans-serif" font-weight="400" font-size="24" transform="matrix(0.240712 0 0 0.24077 59.6966 129)">14 </text><text font-family="Times New Roman,Times New Roman_MSFontService,sans-serif" font-weight="400" font-size="24" transform="matrix(0.240712 0 0 0.24077 66.918 129)">%</text><text font-family="Times New Roman,Times New Roman_MSFontService,sans-serif" font-weight="400" font-size="24" transform="matrix(0.240712 0 0 0.24077 84.2492 114)">13</text><text font-family="Times New Roman,Times New Roman_MSFontService,sans-serif" font-weight="400" font-size="24" transform="matrix(0.240712 0 0 0.24077 90.0263 114)">,</text><text font-family="Times New Roman,Times New Roman_MSFontService,sans-serif" font-weight="400" font-size="24" transform="matrix(0.240712 0 0 0.24077 91.4706 114)">59 </text><text font-family="Times New Roman,Times New Roman_MSFontService,sans-serif" font-weight="400" font-size="24" transform="matrix(0.240712 0 0 0.24077 98.6919 114)">%</text><text font-family="Times New Roman,Times New Roman_MSFontService,sans-serif" font-weight="400" font-size="24" transform="matrix(0.240712 0 0 0.24077 126.374 80)">34</text><text font-family="Times New Roman,Times New Roman_MSFontService,sans-serif" font-weight="400" font-size="24" transform="matrix(0.240712 0 0 0.24077 132.151 80)">,</text><text font-family="Times New Roman,Times New Roman_MSFontService,sans-serif" font-weight="400" font-size="24" transform="matrix(0.240712 0 0 0.24077 133.595 80)">13</text><text font-family="Times New Roman,Times New Roman_MSFontService,sans-serif" font-weight="400" font-size="24" transform="matrix(0.240712 0 0 0.24077 139.372 80)">%</text><text font-family="Times New Roman,Times New Roman_MSFontService,sans-serif" font-weight="400" font-size="24" transform="matrix(0.240712 0 0 0.24077 167.536 80)">34</text><text font-family="Times New Roman,Times New Roman_MSFontService,sans-serif" font-weight="400" font-size="24" transform="matrix(0.240712 0 0 0.24077 173.313 80)">,</text><text font-family="Times New Roman,Times New Roman_MSFontService,sans-serif" font-weight="400" font-size="24" transform="matrix(0.240712 0 0 0.24077 174.757 80)">13</text><text font-family="Times New Roman,Times New Roman_MSFontService,sans-serif" font-weight="400" font-size="24" transform="matrix(0.240712 0 0 0.24077 180.534 80)">%</text><text font-family="Times New Roman,Times New Roman_MSFontService,sans-serif" font-weight="400" font-size="24" transform="matrix(0.240712 0 0 0.24077 208.216 114)">13</text><text font-family="Times New Roman,Times New Roman_MSFontService,sans-serif" font-weight="400" font-size="24" transform="matrix(0.240712 0 0 0.24077 213.993 114)">,</text><text font-family="Times New Roman,Times New Roman_MSFontService,sans-serif" font-weight="400" font-size="24" transform="matrix(0.240712 0 0 0.24077 215.437 114)">59 </text><text font-family="Times New Roman,Times New Roman_MSFontService,sans-serif" font-weight="400" font-size="24" transform="matrix(0.240712 0 0 0.24077 222.659 114)">%</text><text font-family="Times New Roman,Times New Roman_MSFontService,sans-serif" font-weight="400" font-size="24" transform="matrix(0.240712 0 0 0.24077 239.99 129)">2</text><text font-family="Times New Roman,Times New Roman_MSFontService,sans-serif" font-weight="400" font-size="24" transform="matrix(0.240712 0 0 0.24077 242.878 129)">,</text><text font-family="Times New Roman,Times New Roman_MSFontService,sans-serif" font-weight="400" font-size="24" transform="matrix(0.240712 0 0 0.24077 244.323 129)">14 </text><text font-family="Times New Roman,Times New Roman_MSFontService,sans-serif" font-weight="400" font-size="24" transform="matrix(0.240712 0 0 0.24077 251.544 129)">%</text><text font-family="Times New Roman,Times New Roman_MSFontService,sans-serif" font-weight="400" font-size="24" transform="matrix(0.240712 0 0 0.24077 287.41 129)">0</text><text font-family="Times New Roman,Times New Roman_MSFontService,sans-serif" font-weight="400" font-size="24" transform="matrix(0.240712 0 0 0.24077 290.299 129)">,</text><text font-family="Times New Roman,Times New Roman_MSFontService,sans-serif" font-weight="400" font-size="24" transform="matrix(0.240712 0 0 0.24077 291.743 129)">13 </text><text font-family="Times New Roman,Times New Roman_MSFontService,sans-serif" font-weight="400" font-size="24" transform="matrix(0.240712 0 0 0.24077 298.964 129)">%</text></g></svg>