<?xml version="1.0" encoding="UTF-8" standalone="no"?>
<!DOCTYPE svg PUBLIC "-//W3C//DTD SVG 1.1//EN" "http://www.w3.org/Graphics/SVG/1.1/DTD/svg11.dtd">
<svg width="100%" height="100%" viewBox="0 0 1015 952" version="1.1" xmlns="http://www.w3.org/2000/svg" xmlns:xlink="http://www.w3.org/1999/xlink" xml:space="preserve" xmlns:serif="http://www.serif.com/" style="fill-rule:evenodd;clip-rule:evenodd;stroke-linecap:round;stroke-linejoin:round;stroke-miterlimit:1.5;">
    <g transform="matrix(1,0,0,1,-778.296,-394.058)">
        <circle cx="869.148" cy="1123.73" r="35.803"/>
        <g transform="matrix(0.854575,0,0,0.854575,122.638,152.086)">
            <g transform="matrix(206.027,0,0,206.027,760.228,1362.14)">
                <path d="M0.034,-0.354C0.034,-0.38 0.035,-0.407 0.038,-0.435C0.041,-0.463 0.046,-0.491 0.053,-0.518C0.059,-0.545 0.069,-0.57 0.081,-0.595C0.092,-0.62 0.107,-0.641 0.126,-0.66C0.144,-0.678 0.166,-0.693 0.191,-0.704C0.216,-0.715 0.245,-0.72 0.278,-0.72C0.311,-0.72 0.341,-0.715 0.366,-0.704C0.391,-0.693 0.412,-0.678 0.431,-0.66C0.449,-0.641 0.464,-0.62 0.476,-0.595C0.487,-0.57 0.497,-0.545 0.504,-0.518C0.511,-0.491 0.515,-0.463 0.518,-0.435C0.521,-0.407 0.522,-0.38 0.522,-0.354C0.522,-0.317 0.519,-0.277 0.512,-0.234C0.505,-0.191 0.493,-0.152 0.475,-0.115C0.457,-0.078 0.432,-0.048 0.401,-0.024C0.369,0 0.328,0.012 0.278,0.012C0.228,0.012 0.187,0 0.156,-0.024C0.124,-0.048 0.099,-0.078 0.081,-0.115C0.063,-0.152 0.051,-0.191 0.044,-0.234C0.037,-0.277 0.034,-0.317 0.034,-0.354ZM0.13,-0.354C0.13,-0.331 0.132,-0.303 0.135,-0.271C0.138,-0.239 0.144,-0.208 0.154,-0.179C0.164,-0.149 0.179,-0.124 0.199,-0.103C0.218,-0.082 0.245,-0.072 0.278,-0.072C0.311,-0.072 0.338,-0.082 0.358,-0.103C0.377,-0.124 0.392,-0.149 0.402,-0.179C0.412,-0.208 0.419,-0.239 0.422,-0.271C0.424,-0.303 0.426,-0.331 0.426,-0.354C0.426,-0.37 0.426,-0.388 0.425,-0.409C0.424,-0.429 0.421,-0.45 0.418,-0.471C0.414,-0.492 0.409,-0.512 0.402,-0.532C0.395,-0.551 0.387,-0.569 0.376,-0.585C0.365,-0.6 0.351,-0.613 0.335,-0.622C0.319,-0.631 0.3,-0.636 0.278,-0.636C0.256,-0.636 0.237,-0.631 0.221,-0.622C0.205,-0.613 0.192,-0.6 0.181,-0.585C0.169,-0.569 0.161,-0.551 0.154,-0.532C0.147,-0.512 0.142,-0.492 0.139,-0.471C0.135,-0.45 0.133,-0.429 0.132,-0.409C0.131,-0.388 0.13,-0.37 0.13,-0.354Z" style="fill-rule:nonzero;"/>
            </g>
        </g>
        <g transform="matrix(0.854575,0,0,0.854575,122.638,152.086)">
            <path d="M779.195,1386.63L857.212,1386.63" style="fill:none;stroke:black;stroke-width:20.31px;"/>
        </g>
        <circle cx="1079.64" cy="486.728" r="48.373" style="fill:rgb(0,7,255);stroke:rgb(0,1,255);stroke-width:17.35px;"/>
        <g transform="matrix(1,0,0,1,655.669,278.224)">
            <circle cx="1079.64" cy="486.728" r="48.373" style="fill:rgb(0,7,255);stroke:rgb(0,1,255);stroke-width:17.35px;"/>
        </g>
        <path d="M869.143,1117.12L1075.71,491.063" style="fill:none;stroke:black;stroke-width:17.35px;"/>
        <path d="M1075.71,491.063L1025.32,523.67" style="fill:none;stroke:black;stroke-width:17.35px;"/>
        <path d="M1075.71,491.063L1100.91,545.902" style="fill:none;stroke:black;stroke-width:17.35px;"/>
        <path d="M866.61,1123.42L1735.26,766.739" style="fill:none;stroke:black;stroke-width:17.35px;"/>
        <path d="M1735.26,766.739L1691.19,746.53" style="fill:none;stroke:black;stroke-width:17.35px;"/>
        <path d="M1735.26,766.739L1713.41,813.103" style="fill:none;stroke:black;stroke-width:17.35px;"/>
        <g transform="matrix(1.93872,0,0,1.93872,-542.654,-851.877)">
            <g transform="matrix(106.465,0,0,106.465,692.291,856.396)">
                <path d="M0.068,-0.474L0.158,-0.474L0.158,-0.401L0.16,-0.401C0.166,-0.414 0.174,-0.425 0.184,-0.436C0.194,-0.446 0.205,-0.455 0.218,-0.462C0.23,-0.469 0.243,-0.475 0.258,-0.48C0.273,-0.484 0.287,-0.486 0.302,-0.486C0.317,-0.486 0.33,-0.484 0.342,-0.48L0.338,-0.383C0.331,-0.385 0.323,-0.387 0.316,-0.388C0.309,-0.389 0.301,-0.39 0.294,-0.39C0.25,-0.39 0.216,-0.378 0.193,-0.353C0.17,-0.328 0.158,-0.29 0.158,-0.238L0.158,-0L0.068,-0L0.068,-0.474Z" style="fill-rule:nonzero;"/>
            </g>
        </g>
        <g transform="matrix(1.37919,0.583261,-0.583261,1.37919,933.011,-1034.93)">
            <g transform="matrix(106.465,0,0,106.465,692.291,856.396)">
                <path d="M0.068,-0.474L0.158,-0.474L0.158,-0.401L0.16,-0.401C0.166,-0.414 0.174,-0.425 0.184,-0.436C0.194,-0.446 0.205,-0.455 0.218,-0.462C0.23,-0.469 0.243,-0.475 0.258,-0.48C0.273,-0.484 0.287,-0.486 0.302,-0.486C0.317,-0.486 0.33,-0.484 0.342,-0.48L0.338,-0.383C0.331,-0.385 0.323,-0.387 0.316,-0.388C0.309,-0.389 0.301,-0.39 0.294,-0.39C0.25,-0.39 0.216,-0.378 0.193,-0.353C0.17,-0.328 0.158,-0.29 0.158,-0.238L0.158,-0L0.068,-0L0.068,-0.474Z" style="fill:rgb(187,119,61);fill-rule:nonzero;stroke:rgb(187,119,61);stroke-width:0.01px;stroke-linecap:butt;stroke-miterlimit:2;"/>
            </g>
        </g>
        <g transform="matrix(1.41855,0.599907,-0.599907,1.41855,702.205,-1166.53)">
            <g transform="matrix(106.465,0,0,106.465,692.291,856.396)">
                <path d="M0.068,-0.474L0.158,-0.474L0.158,-0.401L0.16,-0.401C0.166,-0.414 0.174,-0.425 0.184,-0.436C0.194,-0.446 0.205,-0.455 0.218,-0.462C0.23,-0.469 0.243,-0.475 0.258,-0.48C0.273,-0.484 0.287,-0.486 0.302,-0.486C0.317,-0.486 0.33,-0.484 0.342,-0.48L0.338,-0.383C0.331,-0.385 0.323,-0.387 0.316,-0.388C0.309,-0.389 0.301,-0.39 0.294,-0.39C0.25,-0.39 0.216,-0.378 0.193,-0.353C0.17,-0.328 0.158,-0.29 0.158,-0.238L0.158,-0L0.068,-0L0.068,-0.474Z" style="fill:rgb(187,119,61);fill-rule:nonzero;stroke:rgb(187,119,61);stroke-width:0.01px;stroke-linecap:butt;stroke-miterlimit:2;"/>
            </g>
            <g transform="matrix(106.465,0,0,106.465,761.28,856.396)">
                <path d="M0.6,-0.42L0.6,-0.342L0.066,-0.342L0.066,-0.42L0.6,-0.42ZM0.6,-0.263L0.6,-0.185L0.066,-0.185L0.066,-0.263L0.6,-0.263Z" style="fill:rgb(187,119,61);fill-rule:nonzero;stroke:rgb(187,119,61);stroke-width:0.01px;stroke-linecap:butt;stroke-miterlimit:2;"/>
            </g>
            <g transform="matrix(106.465,0,0,106.465,920.979,856.396)">
                <rect x="0.035" y="-0.284" width="0.246" height="0.084" style="fill:rgb(187,119,61);fill-rule:nonzero;stroke:rgb(187,119,61);stroke-width:0.01px;stroke-linecap:butt;stroke-miterlimit:2;"/>
            </g>
        </g>
        <g transform="matrix(1.93872,0,0,1.93872,-24.707,-576.745)">
            <g transform="matrix(106.465,0,0,106.465,692.291,856.396)">
                <path d="M0.068,-0.474L0.158,-0.474L0.158,-0.401L0.16,-0.401C0.166,-0.414 0.174,-0.425 0.184,-0.436C0.194,-0.446 0.205,-0.455 0.218,-0.462C0.23,-0.469 0.243,-0.475 0.258,-0.48C0.273,-0.484 0.287,-0.486 0.302,-0.486C0.317,-0.486 0.33,-0.484 0.342,-0.48L0.338,-0.383C0.331,-0.385 0.323,-0.387 0.316,-0.388C0.309,-0.389 0.301,-0.39 0.294,-0.39C0.25,-0.39 0.216,-0.378 0.193,-0.353C0.17,-0.328 0.158,-0.29 0.158,-0.238L0.158,-0L0.068,-0L0.068,-0.474Z" style="fill-rule:nonzero;"/>
            </g>
        </g>
        <g transform="matrix(1.37919,0.583261,-0.583261,1.37919,1103.23,-962.46)">
            <g transform="matrix(106.465,0,0,106.465,692.291,856.396)">
                <path d="M0.068,-0.474L0.158,-0.474L0.158,-0.401L0.16,-0.401C0.166,-0.414 0.174,-0.425 0.184,-0.436C0.194,-0.446 0.205,-0.455 0.218,-0.462C0.23,-0.469 0.243,-0.475 0.258,-0.48C0.273,-0.484 0.287,-0.486 0.302,-0.486C0.317,-0.486 0.33,-0.484 0.342,-0.48L0.338,-0.383C0.331,-0.385 0.323,-0.387 0.316,-0.388C0.309,-0.389 0.301,-0.39 0.294,-0.39C0.25,-0.39 0.216,-0.378 0.193,-0.353C0.17,-0.328 0.158,-0.29 0.158,-0.238L0.158,-0L0.068,-0L0.068,-0.474Z" style="fill:rgb(187,119,61);fill-rule:nonzero;stroke:rgb(187,119,61);stroke-width:0.01px;stroke-linecap:butt;stroke-miterlimit:2;"/>
            </g>
        </g>
        <g transform="matrix(1.21071,0,0,1.21071,-172.15,-343.917)">
            <g transform="matrix(80.5731,0,0,80.5731,850.54,994.185)">
                <path d="M0.27,-0.598L0.14,-0.478L0.084,-0.545L0.281,-0.708L0.366,-0.708L0.366,-0L0.27,-0L0.27,-0.598Z" style="fill-rule:nonzero;"/>
            </g>
        </g>
        <g transform="matrix(0.86129,0.364241,-0.364241,0.86129,1043.76,-562.11)">
            <g transform="matrix(80.5731,0,0,80.5731,850.54,994.185)">
                <path d="M0.27,-0.598L0.14,-0.478L0.084,-0.545L0.281,-0.708L0.366,-0.708L0.366,-0L0.27,-0L0.27,-0.598Z" style="fill:rgb(187,119,61);fill-rule:nonzero;stroke:rgb(187,119,61);stroke-width:0.01px;stroke-linecap:butt;stroke-miterlimit:2;"/>
            </g>
        </g>
        <g transform="matrix(1.21071,0,0,1.21071,357.952,-65.0227)">
            <g transform="matrix(80.5731,0,0,80.5731,850.54,994.185)">
                <path d="M0.046,-0.102L0.33,-0.384C0.34,-0.393 0.35,-0.404 0.359,-0.415C0.368,-0.426 0.377,-0.437 0.384,-0.449C0.391,-0.461 0.397,-0.474 0.402,-0.487C0.406,-0.5 0.408,-0.514 0.408,-0.529C0.408,-0.546 0.405,-0.562 0.399,-0.576C0.392,-0.59 0.384,-0.602 0.373,-0.612C0.362,-0.621 0.349,-0.629 0.334,-0.634C0.319,-0.639 0.303,-0.642 0.286,-0.642C0.251,-0.642 0.223,-0.632 0.2,-0.613C0.177,-0.594 0.163,-0.567 0.157,-0.533L0.053,-0.542C0.058,-0.573 0.067,-0.6 0.081,-0.624C0.094,-0.647 0.111,-0.666 0.132,-0.681C0.152,-0.696 0.175,-0.708 0.202,-0.715C0.228,-0.722 0.256,-0.726 0.287,-0.726C0.318,-0.726 0.347,-0.722 0.374,-0.714C0.401,-0.705 0.424,-0.693 0.445,-0.677C0.465,-0.66 0.481,-0.64 0.493,-0.616C0.504,-0.591 0.51,-0.563 0.51,-0.53C0.51,-0.507 0.507,-0.485 0.5,-0.465C0.493,-0.444 0.483,-0.425 0.472,-0.407C0.461,-0.389 0.448,-0.372 0.433,-0.356C0.418,-0.34 0.403,-0.324 0.387,-0.309L0.154,-0.084L0.51,-0.084L0.51,-0L0.046,-0L0.046,-0.102Z" style="fill-rule:nonzero;"/>
            </g>
        </g>
        <g transform="matrix(0.86129,0.364241,-0.364241,0.86129,1221.5,-483.303)">
            <g transform="matrix(80.5731,0,0,80.5731,850.54,994.185)">
                <path d="M0.046,-0.102L0.33,-0.384C0.34,-0.393 0.35,-0.404 0.359,-0.415C0.368,-0.426 0.377,-0.437 0.384,-0.449C0.391,-0.461 0.397,-0.474 0.402,-0.487C0.406,-0.5 0.408,-0.514 0.408,-0.529C0.408,-0.546 0.405,-0.562 0.399,-0.576C0.392,-0.59 0.384,-0.602 0.373,-0.612C0.362,-0.621 0.349,-0.629 0.334,-0.634C0.319,-0.639 0.303,-0.642 0.286,-0.642C0.251,-0.642 0.223,-0.632 0.2,-0.613C0.177,-0.594 0.163,-0.567 0.157,-0.533L0.053,-0.542C0.058,-0.573 0.067,-0.6 0.081,-0.624C0.094,-0.647 0.111,-0.666 0.132,-0.681C0.152,-0.696 0.175,-0.708 0.202,-0.715C0.228,-0.722 0.256,-0.726 0.287,-0.726C0.318,-0.726 0.347,-0.722 0.374,-0.714C0.401,-0.705 0.424,-0.693 0.445,-0.677C0.465,-0.66 0.481,-0.64 0.493,-0.616C0.504,-0.591 0.51,-0.563 0.51,-0.53C0.51,-0.507 0.507,-0.485 0.5,-0.465C0.493,-0.444 0.483,-0.425 0.472,-0.407C0.461,-0.389 0.448,-0.372 0.433,-0.356C0.418,-0.34 0.403,-0.324 0.387,-0.309L0.154,-0.084L0.51,-0.084L0.51,-0L0.046,-0L0.046,-0.102Z" style="fill:rgb(187,119,61);fill-rule:nonzero;stroke:rgb(187,119,61);stroke-width:0.01px;stroke-linecap:butt;stroke-miterlimit:2;"/>
            </g>
        </g>
        <g transform="matrix(1,0,0,1,141.393,-96.5338)">
            <path d="M677.796,922.037L712.617,922.037" style="fill:none;stroke:black;stroke-width:17.35px;"/>
        </g>
        <g transform="matrix(0.71139,0.300849,-0.300849,0.71139,1192.39,-291.796)">
            <path d="M677.796,922.037L712.617,922.037" style="fill:none;stroke:rgb(187,119,61);stroke-width:22.47px;"/>
        </g>
        <g transform="matrix(0.71139,0.300849,-0.300849,0.71139,975.083,-378.04)">
            <path d="M677.796,922.037L712.617,922.037" style="fill:none;stroke:rgb(187,119,61);stroke-width:22.47px;"/>
        </g>
        <g transform="matrix(1,0,0,1,659.34,178.598)">
            <path d="M677.796,922.037L712.617,922.037" style="fill:none;stroke:black;stroke-width:17.35px;"/>
        </g>
        <g transform="matrix(0.71139,0.300849,-0.300849,0.71139,1362.61,-219.321)">
            <path d="M677.796,922.037L712.617,922.037" style="fill:none;stroke:rgb(187,119,61);stroke-width:22.47px;"/>
        </g>
        <path d="M1076.27,489.973L1733.55,763.782" style="fill:none;stroke:rgb(187,119,61);stroke-width:17.35px;"/>
        <path d="M1076.27,489.973L1092.01,524.865" style="fill:none;stroke:rgb(187,119,61);stroke-width:17.35px;"/>
        <path d="M1076.27,489.973L1108.83,467.999" style="fill:none;stroke:rgb(187,119,61);stroke-width:17.35px;"/>
    </g>
</svg>
