<svg width="605" height="302" xmlns="http://www.w3.org/2000/svg" xmlns:xlink="http://www.w3.org/1999/xlink" xml:space="preserve" overflow="hidden"><defs><clipPath id="clip0"><rect x="0" y="0" width="605" height="302"/></clipPath></defs><g clip-path="url(#clip0)"><path d="M0 302 604 302 604 0 0 0Z" fill="#FFFFFF" transform="scale(1.00166 1)"/><path d="M75.5 268.78 288.272 268.78 288.272 36.24 75.5 36.24Z" fill="#FFFFFF" transform="scale(1.00166 1)"/><path d="M0 0 0 2.93611" stroke="#000000" stroke-width="0.671111" stroke-linejoin="round" fill="none" transform="matrix(1.00166 0 0 1 85.3126 268.78)"/><path d="M2.66609 5.57075C2.24053 5.57075 1.92027 5.36102 1.7053 4.94158 1.49122 4.52301 1.38417 3.89297 1.38417 3.05146 1.38417 2.21345 1.49122 1.58471 1.7053 1.16527 1.92027 0.745825 2.24053 0.536102 2.66609 0.536102 3.09515 0.536102 3.41673 0.745825 3.63082 1.16527 3.84578 1.58471 3.95326 2.21345 3.95326 3.05146 3.95326 3.89297 3.84578 4.52301 3.63082 4.94158 3.41673 5.36102 3.09515 5.57075 2.66609 5.57075ZM2.66609 6.22613C3.35206 6.22613 3.87593 5.9548 4.2377 5.41214 4.59947 4.87037 4.78036 4.08346 4.78036 3.05146 4.78036 2.02208 4.59947 1.23605 4.2377 0.693394 3.87593 0.151612 3.35206-0.11928 2.66609-0.11928 1.981-0.11928 1.45757 0.151612 1.0958 0.693394 0.734028 1.23605 0.553142 2.02208 0.553142 3.05146 0.553142 4.08346 0.734028 4.87037 1.0958 5.41214 1.45757 5.9548 1.981 6.22613 2.66609 6.22613Z" transform="matrix(1.00166 0 0 -1 82.6394 281.026)"/><path d="M0 0 0 2.93611" stroke="#000000" stroke-width="0.671111" stroke-linejoin="round" fill="none" transform="matrix(1.00166 0 0 1 124.063 268.78)"/><path d="M1.60962 0.696016 4.49723 0.696016 4.49723 0 0.614748 0 0.614748 0.696016C0.928457 1.02109 1.35621 1.45714 1.89799 2.00416 2.44064 2.55206 2.78144 2.90553 2.92038 3.06457 3.18516 3.36168 3.36997 3.61334 3.47484 3.81957 3.58057 4.02579 3.63344 4.22852 3.63344 4.42776 3.63344 4.75283 3.5194 5.0176 3.29133 5.22208 3.06326 5.42744 2.76614 5.53011 2.40001 5.53011 2.14048 5.53011 1.86653 5.48511 1.57816 5.3951 1.29067 5.30509 0.983073 5.16834 0.655382 4.98484L0.655382 5.8211C0.988316 5.9548 1.2994 6.05573 1.58865 6.12389 1.87876 6.19205 2.14398 6.22613 2.38428 6.22613 3.01781 6.22613 3.5229 6.06753 3.89952 5.75032 4.27614 5.43399 4.46446 5.01105 4.46446 4.4815 4.46446 4.22984 4.41727 3.99128 4.3229 3.76582 4.2294 3.54125 4.05813 3.27603 3.80908 2.97019 3.74092 2.89067 3.52377 2.66173 3.15763 2.28335 2.79236 1.90497 2.27636 1.37587 1.60962 0.696016Z" transform="matrix(1.00166 0 0 -1 121.389 281.026)"/><path d="M0 0 0 2.93611" stroke="#000000" stroke-width="0.671111" stroke-linejoin="round" fill="none" transform="matrix(1.00166 0 0 1 162.812 268.78)"/><path d="M3.17074 5.3951 1.08138 2.12999 3.17074 2.12999 3.17074 5.3951ZM2.95315 6.11602 3.9939 6.11602 3.9939 2.12999 4.86687 2.12999 4.86687 1.44184 3.9939 1.44184 3.9939 0 3.17074 0 3.17074 1.44184 0.410269 1.44184 0.410269 2.2401 2.95315 6.11602Z" transform="matrix(1.00166 0 0 -1 160.139 281.026)"/><path d="M0 0 0 2.93611" stroke="#000000" stroke-width="0.671111" stroke-linejoin="round" fill="none" transform="matrix(1.00166 0 0 1 201.562 268.78)"/><path d="M2.76964 3.38701C2.39827 3.38701 2.10378 3.25987 1.88619 3.00558 1.66948 2.75217 1.56112 2.40437 1.56112 1.96221 1.56112 1.52268 1.66948 1.17488 1.88619 0.918845 2.10378 0.663683 2.39827 0.536102 2.76964 0.536102 3.14102 0.536102 3.43508 0.663683 3.65179 0.918845 3.8685 1.17488 3.97686 1.52268 3.97686 1.96221 3.97686 2.40437 3.8685 2.75217 3.65179 3.00558 3.43508 3.25987 3.14102 3.38701 2.76964 3.38701ZM4.41203 5.98102 4.41203 5.22733C4.20405 5.3252 3.99433 5.39991 3.78286 5.45147 3.5714 5.5039 3.36168 5.53011 3.1537 5.53011 2.60754 5.53011 2.19029 5.34573 1.90192 4.97697 1.61443 4.60821 1.45014 4.05114 1.40907 3.30575 1.56986 3.54343 1.77172 3.72562 2.01464 3.85233 2.25845 3.97905 2.52627 4.0424 2.81814 4.0424 3.43246 4.0424 3.91787 3.85583 4.2744 3.4827 4.63093 3.11044 4.80919 2.60361 4.80919 1.96221 4.80919 1.33393 4.6235 0.829714 4.25212 0.449592 3.88074 0.0703444 3.38658-0.11928 2.76964-0.11928 2.06183-0.11928 1.52092 0.151612 1.14692 0.693394 0.772914 1.23605 0.585911 2.02208 0.585911 3.05146 0.585911 4.01792 0.815295 4.78865 1.27406 5.36365 1.73283 5.93864 2.34846 6.22613 3.12093 6.22613 3.32891 6.22613 3.53863 6.20559 3.7501 6.16452 3.96156 6.12346 4.18221 6.06228 4.41203 5.98102Z" transform="matrix(1.00166 0 0 -1 198.89 281.026)"/><path d="M0 0 0 2.93611" stroke="#000000" stroke-width="0.671111" stroke-linejoin="round" fill="none" transform="matrix(1.00166 0 0 1 240.313 268.78)"/><path d="M2.66609 2.90465C2.27286 2.90465 1.96352 2.79936 1.73807 2.58876 1.5135 2.37816 1.40121 2.08893 1.40121 1.72103 1.40121 1.35228 1.5135 1.06259 1.73807 0.851997 1.96352 0.6414 2.27286 0.536102 2.66609 0.536102 3.05932 0.536102 3.3691 0.641838 3.59543 0.853307 3.82262 1.06565 3.93622 1.3549 3.93622 1.72103 3.93622 2.08893 3.8235 2.37816 3.59805 2.58876 3.37347 2.79936 3.06282 2.90465 2.66609 2.90465ZM1.839 3.25594C1.48422 3.34333 1.20765 3.50848 1.00929 3.75141 0.811799 3.99521 0.713056 4.29187 0.713056 4.64142 0.713056 5.1299 0.886951 5.51613 1.23474 5.80013 1.5834 6.08413 2.06052 6.22613 2.66609 6.22613 3.27517 6.22613 3.75315 6.08413 4.10007 5.80013 4.44699 5.51613 4.62044 5.1299 4.62044 4.64142 4.62044 4.29187 4.52126 3.99521 4.3229 3.75141 4.12541 3.50848 3.85059 3.34333 3.49843 3.25594 3.8969 3.16331 4.20712 2.98156 4.42907 2.71066 4.6519 2.44064 4.76332 2.11076 4.76332 1.72103 4.76332 1.12769 4.58243 0.672422 4.22066 0.355217 3.85889 0.038886 3.3407-0.11928 2.66609-0.11928 1.99236-0.11928 1.47418 0.038886 1.11153 0.355217 0.749757 0.672422 0.568871 1.12769 0.568871 1.72103 0.568871 2.11076 0.680723 2.44064 0.904427 2.71066 1.129 2.98156 1.44053 3.16331 1.839 3.25594ZM1.53622 4.56277C1.53622 4.24644 1.63496 3.99957 1.83245 3.82219 2.03081 3.6448 2.30869 3.5561 2.66609 3.5561 3.02174 3.5561 3.29963 3.6448 3.49974 3.82219 3.70072 3.99957 3.80122 4.24644 3.80122 4.56277 3.80122 4.87997 3.70072 5.12728 3.49974 5.30466 3.29963 5.48205 3.02174 5.57075 2.66609 5.57075 2.30869 5.57075 2.03081 5.48205 1.83245 5.30466 1.63496 5.12728 1.53622 4.87997 1.53622 4.56277Z" transform="matrix(1.00166 0 0 -1 237.639 281.026)"/><path d="M0 0 0 2.93611" stroke="#000000" stroke-width="0.671111" stroke-linejoin="round" fill="none" transform="matrix(1.00166 0 0 1 279.062 268.78)"/><path d="M1.04075 0.696016 2.39214 0.696016 2.39214 5.36234 0.921467 5.06741 0.921467 5.8211 2.38428 6.11602 3.21137 6.11602 3.21137 0.696016 4.56277 0.696016 4.56277 0 1.04075 0 1.04075 0.696016Z" transform="matrix(1.00166 0 0 -1 273.716 281.026)"/><path d="M2.66609 5.57075C2.24053 5.57075 1.92027 5.36102 1.7053 4.94158 1.49122 4.52301 1.38417 3.89297 1.38417 3.05146 1.38417 2.21345 1.49122 1.58471 1.7053 1.16527 1.92027 0.745825 2.24053 0.536102 2.66609 0.536102 3.09515 0.536102 3.41673 0.745825 3.63082 1.16527 3.84578 1.58471 3.95326 2.21345 3.95326 3.05146 3.95326 3.89297 3.84578 4.52301 3.63082 4.94158 3.41673 5.36102 3.09515 5.57075 2.66609 5.57075ZM2.66609 6.22613C3.35206 6.22613 3.87593 5.9548 4.2377 5.41214 4.59947 4.87037 4.78036 4.08346 4.78036 3.05146 4.78036 2.02208 4.59947 1.23605 4.2377 0.693394 3.87593 0.151612 3.35206-0.11928 2.66609-0.11928 1.981-0.11928 1.45757 0.151612 1.0958 0.693394 0.734028 1.23605 0.553142 2.02208 0.553142 3.05146 0.553142 4.08346 0.734028 4.87037 1.0958 5.41214 1.45757 5.9548 1.981 6.22613 2.66609 6.22613Z" transform="matrix(1.00166 0 0 -1 279.062 281.026)"/><path d="M4.60471 4.58767 2.94529 2.35544 4.68991 0 3.80122 0 2.46555 1.8023 1.13119 0 0.241181 0 2.02382 2.40001 0.393229 4.58767 1.28193 4.58767 2.49832 2.95315 3.7147 4.58767 4.60471 4.58767Z" transform="matrix(1.00166 0 0 -1 179.701 292.501)"/><path d="M0 0-2.93611 0" stroke="#000000" stroke-width="0.671111" stroke-linejoin="round" fill="none" transform="matrix(1.00166 0 0 1 75.625 266.773)"/><path d="M1.04075 0.696016 2.39214 0.696016 2.39214 5.36234 0.921467 5.06741 0.921467 5.8211 2.38428 6.11602 3.21137 6.11602 3.21137 0.696016 4.56277 0.696016 4.56277 0 1.04075 0 1.04075 0.696016Z" transform="matrix(1.00166 0 0 -1 64.3968 269.96)"/><path d="M0 0-2.93611 0" stroke="#000000" stroke-width="0.671111" stroke-linejoin="round" fill="none" transform="matrix(1.00166 0 0 1 75.625 224.169)"/><path d="M1.60962 0.696016 4.49723 0.696016 4.49723 0 0.614748 0 0.614748 0.696016C0.928457 1.02109 1.35621 1.45714 1.89799 2.00416 2.44064 2.55206 2.78144 2.90553 2.92038 3.06457 3.18516 3.36168 3.36997 3.61334 3.47484 3.81957 3.58057 4.02579 3.63344 4.22852 3.63344 4.42776 3.63344 4.75283 3.5194 5.0176 3.29133 5.22208 3.06326 5.42744 2.76614 5.53011 2.40001 5.53011 2.14048 5.53011 1.86653 5.48511 1.57816 5.3951 1.29067 5.30509 0.983073 5.16834 0.655382 4.98484L0.655382 5.8211C0.988316 5.9548 1.2994 6.05573 1.58865 6.12389 1.87876 6.19205 2.14398 6.22613 2.38428 6.22613 3.01781 6.22613 3.5229 6.06753 3.89952 5.75032 4.27614 5.43399 4.46446 5.01105 4.46446 4.4815 4.46446 4.22984 4.41727 3.99128 4.3229 3.76582 4.2294 3.54125 4.05813 3.27603 3.80908 2.97019 3.74092 2.89067 3.52377 2.66173 3.15763 2.28335 2.79236 1.90497 2.27636 1.37587 1.60962 0.696016Z" transform="matrix(1.00166 0 0 -1 64.3968 227.356)"/><path d="M0 0-2.93611 0" stroke="#000000" stroke-width="0.671111" stroke-linejoin="round" fill="none" transform="matrix(1.00166 0 0 1 75.625 181.564)"/><path d="M3.40405 3.29788C3.7999 3.21311 4.10881 3.03661 4.33076 2.76833 4.55359 2.50094 4.66501 2.17062 4.66501 1.7774 4.66501 1.17444 4.45748 0.707376 4.0424 0.376189 3.62732 0.0458767 3.03747-0.11928 2.27286-0.11928 2.01683-0.11928 1.75292-0.0939381 1.48116-0.0432552 1.2094 0.00742767 0.928895 0.083452 0.639653 0.184818L0.639653 0.983073C0.8686 0.849375 1.11939 0.748446 1.39203 0.680286 1.66555 0.612127 1.95129 0.578047 2.24927 0.578047 2.76746 0.578047 3.16244 0.680286 3.4342 0.884766 3.70596 1.08924 3.84185 1.38679 3.84185 1.7774 3.84185 2.13829 3.71558 2.4201 3.46304 2.62284 3.21049 2.82644 2.85921 2.92825 2.40918 2.92825L1.69613 2.92825 1.69613 3.60853 2.44195 3.60853C2.84829 3.60853 3.15937 3.6898 3.37522 3.85233 3.59106 4.01487 3.69898 4.24906 3.69898 4.5549 3.69898 4.86861 3.58756 5.10936 3.36473 5.27714 3.14278 5.44579 2.82426 5.53011 2.40918 5.53011 2.18199 5.53011 1.93862 5.50521 1.67909 5.4554 1.41956 5.40647 1.13425 5.33044 0.82316 5.22733L0.82316 5.96398C1.13774 6.05136 1.43223 6.1169 1.70661 6.16059 1.981 6.20428 2.23966 6.22613 2.48259 6.22613 3.11088 6.22613 3.60765 6.08326 3.97293 5.79751 4.33906 5.51264 4.52214 5.12728 4.52214 4.64142 4.52214 4.30236 4.42514 4.01618 4.23115 3.78286 4.03715 3.54955 3.76146 3.38789 3.40405 3.29788Z" transform="matrix(1.00166 0 0 -1 64.3968 184.751)"/><path d="M0 0-2.93611 0" stroke="#000000" stroke-width="0.671111" stroke-linejoin="round" fill="none" transform="matrix(1.00166 0 0 1 75.625 138.959)"/><path d="M3.17074 5.3951 1.08138 2.12999 3.17074 2.12999 3.17074 5.3951ZM2.95315 6.11602 3.9939 6.11602 3.9939 2.12999 4.86687 2.12999 4.86687 1.44184 3.9939 1.44184 3.9939 0 3.17074 0 3.17074 1.44184 0.410269 1.44184 0.410269 2.2401 2.95315 6.11602Z" transform="matrix(1.00166 0 0 -1 64.3968 142.146)"/><path d="M0 0-2.93611 0" stroke="#000000" stroke-width="0.671111" stroke-linejoin="round" fill="none" transform="matrix(1.00166 0 0 1 75.625 96.3548)"/><path d="M0.905738 6.11602 4.15381 6.11602 4.15381 5.4187 1.66336 5.4187 1.66336 3.92049C1.78307 3.96156 1.9028 3.99215 2.02251 4.01225 2.1431 4.03234 2.26369 4.0424 2.38428 4.0424 3.06675 4.0424 3.60722 3.85539 4.00569 3.48139 4.40504 3.10739 4.60471 2.60099 4.60471 1.96221 4.60471 1.30421 4.3998 0.792576 3.98997 0.427309 3.58013 0.0629167 3.00253-0.11928 2.25714-0.11928 2.00023-0.11928 1.73851-0.0974334 1.47199-0.0537413 1.20634-0.0100492 0.931517 0.055489 0.647517 0.142873L0.647517 0.975208C0.893067 0.84151 1.14692 0.741892 1.40907 0.676354 1.67122 0.610816 1.94823 0.578047 2.2401 0.578047 2.71285 0.578047 3.08685 0.702133 3.36211 0.950304 3.63825 1.19847 3.77631 1.53578 3.77631 1.96221 3.77631 2.38778 3.63825 2.72465 3.36211 2.97281 3.08685 3.22186 2.71285 3.34638 2.2401 3.34638 2.01901 3.34638 1.79837 3.32191 1.57816 3.27298 1.35883 3.22405 1.13469 3.14758 0.905738 3.04359L0.905738 6.11602Z" transform="matrix(1.00166 0 0 -1 64.3968 99.5417)"/><path d="M0 0-2.93611 0" stroke="#000000" stroke-width="0.671111" stroke-linejoin="round" fill="none" transform="matrix(1.00166 0 0 1 75.625 53.7504)"/><path d="M2.76964 3.38701C2.39827 3.38701 2.10378 3.25987 1.88619 3.00558 1.66948 2.75217 1.56112 2.40437 1.56112 1.96221 1.56112 1.52268 1.66948 1.17488 1.88619 0.918845 2.10378 0.663683 2.39827 0.536102 2.76964 0.536102 3.14102 0.536102 3.43508 0.663683 3.65179 0.918845 3.8685 1.17488 3.97686 1.52268 3.97686 1.96221 3.97686 2.40437 3.8685 2.75217 3.65179 3.00558 3.43508 3.25987 3.14102 3.38701 2.76964 3.38701ZM4.41203 5.98102 4.41203 5.22733C4.20405 5.3252 3.99433 5.39991 3.78286 5.45147 3.5714 5.5039 3.36168 5.53011 3.1537 5.53011 2.60754 5.53011 2.19029 5.34573 1.90192 4.97697 1.61443 4.60821 1.45014 4.05114 1.40907 3.30575 1.56986 3.54343 1.77172 3.72562 2.01464 3.85233 2.25845 3.97905 2.52627 4.0424 2.81814 4.0424 3.43246 4.0424 3.91787 3.85583 4.2744 3.4827 4.63093 3.11044 4.80919 2.60361 4.80919 1.96221 4.80919 1.33393 4.6235 0.829714 4.25212 0.449592 3.88074 0.0703444 3.38658-0.11928 2.76964-0.11928 2.06183-0.11928 1.52092 0.151612 1.14692 0.693394 0.772914 1.23605 0.585911 2.02208 0.585911 3.05146 0.585911 4.01792 0.815295 4.78865 1.27406 5.36365 1.73283 5.93864 2.34846 6.22613 3.12093 6.22613 3.32891 6.22613 3.53863 6.20559 3.7501 6.16452 3.96156 6.12346 4.18221 6.06228 4.41203 5.98102Z" transform="matrix(1.00166 0 0 -1 64.3968 56.9376)"/><path d="M2.69886-0.425998C2.48652-0.97215 2.27899-1.32824 2.07625-1.49427 1.87439-1.66117 1.60438-1.74463 1.2662-1.74463L0.663247-1.74463 0.663247-1.11415 1.10628-1.11415C1.31339-1.11415 1.47418-1.06478 1.58865-0.966033 1.70399-0.868162 1.83114-0.636157 1.97008-0.270017L2.10509 0.0734028 0.250356 4.58767 1.04861 4.58767 2.48259 1.00011 3.91656 4.58767 4.71482 4.58767 2.69886-0.425998Z" transform="matrix(6.13337e-17 -1 -1.00166 -6.12323e-17 59.2882 154.992)"/><g><path d="M0 2.51667C0.667428 2.51667 1.30761 2.25149 1.77955 1.77955 2.25149 1.30761 2.51667 0.667428 2.51667 0 2.51667-0.667428 2.25149-1.30761 1.77955-1.77955 1.30761-2.25149 0.667428-2.51667 0-2.51667-0.667428-2.51667-1.30761-2.25149-1.77955-1.77955-2.25149-1.30761-2.51667-0.667428-2.51667 0-2.51667 0.667428-2.25149 1.30761-1.77955 1.77955-1.30761 2.25149-0.667428 2.51667 0 2.51667Z" stroke="#1F77B4" stroke-width="0.838889" stroke-linejoin="round" fill="#1F77B4" transform="matrix(1.00166 0 0 1 104.883 227.991)"/><path d="M0 2.51667C0.667428 2.51667 1.30761 2.25149 1.77955 1.77955 2.25149 1.30761 2.51667 0.667428 2.51667 0 2.51667-0.667428 2.25149-1.30761 1.77955-1.77955 1.30761-2.25149 0.667428-2.51667 0-2.51667-0.667428-2.51667-1.30761-2.25149-1.77955-1.77955-2.25149-1.30761-2.51667-0.667428-2.51667 0-2.51667 0.667428-2.25149 1.30761-1.77955 1.77955-1.30761 2.25149-0.667428 2.51667 0 2.51667Z" stroke="#1F77B4" stroke-width="0.838889" stroke-linejoin="round" fill="#1F77B4" transform="matrix(1.00166 0 0 1 106.84 227.659)"/><path d="M0 2.51667C0.667428 2.51667 1.30761 2.25149 1.77955 1.77955 2.25149 1.30761 2.51667 0.667428 2.51667 0 2.51667-0.667428 2.25149-1.30761 1.77955-1.77955 1.30761-2.25149 0.667428-2.51667 0-2.51667-0.667428-2.51667-1.30761-2.25149-1.77955-1.77955-2.25149-1.30761-2.51667-0.667428-2.51667 0-2.51667 0.667428-2.25149 1.30761-1.77955 1.77955-1.30761 2.25149-0.667428 2.51667 0 2.51667Z" stroke="#1F77B4" stroke-width="0.838889" stroke-linejoin="round" fill="#1F77B4" transform="matrix(1.00166 0 0 1 108.797 244.972)"/><path d="M0 2.51667C0.667428 2.51667 1.30761 2.25149 1.77955 1.77955 2.25149 1.30761 2.51667 0.667428 2.51667 0 2.51667-0.667428 2.25149-1.30761 1.77955-1.77955 1.30761-2.25149 0.667428-2.51667 0-2.51667-0.667428-2.51667-1.30761-2.25149-1.77955-1.77955-2.25149-1.30761-2.51667-0.667428-2.51667 0-2.51667 0.667428-2.25149 1.30761-1.77955 1.77955-1.30761 2.25149-0.667428 2.51667 0 2.51667Z" stroke="#1F77B4" stroke-width="0.838889" stroke-linejoin="round" fill="#1F77B4" transform="matrix(1.00166 0 0 1 110.754 230.059)"/><path d="M0 2.51667C0.667428 2.51667 1.30761 2.25149 1.77955 1.77955 2.25149 1.30761 2.51667 0.667428 2.51667 0 2.51667-0.667428 2.25149-1.30761 1.77955-1.77955 1.30761-2.25149 0.667428-2.51667 0-2.51667-0.667428-2.51667-1.30761-2.25149-1.77955-1.77955-2.25149-1.30761-2.51667-0.667428-2.51667 0-2.51667 0.667428-2.25149 1.30761-1.77955 1.77955-1.30761 2.25149-0.667428 2.51667 0 2.51667Z" stroke="#1F77B4" stroke-width="0.838889" stroke-linejoin="round" fill="#1F77B4" transform="matrix(1.00166 0 0 1 112.712 247.474)"/><path d="M0 2.51667C0.667428 2.51667 1.30761 2.25149 1.77955 1.77955 2.25149 1.30761 2.51667 0.667428 2.51667 0 2.51667-0.667428 2.25149-1.30761 1.77955-1.77955 1.30761-2.25149 0.667428-2.51667 0-2.51667-0.667428-2.51667-1.30761-2.25149-1.77955-1.77955-2.25149-1.30761-2.51667-0.667428-2.51667 0-2.51667 0.667428-2.25149 1.30761-1.77955 1.77955-1.30761 2.25149-0.667428 2.51667 0 2.51667Z" stroke="#1F77B4" stroke-width="0.838889" stroke-linejoin="round" fill="#1F77B4" transform="matrix(1.00166 0 0 1 114.669 214.902)"/><path d="M0 2.51667C0.667428 2.51667 1.30761 2.25149 1.77955 1.77955 2.25149 1.30761 2.51667 0.667428 2.51667 0 2.51667-0.667428 2.25149-1.30761 1.77955-1.77955 1.30761-2.25149 0.667428-2.51667 0-2.51667-0.667428-2.51667-1.30761-2.25149-1.77955-1.77955-2.25149-1.30761-2.51667-0.667428-2.51667 0-2.51667 0.667428-2.25149 1.30761-1.77955 1.77955-1.30761 2.25149-0.667428 2.51667 0 2.51667Z" stroke="#1F77B4" stroke-width="0.838889" stroke-linejoin="round" fill="#1F77B4" transform="matrix(1.00166 0 0 1 116.626 242.325)"/><path d="M0 2.51667C0.667428 2.51667 1.30761 2.25149 1.77955 1.77955 2.25149 1.30761 2.51667 0.667428 2.51667 0 2.51667-0.667428 2.25149-1.30761 1.77955-1.77955 1.30761-2.25149 0.667428-2.51667 0-2.51667-0.667428-2.51667-1.30761-2.25149-1.77955-1.77955-2.25149-1.30761-2.51667-0.667428-2.51667 0-2.51667 0.667428-2.25149 1.30761-1.77955 1.77955-1.30761 2.25149-0.667428 2.51667 0 2.51667Z" stroke="#1F77B4" stroke-width="0.838889" stroke-linejoin="round" fill="#1F77B4" transform="matrix(1.00166 0 0 1 118.583 219.6)"/><path d="M0 2.51667C0.667428 2.51667 1.30761 2.25149 1.77955 1.77955 2.25149 1.30761 2.51667 0.667428 2.51667 0 2.51667-0.667428 2.25149-1.30761 1.77955-1.77955 1.30761-2.25149 0.667428-2.51667 0-2.51667-0.667428-2.51667-1.30761-2.25149-1.77955-1.77955-2.25149-1.30761-2.51667-0.667428-2.51667 0-2.51667 0.667428-2.25149 1.30761-1.77955 1.77955-1.30761 2.25149-0.667428 2.51667 0 2.51667Z" stroke="#1F77B4" stroke-width="0.838889" stroke-linejoin="round" fill="#1F77B4" transform="matrix(1.00166 0 0 1 120.54 226.36)"/><path d="M0 2.51667C0.667428 2.51667 1.30761 2.25149 1.77955 1.77955 2.25149 1.30761 2.51667 0.667428 2.51667 0 2.51667-0.667428 2.25149-1.30761 1.77955-1.77955 1.30761-2.25149 0.667428-2.51667 0-2.51667-0.667428-2.51667-1.30761-2.25149-1.77955-1.77955-2.25149-1.30761-2.51667-0.667428-2.51667 0-2.51667 0.667428-2.25149 1.30761-1.77955 1.77955-1.30761 2.25149-0.667428 2.51667 0 2.51667Z" stroke="#1F77B4" stroke-width="0.838889" stroke-linejoin="round" fill="#1F77B4" transform="matrix(1.00166 0 0 1 122.497 201.494)"/><path d="M0 2.51667C0.667428 2.51667 1.30761 2.25149 1.77955 1.77955 2.25149 1.30761 2.51667 0.667428 2.51667 0 2.51667-0.667428 2.25149-1.30761 1.77955-1.77955 1.30761-2.25149 0.667428-2.51667 0-2.51667-0.667428-2.51667-1.30761-2.25149-1.77955-1.77955-2.25149-1.30761-2.51667-0.667428-2.51667 0-2.51667 0.667428-2.25149 1.30761-1.77955 1.77955-1.30761 2.25149-0.667428 2.51667 0 2.51667Z" stroke="#1F77B4" stroke-width="0.838889" stroke-linejoin="round" fill="#1F77B4" transform="matrix(1.00166 0 0 1 261.449 57.8849)"/><path d="M0 2.51667C0.667428 2.51667 1.30761 2.25149 1.77955 1.77955 2.25149 1.30761 2.51667 0.667428 2.51667 0 2.51667-0.667428 2.25149-1.30761 1.77955-1.77955 1.30761-2.25149 0.667428-2.51667 0-2.51667-0.667428-2.51667-1.30761-2.25149-1.77955-1.77955-2.25149-1.30761-2.51667-0.667428-2.51667 0-2.51667 0.667428-2.25149 1.30761-1.77955 1.77955-1.30761 2.25149-0.667428 2.51667 0 2.51667Z" stroke="#1F77B4" stroke-width="0.838889" stroke-linejoin="round" fill="#1F77B4" transform="matrix(1.00166 0 0 1 263.406 84.0349)"/><path d="M0 2.51667C0.667428 2.51667 1.30761 2.25149 1.77955 1.77955 2.25149 1.30761 2.51667 0.667428 2.51667 0 2.51667-0.667428 2.25149-1.30761 1.77955-1.77955 1.30761-2.25149 0.667428-2.51667 0-2.51667-0.667428-2.51667-1.30761-2.25149-1.77955-1.77955-2.25149-1.30761-2.51667-0.667428-2.51667 0-2.51667 0.667428-2.25149 1.30761-1.77955 1.77955-1.30761 2.25149-0.667428 2.51667 0 2.51667Z" stroke="#1F77B4" stroke-width="0.838889" stroke-linejoin="round" fill="#1F77B4" transform="matrix(1.00166 0 0 1 265.363 46.81)"/><path d="M0 2.51667C0.667428 2.51667 1.30761 2.25149 1.77955 1.77955 2.25149 1.30761 2.51667 0.667428 2.51667 0 2.51667-0.667428 2.25149-1.30761 1.77955-1.77955 1.30761-2.25149 0.667428-2.51667 0-2.51667-0.667428-2.51667-1.30761-2.25149-1.77955-1.77955-2.25149-1.30761-2.51667-0.667428-2.51667 0-2.51667 0.667428-2.25149 1.30761-1.77955 1.77955-1.30761 2.25149-0.667428 2.51667 0 2.51667Z" stroke="#1F77B4" stroke-width="0.838889" stroke-linejoin="round" fill="#1F77B4" transform="matrix(1.00166 0 0 1 267.32 67.6594)"/><path d="M0 2.51667C0.667428 2.51667 1.30761 2.25149 1.77955 1.77955 2.25149 1.30761 2.51667 0.667428 2.51667 0 2.51667-0.667428 2.25149-1.30761 1.77955-1.77955 1.30761-2.25149 0.667428-2.51667 0-2.51667-0.667428-2.51667-1.30761-2.25149-1.77955-1.77955-2.25149-1.30761-2.51667-0.667428-2.51667 0-2.51667 0.667428-2.25149 1.30761-1.77955 1.77955-1.30761 2.25149-0.667428 2.51667 0 2.51667Z" stroke="#1F77B4" stroke-width="0.838889" stroke-linejoin="round" fill="#1F77B4" transform="matrix(1.00166 0 0 1 269.277 50.2833)"/><path d="M0 2.51667C0.667428 2.51667 1.30761 2.25149 1.77955 1.77955 2.25149 1.30761 2.51667 0.667428 2.51667 0 2.51667-0.667428 2.25149-1.30761 1.77955-1.77955 1.30761-2.25149 0.667428-2.51667 0-2.51667-0.667428-2.51667-1.30761-2.25149-1.77955-1.77955-2.25149-1.30761-2.51667-0.667428-2.51667 0-2.51667 0.667428-2.25149 1.30761-1.77955 1.77955-1.30761 2.25149-0.667428 2.51667 0 2.51667Z" stroke="#1F77B4" stroke-width="0.838889" stroke-linejoin="round" fill="#1F77B4" transform="matrix(1.00166 0 0 1 271.234 67.2442)"/><path d="M0 2.51667C0.667428 2.51667 1.30761 2.25149 1.77955 1.77955 2.25149 1.30761 2.51667 0.667428 2.51667 0 2.51667-0.667428 2.25149-1.30761 1.77955-1.77955 1.30761-2.25149 0.667428-2.51667 0-2.51667-0.667428-2.51667-1.30761-2.25149-1.77955-1.77955-2.25149-1.30761-2.51667-0.667428-2.51667 0-2.51667 0.667428-2.25149 1.30761-1.77955 1.77955-1.30761 2.25149-0.667428 2.51667 0 2.51667Z" stroke="#1F77B4" stroke-width="0.838889" stroke-linejoin="round" fill="#1F77B4" transform="matrix(1.00166 0 0 1 273.191 55.8269)"/><path d="M0 2.51667C0.667428 2.51667 1.30761 2.25149 1.77955 1.77955 2.25149 1.30761 2.51667 0.667428 2.51667 0 2.51667-0.667428 2.25149-1.30761 1.77955-1.77955 1.30761-2.25149 0.667428-2.51667 0-2.51667-0.667428-2.51667-1.30761-2.25149-1.77955-1.77955-2.25149-1.30761-2.51667-0.667428-2.51667 0-2.51667 0.667428-2.25149 1.30761-1.77955 1.77955-1.30761 2.25149-0.667428 2.51667 0 2.51667Z" stroke="#1F77B4" stroke-width="0.838889" stroke-linejoin="round" fill="#1F77B4" transform="matrix(1.00166 0 0 1 275.148 71.7861)"/><path d="M0 2.51667C0.667428 2.51667 1.30761 2.25149 1.77955 1.77955 2.25149 1.30761 2.51667 0.667428 2.51667 0 2.51667-0.667428 2.25149-1.30761 1.77955-1.77955 1.30761-2.25149 0.667428-2.51667 0-2.51667-0.667428-2.51667-1.30761-2.25149-1.77955-1.77955-2.25149-1.30761-2.51667-0.667428-2.51667 0-2.51667 0.667428-2.25149 1.30761-1.77955 1.77955-1.30761 2.25149-0.667428 2.51667 0 2.51667Z" stroke="#1F77B4" stroke-width="0.838889" stroke-linejoin="round" fill="#1F77B4" transform="matrix(1.00166 0 0 1 277.105 65.7514)"/></g><g><path d="M85.1715 258.21 87.1253 256.135 89.0791 254.061 91.0329 251.986 92.9866 249.912 94.9404 247.837 96.8942 245.763 98.848 243.688 100.803 241.613 102.756 239.539 104.71 237.464 106.664 235.39 108.618 233.315 110.571 231.241 112.525 229.166 114.479 227.092 116.433 225.018 118.387 222.943 120.34 220.869 122.294 218.794 124.248 216.719 126.202 214.645 128.156 212.57 130.11 210.496 132.064 208.421 134.018 206.347 135.971 204.272 137.925 202.197 139.879 200.123 141.833 198.048 143.786 195.974 145.74 193.899 147.694 191.825 149.648 189.75 151.601 187.675 153.556 185.601 155.51 183.526 157.464 181.452 159.417 179.377 161.371 177.303 163.325 175.228 165.279 173.153 167.232 171.079 169.186 169.005 171.14 166.93 173.094 164.856 175.048 162.781 177.001 160.707 178.956 158.632 180.91 156.558 182.864 154.483 184.817 152.408 186.771 150.334 188.725 148.259 190.679 146.185 192.632 144.11 194.586 142.036 196.54 139.961 198.494 137.886 200.447 135.812 202.401 133.737 204.356 131.663 206.31 129.588 208.263 127.514 210.217 125.439 212.171 123.364 214.125 121.29 216.078 119.215 218.032 117.141 219.986 115.066 221.94 112.992 223.894 110.917 225.847 108.843 227.801 106.769 229.756 104.694 231.709 102.62 233.663 100.545 235.617 98.4705 237.571 96.3959 239.525 94.3213 241.478 92.2467 243.432 90.1722 245.386 88.0976 247.34 86.023 249.293 83.9484 251.247 81.8739 253.201 79.7993 255.156 77.7248 257.109 75.6502 259.063 73.5757 261.017 71.5012 262.971 69.4266 264.924 67.352 266.878 65.2775 268.832 63.203 270.786 61.1284 272.74 59.0539 274.693 56.9793 276.647 54.9048 278.601 52.8303" stroke="#FF0000" stroke-width="1.25833" stroke-linecap="square" stroke-linejoin="round" fill="none" transform="scale(1.00166 1)"/></g><path d="M75.5 268.78 75.5 36.24" stroke="#000000" stroke-width="0.671111" stroke-linecap="square" fill="none" transform="scale(1.00166 1)"/><path d="M288.272 268.78 288.272 36.24" stroke="#000000" stroke-width="0.671111" stroke-linecap="square" fill="none" transform="scale(1.00166 1)"/><path d="M75.5 268.78 288.272 268.78" stroke="#000000" stroke-width="0.671111" stroke-linecap="square" fill="none" transform="scale(1.00166 1)"/><path d="M75.5 36.24 288.272 36.24" stroke="#000000" stroke-width="0.671111" stroke-linecap="square" fill="none" transform="scale(1.00166 1)"/><path d="M5.38724 7.09857 5.38724 6.12966C5.01079 6.31002 4.65531 6.44424 4.3208 6.53232 3.98629 6.62146 3.66332 6.66602 3.35189 6.66602 2.81186 6.66602 2.39503 6.56115 2.10142 6.35144 1.8078 6.14172 1.661 5.84339 1.661 5.45645 1.661 5.13137 1.75852 4.886 1.95356 4.72032 2.1486 4.55569 2.51824 4.42252 3.06247 4.3208L3.66175 4.19811C4.40207 4.05655 4.9484 3.80803 5.30073 3.45255 5.65306 3.09707 5.82923 2.62153 5.82923 2.02592 5.82923 1.31391 5.59066 0.774399 5.11355 0.407385 4.63748 0.0403716 3.9391-0.143135 3.01843-0.143135 2.67133-0.143135 2.3017-0.103813 1.90952-0.0251667 1.51839 0.0534792 1.1131 0.169875 0.693656 0.324021L0.693656 1.34642C1.09632 1.12097 1.49112 0.950565 1.87806 0.835219 2.265 0.72092 2.64513 0.663771 3.01843 0.663771 3.58468 0.663771 4.02195 0.774924 4.33024 0.997229 4.63853 1.22058 4.79268 1.53884 4.79268 1.95199 4.79268 2.31167 4.68205 2.59322 4.46079 2.79665 4.23953 3.00007 3.87672 3.15264 3.37233 3.25436L2.76676 3.37233C2.02644 3.51913 1.4906 3.74983 1.15924 4.06442 0.828927 4.379 0.663771 4.81679 0.663771 5.3778 0.663771 6.0269 0.892368 6.5381 1.34956 6.9114 1.80676 7.2847 2.43645 7.47135 3.23864 7.47135 3.58362 7.47135 3.93438 7.4399 4.29092 7.37698 4.64849 7.31512 5.01394 7.22231 5.38724 7.09857Z" transform="matrix(1.00166 0 0 -1 88.8048 31.2067)"/><path d="M3.08134 4.87132C2.59689 4.87132 2.21361 4.68205 1.93154 4.3035 1.64947 3.92495 1.50843 3.40642 1.50843 2.74789 1.50843 2.08935 1.64842 1.57082 1.9284 1.19227 2.20943 0.813722 2.59374 0.624448 3.08134 0.624448 3.56371 0.624448 3.94539 0.814247 4.22643 1.19384 4.5085 1.57449 4.64954 2.0925 4.64954 2.74789 4.64954 3.40013 4.5085 3.91708 4.22643 4.29878 3.94539 4.68048 3.56371 4.87132 3.08134 4.87132ZM3.08134 5.63733C3.8678 5.63733 4.48544 5.38147 4.93424 4.86975 5.38409 4.35907 5.60902 3.65179 5.60902 2.74789 5.60902 1.84712 5.38409 1.13984 4.93424 0.626021 4.48544 0.11325 3.8678-0.143135 3.08134-0.143135 2.29174-0.143135 1.67306 0.11325 1.2253 0.626021 0.778594 1.13984 0.55524 1.84712 0.55524 2.74789 0.55524 3.65179 0.778594 4.35907 1.2253 4.86975 1.67306 5.38147 2.29174 5.63733 3.08134 5.63733Z" transform="matrix(1.00166 0 0 -1 95.2053 31.2067)"/><path d="M5.23467 4.44821C5.46117 4.85507 5.73171 5.15497 6.04629 5.34792 6.36087 5.54087 6.73103 5.63733 7.15677 5.63733 7.73037 5.63733 8.17287 5.43652 8.48431 5.03491 8.79575 4.63433 8.95147 4.0639 8.95147 3.32357L8.95147 0 8.04232 0 8.04232 3.29369C8.04232 3.82113 7.94847 4.21227 7.76077 4.46708 7.57411 4.72295 7.28941 4.85087 6.90668 4.85087 6.43795 4.85087 6.06726 4.69516 5.79462 4.38372 5.52303 4.07333 5.38724 3.64917 5.38724 3.11123L5.38724 0 4.47809 0 4.47809 3.29369C4.47809 3.82428 4.38477 4.21647 4.19811 4.47023 4.01146 4.72399 3.72309 4.85087 3.33301 4.85087 2.87057 4.85087 2.50303 4.69464 2.2304 4.38215 1.9588 4.06965 1.82301 3.64602 1.82301 3.11123L1.82301 0 0.913865 0 0.913865 5.50521 1.82301 5.50521 1.82301 4.64954C2.02958 4.9872 2.27706 5.23624 2.56543 5.39668 2.85379 5.55711 3.19617 5.63733 3.59254 5.63733 3.99312 5.63733 4.33339 5.53561 4.61336 5.33219 4.89334 5.1298 5.10045 4.83515 5.23467 4.44821Z" transform="matrix(1.00166 0 0 -1 101.374 31.2067)"/><path d="M5.65778 2.9791 5.65778 2.53711 1.49899 2.53711C1.53884 1.91424 1.72654 1.43974 2.06209 1.11362 2.39764 0.787507 2.86534 0.624448 3.46514 0.624448 3.81223 0.624448 4.14883 0.666917 4.47495 0.751854 4.80106 0.836792 5.12508 0.964722 5.44701 1.13565L5.44701 0.279979C5.12194 0.142611 4.78901 0.03775 4.44821-0.0346042 4.1074-0.106958 3.7619-0.143135 3.41166-0.143135 2.53291-0.143135 1.83717 0.112201 1.3244 0.622875 0.811625 1.1346 0.55524 1.82668 0.55524 2.69913 0.55524 3.59989 0.798518 4.31451 1.28507 4.84301 1.77162 5.37256 2.42806 5.63733 3.25436 5.63733 3.99469 5.63733 4.58033 5.39877 5.01131 4.92166 5.44229 4.44558 5.65778 3.79807 5.65778 2.9791ZM4.75335 3.24493C4.74706 3.73882 4.60865 4.13311 4.3381 4.42776 4.06756 4.72347 3.70946 4.87132 3.2638 4.87132 2.75941 4.87132 2.35571 4.72871 2.05266 4.44349 1.7496 4.15827 1.57501 3.75664 1.52887 3.23864L4.75335 3.24493Z" transform="matrix(1.00166 0 0 -1 111.197 31.2067)"/><path d="M0.855667 2.1722 0.855667 5.50521 1.76009 5.50521 1.76009 2.2068C1.76009 1.68565 1.86128 1.29451 2.06367 1.03341 2.26709 0.773351 2.57224 0.643323 2.9791 0.643323 3.46671 0.643323 3.85207 0.799042 4.1352 1.11048 4.41938 1.42192 4.56146 1.8466 4.56146 2.38454L4.56146 5.50521 5.46589 5.50521 5.46589 0 4.56146 0 4.56146 0.846229C4.3423 0.511722 4.08749 0.263201 3.79702 0.100667 3.5076-0.061868 3.171-0.143135 2.78721-0.143135 2.1549-0.143135 1.67464 0.0534792 1.34642 0.446708 1.01925 0.839938 0.855667 1.4151 0.855667 2.1722ZM3.13168 5.63733 3.13168 5.63733Z" transform="matrix(1.00166 0 0 -1 120.606 31.2067)"/><path d="M5.52566 3.32357 5.52566 0 4.62123 0 4.62123 3.29369C4.62123 3.81484 4.51951 4.20441 4.31608 4.46236 4.11266 4.72138 3.80803 4.85087 3.40222 4.85087 2.91356 4.85087 2.5282 4.69516 2.24612 4.38372 1.96405 4.07333 1.82301 3.64917 1.82301 3.11123L1.82301 0 0.913865 0 0.913865 5.50521 1.82301 5.50521 1.82301 4.64954C2.04007 4.98091 2.29489 5.22837 2.58745 5.39196 2.88106 5.55554 3.21976 5.63733 3.60355 5.63733 4.23586 5.63733 4.71403 5.44177 5.03805 5.05064 5.36313 4.6595 5.52566 4.08381 5.52566 3.32357Z" transform="matrix(1.00166 0 0 -1 126.996 31.2067)"/><path d="M4.91065 5.29444 4.91065 4.44821C4.65478 4.58977 4.39839 4.69568 4.14149 4.76594 3.88458 4.8362 3.62505 4.87132 3.3629 4.87132 2.77568 4.87132 2.31953 4.6852 1.99446 4.31294 1.67044 3.94173 1.50843 3.42004 1.50843 2.74789 1.50843 2.07573 1.67044 1.55352 1.99446 1.18126 2.31953 0.810052 2.77568 0.624448 3.3629 0.624448 3.62505 0.624448 3.88458 0.659576 4.14149 0.729833 4.39839 0.800091 4.65478 0.906 4.91065 1.04756L4.91065 0.210771C4.65793 0.0933263 4.3963 0.00524305 4.12576-0.0534792 3.85627-0.11325 3.56895-0.143135 3.2638-0.143135 2.43436-0.143135 1.7753 0.117445 1.28665 0.638604 0.799042 1.15976 0.55524 1.86285 0.55524 2.74789 0.55524 3.6455 0.801664 4.35121 1.29451 4.86503 1.78841 5.37989 2.46476 5.63733 3.32357 5.63733 3.60146 5.63733 3.87304 5.6085 4.13834 5.55082 4.40365 5.4942 4.66107 5.40874 4.91065 5.29444Z" transform="matrix(1.00166 0 0 -1 133.387 31.2067)"/><path d="M5.65778 2.9791 5.65778 2.53711 1.49899 2.53711C1.53884 1.91424 1.72654 1.43974 2.06209 1.11362 2.39764 0.787507 2.86534 0.624448 3.46514 0.624448 3.81223 0.624448 4.14883 0.666917 4.47495 0.751854 4.80106 0.836792 5.12508 0.964722 5.44701 1.13565L5.44701 0.279979C5.12194 0.142611 4.78901 0.03775 4.44821-0.0346042 4.1074-0.106958 3.7619-0.143135 3.41166-0.143135 2.53291-0.143135 1.83717 0.112201 1.3244 0.622875 0.811625 1.1346 0.55524 1.82668 0.55524 2.69913 0.55524 3.59989 0.798518 4.31451 1.28507 4.84301 1.77162 5.37256 2.42806 5.63733 3.25436 5.63733 3.99469 5.63733 4.58033 5.39877 5.01131 4.92166 5.44229 4.44558 5.65778 3.79807 5.65778 2.9791ZM4.75335 3.24493C4.74706 3.73882 4.60865 4.13311 4.3381 4.42776 4.06756 4.72347 3.70946 4.87132 3.2638 4.87132 2.75941 4.87132 2.35571 4.72871 2.05266 4.44349 1.7496 4.15827 1.57501 3.75664 1.52887 3.23864L4.75335 3.24493Z" transform="matrix(1.00166 0 0 -1 138.931 31.2067)"/><path d="M4.13834 4.66055C4.03662 4.71927 3.926 4.76227 3.80646 4.78953 3.68692 4.81784 3.55531 4.832 3.41166 4.832 2.89994 4.832 2.50723 4.66579 2.23354 4.33339 1.95985 4.00098 1.82301 3.52333 1.82301 2.90046L1.82301 0 0.913865 0 0.913865 5.50521 1.82301 5.50521 1.82301 4.64954C2.01385 4.98405 2.26134 5.23204 2.56543 5.39353 2.87057 5.55606 3.24126 5.63733 3.67748 5.63733 3.73934 5.63733 3.80803 5.63313 3.88353 5.62475 3.95903 5.6174 4.0424 5.60536 4.13363 5.58857L4.13834 4.66055Z" transform="matrix(1.00166 0 0 -1 145.135 31.2067)"/><path d="M1.84346 7.06869 1.84346 5.50521 3.70579 5.50521 3.70579 4.80211 1.84346 4.80211 1.84346 1.81357C1.84346 1.36477 1.9048 1.0764 2.02749 0.948469 2.15018 0.820539 2.40027 0.756573 2.77777 0.756573L3.70579 0.756573 3.70579 0 2.77777 0C2.0794 0 1.59756 0.130028 1.33226 0.390083 1.06696 0.651187 0.934312 1.12568 0.934312 1.81357L0.934312 4.80211 0.270542 4.80211 0.270542 5.50521 0.934312 5.50521 0.934312 7.06869 1.84346 7.06869Z" transform="matrix(1.00166 0 0 -1 149.28 31.2067)"/><path d="M3.45098 2.76676C2.72009 2.76676 2.21361 2.6834 1.93154 2.51667 1.64947 2.34994 1.50843 2.06472 1.50843 1.661 1.50843 1.34012 1.61433 1.08531 1.82616 0.896562 2.03798 0.708862 2.32529 0.61501 2.68811 0.61501 3.19039 0.61501 3.59306 0.79275 3.89611 1.14823 4.19917 1.50371 4.35069 1.9761 4.35069 2.56543L4.35069 2.76676 3.45098 2.76676ZM5.25511 3.14111 5.25511 0 4.35069 0 4.35069 0.835219C4.14412 0.50176 3.88668 0.255336 3.57839 0.0959479 3.27009-0.0634409 2.89311-0.143135 2.44746-0.143135 1.88435-0.143135 1.43607 0.0152049 1.10261 0.331885 0.770205 0.648565 0.604 1.07221 0.604 1.6028 0.604 2.22148 0.811101 2.68811 1.2253 3.0027 1.64055 3.31728 2.25923 3.47457 3.08134 3.47457L4.35069 3.47457 4.35069 3.56423C4.35069 3.98053 4.21384 4.30245 3.94016 4.53 3.66647 4.75755 3.28216 4.87132 2.78721 4.87132 2.47263 4.87132 2.16591 4.83357 1.86705 4.75807 1.56925 4.68257 1.28298 4.56932 1.00824 4.41832L1.00824 5.25511C1.33855 5.38304 1.65943 5.47847 1.97086 5.54139 2.2823 5.60536 2.58536 5.63733 2.88001 5.63733 3.67696 5.63733 4.27204 5.43076 4.66527 5.0176 5.0585 4.6055 5.25511 3.98 5.25511 3.14111Z" transform="matrix(1.00166 0 0 -1 153.234 31.2067)"/><path d="M0.948469 5.50521 1.8529 5.50521 1.8529 0 0.948469 0 0.948469 5.50521ZM0.948469 7.64909 1.8529 7.64909 1.8529 6.50244 0.948469 6.50244 0.948469 7.64909Z" transform="matrix(1.00166 0 0 -1 159.413 31.2067)"/><path d="M5.52566 3.32357 5.52566 0 4.62123 0 4.62123 3.29369C4.62123 3.81484 4.51951 4.20441 4.31608 4.46236 4.11266 4.72138 3.80803 4.85087 3.40222 4.85087 2.91356 4.85087 2.5282 4.69516 2.24612 4.38372 1.96405 4.07333 1.82301 3.64917 1.82301 3.11123L1.82301 0 0.913865 0 0.913865 5.50521 1.82301 5.50521 1.82301 4.64954C2.04007 4.98091 2.29489 5.22837 2.58745 5.39196 2.88106 5.55554 3.21976 5.63733 3.60355 5.63733 4.23586 5.63733 4.71403 5.44177 5.03805 5.05064 5.36313 4.6595 5.52566 4.08381 5.52566 3.32357Z" transform="matrix(1.00166 0 0 -1 162.214 31.2067)"/><path d="M1.84346 7.06869 1.84346 5.50521 3.70579 5.50521 3.70579 4.80211 1.84346 4.80211 1.84346 1.81357C1.84346 1.36477 1.9048 1.0764 2.02749 0.948469 2.15018 0.820539 2.40027 0.756573 2.77777 0.756573L3.70579 0.756573 3.70579 0 2.77777 0C2.0794 0 1.59756 0.130028 1.33226 0.390083 1.06696 0.651187 0.934312 1.12568 0.934312 1.81357L0.934312 4.80211 0.270542 4.80211 0.270542 5.50521 0.934312 5.50521 0.934312 7.06869 1.84346 7.06869Z" transform="matrix(1.00166 0 0 -1 168.605 31.2067)"/><path d="M3.23864-0.511198C2.98382-1.16658 2.73478-1.59388 2.4915-1.79312 2.24927-1.9934 1.92525-2.09355 1.51944-2.09355L0.795896-2.09355 0.795896-1.33698 1.32754-1.33698C1.57606-1.33698 1.76901-1.27773 1.90637-1.15924 2.04479-1.04179 2.19736-0.763388 2.36409-0.324021L2.5261 0.0880833 0.300427 5.50521 1.25833 5.50521 2.9791 1.20014 4.69987 5.50521 5.65778 5.50521 3.23864-0.511198Z" transform="matrix(1.00166 0 0 -1 172.558 31.2067)"/><path d="M0.948469 5.50521 1.8529 5.50521 1.8529 0 0.948469 0 0.948469 5.50521ZM0.948469 7.64909 1.8529 7.64909 1.8529 6.50244 0.948469 6.50244 0.948469 7.64909Z" transform="matrix(1.00166 0 0 -1 181.731 31.2067)"/><path d="M5.52566 3.32357 5.52566 0 4.62123 0 4.62123 3.29369C4.62123 3.81484 4.51951 4.20441 4.31608 4.46236 4.11266 4.72138 3.80803 4.85087 3.40222 4.85087 2.91356 4.85087 2.5282 4.69516 2.24612 4.38372 1.96405 4.07333 1.82301 3.64917 1.82301 3.11123L1.82301 0 0.913865 0 0.913865 5.50521 1.82301 5.50521 1.82301 4.64954C2.04007 4.98091 2.29489 5.22837 2.58745 5.39196 2.88106 5.55554 3.21976 5.63733 3.60355 5.63733 4.23586 5.63733 4.71403 5.44177 5.03805 5.05064 5.36313 4.6595 5.52566 4.08381 5.52566 3.32357Z" transform="matrix(1.00166 0 0 -1 184.532 31.2067)"/><path d="M1.84346 7.06869 1.84346 5.50521 3.70579 5.50521 3.70579 4.80211 1.84346 4.80211 1.84346 1.81357C1.84346 1.36477 1.9048 1.0764 2.02749 0.948469 2.15018 0.820539 2.40027 0.756573 2.77777 0.756573L3.70579 0.756573 3.70579 0 2.77777 0C2.0794 0 1.59756 0.130028 1.33226 0.390083 1.06696 0.651187 0.934312 1.12568 0.934312 1.81357L0.934312 4.80211 0.270542 4.80211 0.270542 5.50521 0.934312 5.50521 0.934312 7.06869 1.84346 7.06869Z" transform="matrix(1.00166 0 0 -1 194.128 31.2067)"/><path d="M5.52566 3.32357 5.52566 0 4.62123 0 4.62123 3.29369C4.62123 3.81484 4.51951 4.20441 4.31608 4.46236 4.11266 4.72138 3.80803 4.85087 3.40222 4.85087 2.91356 4.85087 2.5282 4.69516 2.24612 4.38372 1.96405 4.07333 1.82301 3.64917 1.82301 3.11123L1.82301 0 0.913865 0 0.913865 7.64909 1.82301 7.64909 1.82301 4.64954C2.04007 4.98091 2.29489 5.22837 2.58745 5.39196 2.88106 5.55554 3.21976 5.63733 3.60355 5.63733 4.23586 5.63733 4.71403 5.44177 5.03805 5.05064 5.36313 4.6595 5.52566 4.08381 5.52566 3.32357Z" transform="matrix(1.00166 0 0 -1 198.082 31.2067)"/><path d="M5.65778 2.9791 5.65778 2.53711 1.49899 2.53711C1.53884 1.91424 1.72654 1.43974 2.06209 1.11362 2.39764 0.787507 2.86534 0.624448 3.46514 0.624448 3.81223 0.624448 4.14883 0.666917 4.47495 0.751854 4.80106 0.836792 5.12508 0.964722 5.44701 1.13565L5.44701 0.279979C5.12194 0.142611 4.78901 0.03775 4.44821-0.0346042 4.1074-0.106958 3.7619-0.143135 3.41166-0.143135 2.53291-0.143135 1.83717 0.112201 1.3244 0.622875 0.811625 1.1346 0.55524 1.82668 0.55524 2.69913 0.55524 3.59989 0.798518 4.31451 1.28507 4.84301 1.77162 5.37256 2.42806 5.63733 3.25436 5.63733 3.99469 5.63733 4.58033 5.39877 5.01131 4.92166 5.44229 4.44558 5.65778 3.79807 5.65778 2.9791ZM4.75335 3.24493C4.74706 3.73882 4.60865 4.13311 4.3381 4.42776 4.06756 4.72347 3.70946 4.87132 3.2638 4.87132 2.75941 4.87132 2.35571 4.72871 2.05266 4.44349 1.7496 4.15827 1.57501 3.75664 1.52887 3.23864L4.75335 3.24493Z" transform="matrix(1.00166 0 0 -1 204.473 31.2067)"/><path d="M1.82301 0.825781 1.82301-2.09355 0.913865-2.09355 0.913865 5.50521 1.82301 5.50521 1.82301 4.66999C2.01385 4.99716 2.25399 5.2399 2.54341 5.39825 2.83388 5.55763 3.18044 5.63733 3.5831 5.63733 4.25211 5.63733 4.7953 5.37203 5.21265 4.84144 5.63104 4.31085 5.84024 3.61299 5.84024 2.74789 5.84024 1.88278 5.63104 1.18441 5.21265 0.65276 4.7953 0.122163 4.25211-0.143135 3.5831-0.143135 3.18044-0.143135 2.83388-0.0634409 2.54341 0.0959479 2.25399 0.255336 2.01385 0.498615 1.82301 0.825781ZM4.90121 2.74789C4.90121 3.41271 4.76436 3.93438 4.49068 4.31294 4.21699 4.69149 3.84106 4.88076 3.3629 4.88076 2.88368 4.88076 2.50723 4.69149 2.23354 4.31294 1.95985 3.93438 1.82301 3.41271 1.82301 2.74789 1.82301 2.08306 1.95985 1.56138 2.23354 1.18283 2.50723 0.804284 2.88368 0.61501 3.3629 0.61501 3.84106 0.61501 4.21699 0.804284 4.49068 1.18283 4.76436 1.56138 4.90121 2.08306 4.90121 2.74789Z" transform="matrix(1.00166 0 0 -1 213.881 31.2067)"/><path d="M3.45098 2.76676C2.72009 2.76676 2.21361 2.6834 1.93154 2.51667 1.64947 2.34994 1.50843 2.06472 1.50843 1.661 1.50843 1.34012 1.61433 1.08531 1.82616 0.896562 2.03798 0.708862 2.32529 0.61501 2.68811 0.61501 3.19039 0.61501 3.59306 0.79275 3.89611 1.14823 4.19917 1.50371 4.35069 1.9761 4.35069 2.56543L4.35069 2.76676 3.45098 2.76676ZM5.25511 3.14111 5.25511 0 4.35069 0 4.35069 0.835219C4.14412 0.50176 3.88668 0.255336 3.57839 0.0959479 3.27009-0.0634409 2.89311-0.143135 2.44746-0.143135 1.88435-0.143135 1.43607 0.0152049 1.10261 0.331885 0.770205 0.648565 0.604 1.07221 0.604 1.6028 0.604 2.22148 0.811101 2.68811 1.2253 3.0027 1.64055 3.31728 2.25923 3.47457 3.08134 3.47457L4.35069 3.47457 4.35069 3.56423C4.35069 3.98053 4.21384 4.30245 3.94016 4.53 3.66647 4.75755 3.28216 4.87132 2.78721 4.87132 2.47263 4.87132 2.16591 4.83357 1.86705 4.75807 1.56925 4.68257 1.28298 4.56932 1.00824 4.41832L1.00824 5.25511C1.33855 5.38304 1.65943 5.47847 1.97086 5.54139 2.2823 5.60536 2.58536 5.63733 2.88001 5.63733 3.67696 5.63733 4.27204 5.43076 4.66527 5.0176 5.0585 4.6055 5.25511 3.98 5.25511 3.14111Z" transform="matrix(1.00166 0 0 -1 220.282 31.2067)"/><path d="M4.13834 4.66055C4.03662 4.71927 3.926 4.76227 3.80646 4.78953 3.68692 4.81784 3.55531 4.832 3.41166 4.832 2.89994 4.832 2.50723 4.66579 2.23354 4.33339 1.95985 4.00098 1.82301 3.52333 1.82301 2.90046L1.82301 0 0.913865 0 0.913865 5.50521 1.82301 5.50521 1.82301 4.64954C2.01385 4.98405 2.26134 5.23204 2.56543 5.39353 2.87057 5.55606 3.24126 5.63733 3.67748 5.63733 3.73934 5.63733 3.80803 5.63313 3.88353 5.62475 3.95903 5.6174 4.0424 5.60536 4.13363 5.58857L4.13834 4.66055Z" transform="matrix(1.00166 0 0 -1 226.461 31.2067)"/><path d="M3.45098 2.76676C2.72009 2.76676 2.21361 2.6834 1.93154 2.51667 1.64947 2.34994 1.50843 2.06472 1.50843 1.661 1.50843 1.34012 1.61433 1.08531 1.82616 0.896562 2.03798 0.708862 2.32529 0.61501 2.68811 0.61501 3.19039 0.61501 3.59306 0.79275 3.89611 1.14823 4.19917 1.50371 4.35069 1.9761 4.35069 2.56543L4.35069 2.76676 3.45098 2.76676ZM5.25511 3.14111 5.25511 0 4.35069 0 4.35069 0.835219C4.14412 0.50176 3.88668 0.255336 3.57839 0.0959479 3.27009-0.0634409 2.89311-0.143135 2.44746-0.143135 1.88435-0.143135 1.43607 0.0152049 1.10261 0.331885 0.770205 0.648565 0.604 1.07221 0.604 1.6028 0.604 2.22148 0.811101 2.68811 1.2253 3.0027 1.64055 3.31728 2.25923 3.47457 3.08134 3.47457L4.35069 3.47457 4.35069 3.56423C4.35069 3.98053 4.21384 4.30245 3.94016 4.53 3.66647 4.75755 3.28216 4.87132 2.78721 4.87132 2.47263 4.87132 2.16591 4.83357 1.86705 4.75807 1.56925 4.68257 1.28298 4.56932 1.00824 4.41832L1.00824 5.25511C1.33855 5.38304 1.65943 5.47847 1.97086 5.54139 2.2823 5.60536 2.58536 5.63733 2.88001 5.63733 3.67696 5.63733 4.27204 5.43076 4.66527 5.0176 5.0585 4.6055 5.25511 3.98 5.25511 3.14111Z" transform="matrix(1.00166 0 0 -1 230.607 31.2067)"/><path d="M5.23467 4.44821C5.46117 4.85507 5.73171 5.15497 6.04629 5.34792 6.36087 5.54087 6.73103 5.63733 7.15677 5.63733 7.73037 5.63733 8.17287 5.43652 8.48431 5.03491 8.79575 4.63433 8.95147 4.0639 8.95147 3.32357L8.95147 0 8.04232 0 8.04232 3.29369C8.04232 3.82113 7.94847 4.21227 7.76077 4.46708 7.57411 4.72295 7.28941 4.85087 6.90668 4.85087 6.43795 4.85087 6.06726 4.69516 5.79462 4.38372 5.52303 4.07333 5.38724 3.64917 5.38724 3.11123L5.38724 0 4.47809 0 4.47809 3.29369C4.47809 3.82428 4.38477 4.21647 4.19811 4.47023 4.01146 4.72399 3.72309 4.85087 3.33301 4.85087 2.87057 4.85087 2.50303 4.69464 2.2304 4.38215 1.9588 4.06965 1.82301 3.64602 1.82301 3.11123L1.82301 0 0.913865 0 0.913865 5.50521 1.82301 5.50521 1.82301 4.64954C2.02958 4.9872 2.27706 5.23624 2.56543 5.39668 2.85379 5.55711 3.19617 5.63733 3.59254 5.63733 3.99312 5.63733 4.33339 5.53561 4.61336 5.33219 4.89334 5.1298 5.10045 4.83515 5.23467 4.44821Z" transform="matrix(1.00166 0 0 -1 236.786 31.2067)"/><path d="M5.65778 2.9791 5.65778 2.53711 1.49899 2.53711C1.53884 1.91424 1.72654 1.43974 2.06209 1.11362 2.39764 0.787507 2.86534 0.624448 3.46514 0.624448 3.81223 0.624448 4.14883 0.666917 4.47495 0.751854 4.80106 0.836792 5.12508 0.964722 5.44701 1.13565L5.44701 0.279979C5.12194 0.142611 4.78901 0.03775 4.44821-0.0346042 4.1074-0.106958 3.7619-0.143135 3.41166-0.143135 2.53291-0.143135 1.83717 0.112201 1.3244 0.622875 0.811625 1.1346 0.55524 1.82668 0.55524 2.69913 0.55524 3.59989 0.798518 4.31451 1.28507 4.84301 1.77162 5.37256 2.42806 5.63733 3.25436 5.63733 3.99469 5.63733 4.58033 5.39877 5.01131 4.92166 5.44229 4.44558 5.65778 3.79807 5.65778 2.9791ZM4.75335 3.24493C4.74706 3.73882 4.60865 4.13311 4.3381 4.42776 4.06756 4.72347 3.70946 4.87132 3.2638 4.87132 2.75941 4.87132 2.35571 4.72871 2.05266 4.44349 1.7496 4.15827 1.57501 3.75664 1.52887 3.23864L4.75335 3.24493Z" transform="matrix(1.00166 0 0 -1 246.608 31.2067)"/><path d="M1.84346 7.06869 1.84346 5.50521 3.70579 5.50521 3.70579 4.80211 1.84346 4.80211 1.84346 1.81357C1.84346 1.36477 1.9048 1.0764 2.02749 0.948469 2.15018 0.820539 2.40027 0.756573 2.77777 0.756573L3.70579 0.756573 3.70579 0 2.77777 0C2.0794 0 1.59756 0.130028 1.33226 0.390083 1.06696 0.651187 0.934312 1.12568 0.934312 1.81357L0.934312 4.80211 0.270542 4.80211 0.270542 5.50521 0.934312 5.50521 0.934312 7.06869 1.84346 7.06869Z" transform="matrix(1.00166 0 0 -1 252.811 31.2067)"/><path d="M5.65778 2.9791 5.65778 2.53711 1.49899 2.53711C1.53884 1.91424 1.72654 1.43974 2.06209 1.11362 2.39764 0.787507 2.86534 0.624448 3.46514 0.624448 3.81223 0.624448 4.14883 0.666917 4.47495 0.751854 4.80106 0.836792 5.12508 0.964722 5.44701 1.13565L5.44701 0.279979C5.12194 0.142611 4.78901 0.03775 4.44821-0.0346042 4.1074-0.106958 3.7619-0.143135 3.41166-0.143135 2.53291-0.143135 1.83717 0.112201 1.3244 0.622875 0.811625 1.1346 0.55524 1.82668 0.55524 2.69913 0.55524 3.59989 0.798518 4.31451 1.28507 4.84301 1.77162 5.37256 2.42806 5.63733 3.25436 5.63733 3.99469 5.63733 4.58033 5.39877 5.01131 4.92166 5.44229 4.44558 5.65778 3.79807 5.65778 2.9791ZM4.75335 3.24493C4.74706 3.73882 4.60865 4.13311 4.3381 4.42776 4.06756 4.72347 3.70946 4.87132 3.2638 4.87132 2.75941 4.87132 2.35571 4.72871 2.05266 4.44349 1.7496 4.15827 1.57501 3.75664 1.52887 3.23864L4.75335 3.24493Z" transform="matrix(1.00166 0 0 -1 256.765 31.2067)"/><path d="M4.13834 4.66055C4.03662 4.71927 3.926 4.76227 3.80646 4.78953 3.68692 4.81784 3.55531 4.832 3.41166 4.832 2.89994 4.832 2.50723 4.66579 2.23354 4.33339 1.95985 4.00098 1.82301 3.52333 1.82301 2.90046L1.82301 0 0.913865 0 0.913865 5.50521 1.82301 5.50521 1.82301 4.64954C2.01385 4.98405 2.26134 5.23204 2.56543 5.39353 2.87057 5.55606 3.24126 5.63733 3.67748 5.63733 3.73934 5.63733 3.80803 5.63313 3.88353 5.62475 3.95903 5.6174 4.0424 5.60536 4.13363 5.58857L4.13834 4.66055Z" transform="matrix(1.00166 0 0 -1 262.969 31.2067)"/><path d="M4.45765 5.3432 4.45765 4.48753C4.20283 4.6186 3.93753 4.71666 3.66175 4.78167 3.38701 4.84773 3.10179 4.88076 2.80608 4.88076 2.35728 4.88076 2.02068 4.81207 1.79627 4.67471 1.57187 4.53735 1.45967 4.33076 1.45967 4.05498 1.45967 3.84526 1.53989 3.68062 1.70032 3.56108 1.86076 3.44154 2.18373 3.32777 2.66924 3.21976L2.9791 3.15055C3.62085 3.01319 4.077 2.81919 4.34754 2.56857 4.61808 2.31796 4.75335 1.96824 4.75335 1.51944 4.75335 1.00772 4.55097 0.602427 4.14621 0.303573 3.74145 0.00576737 3.18516-0.143135 2.47734-0.143135 2.18269-0.143135 1.87544-0.114299 1.55561-0.056625 1.23579 0.00104861 0.899185 0.0870347 0.545802 0.201333L0.545802 1.13565C0.88031 0.961576 1.20957 0.831024 1.53359 0.74399 1.85761 0.658003 2.17901 0.61501 2.49779 0.61501 2.92353 0.61501 3.2507 0.687888 3.47929 0.833646 3.70894 0.979403 3.82376 1.18493 3.82376 1.45023 3.82376 1.6956 3.74091 1.88384 3.57524 2.01491 3.4106 2.14598 3.04779 2.27235 2.48678 2.39398L2.1722 2.46791C1.61224 2.58536 1.20748 2.76624 0.957906 3.01056 0.709385 3.25488 0.585125 3.58992 0.585125 4.01566 0.585125 4.53366 0.768632 4.93319 1.13565 5.21422 1.50266 5.49629 2.02382 5.63733 2.69913 5.63733 3.03258 5.63733 3.34665 5.61269 3.6413 5.56341 3.93701 5.51516 4.20913 5.44177 4.45765 5.3432Z" transform="matrix(1.00166 0 0 -1 267.114 31.2067)"/><path d="M1.07587 1.2489 2.114 1.2489 2.114 0 1.07587 0 1.07587 1.2489Z" transform="matrix(1.00166 0 0 -1 272.368 31.2067)"/><path d="M330.828 268.78 543.6 268.78 543.6 36.24 330.828 36.24Z" fill="#FFFFFF" transform="scale(1.00166 1)"/><path d="M0 0 0 2.93611" stroke="#000000" stroke-width="0.671111" stroke-linejoin="round" fill="none" transform="matrix(1.00166 0 0 1 341.063 268.78)"/><path d="M2.66609 5.57075C2.24053 5.57075 1.92027 5.36102 1.7053 4.94158 1.49122 4.52301 1.38417 3.89297 1.38417 3.05146 1.38417 2.21345 1.49122 1.58471 1.7053 1.16527 1.92027 0.745825 2.24053 0.536102 2.66609 0.536102 3.09515 0.536102 3.41673 0.745825 3.63082 1.16527 3.84578 1.58471 3.95326 2.21345 3.95326 3.05146 3.95326 3.89297 3.84578 4.52301 3.63082 4.94158 3.41673 5.36102 3.09515 5.57075 2.66609 5.57075ZM2.66609 6.22613C3.35206 6.22613 3.87593 5.9548 4.2377 5.41214 4.59947 4.87037 4.78036 4.08346 4.78036 3.05146 4.78036 2.02208 4.59947 1.23605 4.2377 0.693394 3.87593 0.151612 3.35206-0.11928 2.66609-0.11928 1.981-0.11928 1.45757 0.151612 1.0958 0.693394 0.734028 1.23605 0.553142 2.02208 0.553142 3.05146 0.553142 4.08346 0.734028 4.87037 1.0958 5.41214 1.45757 5.9548 1.981 6.22613 2.66609 6.22613Z" transform="matrix(1.00166 0 0 -1 338.389 281.026)"/><path d="M0 0 0 2.93611" stroke="#000000" stroke-width="0.671111" stroke-linejoin="round" fill="none" transform="matrix(1.00166 0 0 1 379.812 268.78)"/><path d="M1.60962 0.696016 4.49723 0.696016 4.49723 0 0.614748 0 0.614748 0.696016C0.928457 1.02109 1.35621 1.45714 1.89799 2.00416 2.44064 2.55206 2.78144 2.90553 2.92038 3.06457 3.18516 3.36168 3.36997 3.61334 3.47484 3.81957 3.58057 4.02579 3.63344 4.22852 3.63344 4.42776 3.63344 4.75283 3.5194 5.0176 3.29133 5.22208 3.06326 5.42744 2.76614 5.53011 2.40001 5.53011 2.14048 5.53011 1.86653 5.48511 1.57816 5.3951 1.29067 5.30509 0.983073 5.16834 0.655382 4.98484L0.655382 5.8211C0.988316 5.9548 1.2994 6.05573 1.58865 6.12389 1.87876 6.19205 2.14398 6.22613 2.38428 6.22613 3.01781 6.22613 3.5229 6.06753 3.89952 5.75032 4.27614 5.43399 4.46446 5.01105 4.46446 4.4815 4.46446 4.22984 4.41727 3.99128 4.3229 3.76582 4.2294 3.54125 4.05813 3.27603 3.80908 2.97019 3.74092 2.89067 3.52377 2.66173 3.15763 2.28335 2.79236 1.90497 2.27636 1.37587 1.60962 0.696016Z" transform="matrix(1.00166 0 0 -1 377.139 281.026)"/><path d="M0 0 0 2.93611" stroke="#000000" stroke-width="0.671111" stroke-linejoin="round" fill="none" transform="matrix(1.00166 0 0 1 418.563 268.78)"/><path d="M3.17074 5.3951 1.08138 2.12999 3.17074 2.12999 3.17074 5.3951ZM2.95315 6.11602 3.9939 6.11602 3.9939 2.12999 4.86687 2.12999 4.86687 1.44184 3.9939 1.44184 3.9939 0 3.17074 0 3.17074 1.44184 0.410269 1.44184 0.410269 2.2401 2.95315 6.11602Z" transform="matrix(1.00166 0 0 -1 415.89 281.026)"/><path d="M0 0 0 2.93611" stroke="#000000" stroke-width="0.671111" stroke-linejoin="round" fill="none" transform="matrix(1.00166 0 0 1 457.313 268.78)"/><path d="M2.76964 3.38701C2.39827 3.38701 2.10378 3.25987 1.88619 3.00558 1.66948 2.75217 1.56112 2.40437 1.56112 1.96221 1.56112 1.52268 1.66948 1.17488 1.88619 0.918845 2.10378 0.663683 2.39827 0.536102 2.76964 0.536102 3.14102 0.536102 3.43508 0.663683 3.65179 0.918845 3.8685 1.17488 3.97686 1.52268 3.97686 1.96221 3.97686 2.40437 3.8685 2.75217 3.65179 3.00558 3.43508 3.25987 3.14102 3.38701 2.76964 3.38701ZM4.41203 5.98102 4.41203 5.22733C4.20405 5.3252 3.99433 5.39991 3.78286 5.45147 3.5714 5.5039 3.36168 5.53011 3.1537 5.53011 2.60754 5.53011 2.19029 5.34573 1.90192 4.97697 1.61443 4.60821 1.45014 4.05114 1.40907 3.30575 1.56986 3.54343 1.77172 3.72562 2.01464 3.85233 2.25845 3.97905 2.52627 4.0424 2.81814 4.0424 3.43246 4.0424 3.91787 3.85583 4.2744 3.4827 4.63093 3.11044 4.80919 2.60361 4.80919 1.96221 4.80919 1.33393 4.6235 0.829714 4.25212 0.449592 3.88074 0.0703444 3.38658-0.11928 2.76964-0.11928 2.06183-0.11928 1.52092 0.151612 1.14692 0.693394 0.772914 1.23605 0.585911 2.02208 0.585911 3.05146 0.585911 4.01792 0.815295 4.78865 1.27406 5.36365 1.73283 5.93864 2.34846 6.22613 3.12093 6.22613 3.32891 6.22613 3.53863 6.20559 3.7501 6.16452 3.96156 6.12346 4.18221 6.06228 4.41203 5.98102Z" transform="matrix(1.00166 0 0 -1 454.639 281.026)"/><path d="M0 0 0 2.93611" stroke="#000000" stroke-width="0.671111" stroke-linejoin="round" fill="none" transform="matrix(1.00166 0 0 1 496.062 268.78)"/><path d="M2.66609 2.90465C2.27286 2.90465 1.96352 2.79936 1.73807 2.58876 1.5135 2.37816 1.40121 2.08893 1.40121 1.72103 1.40121 1.35228 1.5135 1.06259 1.73807 0.851997 1.96352 0.6414 2.27286 0.536102 2.66609 0.536102 3.05932 0.536102 3.3691 0.641838 3.59543 0.853307 3.82262 1.06565 3.93622 1.3549 3.93622 1.72103 3.93622 2.08893 3.8235 2.37816 3.59805 2.58876 3.37347 2.79936 3.06282 2.90465 2.66609 2.90465ZM1.839 3.25594C1.48422 3.34333 1.20765 3.50848 1.00929 3.75141 0.811799 3.99521 0.713056 4.29187 0.713056 4.64142 0.713056 5.1299 0.886951 5.51613 1.23474 5.80013 1.5834 6.08413 2.06052 6.22613 2.66609 6.22613 3.27517 6.22613 3.75315 6.08413 4.10007 5.80013 4.44699 5.51613 4.62044 5.1299 4.62044 4.64142 4.62044 4.29187 4.52126 3.99521 4.3229 3.75141 4.12541 3.50848 3.85059 3.34333 3.49843 3.25594 3.8969 3.16331 4.20712 2.98156 4.42907 2.71066 4.6519 2.44064 4.76332 2.11076 4.76332 1.72103 4.76332 1.12769 4.58243 0.672422 4.22066 0.355217 3.85889 0.038886 3.3407-0.11928 2.66609-0.11928 1.99236-0.11928 1.47418 0.038886 1.11153 0.355217 0.749757 0.672422 0.568871 1.12769 0.568871 1.72103 0.568871 2.11076 0.680723 2.44064 0.904427 2.71066 1.129 2.98156 1.44053 3.16331 1.839 3.25594ZM1.53622 4.56277C1.53622 4.24644 1.63496 3.99957 1.83245 3.82219 2.03081 3.6448 2.30869 3.5561 2.66609 3.5561 3.02174 3.5561 3.29963 3.6448 3.49974 3.82219 3.70072 3.99957 3.80122 4.24644 3.80122 4.56277 3.80122 4.87997 3.70072 5.12728 3.49974 5.30466 3.29963 5.48205 3.02174 5.57075 2.66609 5.57075 2.30869 5.57075 2.03081 5.48205 1.83245 5.30466 1.63496 5.12728 1.53622 4.87997 1.53622 4.56277Z" transform="matrix(1.00166 0 0 -1 493.389 281.026)"/><path d="M0 0 0 2.93611" stroke="#000000" stroke-width="0.671111" stroke-linejoin="round" fill="none" transform="matrix(1.00166 0 0 1 534.812 268.78)"/><path d="M1.04075 0.696016 2.39214 0.696016 2.39214 5.36234 0.921467 5.06741 0.921467 5.8211 2.38428 6.11602 3.21137 6.11602 3.21137 0.696016 4.56277 0.696016 4.56277 0 1.04075 0 1.04075 0.696016Z" transform="matrix(1.00166 0 0 -1 529.467 281.026)"/><path d="M2.66609 5.57075C2.24053 5.57075 1.92027 5.36102 1.7053 4.94158 1.49122 4.52301 1.38417 3.89297 1.38417 3.05146 1.38417 2.21345 1.49122 1.58471 1.7053 1.16527 1.92027 0.745825 2.24053 0.536102 2.66609 0.536102 3.09515 0.536102 3.41673 0.745825 3.63082 1.16527 3.84578 1.58471 3.95326 2.21345 3.95326 3.05146 3.95326 3.89297 3.84578 4.52301 3.63082 4.94158 3.41673 5.36102 3.09515 5.57075 2.66609 5.57075ZM2.66609 6.22613C3.35206 6.22613 3.87593 5.9548 4.2377 5.41214 4.59947 4.87037 4.78036 4.08346 4.78036 3.05146 4.78036 2.02208 4.59947 1.23605 4.2377 0.693394 3.87593 0.151612 3.35206-0.11928 2.66609-0.11928 1.981-0.11928 1.45757 0.151612 1.0958 0.693394 0.734028 1.23605 0.553142 2.02208 0.553142 3.05146 0.553142 4.08346 0.734028 4.87037 1.0958 5.41214 1.45757 5.9548 1.981 6.22613 2.66609 6.22613Z" transform="matrix(1.00166 0 0 -1 534.813 281.026)"/><path d="M4.60471 4.58767 2.94529 2.35544 4.68991 0 3.80122 0 2.46555 1.8023 1.13119 0 0.241181 0 2.02382 2.40001 0.393229 4.58767 1.28193 4.58767 2.49832 2.95315 3.7147 4.58767 4.60471 4.58767Z" transform="matrix(1.00166 0 0 -1 435.45 292.501)"/><path d="M0 0-2.93611 0" stroke="#000000" stroke-width="0.671111" stroke-linejoin="round" fill="none" transform="matrix(1.00166 0 0 1 331.375 262.848)"/><path d="M1.04075 0.696016 2.39214 0.696016 2.39214 5.36234 0.921467 5.06741 0.921467 5.8211 2.38428 6.11602 3.21137 6.11602 3.21137 0.696016 4.56277 0.696016 4.56277 0 1.04075 0 1.04075 0.696016Z" transform="matrix(1.00166 0 0 -1 320.147 266.035)"/><path d="M0 0-2.93611 0" stroke="#000000" stroke-width="0.671111" stroke-linejoin="round" fill="none" transform="matrix(1.00166 0 0 1 331.375 220.331)"/><path d="M1.60962 0.696016 4.49723 0.696016 4.49723 0 0.614748 0 0.614748 0.696016C0.928457 1.02109 1.35621 1.45714 1.89799 2.00416 2.44064 2.55206 2.78144 2.90553 2.92038 3.06457 3.18516 3.36168 3.36997 3.61334 3.47484 3.81957 3.58057 4.02579 3.63344 4.22852 3.63344 4.42776 3.63344 4.75283 3.5194 5.0176 3.29133 5.22208 3.06326 5.42744 2.76614 5.53011 2.40001 5.53011 2.14048 5.53011 1.86653 5.48511 1.57816 5.3951 1.29067 5.30509 0.983073 5.16834 0.655382 4.98484L0.655382 5.8211C0.988316 5.9548 1.2994 6.05573 1.58865 6.12389 1.87876 6.19205 2.14398 6.22613 2.38428 6.22613 3.01781 6.22613 3.5229 6.06753 3.89952 5.75032 4.27614 5.43399 4.46446 5.01105 4.46446 4.4815 4.46446 4.22984 4.41727 3.99128 4.3229 3.76582 4.2294 3.54125 4.05813 3.27603 3.80908 2.97019 3.74092 2.89067 3.52377 2.66173 3.15763 2.28335 2.79236 1.90497 2.27636 1.37587 1.60962 0.696016Z" transform="matrix(1.00166 0 0 -1 320.147 223.518)"/><path d="M0 0-2.93611 0" stroke="#000000" stroke-width="0.671111" stroke-linejoin="round" fill="none" transform="matrix(1.00166 0 0 1 331.375 177.813)"/><path d="M3.40405 3.29788C3.7999 3.21311 4.10881 3.03661 4.33076 2.76833 4.55359 2.50094 4.66501 2.17062 4.66501 1.7774 4.66501 1.17444 4.45748 0.707376 4.0424 0.376189 3.62732 0.0458767 3.03747-0.11928 2.27286-0.11928 2.01683-0.11928 1.75292-0.0939381 1.48116-0.0432552 1.2094 0.00742767 0.928895 0.083452 0.639653 0.184818L0.639653 0.983073C0.8686 0.849375 1.11939 0.748446 1.39203 0.680286 1.66555 0.612127 1.95129 0.578047 2.24927 0.578047 2.76746 0.578047 3.16244 0.680286 3.4342 0.884766 3.70596 1.08924 3.84185 1.38679 3.84185 1.7774 3.84185 2.13829 3.71558 2.4201 3.46304 2.62284 3.21049 2.82644 2.85921 2.92825 2.40918 2.92825L1.69613 2.92825 1.69613 3.60853 2.44195 3.60853C2.84829 3.60853 3.15937 3.6898 3.37522 3.85233 3.59106 4.01487 3.69898 4.24906 3.69898 4.5549 3.69898 4.86861 3.58756 5.10936 3.36473 5.27714 3.14278 5.44579 2.82426 5.53011 2.40918 5.53011 2.18199 5.53011 1.93862 5.50521 1.67909 5.4554 1.41956 5.40647 1.13425 5.33044 0.82316 5.22733L0.82316 5.96398C1.13774 6.05136 1.43223 6.1169 1.70661 6.16059 1.981 6.20428 2.23966 6.22613 2.48259 6.22613 3.11088 6.22613 3.60765 6.08326 3.97293 5.79751 4.33906 5.51264 4.52214 5.12728 4.52214 4.64142 4.52214 4.30236 4.42514 4.01618 4.23115 3.78286 4.03715 3.54955 3.76146 3.38789 3.40405 3.29788Z" transform="matrix(1.00166 0 0 -1 320.147 181)"/><path d="M0 0-2.93611 0" stroke="#000000" stroke-width="0.671111" stroke-linejoin="round" fill="none" transform="matrix(1.00166 0 0 1 331.375 135.296)"/><path d="M3.17074 5.3951 1.08138 2.12999 3.17074 2.12999 3.17074 5.3951ZM2.95315 6.11602 3.9939 6.11602 3.9939 2.12999 4.86687 2.12999 4.86687 1.44184 3.9939 1.44184 3.9939 0 3.17074 0 3.17074 1.44184 0.410269 1.44184 0.410269 2.2401 2.95315 6.11602Z" transform="matrix(1.00166 0 0 -1 320.147 138.483)"/><path d="M0 0-2.93611 0" stroke="#000000" stroke-width="0.671111" stroke-linejoin="round" fill="none" transform="matrix(1.00166 0 0 1 331.375 92.7786)"/><path d="M0.905738 6.11602 4.15381 6.11602 4.15381 5.4187 1.66336 5.4187 1.66336 3.92049C1.78307 3.96156 1.9028 3.99215 2.02251 4.01225 2.1431 4.03234 2.26369 4.0424 2.38428 4.0424 3.06675 4.0424 3.60722 3.85539 4.00569 3.48139 4.40504 3.10739 4.60471 2.60099 4.60471 1.96221 4.60471 1.30421 4.3998 0.792576 3.98997 0.427309 3.58013 0.0629167 3.00253-0.11928 2.25714-0.11928 2.00023-0.11928 1.73851-0.0974334 1.47199-0.0537413 1.20634-0.0100492 0.931517 0.055489 0.647517 0.142873L0.647517 0.975208C0.893067 0.84151 1.14692 0.741892 1.40907 0.676354 1.67122 0.610816 1.94823 0.578047 2.2401 0.578047 2.71285 0.578047 3.08685 0.702133 3.36211 0.950304 3.63825 1.19847 3.77631 1.53578 3.77631 1.96221 3.77631 2.38778 3.63825 2.72465 3.36211 2.97281 3.08685 3.22186 2.71285 3.34638 2.2401 3.34638 2.01901 3.34638 1.79837 3.32191 1.57816 3.27298 1.35883 3.22405 1.13469 3.14758 0.905738 3.04359L0.905738 6.11602Z" transform="matrix(1.00166 0 0 -1 320.147 95.9655)"/><path d="M0 0-2.93611 0" stroke="#000000" stroke-width="0.671111" stroke-linejoin="round" fill="none" transform="matrix(1.00166 0 0 1 331.375 50.2608)"/><path d="M2.76964 3.38701C2.39827 3.38701 2.10378 3.25987 1.88619 3.00558 1.66948 2.75217 1.56112 2.40437 1.56112 1.96221 1.56112 1.52268 1.66948 1.17488 1.88619 0.918845 2.10378 0.663683 2.39827 0.536102 2.76964 0.536102 3.14102 0.536102 3.43508 0.663683 3.65179 0.918845 3.8685 1.17488 3.97686 1.52268 3.97686 1.96221 3.97686 2.40437 3.8685 2.75217 3.65179 3.00558 3.43508 3.25987 3.14102 3.38701 2.76964 3.38701ZM4.41203 5.98102 4.41203 5.22733C4.20405 5.3252 3.99433 5.39991 3.78286 5.45147 3.5714 5.5039 3.36168 5.53011 3.1537 5.53011 2.60754 5.53011 2.19029 5.34573 1.90192 4.97697 1.61443 4.60821 1.45014 4.05114 1.40907 3.30575 1.56986 3.54343 1.77172 3.72562 2.01464 3.85233 2.25845 3.97905 2.52627 4.0424 2.81814 4.0424 3.43246 4.0424 3.91787 3.85583 4.2744 3.4827 4.63093 3.11044 4.80919 2.60361 4.80919 1.96221 4.80919 1.33393 4.6235 0.829714 4.25212 0.449592 3.88074 0.0703444 3.38658-0.11928 2.76964-0.11928 2.06183-0.11928 1.52092 0.151612 1.14692 0.693394 0.772914 1.23605 0.585911 2.02208 0.585911 3.05146 0.585911 4.01792 0.815295 4.78865 1.27406 5.36365 1.73283 5.93864 2.34846 6.22613 3.12093 6.22613 3.32891 6.22613 3.53863 6.20559 3.7501 6.16452 3.96156 6.12346 4.18221 6.06228 4.41203 5.98102Z" transform="matrix(1.00166 0 0 -1 320.147 53.4479)"/><g><path d="M0 2.51667C0.667428 2.51667 1.30761 2.25149 1.77955 1.77955 2.25149 1.30761 2.51667 0.667428 2.51667 0 2.51667-0.667428 2.25149-1.30761 1.77955-1.77955 1.30761-2.25149 0.667428-2.51667 0-2.51667-0.667428-2.51667-1.30761-2.25149-1.77955-1.77955-2.25149-1.30761-2.51667-0.667428-2.51667 0-2.51667 0.667428-2.25149 1.30761-1.77955 1.77955-1.30761 2.25149-0.667428 2.51667 0 2.51667Z" stroke="#1F77B4" stroke-width="0.838889" stroke-linejoin="round" fill="#1F77B4" transform="matrix(1.00166 0 0 1 419.346 188.459)"/><path d="M0 2.51667C0.667428 2.51667 1.30761 2.25149 1.77955 1.77955 2.25149 1.30761 2.51667 0.667428 2.51667 0 2.51667-0.667428 2.25149-1.30761 1.77955-1.77955 1.30761-2.25149 0.667428-2.51667 0-2.51667-0.667428-2.51667-1.30761-2.25149-1.77955-1.77955-2.25149-1.30761-2.51667-0.667428-2.51667 0-2.51667 0.667428-2.25149 1.30761-1.77955 1.77955-1.30761 2.25149-0.667428 2.51667 0 2.51667Z" stroke="#1F77B4" stroke-width="0.838889" stroke-linejoin="round" fill="#1F77B4" transform="matrix(1.00166 0 0 1 421.303 171.984)"/><path d="M0 2.51667C0.667428 2.51667 1.30761 2.25149 1.77955 1.77955 2.25149 1.30761 2.51667 0.667428 2.51667 0 2.51667-0.667428 2.25149-1.30761 1.77955-1.77955 1.30761-2.25149 0.667428-2.51667 0-2.51667-0.667428-2.51667-1.30761-2.25149-1.77955-1.77955-2.25149-1.30761-2.51667-0.667428-2.51667 0-2.51667 0.667428-2.25149 1.30761-1.77955 1.77955-1.30761 2.25149-0.667428 2.51667 0 2.51667Z" stroke="#1F77B4" stroke-width="0.838889" stroke-linejoin="round" fill="#1F77B4" transform="matrix(1.00166 0 0 1 423.26 151.476)"/><path d="M0 2.51667C0.667428 2.51667 1.30761 2.25149 1.77955 1.77955 2.25149 1.30761 2.51667 0.667428 2.51667 0 2.51667-0.667428 2.25149-1.30761 1.77955-1.77955 1.30761-2.25149 0.667428-2.51667 0-2.51667-0.667428-2.51667-1.30761-2.25149-1.77955-1.77955-2.25149-1.30761-2.51667-0.667428-2.51667 0-2.51667 0.667428-2.25149 1.30761-1.77955 1.77955-1.30761 2.25149-0.667428 2.51667 0 2.51667Z" stroke="#1F77B4" stroke-width="0.838889" stroke-linejoin="round" fill="#1F77B4" transform="matrix(1.00166 0 0 1 425.217 161.951)"/><path d="M0 2.51667C0.667428 2.51667 1.30761 2.25149 1.77955 1.77955 2.25149 1.30761 2.51667 0.667428 2.51667 0 2.51667-0.667428 2.25149-1.30761 1.77955-1.77955 1.30761-2.25149 0.667428-2.51667 0-2.51667-0.667428-2.51667-1.30761-2.25149-1.77955-1.77955-2.25149-1.30761-2.51667-0.667428-2.51667 0-2.51667 0.667428-2.25149 1.30761-1.77955 1.77955-1.30761 2.25149-0.667428 2.51667 0 2.51667Z" stroke="#1F77B4" stroke-width="0.838889" stroke-linejoin="round" fill="#1F77B4" transform="matrix(1.00166 0 0 1 427.174 184.99)"/><path d="M0 2.51667C0.667428 2.51667 1.30761 2.25149 1.77955 1.77955 2.25149 1.30761 2.51667 0.667428 2.51667 0 2.51667-0.667428 2.25149-1.30761 1.77955-1.77955 1.30761-2.25149 0.667428-2.51667 0-2.51667-0.667428-2.51667-1.30761-2.25149-1.77955-1.77955-2.25149-1.30761-2.51667-0.667428-2.51667 0-2.51667 0.667428-2.25149 1.30761-1.77955 1.77955-1.30761 2.25149-0.667428 2.51667 0 2.51667Z" stroke="#1F77B4" stroke-width="0.838889" stroke-linejoin="round" fill="#1F77B4" transform="matrix(1.00166 0 0 1 429.131 149.388)"/><path d="M0 2.51667C0.667428 2.51667 1.30761 2.25149 1.77955 1.77955 2.25149 1.30761 2.51667 0.667428 2.51667 0 2.51667-0.667428 2.25149-1.30761 1.77955-1.77955 1.30761-2.25149 0.667428-2.51667 0-2.51667-0.667428-2.51667-1.30761-2.25149-1.77955-1.77955-2.25149-1.30761-2.51667-0.667428-2.51667 0-2.51667 0.667428-2.25149 1.30761-1.77955 1.77955-1.30761 2.25149-0.667428 2.51667 0 2.51667Z" stroke="#1F77B4" stroke-width="0.838889" stroke-linejoin="round" fill="#1F77B4" transform="matrix(1.00166 0 0 1 431.088 153.411)"/><path d="M0 2.51667C0.667428 2.51667 1.30761 2.25149 1.77955 1.77955 2.25149 1.30761 2.51667 0.667428 2.51667 0 2.51667-0.667428 2.25149-1.30761 1.77955-1.77955 1.30761-2.25149 0.667428-2.51667 0-2.51667-0.667428-2.51667-1.30761-2.25149-1.77955-1.77955-2.25149-1.30761-2.51667-0.667428-2.51667 0-2.51667 0.667428-2.25149 1.30761-1.77955 1.77955-1.30761 2.25149-0.667428 2.51667 0 2.51667Z" stroke="#1F77B4" stroke-width="0.838889" stroke-linejoin="round" fill="#1F77B4" transform="matrix(1.00166 0 0 1 433.045 163.241)"/><path d="M0 2.51667C0.667428 2.51667 1.30761 2.25149 1.77955 1.77955 2.25149 1.30761 2.51667 0.667428 2.51667 0 2.51667-0.667428 2.25149-1.30761 1.77955-1.77955 1.30761-2.25149 0.667428-2.51667 0-2.51667-0.667428-2.51667-1.30761-2.25149-1.77955-1.77955-2.25149-1.30761-2.51667-0.667428-2.51667 0-2.51667 0.667428-2.25149 1.30761-1.77955 1.77955-1.30761 2.25149-0.667428 2.51667 0 2.51667Z" stroke="#1F77B4" stroke-width="0.838889" stroke-linejoin="round" fill="#1F77B4" transform="matrix(1.00166 0 0 1 435.002 154.486)"/><path d="M0 2.51667C0.667428 2.51667 1.30761 2.25149 1.77955 1.77955 2.25149 1.30761 2.51667 0.667428 2.51667 0 2.51667-0.667428 2.25149-1.30761 1.77955-1.77955 1.30761-2.25149 0.667428-2.51667 0-2.51667-0.667428-2.51667-1.30761-2.25149-1.77955-1.77955-2.25149-1.30761-2.51667-0.667428-2.51667 0-2.51667 0.667428-2.25149 1.30761-1.77955 1.77955-1.30761 2.25149-0.667428 2.51667 0 2.51667Z" stroke="#1F77B4" stroke-width="0.838889" stroke-linejoin="round" fill="#1F77B4" transform="matrix(1.00166 0 0 1 436.959 152.441)"/><path d="M0 2.51667C0.667428 2.51667 1.30761 2.25149 1.77955 1.77955 2.25149 1.30761 2.51667 0.667428 2.51667 0 2.51667-0.667428 2.25149-1.30761 1.77955-1.77955 1.30761-2.25149 0.667428-2.51667 0-2.51667-0.667428-2.51667-1.30761-2.25149-1.77955-1.77955-2.25149-1.30761-2.51667-0.667428-2.51667 0-2.51667 0.667428-2.25149 1.30761-1.77955 1.77955-1.30761 2.25149-0.667428 2.51667 0 2.51667Z" stroke="#1F77B4" stroke-width="0.838889" stroke-linejoin="round" fill="#1F77B4" transform="matrix(1.00166 0 0 1 478.058 99.9612)"/><path d="M0 2.51667C0.667428 2.51667 1.30761 2.25149 1.77955 1.77955 2.25149 1.30761 2.51667 0.667428 2.51667 0 2.51667-0.667428 2.25149-1.30761 1.77955-1.77955 1.30761-2.25149 0.667428-2.51667 0-2.51667-0.667428-2.51667-1.30761-2.25149-1.77955-1.77955-2.25149-1.30761-2.51667-0.667428-2.51667 0-2.51667 0.667428-2.25149 1.30761-1.77955 1.77955-1.30761 2.25149-0.667428 2.51667 0 2.51667Z" stroke="#1F77B4" stroke-width="0.838889" stroke-linejoin="round" fill="#1F77B4" transform="matrix(1.00166 0 0 1 480.015 107.721)"/><path d="M0 2.51667C0.667428 2.51667 1.30761 2.25149 1.77955 1.77955 2.25149 1.30761 2.51667 0.667428 2.51667 0 2.51667-0.667428 2.25149-1.30761 1.77955-1.77955 1.30761-2.25149 0.667428-2.51667 0-2.51667-0.667428-2.51667-1.30761-2.25149-1.77955-1.77955-2.25149-1.30761-2.51667-0.667428-2.51667 0-2.51667 0.667428-2.25149 1.30761-1.77955 1.77955-1.30761 2.25149-0.667428 2.51667 0 2.51667Z" stroke="#1F77B4" stroke-width="0.838889" stroke-linejoin="round" fill="#1F77B4" transform="matrix(1.00166 0 0 1 481.972 107.106)"/><path d="M0 2.51667C0.667428 2.51667 1.30761 2.25149 1.77955 1.77955 2.25149 1.30761 2.51667 0.667428 2.51667 0 2.51667-0.667428 2.25149-1.30761 1.77955-1.77955 1.30761-2.25149 0.667428-2.51667 0-2.51667-0.667428-2.51667-1.30761-2.25149-1.77955-1.77955-2.25149-1.30761-2.51667-0.667428-2.51667 0-2.51667 0.667428-2.25149 1.30761-1.77955 1.77955-1.30761 2.25149-0.667428 2.51667 0 2.51667Z" stroke="#1F77B4" stroke-width="0.838889" stroke-linejoin="round" fill="#1F77B4" transform="matrix(1.00166 0 0 1 483.929 112.762)"/><path d="M0 2.51667C0.667428 2.51667 1.30761 2.25149 1.77955 1.77955 2.25149 1.30761 2.51667 0.667428 2.51667 0 2.51667-0.667428 2.25149-1.30761 1.77955-1.77955 1.30761-2.25149 0.667428-2.51667 0-2.51667-0.667428-2.51667-1.30761-2.25149-1.77955-1.77955-2.25149-1.30761-2.51667-0.667428-2.51667 0-2.51667 0.667428-2.25149 1.30761-1.77955 1.77955-1.30761 2.25149-0.667428 2.51667 0 2.51667Z" stroke="#1F77B4" stroke-width="0.838889" stroke-linejoin="round" fill="#1F77B4" transform="matrix(1.00166 0 0 1 485.886 95.0486)"/><path d="M0 2.51667C0.667428 2.51667 1.30761 2.25149 1.77955 1.77955 2.25149 1.30761 2.51667 0.667428 2.51667 0 2.51667-0.667428 2.25149-1.30761 1.77955-1.77955 1.30761-2.25149 0.667428-2.51667 0-2.51667-0.667428-2.51667-1.30761-2.25149-1.77955-1.77955-2.25149-1.30761-2.51667-0.667428-2.51667 0-2.51667 0.667428-2.25149 1.30761-1.77955 1.77955-1.30761 2.25149-0.667428 2.51667 0 2.51667Z" stroke="#1F77B4" stroke-width="0.838889" stroke-linejoin="round" fill="#1F77B4" transform="matrix(1.00166 0 0 1 487.843 83.2424)"/><path d="M0 2.51667C0.667428 2.51667 1.30761 2.25149 1.77955 1.77955 2.25149 1.30761 2.51667 0.667428 2.51667 0 2.51667-0.667428 2.25149-1.30761 1.77955-1.77955 1.30761-2.25149 0.667428-2.51667 0-2.51667-0.667428-2.51667-1.30761-2.25149-1.77955-1.77955-2.25149-1.30761-2.51667-0.667428-2.51667 0-2.51667 0.667428-2.25149 1.30761-1.77955 1.77955-1.30761 2.25149-0.667428 2.51667 0 2.51667Z" stroke="#1F77B4" stroke-width="0.838889" stroke-linejoin="round" fill="#1F77B4" transform="matrix(1.00166 0 0 1 489.8 84.4929)"/><path d="M0 2.51667C0.667428 2.51667 1.30761 2.25149 1.77955 1.77955 2.25149 1.30761 2.51667 0.667428 2.51667 0 2.51667-0.667428 2.25149-1.30761 1.77955-1.77955 1.30761-2.25149 0.667428-2.51667 0-2.51667-0.667428-2.51667-1.30761-2.25149-1.77955-1.77955-2.25149-1.30761-2.51667-0.667428-2.51667 0-2.51667 0.667428-2.25149 1.30761-1.77955 1.77955-1.30761 2.25149-0.667428 2.51667 0 2.51667Z" stroke="#1F77B4" stroke-width="0.838889" stroke-linejoin="round" fill="#1F77B4" transform="matrix(1.00166 0 0 1 491.757 123.505)"/><path d="M0 2.51667C0.667428 2.51667 1.30761 2.25149 1.77955 1.77955 2.25149 1.30761 2.51667 0.667428 2.51667 0 2.51667-0.667428 2.25149-1.30761 1.77955-1.77955 1.30761-2.25149 0.667428-2.51667 0-2.51667-0.667428-2.51667-1.30761-2.25149-1.77955-1.77955-2.25149-1.30761-2.51667-0.667428-2.51667 0-2.51667 0.667428-2.25149 1.30761-1.77955 1.77955-1.30761 2.25149-0.667428 2.51667 0 2.51667Z" stroke="#1F77B4" stroke-width="0.838889" stroke-linejoin="round" fill="#1F77B4" transform="matrix(1.00166 0 0 1 493.714 93.4858)"/><path d="M0 2.51667C0.667428 2.51667 1.30761 2.25149 1.77955 1.77955 2.25149 1.30761 2.51667 0.667428 2.51667 0 2.51667-0.667428 2.25149-1.30761 1.77955-1.77955 1.30761-2.25149 0.667428-2.51667 0-2.51667-0.667428-2.51667-1.30761-2.25149-1.77955-1.77955-2.25149-1.30761-2.51667-0.667428-2.51667 0-2.51667 0.667428-2.25149 1.30761-1.77955 1.77955-1.30761 2.25149-0.667428 2.51667 0 2.51667Z" stroke="#1F77B4" stroke-width="0.838889" stroke-linejoin="round" fill="#1F77B4" transform="matrix(1.00166 0 0 1 495.671 83.9778)"/></g><g><path d="M340.499 258.21 342.453 256.075 344.407 253.939 346.36 251.804 348.314 249.668 350.268 247.533 352.222 245.398 354.176 243.263 356.129 241.127 358.083 238.992 360.037 236.856 361.991 234.721 363.944 232.586 365.899 230.45 367.853 228.315 369.807 226.18 371.76 224.045 373.714 221.909 375.668 219.774 377.622 217.638 379.575 215.503 381.529 213.367 383.483 211.232 385.437 209.097 387.391 206.961 389.344 204.826 391.299 202.691 393.253 200.556 395.206 198.42 397.16 196.285 399.114 194.149 401.068 192.014 403.022 189.878 404.975 187.743 406.929 185.608 408.883 183.473 410.837 181.338 412.79 179.202 414.744 177.067 416.699 174.931 418.653 172.796 420.606 170.66 422.56 168.525 424.514 166.389 426.468 164.254 428.421 162.119 430.375 159.984 432.329 157.849 434.283 155.713 436.237 153.578 438.19 151.442 440.144 149.307 442.099 147.171 444.052 145.036 446.006 142.901 447.96 140.766 449.914 138.631 451.868 136.495 453.821 134.36 455.775 132.224 457.729 130.089 459.683 127.953 461.636 125.818 463.59 123.682 465.544 121.547 467.498 119.412 469.452 117.277 471.406 115.142 473.36 113.006 475.314 110.871 477.267 108.735 479.221 106.6 481.175 104.464 483.129 102.329 485.082 100.194 487.036 98.0586 488.99 95.9228 490.944 93.7878 492.898 91.6528 494.852 89.517 496.806 87.382 498.76 85.2462 500.714 83.111 502.667 80.9757 504.621 78.8403 506.575 76.705 508.529 74.5696 510.482 72.4343 512.436 70.2989 514.39 68.1635 516.344 66.0282 518.297 63.8928 520.252 61.7575 522.206 59.6221 524.16 57.4868 526.113 55.3514 528.067 53.2161 530.021 51.0807 531.975 48.9454 533.928 46.81" stroke="#FF0000" stroke-width="1.25833" stroke-linecap="square" stroke-linejoin="round" fill="none" transform="scale(1.00166 1)"/></g><path d="M330.828 268.78 330.828 36.24" stroke="#000000" stroke-width="0.671111" stroke-linecap="square" fill="none" transform="scale(1.00166 1)"/><path d="M543.6 268.78 543.6 36.24" stroke="#000000" stroke-width="0.671111" stroke-linecap="square" fill="none" transform="scale(1.00166 1)"/><path d="M330.828 268.78 543.6 268.78" stroke="#000000" stroke-width="0.671111" stroke-linecap="square" fill="none" transform="scale(1.00166 1)"/><path d="M330.828 36.24 543.6 36.24" stroke="#000000" stroke-width="0.671111" stroke-linecap="square" fill="none" transform="scale(1.00166 1)"/><path d="M0.987792 7.33923 1.9803 7.33923 1.9803 0.835219 5.55397 0.835219 5.55397 0 0.987792 0 0.987792 7.33923Z" transform="matrix(1.00166 0 0 -1 341.983 31.2067)"/><path d="M3.08134 4.87132C2.59689 4.87132 2.21361 4.68205 1.93154 4.3035 1.64947 3.92495 1.50843 3.40642 1.50843 2.74789 1.50843 2.08935 1.64842 1.57082 1.9284 1.19227 2.20943 0.813722 2.59374 0.624448 3.08134 0.624448 3.56371 0.624448 3.94539 0.814247 4.22643 1.19384 4.5085 1.57449 4.64954 2.0925 4.64954 2.74789 4.64954 3.40013 4.5085 3.91708 4.22643 4.29878 3.94539 4.68048 3.56371 4.87132 3.08134 4.87132ZM3.08134 5.63733C3.8678 5.63733 4.48544 5.38147 4.93424 4.86975 5.38409 4.35907 5.60902 3.65179 5.60902 2.74789 5.60902 1.84712 5.38409 1.13984 4.93424 0.626021 4.48544 0.11325 3.8678-0.143135 3.08134-0.143135 2.29174-0.143135 1.67306 0.11325 1.2253 0.626021 0.778594 1.13984 0.55524 1.84712 0.55524 2.74789 0.55524 3.65179 0.778594 4.35907 1.2253 4.86975 1.67306 5.38147 2.29174 5.63733 3.08134 5.63733Z" transform="matrix(1.00166 0 0 -1 347.424 31.2067)"/><path d="M1.84346 7.06869 1.84346 5.50521 3.70579 5.50521 3.70579 4.80211 1.84346 4.80211 1.84346 1.81357C1.84346 1.36477 1.9048 1.0764 2.02749 0.948469 2.15018 0.820539 2.40027 0.756573 2.77777 0.756573L3.70579 0.756573 3.70579 0 2.77777 0C2.0794 0 1.59756 0.130028 1.33226 0.390083 1.06696 0.651187 0.934312 1.12568 0.934312 1.81357L0.934312 4.80211 0.270542 4.80211 0.270542 5.50521 0.934312 5.50521 0.934312 7.06869 1.84346 7.06869Z" transform="matrix(1.00166 0 0 -1 353.593 31.2067)"/><path d="M4.45765 5.3432 4.45765 4.48753C4.20283 4.6186 3.93753 4.71666 3.66175 4.78167 3.38701 4.84773 3.10179 4.88076 2.80608 4.88076 2.35728 4.88076 2.02068 4.81207 1.79627 4.67471 1.57187 4.53735 1.45967 4.33076 1.45967 4.05498 1.45967 3.84526 1.53989 3.68062 1.70032 3.56108 1.86076 3.44154 2.18373 3.32777 2.66924 3.21976L2.9791 3.15055C3.62085 3.01319 4.077 2.81919 4.34754 2.56857 4.61808 2.31796 4.75335 1.96824 4.75335 1.51944 4.75335 1.00772 4.55097 0.602427 4.14621 0.303573 3.74145 0.00576737 3.18516-0.143135 2.47734-0.143135 2.18269-0.143135 1.87544-0.114299 1.55561-0.056625 1.23579 0.00104861 0.899185 0.0870347 0.545802 0.201333L0.545802 1.13565C0.88031 0.961576 1.20957 0.831024 1.53359 0.74399 1.85761 0.658003 2.17901 0.61501 2.49779 0.61501 2.92353 0.61501 3.2507 0.687888 3.47929 0.833646 3.70894 0.979403 3.82376 1.18493 3.82376 1.45023 3.82376 1.6956 3.74091 1.88384 3.57524 2.01491 3.4106 2.14598 3.04779 2.27235 2.48678 2.39398L2.1722 2.46791C1.61224 2.58536 1.20748 2.76624 0.957906 3.01056 0.709385 3.25488 0.585125 3.58992 0.585125 4.01566 0.585125 4.53366 0.768632 4.93319 1.13565 5.21422 1.50266 5.49629 2.02382 5.63733 2.69913 5.63733 3.03258 5.63733 3.34665 5.61269 3.6413 5.56341 3.93701 5.51516 4.20913 5.44177 4.45765 5.3432Z" transform="matrix(1.00166 0 0 -1 357.547 31.2067)"/><path d="M3.08134 4.87132C2.59689 4.87132 2.21361 4.68205 1.93154 4.3035 1.64947 3.92495 1.50843 3.40642 1.50843 2.74789 1.50843 2.08935 1.64842 1.57082 1.9284 1.19227 2.20943 0.813722 2.59374 0.624448 3.08134 0.624448 3.56371 0.624448 3.94539 0.814247 4.22643 1.19384 4.5085 1.57449 4.64954 2.0925 4.64954 2.74789 4.64954 3.40013 4.5085 3.91708 4.22643 4.29878 3.94539 4.68048 3.56371 4.87132 3.08134 4.87132ZM3.08134 5.63733C3.8678 5.63733 4.48544 5.38147 4.93424 4.86975 5.38409 4.35907 5.60902 3.65179 5.60902 2.74789 5.60902 1.84712 5.38409 1.13984 4.93424 0.626021 4.48544 0.11325 3.8678-0.143135 3.08134-0.143135 2.29174-0.143135 1.67306 0.11325 1.2253 0.626021 0.778594 1.13984 0.55524 1.84712 0.55524 2.74789 0.55524 3.65179 0.778594 4.35907 1.2253 4.86975 1.67306 5.38147 2.29174 5.63733 3.08134 5.63733Z" transform="matrix(1.00166 0 0 -1 366.005 31.2067)"/><path d="M3.73568 7.64909 3.73568 6.89567 2.87057 6.89567C2.54655 6.89567 2.32111 6.83012 2.19422 6.69905 2.06839 6.56798 2.00547 6.33204 2.00547 5.99124L2.00547 5.50521 3.49502 5.50521 3.49502 4.80211 2.00547 4.80211 2.00547 0 1.09632 0 1.09632 4.80211 0.231219 4.80211 0.231219 5.50521 1.09632 5.50521 1.09632 5.889C1.09632 6.50138 1.23893 6.94757 1.52416 7.22755 1.80937 7.50858 2.26134 7.64909 2.88001 7.64909L3.73568 7.64909Z" transform="matrix(1.00166 0 0 -1 372.175 31.2067)"/><path d="M0.855667 2.1722 0.855667 5.50521 1.76009 5.50521 1.76009 2.2068C1.76009 1.68565 1.86128 1.29451 2.06367 1.03341 2.26709 0.773351 2.57224 0.643323 2.9791 0.643323 3.46671 0.643323 3.85207 0.799042 4.1352 1.11048 4.41938 1.42192 4.56146 1.8466 4.56146 2.38454L4.56146 5.50521 5.46589 5.50521 5.46589 0 4.56146 0 4.56146 0.846229C4.3423 0.511722 4.08749 0.263201 3.79702 0.100667 3.5076-0.061868 3.171-0.143135 2.78721-0.143135 2.1549-0.143135 1.67464 0.0534792 1.34642 0.446708 1.01925 0.839938 0.855667 1.4151 0.855667 2.1722ZM3.13168 5.63733 3.13168 5.63733Z" transform="matrix(1.00166 0 0 -1 378.93 31.2067)"/><path d="M5.52566 3.32357 5.52566 0 4.62123 0 4.62123 3.29369C4.62123 3.81484 4.51951 4.20441 4.31608 4.46236 4.11266 4.72138 3.80803 4.85087 3.40222 4.85087 2.91356 4.85087 2.5282 4.69516 2.24612 4.38372 1.96405 4.07333 1.82301 3.64917 1.82301 3.11123L1.82301 0 0.913865 0 0.913865 5.50521 1.82301 5.50521 1.82301 4.64954C2.04007 4.98091 2.29489 5.22837 2.58745 5.39196 2.88106 5.55554 3.21976 5.63733 3.60355 5.63733 4.23586 5.63733 4.71403 5.44177 5.03805 5.05064 5.36313 4.6595 5.52566 4.08381 5.52566 3.32357Z" transform="matrix(1.00166 0 0 -1 385.32 31.2067)"/><path d="M4.91065 5.29444 4.91065 4.44821C4.65478 4.58977 4.39839 4.69568 4.14149 4.76594 3.88458 4.8362 3.62505 4.87132 3.3629 4.87132 2.77568 4.87132 2.31953 4.6852 1.99446 4.31294 1.67044 3.94173 1.50843 3.42004 1.50843 2.74789 1.50843 2.07573 1.67044 1.55352 1.99446 1.18126 2.31953 0.810052 2.77568 0.624448 3.3629 0.624448 3.62505 0.624448 3.88458 0.659576 4.14149 0.729833 4.39839 0.800091 4.65478 0.906 4.91065 1.04756L4.91065 0.210771C4.65793 0.0933263 4.3963 0.00524305 4.12576-0.0534792 3.85627-0.11325 3.56895-0.143135 3.2638-0.143135 2.43436-0.143135 1.7753 0.117445 1.28665 0.638604 0.799042 1.15976 0.55524 1.86285 0.55524 2.74789 0.55524 3.6455 0.801664 4.35121 1.29451 4.86503 1.78841 5.37989 2.46476 5.63733 3.32357 5.63733 3.60146 5.63733 3.87304 5.6085 4.13834 5.55082 4.40365 5.4942 4.66107 5.40874 4.91065 5.29444Z" transform="matrix(1.00166 0 0 -1 391.711 31.2067)"/><path d="M5.65778 2.9791 5.65778 2.53711 1.49899 2.53711C1.53884 1.91424 1.72654 1.43974 2.06209 1.11362 2.39764 0.787507 2.86534 0.624448 3.46514 0.624448 3.81223 0.624448 4.14883 0.666917 4.47495 0.751854 4.80106 0.836792 5.12508 0.964722 5.44701 1.13565L5.44701 0.279979C5.12194 0.142611 4.78901 0.03775 4.44821-0.0346042 4.1074-0.106958 3.7619-0.143135 3.41166-0.143135 2.53291-0.143135 1.83717 0.112201 1.3244 0.622875 0.811625 1.1346 0.55524 1.82668 0.55524 2.69913 0.55524 3.59989 0.798518 4.31451 1.28507 4.84301 1.77162 5.37256 2.42806 5.63733 3.25436 5.63733 3.99469 5.63733 4.58033 5.39877 5.01131 4.92166 5.44229 4.44558 5.65778 3.79807 5.65778 2.9791ZM4.75335 3.24493C4.74706 3.73882 4.60865 4.13311 4.3381 4.42776 4.06756 4.72347 3.70946 4.87132 3.2638 4.87132 2.75941 4.87132 2.35571 4.72871 2.05266 4.44349 1.7496 4.15827 1.57501 3.75664 1.52887 3.23864L4.75335 3.24493Z" transform="matrix(1.00166 0 0 -1 397.255 31.2067)"/><path d="M4.13834 4.66055C4.03662 4.71927 3.926 4.76227 3.80646 4.78953 3.68692 4.81784 3.55531 4.832 3.41166 4.832 2.89994 4.832 2.50723 4.66579 2.23354 4.33339 1.95985 4.00098 1.82301 3.52333 1.82301 2.90046L1.82301 0 0.913865 0 0.913865 5.50521 1.82301 5.50521 1.82301 4.64954C2.01385 4.98405 2.26134 5.23204 2.56543 5.39353 2.87057 5.55606 3.24126 5.63733 3.67748 5.63733 3.73934 5.63733 3.80803 5.63313 3.88353 5.62475 3.95903 5.6174 4.0424 5.60536 4.13363 5.58857L4.13834 4.66055Z" transform="matrix(1.00166 0 0 -1 403.459 31.2067)"/><path d="M1.84346 7.06869 1.84346 5.50521 3.70579 5.50521 3.70579 4.80211 1.84346 4.80211 1.84346 1.81357C1.84346 1.36477 1.9048 1.0764 2.02749 0.948469 2.15018 0.820539 2.40027 0.756573 2.77777 0.756573L3.70579 0.756573 3.70579 0 2.77777 0C2.0794 0 1.59756 0.130028 1.33226 0.390083 1.06696 0.651187 0.934312 1.12568 0.934312 1.81357L0.934312 4.80211 0.270542 4.80211 0.270542 5.50521 0.934312 5.50521 0.934312 7.06869 1.84346 7.06869Z" transform="matrix(1.00166 0 0 -1 407.604 31.2067)"/><path d="M3.45098 2.76676C2.72009 2.76676 2.21361 2.6834 1.93154 2.51667 1.64947 2.34994 1.50843 2.06472 1.50843 1.661 1.50843 1.34012 1.61433 1.08531 1.82616 0.896562 2.03798 0.708862 2.32529 0.61501 2.68811 0.61501 3.19039 0.61501 3.59306 0.79275 3.89611 1.14823 4.19917 1.50371 4.35069 1.9761 4.35069 2.56543L4.35069 2.76676 3.45098 2.76676ZM5.25511 3.14111 5.25511 0 4.35069 0 4.35069 0.835219C4.14412 0.50176 3.88668 0.255336 3.57839 0.0959479 3.27009-0.0634409 2.89311-0.143135 2.44746-0.143135 1.88435-0.143135 1.43607 0.0152049 1.10261 0.331885 0.770205 0.648565 0.604 1.07221 0.604 1.6028 0.604 2.22148 0.811101 2.68811 1.2253 3.0027 1.64055 3.31728 2.25923 3.47457 3.08134 3.47457L4.35069 3.47457 4.35069 3.56423C4.35069 3.98053 4.21384 4.30245 3.94016 4.53 3.66647 4.75755 3.28216 4.87132 2.78721 4.87132 2.47263 4.87132 2.16591 4.83357 1.86705 4.75807 1.56925 4.68257 1.28298 4.56932 1.00824 4.41832L1.00824 5.25511C1.33855 5.38304 1.65943 5.47847 1.97086 5.54139 2.2823 5.60536 2.58536 5.63733 2.88001 5.63733 3.67696 5.63733 4.27204 5.43076 4.66527 5.0176 5.0585 4.6055 5.25511 3.98 5.25511 3.14111Z" transform="matrix(1.00166 0 0 -1 411.558 31.2067)"/><path d="M0.948469 5.50521 1.8529 5.50521 1.8529 0 0.948469 0 0.948469 5.50521ZM0.948469 7.64909 1.8529 7.64909 1.8529 6.50244 0.948469 6.50244 0.948469 7.64909Z" transform="matrix(1.00166 0 0 -1 417.737 31.2067)"/><path d="M5.52566 3.32357 5.52566 0 4.62123 0 4.62123 3.29369C4.62123 3.81484 4.51951 4.20441 4.31608 4.46236 4.11266 4.72138 3.80803 4.85087 3.40222 4.85087 2.91356 4.85087 2.5282 4.69516 2.24612 4.38372 1.96405 4.07333 1.82301 3.64917 1.82301 3.11123L1.82301 0 0.913865 0 0.913865 5.50521 1.82301 5.50521 1.82301 4.64954C2.04007 4.98091 2.29489 5.22837 2.58745 5.39196 2.88106 5.55554 3.21976 5.63733 3.60355 5.63733 4.23586 5.63733 4.71403 5.44177 5.03805 5.05064 5.36313 4.6595 5.52566 4.08381 5.52566 3.32357Z" transform="matrix(1.00166 0 0 -1 420.538 31.2067)"/><path d="M1.84346 7.06869 1.84346 5.50521 3.70579 5.50521 3.70579 4.80211 1.84346 4.80211 1.84346 1.81357C1.84346 1.36477 1.9048 1.0764 2.02749 0.948469 2.15018 0.820539 2.40027 0.756573 2.77777 0.756573L3.70579 0.756573 3.70579 0 2.77777 0C2.0794 0 1.59756 0.130028 1.33226 0.390083 1.06696 0.651187 0.934312 1.12568 0.934312 1.81357L0.934312 4.80211 0.270542 4.80211 0.270542 5.50521 0.934312 5.50521 0.934312 7.06869 1.84346 7.06869Z" transform="matrix(1.00166 0 0 -1 426.929 31.2067)"/><path d="M3.23864-0.511198C2.98382-1.16658 2.73478-1.59388 2.4915-1.79312 2.24927-1.9934 1.92525-2.09355 1.51944-2.09355L0.795896-2.09355 0.795896-1.33698 1.32754-1.33698C1.57606-1.33698 1.76901-1.27773 1.90637-1.15924 2.04479-1.04179 2.19736-0.763388 2.36409-0.324021L2.5261 0.0880833 0.300427 5.50521 1.25833 5.50521 2.9791 1.20014 4.69987 5.50521 5.65778 5.50521 3.23864-0.511198Z" transform="matrix(1.00166 0 0 -1 430.882 31.2067)"/><path d="M0.948469 5.50521 1.8529 5.50521 1.8529 0 0.948469 0 0.948469 5.50521ZM0.948469 7.64909 1.8529 7.64909 1.8529 6.50244 0.948469 6.50244 0.948469 7.64909Z" transform="matrix(1.00166 0 0 -1 440.055 31.2067)"/><path d="M5.52566 3.32357 5.52566 0 4.62123 0 4.62123 3.29369C4.62123 3.81484 4.51951 4.20441 4.31608 4.46236 4.11266 4.72138 3.80803 4.85087 3.40222 4.85087 2.91356 4.85087 2.5282 4.69516 2.24612 4.38372 1.96405 4.07333 1.82301 3.64917 1.82301 3.11123L1.82301 0 0.913865 0 0.913865 5.50521 1.82301 5.50521 1.82301 4.64954C2.04007 4.98091 2.29489 5.22837 2.58745 5.39196 2.88106 5.55554 3.21976 5.63733 3.60355 5.63733 4.23586 5.63733 4.71403 5.44177 5.03805 5.05064 5.36313 4.6595 5.52566 4.08381 5.52566 3.32357Z" transform="matrix(1.00166 0 0 -1 442.857 31.2067)"/><path d="M1.84346 7.06869 1.84346 5.50521 3.70579 5.50521 3.70579 4.80211 1.84346 4.80211 1.84346 1.81357C1.84346 1.36477 1.9048 1.0764 2.02749 0.948469 2.15018 0.820539 2.40027 0.756573 2.77777 0.756573L3.70579 0.756573 3.70579 0 2.77777 0C2.0794 0 1.59756 0.130028 1.33226 0.390083 1.06696 0.651187 0.934312 1.12568 0.934312 1.81357L0.934312 4.80211 0.270542 4.80211 0.270542 5.50521 0.934312 5.50521 0.934312 7.06869 1.84346 7.06869Z" transform="matrix(1.00166 0 0 -1 452.452 31.2067)"/><path d="M5.52566 3.32357 5.52566 0 4.62123 0 4.62123 3.29369C4.62123 3.81484 4.51951 4.20441 4.31608 4.46236 4.11266 4.72138 3.80803 4.85087 3.40222 4.85087 2.91356 4.85087 2.5282 4.69516 2.24612 4.38372 1.96405 4.07333 1.82301 3.64917 1.82301 3.11123L1.82301 0 0.913865 0 0.913865 7.64909 1.82301 7.64909 1.82301 4.64954C2.04007 4.98091 2.29489 5.22837 2.58745 5.39196 2.88106 5.55554 3.21976 5.63733 3.60355 5.63733 4.23586 5.63733 4.71403 5.44177 5.03805 5.05064 5.36313 4.6595 5.52566 4.08381 5.52566 3.32357Z" transform="matrix(1.00166 0 0 -1 456.406 31.2067)"/><path d="M5.65778 2.9791 5.65778 2.53711 1.49899 2.53711C1.53884 1.91424 1.72654 1.43974 2.06209 1.11362 2.39764 0.787507 2.86534 0.624448 3.46514 0.624448 3.81223 0.624448 4.14883 0.666917 4.47495 0.751854 4.80106 0.836792 5.12508 0.964722 5.44701 1.13565L5.44701 0.279979C5.12194 0.142611 4.78901 0.03775 4.44821-0.0346042 4.1074-0.106958 3.7619-0.143135 3.41166-0.143135 2.53291-0.143135 1.83717 0.112201 1.3244 0.622875 0.811625 1.1346 0.55524 1.82668 0.55524 2.69913 0.55524 3.59989 0.798518 4.31451 1.28507 4.84301 1.77162 5.37256 2.42806 5.63733 3.25436 5.63733 3.99469 5.63733 4.58033 5.39877 5.01131 4.92166 5.44229 4.44558 5.65778 3.79807 5.65778 2.9791ZM4.75335 3.24493C4.74706 3.73882 4.60865 4.13311 4.3381 4.42776 4.06756 4.72347 3.70946 4.87132 3.2638 4.87132 2.75941 4.87132 2.35571 4.72871 2.05266 4.44349 1.7496 4.15827 1.57501 3.75664 1.52887 3.23864L4.75335 3.24493Z" transform="matrix(1.00166 0 0 -1 462.796 31.2067)"/><path d="M1.82301 0.825781 1.82301-2.09355 0.913865-2.09355 0.913865 5.50521 1.82301 5.50521 1.82301 4.66999C2.01385 4.99716 2.25399 5.2399 2.54341 5.39825 2.83388 5.55763 3.18044 5.63733 3.5831 5.63733 4.25211 5.63733 4.7953 5.37203 5.21265 4.84144 5.63104 4.31085 5.84024 3.61299 5.84024 2.74789 5.84024 1.88278 5.63104 1.18441 5.21265 0.65276 4.7953 0.122163 4.25211-0.143135 3.5831-0.143135 3.18044-0.143135 2.83388-0.0634409 2.54341 0.0959479 2.25399 0.255336 2.01385 0.498615 1.82301 0.825781ZM4.90121 2.74789C4.90121 3.41271 4.76436 3.93438 4.49068 4.31294 4.21699 4.69149 3.84106 4.88076 3.3629 4.88076 2.88368 4.88076 2.50723 4.69149 2.23354 4.31294 1.95985 3.93438 1.82301 3.41271 1.82301 2.74789 1.82301 2.08306 1.95985 1.56138 2.23354 1.18283 2.50723 0.804284 2.88368 0.61501 3.3629 0.61501 3.84106 0.61501 4.21699 0.804284 4.49068 1.18283 4.76436 1.56138 4.90121 2.08306 4.90121 2.74789Z" transform="matrix(1.00166 0 0 -1 472.205 31.2067)"/><path d="M3.45098 2.76676C2.72009 2.76676 2.21361 2.6834 1.93154 2.51667 1.64947 2.34994 1.50843 2.06472 1.50843 1.661 1.50843 1.34012 1.61433 1.08531 1.82616 0.896562 2.03798 0.708862 2.32529 0.61501 2.68811 0.61501 3.19039 0.61501 3.59306 0.79275 3.89611 1.14823 4.19917 1.50371 4.35069 1.9761 4.35069 2.56543L4.35069 2.76676 3.45098 2.76676ZM5.25511 3.14111 5.25511 0 4.35069 0 4.35069 0.835219C4.14412 0.50176 3.88668 0.255336 3.57839 0.0959479 3.27009-0.0634409 2.89311-0.143135 2.44746-0.143135 1.88435-0.143135 1.43607 0.0152049 1.10261 0.331885 0.770205 0.648565 0.604 1.07221 0.604 1.6028 0.604 2.22148 0.811101 2.68811 1.2253 3.0027 1.64055 3.31728 2.25923 3.47457 3.08134 3.47457L4.35069 3.47457 4.35069 3.56423C4.35069 3.98053 4.21384 4.30245 3.94016 4.53 3.66647 4.75755 3.28216 4.87132 2.78721 4.87132 2.47263 4.87132 2.16591 4.83357 1.86705 4.75807 1.56925 4.68257 1.28298 4.56932 1.00824 4.41832L1.00824 5.25511C1.33855 5.38304 1.65943 5.47847 1.97086 5.54139 2.2823 5.60536 2.58536 5.63733 2.88001 5.63733 3.67696 5.63733 4.27204 5.43076 4.66527 5.0176 5.0585 4.6055 5.25511 3.98 5.25511 3.14111Z" transform="matrix(1.00166 0 0 -1 478.606 31.2067)"/><path d="M4.13834 4.66055C4.03662 4.71927 3.926 4.76227 3.80646 4.78953 3.68692 4.81784 3.55531 4.832 3.41166 4.832 2.89994 4.832 2.50723 4.66579 2.23354 4.33339 1.95985 4.00098 1.82301 3.52333 1.82301 2.90046L1.82301 0 0.913865 0 0.913865 5.50521 1.82301 5.50521 1.82301 4.64954C2.01385 4.98405 2.26134 5.23204 2.56543 5.39353 2.87057 5.55606 3.24126 5.63733 3.67748 5.63733 3.73934 5.63733 3.80803 5.63313 3.88353 5.62475 3.95903 5.6174 4.0424 5.60536 4.13363 5.58857L4.13834 4.66055Z" transform="matrix(1.00166 0 0 -1 484.785 31.2067)"/><path d="M3.45098 2.76676C2.72009 2.76676 2.21361 2.6834 1.93154 2.51667 1.64947 2.34994 1.50843 2.06472 1.50843 1.661 1.50843 1.34012 1.61433 1.08531 1.82616 0.896562 2.03798 0.708862 2.32529 0.61501 2.68811 0.61501 3.19039 0.61501 3.59306 0.79275 3.89611 1.14823 4.19917 1.50371 4.35069 1.9761 4.35069 2.56543L4.35069 2.76676 3.45098 2.76676ZM5.25511 3.14111 5.25511 0 4.35069 0 4.35069 0.835219C4.14412 0.50176 3.88668 0.255336 3.57839 0.0959479 3.27009-0.0634409 2.89311-0.143135 2.44746-0.143135 1.88435-0.143135 1.43607 0.0152049 1.10261 0.331885 0.770205 0.648565 0.604 1.07221 0.604 1.6028 0.604 2.22148 0.811101 2.68811 1.2253 3.0027 1.64055 3.31728 2.25923 3.47457 3.08134 3.47457L4.35069 3.47457 4.35069 3.56423C4.35069 3.98053 4.21384 4.30245 3.94016 4.53 3.66647 4.75755 3.28216 4.87132 2.78721 4.87132 2.47263 4.87132 2.16591 4.83357 1.86705 4.75807 1.56925 4.68257 1.28298 4.56932 1.00824 4.41832L1.00824 5.25511C1.33855 5.38304 1.65943 5.47847 1.97086 5.54139 2.2823 5.60536 2.58536 5.63733 2.88001 5.63733 3.67696 5.63733 4.27204 5.43076 4.66527 5.0176 5.0585 4.6055 5.25511 3.98 5.25511 3.14111Z" transform="matrix(1.00166 0 0 -1 488.93 31.2067)"/><path d="M5.23467 4.44821C5.46117 4.85507 5.73171 5.15497 6.04629 5.34792 6.36087 5.54087 6.73103 5.63733 7.15677 5.63733 7.73037 5.63733 8.17287 5.43652 8.48431 5.03491 8.79575 4.63433 8.95147 4.0639 8.95147 3.32357L8.95147 0 8.04232 0 8.04232 3.29369C8.04232 3.82113 7.94847 4.21227 7.76077 4.46708 7.57411 4.72295 7.28941 4.85087 6.90668 4.85087 6.43795 4.85087 6.06726 4.69516 5.79462 4.38372 5.52303 4.07333 5.38724 3.64917 5.38724 3.11123L5.38724 0 4.47809 0 4.47809 3.29369C4.47809 3.82428 4.38477 4.21647 4.19811 4.47023 4.01146 4.72399 3.72309 4.85087 3.33301 4.85087 2.87057 4.85087 2.50303 4.69464 2.2304 4.38215 1.9588 4.06965 1.82301 3.64602 1.82301 3.11123L1.82301 0 0.913865 0 0.913865 5.50521 1.82301 5.50521 1.82301 4.64954C2.02958 4.9872 2.27706 5.23624 2.56543 5.39668 2.85379 5.55711 3.19617 5.63733 3.59254 5.63733 3.99312 5.63733 4.33339 5.53561 4.61336 5.33219 4.89334 5.1298 5.10045 4.83515 5.23467 4.44821Z" transform="matrix(1.00166 0 0 -1 495.109 31.2067)"/><path d="M5.65778 2.9791 5.65778 2.53711 1.49899 2.53711C1.53884 1.91424 1.72654 1.43974 2.06209 1.11362 2.39764 0.787507 2.86534 0.624448 3.46514 0.624448 3.81223 0.624448 4.14883 0.666917 4.47495 0.751854 4.80106 0.836792 5.12508 0.964722 5.44701 1.13565L5.44701 0.279979C5.12194 0.142611 4.78901 0.03775 4.44821-0.0346042 4.1074-0.106958 3.7619-0.143135 3.41166-0.143135 2.53291-0.143135 1.83717 0.112201 1.3244 0.622875 0.811625 1.1346 0.55524 1.82668 0.55524 2.69913 0.55524 3.59989 0.798518 4.31451 1.28507 4.84301 1.77162 5.37256 2.42806 5.63733 3.25436 5.63733 3.99469 5.63733 4.58033 5.39877 5.01131 4.92166 5.44229 4.44558 5.65778 3.79807 5.65778 2.9791ZM4.75335 3.24493C4.74706 3.73882 4.60865 4.13311 4.3381 4.42776 4.06756 4.72347 3.70946 4.87132 3.2638 4.87132 2.75941 4.87132 2.35571 4.72871 2.05266 4.44349 1.7496 4.15827 1.57501 3.75664 1.52887 3.23864L4.75335 3.24493Z" transform="matrix(1.00166 0 0 -1 504.932 31.2067)"/><path d="M1.84346 7.06869 1.84346 5.50521 3.70579 5.50521 3.70579 4.80211 1.84346 4.80211 1.84346 1.81357C1.84346 1.36477 1.9048 1.0764 2.02749 0.948469 2.15018 0.820539 2.40027 0.756573 2.77777 0.756573L3.70579 0.756573 3.70579 0 2.77777 0C2.0794 0 1.59756 0.130028 1.33226 0.390083 1.06696 0.651187 0.934312 1.12568 0.934312 1.81357L0.934312 4.80211 0.270542 4.80211 0.270542 5.50521 0.934312 5.50521 0.934312 7.06869 1.84346 7.06869Z" transform="matrix(1.00166 0 0 -1 511.136 31.2067)"/><path d="M5.65778 2.9791 5.65778 2.53711 1.49899 2.53711C1.53884 1.91424 1.72654 1.43974 2.06209 1.11362 2.39764 0.787507 2.86534 0.624448 3.46514 0.624448 3.81223 0.624448 4.14883 0.666917 4.47495 0.751854 4.80106 0.836792 5.12508 0.964722 5.44701 1.13565L5.44701 0.279979C5.12194 0.142611 4.78901 0.03775 4.44821-0.0346042 4.1074-0.106958 3.7619-0.143135 3.41166-0.143135 2.53291-0.143135 1.83717 0.112201 1.3244 0.622875 0.811625 1.1346 0.55524 1.82668 0.55524 2.69913 0.55524 3.59989 0.798518 4.31451 1.28507 4.84301 1.77162 5.37256 2.42806 5.63733 3.25436 5.63733 3.99469 5.63733 4.58033 5.39877 5.01131 4.92166 5.44229 4.44558 5.65778 3.79807 5.65778 2.9791ZM4.75335 3.24493C4.74706 3.73882 4.60865 4.13311 4.3381 4.42776 4.06756 4.72347 3.70946 4.87132 3.2638 4.87132 2.75941 4.87132 2.35571 4.72871 2.05266 4.44349 1.7496 4.15827 1.57501 3.75664 1.52887 3.23864L4.75335 3.24493Z" transform="matrix(1.00166 0 0 -1 515.09 31.2067)"/><path d="M4.13834 4.66055C4.03662 4.71927 3.926 4.76227 3.80646 4.78953 3.68692 4.81784 3.55531 4.832 3.41166 4.832 2.89994 4.832 2.50723 4.66579 2.23354 4.33339 1.95985 4.00098 1.82301 3.52333 1.82301 2.90046L1.82301 0 0.913865 0 0.913865 5.50521 1.82301 5.50521 1.82301 4.64954C2.01385 4.98405 2.26134 5.23204 2.56543 5.39353 2.87057 5.55606 3.24126 5.63733 3.67748 5.63733 3.73934 5.63733 3.80803 5.63313 3.88353 5.62475 3.95903 5.6174 4.0424 5.60536 4.13363 5.58857L4.13834 4.66055Z" transform="matrix(1.00166 0 0 -1 521.293 31.2067)"/><path d="M4.45765 5.3432 4.45765 4.48753C4.20283 4.6186 3.93753 4.71666 3.66175 4.78167 3.38701 4.84773 3.10179 4.88076 2.80608 4.88076 2.35728 4.88076 2.02068 4.81207 1.79627 4.67471 1.57187 4.53735 1.45967 4.33076 1.45967 4.05498 1.45967 3.84526 1.53989 3.68062 1.70032 3.56108 1.86076 3.44154 2.18373 3.32777 2.66924 3.21976L2.9791 3.15055C3.62085 3.01319 4.077 2.81919 4.34754 2.56857 4.61808 2.31796 4.75335 1.96824 4.75335 1.51944 4.75335 1.00772 4.55097 0.602427 4.14621 0.303573 3.74145 0.00576737 3.18516-0.143135 2.47734-0.143135 2.18269-0.143135 1.87544-0.114299 1.55561-0.056625 1.23579 0.00104861 0.899185 0.0870347 0.545802 0.201333L0.545802 1.13565C0.88031 0.961576 1.20957 0.831024 1.53359 0.74399 1.85761 0.658003 2.17901 0.61501 2.49779 0.61501 2.92353 0.61501 3.2507 0.687888 3.47929 0.833646 3.70894 0.979403 3.82376 1.18493 3.82376 1.45023 3.82376 1.6956 3.74091 1.88384 3.57524 2.01491 3.4106 2.14598 3.04779 2.27235 2.48678 2.39398L2.1722 2.46791C1.61224 2.58536 1.20748 2.76624 0.957906 3.01056 0.709385 3.25488 0.585125 3.58992 0.585125 4.01566 0.585125 4.53366 0.768632 4.93319 1.13565 5.21422 1.50266 5.49629 2.02382 5.63733 2.69913 5.63733 3.03258 5.63733 3.34665 5.61269 3.6413 5.56341 3.93701 5.51516 4.20913 5.44177 4.45765 5.3432Z" transform="matrix(1.00166 0 0 -1 525.438 31.2067)"/><path d="M1.07587 1.2489 2.114 1.2489 2.114 0 1.07587 0 1.07587 1.2489Z" transform="matrix(1.00166 0 0 -1 530.692 31.2067)"/></g></svg>