<?xml version="1.0" encoding="UTF-8" standalone="no"?>
<!DOCTYPE svg PUBLIC "-//W3C//DTD SVG 1.1//EN" "http://www.w3.org/Graphics/SVG/1.1/DTD/svg11.dtd">
<svg width="100%" height="100%" viewBox="0 0 1405 958" version="1.1" xmlns="http://www.w3.org/2000/svg" xmlns:xlink="http://www.w3.org/1999/xlink" xml:space="preserve" xmlns:serif="http://www.serif.com/" style="fill-rule:evenodd;clip-rule:evenodd;stroke-linecap:round;stroke-linejoin:round;stroke-miterlimit:1.5;">
    <g transform="matrix(1,0,0,1,-205.347,-318.746)">
        <g transform="matrix(1,0,0,1,-87.2204,-245.824)">
            <rect x="683.526" y="870.848" width="120.876" height="120.876" style="fill:white;stroke:black;stroke-width:7.61px;"/>
        </g>
        <g transform="matrix(1,0,0,1,392.181,-245.824)">
            <rect x="683.526" y="870.848" width="120.876" height="120.876" style="fill:white;stroke:black;stroke-width:7.61px;"/>
        </g>
        <g transform="matrix(1,0,0,1,153.97,-245.824)">
            <rect x="683.526" y="870.848" width="120.876" height="120.876" style="fill:white;stroke:black;stroke-width:7.61px;"/>
        </g>
        <g transform="matrix(1,0,0,1,633.371,-245.824)">
            <rect x="683.526" y="870.848" width="120.876" height="120.876" style="fill:white;stroke:black;stroke-width:7.61px;"/>
        </g>
        <g transform="matrix(1,0,0,1,32.9,-245.824)">
            <rect x="683.526" y="870.848" width="120.876" height="120.876" style="fill:white;stroke:black;stroke-width:7.61px;"/>
        </g>
        <g transform="matrix(1,0,0,1,512.301,-245.824)">
            <rect x="683.526" y="870.848" width="120.876" height="120.876" style="fill:white;stroke:black;stroke-width:7.61px;"/>
        </g>
        <g transform="matrix(1,0,0,1,274.09,-245.824)">
            <rect x="683.526" y="870.848" width="120.876" height="120.876" style="fill:white;stroke:black;stroke-width:7.61px;"/>
        </g>
        <g transform="matrix(1,0,0,1,753.491,-245.824)">
            <rect x="683.526" y="870.848" width="120.876" height="120.876" style="fill:white;stroke:black;stroke-width:7.61px;"/>
        </g>
        <g transform="matrix(1.08654,0,0,1.08654,-76.2805,-298.514)">
            <g transform="matrix(62.3028,0,0,62.3028,650.358,816.586)">
                <path d="M0.198,-0.253L0.03,-0.474L0.146,-0.474L0.261,-0.306L0.374,-0.474L0.483,-0.474L0.321,-0.253L0.513,-0L0.397,-0L0.257,-0.199L0.117,-0L0.006,-0L0.198,-0.253Z" style="fill-rule:nonzero;"/>
            </g>
        </g>
        <g transform="matrix(1.08654,0,0,1.08654,405.345,-298.514)">
            <g transform="matrix(62.3028,0,0,62.3028,650.358,816.586)">
                <path d="M0.198,-0.253L0.03,-0.474L0.146,-0.474L0.261,-0.306L0.374,-0.474L0.483,-0.474L0.321,-0.253L0.513,-0L0.397,-0L0.257,-0.199L0.117,-0L0.006,-0L0.198,-0.253Z" style="fill-rule:nonzero;"/>
            </g>
        </g>
        <g transform="matrix(1.08654,0,0,1.08654,170.128,-298.514)">
            <g transform="matrix(62.3028,0,0,62.3028,650.358,816.586)">
                <path d="M0.198,-0.253L0.03,-0.474L0.146,-0.474L0.261,-0.306L0.374,-0.474L0.483,-0.474L0.321,-0.253L0.513,-0L0.397,-0L0.257,-0.199L0.117,-0L0.006,-0L0.198,-0.253Z" style="fill-rule:nonzero;"/>
            </g>
        </g>
        <g transform="matrix(1.08654,0,0,1.08654,651.754,-298.514)">
            <g transform="matrix(62.3028,0,0,62.3028,650.358,816.586)">
                <path d="M0.198,-0.253L0.03,-0.474L0.146,-0.474L0.261,-0.306L0.374,-0.474L0.483,-0.474L0.321,-0.253L0.513,-0L0.397,-0L0.257,-0.199L0.117,-0L0.006,-0L0.198,-0.253Z" style="fill-rule:nonzero;"/>
            </g>
        </g>
        <g transform="matrix(1.08654,0,0,1.08654,42.7505,-298.514)">
            <g transform="matrix(62.3028,0,0,62.3028,650.358,816.586)">
                <path d="M0.198,-0.253L0.03,-0.474L0.146,-0.474L0.261,-0.306L0.374,-0.474L0.483,-0.474L0.321,-0.253L0.513,-0L0.397,-0L0.257,-0.199L0.117,-0L0.006,-0L0.198,-0.253Z" style="fill-rule:nonzero;"/>
            </g>
        </g>
        <g transform="matrix(1.08654,0,0,1.08654,524.376,-298.514)">
            <g transform="matrix(62.3028,0,0,62.3028,650.358,816.586)">
                <path d="M0.198,-0.253L0.03,-0.474L0.146,-0.474L0.261,-0.306L0.374,-0.474L0.483,-0.474L0.321,-0.253L0.513,-0L0.397,-0L0.257,-0.199L0.117,-0L0.006,-0L0.198,-0.253Z" style="fill-rule:nonzero;"/>
            </g>
        </g>
        <g transform="matrix(1.08654,0,0,1.08654,289.159,-298.514)">
            <g transform="matrix(62.3028,0,0,62.3028,650.358,816.586)">
                <path d="M0.198,-0.253L0.03,-0.474L0.146,-0.474L0.261,-0.306L0.374,-0.474L0.483,-0.474L0.321,-0.253L0.513,-0L0.397,-0L0.257,-0.199L0.117,-0L0.006,-0L0.198,-0.253Z" style="fill-rule:nonzero;"/>
            </g>
        </g>
        <g transform="matrix(1.08654,0,0,1.08654,770.785,-298.514)">
            <g transform="matrix(62.3028,0,0,62.3028,650.358,816.586)">
                <path d="M0.198,-0.253L0.03,-0.474L0.146,-0.474L0.261,-0.306L0.374,-0.474L0.483,-0.474L0.321,-0.253L0.513,-0L0.397,-0L0.257,-0.199L0.117,-0L0.006,-0L0.198,-0.253Z" style="fill-rule:nonzero;"/>
            </g>
        </g>
        <g transform="matrix(1.14758,0,0,1.14758,-131.401,-352.769)">
            <g transform="matrix(30.5742,0,0,30.5742,696.262,832.94)">
                <path d="M0.384,-0.624L0.042,-0.624L0.042,-0.708L0.487,-0.708L0.487,-0.626L0.205,-0L0.097,-0L0.384,-0.624Z" style="fill-rule:nonzero;"/>
            </g>
        </g>
        <g transform="matrix(1.14758,0,0,1.14758,350.225,-352.769)">
            <g transform="matrix(30.5742,0,0,30.5742,696.262,832.94)">
                <path d="M0.147,-0.173C0.158,-0.139 0.173,-0.114 0.193,-0.097C0.212,-0.08 0.24,-0.072 0.277,-0.072C0.296,-0.072 0.313,-0.075 0.33,-0.082C0.346,-0.088 0.36,-0.096 0.373,-0.108C0.386,-0.118 0.396,-0.132 0.403,-0.148C0.41,-0.163 0.414,-0.181 0.414,-0.2C0.414,-0.229 0.408,-0.253 0.396,-0.271C0.383,-0.288 0.367,-0.302 0.348,-0.311C0.329,-0.32 0.307,-0.325 0.284,-0.328C0.261,-0.331 0.238,-0.332 0.215,-0.332L0.215,-0.416C0.252,-0.416 0.282,-0.419 0.305,-0.424C0.328,-0.428 0.347,-0.436 0.36,-0.445C0.373,-0.454 0.383,-0.466 0.388,-0.48C0.393,-0.494 0.396,-0.51 0.396,-0.527C0.396,-0.565 0.385,-0.594 0.362,-0.613C0.339,-0.632 0.311,-0.642 0.277,-0.642C0.251,-0.642 0.228,-0.635 0.207,-0.62C0.186,-0.604 0.17,-0.585 0.159,-0.56L0.061,-0.593C0.08,-0.638 0.108,-0.672 0.147,-0.694C0.185,-0.715 0.228,-0.726 0.275,-0.726C0.304,-0.726 0.331,-0.722 0.358,-0.715C0.384,-0.707 0.407,-0.695 0.427,-0.679C0.447,-0.663 0.463,-0.643 0.475,-0.619C0.486,-0.594 0.492,-0.566 0.492,-0.533C0.492,-0.496 0.481,-0.462 0.459,-0.433C0.436,-0.404 0.407,-0.384 0.371,-0.373L0.371,-0.371C0.393,-0.367 0.413,-0.36 0.43,-0.349C0.447,-0.338 0.462,-0.325 0.474,-0.309C0.486,-0.293 0.495,-0.275 0.501,-0.256C0.507,-0.236 0.51,-0.215 0.51,-0.193C0.51,-0.159 0.503,-0.129 0.491,-0.104C0.478,-0.078 0.46,-0.057 0.439,-0.04C0.417,-0.023 0.392,-0.01 0.364,-0.001C0.335,0.008 0.305,0.012 0.274,0.012C0.22,0.012 0.173,-0 0.132,-0.025C0.091,-0.05 0.062,-0.089 0.046,-0.142L0.147,-0.173Z" style="fill-rule:nonzero;"/>
            </g>
        </g>
        <g transform="matrix(1.14758,0,0,1.14758,115.008,-352.769)">
            <g transform="matrix(30.5742,0,0,30.5742,696.262,832.94)">
                <path d="M0.471,-0.618L0.184,-0.618L0.181,-0.441C0.186,-0.443 0.192,-0.445 0.201,-0.447C0.21,-0.449 0.219,-0.451 0.228,-0.452C0.237,-0.453 0.245,-0.454 0.254,-0.455C0.263,-0.456 0.27,-0.456 0.276,-0.456C0.309,-0.456 0.339,-0.45 0.367,-0.439C0.394,-0.428 0.417,-0.412 0.436,-0.391C0.455,-0.37 0.47,-0.346 0.481,-0.317C0.491,-0.288 0.496,-0.257 0.496,-0.222C0.496,-0.187 0.49,-0.155 0.477,-0.126C0.464,-0.097 0.446,-0.073 0.423,-0.052C0.4,-0.031 0.374,-0.016 0.344,-0.005C0.314,0.007 0.282,0.012 0.247,0.012C0.199,0.012 0.156,-0 0.117,-0.025C0.078,-0.05 0.051,-0.085 0.034,-0.131L0.131,-0.164C0.144,-0.131 0.161,-0.108 0.182,-0.094C0.203,-0.079 0.23,-0.072 0.262,-0.072C0.281,-0.072 0.299,-0.075 0.316,-0.082C0.333,-0.089 0.347,-0.098 0.36,-0.111C0.372,-0.123 0.382,-0.138 0.389,-0.156C0.396,-0.174 0.4,-0.194 0.4,-0.217C0.4,-0.269 0.384,-0.308 0.353,-0.334C0.321,-0.359 0.28,-0.372 0.229,-0.372C0.211,-0.372 0.188,-0.369 0.161,-0.363C0.133,-0.356 0.107,-0.347 0.083,-0.335L0.091,-0.708L0.471,-0.708L0.471,-0.618Z" style="fill-rule:nonzero;"/>
            </g>
        </g>
        <g transform="matrix(1.14758,0,0,1.14758,596.633,-352.769)">
            <g transform="matrix(30.5742,0,0,30.5742,696.262,832.94)">
                <path d="M0.27,-0.598L0.14,-0.478L0.084,-0.545L0.281,-0.708L0.366,-0.708L0.366,-0L0.27,-0L0.27,-0.598Z" style="fill-rule:nonzero;"/>
            </g>
        </g>
        <g transform="matrix(1.14758,0,0,1.14758,-12.3703,-352.769)">
            <g transform="matrix(30.5742,0,0,30.5742,696.262,832.94)">
                <path d="M0.22,-0.434L0.224,-0.434C0.246,-0.445 0.272,-0.45 0.302,-0.45C0.327,-0.45 0.353,-0.446 0.379,-0.437C0.405,-0.428 0.428,-0.415 0.45,-0.397C0.47,-0.378 0.488,-0.355 0.501,-0.327C0.514,-0.298 0.521,-0.265 0.521,-0.226C0.521,-0.187 0.515,-0.152 0.502,-0.123C0.489,-0.093 0.471,-0.068 0.449,-0.048C0.427,-0.028 0.401,-0.013 0.372,-0.003C0.343,0.007 0.311,0.012 0.278,0.012C0.245,0.012 0.213,0.007 0.184,-0.004C0.155,-0.015 0.129,-0.03 0.107,-0.05C0.085,-0.07 0.067,-0.094 0.055,-0.122C0.042,-0.15 0.035,-0.181 0.035,-0.216C0.035,-0.238 0.037,-0.258 0.04,-0.276C0.043,-0.294 0.048,-0.311 0.055,-0.328C0.061,-0.344 0.068,-0.36 0.077,-0.376C0.086,-0.391 0.095,-0.408 0.106,-0.425L0.285,-0.708L0.398,-0.708L0.22,-0.434ZM0.131,-0.219C0.131,-0.198 0.135,-0.178 0.142,-0.16C0.149,-0.142 0.159,-0.127 0.172,-0.114C0.185,-0.1 0.2,-0.09 0.218,-0.083C0.236,-0.076 0.256,-0.072 0.278,-0.072C0.3,-0.072 0.32,-0.076 0.338,-0.083C0.356,-0.09 0.372,-0.1 0.385,-0.114C0.398,-0.127 0.408,-0.142 0.415,-0.16C0.422,-0.178 0.425,-0.198 0.425,-0.219C0.425,-0.24 0.422,-0.26 0.415,-0.278C0.408,-0.296 0.398,-0.312 0.385,-0.325C0.372,-0.338 0.356,-0.348 0.338,-0.355C0.32,-0.362 0.3,-0.366 0.278,-0.366C0.256,-0.366 0.236,-0.362 0.218,-0.355C0.2,-0.348 0.185,-0.338 0.172,-0.325C0.159,-0.312 0.149,-0.296 0.142,-0.278C0.135,-0.26 0.131,-0.24 0.131,-0.219Z" style="fill-rule:nonzero;"/>
            </g>
        </g>
        <g transform="matrix(1.14758,0,0,1.14758,469.256,-352.769)">
            <g transform="matrix(30.5742,0,0,30.5742,696.262,832.94)">
                <path d="M0.046,-0.102L0.33,-0.384C0.34,-0.393 0.35,-0.404 0.359,-0.415C0.368,-0.426 0.377,-0.437 0.384,-0.449C0.391,-0.461 0.397,-0.474 0.402,-0.487C0.406,-0.5 0.408,-0.514 0.408,-0.529C0.408,-0.546 0.405,-0.562 0.399,-0.576C0.392,-0.59 0.384,-0.602 0.373,-0.612C0.362,-0.621 0.349,-0.629 0.334,-0.634C0.319,-0.639 0.303,-0.642 0.286,-0.642C0.251,-0.642 0.223,-0.632 0.2,-0.613C0.177,-0.594 0.163,-0.567 0.157,-0.533L0.053,-0.542C0.058,-0.573 0.067,-0.6 0.081,-0.624C0.094,-0.647 0.111,-0.666 0.132,-0.681C0.152,-0.696 0.175,-0.708 0.202,-0.715C0.228,-0.722 0.256,-0.726 0.287,-0.726C0.318,-0.726 0.347,-0.722 0.374,-0.714C0.401,-0.705 0.424,-0.693 0.445,-0.677C0.465,-0.66 0.481,-0.64 0.493,-0.616C0.504,-0.591 0.51,-0.563 0.51,-0.53C0.51,-0.507 0.507,-0.485 0.5,-0.465C0.493,-0.444 0.483,-0.425 0.472,-0.407C0.461,-0.389 0.448,-0.372 0.433,-0.356C0.418,-0.34 0.403,-0.324 0.387,-0.309L0.154,-0.084L0.51,-0.084L0.51,-0L0.046,-0L0.046,-0.102Z" style="fill-rule:nonzero;"/>
            </g>
        </g>
        <g transform="matrix(1.14758,0,0,1.14758,234.039,-352.769)">
            <g transform="matrix(30.5742,0,0,30.5742,696.262,832.94)">
                <path d="M0.336,-0.156L0.034,-0.156L0.034,-0.254L0.316,-0.708L0.432,-0.708L0.432,-0.24L0.532,-0.24L0.532,-0.156L0.432,-0.156L0.432,-0L0.336,-0L0.336,-0.156ZM0.336,-0.594L0.334,-0.594L0.118,-0.24L0.336,-0.24L0.336,-0.594Z" style="fill-rule:nonzero;"/>
            </g>
        </g>
        <g transform="matrix(1.14758,0,0,1.14758,715.664,-352.769)">
            <g transform="matrix(30.5742,0,0,30.5742,696.262,832.94)">
                <path d="M0.034,-0.354C0.034,-0.38 0.035,-0.407 0.038,-0.435C0.041,-0.463 0.046,-0.491 0.053,-0.518C0.059,-0.545 0.069,-0.57 0.081,-0.595C0.092,-0.62 0.107,-0.641 0.126,-0.66C0.144,-0.678 0.166,-0.693 0.191,-0.704C0.216,-0.715 0.245,-0.72 0.278,-0.72C0.311,-0.72 0.341,-0.715 0.366,-0.704C0.391,-0.693 0.412,-0.678 0.431,-0.66C0.449,-0.641 0.464,-0.62 0.476,-0.595C0.487,-0.57 0.497,-0.545 0.504,-0.518C0.511,-0.491 0.515,-0.463 0.518,-0.435C0.521,-0.407 0.522,-0.38 0.522,-0.354C0.522,-0.317 0.519,-0.277 0.512,-0.234C0.505,-0.191 0.493,-0.152 0.475,-0.115C0.457,-0.078 0.432,-0.048 0.401,-0.024C0.369,0 0.328,0.012 0.278,0.012C0.228,0.012 0.187,0 0.156,-0.024C0.124,-0.048 0.099,-0.078 0.081,-0.115C0.063,-0.152 0.051,-0.191 0.044,-0.234C0.037,-0.277 0.034,-0.317 0.034,-0.354ZM0.13,-0.354C0.13,-0.331 0.132,-0.303 0.135,-0.271C0.138,-0.239 0.144,-0.208 0.154,-0.179C0.164,-0.149 0.179,-0.124 0.199,-0.103C0.218,-0.082 0.245,-0.072 0.278,-0.072C0.311,-0.072 0.338,-0.082 0.358,-0.103C0.377,-0.124 0.392,-0.149 0.402,-0.179C0.412,-0.208 0.419,-0.239 0.422,-0.271C0.424,-0.303 0.426,-0.331 0.426,-0.354C0.426,-0.37 0.426,-0.388 0.425,-0.409C0.424,-0.429 0.421,-0.45 0.418,-0.471C0.414,-0.492 0.409,-0.512 0.402,-0.532C0.395,-0.551 0.387,-0.569 0.376,-0.585C0.365,-0.6 0.351,-0.613 0.335,-0.622C0.319,-0.631 0.3,-0.636 0.278,-0.636C0.256,-0.636 0.237,-0.631 0.221,-0.622C0.205,-0.613 0.192,-0.6 0.181,-0.585C0.169,-0.569 0.161,-0.551 0.154,-0.532C0.147,-0.512 0.142,-0.492 0.139,-0.471C0.135,-0.45 0.133,-0.429 0.132,-0.409C0.131,-0.388 0.13,-0.37 0.13,-0.354Z" style="fill-rule:nonzero;"/>
            </g>
        </g>
        <g transform="matrix(1.07011,0,0,1.07011,-215.047,-338.354)">
            <g transform="matrix(143.6,0,0,143.6,381.218,997.284)">
                <path d="M0.091,-0.708L0.337,-0.708C0.368,-0.708 0.396,-0.704 0.423,-0.697C0.449,-0.69 0.472,-0.679 0.491,-0.665C0.509,-0.65 0.525,-0.632 0.536,-0.61C0.547,-0.587 0.552,-0.561 0.552,-0.531C0.552,-0.49 0.541,-0.457 0.518,-0.432C0.495,-0.406 0.466,-0.387 0.43,-0.375L0.43,-0.373C0.451,-0.372 0.471,-0.366 0.49,-0.357C0.509,-0.347 0.525,-0.334 0.539,-0.319C0.552,-0.303 0.563,-0.285 0.571,-0.264C0.579,-0.243 0.583,-0.221 0.583,-0.197C0.583,-0.165 0.576,-0.137 0.564,-0.113C0.551,-0.088 0.533,-0.068 0.51,-0.051C0.487,-0.034 0.461,-0.022 0.431,-0.013C0.401,-0.004 0.369,-0 0.334,-0L0.091,-0L0.091,-0.708ZM0.187,-0.414L0.318,-0.414C0.336,-0.414 0.353,-0.416 0.369,-0.42C0.385,-0.423 0.399,-0.429 0.411,-0.438C0.423,-0.447 0.432,-0.458 0.44,-0.471C0.447,-0.484 0.45,-0.501 0.45,-0.52C0.45,-0.548 0.441,-0.572 0.423,-0.593C0.405,-0.614 0.377,-0.624 0.338,-0.624L0.187,-0.624L0.187,-0.414ZM0.187,-0.084L0.328,-0.084C0.343,-0.084 0.359,-0.086 0.377,-0.089C0.394,-0.091 0.411,-0.097 0.426,-0.107C0.441,-0.115 0.454,-0.128 0.465,-0.143C0.476,-0.158 0.481,-0.179 0.481,-0.204C0.481,-0.246 0.467,-0.278 0.44,-0.299C0.413,-0.32 0.376,-0.33 0.329,-0.33L0.187,-0.33L0.187,-0.084Z" style="fill-rule:nonzero;"/>
            </g>
            <g transform="matrix(143.6,0,0,143.6,471.686,997.284)">
                <path d="M0.046,-0.102L0.33,-0.384C0.34,-0.393 0.35,-0.404 0.359,-0.415C0.368,-0.426 0.377,-0.437 0.384,-0.449C0.391,-0.461 0.397,-0.474 0.402,-0.487C0.406,-0.5 0.408,-0.514 0.408,-0.529C0.408,-0.546 0.405,-0.562 0.399,-0.576C0.392,-0.59 0.384,-0.602 0.373,-0.612C0.362,-0.621 0.349,-0.629 0.334,-0.634C0.319,-0.639 0.303,-0.642 0.286,-0.642C0.251,-0.642 0.223,-0.632 0.2,-0.613C0.177,-0.594 0.163,-0.567 0.157,-0.533L0.053,-0.542C0.058,-0.573 0.067,-0.6 0.081,-0.624C0.094,-0.647 0.111,-0.666 0.132,-0.681C0.152,-0.696 0.175,-0.708 0.202,-0.715C0.228,-0.722 0.256,-0.726 0.287,-0.726C0.318,-0.726 0.347,-0.722 0.374,-0.714C0.401,-0.705 0.424,-0.693 0.445,-0.677C0.465,-0.66 0.481,-0.64 0.493,-0.616C0.504,-0.591 0.51,-0.563 0.51,-0.53C0.51,-0.507 0.507,-0.485 0.5,-0.465C0.493,-0.444 0.483,-0.425 0.472,-0.407C0.461,-0.389 0.448,-0.372 0.433,-0.356C0.418,-0.34 0.403,-0.324 0.387,-0.309L0.154,-0.084L0.51,-0.084L0.51,-0L0.046,-0L0.046,-0.102Z" style="fill-rule:nonzero;"/>
            </g>
            <g transform="matrix(143.6,0,0,143.6,551.528,997.284)">
                <path d="M0.174,-0.708L0.174,-0.274C0.174,-0.252 0.177,-0.229 0.183,-0.206C0.189,-0.182 0.199,-0.16 0.213,-0.14C0.227,-0.12 0.245,-0.104 0.268,-0.091C0.291,-0.078 0.319,-0.072 0.352,-0.072C0.385,-0.072 0.413,-0.078 0.436,-0.091C0.459,-0.104 0.477,-0.12 0.491,-0.14C0.505,-0.16 0.515,-0.182 0.521,-0.206C0.527,-0.229 0.53,-0.252 0.53,-0.274L0.53,-0.708L0.626,-0.708L0.626,-0.259C0.626,-0.218 0.619,-0.18 0.605,-0.147C0.591,-0.113 0.572,-0.084 0.547,-0.059C0.522,-0.034 0.493,-0.015 0.46,-0.002C0.427,0.011 0.391,0.018 0.352,0.018C0.313,0.018 0.277,0.011 0.244,-0.002C0.211,-0.015 0.182,-0.034 0.157,-0.059C0.132,-0.084 0.113,-0.113 0.099,-0.147C0.085,-0.18 0.078,-0.218 0.078,-0.259L0.078,-0.708L0.174,-0.708Z" style="fill-rule:nonzero;"/>
            </g>
            <g transform="matrix(143.6,0,0,143.6,692.544,997.284)">
                <path d="M0.254,-0.69C0.233,-0.656 0.214,-0.623 0.198,-0.592C0.182,-0.561 0.169,-0.529 0.158,-0.497C0.147,-0.464 0.139,-0.431 0.134,-0.396C0.129,-0.361 0.126,-0.324 0.126,-0.284C0.126,-0.211 0.137,-0.14 0.158,-0.071C0.179,-0.002 0.211,0.061 0.254,0.12L0.194,0.16C0.148,0.097 0.112,0.028 0.087,-0.047C0.061,-0.122 0.048,-0.201 0.048,-0.284C0.048,-0.361 0.06,-0.437 0.085,-0.514C0.11,-0.591 0.146,-0.662 0.194,-0.728L0.254,-0.69Z" style="fill-rule:nonzero;"/>
            </g>
        </g>
        <g transform="matrix(1.07011,0,0,1.07011,1166.96,-338.354)">
            <g transform="matrix(143.6,0,0,143.6,381.218,997.284)">
                <path d="M0.024,0.122C0.045,0.088 0.064,0.055 0.08,0.024C0.096,-0.007 0.109,-0.039 0.12,-0.072C0.131,-0.104 0.139,-0.137 0.144,-0.172C0.149,-0.207 0.152,-0.244 0.152,-0.284C0.152,-0.357 0.141,-0.428 0.12,-0.497C0.099,-0.566 0.067,-0.629 0.024,-0.688L0.084,-0.728C0.13,-0.665 0.166,-0.596 0.192,-0.521C0.217,-0.446 0.23,-0.367 0.23,-0.284C0.23,-0.207 0.218,-0.131 0.193,-0.054C0.168,0.023 0.132,0.094 0.084,0.16L0.024,0.122Z" style="fill-rule:nonzero;"/>
            </g>
        </g>
        <g transform="matrix(1.34368,0,0,1.34368,-279.469,-574.089)">
            <g transform="matrix(86.128,0,0,86.128,673.765,967.972)">
                <path d="M0.27,-0.598L0.14,-0.478L0.084,-0.545L0.281,-0.708L0.366,-0.708L0.366,-0L0.27,-0L0.27,-0.598Z" style="fill-rule:nonzero;"/>
            </g>
        </g>
        <g transform="matrix(1.34368,0,0,1.34368,196.601,-574.089)">
            <g transform="matrix(86.128,0,0,86.128,673.765,967.972)">
                <path d="M0.27,-0.598L0.14,-0.478L0.084,-0.545L0.281,-0.708L0.366,-0.708L0.366,-0L0.27,-0L0.27,-0.598Z" style="fill-rule:nonzero;"/>
            </g>
        </g>
        <g transform="matrix(1.34368,0,0,1.34368,-37.0759,-574.089)">
            <g transform="matrix(86.128,0,0,86.128,673.765,967.972)">
                <path d="M0.27,-0.598L0.14,-0.478L0.084,-0.545L0.281,-0.708L0.366,-0.708L0.366,-0L0.27,-0L0.27,-0.598Z" style="fill-rule:nonzero;"/>
            </g>
        </g>
        <g transform="matrix(1.34368,0,0,1.34368,438.994,-574.089)">
            <g transform="matrix(86.128,0,0,86.128,673.765,967.972)">
                <path d="M0.034,-0.354C0.034,-0.38 0.035,-0.407 0.038,-0.435C0.041,-0.463 0.046,-0.491 0.053,-0.518C0.059,-0.545 0.069,-0.57 0.081,-0.595C0.092,-0.62 0.107,-0.641 0.126,-0.66C0.144,-0.678 0.166,-0.693 0.191,-0.704C0.216,-0.715 0.245,-0.72 0.278,-0.72C0.311,-0.72 0.341,-0.715 0.366,-0.704C0.391,-0.693 0.412,-0.678 0.431,-0.66C0.449,-0.641 0.464,-0.62 0.476,-0.595C0.487,-0.57 0.497,-0.545 0.504,-0.518C0.511,-0.491 0.515,-0.463 0.518,-0.435C0.521,-0.407 0.522,-0.38 0.522,-0.354C0.522,-0.317 0.519,-0.277 0.512,-0.234C0.505,-0.191 0.493,-0.152 0.475,-0.115C0.457,-0.078 0.432,-0.048 0.401,-0.024C0.369,0 0.328,0.012 0.278,0.012C0.228,0.012 0.187,0 0.156,-0.024C0.124,-0.048 0.099,-0.078 0.081,-0.115C0.063,-0.152 0.051,-0.191 0.044,-0.234C0.037,-0.277 0.034,-0.317 0.034,-0.354ZM0.13,-0.354C0.13,-0.331 0.132,-0.303 0.135,-0.271C0.138,-0.239 0.144,-0.208 0.154,-0.179C0.164,-0.149 0.179,-0.124 0.199,-0.103C0.218,-0.082 0.245,-0.072 0.278,-0.072C0.311,-0.072 0.338,-0.082 0.358,-0.103C0.377,-0.124 0.392,-0.149 0.402,-0.179C0.412,-0.208 0.419,-0.239 0.422,-0.271C0.424,-0.303 0.426,-0.331 0.426,-0.354C0.426,-0.37 0.426,-0.388 0.425,-0.409C0.424,-0.429 0.421,-0.45 0.418,-0.471C0.414,-0.492 0.409,-0.512 0.402,-0.532C0.395,-0.551 0.387,-0.569 0.376,-0.585C0.365,-0.6 0.351,-0.613 0.335,-0.622C0.319,-0.631 0.3,-0.636 0.278,-0.636C0.256,-0.636 0.237,-0.631 0.221,-0.622C0.205,-0.613 0.192,-0.6 0.181,-0.585C0.169,-0.569 0.161,-0.551 0.154,-0.532C0.147,-0.512 0.142,-0.492 0.139,-0.471C0.135,-0.45 0.133,-0.429 0.132,-0.409C0.131,-0.388 0.13,-0.37 0.13,-0.354Z" style="fill-rule:nonzero;"/>
            </g>
        </g>
        <g transform="matrix(1.34368,0,0,1.34368,-157.772,-574.089)">
            <g transform="matrix(86.128,0,0,86.128,673.765,967.972)">
                <path d="M0.034,-0.354C0.034,-0.38 0.035,-0.407 0.038,-0.435C0.041,-0.463 0.046,-0.491 0.053,-0.518C0.059,-0.545 0.069,-0.57 0.081,-0.595C0.092,-0.62 0.107,-0.641 0.126,-0.66C0.144,-0.678 0.166,-0.693 0.191,-0.704C0.216,-0.715 0.245,-0.72 0.278,-0.72C0.311,-0.72 0.341,-0.715 0.366,-0.704C0.391,-0.693 0.412,-0.678 0.431,-0.66C0.449,-0.641 0.464,-0.62 0.476,-0.595C0.487,-0.57 0.497,-0.545 0.504,-0.518C0.511,-0.491 0.515,-0.463 0.518,-0.435C0.521,-0.407 0.522,-0.38 0.522,-0.354C0.522,-0.317 0.519,-0.277 0.512,-0.234C0.505,-0.191 0.493,-0.152 0.475,-0.115C0.457,-0.078 0.432,-0.048 0.401,-0.024C0.369,0 0.328,0.012 0.278,0.012C0.228,0.012 0.187,0 0.156,-0.024C0.124,-0.048 0.099,-0.078 0.081,-0.115C0.063,-0.152 0.051,-0.191 0.044,-0.234C0.037,-0.277 0.034,-0.317 0.034,-0.354ZM0.13,-0.354C0.13,-0.331 0.132,-0.303 0.135,-0.271C0.138,-0.239 0.144,-0.208 0.154,-0.179C0.164,-0.149 0.179,-0.124 0.199,-0.103C0.218,-0.082 0.245,-0.072 0.278,-0.072C0.311,-0.072 0.338,-0.082 0.358,-0.103C0.377,-0.124 0.392,-0.149 0.402,-0.179C0.412,-0.208 0.419,-0.239 0.422,-0.271C0.424,-0.303 0.426,-0.331 0.426,-0.354C0.426,-0.37 0.426,-0.388 0.425,-0.409C0.424,-0.429 0.421,-0.45 0.418,-0.471C0.414,-0.492 0.409,-0.512 0.402,-0.532C0.395,-0.551 0.387,-0.569 0.376,-0.585C0.365,-0.6 0.351,-0.613 0.335,-0.622C0.319,-0.631 0.3,-0.636 0.278,-0.636C0.256,-0.636 0.237,-0.631 0.221,-0.622C0.205,-0.613 0.192,-0.6 0.181,-0.585C0.169,-0.569 0.161,-0.551 0.154,-0.532C0.147,-0.512 0.142,-0.492 0.139,-0.471C0.135,-0.45 0.133,-0.429 0.132,-0.409C0.131,-0.388 0.13,-0.37 0.13,-0.354Z" style="fill-rule:nonzero;"/>
            </g>
        </g>
        <g transform="matrix(1.34368,0,0,1.34368,318.298,-574.089)">
            <g transform="matrix(86.128,0,0,86.128,673.765,967.972)">
                <path d="M0.034,-0.354C0.034,-0.38 0.035,-0.407 0.038,-0.435C0.041,-0.463 0.046,-0.491 0.053,-0.518C0.059,-0.545 0.069,-0.57 0.081,-0.595C0.092,-0.62 0.107,-0.641 0.126,-0.66C0.144,-0.678 0.166,-0.693 0.191,-0.704C0.216,-0.715 0.245,-0.72 0.278,-0.72C0.311,-0.72 0.341,-0.715 0.366,-0.704C0.391,-0.693 0.412,-0.678 0.431,-0.66C0.449,-0.641 0.464,-0.62 0.476,-0.595C0.487,-0.57 0.497,-0.545 0.504,-0.518C0.511,-0.491 0.515,-0.463 0.518,-0.435C0.521,-0.407 0.522,-0.38 0.522,-0.354C0.522,-0.317 0.519,-0.277 0.512,-0.234C0.505,-0.191 0.493,-0.152 0.475,-0.115C0.457,-0.078 0.432,-0.048 0.401,-0.024C0.369,0 0.328,0.012 0.278,0.012C0.228,0.012 0.187,0 0.156,-0.024C0.124,-0.048 0.099,-0.078 0.081,-0.115C0.063,-0.152 0.051,-0.191 0.044,-0.234C0.037,-0.277 0.034,-0.317 0.034,-0.354ZM0.13,-0.354C0.13,-0.331 0.132,-0.303 0.135,-0.271C0.138,-0.239 0.144,-0.208 0.154,-0.179C0.164,-0.149 0.179,-0.124 0.199,-0.103C0.218,-0.082 0.245,-0.072 0.278,-0.072C0.311,-0.072 0.338,-0.082 0.358,-0.103C0.377,-0.124 0.392,-0.149 0.402,-0.179C0.412,-0.208 0.419,-0.239 0.422,-0.271C0.424,-0.303 0.426,-0.331 0.426,-0.354C0.426,-0.37 0.426,-0.388 0.425,-0.409C0.424,-0.429 0.421,-0.45 0.418,-0.471C0.414,-0.492 0.409,-0.512 0.402,-0.532C0.395,-0.551 0.387,-0.569 0.376,-0.585C0.365,-0.6 0.351,-0.613 0.335,-0.622C0.319,-0.631 0.3,-0.636 0.278,-0.636C0.256,-0.636 0.237,-0.631 0.221,-0.622C0.205,-0.613 0.192,-0.6 0.181,-0.585C0.169,-0.569 0.161,-0.551 0.154,-0.532C0.147,-0.512 0.142,-0.492 0.139,-0.471C0.135,-0.45 0.133,-0.429 0.132,-0.409C0.131,-0.388 0.13,-0.37 0.13,-0.354Z" style="fill-rule:nonzero;"/>
            </g>
        </g>
        <g transform="matrix(1.34368,0,0,1.34368,84.6208,-574.089)">
            <g transform="matrix(86.128,0,0,86.128,673.765,967.972)">
                <path d="M0.034,-0.354C0.034,-0.38 0.035,-0.407 0.038,-0.435C0.041,-0.463 0.046,-0.491 0.053,-0.518C0.059,-0.545 0.069,-0.57 0.081,-0.595C0.092,-0.62 0.107,-0.641 0.126,-0.66C0.144,-0.678 0.166,-0.693 0.191,-0.704C0.216,-0.715 0.245,-0.72 0.278,-0.72C0.311,-0.72 0.341,-0.715 0.366,-0.704C0.391,-0.693 0.412,-0.678 0.431,-0.66C0.449,-0.641 0.464,-0.62 0.476,-0.595C0.487,-0.57 0.497,-0.545 0.504,-0.518C0.511,-0.491 0.515,-0.463 0.518,-0.435C0.521,-0.407 0.522,-0.38 0.522,-0.354C0.522,-0.317 0.519,-0.277 0.512,-0.234C0.505,-0.191 0.493,-0.152 0.475,-0.115C0.457,-0.078 0.432,-0.048 0.401,-0.024C0.369,0 0.328,0.012 0.278,0.012C0.228,0.012 0.187,0 0.156,-0.024C0.124,-0.048 0.099,-0.078 0.081,-0.115C0.063,-0.152 0.051,-0.191 0.044,-0.234C0.037,-0.277 0.034,-0.317 0.034,-0.354ZM0.13,-0.354C0.13,-0.331 0.132,-0.303 0.135,-0.271C0.138,-0.239 0.144,-0.208 0.154,-0.179C0.164,-0.149 0.179,-0.124 0.199,-0.103C0.218,-0.082 0.245,-0.072 0.278,-0.072C0.311,-0.072 0.338,-0.082 0.358,-0.103C0.377,-0.124 0.392,-0.149 0.402,-0.179C0.412,-0.208 0.419,-0.239 0.422,-0.271C0.424,-0.303 0.426,-0.331 0.426,-0.354C0.426,-0.37 0.426,-0.388 0.425,-0.409C0.424,-0.429 0.421,-0.45 0.418,-0.471C0.414,-0.492 0.409,-0.512 0.402,-0.532C0.395,-0.551 0.387,-0.569 0.376,-0.585C0.365,-0.6 0.351,-0.613 0.335,-0.622C0.319,-0.631 0.3,-0.636 0.278,-0.636C0.256,-0.636 0.237,-0.631 0.221,-0.622C0.205,-0.613 0.192,-0.6 0.181,-0.585C0.169,-0.569 0.161,-0.551 0.154,-0.532C0.147,-0.512 0.142,-0.492 0.139,-0.471C0.135,-0.45 0.133,-0.429 0.132,-0.409C0.131,-0.388 0.13,-0.37 0.13,-0.354Z" style="fill-rule:nonzero;"/>
            </g>
        </g>
        <g transform="matrix(1.34368,0,0,1.34368,560.691,-574.089)">
            <g transform="matrix(86.128,0,0,86.128,673.765,967.972)">
                <path d="M0.034,-0.354C0.034,-0.38 0.035,-0.407 0.038,-0.435C0.041,-0.463 0.046,-0.491 0.053,-0.518C0.059,-0.545 0.069,-0.57 0.081,-0.595C0.092,-0.62 0.107,-0.641 0.126,-0.66C0.144,-0.678 0.166,-0.693 0.191,-0.704C0.216,-0.715 0.245,-0.72 0.278,-0.72C0.311,-0.72 0.341,-0.715 0.366,-0.704C0.391,-0.693 0.412,-0.678 0.431,-0.66C0.449,-0.641 0.464,-0.62 0.476,-0.595C0.487,-0.57 0.497,-0.545 0.504,-0.518C0.511,-0.491 0.515,-0.463 0.518,-0.435C0.521,-0.407 0.522,-0.38 0.522,-0.354C0.522,-0.317 0.519,-0.277 0.512,-0.234C0.505,-0.191 0.493,-0.152 0.475,-0.115C0.457,-0.078 0.432,-0.048 0.401,-0.024C0.369,0 0.328,0.012 0.278,0.012C0.228,0.012 0.187,0 0.156,-0.024C0.124,-0.048 0.099,-0.078 0.081,-0.115C0.063,-0.152 0.051,-0.191 0.044,-0.234C0.037,-0.277 0.034,-0.317 0.034,-0.354ZM0.13,-0.354C0.13,-0.331 0.132,-0.303 0.135,-0.271C0.138,-0.239 0.144,-0.208 0.154,-0.179C0.164,-0.149 0.179,-0.124 0.199,-0.103C0.218,-0.082 0.245,-0.072 0.278,-0.072C0.311,-0.072 0.338,-0.082 0.358,-0.103C0.377,-0.124 0.392,-0.149 0.402,-0.179C0.412,-0.208 0.419,-0.239 0.422,-0.271C0.424,-0.303 0.426,-0.331 0.426,-0.354C0.426,-0.37 0.426,-0.388 0.425,-0.409C0.424,-0.429 0.421,-0.45 0.418,-0.471C0.414,-0.492 0.409,-0.512 0.402,-0.532C0.395,-0.551 0.387,-0.569 0.376,-0.585C0.365,-0.6 0.351,-0.613 0.335,-0.622C0.319,-0.631 0.3,-0.636 0.278,-0.636C0.256,-0.636 0.237,-0.631 0.221,-0.622C0.205,-0.613 0.192,-0.6 0.181,-0.585C0.169,-0.569 0.161,-0.551 0.154,-0.532C0.147,-0.512 0.142,-0.492 0.139,-0.471C0.135,-0.45 0.133,-0.429 0.132,-0.409C0.131,-0.388 0.13,-0.37 0.13,-0.354Z" style="fill-rule:nonzero;"/>
            </g>
        </g>
        <g transform="matrix(1,0,0,1,-134.762,-328.508)">
            <g transform="matrix(122.016,0,0,122.016,595.68,1134.36)">
                <path d="M0.278,0.012C0.246,0.012 0.216,0.007 0.188,-0.003C0.159,-0.012 0.135,-0.026 0.114,-0.045C0.093,-0.064 0.077,-0.086 0.065,-0.113C0.053,-0.14 0.047,-0.17 0.047,-0.203C0.047,-0.225 0.05,-0.245 0.058,-0.264C0.065,-0.283 0.074,-0.3 0.086,-0.315C0.098,-0.33 0.112,-0.342 0.129,-0.353C0.145,-0.363 0.163,-0.371 0.182,-0.376L0.182,-0.379C0.169,-0.382 0.155,-0.388 0.142,-0.397C0.129,-0.406 0.117,-0.417 0.107,-0.43C0.096,-0.443 0.088,-0.46 0.081,-0.479C0.074,-0.498 0.071,-0.519 0.071,-0.544C0.071,-0.571 0.077,-0.595 0.088,-0.617C0.099,-0.638 0.114,-0.657 0.133,-0.672C0.152,-0.687 0.173,-0.699 0.199,-0.708C0.224,-0.716 0.25,-0.72 0.278,-0.72C0.306,-0.72 0.333,-0.716 0.358,-0.708C0.383,-0.699 0.405,-0.687 0.424,-0.672C0.443,-0.657 0.458,-0.638 0.469,-0.617C0.48,-0.595 0.485,-0.571 0.485,-0.544C0.485,-0.519 0.482,-0.498 0.475,-0.479C0.468,-0.46 0.46,-0.443 0.45,-0.43C0.439,-0.417 0.427,-0.406 0.414,-0.397C0.401,-0.388 0.387,-0.382 0.374,-0.379L0.374,-0.376C0.393,-0.371 0.411,-0.363 0.428,-0.353C0.444,-0.342 0.458,-0.33 0.47,-0.315C0.482,-0.3 0.492,-0.283 0.499,-0.264C0.505,-0.245 0.509,-0.225 0.509,-0.203C0.509,-0.17 0.503,-0.14 0.491,-0.113C0.479,-0.086 0.463,-0.064 0.442,-0.045C0.421,-0.026 0.397,-0.012 0.369,-0.003C0.34,0.007 0.31,0.012 0.278,0.012ZM0.167,-0.53C0.167,-0.516 0.17,-0.502 0.175,-0.489C0.18,-0.476 0.187,-0.464 0.196,-0.454C0.205,-0.443 0.217,-0.435 0.231,-0.428C0.244,-0.421 0.26,-0.418 0.278,-0.418C0.297,-0.418 0.313,-0.421 0.327,-0.428C0.34,-0.434 0.352,-0.442 0.361,-0.453C0.37,-0.463 0.377,-0.475 0.382,-0.488C0.387,-0.501 0.389,-0.515 0.389,-0.53C0.389,-0.563 0.379,-0.59 0.359,-0.611C0.338,-0.632 0.311,-0.642 0.278,-0.642C0.247,-0.642 0.221,-0.632 0.2,-0.611C0.178,-0.59 0.167,-0.563 0.167,-0.53ZM0.278,-0.072C0.318,-0.072 0.351,-0.084 0.376,-0.109C0.401,-0.133 0.413,-0.164 0.413,-0.203C0.413,-0.224 0.41,-0.243 0.403,-0.26C0.396,-0.276 0.386,-0.29 0.374,-0.301C0.361,-0.312 0.347,-0.32 0.331,-0.326C0.314,-0.331 0.297,-0.334 0.278,-0.334C0.239,-0.333 0.206,-0.321 0.181,-0.297C0.156,-0.272 0.143,-0.241 0.143,-0.203C0.143,-0.182 0.147,-0.164 0.154,-0.148C0.161,-0.131 0.171,-0.117 0.184,-0.107C0.196,-0.095 0.21,-0.087 0.227,-0.081C0.243,-0.075 0.26,-0.072 0.278,-0.072Z" style="fill-rule:nonzero;"/>
            </g>
        </g>
        <g transform="matrix(1,0,0,1,-36.14,-261.821)">
            <g transform="matrix(61.3629,0,0,61.3629,632.105,1074.14)">
                <path d="M0.136,-0.204C0.136,-0.183 0.14,-0.165 0.15,-0.148C0.159,-0.13 0.17,-0.116 0.185,-0.104C0.2,-0.092 0.217,-0.083 0.236,-0.076C0.255,-0.069 0.275,-0.066 0.296,-0.066C0.324,-0.066 0.348,-0.073 0.369,-0.086C0.39,-0.098 0.409,-0.116 0.426,-0.137L0.494,-0.085C0.444,-0.02 0.374,0.012 0.284,0.012C0.247,0.012 0.213,0.006 0.183,-0.007C0.152,-0.02 0.127,-0.037 0.106,-0.06C0.085,-0.082 0.068,-0.108 0.057,-0.139C0.046,-0.169 0.04,-0.202 0.04,-0.237C0.04,-0.272 0.046,-0.305 0.059,-0.336C0.071,-0.366 0.088,-0.392 0.11,-0.415C0.131,-0.437 0.157,-0.454 0.187,-0.467C0.217,-0.48 0.25,-0.486 0.285,-0.486C0.327,-0.486 0.363,-0.479 0.392,-0.464C0.421,-0.449 0.444,-0.43 0.463,-0.407C0.482,-0.383 0.495,-0.356 0.504,-0.327C0.512,-0.297 0.516,-0.267 0.516,-0.236L0.516,-0.204L0.136,-0.204ZM0.42,-0.276C0.419,-0.296 0.416,-0.314 0.411,-0.331C0.405,-0.348 0.396,-0.362 0.385,-0.375C0.374,-0.387 0.36,-0.397 0.343,-0.404C0.326,-0.411 0.306,-0.414 0.283,-0.414C0.261,-0.414 0.241,-0.41 0.223,-0.402C0.204,-0.393 0.189,-0.382 0.176,-0.369C0.163,-0.356 0.154,-0.341 0.147,-0.325C0.139,-0.308 0.136,-0.292 0.136,-0.276L0.42,-0.276Z" style="fill-rule:nonzero;"/>
            </g>
            <g transform="matrix(61.3629,0,0,61.3629,666.223,1074.14)">
                <path d="M0.198,-0.253L0.03,-0.474L0.146,-0.474L0.261,-0.306L0.374,-0.474L0.483,-0.474L0.321,-0.253L0.513,-0L0.397,-0L0.257,-0.199L0.117,-0L0.006,-0L0.198,-0.253Z" style="fill-rule:nonzero;"/>
            </g>
            <g transform="matrix(61.3629,0,0,61.3629,698.071,1074.14)">
                <path d="M0.07,-0.416C0.095,-0.439 0.125,-0.457 0.158,-0.469C0.191,-0.48 0.225,-0.486 0.258,-0.486C0.293,-0.486 0.323,-0.482 0.348,-0.473C0.373,-0.464 0.393,-0.453 0.409,-0.438C0.425,-0.423 0.437,-0.407 0.445,-0.388C0.452,-0.369 0.456,-0.349 0.456,-0.328L0.456,-0.086C0.456,-0.069 0.456,-0.054 0.457,-0.04C0.458,-0.026 0.459,-0.013 0.46,-0L0.38,-0C0.378,-0.024 0.377,-0.048 0.377,-0.072L0.375,-0.072C0.355,-0.041 0.331,-0.02 0.304,-0.007C0.277,0.006 0.245,0.012 0.209,0.012C0.187,0.012 0.166,0.009 0.146,0.003C0.126,-0.003 0.109,-0.012 0.094,-0.024C0.079,-0.036 0.067,-0.051 0.058,-0.069C0.049,-0.086 0.045,-0.107 0.045,-0.13C0.045,-0.161 0.052,-0.186 0.066,-0.207C0.079,-0.228 0.098,-0.245 0.122,-0.258C0.145,-0.271 0.173,-0.28 0.205,-0.286C0.236,-0.291 0.27,-0.294 0.306,-0.294L0.372,-0.294L0.372,-0.314C0.372,-0.326 0.37,-0.338 0.365,-0.35C0.36,-0.362 0.353,-0.373 0.344,-0.383C0.335,-0.392 0.323,-0.4 0.309,-0.406C0.295,-0.411 0.278,-0.414 0.259,-0.414C0.242,-0.414 0.227,-0.412 0.214,-0.409C0.201,-0.406 0.189,-0.402 0.178,-0.397C0.167,-0.392 0.158,-0.386 0.149,-0.379C0.14,-0.372 0.132,-0.366 0.124,-0.36L0.07,-0.416ZM0.324,-0.228C0.303,-0.228 0.281,-0.227 0.259,-0.225C0.236,-0.222 0.216,-0.218 0.198,-0.211C0.179,-0.204 0.164,-0.195 0.153,-0.183C0.141,-0.171 0.135,-0.156 0.135,-0.137C0.135,-0.11 0.144,-0.09 0.163,-0.078C0.181,-0.066 0.206,-0.06 0.237,-0.06C0.262,-0.06 0.283,-0.064 0.3,-0.073C0.317,-0.081 0.331,-0.092 0.342,-0.105C0.353,-0.118 0.36,-0.133 0.365,-0.15C0.37,-0.166 0.372,-0.182 0.372,-0.198L0.372,-0.228L0.324,-0.228Z" style="fill-rule:nonzero;"/>
            </g>
            <g transform="matrix(61.3629,0,0,61.3629,729.918,1074.14)">
                <path d="M0.068,-0.474L0.152,-0.474L0.152,-0.4L0.154,-0.4C0.156,-0.407 0.161,-0.415 0.17,-0.425C0.178,-0.435 0.189,-0.444 0.202,-0.454C0.215,-0.463 0.23,-0.47 0.248,-0.477C0.265,-0.483 0.285,-0.486 0.306,-0.486C0.341,-0.486 0.371,-0.479 0.395,-0.464C0.419,-0.449 0.439,-0.427 0.454,-0.398C0.469,-0.427 0.491,-0.449 0.519,-0.464C0.547,-0.479 0.575,-0.486 0.604,-0.486C0.641,-0.486 0.671,-0.48 0.694,-0.468C0.717,-0.456 0.736,-0.44 0.749,-0.421C0.762,-0.401 0.772,-0.379 0.777,-0.354C0.782,-0.329 0.784,-0.303 0.784,-0.276L0.784,-0L0.694,-0L0.694,-0.264C0.694,-0.282 0.693,-0.299 0.691,-0.316C0.688,-0.333 0.683,-0.347 0.676,-0.36C0.669,-0.373 0.658,-0.383 0.645,-0.391C0.632,-0.398 0.614,-0.402 0.592,-0.402C0.549,-0.402 0.518,-0.389 0.499,-0.362C0.48,-0.335 0.471,-0.301 0.471,-0.259L0.471,-0L0.381,-0L0.381,-0.248C0.381,-0.271 0.38,-0.291 0.378,-0.31C0.375,-0.329 0.371,-0.345 0.364,-0.359C0.357,-0.372 0.346,-0.383 0.334,-0.391C0.321,-0.398 0.303,-0.402 0.281,-0.402C0.265,-0.402 0.25,-0.399 0.235,-0.393C0.22,-0.386 0.206,-0.377 0.195,-0.364C0.184,-0.351 0.175,-0.335 0.168,-0.316C0.161,-0.296 0.158,-0.273 0.158,-0.246L0.158,-0L0.068,-0L0.068,-0.474Z" style="fill-rule:nonzero;"/>
            </g>
            <g transform="matrix(61.3629,0,0,61.3629,782.199,1074.14)">
                <path d="M0.068,-0.474L0.158,-0.474L0.158,-0.406L0.16,-0.406C0.177,-0.431 0.201,-0.451 0.232,-0.465C0.262,-0.479 0.293,-0.486 0.325,-0.486C0.362,-0.486 0.395,-0.48 0.425,-0.467C0.454,-0.454 0.48,-0.437 0.501,-0.414C0.522,-0.391 0.538,-0.365 0.549,-0.335C0.56,-0.304 0.566,-0.272 0.566,-0.237C0.566,-0.202 0.56,-0.169 0.549,-0.139C0.538,-0.108 0.522,-0.082 0.501,-0.06C0.48,-0.037 0.454,-0.02 0.425,-0.007C0.395,0.006 0.362,0.012 0.325,0.012C0.291,0.012 0.259,0.005 0.229,-0.01C0.199,-0.024 0.176,-0.043 0.16,-0.068L0.158,-0.068L0.158,0.282L0.068,0.282L0.068,-0.474ZM0.314,-0.402C0.29,-0.402 0.268,-0.398 0.249,-0.39C0.23,-0.381 0.213,-0.37 0.2,-0.356C0.187,-0.341 0.176,-0.324 0.169,-0.304C0.162,-0.283 0.158,-0.261 0.158,-0.237C0.158,-0.213 0.162,-0.191 0.169,-0.171C0.176,-0.15 0.187,-0.133 0.2,-0.119C0.213,-0.104 0.23,-0.093 0.249,-0.085C0.268,-0.076 0.29,-0.072 0.314,-0.072C0.338,-0.072 0.36,-0.076 0.379,-0.085C0.398,-0.093 0.415,-0.104 0.428,-0.119C0.441,-0.133 0.452,-0.15 0.459,-0.171C0.466,-0.191 0.47,-0.213 0.47,-0.237C0.47,-0.261 0.466,-0.283 0.459,-0.304C0.452,-0.324 0.441,-0.341 0.428,-0.356C0.415,-0.37 0.398,-0.381 0.379,-0.39C0.36,-0.398 0.338,-0.402 0.314,-0.402Z" style="fill-rule:nonzero;"/>
            </g>
            <g transform="matrix(61.3629,0,0,61.3629,819.692,1074.14)">
                <rect x="0.075" y="-0.756" width="0.09" height="0.756" style="fill-rule:nonzero;"/>
            </g>
            <g transform="matrix(61.3629,0,0,61.3629,834.419,1074.14)">
                <path d="M0.136,-0.204C0.136,-0.183 0.14,-0.165 0.15,-0.148C0.159,-0.13 0.17,-0.116 0.185,-0.104C0.2,-0.092 0.217,-0.083 0.236,-0.076C0.255,-0.069 0.275,-0.066 0.296,-0.066C0.324,-0.066 0.348,-0.073 0.369,-0.086C0.39,-0.098 0.409,-0.116 0.426,-0.137L0.494,-0.085C0.444,-0.02 0.374,0.012 0.284,0.012C0.247,0.012 0.213,0.006 0.183,-0.007C0.152,-0.02 0.127,-0.037 0.106,-0.06C0.085,-0.082 0.068,-0.108 0.057,-0.139C0.046,-0.169 0.04,-0.202 0.04,-0.237C0.04,-0.272 0.046,-0.305 0.059,-0.336C0.071,-0.366 0.088,-0.392 0.11,-0.415C0.131,-0.437 0.157,-0.454 0.187,-0.467C0.217,-0.48 0.25,-0.486 0.285,-0.486C0.327,-0.486 0.363,-0.479 0.392,-0.464C0.421,-0.449 0.444,-0.43 0.463,-0.407C0.482,-0.383 0.495,-0.356 0.504,-0.327C0.512,-0.297 0.516,-0.267 0.516,-0.236L0.516,-0.204L0.136,-0.204ZM0.42,-0.276C0.419,-0.296 0.416,-0.314 0.411,-0.331C0.405,-0.348 0.396,-0.362 0.385,-0.375C0.374,-0.387 0.36,-0.397 0.343,-0.404C0.326,-0.411 0.306,-0.414 0.283,-0.414C0.261,-0.414 0.241,-0.41 0.223,-0.402C0.204,-0.393 0.189,-0.382 0.176,-0.369C0.163,-0.356 0.154,-0.341 0.147,-0.325C0.139,-0.308 0.136,-0.292 0.136,-0.276L0.42,-0.276Z" style="fill-rule:nonzero;"/>
            </g>
            <g transform="matrix(61.3629,0,0,61.3629,885.595,1074.14)">
                <path d="M0.068,-0.756L0.158,-0.756L0.158,-0.406L0.16,-0.406C0.176,-0.431 0.199,-0.45 0.229,-0.465C0.259,-0.479 0.291,-0.486 0.325,-0.486C0.362,-0.486 0.395,-0.48 0.425,-0.467C0.454,-0.454 0.48,-0.437 0.501,-0.415C0.522,-0.392 0.538,-0.366 0.549,-0.336C0.56,-0.305 0.566,-0.272 0.566,-0.237C0.566,-0.202 0.56,-0.169 0.549,-0.139C0.538,-0.109 0.522,-0.083 0.501,-0.06C0.48,-0.037 0.454,-0.02 0.425,-0.007C0.395,0.006 0.362,0.012 0.325,0.012C0.293,0.012 0.262,0.005 0.232,-0.009C0.201,-0.023 0.177,-0.043 0.16,-0.068L0.158,-0.068L0.158,-0L0.068,-0L0.068,-0.756ZM0.314,-0.072C0.338,-0.072 0.36,-0.076 0.379,-0.085C0.398,-0.093 0.415,-0.104 0.428,-0.119C0.441,-0.133 0.452,-0.15 0.459,-0.171C0.466,-0.191 0.47,-0.213 0.47,-0.237C0.47,-0.261 0.466,-0.283 0.459,-0.304C0.452,-0.324 0.441,-0.341 0.428,-0.356C0.415,-0.37 0.398,-0.381 0.379,-0.39C0.36,-0.398 0.338,-0.402 0.314,-0.402C0.29,-0.402 0.268,-0.398 0.249,-0.39C0.23,-0.381 0.213,-0.37 0.2,-0.356C0.187,-0.341 0.176,-0.324 0.169,-0.304C0.162,-0.283 0.158,-0.261 0.158,-0.237C0.158,-0.213 0.162,-0.191 0.169,-0.171C0.176,-0.15 0.187,-0.133 0.2,-0.119C0.213,-0.104 0.23,-0.093 0.249,-0.085C0.268,-0.076 0.29,-0.072 0.314,-0.072Z" style="fill-rule:nonzero;"/>
            </g>
            <g transform="matrix(61.3629,0,0,61.3629,923.088,1074.14)">
                <path d="M0.011,-0.474L0.115,-0.474L0.256,-0.104L0.258,-0.104L0.392,-0.474L0.489,-0.474L0.264,0.102C0.256,0.123 0.248,0.141 0.239,0.159C0.23,0.175 0.22,0.19 0.208,0.202C0.196,0.214 0.182,0.223 0.165,0.23C0.148,0.237 0.127,0.24 0.102,0.24C0.089,0.24 0.075,0.239 0.062,0.238C0.048,0.236 0.035,0.232 0.022,0.227L0.033,0.145C0.051,0.152 0.069,0.156 0.087,0.156C0.101,0.156 0.113,0.154 0.123,0.151C0.132,0.147 0.14,0.141 0.148,0.135C0.155,0.128 0.16,0.119 0.165,0.11C0.17,0.101 0.174,0.09 0.179,0.078L0.208,0.003L0.011,-0.474Z" style="fill-rule:nonzero;"/>
            </g>
            <g transform="matrix(61.3629,0,0,61.3629,953.77,1074.14)">
                <path d="M0.322,-0.396L0.193,-0.396L0.193,-0.181C0.193,-0.168 0.193,-0.155 0.194,-0.142C0.195,-0.129 0.197,-0.117 0.202,-0.107C0.206,-0.096 0.213,-0.088 0.222,-0.082C0.231,-0.075 0.244,-0.072 0.261,-0.072C0.272,-0.072 0.283,-0.073 0.294,-0.075C0.305,-0.077 0.316,-0.081 0.325,-0.086L0.325,-0.004C0.314,0.002 0.301,0.006 0.284,0.009C0.267,0.011 0.253,0.012 0.244,0.012C0.209,0.012 0.183,0.007 0.164,-0.003C0.145,-0.012 0.131,-0.025 0.122,-0.04C0.113,-0.055 0.107,-0.073 0.106,-0.092C0.104,-0.111 0.103,-0.13 0.103,-0.149L0.103,-0.396L-0.001,-0.396L-0.001,-0.474L0.103,-0.474L0.103,-0.607L0.193,-0.607L0.193,-0.474L0.322,-0.474L0.322,-0.396Z" style="fill-rule:nonzero;"/>
            </g>
            <g transform="matrix(61.3629,0,0,61.3629,976.474,1074.14)">
                <path d="M0.136,-0.204C0.136,-0.183 0.14,-0.165 0.15,-0.148C0.159,-0.13 0.17,-0.116 0.185,-0.104C0.2,-0.092 0.217,-0.083 0.236,-0.076C0.255,-0.069 0.275,-0.066 0.296,-0.066C0.324,-0.066 0.348,-0.073 0.369,-0.086C0.39,-0.098 0.409,-0.116 0.426,-0.137L0.494,-0.085C0.444,-0.02 0.374,0.012 0.284,0.012C0.247,0.012 0.213,0.006 0.183,-0.007C0.152,-0.02 0.127,-0.037 0.106,-0.06C0.085,-0.082 0.068,-0.108 0.057,-0.139C0.046,-0.169 0.04,-0.202 0.04,-0.237C0.04,-0.272 0.046,-0.305 0.059,-0.336C0.071,-0.366 0.088,-0.392 0.11,-0.415C0.131,-0.437 0.157,-0.454 0.187,-0.467C0.217,-0.48 0.25,-0.486 0.285,-0.486C0.327,-0.486 0.363,-0.479 0.392,-0.464C0.421,-0.449 0.444,-0.43 0.463,-0.407C0.482,-0.383 0.495,-0.356 0.504,-0.327C0.512,-0.297 0.516,-0.267 0.516,-0.236L0.516,-0.204L0.136,-0.204ZM0.42,-0.276C0.419,-0.296 0.416,-0.314 0.411,-0.331C0.405,-0.348 0.396,-0.362 0.385,-0.375C0.374,-0.387 0.36,-0.397 0.343,-0.404C0.326,-0.411 0.306,-0.414 0.283,-0.414C0.261,-0.414 0.241,-0.41 0.223,-0.402C0.204,-0.393 0.189,-0.382 0.176,-0.369C0.163,-0.356 0.154,-0.341 0.147,-0.325C0.139,-0.308 0.136,-0.292 0.136,-0.276L0.42,-0.276Z" style="fill-rule:nonzero;"/>
            </g>
        </g>
        <g transform="matrix(1,0,0,1,-54.7094,-227.76)">
            <g transform="matrix(61.3629,0,0,61.3629,648.205,757.511)">
                <path d="M0.084,-0.708L0.227,-0.708L0.452,-0.172L0.456,-0.172L0.679,-0.708L0.822,-0.708L0.822,-0L0.726,-0L0.726,-0.582L0.724,-0.582L0.485,-0L0.421,-0L0.182,-0.582L0.18,-0.582L0.18,-0L0.084,-0L0.084,-0.708Z" style="fill-rule:nonzero;"/>
            </g>
            <g transform="matrix(61.3629,0,0,61.3629,703.8,757.511)">
                <path d="M0.112,-0.148C0.129,-0.122 0.152,-0.103 0.179,-0.091C0.206,-0.078 0.233,-0.072 0.262,-0.072C0.278,-0.072 0.294,-0.075 0.311,-0.08C0.328,-0.085 0.343,-0.092 0.357,-0.102C0.37,-0.112 0.381,-0.124 0.39,-0.139C0.399,-0.154 0.403,-0.171 0.403,-0.19C0.403,-0.217 0.394,-0.238 0.377,-0.253C0.36,-0.267 0.338,-0.279 0.313,-0.289C0.287,-0.298 0.259,-0.308 0.229,-0.317C0.198,-0.326 0.17,-0.338 0.145,-0.354C0.119,-0.37 0.097,-0.392 0.08,-0.419C0.063,-0.446 0.054,-0.482 0.054,-0.528C0.054,-0.549 0.058,-0.571 0.068,-0.594C0.077,-0.617 0.091,-0.639 0.11,-0.658C0.129,-0.677 0.154,-0.694 0.185,-0.707C0.215,-0.72 0.251,-0.726 0.294,-0.726C0.333,-0.726 0.37,-0.721 0.405,-0.71C0.44,-0.699 0.471,-0.678 0.498,-0.645L0.42,-0.574C0.408,-0.593 0.391,-0.608 0.369,-0.619C0.347,-0.63 0.322,-0.636 0.294,-0.636C0.267,-0.636 0.245,-0.632 0.228,-0.626C0.21,-0.619 0.196,-0.61 0.185,-0.599C0.174,-0.588 0.167,-0.576 0.163,-0.563C0.158,-0.55 0.156,-0.539 0.156,-0.528C0.156,-0.498 0.165,-0.475 0.182,-0.459C0.199,-0.443 0.221,-0.43 0.247,-0.42C0.272,-0.41 0.3,-0.401 0.331,-0.393C0.361,-0.385 0.389,-0.374 0.415,-0.36C0.44,-0.345 0.462,-0.326 0.479,-0.302C0.496,-0.277 0.505,-0.244 0.505,-0.201C0.505,-0.167 0.499,-0.136 0.486,-0.109C0.472,-0.082 0.455,-0.059 0.433,-0.04C0.411,-0.021 0.385,-0.007 0.355,0.003C0.325,0.013 0.293,0.018 0.259,0.018C0.214,0.018 0.171,0.01 0.13,-0.006C0.089,-0.022 0.057,-0.047 0.033,-0.08L0.112,-0.148Z" style="fill-rule:nonzero;"/>
            </g>
            <g transform="matrix(61.3629,0,0,61.3629,737.917,757.511)">
                <path d="M0.091,-0.708L0.337,-0.708C0.368,-0.708 0.396,-0.704 0.423,-0.697C0.449,-0.69 0.472,-0.679 0.491,-0.665C0.509,-0.65 0.525,-0.632 0.536,-0.61C0.547,-0.587 0.552,-0.561 0.552,-0.531C0.552,-0.49 0.541,-0.457 0.518,-0.432C0.495,-0.406 0.466,-0.387 0.43,-0.375L0.43,-0.373C0.451,-0.372 0.471,-0.366 0.49,-0.357C0.509,-0.347 0.525,-0.334 0.539,-0.319C0.552,-0.303 0.563,-0.285 0.571,-0.264C0.579,-0.243 0.583,-0.221 0.583,-0.197C0.583,-0.165 0.576,-0.137 0.564,-0.113C0.551,-0.088 0.533,-0.068 0.51,-0.051C0.487,-0.034 0.461,-0.022 0.431,-0.013C0.401,-0.004 0.369,-0 0.334,-0L0.091,-0L0.091,-0.708ZM0.187,-0.414L0.318,-0.414C0.336,-0.414 0.353,-0.416 0.369,-0.42C0.385,-0.423 0.399,-0.429 0.411,-0.438C0.423,-0.447 0.432,-0.458 0.44,-0.471C0.447,-0.484 0.45,-0.501 0.45,-0.52C0.45,-0.548 0.441,-0.572 0.423,-0.593C0.405,-0.614 0.377,-0.624 0.338,-0.624L0.187,-0.624L0.187,-0.414ZM0.187,-0.084L0.328,-0.084C0.343,-0.084 0.359,-0.086 0.377,-0.089C0.394,-0.091 0.411,-0.097 0.426,-0.107C0.441,-0.115 0.454,-0.128 0.465,-0.143C0.476,-0.158 0.481,-0.179 0.481,-0.204C0.481,-0.246 0.467,-0.278 0.44,-0.299C0.413,-0.32 0.376,-0.33 0.329,-0.33L0.187,-0.33L0.187,-0.084Z" style="fill-rule:nonzero;"/>
            </g>
        </g>
        <g transform="matrix(1,0,0,1,793.638,-229.788)">
            <g transform="matrix(61.3629,0,0,61.3629,648.205,757.511)">
                <path d="M0.091,-0.708L0.187,-0.708L0.187,-0.09L0.512,-0.09L0.512,-0L0.091,-0L0.091,-0.708Z" style="fill-rule:nonzero;"/>
            </g>
            <g transform="matrix(61.3629,0,0,61.3629,680.052,757.511)">
                <path d="M0.112,-0.148C0.129,-0.122 0.152,-0.103 0.179,-0.091C0.206,-0.078 0.233,-0.072 0.262,-0.072C0.278,-0.072 0.294,-0.075 0.311,-0.08C0.328,-0.085 0.343,-0.092 0.357,-0.102C0.37,-0.112 0.381,-0.124 0.39,-0.139C0.399,-0.154 0.403,-0.171 0.403,-0.19C0.403,-0.217 0.394,-0.238 0.377,-0.253C0.36,-0.267 0.338,-0.279 0.313,-0.289C0.287,-0.298 0.259,-0.308 0.229,-0.317C0.198,-0.326 0.17,-0.338 0.145,-0.354C0.119,-0.37 0.097,-0.392 0.08,-0.419C0.063,-0.446 0.054,-0.482 0.054,-0.528C0.054,-0.549 0.058,-0.571 0.068,-0.594C0.077,-0.617 0.091,-0.639 0.11,-0.658C0.129,-0.677 0.154,-0.694 0.185,-0.707C0.215,-0.72 0.251,-0.726 0.294,-0.726C0.333,-0.726 0.37,-0.721 0.405,-0.71C0.44,-0.699 0.471,-0.678 0.498,-0.645L0.42,-0.574C0.408,-0.593 0.391,-0.608 0.369,-0.619C0.347,-0.63 0.322,-0.636 0.294,-0.636C0.267,-0.636 0.245,-0.632 0.228,-0.626C0.21,-0.619 0.196,-0.61 0.185,-0.599C0.174,-0.588 0.167,-0.576 0.163,-0.563C0.158,-0.55 0.156,-0.539 0.156,-0.528C0.156,-0.498 0.165,-0.475 0.182,-0.459C0.199,-0.443 0.221,-0.43 0.247,-0.42C0.272,-0.41 0.3,-0.401 0.331,-0.393C0.361,-0.385 0.389,-0.374 0.415,-0.36C0.44,-0.345 0.462,-0.326 0.479,-0.302C0.496,-0.277 0.505,-0.244 0.505,-0.201C0.505,-0.167 0.499,-0.136 0.486,-0.109C0.472,-0.082 0.455,-0.059 0.433,-0.04C0.411,-0.021 0.385,-0.007 0.355,0.003C0.325,0.013 0.293,0.018 0.259,0.018C0.214,0.018 0.171,0.01 0.13,-0.006C0.089,-0.022 0.057,-0.047 0.033,-0.08L0.112,-0.148Z" style="fill-rule:nonzero;"/>
            </g>
            <g transform="matrix(61.3629,0,0,61.3629,714.17,757.511)">
                <path d="M0.091,-0.708L0.337,-0.708C0.368,-0.708 0.396,-0.704 0.423,-0.697C0.449,-0.69 0.472,-0.679 0.491,-0.665C0.509,-0.65 0.525,-0.632 0.536,-0.61C0.547,-0.587 0.552,-0.561 0.552,-0.531C0.552,-0.49 0.541,-0.457 0.518,-0.432C0.495,-0.406 0.466,-0.387 0.43,-0.375L0.43,-0.373C0.451,-0.372 0.471,-0.366 0.49,-0.357C0.509,-0.347 0.525,-0.334 0.539,-0.319C0.552,-0.303 0.563,-0.285 0.571,-0.264C0.579,-0.243 0.583,-0.221 0.583,-0.197C0.583,-0.165 0.576,-0.137 0.564,-0.113C0.551,-0.088 0.533,-0.068 0.51,-0.051C0.487,-0.034 0.461,-0.022 0.431,-0.013C0.401,-0.004 0.369,-0 0.334,-0L0.091,-0L0.091,-0.708ZM0.187,-0.414L0.318,-0.414C0.336,-0.414 0.353,-0.416 0.369,-0.42C0.385,-0.423 0.399,-0.429 0.411,-0.438C0.423,-0.447 0.432,-0.458 0.44,-0.471C0.447,-0.484 0.45,-0.501 0.45,-0.52C0.45,-0.548 0.441,-0.572 0.423,-0.593C0.405,-0.614 0.377,-0.624 0.338,-0.624L0.187,-0.624L0.187,-0.414ZM0.187,-0.084L0.328,-0.084C0.343,-0.084 0.359,-0.086 0.377,-0.089C0.394,-0.091 0.411,-0.097 0.426,-0.107C0.441,-0.115 0.454,-0.128 0.465,-0.143C0.476,-0.158 0.481,-0.179 0.481,-0.204C0.481,-0.246 0.467,-0.278 0.44,-0.299C0.413,-0.32 0.376,-0.33 0.329,-0.33L0.187,-0.33L0.187,-0.084Z" style="fill-rule:nonzero;"/>
            </g>
        </g>
        <g transform="matrix(1.29448,0,0,1.29448,-231.187,-559.584)">
            <g transform="matrix(164.246,0,0,164.246,473.939,1247.77)">
                <path d="M0.6,-0.42L0.6,-0.342L0.066,-0.342L0.066,-0.42L0.6,-0.42ZM0.6,-0.263L0.6,-0.185L0.066,-0.185L0.066,-0.263L0.6,-0.263Z" style="fill-rule:nonzero;"/>
            </g>
        </g>
        <g transform="matrix(1.29448,0,0,1.29448,-231.187,-321.501)">
            <g transform="matrix(164.246,0,0,164.246,473.939,1247.77)">
                <path d="M0.6,-0.42L0.6,-0.342L0.066,-0.342L0.066,-0.42L0.6,-0.42ZM0.6,-0.263L0.6,-0.185L0.066,-0.185L0.066,-0.263L0.6,-0.263Z" style="fill-rule:nonzero;"/>
            </g>
        </g>
        <g transform="matrix(1,0,0,1,-192.457,-201.869)">
            <g transform="matrix(115.414,0,0,115.414,786.371,1227.27)">
                <path d="M0.046,-0.102L0.33,-0.384C0.34,-0.393 0.35,-0.404 0.359,-0.415C0.368,-0.426 0.377,-0.437 0.384,-0.449C0.391,-0.461 0.397,-0.474 0.402,-0.487C0.406,-0.5 0.408,-0.514 0.408,-0.529C0.408,-0.546 0.405,-0.562 0.399,-0.576C0.392,-0.59 0.384,-0.602 0.373,-0.612C0.362,-0.621 0.349,-0.629 0.334,-0.634C0.319,-0.639 0.303,-0.642 0.286,-0.642C0.251,-0.642 0.223,-0.632 0.2,-0.613C0.177,-0.594 0.163,-0.567 0.157,-0.533L0.053,-0.542C0.058,-0.573 0.067,-0.6 0.081,-0.624C0.094,-0.647 0.111,-0.666 0.132,-0.681C0.152,-0.696 0.175,-0.708 0.202,-0.715C0.228,-0.722 0.256,-0.726 0.287,-0.726C0.318,-0.726 0.347,-0.722 0.374,-0.714C0.401,-0.705 0.424,-0.693 0.445,-0.677C0.465,-0.66 0.481,-0.64 0.493,-0.616C0.504,-0.591 0.51,-0.563 0.51,-0.53C0.51,-0.507 0.507,-0.485 0.5,-0.465C0.493,-0.444 0.483,-0.425 0.472,-0.407C0.461,-0.389 0.448,-0.372 0.433,-0.356C0.418,-0.34 0.403,-0.324 0.387,-0.309L0.154,-0.084L0.51,-0.084L0.51,-0L0.046,-0L0.046,-0.102Z" style="fill-rule:nonzero;"/>
            </g>
        </g>
        <g transform="matrix(1,0,0,1,46.9556,-201.869)">
            <g transform="matrix(115.414,0,0,115.414,786.371,1227.27)">
                <path d="M0.046,-0.102L0.33,-0.384C0.34,-0.393 0.35,-0.404 0.359,-0.415C0.368,-0.426 0.377,-0.437 0.384,-0.449C0.391,-0.461 0.397,-0.474 0.402,-0.487C0.406,-0.5 0.408,-0.514 0.408,-0.529C0.408,-0.546 0.405,-0.562 0.399,-0.576C0.392,-0.59 0.384,-0.602 0.373,-0.612C0.362,-0.621 0.349,-0.629 0.334,-0.634C0.319,-0.639 0.303,-0.642 0.286,-0.642C0.251,-0.642 0.223,-0.632 0.2,-0.613C0.177,-0.594 0.163,-0.567 0.157,-0.533L0.053,-0.542C0.058,-0.573 0.067,-0.6 0.081,-0.624C0.094,-0.647 0.111,-0.666 0.132,-0.681C0.152,-0.696 0.175,-0.708 0.202,-0.715C0.228,-0.722 0.256,-0.726 0.287,-0.726C0.318,-0.726 0.347,-0.722 0.374,-0.714C0.401,-0.705 0.424,-0.693 0.445,-0.677C0.465,-0.66 0.481,-0.64 0.493,-0.616C0.504,-0.591 0.51,-0.563 0.51,-0.53C0.51,-0.507 0.507,-0.485 0.5,-0.465C0.493,-0.444 0.483,-0.425 0.472,-0.407C0.461,-0.389 0.448,-0.372 0.433,-0.356C0.418,-0.34 0.403,-0.324 0.387,-0.309L0.154,-0.084L0.51,-0.084L0.51,-0L0.046,-0L0.046,-0.102Z" style="fill-rule:nonzero;"/>
            </g>
        </g>
        <g transform="matrix(1,0,0,1,289.388,-201.869)">
            <g transform="matrix(115.414,0,0,115.414,786.371,1227.27)">
                <path d="M0.046,-0.102L0.33,-0.384C0.34,-0.393 0.35,-0.404 0.359,-0.415C0.368,-0.426 0.377,-0.437 0.384,-0.449C0.391,-0.461 0.397,-0.474 0.402,-0.487C0.406,-0.5 0.408,-0.514 0.408,-0.529C0.408,-0.546 0.405,-0.562 0.399,-0.576C0.392,-0.59 0.384,-0.602 0.373,-0.612C0.362,-0.621 0.349,-0.629 0.334,-0.634C0.319,-0.639 0.303,-0.642 0.286,-0.642C0.251,-0.642 0.223,-0.632 0.2,-0.613C0.177,-0.594 0.163,-0.567 0.157,-0.533L0.053,-0.542C0.058,-0.573 0.067,-0.6 0.081,-0.624C0.094,-0.647 0.111,-0.666 0.132,-0.681C0.152,-0.696 0.175,-0.708 0.202,-0.715C0.228,-0.722 0.256,-0.726 0.287,-0.726C0.318,-0.726 0.347,-0.722 0.374,-0.714C0.401,-0.705 0.424,-0.693 0.445,-0.677C0.465,-0.66 0.481,-0.64 0.493,-0.616C0.504,-0.591 0.51,-0.563 0.51,-0.53C0.51,-0.507 0.507,-0.485 0.5,-0.465C0.493,-0.444 0.483,-0.425 0.472,-0.407C0.461,-0.389 0.448,-0.372 0.433,-0.356C0.418,-0.34 0.403,-0.324 0.387,-0.309L0.154,-0.084L0.51,-0.084L0.51,-0L0.046,-0L0.046,-0.102Z" style="fill-rule:nonzero;"/>
            </g>
        </g>
        <g transform="matrix(1,0,0,1,-207.15,-189.65)">
            <g transform="matrix(66.8403,0,0,66.8403,871.91,1145.45)">
                <path d="M0.384,-0.624L0.042,-0.624L0.042,-0.708L0.487,-0.708L0.487,-0.626L0.205,-0L0.097,-0L0.384,-0.624Z" style="fill-rule:nonzero;"/>
            </g>
        </g>
        <g transform="matrix(1,0,0,1,32.2632,-189.65)">
            <g transform="matrix(66.8403,0,0,66.8403,871.91,1145.45)">
                <path d="M0.471,-0.618L0.184,-0.618L0.181,-0.441C0.186,-0.443 0.192,-0.445 0.201,-0.447C0.21,-0.449 0.219,-0.451 0.228,-0.452C0.237,-0.453 0.245,-0.454 0.254,-0.455C0.263,-0.456 0.27,-0.456 0.276,-0.456C0.309,-0.456 0.339,-0.45 0.367,-0.439C0.394,-0.428 0.417,-0.412 0.436,-0.391C0.455,-0.37 0.47,-0.346 0.481,-0.317C0.491,-0.288 0.496,-0.257 0.496,-0.222C0.496,-0.187 0.49,-0.155 0.477,-0.126C0.464,-0.097 0.446,-0.073 0.423,-0.052C0.4,-0.031 0.374,-0.016 0.344,-0.005C0.314,0.007 0.282,0.012 0.247,0.012C0.199,0.012 0.156,-0 0.117,-0.025C0.078,-0.05 0.051,-0.085 0.034,-0.131L0.131,-0.164C0.144,-0.131 0.161,-0.108 0.182,-0.094C0.203,-0.079 0.23,-0.072 0.262,-0.072C0.281,-0.072 0.299,-0.075 0.316,-0.082C0.333,-0.089 0.347,-0.098 0.36,-0.111C0.372,-0.123 0.382,-0.138 0.389,-0.156C0.396,-0.174 0.4,-0.194 0.4,-0.217C0.4,-0.269 0.384,-0.308 0.353,-0.334C0.321,-0.359 0.28,-0.372 0.229,-0.372C0.211,-0.372 0.188,-0.369 0.161,-0.363C0.133,-0.356 0.107,-0.347 0.083,-0.335L0.091,-0.708L0.471,-0.708L0.471,-0.618Z" style="fill-rule:nonzero;"/>
            </g>
        </g>
        <g transform="matrix(1,0,0,1,274.696,-189.65)">
            <g transform="matrix(66.8403,0,0,66.8403,871.91,1145.45)">
                <path d="M0.147,-0.173C0.158,-0.139 0.173,-0.114 0.193,-0.097C0.212,-0.08 0.24,-0.072 0.277,-0.072C0.296,-0.072 0.313,-0.075 0.33,-0.082C0.346,-0.088 0.36,-0.096 0.373,-0.108C0.386,-0.118 0.396,-0.132 0.403,-0.148C0.41,-0.163 0.414,-0.181 0.414,-0.2C0.414,-0.229 0.408,-0.253 0.396,-0.271C0.383,-0.288 0.367,-0.302 0.348,-0.311C0.329,-0.32 0.307,-0.325 0.284,-0.328C0.261,-0.331 0.238,-0.332 0.215,-0.332L0.215,-0.416C0.252,-0.416 0.282,-0.419 0.305,-0.424C0.328,-0.428 0.347,-0.436 0.36,-0.445C0.373,-0.454 0.383,-0.466 0.388,-0.48C0.393,-0.494 0.396,-0.51 0.396,-0.527C0.396,-0.565 0.385,-0.594 0.362,-0.613C0.339,-0.632 0.311,-0.642 0.277,-0.642C0.251,-0.642 0.228,-0.635 0.207,-0.62C0.186,-0.604 0.17,-0.585 0.159,-0.56L0.061,-0.593C0.08,-0.638 0.108,-0.672 0.147,-0.694C0.185,-0.715 0.228,-0.726 0.275,-0.726C0.304,-0.726 0.331,-0.722 0.358,-0.715C0.384,-0.707 0.407,-0.695 0.427,-0.679C0.447,-0.663 0.463,-0.643 0.475,-0.619C0.486,-0.594 0.492,-0.566 0.492,-0.533C0.492,-0.496 0.481,-0.462 0.459,-0.433C0.436,-0.404 0.407,-0.384 0.371,-0.373L0.371,-0.371C0.393,-0.367 0.413,-0.36 0.43,-0.349C0.447,-0.338 0.462,-0.325 0.474,-0.309C0.486,-0.293 0.495,-0.275 0.501,-0.256C0.507,-0.236 0.51,-0.215 0.51,-0.193C0.51,-0.159 0.503,-0.129 0.491,-0.104C0.478,-0.078 0.46,-0.057 0.439,-0.04C0.417,-0.023 0.392,-0.01 0.364,-0.001C0.335,0.008 0.305,0.012 0.274,0.012C0.22,0.012 0.173,-0 0.132,-0.025C0.091,-0.05 0.062,-0.089 0.046,-0.142L0.147,-0.173Z" style="fill-rule:nonzero;"/>
            </g>
        </g>
        <g transform="matrix(1.30613,0,0,1.30613,-433.789,-594.729)">
            <g transform="matrix(66.8403,0,0,66.8403,890.058,1229.43)">
                <path d="M0.066,-0.342L0.294,-0.342L0.294,-0.57L0.372,-0.57L0.372,-0.342L0.6,-0.342L0.6,-0.264L0.372,-0.264L0.372,-0.036L0.294,-0.036L0.294,-0.264L0.066,-0.264L0.066,-0.342Z" style="fill-rule:nonzero;"/>
            </g>
        </g>
        <g transform="matrix(1.30613,0,0,1.30613,-198.255,-594.729)">
            <g transform="matrix(66.8403,0,0,66.8403,890.058,1229.43)">
                <path d="M0.066,-0.342L0.294,-0.342L0.294,-0.57L0.372,-0.57L0.372,-0.342L0.6,-0.342L0.6,-0.264L0.372,-0.264L0.372,-0.036L0.294,-0.036L0.294,-0.264L0.066,-0.264L0.066,-0.342Z" style="fill-rule:nonzero;"/>
            </g>
        </g>
        <g transform="matrix(0.704968,0,0,0.704968,23.9268,195.034)">
            <g transform="matrix(190.607,0,0,190.607,775.326,1531.09)">
                <path d="M0.27,-0.598L0.14,-0.478L0.084,-0.545L0.281,-0.708L0.366,-0.708L0.366,-0L0.27,-0L0.27,-0.598Z" style="fill-rule:nonzero;"/>
            </g>
            <g transform="matrix(190.607,0,0,190.607,881.304,1531.09)">
                <path d="M0.22,-0.434L0.224,-0.434C0.246,-0.445 0.272,-0.45 0.302,-0.45C0.327,-0.45 0.353,-0.446 0.379,-0.437C0.405,-0.428 0.428,-0.415 0.45,-0.397C0.47,-0.378 0.488,-0.355 0.501,-0.327C0.514,-0.298 0.521,-0.265 0.521,-0.226C0.521,-0.187 0.515,-0.152 0.502,-0.123C0.489,-0.093 0.471,-0.068 0.449,-0.048C0.427,-0.028 0.401,-0.013 0.372,-0.003C0.343,0.007 0.311,0.012 0.278,0.012C0.245,0.012 0.213,0.007 0.184,-0.004C0.155,-0.015 0.129,-0.03 0.107,-0.05C0.085,-0.07 0.067,-0.094 0.055,-0.122C0.042,-0.15 0.035,-0.181 0.035,-0.216C0.035,-0.238 0.037,-0.258 0.04,-0.276C0.043,-0.294 0.048,-0.311 0.055,-0.328C0.061,-0.344 0.068,-0.36 0.077,-0.376C0.086,-0.391 0.095,-0.408 0.106,-0.425L0.285,-0.708L0.398,-0.708L0.22,-0.434ZM0.131,-0.219C0.131,-0.198 0.135,-0.178 0.142,-0.16C0.149,-0.142 0.159,-0.127 0.172,-0.114C0.185,-0.1 0.2,-0.09 0.218,-0.083C0.236,-0.076 0.256,-0.072 0.278,-0.072C0.3,-0.072 0.32,-0.076 0.338,-0.083C0.356,-0.09 0.372,-0.1 0.385,-0.114C0.398,-0.127 0.408,-0.142 0.415,-0.16C0.422,-0.178 0.425,-0.198 0.425,-0.219C0.425,-0.24 0.422,-0.26 0.415,-0.278C0.408,-0.296 0.398,-0.312 0.385,-0.325C0.372,-0.338 0.356,-0.348 0.338,-0.355C0.32,-0.362 0.3,-0.366 0.278,-0.366C0.256,-0.366 0.236,-0.362 0.218,-0.355C0.2,-0.348 0.185,-0.338 0.172,-0.325C0.159,-0.312 0.149,-0.296 0.142,-0.278C0.135,-0.26 0.131,-0.24 0.131,-0.219Z" style="fill-rule:nonzero;"/>
            </g>
            <g transform="matrix(190.607,0,0,190.607,987.281,1531.09)">
                <path d="M0.278,0.012C0.246,0.012 0.216,0.007 0.188,-0.003C0.159,-0.012 0.135,-0.026 0.114,-0.045C0.093,-0.064 0.077,-0.086 0.065,-0.113C0.053,-0.14 0.047,-0.17 0.047,-0.203C0.047,-0.225 0.05,-0.245 0.058,-0.264C0.065,-0.283 0.074,-0.3 0.086,-0.315C0.098,-0.33 0.112,-0.342 0.129,-0.353C0.145,-0.363 0.163,-0.371 0.182,-0.376L0.182,-0.379C0.169,-0.382 0.155,-0.388 0.142,-0.397C0.129,-0.406 0.117,-0.417 0.107,-0.43C0.096,-0.443 0.088,-0.46 0.081,-0.479C0.074,-0.498 0.071,-0.519 0.071,-0.544C0.071,-0.571 0.077,-0.595 0.088,-0.617C0.099,-0.638 0.114,-0.657 0.133,-0.672C0.152,-0.687 0.173,-0.699 0.199,-0.708C0.224,-0.716 0.25,-0.72 0.278,-0.72C0.306,-0.72 0.333,-0.716 0.358,-0.708C0.383,-0.699 0.405,-0.687 0.424,-0.672C0.443,-0.657 0.458,-0.638 0.469,-0.617C0.48,-0.595 0.485,-0.571 0.485,-0.544C0.485,-0.519 0.482,-0.498 0.475,-0.479C0.468,-0.46 0.46,-0.443 0.45,-0.43C0.439,-0.417 0.427,-0.406 0.414,-0.397C0.401,-0.388 0.387,-0.382 0.374,-0.379L0.374,-0.376C0.393,-0.371 0.411,-0.363 0.428,-0.353C0.444,-0.342 0.458,-0.33 0.47,-0.315C0.482,-0.3 0.492,-0.283 0.499,-0.264C0.505,-0.245 0.509,-0.225 0.509,-0.203C0.509,-0.17 0.503,-0.14 0.491,-0.113C0.479,-0.086 0.463,-0.064 0.442,-0.045C0.421,-0.026 0.397,-0.012 0.369,-0.003C0.34,0.007 0.31,0.012 0.278,0.012ZM0.167,-0.53C0.167,-0.516 0.17,-0.502 0.175,-0.489C0.18,-0.476 0.187,-0.464 0.196,-0.454C0.205,-0.443 0.217,-0.435 0.231,-0.428C0.244,-0.421 0.26,-0.418 0.278,-0.418C0.297,-0.418 0.313,-0.421 0.327,-0.428C0.34,-0.434 0.352,-0.442 0.361,-0.453C0.37,-0.463 0.377,-0.475 0.382,-0.488C0.387,-0.501 0.389,-0.515 0.389,-0.53C0.389,-0.563 0.379,-0.59 0.359,-0.611C0.338,-0.632 0.311,-0.642 0.278,-0.642C0.247,-0.642 0.221,-0.632 0.2,-0.611C0.178,-0.59 0.167,-0.563 0.167,-0.53ZM0.278,-0.072C0.318,-0.072 0.351,-0.084 0.376,-0.109C0.401,-0.133 0.413,-0.164 0.413,-0.203C0.413,-0.224 0.41,-0.243 0.403,-0.26C0.396,-0.276 0.386,-0.29 0.374,-0.301C0.361,-0.312 0.347,-0.32 0.331,-0.326C0.314,-0.331 0.297,-0.334 0.278,-0.334C0.239,-0.333 0.206,-0.321 0.181,-0.297C0.156,-0.272 0.143,-0.241 0.143,-0.203C0.143,-0.182 0.147,-0.164 0.154,-0.148C0.161,-0.131 0.171,-0.117 0.184,-0.107C0.196,-0.095 0.21,-0.087 0.227,-0.081C0.243,-0.075 0.26,-0.072 0.278,-0.072Z" style="fill-rule:nonzero;"/>
            </g>
        </g>
        <g transform="matrix(1,0,0,1,82.6788,51.1023)">
            <g transform="matrix(112.024,0,0,112.024,115.551,352.834)">
                <path d="M0.488,-0L0.398,-0L0.398,-0.073L0.396,-0.073C0.385,-0.048 0.365,-0.027 0.337,-0.012C0.309,0.004 0.277,0.012 0.24,0.012C0.217,0.012 0.195,0.009 0.174,0.002C0.153,-0.006 0.135,-0.016 0.12,-0.031C0.104,-0.046 0.091,-0.065 0.082,-0.088C0.073,-0.111 0.068,-0.138 0.068,-0.169L0.068,-0.474L0.158,-0.474L0.158,-0.194C0.158,-0.172 0.161,-0.153 0.167,-0.138C0.173,-0.122 0.181,-0.109 0.191,-0.1C0.201,-0.09 0.213,-0.083 0.226,-0.079C0.239,-0.074 0.252,-0.072 0.266,-0.072C0.285,-0.072 0.302,-0.075 0.318,-0.081C0.334,-0.087 0.348,-0.096 0.36,-0.11C0.372,-0.123 0.381,-0.139 0.388,-0.159C0.395,-0.179 0.398,-0.203 0.398,-0.23L0.398,-0.474L0.488,-0.474L0.488,-0Z" style="fill-rule:nonzero;stroke:black;stroke-width:0.01px;stroke-linecap:butt;stroke-miterlimit:2;"/>
            </g>
            <g transform="matrix(112.024,0,0,112.024,177.836,352.834)">
                <path d="M0.068,-0.474L0.158,-0.474L0.158,-0.401L0.16,-0.401C0.171,-0.426 0.191,-0.447 0.219,-0.463C0.247,-0.478 0.279,-0.486 0.316,-0.486C0.339,-0.486 0.361,-0.483 0.382,-0.476C0.403,-0.468 0.421,-0.458 0.437,-0.443C0.452,-0.428 0.465,-0.409 0.474,-0.387C0.483,-0.364 0.488,-0.336 0.488,-0.305L0.488,-0L0.398,-0L0.398,-0.28C0.398,-0.302 0.395,-0.321 0.389,-0.337C0.383,-0.352 0.375,-0.365 0.365,-0.375C0.355,-0.384 0.343,-0.391 0.331,-0.396C0.318,-0.4 0.304,-0.402 0.29,-0.402C0.271,-0.402 0.254,-0.399 0.238,-0.393C0.222,-0.387 0.208,-0.378 0.196,-0.365C0.184,-0.352 0.175,-0.335 0.168,-0.315C0.161,-0.295 0.158,-0.271 0.158,-0.244L0.158,-0L0.068,-0L0.068,-0.474Z" style="fill-rule:nonzero;stroke:black;stroke-width:0.01px;stroke-linecap:butt;stroke-miterlimit:2;"/>
            </g>
            <g transform="matrix(112.024,0,0,112.024,240.122,352.834)">
                <path d="M0.32,-0.355C0.309,-0.368 0.296,-0.38 0.281,-0.389C0.265,-0.398 0.246,-0.402 0.223,-0.402C0.202,-0.402 0.183,-0.398 0.168,-0.389C0.152,-0.38 0.144,-0.366 0.144,-0.349C0.144,-0.335 0.149,-0.324 0.158,-0.315C0.167,-0.306 0.177,-0.299 0.19,-0.294C0.202,-0.289 0.215,-0.285 0.229,-0.282C0.243,-0.279 0.255,-0.277 0.265,-0.275C0.284,-0.27 0.303,-0.265 0.32,-0.258C0.337,-0.251 0.351,-0.243 0.364,-0.232C0.376,-0.221 0.386,-0.208 0.393,-0.193C0.4,-0.178 0.403,-0.159 0.403,-0.137C0.403,-0.11 0.397,-0.088 0.386,-0.069C0.375,-0.05 0.36,-0.034 0.342,-0.022C0.324,-0.01 0.304,-0.001 0.281,0.004C0.258,0.009 0.234,0.012 0.211,0.012C0.172,0.012 0.137,0.006 0.108,-0.006C0.078,-0.018 0.051,-0.04 0.028,-0.072L0.096,-0.128C0.111,-0.113 0.127,-0.1 0.145,-0.089C0.163,-0.078 0.185,-0.072 0.211,-0.072C0.222,-0.072 0.234,-0.073 0.246,-0.076C0.257,-0.078 0.268,-0.082 0.277,-0.087C0.286,-0.092 0.293,-0.098 0.299,-0.106C0.304,-0.113 0.307,-0.122 0.307,-0.132C0.307,-0.145 0.303,-0.156 0.295,-0.165C0.286,-0.174 0.276,-0.181 0.265,-0.186C0.253,-0.191 0.241,-0.195 0.228,-0.198C0.215,-0.201 0.203,-0.203 0.193,-0.205C0.174,-0.21 0.155,-0.215 0.138,-0.221C0.121,-0.227 0.105,-0.235 0.092,-0.245C0.079,-0.255 0.068,-0.268 0.06,-0.283C0.052,-0.298 0.048,-0.317 0.048,-0.34C0.048,-0.365 0.053,-0.386 0.064,-0.405C0.074,-0.423 0.088,-0.438 0.105,-0.45C0.122,-0.462 0.141,-0.471 0.163,-0.477C0.184,-0.483 0.206,-0.486 0.228,-0.486C0.26,-0.486 0.291,-0.48 0.32,-0.468C0.349,-0.456 0.373,-0.436 0.39,-0.408L0.32,-0.355Z" style="fill-rule:nonzero;stroke:black;stroke-width:0.01px;stroke-linecap:butt;stroke-miterlimit:2;"/>
            </g>
            <g transform="matrix(112.024,0,0,112.024,289.861,352.834)">
                <path d="M0.075,-0.474L0.165,-0.474L0.165,-0L0.075,-0L0.075,-0.474ZM0.054,-0.644C0.054,-0.662 0.061,-0.678 0.074,-0.691C0.087,-0.704 0.102,-0.71 0.12,-0.71C0.138,-0.71 0.154,-0.704 0.167,-0.691C0.18,-0.678 0.186,-0.662 0.186,-0.644C0.186,-0.626 0.18,-0.611 0.167,-0.598C0.154,-0.584 0.138,-0.578 0.12,-0.578C0.102,-0.578 0.087,-0.584 0.074,-0.598C0.061,-0.611 0.054,-0.626 0.054,-0.644Z" style="fill-rule:nonzero;stroke:black;stroke-width:0.01px;stroke-linecap:butt;stroke-miterlimit:2;"/>
            </g>
            <g transform="matrix(112.024,0,0,112.024,316.746,352.834)">
                <path d="M0.543,-0.004C0.543,0.032 0.537,0.065 0.525,0.095C0.512,0.124 0.495,0.15 0.472,0.172C0.449,0.193 0.422,0.21 0.39,0.222C0.358,0.234 0.323,0.24 0.284,0.24C0.239,0.24 0.197,0.234 0.16,0.221C0.122,0.208 0.086,0.186 0.052,0.155L0.113,0.079C0.136,0.104 0.162,0.124 0.189,0.137C0.216,0.15 0.247,0.156 0.282,0.156C0.315,0.156 0.343,0.151 0.365,0.142C0.387,0.132 0.405,0.119 0.418,0.104C0.431,0.089 0.44,0.071 0.445,0.052C0.45,0.032 0.453,0.012 0.453,-0.008L0.453,-0.078L0.45,-0.078C0.433,-0.049 0.409,-0.028 0.38,-0.015C0.35,-0.001 0.319,0.006 0.286,0.006C0.251,0.006 0.219,-0 0.19,-0.013C0.16,-0.025 0.134,-0.042 0.113,-0.064C0.092,-0.085 0.075,-0.111 0.063,-0.141C0.051,-0.17 0.045,-0.202 0.045,-0.237C0.045,-0.272 0.051,-0.304 0.062,-0.335C0.073,-0.365 0.09,-0.391 0.111,-0.414C0.132,-0.437 0.157,-0.454 0.187,-0.467C0.216,-0.48 0.249,-0.486 0.286,-0.486C0.318,-0.486 0.349,-0.479 0.38,-0.465C0.41,-0.451 0.434,-0.431 0.451,-0.406L0.453,-0.406L0.453,-0.474L0.543,-0.474L0.543,-0.004ZM0.297,-0.402C0.273,-0.402 0.251,-0.398 0.232,-0.39C0.213,-0.381 0.196,-0.37 0.183,-0.356C0.17,-0.341 0.159,-0.324 0.152,-0.304C0.145,-0.283 0.141,-0.261 0.141,-0.237C0.141,-0.189 0.155,-0.151 0.183,-0.122C0.211,-0.092 0.249,-0.078 0.297,-0.078C0.345,-0.078 0.383,-0.092 0.411,-0.122C0.439,-0.151 0.453,-0.189 0.453,-0.237C0.453,-0.261 0.449,-0.283 0.442,-0.304C0.435,-0.324 0.424,-0.341 0.411,-0.356C0.398,-0.37 0.381,-0.381 0.362,-0.39C0.343,-0.398 0.321,-0.402 0.297,-0.402Z" style="fill-rule:nonzero;stroke:black;stroke-width:0.01px;stroke-linecap:butt;stroke-miterlimit:2;"/>
            </g>
            <g transform="matrix(112.024,0,0,112.024,385.193,352.834)">
                <path d="M0.068,-0.474L0.158,-0.474L0.158,-0.401L0.16,-0.401C0.171,-0.426 0.191,-0.447 0.219,-0.463C0.247,-0.478 0.279,-0.486 0.316,-0.486C0.339,-0.486 0.361,-0.483 0.382,-0.476C0.403,-0.468 0.421,-0.458 0.437,-0.443C0.452,-0.428 0.465,-0.409 0.474,-0.387C0.483,-0.364 0.488,-0.336 0.488,-0.305L0.488,-0L0.398,-0L0.398,-0.28C0.398,-0.302 0.395,-0.321 0.389,-0.337C0.383,-0.352 0.375,-0.365 0.365,-0.375C0.355,-0.384 0.343,-0.391 0.331,-0.396C0.318,-0.4 0.304,-0.402 0.29,-0.402C0.271,-0.402 0.254,-0.399 0.238,-0.393C0.222,-0.387 0.208,-0.378 0.196,-0.365C0.184,-0.352 0.175,-0.335 0.168,-0.315C0.161,-0.295 0.158,-0.271 0.158,-0.244L0.158,-0L0.068,-0L0.068,-0.474Z" style="fill-rule:nonzero;stroke:black;stroke-width:0.01px;stroke-linecap:butt;stroke-miterlimit:2;"/>
            </g>
            <g transform="matrix(112.024,0,0,112.024,447.479,352.834)">
                <path d="M0.136,-0.204C0.136,-0.183 0.14,-0.165 0.15,-0.148C0.159,-0.13 0.17,-0.116 0.185,-0.104C0.2,-0.092 0.217,-0.083 0.236,-0.076C0.255,-0.069 0.275,-0.066 0.296,-0.066C0.324,-0.066 0.348,-0.073 0.369,-0.086C0.39,-0.098 0.409,-0.116 0.426,-0.137L0.494,-0.085C0.444,-0.02 0.374,0.012 0.284,0.012C0.247,0.012 0.213,0.006 0.183,-0.007C0.152,-0.02 0.127,-0.037 0.106,-0.06C0.085,-0.082 0.068,-0.108 0.057,-0.139C0.046,-0.169 0.04,-0.202 0.04,-0.237C0.04,-0.272 0.046,-0.305 0.059,-0.336C0.071,-0.366 0.088,-0.392 0.11,-0.415C0.131,-0.437 0.157,-0.454 0.187,-0.467C0.217,-0.48 0.25,-0.486 0.285,-0.486C0.327,-0.486 0.363,-0.479 0.392,-0.464C0.421,-0.449 0.444,-0.43 0.463,-0.407C0.482,-0.383 0.495,-0.356 0.504,-0.327C0.512,-0.297 0.516,-0.267 0.516,-0.236L0.516,-0.204L0.136,-0.204ZM0.42,-0.276C0.419,-0.296 0.416,-0.314 0.411,-0.331C0.405,-0.348 0.396,-0.362 0.385,-0.375C0.374,-0.387 0.36,-0.397 0.343,-0.404C0.326,-0.411 0.306,-0.414 0.283,-0.414C0.261,-0.414 0.241,-0.41 0.223,-0.402C0.204,-0.393 0.189,-0.382 0.176,-0.369C0.163,-0.356 0.154,-0.341 0.147,-0.325C0.139,-0.308 0.136,-0.292 0.136,-0.276L0.42,-0.276Z" style="fill-rule:nonzero;stroke:black;stroke-width:0.01px;stroke-linecap:butt;stroke-miterlimit:2;"/>
            </g>
            <g transform="matrix(112.024,0,0,112.024,509.764,352.834)">
                <path d="M0.543,-0L0.453,-0L0.453,-0.068L0.451,-0.068C0.434,-0.043 0.41,-0.023 0.38,-0.009C0.349,0.005 0.318,0.012 0.286,0.012C0.249,0.012 0.216,0.006 0.187,-0.007C0.157,-0.02 0.132,-0.037 0.111,-0.06C0.09,-0.083 0.073,-0.109 0.062,-0.139C0.051,-0.169 0.045,-0.202 0.045,-0.237C0.045,-0.272 0.051,-0.305 0.062,-0.336C0.073,-0.366 0.09,-0.392 0.111,-0.415C0.132,-0.437 0.157,-0.454 0.187,-0.467C0.216,-0.48 0.249,-0.486 0.286,-0.486C0.32,-0.486 0.352,-0.479 0.382,-0.465C0.412,-0.45 0.435,-0.431 0.451,-0.406L0.453,-0.406L0.453,-0.756L0.543,-0.756L0.543,-0ZM0.297,-0.072C0.321,-0.072 0.343,-0.076 0.362,-0.085C0.381,-0.093 0.398,-0.104 0.411,-0.119C0.424,-0.133 0.435,-0.15 0.442,-0.171C0.449,-0.191 0.453,-0.213 0.453,-0.237C0.453,-0.261 0.449,-0.283 0.442,-0.304C0.435,-0.324 0.424,-0.341 0.411,-0.356C0.398,-0.37 0.381,-0.381 0.362,-0.39C0.343,-0.398 0.321,-0.402 0.297,-0.402C0.273,-0.402 0.251,-0.398 0.232,-0.39C0.213,-0.381 0.196,-0.37 0.183,-0.356C0.17,-0.341 0.159,-0.324 0.152,-0.304C0.145,-0.283 0.141,-0.261 0.141,-0.237C0.141,-0.213 0.145,-0.191 0.152,-0.171C0.159,-0.15 0.17,-0.133 0.183,-0.119C0.196,-0.104 0.213,-0.093 0.232,-0.085C0.251,-0.076 0.273,-0.072 0.297,-0.072Z" style="fill-rule:nonzero;stroke:black;stroke-width:0.01px;stroke-linecap:butt;stroke-miterlimit:2;"/>
            </g>
            <g transform="matrix(112.024,0,0,112.024,609.354,352.834)">
                <path d="M0.407,-0.348C0.39,-0.365 0.373,-0.379 0.355,-0.388C0.336,-0.397 0.314,-0.401 0.289,-0.401C0.264,-0.401 0.243,-0.397 0.225,-0.388C0.206,-0.379 0.191,-0.366 0.179,-0.351C0.166,-0.335 0.157,-0.317 0.151,-0.297C0.144,-0.276 0.141,-0.255 0.141,-0.233C0.141,-0.211 0.145,-0.19 0.152,-0.171C0.159,-0.151 0.17,-0.134 0.183,-0.119C0.196,-0.104 0.212,-0.093 0.231,-0.085C0.25,-0.076 0.271,-0.072 0.294,-0.072C0.319,-0.072 0.341,-0.077 0.359,-0.086C0.377,-0.095 0.394,-0.108 0.409,-0.125L0.473,-0.061C0.45,-0.035 0.423,-0.016 0.392,-0.005C0.361,0.006 0.328,0.012 0.293,0.012C0.256,0.012 0.223,0.006 0.193,-0.006C0.162,-0.018 0.136,-0.035 0.114,-0.057C0.092,-0.078 0.075,-0.104 0.063,-0.135C0.051,-0.165 0.045,-0.198 0.045,-0.235C0.045,-0.272 0.051,-0.305 0.063,-0.336C0.075,-0.367 0.092,-0.393 0.114,-0.415C0.135,-0.437 0.161,-0.454 0.192,-0.467C0.222,-0.479 0.256,-0.485 0.293,-0.485C0.328,-0.485 0.361,-0.479 0.393,-0.467C0.424,-0.454 0.452,-0.435 0.475,-0.41L0.407,-0.348Z" style="fill-rule:nonzero;stroke:black;stroke-width:0.01px;stroke-linecap:butt;stroke-miterlimit:2;"/>
            </g>
            <g transform="matrix(112.024,0,0,112.024,663.35,352.834)">
                <path d="M0.068,-0.756L0.158,-0.756L0.158,-0.401L0.16,-0.401C0.171,-0.426 0.191,-0.447 0.219,-0.463C0.247,-0.478 0.279,-0.486 0.316,-0.486C0.339,-0.486 0.361,-0.483 0.382,-0.476C0.403,-0.468 0.421,-0.458 0.437,-0.443C0.452,-0.428 0.465,-0.409 0.474,-0.387C0.483,-0.364 0.488,-0.336 0.488,-0.305L0.488,-0L0.398,-0L0.398,-0.28C0.398,-0.302 0.395,-0.321 0.389,-0.337C0.383,-0.352 0.375,-0.365 0.365,-0.375C0.355,-0.384 0.343,-0.391 0.331,-0.396C0.318,-0.4 0.304,-0.402 0.29,-0.402C0.271,-0.402 0.254,-0.399 0.238,-0.393C0.222,-0.387 0.208,-0.378 0.196,-0.365C0.184,-0.352 0.175,-0.335 0.168,-0.315C0.161,-0.295 0.158,-0.271 0.158,-0.244L0.158,-0L0.068,-0L0.068,-0.756Z" style="fill-rule:nonzero;stroke:black;stroke-width:0.01px;stroke-linecap:butt;stroke-miterlimit:2;"/>
            </g>
            <g transform="matrix(112.024,0,0,112.024,725.636,352.834)">
                <path d="M0.07,-0.416C0.095,-0.439 0.125,-0.457 0.158,-0.469C0.191,-0.48 0.225,-0.486 0.258,-0.486C0.293,-0.486 0.323,-0.482 0.348,-0.473C0.373,-0.464 0.393,-0.453 0.409,-0.438C0.425,-0.423 0.437,-0.407 0.445,-0.388C0.452,-0.369 0.456,-0.349 0.456,-0.328L0.456,-0.086C0.456,-0.069 0.456,-0.054 0.457,-0.04C0.458,-0.026 0.459,-0.013 0.46,-0L0.38,-0C0.378,-0.024 0.377,-0.048 0.377,-0.072L0.375,-0.072C0.355,-0.041 0.331,-0.02 0.304,-0.007C0.277,0.006 0.245,0.012 0.209,0.012C0.187,0.012 0.166,0.009 0.146,0.003C0.126,-0.003 0.109,-0.012 0.094,-0.024C0.079,-0.036 0.067,-0.051 0.058,-0.069C0.049,-0.086 0.045,-0.107 0.045,-0.13C0.045,-0.161 0.052,-0.186 0.066,-0.207C0.079,-0.228 0.098,-0.245 0.122,-0.258C0.145,-0.271 0.173,-0.28 0.205,-0.286C0.236,-0.291 0.27,-0.294 0.306,-0.294L0.372,-0.294L0.372,-0.314C0.372,-0.326 0.37,-0.338 0.365,-0.35C0.36,-0.362 0.353,-0.373 0.344,-0.383C0.335,-0.392 0.323,-0.4 0.309,-0.406C0.295,-0.411 0.278,-0.414 0.259,-0.414C0.242,-0.414 0.227,-0.412 0.214,-0.409C0.201,-0.406 0.189,-0.402 0.178,-0.397C0.167,-0.392 0.158,-0.386 0.149,-0.379C0.14,-0.372 0.132,-0.366 0.124,-0.36L0.07,-0.416ZM0.324,-0.228C0.303,-0.228 0.281,-0.227 0.259,-0.225C0.236,-0.222 0.216,-0.218 0.198,-0.211C0.179,-0.204 0.164,-0.195 0.153,-0.183C0.141,-0.171 0.135,-0.156 0.135,-0.137C0.135,-0.11 0.144,-0.09 0.163,-0.078C0.181,-0.066 0.206,-0.06 0.237,-0.06C0.262,-0.06 0.283,-0.064 0.3,-0.073C0.317,-0.081 0.331,-0.092 0.342,-0.105C0.353,-0.118 0.36,-0.133 0.365,-0.15C0.37,-0.166 0.372,-0.182 0.372,-0.198L0.372,-0.228L0.324,-0.228Z" style="fill-rule:nonzero;stroke:black;stroke-width:0.01px;stroke-linecap:butt;stroke-miterlimit:2;"/>
            </g>
            <g transform="matrix(112.024,0,0,112.024,783.776,352.834)">
                <path d="M0.068,-0.474L0.158,-0.474L0.158,-0.401L0.16,-0.401C0.166,-0.414 0.174,-0.425 0.184,-0.436C0.194,-0.446 0.205,-0.455 0.218,-0.462C0.23,-0.469 0.243,-0.475 0.258,-0.48C0.273,-0.484 0.287,-0.486 0.302,-0.486C0.317,-0.486 0.33,-0.484 0.342,-0.48L0.338,-0.383C0.331,-0.385 0.323,-0.387 0.316,-0.388C0.309,-0.389 0.301,-0.39 0.294,-0.39C0.25,-0.39 0.216,-0.378 0.193,-0.353C0.17,-0.328 0.158,-0.29 0.158,-0.238L0.158,-0L0.068,-0L0.068,-0.474Z" style="fill-rule:nonzero;stroke:black;stroke-width:0.01px;stroke-linecap:butt;stroke-miterlimit:2;"/>
            </g>
            <g transform="matrix(112.024,0,0,112.024,856.368,352.834)">
                <path d="M0.075,-0.474L0.165,-0.474L0.165,-0L0.075,-0L0.075,-0.474ZM0.054,-0.644C0.054,-0.662 0.061,-0.678 0.074,-0.691C0.087,-0.704 0.102,-0.71 0.12,-0.71C0.138,-0.71 0.154,-0.704 0.167,-0.691C0.18,-0.678 0.186,-0.662 0.186,-0.644C0.186,-0.626 0.18,-0.611 0.167,-0.598C0.154,-0.584 0.138,-0.578 0.12,-0.578C0.102,-0.578 0.087,-0.584 0.074,-0.598C0.061,-0.611 0.054,-0.626 0.054,-0.644Z" style="fill-rule:nonzero;stroke:black;stroke-width:0.01px;stroke-linecap:butt;stroke-miterlimit:2;"/>
            </g>
            <g transform="matrix(112.024,0,0,112.024,883.254,352.834)">
                <path d="M0.068,-0.474L0.158,-0.474L0.158,-0.401L0.16,-0.401C0.171,-0.426 0.191,-0.447 0.219,-0.463C0.247,-0.478 0.279,-0.486 0.316,-0.486C0.339,-0.486 0.361,-0.483 0.382,-0.476C0.403,-0.468 0.421,-0.458 0.437,-0.443C0.452,-0.428 0.465,-0.409 0.474,-0.387C0.483,-0.364 0.488,-0.336 0.488,-0.305L0.488,-0L0.398,-0L0.398,-0.28C0.398,-0.302 0.395,-0.321 0.389,-0.337C0.383,-0.352 0.375,-0.365 0.365,-0.375C0.355,-0.384 0.343,-0.391 0.331,-0.396C0.318,-0.4 0.304,-0.402 0.29,-0.402C0.271,-0.402 0.254,-0.399 0.238,-0.393C0.222,-0.387 0.208,-0.378 0.196,-0.365C0.184,-0.352 0.175,-0.335 0.168,-0.315C0.161,-0.295 0.158,-0.271 0.158,-0.244L0.158,-0L0.068,-0L0.068,-0.474Z" style="fill-rule:nonzero;stroke:black;stroke-width:0.01px;stroke-linecap:butt;stroke-miterlimit:2;"/>
            </g>
            <g transform="matrix(112.024,0,0,112.024,976.682,352.834)">
                <path d="M0.584,-0.555C0.564,-0.581 0.539,-0.601 0.508,-0.615C0.477,-0.629 0.446,-0.636 0.413,-0.636C0.373,-0.636 0.337,-0.628 0.305,-0.614C0.272,-0.599 0.245,-0.578 0.222,-0.552C0.199,-0.526 0.181,-0.496 0.168,-0.461C0.155,-0.426 0.149,-0.388 0.149,-0.348C0.149,-0.311 0.155,-0.275 0.167,-0.242C0.179,-0.209 0.196,-0.179 0.219,-0.154C0.242,-0.129 0.269,-0.109 0.302,-0.094C0.335,-0.079 0.372,-0.072 0.413,-0.072C0.454,-0.072 0.489,-0.08 0.52,-0.097C0.551,-0.114 0.577,-0.137 0.598,-0.167L0.679,-0.106C0.674,-0.099 0.664,-0.088 0.651,-0.075C0.638,-0.061 0.62,-0.047 0.598,-0.034C0.576,-0.02 0.55,-0.008 0.519,0.003C0.488,0.013 0.452,0.018 0.411,0.018C0.355,0.018 0.305,0.007 0.26,-0.014C0.215,-0.035 0.176,-0.063 0.145,-0.098C0.113,-0.133 0.089,-0.172 0.072,-0.216C0.055,-0.259 0.047,-0.303 0.047,-0.348C0.047,-0.403 0.056,-0.453 0.074,-0.5C0.092,-0.546 0.117,-0.586 0.15,-0.62C0.182,-0.653 0.221,-0.679 0.266,-0.698C0.311,-0.717 0.361,-0.726 0.416,-0.726C0.463,-0.726 0.509,-0.717 0.554,-0.699C0.599,-0.681 0.635,-0.653 0.664,-0.616L0.584,-0.555Z" style="fill-rule:nonzero;stroke:black;stroke-width:0.01px;stroke-linecap:butt;stroke-miterlimit:2;"/>
            </g>
        </g>
    </g>
</svg>
