<svg width="353" height="153" xmlns="http://www.w3.org/2000/svg" xmlns:xlink="http://www.w3.org/1999/xlink" xml:space="preserve" overflow="hidden"><g transform="translate(-195 -163)"><g><path d="M101.248 76.0588C101.248 48.4288 78.5038 25.6851 50.8738 25.6851 23.24 25.6851 0.500217 48.4288 0.500217 76.0588 0.500217 103.689 23.24 126.432 50.8738 126.432 78.5038 126.432 101.248 103.689 101.248 76.0588Z" stroke="#231F20" stroke-width="0.999472" fill="none" transform="matrix(1.00077 0 0 -1 195.458 315.16)"/></g><path d="M158.819 76.0588C158.819 48.4288 136.075 25.6851 108.446 25.6851 80.8115 25.6851 58.0678 48.4288 58.0678 76.0588 58.0678 103.689 80.8115 126.432 108.446 126.432 136.075 126.432 158.819 103.689 158.819 76.0588Z" stroke="#231F20" stroke-width="0.999472" fill="none" transform="matrix(1.00077 0 0 -1 195.458 315.16)"/><path d="M2.5903-3.07697 3.9718-6.37373 5.33761-3.07697ZM2.55892 0 2.55892-0.235483C2.27633-0.251181 2.08794-0.282579 1.97805-0.329676 1.82107-0.40817 1.74258-0.549459 1.74258-0.737845 1.74258-0.847737 1.75827-0.989027 1.82107-1.16171 1.88386-1.3344 2.07225-1.80537 2.38622-2.5903L5.54169-2.5903 6.02835-1.44429C6.09115-1.2716 6.15394-1.13032 6.18534-0.973328 6.23243-0.832038 6.24814-0.737845 6.24814-0.67505 6.24814-0.486664 6.18534-0.376772 6.09115-0.329676 5.98125-0.298278 5.76148-0.26688 5.41609-0.235483L5.41609 0 8.46168 0 8.46168-0.235483C8.17909-0.26688 7.9907-0.329676 7.86511-0.439568 7.75523-0.549459 7.59824-0.832038 7.39416-1.2716L4.39567-8.0692 4.17589-8.0692 1.67978-2.18214C1.30301-1.30301 1.03612-0.769243 0.894834-0.565158 0.737845-0.376772 0.502363-0.26688 0.188386-0.235483L0.188386 0Z" fill="#231F20" transform="matrix(1.00077 0 0 1 226.34 243.179)"/><path d="M3.56364-0.439568C3.13977-0.439568 2.87289-0.470965 2.763-0.533761 2.6374-0.580857 2.57461-0.722147 2.57461-0.926232L2.57461-3.90901C2.6688-3.90901 2.763-3.90901 2.8101-3.90901 2.85719-3.90901 2.96708-3.90901 3.15546-3.90901 3.89331-3.90901 4.50557-3.78342 5.00793-3.53223 5.47889-3.29676 5.71438-2.82579 5.71438-2.16644 5.71438-1.49139 5.5103-1.03612 5.10212-0.784942 4.69396-0.549459 4.17589-0.439568 3.56364-0.439568ZM0.204085 0 4.1131 0C4.78814 0 5.3533-0.094193 5.80857-0.282579 6.672-0.627954 7.09588-1.2716 7.09588-2.21353 7.09588-2.763 6.90749-3.20256 6.51502-3.51654 6.12255-3.83052 5.65158-4.0346 5.10212-4.17589 5.54169-4.28578 5.87137-4.42707 6.10684-4.59975 6.49932-4.88234 6.68771-5.30621 6.68771-5.87137 6.68771-6.62491 6.42082-7.17436 5.85566-7.47265 5.2905-7.78662 4.52127-7.94361 3.56364-7.94361L0.204085-7.94361 0.204085-7.70813C0.690749-7.69243 0.989027-7.61393 1.14601-7.48834 1.2873-7.36275 1.3501-7.08018 1.3501-6.64061L1.3501-1.30301C1.3501-0.847737 1.2873-0.580857 1.14601-0.455266 0.989027-0.329676 0.690749-0.251181 0.204085-0.235483ZM3.72062-4.37998 2.57461-4.36428 2.57461-7.09588C2.57461-7.28426 2.60601-7.39416 2.6688-7.44125 2.71589-7.48834 2.87289-7.50405 3.12407-7.50405 3.78342-7.50405 4.27008-7.44125 4.59975-7.29996 5.18062-7.04877 5.4632-6.56211 5.4632-5.83997 5.4632-5.22771 5.21201-4.80384 4.70965-4.56837 4.44278-4.44278 4.1131-4.39567 3.72062-4.37998Z" fill="#231F20" transform="matrix(1.00077 0 0 1 313.861 243.179)"/><path d="M1.94666-2.30773 2.98278-4.78814 4.00321-2.30773ZM1.91526 0 1.91526-0.172687C1.71117-0.188386 1.56988-0.219784 1.49139-0.251181 1.3658-0.298278 1.30301-0.40817 1.30301-0.565158 1.30301-0.643652 1.3187-0.737845 1.3658-0.879135 1.4129-1.00473 1.55419-1.3658 1.78967-1.94666L4.16019-1.94666 4.52127-1.08321C4.56837-0.957629 4.61546-0.847737 4.64686-0.722147 4.66255-0.627954 4.69396-0.549459 4.69396-0.502363 4.69396-0.361073 4.64686-0.282579 4.56837-0.251181 4.48987-0.219784 4.31719-0.204085 4.0503-0.172687L4.0503 0 6.35803 0 6.35803-0.172687C6.13825-0.204085 5.99696-0.251181 5.90276-0.329676 5.80857-0.40817 5.69868-0.627954 5.54169-0.957629L3.29676-6.05975 3.12407-6.05975 1.25591-1.63268C0.973328-0.973328 0.784942-0.580857 0.659351-0.423869 0.549459-0.282579 0.376772-0.204085 0.14129-0.172687L0.14129 0Z" fill="#231F20" transform="matrix(1.00077 0 0 1 265.35 242.281)"/><path d="M5.69868-3.86191C5.69868-4.56837 5.4475-5.13353 4.96083-5.62018 4.47416-6.09115 3.89331-6.32664 3.21826-6.32664 2.54321-6.32664 1.96235-6.09115 1.47569-5.60448 0.973328-5.11782 0.737845-4.53696 0.737845-3.86191L0.737845 0 1.19311 0 1.19311-3.90901C1.19311-4.48987 1.3815-4.96083 1.77396-5.32191 2.18214-5.66728 2.6531-5.83997 3.21826-5.83997 3.81482-5.83997 4.28578-5.65158 4.66255-5.27481 5.03932-4.88234 5.22771-4.42707 5.22771-3.90901L5.22771 0 5.69868 0Z" fill="#231F20" transform="matrix(1.00077 0 0 1 271.848 242.281)"/><path d="M2.6688-0.329676C2.35483-0.329676 2.15074-0.345374 2.07225-0.392471 1.97805-0.439568 1.93096-0.533761 1.93096-0.690749L1.93096-2.93569C2.00945-2.93569 2.07225-2.93569 2.10364-2.93569 2.13504-2.93569 2.22924-2.93569 2.37053-2.93569 2.91998-2.93569 3.37526-2.84148 3.75203-2.6531 4.1131-2.48042 4.28578-2.11935 4.28578-1.61699 4.28578-1.11462 4.14449-0.769243 3.83052-0.596556 3.51654-0.40817 3.12407-0.329676 2.6688-0.329676ZM0.156988 0 3.09267 0C3.59503 0 4.0189-0.0784942 4.34857-0.204085 5.00793-0.470965 5.32191-0.957629 5.32191-1.64837 5.32191-2.07225 5.18062-2.40192 4.88234-2.6374 4.58406-2.87289 4.23869-3.02987 3.83052-3.12407 4.16019-3.21826 4.41137-3.31246 4.58406-3.43805 4.88234-3.65782 5.02363-3.98751 5.02363-4.41137 5.02363-4.97653 4.81955-5.38471 4.39567-5.60448 3.9718-5.83997 3.39095-5.94986 2.6688-5.94986L0.156988-5.94986 0.156988-5.77717C0.518062-5.76148 0.753544-5.71438 0.847737-5.62018 0.957629-5.52599 1.02042-5.30621 1.02042-4.97653L1.02042-0.973328C1.02042-0.643652 0.957629-0.439568 0.847737-0.345374 0.753544-0.235483 0.518062-0.188386 0.156988-0.172687ZM2.79439-3.28105 1.93096-3.28105 1.93096-5.32191C1.93096-5.4632 1.94666-5.55739 1.99376-5.58879 2.04085-5.62018 2.16644-5.63589 2.35483-5.63589 2.82579-5.63589 3.20256-5.57309 3.43805-5.47889 3.89331-5.2905 4.09739-4.91373 4.09739-4.37998 4.09739-3.92471 3.90901-3.61073 3.53223-3.42235 3.34385-3.34385 3.09267-3.29676 2.79439-3.28105Z" fill="#231F20" transform="matrix(1.00077 0 0 1 278.761 242.281)"/><path d="M292.812 101.244C292.812 73.6137 270.072 50.87 242.439 50.87 214.809 50.87 192.066 73.6137 192.066 101.244 192.066 128.878 214.809 151.617 242.439 151.617 270.072 151.617 292.812 128.878 292.812 101.244Z" stroke="#231F20" stroke-width="0.999472" fill="none" transform="matrix(1.00077 0 0 -1 195.458 315.16)"/><g><path d="M350.384 101.244C350.384 73.6137 327.64 50.87 300.01 50.87 272.376 50.87 249.637 73.6137 249.637 101.244 249.637 128.878 272.376 151.617 300.01 151.617 327.64 151.617 350.384 128.878 350.384 101.244Z" stroke="#231F20" stroke-width="0.999472" fill="none" transform="matrix(1.00077 0 0 -1 195.458 315.16)"/></g><g><path d="M321.596 50.87C321.596 23.24 298.856 0.500286 271.223 0.500286 243.592 0.500286 220.849 23.24 220.849 50.87 220.849 78.5038 243.592 101.244 271.223 101.244 298.856 101.244 321.596 78.5038 321.596 50.87Z" stroke="#231F20" stroke-width="0.999472" fill="none" transform="matrix(1.00077 0 0 -1 195.458 315.16)"/></g><path d="M2.5903-3.07697 3.9718-6.37373 5.33761-3.07697ZM2.55892 0 2.55892-0.235483C2.27633-0.251181 2.08794-0.282579 1.97805-0.329676 1.82107-0.40817 1.74258-0.549459 1.74258-0.737845 1.74258-0.847737 1.75827-0.989027 1.82107-1.16171 1.88386-1.3344 2.07225-1.80537 2.38622-2.5903L5.54169-2.5903 6.02835-1.44429C6.09115-1.2716 6.15394-1.13032 6.18534-0.973328 6.23243-0.832038 6.24814-0.737845 6.24814-0.67505 6.24814-0.486664 6.18534-0.376772 6.09115-0.329676 5.98125-0.298278 5.76148-0.26688 5.41609-0.235483L5.41609 0 8.46168 0 8.46168-0.235483C8.17909-0.26688 7.9907-0.329676 7.86511-0.439568 7.75523-0.549459 7.59824-0.832038 7.39416-1.2716L4.39567-8.0692 4.17589-8.0692 1.67978-2.18214C1.30301-1.30301 1.03612-0.769243 0.894834-0.565158 0.737845-0.376772 0.502363-0.26688 0.188386-0.235483L0.188386 0Z" fill="#231F20" transform="matrix(1.00077 0 0 1 418.054 207.518)"/><path d="M3.56364-0.439568C3.13977-0.439568 2.87289-0.470965 2.763-0.533761 2.6374-0.580857 2.57461-0.722147 2.57461-0.926232L2.57461-3.90901C2.6688-3.90901 2.763-3.90901 2.8101-3.90901 2.85719-3.90901 2.96708-3.90901 3.15546-3.90901 3.89331-3.90901 4.50557-3.78342 5.00793-3.53223 5.47889-3.29676 5.71438-2.82579 5.71438-2.16644 5.71438-1.49139 5.5103-1.03612 5.10212-0.784942 4.69396-0.549459 4.17589-0.439568 3.56364-0.439568ZM0.204085 0 4.1131 0C4.78814 0 5.3533-0.094193 5.80857-0.282579 6.672-0.627954 7.09588-1.2716 7.09588-2.21353 7.09588-2.763 6.90749-3.20256 6.51502-3.51654 6.12255-3.83052 5.65158-4.0346 5.10212-4.17589 5.54169-4.28578 5.87137-4.42707 6.10684-4.59975 6.49932-4.88234 6.68771-5.30621 6.68771-5.87137 6.68771-6.62491 6.42082-7.17436 5.85566-7.47265 5.2905-7.78662 4.52127-7.94361 3.56364-7.94361L0.204085-7.94361 0.204085-7.70813C0.690749-7.69243 0.989027-7.61393 1.14601-7.48834 1.2873-7.36275 1.3501-7.08018 1.3501-6.64061L1.3501-1.30301C1.3501-0.847737 1.2873-0.580857 1.14601-0.455266 0.989027-0.329676 0.690749-0.251181 0.204085-0.235483ZM3.72062-4.37998 2.57461-4.36428 2.57461-7.09588C2.57461-7.28426 2.60601-7.39416 2.6688-7.44125 2.71589-7.48834 2.87289-7.50405 3.12407-7.50405 3.78342-7.50405 4.27008-7.44125 4.59975-7.29996 5.18062-7.04877 5.4632-6.56211 5.4632-5.83997 5.4632-5.22771 5.21201-4.80384 4.70965-4.56837 4.44278-4.44278 4.1131-4.39567 3.72062-4.37998Z" fill="#231F20" transform="matrix(1.00077 0 0 1 505.574 207.018)"/><path d="M4.44278-8.0692C3.18687-8.0692 2.18214-7.64534 1.39719-6.829 0.67505-6.02835 0.298278-5.05503 0.298278-3.89331 0.298278-2.7473 0.643652-1.80537 1.3501-1.03612 2.10364-0.204085 3.12407 0.204085 4.41137 0.204085 5.21201 0.204085 5.91846-0.0156988 6.59351-0.439568 6.98598-0.690749 7.33136-0.989027 7.59824-1.3187L7.36275-1.55419C7.00168-1.19311 6.68771-0.94193 6.37373-0.784942 5.85566-0.486664 5.27481-0.329676 4.66255-0.329676 3.79912-0.329676 3.09267-0.659351 2.52751-1.30301 1.96235-1.93096 1.69547-2.77869 1.69547-3.84621 1.69547-5.00793 1.96235-5.93416 2.49612-6.59351 3.02987-7.25286 3.70493-7.59824 4.55266-7.59824 5.38471-7.59824 6.04405-7.28426 6.53072-6.672 6.7819-6.34233 7.00168-5.91846 7.15867-5.369L7.44125-5.369 7.33136-8.0692 7.08018-8.0692C7.03308-7.94361 6.97028-7.84942 6.86039-7.78662 6.7662-7.70813 6.65631-7.69243 6.54641-7.69243 6.48362-7.69243 6.23243-7.75523 5.77717-7.88082 5.30621-8.00641 4.86664-8.0692 4.44278-8.0692Z" fill="#231F20" transform="matrix(1.00077 0 0 1 462.564 284.977)"/><path d="M1.94666-2.30773 2.98278-4.78814 4.00321-2.30773ZM1.91526 0 1.91526-0.172687C1.71117-0.188386 1.56988-0.219784 1.49139-0.251181 1.3658-0.298278 1.30301-0.40817 1.30301-0.565158 1.30301-0.643652 1.3187-0.737845 1.3658-0.879135 1.4129-1.00473 1.55419-1.3658 1.78967-1.94666L4.16019-1.94666 4.52127-1.08321C4.56837-0.957629 4.61546-0.847737 4.64686-0.722147 4.66255-0.627954 4.69396-0.549459 4.69396-0.502363 4.69396-0.361073 4.64686-0.282579 4.56837-0.251181 4.48987-0.219784 4.31719-0.204085 4.0503-0.172687L4.0503 0 6.35803 0 6.35803-0.172687C6.13825-0.204085 5.99696-0.251181 5.90276-0.329676 5.80857-0.40817 5.69868-0.627954 5.54169-0.957629L3.29676-6.05975 3.12407-6.05975 1.25591-1.63268C0.973328-0.973328 0.784942-0.580857 0.659351-0.423869 0.549459-0.282579 0.376772-0.204085 0.14129-0.172687L0.14129 0Z" fill="#231F20" transform="matrix(1.00077 0 0 1 450.561 228.507)"/><path d="M5.69868-3.86191C5.69868-4.56837 5.4475-5.13353 4.96083-5.62018 4.47416-6.09115 3.89331-6.32664 3.21826-6.32664 2.54321-6.32664 1.96235-6.09115 1.47569-5.60448 0.973328-5.11782 0.737845-4.53696 0.737845-3.86191L0.737845 0 1.19311 0 1.19311-3.90901C1.19311-4.48987 1.3815-4.96083 1.77396-5.32191 2.18214-5.66728 2.6531-5.83997 3.21826-5.83997 3.81482-5.83997 4.28578-5.65158 4.66255-5.27481 5.03932-4.88234 5.22771-4.42707 5.22771-3.90901L5.22771 0 5.69868 0Z" fill="#231F20" transform="matrix(1.00077 0 0 1 457.06 228.507)"/><path d="M2.6688-0.329676C2.35483-0.329676 2.15074-0.345374 2.07225-0.392471 1.97805-0.439568 1.93096-0.533761 1.93096-0.690749L1.93096-2.93569C2.00945-2.93569 2.07225-2.93569 2.10364-2.93569 2.13504-2.93569 2.22924-2.93569 2.37053-2.93569 2.91998-2.93569 3.37526-2.84148 3.75203-2.6531 4.1131-2.48042 4.28578-2.11935 4.28578-1.61699 4.28578-1.11462 4.14449-0.769243 3.83052-0.596556 3.51654-0.40817 3.12407-0.329676 2.6688-0.329676ZM0.156988 0 3.09267 0C3.59503 0 4.0189-0.0784942 4.34857-0.204085 5.00793-0.470965 5.32191-0.957629 5.32191-1.64837 5.32191-2.07225 5.18062-2.40192 4.88234-2.6374 4.58406-2.87289 4.23869-3.02987 3.83052-3.12407 4.16019-3.21826 4.41137-3.31246 4.58406-3.43805 4.88234-3.65782 5.02363-3.98751 5.02363-4.41137 5.02363-4.97653 4.81955-5.38471 4.39567-5.60448 3.9718-5.83997 3.39095-5.94986 2.6688-5.94986L0.156988-5.94986 0.156988-5.77717C0.518062-5.76148 0.753544-5.71438 0.847737-5.62018 0.957629-5.52599 1.02042-5.30621 1.02042-4.97653L1.02042-0.973328C1.02042-0.643652 0.957629-0.439568 0.847737-0.345374 0.753544-0.235483 0.518062-0.188386 0.156988-0.172687ZM2.79439-3.28105 1.93096-3.28105 1.93096-5.32191C1.93096-5.4632 1.94666-5.55739 1.99376-5.58879 2.04085-5.62018 2.16644-5.63589 2.35483-5.63589 2.82579-5.63589 3.20256-5.57309 3.43805-5.47889 3.89331-5.2905 4.09739-4.91373 4.09739-4.37998 4.09739-3.92471 3.90901-3.61073 3.53223-3.42235 3.34385-3.34385 3.09267-3.29676 2.79439-3.28105Z" fill="#231F20" transform="matrix(1.00077 0 0 1 463.972 228.507)"/><path d="M5.69868-3.86191C5.69868-4.56837 5.4475-5.13353 4.96083-5.62018 4.47416-6.09115 3.89331-6.32664 3.21826-6.32664 2.54321-6.32664 1.96235-6.09115 1.47569-5.60448 0.973328-5.11782 0.737845-4.53696 0.737845-3.86191L0.737845 0 1.19311 0 1.19311-3.90901C1.19311-4.48987 1.3815-4.96083 1.77396-5.32191 2.18214-5.66728 2.6531-5.83997 3.21826-5.83997 3.81482-5.83997 4.28578-5.65158 4.66255-5.27481 5.03932-4.88234 5.22771-4.42707 5.22771-3.90901L5.22771 0 5.69868 0Z" fill="#231F20" transform="matrix(1.00077 0 0 1 469.976 228.507)"/><path d="M3.32815-6.05975C2.38622-6.05975 1.63268-5.74578 1.05183-5.11782 0.502363-4.52127 0.219784-3.78342 0.219784-2.91998 0.219784-2.05655 0.486664-1.3501 1.00473-0.769243 1.58558-0.156988 2.35483 0.156988 3.31246 0.156988 3.90901 0.156988 4.44278-0.0156988 4.94514-0.329676 5.24341-0.518062 5.49459-0.737845 5.69868-0.989027L5.52599-1.16171C5.25912-0.894834 5.00793-0.706448 4.78814-0.580857 4.39567-0.361073 3.95611-0.251181 3.50085-0.251181 2.85719-0.251181 2.32343-0.502363 1.89955-0.973328 1.47569-1.44429 1.2716-2.08794 1.2716-2.88859 1.2716-3.76772 1.45999-4.45847 1.86817-4.94514 2.26063-5.4475 2.77869-5.69868 3.40664-5.69868 4.0346-5.69868 4.53696-5.4632 4.89804-5.00793 5.08642-4.75675 5.25912-4.42707 5.369-4.0346L5.57309-4.0346 5.49459-6.05975 5.30621-6.05975C5.27481-5.94986 5.22771-5.88707 5.14922-5.83997 5.07073-5.77717 4.99223-5.76148 4.91373-5.76148 4.86664-5.76148 4.67825-5.80857 4.33288-5.90276 3.98751-6.01266 3.65782-6.05975 3.32815-6.05975Z" fill="#231F20" transform="matrix(1.00077 0 0 1 476.888 228.507)"/><path d="M1.94666-2.30773 2.98278-4.78814 4.00321-2.30773ZM1.91526 0 1.91526-0.172687C1.71117-0.188386 1.56988-0.219784 1.49139-0.251181 1.3658-0.298278 1.30301-0.40817 1.30301-0.565158 1.30301-0.643652 1.3187-0.737845 1.3658-0.879135 1.4129-1.00473 1.55419-1.3658 1.78967-1.94666L4.16019-1.94666 4.52127-1.08321C4.56837-0.957629 4.61546-0.847737 4.64686-0.722147 4.66255-0.627954 4.69396-0.549459 4.69396-0.502363 4.69396-0.361073 4.64686-0.282579 4.56837-0.251181 4.48987-0.219784 4.31719-0.204085 4.0503-0.172687L4.0503 0 6.35803 0 6.35803-0.172687C6.13825-0.204085 5.99696-0.251181 5.90276-0.329676 5.80857-0.40817 5.69868-0.627954 5.54169-0.957629L3.29676-6.05975 3.12407-6.05975 1.25591-1.63268C0.973328-0.973328 0.784942-0.580857 0.659351-0.423869 0.549459-0.282579 0.376772-0.204085 0.14129-0.172687L0.14129 0Z" fill="#231F20" transform="matrix(1.00077 0 0 1 457.063 201.521)"/><path d="M5.69868-3.86191C5.69868-4.56837 5.4475-5.13353 4.96083-5.62018 4.47416-6.09115 3.89331-6.32664 3.21826-6.32664 2.54321-6.32664 1.96235-6.09115 1.47569-5.60448 0.973328-5.11782 0.737845-4.53696 0.737845-3.86191L0.737845 0 1.19311 0 1.19311-3.90901C1.19311-4.48987 1.3815-4.96083 1.77396-5.32191 2.18214-5.66728 2.6531-5.83997 3.21826-5.83997 3.81482-5.83997 4.28578-5.65158 4.66255-5.27481 5.03932-4.88234 5.22771-4.42707 5.22771-3.90901L5.22771 0 5.69868 0Z" fill="#231F20" transform="matrix(1.00077 0 0 1 463.561 201.521)"/><path d="M2.6688-0.329676C2.35483-0.329676 2.15074-0.345374 2.07225-0.392471 1.97805-0.439568 1.93096-0.533761 1.93096-0.690749L1.93096-2.93569C2.00945-2.93569 2.07225-2.93569 2.10364-2.93569 2.13504-2.93569 2.22924-2.93569 2.37053-2.93569 2.91998-2.93569 3.37526-2.84148 3.75203-2.6531 4.1131-2.48042 4.28578-2.11935 4.28578-1.61699 4.28578-1.11462 4.14449-0.769243 3.83052-0.596556 3.51654-0.40817 3.12407-0.329676 2.6688-0.329676ZM0.156988 0 3.09267 0C3.59503 0 4.0189-0.0784942 4.34857-0.204085 5.00793-0.470965 5.32191-0.957629 5.32191-1.64837 5.32191-2.07225 5.18062-2.40192 4.88234-2.6374 4.58406-2.87289 4.23869-3.02987 3.83052-3.12407 4.16019-3.21826 4.41137-3.31246 4.58406-3.43805 4.88234-3.65782 5.02363-3.98751 5.02363-4.41137 5.02363-4.97653 4.81955-5.38471 4.39567-5.60448 3.9718-5.83997 3.39095-5.94986 2.6688-5.94986L0.156988-5.94986 0.156988-5.77717C0.518062-5.76148 0.753544-5.71438 0.847737-5.62018 0.957629-5.52599 1.02042-5.30621 1.02042-4.97653L1.02042-0.973328C1.02042-0.643652 0.957629-0.439568 0.847737-0.345374 0.753544-0.235483 0.518062-0.188386 0.156988-0.172687ZM2.79439-3.28105 1.93096-3.28105 1.93096-5.32191C1.93096-5.4632 1.94666-5.55739 1.99376-5.58879 2.04085-5.62018 2.16644-5.63589 2.35483-5.63589 2.82579-5.63589 3.20256-5.57309 3.43805-5.47889 3.89331-5.2905 4.09739-4.91373 4.09739-4.37998 4.09739-3.92471 3.90901-3.61073 3.53223-3.42235 3.34385-3.34385 3.09267-3.29676 2.79439-3.28105Z" fill="#231F20" transform="matrix(1.00077 0 0 1 470.473 201.521)"/><path d="M2.6688-0.329676C2.35483-0.329676 2.15074-0.345374 2.07225-0.392471 1.97805-0.439568 1.93096-0.533761 1.93096-0.690749L1.93096-2.93569C2.00945-2.93569 2.07225-2.93569 2.10364-2.93569 2.13504-2.93569 2.22924-2.93569 2.37053-2.93569 2.91998-2.93569 3.37526-2.84148 3.75203-2.6531 4.1131-2.48042 4.28578-2.11935 4.28578-1.61699 4.28578-1.11462 4.14449-0.769243 3.83052-0.596556 3.51654-0.40817 3.12407-0.329676 2.6688-0.329676ZM0.156988 0 3.09267 0C3.59503 0 4.0189-0.0784942 4.34857-0.204085 5.00793-0.470965 5.32191-0.957629 5.32191-1.64837 5.32191-2.07225 5.18062-2.40192 4.88234-2.6374 4.58406-2.87289 4.23869-3.02987 3.83052-3.12407 4.16019-3.21826 4.41137-3.31246 4.58406-3.43805 4.88234-3.65782 5.02363-3.98751 5.02363-4.41137 5.02363-4.97653 4.81955-5.38471 4.39567-5.60448 3.9718-5.83997 3.39095-5.94986 2.6688-5.94986L0.156988-5.94986 0.156988-5.77717C0.518062-5.76148 0.753544-5.71438 0.847737-5.62018 0.957629-5.52599 1.02042-5.30621 1.02042-4.97653L1.02042-0.973328C1.02042-0.643652 0.957629-0.439568 0.847737-0.345374 0.753544-0.235483 0.518062-0.188386 0.156988-0.172687ZM2.79439-3.28105 1.93096-3.28105 1.93096-5.32191C1.93096-5.4632 1.94666-5.55739 1.99376-5.58879 2.04085-5.62018 2.16644-5.63589 2.35483-5.63589 2.82579-5.63589 3.20256-5.57309 3.43805-5.47889 3.89331-5.2905 4.09739-4.91373 4.09739-4.37998 4.09739-3.92471 3.90901-3.61073 3.53223-3.42235 3.34385-3.34385 3.09267-3.29676 2.79439-3.28105Z" fill="#231F20" transform="matrix(1.00077 0 0 1 485.069 250.495)"/><path d="M5.69868-3.86191C5.69868-4.56837 5.4475-5.13353 4.96083-5.62018 4.47416-6.09115 3.89331-6.32664 3.21826-6.32664 2.54321-6.32664 1.96235-6.09115 1.47569-5.60448 0.973328-5.11782 0.737845-4.53696 0.737845-3.86191L0.737845 0 1.19311 0 1.19311-3.90901C1.19311-4.48987 1.3815-4.96083 1.77396-5.32191 2.18214-5.66728 2.6531-5.83997 3.21826-5.83997 3.81482-5.83997 4.28578-5.65158 4.66255-5.27481 5.03932-4.88234 5.22771-4.42707 5.22771-3.90901L5.22771 0 5.69868 0Z" fill="#231F20" transform="matrix(1.00077 0 0 1 491.074 250.495)"/><path d="M3.32815-6.05975C2.38622-6.05975 1.63268-5.74578 1.05183-5.11782 0.502363-4.52127 0.219784-3.78342 0.219784-2.91998 0.219784-2.05655 0.486664-1.3501 1.00473-0.769243 1.58558-0.156988 2.35483 0.156988 3.31246 0.156988 3.90901 0.156988 4.44278-0.0156988 4.94514-0.329676 5.24341-0.518062 5.49459-0.737845 5.69868-0.989027L5.52599-1.16171C5.25912-0.894834 5.00793-0.706448 4.78814-0.580857 4.39567-0.361073 3.95611-0.251181 3.50085-0.251181 2.85719-0.251181 2.32343-0.502363 1.89955-0.973328 1.47569-1.44429 1.2716-2.08794 1.2716-2.88859 1.2716-3.76772 1.45999-4.45847 1.86817-4.94514 2.26063-5.4475 2.77869-5.69868 3.40664-5.69868 4.0346-5.69868 4.53696-5.4632 4.89804-5.00793 5.08642-4.75675 5.25912-4.42707 5.369-4.0346L5.57309-4.0346 5.49459-6.05975 5.30621-6.05975C5.27481-5.94986 5.22771-5.88707 5.14922-5.83997 5.07073-5.77717 4.99223-5.76148 4.91373-5.76148 4.86664-5.76148 4.67825-5.80857 4.33288-5.90276 3.98751-6.01266 3.65782-6.05975 3.32815-6.05975Z" fill="#231F20" transform="matrix(1.00077 0 0 1 497.986 250.495)"/><path d="M1.94666-2.30773 2.98278-4.78814 4.00321-2.30773ZM1.91526 0 1.91526-0.172687C1.71117-0.188386 1.56988-0.219784 1.49139-0.251181 1.3658-0.298278 1.30301-0.40817 1.30301-0.565158 1.30301-0.643652 1.3187-0.737845 1.3658-0.879135 1.4129-1.00473 1.55419-1.3658 1.78967-1.94666L4.16019-1.94666 4.52127-1.08321C4.56837-0.957629 4.61546-0.847737 4.64686-0.722147 4.66255-0.627954 4.69396-0.549459 4.69396-0.502363 4.69396-0.361073 4.64686-0.282579 4.56837-0.251181 4.48987-0.219784 4.31719-0.204085 4.0503-0.172687L4.0503 0 6.35803 0 6.35803-0.172687C6.13825-0.204085 5.99696-0.251181 5.90276-0.329676 5.80857-0.40817 5.69868-0.627954 5.54169-0.957629L3.29676-6.05975 3.12407-6.05975 1.25591-1.63268C0.973328-0.973328 0.784942-0.580857 0.659351-0.423869 0.549459-0.282579 0.376772-0.204085 0.14129-0.172687L0.14129 0Z" fill="#231F20" transform="matrix(1.00077 0 0 1 428.055 250.495)"/><path d="M5.69868-3.86191C5.69868-4.56837 5.4475-5.13353 4.96083-5.62018 4.47416-6.09115 3.89331-6.32664 3.21826-6.32664 2.54321-6.32664 1.96235-6.09115 1.47569-5.60448 0.973328-5.11782 0.737845-4.53696 0.737845-3.86191L0.737845 0 1.19311 0 1.19311-3.90901C1.19311-4.48987 1.3815-4.96083 1.77396-5.32191 2.18214-5.66728 2.6531-5.83997 3.21826-5.83997 3.81482-5.83997 4.28578-5.65158 4.66255-5.27481 5.03932-4.88234 5.22771-4.42707 5.22771-3.90901L5.22771 0 5.69868 0Z" fill="#231F20" transform="matrix(1.00077 0 0 1 434.554 250.495)"/><path d="M3.32815-6.05975C2.38622-6.05975 1.63268-5.74578 1.05183-5.11782 0.502363-4.52127 0.219784-3.78342 0.219784-2.91998 0.219784-2.05655 0.486664-1.3501 1.00473-0.769243 1.58558-0.156988 2.35483 0.156988 3.31246 0.156988 3.90901 0.156988 4.44278-0.0156988 4.94514-0.329676 5.24341-0.518062 5.49459-0.737845 5.69868-0.989027L5.52599-1.16171C5.25912-0.894834 5.00793-0.706448 4.78814-0.580857 4.39567-0.361073 3.95611-0.251181 3.50085-0.251181 2.85719-0.251181 2.32343-0.502363 1.89955-0.973328 1.47569-1.44429 1.2716-2.08794 1.2716-2.88859 1.2716-3.76772 1.45999-4.45847 1.86817-4.94514 2.26063-5.4475 2.77869-5.69868 3.40664-5.69868 4.0346-5.69868 4.53696-5.4632 4.89804-5.00793 5.08642-4.75675 5.25912-4.42707 5.369-4.0346L5.57309-4.0346 5.49459-6.05975 5.30621-6.05975C5.27481-5.94986 5.22771-5.88707 5.14922-5.83997 5.07073-5.77717 4.99223-5.76148 4.91373-5.76148 4.86664-5.76148 4.67825-5.80857 4.33288-5.90276 3.98751-6.01266 3.65782-6.05975 3.32815-6.05975Z" fill="#231F20" transform="matrix(1.00077 0 0 1 441.467 250.495)"/></g></svg>