<svg width="283" height="284" xmlns="http://www.w3.org/2000/svg" xmlns:xlink="http://www.w3.org/1999/xlink" xml:space="preserve" overflow="hidden"><g transform="translate(-430 -292)"><path d="M0 283 283 283 283 0 0 0Z" fill="#FFFFFF" transform="matrix(1 0 0 1.00353 430 292)"/><path d="M36.0825 251.87 253.993 251.87 253.993 33.96 36.0825 33.96Z" fill="#FFFFFF" transform="matrix(1 0 0 1.00353 430 292)"/><g><path d="M145.5 143.377 64.087 224.79 65.4738 225.252 59.4645 228.488 62.7002 222.479 63.1625 223.865 144.575 142.452 145.5 143.377" transform="matrix(1 0 0 1.00353 430 292)"/></g><g><path d="M145.548 143.323 80.7651 224.302 82.1945 224.608 76.579 228.488 79.1313 222.158 79.7438 223.485 144.527 142.507 145.548 143.323" transform="matrix(1 0 0 1.00353 430 292)"/></g><g><path d="M145.598 143.251 97.2812 223.779 98.7388 223.892 93.694 228.488 95.3756 221.873 96.1604 223.107 144.477 142.579 145.598 143.251" transform="matrix(1 0 0 1.00353 430 292)"/></g><g><path d="M145.645 143.158 113.6 223.268 115.057 223.147 110.808 228.488 111.416 221.69 112.386 222.783 144.43 142.672 145.645 143.158" transform="matrix(1 0 0 1.00353 430 292)"/></g><g><path d="M145.679 143.043 129.718 222.847 131.128 222.462 127.923 228.488 127.282 221.693 128.436 222.591 144.396 142.787 145.679 143.043" transform="matrix(1 0 0 1.00353 430 292)"/></g><g><path d="M145.691 142.915 145.691 222.604 146.999 221.951 145.037 228.488 143.076 221.951 144.384 222.604 144.384 142.915 145.691 142.915" transform="matrix(1 0 0 1.00353 430 292)"/></g><g><path d="M145.679 142.787 161.64 222.591 162.793 221.693 162.152 228.488 158.947 222.462 160.357 222.847 144.396 143.043 145.679 142.787" transform="matrix(1 0 0 1.00353 430 292)"/></g><g><path d="M145.645 142.672 177.689 222.783 178.659 221.69 179.267 228.488 175.018 223.147 176.475 223.268 144.43 143.158 145.645 142.672" transform="matrix(1 0 0 1.00353 430 292)"/></g><g><path d="M145.598 142.579 193.915 223.107 194.699 221.873 196.381 228.488 191.336 223.892 192.794 223.779 144.477 143.251 145.598 142.579" transform="matrix(1 0 0 1.00353 430 292)"/></g><g><path d="M145.548 142.507 210.331 223.485 210.944 222.158 213.496 228.488 207.881 224.608 209.31 224.302 144.527 143.323 145.548 142.507" transform="matrix(1 0 0 1.00353 430 292)"/></g><g><path d="M145.446 143.425 64.4671 208.209 65.7942 208.821 59.4645 211.373 63.344 205.758 63.6504 207.187 144.629 142.405 145.446 143.425" transform="matrix(1 0 0 1.00353 430 292)"/></g><g><path d="M145.5 143.377 81.2013 207.675 82.5882 208.137 76.579 211.373 79.8152 205.364 80.277 206.751 144.575 142.452 145.5 143.377" transform="matrix(1 0 0 1.00353 430 292)"/></g><g><path d="M145.56 143.307 97.747 207.059 99.185 207.32 93.694 211.373 96.0471 204.967 96.7008 206.274 144.515 142.523 145.56 143.307" transform="matrix(1 0 0 1.00353 430 292)"/></g><g><path d="M145.622 143.207 114.024 206.403 115.486 206.403 110.808 211.373 111.978 204.649 112.855 205.819 144.452 142.623 145.622 143.207" transform="matrix(1 0 0 1.00353 430 292)"/></g><g><path d="M145.672 143.074 129.984 205.824 131.411 205.507 127.923 211.373 127.605 204.556 128.716 205.507 144.403 142.756 145.672 143.074" transform="matrix(1 0 0 1.00353 430 292)"/></g><g><path d="M145.691 142.915 145.691 205.49 146.999 204.836 145.037 211.373 143.076 204.836 144.384 205.49 144.384 142.915 145.691 142.915" transform="matrix(1 0 0 1.00353 430 292)"/></g><g><path d="M145.672 142.756 161.359 205.507 162.47 204.556 162.152 211.373 158.664 205.507 160.091 205.824 144.403 143.074 145.672 142.756" transform="matrix(1 0 0 1.00353 430 292)"/></g><g><path d="M145.622 142.623 177.22 205.819 178.097 204.649 179.267 211.373 174.589 206.403 176.051 206.403 144.452 143.207 145.622 142.623" transform="matrix(1 0 0 1.00353 430 292)"/></g><g><path d="M145.56 142.523 193.374 206.274 194.028 204.967 196.381 211.373 190.89 207.32 192.328 207.059 144.515 143.307 145.56 142.523" transform="matrix(1 0 0 1.00353 430 292)"/></g><g><path d="M145.5 142.452 209.798 206.751 210.26 205.364 213.496 211.373 207.487 208.137 208.874 207.675 144.575 143.377 145.5 142.452" transform="matrix(1 0 0 1.00353 430 292)"/></g><g><path d="M145.374 143.476 64.8459 191.792 66.0792 192.577 59.4645 194.259 64.0611 189.214 64.1732 190.671 144.701 142.354 145.374 143.476" transform="matrix(1 0 0 1.00353 430 292)"/></g><g><path d="M145.43 143.438 81.6783 191.252 82.9858 191.905 76.579 194.259 80.6321 188.768 80.8935 190.205 144.645 142.392 145.43 143.438" transform="matrix(1 0 0 1.00353 430 292)"/></g><g><path d="M145.5 143.377 98.3163 190.561 99.7031 191.023 93.694 194.259 96.9295 188.249 97.392 189.636 144.575 142.452 145.5 143.377" transform="matrix(1 0 0 1.00353 430 292)"/></g><g><path d="M145.581 143.278 114.616 189.726 116.066 189.907 110.808 194.259 112.803 187.732 113.528 189.001 144.494 142.552 145.581 143.278" transform="matrix(1 0 0 1.00353 430 292)"/></g><g><path d="M145.658 143.122 130.403 188.884 131.85 188.677 127.923 194.259 128.13 187.437 129.163 188.471 144.417 142.708 145.658 143.122" transform="matrix(1 0 0 1.00353 430 292)"/></g><g><path d="M145.691 142.915 145.691 188.375 146.999 187.721 145.037 194.259 143.076 187.721 144.384 188.375 144.384 142.915 145.691 142.915" transform="matrix(1 0 0 1.00353 430 292)"/></g><g><path d="M145.658 142.708 160.912 188.471 161.945 187.437 162.152 194.259 158.225 188.677 159.672 188.884 144.417 143.122 145.658 142.708" transform="matrix(1 0 0 1.00353 430 292)"/></g><g><path d="M145.581 142.552 176.547 189.001 177.272 187.732 179.267 194.259 174.009 189.907 175.459 189.726 144.494 143.278 145.581 142.552" transform="matrix(1 0 0 1.00353 430 292)"/></g><g><path d="M145.5 142.452 192.683 189.636 193.146 188.249 196.381 194.259 190.372 191.023 191.759 190.561 144.575 143.377 145.5 142.452" transform="matrix(1 0 0 1.00353 430 292)"/></g><g><path d="M145.43 142.392 209.182 190.205 209.443 188.768 213.496 194.259 207.089 191.905 208.397 191.252 144.645 143.438 145.43 142.392" transform="matrix(1 0 0 1.00353 430 292)"/></g><g><path d="M145.281 143.522 65.17 175.566 66.2626 176.537 59.4645 177.144 64.8058 172.895 64.6844 174.352 144.794 142.308 145.281 143.522" transform="matrix(1 0 0 1.00353 430 292)"/></g><g><path d="M145.33 143.5 82.1335 175.098 83.3035 175.975 76.579 177.144 81.5492 172.466 81.5492 173.928 144.745 142.33 145.33 143.5" transform="matrix(1 0 0 1.00353 430 292)"/></g><g><path d="M145.4 143.459 98.9517 174.424 100.221 175.149 93.694 177.144 98.0451 171.886 98.2265 173.337 144.675 142.371 145.4 143.459" transform="matrix(1 0 0 1.00353 430 292)"/></g><g><path d="M145.5 143.377 115.431 173.446 116.817 173.909 110.808 177.144 114.044 171.135 114.506 172.522 144.575 142.452 145.5 143.377" transform="matrix(1 0 0 1.00353 430 292)"/></g><g><path d="M145.622 143.207 131.139 172.174 132.601 172.174 127.923 177.144 129.093 170.42 129.969 171.59 144.452 142.623 145.622 143.207" transform="matrix(1 0 0 1.00353 430 292)"/></g><g><path d="M145.691 142.915 145.691 171.261 146.999 170.607 145.037 177.144 143.076 170.607 144.384 171.261 144.384 142.915 145.691 142.915" transform="matrix(1 0 0 1.00353 430 292)"/></g><g><path d="M145.622 142.623 160.106 171.59 160.982 170.42 162.152 177.144 157.474 172.174 158.936 172.174 144.452 143.207 145.622 142.623" transform="matrix(1 0 0 1.00353 430 292)"/></g><g><path d="M145.5 142.452 175.569 172.522 176.031 171.135 179.267 177.144 173.258 173.909 174.644 173.446 144.575 143.377 145.5 142.452" transform="matrix(1 0 0 1.00353 430 292)"/></g><g><path d="M145.4 142.371 191.848 173.337 192.03 171.886 196.381 177.144 189.854 175.149 191.123 174.424 144.675 143.459 145.4 142.371" transform="matrix(1 0 0 1.00353 430 292)"/></g><g><path d="M145.33 142.33 208.526 173.928 208.526 172.466 213.496 177.144 206.771 175.975 207.941 175.098 144.745 143.5 145.33 142.33" transform="matrix(1 0 0 1.00353 430 292)"/></g><g><path d="M145.166 143.556 65.362 159.517 66.2593 160.671 59.4645 160.029 65.4902 156.825 65.1055 158.235 144.909 142.274 145.166 143.556" transform="matrix(1 0 0 1.00353 430 292)"/></g><g><path d="M145.196 143.549 82.4454 159.237 83.3966 160.347 76.579 160.029 82.4454 156.542 82.1283 157.968 144.879 142.281 145.196 143.549" transform="matrix(1 0 0 1.00353 430 292)"/></g><g><path d="M145.245 143.535 99.4824 158.789 100.515 159.823 93.694 160.029 99.2754 156.102 99.0683 157.549 144.83 142.295 145.245 143.535" transform="matrix(1 0 0 1.00353 430 292)"/></g><g><path d="M145.33 143.5 116.363 157.983 117.533 158.86 110.808 160.029 115.778 155.352 115.778 156.813 144.745 142.33 145.33 143.5" transform="matrix(1 0 0 1.00353 430 292)"/></g><g><path d="M145.5 143.377 132.546 156.331 133.932 156.794 127.923 160.029 131.159 154.02 131.621 155.407 144.575 142.452 145.5 143.377" transform="matrix(1 0 0 1.00353 430 292)"/></g><g><path d="M145.691 142.915 145.691 154.146 146.999 153.492 145.037 160.029 143.076 153.492 144.384 154.146 144.384 142.915 145.691 142.915" transform="matrix(1 0 0 1.00353 430 292)"/></g><g><path d="M145.5 142.452 158.454 155.407 158.916 154.02 162.152 160.029 156.143 156.794 157.529 156.331 144.575 143.377 145.5 142.452" transform="matrix(1 0 0 1.00353 430 292)"/></g><g><path d="M145.33 142.33 174.297 156.813 174.297 155.352 179.267 160.029 172.542 158.86 173.712 157.983 144.745 143.5 145.33 142.33" transform="matrix(1 0 0 1.00353 430 292)"/></g><g><path d="M145.245 142.295 191.007 157.549 190.8 156.102 196.381 160.029 189.56 159.823 190.593 158.789 144.83 143.535 145.245 142.295" transform="matrix(1 0 0 1.00353 430 292)"/></g><g><path d="M145.196 142.281 207.947 157.968 207.63 156.542 213.496 160.029 206.678 160.347 207.63 159.237 144.879 143.549 145.196 142.281" transform="matrix(1 0 0 1.00353 430 292)"/></g><g><path d="M145.037 143.569 65.348 143.569 66.0019 144.876 59.4645 142.915 66.0019 140.954 65.348 142.261 145.037 142.261 145.037 143.569" transform="matrix(1 0 0 1.00353 430 292)"/></g><g><path d="M145.037 143.569 82.4624 143.569 83.1162 144.876 76.579 142.915 83.1162 140.954 82.4624 142.261 145.037 142.261 145.037 143.569" transform="matrix(1 0 0 1.00353 430 292)"/></g><g><path d="M145.037 143.569 99.5774 143.569 100.231 144.876 93.694 142.915 100.231 140.954 99.5774 142.261 145.037 142.261 145.037 143.569" transform="matrix(1 0 0 1.00353 430 292)"/></g><g><path d="M145.037 143.569 116.692 143.569 117.345 144.876 110.808 142.915 117.345 140.954 116.692 142.261 145.037 142.261 145.037 143.569" transform="matrix(1 0 0 1.00353 430 292)"/></g><g><path d="M145.037 143.569 133.807 143.569 134.46 144.876 127.923 142.915 134.46 140.954 133.807 142.261 145.037 142.261 145.037 143.569" transform="matrix(1 0 0 1.00353 430 292)"/></g><g><path d="M145.691 142.915 145.364 142.349 144.711 142.349 144.384 142.915 144.711 143.481 145.364 143.481 145.691 142.915 145.364 142.349" transform="matrix(1 0 0 1.00353 430 292)"/></g><g><path d="M145.037 142.261 156.268 142.261 155.615 140.954 162.152 142.915 155.615 144.876 156.268 143.569 145.037 143.569 145.037 142.261" transform="matrix(1 0 0 1.00353 430 292)"/></g><g><path d="M145.037 142.261 173.383 142.261 172.73 140.954 179.267 142.915 172.73 144.876 173.383 143.569 145.037 143.569 145.037 142.261" transform="matrix(1 0 0 1.00353 430 292)"/></g><g><path d="M145.037 142.261 190.498 142.261 189.844 140.954 196.381 142.915 189.844 144.876 190.498 143.569 145.037 143.569 145.037 142.261" transform="matrix(1 0 0 1.00353 430 292)"/></g><g><path d="M145.037 142.261 207.613 142.261 206.959 140.954 213.496 142.915 206.959 144.876 207.613 143.569 145.037 143.569 145.037 142.261" transform="matrix(1 0 0 1.00353 430 292)"/></g><g><path d="M144.909 143.556 65.1055 127.595 65.4902 129.005 59.4645 125.801 66.2593 125.159 65.362 126.313 145.166 142.274 144.909 143.556" transform="matrix(1 0 0 1.00353 430 292)"/></g><g><path d="M144.879 143.549 82.1283 127.862 82.4454 129.288 76.579 125.801 83.3966 125.483 82.4454 126.593 145.196 142.281 144.879 143.549" transform="matrix(1 0 0 1.00353 430 292)"/></g><g><path d="M144.83 143.535 99.0683 128.281 99.2754 129.728 93.694 125.801 100.515 126.007 99.4824 127.041 145.245 142.295 144.83 143.535" transform="matrix(1 0 0 1.00353 430 292)"/></g><g><path d="M144.745 143.5 115.778 129.017 115.778 130.478 110.808 125.801 117.533 126.97 116.363 127.847 145.33 142.33 144.745 143.5" transform="matrix(1 0 0 1.00353 430 292)"/></g><g><path d="M144.575 143.377 131.621 130.423 131.159 131.81 127.923 125.801 133.932 129.036 132.546 129.499 145.5 142.452 144.575 143.377" transform="matrix(1 0 0 1.00353 430 292)"/></g><g><path d="M144.384 142.915 144.384 131.684 143.076 132.338 145.037 125.801 146.999 132.338 145.691 131.684 145.691 142.915 144.384 142.915" transform="matrix(1 0 0 1.00353 430 292)"/></g><g><path d="M144.575 142.452 157.529 129.499 156.143 129.036 162.152 125.801 158.916 131.81 158.454 130.423 145.5 143.377 144.575 142.452" transform="matrix(1 0 0 1.00353 430 292)"/></g><g><path d="M144.745 142.33 173.712 127.847 172.542 126.97 179.267 125.801 174.297 130.478 174.297 129.017 145.33 143.5 144.745 142.33" transform="matrix(1 0 0 1.00353 430 292)"/></g><g><path d="M144.83 142.295 190.593 127.041 189.56 126.007 196.381 125.801 190.8 129.728 191.007 128.281 145.245 143.535 144.83 142.295" transform="matrix(1 0 0 1.00353 430 292)"/></g><g><path d="M144.879 142.281 207.63 126.593 206.678 125.483 213.496 125.801 207.63 129.288 207.947 127.862 145.196 143.549 144.879 142.281" transform="matrix(1 0 0 1.00353 430 292)"/></g><g><path d="M144.794 143.522 64.6844 111.478 64.8058 112.935 59.4645 108.686 66.2626 109.293 65.17 110.264 145.281 142.308 144.794 143.522" transform="matrix(1 0 0 1.00353 430 292)"/></g><g><path d="M144.745 143.5 81.5492 111.902 81.5492 113.364 76.579 108.686 83.3035 109.855 82.1335 110.732 145.33 142.33 144.745 143.5" transform="matrix(1 0 0 1.00353 430 292)"/></g><g><path d="M144.675 143.459 98.2265 112.493 98.0451 113.944 93.694 108.686 100.221 110.681 98.9517 111.406 145.4 142.371 144.675 143.459" transform="matrix(1 0 0 1.00353 430 292)"/></g><g><path d="M144.575 143.377 114.506 113.308 114.044 114.695 110.808 108.686 116.817 111.921 115.431 112.384 145.5 142.452 144.575 143.377" transform="matrix(1 0 0 1.00353 430 292)"/></g><g><path d="M144.452 143.207 129.969 114.24 129.093 115.41 127.923 108.686 132.601 113.656 131.139 113.656 145.622 142.623 144.452 143.207" transform="matrix(1 0 0 1.00353 430 292)"/></g><g><path d="M144.384 142.915 144.384 114.569 143.076 115.223 145.037 108.686 146.999 115.223 145.691 114.569 145.691 142.915 144.384 142.915" transform="matrix(1 0 0 1.00353 430 292)"/></g><g><path d="M144.452 142.623 158.936 113.656 157.474 113.656 162.152 108.686 160.982 115.41 160.106 114.24 145.622 143.207 144.452 142.623" transform="matrix(1 0 0 1.00353 430 292)"/></g><g><path d="M144.575 142.452 174.644 112.384 173.258 111.921 179.267 108.686 176.031 114.695 175.569 113.308 145.5 143.377 144.575 142.452" transform="matrix(1 0 0 1.00353 430 292)"/></g><g><path d="M144.675 142.371 191.123 111.406 189.854 110.681 196.381 108.686 192.03 113.944 191.848 112.493 145.4 143.459 144.675 142.371" transform="matrix(1 0 0 1.00353 430 292)"/></g><g><path d="M144.745 142.33 207.941 110.732 206.771 109.855 213.496 108.686 208.526 113.364 208.526 111.902 145.33 143.5 144.745 142.33" transform="matrix(1 0 0 1.00353 430 292)"/></g><g><path d="M144.701 143.476 64.1732 95.1587 64.0611 96.6163 59.4645 91.5715 66.0792 93.2531 64.8459 94.0379 145.374 142.354 144.701 143.476" transform="matrix(1 0 0 1.00353 430 292)"/></g><g><path d="M144.645 143.438 80.8935 95.6245 80.6321 97.0624 76.579 91.5715 82.9858 93.9246 81.6783 94.5783 145.43 142.392 144.645 143.438" transform="matrix(1 0 0 1.00353 430 292)"/></g><g><path d="M144.575 143.377 97.392 96.1938 96.9295 97.5806 93.694 91.5715 99.7031 94.807 98.3163 95.2695 145.5 142.452 144.575 143.377" transform="matrix(1 0 0 1.00353 430 292)"/></g><g><path d="M144.494 143.278 113.528 96.8292 112.803 98.0981 110.808 91.5715 116.066 95.9226 114.616 96.104 145.581 142.552 144.494 143.278" transform="matrix(1 0 0 1.00353 430 292)"/></g><g><path d="M144.417 143.122 129.163 97.3599 128.13 98.3929 127.923 91.5715 131.85 97.1529 130.403 96.9458 145.658 142.708 144.417 143.122" transform="matrix(1 0 0 1.00353 430 292)"/></g><g><path d="M144.384 142.915 144.384 97.4548 143.076 98.1086 145.037 91.5715 146.999 98.1086 145.691 97.4548 145.691 142.915 144.384 142.915" transform="matrix(1 0 0 1.00353 430 292)"/></g><g><path d="M144.417 142.708 159.672 96.9458 158.225 97.1529 162.152 91.5715 161.945 98.3929 160.912 97.3599 145.658 143.122 144.417 142.708" transform="matrix(1 0 0 1.00353 430 292)"/></g><g><path d="M144.494 142.552 175.459 96.104 174.009 95.9226 179.267 91.5715 177.272 98.0981 176.547 96.8292 145.581 143.278 144.494 142.552" transform="matrix(1 0 0 1.00353 430 292)"/></g><g><path d="M144.575 142.452 191.759 95.2695 190.372 94.807 196.381 91.5715 193.146 97.5806 192.683 96.1938 145.5 143.377 144.575 142.452" transform="matrix(1 0 0 1.00353 430 292)"/></g><g><path d="M144.645 142.392 208.397 94.5783 207.089 93.9246 213.496 91.5715 209.443 97.0624 209.182 95.6245 145.43 143.438 144.645 142.392" transform="matrix(1 0 0 1.00353 430 292)"/></g><g><path d="M144.629 143.425 63.6504 78.6426 63.344 80.072 59.4645 74.4565 65.7942 77.0088 64.4671 77.6213 145.446 142.405 144.629 143.425" transform="matrix(1 0 0 1.00353 430 292)"/></g><g><path d="M144.575 143.377 80.277 79.0788 79.8152 80.4657 76.579 74.4565 82.5882 77.6927 81.2013 78.1545 145.5 142.452 144.575 143.377" transform="matrix(1 0 0 1.00353 430 292)"/></g><g><path d="M144.515 143.307 96.7008 79.5558 96.0471 80.8633 93.694 74.4565 99.185 78.5096 97.747 78.771 145.56 142.523 144.515 143.307" transform="matrix(1 0 0 1.00353 430 292)"/></g><g><path d="M144.452 143.207 112.855 80.011 111.978 81.181 110.808 74.4565 115.486 79.4267 114.024 79.4267 145.622 142.623 144.452 143.207" transform="matrix(1 0 0 1.00353 430 292)"/></g><g><path d="M144.403 143.074 128.716 80.3229 127.605 81.2741 127.923 74.4565 131.411 80.3229 129.984 80.0058 145.672 142.756 144.403 143.074" transform="matrix(1 0 0 1.00353 430 292)"/></g><g><path d="M144.384 142.915 144.384 80.3399 143.076 80.9937 145.037 74.4565 146.999 80.9937 145.691 80.3399 145.691 142.915 144.384 142.915" transform="matrix(1 0 0 1.00353 430 292)"/></g><g><path d="M144.403 142.756 160.091 80.0058 158.664 80.3229 162.152 74.4565 162.47 81.2741 161.359 80.3229 145.672 143.074 144.403 142.756" transform="matrix(1 0 0 1.00353 430 292)"/></g><g><path d="M144.452 142.623 176.051 79.4267 174.589 79.4267 179.267 74.4565 178.097 81.181 177.22 80.011 145.622 143.207 144.452 142.623" transform="matrix(1 0 0 1.00353 430 292)"/></g><g><path d="M144.515 142.523 192.328 78.771 190.89 78.5096 196.381 74.4565 194.028 80.8633 193.374 79.5558 145.56 143.307 144.515 142.523" transform="matrix(1 0 0 1.00353 430 292)"/></g><g><path d="M144.575 142.452 208.874 78.1545 207.487 77.6927 213.496 74.4565 210.26 80.4657 209.798 79.0788 145.5 143.377 144.575 142.452" transform="matrix(1 0 0 1.00353 430 292)"/></g><path d="M0 0 0 2.29282" stroke="#000000" stroke-width="0.524074" stroke-linejoin="round" fill="none" transform="matrix(1 0 0 1.00353 466.082 544.76)"/><path d="M0.693989 2.32558 4.79446 2.32558 4.79446 1.78206 0.693989 1.78206 0.693989 2.32558Z" transform="matrix(1 0 0 -1.00353 459.17 554.357)"/><path d="M2.47605 4.21306 0.844455 1.66332 2.47605 1.66332 2.47605 4.21306ZM2.30613 4.77603 3.11885 4.77603 3.11885 1.66332 3.80056 1.66332 3.80056 1.12594 3.11885 1.12594 3.11885 0 2.47605 0 2.47605 1.12594 0.320381 1.12594 0.320381 1.7493 2.30613 4.77603Z" transform="matrix(1 0 0 -1.00353 464.659 554.357)"/><path d="M2.08197 4.35022C1.74964 4.35022 1.49955 4.18645 1.33168 3.8589 1.1645 3.53204 1.0809 3.04004 1.0809 2.3829 1.0809 1.72849 1.1645 1.23751 1.33168 0.909965 1.49955 0.582418 1.74964 0.418645 2.08197 0.418645 2.41702 0.418645 2.66814 0.582418 2.83532 0.909965 3.00319 1.23751 3.08712 1.72849 3.08712 2.3829 3.08712 3.04004 3.00319 3.53204 2.83532 3.8589 2.66814 4.18645 2.41702 4.35022 2.08197 4.35022ZM2.08197 4.86202C2.61764 4.86202 3.02673 4.65013 3.30924 4.22637 3.59175 3.80329 3.733 3.1888 3.733 2.3829 3.733 1.57905 3.59175 0.965238 3.30924 0.541475 3.02673 0.118395 2.61764-0.093146 2.08197-0.093146 1.54697-0.093146 1.13822 0.118395 0.855715 0.541475 0.573206 0.965238 0.431952 1.57905 0.431952 2.3829 0.431952 3.1888 0.573206 3.80329 0.855715 4.22637 1.13822 4.65013 1.54697 4.86202 2.08197 4.86202Z" transform="matrix(1 0 0 -1.00353 468.827 554.357)"/><path d="M0 0 0 2.29282" stroke="#000000" stroke-width="0.524074" stroke-linejoin="round" fill="none" transform="matrix(1 0 0 1.00353 493.321 544.76)"/><path d="M0.693989 2.32558 4.79446 2.32558 4.79446 1.78206 0.693989 1.78206 0.693989 2.32558Z" transform="matrix(1 0 0 -1.00353 486.409 554.357)"/><path d="M2.65824 2.57533C2.96736 2.50914 3.20859 2.3713 3.38192 2.16181 3.55592 1.95299 3.64293 1.69505 3.64293 1.38798 3.64293 0.91713 3.48087 0.552393 3.15673 0.293768 2.83259 0.0358254 2.37198-0.093146 1.77489-0.093146 1.57496-0.093146 1.36887-0.0733568 1.15665-0.0337782 0.944426 0.0058003 0.725379 0.0651681 0.499508 0.144325L0.499508 0.767687C0.678294 0.663281 0.874139 0.584465 1.08704 0.531239 1.30064 0.478013 1.52378 0.4514 1.75647 0.4514 2.16112 0.4514 2.46957 0.531239 2.68179 0.690918 2.894 0.850597 3.00012 1.08295 3.00012 1.38798 3.00012 1.6698 2.90152 1.88987 2.7043 2.04819 2.50709 2.20718 2.23277 2.28668 1.88134 2.28668L1.32452 2.28668 1.32452 2.81792 1.90693 2.81792C2.22424 2.81792 2.46717 2.88138 2.63572 3.00831 2.80428 3.13523 2.88855 3.31812 2.88855 3.55695 2.88855 3.80192 2.80154 3.98992 2.62754 4.12094 2.45421 4.25265 2.20548 4.31849 1.88134 4.31849 1.70393 4.31849 1.51388 4.29905 1.31121 4.26015 1.10854 4.22194 0.885739 4.16257 0.64281 4.08205L0.64281 4.6573C0.888469 4.72554 1.11844 4.77672 1.3327 4.81084 1.54697 4.84495 1.74896 4.86202 1.93866 4.86202 2.4293 4.86202 2.81724 4.75044 3.10248 4.5273 3.38839 4.30485 3.53136 4.00392 3.53136 3.6245 3.53136 3.35973 3.45561 3.13626 3.30412 2.95406 3.15263 2.77186 2.93734 2.64562 2.65824 2.57533Z" transform="matrix(1 0 0 -1.00353 491.897 554.357)"/><path d="M2.08197 4.35022C1.74964 4.35022 1.49955 4.18645 1.33168 3.8589 1.1645 3.53204 1.0809 3.04004 1.0809 2.3829 1.0809 1.72849 1.1645 1.23751 1.33168 0.909965 1.49955 0.582418 1.74964 0.418645 2.08197 0.418645 2.41702 0.418645 2.66814 0.582418 2.83532 0.909965 3.00319 1.23751 3.08712 1.72849 3.08712 2.3829 3.08712 3.04004 3.00319 3.53204 2.83532 3.8589 2.66814 4.18645 2.41702 4.35022 2.08197 4.35022ZM2.08197 4.86202C2.61764 4.86202 3.02673 4.65013 3.30924 4.22637 3.59175 3.80329 3.733 3.1888 3.733 2.3829 3.733 1.57905 3.59175 0.965238 3.30924 0.541475 3.02673 0.118395 2.61764-0.093146 2.08197-0.093146 1.54697-0.093146 1.13822 0.118395 0.855715 0.541475 0.573206 0.965238 0.431952 1.57905 0.431952 2.3829 0.431952 3.1888 0.573206 3.80329 0.855715 4.22637 1.13822 4.65013 1.54697 4.86202 2.08197 4.86202Z" transform="matrix(1 0 0 -1.00353 496.065 554.357)"/><path d="M0 0 0 2.29282" stroke="#000000" stroke-width="0.524074" stroke-linejoin="round" fill="none" transform="matrix(1 0 0 1.00353 520.56 544.76)"/><path d="M0.693989 2.32558 4.79446 2.32558 4.79446 1.78206 0.693989 1.78206 0.693989 2.32558Z" transform="matrix(1 0 0 -1.00353 513.647 554.357)"/><path d="M1.25696 0.543522 3.51191 0.543522 3.51191 0 0.48006 0 0.48006 0.543522C0.725037 0.79737 1.05907 1.13789 1.48215 1.56506 1.90591 1.99291 2.17204 2.26894 2.28054 2.39314 2.4873 2.62515 2.63163 2.82168 2.71352 2.98272 2.79609 3.14376 2.83737 3.30208 2.83737 3.45766 2.83737 3.71151 2.74832 3.91827 2.57021 4.07795 2.39211 4.23832 2.1601 4.31849 1.87418 4.31849 1.67151 4.31849 1.45758 4.28335 1.23239 4.21306 1.00789 4.14278 0.767687 4.03598 0.511791 3.89268L0.511791 4.54573C0.771781 4.65013 1.01471 4.72895 1.24058 4.78218 1.46713 4.8354 1.67424 4.86202 1.8619 4.86202 2.35662 4.86202 2.75105 4.73816 3.04516 4.49046 3.33926 4.24343 3.48632 3.91315 3.48632 3.49963 3.48632 3.3031 3.44947 3.11681 3.37577 2.94075 3.30276 2.76538 3.16901 2.55827 2.97453 2.31944 2.9213 2.25734 2.75173 2.07856 2.46581 1.78308 2.18057 1.4876 1.77762 1.07442 1.25696 0.543522Z" transform="matrix(1 0 0 -1.00353 519.136 554.357)"/><path d="M2.08197 4.35022C1.74964 4.35022 1.49955 4.18645 1.33168 3.8589 1.1645 3.53204 1.0809 3.04004 1.0809 2.3829 1.0809 1.72849 1.1645 1.23751 1.33168 0.909965 1.49955 0.582418 1.74964 0.418645 2.08197 0.418645 2.41702 0.418645 2.66814 0.582418 2.83532 0.909965 3.00319 1.23751 3.08712 1.72849 3.08712 2.3829 3.08712 3.04004 3.00319 3.53204 2.83532 3.8589 2.66814 4.18645 2.41702 4.35022 2.08197 4.35022ZM2.08197 4.86202C2.61764 4.86202 3.02673 4.65013 3.30924 4.22637 3.59175 3.80329 3.733 3.1888 3.733 2.3829 3.733 1.57905 3.59175 0.965238 3.30924 0.541475 3.02673 0.118395 2.61764-0.093146 2.08197-0.093146 1.54697-0.093146 1.13822 0.118395 0.855715 0.541475 0.573206 0.965238 0.431952 1.57905 0.431952 2.3829 0.431952 3.1888 0.573206 3.80329 0.855715 4.22637 1.13822 4.65013 1.54697 4.86202 2.08197 4.86202Z" transform="matrix(1 0 0 -1.00353 523.304 554.357)"/><path d="M0 0 0 2.29282" stroke="#000000" stroke-width="0.524074" stroke-linejoin="round" fill="none" transform="matrix(1 0 0 1.00353 547.799 544.76)"/><path d="M0.693989 2.32558 4.79446 2.32558 4.79446 1.78206 0.693989 1.78206 0.693989 2.32558Z" transform="matrix(1 0 0 -1.00353 540.886 554.357)"/><path d="M0.812724 0.543522 1.86804 0.543522 1.86804 4.18747 0.719578 3.95717 0.719578 4.54573 1.8619 4.77603 2.50778 4.77603 2.50778 0.543522 3.56309 0.543522 3.56309 0 0.812724 0 0.812724 0.543522Z" transform="matrix(1 0 0 -1.00353 546.375 554.357)"/><path d="M2.08197 4.35022C1.74964 4.35022 1.49955 4.18645 1.33168 3.8589 1.1645 3.53204 1.0809 3.04004 1.0809 2.3829 1.0809 1.72849 1.1645 1.23751 1.33168 0.909965 1.49955 0.582418 1.74964 0.418645 2.08197 0.418645 2.41702 0.418645 2.66814 0.582418 2.83532 0.909965 3.00319 1.23751 3.08712 1.72849 3.08712 2.3829 3.08712 3.04004 3.00319 3.53204 2.83532 3.8589 2.66814 4.18645 2.41702 4.35022 2.08197 4.35022ZM2.08197 4.86202C2.61764 4.86202 3.02673 4.65013 3.30924 4.22637 3.59175 3.80329 3.733 3.1888 3.733 2.3829 3.733 1.57905 3.59175 0.965238 3.30924 0.541475 3.02673 0.118395 2.61764-0.093146 2.08197-0.093146 1.54697-0.093146 1.13822 0.118395 0.855715 0.541475 0.573206 0.965238 0.431952 1.57905 0.431952 2.3829 0.431952 3.1888 0.573206 3.80329 0.855715 4.22637 1.13822 4.65013 1.54697 4.86202 2.08197 4.86202Z" transform="matrix(1 0 0 -1.00353 550.543 554.357)"/><path d="M0 0 0 2.29282" stroke="#000000" stroke-width="0.524074" stroke-linejoin="round" fill="none" transform="matrix(1 0 0 1.00353 575.037 544.76)"/><path d="M2.08197 4.35022C1.74964 4.35022 1.49955 4.18645 1.33168 3.8589 1.1645 3.53204 1.0809 3.04004 1.0809 2.3829 1.0809 1.72849 1.1645 1.23751 1.33168 0.909965 1.49955 0.582418 1.74964 0.418645 2.08197 0.418645 2.41702 0.418645 2.66814 0.582418 2.83532 0.909965 3.00319 1.23751 3.08712 1.72849 3.08712 2.3829 3.08712 3.04004 3.00319 3.53204 2.83532 3.8589 2.66814 4.18645 2.41702 4.35022 2.08197 4.35022ZM2.08197 4.86202C2.61764 4.86202 3.02673 4.65013 3.30924 4.22637 3.59175 3.80329 3.733 3.1888 3.733 2.3829 3.733 1.57905 3.59175 0.965238 3.30924 0.541475 3.02673 0.118395 2.61764-0.093146 2.08197-0.093146 1.54697-0.093146 1.13822 0.118395 0.855715 0.541475 0.573206 0.965238 0.431952 1.57905 0.431952 2.3829 0.431952 3.1888 0.573206 3.80329 0.855715 4.22637 1.13822 4.65013 1.54697 4.86202 2.08197 4.86202Z" transform="matrix(1 0 0 -1.00353 572.954 554.357)"/><path d="M0 0 0 2.29282" stroke="#000000" stroke-width="0.524074" stroke-linejoin="round" fill="none" transform="matrix(1 0 0 1.00353 602.276 544.76)"/><path d="M0.812724 0.543522 1.86804 0.543522 1.86804 4.18747 0.719578 3.95717 0.719578 4.54573 1.8619 4.77603 2.50778 4.77603 2.50778 0.543522 3.56309 0.543522 3.56309 0 0.812724 0 0.812724 0.543522Z" transform="matrix(1 0 0 -1.00353 598.109 554.357)"/><path d="M2.08197 4.35022C1.74964 4.35022 1.49955 4.18645 1.33168 3.8589 1.1645 3.53204 1.0809 3.04004 1.0809 2.3829 1.0809 1.72849 1.1645 1.23751 1.33168 0.909965 1.49955 0.582418 1.74964 0.418645 2.08197 0.418645 2.41702 0.418645 2.66814 0.582418 2.83532 0.909965 3.00319 1.23751 3.08712 1.72849 3.08712 2.3829 3.08712 3.04004 3.00319 3.53204 2.83532 3.8589 2.66814 4.18645 2.41702 4.35022 2.08197 4.35022ZM2.08197 4.86202C2.61764 4.86202 3.02673 4.65013 3.30924 4.22637 3.59175 3.80329 3.733 3.1888 3.733 2.3829 3.733 1.57905 3.59175 0.965238 3.30924 0.541475 3.02673 0.118395 2.61764-0.093146 2.08197-0.093146 1.54697-0.093146 1.13822 0.118395 0.855715 0.541475 0.573206 0.965238 0.431952 1.57905 0.431952 2.3829 0.431952 3.1888 0.573206 3.80329 0.855715 4.22637 1.13822 4.65013 1.54697 4.86202 2.08197 4.86202Z" transform="matrix(1 0 0 -1.00353 602.276 554.357)"/><path d="M0 0 0 2.29282" stroke="#000000" stroke-width="0.524074" stroke-linejoin="round" fill="none" transform="matrix(1 0 0 1.00353 629.515 544.76)"/><path d="M1.25696 0.543522 3.51191 0.543522 3.51191 0 0.48006 0 0.48006 0.543522C0.725037 0.79737 1.05907 1.13789 1.48215 1.56506 1.90591 1.99291 2.17204 2.26894 2.28054 2.39314 2.4873 2.62515 2.63163 2.82168 2.71352 2.98272 2.79609 3.14376 2.83737 3.30208 2.83737 3.45766 2.83737 3.71151 2.74832 3.91827 2.57021 4.07795 2.39211 4.23832 2.1601 4.31849 1.87418 4.31849 1.67151 4.31849 1.45758 4.28335 1.23239 4.21306 1.00789 4.14278 0.767687 4.03598 0.511791 3.89268L0.511791 4.54573C0.771781 4.65013 1.01471 4.72895 1.24058 4.78218 1.46713 4.8354 1.67424 4.86202 1.8619 4.86202 2.35662 4.86202 2.75105 4.73816 3.04516 4.49046 3.33926 4.24343 3.48632 3.91315 3.48632 3.49963 3.48632 3.3031 3.44947 3.11681 3.37577 2.94075 3.30276 2.76538 3.16901 2.55827 2.97453 2.31944 2.9213 2.25734 2.75173 2.07856 2.46581 1.78308 2.18057 1.4876 1.77762 1.07442 1.25696 0.543522Z" transform="matrix(1 0 0 -1.00353 625.347 554.357)"/><path d="M2.08197 4.35022C1.74964 4.35022 1.49955 4.18645 1.33168 3.8589 1.1645 3.53204 1.0809 3.04004 1.0809 2.3829 1.0809 1.72849 1.1645 1.23751 1.33168 0.909965 1.49955 0.582418 1.74964 0.418645 2.08197 0.418645 2.41702 0.418645 2.66814 0.582418 2.83532 0.909965 3.00319 1.23751 3.08712 1.72849 3.08712 2.3829 3.08712 3.04004 3.00319 3.53204 2.83532 3.8589 2.66814 4.18645 2.41702 4.35022 2.08197 4.35022ZM2.08197 4.86202C2.61764 4.86202 3.02673 4.65013 3.30924 4.22637 3.59175 3.80329 3.733 3.1888 3.733 2.3829 3.733 1.57905 3.59175 0.965238 3.30924 0.541475 3.02673 0.118395 2.61764-0.093146 2.08197-0.093146 1.54697-0.093146 1.13822 0.118395 0.855715 0.541475 0.573206 0.965238 0.431952 1.57905 0.431952 2.3829 0.431952 3.1888 0.573206 3.80329 0.855715 4.22637 1.13822 4.65013 1.54697 4.86202 2.08197 4.86202Z" transform="matrix(1 0 0 -1.00353 629.515 554.357)"/><path d="M0 0 0 2.29282" stroke="#000000" stroke-width="0.524074" stroke-linejoin="round" fill="none" transform="matrix(1 0 0 1.00353 656.754 544.76)"/><path d="M2.65824 2.57533C2.96736 2.50914 3.20859 2.3713 3.38192 2.16181 3.55592 1.95299 3.64293 1.69505 3.64293 1.38798 3.64293 0.91713 3.48087 0.552393 3.15673 0.293768 2.83259 0.0358254 2.37198-0.093146 1.77489-0.093146 1.57496-0.093146 1.36887-0.0733568 1.15665-0.0337782 0.944426 0.0058003 0.725379 0.0651681 0.499508 0.144325L0.499508 0.767687C0.678294 0.663281 0.874139 0.584465 1.08704 0.531239 1.30064 0.478013 1.52378 0.4514 1.75647 0.4514 2.16112 0.4514 2.46957 0.531239 2.68179 0.690918 2.894 0.850597 3.00012 1.08295 3.00012 1.38798 3.00012 1.6698 2.90152 1.88987 2.7043 2.04819 2.50709 2.20718 2.23277 2.28668 1.88134 2.28668L1.32452 2.28668 1.32452 2.81792 1.90693 2.81792C2.22424 2.81792 2.46717 2.88138 2.63572 3.00831 2.80428 3.13523 2.88855 3.31812 2.88855 3.55695 2.88855 3.80192 2.80154 3.98992 2.62754 4.12094 2.45421 4.25265 2.20548 4.31849 1.88134 4.31849 1.70393 4.31849 1.51388 4.29905 1.31121 4.26015 1.10854 4.22194 0.885739 4.16257 0.64281 4.08205L0.64281 4.6573C0.888469 4.72554 1.11844 4.77672 1.3327 4.81084 1.54697 4.84495 1.74896 4.86202 1.93866 4.86202 2.4293 4.86202 2.81724 4.75044 3.10248 4.5273 3.38839 4.30485 3.53136 4.00392 3.53136 3.6245 3.53136 3.35973 3.45561 3.13626 3.30412 2.95406 3.15263 2.77186 2.93734 2.64562 2.65824 2.57533Z" transform="matrix(1 0 0 -1.00353 652.585 554.357)"/><path d="M2.08197 4.35022C1.74964 4.35022 1.49955 4.18645 1.33168 3.8589 1.1645 3.53204 1.0809 3.04004 1.0809 2.3829 1.0809 1.72849 1.1645 1.23751 1.33168 0.909965 1.49955 0.582418 1.74964 0.418645 2.08197 0.418645 2.41702 0.418645 2.66814 0.582418 2.83532 0.909965 3.00319 1.23751 3.08712 1.72849 3.08712 2.3829 3.08712 3.04004 3.00319 3.53204 2.83532 3.8589 2.66814 4.18645 2.41702 4.35022 2.08197 4.35022ZM2.08197 4.86202C2.61764 4.86202 3.02673 4.65013 3.30924 4.22637 3.59175 3.80329 3.733 3.1888 3.733 2.3829 3.733 1.57905 3.59175 0.965238 3.30924 0.541475 3.02673 0.118395 2.61764-0.093146 2.08197-0.093146 1.54697-0.093146 1.13822 0.118395 0.855715 0.541475 0.573206 0.965238 0.431952 1.57905 0.431952 2.3829 0.431952 3.1888 0.573206 3.80329 0.855715 4.22637 1.13822 4.65013 1.54697 4.86202 2.08197 4.86202Z" transform="matrix(1 0 0 -1.00353 656.753 554.357)"/><path d="M0 0 0 2.29282" stroke="#000000" stroke-width="0.524074" stroke-linejoin="round" fill="none" transform="matrix(1 0 0 1.00353 683.992 544.76)"/><path d="M2.47605 4.21306 0.844455 1.66332 2.47605 1.66332 2.47605 4.21306ZM2.30613 4.77603 3.11885 4.77603 3.11885 1.66332 3.80056 1.66332 3.80056 1.12594 3.11885 1.12594 3.11885 0 2.47605 0 2.47605 1.12594 0.320381 1.12594 0.320381 1.7493 2.30613 4.77603Z" transform="matrix(1 0 0 -1.00353 679.825 554.357)"/><path d="M2.08197 4.35022C1.74964 4.35022 1.49955 4.18645 1.33168 3.8589 1.1645 3.53204 1.0809 3.04004 1.0809 2.3829 1.0809 1.72849 1.1645 1.23751 1.33168 0.909965 1.49955 0.582418 1.74964 0.418645 2.08197 0.418645 2.41702 0.418645 2.66814 0.582418 2.83532 0.909965 3.00319 1.23751 3.08712 1.72849 3.08712 2.3829 3.08712 3.04004 3.00319 3.53204 2.83532 3.8589 2.66814 4.18645 2.41702 4.35022 2.08197 4.35022ZM2.08197 4.86202C2.61764 4.86202 3.02673 4.65013 3.30924 4.22637 3.59175 3.80329 3.733 3.1888 3.733 2.3829 3.733 1.57905 3.59175 0.965238 3.30924 0.541475 3.02673 0.118395 2.61764-0.093146 2.08197-0.093146 1.54697-0.093146 1.13822 0.118395 0.855715 0.541475 0.573206 0.965238 0.431952 1.57905 0.431952 2.3829 0.431952 3.1888 0.573206 3.80329 0.855715 4.22637 1.13822 4.65013 1.54697 4.86202 2.08197 4.86202Z" transform="matrix(1 0 0 -1.00353 683.993 554.357)"/><path d="M1.19964 4.97768 1.7882 4.97768 1.22523 2.07582 3.24373 3.58254 4.00835 3.58254 1.75647 1.86804 3.40034 0 2.6869 0 1.15767 1.7493 0.818866 0 0.230306 0 1.19964 4.97768Z" transform="matrix(1 0 0 -1.00353 571.565 563.349)"/><path d="M0.568907 0.380466 1.30763 0.380466 1.30763 2.93123 0.503705 2.77002 0.503705 3.18201 1.30333 3.34322 1.75544 3.34322 1.75544 0.380466 2.49416 0.380466 2.49416 0 0.568907 0 0.568907 0.380466Z" transform="matrix(1 0 0 -1.00353 575.359 564.427)"/><path d="M0 0-2.29282 0" stroke="#000000" stroke-width="0.524074" stroke-linejoin="round" fill="none" transform="matrix(1 0 0 1.00353 466.082 544.76)"/><path d="M0.693989 2.32558 4.79446 2.32558 4.79446 1.78206 0.693989 1.78206 0.693989 2.32558Z" transform="matrix(1 0 0 -1.00353 447.671 547.258)"/><path d="M2.47605 4.21306 0.844455 1.66332 2.47605 1.66332 2.47605 4.21306ZM2.30613 4.77603 3.11885 4.77603 3.11885 1.66332 3.80056 1.66332 3.80056 1.12594 3.11885 1.12594 3.11885 0 2.47605 0 2.47605 1.12594 0.320381 1.12594 0.320381 1.7493 2.30613 4.77603Z" transform="matrix(1 0 0 -1.00353 453.16 547.258)"/><path d="M2.08197 4.35022C1.74964 4.35022 1.49955 4.18645 1.33168 3.8589 1.1645 3.53204 1.0809 3.04004 1.0809 2.3829 1.0809 1.72849 1.1645 1.23751 1.33168 0.909965 1.49955 0.582418 1.74964 0.418645 2.08197 0.418645 2.41702 0.418645 2.66814 0.582418 2.83532 0.909965 3.00319 1.23751 3.08712 1.72849 3.08712 2.3829 3.08712 3.04004 3.00319 3.53204 2.83532 3.8589 2.66814 4.18645 2.41702 4.35022 2.08197 4.35022ZM2.08197 4.86202C2.61764 4.86202 3.02673 4.65013 3.30924 4.22637 3.59175 3.80329 3.733 3.1888 3.733 2.3829 3.733 1.57905 3.59175 0.965238 3.30924 0.541475 3.02673 0.118395 2.61764-0.093146 2.08197-0.093146 1.54697-0.093146 1.13822 0.118395 0.855715 0.541475 0.573206 0.965238 0.431952 1.57905 0.431952 2.3829 0.431952 3.1888 0.573206 3.80329 0.855715 4.22637 1.13822 4.65013 1.54697 4.86202 2.08197 4.86202Z" transform="matrix(1 0 0 -1.00353 457.328 547.258)"/><path d="M0 0-2.29282 0" stroke="#000000" stroke-width="0.524074" stroke-linejoin="round" fill="none" transform="matrix(1 0 0 1.00353 466.082 517.425)"/><path d="M0.693989 2.32558 4.79446 2.32558 4.79446 1.78206 0.693989 1.78206 0.693989 2.32558Z" transform="matrix(1 0 0 -1.00353 447.671 519.922)"/><path d="M2.65824 2.57533C2.96736 2.50914 3.20859 2.3713 3.38192 2.16181 3.55592 1.95299 3.64293 1.69505 3.64293 1.38798 3.64293 0.91713 3.48087 0.552393 3.15673 0.293768 2.83259 0.0358254 2.37198-0.093146 1.77489-0.093146 1.57496-0.093146 1.36887-0.0733568 1.15665-0.0337782 0.944426 0.0058003 0.725379 0.0651681 0.499508 0.144325L0.499508 0.767687C0.678294 0.663281 0.874139 0.584465 1.08704 0.531239 1.30064 0.478013 1.52378 0.4514 1.75647 0.4514 2.16112 0.4514 2.46957 0.531239 2.68179 0.690918 2.894 0.850597 3.00012 1.08295 3.00012 1.38798 3.00012 1.6698 2.90152 1.88987 2.7043 2.04819 2.50709 2.20718 2.23277 2.28668 1.88134 2.28668L1.32452 2.28668 1.32452 2.81792 1.90693 2.81792C2.22424 2.81792 2.46717 2.88138 2.63572 3.00831 2.80428 3.13523 2.88855 3.31812 2.88855 3.55695 2.88855 3.80192 2.80154 3.98992 2.62754 4.12094 2.45421 4.25265 2.20548 4.31849 1.88134 4.31849 1.70393 4.31849 1.51388 4.29905 1.31121 4.26015 1.10854 4.22194 0.885739 4.16257 0.64281 4.08205L0.64281 4.6573C0.888469 4.72554 1.11844 4.77672 1.3327 4.81084 1.54697 4.84495 1.74896 4.86202 1.93866 4.86202 2.4293 4.86202 2.81724 4.75044 3.10248 4.5273 3.38839 4.30485 3.53136 4.00392 3.53136 3.6245 3.53136 3.35973 3.45561 3.13626 3.30412 2.95406 3.15263 2.77186 2.93734 2.64562 2.65824 2.57533Z" transform="matrix(1 0 0 -1.00353 453.16 519.922)"/><path d="M2.08197 4.35022C1.74964 4.35022 1.49955 4.18645 1.33168 3.8589 1.1645 3.53204 1.0809 3.04004 1.0809 2.3829 1.0809 1.72849 1.1645 1.23751 1.33168 0.909965 1.49955 0.582418 1.74964 0.418645 2.08197 0.418645 2.41702 0.418645 2.66814 0.582418 2.83532 0.909965 3.00319 1.23751 3.08712 1.72849 3.08712 2.3829 3.08712 3.04004 3.00319 3.53204 2.83532 3.8589 2.66814 4.18645 2.41702 4.35022 2.08197 4.35022ZM2.08197 4.86202C2.61764 4.86202 3.02673 4.65013 3.30924 4.22637 3.59175 3.80329 3.733 3.1888 3.733 2.3829 3.733 1.57905 3.59175 0.965238 3.30924 0.541475 3.02673 0.118395 2.61764-0.093146 2.08197-0.093146 1.54697-0.093146 1.13822 0.118395 0.855715 0.541475 0.573206 0.965238 0.431952 1.57905 0.431952 2.3829 0.431952 3.1888 0.573206 3.80329 0.855715 4.22637 1.13822 4.65013 1.54697 4.86202 2.08197 4.86202Z" transform="matrix(1 0 0 -1.00353 457.328 519.922)"/><path d="M0 0-2.29282 0" stroke="#000000" stroke-width="0.524074" stroke-linejoin="round" fill="none" transform="matrix(1 0 0 1.00353 466.082 490.09)"/><path d="M0.693989 2.32558 4.79446 2.32558 4.79446 1.78206 0.693989 1.78206 0.693989 2.32558Z" transform="matrix(1 0 0 -1.00353 447.671 492.587)"/><path d="M1.25696 0.543522 3.51191 0.543522 3.51191 0 0.48006 0 0.48006 0.543522C0.725037 0.79737 1.05907 1.13789 1.48215 1.56506 1.90591 1.99291 2.17204 2.26894 2.28054 2.39314 2.4873 2.62515 2.63163 2.82168 2.71352 2.98272 2.79609 3.14376 2.83737 3.30208 2.83737 3.45766 2.83737 3.71151 2.74832 3.91827 2.57021 4.07795 2.39211 4.23832 2.1601 4.31849 1.87418 4.31849 1.67151 4.31849 1.45758 4.28335 1.23239 4.21306 1.00789 4.14278 0.767687 4.03598 0.511791 3.89268L0.511791 4.54573C0.771781 4.65013 1.01471 4.72895 1.24058 4.78218 1.46713 4.8354 1.67424 4.86202 1.8619 4.86202 2.35662 4.86202 2.75105 4.73816 3.04516 4.49046 3.33926 4.24343 3.48632 3.91315 3.48632 3.49963 3.48632 3.3031 3.44947 3.11681 3.37577 2.94075 3.30276 2.76538 3.16901 2.55827 2.97453 2.31944 2.9213 2.25734 2.75173 2.07856 2.46581 1.78308 2.18057 1.4876 1.77762 1.07442 1.25696 0.543522Z" transform="matrix(1 0 0 -1.00353 453.16 492.587)"/><path d="M2.08197 4.35022C1.74964 4.35022 1.49955 4.18645 1.33168 3.8589 1.1645 3.53204 1.0809 3.04004 1.0809 2.3829 1.0809 1.72849 1.1645 1.23751 1.33168 0.909965 1.49955 0.582418 1.74964 0.418645 2.08197 0.418645 2.41702 0.418645 2.66814 0.582418 2.83532 0.909965 3.00319 1.23751 3.08712 1.72849 3.08712 2.3829 3.08712 3.04004 3.00319 3.53204 2.83532 3.8589 2.66814 4.18645 2.41702 4.35022 2.08197 4.35022ZM2.08197 4.86202C2.61764 4.86202 3.02673 4.65013 3.30924 4.22637 3.59175 3.80329 3.733 3.1888 3.733 2.3829 3.733 1.57905 3.59175 0.965238 3.30924 0.541475 3.02673 0.118395 2.61764-0.093146 2.08197-0.093146 1.54697-0.093146 1.13822 0.118395 0.855715 0.541475 0.573206 0.965238 0.431952 1.57905 0.431952 2.3829 0.431952 3.1888 0.573206 3.80329 0.855715 4.22637 1.13822 4.65013 1.54697 4.86202 2.08197 4.86202Z" transform="matrix(1 0 0 -1.00353 457.328 492.587)"/><path d="M0 0-2.29282 0" stroke="#000000" stroke-width="0.524074" stroke-linejoin="round" fill="none" transform="matrix(1 0 0 1.00353 466.082 462.755)"/><path d="M0.693989 2.32558 4.79446 2.32558 4.79446 1.78206 0.693989 1.78206 0.693989 2.32558Z" transform="matrix(1 0 0 -1.00353 447.671 465.253)"/><path d="M0.812724 0.543522 1.86804 0.543522 1.86804 4.18747 0.719578 3.95717 0.719578 4.54573 1.8619 4.77603 2.50778 4.77603 2.50778 0.543522 3.56309 0.543522 3.56309 0 0.812724 0 0.812724 0.543522Z" transform="matrix(1 0 0 -1.00353 453.16 465.253)"/><path d="M2.08197 4.35022C1.74964 4.35022 1.49955 4.18645 1.33168 3.8589 1.1645 3.53204 1.0809 3.04004 1.0809 2.3829 1.0809 1.72849 1.1645 1.23751 1.33168 0.909965 1.49955 0.582418 1.74964 0.418645 2.08197 0.418645 2.41702 0.418645 2.66814 0.582418 2.83532 0.909965 3.00319 1.23751 3.08712 1.72849 3.08712 2.3829 3.08712 3.04004 3.00319 3.53204 2.83532 3.8589 2.66814 4.18645 2.41702 4.35022 2.08197 4.35022ZM2.08197 4.86202C2.61764 4.86202 3.02673 4.65013 3.30924 4.22637 3.59175 3.80329 3.733 3.1888 3.733 2.3829 3.733 1.57905 3.59175 0.965238 3.30924 0.541475 3.02673 0.118395 2.61764-0.093146 2.08197-0.093146 1.54697-0.093146 1.13822 0.118395 0.855715 0.541475 0.573206 0.965238 0.431952 1.57905 0.431952 2.3829 0.431952 3.1888 0.573206 3.80329 0.855715 4.22637 1.13822 4.65013 1.54697 4.86202 2.08197 4.86202Z" transform="matrix(1 0 0 -1.00353 457.328 465.253)"/><path d="M0 0-2.29282 0" stroke="#000000" stroke-width="0.524074" stroke-linejoin="round" fill="none" transform="matrix(1 0 0 1.00353 466.082 435.42)"/><path d="M2.08197 4.35022C1.74964 4.35022 1.49955 4.18645 1.33168 3.8589 1.1645 3.53204 1.0809 3.04004 1.0809 2.3829 1.0809 1.72849 1.1645 1.23751 1.33168 0.909965 1.49955 0.582418 1.74964 0.418645 2.08197 0.418645 2.41702 0.418645 2.66814 0.582418 2.83532 0.909965 3.00319 1.23751 3.08712 1.72849 3.08712 2.3829 3.08712 3.04004 3.00319 3.53204 2.83532 3.8589 2.66814 4.18645 2.41702 4.35022 2.08197 4.35022ZM2.08197 4.86202C2.61764 4.86202 3.02673 4.65013 3.30924 4.22637 3.59175 3.80329 3.733 3.1888 3.733 2.3829 3.733 1.57905 3.59175 0.965238 3.30924 0.541475 3.02673 0.118395 2.61764-0.093146 2.08197-0.093146 1.54697-0.093146 1.13822 0.118395 0.855715 0.541475 0.573206 0.965238 0.431952 1.57905 0.431952 2.3829 0.431952 3.1888 0.573206 3.80329 0.855715 4.22637 1.13822 4.65013 1.54697 4.86202 2.08197 4.86202Z" transform="matrix(1 0 0 -1.00353 457.329 437.917)"/><path d="M0 0-2.29282 0" stroke="#000000" stroke-width="0.524074" stroke-linejoin="round" fill="none" transform="matrix(1 0 0 1.00353 466.082 408.085)"/><path d="M0.812724 0.543522 1.86804 0.543522 1.86804 4.18747 0.719578 3.95717 0.719578 4.54573 1.8619 4.77603 2.50778 4.77603 2.50778 0.543522 3.56309 0.543522 3.56309 0 0.812724 0 0.812724 0.543522Z" transform="matrix(1 0 0 -1.00353 453.161 410.582)"/><path d="M2.08197 4.35022C1.74964 4.35022 1.49955 4.18645 1.33168 3.8589 1.1645 3.53204 1.0809 3.04004 1.0809 2.3829 1.0809 1.72849 1.1645 1.23751 1.33168 0.909965 1.49955 0.582418 1.74964 0.418645 2.08197 0.418645 2.41702 0.418645 2.66814 0.582418 2.83532 0.909965 3.00319 1.23751 3.08712 1.72849 3.08712 2.3829 3.08712 3.04004 3.00319 3.53204 2.83532 3.8589 2.66814 4.18645 2.41702 4.35022 2.08197 4.35022ZM2.08197 4.86202C2.61764 4.86202 3.02673 4.65013 3.30924 4.22637 3.59175 3.80329 3.733 3.1888 3.733 2.3829 3.733 1.57905 3.59175 0.965238 3.30924 0.541475 3.02673 0.118395 2.61764-0.093146 2.08197-0.093146 1.54697-0.093146 1.13822 0.118395 0.855715 0.541475 0.573206 0.965238 0.431952 1.57905 0.431952 2.3829 0.431952 3.1888 0.573206 3.80329 0.855715 4.22637 1.13822 4.65013 1.54697 4.86202 2.08197 4.86202Z" transform="matrix(1 0 0 -1.00353 457.329 410.582)"/><path d="M0 0-2.29282 0" stroke="#000000" stroke-width="0.524074" stroke-linejoin="round" fill="none" transform="matrix(1 0 0 1.00353 466.082 380.75)"/><path d="M1.25696 0.543522 3.51191 0.543522 3.51191 0 0.48006 0 0.48006 0.543522C0.725037 0.79737 1.05907 1.13789 1.48215 1.56506 1.90591 1.99291 2.17204 2.26894 2.28054 2.39314 2.4873 2.62515 2.63163 2.82168 2.71352 2.98272 2.79609 3.14376 2.83737 3.30208 2.83737 3.45766 2.83737 3.71151 2.74832 3.91827 2.57021 4.07795 2.39211 4.23832 2.1601 4.31849 1.87418 4.31849 1.67151 4.31849 1.45758 4.28335 1.23239 4.21306 1.00789 4.14278 0.767687 4.03598 0.511791 3.89268L0.511791 4.54573C0.771781 4.65013 1.01471 4.72895 1.24058 4.78218 1.46713 4.8354 1.67424 4.86202 1.8619 4.86202 2.35662 4.86202 2.75105 4.73816 3.04516 4.49046 3.33926 4.24343 3.48632 3.91315 3.48632 3.49963 3.48632 3.3031 3.44947 3.11681 3.37577 2.94075 3.30276 2.76538 3.16901 2.55827 2.97453 2.31944 2.9213 2.25734 2.75173 2.07856 2.46581 1.78308 2.18057 1.4876 1.77762 1.07442 1.25696 0.543522Z" transform="matrix(1 0 0 -1.00353 453.161 383.247)"/><path d="M2.08197 4.35022C1.74964 4.35022 1.49955 4.18645 1.33168 3.8589 1.1645 3.53204 1.0809 3.04004 1.0809 2.3829 1.0809 1.72849 1.1645 1.23751 1.33168 0.909965 1.49955 0.582418 1.74964 0.418645 2.08197 0.418645 2.41702 0.418645 2.66814 0.582418 2.83532 0.909965 3.00319 1.23751 3.08712 1.72849 3.08712 2.3829 3.08712 3.04004 3.00319 3.53204 2.83532 3.8589 2.66814 4.18645 2.41702 4.35022 2.08197 4.35022ZM2.08197 4.86202C2.61764 4.86202 3.02673 4.65013 3.30924 4.22637 3.59175 3.80329 3.733 3.1888 3.733 2.3829 3.733 1.57905 3.59175 0.965238 3.30924 0.541475 3.02673 0.118395 2.61764-0.093146 2.08197-0.093146 1.54697-0.093146 1.13822 0.118395 0.855715 0.541475 0.573206 0.965238 0.431952 1.57905 0.431952 2.3829 0.431952 3.1888 0.573206 3.80329 0.855715 4.22637 1.13822 4.65013 1.54697 4.86202 2.08197 4.86202Z" transform="matrix(1 0 0 -1.00353 457.329 383.247)"/><path d="M0 0-2.29282 0" stroke="#000000" stroke-width="0.524074" stroke-linejoin="round" fill="none" transform="matrix(1 0 0 1.00353 466.082 353.415)"/><path d="M2.65824 2.57533C2.96736 2.50914 3.20859 2.3713 3.38192 2.16181 3.55592 1.95299 3.64293 1.69505 3.64293 1.38798 3.64293 0.91713 3.48087 0.552393 3.15673 0.293768 2.83259 0.0358254 2.37198-0.093146 1.77489-0.093146 1.57496-0.093146 1.36887-0.0733568 1.15665-0.0337782 0.944426 0.0058003 0.725379 0.0651681 0.499508 0.144325L0.499508 0.767687C0.678294 0.663281 0.874139 0.584465 1.08704 0.531239 1.30064 0.478013 1.52378 0.4514 1.75647 0.4514 2.16112 0.4514 2.46957 0.531239 2.68179 0.690918 2.894 0.850597 3.00012 1.08295 3.00012 1.38798 3.00012 1.6698 2.90152 1.88987 2.7043 2.04819 2.50709 2.20718 2.23277 2.28668 1.88134 2.28668L1.32452 2.28668 1.32452 2.81792 1.90693 2.81792C2.22424 2.81792 2.46717 2.88138 2.63572 3.00831 2.80428 3.13523 2.88855 3.31812 2.88855 3.55695 2.88855 3.80192 2.80154 3.98992 2.62754 4.12094 2.45421 4.25265 2.20548 4.31849 1.88134 4.31849 1.70393 4.31849 1.51388 4.29905 1.31121 4.26015 1.10854 4.22194 0.885739 4.16257 0.64281 4.08205L0.64281 4.6573C0.888469 4.72554 1.11844 4.77672 1.3327 4.81084 1.54697 4.84495 1.74896 4.86202 1.93866 4.86202 2.4293 4.86202 2.81724 4.75044 3.10248 4.5273 3.38839 4.30485 3.53136 4.00392 3.53136 3.6245 3.53136 3.35973 3.45561 3.13626 3.30412 2.95406 3.15263 2.77186 2.93734 2.64562 2.65824 2.57533Z" transform="matrix(1 0 0 -1.00353 453.161 355.913)"/><path d="M2.08197 4.35022C1.74964 4.35022 1.49955 4.18645 1.33168 3.8589 1.1645 3.53204 1.0809 3.04004 1.0809 2.3829 1.0809 1.72849 1.1645 1.23751 1.33168 0.909965 1.49955 0.582418 1.74964 0.418645 2.08197 0.418645 2.41702 0.418645 2.66814 0.582418 2.83532 0.909965 3.00319 1.23751 3.08712 1.72849 3.08712 2.3829 3.08712 3.04004 3.00319 3.53204 2.83532 3.8589 2.66814 4.18645 2.41702 4.35022 2.08197 4.35022ZM2.08197 4.86202C2.61764 4.86202 3.02673 4.65013 3.30924 4.22637 3.59175 3.80329 3.733 3.1888 3.733 2.3829 3.733 1.57905 3.59175 0.965238 3.30924 0.541475 3.02673 0.118395 2.61764-0.093146 2.08197-0.093146 1.54697-0.093146 1.13822 0.118395 0.855715 0.541475 0.573206 0.965238 0.431952 1.57905 0.431952 2.3829 0.431952 3.1888 0.573206 3.80329 0.855715 4.22637 1.13822 4.65013 1.54697 4.86202 2.08197 4.86202Z" transform="matrix(1 0 0 -1.00353 457.329 355.913)"/><path d="M0 0-2.29282 0" stroke="#000000" stroke-width="0.524074" stroke-linejoin="round" fill="none" transform="matrix(1 0 0 1.00353 466.082 326.08)"/><path d="M2.47605 4.21306 0.844455 1.66332 2.47605 1.66332 2.47605 4.21306ZM2.30613 4.77603 3.11885 4.77603 3.11885 1.66332 3.80056 1.66332 3.80056 1.12594 3.11885 1.12594 3.11885 0 2.47605 0 2.47605 1.12594 0.320381 1.12594 0.320381 1.7493 2.30613 4.77603Z" transform="matrix(1 0 0 -1.00353 453.161 328.578)"/><path d="M2.08197 4.35022C1.74964 4.35022 1.49955 4.18645 1.33168 3.8589 1.1645 3.53204 1.0809 3.04004 1.0809 2.3829 1.0809 1.72849 1.1645 1.23751 1.33168 0.909965 1.49955 0.582418 1.74964 0.418645 2.08197 0.418645 2.41702 0.418645 2.66814 0.582418 2.83532 0.909965 3.00319 1.23751 3.08712 1.72849 3.08712 2.3829 3.08712 3.04004 3.00319 3.53204 2.83532 3.8589 2.66814 4.18645 2.41702 4.35022 2.08197 4.35022ZM2.08197 4.86202C2.61764 4.86202 3.02673 4.65013 3.30924 4.22637 3.59175 3.80329 3.733 3.1888 3.733 2.3829 3.733 1.57905 3.59175 0.965238 3.30924 0.541475 3.02673 0.118395 2.61764-0.093146 2.08197-0.093146 1.54697-0.093146 1.13822 0.118395 0.855715 0.541475 0.573206 0.965238 0.431952 1.57905 0.431952 2.3829 0.431952 3.1888 0.573206 3.80329 0.855715 4.22637 1.13822 4.65013 1.54697 4.86202 2.08197 4.86202Z" transform="matrix(1 0 0 -1.00353 457.329 328.578)"/><path d="M1.19964 4.97768 1.7882 4.97768 1.22523 2.07582 3.24373 3.58254 4.00835 3.58254 1.75647 1.86804 3.40034 0 2.6869 0 1.15767 1.7493 0.818866 0 0.230306 0 1.19964 4.97768Z" transform="matrix(6.12323e-17 -1.00353 -1 -6.14487e-17 443.688 438.904)"/><path d="M0.879871 0.380466 2.45834 0.380466 2.45834 0 0.336042 0 0.336042 0.380466C0.507526 0.558159 0.741349 0.79652 1.0375 1.09554 1.33414 1.39504 1.52043 1.58826 1.59638 1.67519 1.74111 1.83761 1.84214 1.97517 1.89946 2.0879 1.95726 2.20063 1.98616 2.31145 1.98616 2.42036 1.98616 2.59806 1.92382 2.74279 1.79915 2.85457 1.67448 2.96682 1.51207 3.02295 1.31193 3.02295 1.17006 3.02295 1.02031 2.99835 0.862675 2.94915 0.705521 2.89994 0.537381 2.82519 0.358254 2.72488L0.358254 3.18201C0.540247 3.25509 0.710298 3.31026 0.868407 3.34752 1.02699 3.38478 1.17197 3.40341 1.30333 3.40341 1.64964 3.40341 1.92574 3.31671 2.13161 3.14332 2.33748 2.9704 2.44042 2.73921 2.44042 2.44974 2.44042 2.31217 2.41463 2.18177 2.36304 2.05853 2.31193 1.93577 2.21831 1.79079 2.08217 1.62361 2.04491 1.58014 1.92621 1.45499 1.72607 1.24816 1.5264 1.04132 1.24434 0.752097 0.879871 0.380466Z" transform="matrix(6.12323e-17 -1.00353 -1 -6.14487e-17 444.762 435.097)"/><path d="M36.0825 251.87 36.0825 33.96" stroke="#000000" stroke-width="0.524074" stroke-linecap="square" fill="none" transform="matrix(1 0 0 1.00353 430 292)"/><path d="M253.993 251.87 253.993 33.96" stroke="#000000" stroke-width="0.524074" stroke-linecap="square" fill="none" transform="matrix(1 0 0 1.00353 430 292)"/><path d="M36.0825 251.87 253.993 251.87" stroke="#000000" stroke-width="0.524074" stroke-linecap="square" fill="none" transform="matrix(1 0 0 1.00353 430 292)"/><path d="M36.0825 33.96 253.993 33.96" stroke="#000000" stroke-width="0.524074" stroke-linecap="square" fill="none" transform="matrix(1 0 0 1.00353 430 292)"/><path d="M0.261628 5.73124 1.04405 5.73124 2.24901 0.886832 3.45029 5.73124 4.32238 5.73124 5.52734 0.886832 6.72862 5.73124 7.51596 5.73124 6.07639 0 5.10112 0 3.89248 4.97461 2.67155 0 1.69628 0 0.261628 5.73124Z" transform="matrix(1 0 0 -1.00353 508.965 309.973)"/><path d="M4.41819 2.3264 4.41819 1.98125 1.17057 1.98125C1.20169 1.49484 1.34827 1.1243 1.6103 0.869635 1.87233 0.614969 2.23755 0.487635 2.70594 0.487635 2.97699 0.487635 3.23985 0.520799 3.49451 0.587127 3.74917 0.653455 4.0022 0.753356 4.2536 0.886832L4.2536 0.218637C3.99975 0.111366 3.73976 0.0294792 3.47363-0.0270226 3.20749-0.0835243 2.93769-0.111775 2.66418-0.111775 1.97797-0.111775 1.43465 0.0876186 1.03423 0.486406 0.633802 0.886012 0.433589 1.42646 0.433589 2.10776 0.433589 2.81117 0.623567 3.36922 1.00352 3.78193 1.38347 4.19546 1.89609 4.40222 2.54135 4.40222 3.11947 4.40222 3.57681 4.21593 3.91336 3.84335 4.24991 3.47158 4.41819 2.96594 4.41819 2.3264ZM3.71192 2.53398C3.70701 2.91967 3.59892 3.22756 3.38765 3.45766 3.17638 3.68858 2.89673 3.80404 2.54872 3.80404 2.15484 3.80404 1.83959 3.69267 1.60293 3.46994 1.36627 3.24722 1.22993 2.93358 1.19391 2.52907L3.71192 2.53398Z" transform="matrix(1 0 0 -1.00353 516.738 309.973)"/><path d="M3.56944 3.64682 3.56944 5.97322 4.27571 5.97322 4.27571 0 3.56944 0 3.56944 0.644857C3.42122 0.389371 3.2337 0.199393 3.00688 0.0749262 2.78087-0.0495413 2.50901-0.111775 2.19128-0.111775 1.67212-0.111775 1.24918 0.0953979 0.922452 0.509744 0.596544 0.924909 0.433589 1.47027 0.433589 2.14584 0.433589 2.8214 0.596544 3.36636 0.922452 3.7807 1.24918 4.19505 1.67212 4.40222 2.19128 4.40222 2.50901 4.40222 2.78087 4.33998 3.00688 4.21552 3.2337 4.09187 3.42122 3.9023 3.56944 3.64682ZM1.1632 2.14584C1.1632 1.62667 1.27006 1.21929 1.48378 0.923681 1.69751 0.62807 1.99107 0.480265 2.36447 0.480265 2.73788 0.480265 3.03185 0.62807 3.24639 0.923681 3.46175 1.21929 3.56944 1.62667 3.56944 2.14584 3.56944 2.665 3.46175 3.07238 3.24639 3.36799 3.03185 3.66361 2.73788 3.81141 2.36447 3.81141 1.99107 3.81141 1.69751 3.66361 1.48378 3.36799 1.27006 3.07238 1.1632 2.665 1.1632 2.14584Z" transform="matrix(1 0 0 -1.00353 524.073 309.973)"/><path d="M2.40624 3.80404C2.02792 3.80404 1.72862 3.65624 1.50835 3.36063 1.28808 3.06501 1.17794 2.66009 1.17794 2.14584 1.17794 1.63159 1.28726 1.22666 1.50589 0.93105 1.72535 0.635439 2.02546 0.487635 2.40624 0.487635 2.78292 0.487635 3.08098 0.63585 3.30044 0.932279 3.52071 1.22953 3.63085 1.63404 3.63085 2.14584 3.63085 2.65518 3.52071 3.05887 3.30044 3.35694 3.08098 3.65501 2.78292 3.80404 2.40624 3.80404ZM2.40624 4.40222C3.02039 4.40222 3.5027 4.20241 3.85317 3.80281 4.20447 3.40402 4.38011 2.8517 4.38011 2.14584 4.38011 1.44243 4.20447 0.890108 3.85317 0.488863 3.5027 0.0884375 3.02039-0.111775 2.40624-0.111775 1.78963-0.111775 1.3065 0.0884375 0.956845 0.488863 0.608008 0.890108 0.433589 1.44243 0.433589 2.14584 0.433589 2.8517 0.608008 3.40402 0.956845 3.80281 1.3065 4.20241 1.78963 4.40222 2.40624 4.40222Z" transform="matrix(1 0 0 -1.00353 529.063 309.973)"/><path d="M4.31501 2.5954 4.31501 0 3.60874 0 3.60874 2.57206C3.60874 2.97903 3.52931 3.28324 3.37045 3.48468 3.2116 3.68695 2.97371 3.78807 2.65681 3.78807 2.27521 3.78807 1.97428 3.66647 1.75401 3.42327 1.53374 3.18089 1.4236 2.84965 1.4236 2.42957L1.4236 0 0.713642 0 0.713642 4.29905 1.4236 4.29905 1.4236 3.63085C1.5931 3.88962 1.79209 4.08286 2.02055 4.21061 2.24984 4.33835 2.51433 4.40222 2.81403 4.40222 3.30781 4.40222 3.68121 4.24951 3.93424 3.94407 4.18809 3.63863 4.31501 3.18907 4.31501 2.5954Z" transform="matrix(1 0 0 -1.00353 533.872 309.973)"/><path d="M1.40886 5.73124 1.40886 3.60014 0.756632 3.60014 0.756632 5.73124 1.40886 5.73124Z" transform="matrix(1 0 0 -1.00353 538.855 309.973)"/><path d="M1.43957 5.51997 1.43957 4.29905 2.89387 4.29905 2.89387 3.75 1.43957 3.75 1.43957 1.41623C1.43957 1.06575 1.48747 0.840565 1.58328 0.740664 1.67908 0.640763 1.87438 0.590812 2.16918 0.590812L2.89387 0.590812 2.89387 0 2.16918 0C1.62381 0 1.24755 0.101539 1.04037 0.304618 0.833196 0.508516 0.729609 0.879053 0.729609 1.41623L0.729609 3.75 0.211267 3.75 0.211267 4.29905 0.729609 4.29905 0.729609 5.51997 1.43957 5.51997Z" transform="matrix(1 0 0 -1.00353 541.016 309.973)"/><path d="M4.31501 2.5954 4.31501 0 3.60874 0 3.60874 2.57206C3.60874 2.97903 3.52931 3.28324 3.37045 3.48468 3.2116 3.68695 2.97371 3.78807 2.65681 3.78807 2.27521 3.78807 1.97428 3.66647 1.75401 3.42327 1.53374 3.18089 1.4236 2.84965 1.4236 2.42957L1.4236 0 0.713642 0 0.713642 4.29905 1.4236 4.29905 1.4236 3.63085C1.5931 3.88962 1.79209 4.08286 2.02055 4.21061 2.24984 4.33835 2.51433 4.40222 2.81403 4.40222 3.30781 4.40222 3.68121 4.24951 3.93424 3.94407 4.18809 3.63863 4.31501 3.18907 4.31501 2.5954Z" transform="matrix(1 0 0 -1.00353 546.597 309.973)"/><path d="M4.41819 2.3264 4.41819 1.98125 1.17057 1.98125C1.20169 1.49484 1.34827 1.1243 1.6103 0.869635 1.87233 0.614969 2.23755 0.487635 2.70594 0.487635 2.97699 0.487635 3.23985 0.520799 3.49451 0.587127 3.74917 0.653455 4.0022 0.753356 4.2536 0.886832L4.2536 0.218637C3.99975 0.111366 3.73976 0.0294792 3.47363-0.0270226 3.20749-0.0835243 2.93769-0.111775 2.66418-0.111775 1.97797-0.111775 1.43465 0.0876186 1.03423 0.486406 0.633802 0.886012 0.433589 1.42646 0.433589 2.10776 0.433589 2.81117 0.623567 3.36922 1.00352 3.78193 1.38347 4.19546 1.89609 4.40222 2.54135 4.40222 3.11947 4.40222 3.57681 4.21593 3.91336 3.84335 4.24991 3.47158 4.41819 2.96594 4.41819 2.3264ZM3.71192 2.53398C3.70701 2.91967 3.59892 3.22756 3.38765 3.45766 3.17638 3.68858 2.89673 3.80404 2.54872 3.80404 2.15484 3.80404 1.83959 3.69267 1.60293 3.46994 1.36627 3.24722 1.22993 2.93358 1.19391 2.52907L3.71192 2.53398Z" transform="matrix(1 0 0 -1.00353 551.579 309.973)"/><path d="M4.41819 2.3264 4.41819 1.98125 1.17057 1.98125C1.20169 1.49484 1.34827 1.1243 1.6103 0.869635 1.87233 0.614969 2.23755 0.487635 2.70594 0.487635 2.97699 0.487635 3.23985 0.520799 3.49451 0.587127 3.74917 0.653455 4.0022 0.753356 4.2536 0.886832L4.2536 0.218637C3.99975 0.111366 3.73976 0.0294792 3.47363-0.0270226 3.20749-0.0835243 2.93769-0.111775 2.66418-0.111775 1.97797-0.111775 1.43465 0.0876186 1.03423 0.486406 0.633802 0.886012 0.433589 1.42646 0.433589 2.10776 0.433589 2.81117 0.623567 3.36922 1.00352 3.78193 1.38347 4.19546 1.89609 4.40222 2.54135 4.40222 3.11947 4.40222 3.57681 4.21593 3.91336 3.84335 4.24991 3.47158 4.41819 2.96594 4.41819 2.3264ZM3.71192 2.53398C3.70701 2.91967 3.59892 3.22756 3.38765 3.45766 3.17638 3.68858 2.89673 3.80404 2.54872 3.80404 2.15484 3.80404 1.83959 3.69267 1.60293 3.46994 1.36627 3.24722 1.22993 2.93358 1.19391 2.52907L3.71192 2.53398Z" transform="matrix(1 0 0 -1.00353 556.416 309.973)"/><path d="M3.56944 3.64682 3.56944 5.97322 4.27571 5.97322 4.27571 0 3.56944 0 3.56944 0.644857C3.42122 0.389371 3.2337 0.199393 3.00688 0.0749262 2.78087-0.0495413 2.50901-0.111775 2.19128-0.111775 1.67212-0.111775 1.24918 0.0953979 0.922452 0.509744 0.596544 0.924909 0.433589 1.47027 0.433589 2.14584 0.433589 2.8214 0.596544 3.36636 0.922452 3.7807 1.24918 4.19505 1.67212 4.40222 2.19128 4.40222 2.50901 4.40222 2.78087 4.33998 3.00688 4.21552 3.2337 4.09187 3.42122 3.9023 3.56944 3.64682ZM1.1632 2.14584C1.1632 1.62667 1.27006 1.21929 1.48378 0.923681 1.69751 0.62807 1.99107 0.480265 2.36447 0.480265 2.73788 0.480265 3.03185 0.62807 3.24639 0.923681 3.46175 1.21929 3.56944 1.62667 3.56944 2.14584 3.56944 2.665 3.46175 3.07238 3.24639 3.36799 3.03185 3.66361 2.73788 3.81141 2.36447 3.81141 1.99107 3.81141 1.69751 3.66361 1.48378 3.36799 1.27006 3.07238 1.1632 2.665 1.1632 2.14584Z" transform="matrix(1 0 0 -1.00353 561.252 309.973)"/><path d="M3.61611 4.92916 3.61611 2.79069 5.75335 2.79069 5.75335 2.13847 3.61611 2.13847 3.61611 0 2.97125 0 2.97125 2.13847 0.832787 2.13847 0.832787 2.79069 2.97125 2.79069 2.97125 4.92916 3.61611 4.92916Z" transform="matrix(1 0 0 -1.00353 568.741 309.973)"/><path d="M0.929454 4.01187 1.66029 4.01187 2.76773 0.572633 3.43924 4.01187 3.96888 4.01187 3.18645 0 2.45304 0 1.34904 3.46073 0.67753 0 0.147887 0 0.929454 4.01187Z" transform="matrix(1 0 0 -1.00353 575.328 306.518)"/><path d="M1.05585 0.456559 2.95 0.456559 2.95 0 0.40325 0 0.40325 0.456559C0.609031 0.669791 0.889619 0.955824 1.245 1.31465 1.60096 1.67405 1.82451 1.90591 1.91565 2.01023 2.08934 2.20513 2.21057 2.37021 2.27935 2.50548 2.34871 2.64076 2.38339 2.77374 2.38339 2.90443 2.38339 3.11767 2.30859 3.29135 2.15898 3.42548 2.00937 3.56019 1.81448 3.62753 1.57431 3.62753 1.40407 3.62753 1.22437 3.59802 1.03521 3.53897 0.846626 3.47993 0.644857 3.39023 0.429905 3.26985L0.429905 3.81841C0.648296 3.90611 0.852357 3.97232 1.04209 4.01703 1.23239 4.06174 1.40636 4.08409 1.56399 4.08409 1.97956 4.08409 2.31088 3.98006 2.55793 3.77198 2.80498 3.56448 2.92851 3.28705 2.92851 2.93969 2.92851 2.7746 2.89756 2.61812 2.83565 2.47023 2.77432 2.32292 2.66197 2.14895 2.49861 1.94833 2.4539 1.89616 2.31145 1.74599 2.07128 1.49779 1.83168 1.24959 1.4932 0.902516 1.05585 0.456559Z" transform="matrix(1 0 0 -1.00353 575.642 313.082)"/><path d="M4.41819 2.3264 4.41819 1.98125 1.17057 1.98125C1.20169 1.49484 1.34827 1.1243 1.6103 0.869635 1.87233 0.614969 2.23755 0.487635 2.70594 0.487635 2.97699 0.487635 3.23985 0.520799 3.49451 0.587127 3.74917 0.653455 4.0022 0.753356 4.2536 0.886832L4.2536 0.218637C3.99975 0.111366 3.73976 0.0294792 3.47363-0.0270226 3.20749-0.0835243 2.93769-0.111775 2.66418-0.111775 1.97797-0.111775 1.43465 0.0876186 1.03423 0.486406 0.633802 0.886012 0.433589 1.42646 0.433589 2.10776 0.433589 2.81117 0.623567 3.36922 1.00352 3.78193 1.38347 4.19546 1.89609 4.40222 2.54135 4.40222 3.11947 4.40222 3.57681 4.21593 3.91336 3.84335 4.24991 3.47158 4.41819 2.96594 4.41819 2.3264ZM3.71192 2.53398C3.70701 2.91967 3.59892 3.22756 3.38765 3.45766 3.17638 3.68858 2.89673 3.80404 2.54872 3.80404 2.15484 3.80404 1.83959 3.69267 1.60293 3.46994 1.36627 3.24722 1.22993 2.93358 1.19391 2.52907L3.71192 2.53398Z" transform="matrix(1 0 0 -1.00353 582.925 309.973)"/><path d="M4.31501 4.29905 2.75999 2.20725 4.39485 0 3.56207 0 2.31043 1.68891 1.06002 0 0.226007 0 1.89649 2.24901 0.36849 4.29905 1.20128 4.29905 2.34114 2.76736 3.481 4.29905 4.31501 4.29905Z" transform="matrix(1 0 0 -1.00353 587.761 309.973)"/><path d="M1.4236 0.644857 1.4236-1.63487 0.713642-1.63487 0.713642 4.29905 1.4236 4.29905 1.4236 3.64682C1.57263 3.9023 1.76015 4.09187 1.98616 4.21552 2.21299 4.33998 2.48362 4.40222 2.79806 4.40222 3.3205 4.40222 3.74468 4.19505 4.07058 3.7807 4.39731 3.36636 4.56067 2.8214 4.56067 2.14584 4.56067 1.47027 4.39731 0.924909 4.07058 0.509744 3.74468 0.0953979 3.3205-0.111775 2.79806-0.111775 2.48362-0.111775 2.21299-0.0495413 1.98616 0.0749262 1.76015 0.199393 1.57263 0.389371 1.4236 0.644857ZM3.82738 2.14584C3.82738 2.665 3.72052 3.07238 3.50679 3.36799 3.29307 3.66361 2.99951 3.81141 2.6261 3.81141 2.25188 3.81141 1.95791 3.66361 1.74418 3.36799 1.53046 3.07238 1.4236 2.665 1.4236 2.14584 1.4236 1.62667 1.53046 1.21929 1.74418 0.923681 1.95791 0.62807 2.25188 0.480265 2.6261 0.480265 2.99951 0.480265 3.29307 0.62807 3.50679 0.923681 3.72052 1.21929 3.82738 1.62667 3.82738 2.14584Z" transform="matrix(1 0 0 -1.00353 592.414 309.973)"/><path d="M0.740664 5.97322 1.44694 5.97322 1.44694 0 0.740664 0 0.740664 5.97322Z" transform="matrix(1 0 0 -1.00353 597.404 309.973)"/><path d="M0.740664 4.29905 1.44694 4.29905 1.44694 0 0.740664 0 0.740664 4.29905ZM0.740664 5.97322 1.44694 5.97322 1.44694 5.07779 0.740664 5.07779 0.740664 5.97322Z" transform="matrix(1 0 0 -1.00353 599.588 309.973)"/><path d="M3.83475 4.13445 3.83475 3.47363C3.63494 3.58418 3.43473 3.66688 3.23411 3.72174 3.03349 3.77661 2.83082 3.80404 2.6261 3.80404 2.16754 3.80404 1.81134 3.6587 1.55748 3.36799 1.30445 3.07812 1.17794 2.67073 1.17794 2.14584 1.17794 1.62095 1.30445 1.21315 1.55748 0.922452 1.81134 0.632574 2.16754 0.487635 2.6261 0.487635 2.83082 0.487635 3.03349 0.515066 3.23411 0.569931 3.43473 0.624795 3.63494 0.7075 3.83475 0.818047L3.83475 0.164592C3.6374 0.072879 3.43309 0.00409432 3.22183-0.0417622 3.01138-0.0884375 2.78701-0.111775 2.54872-0.111775 1.901-0.111775 1.38634 0.091713 1.00475 0.498689 0.623976 0.905665 0.433589 1.45471 0.433589 2.14584 0.433589 2.84679 0.626023 3.39788 1.01089 3.79913 1.39658 4.20119 1.92474 4.40222 2.5954 4.40222 2.8124 4.40222 3.02448 4.37971 3.23165 4.33467 3.43883 4.29045 3.63985 4.22371 3.83475 4.13445Z" transform="matrix(1 0 0 -1.00353 601.772 309.973)"/><path d="M0.740664 4.29905 1.44694 4.29905 1.44694 0 0.740664 0 0.740664 4.29905ZM0.740664 5.97322 1.44694 5.97322 1.44694 5.07779 0.740664 5.07779 0.740664 5.97322Z" transform="matrix(1 0 0 -1.00353 606.094 309.973)"/><path d="M1.43957 5.51997 1.43957 4.29905 2.89387 4.29905 2.89387 3.75 1.43957 3.75 1.43957 1.41623C1.43957 1.06575 1.48747 0.840565 1.58328 0.740664 1.67908 0.640763 1.87438 0.590812 2.16918 0.590812L2.89387 0.590812 2.89387 0 2.16918 0C1.62381 0 1.24755 0.101539 1.04037 0.304618 0.833196 0.508516 0.729609 0.879053 0.729609 1.41623L0.729609 3.75 0.211267 3.75 0.211267 4.29905 0.729609 4.29905 0.729609 5.51997 1.43957 5.51997Z" transform="matrix(1 0 0 -1.00353 608.278 309.973)"/><path d="M2.52907-0.399197C2.33008-0.910989 2.13561-1.24467 1.94563-1.40026 1.75647-1.55666 1.50344-1.63487 1.18654-1.63487L0.621519-1.63487 0.621519-1.04405 1.03668-1.04405C1.23076-1.04405 1.38143-0.997788 1.4887-0.905256 1.59679-0.813543 1.71593-0.596134 1.84613-0.25303L1.97265 0.0687847 0.234605 4.29905 0.982639 4.29905 2.3264 0.937192 3.67016 4.29905 4.41819 4.29905 2.52907-0.399197Z" transform="matrix(1 0 0 -1.00353 611.361 309.973)"/><path d="M0.740664 4.29905 1.44694 4.29905 1.44694 0 0.740664 0 0.740664 4.29905ZM0.740664 5.97322 1.44694 5.97322 1.44694 5.07779 0.740664 5.07779 0.740664 5.97322Z" transform="matrix(1 0 0 -1.00353 618.512 309.973)"/><path d="M4.31501 2.5954 4.31501 0 3.60874 0 3.60874 2.57206C3.60874 2.97903 3.52931 3.28324 3.37045 3.48468 3.2116 3.68695 2.97371 3.78807 2.65681 3.78807 2.27521 3.78807 1.97428 3.66647 1.75401 3.42327 1.53374 3.18089 1.4236 2.84965 1.4236 2.42957L1.4236 0 0.713642 0 0.713642 4.29905 1.4236 4.29905 1.4236 3.63085C1.5931 3.88962 1.79209 4.08286 2.02055 4.21061 2.24984 4.33835 2.51433 4.40222 2.81403 4.40222 3.30781 4.40222 3.68121 4.24951 3.93424 3.94407 4.18809 3.63863 4.31501 3.18907 4.31501 2.5954Z" transform="matrix(1 0 0 -1.00353 620.696 309.973)"/><path d="M1.43957 5.51997 1.43957 4.29905 2.89387 4.29905 2.89387 3.75 1.43957 3.75 1.43957 1.41623C1.43957 1.06575 1.48747 0.840565 1.58328 0.740664 1.67908 0.640763 1.87438 0.590812 2.16918 0.590812L2.89387 0.590812 2.89387 0 2.16918 0C1.62381 0 1.24755 0.101539 1.04037 0.304618 0.833196 0.508516 0.729609 0.879053 0.729609 1.41623L0.729609 3.75 0.211267 3.75 0.211267 4.29905 0.729609 4.29905 0.729609 5.51997 1.43957 5.51997Z" transform="matrix(1 0 0 -1.00353 628.176 309.973)"/><path d="M4.31501 2.5954 4.31501 0 3.60874 0 3.60874 2.57206C3.60874 2.97903 3.52931 3.28324 3.37045 3.48468 3.2116 3.68695 2.97371 3.78807 2.65681 3.78807 2.27521 3.78807 1.97428 3.66647 1.75401 3.42327 1.53374 3.18089 1.4236 2.84965 1.4236 2.42957L1.4236 0 0.713642 0 0.713642 5.97322 1.4236 5.97322 1.4236 3.63085C1.5931 3.88962 1.79209 4.08286 2.02055 4.21061 2.24984 4.33835 2.51433 4.40222 2.81403 4.40222 3.30781 4.40222 3.68121 4.24951 3.93424 3.94407 4.18809 3.63863 4.31501 3.18907 4.31501 2.5954Z" transform="matrix(1 0 0 -1.00353 631.259 309.973)"/><path d="M4.41819 2.3264 4.41819 1.98125 1.17057 1.98125C1.20169 1.49484 1.34827 1.1243 1.6103 0.869635 1.87233 0.614969 2.23755 0.487635 2.70594 0.487635 2.97699 0.487635 3.23985 0.520799 3.49451 0.587127 3.74917 0.653455 4.0022 0.753356 4.2536 0.886832L4.2536 0.218637C3.99975 0.111366 3.73976 0.0294792 3.47363-0.0270226 3.20749-0.0835243 2.93769-0.111775 2.66418-0.111775 1.97797-0.111775 1.43465 0.0876186 1.03423 0.486406 0.633802 0.886012 0.433589 1.42646 0.433589 2.10776 0.433589 2.81117 0.623567 3.36922 1.00352 3.78193 1.38347 4.19546 1.89609 4.40222 2.54135 4.40222 3.11947 4.40222 3.57681 4.21593 3.91336 3.84335 4.24991 3.47158 4.41819 2.96594 4.41819 2.3264ZM3.71192 2.53398C3.70701 2.91967 3.59892 3.22756 3.38765 3.45766 3.17638 3.68858 2.89673 3.80404 2.54872 3.80404 2.15484 3.80404 1.83959 3.69267 1.60293 3.46994 1.36627 3.24722 1.22993 2.93358 1.19391 2.52907L3.71192 2.53398Z" transform="matrix(1 0 0 -1.00353 636.241 309.973)"/><path d="M66.3626 1.49091 66.3626 1.98223 70.479 1.98223 70.479 1.49091 66.3626 1.49091Z" transform="matrix(1 0 0 -1.00353 508.965 309.987)"/><path d="M0.740664 5.97322 1.44694 5.97322 1.44694 0 0.740664 0 0.740664 5.97322Z" transform="matrix(1 0 0 -1.00353 489.902 322.122)"/><path d="M0.740664 4.29905 1.44694 4.29905 1.44694 0 0.740664 0 0.740664 4.29905ZM0.740664 5.97322 1.44694 5.97322 1.44694 5.07779 0.740664 5.07779 0.740664 5.97322Z" transform="matrix(1 0 0 -1.00353 492.086 322.122)"/><path d="M3.481 4.17253 3.481 3.50434C3.28201 3.60669 3.07484 3.68326 2.85948 3.73403 2.64493 3.78562 2.4222 3.81141 2.19128 3.81141 1.84081 3.81141 1.57796 3.75777 1.40272 3.6505 1.22748 3.54324 1.13986 3.38191 1.13986 3.16655 1.13986 3.00278 1.2025 2.87422 1.32779 2.78087 1.45308 2.68752 1.70528 2.59867 2.08442 2.51433L2.3264 2.46028C2.82754 2.35301 3.18375 2.20152 3.39502 2.00581 3.60628 1.81011 3.71192 1.53701 3.71192 1.18654 3.71192 0.78693 3.55387 0.470438 3.2378 0.237062 2.92172 0.00450377 2.4873-0.111775 1.93457-0.111775 1.70447-0.111775 1.46454-0.0892564 1.21479-0.0442188 0.965034 0.000818866 0.702178 0.0679658 0.42622 0.157222L0.42622 0.886832C0.687438 0.750899 0.944562 0.648951 1.19759 0.580985 1.45062 0.513838 1.7016 0.480265 1.95054 0.480265 2.283 0.480265 2.53849 0.537176 2.717 0.650998 2.89633 0.764821 2.98599 0.925318 2.98599 1.13249 2.98599 1.32411 2.9213 1.4711 2.79192 1.57345 2.66336 1.6758 2.38004 1.77449 1.94194 1.86947L1.69628 1.9272C1.25901 2.01892 0.942924 2.16017 0.748034 2.35096 0.553963 2.54176 0.456927 2.80338 0.456927 3.13585 0.456927 3.54036 0.600229 3.85235 0.886832 4.07181 1.17343 4.29208 1.58042 4.40222 2.10776 4.40222 2.36816 4.40222 2.61341 4.38298 2.84351 4.34449 3.07443 4.30682 3.28693 4.24951 3.481 4.17253Z" transform="matrix(1 0 0 -1.00353 494.27 322.122)"/><path d="M1.43957 5.51997 1.43957 4.29905 2.89387 4.29905 2.89387 3.75 1.43957 3.75 1.43957 1.41623C1.43957 1.06575 1.48747 0.840565 1.58328 0.740664 1.67908 0.640763 1.87438 0.590812 2.16918 0.590812L2.89387 0.590812 2.89387 0 2.16918 0C1.62381 0 1.24755 0.101539 1.04037 0.304618 0.833196 0.508516 0.729609 0.879053 0.729609 1.41623L0.729609 3.75 0.211267 3.75 0.211267 4.29905 0.729609 4.29905 0.729609 5.51997 1.43957 5.51997Z" transform="matrix(1 0 0 -1.00353 498.365 322.122)"/><path d="M2.40624 3.80404C2.02792 3.80404 1.72862 3.65624 1.50835 3.36063 1.28808 3.06501 1.17794 2.66009 1.17794 2.14584 1.17794 1.63159 1.28726 1.22666 1.50589 0.93105 1.72535 0.635439 2.02546 0.487635 2.40624 0.487635 2.78292 0.487635 3.08098 0.63585 3.30044 0.932279 3.52071 1.22953 3.63085 1.63404 3.63085 2.14584 3.63085 2.65518 3.52071 3.05887 3.30044 3.35694 3.08098 3.65501 2.78292 3.80404 2.40624 3.80404ZM2.40624 4.40222C3.02039 4.40222 3.5027 4.20241 3.85317 3.80281 4.20447 3.40402 4.38011 2.8517 4.38011 2.14584 4.38011 1.44243 4.20447 0.890108 3.85317 0.488863 3.5027 0.0884375 3.02039-0.111775 2.40624-0.111775 1.78963-0.111775 1.3065 0.0884375 0.956845 0.488863 0.608008 0.890108 0.433589 1.44243 0.433589 2.14584 0.433589 2.8517 0.608008 3.40402 0.956845 3.80281 1.3065 4.20241 1.78963 4.40222 2.40624 4.40222Z" transform="matrix(1 0 0 -1.00353 503.946 322.122)"/><path d="M2.91721 5.97322 2.91721 5.38486 2.24165 5.38486C1.98862 5.38486 1.81256 5.33368 1.71348 5.23132 1.61521 5.12897 1.56608 4.94473 1.56608 4.67859L1.56608 4.29905 2.72928 4.29905 2.72928 3.75 1.56608 3.75 1.56608 0 0.856124 0 0.856124 3.75 0.18056 3.75 0.18056 4.29905 0.856124 4.29905 0.856124 4.59875C0.856124 5.07696 0.96749 5.4254 1.19022 5.64403 1.41295 5.86349 1.76589 5.97322 2.24901 5.97322L2.91721 5.97322Z" transform="matrix(1 0 0 -1.00353 508.756 322.122)"/><path d="M1.43957 5.97322 2.14584 5.97322 0.982639 0 0.276367 0 1.43957 5.97322Z" transform="matrix(1 0 0 -1.00353 514.022 322.122)"/><path d="M1.0077 4.18125 1.50209 4.18125 1.38085 3.55445 0.886463 3.55445 1.0077 4.18125ZM0.781566 3.00933 1.27596 3.00933 0.687847 0 0.193457 0 0.781566 3.00933Z" transform="matrix(1 0 0 -1.00353 516.206 323.417)"/><path d="M2.69489 2.16058C2.12413 2.16058 1.72862 2.09548 1.50835 1.96528 1.28808 1.83508 1.17794 1.61235 1.17794 1.29708 1.17794 1.04651 1.26064 0.847526 1.42605 0.70013 1.59147 0.553554 1.81583 0.480265 2.09916 0.480265 2.49139 0.480265 2.80584 0.619063 3.0425 0.896658 3.27915 1.17425 3.39747 1.54315 3.39747 2.00336L3.39747 2.16058 2.69489 2.16058ZM4.10375 2.45291 4.10375 0 3.39747 0 3.39747 0.652227C3.23616 0.391827 3.03513 0.199393 2.79438 0.0749262 2.55363-0.0495413 2.25925-0.111775 1.91123-0.111775 1.4715-0.111775 1.12144 0.0118736 0.861037 0.259171 0.601457 0.506468 0.471667 0.837291 0.471667 1.25164 0.471667 1.73476 0.633393 2.09916 0.956845 2.34482 1.28112 2.59048 1.76424 2.71331 2.40624 2.71331L3.39747 2.71331 3.39747 2.78332C3.39747 3.10842 3.29061 3.3598 3.07689 3.5375 2.86316 3.7152 2.56305 3.80404 2.17655 3.80404 1.93089 3.80404 1.69137 3.77456 1.45799 3.7156 1.22543 3.65665 1.00188 3.56821 0.787339 3.45029L0.787339 4.10375C1.04528 4.20364 1.29586 4.27816 1.53906 4.3273 1.78226 4.37725 2.01892 4.40222 2.24901 4.40222 2.87136 4.40222 3.33606 4.24091 3.64313 3.91827 3.95021 3.59646 4.10375 3.108 4.10375 2.45291Z" transform="matrix(1 0 0 -1.00353 520.449 322.122)"/><path d="M3.481 4.17253 3.481 3.50434C3.28201 3.60669 3.07484 3.68326 2.85948 3.73403 2.64493 3.78562 2.4222 3.81141 2.19128 3.81141 1.84081 3.81141 1.57796 3.75777 1.40272 3.6505 1.22748 3.54324 1.13986 3.38191 1.13986 3.16655 1.13986 3.00278 1.2025 2.87422 1.32779 2.78087 1.45308 2.68752 1.70528 2.59867 2.08442 2.51433L2.3264 2.46028C2.82754 2.35301 3.18375 2.20152 3.39502 2.00581 3.60628 1.81011 3.71192 1.53701 3.71192 1.18654 3.71192 0.78693 3.55387 0.470438 3.2378 0.237062 2.92172 0.00450377 2.4873-0.111775 1.93457-0.111775 1.70447-0.111775 1.46454-0.0892564 1.21479-0.0442188 0.965034 0.000818866 0.702178 0.0679658 0.42622 0.157222L0.42622 0.886832C0.687438 0.750899 0.944562 0.648951 1.19759 0.580985 1.45062 0.513838 1.7016 0.480265 1.95054 0.480265 2.283 0.480265 2.53849 0.537176 2.717 0.650998 2.89633 0.764821 2.98599 0.925318 2.98599 1.13249 2.98599 1.32411 2.9213 1.4711 2.79192 1.57345 2.66336 1.6758 2.38004 1.77449 1.94194 1.86947L1.69628 1.9272C1.25901 2.01892 0.942924 2.16017 0.748034 2.35096 0.553963 2.54176 0.456927 2.80338 0.456927 3.13585 0.456927 3.54036 0.600229 3.85235 0.886832 4.07181 1.17343 4.29208 1.58042 4.40222 2.10776 4.40222 2.36816 4.40222 2.61341 4.38298 2.84351 4.34449 3.07443 4.30682 3.28693 4.24951 3.481 4.17253Z" transform="matrix(1 0 0 -1.00353 525.266 322.122)"/><path d="M1.43957 5.51997 1.43957 4.29905 2.89387 4.29905 2.89387 3.75 1.43957 3.75 1.43957 1.41623C1.43957 1.06575 1.48747 0.840565 1.58328 0.740664 1.67908 0.640763 1.87438 0.590812 2.16918 0.590812L2.89387 0.590812 2.89387 0 2.16918 0C1.62381 0 1.24755 0.101539 1.04037 0.304618 0.833196 0.508516 0.729609 0.879053 0.729609 1.41623L0.729609 3.75 0.211267 3.75 0.211267 4.29905 0.729609 4.29905 0.729609 5.51997 1.43957 5.51997Z" transform="matrix(1 0 0 -1.00353 531.861 322.122)"/><path d="M4.31501 2.5954 4.31501 0 3.60874 0 3.60874 2.57206C3.60874 2.97903 3.52931 3.28324 3.37045 3.48468 3.2116 3.68695 2.97371 3.78807 2.65681 3.78807 2.27521 3.78807 1.97428 3.66647 1.75401 3.42327 1.53374 3.18089 1.4236 2.84965 1.4236 2.42957L1.4236 0 0.713642 0 0.713642 5.97322 1.4236 5.97322 1.4236 3.63085C1.5931 3.88962 1.79209 4.08286 2.02055 4.21061 2.24984 4.33835 2.51433 4.40222 2.81403 4.40222 3.30781 4.40222 3.68121 4.24951 3.93424 3.94407 4.18809 3.63863 4.31501 3.18907 4.31501 2.5954Z" transform="matrix(1 0 0 -1.00353 534.943 322.122)"/><path d="M2.69489 2.16058C2.12413 2.16058 1.72862 2.09548 1.50835 1.96528 1.28808 1.83508 1.17794 1.61235 1.17794 1.29708 1.17794 1.04651 1.26064 0.847526 1.42605 0.70013 1.59147 0.553554 1.81583 0.480265 2.09916 0.480265 2.49139 0.480265 2.80584 0.619063 3.0425 0.896658 3.27915 1.17425 3.39747 1.54315 3.39747 2.00336L3.39747 2.16058 2.69489 2.16058ZM4.10375 2.45291 4.10375 0 3.39747 0 3.39747 0.652227C3.23616 0.391827 3.03513 0.199393 2.79438 0.0749262 2.55363-0.0495413 2.25925-0.111775 1.91123-0.111775 1.4715-0.111775 1.12144 0.0118736 0.861037 0.259171 0.601457 0.506468 0.471667 0.837291 0.471667 1.25164 0.471667 1.73476 0.633393 2.09916 0.956845 2.34482 1.28112 2.59048 1.76424 2.71331 2.40624 2.71331L3.39747 2.71331 3.39747 2.78332C3.39747 3.10842 3.29061 3.3598 3.07689 3.5375 2.86316 3.7152 2.56305 3.80404 2.17655 3.80404 1.93089 3.80404 1.69137 3.77456 1.45799 3.7156 1.22543 3.65665 1.00188 3.56821 0.787339 3.45029L0.787339 4.10375C1.04528 4.20364 1.29586 4.27816 1.53906 4.3273 1.78226 4.37725 2.01892 4.40222 2.24901 4.40222 2.87136 4.40222 3.33606 4.24091 3.64313 3.91827 3.95021 3.59646 4.10375 3.108 4.10375 2.45291Z" transform="matrix(1 0 0 -1.00353 539.925 322.122)"/><path d="M1.43957 5.51997 1.43957 4.29905 2.89387 4.29905 2.89387 3.75 1.43957 3.75 1.43957 1.41623C1.43957 1.06575 1.48747 0.840565 1.58328 0.740664 1.67908 0.640763 1.87438 0.590812 2.16918 0.590812L2.89387 0.590812 2.89387 0 2.16918 0C1.62381 0 1.24755 0.101539 1.04037 0.304618 0.833196 0.508516 0.729609 0.879053 0.729609 1.41623L0.729609 3.75 0.211267 3.75 0.211267 4.29905 0.729609 4.29905 0.729609 5.51997 1.43957 5.51997Z" transform="matrix(1 0 0 -1.00353 544.742 322.122)"/><path d="M0.330412 4.29905 1.03668 4.29905 1.91983 0.944562 2.79806 4.29905 3.63085 4.29905 4.514 0.944562 5.39346 4.29905 6.09973 4.29905 4.97461 0 4.14182 0 3.21691 3.52399 2.28832 0 1.45431 0 0.330412 4.29905Z" transform="matrix(1 0 0 -1.00353 550.324 322.122)"/><path d="M2.40624 3.80404C2.02792 3.80404 1.72862 3.65624 1.50835 3.36063 1.28808 3.06501 1.17794 2.66009 1.17794 2.14584 1.17794 1.63159 1.28726 1.22666 1.50589 0.93105 1.72535 0.635439 2.02546 0.487635 2.40624 0.487635 2.78292 0.487635 3.08098 0.63585 3.30044 0.932279 3.52071 1.22953 3.63085 1.63404 3.63085 2.14584 3.63085 2.65518 3.52071 3.05887 3.30044 3.35694 3.08098 3.65501 2.78292 3.80404 2.40624 3.80404ZM2.40624 4.40222C3.02039 4.40222 3.5027 4.20241 3.85317 3.80281 4.20447 3.40402 4.38011 2.8517 4.38011 2.14584 4.38011 1.44243 4.20447 0.890108 3.85317 0.488863 3.5027 0.0884375 3.02039-0.111775 2.40624-0.111775 1.78963-0.111775 1.3065 0.0884375 0.956845 0.488863 0.608008 0.890108 0.433589 1.44243 0.433589 2.14584 0.433589 2.8517 0.608008 3.40402 0.956845 3.80281 1.3065 4.20241 1.78963 4.40222 2.40624 4.40222Z" transform="matrix(1 0 0 -1.00353 556.753 322.122)"/><path d="M0.668194 1.69628 0.668194 4.29905 1.37447 4.29905 1.37447 1.7233C1.37447 1.31633 1.45348 1.01089 1.61153 0.806992 1.77038 0.603914 2.00867 0.502374 2.3264 0.502374 2.70717 0.502374 3.0081 0.623976 3.2292 0.867179 3.45111 1.11038 3.56207 1.44202 3.56207 1.8621L3.56207 4.29905 4.26834 4.29905 4.26834 0 3.56207 0 3.56207 0.660825C3.39093 0.399606 3.19194 0.205535 2.96511 0.0786111 2.73911-0.048313 2.47625-0.111775 2.17655-0.111775 1.68277-0.111775 1.30773 0.0417622 1.05142 0.348837 0.795938 0.655911 0.668194 1.10506 0.668194 1.69628ZM2.44554 4.40222 2.44554 4.40222Z" transform="matrix(1 0 0 -1.00353 561.563 322.122)"/><path d="M0.740664 5.97322 1.44694 5.97322 1.44694 0 0.740664 0 0.740664 5.97322Z" transform="matrix(1 0 0 -1.00353 566.545 322.122)"/><path d="M3.56944 3.64682 3.56944 5.97322 4.27571 5.97322 4.27571 0 3.56944 0 3.56944 0.644857C3.42122 0.389371 3.2337 0.199393 3.00688 0.0749262 2.78087-0.0495413 2.50901-0.111775 2.19128-0.111775 1.67212-0.111775 1.24918 0.0953979 0.922452 0.509744 0.596544 0.924909 0.433589 1.47027 0.433589 2.14584 0.433589 2.8214 0.596544 3.36636 0.922452 3.7807 1.24918 4.19505 1.67212 4.40222 2.19128 4.40222 2.50901 4.40222 2.78087 4.33998 3.00688 4.21552 3.2337 4.09187 3.42122 3.9023 3.56944 3.64682ZM1.1632 2.14584C1.1632 1.62667 1.27006 1.21929 1.48378 0.923681 1.69751 0.62807 1.99107 0.480265 2.36447 0.480265 2.73788 0.480265 3.03185 0.62807 3.24639 0.923681 3.46175 1.21929 3.56944 1.62667 3.56944 2.14584 3.56944 2.665 3.46175 3.07238 3.24639 3.36799 3.03185 3.66361 2.73788 3.81141 2.36447 3.81141 1.99107 3.81141 1.69751 3.66361 1.48378 3.36799 1.27006 3.07238 1.1632 2.665 1.1632 2.14584Z" transform="matrix(1 0 0 -1.00353 568.729 322.122)"/><path d="M3.82738 2.14584C3.82738 2.665 3.72052 3.07238 3.50679 3.36799 3.29307 3.66361 2.99951 3.81141 2.6261 3.81141 2.25188 3.81141 1.95791 3.66361 1.74418 3.36799 1.53046 3.07238 1.4236 2.665 1.4236 2.14584 1.4236 1.62667 1.53046 1.21929 1.74418 0.923681 1.95791 0.62807 2.25188 0.480265 2.6261 0.480265 2.99951 0.480265 3.29307 0.62807 3.50679 0.923681 3.72052 1.21929 3.82738 1.62667 3.82738 2.14584ZM1.4236 3.64682C1.57263 3.9023 1.76015 4.09187 1.98616 4.21552 2.21299 4.33998 2.48362 4.40222 2.79806 4.40222 3.3205 4.40222 3.74468 4.19505 4.07058 3.7807 4.39731 3.36636 4.56067 2.8214 4.56067 2.14584 4.56067 1.47027 4.39731 0.924909 4.07058 0.509744 3.74468 0.0953979 3.3205-0.111775 2.79806-0.111775 2.48362-0.111775 2.21299-0.0495413 1.98616 0.0749262 1.76015 0.199393 1.57263 0.389371 1.4236 0.644857L1.4236 0 0.713642 0 0.713642 5.97322 1.4236 5.97322 1.4236 3.64682Z" transform="matrix(1 0 0 -1.00353 576.217 322.122)"/><path d="M4.41819 2.3264 4.41819 1.98125 1.17057 1.98125C1.20169 1.49484 1.34827 1.1243 1.6103 0.869635 1.87233 0.614969 2.23755 0.487635 2.70594 0.487635 2.97699 0.487635 3.23985 0.520799 3.49451 0.587127 3.74917 0.653455 4.0022 0.753356 4.2536 0.886832L4.2536 0.218637C3.99975 0.111366 3.73976 0.0294792 3.47363-0.0270226 3.20749-0.0835243 2.93769-0.111775 2.66418-0.111775 1.97797-0.111775 1.43465 0.0876186 1.03423 0.486406 0.633802 0.886012 0.433589 1.42646 0.433589 2.10776 0.433589 2.81117 0.623567 3.36922 1.00352 3.78193 1.38347 4.19546 1.89609 4.40222 2.54135 4.40222 3.11947 4.40222 3.57681 4.21593 3.91336 3.84335 4.24991 3.47158 4.41819 2.96594 4.41819 2.3264ZM3.71192 2.53398C3.70701 2.91967 3.59892 3.22756 3.38765 3.45766 3.17638 3.68858 2.89673 3.80404 2.54872 3.80404 2.15484 3.80404 1.83959 3.69267 1.60293 3.46994 1.36627 3.24722 1.22993 2.93358 1.19391 2.52907L3.71192 2.53398Z" transform="matrix(1 0 0 -1.00353 581.208 322.122)"/><path d="M3.23165 3.63945C3.15222 3.6853 3.06583 3.71888 2.97248 3.74017 2.87913 3.76228 2.77636 3.77333 2.66418 3.77333 2.26458 3.77333 1.95791 3.64354 1.74418 3.38396 1.53046 3.12439 1.4236 2.75139 1.4236 2.26498L1.4236 0 0.713642 0 0.713642 4.29905 1.4236 4.29905 1.4236 3.63085C1.57263 3.89207 1.76589 4.08573 2.00336 4.21184 2.24165 4.33876 2.53112 4.40222 2.87176 4.40222 2.92007 4.40222 2.97371 4.39894 3.03267 4.3924 3.09163 4.38666 3.15673 4.37725 3.22797 4.36415L3.23165 3.63945Z" transform="matrix(1 0 0 -1.00353 588.543 322.122)"/><path d="M4.41819 2.3264 4.41819 1.98125 1.17057 1.98125C1.20169 1.49484 1.34827 1.1243 1.6103 0.869635 1.87233 0.614969 2.23755 0.487635 2.70594 0.487635 2.97699 0.487635 3.23985 0.520799 3.49451 0.587127 3.74917 0.653455 4.0022 0.753356 4.2536 0.886832L4.2536 0.218637C3.99975 0.111366 3.73976 0.0294792 3.47363-0.0270226 3.20749-0.0835243 2.93769-0.111775 2.66418-0.111775 1.97797-0.111775 1.43465 0.0876186 1.03423 0.486406 0.633802 0.886012 0.433589 1.42646 0.433589 2.10776 0.433589 2.81117 0.623567 3.36922 1.00352 3.78193 1.38347 4.19546 1.89609 4.40222 2.54135 4.40222 3.11947 4.40222 3.57681 4.21593 3.91336 3.84335 4.24991 3.47158 4.41819 2.96594 4.41819 2.3264ZM3.71192 2.53398C3.70701 2.91967 3.59892 3.22756 3.38765 3.45766 3.17638 3.68858 2.89673 3.80404 2.54872 3.80404 2.15484 3.80404 1.83959 3.69267 1.60293 3.46994 1.36627 3.24722 1.22993 2.93358 1.19391 2.52907L3.71192 2.53398Z" transform="matrix(1 0 0 -1.00353 591.775 322.122)"/><path d="M3.56944 3.64682 3.56944 5.97322 4.27571 5.97322 4.27571 0 3.56944 0 3.56944 0.644857C3.42122 0.389371 3.2337 0.199393 3.00688 0.0749262 2.78087-0.0495413 2.50901-0.111775 2.19128-0.111775 1.67212-0.111775 1.24918 0.0953979 0.922452 0.509744 0.596544 0.924909 0.433589 1.47027 0.433589 2.14584 0.433589 2.8214 0.596544 3.36636 0.922452 3.7807 1.24918 4.19505 1.67212 4.40222 2.19128 4.40222 2.50901 4.40222 2.78087 4.33998 3.00688 4.21552 3.2337 4.09187 3.42122 3.9023 3.56944 3.64682ZM1.1632 2.14584C1.1632 1.62667 1.27006 1.21929 1.48378 0.923681 1.69751 0.62807 1.99107 0.480265 2.36447 0.480265 2.73788 0.480265 3.03185 0.62807 3.24639 0.923681 3.46175 1.21929 3.56944 1.62667 3.56944 2.14584 3.56944 2.665 3.46175 3.07238 3.24639 3.36799 3.03185 3.66361 2.73788 3.81141 2.36447 3.81141 1.99107 3.81141 1.69751 3.66361 1.48378 3.36799 1.27006 3.07238 1.1632 2.665 1.1632 2.14584Z" transform="matrix(1 0 0 -1.00353 596.612 322.122)"/><path d="M0.668194 1.69628 0.668194 4.29905 1.37447 4.29905 1.37447 1.7233C1.37447 1.31633 1.45348 1.01089 1.61153 0.806992 1.77038 0.603914 2.00867 0.502374 2.3264 0.502374 2.70717 0.502374 3.0081 0.623976 3.2292 0.867179 3.45111 1.11038 3.56207 1.44202 3.56207 1.8621L3.56207 4.29905 4.26834 4.29905 4.26834 0 3.56207 0 3.56207 0.660825C3.39093 0.399606 3.19194 0.205535 2.96511 0.0786111 2.73911-0.048313 2.47625-0.111775 2.17655-0.111775 1.68277-0.111775 1.30773 0.0417622 1.05142 0.348837 0.795938 0.655911 0.668194 1.10506 0.668194 1.69628ZM2.44554 4.40222 2.44554 4.40222Z" transform="matrix(1 0 0 -1.00353 601.601 322.122)"/><path d="M4.31501 2.5954 4.31501 0 3.60874 0 3.60874 2.57206C3.60874 2.97903 3.52931 3.28324 3.37045 3.48468 3.2116 3.68695 2.97371 3.78807 2.65681 3.78807 2.27521 3.78807 1.97428 3.66647 1.75401 3.42327 1.53374 3.18089 1.4236 2.84965 1.4236 2.42957L1.4236 0 0.713642 0 0.713642 4.29905 1.4236 4.29905 1.4236 3.63085C1.5931 3.88962 1.79209 4.08286 2.02055 4.21061 2.24984 4.33835 2.51433 4.40222 2.81403 4.40222 3.30781 4.40222 3.68121 4.24951 3.93424 3.94407 4.18809 3.63863 4.31501 3.18907 4.31501 2.5954Z" transform="matrix(1 0 0 -1.00353 606.583 322.122)"/><path d="M1.43957 5.51997 1.43957 4.29905 2.89387 4.29905 2.89387 3.75 1.43957 3.75 1.43957 1.41623C1.43957 1.06575 1.48747 0.840565 1.58328 0.740664 1.67908 0.640763 1.87438 0.590812 2.16918 0.590812L2.89387 0.590812 2.89387 0 2.16918 0C1.62381 0 1.24755 0.101539 1.04037 0.304618 0.833196 0.508516 0.729609 0.879053 0.729609 1.41623L0.729609 3.75 0.211267 3.75 0.211267 4.29905 0.729609 4.29905 0.729609 5.51997 1.43957 5.51997Z" transform="matrix(1 0 0 -1.00353 611.566 322.122)"/><path d="M2.69489 2.16058C2.12413 2.16058 1.72862 2.09548 1.50835 1.96528 1.28808 1.83508 1.17794 1.61235 1.17794 1.29708 1.17794 1.04651 1.26064 0.847526 1.42605 0.70013 1.59147 0.553554 1.81583 0.480265 2.09916 0.480265 2.49139 0.480265 2.80584 0.619063 3.0425 0.896658 3.27915 1.17425 3.39747 1.54315 3.39747 2.00336L3.39747 2.16058 2.69489 2.16058ZM4.10375 2.45291 4.10375 0 3.39747 0 3.39747 0.652227C3.23616 0.391827 3.03513 0.199393 2.79438 0.0749262 2.55363-0.0495413 2.25925-0.111775 1.91123-0.111775 1.4715-0.111775 1.12144 0.0118736 0.861037 0.259171 0.601457 0.506468 0.471667 0.837291 0.471667 1.25164 0.471667 1.73476 0.633393 2.09916 0.956845 2.34482 1.28112 2.59048 1.76424 2.71331 2.40624 2.71331L3.39747 2.71331 3.39747 2.78332C3.39747 3.10842 3.29061 3.3598 3.07689 3.5375 2.86316 3.7152 2.56305 3.80404 2.17655 3.80404 1.93089 3.80404 1.69137 3.77456 1.45799 3.7156 1.22543 3.65665 1.00188 3.56821 0.787339 3.45029L0.787339 4.10375C1.04528 4.20364 1.29586 4.27816 1.53906 4.3273 1.78226 4.37725 2.01892 4.40222 2.24901 4.40222 2.87136 4.40222 3.33606 4.24091 3.64313 3.91827 3.95021 3.59646 4.10375 3.108 4.10375 2.45291Z" transform="matrix(1 0 0 -1.00353 614.648 322.122)"/><path d="M4.31501 2.5954 4.31501 0 3.60874 0 3.60874 2.57206C3.60874 2.97903 3.52931 3.28324 3.37045 3.48468 3.2116 3.68695 2.97371 3.78807 2.65681 3.78807 2.27521 3.78807 1.97428 3.66647 1.75401 3.42327 1.53374 3.18089 1.4236 2.84965 1.4236 2.42957L1.4236 0 0.713642 0 0.713642 4.29905 1.4236 4.29905 1.4236 3.63085C1.5931 3.88962 1.79209 4.08286 2.02055 4.21061 2.24984 4.33835 2.51433 4.40222 2.81403 4.40222 3.30781 4.40222 3.68121 4.24951 3.93424 3.94407 4.18809 3.63863 4.31501 3.18907 4.31501 2.5954Z" transform="matrix(1 0 0 -1.00353 619.465 322.122)"/><path d="M1.43957 5.51997 1.43957 4.29905 2.89387 4.29905 2.89387 3.75 1.43957 3.75 1.43957 1.41623C1.43957 1.06575 1.48747 0.840565 1.58328 0.740664 1.67908 0.640763 1.87438 0.590812 2.16918 0.590812L2.89387 0.590812 2.89387 0 2.16918 0C1.62381 0 1.24755 0.101539 1.04037 0.304618 0.833196 0.508516 0.729609 0.879053 0.729609 1.41623L0.729609 3.75 0.211267 3.75 0.211267 4.29905 0.729609 4.29905 0.729609 5.51997 1.43957 5.51997Z" transform="matrix(1 0 0 -1.00353 624.448 322.122)"/><path d="M1.43957 5.51997 1.43957 4.29905 2.89387 4.29905 2.89387 3.75 1.43957 3.75 1.43957 1.41623C1.43957 1.06575 1.48747 0.840565 1.58328 0.740664 1.67908 0.640763 1.87438 0.590812 2.16918 0.590812L2.89387 0.590812 2.89387 0 2.16918 0C1.62381 0 1.24755 0.101539 1.04037 0.304618 0.833196 0.508516 0.729609 0.879053 0.729609 1.41623L0.729609 3.75 0.211267 3.75 0.211267 4.29905 0.729609 4.29905 0.729609 5.51997 1.43957 5.51997Z" transform="matrix(1 0 0 -1.00353 630.028 322.122)"/><path d="M2.40624 3.80404C2.02792 3.80404 1.72862 3.65624 1.50835 3.36063 1.28808 3.06501 1.17794 2.66009 1.17794 2.14584 1.17794 1.63159 1.28726 1.22666 1.50589 0.93105 1.72535 0.635439 2.02546 0.487635 2.40624 0.487635 2.78292 0.487635 3.08098 0.63585 3.30044 0.932279 3.52071 1.22953 3.63085 1.63404 3.63085 2.14584 3.63085 2.65518 3.52071 3.05887 3.30044 3.35694 3.08098 3.65501 2.78292 3.80404 2.40624 3.80404ZM2.40624 4.40222C3.02039 4.40222 3.5027 4.20241 3.85317 3.80281 4.20447 3.40402 4.38011 2.8517 4.38011 2.14584 4.38011 1.44243 4.20447 0.890108 3.85317 0.488863 3.5027 0.0884375 3.02039-0.111775 2.40624-0.111775 1.78963-0.111775 1.3065 0.0884375 0.956845 0.488863 0.608008 0.890108 0.433589 1.44243 0.433589 2.14584 0.433589 2.8517 0.608008 3.40402 0.956845 3.80281 1.3065 4.20241 1.78963 4.40222 2.40624 4.40222Z" transform="matrix(1 0 0 -1.00353 633.111 322.122)"/><path d="M0.929454 4.01187 1.66029 4.01187 2.76773 0.572633 3.43924 4.01187 3.96888 4.01187 3.18645 0 2.45304 0 1.34904 3.46073 0.67753 0 0.147887 0 0.929454 4.01187Z" transform="matrix(1 0 0 -1.00353 640.419 318.667)"/><path d="M1.05585 0.456559 2.95 0.456559 2.95 0 0.40325 0 0.40325 0.456559C0.609031 0.669791 0.889619 0.955824 1.245 1.31465 1.60096 1.67405 1.82451 1.90591 1.91565 2.01023 2.08934 2.20513 2.21057 2.37021 2.27935 2.50548 2.34871 2.64076 2.38339 2.77374 2.38339 2.90443 2.38339 3.11767 2.30859 3.29135 2.15898 3.42548 2.00937 3.56019 1.81448 3.62753 1.57431 3.62753 1.40407 3.62753 1.22437 3.59802 1.03521 3.53897 0.846626 3.47993 0.644857 3.39023 0.429905 3.26985L0.429905 3.81841C0.648296 3.90611 0.852357 3.97232 1.04209 4.01703 1.23239 4.06174 1.40636 4.08409 1.56399 4.08409 1.97956 4.08409 2.31088 3.98006 2.55793 3.77198 2.80498 3.56448 2.92851 3.28705 2.92851 2.93969 2.92851 2.7746 2.89756 2.61812 2.83565 2.47023 2.77432 2.32292 2.66197 2.14895 2.49861 1.94833 2.4539 1.89616 2.31145 1.74599 2.07128 1.49779 1.83168 1.24959 1.4932 0.902516 1.05585 0.456559Z" transform="matrix(1 0 0 -1.00353 640.734 325.231)"/><path d="M0.832787 2.79069 5.75335 2.79069 5.75335 2.13847 0.832787 2.13847 0.832787 2.79069Z" transform="matrix(1 0 0 -1.00353 647.05 322.122)"/><path d="M0.975269 0.652227 2.24165 0.652227 2.24165 5.02497 0.863494 4.7486 0.863494 5.45487 2.23428 5.73124 3.00933 5.73124 3.00933 0.652227 4.27571 0.652227 4.27571 0 0.975269 0 0.975269 0.652227Z" transform="matrix(1 0 0 -1.00353 655.168 322.122)"/><path d="M150.517 1.49091 150.517 1.98223 154.634 1.98223 154.634 1.49091 150.517 1.49091Z" transform="matrix(1 0 0 -1.00353 489.902 322.136)"/></g></svg>