<svg width="353" height="176" xmlns="http://www.w3.org/2000/svg" xmlns:xlink="http://www.w3.org/1999/xlink" xml:space="preserve" overflow="hidden"><g transform="translate(-342 -670)"><path d="M194.52 151.047C194.52 158.462 188.509 164.473 181.095 164.473 173.68 164.473 167.669 158.462 167.669 151.047 167.669 143.632 173.68 137.621 181.095 137.621 188.509 137.621 194.52 143.632 194.52 151.047Z" stroke="#000000" stroke-width="2.9793" stroke-linecap="round" stroke-linejoin="round" stroke-miterlimit="1.5" fill="#FFFFFF" fill-rule="evenodd" transform="matrix(1.00026 0 0 1 351.335 564.813)"/><path d="M194.52 151.047C194.52 158.462 188.509 164.473 181.095 164.473 173.68 164.473 167.669 158.462 167.669 151.047 167.669 143.632 173.68 137.621 181.095 137.621 188.509 137.621 194.52 143.632 194.52 151.047Z" stroke="#000000" stroke-width="2.9793" stroke-linecap="round" stroke-linejoin="round" stroke-miterlimit="1.5" fill="#FFFFFF" fill-rule="evenodd" transform="matrix(1.00026 0 0 1 351.335 651.963)"/><path d="M194.52 151.047C194.52 158.462 188.509 164.473 181.095 164.473 173.68 164.473 167.669 158.462 167.669 151.047 167.669 143.632 173.68 137.621 181.095 137.621 188.509 137.621 194.52 143.632 194.52 151.047Z" stroke="#000000" stroke-width="2.9793" stroke-linecap="round" stroke-linejoin="round" stroke-miterlimit="1.5" fill="#FFFFFF" fill-rule="evenodd" transform="matrix(1.00026 0 0 1 423.941 603.498)"/><path d="M170.443 159.218 180.735 159.218" stroke="#000000" stroke-width="2.9793" stroke-linecap="round" stroke-linejoin="round" stroke-miterlimit="1.5" fill="none" fill-rule="evenodd" transform="matrix(1.00026 0 0 1 351.164 563.547)"/><path d="M170.443 159.218 180.735 159.218" stroke="#000000" stroke-width="2.9793" stroke-linecap="round" stroke-linejoin="round" stroke-miterlimit="1.5" fill="none" fill-rule="evenodd" transform="matrix(1.00026 0 0 1 351.164 650.697)"/><path d="M170.443 159.218 180.735 159.218" stroke="#000000" stroke-width="2.9793" stroke-linecap="round" stroke-linejoin="round" stroke-miterlimit="1.5" fill="none" fill-rule="evenodd" transform="matrix(1.00026 0 0 1 423.771 602.233)"/><path d="M180.735 159.218 180.735 145.681" stroke="#000000" stroke-width="2.9793" stroke-linecap="round" stroke-linejoin="round" stroke-miterlimit="1.5" fill="none" fill-rule="evenodd" transform="matrix(1.00026 0 0 1 351.164 563.547)"/><path d="M180.735 159.218 180.735 145.681" stroke="#000000" stroke-width="2.9793" stroke-linecap="round" stroke-linejoin="round" stroke-miterlimit="1.5" fill="none" fill-rule="evenodd" transform="matrix(1.00026 0 0 1 351.164 650.697)"/><path d="M180.735 159.218 180.735 145.681" stroke="#000000" stroke-width="2.9793" stroke-linecap="round" stroke-linejoin="round" stroke-miterlimit="1.5" fill="none" fill-rule="evenodd" transform="matrix(1.00026 0 0 1 423.771 602.233)"/><path d="M180.735 145.681 191.61 145.681" stroke="#000000" stroke-width="2.9793" stroke-linecap="round" stroke-linejoin="round" stroke-miterlimit="1.5" fill="none" fill-rule="evenodd" transform="matrix(1.00026 0 0 1 351.164 563.547)"/><path d="M180.735 145.681 191.61 145.681" stroke="#000000" stroke-width="2.9793" stroke-linecap="round" stroke-linejoin="round" stroke-miterlimit="1.5" fill="none" fill-rule="evenodd" transform="matrix(1.00026 0 0 1 351.164 650.697)"/><path d="M180.735 145.681 191.61 145.681" stroke="#000000" stroke-width="2.9793" stroke-linecap="round" stroke-linejoin="round" stroke-miterlimit="1.5" fill="none" fill-rule="evenodd" transform="matrix(1.00026 0 0 1 423.771 602.233)"/><path d="M7.17713-9.2968 0.855305-17.4036 4.20215-17.4036 9.03649-10.8958 13.6477-17.4036 16.6971-17.4036 10.6355-9.2968 17.9242 0 14.5774 0 8.73899-7.62337 3.12372 0 0 0 7.17713-9.2968Z" transform="matrix(1.00026 0 0 1 404.708 722.594)"/><path d="M7.17713-9.2968 0.855305-17.4036 4.20215-17.4036 9.03649-10.8958 13.6477-17.4036 16.6971-17.4036 10.6355-9.2968 17.9242 0 14.5774 0 8.73899-7.62337 3.12372 0 0 0 7.17713-9.2968Z" transform="matrix(1.00026 0 0 1 404.708 813.076)"/><path d="M7.61181 0 6.03695 0 6.03695-13.5175 3.25908-11.0677 2.27479-12.2489 6.21194-15.4861 7.61181-15.4861 7.61181 0Z" transform="matrix(1.00026 0 0 1 423.873 734.389)"/><path d="M10.8928 0 1.0499 0 1.0499-1.81546 7.21809-8.09301C7.4587-8.33362 7.67743-8.57422 7.91803-8.8367 8.15863-9.09917 8.35549-9.38352 8.55235-9.66787 8.7492-9.95222 8.90232-10.2584 9.01168-10.5865 9.12105-10.9146 9.18666-11.2427 9.18666-11.5927 9.18666-12.0083 9.12105-12.402 8.96793-12.7301 8.81482-13.0582 8.59609-13.3425 8.31174-13.5831 8.0274-13.8237 7.72117-13.9987 7.34933-14.13 6.97749-14.2393 6.60565-14.3049 6.19006-14.3049 5.40263-14.3049 4.72457-14.0862 4.17774-13.6488 3.63092-13.2113 3.25908-12.6207 3.10597-11.877L1.44362-12.052C1.66235-13.2113 2.1873-14.1081 3.04035-14.7643 3.87152-15.4205 4.87768-15.7486 6.0807-15.7486 6.71501-15.7486 7.30559-15.6611 7.87428-15.508 8.42111-15.333 8.92419-15.0705 9.36165-14.7424 9.77724-14.4143 10.1272-13.9987 10.3897-13.4956 10.6303-12.9926 10.7615-12.402 10.7615-11.7239 10.7615-11.1334 10.674-10.5865 10.499-10.0835 10.3022-9.58038 10.0616-9.12105 9.77724-8.68359 9.49289-8.24613 9.16479-7.83054 8.79295-7.43682 8.42111-7.04311 8.0274-6.64939 7.63368-6.27755L2.756-1.44362 10.8928-1.44362 10.8928 0Z" transform="matrix(1.00026 0 0 1 423.873 824.871)"/><path d="M1.26855-9.11351 9.84793-9.11351 9.84793-6.91025 1.26855-6.91025Z" transform="matrix(1.00026 0 0 1 340.732 728.965)"/><path d="M11.6172 0 9.21366 0 9.21366-20.6306 4.97404-16.8917 3.47181-18.6944 9.48072-23.635 11.6172-23.635 11.6172 0Z" transform="matrix(1.00026 0 0 1 351.851 728.965)"/><path d="M11.6172 0 9.21366 0 9.21366-20.6306 4.97404-16.8917 3.47181-18.6944 9.48072-23.635 11.6172-23.635 11.6172 0Z" transform="matrix(1.00026 0 0 1 352.884 823.827)"/><path d="M140.275 108.568 397.804 108.568 397.804 231.904 140.275 231.904Z" stroke="#000000" stroke-width="0.653544" stroke-linecap="round" stroke-linejoin="round" stroke-miterlimit="1.5" fill="none" fill-rule="evenodd" transform="matrix(1 0 0 1.41921 244.774 516.32)"/><path d="M284.531 163.7 358.318 237.486" stroke="#000000" stroke-width="2.83259" stroke-linecap="round" stroke-linejoin="round" stroke-miterlimit="1.5" fill="none" fill-rule="evenodd" transform="matrix(1.00371 0.0480371 0.0480497 1.00344 150.147 539.307)"/><path d="M291.103 244.476 362.977 165.646" stroke="#000000" stroke-width="3.11656" stroke-linecap="round" stroke-linejoin="round" stroke-miterlimit="1.5" fill="none" fill-rule="evenodd" transform="matrix(1.00216 -0.0466149 -0.046575 1.00325 165.11 573.899)"/><path d="M278.755 151.877 343.719 151.877" stroke="#000000" stroke-width="2.76701" stroke-linecap="round" stroke-linejoin="round" stroke-miterlimit="1.5" fill="none" fill-rule="evenodd" transform="matrix(1.14843 0 0 1 123.148 564.813)"/><path d="M278.28 240.469 344.261 240.469" stroke="#000000" stroke-width="2.8414" stroke-linecap="round" stroke-linejoin="round" stroke-miterlimit="1.5" fill="none" fill-rule="evenodd" transform="matrix(1.09526 0 0 1 141.371 564.813)"/><path d="M370.901 156.344 417.55 183.808" stroke="#000000" stroke-width="2.9793" stroke-linecap="round" stroke-linejoin="round" stroke-miterlimit="1.5" fill="none" fill-rule="evenodd" transform="matrix(1.00026 0 0 1 174.075 564.813)"/><path d="M371.721 236.586 418.927 196.607" stroke="#000000" stroke-width="2.9793" stroke-linecap="round" stroke-linejoin="round" stroke-miterlimit="1.5" fill="none" fill-rule="evenodd" transform="matrix(1.00026 0 0 1 174.075 564.813)"/><path d="M276.115 242.207C276.115 243.78 274.84 245.056 273.266 245.056 271.693 245.056 270.418 243.78 270.418 242.207 270.418 240.634 271.693 239.358 273.266 239.358 274.84 239.358 276.115 240.634 276.115 242.207Z" stroke="#000000" stroke-width="2.9793" stroke-linecap="round" stroke-linejoin="round" stroke-miterlimit="1.5" fill-rule="evenodd" transform="matrix(1.00026 0 0 1 173.23 562.848)"/><path d="M276.115 242.207C276.115 243.78 274.84 245.056 273.266 245.056 271.693 245.056 270.418 243.78 270.418 242.207 270.418 240.634 271.693 239.358 273.266 239.358 274.84 239.358 276.115 240.634 276.115 242.207Z" stroke="#000000" stroke-width="2.9793" stroke-linecap="round" stroke-linejoin="round" stroke-miterlimit="1.5" fill-rule="evenodd" transform="matrix(1.00026 0 0 1 170.754 474.726)"/><path d="M444.545 189.184 488.378 189.184" stroke="#000000" stroke-width="2.9793" stroke-linecap="round" stroke-linejoin="round" stroke-miterlimit="1.5" fill="none" fill-rule="evenodd" transform="matrix(1.00026 0 0 1 174.075 564.813)"/><path d="M1.05811-7.60169 8.21428-7.60169 8.21428-5.76392 1.05811-5.76392Z" transform="matrix(1.00026 0 0 1 675.911 762.538)"/><path d="M9.69006 0 7.68522 0 7.68522-17.2082 4.14891-14.0896 2.89588-15.5932 7.90798-19.7143 9.69006-19.7143 9.69006 0Z" transform="matrix(1.00026 0 0 1 685.185 762.538)"/><path d="M389.103 135.237 376.049 141.534" stroke="#000000" stroke-width="2.9793" stroke-linecap="round" stroke-linejoin="round" stroke-miterlimit="1.5" fill="none" fill-rule="evenodd" transform="matrix(1.00026 0 0 1 174.075 564.813)"/><path d="M376.049 141.534 377.215 135.039" stroke="#000000" stroke-width="2.9793" stroke-linecap="round" stroke-linejoin="round" stroke-miterlimit="1.5" fill="none" fill-rule="evenodd" transform="matrix(1.00026 0 0 1 174.075 564.813)"/><path d="M376.049 141.534 382.045 144.282" stroke="#000000" stroke-width="2.9793" stroke-linecap="round" stroke-linejoin="round" stroke-miterlimit="1.5" fill="none" fill-rule="evenodd" transform="matrix(1.00026 0 0 1 174.075 564.813)"/><path d="M3.7189-4.1489C3.60268-4.36971 3.4516-4.55565 3.25404-4.68349 3.05647-4.81133 2.82404-4.88106 2.54512-4.88106 2.41729-4.88106 2.27783-4.86943 2.14999-4.83457 2.01053-4.79971 1.88269-4.75322 1.7781-4.69511 1.6735-4.62538 1.58053-4.54403 1.52242-4.43944 1.4527-4.33484 1.41783-4.21863 1.41783-4.06755 1.41783-3.81187 1.5108-3.62593 1.68513-3.50971 1.85945-3.3935 2.12675-3.2889 2.48701-3.20755L3.26566-3.02161C3.64917-2.94026 3.96295-2.76593 4.21863-2.51026 4.46268-2.24296 4.59052-1.91756 4.59052-1.53405 4.59052-1.24351 4.53241-0.987833 4.41619-0.778645 4.28836-0.557835 4.13728-0.383512 3.93971-0.255674 3.74214-0.116216 3.50971-0.0116216 3.25404 0.0464863 2.99836 0.104594 2.74269 0.139459 2.47539 0.139459 2.05702 0.139459 1.66188 0.0581078 1.31324-0.104594 0.952968-0.255674 0.639186-0.534592 0.383512-0.918104L1.04594-1.37134C1.19702-1.12729 1.39459-0.929725 1.63864-0.778645 1.87107-0.627564 2.14999-0.557835 2.47539-0.557835 2.62647-0.557835 2.78918-0.569457 2.94026-0.615943 3.09134-0.650808 3.23079-0.697294 3.35863-0.778645 3.47485-0.848374 3.56782-0.941347 3.64917-1.05756 3.7189-1.17378 3.75377-1.31324 3.75377-1.46432 3.75377-1.73161 3.64917-1.92918 3.4516-2.05702 3.25404-2.17323 3.00998-2.2662 2.71945-2.33593L1.97567-2.51026C1.88269-2.5335 1.75486-2.56837 1.60378-2.62647 1.44107-2.68458 1.28999-2.76593 1.13891-2.87053 0.987833-2.97512 0.848374-3.1262 0.74378-3.30052 0.639186-3.47485 0.581078-3.68404 0.581078-3.93971 0.581078-4.21863 0.639186-4.46268 0.755402-4.67187 0.859996-4.88106 1.01108-5.05538 1.20864-5.18322 1.39459-5.31105 1.60378-5.41565 1.84783-5.48538 2.09188-5.54349 2.33593-5.57835 2.59161-5.57835 2.97512-5.57835 3.32377-5.50862 3.64917-5.35754 3.97457-5.20646 4.23025-4.96241 4.40457-4.60214L3.7189-4.1489Z" transform="matrix(1.00026 0 0 1 567.969 701.086)"/><path d="M1.39459-2.78918C1.39459-2.49864 1.4527-2.23134 1.55729-1.98729 1.65026-1.73161 1.80134-1.5108 1.98729-1.32486 2.16161-1.12729 2.38242-0.976211 2.62647-0.871617 2.87053-0.755402 3.1262-0.697294 3.41674-0.697294 3.69566-0.697294 3.96295-0.74378 4.21863-0.848374 4.46268-0.952968 4.68349-1.09243 4.88106-1.27837 5.07862-1.4527 5.2297-1.6735 5.3343-1.92918 5.43889-2.18485 5.48538-2.47539 5.47376-2.78918 5.47376-3.07971 5.42727-3.34701 5.3343-3.60268 5.24132-3.84674 5.10187-4.06755 4.92754-4.26511 4.75322-4.45106 4.53241-4.60214 4.27674-4.71835 4.02106-4.82295 3.73052-4.88106 3.41674-4.88106 3.1262-4.88106 2.87053-4.82295 2.62647-4.71835 2.38242-4.60214 2.16161-4.45106 1.98729-4.26511 1.80134-4.06755 1.65026-3.84674 1.55729-3.60268 1.4527-3.34701 1.39459-3.07971 1.39459-2.78918ZM1.25513 1.09243C1.47594 1.39459 1.7781 1.63864 2.13837 1.82459 2.49864 1.99891 2.89377 2.09188 3.33539 2.09188 3.7189 2.09188 4.05593 2.03377 4.32322 1.92918 4.59052 1.81296 4.81133 1.66188 4.98565 1.46432 5.14835 1.26675 5.26457 1.04594 5.34592 0.790266 5.41565 0.52297 5.45051 0.244053 5.45051-0.0464863L5.45051-1.0227 5.42727-1.0227C5.18322-0.650808 4.88106-0.383512 4.52079-0.232431 4.16052-0.0813509 3.78863 0 3.3935 0 2.99836 0 2.62647-0.0697294 2.28945-0.209188 1.9408-0.348647 1.63864-0.546213 1.38297-0.790266 1.12729-1.03432 0.929725-1.32486 0.778645-1.66188 0.627564-1.99891 0.557835-2.3708 0.557835-2.76593 0.557835-3.16107 0.627564-3.53295 0.767023-3.86998 0.906482-4.20701 1.10405-4.50917 1.3481-4.76484 1.58053-5.02052 1.88269-5.21808 2.21972-5.36916 2.55674-5.50862 2.91701-5.57835 3.32377-5.57835 3.48647-5.57835 3.66079-5.56673 3.84674-5.53186 4.02106-5.497 4.20701-5.45051 4.39295-5.36916 4.56727-5.28781 4.75322-5.18322 4.92754-5.05538 5.10187-4.91592 5.27619-4.7416 5.42727-4.53241L5.45051-4.53241 5.45051-5.43889 6.21754-5.43889 6.21754-0.0464863C6.21754 0.244053 6.18267 0.557835 6.11294 0.89486 6.03159 1.23189 5.89213 1.53405 5.68294 1.81296 5.46213 2.09188 5.1716 2.32431 4.78808 2.51026 4.40457 2.6962 3.91647 2.78918 3.30052 2.78918 2.75431 2.78918 2.27783 2.6962 1.84783 2.52188 1.41783 2.34756 1.03432 2.06864 0.685672 1.69675L1.25513 1.09243Z" transform="matrix(1.00026 0 0 1 572.92 701.086)"/><path d="M1.56891-5.43889C1.58053-5.28781 1.59215-5.14835 1.60378-5.00889 1.60378-4.85781 1.60378-4.71835 1.60378-4.56727L1.62702-4.56727C1.70837-4.71835 1.82459-4.84619 1.95242-4.97403 2.08026-5.10187 2.23134-5.20646 2.39404-5.29943 2.55674-5.38078 2.73107-5.45051 2.91701-5.50862 3.09134-5.55511 3.27728-5.57835 3.4516-5.57835 4.1489-5.57835 4.66025-5.39241 4.99727-5.03214 5.3343-4.66025 5.497-4.13728 5.497-3.4516L5.497 0 4.72998 0 4.72998-3.00998C4.72998-3.61431 4.62538-4.07917 4.41619-4.40457 4.20701-4.71835 3.82349-4.88106 3.25404-4.88106 3.21917-4.88106 3.10296-4.86943 2.92863-4.83457 2.75431-4.79971 2.56837-4.71835 2.3708-4.5789 2.17323-4.43944 1.98729-4.23025 1.83621-3.95133 1.68513-3.67241 1.60378-3.2889 1.60378-2.78918L1.60378 0 0.836752 0 0.836752-4.24187C0.836752-4.39295 0.836752-4.5789 0.825131-4.79971 0.813509-5.02052 0.790266-5.24132 0.778645-5.43889L1.56891-5.43889Z" transform="matrix(1.00026 0 0 1 580.023 701.086)"/><path d="M3.92809-2.70782C3.73052-2.70782 3.49809-2.6962 3.20755-2.68458 2.91701-2.66134 2.63809-2.61485 2.3708-2.54512 2.1035-2.46377 1.87107-2.34756 1.68513-2.19648 1.48756-2.0454 1.39459-1.82459 1.39459-1.55729 1.39459-1.38297 1.42945-1.23189 1.5108-1.10405 1.58053-0.976211 1.6735-0.871617 1.80134-0.790266 1.92918-0.708915 2.06864-0.650808 2.21972-0.615943 2.3708-0.569457 2.52188-0.557835 2.67296-0.557835 2.95188-0.557835 3.19593-0.604321 3.40512-0.697294 3.60268-0.790266 3.77701-0.918104 3.91647-1.08081 4.05593-1.23189 4.16052-1.41783 4.23025-1.63864 4.28836-1.84783 4.32322-2.06864 4.32322-2.31269L4.32322-2.70782 3.92809-2.70782ZM4.32322-3.33539 4.32322-3.47485C4.32322-4.41619 3.85836-4.88106 2.92863-4.88106 2.28945-4.88106 1.74323-4.67187 1.26675-4.24187L0.801888-4.78808C1.31324-5.31105 2.08026-5.57835 3.10296-5.57835 3.37025-5.57835 3.62593-5.54349 3.86998-5.46213 4.11403-5.38078 4.32322-5.26457 4.49754-5.11349 4.67187-4.95079 4.82295-4.75322 4.92754-4.50917 5.03214-4.26511 5.09024-3.9862 5.09024-3.64917L5.09024-1.22026C5.09024-1.01108 5.10187-0.790266 5.12511-0.569457 5.13673-0.337025 5.15997-0.15108 5.18322 0L4.43944 0C4.41619-0.127837 4.40457-0.278918 4.39295-0.429998 4.38133-0.581078 4.36971-0.732158 4.36971-0.883239L4.34646-0.883239C4.12565-0.52297 3.85836-0.255674 3.5562-0.104594 3.24242 0.0581078 2.87053 0.139459 2.42891 0.139459 2.18485 0.139459 1.95242 0.104594 1.73161 0.0464863 1.5108-0.0232431 1.31324-0.127837 1.13891-0.267296 0.96459-0.395133 0.813509-0.569457 0.720537-0.767023 0.615943-0.96459 0.557835-1.1854 0.557835-1.4527 0.557835-1.89431 0.674051-2.24296 0.906482-2.49864 1.12729-2.74269 1.41783-2.92863 1.76648-3.05647 2.1035-3.18431 2.47539-3.25404 2.87053-3.2889 3.25404-3.32377 3.61431-3.33539 3.93971-3.33539L4.32322-3.33539Z" transform="matrix(1.00026 0 0 1 589.718 701.086)"/><path d="M4.79971-4.16052C4.67187-4.35809 4.48592-4.53241 4.25349-4.67187 4.00944-4.81133 3.74214-4.88106 3.43998-4.88106 3.1262-4.89268 2.83566-4.83457 2.59161-4.72998 2.33593-4.62538 2.11512-4.4743 1.9408-4.27674 1.76648-4.07917 1.62702-3.85836 1.53405-3.59106 1.44107-3.32377 1.39459-3.03323 1.39459-2.71945 1.39459-2.40566 1.44107-2.12675 1.53405-1.85945 1.62702-1.58053 1.76648-1.35972 1.9408-1.16216 2.11512-0.96459 2.33593-0.813509 2.59161-0.708915 2.83566-0.604321 3.1262-0.546213 3.43998-0.557835 3.74214-0.557835 4.00944-0.627564 4.25349-0.767023 4.48592-0.906482 4.67187-1.08081 4.79971-1.27837L5.42727-0.801888C5.15997-0.488106 4.84619-0.255674 4.50917-0.104594 4.17214 0.0581078 3.81187 0.127837 3.43998 0.139459 2.99836 0.15108 2.60323 0.0813509 2.24296-0.0697294 1.88269-0.209188 1.58053-0.406755 1.33648-0.662429 1.08081-0.918104 0.883239-1.22026 0.755402-1.58053 0.627564-1.92918 0.557835-2.31269 0.557835-2.71945 0.557835-3.1262 0.627564-3.50971 0.755402-3.86998 0.883239-4.21863 1.08081-4.52079 1.33648-4.77646 1.58053-5.03214 1.88269-5.2297 2.24296-5.38078 2.60323-5.52024 2.99836-5.58997 3.43998-5.57835 3.81187-5.56673 4.17214-5.48538 4.50917-5.34592 4.84619-5.19484 5.15997-4.95079 5.42727-4.637L4.79971-4.16052Z" transform="matrix(1.00026 0 0 1 595.751 701.086)"/><path d="M3.64917-4.7416 2.08026-4.7416 2.08026-1.53405C2.08026-1.33648 2.1035-1.16216 2.13837-1.04594 2.17323-0.918104 2.23134-0.813509 2.30107-0.74378 2.3708-0.674051 2.45215-0.627564 2.55674-0.604321 2.64972-0.569457 2.75431-0.557835 2.87053-0.557835 2.99836-0.557835 3.13782-0.581078 3.27728-0.615943 3.41674-0.650808 3.54458-0.708915 3.66079-0.767023L3.69566-0.0581078C3.40512 0.0697294 3.06809 0.139459 2.66134 0.139459 2.51026 0.139459 2.35918 0.116216 2.2081 0.0813509 2.0454 0.0464863 1.89431-0.0348647 1.76648-0.139459 1.63864-0.244053 1.52242-0.395133 1.44107-0.581078 1.35972-0.767023 1.31324-1.01108 1.31324-1.31324L1.31324-4.7416 0.162702-4.7416 0.162702-5.43889 1.31324-5.43889 1.31324-6.97294 2.08026-6.97294 2.08026-5.43889 3.64917-5.43889 3.64917-4.7416Z" transform="matrix(1.00026 0 0 1 601.355 701.086)"/><path d="M1.95242-7.53077C1.95242-7.36807 1.89431-7.24023 1.7781-7.13564 1.66188-7.01942 1.53405-6.97294 1.39459-6.97294 1.25513-6.97294 1.12729-7.01942 1.01108-7.13564 0.89486-7.24023 0.836752-7.36807 0.836752-7.53077 0.836752-7.69347 0.89486-7.83293 1.01108-7.93753 1.12729-8.04212 1.25513-8.08861 1.39459-8.08861 1.53405-8.08861 1.66188-8.04212 1.7781-7.93753 1.89431-7.83293 1.95242-7.69347 1.95242-7.53077ZM1.7781 0 1.01108 0 1.01108-5.43889 1.7781-5.43889 1.7781 0Z" transform="matrix(1.00026 0 0 1 605.214 701.086)"/><path d="M3.23079 0 2.3708 0 0.162702-5.43889 1.08081-5.43889 2.81242-0.859996 2.83566-0.859996 4.56727-5.43889 5.43889-5.43889 3.23079 0Z" transform="matrix(1.00026 0 0 1 608.004 701.086)"/><path d="M3.92809-2.70782C3.73052-2.70782 3.49809-2.6962 3.20755-2.68458 2.91701-2.66134 2.63809-2.61485 2.3708-2.54512 2.1035-2.46377 1.87107-2.34756 1.68513-2.19648 1.48756-2.0454 1.39459-1.82459 1.39459-1.55729 1.39459-1.38297 1.42945-1.23189 1.5108-1.10405 1.58053-0.976211 1.6735-0.871617 1.80134-0.790266 1.92918-0.708915 2.06864-0.650808 2.21972-0.615943 2.3708-0.569457 2.52188-0.557835 2.67296-0.557835 2.95188-0.557835 3.19593-0.604321 3.40512-0.697294 3.60268-0.790266 3.77701-0.918104 3.91647-1.08081 4.05593-1.23189 4.16052-1.41783 4.23025-1.63864 4.28836-1.84783 4.32322-2.06864 4.32322-2.31269L4.32322-2.70782 3.92809-2.70782ZM4.32322-3.33539 4.32322-3.47485C4.32322-4.41619 3.85836-4.88106 2.92863-4.88106 2.28945-4.88106 1.74323-4.67187 1.26675-4.24187L0.801888-4.78808C1.31324-5.31105 2.08026-5.57835 3.10296-5.57835 3.37025-5.57835 3.62593-5.54349 3.86998-5.46213 4.11403-5.38078 4.32322-5.26457 4.49754-5.11349 4.67187-4.95079 4.82295-4.75322 4.92754-4.50917 5.03214-4.26511 5.09024-3.9862 5.09024-3.64917L5.09024-1.22026C5.09024-1.01108 5.10187-0.790266 5.12511-0.569457 5.13673-0.337025 5.15997-0.15108 5.18322 0L4.43944 0C4.41619-0.127837 4.40457-0.278918 4.39295-0.429998 4.38133-0.581078 4.36971-0.732158 4.36971-0.883239L4.34646-0.883239C4.12565-0.52297 3.85836-0.255674 3.5562-0.104594 3.24242 0.0581078 2.87053 0.139459 2.42891 0.139459 2.18485 0.139459 1.95242 0.104594 1.73161 0.0464863 1.5108-0.0232431 1.31324-0.127837 1.13891-0.267296 0.96459-0.395133 0.813509-0.569457 0.720537-0.767023 0.615943-0.96459 0.557835-1.1854 0.557835-1.4527 0.557835-1.89431 0.674051-2.24296 0.906482-2.49864 1.12729-2.74269 1.41783-2.92863 1.76648-3.05647 2.1035-3.18431 2.47539-3.25404 2.87053-3.2889 3.25404-3.32377 3.61431-3.33539 3.93971-3.33539L4.32322-3.33539Z" transform="matrix(1.00026 0 0 1 613.606 701.086)"/><path d="M3.64917-4.7416 2.08026-4.7416 2.08026-1.53405C2.08026-1.33648 2.1035-1.16216 2.13837-1.04594 2.17323-0.918104 2.23134-0.813509 2.30107-0.74378 2.3708-0.674051 2.45215-0.627564 2.55674-0.604321 2.64972-0.569457 2.75431-0.557835 2.87053-0.557835 2.99836-0.557835 3.13782-0.581078 3.27728-0.615943 3.41674-0.650808 3.54458-0.708915 3.66079-0.767023L3.69566-0.0581078C3.40512 0.0697294 3.06809 0.139459 2.66134 0.139459 2.51026 0.139459 2.35918 0.116216 2.2081 0.0813509 2.0454 0.0464863 1.89431-0.0348647 1.76648-0.139459 1.63864-0.244053 1.52242-0.395133 1.44107-0.581078 1.35972-0.767023 1.31324-1.01108 1.31324-1.31324L1.31324-4.7416 0.162702-4.7416 0.162702-5.43889 1.31324-5.43889 1.31324-6.97294 2.08026-6.97294 2.08026-5.43889 3.64917-5.43889 3.64917-4.7416Z" transform="matrix(1.00026 0 0 1 619.639 701.086)"/><path d="M1.95242-7.53077C1.95242-7.36807 1.89431-7.24023 1.7781-7.13564 1.66188-7.01942 1.53405-6.97294 1.39459-6.97294 1.25513-6.97294 1.12729-7.01942 1.01108-7.13564 0.89486-7.24023 0.836752-7.36807 0.836752-7.53077 0.836752-7.69347 0.89486-7.83293 1.01108-7.93753 1.12729-8.04212 1.25513-8.08861 1.39459-8.08861 1.53405-8.08861 1.66188-8.04212 1.7781-7.93753 1.89431-7.83293 1.95242-7.69347 1.95242-7.53077ZM1.7781 0 1.01108 0 1.01108-5.43889 1.7781-5.43889 1.7781 0Z" transform="matrix(1.00026 0 0 1 623.498 701.086)"/><path d="M5.497-2.71945C5.497-3.02161 5.45051-3.30052 5.35754-3.56782 5.25295-3.83512 5.11349-4.05593 4.93916-4.25349 4.76484-4.45106 4.54403-4.60214 4.29998-4.71835 4.0443-4.82295 3.75377-4.88106 3.43998-4.88106 3.1262-4.88106 2.83566-4.82295 2.59161-4.71835 2.33593-4.60214 2.12675-4.45106 1.95242-4.25349 1.7781-4.05593 1.63864-3.83512 1.54567-3.56782 1.44107-3.30052 1.39459-3.02161 1.39459-2.71945 1.39459-2.41729 1.44107-2.13837 1.54567-1.87107 1.63864-1.60378 1.7781-1.38297 1.95242-1.1854 2.12675-0.987833 2.33593-0.836752 2.59161-0.732158 2.83566-0.615943 3.1262-0.557835 3.43998-0.557835 3.75377-0.557835 4.0443-0.615943 4.29998-0.732158 4.54403-0.836752 4.76484-0.987833 4.93916-1.1854 5.11349-1.38297 5.25295-1.60378 5.35754-1.87107 5.45051-2.13837 5.497-2.41729 5.497-2.71945ZM6.33375-2.71945C6.33375-2.31269 6.26402-1.92918 6.12456-1.58053 5.97348-1.23189 5.77592-0.929725 5.52024-0.674051 5.26457-0.418376 4.96241-0.22081 4.61376-0.0813509 4.25349 0.0697294 3.86998 0.139459 3.43998 0.139459 3.02161 0.139459 2.63809 0.0697294 2.28945-0.0813509 1.92918-0.22081 1.62702-0.418376 1.37134-0.674051 1.11567-0.929725 0.918104-1.23189 0.778645-1.58053 0.627564-1.92918 0.557835-2.31269 0.557835-2.71945 0.557835-3.1262 0.627564-3.50971 0.778645-3.85836 0.918104-4.20701 1.11567-4.50917 1.37134-4.76484 1.62702-5.02052 1.92918-5.21808 2.28945-5.36916 2.63809-5.50862 3.02161-5.57835 3.43998-5.57835 3.86998-5.57835 4.25349-5.50862 4.61376-5.36916 4.96241-5.21808 5.26457-5.02052 5.52024-4.76484 5.77592-4.50917 5.97348-4.20701 6.12456-3.85836 6.26402-3.50971 6.33375-3.1262 6.33375-2.71945Z" transform="matrix(1.00026 0 0 1 626.29 701.086)"/><path d="M1.56891-5.43889C1.58053-5.28781 1.59215-5.14835 1.60378-5.00889 1.60378-4.85781 1.60378-4.71835 1.60378-4.56727L1.62702-4.56727C1.70837-4.71835 1.82459-4.84619 1.95242-4.97403 2.08026-5.10187 2.23134-5.20646 2.39404-5.29943 2.55674-5.38078 2.73107-5.45051 2.91701-5.50862 3.09134-5.55511 3.27728-5.57835 3.4516-5.57835 4.1489-5.57835 4.66025-5.39241 4.99727-5.03214 5.3343-4.66025 5.497-4.13728 5.497-3.4516L5.497 0 4.72998 0 4.72998-3.00998C4.72998-3.61431 4.62538-4.07917 4.41619-4.40457 4.20701-4.71835 3.82349-4.88106 3.25404-4.88106 3.21917-4.88106 3.10296-4.86943 2.92863-4.83457 2.75431-4.79971 2.56837-4.71835 2.3708-4.5789 2.17323-4.43944 1.98729-4.23025 1.83621-3.95133 1.68513-3.67241 1.60378-3.2889 1.60378-2.78918L1.60378 0 0.836752 0 0.836752-4.24187C0.836752-4.39295 0.836752-4.5789 0.825131-4.79971 0.813509-5.02052 0.790266-5.24132 0.778645-5.43889L1.56891-5.43889Z" transform="matrix(1.00026 0 0 1 633.182 701.086)"/><path d="M7.73557 0 6.1351 0 6.1351-13.7373 3.31207-11.2477 2.31178-12.448 6.31293-15.7379 7.73557-15.7379 7.73557 0Z" transform="matrix(1.00026 0 0 1 475.258 711.799)"/><path d="M0.884838-6.35686 6.86914-6.35686 6.86914-4.82004 0.884838-4.82004Z" transform="matrix(1.00026 0 0 1 506.058 778.579)"/><path d="M8.10325 0 6.42672 0 6.42672-14.3903 3.4695-11.7823 2.42166-13.0397 6.613-16.4859 8.10325-16.4859 8.10325 0Z" transform="matrix(1.00026 0 0 1 513.815 778.579)"/><path d="M8.99511 0 7.13405 0 7.13405-15.9741 3.85135-13.0791 2.68819-14.4749 7.34084-18.3004 8.99511-18.3004 8.99511 0Z" transform="matrix(1.00026 0 0 1 445.531 790.141)"/><path d="M0.924454-6.64148 7.17669-6.64148 7.17669-5.03584 0.924454-5.03584Z" transform="matrix(1.00026 0 0 1 475.856 826.826)"/><path d="M8.46606 0 6.71446 0 6.71446-15.0345 3.62483-12.3098 2.53009-13.6235 6.90908-17.224 8.46606-17.224 8.46606 0Z" transform="matrix(1.00026 0 0 1 483.958 826.826)"/><path d="M358.224 137.082 358.224 125.317" stroke="#000000" stroke-width="2.9793" stroke-linecap="round" stroke-linejoin="round" stroke-miterlimit="1.5" fill="none" fill-rule="evenodd" transform="matrix(1.00026 0 0 1 174.075 564.813)"/><path d="M358.521 251.745 358.521 263.608" stroke="#000000" stroke-width="2.9793" stroke-linecap="round" stroke-linejoin="round" stroke-miterlimit="1.5" fill="none" fill-rule="evenodd" transform="matrix(1.00026 0 0 1 174.075 564.813)"/><path d="M0.495186-3.55752 3.8442-3.55752 3.8442-2.69746 0.495186-2.69746Z" transform="matrix(1.00026 0 0 1 520.497 840.681)"/><path d="M4.53486 0 3.59661 0 3.59661-8.05328 1.94165-6.59379 1.35525-7.29747 3.70086-9.22609 4.53486-9.22609 4.53486 0Z" transform="matrix(1.00026 0 0 1 524.836 840.681)"/><path d="M2.51502-0.625498C2.51502-0.443061 2.44987-0.286686 2.31955-0.143343 2.18924 0 2.01984 0.0781872 1.81134 0.0781872 1.60284 0.0781872 1.43343 0 1.30312-0.143343 1.17281-0.286686 1.10765-0.443061 1.10765-0.625498 1.10765-0.807935 1.17281-0.97734 1.30312-1.12068 1.43343-1.26403 1.60284-1.32918 1.81134-1.32918 2.01984-1.32918 2.18924-1.26403 2.31955-1.12068 2.44987-0.97734 2.51502-0.807935 2.51502-0.625498Z" transform="matrix(1.00026 0 0 1 532.083 840.681)"/><path d="M6.05951-8.36603 2.28046-8.36603 2.22834-5.59039C2.4238-5.66857 2.6323-5.7207 2.8408-5.75979 3.0493-5.79889 3.2578-5.81192 3.4663-5.81192 3.89633-5.81192 4.3003-5.73373 4.65214-5.59039 5.00398-5.44704 5.31673-5.23854 5.57735-4.97792 5.82495-4.70426 6.03345-4.39152 6.17679-4.03967 6.32013-3.6748 6.38529-3.28386 6.38529-2.85383 6.38529-2.41077 6.3071-2.00681 6.15073-1.64193 5.99435-1.26403 5.77282-0.951278 5.49917-0.690654 5.22551-0.416999 4.89973-0.208499 4.52183-0.065156 4.14392 0.0781872 3.72692 0.156374 3.28386 0.156374 2.69746 0.156374 2.17621 0.0130312 1.70709-0.260624 1.23796-0.534279 0.873091-0.951278 0.625498-1.48556L1.55071-1.88952C1.72012-1.52465 1.96771-1.23796 2.28046-1.02947 2.59321-0.807935 2.95808-0.703685 3.36205-0.703685 3.66177-0.703685 3.93542-0.75581 4.18302-0.873091 4.43061-0.97734 4.65214-1.12068 4.84761-1.30312 5.03004-1.48556 5.17339-1.70709 5.29067-1.95468 5.39492-2.20227 5.44704-2.47593 5.44704-2.76261 5.44704-3.0884 5.39492-3.37508 5.27764-3.64874 5.16036-3.92239 5.00398-4.15695 4.80851-4.35242 4.61305-4.54789 4.36545-4.69123 4.0918-4.79548 3.81814-4.89973 3.50539-4.95186 3.17961-4.95186 2.85383-4.95186 2.52805-4.91276 2.20227-4.82155 1.86346-4.73033 1.56374-4.60001 1.26403-4.44364L1.35525-9.22609 6.05951-9.22609 6.05951-8.36603Z" transform="matrix(1.00026 0 0 1 535.708 840.681)"/><path d="M0.495186-3.55752 3.8442-3.55752 3.8442-2.69746 0.495186-2.69746Z" transform="matrix(1.00026 0 0 1 520.497 685.976)"/><path d="M4.53486 0 3.59661 0 3.59661-8.05328 1.94165-6.59379 1.35525-7.29747 3.70086-9.22609 4.53486-9.22609 4.53486 0Z" transform="matrix(1.00026 0 0 1 524.836 685.976)"/><path d="M2.51502-0.625498C2.51502-0.443061 2.44987-0.286686 2.31955-0.143343 2.18924 0 2.01984 0.0781872 1.81134 0.0781872 1.60284 0.0781872 1.43343 0 1.30312-0.143343 1.17281-0.286686 1.10765-0.443061 1.10765-0.625498 1.10765-0.807935 1.17281-0.97734 1.30312-1.12068 1.43343-1.26403 1.60284-1.32918 1.81134-1.32918 2.01984-1.32918 2.18924-1.26403 2.31955-1.12068 2.44987-0.97734 2.51502-0.807935 2.51502-0.625498Z" transform="matrix(1.00026 0 0 1 532.083 685.976)"/><path d="M6.05951-8.36603 2.28046-8.36603 2.22834-5.59039C2.4238-5.66857 2.6323-5.7207 2.8408-5.75979 3.0493-5.79889 3.2578-5.81192 3.4663-5.81192 3.89633-5.81192 4.3003-5.73373 4.65214-5.59039 5.00398-5.44704 5.31673-5.23854 5.57735-4.97792 5.82495-4.70426 6.03345-4.39152 6.17679-4.03967 6.32013-3.6748 6.38529-3.28386 6.38529-2.85383 6.38529-2.41077 6.3071-2.00681 6.15073-1.64193 5.99435-1.26403 5.77282-0.951278 5.49917-0.690654 5.22551-0.416999 4.89973-0.208499 4.52183-0.065156 4.14392 0.0781872 3.72692 0.156374 3.28386 0.156374 2.69746 0.156374 2.17621 0.0130312 1.70709-0.260624 1.23796-0.534279 0.873091-0.951278 0.625498-1.48556L1.55071-1.88952C1.72012-1.52465 1.96771-1.23796 2.28046-1.02947 2.59321-0.807935 2.95808-0.703685 3.36205-0.703685 3.66177-0.703685 3.93542-0.75581 4.18302-0.873091 4.43061-0.97734 4.65214-1.12068 4.84761-1.30312 5.03004-1.48556 5.17339-1.70709 5.29067-1.95468 5.39492-2.20227 5.44704-2.47593 5.44704-2.76261 5.44704-3.0884 5.39492-3.37508 5.27764-3.64874 5.16036-3.92239 5.00398-4.15695 4.80851-4.35242 4.61305-4.54789 4.36545-4.69123 4.0918-4.79548 3.81814-4.89973 3.50539-4.95186 3.17961-4.95186 2.85383-4.95186 2.52805-4.91276 2.20227-4.82155 1.86346-4.73033 1.56374-4.60001 1.26403-4.44364L1.35525-9.22609 6.05951-9.22609 6.05951-8.36603Z" transform="matrix(1.00026 0 0 1 535.708 685.976)"/><path d="M430.505 204.347 430.505 218.015" stroke="#000000" stroke-width="2.9793" stroke-linecap="round" stroke-linejoin="round" stroke-miterlimit="1.5" fill="none" fill-rule="evenodd" transform="matrix(1.00026 0 0 1 174.075 564.813)"/><path d="M4.07113-9.57741C3.5-9.57741 3.06067-9.43097 2.7385-9.12344 2.40168-8.81591 2.15272-8.4498 1.99163-7.99582 1.83055-7.54185 1.72803-7.07323 1.6841-6.56068 1.64017-6.04812 1.61088-5.59415 1.61088-5.1841 1.61088-4.77406 1.64017-4.32009 1.6841-3.80753 1.72803-3.29498 1.83055-2.82636 1.99163-2.37239 2.15272-1.91841 2.40168-1.5523 2.7385-1.24477 3.06067-0.937239 3.5-0.790796 4.07113-0.790796 4.64226-0.790796 5.08159-0.937239 5.41841-1.24477 5.74059-1.5523 5.98954-1.91841 6.15063-2.37239 6.31172-2.82636 6.42888-3.29498 6.47281-3.80753 6.5021-4.32009 6.53139-4.77406 6.53139-5.1841 6.53139-5.59415 6.5021-6.04812 6.47281-6.56068 6.42888-7.07323 6.31172-7.54185 6.15063-7.99582 5.98954-8.4498 5.74059-8.81591 5.41841-9.12344 5.08159-9.43097 4.64226-9.57741 4.07113-9.57741ZM4.07113-10.5439C4.818-10.5439 5.41841-10.3682 5.87239-10.0314 6.32636-9.69457 6.69247-9.25524 6.94143-8.72804 7.19038-8.20084 7.36612-7.62971 7.45398-7.00001 7.54185-6.3703 7.58578-5.75523 7.58578-5.1841 7.58578-4.61297 7.54185-4.01256 7.45398-3.38285 7.36612-2.75314 7.19038-2.16737 6.94143-1.64017 6.69247-1.11297 6.32636-0.673641 5.87239-0.33682 5.41841 0 4.818 0.175732 4.07113 0.175732 3.32427 0.175732 2.72385 0 2.26988-0.33682 1.8159-0.673641 1.44979-1.11297 1.20084-1.64017 0.951884-2.16737 0.776151-2.75314 0.688285-3.38285 0.600419-4.01256 0.556486-4.61297 0.556486-5.1841 0.556486-5.75523 0.600419-6.3703 0.688285-7.00001 0.776151-7.62971 0.951884-8.20084 1.20084-8.72804 1.44979-9.25524 1.8159-9.69457 2.26988-10.0314 2.72385-10.3682 3.32427-10.5439 4.07113-10.5439Z" transform="matrix(1.00026 0 0 1 600.633 797.919)"/><path d="M8.14061 0 6.45634 0 6.45634-14.4566 3.48549-11.8366 2.43283-13.0998 6.64348-16.5619 8.14061-16.5619 8.14061 0Z" transform="matrix(1.00026 0 0 1 552.521 752.393)"/><path d="M7.88627 0 6.25463 0 6.25463-14.0049 3.37659-11.4668 2.35682-12.6906 6.43593-16.0445 7.88627-16.0445 7.88627 0Z" transform="matrix(1.00026 0 0 1 572.335 804.584)"/></g></svg>